<?xml version="1.0" encoding="UTF-8" standalone="no"?>
<!DOCTYPE svg PUBLIC "-//W3C//DTD SVG 1.1//EN"
 "http://www.w3.org/Graphics/SVG/1.1/DTD/svg11.dtd">
<!-- Generated by graphviz version 8.0.5 (20230430.1635)
 -->
<!-- Title: v8::PersistentValueMapBase::PersistentValueReference::NewLocal Pages: 1 -->
<svg width="327pt" height="125pt"
 viewBox="0.00 0.00 326.50 124.88" xmlns="http://www.w3.org/2000/svg" xmlns:xlink="http://www.w3.org/1999/xlink">
<g id="graph0" class="graph" transform="scale(1 1) rotate(0) translate(4 120.88)">
<title>v8::PersistentValueMapBase::PersistentValueReference::NewLocal</title>
<!-- Node1 -->
<g id="node1" class="node">
<title>Node1</title>
<g id="a_node1"><a xlink:title=" ">
<polygon fill="#999999" stroke="#666666" points="141.25,-73.5 0,-73.5 0,-31.75 141.25,-31.75 141.25,-73.5"/>
<text text-anchor="start" x="8" y="-60" font-family="Helvetica,sans-Serif" font-size="10.00">v8::PersistentValueMapBase</text>
<text text-anchor="start" x="8" y="-48.75" font-family="Helvetica,sans-Serif" font-size="10.00">::PersistentValueReference</text>
<text text-anchor="middle" x="70.62" y="-37.5" font-family="Helvetica,sans-Serif" font-size="10.00">::NewLocal</text>
</a>
</g>
</g>
<!-- Node2 -->
<g id="node2" class="node">
<title>Node2</title>
<g id="a_node2"><a xlink:href="classv8_1_1PersistentValueMapBase.html#abb262f768e4353658726ba4d1295947c" target="_top" xlink:title=" ">
<polygon fill="white" stroke="#666666" points="318.5,-116.88 177.25,-116.88 177.25,-86.38 318.5,-86.38 318.5,-116.88"/>
<text text-anchor="start" x="185.25" y="-103.38" font-family="Helvetica,sans-Serif" font-size="10.00">v8::PersistentValueMapBase</text>
<text text-anchor="middle" x="247.88" y="-92.12" font-family="Helvetica,sans-Serif" font-size="10.00">::FromVal</text>
</a>
</g>
</g>
<!-- Node1&#45;&gt;Node2 -->
<g id="edge1" class="edge">
<title>Node1&#45;&gt;Node2</title>
<path fill="none" stroke="#63b8ff" d="M141.64,-72.2C154.38,-75.76 167.64,-79.47 180.27,-83"/>
<polygon fill="#63b8ff" stroke="#63b8ff" points="179.14,-86.6 189.71,-85.92 181.02,-79.86 179.14,-86.6"/>
</g>
<!-- Node3 -->
<g id="node3" class="node">
<title>Node3</title>
<g id="a_node3"><a xlink:href="classv8_1_1PersistentValueMapBase.html#ac15c999275fb50c0084246cb9a848811" target="_top" xlink:title=" ">
<polygon fill="white" stroke="#666666" points="318.5,-67.88 177.25,-67.88 177.25,-37.38 318.5,-37.38 318.5,-67.88"/>
<text text-anchor="start" x="185.25" y="-54.38" font-family="Helvetica,sans-Serif" font-size="10.00">v8::PersistentValueMapBase</text>
<text text-anchor="middle" x="247.88" y="-43.12" font-family="Helvetica,sans-Serif" font-size="10.00">::isolate</text>
</a>
</g>
</g>
<!-- Node1&#45;&gt;Node3 -->
<g id="edge2" class="edge">
<title>Node1&#45;&gt;Node3</title>
<path fill="none" stroke="#63b8ff" d="M141.64,-52.62C149.73,-52.62 158.03,-52.62 166.24,-52.62"/>
<polygon fill="#63b8ff" stroke="#63b8ff" points="165.97,-56.13 175.97,-52.62 165.97,-49.13 165.97,-56.13"/>
</g>
<!-- Node4 -->
<g id="node4" class="node">
<title>Node4</title>
<g id="a_node4"><a xlink:href="classv8_1_1Local.html#ae718dd5d42264bfaa2b5a42616b6673e" target="_top" xlink:title=" ">
<polygon fill="white" stroke="#666666" points="287.75,-19.25 208,-19.25 208,0 287.75,0 287.75,-19.25"/>
<text text-anchor="middle" x="247.88" y="-5.75" font-family="Helvetica,sans-Serif" font-size="10.00">v8::Local::New</text>
</a>
</g>
</g>
<!-- Node1&#45;&gt;Node4 -->
<g id="edge3" class="edge">
<title>Node1&#45;&gt;Node4</title>
<path fill="none" stroke="#63b8ff" d="M141.64,-35.44C160.28,-30.87 180.02,-26.03 197.31,-21.79"/>
<polygon fill="#63b8ff" stroke="#63b8ff" points="197.84,-25.01 206.72,-19.23 196.18,-18.22 197.84,-25.01"/>
</g>
</g>
</svg>
