<?xml version="1.0" encoding="UTF-8" standalone="no"?>
<!DOCTYPE svg PUBLIC "-//W3C//DTD SVG 1.1//EN"
 "http://www.w3.org/Graphics/SVG/1.1/DTD/svg11.dtd">
<!-- Generated by graphviz version 8.0.5 (20230430.1635)
 -->
<!-- Title: Graphical Class Hierarchy Pages: 1 -->
<svg width="503pt" height="147pt"
 viewBox="0.00 0.00 503.00 147.12" xmlns="http://www.w3.org/2000/svg" xmlns:xlink="http://www.w3.org/1999/xlink">
<g id="graph0" class="graph" transform="scale(1 1) rotate(0) translate(4 143.12)">
<title>Graphical Class Hierarchy</title>
<!-- Node0 -->
<g id="node1" class="node">
<title>Node0</title>
<g id="a_node1"><a xlink:href="classv8_1_1PersistentValueMapBase.html" target="_top" xlink:title=" ">
<polygon fill="white" stroke="#666666" points="141.25,-79.5 0,-79.5 0,-49 141.25,-49 141.25,-79.5"/>
<text text-anchor="start" x="8" y="-66" font-family="Helvetica,sans-Serif" font-size="10.00">v8::PersistentValueMapBase</text>
<text text-anchor="middle" x="70.62" y="-54.75" font-family="Helvetica,sans-Serif" font-size="10.00">&lt; K, V, Traits &gt;</text>
</a>
</g>
</g>
<!-- Node1 -->
<g id="node2" class="node">
<title>Node1</title>
<g id="a_node2"><a xlink:href="classv8_1_1PersistentValueMap.html" target="_top" xlink:title=" ">
<polygon fill="white" stroke="#666666" points="325.25,-139.12 177.25,-139.12 177.25,-97.38 325.25,-97.38 325.25,-139.12"/>
<text text-anchor="start" x="185.25" y="-125.62" font-family="Helvetica,sans-Serif" font-size="10.00">v8::PersistentValueMap</text>
<text text-anchor="start" x="185.25" y="-114.38" font-family="Helvetica,sans-Serif" font-size="10.00">&lt; K, V, DefaultPersistentValue</text>
<text text-anchor="middle" x="251.25" y="-103.12" font-family="Helvetica,sans-Serif" font-size="10.00">MapTraits&lt; K, V &gt; &gt;</text>
</a>
</g>
</g>
<!-- Node0&#45;&gt;Node1 -->
<g id="edge1" class="edge">
<title>Node0&#45;&gt;Node1</title>
<path fill="none" stroke="#63b8ff" d="M133.43,-82.93C148.37,-87.45 164.45,-92.31 179.76,-96.94"/>
<polygon fill="#63b8ff" stroke="#63b8ff" points="134.88,-79.41 124.29,-79.87 132.85,-86.11 134.88,-79.41"/>
</g>
<!-- Node2 -->
<g id="node3" class="node">
<title>Node2</title>
<g id="a_node3"><a xlink:href="classv8_1_1GlobalValueMap.html" target="_top" xlink:title=" ">
<polygon fill="white" stroke="#666666" points="302.38,-79.5 200.12,-79.5 200.12,-49 302.38,-49 302.38,-79.5"/>
<text text-anchor="start" x="208.12" y="-66" font-family="Helvetica,sans-Serif" font-size="10.00">v8::GlobalValueMap</text>
<text text-anchor="middle" x="251.25" y="-54.75" font-family="Helvetica,sans-Serif" font-size="10.00">&lt; K, V, Traits &gt;</text>
</a>
</g>
</g>
<!-- Node0&#45;&gt;Node2 -->
<g id="edge2" class="edge">
<title>Node0&#45;&gt;Node2</title>
<path fill="none" stroke="#63b8ff" d="M152.7,-64.25C168.7,-64.25 185.06,-64.25 199.69,-64.25"/>
<polygon fill="#63b8ff" stroke="#63b8ff" points="152.71,-60.75 142.71,-64.25 152.71,-67.75 152.71,-60.75"/>
</g>
<!-- Node3 -->
<g id="node4" class="node">
<title>Node3</title>
<g id="a_node4"><a xlink:href="classv8_1_1PersistentValueMap.html" target="_top" xlink:title=" ">
<polygon fill="white" stroke="#666666" points="310.62,-30.5 191.88,-30.5 191.88,0 310.62,0 310.62,-30.5"/>
<text text-anchor="start" x="199.88" y="-17" font-family="Helvetica,sans-Serif" font-size="10.00">v8::PersistentValueMap</text>
<text text-anchor="middle" x="251.25" y="-5.75" font-family="Helvetica,sans-Serif" font-size="10.00">&lt; K, V, Traits &gt;</text>
</a>
</g>
</g>
<!-- Node0&#45;&gt;Node3 -->
<g id="edge3" class="edge">
<title>Node0&#45;&gt;Node3</title>
<path fill="none" stroke="#63b8ff" d="M138.92,-45.79C156.68,-40.92 175.68,-35.71 192.86,-30.99"/>
<polygon fill="#63b8ff" stroke="#63b8ff" points="138.35,-42.59 129.63,-48.61 140.2,-49.34 138.35,-42.59"/>
</g>
<!-- Node4 -->
<g id="node5" class="node">
<title>Node4</title>
<g id="a_node5"><a xlink:href="classv8_1_1StdPersistentValueMap.html" target="_top" xlink:title=" ">
<polygon fill="white" stroke="#666666" points="495,-30.5 361.25,-30.5 361.25,0 495,0 495,-30.5"/>
<text text-anchor="start" x="369.25" y="-17" font-family="Helvetica,sans-Serif" font-size="10.00">v8::StdPersistentValueMap</text>
<text text-anchor="middle" x="428.12" y="-5.75" font-family="Helvetica,sans-Serif" font-size="10.00">&lt; K, V, Traits &gt;</text>
</a>
</g>
</g>
<!-- Node3&#45;&gt;Node4 -->
<g id="edge4" class="edge">
<title>Node3&#45;&gt;Node4</title>
<path fill="none" stroke="#63b8ff" d="M321.7,-15.25C334.66,-15.25 348.17,-15.25 361.03,-15.25"/>
<polygon fill="#63b8ff" stroke="#63b8ff" points="321.97,-11.75 311.97,-15.25 321.97,-18.75 321.97,-11.75"/>
</g>
</g>
</svg>
