<?xml version="1.0" encoding="UTF-8" standalone="no"?>
<!DOCTYPE svg PUBLIC "-//W3C//DTD SVG 1.1//EN"
 "http://www.w3.org/Graphics/SVG/1.1/DTD/svg11.dtd">
<!-- Generated by graphviz version 8.0.5 (20230430.1635)
 -->
<!-- Title: include/v8.h Pages: 1 -->
<svg width="585pt" height="83pt"
 viewBox="0.00 0.00 585.25 82.50" xmlns="http://www.w3.org/2000/svg" xmlns:xlink="http://www.w3.org/1999/xlink">
<g id="graph0" class="graph" transform="scale(1 1) rotate(0) translate(4 78.5)">
<title>include/v8.h</title>
<!-- Node1 -->
<g id="node1" class="node">
<title>Node1</title>
<g id="a_node1"><a xlink:title=" ">
<polygon fill="#999999" stroke="#666666" points="341.38,-74.5 273.62,-74.5 273.62,-55.25 341.38,-55.25 341.38,-74.5"/>
<text text-anchor="middle" x="307.5" y="-61" font-family="Helvetica,sans-Serif" font-size="10.00">include/v8.h</text>
</a>
</g>
</g>
<!-- Node2 -->
<g id="node2" class="node">
<title>Node2</title>
<g id="a_node2"><a xlink:href="v8-debug_8h.html" target="_top" xlink:title=" ">
<polygon fill="white" stroke="#666666" points="97,-19.25 0,-19.25 0,0 97,0 97,-19.25"/>
<text text-anchor="middle" x="48.5" y="-5.75" font-family="Helvetica,sans-Serif" font-size="10.00">include/v8&#45;debug.h</text>
</a>
</g>
</g>
<!-- Node1&#45;&gt;Node2 -->
<g id="edge1" class="edge">
<title>Node1&#45;&gt;Node2</title>
<path fill="none" stroke="#63b8ff" d="M262.76,-54.68C215.1,-44.88 140.12,-29.46 92.68,-19.71"/>
<polygon fill="#63b8ff" stroke="#63b8ff" points="261.87,-58.27 272.37,-56.86 263.28,-51.42 261.87,-58.27"/>
</g>
<!-- Node3 -->
<g id="node3" class="node">
<title>Node3</title>
<g id="a_node3"><a xlink:href="v8-experimental_8h.html" target="_top" xlink:title=" ">
<polygon fill="white" stroke="#666666" points="240.25,-19.25 114.75,-19.25 114.75,0 240.25,0 240.25,-19.25"/>
<text text-anchor="middle" x="177.5" y="-5.75" font-family="Helvetica,sans-Serif" font-size="10.00">include/v8&#45;experimental.h</text>
</a>
</g>
</g>
<!-- Node1&#45;&gt;Node3 -->
<g id="edge2" class="edge">
<title>Node1&#45;&gt;Node3</title>
<path fill="none" stroke="#63b8ff" d="M275.56,-50.79C251.99,-41.14 220.52,-28.25 199.66,-19.7"/>
<polygon fill="#63b8ff" stroke="#63b8ff" points="273.87,-54.29 284.45,-54.84 276.52,-47.81 273.87,-54.29"/>
</g>
<!-- Node4 -->
<g id="node4" class="node">
<title>Node4</title>
<g id="a_node4"><a xlink:href="v8-profiler_8h.html" target="_top" xlink:title=" ">
<polygon fill="white" stroke="#666666" points="357.12,-19.25 257.88,-19.25 257.88,0 357.12,0 357.12,-19.25"/>
<text text-anchor="middle" x="307.5" y="-5.75" font-family="Helvetica,sans-Serif" font-size="10.00">include/v8&#45;profiler.h</text>
</a>
</g>
</g>
<!-- Node1&#45;&gt;Node4 -->
<g id="edge3" class="edge">
<title>Node1&#45;&gt;Node4</title>
<path fill="none" stroke="#63b8ff" d="M307.5,-44.21C307.5,-35.77 307.5,-26.33 307.5,-19.61"/>
<polygon fill="#63b8ff" stroke="#63b8ff" points="304,-44.08 307.5,-54.08 311,-44.08 304,-44.08"/>
</g>
<!-- Node5 -->
<g id="node5" class="node">
<title>Node5</title>
<g id="a_node5"><a xlink:href="v8-testing_8h.html" target="_top" xlink:title=" ">
<polygon fill="white" stroke="#666666" points="475.5,-19.25 375.5,-19.25 375.5,0 475.5,0 475.5,-19.25"/>
<text text-anchor="middle" x="425.5" y="-5.75" font-family="Helvetica,sans-Serif" font-size="10.00">include/v8&#45;testing.h</text>
</a>
</g>
</g>
<!-- Node1&#45;&gt;Node5 -->
<g id="edge4" class="edge">
<title>Node1&#45;&gt;Node5</title>
<path fill="none" stroke="#63b8ff" d="M337.36,-50.4C358.65,-40.79 386.7,-28.13 405.38,-19.7"/>
<polygon fill="#63b8ff" stroke="#63b8ff" points="336.19,-47.54 328.52,-54.84 339.07,-53.92 336.19,-47.54"/>
</g>
<!-- Node6 -->
<g id="node6" class="node">
<title>Node6</title>
<g id="a_node6"><a xlink:href="v8-util_8h.html" target="_top" xlink:title=" ">
<polygon fill="white" stroke="#666666" points="577.25,-19.25 493.75,-19.25 493.75,0 577.25,0 577.25,-19.25"/>
<text text-anchor="middle" x="535.5" y="-5.75" font-family="Helvetica,sans-Serif" font-size="10.00">include/v8&#45;util.h</text>
</a>
</g>
</g>
<!-- Node1&#45;&gt;Node6 -->
<g id="edge5" class="edge">
<title>Node1&#45;&gt;Node6</title>
<path fill="none" stroke="#63b8ff" d="M352.12,-53.45C394.15,-43.64 456.47,-29.08 496.54,-19.72"/>
<polygon fill="#63b8ff" stroke="#63b8ff" points="351.58,-50.22 342.63,-55.9 353.17,-57.04 351.58,-50.22"/>
</g>
</g>
</svg>
