<?xml version="1.0" encoding="UTF-8" standalone="no"?>
<!DOCTYPE svg PUBLIC "-//W3C//DTD SVG 1.1//EN"
 "http://www.w3.org/Graphics/SVG/1.1/DTD/svg11.dtd">
<!-- Generated by graphviz version 8.0.5 (20230430.1635)
 -->
<!-- Title: include/cppgc/explicit&#45;management.h Pages: 1 -->
<svg width="1003pt" height="337pt"
 viewBox="0.00 0.00 1002.84 337.25" xmlns="http://www.w3.org/2000/svg" xmlns:xlink="http://www.w3.org/1999/xlink">
<g id="graph0" class="graph" transform="scale(1 1) rotate(0) translate(4 333.25)">
<title>include/cppgc/explicit&#45;management.h</title>
<!-- Node1 -->
<g id="node1" class="node">
<title>Node1</title>
<g id="a_node1"><a xlink:title=" ">
<polygon fill="#999999" stroke="#666666" points="779.32,-329.25 670.32,-329.25 670.32,-298.75 779.32,-298.75 779.32,-329.25"/>
<text text-anchor="start" x="678.32" y="-315.75" font-family="Helvetica,sans-Serif" font-size="10.00">include/cppgc/explicit</text>
<text text-anchor="middle" x="724.82" y="-304.5" font-family="Helvetica,sans-Serif" font-size="10.00">&#45;management.h</text>
</a>
</g>
</g>
<!-- Node2 -->
<g id="node2" class="node">
<title>Node2</title>
<g id="a_node2"><a xlink:title=" ">
<polygon fill="#e0e0e0" stroke="#999999" points="805.95,-19.25 757.7,-19.25 757.7,0 805.95,0 805.95,-19.25"/>
<text text-anchor="middle" x="781.82" y="-5.75" font-family="Helvetica,sans-Serif" font-size="10.00">cstddef</text>
</a>
</g>
</g>
<!-- Node1&#45;&gt;Node2 -->
<g id="edge1" class="edge">
<title>Node1&#45;&gt;Node2</title>
<path fill="none" stroke="#63b8ff" d="M779.58,-312.07C858.23,-307.5 993.82,-286.16 993.82,-193.25 993.82,-193.25 993.82,-193.25 993.82,-124.75 993.82,-92.73 997.91,-77.44 974.82,-55.25 952.57,-33.86 866.62,-20.52 817.25,-14.47"/>
<polygon fill="#63b8ff" stroke="#63b8ff" points="817.77,-10.89 807.43,-13.18 816.94,-17.84 817.77,-10.89"/>
</g>
<!-- Node3 -->
<g id="node3" class="node">
<title>Node3</title>
<g id="a_node3"><a xlink:href="allocation_8h.html" target="_top" xlink:title=" ">
<polygon fill="white" stroke="#666666" points="638.82,-262.75 544.82,-262.75 544.82,-243.5 638.82,-243.5 638.82,-262.75"/>
<text text-anchor="middle" x="591.82" y="-249.25" font-family="Helvetica,sans-Serif" font-size="10.00">cppgc/allocation.h</text>
</a>
</g>
</g>
<!-- Node1&#45;&gt;Node3 -->
<g id="edge2" class="edge">
<title>Node1&#45;&gt;Node3</title>
<path fill="none" stroke="#63b8ff" d="M691.6,-298.3C670.28,-288.85 642.8,-276.69 622.08,-267.52"/>
<polygon fill="#63b8ff" stroke="#63b8ff" points="623.78,-264 613.22,-263.15 620.95,-270.4 623.78,-264"/>
</g>
<!-- Node14 -->
<g id="node14" class="node">
<title>Node14</title>
<g id="a_node14"><a xlink:href="type-traits_8h.html" target="_top" xlink:title=" ">
<polygon fill="white" stroke="#666666" points="293.57,-74.5 198.07,-74.5 198.07,-55.25 293.57,-55.25 293.57,-74.5"/>
<text text-anchor="middle" x="245.82" y="-61" font-family="Helvetica,sans-Serif" font-size="10.00">cppgc/type&#45;traits.h</text>
</a>
</g>
</g>
<!-- Node1&#45;&gt;Node14 -->
<g id="edge41" class="edge">
<title>Node1&#45;&gt;Node14</title>
<path fill="none" stroke="#63b8ff" d="M669.82,-311.44C524.9,-306.29 137.01,-285.37 39.82,-207.5 4.99,-179.59 -14.6,-144.91 13.82,-110.5 35.38,-84.4 125.61,-73.4 186.98,-68.89"/>
<polygon fill="#63b8ff" stroke="#63b8ff" points="186.97,-72.33 196.7,-68.14 186.49,-65.34 186.97,-72.33"/>
</g>
<!-- Node18 -->
<g id="node18" class="node">
<title>Node18</title>
<g id="a_node18"><a xlink:href="logging_8h.html" target="_top" xlink:title=" ">
<polygon fill="white" stroke="#666666" points="965.82,-135.38 847.82,-135.38 847.82,-116.12 965.82,-116.12 965.82,-135.38"/>
<text text-anchor="middle" x="906.82" y="-121.88" font-family="Helvetica,sans-Serif" font-size="10.00">cppgc/internal/logging.h</text>
</a>
</g>
</g>
<!-- Node1&#45;&gt;Node18 -->
<g id="edge35" class="edge">
<title>Node1&#45;&gt;Node18</title>
<path fill="none" stroke="#63b8ff" d="M740.66,-298.3C762.17,-278.2 801.61,-240.83 833.82,-207.5 854.65,-185.94 877.7,-160.1 892.21,-143.56"/>
<polygon fill="#63b8ff" stroke="#63b8ff" points="895.39,-146.24 899.33,-136.41 890.12,-141.64 895.39,-146.24"/>
</g>
<!-- Node3&#45;&gt;Node2 -->
<g id="edge4" class="edge">
<title>Node3&#45;&gt;Node2</title>
<path fill="none" stroke="#63b8ff" d="M639.2,-247.47C689,-241.49 762.5,-229.19 779.82,-207.5 821.38,-155.46 800.84,-68.59 788.65,-30.05"/>
<polygon fill="#63b8ff" stroke="#63b8ff" points="791.69,-29.12 785.21,-20.74 785.05,-31.33 791.69,-29.12"/>
</g>
<!-- Node4 -->
<g id="node4" class="node">
<title>Node4</title>
<g id="a_node4"><a xlink:title=" ">
<polygon fill="#e0e0e0" stroke="#999999" points="614.45,-135.38 569.2,-135.38 569.2,-116.12 614.45,-116.12 614.45,-135.38"/>
<text text-anchor="middle" x="591.82" y="-121.88" font-family="Helvetica,sans-Serif" font-size="10.00">atomic</text>
</a>
</g>
</g>
<!-- Node3&#45;&gt;Node4 -->
<g id="edge3" class="edge">
<title>Node3&#45;&gt;Node4</title>
<path fill="none" stroke="#63b8ff" d="M591.82,-243.11C591.82,-222.96 591.82,-173.88 591.82,-146.34"/>
<polygon fill="#63b8ff" stroke="#63b8ff" points="595.32,-146.68 591.82,-136.68 588.32,-146.68 595.32,-146.68"/>
</g>
<!-- Node5 -->
<g id="node5" class="node">
<title>Node5</title>
<g id="a_node5"><a xlink:title=" ">
<polygon fill="#e0e0e0" stroke="#999999" points="677.45,-135.38 632.2,-135.38 632.2,-116.12 677.45,-116.12 677.45,-135.38"/>
<text text-anchor="middle" x="654.82" y="-121.88" font-family="Helvetica,sans-Serif" font-size="10.00">cstdint</text>
</a>
</g>
</g>
<!-- Node3&#45;&gt;Node5 -->
<g id="edge5" class="edge">
<title>Node3&#45;&gt;Node5</title>
<path fill="none" stroke="#63b8ff" d="M596.35,-243.11C606.61,-222.69 631.8,-172.56 645.53,-145.24"/>
<polygon fill="#63b8ff" stroke="#63b8ff" points="648.97,-147.19 650.33,-136.68 642.71,-144.05 648.97,-147.19"/>
</g>
<!-- Node6 -->
<g id="node6" class="node">
<title>Node6</title>
<g id="a_node6"><a xlink:title=" ">
<polygon fill="#e0e0e0" stroke="#999999" points="240.82,-201.88 206.82,-201.88 206.82,-182.62 240.82,-182.62 240.82,-201.88"/>
<text text-anchor="middle" x="223.82" y="-188.38" font-family="Helvetica,sans-Serif" font-size="10.00">new</text>
</a>
</g>
</g>
<!-- Node3&#45;&gt;Node6 -->
<g id="edge6" class="edge">
<title>Node3&#45;&gt;Node6</title>
<path fill="none" stroke="#63b8ff" d="M544.58,-250.31C478.55,-246.79 355.46,-236.58 254.82,-207.5 253.68,-207.17 252.53,-206.81 251.38,-206.41"/>
<polygon fill="#63b8ff" stroke="#63b8ff" points="252.76,-202.8 242.18,-202.33 250.16,-209.3 252.76,-202.8"/>
</g>
<!-- Node7 -->
<g id="node7" class="node">
<title>Node7</title>
<g id="a_node7"><a xlink:title=" ">
<polygon fill="#e0e0e0" stroke="#999999" points="200.32,-19.25 139.32,-19.25 139.32,0 200.32,0 200.32,-19.25"/>
<text text-anchor="middle" x="169.82" y="-5.75" font-family="Helvetica,sans-Serif" font-size="10.00">type_traits</text>
</a>
</g>
</g>
<!-- Node3&#45;&gt;Node7 -->
<g id="edge7" class="edge">
<title>Node3&#45;&gt;Node7</title>
<path fill="none" stroke="#63b8ff" d="M544.66,-251.14C418.46,-248.12 79.89,-237.3 39.82,-207.5 4,-180.87 -7.6,-149.65 13.82,-110.5 38.37,-65.63 92.63,-37.96 130.21,-23.44"/>
<polygon fill="#63b8ff" stroke="#63b8ff" points="131.16,-26.45 139.33,-19.69 128.73,-19.89 131.16,-26.45"/>
</g>
<!-- Node8 -->
<g id="node8" class="node">
<title>Node8</title>
<g id="a_node8"><a xlink:href="custom-space_8h.html" target="_top" xlink:title=" ">
<polygon fill="white" stroke="#666666" points="162.95,-201.88 48.7,-201.88 48.7,-182.62 162.95,-182.62 162.95,-201.88"/>
<text text-anchor="middle" x="105.82" y="-188.38" font-family="Helvetica,sans-Serif" font-size="10.00">cppgc/custom&#45;space.h</text>
</a>
</g>
</g>
<!-- Node3&#45;&gt;Node8 -->
<g id="edge8" class="edge">
<title>Node3&#45;&gt;Node8</title>
<path fill="none" stroke="#63b8ff" d="M544.44,-247.39C470.37,-239.85 322.68,-224.23 197.82,-207.5 189.8,-206.43 181.4,-205.23 173.07,-203.99"/>
<polygon fill="#63b8ff" stroke="#63b8ff" points="173.62,-200.38 163.21,-202.36 172.57,-207.31 173.62,-200.38"/>
</g>
<!-- Node10 -->
<g id="node10" class="node">
<title>Node10</title>
<g id="a_node10"><a xlink:href="api-constants_8h.html" target="_top" xlink:title=" ">
<polygon fill="white" stroke="#666666" points="751.07,-207.5 658.57,-207.5 658.57,-177 751.07,-177 751.07,-207.5"/>
<text text-anchor="start" x="666.57" y="-194" font-family="Helvetica,sans-Serif" font-size="10.00">cppgc/internal/api</text>
<text text-anchor="middle" x="704.82" y="-182.75" font-family="Helvetica,sans-Serif" font-size="10.00">&#45;constants.h</text>
</a>
</g>
</g>
<!-- Node3&#45;&gt;Node10 -->
<g id="edge10" class="edge">
<title>Node3&#45;&gt;Node10</title>
<path fill="none" stroke="#63b8ff" d="M608.98,-243.18C624.41,-235.15 647.59,-223.07 667.3,-212.8"/>
<polygon fill="#63b8ff" stroke="#63b8ff" points="668.68,-215.51 675.93,-207.78 665.44,-209.3 668.68,-215.51"/>
</g>
<!-- Node11 -->
<g id="node11" class="node">
<title>Node11</title>
<g id="a_node11"><a xlink:href="v8config_8h.html" target="_top" xlink:title=" ">
<polygon fill="white" stroke="#666666" points="666.57,-19.25 607.07,-19.25 607.07,0 666.57,0 666.57,-19.25"/>
<text text-anchor="middle" x="636.82" y="-5.75" font-family="Helvetica,sans-Serif" font-size="10.00">v8config.h</text>
</a>
</g>
</g>
<!-- Node3&#45;&gt;Node11 -->
<g id="edge34" class="edge">
<title>Node3&#45;&gt;Node11</title>
<path fill="none" stroke="#63b8ff" d="M639.18,-246.02C683.54,-239.21 745.15,-226.58 759.82,-207.5 808.78,-143.84 706.99,-60 659.48,-25.96"/>
<polygon fill="#63b8ff" stroke="#63b8ff" points="661.69,-22.54 651.5,-19.66 657.67,-28.27 661.69,-22.54"/>
</g>
<!-- Node12 -->
<g id="node12" class="node">
<title>Node12</title>
<g id="a_node12"><a xlink:href="gc-info_8h.html" target="_top" xlink:title=" ">
<polygon fill="white" stroke="#666666" points="541.07,-201.88 424.57,-201.88 424.57,-182.62 541.07,-182.62 541.07,-201.88"/>
<text text-anchor="middle" x="482.82" y="-188.38" font-family="Helvetica,sans-Serif" font-size="10.00">cppgc/internal/gc&#45;info.h</text>
</a>
</g>
</g>
<!-- Node3&#45;&gt;Node12 -->
<g id="edge14" class="edge">
<title>Node3&#45;&gt;Node12</title>
<path fill="none" stroke="#63b8ff" d="M575.27,-243.18C557.66,-233.67 529.57,-218.5 508.96,-207.37"/>
<polygon fill="#63b8ff" stroke="#63b8ff" points="510.99,-203.95 500.53,-202.28 507.67,-210.11 510.99,-203.95"/>
</g>
<!-- Node3&#45;&gt;Node14 -->
<g id="edge33" class="edge">
<title>Node3&#45;&gt;Node14</title>
<path fill="none" stroke="#63b8ff" d="M544.35,-246.86C478.55,-237.16 359.62,-210.64 287.82,-141 271.44,-125.11 259.65,-101.44 252.81,-84.92"/>
<polygon fill="#63b8ff" stroke="#63b8ff" points="255.76,-83.86 248.87,-75.82 249.24,-86.41 255.76,-83.86"/>
</g>
<!-- Node9 -->
<g id="node9" class="node">
<title>Node9</title>
<g id="a_node9"><a xlink:title=" ">
<polygon fill="#e0e0e0" stroke="#999999" points="73.07,-135.38 22.57,-135.38 22.57,-116.12 73.07,-116.12 73.07,-135.38"/>
<text text-anchor="middle" x="47.82" y="-121.88" font-family="Helvetica,sans-Serif" font-size="10.00">stddef.h</text>
</a>
</g>
</g>
<!-- Node8&#45;&gt;Node9 -->
<g id="edge9" class="edge">
<title>Node8&#45;&gt;Node9</title>
<path fill="none" stroke="#63b8ff" d="M97.76,-182.28C88.84,-172.37 74.27,-156.16 63.16,-143.81"/>
<polygon fill="#63b8ff" stroke="#63b8ff" points="66.11,-141.74 56.82,-136.64 60.9,-146.42 66.11,-141.74"/>
</g>
<!-- Node10&#45;&gt;Node2 -->
<g id="edge11" class="edge">
<title>Node10&#45;&gt;Node2</title>
<path fill="none" stroke="#63b8ff" d="M710.99,-176.77C724.83,-144.3 758.35,-65.68 773.79,-29.46"/>
<polygon fill="#63b8ff" stroke="#63b8ff" points="777.26,-31.25 777.96,-20.68 770.82,-28.51 777.26,-31.25"/>
</g>
<!-- Node10&#45;&gt;Node5 -->
<g id="edge12" class="edge">
<title>Node10&#45;&gt;Node5</title>
<path fill="none" stroke="#63b8ff" d="M693.48,-176.61C685.97,-166.94 676.11,-154.21 668.22,-144.04"/>
<polygon fill="#63b8ff" stroke="#63b8ff" points="670.55,-142.33 661.66,-136.57 665.02,-146.62 670.55,-142.33"/>
</g>
<!-- Node10&#45;&gt;Node11 -->
<g id="edge13" class="edge">
<title>Node10&#45;&gt;Node11</title>
<path fill="none" stroke="#63b8ff" d="M702.67,-176.66C700.01,-160.25 694.81,-132.96 686.82,-110.5 676.24,-80.77 658.91,-48.47 647.68,-28.89"/>
<polygon fill="#63b8ff" stroke="#63b8ff" points="650.36,-27.53 642.29,-20.65 644.31,-31.06 650.36,-27.53"/>
</g>
<!-- Node12&#45;&gt;Node4 -->
<g id="edge15" class="edge">
<title>Node12&#45;&gt;Node4</title>
<path fill="none" stroke="#63b8ff" d="M497.98,-182.28C515.85,-171.7 545.82,-153.97 567.08,-141.39"/>
<polygon fill="#63b8ff" stroke="#63b8ff" points="568.62,-143.96 575.44,-135.85 565.05,-137.93 568.62,-143.96"/>
</g>
<!-- Node12&#45;&gt;Node5 -->
<g id="edge16" class="edge">
<title>Node12&#45;&gt;Node5</title>
<path fill="none" stroke="#63b8ff" d="M510.65,-182.14C539.29,-172.58 585.07,-156.78 623.82,-141 624.56,-140.7 625.31,-140.39 626.06,-140.07"/>
<polygon fill="#63b8ff" stroke="#63b8ff" points="627.16,-142.98 634.92,-135.76 624.36,-136.56 627.16,-142.98"/>
</g>
<!-- Node12&#45;&gt;Node7 -->
<g id="edge17" class="edge">
<title>Node12&#45;&gt;Node7</title>
<path fill="none" stroke="#63b8ff" d="M424.14,-187.3C326.52,-180.12 139.49,-163.58 119.82,-141 90.37,-107.19 129.58,-54.17 153.61,-27.35"/>
<polygon fill="#63b8ff" stroke="#63b8ff" points="155.54,-30.34 159.77,-20.62 150.41,-25.58 155.54,-30.34"/>
</g>
<!-- Node12&#45;&gt;Node11 -->
<g id="edge32" class="edge">
<title>Node12&#45;&gt;Node11</title>
<path fill="none" stroke="#63b8ff" d="M490.25,-182.54C514.28,-154.35 590.2,-65.31 622.28,-27.68"/>
<polygon fill="#63b8ff" stroke="#63b8ff" points="625.28,-30.56 629.11,-20.67 619.95,-26.01 625.28,-30.56"/>
</g>
<!-- Node13 -->
<g id="node13" class="node">
<title>Node13</title>
<g id="a_node13"><a xlink:href="finalizer-trait_8h.html" target="_top" xlink:title=" ">
<polygon fill="white" stroke="#666666" points="240.82,-141 128.82,-141 128.82,-110.5 240.82,-110.5 240.82,-141"/>
<text text-anchor="start" x="136.82" y="-127.5" font-family="Helvetica,sans-Serif" font-size="10.00">cppgc/internal/finalizer</text>
<text text-anchor="middle" x="184.82" y="-116.25" font-family="Helvetica,sans-Serif" font-size="10.00">&#45;trait.h</text>
</a>
</g>
</g>
<!-- Node12&#45;&gt;Node13 -->
<g id="edge18" class="edge">
<title>Node12&#45;&gt;Node13</title>
<path fill="none" stroke="#63b8ff" d="M440.76,-182.15C391.59,-171.5 309.6,-153.76 251.69,-141.22"/>
<polygon fill="#63b8ff" stroke="#63b8ff" points="252.68,-137.64 242.17,-138.95 251.2,-144.48 252.68,-137.64"/>
</g>
<!-- Node15 -->
<g id="node15" class="node">
<title>Node15</title>
<g id="a_node15"><a xlink:href="name-trait_8h.html" target="_top" xlink:title=" ">
<polygon fill="white" stroke="#666666" points="512.7,-141 408.95,-141 408.95,-110.5 512.7,-110.5 512.7,-141"/>
<text text-anchor="start" x="416.95" y="-127.5" font-family="Helvetica,sans-Serif" font-size="10.00">cppgc/internal/name</text>
<text text-anchor="middle" x="460.82" y="-116.25" font-family="Helvetica,sans-Serif" font-size="10.00">&#45;trait.h</text>
</a>
</g>
</g>
<!-- Node12&#45;&gt;Node15 -->
<g id="edge23" class="edge">
<title>Node12&#45;&gt;Node15</title>
<path fill="none" stroke="#63b8ff" d="M479.76,-182.28C477.03,-174.29 472.91,-162.2 469.21,-151.34"/>
<polygon fill="#63b8ff" stroke="#63b8ff" points="472.25,-150.43 465.71,-142.09 465.63,-152.69 472.25,-150.43"/>
</g>
<!-- Node17 -->
<g id="node17" class="node">
<title>Node17</title>
<g id="a_node17"><a xlink:href="trace-trait_8h.html" target="_top" xlink:title=" ">
<polygon fill="white" stroke="#666666" points="390.82,-135.38 296.82,-135.38 296.82,-116.12 390.82,-116.12 390.82,-135.38"/>
<text text-anchor="middle" x="343.82" y="-121.88" font-family="Helvetica,sans-Serif" font-size="10.00">cppgc/trace&#45;trait.h</text>
</a>
</g>
</g>
<!-- Node12&#45;&gt;Node17 -->
<g id="edge28" class="edge">
<title>Node12&#45;&gt;Node17</title>
<path fill="none" stroke="#63b8ff" d="M463.2,-182.15C439.71,-171.25 400.15,-152.89 373.06,-140.32"/>
<polygon fill="#63b8ff" stroke="#63b8ff" points="374.89,-136.84 364.34,-135.81 371.94,-143.19 374.89,-136.84"/>
</g>
<!-- Node13&#45;&gt;Node7 -->
<g id="edge19" class="edge">
<title>Node13&#45;&gt;Node7</title>
<path fill="none" stroke="#63b8ff" d="M182.92,-110.3C180.26,-90.06 175.42,-53.22 172.43,-30.44"/>
<polygon fill="#63b8ff" stroke="#63b8ff" points="175.79,-30.16 171.01,-20.7 168.85,-31.07 175.79,-30.16"/>
</g>
<!-- Node13&#45;&gt;Node14 -->
<g id="edge20" class="edge">
<title>Node13&#45;&gt;Node14</title>
<path fill="none" stroke="#63b8ff" d="M199.9,-110.2C208.65,-101.75 219.7,-91.08 228.77,-82.33"/>
<polygon fill="#63b8ff" stroke="#63b8ff" points="230.65,-85.41 235.42,-75.95 225.79,-80.38 230.65,-85.41"/>
</g>
<!-- Node14&#45;&gt;Node2 -->
<g id="edge21" class="edge">
<title>Node14&#45;&gt;Node2</title>
<path fill="none" stroke="#63b8ff" d="M293.86,-59.1C400.17,-48.54 653.31,-23.39 746.55,-14.13"/>
<polygon fill="#63b8ff" stroke="#63b8ff" points="746.76,-17.53 756.36,-13.05 746.07,-10.56 746.76,-17.53"/>
</g>
<!-- Node14&#45;&gt;Node7 -->
<g id="edge22" class="edge">
<title>Node14&#45;&gt;Node7</title>
<path fill="none" stroke="#63b8ff" d="M232.93,-54.84C221.57,-46.89 204.8,-35.14 191.41,-25.75"/>
<polygon fill="#63b8ff" stroke="#63b8ff" points="193.97,-22.57 183.78,-19.7 189.96,-28.31 193.97,-22.57"/>
</g>
<!-- Node15&#45;&gt;Node2 -->
<g id="edge24" class="edge">
<title>Node15&#45;&gt;Node2</title>
<path fill="none" stroke="#63b8ff" d="M502.13,-110.06C566.02,-87.35 687.66,-44.1 747.22,-22.93"/>
<polygon fill="#63b8ff" stroke="#63b8ff" points="748,-26.01 756.25,-19.36 745.65,-19.41 748,-26.01"/>
</g>
<!-- Node15&#45;&gt;Node11 -->
<g id="edge27" class="edge">
<title>Node15&#45;&gt;Node11</title>
<path fill="none" stroke="#63b8ff" d="M440.8,-110.22C423.16,-95.67 402.36,-72.94 416.82,-55.25 439.02,-28.09 538.77,-17.06 596.03,-12.91"/>
<polygon fill="#63b8ff" stroke="#63b8ff" points="596.15,-16.34 605.89,-12.17 595.67,-9.36 596.15,-16.34"/>
</g>
<!-- Node16 -->
<g id="node16" class="node">
<title>Node16</title>
<g id="a_node16"><a xlink:href="name-provider_8h.html" target="_top" xlink:title=" ">
<polygon fill="white" stroke="#666666" points="539.95,-74.5 425.7,-74.5 425.7,-55.25 539.95,-55.25 539.95,-74.5"/>
<text text-anchor="middle" x="482.82" y="-61" font-family="Helvetica,sans-Serif" font-size="10.00">cppgc/name&#45;provider.h</text>
</a>
</g>
</g>
<!-- Node15&#45;&gt;Node16 -->
<g id="edge25" class="edge">
<title>Node15&#45;&gt;Node16</title>
<path fill="none" stroke="#63b8ff" d="M466.26,-110.2C469.09,-102.61 472.6,-93.24 475.65,-85.07"/>
<polygon fill="#63b8ff" stroke="#63b8ff" points="479.21,-86.54 479.43,-75.95 472.65,-84.09 479.21,-86.54"/>
</g>
<!-- Node16&#45;&gt;Node11 -->
<g id="edge26" class="edge">
<title>Node16&#45;&gt;Node11</title>
<path fill="none" stroke="#63b8ff" d="M508.95,-54.84C534.06,-46.16 572.23,-32.96 600.34,-23.24"/>
<polygon fill="#63b8ff" stroke="#63b8ff" points="601.26,-26.28 609.57,-19.7 598.97,-19.66 601.26,-26.28"/>
</g>
<!-- Node17&#45;&gt;Node7 -->
<g id="edge29" class="edge">
<title>Node17&#45;&gt;Node7</title>
<path fill="none" stroke="#63b8ff" d="M340.84,-115.68C335.54,-100.91 323.07,-71.65 302.82,-55.25 276.59,-34 239.78,-22.68 211.53,-16.77"/>
<polygon fill="#63b8ff" stroke="#63b8ff" points="212.26,-13.15 201.78,-14.69 210.93,-20.02 212.26,-13.15"/>
</g>
<!-- Node17&#45;&gt;Node11 -->
<g id="edge31" class="edge">
<title>Node17&#45;&gt;Node11</title>
<path fill="none" stroke="#63b8ff" d="M349.27,-115.83C359,-100.72 380.9,-70.29 407.82,-55.25 467.4,-21.96 547.75,-13.16 595.73,-11.03"/>
<polygon fill="#63b8ff" stroke="#63b8ff" points="595.74,-14.5 605.61,-10.64 595.49,-7.5 595.74,-14.5"/>
</g>
<!-- Node17&#45;&gt;Node14 -->
<g id="edge30" class="edge">
<title>Node17&#45;&gt;Node14</title>
<path fill="none" stroke="#63b8ff" d="M328.94,-115.81C313.32,-106.43 288.54,-91.54 270.09,-80.45"/>
<polygon fill="#63b8ff" stroke="#63b8ff" points="272.22,-77.05 261.85,-74.9 268.61,-83.05 272.22,-77.05"/>
</g>
<!-- Node18&#45;&gt;Node11 -->
<g id="edge40" class="edge">
<title>Node18&#45;&gt;Node11</title>
<path fill="none" stroke="#63b8ff" d="M885.63,-115.79C838.33,-95.8 723.93,-47.45 668.28,-23.92"/>
<polygon fill="#63b8ff" stroke="#63b8ff" points="669.86,-20.37 659.28,-19.7 667.13,-26.81 669.86,-20.37"/>
</g>
<!-- Node19 -->
<g id="node19" class="node">
<title>Node19</title>
<g id="a_node19"><a xlink:href="source-location_8h.html" target="_top" xlink:title=" ">
<polygon fill="white" stroke="#666666" points="966.2,-74.5 847.45,-74.5 847.45,-55.25 966.2,-55.25 966.2,-74.5"/>
<text text-anchor="middle" x="906.82" y="-61" font-family="Helvetica,sans-Serif" font-size="10.00">cppgc/source&#45;location.h</text>
</a>
</g>
</g>
<!-- Node18&#45;&gt;Node19 -->
<g id="edge36" class="edge">
<title>Node18&#45;&gt;Node19</title>
<path fill="none" stroke="#63b8ff" d="M906.82,-115.81C906.82,-107.85 906.82,-95.94 906.82,-85.74"/>
<polygon fill="#63b8ff" stroke="#63b8ff" points="910.32,-85.9 906.82,-75.9 903.32,-85.9 910.32,-85.9"/>
</g>
<!-- Node19&#45;&gt;Node2 -->
<g id="edge37" class="edge">
<title>Node19&#45;&gt;Node2</title>
<path fill="none" stroke="#63b8ff" d="M885.62,-54.84C865.68,-46.35 835.61,-33.54 812.95,-23.89"/>
<polygon fill="#63b8ff" stroke="#63b8ff" points="814.7,-20.4 804.13,-19.7 811.96,-26.84 814.7,-20.4"/>
</g>
<!-- Node19&#45;&gt;Node11 -->
<g id="edge39" class="edge">
<title>Node19&#45;&gt;Node11</title>
<path fill="none" stroke="#63b8ff" d="M860.71,-54.78C809.18,-44.62 726.55,-28.32 677.39,-18.63"/>
<polygon fill="#63b8ff" stroke="#63b8ff" points="678.32,-15.05 667.84,-16.54 676.97,-21.91 678.32,-15.05"/>
</g>
<!-- Node20 -->
<g id="node20" class="node">
<title>Node20</title>
<g id="a_node20"><a xlink:title=" ">
<polygon fill="#e0e0e0" stroke="#999999" points="926.82,-19.25 886.82,-19.25 886.82,0 926.82,0 926.82,-19.25"/>
<text text-anchor="middle" x="906.82" y="-5.75" font-family="Helvetica,sans-Serif" font-size="10.00">string</text>
</a>
</g>
</g>
<!-- Node19&#45;&gt;Node20 -->
<g id="edge38" class="edge">
<title>Node19&#45;&gt;Node20</title>
<path fill="none" stroke="#63b8ff" d="M906.82,-55.08C906.82,-48.42 906.82,-38.99 906.82,-30.53"/>
<polygon fill="#63b8ff" stroke="#63b8ff" points="910.32,-30.61 906.82,-20.61 903.32,-30.61 910.32,-30.61"/>
</g>
</g>
</svg>
