<?xml version="1.0" encoding="UTF-8" standalone="no"?>
<!DOCTYPE svg PUBLIC "-//W3C//DTD SVG 1.1//EN"
 "http://www.w3.org/Graphics/SVG/1.1/DTD/svg11.dtd">
<!-- Generated by graphviz version 8.0.5 (20230430.1635)
 -->
<!-- Title: v8::True Pages: 1 -->
<svg width="204pt" height="82pt"
 viewBox="0.00 0.00 203.50 82.25" xmlns="http://www.w3.org/2000/svg" xmlns:xlink="http://www.w3.org/1999/xlink">
<g id="graph0" class="graph" transform="scale(1 1) rotate(0) translate(4 78.25)">
<title>v8::True</title>
<!-- Node1 -->
<g id="node1" class="node">
<title>Node1</title>
<g id="a_node1"><a xlink:title=" ">
<polygon fill="#999999" stroke="#666666" points="195.5,-46.25 145,-46.25 145,-27 195.5,-27 195.5,-46.25"/>
<text text-anchor="middle" x="170.25" y="-32.75" font-family="Helvetica,sans-Serif" font-size="10.00">v8::True</text>
</a>
</g>
</g>
<!-- Node2 -->
<g id="node2" class="node">
<title>Node2</title>
<g id="a_node2"><a xlink:href="classv8_1_1Boolean.html#aeb32aa1bf1853bc4c5f076ee6a8b9a0f" target="_top" xlink:title=" ">
<polygon fill="white" stroke="#666666" points="100,-74.25 9,-74.25 9,-55 100,-55 100,-74.25"/>
<text text-anchor="middle" x="54.5" y="-60.75" font-family="Helvetica,sans-Serif" font-size="10.00">v8::Boolean::New</text>
</a>
</g>
</g>
<!-- Node1&#45;&gt;Node2 -->
<g id="edge1" class="edge">
<title>Node1&#45;&gt;Node2</title>
<path fill="none" stroke="#63b8ff" d="M134.07,-45.28C122.09,-48.23 108.61,-51.55 96.24,-54.6"/>
<polygon fill="#63b8ff" stroke="#63b8ff" points="134.69,-48.49 143.57,-42.7 133.02,-41.69 134.69,-48.49"/>
</g>
<!-- Node3 -->
<g id="node3" class="node">
<title>Node3</title>
<g id="a_node3"><a xlink:href="namespacev8.html#ae43db30af161bb738983157570412fb0" target="_top" xlink:title=" ">
<polygon fill="white" stroke="#666666" points="109,-19.25 0,-19.25 0,0 109,0 109,-19.25"/>
<text text-anchor="middle" x="54.5" y="-5.75" font-family="Helvetica,sans-Serif" font-size="10.00">v8::RegisterExtension</text>
</a>
</g>
</g>
<!-- Node1&#45;&gt;Node3 -->
<g id="edge2" class="edge">
<title>Node1&#45;&gt;Node3</title>
<path fill="none" stroke="#63b8ff" d="M134.12,-28.29C122.71,-25.58 109.93,-22.54 98.04,-19.72"/>
<polygon fill="#63b8ff" stroke="#63b8ff" points="133.03,-31.86 143.57,-30.77 134.65,-25.05 133.03,-31.86"/>
</g>
<!-- Node3&#45;&gt;Node3 -->
<g id="edge3" class="edge">
<title>Node3&#45;&gt;Node3</title>
<path fill="none" stroke="#63b8ff" d="M75.44,-29.98C73.24,-34.21 66.26,-37.25 54.5,-37.25 34.15,-37.25 28.11,-28.15 36.38,-19.54"/>
<polygon fill="#63b8ff" stroke="#63b8ff" points="78.61,-29.28 72.62,-20.54 71.85,-31.11 78.61,-29.28"/>
</g>
</g>
</svg>
