<?xml version="1.0" encoding="UTF-8" standalone="no"?>
<!DOCTYPE svg PUBLIC "-//W3C//DTD SVG 1.1//EN"
 "http://www.w3.org/Graphics/SVG/1.1/DTD/svg11.dtd">
<!-- Generated by graphviz version 8.0.5 (20230430.1635)
 -->
<!-- Title: v8::JitCodeEvent Pages: 1 -->
<svg width="610pt" height="199pt"
 viewBox="0.00 0.00 610.25 198.88" xmlns="http://www.w3.org/2000/svg" xmlns:xlink="http://www.w3.org/1999/xlink">
<g id="graph0" class="graph" transform="scale(1 1) rotate(0) translate(4 194.88)">
<title>v8::JitCodeEvent</title>
<!-- Node1 -->
<g id="node1" class="node">
<title>Node1</title>
<g id="a_node1"><a xlink:title=" ">
<polygon fill="#999999" stroke="#666666" points="602.25,-99.25 513.5,-99.25 513.5,-80 602.25,-80 602.25,-99.25"/>
<text text-anchor="middle" x="557.88" y="-85.75" font-family="Helvetica,sans-Serif" font-size="10.00">v8::JitCodeEvent</text>
</a>
</g>
</g>
<!-- Node2 -->
<g id="node2" class="node">
<title>Node2</title>
<g id="a_node2"><a xlink:href="classv8_1_1Local.html" target="_top" xlink:title=" ">
<polygon fill="white" stroke="#666666" points="393.5,-189.25 242.5,-189.25 242.5,-170 393.5,-170 393.5,-189.25"/>
<text text-anchor="middle" x="318" y="-175.75" font-family="Helvetica,sans-Serif" font-size="10.00">v8::Local&lt; v8::UnboundScript &gt;</text>
</a>
</g>
</g>
<!-- Node2&#45;&gt;Node1 -->
<g id="edge1" class="edge">
<title>Node2&#45;&gt;Node1</title>
<path fill="none" stroke="#9a32cd" stroke-dasharray="5,2" d="M404.55,-178.99C434.64,-175.86 467.84,-168.94 495.5,-154.62 520.59,-141.65 541.03,-114.27 550.74,-99.53"/>
<polygon fill="#9a32cd" stroke="#9a32cd" points="404.26,-175.59 394.62,-179.98 404.89,-182.56 404.26,-175.59"/>
<text text-anchor="middle" x="453.5" y="-179.38" font-family="Helvetica,sans-Serif" font-size="10.00"> script</text>
</g>
<!-- Node3 -->
<g id="node3" class="node">
<title>Node3</title>
<g id="a_node3"><a xlink:href="classv8_1_1Local.html" target="_top" xlink:title=" ">
<polygon fill="white" stroke="#666666" points="92.88,-189.25 15.38,-189.25 15.38,-170 92.88,-170 92.88,-189.25"/>
<text text-anchor="middle" x="54.12" y="-175.75" font-family="Helvetica,sans-Serif" font-size="10.00">v8::Local&lt; T &gt;</text>
</a>
</g>
</g>
<!-- Node3&#45;&gt;Node2 -->
<g id="edge2" class="edge">
<title>Node3&#45;&gt;Node2</title>
<path fill="none" stroke="orange" stroke-dasharray="5,2" d="M104.2,-179.62C143,-179.62 197.8,-179.62 242.08,-179.62"/>
<polygon fill="orange" stroke="orange" points="104.2,-176.13 94.2,-179.62 104.2,-183.13 104.2,-176.13"/>
<text text-anchor="middle" x="175.38" y="-181.38" font-family="Helvetica,sans-Serif" font-size="10.00"> &lt; v8::UnboundScript &gt;</text>
</g>
<!-- Node4 -->
<g id="node4" class="node">
<title>Node4</title>
<g id="a_node4"><a xlink:href="structv8_1_1JitCodeEvent_1_1wasm__source__info__t.html" target="_top" xlink:title=" ">
<polygon fill="white" stroke="#666666" points="377.75,-104.88 258.25,-104.88 258.25,-74.38 377.75,-74.38 377.75,-104.88"/>
<text text-anchor="start" x="266.25" y="-91.38" font-family="Helvetica,sans-Serif" font-size="10.00">v8::JitCodeEvent::wasm</text>
<text text-anchor="middle" x="318" y="-80.12" font-family="Helvetica,sans-Serif" font-size="10.00">_source_info_t</text>
</a>
</g>
</g>
<!-- Node4&#45;&gt;Node1 -->
<g id="edge3" class="edge">
<title>Node4&#45;&gt;Node1</title>
<path fill="none" stroke="#9a32cd" stroke-dasharray="5,2" d="M388.91,-89.62C429.08,-89.62 478.3,-89.62 513.05,-89.62"/>
<polygon fill="#9a32cd" stroke="#9a32cd" points="389.11,-86.13 379.11,-89.62 389.11,-93.13 389.11,-86.13"/>
<text text-anchor="middle" x="453.5" y="-91.38" font-family="Helvetica,sans-Serif" font-size="10.00"> wasm_source_info</text>
</g>
<!-- Node5 -->
<g id="node5" class="node">
<title>Node5</title>
<g id="a_node5"><a xlink:href="structv8_1_1JitCodeEvent_1_1line__info__t.html" target="_top" xlink:title=" ">
<polygon fill="white" stroke="#666666" points="108.25,-140.88 0,-140.88 0,-110.38 108.25,-110.38 108.25,-140.88"/>
<text text-anchor="start" x="8" y="-127.38" font-family="Helvetica,sans-Serif" font-size="10.00">v8::JitCodeEvent::line</text>
<text text-anchor="middle" x="54.12" y="-116.12" font-family="Helvetica,sans-Serif" font-size="10.00">_info_t</text>
</a>
</g>
</g>
<!-- Node5&#45;&gt;Node1 -->
<g id="edge6" class="edge">
<title>Node5&#45;&gt;Node1</title>
<path fill="none" stroke="#9a32cd" stroke-dasharray="5,2" d="M119.49,-126.57C121.77,-126.59 124.03,-126.61 126.25,-126.62 290.65,-127.78 333.3,-131.44 495.5,-104.62 503.29,-103.34 511.56,-101.59 519.41,-99.74"/>
<polygon fill="#9a32cd" stroke="#9a32cd" points="119.75,-123.06 109.72,-126.46 119.68,-130.06 119.75,-123.06"/>
<text text-anchor="middle" x="318" y="-128.38" font-family="Helvetica,sans-Serif" font-size="10.00"> line_info</text>
</g>
<!-- Node5&#45;&gt;Node4 -->
<g id="edge4" class="edge">
<title>Node5&#45;&gt;Node4</title>
<path fill="none" stroke="#9a32cd" stroke-dasharray="5,2" d="M119.49,-116.32C121.77,-116 124.03,-115.68 126.25,-115.38 170.43,-109.21 220.41,-102.47 258.12,-97.44"/>
<polygon fill="#9a32cd" stroke="#9a32cd" points="119.12,-112.98 109.71,-117.85 120.1,-119.91 119.12,-112.98"/>
<text text-anchor="middle" x="175.38" y="-116.38" font-family="Helvetica,sans-Serif" font-size="10.00"> line_number_table</text>
</g>
<!-- Node6 -->
<g id="node6" class="node">
<title>Node6</title>
<g id="a_node6"><a xlink:href="structv8_1_1JitCodeEvent_1_1name__t.html" target="_top" xlink:title=" ">
<polygon fill="white" stroke="#666666" points="380.75,-56.25 255.25,-56.25 255.25,-37 380.75,-37 380.75,-56.25"/>
<text text-anchor="middle" x="318" y="-42.75" font-family="Helvetica,sans-Serif" font-size="10.00">v8::JitCodeEvent::name_t</text>
</a>
</g>
</g>
<!-- Node6&#45;&gt;Node1 -->
<g id="edge5" class="edge">
<title>Node6&#45;&gt;Node1</title>
<path fill="none" stroke="#9a32cd" stroke-dasharray="5,2" d="M391.51,-56.56C423.51,-61.32 461.49,-67.49 495.5,-74.38 502.93,-75.88 510.81,-77.68 518.36,-79.51"/>
<polygon fill="#9a32cd" stroke="#9a32cd" points="392.31,-53 381.91,-55 391.29,-59.92 392.31,-53"/>
<text text-anchor="middle" x="453.5" y="-75.38" font-family="Helvetica,sans-Serif" font-size="10.00"> name</text>
</g>
<!-- Node7 -->
<g id="node7" class="node">
<title>Node7</title>
<g id="a_node7"><a xlink:href="classv8_1_1Isolate.html" target="_top" xlink:title=" ">
<polygon fill="white" stroke="#666666" points="348.12,-19.25 287.88,-19.25 287.88,0 348.12,0 348.12,-19.25"/>
<text text-anchor="middle" x="318" y="-5.75" font-family="Helvetica,sans-Serif" font-size="10.00">v8::Isolate</text>
</a>
</g>
</g>
<!-- Node7&#45;&gt;Node1 -->
<g id="edge7" class="edge">
<title>Node7&#45;&gt;Node1</title>
<path fill="none" stroke="#9a32cd" stroke-dasharray="5,2" d="M359.4,-12.51C396.19,-16.29 451.34,-24.93 495.5,-44.38 515.37,-53.13 534.97,-69.24 546.49,-79.68"/>
<polygon fill="#9a32cd" stroke="#9a32cd" points="359.89,-8.94 349.61,-11.48 359.23,-15.91 359.89,-8.94"/>
<text text-anchor="middle" x="453.5" y="-45.38" font-family="Helvetica,sans-Serif" font-size="10.00"> isolate</text>
</g>
</g>
</svg>
