<?xml version="1.0" encoding="UTF-8" standalone="no"?>
<!DOCTYPE svg PUBLIC "-//W3C//DTD SVG 1.1//EN"
 "http://www.w3.org/Graphics/SVG/1.1/DTD/svg11.dtd">
<!-- Generated by graphviz version 8.0.5 (20230430.1635)
 -->
<!-- Title: cppgc::internal::DijkstraWriteBarrierPolicy::AssigningBarrier Pages: 1 -->
<svg width="517pt" height="137pt"
 viewBox="0.00 0.00 516.50 136.50" xmlns="http://www.w3.org/2000/svg" xmlns:xlink="http://www.w3.org/1999/xlink">
<g id="graph0" class="graph" transform="scale(1 1) rotate(0) translate(4 132.5)">
<title>cppgc::internal::DijkstraWriteBarrierPolicy::AssigningBarrier</title>
<!-- Node1 -->
<g id="node1" class="node">
<title>Node1</title>
<g id="a_node1"><a xlink:title=" ">
<polygon fill="#999999" stroke="#666666" points="169,-79.5 0,-79.5 0,-49 169,-49 169,-79.5"/>
<text text-anchor="start" x="8" y="-66" font-family="Helvetica,sans-Serif" font-size="10.00">cppgc::internal::Dijkstra</text>
<text text-anchor="middle" x="84.5" y="-54.75" font-family="Helvetica,sans-Serif" font-size="10.00">WriteBarrierPolicy::AssigningBarrier</text>
</a>
</g>
</g>
<!-- Node2 -->
<g id="node2" class="node">
<title>Node2</title>
<g id="a_node2"><a xlink:href="classcppgc_1_1internal_1_1WriteBarrier.html#ad8bbc0c512828b14d55c18a6735386e4" target="_top" xlink:title=" ">
<polygon fill="white" stroke="#666666" points="338.75,-128.5 205,-128.5 205,-98 338.75,-98 338.75,-128.5"/>
<text text-anchor="start" x="213" y="-115" font-family="Helvetica,sans-Serif" font-size="10.00">cppgc::internal::WriteBarrier</text>
<text text-anchor="middle" x="271.88" y="-103.75" font-family="Helvetica,sans-Serif" font-size="10.00">::DijkstraMarkingBarrier</text>
</a>
</g>
</g>
<!-- Node1&#45;&gt;Node2 -->
<g id="edge1" class="edge">
<title>Node1&#45;&gt;Node2</title>
<path fill="none" stroke="#63b8ff" d="M144.92,-79.96C162.8,-84.68 182.58,-89.91 201.06,-94.8"/>
<polygon fill="#63b8ff" stroke="#63b8ff" points="199.91,-98.38 210.47,-97.55 201.7,-91.61 199.91,-98.38"/>
</g>
<!-- Node4 -->
<g id="node4" class="node">
<title>Node4</title>
<g id="a_node4"><a xlink:href="classcppgc_1_1internal_1_1WriteBarrier.html#a2612b9fbb8bde6e01c511f23cacba483" target="_top" xlink:title=" ">
<polygon fill="white" stroke="#666666" points="338.75,-79.5 205,-79.5 205,-49 338.75,-49 338.75,-79.5"/>
<text text-anchor="start" x="213" y="-66" font-family="Helvetica,sans-Serif" font-size="10.00">cppgc::internal::WriteBarrier</text>
<text text-anchor="middle" x="271.88" y="-54.75" font-family="Helvetica,sans-Serif" font-size="10.00">::GenerationalBarrier</text>
</a>
</g>
</g>
<!-- Node1&#45;&gt;Node4 -->
<g id="edge3" class="edge">
<title>Node1&#45;&gt;Node4</title>
<path fill="none" stroke="#63b8ff" d="M169.24,-64.25C177.42,-64.25 185.69,-64.25 193.8,-64.25"/>
<polygon fill="#63b8ff" stroke="#63b8ff" points="193.73,-67.75 203.73,-64.25 193.73,-60.75 193.73,-67.75"/>
</g>
<!-- Node5 -->
<g id="node5" class="node">
<title>Node5</title>
<g id="a_node5"><a xlink:href="classcppgc_1_1internal_1_1WriteBarrier.html#a5a790553beafc26948b06ab62278eefc" target="_top" xlink:title=" ">
<polygon fill="white" stroke="#666666" points="338.75,-30.5 205,-30.5 205,0 338.75,0 338.75,-30.5"/>
<text text-anchor="start" x="213" y="-17" font-family="Helvetica,sans-Serif" font-size="10.00">cppgc::internal::WriteBarrier</text>
<text text-anchor="middle" x="271.88" y="-5.75" font-family="Helvetica,sans-Serif" font-size="10.00">::GetWriteBarrierType</text>
</a>
</g>
</g>
<!-- Node1&#45;&gt;Node5 -->
<g id="edge4" class="edge">
<title>Node1&#45;&gt;Node5</title>
<path fill="none" stroke="#63b8ff" d="M144.92,-48.54C162.8,-43.82 182.58,-38.59 201.06,-33.7"/>
<polygon fill="#63b8ff" stroke="#63b8ff" points="201.7,-36.89 210.47,-30.95 199.91,-30.12 201.7,-36.89"/>
</g>
<!-- Node3 -->
<g id="node3" class="node">
<title>Node3</title>
<g id="a_node3"><a xlink:href="classcppgc_1_1internal_1_1WriteBarrier.html#a23c41cf46d6e6c09033835fda0aaea1e" target="_top" xlink:title=" ">
<polygon fill="white" stroke="#666666" points="508.5,-128.5 374.75,-128.5 374.75,-98 508.5,-98 508.5,-128.5"/>
<text text-anchor="start" x="382.75" y="-115" font-family="Helvetica,sans-Serif" font-size="10.00">cppgc::internal::WriteBarrier</text>
<text text-anchor="middle" x="441.62" y="-103.75" font-family="Helvetica,sans-Serif" font-size="10.00">::CheckParams</text>
</a>
</g>
</g>
<!-- Node2&#45;&gt;Node3 -->
<g id="edge2" class="edge">
<title>Node2&#45;&gt;Node3</title>
<path fill="none" stroke="#63b8ff" d="M339.17,-113.25C347.11,-113.25 355.26,-113.25 363.33,-113.25"/>
<polygon fill="#63b8ff" stroke="#63b8ff" points="363.26,-116.75 373.26,-113.25 363.26,-109.75 363.26,-116.75"/>
</g>
</g>
</svg>
