<?xml version="1.0" encoding="UTF-8" standalone="no"?>
<!DOCTYPE svg PUBLIC "-//W3C//DTD SVG 1.1//EN"
 "http://www.w3.org/Graphics/SVG/1.1/DTD/svg11.dtd">
<!-- Generated by graphviz version 8.0.5 (20230430.1635)
 -->
<!-- Title: include/cppgc/member.h Pages: 1 -->
<svg width="471pt" height="337pt"
 viewBox="0.00 0.00 471.12 337.25" xmlns="http://www.w3.org/2000/svg" xmlns:xlink="http://www.w3.org/1999/xlink">
<g id="graph0" class="graph" transform="scale(1 1) rotate(0) translate(4 333.25)">
<title>include/cppgc/member.h</title>
<!-- Node1 -->
<g id="node1" class="node">
<title>Node1</title>
<g id="a_node1"><a xlink:title=" ">
<polygon fill="#999999" stroke="#666666" points="312.5,-329.25 190.75,-329.25 190.75,-310 312.5,-310 312.5,-329.25"/>
<text text-anchor="middle" x="251.62" y="-315.75" font-family="Helvetica,sans-Serif" font-size="10.00">include/cppgc/member.h</text>
</a>
</g>
</g>
<!-- Node2 -->
<g id="node2" class="node">
<title>Node2</title>
<g id="a_node2"><a xlink:href="ephemeron-pair_8h.html" target="_top" xlink:title=" ">
<polygon fill="white" stroke="#666666" points="463.12,-207.5 336.12,-207.5 336.12,-177 463.12,-177 463.12,-207.5"/>
<text text-anchor="start" x="344.12" y="-194" font-family="Helvetica,sans-Serif" font-size="10.00">include/cppgc/ephemeron</text>
<text text-anchor="middle" x="399.62" y="-182.75" font-family="Helvetica,sans-Serif" font-size="10.00">&#45;pair.h</text>
</a>
</g>
</g>
<!-- Node1&#45;&gt;Node2 -->
<g id="edge1" class="edge">
<title>Node1&#45;&gt;Node2</title>
<path fill="none" stroke="#63b8ff" d="M276.4,-303.76C289.41,-295.56 305.35,-284.86 318.62,-274 344.44,-252.88 371.26,-224.7 386.64,-207.83"/>
<polygon fill="#63b8ff" stroke="#63b8ff" points="274.78,-301.27 268.12,-309.51 278.47,-307.22 274.78,-301.27"/>
</g>
<!-- Node3 -->
<g id="node3" class="node">
<title>Node3</title>
<g id="a_node3"><a xlink:href="visitor_8h.html" target="_top" xlink:title=" ">
<polygon fill="white" stroke="#666666" points="214,-141 101.25,-141 101.25,-121.75 214,-121.75 214,-141"/>
<text text-anchor="middle" x="157.62" y="-127.5" font-family="Helvetica,sans-Serif" font-size="10.00">include/cppgc/visitor.h</text>
</a>
</g>
</g>
<!-- Node1&#45;&gt;Node3 -->
<g id="edge11" class="edge">
<title>Node1&#45;&gt;Node3</title>
<path fill="none" stroke="#63b8ff" d="M221.98,-304.39C209,-296.89 194.52,-286.62 184.62,-274 152.66,-233.22 154.74,-165.79 156.7,-141.47"/>
<polygon fill="#63b8ff" stroke="#63b8ff" points="220.05,-307.87 230.5,-309.57 223.39,-301.72 220.05,-307.87"/>
</g>
<!-- Node7 -->
<g id="node7" class="node">
<title>Node7</title>
<g id="a_node7"><a xlink:href="liveness-broker_8h.html" target="_top" xlink:title=" ">
<polygon fill="white" stroke="#666666" points="309.12,-274 194.12,-274 194.12,-243.5 309.12,-243.5 309.12,-274"/>
<text text-anchor="start" x="202.12" y="-260.5" font-family="Helvetica,sans-Serif" font-size="10.00">include/cppgc/liveness</text>
<text text-anchor="middle" x="251.62" y="-249.25" font-family="Helvetica,sans-Serif" font-size="10.00">&#45;broker.h</text>
</a>
</g>
</g>
<!-- Node1&#45;&gt;Node7 -->
<g id="edge7" class="edge">
<title>Node1&#45;&gt;Node7</title>
<path fill="none" stroke="#63b8ff" d="M251.62,-298.7C251.62,-290.7 251.62,-281.65 251.62,-274.28"/>
<polygon fill="#63b8ff" stroke="#63b8ff" points="248.13,-298.68 251.62,-308.68 255.13,-298.68 248.13,-298.68"/>
</g>
<!-- Node2&#45;&gt;Node3 -->
<g id="edge2" class="edge">
<title>Node2&#45;&gt;Node3</title>
<path fill="none" stroke="#63b8ff" d="M328.6,-173.97C284.89,-163.34 230.61,-150.13 195.09,-141.49"/>
<polygon fill="#63b8ff" stroke="#63b8ff" points="327.64,-177.58 338.18,-176.55 329.29,-170.78 327.64,-177.58"/>
</g>
<!-- Node4 -->
<g id="node4" class="node">
<title>Node4</title>
<g id="a_node4"><a xlink:href="cross-thread-persistent_8h.html" target="_top" xlink:title=" ">
<polygon fill="white" stroke="#666666" points="162.12,-30.5 59.12,-30.5 59.12,0 162.12,0 162.12,-30.5"/>
<text text-anchor="start" x="67.12" y="-17" font-family="Helvetica,sans-Serif" font-size="10.00">include/cppgc/cross</text>
<text text-anchor="middle" x="110.62" y="-5.75" font-family="Helvetica,sans-Serif" font-size="10.00">&#45;thread&#45;persistent.h</text>
</a>
</g>
</g>
<!-- Node3&#45;&gt;Node4 -->
<g id="edge3" class="edge">
<title>Node3&#45;&gt;Node4</title>
<path fill="none" stroke="#63b8ff" d="M153.06,-111.07C149.74,-98.19 144.75,-81.03 138.62,-66.5 133.35,-53.98 125.78,-40.58 119.84,-30.77"/>
<polygon fill="#63b8ff" stroke="#63b8ff" points="149.84,-111.62 155.64,-120.48 156.64,-109.94 149.84,-111.62"/>
</g>
<!-- Node5 -->
<g id="node5" class="node">
<title>Node5</title>
<g id="a_node5"><a xlink:href="persistent_8h.html" target="_top" xlink:title=" ">
<polygon fill="white" stroke="#666666" points="129.25,-85.75 0,-85.75 0,-66.5 129.25,-66.5 129.25,-85.75"/>
<text text-anchor="middle" x="64.62" y="-72.25" font-family="Helvetica,sans-Serif" font-size="10.00">include/cppgc/persistent.h</text>
</a>
</g>
</g>
<!-- Node3&#45;&gt;Node5 -->
<g id="edge4" class="edge">
<title>Node3&#45;&gt;Node5</title>
<path fill="none" stroke="#63b8ff" d="M132.71,-116.11C116.11,-106.61 94.8,-94.4 80.48,-86.2"/>
<polygon fill="#63b8ff" stroke="#63b8ff" points="130.43,-119.41 140.85,-121.34 133.91,-113.34 130.43,-119.41"/>
</g>
<!-- Node6 -->
<g id="node6" class="node">
<title>Node6</title>
<g id="a_node6"><a xlink:href="v8-cppgc_8h.html" target="_top" xlink:title=" ">
<polygon fill="white" stroke="#666666" points="283.12,-85.75 186.12,-85.75 186.12,-66.5 283.12,-66.5 283.12,-85.75"/>
<text text-anchor="middle" x="234.62" y="-72.25" font-family="Helvetica,sans-Serif" font-size="10.00">include/v8&#45;cppgc.h</text>
</a>
</g>
</g>
<!-- Node3&#45;&gt;Node6 -->
<g id="edge6" class="edge">
<title>Node3&#45;&gt;Node6</title>
<path fill="none" stroke="#63b8ff" d="M179.42,-115.3C192.98,-105.92 209.97,-94.17 221.5,-86.2"/>
<polygon fill="#63b8ff" stroke="#63b8ff" points="177.92,-112.78 171.69,-121.34 181.9,-118.53 177.92,-112.78"/>
</g>
<!-- Node5&#45;&gt;Node4 -->
<g id="edge5" class="edge">
<title>Node5&#45;&gt;Node4</title>
<path fill="none" stroke="#63b8ff" d="M78.24,-57.7C84.93,-49.13 92.91,-38.92 99.27,-30.78"/>
<polygon fill="#63b8ff" stroke="#63b8ff" points="75.01,-55.15 71.61,-65.18 80.53,-59.46 75.01,-55.15"/>
</g>
<!-- Node7&#45;&gt;Node2 -->
<g id="edge8" class="edge">
<title>Node7&#45;&gt;Node2</title>
<path fill="none" stroke="#63b8ff" d="M295.22,-238.75C317.81,-228.91 344.96,-217.07 365.92,-207.94"/>
<polygon fill="#63b8ff" stroke="#63b8ff" points="293.98,-235.91 286.21,-243.11 296.77,-242.33 293.98,-235.91"/>
</g>
<!-- Node7&#45;&gt;Node3 -->
<g id="edge10" class="edge">
<title>Node7&#45;&gt;Node3</title>
<path fill="none" stroke="#63b8ff" d="M210.06,-237.52C197.7,-229.69 185.19,-219.65 176.62,-207.5 162.05,-186.83 158.64,-156 157.85,-141.09"/>
<polygon fill="#63b8ff" stroke="#63b8ff" points="208.03,-240.98 218.41,-243.08 211.6,-234.96 208.03,-240.98"/>
</g>
<!-- Node8 -->
<g id="node8" class="node">
<title>Node8</title>
<g id="a_node8"><a xlink:href="prefinalizer_8h.html" target="_top" xlink:title=" ">
<polygon fill="white" stroke="#666666" points="317.75,-201.88 185.5,-201.88 185.5,-182.62 317.75,-182.62 317.75,-201.88"/>
<text text-anchor="middle" x="251.62" y="-188.38" font-family="Helvetica,sans-Serif" font-size="10.00">include/cppgc/prefinalizer.h</text>
</a>
</g>
</g>
<!-- Node7&#45;&gt;Node8 -->
<g id="edge9" class="edge">
<title>Node7&#45;&gt;Node8</title>
<path fill="none" stroke="#63b8ff" d="M251.62,-232.18C251.62,-221.51 251.62,-209.83 251.62,-202.07"/>
<polygon fill="#63b8ff" stroke="#63b8ff" points="248.13,-232.11 251.62,-242.11 255.13,-232.11 248.13,-232.11"/>
</g>
</g>
</svg>
