<?xml version="1.0" encoding="UTF-8" standalone="no"?>
<!DOCTYPE svg PUBLIC "-//W3C//DTD SVG 1.1//EN"
 "http://www.w3.org/Graphics/SVG/1.1/DTD/svg11.dtd">
<!-- Generated by graphviz version 8.0.5 (20230430.1635)
 -->
<!-- Title: include/v8&#45;debug.h Pages: 1 -->
<svg width="822pt" height="469pt"
 viewBox="0.00 0.00 822.00 469.25" xmlns="http://www.w3.org/2000/svg" xmlns:xlink="http://www.w3.org/1999/xlink">
<g id="graph0" class="graph" transform="scale(1 1) rotate(0) translate(4 465.25)">
<title>include/v8&#45;debug.h</title>
<!-- Node1 -->
<g id="node1" class="node">
<title>Node1</title>
<g id="a_node1"><a xlink:title=" ">
<polygon fill="#999999" stroke="#666666" points="618.5,-461.25 521.5,-461.25 521.5,-442 618.5,-442 618.5,-461.25"/>
<text text-anchor="middle" x="570" y="-447.75" font-family="Helvetica,sans-Serif" font-size="10.00">include/v8&#45;debug.h</text>
</a>
</g>
</g>
<!-- Node2 -->
<g id="node2" class="node">
<title>Node2</title>
<g id="a_node2"><a xlink:title=" ">
<polygon fill="#e0e0e0" stroke="#999999" points="799.75,-19.25 752.25,-19.25 752.25,0 799.75,0 799.75,-19.25"/>
<text text-anchor="middle" x="776" y="-5.75" font-family="Helvetica,sans-Serif" font-size="10.00">stdint.h</text>
</a>
</g>
</g>
<!-- Node1&#45;&gt;Node2 -->
<g id="edge1" class="edge">
<title>Node1&#45;&gt;Node2</title>
<path fill="none" stroke="#63b8ff" d="M618.79,-449.85C690,-445.85 814,-426.73 814,-342.12 814,-342.12 814,-342.12 814,-119.12 814,-85.98 798.01,-50.18 786.78,-29.12"/>
<polygon fill="#63b8ff" stroke="#63b8ff" points="789.37,-27.58 781.44,-20.54 783.25,-30.98 789.37,-27.58"/>
</g>
<!-- Node3 -->
<g id="node3" class="node">
<title>Node3</title>
<g id="a_node3"><a xlink:href="v8-script_8h.html" target="_top" xlink:title=" ">
<polygon fill="white" stroke="#666666" points="600.5,-406 539.5,-406 539.5,-386.75 600.5,-386.75 600.5,-406"/>
<text text-anchor="middle" x="570" y="-392.5" font-family="Helvetica,sans-Serif" font-size="10.00">v8&#45;script.h</text>
</a>
</g>
</g>
<!-- Node1&#45;&gt;Node3 -->
<g id="edge2" class="edge">
<title>Node1&#45;&gt;Node3</title>
<path fill="none" stroke="#63b8ff" d="M570,-441.83C570,-435.17 570,-425.74 570,-417.28"/>
<polygon fill="#63b8ff" stroke="#63b8ff" points="573.5,-417.36 570,-407.36 566.5,-417.36 573.5,-417.36"/>
</g>
<!-- Node13 -->
<g id="node13" class="node">
<title>Node13</title>
<g id="a_node13"><a xlink:href="v8config_8h.html" target="_top" xlink:title=" ">
<polygon fill="white" stroke="#666666" points="162.75,-19.25 103.25,-19.25 103.25,0 162.75,0 162.75,-19.25"/>
<text text-anchor="middle" x="133" y="-5.75" font-family="Helvetica,sans-Serif" font-size="10.00">v8config.h</text>
</a>
</g>
</g>
<!-- Node1&#45;&gt;Node13 -->
<g id="edge43" class="edge">
<title>Node1&#45;&gt;Node13</title>
<path fill="none" stroke="#63b8ff" d="M521.4,-446.5C383.56,-434.14 0,-395.01 0,-342.12 0,-342.12 0,-342.12 0,-119.12 0,-70.16 54.79,-39.35 94.04,-23.57"/>
<polygon fill="#63b8ff" stroke="#63b8ff" points="95.06,-26.54 103.14,-19.69 92.55,-20.01 95.06,-26.54"/>
</g>
<!-- Node3&#45;&gt;Node2 -->
<g id="edge4" class="edge">
<title>Node3&#45;&gt;Node2</title>
<path fill="none" stroke="#63b8ff" d="M600.95,-391.67C647.82,-385.46 733.74,-371.55 756,-350.75 777.74,-330.44 776,-316.62 776,-286.88 776,-286.88 776,-286.88 776,-119.12 776,-88.12 776,-52.13 776,-30.38"/>
<polygon fill="#63b8ff" stroke="#63b8ff" points="779.5,-30.63 776,-20.63 772.5,-30.63 779.5,-30.63"/>
</g>
<!-- Node4 -->
<g id="node4" class="node">
<title>Node4</title>
<g id="a_node4"><a xlink:title=" ">
<polygon fill="#e0e0e0" stroke="#999999" points="593.25,-19.25 542.75,-19.25 542.75,0 593.25,0 593.25,-19.25"/>
<text text-anchor="middle" x="568" y="-5.75" font-family="Helvetica,sans-Serif" font-size="10.00">stddef.h</text>
</a>
</g>
</g>
<!-- Node3&#45;&gt;Node4 -->
<g id="edge3" class="edge">
<title>Node3&#45;&gt;Node4</title>
<path fill="none" stroke="#63b8ff" d="M575.44,-386.46C585.95,-368.38 608,-325.79 608,-286.88 608,-286.88 608,-286.88 608,-119.12 608,-85.63 591.02,-49.72 579.18,-28.76"/>
<polygon fill="#63b8ff" stroke="#63b8ff" points="581.82,-27.34 573.73,-20.5 575.79,-30.9 581.82,-27.34"/>
</g>
<!-- Node5 -->
<g id="node5" class="node">
<title>Node5</title>
<g id="a_node5"><a xlink:title=" ">
<polygon fill="#e0e0e0" stroke="#999999" points="686.25,-350.75 635.75,-350.75 635.75,-331.5 686.25,-331.5 686.25,-350.75"/>
<text text-anchor="middle" x="661" y="-337.25" font-family="Helvetica,sans-Serif" font-size="10.00">memory</text>
</a>
</g>
</g>
<!-- Node3&#45;&gt;Node5 -->
<g id="edge5" class="edge">
<title>Node3&#45;&gt;Node5</title>
<path fill="none" stroke="#63b8ff" d="M585.44,-386.34C599.29,-378.23 619.89,-366.18 636.08,-356.71"/>
<polygon fill="#63b8ff" stroke="#63b8ff" points="637.62,-359.27 644.49,-351.2 634.09,-353.23 637.62,-359.27"/>
</g>
<!-- Node6 -->
<g id="node6" class="node">
<title>Node6</title>
<g id="a_node6"><a xlink:title=" ">
<polygon fill="#e0e0e0" stroke="#999999" points="747.5,-350.75 704.5,-350.75 704.5,-331.5 747.5,-331.5 747.5,-350.75"/>
<text text-anchor="middle" x="726" y="-337.25" font-family="Helvetica,sans-Serif" font-size="10.00">vector</text>
</a>
</g>
</g>
<!-- Node3&#45;&gt;Node6 -->
<g id="edge6" class="edge">
<title>Node3&#45;&gt;Node6</title>
<path fill="none" stroke="#63b8ff" d="M596.46,-386.34C623.44,-377.13 665.31,-362.84 694.1,-353.01"/>
<polygon fill="#63b8ff" stroke="#63b8ff" points="695.11,-356.03 703.44,-349.48 692.84,-349.4 695.11,-356.03"/>
</g>
<!-- Node7 -->
<g id="node7" class="node">
<title>Node7</title>
<g id="a_node7"><a xlink:href="v8-data_8h.html" target="_top" xlink:title=" ">
<polygon fill="white" stroke="#666666" points="407.88,-185 352.12,-185 352.12,-165.75 407.88,-165.75 407.88,-185"/>
<text text-anchor="middle" x="380" y="-171.5" font-family="Helvetica,sans-Serif" font-size="10.00">v8&#45;data.h</text>
</a>
</g>
</g>
<!-- Node3&#45;&gt;Node7 -->
<g id="edge7" class="edge">
<title>Node3&#45;&gt;Node7</title>
<path fill="none" stroke="#63b8ff" d="M562.32,-386.52C533.67,-353.5 432.77,-237.2 394.69,-193.31"/>
<polygon fill="#63b8ff" stroke="#63b8ff" points="396.77,-191.36 387.57,-186.1 391.48,-195.95 396.77,-191.36"/>
</g>
<!-- Node8 -->
<g id="node8" class="node">
<title>Node8</title>
<g id="a_node8"><a xlink:href="v8-local-handle_8h.html" target="_top" xlink:title=" ">
<polygon fill="white" stroke="#666666" points="552.38,-129.75 463.62,-129.75 463.62,-110.5 552.38,-110.5 552.38,-129.75"/>
<text text-anchor="middle" x="508" y="-116.25" font-family="Helvetica,sans-Serif" font-size="10.00">v8&#45;local&#45;handle.h</text>
</a>
</g>
</g>
<!-- Node3&#45;&gt;Node8 -->
<g id="edge19" class="edge">
<title>Node3&#45;&gt;Node8</title>
<path fill="none" stroke="#63b8ff" d="M570,-386.37C570,-367.78 570,-323.8 570,-286.88 570,-286.88 570,-286.88 570,-229.62 570,-193.15 543.26,-157.79 524.9,-137.81"/>
<polygon fill="#63b8ff" stroke="#63b8ff" points="527.86,-135.8 518.42,-131 522.81,-140.64 527.86,-135.8"/>
</g>
<!-- Node3&#45;&gt;Node13 -->
<g id="edge42" class="edge">
<title>Node3&#45;&gt;Node13</title>
<path fill="none" stroke="#63b8ff" d="M539.1,-395.7C425.56,-396.09 38,-389.86 38,-286.88 38,-286.88 38,-286.88 38,-119.12 38,-77.02 79,-43.41 107.13,-25.31"/>
<polygon fill="#63b8ff" stroke="#63b8ff" points="108.77,-27.79 115.45,-19.56 105.1,-21.83 108.77,-27.79"/>
</g>
<!-- Node14 -->
<g id="node14" class="node">
<title>Node14</title>
<g id="a_node14"><a xlink:href="v8-maybe_8h.html" target="_top" xlink:title=" ">
<polygon fill="white" stroke="#666666" points="257.75,-185 192.25,-185 192.25,-165.75 257.75,-165.75 257.75,-185"/>
<text text-anchor="middle" x="225" y="-171.5" font-family="Helvetica,sans-Serif" font-size="10.00">v8&#45;maybe.h</text>
</a>
</g>
</g>
<!-- Node3&#45;&gt;Node14 -->
<g id="edge20" class="edge">
<title>Node3&#45;&gt;Node14</title>
<path fill="none" stroke="#63b8ff" d="M539.23,-386.95C492.08,-373.08 400.42,-342.2 334,-295.5 292.91,-266.6 255.93,-219.79 237.45,-194.3"/>
<polygon fill="#63b8ff" stroke="#63b8ff" points="239.74,-192.49 231.1,-186.37 234.04,-196.55 239.74,-192.49"/>
</g>
<!-- Node16 -->
<g id="node16" class="node">
<title>Node16</title>
<g id="a_node16"><a xlink:href="v8-message_8h.html" target="_top" xlink:title=" ">
<polygon fill="white" stroke="#666666" points="287.38,-350.75 210.62,-350.75 210.62,-331.5 287.38,-331.5 287.38,-350.75"/>
<text text-anchor="middle" x="249" y="-337.25" font-family="Helvetica,sans-Serif" font-size="10.00">v8&#45;message.h</text>
</a>
</g>
</g>
<!-- Node3&#45;&gt;Node16 -->
<g id="edge25" class="edge">
<title>Node3&#45;&gt;Node16</title>
<path fill="none" stroke="#63b8ff" d="M539.22,-390.27C483.55,-381.03 365.7,-361.48 298.56,-350.35"/>
<polygon fill="#63b8ff" stroke="#63b8ff" points="299.27,-346.75 288.84,-348.57 298.13,-353.66 299.27,-346.75"/>
</g>
<!-- Node7&#45;&gt;Node8 -->
<g id="edge8" class="edge">
<title>Node7&#45;&gt;Node8</title>
<path fill="none" stroke="#63b8ff" d="M401.71,-165.34C422.12,-156.85 452.92,-144.04 476.12,-134.39"/>
<polygon fill="#63b8ff" stroke="#63b8ff" points="477.29,-137.28 485.18,-130.2 474.6,-130.81 477.29,-137.28"/>
</g>
<!-- Node7&#45;&gt;Node13 -->
<g id="edge18" class="edge">
<title>Node7&#45;&gt;Node13</title>
<path fill="none" stroke="#63b8ff" d="M368.07,-165.27C340.95,-144.72 272.38,-93.57 212,-55.25 194.98,-44.45 175.24,-33.3 159.74,-24.84"/>
<polygon fill="#63b8ff" stroke="#63b8ff" points="161.71,-21.38 151.25,-19.71 158.38,-27.54 161.71,-21.38"/>
</g>
<!-- Node8&#45;&gt;Node4 -->
<g id="edge9" class="edge">
<title>Node8&#45;&gt;Node4</title>
<path fill="none" stroke="#63b8ff" d="M512.91,-110.25C522.67,-92.6 544.68,-52.8 557.73,-29.2"/>
<polygon fill="#63b8ff" stroke="#63b8ff" points="561.25,-31.07 563.02,-20.63 555.12,-27.68 561.25,-31.07"/>
</g>
<!-- Node9 -->
<g id="node9" class="node">
<title>Node9</title>
<g id="a_node9"><a xlink:title=" ">
<polygon fill="#e0e0e0" stroke="#999999" points="372.5,-19.25 311.5,-19.25 311.5,0 372.5,0 372.5,-19.25"/>
<text text-anchor="middle" x="342" y="-5.75" font-family="Helvetica,sans-Serif" font-size="10.00">type_traits</text>
</a>
</g>
</g>
<!-- Node8&#45;&gt;Node9 -->
<g id="edge10" class="edge">
<title>Node8&#45;&gt;Node9</title>
<path fill="none" stroke="#63b8ff" d="M468.04,-110.07C443.77,-103.18 413.12,-91.86 390,-74.5 373.57,-62.17 360.09,-42.74 351.64,-28.54"/>
<polygon fill="#63b8ff" stroke="#63b8ff" points="354.39,-27.28 346.41,-20.3 348.3,-30.73 354.39,-27.28"/>
</g>
<!-- Node10 -->
<g id="node10" class="node">
<title>Node10</title>
<g id="a_node10"><a xlink:href="v8-internal_8h.html" target="_top" xlink:title=" ">
<polygon fill="white" stroke="#666666" points="467.25,-74.5 398.75,-74.5 398.75,-55.25 467.25,-55.25 467.25,-74.5"/>
<text text-anchor="middle" x="433" y="-61" font-family="Helvetica,sans-Serif" font-size="10.00">v8&#45;internal.h</text>
</a>
</g>
</g>
<!-- Node8&#45;&gt;Node10 -->
<g id="edge11" class="edge">
<title>Node8&#45;&gt;Node10</title>
<path fill="none" stroke="#63b8ff" d="M495.28,-110.09C484.18,-102.21 467.84,-90.61 454.68,-81.27"/>
<polygon fill="#63b8ff" stroke="#63b8ff" points="456.97,-77.89 446.79,-74.95 452.91,-83.6 456.97,-77.89"/>
</g>
<!-- Node10&#45;&gt;Node2 -->
<g id="edge13" class="edge">
<title>Node10&#45;&gt;Node2</title>
<path fill="none" stroke="#63b8ff" d="M467.46,-58.53C533.14,-48.33 675.57,-26.22 741.38,-16"/>
<polygon fill="#63b8ff" stroke="#63b8ff" points="741.66,-19.34 751,-14.35 740.58,-12.43 741.66,-19.34"/>
</g>
<!-- Node10&#45;&gt;Node4 -->
<g id="edge12" class="edge">
<title>Node10&#45;&gt;Node4</title>
<path fill="none" stroke="#63b8ff" d="M455.9,-54.84C477.62,-46.27 510.5,-33.31 535.04,-23.63"/>
<polygon fill="#63b8ff" stroke="#63b8ff" points="535.97,-26.63 543.99,-19.7 533.4,-20.12 535.97,-26.63"/>
</g>
<!-- Node10&#45;&gt;Node9 -->
<g id="edge15" class="edge">
<title>Node10&#45;&gt;Node9</title>
<path fill="none" stroke="#63b8ff" d="M417.56,-54.84C403.71,-46.73 383.11,-34.68 366.92,-25.21"/>
<polygon fill="#63b8ff" stroke="#63b8ff" points="368.91,-21.73 358.51,-19.7 365.38,-27.77 368.91,-21.73"/>
</g>
<!-- Node11 -->
<g id="node11" class="node">
<title>Node11</title>
<g id="a_node11"><a xlink:title=" ">
<polygon fill="#e0e0e0" stroke="#999999" points="437.75,-19.25 390.25,-19.25 390.25,0 437.75,0 437.75,-19.25"/>
<text text-anchor="middle" x="414" y="-5.75" font-family="Helvetica,sans-Serif" font-size="10.00">string.h</text>
</a>
</g>
</g>
<!-- Node10&#45;&gt;Node11 -->
<g id="edge14" class="edge">
<title>Node10&#45;&gt;Node11</title>
<path fill="none" stroke="#63b8ff" d="M429.86,-55.08C427.43,-48.26 423.97,-38.56 420.9,-29.95"/>
<polygon fill="#63b8ff" stroke="#63b8ff" points="423.86,-28.85 417.21,-20.61 417.27,-31.2 423.86,-28.85"/>
</g>
<!-- Node12 -->
<g id="node12" class="node">
<title>Node12</title>
<g id="a_node12"><a xlink:href="v8-version_8h.html" target="_top" xlink:title=" ">
<polygon fill="white" stroke="#666666" points="524.25,-19.25 455.75,-19.25 455.75,0 524.25,0 524.25,-19.25"/>
<text text-anchor="middle" x="490" y="-5.75" font-family="Helvetica,sans-Serif" font-size="10.00">v8&#45;version.h</text>
</a>
</g>
</g>
<!-- Node10&#45;&gt;Node12 -->
<g id="edge16" class="edge">
<title>Node10&#45;&gt;Node12</title>
<path fill="none" stroke="#63b8ff" d="M442.67,-54.84C450.83,-47.22 462.71,-36.12 472.52,-26.95"/>
<polygon fill="#63b8ff" stroke="#63b8ff" points="474.56,-29.91 479.47,-20.52 469.78,-24.79 474.56,-29.91"/>
</g>
<!-- Node10&#45;&gt;Node13 -->
<g id="edge17" class="edge">
<title>Node10&#45;&gt;Node13</title>
<path fill="none" stroke="#63b8ff" d="M398.29,-57.71C342.39,-47.79 232.69,-28.32 173.38,-17.79"/>
<polygon fill="#63b8ff" stroke="#63b8ff" points="174.37,-14.24 163.91,-15.93 173.14,-21.13 174.37,-14.24"/>
</g>
<!-- Node14&#45;&gt;Node9 -->
<g id="edge21" class="edge">
<title>Node14&#45;&gt;Node9</title>
<path fill="none" stroke="#63b8ff" d="M231.29,-165.57C249.86,-139.58 304.69,-62.84 329.52,-28.09"/>
<polygon fill="#63b8ff" stroke="#63b8ff" points="332.71,-30.64 335.68,-20.47 327.02,-26.57 332.71,-30.64"/>
</g>
<!-- Node14&#45;&gt;Node10 -->
<g id="edge23" class="edge">
<title>Node14&#45;&gt;Node10</title>
<path fill="none" stroke="#63b8ff" d="M241.8,-165.43C265.14,-153.01 308.7,-129.91 346,-110.5 366.01,-100.08 388.7,-88.46 405.88,-79.68"/>
<polygon fill="#63b8ff" stroke="#63b8ff" points="406.99,-82.54 414.31,-74.87 403.81,-76.3 406.99,-82.54"/>
</g>
<!-- Node14&#45;&gt;Node13 -->
<g id="edge24" class="edge">
<title>Node14&#45;&gt;Node13</title>
<path fill="none" stroke="#63b8ff" d="M227.47,-165.31C230.47,-152.57 234.28,-128.86 227,-110.5 212.65,-74.32 178.3,-43.62 155.34,-26.15"/>
<polygon fill="#63b8ff" stroke="#63b8ff" points="157.71,-22.82 147.58,-19.71 153.56,-28.45 157.71,-22.82"/>
</g>
<!-- Node15 -->
<g id="node15" class="node">
<title>Node15</title>
<g id="a_node15"><a xlink:title=" ">
<polygon fill="#e0e0e0" stroke="#999999" points="218.25,-129.75 179.75,-129.75 179.75,-110.5 218.25,-110.5 218.25,-129.75"/>
<text text-anchor="middle" x="199" y="-116.25" font-family="Helvetica,sans-Serif" font-size="10.00">utility</text>
</a>
</g>
</g>
<!-- Node14&#45;&gt;Node15 -->
<g id="edge22" class="edge">
<title>Node14&#45;&gt;Node15</title>
<path fill="none" stroke="#63b8ff" d="M220.71,-165.58C217.3,-158.61 212.42,-148.62 208.15,-139.87"/>
<polygon fill="#63b8ff" stroke="#63b8ff" points="210.92,-138.56 203.39,-131.11 204.63,-141.63 210.92,-138.56"/>
</g>
<!-- Node16&#45;&gt;Node8 -->
<g id="edge28" class="edge">
<title>Node16&#45;&gt;Node8</title>
<path fill="none" stroke="#63b8ff" d="M287.84,-338.77C326.35,-335.63 385.32,-325.77 426,-295.5 477.6,-257.11 497.95,-178.02 504.88,-141.03"/>
<polygon fill="#63b8ff" stroke="#63b8ff" points="508.49,-141.66 506.74,-131.21 501.59,-140.48 508.49,-141.66"/>
</g>
<!-- Node16&#45;&gt;Node13 -->
<g id="edge41" class="edge">
<title>Node16&#45;&gt;Node13</title>
<path fill="none" stroke="#63b8ff" d="M210.18,-333.53C159.17,-322.38 76,-294.55 76,-231.62 76,-231.62 76,-231.62 76,-119.12 76,-83.51 100.36,-48.09 117.23,-27.83"/>
<polygon fill="#63b8ff" stroke="#63b8ff" points="120.43,-30.49 124.34,-20.64 115.14,-25.9 120.43,-30.49"/>
</g>
<!-- Node16&#45;&gt;Node14 -->
<g id="edge29" class="edge">
<title>Node16&#45;&gt;Node14</title>
<path fill="none" stroke="#63b8ff" d="M218.31,-331.09C201.13,-324.28 181.18,-313.04 171,-295.5 150.71,-260.51 184.8,-216.54 207.42,-193.03"/>
<polygon fill="#63b8ff" stroke="#63b8ff" points="209.51,-195.89 214.11,-186.34 204.56,-190.93 209.51,-195.89"/>
</g>
<!-- Node17 -->
<g id="node17" class="node">
<title>Node17</title>
<g id="a_node17"><a xlink:title=" ">
<polygon fill="#e0e0e0" stroke="#999999" points="224.25,-295.5 179.75,-295.5 179.75,-276.25 224.25,-276.25 224.25,-295.5"/>
<text text-anchor="middle" x="202" y="-282" font-family="Helvetica,sans-Serif" font-size="10.00">stdio.h</text>
</a>
</g>
</g>
<!-- Node16&#45;&gt;Node17 -->
<g id="edge26" class="edge">
<title>Node16&#45;&gt;Node17</title>
<path fill="none" stroke="#63b8ff" d="M241.24,-331.33C234.68,-323.9 225.09,-313.04 217.04,-303.91"/>
<polygon fill="#63b8ff" stroke="#63b8ff" points="220.17,-302.04 210.93,-296.86 214.92,-306.67 220.17,-302.04"/>
</g>
<!-- Node18 -->
<g id="node18" class="node">
<title>Node18</title>
<g id="a_node18"><a xlink:title=" ">
<polygon fill="#e0e0e0" stroke="#999999" points="287.25,-295.5 242.75,-295.5 242.75,-276.25 287.25,-276.25 287.25,-295.5"/>
<text text-anchor="middle" x="265" y="-282" font-family="Helvetica,sans-Serif" font-size="10.00">iosfwd</text>
</a>
</g>
</g>
<!-- Node16&#45;&gt;Node18 -->
<g id="edge27" class="edge">
<title>Node16&#45;&gt;Node18</title>
<path fill="none" stroke="#63b8ff" d="M251.64,-331.33C253.69,-324.51 256.61,-314.81 259.19,-306.2"/>
<polygon fill="#63b8ff" stroke="#63b8ff" points="262.77,-307.44 262.3,-296.86 256.07,-305.43 262.77,-307.44"/>
</g>
<!-- Node19 -->
<g id="node19" class="node">
<title>Node19</title>
<g id="a_node19"><a xlink:href="v8-primitive_8h.html" target="_top" xlink:title=" ">
<polygon fill="white" stroke="#666666" points="416.88,-295.5 343.12,-295.5 343.12,-276.25 416.88,-276.25 416.88,-295.5"/>
<text text-anchor="middle" x="380" y="-282" font-family="Helvetica,sans-Serif" font-size="10.00">v8&#45;primitive.h</text>
</a>
</g>
</g>
<!-- Node16&#45;&gt;Node19 -->
<g id="edge30" class="edge">
<title>Node16&#45;&gt;Node19</title>
<path fill="none" stroke="#63b8ff" d="M271.22,-331.09C292.21,-322.56 323.92,-309.67 347.69,-300.01"/>
<polygon fill="#63b8ff" stroke="#63b8ff" points="348.72,-302.96 356.67,-295.95 346.09,-296.48 348.72,-302.96"/>
</g>
<!-- Node19&#45;&gt;Node7 -->
<g id="edge31" class="edge">
<title>Node19&#45;&gt;Node7</title>
<path fill="none" stroke="#63b8ff" d="M380,-276C380,-258.67 380,-219.98 380,-196.24"/>
<polygon fill="#63b8ff" stroke="#63b8ff" points="383.5,-196.38 380,-186.38 376.5,-196.38 383.5,-196.38"/>
</g>
<!-- Node19&#45;&gt;Node8 -->
<g id="edge33" class="edge">
<title>Node19&#45;&gt;Node8</title>
<path fill="none" stroke="#63b8ff" d="M392.47,-275.86C403.61,-267.43 419.99,-254.09 432,-240.25 460.15,-207.81 485.35,-164.02 498.46,-139.58"/>
<polygon fill="#63b8ff" stroke="#63b8ff" points="501.89,-141.58 503.46,-131.1 495.7,-138.31 501.89,-141.58"/>
</g>
<!-- Node19&#45;&gt;Node10 -->
<g id="edge32" class="edge">
<title>Node19&#45;&gt;Node10</title>
<path fill="none" stroke="#63b8ff" d="M384.05,-276C391.72,-258.81 408.37,-219.63 417,-185 425.55,-150.69 429.79,-109.6 431.68,-85.75"/>
<polygon fill="#63b8ff" stroke="#63b8ff" points="435.23,-86.2 432.47,-75.97 428.25,-85.69 435.23,-86.2"/>
</g>
<!-- Node19&#45;&gt;Node13 -->
<g id="edge40" class="edge">
<title>Node19&#45;&gt;Node13</title>
<path fill="none" stroke="#63b8ff" d="M342.73,-277.79C269.53,-262.79 114,-225.19 114,-176.38 114,-176.38 114,-176.38 114,-119.12 114,-87.5 121.93,-51.46 127.54,-29.9"/>
<polygon fill="#63b8ff" stroke="#63b8ff" points="131.11,-31.1 130.36,-20.53 124.36,-29.27 131.11,-31.1"/>
</g>
<!-- Node20 -->
<g id="node20" class="node">
<title>Node20</title>
<g id="a_node20"><a xlink:href="v8-value_8h.html" target="_top" xlink:title=" ">
<polygon fill="white" stroke="#666666" points="352.12,-240.25 291.88,-240.25 291.88,-221 352.12,-221 352.12,-240.25"/>
<text text-anchor="middle" x="322" y="-226.75" font-family="Helvetica,sans-Serif" font-size="10.00">v8&#45;value.h</text>
</a>
</g>
</g>
<!-- Node19&#45;&gt;Node20 -->
<g id="edge34" class="edge">
<title>Node19&#45;&gt;Node20</title>
<path fill="none" stroke="#63b8ff" d="M370.16,-275.84C361.86,-268.22 349.77,-257.12 339.78,-247.95"/>
<polygon fill="#63b8ff" stroke="#63b8ff" points="342.43,-245.71 332.69,-241.52 337.69,-250.87 342.43,-245.71"/>
</g>
<!-- Node20&#45;&gt;Node7 -->
<g id="edge35" class="edge">
<title>Node20&#45;&gt;Node7</title>
<path fill="none" stroke="#63b8ff" d="M331.84,-220.59C340.14,-212.97 352.23,-201.87 362.22,-192.7"/>
<polygon fill="#63b8ff" stroke="#63b8ff" points="364.31,-195.62 369.31,-186.27 359.57,-190.46 364.31,-195.62"/>
</g>
<!-- Node20&#45;&gt;Node8 -->
<g id="edge37" class="edge">
<title>Node20&#45;&gt;Node8</title>
<path fill="none" stroke="#63b8ff" d="M322.35,-220.82C323.38,-207.06 327.41,-180.53 343,-165.75 372.28,-138 416.99,-127.14 452.48,-123.05"/>
<polygon fill="#63b8ff" stroke="#63b8ff" points="452.57,-126.46 462.18,-121.99 451.88,-119.5 452.57,-126.46"/>
</g>
<!-- Node20&#45;&gt;Node10 -->
<g id="edge36" class="edge">
<title>Node20&#45;&gt;Node10</title>
<path fill="none" stroke="#63b8ff" d="M320.77,-220.85C319.39,-208.05 318.35,-183.81 327,-165.75 344.92,-128.34 383.4,-97.86 408.73,-80.8"/>
<polygon fill="#63b8ff" stroke="#63b8ff" points="410.26,-83.32 416.72,-74.93 406.44,-77.46 410.26,-83.32"/>
</g>
<!-- Node20&#45;&gt;Node13 -->
<g id="edge39" class="edge">
<title>Node20&#45;&gt;Node13</title>
<path fill="none" stroke="#63b8ff" d="M291.39,-227.95C259.94,-224.59 211.66,-214.58 183,-185 141.24,-141.91 133.95,-66.37 132.94,-30.55"/>
<polygon fill="#63b8ff" stroke="#63b8ff" points="136.43,-30.61 132.81,-20.65 129.43,-30.7 136.43,-30.61"/>
</g>
<!-- Node20&#45;&gt;Node14 -->
<g id="edge38" class="edge">
<title>Node20&#45;&gt;Node14</title>
<path fill="none" stroke="#63b8ff" d="M305.55,-220.59C290.63,-212.41 268.41,-200.21 251.08,-190.69"/>
<polygon fill="#63b8ff" stroke="#63b8ff" points="252.99,-187.2 242.54,-185.45 249.62,-193.33 252.99,-187.2"/>
</g>
</g>
</svg>
