<?xml version="1.0" encoding="UTF-8" standalone="no"?>
<!DOCTYPE svg PUBLIC "-//W3C//DTD SVG 1.1//EN"
 "http://www.w3.org/Graphics/SVG/1.1/DTD/svg11.dtd">
<!-- Generated by graphviz version 8.0.5 (20230430.1635)
 -->
<!-- Title: include/v8&#45;profiler.h Pages: 1 -->
<svg width="667pt" height="193pt"
 viewBox="0.00 0.00 666.50 193.00" xmlns="http://www.w3.org/2000/svg" xmlns:xlink="http://www.w3.org/1999/xlink">
<g id="graph0" class="graph" transform="scale(1 1) rotate(0) translate(4 189)">
<title>include/v8&#45;profiler.h</title>
<!-- Node1 -->
<g id="node1" class="node">
<title>Node1</title>
<g id="a_node1"><a xlink:title=" ">
<polygon fill="#999999" stroke="#666666" points="206.88,-185 107.62,-185 107.62,-165.75 206.88,-165.75 206.88,-185"/>
<text text-anchor="middle" x="157.25" y="-171.5" font-family="Helvetica,sans-Serif" font-size="10.00">include/v8&#45;profiler.h</text>
</a>
</g>
</g>
<!-- Node2 -->
<g id="node2" class="node">
<title>Node2</title>
<g id="a_node2"><a xlink:title=" ">
<polygon fill="#e0e0e0" stroke="#999999" points="91.62,-129.75 44.88,-129.75 44.88,-110.5 91.62,-110.5 91.62,-129.75"/>
<text text-anchor="middle" x="68.25" y="-116.25" font-family="Helvetica,sans-Serif" font-size="10.00">limits.h</text>
</a>
</g>
</g>
<!-- Node1&#45;&gt;Node2 -->
<g id="edge1" class="edge">
<title>Node1&#45;&gt;Node2</title>
<path fill="none" stroke="#63b8ff" d="M142.15,-165.34C128.6,-157.23 108.46,-145.18 92.63,-135.71"/>
<polygon fill="#63b8ff" stroke="#63b8ff" points="94.8,-132.33 84.42,-130.2 91.21,-138.34 94.8,-132.33"/>
</g>
<!-- Node3 -->
<g id="node3" class="node">
<title>Node3</title>
<g id="a_node3"><a xlink:title=" ">
<polygon fill="#e0e0e0" stroke="#999999" points="50.5,-74.5 0,-74.5 0,-55.25 50.5,-55.25 50.5,-74.5"/>
<text text-anchor="middle" x="25.25" y="-61" font-family="Helvetica,sans-Serif" font-size="10.00">memory</text>
</a>
</g>
</g>
<!-- Node1&#45;&gt;Node3 -->
<g id="edge2" class="edge">
<title>Node1&#45;&gt;Node3</title>
<path fill="none" stroke="#63b8ff" d="M150.62,-165.33C140.69,-152.18 120.89,-127.52 100.25,-110.5 85.91,-98.68 68.09,-87.93 53.41,-79.96"/>
<polygon fill="#63b8ff" stroke="#63b8ff" points="55.32,-76.47 44.84,-74.89 52.05,-82.66 55.32,-76.47"/>
</g>
<!-- Node4 -->
<g id="node4" class="node">
<title>Node4</title>
<g id="a_node4"><a xlink:title=" ">
<polygon fill="#e0e0e0" stroke="#999999" points="382,-129.75 304.5,-129.75 304.5,-110.5 382,-110.5 382,-129.75"/>
<text text-anchor="middle" x="343.25" y="-116.25" font-family="Helvetica,sans-Serif" font-size="10.00">unordered_set</text>
</a>
</g>
</g>
<!-- Node1&#45;&gt;Node4 -->
<g id="edge3" class="edge">
<title>Node1&#45;&gt;Node4</title>
<path fill="none" stroke="#63b8ff" d="M188.8,-165.34C219.67,-156.51 266.87,-142.99 300.97,-133.23"/>
<polygon fill="#63b8ff" stroke="#63b8ff" points="301.89,-136.32 310.54,-130.2 299.97,-129.59 301.89,-136.32"/>
</g>
<!-- Node5 -->
<g id="node5" class="node">
<title>Node5</title>
<g id="a_node5"><a xlink:title=" ">
<polygon fill="#e0e0e0" stroke="#999999" points="111.75,-74.5 68.75,-74.5 68.75,-55.25 111.75,-55.25 111.75,-74.5"/>
<text text-anchor="middle" x="90.25" y="-61" font-family="Helvetica,sans-Serif" font-size="10.00">vector</text>
</a>
</g>
</g>
<!-- Node1&#45;&gt;Node5 -->
<g id="edge4" class="edge">
<title>Node1&#45;&gt;Node5</title>
<path fill="none" stroke="#63b8ff" d="M155.17,-165.6C151.87,-152.78 144.63,-128.53 133.25,-110.5 126.69,-100.1 117.41,-90.09 109.16,-82.2"/>
<polygon fill="#63b8ff" stroke="#63b8ff" points="111.82,-79.98 102.08,-75.81 107.09,-85.14 111.82,-79.98"/>
</g>
<!-- Node6 -->
<g id="node6" class="node">
<title>Node6</title>
<g id="a_node6"><a xlink:href="v8_8h.html" target="_top" xlink:title=" ">
<polygon fill="white" stroke="#666666" points="286.25,-129.75 252.25,-129.75 252.25,-110.5 286.25,-110.5 286.25,-129.75"/>
<text text-anchor="middle" x="269.25" y="-116.25" font-family="Helvetica,sans-Serif" font-size="10.00">v8.h</text>
</a>
</g>
</g>
<!-- Node1&#45;&gt;Node6 -->
<g id="edge5" class="edge">
<title>Node1&#45;&gt;Node6</title>
<path fill="none" stroke="#63b8ff" d="M176.25,-165.34C194.32,-156.75 221.69,-143.74 242.07,-134.05"/>
<polygon fill="#63b8ff" stroke="#63b8ff" points="243.47,-136.78 251,-129.33 240.47,-130.46 243.47,-136.78"/>
</g>
<!-- Node6&#45;&gt;Node3 -->
<g id="edge9" class="edge">
<title>Node6&#45;&gt;Node3</title>
<path fill="none" stroke="#63b8ff" d="M251.78,-115.65C217.25,-108.74 137.64,-92.55 61.13,-74.87"/>
<polygon fill="#63b8ff" stroke="#63b8ff" points="62.38,-71.34 51.84,-72.48 60.79,-78.15 62.38,-71.34"/>
</g>
<!-- Node6&#45;&gt;Node5 -->
<g id="edge13" class="edge">
<title>Node6&#45;&gt;Node5</title>
<path fill="none" stroke="#63b8ff" d="M251.76,-113.92C221.9,-105.04 160.63,-86.81 122.73,-75.54"/>
<polygon fill="#63b8ff" stroke="#63b8ff" points="123.83,-71.91 113.24,-72.42 121.83,-78.62 123.83,-71.91"/>
</g>
<!-- Node7 -->
<g id="node7" class="node">
<title>Node7</title>
<g id="a_node7"><a xlink:title=" ">
<polygon fill="#e0e0e0" stroke="#999999" points="658.5,-19.25 608,-19.25 608,0 658.5,0 658.5,-19.25"/>
<text text-anchor="middle" x="633.25" y="-5.75" font-family="Helvetica,sans-Serif" font-size="10.00">stddef.h</text>
</a>
</g>
</g>
<!-- Node6&#45;&gt;Node7 -->
<g id="edge6" class="edge">
<title>Node6&#45;&gt;Node7</title>
<path fill="none" stroke="#63b8ff" d="M286.48,-113C289.39,-112.09 292.39,-111.21 295.25,-110.5 387.98,-87.39 416.49,-104.45 507.25,-74.5 544.91,-62.07 585.27,-39.86 609.89,-25.18"/>
<polygon fill="#63b8ff" stroke="#63b8ff" points="611.39,-27.76 618.13,-19.59 607.76,-21.77 611.39,-27.76"/>
</g>
<!-- Node8 -->
<g id="node8" class="node">
<title>Node8</title>
<g id="a_node8"><a xlink:title=" ">
<polygon fill="#e0e0e0" stroke="#999999" points="282,-19.25 234.5,-19.25 234.5,0 282,0 282,-19.25"/>
<text text-anchor="middle" x="258.25" y="-5.75" font-family="Helvetica,sans-Serif" font-size="10.00">stdint.h</text>
</a>
</g>
</g>
<!-- Node6&#45;&gt;Node8 -->
<g id="edge7" class="edge">
<title>Node6&#45;&gt;Node8</title>
<path fill="none" stroke="#63b8ff" d="M277.94,-110.16C288.7,-97.91 304.74,-75.2 297.25,-55.25 293.21,-44.5 285.28,-34.64 277.62,-26.94"/>
<polygon fill="#63b8ff" stroke="#63b8ff" points="280.32,-24.73 270.61,-20.49 275.55,-29.86 280.32,-24.73"/>
</g>
<!-- Node9 -->
<g id="node9" class="node">
<title>Node9</title>
<g id="a_node9"><a xlink:title=" ">
<polygon fill="#e0e0e0" stroke="#999999" points="174.5,-74.5 130,-74.5 130,-55.25 174.5,-55.25 174.5,-74.5"/>
<text text-anchor="middle" x="152.25" y="-61" font-family="Helvetica,sans-Serif" font-size="10.00">stdio.h</text>
</a>
</g>
</g>
<!-- Node6&#45;&gt;Node9 -->
<g id="edge8" class="edge">
<title>Node6&#45;&gt;Node9</title>
<path fill="none" stroke="#63b8ff" d="M251.99,-111.27C233.55,-102.88 203.99,-89.42 181.83,-79.34"/>
<polygon fill="#63b8ff" stroke="#63b8ff" points="183.48,-75.79 172.93,-74.83 180.58,-82.16 183.48,-75.79"/>
</g>
<!-- Node10 -->
<g id="node10" class="node">
<title>Node10</title>
<g id="a_node10"><a xlink:title=" ">
<polygon fill="#e0e0e0" stroke="#999999" points="232.25,-74.5 192.25,-74.5 192.25,-55.25 232.25,-55.25 232.25,-74.5"/>
<text text-anchor="middle" x="212.25" y="-61" font-family="Helvetica,sans-Serif" font-size="10.00">string</text>
</a>
</g>
</g>
<!-- Node6&#45;&gt;Node10 -->
<g id="edge10" class="edge">
<title>Node6&#45;&gt;Node10</title>
<path fill="none" stroke="#63b8ff" d="M259.58,-110.09C251.42,-102.47 239.54,-91.37 229.73,-82.2"/>
<polygon fill="#63b8ff" stroke="#63b8ff" points="232.47,-80.04 222.78,-75.77 227.69,-85.16 232.47,-80.04"/>
</g>
<!-- Node11 -->
<g id="node11" class="node">
<title>Node11</title>
<g id="a_node11"><a xlink:title=" ">
<polygon fill="#e0e0e0" stroke="#999999" points="360.75,-19.25 299.75,-19.25 299.75,0 360.75,0 360.75,-19.25"/>
<text text-anchor="middle" x="330.25" y="-5.75" font-family="Helvetica,sans-Serif" font-size="10.00">type_traits</text>
</a>
</g>
</g>
<!-- Node6&#45;&gt;Node11 -->
<g id="edge11" class="edge">
<title>Node6&#45;&gt;Node11</title>
<path fill="none" stroke="#63b8ff" d="M280.75,-110.04C290.48,-101.76 304.11,-88.69 312.25,-74.5 320.15,-60.73 324.76,-43.27 327.33,-30.09"/>
<polygon fill="#63b8ff" stroke="#63b8ff" points="330.92,-30.86 329.16,-20.41 324.02,-29.68 330.92,-30.86"/>
</g>
<!-- Node12 -->
<g id="node12" class="node">
<title>Node12</title>
<g id="a_node12"><a xlink:title=" ">
<polygon fill="#e0e0e0" stroke="#999999" points="288.5,-74.5 250,-74.5 250,-55.25 288.5,-55.25 288.5,-74.5"/>
<text text-anchor="middle" x="269.25" y="-61" font-family="Helvetica,sans-Serif" font-size="10.00">utility</text>
</a>
</g>
</g>
<!-- Node6&#45;&gt;Node12 -->
<g id="edge12" class="edge">
<title>Node6&#45;&gt;Node12</title>
<path fill="none" stroke="#63b8ff" d="M269.25,-110.33C269.25,-103.67 269.25,-94.24 269.25,-85.78"/>
<polygon fill="#63b8ff" stroke="#63b8ff" points="272.75,-85.86 269.25,-75.86 265.75,-85.86 272.75,-85.86"/>
</g>
<!-- Node13 -->
<g id="node13" class="node">
<title>Node13</title>
<g id="a_node13"><a xlink:href="v8-internal_8h.html" target="_top" xlink:title=" ">
<polygon fill="white" stroke="#666666" points="450.5,-74.5 382,-74.5 382,-55.25 450.5,-55.25 450.5,-74.5"/>
<text text-anchor="middle" x="416.25" y="-61" font-family="Helvetica,sans-Serif" font-size="10.00">v8&#45;internal.h</text>
</a>
</g>
</g>
<!-- Node6&#45;&gt;Node13 -->
<g id="edge14" class="edge">
<title>Node6&#45;&gt;Node13</title>
<path fill="none" stroke="#63b8ff" d="M286.69,-112.81C309.89,-104.4 351.43,-89.36 381.23,-78.56"/>
<polygon fill="#63b8ff" stroke="#63b8ff" points="382.02,-81.64 390.23,-74.94 379.63,-75.05 382.02,-81.64"/>
</g>
<!-- Node15 -->
<g id="node15" class="node">
<title>Node15</title>
<g id="a_node15"><a xlink:href="v8-version_8h.html" target="_top" xlink:title=" ">
<polygon fill="white" stroke="#666666" points="512.5,-19.25 444,-19.25 444,0 512.5,0 512.5,-19.25"/>
<text text-anchor="middle" x="478.25" y="-5.75" font-family="Helvetica,sans-Serif" font-size="10.00">v8&#45;version.h</text>
</a>
</g>
</g>
<!-- Node6&#45;&gt;Node15 -->
<g id="edge21" class="edge">
<title>Node6&#45;&gt;Node15</title>
<path fill="none" stroke="#63b8ff" d="M286.52,-113.12C289.42,-112.19 292.41,-111.28 295.25,-110.5 367.21,-90.73 404.59,-125.31 459.25,-74.5 471.43,-63.18 475.92,-44.43 477.52,-30.17"/>
<polygon fill="#63b8ff" stroke="#63b8ff" points="481.06,-30.73 478.29,-20.5 474.08,-30.22 481.06,-30.73"/>
</g>
<!-- Node16 -->
<g id="node16" class="node">
<title>Node16</title>
<g id="a_node16"><a xlink:href="v8config_8h.html" target="_top" xlink:title=" ">
<polygon fill="white" stroke="#666666" points="590,-19.25 530.5,-19.25 530.5,0 590,0 590,-19.25"/>
<text text-anchor="middle" x="560.25" y="-5.75" font-family="Helvetica,sans-Serif" font-size="10.00">v8config.h</text>
</a>
</g>
</g>
<!-- Node6&#45;&gt;Node16 -->
<g id="edge22" class="edge">
<title>Node6&#45;&gt;Node16</title>
<path fill="none" stroke="#63b8ff" d="M286.5,-113.07C289.4,-112.14 292.4,-111.25 295.25,-110.5 375.41,-89.41 402.84,-108.91 478.25,-74.5 503.74,-62.87 528.47,-41.86 543.99,-27.11"/>
<polygon fill="#63b8ff" stroke="#63b8ff" points="545.9,-30.16 550.61,-20.67 541.01,-25.15 545.9,-30.16"/>
</g>
<!-- Node13&#45;&gt;Node7 -->
<g id="edge15" class="edge">
<title>Node13&#45;&gt;Node7</title>
<path fill="none" stroke="#63b8ff" d="M450.68,-55.58C485.32,-47.21 540.57,-33.81 597.08,-19.78"/>
<polygon fill="#63b8ff" stroke="#63b8ff" points="597.78,-22.96 606.64,-17.15 596.09,-16.17 597.78,-22.96"/>
</g>
<!-- Node13&#45;&gt;Node8 -->
<g id="edge16" class="edge">
<title>Node13&#45;&gt;Node8</title>
<path fill="none" stroke="#63b8ff" d="M389.45,-54.84C362.71,-45.83 321.53,-31.95 292.45,-22.15"/>
<polygon fill="#63b8ff" stroke="#63b8ff" points="293.93,-18.62 283.33,-18.74 291.69,-25.25 293.93,-18.62"/>
</g>
<!-- Node13&#45;&gt;Node11 -->
<g id="edge18" class="edge">
<title>Node13&#45;&gt;Node11</title>
<path fill="none" stroke="#63b8ff" d="M401.66,-54.84C388.69,-46.81 369.47,-34.91 354.24,-25.48"/>
<polygon fill="#63b8ff" stroke="#63b8ff" points="356.25,-21.99 345.91,-19.7 352.57,-27.94 356.25,-21.99"/>
</g>
<!-- Node14 -->
<g id="node14" class="node">
<title>Node14</title>
<g id="a_node14"><a xlink:title=" ">
<polygon fill="#e0e0e0" stroke="#999999" points="426,-19.25 378.5,-19.25 378.5,0 426,0 426,-19.25"/>
<text text-anchor="middle" x="402.25" y="-5.75" font-family="Helvetica,sans-Serif" font-size="10.00">string.h</text>
</a>
</g>
</g>
<!-- Node13&#45;&gt;Node14 -->
<g id="edge17" class="edge">
<title>Node13&#45;&gt;Node14</title>
<path fill="none" stroke="#63b8ff" d="M413.94,-55.08C412.17,-48.34 409.65,-38.77 407.41,-30.24"/>
<polygon fill="#63b8ff" stroke="#63b8ff" points="410.54,-29.39 404.61,-20.61 403.77,-31.17 410.54,-29.39"/>
</g>
<!-- Node13&#45;&gt;Node15 -->
<g id="edge19" class="edge">
<title>Node13&#45;&gt;Node15</title>
<path fill="none" stroke="#63b8ff" d="M426.77,-54.84C435.73,-47.15 448.82,-35.9 459.56,-26.68"/>
<polygon fill="#63b8ff" stroke="#63b8ff" points="461.58,-28.7 466.89,-19.52 457.02,-23.39 461.58,-28.7"/>
</g>
<!-- Node13&#45;&gt;Node16 -->
<g id="edge20" class="edge">
<title>Node13&#45;&gt;Node16</title>
<path fill="none" stroke="#63b8ff" d="M440.68,-54.84C463.95,-46.24 499.23,-33.19 525.44,-23.5"/>
<polygon fill="#63b8ff" stroke="#63b8ff" points="526.54,-26.45 534.7,-19.7 524.11,-19.89 526.54,-26.45"/>
</g>
</g>
</svg>
