<?xml version="1.0" encoding="UTF-8" standalone="no"?>
<!DOCTYPE svg PUBLIC "-//W3C//DTD SVG 1.1//EN"
 "http://www.w3.org/Graphics/SVG/1.1/DTD/svg11.dtd">
<!-- Generated by graphviz version 8.0.5 (20230430.1635)
 -->
<!-- Title: Graphical Class Hierarchy Pages: 1 -->
<svg width="288pt" height="101pt"
 viewBox="0.00 0.00 287.50 101.25" xmlns="http://www.w3.org/2000/svg" xmlns:xlink="http://www.w3.org/1999/xlink">
<g id="graph0" class="graph" transform="scale(1 1) rotate(0) translate(4 97.25)">
<title>Graphical Class Hierarchy</title>
<!-- Node0 -->
<g id="node1" class="node">
<title>Node0</title>
<g id="a_node1"><a xlink:href="classv8_1_1PersistentBase.html" target="_top" xlink:title=" ">
<polygon fill="white" stroke="#666666" points="120.25,-56.25 0,-56.25 0,-37 120.25,-37 120.25,-56.25"/>
<text text-anchor="middle" x="60.12" y="-42.75" font-family="Helvetica,sans-Serif" font-size="10.00">v8::PersistentBase&lt; T &gt;</text>
</a>
</g>
</g>
<!-- Node1 -->
<g id="node2" class="node">
<title>Node1</title>
<g id="a_node2"><a xlink:href="classv8_1_1Global.html" target="_top" xlink:title=" ">
<polygon fill="white" stroke="#666666" points="279.5,-93.25 156.25,-93.25 156.25,-74 279.5,-74 279.5,-93.25"/>
<text text-anchor="middle" x="217.88" y="-79.75" font-family="Helvetica,sans-Serif" font-size="10.00">v8::Global&lt; v8::Context &gt;</text>
</a>
</g>
</g>
<!-- Node0&#45;&gt;Node1 -->
<g id="edge1" class="edge">
<title>Node0&#45;&gt;Node1</title>
<path fill="none" stroke="#63b8ff" d="M114.3,-59.26C133.9,-63.91 155.83,-69.12 174.37,-73.53"/>
<polygon fill="#63b8ff" stroke="#63b8ff" points="115.22,-55.64 104.68,-56.74 113.6,-62.45 115.22,-55.64"/>
</g>
<!-- Node2 -->
<g id="node3" class="node">
<title>Node2</title>
<g id="a_node3"><a xlink:href="classv8_1_1Global.html" target="_top" xlink:title=" ">
<polygon fill="white" stroke="#666666" points="258.5,-56.25 177.25,-56.25 177.25,-37 258.5,-37 258.5,-56.25"/>
<text text-anchor="middle" x="217.88" y="-42.75" font-family="Helvetica,sans-Serif" font-size="10.00">v8::Global&lt; T &gt;</text>
</a>
</g>
</g>
<!-- Node0&#45;&gt;Node2 -->
<g id="edge2" class="edge">
<title>Node0&#45;&gt;Node2</title>
<path fill="none" stroke="#63b8ff" d="M131.22,-46.62C146.92,-46.62 163.05,-46.62 177.02,-46.62"/>
<polygon fill="#63b8ff" stroke="#63b8ff" points="131.45,-43.13 121.45,-46.62 131.45,-50.13 131.45,-43.13"/>
</g>
<!-- Node3 -->
<g id="node4" class="node">
<title>Node3</title>
<g id="a_node4"><a xlink:href="classv8_1_1Persistent.html" target="_top" xlink:title=" ">
<polygon fill="white" stroke="#666666" points="273.5,-19.25 162.25,-19.25 162.25,0 273.5,0 273.5,-19.25"/>
<text text-anchor="middle" x="217.88" y="-5.75" font-family="Helvetica,sans-Serif" font-size="10.00">v8::Persistent&lt; T, M &gt;</text>
</a>
</g>
</g>
<!-- Node0&#45;&gt;Node3 -->
<g id="edge3" class="edge">
<title>Node0&#45;&gt;Node3</title>
<path fill="none" stroke="#63b8ff" d="M114.3,-33.99C133.9,-29.34 155.83,-24.13 174.37,-19.72"/>
<polygon fill="#63b8ff" stroke="#63b8ff" points="113.6,-30.8 104.68,-36.51 115.22,-37.61 113.6,-30.8"/>
</g>
</g>
</svg>
