<?xml version="1.0" encoding="UTF-8" standalone="no"?>
<!DOCTYPE svg PUBLIC "-//W3C//DTD SVG 1.1//EN"
 "http://www.w3.org/Graphics/SVG/1.1/DTD/svg11.dtd">
<!-- Generated by graphviz version 8.0.5 (20230430.1635)
 -->
<!-- Title: include/cppgc/internal/logging.h Pages: 1 -->
<svg width="851pt" height="615pt"
 viewBox="0.00 0.00 850.57 614.50" xmlns="http://www.w3.org/2000/svg" xmlns:xlink="http://www.w3.org/1999/xlink">
<g id="graph0" class="graph" transform="scale(1 1) rotate(0) translate(4 610.5)">
<title>include/cppgc/internal/logging.h</title>
<!-- Node1 -->
<g id="node1" class="node">
<title>Node1</title>
<g id="a_node1"><a xlink:title=" ">
<polygon fill="#999999" stroke="#666666" points="339.75,-606.5 229.25,-606.5 229.25,-576 339.75,-576 339.75,-606.5"/>
<text text-anchor="start" x="237.25" y="-593" font-family="Helvetica,sans-Serif" font-size="10.00">include/cppgc/internal</text>
<text text-anchor="middle" x="284.5" y="-581.75" font-family="Helvetica,sans-Serif" font-size="10.00">/logging.h</text>
</a>
</g>
</g>
<!-- Node2 -->
<g id="node2" class="node">
<title>Node2</title>
<g id="a_node2"><a xlink:href="explicit-management_8h.html" target="_top" xlink:title=" ">
<polygon fill="white" stroke="#666666" points="109,-540 0,-540 0,-509.5 109,-509.5 109,-540"/>
<text text-anchor="start" x="8" y="-526.5" font-family="Helvetica,sans-Serif" font-size="10.00">include/cppgc/explicit</text>
<text text-anchor="middle" x="54.5" y="-515.25" font-family="Helvetica,sans-Serif" font-size="10.00">&#45;management.h</text>
</a>
</g>
</g>
<!-- Node1&#45;&gt;Node2 -->
<g id="edge1" class="edge">
<title>Node1&#45;&gt;Node2</title>
<path fill="none" stroke="#63b8ff" d="M221.62,-572.62C185.57,-562.51 140.86,-549.97 106.75,-540.4"/>
<polygon fill="#63b8ff" stroke="#63b8ff" points="220.45,-576.2 231.02,-575.53 222.34,-569.46 220.45,-576.2"/>
</g>
<!-- Node3 -->
<g id="node3" class="node">
<title>Node3</title>
<g id="a_node3"><a xlink:href="base-page-handle_8h.html" target="_top" xlink:title=" ">
<polygon fill="white" stroke="#666666" points="237.75,-540 127.25,-540 127.25,-509.5 237.75,-509.5 237.75,-540"/>
<text text-anchor="start" x="135.25" y="-526.5" font-family="Helvetica,sans-Serif" font-size="10.00">include/cppgc/internal</text>
<text text-anchor="middle" x="182.5" y="-515.25" font-family="Helvetica,sans-Serif" font-size="10.00">/base&#45;page&#45;handle.h</text>
</a>
</g>
</g>
<!-- Node1&#45;&gt;Node3 -->
<g id="edge2" class="edge">
<title>Node1&#45;&gt;Node3</title>
<path fill="none" stroke="#63b8ff" d="M252.3,-569.89C237.12,-560.29 219.36,-549.06 205.55,-540.33"/>
<polygon fill="#63b8ff" stroke="#63b8ff" points="250.03,-573.23 260.35,-575.61 253.77,-567.31 250.03,-573.23"/>
</g>
<!-- Node5 -->
<g id="node5" class="node">
<title>Node5</title>
<g id="a_node5"><a xlink:href="caged-heap-local-data_8h.html" target="_top" xlink:title=" ">
<polygon fill="white" stroke="#666666" points="259.38,-407 137.62,-407 137.62,-376.5 259.38,-376.5 259.38,-407"/>
<text text-anchor="start" x="145.62" y="-393.5" font-family="Helvetica,sans-Serif" font-size="10.00">include/cppgc/internal</text>
<text text-anchor="middle" x="198.5" y="-382.25" font-family="Helvetica,sans-Serif" font-size="10.00">/caged&#45;heap&#45;local&#45;data.h</text>
</a>
</g>
</g>
<!-- Node1&#45;&gt;Node5 -->
<g id="edge5" class="edge">
<title>Node1&#45;&gt;Node5</title>
<path fill="none" stroke="#63b8ff" d="M281.92,-564.98C277.94,-534.44 268.35,-482.28 246.5,-443 238.88,-429.29 226.62,-416.55 216.4,-407.32"/>
<polygon fill="#63b8ff" stroke="#63b8ff" points="278.52,-565.03 283.18,-574.55 285.47,-564.2 278.52,-565.03"/>
</g>
<!-- Node6 -->
<g id="node6" class="node">
<title>Node6</title>
<g id="a_node6"><a xlink:href="member-storage_8h.html" target="_top" xlink:title=" ">
<polygon fill="white" stroke="#666666" points="640.75,-540 530.25,-540 530.25,-509.5 640.75,-509.5 640.75,-540"/>
<text text-anchor="start" x="538.25" y="-526.5" font-family="Helvetica,sans-Serif" font-size="10.00">include/cppgc/internal</text>
<text text-anchor="middle" x="585.5" y="-515.25" font-family="Helvetica,sans-Serif" font-size="10.00">/member&#45;storage.h</text>
</a>
</g>
</g>
<!-- Node1&#45;&gt;Node6 -->
<g id="edge6" class="edge">
<title>Node1&#45;&gt;Node6</title>
<path fill="none" stroke="#63b8ff" d="M350.5,-576.11C404.17,-564.61 479.06,-548.56 529.76,-537.7"/>
<polygon fill="#63b8ff" stroke="#63b8ff" points="350.1,-572.83 341.06,-578.34 351.57,-579.67 350.1,-572.83"/>
</g>
<!-- Node11 -->
<g id="node11" class="node">
<title>Node11</title>
<g id="a_node11"><a xlink:href="visitor_8h.html" target="_top" xlink:title=" ">
<polygon fill="white" stroke="#666666" points="703.88,-146.62 591.12,-146.62 591.12,-127.38 703.88,-127.38 703.88,-146.62"/>
<text text-anchor="middle" x="647.5" y="-133.12" font-family="Helvetica,sans-Serif" font-size="10.00">include/cppgc/visitor.h</text>
</a>
</g>
</g>
<!-- Node1&#45;&gt;Node11 -->
<g id="edge31" class="edge">
<title>Node1&#45;&gt;Node11</title>
<path fill="none" stroke="#63b8ff" d="M301.55,-567.02C318.35,-541.81 341.5,-499.72 341.5,-459.25 341.5,-459.25 341.5,-459.25 341.5,-269 341.5,-232.13 333.68,-213.55 360.5,-188.25 394.3,-156.36 520.73,-160.28 566.5,-152.25 576.06,-150.57 586.26,-148.78 596.08,-147.05"/>
<polygon fill="#63b8ff" stroke="#63b8ff" points="298.28,-564.6 295.49,-574.82 304.05,-568.57 298.28,-564.6"/>
</g>
<!-- Node18 -->
<g id="node18" class="node">
<title>Node18</title>
<g id="a_node18"><a xlink:href="persistent-node_8h.html" target="_top" xlink:title=" ">
<polygon fill="white" stroke="#666666" points="557.75,-152.25 447.25,-152.25 447.25,-121.75 557.75,-121.75 557.75,-152.25"/>
<text text-anchor="start" x="455.25" y="-138.75" font-family="Helvetica,sans-Serif" font-size="10.00">include/cppgc/internal</text>
<text text-anchor="middle" x="502.5" y="-127.5" font-family="Helvetica,sans-Serif" font-size="10.00">/persistent&#45;node.h</text>
</a>
</g>
</g>
<!-- Node1&#45;&gt;Node18 -->
<g id="edge28" class="edge">
<title>Node1&#45;&gt;Node18</title>
<path fill="none" stroke="#63b8ff" d="M290.3,-565.3C295.89,-539.06 303.5,-496.48 303.5,-459.25 303.5,-459.25 303.5,-459.25 303.5,-269 303.5,-231.56 300.9,-214.6 327.5,-188.25 359.05,-156.99 408.68,-144.91 447.04,-140.37"/>
<polygon fill="#63b8ff" stroke="#63b8ff" points="286.72,-564.29 287.98,-574.81 293.56,-565.8 286.72,-564.29"/>
</g>
<!-- Node4 -->
<g id="node4" class="node">
<title>Node4</title>
<g id="a_node4"><a xlink:href="caged-heap_8h.html" target="_top" xlink:title=" ">
<polygon fill="white" stroke="#666666" points="237.75,-473.5 127.25,-473.5 127.25,-443 237.75,-443 237.75,-473.5"/>
<text text-anchor="start" x="135.25" y="-460" font-family="Helvetica,sans-Serif" font-size="10.00">include/cppgc/internal</text>
<text text-anchor="middle" x="182.5" y="-448.75" font-family="Helvetica,sans-Serif" font-size="10.00">/caged&#45;heap.h</text>
</a>
</g>
</g>
<!-- Node3&#45;&gt;Node4 -->
<g id="edge3" class="edge">
<title>Node3&#45;&gt;Node4</title>
<path fill="none" stroke="#63b8ff" d="M182.5,-498.38C182.5,-490.05 182.5,-481.08 182.5,-473.83"/>
<polygon fill="#63b8ff" stroke="#63b8ff" points="179,-498.11 182.5,-508.11 186,-498.11 179,-498.11"/>
</g>
<!-- Node4&#45;&gt;Node5 -->
<g id="edge4" class="edge">
<title>Node4&#45;&gt;Node5</title>
<path fill="none" stroke="#63b8ff" d="M188.72,-432.16C190.81,-423.75 193.07,-414.66 194.88,-407.33"/>
<polygon fill="#63b8ff" stroke="#63b8ff" points="185.14,-431.07 186.13,-441.61 191.94,-432.75 185.14,-431.07"/>
</g>
<!-- Node7 -->
<g id="node7" class="node">
<title>Node7</title>
<g id="a_node7"><a xlink:href="pointer-policies_8h.html" target="_top" xlink:title=" ">
<polygon fill="white" stroke="#666666" points="785.75,-407 675.25,-407 675.25,-376.5 785.75,-376.5 785.75,-407"/>
<text text-anchor="start" x="683.25" y="-393.5" font-family="Helvetica,sans-Serif" font-size="10.00">include/cppgc/internal</text>
<text text-anchor="middle" x="730.5" y="-382.25" font-family="Helvetica,sans-Serif" font-size="10.00">/pointer&#45;policies.h</text>
</a>
</g>
</g>
<!-- Node6&#45;&gt;Node7 -->
<g id="edge7" class="edge">
<title>Node6&#45;&gt;Node7</title>
<path fill="none" stroke="#63b8ff" d="M609.86,-501.95C619.69,-493.13 631.15,-482.84 641.5,-473.5 667.06,-450.44 696.64,-423.56 714.45,-407.36"/>
<polygon fill="#63b8ff" stroke="#63b8ff" points="607.81,-498.98 602.69,-508.26 612.48,-504.19 607.81,-498.98"/>
</g>
<!-- Node9 -->
<g id="node9" class="node">
<title>Node9</title>
<g id="a_node9"><a xlink:href="member_8h.html" target="_top" xlink:title=" ">
<polygon fill="white" stroke="#666666" points="688.38,-340.5 566.62,-340.5 566.62,-321.25 688.38,-321.25 688.38,-340.5"/>
<text text-anchor="middle" x="627.5" y="-327" font-family="Helvetica,sans-Serif" font-size="10.00">include/cppgc/member.h</text>
</a>
</g>
</g>
<!-- Node6&#45;&gt;Node9 -->
<g id="edge27" class="edge">
<title>Node6&#45;&gt;Node9</title>
<path fill="none" stroke="#63b8ff" d="M598.4,-499.4C602.19,-491.35 605.98,-482.22 608.5,-473.5 622.62,-424.64 626.31,-363.22 627.22,-340.68"/>
<polygon fill="#63b8ff" stroke="#63b8ff" points="594.83,-497.72 593.54,-508.24 601.1,-500.83 594.83,-497.72"/>
</g>
<!-- Node17 -->
<g id="node17" class="node">
<title>Node17</title>
<g id="a_node17"><a xlink:href="write-barrier_8h.html" target="_top" xlink:title=" ">
<polygon fill="white" stroke="#666666" points="599.75,-473.5 489.25,-473.5 489.25,-443 599.75,-443 599.75,-473.5"/>
<text text-anchor="start" x="497.25" y="-460" font-family="Helvetica,sans-Serif" font-size="10.00">include/cppgc/internal</text>
<text text-anchor="middle" x="544.5" y="-448.75" font-family="Helvetica,sans-Serif" font-size="10.00">/write&#45;barrier.h</text>
</a>
</g>
</g>
<!-- Node6&#45;&gt;Node17 -->
<g id="edge24" class="edge">
<title>Node6&#45;&gt;Node17</title>
<path fill="none" stroke="#63b8ff" d="M570.45,-500.07C564.86,-491.28 558.69,-481.57 553.77,-473.83"/>
<polygon fill="#63b8ff" stroke="#63b8ff" points="567.88,-501.55 576.2,-508.11 573.79,-497.8 567.88,-501.55"/>
</g>
<!-- Node8 -->
<g id="node8" class="node">
<title>Node8</title>
<g id="a_node8"><a xlink:href="cross-thread-persistent_8h.html" target="_top" xlink:title=" ">
<polygon fill="white" stroke="#666666" points="638,-30.5 535,-30.5 535,0 638,0 638,-30.5"/>
<text text-anchor="start" x="543" y="-17" font-family="Helvetica,sans-Serif" font-size="10.00">include/cppgc/cross</text>
<text text-anchor="middle" x="586.5" y="-5.75" font-family="Helvetica,sans-Serif" font-size="10.00">&#45;thread&#45;persistent.h</text>
</a>
</g>
</g>
<!-- Node7&#45;&gt;Node8 -->
<g id="edge8" class="edge">
<title>Node7&#45;&gt;Node8</title>
<path fill="none" stroke="#63b8ff" d="M768.02,-370.49C800.23,-350.06 841.5,-315.25 841.5,-271 841.5,-271 841.5,-271 841.5,-136 841.5,-103.98 845.78,-88.49 822.5,-66.5 796.42,-41.87 699.63,-27.71 638.4,-21.03"/>
<polygon fill="#63b8ff" stroke="#63b8ff" points="766.51,-367.92 759.8,-376.11 770.16,-373.89 766.51,-367.92"/>
</g>
<!-- Node7&#45;&gt;Node9 -->
<g id="edge9" class="edge">
<title>Node7&#45;&gt;Node9</title>
<path fill="none" stroke="#63b8ff" d="M695.31,-370.63C677.63,-360.53 657.1,-348.79 643.3,-340.9"/>
<polygon fill="#63b8ff" stroke="#63b8ff" points="693.36,-374.12 703.77,-376.05 696.83,-368.04 693.36,-374.12"/>
</g>
<!-- Node7&#45;&gt;Node11 -->
<g id="edge23" class="edge">
<title>Node7&#45;&gt;Node11</title>
<path fill="none" stroke="#63b8ff" d="M732.53,-365.34C734.59,-325.24 733.97,-245.93 703.5,-188.25 694.1,-170.46 675.75,-155.89 662.61,-147.1"/>
<polygon fill="#63b8ff" stroke="#63b8ff" points="728.98,-365.04 731.85,-375.23 735.97,-365.47 728.98,-365.04"/>
</g>
<!-- Node12 -->
<g id="node12" class="node">
<title>Node12</title>
<g id="a_node12"><a xlink:href="persistent_8h.html" target="_top" xlink:title=" ">
<polygon fill="white" stroke="#666666" points="698.12,-85.75 568.88,-85.75 568.88,-66.5 698.12,-66.5 698.12,-85.75"/>
<text text-anchor="middle" x="633.5" y="-72.25" font-family="Helvetica,sans-Serif" font-size="10.00">include/cppgc/persistent.h</text>
</a>
</g>
</g>
<!-- Node7&#45;&gt;Node12 -->
<g id="edge22" class="edge">
<title>Node7&#45;&gt;Node12</title>
<path fill="none" stroke="#63b8ff" d="M750.04,-367.34C767.22,-344.33 789.5,-307.46 789.5,-271 789.5,-271 789.5,-271 789.5,-202.5 789.5,-138.57 708.91,-101.77 663.58,-86.13"/>
<polygon fill="#63b8ff" stroke="#63b8ff" points="746.67,-364.98 743.3,-375.03 752.2,-369.27 746.67,-364.98"/>
</g>
<!-- Node10 -->
<g id="node10" class="node">
<title>Node10</title>
<g id="a_node10"><a xlink:href="ephemeron-pair_8h.html" target="_top" xlink:title=" ">
<polygon fill="white" stroke="#666666" points="497,-218.75 370,-218.75 370,-188.25 497,-188.25 497,-218.75"/>
<text text-anchor="start" x="378" y="-205.25" font-family="Helvetica,sans-Serif" font-size="10.00">include/cppgc/ephemeron</text>
<text text-anchor="middle" x="433.5" y="-194" font-family="Helvetica,sans-Serif" font-size="10.00">&#45;pair.h</text>
</a>
</g>
</g>
<!-- Node9&#45;&gt;Node10 -->
<g id="edge10" class="edge">
<title>Node9&#45;&gt;Node10</title>
<path fill="none" stroke="#63b8ff" d="M603.93,-314.91C590.93,-306.47 574.61,-295.58 560.5,-285.25 543.03,-272.46 540.43,-266.89 522.5,-254.75 503.11,-241.62 480.05,-228.67 462.26,-219.2"/>
<polygon fill="#63b8ff" stroke="#63b8ff" points="601.83,-318.36 612.13,-320.83 605.62,-312.48 601.83,-318.36"/>
</g>
<!-- Node9&#45;&gt;Node11 -->
<g id="edge21" class="edge">
<title>Node9&#45;&gt;Node11</title>
<path fill="none" stroke="#63b8ff" d="M661.23,-315.95C674.05,-308.79 687.3,-298.7 694.5,-285.25 720.59,-236.52 674.26,-170.87 655.16,-147.08"/>
<polygon fill="#63b8ff" stroke="#63b8ff" points="659.93,-313.19 652.61,-320.85 663.11,-319.43 659.93,-313.19"/>
</g>
<!-- Node14 -->
<g id="node14" class="node">
<title>Node14</title>
<g id="a_node14"><a xlink:href="heap-consistency_8h.html" target="_top" xlink:title=" ">
<polygon fill="white" stroke="#666666" points="513.5,-285.25 413.5,-285.25 413.5,-254.75 513.5,-254.75 513.5,-285.25"/>
<text text-anchor="start" x="421.5" y="-271.75" font-family="Helvetica,sans-Serif" font-size="10.00">include/cppgc/heap</text>
<text text-anchor="middle" x="463.5" y="-260.5" font-family="Helvetica,sans-Serif" font-size="10.00">&#45;consistency.h</text>
</a>
</g>
</g>
<!-- Node9&#45;&gt;Node14 -->
<g id="edge16" class="edge">
<title>Node9&#45;&gt;Node14</title>
<path fill="none" stroke="#63b8ff" d="M592.15,-317.19C566.39,-307.94 531.41,-295.38 504.43,-285.69"/>
<polygon fill="#63b8ff" stroke="#63b8ff" points="590.64,-320.72 601.23,-320.8 593.01,-314.13 590.64,-320.72"/>
</g>
<!-- Node15 -->
<g id="node15" class="node">
<title>Node15</title>
<g id="a_node15"><a xlink:href="liveness-broker_8h.html" target="_top" xlink:title=" ">
<polygon fill="white" stroke="#666666" points="685,-285.25 570,-285.25 570,-254.75 685,-254.75 685,-285.25"/>
<text text-anchor="start" x="578" y="-271.75" font-family="Helvetica,sans-Serif" font-size="10.00">include/cppgc/liveness</text>
<text text-anchor="middle" x="627.5" y="-260.5" font-family="Helvetica,sans-Serif" font-size="10.00">&#45;broker.h</text>
</a>
</g>
</g>
<!-- Node9&#45;&gt;Node15 -->
<g id="edge17" class="edge">
<title>Node9&#45;&gt;Node15</title>
<path fill="none" stroke="#63b8ff" d="M627.5,-309.95C627.5,-301.95 627.5,-292.9 627.5,-285.53"/>
<polygon fill="#63b8ff" stroke="#63b8ff" points="624,-309.93 627.5,-319.93 631,-309.93 624,-309.93"/>
</g>
<!-- Node10&#45;&gt;Node11 -->
<g id="edge11" class="edge">
<title>Node10&#45;&gt;Node11</title>
<path fill="none" stroke="#63b8ff" d="M492.62,-184.68C533.1,-172.48 585.11,-156.8 617.37,-147.08"/>
<polygon fill="#63b8ff" stroke="#63b8ff" points="491.89,-181.55 483.33,-187.78 493.91,-188.25 491.89,-181.55"/>
</g>
<!-- Node11&#45;&gt;Node8 -->
<g id="edge12" class="edge">
<title>Node11&#45;&gt;Node8</title>
<path fill="none" stroke="#63b8ff" d="M605.85,-122.89C588.29,-115.07 569.62,-103.17 559.5,-85.75 549.17,-67.95 562.08,-45.45 573.36,-30.96"/>
<polygon fill="#63b8ff" stroke="#63b8ff" points="604.4,-126.49 614.98,-127.03 607.05,-120.01 604.4,-126.49"/>
</g>
<!-- Node11&#45;&gt;Node12 -->
<g id="edge13" class="edge">
<title>Node11&#45;&gt;Node12</title>
<path fill="none" stroke="#63b8ff" d="M642.88,-116.57C640.44,-106.32 637.56,-94.22 635.65,-86.15"/>
<polygon fill="#63b8ff" stroke="#63b8ff" points="639.66,-117.14 645.37,-126.06 646.47,-115.52 639.66,-117.14"/>
</g>
<!-- Node13 -->
<g id="node13" class="node">
<title>Node13</title>
<g id="a_node13"><a xlink:href="v8-cppgc_8h.html" target="_top" xlink:title=" ">
<polygon fill="white" stroke="#666666" points="813,-85.75 716,-85.75 716,-66.5 813,-66.5 813,-85.75"/>
<text text-anchor="middle" x="764.5" y="-72.25" font-family="Helvetica,sans-Serif" font-size="10.00">include/v8&#45;cppgc.h</text>
</a>
</g>
</g>
<!-- Node11&#45;&gt;Node13 -->
<g id="edge15" class="edge">
<title>Node11&#45;&gt;Node13</title>
<path fill="none" stroke="#63b8ff" d="M675.34,-121.99C697.44,-110.87 727.68,-95.65 746.65,-86.11"/>
<polygon fill="#63b8ff" stroke="#63b8ff" points="673.88,-119.31 666.52,-126.93 677.03,-125.56 673.88,-119.31"/>
</g>
<!-- Node12&#45;&gt;Node8 -->
<g id="edge14" class="edge">
<title>Node12&#45;&gt;Node8</title>
<path fill="none" stroke="#63b8ff" d="M619.59,-57.7C612.75,-49.13 604.6,-38.92 598.1,-30.78"/>
<polygon fill="#63b8ff" stroke="#63b8ff" points="617.39,-59.55 626.36,-65.18 622.86,-55.18 617.39,-59.55"/>
</g>
<!-- Node15&#45;&gt;Node10 -->
<g id="edge18" class="edge">
<title>Node15&#45;&gt;Node10</title>
<path fill="none" stroke="#63b8ff" d="M573.13,-250.92C543,-240.91 506.02,-228.61 477.68,-219.19"/>
<polygon fill="#63b8ff" stroke="#63b8ff" points="571.88,-254.53 582.48,-254.36 574.09,-247.89 571.88,-254.53"/>
</g>
<!-- Node15&#45;&gt;Node11 -->
<g id="edge20" class="edge">
<title>Node15&#45;&gt;Node11</title>
<path fill="none" stroke="#63b8ff" d="M644.5,-245.41C649.37,-237.35 654.02,-228.02 656.5,-218.75 663.36,-193.13 655.29,-161.59 650.52,-146.64"/>
<polygon fill="#63b8ff" stroke="#63b8ff" points="641.1,-243.23 638.6,-253.52 646.98,-247.03 641.1,-243.23"/>
</g>
<!-- Node16 -->
<g id="node16" class="node">
<title>Node16</title>
<g id="a_node16"><a xlink:href="prefinalizer_8h.html" target="_top" xlink:title=" ">
<polygon fill="white" stroke="#666666" points="647.62,-213.12 515.38,-213.12 515.38,-193.88 647.62,-193.88 647.62,-213.12"/>
<text text-anchor="middle" x="581.5" y="-199.62" font-family="Helvetica,sans-Serif" font-size="10.00">include/cppgc/prefinalizer.h</text>
</a>
</g>
</g>
<!-- Node15&#45;&gt;Node16 -->
<g id="edge19" class="edge">
<title>Node15&#45;&gt;Node16</title>
<path fill="none" stroke="#63b8ff" d="M610.71,-245.45C602.73,-234.27 593.68,-221.57 587.79,-213.32"/>
<polygon fill="#63b8ff" stroke="#63b8ff" points="608.41,-247.25 617.06,-253.36 614.11,-243.19 608.41,-247.25"/>
</g>
<!-- Node17&#45;&gt;Node7 -->
<g id="edge26" class="edge">
<title>Node17&#45;&gt;Node7</title>
<path fill="none" stroke="#63b8ff" d="M597.01,-439.04C625.83,-429.05 661.09,-416.82 688.14,-407.44"/>
<polygon fill="#63b8ff" stroke="#63b8ff" points="596.01,-436.03 587.71,-442.61 598.3,-442.64 596.01,-436.03"/>
</g>
<!-- Node17&#45;&gt;Node14 -->
<g id="edge25" class="edge">
<title>Node17&#45;&gt;Node14</title>
<path fill="none" stroke="#63b8ff" d="M533.76,-432.56C516.63,-393.17 483.64,-317.31 469.83,-285.55"/>
<polygon fill="#63b8ff" stroke="#63b8ff" points="530.95,-433.86 538.14,-441.64 537.37,-431.07 530.95,-433.86"/>
</g>
<!-- Node18&#45;&gt;Node8 -->
<g id="edge29" class="edge">
<title>Node18&#45;&gt;Node8</title>
<path fill="none" stroke="#63b8ff" d="M519.07,-112.38C536.13,-88.06 562.17,-50.94 576.38,-30.68"/>
<polygon fill="#63b8ff" stroke="#63b8ff" points="515.68,-110.12 512.8,-120.32 521.41,-114.14 515.68,-110.12"/>
</g>
<!-- Node18&#45;&gt;Node12 -->
<g id="edge30" class="edge">
<title>Node18&#45;&gt;Node12</title>
<path fill="none" stroke="#63b8ff" d="M545.08,-116.86C568.04,-106.55 595.29,-94.3 613.41,-86.15"/>
<polygon fill="#63b8ff" stroke="#63b8ff" points="543.91,-114 536.22,-121.3 546.77,-120.39 543.91,-114"/>
</g>
</g>
</svg>
