<?xml version="1.0" encoding="UTF-8" standalone="no"?>
<!DOCTYPE svg PUBLIC "-//W3C//DTD SVG 1.1//EN"
 "http://www.w3.org/Graphics/SVG/1.1/DTD/svg11.dtd">
<!-- Generated by graphviz version 8.0.5 (20230430.1635)
 -->
<!-- Title: include/v8&#45;fast&#45;api&#45;calls.h Pages: 1 -->
<svg width="1442pt" height="536pt"
 viewBox="0.00 0.00 1441.50 535.75" xmlns="http://www.w3.org/2000/svg" xmlns:xlink="http://www.w3.org/1999/xlink">
<g id="graph0" class="graph" transform="scale(1 1) rotate(0) translate(4 531.75)">
<title>include/v8&#45;fast&#45;api&#45;calls.h</title>
<!-- Node1 -->
<g id="node1" class="node">
<title>Node1</title>
<g id="a_node1"><a xlink:title=" ">
<polygon fill="#999999" stroke="#666666" points="755.75,-527.75 660.25,-527.75 660.25,-497.25 755.75,-497.25 755.75,-527.75"/>
<text text-anchor="start" x="668.25" y="-514.25" font-family="Helvetica,sans-Serif" font-size="10.00">include/v8&#45;fast&#45;api</text>
<text text-anchor="middle" x="708" y="-503" font-family="Helvetica,sans-Serif" font-size="10.00">&#45;calls.h</text>
</a>
</g>
</g>
<!-- Node2 -->
<g id="node2" class="node">
<title>Node2</title>
<g id="a_node2"><a xlink:title=" ">
<polygon fill="#e0e0e0" stroke="#999999" points="175.25,-19.25 124.75,-19.25 124.75,0 175.25,0 175.25,-19.25"/>
<text text-anchor="middle" x="150" y="-5.75" font-family="Helvetica,sans-Serif" font-size="10.00">stddef.h</text>
</a>
</g>
</g>
<!-- Node1&#45;&gt;Node2 -->
<g id="edge1" class="edge">
<title>Node1&#45;&gt;Node2</title>
<path fill="none" stroke="#63b8ff" d="M660.12,-512.05C529.39,-512.89 169.06,-510.54 63,-461.25 26.84,-444.45 0,-437.25 0,-397.38 0,-397.38 0,-397.38 0,-119.12 0,-63.01 69.78,-32.97 114.15,-19.54"/>
<polygon fill="#63b8ff" stroke="#63b8ff" points="114.91,-22.67 123.55,-16.55 112.98,-15.94 114.91,-22.67"/>
</g>
<!-- Node3 -->
<g id="node3" class="node">
<title>Node3</title>
<g id="a_node3"><a xlink:title=" ">
<polygon fill="#e0e0e0" stroke="#999999" points="605.75,-19.25 558.25,-19.25 558.25,0 605.75,0 605.75,-19.25"/>
<text text-anchor="middle" x="582" y="-5.75" font-family="Helvetica,sans-Serif" font-size="10.00">stdint.h</text>
</a>
</g>
</g>
<!-- Node1&#45;&gt;Node3 -->
<g id="edge2" class="edge">
<title>Node1&#45;&gt;Node3</title>
<path fill="none" stroke="#63b8ff" d="M755.79,-512.26C895.27,-513.22 1292,-506.36 1292,-397.38 1292,-397.38 1292,-397.38 1292,-284.88 1292,-186.04 1238.73,-161.39 1154,-110.5 1061.87,-55.17 726.46,-22.73 616.89,-13.43"/>
<polygon fill="#63b8ff" stroke="#63b8ff" points="617.38,-9.87 607.12,-12.53 616.8,-16.85 617.38,-9.87"/>
</g>
<!-- Node4 -->
<g id="node4" class="node">
<title>Node4</title>
<g id="a_node4"><a xlink:title=" ">
<polygon fill="#e0e0e0" stroke="#999999" points="1433.5,-461.25 1396.5,-461.25 1396.5,-442 1433.5,-442 1433.5,-461.25"/>
<text text-anchor="middle" x="1415" y="-447.75" font-family="Helvetica,sans-Serif" font-size="10.00">tuple</text>
</a>
</g>
</g>
<!-- Node1&#45;&gt;Node4 -->
<g id="edge3" class="edge">
<title>Node1&#45;&gt;Node4</title>
<path fill="none" stroke="#63b8ff" d="M756.16,-510.9C867.24,-508.85 1149.64,-499.95 1382,-461.25 1383.31,-461.03 1384.65,-460.78 1386,-460.52"/>
<polygon fill="#63b8ff" stroke="#63b8ff" points="1386.32,-463.8 1395.28,-458.15 1384.75,-456.98 1386.32,-463.8"/>
</g>
<!-- Node5 -->
<g id="node5" class="node">
<title>Node5</title>
<g id="a_node5"><a xlink:title=" ">
<polygon fill="#e0e0e0" stroke="#999999" points="408.5,-19.25 347.5,-19.25 347.5,0 408.5,0 408.5,-19.25"/>
<text text-anchor="middle" x="378" y="-5.75" font-family="Helvetica,sans-Serif" font-size="10.00">type_traits</text>
</a>
</g>
</g>
<!-- Node1&#45;&gt;Node5 -->
<g id="edge4" class="edge">
<title>Node1&#45;&gt;Node5</title>
<path fill="none" stroke="#63b8ff" d="M755.88,-508.97C868.36,-501.74 1140,-476.11 1140,-397.38 1140,-397.38 1140,-397.38 1140,-174.38 1140,-144.76 1143.51,-129.75 1121,-110.5 1093.98,-87.39 571.67,-30.96 419.35,-14.93"/>
<polygon fill="#63b8ff" stroke="#63b8ff" points="419.94,-11.37 409.63,-13.81 419.21,-18.33 419.94,-11.37"/>
</g>
<!-- Node6 -->
<g id="node6" class="node">
<title>Node6</title>
<g id="a_node6"><a xlink:href="v8-internal_8h.html" target="_top" xlink:title=" ">
<polygon fill="white" stroke="#666666" points="329.25,-74.5 260.75,-74.5 260.75,-55.25 329.25,-55.25 329.25,-74.5"/>
<text text-anchor="middle" x="295" y="-61" font-family="Helvetica,sans-Serif" font-size="10.00">v8&#45;internal.h</text>
</a>
</g>
</g>
<!-- Node1&#45;&gt;Node6 -->
<g id="edge5" class="edge">
<title>Node1&#45;&gt;Node6</title>
<path fill="none" stroke="#63b8ff" d="M659.93,-509.4C544.76,-504.01 255.74,-488.14 163,-461.25 103.08,-443.88 38,-459.76 38,-397.38 38,-397.38 38,-397.38 38,-229.62 38,-170.54 50.55,-147.02 97,-110.5 140.83,-76.04 206.12,-67.13 249.6,-65.35"/>
<polygon fill="#63b8ff" stroke="#63b8ff" points="249.53,-68.82 259.43,-65.04 249.33,-61.83 249.53,-68.82"/>
</g>
<!-- Node9 -->
<g id="node9" class="node">
<title>Node9</title>
<g id="a_node9"><a xlink:href="v8config_8h.html" target="_top" xlink:title=" ">
<polygon fill="white" stroke="#666666" points="998.75,-19.25 939.25,-19.25 939.25,0 998.75,0 998.75,-19.25"/>
<text text-anchor="middle" x="969" y="-5.75" font-family="Helvetica,sans-Serif" font-size="10.00">v8config.h</text>
</a>
</g>
</g>
<!-- Node1&#45;&gt;Node9 -->
<g id="edge65" class="edge">
<title>Node1&#45;&gt;Node9</title>
<path fill="none" stroke="#63b8ff" d="M755.94,-509.84C872.25,-505.38 1166.71,-491.38 1260,-461.25 1313.07,-444.11 1368,-453.14 1368,-397.38 1368,-397.38 1368,-397.38 1368,-119.12 1368,-45.44 1111.38,-20.16 1009.75,-13.04"/>
<polygon fill="#63b8ff" stroke="#63b8ff" points="1010.2,-9.49 999.99,-12.31 1009.73,-16.47 1010.2,-9.49"/>
</g>
<!-- Node10 -->
<g id="node10" class="node">
<title>Node10</title>
<g id="a_node10"><a xlink:href="v8-local-handle_8h.html" target="_top" xlink:title=" ">
<polygon fill="white" stroke="#666666" points="194.38,-129.75 105.62,-129.75 105.62,-110.5 194.38,-110.5 194.38,-129.75"/>
<text text-anchor="middle" x="150" y="-116.25" font-family="Helvetica,sans-Serif" font-size="10.00">v8&#45;local&#45;handle.h</text>
</a>
</g>
</g>
<!-- Node1&#45;&gt;Node10 -->
<g id="edge12" class="edge">
<title>Node1&#45;&gt;Node10</title>
<path fill="none" stroke="#63b8ff" d="M659.98,-507.91C512.49,-496.23 76,-456.68 76,-397.38 76,-397.38 76,-397.38 76,-229.62 76,-191.35 107.82,-156.62 129.73,-137.24"/>
<polygon fill="#63b8ff" stroke="#63b8ff" points="131.74,-139.27 137.11,-130.13 127.22,-133.93 131.74,-139.27"/>
</g>
<!-- Node11 -->
<g id="node11" class="node">
<title>Node11</title>
<g id="a_node11"><a xlink:href="v8-typed-array_8h.html" target="_top" xlink:title=" ">
<polygon fill="white" stroke="#666666" points="750.12,-461.25 665.88,-461.25 665.88,-442 750.12,-442 750.12,-461.25"/>
<text text-anchor="middle" x="708" y="-447.75" font-family="Helvetica,sans-Serif" font-size="10.00">v8&#45;typed&#45;array.h</text>
</a>
</g>
</g>
<!-- Node1&#45;&gt;Node11 -->
<g id="edge16" class="edge">
<title>Node1&#45;&gt;Node11</title>
<path fill="none" stroke="#63b8ff" d="M708,-496.95C708,-489.62 708,-480.62 708,-472.66"/>
<polygon fill="#63b8ff" stroke="#63b8ff" points="711.5,-472.7 708,-462.7 704.5,-472.7 711.5,-472.7"/>
</g>
<!-- Node21 -->
<g id="node21" class="node">
<title>Node21</title>
<g id="a_node21"><a xlink:href="v8-value_8h.html" target="_top" xlink:title=" ">
<polygon fill="white" stroke="#666666" points="465.12,-240.25 404.88,-240.25 404.88,-221 465.12,-221 465.12,-240.25"/>
<text text-anchor="middle" x="435" y="-226.75" font-family="Helvetica,sans-Serif" font-size="10.00">v8&#45;value.h</text>
</a>
</g>
</g>
<!-- Node1&#45;&gt;Node21 -->
<g id="edge64" class="edge">
<title>Node1&#45;&gt;Node21</title>
<path fill="none" stroke="#63b8ff" d="M693.18,-497.08C682.95,-487.09 669.07,-473.44 657,-461.25 578.64,-382.14 486.61,-285.85 450.58,-248.01"/>
<polygon fill="#63b8ff" stroke="#63b8ff" points="453.82,-246.29 444.39,-241.46 448.75,-251.12 453.82,-246.29"/>
</g>
<!-- Node6&#45;&gt;Node2 -->
<g id="edge6" class="edge">
<title>Node6&#45;&gt;Node2</title>
<path fill="none" stroke="#63b8ff" d="M270.4,-54.84C246.86,-46.2 211.13,-33.07 184.7,-23.37"/>
<polygon fill="#63b8ff" stroke="#63b8ff" points="186.31,-19.86 175.72,-19.7 183.9,-26.44 186.31,-19.86"/>
</g>
<!-- Node6&#45;&gt;Node3 -->
<g id="edge7" class="edge">
<title>Node6&#45;&gt;Node3</title>
<path fill="none" stroke="#63b8ff" d="M329.62,-57.45C384.85,-47.2 492.29,-27.27 547.47,-17.03"/>
<polygon fill="#63b8ff" stroke="#63b8ff" points="547.9,-20.33 557.1,-15.06 546.63,-13.44 547.9,-20.33"/>
</g>
<!-- Node6&#45;&gt;Node5 -->
<g id="edge9" class="edge">
<title>Node6&#45;&gt;Node5</title>
<path fill="none" stroke="#63b8ff" d="M309.08,-54.84C321.6,-46.81 340.15,-34.91 354.85,-25.48"/>
<polygon fill="#63b8ff" stroke="#63b8ff" points="356.32,-28.05 362.85,-19.7 352.54,-22.16 356.32,-28.05"/>
</g>
<!-- Node7 -->
<g id="node7" class="node">
<title>Node7</title>
<g id="a_node7"><a xlink:title=" ">
<polygon fill="#e0e0e0" stroke="#999999" points="242.75,-19.25 195.25,-19.25 195.25,0 242.75,0 242.75,-19.25"/>
<text text-anchor="middle" x="219" y="-5.75" font-family="Helvetica,sans-Serif" font-size="10.00">string.h</text>
</a>
</g>
</g>
<!-- Node6&#45;&gt;Node7 -->
<g id="edge8" class="edge">
<title>Node6&#45;&gt;Node7</title>
<path fill="none" stroke="#63b8ff" d="M282.11,-54.84C270.75,-46.89 253.98,-35.14 240.59,-25.75"/>
<polygon fill="#63b8ff" stroke="#63b8ff" points="243.15,-22.57 232.96,-19.7 239.14,-28.31 243.15,-22.57"/>
</g>
<!-- Node8 -->
<g id="node8" class="node">
<title>Node8</title>
<g id="a_node8"><a xlink:href="v8-version_8h.html" target="_top" xlink:title=" ">
<polygon fill="white" stroke="#666666" points="329.25,-19.25 260.75,-19.25 260.75,0 329.25,0 329.25,-19.25"/>
<text text-anchor="middle" x="295" y="-5.75" font-family="Helvetica,sans-Serif" font-size="10.00">v8&#45;version.h</text>
</a>
</g>
</g>
<!-- Node6&#45;&gt;Node8 -->
<g id="edge10" class="edge">
<title>Node6&#45;&gt;Node8</title>
<path fill="none" stroke="#63b8ff" d="M295,-55.08C295,-48.42 295,-38.99 295,-30.53"/>
<polygon fill="#63b8ff" stroke="#63b8ff" points="298.5,-30.61 295,-20.61 291.5,-30.61 298.5,-30.61"/>
</g>
<!-- Node6&#45;&gt;Node9 -->
<g id="edge11" class="edge">
<title>Node6&#45;&gt;Node9</title>
<path fill="none" stroke="#63b8ff" d="M329.35,-61.16C442.9,-52.19 805.89,-23.51 928.27,-13.84"/>
<polygon fill="#63b8ff" stroke="#63b8ff" points="928.32,-17.27 938.01,-12.99 927.77,-10.29 928.32,-17.27"/>
</g>
<!-- Node10&#45;&gt;Node2 -->
<g id="edge13" class="edge">
<title>Node10&#45;&gt;Node2</title>
<path fill="none" stroke="#63b8ff" d="M150,-110.25C150,-92.92 150,-54.23 150,-30.49"/>
<polygon fill="#63b8ff" stroke="#63b8ff" points="153.5,-30.63 150,-20.63 146.5,-30.63 153.5,-30.63"/>
</g>
<!-- Node10&#45;&gt;Node5 -->
<g id="edge14" class="edge">
<title>Node10&#45;&gt;Node5</title>
<path fill="none" stroke="#63b8ff" d="M162.37,-110.13C181.06,-96.82 217.95,-71.7 252,-55.25 279.43,-42 311.85,-30.61 336.94,-22.65"/>
<polygon fill="#63b8ff" stroke="#63b8ff" points="337.7,-25.77 346.2,-19.46 335.62,-19.09 337.7,-25.77"/>
</g>
<!-- Node10&#45;&gt;Node6 -->
<g id="edge15" class="edge">
<title>Node10&#45;&gt;Node6</title>
<path fill="none" stroke="#63b8ff" d="M174.6,-110.09C198.14,-101.45 233.87,-88.32 260.3,-78.62"/>
<polygon fill="#63b8ff" stroke="#63b8ff" points="261.1,-81.69 269.28,-74.95 258.69,-75.11 261.1,-81.69"/>
</g>
<!-- Node11&#45;&gt;Node9 -->
<g id="edge63" class="edge">
<title>Node11&#45;&gt;Node9</title>
<path fill="none" stroke="#63b8ff" d="M750.26,-447.74C890.26,-437.61 1330,-401.11 1330,-342.12 1330,-342.12 1330,-342.12 1330,-119.12 1330,-52.94 1104.62,-23.61 1010.02,-14.21"/>
<polygon fill="#63b8ff" stroke="#63b8ff" points="1010.45,-10.64 1000.16,-13.16 1009.78,-17.61 1010.45,-10.64"/>
</g>
<!-- Node11&#45;&gt;Node10 -->
<g id="edge62" class="edge">
<title>Node11&#45;&gt;Node10</title>
<path fill="none" stroke="#63b8ff" d="M665.51,-448.94C551.41,-443.47 242.47,-422.24 176,-350.75 121.32,-291.93 136.25,-184.7 145.37,-140.73"/>
<polygon fill="#63b8ff" stroke="#63b8ff" points="148.98,-141.62 147.72,-131.1 142.14,-140.1 148.98,-141.62"/>
</g>
<!-- Node12 -->
<g id="node12" class="node">
<title>Node12</title>
<g id="a_node12"><a xlink:href="v8-array-buffer_8h.html" target="_top" xlink:title=" ">
<polygon fill="white" stroke="#666666" points="750.5,-406 665.5,-406 665.5,-386.75 750.5,-386.75 750.5,-406"/>
<text text-anchor="middle" x="708" y="-392.5" font-family="Helvetica,sans-Serif" font-size="10.00">v8&#45;array&#45;buffer.h</text>
</a>
</g>
</g>
<!-- Node11&#45;&gt;Node12 -->
<g id="edge17" class="edge">
<title>Node11&#45;&gt;Node12</title>
<path fill="none" stroke="#63b8ff" d="M708,-441.83C708,-435.17 708,-425.74 708,-417.28"/>
<polygon fill="#63b8ff" stroke="#63b8ff" points="711.5,-417.36 708,-407.36 704.5,-417.36 711.5,-417.36"/>
</g>
<!-- Node12&#45;&gt;Node2 -->
<g id="edge18" class="edge">
<title>Node12&#45;&gt;Node2</title>
<path fill="none" stroke="#63b8ff" d="M665.24,-395.76C592.14,-395.28 439.19,-389.22 317,-350.75 267.82,-335.27 253.62,-329.66 215,-295.5 147.27,-235.58 124.53,-215.89 97,-129.75 84.95,-92.06 114.07,-50.3 133.75,-27.6"/>
<polygon fill="#63b8ff" stroke="#63b8ff" points="135.85,-30.39 139.97,-20.62 130.66,-25.69 135.85,-30.39"/>
</g>
<!-- Node12&#45;&gt;Node9 -->
<g id="edge61" class="edge">
<title>Node12&#45;&gt;Node9</title>
<path fill="none" stroke="#63b8ff" d="M750.79,-394.36C836.56,-390.64 1033.41,-373.54 1175,-295.5 1205.07,-278.93 1215.75,-271.93 1229,-240.25 1260.96,-163.81 1270.76,-106.93 1206,-55.25 1176.26,-31.51 1069.25,-18.99 1009.71,-13.72"/>
<polygon fill="#63b8ff" stroke="#63b8ff" points="1010.08,-10.15 999.82,-12.79 1009.49,-17.13 1010.08,-10.15"/>
</g>
<!-- Node12&#45;&gt;Node10 -->
<g id="edge20" class="edge">
<title>Node12&#45;&gt;Node10</title>
<path fill="none" stroke="#63b8ff" d="M665.36,-391.17C562.14,-380.24 302.41,-348.1 235,-295.5 208.6,-274.9 171.93,-181.1 156.87,-140.24"/>
<polygon fill="#63b8ff" stroke="#63b8ff" points="159.86,-139.22 153.15,-131.02 153.28,-141.61 159.86,-139.22"/>
</g>
<!-- Node13 -->
<g id="node13" class="node">
<title>Node13</title>
<g id="a_node13"><a xlink:title=" ">
<polygon fill="#e0e0e0" stroke="#999999" points="900.25,-129.75 849.75,-129.75 849.75,-110.5 900.25,-110.5 900.25,-129.75"/>
<text text-anchor="middle" x="875" y="-116.25" font-family="Helvetica,sans-Serif" font-size="10.00">memory</text>
</a>
</g>
</g>
<!-- Node12&#45;&gt;Node13 -->
<g id="edge19" class="edge">
<title>Node12&#45;&gt;Node13</title>
<path fill="none" stroke="#63b8ff" d="M750.67,-389.09C804.46,-378.47 890,-351.43 890,-286.88 890,-286.88 890,-286.88 890,-229.62 890,-198.32 883.8,-162.42 879.37,-140.77"/>
<polygon fill="#63b8ff" stroke="#63b8ff" points="882.6,-140.12 877.09,-131.07 875.75,-141.58 882.6,-140.12"/>
</g>
<!-- Node14 -->
<g id="node14" class="node">
<title>Node14</title>
<g id="a_node14"><a xlink:href="v8-object_8h.html" target="_top" xlink:title=" ">
<polygon fill="white" stroke="#666666" points="739.62,-350.75 676.38,-350.75 676.38,-331.5 739.62,-331.5 739.62,-350.75"/>
<text text-anchor="middle" x="708" y="-337.25" font-family="Helvetica,sans-Serif" font-size="10.00">v8&#45;object.h</text>
</a>
</g>
</g>
<!-- Node12&#45;&gt;Node14 -->
<g id="edge21" class="edge">
<title>Node12&#45;&gt;Node14</title>
<path fill="none" stroke="#63b8ff" d="M708,-386.58C708,-379.92 708,-370.49 708,-362.03"/>
<polygon fill="#63b8ff" stroke="#63b8ff" points="711.5,-362.11 708,-352.11 704.5,-362.11 711.5,-362.11"/>
</g>
<!-- Node14&#45;&gt;Node9 -->
<g id="edge60" class="edge">
<title>Node14&#45;&gt;Node9</title>
<path fill="none" stroke="#63b8ff" d="M739.78,-340.15C850.99,-339.4 1216,-329.47 1216,-231.62 1216,-231.62 1216,-231.62 1216,-119.12 1216,-29.99 1079.49,-13.42 1009.43,-10.78"/>
<polygon fill="#63b8ff" stroke="#63b8ff" points="1009.89,-7.27 999.79,-10.47 1009.69,-14.26 1009.89,-7.27"/>
</g>
<!-- Node14&#45;&gt;Node10 -->
<g id="edge22" class="edge">
<title>Node14&#45;&gt;Node10</title>
<path fill="none" stroke="#63b8ff" d="M676,-338.83C578.78,-334.65 291.47,-320.3 258,-295.5 207.81,-258.32 241.17,-215.95 204,-165.75 195.6,-154.41 183.73,-144.18 173.25,-136.39"/>
<polygon fill="#63b8ff" stroke="#63b8ff" points="175.71,-133.13 165.52,-130.2 171.66,-138.84 175.71,-133.13"/>
</g>
<!-- Node15 -->
<g id="node15" class="node">
<title>Node15</title>
<g id="a_node15"><a xlink:href="v8-maybe_8h.html" target="_top" xlink:title=" ">
<polygon fill="white" stroke="#666666" points="547.75,-185 482.25,-185 482.25,-165.75 547.75,-165.75 547.75,-185"/>
<text text-anchor="middle" x="515" y="-171.5" font-family="Helvetica,sans-Serif" font-size="10.00">v8&#45;maybe.h</text>
</a>
</g>
</g>
<!-- Node14&#45;&gt;Node15 -->
<g id="edge23" class="edge">
<title>Node14&#45;&gt;Node15</title>
<path fill="none" stroke="#63b8ff" d="M697.35,-331.09C665.97,-304.47 573.59,-226.08 533.7,-192.24"/>
<polygon fill="#63b8ff" stroke="#63b8ff" points="536.27,-188.99 526.38,-185.18 531.74,-194.32 536.27,-188.99"/>
</g>
<!-- Node17 -->
<g id="node17" class="node">
<title>Node17</title>
<g id="a_node17"><a xlink:href="v8-persistent-handle_8h.html" target="_top" xlink:title=" ">
<polygon fill="white" stroke="#666666" points="1029.62,-185 918.38,-185 918.38,-165.75 1029.62,-165.75 1029.62,-185"/>
<text text-anchor="middle" x="974" y="-171.5" font-family="Helvetica,sans-Serif" font-size="10.00">v8&#45;persistent&#45;handle.h</text>
</a>
</g>
</g>
<!-- Node14&#45;&gt;Node17 -->
<g id="edge28" class="edge">
<title>Node14&#45;&gt;Node17</title>
<path fill="none" stroke="#63b8ff" d="M722.68,-331.09C766.46,-304.14 896.41,-224.14 950.24,-191"/>
<polygon fill="#63b8ff" stroke="#63b8ff" points="951.68,-193.61 958.37,-185.38 948.01,-187.65 951.68,-193.61"/>
</g>
<!-- Node19 -->
<g id="node19" class="node">
<title>Node19</title>
<g id="a_node19"><a xlink:href="v8-primitive_8h.html" target="_top" xlink:title=" ">
<polygon fill="white" stroke="#666666" points="340.88,-295.5 267.12,-295.5 267.12,-276.25 340.88,-276.25 340.88,-295.5"/>
<text text-anchor="middle" x="304" y="-282" font-family="Helvetica,sans-Serif" font-size="10.00">v8&#45;primitive.h</text>
</a>
</g>
</g>
<!-- Node14&#45;&gt;Node19 -->
<g id="edge34" class="edge">
<title>Node14&#45;&gt;Node19</title>
<path fill="none" stroke="#63b8ff" d="M675.96,-335.9C605.23,-326.58 435.41,-304.2 351.95,-293.2"/>
<polygon fill="#63b8ff" stroke="#63b8ff" points="352.62,-289.62 342.25,-291.78 351.7,-296.56 352.62,-289.62"/>
</g>
<!-- Node14&#45;&gt;Node21 -->
<g id="edge59" class="edge">
<title>Node14&#45;&gt;Node21</title>
<path fill="none" stroke="#63b8ff" d="M685.19,-331.06C636.92,-311.87 524.23,-267.09 468.06,-244.76"/>
<polygon fill="#63b8ff" stroke="#63b8ff" points="469.52,-241.18 458.93,-240.74 466.93,-247.69 469.52,-241.18"/>
</g>
<!-- Node22 -->
<g id="node22" class="node">
<title>Node22</title>
<g id="a_node22"><a xlink:href="v8-traced-handle_8h.html" target="_top" xlink:title=" ">
<polygon fill="white" stroke="#666666" points="692.75,-185 597.25,-185 597.25,-165.75 692.75,-165.75 692.75,-185"/>
<text text-anchor="middle" x="645" y="-171.5" font-family="Helvetica,sans-Serif" font-size="10.00">v8&#45;traced&#45;handle.h</text>
</a>
</g>
</g>
<!-- Node14&#45;&gt;Node22 -->
<g id="edge47" class="edge">
<title>Node14&#45;&gt;Node22</title>
<path fill="none" stroke="#63b8ff" d="M712.55,-331.01C722.35,-310.02 742.9,-257.27 722,-221 713.79,-206.75 699.1,-196.64 684.73,-189.68"/>
<polygon fill="#63b8ff" stroke="#63b8ff" points="686.48,-186.19 675.92,-185.36 683.66,-192.59 686.48,-186.19"/>
</g>
<!-- Node15&#45;&gt;Node5 -->
<g id="edge24" class="edge">
<title>Node15&#45;&gt;Node5</title>
<path fill="none" stroke="#63b8ff" d="M482.03,-167.4C437.5,-157.65 362.78,-140 355,-129.75 332.27,-99.82 352.4,-53.75 366.68,-28.57"/>
<polygon fill="#63b8ff" stroke="#63b8ff" points="370.01,-30.83 372.13,-20.45 363.99,-27.24 370.01,-30.83"/>
</g>
<!-- Node15&#45;&gt;Node6 -->
<g id="edge26" class="edge">
<title>Node15&#45;&gt;Node6</title>
<path fill="none" stroke="#63b8ff" d="M481.84,-167.52C428.3,-156.35 328.15,-134.92 322,-129.75 308.75,-118.61 301.87,-99.84 298.38,-85.52"/>
<polygon fill="#63b8ff" stroke="#63b8ff" points="301.62,-84.9 296.18,-75.81 294.76,-86.31 301.62,-84.9"/>
</g>
<!-- Node15&#45;&gt;Node9 -->
<g id="edge27" class="edge">
<title>Node15&#45;&gt;Node9</title>
<path fill="none" stroke="#63b8ff" d="M530.23,-165.38C553.21,-152.07 598.37,-126.95 639,-110.5 740.49,-69.4 865.42,-36.04 928.49,-20.35"/>
<polygon fill="#63b8ff" stroke="#63b8ff" points="928.92,-23.6 937.79,-17.8 927.25,-16.8 928.92,-23.6"/>
</g>
<!-- Node16 -->
<g id="node16" class="node">
<title>Node16</title>
<g id="a_node16"><a xlink:title=" ">
<polygon fill="#e0e0e0" stroke="#999999" points="402.25,-129.75 363.75,-129.75 363.75,-110.5 402.25,-110.5 402.25,-129.75"/>
<text text-anchor="middle" x="383" y="-116.25" font-family="Helvetica,sans-Serif" font-size="10.00">utility</text>
</a>
</g>
</g>
<!-- Node15&#45;&gt;Node16 -->
<g id="edge25" class="edge">
<title>Node15&#45;&gt;Node16</title>
<path fill="none" stroke="#63b8ff" d="M492.61,-165.34C470.57,-156.45 436.78,-142.82 412.55,-133.04"/>
<polygon fill="#63b8ff" stroke="#63b8ff" points="414.07,-129.48 403.49,-128.99 411.45,-135.97 414.07,-129.48"/>
</g>
<!-- Node17&#45;&gt;Node6 -->
<g id="edge29" class="edge">
<title>Node17&#45;&gt;Node6</title>
<path fill="none" stroke="#63b8ff" d="M968.09,-165.38C957.98,-150.85 935.81,-122.62 909,-110.5 857.61,-87.27 473.59,-72.01 340.36,-67.37"/>
<polygon fill="#63b8ff" stroke="#63b8ff" points="340.84,-63.85 330.73,-67 340.6,-70.85 340.84,-63.85"/>
</g>
<!-- Node17&#45;&gt;Node9 -->
<g id="edge33" class="edge">
<title>Node17&#45;&gt;Node9</title>
<path fill="none" stroke="#63b8ff" d="M1030.03,-172.92C1062.18,-168.84 1100.19,-157.82 1121,-129.75 1157.21,-80.92 1065.88,-41.5 1009.51,-22.66"/>
<polygon fill="#63b8ff" stroke="#63b8ff" points="1010.68,-19.03 1000.09,-19.27 1008.52,-25.69 1010.68,-19.03"/>
</g>
<!-- Node17&#45;&gt;Node10 -->
<g id="edge30" class="edge">
<title>Node17&#45;&gt;Node10</title>
<path fill="none" stroke="#63b8ff" d="M918.01,-170.76C767.47,-161.03 355.29,-134.39 205.42,-124.71"/>
<polygon fill="#63b8ff" stroke="#63b8ff" points="205.87,-121.16 195.66,-124.01 205.42,-128.15 205.87,-121.16"/>
</g>
<!-- Node18 -->
<g id="node18" class="node">
<title>Node18</title>
<g id="a_node18"><a xlink:href="v8-weak-callback-info_8h.html" target="_top" xlink:title=" ">
<polygon fill="white" stroke="#666666" points="1112,-129.75 994,-129.75 994,-110.5 1112,-110.5 1112,-129.75"/>
<text text-anchor="middle" x="1053" y="-116.25" font-family="Helvetica,sans-Serif" font-size="10.00">v8&#45;weak&#45;callback&#45;info.h</text>
</a>
</g>
</g>
<!-- Node17&#45;&gt;Node18 -->
<g id="edge31" class="edge">
<title>Node17&#45;&gt;Node18</title>
<path fill="none" stroke="#63b8ff" d="M987.4,-165.34C999.2,-157.39 1016.64,-145.64 1030.56,-136.25"/>
<polygon fill="#63b8ff" stroke="#63b8ff" points="1032.2,-138.69 1038.53,-130.2 1028.28,-132.89 1032.2,-138.69"/>
</g>
<!-- Node18&#45;&gt;Node9 -->
<g id="edge32" class="edge">
<title>Node18&#45;&gt;Node9</title>
<path fill="none" stroke="#63b8ff" d="M1046.13,-110.25C1032.28,-92.36 1000.82,-51.72 982.64,-28.25"/>
<polygon fill="#63b8ff" stroke="#63b8ff" points="984.86,-26.39 975.97,-20.63 979.32,-30.68 984.86,-26.39"/>
</g>
<!-- Node19&#45;&gt;Node6 -->
<g id="edge38" class="edge">
<title>Node19&#45;&gt;Node6</title>
<path fill="none" stroke="#63b8ff" d="M302.4,-275.81C298.03,-250 286.46,-173.88 290,-110.5 290.46,-102.33 291.38,-93.35 292.31,-85.61"/>
<polygon fill="#63b8ff" stroke="#63b8ff" points="295.9,-86.11 293.71,-75.74 288.96,-85.21 295.9,-86.11"/>
</g>
<!-- Node19&#45;&gt;Node9 -->
<g id="edge46" class="edge">
<title>Node19&#45;&gt;Node9</title>
<path fill="none" stroke="#63b8ff" d="M341.2,-279.67C458.93,-262.55 820.84,-204.76 909,-129.75 940.2,-103.2 956.93,-56.46 964.29,-30.11"/>
<polygon fill="#63b8ff" stroke="#63b8ff" points="967.9,-31.14 967.03,-20.58 961.13,-29.38 967.9,-31.14"/>
</g>
<!-- Node19&#45;&gt;Node10 -->
<g id="edge39" class="edge">
<title>Node19&#45;&gt;Node10</title>
<path fill="none" stroke="#63b8ff" d="M301.49,-275.91C295.04,-254.32 275.94,-198.74 242,-165.75 227.42,-151.58 207.48,-141.16 189.88,-133.96"/>
<polygon fill="#63b8ff" stroke="#63b8ff" points="191.44,-130.43 180.85,-130.1 188.92,-136.96 191.44,-130.43"/>
</g>
<!-- Node20 -->
<g id="node20" class="node">
<title>Node20</title>
<g id="a_node20"><a xlink:href="v8-data_8h.html" target="_top" xlink:title=" ">
<polygon fill="white" stroke="#666666" points="387.88,-185 332.12,-185 332.12,-165.75 387.88,-165.75 387.88,-185"/>
<text text-anchor="middle" x="360" y="-171.5" font-family="Helvetica,sans-Serif" font-size="10.00">v8&#45;data.h</text>
</a>
</g>
</g>
<!-- Node19&#45;&gt;Node20 -->
<g id="edge35" class="edge">
<title>Node19&#45;&gt;Node20</title>
<path fill="none" stroke="#63b8ff" d="M308.58,-276C317.69,-258.35 338.23,-218.55 350.42,-194.95"/>
<polygon fill="#63b8ff" stroke="#63b8ff" points="353.88,-196.87 355.35,-186.38 347.66,-193.66 353.88,-196.87"/>
</g>
<!-- Node19&#45;&gt;Node21 -->
<g id="edge40" class="edge">
<title>Node19&#45;&gt;Node21</title>
<path fill="none" stroke="#63b8ff" d="M326.22,-275.84C347.21,-267.31 378.92,-254.42 402.69,-244.76"/>
<polygon fill="#63b8ff" stroke="#63b8ff" points="403.72,-247.71 411.67,-240.7 401.09,-241.23 403.72,-247.71"/>
</g>
<!-- Node20&#45;&gt;Node9 -->
<g id="edge37" class="edge">
<title>Node20&#45;&gt;Node9</title>
<path fill="none" stroke="#63b8ff" d="M384.79,-165.4C444.55,-144.01 601.58,-89.29 736,-55.25 802.72,-38.35 881.61,-24.5 928.36,-16.92"/>
<polygon fill="#63b8ff" stroke="#63b8ff" points="928.64,-20.26 937.96,-15.22 927.53,-13.35 928.64,-20.26"/>
</g>
<!-- Node20&#45;&gt;Node10 -->
<g id="edge36" class="edge">
<title>Node20&#45;&gt;Node10</title>
<path fill="none" stroke="#63b8ff" d="M331.68,-167.19C297.04,-158.41 237.94,-143.42 196.58,-132.94"/>
<polygon fill="#63b8ff" stroke="#63b8ff" points="197.5,-129.3 186.94,-130.24 195.77,-136.09 197.5,-129.3"/>
</g>
<!-- Node21&#45;&gt;Node6 -->
<g id="edge42" class="edge">
<title>Node21&#45;&gt;Node6</title>
<path fill="none" stroke="#63b8ff" d="M435.35,-220.94C435.4,-207.34 433.46,-181.03 419,-165.75 381.9,-126.54 337.66,-171.13 303,-129.75 292.9,-117.69 291.49,-99.58 292.26,-85.72"/>
<polygon fill="#63b8ff" stroke="#63b8ff" points="295.83,-86.19 293.35,-75.89 288.87,-85.49 295.83,-86.19"/>
</g>
<!-- Node21&#45;&gt;Node9 -->
<g id="edge45" class="edge">
<title>Node21&#45;&gt;Node9</title>
<path fill="none" stroke="#63b8ff" d="M465.61,-228.31C516.28,-225.31 620.13,-215.64 702,-185 755.32,-165.05 895.28,-64.62 948.27,-25.89"/>
<polygon fill="#63b8ff" stroke="#63b8ff" points="949.84,-28.35 955.83,-19.61 945.7,-22.7 949.84,-28.35"/>
</g>
<!-- Node21&#45;&gt;Node10 -->
<g id="edge43" class="edge">
<title>Node21&#45;&gt;Node10</title>
<path fill="none" stroke="#63b8ff" d="M432.3,-220.52C427.6,-206.36 416.51,-179.28 397,-165.75 366.66,-144.71 268.27,-131.97 205.21,-125.76"/>
<polygon fill="#63b8ff" stroke="#63b8ff" points="205.93,-122.22 195.64,-124.75 205.26,-129.19 205.93,-122.22"/>
</g>
<!-- Node21&#45;&gt;Node15 -->
<g id="edge44" class="edge">
<title>Node21&#45;&gt;Node15</title>
<path fill="none" stroke="#63b8ff" d="M448.57,-220.59C460.52,-212.64 478.18,-200.89 492.28,-191.5"/>
<polygon fill="#63b8ff" stroke="#63b8ff" points="493.98,-193.91 500.36,-185.45 490.1,-188.08 493.98,-193.91"/>
</g>
<!-- Node21&#45;&gt;Node20 -->
<g id="edge41" class="edge">
<title>Node21&#45;&gt;Node20</title>
<path fill="none" stroke="#63b8ff" d="M422.28,-220.59C411.18,-212.71 394.84,-201.11 381.68,-191.77"/>
<polygon fill="#63b8ff" stroke="#63b8ff" points="383.97,-188.39 373.79,-185.45 379.91,-194.1 383.97,-188.39"/>
</g>
<!-- Node22&#45;&gt;Node2 -->
<g id="edge48" class="edge">
<title>Node22&#45;&gt;Node2</title>
<path fill="none" stroke="#63b8ff" d="M597.07,-168.01C555.56,-161.5 494.43,-149.5 444,-129.75 428.19,-123.56 426.8,-116.72 411,-110.5 343.59,-83.94 318.99,-102.12 252,-74.5 221.62,-61.97 190.07,-40.73 170.26,-26.21"/>
<polygon fill="#63b8ff" stroke="#63b8ff" points="172.63,-22.87 162.53,-19.69 168.44,-28.48 172.63,-22.87"/>
</g>
<!-- Node22&#45;&gt;Node3 -->
<g id="edge49" class="edge">
<title>Node22&#45;&gt;Node3</title>
<path fill="none" stroke="#63b8ff" d="M641.61,-165.57C631.74,-139.92 602.84,-64.8 589.24,-29.44"/>
<polygon fill="#63b8ff" stroke="#63b8ff" points="592.26,-28.55 585.4,-20.47 585.73,-31.06 592.26,-28.55"/>
</g>
<!-- Node22&#45;&gt;Node5 -->
<g id="edge53" class="edge">
<title>Node22&#45;&gt;Node5</title>
<path fill="none" stroke="#63b8ff" d="M630.26,-165.34C586.32,-138.39 455.88,-58.39 401.85,-25.25"/>
<polygon fill="#63b8ff" stroke="#63b8ff" points="404.04,-21.88 393.69,-19.63 400.38,-27.85 404.04,-21.88"/>
</g>
<!-- Node22&#45;&gt;Node6 -->
<g id="edge55" class="edge">
<title>Node22&#45;&gt;Node6</title>
<path fill="none" stroke="#63b8ff" d="M617.08,-165.34C578.31,-152.83 505.93,-129.61 444,-110.5 407.69,-99.29 366.28,-86.92 336.34,-78.06"/>
<polygon fill="#63b8ff" stroke="#63b8ff" points="337.45,-74.44 326.87,-74.96 335.46,-81.15 337.45,-74.44"/>
</g>
<!-- Node22&#45;&gt;Node9 -->
<g id="edge58" class="edge">
<title>Node22&#45;&gt;Node9</title>
<path fill="none" stroke="#63b8ff" d="M677.23,-165.32C702.08,-157.66 736.84,-145.43 765,-129.75 812.19,-103.48 814.29,-82.36 861,-55.25 883.22,-42.36 909.87,-31.3 931.15,-23.42"/>
<polygon fill="#63b8ff" stroke="#63b8ff" points="932.21,-26.4 940.42,-19.7 929.82,-19.81 932.21,-26.4"/>
</g>
<!-- Node22&#45;&gt;Node10 -->
<g id="edge56" class="edge">
<title>Node22&#45;&gt;Node10</title>
<path fill="none" stroke="#63b8ff" d="M597.09,-169.22C504.92,-159.31 303.42,-137.63 205.55,-127.1"/>
<polygon fill="#63b8ff" stroke="#63b8ff" points="206.03,-123.52 195.71,-125.93 205.28,-130.48 206.03,-123.52"/>
</g>
<!-- Node22&#45;&gt;Node13 -->
<g id="edge52" class="edge">
<title>Node22&#45;&gt;Node13</title>
<path fill="none" stroke="#63b8ff" d="M684.28,-165.28C727.62,-155.25 796.79,-139.23 838.85,-129.5"/>
<polygon fill="#63b8ff" stroke="#63b8ff" points="839.48,-132.71 848.43,-127.04 837.9,-125.89 839.48,-132.71"/>
</g>
<!-- Node22&#45;&gt;Node16 -->
<g id="edge54" class="edge">
<title>Node22&#45;&gt;Node16</title>
<path fill="none" stroke="#63b8ff" d="M597.01,-165.93C550.54,-157.55 478.2,-143.92 416,-129.75 415.04,-129.53 414.07,-129.3 413.08,-129.07"/>
<polygon fill="#63b8ff" stroke="#63b8ff" points="414.04,-125.46 403.49,-126.44 412.35,-132.25 414.04,-125.46"/>
</g>
<!-- Node22&#45;&gt;Node18 -->
<g id="edge57" class="edge">
<title>Node22&#45;&gt;Node18</title>
<path fill="none" stroke="#63b8ff" d="M693,-168.11C764.67,-158.76 900.05,-141.09 982.83,-130.28"/>
<polygon fill="#63b8ff" stroke="#63b8ff" points="983.18,-133.64 992.65,-128.87 982.28,-126.7 983.18,-133.64"/>
</g>
<!-- Node23 -->
<g id="node23" class="node">
<title>Node23</title>
<g id="a_node23"><a xlink:title=" ">
<polygon fill="#e0e0e0" stroke="#999999" points="692.25,-129.75 647.75,-129.75 647.75,-110.5 692.25,-110.5 692.25,-129.75"/>
<text text-anchor="middle" x="670" y="-116.25" font-family="Helvetica,sans-Serif" font-size="10.00">stdio.h</text>
</a>
</g>
</g>
<!-- Node22&#45;&gt;Node23 -->
<g id="edge50" class="edge">
<title>Node22&#45;&gt;Node23</title>
<path fill="none" stroke="#63b8ff" d="M649.13,-165.58C652.4,-158.61 657.09,-148.62 661.2,-139.87"/>
<polygon fill="#63b8ff" stroke="#63b8ff" points="664.7,-141.65 665.78,-131.11 658.36,-138.67 664.7,-141.65"/>
</g>
<!-- Node24 -->
<g id="node24" class="node">
<title>Node24</title>
<g id="a_node24"><a xlink:title=" ">
<polygon fill="#e0e0e0" stroke="#999999" points="755.62,-129.75 710.38,-129.75 710.38,-110.5 755.62,-110.5 755.62,-129.75"/>
<text text-anchor="middle" x="733" y="-116.25" font-family="Helvetica,sans-Serif" font-size="10.00">atomic</text>
</a>
</g>
</g>
<!-- Node22&#45;&gt;Node24 -->
<g id="edge51" class="edge">
<title>Node22&#45;&gt;Node24</title>
<path fill="none" stroke="#63b8ff" d="M659.93,-165.34C673.33,-157.23 693.24,-145.18 708.9,-135.71"/>
<polygon fill="#63b8ff" stroke="#63b8ff" points="710.26,-138.37 717,-130.2 706.63,-132.39 710.26,-138.37"/>
</g>
</g>
</svg>
