<?xml version="1.0" encoding="UTF-8" standalone="no"?>
<!DOCTYPE svg PUBLIC "-//W3C//DTD SVG 1.1//EN"
 "http://www.w3.org/Graphics/SVG/1.1/DTD/svg11.dtd">
<!-- Generated by graphviz version 8.0.5 (20230430.1635)
 -->
<!-- Title: include/v8&#45;internal.h Pages: 1 -->
<svg width="3059pt" height="659pt"
 viewBox="0.00 0.00 3059.25 658.50" xmlns="http://www.w3.org/2000/svg" xmlns:xlink="http://www.w3.org/1999/xlink">
<g id="graph0" class="graph" transform="scale(1 1) rotate(0) translate(4 654.5)">
<title>include/v8&#45;internal.h</title>
<!-- Node1 -->
<g id="node1" class="node">
<title>Node1</title>
<g id="a_node1"><a xlink:title=" ">
<polygon fill="#999999" stroke="#666666" points="1384.38,-650.5 1282.12,-650.5 1282.12,-631.25 1384.38,-631.25 1384.38,-650.5"/>
<text text-anchor="middle" x="1333.25" y="-637" font-family="Helvetica,sans-Serif" font-size="10.00">include/v8&#45;internal.h</text>
</a>
</g>
</g>
<!-- Node2 -->
<g id="node2" class="node">
<title>Node2</title>
<g id="a_node2"><a xlink:href="v8-cppgc_8h.html" target="_top" xlink:title=" ">
<polygon fill="white" stroke="#666666" points="279.75,-479.12 182.75,-479.12 182.75,-459.88 279.75,-459.88 279.75,-479.12"/>
<text text-anchor="middle" x="231.25" y="-465.62" font-family="Helvetica,sans-Serif" font-size="10.00">include/v8&#45;cppgc.h</text>
</a>
</g>
</g>
<!-- Node1&#45;&gt;Node2 -->
<g id="edge1" class="edge">
<title>Node1&#45;&gt;Node2</title>
<path fill="none" stroke="#63b8ff" d="M1270.96,-639.18C1046.54,-636.03 288.91,-619.55 219.25,-540 204.25,-522.87 217.38,-493.94 225.68,-479.4"/>
<polygon fill="#63b8ff" stroke="#63b8ff" points="1270.82,-642.69 1280.87,-639.33 1270.91,-635.69 1270.82,-642.69"/>
</g>
<!-- Node3 -->
<g id="node3" class="node">
<title>Node3</title>
<g id="a_node3"><a xlink:href="v8-embedder-state-scope_8h.html" target="_top" xlink:title=" ">
<polygon fill="white" stroke="#666666" points="356.25,-418.25 250.25,-418.25 250.25,-387.75 356.25,-387.75 356.25,-418.25"/>
<text text-anchor="start" x="258.25" y="-404.75" font-family="Helvetica,sans-Serif" font-size="10.00">include/v8&#45;embedder</text>
<text text-anchor="middle" x="303.25" y="-393.5" font-family="Helvetica,sans-Serif" font-size="10.00">&#45;state&#45;scope.h</text>
</a>
</g>
</g>
<!-- Node1&#45;&gt;Node3 -->
<g id="edge2" class="edge">
<title>Node1&#45;&gt;Node3</title>
<path fill="none" stroke="#63b8ff" d="M1270.89,-638.7C1063.99,-634.58 408.12,-619.71 316.25,-595.25 230,-572.28 122.78,-527.87 173.25,-454.25 190.49,-429.1 222.25,-416.54 250.06,-410.26"/>
<polygon fill="#63b8ff" stroke="#63b8ff" points="1270.78,-642.22 1280.85,-638.91 1270.92,-635.22 1270.78,-642.22"/>
</g>
<!-- Node5 -->
<g id="node5" class="node">
<title>Node5</title>
<g id="a_node5"><a xlink:href="v8-isolate_8h.html" target="_top" xlink:title=" ">
<polygon fill="white" stroke="#666666" points="757.88,-157.88 658.62,-157.88 658.62,-138.62 757.88,-138.62 757.88,-157.88"/>
<text text-anchor="middle" x="708.25" y="-144.38" font-family="Helvetica,sans-Serif" font-size="10.00">include/v8&#45;isolate.h</text>
</a>
</g>
</g>
<!-- Node1&#45;&gt;Node5 -->
<g id="edge13" class="edge">
<title>Node1&#45;&gt;Node5</title>
<path fill="none" stroke="#63b8ff" d="M1270.99,-639.18C1055.76,-636.53 351.08,-625.58 254.25,-595.25 210.54,-581.56 192.81,-578.01 167.25,-540 48.9,-364.01 495.63,-202.09 501.25,-199.5 552.12,-176.02 615.28,-162.73 658.36,-155.8"/>
<polygon fill="#63b8ff" stroke="#63b8ff" points="1270.72,-642.69 1280.76,-639.31 1270.81,-635.69 1270.72,-642.69"/>
</g>
<!-- Node6 -->
<g id="node6" class="node">
<title>Node6</title>
<g id="a_node6"><a xlink:href="v8-initialization_8h.html" target="_top" xlink:title=" ">
<polygon fill="white" stroke="#666666" points="728.75,-91.38 607.75,-91.38 607.75,-72.12 728.75,-72.12 728.75,-91.38"/>
<text text-anchor="middle" x="668.25" y="-77.88" font-family="Helvetica,sans-Serif" font-size="10.00">include/v8&#45;initialization.h</text>
</a>
</g>
</g>
<!-- Node1&#45;&gt;Node6 -->
<g id="edge12" class="edge">
<title>Node1&#45;&gt;Node6</title>
<path fill="none" stroke="#63b8ff" d="M1270.78,-640.36C1047.25,-641.71 295.38,-642.63 199.25,-595.25 170.59,-581.12 166.51,-569.07 153.25,-540 86.29,-393.19 151.1,-297.56 279.25,-199.5 377.95,-123.98 525.13,-97.11 607.25,-87.69"/>
<polygon fill="#63b8ff" stroke="#63b8ff" points="1270.66,-643.86 1280.64,-640.29 1270.62,-636.86 1270.66,-643.86"/>
</g>
<!-- Node7 -->
<g id="node7" class="node">
<title>Node7</title>
<g id="a_node7"><a xlink:href="v8_8h.html" target="_top" xlink:title=" ">
<polygon fill="white" stroke="#666666" points="1784.12,-24.88 1716.38,-24.88 1716.38,-5.63 1784.12,-5.63 1784.12,-24.88"/>
<text text-anchor="middle" x="1750.25" y="-11.38" font-family="Helvetica,sans-Serif" font-size="10.00">include/v8.h</text>
</a>
</g>
</g>
<!-- Node1&#45;&gt;Node7 -->
<g id="edge150" class="edge">
<title>Node1&#45;&gt;Node7</title>
<path fill="none" stroke="#63b8ff" d="M1395.44,-640.24C1642.76,-641.37 2556.98,-642.19 2842.25,-595.25 2938.09,-579.48 3051.25,-628.51 3051.25,-531.38 3051.25,-531.38 3051.25,-531.38 3051.25,-147.25 3051.25,-103.32 3032.84,-87.49 2994.25,-66.5 2939.66,-36.8 1979.02,-19.91 1784.45,-16.78"/>
<polygon fill="#63b8ff" stroke="#63b8ff" points="1395.53,-636.74 1385.51,-640.19 1395.5,-643.74 1395.53,-636.74"/>
</g>
<!-- Node10 -->
<g id="node10" class="node">
<title>Node10</title>
<g id="a_node10"><a xlink:href="v8-fast-api-calls_8h.html" target="_top" xlink:title=" ">
<polygon fill="white" stroke="#666666" points="2851,-163.5 2755.5,-163.5 2755.5,-133 2851,-133 2851,-163.5"/>
<text text-anchor="start" x="2763.5" y="-150" font-family="Helvetica,sans-Serif" font-size="10.00">include/v8&#45;fast&#45;api</text>
<text text-anchor="middle" x="2803.25" y="-138.75" font-family="Helvetica,sans-Serif" font-size="10.00">&#45;calls.h</text>
</a>
</g>
</g>
<!-- Node1&#45;&gt;Node10 -->
<g id="edge11" class="edge">
<title>Node1&#45;&gt;Node10</title>
<path fill="none" stroke="#63b8ff" d="M1395.43,-639.46C1655.53,-637.52 2649.04,-628 2785.25,-595.25 2887.41,-570.69 2942.5,-576.19 2994.25,-484.75 3064.56,-360.51 2885.65,-210.75 2823.56,-163.95"/>
<polygon fill="#63b8ff" stroke="#63b8ff" points="1395.66,-635.96 1385.69,-639.54 1395.71,-642.96 1395.66,-635.96"/>
</g>
<!-- Node11 -->
<g id="node11" class="node">
<title>Node11</title>
<g id="a_node11"><a xlink:href="v8-local-handle_8h.html" target="_top" xlink:title=" ">
<polygon fill="white" stroke="#666666" points="1660.5,-595.25 1538,-595.25 1538,-576 1660.5,-576 1660.5,-595.25"/>
<text text-anchor="middle" x="1599.25" y="-581.75" font-family="Helvetica,sans-Serif" font-size="10.00">include/v8&#45;local&#45;handle.h</text>
</a>
</g>
</g>
<!-- Node1&#45;&gt;Node11 -->
<g id="edge14" class="edge">
<title>Node1&#45;&gt;Node11</title>
<path fill="none" stroke="#63b8ff" d="M1389.41,-628.63C1438.4,-618.83 1508.56,-604.78 1554.01,-595.68"/>
<polygon fill="#63b8ff" stroke="#63b8ff" points="1388.79,-625.39 1379.67,-630.78 1390.17,-632.25 1388.79,-625.39"/>
</g>
<!-- Node19 -->
<g id="node19" class="node">
<title>Node19</title>
<g id="a_node19"><a xlink:href="v8-primitive_8h.html" target="_top" xlink:title=" ">
<polygon fill="white" stroke="#666666" points="2007,-412.62 1899.5,-412.62 1899.5,-393.38 2007,-393.38 2007,-412.62"/>
<text text-anchor="middle" x="1953.25" y="-399.12" font-family="Helvetica,sans-Serif" font-size="10.00">include/v8&#45;primitive.h</text>
</a>
</g>
</g>
<!-- Node1&#45;&gt;Node19 -->
<g id="edge146" class="edge">
<title>Node1&#45;&gt;Node19</title>
<path fill="none" stroke="#63b8ff" d="M1395.69,-640.17C1649.99,-640.71 2598.24,-636.23 2686.25,-540 2692.02,-533.69 2691.8,-527.26 2686.25,-520.75 2680.68,-514.22 2175.76,-437.56 2007.28,-412.13"/>
<polygon fill="#63b8ff" stroke="#63b8ff" points="1395.83,-636.66 1385.82,-640.14 1395.81,-643.66 1395.83,-636.66"/>
</g>
<!-- Node36 -->
<g id="node36" class="node">
<title>Node36</title>
<g id="a_node36"><a xlink:href="v8-value_8h.html" target="_top" xlink:title=" ">
<polygon fill="white" stroke="#666666" points="2755.25,-479.12 2661.25,-479.12 2661.25,-459.88 2755.25,-459.88 2755.25,-479.12"/>
<text text-anchor="middle" x="2708.25" y="-465.62" font-family="Helvetica,sans-Serif" font-size="10.00">include/v8&#45;value.h</text>
</a>
</g>
</g>
<!-- Node1&#45;&gt;Node36 -->
<g id="edge149" class="edge">
<title>Node1&#45;&gt;Node36</title>
<path fill="none" stroke="#63b8ff" d="M1395.66,-640.25C1659.58,-641.55 2672.66,-643.36 2719.25,-595.25 2750.26,-563.23 2724.55,-502.5 2713.08,-479.57"/>
<polygon fill="#63b8ff" stroke="#63b8ff" points="1395.77,-636.75 1385.75,-640.2 1395.74,-643.75 1395.77,-636.75"/>
</g>
<!-- Node42 -->
<g id="node42" class="node">
<title>Node42</title>
<g id="a_node42"><a xlink:href="v8-metrics_8h.html" target="_top" xlink:title=" ">
<polygon fill="white" stroke="#666666" points="2676.75,-540 2573.75,-540 2573.75,-520.75 2676.75,-520.75 2676.75,-540"/>
<text text-anchor="middle" x="2625.25" y="-526.5" font-family="Helvetica,sans-Serif" font-size="10.00">include/v8&#45;metrics.h</text>
</a>
</g>
</g>
<!-- Node1&#45;&gt;Node42 -->
<g id="edge144" class="edge">
<title>Node1&#45;&gt;Node42</title>
<path fill="none" stroke="#63b8ff" d="M1395.47,-635.79C1575.56,-623.74 2112.75,-586.3 2557.25,-540 2562.46,-539.46 2567.88,-538.85 2573.3,-538.21"/>
<polygon fill="#63b8ff" stroke="#63b8ff" points="1395.38,-632.35 1385.63,-636.51 1395.84,-639.34 1395.38,-632.35"/>
</g>
<!-- Node44 -->
<g id="node44" class="node">
<title>Node44</title>
<g id="a_node44"><a xlink:href="v8-persistent-handle_8h.html" target="_top" xlink:title=" ">
<polygon fill="white" stroke="#666666" points="1137.25,-418.25 1031.25,-418.25 1031.25,-387.75 1137.25,-387.75 1137.25,-418.25"/>
<text text-anchor="start" x="1039.25" y="-404.75" font-family="Helvetica,sans-Serif" font-size="10.00">include/v8&#45;persistent</text>
<text text-anchor="middle" x="1084.25" y="-393.5" font-family="Helvetica,sans-Serif" font-size="10.00">&#45;handle.h</text>
</a>
</g>
</g>
<!-- Node1&#45;&gt;Node44 -->
<g id="edge145" class="edge">
<title>Node1&#45;&gt;Node44</title>
<path fill="none" stroke="#63b8ff" d="M1300.62,-626.53C1251.37,-604.63 1158.76,-556.21 1111.25,-484.75 1097.5,-464.07 1090.17,-435.76 1086.75,-418.73"/>
<polygon fill="#63b8ff" stroke="#63b8ff" points="1298.87,-630.03 1309.44,-630.8 1301.67,-623.61 1298.87,-630.03"/>
</g>
<!-- Node45 -->
<g id="node45" class="node">
<title>Node45</title>
<g id="a_node45"><a xlink:href="v8-snapshot_8h.html" target="_top" xlink:title=" ">
<polygon fill="white" stroke="#666666" points="338.5,-540 228,-540 228,-520.75 338.5,-520.75 338.5,-540"/>
<text text-anchor="middle" x="283.25" y="-526.5" font-family="Helvetica,sans-Serif" font-size="10.00">include/v8&#45;snapshot.h</text>
</a>
</g>
</g>
<!-- Node1&#45;&gt;Node45 -->
<g id="edge147" class="edge">
<title>Node1&#45;&gt;Node45</title>
<path fill="none" stroke="#63b8ff" d="M1270.9,-635.09C1173.98,-627.5 981.38,-611.88 818.25,-595.25 608.57,-573.87 556.36,-566.35 347.25,-540 344.47,-539.65 341.62,-539.29 338.75,-538.91"/>
<polygon fill="#63b8ff" stroke="#63b8ff" points="1270.43,-638.64 1280.67,-635.93 1270.97,-631.66 1270.43,-638.64"/>
</g>
<!-- Node46 -->
<g id="node46" class="node">
<title>Node46</title>
<g id="a_node46"><a xlink:href="v8-traced-handle_8h.html" target="_top" xlink:title=" ">
<polygon fill="white" stroke="#666666" points="485.88,-540 356.62,-540 356.62,-520.75 485.88,-520.75 485.88,-540"/>
<text text-anchor="middle" x="421.25" y="-526.5" font-family="Helvetica,sans-Serif" font-size="10.00">include/v8&#45;traced&#45;handle.h</text>
</a>
</g>
</g>
<!-- Node1&#45;&gt;Node46 -->
<g id="edge148" class="edge">
<title>Node1&#45;&gt;Node46</title>
<path fill="none" stroke="#63b8ff" d="M1271.47,-632.53C1106.25,-612.87 655.34,-559.22 486.36,-539.12"/>
<polygon fill="#63b8ff" stroke="#63b8ff" points="1270.59,-636.06 1280.93,-633.77 1271.42,-629.11 1270.59,-636.06"/>
</g>
<!-- Node48 -->
<g id="node48" class="node">
<title>Node48</title>
<g id="a_node48"><a xlink:href="v8-maybe_8h.html" target="_top" xlink:title=" ">
<polygon fill="white" stroke="#666666" points="2870.88,-540 2771.62,-540 2771.62,-520.75 2870.88,-520.75 2870.88,-540"/>
<text text-anchor="middle" x="2821.25" y="-526.5" font-family="Helvetica,sans-Serif" font-size="10.00">include/v8&#45;maybe.h</text>
</a>
</g>
</g>
<!-- Node1&#45;&gt;Node48 -->
<g id="edge137" class="edge">
<title>Node1&#45;&gt;Node48</title>
<path fill="none" stroke="#63b8ff" d="M1395.3,-639.2C1661.23,-636.15 2693.98,-622.59 2757.25,-595.25 2784.05,-583.67 2805.69,-555.2 2815.52,-540.49"/>
<polygon fill="#63b8ff" stroke="#63b8ff" points="1395.65,-635.71 1385.69,-639.32 1395.73,-642.71 1395.65,-635.71"/>
</g>
<!-- Node4 -->
<g id="node4" class="node">
<title>Node4</title>
<g id="a_node4"><a xlink:href="v8-unwinder_8h.html" target="_top" xlink:title=" ">
<polygon fill="white" stroke="#666666" points="398.12,-218.75 288.38,-218.75 288.38,-199.5 398.12,-199.5 398.12,-218.75"/>
<text text-anchor="middle" x="343.25" y="-205.25" font-family="Helvetica,sans-Serif" font-size="10.00">include/v8&#45;unwinder.h</text>
</a>
</g>
</g>
<!-- Node3&#45;&gt;Node4 -->
<g id="edge3" class="edge">
<title>Node3&#45;&gt;Node4</title>
<path fill="none" stroke="#63b8ff" d="M308.51,-376.75C317.55,-333.41 335.6,-246.82 341.41,-218.97"/>
<polygon fill="#63b8ff" stroke="#63b8ff" points="304.94,-375.76 306.32,-386.26 311.79,-377.19 304.94,-375.76"/>
</g>
<!-- Node4&#45;&gt;Node5 -->
<g id="edge4" class="edge">
<title>Node4&#45;&gt;Node5</title>
<path fill="none" stroke="#63b8ff" d="M408.98,-197.52C480.62,-185.97 593.64,-167.74 658.34,-157.3"/>
<polygon fill="#63b8ff" stroke="#63b8ff" points="408.6,-194.2 399.29,-199.25 409.72,-201.11 408.6,-194.2"/>
</g>
<!-- Node4&#45;&gt;Node7 -->
<g id="edge10" class="edge">
<title>Node4&#45;&gt;Node7</title>
<path fill="none" stroke="#63b8ff" d="M350.85,-189.51C365,-157.63 398.69,-93.42 450.25,-66.5 507.97,-36.36 1516.75,-19.74 1716.17,-16.74"/>
<polygon fill="#63b8ff" stroke="#63b8ff" points="347.37,-187.75 346.66,-198.32 353.81,-190.5 347.37,-187.75"/>
</g>
<!-- Node5&#45;&gt;Node6 -->
<g id="edge5" class="edge">
<title>Node5&#45;&gt;Node6</title>
<path fill="none" stroke="#63b8ff" d="M696.93,-129C689.36,-116.79 679.72,-101.24 673.76,-91.64"/>
<polygon fill="#63b8ff" stroke="#63b8ff" points="694.44,-130.63 702.69,-137.28 700.39,-126.94 694.44,-130.63"/>
</g>
<!-- Node5&#45;&gt;Node7 -->
<g id="edge9" class="edge">
<title>Node5&#45;&gt;Node7</title>
<path fill="none" stroke="#63b8ff" d="M729.42,-132.15C757.69,-112.93 810.05,-80.52 860.25,-66.5 1025.7,-20.29 1573.49,-16.44 1716.08,-16.23"/>
<polygon fill="#63b8ff" stroke="#63b8ff" points="727.7,-129.78 721.47,-138.35 731.68,-135.53 727.7,-129.78"/>
</g>
<!-- Node8 -->
<g id="node8" class="node">
<title>Node8</title>
<g id="a_node8"><a xlink:href="v8-inspector_8h.html" target="_top" xlink:title=" ">
<polygon fill="white" stroke="#666666" points="110.5,-91.38 0,-91.38 0,-72.12 110.5,-72.12 110.5,-91.38"/>
<text text-anchor="middle" x="55.25" y="-77.88" font-family="Helvetica,sans-Serif" font-size="10.00">include/v8&#45;inspector.h</text>
</a>
</g>
</g>
<!-- Node5&#45;&gt;Node8 -->
<g id="edge7" class="edge">
<title>Node5&#45;&gt;Node8</title>
<path fill="none" stroke="#63b8ff" d="M647.76,-141.28C521.65,-128.82 232.27,-100.24 110.67,-88.22"/>
<polygon fill="#63b8ff" stroke="#63b8ff" points="647.07,-144.82 657.36,-142.32 647.76,-137.86 647.07,-144.82"/>
</g>
<!-- Node6&#45;&gt;Node7 -->
<g id="edge6" class="edge">
<title>Node6&#45;&gt;Node7</title>
<path fill="none" stroke="#63b8ff" d="M739.86,-71.07C754.21,-69.36 769.2,-67.73 783.25,-66.5 1147.48,-34.51 1590.82,-20.61 1715.93,-17.15"/>
<polygon fill="#63b8ff" stroke="#63b8ff" points="739.54,-67.71 730.04,-72.4 740.39,-74.66 739.54,-67.71"/>
</g>
<!-- Node9 -->
<g id="node9" class="node">
<title>Node9</title>
<g id="a_node9"><a xlink:href="v8-inspector-protocol_8h.html" target="_top" xlink:title=" ">
<polygon fill="white" stroke="#666666" points="106.75,-30.5 3.75,-30.5 3.75,0 106.75,0 106.75,-30.5"/>
<text text-anchor="start" x="11.75" y="-17" font-family="Helvetica,sans-Serif" font-size="10.00">include/v8&#45;inspector</text>
<text text-anchor="middle" x="55.25" y="-5.75" font-family="Helvetica,sans-Serif" font-size="10.00">&#45;protocol.h</text>
</a>
</g>
</g>
<!-- Node8&#45;&gt;Node9 -->
<g id="edge8" class="edge">
<title>Node8&#45;&gt;Node9</title>
<path fill="none" stroke="#63b8ff" d="M55.25,-61.02C55.25,-51.2 55.25,-39.55 55.25,-30.59"/>
<polygon fill="#63b8ff" stroke="#63b8ff" points="51.75,-60.78 55.25,-70.78 58.75,-60.78 51.75,-60.78"/>
</g>
<!-- Node11&#45;&gt;Node3 -->
<g id="edge91" class="edge">
<title>Node11&#45;&gt;Node3</title>
<path fill="none" stroke="#63b8ff" d="M1526.84,-583.63C1301.7,-580.25 623.36,-567.85 528.25,-540 511.95,-535.23 510.9,-527.35 495.25,-520.75 440.01,-497.45 414.96,-518.26 365.25,-484.75 339.89,-467.66 320.49,-436.79 310.58,-418.57"/>
<polygon fill="#63b8ff" stroke="#63b8ff" points="1526.48,-587.14 1536.53,-583.79 1526.58,-580.14 1526.48,-587.14"/>
</g>
<!-- Node11&#45;&gt;Node5 -->
<g id="edge100" class="edge">
<title>Node11&#45;&gt;Node5</title>
<path fill="none" stroke="#63b8ff" d="M1526.94,-583.18C1330.96,-578.95 799.28,-565.26 724.25,-540 682.95,-526.09 672.26,-517.27 643.25,-484.75 555.28,-386.12 482.16,-306.85 559.25,-199.5 581.62,-168.34 624.32,-156.25 658.29,-151.68"/>
<polygon fill="#63b8ff" stroke="#63b8ff" points="1526.62,-586.7 1536.69,-583.41 1526.77,-579.7 1526.62,-586.7"/>
</g>
<!-- Node11&#45;&gt;Node7 -->
<g id="edge136" class="edge">
<title>Node11&#45;&gt;Node7</title>
<path fill="none" stroke="#63b8ff" d="M1671.45,-583.43C1812.56,-579.14 2111.25,-559.54 2111.25,-470.5 2111.25,-470.5 2111.25,-470.5 2111.25,-402 2111.25,-316.11 2134.25,-296.01 2134.25,-210.12 2134.25,-210.12 2134.25,-210.12 2134.25,-147.25 2134.25,-88.03 2082.45,-90.37 2028.25,-66.5 1945.66,-30.12 1838.18,-20.08 1784.25,-17.31"/>
<polygon fill="#63b8ff" stroke="#63b8ff" points="1671.65,-579.95 1661.75,-583.74 1671.85,-586.95 1671.65,-579.95"/>
</g>
<!-- Node11&#45;&gt;Node8 -->
<g id="edge99" class="edge">
<title>Node11&#45;&gt;Node8</title>
<path fill="none" stroke="#63b8ff" d="M1526.93,-584.85C1260.48,-585.34 342.63,-583.79 219.25,-540 125.09,-506.58 40.25,-503.91 40.25,-404 40.25,-404 40.25,-404 40.25,-208.12 40.25,-164.28 49.41,-112.42 53.41,-91.83"/>
<polygon fill="#63b8ff" stroke="#63b8ff" points="1526.64,-588.35 1536.63,-584.83 1526.62,-581.35 1526.64,-588.35"/>
</g>
<!-- Node11&#45;&gt;Node10 -->
<g id="edge95" class="edge">
<title>Node11&#45;&gt;Node10</title>
<path fill="none" stroke="#63b8ff" d="M1671.72,-582.94C1861.28,-578.21 2362.07,-563.62 2433.25,-540 2535.18,-506.18 2705.49,-318.8 2731.25,-285.25 2762.16,-244.99 2786.85,-189.58 2797.53,-163.68"/>
<polygon fill="#63b8ff" stroke="#63b8ff" points="1671.68,-579.46 1661.77,-583.21 1671.85,-586.46 1671.68,-579.46"/>
</g>
<!-- Node12 -->
<g id="node12" class="node">
<title>Node12</title>
<g id="a_node12"><a xlink:href="v8-array-buffer_8h.html" target="_top" xlink:title=" ">
<polygon fill="white" stroke="#666666" points="1644.62,-279.62 1525.88,-279.62 1525.88,-260.38 1644.62,-260.38 1644.62,-279.62"/>
<text text-anchor="middle" x="1585.25" y="-266.12" font-family="Helvetica,sans-Serif" font-size="10.00">include/v8&#45;array&#45;buffer.h</text>
</a>
</g>
</g>
<!-- Node11&#45;&gt;Node12 -->
<g id="edge15" class="edge">
<title>Node11&#45;&gt;Node12</title>
<path fill="none" stroke="#63b8ff" d="M1597.1,-564.92C1592.84,-524.85 1583.47,-430.92 1580.25,-351.75 1579.7,-338.21 1579.58,-334.79 1580.25,-321.25 1580.97,-306.71 1582.86,-289.9 1584.1,-279.88"/>
<polygon fill="#63b8ff" stroke="#63b8ff" points="1593.71,-565.19 1598.26,-574.76 1600.67,-564.44 1593.71,-565.19"/>
</g>
<!-- Node13 -->
<g id="node13" class="node">
<title>Node13</title>
<g id="a_node13"><a xlink:href="v8-typed-array_8h.html" target="_top" xlink:title=" ">
<polygon fill="white" stroke="#666666" points="2318.25,-218.75 2200.25,-218.75 2200.25,-199.5 2318.25,-199.5 2318.25,-218.75"/>
<text text-anchor="middle" x="2259.25" y="-205.25" font-family="Helvetica,sans-Serif" font-size="10.00">include/v8&#45;typed&#45;array.h</text>
</a>
</g>
</g>
<!-- Node11&#45;&gt;Node13 -->
<g id="edge131" class="edge">
<title>Node11&#45;&gt;Node13</title>
<path fill="none" stroke="#63b8ff" d="M1671.54,-582.59C1844.47,-577.37 2269.32,-562.32 2290.25,-540 2297.78,-531.97 2328.8,-470.68 2260.25,-321.25 2251.45,-302.06 2236.6,-305.04 2229.25,-285.25 2224.53,-272.54 2225.3,-267.72 2229.25,-254.75 2233.44,-241 2243.45,-227.64 2250.75,-219.18"/>
<polygon fill="#63b8ff" stroke="#63b8ff" points="1671.66,-579.11 1661.76,-582.91 1671.86,-586.11 1671.66,-579.11"/>
</g>
<!-- Node14 -->
<g id="node14" class="node">
<title>Node14</title>
<g id="a_node14"><a xlink:href="v8-callbacks_8h.html" target="_top" xlink:title=" ">
<polygon fill="white" stroke="#666666" points="680.25,-218.75 568.25,-218.75 568.25,-199.5 680.25,-199.5 680.25,-218.75"/>
<text text-anchor="middle" x="624.25" y="-205.25" font-family="Helvetica,sans-Serif" font-size="10.00">include/v8&#45;callbacks.h</text>
</a>
</g>
</g>
<!-- Node11&#45;&gt;Node14 -->
<g id="edge21" class="edge">
<title>Node11&#45;&gt;Node14</title>
<path fill="none" stroke="#63b8ff" d="M1526.91,-583.94C1336.61,-581.68 831.96,-572.64 764.25,-540 663.5,-491.43 636.95,-456.31 597.25,-351.75 581.95,-311.45 585.67,-296.28 597.25,-254.75 601.05,-241.14 610.24,-227.55 616.85,-219"/>
<polygon fill="#63b8ff" stroke="#63b8ff" points="1526.6,-587.44 1536.63,-584.06 1526.68,-580.44 1526.6,-587.44"/>
</g>
<!-- Node15 -->
<g id="node15" class="node">
<title>Node15</title>
<g id="a_node15"><a xlink:href="v8-container_8h.html" target="_top" xlink:title=" ">
<polygon fill="white" stroke="#666666" points="2699.5,-279.62 2589,-279.62 2589,-260.38 2699.5,-260.38 2699.5,-279.62"/>
<text text-anchor="middle" x="2644.25" y="-266.12" font-family="Helvetica,sans-Serif" font-size="10.00">include/v8&#45;container.h</text>
</a>
</g>
</g>
<!-- Node11&#45;&gt;Node15 -->
<g id="edge24" class="edge">
<title>Node11&#45;&gt;Node15</title>
<path fill="none" stroke="#63b8ff" d="M1671.54,-582.12C1863.12,-575.28 2371.55,-555.75 2404.25,-540 2530.28,-479.3 2619.18,-319.55 2639.72,-279.97"/>
<polygon fill="#63b8ff" stroke="#63b8ff" points="1671.61,-578.65 1661.74,-582.5 1671.86,-585.65 1671.61,-578.65"/>
</g>
<!-- Node16 -->
<g id="node16" class="node">
<title>Node16</title>
<g id="a_node16"><a xlink:href="v8-context_8h.html" target="_top" xlink:title=" ">
<polygon fill="white" stroke="#666666" points="476.38,-479.12 374.12,-479.12 374.12,-459.88 476.38,-459.88 476.38,-479.12"/>
<text text-anchor="middle" x="425.25" y="-465.62" font-family="Helvetica,sans-Serif" font-size="10.00">include/v8&#45;context.h</text>
</a>
</g>
</g>
<!-- Node11&#45;&gt;Node16 -->
<g id="edge26" class="edge">
<title>Node11&#45;&gt;Node16</title>
<path fill="none" stroke="#63b8ff" d="M1526.91,-584.93C1325.62,-585.22 761.98,-582.14 582.25,-540 554.1,-533.4 478.45,-496.89 443.46,-479.59"/>
<polygon fill="#63b8ff" stroke="#63b8ff" points="1526.65,-588.43 1536.65,-584.91 1526.64,-581.43 1526.65,-588.43"/>
</g>
<!-- Node17 -->
<g id="node17" class="node">
<title>Node17</title>
<g id="a_node17"><a xlink:href="v8-proxy_8h.html" target="_top" xlink:title=" ">
<polygon fill="white" stroke="#666666" points="1393.88,-279.62 1300.62,-279.62 1300.62,-260.38 1393.88,-260.38 1393.88,-279.62"/>
<text text-anchor="middle" x="1347.25" y="-266.12" font-family="Helvetica,sans-Serif" font-size="10.00">include/v8&#45;proxy.h</text>
</a>
</g>
</g>
<!-- Node11&#45;&gt;Node17 -->
<g id="edge118" class="edge">
<title>Node11&#45;&gt;Node17</title>
<path fill="none" stroke="#63b8ff" d="M1527.04,-578.38C1460.25,-568.18 1371.25,-541.3 1371.25,-470.5 1371.25,-470.5 1371.25,-470.5 1371.25,-402 1371.25,-355.53 1356.45,-301.27 1350.1,-280.11"/>
<polygon fill="#63b8ff" stroke="#63b8ff" points="1526.16,-581.94 1536.55,-579.88 1527.14,-575.01 1526.16,-581.94"/>
</g>
<!-- Node18 -->
<g id="node18" class="node">
<title>Node18</title>
<g id="a_node18"><a xlink:href="v8-data_8h.html" target="_top" xlink:title=" ">
<polygon fill="white" stroke="#666666" points="901,-540 811.5,-540 811.5,-520.75 901,-520.75 901,-540"/>
<text text-anchor="middle" x="856.25" y="-526.5" font-family="Helvetica,sans-Serif" font-size="10.00">include/v8&#45;data.h</text>
</a>
</g>
</g>
<!-- Node11&#45;&gt;Node18 -->
<g id="edge31" class="edge">
<title>Node11&#45;&gt;Node18</title>
<path fill="none" stroke="#63b8ff" d="M1527.22,-579.46C1375.22,-568.57 1025.46,-543.5 901.12,-534.59"/>
<polygon fill="#63b8ff" stroke="#63b8ff" points="1526.59,-583 1536.82,-580.22 1527.09,-576.02 1526.59,-583"/>
</g>
<!-- Node11&#45;&gt;Node19 -->
<g id="edge115" class="edge">
<title>Node11&#45;&gt;Node19</title>
<path fill="none" stroke="#63b8ff" d="M1671.34,-580.85C1744.67,-575.71 1852.09,-564.23 1885.25,-540 1929.8,-507.45 1946.93,-437.4 1951.72,-412.78"/>
<polygon fill="#63b8ff" stroke="#63b8ff" points="1671.53,-577.39 1661.79,-581.56 1672,-584.38 1671.53,-577.39"/>
</g>
<!-- Node20 -->
<g id="node20" class="node">
<title>Node20</title>
<g id="a_node20"><a xlink:href="v8-extension_8h.html" target="_top" xlink:title=" ">
<polygon fill="white" stroke="#666666" points="2251.25,-346.12 2139.25,-346.12 2139.25,-326.88 2251.25,-326.88 2251.25,-346.12"/>
<text text-anchor="middle" x="2195.25" y="-332.62" font-family="Helvetica,sans-Serif" font-size="10.00">include/v8&#45;extension.h</text>
</a>
</g>
</g>
<!-- Node11&#45;&gt;Node20 -->
<g id="edge94" class="edge">
<title>Node11&#45;&gt;Node20</title>
<path fill="none" stroke="#63b8ff" d="M1671.21,-582.83C1806.91,-578.82 2090.22,-567.26 2125.25,-540 2189.25,-490.2 2195.01,-378.37 2195.31,-346.27"/>
<polygon fill="#63b8ff" stroke="#63b8ff" points="1671.41,-579.35 1661.52,-583.14 1671.61,-586.35 1671.41,-579.35"/>
</g>
<!-- Node21 -->
<g id="node21" class="node">
<title>Node21</title>
<g id="a_node21"><a xlink:href="v8-function-callback_8h.html" target="_top" xlink:title=" ">
<polygon fill="white" stroke="#666666" points="1687.12,-351.75 1589.38,-351.75 1589.38,-321.25 1687.12,-321.25 1687.12,-351.75"/>
<text text-anchor="start" x="1597.38" y="-338.25" font-family="Helvetica,sans-Serif" font-size="10.00">include/v8&#45;function</text>
<text text-anchor="middle" x="1638.25" y="-327" font-family="Helvetica,sans-Serif" font-size="10.00">&#45;callback.h</text>
</a>
</g>
</g>
<!-- Node11&#45;&gt;Node21 -->
<g id="edge97" class="edge">
<title>Node11&#45;&gt;Node21</title>
<path fill="none" stroke="#63b8ff" d="M1606.15,-565.31C1608.71,-557.54 1611.42,-548.42 1613.25,-540 1628.33,-470.41 1635.14,-385.26 1637.37,-351.89"/>
<polygon fill="#63b8ff" stroke="#63b8ff" points="1602.58,-563.93 1602.64,-574.53 1609.2,-566.21 1602.58,-563.93"/>
</g>
<!-- Node22 -->
<g id="node22" class="node">
<title>Node22</title>
<g id="a_node22"><a xlink:href="v8-function_8h.html" target="_top" xlink:title=" ">
<polygon fill="white" stroke="#666666" points="1883.88,-218.75 1778.62,-218.75 1778.62,-199.5 1883.88,-199.5 1883.88,-218.75"/>
<text text-anchor="middle" x="1831.25" y="-205.25" font-family="Helvetica,sans-Serif" font-size="10.00">include/v8&#45;function.h</text>
</a>
</g>
</g>
<!-- Node11&#45;&gt;Node22 -->
<g id="edge98" class="edge">
<title>Node11&#45;&gt;Node22</title>
<path fill="none" stroke="#63b8ff" d="M1618.42,-568.66C1627.63,-560.54 1638.53,-550.24 1647.25,-540 1735.47,-436.34 1765.96,-411.33 1817.25,-285.25 1826.45,-262.64 1829.66,-233.72 1830.73,-219.24"/>
<polygon fill="#63b8ff" stroke="#63b8ff" points="1616.53,-566.53 1611.23,-575.7 1621.1,-571.84 1616.53,-566.53"/>
</g>
<!-- Node23 -->
<g id="node23" class="node">
<title>Node23</title>
<g id="a_node23"><a xlink:href="v8-template_8h.html" target="_top" xlink:title=" ">
<polygon fill="white" stroke="#666666" points="1808.38,-279.62 1700.12,-279.62 1700.12,-260.38 1808.38,-260.38 1808.38,-279.62"/>
<text text-anchor="middle" x="1754.25" y="-266.12" font-family="Helvetica,sans-Serif" font-size="10.00">include/v8&#45;template.h</text>
</a>
</g>
</g>
<!-- Node11&#45;&gt;Node23 -->
<g id="edge125" class="edge">
<title>Node11&#45;&gt;Node23</title>
<path fill="none" stroke="#63b8ff" d="M1611.65,-566.45C1616.95,-558.45 1623.1,-548.88 1628.25,-540 1675.51,-458.6 1687.71,-438.06 1725.25,-351.75 1736.3,-326.34 1746.6,-295.23 1751.41,-280.11"/>
<polygon fill="#63b8ff" stroke="#63b8ff" points="1608.2,-564.31 1605.52,-574.56 1614.01,-568.22 1608.2,-564.31"/>
</g>
<!-- Node25 -->
<g id="node25" class="node">
<title>Node25</title>
<g id="a_node25"><a xlink:href="v8-message_8h.html" target="_top" xlink:title=" ">
<polygon fill="white" stroke="#666666" points="1929.5,-346.12 1819,-346.12 1819,-326.88 1929.5,-326.88 1929.5,-346.12"/>
<text text-anchor="middle" x="1874.25" y="-332.62" font-family="Helvetica,sans-Serif" font-size="10.00">include/v8&#45;message.h</text>
</a>
</g>
</g>
<!-- Node11&#45;&gt;Node25 -->
<g id="edge103" class="edge">
<title>Node11&#45;&gt;Node25</title>
<path fill="none" stroke="#63b8ff" d="M1671.55,-579.42C1704.87,-573.85 1743.15,-562.58 1771.25,-540 1805.22,-512.69 1857.3,-381.62 1870.91,-346.29"/>
<polygon fill="#63b8ff" stroke="#63b8ff" points="1671.29,-576.07 1661.93,-581.04 1672.34,-582.99 1671.29,-576.07"/>
</g>
<!-- Node26 -->
<g id="node26" class="node">
<title>Node26</title>
<g id="a_node26"><a xlink:href="v8-profiler_8h.html" target="_top" xlink:title=" ">
<polygon fill="white" stroke="#666666" points="1082.88,-279.62 983.62,-279.62 983.62,-260.38 1082.88,-260.38 1082.88,-279.62"/>
<text text-anchor="middle" x="1033.25" y="-266.12" font-family="Helvetica,sans-Serif" font-size="10.00">include/v8&#45;profiler.h</text>
</a>
</g>
</g>
<!-- Node11&#45;&gt;Node26 -->
<g id="edge116" class="edge">
<title>Node11&#45;&gt;Node26</title>
<path fill="none" stroke="#63b8ff" d="M1526.72,-583.31C1466.57,-579.93 1379.94,-569.69 1310.25,-540 1263.43,-520.05 1219.25,-521.39 1219.25,-470.5 1219.25,-470.5 1219.25,-470.5 1219.25,-402 1219.25,-361.71 1101.14,-302.45 1053.16,-280.03"/>
<polygon fill="#63b8ff" stroke="#63b8ff" points="1526.47,-586.85 1536.64,-583.86 1526.83,-579.86 1526.47,-586.85"/>
</g>
<!-- Node27 -->
<g id="node27" class="node">
<title>Node27</title>
<g id="a_node27"><a xlink:href="v8-script_8h.html" target="_top" xlink:title=" ">
<polygon fill="white" stroke="#666666" points="864.62,-279.62 769.88,-279.62 769.88,-260.38 864.62,-260.38 864.62,-279.62"/>
<text text-anchor="middle" x="817.25" y="-266.12" font-family="Helvetica,sans-Serif" font-size="10.00">include/v8&#45;script.h</text>
</a>
</g>
</g>
<!-- Node11&#45;&gt;Node27 -->
<g id="edge120" class="edge">
<title>Node11&#45;&gt;Node27</title>
<path fill="none" stroke="#63b8ff" d="M1527.02,-581.7C1423,-576.7 1236.67,-564.58 1174.25,-540 1013.23,-476.59 861.84,-319.53 825.49,-280.1"/>
<polygon fill="#63b8ff" stroke="#63b8ff" points="1526.59,-585.23 1536.74,-582.21 1526.92,-578.24 1526.59,-585.23"/>
</g>
<!-- Node29 -->
<g id="node29" class="node">
<title>Node29</title>
<g id="a_node29"><a xlink:href="v8-object_8h.html" target="_top" xlink:title=" ">
<polygon fill="white" stroke="#666666" points="2082.75,-346.12 1985.75,-346.12 1985.75,-326.88 2082.75,-326.88 2082.75,-346.12"/>
<text text-anchor="middle" x="2034.25" y="-332.62" font-family="Helvetica,sans-Serif" font-size="10.00">include/v8&#45;object.h</text>
</a>
</g>
</g>
<!-- Node11&#45;&gt;Node29 -->
<g id="edge107" class="edge">
<title>Node11&#45;&gt;Node29</title>
<path fill="none" stroke="#63b8ff" d="M1671.69,-579.92C1749.88,-573.83 1868.55,-561.4 1908.25,-540 1971.92,-505.68 1983.33,-482.66 2016.25,-418.25 2028.54,-394.21 2032.49,-361.93 2033.72,-346.48"/>
<polygon fill="#63b8ff" stroke="#63b8ff" points="1671.64,-576.49 1661.94,-580.73 1672.18,-583.47 1671.64,-576.49"/>
</g>
<!-- Node30 -->
<g id="node30" class="node">
<title>Node30</title>
<g id="a_node30"><a xlink:href="v8-date_8h.html" target="_top" xlink:title=" ">
<polygon fill="white" stroke="#666666" points="2068,-279.62 1978.5,-279.62 1978.5,-260.38 2068,-260.38 2068,-279.62"/>
<text text-anchor="middle" x="2023.25" y="-266.12" font-family="Helvetica,sans-Serif" font-size="10.00">include/v8&#45;date.h</text>
</a>
</g>
</g>
<!-- Node11&#45;&gt;Node30 -->
<g id="edge88" class="edge">
<title>Node11&#45;&gt;Node30</title>
<path fill="none" stroke="#63b8ff" d="M1671.33,-580.34C1709.89,-575.14 1756.63,-563.93 1792.25,-540 1817.2,-523.24 1814.76,-509.88 1831.25,-484.75 1858.93,-442.56 1856.34,-425.12 1890.25,-387.75 1908.17,-368 1917.88,-368.96 1938.25,-351.75 1967.48,-327.05 1999.62,-295.08 2014.63,-279.84"/>
<polygon fill="#63b8ff" stroke="#63b8ff" points="1671.18,-576.95 1661.68,-581.65 1672.03,-583.9 1671.18,-576.95"/>
</g>
<!-- Node31 -->
<g id="node31" class="node">
<title>Node31</title>
<g id="a_node31"><a xlink:href="v8-primitive-object_8h.html" target="_top" xlink:title=" ">
<polygon fill="white" stroke="#666666" points="2338.25,-285.25 2238.25,-285.25 2238.25,-254.75 2338.25,-254.75 2338.25,-285.25"/>
<text text-anchor="start" x="2246.25" y="-271.75" font-family="Helvetica,sans-Serif" font-size="10.00">include/v8&#45;primitive</text>
<text text-anchor="middle" x="2288.25" y="-260.5" font-family="Helvetica,sans-Serif" font-size="10.00">&#45;object.h</text>
</a>
</g>
</g>
<!-- Node11&#45;&gt;Node31 -->
<g id="edge114" class="edge">
<title>Node11&#45;&gt;Node31</title>
<path fill="none" stroke="#63b8ff" d="M1671.58,-582.16C1849.63,-575.83 2296.66,-558.21 2323.25,-540 2351.31,-520.79 2355.25,-504.51 2355.25,-470.5 2355.25,-470.5 2355.25,-470.5 2355.25,-402 2355.25,-364.56 2349.15,-354.14 2331.25,-321.25 2324.01,-307.94 2312.8,-294.99 2303.64,-285.58"/>
<polygon fill="#63b8ff" stroke="#63b8ff" points="1671.63,-578.69 1661.76,-582.54 1671.87,-585.69 1671.63,-578.69"/>
</g>
<!-- Node32 -->
<g id="node32" class="node">
<title>Node32</title>
<g id="a_node32"><a xlink:href="v8-promise_8h.html" target="_top" xlink:title=" ">
<polygon fill="white" stroke="#666666" points="1282.88,-279.62 1177.62,-279.62 1177.62,-260.38 1282.88,-260.38 1282.88,-279.62"/>
<text text-anchor="middle" x="1230.25" y="-266.12" font-family="Helvetica,sans-Serif" font-size="10.00">include/v8&#45;promise.h</text>
</a>
</g>
</g>
<!-- Node11&#45;&gt;Node32 -->
<g id="edge117" class="edge">
<title>Node11&#45;&gt;Node32</title>
<path fill="none" stroke="#63b8ff" d="M1527.03,-575.36C1426.68,-560.44 1257.25,-526.89 1257.25,-470.5 1257.25,-470.5 1257.25,-470.5 1257.25,-402 1257.25,-355.33 1240.61,-301.19 1233.45,-280.08"/>
<polygon fill="#63b8ff" stroke="#63b8ff" points="1526.31,-578.94 1536.71,-576.92 1527.32,-572.01 1526.31,-578.94"/>
</g>
<!-- Node33 -->
<g id="node33" class="node">
<title>Node33</title>
<g id="a_node33"><a xlink:href="v8-statistics_8h.html" target="_top" xlink:title=" ">
<polygon fill="white" stroke="#666666" points="1205.5,-218.75 1095,-218.75 1095,-199.5 1205.5,-199.5 1205.5,-218.75"/>
<text text-anchor="middle" x="1150.25" y="-205.25" font-family="Helvetica,sans-Serif" font-size="10.00">include/v8&#45;statistics.h</text>
</a>
</g>
</g>
<!-- Node11&#45;&gt;Node33 -->
<g id="edge124" class="edge">
<title>Node11&#45;&gt;Node33</title>
<path fill="none" stroke="#63b8ff" d="M1526.7,-583.78C1342.4,-581.19 866.22,-571.48 802.25,-540 765.64,-521.98 742.25,-511.31 742.25,-470.5 742.25,-470.5 742.25,-470.5 742.25,-335.5 742.25,-298.63 733.65,-279.2 761.25,-254.75 815.64,-206.56 1014.13,-227.6 1086.25,-218.75 1089.03,-218.41 1091.88,-218.05 1094.76,-217.69"/>
<polygon fill="#63b8ff" stroke="#63b8ff" points="1526.57,-587.29 1536.62,-583.93 1526.67,-580.29 1526.57,-587.29"/>
</g>
<!-- Node34 -->
<g id="node34" class="node">
<title>Node34</title>
<g id="a_node34"><a xlink:href="v8-regexp_8h.html" target="_top" xlink:title=" ">
<polygon fill="white" stroke="#666666" points="2455.88,-279.62 2356.62,-279.62 2356.62,-260.38 2455.88,-260.38 2455.88,-279.62"/>
<text text-anchor="middle" x="2406.25" y="-266.12" font-family="Helvetica,sans-Serif" font-size="10.00">include/v8&#45;regexp.h</text>
</a>
</g>
</g>
<!-- Node11&#45;&gt;Node34 -->
<g id="edge119" class="edge">
<title>Node11&#45;&gt;Node34</title>
<path fill="none" stroke="#63b8ff" d="M1671.57,-582.05C1853.6,-575.35 2318.29,-556.69 2347.25,-540 2379.34,-521.5 2393.25,-507.54 2393.25,-470.5 2393.25,-470.5 2393.25,-470.5 2393.25,-402 2393.25,-355.83 2401.34,-300.96 2404.76,-279.86"/>
<polygon fill="#63b8ff" stroke="#63b8ff" points="1671.64,-578.59 1661.78,-582.45 1671.9,-585.58 1671.64,-578.59"/>
</g>
<!-- Node35 -->
<g id="node35" class="node">
<title>Node35</title>
<g id="a_node35"><a xlink:href="v8-wasm_8h.html" target="_top" xlink:title=" ">
<polygon fill="white" stroke="#666666" points="2570.75,-279.62 2473.75,-279.62 2473.75,-260.38 2570.75,-260.38 2570.75,-279.62"/>
<text text-anchor="middle" x="2522.25" y="-266.12" font-family="Helvetica,sans-Serif" font-size="10.00">include/v8&#45;wasm.h</text>
</a>
</g>
</g>
<!-- Node11&#45;&gt;Node35 -->
<g id="edge135" class="edge">
<title>Node11&#45;&gt;Node35</title>
<path fill="none" stroke="#63b8ff" d="M1671.8,-582.02C1858.51,-575.12 2343.26,-555.77 2374.25,-540 2409.85,-521.88 2431.25,-510.45 2431.25,-470.5 2431.25,-470.5 2431.25,-470.5 2431.25,-402 2431.25,-347.45 2485.14,-299.28 2509.98,-279.97"/>
<polygon fill="#63b8ff" stroke="#63b8ff" points="1671.86,-578.56 1662,-582.42 1672.12,-585.55 1671.86,-578.56"/>
</g>
<!-- Node11&#45;&gt;Node36 -->
<g id="edge134" class="edge">
<title>Node11&#45;&gt;Node36</title>
<path fill="none" stroke="#63b8ff" d="M1671.57,-584.5C1859.58,-583.64 2360.24,-577.76 2521.25,-540 2542.03,-535.13 2545.39,-528.57 2565.25,-520.75 2604.79,-505.18 2651.35,-489.25 2680.34,-479.62"/>
<polygon fill="#63b8ff" stroke="#63b8ff" points="1671.7,-581.01 1661.71,-584.55 1671.73,-588.01 1671.7,-581.01"/>
</g>
<!-- Node38 -->
<g id="node38" class="node">
<title>Node38</title>
<g id="a_node38"><a xlink:href="v8-embedder-heap_8h.html" target="_top" xlink:title=" ">
<polygon fill="white" stroke="#666666" points="600.25,-484.75 494.25,-484.75 494.25,-454.25 600.25,-454.25 600.25,-484.75"/>
<text text-anchor="start" x="502.25" y="-471.25" font-family="Helvetica,sans-Serif" font-size="10.00">include/v8&#45;embedder</text>
<text text-anchor="middle" x="547.25" y="-460" font-family="Helvetica,sans-Serif" font-size="10.00">&#45;heap.h</text>
</a>
</g>
</g>
<!-- Node11&#45;&gt;Node38 -->
<g id="edge89" class="edge">
<title>Node11&#45;&gt;Node38</title>
<path fill="none" stroke="#63b8ff" d="M1526.89,-584.42C1313.51,-583.4 696.61,-577.23 614.25,-540 588.44,-528.33 567.51,-501.78 556.26,-485.08"/>
<polygon fill="#63b8ff" stroke="#63b8ff" points="1526.63,-587.93 1536.65,-584.47 1526.66,-580.93 1526.63,-587.93"/>
</g>
<!-- Node39 -->
<g id="node39" class="node">
<title>Node39</title>
<g id="a_node39"><a xlink:href="v8-exception_8h.html" target="_top" xlink:title=" ">
<polygon fill="white" stroke="#666666" points="1487.25,-157.88 1375.25,-157.88 1375.25,-138.62 1487.25,-138.62 1487.25,-157.88"/>
<text text-anchor="middle" x="1431.25" y="-144.38" font-family="Helvetica,sans-Serif" font-size="10.00">include/v8&#45;exception.h</text>
</a>
</g>
</g>
<!-- Node11&#45;&gt;Node39 -->
<g id="edge92" class="edge">
<title>Node11&#45;&gt;Node39</title>
<path fill="none" stroke="#63b8ff" d="M1571.88,-570.31C1558.43,-562.47 1542.52,-551.92 1530.25,-540 1508.88,-519.23 1504.77,-511.8 1492.25,-484.75 1436.68,-364.67 1431.65,-198.54 1431.26,-158.29"/>
<polygon fill="#63b8ff" stroke="#63b8ff" points="1569.72,-573.67 1580.15,-575.52 1573.15,-567.57 1569.72,-573.67"/>
</g>
<!-- Node40 -->
<g id="node40" class="node">
<title>Node40</title>
<g id="a_node40"><a xlink:href="v8-forward_8h.html" target="_top" xlink:title=" ">
<polygon fill="white" stroke="#666666" points="2280.75,-540 2177.75,-540 2177.75,-520.75 2280.75,-520.75 2280.75,-540"/>
<text text-anchor="middle" x="2229.25" y="-526.5" font-family="Helvetica,sans-Serif" font-size="10.00">include/v8&#45;forward.h</text>
</a>
</g>
</g>
<!-- Node11&#45;&gt;Node40 -->
<g id="edge96" class="edge">
<title>Node11&#45;&gt;Node40</title>
<path fill="none" stroke="#63b8ff" d="M1671.39,-580.1C1778.75,-573.1 1986.88,-558.49 2163.25,-540 2167.85,-539.52 2172.62,-538.98 2177.4,-538.4"/>
<polygon fill="#63b8ff" stroke="#63b8ff" points="1671.44,-576.65 1661.69,-580.79 1671.89,-583.64 1671.44,-576.65"/>
</g>
<!-- Node41 -->
<g id="node41" class="node">
<title>Node41</title>
<g id="a_node41"><a xlink:href="v8-json_8h.html" target="_top" xlink:title=" ">
<polygon fill="white" stroke="#666666" points="1593.62,-157.88 1504.88,-157.88 1504.88,-138.62 1593.62,-138.62 1593.62,-157.88"/>
<text text-anchor="middle" x="1549.25" y="-144.38" font-family="Helvetica,sans-Serif" font-size="10.00">include/v8&#45;json.h</text>
</a>
</g>
</g>
<!-- Node11&#45;&gt;Node41 -->
<g id="edge101" class="edge">
<title>Node11&#45;&gt;Node41</title>
<path fill="none" stroke="#63b8ff" d="M1576.92,-569.32C1566.8,-561.49 1555.32,-551.25 1547.25,-540 1494.63,-466.7 1488.45,-440.32 1471.25,-351.75 1456.02,-273.35 1519.51,-185.93 1541.78,-158.19"/>
<polygon fill="#63b8ff" stroke="#63b8ff" points="1574.57,-572.67 1584.7,-575.79 1578.73,-567.04 1574.57,-572.67"/>
</g>
<!-- Node11&#45;&gt;Node42 -->
<g id="edge104" class="edge">
<title>Node11&#45;&gt;Node42</title>
<path fill="none" stroke="#63b8ff" d="M1671.52,-583.33C1831.67,-579.99 2228.43,-569.25 2559.25,-540 2563.85,-539.59 2568.63,-539.1 2573.41,-538.56"/>
<polygon fill="#63b8ff" stroke="#63b8ff" points="1671.79,-579.84 1661.86,-583.54 1671.93,-586.84 1671.79,-579.84"/>
</g>
<!-- Node43 -->
<g id="node43" class="node">
<title>Node43</title>
<g id="a_node43"><a xlink:href="v8-microtask-queue_8h.html" target="_top" xlink:title=" ">
<polygon fill="white" stroke="#666666" points="1684.25,-97 1578.25,-97 1578.25,-66.5 1684.25,-66.5 1684.25,-97"/>
<text text-anchor="start" x="1586.25" y="-83.5" font-family="Helvetica,sans-Serif" font-size="10.00">include/v8&#45;microtask</text>
<text text-anchor="middle" x="1631.25" y="-72.25" font-family="Helvetica,sans-Serif" font-size="10.00">&#45;queue.h</text>
</a>
</g>
</g>
<!-- Node11&#45;&gt;Node43 -->
<g id="edge105" class="edge">
<title>Node11&#45;&gt;Node43</title>
<path fill="none" stroke="#63b8ff" d="M1587.23,-566.69C1555.02,-516.23 1472.16,-369.31 1517.25,-254.75 1537.55,-203.18 1573.4,-210.83 1602.25,-163.5 1615.27,-142.13 1623.69,-114.03 1627.94,-97.24"/>
<polygon fill="#63b8ff" stroke="#63b8ff" points="1584.72,-568.23 1593.11,-574.7 1590.58,-564.41 1584.72,-568.23"/>
</g>
<!-- Node11&#45;&gt;Node44 -->
<g id="edge108" class="edge">
<title>Node11&#45;&gt;Node44</title>
<path fill="none" stroke="#63b8ff" d="M1527.08,-582.58C1429.02,-578.77 1259.67,-568.21 1205.25,-540 1150.54,-511.64 1108.97,-447.57 1092.27,-418.65"/>
<polygon fill="#63b8ff" stroke="#63b8ff" points="1526.67,-586.1 1536.8,-582.98 1526.94,-579.11 1526.67,-586.1"/>
</g>
<!-- Node11&#45;&gt;Node45 -->
<g id="edge121" class="edge">
<title>Node11&#45;&gt;Node45</title>
<path fill="none" stroke="#63b8ff" d="M1526.75,-584.53C1334.27,-583.74 794.49,-578.01 347.25,-540 344.46,-539.76 341.6,-539.49 338.72,-539.19"/>
<polygon fill="#63b8ff" stroke="#63b8ff" points="1526.55,-588.03 1536.57,-584.57 1526.58,-581.03 1526.55,-588.03"/>
</g>
<!-- Node11&#45;&gt;Node46 -->
<g id="edge126" class="edge">
<title>Node11&#45;&gt;Node46</title>
<path fill="none" stroke="#63b8ff" d="M1526.56,-583.39C1350.34,-580.01 886.38,-568.88 500.25,-540 495.71,-539.66 491.03,-539.26 486.31,-538.83"/>
<polygon fill="#63b8ff" stroke="#63b8ff" points="1526.44,-586.9 1536.5,-583.59 1526.57,-579.9 1526.44,-586.9"/>
</g>
<!-- Node47 -->
<g id="node47" class="node">
<title>Node47</title>
<g id="a_node47"><a xlink:href="v8-value-serializer_8h.html" target="_top" xlink:title=" ">
<polygon fill="white" stroke="#666666" points="2984.88,-479.12 2849.62,-479.12 2849.62,-459.88 2984.88,-459.88 2984.88,-479.12"/>
<text text-anchor="middle" x="2917.25" y="-465.62" font-family="Helvetica,sans-Serif" font-size="10.00">include/v8&#45;value&#45;serializer.h</text>
</a>
</g>
</g>
<!-- Node11&#45;&gt;Node47 -->
<g id="edge132" class="edge">
<title>Node11&#45;&gt;Node47</title>
<path fill="none" stroke="#63b8ff" d="M1671.72,-584.09C1935.09,-581.91 2828.79,-572.14 2880.25,-540 2902.28,-526.24 2911.99,-494.62 2915.53,-479.23"/>
<polygon fill="#63b8ff" stroke="#63b8ff" points="1671.74,-580.6 1661.77,-584.18 1671.8,-587.6 1671.74,-580.6"/>
</g>
<!-- Node12&#45;&gt;Node5 -->
<g id="edge16" class="edge">
<title>Node12&#45;&gt;Node5</title>
<path fill="none" stroke="#63b8ff" d="M1532.61,-257.66C1460.91,-242.55 1328.4,-215.83 1214.25,-199.5 1047.99,-175.72 849.39,-159.53 758.34,-152.78"/>
<polygon fill="#63b8ff" stroke="#63b8ff" points="1531.65,-261.24 1542.16,-259.89 1533.1,-254.39 1531.65,-261.24"/>
</g>
<!-- Node12&#45;&gt;Node7 -->
<g id="edge20" class="edge">
<title>Node12&#45;&gt;Node7</title>
<path fill="none" stroke="#63b8ff" d="M1597,-251.01C1629.63,-201.01 1720.57,-61.71 1744.45,-25.14"/>
<polygon fill="#63b8ff" stroke="#63b8ff" points="1593.66,-248.72 1591.12,-259 1599.52,-252.54 1593.66,-248.72"/>
</g>
<!-- Node12&#45;&gt;Node13 -->
<g id="edge17" class="edge">
<title>Node12&#45;&gt;Node13</title>
<path fill="none" stroke="#63b8ff" d="M1655.66,-258.98C1667.53,-257.45 1679.73,-255.98 1691.25,-254.75 1876.41,-235.05 2096.4,-220.19 2199.87,-213.71"/>
<polygon fill="#63b8ff" stroke="#63b8ff" points="1655.34,-255.62 1645.88,-260.4 1656.26,-262.56 1655.34,-255.62"/>
</g>
<!-- Node13&#45;&gt;Node7 -->
<g id="edge19" class="edge">
<title>Node13&#45;&gt;Node7</title>
<path fill="none" stroke="#63b8ff" d="M2255.38,-188.82C2247.98,-157.4 2228.62,-95.79 2186.25,-66.5 2121.3,-21.6 1875.76,-16.47 1784.59,-16.14"/>
<polygon fill="#63b8ff" stroke="#63b8ff" points="2252.1,-189.23 2257.65,-198.25 2258.94,-187.73 2252.1,-189.23"/>
</g>
<!-- Node13&#45;&gt;Node10 -->
<g id="edge18" class="edge">
<title>Node13&#45;&gt;Node10</title>
<path fill="none" stroke="#63b8ff" d="M2329.36,-200.54C2441.6,-188.39 2658.78,-164.89 2755.16,-154.45"/>
<polygon fill="#63b8ff" stroke="#63b8ff" points="2329.07,-197.16 2319.5,-201.71 2329.82,-204.12 2329.07,-197.16"/>
</g>
<!-- Node14&#45;&gt;Node5 -->
<g id="edge23" class="edge">
<title>Node14&#45;&gt;Node5</title>
<path fill="none" stroke="#63b8ff" d="M646.01,-192.88C661.66,-181.9 682.25,-167.47 695.37,-158.28"/>
<polygon fill="#63b8ff" stroke="#63b8ff" points="644.19,-190.58 638.01,-199.18 648.21,-196.31 644.19,-190.58"/>
</g>
<!-- Node14&#45;&gt;Node6 -->
<g id="edge22" class="edge">
<title>Node14&#45;&gt;Node6</title>
<path fill="none" stroke="#63b8ff" d="M630.35,-189.1C635.28,-173.87 642.5,-151.99 649.25,-133 654.43,-118.41 660.88,-101.61 664.78,-91.61"/>
<polygon fill="#63b8ff" stroke="#63b8ff" points="626.8,-187.7 627.06,-198.3 633.46,-189.85 626.8,-187.7"/>
</g>
<!-- Node15&#45;&gt;Node7 -->
<g id="edge25" class="edge">
<title>Node15&#45;&gt;Node7</title>
<path fill="none" stroke="#63b8ff" d="M2626.19,-252.86C2580.26,-212.89 2453.62,-109.45 2327.25,-66.5 2225.62,-31.95 1892.19,-20.08 1784.28,-17.09"/>
<polygon fill="#63b8ff" stroke="#63b8ff" points="2623.46,-255.99 2633.28,-259.97 2628.08,-250.74 2623.46,-255.99"/>
</g>
<!-- Node16&#45;&gt;Node3 -->
<g id="edge27" class="edge">
<title>Node16&#45;&gt;Node3</title>
<path fill="none" stroke="#63b8ff" d="M398.54,-454.38C378.45,-443.76 351,-429.25 330.73,-418.53"/>
<polygon fill="#63b8ff" stroke="#63b8ff" points="396.55,-457.82 407.03,-459.4 399.82,-451.63 396.55,-457.82"/>
</g>
<!-- Node16&#45;&gt;Node7 -->
<g id="edge30" class="edge">
<title>Node16&#45;&gt;Node7</title>
<path fill="none" stroke="#63b8ff" d="M413.09,-450.58C380.52,-402.18 292.89,-269.1 279.25,-218.75 255.76,-132.02 360.12,-87.94 408.25,-66.5 530.84,-11.89 1518.52,-14.87 1715.97,-16.02"/>
<polygon fill="#63b8ff" stroke="#63b8ff" points="410.66,-452.23 419.15,-458.56 416.46,-448.31 410.66,-452.23"/>
</g>
<!-- Node16&#45;&gt;Node17 -->
<g id="edge28" class="edge">
<title>Node16&#45;&gt;Node17</title>
<path fill="none" stroke="#63b8ff" d="M469.42,-457.07C474.72,-455.98 480.09,-455 485.25,-454.25 630.84,-433.17 1007.73,-467.77 1146.25,-418.25 1232.6,-387.38 1313.78,-306.66 1339.13,-279.82"/>
<polygon fill="#63b8ff" stroke="#63b8ff" points="468.69,-453.87 459.68,-459.44 470.2,-460.7 468.69,-453.87"/>
</g>
<!-- Node17&#45;&gt;Node7 -->
<g id="edge29" class="edge">
<title>Node17&#45;&gt;Node7</title>
<path fill="none" stroke="#63b8ff" d="M1344.72,-249.17C1342.18,-220.74 1341.62,-167.98 1366.25,-133 1402.94,-80.91 1433.13,-87.61 1493.25,-66.5 1570.46,-39.39 1666.15,-25.56 1716.16,-19.74"/>
<polygon fill="#63b8ff" stroke="#63b8ff" points="1341.35,-249.49 1345.9,-259.06 1348.3,-248.74 1341.35,-249.49"/>
</g>
<!-- Node18&#45;&gt;Node5 -->
<g id="edge34" class="edge">
<title>Node18&#45;&gt;Node5</title>
<path fill="none" stroke="#63b8ff" d="M844.47,-511.44C834.19,-496.03 818.71,-473.34 804.25,-454.25 781.09,-423.68 779.7,-411.07 749.25,-387.75 718.62,-364.29 691.12,-384.2 670.25,-351.75 662.92,-340.35 669.84,-334.8 670.25,-321.25 671.14,-291.65 667.57,-283.6 674.25,-254.75 678.16,-237.86 683.62,-235.14 689.25,-218.75 696.56,-197.46 702.99,-171.75 706.15,-158.36"/>
<polygon fill="#63b8ff" stroke="#63b8ff" points="841.97,-513.01 850.41,-519.41 847.8,-509.14 841.97,-513.01"/>
</g>
<!-- Node18&#45;&gt;Node7 -->
<g id="edge87" class="edge">
<title>Node18&#45;&gt;Node7</title>
<path fill="none" stroke="#63b8ff" d="M822.91,-516.09C767.09,-492.07 655.15,-435.95 597.25,-351.75 525.42,-247.28 499.18,-144.35 599.25,-66.5 644.44,-31.34 1529.8,-18.88 1716.05,-16.64"/>
<polygon fill="#63b8ff" stroke="#63b8ff" points="821.4,-519.68 831.98,-520.34 824.12,-513.23 821.4,-519.68"/>
</g>
<!-- Node18&#45;&gt;Node14 -->
<g id="edge32" class="edge">
<title>Node18&#45;&gt;Node14</title>
<path fill="none" stroke="#63b8ff" d="M836.67,-513.65C826.68,-505.36 814.51,-494.84 804.25,-484.75 763.18,-444.34 766.15,-419.77 718.25,-387.75 677.59,-360.56 642.62,-391.59 614.25,-351.75 584.65,-310.19 609.46,-243.24 620.04,-219.14"/>
<polygon fill="#63b8ff" stroke="#63b8ff" points="834.16,-516.93 844.11,-520.56 838.59,-511.52 834.16,-516.93"/>
</g>
<!-- Node18&#45;&gt;Node16 -->
<g id="edge33" class="edge">
<title>Node18&#45;&gt;Node16</title>
<path fill="none" stroke="#63b8ff" d="M800.43,-524.65C727.57,-518.03 596.27,-504.54 485.25,-484.75 477.24,-483.32 468.7,-481.49 460.64,-479.61"/>
<polygon fill="#63b8ff" stroke="#63b8ff" points="799.9,-528.21 810.18,-525.62 800.53,-521.24 799.9,-528.21"/>
</g>
<!-- Node18&#45;&gt;Node19 -->
<g id="edge35" class="edge">
<title>Node18&#45;&gt;Node19</title>
<path fill="none" stroke="#63b8ff" d="M912.06,-523C1100.76,-501.43 1713.43,-431.41 1899.3,-410.17"/>
<polygon fill="#63b8ff" stroke="#63b8ff" points="911.84,-519.61 902.3,-524.23 912.63,-526.57 911.84,-519.61"/>
</g>
<!-- Node18&#45;&gt;Node23 -->
<g id="edge79" class="edge">
<title>Node18&#45;&gt;Node23</title>
<path fill="none" stroke="#63b8ff" d="M912.07,-518.72C1094.41,-483.78 1662.74,-373.61 1696.25,-351.75 1724.15,-333.55 1742.95,-296.89 1750.51,-279.96"/>
<polygon fill="#63b8ff" stroke="#63b8ff" points="911.55,-515.45 902.39,-520.77 912.87,-522.33 911.55,-515.45"/>
</g>
<!-- Node18&#45;&gt;Node27 -->
<g id="edge78" class="edge">
<title>Node18&#45;&gt;Node27</title>
<path fill="none" stroke="#63b8ff" d="M853.29,-509.75C845.42,-457.65 824.23,-317.27 818.63,-280.12"/>
<polygon fill="#63b8ff" stroke="#63b8ff" points="849.95,-510.12 854.91,-519.48 856.88,-509.07 849.95,-510.12"/>
</g>
<!-- Node18&#45;&gt;Node36 -->
<g id="edge80" class="edge">
<title>Node18&#45;&gt;Node36</title>
<path fill="none" stroke="#63b8ff" d="M912.05,-527.6C1188.18,-518.82 2405.43,-480.13 2661.05,-472"/>
<polygon fill="#63b8ff" stroke="#63b8ff" points="912,-524.13 902.11,-527.95 912.22,-531.13 912,-524.13"/>
</g>
<!-- Node19&#45;&gt;Node5 -->
<g id="edge46" class="edge">
<title>Node19&#45;&gt;Node5</title>
<path fill="none" stroke="#63b8ff" d="M1888.58,-393.51C1814.17,-383.69 1688.33,-366.93 1580.25,-351.75 1554.95,-348.2 1148.3,-296.26 1125.25,-285.25 1107.23,-276.64 1110.12,-263.67 1092.25,-254.75 1012.22,-214.81 980.48,-242.5 894.25,-218.75 832.6,-201.77 762.63,-172.91 728.77,-158.3"/>
<polygon fill="#63b8ff" stroke="#63b8ff" points="1887.8,-397.07 1898.17,-394.91 1888.72,-390.13 1887.8,-397.07"/>
</g>
<!-- Node19&#45;&gt;Node7 -->
<g id="edge77" class="edge">
<title>Node19&#45;&gt;Node7</title>
<path fill="none" stroke="#63b8ff" d="M2018.26,-400.86C2182.36,-396.65 2607.5,-376.92 2708.25,-285.25 2733.72,-262.07 2727.25,-244.57 2727.25,-210.12 2727.25,-210.12 2727.25,-210.12 2727.25,-147.25 2727.25,-50.02 1957.37,-22.18 1784.45,-17.16"/>
<polygon fill="#63b8ff" stroke="#63b8ff" points="2018.28,-397.39 2008.37,-401.13 2018.45,-404.38 2018.28,-397.39"/>
</g>
<!-- Node19&#45;&gt;Node20 -->
<g id="edge36" class="edge">
<title>Node19&#45;&gt;Node20</title>
<path fill="none" stroke="#63b8ff" d="M1997.94,-390.09C2045.15,-377.51 2118.56,-357.94 2161.26,-346.56"/>
<polygon fill="#63b8ff" stroke="#63b8ff" points="1997.17,-386.94 1988.41,-392.9 1998.97,-393.7 1997.17,-386.94"/>
</g>
<!-- Node19&#45;&gt;Node21 -->
<g id="edge38" class="edge">
<title>Node19&#45;&gt;Node21</title>
<path fill="none" stroke="#63b8ff" d="M1898.08,-390.7C1838.52,-378.51 1744.53,-359.26 1687.41,-347.57"/>
<polygon fill="#63b8ff" stroke="#63b8ff" points="1897.29,-394.32 1907.79,-392.9 1898.69,-387.46 1897.29,-394.32"/>
</g>
<!-- Node19&#45;&gt;Node25 -->
<g id="edge47" class="edge">
<title>Node19&#45;&gt;Node25</title>
<path fill="none" stroke="#63b8ff" d="M1934.03,-386.31C1918.79,-373.86 1898.01,-356.9 1885.4,-346.6"/>
<polygon fill="#63b8ff" stroke="#63b8ff" points="1931.31,-389.42 1941.27,-393.03 1935.73,-384 1931.31,-389.42"/>
</g>
<!-- Node19&#45;&gt;Node29 -->
<g id="edge56" class="edge">
<title>Node19&#45;&gt;Node29</title>
<path fill="none" stroke="#63b8ff" d="M1972.95,-386.31C1988.58,-373.86 2009.89,-356.9 2022.82,-346.6"/>
<polygon fill="#63b8ff" stroke="#63b8ff" points="1971.16,-384.06 1965.51,-393.03 1975.52,-389.54 1971.16,-384.06"/>
</g>
<!-- Node20&#45;&gt;Node7 -->
<g id="edge37" class="edge">
<title>Node20&#45;&gt;Node7</title>
<path fill="none" stroke="#63b8ff" d="M2189.43,-316.1C2182.62,-291.64 2172.25,-248.16 2172.25,-210.12 2172.25,-210.12 2172.25,-210.12 2172.25,-147.25 2172.25,-109.81 2176.8,-90.73 2148.25,-66.5 2093.76,-20.25 1870.8,-15.86 1784.55,-15.94"/>
<polygon fill="#63b8ff" stroke="#63b8ff" points="2186.29,-316.84 2192.43,-325.48 2193.02,-314.9 2186.29,-316.84"/>
</g>
<!-- Node21&#45;&gt;Node5 -->
<g id="edge41" class="edge">
<title>Node21&#45;&gt;Node5</title>
<path fill="none" stroke="#63b8ff" d="M1578.36,-326.62C1564.85,-324.73 1550.57,-322.84 1537.25,-321.25 1373.63,-301.74 1322.63,-342.85 1168.25,-285.25 1146.3,-277.06 1146.61,-264.37 1125.25,-254.75 1061.16,-225.88 1039.46,-235.73 971.25,-218.75 888.3,-198.1 791.18,-171.91 741.39,-158.33"/>
<polygon fill="#63b8ff" stroke="#63b8ff" points="1577.6,-330.19 1587.99,-328.12 1578.58,-323.25 1577.6,-330.19"/>
</g>
<!-- Node21&#45;&gt;Node22 -->
<g id="edge39" class="edge">
<title>Node21&#45;&gt;Node22</title>
<path fill="none" stroke="#63b8ff" d="M1648.8,-310.96C1657.69,-293 1672.05,-269.33 1691.25,-254.75 1716.55,-235.55 1750.35,-224.47 1778.4,-218.15"/>
<polygon fill="#63b8ff" stroke="#63b8ff" points="1645.28,-309.22 1644.2,-319.76 1651.62,-312.19 1645.28,-309.22"/>
</g>
<!-- Node21&#45;&gt;Node23 -->
<g id="edge42" class="edge">
<title>Node21&#45;&gt;Node23</title>
<path fill="none" stroke="#63b8ff" d="M1674.01,-315.61C1695.4,-303.72 1721.54,-289.19 1738.05,-280.01"/>
<polygon fill="#63b8ff" stroke="#63b8ff" points="1672.61,-312.95 1665.57,-320.86 1676.01,-319.06 1672.61,-312.95"/>
</g>
<!-- Node24 -->
<g id="node24" class="node">
<title>Node24</title>
<g id="a_node24"><a xlink:href="v8-util_8h.html" target="_top" xlink:title=" ">
<polygon fill="white" stroke="#666666" points="966,-279.62 882.5,-279.62 882.5,-260.38 966,-260.38 966,-279.62"/>
<text text-anchor="middle" x="924.25" y="-266.12" font-family="Helvetica,sans-Serif" font-size="10.00">include/v8&#45;util.h</text>
</a>
</g>
</g>
<!-- Node21&#45;&gt;Node24 -->
<g id="edge45" class="edge">
<title>Node21&#45;&gt;Node24</title>
<path fill="none" stroke="#63b8ff" d="M1577.99,-332.5C1437.1,-325.24 1089.35,-305.79 974.25,-285.25 967.05,-283.97 959.4,-282.07 952.31,-280.07"/>
<polygon fill="#63b8ff" stroke="#63b8ff" points="1577.81,-336.05 1587.98,-333.07 1578.17,-329.06 1577.81,-336.05"/>
</g>
<!-- Node22&#45;&gt;Node7 -->
<g id="edge40" class="edge">
<title>Node22&#45;&gt;Node7</title>
<path fill="none" stroke="#63b8ff" d="M1823.25,-189.18C1806.08,-148.51 1766.26,-54.18 1753.95,-25.01"/>
<polygon fill="#63b8ff" stroke="#63b8ff" points="1820.34,-190.28 1827.45,-198.13 1826.79,-187.55 1820.34,-190.28"/>
</g>
<!-- Node23&#45;&gt;Node7 -->
<g id="edge44" class="edge">
<title>Node23&#45;&gt;Node7</title>
<path fill="none" stroke="#63b8ff" d="M1753.93,-249.09C1753.12,-197.54 1750.96,-61.25 1750.39,-25.14"/>
<polygon fill="#63b8ff" stroke="#63b8ff" points="1750.45,-249.06 1754.11,-259 1757.45,-248.95 1750.45,-249.06"/>
</g>
<!-- Node23&#45;&gt;Node22 -->
<g id="edge43" class="edge">
<title>Node23&#45;&gt;Node22</title>
<path fill="none" stroke="#63b8ff" d="M1774.6,-253.44C1788.9,-242.51 1807.53,-228.26 1819.45,-219.15"/>
<polygon fill="#63b8ff" stroke="#63b8ff" points="1772.76,-251.2 1766.94,-260.06 1777.01,-256.76 1772.76,-251.2"/>
</g>
<!-- Node25&#45;&gt;Node7 -->
<g id="edge55" class="edge">
<title>Node25&#45;&gt;Node7</title>
<path fill="none" stroke="#63b8ff" d="M1883.71,-316.77C1894.97,-292.72 1912.25,-249.39 1912.25,-210.12 1912.25,-210.12 1912.25,-210.12 1912.25,-147.25 1912.25,-80.15 1827.19,-41.51 1780.34,-25.32"/>
<polygon fill="#63b8ff" stroke="#63b8ff" points="1880.13,-315.13 1878.91,-325.66 1886.43,-318.19 1880.13,-315.13"/>
</g>
<!-- Node25&#45;&gt;Node22 -->
<g id="edge48" class="edge">
<title>Node25&#45;&gt;Node22</title>
<path fill="none" stroke="#63b8ff" d="M1869.11,-315.94C1864.62,-299.46 1857.67,-275.34 1850.25,-254.75 1845.74,-242.23 1839.56,-228.17 1835.49,-219.23"/>
<polygon fill="#63b8ff" stroke="#63b8ff" points="1865.95,-316.68 1871.92,-325.43 1872.71,-314.86 1865.95,-316.68"/>
</g>
<!-- Node25&#45;&gt;Node26 -->
<g id="edge49" class="edge">
<title>Node25&#45;&gt;Node26</title>
<path fill="none" stroke="#63b8ff" d="M1807.96,-330.01C1774.48,-327.28 1733.21,-323.99 1696.25,-321.25 1461.68,-303.86 1402.58,-305.6 1168.25,-285.25 1140.07,-282.8 1108.65,-279.52 1083.21,-276.72"/>
<polygon fill="#63b8ff" stroke="#63b8ff" points="1807.29,-333.54 1817.54,-330.87 1807.86,-326.57 1807.29,-333.54"/>
</g>
<!-- Node25&#45;&gt;Node27 -->
<g id="edge50" class="edge">
<title>Node25&#45;&gt;Node27</title>
<path fill="none" stroke="#63b8ff" d="M1807.99,-329.62C1774.51,-326.8 1733.24,-323.54 1696.25,-321.25 1330.82,-298.64 1235.46,-338.68 873.25,-285.25 865.01,-284.03 856.23,-282.11 848.12,-280.06"/>
<polygon fill="#63b8ff" stroke="#63b8ff" points="1807.31,-333.16 1817.57,-330.52 1807.9,-326.19 1807.31,-333.16"/>
</g>
<!-- Node27&#45;&gt;Node7 -->
<g id="edge54" class="edge">
<title>Node27&#45;&gt;Node7</title>
<path fill="none" stroke="#63b8ff" d="M860.33,-257.38C864.67,-256.4 869.04,-255.5 873.25,-254.75 1023.26,-227.89 1078.53,-288.06 1214.25,-218.75 1295.58,-177.21 1271.12,-108.43 1352.25,-66.5 1415.51,-33.8 1631.68,-21.28 1716.09,-17.56"/>
<polygon fill="#63b8ff" stroke="#63b8ff" points="859.57,-254.2 850.65,-259.91 861.19,-261.01 859.57,-254.2"/>
</g>
<!-- Node28 -->
<g id="node28" class="node">
<title>Node28</title>
<g id="a_node28"><a xlink:href="v8-debug_8h.html" target="_top" xlink:title=" ">
<polygon fill="white" stroke="#666666" points="1076.75,-218.75 979.75,-218.75 979.75,-199.5 1076.75,-199.5 1076.75,-218.75"/>
<text text-anchor="middle" x="1028.25" y="-205.25" font-family="Helvetica,sans-Serif" font-size="10.00">include/v8&#45;debug.h</text>
</a>
</g>
</g>
<!-- Node27&#45;&gt;Node28 -->
<g id="edge51" class="edge">
<title>Node27&#45;&gt;Node28</title>
<path fill="none" stroke="#63b8ff" d="M860.29,-256.99C900.41,-245.8 959.37,-229.34 995.71,-219.21"/>
<polygon fill="#63b8ff" stroke="#63b8ff" points="859.45,-253.87 850.76,-259.93 861.33,-260.61 859.45,-253.87"/>
</g>
<!-- Node28&#45;&gt;Node5 -->
<g id="edge52" class="edge">
<title>Node28&#45;&gt;Node5</title>
<path fill="none" stroke="#63b8ff" d="M968.71,-197.17C907.91,-185.98 814.6,-168.82 757.72,-158.35"/>
<polygon fill="#63b8ff" stroke="#63b8ff" points="967.83,-200.75 978.3,-199.12 969.1,-193.87 967.83,-200.75"/>
</g>
<!-- Node28&#45;&gt;Node7 -->
<g id="edge53" class="edge">
<title>Node28&#45;&gt;Node7</title>
<path fill="none" stroke="#63b8ff" d="M1041.31,-190.45C1065.62,-159.1 1121.22,-94.43 1185.25,-66.5 1281.38,-24.57 1608.68,-17.63 1715.92,-16.48"/>
<polygon fill="#63b8ff" stroke="#63b8ff" points="1038.05,-187.95 1034.79,-198.04 1043.63,-192.19 1038.05,-187.95"/>
</g>
<!-- Node29&#45;&gt;Node7 -->
<g id="edge76" class="edge">
<title>Node29&#45;&gt;Node7</title>
<path fill="none" stroke="#63b8ff" d="M2051.86,-318.95C2060.66,-309.78 2070.78,-297.74 2077.25,-285.25 2093.09,-254.67 2096.25,-244.57 2096.25,-210.12 2096.25,-210.12 2096.25,-210.12 2096.25,-147.25 2096.25,-81.01 1871.66,-36.47 1784.37,-21.66"/>
<polygon fill="#63b8ff" stroke="#63b8ff" points="2049.91,-315.95 2045.29,-325.48 2054.85,-320.91 2049.91,-315.95"/>
</g>
<!-- Node29&#45;&gt;Node12 -->
<g id="edge57" class="edge">
<title>Node29&#45;&gt;Node12</title>
<path fill="none" stroke="#63b8ff" d="M1974.57,-326.58C1962.54,-324.8 1949.99,-322.96 1938.25,-321.25 1835.18,-306.26 1715.12,-289.27 1644.91,-279.38"/>
<polygon fill="#63b8ff" stroke="#63b8ff" points="1974.02,-330.19 1984.42,-328.19 1975.04,-323.26 1974.02,-330.19"/>
</g>
<!-- Node29&#45;&gt;Node15 -->
<g id="edge58" class="edge">
<title>Node29&#45;&gt;Node15</title>
<path fill="none" stroke="#63b8ff" d="M2093.86,-326.01C2105.89,-324.28 2118.46,-322.6 2130.25,-321.25 2329.6,-298.51 2381.85,-315.13 2580.25,-285.25 2589.14,-283.91 2598.64,-282.04 2607.53,-280.1"/>
<polygon fill="#63b8ff" stroke="#63b8ff" points="2093.39,-322.69 2084,-327.61 2094.41,-329.62 2093.39,-322.69"/>
</g>
<!-- Node29&#45;&gt;Node17 -->
<g id="edge70" class="edge">
<title>Node29&#45;&gt;Node17</title>
<path fill="none" stroke="#63b8ff" d="M1974.64,-326.06C1962.61,-324.32 1950.04,-322.62 1938.25,-321.25 1924.76,-319.68 1532.02,-286.56 1394.36,-274.97"/>
<polygon fill="#63b8ff" stroke="#63b8ff" points="1974.09,-329.66 1984.49,-327.66 1975.11,-322.74 1974.09,-329.66"/>
</g>
<!-- Node29&#45;&gt;Node22 -->
<g id="edge61" class="edge">
<title>Node29&#45;&gt;Node22</title>
<path fill="none" stroke="#63b8ff" d="M2010.37,-320.75C1967.96,-294.56 1880.72,-240.68 1845.99,-219.23"/>
<polygon fill="#63b8ff" stroke="#63b8ff" points="2008.3,-324.21 2018.65,-326.48 2011.98,-318.25 2008.3,-324.21"/>
</g>
<!-- Node29&#45;&gt;Node23 -->
<g id="edge73" class="edge">
<title>Node29&#45;&gt;Node23</title>
<path fill="none" stroke="#63b8ff" d="M1984.26,-323.98C1929.71,-311.42 1843.5,-291.56 1793.57,-280.06"/>
<polygon fill="#63b8ff" stroke="#63b8ff" points="1983.2,-327.56 1993.73,-326.4 1984.77,-320.74 1983.2,-327.56"/>
</g>
<!-- Node29&#45;&gt;Node30 -->
<g id="edge59" class="edge">
<title>Node29&#45;&gt;Node30</title>
<path fill="none" stroke="#63b8ff" d="M2030.89,-315.77C2028.84,-303.8 2026.34,-289.1 2024.77,-279.89"/>
<polygon fill="#63b8ff" stroke="#63b8ff" points="2027.59,-316.26 2032.72,-325.53 2034.49,-315.09 2027.59,-316.26"/>
</g>
<!-- Node29&#45;&gt;Node31 -->
<g id="edge62" class="edge">
<title>Node29&#45;&gt;Node31</title>
<path fill="none" stroke="#63b8ff" d="M2080.64,-323.72C2125.22,-312.4 2192.38,-295.35 2238.15,-283.72"/>
<polygon fill="#63b8ff" stroke="#63b8ff" points="2079.93,-320.54 2071.1,-326.4 2081.66,-327.33 2079.93,-320.54"/>
</g>
<!-- Node29&#45;&gt;Node32 -->
<g id="edge64" class="edge">
<title>Node29&#45;&gt;Node32</title>
<path fill="none" stroke="#63b8ff" d="M1974.66,-325.79C1962.63,-324.07 1950.06,-322.45 1938.25,-321.25 1651.73,-292.08 1576.33,-326.16 1291.25,-285.25 1282.53,-284 1273.22,-282.11 1264.57,-280.12"/>
<polygon fill="#63b8ff" stroke="#63b8ff" points="1974.12,-329.39 1984.52,-327.38 1975.14,-322.47 1974.12,-329.39"/>
</g>
<!-- Node29&#45;&gt;Node34 -->
<g id="edge71" class="edge">
<title>Node29&#45;&gt;Node34</title>
<path fill="none" stroke="#63b8ff" d="M2093.59,-326.54C2170.38,-314.84 2299.9,-294.75 2347.25,-285.25 2354.79,-283.74 2362.83,-281.93 2370.47,-280.11"/>
<polygon fill="#63b8ff" stroke="#63b8ff" points="2093.48,-323.17 2084.12,-328.13 2094.54,-330.09 2093.48,-323.17"/>
</g>
<!-- Node29&#45;&gt;Node35 -->
<g id="edge74" class="edge">
<title>Node29&#45;&gt;Node35</title>
<path fill="none" stroke="#63b8ff" d="M2093.89,-326.27C2105.92,-324.51 2118.48,-322.76 2130.25,-321.25 2278.79,-302.25 2317.82,-311.47 2465.25,-285.25 2473.08,-283.86 2481.43,-281.99 2489.26,-280.07"/>
<polygon fill="#63b8ff" stroke="#63b8ff" points="2093.42,-322.95 2084.04,-327.87 2094.44,-329.87 2093.42,-322.95"/>
</g>
<!-- Node30&#45;&gt;Node7 -->
<g id="edge60" class="edge">
<title>Node30&#45;&gt;Node7</title>
<path fill="none" stroke="#63b8ff" d="M2019.47,-249.37C2010.65,-208.92 1984.83,-115.95 1926.25,-66.5 1885.7,-32.27 1823.16,-21.31 1784.57,-17.84"/>
<polygon fill="#63b8ff" stroke="#63b8ff" points="2016.24,-250.04 2021.68,-259.13 2023.1,-248.63 2016.24,-250.04"/>
</g>
<!-- Node31&#45;&gt;Node7 -->
<g id="edge63" class="edge">
<title>Node31&#45;&gt;Node7</title>
<path fill="none" stroke="#63b8ff" d="M2312.56,-246.45C2323.74,-233.27 2333.32,-216.01 2327.25,-199.5 2300.5,-126.69 2282.79,-102.81 2214.25,-66.5 2139.61,-26.96 1878.76,-18.49 1784.54,-16.71"/>
<polygon fill="#63b8ff" stroke="#63b8ff" points="2310.35,-243.77 2306.13,-253.48 2315.49,-248.52 2310.35,-243.77"/>
</g>
<!-- Node32&#45;&gt;Node7 -->
<g id="edge69" class="edge">
<title>Node32&#45;&gt;Node7</title>
<path fill="none" stroke="#63b8ff" d="M1239.59,-250.38C1261.29,-209.31 1319.39,-111.04 1399.25,-66.5 1453.28,-36.36 1638.85,-22.57 1716.09,-18.04"/>
<polygon fill="#63b8ff" stroke="#63b8ff" points="1236.03,-248.66 1234.55,-259.15 1242.25,-251.87 1236.03,-248.66"/>
</g>
<!-- Node32&#45;&gt;Node14 -->
<g id="edge65" class="edge">
<title>Node32&#45;&gt;Node14</title>
<path fill="none" stroke="#63b8ff" d="M1166.37,-262.3C1143.05,-259.88 1116.46,-257.15 1092.25,-254.75 943.62,-239.99 768.34,-223.53 680.45,-215.34"/>
<polygon fill="#63b8ff" stroke="#63b8ff" points="1165.87,-265.87 1176.18,-263.42 1166.59,-258.91 1165.87,-265.87"/>
</g>
<!-- Node32&#45;&gt;Node33 -->
<g id="edge66" class="edge">
<title>Node32&#45;&gt;Node33</title>
<path fill="none" stroke="#63b8ff" d="M1209.53,-253.75C1194.62,-242.78 1175.01,-228.35 1162.51,-219.15"/>
<polygon fill="#63b8ff" stroke="#63b8ff" points="1206.97,-256.95 1217.1,-260.06 1211.12,-251.31 1206.97,-256.95"/>
</g>
<!-- Node33&#45;&gt;Node5 -->
<g id="edge67" class="edge">
<title>Node33&#45;&gt;Node5</title>
<path fill="none" stroke="#63b8ff" d="M1084.01,-199.2C960.85,-182.73 828.35,-165.15 758.09,-155.85"/>
<polygon fill="#63b8ff" stroke="#63b8ff" points="1083.37,-202.78 1093.75,-200.64 1084.3,-195.84 1083.37,-202.78"/>
</g>
<!-- Node33&#45;&gt;Node7 -->
<g id="edge68" class="edge">
<title>Node33&#45;&gt;Node7</title>
<path fill="none" stroke="#63b8ff" d="M1153.5,-188.75C1159.92,-157.25 1177.39,-95.5 1219.25,-66.5 1260.07,-38.22 1605.28,-22.05 1716.13,-17.55"/>
<polygon fill="#63b8ff" stroke="#63b8ff" points="1149.95,-187.75 1151.56,-198.22 1156.83,-189.03 1149.95,-187.75"/>
</g>
<!-- Node34&#45;&gt;Node7 -->
<g id="edge72" class="edge">
<title>Node34&#45;&gt;Node7</title>
<path fill="none" stroke="#63b8ff" d="M2398.98,-250.01C2381.43,-207.34 2332.24,-104.6 2252.25,-66.5 2169.02,-26.86 1883.25,-18.43 1784.3,-16.69"/>
<polygon fill="#63b8ff" stroke="#63b8ff" points="2396.06,-251.14 2403,-259.14 2402.56,-248.55 2396.06,-251.14"/>
</g>
<!-- Node35&#45;&gt;Node7 -->
<g id="edge75" class="edge">
<title>Node35&#45;&gt;Node7</title>
<path fill="none" stroke="#63b8ff" d="M2508.77,-251.61C2476.01,-210.8 2387.48,-109.14 2287.25,-66.5 2195.92,-27.64 1887.59,-18.68 1784.29,-16.75"/>
<polygon fill="#63b8ff" stroke="#63b8ff" points="2506.45,-253.3 2515.39,-258.98 2511.94,-248.96 2506.45,-253.3"/>
</g>
<!-- Node36&#45;&gt;Node7 -->
<g id="edge86" class="edge">
<title>Node36&#45;&gt;Node7</title>
<path fill="none" stroke="#63b8ff" d="M2733.1,-453.87C2788.49,-419.18 2917.25,-326.05 2917.25,-210.12 2917.25,-210.12 2917.25,-210.12 2917.25,-147.25 2917.25,-108.31 2915.21,-88.75 2883.25,-66.5 2837.05,-34.33 1968.78,-19.53 1784.46,-16.74"/>
<polygon fill="#63b8ff" stroke="#63b8ff" points="2731.65,-451.27 2724.96,-459.48 2735.31,-457.23 2731.65,-451.27"/>
</g>
<!-- Node36&#45;&gt;Node10 -->
<g id="edge83" class="edge">
<title>Node36&#45;&gt;Node10</title>
<path fill="none" stroke="#63b8ff" d="M2717,-449.58C2731.85,-416.79 2762.02,-346.98 2779.25,-285.25 2791.37,-241.83 2798.63,-188.84 2801.63,-163.75"/>
<polygon fill="#63b8ff" stroke="#63b8ff" points="2713.41,-448.01 2712.44,-458.56 2719.78,-450.92 2713.41,-448.01"/>
</g>
<!-- Node36&#45;&gt;Node19 -->
<g id="edge85" class="edge">
<title>Node36&#45;&gt;Node19</title>
<path fill="none" stroke="#63b8ff" d="M2650.4,-463.56C2508.61,-451.44 2145.34,-420.41 2007.45,-408.63"/>
<polygon fill="#63b8ff" stroke="#63b8ff" points="2649.76,-467.1 2660.02,-464.47 2650.36,-460.13 2649.76,-467.1"/>
</g>
<!-- Node36&#45;&gt;Node29 -->
<g id="edge84" class="edge">
<title>Node36&#45;&gt;Node29</title>
<path fill="none" stroke="#63b8ff" d="M2650.79,-457.33C2519.7,-431.85 2200.67,-369.85 2080.8,-346.55"/>
<polygon fill="#63b8ff" stroke="#63b8ff" points="2649.91,-460.92 2660.39,-459.39 2651.24,-454.05 2649.91,-460.92"/>
</g>
<!-- Node37 -->
<g id="node37" class="node">
<title>Node37</title>
<g id="a_node37"><a xlink:href="v8-external_8h.html" target="_top" xlink:title=" ">
<polygon fill="white" stroke="#666666" points="2874.5,-91.38 2770,-91.38 2770,-72.12 2874.5,-72.12 2874.5,-91.38"/>
<text text-anchor="middle" x="2822.25" y="-77.88" font-family="Helvetica,sans-Serif" font-size="10.00">include/v8&#45;external.h</text>
</a>
</g>
</g>
<!-- Node36&#45;&gt;Node37 -->
<g id="edge81" class="edge">
<title>Node36&#45;&gt;Node37</title>
<path fill="none" stroke="#63b8ff" d="M2724.59,-451.49C2732.97,-442.18 2742.93,-430.14 2750.25,-418.25 2814.91,-313.23 2835.29,-284.27 2860.25,-163.5 2862.99,-150.23 2864.56,-145.85 2860.25,-133 2854.68,-116.41 2841.23,-100.93 2831.92,-91.65"/>
<polygon fill="#63b8ff" stroke="#63b8ff" points="2722.4,-448.78 2718.17,-458.49 2727.54,-453.54 2722.4,-448.78"/>
</g>
<!-- Node37&#45;&gt;Node7 -->
<g id="edge82" class="edge">
<title>Node37&#45;&gt;Node7</title>
<path fill="none" stroke="#63b8ff" d="M2765.87,-69.91C2757.64,-68.6 2749.24,-67.4 2741.25,-66.5 2368.07,-24.38 1911.83,-17.56 1784.61,-16.46"/>
<polygon fill="#63b8ff" stroke="#63b8ff" points="2765.12,-73.5 2775.56,-71.7 2766.27,-66.6 2765.12,-73.5"/>
</g>
<!-- Node38&#45;&gt;Node5 -->
<g id="edge90" class="edge">
<title>Node38&#45;&gt;Node5</title>
<path fill="none" stroke="#63b8ff" d="M521.32,-446.75C492.11,-419.45 450.16,-370.23 462.25,-321.25 476.9,-261.9 478.64,-237.85 526.25,-199.5 563.9,-169.17 618.59,-157.11 658.17,-152.33"/>
<polygon fill="#63b8ff" stroke="#63b8ff" points="518.41,-448.74 528.17,-452.85 523.1,-443.55 518.41,-448.74"/>
</g>
<!-- Node39&#45;&gt;Node7 -->
<g id="edge93" class="edge">
<title>Node39&#45;&gt;Node7</title>
<path fill="none" stroke="#63b8ff" d="M1449.71,-131.49C1471.93,-113.3 1511.04,-83.68 1549.25,-66.5 1604.86,-41.5 1674.94,-27.57 1715.96,-21.02"/>
<polygon fill="#63b8ff" stroke="#63b8ff" points="1447.98,-129.21 1442.54,-138.3 1452.46,-134.59 1447.98,-129.21"/>
</g>
<!-- Node41&#45;&gt;Node7 -->
<g id="edge102" class="edge">
<title>Node41&#45;&gt;Node7</title>
<path fill="none" stroke="#63b8ff" d="M1548.82,-127.57C1549.51,-109.36 1553.47,-82.73 1569.25,-66.5 1608.01,-26.64 1675.43,-17.58 1716.14,-15.98"/>
<polygon fill="#63b8ff" stroke="#63b8ff" points="1545.32,-127.34 1548.75,-137.36 1552.32,-127.38 1545.32,-127.34"/>
</g>
<!-- Node43&#45;&gt;Node7 -->
<g id="edge106" class="edge">
<title>Node43&#45;&gt;Node7</title>
<path fill="none" stroke="#63b8ff" d="M1667.64,-61.03C1689.64,-49.1 1716.62,-34.48 1733.63,-25.26"/>
<polygon fill="#63b8ff" stroke="#63b8ff" points="1666.38,-58.27 1659.25,-66.11 1669.71,-64.43 1666.38,-58.27"/>
</g>
<!-- Node44&#45;&gt;Node5 -->
<g id="edge109" class="edge">
<title>Node44&#45;&gt;Node5</title>
<path fill="none" stroke="#63b8ff" d="M1019.9,-398.38C913.8,-391.75 711.65,-376.05 690.25,-351.75 661.76,-319.39 674.93,-295.05 690.25,-254.75 697.86,-234.74 714.64,-238.76 722.25,-218.75 730.21,-197.81 719.78,-171.52 713.08,-158.07"/>
<polygon fill="#63b8ff" stroke="#63b8ff" points="1019.6,-401.93 1029.8,-399.05 1020.03,-394.94 1019.6,-401.93"/>
</g>
<!-- Node44&#45;&gt;Node7 -->
<g id="edge113" class="edge">
<title>Node44&#45;&gt;Node7</title>
<path fill="none" stroke="#63b8ff" d="M1020.27,-397.73C909.57,-387.64 699.75,-355.04 761.25,-254.75 857.7,-97.46 953.72,-116.75 1131.25,-66.5 1242.64,-34.97 1602.74,-20.98 1715.89,-17.29"/>
<polygon fill="#63b8ff" stroke="#63b8ff" points="1019.72,-401.28 1029.98,-398.67 1020.33,-394.31 1019.72,-401.28"/>
</g>
<!-- Node44&#45;&gt;Node24 -->
<g id="edge112" class="edge">
<title>Node44&#45;&gt;Node24</title>
<path fill="none" stroke="#63b8ff" d="M1068.5,-378.5C1056.05,-361.17 1037.46,-337.82 1017.25,-321.25 995.4,-303.33 966.18,-288.79 946.37,-280.04"/>
<polygon fill="#63b8ff" stroke="#63b8ff" points="1066.15,-380.25 1074.75,-386.43 1071.88,-376.23 1066.15,-380.25"/>
</g>
<!-- Node44&#45;&gt;Node26 -->
<g id="edge111" class="edge">
<title>Node44&#45;&gt;Node26</title>
<path fill="none" stroke="#63b8ff" d="M1076.85,-377.29C1071.81,-361.16 1064.72,-339.73 1057.25,-321.25 1051.31,-306.55 1043.13,-290.06 1038.02,-280.11"/>
<polygon fill="#63b8ff" stroke="#63b8ff" points="1073.71,-377.98 1079.99,-386.51 1080.4,-375.92 1073.71,-377.98"/>
</g>
<!-- Node44&#45;&gt;Node29 -->
<g id="edge110" class="edge">
<title>Node44&#45;&gt;Node29</title>
<path fill="none" stroke="#63b8ff" d="M1148.03,-400.18C1290.2,-395.7 1643.81,-382.21 1938.25,-351.75 1953.67,-350.16 1970.4,-347.87 1985.52,-345.59"/>
<polygon fill="#63b8ff" stroke="#63b8ff" points="1148.24,-396.7 1138.35,-400.51 1148.45,-403.7 1148.24,-396.7"/>
</g>
<!-- Node45&#45;&gt;Node7 -->
<g id="edge123" class="edge">
<title>Node45&#45;&gt;Node7</title>
<path fill="none" stroke="#63b8ff" d="M223.04,-516.97C204.57,-510.33 185.82,-500.19 173.25,-484.75 131.24,-433.16 146.25,-404.04 146.25,-337.5 146.25,-337.5 146.25,-337.5 146.25,-147.25 146.25,-75.8 216.59,-86.26 285.25,-66.5 426.71,-25.78 1509.18,-17.62 1716.12,-16.43"/>
<polygon fill="#63b8ff" stroke="#63b8ff" points="221.64,-520.53 232.24,-520.32 223.83,-513.88 221.64,-520.53"/>
</g>
<!-- Node45&#45;&gt;Node16 -->
<g id="edge122" class="edge">
<title>Node45&#45;&gt;Node16</title>
<path fill="none" stroke="#63b8ff" d="M315.23,-516.12C342.19,-504.94 380.04,-489.24 403.58,-479.48"/>
<polygon fill="#63b8ff" stroke="#63b8ff" points="314.02,-513.24 306.13,-520.3 316.7,-519.71 314.02,-513.24"/>
</g>
<!-- Node46&#45;&gt;Node2 -->
<g id="edge127" class="edge">
<title>Node46&#45;&gt;Node2</title>
<path fill="none" stroke="#63b8ff" d="M381.8,-517.15C345.69,-505.96 293.06,-489.65 260.55,-479.58"/>
<polygon fill="#63b8ff" stroke="#63b8ff" points="380.39,-520.69 390.98,-520.3 382.46,-514 380.39,-520.69"/>
</g>
<!-- Node46&#45;&gt;Node7 -->
<g id="edge130" class="edge">
<title>Node46&#45;&gt;Node7</title>
<path fill="none" stroke="#63b8ff" d="M389.37,-515.81C371.27,-507.65 348.46,-496.57 329.25,-484.75 310.21,-473.04 307.08,-467.73 289.25,-454.25 267.98,-438.17 253.18,-442.1 241.25,-418.25 168.46,-272.66 194.13,-131.75 343.25,-66.5 408.08,-38.13 1507.42,-19.96 1716.18,-16.76"/>
<polygon fill="#63b8ff" stroke="#63b8ff" points="387.85,-519.41 398.41,-520.26 390.69,-513.01 387.85,-519.41"/>
</g>
<!-- Node46&#45;&gt;Node29 -->
<g id="edge129" class="edge">
<title>Node46&#45;&gt;Node29</title>
<path fill="none" stroke="#63b8ff" d="M496.87,-521.35C718.56,-497.66 1386.03,-425.05 1938.25,-351.75 1953.62,-349.71 1970.34,-347.3 1985.45,-345.04"/>
<polygon fill="#63b8ff" stroke="#63b8ff" points="496.6,-517.97 487.03,-522.51 497.34,-524.93 496.6,-517.97"/>
</g>
<!-- Node46&#45;&gt;Node38 -->
<g id="edge128" class="edge">
<title>Node46&#45;&gt;Node38</title>
<path fill="none" stroke="#63b8ff" d="M450.54,-515.69C470.1,-506.55 495.81,-494.54 515.8,-485.19"/>
<polygon fill="#63b8ff" stroke="#63b8ff" points="449.24,-512.9 441.66,-520.3 452.2,-519.24 449.24,-512.9"/>
</g>
<!-- Node47&#45;&gt;Node7 -->
<g id="edge133" class="edge">
<title>Node47&#45;&gt;Node7</title>
<path fill="none" stroke="#63b8ff" d="M2934.75,-451.81C2957.19,-428.51 2993.25,-383.87 2993.25,-337.5 2993.25,-337.5 2993.25,-337.5 2993.25,-147.25 2993.25,-109.81 2998.79,-89.5 2969.25,-66.5 2921.25,-29.13 1977.58,-18.36 1784.56,-16.55"/>
<polygon fill="#63b8ff" stroke="#63b8ff" points="2932.77,-448.84 2928.19,-458.39 2937.73,-453.78 2932.77,-448.84"/>
</g>
<!-- Node48&#45;&gt;Node7 -->
<g id="edge143" class="edge">
<title>Node48&#45;&gt;Node7</title>
<path fill="none" stroke="#63b8ff" d="M2824.44,-509.89C2827.39,-494.39 2832.49,-472.39 2840.25,-454.25 2878.05,-365.84 2955.25,-367.15 2955.25,-271 2955.25,-271 2955.25,-271 2955.25,-147.25 2955.25,-106.16 2945.22,-88.07 2910.25,-66.5 2861.14,-36.2 1971.68,-19.9 1784.6,-16.8"/>
<polygon fill="#63b8ff" stroke="#63b8ff" points="2820.9,-508.83 2822.6,-519.29 2827.79,-510.05 2820.9,-508.83"/>
</g>
<!-- Node48&#45;&gt;Node25 -->
<g id="edge138" class="edge">
<title>Node48&#45;&gt;Node25</title>
<path fill="none" stroke="#63b8ff" d="M2771.56,-517.85C2705.75,-502.7 2585.99,-475.51 2483.25,-454.25 2276.36,-411.44 2028.78,-365.65 1924.48,-346.61"/>
<polygon fill="#63b8ff" stroke="#63b8ff" points="2770.51,-521.43 2781.04,-520.27 2772.08,-514.61 2770.51,-521.43"/>
</g>
<!-- Node48&#45;&gt;Node27 -->
<g id="edge140" class="edge">
<title>Node48&#45;&gt;Node27</title>
<path fill="none" stroke="#63b8ff" d="M2760.62,-522.54C2559.38,-499.75 1895.24,-423.74 1347.25,-351.75 1136.33,-324.04 1081.98,-326.32 873.25,-285.25 865.87,-283.8 858,-281.97 850.58,-280.12"/>
<polygon fill="#63b8ff" stroke="#63b8ff" points="2759.92,-526.1 2770.25,-523.74 2760.71,-519.14 2759.92,-526.1"/>
</g>
<!-- Node48&#45;&gt;Node29 -->
<g id="edge139" class="edge">
<title>Node48&#45;&gt;Node29</title>
<path fill="none" stroke="#63b8ff" d="M2812.33,-510.76C2802.91,-493.24 2786.36,-467.73 2764.25,-454.25 2520.57,-305.61 2412.74,-392.66 2130.25,-351.75 2114.91,-349.53 2098.2,-347.06 2083.08,-344.82"/>
<polygon fill="#63b8ff" stroke="#63b8ff" points="2809.6,-512.13 2817.26,-519.45 2815.84,-508.95 2809.6,-512.13"/>
</g>
<!-- Node48&#45;&gt;Node36 -->
<g id="edge142" class="edge">
<title>Node48&#45;&gt;Node36</title>
<path fill="none" stroke="#63b8ff" d="M2794.34,-515.35C2773.02,-504.25 2743.89,-489.07 2725.57,-479.53"/>
<polygon fill="#63b8ff" stroke="#63b8ff" points="2792.6,-518.92 2803.09,-520.43 2795.84,-512.71 2792.6,-518.92"/>
</g>
<!-- Node48&#45;&gt;Node47 -->
<g id="edge141" class="edge">
<title>Node48&#45;&gt;Node47</title>
<path fill="none" stroke="#63b8ff" d="M2845.11,-514.74C2863.12,-503.7 2887.25,-488.9 2902.53,-479.53"/>
<polygon fill="#63b8ff" stroke="#63b8ff" points="2843.53,-512.22 2836.83,-520.43 2847.18,-518.19 2843.53,-512.22"/>
</g>
</g>
</svg>
