<?xml version="1.0" encoding="UTF-8" standalone="no"?>
<!DOCTYPE svg PUBLIC "-//W3C//DTD SVG 1.1//EN"
 "http://www.w3.org/Graphics/SVG/1.1/DTD/svg11.dtd">
<!-- Generated by graphviz version 8.0.5 (20230430.1635)
 -->
<!-- Title: include/v8&#45;exception.h Pages: 1 -->
<svg width="1253pt" height="525pt"
 viewBox="0.00 0.00 1253.00 524.50" xmlns="http://www.w3.org/2000/svg" xmlns:xlink="http://www.w3.org/1999/xlink">
<g id="graph0" class="graph" transform="scale(1 1) rotate(0) translate(4 520.5)">
<title>include/v8&#45;exception.h</title>
<!-- Node1 -->
<g id="node1" class="node">
<title>Node1</title>
<g id="a_node1"><a xlink:title=" ">
<polygon fill="#999999" stroke="#666666" points="683,-516.5 571,-516.5 571,-497.25 683,-497.25 683,-516.5"/>
<text text-anchor="middle" x="627" y="-503" font-family="Helvetica,sans-Serif" font-size="10.00">include/v8&#45;exception.h</text>
</a>
</g>
</g>
<!-- Node2 -->
<g id="node2" class="node">
<title>Node2</title>
<g id="a_node2"><a xlink:title=" ">
<polygon fill="#e0e0e0" stroke="#999999" points="139.25,-74.5 88.75,-74.5 88.75,-55.25 139.25,-55.25 139.25,-74.5"/>
<text text-anchor="middle" x="114" y="-61" font-family="Helvetica,sans-Serif" font-size="10.00">stddef.h</text>
</a>
</g>
</g>
<!-- Node1&#45;&gt;Node2 -->
<g id="edge1" class="edge">
<title>Node1&#45;&gt;Node2</title>
<path fill="none" stroke="#63b8ff" d="M570.52,-501.39C423.1,-488.91 38,-451.18 38,-397.38 38,-397.38 38,-397.38 38,-174.38 38,-135.6 70.97,-100.83 93.48,-81.61"/>
<polygon fill="#63b8ff" stroke="#63b8ff" points="95.27,-83.85 100.79,-74.81 90.83,-78.44 95.27,-83.85"/>
</g>
<!-- Node3 -->
<g id="node3" class="node">
<title>Node3</title>
<g id="a_node3"><a xlink:href="v8-local-handle_8h.html" target="_top" xlink:title=" ">
<polygon fill="white" stroke="#666666" points="707.38,-240.25 618.62,-240.25 618.62,-221 707.38,-221 707.38,-240.25"/>
<text text-anchor="middle" x="663" y="-226.75" font-family="Helvetica,sans-Serif" font-size="10.00">v8&#45;local&#45;handle.h</text>
</a>
</g>
</g>
<!-- Node1&#45;&gt;Node3 -->
<g id="edge2" class="edge">
<title>Node1&#45;&gt;Node3</title>
<path fill="none" stroke="#63b8ff" d="M603.69,-496.86C569.3,-481.86 509,-448.3 509,-397.38 509,-397.38 509,-397.38 509,-340.12 509,-287.79 569.18,-258.48 614.3,-243.87"/>
<polygon fill="#63b8ff" stroke="#63b8ff" points="615.01,-247.01 623.54,-240.72 612.95,-240.32 615.01,-247.01"/>
</g>
<!-- Node13 -->
<g id="node13" class="node">
<title>Node13</title>
<g id="a_node13"><a xlink:href="v8config_8h.html" target="_top" xlink:title=" ">
<polygon fill="white" stroke="#666666" points="1001.75,-74.5 942.25,-74.5 942.25,-55.25 1001.75,-55.25 1001.75,-74.5"/>
<text text-anchor="middle" x="972" y="-61" font-family="Helvetica,sans-Serif" font-size="10.00">v8config.h</text>
</a>
</g>
</g>
<!-- Node1&#45;&gt;Node13 -->
<g id="edge63" class="edge">
<title>Node1&#45;&gt;Node13</title>
<path fill="none" stroke="#63b8ff" d="M683.48,-501.88C836.04,-490.33 1245,-454.09 1245,-397.38 1245,-397.38 1245,-397.38 1245,-174.38 1245,-138.32 1225.7,-129.41 1195,-110.5 1138.51,-75.71 1060.11,-67.36 1012.89,-65.74"/>
<polygon fill="#63b8ff" stroke="#63b8ff" points="1013.25,-62.22 1003.16,-65.46 1013.07,-69.22 1013.25,-62.22"/>
</g>
<!-- Node14 -->
<g id="node14" class="node">
<title>Node14</title>
<g id="a_node14"><a xlink:href="v8-object_8h.html" target="_top" xlink:title=" ">
<polygon fill="white" stroke="#666666" points="800.62,-461.25 737.38,-461.25 737.38,-442 800.62,-442 800.62,-461.25"/>
<text text-anchor="middle" x="769" y="-447.75" font-family="Helvetica,sans-Serif" font-size="10.00">v8&#45;object.h</text>
</a>
</g>
</g>
<!-- Node1&#45;&gt;Node14 -->
<g id="edge18" class="edge">
<title>Node1&#45;&gt;Node14</title>
<path fill="none" stroke="#63b8ff" d="M651.09,-496.84C674.04,-488.24 708.82,-475.19 734.67,-465.5"/>
<polygon fill="#63b8ff" stroke="#63b8ff" points="735.66,-468.49 743.79,-461.7 733.2,-461.94 735.66,-468.49"/>
</g>
<!-- Node3&#45;&gt;Node2 -->
<g id="edge3" class="edge">
<title>Node3&#45;&gt;Node2</title>
<path fill="none" stroke="#63b8ff" d="M632.7,-220.59C538.57,-192.51 251.46,-106.87 149.99,-76.61"/>
<polygon fill="#63b8ff" stroke="#63b8ff" points="151.24,-73.03 140.65,-73.53 149.24,-79.74 151.24,-73.03"/>
</g>
<!-- Node4 -->
<g id="node4" class="node">
<title>Node4</title>
<g id="a_node4"><a xlink:title=" ">
<polygon fill="#e0e0e0" stroke="#999999" points="422.5,-74.5 361.5,-74.5 361.5,-55.25 422.5,-55.25 422.5,-74.5"/>
<text text-anchor="middle" x="392" y="-61" font-family="Helvetica,sans-Serif" font-size="10.00">type_traits</text>
</a>
</g>
</g>
<!-- Node3&#45;&gt;Node4 -->
<g id="edge4" class="edge">
<title>Node3&#45;&gt;Node4</title>
<path fill="none" stroke="#63b8ff" d="M646.01,-220.54C614.32,-203.47 544.21,-165.15 487,-129.75 461.26,-113.83 432.53,-94.25 413.47,-80.99"/>
<polygon fill="#63b8ff" stroke="#63b8ff" points="415.91,-77.73 405.7,-74.87 411.9,-83.46 415.91,-77.73"/>
</g>
<!-- Node5 -->
<g id="node5" class="node">
<title>Node5</title>
<g id="a_node5"><a xlink:title=" ">
<polygon fill="#e0e0e0" stroke="#999999" points="810.5,-185 767.5,-185 767.5,-165.75 810.5,-165.75 810.5,-185"/>
<text text-anchor="middle" x="789" y="-171.5" font-family="Helvetica,sans-Serif" font-size="10.00">vector</text>
</a>
</g>
</g>
<!-- Node3&#45;&gt;Node5 -->
<g id="edge5" class="edge">
<title>Node3&#45;&gt;Node5</title>
<path fill="none" stroke="#63b8ff" d="M684.37,-220.59C704.47,-212.1 734.78,-199.29 757.62,-189.64"/>
<polygon fill="#63b8ff" stroke="#63b8ff" points="758.67,-192.57 766.52,-185.45 755.95,-186.12 758.67,-192.57"/>
</g>
<!-- Node6 -->
<g id="node6" class="node">
<title>Node6</title>
<g id="a_node6"><a xlink:href="v8-handle-base_8h.html" target="_top" xlink:title=" ">
<polygon fill="white" stroke="#666666" points="749.75,-185 660.25,-185 660.25,-165.75 749.75,-165.75 749.75,-185"/>
<text text-anchor="middle" x="705" y="-171.5" font-family="Helvetica,sans-Serif" font-size="10.00">v8&#45;handle&#45;base.h</text>
</a>
</g>
</g>
<!-- Node3&#45;&gt;Node6 -->
<g id="edge6" class="edge">
<title>Node3&#45;&gt;Node6</title>
<path fill="none" stroke="#63b8ff" d="M669.94,-220.83C675.68,-213.55 684.01,-202.98 691.12,-193.98"/>
<polygon fill="#63b8ff" stroke="#63b8ff" points="694.47,-196.38 697.91,-186.36 688.97,-192.04 694.47,-196.38"/>
</g>
<!-- Node7 -->
<g id="node7" class="node">
<title>Node7</title>
<g id="a_node7"><a xlink:href="v8-internal_8h.html" target="_top" xlink:title=" ">
<polygon fill="white" stroke="#666666" points="564.25,-129.75 495.75,-129.75 495.75,-110.5 564.25,-110.5 564.25,-129.75"/>
<text text-anchor="middle" x="530" y="-116.25" font-family="Helvetica,sans-Serif" font-size="10.00">v8&#45;internal.h</text>
</a>
</g>
</g>
<!-- Node3&#45;&gt;Node7 -->
<g id="edge17" class="edge">
<title>Node3&#45;&gt;Node7</title>
<path fill="none" stroke="#63b8ff" d="M656.71,-220.51C647.26,-207.28 628.32,-182.51 608,-165.75 593.29,-153.62 574.85,-142.9 559.59,-135.01"/>
<polygon fill="#63b8ff" stroke="#63b8ff" points="561.6,-131.6 551.09,-130.24 558.46,-137.85 561.6,-131.6"/>
</g>
<!-- Node6&#45;&gt;Node7 -->
<g id="edge7" class="edge">
<title>Node6&#45;&gt;Node7</title>
<path fill="none" stroke="#63b8ff" d="M675.31,-165.34C646.4,-156.54 602.25,-143.11 570.2,-133.36"/>
<polygon fill="#63b8ff" stroke="#63b8ff" points="571.42,-129.77 560.83,-130.2 569.38,-136.46 571.42,-129.77"/>
</g>
<!-- Node7&#45;&gt;Node2 -->
<g id="edge8" class="edge">
<title>Node7&#45;&gt;Node2</title>
<path fill="none" stroke="#63b8ff" d="M495.6,-114.72C417.89,-104.77 229.36,-80.64 150.08,-70.49"/>
<polygon fill="#63b8ff" stroke="#63b8ff" points="151,-66.95 140.64,-69.16 150.11,-73.9 151,-66.95"/>
</g>
<!-- Node7&#45;&gt;Node4 -->
<g id="edge14" class="edge">
<title>Node7&#45;&gt;Node4</title>
<path fill="none" stroke="#63b8ff" d="M506.59,-110.09C484.39,-101.52 450.78,-88.56 425.7,-78.88"/>
<polygon fill="#63b8ff" stroke="#63b8ff" points="427.11,-75.29 416.52,-74.95 424.59,-81.82 427.11,-75.29"/>
</g>
<!-- Node8 -->
<g id="node8" class="node">
<title>Node8</title>
<g id="a_node8"><a xlink:title=" ">
<polygon fill="#e0e0e0" stroke="#999999" points="261.75,-74.5 214.25,-74.5 214.25,-55.25 261.75,-55.25 261.75,-74.5"/>
<text text-anchor="middle" x="238" y="-61" font-family="Helvetica,sans-Serif" font-size="10.00">stdint.h</text>
</a>
</g>
</g>
<!-- Node7&#45;&gt;Node8 -->
<g id="edge9" class="edge">
<title>Node7&#45;&gt;Node8</title>
<path fill="none" stroke="#63b8ff" d="M495.61,-113.03C447.88,-104.54 358.83,-88.62 283,-74.5 279.56,-73.86 275.97,-73.18 272.39,-72.51"/>
<polygon fill="#63b8ff" stroke="#63b8ff" points="273.29,-68.92 262.81,-70.49 271.98,-75.8 273.29,-68.92"/>
</g>
<!-- Node9 -->
<g id="node9" class="node">
<title>Node9</title>
<g id="a_node9"><a xlink:title=" ">
<polygon fill="#e0e0e0" stroke="#999999" points="488.75,-74.5 441.25,-74.5 441.25,-55.25 488.75,-55.25 488.75,-74.5"/>
<text text-anchor="middle" x="465" y="-61" font-family="Helvetica,sans-Serif" font-size="10.00">string.h</text>
</a>
</g>
</g>
<!-- Node7&#45;&gt;Node9 -->
<g id="edge10" class="edge">
<title>Node7&#45;&gt;Node9</title>
<path fill="none" stroke="#63b8ff" d="M518.97,-110.09C509.49,-102.32 495.58,-90.92 484.25,-81.65"/>
<polygon fill="#63b8ff" stroke="#63b8ff" points="486.82,-78.4 476.86,-74.77 482.38,-83.82 486.82,-78.4"/>
</g>
<!-- Node10 -->
<g id="node10" class="node">
<title>Node10</title>
<g id="a_node10"><a xlink:title=" ">
<polygon fill="#e0e0e0" stroke="#999999" points="337.62,-74.5 292.38,-74.5 292.38,-55.25 337.62,-55.25 337.62,-74.5"/>
<text text-anchor="middle" x="315" y="-61" font-family="Helvetica,sans-Serif" font-size="10.00">atomic</text>
</a>
</g>
</g>
<!-- Node7&#45;&gt;Node10 -->
<g id="edge11" class="edge">
<title>Node7&#45;&gt;Node10</title>
<path fill="none" stroke="#63b8ff" d="M495.46,-110.57C454.99,-100.55 388.39,-84.05 348.42,-74.15"/>
<polygon fill="#63b8ff" stroke="#63b8ff" points="349.44,-70.55 338.89,-71.54 347.75,-77.35 349.44,-70.55"/>
</g>
<!-- Node11 -->
<g id="node11" class="node">
<title>Node11</title>
<g id="a_node11"><a xlink:title=" ">
<polygon fill="#e0e0e0" stroke="#999999" points="553,-74.5 507,-74.5 507,-55.25 553,-55.25 553,-74.5"/>
<text text-anchor="middle" x="530" y="-61" font-family="Helvetica,sans-Serif" font-size="10.00">iterator</text>
</a>
</g>
</g>
<!-- Node7&#45;&gt;Node11 -->
<g id="edge12" class="edge">
<title>Node7&#45;&gt;Node11</title>
<path fill="none" stroke="#63b8ff" d="M530,-110.33C530,-103.67 530,-94.24 530,-85.78"/>
<polygon fill="#63b8ff" stroke="#63b8ff" points="533.5,-85.86 530,-75.86 526.5,-85.86 533.5,-85.86"/>
</g>
<!-- Node12 -->
<g id="node12" class="node">
<title>Node12</title>
<g id="a_node12"><a xlink:title=" ">
<polygon fill="#e0e0e0" stroke="#999999" points="606.25,-19.25 555.75,-19.25 555.75,0 606.25,0 606.25,-19.25"/>
<text text-anchor="middle" x="581" y="-5.75" font-family="Helvetica,sans-Serif" font-size="10.00">memory</text>
</a>
</g>
</g>
<!-- Node7&#45;&gt;Node12 -->
<g id="edge13" class="edge">
<title>Node7&#45;&gt;Node12</title>
<path fill="none" stroke="#63b8ff" d="M537.84,-110.13C545,-101.5 555.46,-87.86 562,-74.5 568.94,-60.34 573.87,-43.16 576.97,-30.18"/>
<polygon fill="#63b8ff" stroke="#63b8ff" points="580.56,-31.17 579.31,-20.65 573.72,-29.66 580.56,-31.17"/>
</g>
<!-- Node7&#45;&gt;Node13 -->
<g id="edge15" class="edge">
<title>Node7&#45;&gt;Node13</title>
<path fill="none" stroke="#63b8ff" d="M564.56,-112.64C569.08,-111.87 573.64,-111.14 578,-110.5 706.34,-91.72 859.2,-76.41 930.96,-69.64"/>
<polygon fill="#63b8ff" stroke="#63b8ff" points="931.13,-73.04 940.76,-68.62 930.48,-66.07 931.13,-73.04"/>
</g>
<!-- Node13&#45;&gt;Node12 -->
<g id="edge16" class="edge">
<title>Node13&#45;&gt;Node12</title>
<path fill="none" stroke="#63b8ff" d="M941.97,-59.78C871.15,-50.14 693.93,-26 617.27,-15.56"/>
<polygon fill="#63b8ff" stroke="#63b8ff" points="618.1,-12.01 607.72,-14.13 617.15,-18.94 618.1,-12.01"/>
</g>
<!-- Node14&#45;&gt;Node3 -->
<g id="edge20" class="edge">
<title>Node14&#45;&gt;Node3</title>
<path fill="none" stroke="#63b8ff" d="M772.43,-441.88C782.61,-414.3 809.7,-327.84 771,-276.25 758.26,-259.26 737.87,-248.7 718.23,-242.16"/>
<polygon fill="#63b8ff" stroke="#63b8ff" points="719.35,-238.54 708.76,-239.01 717.33,-245.24 719.35,-238.54"/>
</g>
<!-- Node14&#45;&gt;Node7 -->
<g id="edge19" class="edge">
<title>Node14&#45;&gt;Node7</title>
<path fill="none" stroke="#63b8ff" d="M776.93,-441.8C784.05,-433.29 794.13,-419.72 799,-406 826.5,-328.51 775.73,-300.15 798,-221 805.16,-195.56 837.21,-185.81 820,-165.75 789.04,-129.67 649.04,-122.48 575.48,-121.23"/>
<polygon fill="#63b8ff" stroke="#63b8ff" points="575.75,-117.72 565.7,-121.08 575.65,-124.72 575.75,-117.72"/>
</g>
<!-- Node14&#45;&gt;Node13 -->
<g id="edge62" class="edge">
<title>Node14&#45;&gt;Node13</title>
<path fill="none" stroke="#63b8ff" d="M800.85,-449.58C901.64,-445.4 1207,-425.85 1207,-342.12 1207,-342.12 1207,-342.12 1207,-174.38 1207,-89.88 1080.22,-70.97 1012.9,-66.89"/>
<polygon fill="#63b8ff" stroke="#63b8ff" points="1013.41,-63.36 1003.24,-66.34 1013.05,-70.35 1013.41,-63.36"/>
</g>
<!-- Node15 -->
<g id="node15" class="node">
<title>Node15</title>
<g id="a_node15"><a xlink:href="v8-maybe_8h.html" target="_top" xlink:title=" ">
<polygon fill="white" stroke="#666666" points="480.75,-295.5 415.25,-295.5 415.25,-276.25 480.75,-276.25 480.75,-295.5"/>
<text text-anchor="middle" x="448" y="-282" font-family="Helvetica,sans-Serif" font-size="10.00">v8&#45;maybe.h</text>
</a>
</g>
</g>
<!-- Node14&#45;&gt;Node15 -->
<g id="edge21" class="edge">
<title>Node14&#45;&gt;Node15</title>
<path fill="none" stroke="#63b8ff" d="M741.8,-441.57C696.8,-426.05 604.71,-392.04 533,-350.75 508.57,-336.68 483.04,-316.67 466.41,-302.81"/>
<polygon fill="#63b8ff" stroke="#63b8ff" points="469.05,-299.61 459.16,-295.82 464.53,-304.95 469.05,-299.61"/>
</g>
<!-- Node17 -->
<g id="node17" class="node">
<title>Node17</title>
<g id="a_node17"><a xlink:href="v8-persistent-handle_8h.html" target="_top" xlink:title=" ">
<polygon fill="white" stroke="#666666" points="988.62,-295.5 877.38,-295.5 877.38,-276.25 988.62,-276.25 988.62,-295.5"/>
<text text-anchor="middle" x="933" y="-282" font-family="Helvetica,sans-Serif" font-size="10.00">v8&#45;persistent&#45;handle.h</text>
</a>
</g>
</g>
<!-- Node14&#45;&gt;Node17 -->
<g id="edge26" class="edge">
<title>Node14&#45;&gt;Node17</title>
<path fill="none" stroke="#63b8ff" d="M801.01,-448.23C830.97,-444.27 874.93,-433.78 901,-406 926.81,-378.5 932.25,-332.46 933.14,-306.4"/>
<polygon fill="#63b8ff" stroke="#63b8ff" points="936.64,-306.73 933.28,-296.68 929.65,-306.63 936.64,-306.73"/>
</g>
<!-- Node19 -->
<g id="node19" class="node">
<title>Node19</title>
<g id="a_node19"><a xlink:href="v8-primitive_8h.html" target="_top" xlink:title=" ">
<polygon fill="white" stroke="#666666" points="773.88,-406 700.12,-406 700.12,-386.75 773.88,-386.75 773.88,-406"/>
<text text-anchor="middle" x="737" y="-392.5" font-family="Helvetica,sans-Serif" font-size="10.00">v8&#45;primitive.h</text>
</a>
</g>
</g>
<!-- Node14&#45;&gt;Node19 -->
<g id="edge32" class="edge">
<title>Node14&#45;&gt;Node19</title>
<path fill="none" stroke="#63b8ff" d="M763.72,-441.83C759.43,-434.71 753.26,-424.43 747.92,-415.55"/>
<polygon fill="#63b8ff" stroke="#63b8ff" points="750.55,-414.13 742.4,-407.36 744.55,-417.73 750.55,-414.13"/>
</g>
<!-- Node21 -->
<g id="node21" class="node">
<title>Node21</title>
<g id="a_node21"><a xlink:href="v8-value_8h.html" target="_top" xlink:title=" ">
<polygon fill="white" stroke="#666666" points="691.12,-350.75 630.88,-350.75 630.88,-331.5 691.12,-331.5 691.12,-350.75"/>
<text text-anchor="middle" x="661" y="-337.25" font-family="Helvetica,sans-Serif" font-size="10.00">v8&#45;value.h</text>
</a>
</g>
</g>
<!-- Node14&#45;&gt;Node21 -->
<g id="edge61" class="edge">
<title>Node14&#45;&gt;Node21</title>
<path fill="none" stroke="#63b8ff" d="M745.31,-441.65C728.38,-434.23 706.02,-422.28 691,-406 679.19,-393.2 671.24,-374.91 666.51,-361.18"/>
<polygon fill="#63b8ff" stroke="#63b8ff" points="669.63,-360.43 663.28,-351.94 662.95,-362.53 669.63,-360.43"/>
</g>
<!-- Node22 -->
<g id="node22" class="node">
<title>Node22</title>
<g id="a_node22"><a xlink:href="v8-sandbox_8h.html" target="_top" xlink:title=" ">
<polygon fill="white" stroke="#666666" points="1168.5,-185 1095.5,-185 1095.5,-165.75 1168.5,-165.75 1168.5,-185"/>
<text text-anchor="middle" x="1132" y="-171.5" font-family="Helvetica,sans-Serif" font-size="10.00">v8&#45;sandbox.h</text>
</a>
</g>
</g>
<!-- Node14&#45;&gt;Node22 -->
<g id="edge45" class="edge">
<title>Node14&#45;&gt;Node22</title>
<path fill="none" stroke="#63b8ff" d="M800.9,-447.6C887.05,-438.57 1118,-408.19 1118,-342.12 1118,-342.12 1118,-342.12 1118,-284.88 1118,-253.61 1123.79,-217.69 1127.92,-196.03"/>
<polygon fill="#63b8ff" stroke="#63b8ff" points="1131.53,-196.82 1130.05,-186.33 1124.67,-195.45 1131.53,-196.82"/>
</g>
<!-- Node24 -->
<g id="node24" class="node">
<title>Node24</title>
<g id="a_node24"><a xlink:href="v8-traced-handle_8h.html" target="_top" xlink:title=" ">
<polygon fill="white" stroke="#666666" points="312.75,-295.5 217.25,-295.5 217.25,-276.25 312.75,-276.25 312.75,-295.5"/>
<text text-anchor="middle" x="265" y="-282" font-family="Helvetica,sans-Serif" font-size="10.00">v8&#45;traced&#45;handle.h</text>
</a>
</g>
</g>
<!-- Node14&#45;&gt;Node24 -->
<g id="edge49" class="edge">
<title>Node14&#45;&gt;Node24</title>
<path fill="none" stroke="#63b8ff" d="M737,-443.02C702.85,-434.71 647.26,-420.61 600,-406 488.18,-371.42 358.22,-322.71 298.34,-299.78"/>
<polygon fill="#63b8ff" stroke="#63b8ff" points="299.92,-296.25 289.33,-295.93 297.41,-302.78 299.92,-296.25"/>
</g>
<!-- Node15&#45;&gt;Node4 -->
<g id="edge22" class="edge">
<title>Node15&#45;&gt;Node4</title>
<path fill="none" stroke="#63b8ff" d="M445.74,-276.02C437.43,-243.55 408.54,-130.57 396.91,-85.08"/>
<polygon fill="#63b8ff" stroke="#63b8ff" points="400.1,-84.42 394.23,-75.6 393.32,-86.16 400.1,-84.42"/>
</g>
<!-- Node15&#45;&gt;Node7 -->
<g id="edge24" class="edge">
<title>Node15&#45;&gt;Node7</title>
<path fill="none" stroke="#63b8ff" d="M447.09,-276C445.39,-255.06 443.7,-201.64 466,-165.75 473.95,-152.95 487.08,-142.85 499.38,-135.51"/>
<polygon fill="#63b8ff" stroke="#63b8ff" points="500.9,-138.13 507.96,-130.23 497.51,-132 500.9,-138.13"/>
</g>
<!-- Node15&#45;&gt;Node13 -->
<g id="edge25" class="edge">
<title>Node15&#45;&gt;Node13</title>
<path fill="none" stroke="#63b8ff" d="M460.76,-276.01C491.98,-254.63 575.23,-199.5 651,-165.75 725.12,-132.73 747.51,-134.56 825,-110.5 860.96,-99.33 901.96,-86.91 931.5,-78.02"/>
<polygon fill="#63b8ff" stroke="#63b8ff" points="932.27,-81.14 940.84,-74.91 930.26,-74.44 932.27,-81.14"/>
</g>
<!-- Node16 -->
<g id="node16" class="node">
<title>Node16</title>
<g id="a_node16"><a xlink:title=" ">
<polygon fill="#e0e0e0" stroke="#999999" points="394.25,-240.25 355.75,-240.25 355.75,-221 394.25,-221 394.25,-240.25"/>
<text text-anchor="middle" x="375" y="-226.75" font-family="Helvetica,sans-Serif" font-size="10.00">utility</text>
</a>
</g>
</g>
<!-- Node15&#45;&gt;Node16 -->
<g id="edge23" class="edge">
<title>Node15&#45;&gt;Node16</title>
<path fill="none" stroke="#63b8ff" d="M435.62,-275.84C424.75,-267.91 408.72,-256.22 395.87,-246.85"/>
<polygon fill="#63b8ff" stroke="#63b8ff" points="398.34,-243.59 388.2,-240.52 394.22,-249.25 398.34,-243.59"/>
</g>
<!-- Node17&#45;&gt;Node3 -->
<g id="edge28" class="edge">
<title>Node17&#45;&gt;Node3</title>
<path fill="none" stroke="#63b8ff" d="M886.89,-275.78C840.17,-266.57 767.86,-252.31 718.13,-242.5"/>
<polygon fill="#63b8ff" stroke="#63b8ff" points="719.06,-238.92 708.57,-240.42 717.71,-245.78 719.06,-238.92"/>
</g>
<!-- Node17&#45;&gt;Node7 -->
<g id="edge27" class="edge">
<title>Node17&#45;&gt;Node7</title>
<path fill="none" stroke="#63b8ff" d="M935.01,-275.9C937.42,-263.26 940.41,-239.67 934,-221 923.9,-191.57 918.06,-181.11 891,-165.75 838.04,-135.69 660.02,-125.6 575.41,-122.45"/>
<polygon fill="#63b8ff" stroke="#63b8ff" points="575.71,-118.92 565.59,-122.06 575.46,-125.91 575.71,-118.92"/>
</g>
<!-- Node17&#45;&gt;Node13 -->
<g id="edge31" class="edge">
<title>Node17&#45;&gt;Node13</title>
<path fill="none" stroke="#63b8ff" d="M942.66,-275.83C959.26,-259.56 992.59,-223.45 1005,-185 1015.17,-153.49 1015.36,-141.95 1005,-110.5 1001.66,-100.37 995.04,-90.66 988.6,-82.9"/>
<polygon fill="#63b8ff" stroke="#63b8ff" points="991.61,-80.89 982.33,-75.77 986.39,-85.56 991.61,-80.89"/>
</g>
<!-- Node18 -->
<g id="node18" class="node">
<title>Node18</title>
<g id="a_node18"><a xlink:href="v8-weak-callback-info_8h.html" target="_top" xlink:title=" ">
<polygon fill="white" stroke="#666666" points="925,-240.25 807,-240.25 807,-221 925,-221 925,-240.25"/>
<text text-anchor="middle" x="866" y="-226.75" font-family="Helvetica,sans-Serif" font-size="10.00">v8&#45;weak&#45;callback&#45;info.h</text>
</a>
</g>
</g>
<!-- Node17&#45;&gt;Node18 -->
<g id="edge29" class="edge">
<title>Node17&#45;&gt;Node18</title>
<path fill="none" stroke="#63b8ff" d="M921.63,-275.84C911.76,-267.99 897.23,-256.45 885.5,-247.12"/>
<polygon fill="#63b8ff" stroke="#63b8ff" points="888.2,-244.01 878.2,-240.52 883.85,-249.49 888.2,-244.01"/>
</g>
<!-- Node18&#45;&gt;Node13 -->
<g id="edge30" class="edge">
<title>Node18&#45;&gt;Node13</title>
<path fill="none" stroke="#63b8ff" d="M871.7,-220.82C888.45,-194.94 937.77,-118.75 960.41,-83.78"/>
<polygon fill="#63b8ff" stroke="#63b8ff" points="963.78,-86.02 966.27,-75.72 957.9,-82.22 963.78,-86.02"/>
</g>
<!-- Node19&#45;&gt;Node3 -->
<g id="edge37" class="edge">
<title>Node19&#45;&gt;Node3</title>
<path fill="none" stroke="#63b8ff" d="M741.93,-386.49C752.83,-365.53 776.32,-312.06 754,-276.25 744.67,-261.29 728.71,-251.2 712.72,-244.47"/>
<polygon fill="#63b8ff" stroke="#63b8ff" points="714.42,-240.99 703.83,-240.69 711.93,-247.53 714.42,-240.99"/>
</g>
<!-- Node19&#45;&gt;Node7 -->
<g id="edge36" class="edge">
<title>Node19&#45;&gt;Node7</title>
<path fill="none" stroke="#63b8ff" d="M699.64,-388.9C674.82,-382.85 643.04,-371.5 622,-350.75 560.92,-290.52 539.14,-184.48 532.53,-140.79"/>
<polygon fill="#63b8ff" stroke="#63b8ff" points="535.87,-140.41 531.01,-130.99 528.93,-141.38 535.87,-140.41"/>
</g>
<!-- Node19&#45;&gt;Node13 -->
<g id="edge44" class="edge">
<title>Node19&#45;&gt;Node13</title>
<path fill="none" stroke="#63b8ff" d="M774.06,-392.19C831.21,-385.21 940.29,-363.29 998,-295.5 1051.71,-232.41 1054.49,-186.29 1021,-110.5 1015.73,-98.57 1005.53,-88.46 995.79,-80.9"/>
<polygon fill="#63b8ff" stroke="#63b8ff" points="998.3,-77.67 988.13,-74.68 994.21,-83.36 998.3,-77.67"/>
</g>
<!-- Node20 -->
<g id="node20" class="node">
<title>Node20</title>
<g id="a_node20"><a xlink:href="v8-data_8h.html" target="_top" xlink:title=" ">
<polygon fill="white" stroke="#666666" points="744.88,-295.5 689.12,-295.5 689.12,-276.25 744.88,-276.25 744.88,-295.5"/>
<text text-anchor="middle" x="717" y="-282" font-family="Helvetica,sans-Serif" font-size="10.00">v8&#45;data.h</text>
</a>
</g>
</g>
<!-- Node19&#45;&gt;Node20 -->
<g id="edge33" class="edge">
<title>Node19&#45;&gt;Node20</title>
<path fill="none" stroke="#63b8ff" d="M735.36,-386.5C732.15,-369.09 724.97,-330.12 720.6,-306.41"/>
<polygon fill="#63b8ff" stroke="#63b8ff" points="723.91,-306.08 718.66,-296.88 717.03,-307.35 723.91,-306.08"/>
</g>
<!-- Node19&#45;&gt;Node21 -->
<g id="edge38" class="edge">
<title>Node19&#45;&gt;Node21</title>
<path fill="none" stroke="#63b8ff" d="M724.11,-386.34C712.75,-378.39 695.98,-366.64 682.59,-357.25"/>
<polygon fill="#63b8ff" stroke="#63b8ff" points="685.15,-354.07 674.96,-351.2 681.14,-359.81 685.15,-354.07"/>
</g>
<!-- Node20&#45;&gt;Node3 -->
<g id="edge34" class="edge">
<title>Node20&#45;&gt;Node3</title>
<path fill="none" stroke="#63b8ff" d="M708.08,-276.08C700.39,-268.5 689.07,-257.34 679.7,-248.1"/>
<polygon fill="#63b8ff" stroke="#63b8ff" points="682.69,-246.14 673.11,-241.61 677.77,-251.12 682.69,-246.14"/>
</g>
<!-- Node20&#45;&gt;Node13 -->
<g id="edge35" class="edge">
<title>Node20&#45;&gt;Node13</title>
<path fill="none" stroke="#63b8ff" d="M745.16,-282.84C797.67,-278.45 907.6,-266.34 934,-240.25 976.19,-198.56 976.53,-121.71 974.02,-85.6"/>
<polygon fill="#63b8ff" stroke="#63b8ff" points="977.42,-85.31 973.08,-75.65 970.45,-85.92 977.42,-85.31"/>
</g>
<!-- Node21&#45;&gt;Node3 -->
<g id="edge41" class="edge">
<title>Node21&#45;&gt;Node3</title>
<path fill="none" stroke="#63b8ff" d="M656.75,-331.08C651.48,-318.74 643.58,-295.94 647,-276.25 648.5,-267.64 651.5,-258.5 654.51,-250.75"/>
<polygon fill="#63b8ff" stroke="#63b8ff" points="658.12,-252.18 658.74,-241.6 651.66,-249.49 658.12,-252.18"/>
</g>
<!-- Node21&#45;&gt;Node7 -->
<g id="edge40" class="edge">
<title>Node21&#45;&gt;Node7</title>
<path fill="none" stroke="#63b8ff" d="M655.7,-331.27C636.12,-298.52 567.55,-183.89 540.8,-139.18"/>
<polygon fill="#63b8ff" stroke="#63b8ff" points="543.36,-137.64 535.22,-130.85 537.35,-141.23 543.36,-137.64"/>
</g>
<!-- Node21&#45;&gt;Node13 -->
<g id="edge43" class="edge">
<title>Node21&#45;&gt;Node13</title>
<path fill="none" stroke="#63b8ff" d="M661.69,-331.43C663.12,-318.29 667.41,-293.13 680,-276.25 702.21,-246.49 789.8,-206.61 820,-185 869.2,-149.79 924.57,-105.02 952.96,-81.67"/>
<polygon fill="#63b8ff" stroke="#63b8ff" points="954.7,-83.94 960.19,-74.88 950.25,-78.55 954.7,-83.94"/>
</g>
<!-- Node21&#45;&gt;Node15 -->
<g id="edge42" class="edge">
<title>Node21&#45;&gt;Node15</title>
<path fill="none" stroke="#63b8ff" d="M630.48,-332.5C594.05,-323.39 532.87,-308.09 491.5,-297.75"/>
<polygon fill="#63b8ff" stroke="#63b8ff" points="492.46,-294.13 481.91,-295.1 490.76,-300.92 492.46,-294.13"/>
</g>
<!-- Node21&#45;&gt;Node20 -->
<g id="edge39" class="edge">
<title>Node21&#45;&gt;Node20</title>
<path fill="none" stroke="#63b8ff" d="M670.5,-331.09C678.51,-323.47 690.18,-312.37 699.83,-303.2"/>
<polygon fill="#63b8ff" stroke="#63b8ff" points="701.81,-306.2 706.64,-296.77 696.98,-301.13 701.81,-306.2"/>
</g>
<!-- Node22&#45;&gt;Node7 -->
<g id="edge47" class="edge">
<title>Node22&#45;&gt;Node7</title>
<path fill="none" stroke="#63b8ff" d="M1095.25,-171.12C990.37,-161.85 689.88,-135.27 575.21,-125.12"/>
<polygon fill="#63b8ff" stroke="#63b8ff" points="575.66,-121.56 565.39,-124.17 575.04,-128.53 575.66,-121.56"/>
</g>
<!-- Node22&#45;&gt;Node13 -->
<g id="edge48" class="edge">
<title>Node22&#45;&gt;Node13</title>
<path fill="none" stroke="#63b8ff" d="M1138.88,-165.59C1148.36,-152.34 1162.9,-127.03 1150,-110.5 1133.31,-89.11 1060.02,-76.43 1012.84,-70.33"/>
<polygon fill="#63b8ff" stroke="#63b8ff" points="1013.4,-66.75 1003.04,-69 1012.53,-73.7 1013.4,-66.75"/>
</g>
<!-- Node23 -->
<g id="node23" class="node">
<title>Node23</title>
<g id="a_node23"><a xlink:title=" ">
<polygon fill="#e0e0e0" stroke="#999999" points="1140.62,-129.75 1095.38,-129.75 1095.38,-110.5 1140.62,-110.5 1140.62,-129.75"/>
<text text-anchor="middle" x="1118" y="-116.25" font-family="Helvetica,sans-Serif" font-size="10.00">cstdint</text>
</a>
</g>
</g>
<!-- Node22&#45;&gt;Node23 -->
<g id="edge46" class="edge">
<title>Node22&#45;&gt;Node23</title>
<path fill="none" stroke="#63b8ff" d="M1129.69,-165.58C1127.92,-158.84 1125.4,-149.27 1123.16,-140.74"/>
<polygon fill="#63b8ff" stroke="#63b8ff" points="1126.29,-139.89 1120.36,-131.11 1119.52,-141.67 1126.29,-139.89"/>
</g>
<!-- Node24&#45;&gt;Node2 -->
<g id="edge50" class="edge">
<title>Node24&#45;&gt;Node2</title>
<path fill="none" stroke="#63b8ff" d="M216.77,-284.29C183.01,-281.05 139.99,-270.64 117,-240.25 82.05,-194.04 97.67,-119.48 107.79,-84.77"/>
<polygon fill="#63b8ff" stroke="#63b8ff" points="111.32,-86.22 110.93,-75.63 104.63,-84.15 111.32,-86.22"/>
</g>
<!-- Node24&#45;&gt;Node3 -->
<g id="edge58" class="edge">
<title>Node24&#45;&gt;Node3</title>
<path fill="none" stroke="#63b8ff" d="M313.01,-278.45C387.16,-268.53 529.15,-249.53 607.56,-239.04"/>
<polygon fill="#63b8ff" stroke="#63b8ff" points="607.74,-242.42 617.19,-237.62 606.81,-235.48 607.74,-242.42"/>
</g>
<!-- Node24&#45;&gt;Node4 -->
<g id="edge55" class="edge">
<title>Node24&#45;&gt;Node4</title>
<path fill="none" stroke="#63b8ff" d="M246.72,-275.79C226.61,-264.45 198.46,-243.75 209,-221 240.93,-152.08 320.24,-102.63 363.22,-79.88"/>
<polygon fill="#63b8ff" stroke="#63b8ff" points="364.53,-82.63 371.82,-74.93 361.32,-76.41 364.53,-82.63"/>
</g>
<!-- Node24&#45;&gt;Node7 -->
<g id="edge57" class="edge">
<title>Node24&#45;&gt;Node7</title>
<path fill="none" stroke="#63b8ff" d="M275.46,-275.82C290.66,-262.89 319.99,-238.72 347,-221 399.42,-186.61 464.68,-153.03 501.41,-134.91"/>
<polygon fill="#63b8ff" stroke="#63b8ff" points="502.54,-137.77 509.98,-130.22 499.46,-131.48 502.54,-137.77"/>
</g>
<!-- Node24&#45;&gt;Node8 -->
<g id="edge51" class="edge">
<title>Node24&#45;&gt;Node8</title>
<path fill="none" stroke="#63b8ff" d="M217.03,-281.32C189.04,-276.5 155.83,-265.42 138,-240.25 114.84,-207.57 88.88,-227.74 176,-110.5 185.11,-98.24 198.58,-87.97 210.64,-80.39"/>
<polygon fill="#63b8ff" stroke="#63b8ff" points="212.08,-83.02 218.89,-74.9 208.51,-76.99 212.08,-83.02"/>
</g>
<!-- Node24&#45;&gt;Node10 -->
<g id="edge53" class="edge">
<title>Node24&#45;&gt;Node10</title>
<path fill="none" stroke="#63b8ff" d="M226.94,-275.91C208.15,-269.35 187.17,-258.34 176,-240.25 171.51,-232.97 174.59,-229.44 176,-221 184.56,-169.78 178.87,-148.75 214,-110.5 231.86,-91.06 259.74,-79.62 281.68,-73.2"/>
<polygon fill="#63b8ff" stroke="#63b8ff" points="282.48,-76.34 291.22,-70.36 280.66,-69.58 282.48,-76.34"/>
</g>
<!-- Node24&#45;&gt;Node12 -->
<g id="edge54" class="edge">
<title>Node24&#45;&gt;Node12</title>
<path fill="none" stroke="#63b8ff" d="M217.01,-285.73C140.64,-284.3 0,-269.09 0,-176.38 0,-176.38 0,-176.38 0,-119.12 0,-73.63 37.77,-72.18 80,-55.25 164.58,-21.34 444.24,-13.06 544.68,-11.16"/>
<polygon fill="#63b8ff" stroke="#63b8ff" points="544.54,-14.64 554.47,-10.97 544.41,-7.65 544.54,-14.64"/>
</g>
<!-- Node24&#45;&gt;Node13 -->
<g id="edge60" class="edge">
<title>Node24&#45;&gt;Node13</title>
<path fill="none" stroke="#63b8ff" d="M270.97,-275.88C279.92,-262.79 297.85,-238.2 317,-221 384.03,-160.77 401.87,-140.05 487,-110.5 568.71,-82.14 829.56,-70.61 931.05,-67.12"/>
<polygon fill="#63b8ff" stroke="#63b8ff" points="930.9,-70.59 940.77,-66.76 930.66,-63.6 930.9,-70.59"/>
</g>
<!-- Node24&#45;&gt;Node16 -->
<g id="edge56" class="edge">
<title>Node24&#45;&gt;Node16</title>
<path fill="none" stroke="#63b8ff" d="M283.66,-275.84C300.89,-267.5 326.72,-255 346.52,-245.41"/>
<polygon fill="#63b8ff" stroke="#63b8ff" points="347.77,-248.21 355.25,-240.7 344.72,-241.91 347.77,-248.21"/>
</g>
<!-- Node24&#45;&gt;Node18 -->
<g id="edge59" class="edge">
<title>Node24&#45;&gt;Node18</title>
<path fill="none" stroke="#63b8ff" d="M313.17,-280.61C419.02,-271.23 672.31,-248.79 795.85,-237.84"/>
<polygon fill="#63b8ff" stroke="#63b8ff" points="796.02,-241.25 805.67,-236.88 795.4,-234.28 796.02,-241.25"/>
</g>
<!-- Node25 -->
<g id="node25" class="node">
<title>Node25</title>
<g id="a_node25"><a xlink:title=" ">
<polygon fill="#e0e0e0" stroke="#999999" points="262.25,-240.25 217.75,-240.25 217.75,-221 262.25,-221 262.25,-240.25"/>
<text text-anchor="middle" x="240" y="-226.75" font-family="Helvetica,sans-Serif" font-size="10.00">stdio.h</text>
</a>
</g>
</g>
<!-- Node24&#45;&gt;Node25 -->
<g id="edge52" class="edge">
<title>Node24&#45;&gt;Node25</title>
<path fill="none" stroke="#63b8ff" d="M260.87,-276.08C257.6,-269.11 252.91,-259.12 248.8,-250.37"/>
<polygon fill="#63b8ff" stroke="#63b8ff" points="251.64,-249.17 244.22,-241.61 245.3,-252.15 251.64,-249.17"/>
</g>
</g>
</svg>
