<?xml version="1.0" encoding="UTF-8" standalone="no"?>
<!DOCTYPE svg PUBLIC "-//W3C//DTD SVG 1.1//EN"
 "http://www.w3.org/Graphics/SVG/1.1/DTD/svg11.dtd">
<!-- Generated by graphviz version 8.0.5 (20230430.1635)
 -->
<!-- Title: include/v8&#45;statistics.h Pages: 1 -->
<svg width="1445pt" height="580pt"
 viewBox="0.00 0.00 1445.00 579.75" xmlns="http://www.w3.org/2000/svg" xmlns:xlink="http://www.w3.org/1999/xlink">
<g id="graph0" class="graph" transform="scale(1 1) rotate(0) translate(4 575.75)">
<title>include/v8&#45;statistics.h</title>
<!-- Node1 -->
<g id="node1" class="node">
<title>Node1</title>
<g id="a_node1"><a xlink:title=" ">
<polygon fill="#999999" stroke="#666666" points="219.25,-571.75 108.75,-571.75 108.75,-552.5 219.25,-552.5 219.25,-571.75"/>
<text text-anchor="middle" x="164" y="-558.25" font-family="Helvetica,sans-Serif" font-size="10.00">include/v8&#45;statistics.h</text>
</a>
</g>
</g>
<!-- Node2 -->
<g id="node2" class="node">
<title>Node2</title>
<g id="a_node2"><a xlink:title=" ">
<polygon fill="#e0e0e0" stroke="#999999" points="325.25,-74.5 274.75,-74.5 274.75,-55.25 325.25,-55.25 325.25,-74.5"/>
<text text-anchor="middle" x="300" y="-61" font-family="Helvetica,sans-Serif" font-size="10.00">stddef.h</text>
</a>
</g>
</g>
<!-- Node1&#45;&gt;Node2 -->
<g id="edge1" class="edge">
<title>Node1&#45;&gt;Node2</title>
<path fill="none" stroke="#63b8ff" d="M145.04,-552.01C131.53,-544.46 114.2,-532.4 105,-516.5 53.49,-427.46 76,-389.74 76,-286.88 76,-286.88 76,-286.88 76,-229.62 76,-137.64 200.63,-91.77 263.96,-74.4"/>
<polygon fill="#63b8ff" stroke="#63b8ff" points="264.53,-77.61 273.3,-71.67 262.74,-70.84 264.53,-77.61"/>
</g>
<!-- Node3 -->
<g id="node3" class="node">
<title>Node3</title>
<g id="a_node3"><a xlink:title=" ">
<polygon fill="#e0e0e0" stroke="#999999" points="185.75,-74.5 138.25,-74.5 138.25,-55.25 185.75,-55.25 185.75,-74.5"/>
<text text-anchor="middle" x="162" y="-61" font-family="Helvetica,sans-Serif" font-size="10.00">stdint.h</text>
</a>
</g>
</g>
<!-- Node1&#45;&gt;Node3 -->
<g id="edge2" class="edge">
<title>Node1&#45;&gt;Node3</title>
<path fill="none" stroke="#63b8ff" d="M153.13,-552.22C143.54,-543.86 129.76,-530.57 121,-516.5 63.65,-424.38 38,-395.39 38,-286.88 38,-286.88 38,-286.88 38,-174.38 38,-126.39 91.23,-94.71 127.94,-78.56"/>
<polygon fill="#63b8ff" stroke="#63b8ff" points="128.93,-81.52 136.8,-74.42 126.22,-75.07 128.93,-81.52"/>
</g>
<!-- Node4 -->
<g id="node4" class="node">
<title>Node4</title>
<g id="a_node4"><a xlink:title=" ">
<polygon fill="#e0e0e0" stroke="#999999" points="439.25,-19.25 388.75,-19.25 388.75,0 439.25,0 439.25,-19.25"/>
<text text-anchor="middle" x="414" y="-5.75" font-family="Helvetica,sans-Serif" font-size="10.00">memory</text>
</a>
</g>
</g>
<!-- Node1&#45;&gt;Node4 -->
<g id="edge3" class="edge">
<title>Node1&#45;&gt;Node4</title>
<path fill="none" stroke="#63b8ff" d="M120.05,-552.04C71.47,-539.12 0,-510.32 0,-452.62 0,-452.62 0,-452.62 0,-119.12 0,-41.41 276.44,-18.26 377.53,-12.39"/>
<polygon fill="#63b8ff" stroke="#63b8ff" points="377.62,-15.83 387.41,-11.78 377.24,-8.84 377.62,-15.83"/>
</g>
<!-- Node5 -->
<g id="node5" class="node">
<title>Node5</title>
<g id="a_node5"><a xlink:title=" ">
<polygon fill="#e0e0e0" stroke="#999999" points="608.25,-240.25 569.75,-240.25 569.75,-221 608.25,-221 608.25,-240.25"/>
<text text-anchor="middle" x="589" y="-226.75" font-family="Helvetica,sans-Serif" font-size="10.00">utility</text>
</a>
</g>
</g>
<!-- Node1&#45;&gt;Node5 -->
<g id="edge4" class="edge">
<title>Node1&#45;&gt;Node5</title>
<path fill="none" stroke="#63b8ff" d="M175.37,-552.31C233.09,-507.56 493.95,-305.32 568.84,-247.26"/>
<polygon fill="#63b8ff" stroke="#63b8ff" points="570.64,-249.51 576.4,-240.62 566.35,-243.98 570.64,-249.51"/>
</g>
<!-- Node6 -->
<g id="node6" class="node">
<title>Node6</title>
<g id="a_node6"><a xlink:title=" ">
<polygon fill="#e0e0e0" stroke="#999999" points="185.5,-185 142.5,-185 142.5,-165.75 185.5,-165.75 185.5,-185"/>
<text text-anchor="middle" x="164" y="-171.5" font-family="Helvetica,sans-Serif" font-size="10.00">vector</text>
</a>
</g>
</g>
<!-- Node1&#45;&gt;Node6 -->
<g id="edge5" class="edge">
<title>Node1&#45;&gt;Node6</title>
<path fill="none" stroke="#63b8ff" d="M164,-552.12C164,-533.53 164,-489.55 164,-452.62 164,-452.62 164,-452.62 164,-284.88 164,-253.87 164,-217.88 164,-196.13"/>
<polygon fill="#63b8ff" stroke="#63b8ff" points="167.5,-196.38 164,-186.38 160.5,-196.38 167.5,-196.38"/>
</g>
<!-- Node7 -->
<g id="node7" class="node">
<title>Node7</title>
<g id="a_node7"><a xlink:href="v8-local-handle_8h.html" target="_top" xlink:title=" ">
<polygon fill="white" stroke="#666666" points="715.38,-240.25 626.62,-240.25 626.62,-221 715.38,-221 715.38,-240.25"/>
<text text-anchor="middle" x="671" y="-226.75" font-family="Helvetica,sans-Serif" font-size="10.00">v8&#45;local&#45;handle.h</text>
</a>
</g>
</g>
<!-- Node1&#45;&gt;Node7 -->
<g id="edge6" class="edge">
<title>Node1&#45;&gt;Node7</title>
<path fill="none" stroke="#63b8ff" d="M182.56,-552.12C200,-543.49 226.68,-529.84 249,-516.5 408.18,-421.38 589.85,-290.86 650.26,-246.83"/>
<polygon fill="#63b8ff" stroke="#63b8ff" points="651.89,-249.25 657.9,-240.52 647.76,-243.6 651.89,-249.25"/>
</g>
<!-- Node14 -->
<g id="node14" class="node">
<title>Node14</title>
<g id="a_node14"><a xlink:href="v8config_8h.html" target="_top" xlink:title=" ">
<polygon fill="white" stroke="#666666" points="1123.75,-74.5 1064.25,-74.5 1064.25,-55.25 1123.75,-55.25 1123.75,-74.5"/>
<text text-anchor="middle" x="1094" y="-61" font-family="Helvetica,sans-Serif" font-size="10.00">v8config.h</text>
</a>
</g>
</g>
<!-- Node1&#45;&gt;Node14 -->
<g id="edge76" class="edge">
<title>Node1&#45;&gt;Node14</title>
<path fill="none" stroke="#63b8ff" d="M219.52,-559.35C464.53,-551.14 1437,-514.66 1437,-452.62 1437,-452.62 1437,-452.62 1437,-174.38 1437,-141.79 1427.88,-128.93 1401,-110.5 1358.54,-81.39 1208.27,-70.87 1134.91,-67.41"/>
<polygon fill="#63b8ff" stroke="#63b8ff" points="1135.39,-63.88 1125.24,-66.93 1135.07,-70.88 1135.39,-63.88"/>
</g>
<!-- Node15 -->
<g id="node15" class="node">
<title>Node15</title>
<g id="a_node15"><a xlink:href="v8-memory-span_8h.html" target="_top" xlink:title=" ">
<polygon fill="white" stroke="#666666" points="451.75,-129.75 356.25,-129.75 356.25,-110.5 451.75,-110.5 451.75,-129.75"/>
<text text-anchor="middle" x="404" y="-116.25" font-family="Helvetica,sans-Serif" font-size="10.00">v8&#45;memory&#45;span.h</text>
</a>
</g>
</g>
<!-- Node1&#45;&gt;Node15 -->
<g id="edge22" class="edge">
<title>Node1&#45;&gt;Node15</title>
<path fill="none" stroke="#63b8ff" d="M156.62,-552.2C142.71,-534.42 114,-492.86 114,-452.62 114,-452.62 114,-452.62 114,-229.62 114,-200.01 110.78,-185.33 133,-165.75 163.69,-138.7 274.97,-127.87 345.03,-123.66"/>
<polygon fill="#63b8ff" stroke="#63b8ff" points="345.11,-127.1 354.9,-123.04 344.72,-120.11 345.11,-127.1"/>
</g>
<!-- Node17 -->
<g id="node17" class="node">
<title>Node17</title>
<g id="a_node17"><a xlink:href="v8-promise_8h.html" target="_top" xlink:title=" ">
<polygon fill="white" stroke="#666666" points="783.75,-516.5 712.25,-516.5 712.25,-497.25 783.75,-497.25 783.75,-516.5"/>
<text text-anchor="middle" x="748" y="-503" font-family="Helvetica,sans-Serif" font-size="10.00">v8&#45;promise.h</text>
</a>
</g>
</g>
<!-- Node1&#45;&gt;Node17 -->
<g id="edge28" class="edge">
<title>Node1&#45;&gt;Node17</title>
<path fill="none" stroke="#63b8ff" d="M219.73,-556.04C334.28,-545.6 594.36,-521.88 701.02,-512.16"/>
<polygon fill="#63b8ff" stroke="#63b8ff" points="701.12,-515.57 710.76,-511.18 700.48,-508.6 701.12,-515.57"/>
</g>
<!-- Node7&#45;&gt;Node2 -->
<g id="edge7" class="edge">
<title>Node7&#45;&gt;Node2</title>
<path fill="none" stroke="#63b8ff" d="M630.5,-220.5C554.36,-202.81 393.36,-162.69 347,-129.75 330.38,-117.94 317.26,-98.43 309.16,-84.07"/>
<polygon fill="#63b8ff" stroke="#63b8ff" points="311.96,-82.88 304.16,-75.71 305.78,-86.18 311.96,-82.88"/>
</g>
<!-- Node7&#45;&gt;Node6 -->
<g id="edge9" class="edge">
<title>Node7&#45;&gt;Node6</title>
<path fill="none" stroke="#63b8ff" d="M626.24,-222.26C623.12,-221.81 620.01,-221.39 617,-221 459.7,-200.71 270.62,-184.81 196.26,-178.88"/>
<polygon fill="#63b8ff" stroke="#63b8ff" points="196.99,-175.35 186.74,-178.05 196.43,-182.33 196.99,-175.35"/>
</g>
<!-- Node8 -->
<g id="node8" class="node">
<title>Node8</title>
<g id="a_node8"><a xlink:title=" ">
<polygon fill="#e0e0e0" stroke="#999999" points="587.5,-74.5 526.5,-74.5 526.5,-55.25 587.5,-55.25 587.5,-74.5"/>
<text text-anchor="middle" x="557" y="-61" font-family="Helvetica,sans-Serif" font-size="10.00">type_traits</text>
</a>
</g>
</g>
<!-- Node7&#45;&gt;Node8 -->
<g id="edge8" class="edge">
<title>Node7&#45;&gt;Node8</title>
<path fill="none" stroke="#63b8ff" d="M649.34,-220.52C633.61,-212.97 612.75,-200.91 599,-185 573.98,-156.06 563.56,-111.24 559.45,-85.63"/>
<polygon fill="#63b8ff" stroke="#63b8ff" points="562.78,-85.16 557.91,-75.75 555.85,-86.14 562.78,-85.16"/>
</g>
<!-- Node9 -->
<g id="node9" class="node">
<title>Node9</title>
<g id="a_node9"><a xlink:href="v8-handle-base_8h.html" target="_top" xlink:title=" ">
<polygon fill="white" stroke="#666666" points="697.75,-185 608.25,-185 608.25,-165.75 697.75,-165.75 697.75,-185"/>
<text text-anchor="middle" x="653" y="-171.5" font-family="Helvetica,sans-Serif" font-size="10.00">v8&#45;handle&#45;base.h</text>
</a>
</g>
</g>
<!-- Node7&#45;&gt;Node9 -->
<g id="edge10" class="edge">
<title>Node7&#45;&gt;Node9</title>
<path fill="none" stroke="#63b8ff" d="M668.03,-220.83C665.72,-214.01 662.44,-204.31 659.53,-195.7"/>
<polygon fill="#63b8ff" stroke="#63b8ff" points="662.55,-194.71 656.04,-186.36 655.92,-196.95 662.55,-194.71"/>
</g>
<!-- Node10 -->
<g id="node10" class="node">
<title>Node10</title>
<g id="a_node10"><a xlink:href="v8-internal_8h.html" target="_top" xlink:title=" ">
<polygon fill="white" stroke="#666666" points="652.25,-129.75 583.75,-129.75 583.75,-110.5 652.25,-110.5 652.25,-129.75"/>
<text text-anchor="middle" x="618" y="-116.25" font-family="Helvetica,sans-Serif" font-size="10.00">v8&#45;internal.h</text>
</a>
</g>
</g>
<!-- Node7&#45;&gt;Node10 -->
<g id="edge21" class="edge">
<title>Node7&#45;&gt;Node10</title>
<path fill="none" stroke="#63b8ff" d="M682.3,-220.82C696.85,-208.38 718.9,-185.03 707,-165.75 697.06,-149.64 679.34,-139.15 662.31,-132.42"/>
<polygon fill="#63b8ff" stroke="#63b8ff" points="664.02,-128.95 653.43,-128.87 661.66,-135.54 664.02,-128.95"/>
</g>
<!-- Node9&#45;&gt;Node10 -->
<g id="edge11" class="edge">
<title>Node9&#45;&gt;Node10</title>
<path fill="none" stroke="#63b8ff" d="M647.22,-165.58C642.54,-158.46 635.78,-148.18 629.94,-139.3"/>
<polygon fill="#63b8ff" stroke="#63b8ff" points="632.32,-137.54 623.91,-131.11 626.47,-141.39 632.32,-137.54"/>
</g>
<!-- Node10&#45;&gt;Node2 -->
<g id="edge12" class="edge">
<title>Node10&#45;&gt;Node2</title>
<path fill="none" stroke="#63b8ff" d="M583.28,-114.72C531.51,-107.93 430.85,-93.85 336.18,-74.79"/>
<polygon fill="#63b8ff" stroke="#63b8ff" points="337.06,-71.2 326.56,-72.63 335.66,-78.06 337.06,-71.2"/>
</g>
<!-- Node10&#45;&gt;Node3 -->
<g id="edge13" class="edge">
<title>Node10&#45;&gt;Node3</title>
<path fill="none" stroke="#63b8ff" d="M583.35,-115.08C498.7,-105.19 282.11,-79.9 197.05,-69.97"/>
<polygon fill="#63b8ff" stroke="#63b8ff" points="197.51,-66.38 187.18,-68.7 196.7,-73.33 197.51,-66.38"/>
</g>
<!-- Node10&#45;&gt;Node4 -->
<g id="edge17" class="edge">
<title>Node10&#45;&gt;Node4</title>
<path fill="none" stroke="#63b8ff" d="M617.69,-110.27C616.72,-96.45 612.77,-69.83 597,-55.25 575.88,-35.73 497.39,-21.96 450.33,-15.26"/>
<polygon fill="#63b8ff" stroke="#63b8ff" points="451.06,-11.69 440.67,-13.79 450.1,-18.63 451.06,-11.69"/>
</g>
<!-- Node10&#45;&gt;Node8 -->
<g id="edge18" class="edge">
<title>Node10&#45;&gt;Node8</title>
<path fill="none" stroke="#63b8ff" d="M607.65,-110.09C598.84,-102.4 585.95,-91.15 575.39,-81.93"/>
<polygon fill="#63b8ff" stroke="#63b8ff" points="578.03,-78.71 568.19,-74.77 573.43,-83.99 578.03,-78.71"/>
</g>
<!-- Node11 -->
<g id="node11" class="node">
<title>Node11</title>
<g id="a_node11"><a xlink:title=" ">
<polygon fill="#e0e0e0" stroke="#999999" points="691.75,-74.5 644.25,-74.5 644.25,-55.25 691.75,-55.25 691.75,-74.5"/>
<text text-anchor="middle" x="668" y="-61" font-family="Helvetica,sans-Serif" font-size="10.00">string.h</text>
</a>
</g>
</g>
<!-- Node10&#45;&gt;Node11 -->
<g id="edge14" class="edge">
<title>Node10&#45;&gt;Node11</title>
<path fill="none" stroke="#63b8ff" d="M626.26,-110.33C633.31,-102.82 643.65,-91.81 652.27,-82.63"/>
<polygon fill="#63b8ff" stroke="#63b8ff" points="654.27,-85.55 658.56,-75.86 649.17,-80.75 654.27,-85.55"/>
</g>
<!-- Node12 -->
<g id="node12" class="node">
<title>Node12</title>
<g id="a_node12"><a xlink:title=" ">
<polygon fill="#e0e0e0" stroke="#999999" points="508.62,-74.5 463.38,-74.5 463.38,-55.25 508.62,-55.25 508.62,-74.5"/>
<text text-anchor="middle" x="486" y="-61" font-family="Helvetica,sans-Serif" font-size="10.00">atomic</text>
</a>
</g>
</g>
<!-- Node10&#45;&gt;Node12 -->
<g id="edge15" class="edge">
<title>Node10&#45;&gt;Node12</title>
<path fill="none" stroke="#63b8ff" d="M595.61,-110.09C574.46,-101.56 542.51,-88.67 518.55,-79.01"/>
<polygon fill="#63b8ff" stroke="#63b8ff" points="520.09,-75.45 509.5,-74.95 517.47,-81.94 520.09,-75.45"/>
</g>
<!-- Node13 -->
<g id="node13" class="node">
<title>Node13</title>
<g id="a_node13"><a xlink:title=" ">
<polygon fill="#e0e0e0" stroke="#999999" points="445,-74.5 399,-74.5 399,-55.25 445,-55.25 445,-74.5"/>
<text text-anchor="middle" x="422" y="-61" font-family="Helvetica,sans-Serif" font-size="10.00">iterator</text>
</a>
</g>
</g>
<!-- Node10&#45;&gt;Node13 -->
<g id="edge16" class="edge">
<title>Node10&#45;&gt;Node13</title>
<path fill="none" stroke="#63b8ff" d="M584.75,-110.09C548.82,-100.33 491.87,-84.86 455.75,-75.04"/>
<polygon fill="#63b8ff" stroke="#63b8ff" points="456.82,-71.44 446.25,-72.19 454.99,-78.19 456.82,-71.44"/>
</g>
<!-- Node10&#45;&gt;Node14 -->
<g id="edge19" class="edge">
<title>Node10&#45;&gt;Node14</title>
<path fill="none" stroke="#63b8ff" d="M652.56,-112.6C657.07,-111.84 661.64,-111.12 666,-110.5 807.71,-90.41 977.01,-75.4 1053.25,-69.11"/>
<polygon fill="#63b8ff" stroke="#63b8ff" points="1053.13,-72.55 1062.81,-68.25 1052.56,-65.58 1053.13,-72.55"/>
</g>
<!-- Node14&#45;&gt;Node4 -->
<g id="edge20" class="edge">
<title>Node14&#45;&gt;Node4</title>
<path fill="none" stroke="#63b8ff" d="M1063.9,-61.52C953.47,-52.87 570.74,-22.9 450.47,-13.48"/>
<polygon fill="#63b8ff" stroke="#63b8ff" points="450.91,-9.93 440.66,-12.63 450.36,-16.9 450.91,-9.93"/>
</g>
<!-- Node15&#45;&gt;Node2 -->
<g id="edge23" class="edge">
<title>Node15&#45;&gt;Node2</title>
<path fill="none" stroke="#63b8ff" d="M386.36,-110.09C370.22,-101.83 346.1,-89.48 327.44,-79.93"/>
<polygon fill="#63b8ff" stroke="#63b8ff" points="329.22,-76.39 318.73,-74.95 326.03,-82.63 329.22,-76.39"/>
</g>
<!-- Node15&#45;&gt;Node8 -->
<g id="edge26" class="edge">
<title>Node15&#45;&gt;Node8</title>
<path fill="none" stroke="#63b8ff" d="M429.95,-110.09C454.9,-101.41 492.83,-88.21 520.75,-78.49"/>
<polygon fill="#63b8ff" stroke="#63b8ff" points="521.62,-81.55 529.92,-74.95 519.32,-74.93 521.62,-81.55"/>
</g>
<!-- Node15&#45;&gt;Node13 -->
<g id="edge25" class="edge">
<title>Node15&#45;&gt;Node13</title>
<path fill="none" stroke="#63b8ff" d="M406.97,-110.33C409.28,-103.51 412.56,-93.81 415.47,-85.2"/>
<polygon fill="#63b8ff" stroke="#63b8ff" points="419.08,-86.45 418.96,-75.86 412.45,-84.21 419.08,-86.45"/>
</g>
<!-- Node15&#45;&gt;Node14 -->
<g id="edge27" class="edge">
<title>Node15&#45;&gt;Node14</title>
<path fill="none" stroke="#63b8ff" d="M452.25,-115.4C581.27,-105.44 932.65,-78.33 1052.95,-69.04"/>
<polygon fill="#63b8ff" stroke="#63b8ff" points="1053.16,-72.46 1062.86,-68.2 1052.62,-65.48 1053.16,-72.46"/>
</g>
<!-- Node16 -->
<g id="node16" class="node">
<title>Node16</title>
<g id="a_node16"><a xlink:title=" ">
<polygon fill="#e0e0e0" stroke="#999999" points="380.5,-74.5 343.5,-74.5 343.5,-55.25 380.5,-55.25 380.5,-74.5"/>
<text text-anchor="middle" x="362" y="-61" font-family="Helvetica,sans-Serif" font-size="10.00">array</text>
</a>
</g>
</g>
<!-- Node15&#45;&gt;Node16 -->
<g id="edge24" class="edge">
<title>Node15&#45;&gt;Node16</title>
<path fill="none" stroke="#63b8ff" d="M397.06,-110.33C391.32,-103.05 382.99,-92.48 375.88,-83.48"/>
<polygon fill="#63b8ff" stroke="#63b8ff" points="378.03,-81.54 369.09,-75.86 372.53,-85.88 378.03,-81.54"/>
</g>
<!-- Node17&#45;&gt;Node7 -->
<g id="edge29" class="edge">
<title>Node17&#45;&gt;Node7</title>
<path fill="none" stroke="#63b8ff" d="M734.79,-496.83C712.07,-480.07 668,-441.84 668,-397.38 668,-397.38 668,-397.38 668,-340.12 668,-309.11 669.24,-273.12 670.13,-251.38"/>
<polygon fill="#63b8ff" stroke="#63b8ff" points="673.66,-251.76 670.58,-241.62 666.66,-251.47 673.66,-251.76"/>
</g>
<!-- Node17&#45;&gt;Node14 -->
<g id="edge75" class="edge">
<title>Node17&#45;&gt;Node14</title>
<path fill="none" stroke="#63b8ff" d="M783.93,-503.72C920.4,-495.07 1399,-460.25 1399,-397.38 1399,-397.38 1399,-397.38 1399,-174.38 1399,-144.76 1402.3,-129.99 1380,-110.5 1344.17,-79.19 1204.85,-69.78 1134.76,-67.01"/>
<polygon fill="#63b8ff" stroke="#63b8ff" points="1135.25,-63.49 1125.13,-66.62 1134.99,-70.48 1135.25,-63.49"/>
</g>
<!-- Node18 -->
<g id="node18" class="node">
<title>Node18</title>
<g id="a_node18"><a xlink:href="v8-object_8h.html" target="_top" xlink:title=" ">
<polygon fill="white" stroke="#666666" points="925.62,-461.25 862.38,-461.25 862.38,-442 925.62,-442 925.62,-461.25"/>
<text text-anchor="middle" x="894" y="-447.75" font-family="Helvetica,sans-Serif" font-size="10.00">v8&#45;object.h</text>
</a>
</g>
</g>
<!-- Node17&#45;&gt;Node18 -->
<g id="edge30" class="edge">
<title>Node17&#45;&gt;Node18</title>
<path fill="none" stroke="#63b8ff" d="M772.77,-496.84C796.47,-488.2 832.45,-475.07 859.06,-465.37"/>
<polygon fill="#63b8ff" stroke="#63b8ff" points="859.92,-468.42 868.11,-461.7 857.52,-461.84 859.92,-468.42"/>
</g>
<!-- Node18&#45;&gt;Node7 -->
<g id="edge32" class="edge">
<title>Node18&#45;&gt;Node7</title>
<path fill="none" stroke="#63b8ff" d="M883.07,-441.71C855.18,-418.74 779.53,-355.14 723,-295.5 708.91,-280.64 694.31,-262.41 684.18,-249.23"/>
<polygon fill="#63b8ff" stroke="#63b8ff" points="686.5,-247.5 677.66,-241.66 680.92,-251.74 686.5,-247.5"/>
</g>
<!-- Node18&#45;&gt;Node10 -->
<g id="edge31" class="edge">
<title>Node18&#45;&gt;Node10</title>
<path fill="none" stroke="#63b8ff" d="M862.08,-446.91C814.71,-440.93 723.31,-427.61 648,-406 486.8,-359.73 377.61,-393.29 309,-240.25 305.5,-232.44 303.97,-227.92 309,-221 370.01,-137.16 502.84,-122.24 572.81,-120.48"/>
<polygon fill="#63b8ff" stroke="#63b8ff" points="572.53,-123.97 582.47,-120.3 572.42,-116.97 572.53,-123.97"/>
</g>
<!-- Node18&#45;&gt;Node14 -->
<g id="edge74" class="edge">
<title>Node18&#45;&gt;Node14</title>
<path fill="none" stroke="#63b8ff" d="M926.07,-448.01C1015.14,-439.88 1259,-411.29 1259,-342.12 1259,-342.12 1259,-342.12 1259,-174.38 1259,-114.93 1183.31,-86.24 1134.46,-73.91"/>
<polygon fill="#63b8ff" stroke="#63b8ff" points="1135.42,-70.3 1124.88,-71.39 1133.8,-77.11 1135.42,-70.3"/>
</g>
<!-- Node19 -->
<g id="node19" class="node">
<title>Node19</title>
<g id="a_node19"><a xlink:href="v8-maybe_8h.html" target="_top" xlink:title=" ">
<polygon fill="white" stroke="#666666" points="966.75,-295.5 901.25,-295.5 901.25,-276.25 966.75,-276.25 966.75,-295.5"/>
<text text-anchor="middle" x="934" y="-282" font-family="Helvetica,sans-Serif" font-size="10.00">v8&#45;maybe.h</text>
</a>
</g>
</g>
<!-- Node18&#45;&gt;Node19 -->
<g id="edge33" class="edge">
<title>Node18&#45;&gt;Node19</title>
<path fill="none" stroke="#63b8ff" d="M896.15,-441.82C902.39,-416.28 920.61,-341.7 929.29,-306.15"/>
<polygon fill="#63b8ff" stroke="#63b8ff" points="932.87,-307.27 931.84,-296.72 926.07,-305.61 932.87,-307.27"/>
</g>
<!-- Node20 -->
<g id="node20" class="node">
<title>Node20</title>
<g id="a_node20"><a xlink:href="v8-persistent-handle_8h.html" target="_top" xlink:title=" ">
<polygon fill="white" stroke="#666666" points="883.62,-295.5 772.38,-295.5 772.38,-276.25 883.62,-276.25 883.62,-295.5"/>
<text text-anchor="middle" x="828" y="-282" font-family="Helvetica,sans-Serif" font-size="10.00">v8&#45;persistent&#45;handle.h</text>
</a>
</g>
</g>
<!-- Node18&#45;&gt;Node20 -->
<g id="edge38" class="edge">
<title>Node18&#45;&gt;Node20</title>
<path fill="none" stroke="#63b8ff" d="M890.45,-441.82C880.11,-416.17 849.84,-341.05 835.58,-305.69"/>
<polygon fill="#63b8ff" stroke="#63b8ff" points="838.55,-304.69 831.57,-296.72 832.06,-307.31 838.55,-304.69"/>
</g>
<!-- Node22 -->
<g id="node22" class="node">
<title>Node22</title>
<g id="a_node22"><a xlink:href="v8-primitive_8h.html" target="_top" xlink:title=" ">
<polygon fill="white" stroke="#666666" points="1157.88,-406 1084.12,-406 1084.12,-386.75 1157.88,-386.75 1157.88,-406"/>
<text text-anchor="middle" x="1121" y="-392.5" font-family="Helvetica,sans-Serif" font-size="10.00">v8&#45;primitive.h</text>
</a>
</g>
</g>
<!-- Node18&#45;&gt;Node22 -->
<g id="edge44" class="edge">
<title>Node18&#45;&gt;Node22</title>
<path fill="none" stroke="#63b8ff" d="M926.04,-443.11C964.43,-434.1 1029.09,-418.94 1073.34,-408.55"/>
<polygon fill="#63b8ff" stroke="#63b8ff" points="1073.91,-411.78 1082.85,-406.09 1072.31,-404.97 1073.91,-411.78"/>
</g>
<!-- Node24 -->
<g id="node24" class="node">
<title>Node24</title>
<g id="a_node24"><a xlink:href="v8-value_8h.html" target="_top" xlink:title=" ">
<polygon fill="white" stroke="#666666" points="1025.12,-350.75 964.88,-350.75 964.88,-331.5 1025.12,-331.5 1025.12,-350.75"/>
<text text-anchor="middle" x="995" y="-337.25" font-family="Helvetica,sans-Serif" font-size="10.00">v8&#45;value.h</text>
</a>
</g>
</g>
<!-- Node18&#45;&gt;Node24 -->
<g id="edge73" class="edge">
<title>Node18&#45;&gt;Node24</title>
<path fill="none" stroke="#63b8ff" d="M902.27,-441.75C919.06,-423.71 957.42,-382.5 979.17,-359.13"/>
<polygon fill="#63b8ff" stroke="#63b8ff" points="981.37,-361.83 985.62,-352.13 976.25,-357.06 981.37,-361.83"/>
</g>
<!-- Node25 -->
<g id="node25" class="node">
<title>Node25</title>
<g id="a_node25"><a xlink:href="v8-sandbox_8h.html" target="_top" xlink:title=" ">
<polygon fill="white" stroke="#666666" points="1360.5,-185 1287.5,-185 1287.5,-165.75 1360.5,-165.75 1360.5,-185"/>
<text text-anchor="middle" x="1324" y="-171.5" font-family="Helvetica,sans-Serif" font-size="10.00">v8&#45;sandbox.h</text>
</a>
</g>
</g>
<!-- Node18&#45;&gt;Node25 -->
<g id="edge57" class="edge">
<title>Node18&#45;&gt;Node25</title>
<path fill="none" stroke="#63b8ff" d="M926.05,-450.42C1006.76,-449.36 1215.97,-443.01 1273,-406 1300.71,-388.02 1311,-375.16 1311,-342.12 1311,-342.12 1311,-342.12 1311,-284.88 1311,-253.65 1316.37,-217.72 1320.21,-196.05"/>
<polygon fill="#63b8ff" stroke="#63b8ff" points="1323.82,-196.8 1322.19,-186.33 1316.93,-195.53 1323.82,-196.8"/>
</g>
<!-- Node27 -->
<g id="node27" class="node">
<title>Node27</title>
<g id="a_node27"><a xlink:href="v8-traced-handle_8h.html" target="_top" xlink:title=" ">
<polygon fill="white" stroke="#666666" points="475.75,-295.5 380.25,-295.5 380.25,-276.25 475.75,-276.25 475.75,-295.5"/>
<text text-anchor="middle" x="428" y="-282" font-family="Helvetica,sans-Serif" font-size="10.00">v8&#45;traced&#45;handle.h</text>
</a>
</g>
</g>
<!-- Node18&#45;&gt;Node27 -->
<g id="edge61" class="edge">
<title>Node18&#45;&gt;Node27</title>
<path fill="none" stroke="#63b8ff" d="M862.03,-446.52C821.48,-440.65 749.89,-428.06 692,-406 628.69,-381.88 620.88,-359.09 559,-331.5 530.07,-318.6 496.2,-307.15 470.14,-299.08"/>
<polygon fill="#63b8ff" stroke="#63b8ff" points="471.44,-295.51 460.85,-295.94 469.39,-302.21 471.44,-295.51"/>
</g>
<!-- Node19&#45;&gt;Node5 -->
<g id="edge35" class="edge">
<title>Node19&#45;&gt;Node5</title>
<path fill="none" stroke="#63b8ff" d="M900.92,-277.69C898.25,-277.18 895.58,-276.69 893,-276.25 774.81,-256.11 740.43,-265.36 619,-240.11"/>
<polygon fill="#63b8ff" stroke="#63b8ff" points="620.05,-236.54 609.55,-237.9 618.61,-243.39 620.05,-236.54"/>
</g>
<!-- Node19&#45;&gt;Node8 -->
<g id="edge34" class="edge">
<title>Node19&#45;&gt;Node8</title>
<path fill="none" stroke="#63b8ff" d="M933.91,-275.78C933.36,-262.58 930.7,-237.84 919,-221 893.72,-184.6 875.6,-185.64 836,-165.75 755.19,-125.15 653.81,-93.22 598.21,-77.19"/>
<polygon fill="#63b8ff" stroke="#63b8ff" points="599.3,-73.58 588.72,-74.2 597.38,-80.31 599.3,-73.58"/>
</g>
<!-- Node19&#45;&gt;Node10 -->
<g id="edge36" class="edge">
<title>Node19&#45;&gt;Node10</title>
<path fill="none" stroke="#63b8ff" d="M931.31,-276.14C926.67,-262.49 915.91,-236.09 898,-221 828.7,-162.62 722.75,-137.34 663.02,-127.22"/>
<polygon fill="#63b8ff" stroke="#63b8ff" points="663.86,-123.64 653.43,-125.5 662.74,-130.55 663.86,-123.64"/>
</g>
<!-- Node19&#45;&gt;Node14 -->
<g id="edge37" class="edge">
<title>Node19&#45;&gt;Node14</title>
<path fill="none" stroke="#63b8ff" d="M955.39,-275.77C971.25,-268.16 992.54,-256.01 1007,-240.25 1050.57,-192.77 1077.46,-119.41 1088.38,-84.97"/>
<polygon fill="#63b8ff" stroke="#63b8ff" points="1091.89,-86.46 1091.47,-75.87 1085.2,-84.41 1091.89,-86.46"/>
</g>
<!-- Node20&#45;&gt;Node7 -->
<g id="edge40" class="edge">
<title>Node20&#45;&gt;Node7</title>
<path fill="none" stroke="#63b8ff" d="M801.37,-275.84C775.65,-267.12 736.5,-253.84 707.82,-244.11"/>
<polygon fill="#63b8ff" stroke="#63b8ff" points="709.36,-240.6 698.76,-240.7 707.11,-247.23 709.36,-240.6"/>
</g>
<!-- Node20&#45;&gt;Node10 -->
<g id="edge39" class="edge">
<title>Node20&#45;&gt;Node10</title>
<path fill="none" stroke="#63b8ff" d="M810,-275.86C795.64,-267.98 775.72,-255.44 762,-240.25 736.81,-212.36 749.71,-191.14 722,-165.75 705.42,-150.56 682.88,-140.04 663.03,-133.04"/>
<polygon fill="#63b8ff" stroke="#63b8ff" points="664.22,-129.42 653.63,-129.6 662.03,-136.06 664.22,-129.42"/>
</g>
<!-- Node20&#45;&gt;Node14 -->
<g id="edge43" class="edge">
<title>Node20&#45;&gt;Node14</title>
<path fill="none" stroke="#63b8ff" d="M843.77,-275.81C858.28,-267.24 880.18,-253.72 898,-240.25 968.37,-187.05 1044.46,-114.53 1077.33,-82.38"/>
<polygon fill="#63b8ff" stroke="#63b8ff" points="1079.39,-85.28 1084.07,-75.77 1074.48,-80.29 1079.39,-85.28"/>
</g>
<!-- Node21 -->
<g id="node21" class="node">
<title>Node21</title>
<g id="a_node21"><a xlink:href="v8-weak-callback-info_8h.html" target="_top" xlink:title=" ">
<polygon fill="white" stroke="#666666" points="889,-240.25 771,-240.25 771,-221 889,-221 889,-240.25"/>
<text text-anchor="middle" x="830" y="-226.75" font-family="Helvetica,sans-Serif" font-size="10.00">v8&#45;weak&#45;callback&#45;info.h</text>
</a>
</g>
</g>
<!-- Node20&#45;&gt;Node21 -->
<g id="edge41" class="edge">
<title>Node20&#45;&gt;Node21</title>
<path fill="none" stroke="#63b8ff" d="M828.33,-276.08C828.58,-269.42 828.93,-259.99 829.25,-251.53"/>
<polygon fill="#63b8ff" stroke="#63b8ff" points="832.78,-251.73 829.66,-241.61 825.79,-251.47 832.78,-251.73"/>
</g>
<!-- Node21&#45;&gt;Node14 -->
<g id="edge42" class="edge">
<title>Node21&#45;&gt;Node14</title>
<path fill="none" stroke="#63b8ff" d="M838.55,-220.64C859.57,-198.99 916.21,-143.32 973,-110.5 998.33,-95.86 1029.33,-84.54 1053.6,-76.97"/>
<polygon fill="#63b8ff" stroke="#63b8ff" points="1054.34,-80.1 1062.9,-73.85 1052.32,-73.4 1054.34,-80.1"/>
</g>
<!-- Node22&#45;&gt;Node7 -->
<g id="edge49" class="edge">
<title>Node22&#45;&gt;Node7</title>
<path fill="none" stroke="#63b8ff" d="M1125.05,-386.5C1134.35,-364.6 1154.36,-307.53 1126,-276.25 1125.17,-275.33 847.91,-248.61 726.66,-236.96"/>
<polygon fill="#63b8ff" stroke="#63b8ff" points="727.06,-233.39 716.78,-235.92 726.39,-240.36 727.06,-233.39"/>
</g>
<!-- Node22&#45;&gt;Node10 -->
<g id="edge48" class="edge">
<title>Node22&#45;&gt;Node10</title>
<path fill="none" stroke="#63b8ff" d="M1129.77,-386.37C1137.32,-377.95 1147.66,-364.61 1152,-350.75 1157.94,-331.77 1151.79,-285.06 1145,-276.25 1064.83,-172.26 997.23,-201.91 871,-165.75 799.7,-145.33 714.27,-132.61 663.16,-126.2"/>
<polygon fill="#63b8ff" stroke="#63b8ff" points="663.83,-122.63 653.48,-124.89 662.98,-129.58 663.83,-122.63"/>
</g>
<!-- Node22&#45;&gt;Node14 -->
<g id="edge56" class="edge">
<title>Node22&#45;&gt;Node14</title>
<path fill="none" stroke="#63b8ff" d="M1138.88,-386.42C1167.64,-370.59 1221,-334.78 1221,-286.88 1221,-286.88 1221,-286.88 1221,-174.38 1221,-126.53 1168.25,-95.29 1130.74,-79.12"/>
<polygon fill="#63b8ff" stroke="#63b8ff" points="1132.2,-75.53 1121.62,-74.96 1129.54,-82 1132.2,-75.53"/>
</g>
<!-- Node23 -->
<g id="node23" class="node">
<title>Node23</title>
<g id="a_node23"><a xlink:href="v8-data_8h.html" target="_top" xlink:title=" ">
<polygon fill="white" stroke="#666666" points="1116.88,-295.5 1061.12,-295.5 1061.12,-276.25 1116.88,-276.25 1116.88,-295.5"/>
<text text-anchor="middle" x="1089" y="-282" font-family="Helvetica,sans-Serif" font-size="10.00">v8&#45;data.h</text>
</a>
</g>
</g>
<!-- Node22&#45;&gt;Node23 -->
<g id="edge45" class="edge">
<title>Node22&#45;&gt;Node23</title>
<path fill="none" stroke="#63b8ff" d="M1118.38,-386.5C1113.25,-369.09 1101.76,-330.12 1094.76,-306.41"/>
<polygon fill="#63b8ff" stroke="#63b8ff" points="1097.84,-305.48 1091.65,-296.88 1091.13,-307.46 1097.84,-305.48"/>
</g>
<!-- Node22&#45;&gt;Node24 -->
<g id="edge50" class="edge">
<title>Node22&#45;&gt;Node24</title>
<path fill="none" stroke="#63b8ff" d="M1099.63,-386.34C1079.53,-377.85 1049.22,-365.04 1026.38,-355.39"/>
<polygon fill="#63b8ff" stroke="#63b8ff" points="1028.05,-351.87 1017.48,-351.2 1025.33,-358.32 1028.05,-351.87"/>
</g>
<!-- Node23&#45;&gt;Node7 -->
<g id="edge46" class="edge">
<title>Node23&#45;&gt;Node7</title>
<path fill="none" stroke="#63b8ff" d="M1060.92,-281.3C992.66,-272.6 816.96,-250.22 726.56,-238.7"/>
<polygon fill="#63b8ff" stroke="#63b8ff" points="727.07,-235.11 716.7,-237.32 726.18,-242.06 727.07,-235.11"/>
</g>
<!-- Node23&#45;&gt;Node14 -->
<g id="edge47" class="edge">
<title>Node23&#45;&gt;Node14</title>
<path fill="none" stroke="#63b8ff" d="M1114.86,-275.82C1130.69,-268.79 1149.64,-257.31 1159,-240.25 1186.73,-189.69 1185.86,-161.53 1159,-110.5 1151.99,-97.18 1139.01,-87.07 1126.48,-79.87"/>
<polygon fill="#63b8ff" stroke="#63b8ff" points="1128.57,-76.49 1118.09,-74.92 1125.31,-82.68 1128.57,-76.49"/>
</g>
<!-- Node24&#45;&gt;Node7 -->
<g id="edge53" class="edge">
<title>Node24&#45;&gt;Node7</title>
<path fill="none" stroke="#63b8ff" d="M964.55,-338.3C919.07,-334.69 831.42,-324.3 763,-295.5 734.92,-283.68 706.75,-262.4 689.12,-247.67"/>
<polygon fill="#63b8ff" stroke="#63b8ff" points="691.79,-244.49 681.91,-240.65 687.23,-249.81 691.79,-244.49"/>
</g>
<!-- Node24&#45;&gt;Node10 -->
<g id="edge52" class="edge">
<title>Node24&#45;&gt;Node10</title>
<path fill="none" stroke="#63b8ff" d="M993.83,-331.29C991.8,-318.4 986.8,-294.06 976,-276.25 934.9,-208.47 909.18,-196.22 836,-165.75 779.12,-142.06 708.5,-130.57 663.34,-125.27"/>
<polygon fill="#63b8ff" stroke="#63b8ff" points="663.76,-121.68 653.43,-124.05 662.98,-128.64 663.76,-121.68"/>
</g>
<!-- Node24&#45;&gt;Node14 -->
<g id="edge55" class="edge">
<title>Node24&#45;&gt;Node14</title>
<path fill="none" stroke="#63b8ff" d="M1000.29,-331.3C1016.87,-303.13 1067.99,-212.33 1089,-129.75 1092.7,-115.21 1093.89,-98.26 1094.19,-85.47"/>
<polygon fill="#63b8ff" stroke="#63b8ff" points="1097.69,-85.73 1094.25,-75.71 1090.69,-85.69 1097.69,-85.73"/>
</g>
<!-- Node24&#45;&gt;Node19 -->
<g id="edge54" class="edge">
<title>Node24&#45;&gt;Node19</title>
<path fill="none" stroke="#63b8ff" d="M984.65,-331.09C975.84,-323.4 962.95,-312.15 952.39,-302.93"/>
<polygon fill="#63b8ff" stroke="#63b8ff" points="955.03,-299.71 945.19,-295.77 950.43,-304.99 955.03,-299.71"/>
</g>
<!-- Node24&#45;&gt;Node23 -->
<g id="edge51" class="edge">
<title>Node24&#45;&gt;Node23</title>
<path fill="none" stroke="#63b8ff" d="M1010.95,-331.09C1025.4,-322.91 1046.93,-310.71 1063.73,-301.19"/>
<polygon fill="#63b8ff" stroke="#63b8ff" points="1065,-303.93 1071.98,-295.95 1061.55,-297.84 1065,-303.93"/>
</g>
<!-- Node25&#45;&gt;Node10 -->
<g id="edge59" class="edge">
<title>Node25&#45;&gt;Node10</title>
<path fill="none" stroke="#63b8ff" d="M1287.04,-171.59C1167.8,-162.59 793.56,-134.37 663.27,-124.54"/>
<polygon fill="#63b8ff" stroke="#63b8ff" points="663.74,-120.99 653.51,-123.73 663.21,-127.97 663.74,-120.99"/>
</g>
<!-- Node25&#45;&gt;Node14 -->
<g id="edge60" class="edge">
<title>Node25&#45;&gt;Node14</title>
<path fill="none" stroke="#63b8ff" d="M1319.38,-165.41C1311.71,-151.43 1294.97,-124.6 1273,-110.5 1230.81,-83.42 1173.28,-72.77 1134.95,-68.58"/>
<polygon fill="#63b8ff" stroke="#63b8ff" points="1135.49,-65.02 1125.2,-67.52 1134.8,-71.99 1135.49,-65.02"/>
</g>
<!-- Node26 -->
<g id="node26" class="node">
<title>Node26</title>
<g id="a_node26"><a xlink:title=" ">
<polygon fill="#e0e0e0" stroke="#999999" points="1370.62,-129.75 1325.38,-129.75 1325.38,-110.5 1370.62,-110.5 1370.62,-129.75"/>
<text text-anchor="middle" x="1348" y="-116.25" font-family="Helvetica,sans-Serif" font-size="10.00">cstdint</text>
</a>
</g>
</g>
<!-- Node25&#45;&gt;Node26 -->
<g id="edge58" class="edge">
<title>Node25&#45;&gt;Node26</title>
<path fill="none" stroke="#63b8ff" d="M1327.96,-165.58C1331.11,-158.61 1335.61,-148.62 1339.55,-139.87"/>
<polygon fill="#63b8ff" stroke="#63b8ff" points="1343.03,-141.66 1343.95,-131.11 1336.65,-138.79 1343.03,-141.66"/>
</g>
<!-- Node27&#45;&gt;Node2 -->
<g id="edge62" class="edge">
<title>Node27&#45;&gt;Node2</title>
<path fill="none" stroke="#63b8ff" d="M379.81,-279.4C354.5,-273.85 325.42,-262.68 309,-240.25 275.05,-193.86 286.46,-120.51 294.66,-85.6"/>
<polygon fill="#63b8ff" stroke="#63b8ff" points="298.29,-86.51 297.34,-75.96 291.5,-84.8 298.29,-86.51"/>
</g>
<!-- Node27&#45;&gt;Node3 -->
<g id="edge63" class="edge">
<title>Node27&#45;&gt;Node3</title>
<path fill="none" stroke="#63b8ff" d="M385.47,-275.77C358.27,-268.73 322.98,-257.28 295,-240.25 231.93,-201.86 188.09,-121.56 170.54,-84.88"/>
<polygon fill="#63b8ff" stroke="#63b8ff" points="173.33,-83.59 165.94,-75.99 166.98,-86.54 173.33,-83.59"/>
</g>
<!-- Node27&#45;&gt;Node4 -->
<g id="edge66" class="edge">
<title>Node27&#45;&gt;Node4</title>
<path fill="none" stroke="#63b8ff" d="M419.85,-275.96C389.26,-242.27 282.27,-122.28 266,-74.5 249.85,-27.06 328.69,-14.74 377.55,-11.61"/>
<polygon fill="#63b8ff" stroke="#63b8ff" points="377.56,-15.06 387.36,-11.04 377.19,-8.07 377.56,-15.06"/>
</g>
<!-- Node27&#45;&gt;Node5 -->
<g id="edge68" class="edge">
<title>Node27&#45;&gt;Node5</title>
<path fill="none" stroke="#63b8ff" d="M455.31,-275.84C484.24,-266.28 529.74,-251.22 559.48,-241.39"/>
<polygon fill="#63b8ff" stroke="#63b8ff" points="560.27,-244.48 568.66,-238.02 558.07,-237.84 560.27,-244.48"/>
</g>
<!-- Node27&#45;&gt;Node7 -->
<g id="edge70" class="edge">
<title>Node27&#45;&gt;Node7</title>
<path fill="none" stroke="#63b8ff" d="M469.5,-275.78C510.82,-266.73 574.38,-252.8 619.04,-243.01"/>
<polygon fill="#63b8ff" stroke="#63b8ff" points="619.66,-246.24 628.67,-240.68 618.16,-239.4 619.66,-246.24"/>
</g>
<!-- Node27&#45;&gt;Node8 -->
<g id="edge67" class="edge">
<title>Node27&#45;&gt;Node8</title>
<path fill="none" stroke="#63b8ff" d="M433.22,-276.02C452.5,-243.27 520.03,-128.64 546.37,-83.93"/>
<polygon fill="#63b8ff" stroke="#63b8ff" points="549.8,-85.99 551.86,-75.6 543.77,-82.44 549.8,-85.99"/>
</g>
<!-- Node27&#45;&gt;Node10 -->
<g id="edge69" class="edge">
<title>Node27&#45;&gt;Node10</title>
<path fill="none" stroke="#63b8ff" d="M438.37,-276C448.88,-267 465.58,-252.68 480,-240.25 518.3,-207.23 527.7,-198.77 566,-165.75 577.04,-156.23 589.42,-145.61 599.33,-137.11"/>
<polygon fill="#63b8ff" stroke="#63b8ff" points="601.31,-139.17 606.63,-130 596.76,-133.85 601.31,-139.17"/>
</g>
<!-- Node27&#45;&gt;Node12 -->
<g id="edge65" class="edge">
<title>Node27&#45;&gt;Node12</title>
<path fill="none" stroke="#63b8ff" d="M429.41,-275.82C432.63,-255.78 441.07,-206.28 452,-165.75 459.7,-137.22 471.2,-104.98 478.65,-85.04"/>
<polygon fill="#63b8ff" stroke="#63b8ff" points="482.24,-86.43 482.51,-75.84 475.69,-83.96 482.24,-86.43"/>
</g>
<!-- Node27&#45;&gt;Node14 -->
<g id="edge72" class="edge">
<title>Node27&#45;&gt;Node14</title>
<path fill="none" stroke="#63b8ff" d="M445.25,-275.81C461.15,-267.24 485.2,-253.73 505,-240.25 549.07,-210.25 550.65,-188.2 599,-165.75 756.12,-92.81 965.58,-72.97 1052.99,-67.71"/>
<polygon fill="#63b8ff" stroke="#63b8ff" points="1052.98,-71.16 1062.76,-67.1 1052.58,-64.17 1052.98,-71.16"/>
</g>
<!-- Node27&#45;&gt;Node21 -->
<g id="edge71" class="edge">
<title>Node27&#45;&gt;Node21</title>
<path fill="none" stroke="#63b8ff" d="M476.09,-278.5C546.7,-269.15 678.82,-251.65 760.13,-240.88"/>
<polygon fill="#63b8ff" stroke="#63b8ff" points="760.32,-244.25 769.77,-239.47 759.4,-237.31 760.32,-244.25"/>
</g>
<!-- Node28 -->
<g id="node28" class="node">
<title>Node28</title>
<g id="a_node28"><a xlink:title=" ">
<polygon fill="#e0e0e0" stroke="#999999" points="362.25,-240.25 317.75,-240.25 317.75,-221 362.25,-221 362.25,-240.25"/>
<text text-anchor="middle" x="340" y="-226.75" font-family="Helvetica,sans-Serif" font-size="10.00">stdio.h</text>
</a>
</g>
</g>
<!-- Node27&#45;&gt;Node28 -->
<g id="edge64" class="edge">
<title>Node27&#45;&gt;Node28</title>
<path fill="none" stroke="#63b8ff" d="M413.07,-275.84C399.67,-267.73 379.76,-255.68 364.1,-246.21"/>
<polygon fill="#63b8ff" stroke="#63b8ff" points="366.37,-242.89 356,-240.7 362.74,-248.87 366.37,-242.89"/>
</g>
</g>
</svg>
