<?xml version="1.0" encoding="UTF-8" standalone="no"?>
<!DOCTYPE svg PUBLIC "-//W3C//DTD SVG 1.1//EN"
 "http://www.w3.org/Graphics/SVG/1.1/DTD/svg11.dtd">
<!-- Generated by graphviz version 8.0.5 (20230430.1635)
 -->
<!-- Title: include/v8&#45;unwinder.h Pages: 1 -->
<svg width="506pt" height="315pt"
 viewBox="0.00 0.00 506.35 314.75" xmlns="http://www.w3.org/2000/svg" xmlns:xlink="http://www.w3.org/1999/xlink">
<g id="graph0" class="graph" transform="scale(1 1) rotate(0) translate(4 310.75)">
<title>include/v8&#45;unwinder.h</title>
<!-- Node1 -->
<g id="node1" class="node">
<title>Node1</title>
<g id="a_node1"><a xlink:title=" ">
<polygon fill="#999999" stroke="#666666" points="419.38,-306.75 309.62,-306.75 309.62,-287.5 419.38,-287.5 419.38,-306.75"/>
<text text-anchor="middle" x="364.5" y="-293.25" font-family="Helvetica,sans-Serif" font-size="10.00">include/v8&#45;unwinder.h</text>
</a>
</g>
</g>
<!-- Node2 -->
<g id="node2" class="node">
<title>Node2</title>
<g id="a_node2"><a xlink:href="v8-isolate_8h.html" target="_top" xlink:title=" ">
<polygon fill="white" stroke="#666666" points="282.12,-251.5 182.88,-251.5 182.88,-232.25 282.12,-232.25 282.12,-251.5"/>
<text text-anchor="middle" x="232.5" y="-238" font-family="Helvetica,sans-Serif" font-size="10.00">include/v8&#45;isolate.h</text>
</a>
</g>
</g>
<!-- Node1&#45;&gt;Node2 -->
<g id="edge1" class="edge">
<title>Node1&#45;&gt;Node2</title>
<path fill="none" stroke="#63b8ff" d="M332.07,-283.04C308.14,-273.39 276.18,-260.5 255,-251.95"/>
<polygon fill="#63b8ff" stroke="#63b8ff" points="330.52,-286.6 341.11,-287.09 333.14,-280.1 330.52,-286.6"/>
</g>
<!-- Node4 -->
<g id="node4" class="node">
<title>Node4</title>
<g id="a_node4"><a xlink:href="v8_8h.html" target="_top" xlink:title=" ">
<polygon fill="white" stroke="#666666" points="362.38,-19.25 294.62,-19.25 294.62,0 362.38,0 362.38,-19.25"/>
<text text-anchor="middle" x="328.5" y="-5.75" font-family="Helvetica,sans-Serif" font-size="10.00">include/v8.h</text>
</a>
</g>
</g>
<!-- Node1&#45;&gt;Node4 -->
<g id="edge13" class="edge">
<title>Node1&#45;&gt;Node4</title>
<path fill="none" stroke="#63b8ff" d="M403.46,-283.18C442.71,-267.4 497.5,-236.59 497.5,-187.62 497.5,-187.62 497.5,-187.62 497.5,-124.75 497.5,-92.73 500.89,-78.14 478.5,-55.25 448.01,-24.07 396.79,-14.45 362.82,-11.61"/>
<polygon fill="#63b8ff" stroke="#63b8ff" points="402.44,-280.21 394.36,-287.06 404.95,-286.74 402.44,-280.21"/>
</g>
<!-- Node3 -->
<g id="node3" class="node">
<title>Node3</title>
<g id="a_node3"><a xlink:href="v8-initialization_8h.html" target="_top" xlink:title=" ">
<polygon fill="white" stroke="#666666" points="121,-74.5 0,-74.5 0,-55.25 121,-55.25 121,-74.5"/>
<text text-anchor="middle" x="60.5" y="-61" font-family="Helvetica,sans-Serif" font-size="10.00">include/v8&#45;initialization.h</text>
</a>
</g>
</g>
<!-- Node2&#45;&gt;Node3 -->
<g id="edge2" class="edge">
<title>Node2&#45;&gt;Node3</title>
<path fill="none" stroke="#63b8ff" d="M190.59,-228.11C172.13,-220.95 151.14,-210.53 135.5,-196.25 95.78,-159.98 71.42,-97.66 63.42,-74.7"/>
<polygon fill="#63b8ff" stroke="#63b8ff" points="189.22,-231.7 199.81,-231.86 191.63,-225.13 189.22,-231.7"/>
</g>
<!-- Node2&#45;&gt;Node4 -->
<g id="edge12" class="edge">
<title>Node2&#45;&gt;Node4</title>
<path fill="none" stroke="#63b8ff" d="M200.41,-226.71C188.1,-219.5 175.37,-209.42 168.5,-196.25 160.96,-181.81 144.92,-154.18 169.5,-110.5 197.23,-61.21 260.41,-32.85 298.24,-19.7"/>
<polygon fill="#63b8ff" stroke="#63b8ff" points="198.61,-230.25 209.07,-231.89 201.91,-224.08 198.61,-230.25"/>
</g>
<!-- Node5 -->
<g id="node5" class="node">
<title>Node5</title>
<g id="a_node5"><a xlink:href="v8-inspector_8h.html" target="_top" xlink:title=" ">
<polygon fill="white" stroke="#666666" points="287.75,-196.25 177.25,-196.25 177.25,-177 287.75,-177 287.75,-196.25"/>
<text text-anchor="middle" x="232.5" y="-182.75" font-family="Helvetica,sans-Serif" font-size="10.00">include/v8&#45;inspector.h</text>
</a>
</g>
</g>
<!-- Node2&#45;&gt;Node5 -->
<g id="edge4" class="edge">
<title>Node2&#45;&gt;Node5</title>
<path fill="none" stroke="#63b8ff" d="M232.5,-221.21C232.5,-212.77 232.5,-203.33 232.5,-196.61"/>
<polygon fill="#63b8ff" stroke="#63b8ff" points="229,-221.08 232.5,-231.08 236,-221.08 229,-221.08"/>
</g>
<!-- Node7 -->
<g id="node7" class="node">
<title>Node7</title>
<g id="a_node7"><a xlink:href="v8-snapshot_8h.html" target="_top" xlink:title=" ">
<polygon fill="white" stroke="#666666" points="416.75,-196.25 306.25,-196.25 306.25,-177 416.75,-177 416.75,-196.25"/>
<text text-anchor="middle" x="361.5" y="-182.75" font-family="Helvetica,sans-Serif" font-size="10.00">include/v8&#45;snapshot.h</text>
</a>
</g>
</g>
<!-- Node2&#45;&gt;Node7 -->
<g id="edge6" class="edge">
<title>Node2&#45;&gt;Node7</title>
<path fill="none" stroke="#63b8ff" d="M264.51,-227.66C287.86,-218.02 318.9,-205.21 339.51,-196.7"/>
<polygon fill="#63b8ff" stroke="#63b8ff" points="263.29,-224.79 255.38,-231.84 265.96,-231.26 263.29,-224.79"/>
</g>
<!-- Node3&#45;&gt;Node4 -->
<g id="edge3" class="edge">
<title>Node3&#45;&gt;Node4</title>
<path fill="none" stroke="#63b8ff" d="M116.99,-52.65C170.69,-41.98 249.71,-26.28 294.4,-17.4"/>
<polygon fill="#63b8ff" stroke="#63b8ff" points="116.39,-49.4 107.27,-54.78 117.76,-56.27 116.39,-49.4"/>
</g>
<!-- Node6 -->
<g id="node6" class="node">
<title>Node6</title>
<g id="a_node6"><a xlink:href="v8-inspector-protocol_8h.html" target="_top" xlink:title=" ">
<polygon fill="white" stroke="#666666" points="281,-141 178,-141 178,-110.5 281,-110.5 281,-141"/>
<text text-anchor="start" x="186" y="-127.5" font-family="Helvetica,sans-Serif" font-size="10.00">include/v8&#45;inspector</text>
<text text-anchor="middle" x="229.5" y="-116.25" font-family="Helvetica,sans-Serif" font-size="10.00">&#45;protocol.h</text>
</a>
</g>
</g>
<!-- Node5&#45;&gt;Node6 -->
<g id="edge5" class="edge">
<title>Node5&#45;&gt;Node6</title>
<path fill="none" stroke="#63b8ff" d="M231.48,-165.7C231.08,-157.7 230.62,-148.65 230.24,-141.28"/>
<polygon fill="#63b8ff" stroke="#63b8ff" points="228.04,-165.87 232.04,-175.68 235.03,-165.52 228.04,-165.87"/>
</g>
<!-- Node7&#45;&gt;Node4 -->
<g id="edge11" class="edge">
<title>Node7&#45;&gt;Node4</title>
<path fill="none" stroke="#63b8ff" d="M344.9,-168.6C338.46,-160.84 331.84,-151.13 328.5,-141 314.12,-97.36 322.54,-40.95 326.65,-19.46"/>
<polygon fill="#63b8ff" stroke="#63b8ff" points="341.89,-170.61 351.17,-175.73 347.11,-165.94 341.89,-170.61"/>
</g>
<!-- Node8 -->
<g id="node8" class="node">
<title>Node8</title>
<g id="a_node8"><a xlink:href="v8-context_8h.html" target="_top" xlink:title=" ">
<polygon fill="white" stroke="#666666" points="439.62,-135.38 337.38,-135.38 337.38,-116.12 439.62,-116.12 439.62,-135.38"/>
<text text-anchor="middle" x="388.5" y="-121.88" font-family="Helvetica,sans-Serif" font-size="10.00">include/v8&#45;context.h</text>
</a>
</g>
</g>
<!-- Node7&#45;&gt;Node8 -->
<g id="edge7" class="edge">
<title>Node7&#45;&gt;Node8</title>
<path fill="none" stroke="#63b8ff" d="M370.11,-166.86C374.87,-156.46 380.58,-144.02 384.36,-135.78"/>
<polygon fill="#63b8ff" stroke="#63b8ff" points="366.59,-165.13 365.6,-175.68 372.95,-168.05 366.59,-165.13"/>
</g>
<!-- Node8&#45;&gt;Node4 -->
<g id="edge10" class="edge">
<title>Node8&#45;&gt;Node4</title>
<path fill="none" stroke="#63b8ff" d="M378.68,-106.07C365.59,-81.17 342.94,-38.09 333.19,-19.54"/>
<polygon fill="#63b8ff" stroke="#63b8ff" points="376.04,-107.57 383.79,-114.79 382.24,-104.31 376.04,-107.57"/>
</g>
<!-- Node9 -->
<g id="node9" class="node">
<title>Node9</title>
<g id="a_node9"><a xlink:href="v8-proxy_8h.html" target="_top" xlink:title=" ">
<polygon fill="white" stroke="#666666" points="469.12,-74.5 375.88,-74.5 375.88,-55.25 469.12,-55.25 469.12,-74.5"/>
<text text-anchor="middle" x="422.5" y="-61" font-family="Helvetica,sans-Serif" font-size="10.00">include/v8&#45;proxy.h</text>
</a>
</g>
</g>
<!-- Node8&#45;&gt;Node9 -->
<g id="edge8" class="edge">
<title>Node8&#45;&gt;Node9</title>
<path fill="none" stroke="#63b8ff" d="M399.15,-106.31C405.19,-95.85 412.48,-83.23 417.29,-74.9"/>
<polygon fill="#63b8ff" stroke="#63b8ff" points="395.63,-104.4 393.66,-114.81 401.7,-107.9 395.63,-104.4"/>
</g>
<!-- Node9&#45;&gt;Node4 -->
<g id="edge9" class="edge">
<title>Node9&#45;&gt;Node4</title>
<path fill="none" stroke="#63b8ff" d="M397.32,-49.61C380.54,-40.11 359,-27.9 344.52,-19.7"/>
<polygon fill="#63b8ff" stroke="#63b8ff" points="395.13,-52.96 405.55,-54.84 398.58,-46.87 395.13,-52.96"/>
</g>
</g>
</svg>
