<?xml version="1.0" encoding="UTF-8" standalone="no"?>
<!DOCTYPE svg PUBLIC "-//W3C//DTD SVG 1.1//EN"
 "http://www.w3.org/Graphics/SVG/1.1/DTD/svg11.dtd">
<!-- Generated by graphviz version 8.0.5 (20230430.1635)
 -->
<!-- Title: v8::api_internal::StackAllocated&lt; check_statically_enabled &gt; Pages: 1 -->
<svg width="871pt" height="838pt"
 viewBox="0.00 0.00 871.00 837.53" xmlns="http://www.w3.org/2000/svg" xmlns:xlink="http://www.w3.org/1999/xlink">
<g id="graph0" class="graph" transform="scale(1 1) rotate(0) translate(4 833.53)">
<title>v8::api_internal::StackAllocated&lt; check_statically_enabled &gt;</title>
<!-- Node1 -->
<g id="node1" class="node">
<title>Node1</title>
<g id="a_node1"><a xlink:title=" ">
<polygon fill="#999999" stroke="#666666" points="151,-449.5 0,-449.5 0,-419 151,-419 151,-449.5"/>
<text text-anchor="start" x="8" y="-436" font-family="Helvetica,sans-Serif" font-size="10.00">v8::api_internal::StackAllocated</text>
<text text-anchor="middle" x="75.5" y="-424.75" font-family="Helvetica,sans-Serif" font-size="10.00">&lt; check_statically_enabled &gt;</text>
</a>
</g>
</g>
<!-- Node2 -->
<g id="node2" class="node">
<title>Node2</title>
<g id="a_node2"><a xlink:href="classv8_1_1api__internal_1_1StackAllocated.html" target="_top" xlink:title=" ">
<polygon fill="white" stroke="#666666" points="377.75,-449.5 226.75,-449.5 226.75,-419 377.75,-419 377.75,-449.5"/>
<text text-anchor="start" x="234.75" y="-436" font-family="Helvetica,sans-Serif" font-size="10.00">v8::api_internal::StackAllocated</text>
<text text-anchor="middle" x="302.25" y="-424.75" font-family="Helvetica,sans-Serif" font-size="10.00">&lt; false &gt;</text>
</a>
</g>
</g>
<!-- Node1&#45;&gt;Node2 -->
<g id="edge1" class="edge">
<title>Node1&#45;&gt;Node2</title>
<path fill="none" stroke="orange" stroke-dasharray="5,2" d="M162.24,-434.25C183.36,-434.25 205.8,-434.25 226.36,-434.25"/>
<polygon fill="orange" stroke="orange" points="162.34,-430.75 152.34,-434.25 162.34,-437.75 162.34,-430.75"/>
<text text-anchor="middle" x="188.88" y="-436" font-family="Helvetica,sans-Serif" font-size="10.00"> &lt; false &gt;</text>
</g>
<!-- Node3 -->
<g id="node3" class="node">
<title>Node3</title>
<g id="a_node3"><a xlink:href="classv8_1_1Local.html" target="_top" xlink:title=" ">
<polygon fill="white" stroke="#666666" points="837.5,-564.88 725.5,-564.88 725.5,-545.62 837.5,-545.62 837.5,-564.88"/>
<text text-anchor="middle" x="781.5" y="-551.38" font-family="Helvetica,sans-Serif" font-size="10.00">v8::Local&lt; v8::String &gt;</text>
</a>
</g>
</g>
<!-- Node2&#45;&gt;Node3 -->
<g id="edge2" class="edge">
<title>Node2&#45;&gt;Node3</title>
<path fill="none" stroke="#63b8ff" d="M324.53,-457.82C345.7,-480.22 379.98,-513.75 414.75,-536.25 483.44,-580.7 503.63,-592.68 583.75,-609.25 626.51,-618.09 640.7,-623.42 682,-609.25 691.59,-605.96 691.42,-600.64 700,-595.25 718.5,-583.62 740.84,-572.75 757.29,-565.28"/>
<polygon fill="#63b8ff" stroke="#63b8ff" points="327.45,-455.75 318.08,-450.82 322.33,-460.52 327.45,-455.75"/>
</g>
<!-- Node4 -->
<g id="node4" class="node">
<title>Node4</title>
<g id="a_node4"><a xlink:href="classv8_1_1Local.html" target="_top" xlink:title=" ">
<polygon fill="white" stroke="#666666" points="839,-523.88 724,-523.88 724,-504.62 839,-504.62 839,-523.88"/>
<text text-anchor="middle" x="781.5" y="-510.38" font-family="Helvetica,sans-Serif" font-size="10.00">v8::Local&lt; v8::Object &gt;</text>
</a>
</g>
</g>
<!-- Node2&#45;&gt;Node4 -->
<g id="edge3" class="edge">
<title>Node2&#45;&gt;Node4</title>
<path fill="none" stroke="#63b8ff" d="M336.41,-455.37C358.11,-468.59 387.42,-485.31 414.75,-497.25 487.01,-528.81 505.84,-539.11 583.75,-551.25 626.9,-557.98 640.94,-566.12 682,-551.25 691.79,-547.7 690.77,-541.07 700,-536.25 709.51,-531.29 720.24,-527.36 730.7,-524.28"/>
<polygon fill="#63b8ff" stroke="#63b8ff" points="338.65,-452.02 328.3,-449.76 334.98,-457.98 338.65,-452.02"/>
</g>
<!-- Node5 -->
<g id="node5" class="node">
<title>Node5</title>
<g id="a_node5"><a xlink:href="classv8_1_1Local.html" target="_top" xlink:title=" ">
<polygon fill="white" stroke="#666666" points="836,-821.88 727,-821.88 727,-802.62 836,-802.62 836,-821.88"/>
<text text-anchor="middle" x="781.5" y="-808.38" font-family="Helvetica,sans-Serif" font-size="10.00">v8::Local&lt; v8::Array &gt;</text>
</a>
</g>
</g>
<!-- Node2&#45;&gt;Node5 -->
<g id="edge4" class="edge">
<title>Node2&#45;&gt;Node5</title>
<path fill="none" stroke="#63b8ff" d="M304.34,-460.61C308.36,-522.39 327.12,-677.6 414.75,-761.25 498.8,-841.49 647.18,-833.67 726.66,-822.27"/>
<polygon fill="#63b8ff" stroke="#63b8ff" points="307.8,-460.66 303.74,-450.87 300.81,-461.06 307.8,-460.66"/>
</g>
<!-- Node6 -->
<g id="node6" class="node">
<title>Node6</title>
<g id="a_node6"><a xlink:href="classv8_1_1Local.html" target="_top" xlink:title=" ">
<polygon fill="white" stroke="#666666" points="841.25,-479.88 721.75,-479.88 721.75,-460.62 841.25,-460.62 841.25,-479.88"/>
<text text-anchor="middle" x="781.5" y="-466.38" font-family="Helvetica,sans-Serif" font-size="10.00">v8::Local&lt; v8::Context &gt;</text>
</a>
</g>
</g>
<!-- Node2&#45;&gt;Node6 -->
<g id="edge5" class="edge">
<title>Node2&#45;&gt;Node6</title>
<path fill="none" stroke="#63b8ff" d="M356.92,-453.41C430.17,-477.22 565.67,-512.91 682,-497.25 705.9,-494.03 732.21,-486.61 751.62,-480.37"/>
<polygon fill="#63b8ff" stroke="#63b8ff" points="358.17,-449.8 347.57,-449.99 355.97,-456.45 358.17,-449.8"/>
</g>
<!-- Node7 -->
<g id="node7" class="node">
<title>Node7</title>
<g id="a_node7"><a xlink:href="classv8_1_1Local.html" target="_top" xlink:title=" ">
<polygon fill="white" stroke="#666666" points="831.5,-623.88 731.5,-623.88 731.5,-604.62 831.5,-604.62 831.5,-623.88"/>
<text text-anchor="middle" x="781.5" y="-610.38" font-family="Helvetica,sans-Serif" font-size="10.00">v8::Local&lt; Object &gt;</text>
</a>
</g>
</g>
<!-- Node2&#45;&gt;Node7 -->
<g id="edge6" class="edge">
<title>Node2&#45;&gt;Node7</title>
<path fill="none" stroke="#63b8ff" d="M316.67,-458.85C335.23,-491.03 371.38,-547.64 414.75,-584.25 479.15,-638.62 501.8,-650.6 583.75,-670.25 626.21,-680.43 641.18,-685.77 682,-670.25 692,-666.45 691.13,-660.24 700,-654.25 717.85,-642.2 739.85,-631.52 756.33,-624.23"/>
<polygon fill="#63b8ff" stroke="#63b8ff" points="319.46,-457.67 311.49,-450.69 313.37,-461.12 319.46,-457.67"/>
</g>
<!-- Node8 -->
<g id="node8" class="node">
<title>Node8</title>
<g id="a_node8"><a xlink:href="classv8_1_1Local.html" target="_top" xlink:title=" ">
<polygon fill="white" stroke="#666666" points="833.75,-682.88 729.25,-682.88 729.25,-663.62 833.75,-663.62 833.75,-682.88"/>
<text text-anchor="middle" x="781.5" y="-669.38" font-family="Helvetica,sans-Serif" font-size="10.00">v8::Local&lt; Context &gt;</text>
</a>
</g>
</g>
<!-- Node2&#45;&gt;Node8 -->
<g id="edge7" class="edge">
<title>Node2&#45;&gt;Node8</title>
<path fill="none" stroke="#63b8ff" d="M312,-460.07C327.25,-501.87 362.14,-585.01 414.75,-638.25 475.31,-699.54 500.39,-711.43 583.75,-733.25 625.99,-744.31 639.96,-745.05 682,-733.25 716.89,-723.46 751.69,-697.52 769.08,-683.16"/>
<polygon fill="#63b8ff" stroke="#63b8ff" points="315.04,-459.16 308.39,-450.91 308.44,-461.5 315.04,-459.16"/>
</g>
<!-- Node9 -->
<g id="node9" class="node">
<title>Node9</title>
<g id="a_node9"><a xlink:href="classv8_1_1Local.html" target="_top" xlink:title=" ">
<polygon fill="white" stroke="#666666" points="837.12,-757.88 725.88,-757.88 725.88,-738.62 837.12,-738.62 837.12,-757.88"/>
<text text-anchor="middle" x="781.5" y="-744.38" font-family="Helvetica,sans-Serif" font-size="10.00">v8::Local&lt; v8::Value &gt;</text>
</a>
</g>
</g>
<!-- Node2&#45;&gt;Node9 -->
<g id="edge8" class="edge">
<title>Node2&#45;&gt;Node9</title>
<path fill="none" stroke="#63b8ff" d="M308.43,-460.52C319.68,-511.6 350.64,-625.58 414.75,-697.25 498.8,-791.2 558.71,-818.53 682,-792.25 712.41,-785.77 744.8,-769.19 763.81,-758.34"/>
<polygon fill="#63b8ff" stroke="#63b8ff" points="311.65,-459.84 306.16,-450.78 304.81,-461.29 311.65,-459.84"/>
</g>
<!-- Node10 -->
<g id="node10" class="node">
<title>Node10</title>
<g id="a_node10"><a xlink:href="classv8_1_1Local.html" target="_top" xlink:title=" ">
<polygon fill="white" stroke="#666666" points="829.62,-92.88 733.38,-92.88 733.38,-73.62 829.62,-73.62 829.62,-92.88"/>
<text text-anchor="middle" x="781.5" y="-79.38" font-family="Helvetica,sans-Serif" font-size="10.00">v8::Local&lt; Value &gt;</text>
</a>
</g>
</g>
<!-- Node2&#45;&gt;Node10 -->
<g id="edge9" class="edge">
<title>Node2&#45;&gt;Node10</title>
<path fill="none" stroke="#63b8ff" d="M302.54,-408.22C302.32,-342.33 311.98,-168.79 414.75,-92.25 516.13,-16.75 680.9,-53.19 749.25,-73.16"/>
<polygon fill="#63b8ff" stroke="#63b8ff" points="299.05,-407.92 302.67,-417.88 306.05,-407.83 299.05,-407.92"/>
</g>
<!-- Node11 -->
<g id="node11" class="node">
<title>Node11</title>
<g id="a_node11"><a xlink:href="classv8_1_1Local.html" target="_top" xlink:title=" ">
<polygon fill="white" stroke="#666666" points="857,-362.88 706,-362.88 706,-343.62 857,-343.62 857,-362.88"/>
<text text-anchor="middle" x="781.5" y="-349.38" font-family="Helvetica,sans-Serif" font-size="10.00">v8::Local&lt; v8::UnboundScript &gt;</text>
</a>
</g>
</g>
<!-- Node2&#45;&gt;Node11 -->
<g id="edge10" class="edge">
<title>Node2&#45;&gt;Node11</title>
<path fill="none" stroke="#63b8ff" d="M347.26,-414.31C401.54,-390.91 497.25,-353.5 583.75,-339.25 626.84,-332.15 638.44,-336.17 682,-339.25 693.97,-340.1 706.71,-341.52 718.9,-343.13"/>
<polygon fill="#63b8ff" stroke="#63b8ff" points="346.07,-411.45 338.3,-418.65 348.86,-417.87 346.07,-411.45"/>
</g>
<!-- Node12 -->
<g id="node12" class="node">
<title>Node12</title>
<g id="a_node12"><a xlink:href="classv8_1_1Local.html" target="_top" xlink:title=" ">
<polygon fill="white" stroke="#666666" points="830.38,-227.88 732.62,-227.88 732.62,-208.62 830.38,-208.62 830.38,-227.88"/>
<text text-anchor="middle" x="781.5" y="-214.38" font-family="Helvetica,sans-Serif" font-size="10.00">v8::Local&lt; Name &gt;</text>
</a>
</g>
</g>
<!-- Node2&#45;&gt;Node12 -->
<g id="edge11" class="edge">
<title>Node2&#45;&gt;Node12</title>
<path fill="none" stroke="#63b8ff" d="M315.18,-408.91C332.49,-374.75 367.72,-314.18 414.75,-279.25 509.71,-208.71 656.78,-208.01 732.24,-213.23"/>
<polygon fill="#63b8ff" stroke="#63b8ff" points="311.68,-407.09 310.39,-417.61 317.95,-410.19 311.68,-407.09"/>
</g>
<!-- Node13 -->
<g id="node13" class="node">
<title>Node13</title>
<g id="a_node13"><a xlink:href="classv8_1_1Local.html" target="_top" xlink:title=" ">
<polygon fill="white" stroke="#666666" points="842.75,-300.88 720.25,-300.88 720.25,-281.62 842.75,-281.62 842.75,-300.88"/>
<text text-anchor="middle" x="781.5" y="-287.38" font-family="Helvetica,sans-Serif" font-size="10.00">v8::Local&lt; v8::Promise &gt;</text>
</a>
</g>
</g>
<!-- Node2&#45;&gt;Node13 -->
<g id="edge12" class="edge">
<title>Node2&#45;&gt;Node13</title>
<path fill="none" stroke="#63b8ff" d="M325.15,-410.85C346.31,-389.41 380.17,-358.08 414.75,-338.25 483.64,-298.74 505.42,-293.32 583.75,-280.25 629.47,-272.62 681.92,-276.15 721.15,-281.16"/>
<polygon fill="#63b8ff" stroke="#63b8ff" points="323.14,-407.92 318.69,-417.54 328.16,-412.8 323.14,-407.92"/>
</g>
<!-- Node14 -->
<g id="node14" class="node">
<title>Node14</title>
<g id="a_node14"><a xlink:href="classv8_1_1Local.html" target="_top" xlink:title=" ">
<polygon fill="white" stroke="#666666" points="834.88,-134.88 728.12,-134.88 728.12,-115.62 834.88,-115.62 834.88,-134.88"/>
<text text-anchor="middle" x="781.5" y="-121.38" font-family="Helvetica,sans-Serif" font-size="10.00">v8::Local&lt; v8::Data &gt;</text>
</a>
</g>
</g>
<!-- Node2&#45;&gt;Node14 -->
<g id="edge13" class="edge">
<title>Node2&#45;&gt;Node14</title>
<path fill="none" stroke="#63b8ff" d="M305.9,-408C312.96,-352.25 337.29,-221.42 414.75,-151.25 507.33,-67.37 672.91,-96.82 745.16,-115.13"/>
<polygon fill="#63b8ff" stroke="#63b8ff" points="302.34,-407.37 304.65,-417.7 309.29,-408.18 302.34,-407.37"/>
</g>
<!-- Node15 -->
<g id="node15" class="node">
<title>Node15</title>
<g id="a_node15"><a xlink:href="classv8_1_1Local.html" target="_top" xlink:title=" ">
<polygon fill="white" stroke="#666666" points="843.5,-173.88 719.5,-173.88 719.5,-154.62 843.5,-154.62 843.5,-173.88"/>
<text text-anchor="middle" x="781.5" y="-160.38" font-family="Helvetica,sans-Serif" font-size="10.00">v8::Local&lt; v8::Function &gt;</text>
</a>
</g>
</g>
<!-- Node2&#45;&gt;Node15 -->
<g id="edge14" class="edge">
<title>Node2&#45;&gt;Node15</title>
<path fill="none" stroke="#63b8ff" d="M309.42,-408.12C321.6,-362.32 353.03,-267.44 414.75,-215.25 500.3,-142.91 639.48,-145.57 719.21,-154.54"/>
<polygon fill="#63b8ff" stroke="#63b8ff" points="305.82,-407.1 306.74,-417.65 312.6,-408.83 305.82,-407.1"/>
</g>
<!-- Node16 -->
<g id="node16" class="node">
<title>Node16</title>
<g id="a_node16"><a xlink:href="classv8_1_1Local.html" target="_top" xlink:title=" ">
<polygon fill="white" stroke="#666666" points="529,-443.88 451.5,-443.88 451.5,-424.62 529,-424.62 529,-443.88"/>
<text text-anchor="middle" x="490.25" y="-430.38" font-family="Helvetica,sans-Serif" font-size="10.00">v8::Local&lt; T &gt;</text>
</a>
</g>
</g>
<!-- Node2&#45;&gt;Node16 -->
<g id="edge15" class="edge">
<title>Node2&#45;&gt;Node16</title>
<path fill="none" stroke="#63b8ff" d="M389.05,-434.25C410.78,-434.25 433.04,-434.25 451.04,-434.25"/>
<polygon fill="#63b8ff" stroke="#63b8ff" points="389.1,-430.75 379.1,-434.25 389.1,-437.75 389.1,-430.75"/>
</g>
<!-- Node18 -->
<g id="node18" class="node">
<title>Node18</title>
<g id="a_node18"><a xlink:href="classv8_1_1api__internal_1_1StackAllocated_3_01true_01_4.html" target="_top" xlink:title=" ">
<polygon fill="white" stroke="#666666" points="565.75,-30.5 414.75,-30.5 414.75,0 565.75,0 565.75,-30.5"/>
<text text-anchor="start" x="422.75" y="-17" font-family="Helvetica,sans-Serif" font-size="10.00">v8::api_internal::StackAllocated</text>
<text text-anchor="middle" x="490.25" y="-5.75" font-family="Helvetica,sans-Serif" font-size="10.00">&lt; true &gt;</text>
</a>
</g>
</g>
<!-- Node2&#45;&gt;Node18 -->
<g id="edge30" class="edge">
<title>Node2&#45;&gt;Node18</title>
<path fill="none" stroke="#63b8ff" d="M306.09,-408.02C315.11,-329.44 345.48,-98.05 395.75,-44.25 401.09,-38.54 407.53,-33.94 414.5,-30.25"/>
<polygon fill="#63b8ff" stroke="#63b8ff" points="302.51,-407.54 304.87,-417.87 309.47,-408.32 302.51,-407.54"/>
</g>
<!-- Node16&#45;&gt;Node3 -->
<g id="edge17" class="edge">
<title>Node16&#45;&gt;Node3</title>
<path fill="none" stroke="orange" stroke-dasharray="5,2" d="M509.19,-451.3C526.85,-467.19 555.24,-490.45 583.75,-504.25 628.85,-526.08 684.46,-539.38 725.03,-546.9"/>
<polygon fill="orange" stroke="orange" points="512.16,-449.36 502.43,-445.16 507.42,-454.51 512.16,-449.36"/>
<text text-anchor="middle" x="632.88" y="-538" font-family="Helvetica,sans-Serif" font-size="10.00"> &lt; v8::String &gt;</text>
</g>
<!-- Node16&#45;&gt;Node4 -->
<g id="edge18" class="edge">
<title>Node16&#45;&gt;Node4</title>
<path fill="none" stroke="orange" stroke-dasharray="5,2" d="M532.1,-447.54C548.15,-452.64 566.76,-458.39 583.75,-463.25 637.18,-478.54 699.34,-494.32 739.26,-504.2"/>
<polygon fill="orange" stroke="orange" points="533.56,-444.01 522.97,-444.3 531.43,-450.68 533.56,-444.01"/>
<text text-anchor="middle" x="632.88" y="-491" font-family="Helvetica,sans-Serif" font-size="10.00"> &lt; v8::Object &gt;</text>
</g>
<!-- Node16&#45;&gt;Node5 -->
<g id="edge19" class="edge">
<title>Node16&#45;&gt;Node5</title>
<path fill="none" stroke="orange" stroke-dasharray="5,2" d="M491.42,-454.97C493,-509.39 504.72,-657.86 583.75,-741.25 621.22,-780.79 682.33,-798.37 726.51,-806.15"/>
<polygon fill="orange" stroke="orange" points="494.91,-455.24 491.21,-445.31 487.91,-455.38 494.91,-455.24"/>
<text text-anchor="middle" x="632.88" y="-797" font-family="Helvetica,sans-Serif" font-size="10.00"> &lt; v8::Array &gt;</text>
</g>
<!-- Node16&#45;&gt;Node6 -->
<g id="edge20" class="edge">
<title>Node16&#45;&gt;Node6</title>
<path fill="none" stroke="orange" stroke-dasharray="5,2" d="M540.3,-437.59C578.91,-440.51 634.03,-445.34 682,-452 697.93,-454.21 715.21,-457.21 730.79,-460.13"/>
<polygon fill="orange" stroke="orange" points="540.6,-434.03 530.37,-436.78 540.08,-441.01 540.6,-434.03"/>
<text text-anchor="middle" x="632.88" y="-453" font-family="Helvetica,sans-Serif" font-size="10.00"> &lt; v8::Context &gt;</text>
</g>
<!-- Node16&#45;&gt;Node7 -->
<g id="edge21" class="edge">
<title>Node16&#45;&gt;Node7</title>
<path fill="none" stroke="orange" stroke-dasharray="5,2" d="M501.78,-453.88C516.69,-479.84 546.33,-525.33 583.75,-551.25 628.42,-582.19 689.12,-598.58 731.24,-606.8"/>
<polygon fill="orange" stroke="orange" points="504.41,-452.39 496.48,-445.36 498.29,-455.8 504.41,-452.39"/>
<text text-anchor="middle" x="632.88" y="-596" font-family="Helvetica,sans-Serif" font-size="10.00"> &lt; Object &gt;</text>
</g>
<!-- Node16&#45;&gt;Node8 -->
<g id="edge22" class="edge">
<title>Node16&#45;&gt;Node8</title>
<path fill="none" stroke="orange" stroke-dasharray="5,2" d="M496.5,-454.54C506.93,-490.86 533.69,-567.12 583.75,-609.25 625.11,-644.06 685.84,-660.06 728.87,-667.33"/>
<polygon fill="orange" stroke="orange" points="499.69,-453.96 493.68,-445.24 492.94,-455.81 499.69,-453.96"/>
<text text-anchor="middle" x="632.88" y="-657" font-family="Helvetica,sans-Serif" font-size="10.00"> &lt; Context &gt;</text>
</g>
<!-- Node16&#45;&gt;Node9 -->
<g id="edge23" class="edge">
<title>Node16&#45;&gt;Node9</title>
<path fill="none" stroke="orange" stroke-dasharray="5,2" d="M493.8,-455.06C500.38,-500.26 522.02,-608.28 583.75,-670.25 622.13,-708.78 681.89,-728.83 725.49,-738.89"/>
<polygon fill="orange" stroke="orange" points="497.15,-454.74 492.34,-445.3 490.21,-455.68 497.15,-454.74"/>
<text text-anchor="middle" x="632.88" y="-728" font-family="Helvetica,sans-Serif" font-size="10.00"> &lt; v8::Value &gt;</text>
</g>
<!-- Node16&#45;&gt;Node10 -->
<g id="edge24" class="edge">
<title>Node16&#45;&gt;Node10</title>
<path fill="none" stroke="orange" stroke-dasharray="5,2" d="M491.11,-413.46C491.91,-358.96 501.93,-210.81 583.75,-133 623.83,-94.88 688.75,-84.81 732.97,-82.71"/>
<polygon fill="orange" stroke="orange" points="487.6,-413.13 491.05,-423.15 494.6,-413.17 487.6,-413.13"/>
<text text-anchor="middle" x="632.88" y="-135" font-family="Helvetica,sans-Serif" font-size="10.00"> &lt; Value &gt;</text>
</g>
<!-- Node16&#45;&gt;Node11 -->
<g id="edge25" class="edge">
<title>Node16&#45;&gt;Node11</title>
<path fill="none" stroke="orange" stroke-dasharray="5,2" d="M536.9,-421.25C551.83,-417.01 568.49,-412.29 583.75,-408 639.73,-392.27 704.73,-374.22 744.22,-363.29"/>
<polygon fill="orange" stroke="orange" points="536.04,-418.14 527.38,-424.24 537.95,-424.87 536.04,-418.14"/>
<text text-anchor="middle" x="632.88" y="-409" font-family="Helvetica,sans-Serif" font-size="10.00"> &lt; v8::UnboundScript &gt;</text>
</g>
<!-- Node16&#45;&gt;Node12 -->
<g id="edge26" class="edge">
<title>Node16&#45;&gt;Node12</title>
<path fill="none" stroke="orange" stroke-dasharray="5,2" d="M501.25,-414.88C516.06,-387.82 546.17,-338.59 583.75,-308 611.56,-285.37 707.39,-246.55 754.27,-228.29"/>
<polygon fill="orange" stroke="orange" points="497.8,-412.92 496.18,-423.39 503.97,-416.22 497.8,-412.92"/>
<text text-anchor="middle" x="632.88" y="-309" font-family="Helvetica,sans-Serif" font-size="10.00"> &lt; Name &gt;</text>
</g>
<!-- Node16&#45;&gt;Node13 -->
<g id="edge27" class="edge">
<title>Node16&#45;&gt;Node13</title>
<path fill="none" stroke="orange" stroke-dasharray="5,2" d="M510.45,-417.3C528.43,-402.07 556.53,-379.89 583.75,-365 637.03,-335.85 704.23,-313.42 744.71,-301.3"/>
<polygon fill="orange" stroke="orange" points="508.79,-414.97 503.49,-424.15 513.35,-420.28 508.79,-414.97"/>
<text text-anchor="middle" x="632.88" y="-366" font-family="Helvetica,sans-Serif" font-size="10.00"> &lt; v8::Promise &gt;</text>
</g>
<!-- Node16&#45;&gt;Node14 -->
<g id="edge28" class="edge">
<title>Node16&#45;&gt;Node14</title>
<path fill="none" stroke="orange" stroke-dasharray="5,2" d="M493.12,-413.46C498.45,-366.36 517.88,-250.59 583.75,-186 604.62,-165.54 679.08,-146.43 730.17,-135.3"/>
<polygon fill="orange" stroke="orange" points="489.54,-413.06 492,-423.36 496.5,-413.77 489.54,-413.06"/>
<text text-anchor="middle" x="632.88" y="-188" font-family="Helvetica,sans-Serif" font-size="10.00"> &lt; v8::Data &gt;</text>
</g>
<!-- Node16&#45;&gt;Node15 -->
<g id="edge29" class="edge">
<title>Node16&#45;&gt;Node15</title>
<path fill="none" stroke="orange" stroke-dasharray="5,2" d="M495.9,-413.79C505.66,-375.26 531.79,-291.45 583.75,-243 596.67,-230.96 700.88,-192.68 752.18,-174.3"/>
<polygon fill="orange" stroke="orange" points="492.28,-412.87 493.34,-423.41 499.09,-414.51 492.28,-412.87"/>
<text text-anchor="middle" x="632.88" y="-244" font-family="Helvetica,sans-Serif" font-size="10.00"> &lt; v8::Function &gt;</text>
</g>
<!-- Node17 -->
<g id="node17" class="node">
<title>Node17</title>
<g id="a_node17"><a xlink:href="classv8_1_1internal_1_1LocalUnchecked.html" target="_top" xlink:title=" ">
<polygon fill="white" stroke="#666666" points="863,-427.88 700,-427.88 700,-408.62 863,-408.62 863,-427.88"/>
<text text-anchor="middle" x="781.5" y="-414.38" font-family="Helvetica,sans-Serif" font-size="10.00">v8::internal::LocalUnchecked&lt; T &gt;</text>
</a>
</g>
</g>
<!-- Node16&#45;&gt;Node17 -->
<g id="edge16" class="edge">
<title>Node16&#45;&gt;Node17</title>
<path fill="none" stroke="#63b8ff" d="M540.24,-431.54C583.81,-429.13 648.36,-425.56 699.59,-422.73"/>
<polygon fill="#63b8ff" stroke="#63b8ff" points="540.15,-428.09 530.36,-432.14 540.54,-435.08 540.15,-428.09"/>
</g>
</g>
</svg>
