<?xml version="1.0" encoding="UTF-8" standalone="no"?>
<!DOCTYPE svg PUBLIC "-//W3C//DTD SVG 1.1//EN"
 "http://www.w3.org/Graphics/SVG/1.1/DTD/svg11.dtd">
<!-- Generated by graphviz version 8.0.5 (20230430.1635)
 -->
<!-- Title: v8::Object::Wrap Pages: 1 -->
<svg width="408pt" height="128pt"
 viewBox="0.00 0.00 407.75 127.88" xmlns="http://www.w3.org/2000/svg" xmlns:xlink="http://www.w3.org/1999/xlink">
<g id="graph0" class="graph" transform="scale(1 1) rotate(0) translate(4 123.88)">
<title>v8::Object::Wrap</title>
<!-- Node1 -->
<g id="node1" class="node">
<title>Node1</title>
<g id="a_node1"><a xlink:title=" ">
<polygon fill="#999999" stroke="#666666" points="86.5,-88.25 0,-88.25 0,-69 86.5,-69 86.5,-88.25"/>
<text text-anchor="middle" x="43.25" y="-74.75" font-family="Helvetica,sans-Serif" font-size="10.00">v8::Object::Wrap</text>
</a>
</g>
</g>
<!-- Node2 -->
<g id="node2" class="node">
<title>Node2</title>
<g id="a_node2"><a xlink:href="classv8_1_1internal_1_1ValueHelper.html#a2032b423f5a859341b30210d1650111b" target="_top" xlink:title=" ">
<polygon fill="white" stroke="#666666" points="382.5,-119.88 262.25,-119.88 262.25,-89.38 382.5,-89.38 382.5,-119.88"/>
<text text-anchor="start" x="270.25" y="-106.38" font-family="Helvetica,sans-Serif" font-size="10.00">v8::internal::ValueHelper</text>
<text text-anchor="middle" x="322.38" y="-95.12" font-family="Helvetica,sans-Serif" font-size="10.00">::ValueAsAddress</text>
</a>
</g>
</g>
<!-- Node1&#45;&gt;Node2 -->
<g id="edge1" class="edge">
<title>Node1&#45;&gt;Node2</title>
<path fill="none" stroke="#63b8ff" d="M86.87,-83.76C98.42,-85.08 110.93,-86.47 122.5,-87.62 165.36,-91.92 213.49,-96.05 251.67,-99.17"/>
<polygon fill="#63b8ff" stroke="#63b8ff" points="250.91,-102.7 261.16,-100.02 251.47,-95.72 250.91,-102.7"/>
</g>
<!-- Node3 -->
<g id="node3" class="node">
<title>Node3</title>
<g id="a_node3"><a xlink:href="classv8_1_1Object.html#a962119246ca8e9258338200d37e1e408" target="_top" xlink:title=" ">
<polygon fill="white" stroke="#666666" points="209,-60.25 122.5,-60.25 122.5,-41 209,-41 209,-60.25"/>
<text text-anchor="middle" x="165.75" y="-46.75" font-family="Helvetica,sans-Serif" font-size="10.00">v8::Object::Wrap</text>
</a>
</g>
</g>
<!-- Node1&#45;&gt;Node3 -->
<g id="edge2" class="edge">
<title>Node1&#45;&gt;Node3</title>
<path fill="none" stroke="#63b8ff" d="M86.73,-68.75C94.83,-66.87 103.4,-64.88 111.78,-62.93"/>
<polygon fill="#63b8ff" stroke="#63b8ff" points="112.3,-66.17 121.24,-60.5 110.71,-59.36 112.3,-66.17"/>
</g>
<!-- Node3&#45;&gt;Node2 -->
<g id="edge5" class="edge">
<title>Node3&#45;&gt;Node2</title>
<path fill="none" stroke="#63b8ff" d="M195.47,-60.66C215.25,-67.56 242.17,-76.96 266.04,-85.3"/>
<polygon fill="#63b8ff" stroke="#63b8ff" points="264.81,-88.93 275.4,-88.92 267.11,-82.32 264.81,-88.93"/>
</g>
<!-- Node3&#45;&gt;Node3 -->
<g id="edge6" class="edge">
<title>Node3&#45;&gt;Node3</title>
<path fill="none" stroke="#63b8ff" d="M146.57,-60.54C137.82,-69.15 144.22,-78.25 165.75,-78.25 178.2,-78.25 185.59,-75.21 187.92,-70.98"/>
<polygon fill="#63b8ff" stroke="#63b8ff" points="191.04,-70.19 184.93,-61.54 184.31,-72.12 191.04,-70.19"/>
</g>
<!-- Node4 -->
<g id="node4" class="node">
<title>Node4</title>
<g id="a_node4"><a xlink:href="structv8_1_1internal_1_1TagRange.html#aa154151460bd16263945aaf678c12c04" target="_top" xlink:title=" ">
<polygon fill="white" stroke="#666666" points="378,-67.88 266.75,-67.88 266.75,-37.38 378,-37.38 378,-67.88"/>
<text text-anchor="start" x="274.75" y="-54.38" font-family="Helvetica,sans-Serif" font-size="10.00">v8::internal::TagRange</text>
<text text-anchor="middle" x="322.38" y="-43.12" font-family="Helvetica,sans-Serif" font-size="10.00">::Contains</text>
</a>
</g>
</g>
<!-- Node3&#45;&gt;Node4 -->
<g id="edge3" class="edge">
<title>Node3&#45;&gt;Node4</title>
<path fill="none" stroke="#63b8ff" d="M209.41,-51.18C223.72,-51.36 240.02,-51.57 255.68,-51.78"/>
<polygon fill="#63b8ff" stroke="#63b8ff" points="255.34,-55.28 265.38,-51.91 255.43,-48.28 255.34,-55.28"/>
</g>
<!-- Node5 -->
<g id="node5" class="node">
<title>Node5</title>
<g id="a_node5"><a xlink:href="namespacev8.html#aef8041a13770a07f852d89867b7f98c4" target="_top" xlink:title=" ">
<polygon fill="white" stroke="#666666" points="399.75,-19.25 245,-19.25 245,0 399.75,0 399.75,-19.25"/>
<text text-anchor="middle" x="322.38" y="-5.75" font-family="Helvetica,sans-Serif" font-size="10.00">v8::kObjectWrappableTagRange</text>
</a>
</g>
</g>
<!-- Node3&#45;&gt;Node5 -->
<g id="edge4" class="edge">
<title>Node3&#45;&gt;Node5</title>
<path fill="none" stroke="#63b8ff" d="M201.75,-40.54C215.24,-36.72 230.81,-32.38 245,-28.62 252.9,-26.53 261.27,-24.38 269.47,-22.31"/>
<polygon fill="#63b8ff" stroke="#63b8ff" points="270.24,-25.48 279.09,-19.65 268.54,-18.69 270.24,-25.48"/>
</g>
</g>
</svg>
