<?xml version="1.0" encoding="UTF-8" standalone="no"?>
<!DOCTYPE svg PUBLIC "-//W3C//DTD SVG 1.1//EN"
 "http://www.w3.org/Graphics/SVG/1.1/DTD/svg11.dtd">
<!-- Generated by graphviz version 8.0.5 (20230430.1635)
 -->
<!-- Title: v8::Data Pages: 1 -->
<svg width="773pt" height="841pt"
 viewBox="0.00 0.00 773.00 841.25" xmlns="http://www.w3.org/2000/svg" xmlns:xlink="http://www.w3.org/1999/xlink">
<g id="graph0" class="graph" transform="scale(1 1) rotate(0) translate(4 837.25)">
<title>v8::Data</title>
<!-- Node1 -->
<g id="node1" class="node">
<title>Node1</title>
<g id="a_node1"><a xlink:title=" ">
<polygon fill="#999999" stroke="#666666" points="51.25,-647.25 0,-647.25 0,-628 51.25,-628 51.25,-647.25"/>
<text text-anchor="middle" x="25.62" y="-633.75" font-family="Helvetica,sans-Serif" font-size="10.00">v8::Data</text>
</a>
</g>
</g>
<!-- Node2 -->
<g id="node2" class="node">
<title>Node2</title>
<g id="a_node2"><a xlink:href="classv8_1_1Context.html" target="_top" xlink:title=" ">
<polygon fill="white" stroke="#666666" points="182.75,-814.25 118.75,-814.25 118.75,-795 182.75,-795 182.75,-814.25"/>
<text text-anchor="middle" x="150.75" y="-800.75" font-family="Helvetica,sans-Serif" font-size="10.00">v8::Context</text>
</a>
</g>
</g>
<!-- Node1&#45;&gt;Node2 -->
<g id="edge1" class="edge">
<title>Node1&#45;&gt;Node2</title>
<path fill="none" stroke="#63b8ff" d="M29.28,-658.44C34.51,-690.63 49.13,-752.35 87.25,-786.62 95.81,-794.33 107.48,-798.75 118.41,-801.28"/>
<polygon fill="#63b8ff" stroke="#63b8ff" points="32.62,-658.05 27.71,-648.66 25.69,-659.06 32.62,-658.05"/>
</g>
<!-- Node3 -->
<g id="node3" class="node">
<title>Node3</title>
<g id="a_node3"><a xlink:href="classv8_1_1FixedArray.html" target="_top" xlink:title=" ">
<polygon fill="white" stroke="#666666" points="189.12,-777.25 112.38,-777.25 112.38,-758 189.12,-758 189.12,-777.25"/>
<text text-anchor="middle" x="150.75" y="-763.75" font-family="Helvetica,sans-Serif" font-size="10.00">v8::FixedArray</text>
</a>
</g>
</g>
<!-- Node1&#45;&gt;Node3 -->
<g id="edge2" class="edge">
<title>Node1&#45;&gt;Node3</title>
<path fill="none" stroke="#63b8ff" d="M32.27,-657.94C40.32,-683.14 57.52,-725.71 87.25,-749.62 94.38,-755.36 103.25,-759.27 112.05,-761.93"/>
<polygon fill="#63b8ff" stroke="#63b8ff" points="35.43,-657.28 29.2,-648.71 28.73,-659.29 35.43,-657.28"/>
</g>
<!-- Node4 -->
<g id="node4" class="node">
<title>Node4</title>
<g id="a_node4"><a xlink:href="classv8_1_1Module.html" target="_top" xlink:title=" ">
<polygon fill="white" stroke="#666666" points="182,-740.25 119.5,-740.25 119.5,-721 182,-721 182,-740.25"/>
<text text-anchor="middle" x="150.75" y="-726.75" font-family="Helvetica,sans-Serif" font-size="10.00">v8::Module</text>
</a>
</g>
</g>
<!-- Node1&#45;&gt;Node4 -->
<g id="edge3" class="edge">
<title>Node1&#45;&gt;Node4</title>
<path fill="none" stroke="#63b8ff" d="M37.29,-656.58C47.85,-673.66 65.56,-698.23 87.25,-712.62 96.75,-718.93 108.49,-723.06 119.21,-725.75"/>
<polygon fill="#63b8ff" stroke="#63b8ff" points="40.03,-655.34 31.92,-648.52 34.01,-658.91 40.03,-655.34"/>
</g>
<!-- Node5 -->
<g id="node5" class="node">
<title>Node5</title>
<g id="a_node5"><a xlink:href="classv8_1_1ModuleRequest.html" target="_top" xlink:title=" ">
<polygon fill="white" stroke="#666666" points="200,-703.25 101.5,-703.25 101.5,-684 200,-684 200,-703.25"/>
<text text-anchor="middle" x="150.75" y="-689.75" font-family="Helvetica,sans-Serif" font-size="10.00">v8::ModuleRequest</text>
</a>
</g>
</g>
<!-- Node1&#45;&gt;Node5 -->
<g id="edge4" class="edge">
<title>Node1&#45;&gt;Node5</title>
<path fill="none" stroke="#63b8ff" d="M48.94,-653.72C60.04,-661.17 73.92,-669.67 87.25,-675.62 93.95,-678.62 101.28,-681.25 108.48,-683.52"/>
<polygon fill="#63b8ff" stroke="#63b8ff" points="51.19,-650.33 40.98,-647.53 47.22,-656.09 51.19,-650.33"/>
</g>
<!-- Node6 -->
<g id="node6" class="node">
<title>Node6</title>
<g id="a_node6"><a xlink:href="classv8_1_1PrimitiveArray.html" target="_top" xlink:title=" ">
<polygon fill="white" stroke="#666666" points="196.62,-666.25 104.88,-666.25 104.88,-647 196.62,-647 196.62,-666.25"/>
<text text-anchor="middle" x="150.75" y="-652.75" font-family="Helvetica,sans-Serif" font-size="10.00">v8::PrimitiveArray</text>
</a>
</g>
</g>
<!-- Node1&#45;&gt;Node6 -->
<g id="edge5" class="edge">
<title>Node1&#45;&gt;Node6</title>
<path fill="none" stroke="#63b8ff" d="M62.1,-643.1C75.31,-645.14 90.48,-647.48 104.45,-649.63"/>
<polygon fill="#63b8ff" stroke="#63b8ff" points="62.96,-639.54 52.54,-641.47 61.89,-646.45 62.96,-639.54"/>
</g>
<!-- Node7 -->
<g id="node7" class="node">
<title>Node7</title>
<g id="a_node7"><a xlink:href="classv8_1_1Private.html" target="_top" xlink:title=" ">
<polygon fill="white" stroke="#666666" points="181.62,-629.25 119.88,-629.25 119.88,-610 181.62,-610 181.62,-629.25"/>
<text text-anchor="middle" x="150.75" y="-615.75" font-family="Helvetica,sans-Serif" font-size="10.00">v8::Private</text>
</a>
</g>
</g>
<!-- Node1&#45;&gt;Node7 -->
<g id="edge6" class="edge">
<title>Node1&#45;&gt;Node7</title>
<path fill="none" stroke="#63b8ff" d="M62.31,-632.41C80.48,-629.75 102.34,-626.56 119.65,-624.03"/>
<polygon fill="#63b8ff" stroke="#63b8ff" points="61.93,-629.07 52.54,-633.98 62.94,-636 61.93,-629.07"/>
</g>
<!-- Node8 -->
<g id="node8" class="node">
<title>Node8</title>
<g id="a_node8"><a xlink:href="classv8_1_1Signature.html" target="_top" xlink:title=" ">
<polygon fill="white" stroke="#666666" points="186.88,-592.25 114.62,-592.25 114.62,-573 186.88,-573 186.88,-592.25"/>
<text text-anchor="middle" x="150.75" y="-578.75" font-family="Helvetica,sans-Serif" font-size="10.00">v8::Signature</text>
</a>
</g>
</g>
<!-- Node1&#45;&gt;Node8 -->
<g id="edge7" class="edge">
<title>Node1&#45;&gt;Node8</title>
<path fill="none" stroke="#63b8ff" d="M49.44,-621.7C60.48,-614.52 74.15,-606.38 87.25,-600.62 95.73,-596.9 105.18,-593.71 114.13,-591.1"/>
<polygon fill="#63b8ff" stroke="#63b8ff" points="47.86,-619.21 41.49,-627.68 51.75,-625.03 47.86,-619.21"/>
</g>
<!-- Node9 -->
<g id="node9" class="node">
<title>Node9</title>
<g id="a_node9"><a xlink:href="classv8_1_1Template.html" target="_top" xlink:title=" ">
<polygon fill="white" stroke="#666666" points="186.5,-555.25 115,-555.25 115,-536 186.5,-536 186.5,-555.25"/>
<text text-anchor="middle" x="150.75" y="-541.75" font-family="Helvetica,sans-Serif" font-size="10.00">v8::Template</text>
</a>
</g>
</g>
<!-- Node1&#45;&gt;Node9 -->
<g id="edge8" class="edge">
<title>Node1&#45;&gt;Node9</title>
<path fill="none" stroke="#63b8ff" d="M37.52,-618.66C48.14,-601.82 65.8,-577.75 87.25,-563.62 95.45,-558.22 105.3,-554.41 114.73,-551.74"/>
<polygon fill="#63b8ff" stroke="#63b8ff" points="34.29,-616.24 32.11,-626.61 40.28,-619.86 34.29,-616.24"/>
</g>
<!-- Node12 -->
<g id="node12" class="node">
<title>Node12</title>
<g id="a_node12"><a xlink:href="classv8_1_1UnboundModuleScript.html" target="_top" xlink:title=" ">
<polygon fill="white" stroke="#666666" points="214.25,-518.25 87.25,-518.25 87.25,-499 214.25,-499 214.25,-518.25"/>
<text text-anchor="middle" x="150.75" y="-504.75" font-family="Helvetica,sans-Serif" font-size="10.00">v8::UnboundModuleScript</text>
</a>
</g>
</g>
<!-- Node1&#45;&gt;Node12 -->
<g id="edge11" class="edge">
<title>Node1&#45;&gt;Node12</title>
<path fill="none" stroke="#63b8ff" d="M32.43,-617.15C40.58,-592.13 57.82,-550.22 87.25,-526.62 91.21,-523.45 95.72,-520.83 100.45,-518.68"/>
<polygon fill="#63b8ff" stroke="#63b8ff" points="28.81,-616.04 29.23,-626.63 35.5,-618.09 28.81,-616.04"/>
</g>
<!-- Node13 -->
<g id="node13" class="node">
<title>Node13</title>
<g id="a_node13"><a xlink:href="classv8_1_1Value.html" target="_top" xlink:title=" ">
<polygon fill="white" stroke="#666666" points="178.62,-481.25 122.88,-481.25 122.88,-462 178.62,-462 178.62,-481.25"/>
<text text-anchor="middle" x="150.75" y="-467.75" font-family="Helvetica,sans-Serif" font-size="10.00">v8::Value</text>
</a>
</g>
</g>
<!-- Node1&#45;&gt;Node13 -->
<g id="edge12" class="edge">
<title>Node1&#45;&gt;Node13</title>
<path fill="none" stroke="#63b8ff" d="M29.33,-616.95C34.61,-584.97 49.31,-523.66 87.25,-489.62 96.92,-480.95 110.51,-476.44 122.55,-474.1"/>
<polygon fill="#63b8ff" stroke="#63b8ff" points="25.75,-616.25 27.74,-626.65 32.67,-617.28 25.75,-616.25"/>
</g>
<!-- Node10 -->
<g id="node10" class="node">
<title>Node10</title>
<g id="a_node10"><a xlink:href="classv8_1_1FunctionTemplate.html" target="_top" xlink:title=" ">
<polygon fill="white" stroke="#666666" points="359.25,-592.25 250.25,-592.25 250.25,-573 359.25,-573 359.25,-592.25"/>
<text text-anchor="middle" x="304.75" y="-578.75" font-family="Helvetica,sans-Serif" font-size="10.00">v8::FunctionTemplate</text>
</a>
</g>
</g>
<!-- Node9&#45;&gt;Node10 -->
<g id="edge9" class="edge">
<title>Node9&#45;&gt;Node10</title>
<path fill="none" stroke="#63b8ff" d="M197.07,-556.66C217.76,-561.69 242.09,-567.62 262.29,-572.53"/>
<polygon fill="#63b8ff" stroke="#63b8ff" points="198.17,-553.08 187.62,-554.11 196.51,-559.88 198.17,-553.08"/>
</g>
<!-- Node11 -->
<g id="node11" class="node">
<title>Node11</title>
<g id="a_node11"><a xlink:href="classv8_1_1ObjectTemplate.html" target="_top" xlink:title=" ">
<polygon fill="white" stroke="#666666" points="354.75,-555.25 254.75,-555.25 254.75,-536 354.75,-536 354.75,-555.25"/>
<text text-anchor="middle" x="304.75" y="-541.75" font-family="Helvetica,sans-Serif" font-size="10.00">v8::ObjectTemplate</text>
</a>
</g>
</g>
<!-- Node9&#45;&gt;Node11 -->
<g id="edge10" class="edge">
<title>Node9&#45;&gt;Node11</title>
<path fill="none" stroke="#63b8ff" d="M197.41,-545.62C215.37,-545.62 236.04,-545.62 254.35,-545.62"/>
<polygon fill="#63b8ff" stroke="#63b8ff" points="197.62,-542.13 187.62,-545.62 197.62,-549.13 197.62,-542.13"/>
</g>
<!-- Node14 -->
<g id="node14" class="node">
<title>Node14</title>
<g id="a_node14"><a xlink:href="classv8_1_1External.html" target="_top" xlink:title=" ">
<polygon fill="white" stroke="#666666" points="337.5,-518.25 272,-518.25 272,-499 337.5,-499 337.5,-518.25"/>
<text text-anchor="middle" x="304.75" y="-504.75" font-family="Helvetica,sans-Serif" font-size="10.00">v8::External</text>
</a>
</g>
</g>
<!-- Node13&#45;&gt;Node14 -->
<g id="edge13" class="edge">
<title>Node13&#45;&gt;Node14</title>
<path fill="none" stroke="#63b8ff" d="M189.57,-480.83C214.78,-486.97 247.57,-494.95 271.54,-500.78"/>
<polygon fill="#63b8ff" stroke="#63b8ff" points="190.47,-477.2 179.92,-478.24 188.81,-484.01 190.47,-477.2"/>
</g>
<!-- Node15 -->
<g id="node15" class="node">
<title>Node15</title>
<g id="a_node15"><a xlink:href="classv8_1_1Object.html" target="_top" xlink:title=" ">
<polygon fill="white" stroke="#666666" points="334.5,-481.25 275,-481.25 275,-462 334.5,-462 334.5,-481.25"/>
<text text-anchor="middle" x="304.75" y="-467.75" font-family="Helvetica,sans-Serif" font-size="10.00">v8::Object</text>
</a>
</g>
</g>
<!-- Node13&#45;&gt;Node15 -->
<g id="edge14" class="edge">
<title>Node13&#45;&gt;Node15</title>
<path fill="none" stroke="#63b8ff" d="M189.66,-471.62C216,-471.62 250.58,-471.62 274.74,-471.62"/>
<polygon fill="#63b8ff" stroke="#63b8ff" points="189.92,-468.13 179.92,-471.62 189.92,-475.13 189.92,-468.13"/>
</g>
<!-- Node48 -->
<g id="node42" class="node">
<title>Node48</title>
<g id="a_node42"><a xlink:href="classv8_1_1Primitive.html" target="_top" xlink:title=" ">
<polygon fill="white" stroke="#666666" points="339.38,-112.25 270.12,-112.25 270.12,-93 339.38,-93 339.38,-112.25"/>
<text text-anchor="middle" x="304.75" y="-98.75" font-family="Helvetica,sans-Serif" font-size="10.00">v8::Primitive</text>
</a>
</g>
</g>
<!-- Node13&#45;&gt;Node48 -->
<g id="edge41" class="edge">
<title>Node13&#45;&gt;Node48</title>
<path fill="none" stroke="#63b8ff" d="M159.86,-451.94C187.73,-384.29 279.01,-162.67 299.6,-112.7"/>
<polygon fill="#63b8ff" stroke="#63b8ff" points="156.39,-450.18 155.82,-460.76 162.86,-452.84 156.39,-450.18"/>
</g>
<!-- Node16 -->
<g id="node16" class="node">
<title>Node16</title>
<g id="a_node16"><a xlink:href="classv8_1_1Array.html" target="_top" xlink:title=" ">
<polygon fill="white" stroke="#666666" points="482.88,-833.25 429.38,-833.25 429.38,-814 482.88,-814 482.88,-833.25"/>
<text text-anchor="middle" x="456.12" y="-819.75" font-family="Helvetica,sans-Serif" font-size="10.00">v8::Array</text>
</a>
</g>
</g>
<!-- Node15&#45;&gt;Node16 -->
<g id="edge15" class="edge">
<title>Node15&#45;&gt;Node16</title>
<path fill="none" stroke="#63b8ff" d="M344.98,-478.92C350.45,-481.49 355.48,-484.96 359.25,-489.62 448.11,-599.55 304.61,-697.16 395.25,-805.62 403.53,-815.54 417.05,-820.12 429.15,-822.19"/>
<polygon fill="#63b8ff" stroke="#63b8ff" points="346.43,-475.36 335.83,-475.2 344.01,-481.93 346.43,-475.36"/>
</g>
<!-- Node17 -->
<g id="node17" class="node">
<title>Node17</title>
<g id="a_node17"><a xlink:href="classv8_1_1ArrayBuffer.html" target="_top" xlink:title=" ">
<polygon fill="white" stroke="#666666" points="495.62,-796.25 416.62,-796.25 416.62,-777 495.62,-777 495.62,-796.25"/>
<text text-anchor="middle" x="456.12" y="-782.75" font-family="Helvetica,sans-Serif" font-size="10.00">v8::ArrayBuffer</text>
</a>
</g>
</g>
<!-- Node15&#45;&gt;Node17 -->
<g id="edge16" class="edge">
<title>Node15&#45;&gt;Node17</title>
<path fill="none" stroke="#63b8ff" d="M344.92,-478.97C350.39,-481.54 355.44,-484.99 359.25,-489.62 438.57,-586.27 314.37,-673.28 395.25,-768.62 400.66,-775 408.23,-779.17 416.17,-781.88"/>
<polygon fill="#63b8ff" stroke="#63b8ff" points="346.36,-475.41 335.77,-475.25 343.95,-481.98 346.36,-475.41"/>
</g>
<!-- Node18 -->
<g id="node18" class="node">
<title>Node18</title>
<g id="a_node18"><a xlink:href="classv8_1_1ArrayBufferView.html" target="_top" xlink:title=" ">
<polygon fill="white" stroke="#666666" points="506.5,-759.25 405.75,-759.25 405.75,-740 506.5,-740 506.5,-759.25"/>
<text text-anchor="middle" x="456.12" y="-745.75" font-family="Helvetica,sans-Serif" font-size="10.00">v8::ArrayBufferView</text>
</a>
</g>
</g>
<!-- Node15&#45;&gt;Node18 -->
<g id="edge17" class="edge">
<title>Node15&#45;&gt;Node18</title>
<path fill="none" stroke="#63b8ff" d="M345.01,-479.11C350.43,-481.66 355.44,-485.07 359.25,-489.62 429.05,-573.01 324.1,-649.39 395.25,-731.62 398.16,-734.99 401.68,-737.74 405.53,-739.98"/>
<polygon fill="#63b8ff" stroke="#63b8ff" points="346.56,-475.59 335.97,-475.4 344.13,-482.15 346.56,-475.59"/>
</g>
<!-- Node32 -->
<g id="node26" class="node">
<title>Node32</title>
<g id="a_node26"><a xlink:href="classv8_1_1BigIntObject.html" target="_top" xlink:title=" ">
<polygon fill="white" stroke="#666666" points="498.62,-722.25 413.62,-722.25 413.62,-703 498.62,-703 498.62,-722.25"/>
<text text-anchor="middle" x="456.12" y="-708.75" font-family="Helvetica,sans-Serif" font-size="10.00">v8::BigIntObject</text>
</a>
</g>
</g>
<!-- Node15&#45;&gt;Node32 -->
<g id="edge25" class="edge">
<title>Node15&#45;&gt;Node32</title>
<path fill="none" stroke="#63b8ff" d="M344.9,-479.2C350.34,-481.74 355.38,-485.12 359.25,-489.62 419.55,-559.78 333.82,-625.46 395.25,-694.62 400.08,-700.06 406.48,-703.89 413.3,-706.57"/>
<polygon fill="#63b8ff" stroke="#63b8ff" points="346.45,-475.67 335.86,-475.49 344.02,-482.24 346.45,-475.67"/>
</g>
<!-- Node33 -->
<g id="node27" class="node">
<title>Node33</title>
<g id="a_node27"><a xlink:href="classv8_1_1BooleanObject.html" target="_top" xlink:title=" ">
<polygon fill="white" stroke="#666666" points="503.5,-685.25 408.75,-685.25 408.75,-666 503.5,-666 503.5,-685.25"/>
<text text-anchor="middle" x="456.12" y="-671.75" font-family="Helvetica,sans-Serif" font-size="10.00">v8::BooleanObject</text>
</a>
</g>
</g>
<!-- Node15&#45;&gt;Node33 -->
<g id="edge26" class="edge">
<title>Node15&#45;&gt;Node33</title>
<path fill="none" stroke="#63b8ff" d="M344.93,-479.41C350.32,-481.92 355.33,-485.24 359.25,-489.62 410.1,-546.6 343.48,-601.49 395.25,-657.62 398.93,-661.61 403.46,-664.73 408.36,-667.17"/>
<polygon fill="#63b8ff" stroke="#63b8ff" points="346.57,-475.91 335.98,-475.7 344.13,-482.47 346.57,-475.91"/>
</g>
<!-- Node34 -->
<g id="node28" class="node">
<title>Node34</title>
<g id="a_node28"><a xlink:href="classv8_1_1Date.html" target="_top" xlink:title=" ">
<polygon fill="white" stroke="#666666" points="481.75,-648.25 430.5,-648.25 430.5,-629 481.75,-629 481.75,-648.25"/>
<text text-anchor="middle" x="456.12" y="-634.75" font-family="Helvetica,sans-Serif" font-size="10.00">v8::Date</text>
</a>
</g>
</g>
<!-- Node15&#45;&gt;Node34 -->
<g id="edge27" class="edge">
<title>Node15&#45;&gt;Node34</title>
<path fill="none" stroke="#63b8ff" d="M344.71,-479.61C350.13,-482.09 355.21,-485.35 359.25,-489.62 400.73,-533.51 353.07,-577.42 395.25,-620.62 404.35,-629.94 418.07,-634.48 430.09,-636.67"/>
<polygon fill="#63b8ff" stroke="#63b8ff" points="346.34,-476.11 335.75,-475.92 343.91,-482.67 346.34,-476.11"/>
</g>
<!-- Node35 -->
<g id="node29" class="node">
<title>Node35</title>
<g id="a_node29"><a xlink:href="classv8_1_1Function.html" target="_top" xlink:title=" ">
<polygon fill="white" stroke="#666666" points="490.38,-611.25 421.88,-611.25 421.88,-592 490.38,-592 490.38,-611.25"/>
<text text-anchor="middle" x="456.12" y="-597.75" font-family="Helvetica,sans-Serif" font-size="10.00">v8::Function</text>
</a>
</g>
</g>
<!-- Node15&#45;&gt;Node35 -->
<g id="edge28" class="edge">
<title>Node15&#45;&gt;Node35</title>
<path fill="none" stroke="#63b8ff" d="M345.09,-480.3C350.28,-482.69 355.2,-485.74 359.25,-489.62 391.53,-520.6 362.47,-553.18 395.25,-583.62 402.49,-590.35 412.14,-594.57 421.59,-597.21"/>
<polygon fill="#63b8ff" stroke="#63b8ff" points="346.51,-476.72 335.92,-476.46 344.04,-483.27 346.51,-476.72"/>
</g>
<!-- Node36 -->
<g id="node30" class="node">
<title>Node36</title>
<g id="a_node30"><a xlink:href="classv8_1_1Map.html" target="_top" xlink:title=" ">
<polygon fill="white" stroke="#666666" points="481,-574.25 431.25,-574.25 431.25,-555 481,-555 481,-574.25"/>
<text text-anchor="middle" x="456.12" y="-560.75" font-family="Helvetica,sans-Serif" font-size="10.00">v8::Map</text>
</a>
</g>
</g>
<!-- Node15&#45;&gt;Node36 -->
<g id="edge29" class="edge">
<title>Node15&#45;&gt;Node36</title>
<path fill="none" stroke="#63b8ff" d="M344.77,-481.2C349.94,-483.46 354.93,-486.23 359.25,-489.62 382.81,-508.14 371.39,-528.5 395.25,-546.62 405.53,-554.44 419.2,-558.88 430.87,-561.39"/>
<polygon fill="#63b8ff" stroke="#63b8ff" points="346.35,-477.68 335.76,-477.46 343.9,-484.24 346.35,-477.68"/>
</g>
<!-- Node37 -->
<g id="node31" class="node">
<title>Node37</title>
<g id="a_node31"><a xlink:href="classv8_1_1NumberObject.html" target="_top" xlink:title=" ">
<polygon fill="white" stroke="#666666" points="503.12,-537.25 409.12,-537.25 409.12,-518 503.12,-518 503.12,-537.25"/>
<text text-anchor="middle" x="456.12" y="-523.75" font-family="Helvetica,sans-Serif" font-size="10.00">v8::NumberObject</text>
</a>
</g>
</g>
<!-- Node15&#45;&gt;Node37 -->
<g id="edge30" class="edge">
<title>Node15&#45;&gt;Node37</title>
<path fill="none" stroke="#63b8ff" d="M345.3,-484.02C350.05,-485.77 354.79,-487.66 359.25,-489.62 375.99,-497.02 378.39,-502.5 395.25,-509.62 402.15,-512.54 409.68,-515.19 417,-517.51"/>
<polygon fill="#63b8ff" stroke="#63b8ff" points="346.59,-480.41 335.99,-480.39 344.27,-487.01 346.59,-480.41"/>
</g>
<!-- Node38 -->
<g id="node32" class="node">
<title>Node38</title>
<g id="a_node32"><a xlink:href="classv8_1_1Promise.html" target="_top" xlink:title=" ">
<polygon fill="white" stroke="#666666" points="489.62,-500.25 422.62,-500.25 422.62,-481 489.62,-481 489.62,-500.25"/>
<text text-anchor="middle" x="456.12" y="-486.75" font-family="Helvetica,sans-Serif" font-size="10.00">v8::Promise</text>
</a>
</g>
</g>
<!-- Node15&#45;&gt;Node38 -->
<g id="edge31" class="edge">
<title>Node15&#45;&gt;Node38</title>
<path fill="none" stroke="#63b8ff" d="M345.74,-476.71C369.63,-479.75 399.61,-483.56 422.14,-486.43"/>
<polygon fill="#63b8ff" stroke="#63b8ff" points="346.27,-473.12 335.91,-475.33 345.38,-480.07 346.27,-473.12"/>
</g>
<!-- Node39 -->
<g id="node33" class="node">
<title>Node39</title>
<g id="a_node33"><a xlink:href="classv8_1_1Promise_1_1Resolver.html" target="_top" xlink:title=" ">
<polygon fill="white" stroke="#666666" points="511,-463.25 401.25,-463.25 401.25,-444 511,-444 511,-463.25"/>
<text text-anchor="middle" x="456.12" y="-449.75" font-family="Helvetica,sans-Serif" font-size="10.00">v8::Promise::Resolver</text>
</a>
</g>
</g>
<!-- Node15&#45;&gt;Node39 -->
<g id="edge32" class="edge">
<title>Node15&#45;&gt;Node39</title>
<path fill="none" stroke="#63b8ff" d="M345.57,-466.83C362.56,-464.78 382.64,-462.36 400.95,-460.15"/>
<polygon fill="#63b8ff" stroke="#63b8ff" points="345.42,-463.44 335.91,-468.11 346.25,-470.39 345.42,-463.44"/>
</g>
<!-- Node40 -->
<g id="node34" class="node">
<title>Node40</title>
<g id="a_node34"><a xlink:href="classv8_1_1Proxy.html" target="_top" xlink:title=" ">
<polygon fill="white" stroke="#666666" points="483.62,-426.25 428.62,-426.25 428.62,-407 483.62,-407 483.62,-426.25"/>
<text text-anchor="middle" x="456.12" y="-412.75" font-family="Helvetica,sans-Serif" font-size="10.00">v8::Proxy</text>
</a>
</g>
</g>
<!-- Node15&#45;&gt;Node40 -->
<g id="edge33" class="edge">
<title>Node15&#45;&gt;Node40</title>
<path fill="none" stroke="#63b8ff" d="M338.22,-457.28C355.07,-450.07 376.1,-441.44 395.25,-434.62 405.99,-430.8 417.99,-427.09 428.41,-424.03"/>
<polygon fill="#63b8ff" stroke="#63b8ff" points="337.11,-454.38 329.31,-461.56 339.88,-460.81 337.11,-454.38"/>
</g>
<!-- Node41 -->
<g id="node35" class="node">
<title>Node41</title>
<g id="a_node35"><a xlink:href="classv8_1_1RegExp.html" target="_top" xlink:title=" ">
<polygon fill="white" stroke="#666666" points="488.12,-389.25 424.12,-389.25 424.12,-370 488.12,-370 488.12,-389.25"/>
<text text-anchor="middle" x="456.12" y="-375.75" font-family="Helvetica,sans-Serif" font-size="10.00">v8::RegExp</text>
</a>
</g>
</g>
<!-- Node15&#45;&gt;Node41 -->
<g id="edge34" class="edge">
<title>Node15&#45;&gt;Node41</title>
<path fill="none" stroke="#63b8ff" d="M322.67,-454.04C339.61,-437.36 367.14,-412.67 395.25,-397.62 404.05,-392.91 414.26,-389.26 423.73,-386.52"/>
<polygon fill="#63b8ff" stroke="#63b8ff" points="320.81,-450.95 316.25,-460.51 325.78,-455.89 320.81,-450.95"/>
</g>
<!-- Node42 -->
<g id="node36" class="node">
<title>Node42</title>
<g id="a_node36"><a xlink:href="classv8_1_1Set.html" target="_top" xlink:title=" ">
<polygon fill="white" stroke="#666666" points="479.12,-352.25 433.12,-352.25 433.12,-333 479.12,-333 479.12,-352.25"/>
<text text-anchor="middle" x="456.12" y="-338.75" font-family="Helvetica,sans-Serif" font-size="10.00">v8::Set</text>
</a>
</g>
</g>
<!-- Node15&#45;&gt;Node42 -->
<g id="edge35" class="edge">
<title>Node15&#45;&gt;Node42</title>
<path fill="none" stroke="#63b8ff" d="M316.38,-452.21C330.97,-427.37 359.48,-384.68 395.25,-360.62 406.42,-353.11 420.82,-348.65 432.69,-346.05"/>
<polygon fill="#63b8ff" stroke="#63b8ff" points="312.91,-450.23 311.01,-460.66 318.99,-453.7 312.91,-450.23"/>
</g>
<!-- Node43 -->
<g id="node37" class="node">
<title>Node43</title>
<g id="a_node37"><a xlink:href="classv8_1_1SharedArrayBuffer.html" target="_top" xlink:title=" ">
<polygon fill="white" stroke="#666666" points="511,-315.25 401.25,-315.25 401.25,-296 511,-296 511,-315.25"/>
<text text-anchor="middle" x="456.12" y="-301.75" font-family="Helvetica,sans-Serif" font-size="10.00">v8::SharedArrayBuffer</text>
</a>
</g>
</g>
<!-- Node15&#45;&gt;Node43 -->
<g id="edge36" class="edge">
<title>Node15&#45;&gt;Node43</title>
<path fill="none" stroke="#63b8ff" d="M312.58,-451.31C324.35,-419.36 351.5,-357.54 395.25,-323.62 399.37,-320.43 404.05,-317.8 408.93,-315.64"/>
<polygon fill="#63b8ff" stroke="#63b8ff" points="308.96,-450.03 308.93,-460.62 315.56,-452.36 308.96,-450.03"/>
</g>
<!-- Node44 -->
<g id="node38" class="node">
<title>Node44</title>
<g id="a_node38"><a xlink:href="classv8_1_1StringObject.html" target="_top" xlink:title=" ">
<polygon fill="white" stroke="#666666" points="498.62,-278.25 413.62,-278.25 413.62,-259 498.62,-259 498.62,-278.25"/>
<text text-anchor="middle" x="456.12" y="-264.75" font-family="Helvetica,sans-Serif" font-size="10.00">v8::StringObject</text>
</a>
</g>
</g>
<!-- Node15&#45;&gt;Node44 -->
<g id="edge37" class="edge">
<title>Node15&#45;&gt;Node44</title>
<path fill="none" stroke="#63b8ff" d="M309.93,-451.17C318.79,-413.08 343.07,-331.12 395.25,-286.62 400.45,-282.19 406.72,-278.84 413.22,-276.33"/>
<polygon fill="#63b8ff" stroke="#63b8ff" points="306.31,-450.38 307.58,-460.89 313.14,-451.88 306.31,-450.38"/>
</g>
<!-- Node45 -->
<g id="node39" class="node">
<title>Node45</title>
<g id="a_node39"><a xlink:href="classv8_1_1SymbolObject.html" target="_top" xlink:title=" ">
<polygon fill="white" stroke="#666666" points="502,-241.25 410.25,-241.25 410.25,-222 502,-222 502,-241.25"/>
<text text-anchor="middle" x="456.12" y="-227.75" font-family="Helvetica,sans-Serif" font-size="10.00">v8::SymbolObject</text>
</a>
</g>
</g>
<!-- Node15&#45;&gt;Node45 -->
<g id="edge38" class="edge">
<title>Node15&#45;&gt;Node45</title>
<path fill="none" stroke="#63b8ff" d="M308.1,-451.1C314.19,-407.49 334.5,-305.07 395.25,-249.62 399.5,-245.75 404.56,-242.7 409.9,-240.31"/>
<polygon fill="#63b8ff" stroke="#63b8ff" points="304.51,-450.61 306.71,-460.97 311.45,-451.49 304.51,-450.61"/>
</g>
<!-- Node46 -->
<g id="node40" class="node">
<title>Node46</title>
<g id="a_node40"><a xlink:href="classv8_1_1WasmMemoryObject.html" target="_top" xlink:title=" ">
<polygon fill="white" stroke="#666666" points="517,-204.25 395.25,-204.25 395.25,-185 517,-185 517,-204.25"/>
<text text-anchor="middle" x="456.12" y="-190.75" font-family="Helvetica,sans-Serif" font-size="10.00">v8::WasmMemoryObject</text>
</a>
</g>
</g>
<!-- Node15&#45;&gt;Node46 -->
<g id="edge39" class="edge">
<title>Node15&#45;&gt;Node46</title>
<path fill="none" stroke="#63b8ff" d="M306.75,-451.05C310.23,-402.39 325.81,-279.3 395.25,-212.62 398.54,-209.47 402.36,-206.86 406.45,-204.71"/>
<polygon fill="#63b8ff" stroke="#63b8ff" points="303.21,-450.55 306.1,-460.74 310.2,-450.97 303.21,-450.55"/>
</g>
<!-- Node47 -->
<g id="node41" class="node">
<title>Node47</title>
<g id="a_node41"><a xlink:href="classv8_1_1WasmModuleObject.html" target="_top" xlink:title=" ">
<polygon fill="white" stroke="#666666" points="515.5,-167.25 396.75,-167.25 396.75,-148 515.5,-148 515.5,-167.25"/>
<text text-anchor="middle" x="456.12" y="-153.75" font-family="Helvetica,sans-Serif" font-size="10.00">v8::WasmModuleObject</text>
</a>
</g>
</g>
<!-- Node15&#45;&gt;Node47 -->
<g id="edge40" class="edge">
<title>Node15&#45;&gt;Node47</title>
<path fill="none" stroke="#63b8ff" d="M305.71,-450.71C306.78,-397.11 317.18,-253.57 395.25,-175.62 398.4,-172.48 402.08,-169.88 406.03,-167.73"/>
<polygon fill="#63b8ff" stroke="#63b8ff" points="302.2,-450.49 305.6,-460.52 309.2,-450.56 302.2,-450.49"/>
</g>
<!-- Node19 -->
<g id="node19" class="node">
<title>Node19</title>
<g id="a_node19"><a xlink:href="classv8_1_1DataView.html" target="_top" xlink:title=" ">
<polygon fill="white" stroke="#666666" points="629.38,-777.25 556.38,-777.25 556.38,-758 629.38,-758 629.38,-777.25"/>
<text text-anchor="middle" x="592.88" y="-763.75" font-family="Helvetica,sans-Serif" font-size="10.00">v8::DataView</text>
</a>
</g>
</g>
<!-- Node18&#45;&gt;Node19 -->
<g id="edge18" class="edge">
<title>Node18&#45;&gt;Node19</title>
<path fill="none" stroke="#63b8ff" d="M517.81,-757.73C530.93,-759.48 544.39,-761.28 556.17,-762.86"/>
<polygon fill="#63b8ff" stroke="#63b8ff" points="518.29,-754.13 507.92,-756.28 517.37,-761.07 518.29,-754.13"/>
</g>
<!-- Node20 -->
<g id="node20" class="node">
<title>Node20</title>
<g id="a_node20"><a xlink:href="classv8_1_1TypedArray.html" target="_top" xlink:title=" ">
<polygon fill="#fff0f0" stroke="red" points="632.75,-740.25 553,-740.25 553,-721 632.75,-721 632.75,-740.25"/>
<text text-anchor="middle" x="592.88" y="-726.75" font-family="Helvetica,sans-Serif" font-size="10.00">v8::TypedArray</text>
</a>
</g>
</g>
<!-- Node18&#45;&gt;Node20 -->
<g id="edge19" class="edge">
<title>Node18&#45;&gt;Node20</title>
<path fill="none" stroke="#63b8ff" d="M517.73,-741.08C529.64,-739.4 541.84,-737.68 552.81,-736.13"/>
<polygon fill="#63b8ff" stroke="#63b8ff" points="517.33,-737.74 507.92,-742.6 518.31,-744.67 517.33,-737.74"/>
</g>
<!-- Node21 -->
<g id="node21" class="node">
<title>Node21</title>
<g id="a_node21"><a xlink:href="classv8_1_1BigInt64Array.html" target="_top" xlink:title=" ">
<polygon fill="white" stroke="#666666" points="761.62,-814.25 672.12,-814.25 672.12,-795 761.62,-795 761.62,-814.25"/>
<text text-anchor="middle" x="716.88" y="-800.75" font-family="Helvetica,sans-Serif" font-size="10.00">v8::BigInt64Array</text>
</a>
</g>
</g>
<!-- Node20&#45;&gt;Node21 -->
<g id="edge20" class="edge">
<title>Node20&#45;&gt;Node21</title>
<path fill="none" stroke="#63b8ff" d="M628.75,-745.95C630.13,-746.81 631.47,-747.7 632.75,-748.62 651.64,-762.2 649.4,-773.71 668.75,-786.62 673.41,-789.74 678.69,-792.42 683.98,-794.69"/>
<polygon fill="#63b8ff" stroke="#63b8ff" points="630.77,-742.51 620.33,-740.72 627.38,-748.63 630.77,-742.51"/>
</g>
<!-- Node22 -->
<g id="node22" class="node">
<title>Node22</title>
<g id="a_node22"><a xlink:href="classv8_1_1BigUint64Array.html" target="_top" xlink:title=" ">
<polygon fill="white" stroke="#666666" points="765,-777.25 668.75,-777.25 668.75,-758 765,-758 765,-777.25"/>
<text text-anchor="middle" x="716.88" y="-763.75" font-family="Helvetica,sans-Serif" font-size="10.00">v8::BigUint64Array</text>
</a>
</g>
</g>
<!-- Node20&#45;&gt;Node22 -->
<g id="edge21" class="edge">
<title>Node20&#45;&gt;Node22</title>
<path fill="none" stroke="#63b8ff" d="M637.67,-743.91C652.46,-748.39 668.73,-753.33 682.58,-757.53"/>
<polygon fill="#63b8ff" stroke="#63b8ff" points="638.8,-740.29 628.21,-740.74 636.77,-746.99 638.8,-740.29"/>
</g>
<!-- Node23 -->
<g id="node23" class="node">
<title>Node23</title>
<g id="a_node23"><a xlink:href="classv8_1_1Float32Array.html" target="_top" xlink:title=" ">
<polygon fill="white" stroke="#666666" points="759.75,-740.25 674,-740.25 674,-721 759.75,-721 759.75,-740.25"/>
<text text-anchor="middle" x="716.88" y="-726.75" font-family="Helvetica,sans-Serif" font-size="10.00">v8::Float32Array</text>
</a>
</g>
</g>
<!-- Node20&#45;&gt;Node23 -->
<g id="edge22" class="edge">
<title>Node20&#45;&gt;Node23</title>
<path fill="none" stroke="#63b8ff" d="M644.06,-730.62C653.92,-730.62 664.16,-730.62 673.73,-730.62"/>
<polygon fill="#63b8ff" stroke="#63b8ff" points="644.15,-727.13 634.15,-730.62 644.15,-734.13 644.15,-727.13"/>
</g>
<!-- Node24 -->
<g id="node24" class="node">
<title>Node24</title>
<g id="a_node24"><a xlink:href="classv8_1_1Float64Array.html" target="_top" xlink:title=" ">
<polygon fill="white" stroke="#666666" points="759.75,-703.25 674,-703.25 674,-684 759.75,-684 759.75,-703.25"/>
<text text-anchor="middle" x="716.88" y="-689.75" font-family="Helvetica,sans-Serif" font-size="10.00">v8::Float64Array</text>
</a>
</g>
</g>
<!-- Node20&#45;&gt;Node24 -->
<g id="edge23" class="edge">
<title>Node20&#45;&gt;Node24</title>
<path fill="none" stroke="#63b8ff" d="M637.67,-717.34C652.46,-712.86 668.73,-707.92 682.58,-703.72"/>
<polygon fill="#63b8ff" stroke="#63b8ff" points="636.77,-714.26 628.21,-720.51 638.8,-720.96 636.77,-714.26"/>
</g>
<!-- Node25 -->
<g id="node25" class="node">
<title>Node25</title>
<g id="a_node25"><a xlink:href="classv8_1_1Int16Array.html" target="_top" xlink:title=" ">
<polygon fill="white" stroke="#666666" points="754.5,-666.25 679.25,-666.25 679.25,-647 754.5,-647 754.5,-666.25"/>
<text text-anchor="middle" x="716.88" y="-652.75" font-family="Helvetica,sans-Serif" font-size="10.00">v8::Int16Array</text>
</a>
</g>
</g>
<!-- Node20&#45;&gt;Node25 -->
<g id="edge24" class="edge">
<title>Node20&#45;&gt;Node25</title>
<path fill="none" stroke="#63b8ff" d="M613.05,-713.93C627.6,-701.86 648.5,-685.78 668.75,-674.62 674.12,-671.67 680.08,-668.98 685.9,-666.64"/>
<polygon fill="#63b8ff" stroke="#63b8ff" points="611.25,-711.72 605.87,-720.85 615.77,-717.06 611.25,-711.72"/>
</g>
<!-- Node49 -->
<g id="node43" class="node">
<title>Node49</title>
<g id="a_node43"><a xlink:href="classv8_1_1Boolean.html" target="_top" xlink:title=" ">
<polygon fill="white" stroke="#666666" points="489.25,-130.25 423,-130.25 423,-111 489.25,-111 489.25,-130.25"/>
<text text-anchor="middle" x="456.12" y="-116.75" font-family="Helvetica,sans-Serif" font-size="10.00">v8::Boolean</text>
</a>
</g>
</g>
<!-- Node48&#45;&gt;Node49 -->
<g id="edge42" class="edge">
<title>Node48&#45;&gt;Node49</title>
<path fill="none" stroke="#63b8ff" d="M350.29,-107.99C373.54,-110.79 401.46,-114.16 422.65,-116.71"/>
<polygon fill="#63b8ff" stroke="#63b8ff" points="350.99,-104.43 340.65,-106.71 350.15,-111.38 350.99,-104.43"/>
</g>
<!-- Node50 -->
<g id="node44" class="node">
<title>Node50</title>
<g id="a_node44"><a xlink:href="classv8_1_1Name.html" target="_top" xlink:title=" ">
<polygon fill="white" stroke="#666666" points="484.75,-93.25 427.5,-93.25 427.5,-74 484.75,-74 484.75,-93.25"/>
<text text-anchor="middle" x="456.12" y="-79.75" font-family="Helvetica,sans-Serif" font-size="10.00">v8::Name</text>
</a>
</g>
</g>
<!-- Node48&#45;&gt;Node50 -->
<g id="edge43" class="edge">
<title>Node48&#45;&gt;Node50</title>
<path fill="none" stroke="#63b8ff" d="M350.35,-96.95C375.35,-93.77 405.76,-89.9 427.36,-87.16"/>
<polygon fill="#63b8ff" stroke="#63b8ff" points="350.12,-93.58 340.65,-98.31 351.01,-100.52 350.12,-93.58"/>
</g>
<!-- Node53 -->
<g id="node47" class="node">
<title>Node53</title>
<g id="a_node47"><a xlink:href="classv8_1_1Numeric.html" target="_top" xlink:title=" ">
<polygon fill="white" stroke="#666666" points="490,-56.25 422.25,-56.25 422.25,-37 490,-37 490,-56.25"/>
<text text-anchor="middle" x="456.12" y="-42.75" font-family="Helvetica,sans-Serif" font-size="10.00">v8::Numeric</text>
</a>
</g>
</g>
<!-- Node48&#45;&gt;Node53 -->
<g id="edge46" class="edge">
<title>Node48&#45;&gt;Node53</title>
<path fill="none" stroke="#63b8ff" d="M337.49,-88.15C354.45,-80.67 375.79,-71.66 395.25,-64.62 403.83,-61.53 413.22,-58.52 421.97,-55.89"/>
<polygon fill="#63b8ff" stroke="#63b8ff" points="336.26,-85.31 328.55,-92.58 339.11,-91.7 336.26,-85.31"/>
</g>
<!-- Node51 -->
<g id="node45" class="node">
<title>Node51</title>
<g id="a_node45"><a xlink:href="classv8_1_1String.html" target="_top" xlink:title=" ">
<polygon fill="white" stroke="#666666" points="621.12,-130.25 564.62,-130.25 564.62,-111 621.12,-111 621.12,-130.25"/>
<text text-anchor="middle" x="592.88" y="-116.75" font-family="Helvetica,sans-Serif" font-size="10.00">v8::String</text>
</a>
</g>
</g>
<!-- Node50&#45;&gt;Node51 -->
<g id="edge44" class="edge">
<title>Node50&#45;&gt;Node51</title>
<path fill="none" stroke="#63b8ff" d="M495.39,-94.13C517.41,-100.18 544.56,-107.63 564.45,-113.09"/>
<polygon fill="#63b8ff" stroke="#63b8ff" points="496.62,-90.56 486.05,-91.29 494.76,-97.31 496.62,-90.56"/>
</g>
<!-- Node52 -->
<g id="node46" class="node">
<title>Node52</title>
<g id="a_node46"><a xlink:href="classv8_1_1Symbol.html" target="_top" xlink:title=" ">
<polygon fill="white" stroke="#666666" points="624.5,-93.25 561.25,-93.25 561.25,-74 624.5,-74 624.5,-93.25"/>
<text text-anchor="middle" x="592.88" y="-79.75" font-family="Helvetica,sans-Serif" font-size="10.00">v8::Symbol</text>
</a>
</g>
</g>
<!-- Node50&#45;&gt;Node52 -->
<g id="edge45" class="edge">
<title>Node50&#45;&gt;Node52</title>
<path fill="none" stroke="#63b8ff" d="M496.03,-83.62C516.74,-83.62 541.85,-83.62 561.17,-83.62"/>
<polygon fill="#63b8ff" stroke="#63b8ff" points="496.05,-80.13 486.05,-83.62 496.05,-87.13 496.05,-80.13"/>
</g>
<!-- Node54 -->
<g id="node48" class="node">
<title>Node54</title>
<g id="a_node48"><a xlink:href="classv8_1_1BigInt.html" target="_top" xlink:title=" ">
<polygon fill="white" stroke="#666666" points="621.12,-56.25 564.62,-56.25 564.62,-37 621.12,-37 621.12,-56.25"/>
<text text-anchor="middle" x="592.88" y="-42.75" font-family="Helvetica,sans-Serif" font-size="10.00">v8::BigInt</text>
</a>
</g>
</g>
<!-- Node53&#45;&gt;Node54 -->
<g id="edge47" class="edge">
<title>Node53&#45;&gt;Node54</title>
<path fill="none" stroke="#63b8ff" d="M501.27,-46.62C522.07,-46.62 546.25,-46.62 564.39,-46.62"/>
<polygon fill="#63b8ff" stroke="#63b8ff" points="501.43,-43.13 491.43,-46.62 501.43,-50.13 501.43,-43.13"/>
</g>
<!-- Node55 -->
<g id="node49" class="node">
<title>Node55</title>
<g id="a_node49"><a xlink:href="classv8_1_1Number.html" target="_top" xlink:title=" ">
<polygon fill="#fff0f0" stroke="red" points="625.62,-19.25 560.12,-19.25 560.12,0 625.62,0 625.62,-19.25"/>
<text text-anchor="middle" x="592.88" y="-5.75" font-family="Helvetica,sans-Serif" font-size="10.00">v8::Number</text>
</a>
</g>
</g>
<!-- Node53&#45;&gt;Node55 -->
<g id="edge48" class="edge">
<title>Node53&#45;&gt;Node55</title>
<path fill="none" stroke="#63b8ff" d="M501.04,-34.57C520.22,-29.3 542.29,-23.24 559.88,-18.41"/>
<polygon fill="#63b8ff" stroke="#63b8ff" points="500.15,-31.46 491.43,-37.48 502,-38.21 500.15,-31.46"/>
</g>
</g>
</svg>
