<?xml version="1.0" encoding="UTF-8" standalone="no"?>
<!DOCTYPE svg PUBLIC "-//W3C//DTD SVG 1.1//EN"
 "http://www.w3.org/Graphics/SVG/1.1/DTD/svg11.dtd">
<!-- Generated by graphviz version 8.0.5 (20230430.1635)
 -->
<!-- Title: include/cppgc/allocation.h Pages: 1 -->
<svg width="973pt" height="271pt"
 viewBox="0.00 0.00 972.59 270.75" xmlns="http://www.w3.org/2000/svg" xmlns:xlink="http://www.w3.org/1999/xlink">
<g id="graph0" class="graph" transform="scale(1 1) rotate(0) translate(4 266.75)">
<title>include/cppgc/allocation.h</title>
<!-- Node1 -->
<g id="node1" class="node">
<title>Node1</title>
<g id="a_node1"><a xlink:title=" ">
<polygon fill="#999999" stroke="#666666" points="430.84,-262.75 303.09,-262.75 303.09,-243.5 430.84,-243.5 430.84,-262.75"/>
<text text-anchor="middle" x="366.97" y="-249.25" font-family="Helvetica,sans-Serif" font-size="10.00">include/cppgc/allocation.h</text>
</a>
</g>
</g>
<!-- Node2 -->
<g id="node2" class="node">
<title>Node2</title>
<g id="a_node2"><a xlink:title=" ">
<polygon fill="#e0e0e0" stroke="#999999" points="63.72,-19.25 16.22,-19.25 16.22,0 63.72,0 63.72,-19.25"/>
<text text-anchor="middle" x="39.97" y="-5.75" font-family="Helvetica,sans-Serif" font-size="10.00">stdint.h</text>
</a>
</g>
</g>
<!-- Node1&#45;&gt;Node2 -->
<g id="edge1" class="edge">
<title>Node1&#45;&gt;Node2</title>
<path fill="none" stroke="#63b8ff" d="M302.87,-248.35C208.21,-242.1 40.19,-228.22 21.97,-207.5 -22.77,-156.6 12.21,-67.11 30.55,-28.83"/>
<polygon fill="#63b8ff" stroke="#63b8ff" points="33.89,-30.98 35.2,-20.46 27.62,-27.86 33.89,-30.98"/>
</g>
<!-- Node3 -->
<g id="node3" class="node">
<title>Node3</title>
<g id="a_node3"><a xlink:title=" ">
<polygon fill="#e0e0e0" stroke="#999999" points="943.59,-146.62 898.34,-146.62 898.34,-127.38 943.59,-127.38 943.59,-146.62"/>
<text text-anchor="middle" x="920.97" y="-133.12" font-family="Helvetica,sans-Serif" font-size="10.00">atomic</text>
</a>
</g>
</g>
<!-- Node1&#45;&gt;Node3 -->
<g id="edge2" class="edge">
<title>Node1&#45;&gt;Node3</title>
<path fill="none" stroke="#63b8ff" d="M431.22,-246.77C499.8,-240.34 611.36,-227.79 705.97,-207.5 789.46,-189.59 810.1,-182.43 889.97,-152.25 890.87,-151.91 891.77,-151.56 892.69,-151.19"/>
<polygon fill="#63b8ff" stroke="#63b8ff" points="893.64,-154.17 901.46,-147.02 890.89,-147.73 893.64,-154.17"/>
</g>
<!-- Node4 -->
<g id="node4" class="node">
<title>Node4</title>
<g id="a_node4"><a xlink:title=" ">
<polygon fill="#e0e0e0" stroke="#999999" points="745.47,-19.25 684.47,-19.25 684.47,0 745.47,0 745.47,-19.25"/>
<text text-anchor="middle" x="714.97" y="-5.75" font-family="Helvetica,sans-Serif" font-size="10.00">type_traits</text>
</a>
</g>
</g>
<!-- Node1&#45;&gt;Node4 -->
<g id="edge3" class="edge">
<title>Node1&#45;&gt;Node4</title>
<path fill="none" stroke="#63b8ff" d="M431.19,-251.67C570.09,-249.13 890.92,-234.32 952.97,-152.25 1010.01,-76.8 838.87,-33.68 756.54,-17.76"/>
<polygon fill="#63b8ff" stroke="#63b8ff" points="757.25,-14.14 746.78,-15.73 755.96,-21.02 757.25,-14.14"/>
</g>
<!-- Node5 -->
<g id="node5" class="node">
<title>Node5</title>
<g id="a_node5"><a xlink:href="custom-space_8h.html" target="_top" xlink:title=" ">
<polygon fill="white" stroke="#666666" points="145.09,-207.5 30.84,-207.5 30.84,-188.25 145.09,-188.25 145.09,-207.5"/>
<text text-anchor="middle" x="87.97" y="-194" font-family="Helvetica,sans-Serif" font-size="10.00">cppgc/custom&#45;space.h</text>
</a>
</g>
</g>
<!-- Node1&#45;&gt;Node5 -->
<g id="edge4" class="edge">
<title>Node1&#45;&gt;Node5</title>
<path fill="none" stroke="#63b8ff" d="M319.32,-243.03C271.38,-233.88 197.36,-219.75 146.01,-209.95"/>
<polygon fill="#63b8ff" stroke="#63b8ff" points="146.9,-206.37 136.42,-207.93 145.58,-213.24 146.9,-206.37"/>
</g>
<!-- Node7 -->
<g id="node7" class="node">
<title>Node7</title>
<g id="a_node7"><a xlink:href="garbage-collected_8h.html" target="_top" xlink:title=" ">
<polygon fill="white" stroke="#666666" points="431.59,-207.5 302.34,-207.5 302.34,-188.25 431.59,-188.25 431.59,-207.5"/>
<text text-anchor="middle" x="366.97" y="-194" font-family="Helvetica,sans-Serif" font-size="10.00">cppgc/garbage&#45;collected.h</text>
</a>
</g>
</g>
<!-- Node1&#45;&gt;Node7 -->
<g id="edge6" class="edge">
<title>Node1&#45;&gt;Node7</title>
<path fill="none" stroke="#63b8ff" d="M366.97,-243.33C366.97,-236.67 366.97,-227.24 366.97,-218.78"/>
<polygon fill="#63b8ff" stroke="#63b8ff" points="370.47,-218.86 366.97,-208.86 363.47,-218.86 370.47,-218.86"/>
</g>
<!-- Node8 -->
<g id="node8" class="node">
<title>Node8</title>
<g id="a_node8"><a xlink:href="api-constants_8h.html" target="_top" xlink:title=" ">
<polygon fill="white" stroke="#666666" points="161.22,-85.75 68.72,-85.75 68.72,-55.25 161.22,-55.25 161.22,-85.75"/>
<text text-anchor="start" x="76.72" y="-72.25" font-family="Helvetica,sans-Serif" font-size="10.00">cppgc/internal/api</text>
<text text-anchor="middle" x="114.97" y="-61" font-family="Helvetica,sans-Serif" font-size="10.00">&#45;constants.h</text>
</a>
</g>
</g>
<!-- Node1&#45;&gt;Node8 -->
<g id="edge28" class="edge">
<title>Node1&#45;&gt;Node8</title>
<path fill="none" stroke="#63b8ff" d="M345.6,-243.12C310.38,-227.68 238.88,-193.77 186.97,-152.25 165.73,-135.27 145.49,-111.67 131.91,-94.37"/>
<polygon fill="#63b8ff" stroke="#63b8ff" points="134.32,-92.76 125.44,-86.96 128.77,-97.02 134.32,-92.76"/>
</g>
<!-- Node18 -->
<g id="node18" class="node">
<title>Node18</title>
<g id="a_node18"><a xlink:href="gc-info_8h.html" target="_top" xlink:title=" ">
<polygon fill="white" stroke="#666666" points="697.22,-207.5 580.72,-207.5 580.72,-188.25 697.22,-188.25 697.22,-207.5"/>
<text text-anchor="middle" x="638.97" y="-194" font-family="Helvetica,sans-Serif" font-size="10.00">cppgc/internal/gc&#45;info.h</text>
</a>
</g>
</g>
<!-- Node1&#45;&gt;Node18 -->
<g id="edge29" class="edge">
<title>Node1&#45;&gt;Node18</title>
<path fill="none" stroke="#63b8ff" d="M413.42,-243.03C460.07,-233.9 532.02,-219.81 582.07,-210.01"/>
<polygon fill="#63b8ff" stroke="#63b8ff" points="582.57,-213.29 591.71,-207.93 581.23,-206.42 582.57,-213.29"/>
</g>
<!-- Node6 -->
<g id="node6" class="node">
<title>Node6</title>
<g id="a_node6"><a xlink:title=" ">
<polygon fill="#e0e0e0" stroke="#999999" points="132.22,-19.25 81.72,-19.25 81.72,0 132.22,0 132.22,-19.25"/>
<text text-anchor="middle" x="106.97" y="-5.75" font-family="Helvetica,sans-Serif" font-size="10.00">stddef.h</text>
</a>
</g>
</g>
<!-- Node5&#45;&gt;Node6 -->
<g id="edge5" class="edge">
<title>Node5&#45;&gt;Node6</title>
<path fill="none" stroke="#63b8ff" d="M82.66,-187.87C69.85,-164.88 39.69,-102.46 59.97,-55.25 64.95,-43.65 74.59,-33.65 83.85,-26.08"/>
<polygon fill="#63b8ff" stroke="#63b8ff" points="85.57,-28.4 91.44,-19.58 81.35,-22.82 85.57,-28.4"/>
</g>
<!-- Node7&#45;&gt;Node4 -->
<g id="edge7" class="edge">
<title>Node7&#45;&gt;Node4</title>
<path fill="none" stroke="#63b8ff" d="M366.65,-188.21C366.55,-172.81 368.61,-140.52 385.97,-121.75 425.7,-78.79 594.35,-37.09 673.56,-19.43"/>
<polygon fill="#63b8ff" stroke="#63b8ff" points="674.11,-22.68 683.12,-17.11 672.6,-15.84 674.11,-22.68"/>
</g>
<!-- Node7&#45;&gt;Node8 -->
<g id="edge8" class="edge">
<title>Node7&#45;&gt;Node8</title>
<path fill="none" stroke="#63b8ff" d="M328.84,-187.78C300.66,-180.28 261.82,-168.26 229.97,-152.25 209.04,-141.72 206.13,-135.23 186.97,-121.75 173.23,-112.08 157.97,-101.42 145.05,-92.42"/>
<polygon fill="#63b8ff" stroke="#63b8ff" points="147.31,-89.03 137.11,-86.19 143.31,-94.78 147.31,-89.03"/>
</g>
<!-- Node10 -->
<g id="node10" class="node">
<title>Node10</title>
<g id="a_node10"><a xlink:href="platform_8h.html" target="_top" xlink:title=" ">
<polygon fill="white" stroke="#666666" points="326.97,-146.62 238.97,-146.62 238.97,-127.38 326.97,-127.38 326.97,-146.62"/>
<text text-anchor="middle" x="282.97" y="-133.12" font-family="Helvetica,sans-Serif" font-size="10.00">cppgc/platform.h</text>
</a>
</g>
</g>
<!-- Node7&#45;&gt;Node10 -->
<g id="edge12" class="edge">
<title>Node7&#45;&gt;Node10</title>
<path fill="none" stroke="#63b8ff" d="M354.21,-187.93C341.01,-178.68 320.17,-164.07 304.43,-153.04"/>
<polygon fill="#63b8ff" stroke="#63b8ff" points="307.04,-149.9 296.85,-147.03 303.03,-155.63 307.04,-149.9"/>
</g>
<!-- Node15 -->
<g id="node15" class="node">
<title>Node15</title>
<g id="a_node15"><a xlink:href="trace-trait_8h.html" target="_top" xlink:title=" ">
<polygon fill="white" stroke="#666666" points="610.97,-146.62 516.97,-146.62 516.97,-127.38 610.97,-127.38 610.97,-146.62"/>
<text text-anchor="middle" x="563.97" y="-133.12" font-family="Helvetica,sans-Serif" font-size="10.00">cppgc/trace&#45;trait.h</text>
</a>
</g>
</g>
<!-- Node7&#45;&gt;Node15 -->
<g id="edge21" class="edge">
<title>Node7&#45;&gt;Node15</title>
<path fill="none" stroke="#63b8ff" d="M397.32,-187.8C431.16,-177.69 486.04,-161.29 523.51,-150.09"/>
<polygon fill="#63b8ff" stroke="#63b8ff" points="524.01,-153.3 532.59,-147.08 522,-146.59 524.01,-153.3"/>
</g>
<!-- Node16 -->
<g id="node16" class="node">
<title>Node16</title>
<g id="a_node16"><a xlink:href="type-traits_8h.html" target="_top" xlink:title=" ">
<polygon fill="white" stroke="#666666" points="762.72,-80.12 667.22,-80.12 667.22,-60.88 762.72,-60.88 762.72,-80.12"/>
<text text-anchor="middle" x="714.97" y="-66.62" font-family="Helvetica,sans-Serif" font-size="10.00">cppgc/type&#45;traits.h</text>
</a>
</g>
</g>
<!-- Node7&#45;&gt;Node16 -->
<g id="edge27" class="edge">
<title>Node7&#45;&gt;Node16</title>
<path fill="none" stroke="#63b8ff" d="M431.9,-194.77C484.75,-190.9 560.13,-180.39 619.97,-152.25 652.61,-136.9 683,-107.33 700.25,-88.55"/>
<polygon fill="#63b8ff" stroke="#63b8ff" points="702.35,-91.32 706.41,-81.53 697.14,-86.66 702.35,-91.32"/>
</g>
<!-- Node8&#45;&gt;Node2 -->
<g id="edge10" class="edge">
<title>Node8&#45;&gt;Node2</title>
<path fill="none" stroke="#63b8ff" d="M96.43,-54.95C85.34,-46.24 71.25,-35.18 59.92,-26.28"/>
<polygon fill="#63b8ff" stroke="#63b8ff" points="62.56,-23.12 52.53,-19.7 58.24,-28.63 62.56,-23.12"/>
</g>
<!-- Node8&#45;&gt;Node6 -->
<g id="edge9" class="edge">
<title>Node8&#45;&gt;Node6</title>
<path fill="none" stroke="#63b8ff" d="M112.99,-54.95C111.98,-47.53 110.74,-38.41 109.65,-30.38"/>
<polygon fill="#63b8ff" stroke="#63b8ff" points="113.02,-30.14 108.2,-20.7 106.08,-31.08 113.02,-30.14"/>
</g>
<!-- Node9 -->
<g id="node9" class="node">
<title>Node9</title>
<g id="a_node9"><a xlink:href="v8config_8h.html" target="_top" xlink:title=" ">
<polygon fill="white" stroke="#666666" points="401.72,-19.25 342.22,-19.25 342.22,0 401.72,0 401.72,-19.25"/>
<text text-anchor="middle" x="371.97" y="-5.75" font-family="Helvetica,sans-Serif" font-size="10.00">v8config.h</text>
</a>
</g>
</g>
<!-- Node8&#45;&gt;Node9 -->
<g id="edge11" class="edge">
<title>Node8&#45;&gt;Node9</title>
<path fill="none" stroke="#63b8ff" d="M161.45,-57.33C164.33,-56.62 167.19,-55.92 169.97,-55.25 238.87,-38.72 258.76,-35.53 331.16,-19.64"/>
<polygon fill="#63b8ff" stroke="#63b8ff" points="331.72,-22.88 340.74,-17.31 330.22,-16.05 331.72,-22.88"/>
</g>
<!-- Node10&#45;&gt;Node9 -->
<g id="edge20" class="edge">
<title>Node10&#45;&gt;Node9</title>
<path fill="none" stroke="#63b8ff" d="M282.37,-127.11C281.75,-111.21 282.54,-77.52 297.97,-55.25 307.48,-41.52 322.71,-31.3 336.89,-24.12"/>
<polygon fill="#63b8ff" stroke="#63b8ff" points="337.89,-27.05 345.45,-19.64 334.91,-20.71 337.89,-27.05"/>
</g>
<!-- Node11 -->
<g id="node11" class="node">
<title>Node11</title>
<g id="a_node11"><a xlink:href="v8-platform_8h.html" target="_top" xlink:title=" ">
<polygon fill="white" stroke="#666666" points="251.09,-80.12 178.84,-80.12 178.84,-60.88 251.09,-60.88 251.09,-80.12"/>
<text text-anchor="middle" x="214.97" y="-66.62" font-family="Helvetica,sans-Serif" font-size="10.00">v8&#45;platform.h</text>
</a>
</g>
</g>
<!-- Node10&#45;&gt;Node11 -->
<g id="edge13" class="edge">
<title>Node10&#45;&gt;Node11</title>
<path fill="none" stroke="#63b8ff" d="M273.51,-127.03C262.86,-116.92 245.31,-100.28 232.2,-87.85"/>
<polygon fill="#63b8ff" stroke="#63b8ff" points="235.01,-85.73 225.34,-81.39 230.19,-90.81 235.01,-85.73"/>
</g>
<!-- Node11&#45;&gt;Node2 -->
<g id="edge15" class="edge">
<title>Node11&#45;&gt;Node2</title>
<path fill="none" stroke="#63b8ff" d="M188.01,-60.43C157.47,-50.16 107.63,-33.39 74.33,-22.18"/>
<polygon fill="#63b8ff" stroke="#63b8ff" points="75.73,-18.63 65.14,-18.76 73.5,-25.26 75.73,-18.63"/>
</g>
<!-- Node11&#45;&gt;Node6 -->
<g id="edge14" class="edge">
<title>Node11&#45;&gt;Node6</title>
<path fill="none" stroke="#63b8ff" d="M198.57,-60.56C181.2,-51.09 153.54,-36.01 133.15,-24.9"/>
<polygon fill="#63b8ff" stroke="#63b8ff" points="134.98,-21.36 124.53,-19.65 131.63,-27.51 134.98,-21.36"/>
</g>
<!-- Node11&#45;&gt;Node9 -->
<g id="edge19" class="edge">
<title>Node11&#45;&gt;Node9</title>
<path fill="none" stroke="#63b8ff" d="M239.16,-60.43C265.55,-50.53 308,-34.61 337.79,-23.44"/>
<polygon fill="#63b8ff" stroke="#63b8ff" points="338.62,-26.49 346.75,-19.71 336.16,-19.94 338.62,-26.49"/>
</g>
<!-- Node12 -->
<g id="node12" class="node">
<title>Node12</title>
<g id="a_node12"><a xlink:title=" ">
<polygon fill="#e0e0e0" stroke="#999999" points="197.34,-19.25 150.59,-19.25 150.59,0 197.34,0 197.34,-19.25"/>
<text text-anchor="middle" x="173.97" y="-5.75" font-family="Helvetica,sans-Serif" font-size="10.00">stdlib.h</text>
</a>
</g>
</g>
<!-- Node11&#45;&gt;Node12 -->
<g id="edge16" class="edge">
<title>Node11&#45;&gt;Node12</title>
<path fill="none" stroke="#63b8ff" d="M208.74,-60.56C202.84,-52.09 193.81,-39.12 186.43,-28.52"/>
<polygon fill="#63b8ff" stroke="#63b8ff" points="188.84,-26.86 180.25,-20.65 183.1,-30.86 188.84,-26.86"/>
</g>
<!-- Node13 -->
<g id="node13" class="node">
<title>Node13</title>
<g id="a_node13"><a xlink:title=" ">
<polygon fill="#e0e0e0" stroke="#999999" points="266.22,-19.25 215.72,-19.25 215.72,0 266.22,0 266.22,-19.25"/>
<text text-anchor="middle" x="240.97" y="-5.75" font-family="Helvetica,sans-Serif" font-size="10.00">memory</text>
</a>
</g>
</g>
<!-- Node11&#45;&gt;Node13 -->
<g id="edge17" class="edge">
<title>Node11&#45;&gt;Node13</title>
<path fill="none" stroke="#63b8ff" d="M218.92,-60.56C222.54,-52.35 228.04,-39.91 232.63,-29.5"/>
<polygon fill="#63b8ff" stroke="#63b8ff" points="236.15,-31.21 236.98,-20.65 229.74,-28.38 236.15,-31.21"/>
</g>
<!-- Node14 -->
<g id="node14" class="node">
<title>Node14</title>
<g id="a_node14"><a xlink:title=" ">
<polygon fill="#e0e0e0" stroke="#999999" points="323.97,-19.25 283.97,-19.25 283.97,0 323.97,0 323.97,-19.25"/>
<text text-anchor="middle" x="303.97" y="-5.75" font-family="Helvetica,sans-Serif" font-size="10.00">string</text>
</a>
</g>
</g>
<!-- Node11&#45;&gt;Node14 -->
<g id="edge18" class="edge">
<title>Node11&#45;&gt;Node14</title>
<path fill="none" stroke="#63b8ff" d="M228.49,-60.56C242.47,-51.31 264.56,-36.7 281.23,-25.67"/>
<polygon fill="#63b8ff" stroke="#63b8ff" points="282.92,-28.09 289.32,-19.65 279.05,-22.25 282.92,-28.09"/>
</g>
<!-- Node15&#45;&gt;Node4 -->
<g id="edge22" class="edge">
<title>Node15&#45;&gt;Node4</title>
<path fill="none" stroke="#63b8ff" d="M574.27,-126.88C591.43,-111.76 627.03,-80.63 657.97,-55.25 669.96,-45.41 683.64,-34.69 694.59,-26.22"/>
<polygon fill="#63b8ff" stroke="#63b8ff" points="696.27,-28.57 702.05,-19.7 692,-23.03 696.27,-28.57"/>
</g>
<!-- Node15&#45;&gt;Node9 -->
<g id="edge26" class="edge">
<title>Node15&#45;&gt;Node9</title>
<path fill="none" stroke="#63b8ff" d="M551.79,-126.92C531.05,-111.58 487.41,-79.82 448.97,-55.25 432.2,-44.53 412.82,-33.31 397.69,-24.79"/>
<polygon fill="#63b8ff" stroke="#63b8ff" points="399.88,-21.44 389.44,-19.62 396.46,-27.56 399.88,-21.44"/>
</g>
<!-- Node15&#45;&gt;Node16 -->
<g id="edge23" class="edge">
<title>Node15&#45;&gt;Node16</title>
<path fill="none" stroke="#63b8ff" d="M585.28,-126.9C611.03,-115.9 654.53,-97.31 683.98,-84.74"/>
<polygon fill="#63b8ff" stroke="#63b8ff" points="684.94,-87.71 692.76,-80.56 682.19,-81.27 684.94,-87.71"/>
</g>
<!-- Node16&#45;&gt;Node4 -->
<g id="edge25" class="edge">
<title>Node16&#45;&gt;Node4</title>
<path fill="none" stroke="#63b8ff" d="M714.97,-60.56C714.97,-52.6 714.97,-40.69 714.97,-30.49"/>
<polygon fill="#63b8ff" stroke="#63b8ff" points="718.47,-30.65 714.97,-20.65 711.47,-30.65 718.47,-30.65"/>
</g>
<!-- Node17 -->
<g id="node17" class="node">
<title>Node17</title>
<g id="a_node17"><a xlink:title=" ">
<polygon fill="#e0e0e0" stroke="#999999" points="607.09,-19.25 558.84,-19.25 558.84,0 607.09,0 607.09,-19.25"/>
<text text-anchor="middle" x="582.97" y="-5.75" font-family="Helvetica,sans-Serif" font-size="10.00">cstddef</text>
</a>
</g>
</g>
<!-- Node16&#45;&gt;Node17 -->
<g id="edge24" class="edge">
<title>Node16&#45;&gt;Node17</title>
<path fill="none" stroke="#63b8ff" d="M694.63,-60.43C672.87,-50.72 638.1,-35.21 613.14,-24.08"/>
<polygon fill="#63b8ff" stroke="#63b8ff" points="614.67,-20.49 604.11,-19.61 611.82,-26.88 614.67,-20.49"/>
</g>
<!-- Node18&#45;&gt;Node3 -->
<g id="edge30" class="edge">
<title>Node18&#45;&gt;Node3</title>
<path fill="none" stroke="#63b8ff" d="M697.54,-190.75C749.07,-184.35 825.66,-172.38 889.97,-152.25 891.07,-151.9 892.19,-151.53 893.3,-151.13"/>
<polygon fill="#63b8ff" stroke="#63b8ff" points="894.3,-154.1 902.24,-147.09 891.66,-147.61 894.3,-154.1"/>
</g>
<!-- Node18&#45;&gt;Node9 -->
<g id="edge41" class="edge">
<title>Node18&#45;&gt;Node9</title>
<path fill="none" stroke="#63b8ff" d="M639.03,-187.95C638.67,-172.71 635.88,-141.41 619.97,-121.75 567.24,-56.6 468.26,-28.35 412.62,-17.17"/>
<polygon fill="#63b8ff" stroke="#63b8ff" points="413.57,-13.6 403.09,-15.16 412.26,-20.47 413.57,-13.6"/>
</g>
<!-- Node18&#45;&gt;Node15 -->
<g id="edge40" class="edge">
<title>Node18&#45;&gt;Node15</title>
<path fill="none" stroke="#63b8ff" d="M627.58,-187.93C616.01,-178.86 597.88,-164.62 583.92,-153.66"/>
<polygon fill="#63b8ff" stroke="#63b8ff" points="586.49,-150.45 576.47,-147.03 582.17,-155.95 586.49,-150.45"/>
</g>
<!-- Node19 -->
<g id="node19" class="node">
<title>Node19</title>
<g id="a_node19"><a xlink:title=" ">
<polygon fill="#e0e0e0" stroke="#999999" points="880.59,-146.62 835.34,-146.62 835.34,-127.38 880.59,-127.38 880.59,-146.62"/>
<text text-anchor="middle" x="857.97" y="-133.12" font-family="Helvetica,sans-Serif" font-size="10.00">cstdint</text>
</a>
</g>
</g>
<!-- Node18&#45;&gt;Node19 -->
<g id="edge31" class="edge">
<title>Node18&#45;&gt;Node19</title>
<path fill="none" stroke="#63b8ff" d="M687.7,-187.82C725.85,-180.12 779.97,-167.83 825.97,-152.25 827.06,-151.88 828.17,-151.49 829.29,-151.07"/>
<polygon fill="#63b8ff" stroke="#63b8ff" points="830.3,-154.03 838.25,-147.03 827.67,-147.55 830.3,-154.03"/>
</g>
<!-- Node20 -->
<g id="node20" class="node">
<title>Node20</title>
<g id="a_node20"><a xlink:href="finalizer-trait_8h.html" target="_top" xlink:title=" ">
<polygon fill="white" stroke="#666666" points="816.97,-152.25 704.97,-152.25 704.97,-121.75 816.97,-121.75 816.97,-152.25"/>
<text text-anchor="start" x="712.97" y="-138.75" font-family="Helvetica,sans-Serif" font-size="10.00">cppgc/internal/finalizer</text>
<text text-anchor="middle" x="760.97" y="-127.5" font-family="Helvetica,sans-Serif" font-size="10.00">&#45;trait.h</text>
</a>
</g>
</g>
<!-- Node18&#45;&gt;Node20 -->
<g id="edge32" class="edge">
<title>Node18&#45;&gt;Node20</title>
<path fill="none" stroke="#63b8ff" d="M657.76,-187.8C674.5,-179.73 699.54,-167.64 720.77,-157.4"/>
<polygon fill="#63b8ff" stroke="#63b8ff" points="722.03,-160.19 729.52,-152.69 718.99,-153.89 722.03,-160.19"/>
</g>
<!-- Node21 -->
<g id="node21" class="node">
<title>Node21</title>
<g id="a_node21"><a xlink:href="name-trait_8h.html" target="_top" xlink:title=" ">
<polygon fill="white" stroke="#666666" points="498.84,-152.25 395.09,-152.25 395.09,-121.75 498.84,-121.75 498.84,-152.25"/>
<text text-anchor="start" x="403.09" y="-138.75" font-family="Helvetica,sans-Serif" font-size="10.00">cppgc/internal/name</text>
<text text-anchor="middle" x="446.97" y="-127.5" font-family="Helvetica,sans-Serif" font-size="10.00">&#45;trait.h</text>
</a>
</g>
</g>
<!-- Node18&#45;&gt;Node21 -->
<g id="edge35" class="edge">
<title>Node18&#45;&gt;Node21</title>
<path fill="none" stroke="#63b8ff" d="M609.39,-187.8C581.74,-179.33 539.69,-166.43 505.29,-155.88"/>
<polygon fill="#63b8ff" stroke="#63b8ff" points="506.48,-152.28 495.89,-152.69 504.43,-158.97 506.48,-152.28"/>
</g>
<!-- Node20&#45;&gt;Node4 -->
<g id="edge33" class="edge">
<title>Node20&#45;&gt;Node4</title>
<path fill="none" stroke="#63b8ff" d="M767.66,-121.51C774.39,-104.72 782.38,-76.62 771.97,-55.25 765.86,-42.72 754.35,-32.66 743.25,-25.3"/>
<polygon fill="#63b8ff" stroke="#63b8ff" points="745.52,-21.97 735.16,-19.75 741.87,-27.95 745.52,-21.97"/>
</g>
<!-- Node20&#45;&gt;Node16 -->
<g id="edge34" class="edge">
<title>Node20&#45;&gt;Node16</title>
<path fill="none" stroke="#63b8ff" d="M750.53,-121.36C743.7,-111.79 734.74,-99.22 727.52,-89.1"/>
<polygon fill="#63b8ff" stroke="#63b8ff" points="729.92,-87.43 721.26,-81.32 724.22,-91.5 729.92,-87.43"/>
</g>
<!-- Node21&#45;&gt;Node9 -->
<g id="edge39" class="edge">
<title>Node21&#45;&gt;Node9</title>
<path fill="none" stroke="#63b8ff" d="M446.88,-121.46C446.14,-104.37 442.86,-75.75 429.97,-55.25 422.31,-43.07 410.07,-32.93 398.81,-25.41"/>
<polygon fill="#63b8ff" stroke="#63b8ff" points="401.03,-22.05 390.7,-19.72 397.33,-27.99 401.03,-22.05"/>
</g>
<!-- Node21&#45;&gt;Node17 -->
<g id="edge36" class="edge">
<title>Node21&#45;&gt;Node17</title>
<path fill="none" stroke="#63b8ff" d="M462.84,-121.37C488.51,-97.71 538.95,-51.21 565.57,-26.67"/>
<polygon fill="#63b8ff" stroke="#63b8ff" points="567.33,-29.88 572.31,-20.53 562.59,-24.73 567.33,-29.88"/>
</g>
<!-- Node22 -->
<g id="node22" class="node">
<title>Node22</title>
<g id="a_node22"><a xlink:href="name-provider_8h.html" target="_top" xlink:title=" ">
<polygon fill="white" stroke="#666666" points="421.09,-80.12 306.84,-80.12 306.84,-60.88 421.09,-60.88 421.09,-80.12"/>
<text text-anchor="middle" x="363.97" y="-66.62" font-family="Helvetica,sans-Serif" font-size="10.00">cppgc/name&#45;provider.h</text>
</a>
</g>
</g>
<!-- Node21&#45;&gt;Node22 -->
<g id="edge37" class="edge">
<title>Node21&#45;&gt;Node22</title>
<path fill="none" stroke="#63b8ff" d="M428.14,-121.36C414.92,-111.1 397.29,-97.39 383.85,-86.95"/>
<polygon fill="#63b8ff" stroke="#63b8ff" points="386.37,-83.7 376.32,-80.32 382.07,-89.22 386.37,-83.7"/>
</g>
<!-- Node22&#45;&gt;Node9 -->
<g id="edge38" class="edge">
<title>Node22&#45;&gt;Node9</title>
<path fill="none" stroke="#63b8ff" d="M365.18,-60.56C366.26,-52.6 367.88,-40.69 369.27,-30.49"/>
<polygon fill="#63b8ff" stroke="#63b8ff" points="372.86,-31.03 370.74,-20.65 365.93,-30.09 372.86,-31.03"/>
</g>
</g>
</svg>
