<?xml version="1.0" encoding="UTF-8" standalone="no"?>
<!DOCTYPE svg PUBLIC "-//W3C//DTD SVG 1.1//EN"
 "http://www.w3.org/Graphics/SVG/1.1/DTD/svg11.dtd">
<!-- Generated by graphviz version 8.0.5 (20230430.1635)
 -->
<!-- Title: include/cppgc/internal/caged&#45;heap&#45;local&#45;data.h Pages: 1 -->
<svg width="469pt" height="216pt"
 viewBox="0.00 0.00 468.62 215.50" xmlns="http://www.w3.org/2000/svg" xmlns:xlink="http://www.w3.org/1999/xlink">
<g id="graph0" class="graph" transform="scale(1 1) rotate(0) translate(4 211.5)">
<title>include/cppgc/internal/caged&#45;heap&#45;local&#45;data.h</title>
<!-- Node1 -->
<g id="node1" class="node">
<title>Node1</title>
<g id="a_node1"><a xlink:title=" ">
<polygon fill="#999999" stroke="#666666" points="265.12,-207.5 143.38,-207.5 143.38,-177 265.12,-177 265.12,-207.5"/>
<text text-anchor="start" x="151.38" y="-194" font-family="Helvetica,sans-Serif" font-size="10.00">include/cppgc/internal</text>
<text text-anchor="middle" x="204.25" y="-182.75" font-family="Helvetica,sans-Serif" font-size="10.00">/caged&#45;heap&#45;local&#45;data.h</text>
</a>
</g>
</g>
<!-- Node2 -->
<g id="node2" class="node">
<title>Node2</title>
<g id="a_node2"><a xlink:title=" ">
<polygon fill="#e0e0e0" stroke="#999999" points="103.75,-141 66.75,-141 66.75,-121.75 103.75,-121.75 103.75,-141"/>
<text text-anchor="middle" x="85.25" y="-127.5" font-family="Helvetica,sans-Serif" font-size="10.00">array</text>
</a>
</g>
</g>
<!-- Node1&#45;&gt;Node2 -->
<g id="edge1" class="edge">
<title>Node1&#45;&gt;Node2</title>
<path fill="none" stroke="#63b8ff" d="M174.53,-176.55C155.8,-167.28 131.76,-155.38 113.34,-146.27"/>
<polygon fill="#63b8ff" stroke="#63b8ff" points="115.01,-142.7 104.5,-141.4 111.91,-148.98 115.01,-142.7"/>
</g>
<!-- Node3 -->
<g id="node3" class="node">
<title>Node3</title>
<g id="a_node3"><a xlink:href="api-constants_8h.html" target="_top" xlink:title=" ">
<polygon fill="white" stroke="#666666" points="120.5,-85.75 28,-85.75 28,-55.25 120.5,-55.25 120.5,-85.75"/>
<text text-anchor="start" x="36" y="-72.25" font-family="Helvetica,sans-Serif" font-size="10.00">cppgc/internal/api</text>
<text text-anchor="middle" x="74.25" y="-61" font-family="Helvetica,sans-Serif" font-size="10.00">&#45;constants.h</text>
</a>
</g>
</g>
<!-- Node1&#45;&gt;Node3 -->
<g id="edge2" class="edge">
<title>Node1&#45;&gt;Node3</title>
<path fill="none" stroke="#63b8ff" d="M188.31,-176.57C165.67,-155.71 124.06,-117.38 97.84,-93.23"/>
<polygon fill="#63b8ff" stroke="#63b8ff" points="100.64,-91.13 90.91,-86.93 95.9,-96.28 100.64,-91.13"/>
</g>
<!-- Node6 -->
<g id="node6" class="node">
<title>Node6</title>
<g id="a_node6"><a xlink:href="v8config_8h.html" target="_top" xlink:title=" ">
<polygon fill="white" stroke="#666666" points="327,-19.25 267.5,-19.25 267.5,0 327,0 327,-19.25"/>
<text text-anchor="middle" x="297.25" y="-5.75" font-family="Helvetica,sans-Serif" font-size="10.00">v8config.h</text>
</a>
</g>
</g>
<!-- Node1&#45;&gt;Node6 -->
<g id="edge20" class="edge">
<title>Node1&#45;&gt;Node6</title>
<path fill="none" stroke="#63b8ff" d="M224.08,-176.68C235.24,-167.55 248.63,-154.9 257.25,-141 279.32,-105.4 289.99,-56.74 294.47,-30.08"/>
<polygon fill="#63b8ff" stroke="#63b8ff" points="298.04,-30.92 296.12,-20.5 291.12,-29.84 298.04,-30.92"/>
</g>
<!-- Node7 -->
<g id="node7" class="node">
<title>Node7</title>
<g id="a_node7"><a xlink:href="logging_8h.html" target="_top" xlink:title=" ">
<polygon fill="white" stroke="#666666" points="422.25,-141 304.25,-141 304.25,-121.75 422.25,-121.75 422.25,-141"/>
<text text-anchor="middle" x="363.25" y="-127.5" font-family="Helvetica,sans-Serif" font-size="10.00">cppgc/internal/logging.h</text>
</a>
</g>
</g>
<!-- Node1&#45;&gt;Node7 -->
<g id="edge6" class="edge">
<title>Node1&#45;&gt;Node7</title>
<path fill="none" stroke="#63b8ff" d="M243.96,-176.55C270.04,-166.89 303.81,-154.38 328.76,-145.15"/>
<polygon fill="#63b8ff" stroke="#63b8ff" points="329.7,-148.16 337.87,-141.4 327.27,-141.59 329.7,-148.16"/>
</g>
<!-- Node10 -->
<g id="node10" class="node">
<title>Node10</title>
<g id="a_node10"><a xlink:href="platform_8h.html" target="_top" xlink:title=" ">
<polygon fill="white" stroke="#666666" points="248.25,-141 160.25,-141 160.25,-121.75 248.25,-121.75 248.25,-141"/>
<text text-anchor="middle" x="204.25" y="-127.5" font-family="Helvetica,sans-Serif" font-size="10.00">cppgc/platform.h</text>
</a>
</g>
</g>
<!-- Node1&#45;&gt;Node10 -->
<g id="edge11" class="edge">
<title>Node1&#45;&gt;Node10</title>
<path fill="none" stroke="#63b8ff" d="M204.25,-176.7C204.25,-169.37 204.25,-160.37 204.25,-152.41"/>
<polygon fill="#63b8ff" stroke="#63b8ff" points="207.75,-152.45 204.25,-142.45 200.75,-152.45 207.75,-152.45"/>
</g>
<!-- Node4 -->
<g id="node4" class="node">
<title>Node4</title>
<g id="a_node4"><a xlink:title=" ">
<polygon fill="#e0e0e0" stroke="#999999" points="50.5,-19.25 0,-19.25 0,0 50.5,0 50.5,-19.25"/>
<text text-anchor="middle" x="25.25" y="-5.75" font-family="Helvetica,sans-Serif" font-size="10.00">stddef.h</text>
</a>
</g>
</g>
<!-- Node3&#45;&gt;Node4 -->
<g id="edge3" class="edge">
<title>Node3&#45;&gt;Node4</title>
<path fill="none" stroke="#63b8ff" d="M62.14,-54.95C55.32,-46.76 46.77,-36.48 39.62,-27.89"/>
<polygon fill="#63b8ff" stroke="#63b8ff" points="41.89,-26.15 32.8,-20.7 36.51,-30.63 41.89,-26.15"/>
</g>
<!-- Node5 -->
<g id="node5" class="node">
<title>Node5</title>
<g id="a_node5"><a xlink:title=" ">
<polygon fill="#e0e0e0" stroke="#999999" points="116,-19.25 68.5,-19.25 68.5,0 116,0 116,-19.25"/>
<text text-anchor="middle" x="92.25" y="-5.75" font-family="Helvetica,sans-Serif" font-size="10.00">stdint.h</text>
</a>
</g>
</g>
<!-- Node3&#45;&gt;Node5 -->
<g id="edge4" class="edge">
<title>Node3&#45;&gt;Node5</title>
<path fill="none" stroke="#63b8ff" d="M78.7,-54.95C80.99,-47.45 83.82,-38.2 86.3,-30.1"/>
<polygon fill="#63b8ff" stroke="#63b8ff" points="89.9,-31.29 89.48,-20.7 83.2,-29.24 89.9,-31.29"/>
</g>
<!-- Node3&#45;&gt;Node6 -->
<g id="edge5" class="edge">
<title>Node3&#45;&gt;Node6</title>
<path fill="none" stroke="#63b8ff" d="M121,-57.16C161.27,-46.52 218.8,-31.34 257.05,-21.24"/>
<polygon fill="#63b8ff" stroke="#63b8ff" points="257.52,-24.47 266.29,-18.53 255.73,-17.7 257.52,-24.47"/>
</g>
<!-- Node7&#45;&gt;Node6 -->
<g id="edge10" class="edge">
<title>Node7&#45;&gt;Node6</title>
<path fill="none" stroke="#63b8ff" d="M356.65,-121.39C350.28,-112.55 340.57,-98.55 333.25,-85.75 322.62,-67.16 312.25,-44.94 305.38,-29.51"/>
<polygon fill="#63b8ff" stroke="#63b8ff" points="308.27,-28.38 301.06,-20.63 301.86,-31.19 308.27,-28.38"/>
</g>
<!-- Node8 -->
<g id="node8" class="node">
<title>Node8</title>
<g id="a_node8"><a xlink:href="source-location_8h.html" target="_top" xlink:title=" ">
<polygon fill="white" stroke="#666666" points="460.62,-80.12 341.88,-80.12 341.88,-60.88 460.62,-60.88 460.62,-80.12"/>
<text text-anchor="middle" x="401.25" y="-66.62" font-family="Helvetica,sans-Serif" font-size="10.00">cppgc/source&#45;location.h</text>
</a>
</g>
</g>
<!-- Node7&#45;&gt;Node8 -->
<g id="edge7" class="edge">
<title>Node7&#45;&gt;Node8</title>
<path fill="none" stroke="#63b8ff" d="M369.02,-121.43C374.43,-113.05 382.69,-100.26 389.49,-89.72"/>
<polygon fill="#63b8ff" stroke="#63b8ff" points="392.94,-91.83 395.42,-81.53 387.06,-88.03 392.94,-91.83"/>
</g>
<!-- Node8&#45;&gt;Node6 -->
<g id="edge9" class="edge">
<title>Node8&#45;&gt;Node6</title>
<path fill="none" stroke="#63b8ff" d="M385.45,-60.56C368.81,-51.13 342.34,-36.15 322.73,-25.05"/>
<polygon fill="#63b8ff" stroke="#63b8ff" points="324.62,-21.53 314.19,-19.65 321.17,-27.62 324.62,-21.53"/>
</g>
<!-- Node9 -->
<g id="node9" class="node">
<title>Node9</title>
<g id="a_node9"><a xlink:title=" ">
<polygon fill="#e0e0e0" stroke="#999999" points="403.25,-19.25 363.25,-19.25 363.25,0 403.25,0 403.25,-19.25"/>
<text text-anchor="middle" x="383.25" y="-5.75" font-family="Helvetica,sans-Serif" font-size="10.00">string</text>
</a>
</g>
</g>
<!-- Node8&#45;&gt;Node9 -->
<g id="edge8" class="edge">
<title>Node8&#45;&gt;Node9</title>
<path fill="none" stroke="#63b8ff" d="M398.52,-60.56C396.06,-52.52 392.36,-40.43 389.22,-30.16"/>
<polygon fill="#63b8ff" stroke="#63b8ff" points="392.28,-29.19 386.01,-20.65 385.59,-31.24 392.28,-29.19"/>
</g>
<!-- Node10&#45;&gt;Node6 -->
<g id="edge19" class="edge">
<title>Node10&#45;&gt;Node6</title>
<path fill="none" stroke="#63b8ff" d="M211.01,-121.57C221.81,-107.52 243.63,-79.18 262.25,-55.25 269.28,-46.22 277.14,-36.19 283.63,-27.93"/>
<polygon fill="#63b8ff" stroke="#63b8ff" points="286.83,-30.52 290.26,-20.5 281.32,-26.2 286.83,-30.52"/>
</g>
<!-- Node11 -->
<g id="node11" class="node">
<title>Node11</title>
<g id="a_node11"><a xlink:href="v8-platform_8h.html" target="_top" xlink:title=" ">
<polygon fill="white" stroke="#666666" points="210.38,-80.12 138.12,-80.12 138.12,-60.88 210.38,-60.88 210.38,-80.12"/>
<text text-anchor="middle" x="174.25" y="-66.62" font-family="Helvetica,sans-Serif" font-size="10.00">v8&#45;platform.h</text>
</a>
</g>
</g>
<!-- Node10&#45;&gt;Node11 -->
<g id="edge12" class="edge">
<title>Node10&#45;&gt;Node11</title>
<path fill="none" stroke="#63b8ff" d="M199.69,-121.43C195.46,-113.13 189.04,-100.52 183.7,-90.05"/>
<polygon fill="#63b8ff" stroke="#63b8ff" points="186.51,-88.85 178.85,-81.53 180.27,-92.03 186.51,-88.85"/>
</g>
<!-- Node11&#45;&gt;Node4 -->
<g id="edge13" class="edge">
<title>Node11&#45;&gt;Node4</title>
<path fill="none" stroke="#63b8ff" d="M151.3,-60.43C126.39,-50.59 86.43,-34.8 58.18,-23.64"/>
<polygon fill="#63b8ff" stroke="#63b8ff" points="59.57,-20.03 48.99,-19.61 57,-26.54 59.57,-20.03"/>
</g>
<!-- Node11&#45;&gt;Node5 -->
<g id="edge14" class="edge">
<title>Node11&#45;&gt;Node5</title>
<path fill="none" stroke="#63b8ff" d="M161.8,-60.56C149.03,-51.39 128.94,-36.97 113.63,-25.98"/>
<polygon fill="#63b8ff" stroke="#63b8ff" points="115.99,-22.64 105.82,-19.65 111.9,-28.33 115.99,-22.64"/>
</g>
<!-- Node11&#45;&gt;Node6 -->
<g id="edge18" class="edge">
<title>Node11&#45;&gt;Node6</title>
<path fill="none" stroke="#63b8ff" d="M193.2,-60.43C213.39,-50.76 245.59,-35.35 268.82,-24.23"/>
<polygon fill="#63b8ff" stroke="#63b8ff" points="269.97,-27.08 277.48,-19.61 266.95,-20.77 269.97,-27.08"/>
</g>
<!-- Node11&#45;&gt;Node9 -->
<g id="edge17" class="edge">
<title>Node11&#45;&gt;Node9</title>
<path fill="none" stroke="#63b8ff" d="M206.45,-60.43C246.24,-49.22 313.47,-30.28 352.55,-19.27"/>
<polygon fill="#63b8ff" stroke="#63b8ff" points="353.34,-22.4 362.02,-16.32 351.44,-15.67 353.34,-22.4"/>
</g>
<!-- Node12 -->
<g id="node12" class="node">
<title>Node12</title>
<g id="a_node12"><a xlink:title=" ">
<polygon fill="#e0e0e0" stroke="#999999" points="180.62,-19.25 133.88,-19.25 133.88,0 180.62,0 180.62,-19.25"/>
<text text-anchor="middle" x="157.25" y="-5.75" font-family="Helvetica,sans-Serif" font-size="10.00">stdlib.h</text>
</a>
</g>
</g>
<!-- Node11&#45;&gt;Node12 -->
<g id="edge15" class="edge">
<title>Node11&#45;&gt;Node12</title>
<path fill="none" stroke="#63b8ff" d="M171.67,-60.56C169.35,-52.52 165.86,-40.43 162.89,-30.16"/>
<polygon fill="#63b8ff" stroke="#63b8ff" points="165.99,-29.29 159.86,-20.65 159.27,-31.23 165.99,-29.29"/>
</g>
<!-- Node13 -->
<g id="node13" class="node">
<title>Node13</title>
<g id="a_node13"><a xlink:title=" ">
<polygon fill="#e0e0e0" stroke="#999999" points="249.5,-19.25 199,-19.25 199,0 249.5,0 249.5,-19.25"/>
<text text-anchor="middle" x="224.25" y="-5.75" font-family="Helvetica,sans-Serif" font-size="10.00">memory</text>
</a>
</g>
</g>
<!-- Node11&#45;&gt;Node13 -->
<g id="edge16" class="edge">
<title>Node11&#45;&gt;Node13</title>
<path fill="none" stroke="#63b8ff" d="M181.84,-60.56C189.19,-51.91 200.5,-38.59 209.6,-27.87"/>
<polygon fill="#63b8ff" stroke="#63b8ff" points="212.78,-30.54 216.58,-20.65 207.44,-26.01 212.78,-30.54"/>
</g>
</g>
</svg>
