<?xml version="1.0" encoding="UTF-8" standalone="no"?>
<!DOCTYPE svg PUBLIC "-//W3C//DTD SVG 1.1//EN"
 "http://www.w3.org/Graphics/SVG/1.1/DTD/svg11.dtd">
<!-- Generated by graphviz version 8.0.5 (20230430.1635)
 -->
<!-- Title: cppgc::internal::CrossThreadPersistentRegion::FreeNode Pages: 1 -->
<svg width="532pt" height="147pt"
 viewBox="0.00 0.00 531.50 147.12" xmlns="http://www.w3.org/2000/svg" xmlns:xlink="http://www.w3.org/1999/xlink">
<g id="graph0" class="graph" transform="scale(1 1) rotate(0) translate(4 143.12)">
<title>cppgc::internal::CrossThreadPersistentRegion::FreeNode</title>
<!-- Node1 -->
<g id="node1" class="node">
<title>Node1</title>
<g id="a_node1"><a xlink:title=" ">
<polygon fill="#999999" stroke="#666666" points="523.5,-90.12 385.25,-90.12 385.25,-59.62 523.5,-59.62 523.5,-90.12"/>
<text text-anchor="start" x="393.25" y="-76.62" font-family="Helvetica,sans-Serif" font-size="10.00">cppgc::internal::CrossThread</text>
<text text-anchor="middle" x="454.38" y="-65.38" font-family="Helvetica,sans-Serif" font-size="10.00">PersistentRegion::FreeNode</text>
</a>
</g>
</g>
<!-- Node2 -->
<g id="node2" class="node">
<title>Node2</title>
<g id="a_node2"><a xlink:href="classcppgc_1_1internal_1_1BasicCrossThreadPersistent.html#a4101c15a02138c88ea1d29ef95b10b34" target="_top" xlink:title=" ">
<polygon fill="white" stroke="#666666" points="349.25,-90.12 216.25,-90.12 216.25,-59.62 349.25,-59.62 349.25,-90.12"/>
<text text-anchor="start" x="224.25" y="-76.62" font-family="Helvetica,sans-Serif" font-size="10.00">cppgc::internal::BasicCross</text>
<text text-anchor="middle" x="282.75" y="-65.38" font-family="Helvetica,sans-Serif" font-size="10.00">ThreadPersistent::Clear</text>
</a>
</g>
</g>
<!-- Node1&#45;&gt;Node2 -->
<g id="edge1" class="edge">
<title>Node1&#45;&gt;Node2</title>
<path fill="none" stroke="#63b8ff" d="M374.1,-74.88C365.86,-74.88 357.55,-74.88 349.48,-74.88"/>
<polygon fill="#63b8ff" stroke="#63b8ff" points="373.87,-78.38 383.87,-74.88 373.87,-71.38 373.87,-78.38"/>
</g>
<!-- Node3 -->
<g id="node3" class="node">
<title>Node3</title>
<g id="a_node3"><a xlink:href="classcppgc_1_1internal_1_1BasicCrossThreadPersistent.html#a495e434ac092107ddb112715a863274c" target="_top" xlink:title=" ">
<polygon fill="white" stroke="#666666" points="158.12,-139.12 22.12,-139.12 22.12,-108.62 158.12,-108.62 158.12,-139.12"/>
<text text-anchor="start" x="30.12" y="-125.62" font-family="Helvetica,sans-Serif" font-size="10.00">cppgc::internal::BasicCross</text>
<text text-anchor="middle" x="90.12" y="-114.38" font-family="Helvetica,sans-Serif" font-size="10.00">ThreadPersistent::operator=</text>
</a>
</g>
</g>
<!-- Node2&#45;&gt;Node3 -->
<g id="edge2" class="edge">
<title>Node2&#45;&gt;Node3</title>
<path fill="none" stroke="#63b8ff" d="M210.21,-93.27C191.12,-98.17 170.68,-103.43 152.21,-108.17"/>
<polygon fill="#63b8ff" stroke="#63b8ff" points="210.83,-96.46 219.65,-90.58 209.09,-89.68 210.83,-96.46"/>
</g>
<!-- Node4 -->
<g id="node4" class="node">
<title>Node4</title>
<g id="a_node4"><a xlink:href="classcppgc_1_1internal_1_1BasicCrossThreadPersistent.html#abb70613317d91b74292c7f20a5b52226" target="_top" xlink:title=" ">
<polygon fill="white" stroke="#666666" points="156.62,-90.12 23.62,-90.12 23.62,-59.62 156.62,-59.62 156.62,-90.12"/>
<text text-anchor="start" x="31.62" y="-76.62" font-family="Helvetica,sans-Serif" font-size="10.00">cppgc::internal::BasicCross</text>
<text text-anchor="middle" x="90.12" y="-65.38" font-family="Helvetica,sans-Serif" font-size="10.00">ThreadPersistent::Release</text>
</a>
</g>
</g>
<!-- Node2&#45;&gt;Node4 -->
<g id="edge3" class="edge">
<title>Node2&#45;&gt;Node4</title>
<path fill="none" stroke="#63b8ff" d="M205.01,-74.88C189.1,-74.88 172.47,-74.88 157,-74.88"/>
<polygon fill="#63b8ff" stroke="#63b8ff" points="204.88,-78.38 214.88,-74.88 204.88,-71.38 204.88,-78.38"/>
</g>
<!-- Node5 -->
<g id="node5" class="node">
<title>Node5</title>
<g id="a_node5"><a xlink:href="classcppgc_1_1internal_1_1BasicCrossThreadPersistent.html#a4a9f99e98580ac06fdcdfbab0eae4977" target="_top" xlink:title=" ">
<polygon fill="white" stroke="#666666" points="180.25,-41.75 0,-41.75 0,0 180.25,0 180.25,-41.75"/>
<text text-anchor="start" x="8" y="-28.25" font-family="Helvetica,sans-Serif" font-size="10.00">cppgc::internal::BasicCross</text>
<text text-anchor="start" x="8" y="-17" font-family="Helvetica,sans-Serif" font-size="10.00">ThreadPersistent::~BasicCrossThread</text>
<text text-anchor="middle" x="90.12" y="-5.75" font-family="Helvetica,sans-Serif" font-size="10.00">Persistent</text>
</a>
</g>
</g>
<!-- Node2&#45;&gt;Node5 -->
<g id="edge4" class="edge">
<title>Node2&#45;&gt;Node5</title>
<path fill="none" stroke="#63b8ff" d="M216.06,-56.27C200.1,-51.74 182.9,-46.87 166.52,-42.23"/>
<polygon fill="#63b8ff" stroke="#63b8ff" points="214.78,-59.83 225.36,-59.18 216.69,-53.09 214.78,-59.83"/>
</g>
</g>
</svg>
