<?xml version="1.0" encoding="UTF-8" standalone="no"?>
<!DOCTYPE svg PUBLIC "-//W3C//DTD SVG 1.1//EN"
 "http://www.w3.org/Graphics/SVG/1.1/DTD/svg11.dtd">
<!-- Generated by graphviz version 8.0.5 (20230430.1635)
 -->
<!-- Title: cppgc::internal::BasicCrossThreadPersistent::Release Pages: 1 -->
<svg width="484pt" height="235pt"
 viewBox="0.00 0.00 484.25 234.50" xmlns="http://www.w3.org/2000/svg" xmlns:xlink="http://www.w3.org/1999/xlink">
<g id="graph0" class="graph" transform="scale(1 1) rotate(0) translate(4 230.5)">
<title>cppgc::internal::BasicCrossThreadPersistent::Release</title>
<!-- Node1 -->
<g id="node1" class="node">
<title>Node1</title>
<g id="a_node1"><a xlink:title=" ">
<polygon fill="#999999" stroke="#666666" points="133,-78.5 0,-78.5 0,-48 133,-48 133,-78.5"/>
<text text-anchor="start" x="8" y="-65" font-family="Helvetica,sans-Serif" font-size="10.00">cppgc::internal::BasicCross</text>
<text text-anchor="middle" x="66.5" y="-53.75" font-family="Helvetica,sans-Serif" font-size="10.00">ThreadPersistent::Release</text>
</a>
</g>
</g>
<!-- Node2 -->
<g id="node2" class="node">
<title>Node2</title>
<g id="a_node2"><a xlink:href="classcppgc_1_1internal_1_1BasicCrossThreadPersistent.html#a4101c15a02138c88ea1d29ef95b10b34" target="_top" xlink:title=" ">
<polygon fill="white" stroke="#666666" points="302,-115.5 169,-115.5 169,-85 302,-85 302,-115.5"/>
<text text-anchor="start" x="177" y="-102" font-family="Helvetica,sans-Serif" font-size="10.00">cppgc::internal::BasicCross</text>
<text text-anchor="middle" x="235.5" y="-90.75" font-family="Helvetica,sans-Serif" font-size="10.00">ThreadPersistent::Clear</text>
</a>
</g>
</g>
<!-- Node1&#45;&gt;Node2 -->
<g id="edge1" class="edge">
<title>Node1&#45;&gt;Node2</title>
<path fill="none" stroke="#63b8ff" d="M133.02,-77.77C141.25,-79.59 149.72,-81.47 158.09,-83.32"/>
<polygon fill="#63b8ff" stroke="#63b8ff" points="157.1,-86.91 167.62,-85.65 158.61,-80.07 157.1,-86.91"/>
</g>
<!-- Node8 -->
<g id="node8" class="node">
<title>Node8</title>
<g id="a_node8"><a xlink:href="classcppgc_1_1internal_1_1BasicCrossThreadPersistent.html#a11303453def5b5179a064fa1a9c35988" target="_top" xlink:title=" ">
<polygon fill="white" stroke="#666666" points="302,-54.5 169,-54.5 169,-24 302,-24 302,-54.5"/>
<text text-anchor="start" x="177" y="-41" font-family="Helvetica,sans-Serif" font-size="10.00">cppgc::internal::BasicCross</text>
<text text-anchor="middle" x="235.5" y="-29.75" font-family="Helvetica,sans-Serif" font-size="10.00">ThreadPersistent::Get</text>
</a>
</g>
</g>
<!-- Node1&#45;&gt;Node8 -->
<g id="edge7" class="edge">
<title>Node1&#45;&gt;Node8</title>
<path fill="none" stroke="#63b8ff" d="M133.02,-53.83C141.16,-52.66 149.53,-51.46 157.81,-50.27"/>
<polygon fill="#63b8ff" stroke="#63b8ff" points="158.22,-53.61 167.62,-48.72 157.22,-46.68 158.22,-53.61"/>
</g>
<!-- Node3 -->
<g id="node3" class="node">
<title>Node3</title>
<g id="a_node3"><a xlink:href="classcppgc_1_1internal_1_1CrossThreadPersistentRegion.html#a2ea5f1dee7fd750ada5d3d29e80871b3" target="_top" xlink:title=" ">
<polygon fill="white" stroke="#666666" points="476.25,-226.5 338,-226.5 338,-196 476.25,-196 476.25,-226.5"/>
<text text-anchor="start" x="346" y="-213" font-family="Helvetica,sans-Serif" font-size="10.00">cppgc::internal::CrossThread</text>
<text text-anchor="middle" x="407.12" y="-201.75" font-family="Helvetica,sans-Serif" font-size="10.00">PersistentRegion::FreeNode</text>
</a>
</g>
</g>
<!-- Node2&#45;&gt;Node3 -->
<g id="edge2" class="edge">
<title>Node2&#45;&gt;Node3</title>
<path fill="none" stroke="#63b8ff" d="M251.35,-115.82C270.05,-134.68 303.87,-166.38 338,-186.25 340.85,-187.91 343.82,-189.49 346.87,-190.99"/>
<polygon fill="#63b8ff" stroke="#63b8ff" points="345.25,-194.55 355.8,-195.51 348.15,-188.18 345.25,-194.55"/>
</g>
<!-- Node4 -->
<g id="node4" class="node">
<title>Node4</title>
<g id="a_node4"><a xlink:href="classcppgc_1_1internal_1_1PersistentBase.html#aa189d8229e1fd8cc2cfce363ade822c6" target="_top" xlink:title=" ">
<polygon fill="white" stroke="#666666" points="470.62,-177.5 343.62,-177.5 343.62,-147 470.62,-147 470.62,-177.5"/>
<text text-anchor="start" x="351.62" y="-164" font-family="Helvetica,sans-Serif" font-size="10.00">cppgc::internal::Persistent</text>
<text text-anchor="middle" x="407.12" y="-152.75" font-family="Helvetica,sans-Serif" font-size="10.00">Base::GetNode</text>
</a>
</g>
</g>
<!-- Node2&#45;&gt;Node4 -->
<g id="edge3" class="edge">
<title>Node2&#45;&gt;Node4</title>
<path fill="none" stroke="#63b8ff" d="M279.3,-115.9C301.62,-124.05 329.12,-134.1 352.81,-142.76"/>
<polygon fill="#63b8ff" stroke="#63b8ff" points="351.45,-146.36 362.04,-146.5 353.85,-139.78 351.45,-146.36"/>
</g>
<!-- Node5 -->
<g id="node5" class="node">
<title>Node5</title>
<g id="a_node5"><a xlink:href="classcppgc_1_1internal_1_1PersistentBase.html#a2fce9ff2e5e2e6e347e31dc1399c7acb" target="_top" xlink:title=" ">
<polygon fill="white" stroke="#666666" points="470.62,-30.5 343.62,-30.5 343.62,0 470.62,0 470.62,-30.5"/>
<text text-anchor="start" x="351.62" y="-17" font-family="Helvetica,sans-Serif" font-size="10.00">cppgc::internal::Persistent</text>
<text text-anchor="middle" x="407.12" y="-5.75" font-family="Helvetica,sans-Serif" font-size="10.00">Base::GetValue</text>
</a>
</g>
</g>
<!-- Node2&#45;&gt;Node5 -->
<g id="edge4" class="edge">
<title>Node2&#45;&gt;Node5</title>
<path fill="none" stroke="#63b8ff" d="M265.07,-84.56C276.62,-78.1 290.02,-70.45 302,-63.25 318.27,-53.47 320.99,-48.68 338,-40.25 341.7,-38.41 345.58,-36.64 349.52,-34.94"/>
<polygon fill="#63b8ff" stroke="#63b8ff" points="350.47,-37.92 358.38,-30.87 347.8,-31.45 350.47,-37.92"/>
</g>
<!-- Node6 -->
<g id="node6" class="node">
<title>Node6</title>
<g id="a_node6"><a xlink:href="classcppgc_1_1internal_1_1PersistentBase.html#af84e1d2f71c9cbd3f0a4424339c725cb" target="_top" xlink:title=" ">
<polygon fill="white" stroke="#666666" points="470.62,-128.5 343.62,-128.5 343.62,-98 470.62,-98 470.62,-128.5"/>
<text text-anchor="start" x="351.62" y="-115" font-family="Helvetica,sans-Serif" font-size="10.00">cppgc::internal::Persistent</text>
<text text-anchor="middle" x="407.12" y="-103.75" font-family="Helvetica,sans-Serif" font-size="10.00">Base::SetNode</text>
</a>
</g>
</g>
<!-- Node2&#45;&gt;Node6 -->
<g id="edge5" class="edge">
<title>Node2&#45;&gt;Node6</title>
<path fill="none" stroke="#63b8ff" d="M302.08,-105.28C312.01,-106.04 322.31,-106.83 332.39,-107.6"/>
<polygon fill="#63b8ff" stroke="#63b8ff" points="331.99,-111.15 342.23,-108.43 332.52,-104.18 331.99,-111.15"/>
</g>
<!-- Node7 -->
<g id="node7" class="node">
<title>Node7</title>
<g id="a_node7"><a xlink:href="classcppgc_1_1internal_1_1PersistentBase.html#a697d2fa1fc753a2f2e8c479143d72995" target="_top" xlink:title=" ">
<polygon fill="white" stroke="#666666" points="470.62,-79.5 343.62,-79.5 343.62,-49 470.62,-49 470.62,-79.5"/>
<text text-anchor="start" x="351.62" y="-66" font-family="Helvetica,sans-Serif" font-size="10.00">cppgc::internal::Persistent</text>
<text text-anchor="middle" x="407.12" y="-54.75" font-family="Helvetica,sans-Serif" font-size="10.00">Base::SetValue</text>
</a>
</g>
</g>
<!-- Node2&#45;&gt;Node7 -->
<g id="edge6" class="edge">
<title>Node2&#45;&gt;Node7</title>
<path fill="none" stroke="#63b8ff" d="M302.08,-86.33C312.11,-84.2 322.53,-81.99 332.71,-79.83"/>
<polygon fill="#63b8ff" stroke="#63b8ff" points="333.17,-83.1 342.23,-77.6 331.72,-76.25 333.17,-83.1"/>
</g>
<!-- Node8&#45;&gt;Node5 -->
<g id="edge8" class="edge">
<title>Node8&#45;&gt;Node5</title>
<path fill="none" stroke="#63b8ff" d="M302.08,-29.97C312.01,-28.57 322.31,-27.11 332.39,-25.68"/>
<polygon fill="#63b8ff" stroke="#63b8ff" points="332.81,-29.02 342.23,-24.15 331.83,-22.09 332.81,-29.02"/>
</g>
</g>
</svg>
