<?xml version="1.0" encoding="UTF-8" standalone="no"?>
<!DOCTYPE svg PUBLIC "-//W3C//DTD SVG 1.1//EN"
 "http://www.w3.org/Graphics/SVG/1.1/DTD/svg11.dtd">
<!-- Generated by graphviz version 8.0.5 (20230430.1635)
 -->
<!-- Title: cppgc::internal::BasicCrossThreadPersistent::operator= Pages: 1 -->
<svg width="648pt" height="39pt"
 viewBox="0.00 0.00 648.00 38.50" xmlns="http://www.w3.org/2000/svg" xmlns:xlink="http://www.w3.org/1999/xlink">
<g id="graph0" class="graph" transform="scale(1 1) rotate(0) translate(4 34.5)">
<title>cppgc::internal::BasicCrossThreadPersistent::operator=</title>
<!-- Node1 -->
<g id="node1" class="node">
<title>Node1</title>
<g id="a_node1"><a xlink:title=" ">
<polygon fill="#999999" stroke="#666666" points="136,-30.5 0,-30.5 0,0 136,0 136,-30.5"/>
<text text-anchor="start" x="8" y="-17" font-family="Helvetica,sans-Serif" font-size="10.00">cppgc::internal::BasicCross</text>
<text text-anchor="middle" x="68" y="-5.75" font-family="Helvetica,sans-Serif" font-size="10.00">ThreadPersistent::operator=</text>
</a>
</g>
</g>
<!-- Node2 -->
<g id="node2" class="node">
<title>Node2</title>
<g id="a_node2"><a xlink:href="classcppgc_1_1internal_1_1BasicCrossThreadPersistent.html#ac0fd17a29487381e9c38a6f70267d4f2" target="_top" xlink:title=" ">
<polygon fill="white" stroke="#666666" points="308,-30.5 172,-30.5 172,0 308,0 308,-30.5"/>
<text text-anchor="start" x="180" y="-17" font-family="Helvetica,sans-Serif" font-size="10.00">cppgc::internal::BasicCross</text>
<text text-anchor="middle" x="240" y="-5.75" font-family="Helvetica,sans-Serif" font-size="10.00">ThreadPersistent::operator=</text>
</a>
</g>
</g>
<!-- Node1&#45;&gt;Node2 -->
<g id="edge1" class="edge">
<title>Node1&#45;&gt;Node2</title>
<path fill="none" stroke="#63b8ff" d="M136.19,-15.25C144.32,-15.25 152.68,-15.25 160.95,-15.25"/>
<polygon fill="#63b8ff" stroke="#63b8ff" points="160.74,-18.75 170.74,-15.25 160.74,-11.75 160.74,-18.75"/>
</g>
<!-- Node3 -->
<g id="node3" class="node">
<title>Node3</title>
<g id="a_node3"><a xlink:href="classcppgc_1_1internal_1_1BasicCrossThreadPersistent.html#a11303453def5b5179a064fa1a9c35988" target="_top" xlink:title=" ">
<polygon fill="white" stroke="#666666" points="477,-30.5 344,-30.5 344,0 477,0 477,-30.5"/>
<text text-anchor="start" x="352" y="-17" font-family="Helvetica,sans-Serif" font-size="10.00">cppgc::internal::BasicCross</text>
<text text-anchor="middle" x="410.5" y="-5.75" font-family="Helvetica,sans-Serif" font-size="10.00">ThreadPersistent::Get</text>
</a>
</g>
</g>
<!-- Node2&#45;&gt;Node3 -->
<g id="edge2" class="edge">
<title>Node2&#45;&gt;Node3</title>
<path fill="none" stroke="#63b8ff" d="M308.08,-15.25C316.25,-15.25 324.64,-15.25 332.93,-15.25"/>
<polygon fill="#63b8ff" stroke="#63b8ff" points="332.75,-18.75 342.75,-15.25 332.75,-11.75 332.75,-18.75"/>
</g>
<!-- Node4 -->
<g id="node4" class="node">
<title>Node4</title>
<g id="a_node4"><a xlink:href="classcppgc_1_1internal_1_1PersistentBase.html#a2fce9ff2e5e2e6e347e31dc1399c7acb" target="_top" xlink:title=" ">
<polygon fill="white" stroke="#666666" points="640,-30.5 513,-30.5 513,0 640,0 640,-30.5"/>
<text text-anchor="start" x="521" y="-17" font-family="Helvetica,sans-Serif" font-size="10.00">cppgc::internal::Persistent</text>
<text text-anchor="middle" x="576.5" y="-5.75" font-family="Helvetica,sans-Serif" font-size="10.00">Base::GetValue</text>
</a>
</g>
</g>
<!-- Node3&#45;&gt;Node4 -->
<g id="edge3" class="edge">
<title>Node3&#45;&gt;Node4</title>
<path fill="none" stroke="#63b8ff" d="M477.26,-15.25C485.29,-15.25 493.53,-15.25 501.66,-15.25"/>
<polygon fill="#63b8ff" stroke="#63b8ff" points="501.66,-18.75 511.66,-15.25 501.66,-11.75 501.66,-18.75"/>
</g>
</g>
</svg>
