<?xml version="1.0" encoding="UTF-8" standalone="no"?>
<!DOCTYPE svg PUBLIC "-//W3C//DTD SVG 1.1//EN"
 "http://www.w3.org/Graphics/SVG/1.1/DTD/svg11.dtd">
<!-- Generated by graphviz version 8.0.5 (20230430.1635)
 -->
<!-- Title: include/cppgc/member.h Pages: 1 -->
<svg width="1048pt" height="337pt"
 viewBox="0.00 0.00 1048.00 337.25" xmlns="http://www.w3.org/2000/svg" xmlns:xlink="http://www.w3.org/1999/xlink">
<g id="graph0" class="graph" transform="scale(1 1) rotate(0) translate(4 333.25)">
<title>include/cppgc/member.h</title>
<!-- Node1 -->
<g id="node1" class="node">
<title>Node1</title>
<g id="a_node1"><a xlink:title=" ">
<polygon fill="#999999" stroke="#666666" points="626.88,-329.25 505.12,-329.25 505.12,-310 626.88,-310 626.88,-329.25"/>
<text text-anchor="middle" x="566" y="-315.75" font-family="Helvetica,sans-Serif" font-size="10.00">include/cppgc/member.h</text>
</a>
</g>
</g>
<!-- Node2 -->
<g id="node2" class="node">
<title>Node2</title>
<g id="a_node2"><a xlink:title=" ">
<polygon fill="#e0e0e0" stroke="#999999" points="73.62,-74.5 28.38,-74.5 28.38,-55.25 73.62,-55.25 73.62,-74.5"/>
<text text-anchor="middle" x="51" y="-61" font-family="Helvetica,sans-Serif" font-size="10.00">atomic</text>
</a>
</g>
</g>
<!-- Node1&#45;&gt;Node2 -->
<g id="edge1" class="edge">
<title>Node1&#45;&gt;Node2</title>
<path fill="none" stroke="#63b8ff" d="M504.8,-316.63C440.9,-312.99 338.55,-302.76 255,-274 198.81,-254.66 181.76,-248.77 139,-207.5 100.77,-170.6 72.12,-113.81 58.97,-84.62"/>
<polygon fill="#63b8ff" stroke="#63b8ff" points="61.92,-83.63 54.7,-75.88 55.51,-86.44 61.92,-83.63"/>
</g>
<!-- Node3 -->
<g id="node3" class="node">
<title>Node3</title>
<g id="a_node3"><a xlink:title=" ">
<polygon fill="#e0e0e0" stroke="#999999" points="94.12,-19.25 45.88,-19.25 45.88,0 94.12,0 94.12,-19.25"/>
<text text-anchor="middle" x="70" y="-5.75" font-family="Helvetica,sans-Serif" font-size="10.00">cstddef</text>
</a>
</g>
</g>
<!-- Node1&#45;&gt;Node3 -->
<g id="edge2" class="edge">
<title>Node1&#45;&gt;Node3</title>
<path fill="none" stroke="#63b8ff" d="M504.89,-317.9C358.54,-314.52 0,-295.78 0,-193.25 0,-193.25 0,-193.25 0,-124.75 0,-92.73 2.01,-82.39 19,-55.25 26.17,-43.8 37.17,-33.64 47.12,-25.92"/>
<polygon fill="#63b8ff" stroke="#63b8ff" points="48.82,-28.28 54.83,-19.55 44.69,-22.63 48.82,-28.28"/>
</g>
<!-- Node4 -->
<g id="node4" class="node">
<title>Node4</title>
<g id="a_node4"><a xlink:title=" ">
<polygon fill="#e0e0e0" stroke="#999999" points="764.5,-19.25 703.5,-19.25 703.5,0 764.5,0 764.5,-19.25"/>
<text text-anchor="middle" x="734" y="-5.75" font-family="Helvetica,sans-Serif" font-size="10.00">type_traits</text>
</a>
</g>
</g>
<!-- Node1&#45;&gt;Node4 -->
<g id="edge3" class="edge">
<title>Node1&#45;&gt;Node4</title>
<path fill="none" stroke="#63b8ff" d="M627,-315.28C755.02,-306.58 1040,-277.73 1040,-193.25 1040,-193.25 1040,-193.25 1040,-124.75 1040,-79.63 1006.19,-75.77 966,-55.25 904.62,-23.91 823.86,-14.49 775.61,-11.71"/>
<polygon fill="#63b8ff" stroke="#63b8ff" points="775.83,-8.17 765.66,-11.16 775.48,-15.16 775.83,-8.17"/>
</g>
<!-- Node5 -->
<g id="node5" class="node">
<title>Node5</title>
<g id="a_node5"><a xlink:href="pointer-policies_8h.html" target="_top" xlink:title=" ">
<polygon fill="white" stroke="#666666" points="620.5,-274 511.5,-274 511.5,-243.5 620.5,-243.5 620.5,-274"/>
<text text-anchor="start" x="519.5" y="-260.5" font-family="Helvetica,sans-Serif" font-size="10.00">cppgc/internal/pointer</text>
<text text-anchor="middle" x="566" y="-249.25" font-family="Helvetica,sans-Serif" font-size="10.00">&#45;policies.h</text>
</a>
</g>
</g>
<!-- Node1&#45;&gt;Node5 -->
<g id="edge4" class="edge">
<title>Node1&#45;&gt;Node5</title>
<path fill="none" stroke="#63b8ff" d="M566,-309.68C566,-303.15 566,-293.95 566,-285.22"/>
<polygon fill="#63b8ff" stroke="#63b8ff" points="569.5,-285.28 566,-275.28 562.5,-285.28 569.5,-285.28"/>
</g>
<!-- Node9 -->
<g id="node9" class="node">
<title>Node9</title>
<g id="a_node9"><a xlink:href="v8config_8h.html" target="_top" xlink:title=" ">
<polygon fill="white" stroke="#666666" points="555.75,-74.5 496.25,-74.5 496.25,-55.25 555.75,-55.25 555.75,-74.5"/>
<text text-anchor="middle" x="526" y="-61" font-family="Helvetica,sans-Serif" font-size="10.00">v8config.h</text>
</a>
</g>
</g>
<!-- Node1&#45;&gt;Node9 -->
<g id="edge33" class="edge">
<title>Node1&#45;&gt;Node9</title>
<path fill="none" stroke="#63b8ff" d="M585.41,-309.65C599.6,-302.1 618.18,-289.98 629,-274 670.52,-212.69 704.37,-170.51 661,-110.5 639.66,-80.97 598.05,-70.66 566.64,-67.22"/>
<polygon fill="#63b8ff" stroke="#63b8ff" points="567.28,-63.67 557,-66.27 566.65,-70.64 567.28,-63.67"/>
</g>
<!-- Node14 -->
<g id="node14" class="node">
<title>Node14</title>
<g id="a_node14"><a xlink:href="sentinel-pointer_8h.html" target="_top" xlink:title=" ">
<polygon fill="white" stroke="#666666" points="974.38,-135.38 855.62,-135.38 855.62,-116.12 974.38,-116.12 974.38,-135.38"/>
<text text-anchor="middle" x="915" y="-121.88" font-family="Helvetica,sans-Serif" font-size="10.00">cppgc/sentinel&#45;pointer.h</text>
</a>
</g>
</g>
<!-- Node1&#45;&gt;Node14 -->
<g id="edge31" class="edge">
<title>Node1&#45;&gt;Node14</title>
<path fill="none" stroke="#63b8ff" d="M600.1,-309.58C626.91,-301.84 664.8,-289.51 696,-274 774.67,-234.9 858.36,-171.76 895.41,-142.53"/>
<polygon fill="#63b8ff" stroke="#63b8ff" points="897.14,-144.83 902.79,-135.87 892.78,-139.35 897.14,-144.83"/>
</g>
<!-- Node16 -->
<g id="node16" class="node">
<title>Node16</title>
<g id="a_node16"><a xlink:href="type-traits_8h.html" target="_top" xlink:title=" ">
<polygon fill="white" stroke="#666666" points="186.75,-74.5 91.25,-74.5 91.25,-55.25 186.75,-55.25 186.75,-74.5"/>
<text text-anchor="middle" x="139" y="-61" font-family="Helvetica,sans-Serif" font-size="10.00">cppgc/type&#45;traits.h</text>
</a>
</g>
</g>
<!-- Node1&#45;&gt;Node16 -->
<g id="edge32" class="edge">
<title>Node1&#45;&gt;Node16</title>
<path fill="none" stroke="#63b8ff" d="M504.69,-311.06C425.64,-299.11 286.2,-270.4 184,-207.5 149.59,-186.32 136.81,-178.6 122,-141 114.67,-122.4 121.7,-99.9 128.82,-84.4"/>
<polygon fill="#63b8ff" stroke="#63b8ff" points="132.22,-86.43 133.58,-75.93 125.96,-83.29 132.22,-86.43"/>
</g>
<!-- Node5&#45;&gt;Node4 -->
<g id="edge6" class="edge">
<title>Node5&#45;&gt;Node4</title>
<path fill="none" stroke="#63b8ff" d="M620.62,-250.67C723.43,-236.1 939.32,-199.16 983,-141 1040.98,-63.79 860.58,-28.05 775.66,-15.8"/>
<polygon fill="#63b8ff" stroke="#63b8ff" points="776.22,-12.2 765.83,-14.29 775.25,-19.13 776.22,-12.2"/>
</g>
<!-- Node6 -->
<g id="node6" class="node">
<title>Node6</title>
<g id="a_node6"><a xlink:title=" ">
<polygon fill="#e0e0e0" stroke="#999999" points="893.62,-74.5 848.38,-74.5 848.38,-55.25 893.62,-55.25 893.62,-74.5"/>
<text text-anchor="middle" x="871" y="-61" font-family="Helvetica,sans-Serif" font-size="10.00">cstdint</text>
</a>
</g>
</g>
<!-- Node5&#45;&gt;Node6 -->
<g id="edge5" class="edge">
<title>Node5&#45;&gt;Node6</title>
<path fill="none" stroke="#63b8ff" d="M587.92,-243.23C614.73,-225.89 661.87,-196.77 705,-177 749.47,-156.62 768.83,-168.9 809,-141 831.06,-125.68 849.61,-100.45 860.52,-83.51"/>
<polygon fill="#63b8ff" stroke="#63b8ff" points="863.73,-85.97 866.02,-75.63 857.78,-82.28 863.73,-85.97"/>
</g>
<!-- Node7 -->
<g id="node7" class="node">
<title>Node7</title>
<g id="a_node7"><a xlink:href="write-barrier_8h.html" target="_top" xlink:title=" ">
<polygon fill="white" stroke="#666666" points="616.38,-207.5 515.62,-207.5 515.62,-177 616.38,-177 616.38,-207.5"/>
<text text-anchor="start" x="523.62" y="-194" font-family="Helvetica,sans-Serif" font-size="10.00">cppgc/internal/write</text>
<text text-anchor="middle" x="566" y="-182.75" font-family="Helvetica,sans-Serif" font-size="10.00">&#45;barrier.h</text>
</a>
</g>
</g>
<!-- Node5&#45;&gt;Node7 -->
<g id="edge7" class="edge">
<title>Node5&#45;&gt;Node7</title>
<path fill="none" stroke="#63b8ff" d="M566,-243.11C566,-235.86 566,-226.88 566,-218.56"/>
<polygon fill="#63b8ff" stroke="#63b8ff" points="569.5,-218.83 566,-208.83 562.5,-218.83 569.5,-218.83"/>
</g>
<!-- Node5&#45;&gt;Node9 -->
<g id="edge30" class="edge">
<title>Node5&#45;&gt;Node9</title>
<path fill="none" stroke="#63b8ff" d="M540.08,-243.11C527.6,-234.51 513.88,-222.4 507,-207.5 488.17,-166.72 505.48,-112.78 517.23,-84.7"/>
<polygon fill="#63b8ff" stroke="#63b8ff" points="520.82,-86.22 521.66,-75.66 514.42,-83.4 520.82,-86.22"/>
</g>
<!-- Node5&#45;&gt;Node14 -->
<g id="edge25" class="edge">
<title>Node5&#45;&gt;Node14</title>
<path fill="none" stroke="#63b8ff" d="M605.02,-243.1C673.76,-217.3 815.35,-164.15 880.64,-139.65"/>
<polygon fill="#63b8ff" stroke="#63b8ff" points="881.68,-142.62 889.81,-135.83 879.22,-136.07 881.68,-142.62"/>
</g>
<!-- Node5&#45;&gt;Node16 -->
<g id="edge29" class="edge">
<title>Node5&#45;&gt;Node16</title>
<path fill="none" stroke="#63b8ff" d="M511.12,-251.46C404.81,-237.99 177.35,-202.49 133,-141 121.31,-124.79 125.7,-101.18 131.15,-84.77"/>
<polygon fill="#63b8ff" stroke="#63b8ff" points="134.68,-86.33 134.91,-75.74 128.12,-83.88 134.68,-86.33"/>
</g>
<!-- Node17 -->
<g id="node17" class="node">
<title>Node17</title>
<g id="a_node17"><a xlink:href="source-location_8h.html" target="_top" xlink:title=" ">
<polygon fill="white" stroke="#666666" points="460.38,-201.88 341.62,-201.88 341.62,-182.62 460.38,-182.62 460.38,-201.88"/>
<text text-anchor="middle" x="401" y="-188.38" font-family="Helvetica,sans-Serif" font-size="10.00">cppgc/source&#45;location.h</text>
</a>
</g>
</g>
<!-- Node5&#45;&gt;Node17 -->
<g id="edge26" class="edge">
<title>Node5&#45;&gt;Node17</title>
<path fill="none" stroke="#63b8ff" d="M528.56,-243.11C500.19,-232.02 461.56,-216.92 434.27,-206.25"/>
<polygon fill="#63b8ff" stroke="#63b8ff" points="435.64,-202.64 425.05,-202.26 433.09,-209.16 435.64,-202.64"/>
</g>
<!-- Node8 -->
<g id="node8" class="node">
<title>Node8</title>
<g id="a_node8"><a xlink:href="heap-state_8h.html" target="_top" xlink:title=" ">
<polygon fill="white" stroke="#666666" points="652.25,-135.38 553.75,-135.38 553.75,-116.12 652.25,-116.12 652.25,-135.38"/>
<text text-anchor="middle" x="603" y="-121.88" font-family="Helvetica,sans-Serif" font-size="10.00">cppgc/heap&#45;state.h</text>
</a>
</g>
</g>
<!-- Node7&#45;&gt;Node8 -->
<g id="edge8" class="edge">
<title>Node7&#45;&gt;Node8</title>
<path fill="none" stroke="#63b8ff" d="M574.4,-176.61C579.78,-167.23 586.8,-154.99 592.54,-144.98"/>
<polygon fill="#63b8ff" stroke="#63b8ff" points="596,-146.99 597.94,-136.57 589.93,-143.51 596,-146.99"/>
</g>
<!-- Node7&#45;&gt;Node9 -->
<g id="edge24" class="edge">
<title>Node7&#45;&gt;Node9</title>
<path fill="none" stroke="#63b8ff" d="M559.16,-176.52C554.74,-166.62 549.07,-153.2 545,-141 538.82,-122.47 533.54,-100.79 530.13,-85.5"/>
<polygon fill="#63b8ff" stroke="#63b8ff" points="533.34,-84.82 527.81,-75.79 526.5,-86.3 533.34,-84.82"/>
</g>
<!-- Node10 -->
<g id="node10" class="node">
<title>Node10</title>
<g id="a_node10"><a xlink:href="api-constants_8h.html" target="_top" xlink:title=" ">
<polygon fill="white" stroke="#666666" points="800.25,-141 707.75,-141 707.75,-110.5 800.25,-110.5 800.25,-141"/>
<text text-anchor="start" x="715.75" y="-127.5" font-family="Helvetica,sans-Serif" font-size="10.00">cppgc/internal/api</text>
<text text-anchor="middle" x="754" y="-116.25" font-family="Helvetica,sans-Serif" font-size="10.00">&#45;constants.h</text>
</a>
</g>
</g>
<!-- Node7&#45;&gt;Node10 -->
<g id="edge10" class="edge">
<title>Node7&#45;&gt;Node10</title>
<path fill="none" stroke="#63b8ff" d="M608.66,-176.61C636.09,-167.2 671.92,-154.91 701.15,-144.88"/>
<polygon fill="#63b8ff" stroke="#63b8ff" points="701.86,-148 710.18,-141.44 699.59,-141.37 701.86,-148"/>
</g>
<!-- Node13 -->
<g id="node13" class="node">
<title>Node13</title>
<g id="a_node13"><a xlink:href="atomic-entry-flag_8h.html" target="_top" xlink:title=" ">
<polygon fill="white" stroke="#666666" points="309.5,-141 200.5,-141 200.5,-110.5 309.5,-110.5 309.5,-141"/>
<text text-anchor="start" x="208.5" y="-127.5" font-family="Helvetica,sans-Serif" font-size="10.00">cppgc/internal/atomic</text>
<text text-anchor="middle" x="255" y="-116.25" font-family="Helvetica,sans-Serif" font-size="10.00">&#45;entry&#45;flag.h</text>
</a>
</g>
</g>
<!-- Node7&#45;&gt;Node13 -->
<g id="edge14" class="edge">
<title>Node7&#45;&gt;Node13</title>
<path fill="none" stroke="#63b8ff" d="M515.33,-181.22C467.6,-171.72 393.83,-156.86 320.19,-141.23"/>
<polygon fill="#63b8ff" stroke="#63b8ff" points="321.31,-137.68 310.8,-139.02 319.85,-144.53 321.31,-137.68"/>
</g>
<!-- Node7&#45;&gt;Node14 -->
<g id="edge16" class="edge">
<title>Node7&#45;&gt;Node14</title>
<path fill="none" stroke="#63b8ff" d="M616.75,-181.87C680.09,-170.16 788.27,-150.17 855.46,-137.75"/>
<polygon fill="#63b8ff" stroke="#63b8ff" points="855.69,-141.09 864.88,-135.83 854.41,-134.2 855.69,-141.09"/>
</g>
<!-- Node15 -->
<g id="node15" class="node">
<title>Node15</title>
<g id="a_node15"><a xlink:href="trace-trait_8h.html" target="_top" xlink:title=" ">
<polygon fill="white" stroke="#666666" points="422,-135.38 328,-135.38 328,-116.12 422,-116.12 422,-135.38"/>
<text text-anchor="middle" x="375" y="-121.88" font-family="Helvetica,sans-Serif" font-size="10.00">cppgc/trace&#45;trait.h</text>
</a>
</g>
</g>
<!-- Node7&#45;&gt;Node15 -->
<g id="edge18" class="edge">
<title>Node7&#45;&gt;Node15</title>
<path fill="none" stroke="#63b8ff" d="M522.66,-176.61C489.33,-165.36 443.79,-149.98 412.13,-139.29"/>
<polygon fill="#63b8ff" stroke="#63b8ff" points="413.55,-135.74 402.96,-135.85 411.31,-142.37 413.55,-135.74"/>
</g>
<!-- Node8&#45;&gt;Node9 -->
<g id="edge9" class="edge">
<title>Node8&#45;&gt;Node9</title>
<path fill="none" stroke="#63b8ff" d="M591.31,-115.81C579.43,-106.73 560.81,-92.49 546.48,-81.54"/>
<polygon fill="#63b8ff" stroke="#63b8ff" points="548.87,-78.19 538.8,-74.9 544.62,-83.76 548.87,-78.19"/>
</g>
<!-- Node10&#45;&gt;Node9 -->
<g id="edge13" class="edge">
<title>Node10&#45;&gt;Node9</title>
<path fill="none" stroke="#63b8ff" d="M707.31,-112.69C665.87,-101.99 605.94,-86.52 566.49,-76.33"/>
<polygon fill="#63b8ff" stroke="#63b8ff" points="567.49,-72.72 556.94,-73.6 565.74,-79.49 567.49,-72.72"/>
</g>
<!-- Node11 -->
<g id="node11" class="node">
<title>Node11</title>
<g id="a_node11"><a xlink:title=" ">
<polygon fill="#e0e0e0" stroke="#999999" points="717.25,-74.5 666.75,-74.5 666.75,-55.25 717.25,-55.25 717.25,-74.5"/>
<text text-anchor="middle" x="692" y="-61" font-family="Helvetica,sans-Serif" font-size="10.00">stddef.h</text>
</a>
</g>
</g>
<!-- Node10&#45;&gt;Node11 -->
<g id="edge11" class="edge">
<title>Node10&#45;&gt;Node11</title>
<path fill="none" stroke="#63b8ff" d="M738.67,-110.2C729.78,-101.75 718.55,-91.08 709.33,-82.33"/>
<polygon fill="#63b8ff" stroke="#63b8ff" points="712.22,-80.3 702.56,-75.95 707.4,-85.38 712.22,-80.3"/>
</g>
<!-- Node12 -->
<g id="node12" class="node">
<title>Node12</title>
<g id="a_node12"><a xlink:title=" ">
<polygon fill="#e0e0e0" stroke="#999999" points="782.75,-74.5 735.25,-74.5 735.25,-55.25 782.75,-55.25 782.75,-74.5"/>
<text text-anchor="middle" x="759" y="-61" font-family="Helvetica,sans-Serif" font-size="10.00">stdint.h</text>
</a>
</g>
</g>
<!-- Node10&#45;&gt;Node12 -->
<g id="edge12" class="edge">
<title>Node10&#45;&gt;Node12</title>
<path fill="none" stroke="#63b8ff" d="M755.24,-110.2C755.86,-102.87 756.62,-93.87 757.3,-85.91"/>
<polygon fill="#63b8ff" stroke="#63b8ff" points="760.87,-86.21 758.23,-75.95 753.9,-85.62 760.87,-86.21"/>
</g>
<!-- Node13&#45;&gt;Node2 -->
<g id="edge15" class="edge">
<title>Node13&#45;&gt;Node2</title>
<path fill="none" stroke="#63b8ff" d="M204.05,-110.05C166.62,-99.24 116.84,-84.88 84.37,-75.5"/>
<polygon fill="#63b8ff" stroke="#63b8ff" points="85.64,-71.94 75.06,-72.53 83.7,-78.67 85.64,-71.94"/>
</g>
<!-- Node14&#45;&gt;Node6 -->
<g id="edge17" class="edge">
<title>Node14&#45;&gt;Node6</title>
<path fill="none" stroke="#63b8ff" d="M908.32,-115.81C901.92,-107.25 892.1,-94.1 884.13,-83.45"/>
<polygon fill="#63b8ff" stroke="#63b8ff" points="886.54,-81.82 877.75,-75.9 880.93,-86.01 886.54,-81.82"/>
</g>
<!-- Node15&#45;&gt;Node4 -->
<g id="edge19" class="edge">
<title>Node15&#45;&gt;Node4</title>
<path fill="none" stroke="#63b8ff" d="M386.32,-115.67C405.71,-100.61 447.06,-70.61 487,-55.25 556.2,-28.64 642.51,-17.69 692.63,-13.34"/>
<polygon fill="#63b8ff" stroke="#63b8ff" points="692.68,-16.76 702.36,-12.46 692.11,-9.79 692.68,-16.76"/>
</g>
<!-- Node15&#45;&gt;Node9 -->
<g id="edge23" class="edge">
<title>Node15&#45;&gt;Node9</title>
<path fill="none" stroke="#63b8ff" d="M398.26,-115.68C423.53,-105.83 464.12,-90 492.75,-78.84"/>
<polygon fill="#63b8ff" stroke="#63b8ff" points="493.67,-81.85 501.71,-74.96 491.12,-75.33 493.67,-81.85"/>
</g>
<!-- Node15&#45;&gt;Node16 -->
<g id="edge20" class="edge">
<title>Node15&#45;&gt;Node16</title>
<path fill="none" stroke="#63b8ff" d="M338.82,-115.7C331.91,-113.97 324.73,-112.18 318,-110.5 273.03,-99.27 221.7,-86.48 185.58,-77.48"/>
<polygon fill="#63b8ff" stroke="#63b8ff" points="186.89,-73.95 176.34,-74.93 185.2,-80.74 186.89,-73.95"/>
</g>
<!-- Node16&#45;&gt;Node3 -->
<g id="edge21" class="edge">
<title>Node16&#45;&gt;Node3</title>
<path fill="none" stroke="#63b8ff" d="M127.3,-54.84C117.12,-46.99 102.17,-35.45 90.08,-26.12"/>
<polygon fill="#63b8ff" stroke="#63b8ff" points="92.59,-22.86 82.53,-19.52 88.31,-28.41 92.59,-22.86"/>
</g>
<!-- Node16&#45;&gt;Node4 -->
<g id="edge22" class="edge">
<title>Node16&#45;&gt;Node4</title>
<path fill="none" stroke="#63b8ff" d="M187.19,-59.56C301.15,-49.36 585.68,-23.9 692.55,-14.33"/>
<polygon fill="#63b8ff" stroke="#63b8ff" points="692.57,-17.76 702.22,-13.38 691.95,-10.79 692.57,-17.76"/>
</g>
<!-- Node17&#45;&gt;Node9 -->
<g id="edge28" class="edge">
<title>Node17&#45;&gt;Node9</title>
<path fill="none" stroke="#63b8ff" d="M408.33,-182.43C421.11,-167.22 448.55,-135.3 474,-110.5 484.31,-100.46 496.48,-89.94 506.46,-81.64"/>
<polygon fill="#63b8ff" stroke="#63b8ff" points="508.38,-83.77 513.89,-74.72 503.94,-78.36 508.38,-83.77"/>
</g>
<!-- Node18 -->
<g id="node18" class="node">
<title>Node18</title>
<g id="a_node18"><a xlink:title=" ">
<polygon fill="#e0e0e0" stroke="#999999" points="182,-135.38 142,-135.38 142,-116.12 182,-116.12 182,-135.38"/>
<text text-anchor="middle" x="162" y="-121.88" font-family="Helvetica,sans-Serif" font-size="10.00">string</text>
</a>
</g>
</g>
<!-- Node17&#45;&gt;Node18 -->
<g id="edge27" class="edge">
<title>Node17&#45;&gt;Node18</title>
<path fill="none" stroke="#63b8ff" d="M349.15,-182.17C306.07,-173.85 243.55,-159.93 191,-141 190.25,-140.73 189.49,-140.44 188.73,-140.15"/>
<polygon fill="#63b8ff" stroke="#63b8ff" points="190.46,-136.65 179.9,-135.83 187.65,-143.06 190.46,-136.65"/>
</g>
</g>
</svg>
