<?xml version="1.0" encoding="UTF-8" standalone="no"?>
<!DOCTYPE svg PUBLIC "-//W3C//DTD SVG 1.1//EN"
 "http://www.w3.org/Graphics/SVG/1.1/DTD/svg11.dtd">
<!-- Generated by graphviz version 8.0.5 (20230430.1635)
 -->
<!-- Title: include/cppgc/internal/write&#45;barrier.h Pages: 1 -->
<svg width="608pt" height="216pt"
 viewBox="0.00 0.00 607.87 215.50" xmlns="http://www.w3.org/2000/svg" xmlns:xlink="http://www.w3.org/1999/xlink">
<g id="graph0" class="graph" transform="scale(1 1) rotate(0) translate(4 211.5)">
<title>include/cppgc/internal/write&#45;barrier.h</title>
<!-- Node1 -->
<g id="node1" class="node">
<title>Node1</title>
<g id="a_node1"><a xlink:title=" ">
<polygon fill="#999999" stroke="#666666" points="287.75,-207.5 177.25,-207.5 177.25,-177 287.75,-177 287.75,-207.5"/>
<text text-anchor="start" x="185.25" y="-194" font-family="Helvetica,sans-Serif" font-size="10.00">include/cppgc/internal</text>
<text text-anchor="middle" x="232.5" y="-182.75" font-family="Helvetica,sans-Serif" font-size="10.00">/write&#45;barrier.h</text>
</a>
</g>
</g>
<!-- Node2 -->
<g id="node2" class="node">
<title>Node2</title>
<g id="a_node2"><a xlink:href="heap-state_8h.html" target="_top" xlink:title=" ">
<polygon fill="white" stroke="#666666" points="112.75,-135.38 14.25,-135.38 14.25,-116.12 112.75,-116.12 112.75,-135.38"/>
<text text-anchor="middle" x="63.5" y="-121.88" font-family="Helvetica,sans-Serif" font-size="10.00">cppgc/heap&#45;state.h</text>
</a>
</g>
</g>
<!-- Node1&#45;&gt;Node2 -->
<g id="edge1" class="edge">
<title>Node1&#45;&gt;Node2</title>
<path fill="none" stroke="#63b8ff" d="M194.15,-176.61C164.96,-165.47 125.18,-150.29 97.2,-139.61"/>
<polygon fill="#63b8ff" stroke="#63b8ff" points="98.7,-136.06 88.11,-135.76 96.2,-142.6 98.7,-136.06"/>
</g>
<!-- Node3 -->
<g id="node3" class="node">
<title>Node3</title>
<g id="a_node3"><a xlink:href="v8config_8h.html" target="_top" xlink:title=" ">
<polygon fill="white" stroke="#666666" points="88.25,-74.5 28.75,-74.5 28.75,-55.25 88.25,-55.25 88.25,-74.5"/>
<text text-anchor="middle" x="58.5" y="-61" font-family="Helvetica,sans-Serif" font-size="10.00">v8config.h</text>
</a>
</g>
</g>
<!-- Node1&#45;&gt;Node3 -->
<g id="edge17" class="edge">
<title>Node1&#45;&gt;Node3</title>
<path fill="none" stroke="#63b8ff" d="M176.92,-186.78C116.77,-180.66 26.6,-167.28 5.5,-141 -2.99,-130.43 -0.22,-122.79 5.5,-110.5 11.19,-98.27 22.07,-88.19 32.49,-80.73"/>
<polygon fill="#63b8ff" stroke="#63b8ff" points="33.98,-83.28 40.4,-74.85 30.12,-77.44 33.98,-83.28"/>
</g>
<!-- Node4 -->
<g id="node4" class="node">
<title>Node4</title>
<g id="a_node4"><a xlink:href="api-constants_8h.html" target="_top" xlink:title=" ">
<polygon fill="white" stroke="#666666" points="223.75,-141 131.25,-141 131.25,-110.5 223.75,-110.5 223.75,-141"/>
<text text-anchor="start" x="139.25" y="-127.5" font-family="Helvetica,sans-Serif" font-size="10.00">cppgc/internal/api</text>
<text text-anchor="middle" x="177.5" y="-116.25" font-family="Helvetica,sans-Serif" font-size="10.00">&#45;constants.h</text>
</a>
</g>
</g>
<!-- Node1&#45;&gt;Node4 -->
<g id="edge3" class="edge">
<title>Node1&#45;&gt;Node4</title>
<path fill="none" stroke="#63b8ff" d="M220.02,-176.61C213.2,-168.61 204.6,-158.53 196.92,-149.53"/>
<polygon fill="#63b8ff" stroke="#63b8ff" points="199.08,-147.67 189.93,-142.33 193.76,-152.21 199.08,-147.67"/>
</g>
<!-- Node7 -->
<g id="node7" class="node">
<title>Node7</title>
<g id="a_node7"><a xlink:href="atomic-entry-flag_8h.html" target="_top" xlink:title=" ">
<polygon fill="white" stroke="#666666" points="463,-141 354,-141 354,-110.5 463,-110.5 463,-141"/>
<text text-anchor="start" x="362" y="-127.5" font-family="Helvetica,sans-Serif" font-size="10.00">cppgc/internal/atomic</text>
<text text-anchor="middle" x="408.5" y="-116.25" font-family="Helvetica,sans-Serif" font-size="10.00">&#45;entry&#45;flag.h</text>
</a>
</g>
</g>
<!-- Node1&#45;&gt;Node7 -->
<g id="edge7" class="edge">
<title>Node1&#45;&gt;Node7</title>
<path fill="none" stroke="#63b8ff" d="M272.44,-176.61C297.89,-167.29 331.08,-155.12 358.3,-145.15"/>
<polygon fill="#63b8ff" stroke="#63b8ff" points="359.23,-148.17 367.42,-141.44 356.82,-141.59 359.23,-148.17"/>
</g>
<!-- Node9 -->
<g id="node9" class="node">
<title>Node9</title>
<g id="a_node9"><a xlink:href="sentinel-pointer_8h.html" target="_top" xlink:title=" ">
<polygon fill="white" stroke="#666666" points="599.87,-135.38 481.12,-135.38 481.12,-116.12 599.87,-116.12 599.87,-135.38"/>
<text text-anchor="middle" x="540.5" y="-121.88" font-family="Helvetica,sans-Serif" font-size="10.00">cppgc/sentinel&#45;pointer.h</text>
</a>
</g>
</g>
<!-- Node1&#45;&gt;Node9 -->
<g id="edge9" class="edge">
<title>Node1&#45;&gt;Node9</title>
<path fill="none" stroke="#63b8ff" d="M287.92,-179.64C344.1,-167.88 430.47,-149.79 486.24,-138.11"/>
<polygon fill="#63b8ff" stroke="#63b8ff" points="486.89,-141.34 495.96,-135.87 485.46,-134.49 486.89,-141.34"/>
</g>
<!-- Node11 -->
<g id="node11" class="node">
<title>Node11</title>
<g id="a_node11"><a xlink:href="trace-trait_8h.html" target="_top" xlink:title=" ">
<polygon fill="white" stroke="#666666" points="335.5,-135.38 241.5,-135.38 241.5,-116.12 335.5,-116.12 335.5,-135.38"/>
<text text-anchor="middle" x="288.5" y="-121.88" font-family="Helvetica,sans-Serif" font-size="10.00">cppgc/trace&#45;trait.h</text>
</a>
</g>
</g>
<!-- Node1&#45;&gt;Node11 -->
<g id="edge11" class="edge">
<title>Node1&#45;&gt;Node11</title>
<path fill="none" stroke="#63b8ff" d="M245.21,-176.61C253.69,-166.84 264.88,-153.95 273.76,-143.73"/>
<polygon fill="#63b8ff" stroke="#63b8ff" points="276.93,-146.42 280.84,-136.57 271.64,-141.83 276.93,-146.42"/>
</g>
<!-- Node2&#45;&gt;Node3 -->
<g id="edge2" class="edge">
<title>Node2&#45;&gt;Node3</title>
<path fill="none" stroke="#63b8ff" d="M62.74,-115.81C62.06,-107.85 61.05,-95.94 60.19,-85.74"/>
<polygon fill="#63b8ff" stroke="#63b8ff" points="63.6,-85.57 59.27,-75.9 56.63,-86.16 63.6,-85.57"/>
</g>
<!-- Node4&#45;&gt;Node3 -->
<g id="edge6" class="edge">
<title>Node4&#45;&gt;Node3</title>
<path fill="none" stroke="#63b8ff" d="M147.78,-110.05C129.05,-100.78 105.01,-88.88 86.59,-79.77"/>
<polygon fill="#63b8ff" stroke="#63b8ff" points="88.26,-76.2 77.75,-74.9 85.16,-82.48 88.26,-76.2"/>
</g>
<!-- Node5 -->
<g id="node5" class="node">
<title>Node5</title>
<g id="a_node5"><a xlink:title=" ">
<polygon fill="#e0e0e0" stroke="#999999" points="222.75,-74.5 172.25,-74.5 172.25,-55.25 222.75,-55.25 222.75,-74.5"/>
<text text-anchor="middle" x="197.5" y="-61" font-family="Helvetica,sans-Serif" font-size="10.00">stddef.h</text>
</a>
</g>
</g>
<!-- Node4&#45;&gt;Node5 -->
<g id="edge4" class="edge">
<title>Node4&#45;&gt;Node5</title>
<path fill="none" stroke="#63b8ff" d="M182.44,-110.2C184.99,-102.7 188.13,-93.45 190.89,-85.35"/>
<polygon fill="#63b8ff" stroke="#63b8ff" points="194.51,-86.55 194.42,-75.95 187.89,-84.29 194.51,-86.55"/>
</g>
<!-- Node6 -->
<g id="node6" class="node">
<title>Node6</title>
<g id="a_node6"><a xlink:title=" ">
<polygon fill="#e0e0e0" stroke="#999999" points="154.25,-74.5 106.75,-74.5 106.75,-55.25 154.25,-55.25 154.25,-74.5"/>
<text text-anchor="middle" x="130.5" y="-61" font-family="Helvetica,sans-Serif" font-size="10.00">stdint.h</text>
</a>
</g>
</g>
<!-- Node4&#45;&gt;Node6 -->
<g id="edge5" class="edge">
<title>Node4&#45;&gt;Node6</title>
<path fill="none" stroke="#63b8ff" d="M165.88,-110.2C159.41,-102.09 151.32,-91.95 144.5,-83.41"/>
<polygon fill="#63b8ff" stroke="#63b8ff" points="146.72,-81.58 137.75,-75.95 141.25,-85.95 146.72,-81.58"/>
</g>
<!-- Node8 -->
<g id="node8" class="node">
<title>Node8</title>
<g id="a_node8"><a xlink:title=" ">
<polygon fill="#e0e0e0" stroke="#999999" points="438.12,-74.5 392.87,-74.5 392.87,-55.25 438.12,-55.25 438.12,-74.5"/>
<text text-anchor="middle" x="415.5" y="-61" font-family="Helvetica,sans-Serif" font-size="10.00">atomic</text>
</a>
</g>
</g>
<!-- Node7&#45;&gt;Node8 -->
<g id="edge8" class="edge">
<title>Node7&#45;&gt;Node8</title>
<path fill="none" stroke="#63b8ff" d="M410.23,-110.2C411.11,-102.78 412.2,-93.66 413.15,-85.63"/>
<polygon fill="#63b8ff" stroke="#63b8ff" points="416.72,-86.29 414.42,-75.95 409.76,-85.47 416.72,-86.29"/>
</g>
<!-- Node10 -->
<g id="node10" class="node">
<title>Node10</title>
<g id="a_node10"><a xlink:title=" ">
<polygon fill="#e0e0e0" stroke="#999999" points="563.12,-74.5 517.87,-74.5 517.87,-55.25 563.12,-55.25 563.12,-74.5"/>
<text text-anchor="middle" x="540.5" y="-61" font-family="Helvetica,sans-Serif" font-size="10.00">cstdint</text>
</a>
</g>
</g>
<!-- Node9&#45;&gt;Node10 -->
<g id="edge10" class="edge">
<title>Node9&#45;&gt;Node10</title>
<path fill="none" stroke="#63b8ff" d="M540.5,-115.81C540.5,-107.85 540.5,-95.94 540.5,-85.74"/>
<polygon fill="#63b8ff" stroke="#63b8ff" points="544,-85.9 540.5,-75.9 537,-85.9 544,-85.9"/>
</g>
<!-- Node11&#45;&gt;Node3 -->
<g id="edge16" class="edge">
<title>Node11&#45;&gt;Node3</title>
<path fill="none" stroke="#63b8ff" d="M253.07,-115.68C211.48,-105.03 142.66,-87.42 99,-76.24"/>
<polygon fill="#63b8ff" stroke="#63b8ff" points="100.03,-72.64 89.47,-73.55 98.29,-79.42 100.03,-72.64"/>
</g>
<!-- Node12 -->
<g id="node12" class="node">
<title>Node12</title>
<g id="a_node12"><a xlink:title=" ">
<polygon fill="#e0e0e0" stroke="#999999" points="393,-19.25 332,-19.25 332,0 393,0 393,-19.25"/>
<text text-anchor="middle" x="362.5" y="-5.75" font-family="Helvetica,sans-Serif" font-size="10.00">type_traits</text>
</a>
</g>
</g>
<!-- Node11&#45;&gt;Node12 -->
<g id="edge12" class="edge">
<title>Node11&#45;&gt;Node12</title>
<path fill="none" stroke="#63b8ff" d="M302.84,-115.75C315.87,-106.83 334.67,-92 345.5,-74.5 353.82,-61.05 358.11,-43.57 360.3,-30.3"/>
<polygon fill="#63b8ff" stroke="#63b8ff" points="363.88,-30.91 361.77,-20.53 356.95,-29.96 363.88,-30.91"/>
</g>
<!-- Node13 -->
<g id="node13" class="node">
<title>Node13</title>
<g id="a_node13"><a xlink:href="type-traits_8h.html" target="_top" xlink:title=" ">
<polygon fill="white" stroke="#666666" points="336.25,-74.5 240.75,-74.5 240.75,-55.25 336.25,-55.25 336.25,-74.5"/>
<text text-anchor="middle" x="288.5" y="-61" font-family="Helvetica,sans-Serif" font-size="10.00">cppgc/type&#45;traits.h</text>
</a>
</g>
</g>
<!-- Node11&#45;&gt;Node13 -->
<g id="edge13" class="edge">
<title>Node11&#45;&gt;Node13</title>
<path fill="none" stroke="#63b8ff" d="M288.5,-115.81C288.5,-107.85 288.5,-95.94 288.5,-85.74"/>
<polygon fill="#63b8ff" stroke="#63b8ff" points="292,-85.9 288.5,-75.9 285,-85.9 292,-85.9"/>
</g>
<!-- Node13&#45;&gt;Node12 -->
<g id="edge15" class="edge">
<title>Node13&#45;&gt;Node12</title>
<path fill="none" stroke="#63b8ff" d="M301.05,-54.84C312.07,-46.91 328.32,-35.22 341.34,-25.85"/>
<polygon fill="#63b8ff" stroke="#63b8ff" points="343.06,-28.21 349.13,-19.52 338.97,-22.52 343.06,-28.21"/>
</g>
<!-- Node14 -->
<g id="node14" class="node">
<title>Node14</title>
<g id="a_node14"><a xlink:title=" ">
<polygon fill="#e0e0e0" stroke="#999999" points="312.62,-19.25 264.37,-19.25 264.37,0 312.62,0 312.62,-19.25"/>
<text text-anchor="middle" x="288.5" y="-5.75" font-family="Helvetica,sans-Serif" font-size="10.00">cstddef</text>
</a>
</g>
</g>
<!-- Node13&#45;&gt;Node14 -->
<g id="edge14" class="edge">
<title>Node13&#45;&gt;Node14</title>
<path fill="none" stroke="#63b8ff" d="M288.5,-55.08C288.5,-48.42 288.5,-38.99 288.5,-30.53"/>
<polygon fill="#63b8ff" stroke="#63b8ff" points="292,-30.61 288.5,-20.61 285,-30.61 292,-30.61"/>
</g>
</g>
</svg>
