<?xml version="1.0" encoding="UTF-8" standalone="no"?>
<!DOCTYPE svg PUBLIC "-//W3C//DTD SVG 1.1//EN"
 "http://www.w3.org/Graphics/SVG/1.1/DTD/svg11.dtd">
<!-- Generated by graphviz version 8.0.5 (20230430.1635)
 -->
<!-- Title: v8::JSHeapConsistency::GetWriteBarrierType Pages: 1 -->
<svg width="291pt" height="88pt"
 viewBox="0.00 0.00 291.25 87.50" xmlns="http://www.w3.org/2000/svg" xmlns:xlink="http://www.w3.org/1999/xlink">
<g id="graph0" class="graph" transform="scale(1 1) rotate(0) translate(4 83.5)">
<title>v8::JSHeapConsistency::GetWriteBarrierType</title>
<!-- Node1 -->
<g id="node1" class="node">
<title>Node1</title>
<g id="a_node1"><a xlink:title=" ">
<polygon fill="#999999" stroke="#666666" points="119.5,-54.5 0,-54.5 0,-24 119.5,-24 119.5,-54.5"/>
<text text-anchor="start" x="8" y="-41" font-family="Helvetica,sans-Serif" font-size="10.00">v8::JSHeapConsistency</text>
<text text-anchor="middle" x="59.75" y="-29.75" font-family="Helvetica,sans-Serif" font-size="10.00">::GetWriteBarrierType</text>
</a>
</g>
</g>
<!-- Node2 -->
<g id="node2" class="node">
<title>Node2</title>
<g id="a_node2"><a xlink:href="classv8_1_1TracedReferenceBase.html#a5a565780ec778a93a76f27bbba252f21" target="_top" xlink:title=" ">
<polygon fill="white" stroke="#666666" points="283.25,-79.5 155.5,-79.5 155.5,-49 283.25,-49 283.25,-79.5"/>
<text text-anchor="start" x="163.5" y="-66" font-family="Helvetica,sans-Serif" font-size="10.00">v8::TracedReferenceBase</text>
<text text-anchor="middle" x="219.38" y="-54.75" font-family="Helvetica,sans-Serif" font-size="10.00">::IsEmpty</text>
</a>
</g>
</g>
<!-- Node1&#45;&gt;Node2 -->
<g id="edge1" class="edge">
<title>Node1&#45;&gt;Node2</title>
<path fill="none" stroke="#63b8ff" d="M119.89,-48.63C127.91,-49.9 136.22,-51.22 144.45,-52.53"/>
<polygon fill="#63b8ff" stroke="#63b8ff" points="143.79,-56.12 154.21,-54.23 144.88,-49.21 143.79,-56.12"/>
</g>
<!-- Node3 -->
<g id="node3" class="node">
<title>Node3</title>
<g id="a_node3"><a xlink:href="classcppgc_1_1subtle_1_1HeapState.html#a13c0404706b2726dbfda83770df88fd0" target="_top" xlink:title=" ">
<polygon fill="white" stroke="#666666" points="281.38,-30.5 157.38,-30.5 157.38,0 281.38,0 281.38,-30.5"/>
<text text-anchor="start" x="165.38" y="-17" font-family="Helvetica,sans-Serif" font-size="10.00">cppgc::subtle::HeapState</text>
<text text-anchor="middle" x="219.38" y="-5.75" font-family="Helvetica,sans-Serif" font-size="10.00">::IsMarking</text>
</a>
</g>
</g>
<!-- Node1&#45;&gt;Node3 -->
<g id="edge2" class="edge">
<title>Node1&#45;&gt;Node3</title>
<path fill="none" stroke="#63b8ff" d="M119.89,-30.25C128.52,-28.93 137.49,-27.56 146.35,-26.22"/>
<polygon fill="#63b8ff" stroke="#63b8ff" points="146.7,-29.55 156.06,-24.59 145.65,-22.63 146.7,-29.55"/>
</g>
</g>
</svg>
