<?xml version="1.0" encoding="UTF-8" standalone="no"?>
<!DOCTYPE svg PUBLIC "-//W3C//DTD SVG 1.1//EN"
 "http://www.w3.org/Graphics/SVG/1.1/DTD/svg11.dtd">
<!-- Generated by graphviz version 8.0.5 (20230430.1635)
 -->
<!-- Title: v8::metrics::GarbageCollectionFullCycle Pages: 1 -->
<svg width="320pt" height="218pt"
 viewBox="0.00 0.00 320.25 217.50" xmlns="http://www.w3.org/2000/svg" xmlns:xlink="http://www.w3.org/1999/xlink">
<g id="graph0" class="graph" transform="scale(1 1) rotate(0) translate(4 213.5)">
<title>v8::metrics::GarbageCollectionFullCycle</title>
<!-- Node1 -->
<g id="node1" class="node">
<title>Node1</title>
<g id="a_node1"><a xlink:title=" ">
<polygon fill="#999999" stroke="#666666" points="229.25,-30.5 82,-30.5 82,0 229.25,0 229.25,-30.5"/>
<text text-anchor="start" x="90" y="-17" font-family="Helvetica,sans-Serif" font-size="10.00">v8::metrics::GarbageCollection</text>
<text text-anchor="middle" x="155.62" y="-5.75" font-family="Helvetica,sans-Serif" font-size="10.00">FullCycle</text>
</a>
</g>
</g>
<!-- Node2 -->
<g id="node2" class="node">
<title>Node2</title>
<g id="a_node2"><a xlink:href="structv8_1_1metrics_1_1GarbageCollectionPhases.html" target="_top" xlink:title=" ">
<polygon fill="white" stroke="#666666" points="147.25,-209.5 0,-209.5 0,-179 147.25,-179 147.25,-209.5"/>
<text text-anchor="start" x="8" y="-196" font-family="Helvetica,sans-Serif" font-size="10.00">v8::metrics::GarbageCollection</text>
<text text-anchor="middle" x="73.62" y="-184.75" font-family="Helvetica,sans-Serif" font-size="10.00">Phases</text>
</a>
</g>
</g>
<!-- Node2&#45;&gt;Node1 -->
<g id="edge1" class="edge">
<title>Node2&#45;&gt;Node1</title>
<path fill="none" stroke="#9a32cd" stroke-dasharray="5,2" d="M74.14,-168.06C75.91,-137.3 82.75,-84.86 107.88,-48.5 112.65,-41.59 119.43,-35.74 126.39,-31"/>
<polygon fill="#9a32cd" stroke="#9a32cd" points="70.61,-167.57 73.68,-177.72 77.61,-167.88 70.61,-167.57"/>
<text text-anchor="middle" x="162" y="-151.5" font-family="Helvetica,sans-Serif" font-size="10.00"> main_thread</text>
<text text-anchor="middle" x="162" y="-140.25" font-family="Helvetica,sans-Serif" font-size="10.00">main_thread_atomic</text>
<text text-anchor="start" x="107.62" y="-129" font-family="Helvetica,sans-Serif" font-size="10.00">main_thread_atomic</text>
<text text-anchor="middle" x="162" y="-117.75" font-family="Helvetica,sans-Serif" font-size="10.00">_cpp</text>
<text text-anchor="middle" x="162" y="-106.5" font-family="Helvetica,sans-Serif" font-size="10.00">main_thread_cpp</text>
<text text-anchor="middle" x="162" y="-95.25" font-family="Helvetica,sans-Serif" font-size="10.00">main_thread_incremental</text>
<text text-anchor="start" x="107.62" y="-84" font-family="Helvetica,sans-Serif" font-size="10.00">main_thread_incremental</text>
<text text-anchor="middle" x="162" y="-72.75" font-family="Helvetica,sans-Serif" font-size="10.00">_cpp</text>
<text text-anchor="middle" x="162" y="-61.5" font-family="Helvetica,sans-Serif" font-size="10.00">total</text>
<text text-anchor="middle" x="162" y="-50.25" font-family="Helvetica,sans-Serif" font-size="10.00">total_cpp</text>
</g>
<!-- Node3 -->
<g id="node3" class="node">
<title>Node3</title>
<g id="a_node3"><a xlink:href="structv8_1_1metrics_1_1GarbageCollectionSizes.html" target="_top" xlink:title=" ">
<polygon fill="white" stroke="#666666" points="312.25,-209.5 165,-209.5 165,-179 312.25,-179 312.25,-209.5"/>
<text text-anchor="start" x="173" y="-196" font-family="Helvetica,sans-Serif" font-size="10.00">v8::metrics::GarbageCollection</text>
<text text-anchor="middle" x="238.62" y="-184.75" font-family="Helvetica,sans-Serif" font-size="10.00">Sizes</text>
</a>
</g>
</g>
<!-- Node3&#45;&gt;Node1 -->
<g id="edge2" class="edge">
<title>Node3&#45;&gt;Node1</title>
<path fill="none" stroke="#9a32cd" stroke-dasharray="5,2" d="M241.28,-167.77C243.16,-136.7 241.82,-83.96 216.62,-48.5 211.42,-41.18 204.03,-35.37 196.18,-30.83"/>
<polygon fill="#9a32cd" stroke="#9a32cd" points="237.73,-167.29 240.45,-177.53 244.71,-167.83 237.73,-167.29"/>
<text text-anchor="middle" x="269.38" y="-117.75" font-family="Helvetica,sans-Serif" font-size="10.00"> memory</text>
<text text-anchor="middle" x="269.38" y="-106.5" font-family="Helvetica,sans-Serif" font-size="10.00">memory_cpp</text>
<text text-anchor="middle" x="269.38" y="-95.25" font-family="Helvetica,sans-Serif" font-size="10.00">objects</text>
<text text-anchor="middle" x="269.38" y="-84" font-family="Helvetica,sans-Serif" font-size="10.00">objects_cpp</text>
</g>
</g>
</svg>
