<?xml version="1.0" encoding="UTF-8" standalone="no"?>
<!DOCTYPE svg PUBLIC "-//W3C//DTD SVG 1.1//EN"
 "http://www.w3.org/Graphics/SVG/1.1/DTD/svg11.dtd">
<!-- Generated by graphviz version 8.0.5 (20230430.1635)
 -->
<!-- Title: include/v8&#45;maybe.h Pages: 1 -->
<svg width="1606pt" height="514pt"
 viewBox="0.00 0.00 1606.38 514.25" xmlns="http://www.w3.org/2000/svg" xmlns:xlink="http://www.w3.org/1999/xlink">
<g id="graph0" class="graph" transform="scale(1 1) rotate(0) translate(4 510.25)">
<title>include/v8&#45;maybe.h</title>
<!-- Node1 -->
<g id="node1" class="node">
<title>Node1</title>
<g id="a_node1"><a xlink:title=" ">
<polygon fill="#999999" stroke="#666666" points="827.62,-506.25 728.38,-506.25 728.38,-487 827.62,-487 827.62,-506.25"/>
<text text-anchor="middle" x="778" y="-492.75" font-family="Helvetica,sans-Serif" font-size="10.00">include/v8&#45;maybe.h</text>
</a>
</g>
</g>
<!-- Node2 -->
<g id="node2" class="node">
<title>Node2</title>
<g id="a_node2"><a xlink:href="v8-message_8h.html" target="_top" xlink:title=" ">
<polygon fill="white" stroke="#666666" points="1458.25,-274 1347.75,-274 1347.75,-254.75 1458.25,-254.75 1458.25,-274"/>
<text text-anchor="middle" x="1403" y="-260.5" font-family="Helvetica,sans-Serif" font-size="10.00">include/v8&#45;message.h</text>
</a>
</g>
</g>
<!-- Node1&#45;&gt;Node2 -->
<g id="edge1" class="edge">
<title>Node1&#45;&gt;Node2</title>
<path fill="none" stroke="#63b8ff" d="M838.6,-490.38C962.34,-478.71 1238.94,-447.5 1317,-395.75 1363.78,-364.73 1391.14,-298.63 1399.9,-274.47"/>
<polygon fill="#63b8ff" stroke="#63b8ff" points="838.46,-486.97 828.82,-491.38 839.11,-493.94 838.46,-486.97"/>
</g>
<!-- Node4 -->
<g id="node4" class="node">
<title>Node4</title>
<g id="a_node4"><a xlink:href="v8_8h.html" target="_top" xlink:title=" ">
<polygon fill="white" stroke="#666666" points="693.88,-24.88 626.12,-24.88 626.12,-5.63 693.88,-5.63 693.88,-24.88"/>
<text text-anchor="middle" x="660" y="-11.38" font-family="Helvetica,sans-Serif" font-size="10.00">include/v8.h</text>
</a>
</g>
</g>
<!-- Node1&#45;&gt;Node4 -->
<g id="edge62" class="edge">
<title>Node1&#45;&gt;Node4</title>
<path fill="none" stroke="#63b8ff" d="M717.38,-493.53C534.38,-486.42 0,-459.46 0,-387.12 0,-387.12 0,-387.12 0,-147.25 0,-100.62 25.67,-88.09 67,-66.5 165.1,-15.26 514.35,-14.59 625.66,-15.73"/>
<polygon fill="#63b8ff" stroke="#63b8ff" points="717.02,-497.06 727.15,-493.94 717.29,-490.07 717.02,-497.06"/>
</g>
<!-- Node6 -->
<g id="node6" class="node">
<title>Node6</title>
<g id="a_node6"><a xlink:href="v8-script_8h.html" target="_top" xlink:title=" ">
<polygon fill="white" stroke="#666666" points="1598.38,-218.75 1503.62,-218.75 1503.62,-199.5 1598.38,-199.5 1598.38,-218.75"/>
<text text-anchor="middle" x="1551" y="-205.25" font-family="Helvetica,sans-Serif" font-size="10.00">include/v8&#45;script.h</text>
</a>
</g>
</g>
<!-- Node1&#45;&gt;Node6 -->
<g id="edge42" class="edge">
<title>Node1&#45;&gt;Node6</title>
<path fill="none" stroke="#63b8ff" d="M838.93,-493.08C1015.99,-484.87 1518,-455.57 1518,-387.12 1518,-387.12 1518,-387.12 1518,-324.25 1518,-283.62 1537.54,-237.94 1546.55,-219.04"/>
<polygon fill="#63b8ff" stroke="#63b8ff" points="838.82,-489.62 828.99,-493.58 839.14,-496.62 838.82,-489.62"/>
</g>
<!-- Node7 -->
<g id="node7" class="node">
<title>Node7</title>
<g id="a_node7"><a xlink:href="v8-object_8h.html" target="_top" xlink:title=" ">
<polygon fill="white" stroke="#666666" points="613.5,-334.88 516.5,-334.88 516.5,-315.62 613.5,-315.62 613.5,-334.88"/>
<text text-anchor="middle" x="565" y="-321.38" font-family="Helvetica,sans-Serif" font-size="10.00">include/v8&#45;object.h</text>
</a>
</g>
</g>
<!-- Node1&#45;&gt;Node7 -->
<g id="edge8" class="edge">
<title>Node1&#45;&gt;Node7</title>
<path fill="none" stroke="#63b8ff" d="M758.16,-479.85C714.36,-445.02 610.59,-362.5 576.25,-335.2"/>
<polygon fill="#63b8ff" stroke="#63b8ff" points="755.54,-483.03 765.55,-486.52 759.9,-477.56 755.54,-483.03"/>
</g>
<!-- Node24 -->
<g id="node24" class="node">
<title>Node24</title>
<g id="a_node24"><a xlink:href="v8-value-serializer_8h.html" target="_top" xlink:title=" ">
<polygon fill="white" stroke="#666666" points="416.62,-451 281.38,-451 281.38,-431.75 416.62,-431.75 416.62,-451"/>
<text text-anchor="middle" x="349" y="-437.5" font-family="Helvetica,sans-Serif" font-size="10.00">include/v8&#45;value&#45;serializer.h</text>
</a>
</g>
</g>
<!-- Node1&#45;&gt;Node24 -->
<g id="edge43" class="edge">
<title>Node1&#45;&gt;Node24</title>
<path fill="none" stroke="#63b8ff" d="M717.17,-488.07C637.91,-478.24 499.72,-461.08 417.06,-450.82"/>
<polygon fill="#63b8ff" stroke="#63b8ff" points="716.59,-491.65 726.95,-489.41 717.46,-484.71 716.59,-491.65"/>
</g>
<!-- Node25 -->
<g id="node25" class="node">
<title>Node25</title>
<g id="a_node25"><a xlink:href="v8-value_8h.html" target="_top" xlink:title=" ">
<polygon fill="white" stroke="#666666" points="892,-451 798,-451 798,-431.75 892,-431.75 892,-451"/>
<text text-anchor="middle" x="845" y="-437.5" font-family="Helvetica,sans-Serif" font-size="10.00">include/v8&#45;value.h</text>
</a>
</g>
</g>
<!-- Node1&#45;&gt;Node25 -->
<g id="edge45" class="edge">
<title>Node1&#45;&gt;Node25</title>
<path fill="none" stroke="#63b8ff" d="M797.7,-479.97C809.46,-470.62 823.98,-459.08 833.8,-451.27"/>
<polygon fill="#63b8ff" stroke="#63b8ff" points="796.02,-477.63 790.37,-486.59 800.37,-483.11 796.02,-477.63"/>
</g>
<!-- Node3 -->
<g id="node3" class="node">
<title>Node3</title>
<g id="a_node3"><a xlink:href="v8-function_8h.html" target="_top" xlink:title=" ">
<polygon fill="white" stroke="#666666" points="1043.62,-218.75 938.38,-218.75 938.38,-199.5 1043.62,-199.5 1043.62,-218.75"/>
<text text-anchor="middle" x="991" y="-205.25" font-family="Helvetica,sans-Serif" font-size="10.00">include/v8&#45;function.h</text>
</a>
</g>
</g>
<!-- Node2&#45;&gt;Node3 -->
<g id="edge2" class="edge">
<title>Node2&#45;&gt;Node3</title>
<path fill="none" stroke="#63b8ff" d="M1336.82,-254.82C1255.43,-244.3 1118.91,-226.66 1044.06,-216.98"/>
<polygon fill="#63b8ff" stroke="#63b8ff" points="1336.07,-258.38 1346.44,-256.19 1336.97,-251.44 1336.07,-258.38"/>
</g>
<!-- Node2&#45;&gt;Node4 -->
<g id="edge7" class="edge">
<title>Node2&#45;&gt;Node4</title>
<path fill="none" stroke="#63b8ff" d="M1429.71,-248.47C1440.26,-241.04 1451.23,-231 1457,-218.75 1460.64,-211.01 1459.17,-207.78 1457,-199.5 1439.77,-133.86 1439.37,-102.74 1382,-66.5 1323.37,-29.47 829,-18.94 693.96,-16.74"/>
<polygon fill="#63b8ff" stroke="#63b8ff" points="1428.17,-245.95 1421.68,-254.32 1431.98,-251.82 1428.17,-245.95"/>
</g>
<!-- Node5 -->
<g id="node5" class="node">
<title>Node5</title>
<g id="a_node5"><a xlink:href="v8-profiler_8h.html" target="_top" xlink:title=" ">
<polygon fill="white" stroke="#666666" points="1447.62,-218.75 1348.38,-218.75 1348.38,-199.5 1447.62,-199.5 1447.62,-218.75"/>
<text text-anchor="middle" x="1398" y="-205.25" font-family="Helvetica,sans-Serif" font-size="10.00">include/v8&#45;profiler.h</text>
</a>
</g>
</g>
<!-- Node2&#45;&gt;Node5 -->
<g id="edge4" class="edge">
<title>Node2&#45;&gt;Node5</title>
<path fill="none" stroke="#63b8ff" d="M1401.15,-243.71C1400.36,-235.27 1399.47,-225.83 1398.84,-219.11"/>
<polygon fill="#63b8ff" stroke="#63b8ff" points="1397.75,-243.95 1402.17,-253.58 1404.72,-243.3 1397.75,-243.95"/>
</g>
<!-- Node2&#45;&gt;Node6 -->
<g id="edge5" class="edge">
<title>Node2&#45;&gt;Node6</title>
<path fill="none" stroke="#63b8ff" d="M1438.28,-250.68C1465.22,-240.99 1501.7,-227.86 1525.77,-219.2"/>
<polygon fill="#63b8ff" stroke="#63b8ff" points="1437.33,-247.66 1429.11,-254.34 1439.7,-254.25 1437.33,-247.66"/>
</g>
<!-- Node3&#45;&gt;Node4 -->
<g id="edge3" class="edge">
<title>Node3&#45;&gt;Node4</title>
<path fill="none" stroke="#63b8ff" d="M987.53,-188.34C980.97,-157.22 963.69,-97.21 924,-66.5 888.48,-39.02 757.11,-24.45 694.12,-18.92"/>
<polygon fill="#63b8ff" stroke="#63b8ff" points="984.27,-188.92 989.6,-198.07 991.14,-187.59 984.27,-188.92"/>
</g>
<!-- Node6&#45;&gt;Node4 -->
<g id="edge6" class="edge">
<title>Node6&#45;&gt;Node4</title>
<path fill="none" stroke="#63b8ff" d="M1548.97,-188.68C1544.52,-157.05 1530.8,-95.15 1490,-66.5 1456.94,-43.28 846.94,-22.24 694.37,-17.33"/>
<polygon fill="#63b8ff" stroke="#63b8ff" points="1545.56,-188.68 1550.26,-198.18 1552.51,-187.83 1545.56,-188.68"/>
</g>
<!-- Node7&#45;&gt;Node3 -->
<g id="edge24" class="edge">
<title>Node7&#45;&gt;Node3</title>
<path fill="none" stroke="#63b8ff" d="M609.18,-312.42C694.61,-289.53 880.78,-239.65 957.21,-219.18"/>
<polygon fill="#63b8ff" stroke="#63b8ff" points="608.54,-309.23 599.78,-315.2 610.35,-315.99 608.54,-309.23"/>
</g>
<!-- Node7&#45;&gt;Node4 -->
<g id="edge41" class="edge">
<title>Node7&#45;&gt;Node4</title>
<path fill="none" stroke="#63b8ff" d="M522.13,-311.24C504.27,-303.46 485.32,-291.58 475,-274 470.67,-266.62 473.49,-263.17 475,-254.75 491.17,-164.38 492.67,-128.9 560,-66.5 580.95,-47.08 610.81,-33.4 632.44,-25.26"/>
<polygon fill="#63b8ff" stroke="#63b8ff" points="520.3,-314.68 530.88,-315.15 522.9,-308.18 520.3,-314.68"/>
</g>
<!-- Node8 -->
<g id="node8" class="node">
<title>Node8</title>
<g id="a_node8"><a xlink:href="v8-array-buffer_8h.html" target="_top" xlink:title=" ">
<polygon fill="white" stroke="#666666" points="806.38,-218.75 687.62,-218.75 687.62,-199.5 806.38,-199.5 806.38,-218.75"/>
<text text-anchor="middle" x="747" y="-205.25" font-family="Helvetica,sans-Serif" font-size="10.00">include/v8&#45;array&#45;buffer.h</text>
</a>
</g>
</g>
<!-- Node7&#45;&gt;Node8 -->
<g id="edge9" class="edge">
<title>Node7&#45;&gt;Node8</title>
<path fill="none" stroke="#63b8ff" d="M624.45,-319.35C658.58,-313.56 699.91,-301.02 727,-274 742.14,-258.9 745.85,-232.51 746.74,-218.86"/>
<polygon fill="#63b8ff" stroke="#63b8ff" points="624.01,-316.03 614.65,-321.01 625.07,-322.95 624.01,-316.03"/>
</g>
<!-- Node15 -->
<g id="node15" class="node">
<title>Node15</title>
<g id="a_node15"><a xlink:href="v8-container_8h.html" target="_top" xlink:title=" ">
<polygon fill="white" stroke="#666666" points="718.25,-274 607.75,-274 607.75,-254.75 718.25,-254.75 718.25,-274"/>
<text text-anchor="middle" x="663" y="-260.5" font-family="Helvetica,sans-Serif" font-size="10.00">include/v8&#45;container.h</text>
</a>
</g>
</g>
<!-- Node7&#45;&gt;Node15 -->
<g id="edge20" class="edge">
<title>Node7&#45;&gt;Node15</title>
<path fill="none" stroke="#63b8ff" d="M589.1,-309.77C607.51,-298.71 632.31,-283.81 647.98,-274.4"/>
<polygon fill="#63b8ff" stroke="#63b8ff" points="587.65,-307.16 580.88,-315.31 591.26,-313.16 587.65,-307.16"/>
</g>
<!-- Node16 -->
<g id="node16" class="node">
<title>Node16</title>
<g id="a_node16"><a xlink:href="v8-date_8h.html" target="_top" xlink:title=" ">
<polygon fill="white" stroke="#666666" points="155.75,-157.88 66.25,-157.88 66.25,-138.62 155.75,-138.62 155.75,-157.88"/>
<text text-anchor="middle" x="111" y="-144.38" font-family="Helvetica,sans-Serif" font-size="10.00">include/v8&#45;date.h</text>
</a>
</g>
</g>
<!-- Node7&#45;&gt;Node16 -->
<g id="edge22" class="edge">
<title>Node7&#45;&gt;Node16</title>
<path fill="none" stroke="#63b8ff" d="M505.46,-319.91C422.67,-313.1 277.68,-298.13 231,-274 175.74,-245.44 131.39,-181.5 116.43,-158.07"/>
<polygon fill="#63b8ff" stroke="#63b8ff" points="504.98,-323.46 515.22,-320.78 505.54,-316.49 504.98,-323.46"/>
</g>
<!-- Node17 -->
<g id="node17" class="node">
<title>Node17</title>
<g id="a_node17"><a xlink:href="v8-primitive-object_8h.html" target="_top" xlink:title=" ">
<polygon fill="white" stroke="#666666" points="274,-163.5 174,-163.5 174,-133 274,-133 274,-163.5"/>
<text text-anchor="start" x="182" y="-150" font-family="Helvetica,sans-Serif" font-size="10.00">include/v8&#45;primitive</text>
<text text-anchor="middle" x="224" y="-138.75" font-family="Helvetica,sans-Serif" font-size="10.00">&#45;object.h</text>
</a>
</g>
</g>
<!-- Node7&#45;&gt;Node17 -->
<g id="edge25" class="edge">
<title>Node7&#45;&gt;Node17</title>
<path fill="none" stroke="#63b8ff" d="M505.57,-322.74C424.11,-319.4 283.78,-308.63 248,-274 217.73,-244.71 219.27,-189.68 222,-163.63"/>
<polygon fill="#63b8ff" stroke="#63b8ff" points="505.04,-326.26 515.17,-323.15 505.31,-319.27 505.04,-326.26"/>
</g>
<!-- Node18 -->
<g id="node18" class="node">
<title>Node18</title>
<g id="a_node18"><a xlink:href="v8-promise_8h.html" target="_top" xlink:title=" ">
<polygon fill="white" stroke="#666666" points="589.62,-274 484.38,-274 484.38,-254.75 589.62,-254.75 589.62,-274"/>
<text text-anchor="middle" x="537" y="-260.5" font-family="Helvetica,sans-Serif" font-size="10.00">include/v8&#45;promise.h</text>
</a>
</g>
</g>
<!-- Node7&#45;&gt;Node18 -->
<g id="edge27" class="edge">
<title>Node7&#45;&gt;Node18</title>
<path fill="none" stroke="#63b8ff" d="M556.07,-305.48C551.13,-295.09 545.21,-282.64 541.29,-274.4"/>
<polygon fill="#63b8ff" stroke="#63b8ff" points="553.29,-306.78 560.75,-314.31 559.61,-303.77 553.29,-306.78"/>
</g>
<!-- Node20 -->
<g id="node20" class="node">
<title>Node20</title>
<g id="a_node20"><a xlink:href="v8-proxy_8h.html" target="_top" xlink:title=" ">
<polygon fill="white" stroke="#666666" points="311.62,-91.38 218.38,-91.38 218.38,-72.12 311.62,-72.12 311.62,-91.38"/>
<text text-anchor="middle" x="265" y="-77.88" font-family="Helvetica,sans-Serif" font-size="10.00">include/v8&#45;proxy.h</text>
</a>
</g>
</g>
<!-- Node7&#45;&gt;Node20 -->
<g id="edge32" class="edge">
<title>Node7&#45;&gt;Node20</title>
<path fill="none" stroke="#63b8ff" d="M505.37,-322.76C436.08,-317.33 325.56,-296.22 281,-218.75 276.73,-211.33 280.76,-208.05 281,-199.5 281.82,-169.94 288.06,-162.13 283,-133 280.4,-118.03 273.74,-101.62 269.3,-91.75"/>
<polygon fill="#63b8ff" stroke="#63b8ff" points="504.9,-326.31 515.12,-323.51 505.38,-319.33 504.9,-326.31"/>
</g>
<!-- Node21 -->
<g id="node21" class="node">
<title>Node21</title>
<g id="a_node21"><a xlink:href="v8-regexp_8h.html" target="_top" xlink:title=" ">
<polygon fill="white" stroke="#666666" points="389.62,-218.75 290.38,-218.75 290.38,-199.5 389.62,-199.5 389.62,-218.75"/>
<text text-anchor="middle" x="340" y="-205.25" font-family="Helvetica,sans-Serif" font-size="10.00">include/v8&#45;regexp.h</text>
</a>
</g>
</g>
<!-- Node7&#45;&gt;Node21 -->
<g id="edge34" class="edge">
<title>Node7&#45;&gt;Node21</title>
<path fill="none" stroke="#63b8ff" d="M505.85,-313C474.09,-305.24 435.19,-292.84 404,-274 379.28,-259.06 357.03,-232.6 346.47,-218.9"/>
<polygon fill="#63b8ff" stroke="#63b8ff" points="504.79,-316.59 515.32,-315.46 506.39,-309.77 504.79,-316.59"/>
</g>
<!-- Node22 -->
<g id="node22" class="node">
<title>Node22</title>
<g id="a_node22"><a xlink:href="v8-template_8h.html" target="_top" xlink:title=" ">
<polygon fill="white" stroke="#666666" points="1000.12,-274 891.88,-274 891.88,-254.75 1000.12,-254.75 1000.12,-274"/>
<text text-anchor="middle" x="946" y="-260.5" font-family="Helvetica,sans-Serif" font-size="10.00">include/v8&#45;template.h</text>
</a>
</g>
</g>
<!-- Node7&#45;&gt;Node22 -->
<g id="edge36" class="edge">
<title>Node7&#45;&gt;Node22</title>
<path fill="none" stroke="#63b8ff" d="M624.5,-315.06C697.63,-303.75 820.73,-284.73 891.5,-273.8"/>
<polygon fill="#63b8ff" stroke="#63b8ff" points="623.99,-311.75 614.64,-316.73 625.06,-318.67 623.99,-311.75"/>
</g>
<!-- Node23 -->
<g id="node23" class="node">
<title>Node23</title>
<g id="a_node23"><a xlink:href="v8-wasm_8h.html" target="_top" xlink:title=" ">
<polygon fill="white" stroke="#666666" points="465.5,-91.38 368.5,-91.38 368.5,-72.12 465.5,-72.12 465.5,-91.38"/>
<text text-anchor="middle" x="417" y="-77.88" font-family="Helvetica,sans-Serif" font-size="10.00">include/v8&#45;wasm.h</text>
</a>
</g>
</g>
<!-- Node7&#45;&gt;Node23 -->
<g id="edge39" class="edge">
<title>Node7&#45;&gt;Node23</title>
<path fill="none" stroke="#63b8ff" d="M505.53,-313.41C482.24,-306.14 457.44,-294.05 442,-274 398.06,-216.97 410.29,-120.84 415.34,-91.51"/>
<polygon fill="#63b8ff" stroke="#63b8ff" points="504.51,-317.05 515.09,-316.43 506.44,-310.32 504.51,-317.05"/>
</g>
<!-- Node8&#45;&gt;Node4 -->
<g id="edge19" class="edge">
<title>Node8&#45;&gt;Node4</title>
<path fill="none" stroke="#63b8ff" d="M714.19,-194.14C701.14,-186.9 687.3,-176.76 679,-163.5 650.56,-118.05 655.79,-49.25 658.75,-25.05"/>
<polygon fill="#63b8ff" stroke="#63b8ff" points="712.4,-197.67 722.9,-199.11 715.59,-191.43 712.4,-197.67"/>
</g>
<!-- Node9 -->
<g id="node9" class="node">
<title>Node9</title>
<g id="a_node9"><a xlink:href="v8-isolate_8h.html" target="_top" xlink:title=" ">
<polygon fill="white" stroke="#666666" points="1121.62,-157.88 1022.38,-157.88 1022.38,-138.62 1121.62,-138.62 1121.62,-157.88"/>
<text text-anchor="middle" x="1072" y="-144.38" font-family="Helvetica,sans-Serif" font-size="10.00">include/v8&#45;isolate.h</text>
</a>
</g>
</g>
<!-- Node8&#45;&gt;Node9 -->
<g id="edge10" class="edge">
<title>Node8&#45;&gt;Node9</title>
<path fill="none" stroke="#63b8ff" d="M807.85,-197.1C869.75,-185.89 964.53,-168.72 1022.14,-158.28"/>
<polygon fill="#63b8ff" stroke="#63b8ff" points="807.28,-193.83 798.07,-199.05 808.53,-200.72 807.28,-193.83"/>
</g>
<!-- Node13 -->
<g id="node13" class="node">
<title>Node13</title>
<g id="a_node13"><a xlink:href="v8-typed-array_8h.html" target="_top" xlink:title=" ">
<polygon fill="white" stroke="#666666" points="806,-157.88 688,-157.88 688,-138.62 806,-138.62 806,-157.88"/>
<text text-anchor="middle" x="747" y="-144.38" font-family="Helvetica,sans-Serif" font-size="10.00">include/v8&#45;typed&#45;array.h</text>
</a>
</g>
</g>
<!-- Node8&#45;&gt;Node13 -->
<g id="edge16" class="edge">
<title>Node8&#45;&gt;Node13</title>
<path fill="none" stroke="#63b8ff" d="M747,-188.37C747,-178.18 747,-166.26 747,-158.28"/>
<polygon fill="#63b8ff" stroke="#63b8ff" points="743.5,-188.18 747,-198.18 750.5,-188.18 743.5,-188.18"/>
</g>
<!-- Node9&#45;&gt;Node4 -->
<g id="edge15" class="edge">
<title>Node9&#45;&gt;Node4</title>
<path fill="none" stroke="#63b8ff" d="M1051.52,-131.83C1021.09,-108.99 967,-68.61 962,-66.5 870.42,-27.88 751.49,-18.87 694.03,-16.82"/>
<polygon fill="#63b8ff" stroke="#63b8ff" points="1049.02,-135.09 1059.12,-138.3 1053.23,-129.49 1049.02,-135.09"/>
</g>
<!-- Node10 -->
<g id="node10" class="node">
<title>Node10</title>
<g id="a_node10"><a xlink:href="v8-initialization_8h.html" target="_top" xlink:title=" ">
<polygon fill="white" stroke="#666666" points="1135.5,-91.38 1014.5,-91.38 1014.5,-72.12 1135.5,-72.12 1135.5,-91.38"/>
<text text-anchor="middle" x="1075" y="-77.88" font-family="Helvetica,sans-Serif" font-size="10.00">include/v8&#45;initialization.h</text>
</a>
</g>
</g>
<!-- Node9&#45;&gt;Node10 -->
<g id="edge11" class="edge">
<title>Node9&#45;&gt;Node10</title>
<path fill="none" stroke="#63b8ff" d="M1072.92,-127.52C1073.47,-115.55 1074.16,-100.85 1074.59,-91.64"/>
<polygon fill="#63b8ff" stroke="#63b8ff" points="1069.39,-127.13 1072.42,-137.28 1076.38,-127.45 1069.39,-127.13"/>
</g>
<!-- Node11 -->
<g id="node11" class="node">
<title>Node11</title>
<g id="a_node11"><a xlink:href="v8-inspector_8h.html" target="_top" xlink:title=" ">
<polygon fill="white" stroke="#666666" points="1340.25,-91.38 1229.75,-91.38 1229.75,-72.12 1340.25,-72.12 1340.25,-91.38"/>
<text text-anchor="middle" x="1285" y="-77.88" font-family="Helvetica,sans-Serif" font-size="10.00">include/v8&#45;inspector.h</text>
</a>
</g>
</g>
<!-- Node9&#45;&gt;Node11 -->
<g id="edge13" class="edge">
<title>Node9&#45;&gt;Node11</title>
<path fill="none" stroke="#63b8ff" d="M1112.39,-135.02C1153.98,-122.43 1217.82,-103.09 1255.09,-91.81"/>
<polygon fill="#63b8ff" stroke="#63b8ff" points="1111.62,-131.9 1103.07,-138.15 1113.65,-138.6 1111.62,-131.9"/>
</g>
<!-- Node10&#45;&gt;Node4 -->
<g id="edge12" class="edge">
<title>Node10&#45;&gt;Node4</title>
<path fill="none" stroke="#63b8ff" d="M1017.87,-69.64C1011.84,-68.55 1005.8,-67.48 1000,-66.5 888.51,-47.68 755.77,-29.19 694.34,-20.85"/>
<polygon fill="#63b8ff" stroke="#63b8ff" points="1017.17,-73.26 1027.64,-71.63 1018.45,-66.38 1017.17,-73.26"/>
</g>
<!-- Node12 -->
<g id="node12" class="node">
<title>Node12</title>
<g id="a_node12"><a xlink:href="v8-inspector-protocol_8h.html" target="_top" xlink:title=" ">
<polygon fill="white" stroke="#666666" points="1336.5,-30.5 1233.5,-30.5 1233.5,0 1336.5,0 1336.5,-30.5"/>
<text text-anchor="start" x="1241.5" y="-17" font-family="Helvetica,sans-Serif" font-size="10.00">include/v8&#45;inspector</text>
<text text-anchor="middle" x="1285" y="-5.75" font-family="Helvetica,sans-Serif" font-size="10.00">&#45;protocol.h</text>
</a>
</g>
</g>
<!-- Node11&#45;&gt;Node12 -->
<g id="edge14" class="edge">
<title>Node11&#45;&gt;Node12</title>
<path fill="none" stroke="#63b8ff" d="M1285,-61.02C1285,-51.2 1285,-39.55 1285,-30.59"/>
<polygon fill="#63b8ff" stroke="#63b8ff" points="1281.5,-60.78 1285,-70.78 1288.5,-60.78 1281.5,-60.78"/>
</g>
<!-- Node13&#45;&gt;Node4 -->
<g id="edge18" class="edge">
<title>Node13&#45;&gt;Node4</title>
<path fill="none" stroke="#63b8ff" d="M735.15,-129.4C716.32,-101.06 680.28,-46.79 666.02,-25.32"/>
<polygon fill="#63b8ff" stroke="#63b8ff" points="732.57,-130.85 741.02,-137.25 738.4,-126.98 732.57,-130.85"/>
</g>
<!-- Node14 -->
<g id="node14" class="node">
<title>Node14</title>
<g id="a_node14"><a xlink:href="v8-fast-api-calls_8h.html" target="_top" xlink:title=" ">
<polygon fill="white" stroke="#666666" points="838.75,-97 743.25,-97 743.25,-66.5 838.75,-66.5 838.75,-97"/>
<text text-anchor="start" x="751.25" y="-83.5" font-family="Helvetica,sans-Serif" font-size="10.00">include/v8&#45;fast&#45;api</text>
<text text-anchor="middle" x="791" y="-72.25" font-family="Helvetica,sans-Serif" font-size="10.00">&#45;calls.h</text>
</a>
</g>
</g>
<!-- Node13&#45;&gt;Node14 -->
<g id="edge17" class="edge">
<title>Node13&#45;&gt;Node14</title>
<path fill="none" stroke="#63b8ff" d="M759.15,-129.44C766.1,-119.25 774.7,-106.64 781.21,-97.09"/>
<polygon fill="#63b8ff" stroke="#63b8ff" points="755.86,-127.05 753.12,-137.28 761.64,-130.99 755.86,-127.05"/>
</g>
<!-- Node15&#45;&gt;Node4 -->
<g id="edge21" class="edge">
<title>Node15&#45;&gt;Node4</title>
<path fill="none" stroke="#63b8ff" d="M660.13,-243.59C655.38,-208.09 646.88,-131.22 652,-66.5 653.16,-51.88 656.18,-35.09 658.16,-25.09"/>
<polygon fill="#63b8ff" stroke="#63b8ff" points="656.78,-243.92 661.63,-253.34 663.72,-242.95 656.78,-243.92"/>
</g>
<!-- Node16&#45;&gt;Node4 -->
<g id="edge23" class="edge">
<title>Node16&#45;&gt;Node4</title>
<path fill="none" stroke="#63b8ff" d="M123.97,-129.58C139.13,-110.43 166.12,-80.7 197,-66.5 273.49,-31.33 531.92,-20.13 625.67,-17.17"/>
<polygon fill="#63b8ff" stroke="#63b8ff" points="120.63,-127.19 117.34,-137.26 126.19,-131.44 120.63,-127.19"/>
</g>
<!-- Node17&#45;&gt;Node4 -->
<g id="edge26" class="edge">
<title>Node17&#45;&gt;Node4</title>
<path fill="none" stroke="#63b8ff" d="M210,-123.11C201.75,-105.37 195.33,-81.78 209,-66.5 236.71,-35.53 525.12,-21.48 625.66,-17.49"/>
<polygon fill="#63b8ff" stroke="#63b8ff" points="207.27,-124.46 214.93,-131.78 213.5,-121.28 207.27,-124.46"/>
</g>
<!-- Node18&#45;&gt;Node4 -->
<g id="edge31" class="edge">
<title>Node18&#45;&gt;Node4</title>
<path fill="none" stroke="#63b8ff" d="M523.82,-245.47C516.12,-232.83 508.69,-215.38 513,-199.5 530.96,-133.37 545,-117.29 591,-66.5 606.62,-49.25 629.03,-34.26 644.03,-25.25"/>
<polygon fill="#63b8ff" stroke="#63b8ff" points="521.36,-247.09 529.83,-253.45 527.18,-243.2 521.36,-247.09"/>
</g>
<!-- Node19 -->
<g id="node19" class="node">
<title>Node19</title>
<g id="a_node19"><a xlink:href="v8-statistics_8h.html" target="_top" xlink:title=" ">
<polygon fill="white" stroke="#666666" points="632.25,-218.75 521.75,-218.75 521.75,-199.5 632.25,-199.5 632.25,-218.75"/>
<text text-anchor="middle" x="577" y="-205.25" font-family="Helvetica,sans-Serif" font-size="10.00">include/v8&#45;statistics.h</text>
</a>
</g>
</g>
<!-- Node18&#45;&gt;Node19 -->
<g id="edge28" class="edge">
<title>Node18&#45;&gt;Node19</title>
<path fill="none" stroke="#63b8ff" d="M550.05,-246.01C556.79,-237.03 564.74,-226.45 570.25,-219.11"/>
<polygon fill="#63b8ff" stroke="#63b8ff" points="546.81,-243.48 543.61,-253.58 552.41,-247.69 546.81,-243.48"/>
</g>
<!-- Node19&#45;&gt;Node4 -->
<g id="edge30" class="edge">
<title>Node19&#45;&gt;Node4</title>
<path fill="none" stroke="#63b8ff" d="M577.75,-188.29C579.6,-159.68 585.99,-105.94 608,-66.5 617.67,-49.18 635.21,-34.1 647.22,-25.09"/>
<polygon fill="#63b8ff" stroke="#63b8ff" points="574.21,-188.04 577.19,-198.21 581.2,-188.4 574.21,-188.04"/>
</g>
<!-- Node19&#45;&gt;Node9 -->
<g id="edge29" class="edge">
<title>Node19&#45;&gt;Node9</title>
<path fill="none" stroke="#63b8ff" d="M643.26,-200.24C743.76,-188.29 932.49,-165.84 1022.2,-155.17"/>
<polygon fill="#63b8ff" stroke="#63b8ff" points="642.86,-196.89 633.34,-201.54 643.69,-203.84 642.86,-196.89"/>
</g>
<!-- Node20&#45;&gt;Node4 -->
<g id="edge33" class="edge">
<title>Node20&#45;&gt;Node4</title>
<path fill="none" stroke="#63b8ff" d="M312.33,-69.3C316.94,-68.3 321.55,-67.35 326,-66.5 434.85,-45.63 565.02,-28.19 625.71,-20.49"/>
<polygon fill="#63b8ff" stroke="#63b8ff" points="311.67,-66.09 302.67,-71.68 313.19,-72.92 311.67,-66.09"/>
</g>
<!-- Node21&#45;&gt;Node4 -->
<g id="edge35" class="edge">
<title>Node21&#45;&gt;Node4</title>
<path fill="none" stroke="#63b8ff" d="M336.33,-188.83C331.75,-158.39 328.02,-99.31 360,-66.5 396.4,-29.16 555.19,-19.52 625.86,-17.07"/>
<polygon fill="#63b8ff" stroke="#63b8ff" points="332.98,-189.04 338.11,-198.31 339.88,-187.87 332.98,-189.04"/>
</g>
<!-- Node22&#45;&gt;Node3 -->
<g id="edge37" class="edge">
<title>Node22&#45;&gt;Node3</title>
<path fill="none" stroke="#63b8ff" d="M960.44,-246.29C968.08,-237.25 977.14,-226.52 983.41,-219.11"/>
<polygon fill="#63b8ff" stroke="#63b8ff" points="957.21,-243.68 953.43,-253.58 962.56,-248.2 957.21,-243.68"/>
</g>
<!-- Node22&#45;&gt;Node4 -->
<g id="edge38" class="edge">
<title>Node22&#45;&gt;Node4</title>
<path fill="none" stroke="#63b8ff" d="M938.41,-244.56C935.33,-236.65 931.83,-227.31 929,-218.75 906.91,-152 937.1,-114.8 886,-66.5 858.61,-40.62 750.11,-25.69 694,-19.56"/>
<polygon fill="#63b8ff" stroke="#63b8ff" points="935.44,-245.56 942.38,-253.57 941.94,-242.98 935.44,-245.56"/>
</g>
<!-- Node23&#45;&gt;Node4 -->
<g id="edge40" class="edge">
<title>Node23&#45;&gt;Node4</title>
<path fill="none" stroke="#63b8ff" d="M461.87,-68.84C509.28,-56.26 582.99,-36.69 625.87,-25.31"/>
<polygon fill="#63b8ff" stroke="#63b8ff" points="461.07,-65.7 452.3,-71.65 462.86,-72.46 461.07,-65.7"/>
</g>
<!-- Node24&#45;&gt;Node4 -->
<g id="edge44" class="edge">
<title>Node24&#45;&gt;Node4</title>
<path fill="none" stroke="#63b8ff" d="M280.65,-429.42C189.09,-412.79 38,-377.56 38,-326.25 38,-326.25 38,-326.25 38,-147.25 38,-26.14 495.28,-16.41 625.67,-16.09"/>
<polygon fill="#63b8ff" stroke="#63b8ff" points="279.77,-433 290.23,-431.31 281,-426.11 279.77,-433"/>
</g>
<!-- Node25&#45;&gt;Node4 -->
<g id="edge61" class="edge">
<title>Node25&#45;&gt;Node4</title>
<path fill="none" stroke="#63b8ff" d="M848.2,-420.83C859.01,-352.03 891.18,-122.13 848,-66.5 829.25,-42.35 743.03,-27.23 694.13,-20.44"/>
<polygon fill="#63b8ff" stroke="#63b8ff" points="844.63,-419.99 846.5,-430.41 851.54,-421.09 844.63,-419.99"/>
</g>
<!-- Node25&#45;&gt;Node7 -->
<g id="edge49" class="edge">
<title>Node25&#45;&gt;Node7</title>
<path fill="none" stroke="#63b8ff" d="M813.07,-427.36C755.73,-403.99 636.68,-355.47 587.26,-335.32"/>
<polygon fill="#63b8ff" stroke="#63b8ff" points="811.45,-430.89 822.03,-431.42 814.09,-424.4 811.45,-430.89"/>
</g>
<!-- Node25&#45;&gt;Node14 -->
<g id="edge48" class="edge">
<title>Node25&#45;&gt;Node14</title>
<path fill="none" stroke="#63b8ff" d="M845.42,-420.67C845.97,-371.25 844.35,-238.48 815,-133 811.47,-120.33 804.92,-106.94 799.55,-97.17"/>
<polygon fill="#63b8ff" stroke="#63b8ff" points="841.91,-420.31 845.25,-430.37 848.91,-420.42 841.91,-420.31"/>
</g>
<!-- Node26 -->
<g id="node26" class="node">
<title>Node26</title>
<g id="a_node26"><a xlink:href="v8-external_8h.html" target="_top" xlink:title=" ">
<polygon fill="white" stroke="#666666" points="1308.25,-395.75 1203.75,-395.75 1203.75,-376.5 1308.25,-376.5 1308.25,-395.75"/>
<text text-anchor="middle" x="1256" y="-382.25" font-family="Helvetica,sans-Serif" font-size="10.00">include/v8&#45;external.h</text>
</a>
</g>
</g>
<!-- Node25&#45;&gt;Node26 -->
<g id="edge46" class="edge">
<title>Node25&#45;&gt;Node26</title>
<path fill="none" stroke="#63b8ff" d="M903.01,-432.86C983.03,-422.49 1126.13,-403.95 1203.27,-393.96"/>
<polygon fill="#63b8ff" stroke="#63b8ff" points="902.61,-429.51 893.15,-434.27 903.51,-436.45 902.61,-429.51"/>
</g>
<!-- Node27 -->
<g id="node27" class="node">
<title>Node27</title>
<g id="a_node27"><a xlink:href="v8-primitive_8h.html" target="_top" xlink:title=" ">
<polygon fill="white" stroke="#666666" points="1152.75,-395.75 1045.25,-395.75 1045.25,-376.5 1152.75,-376.5 1152.75,-395.75"/>
<text text-anchor="middle" x="1099" y="-382.25" font-family="Helvetica,sans-Serif" font-size="10.00">include/v8&#45;primitive.h</text>
</a>
</g>
</g>
<!-- Node25&#45;&gt;Node27 -->
<g id="edge50" class="edge">
<title>Node25&#45;&gt;Node27</title>
<path fill="none" stroke="#63b8ff" d="M898.92,-429.07C945.68,-419.27 1012.49,-405.26 1055.8,-396.18"/>
<polygon fill="#63b8ff" stroke="#63b8ff" points="898.44,-425.8 889.38,-431.28 899.88,-432.66 898.44,-425.8"/>
</g>
<!-- Node26&#45;&gt;Node4 -->
<g id="edge47" class="edge">
<title>Node26&#45;&gt;Node4</title>
<path fill="none" stroke="#63b8ff" d="M1266.79,-366.78C1271.21,-358.85 1276.17,-349.37 1280,-340.5 1312.87,-264.37 1319.65,-244.13 1339,-163.5 1349.11,-121.36 1378.51,-98.24 1349,-66.5 1304.03,-18.13 826.44,-15.8 693.93,-16.09"/>
<polygon fill="#63b8ff" stroke="#63b8ff" points="1263.37,-364.71 1261.44,-375.12 1269.44,-368.18 1263.37,-364.71"/>
</g>
<!-- Node27&#45;&gt;Node4 -->
<g id="edge60" class="edge">
<title>Node27&#45;&gt;Node4</title>
<path fill="none" stroke="#63b8ff" d="M1138.59,-371.82C1154.37,-364.74 1171.48,-354.53 1183,-340.5 1202.58,-316.64 1198.51,-304.53 1203,-274 1215.38,-189.87 1191.8,-104.94 1145,-66.5 1110.25,-37.96 799.01,-22.18 694.24,-17.64"/>
<polygon fill="#63b8ff" stroke="#63b8ff" points="1137.37,-368.96 1129.48,-376.03 1140.06,-375.42 1137.37,-368.96"/>
</g>
<!-- Node27&#45;&gt;Node7 -->
<g id="edge59" class="edge">
<title>Node27&#45;&gt;Node7</title>
<path fill="none" stroke="#63b8ff" d="M1034.08,-377.97C925.72,-366.02 710.38,-342.28 613.83,-331.63"/>
<polygon fill="#63b8ff" stroke="#63b8ff" points="1033.54,-381.54 1043.86,-379.16 1034.3,-374.58 1033.54,-381.54"/>
</g>
<!-- Node27&#45;&gt;Node9 -->
<g id="edge58" class="edge">
<title>Node27&#45;&gt;Node9</title>
<path fill="none" stroke="#63b8ff" d="M1122.29,-369.81C1154.6,-346.5 1206.91,-300.03 1187,-254.75 1166.72,-208.62 1115.2,-173.83 1088.54,-158.25"/>
<polygon fill="#63b8ff" stroke="#63b8ff" points="1120.6,-367.42 1114.4,-376.01 1124.6,-373.16 1120.6,-367.42"/>
</g>
<!-- Node28 -->
<g id="node28" class="node">
<title>Node28</title>
<g id="a_node28"><a xlink:href="v8-extension_8h.html" target="_top" xlink:title=" ">
<polygon fill="white" stroke="#666666" points="1330,-157.88 1218,-157.88 1218,-138.62 1330,-138.62 1330,-157.88"/>
<text text-anchor="middle" x="1274" y="-144.38" font-family="Helvetica,sans-Serif" font-size="10.00">include/v8&#45;extension.h</text>
</a>
</g>
</g>
<!-- Node27&#45;&gt;Node28 -->
<g id="edge51" class="edge">
<title>Node27&#45;&gt;Node28</title>
<path fill="none" stroke="#63b8ff" d="M1163.88,-374.61C1202.25,-366.99 1245.69,-355.4 1258,-340.5 1303.62,-285.27 1283.9,-187.91 1276.41,-158.15"/>
<polygon fill="#63b8ff" stroke="#63b8ff" points="1163.38,-371.34 1154.22,-376.66 1164.7,-378.21 1163.38,-371.34"/>
</g>
<!-- Node29 -->
<g id="node29" class="node">
<title>Node29</title>
<g id="a_node29"><a xlink:href="v8-function-callback_8h.html" target="_top" xlink:title=" ">
<polygon fill="white" stroke="#666666" points="1114.88,-340.5 1017.12,-340.5 1017.12,-310 1114.88,-310 1114.88,-340.5"/>
<text text-anchor="start" x="1025.12" y="-327" font-family="Helvetica,sans-Serif" font-size="10.00">include/v8&#45;function</text>
<text text-anchor="middle" x="1066" y="-315.75" font-family="Helvetica,sans-Serif" font-size="10.00">&#45;callback.h</text>
</a>
</g>
</g>
<!-- Node27&#45;&gt;Node29 -->
<g id="edge53" class="edge">
<title>Node27&#45;&gt;Node29</title>
<path fill="none" stroke="#63b8ff" d="M1088.62,-366.6C1083.95,-358.27 1078.52,-348.58 1074.15,-340.78"/>
<polygon fill="#63b8ff" stroke="#63b8ff" points="1086.05,-368.17 1093.99,-375.18 1092.15,-364.75 1086.05,-368.17"/>
</g>
<!-- Node28&#45;&gt;Node4 -->
<g id="edge52" class="edge">
<title>Node28&#45;&gt;Node4</title>
<path fill="none" stroke="#63b8ff" d="M1257.09,-130.86C1234.62,-109.49 1195.71,-73.95 1178,-66.5 1090.13,-29.55 795.21,-19.37 694.24,-16.94"/>
<polygon fill="#63b8ff" stroke="#63b8ff" points="1254.17,-132.88 1263.81,-137.27 1259.02,-127.83 1254.17,-132.88"/>
</g>
<!-- Node29&#45;&gt;Node3 -->
<g id="edge54" class="edge">
<title>Node29&#45;&gt;Node3</title>
<path fill="none" stroke="#63b8ff" d="M1050.63,-300.87C1034.05,-275.63 1008.47,-236.7 996.96,-219.2"/>
<polygon fill="#63b8ff" stroke="#63b8ff" points="1048.08,-302.36 1056.5,-308.8 1053.93,-298.52 1048.08,-302.36"/>
</g>
<!-- Node29&#45;&gt;Node9 -->
<g id="edge55" class="edge">
<title>Node29&#45;&gt;Node9</title>
<path fill="none" stroke="#63b8ff" d="M1066.87,-298.75C1068.24,-259.02 1070.8,-184.23 1071.69,-158.34"/>
<polygon fill="#63b8ff" stroke="#63b8ff" points="1063.35,-298.52 1066.5,-308.63 1070.34,-298.76 1063.35,-298.52"/>
</g>
<!-- Node29&#45;&gt;Node22 -->
<g id="edge56" class="edge">
<title>Node29&#45;&gt;Node22</title>
<path fill="none" stroke="#63b8ff" d="M1026.43,-304.83C1005.52,-294.58 980.85,-282.47 964.4,-274.4"/>
<polygon fill="#63b8ff" stroke="#63b8ff" points="1024.51,-308.28 1035.03,-309.55 1027.59,-302 1024.51,-308.28"/>
</g>
<!-- Node30 -->
<g id="node30" class="node">
<title>Node30</title>
<g id="a_node30"><a xlink:href="v8-util_8h.html" target="_top" xlink:title=" ">
<polygon fill="white" stroke="#666666" points="1177.75,-274 1094.25,-274 1094.25,-254.75 1177.75,-254.75 1177.75,-274"/>
<text text-anchor="middle" x="1136" y="-260.5" font-family="Helvetica,sans-Serif" font-size="10.00">include/v8&#45;util.h</text>
</a>
</g>
</g>
<!-- Node29&#45;&gt;Node30 -->
<g id="edge57" class="edge">
<title>Node29&#45;&gt;Node30</title>
<path fill="none" stroke="#63b8ff" d="M1091.42,-302.87C1103.06,-293.08 1116.22,-282.01 1125.21,-274.45"/>
<polygon fill="#63b8ff" stroke="#63b8ff" points="1089.7,-300.58 1084.3,-309.7 1094.21,-305.94 1089.7,-300.58"/>
</g>
</g>
</svg>
