<?xml version="1.0" encoding="UTF-8" standalone="no"?>
<!DOCTYPE svg PUBLIC "-//W3C//DTD SVG 1.1//EN"
 "http://www.w3.org/Graphics/SVG/1.1/DTD/svg11.dtd">
<!-- Generated by graphviz version 8.0.5 (20230430.1635)
 -->
<!-- Title: include/v8&#45;primitive.h Pages: 1 -->
<svg width="443pt" height="304pt"
 viewBox="0.00 0.00 442.50 303.50" xmlns="http://www.w3.org/2000/svg" xmlns:xlink="http://www.w3.org/1999/xlink">
<g id="graph0" class="graph" transform="scale(1 1) rotate(0) translate(4 299.5)">
<title>include/v8&#45;primitive.h</title>
<!-- Node1 -->
<g id="node1" class="node">
<title>Node1</title>
<g id="a_node1"><a xlink:title=" ">
<polygon fill="#999999" stroke="#666666" points="262.25,-295.5 154.75,-295.5 154.75,-276.25 262.25,-276.25 262.25,-295.5"/>
<text text-anchor="middle" x="208.5" y="-282" font-family="Helvetica,sans-Serif" font-size="10.00">include/v8&#45;primitive.h</text>
</a>
</g>
</g>
<!-- Node2 -->
<g id="node2" class="node">
<title>Node2</title>
<g id="a_node2"><a xlink:href="v8-data_8h.html" target="_top" xlink:title=" ">
<polygon fill="white" stroke="#666666" points="238.38,-185 182.62,-185 182.62,-165.75 238.38,-165.75 238.38,-185"/>
<text text-anchor="middle" x="210.5" y="-171.5" font-family="Helvetica,sans-Serif" font-size="10.00">v8&#45;data.h</text>
</a>
</g>
</g>
<!-- Node1&#45;&gt;Node2 -->
<g id="edge1" class="edge">
<title>Node1&#45;&gt;Node2</title>
<path fill="none" stroke="#63b8ff" d="M208.66,-276C208.98,-258.67 209.7,-219.98 210.13,-196.24"/>
<polygon fill="#63b8ff" stroke="#63b8ff" points="213.65,-196.44 210.33,-186.38 206.65,-196.31 213.65,-196.44"/>
</g>
<!-- Node3 -->
<g id="node3" class="node">
<title>Node3</title>
<g id="a_node3"><a xlink:href="v8-local-handle_8h.html" target="_top" xlink:title=" ">
<polygon fill="white" stroke="#666666" points="126.88,-129.75 38.12,-129.75 38.12,-110.5 126.88,-110.5 126.88,-129.75"/>
<text text-anchor="middle" x="82.5" y="-116.25" font-family="Helvetica,sans-Serif" font-size="10.00">v8&#45;local&#45;handle.h</text>
</a>
</g>
</g>
<!-- Node1&#45;&gt;Node3 -->
<g id="edge14" class="edge">
<title>Node1&#45;&gt;Node3</title>
<path fill="none" stroke="#63b8ff" d="M189.17,-275.81C174.32,-268.07 154.12,-255.73 140.5,-240.25 114,-210.13 96.69,-165.77 88.35,-140.55"/>
<polygon fill="#63b8ff" stroke="#63b8ff" points="91.41,-139.61 85.06,-131.13 84.73,-141.72 91.41,-139.61"/>
</g>
<!-- Node6 -->
<g id="node6" class="node">
<title>Node6</title>
<g id="a_node6"><a xlink:href="v8-internal_8h.html" target="_top" xlink:title=" ">
<polygon fill="white" stroke="#666666" points="238.75,-74.5 170.25,-74.5 170.25,-55.25 238.75,-55.25 238.75,-74.5"/>
<text text-anchor="middle" x="204.5" y="-61" font-family="Helvetica,sans-Serif" font-size="10.00">v8&#45;internal.h</text>
</a>
</g>
</g>
<!-- Node1&#45;&gt;Node6 -->
<g id="edge13" class="edge">
<title>Node1&#45;&gt;Node6</title>
<path fill="none" stroke="#63b8ff" d="M204.14,-275.79C196.15,-258.57 179.42,-219.78 173.5,-185 167.34,-148.81 183.41,-107.54 194.65,-84.32"/>
<polygon fill="#63b8ff" stroke="#63b8ff" points="198.11,-86.23 199.51,-75.73 191.87,-83.06 198.11,-86.23"/>
</g>
<!-- Node10 -->
<g id="node10" class="node">
<title>Node10</title>
<g id="a_node10"><a xlink:href="v8config_8h.html" target="_top" xlink:title=" ">
<polygon fill="white" stroke="#666666" points="425.25,-19.25 365.75,-19.25 365.75,0 425.25,0 425.25,-19.25"/>
<text text-anchor="middle" x="395.5" y="-5.75" font-family="Helvetica,sans-Serif" font-size="10.00">v8config.h</text>
</a>
</g>
</g>
<!-- Node1&#45;&gt;Node10 -->
<g id="edge23" class="edge">
<title>Node1&#45;&gt;Node10</title>
<path fill="none" stroke="#63b8ff" d="M262.63,-281.98C329.49,-275.15 434.5,-252.32 434.5,-176.38 434.5,-176.38 434.5,-176.38 434.5,-119.12 434.5,-85.73 417.94,-49.79 406.4,-28.8"/>
<polygon fill="#63b8ff" stroke="#63b8ff" points="409.1,-27.46 401.09,-20.52 403.02,-30.94 409.1,-27.46"/>
</g>
<!-- Node11 -->
<g id="node11" class="node">
<title>Node11</title>
<g id="a_node11"><a xlink:href="v8-value_8h.html" target="_top" xlink:title=" ">
<polygon fill="white" stroke="#666666" points="296.62,-240.25 236.38,-240.25 236.38,-221 296.62,-221 296.62,-240.25"/>
<text text-anchor="middle" x="266.5" y="-226.75" font-family="Helvetica,sans-Serif" font-size="10.00">v8&#45;value.h</text>
</a>
</g>
</g>
<!-- Node1&#45;&gt;Node11 -->
<g id="edge15" class="edge">
<title>Node1&#45;&gt;Node11</title>
<path fill="none" stroke="#63b8ff" d="M218.34,-275.84C226.64,-268.22 238.73,-257.12 248.72,-247.95"/>
<polygon fill="#63b8ff" stroke="#63b8ff" points="250.81,-250.87 255.81,-241.52 246.07,-245.71 250.81,-250.87"/>
</g>
<!-- Node2&#45;&gt;Node3 -->
<g id="edge2" class="edge">
<title>Node2&#45;&gt;Node3</title>
<path fill="none" stroke="#63b8ff" d="M188.79,-165.34C168.38,-156.85 137.58,-144.04 114.38,-134.39"/>
<polygon fill="#63b8ff" stroke="#63b8ff" points="115.9,-130.81 105.32,-130.2 113.21,-137.28 115.9,-130.81"/>
</g>
<!-- Node2&#45;&gt;Node10 -->
<g id="edge12" class="edge">
<title>Node2&#45;&gt;Node10</title>
<path fill="none" stroke="#63b8ff" d="M238.62,-171.08C267.15,-166.4 311.04,-155.34 339.5,-129.75 355.25,-115.59 377.54,-59.5 388.65,-29.61"/>
<polygon fill="#63b8ff" stroke="#63b8ff" points="392.17,-31.18 392.33,-20.58 385.6,-28.77 392.17,-31.18"/>
</g>
<!-- Node4 -->
<g id="node4" class="node">
<title>Node4</title>
<g id="a_node4"><a xlink:title=" ">
<polygon fill="#e0e0e0" stroke="#999999" points="129.75,-19.25 79.25,-19.25 79.25,0 129.75,0 129.75,-19.25"/>
<text text-anchor="middle" x="104.5" y="-5.75" font-family="Helvetica,sans-Serif" font-size="10.00">stddef.h</text>
</a>
</g>
</g>
<!-- Node3&#45;&gt;Node4 -->
<g id="edge3" class="edge">
<title>Node3&#45;&gt;Node4</title>
<path fill="none" stroke="#63b8ff" d="M84.3,-110.25C87.83,-92.84 95.73,-53.87 100.54,-30.16"/>
<polygon fill="#63b8ff" stroke="#63b8ff" points="104.12,-31.12 102.67,-20.63 97.26,-29.73 104.12,-31.12"/>
</g>
<!-- Node5 -->
<g id="node5" class="node">
<title>Node5</title>
<g id="a_node5"><a xlink:title=" ">
<polygon fill="#e0e0e0" stroke="#999999" points="61,-19.25 0,-19.25 0,0 61,0 61,-19.25"/>
<text text-anchor="middle" x="30.5" y="-5.75" font-family="Helvetica,sans-Serif" font-size="10.00">type_traits</text>
</a>
</g>
</g>
<!-- Node3&#45;&gt;Node5 -->
<g id="edge4" class="edge">
<title>Node3&#45;&gt;Node5</title>
<path fill="none" stroke="#63b8ff" d="M78.24,-110.25C69.83,-92.68 50.89,-53.16 39.55,-29.52"/>
<polygon fill="#63b8ff" stroke="#63b8ff" points="42.29,-28.13 34.81,-20.63 35.98,-31.16 42.29,-28.13"/>
</g>
<!-- Node3&#45;&gt;Node6 -->
<g id="edge5" class="edge">
<title>Node3&#45;&gt;Node6</title>
<path fill="none" stroke="#63b8ff" d="M103.2,-110.09C122.56,-101.64 151.74,-88.9 173.82,-79.27"/>
<polygon fill="#63b8ff" stroke="#63b8ff" points="174.94,-82.16 182.7,-74.95 172.14,-75.75 174.94,-82.16"/>
</g>
<!-- Node6&#45;&gt;Node4 -->
<g id="edge6" class="edge">
<title>Node6&#45;&gt;Node4</title>
<path fill="none" stroke="#63b8ff" d="M187.54,-54.84C172.09,-46.62 149.04,-34.34 131.14,-24.81"/>
<polygon fill="#63b8ff" stroke="#63b8ff" points="133.02,-21.31 122.55,-19.7 129.73,-27.49 133.02,-21.31"/>
</g>
<!-- Node6&#45;&gt;Node5 -->
<g id="edge9" class="edge">
<title>Node6&#45;&gt;Node5</title>
<path fill="none" stroke="#63b8ff" d="M174.98,-54.84C146.24,-46.04 102.33,-32.61 70.47,-22.86"/>
<polygon fill="#63b8ff" stroke="#63b8ff" points="71.75,-19.28 61.16,-19.7 69.7,-25.98 71.75,-19.28"/>
</g>
<!-- Node7 -->
<g id="node7" class="node">
<title>Node7</title>
<g id="a_node7"><a xlink:title=" ">
<polygon fill="#e0e0e0" stroke="#999999" points="195.25,-19.25 147.75,-19.25 147.75,0 195.25,0 195.25,-19.25"/>
<text text-anchor="middle" x="171.5" y="-5.75" font-family="Helvetica,sans-Serif" font-size="10.00">stdint.h</text>
</a>
</g>
</g>
<!-- Node6&#45;&gt;Node7 -->
<g id="edge7" class="edge">
<title>Node6&#45;&gt;Node7</title>
<path fill="none" stroke="#63b8ff" d="M199.05,-55.08C194.63,-47.96 188.26,-37.68 182.76,-28.8"/>
<polygon fill="#63b8ff" stroke="#63b8ff" points="185.31,-27.27 177.07,-20.61 179.36,-30.95 185.31,-27.27"/>
</g>
<!-- Node8 -->
<g id="node8" class="node">
<title>Node8</title>
<g id="a_node8"><a xlink:title=" ">
<polygon fill="#e0e0e0" stroke="#999999" points="261.25,-19.25 213.75,-19.25 213.75,0 261.25,0 261.25,-19.25"/>
<text text-anchor="middle" x="237.5" y="-5.75" font-family="Helvetica,sans-Serif" font-size="10.00">string.h</text>
</a>
</g>
</g>
<!-- Node6&#45;&gt;Node8 -->
<g id="edge8" class="edge">
<title>Node6&#45;&gt;Node8</title>
<path fill="none" stroke="#63b8ff" d="M209.95,-55.08C214.37,-47.96 220.74,-37.68 226.24,-28.8"/>
<polygon fill="#63b8ff" stroke="#63b8ff" points="229.64,-30.95 231.93,-20.61 223.69,-27.27 229.64,-30.95"/>
</g>
<!-- Node9 -->
<g id="node9" class="node">
<title>Node9</title>
<g id="a_node9"><a xlink:href="v8-version_8h.html" target="_top" xlink:title=" ">
<polygon fill="white" stroke="#666666" points="347.75,-19.25 279.25,-19.25 279.25,0 347.75,0 347.75,-19.25"/>
<text text-anchor="middle" x="313.5" y="-5.75" font-family="Helvetica,sans-Serif" font-size="10.00">v8&#45;version.h</text>
</a>
</g>
</g>
<!-- Node6&#45;&gt;Node9 -->
<g id="edge10" class="edge">
<title>Node6&#45;&gt;Node9</title>
<path fill="none" stroke="#63b8ff" d="M222.99,-54.84C240.06,-46.5 265.66,-34 285.28,-24.41"/>
<polygon fill="#63b8ff" stroke="#63b8ff" points="286.47,-27.24 293.92,-19.7 283.4,-20.95 286.47,-27.24"/>
</g>
<!-- Node6&#45;&gt;Node10 -->
<g id="edge11" class="edge">
<title>Node6&#45;&gt;Node10</title>
<path fill="none" stroke="#63b8ff" d="M236.9,-54.84C269.5,-45.75 319.86,-31.71 355.06,-21.9"/>
<polygon fill="#63b8ff" stroke="#63b8ff" points="355.77,-25.06 364.46,-19 353.89,-18.31 355.77,-25.06"/>
</g>
<!-- Node11&#45;&gt;Node2 -->
<g id="edge16" class="edge">
<title>Node11&#45;&gt;Node2</title>
<path fill="none" stroke="#63b8ff" d="M257,-220.59C248.99,-212.97 237.32,-201.87 227.67,-192.7"/>
<polygon fill="#63b8ff" stroke="#63b8ff" points="230.52,-190.63 220.86,-186.27 225.69,-195.7 230.52,-190.63"/>
</g>
<!-- Node11&#45;&gt;Node3 -->
<g id="edge18" class="edge">
<title>Node11&#45;&gt;Node3</title>
<path fill="none" stroke="#63b8ff" d="M245.31,-220.65C226.12,-212.25 197.3,-198.93 173.5,-185 148.11,-170.13 120.69,-150.33 102.66,-136.73"/>
<polygon fill="#63b8ff" stroke="#63b8ff" points="105.23,-133.52 95.15,-130.25 100.99,-139.09 105.23,-133.52"/>
</g>
<!-- Node11&#45;&gt;Node6 -->
<g id="edge17" class="edge">
<title>Node11&#45;&gt;Node6</title>
<path fill="none" stroke="#63b8ff" d="M264.24,-220.84C260.96,-208.43 254.52,-185.11 247.5,-165.75 237.07,-136.98 222.61,-104.6 213.4,-84.72"/>
<polygon fill="#63b8ff" stroke="#63b8ff" points="216.18,-83.4 208.77,-75.82 209.84,-86.36 216.18,-83.4"/>
</g>
<!-- Node11&#45;&gt;Node10 -->
<g id="edge22" class="edge">
<title>Node11&#45;&gt;Node10</title>
<path fill="none" stroke="#63b8ff" d="M277,-220.68C295.7,-204.28 335.13,-167.6 359.5,-129.75 373.9,-107.39 374.7,-99.93 382.5,-74.5 386.98,-59.91 390.34,-42.96 392.53,-30.19"/>
<polygon fill="#63b8ff" stroke="#63b8ff" points="396.13,-30.87 394.26,-20.44 389.22,-29.75 396.13,-30.87"/>
</g>
<!-- Node12 -->
<g id="node12" class="node">
<title>Node12</title>
<g id="a_node12"><a xlink:href="v8-maybe_8h.html" target="_top" xlink:title=" ">
<polygon fill="white" stroke="#666666" points="330.25,-129.75 264.75,-129.75 264.75,-110.5 330.25,-110.5 330.25,-129.75"/>
<text text-anchor="middle" x="297.5" y="-116.25" font-family="Helvetica,sans-Serif" font-size="10.00">v8&#45;maybe.h</text>
</a>
</g>
</g>
<!-- Node11&#45;&gt;Node12 -->
<g id="edge19" class="edge">
<title>Node11&#45;&gt;Node12</title>
<path fill="none" stroke="#63b8ff" d="M269.4,-220.77C272.32,-211.79 276.88,-197.48 280.5,-185 284.85,-169.98 289.39,-152.85 292.68,-140.11"/>
<polygon fill="#63b8ff" stroke="#63b8ff" points="296.22,-141.39 295.31,-130.84 289.44,-139.66 296.22,-141.39"/>
</g>
<!-- Node12&#45;&gt;Node6 -->
<g id="edge20" class="edge">
<title>Node12&#45;&gt;Node6</title>
<path fill="none" stroke="#63b8ff" d="M281.72,-110.09C267.43,-101.91 246.12,-89.71 229.51,-80.19"/>
<polygon fill="#63b8ff" stroke="#63b8ff" points="231.77,-76.88 221.35,-74.95 228.29,-82.96 231.77,-76.88"/>
</g>
<!-- Node12&#45;&gt;Node10 -->
<g id="edge21" class="edge">
<title>Node12&#45;&gt;Node10</title>
<path fill="none" stroke="#63b8ff" d="M303.03,-110.4C311.31,-97.66 327.73,-73.5 344.5,-55.25 354.01,-44.9 365.75,-34.5 375.56,-26.34"/>
<polygon fill="#63b8ff" stroke="#63b8ff" points="377.37,-28.57 382.92,-19.55 372.95,-23.14 377.37,-28.57"/>
</g>
</g>
</svg>
