<?xml version="1.0" encoding="UTF-8" standalone="no"?>
<!DOCTYPE svg PUBLIC "-//W3C//DTD SVG 1.1//EN"
 "http://www.w3.org/Graphics/SVG/1.1/DTD/svg11.dtd">
<!-- Generated by graphviz version 8.0.5 (20230430.1635)
 -->
<!-- Title: include/v8&#45;statistics.h Pages: 1 -->
<svg width="308pt" height="204pt"
 viewBox="0.00 0.00 307.85 204.25" xmlns="http://www.w3.org/2000/svg" xmlns:xlink="http://www.w3.org/1999/xlink">
<g id="graph0" class="graph" transform="scale(1 1) rotate(0) translate(4 200.25)">
<title>include/v8&#45;statistics.h</title>
<!-- Node1 -->
<g id="node1" class="node">
<title>Node1</title>
<g id="a_node1"><a xlink:title=" ">
<polygon fill="#999999" stroke="#666666" points="282.5,-196.25 172,-196.25 172,-177 282.5,-177 282.5,-196.25"/>
<text text-anchor="middle" x="227.25" y="-182.75" font-family="Helvetica,sans-Serif" font-size="10.00">include/v8&#45;statistics.h</text>
</a>
</g>
</g>
<!-- Node2 -->
<g id="node2" class="node">
<title>Node2</title>
<g id="a_node2"><a xlink:href="v8-isolate_8h.html" target="_top" xlink:title=" ">
<polygon fill="white" stroke="#666666" points="232.88,-141 133.62,-141 133.62,-121.75 232.88,-121.75 232.88,-141"/>
<text text-anchor="middle" x="183.25" y="-127.5" font-family="Helvetica,sans-Serif" font-size="10.00">include/v8&#45;isolate.h</text>
</a>
</g>
</g>
<!-- Node1&#45;&gt;Node2 -->
<g id="edge1" class="edge">
<title>Node1&#45;&gt;Node2</title>
<path fill="none" stroke="#63b8ff" d="M213.13,-168.54C205.67,-159.5 196.8,-148.77 190.67,-141.36"/>
<polygon fill="#63b8ff" stroke="#63b8ff" points="210.92,-170.35 219.98,-175.83 216.31,-165.89 210.92,-170.35"/>
</g>
<!-- Node4 -->
<g id="node4" class="node">
<title>Node4</title>
<g id="a_node4"><a xlink:href="v8_8h.html" target="_top" xlink:title=" ">
<polygon fill="white" stroke="#666666" points="261.12,-24.88 193.38,-24.88 193.38,-5.63 261.12,-5.63 261.12,-24.88"/>
<text text-anchor="middle" x="227.25" y="-11.38" font-family="Helvetica,sans-Serif" font-size="10.00">include/v8.h</text>
</a>
</g>
</g>
<!-- Node1&#45;&gt;Node4 -->
<g id="edge7" class="edge">
<title>Node1&#45;&gt;Node4</title>
<path fill="none" stroke="#63b8ff" d="M244.09,-168.75C261.28,-150.22 286.85,-118.7 297.25,-85.75 299.82,-77.59 301.16,-74.11 297.25,-66.5 287.28,-47.07 265.91,-33.46 249.39,-25.35"/>
<polygon fill="#63b8ff" stroke="#63b8ff" points="242.03,-165.88 237.65,-175.52 247.09,-170.72 242.03,-165.88"/>
</g>
<!-- Node3 -->
<g id="node3" class="node">
<title>Node3</title>
<g id="a_node3"><a xlink:href="v8-initialization_8h.html" target="_top" xlink:title=" ">
<polygon fill="white" stroke="#666666" points="287.75,-85.75 166.75,-85.75 166.75,-66.5 287.75,-66.5 287.75,-85.75"/>
<text text-anchor="middle" x="227.25" y="-72.25" font-family="Helvetica,sans-Serif" font-size="10.00">include/v8&#45;initialization.h</text>
</a>
</g>
</g>
<!-- Node2&#45;&gt;Node3 -->
<g id="edge2" class="edge">
<title>Node2&#45;&gt;Node3</title>
<path fill="none" stroke="#63b8ff" d="M197.37,-113.29C204.83,-104.25 213.7,-93.52 219.83,-86.11"/>
<polygon fill="#63b8ff" stroke="#63b8ff" points="194.19,-110.64 190.52,-120.58 199.58,-115.1 194.19,-110.64"/>
</g>
<!-- Node2&#45;&gt;Node4 -->
<g id="edge6" class="edge">
<title>Node2&#45;&gt;Node4</title>
<path fill="none" stroke="#63b8ff" d="M168.47,-112.96C159.26,-99.89 150.51,-81.7 158.25,-66.5 168.13,-47.08 189.41,-33.4 205.75,-25.26"/>
<polygon fill="#63b8ff" stroke="#63b8ff" points="166.15,-114.68 175.02,-120.46 171.69,-110.4 166.15,-114.68"/>
</g>
<!-- Node5 -->
<g id="node5" class="node">
<title>Node5</title>
<g id="a_node5"><a xlink:href="v8-inspector_8h.html" target="_top" xlink:title=" ">
<polygon fill="white" stroke="#666666" points="110.5,-85.75 0,-85.75 0,-66.5 110.5,-66.5 110.5,-85.75"/>
<text text-anchor="middle" x="55.25" y="-72.25" font-family="Helvetica,sans-Serif" font-size="10.00">include/v8&#45;inspector.h</text>
</a>
</g>
</g>
<!-- Node2&#45;&gt;Node5 -->
<g id="edge4" class="edge">
<title>Node2&#45;&gt;Node5</title>
<path fill="none" stroke="#63b8ff" d="M151.49,-117.16C128.32,-107.52 97.52,-94.71 77.07,-86.2"/>
<polygon fill="#63b8ff" stroke="#63b8ff" points="149.96,-120.73 160.54,-121.34 152.65,-114.27 149.96,-120.73"/>
</g>
<!-- Node3&#45;&gt;Node4 -->
<g id="edge3" class="edge">
<title>Node3&#45;&gt;Node4</title>
<path fill="none" stroke="#63b8ff" d="M227.25,-55.37C227.25,-45.18 227.25,-33.26 227.25,-25.28"/>
<polygon fill="#63b8ff" stroke="#63b8ff" points="223.75,-55.18 227.25,-65.18 230.75,-55.18 223.75,-55.18"/>
</g>
<!-- Node6 -->
<g id="node6" class="node">
<title>Node6</title>
<g id="a_node6"><a xlink:href="v8-inspector-protocol_8h.html" target="_top" xlink:title=" ">
<polygon fill="white" stroke="#666666" points="106.75,-30.5 3.75,-30.5 3.75,0 106.75,0 106.75,-30.5"/>
<text text-anchor="start" x="11.75" y="-17" font-family="Helvetica,sans-Serif" font-size="10.00">include/v8&#45;inspector</text>
<text text-anchor="middle" x="55.25" y="-5.75" font-family="Helvetica,sans-Serif" font-size="10.00">&#45;protocol.h</text>
</a>
</g>
</g>
<!-- Node5&#45;&gt;Node6 -->
<g id="edge5" class="edge">
<title>Node5&#45;&gt;Node6</title>
<path fill="none" stroke="#63b8ff" d="M55.25,-55.2C55.25,-47.2 55.25,-38.15 55.25,-30.78"/>
<polygon fill="#63b8ff" stroke="#63b8ff" points="51.75,-55.18 55.25,-65.18 58.75,-55.18 51.75,-55.18"/>
</g>
</g>
</svg>
