<?xml version="1.0" encoding="UTF-8" standalone="no"?>
<!DOCTYPE svg PUBLIC "-//W3C//DTD SVG 1.1//EN"
 "http://www.w3.org/Graphics/SVG/1.1/DTD/svg11.dtd">
<!-- Generated by graphviz version 8.0.5 (20230430.1635)
 -->
<!-- Title: include/v8&#45;version.h Pages: 1 -->
<svg width="3230pt" height="703pt"
 viewBox="0.00 0.00 3229.62 702.50" xmlns="http://www.w3.org/2000/svg" xmlns:xlink="http://www.w3.org/1999/xlink">
<g id="graph0" class="graph" transform="scale(1 1) rotate(0) translate(4 698.5)">
<title>include/v8&#45;version.h</title>
<!-- Node1 -->
<g id="node1" class="node">
<title>Node1</title>
<g id="a_node1"><a xlink:title=" ">
<polygon fill="#999999" stroke="#666666" points="3150.38,-694.5 3048.12,-694.5 3048.12,-675.25 3150.38,-675.25 3150.38,-694.5"/>
<text text-anchor="middle" x="3099.25" y="-681" font-family="Helvetica,sans-Serif" font-size="10.00">include/v8&#45;version.h</text>
</a>
</g>
</g>
<!-- Node2 -->
<g id="node2" class="node">
<title>Node2</title>
<g id="a_node2"><a xlink:href="v8-internal_8h.html" target="_top" xlink:title=" ">
<polygon fill="white" stroke="#666666" points="2439.38,-633.62 2337.12,-633.62 2337.12,-614.38 2439.38,-614.38 2439.38,-633.62"/>
<text text-anchor="middle" x="2388.25" y="-620.12" font-family="Helvetica,sans-Serif" font-size="10.00">include/v8&#45;internal.h</text>
</a>
</g>
</g>
<!-- Node1&#45;&gt;Node2 -->
<g id="edge1" class="edge">
<title>Node1&#45;&gt;Node2</title>
<path fill="none" stroke="#63b8ff" d="M3037.02,-678.72C2898.65,-667.26 2567.62,-639.85 2439.82,-629.27"/>
<polygon fill="#63b8ff" stroke="#63b8ff" points="3036.58,-682.28 3046.83,-679.62 3037.15,-675.3 3036.58,-682.28"/>
</g>
<!-- Node6 -->
<g id="node6" class="node">
<title>Node6</title>
<g id="a_node6"><a xlink:href="v8_8h.html" target="_top" xlink:title=" ">
<polygon fill="white" stroke="#666666" points="1926.12,-24.88 1858.38,-24.88 1858.38,-5.63 1926.12,-5.63 1926.12,-24.88"/>
<text text-anchor="middle" x="1892.25" y="-11.38" font-family="Helvetica,sans-Serif" font-size="10.00">include/v8.h</text>
</a>
</g>
</g>
<!-- Node1&#45;&gt;Node6 -->
<g id="edge144" class="edge">
<title>Node1&#45;&gt;Node6</title>
<path fill="none" stroke="#63b8ff" d="M3099.25,-664.15C3099.25,-640.42 3099.25,-599.36 3099.25,-564.12 3099.25,-564.12 3099.25,-564.12 3099.25,-136 3099.25,-117.33 3161.27,-117.5 2962.25,-66.5 2759.58,-14.57 2086.62,-15.11 1926.6,-16"/>
<polygon fill="#63b8ff" stroke="#63b8ff" points="3095.75,-663.86 3099.25,-673.86 3102.75,-663.86 3095.75,-663.86"/>
</g>
<!-- Node48 -->
<g id="node48" class="node">
<title>Node48</title>
<g id="a_node48"><a xlink:href="v8-version-string_8h.html" target="_top" xlink:title=" ">
<polygon fill="white" stroke="#666666" points="3221.62,-639.25 3126.88,-639.25 3126.88,-608.75 3221.62,-608.75 3221.62,-639.25"/>
<text text-anchor="start" x="3134.88" y="-625.75" font-family="Helvetica,sans-Serif" font-size="10.00">include/v8&#45;version</text>
<text text-anchor="middle" x="3174.25" y="-614.5" font-family="Helvetica,sans-Serif" font-size="10.00">&#45;string.h</text>
</a>
</g>
</g>
<!-- Node1&#45;&gt;Node48 -->
<g id="edge143" class="edge">
<title>Node1&#45;&gt;Node48</title>
<path fill="none" stroke="#63b8ff" d="M3119.04,-668.34C3130.41,-659.42 3144.59,-648.28 3155.74,-639.53"/>
<polygon fill="#63b8ff" stroke="#63b8ff" points="3117.35,-666.01 3111.64,-674.93 3121.67,-671.51 3117.35,-666.01"/>
</g>
<!-- Node3 -->
<g id="node3" class="node">
<title>Node3</title>
<g id="a_node3"><a xlink:href="v8-cppgc_8h.html" target="_top" xlink:title=" ">
<polygon fill="white" stroke="#666666" points="3032.75,-456.62 2935.75,-456.62 2935.75,-437.38 3032.75,-437.38 3032.75,-456.62"/>
<text text-anchor="middle" x="2984.25" y="-443.12" font-family="Helvetica,sans-Serif" font-size="10.00">include/v8&#45;cppgc.h</text>
</a>
</g>
</g>
<!-- Node2&#45;&gt;Node3 -->
<g id="edge2" class="edge">
<title>Node2&#45;&gt;Node3</title>
<path fill="none" stroke="#63b8ff" d="M2450.42,-616.82C2575.94,-603.4 2854.48,-568.67 2934.25,-517.5 2957.77,-502.41 2973.71,-472 2980.52,-456.91"/>
<polygon fill="#63b8ff" stroke="#63b8ff" points="2450.06,-613.44 2440.48,-617.97 2450.8,-620.4 2450.06,-613.44"/>
</g>
<!-- Node4 -->
<g id="node4" class="node">
<title>Node4</title>
<g id="a_node4"><a xlink:href="v8-fast-api-calls_8h.html" target="_top" xlink:title=" ">
<polygon fill="white" stroke="#666666" points="731,-152.25 635.5,-152.25 635.5,-121.75 731,-121.75 731,-152.25"/>
<text text-anchor="start" x="643.5" y="-138.75" font-family="Helvetica,sans-Serif" font-size="10.00">include/v8&#45;fast&#45;api</text>
<text text-anchor="middle" x="683.25" y="-127.5" font-family="Helvetica,sans-Serif" font-size="10.00">&#45;calls.h</text>
</a>
</g>
</g>
<!-- Node2&#45;&gt;Node4 -->
<g id="edge3" class="edge">
<title>Node2&#45;&gt;Node4</title>
<path fill="none" stroke="#63b8ff" d="M2325.98,-622.61C1960.06,-620.24 103.9,-606.51 56.25,-572.75 31.51,-555.22 32.25,-539.2 32.25,-508.88 32.25,-508.88 32.25,-508.88 32.25,-446 32.25,-179.21 484.51,-143.19 635.12,-138.58"/>
<polygon fill="#63b8ff" stroke="#63b8ff" points="2325.85,-626.12 2335.87,-622.69 2325.89,-619.12 2325.85,-626.12"/>
</g>
<!-- Node5 -->
<g id="node5" class="node">
<title>Node5</title>
<g id="a_node5"><a xlink:href="v8-initialization_8h.html" target="_top" xlink:title=" ">
<polygon fill="white" stroke="#666666" points="536.75,-85.75 415.75,-85.75 415.75,-66.5 536.75,-66.5 536.75,-85.75"/>
<text text-anchor="middle" x="476.25" y="-72.25" font-family="Helvetica,sans-Serif" font-size="10.00">include/v8&#45;initialization.h</text>
</a>
</g>
</g>
<!-- Node2&#45;&gt;Node5 -->
<g id="edge4" class="edge">
<title>Node2&#45;&gt;Node5</title>
<path fill="none" stroke="#63b8ff" d="M2325.87,-623.28C1956.32,-624.52 70.25,-625.18 70.25,-508.88 70.25,-508.88 70.25,-508.88 70.25,-196.88 70.25,-125.78 302.21,-93.74 415.47,-82.34"/>
<polygon fill="#63b8ff" stroke="#63b8ff" points="2325.87,-626.77 2335.86,-623.24 2325.85,-619.77 2325.87,-626.77"/>
</g>
<!-- Node2&#45;&gt;Node6 -->
<g id="edge142" class="edge">
<title>Node2&#45;&gt;Node6</title>
<path fill="none" stroke="#63b8ff" d="M2450.22,-618.98C2616.72,-607.34 3061.25,-570.52 3061.25,-508.88 3061.25,-508.88 3061.25,-508.88 3061.25,-136 3061.25,-18.82 2119.7,-15.52 1926.6,-16.07"/>
<polygon fill="#63b8ff" stroke="#63b8ff" points="2450.4,-615.53 2440.66,-619.71 2450.88,-622.51 2450.4,-615.53"/>
</g>
<!-- Node7 -->
<g id="node7" class="node">
<title>Node7</title>
<g id="a_node7"><a xlink:href="v8-isolate_8h.html" target="_top" xlink:title=" ">
<polygon fill="white" stroke="#666666" points="848.88,-146.62 749.62,-146.62 749.62,-127.38 848.88,-127.38 848.88,-146.62"/>
<text text-anchor="middle" x="799.25" y="-133.12" font-family="Helvetica,sans-Serif" font-size="10.00">include/v8&#45;isolate.h</text>
</a>
</g>
</g>
<!-- Node2&#45;&gt;Node7 -->
<g id="edge6" class="edge">
<title>Node2&#45;&gt;Node7</title>
<path fill="none" stroke="#63b8ff" d="M2325.81,-623.07C1969.98,-623.07 214.25,-617.56 214.25,-508.88 214.25,-508.88 214.25,-508.88 214.25,-446 214.25,-388.19 613.94,-212.86 666.25,-188.25 701.65,-171.59 744.2,-156.3 771.47,-147.07"/>
<polygon fill="#63b8ff" stroke="#63b8ff" points="2325.66,-626.57 2335.65,-623.07 2325.65,-619.57 2325.66,-626.57"/>
</g>
<!-- Node10 -->
<g id="node10" class="node">
<title>Node10</title>
<g id="a_node10"><a xlink:href="v8-local-handle_8h.html" target="_top" xlink:title=" ">
<polygon fill="white" stroke="#666666" points="1524.5,-572.75 1402,-572.75 1402,-553.5 1524.5,-553.5 1524.5,-572.75"/>
<text text-anchor="middle" x="1463.25" y="-559.25" font-family="Helvetica,sans-Serif" font-size="10.00">include/v8&#45;local&#45;handle.h</text>
</a>
</g>
</g>
<!-- Node2&#45;&gt;Node10 -->
<g id="edge11" class="edge">
<title>Node2&#45;&gt;Node10</title>
<path fill="none" stroke="#63b8ff" d="M2325.95,-619.03C2157.17,-608.29 1692.55,-578.72 1524.73,-568.04"/>
<polygon fill="#63b8ff" stroke="#63b8ff" points="2325.67,-622.59 2335.87,-619.73 2326.11,-615.6 2325.67,-622.59"/>
</g>
<!-- Node18 -->
<g id="node18" class="node">
<title>Node18</title>
<g id="a_node18"><a xlink:href="v8-primitive_8h.html" target="_top" xlink:title=" ">
<polygon fill="white" stroke="#666666" points="1637,-395.75 1529.5,-395.75 1529.5,-376.5 1637,-376.5 1637,-395.75"/>
<text text-anchor="middle" x="1583.25" y="-382.25" font-family="Helvetica,sans-Serif" font-size="10.00">include/v8&#45;primitive.h</text>
</a>
</g>
</g>
<!-- Node2&#45;&gt;Node18 -->
<g id="edge138" class="edge">
<title>Node2&#45;&gt;Node18</title>
<path fill="none" stroke="#63b8ff" d="M2340.26,-611.36C2238.76,-586.45 1995.19,-525.11 1794.25,-462.25 1725.41,-440.72 1645.55,-410.94 1606.78,-396.18"/>
<polygon fill="#63b8ff" stroke="#63b8ff" points="2339.23,-614.96 2349.77,-613.94 2340.89,-608.16 2339.23,-614.96"/>
</g>
<!-- Node32 -->
<g id="node32" class="node">
<title>Node32</title>
<g id="a_node32"><a xlink:href="v8-value_8h.html" target="_top" xlink:title=" ">
<polygon fill="white" stroke="#666666" points="2059.25,-456.62 1965.25,-456.62 1965.25,-437.38 2059.25,-437.38 2059.25,-456.62"/>
<text text-anchor="middle" x="2012.25" y="-443.12" font-family="Helvetica,sans-Serif" font-size="10.00">include/v8&#45;value.h</text>
</a>
</g>
</g>
<!-- Node2&#45;&gt;Node32 -->
<g id="edge141" class="edge">
<title>Node2&#45;&gt;Node32</title>
<path fill="none" stroke="#63b8ff" d="M2394.38,-603.46C2401.6,-576.12 2409.57,-526.63 2383.25,-498.25 2336.1,-447.39 2141.57,-474.16 2073.25,-462.25 2065.11,-460.83 2056.42,-459 2048.24,-457.12"/>
<polygon fill="#63b8ff" stroke="#63b8ff" points="2390.74,-602.42 2391.33,-613 2397.47,-604.36 2390.74,-602.42"/>
</g>
<!-- Node41 -->
<g id="node41" class="node">
<title>Node41</title>
<g id="a_node41"><a xlink:href="v8-metrics_8h.html" target="_top" xlink:title=" ">
<polygon fill="white" stroke="#666666" points="2340.75,-517.5 2237.75,-517.5 2237.75,-498.25 2340.75,-498.25 2340.75,-517.5"/>
<text text-anchor="middle" x="2289.25" y="-504" font-family="Helvetica,sans-Serif" font-size="10.00">include/v8&#45;metrics.h</text>
</a>
</g>
</g>
<!-- Node2&#45;&gt;Node41 -->
<g id="edge136" class="edge">
<title>Node2&#45;&gt;Node41</title>
<path fill="none" stroke="#63b8ff" d="M2373.48,-605.97C2352.13,-581.37 2313.43,-536.75 2296.98,-517.79"/>
<polygon fill="#63b8ff" stroke="#63b8ff" points="2371.28,-607.78 2380.48,-613.04 2376.57,-603.2 2371.28,-607.78"/>
</g>
<!-- Node43 -->
<g id="node43" class="node">
<title>Node43</title>
<g id="a_node43"><a xlink:href="v8-persistent-handle_8h.html" target="_top" xlink:title=" ">
<polygon fill="white" stroke="#666666" points="1909.25,-462.25 1803.25,-462.25 1803.25,-431.75 1909.25,-431.75 1909.25,-462.25"/>
<text text-anchor="start" x="1811.25" y="-448.75" font-family="Helvetica,sans-Serif" font-size="10.00">include/v8&#45;persistent</text>
<text text-anchor="middle" x="1856.25" y="-437.5" font-family="Helvetica,sans-Serif" font-size="10.00">&#45;handle.h</text>
</a>
</g>
</g>
<!-- Node2&#45;&gt;Node43 -->
<g id="edge137" class="edge">
<title>Node2&#45;&gt;Node43</title>
<path fill="none" stroke="#63b8ff" d="M2388.54,-603.08C2387.77,-574.88 2381.76,-523.89 2350.25,-498.25 2282.06,-442.75 2043.58,-472.45 1956.25,-462.25 1941.1,-460.48 1924.69,-458.27 1909.64,-456.12"/>
<polygon fill="#63b8ff" stroke="#63b8ff" points="2385.05,-602.97 2388.61,-612.95 2392.05,-602.93 2385.05,-602.97"/>
</g>
<!-- Node44 -->
<g id="node44" class="node">
<title>Node44</title>
<g id="a_node44"><a xlink:href="v8-snapshot_8h.html" target="_top" xlink:title=" ">
<polygon fill="white" stroke="#666666" points="2777.5,-517.5 2667,-517.5 2667,-498.25 2777.5,-498.25 2777.5,-517.5"/>
<text text-anchor="middle" x="2722.25" y="-504" font-family="Helvetica,sans-Serif" font-size="10.00">include/v8&#45;snapshot.h</text>
</a>
</g>
</g>
<!-- Node2&#45;&gt;Node44 -->
<g id="edge139" class="edge">
<title>Node2&#45;&gt;Node44</title>
<path fill="none" stroke="#63b8ff" d="M2424.96,-610.46C2492.83,-587.26 2636.44,-538.2 2695.76,-517.93"/>
<polygon fill="#63b8ff" stroke="#63b8ff" points="2424.07,-607.4 2415.74,-613.95 2426.33,-614.03 2424.07,-607.4"/>
</g>
<!-- Node45 -->
<g id="node45" class="node">
<title>Node45</title>
<g id="a_node45"><a xlink:href="v8-traced-handle_8h.html" target="_top" xlink:title=" ">
<polygon fill="white" stroke="#666666" points="2924.88,-517.5 2795.62,-517.5 2795.62,-498.25 2924.88,-498.25 2924.88,-517.5"/>
<text text-anchor="middle" x="2860.25" y="-504" font-family="Helvetica,sans-Serif" font-size="10.00">include/v8&#45;traced&#45;handle.h</text>
</a>
</g>
</g>
<!-- Node2&#45;&gt;Node45 -->
<g id="edge140" class="edge">
<title>Node2&#45;&gt;Node45</title>
<path fill="none" stroke="#63b8ff" d="M2436.33,-611.37C2530.59,-588.58 2737.87,-538.47 2822.81,-517.93"/>
<polygon fill="#63b8ff" stroke="#63b8ff" points="2435.58,-608.2 2426.68,-613.95 2437.22,-615 2435.58,-608.2"/>
</g>
<!-- Node47 -->
<g id="node47" class="node">
<title>Node47</title>
<g id="a_node47"><a xlink:href="v8-maybe_8h.html" target="_top" xlink:title=" ">
<polygon fill="white" stroke="#666666" points="2534.88,-517.5 2435.62,-517.5 2435.62,-498.25 2534.88,-498.25 2534.88,-517.5"/>
<text text-anchor="middle" x="2485.25" y="-504" font-family="Helvetica,sans-Serif" font-size="10.00">include/v8&#45;maybe.h</text>
</a>
</g>
</g>
<!-- Node2&#45;&gt;Node47 -->
<g id="edge129" class="edge">
<title>Node2&#45;&gt;Node47</title>
<path fill="none" stroke="#63b8ff" d="M2402.72,-605.97C2423.64,-581.37 2461.56,-536.75 2477.67,-517.79"/>
<polygon fill="#63b8ff" stroke="#63b8ff" points="2399.67,-603.16 2395.86,-613.04 2405,-607.69 2399.67,-603.16"/>
</g>
<!-- Node5&#45;&gt;Node6 -->
<g id="edge5" class="edge">
<title>Node5&#45;&gt;Node6</title>
<path fill="none" stroke="#63b8ff" d="M547.79,-66.77C548.95,-66.68 550.11,-66.59 551.25,-66.5 1070.45,-26.98 1705.2,-18.16 1858,-16.56"/>
<polygon fill="#63b8ff" stroke="#63b8ff" points="547.85,-63.34 538.2,-67.72 548.47,-70.32 547.85,-63.34"/>
</g>
<!-- Node7&#45;&gt;Node5 -->
<g id="edge7" class="edge">
<title>Node7&#45;&gt;Node5</title>
<path fill="none" stroke="#63b8ff" d="M752.91,-124.49C748.64,-123.52 744.37,-122.59 740.25,-121.75 670.92,-107.54 590.68,-94.45 537.03,-86.17"/>
<polygon fill="#63b8ff" stroke="#63b8ff" points="751.93,-128.08 762.46,-126.93 753.51,-121.26 751.93,-128.08"/>
</g>
<!-- Node7&#45;&gt;Node6 -->
<g id="edge10" class="edge">
<title>Node7&#45;&gt;Node6</title>
<path fill="none" stroke="#63b8ff" d="M823.75,-121.68C853.65,-105.02 906.3,-78.29 955.25,-66.5 1131.84,-23.97 1711.78,-17.4 1858.36,-16.42"/>
<polygon fill="#63b8ff" stroke="#63b8ff" points="822.49,-118.93 815.52,-126.91 825.94,-125.02 822.49,-118.93"/>
</g>
<!-- Node8 -->
<g id="node8" class="node">
<title>Node8</title>
<g id="a_node8"><a xlink:href="v8-inspector_8h.html" target="_top" xlink:title=" ">
<polygon fill="white" stroke="#666666" points="110.5,-85.75 0,-85.75 0,-66.5 110.5,-66.5 110.5,-85.75"/>
<text text-anchor="middle" x="55.25" y="-72.25" font-family="Helvetica,sans-Serif" font-size="10.00">include/v8&#45;inspector.h</text>
</a>
</g>
</g>
<!-- Node7&#45;&gt;Node8 -->
<g id="edge8" class="edge">
<title>Node7&#45;&gt;Node8</title>
<path fill="none" stroke="#63b8ff" d="M755.63,-124.54C750.47,-123.46 745.26,-122.49 740.25,-121.75 466.79,-81.13 394.44,-112.23 119.25,-85.75 116.46,-85.48 113.6,-85.18 110.72,-84.86"/>
<polygon fill="#63b8ff" stroke="#63b8ff" points="754.54,-128.11 765.07,-126.88 756.08,-121.28 754.54,-128.11"/>
</g>
<!-- Node9 -->
<g id="node9" class="node">
<title>Node9</title>
<g id="a_node9"><a xlink:href="v8-inspector-protocol_8h.html" target="_top" xlink:title=" ">
<polygon fill="white" stroke="#666666" points="106.75,-30.5 3.75,-30.5 3.75,0 106.75,0 106.75,-30.5"/>
<text text-anchor="start" x="11.75" y="-17" font-family="Helvetica,sans-Serif" font-size="10.00">include/v8&#45;inspector</text>
<text text-anchor="middle" x="55.25" y="-5.75" font-family="Helvetica,sans-Serif" font-size="10.00">&#45;protocol.h</text>
</a>
</g>
</g>
<!-- Node8&#45;&gt;Node9 -->
<g id="edge9" class="edge">
<title>Node8&#45;&gt;Node9</title>
<path fill="none" stroke="#63b8ff" d="M55.25,-55.2C55.25,-47.2 55.25,-38.15 55.25,-30.78"/>
<polygon fill="#63b8ff" stroke="#63b8ff" points="51.75,-55.18 55.25,-65.18 58.75,-55.18 51.75,-55.18"/>
</g>
<!-- Node10&#45;&gt;Node4 -->
<g id="edge83" class="edge">
<title>Node10&#45;&gt;Node4</title>
<path fill="none" stroke="#63b8ff" d="M1390.63,-561.29C1206.74,-558.73 732.81,-549.11 669.25,-517.5 632.97,-499.46 610.25,-488.52 610.25,-448 610.25,-448 610.25,-448 610.25,-257.75 610.25,-214.41 645.54,-173.45 667.05,-152.51"/>
<polygon fill="#63b8ff" stroke="#63b8ff" points="1390.48,-564.81 1400.53,-561.44 1390.58,-557.81 1390.48,-564.81"/>
</g>
<!-- Node10&#45;&gt;Node6 -->
<g id="edge128" class="edge">
<title>Node10&#45;&gt;Node6</title>
<path fill="none" stroke="#63b8ff" d="M1390.96,-562.24C1170.21,-562.16 514.55,-558.42 428.25,-517.5 390.85,-499.77 366.25,-489.39 366.25,-448 366.25,-448 366.25,-448 366.25,-385.12 366.25,-313.76 353.54,-114.61 406.25,-66.5 461.63,-15.95 1640.86,-15.77 1858.03,-16.16"/>
<polygon fill="#63b8ff" stroke="#63b8ff" points="1390.77,-565.74 1400.77,-562.24 1390.77,-558.74 1390.77,-565.74"/>
</g>
<!-- Node10&#45;&gt;Node7 -->
<g id="edge88" class="edge">
<title>Node10&#45;&gt;Node7</title>
<path fill="none" stroke="#63b8ff" d="M1390.76,-562.64C1273.36,-562.2 1034.86,-556.06 837.25,-517.5 749.41,-500.36 648.25,-537.5 648.25,-448 648.25,-448 648.25,-448 648.25,-257.75 648.25,-197.02 724.15,-162.21 768.33,-147.09"/>
<polygon fill="#63b8ff" stroke="#63b8ff" points="1390.72,-566.14 1400.73,-562.66 1390.74,-559.14 1390.72,-566.14"/>
</g>
<!-- Node10&#45;&gt;Node8 -->
<g id="edge87" class="edge">
<title>Node10&#45;&gt;Node8</title>
<path fill="none" stroke="#63b8ff" d="M1391.1,-560.96C1149.67,-556.87 379.16,-542.01 270.25,-517.5 193.81,-500.3 108.25,-526.35 108.25,-448 108.25,-448 108.25,-448 108.25,-196.88 108.25,-152.09 76.86,-105.32 62.4,-86.14"/>
<polygon fill="#63b8ff" stroke="#63b8ff" points="1390.79,-564.48 1400.85,-561.15 1390.91,-557.48 1390.79,-564.48"/>
</g>
<!-- Node11 -->
<g id="node11" class="node">
<title>Node11</title>
<g id="a_node11"><a xlink:href="v8-array-buffer_8h.html" target="_top" xlink:title=" ">
<polygon fill="white" stroke="#666666" points="1022.62,-268.38 903.88,-268.38 903.88,-249.12 1022.62,-249.12 1022.62,-268.38"/>
<text text-anchor="middle" x="963.25" y="-254.88" font-family="Helvetica,sans-Serif" font-size="10.00">include/v8&#45;array&#45;buffer.h</text>
</a>
</g>
</g>
<!-- Node10&#45;&gt;Node11 -->
<g id="edge12" class="edge">
<title>Node10&#45;&gt;Node11</title>
<path fill="none" stroke="#63b8ff" d="M1391.11,-562.89C1289.55,-562.54 1111.2,-556.19 1061.25,-517.5 977.23,-452.42 965.23,-306.38 963.53,-268.74"/>
<polygon fill="#63b8ff" stroke="#63b8ff" points="1390.89,-566.39 1400.9,-562.91 1390.9,-559.39 1390.89,-566.39"/>
</g>
<!-- Node12 -->
<g id="node12" class="node">
<title>Node12</title>
<g id="a_node12"><a xlink:href="v8-typed-array_8h.html" target="_top" xlink:title=" ">
<polygon fill="white" stroke="#666666" points="946.25,-207.5 828.25,-207.5 828.25,-188.25 946.25,-188.25 946.25,-207.5"/>
<text text-anchor="middle" x="887.25" y="-194" font-family="Helvetica,sans-Serif" font-size="10.00">include/v8&#45;typed&#45;array.h</text>
</a>
</g>
</g>
<!-- Node10&#45;&gt;Node12 -->
<g id="edge123" class="edge">
<title>Node10&#45;&gt;Node12</title>
<path fill="none" stroke="#63b8ff" d="M1390.88,-561.29C1285.79,-558.94 1097.05,-550.16 1038.25,-517.5 981.49,-485.97 910.03,-365.52 885.25,-274 878.98,-250.83 882.75,-222.16 885.38,-207.86"/>
<polygon fill="#63b8ff" stroke="#63b8ff" points="1390.65,-564.8 1400.72,-561.51 1390.79,-557.8 1390.65,-564.8"/>
</g>
<!-- Node13 -->
<g id="node13" class="node">
<title>Node13</title>
<g id="a_node13"><a xlink:href="v8-callbacks_8h.html" target="_top" xlink:title=" ">
<polygon fill="white" stroke="#666666" points="788.25,-456.62 676.25,-456.62 676.25,-437.38 788.25,-437.38 788.25,-456.62"/>
<text text-anchor="middle" x="732.25" y="-443.12" font-family="Helvetica,sans-Serif" font-size="10.00">include/v8&#45;callbacks.h</text>
</a>
</g>
</g>
<!-- Node10&#45;&gt;Node13 -->
<g id="edge18" class="edge">
<title>Node10&#45;&gt;Node13</title>
<path fill="none" stroke="#63b8ff" d="M1391.26,-559.31C1260.5,-553.73 989.01,-539.83 897.25,-517.5 840.17,-503.61 777.44,-472.35 748.51,-456.94"/>
<polygon fill="#63b8ff" stroke="#63b8ff" points="1390.81,-562.84 1400.95,-559.76 1391.11,-555.85 1390.81,-562.84"/>
</g>
<!-- Node14 -->
<g id="node14" class="node">
<title>Node14</title>
<g id="a_node14"><a xlink:href="v8-container_8h.html" target="_top" xlink:title=" ">
<polygon fill="white" stroke="#666666" points="2340.5,-268.38 2230,-268.38 2230,-249.12 2340.5,-249.12 2340.5,-268.38"/>
<text text-anchor="middle" x="2285.25" y="-254.88" font-family="Helvetica,sans-Serif" font-size="10.00">include/v8&#45;container.h</text>
</a>
</g>
</g>
<!-- Node10&#45;&gt;Node14 -->
<g id="edge20" class="edge">
<title>Node10&#45;&gt;Node14</title>
<path fill="none" stroke="#63b8ff" d="M1535.51,-562.82C1672.32,-563.13 1963.63,-558.73 2054.25,-517.5 2176.22,-462 2260.98,-307.61 2280.8,-268.73"/>
<polygon fill="#63b8ff" stroke="#63b8ff" points="1535.75,-559.31 1525.74,-562.78 1535.73,-566.31 1535.75,-559.31"/>
</g>
<!-- Node15 -->
<g id="node15" class="node">
<title>Node15</title>
<g id="a_node15"><a xlink:href="v8-context_8h.html" target="_top" xlink:title=" ">
<polygon fill="white" stroke="#666666" points="2573.38,-456.62 2471.12,-456.62 2471.12,-437.38 2573.38,-437.38 2573.38,-456.62"/>
<text text-anchor="middle" x="2522.25" y="-443.12" font-family="Helvetica,sans-Serif" font-size="10.00">include/v8&#45;context.h</text>
</a>
</g>
</g>
<!-- Node10&#45;&gt;Node15 -->
<g id="edge22" class="edge">
<title>Node10&#45;&gt;Node15</title>
<path fill="none" stroke="#63b8ff" d="M1535.8,-561.86C1772.53,-560.62 2509.35,-553.88 2544.25,-517.5 2560.55,-500.51 2541.55,-471.52 2529.94,-456.94"/>
<polygon fill="#63b8ff" stroke="#63b8ff" points="1535.89,-558.36 1525.91,-561.91 1535.92,-565.36 1535.89,-558.36"/>
</g>
<!-- Node16 -->
<g id="node16" class="node">
<title>Node16</title>
<g id="a_node16"><a xlink:href="v8-proxy_8h.html" target="_top" xlink:title=" ">
<polygon fill="white" stroke="#666666" points="2679.88,-268.38 2586.62,-268.38 2586.62,-249.12 2679.88,-249.12 2679.88,-268.38"/>
<text text-anchor="middle" x="2633.25" y="-254.88" font-family="Helvetica,sans-Serif" font-size="10.00">include/v8&#45;proxy.h</text>
</a>
</g>
</g>
<!-- Node10&#45;&gt;Node16 -->
<g id="edge110" class="edge">
<title>Node10&#45;&gt;Node16</title>
<path fill="none" stroke="#63b8ff" d="M1535.64,-561.36C1773.72,-558.57 2519.65,-547.46 2561.25,-517.5 2645.14,-457.09 2637.59,-306.98 2634.18,-268.73"/>
<polygon fill="#63b8ff" stroke="#63b8ff" points="1535.65,-557.87 1525.69,-561.49 1535.73,-564.87 1535.65,-557.87"/>
</g>
<!-- Node17 -->
<g id="node17" class="node">
<title>Node17</title>
<g id="a_node17"><a xlink:href="v8-data_8h.html" target="_top" xlink:title=" ">
<polygon fill="white" stroke="#666666" points="1657,-517.5 1567.5,-517.5 1567.5,-498.25 1657,-498.25 1657,-517.5"/>
<text text-anchor="middle" x="1612.25" y="-504" font-family="Helvetica,sans-Serif" font-size="10.00">include/v8&#45;data.h</text>
</a>
</g>
</g>
<!-- Node10&#45;&gt;Node17 -->
<g id="edge26" class="edge">
<title>Node10&#45;&gt;Node17</title>
<path fill="none" stroke="#63b8ff" d="M1498.77,-549.43C1525.89,-539.74 1562.62,-526.61 1586.85,-517.95"/>
<polygon fill="#63b8ff" stroke="#63b8ff" points="1497.76,-546.43 1489.53,-553.09 1500.12,-553.02 1497.76,-546.43"/>
</g>
<!-- Node10&#45;&gt;Node18 -->
<g id="edge107" class="edge">
<title>Node10&#45;&gt;Node18</title>
<path fill="none" stroke="#63b8ff" d="M1475.29,-544.56C1500.48,-507.82 1557.97,-423.99 1577,-396.24"/>
<polygon fill="#63b8ff" stroke="#63b8ff" points="1472.13,-541.98 1469.37,-552.21 1477.91,-545.94 1472.13,-541.98"/>
</g>
<!-- Node19 -->
<g id="node19" class="node">
<title>Node19</title>
<g id="a_node19"><a xlink:href="v8-extension_8h.html" target="_top" xlink:title=" ">
<polygon fill="white" stroke="#666666" points="582.25,-334.88 470.25,-334.88 470.25,-315.62 582.25,-315.62 582.25,-334.88"/>
<text text-anchor="middle" x="526.25" y="-321.38" font-family="Helvetica,sans-Serif" font-size="10.00">include/v8&#45;extension.h</text>
</a>
</g>
</g>
<!-- Node10&#45;&gt;Node19 -->
<g id="edge82" class="edge">
<title>Node10&#45;&gt;Node19</title>
<path fill="none" stroke="#63b8ff" d="M1391.03,-560.56C1188.54,-555.9 628.01,-540.94 596.25,-517.5 534.51,-471.95 527.14,-366.2 526.33,-335.04"/>
<polygon fill="#63b8ff" stroke="#63b8ff" points="1390.76,-564.08 1400.84,-560.81 1390.92,-557.08 1390.76,-564.08"/>
</g>
<!-- Node20 -->
<g id="node20" class="node">
<title>Node20</title>
<g id="a_node20"><a xlink:href="v8-function-callback_8h.html" target="_top" xlink:title=" ">
<polygon fill="white" stroke="#666666" points="1637.12,-340.5 1539.38,-340.5 1539.38,-310 1637.12,-310 1637.12,-340.5"/>
<text text-anchor="start" x="1547.38" y="-327" font-family="Helvetica,sans-Serif" font-size="10.00">include/v8&#45;function</text>
<text text-anchor="middle" x="1588.25" y="-315.75" font-family="Helvetica,sans-Serif" font-size="10.00">&#45;callback.h</text>
</a>
</g>
</g>
<!-- Node10&#45;&gt;Node20 -->
<g id="edge85" class="edge">
<title>Node10&#45;&gt;Node20</title>
<path fill="none" stroke="#63b8ff" d="M1465.24,-542.2C1469.69,-506.14 1483.13,-428.92 1520.25,-376.5 1530.68,-361.76 1546.79,-349.59 1560.71,-340.91"/>
<polygon fill="#63b8ff" stroke="#63b8ff" points="1461.65,-541.81 1464.02,-552.13 1468.61,-542.58 1461.65,-541.81"/>
</g>
<!-- Node21 -->
<g id="node21" class="node">
<title>Node21</title>
<g id="a_node21"><a xlink:href="v8-function_8h.html" target="_top" xlink:title=" ">
<polygon fill="white" stroke="#666666" points="1863.88,-207.5 1758.62,-207.5 1758.62,-188.25 1863.88,-188.25 1863.88,-207.5"/>
<text text-anchor="middle" x="1811.25" y="-194" font-family="Helvetica,sans-Serif" font-size="10.00">include/v8&#45;function.h</text>
</a>
</g>
</g>
<!-- Node10&#45;&gt;Node21 -->
<g id="edge86" class="edge">
<title>Node10&#45;&gt;Node21</title>
<path fill="none" stroke="#63b8ff" d="M1463.04,-542.75C1463.11,-530.06 1463.57,-513.12 1465.25,-498.25 1475.16,-410.29 1476.51,-380.34 1530.25,-310 1559.16,-272.16 1571.3,-264.05 1614.25,-243.5 1660.12,-221.56 1717.23,-210.15 1758.13,-204.39"/>
<polygon fill="#63b8ff" stroke="#63b8ff" points="1459.55,-542.43 1463.08,-552.41 1466.55,-542.4 1459.55,-542.43"/>
</g>
<!-- Node22 -->
<g id="node22" class="node">
<title>Node22</title>
<g id="a_node22"><a xlink:href="v8-template_8h.html" target="_top" xlink:title=" ">
<polygon fill="white" stroke="#666666" points="1865.38,-268.38 1757.12,-268.38 1757.12,-249.12 1865.38,-249.12 1865.38,-268.38"/>
<text text-anchor="middle" x="1811.25" y="-254.88" font-family="Helvetica,sans-Serif" font-size="10.00">include/v8&#45;template.h</text>
</a>
</g>
</g>
<!-- Node10&#45;&gt;Node22 -->
<g id="edge117" class="edge">
<title>Node10&#45;&gt;Node22</title>
<path fill="none" stroke="#63b8ff" d="M1535.52,-560.57C1577.24,-556.39 1628.71,-545.29 1666.25,-517.5 1757.65,-449.82 1799.44,-306.3 1809.04,-268.84"/>
<polygon fill="#63b8ff" stroke="#63b8ff" points="1535.24,-557.17 1525.59,-561.53 1535.85,-564.14 1535.24,-557.17"/>
</g>
<!-- Node24 -->
<g id="node24" class="node">
<title>Node24</title>
<g id="a_node24"><a xlink:href="v8-object_8h.html" target="_top" xlink:title=" ">
<polygon fill="white" stroke="#666666" points="1941.75,-334.88 1844.75,-334.88 1844.75,-315.62 1941.75,-315.62 1941.75,-334.88"/>
<text text-anchor="middle" x="1893.25" y="-321.38" font-family="Helvetica,sans-Serif" font-size="10.00">include/v8&#45;object.h</text>
</a>
</g>
</g>
<!-- Node10&#45;&gt;Node24 -->
<g id="edge99" class="edge">
<title>Node10&#45;&gt;Node24</title>
<path fill="none" stroke="#63b8ff" d="M1535.85,-561.92C1588.24,-558.84 1659.02,-548.49 1713.25,-517.5 1784.95,-476.53 1775.75,-434.78 1834.25,-376.5 1849.88,-360.93 1869.7,-344.68 1881.92,-335.02"/>
<polygon fill="#63b8ff" stroke="#63b8ff" points="1535.77,-558.46 1525.96,-562.46 1536.12,-565.46 1535.77,-558.46"/>
</g>
<!-- Node25 -->
<g id="node25" class="node">
<title>Node25</title>
<g id="a_node25"><a xlink:href="v8-date_8h.html" target="_top" xlink:title=" ">
<polygon fill="white" stroke="#666666" points="1244,-268.38 1154.5,-268.38 1154.5,-249.12 1244,-249.12 1244,-268.38"/>
<text text-anchor="middle" x="1199.25" y="-254.88" font-family="Helvetica,sans-Serif" font-size="10.00">include/v8&#45;date.h</text>
</a>
</g>
</g>
<!-- Node10&#45;&gt;Node25 -->
<g id="edge74" class="edge">
<title>Node10&#45;&gt;Node25</title>
<path fill="none" stroke="#63b8ff" d="M1391.29,-553.45C1288.86,-539.06 1113.25,-505.95 1113.25,-448 1113.25,-448 1113.25,-448 1113.25,-385.12 1113.25,-333.39 1163.66,-287.38 1187.29,-268.66"/>
<polygon fill="#63b8ff" stroke="#63b8ff" points="1390.5,-557.01 1400.88,-554.91 1391.45,-550.08 1390.5,-557.01"/>
</g>
<!-- Node26 -->
<g id="node26" class="node">
<title>Node26</title>
<g id="a_node26"><a xlink:href="v8-primitive-object_8h.html" target="_top" xlink:title=" ">
<polygon fill="white" stroke="#666666" points="1523.25,-274 1423.25,-274 1423.25,-243.5 1523.25,-243.5 1523.25,-274"/>
<text text-anchor="start" x="1431.25" y="-260.5" font-family="Helvetica,sans-Serif" font-size="10.00">include/v8&#45;primitive</text>
<text text-anchor="middle" x="1473.25" y="-249.25" font-family="Helvetica,sans-Serif" font-size="10.00">&#45;object.h</text>
</a>
</g>
</g>
<!-- Node10&#45;&gt;Node26 -->
<g id="edge106" class="edge">
<title>Node10&#45;&gt;Node26</title>
<path fill="none" stroke="#63b8ff" d="M1391.06,-551.7C1348.35,-544.13 1299.66,-532.57 1284.25,-517.5 1261.35,-495.11 1265.25,-480.02 1265.25,-448 1265.25,-448 1265.25,-448 1265.25,-385.12 1265.25,-311.76 1361.34,-280.21 1422.9,-267.52"/>
<polygon fill="#63b8ff" stroke="#63b8ff" points="1390.32,-555.3 1400.76,-553.54 1391.5,-548.4 1390.32,-555.3"/>
</g>
<!-- Node27 -->
<g id="node27" class="node">
<title>Node27</title>
<g id="a_node27"><a xlink:href="v8-promise_8h.html" target="_top" xlink:title=" ">
<polygon fill="white" stroke="#666666" points="1366.88,-268.38 1261.62,-268.38 1261.62,-249.12 1366.88,-249.12 1366.88,-268.38"/>
<text text-anchor="middle" x="1314.25" y="-254.88" font-family="Helvetica,sans-Serif" font-size="10.00">include/v8&#45;promise.h</text>
</a>
</g>
</g>
<!-- Node10&#45;&gt;Node27 -->
<g id="edge109" class="edge">
<title>Node10&#45;&gt;Node27</title>
<path fill="none" stroke="#63b8ff" d="M1391.09,-559.88C1350.96,-555.38 1302.03,-544.2 1266.25,-517.5 1237.86,-496.32 1227.25,-483.42 1227.25,-448 1227.25,-448 1227.25,-448 1227.25,-385.12 1227.25,-333.2 1278.25,-287.29 1302.15,-268.63"/>
<polygon fill="#63b8ff" stroke="#63b8ff" points="1390.6,-563.44 1400.9,-560.95 1391.29,-556.48 1390.6,-563.44"/>
</g>
<!-- Node28 -->
<g id="node28" class="node">
<title>Node28</title>
<g id="a_node28"><a xlink:href="v8-statistics_8h.html" target="_top" xlink:title=" ">
<polygon fill="white" stroke="#666666" points="1268.5,-207.5 1158,-207.5 1158,-188.25 1268.5,-188.25 1268.5,-207.5"/>
<text text-anchor="middle" x="1213.25" y="-194" font-family="Helvetica,sans-Serif" font-size="10.00">include/v8&#45;statistics.h</text>
</a>
</g>
</g>
<!-- Node10&#45;&gt;Node28 -->
<g id="edge116" class="edge">
<title>Node10&#45;&gt;Node28</title>
<path fill="none" stroke="#63b8ff" d="M1391,-562.2C1327.67,-559.81 1234.39,-550.24 1160.25,-517.5 1115.61,-497.79 1075.25,-496.8 1075.25,-448 1075.25,-448 1075.25,-448 1075.25,-385.12 1075.25,-314.91 1098.71,-296.08 1145.25,-243.5 1158.91,-228.06 1179.11,-215.72 1193.94,-207.96"/>
<polygon fill="#63b8ff" stroke="#63b8ff" points="1390.58,-565.72 1400.69,-562.54 1390.81,-558.72 1390.58,-565.72"/>
</g>
<!-- Node29 -->
<g id="node29" class="node">
<title>Node29</title>
<g id="a_node29"><a xlink:href="v8-regexp_8h.html" target="_top" xlink:title=" ">
<polygon fill="white" stroke="#666666" points="2058.88,-268.38 1959.62,-268.38 1959.62,-249.12 2058.88,-249.12 2058.88,-268.38"/>
<text text-anchor="middle" x="2009.25" y="-254.88" font-family="Helvetica,sans-Serif" font-size="10.00">include/v8&#45;regexp.h</text>
</a>
</g>
</g>
<!-- Node10&#45;&gt;Node29 -->
<g id="edge111" class="edge">
<title>Node10&#45;&gt;Node29</title>
<path fill="none" stroke="#63b8ff" d="M1535.38,-559.97C1657.14,-555.64 1898,-543.96 1978.25,-517.5 2022.83,-502.8 2045.33,-503.21 2068.25,-462.25 2106.51,-393.86 2039.58,-298.31 2016.58,-268.79"/>
<polygon fill="#63b8ff" stroke="#63b8ff" points="1535.56,-556.49 1525.69,-560.34 1535.81,-563.49 1535.56,-556.49"/>
</g>
<!-- Node30 -->
<g id="node30" class="node">
<title>Node30</title>
<g id="a_node30"><a xlink:href="v8-wasm_8h.html" target="_top" xlink:title=" ">
<polygon fill="white" stroke="#666666" points="2173.75,-268.38 2076.75,-268.38 2076.75,-249.12 2173.75,-249.12 2173.75,-268.38"/>
<text text-anchor="middle" x="2125.25" y="-254.88" font-family="Helvetica,sans-Serif" font-size="10.00">include/v8&#45;wasm.h</text>
</a>
</g>
</g>
<!-- Node10&#45;&gt;Node30 -->
<g id="edge127" class="edge">
<title>Node10&#45;&gt;Node30</title>
<path fill="none" stroke="#63b8ff" d="M1535.35,-561.63C1665.48,-559.87 1934.09,-552.03 2020.25,-517.5 2056.4,-503.02 2068.41,-495.76 2088.25,-462.25 2127.4,-396.13 2126.89,-298.24 2125.72,-268.58"/>
<polygon fill="#63b8ff" stroke="#63b8ff" points="1535.67,-558.14 1525.71,-561.76 1535.76,-565.14 1535.67,-558.14"/>
</g>
<!-- Node31 -->
<g id="node31" class="node">
<title>Node31</title>
<g id="a_node31"><a xlink:href="v8-script_8h.html" target="_top" xlink:title=" ">
<polygon fill="white" stroke="#666666" points="2530.62,-395.75 2435.88,-395.75 2435.88,-376.5 2530.62,-376.5 2530.62,-395.75"/>
<text text-anchor="middle" x="2483.25" y="-382.25" font-family="Helvetica,sans-Serif" font-size="10.00">include/v8&#45;script.h</text>
</a>
</g>
</g>
<!-- Node10&#45;&gt;Node31 -->
<g id="edge112" class="edge">
<title>Node10&#45;&gt;Node31</title>
<path fill="none" stroke="#63b8ff" d="M1535.72,-560.85C1693.3,-557.55 2062.75,-546.86 2184.25,-517.5 2205,-512.49 2207.99,-504.97 2228.25,-498.25 2295.38,-475.98 2319.15,-492.13 2383.25,-462.25 2420.64,-444.82 2457.62,-411.88 2474.19,-396.05"/>
<polygon fill="#63b8ff" stroke="#63b8ff" points="1535.67,-557.37 1525.74,-561.07 1535.81,-564.37 1535.67,-557.37"/>
</g>
<!-- Node10&#45;&gt;Node32 -->
<g id="edge126" class="edge">
<title>Node10&#45;&gt;Node32</title>
<path fill="none" stroke="#63b8ff" d="M1535.66,-562C1653.44,-560.74 1880.48,-553.52 1951.25,-517.5 1978.43,-503.66 1998.87,-472.08 2007.6,-456.72"/>
<polygon fill="#63b8ff" stroke="#63b8ff" points="1535.93,-558.51 1525.96,-562.11 1535.99,-565.51 1535.93,-558.51"/>
</g>
<!-- Node34 -->
<g id="node34" class="node">
<title>Node34</title>
<g id="a_node34"><a xlink:href="v8-debug_8h.html" target="_top" xlink:title=" ">
<polygon fill="white" stroke="#666666" points="505.75,-207.5 408.75,-207.5 408.75,-188.25 505.75,-188.25 505.75,-207.5"/>
<text text-anchor="middle" x="457.25" y="-194" font-family="Helvetica,sans-Serif" font-size="10.00">include/v8&#45;debug.h</text>
</a>
</g>
</g>
<!-- Node10&#45;&gt;Node34 -->
<g id="edge75" class="edge">
<title>Node10&#45;&gt;Node34</title>
<path fill="none" stroke="#63b8ff" d="M1390.93,-561.65C1207.62,-559.94 728.32,-552.2 573.25,-517.5 494,-499.77 404.25,-529.21 404.25,-448 404.25,-448 404.25,-448 404.25,-324.25 404.25,-277.22 436.28,-227.55 450.54,-207.76"/>
<polygon fill="#63b8ff" stroke="#63b8ff" points="1390.76,-565.16 1400.79,-561.75 1390.82,-558.16 1390.76,-565.16"/>
</g>
<!-- Node35 -->
<g id="node35" class="node">
<title>Node35</title>
<g id="a_node35"><a xlink:href="v8-embedder-heap_8h.html" target="_top" xlink:title=" ">
<polygon fill="white" stroke="#666666" points="912.25,-462.25 806.25,-462.25 806.25,-431.75 912.25,-431.75 912.25,-462.25"/>
<text text-anchor="start" x="814.25" y="-448.75" font-family="Helvetica,sans-Serif" font-size="10.00">include/v8&#45;embedder</text>
<text text-anchor="middle" x="859.25" y="-437.5" font-family="Helvetica,sans-Serif" font-size="10.00">&#45;heap.h</text>
</a>
</g>
</g>
<!-- Node10&#45;&gt;Node35 -->
<g id="edge78" class="edge">
<title>Node10&#45;&gt;Node35</title>
<path fill="none" stroke="#63b8ff" d="M1391,-562.36C1264.01,-561.75 1006.62,-555.66 926.25,-517.5 900.82,-505.42 879.91,-479.27 868.54,-462.71"/>
<polygon fill="#63b8ff" stroke="#63b8ff" points="1390.75,-565.86 1400.76,-562.4 1390.77,-558.86 1390.75,-565.86"/>
</g>
<!-- Node36 -->
<g id="node36" class="node">
<title>Node36</title>
<g id="a_node36"><a xlink:href="v8-exception_8h.html" target="_top" xlink:title=" ">
<polygon fill="white" stroke="#666666" points="240.25,-85.75 128.25,-85.75 128.25,-66.5 240.25,-66.5 240.25,-85.75"/>
<text text-anchor="middle" x="184.25" y="-72.25" font-family="Helvetica,sans-Serif" font-size="10.00">include/v8&#45;exception.h</text>
</a>
</g>
</g>
<!-- Node10&#45;&gt;Node36 -->
<g id="edge80" class="edge">
<title>Node10&#45;&gt;Node36</title>
<path fill="none" stroke="#63b8ff" d="M1390.9,-561.31C1143.9,-558.26 346.68,-546.22 300.25,-517.5 193.41,-451.42 184.25,-385.37 184.25,-259.75 184.25,-259.75 184.25,-259.75 184.25,-196.88 184.25,-155.5 184.25,-106.09 184.25,-86.14"/>
<polygon fill="#63b8ff" stroke="#63b8ff" points="1390.5,-564.81 1400.54,-561.44 1390.59,-557.81 1390.5,-564.81"/>
</g>
<!-- Node37 -->
<g id="node37" class="node">
<title>Node37</title>
<g id="a_node37"><a xlink:href="v8-forward_8h.html" target="_top" xlink:title=" ">
<polygon fill="white" stroke="#666666" points="1396.75,-517.5 1293.75,-517.5 1293.75,-498.25 1396.75,-498.25 1396.75,-517.5"/>
<text text-anchor="middle" x="1345.25" y="-504" font-family="Helvetica,sans-Serif" font-size="10.00">include/v8&#45;forward.h</text>
</a>
</g>
</g>
<!-- Node10&#45;&gt;Node37 -->
<g id="edge84" class="edge">
<title>Node10&#45;&gt;Node37</title>
<path fill="none" stroke="#63b8ff" d="M1433.39,-548.65C1412.1,-539.04 1384.05,-526.38 1365.37,-517.95"/>
<polygon fill="#63b8ff" stroke="#63b8ff" points="1431.68,-552.17 1442.23,-553.09 1434.56,-545.79 1431.68,-552.17"/>
</g>
<!-- Node38 -->
<g id="node38" class="node">
<title>Node38</title>
<g id="a_node38"><a xlink:href="v8-json_8h.html" target="_top" xlink:title=" ">
<polygon fill="white" stroke="#666666" points="300.62,-334.88 211.88,-334.88 211.88,-315.62 300.62,-315.62 300.62,-334.88"/>
<text text-anchor="middle" x="256.25" y="-321.38" font-family="Helvetica,sans-Serif" font-size="10.00">include/v8&#45;json.h</text>
</a>
</g>
</g>
<!-- Node10&#45;&gt;Node38 -->
<g id="edge89" class="edge">
<title>Node10&#45;&gt;Node38</title>
<path fill="none" stroke="#63b8ff" d="M1390.75,-561.61C1145.07,-559.56 356.9,-550.43 314.25,-517.5 299.08,-505.78 266.88,-371.77 258.36,-335.34"/>
<polygon fill="#63b8ff" stroke="#63b8ff" points="1390.66,-565.12 1400.69,-561.7 1390.72,-558.12 1390.66,-565.12"/>
</g>
<!-- Node39 -->
<g id="node39" class="node">
<title>Node39</title>
<g id="a_node39"><a xlink:href="v8-message_8h.html" target="_top" xlink:title=" ">
<polygon fill="white" stroke="#666666" points="2339.5,-456.62 2229,-456.62 2229,-437.38 2339.5,-437.38 2339.5,-456.62"/>
<text text-anchor="middle" x="2284.25" y="-443.12" font-family="Helvetica,sans-Serif" font-size="10.00">include/v8&#45;message.h</text>
</a>
</g>
</g>
<!-- Node10&#45;&gt;Node39 -->
<g id="edge91" class="edge">
<title>Node10&#45;&gt;Node39</title>
<path fill="none" stroke="#63b8ff" d="M1535.46,-561.08C1687.02,-558.28 2033.69,-548.6 2147.25,-517.5 2172.2,-510.67 2238.01,-474.28 2268.43,-457.05"/>
<polygon fill="#63b8ff" stroke="#63b8ff" points="1535.82,-557.59 1525.89,-561.27 1535.95,-564.59 1535.82,-557.59"/>
</g>
<!-- Node40 -->
<g id="node40" class="node">
<title>Node40</title>
<g id="a_node40"><a xlink:href="v8-profiler_8h.html" target="_top" xlink:title=" ">
<polygon fill="white" stroke="#666666" points="1982.88,-395.75 1883.62,-395.75 1883.62,-376.5 1982.88,-376.5 1982.88,-395.75"/>
<text text-anchor="middle" x="1933.25" y="-382.25" font-family="Helvetica,sans-Serif" font-size="10.00">include/v8&#45;profiler.h</text>
</a>
</g>
</g>
<!-- Node10&#45;&gt;Node40 -->
<g id="edge108" class="edge">
<title>Node10&#45;&gt;Node40</title>
<path fill="none" stroke="#63b8ff" d="M1535.76,-558.93C1604.91,-554.4 1711.4,-543.51 1800.25,-517.5 1855.83,-501.23 1882.52,-507.82 1918.25,-462.25 1933.68,-442.57 1934.54,-411.28 1933.9,-396.05"/>
<polygon fill="#63b8ff" stroke="#63b8ff" points="1535.75,-555.49 1525.99,-559.61 1536.19,-562.47 1535.75,-555.49"/>
</g>
<!-- Node10&#45;&gt;Node41 -->
<g id="edge96" class="edge">
<title>Node10&#45;&gt;Node41</title>
<path fill="none" stroke="#63b8ff" d="M1535.55,-559.6C1670.8,-554.49 1971.18,-541.34 2223.25,-517.5 2227.85,-517.06 2232.63,-516.55 2237.41,-516"/>
<polygon fill="#63b8ff" stroke="#63b8ff" points="1535.8,-556.12 1525.93,-560 1536.06,-563.12 1535.8,-556.12"/>
</g>
<!-- Node42 -->
<g id="node42" class="node">
<title>Node42</title>
<g id="a_node42"><a xlink:href="v8-microtask-queue_8h.html" target="_top" xlink:title=" ">
<polygon fill="white" stroke="#666666" points="359.25,-152.25 253.25,-152.25 253.25,-121.75 359.25,-121.75 359.25,-152.25"/>
<text text-anchor="start" x="261.25" y="-138.75" font-family="Helvetica,sans-Serif" font-size="10.00">include/v8&#45;microtask</text>
<text text-anchor="middle" x="306.25" y="-127.5" font-family="Helvetica,sans-Serif" font-size="10.00">&#45;queue.h</text>
</a>
</g>
</g>
<!-- Node10&#45;&gt;Node42 -->
<g id="edge97" class="edge">
<title>Node10&#45;&gt;Node42</title>
<path fill="none" stroke="#63b8ff" d="M1391.15,-561.45C1151.44,-558.92 393.95,-548.49 352.25,-517.5 326.02,-498 328.25,-480.68 328.25,-448 328.25,-448 328.25,-448 328.25,-385.12 328.25,-296.61 314.07,-190.96 308.48,-152.72"/>
<polygon fill="#63b8ff" stroke="#63b8ff" points="1390.79,-564.96 1400.83,-561.56 1390.87,-557.96 1390.79,-564.96"/>
</g>
<!-- Node10&#45;&gt;Node43 -->
<g id="edge100" class="edge">
<title>Node10&#45;&gt;Node43</title>
<path fill="none" stroke="#63b8ff" d="M1535.8,-562.29C1599.95,-559.98 1694.79,-550.48 1770.25,-517.5 1799.63,-504.66 1827.27,-479 1842.95,-462.7"/>
<polygon fill="#63b8ff" stroke="#63b8ff" points="1535.87,-558.81 1525.99,-562.62 1536.09,-565.81 1535.87,-558.81"/>
</g>
<!-- Node10&#45;&gt;Node44 -->
<g id="edge113" class="edge">
<title>Node10&#45;&gt;Node44</title>
<path fill="none" stroke="#63b8ff" d="M1535.71,-561.6C1721.65,-559.77 2230.73,-551.76 2653.25,-517.5 2657.58,-517.15 2662.06,-516.73 2666.56,-516.26"/>
<polygon fill="#63b8ff" stroke="#63b8ff" points="1535.95,-558.1 1525.99,-561.7 1536.02,-565.1 1535.95,-558.1"/>
</g>
<!-- Node10&#45;&gt;Node45 -->
<g id="edge118" class="edge">
<title>Node10&#45;&gt;Node45</title>
<path fill="none" stroke="#63b8ff" d="M1535.58,-561.77C1735.1,-560.36 2309.98,-553.23 2786.25,-517.5 2789.22,-517.28 2792.25,-517.03 2795.31,-516.75"/>
<polygon fill="#63b8ff" stroke="#63b8ff" points="1535.65,-558.28 1525.67,-561.85 1535.7,-565.28 1535.65,-558.28"/>
</g>
<!-- Node46 -->
<g id="node46" class="node">
<title>Node46</title>
<g id="a_node46"><a xlink:href="v8-value-serializer_8h.html" target="_top" xlink:title=" ">
<polygon fill="white" stroke="#666666" points="2802.88,-456.62 2667.62,-456.62 2667.62,-437.38 2802.88,-437.38 2802.88,-456.62"/>
<text text-anchor="middle" x="2735.25" y="-443.12" font-family="Helvetica,sans-Serif" font-size="10.00">include/v8&#45;value&#45;serializer.h</text>
</a>
</g>
</g>
<!-- Node10&#45;&gt;Node46 -->
<g id="edge124" class="edge">
<title>Node10&#45;&gt;Node46</title>
<path fill="none" stroke="#63b8ff" d="M1535.82,-561.34C1772.4,-558.52 2512.11,-547.36 2615.25,-517.5 2637.68,-511.01 2695.03,-474.44 2721.49,-457.11"/>
<polygon fill="#63b8ff" stroke="#63b8ff" points="1535.89,-557.85 1525.94,-561.47 1535.98,-564.85 1535.89,-557.85"/>
</g>
<!-- Node11&#45;&gt;Node6 -->
<g id="edge17" class="edge">
<title>Node11&#45;&gt;Node6</title>
<path fill="none" stroke="#63b8ff" d="M981.63,-241.7C1026.83,-203.31 1148.51,-106.45 1269.25,-66.5 1379.99,-29.86 1744.15,-19.32 1857.95,-16.88"/>
<polygon fill="#63b8ff" stroke="#63b8ff" points="979.71,-239.59 974.41,-248.76 984.27,-244.9 979.71,-239.59"/>
</g>
<!-- Node11&#45;&gt;Node7 -->
<g id="edge13" class="edge">
<title>Node11&#45;&gt;Node7</title>
<path fill="none" stroke="#63b8ff" d="M978.08,-240.42C989.03,-225.41 1000.16,-203.74 988.25,-188.25 971.38,-166.31 899.37,-151.94 849.28,-144.39"/>
<polygon fill="#63b8ff" stroke="#63b8ff" points="974.92,-237.77 971.48,-247.79 980.42,-242.1 974.92,-237.77"/>
</g>
<!-- Node11&#45;&gt;Node12 -->
<g id="edge14" class="edge">
<title>Node11&#45;&gt;Node12</title>
<path fill="none" stroke="#63b8ff" d="M943.16,-242.19C929.05,-231.26 910.66,-217.01 898.9,-207.9"/>
<polygon fill="#63b8ff" stroke="#63b8ff" points="940.66,-245.45 950.71,-248.81 944.95,-239.92 940.66,-245.45"/>
</g>
<!-- Node12&#45;&gt;Node4 -->
<g id="edge15" class="edge">
<title>Node12&#45;&gt;Node4</title>
<path fill="none" stroke="#63b8ff" d="M845.57,-184.85C812.46,-175.29 766.12,-161.92 731.42,-151.9"/>
<polygon fill="#63b8ff" stroke="#63b8ff" points="844.24,-188.39 854.82,-187.8 846.18,-181.67 844.24,-188.39"/>
</g>
<!-- Node12&#45;&gt;Node6 -->
<g id="edge16" class="edge">
<title>Node12&#45;&gt;Node6</title>
<path fill="none" stroke="#63b8ff" d="M903.47,-180.75C933.88,-151.72 1002.85,-91.36 1074.25,-66.5 1222.39,-14.91 1722.2,-14.91 1857.97,-15.9"/>
<polygon fill="#63b8ff" stroke="#63b8ff" points="901.68,-177.58 896.95,-187.06 906.56,-182.6 901.68,-177.58"/>
</g>
<!-- Node13&#45;&gt;Node7 -->
<g id="edge19" class="edge">
<title>Node13&#45;&gt;Node7</title>
<path fill="none" stroke="#63b8ff" d="M720.57,-428.04C706.94,-405.3 686.25,-364.49 686.25,-326.25 686.25,-326.25 686.25,-326.25 686.25,-257.75 686.25,-203.58 748.17,-163.99 780.34,-147.08"/>
<polygon fill="#63b8ff" stroke="#63b8ff" points="717.98,-429.5 726.24,-436.14 723.92,-425.8 717.98,-429.5"/>
</g>
<!-- Node14&#45;&gt;Node6 -->
<g id="edge21" class="edge">
<title>Node14&#45;&gt;Node6</title>
<path fill="none" stroke="#63b8ff" d="M2284.43,-238C2281.64,-198.62 2269.46,-110.35 2216.25,-66.5 2172.48,-30.44 2000.57,-20.07 1926.5,-17.25"/>
<polygon fill="#63b8ff" stroke="#63b8ff" points="2280.97,-237.97 2285.03,-247.75 2287.96,-237.57 2280.97,-237.97"/>
</g>
<!-- Node15&#45;&gt;Node6 -->
<g id="edge25" class="edge">
<title>Node15&#45;&gt;Node6</title>
<path fill="none" stroke="#63b8ff" d="M2531.68,-427.1C2542.35,-403.93 2558.25,-363.19 2558.25,-326.25 2558.25,-326.25 2558.25,-326.25 2558.25,-136 2558.25,-100.36 2548.36,-85.56 2518.25,-66.5 2468.04,-34.72 2049.4,-20.63 1926.22,-17.14"/>
<polygon fill="#63b8ff" stroke="#63b8ff" points="2528.12,-425.43 2526.96,-435.96 2534.43,-428.45 2528.12,-425.43"/>
</g>
<!-- Node15&#45;&gt;Node16 -->
<g id="edge23" class="edge">
<title>Node15&#45;&gt;Node16</title>
<path fill="none" stroke="#63b8ff" d="M2541.59,-429.67C2551.65,-420.46 2563.62,-408.3 2572.25,-395.75 2602.3,-352.04 2623.34,-291.12 2630.53,-268.59"/>
<polygon fill="#63b8ff" stroke="#63b8ff" points="2539.54,-426.7 2534.36,-435.95 2544.17,-431.94 2539.54,-426.7"/>
</g>
<!-- Node16&#45;&gt;Node6 -->
<g id="edge24" class="edge">
<title>Node16&#45;&gt;Node6</title>
<path fill="none" stroke="#63b8ff" d="M2633.61,-238.27C2633.16,-198.65 2625.94,-108.86 2572.25,-66.5 2521.19,-26.22 2056.73,-18.07 1926.22,-16.56"/>
<polygon fill="#63b8ff" stroke="#63b8ff" points="2630.11,-238.03 2633.57,-248.05 2637.11,-238.06 2630.11,-238.03"/>
</g>
<!-- Node17&#45;&gt;Node6 -->
<g id="edge73" class="edge">
<title>Node17&#45;&gt;Node6</title>
<path fill="none" stroke="#63b8ff" d="M1585.17,-492.7C1526.98,-460.08 1395.25,-373.64 1395.25,-259.75 1395.25,-259.75 1395.25,-259.75 1395.25,-136 1395.25,-40.59 1745.8,-20.97 1858.09,-17.14"/>
<polygon fill="#63b8ff" stroke="#63b8ff" points="1583.04,-496.07 1593.49,-497.82 1586.41,-489.94 1583.04,-496.07"/>
</g>
<!-- Node17&#45;&gt;Node7 -->
<g id="edge29" class="edge">
<title>Node17&#45;&gt;Node7</title>
<path fill="none" stroke="#63b8ff" d="M1556.8,-498.4C1429.93,-477.13 1112.02,-412.9 885.25,-274 849.74,-252.25 840.33,-243.41 819.25,-207.5 807.68,-187.79 802.45,-160.98 800.4,-147.12"/>
<polygon fill="#63b8ff" stroke="#63b8ff" points="1555.96,-501.98 1566.39,-500.16 1557.1,-495.07 1555.96,-501.98"/>
</g>
<!-- Node17&#45;&gt;Node13 -->
<g id="edge27" class="edge">
<title>Node17&#45;&gt;Node13</title>
<path fill="none" stroke="#63b8ff" d="M1556.31,-504.34C1384.56,-496.47 871.87,-472.41 797.25,-462.25 787.98,-460.99 778.07,-459.1 768.85,-457.1"/>
<polygon fill="#63b8ff" stroke="#63b8ff" points="1555.98,-507.87 1566.13,-504.83 1556.3,-500.88 1555.98,-507.87"/>
</g>
<!-- Node17&#45;&gt;Node15 -->
<g id="edge28" class="edge">
<title>Node17&#45;&gt;Node15</title>
<path fill="none" stroke="#63b8ff" d="M1668.34,-504.44C1795.35,-498.76 2114.68,-483.45 2381.25,-462.25 2410.93,-459.89 2444.05,-456.58 2470.73,-453.74"/>
<polygon fill="#63b8ff" stroke="#63b8ff" points="1668.2,-500.99 1658.37,-504.93 1668.51,-507.98 1668.2,-500.99"/>
</g>
<!-- Node17&#45;&gt;Node18 -->
<g id="edge30" class="edge">
<title>Node17&#45;&gt;Node18</title>
<path fill="none" stroke="#63b8ff" d="M1607.52,-487.35C1601.17,-461.12 1590.14,-415.57 1585.46,-396.23"/>
<polygon fill="#63b8ff" stroke="#63b8ff" points="1604.31,-487.98 1610.07,-496.87 1611.12,-486.33 1604.31,-487.98"/>
</g>
<!-- Node17&#45;&gt;Node22 -->
<g id="edge65" class="edge">
<title>Node17&#45;&gt;Node22</title>
<path fill="none" stroke="#63b8ff" d="M1619.52,-487.92C1634.71,-450.24 1673,-364.82 1727.25,-310 1745.42,-291.64 1771.63,-277.37 1789.92,-268.8"/>
<polygon fill="#63b8ff" stroke="#63b8ff" points="1615.95,-486.41 1615.55,-497 1622.47,-488.98 1615.95,-486.41"/>
</g>
<!-- Node17&#45;&gt;Node31 -->
<g id="edge63" class="edge">
<title>Node17&#45;&gt;Node31</title>
<path fill="none" stroke="#63b8ff" d="M1667.88,-507.43C1817.03,-508.29 2222.95,-506.4 2348.25,-462.25 2370.35,-454.46 2371.08,-443.68 2391.25,-431.75 2414.78,-417.83 2443.29,-404.51 2462.28,-396.1"/>
<polygon fill="#63b8ff" stroke="#63b8ff" points="1668.2,-503.92 1658.18,-507.36 1668.15,-510.92 1668.2,-503.92"/>
</g>
<!-- Node17&#45;&gt;Node32 -->
<g id="edge66" class="edge">
<title>Node17&#45;&gt;Node32</title>
<path fill="none" stroke="#63b8ff" d="M1667.97,-498.85C1729.31,-489.98 1830.83,-475.25 1918.25,-462.25 1933.43,-459.99 1949.99,-457.49 1964.92,-455.23"/>
<polygon fill="#63b8ff" stroke="#63b8ff" points="1667.77,-495.48 1658.37,-500.38 1668.77,-502.41 1667.77,-495.48"/>
</g>
<!-- Node18&#45;&gt;Node6 -->
<g id="edge62" class="edge">
<title>Node18&#45;&gt;Node6</title>
<path fill="none" stroke="#63b8ff" d="M1557.24,-370.27C1546.82,-362.81 1535.94,-352.73 1530.25,-340.5 1524.53,-328.21 1528.99,-323.5 1530.25,-310 1534.94,-259.96 1551.25,-249.14 1551.25,-198.88 1551.25,-198.88 1551.25,-198.88 1551.25,-136 1551.25,-71.45 1771.52,-33.31 1857.99,-20.82"/>
<polygon fill="#63b8ff" stroke="#63b8ff" points="1554.87,-373.56 1565.15,-376.15 1558.73,-367.72 1554.87,-373.56"/>
</g>
<!-- Node18&#45;&gt;Node7 -->
<g id="edge41" class="edge">
<title>Node18&#45;&gt;Node7</title>
<path fill="none" stroke="#63b8ff" d="M1518.24,-380.02C1428.73,-370.57 1265.05,-344.38 1145.25,-274 1100.05,-247.44 1110.24,-213.41 1064.25,-188.25 996.06,-150.94 904.88,-140.89 849.19,-138.43"/>
<polygon fill="#63b8ff" stroke="#63b8ff" points="1517.74,-383.59 1528.04,-381.12 1518.44,-376.63 1517.74,-383.59"/>
</g>
<!-- Node18&#45;&gt;Node19 -->
<g id="edge31" class="edge">
<title>Node18&#45;&gt;Node19</title>
<path fill="none" stroke="#63b8ff" d="M1518.25,-381.5C1326.08,-370.8 762.85,-339.43 582.5,-329.38"/>
<polygon fill="#63b8ff" stroke="#63b8ff" points="1517.83,-385.04 1528.01,-382.1 1518.22,-378.05 1517.83,-385.04"/>
</g>
<!-- Node18&#45;&gt;Node20 -->
<g id="edge33" class="edge">
<title>Node18&#45;&gt;Node20</title>
<path fill="none" stroke="#63b8ff" d="M1584.92,-365.48C1585.6,-357.41 1586.38,-348.23 1587.02,-340.78"/>
<polygon fill="#63b8ff" stroke="#63b8ff" points="1581.37,-364.92 1584.01,-375.18 1588.34,-365.52 1581.37,-364.92"/>
</g>
<!-- Node18&#45;&gt;Node24 -->
<g id="edge42" class="edge">
<title>Node18&#45;&gt;Node24</title>
<path fill="none" stroke="#63b8ff" d="M1641.64,-374.04C1700.6,-362.84 1790.57,-345.75 1845.44,-335.33"/>
<polygon fill="#63b8ff" stroke="#63b8ff" points="1641.18,-370.75 1632.01,-376.05 1642.49,-377.63 1641.18,-370.75"/>
</g>
<!-- Node19&#45;&gt;Node6 -->
<g id="edge32" class="edge">
<title>Node19&#45;&gt;Node6</title>
<path fill="none" stroke="#63b8ff" d="M529.98,-304.51C538.83,-263.51 565.1,-168.99 626.25,-121.75 726.45,-44.35 1665.47,-20.92 1857.9,-16.91"/>
<polygon fill="#63b8ff" stroke="#63b8ff" points="526.37,-303.71 527.82,-314.2 533.23,-305.1 526.37,-303.71"/>
</g>
<!-- Node20&#45;&gt;Node7 -->
<g id="edge36" class="edge">
<title>Node20&#45;&gt;Node7</title>
<path fill="none" stroke="#63b8ff" d="M1528.45,-324.46C1368.13,-324.39 937.94,-319.9 895.25,-274 886.02,-264.07 888.57,-255.3 895.25,-243.5 910.57,-216.44 939.93,-234.56 955.25,-207.5 959.47,-200.05 960.29,-195.17 955.25,-188.25 931.21,-155.25 885.1,-143.45 849.22,-139.46"/>
<polygon fill="#63b8ff" stroke="#63b8ff" points="1528.07,-327.96 1538.07,-324.45 1528.07,-320.96 1528.07,-327.96"/>
</g>
<!-- Node20&#45;&gt;Node21 -->
<g id="edge34" class="edge">
<title>Node20&#45;&gt;Node21</title>
<path fill="none" stroke="#63b8ff" d="M1599.84,-300.02C1609.74,-281.87 1625.64,-257.78 1646.25,-243.5 1679.42,-220.51 1723.92,-209.35 1758.34,-203.95"/>
<polygon fill="#63b8ff" stroke="#63b8ff" points="1596.35,-298.16 1594.85,-308.65 1602.56,-301.39 1596.35,-298.16"/>
</g>
<!-- Node20&#45;&gt;Node22 -->
<g id="edge37" class="edge">
<title>Node20&#45;&gt;Node22</title>
<path fill="none" stroke="#63b8ff" d="M1647.98,-306.98C1690.49,-294.68 1745.92,-278.64 1780.03,-268.78"/>
<polygon fill="#63b8ff" stroke="#63b8ff" points="1647.1,-303.87 1638.46,-310.02 1649.04,-310.6 1647.1,-303.87"/>
</g>
<!-- Node23 -->
<g id="node23" class="node">
<title>Node23</title>
<g id="a_node23"><a xlink:href="v8-util_8h.html" target="_top" xlink:title=" ">
<polygon fill="white" stroke="#666666" points="1739,-268.38 1655.5,-268.38 1655.5,-249.12 1739,-249.12 1739,-268.38"/>
<text text-anchor="middle" x="1697.25" y="-254.88" font-family="Helvetica,sans-Serif" font-size="10.00">include/v8&#45;util.h</text>
</a>
</g>
</g>
<!-- Node20&#45;&gt;Node23 -->
<g id="edge40" class="edge">
<title>Node20&#45;&gt;Node23</title>
<path fill="none" stroke="#63b8ff" d="M1622.4,-304.04C1642.39,-292.21 1666.65,-277.86 1682.02,-268.76"/>
<polygon fill="#63b8ff" stroke="#63b8ff" points="1620.81,-301.51 1613.98,-309.61 1624.37,-307.53 1620.81,-301.51"/>
</g>
<!-- Node21&#45;&gt;Node6 -->
<g id="edge35" class="edge">
<title>Node21&#45;&gt;Node6</title>
<path fill="none" stroke="#63b8ff" d="M1819.56,-178.34C1836.73,-140.06 1875.55,-53.48 1888.19,-25.3"/>
<polygon fill="#63b8ff" stroke="#63b8ff" points="1816.06,-176.61 1815.16,-187.16 1822.44,-179.47 1816.06,-176.61"/>
</g>
<!-- Node22&#45;&gt;Node6 -->
<g id="edge39" class="edge">
<title>Node22&#45;&gt;Node6</title>
<path fill="none" stroke="#63b8ff" d="M1837.74,-243.16C1850.7,-234.55 1865.21,-222.42 1873.25,-207.5 1906.97,-144.94 1897.73,-54.09 1893.68,-25.33"/>
<polygon fill="#63b8ff" stroke="#63b8ff" points="1836.33,-240.53 1829.69,-248.79 1840.03,-246.48 1836.33,-240.53"/>
</g>
<!-- Node22&#45;&gt;Node21 -->
<g id="edge38" class="edge">
<title>Node22&#45;&gt;Node21</title>
<path fill="none" stroke="#63b8ff" d="M1811.25,-237.99C1811.25,-227.81 1811.25,-215.88 1811.25,-207.9"/>
<polygon fill="#63b8ff" stroke="#63b8ff" points="1807.75,-237.81 1811.25,-247.81 1814.75,-237.81 1807.75,-237.81"/>
</g>
<!-- Node24&#45;&gt;Node6 -->
<g id="edge61" class="edge">
<title>Node24&#45;&gt;Node6</title>
<path fill="none" stroke="#63b8ff" d="M1902.71,-305.52C1913.97,-281.47 1931.25,-238.14 1931.25,-198.88 1931.25,-198.88 1931.25,-198.88 1931.25,-136 1931.25,-92.71 1907.92,-44.75 1897.35,-25.24"/>
<polygon fill="#63b8ff" stroke="#63b8ff" points="1899.13,-303.88 1897.91,-314.41 1905.43,-306.94 1899.13,-303.88"/>
</g>
<!-- Node24&#45;&gt;Node11 -->
<g id="edge43" class="edge">
<title>Node24&#45;&gt;Node11</title>
<path fill="none" stroke="#63b8ff" d="M1833.69,-320.47C1706.99,-312.39 1401.36,-292.63 1145.25,-274 1104.47,-271.03 1058.58,-267.44 1023.08,-264.6"/>
<polygon fill="#63b8ff" stroke="#63b8ff" points="1833.47,-324.03 1843.67,-321.17 1833.91,-317.04 1833.47,-324.03"/>
</g>
<!-- Node24&#45;&gt;Node14 -->
<g id="edge44" class="edge">
<title>Node24&#45;&gt;Node14</title>
<path fill="none" stroke="#63b8ff" d="M1952.82,-314.45C2028.17,-302.05 2156.9,-280.87 2230.09,-268.83"/>
<polygon fill="#63b8ff" stroke="#63b8ff" points="1952.4,-311.13 1943.1,-316.21 1953.54,-318.04 1952.4,-311.13"/>
</g>
<!-- Node24&#45;&gt;Node16 -->
<g id="edge55" class="edge">
<title>Node24&#45;&gt;Node16</title>
<path fill="none" stroke="#63b8ff" d="M1952.83,-319.06C2096.06,-306.57 2457.37,-275.08 2586.48,-263.83"/>
<polygon fill="#63b8ff" stroke="#63b8ff" points="1952.75,-315.64 1943.09,-319.99 1953.36,-322.61 1952.75,-315.64"/>
</g>
<!-- Node24&#45;&gt;Node21 -->
<g id="edge47" class="edge">
<title>Node24&#45;&gt;Node21</title>
<path fill="none" stroke="#63b8ff" d="M1892.47,-304.37C1890.93,-286.99 1886.55,-261.75 1874.25,-243.5 1863.54,-227.6 1845.14,-215.54 1830.98,-207.99"/>
<polygon fill="#63b8ff" stroke="#63b8ff" points="1889.03,-304.43 1893.15,-314.19 1896.02,-303.99 1889.03,-304.43"/>
</g>
<!-- Node24&#45;&gt;Node22 -->
<g id="edge58" class="edge">
<title>Node24&#45;&gt;Node22</title>
<path fill="none" stroke="#63b8ff" d="M1873.3,-308.56C1857.48,-296.11 1835.91,-279.15 1822.82,-268.85"/>
<polygon fill="#63b8ff" stroke="#63b8ff" points="1870.82,-311.85 1880.85,-315.28 1875.15,-306.35 1870.82,-311.85"/>
</g>
<!-- Node24&#45;&gt;Node25 -->
<g id="edge45" class="edge">
<title>Node24&#45;&gt;Node25</title>
<path fill="none" stroke="#63b8ff" d="M1833.62,-320.99C1696.71,-313.26 1363.11,-293.08 1252.25,-274 1244.74,-272.71 1236.75,-270.83 1229.31,-268.86"/>
<polygon fill="#63b8ff" stroke="#63b8ff" points="1833.12,-324.52 1843.3,-321.59 1833.51,-317.53 1833.12,-324.52"/>
</g>
<!-- Node24&#45;&gt;Node26 -->
<g id="edge48" class="edge">
<title>Node24&#45;&gt;Node26</title>
<path fill="none" stroke="#63b8ff" d="M1833.89,-315.13C1750.89,-302.39 1601.6,-279.46 1523.68,-267.5"/>
<polygon fill="#63b8ff" stroke="#63b8ff" points="1833.24,-318.73 1843.66,-316.79 1834.31,-311.81 1833.24,-318.73"/>
</g>
<!-- Node24&#45;&gt;Node27 -->
<g id="edge50" class="edge">
<title>Node24&#45;&gt;Node27</title>
<path fill="none" stroke="#63b8ff" d="M1833.69,-318.72C1743.03,-310.13 1565.01,-292.64 1414.25,-274 1398.93,-272.11 1382.33,-269.83 1367.14,-267.66"/>
<polygon fill="#63b8ff" stroke="#63b8ff" points="1833.28,-322.29 1843.57,-319.74 1833.94,-315.32 1833.28,-322.29"/>
</g>
<!-- Node24&#45;&gt;Node29 -->
<g id="edge56" class="edge">
<title>Node24&#45;&gt;Node29</title>
<path fill="none" stroke="#63b8ff" d="M1918.69,-310.11C1941.27,-297.55 1973.58,-279.58 1992.88,-268.85"/>
<polygon fill="#63b8ff" stroke="#63b8ff" points="1917.42,-307.36 1910.38,-315.28 1920.82,-313.48 1917.42,-307.36"/>
</g>
<!-- Node24&#45;&gt;Node30 -->
<g id="edge59" class="edge">
<title>Node24&#45;&gt;Node30</title>
<path fill="none" stroke="#63b8ff" d="M1936.38,-312.26C1981.65,-299.67 2051.81,-280.17 2092.67,-268.81"/>
<polygon fill="#63b8ff" stroke="#63b8ff" points="1935.69,-309.09 1927,-315.15 1937.57,-315.84 1935.69,-309.09"/>
</g>
<!-- Node25&#45;&gt;Node6 -->
<g id="edge46" class="edge">
<title>Node25&#45;&gt;Node6</title>
<path fill="none" stroke="#63b8ff" d="M1227.29,-243.74C1243.2,-234.85 1262.77,-222.26 1277.25,-207.5 1328.81,-154.93 1301.72,-105.39 1364.25,-66.5 1447.13,-14.95 1754.84,-14.32 1858.16,-15.62"/>
<polygon fill="#63b8ff" stroke="#63b8ff" points="1226.07,-240.96 1218.93,-248.78 1229.39,-247.12 1226.07,-240.96"/>
</g>
<!-- Node26&#45;&gt;Node6 -->
<g id="edge49" class="edge">
<title>Node26&#45;&gt;Node6</title>
<path fill="none" stroke="#63b8ff" d="M1473.74,-232.37C1476.03,-190.71 1487.06,-108.28 1537.25,-66.5 1585.57,-26.28 1778.66,-18.24 1857.98,-16.65"/>
<polygon fill="#63b8ff" stroke="#63b8ff" points="1470.21,-232.07 1473.3,-242.21 1477.2,-232.36 1470.21,-232.07"/>
</g>
<!-- Node27&#45;&gt;Node6 -->
<g id="edge54" class="edge">
<title>Node27&#45;&gt;Node6</title>
<path fill="none" stroke="#63b8ff" d="M1318.34,-238.15C1327.98,-193.88 1353.43,-88.35 1381.25,-66.5 1418.71,-37.07 1749.86,-21.75 1858.15,-17.5"/>
<polygon fill="#63b8ff" stroke="#63b8ff" points="1314.71,-237.38 1316.05,-247.89 1321.55,-238.84 1314.71,-237.38"/>
</g>
<!-- Node27&#45;&gt;Node28 -->
<g id="edge51" class="edge">
<title>Node27&#45;&gt;Node28</title>
<path fill="none" stroke="#63b8ff" d="M1289.41,-243.27C1270.44,-232.21 1244.88,-217.31 1228.73,-207.9"/>
<polygon fill="#63b8ff" stroke="#63b8ff" points="1287.51,-246.8 1297.91,-248.81 1291.03,-240.75 1287.51,-246.8"/>
</g>
<!-- Node28&#45;&gt;Node6 -->
<g id="edge53" class="edge">
<title>Node28&#45;&gt;Node6</title>
<path fill="none" stroke="#63b8ff" d="M1219.15,-177.63C1229.34,-148.01 1253.31,-92.02 1295.25,-66.5 1343.45,-37.17 1738.89,-21.46 1858.26,-17.35"/>
<polygon fill="#63b8ff" stroke="#63b8ff" points="1215.57,-176.3 1215.81,-186.89 1222.23,-178.47 1215.57,-176.3"/>
</g>
<!-- Node28&#45;&gt;Node7 -->
<g id="edge52" class="edge">
<title>Node28&#45;&gt;Node7</title>
<path fill="none" stroke="#63b8ff" d="M1147.02,-187.46C1064.02,-175.65 923.64,-155.69 849.15,-145.1"/>
<polygon fill="#63b8ff" stroke="#63b8ff" points="1146.45,-191.05 1156.85,-189 1147.44,-184.12 1146.45,-191.05"/>
</g>
<!-- Node29&#45;&gt;Node6 -->
<g id="edge57" class="edge">
<title>Node29&#45;&gt;Node6</title>
<path fill="none" stroke="#63b8ff" d="M2005.96,-238.14C1999.2,-201.9 1981.26,-123 1945.25,-66.5 1934.48,-49.61 1916.82,-34.42 1904.87,-25.28"/>
<polygon fill="#63b8ff" stroke="#63b8ff" points="2002.64,-238.46 2007.83,-247.7 2009.53,-237.24 2002.64,-238.46"/>
</g>
<!-- Node30&#45;&gt;Node6 -->
<g id="edge60" class="edge">
<title>Node30&#45;&gt;Node6</title>
<path fill="none" stroke="#63b8ff" d="M2112.84,-239.86C2087.65,-204.29 2027.58,-123.24 1965.25,-66.5 1947.16,-50.03 1923.38,-34.64 1907.96,-25.33"/>
<polygon fill="#63b8ff" stroke="#63b8ff" points="2110.39,-241.46 2119,-247.63 2116.11,-237.43 2110.39,-241.46"/>
</g>
<!-- Node31&#45;&gt;Node6 -->
<g id="edge64" class="edge">
<title>Node31&#45;&gt;Node6</title>
<path fill="none" stroke="#63b8ff" d="M2492.46,-366.37C2503.42,-342.29 2520.25,-298.93 2520.25,-259.75 2520.25,-259.75 2520.25,-259.75 2520.25,-136 2520.25,-103.32 2522.05,-86.55 2496.25,-66.5 2451.13,-31.43 2047.6,-19.69 1926.48,-16.94"/>
<polygon fill="#63b8ff" stroke="#63b8ff" points="2488.89,-364.73 2487.79,-375.27 2495.22,-367.72 2488.89,-364.73"/>
</g>
<!-- Node32&#45;&gt;Node4 -->
<g id="edge69" class="edge">
<title>Node32&#45;&gt;Node4</title>
<path fill="none" stroke="#63b8ff" d="M2012.31,-426.18C2011.19,-410.16 2006.83,-388.39 1992.25,-376.5 1952.35,-343.96 1581.53,-345.14 1530.25,-340.5 1243.24,-314.53 1156.2,-372.18 885.25,-274 807.74,-245.91 731.11,-181.71 698.99,-152.7"/>
<polygon fill="#63b8ff" stroke="#63b8ff" points="2008.83,-426.16 2012.64,-436.05 2015.83,-425.95 2008.83,-426.16"/>
</g>
<!-- Node32&#45;&gt;Node6 -->
<g id="edge72" class="edge">
<title>Node32&#45;&gt;Node6</title>
<path fill="none" stroke="#63b8ff" d="M2070.03,-435.6C2149.1,-417.92 2288.19,-373.72 2349.25,-274 2356.33,-262.44 2352.83,-256.58 2349.25,-243.5 2324.81,-154.16 2317.92,-115.39 2239.25,-66.5 2187.36,-34.25 2003.47,-21.68 1926.51,-17.75"/>
<polygon fill="#63b8ff" stroke="#63b8ff" points="2069.78,-432.29 2060.75,-437.82 2071.26,-439.13 2069.78,-432.29"/>
</g>
<!-- Node32&#45;&gt;Node18 -->
<g id="edge71" class="edge">
<title>Node32&#45;&gt;Node18</title>
<path fill="none" stroke="#63b8ff" d="M1954.21,-437.03C1942.32,-435.24 1929.89,-433.41 1918.25,-431.75 1819.21,-417.65 1703.5,-402.54 1637.25,-394.01"/>
<polygon fill="#63b8ff" stroke="#63b8ff" points="1953.53,-440.62 1963.94,-438.66 1954.57,-433.7 1953.53,-440.62"/>
</g>
<!-- Node32&#45;&gt;Node24 -->
<g id="edge70" class="edge">
<title>Node32&#45;&gt;Node24</title>
<path fill="none" stroke="#63b8ff" d="M2022.74,-427.33C2029.6,-412.37 2035.57,-391.46 2025.25,-376.5 2006.67,-349.55 1971.57,-337.04 1942.24,-331.24"/>
<polygon fill="#63b8ff" stroke="#63b8ff" points="2019.22,-425.51 2017.8,-436.01 2025.46,-428.7 2019.22,-425.51"/>
</g>
<!-- Node33 -->
<g id="node33" class="node">
<title>Node33</title>
<g id="a_node33"><a xlink:href="v8-external_8h.html" target="_top" xlink:title=" ">
<polygon fill="white" stroke="#666666" points="2454.5,-146.62 2350,-146.62 2350,-127.38 2454.5,-127.38 2454.5,-146.62"/>
<text text-anchor="middle" x="2402.25" y="-133.12" font-family="Helvetica,sans-Serif" font-size="10.00">include/v8&#45;external.h</text>
</a>
</g>
</g>
<!-- Node32&#45;&gt;Node33 -->
<g id="edge67" class="edge">
<title>Node32&#45;&gt;Node33</title>
<path fill="none" stroke="#63b8ff" d="M2070.36,-439.09C2139.96,-428.3 2257.15,-401.92 2337.25,-340.5 2401.12,-291.52 2403.35,-179.11 2402.6,-146.82"/>
<polygon fill="#63b8ff" stroke="#63b8ff" points="2069.99,-435.75 2060.62,-440.69 2071.02,-442.68 2069.99,-435.75"/>
</g>
<!-- Node33&#45;&gt;Node6 -->
<g id="edge68" class="edge">
<title>Node33&#45;&gt;Node6</title>
<path fill="none" stroke="#63b8ff" d="M2391.17,-118.65C2379.62,-102.19 2359.91,-78.28 2336.25,-66.5 2264.29,-30.67 2017.84,-19.92 1926.59,-17.12"/>
<polygon fill="#63b8ff" stroke="#63b8ff" points="2388.52,-119.98 2396.99,-126.33 2394.33,-116.08 2388.52,-119.98"/>
</g>
<!-- Node34&#45;&gt;Node6 -->
<g id="edge77" class="edge">
<title>Node34&#45;&gt;Node6</title>
<path fill="none" stroke="#63b8ff" d="M468.55,-179.15C488.65,-149.46 533.75,-90.55 589.25,-66.5 708.63,-14.78 1664.24,-15.43 1858.04,-16.1"/>
<polygon fill="#63b8ff" stroke="#63b8ff" points="465.3,-176.74 462.72,-187.01 471.14,-180.59 465.3,-176.74"/>
</g>
<!-- Node34&#45;&gt;Node7 -->
<g id="edge76" class="edge">
<title>Node34&#45;&gt;Node7</title>
<path fill="none" stroke="#63b8ff" d="M516.73,-188.92C574.17,-180.9 663.49,-167.55 740.25,-152.25 747.9,-150.73 756.05,-148.89 763.79,-147.06"/>
<polygon fill="#63b8ff" stroke="#63b8ff" points="516.46,-185.56 507.04,-190.4 517.42,-192.49 516.46,-185.56"/>
</g>
<!-- Node35&#45;&gt;Node7 -->
<g id="edge79" class="edge">
<title>Node35&#45;&gt;Node7</title>
<path fill="none" stroke="#63b8ff" d="M838.45,-423.42C811.5,-392.46 765.88,-333.83 748.25,-274 733.85,-225.14 773.93,-168.71 791.48,-147.08"/>
<polygon fill="#63b8ff" stroke="#63b8ff" points="835.27,-425.23 844.52,-430.4 840.51,-420.59 835.27,-425.23"/>
</g>
<!-- Node36&#45;&gt;Node6 -->
<g id="edge81" class="edge">
<title>Node36&#45;&gt;Node6</title>
<path fill="none" stroke="#63b8ff" d="M251.35,-66.73C252.32,-66.65 253.29,-66.57 254.25,-66.5 897.13,-17.14 1685.44,-15.79 1857.89,-16.13"/>
<polygon fill="#63b8ff" stroke="#63b8ff" points="251.38,-63.31 241.75,-67.71 252.03,-70.28 251.38,-63.31"/>
</g>
<!-- Node38&#45;&gt;Node6 -->
<g id="edge90" class="edge">
<title>Node38&#45;&gt;Node6</title>
<path fill="none" stroke="#63b8ff" d="M248.6,-305.25C234.66,-267.36 209.64,-181 244.25,-121.75 269.47,-78.58 294.1,-79.98 342.25,-66.5 492.63,-24.41 1643.44,-17.34 1857.9,-16.38"/>
<polygon fill="#63b8ff" stroke="#63b8ff" points="245.63,-306.28 252.49,-314.36 252.16,-303.77 245.63,-306.28"/>
</g>
<!-- Node39&#45;&gt;Node6 -->
<g id="edge95" class="edge">
<title>Node39&#45;&gt;Node6</title>
<path fill="none" stroke="#63b8ff" d="M2318.06,-432.64C2374.61,-407.8 2482.25,-348.83 2482.25,-259.75 2482.25,-259.75 2482.25,-259.75 2482.25,-136 2482.25,-21.81 2052.44,-15.31 1926.52,-15.86"/>
<polygon fill="#63b8ff" stroke="#63b8ff" points="2316.96,-429.73 2309.13,-436.88 2319.7,-436.17 2316.96,-429.73"/>
</g>
<!-- Node39&#45;&gt;Node21 -->
<g id="edge92" class="edge">
<title>Node39&#45;&gt;Node21</title>
<path fill="none" stroke="#63b8ff" d="M2311.71,-431.3C2324.66,-422.78 2338.87,-410.76 2346.25,-395.75 2376.12,-335.02 2395.09,-293.3 2349.25,-243.5 2316.84,-208.29 1993.67,-200.86 1864.34,-199.29"/>
<polygon fill="#63b8ff" stroke="#63b8ff" points="2310.31,-428.67 2303.62,-436.88 2313.97,-434.64 2310.31,-428.67"/>
</g>
<!-- Node39&#45;&gt;Node31 -->
<g id="edge94" class="edge">
<title>Node39&#45;&gt;Node31</title>
<path fill="none" stroke="#63b8ff" d="M2325.08,-433.92C2362.92,-422.73 2418.36,-406.32 2452.56,-396.21"/>
<polygon fill="#63b8ff" stroke="#63b8ff" points="2324.5,-430.74 2315.91,-436.93 2326.49,-437.45 2324.5,-430.74"/>
</g>
<!-- Node39&#45;&gt;Node40 -->
<g id="edge93" class="edge">
<title>Node39&#45;&gt;Node40</title>
<path fill="none" stroke="#63b8ff" d="M2219.56,-435.15C2151.29,-423.7 2045.18,-405.9 1983.12,-395.49"/>
<polygon fill="#63b8ff" stroke="#63b8ff" points="2218.73,-438.73 2229.18,-436.93 2219.89,-431.82 2218.73,-438.73"/>
</g>
<!-- Node42&#45;&gt;Node6 -->
<g id="edge98" class="edge">
<title>Node42&#45;&gt;Node6</title>
<path fill="none" stroke="#63b8ff" d="M321.52,-112.43C333.45,-96.29 351.62,-76.12 373.25,-66.5 443.32,-35.34 1639.04,-19.33 1857.97,-16.65"/>
<polygon fill="#63b8ff" stroke="#63b8ff" points="318.13,-110.17 315.24,-120.36 323.86,-114.2 318.13,-110.17"/>
</g>
<!-- Node43&#45;&gt;Node6 -->
<g id="edge105" class="edge">
<title>Node43&#45;&gt;Node6</title>
<path fill="none" stroke="#63b8ff" d="M1857.02,-420.47C1858.76,-405.91 1863.24,-388.29 1874.25,-376.5 1923.5,-323.79 2132.82,-326.54 2182.25,-274 2205.92,-248.83 2202.25,-233.43 2202.25,-198.88 2202.25,-198.88 2202.25,-198.88 2202.25,-136 2202.25,-77.44 2007.32,-36.45 1926.61,-21.99"/>
<polygon fill="#63b8ff" stroke="#63b8ff" points="1853.46,-420.06 1856.15,-430.31 1860.44,-420.63 1853.46,-420.06"/>
</g>
<!-- Node43&#45;&gt;Node7 -->
<g id="edge101" class="edge">
<title>Node43&#45;&gt;Node7</title>
<path fill="none" stroke="#63b8ff" d="M1792.43,-437.12C1724.76,-427.55 1614.82,-411.55 1520.25,-395.75 1386.96,-373.47 1347.76,-388.01 1221.25,-340.5 1167.06,-320.15 1156.61,-307.29 1109.25,-274 1060.24,-239.55 1058.81,-215.08 1005.25,-188.25 955.39,-163.27 892.39,-150.26 849.28,-143.8"/>
<polygon fill="#63b8ff" stroke="#63b8ff" points="1791.52,-440.67 1801.91,-438.6 1792.5,-433.74 1791.52,-440.67"/>
</g>
<!-- Node43&#45;&gt;Node23 -->
<g id="edge104" class="edge">
<title>Node43&#45;&gt;Node23</title>
<path fill="none" stroke="#63b8ff" d="M1836.64,-423.03C1801.35,-381.7 1728.6,-296.48 1704.9,-268.71"/>
<polygon fill="#63b8ff" stroke="#63b8ff" points="1834.62,-425.05 1843.77,-430.39 1839.94,-420.51 1834.62,-425.05"/>
</g>
<!-- Node43&#45;&gt;Node24 -->
<g id="edge102" class="edge">
<title>Node43&#45;&gt;Node24</title>
<path fill="none" stroke="#63b8ff" d="M1843.81,-421.34C1838.68,-407.73 1835.2,-390.76 1841.25,-376.5 1848.8,-358.7 1866.08,-344.13 1878.66,-335.35"/>
<polygon fill="#63b8ff" stroke="#63b8ff" points="1840.97,-422.59 1848.12,-430.41 1847.4,-419.84 1840.97,-422.59"/>
</g>
<!-- Node43&#45;&gt;Node40 -->
<g id="edge103" class="edge">
<title>Node43&#45;&gt;Node40</title>
<path fill="none" stroke="#63b8ff" d="M1883.84,-424.9C1896.73,-415.05 1911.4,-403.83 1921.38,-396.2"/>
<polygon fill="#63b8ff" stroke="#63b8ff" points="1882.1,-422.59 1876.28,-431.45 1886.35,-428.15 1882.1,-422.59"/>
</g>
<!-- Node44&#45;&gt;Node6 -->
<g id="edge115" class="edge">
<title>Node44&#45;&gt;Node6</title>
<path fill="none" stroke="#63b8ff" d="M2761.68,-494.05C2805.22,-477.11 2869.25,-442.74 2869.25,-387.12 2869.25,-387.12 2869.25,-387.12 2869.25,-136 2869.25,-82.97 2822.26,-84.16 2772.25,-66.5 2691.49,-37.99 2078.98,-20.91 1926.53,-17.08"/>
<polygon fill="#63b8ff" stroke="#63b8ff" points="2760.79,-491.01 2752.64,-497.79 2763.24,-497.57 2760.79,-491.01"/>
</g>
<!-- Node44&#45;&gt;Node15 -->
<g id="edge114" class="edge">
<title>Node44&#45;&gt;Node15</title>
<path fill="none" stroke="#63b8ff" d="M2681.21,-494.8C2643.19,-483.6 2587.47,-467.2 2553.1,-457.08"/>
<polygon fill="#63b8ff" stroke="#63b8ff" points="2679.86,-498.34 2690.44,-497.8 2681.83,-491.62 2679.86,-498.34"/>
</g>
<!-- Node45&#45;&gt;Node3 -->
<g id="edge119" class="edge">
<title>Node45&#45;&gt;Node3</title>
<path fill="none" stroke="#63b8ff" d="M2889.12,-493.17C2912.59,-482.02 2945.04,-466.62 2965.33,-456.98"/>
<polygon fill="#63b8ff" stroke="#63b8ff" points="2887.89,-490.35 2880.35,-497.8 2890.89,-496.68 2887.89,-490.35"/>
</g>
<!-- Node45&#45;&gt;Node6 -->
<g id="edge122" class="edge">
<title>Node45&#45;&gt;Node6</title>
<path fill="none" stroke="#63b8ff" d="M2872.18,-488.95C2886.11,-466.25 2907.25,-425.47 2907.25,-387.12 2907.25,-387.12 2907.25,-387.12 2907.25,-136 2907.25,-85.11 2864,-84.11 2816.25,-66.5 2731.56,-35.27 2083.39,-20.14 1926.41,-16.92"/>
<polygon fill="#63b8ff" stroke="#63b8ff" points="2868.82,-486.72 2866.39,-497.03 2874.72,-490.48 2868.82,-486.72"/>
</g>
<!-- Node45&#45;&gt;Node24 -->
<g id="edge121" class="edge">
<title>Node45&#45;&gt;Node24</title>
<path fill="none" stroke="#63b8ff" d="M2853.1,-487.64C2845.61,-470.27 2832.15,-445.39 2812.25,-431.75 2710.15,-361.75 2661.86,-393.61 2539.25,-376.5 2317.54,-345.56 2050.17,-332.36 1942.09,-328.01"/>
<polygon fill="#63b8ff" stroke="#63b8ff" points="2850.19,-488.81 2857.16,-496.79 2856.69,-486.2 2850.19,-488.81"/>
</g>
<!-- Node45&#45;&gt;Node35 -->
<g id="edge120" class="edge">
<title>Node45&#45;&gt;Node35</title>
<path fill="none" stroke="#63b8ff" d="M2784.58,-498.22C2384.91,-470.92 1180.13,-452.55 912.35,-448.74"/>
<polygon fill="#63b8ff" stroke="#63b8ff" points="2784.09,-501.77 2794.31,-498.97 2784.58,-494.78 2784.09,-501.77"/>
</g>
<!-- Node46&#45;&gt;Node6 -->
<g id="edge125" class="edge">
<title>Node46&#45;&gt;Node6</title>
<path fill="none" stroke="#63b8ff" d="M2759.23,-430.76C2787.66,-410.61 2831.25,-372.21 2831.25,-326.25 2831.25,-326.25 2831.25,-326.25 2831.25,-136 2831.25,-78.55 2776.89,-84.25 2722.25,-66.5 2570.7,-17.28 2063.35,-15.58 1926.51,-16.05"/>
<polygon fill="#63b8ff" stroke="#63b8ff" points="2757.54,-428.36 2751.25,-436.88 2761.48,-434.14 2757.54,-428.36"/>
</g>
<!-- Node47&#45;&gt;Node6 -->
<g id="edge135" class="edge">
<title>Node47&#45;&gt;Node6</title>
<path fill="none" stroke="#63b8ff" d="M2527.2,-494.15C2545.66,-486.99 2566.65,-476.57 2582.25,-462.25 2677.85,-374.51 2708.25,-328.64 2708.25,-198.88 2708.25,-198.88 2708.25,-198.88 2708.25,-136 2708.25,-77.04 2651.38,-84.56 2595.25,-66.5 2468.58,-25.73 2049.7,-17.97 1926.57,-16.55"/>
<polygon fill="#63b8ff" stroke="#63b8ff" points="2526.16,-491.17 2517.97,-497.89 2528.56,-497.74 2526.16,-491.17"/>
</g>
<!-- Node47&#45;&gt;Node24 -->
<g id="edge131" class="edge">
<title>Node47&#45;&gt;Node24</title>
<path fill="none" stroke="#63b8ff" d="M2424.56,-498.68C2358.49,-489.4 2257.31,-474.04 2220.25,-462.25 2136.57,-435.64 2123.56,-409.65 2042.25,-376.5 2002.06,-360.11 1954.31,-344.7 1923.9,-335.37"/>
<polygon fill="#63b8ff" stroke="#63b8ff" points="2423.86,-502.25 2434.25,-500.17 2424.83,-495.32 2423.86,-502.25"/>
</g>
<!-- Node47&#45;&gt;Node31 -->
<g id="edge132" class="edge">
<title>Node47&#45;&gt;Node31</title>
<path fill="none" stroke="#63b8ff" d="M2473.36,-488.65C2468.95,-480.85 2464.48,-471.44 2462.25,-462.25 2459.05,-449.08 2459.29,-444.98 2462.25,-431.75 2465.2,-418.55 2472.51,-404.64 2477.67,-395.93"/>
<polygon fill="#63b8ff" stroke="#63b8ff" points="2470.75,-490.09 2478.93,-496.82 2476.73,-486.45 2470.75,-490.09"/>
</g>
<!-- Node47&#45;&gt;Node32 -->
<g id="edge134" class="edge">
<title>Node47&#45;&gt;Node32</title>
<path fill="none" stroke="#63b8ff" d="M2424.7,-498.67C2423.54,-498.52 2422.39,-498.39 2421.25,-498.25 2266.85,-479.86 2226.6,-487.99 2073.25,-462.25 2064.99,-460.86 2056.18,-459.02 2047.9,-457.12"/>
<polygon fill="#63b8ff" stroke="#63b8ff" points="2423.95,-502.22 2434.31,-499.99 2424.82,-495.28 2423.95,-502.22"/>
</g>
<!-- Node47&#45;&gt;Node39 -->
<g id="edge130" class="edge">
<title>Node47&#45;&gt;Node39</title>
<path fill="none" stroke="#63b8ff" d="M2444.01,-494.8C2405.79,-483.6 2349.79,-467.2 2315.25,-457.08"/>
<polygon fill="#63b8ff" stroke="#63b8ff" points="2442.7,-498.35 2453.28,-497.8 2444.67,-491.63 2442.7,-498.35"/>
</g>
<!-- Node47&#45;&gt;Node46 -->
<g id="edge133" class="edge">
<title>Node47&#45;&gt;Node46</title>
<path fill="none" stroke="#63b8ff" d="M2534.43,-495.29C2581.99,-484.09 2653.09,-467.35 2696.69,-457.08"/>
<polygon fill="#63b8ff" stroke="#63b8ff" points="2533.7,-492.11 2524.76,-497.8 2535.3,-498.92 2533.7,-492.11"/>
</g>
</g>
</svg>
