<?xml version="1.0" encoding="UTF-8" standalone="no"?>
<!DOCTYPE svg PUBLIC "-//W3C//DTD SVG 1.1//EN"
 "http://www.w3.org/Graphics/SVG/1.1/DTD/svg11.dtd">
<!-- Generated by graphviz version 8.0.5 (20230430.1635)
 -->
<!-- Title: include/cppgc/internal/atomic&#45;entry&#45;flag.h Pages: 1 -->
<svg width="525pt" height="548pt"
 viewBox="0.00 0.00 525.25 548.00" xmlns="http://www.w3.org/2000/svg" xmlns:xlink="http://www.w3.org/1999/xlink">
<g id="graph0" class="graph" transform="scale(1 1) rotate(0) translate(4 544)">
<title>include/cppgc/internal/atomic&#45;entry&#45;flag.h</title>
<!-- Node1 -->
<g id="node1" class="node">
<title>Node1</title>
<g id="a_node1"><a xlink:title=" ">
<polygon fill="#999999" stroke="#666666" points="489.5,-540 379,-540 379,-509.5 489.5,-509.5 489.5,-540"/>
<text text-anchor="start" x="387" y="-526.5" font-family="Helvetica,sans-Serif" font-size="10.00">include/cppgc/internal</text>
<text text-anchor="middle" x="434.25" y="-515.25" font-family="Helvetica,sans-Serif" font-size="10.00">/atomic&#45;entry&#45;flag.h</text>
</a>
</g>
</g>
<!-- Node2 -->
<g id="node2" class="node">
<title>Node2</title>
<g id="a_node2"><a xlink:href="process-heap_8h.html" target="_top" xlink:title=" ">
<polygon fill="white" stroke="#666666" points="489.5,-473.5 379,-473.5 379,-443 489.5,-443 489.5,-473.5"/>
<text text-anchor="start" x="387" y="-460" font-family="Helvetica,sans-Serif" font-size="10.00">include/cppgc/internal</text>
<text text-anchor="middle" x="434.25" y="-448.75" font-family="Helvetica,sans-Serif" font-size="10.00">/process&#45;heap.h</text>
</a>
</g>
</g>
<!-- Node1&#45;&gt;Node2 -->
<g id="edge1" class="edge">
<title>Node1&#45;&gt;Node2</title>
<path fill="none" stroke="#63b8ff" d="M434.25,-498.38C434.25,-490.05 434.25,-481.08 434.25,-473.83"/>
<polygon fill="#63b8ff" stroke="#63b8ff" points="430.75,-498.11 434.25,-508.11 437.75,-498.11 430.75,-498.11"/>
</g>
<!-- Node3 -->
<g id="node3" class="node">
<title>Node3</title>
<g id="a_node3"><a xlink:href="write-barrier_8h.html" target="_top" xlink:title=" ">
<polygon fill="white" stroke="#666666" points="489.5,-407 379,-407 379,-376.5 489.5,-376.5 489.5,-407"/>
<text text-anchor="start" x="387" y="-393.5" font-family="Helvetica,sans-Serif" font-size="10.00">include/cppgc/internal</text>
<text text-anchor="middle" x="434.25" y="-382.25" font-family="Helvetica,sans-Serif" font-size="10.00">/write&#45;barrier.h</text>
</a>
</g>
</g>
<!-- Node2&#45;&gt;Node3 -->
<g id="edge2" class="edge">
<title>Node2&#45;&gt;Node3</title>
<path fill="none" stroke="#63b8ff" d="M434.25,-431.88C434.25,-423.55 434.25,-414.58 434.25,-407.33"/>
<polygon fill="#63b8ff" stroke="#63b8ff" points="430.75,-431.61 434.25,-441.61 437.75,-431.61 430.75,-431.61"/>
</g>
<!-- Node4 -->
<g id="node4" class="node">
<title>Node4</title>
<g id="a_node4"><a xlink:href="heap-consistency_8h.html" target="_top" xlink:title=" ">
<polygon fill="white" stroke="#666666" points="361.25,-340.5 261.25,-340.5 261.25,-310 361.25,-310 361.25,-340.5"/>
<text text-anchor="start" x="269.25" y="-327" font-family="Helvetica,sans-Serif" font-size="10.00">include/cppgc/heap</text>
<text text-anchor="middle" x="311.25" y="-315.75" font-family="Helvetica,sans-Serif" font-size="10.00">&#45;consistency.h</text>
</a>
</g>
</g>
<!-- Node3&#45;&gt;Node4 -->
<g id="edge3" class="edge">
<title>Node3&#45;&gt;Node4</title>
<path fill="none" stroke="#63b8ff" d="M396.71,-371.06C378.13,-361.32 356.09,-349.76 339.05,-340.83"/>
<polygon fill="#63b8ff" stroke="#63b8ff" points="394.86,-374.57 405.34,-376.11 398.11,-368.37 394.86,-374.57"/>
</g>
<!-- Node5 -->
<g id="node5" class="node">
<title>Node5</title>
<g id="a_node5"><a xlink:href="pointer-policies_8h.html" target="_top" xlink:title=" ">
<polygon fill="white" stroke="#666666" points="489.5,-340.5 379,-340.5 379,-310 489.5,-310 489.5,-340.5"/>
<text text-anchor="start" x="387" y="-327" font-family="Helvetica,sans-Serif" font-size="10.00">include/cppgc/internal</text>
<text text-anchor="middle" x="434.25" y="-315.75" font-family="Helvetica,sans-Serif" font-size="10.00">/pointer&#45;policies.h</text>
</a>
</g>
</g>
<!-- Node3&#45;&gt;Node5 -->
<g id="edge4" class="edge">
<title>Node3&#45;&gt;Node5</title>
<path fill="none" stroke="#63b8ff" d="M434.25,-365.38C434.25,-357.05 434.25,-348.08 434.25,-340.83"/>
<polygon fill="#63b8ff" stroke="#63b8ff" points="430.75,-365.11 434.25,-375.11 437.75,-365.11 430.75,-365.11"/>
</g>
<!-- Node11 -->
<g id="node11" class="node">
<title>Node11</title>
<g id="a_node11"><a xlink:href="v8-cppgc_8h.html" target="_top" xlink:title=" ">
<polygon fill="white" stroke="#666666" points="450.75,-85.75 353.75,-85.75 353.75,-66.5 450.75,-66.5 450.75,-85.75"/>
<text text-anchor="middle" x="402.25" y="-72.25" font-family="Helvetica,sans-Serif" font-size="10.00">include/v8&#45;cppgc.h</text>
</a>
</g>
</g>
<!-- Node3&#45;&gt;Node11 -->
<g id="edge21" class="edge">
<title>Node3&#45;&gt;Node11</title>
<path fill="none" stroke="#63b8ff" d="M469.05,-369.94C479.81,-361.96 490.79,-351.97 498.25,-340.5 517.02,-311.63 517.25,-299.82 517.25,-265.38 517.25,-265.38 517.25,-265.38 517.25,-202.5 517.25,-145.94 452.9,-103.84 420.47,-86.22"/>
<polygon fill="#63b8ff" stroke="#63b8ff" points="467.33,-367.57 461.13,-376.16 471.34,-373.31 467.33,-367.57"/>
</g>
<!-- Node6 -->
<g id="node6" class="node">
<title>Node6</title>
<g id="a_node6"><a xlink:href="cross-thread-persistent_8h.html" target="_top" xlink:title=" ">
<polygon fill="white" stroke="#666666" points="322.75,-30.5 219.75,-30.5 219.75,0 322.75,0 322.75,-30.5"/>
<text text-anchor="start" x="227.75" y="-17" font-family="Helvetica,sans-Serif" font-size="10.00">include/cppgc/cross</text>
<text text-anchor="middle" x="271.25" y="-5.75" font-family="Helvetica,sans-Serif" font-size="10.00">&#45;thread&#45;persistent.h</text>
</a>
</g>
</g>
<!-- Node5&#45;&gt;Node6 -->
<g id="edge5" class="edge">
<title>Node5&#45;&gt;Node6</title>
<path fill="none" stroke="#63b8ff" d="M449.07,-300.32C462.18,-276.82 479.25,-239.52 479.25,-204.5 479.25,-204.5 479.25,-204.5 479.25,-136 479.25,-103.98 482.97,-89.06 460.25,-66.5 424.11,-30.61 365.44,-19.53 323.04,-16.5"/>
<polygon fill="#63b8ff" stroke="#63b8ff" points="445.56,-298.38 443.57,-308.79 451.62,-301.89 445.56,-298.38"/>
</g>
<!-- Node7 -->
<g id="node7" class="node">
<title>Node7</title>
<g id="a_node7"><a xlink:href="member_8h.html" target="_top" xlink:title=" ">
<polygon fill="white" stroke="#666666" points="322.12,-274 200.38,-274 200.38,-254.75 322.12,-254.75 322.12,-274"/>
<text text-anchor="middle" x="261.25" y="-260.5" font-family="Helvetica,sans-Serif" font-size="10.00">include/cppgc/member.h</text>
</a>
</g>
</g>
<!-- Node5&#45;&gt;Node7 -->
<g id="edge6" class="edge">
<title>Node5&#45;&gt;Node7</title>
<path fill="none" stroke="#63b8ff" d="M380.88,-306.09C350.1,-295.61 312.73,-282.89 288.04,-274.49"/>
<polygon fill="#63b8ff" stroke="#63b8ff" points="379.45,-309.64 390.04,-309.55 381.7,-303.01 379.45,-309.64"/>
</g>
<!-- Node9 -->
<g id="node9" class="node">
<title>Node9</title>
<g id="a_node9"><a xlink:href="visitor_8h.html" target="_top" xlink:title=" ">
<polygon fill="white" stroke="#666666" points="327.62,-146.62 214.88,-146.62 214.88,-127.38 327.62,-127.38 327.62,-146.62"/>
<text text-anchor="middle" x="271.25" y="-133.12" font-family="Helvetica,sans-Serif" font-size="10.00">include/cppgc/visitor.h</text>
</a>
</g>
</g>
<!-- Node5&#45;&gt;Node9 -->
<g id="edge20" class="edge">
<title>Node5&#45;&gt;Node9</title>
<path fill="none" stroke="#63b8ff" d="M426.88,-299.55C416.19,-265.05 395.94,-204.81 380.25,-188.25 360.62,-167.53 330.78,-154.59 307.28,-147.05"/>
<polygon fill="#63b8ff" stroke="#63b8ff" points="423.73,-300.21 430,-308.75 430.42,-298.17 423.73,-300.21"/>
</g>
<!-- Node10 -->
<g id="node10" class="node">
<title>Node10</title>
<g id="a_node10"><a xlink:href="persistent_8h.html" target="_top" xlink:title=" ">
<polygon fill="white" stroke="#666666" points="335.88,-85.75 206.62,-85.75 206.62,-66.5 335.88,-66.5 335.88,-85.75"/>
<text text-anchor="middle" x="271.25" y="-72.25" font-family="Helvetica,sans-Serif" font-size="10.00">include/cppgc/persistent.h</text>
</a>
</g>
</g>
<!-- Node5&#45;&gt;Node10 -->
<g id="edge19" class="edge">
<title>Node5&#45;&gt;Node10</title>
<path fill="none" stroke="#63b8ff" d="M432.93,-298.93C430.44,-270.22 423.21,-222.91 402.25,-188.25 373.09,-140.01 315.58,-102.43 287.48,-86.06"/>
<polygon fill="#63b8ff" stroke="#63b8ff" points="429.5,-298.94 433.72,-308.66 436.48,-298.43 429.5,-298.94"/>
</g>
<!-- Node8 -->
<g id="node8" class="node">
<title>Node8</title>
<g id="a_node8"><a xlink:href="ephemeron-pair_8h.html" target="_top" xlink:title=" ">
<polygon fill="white" stroke="#666666" points="370.75,-218.75 243.75,-218.75 243.75,-188.25 370.75,-188.25 370.75,-218.75"/>
<text text-anchor="start" x="251.75" y="-205.25" font-family="Helvetica,sans-Serif" font-size="10.00">include/cppgc/ephemeron</text>
<text text-anchor="middle" x="307.25" y="-194" font-family="Helvetica,sans-Serif" font-size="10.00">&#45;pair.h</text>
</a>
</g>
</g>
<!-- Node7&#45;&gt;Node8 -->
<g id="edge7" class="edge">
<title>Node7&#45;&gt;Node8</title>
<path fill="none" stroke="#63b8ff" d="M274.86,-245.95C281.56,-237.38 289.53,-227.17 295.9,-219.03"/>
<polygon fill="#63b8ff" stroke="#63b8ff" points="271.64,-243.4 268.24,-253.43 277.15,-247.71 271.64,-243.4"/>
</g>
<!-- Node7&#45;&gt;Node9 -->
<g id="edge18" class="edge">
<title>Node7&#45;&gt;Node9</title>
<path fill="none" stroke="#63b8ff" d="M247.49,-245.68C242.26,-237.88 236.92,-228.32 234.25,-218.75 230.61,-205.69 230.02,-201.13 234.25,-188.25 239.66,-171.78 252.76,-156.27 261.82,-146.95"/>
<polygon fill="#63b8ff" stroke="#63b8ff" points="245.16,-247.43 253.85,-253.5 250.83,-243.34 245.16,-247.43"/>
</g>
<!-- Node12 -->
<g id="node12" class="node">
<title>Node12</title>
<g id="a_node12"><a xlink:href="liveness-broker_8h.html" target="_top" xlink:title=" ">
<polygon fill="white" stroke="#666666" points="186.75,-218.75 71.75,-218.75 71.75,-188.25 186.75,-188.25 186.75,-218.75"/>
<text text-anchor="start" x="79.75" y="-205.25" font-family="Helvetica,sans-Serif" font-size="10.00">include/cppgc/liveness</text>
<text text-anchor="middle" x="129.25" y="-194" font-family="Helvetica,sans-Serif" font-size="10.00">&#45;broker.h</text>
</a>
</g>
</g>
<!-- Node7&#45;&gt;Node12 -->
<g id="edge13" class="edge">
<title>Node7&#45;&gt;Node12</title>
<path fill="none" stroke="#63b8ff" d="M231.13,-249.94C210.57,-240.77 183.33,-228.62 162.2,-219.19"/>
<polygon fill="#63b8ff" stroke="#63b8ff" points="229.36,-253.43 239.91,-254.3 232.21,-247.03 229.36,-253.43"/>
</g>
<!-- Node8&#45;&gt;Node9 -->
<g id="edge8" class="edge">
<title>Node8&#45;&gt;Node9</title>
<path fill="none" stroke="#63b8ff" d="M293.73,-178.28C287.58,-167.26 280.69,-154.91 276.17,-146.82"/>
<polygon fill="#63b8ff" stroke="#63b8ff" points="291.15,-179.84 299.08,-186.86 297.26,-176.43 291.15,-179.84"/>
</g>
<!-- Node9&#45;&gt;Node6 -->
<g id="edge9" class="edge">
<title>Node9&#45;&gt;Node6</title>
<path fill="none" stroke="#63b8ff" d="M237.45,-122.08C222.25,-113.91 205.84,-101.96 197.25,-85.75 185.16,-62.93 211.14,-43.47 235.58,-31"/>
<polygon fill="#63b8ff" stroke="#63b8ff" points="235.65,-125.59 246.16,-126.91 238.77,-119.32 235.65,-125.59"/>
</g>
<!-- Node9&#45;&gt;Node10 -->
<g id="edge10" class="edge">
<title>Node9&#45;&gt;Node10</title>
<path fill="none" stroke="#63b8ff" d="M271.25,-116.24C271.25,-106.06 271.25,-94.13 271.25,-86.15"/>
<polygon fill="#63b8ff" stroke="#63b8ff" points="267.75,-116.06 271.25,-126.06 274.75,-116.06 267.75,-116.06"/>
</g>
<!-- Node9&#45;&gt;Node11 -->
<g id="edge12" class="edge">
<title>Node9&#45;&gt;Node11</title>
<path fill="none" stroke="#63b8ff" d="M301.41,-122.44C326.24,-111.29 360.73,-95.78 382.26,-86.11"/>
<polygon fill="#63b8ff" stroke="#63b8ff" points="300.12,-119.64 292.43,-126.93 302.99,-126.02 300.12,-119.64"/>
</g>
<!-- Node10&#45;&gt;Node6 -->
<g id="edge11" class="edge">
<title>Node10&#45;&gt;Node6</title>
<path fill="none" stroke="#63b8ff" d="M271.25,-55.2C271.25,-47.2 271.25,-38.15 271.25,-30.78"/>
<polygon fill="#63b8ff" stroke="#63b8ff" points="267.75,-55.18 271.25,-65.18 274.75,-55.18 267.75,-55.18"/>
</g>
<!-- Node12&#45;&gt;Node9 -->
<g id="edge17" class="edge">
<title>Node12&#45;&gt;Node9</title>
<path fill="none" stroke="#63b8ff" d="M171.27,-183.41C197.76,-171.38 230.75,-156.4 251.41,-147.01"/>
<polygon fill="#63b8ff" stroke="#63b8ff" points="170.13,-180.54 162.47,-187.86 173.02,-186.91 170.13,-180.54"/>
</g>
<!-- Node13 -->
<g id="node13" class="node">
<title>Node13</title>
<g id="a_node13"><a xlink:href="prefinalizer-handler_8h.html" target="_top" xlink:title=" ">
<polygon fill="white" stroke="#666666" points="110.5,-152.25 0,-152.25 0,-121.75 110.5,-121.75 110.5,-152.25"/>
<text text-anchor="start" x="8" y="-138.75" font-family="Helvetica,sans-Serif" font-size="10.00">include/cppgc/internal</text>
<text text-anchor="middle" x="55.25" y="-127.5" font-family="Helvetica,sans-Serif" font-size="10.00">/prefinalizer&#45;handler.h</text>
</a>
</g>
</g>
<!-- Node12&#45;&gt;Node13 -->
<g id="edge14" class="edge">
<title>Node12&#45;&gt;Node13</title>
<path fill="none" stroke="#63b8ff" d="M104.32,-180.77C93.67,-171.48 81.52,-160.9 71.98,-152.58"/>
<polygon fill="#63b8ff" stroke="#63b8ff" points="101.62,-183.93 111.46,-187.86 106.22,-178.65 101.62,-183.93"/>
</g>
<!-- Node14 -->
<g id="node14" class="node">
<title>Node14</title>
<g id="a_node14"><a xlink:href="prefinalizer_8h.html" target="_top" xlink:title=" ">
<polygon fill="white" stroke="#666666" points="141.38,-85.75 9.12,-85.75 9.12,-66.5 141.38,-66.5 141.38,-85.75"/>
<text text-anchor="middle" x="75.25" y="-72.25" font-family="Helvetica,sans-Serif" font-size="10.00">include/cppgc/prefinalizer.h</text>
</a>
</g>
</g>
<!-- Node12&#45;&gt;Node14 -->
<g id="edge16" class="edge">
<title>Node12&#45;&gt;Node14</title>
<path fill="none" stroke="#63b8ff" d="M130.24,-177.49C129.94,-160.91 127.65,-139.11 119.25,-121.75 112.14,-107.06 98.26,-94.26 87.98,-86.19"/>
<polygon fill="#63b8ff" stroke="#63b8ff" points="126.74,-176.99 130.18,-187.01 133.74,-177.03 126.74,-176.99"/>
</g>
<!-- Node13&#45;&gt;Node14 -->
<g id="edge15" class="edge">
<title>Node13&#45;&gt;Node14</title>
<path fill="none" stroke="#63b8ff" d="M63.69,-111.15C66.7,-102.3 69.9,-92.88 72.17,-86.2"/>
<polygon fill="#63b8ff" stroke="#63b8ff" points="60.1,-109.85 60.19,-120.45 66.72,-112.1 60.1,-109.85"/>
</g>
</g>
</svg>
