<?xml version="1.0" encoding="UTF-8" standalone="no"?>
<!DOCTYPE svg PUBLIC "-//W3C//DTD SVG 1.1//EN"
 "http://www.w3.org/Graphics/SVG/1.1/DTD/svg11.dtd">
<!-- Generated by graphviz version 8.0.5 (20230430.1635)
 -->
<!-- Title: v8::Local::New Pages: 1 -->
<svg width="285pt" height="273pt"
 viewBox="0.00 0.00 285.25 272.50" xmlns="http://www.w3.org/2000/svg" xmlns:xlink="http://www.w3.org/1999/xlink">
<g id="graph0" class="graph" transform="scale(1 1) rotate(0) translate(4 268.5)">
<title>v8::Local::New</title>
<!-- Node1 -->
<g id="node1" class="node">
<title>Node1</title>
<g id="a_node1"><a xlink:title=" ">
<polygon fill="#999999" stroke="#666666" points="277.25,-153.5 197.5,-153.5 197.5,-134.25 277.25,-134.25 277.25,-153.5"/>
<text text-anchor="middle" x="237.38" y="-140" font-family="Helvetica,sans-Serif" font-size="10.00">v8::Local::New</text>
</a>
</g>
</g>
<!-- Node2 -->
<g id="node2" class="node">
<title>Node2</title>
<g id="a_node2"><a xlink:href="classv8_1_1ReturnValue.html#a9167dbbc04d72bbd85a8a7f199f211c4" target="_top" xlink:title=" ">
<polygon fill="white" stroke="#666666" points="133,-264.5 28.5,-264.5 28.5,-245.25 133,-245.25 133,-264.5"/>
<text text-anchor="middle" x="80.75" y="-251" font-family="Helvetica,sans-Serif" font-size="10.00">v8::ReturnValue::Get</text>
</a>
</g>
</g>
<!-- Node1&#45;&gt;Node2 -->
<g id="edge1" class="edge">
<title>Node1&#45;&gt;Node2</title>
<path fill="none" stroke="#63b8ff" d="M226.11,-163.25C213.71,-184.68 190.83,-218.59 161.5,-236.88 152.95,-242.21 143.01,-245.97 133.1,-248.61"/>
<polygon fill="#63b8ff" stroke="#63b8ff" points="229.53,-165.29 231.33,-154.85 223.41,-161.89 229.53,-165.29"/>
</g>
<!-- Node3 -->
<g id="node3" class="node">
<title>Node3</title>
<g id="a_node3"><a xlink:href="classv8_1_1PersistentValueMapBase.html#a5bac0db345afa5ac0654c7bac39fd67b" target="_top" xlink:title=" ">
<polygon fill="white" stroke="#666666" points="161.5,-227.5 0,-227.5 0,-208.25 161.5,-208.25 161.5,-227.5"/>
<text text-anchor="middle" x="80.75" y="-214" font-family="Helvetica,sans-Serif" font-size="10.00">v8::PersistentValueMapBase::Get</text>
</a>
</g>
</g>
<!-- Node1&#45;&gt;Node3 -->
<g id="edge2" class="edge">
<title>Node1&#45;&gt;Node3</title>
<path fill="none" stroke="#63b8ff" d="M218.14,-161.01C203.79,-173.57 182.74,-190.08 161.5,-199.88 154.67,-203.03 147.25,-205.64 139.77,-207.81"/>
<polygon fill="#63b8ff" stroke="#63b8ff" points="220.06,-164.09 225.14,-154.79 215.37,-158.89 220.06,-164.09"/>
</g>
<!-- Node4 -->
<g id="node4" class="node">
<title>Node4</title>
<g id="a_node4"><a xlink:href="classv8_1_1PersistentBase.html#a3904f51a5d7024c2983d027c8075201d" target="_top" xlink:title=" ">
<polygon fill="white" stroke="#666666" points="139.75,-190.5 21.75,-190.5 21.75,-171.25 139.75,-171.25 139.75,-190.5"/>
<text text-anchor="middle" x="80.75" y="-177" font-family="Helvetica,sans-Serif" font-size="10.00">v8::PersistentBase::Get</text>
</a>
</g>
</g>
<!-- Node1&#45;&gt;Node4 -->
<g id="edge3" class="edge">
<title>Node1&#45;&gt;Node4</title>
<path fill="none" stroke="#63b8ff" d="M186.99,-156.6C178.5,-158.74 169.75,-160.9 161.5,-162.88 150.46,-165.52 138.53,-168.27 127.35,-170.8"/>
<polygon fill="#63b8ff" stroke="#63b8ff" points="187.72,-159.78 196.56,-153.93 186.01,-152.99 187.72,-159.78"/>
</g>
<!-- Node5 -->
<g id="node5" class="node">
<title>Node5</title>
<g id="a_node5"><a xlink:href="classv8_1_1BasicTracedReference.html#ae81ce30a7c8a579318b31ba0b3ea67ec" target="_top" xlink:title=" ">
<polygon fill="white" stroke="#666666" points="155.88,-153.5 5.62,-153.5 5.62,-134.25 155.88,-134.25 155.88,-153.5"/>
<text text-anchor="middle" x="80.75" y="-140" font-family="Helvetica,sans-Serif" font-size="10.00">v8::BasicTracedReference::Get</text>
</a>
</g>
</g>
<!-- Node1&#45;&gt;Node5 -->
<g id="edge4" class="edge">
<title>Node1&#45;&gt;Node5</title>
<path fill="none" stroke="#63b8ff" d="M186.41,-143.88C176.79,-143.88 166.52,-143.88 156.32,-143.88"/>
<polygon fill="#63b8ff" stroke="#63b8ff" points="186.36,-147.38 196.36,-143.88 186.36,-140.38 186.36,-147.38"/>
</g>
<!-- Node6 -->
<g id="node6" class="node">
<title>Node6</title>
<g id="a_node6"><a xlink:href="classv8_1_1PersistentValueVector.html#a773384c8da374c10ce437a391c662189" target="_top" xlink:title=" ">
<polygon fill="white" stroke="#666666" points="155.12,-116.5 6.38,-116.5 6.38,-97.25 155.12,-97.25 155.12,-116.5"/>
<text text-anchor="middle" x="80.75" y="-103" font-family="Helvetica,sans-Serif" font-size="10.00">v8::PersistentValueVector::Get</text>
</a>
</g>
</g>
<!-- Node1&#45;&gt;Node6 -->
<g id="edge5" class="edge">
<title>Node1&#45;&gt;Node6</title>
<path fill="none" stroke="#63b8ff" d="M186.99,-131.15C178.5,-129.01 169.75,-126.85 161.5,-124.88 150.46,-122.23 138.53,-119.48 127.35,-116.95"/>
<polygon fill="#63b8ff" stroke="#63b8ff" points="186.01,-134.76 196.56,-133.82 187.72,-127.97 186.01,-134.76"/>
</g>
<!-- Node7 -->
<g id="node7" class="node">
<title>Node7</title>
<g id="a_node7"><a xlink:href="classv8_1_1TracedReferenceBase.html#a7e87dcba911a55d7ca64fe7dd7904e56" target="_top" xlink:title=" ">
<polygon fill="white" stroke="#666666" points="154.75,-79.5 6.75,-79.5 6.75,-60.25 154.75,-60.25 154.75,-79.5"/>
<text text-anchor="middle" x="80.75" y="-66" font-family="Helvetica,sans-Serif" font-size="10.00">v8::TracedReferenceBase::Get</text>
</a>
</g>
</g>
<!-- Node1&#45;&gt;Node7 -->
<g id="edge6" class="edge">
<title>Node1&#45;&gt;Node7</title>
<path fill="none" stroke="#63b8ff" d="M218.14,-126.74C203.79,-114.18 182.74,-97.67 161.5,-87.88 154.67,-84.72 147.25,-82.11 139.77,-79.94"/>
<polygon fill="#63b8ff" stroke="#63b8ff" points="215.37,-128.86 225.14,-132.96 220.06,-123.66 215.37,-128.86"/>
</g>
<!-- Node8 -->
<g id="node8" class="node">
<title>Node8</title>
<g id="a_node8"><a xlink:href="classv8_1_1PersistentValueMapBase_1_1PersistentValueReference.html#aab9ed032c017149867c0f2cef2df89fd" target="_top" xlink:title=" ">
<polygon fill="white" stroke="#666666" points="151.38,-41.75 10.12,-41.75 10.12,0 151.38,0 151.38,-41.75"/>
<text text-anchor="start" x="18.12" y="-28.25" font-family="Helvetica,sans-Serif" font-size="10.00">v8::PersistentValueMapBase</text>
<text text-anchor="start" x="18.12" y="-17" font-family="Helvetica,sans-Serif" font-size="10.00">::PersistentValueReference</text>
<text text-anchor="middle" x="80.75" y="-5.75" font-family="Helvetica,sans-Serif" font-size="10.00">::NewLocal</text>
</a>
</g>
</g>
<!-- Node1&#45;&gt;Node8 -->
<g id="edge7" class="edge">
<title>Node1&#45;&gt;Node8</title>
<path fill="none" stroke="#63b8ff" d="M225.25,-124.62C212.33,-103.81 189.23,-70.94 161.5,-50.88 157.07,-47.67 152.25,-44.76 147.25,-42.13"/>
<polygon fill="#63b8ff" stroke="#63b8ff" points="222.74,-126.24 230.89,-133.01 228.74,-122.64 222.74,-126.24"/>
</g>
</g>
</svg>
