<?xml version="1.0" encoding="UTF-8" standalone="no"?>
<!DOCTYPE svg PUBLIC "-//W3C//DTD SVG 1.1//EN"
 "http://www.w3.org/Graphics/SVG/1.1/DTD/svg11.dtd">
<!-- Generated by graphviz version 8.0.5 (20230430.1635)
 -->
<!-- Title: include/cppgc/common.h Pages: 1 -->
<svg width="844pt" height="337pt"
 viewBox="0.00 0.00 843.88 337.25" xmlns="http://www.w3.org/2000/svg" xmlns:xlink="http://www.w3.org/1999/xlink">
<g id="graph0" class="graph" transform="scale(1 1) rotate(0) translate(4 333.25)">
<title>include/cppgc/common.h</title>
<!-- Node1 -->
<g id="node1" class="node">
<title>Node1</title>
<g id="a_node1"><a xlink:title=" ">
<polygon fill="#999999" stroke="#666666" points="348.12,-329.25 224.12,-329.25 224.12,-310 348.12,-310 348.12,-329.25"/>
<text text-anchor="middle" x="286.12" y="-315.75" font-family="Helvetica,sans-Serif" font-size="10.00">include/cppgc/common.h</text>
</a>
</g>
</g>
<!-- Node2 -->
<g id="node2" class="node">
<title>Node2</title>
<g id="a_node2"><a xlink:href="heap_8h.html" target="_top" xlink:title=" ">
<polygon fill="white" stroke="#666666" points="215.88,-274 108.38,-274 108.38,-254.75 215.88,-254.75 215.88,-274"/>
<text text-anchor="middle" x="162.12" y="-260.5" font-family="Helvetica,sans-Serif" font-size="10.00">include/cppgc/heap.h</text>
</a>
</g>
</g>
<!-- Node1&#45;&gt;Node2 -->
<g id="edge1" class="edge">
<title>Node1&#45;&gt;Node2</title>
<path fill="none" stroke="#63b8ff" d="M255.06,-305.28C232.64,-295.66 202.98,-282.92 183.26,-274.45"/>
<polygon fill="#63b8ff" stroke="#63b8ff" points="253.52,-308.86 264.09,-309.59 256.28,-302.43 253.52,-308.86"/>
</g>
<!-- Node10 -->
<g id="node10" class="node">
<title>Node10</title>
<g id="a_node10"><a xlink:href="v8_8h.html" target="_top" xlink:title=" ">
<polygon fill="white" stroke="#666666" points="537,-274 469.25,-274 469.25,-254.75 537,-254.75 537,-274"/>
<text text-anchor="middle" x="503.12" y="-260.5" font-family="Helvetica,sans-Serif" font-size="10.00">include/v8.h</text>
</a>
</g>
</g>
<!-- Node1&#45;&gt;Node10 -->
<g id="edge12" class="edge">
<title>Node1&#45;&gt;Node10</title>
<path fill="none" stroke="#63b8ff" d="M333.46,-307.01C374.37,-296.97 432.5,-282.7 469,-273.75"/>
<polygon fill="#63b8ff" stroke="#63b8ff" points="332.81,-303.81 323.94,-309.59 334.48,-310.61 332.81,-303.81"/>
</g>
<!-- Node3 -->
<g id="node3" class="node">
<title>Node3</title>
<g id="a_node3"><a xlink:href="prefinalizer-handler_8h.html" target="_top" xlink:title=" ">
<polygon fill="white" stroke="#666666" points="131.38,-152.25 20.88,-152.25 20.88,-121.75 131.38,-121.75 131.38,-152.25"/>
<text text-anchor="start" x="28.88" y="-138.75" font-family="Helvetica,sans-Serif" font-size="10.00">include/cppgc/internal</text>
<text text-anchor="middle" x="76.12" y="-127.5" font-family="Helvetica,sans-Serif" font-size="10.00">/prefinalizer&#45;handler.h</text>
</a>
</g>
</g>
<!-- Node2&#45;&gt;Node3 -->
<g id="edge2" class="edge">
<title>Node2&#45;&gt;Node3</title>
<path fill="none" stroke="#63b8ff" d="M131.25,-249.33C118.28,-241.96 104.15,-231.74 95.12,-218.75 81.24,-198.76 77.41,-169.97 76.41,-152.71"/>
<polygon fill="#63b8ff" stroke="#63b8ff" points="129.36,-252.82 139.84,-254.4 132.64,-246.63 129.36,-252.82"/>
</g>
<!-- Node5 -->
<g id="node5" class="node">
<title>Node5</title>
<g id="a_node5"><a xlink:href="liveness-broker_8h.html" target="_top" xlink:title=" ">
<polygon fill="white" stroke="#666666" points="219.62,-218.75 104.62,-218.75 104.62,-188.25 219.62,-188.25 219.62,-218.75"/>
<text text-anchor="start" x="112.62" y="-205.25" font-family="Helvetica,sans-Serif" font-size="10.00">include/cppgc/liveness</text>
<text text-anchor="middle" x="162.12" y="-194" font-family="Helvetica,sans-Serif" font-size="10.00">&#45;broker.h</text>
</a>
</g>
</g>
<!-- Node2&#45;&gt;Node5 -->
<g id="edge4" class="edge">
<title>Node2&#45;&gt;Node5</title>
<path fill="none" stroke="#63b8ff" d="M162.12,-243.45C162.12,-235.45 162.12,-226.4 162.12,-219.03"/>
<polygon fill="#63b8ff" stroke="#63b8ff" points="158.63,-243.43 162.12,-253.43 165.63,-243.43 158.63,-243.43"/>
</g>
<!-- Node4 -->
<g id="node4" class="node">
<title>Node4</title>
<g id="a_node4"><a xlink:href="prefinalizer_8h.html" target="_top" xlink:title=" ">
<polygon fill="white" stroke="#666666" points="132.25,-85.75 0,-85.75 0,-66.5 132.25,-66.5 132.25,-85.75"/>
<text text-anchor="middle" x="66.12" y="-72.25" font-family="Helvetica,sans-Serif" font-size="10.00">include/cppgc/prefinalizer.h</text>
</a>
</g>
</g>
<!-- Node3&#45;&gt;Node4 -->
<g id="edge3" class="edge">
<title>Node3&#45;&gt;Node4</title>
<path fill="none" stroke="#63b8ff" d="M71.86,-110.86C70.37,-102.09 68.79,-92.81 67.67,-86.2"/>
<polygon fill="#63b8ff" stroke="#63b8ff" points="68.53,-111.17 73.65,-120.45 75.43,-110 68.53,-111.17"/>
</g>
<!-- Node5&#45;&gt;Node3 -->
<g id="edge5" class="edge">
<title>Node5&#45;&gt;Node3</title>
<path fill="none" stroke="#63b8ff" d="M133.88,-181.32C121.33,-171.91 106.87,-161.06 95.56,-152.58"/>
<polygon fill="#63b8ff" stroke="#63b8ff" points="131.51,-184.66 141.61,-187.86 135.71,-179.06 131.51,-184.66"/>
</g>
<!-- Node5&#45;&gt;Node4 -->
<g id="edge6" class="edge">
<title>Node5&#45;&gt;Node4</title>
<path fill="none" stroke="#63b8ff" d="M160.12,-177.09C157.67,-160 152.22,-137.76 140.12,-121.75 127.55,-105.11 106.82,-93.39 90.49,-86.14"/>
<polygon fill="#63b8ff" stroke="#63b8ff" points="156.75,-177.43 161.39,-186.96 163.71,-176.62 156.75,-177.43"/>
</g>
<!-- Node6 -->
<g id="node6" class="node">
<title>Node6</title>
<g id="a_node6"><a xlink:href="visitor_8h.html" target="_top" xlink:title=" ">
<polygon fill="white" stroke="#666666" points="304.5,-146.62 191.75,-146.62 191.75,-127.38 304.5,-127.38 304.5,-146.62"/>
<text text-anchor="middle" x="248.12" y="-133.12" font-family="Helvetica,sans-Serif" font-size="10.00">include/cppgc/visitor.h</text>
</a>
</g>
</g>
<!-- Node5&#45;&gt;Node6 -->
<g id="edge7" class="edge">
<title>Node5&#45;&gt;Node6</title>
<path fill="none" stroke="#63b8ff" d="M190.42,-181.28C206.03,-169.57 224.59,-155.65 236.36,-146.82"/>
<polygon fill="#63b8ff" stroke="#63b8ff" points="188.54,-179.06 182.64,-187.86 192.74,-184.66 188.54,-179.06"/>
</g>
<!-- Node7 -->
<g id="node7" class="node">
<title>Node7</title>
<g id="a_node7"><a xlink:href="cross-thread-persistent_8h.html" target="_top" xlink:title=" ">
<polygon fill="white" stroke="#666666" points="257.62,-30.5 154.62,-30.5 154.62,0 257.62,0 257.62,-30.5"/>
<text text-anchor="start" x="162.62" y="-17" font-family="Helvetica,sans-Serif" font-size="10.00">include/cppgc/cross</text>
<text text-anchor="middle" x="206.12" y="-5.75" font-family="Helvetica,sans-Serif" font-size="10.00">&#45;thread&#45;persistent.h</text>
</a>
</g>
</g>
<!-- Node6&#45;&gt;Node7 -->
<g id="edge8" class="edge">
<title>Node6&#45;&gt;Node7</title>
<path fill="none" stroke="#63b8ff" d="M217.02,-121.82C202.71,-113.52 187.15,-101.53 179.12,-85.75 169.85,-67.52 182.31,-45.32 193.21,-30.99"/>
<polygon fill="#63b8ff" stroke="#63b8ff" points="215.16,-125.33 225.62,-126.99 218.47,-119.17 215.16,-125.33"/>
</g>
<!-- Node8 -->
<g id="node8" class="node">
<title>Node8</title>
<g id="a_node8"><a xlink:href="persistent_8h.html" target="_top" xlink:title=" ">
<polygon fill="white" stroke="#666666" points="317.75,-85.75 188.5,-85.75 188.5,-66.5 317.75,-66.5 317.75,-85.75"/>
<text text-anchor="middle" x="253.12" y="-72.25" font-family="Helvetica,sans-Serif" font-size="10.00">include/cppgc/persistent.h</text>
</a>
</g>
</g>
<!-- Node6&#45;&gt;Node8 -->
<g id="edge9" class="edge">
<title>Node6&#45;&gt;Node8</title>
<path fill="none" stroke="#63b8ff" d="M249.8,-116.24C250.67,-106.06 251.68,-94.13 252.36,-86.15"/>
<polygon fill="#63b8ff" stroke="#63b8ff" points="246.24,-115.8 248.88,-126.06 253.22,-116.39 246.24,-115.8"/>
</g>
<!-- Node9 -->
<g id="node9" class="node">
<title>Node9</title>
<g id="a_node9"><a xlink:href="v8-cppgc_8h.html" target="_top" xlink:title=" ">
<polygon fill="white" stroke="#666666" points="432.62,-85.75 335.62,-85.75 335.62,-66.5 432.62,-66.5 432.62,-85.75"/>
<text text-anchor="middle" x="384.12" y="-72.25" font-family="Helvetica,sans-Serif" font-size="10.00">include/v8&#45;cppgc.h</text>
</a>
</g>
</g>
<!-- Node6&#45;&gt;Node9 -->
<g id="edge11" class="edge">
<title>Node6&#45;&gt;Node9</title>
<path fill="none" stroke="#63b8ff" d="M279.1,-122.59C304.89,-111.42 340.92,-95.83 363.37,-86.11"/>
<polygon fill="#63b8ff" stroke="#63b8ff" points="277.86,-119.75 270.08,-126.93 280.64,-126.17 277.86,-119.75"/>
</g>
<!-- Node8&#45;&gt;Node7 -->
<g id="edge10" class="edge">
<title>Node8&#45;&gt;Node7</title>
<path fill="none" stroke="#63b8ff" d="M239.22,-57.7C232.38,-49.13 224.23,-38.92 217.73,-30.78"/>
<polygon fill="#63b8ff" stroke="#63b8ff" points="237.01,-59.55 245.99,-65.18 242.48,-55.18 237.01,-59.55"/>
</g>
<!-- Node10&#45;&gt;Node9 -->
<g id="edge13" class="edge">
<title>Node10&#45;&gt;Node9</title>
<path fill="none" stroke="#63b8ff" d="M458,-260.14C429.74,-255.5 395.33,-244.52 377.12,-218.75 347.72,-177.13 370.44,-110.22 380.22,-86.13"/>
<polygon fill="#63b8ff" stroke="#63b8ff" points="457.49,-263.74 467.88,-261.67 458.46,-256.81 457.49,-263.74"/>
</g>
<!-- Node11 -->
<g id="node11" class="node">
<title>Node11</title>
<g id="a_node11"><a xlink:href="v8-inspector_8h.html" target="_top" xlink:title=" ">
<polygon fill="white" stroke="#666666" points="496.38,-213.12 385.88,-213.12 385.88,-193.88 496.38,-193.88 496.38,-213.12"/>
<text text-anchor="middle" x="441.12" y="-199.62" font-family="Helvetica,sans-Serif" font-size="10.00">include/v8&#45;inspector.h</text>
</a>
</g>
</g>
<!-- Node10&#45;&gt;Node11 -->
<g id="edge14" class="edge">
<title>Node10&#45;&gt;Node11</title>
<path fill="none" stroke="#63b8ff" d="M485.74,-246.87C474.37,-236.07 459.95,-222.37 450.63,-213.53"/>
<polygon fill="#63b8ff" stroke="#63b8ff" points="483.05,-249.09 492.71,-253.43 487.87,-244.01 483.05,-249.09"/>
</g>
<!-- Node13 -->
<g id="node13" class="node">
<title>Node13</title>
<g id="a_node13"><a xlink:href="v8-metrics_8h.html" target="_top" xlink:title=" ">
<polygon fill="white" stroke="#666666" points="617.62,-213.12 514.62,-213.12 514.62,-193.88 617.62,-193.88 617.62,-213.12"/>
<text text-anchor="middle" x="566.12" y="-199.62" font-family="Helvetica,sans-Serif" font-size="10.00">include/v8&#45;metrics.h</text>
</a>
</g>
</g>
<!-- Node10&#45;&gt;Node13 -->
<g id="edge16" class="edge">
<title>Node10&#45;&gt;Node13</title>
<path fill="none" stroke="#63b8ff" d="M520.45,-247.19C532.05,-236.34 546.9,-222.46 556.47,-213.53"/>
<polygon fill="#63b8ff" stroke="#63b8ff" points="518.61,-244.05 513.69,-253.43 523.39,-249.16 518.61,-244.05"/>
</g>
<!-- Node14 -->
<g id="node14" class="node">
<title>Node14</title>
<g id="a_node14"><a xlink:href="v8-profiler_8h.html" target="_top" xlink:title=" ">
<polygon fill="white" stroke="#666666" points="734.75,-213.12 635.5,-213.12 635.5,-193.88 734.75,-193.88 734.75,-213.12"/>
<text text-anchor="middle" x="685.12" y="-199.62" font-family="Helvetica,sans-Serif" font-size="10.00">include/v8&#45;profiler.h</text>
</a>
</g>
</g>
<!-- Node10&#45;&gt;Node14 -->
<g id="edge17" class="edge">
<title>Node10&#45;&gt;Node14</title>
<path fill="none" stroke="#63b8ff" d="M541.36,-251.01C575.94,-239.82 626.05,-223.61 657.05,-213.58"/>
<polygon fill="#63b8ff" stroke="#63b8ff" points="540.6,-247.9 532.16,-254.3 542.76,-254.56 540.6,-247.9"/>
</g>
<!-- Node15 -->
<g id="node15" class="node">
<title>Node15</title>
<g id="a_node15"><a xlink:href="v8-util_8h.html" target="_top" xlink:title=" ">
<polygon fill="white" stroke="#666666" points="835.88,-213.12 752.38,-213.12 752.38,-193.88 835.88,-193.88 835.88,-213.12"/>
<text text-anchor="middle" x="794.12" y="-199.62" font-family="Helvetica,sans-Serif" font-size="10.00">include/v8&#45;util.h</text>
</a>
</g>
</g>
<!-- Node10&#45;&gt;Node15 -->
<g id="edge18" class="edge">
<title>Node10&#45;&gt;Node15</title>
<path fill="none" stroke="#63b8ff" d="M548.03,-256.36C596.63,-248.47 676.29,-234.66 744.12,-218.75 750.63,-217.22 757.55,-215.39 764.1,-213.55"/>
<polygon fill="#63b8ff" stroke="#63b8ff" points="547.58,-253.05 538.26,-258.1 548.69,-259.96 547.58,-253.05"/>
</g>
<!-- Node12 -->
<g id="node12" class="node">
<title>Node12</title>
<g id="a_node12"><a xlink:href="v8-inspector-protocol_8h.html" target="_top" xlink:title=" ">
<polygon fill="white" stroke="#666666" points="492.62,-152.25 389.62,-152.25 389.62,-121.75 492.62,-121.75 492.62,-152.25"/>
<text text-anchor="start" x="397.62" y="-138.75" font-family="Helvetica,sans-Serif" font-size="10.00">include/v8&#45;inspector</text>
<text text-anchor="middle" x="441.12" y="-127.5" font-family="Helvetica,sans-Serif" font-size="10.00">&#45;protocol.h</text>
</a>
</g>
</g>
<!-- Node11&#45;&gt;Node12 -->
<g id="edge15" class="edge">
<title>Node11&#45;&gt;Node12</title>
<path fill="none" stroke="#63b8ff" d="M441.12,-182.77C441.12,-172.95 441.12,-161.3 441.12,-152.34"/>
<polygon fill="#63b8ff" stroke="#63b8ff" points="437.63,-182.53 441.12,-192.53 444.63,-182.53 437.63,-182.53"/>
</g>
</g>
</svg>
