<?xml version="1.0" encoding="UTF-8" standalone="no"?>
<!DOCTYPE svg PUBLIC "-//W3C//DTD SVG 1.1//EN"
 "http://www.w3.org/Graphics/SVG/1.1/DTD/svg11.dtd">
<!-- Generated by graphviz version 8.0.5 (20230430.1635)
 -->
<!-- Title: include/cppgc/persistent.h Pages: 1 -->
<svg width="1613pt" height="514pt"
 viewBox="0.00 0.00 1613.16 514.25" xmlns="http://www.w3.org/2000/svg" xmlns:xlink="http://www.w3.org/1999/xlink">
<g id="graph0" class="graph" transform="scale(1 1) rotate(0) translate(4 510.25)">
<title>include/cppgc/persistent.h</title>
<!-- Node1 -->
<g id="node1" class="node">
<title>Node1</title>
<g id="a_node1"><a xlink:title=" ">
<polygon fill="#999999" stroke="#666666" points="1060.62,-506.25 931.38,-506.25 931.38,-487 1060.62,-487 1060.62,-506.25"/>
<text text-anchor="middle" x="996" y="-492.75" font-family="Helvetica,sans-Serif" font-size="10.00">include/cppgc/persistent.h</text>
</a>
</g>
</g>
<!-- Node2 -->
<g id="node2" class="node">
<title>Node2</title>
<g id="a_node2"><a xlink:title=" ">
<polygon fill="#e0e0e0" stroke="#999999" points="1032.5,-19.25 971.5,-19.25 971.5,0 1032.5,0 1032.5,-19.25"/>
<text text-anchor="middle" x="1002" y="-5.75" font-family="Helvetica,sans-Serif" font-size="10.00">type_traits</text>
</a>
</g>
</g>
<!-- Node1&#45;&gt;Node2 -->
<g id="edge1" class="edge">
<title>Node1&#45;&gt;Node2</title>
<path fill="none" stroke="#63b8ff" d="M1060.76,-492.97C1172.96,-487.8 1398.69,-474.77 1474,-451 1528.65,-433.75 1586,-444.43 1586,-387.12 1586,-387.12 1586,-387.12 1586,-136 1586,-25.04 1177.86,-11.98 1043.98,-10.68"/>
<polygon fill="#63b8ff" stroke="#63b8ff" points="1044.01,-7.17 1033.99,-10.6 1043.96,-14.17 1044.01,-7.17"/>
</g>
<!-- Node3 -->
<g id="node3" class="node">
<title>Node3</title>
<g id="a_node3"><a xlink:href="persistent-node_8h.html" target="_top" xlink:title=" ">
<polygon fill="white" stroke="#666666" points="516.25,-285.25 393.75,-285.25 393.75,-254.75 516.25,-254.75 516.25,-285.25"/>
<text text-anchor="start" x="401.75" y="-271.75" font-family="Helvetica,sans-Serif" font-size="10.00">cppgc/internal/persistent</text>
<text text-anchor="middle" x="455" y="-260.5" font-family="Helvetica,sans-Serif" font-size="10.00">&#45;node.h</text>
</a>
</g>
</g>
<!-- Node1&#45;&gt;Node3 -->
<g id="edge2" class="edge">
<title>Node1&#45;&gt;Node3</title>
<path fill="none" stroke="#63b8ff" d="M930.93,-493.44C807.51,-488.75 548.85,-476.03 517,-451 469.09,-413.35 458.03,-336.57 455.59,-296.55"/>
<polygon fill="#63b8ff" stroke="#63b8ff" points="459.04,-296.45 455.09,-286.62 452.05,-296.77 459.04,-296.45"/>
</g>
<!-- Node8 -->
<g id="node8" class="node">
<title>Node8</title>
<g id="a_node8"><a xlink:href="source-location_8h.html" target="_top" xlink:title=" ">
<polygon fill="white" stroke="#666666" points="1440.38,-146.62 1321.62,-146.62 1321.62,-127.38 1440.38,-127.38 1440.38,-146.62"/>
<text text-anchor="middle" x="1381" y="-133.12" font-family="Helvetica,sans-Serif" font-size="10.00">cppgc/source&#45;location.h</text>
</a>
</g>
</g>
<!-- Node1&#45;&gt;Node8 -->
<g id="edge33" class="edge">
<title>Node1&#45;&gt;Node8</title>
<path fill="none" stroke="#63b8ff" d="M1061.1,-495.38C1199.41,-493.1 1510,-477.87 1510,-387.12 1510,-387.12 1510,-387.12 1510,-269 1510,-212.89 1449.17,-172.07 1411.06,-152"/>
<polygon fill="#63b8ff" stroke="#63b8ff" points="1412.94,-148.52 1402.44,-147.12 1409.77,-154.76 1412.94,-148.52"/>
</g>
<!-- Node10 -->
<g id="node10" class="node">
<title>Node10</title>
<g id="a_node10"><a xlink:href="v8config_8h.html" target="_top" xlink:title=" ">
<polygon fill="white" stroke="#666666" points="958.75,-80.12 899.25,-80.12 899.25,-60.88 958.75,-60.88 958.75,-80.12"/>
<text text-anchor="middle" x="929" y="-66.62" font-family="Helvetica,sans-Serif" font-size="10.00">v8config.h</text>
</a>
</g>
</g>
<!-- Node1&#45;&gt;Node10 -->
<g id="edge78" class="edge">
<title>Node1&#45;&gt;Node10</title>
<path fill="none" stroke="#63b8ff" d="M980.84,-486.55C932.06,-456.25 779.88,-352.92 737,-218.75 732.87,-205.84 730.36,-200.07 737,-188.25 741.71,-179.88 852.73,-115.34 903.76,-85.97"/>
<polygon fill="#63b8ff" stroke="#63b8ff" points="905.19,-88.61 912.12,-80.59 901.7,-82.54 905.19,-88.61"/>
</g>
<!-- Node12 -->
<g id="node12" class="node">
<title>Node12</title>
<g id="a_node12"><a xlink:href="type-traits_8h.html" target="_top" xlink:title=" ">
<polygon fill="white" stroke="#666666" points="123.75,-80.12 28.25,-80.12 28.25,-60.88 123.75,-60.88 123.75,-80.12"/>
<text text-anchor="middle" x="76" y="-66.62" font-family="Helvetica,sans-Serif" font-size="10.00">cppgc/type&#45;traits.h</text>
</a>
</g>
</g>
<!-- Node1&#45;&gt;Node12 -->
<g id="edge34" class="edge">
<title>Node1&#45;&gt;Node12</title>
<path fill="none" stroke="#63b8ff" d="M931.03,-495.39C709.89,-493.73 0,-481.11 0,-387.12 0,-387.12 0,-387.12 0,-202.5 0,-156.13 36.06,-111.49 58.5,-88.19"/>
<polygon fill="#63b8ff" stroke="#63b8ff" points="60.48,-91.16 65.06,-81.61 55.52,-86.22 60.48,-91.16"/>
</g>
<!-- Node13 -->
<g id="node13" class="node">
<title>Node13</title>
<g id="a_node13"><a xlink:href="pointer-policies_8h.html" target="_top" xlink:title=" ">
<polygon fill="white" stroke="#666666" points="1347.5,-285.25 1238.5,-285.25 1238.5,-254.75 1347.5,-254.75 1347.5,-285.25"/>
<text text-anchor="start" x="1246.5" y="-271.75" font-family="Helvetica,sans-Serif" font-size="10.00">cppgc/internal/pointer</text>
<text text-anchor="middle" x="1293" y="-260.5" font-family="Helvetica,sans-Serif" font-size="10.00">&#45;policies.h</text>
</a>
</g>
</g>
<!-- Node1&#45;&gt;Node13 -->
<g id="edge17" class="edge">
<title>Node1&#45;&gt;Node13</title>
<path fill="none" stroke="#63b8ff" d="M1056.23,-486.51C1114.21,-474.82 1200.97,-449.27 1256,-395.75 1282.92,-369.56 1290.48,-324.78 1292.47,-296.59"/>
<polygon fill="#63b8ff" stroke="#63b8ff" points="1296.02,-296.8 1293.03,-286.63 1289.03,-296.44 1296.02,-296.8"/>
</g>
<!-- Node22 -->
<g id="node22" class="node">
<title>Node22</title>
<g id="a_node22"><a xlink:href="visitor_8h.html" target="_top" xlink:title=" ">
<polygon fill="white" stroke="#666666" points="1035.5,-451 956.5,-451 956.5,-431.75 1035.5,-431.75 1035.5,-451"/>
<text text-anchor="middle" x="996" y="-437.5" font-family="Helvetica,sans-Serif" font-size="10.00">cppgc/visitor.h</text>
</a>
</g>
</g>
<!-- Node1&#45;&gt;Node22 -->
<g id="edge35" class="edge">
<title>Node1&#45;&gt;Node22</title>
<path fill="none" stroke="#63b8ff" d="M996,-486.83C996,-480.17 996,-470.74 996,-462.28"/>
<polygon fill="#63b8ff" stroke="#63b8ff" points="999.5,-462.36 996,-452.36 992.5,-462.36 999.5,-462.36"/>
</g>
<!-- Node4 -->
<g id="node4" class="node">
<title>Node4</title>
<g id="a_node4"><a xlink:title=" ">
<polygon fill="#e0e0e0" stroke="#999999" points="331.5,-213.12 294.5,-213.12 294.5,-193.88 331.5,-193.88 331.5,-213.12"/>
<text text-anchor="middle" x="313" y="-199.62" font-family="Helvetica,sans-Serif" font-size="10.00">array</text>
</a>
</g>
</g>
<!-- Node3&#45;&gt;Node4 -->
<g id="edge3" class="edge">
<title>Node3&#45;&gt;Node4</title>
<path fill="none" stroke="#63b8ff" d="M422.78,-254.36C398.26,-243.23 364.84,-228.05 341.33,-217.37"/>
<polygon fill="#63b8ff" stroke="#63b8ff" points="343.16,-213.9 332.61,-212.95 340.27,-220.28 343.16,-213.9"/>
</g>
<!-- Node5 -->
<g id="node5" class="node">
<title>Node5</title>
<g id="a_node5"><a xlink:title=" ">
<polygon fill="#e0e0e0" stroke="#999999" points="488.25,-80.12 437.75,-80.12 437.75,-60.88 488.25,-60.88 488.25,-80.12"/>
<text text-anchor="middle" x="463" y="-66.62" font-family="Helvetica,sans-Serif" font-size="10.00">memory</text>
</a>
</g>
</g>
<!-- Node3&#45;&gt;Node5 -->
<g id="edge4" class="edge">
<title>Node3&#45;&gt;Node5</title>
<path fill="none" stroke="#63b8ff" d="M453.46,-254.32C450.96,-227.77 446.78,-170.05 452,-121.75 453.12,-111.39 455.51,-100.03 457.77,-90.74"/>
<polygon fill="#63b8ff" stroke="#63b8ff" points="461.35,-91.86 460.47,-81.3 454.58,-90.11 461.35,-91.86"/>
</g>
<!-- Node6 -->
<g id="node6" class="node">
<title>Node6</title>
<g id="a_node6"><a xlink:title=" ">
<polygon fill="#e0e0e0" stroke="#999999" points="545.5,-213.12 502.5,-213.12 502.5,-193.88 545.5,-193.88 545.5,-213.12"/>
<text text-anchor="middle" x="524" y="-199.62" font-family="Helvetica,sans-Serif" font-size="10.00">vector</text>
</a>
</g>
</g>
<!-- Node3&#45;&gt;Node6 -->
<g id="edge5" class="edge">
<title>Node3&#45;&gt;Node6</title>
<path fill="none" stroke="#63b8ff" d="M470.66,-254.36C481.43,-244.29 495.74,-230.92 506.82,-220.56"/>
<polygon fill="#63b8ff" stroke="#63b8ff" points="508.65,-223.71 513.56,-214.32 503.87,-218.59 508.65,-223.71"/>
</g>
<!-- Node7 -->
<g id="node7" class="node">
<title>Node7</title>
<g id="a_node7"><a xlink:href="logging_8h.html" target="_top" xlink:title=" ">
<polygon fill="white" stroke="#666666" points="1266,-213.12 1148,-213.12 1148,-193.88 1266,-193.88 1266,-213.12"/>
<text text-anchor="middle" x="1207" y="-199.62" font-family="Helvetica,sans-Serif" font-size="10.00">cppgc/internal/logging.h</text>
</a>
</g>
</g>
<!-- Node3&#45;&gt;Node7 -->
<g id="edge6" class="edge">
<title>Node3&#45;&gt;Node7</title>
<path fill="none" stroke="#63b8ff" d="M516.61,-267.22C636.81,-263.15 910.85,-250.89 1139,-218.75 1145.04,-217.9 1151.36,-216.83 1157.6,-215.66"/>
<polygon fill="#63b8ff" stroke="#63b8ff" points="1157.83,-218.98 1166.96,-213.61 1156.47,-212.11 1157.83,-218.98"/>
</g>
<!-- Node3&#45;&gt;Node10 -->
<g id="edge16" class="edge">
<title>Node3&#45;&gt;Node10</title>
<path fill="none" stroke="#63b8ff" d="M457.82,-254.52C462.21,-236.11 472.49,-204.72 494,-188.25 562.58,-135.73 603.98,-182.21 685,-152.25 710.49,-142.82 712.86,-132.08 738,-121.75 787.9,-101.25 848.61,-86.97 888,-79"/>
<polygon fill="#63b8ff" stroke="#63b8ff" points="888.63,-82.25 897.76,-76.88 887.27,-75.38 888.63,-82.25"/>
</g>
<!-- Node11 -->
<g id="node11" class="node">
<title>Node11</title>
<g id="a_node11"><a xlink:href="trace-trait_8h.html" target="_top" xlink:title=" ">
<polygon fill="white" stroke="#666666" points="348,-146.62 254,-146.62 254,-127.38 348,-127.38 348,-146.62"/>
<text text-anchor="middle" x="301" y="-133.12" font-family="Helvetica,sans-Serif" font-size="10.00">cppgc/trace&#45;trait.h</text>
</a>
</g>
</g>
<!-- Node3&#45;&gt;Node11 -->
<g id="edge11" class="edge">
<title>Node3&#45;&gt;Node11</title>
<path fill="none" stroke="#63b8ff" d="M437.93,-254.48C408.85,-229.74 349.92,-179.62 319.74,-153.94"/>
<polygon fill="#63b8ff" stroke="#63b8ff" points="322.58,-150.91 312.7,-147.1 318.05,-156.25 322.58,-150.91"/>
</g>
<!-- Node7&#45;&gt;Node8 -->
<g id="edge7" class="edge">
<title>Node7&#45;&gt;Node8</title>
<path fill="none" stroke="#63b8ff" d="M1231.56,-193.4C1261.61,-182.26 1312.68,-163.33 1346.62,-150.74"/>
<polygon fill="#63b8ff" stroke="#63b8ff" points="1347.4,-153.82 1355.56,-147.06 1344.97,-147.25 1347.4,-153.82"/>
</g>
<!-- Node7&#45;&gt;Node10 -->
<g id="edge10" class="edge">
<title>Node7&#45;&gt;Node10</title>
<path fill="none" stroke="#63b8ff" d="M1194.52,-193.49C1171.83,-177.4 1121.91,-143.41 1076,-121.75 1041.24,-105.35 999.63,-91.64 969.57,-82.7"/>
<polygon fill="#63b8ff" stroke="#63b8ff" points="970.63,-79.07 960.05,-79.63 968.67,-85.79 970.63,-79.07"/>
</g>
<!-- Node9 -->
<g id="node9" class="node">
<title>Node9</title>
<g id="a_node9"><a xlink:title=" ">
<polygon fill="#e0e0e0" stroke="#999999" points="1359,-80.12 1319,-80.12 1319,-60.88 1359,-60.88 1359,-80.12"/>
<text text-anchor="middle" x="1339" y="-66.62" font-family="Helvetica,sans-Serif" font-size="10.00">string</text>
</a>
</g>
</g>
<!-- Node8&#45;&gt;Node9 -->
<g id="edge8" class="edge">
<title>Node8&#45;&gt;Node9</title>
<path fill="none" stroke="#63b8ff" d="M1375.16,-127.03C1368.83,-117.31 1358.56,-101.54 1350.58,-89.28"/>
<polygon fill="#63b8ff" stroke="#63b8ff" points="1353.18,-87.86 1344.79,-81.39 1347.31,-91.68 1353.18,-87.86"/>
</g>
<!-- Node8&#45;&gt;Node10 -->
<g id="edge9" class="edge">
<title>Node8&#45;&gt;Node10</title>
<path fill="none" stroke="#63b8ff" d="M1336.68,-126.9C1327.24,-125.09 1317.3,-123.27 1308,-121.75 1185.46,-101.68 1039.61,-84.11 969.97,-76.1"/>
<polygon fill="#63b8ff" stroke="#63b8ff" points="970.39,-72.51 960.06,-74.85 969.6,-79.47 970.39,-72.51"/>
</g>
<!-- Node11&#45;&gt;Node2 -->
<g id="edge12" class="edge">
<title>Node11&#45;&gt;Node2</title>
<path fill="none" stroke="#63b8ff" d="M311.37,-126.91C332.06,-109.4 380.62,-71.3 429,-55.25 527.76,-22.49 845.9,-13.49 960.43,-11.28"/>
<polygon fill="#63b8ff" stroke="#63b8ff" points="960.24,-14.77 970.18,-11.08 960.11,-7.77 960.24,-14.77"/>
</g>
<!-- Node11&#45;&gt;Node10 -->
<g id="edge15" class="edge">
<title>Node11&#45;&gt;Node10</title>
<path fill="none" stroke="#63b8ff" d="M348.46,-131.13C467.39,-118.91 776.59,-87.15 888.13,-75.7"/>
<polygon fill="#63b8ff" stroke="#63b8ff" points="888.31,-79.09 897.9,-74.59 887.6,-72.13 888.31,-79.09"/>
</g>
<!-- Node11&#45;&gt;Node12 -->
<g id="edge13" class="edge">
<title>Node11&#45;&gt;Node12</title>
<path fill="none" stroke="#63b8ff" d="M269.24,-126.9C229.62,-115.54 161.78,-96.09 117.93,-83.52"/>
<polygon fill="#63b8ff" stroke="#63b8ff" points="119.18,-79.95 108.6,-80.56 117.25,-86.68 119.18,-79.95"/>
</g>
<!-- Node12&#45;&gt;Node2 -->
<g id="edge14" class="edge">
<title>Node12&#45;&gt;Node2</title>
<path fill="none" stroke="#63b8ff" d="M110.56,-60.44C119.45,-58.41 129.03,-56.5 138,-55.25 451.75,-11.43 834.99,-9.53 960.24,-10.21"/>
<polygon fill="#63b8ff" stroke="#63b8ff" points="960.18,-13.72 970.21,-10.28 960.23,-6.72 960.18,-13.72"/>
</g>
<!-- Node13&#45;&gt;Node2 -->
<g id="edge19" class="edge">
<title>Node13&#45;&gt;Node2</title>
<path fill="none" stroke="#63b8ff" d="M1347.77,-255.58C1370.65,-247.82 1396.22,-236.06 1415,-218.75 1448.6,-187.8 1468.53,-163.05 1449,-121.75 1429.09,-79.64 1410.82,-73.58 1368,-55.25 1310.4,-30.6 1126.89,-17.56 1043.7,-12.78"/>
<polygon fill="#63b8ff" stroke="#63b8ff" points="1044.07,-9.24 1033.89,-12.17 1043.68,-16.23 1044.07,-9.24"/>
</g>
<!-- Node13&#45;&gt;Node8 -->
<g id="edge31" class="edge">
<title>Node13&#45;&gt;Node8</title>
<path fill="none" stroke="#63b8ff" d="M1302.75,-254.48C1318.94,-230.38 1351.32,-182.18 1368.93,-155.97"/>
<polygon fill="#63b8ff" stroke="#63b8ff" points="1372.22,-158.35 1374.89,-148.1 1366.4,-154.45 1372.22,-158.35"/>
</g>
<!-- Node13&#45;&gt;Node10 -->
<g id="edge32" class="edge">
<title>Node13&#45;&gt;Node10</title>
<path fill="none" stroke="#63b8ff" d="M1295.39,-254.37C1299.33,-224.7 1303.46,-157.24 1267,-121.75 1225.43,-81.29 1050.14,-73.32 969.68,-71.82"/>
<polygon fill="#63b8ff" stroke="#63b8ff" points="970.04,-68.3 959.98,-71.64 969.92,-75.3 970.04,-68.3"/>
</g>
<!-- Node14 -->
<g id="node14" class="node">
<title>Node14</title>
<g id="a_node14"><a xlink:title=" ">
<polygon fill="#e0e0e0" stroke="#999999" points="1405.62,-213.12 1360.38,-213.12 1360.38,-193.88 1405.62,-193.88 1405.62,-213.12"/>
<text text-anchor="middle" x="1383" y="-199.62" font-family="Helvetica,sans-Serif" font-size="10.00">cstdint</text>
</a>
</g>
</g>
<!-- Node13&#45;&gt;Node14 -->
<g id="edge18" class="edge">
<title>Node13&#45;&gt;Node14</title>
<path fill="none" stroke="#63b8ff" d="M1313.42,-254.36C1327.8,-244.06 1347.01,-230.29 1361.6,-219.83"/>
<polygon fill="#63b8ff" stroke="#63b8ff" points="1363.34,-222.18 1369.43,-213.51 1359.26,-216.49 1363.34,-222.18"/>
</g>
<!-- Node15 -->
<g id="node15" class="node">
<title>Node15</title>
<g id="a_node15"><a xlink:href="write-barrier_8h.html" target="_top" xlink:title=" ">
<polygon fill="white" stroke="#666666" points="1130.38,-218.75 1029.62,-218.75 1029.62,-188.25 1130.38,-188.25 1130.38,-218.75"/>
<text text-anchor="start" x="1037.62" y="-205.25" font-family="Helvetica,sans-Serif" font-size="10.00">cppgc/internal/write</text>
<text text-anchor="middle" x="1080" y="-194" font-family="Helvetica,sans-Serif" font-size="10.00">&#45;barrier.h</text>
</a>
</g>
</g>
<!-- Node13&#45;&gt;Node15 -->
<g id="edge20" class="edge">
<title>Node13&#45;&gt;Node15</title>
<path fill="none" stroke="#63b8ff" d="M1244.4,-254.28C1213.05,-244.79 1172.07,-232.38 1138.87,-222.33"/>
<polygon fill="#63b8ff" stroke="#63b8ff" points="1139.98,-218.7 1129.39,-219.15 1137.95,-225.4 1139.98,-218.7"/>
</g>
<!-- Node15&#45;&gt;Node10 -->
<g id="edge30" class="edge">
<title>Node15&#45;&gt;Node10</title>
<path fill="none" stroke="#63b8ff" d="M1078.98,-187.8C1077,-170.02 1071.17,-140.18 1054,-121.75 1031.83,-97.96 996.87,-85.18 969.55,-78.48"/>
<polygon fill="#63b8ff" stroke="#63b8ff" points="970.65,-74.92 960.12,-76.12 969.1,-81.74 970.65,-74.92"/>
</g>
<!-- Node15&#45;&gt;Node11 -->
<g id="edge29" class="edge">
<title>Node15&#45;&gt;Node11</title>
<path fill="none" stroke="#63b8ff" d="M1029.19,-198.29C890.44,-186.8 505.7,-154.95 358.92,-142.8"/>
<polygon fill="#63b8ff" stroke="#63b8ff" points="359.61,-139.26 349.35,-141.92 359.03,-146.23 359.61,-139.26"/>
</g>
<!-- Node16 -->
<g id="node16" class="node">
<title>Node16</title>
<g id="a_node16"><a xlink:href="api-constants_8h.html" target="_top" xlink:title=" ">
<polygon fill="white" stroke="#666666" points="676.25,-152.25 583.75,-152.25 583.75,-121.75 676.25,-121.75 676.25,-152.25"/>
<text text-anchor="start" x="591.75" y="-138.75" font-family="Helvetica,sans-Serif" font-size="10.00">cppgc/internal/api</text>
<text text-anchor="middle" x="630" y="-127.5" font-family="Helvetica,sans-Serif" font-size="10.00">&#45;constants.h</text>
</a>
</g>
</g>
<!-- Node15&#45;&gt;Node16 -->
<g id="edge21" class="edge">
<title>Node15&#45;&gt;Node16</title>
<path fill="none" stroke="#63b8ff" d="M1029.25,-195.23C944.74,-183.11 775.73,-158.89 687.15,-146.19"/>
<polygon fill="#63b8ff" stroke="#63b8ff" points="687.89,-142.62 677.5,-144.66 686.9,-149.55 687.89,-142.62"/>
</g>
<!-- Node19 -->
<g id="node19" class="node">
<title>Node19</title>
<g id="a_node19"><a xlink:href="process-heap_8h.html" target="_top" xlink:title=" ">
<polygon fill="white" stroke="#666666" points="1258.12,-152.25 1143.88,-152.25 1143.88,-121.75 1258.12,-121.75 1258.12,-152.25"/>
<text text-anchor="start" x="1151.88" y="-138.75" font-family="Helvetica,sans-Serif" font-size="10.00">cppgc/internal/process</text>
<text text-anchor="middle" x="1201" y="-127.5" font-family="Helvetica,sans-Serif" font-size="10.00">&#45;heap.h</text>
</a>
</g>
</g>
<!-- Node15&#45;&gt;Node19 -->
<g id="edge25" class="edge">
<title>Node15&#45;&gt;Node19</title>
<path fill="none" stroke="#63b8ff" d="M1107.46,-187.86C1124.24,-178.92 1145.92,-167.36 1164.19,-157.62"/>
<polygon fill="#63b8ff" stroke="#63b8ff" points="1165.47,-160.37 1172.65,-152.58 1162.18,-154.19 1165.47,-160.37"/>
</g>
<!-- Node16&#45;&gt;Node10 -->
<g id="edge24" class="edge">
<title>Node16&#45;&gt;Node10</title>
<path fill="none" stroke="#63b8ff" d="M676.49,-124.83C681.05,-123.78 685.61,-122.73 690,-121.75 759.48,-106.2 840.64,-89.43 888.27,-79.73"/>
<polygon fill="#63b8ff" stroke="#63b8ff" points="888.66,-83.02 897.76,-77.6 887.27,-76.16 888.66,-83.02"/>
</g>
<!-- Node17 -->
<g id="node17" class="node">
<title>Node17</title>
<g id="a_node17"><a xlink:title=" ">
<polygon fill="#e0e0e0" stroke="#999999" points="687.25,-80.12 636.75,-80.12 636.75,-60.88 687.25,-60.88 687.25,-80.12"/>
<text text-anchor="middle" x="662" y="-66.62" font-family="Helvetica,sans-Serif" font-size="10.00">stddef.h</text>
</a>
</g>
</g>
<!-- Node16&#45;&gt;Node17 -->
<g id="edge22" class="edge">
<title>Node16&#45;&gt;Node17</title>
<path fill="none" stroke="#63b8ff" d="M637.26,-121.36C641.87,-112.08 647.86,-100 652.8,-90.05"/>
<polygon fill="#63b8ff" stroke="#63b8ff" points="656.31,-91.84 657.62,-81.32 650.04,-88.73 656.31,-91.84"/>
</g>
<!-- Node18 -->
<g id="node18" class="node">
<title>Node18</title>
<g id="a_node18"><a xlink:title=" ">
<polygon fill="#e0e0e0" stroke="#999999" points="618.75,-80.12 571.25,-80.12 571.25,-60.88 618.75,-60.88 618.75,-80.12"/>
<text text-anchor="middle" x="595" y="-66.62" font-family="Helvetica,sans-Serif" font-size="10.00">stdint.h</text>
</a>
</g>
</g>
<!-- Node16&#45;&gt;Node18 -->
<g id="edge23" class="edge">
<title>Node16&#45;&gt;Node18</title>
<path fill="none" stroke="#63b8ff" d="M622.06,-121.36C616.97,-111.98 610.32,-99.74 604.89,-89.73"/>
<polygon fill="#63b8ff" stroke="#63b8ff" points="607.63,-88.44 599.79,-81.32 601.48,-91.78 607.63,-88.44"/>
</g>
<!-- Node19&#45;&gt;Node10 -->
<g id="edge28" class="edge">
<title>Node19&#45;&gt;Node10</title>
<path fill="none" stroke="#63b8ff" d="M1143.65,-122.4C1091.41,-110.01 1015.6,-92.03 969.45,-81.09"/>
<polygon fill="#63b8ff" stroke="#63b8ff" points="970.48,-77.5 959.95,-78.6 968.87,-84.31 970.48,-77.5"/>
</g>
<!-- Node20 -->
<g id="node20" class="node">
<title>Node20</title>
<g id="a_node20"><a xlink:href="atomic-entry-flag_8h.html" target="_top" xlink:title=" ">
<polygon fill="white" stroke="#666666" points="1277.5,-85.75 1168.5,-85.75 1168.5,-55.25 1277.5,-55.25 1277.5,-85.75"/>
<text text-anchor="start" x="1176.5" y="-72.25" font-family="Helvetica,sans-Serif" font-size="10.00">cppgc/internal/atomic</text>
<text text-anchor="middle" x="1223" y="-61" font-family="Helvetica,sans-Serif" font-size="10.00">&#45;entry&#45;flag.h</text>
</a>
</g>
</g>
<!-- Node19&#45;&gt;Node20 -->
<g id="edge26" class="edge">
<title>Node19&#45;&gt;Node20</title>
<path fill="none" stroke="#63b8ff" d="M1205.99,-121.36C1208.52,-113.94 1211.67,-104.72 1214.56,-96.24"/>
<polygon fill="#63b8ff" stroke="#63b8ff" points="1218.11,-97.67 1218.03,-87.08 1211.49,-95.41 1218.11,-97.67"/>
</g>
<!-- Node21 -->
<g id="node21" class="node">
<title>Node21</title>
<g id="a_node21"><a xlink:title=" ">
<polygon fill="#e0e0e0" stroke="#999999" points="1455.62,-19.25 1410.38,-19.25 1410.38,0 1455.62,0 1455.62,-19.25"/>
<text text-anchor="middle" x="1433" y="-5.75" font-family="Helvetica,sans-Serif" font-size="10.00">atomic</text>
</a>
</g>
</g>
<!-- Node20&#45;&gt;Node21 -->
<g id="edge27" class="edge">
<title>Node20&#45;&gt;Node21</title>
<path fill="none" stroke="#63b8ff" d="M1275.45,-54.8C1314.31,-43.9 1366.1,-29.38 1399.5,-20.02"/>
<polygon fill="#63b8ff" stroke="#63b8ff" points="1400.4,-23.12 1409.08,-17.05 1398.51,-16.38 1400.4,-23.12"/>
</g>
<!-- Node22&#45;&gt;Node7 -->
<g id="edge60" class="edge">
<title>Node22&#45;&gt;Node7</title>
<path fill="none" stroke="#63b8ff" d="M1001.18,-431.31C1021.95,-395.01 1098.42,-261.79 1106,-254.75 1123.84,-238.17 1148.17,-225.85 1168.48,-217.55"/>
<polygon fill="#63b8ff" stroke="#63b8ff" points="1169.64,-220.47 1177.68,-213.58 1167.1,-213.95 1169.64,-220.47"/>
</g>
<!-- Node22&#45;&gt;Node8 -->
<g id="edge75" class="edge">
<title>Node22&#45;&gt;Node8</title>
<path fill="none" stroke="#63b8ff" d="M1035.58,-441.35C1088.9,-441 1185.27,-434.4 1256,-395.75 1348.79,-345.04 1377.89,-317.77 1415,-218.75 1419.76,-206.06 1418.97,-201.21 1415,-188.25 1411.33,-176.29 1403.75,-164.61 1396.68,-155.53"/>
<polygon fill="#63b8ff" stroke="#63b8ff" points="1398.76,-153.56 1389.67,-148.1 1393.37,-158.03 1398.76,-153.56"/>
</g>
<!-- Node22&#45;&gt;Node11 -->
<g id="edge76" class="edge">
<title>Node22&#45;&gt;Node11</title>
<path fill="none" stroke="#63b8ff" d="M956.13,-435.17C827.97,-417.84 428.78,-358.98 324,-285.25 294.4,-264.42 287.96,-253.24 277,-218.75 270.18,-197.28 280.25,-172.41 289.36,-156.01"/>
<polygon fill="#63b8ff" stroke="#63b8ff" points="292.62,-158.37 294.75,-148 286.62,-154.78 292.62,-158.37"/>
</g>
<!-- Node22&#45;&gt;Node12 -->
<g id="edge77" class="edge">
<title>Node22&#45;&gt;Node12</title>
<path fill="none" stroke="#63b8ff" d="M956.06,-440.12C774.75,-438.44 38,-425.82 38,-331.88 38,-331.88 38,-331.88 38,-202.5 38,-161.22 55.62,-115.42 66.86,-90.4"/>
<polygon fill="#63b8ff" stroke="#63b8ff" points="70.44,-91.99 71.49,-81.45 64.1,-89.04 70.44,-91.99"/>
</g>
<!-- Node22&#45;&gt;Node13 -->
<g id="edge61" class="edge">
<title>Node22&#45;&gt;Node13</title>
<path fill="none" stroke="#63b8ff" d="M1035.78,-437.34C1095.47,-432.06 1204.49,-419.43 1235,-395.75 1251.7,-382.79 1273.03,-328.12 1284.61,-295.61"/>
<polygon fill="#63b8ff" stroke="#63b8ff" points="1288.14,-297.12 1288.14,-286.53 1281.53,-294.81 1288.14,-297.12"/>
</g>
<!-- Node23 -->
<g id="node23" class="node">
<title>Node23</title>
<g id="a_node23"><a xlink:href="custom-space_8h.html" target="_top" xlink:title=" ">
<polygon fill="white" stroke="#666666" points="860.12,-213.12 745.88,-213.12 745.88,-193.88 860.12,-193.88 860.12,-213.12"/>
<text text-anchor="middle" x="803" y="-199.62" font-family="Helvetica,sans-Serif" font-size="10.00">cppgc/custom&#45;space.h</text>
</a>
</g>
</g>
<!-- Node22&#45;&gt;Node23 -->
<g id="edge36" class="edge">
<title>Node22&#45;&gt;Node23</title>
<path fill="none" stroke="#63b8ff" d="M956.06,-431.33C933.22,-424.56 905.19,-413.37 885,-395.75 831.94,-349.46 812.15,-262.79 805.72,-224.07"/>
<polygon fill="#63b8ff" stroke="#63b8ff" points="809.04,-223.65 804.07,-214.29 802.12,-224.7 809.04,-223.65"/>
</g>
<!-- Node24 -->
<g id="node24" class="node">
<title>Node24</title>
<g id="a_node24"><a xlink:href="ephemeron-pair_8h.html" target="_top" xlink:title=" ">
<polygon fill="white" stroke="#666666" points="1225.75,-395.75 1106.25,-395.75 1106.25,-376.5 1225.75,-376.5 1225.75,-395.75"/>
<text text-anchor="middle" x="1166" y="-382.25" font-family="Helvetica,sans-Serif" font-size="10.00">cppgc/ephemeron&#45;pair.h</text>
</a>
</g>
</g>
<!-- Node22&#45;&gt;Node24 -->
<g id="edge38" class="edge">
<title>Node22&#45;&gt;Node24</title>
<path fill="none" stroke="#63b8ff" d="M1024.84,-431.34C1052.8,-422.58 1095.44,-409.23 1126.54,-399.48"/>
<polygon fill="#63b8ff" stroke="#63b8ff" points="1127.52,-402.53 1136.02,-396.2 1125.43,-395.85 1127.52,-402.53"/>
</g>
<!-- Node25 -->
<g id="node25" class="node">
<title>Node25</title>
<g id="a_node25"><a xlink:href="member_8h.html" target="_top" xlink:title=" ">
<polygon fill="white" stroke="#666666" points="1183,-340.5 1095,-340.5 1095,-321.25 1183,-321.25 1183,-340.5"/>
<text text-anchor="middle" x="1139" y="-327" font-family="Helvetica,sans-Serif" font-size="10.00">cppgc/member.h</text>
</a>
</g>
</g>
<!-- Node22&#45;&gt;Node25 -->
<g id="edge74" class="edge">
<title>Node22&#45;&gt;Node25</title>
<path fill="none" stroke="#63b8ff" d="M1007.7,-431.5C1032,-413.06 1088.2,-370.42 1118.59,-347.36"/>
<polygon fill="#63b8ff" stroke="#63b8ff" points="1120.29,-349.71 1126.14,-340.88 1116.05,-344.13 1120.29,-349.71"/>
</g>
<!-- Node27 -->
<g id="node27" class="node">
<title>Node27</title>
<g id="a_node27"><a xlink:href="garbage-collected_8h.html" target="_top" xlink:title=" ">
<polygon fill="white" stroke="#666666" points="260.62,-279.62 131.38,-279.62 131.38,-260.38 260.62,-260.38 260.62,-279.62"/>
<text text-anchor="middle" x="196" y="-266.12" font-family="Helvetica,sans-Serif" font-size="10.00">cppgc/garbage&#45;collected.h</text>
</a>
</g>
</g>
<!-- Node22&#45;&gt;Node27 -->
<g id="edge46" class="edge">
<title>Node22&#45;&gt;Node27</title>
<path fill="none" stroke="#63b8ff" d="M956.28,-439.45C878.4,-436.97 700.58,-427.94 555,-395.75 429.54,-368.01 287.22,-310.29 226.29,-284.25"/>
<polygon fill="#63b8ff" stroke="#63b8ff" points="228.12,-280.79 217.55,-280.06 225.35,-287.23 228.12,-280.79"/>
</g>
<!-- Node31 -->
<g id="node31" class="node">
<title>Node31</title>
<g id="a_node31"><a xlink:href="liveness-broker_8h.html" target="_top" xlink:title=" ">
<polygon fill="white" stroke="#666666" points="1012.38,-395.75 893.62,-395.75 893.62,-376.5 1012.38,-376.5 1012.38,-395.75"/>
<text text-anchor="middle" x="953" y="-382.25" font-family="Helvetica,sans-Serif" font-size="10.00">cppgc/liveness&#45;broker.h</text>
</a>
</g>
</g>
<!-- Node22&#45;&gt;Node31 -->
<g id="edge62" class="edge">
<title>Node22&#45;&gt;Node31</title>
<path fill="none" stroke="#63b8ff" d="M988.9,-431.58C982.96,-424.23 974.31,-413.51 966.98,-404.44"/>
<polygon fill="#63b8ff" stroke="#63b8ff" points="969.26,-402.69 960.25,-397.11 963.81,-407.09 969.26,-402.69"/>
</g>
<!-- Node23&#45;&gt;Node17 -->
<g id="edge37" class="edge">
<title>Node23&#45;&gt;Node17</title>
<path fill="none" stroke="#63b8ff" d="M793.31,-193.5C769.86,-171.71 709.81,-115.92 679.73,-87.97"/>
<polygon fill="#63b8ff" stroke="#63b8ff" points="682.47,-85.81 672.76,-81.57 677.7,-90.94 682.47,-85.81"/>
</g>
<!-- Node24&#45;&gt;Node25 -->
<g id="edge39" class="edge">
<title>Node24&#45;&gt;Node25</title>
<path fill="none" stroke="#63b8ff" d="M1161.54,-376.33C1158.01,-369.36 1152.94,-359.37 1148.51,-350.62"/>
<polygon fill="#63b8ff" stroke="#63b8ff" points="1151.2,-349.2 1143.56,-341.86 1144.96,-352.36 1151.2,-349.2"/>
</g>
<!-- Node25&#45;&gt;Node2 -->
<g id="edge42" class="edge">
<title>Node25&#45;&gt;Node2</title>
<path fill="none" stroke="#63b8ff" d="M1183.43,-326.71C1228.82,-322.15 1300.47,-311.18 1357,-285.25 1436.38,-248.84 1495.94,-203.79 1466,-121.75 1452.75,-85.45 1444.09,-73.43 1410,-55.25 1347.29,-21.81 1134.6,-13.39 1043.73,-11.3"/>
<polygon fill="#63b8ff" stroke="#63b8ff" points="1043.83,-7.78 1033.76,-11.07 1043.68,-14.78 1043.83,-7.78"/>
</g>
<!-- Node25&#45;&gt;Node10 -->
<g id="edge45" class="edge">
<title>Node25&#45;&gt;Node10</title>
<path fill="none" stroke="#63b8ff" d="M1123.57,-320.94C1097.01,-304.58 1043.34,-267.02 1021,-218.75 1002.87,-179.57 1038.54,-158.57 1016,-121.75 1005.42,-104.46 986.52,-92.52 969.03,-84.62"/>
<polygon fill="#63b8ff" stroke="#63b8ff" points="970.55,-81.05 959.97,-80.44 967.86,-87.51 970.55,-81.05"/>
</g>
<!-- Node25&#45;&gt;Node12 -->
<g id="edge44" class="edge">
<title>Node25&#45;&gt;Node12</title>
<path fill="none" stroke="#63b8ff" d="M1094.55,-329.4C903.51,-327.19 160.02,-316.58 122,-285.25 63.49,-237.03 68.28,-133.92 73.21,-90.94"/>
<polygon fill="#63b8ff" stroke="#63b8ff" points="76.78,-91.66 74.58,-81.29 69.83,-90.76 76.78,-91.66"/>
</g>
<!-- Node25&#45;&gt;Node13 -->
<g id="edge43" class="edge">
<title>Node25&#45;&gt;Node13</title>
<path fill="none" stroke="#63b8ff" d="M1162.73,-320.8C1184.42,-312.51 1217.19,-299.98 1244.43,-289.57"/>
<polygon fill="#63b8ff" stroke="#63b8ff" points="1245.47,-292.53 1253.56,-285.69 1242.97,-286 1245.47,-292.53"/>
</g>
<!-- Node25&#45;&gt;Node21 -->
<g id="edge40" class="edge">
<title>Node25&#45;&gt;Node21</title>
<path fill="none" stroke="#63b8ff" d="M1183.27,-329.3C1236.6,-327.05 1327.76,-318.17 1398,-285.25 1512.25,-231.7 1553.76,-203.15 1600,-85.75 1604.97,-73.14 1608.26,-66 1600,-55.25 1583.86,-34.23 1510.5,-20.97 1466.55,-14.77"/>
<polygon fill="#63b8ff" stroke="#63b8ff" points="1467.18,-11.19 1456.8,-13.31 1466.24,-18.13 1467.18,-11.19"/>
</g>
<!-- Node26 -->
<g id="node26" class="node">
<title>Node26</title>
<g id="a_node26"><a xlink:title=" ">
<polygon fill="#e0e0e0" stroke="#999999" points="1163.12,-279.62 1114.88,-279.62 1114.88,-260.38 1163.12,-260.38 1163.12,-279.62"/>
<text text-anchor="middle" x="1139" y="-266.12" font-family="Helvetica,sans-Serif" font-size="10.00">cstddef</text>
</a>
</g>
</g>
<!-- Node25&#45;&gt;Node26 -->
<g id="edge41" class="edge">
<title>Node25&#45;&gt;Node26</title>
<path fill="none" stroke="#63b8ff" d="M1139,-320.93C1139,-312.98 1139,-301.06 1139,-290.87"/>
<polygon fill="#63b8ff" stroke="#63b8ff" points="1142.5,-291.03 1139,-281.03 1135.5,-291.03 1142.5,-291.03"/>
</g>
<!-- Node27&#45;&gt;Node2 -->
<g id="edge47" class="edge">
<title>Node27&#45;&gt;Node2</title>
<path fill="none" stroke="#63b8ff" d="M194.59,-260.23C192.52,-245.09 189.71,-213.28 198,-188.25 227.96,-97.85 274.64,-82.14 366,-55.25 477.98,-22.29 837.15,-13.35 960.19,-11.22"/>
<polygon fill="#63b8ff" stroke="#63b8ff" points="960.07,-14.71 970.01,-11.04 959.95,-7.71 960.07,-14.71"/>
</g>
<!-- Node27&#45;&gt;Node11 -->
<g id="edge58" class="edge">
<title>Node27&#45;&gt;Node11</title>
<path fill="none" stroke="#63b8ff" d="M195.75,-260.05C195.76,-244.07 197.85,-210.25 214,-188.25 226.34,-171.44 246.12,-159.37 263.71,-151.28"/>
<polygon fill="#63b8ff" stroke="#63b8ff" points="264.93,-154.14 272.74,-146.98 262.17,-147.71 264.93,-154.14"/>
</g>
<!-- Node27&#45;&gt;Node12 -->
<g id="edge59" class="edge">
<title>Node27&#45;&gt;Node12</title>
<path fill="none" stroke="#63b8ff" d="M182.44,-260.04C169.56,-250.94 150.36,-235.79 138,-218.75 108.36,-177.9 89.54,-120.74 81.12,-91.09"/>
<polygon fill="#63b8ff" stroke="#63b8ff" points="84.25,-90.24 78.24,-81.51 77.49,-92.08 84.25,-90.24"/>
</g>
<!-- Node27&#45;&gt;Node16 -->
<g id="edge48" class="edge">
<title>Node27&#45;&gt;Node16</title>
<path fill="none" stroke="#63b8ff" d="M225.27,-259.95C273.95,-244.92 374.63,-213.92 460,-188.25 497.63,-176.93 540.01,-164.41 573.05,-154.69"/>
<polygon fill="#63b8ff" stroke="#63b8ff" points="573.82,-157.82 582.43,-151.64 571.84,-151.1 573.82,-157.82"/>
</g>
<!-- Node28 -->
<g id="node28" class="node">
<title>Node28</title>
<g id="a_node28"><a xlink:href="platform_8h.html" target="_top" xlink:title=" ">
<polygon fill="white" stroke="#666666" points="690,-213.12 602,-213.12 602,-193.88 690,-193.88 690,-213.12"/>
<text text-anchor="middle" x="646" y="-199.62" font-family="Helvetica,sans-Serif" font-size="10.00">cppgc/platform.h</text>
</a>
</g>
</g>
<!-- Node27&#45;&gt;Node28 -->
<g id="edge49" class="edge">
<title>Node27&#45;&gt;Node28</title>
<path fill="none" stroke="#63b8ff" d="M260.9,-260.24C332.84,-250.45 452.28,-233.98 555,-218.75 566.63,-217.03 579.08,-215.12 590.92,-213.27"/>
<polygon fill="#63b8ff" stroke="#63b8ff" points="591.25,-216.61 600.59,-211.6 590.17,-209.69 591.25,-216.61"/>
</g>
<!-- Node28&#45;&gt;Node10 -->
<g id="edge57" class="edge">
<title>Node28&#45;&gt;Node10</title>
<path fill="none" stroke="#63b8ff" d="M662.37,-193.52C690.79,-178.05 751.29,-145.75 804,-121.75 834.17,-108.01 869.26,-94.08 894.56,-84.38"/>
<polygon fill="#63b8ff" stroke="#63b8ff" points="895.66,-87.33 903.76,-80.5 893.17,-80.78 895.66,-87.33"/>
</g>
<!-- Node29 -->
<g id="node29" class="node">
<title>Node29</title>
<g id="a_node29"><a xlink:href="v8-platform_8h.html" target="_top" xlink:title=" ">
<polygon fill="white" stroke="#666666" points="566.12,-146.62 493.88,-146.62 493.88,-127.38 566.12,-127.38 566.12,-146.62"/>
<text text-anchor="middle" x="530" y="-133.12" font-family="Helvetica,sans-Serif" font-size="10.00">v8&#45;platform.h</text>
</a>
</g>
</g>
<!-- Node28&#45;&gt;Node29 -->
<g id="edge50" class="edge">
<title>Node28&#45;&gt;Node29</title>
<path fill="none" stroke="#63b8ff" d="M629.87,-193.53C610.67,-182.86 578.37,-164.9 555.72,-152.3"/>
<polygon fill="#63b8ff" stroke="#63b8ff" points="557.81,-148.9 547.37,-147.1 554.41,-155.02 557.81,-148.9"/>
</g>
<!-- Node29&#45;&gt;Node5 -->
<g id="edge54" class="edge">
<title>Node29&#45;&gt;Node5</title>
<path fill="none" stroke="#63b8ff" d="M520.68,-127.03C510.18,-116.92 492.9,-100.28 479.98,-87.85"/>
<polygon fill="#63b8ff" stroke="#63b8ff" points="482.87,-85.81 473.24,-81.39 478.01,-90.85 482.87,-85.81"/>
</g>
<!-- Node29&#45;&gt;Node9 -->
<g id="edge55" class="edge">
<title>Node29&#45;&gt;Node9</title>
<path fill="none" stroke="#63b8ff" d="M554.47,-127C561.05,-124.93 568.23,-122.97 575,-121.75 886.81,-65.46 974.15,-135.92 1287,-85.75 1294.04,-84.62 1301.49,-82.9 1308.48,-81.05"/>
<polygon fill="#63b8ff" stroke="#63b8ff" points="1309.3,-84.17 1317.97,-78.08 1307.4,-77.43 1309.3,-84.17"/>
</g>
<!-- Node29&#45;&gt;Node10 -->
<g id="edge56" class="edge">
<title>Node29&#45;&gt;Node10</title>
<path fill="none" stroke="#63b8ff" d="M555.97,-126.97C562.16,-125.05 568.77,-123.17 575,-121.75 686.86,-96.29 821.7,-81.4 888.05,-75.09"/>
<polygon fill="#63b8ff" stroke="#63b8ff" points="888.23,-78.49 897.86,-74.08 887.58,-71.52 888.23,-78.49"/>
</g>
<!-- Node29&#45;&gt;Node17 -->
<g id="edge51" class="edge">
<title>Node29&#45;&gt;Node17</title>
<path fill="none" stroke="#63b8ff" d="M548.63,-126.9C570.84,-116.04 608.18,-97.8 633.9,-85.23"/>
<polygon fill="#63b8ff" stroke="#63b8ff" points="635.01,-88.09 642.46,-80.56 631.94,-81.8 635.01,-88.09"/>
</g>
<!-- Node29&#45;&gt;Node18 -->
<g id="edge52" class="edge">
<title>Node29&#45;&gt;Node18</title>
<path fill="none" stroke="#63b8ff" d="M539.04,-127.03C549.22,-116.92 566,-100.28 578.53,-87.85"/>
<polygon fill="#63b8ff" stroke="#63b8ff" points="580.41,-90.92 585.04,-81.39 575.48,-85.95 580.41,-90.92"/>
</g>
<!-- Node30 -->
<g id="node30" class="node">
<title>Node30</title>
<g id="a_node30"><a xlink:title=" ">
<polygon fill="#e0e0e0" stroke="#999999" points="553.38,-80.12 506.62,-80.12 506.62,-60.88 553.38,-60.88 553.38,-80.12"/>
<text text-anchor="middle" x="530" y="-66.62" font-family="Helvetica,sans-Serif" font-size="10.00">stdlib.h</text>
</a>
</g>
</g>
<!-- Node29&#45;&gt;Node30 -->
<g id="edge53" class="edge">
<title>Node29&#45;&gt;Node30</title>
<path fill="none" stroke="#63b8ff" d="M530,-127.03C530,-117.79 530,-103.08 530,-91.13"/>
<polygon fill="#63b8ff" stroke="#63b8ff" points="533.5,-91.39 530,-81.39 526.5,-91.39 533.5,-91.39"/>
</g>
<!-- Node31&#45;&gt;Node10 -->
<g id="edge73" class="edge">
<title>Node31&#45;&gt;Node10</title>
<path fill="none" stroke="#63b8ff" d="M957.22,-376C972.68,-341.21 1023.24,-214.15 983,-121.75 976.79,-107.48 964.31,-95.44 952.91,-86.72"/>
<polygon fill="#63b8ff" stroke="#63b8ff" points="955.31,-83.42 945.14,-80.46 951.24,-89.12 955.31,-83.42"/>
</g>
<!-- Node31&#45;&gt;Node11 -->
<g id="edge72" class="edge">
<title>Node31&#45;&gt;Node11</title>
<path fill="none" stroke="#63b8ff" d="M893.39,-377.8C767.22,-361.77 477.15,-322.1 385,-285.25 360.22,-275.34 297.61,-242.27 285,-218.75 274.49,-199.14 282.68,-173.52 290.71,-156.45"/>
<polygon fill="#63b8ff" stroke="#63b8ff" points="294.08,-158.55 295.53,-148.05 287.85,-155.36 294.08,-158.55"/>
</g>
<!-- Node31&#45;&gt;Node25 -->
<g id="edge71" class="edge">
<title>Node31&#45;&gt;Node25</title>
<path fill="none" stroke="#63b8ff" d="M984.55,-376.09C1015.42,-367.26 1062.62,-353.74 1096.72,-343.98"/>
<polygon fill="#63b8ff" stroke="#63b8ff" points="1097.64,-347.07 1106.29,-340.95 1095.72,-340.34 1097.64,-347.07"/>
</g>
<!-- Node32 -->
<g id="node32" class="node">
<title>Node32</title>
<g id="a_node32"><a xlink:href="heap_8h.html" target="_top" xlink:title=" ">
<polygon fill="white" stroke="#666666" points="904.88,-279.62 831.12,-279.62 831.12,-260.38 904.88,-260.38 904.88,-279.62"/>
<text text-anchor="middle" x="868" y="-266.12" font-family="Helvetica,sans-Serif" font-size="10.00">cppgc/heap.h</text>
</a>
</g>
</g>
<!-- Node31&#45;&gt;Node32 -->
<g id="edge63" class="edge">
<title>Node31&#45;&gt;Node32</title>
<path fill="none" stroke="#63b8ff" d="M946.33,-376.17C932.3,-357.34 899.53,-313.33 881.13,-288.63"/>
<polygon fill="#63b8ff" stroke="#63b8ff" points="883.42,-286.84 874.64,-280.91 877.81,-291.02 883.42,-286.84"/>
</g>
<!-- Node32&#45;&gt;Node5 -->
<g id="edge64" class="edge">
<title>Node32&#45;&gt;Node5</title>
<path fill="none" stroke="#63b8ff" d="M830.69,-267.94C776.14,-265.15 672.46,-255.05 593,-218.75 573.3,-209.75 573.17,-200.04 555,-188.25 525.65,-169.2 507.02,-179.43 485,-152.25 470.88,-134.82 465.79,-109.05 463.97,-91.33"/>
<polygon fill="#63b8ff" stroke="#63b8ff" points="467.4,-91.27 463.17,-81.56 460.42,-91.79 467.4,-91.27"/>
</g>
<!-- Node32&#45;&gt;Node6 -->
<g id="edge65" class="edge">
<title>Node32&#45;&gt;Node6</title>
<path fill="none" stroke="#63b8ff" d="M830.94,-265.56C772.53,-259.55 655.84,-245.2 560,-218.75 558.26,-218.27 556.49,-217.74 554.72,-217.16"/>
<polygon fill="#63b8ff" stroke="#63b8ff" points="556.27,-213.64 545.68,-213.56 553.91,-220.23 556.27,-213.64"/>
</g>
<!-- Node32&#45;&gt;Node10 -->
<g id="edge70" class="edge">
<title>Node32&#45;&gt;Node10</title>
<path fill="none" stroke="#63b8ff" d="M868.23,-260.23C869.08,-229.47 872.08,-128.05 875,-121.75 881.55,-107.63 894.05,-95.6 905.37,-86.85"/>
<polygon fill="#63b8ff" stroke="#63b8ff" points="907.02,-89.25 913.07,-80.55 902.91,-83.58 907.02,-89.25"/>
</g>
<!-- Node32&#45;&gt;Node23 -->
<g id="edge68" class="edge">
<title>Node32&#45;&gt;Node23</title>
<path fill="none" stroke="#63b8ff" d="M858.96,-260.03C848.78,-249.92 832,-233.28 819.47,-220.85"/>
<polygon fill="#63b8ff" stroke="#63b8ff" points="822.52,-218.95 812.96,-214.39 817.59,-223.92 822.52,-218.95"/>
</g>
<!-- Node32&#45;&gt;Node28 -->
<g id="edge69" class="edge">
<title>Node32&#45;&gt;Node28</title>
<path fill="none" stroke="#63b8ff" d="M836.66,-259.9C797.66,-248.56 730.92,-229.17 687.64,-216.6"/>
<polygon fill="#63b8ff" stroke="#63b8ff" points="688.76,-212.99 678.18,-213.56 686.8,-219.71 688.76,-212.99"/>
</g>
<!-- Node33 -->
<g id="node33" class="node">
<title>Node33</title>
<g id="a_node33"><a xlink:href="common_8h.html" target="_top" xlink:title=" ">
<polygon fill="white" stroke="#666666" points="974.12,-146.62 883.88,-146.62 883.88,-127.38 974.12,-127.38 974.12,-146.62"/>
<text text-anchor="middle" x="929" y="-133.12" font-family="Helvetica,sans-Serif" font-size="10.00">cppgc/common.h</text>
</a>
</g>
</g>
<!-- Node32&#45;&gt;Node33 -->
<g id="edge66" class="edge">
<title>Node32&#45;&gt;Node33</title>
<path fill="none" stroke="#63b8ff" d="M875.05,-260.2C882.55,-250.5 894.35,-234.24 902,-218.75 911.9,-198.7 919.53,-174.15 924.11,-157.42"/>
<polygon fill="#63b8ff" stroke="#63b8ff" points="927.75,-158.35 926.9,-147.79 920.98,-156.58 927.75,-158.35"/>
</g>
<!-- Node33&#45;&gt;Node10 -->
<g id="edge67" class="edge">
<title>Node33&#45;&gt;Node10</title>
<path fill="none" stroke="#63b8ff" d="M929,-127.03C929,-117.79 929,-103.08 929,-91.13"/>
<polygon fill="#63b8ff" stroke="#63b8ff" points="932.5,-91.39 929,-81.39 925.5,-91.39 932.5,-91.39"/>
</g>
</g>
</svg>
