<?xml version="1.0" encoding="UTF-8" standalone="no"?>
<!DOCTYPE svg PUBLIC "-//W3C//DTD SVG 1.1//EN"
 "http://www.w3.org/Graphics/SVG/1.1/DTD/svg11.dtd">
<!-- Generated by graphviz version 8.0.5 (20230430.1635)
 -->
<!-- Title: include/cppgc/internal/prefinalizer&#45;handler.h Pages: 1 -->
<svg width="1258pt" height="470pt"
 viewBox="0.00 0.00 1258.24 470.25" xmlns="http://www.w3.org/2000/svg" xmlns:xlink="http://www.w3.org/1999/xlink">
<g id="graph0" class="graph" transform="scale(1 1) rotate(0) translate(4 466.25)">
<title>include/cppgc/internal/prefinalizer&#45;handler.h</title>
<!-- Node1 -->
<g id="node1" class="node">
<title>Node1</title>
<g id="a_node1"><a xlink:title=" ">
<polygon fill="#999999" stroke="#666666" points="706.24,-462.25 595.74,-462.25 595.74,-431.75 706.24,-431.75 706.24,-462.25"/>
<text text-anchor="start" x="603.74" y="-448.75" font-family="Helvetica,sans-Serif" font-size="10.00">include/cppgc/internal</text>
<text text-anchor="middle" x="650.99" y="-437.5" font-family="Helvetica,sans-Serif" font-size="10.00">/prefinalizer&#45;handler.h</text>
</a>
</g>
</g>
<!-- Node2 -->
<g id="node2" class="node">
<title>Node2</title>
<g id="a_node2"><a xlink:href="heap_8h.html" target="_top" xlink:title=" ">
<polygon fill="white" stroke="#666666" points="963.86,-279.62 890.11,-279.62 890.11,-260.38 963.86,-260.38 963.86,-279.62"/>
<text text-anchor="middle" x="926.99" y="-266.12" font-family="Helvetica,sans-Serif" font-size="10.00">cppgc/heap.h</text>
</a>
</g>
</g>
<!-- Node1&#45;&gt;Node2 -->
<g id="edge1" class="edge">
<title>Node1&#45;&gt;Node2</title>
<path fill="none" stroke="#63b8ff" d="M674.04,-431.38C725.89,-398.5 851.23,-319.03 903.49,-285.9"/>
<polygon fill="#63b8ff" stroke="#63b8ff" points="905.08,-288.4 911.65,-280.09 901.33,-282.49 905.08,-288.4"/>
</g>
<!-- Node14 -->
<g id="node14" class="node">
<title>Node14</title>
<g id="a_node14"><a xlink:href="liveness-broker_8h.html" target="_top" xlink:title=" ">
<polygon fill="white" stroke="#666666" points="667.36,-395.75 548.61,-395.75 548.61,-376.5 667.36,-376.5 667.36,-395.75"/>
<text text-anchor="middle" x="607.99" y="-382.25" font-family="Helvetica,sans-Serif" font-size="10.00">cppgc/liveness&#45;broker.h</text>
</a>
</g>
</g>
<!-- Node1&#45;&gt;Node14 -->
<g id="edge18" class="edge">
<title>Node1&#45;&gt;Node14</title>
<path fill="none" stroke="#63b8ff" d="M640.36,-431.45C634.5,-423.43 627.19,-413.42 621,-404.94"/>
<polygon fill="#63b8ff" stroke="#63b8ff" points="623.34,-403.21 614.62,-397.2 617.69,-407.34 623.34,-403.21"/>
</g>
<!-- Node3 -->
<g id="node3" class="node">
<title>Node3</title>
<g id="a_node3"><a xlink:title=" ">
<polygon fill="#e0e0e0" stroke="#999999" points="1250.24,-80.12 1199.74,-80.12 1199.74,-60.88 1250.24,-60.88 1250.24,-80.12"/>
<text text-anchor="middle" x="1224.99" y="-66.62" font-family="Helvetica,sans-Serif" font-size="10.00">memory</text>
</a>
</g>
</g>
<!-- Node2&#45;&gt;Node3 -->
<g id="edge2" class="edge">
<title>Node2&#45;&gt;Node3</title>
<path fill="none" stroke="#63b8ff" d="M964.29,-267.77C1033.39,-264.65 1177.27,-253.99 1209.99,-218.75 1242.39,-183.85 1235.74,-122.31 1229.6,-90.99"/>
<polygon fill="#63b8ff" stroke="#63b8ff" points="1232.88,-90.62 1227.35,-81.59 1226.04,-92.1 1232.88,-90.62"/>
</g>
<!-- Node4 -->
<g id="node4" class="node">
<title>Node4</title>
<g id="a_node4"><a xlink:title=" ">
<polygon fill="#e0e0e0" stroke="#999999" points="1200.49,-213.12 1157.49,-213.12 1157.49,-193.88 1200.49,-193.88 1200.49,-213.12"/>
<text text-anchor="middle" x="1178.99" y="-199.62" font-family="Helvetica,sans-Serif" font-size="10.00">vector</text>
</a>
</g>
</g>
<!-- Node2&#45;&gt;Node4 -->
<g id="edge3" class="edge">
<title>Node2&#45;&gt;Node4</title>
<path fill="none" stroke="#63b8ff" d="M964,-263.01C1008.43,-255.27 1084.83,-240.19 1147.99,-218.75 1148.92,-218.43 1149.86,-218.1 1150.81,-217.75"/>
<polygon fill="#63b8ff" stroke="#63b8ff" points="1151.98,-220.64 1159.88,-213.58 1149.31,-214.17 1151.98,-220.64"/>
</g>
<!-- Node5 -->
<g id="node5" class="node">
<title>Node5</title>
<g id="a_node5"><a xlink:href="common_8h.html" target="_top" xlink:title=" ">
<polygon fill="white" stroke="#666666" points="726.11,-146.62 635.86,-146.62 635.86,-127.38 726.11,-127.38 726.11,-146.62"/>
<text text-anchor="middle" x="680.99" y="-133.12" font-family="Helvetica,sans-Serif" font-size="10.00">cppgc/common.h</text>
</a>
</g>
</g>
<!-- Node2&#45;&gt;Node5 -->
<g id="edge4" class="edge">
<title>Node2&#45;&gt;Node5</title>
<path fill="none" stroke="#63b8ff" d="M910.08,-260C868.04,-237.61 758.5,-179.28 707.65,-152.2"/>
<polygon fill="#63b8ff" stroke="#63b8ff" points="709.49,-148.68 699.01,-147.07 706.2,-154.86 709.49,-148.68"/>
</g>
<!-- Node6 -->
<g id="node6" class="node">
<title>Node6</title>
<g id="a_node6"><a xlink:href="v8config_8h.html" target="_top" xlink:title=" ">
<polygon fill="white" stroke="#666666" points="673.74,-80.12 614.24,-80.12 614.24,-60.88 673.74,-60.88 673.74,-80.12"/>
<text text-anchor="middle" x="643.99" y="-66.62" font-family="Helvetica,sans-Serif" font-size="10.00">v8config.h</text>
</a>
</g>
</g>
<!-- Node2&#45;&gt;Node6 -->
<g id="edge17" class="edge">
<title>Node2&#45;&gt;Node6</title>
<path fill="none" stroke="#63b8ff" d="M923.94,-260.13C913.21,-229.03 877.58,-126.6 871.99,-121.75 844.39,-97.78 742.49,-82.64 684.7,-75.79"/>
<polygon fill="#63b8ff" stroke="#63b8ff" points="685.44,-72.24 675.1,-74.57 684.64,-79.19 685.44,-72.24"/>
</g>
<!-- Node7 -->
<g id="node7" class="node">
<title>Node7</title>
<g id="a_node7"><a xlink:href="custom-space_8h.html" target="_top" xlink:title=" ">
<polygon fill="white" stroke="#666666" points="1139.11,-213.12 1024.86,-213.12 1024.86,-193.88 1139.11,-193.88 1139.11,-213.12"/>
<text text-anchor="middle" x="1081.99" y="-199.62" font-family="Helvetica,sans-Serif" font-size="10.00">cppgc/custom&#45;space.h</text>
</a>
</g>
</g>
<!-- Node2&#45;&gt;Node7 -->
<g id="edge6" class="edge">
<title>Node2&#45;&gt;Node7</title>
<path fill="none" stroke="#63b8ff" d="M948.87,-259.9C975.29,-248.9 1019.95,-230.31 1050.18,-217.74"/>
<polygon fill="#63b8ff" stroke="#63b8ff" points="1051.33,-220.63 1059.22,-213.56 1048.64,-214.17 1051.33,-220.63"/>
</g>
<!-- Node9 -->
<g id="node9" class="node">
<title>Node9</title>
<g id="a_node9"><a xlink:href="platform_8h.html" target="_top" xlink:title=" ">
<polygon fill="white" stroke="#666666" points="1006.99,-213.12 918.99,-213.12 918.99,-193.88 1006.99,-193.88 1006.99,-213.12"/>
<text text-anchor="middle" x="962.99" y="-199.62" font-family="Helvetica,sans-Serif" font-size="10.00">cppgc/platform.h</text>
</a>
</g>
</g>
<!-- Node2&#45;&gt;Node9 -->
<g id="edge8" class="edge">
<title>Node2&#45;&gt;Node9</title>
<path fill="none" stroke="#63b8ff" d="M931.99,-260.03C937.37,-250.4 946.05,-234.85 952.86,-222.65"/>
<polygon fill="#63b8ff" stroke="#63b8ff" points="956.21,-224.83 958.02,-214.39 950.09,-221.42 956.21,-224.83"/>
</g>
<!-- Node5&#45;&gt;Node6 -->
<g id="edge5" class="edge">
<title>Node5&#45;&gt;Node6</title>
<path fill="none" stroke="#63b8ff" d="M675.84,-127.03C670.32,-117.4 661.4,-101.85 654.4,-89.65"/>
<polygon fill="#63b8ff" stroke="#63b8ff" points="657.1,-88.32 649.09,-81.39 651.03,-91.81 657.1,-88.32"/>
</g>
<!-- Node8 -->
<g id="node8" class="node">
<title>Node8</title>
<g id="a_node8"><a xlink:title=" ">
<polygon fill="#e0e0e0" stroke="#999999" points="1110.24,-80.12 1059.74,-80.12 1059.74,-60.88 1110.24,-60.88 1110.24,-80.12"/>
<text text-anchor="middle" x="1084.99" y="-66.62" font-family="Helvetica,sans-Serif" font-size="10.00">stddef.h</text>
</a>
</g>
</g>
<!-- Node7&#45;&gt;Node8 -->
<g id="edge7" class="edge">
<title>Node7&#45;&gt;Node8</title>
<path fill="none" stroke="#63b8ff" d="M1102.26,-193.41C1117.94,-185.16 1138.53,-171.35 1147.99,-152.25 1154.01,-140.1 1153.87,-133.96 1147.99,-121.75 1140.66,-106.53 1126.24,-94.5 1113.04,-86.02"/>
<polygon fill="#63b8ff" stroke="#63b8ff" points="1115.14,-82.61 1104.76,-80.49 1111.56,-88.62 1115.14,-82.61"/>
</g>
<!-- Node9&#45;&gt;Node6 -->
<g id="edge16" class="edge">
<title>Node9&#45;&gt;Node6</title>
<path fill="none" stroke="#63b8ff" d="M959.28,-193.5C951.77,-176.48 933.05,-139.7 904.99,-121.75 869.05,-98.76 748.87,-82.77 684.89,-75.66"/>
<polygon fill="#63b8ff" stroke="#63b8ff" points="685.32,-72.07 675,-74.47 684.56,-79.03 685.32,-72.07"/>
</g>
<!-- Node10 -->
<g id="node10" class="node">
<title>Node10</title>
<g id="a_node10"><a xlink:href="v8-platform_8h.html" target="_top" xlink:title=" ">
<polygon fill="white" stroke="#666666" points="1139.11,-146.62 1066.86,-146.62 1066.86,-127.38 1139.11,-127.38 1139.11,-146.62"/>
<text text-anchor="middle" x="1102.99" y="-133.12" font-family="Helvetica,sans-Serif" font-size="10.00">v8&#45;platform.h</text>
</a>
</g>
</g>
<!-- Node9&#45;&gt;Node10 -->
<g id="edge9" class="edge">
<title>Node9&#45;&gt;Node10</title>
<path fill="none" stroke="#63b8ff" d="M982.75,-193.4C1006.41,-182.5 1046.25,-164.14 1073.54,-151.57"/>
<polygon fill="#63b8ff" stroke="#63b8ff" points="1074.71,-154.42 1082.33,-147.06 1071.78,-148.06 1074.71,-154.42"/>
</g>
<!-- Node10&#45;&gt;Node3 -->
<g id="edge13" class="edge">
<title>Node10&#45;&gt;Node3</title>
<path fill="none" stroke="#63b8ff" d="M1120.21,-126.9C1140.55,-116.14 1174.63,-98.12 1198.38,-85.57"/>
<polygon fill="#63b8ff" stroke="#63b8ff" points="1199.65,-88.33 1206.85,-80.56 1196.38,-82.14 1199.65,-88.33"/>
</g>
<!-- Node10&#45;&gt;Node6 -->
<g id="edge15" class="edge">
<title>Node10&#45;&gt;Node6</title>
<path fill="none" stroke="#63b8ff" d="M1077.03,-126.88C1070.85,-124.96 1064.23,-123.11 1057.99,-121.75 923.22,-92.5 759.81,-78.96 684.99,-73.94"/>
<polygon fill="#63b8ff" stroke="#63b8ff" points="685.39,-70.4 675.18,-73.24 684.93,-77.38 685.39,-70.4"/>
</g>
<!-- Node10&#45;&gt;Node8 -->
<g id="edge10" class="edge">
<title>Node10&#45;&gt;Node8</title>
<path fill="none" stroke="#63b8ff" d="M1100.49,-127.03C1097.88,-117.69 1093.72,-102.78 1090.36,-90.76"/>
<polygon fill="#63b8ff" stroke="#63b8ff" points="1093.53,-90.08 1087.47,-81.39 1086.79,-91.97 1093.53,-90.08"/>
</g>
<!-- Node11 -->
<g id="node11" class="node">
<title>Node11</title>
<g id="a_node11"><a xlink:title=" ">
<polygon fill="#e0e0e0" stroke="#999999" points="1029.74,-80.12 982.24,-80.12 982.24,-60.88 1029.74,-60.88 1029.74,-80.12"/>
<text text-anchor="middle" x="1005.99" y="-66.62" font-family="Helvetica,sans-Serif" font-size="10.00">stdint.h</text>
</a>
</g>
</g>
<!-- Node10&#45;&gt;Node11 -->
<g id="edge11" class="edge">
<title>Node10&#45;&gt;Node11</title>
<path fill="none" stroke="#63b8ff" d="M1089.5,-127.03C1073.81,-116.6 1047.64,-99.2 1028.78,-86.65"/>
<polygon fill="#63b8ff" stroke="#63b8ff" points="1030.94,-83.22 1020.67,-80.6 1027.06,-89.05 1030.94,-83.22"/>
</g>
<!-- Node12 -->
<g id="node12" class="node">
<title>Node12</title>
<g id="a_node12"><a xlink:title=" ">
<polygon fill="#e0e0e0" stroke="#999999" points="1175.36,-80.12 1128.61,-80.12 1128.61,-60.88 1175.36,-60.88 1175.36,-80.12"/>
<text text-anchor="middle" x="1151.99" y="-66.62" font-family="Helvetica,sans-Serif" font-size="10.00">stdlib.h</text>
</a>
</g>
</g>
<!-- Node10&#45;&gt;Node12 -->
<g id="edge12" class="edge">
<title>Node10&#45;&gt;Node12</title>
<path fill="none" stroke="#63b8ff" d="M1109.8,-127.03C1117.26,-117.21 1129.41,-101.23 1138.75,-88.92"/>
<polygon fill="#63b8ff" stroke="#63b8ff" points="1141.97,-91.47 1145.23,-81.39 1136.4,-87.24 1141.97,-91.47"/>
</g>
<!-- Node13 -->
<g id="node13" class="node">
<title>Node13</title>
<g id="a_node13"><a xlink:title=" ">
<polygon fill="#e0e0e0" stroke="#999999" points="893.99,-80.12 853.99,-80.12 853.99,-60.88 893.99,-60.88 893.99,-80.12"/>
<text text-anchor="middle" x="873.99" y="-66.62" font-family="Helvetica,sans-Serif" font-size="10.00">string</text>
</a>
</g>
</g>
<!-- Node10&#45;&gt;Node13 -->
<g id="edge14" class="edge">
<title>Node10&#45;&gt;Node13</title>
<path fill="none" stroke="#63b8ff" d="M1074.96,-126.93C1069.35,-125.17 1063.49,-123.37 1057.99,-121.75 1004.45,-105.97 941.64,-89.18 904.98,-79.56"/>
<polygon fill="#63b8ff" stroke="#63b8ff" points="906.05,-75.96 895.48,-76.81 904.27,-82.73 906.05,-75.96"/>
</g>
<!-- Node14&#45;&gt;Node2 -->
<g id="edge19" class="edge">
<title>Node14&#45;&gt;Node2</title>
<path fill="none" stroke="#63b8ff" d="M631.7,-376.01C664.63,-363.41 726.15,-340.08 778.99,-321.25 816.21,-307.98 858.97,-293.55 888.93,-283.57"/>
<polygon fill="#63b8ff" stroke="#63b8ff" points="889.97,-286.58 898.35,-280.11 887.76,-279.94 889.97,-286.58"/>
</g>
<!-- Node14&#45;&gt;Node6 -->
<g id="edge49" class="edge">
<title>Node14&#45;&gt;Node6</title>
<path fill="none" stroke="#63b8ff" d="M607.99,-376.25C607.99,-357.05 607.99,-310.23 607.99,-271 607.99,-271 607.99,-271 607.99,-202.5 607.99,-161.39 624.68,-115.53 635.33,-90.45"/>
<polygon fill="#63b8ff" stroke="#63b8ff" points="638.89,-92.04 639.72,-81.48 632.49,-89.22 638.89,-92.04"/>
</g>
<!-- Node15 -->
<g id="node15" class="node">
<title>Node15</title>
<g id="a_node15"><a xlink:href="member_8h.html" target="_top" xlink:title=" ">
<polygon fill="white" stroke="#666666" points="416.99,-340.5 328.99,-340.5 328.99,-321.25 416.99,-321.25 416.99,-340.5"/>
<text text-anchor="middle" x="372.99" y="-327" font-family="Helvetica,sans-Serif" font-size="10.00">cppgc/member.h</text>
</a>
</g>
</g>
<!-- Node14&#45;&gt;Node15 -->
<g id="edge20" class="edge">
<title>Node14&#45;&gt;Node15</title>
<path fill="none" stroke="#63b8ff" d="M567.86,-376.03C527.98,-366.99 466.69,-353.11 423.52,-343.32"/>
<polygon fill="#63b8ff" stroke="#63b8ff" points="424.48,-339.73 413.95,-340.93 422.93,-346.55 424.48,-339.73"/>
</g>
<!-- Node25 -->
<g id="node25" class="node">
<title>Node25</title>
<g id="a_node25"><a xlink:href="trace-trait_8h.html" target="_top" xlink:title=" ">
<polygon fill="white" stroke="#666666" points="295.99,-146.62 201.99,-146.62 201.99,-127.38 295.99,-127.38 295.99,-146.62"/>
<text text-anchor="middle" x="248.99" y="-133.12" font-family="Helvetica,sans-Serif" font-size="10.00">cppgc/trace&#45;trait.h</text>
</a>
</g>
</g>
<!-- Node14&#45;&gt;Node25 -->
<g id="edge48" class="edge">
<title>Node14&#45;&gt;Node25</title>
<path fill="none" stroke="#63b8ff" d="M548.28,-384.49C411.25,-381.64 80.76,-366.31 12.99,-285.25 -44.7,-216.25 106.44,-169.72 193.1,-149.47"/>
<polygon fill="#63b8ff" stroke="#63b8ff" points="193.62,-152.72 202.59,-147.08 192.06,-145.89 193.62,-152.72"/>
</g>
<!-- Node15&#45;&gt;Node6 -->
<g id="edge47" class="edge">
<title>Node15&#45;&gt;Node6</title>
<path fill="none" stroke="#63b8ff" d="M401.79,-320.86C422.25,-313.49 449.61,-301.61 469.99,-285.25 541.1,-228.15 534.13,-190.56 593.99,-121.75 604.23,-109.97 616.6,-97.53 626.47,-87.97"/>
<polygon fill="#63b8ff" stroke="#63b8ff" points="628.58,-90.84 633.39,-81.4 623.74,-85.78 628.58,-90.84"/>
</g>
<!-- Node16 -->
<g id="node16" class="node">
<title>Node16</title>
<g id="a_node16"><a xlink:title=" ">
<polygon fill="#e0e0e0" stroke="#999999" points="436.61,-19.25 391.36,-19.25 391.36,0 436.61,0 436.61,-19.25"/>
<text text-anchor="middle" x="413.99" y="-5.75" font-family="Helvetica,sans-Serif" font-size="10.00">atomic</text>
</a>
</g>
</g>
<!-- Node15&#45;&gt;Node16 -->
<g id="edge21" class="edge">
<title>Node15&#45;&gt;Node16</title>
<path fill="none" stroke="#63b8ff" d="M393.03,-320.83C407.41,-313.32 426.11,-301.27 436.99,-285.25 457.7,-254.75 455.99,-241.37 455.99,-204.5 455.99,-204.5 455.99,-204.5 455.99,-136 455.99,-99.13 449.75,-89.84 436.99,-55.25 433.71,-46.37 429.07,-36.99 424.82,-29.13"/>
<polygon fill="#63b8ff" stroke="#63b8ff" points="427.38,-27.55 419.42,-20.56 421.28,-30.99 427.38,-27.55"/>
</g>
<!-- Node17 -->
<g id="node17" class="node">
<title>Node17</title>
<g id="a_node17"><a xlink:title=" ">
<polygon fill="#e0e0e0" stroke="#999999" points="70.11,-279.62 21.86,-279.62 21.86,-260.38 70.11,-260.38 70.11,-279.62"/>
<text text-anchor="middle" x="45.99" y="-266.12" font-family="Helvetica,sans-Serif" font-size="10.00">cstddef</text>
</a>
</g>
</g>
<!-- Node15&#45;&gt;Node17 -->
<g id="edge22" class="edge">
<title>Node15&#45;&gt;Node17</title>
<path fill="none" stroke="#63b8ff" d="M328.84,-325.91C271.65,-320.12 169.2,-307.55 83.99,-285.25 82.08,-284.75 80.13,-284.19 78.18,-283.59"/>
<polygon fill="#63b8ff" stroke="#63b8ff" points="79.44,-279.98 68.84,-280.07 77.18,-286.6 79.44,-279.98"/>
</g>
<!-- Node18 -->
<g id="node18" class="node">
<title>Node18</title>
<g id="a_node18"><a xlink:title=" ">
<polygon fill="#e0e0e0" stroke="#999999" points="206.49,-19.25 145.49,-19.25 145.49,0 206.49,0 206.49,-19.25"/>
<text text-anchor="middle" x="175.99" y="-5.75" font-family="Helvetica,sans-Serif" font-size="10.00">type_traits</text>
</a>
</g>
</g>
<!-- Node15&#45;&gt;Node18 -->
<g id="edge23" class="edge">
<title>Node15&#45;&gt;Node18</title>
<path fill="none" stroke="#63b8ff" d="M328.5,-329.1C250.67,-325.13 97.99,-304.59 97.99,-204.5 97.99,-204.5 97.99,-204.5 97.99,-136 97.99,-91.02 134.63,-48.81 157.68,-26.69"/>
<polygon fill="#63b8ff" stroke="#63b8ff" points="159.51,-29.85 164.47,-20.49 154.75,-24.71 159.51,-29.85"/>
</g>
<!-- Node19 -->
<g id="node19" class="node">
<title>Node19</title>
<g id="a_node19"><a xlink:href="pointer-policies_8h.html" target="_top" xlink:title=" ">
<polygon fill="white" stroke="#666666" points="427.49,-285.25 318.49,-285.25 318.49,-254.75 427.49,-254.75 427.49,-285.25"/>
<text text-anchor="start" x="326.49" y="-271.75" font-family="Helvetica,sans-Serif" font-size="10.00">cppgc/internal/pointer</text>
<text text-anchor="middle" x="372.99" y="-260.5" font-family="Helvetica,sans-Serif" font-size="10.00">&#45;policies.h</text>
</a>
</g>
</g>
<!-- Node15&#45;&gt;Node19 -->
<g id="edge24" class="edge">
<title>Node15&#45;&gt;Node19</title>
<path fill="none" stroke="#63b8ff" d="M372.99,-320.93C372.99,-314.4 372.99,-305.2 372.99,-296.47"/>
<polygon fill="#63b8ff" stroke="#63b8ff" points="376.49,-296.53 372.99,-286.53 369.49,-296.53 376.49,-296.53"/>
</g>
<!-- Node26 -->
<g id="node26" class="node">
<title>Node26</title>
<g id="a_node26"><a xlink:href="type-traits_8h.html" target="_top" xlink:title=" ">
<polygon fill="white" stroke="#666666" points="261.74,-80.12 166.24,-80.12 166.24,-60.88 261.74,-60.88 261.74,-80.12"/>
<text text-anchor="middle" x="213.99" y="-66.62" font-family="Helvetica,sans-Serif" font-size="10.00">cppgc/type&#45;traits.h</text>
</a>
</g>
</g>
<!-- Node15&#45;&gt;Node26 -->
<g id="edge46" class="edge">
<title>Node15&#45;&gt;Node26</title>
<path fill="none" stroke="#63b8ff" d="M357.08,-320.91C319.2,-298.47 224.45,-235.64 192.99,-152.25 185.1,-131.35 194.34,-106.33 202.93,-89.73"/>
<polygon fill="#63b8ff" stroke="#63b8ff" points="206.45,-91.61 208.3,-81.17 200.35,-88.18 206.45,-91.61"/>
</g>
<!-- Node19&#45;&gt;Node6 -->
<g id="edge45" class="edge">
<title>Node19&#45;&gt;Node6</title>
<path fill="none" stroke="#63b8ff" d="M390.85,-254.5C435.2,-218.52 547.35,-127.63 555.99,-121.75 575.55,-108.42 598.87,-95.21 616.58,-85.69"/>
<polygon fill="#63b8ff" stroke="#63b8ff" points="618.1,-88.31 625.3,-80.53 614.82,-82.13 618.1,-88.31"/>
</g>
<!-- Node19&#45;&gt;Node18 -->
<g id="edge26" class="edge">
<title>Node19&#45;&gt;Node18</title>
<path fill="none" stroke="#63b8ff" d="M324.63,-254.27C301.69,-245.94 274.64,-234.1 252.99,-218.75 220.51,-195.73 215.96,-184.76 192.99,-152.25 166.45,-114.69 147.8,-100.31 156.99,-55.25 158.8,-46.39 162.43,-37.11 166.04,-29.32"/>
<polygon fill="#63b8ff" stroke="#63b8ff" points="169.61,-31.02 170.94,-20.51 163.34,-27.89 169.61,-31.02"/>
</g>
<!-- Node20 -->
<g id="node20" class="node">
<title>Node20</title>
<g id="a_node20"><a xlink:title=" ">
<polygon fill="#e0e0e0" stroke="#999999" points="307.61,-213.12 262.36,-213.12 262.36,-193.88 307.61,-193.88 307.61,-213.12"/>
<text text-anchor="middle" x="284.99" y="-199.62" font-family="Helvetica,sans-Serif" font-size="10.00">cstdint</text>
</a>
</g>
</g>
<!-- Node19&#45;&gt;Node20 -->
<g id="edge25" class="edge">
<title>Node19&#45;&gt;Node20</title>
<path fill="none" stroke="#63b8ff" d="M353.02,-254.36C338.96,-244.06 320.18,-230.29 305.91,-219.83"/>
<polygon fill="#63b8ff" stroke="#63b8ff" points="308.42,-216.6 298.28,-213.51 304.28,-222.24 308.42,-216.6"/>
</g>
<!-- Node21 -->
<g id="node21" class="node">
<title>Node21</title>
<g id="a_node21"><a xlink:href="write-barrier_8h.html" target="_top" xlink:title=" ">
<polygon fill="white" stroke="#666666" points="426.36,-218.75 325.61,-218.75 325.61,-188.25 426.36,-188.25 426.36,-218.75"/>
<text text-anchor="start" x="333.61" y="-205.25" font-family="Helvetica,sans-Serif" font-size="10.00">cppgc/internal/write</text>
<text text-anchor="middle" x="375.99" y="-194" font-family="Helvetica,sans-Serif" font-size="10.00">&#45;barrier.h</text>
</a>
</g>
</g>
<!-- Node19&#45;&gt;Node21 -->
<g id="edge27" class="edge">
<title>Node19&#45;&gt;Node21</title>
<path fill="none" stroke="#63b8ff" d="M373.67,-254.36C374.01,-247.11 374.42,-238.13 374.81,-229.81"/>
<polygon fill="#63b8ff" stroke="#63b8ff" points="378.34,-230.23 375.31,-220.08 371.35,-229.9 378.34,-230.23"/>
</g>
<!-- Node27 -->
<g id="node27" class="node">
<title>Node27</title>
<g id="a_node27"><a xlink:href="source-location_8h.html" target="_top" xlink:title=" ">
<polygon fill="white" stroke="#666666" points="863.36,-146.62 744.61,-146.62 744.61,-127.38 863.36,-127.38 863.36,-146.62"/>
<text text-anchor="middle" x="803.99" y="-133.12" font-family="Helvetica,sans-Serif" font-size="10.00">cppgc/source&#45;location.h</text>
</a>
</g>
</g>
<!-- Node19&#45;&gt;Node27 -->
<g id="edge42" class="edge">
<title>Node19&#45;&gt;Node27</title>
<path fill="none" stroke="#63b8ff" d="M424.55,-254.33C458.99,-244.45 505.27,-231.04 545.99,-218.75 624.06,-195.2 715,-166.42 765.38,-150.36"/>
<polygon fill="#63b8ff" stroke="#63b8ff" points="766.33,-153.41 774.8,-147.03 764.2,-146.74 766.33,-153.41"/>
</g>
<!-- Node21&#45;&gt;Node6 -->
<g id="edge41" class="edge">
<title>Node21&#45;&gt;Node6</title>
<path fill="none" stroke="#63b8ff" d="M399.57,-187.75C427.31,-170.72 475.05,-142.4 517.99,-121.75 547.7,-107.46 582.6,-93.77 608.12,-84.3"/>
<polygon fill="#63b8ff" stroke="#63b8ff" points="609.27,-87.24 617.45,-80.51 606.85,-80.67 609.27,-87.24"/>
</g>
<!-- Node22 -->
<g id="node22" class="node">
<title>Node22</title>
<g id="a_node22"><a xlink:href="api-constants_8h.html" target="_top" xlink:title=" ">
<polygon fill="white" stroke="#666666" points="1049.24,-152.25 956.74,-152.25 956.74,-121.75 1049.24,-121.75 1049.24,-152.25"/>
<text text-anchor="start" x="964.74" y="-138.75" font-family="Helvetica,sans-Serif" font-size="10.00">cppgc/internal/api</text>
<text text-anchor="middle" x="1002.99" y="-127.5" font-family="Helvetica,sans-Serif" font-size="10.00">&#45;constants.h</text>
</a>
</g>
</g>
<!-- Node21&#45;&gt;Node22 -->
<g id="edge28" class="edge">
<title>Node21&#45;&gt;Node22</title>
<path fill="none" stroke="#63b8ff" d="M426.7,-197.49C516.48,-188.58 709.3,-169.34 871.99,-152.25 896.04,-149.72 922.56,-146.85 945.41,-144.36"/>
<polygon fill="#63b8ff" stroke="#63b8ff" points="945.75,-147.73 955.31,-143.16 944.99,-140.77 945.75,-147.73"/>
</g>
<!-- Node23 -->
<g id="node23" class="node">
<title>Node23</title>
<g id="a_node23"><a xlink:href="process-heap_8h.html" target="_top" xlink:title=" ">
<polygon fill="white" stroke="#666666" points="428.11,-152.25 313.86,-152.25 313.86,-121.75 428.11,-121.75 428.11,-152.25"/>
<text text-anchor="start" x="321.86" y="-138.75" font-family="Helvetica,sans-Serif" font-size="10.00">cppgc/internal/process</text>
<text text-anchor="middle" x="370.99" y="-127.5" font-family="Helvetica,sans-Serif" font-size="10.00">&#45;heap.h</text>
</a>
</g>
</g>
<!-- Node21&#45;&gt;Node23 -->
<g id="edge32" class="edge">
<title>Node21&#45;&gt;Node23</title>
<path fill="none" stroke="#63b8ff" d="M374.85,-187.86C374.29,-180.61 373.6,-171.63 372.95,-163.31"/>
<polygon fill="#63b8ff" stroke="#63b8ff" points="376.38,-163.28 372.12,-153.58 369.4,-163.82 376.38,-163.28"/>
</g>
<!-- Node21&#45;&gt;Node25 -->
<g id="edge36" class="edge">
<title>Node21&#45;&gt;Node25</title>
<path fill="none" stroke="#63b8ff" d="M347.17,-187.86C325.91,-177.07 297.17,-162.47 276.29,-151.86"/>
<polygon fill="#63b8ff" stroke="#63b8ff" points="278.23,-148.42 267.73,-147.01 275.06,-154.66 278.23,-148.42"/>
</g>
<!-- Node22&#45;&gt;Node6 -->
<g id="edge31" class="edge">
<title>Node22&#45;&gt;Node6</title>
<path fill="none" stroke="#63b8ff" d="M956.54,-124.65C951.97,-123.63 947.4,-122.64 942.99,-121.75 851.09,-103.14 742.32,-86.1 684.65,-77.45"/>
<polygon fill="#63b8ff" stroke="#63b8ff" points="685.22,-73.85 674.82,-75.84 684.19,-80.78 685.22,-73.85"/>
</g>
<!-- Node22&#45;&gt;Node8 -->
<g id="edge29" class="edge">
<title>Node22&#45;&gt;Node8</title>
<path fill="none" stroke="#63b8ff" d="M1021.6,-121.36C1034.65,-111.1 1052.07,-97.39 1065.35,-86.95"/>
<polygon fill="#63b8ff" stroke="#63b8ff" points="1067.08,-89.26 1072.77,-80.32 1062.75,-83.75 1067.08,-89.26"/>
</g>
<!-- Node22&#45;&gt;Node11 -->
<g id="edge30" class="edge">
<title>Node22&#45;&gt;Node11</title>
<path fill="none" stroke="#63b8ff" d="M1003.67,-121.36C1004.09,-112.38 1004.63,-100.76 1005.08,-91.01"/>
<polygon fill="#63b8ff" stroke="#63b8ff" points="1008.61,-91.47 1005.58,-81.32 1001.62,-91.15 1008.61,-91.47"/>
</g>
<!-- Node23&#45;&gt;Node6 -->
<g id="edge35" class="edge">
<title>Node23&#45;&gt;Node6</title>
<path fill="none" stroke="#63b8ff" d="M428.55,-122.4C480.98,-110.01 557.07,-92.03 603.39,-81.09"/>
<polygon fill="#63b8ff" stroke="#63b8ff" points="604,-84.31 612.93,-78.6 602.39,-77.49 604,-84.31"/>
</g>
<!-- Node24 -->
<g id="node24" class="node">
<title>Node24</title>
<g id="a_node24"><a xlink:href="atomic-entry-flag_8h.html" target="_top" xlink:title=" ">
<polygon fill="white" stroke="#666666" points="427.49,-85.75 318.49,-85.75 318.49,-55.25 427.49,-55.25 427.49,-85.75"/>
<text text-anchor="start" x="326.49" y="-72.25" font-family="Helvetica,sans-Serif" font-size="10.00">cppgc/internal/atomic</text>
<text text-anchor="middle" x="372.99" y="-61" font-family="Helvetica,sans-Serif" font-size="10.00">&#45;entry&#45;flag.h</text>
</a>
</g>
</g>
<!-- Node23&#45;&gt;Node24 -->
<g id="edge33" class="edge">
<title>Node23&#45;&gt;Node24</title>
<path fill="none" stroke="#63b8ff" d="M371.44,-121.36C371.67,-114.11 371.95,-105.13 372.2,-96.81"/>
<polygon fill="#63b8ff" stroke="#63b8ff" points="375.72,-97.18 372.54,-87.08 368.73,-96.96 375.72,-97.18"/>
</g>
<!-- Node24&#45;&gt;Node16 -->
<g id="edge34" class="edge">
<title>Node24&#45;&gt;Node16</title>
<path fill="none" stroke="#63b8ff" d="M383.12,-54.95C388.65,-47.02 395.53,-37.13 401.39,-28.71"/>
<polygon fill="#63b8ff" stroke="#63b8ff" points="404.82,-30.91 407.67,-20.7 399.08,-26.91 404.82,-30.91"/>
</g>
<!-- Node25&#45;&gt;Node6 -->
<g id="edge40" class="edge">
<title>Node25&#45;&gt;Node6</title>
<path fill="none" stroke="#63b8ff" d="M282.32,-126.92C289.75,-125.07 297.61,-123.23 304.99,-121.75 411.74,-100.31 539.11,-83.85 603.07,-76.2"/>
<polygon fill="#63b8ff" stroke="#63b8ff" points="603.36,-79.57 612.88,-74.92 602.54,-72.62 603.36,-79.57"/>
</g>
<!-- Node25&#45;&gt;Node18 -->
<g id="edge37" class="edge">
<title>Node25&#45;&gt;Node18</title>
<path fill="none" stroke="#63b8ff" d="M255.57,-127.31C266.5,-111.75 285.79,-78.55 270.99,-55.25 259.06,-36.47 236.91,-25.46 217,-19.07"/>
<polygon fill="#63b8ff" stroke="#63b8ff" points="218.13,-15.47 207.55,-16.06 216.19,-22.19 218.13,-15.47"/>
</g>
<!-- Node25&#45;&gt;Node26 -->
<g id="edge38" class="edge">
<title>Node25&#45;&gt;Node26</title>
<path fill="none" stroke="#63b8ff" d="M244.12,-127.03C238.95,-117.5 230.63,-102.16 224.04,-90.02"/>
<polygon fill="#63b8ff" stroke="#63b8ff" points="226.66,-88.51 218.81,-81.39 220.51,-91.85 226.66,-88.51"/>
</g>
<!-- Node26&#45;&gt;Node18 -->
<g id="edge39" class="edge">
<title>Node26&#45;&gt;Node18</title>
<path fill="none" stroke="#63b8ff" d="M208.22,-60.56C202.8,-52.17 194.55,-39.38 187.75,-28.84"/>
<polygon fill="#63b8ff" stroke="#63b8ff" points="190.18,-27.15 181.81,-20.65 184.3,-30.95 190.18,-27.15"/>
</g>
<!-- Node27&#45;&gt;Node6 -->
<g id="edge44" class="edge">
<title>Node27&#45;&gt;Node6</title>
<path fill="none" stroke="#63b8ff" d="M781.4,-126.9C754.01,-115.85 707.62,-97.15 676.41,-84.57"/>
<polygon fill="#63b8ff" stroke="#63b8ff" points="678.04,-81.05 667.46,-80.56 675.42,-87.54 678.04,-81.05"/>
</g>
<!-- Node27&#45;&gt;Node13 -->
<g id="edge43" class="edge">
<title>Node27&#45;&gt;Node13</title>
<path fill="none" stroke="#63b8ff" d="M813.72,-127.03C824.69,-116.92 842.75,-100.28 856.25,-87.85"/>
<polygon fill="#63b8ff" stroke="#63b8ff" points="858.36,-90.74 863.34,-81.39 853.61,-85.59 858.36,-90.74"/>
</g>
</g>
</svg>
