<?xml version="1.0" encoding="UTF-8" standalone="no"?>
<!DOCTYPE svg PUBLIC "-//W3C//DTD SVG 1.1//EN"
 "http://www.w3.org/Graphics/SVG/1.1/DTD/svg11.dtd">
<!-- Generated by graphviz version 8.0.5 (20230430.1635)
 -->
<!-- Title: v8::JSVisitor::Trace Pages: 1 -->
<svg width="589pt" height="76pt"
 viewBox="0.00 0.00 588.75 75.88" xmlns="http://www.w3.org/2000/svg" xmlns:xlink="http://www.w3.org/1999/xlink">
<g id="graph0" class="graph" transform="scale(1 1) rotate(0) translate(4 71.88)">
<title>v8::JSVisitor::Trace</title>
<!-- Node1 -->
<g id="node1" class="node">
<title>Node1</title>
<g id="a_node1"><a xlink:title=" ">
<polygon fill="#999999" stroke="#666666" points="100,-40.25 0,-40.25 0,-21 100,-21 100,-40.25"/>
<text text-anchor="middle" x="50" y="-26.75" font-family="Helvetica,sans-Serif" font-size="10.00">v8::JSVisitor::Trace</text>
</a>
</g>
</g>
<!-- Node2 -->
<g id="node2" class="node">
<title>Node2</title>
<g id="a_node2"><a xlink:href="classv8_1_1TracedReferenceBase.html#af999bfa19acca2508138d165daf85a54" target="_top" xlink:title=" ">
<polygon fill="white" stroke="#666666" points="263.75,-67.88 136,-67.88 136,-37.38 263.75,-37.38 263.75,-67.88"/>
<text text-anchor="start" x="144" y="-54.38" font-family="Helvetica,sans-Serif" font-size="10.00">v8::TracedReferenceBase</text>
<text text-anchor="middle" x="199.88" y="-43.12" font-family="Helvetica,sans-Serif" font-size="10.00">::IsEmptyThreadSafe</text>
</a>
</g>
</g>
<!-- Node1&#45;&gt;Node2 -->
<g id="edge1" class="edge">
<title>Node1&#45;&gt;Node2</title>
<path fill="none" stroke="#63b8ff" d="M100.24,-37.95C108.22,-39.14 116.62,-40.39 125.03,-41.64"/>
<polygon fill="#63b8ff" stroke="#63b8ff" points="124.24,-45.21 134.64,-43.22 125.27,-38.28 124.24,-45.21"/>
</g>
<!-- Node5 -->
<g id="node5" class="node">
<title>Node5</title>
<g id="a_node5"><a xlink:href="classv8_1_1JSVisitor.html#a403cc250b8317f0cca51445a67399749" target="_top" xlink:title=" ">
<polygon fill="white" stroke="#666666" points="247.25,-19.25 152.5,-19.25 152.5,0 247.25,0 247.25,-19.25"/>
<text text-anchor="middle" x="199.88" y="-5.75" font-family="Helvetica,sans-Serif" font-size="10.00">v8::JSVisitor::Visit</text>
</a>
</g>
</g>
<!-- Node1&#45;&gt;Node5 -->
<g id="edge4" class="edge">
<title>Node1&#45;&gt;Node5</title>
<path fill="none" stroke="#63b8ff" d="M100.24,-23.63C113.5,-21.75 127.96,-19.7 141.61,-17.76"/>
<polygon fill="#63b8ff" stroke="#63b8ff" points="141.94,-21.1 151.35,-16.23 140.96,-14.17 141.94,-21.1"/>
</g>
<!-- Node3 -->
<g id="node3" class="node">
<title>Node3</title>
<g id="a_node3"><a xlink:href="classv8_1_1TracedReferenceBase.html#a95770f73c3307fc6e2977cd22ac68866" target="_top" xlink:title=" ">
<polygon fill="white" stroke="#666666" points="427.5,-67.88 299.75,-67.88 299.75,-37.38 427.5,-37.38 427.5,-67.88"/>
<text text-anchor="start" x="307.75" y="-54.38" font-family="Helvetica,sans-Serif" font-size="10.00">v8::TracedReferenceBase</text>
<text text-anchor="middle" x="363.62" y="-43.12" font-family="Helvetica,sans-Serif" font-size="10.00">::GetSlotThreadSafe</text>
</a>
</g>
</g>
<!-- Node2&#45;&gt;Node3 -->
<g id="edge2" class="edge">
<title>Node2&#45;&gt;Node3</title>
<path fill="none" stroke="#63b8ff" d="M263.87,-52.62C271.95,-52.62 280.28,-52.62 288.52,-52.62"/>
<polygon fill="#63b8ff" stroke="#63b8ff" points="288.26,-56.13 298.26,-52.62 288.26,-49.13 288.26,-56.13"/>
</g>
<!-- Node4 -->
<g id="node4" class="node">
<title>Node4</title>
<g id="a_node4"><a xlink:href="classv8_1_1api__internal_1_1IndirectHandleBase.html#a6d57129edaf800a385036b628efbdbde" target="_top" xlink:title=" ">
<polygon fill="white" stroke="#666666" points="580.75,-67.88 463.5,-67.88 463.5,-37.38 580.75,-37.38 580.75,-67.88"/>
<text text-anchor="start" x="471.5" y="-54.38" font-family="Helvetica,sans-Serif" font-size="10.00">v8::api_internal::Indirect</text>
<text text-anchor="middle" x="522.12" y="-43.12" font-family="Helvetica,sans-Serif" font-size="10.00">HandleBase::slot</text>
</a>
</g>
</g>
<!-- Node3&#45;&gt;Node4 -->
<g id="edge3" class="edge">
<title>Node3&#45;&gt;Node4</title>
<path fill="none" stroke="#63b8ff" d="M427.83,-52.62C435.88,-52.62 444.15,-52.62 452.28,-52.62"/>
<polygon fill="#63b8ff" stroke="#63b8ff" points="452.25,-56.13 462.25,-52.62 452.25,-49.13 452.25,-56.13"/>
</g>
</g>
</svg>
