<?xml version="1.0" encoding="UTF-8" standalone="no"?>
<!DOCTYPE svg PUBLIC "-//W3C//DTD SVG 1.1//EN"
 "http://www.w3.org/Graphics/SVG/1.1/DTD/svg11.dtd">
<!-- Generated by graphviz version 8.0.5 (20230430.1635)
 -->
<!-- Title: v8::Persistent&lt; T, M &gt; Pages: 1 -->
<svg width="128pt" height="149pt"
 viewBox="0.00 0.00 128.25 149.00" xmlns="http://www.w3.org/2000/svg" xmlns:xlink="http://www.w3.org/1999/xlink">
<g id="graph0" class="graph" transform="scale(1 1) rotate(0) translate(4 145)">
<title>v8::Persistent&lt; T, M &gt;</title>
<!-- Node1 -->
<g id="node1" class="node">
<title>Node1</title>
<g id="a_node1"><a xlink:title=" ">
<polygon fill="#999999" stroke="#666666" points="115.75,-19.25 4.5,-19.25 4.5,0 115.75,0 115.75,-19.25"/>
<text text-anchor="middle" x="60.12" y="-5.75" font-family="Helvetica,sans-Serif" font-size="10.00">v8::Persistent&lt; T, M &gt;</text>
</a>
</g>
</g>
<!-- Node2 -->
<g id="node2" class="node">
<title>Node2</title>
<g id="a_node2"><a xlink:href="classv8_1_1PersistentBase.html" target="_top" xlink:title=" ">
<polygon fill="white" stroke="#666666" points="120.25,-74.5 0,-74.5 0,-55.25 120.25,-55.25 120.25,-74.5"/>
<text text-anchor="middle" x="60.12" y="-61" font-family="Helvetica,sans-Serif" font-size="10.00">v8::PersistentBase&lt; T &gt;</text>
</a>
</g>
</g>
<!-- Node2&#45;&gt;Node1 -->
<g id="edge1" class="edge">
<title>Node2&#45;&gt;Node1</title>
<path fill="none" stroke="#63b8ff" d="M60.12,-44.21C60.12,-35.77 60.12,-26.33 60.12,-19.61"/>
<polygon fill="#63b8ff" stroke="#63b8ff" points="56.63,-44.08 60.12,-54.08 63.63,-44.08 56.63,-44.08"/>
</g>
<!-- Node3 -->
<g id="node3" class="node">
<title>Node3</title>
<g id="a_node3"><a xlink:href="classv8_1_1api__internal_1_1IndirectHandleBase.html" target="_top" xlink:title=" ">
<polygon fill="white" stroke="#666666" points="118.75,-141 1.5,-141 1.5,-110.5 118.75,-110.5 118.75,-141"/>
<text text-anchor="start" x="9.5" y="-127.5" font-family="Helvetica,sans-Serif" font-size="10.00">v8::api_internal::Indirect</text>
<text text-anchor="middle" x="60.12" y="-116.25" font-family="Helvetica,sans-Serif" font-size="10.00">HandleBase</text>
</a>
</g>
</g>
<!-- Node3&#45;&gt;Node2 -->
<g id="edge2" class="edge">
<title>Node3&#45;&gt;Node2</title>
<path fill="none" stroke="#63b8ff" d="M60.12,-99.32C60.12,-90.64 60.12,-81.48 60.12,-74.95"/>
<polygon fill="#63b8ff" stroke="#63b8ff" points="56.63,-99.2 60.12,-109.2 63.63,-99.2 56.63,-99.2"/>
</g>
</g>
</svg>
