<?xml version="1.0" encoding="UTF-8" standalone="no"?>
<!DOCTYPE svg PUBLIC "-//W3C//DTD SVG 1.1//EN"
 "http://www.w3.org/Graphics/SVG/1.1/DTD/svg11.dtd">
<!-- Generated by graphviz version 8.0.5 (20230430.1635)
 -->
<!-- Title: include/v8&#45;callbacks.h Pages: 1 -->
<svg width="514pt" height="425pt"
 viewBox="0.00 0.00 513.50 425.25" xmlns="http://www.w3.org/2000/svg" xmlns:xlink="http://www.w3.org/1999/xlink">
<g id="graph0" class="graph" transform="scale(1 1) rotate(0) translate(4 421.25)">
<title>include/v8&#45;callbacks.h</title>
<!-- Node1 -->
<g id="node1" class="node">
<title>Node1</title>
<g id="a_node1"><a xlink:title=" ">
<polygon fill="#999999" stroke="#666666" points="288.5,-417.25 176.5,-417.25 176.5,-398 288.5,-398 288.5,-417.25"/>
<text text-anchor="middle" x="232.5" y="-403.75" font-family="Helvetica,sans-Serif" font-size="10.00">include/v8&#45;callbacks.h</text>
</a>
</g>
</g>
<!-- Node2 -->
<g id="node2" class="node">
<title>Node2</title>
<g id="a_node2"><a xlink:href="v8-initialization_8h.html" target="_top" xlink:title=" ">
<polygon fill="white" stroke="#666666" points="121,-196.25 0,-196.25 0,-177 121,-177 121,-196.25"/>
<text text-anchor="middle" x="60.5" y="-182.75" font-family="Helvetica,sans-Serif" font-size="10.00">include/v8&#45;initialization.h</text>
</a>
</g>
</g>
<!-- Node1&#45;&gt;Node2 -->
<g id="edge1" class="edge">
<title>Node1&#45;&gt;Node2</title>
<path fill="none" stroke="#63b8ff" d="M218.84,-389.24C184.06,-344.95 93.06,-229.08 67.35,-196.35"/>
<polygon fill="#63b8ff" stroke="#63b8ff" points="216.62,-391.07 225.54,-396.77 222.12,-386.74 216.62,-391.07"/>
</g>
<!-- Node4 -->
<g id="node4" class="node">
<title>Node4</title>
<g id="a_node4"><a xlink:href="v8-isolate_8h.html" target="_top" xlink:title=" ">
<polygon fill="white" stroke="#666666" points="282.12,-251.5 182.88,-251.5 182.88,-232.25 282.12,-232.25 282.12,-251.5"/>
<text text-anchor="middle" x="232.5" y="-238" font-family="Helvetica,sans-Serif" font-size="10.00">include/v8&#45;isolate.h</text>
</a>
</g>
</g>
<!-- Node1&#45;&gt;Node4 -->
<g id="edge3" class="edge">
<title>Node1&#45;&gt;Node4</title>
<path fill="none" stroke="#63b8ff" d="M232.5,-386.94C232.5,-351.25 232.5,-277.21 232.5,-251.72"/>
<polygon fill="#63b8ff" stroke="#63b8ff" points="229,-386.82 232.5,-396.82 236,-386.82 229,-386.82"/>
</g>
<!-- Node10 -->
<g id="node10" class="node">
<title>Node10</title>
<g id="a_node10"><a xlink:href="v8-script_8h.html" target="_top" xlink:title=" ">
<polygon fill="white" stroke="#666666" points="416.88,-362 322.12,-362 322.12,-342.75 416.88,-342.75 416.88,-362"/>
<text text-anchor="middle" x="369.5" y="-348.5" font-family="Helvetica,sans-Serif" font-size="10.00">include/v8&#45;script.h</text>
</a>
</g>
</g>
<!-- Node1&#45;&gt;Node10 -->
<g id="edge14" class="edge">
<title>Node1&#45;&gt;Node10</title>
<path fill="none" stroke="#63b8ff" d="M265.82,-393.67C290.7,-384 324.06,-371.04 346.15,-362.45"/>
<polygon fill="#63b8ff" stroke="#63b8ff" points="264.79,-390.71 256.74,-397.59 267.33,-397.23 264.79,-390.71"/>
</g>
<!-- Node3 -->
<g id="node3" class="node">
<title>Node3</title>
<g id="a_node3"><a xlink:href="v8_8h.html" target="_top" xlink:title=" ">
<polygon fill="white" stroke="#666666" points="388.38,-19.25 320.62,-19.25 320.62,0 388.38,0 388.38,-19.25"/>
<text text-anchor="middle" x="354.5" y="-5.75" font-family="Helvetica,sans-Serif" font-size="10.00">include/v8.h</text>
</a>
</g>
</g>
<!-- Node2&#45;&gt;Node3 -->
<g id="edge2" class="edge">
<title>Node2&#45;&gt;Node3</title>
<path fill="none" stroke="#63b8ff" d="M66.03,-166.18C75.33,-137.18 96.97,-83.04 135.5,-55.25 164.69,-34.2 266.56,-20.22 320.46,-14.12"/>
<polygon fill="#63b8ff" stroke="#63b8ff" points="62.42,-165.01 62.87,-175.6 69.12,-167.04 62.42,-165.01"/>
</g>
<!-- Node4&#45;&gt;Node2 -->
<g id="edge4" class="edge">
<title>Node4&#45;&gt;Node2</title>
<path fill="none" stroke="#63b8ff" d="M193.15,-228.69C161.69,-218.95 118.29,-205.52 89.82,-196.7"/>
<polygon fill="#63b8ff" stroke="#63b8ff" points="191.73,-232.23 202.32,-231.84 193.8,-225.54 191.73,-232.23"/>
</g>
<!-- Node4&#45;&gt;Node3 -->
<g id="edge13" class="edge">
<title>Node4&#45;&gt;Node3</title>
<path fill="none" stroke="#63b8ff" d="M200.41,-226.71C188.1,-219.5 175.37,-209.42 168.5,-196.25 150.87,-162.46 148.94,-143.21 168.5,-110.5 201.42,-55.45 276.25,-28.99 320.31,-17.76"/>
<polygon fill="#63b8ff" stroke="#63b8ff" points="198.61,-230.25 209.07,-231.89 201.91,-224.08 198.61,-230.25"/>
</g>
<!-- Node5 -->
<g id="node5" class="node">
<title>Node5</title>
<g id="a_node5"><a xlink:href="v8-inspector_8h.html" target="_top" xlink:title=" ">
<polygon fill="white" stroke="#666666" points="287.75,-196.25 177.25,-196.25 177.25,-177 287.75,-177 287.75,-196.25"/>
<text text-anchor="middle" x="232.5" y="-182.75" font-family="Helvetica,sans-Serif" font-size="10.00">include/v8&#45;inspector.h</text>
</a>
</g>
</g>
<!-- Node4&#45;&gt;Node5 -->
<g id="edge5" class="edge">
<title>Node4&#45;&gt;Node5</title>
<path fill="none" stroke="#63b8ff" d="M232.5,-221.21C232.5,-212.77 232.5,-203.33 232.5,-196.61"/>
<polygon fill="#63b8ff" stroke="#63b8ff" points="229,-221.08 232.5,-231.08 236,-221.08 229,-221.08"/>
</g>
<!-- Node7 -->
<g id="node7" class="node">
<title>Node7</title>
<g id="a_node7"><a xlink:href="v8-snapshot_8h.html" target="_top" xlink:title=" ">
<polygon fill="white" stroke="#666666" points="416.75,-196.25 306.25,-196.25 306.25,-177 416.75,-177 416.75,-196.25"/>
<text text-anchor="middle" x="361.5" y="-182.75" font-family="Helvetica,sans-Serif" font-size="10.00">include/v8&#45;snapshot.h</text>
</a>
</g>
</g>
<!-- Node4&#45;&gt;Node7 -->
<g id="edge7" class="edge">
<title>Node4&#45;&gt;Node7</title>
<path fill="none" stroke="#63b8ff" d="M264.51,-227.66C287.86,-218.02 318.9,-205.21 339.51,-196.7"/>
<polygon fill="#63b8ff" stroke="#63b8ff" points="263.29,-224.79 255.38,-231.84 265.96,-231.26 263.29,-224.79"/>
</g>
<!-- Node6 -->
<g id="node6" class="node">
<title>Node6</title>
<g id="a_node6"><a xlink:href="v8-inspector-protocol_8h.html" target="_top" xlink:title=" ">
<polygon fill="white" stroke="#666666" points="281,-141 178,-141 178,-110.5 281,-110.5 281,-141"/>
<text text-anchor="start" x="186" y="-127.5" font-family="Helvetica,sans-Serif" font-size="10.00">include/v8&#45;inspector</text>
<text text-anchor="middle" x="229.5" y="-116.25" font-family="Helvetica,sans-Serif" font-size="10.00">&#45;protocol.h</text>
</a>
</g>
</g>
<!-- Node5&#45;&gt;Node6 -->
<g id="edge6" class="edge">
<title>Node5&#45;&gt;Node6</title>
<path fill="none" stroke="#63b8ff" d="M231.48,-165.7C231.08,-157.7 230.62,-148.65 230.24,-141.28"/>
<polygon fill="#63b8ff" stroke="#63b8ff" points="228.04,-165.87 232.04,-175.68 235.03,-165.52 228.04,-165.87"/>
</g>
<!-- Node7&#45;&gt;Node3 -->
<g id="edge12" class="edge">
<title>Node7&#45;&gt;Node3</title>
<path fill="none" stroke="#63b8ff" d="M385.29,-170.6C395.03,-163.04 405.23,-152.93 410.5,-141 425.9,-106.14 427.04,-89.58 410.5,-55.25 402.78,-39.23 386.21,-27.19 373.09,-19.67"/>
<polygon fill="#63b8ff" stroke="#63b8ff" points="383.71,-168.14 377.63,-176.82 387.8,-173.83 383.71,-168.14"/>
</g>
<!-- Node8 -->
<g id="node8" class="node">
<title>Node8</title>
<g id="a_node8"><a xlink:href="v8-context_8h.html" target="_top" xlink:title=" ">
<polygon fill="white" stroke="#666666" points="401.62,-135.38 299.38,-135.38 299.38,-116.12 401.62,-116.12 401.62,-135.38"/>
<text text-anchor="middle" x="350.5" y="-121.88" font-family="Helvetica,sans-Serif" font-size="10.00">include/v8&#45;context.h</text>
</a>
</g>
</g>
<!-- Node7&#45;&gt;Node8 -->
<g id="edge8" class="edge">
<title>Node7&#45;&gt;Node8</title>
<path fill="none" stroke="#63b8ff" d="M357.87,-166.2C355.95,-155.94 353.69,-143.84 352.19,-135.78"/>
<polygon fill="#63b8ff" stroke="#63b8ff" points="354.55,-166.5 359.83,-175.68 361.43,-165.21 354.55,-166.5"/>
</g>
<!-- Node8&#45;&gt;Node3 -->
<g id="edge11" class="edge">
<title>Node8&#45;&gt;Node3</title>
<path fill="none" stroke="#63b8ff" d="M326.54,-109.68C308.56,-96.31 288.61,-75.78 298.5,-55.25 306.22,-39.23 322.79,-27.19 335.91,-19.67"/>
<polygon fill="#63b8ff" stroke="#63b8ff" points="323.86,-112.78 334.07,-115.63 327.87,-107.04 323.86,-112.78"/>
</g>
<!-- Node9 -->
<g id="node9" class="node">
<title>Node9</title>
<g id="a_node9"><a xlink:href="v8-proxy_8h.html" target="_top" xlink:title=" ">
<polygon fill="white" stroke="#666666" points="401.12,-74.5 307.88,-74.5 307.88,-55.25 401.12,-55.25 401.12,-74.5"/>
<text text-anchor="middle" x="354.5" y="-61" font-family="Helvetica,sans-Serif" font-size="10.00">include/v8&#45;proxy.h</text>
</a>
</g>
</g>
<!-- Node8&#45;&gt;Node9 -->
<g id="edge9" class="edge">
<title>Node8&#45;&gt;Node9</title>
<path fill="none" stroke="#63b8ff" d="M351.84,-104.99C352.53,-94.81 353.34,-82.88 353.89,-74.9"/>
<polygon fill="#63b8ff" stroke="#63b8ff" points="348.29,-104.59 351.11,-114.81 355.28,-105.07 348.29,-104.59"/>
</g>
<!-- Node9&#45;&gt;Node3 -->
<g id="edge10" class="edge">
<title>Node9&#45;&gt;Node3</title>
<path fill="none" stroke="#63b8ff" d="M354.5,-44.21C354.5,-35.77 354.5,-26.33 354.5,-19.61"/>
<polygon fill="#63b8ff" stroke="#63b8ff" points="351,-44.08 354.5,-54.08 358,-44.08 351,-44.08"/>
</g>
<!-- Node10&#45;&gt;Node3 -->
<g id="edge18" class="edge">
<title>Node10&#45;&gt;Node3</title>
<path fill="none" stroke="#63b8ff" d="M409.76,-338.53C449.86,-322.91 505.5,-292.33 505.5,-242.88 505.5,-242.88 505.5,-242.88 505.5,-124.75 505.5,-66.26 432.5,-33.93 388.01,-19.66"/>
<polygon fill="#63b8ff" stroke="#63b8ff" points="408.84,-335.51 400.68,-342.27 411.28,-342.07 408.84,-335.51"/>
</g>
<!-- Node11 -->
<g id="node11" class="node">
<title>Node11</title>
<g id="a_node11"><a xlink:href="v8-debug_8h.html" target="_top" xlink:title=" ">
<polygon fill="white" stroke="#666666" points="418,-306.75 321,-306.75 321,-287.5 418,-287.5 418,-306.75"/>
<text text-anchor="middle" x="369.5" y="-293.25" font-family="Helvetica,sans-Serif" font-size="10.00">include/v8&#45;debug.h</text>
</a>
</g>
</g>
<!-- Node10&#45;&gt;Node11 -->
<g id="edge15" class="edge">
<title>Node10&#45;&gt;Node11</title>
<path fill="none" stroke="#63b8ff" d="M369.5,-331.71C369.5,-323.27 369.5,-313.83 369.5,-307.11"/>
<polygon fill="#63b8ff" stroke="#63b8ff" points="366,-331.58 369.5,-341.58 373,-331.58 366,-331.58"/>
</g>
<!-- Node11&#45;&gt;Node3 -->
<g id="edge17" class="edge">
<title>Node11&#45;&gt;Node3</title>
<path fill="none" stroke="#63b8ff" d="M396.27,-281.6C425.29,-263.67 467.5,-230.27 467.5,-187.62 467.5,-187.62 467.5,-187.62 467.5,-124.75 467.5,-72.61 407.2,-35.75 374.7,-19.66"/>
<polygon fill="#63b8ff" stroke="#63b8ff" points="394.84,-278.97 388.02,-287.07 398.41,-284.99 394.84,-278.97"/>
</g>
<!-- Node11&#45;&gt;Node4 -->
<g id="edge16" class="edge">
<title>Node11&#45;&gt;Node4</title>
<path fill="none" stroke="#63b8ff" d="M336.18,-283.17C311.3,-273.5 277.94,-260.54 255.85,-251.95"/>
<polygon fill="#63b8ff" stroke="#63b8ff" points="334.67,-286.73 345.26,-287.09 337.21,-280.21 334.67,-286.73"/>
</g>
</g>
</svg>
