<?xml version="1.0" encoding="UTF-8" standalone="no"?>
<!DOCTYPE svg PUBLIC "-//W3C//DTD SVG 1.1//EN"
 "http://www.w3.org/Graphics/SVG/1.1/DTD/svg11.dtd">
<!-- Generated by graphviz version 8.0.5 (20230430.1635)
 -->
<!-- Title: include/v8&#45;data.h Pages: 1 -->
<svg width="1655pt" height="735pt"
 viewBox="0.00 0.00 1655.25 735.25" xmlns="http://www.w3.org/2000/svg" xmlns:xlink="http://www.w3.org/1999/xlink">
<g id="graph0" class="graph" transform="scale(1 1) rotate(0) translate(4 731.25)">
<title>include/v8&#45;data.h</title>
<!-- Node1 -->
<g id="node1" class="node">
<title>Node1</title>
<g id="a_node1"><a xlink:title=" ">
<polygon fill="#999999" stroke="#666666" points="607.75,-727.25 518.25,-727.25 518.25,-708 607.75,-708 607.75,-727.25"/>
<text text-anchor="middle" x="563" y="-713.75" font-family="Helvetica,sans-Serif" font-size="10.00">include/v8&#45;data.h</text>
</a>
</g>
</g>
<!-- Node2 -->
<g id="node2" class="node">
<title>Node2</title>
<g id="a_node2"><a xlink:href="v8-callbacks_8h.html" target="_top" xlink:title=" ">
<polygon fill="white" stroke="#666666" points="803,-439.75 691,-439.75 691,-420.5 803,-420.5 803,-439.75"/>
<text text-anchor="middle" x="747" y="-426.25" font-family="Helvetica,sans-Serif" font-size="10.00">include/v8&#45;callbacks.h</text>
</a>
</g>
</g>
<!-- Node1&#45;&gt;Node2 -->
<g id="edge1" class="edge">
<title>Node1&#45;&gt;Node2</title>
<path fill="none" stroke="#63b8ff" d="M618.79,-711.36C649.43,-705.89 686.31,-694.73 712,-672 735.21,-651.46 740,-639.12 740,-608.12 740,-608.12 740,-608.12 740,-545.25 740,-505.95 744.19,-459.17 746.08,-439.99"/>
<polygon fill="#63b8ff" stroke="#63b8ff" points="618.55,-708.02 609.24,-713.07 619.67,-714.93 618.55,-708.02"/>
</g>
<!-- Node4 -->
<g id="node4" class="node">
<title>Node4</title>
<g id="a_node4"><a xlink:href="v8_8h.html" target="_top" xlink:title=" ">
<polygon fill="white" stroke="#666666" points="877.88,-19.25 810.12,-19.25 810.12,0 877.88,0 877.88,-19.25"/>
<text text-anchor="middle" x="844" y="-5.75" font-family="Helvetica,sans-Serif" font-size="10.00">include/v8.h</text>
</a>
</g>
</g>
<!-- Node1&#45;&gt;Node4 -->
<g id="edge76" class="edge">
<title>Node1&#45;&gt;Node4</title>
<path fill="none" stroke="#63b8ff" d="M507.23,-717.56C365.01,-718.44 0,-710.72 0,-608.12 0,-608.12 0,-608.12 0,-124.75 0,-89.55 8.23,-74.04 38,-55.25 104,-13.6 665.37,-10.65 810.08,-10.58"/>
<polygon fill="#63b8ff" stroke="#63b8ff" points="506.91,-721.05 516.88,-717.47 506.85,-714.05 506.91,-721.05"/>
</g>
<!-- Node5 -->
<g id="node5" class="node">
<title>Node5</title>
<g id="a_node5"><a xlink:href="v8-isolate_8h.html" target="_top" xlink:title=" ">
<polygon fill="white" stroke="#666666" points="707.62,-268.38 608.38,-268.38 608.38,-249.12 707.62,-249.12 707.62,-268.38"/>
<text text-anchor="middle" x="658" y="-254.88" font-family="Helvetica,sans-Serif" font-size="10.00">include/v8&#45;isolate.h</text>
</a>
</g>
</g>
<!-- Node1&#45;&gt;Node5 -->
<g id="edge21" class="edge">
<title>Node1&#45;&gt;Node5</title>
<path fill="none" stroke="#63b8ff" d="M602.88,-703.72C642.69,-688.04 698,-657.4 698,-608.12 698,-608.12 698,-608.12 698,-545.25 698,-497.82 688.69,-486.7 682,-439.75 672.66,-374.21 662.49,-295.07 659.14,-268.75"/>
<polygon fill="#63b8ff" stroke="#63b8ff" points="601.76,-700.78 593.63,-707.57 604.22,-707.33 601.76,-700.78"/>
</g>
<!-- Node9 -->
<g id="node9" class="node">
<title>Node9</title>
<g id="a_node9"><a xlink:href="v8-context_8h.html" target="_top" xlink:title=" ">
<polygon fill="white" stroke="#666666" points="509.12,-135.38 406.88,-135.38 406.88,-116.12 509.12,-116.12 509.12,-135.38"/>
<text text-anchor="middle" x="458" y="-121.88" font-family="Helvetica,sans-Serif" font-size="10.00">include/v8&#45;context.h</text>
</a>
</g>
</g>
<!-- Node1&#45;&gt;Node9 -->
<g id="edge20" class="edge">
<title>Node1&#45;&gt;Node9</title>
<path fill="none" stroke="#63b8ff" d="M569.03,-697.39C575.24,-675.87 584,-639.85 584,-608.12 584,-608.12 584,-608.12 584,-373.88 584,-272.51 465.28,-301.76 428,-207.5 417.77,-181.63 438.24,-150.73 450.2,-135.76"/>
<polygon fill="#63b8ff" stroke="#63b8ff" points="565.45,-696.15 565.92,-706.74 572.15,-698.17 565.45,-696.15"/>
</g>
<!-- Node11 -->
<g id="node11" class="node">
<title>Node11</title>
<g id="a_node11"><a xlink:href="v8-script_8h.html" target="_top" xlink:title=" ">
<polygon fill="white" stroke="#666666" points="253.38,-384.5 158.62,-384.5 158.62,-365.25 253.38,-365.25 253.38,-384.5"/>
<text text-anchor="middle" x="206" y="-371" font-family="Helvetica,sans-Serif" font-size="10.00">include/v8&#45;script.h</text>
</a>
</g>
</g>
<!-- Node1&#45;&gt;Node11 -->
<g id="edge67" class="edge">
<title>Node1&#45;&gt;Node11</title>
<path fill="none" stroke="#63b8ff" d="M507.34,-715.86C379.54,-712.61 76,-695.66 76,-608.12 76,-608.12 76,-608.12 76,-545.25 76,-470 157.74,-407.59 191.59,-384.97"/>
<polygon fill="#63b8ff" stroke="#63b8ff" points="506.98,-719.38 517.06,-716.11 507.14,-712.38 506.98,-719.38"/>
</g>
<!-- Node13 -->
<g id="node13" class="node">
<title>Node13</title>
<g id="a_node13"><a xlink:href="v8-primitive_8h.html" target="_top" xlink:title=" ">
<polygon fill="white" stroke="#666666" points="542.75,-616.75 435.25,-616.75 435.25,-597.5 542.75,-597.5 542.75,-616.75"/>
<text text-anchor="middle" x="489" y="-603.25" font-family="Helvetica,sans-Serif" font-size="10.00">include/v8&#45;primitive.h</text>
</a>
</g>
</g>
<!-- Node1&#45;&gt;Node13 -->
<g id="edge22" class="edge">
<title>Node1&#45;&gt;Node13</title>
<path fill="none" stroke="#63b8ff" d="M550.88,-698.85C534.89,-675.41 507.35,-635.03 495.14,-617.13"/>
<polygon fill="#63b8ff" stroke="#63b8ff" points="548.42,-700.46 556.94,-706.75 554.2,-696.51 548.42,-700.46"/>
</g>
<!-- Node17 -->
<g id="node17" class="node">
<title>Node17</title>
<g id="a_node17"><a xlink:href="v8-template_8h.html" target="_top" xlink:title=" ">
<polygon fill="white" stroke="#666666" points="378.12,-495 269.88,-495 269.88,-475.75 378.12,-475.75 378.12,-495"/>
<text text-anchor="middle" x="324" y="-481.5" font-family="Helvetica,sans-Serif" font-size="10.00">include/v8&#45;template.h</text>
</a>
</g>
</g>
<!-- Node1&#45;&gt;Node17 -->
<g id="edge68" class="edge">
<title>Node1&#45;&gt;Node17</title>
<path fill="none" stroke="#63b8ff" d="M538.71,-701.86C510.05,-683.8 461.78,-651.34 426,-616.75 383.85,-576 344.1,-517.41 329.7,-495.28"/>
<polygon fill="#63b8ff" stroke="#63b8ff" points="536.64,-705.31 546.98,-707.63 540.34,-699.37 536.64,-705.31"/>
</g>
<!-- Node32 -->
<g id="node32" class="node">
<title>Node32</title>
<g id="a_node32"><a xlink:href="v8-value_8h.html" target="_top" xlink:title=" ">
<polygon fill="white" stroke="#666666" points="1423,-672 1329,-672 1329,-652.75 1423,-652.75 1423,-672"/>
<text text-anchor="middle" x="1376" y="-658.5" font-family="Helvetica,sans-Serif" font-size="10.00">include/v8&#45;value.h</text>
</a>
</g>
</g>
<!-- Node1&#45;&gt;Node32 -->
<g id="edge69" class="edge">
<title>Node1&#45;&gt;Node32</title>
<path fill="none" stroke="#63b8ff" d="M619.04,-712.95C770.74,-703.02 1187.41,-675.73 1328.54,-666.48"/>
<polygon fill="#63b8ff" stroke="#63b8ff" points="618.91,-709.52 609.16,-713.67 619.37,-716.51 618.91,-709.52"/>
</g>
<!-- Node3 -->
<g id="node3" class="node">
<title>Node3</title>
<g id="a_node3"><a xlink:href="v8-initialization_8h.html" target="_top" xlink:title=" ">
<polygon fill="white" stroke="#666666" points="852.5,-201.88 731.5,-201.88 731.5,-182.62 852.5,-182.62 852.5,-201.88"/>
<text text-anchor="middle" x="792" y="-188.38" font-family="Helvetica,sans-Serif" font-size="10.00">include/v8&#45;initialization.h</text>
</a>
</g>
</g>
<!-- Node2&#45;&gt;Node3 -->
<g id="edge2" class="edge">
<title>Node2&#45;&gt;Node3</title>
<path fill="none" stroke="#63b8ff" d="M750.73,-409.57C759.98,-361.07 783.72,-236.68 790.29,-202.22"/>
<polygon fill="#63b8ff" stroke="#63b8ff" points="747.15,-408.69 748.71,-419.17 754.02,-410 747.15,-408.69"/>
</g>
<!-- Node2&#45;&gt;Node5 -->
<g id="edge4" class="edge">
<title>Node2&#45;&gt;Node5</title>
<path fill="none" stroke="#63b8ff" d="M737.27,-410.61C718.18,-374.28 676.47,-294.9 662.59,-268.49"/>
<polygon fill="#63b8ff" stroke="#63b8ff" points="734.47,-411.79 742.21,-419.02 740.66,-408.54 734.47,-411.79"/>
</g>
<!-- Node2&#45;&gt;Node11 -->
<g id="edge15" class="edge">
<title>Node2&#45;&gt;Node11</title>
<path fill="none" stroke="#63b8ff" d="M679.92,-422.52C569.02,-411.61 350.12,-390.06 253.61,-380.56"/>
<polygon fill="#63b8ff" stroke="#63b8ff" points="679.34,-426.08 689.63,-423.58 680.03,-419.11 679.34,-426.08"/>
</g>
<!-- Node3&#45;&gt;Node4 -->
<g id="edge3" class="edge">
<title>Node3&#45;&gt;Node4</title>
<path fill="none" stroke="#63b8ff" d="M786.1,-171.88C778.87,-144.41 769.69,-93.25 788,-55.25 795.72,-39.23 812.29,-27.19 825.41,-19.67"/>
<polygon fill="#63b8ff" stroke="#63b8ff" points="782.99,-172.74 789.08,-181.4 789.72,-170.83 782.99,-172.74"/>
</g>
<!-- Node5&#45;&gt;Node3 -->
<g id="edge5" class="edge">
<title>Node5&#45;&gt;Node3</title>
<path fill="none" stroke="#63b8ff" d="M686.64,-243.96C712.79,-231.38 750.68,-213.14 773.18,-202.31"/>
<polygon fill="#63b8ff" stroke="#63b8ff" points="685.41,-241.15 677.91,-248.65 688.44,-247.46 685.41,-241.15"/>
</g>
<!-- Node5&#45;&gt;Node4 -->
<g id="edge14" class="edge">
<title>Node5&#45;&gt;Node4</title>
<path fill="none" stroke="#63b8ff" d="M629.25,-243.16C615.91,-234.72 601.41,-222.73 594,-207.5 586.39,-191.85 585,-127.46 597,-110.5 646.7,-40.27 754.57,-19.37 809.84,-13.19"/>
<polygon fill="#63b8ff" stroke="#63b8ff" points="627.23,-246.62 637.63,-248.67 630.78,-240.59 627.23,-246.62"/>
</g>
<!-- Node6 -->
<g id="node6" class="node">
<title>Node6</title>
<g id="a_node6"><a xlink:href="v8-inspector_8h.html" target="_top" xlink:title=" ">
<polygon fill="white" stroke="#666666" points="713.25,-201.88 602.75,-201.88 602.75,-182.62 713.25,-182.62 713.25,-201.88"/>
<text text-anchor="middle" x="658" y="-188.38" font-family="Helvetica,sans-Serif" font-size="10.00">include/v8&#45;inspector.h</text>
</a>
</g>
</g>
<!-- Node5&#45;&gt;Node6 -->
<g id="edge6" class="edge">
<title>Node5&#45;&gt;Node6</title>
<path fill="none" stroke="#63b8ff" d="M658,-238.02C658,-226.05 658,-211.35 658,-202.14"/>
<polygon fill="#63b8ff" stroke="#63b8ff" points="654.5,-237.78 658,-247.78 661.5,-237.78 654.5,-237.78"/>
</g>
<!-- Node8 -->
<g id="node8" class="node">
<title>Node8</title>
<g id="a_node8"><a xlink:href="v8-snapshot_8h.html" target="_top" xlink:title=" ">
<polygon fill="white" stroke="#666666" points="547.25,-201.88 436.75,-201.88 436.75,-182.62 547.25,-182.62 547.25,-201.88"/>
<text text-anchor="middle" x="492" y="-188.38" font-family="Helvetica,sans-Serif" font-size="10.00">include/v8&#45;snapshot.h</text>
</a>
</g>
</g>
<!-- Node5&#45;&gt;Node8 -->
<g id="edge8" class="edge">
<title>Node5&#45;&gt;Node8</title>
<path fill="none" stroke="#63b8ff" d="M624.65,-244.79C592.22,-232.19 543.8,-213.38 515.31,-202.31"/>
<polygon fill="#63b8ff" stroke="#63b8ff" points="622.98,-248.29 633.57,-248.65 625.51,-241.76 622.98,-248.29"/>
</g>
<!-- Node7 -->
<g id="node7" class="node">
<title>Node7</title>
<g id="a_node7"><a xlink:href="v8-inspector-protocol_8h.html" target="_top" xlink:title=" ">
<polygon fill="white" stroke="#666666" points="709.5,-141 606.5,-141 606.5,-110.5 709.5,-110.5 709.5,-141"/>
<text text-anchor="start" x="614.5" y="-127.5" font-family="Helvetica,sans-Serif" font-size="10.00">include/v8&#45;inspector</text>
<text text-anchor="middle" x="658" y="-116.25" font-family="Helvetica,sans-Serif" font-size="10.00">&#45;protocol.h</text>
</a>
</g>
</g>
<!-- Node6&#45;&gt;Node7 -->
<g id="edge7" class="edge">
<title>Node6&#45;&gt;Node7</title>
<path fill="none" stroke="#63b8ff" d="M658,-171.52C658,-161.7 658,-150.05 658,-141.09"/>
<polygon fill="#63b8ff" stroke="#63b8ff" points="654.5,-171.28 658,-181.28 661.5,-171.28 654.5,-171.28"/>
</g>
<!-- Node8&#45;&gt;Node4 -->
<g id="edge13" class="edge">
<title>Node8&#45;&gt;Node4</title>
<path fill="none" stroke="#63b8ff" d="M501.61,-172.81C506.54,-163.32 512.62,-151.56 518,-141 537.35,-103.01 526.58,-80.41 561,-55.25 600.1,-26.67 743.49,-15.75 809.87,-12.16"/>
<polygon fill="#63b8ff" stroke="#63b8ff" points="498.15,-170.89 496.64,-181.37 504.36,-174.12 498.15,-170.89"/>
</g>
<!-- Node8&#45;&gt;Node9 -->
<g id="edge9" class="edge">
<title>Node8&#45;&gt;Node9</title>
<path fill="none" stroke="#63b8ff" d="M482.19,-172.64C475.78,-160.48 467.7,-145.14 462.69,-135.64"/>
<polygon fill="#63b8ff" stroke="#63b8ff" points="479.51,-174.07 487.27,-181.28 485.71,-170.8 479.51,-174.07"/>
</g>
<!-- Node9&#45;&gt;Node4 -->
<g id="edge12" class="edge">
<title>Node9&#45;&gt;Node4</title>
<path fill="none" stroke="#63b8ff" d="M469.6,-106.55C481.07,-90.24 500.17,-67.09 523,-55.25 572.45,-29.6 737.43,-16.93 809.65,-12.51"/>
<polygon fill="#63b8ff" stroke="#63b8ff" points="466.15,-104.42 463.49,-114.67 471.96,-108.32 466.15,-104.42"/>
</g>
<!-- Node10 -->
<g id="node10" class="node">
<title>Node10</title>
<g id="a_node10"><a xlink:href="v8-proxy_8h.html" target="_top" xlink:title=" ">
<polygon fill="white" stroke="#666666" points="890.62,-74.5 797.38,-74.5 797.38,-55.25 890.62,-55.25 890.62,-74.5"/>
<text text-anchor="middle" x="844" y="-61" font-family="Helvetica,sans-Serif" font-size="10.00">include/v8&#45;proxy.h</text>
</a>
</g>
</g>
<!-- Node9&#45;&gt;Node10 -->
<g id="edge10" class="edge">
<title>Node9&#45;&gt;Node10</title>
<path fill="none" stroke="#63b8ff" d="M519.79,-115.33C597.03,-103.54 727.53,-83.64 797.07,-73.03"/>
<polygon fill="#63b8ff" stroke="#63b8ff" points="519.62,-111.96 510.26,-116.93 520.67,-118.88 519.62,-111.96"/>
</g>
<!-- Node10&#45;&gt;Node4 -->
<g id="edge11" class="edge">
<title>Node10&#45;&gt;Node4</title>
<path fill="none" stroke="#63b8ff" d="M844,-44.21C844,-35.77 844,-26.33 844,-19.61"/>
<polygon fill="#63b8ff" stroke="#63b8ff" points="840.5,-44.08 844,-54.08 847.5,-44.08 840.5,-44.08"/>
</g>
<!-- Node11&#45;&gt;Node4 -->
<g id="edge19" class="edge">
<title>Node11&#45;&gt;Node4</title>
<path fill="none" stroke="#63b8ff" d="M204.35,-354.19C200.76,-296.6 199.24,-127.95 296,-55.25 337.06,-24.39 696.5,-13.88 809.89,-11.31"/>
<polygon fill="#63b8ff" stroke="#63b8ff" points="200.92,-354.27 205.14,-363.99 207.9,-353.76 200.92,-354.27"/>
</g>
<!-- Node12 -->
<g id="node12" class="node">
<title>Node12</title>
<g id="a_node12"><a xlink:href="v8-debug_8h.html" target="_top" xlink:title=" ">
<polygon fill="white" stroke="#666666" points="331.5,-329.25 234.5,-329.25 234.5,-310 331.5,-310 331.5,-329.25"/>
<text text-anchor="middle" x="283" y="-315.75" font-family="Helvetica,sans-Serif" font-size="10.00">include/v8&#45;debug.h</text>
</a>
</g>
</g>
<!-- Node11&#45;&gt;Node12 -->
<g id="edge16" class="edge">
<title>Node11&#45;&gt;Node12</title>
<path fill="none" stroke="#63b8ff" d="M227.79,-358.8C241.36,-349.42 258.35,-337.67 269.87,-329.7"/>
<polygon fill="#63b8ff" stroke="#63b8ff" points="226.3,-356.28 220.06,-364.84 230.28,-362.03 226.3,-356.28"/>
</g>
<!-- Node12&#45;&gt;Node4 -->
<g id="edge18" class="edge">
<title>Node12&#45;&gt;Node4</title>
<path fill="none" stroke="#63b8ff" d="M284.54,-298.7C286.32,-273.98 289,-230.53 289,-193.25 289,-193.25 289,-193.25 289,-124.75 289,-91.11 291.7,-74.91 319,-55.25 358.76,-26.62 699.69,-14.66 809.84,-11.51"/>
<polygon fill="#63b8ff" stroke="#63b8ff" points="280.99,-298.28 283.74,-308.51 287.97,-298.8 280.99,-298.28"/>
</g>
<!-- Node12&#45;&gt;Node5 -->
<g id="edge17" class="edge">
<title>Node12&#45;&gt;Node5</title>
<path fill="none" stroke="#63b8ff" d="M342.08,-309.35C415.38,-297.84 539.1,-278.42 607.95,-267.61"/>
<polygon fill="#63b8ff" stroke="#63b8ff" points="341.98,-305.98 332.64,-310.99 343.06,-312.9 341.98,-305.98"/>
</g>
<!-- Node13&#45;&gt;Node4 -->
<g id="edge66" class="edge">
<title>Node13&#45;&gt;Node4</title>
<path fill="none" stroke="#63b8ff" d="M424.18,-601.46C345.9,-595.04 219.46,-581.89 177,-561.5 100.65,-524.83 38,-515.82 38,-431.12 38,-431.12 38,-431.12 38,-124.75 38,-92.73 32.11,-75.39 57,-55.25 116.11,-7.42 665.75,-9 809.65,-10.25"/>
<polygon fill="#63b8ff" stroke="#63b8ff" points="423.64,-605.01 433.89,-602.32 424.2,-598.03 423.64,-605.01"/>
</g>
<!-- Node13&#45;&gt;Node5 -->
<g id="edge33" class="edge">
<title>Node13&#45;&gt;Node5</title>
<path fill="none" stroke="#63b8ff" d="M523.43,-592.78C562.84,-574.98 622,-539.43 622,-486.38 622,-486.38 622,-486.38 622,-373.88 622,-332.95 643.32,-287.43 653.14,-268.62"/>
<polygon fill="#63b8ff" stroke="#63b8ff" points="522.18,-589.94 514.39,-597.12 524.96,-596.36 522.18,-589.94"/>
</g>
<!-- Node14 -->
<g id="node14" class="node">
<title>Node14</title>
<g id="a_node14"><a xlink:href="v8-extension_8h.html" target="_top" xlink:title=" ">
<polygon fill="white" stroke="#666666" points="178,-74.5 66,-74.5 66,-55.25 178,-55.25 178,-74.5"/>
<text text-anchor="middle" x="122" y="-61" font-family="Helvetica,sans-Serif" font-size="10.00">include/v8&#45;extension.h</text>
</a>
</g>
</g>
<!-- Node13&#45;&gt;Node14 -->
<g id="edge23" class="edge">
<title>Node13&#45;&gt;Node14</title>
<path fill="none" stroke="#63b8ff" d="M424.19,-603.79C344.66,-597.4 210.82,-574.59 133,-495 93.65,-454.75 90,-432.16 90,-375.88 90,-375.88 90,-375.88 90,-191.25 90,-146.32 109.53,-95.07 118.08,-74.8"/>
<polygon fill="#63b8ff" stroke="#63b8ff" points="423.81,-607.35 434.04,-604.59 424.33,-600.37 423.81,-607.35"/>
</g>
<!-- Node15 -->
<g id="node15" class="node">
<title>Node15</title>
<g id="a_node15"><a xlink:href="v8-function-callback_8h.html" target="_top" xlink:title=" ">
<polygon fill="white" stroke="#666666" points="524.88,-561.5 427.12,-561.5 427.12,-531 524.88,-531 524.88,-561.5"/>
<text text-anchor="start" x="435.12" y="-548" font-family="Helvetica,sans-Serif" font-size="10.00">include/v8&#45;function</text>
<text text-anchor="middle" x="476" y="-536.75" font-family="Helvetica,sans-Serif" font-size="10.00">&#45;callback.h</text>
</a>
</g>
</g>
<!-- Node13&#45;&gt;Node15 -->
<g id="edge25" class="edge">
<title>Node13&#45;&gt;Node15</title>
<path fill="none" stroke="#63b8ff" d="M484.66,-586.48C482.88,-578.41 480.85,-569.23 479.21,-561.78"/>
<polygon fill="#63b8ff" stroke="#63b8ff" points="481.45,-587.17 487.03,-596.18 488.29,-585.66 481.45,-587.17"/>
</g>
<!-- Node19 -->
<g id="node19" class="node">
<title>Node19</title>
<g id="a_node19"><a xlink:href="v8-message_8h.html" target="_top" xlink:title=" ">
<polygon fill="white" stroke="#666666" points="252.25,-495 141.75,-495 141.75,-475.75 252.25,-475.75 252.25,-495"/>
<text text-anchor="middle" x="197" y="-481.5" font-family="Helvetica,sans-Serif" font-size="10.00">include/v8&#45;message.h</text>
</a>
</g>
</g>
<!-- Node13&#45;&gt;Node19 -->
<g id="edge34" class="edge">
<title>Node13&#45;&gt;Node19</title>
<path fill="none" stroke="#63b8ff" d="M457.07,-593.03C397.42,-568.57 270.5,-516.52 219.2,-495.48"/>
<polygon fill="#63b8ff" stroke="#63b8ff" points="455.47,-596.57 466.05,-597.12 458.13,-590.09 455.47,-596.57"/>
</g>
<!-- Node21 -->
<g id="node21" class="node">
<title>Node21</title>
<g id="a_node21"><a xlink:href="v8-object_8h.html" target="_top" xlink:title=" ">
<polygon fill="white" stroke="#666666" points="1121.5,-555.88 1024.5,-555.88 1024.5,-536.62 1121.5,-536.62 1121.5,-555.88"/>
<text text-anchor="middle" x="1073" y="-542.38" font-family="Helvetica,sans-Serif" font-size="10.00">include/v8&#45;object.h</text>
</a>
</g>
</g>
<!-- Node13&#45;&gt;Node21 -->
<g id="edge39" class="edge">
<title>Node13&#45;&gt;Node21</title>
<path fill="none" stroke="#63b8ff" d="M553.82,-599.59C671.85,-587.69 919.31,-562.74 1024.27,-552.16"/>
<polygon fill="#63b8ff" stroke="#63b8ff" points="553.75,-596.18 544.16,-600.67 554.46,-603.14 553.75,-596.18"/>
</g>
<!-- Node14&#45;&gt;Node4 -->
<g id="edge24" class="edge">
<title>Node14&#45;&gt;Node4</title>
<path fill="none" stroke="#63b8ff" d="M189.02,-55.54C190.02,-55.44 191.01,-55.34 192,-55.25 427.77,-32.67 712.56,-17.24 809.66,-12.32"/>
<polygon fill="#63b8ff" stroke="#63b8ff" points="188.71,-52.16 179.13,-56.69 189.45,-59.12 188.71,-52.16"/>
</g>
<!-- Node15&#45;&gt;Node5 -->
<g id="edge28" class="edge">
<title>Node15&#45;&gt;Node5</title>
<path fill="none" stroke="#63b8ff" d="M503,-523.51C511.69,-515.36 520.69,-505.5 527,-495 542.25,-469.61 546,-460.74 546,-431.12 546,-431.12 546,-431.12 546,-373.88 546,-321.96 605.76,-285 637.98,-268.84"/>
<polygon fill="#63b8ff" stroke="#63b8ff" points="500.99,-520.51 495.85,-529.78 505.65,-525.73 500.99,-520.51"/>
</g>
<!-- Node16 -->
<g id="node16" class="node">
<title>Node16</title>
<g id="a_node16"><a xlink:href="v8-function_8h.html" target="_top" xlink:title=" ">
<polygon fill="white" stroke="#666666" points="493.62,-439.75 388.38,-439.75 388.38,-420.5 493.62,-420.5 493.62,-439.75"/>
<text text-anchor="middle" x="441" y="-426.25" font-family="Helvetica,sans-Serif" font-size="10.00">include/v8&#45;function.h</text>
</a>
</g>
</g>
<!-- Node15&#45;&gt;Node16 -->
<g id="edge26" class="edge">
<title>Node15&#45;&gt;Node16</title>
<path fill="none" stroke="#63b8ff" d="M446.19,-523.48C437.71,-515.57 429.55,-505.86 425,-495 417.14,-476.23 427.95,-452.68 435.26,-440.07"/>
<polygon fill="#63b8ff" stroke="#63b8ff" points="443.46,-526.61 453.32,-530.5 448.04,-521.31 443.46,-526.61"/>
</g>
<!-- Node15&#45;&gt;Node17 -->
<g id="edge29" class="edge">
<title>Node15&#45;&gt;Node17</title>
<path fill="none" stroke="#63b8ff" d="M428.02,-526.66C401.09,-516.24 368.71,-503.69 347.31,-495.4"/>
<polygon fill="#63b8ff" stroke="#63b8ff" points="426.45,-530.2 437.04,-530.55 428.98,-523.67 426.45,-530.2"/>
</g>
<!-- Node18 -->
<g id="node18" class="node">
<title>Node18</title>
<g id="a_node18"><a xlink:href="v8-util_8h.html" target="_top" xlink:title=" ">
<polygon fill="white" stroke="#666666" points="517.75,-495 434.25,-495 434.25,-475.75 517.75,-475.75 517.75,-495"/>
<text text-anchor="middle" x="476" y="-481.5" font-family="Helvetica,sans-Serif" font-size="10.00">include/v8&#45;util.h</text>
</a>
</g>
</g>
<!-- Node15&#45;&gt;Node18 -->
<g id="edge32" class="edge">
<title>Node15&#45;&gt;Node18</title>
<path fill="none" stroke="#63b8ff" d="M476,-519.82C476,-511.14 476,-501.98 476,-495.45"/>
<polygon fill="#63b8ff" stroke="#63b8ff" points="472.5,-519.7 476,-529.7 479.5,-519.7 472.5,-519.7"/>
</g>
<!-- Node16&#45;&gt;Node4 -->
<g id="edge27" class="edge">
<title>Node16&#45;&gt;Node4</title>
<path fill="none" stroke="#63b8ff" d="M430.92,-410.67C404.17,-358.97 337.44,-209.99 398,-110.5 423.6,-68.45 447.34,-70.95 494,-55.25 605.18,-17.85 745.88,-11.43 809.72,-10.57"/>
<polygon fill="#63b8ff" stroke="#63b8ff" points="428.18,-411.98 435.96,-419.18 434.37,-408.7 428.18,-411.98"/>
</g>
<!-- Node17&#45;&gt;Node4 -->
<g id="edge31" class="edge">
<title>Node17&#45;&gt;Node4</title>
<path fill="none" stroke="#63b8ff" d="M332.42,-465.47C335.58,-457.65 338.91,-448.4 341,-439.75 382.22,-269.05 275.17,-134.25 432,-55.25 498.02,-21.99 723.53,-13.37 809.94,-11.27"/>
<polygon fill="#63b8ff" stroke="#63b8ff" points="328.91,-463.79 328.21,-474.36 335.35,-466.53 328.91,-463.79"/>
</g>
<!-- Node17&#45;&gt;Node16 -->
<g id="edge30" class="edge">
<title>Node17&#45;&gt;Node16</title>
<path fill="none" stroke="#63b8ff" d="M353.6,-470.9C374.72,-461.29 402.53,-448.63 421.06,-440.2"/>
<polygon fill="#63b8ff" stroke="#63b8ff" points="352.5,-468.01 344.85,-475.34 355.4,-474.38 352.5,-468.01"/>
</g>
<!-- Node19&#45;&gt;Node4 -->
<g id="edge38" class="edge">
<title>Node19&#45;&gt;Node4</title>
<path fill="none" stroke="#63b8ff" d="M183.42,-466.72C167.59,-444.06 144.26,-403.16 150,-365.25 172.18,-218.86 141.61,-125.41 272,-55.25 319.37,-29.76 694.02,-15.52 809.94,-11.69"/>
<polygon fill="#63b8ff" stroke="#63b8ff" points="181.12,-468.49 189.84,-474.5 186.77,-464.36 181.12,-468.49"/>
</g>
<!-- Node19&#45;&gt;Node11 -->
<g id="edge37" class="edge">
<title>Node19&#45;&gt;Node11</title>
<path fill="none" stroke="#63b8ff" d="M198.63,-464.68C200.6,-441.01 203.81,-402.3 205.25,-384.88"/>
<polygon fill="#63b8ff" stroke="#63b8ff" points="195.08,-464.24 197.74,-474.5 202.05,-464.82 195.08,-464.24"/>
</g>
<!-- Node19&#45;&gt;Node16 -->
<g id="edge35" class="edge">
<title>Node19&#45;&gt;Node16</title>
<path fill="none" stroke="#63b8ff" d="M249.36,-472.95C294.26,-463.15 358.07,-449.22 399.5,-440.18"/>
<polygon fill="#63b8ff" stroke="#63b8ff" points="248.69,-469.73 239.67,-475.28 250.18,-476.57 248.69,-469.73"/>
</g>
<!-- Node20 -->
<g id="node20" class="node">
<title>Node20</title>
<g id="a_node20"><a xlink:href="v8-profiler_8h.html" target="_top" xlink:title=" ">
<polygon fill="white" stroke="#666666" points="331.62,-439.75 232.38,-439.75 232.38,-420.5 331.62,-420.5 331.62,-439.75"/>
<text text-anchor="middle" x="282" y="-426.25" font-family="Helvetica,sans-Serif" font-size="10.00">include/v8&#45;profiler.h</text>
</a>
</g>
</g>
<!-- Node19&#45;&gt;Node20 -->
<g id="edge36" class="edge">
<title>Node19&#45;&gt;Node20</title>
<path fill="none" stroke="#63b8ff" d="M220.63,-469.57C235.67,-460.15 254.67,-448.25 267.51,-440.2"/>
<polygon fill="#63b8ff" stroke="#63b8ff" points="219.04,-467.07 212.42,-475.34 222.75,-473 219.04,-467.07"/>
</g>
<!-- Node21&#45;&gt;Node4 -->
<g id="edge65" class="edge">
<title>Node21&#45;&gt;Node4</title>
<path fill="none" stroke="#63b8ff" d="M1107.87,-532.24C1130.37,-523.19 1159.82,-510.07 1184,-495 1330.93,-403.42 1461.42,-342.01 1409,-177 1383.83,-97.77 1346.02,-81.08 1267,-55.25 1194.79,-31.65 965.42,-17.16 878.15,-12.38"/>
<polygon fill="#63b8ff" stroke="#63b8ff" points="1106.78,-529.3 1098.76,-536.23 1109.35,-535.82 1106.78,-529.3"/>
</g>
<!-- Node21&#45;&gt;Node10 -->
<g id="edge59" class="edge">
<title>Node21&#45;&gt;Node10</title>
<path fill="none" stroke="#63b8ff" d="M1013.32,-542.4C941.66,-535.38 831,-511.54 831,-431.12 831,-431.12 831,-431.12 831,-373.88 831,-285.3 869.1,-265.29 862,-177 858.91,-138.62 849.92,-93.5 845.94,-74.75"/>
<polygon fill="#63b8ff" stroke="#63b8ff" points="1012.76,-545.95 1023.03,-543.35 1013.38,-538.98 1012.76,-545.95"/>
</g>
<!-- Node21&#45;&gt;Node16 -->
<g id="edge50" class="edge">
<title>Node21&#45;&gt;Node16</title>
<path fill="none" stroke="#63b8ff" d="M1013.44,-534.49C889.7,-512.15 606.79,-461.06 491.4,-440.23"/>
<polygon fill="#63b8ff" stroke="#63b8ff" points="1012.73,-538.1 1023.2,-536.44 1013.98,-531.22 1012.73,-538.1"/>
</g>
<!-- Node21&#45;&gt;Node17 -->
<g id="edge62" class="edge">
<title>Node21&#45;&gt;Node17</title>
<path fill="none" stroke="#63b8ff" d="M1013.29,-540.78C899.04,-532.18 641.59,-512.65 425,-495 409.92,-493.77 393.57,-492.39 378.51,-491.11"/>
<polygon fill="#63b8ff" stroke="#63b8ff" points="1012.98,-544.34 1023.22,-541.6 1013.51,-537.36 1012.98,-544.34"/>
</g>
<!-- Node22 -->
<g id="node22" class="node">
<title>Node22</title>
<g id="a_node22"><a xlink:href="v8-array-buffer_8h.html" target="_top" xlink:title=" ">
<polygon fill="white" stroke="#666666" points="1297.38,-329.25 1178.62,-329.25 1178.62,-310 1297.38,-310 1297.38,-329.25"/>
<text text-anchor="middle" x="1238" y="-315.75" font-family="Helvetica,sans-Serif" font-size="10.00">include/v8&#45;array&#45;buffer.h</text>
</a>
</g>
</g>
<!-- Node21&#45;&gt;Node22 -->
<g id="edge40" class="edge">
<title>Node21&#45;&gt;Node22</title>
<path fill="none" stroke="#63b8ff" d="M1090.11,-528.63C1118.01,-500.83 1173.84,-442.24 1210,-384.5 1221.44,-366.23 1230.51,-342.49 1234.97,-329.71"/>
<polygon fill="#63b8ff" stroke="#63b8ff" points="1088.06,-525.72 1083.4,-535.24 1092.97,-530.71 1088.06,-525.72"/>
</g>
<!-- Node25 -->
<g id="node25" class="node">
<title>Node25</title>
<g id="a_node25"><a xlink:href="v8-container_8h.html" target="_top" xlink:title=" ">
<polygon fill="white" stroke="#666666" points="1449.25,-439.75 1338.75,-439.75 1338.75,-420.5 1449.25,-420.5 1449.25,-439.75"/>
<text text-anchor="middle" x="1394" y="-426.25" font-family="Helvetica,sans-Serif" font-size="10.00">include/v8&#45;container.h</text>
</a>
</g>
</g>
<!-- Node21&#45;&gt;Node25 -->
<g id="edge46" class="edge">
<title>Node21&#45;&gt;Node25</title>
<path fill="none" stroke="#63b8ff" d="M1132.92,-542.47C1185.95,-537.93 1264.16,-526.05 1325,-495 1351.75,-481.35 1375.69,-454.32 1387.05,-440.2"/>
<polygon fill="#63b8ff" stroke="#63b8ff" points="1132.69,-539.05 1123,-543.33 1133.24,-546.03 1132.69,-539.05"/>
</g>
<!-- Node26 -->
<g id="node26" class="node">
<title>Node26</title>
<g id="a_node26"><a xlink:href="v8-date_8h.html" target="_top" xlink:title=" ">
<polygon fill="white" stroke="#666666" points="1074.75,-74.5 985.25,-74.5 985.25,-55.25 1074.75,-55.25 1074.75,-74.5"/>
<text text-anchor="middle" x="1030" y="-61" font-family="Helvetica,sans-Serif" font-size="10.00">include/v8&#45;date.h</text>
</a>
</g>
</g>
<!-- Node21&#45;&gt;Node26 -->
<g id="edge48" class="edge">
<title>Node21&#45;&gt;Node26</title>
<path fill="none" stroke="#63b8ff" d="M1062.7,-526.67C1051.45,-504.59 1035,-466.3 1035,-431.12 1035,-431.12 1035,-431.12 1035,-373.88 1035,-328.52 1018.69,-319.12 1014,-274 1005.98,-196.86 1022.55,-103.25 1028.2,-74.61"/>
<polygon fill="#63b8ff" stroke="#63b8ff" points="1059.94,-527.93 1067.72,-535.13 1066.12,-524.65 1059.94,-527.93"/>
</g>
<!-- Node27 -->
<g id="node27" class="node">
<title>Node27</title>
<g id="a_node27"><a xlink:href="v8-primitive-object_8h.html" target="_top" xlink:title=" ">
<polygon fill="white" stroke="#666666" points="1123,-274 1023,-274 1023,-243.5 1123,-243.5 1123,-274"/>
<text text-anchor="start" x="1031" y="-260.5" font-family="Helvetica,sans-Serif" font-size="10.00">include/v8&#45;primitive</text>
<text text-anchor="middle" x="1073" y="-249.25" font-family="Helvetica,sans-Serif" font-size="10.00">&#45;object.h</text>
</a>
</g>
</g>
<!-- Node21&#45;&gt;Node27 -->
<g id="edge51" class="edge">
<title>Node21&#45;&gt;Node27</title>
<path fill="none" stroke="#63b8ff" d="M1073,-525.48C1073,-502.73 1073,-464.23 1073,-431.12 1073,-431.12 1073,-431.12 1073,-373.88 1073,-338.01 1073,-295.81 1073,-274.16"/>
<polygon fill="#63b8ff" stroke="#63b8ff" points="1069.5,-525.37 1073,-535.37 1076.5,-525.37 1069.5,-525.37"/>
</g>
<!-- Node28 -->
<g id="node28" class="node">
<title>Node28</title>
<g id="a_node28"><a xlink:href="v8-promise_8h.html" target="_top" xlink:title=" ">
<polygon fill="white" stroke="#666666" points="986.62,-495 881.38,-495 881.38,-475.75 986.62,-475.75 986.62,-495"/>
<text text-anchor="middle" x="934" y="-481.5" font-family="Helvetica,sans-Serif" font-size="10.00">include/v8&#45;promise.h</text>
</a>
</g>
</g>
<!-- Node21&#45;&gt;Node28 -->
<g id="edge53" class="edge">
<title>Node21&#45;&gt;Node28</title>
<path fill="none" stroke="#63b8ff" d="M1041.7,-531.99C1015.31,-520.81 978.26,-505.12 955.21,-495.36"/>
<polygon fill="#63b8ff" stroke="#63b8ff" points="1040.01,-535.5 1050.59,-536.18 1042.74,-529.06 1040.01,-535.5"/>
</g>
<!-- Node30 -->
<g id="node30" class="node">
<title>Node30</title>
<g id="a_node30"><a xlink:href="v8-regexp_8h.html" target="_top" xlink:title=" ">
<polygon fill="white" stroke="#666666" points="1200.62,-384.5 1101.38,-384.5 1101.38,-365.25 1200.62,-365.25 1200.62,-384.5"/>
<text text-anchor="middle" x="1151" y="-371" font-family="Helvetica,sans-Serif" font-size="10.00">include/v8&#45;regexp.h</text>
</a>
</g>
</g>
<!-- Node21&#45;&gt;Node30 -->
<g id="edge60" class="edge">
<title>Node21&#45;&gt;Node30</title>
<path fill="none" stroke="#63b8ff" d="M1081.74,-526.27C1098.57,-489.73 1134.86,-410.92 1146.97,-384.62"/>
<polygon fill="#63b8ff" stroke="#63b8ff" points="1078.2,-524.6 1077.19,-535.14 1084.56,-527.52 1078.2,-524.6"/>
</g>
<!-- Node31 -->
<g id="node31" class="node">
<title>Node31</title>
<g id="a_node31"><a xlink:href="v8-wasm_8h.html" target="_top" xlink:title=" ">
<polygon fill="white" stroke="#666666" points="1352.5,-135.38 1255.5,-135.38 1255.5,-116.12 1352.5,-116.12 1352.5,-135.38"/>
<text text-anchor="middle" x="1304" y="-121.88" font-family="Helvetica,sans-Serif" font-size="10.00">include/v8&#45;wasm.h</text>
</a>
</g>
</g>
<!-- Node21&#45;&gt;Node31 -->
<g id="edge63" class="edge">
<title>Node21&#45;&gt;Node31</title>
<path fill="none" stroke="#63b8ff" d="M1099.34,-530.94C1159.37,-496.45 1304.23,-402 1344,-274 1348.02,-261.05 1350.12,-255.59 1344,-243.5 1331.8,-219.39 1307.2,-231.61 1295,-207.5 1283.02,-183.84 1293.49,-151.38 1299.9,-135.81"/>
<polygon fill="#63b8ff" stroke="#63b8ff" points="1097.8,-528.36 1090.81,-536.32 1101.24,-534.46 1097.8,-528.36"/>
</g>
<!-- Node22&#45;&gt;Node4 -->
<g id="edge45" class="edge">
<title>Node22&#45;&gt;Node4</title>
<path fill="none" stroke="#63b8ff" d="M1224,-301.01C1218.32,-293.13 1212.14,-283.49 1208,-274 1193.25,-240.21 1189,-230.12 1189,-193.25 1189,-193.25 1189,-193.25 1189,-124.75 1189,-92.07 1190.24,-76.01 1165,-55.25 1121.76,-19.69 951.78,-12.45 878.22,-10.99"/>
<polygon fill="#63b8ff" stroke="#63b8ff" points="1221.69,-302.76 1230.51,-308.63 1227.28,-298.54 1221.69,-302.76"/>
</g>
<!-- Node22&#45;&gt;Node5 -->
<g id="edge41" class="edge">
<title>Node22&#45;&gt;Node5</title>
<path fill="none" stroke="#63b8ff" d="M1167.61,-311.48C1048.81,-299.42 811.36,-275.32 708,-264.83"/>
<polygon fill="#63b8ff" stroke="#63b8ff" points="1167.08,-315.05 1177.39,-312.57 1167.79,-308.08 1167.08,-315.05"/>
</g>
<!-- Node23 -->
<g id="node23" class="node">
<title>Node23</title>
<g id="a_node23"><a xlink:href="v8-typed-array_8h.html" target="_top" xlink:title=" ">
<polygon fill="white" stroke="#666666" points="1335,-268.38 1217,-268.38 1217,-249.12 1335,-249.12 1335,-268.38"/>
<text text-anchor="middle" x="1276" y="-254.88" font-family="Helvetica,sans-Serif" font-size="10.00">include/v8&#45;typed&#45;array.h</text>
</a>
</g>
</g>
<!-- Node22&#45;&gt;Node23 -->
<g id="edge42" class="edge">
<title>Node22&#45;&gt;Node23</title>
<path fill="none" stroke="#63b8ff" d="M1249.69,-300.51C1256.48,-289.99 1264.74,-277.19 1270.17,-268.78"/>
<polygon fill="#63b8ff" stroke="#63b8ff" points="1246.25,-298.38 1243.77,-308.68 1252.13,-302.18 1246.25,-298.38"/>
</g>
<!-- Node23&#45;&gt;Node4 -->
<g id="edge44" class="edge">
<title>Node23&#45;&gt;Node4</title>
<path fill="none" stroke="#63b8ff" d="M1270.26,-238.33C1255.81,-189.97 1217.97,-67.21 1203,-55.25 1153.38,-15.6 958.09,-10.75 878.27,-10.46"/>
<polygon fill="#63b8ff" stroke="#63b8ff" points="1267.13,-239.08 1273.34,-247.67 1273.84,-237.09 1267.13,-239.08"/>
</g>
<!-- Node24 -->
<g id="node24" class="node">
<title>Node24</title>
<g id="a_node24"><a xlink:href="v8-fast-api-calls_8h.html" target="_top" xlink:title=" ">
<polygon fill="white" stroke="#666666" points="1399.75,-207.5 1304.25,-207.5 1304.25,-177 1399.75,-177 1399.75,-207.5"/>
<text text-anchor="start" x="1312.25" y="-194" font-family="Helvetica,sans-Serif" font-size="10.00">include/v8&#45;fast&#45;api</text>
<text text-anchor="middle" x="1352" y="-182.75" font-family="Helvetica,sans-Serif" font-size="10.00">&#45;calls.h</text>
</a>
</g>
</g>
<!-- Node23&#45;&gt;Node24 -->
<g id="edge43" class="edge">
<title>Node23&#45;&gt;Node24</title>
<path fill="none" stroke="#63b8ff" d="M1294.74,-241.85C1306.99,-231.45 1322.88,-217.97 1334.81,-207.84"/>
<polygon fill="#63b8ff" stroke="#63b8ff" points="1292.93,-239.64 1287.57,-248.78 1297.46,-244.98 1292.93,-239.64"/>
</g>
<!-- Node25&#45;&gt;Node4 -->
<g id="edge47" class="edge">
<title>Node25&#45;&gt;Node4</title>
<path fill="none" stroke="#63b8ff" d="M1408.92,-412.09C1432.81,-382.99 1477,-320.92 1477,-259.75 1477,-259.75 1477,-259.75 1477,-124.75 1477,-90.17 1470.75,-74.47 1442,-55.25 1395.05,-23.86 998.02,-13.62 878.14,-11.23"/>
<polygon fill="#63b8ff" stroke="#63b8ff" points="1405.74,-409.44 1401.96,-419.33 1411.08,-413.95 1405.74,-409.44"/>
</g>
<!-- Node26&#45;&gt;Node4 -->
<g id="edge49" class="edge">
<title>Node26&#45;&gt;Node4</title>
<path fill="none" stroke="#63b8ff" d="M987.89,-51.82C953.84,-42.07 906.62,-28.55 875.71,-19.7"/>
<polygon fill="#63b8ff" stroke="#63b8ff" points="986.87,-55.45 997.45,-54.84 988.8,-48.72 986.87,-55.45"/>
</g>
<!-- Node27&#45;&gt;Node4 -->
<g id="edge52" class="edge">
<title>Node27&#45;&gt;Node4</title>
<path fill="none" stroke="#63b8ff" d="M1083.95,-233.07C1100.62,-191.25 1126.25,-106.08 1084,-55.25 1058.2,-24.21 937.9,-14.65 878.03,-11.8"/>
<polygon fill="#63b8ff" stroke="#63b8ff" points="1080.35,-231.61 1079.74,-242.18 1086.81,-234.29 1080.35,-231.61"/>
</g>
<!-- Node28&#45;&gt;Node2 -->
<g id="edge54" class="edge">
<title>Node28&#45;&gt;Node2</title>
<path fill="none" stroke="#63b8ff" d="M892.11,-472.45C857.84,-462.69 810.1,-449.09 778.88,-440.2"/>
<polygon fill="#63b8ff" stroke="#63b8ff" points="890.7,-475.97 901.28,-475.34 892.62,-469.24 890.7,-475.97"/>
</g>
<!-- Node28&#45;&gt;Node4 -->
<g id="edge58" class="edge">
<title>Node28&#45;&gt;Node4</title>
<path fill="none" stroke="#63b8ff" d="M941.31,-465.18C951.9,-436.24 971.02,-379.45 978,-329.25 979.18,-320.78 978.76,-318.52 978,-310 973.31,-257.49 957,-245.97 957,-193.25 957,-193.25 957,-193.25 957,-124.75 957,-72.61 896.7,-35.75 864.2,-19.66"/>
<polygon fill="#63b8ff" stroke="#63b8ff" points="937.69,-463.88 937.47,-474.47 944.25,-466.33 937.69,-463.88"/>
</g>
<!-- Node29 -->
<g id="node29" class="node">
<title>Node29</title>
<g id="a_node29"><a xlink:href="v8-statistics_8h.html" target="_top" xlink:title=" ">
<polygon fill="white" stroke="#666666" points="969.25,-329.25 858.75,-329.25 858.75,-310 969.25,-310 969.25,-329.25"/>
<text text-anchor="middle" x="914" y="-315.75" font-family="Helvetica,sans-Serif" font-size="10.00">include/v8&#45;statistics.h</text>
</a>
</g>
</g>
<!-- Node28&#45;&gt;Node29 -->
<g id="edge55" class="edge">
<title>Node28&#45;&gt;Node29</title>
<path fill="none" stroke="#63b8ff" d="M931.6,-464.69C927.24,-429 918.19,-354.96 915.08,-329.47"/>
<polygon fill="#63b8ff" stroke="#63b8ff" points="928.24,-465.07 932.92,-474.57 935.19,-464.22 928.24,-465.07"/>
</g>
<!-- Node29&#45;&gt;Node4 -->
<g id="edge57" class="edge">
<title>Node29&#45;&gt;Node4</title>
<path fill="none" stroke="#63b8ff" d="M915.29,-298.7C916.77,-273.97 919,-230.52 919,-193.25 919,-193.25 919,-193.25 919,-124.75 919,-92.73 917.61,-81.99 900,-55.25 889.95,-39.99 872.98,-27.54 860.34,-19.71"/>
<polygon fill="#63b8ff" stroke="#63b8ff" points="911.74,-298.31 914.61,-308.51 918.73,-298.74 911.74,-298.31"/>
</g>
<!-- Node29&#45;&gt;Node5 -->
<g id="edge56" class="edge">
<title>Node29&#45;&gt;Node5</title>
<path fill="none" stroke="#63b8ff" d="M863.95,-307.11C815.25,-295.91 742.23,-279.12 697.48,-268.83"/>
<polygon fill="#63b8ff" stroke="#63b8ff" points="863.03,-310.72 873.56,-309.55 864.6,-303.9 863.03,-310.72"/>
</g>
<!-- Node30&#45;&gt;Node4 -->
<g id="edge61" class="edge">
<title>Node30&#45;&gt;Node4</title>
<path fill="none" stroke="#63b8ff" d="M1151,-354.11C1151,-331.35 1151,-292.85 1151,-259.75 1151,-259.75 1151,-259.75 1151,-124.75 1151,-87.21 1134.64,-75.46 1103,-55.25 1066.18,-31.73 939.52,-18.43 878.03,-13.22"/>
<polygon fill="#63b8ff" stroke="#63b8ff" points="1147.5,-354 1151,-364 1154.5,-354 1147.5,-354"/>
</g>
<!-- Node31&#45;&gt;Node4 -->
<g id="edge64" class="edge">
<title>Node31&#45;&gt;Node4</title>
<path fill="none" stroke="#63b8ff" d="M1293.3,-106.94C1282.38,-90.5 1263.81,-66.93 1241,-55.25 1177.87,-22.93 962.27,-13.77 878.07,-11.39"/>
<polygon fill="#63b8ff" stroke="#63b8ff" points="1290.78,-108.51 1299.09,-115.09 1296.7,-104.76 1290.78,-108.51"/>
</g>
<!-- Node32&#45;&gt;Node4 -->
<g id="edge75" class="edge">
<title>Node32&#45;&gt;Node4</title>
<path fill="none" stroke="#63b8ff" d="M1414.82,-648.45C1455.95,-632.02 1515,-599.35 1515,-547.25 1515,-547.25 1515,-547.25 1515,-124.75 1515,-86.96 1498.91,-73.84 1466,-55.25 1414.68,-26.27 1000.65,-14.3 878.07,-11.37"/>
<polygon fill="#63b8ff" stroke="#63b8ff" points="1413.89,-645.44 1405.8,-652.28 1416.39,-651.98 1413.89,-645.44"/>
</g>
<!-- Node32&#45;&gt;Node13 -->
<g id="edge74" class="edge">
<title>Node32&#45;&gt;Node13</title>
<path fill="none" stroke="#63b8ff" d="M1317.92,-657.89C1155.85,-648.16 700.25,-620.81 543.09,-611.37"/>
<polygon fill="#63b8ff" stroke="#63b8ff" points="1317.43,-661.43 1327.62,-658.53 1317.85,-654.44 1317.43,-661.43"/>
</g>
<!-- Node32&#45;&gt;Node21 -->
<g id="edge73" class="edge">
<title>Node32&#45;&gt;Node21</title>
<path fill="none" stroke="#63b8ff" d="M1341.94,-648.55C1280.05,-625.24 1150.62,-576.49 1097.03,-556.3"/>
<polygon fill="#63b8ff" stroke="#63b8ff" points="1340.38,-652.07 1350.97,-652.32 1342.85,-645.52 1340.38,-652.07"/>
</g>
<!-- Node32&#45;&gt;Node24 -->
<g id="edge72" class="edge">
<title>Node32&#45;&gt;Node24</title>
<path fill="none" stroke="#63b8ff" d="M1402.25,-646.8C1432.18,-628.02 1477,-592.37 1477,-547.25 1477,-547.25 1477,-547.25 1477,-429.12 1477,-335.51 1399.17,-242.77 1366.34,-207.81"/>
<polygon fill="#63b8ff" stroke="#63b8ff" points="1400.89,-644.13 1394.13,-652.29 1404.51,-650.13 1400.89,-644.13"/>
</g>
<!-- Node33 -->
<g id="node33" class="node">
<title>Node33</title>
<g id="a_node33"><a xlink:href="v8-external_8h.html" target="_top" xlink:title=" ">
<polygon fill="white" stroke="#666666" points="1647.25,-384.5 1542.75,-384.5 1542.75,-365.25 1647.25,-365.25 1647.25,-384.5"/>
<text text-anchor="middle" x="1595" y="-371" font-family="Helvetica,sans-Serif" font-size="10.00">include/v8&#45;external.h</text>
</a>
</g>
</g>
<!-- Node32&#45;&gt;Node33 -->
<g id="edge70" class="edge">
<title>Node32&#45;&gt;Node33</title>
<path fill="none" stroke="#63b8ff" d="M1434.04,-653.02C1492.47,-640.95 1574,-612.43 1574,-547.25 1574,-547.25 1574,-547.25 1574,-484.38 1574,-446.77 1586.31,-403.15 1592.08,-384.76"/>
<polygon fill="#63b8ff" stroke="#63b8ff" points="1433.57,-649.74 1424.43,-655.09 1434.91,-656.61 1433.57,-649.74"/>
</g>
<!-- Node33&#45;&gt;Node4 -->
<g id="edge71" class="edge">
<title>Node33&#45;&gt;Node4</title>
<path fill="none" stroke="#63b8ff" d="M1589.15,-354.28C1582.94,-331.7 1574,-293.39 1574,-259.75 1574,-259.75 1574,-259.75 1574,-124.75 1574,-87.95 1560.74,-73.87 1529,-55.25 1472.6,-22.15 1009.32,-13.01 878.36,-11.07"/>
<polygon fill="#63b8ff" stroke="#63b8ff" points="1586.05,-355.16 1592.17,-363.81 1592.78,-353.23 1586.05,-355.16"/>
</g>
</g>
</svg>
