<?xml version="1.0" encoding="UTF-8" standalone="no"?>
<!DOCTYPE svg PUBLIC "-//W3C//DTD SVG 1.1//EN"
 "http://www.w3.org/Graphics/SVG/1.1/DTD/svg11.dtd">
<!-- Generated by graphviz version 8.0.5 (20230430.1635)
 -->
<!-- Title: include/v8&#45;metrics.h Pages: 1 -->
<svg width="512pt" height="304pt"
 viewBox="0.00 0.00 512.00 303.50" xmlns="http://www.w3.org/2000/svg" xmlns:xlink="http://www.w3.org/1999/xlink">
<g id="graph0" class="graph" transform="scale(1 1) rotate(0) translate(4 299.5)">
<title>include/v8&#45;metrics.h</title>
<!-- Node1 -->
<g id="node1" class="node">
<title>Node1</title>
<g id="a_node1"><a xlink:title=" ">
<polygon fill="#999999" stroke="#666666" points="213.25,-295.5 110.25,-295.5 110.25,-276.25 213.25,-276.25 213.25,-295.5"/>
<text text-anchor="middle" x="161.75" y="-282" font-family="Helvetica,sans-Serif" font-size="10.00">include/v8&#45;metrics.h</text>
</a>
</g>
</g>
<!-- Node2 -->
<g id="node2" class="node">
<title>Node2</title>
<g id="a_node2"><a xlink:title=" ">
<polygon fill="#e0e0e0" stroke="#999999" points="504,-74.5 453.5,-74.5 453.5,-55.25 504,-55.25 504,-74.5"/>
<text text-anchor="middle" x="478.75" y="-61" font-family="Helvetica,sans-Serif" font-size="10.00">stddef.h</text>
</a>
</g>
</g>
<!-- Node1&#45;&gt;Node2 -->
<g id="edge1" class="edge">
<title>Node1&#45;&gt;Node2</title>
<path fill="none" stroke="#63b8ff" d="M213.63,-283.15C256.03,-279.53 315.92,-269.15 359.75,-240.25 419.09,-201.12 456.82,-121.2 471.62,-84.75"/>
<polygon fill="#63b8ff" stroke="#63b8ff" points="475.08,-86.52 475.48,-75.93 468.57,-83.96 475.08,-86.52"/>
</g>
<!-- Node3 -->
<g id="node3" class="node">
<title>Node3</title>
<g id="a_node3"><a xlink:title=" ">
<polygon fill="#e0e0e0" stroke="#999999" points="47.5,-74.5 0,-74.5 0,-55.25 47.5,-55.25 47.5,-74.5"/>
<text text-anchor="middle" x="23.75" y="-61" font-family="Helvetica,sans-Serif" font-size="10.00">stdint.h</text>
</a>
</g>
</g>
<!-- Node1&#45;&gt;Node3 -->
<g id="edge2" class="edge">
<title>Node1&#45;&gt;Node3</title>
<path fill="none" stroke="#63b8ff" d="M155.42,-276.09C149.05,-267.16 139.01,-252.89 130.75,-240.25 94.09,-184.15 53.35,-116.03 34.45,-84.07"/>
<polygon fill="#63b8ff" stroke="#63b8ff" points="37.02,-82.53 28.92,-75.69 30.99,-86.09 37.02,-82.53"/>
</g>
<!-- Node4 -->
<g id="node4" class="node">
<title>Node4</title>
<g id="a_node4"><a xlink:title=" ">
<polygon fill="#e0e0e0" stroke="#999999" points="208.25,-185 165.25,-185 165.25,-165.75 208.25,-165.75 208.25,-185"/>
<text text-anchor="middle" x="186.75" y="-171.5" font-family="Helvetica,sans-Serif" font-size="10.00">vector</text>
</a>
</g>
</g>
<!-- Node1&#45;&gt;Node4 -->
<g id="edge3" class="edge">
<title>Node1&#45;&gt;Node4</title>
<path fill="none" stroke="#63b8ff" d="M163.8,-276C167.81,-258.59 176.79,-219.62 182.25,-195.91"/>
<polygon fill="#63b8ff" stroke="#63b8ff" points="185.84,-196.91 184.68,-186.38 179.02,-195.34 185.84,-196.91"/>
</g>
<!-- Node5 -->
<g id="node5" class="node">
<title>Node5</title>
<g id="a_node5"><a xlink:href="v8-internal_8h.html" target="_top" xlink:title=" ">
<polygon fill="white" stroke="#666666" points="304,-129.75 235.5,-129.75 235.5,-110.5 304,-110.5 304,-129.75"/>
<text text-anchor="middle" x="269.75" y="-116.25" font-family="Helvetica,sans-Serif" font-size="10.00">v8&#45;internal.h</text>
</a>
</g>
</g>
<!-- Node1&#45;&gt;Node5 -->
<g id="edge4" class="edge">
<title>Node1&#45;&gt;Node5</title>
<path fill="none" stroke="#63b8ff" d="M158.04,-275.82C149.94,-254.5 133.23,-200.32 156.75,-165.75 171.94,-143.42 200.21,-132.26 224.67,-126.69"/>
<polygon fill="#63b8ff" stroke="#63b8ff" points="225.11,-129.97 234.22,-124.56 223.73,-123.11 225.11,-129.97"/>
</g>
<!-- Node11 -->
<g id="node11" class="node">
<title>Node11</title>
<g id="a_node11"><a xlink:href="v8config_8h.html" target="_top" xlink:title=" ">
<polygon fill="white" stroke="#666666" points="125.5,-74.5 66,-74.5 66,-55.25 125.5,-55.25 125.5,-74.5"/>
<text text-anchor="middle" x="95.75" y="-61" font-family="Helvetica,sans-Serif" font-size="10.00">v8config.h</text>
</a>
</g>
</g>
<!-- Node1&#45;&gt;Node11 -->
<g id="edge21" class="edge">
<title>Node1&#45;&gt;Node11</title>
<path fill="none" stroke="#63b8ff" d="M156.89,-275.86C152.26,-266.99 145.34,-252.98 140.75,-240.25 120.99,-185.48 106.17,-118.13 99.56,-85.48"/>
<polygon fill="#63b8ff" stroke="#63b8ff" points="102.81,-84.89 97.43,-75.76 95.94,-86.25 102.81,-84.89"/>
</g>
<!-- Node12 -->
<g id="node12" class="node">
<title>Node12</title>
<g id="a_node12"><a xlink:href="v8-local-handle_8h.html" target="_top" xlink:title=" ">
<polygon fill="white" stroke="#666666" points="351.12,-240.25 262.38,-240.25 262.38,-221 351.12,-221 351.12,-240.25"/>
<text text-anchor="middle" x="306.75" y="-226.75" font-family="Helvetica,sans-Serif" font-size="10.00">v8&#45;local&#45;handle.h</text>
</a>
</g>
</g>
<!-- Node1&#45;&gt;Node12 -->
<g id="edge14" class="edge">
<title>Node1&#45;&gt;Node12</title>
<path fill="none" stroke="#63b8ff" d="M186.35,-275.84C209.89,-267.2 245.62,-254.07 272.05,-244.37"/>
<polygon fill="#63b8ff" stroke="#63b8ff" points="272.85,-247.44 281.03,-240.7 270.44,-240.86 272.85,-247.44"/>
</g>
<!-- Node5&#45;&gt;Node2 -->
<g id="edge5" class="edge">
<title>Node5&#45;&gt;Node2</title>
<path fill="none" stroke="#63b8ff" d="M304.26,-110.33C342.52,-100.58 403.94,-84.94 442.78,-75.04"/>
<polygon fill="#63b8ff" stroke="#63b8ff" points="443.27,-78.27 452.09,-72.41 441.54,-71.49 443.27,-78.27"/>
</g>
<!-- Node5&#45;&gt;Node3 -->
<g id="edge6" class="edge">
<title>Node5&#45;&gt;Node3</title>
<path fill="none" stroke="#63b8ff" d="M235.33,-112.45C195.18,-104.56 126.57,-90.69 58.36,-74.79"/>
<polygon fill="#63b8ff" stroke="#63b8ff" points="59.4,-71.2 48.87,-72.32 57.8,-78.02 59.4,-71.2"/>
</g>
<!-- Node6 -->
<g id="node6" class="node">
<title>Node6</title>
<g id="a_node6"><a xlink:title=" ">
<polygon fill="#e0e0e0" stroke="#999999" points="293.5,-74.5 246,-74.5 246,-55.25 293.5,-55.25 293.5,-74.5"/>
<text text-anchor="middle" x="269.75" y="-61" font-family="Helvetica,sans-Serif" font-size="10.00">string.h</text>
</a>
</g>
</g>
<!-- Node5&#45;&gt;Node6 -->
<g id="edge7" class="edge">
<title>Node5&#45;&gt;Node6</title>
<path fill="none" stroke="#63b8ff" d="M269.75,-110.33C269.75,-103.67 269.75,-94.24 269.75,-85.78"/>
<polygon fill="#63b8ff" stroke="#63b8ff" points="273.25,-85.86 269.75,-75.86 266.25,-85.86 273.25,-85.86"/>
</g>
<!-- Node7 -->
<g id="node7" class="node">
<title>Node7</title>
<g id="a_node7"><a xlink:title=" ">
<polygon fill="#e0e0e0" stroke="#999999" points="356.38,-74.5 311.12,-74.5 311.12,-55.25 356.38,-55.25 356.38,-74.5"/>
<text text-anchor="middle" x="333.75" y="-61" font-family="Helvetica,sans-Serif" font-size="10.00">atomic</text>
</a>
</g>
</g>
<!-- Node5&#45;&gt;Node7 -->
<g id="edge8" class="edge">
<title>Node5&#45;&gt;Node7</title>
<path fill="none" stroke="#63b8ff" d="M280.61,-110.09C289.95,-102.32 303.64,-90.92 314.79,-81.65"/>
<polygon fill="#63b8ff" stroke="#63b8ff" points="316.61,-83.86 322.05,-74.77 312.13,-78.48 316.61,-83.86"/>
</g>
<!-- Node8 -->
<g id="node8" class="node">
<title>Node8</title>
<g id="a_node8"><a xlink:title=" ">
<polygon fill="#e0e0e0" stroke="#999999" points="189.75,-74.5 143.75,-74.5 143.75,-55.25 189.75,-55.25 189.75,-74.5"/>
<text text-anchor="middle" x="166.75" y="-61" font-family="Helvetica,sans-Serif" font-size="10.00">iterator</text>
</a>
</g>
</g>
<!-- Node5&#45;&gt;Node8 -->
<g id="edge9" class="edge">
<title>Node5&#45;&gt;Node8</title>
<path fill="none" stroke="#63b8ff" d="M252.28,-110.09C236.3,-101.83 212.4,-89.48 193.93,-79.93"/>
<polygon fill="#63b8ff" stroke="#63b8ff" points="195.8,-76.44 185.31,-74.95 192.58,-82.65 195.8,-76.44"/>
</g>
<!-- Node9 -->
<g id="node9" class="node">
<title>Node9</title>
<g id="a_node9"><a xlink:title=" ">
<polygon fill="#e0e0e0" stroke="#999999" points="182,-19.25 131.5,-19.25 131.5,0 182,0 182,-19.25"/>
<text text-anchor="middle" x="156.75" y="-5.75" font-family="Helvetica,sans-Serif" font-size="10.00">memory</text>
</a>
</g>
</g>
<!-- Node5&#45;&gt;Node9 -->
<g id="edge10" class="edge">
<title>Node5&#45;&gt;Node9</title>
<path fill="none" stroke="#63b8ff" d="M260.5,-110.25C241.55,-92.05 198.04,-50.27 173.82,-27.01"/>
<polygon fill="#63b8ff" stroke="#63b8ff" points="176.76,-25.03 167.13,-20.63 171.91,-30.08 176.76,-25.03"/>
</g>
<!-- Node10 -->
<g id="node10" class="node">
<title>Node10</title>
<g id="a_node10"><a xlink:title=" ">
<polygon fill="#e0e0e0" stroke="#999999" points="435.25,-74.5 374.25,-74.5 374.25,-55.25 435.25,-55.25 435.25,-74.5"/>
<text text-anchor="middle" x="404.75" y="-61" font-family="Helvetica,sans-Serif" font-size="10.00">type_traits</text>
</a>
</g>
</g>
<!-- Node5&#45;&gt;Node10 -->
<g id="edge11" class="edge">
<title>Node5&#45;&gt;Node10</title>
<path fill="none" stroke="#63b8ff" d="M292.65,-110.09C314.37,-101.52 347.25,-88.56 371.79,-78.88"/>
<polygon fill="#63b8ff" stroke="#63b8ff" points="372.72,-81.88 380.74,-74.95 370.15,-75.37 372.72,-81.88"/>
</g>
<!-- Node5&#45;&gt;Node11 -->
<g id="edge12" class="edge">
<title>Node5&#45;&gt;Node11</title>
<path fill="none" stroke="#63b8ff" d="M240.23,-110.09C211.49,-101.29 167.58,-87.86 135.72,-78.11"/>
<polygon fill="#63b8ff" stroke="#63b8ff" points="137,-74.53 126.41,-74.95 134.95,-81.23 137,-74.53"/>
</g>
<!-- Node11&#45;&gt;Node9 -->
<g id="edge13" class="edge">
<title>Node11&#45;&gt;Node9</title>
<path fill="none" stroke="#63b8ff" d="M106.1,-54.84C114.91,-47.15 127.8,-35.9 138.36,-26.68"/>
<polygon fill="#63b8ff" stroke="#63b8ff" points="140.32,-28.74 145.56,-19.52 135.72,-23.46 140.32,-28.74"/>
</g>
<!-- Node12&#45;&gt;Node2 -->
<g id="edge15" class="edge">
<title>Node12&#45;&gt;Node2</title>
<path fill="none" stroke="#63b8ff" d="M317.71,-220.62C328.37,-211.76 344.94,-197.75 358.75,-185 397.17,-149.53 440.22,-105.75 462.86,-82.39"/>
<polygon fill="#63b8ff" stroke="#63b8ff" points="464.8,-85.39 469.23,-75.76 459.76,-80.52 464.8,-85.39"/>
</g>
<!-- Node12&#45;&gt;Node4 -->
<g id="edge17" class="edge">
<title>Node12&#45;&gt;Node4</title>
<path fill="none" stroke="#63b8ff" d="M286.39,-220.59C267.43,-212.18 238.9,-199.52 217.23,-189.9"/>
<polygon fill="#63b8ff" stroke="#63b8ff" points="218.77,-186.31 208.21,-185.45 215.93,-192.71 218.77,-186.31"/>
</g>
<!-- Node12&#45;&gt;Node5 -->
<g id="edge20" class="edge">
<title>Node12&#45;&gt;Node5</title>
<path fill="none" stroke="#63b8ff" d="M313.2,-220.61C321.42,-207.91 333.57,-184.26 324.75,-165.75 318.86,-153.39 307.68,-143.33 296.94,-135.92"/>
<polygon fill="#63b8ff" stroke="#63b8ff" points="299.07,-132.49 288.75,-130.1 295.32,-138.41 299.07,-132.49"/>
</g>
<!-- Node12&#45;&gt;Node10 -->
<g id="edge16" class="edge">
<title>Node12&#45;&gt;Node10</title>
<path fill="none" stroke="#63b8ff" d="M313.95,-220.65C320.91,-211.82 331.56,-197.83 339.75,-185 361.64,-150.71 383.57,-108.49 395.53,-84.63"/>
<polygon fill="#63b8ff" stroke="#63b8ff" points="399.11,-86.29 400.42,-75.78 392.84,-83.18 399.11,-86.29"/>
</g>
<!-- Node13 -->
<g id="node13" class="node">
<title>Node13</title>
<g id="a_node13"><a xlink:href="v8-handle-base_8h.html" target="_top" xlink:title=" ">
<polygon fill="white" stroke="#666666" points="315.5,-185 226,-185 226,-165.75 315.5,-165.75 315.5,-185"/>
<text text-anchor="middle" x="270.75" y="-171.5" font-family="Helvetica,sans-Serif" font-size="10.00">v8&#45;handle&#45;base.h</text>
</a>
</g>
</g>
<!-- Node12&#45;&gt;Node13 -->
<g id="edge18" class="edge">
<title>Node12&#45;&gt;Node13</title>
<path fill="none" stroke="#63b8ff" d="M300.81,-220.83C295.94,-213.63 288.89,-203.21 282.84,-194.26"/>
<polygon fill="#63b8ff" stroke="#63b8ff" points="285.32,-192.68 276.82,-186.36 279.53,-196.6 285.32,-192.68"/>
</g>
<!-- Node13&#45;&gt;Node5 -->
<g id="edge19" class="edge">
<title>Node13&#45;&gt;Node5</title>
<path fill="none" stroke="#63b8ff" d="M270.58,-165.58C270.46,-158.92 270.28,-149.49 270.12,-141.03"/>
<polygon fill="#63b8ff" stroke="#63b8ff" points="273.61,-141.04 269.92,-131.11 266.61,-141.17 273.61,-141.04"/>
</g>
</g>
</svg>
