<?xml version="1.0" encoding="UTF-8" standalone="no"?>
<!DOCTYPE svg PUBLIC "-//W3C//DTD SVG 1.1//EN"
 "http://www.w3.org/Graphics/SVG/1.1/DTD/svg11.dtd">
<!-- Generated by graphviz version 8.0.5 (20230430.1635)
 -->
<!-- Title: include/v8&#45;array&#45;buffer.h Pages: 1 -->
<svg width="1347pt" height="525pt"
 viewBox="0.00 0.00 1347.00 524.50" xmlns="http://www.w3.org/2000/svg" xmlns:xlink="http://www.w3.org/1999/xlink">
<g id="graph0" class="graph" transform="scale(1 1) rotate(0) translate(4 520.5)">
<title>include/v8&#45;array&#45;buffer.h</title>
<!-- Node1 -->
<g id="node1" class="node">
<title>Node1</title>
<g id="a_node1"><a xlink:title=" ">
<polygon fill="#999999" stroke="#666666" points="158.38,-516.5 39.62,-516.5 39.62,-497.25 158.38,-497.25 158.38,-516.5"/>
<text text-anchor="middle" x="99" y="-503" font-family="Helvetica,sans-Serif" font-size="10.00">include/v8&#45;array&#45;buffer.h</text>
</a>
</g>
</g>
<!-- Node2 -->
<g id="node2" class="node">
<title>Node2</title>
<g id="a_node2"><a xlink:title=" ">
<polygon fill="#e0e0e0" stroke="#999999" points="639.25,-74.5 588.75,-74.5 588.75,-55.25 639.25,-55.25 639.25,-74.5"/>
<text text-anchor="middle" x="614" y="-61" font-family="Helvetica,sans-Serif" font-size="10.00">stddef.h</text>
</a>
</g>
</g>
<!-- Node1&#45;&gt;Node2 -->
<g id="edge1" class="edge">
<title>Node1&#45;&gt;Node2</title>
<path fill="none" stroke="#63b8ff" d="M96.36,-496.97C91.14,-478.55 80,-434.86 80,-397.38 80,-397.38 80,-397.38 80,-340.12 80,-206.45 521.43,-147.55 551,-129.75 571.14,-117.62 589.43,-97.59 601.05,-83.19"/>
<polygon fill="#63b8ff" stroke="#63b8ff" points="604.3,-85.72 607.68,-75.68 598.77,-81.42 604.3,-85.72"/>
</g>
<!-- Node3 -->
<g id="node3" class="node">
<title>Node3</title>
<g id="a_node3"><a xlink:title=" ">
<polygon fill="#e0e0e0" stroke="#999999" points="1146.25,-19.25 1095.75,-19.25 1095.75,0 1146.25,0 1146.25,-19.25"/>
<text text-anchor="middle" x="1121" y="-5.75" font-family="Helvetica,sans-Serif" font-size="10.00">memory</text>
</a>
</g>
</g>
<!-- Node1&#45;&gt;Node3 -->
<g id="edge2" class="edge">
<title>Node1&#45;&gt;Node3</title>
<path fill="none" stroke="#63b8ff" d="M158.81,-503.82C406.5,-494.9 1339,-457.34 1339,-397.38 1339,-397.38 1339,-397.38 1339,-119.12 1339,-38.93 1219.3,-18.01 1157.3,-12.55"/>
<polygon fill="#63b8ff" stroke="#63b8ff" points="1157.68,-8.99 1147.43,-11.7 1157.13,-15.97 1157.68,-8.99"/>
</g>
<!-- Node4 -->
<g id="node4" class="node">
<title>Node4</title>
<g id="a_node4"><a xlink:href="v8-local-handle_8h.html" target="_top" xlink:title=" ">
<polygon fill="white" stroke="#666666" points="518.38,-240.25 429.62,-240.25 429.62,-221 518.38,-221 518.38,-240.25"/>
<text text-anchor="middle" x="474" y="-226.75" font-family="Helvetica,sans-Serif" font-size="10.00">v8&#45;local&#45;handle.h</text>
</a>
</g>
</g>
<!-- Node1&#45;&gt;Node4 -->
<g id="edge3" class="edge">
<title>Node1&#45;&gt;Node4</title>
<path fill="none" stroke="#63b8ff" d="M101.99,-497.01C114.19,-462.34 163.71,-334.92 251,-276.25 277.86,-258.2 361.77,-244.97 418.64,-237.78"/>
<polygon fill="#63b8ff" stroke="#63b8ff" points="418.78,-241.17 428.28,-236.47 417.93,-234.22 418.78,-241.17"/>
</g>
<!-- Node15 -->
<g id="node15" class="node">
<title>Node15</title>
<g id="a_node15"><a xlink:href="v8config_8h.html" target="_top" xlink:title=" ">
<polygon fill="white" stroke="#666666" points="333.75,-74.5 274.25,-74.5 274.25,-55.25 333.75,-55.25 333.75,-74.5"/>
<text text-anchor="middle" x="304" y="-61" font-family="Helvetica,sans-Serif" font-size="10.00">v8config.h</text>
</a>
</g>
</g>
<!-- Node1&#45;&gt;Node15 -->
<g id="edge72" class="edge">
<title>Node1&#45;&gt;Node15</title>
<path fill="none" stroke="#63b8ff" d="M81.3,-496.87C52.82,-480.97 0,-445.06 0,-397.38 0,-397.38 0,-397.38 0,-174.38 0,-119.12 180.36,-84.62 263.24,-71.68"/>
<polygon fill="#63b8ff" stroke="#63b8ff" points="263.66,-75 273.02,-70.03 262.61,-68.08 263.66,-75"/>
</g>
<!-- Node16 -->
<g id="node16" class="node">
<title>Node16</title>
<g id="a_node16"><a xlink:href="v8-memory-span_8h.html" target="_top" xlink:title=" ">
<polygon fill="white" stroke="#666666" points="541.75,-129.75 446.25,-129.75 446.25,-110.5 541.75,-110.5 541.75,-129.75"/>
<text text-anchor="middle" x="494" y="-116.25" font-family="Helvetica,sans-Serif" font-size="10.00">v8&#45;memory&#45;span.h</text>
</a>
</g>
</g>
<!-- Node1&#45;&gt;Node16 -->
<g id="edge21" class="edge">
<title>Node1&#45;&gt;Node16</title>
<path fill="none" stroke="#63b8ff" d="M90.34,-496.86C74.4,-479.26 42,-438.44 42,-397.38 42,-397.38 42,-397.38 42,-340.12 42,-251.66 63,-212.67 138,-165.75 186.24,-135.58 346.92,-125.74 435,-122.58"/>
<polygon fill="#63b8ff" stroke="#63b8ff" points="435.01,-126.05 444.89,-122.21 434.78,-119.06 435.01,-126.05"/>
</g>
<!-- Node18 -->
<g id="node18" class="node">
<title>Node18</title>
<g id="a_node18"><a xlink:href="v8-object_8h.html" target="_top" xlink:title=" ">
<polygon fill="white" stroke="#666666" points="595.62,-461.25 532.38,-461.25 532.38,-442 595.62,-442 595.62,-461.25"/>
<text text-anchor="middle" x="564" y="-447.75" font-family="Helvetica,sans-Serif" font-size="10.00">v8&#45;object.h</text>
</a>
</g>
</g>
<!-- Node1&#45;&gt;Node18 -->
<g id="edge27" class="edge">
<title>Node1&#45;&gt;Node18</title>
<path fill="none" stroke="#63b8ff" d="M158.84,-499.02C254.05,-488.12 437.76,-467.08 521.07,-457.54"/>
<polygon fill="#63b8ff" stroke="#63b8ff" points="521.36,-460.92 530.9,-456.3 520.56,-453.96 521.36,-460.92"/>
</g>
<!-- Node4&#45;&gt;Node2 -->
<g id="edge4" class="edge">
<title>Node4&#45;&gt;Node2</title>
<path fill="none" stroke="#63b8ff" d="M465.95,-220.51C455.27,-207.29 439.19,-182.53 452,-165.75 488.91,-117.42 537.45,-168.88 584,-129.75 597.62,-118.3 605.44,-99.3 609.66,-84.98"/>
<polygon fill="#63b8ff" stroke="#63b8ff" points="613.19,-86.31 612.31,-75.75 606.41,-84.55 613.19,-86.31"/>
</g>
<!-- Node5 -->
<g id="node5" class="node">
<title>Node5</title>
<g id="a_node5"><a xlink:title=" ">
<polygon fill="#e0e0e0" stroke="#999999" points="752.5,-74.5 691.5,-74.5 691.5,-55.25 752.5,-55.25 752.5,-74.5"/>
<text text-anchor="middle" x="722" y="-61" font-family="Helvetica,sans-Serif" font-size="10.00">type_traits</text>
</a>
</g>
</g>
<!-- Node4&#45;&gt;Node5 -->
<g id="edge5" class="edge">
<title>Node4&#45;&gt;Node5</title>
<path fill="none" stroke="#63b8ff" d="M487.69,-220.59C528.34,-193.75 648.66,-114.3 699.22,-80.92"/>
<polygon fill="#63b8ff" stroke="#63b8ff" points="700.94,-83.32 707.36,-74.88 697.08,-77.47 700.94,-83.32"/>
</g>
<!-- Node6 -->
<g id="node6" class="node">
<title>Node6</title>
<g id="a_node6"><a xlink:title=" ">
<polygon fill="#e0e0e0" stroke="#999999" points="503.5,-185 460.5,-185 460.5,-165.75 503.5,-165.75 503.5,-185"/>
<text text-anchor="middle" x="482" y="-171.5" font-family="Helvetica,sans-Serif" font-size="10.00">vector</text>
</a>
</g>
</g>
<!-- Node4&#45;&gt;Node6 -->
<g id="edge6" class="edge">
<title>Node4&#45;&gt;Node6</title>
<path fill="none" stroke="#63b8ff" d="M475.32,-220.83C476.33,-214.09 477.77,-204.52 479.05,-195.99"/>
<polygon fill="#63b8ff" stroke="#63b8ff" points="482.63,-196.77 480.65,-186.36 475.7,-195.73 482.63,-196.77"/>
</g>
<!-- Node7 -->
<g id="node7" class="node">
<title>Node7</title>
<g id="a_node7"><a xlink:href="v8-handle-base_8h.html" target="_top" xlink:title=" ">
<polygon fill="white" stroke="#666666" points="930.75,-185 841.25,-185 841.25,-165.75 930.75,-165.75 930.75,-185"/>
<text text-anchor="middle" x="886" y="-171.5" font-family="Helvetica,sans-Serif" font-size="10.00">v8&#45;handle&#45;base.h</text>
</a>
</g>
</g>
<!-- Node4&#45;&gt;Node7 -->
<g id="edge7" class="edge">
<title>Node4&#45;&gt;Node7</title>
<path fill="none" stroke="#63b8ff" d="M518.85,-224.6C584.88,-217.08 712.41,-202.1 830.27,-185.35"/>
<polygon fill="#63b8ff" stroke="#63b8ff" points="830.51,-188.71 839.91,-183.83 829.52,-181.78 830.51,-188.71"/>
</g>
<!-- Node8 -->
<g id="node8" class="node">
<title>Node8</title>
<g id="a_node8"><a xlink:href="v8-internal_8h.html" target="_top" xlink:title=" ">
<polygon fill="white" stroke="#666666" points="1031.25,-129.75 962.75,-129.75 962.75,-110.5 1031.25,-110.5 1031.25,-129.75"/>
<text text-anchor="middle" x="997" y="-116.25" font-family="Helvetica,sans-Serif" font-size="10.00">v8&#45;internal.h</text>
</a>
</g>
</g>
<!-- Node4&#45;&gt;Node8 -->
<g id="edge20" class="edge">
<title>Node4&#45;&gt;Node8</title>
<path fill="none" stroke="#63b8ff" d="M518.59,-225.57C634.25,-215.02 935.32,-187.37 940,-185 960.23,-174.75 976.59,-154.03 986.51,-138.96"/>
<polygon fill="#63b8ff" stroke="#63b8ff" points="989.75,-141.38 992.08,-131.04 983.82,-137.67 989.75,-141.38"/>
</g>
<!-- Node7&#45;&gt;Node8 -->
<g id="edge8" class="edge">
<title>Node7&#45;&gt;Node8</title>
<path fill="none" stroke="#63b8ff" d="M904.83,-165.34C922.21,-157 948.28,-144.5 968.26,-134.91"/>
<polygon fill="#63b8ff" stroke="#63b8ff" points="969.58,-137.68 977.08,-130.2 966.55,-131.37 969.58,-137.68"/>
</g>
<!-- Node8&#45;&gt;Node2 -->
<g id="edge9" class="edge">
<title>Node8&#45;&gt;Node2</title>
<path fill="none" stroke="#63b8ff" d="M962.34,-114.31C890,-104.25 723.61,-81.11 650.07,-70.89"/>
<polygon fill="#63b8ff" stroke="#63b8ff" points="650.89,-67.33 640.5,-69.42 649.93,-74.26 650.89,-67.33"/>
</g>
<!-- Node8&#45;&gt;Node3 -->
<g id="edge15" class="edge">
<title>Node8&#45;&gt;Node3</title>
<path fill="none" stroke="#63b8ff" d="M985.45,-110.19C970.31,-97.4 947.22,-73.4 961,-55.25 975.89,-35.64 1042.09,-22.34 1084.54,-15.65"/>
<polygon fill="#63b8ff" stroke="#63b8ff" points="1084.93,-18.98 1094.29,-14.02 1083.88,-12.06 1084.93,-18.98"/>
</g>
<!-- Node8&#45;&gt;Node5 -->
<g id="edge17" class="edge">
<title>Node8&#45;&gt;Node5</title>
<path fill="none" stroke="#63b8ff" d="M962.45,-112.43C911.84,-102.63 817.69,-84.4 763.43,-73.9"/>
<polygon fill="#63b8ff" stroke="#63b8ff" points="764.3,-70.31 753.81,-71.84 762.97,-77.18 764.3,-70.31"/>
</g>
<!-- Node9 -->
<g id="node9" class="node">
<title>Node9</title>
<g id="a_node9"><a xlink:title=" ">
<polygon fill="#e0e0e0" stroke="#999999" points="1209.75,-74.5 1162.25,-74.5 1162.25,-55.25 1209.75,-55.25 1209.75,-74.5"/>
<text text-anchor="middle" x="1186" y="-61" font-family="Helvetica,sans-Serif" font-size="10.00">stdint.h</text>
</a>
</g>
</g>
<!-- Node8&#45;&gt;Node9 -->
<g id="edge10" class="edge">
<title>Node8&#45;&gt;Node9</title>
<path fill="none" stroke="#63b8ff" d="M1029.06,-110.09C1063.13,-100.49 1116.81,-85.37 1151.71,-75.54"/>
<polygon fill="#63b8ff" stroke="#63b8ff" points="1152.22,-78.75 1160.9,-72.67 1150.32,-72.01 1152.22,-78.75"/>
</g>
<!-- Node10 -->
<g id="node10" class="node">
<title>Node10</title>
<g id="a_node10"><a xlink:title=" ">
<polygon fill="#e0e0e0" stroke="#999999" points="1143.75,-74.5 1096.25,-74.5 1096.25,-55.25 1143.75,-55.25 1143.75,-74.5"/>
<text text-anchor="middle" x="1120" y="-61" font-family="Helvetica,sans-Serif" font-size="10.00">string.h</text>
</a>
</g>
</g>
<!-- Node8&#45;&gt;Node10 -->
<g id="edge11" class="edge">
<title>Node8&#45;&gt;Node10</title>
<path fill="none" stroke="#63b8ff" d="M1017.87,-110.09C1037.39,-101.64 1066.81,-88.9 1089.06,-79.27"/>
<polygon fill="#63b8ff" stroke="#63b8ff" points="1090.25,-82.14 1098.03,-74.95 1087.46,-75.71 1090.25,-82.14"/>
</g>
<!-- Node11 -->
<g id="node11" class="node">
<title>Node11</title>
<g id="a_node11"><a xlink:title=" ">
<polygon fill="#e0e0e0" stroke="#999999" points="1272.62,-74.5 1227.38,-74.5 1227.38,-55.25 1272.62,-55.25 1272.62,-74.5"/>
<text text-anchor="middle" x="1250" y="-61" font-family="Helvetica,sans-Serif" font-size="10.00">atomic</text>
</a>
</g>
</g>
<!-- Node8&#45;&gt;Node11 -->
<g id="edge12" class="edge">
<title>Node8&#45;&gt;Node11</title>
<path fill="none" stroke="#63b8ff" d="M1031.4,-113.02C1073.13,-105.43 1145.82,-91.65 1216.6,-74.95"/>
<polygon fill="#63b8ff" stroke="#63b8ff" points="1217.11,-78.19 1226.03,-72.47 1215.49,-71.38 1217.11,-78.19"/>
</g>
<!-- Node12 -->
<g id="node12" class="node">
<title>Node12</title>
<g id="a_node12"><a xlink:title=" ">
<polygon fill="#e0e0e0" stroke="#999999" points="571,-74.5 525,-74.5 525,-55.25 571,-55.25 571,-74.5"/>
<text text-anchor="middle" x="548" y="-61" font-family="Helvetica,sans-Serif" font-size="10.00">iterator</text>
</a>
</g>
</g>
<!-- Node8&#45;&gt;Node12 -->
<g id="edge13" class="edge">
<title>Node8&#45;&gt;Node12</title>
<path fill="none" stroke="#63b8ff" d="M962.41,-117.26C892.31,-113.09 728.37,-101.34 581.84,-74.57"/>
<polygon fill="#63b8ff" stroke="#63b8ff" points="582.79,-71 572.32,-72.61 581.51,-77.88 582.79,-71"/>
</g>
<!-- Node13 -->
<g id="node13" class="node">
<title>Node13</title>
<g id="a_node13"><a xlink:title=" ">
<polygon fill="#e0e0e0" stroke="#999999" points="1009.62,-74.5 970.38,-74.5 970.38,-55.25 1009.62,-55.25 1009.62,-74.5"/>
<text text-anchor="middle" x="990" y="-61" font-family="Helvetica,sans-Serif" font-size="10.00">limits</text>
</a>
</g>
</g>
<!-- Node8&#45;&gt;Node13 -->
<g id="edge14" class="edge">
<title>Node8&#45;&gt;Node13</title>
<path fill="none" stroke="#63b8ff" d="M995.84,-110.33C994.96,-103.59 993.7,-94.02 992.58,-85.49"/>
<polygon fill="#63b8ff" stroke="#63b8ff" points="995.95,-85.32 991.18,-75.86 989.01,-86.23 995.95,-85.32"/>
</g>
<!-- Node14 -->
<g id="node14" class="node">
<title>Node14</title>
<g id="a_node14"><a xlink:title=" ">
<polygon fill="#e0e0e0" stroke="#999999" points="1077.88,-74.5 1028.12,-74.5 1028.12,-55.25 1077.88,-55.25 1077.88,-74.5"/>
<text text-anchor="middle" x="1053" y="-61" font-family="Helvetica,sans-Serif" font-size="10.00">optional</text>
</a>
</g>
</g>
<!-- Node8&#45;&gt;Node14 -->
<g id="edge16" class="edge">
<title>Node8&#45;&gt;Node14</title>
<path fill="none" stroke="#63b8ff" d="M1006.5,-110.09C1014.51,-102.47 1026.18,-91.37 1035.83,-82.2"/>
<polygon fill="#63b8ff" stroke="#63b8ff" points="1037.81,-85.2 1042.64,-75.77 1032.98,-80.13 1037.81,-85.2"/>
</g>
<!-- Node8&#45;&gt;Node15 -->
<g id="edge18" class="edge">
<title>Node8&#45;&gt;Node15</title>
<path fill="none" stroke="#63b8ff" d="M962.63,-116.48C846.65,-107.57 469.93,-78.63 344.81,-69.01"/>
<polygon fill="#63b8ff" stroke="#63b8ff" points="345.43,-65.47 335.19,-68.19 344.89,-72.45 345.43,-65.47"/>
</g>
<!-- Node15&#45;&gt;Node3 -->
<g id="edge19" class="edge">
<title>Node15&#45;&gt;Node3</title>
<path fill="none" stroke="#63b8ff" d="M334.05,-61.92C460.19,-53.69 946.81,-21.98 1084.51,-13"/>
<polygon fill="#63b8ff" stroke="#63b8ff" points="1084.53,-16.44 1094.28,-12.3 1084.07,-9.46 1084.53,-16.44"/>
</g>
<!-- Node16&#45;&gt;Node2 -->
<g id="edge22" class="edge">
<title>Node16&#45;&gt;Node2</title>
<path fill="none" stroke="#63b8ff" d="M514.36,-110.09C533.32,-101.68 561.85,-89.02 583.52,-79.4"/>
<polygon fill="#63b8ff" stroke="#63b8ff" points="584.82,-82.21 592.54,-74.95 581.98,-75.81 584.82,-82.21"/>
</g>
<!-- Node16&#45;&gt;Node5 -->
<g id="edge25" class="edge">
<title>Node16&#45;&gt;Node5</title>
<path fill="none" stroke="#63b8ff" d="M532.94,-110.03C574.03,-100.43 638.56,-85.36 680.57,-75.55"/>
<polygon fill="#63b8ff" stroke="#63b8ff" points="681.32,-78.74 690.27,-73.05 679.73,-71.92 681.32,-78.74"/>
</g>
<!-- Node16&#45;&gt;Node12 -->
<g id="edge24" class="edge">
<title>Node16&#45;&gt;Node12</title>
<path fill="none" stroke="#63b8ff" d="M502.92,-110.33C510.61,-102.75 521.93,-91.59 531.3,-82.35"/>
<polygon fill="#63b8ff" stroke="#63b8ff" points="533.23,-85.37 537.89,-75.86 528.31,-80.39 533.23,-85.37"/>
</g>
<!-- Node16&#45;&gt;Node15 -->
<g id="edge26" class="edge">
<title>Node16&#45;&gt;Node15</title>
<path fill="none" stroke="#63b8ff" d="M461.77,-110.09C429.43,-101.03 379.54,-87.05 344.54,-77.24"/>
<polygon fill="#63b8ff" stroke="#63b8ff" points="345.76,-73.66 335.19,-74.34 343.87,-80.4 345.76,-73.66"/>
</g>
<!-- Node17 -->
<g id="node17" class="node">
<title>Node17</title>
<g id="a_node17"><a xlink:title=" ">
<polygon fill="#e0e0e0" stroke="#999999" points="506.5,-74.5 469.5,-74.5 469.5,-55.25 506.5,-55.25 506.5,-74.5"/>
<text text-anchor="middle" x="488" y="-61" font-family="Helvetica,sans-Serif" font-size="10.00">array</text>
</a>
</g>
</g>
<!-- Node16&#45;&gt;Node17 -->
<g id="edge23" class="edge">
<title>Node16&#45;&gt;Node17</title>
<path fill="none" stroke="#63b8ff" d="M493.01,-110.33C492.26,-103.67 491.2,-94.24 490.24,-85.78"/>
<polygon fill="#63b8ff" stroke="#63b8ff" points="493.61,-85.4 489.01,-75.86 486.65,-86.19 493.61,-85.4"/>
</g>
<!-- Node18&#45;&gt;Node4 -->
<g id="edge29" class="edge">
<title>Node18&#45;&gt;Node4</title>
<path fill="none" stroke="#63b8ff" d="M566.54,-441.55C571.8,-421.05 582.15,-370 567,-331.5 552.82,-295.46 518.82,-264.72 496.11,-247.21"/>
<polygon fill="#63b8ff" stroke="#63b8ff" points="498.55,-243.92 488.44,-240.75 494.36,-249.53 498.55,-243.92"/>
</g>
<!-- Node18&#45;&gt;Node8 -->
<g id="edge28" class="edge">
<title>Node18&#45;&gt;Node8</title>
<path fill="none" stroke="#63b8ff" d="M595.84,-448.65C725.38,-440.22 1206,-404.72 1206,-342.12 1206,-342.12 1206,-342.12 1206,-284.88 1206,-201.21 1100.94,-153.87 1039.8,-133.4"/>
<polygon fill="#63b8ff" stroke="#63b8ff" points="1041.25,-129.87 1030.66,-130.12 1039.09,-136.53 1041.25,-129.87"/>
</g>
<!-- Node18&#45;&gt;Node15 -->
<g id="edge71" class="edge">
<title>Node18&#45;&gt;Node15</title>
<path fill="none" stroke="#63b8ff" d="M532.14,-447.64C460.05,-439.01 284.75,-406.97 208,-295.5 161.27,-227.64 162.3,-169.32 220,-110.5 233.41,-96.83 251.9,-86.39 268.12,-79.06"/>
<polygon fill="#63b8ff" stroke="#63b8ff" points="269.04,-82.04 276.86,-74.89 266.29,-75.61 269.04,-82.04"/>
</g>
<!-- Node19 -->
<g id="node19" class="node">
<title>Node19</title>
<g id="a_node19"><a xlink:href="v8-maybe_8h.html" target="_top" xlink:title=" ">
<polygon fill="white" stroke="#666666" points="679.75,-295.5 614.25,-295.5 614.25,-276.25 679.75,-276.25 679.75,-295.5"/>
<text text-anchor="middle" x="647" y="-282" font-family="Helvetica,sans-Serif" font-size="10.00">v8&#45;maybe.h</text>
</a>
</g>
</g>
<!-- Node18&#45;&gt;Node19 -->
<g id="edge30" class="edge">
<title>Node18&#45;&gt;Node19</title>
<path fill="none" stroke="#63b8ff" d="M572.61,-441.66C580.53,-433.05 592.19,-419.42 600,-406 619.23,-372.98 633.82,-330.6 641.34,-306.31"/>
<polygon fill="#63b8ff" stroke="#63b8ff" points="644.92,-307.55 644.45,-296.97 638.22,-305.54 644.92,-307.55"/>
</g>
<!-- Node21 -->
<g id="node21" class="node">
<title>Node21</title>
<g id="a_node21"><a xlink:href="v8-persistent-handle_8h.html" target="_top" xlink:title=" ">
<polygon fill="white" stroke="#666666" points="371.62,-295.5 260.38,-295.5 260.38,-276.25 371.62,-276.25 371.62,-295.5"/>
<text text-anchor="middle" x="316" y="-282" font-family="Helvetica,sans-Serif" font-size="10.00">v8&#45;persistent&#45;handle.h</text>
</a>
</g>
</g>
<!-- Node18&#45;&gt;Node21 -->
<g id="edge35" class="edge">
<title>Node18&#45;&gt;Node21</title>
<path fill="none" stroke="#63b8ff" d="M532.12,-445C503.02,-438.81 459.69,-426.85 427,-406 383.89,-378.5 346.28,-330.39 327.93,-304.52"/>
<polygon fill="#63b8ff" stroke="#63b8ff" points="330.44,-303 321.86,-296.78 324.69,-307 330.44,-303"/>
</g>
<!-- Node23 -->
<g id="node23" class="node">
<title>Node23</title>
<g id="a_node23"><a xlink:href="v8-primitive_8h.html" target="_top" xlink:title=" ">
<polygon fill="white" stroke="#666666" points="509.88,-406 436.12,-406 436.12,-386.75 509.88,-386.75 509.88,-406"/>
<text text-anchor="middle" x="473" y="-392.5" font-family="Helvetica,sans-Serif" font-size="10.00">v8&#45;primitive.h</text>
</a>
</g>
</g>
<!-- Node18&#45;&gt;Node23 -->
<g id="edge41" class="edge">
<title>Node18&#45;&gt;Node23</title>
<path fill="none" stroke="#63b8ff" d="M548.56,-441.59C534.71,-433.48 514.11,-421.43 497.92,-411.96"/>
<polygon fill="#63b8ff" stroke="#63b8ff" points="499.91,-408.48 489.51,-406.45 496.38,-414.52 499.91,-408.48"/>
</g>
<!-- Node25 -->
<g id="node25" class="node">
<title>Node25</title>
<g id="a_node25"><a xlink:href="v8-value_8h.html" target="_top" xlink:title=" ">
<polygon fill="white" stroke="#666666" points="558.12,-350.75 497.88,-350.75 497.88,-331.5 558.12,-331.5 558.12,-350.75"/>
<text text-anchor="middle" x="528" y="-337.25" font-family="Helvetica,sans-Serif" font-size="10.00">v8&#45;value.h</text>
</a>
</g>
</g>
<!-- Node18&#45;&gt;Node25 -->
<g id="edge70" class="edge">
<title>Node18&#45;&gt;Node25</title>
<path fill="none" stroke="#63b8ff" d="M561.05,-441.75C555.25,-424.26 542.23,-385.02 534.37,-361.34"/>
<polygon fill="#63b8ff" stroke="#63b8ff" points="537.46,-360.52 530.99,-352.13 530.81,-362.72 537.46,-360.52"/>
</g>
<!-- Node26 -->
<g id="node26" class="node">
<title>Node26</title>
<g id="a_node26"><a xlink:href="v8-sandbox_8h.html" target="_top" xlink:title=" ">
<polygon fill="white" stroke="#666666" points="823.5,-185 750.5,-185 750.5,-165.75 823.5,-165.75 823.5,-185"/>
<text text-anchor="middle" x="787" y="-171.5" font-family="Helvetica,sans-Serif" font-size="10.00">v8&#45;sandbox.h</text>
</a>
</g>
</g>
<!-- Node18&#45;&gt;Node26 -->
<g id="edge54" class="edge">
<title>Node18&#45;&gt;Node26</title>
<path fill="none" stroke="#63b8ff" d="M595.92,-444.82C672.64,-428.8 864.45,-375.85 911,-240.25 913.78,-232.16 915.92,-228 911,-221 901.75,-207.84 865.25,-195.67 834.23,-187.38"/>
<polygon fill="#63b8ff" stroke="#63b8ff" points="835.53,-183.84 824.97,-184.72 833.77,-190.62 835.53,-183.84"/>
</g>
<!-- Node28 -->
<g id="node28" class="node">
<title>Node28</title>
<g id="a_node28"><a xlink:href="v8-traced-handle_8h.html" target="_top" xlink:title=" ">
<polygon fill="white" stroke="#666666" points="858.75,-295.5 763.25,-295.5 763.25,-276.25 858.75,-276.25 858.75,-295.5"/>
<text text-anchor="middle" x="811" y="-282" font-family="Helvetica,sans-Serif" font-size="10.00">v8&#45;traced&#45;handle.h</text>
</a>
</g>
</g>
<!-- Node18&#45;&gt;Node28 -->
<g id="edge58" class="edge">
<title>Node18&#45;&gt;Node28</title>
<path fill="none" stroke="#63b8ff" d="M577.63,-441.59C618.12,-414.75 737.95,-335.3 788.31,-301.92"/>
<polygon fill="#63b8ff" stroke="#63b8ff" points="790.01,-304.33 796.41,-295.88 786.14,-298.49 790.01,-304.33"/>
</g>
<!-- Node19&#45;&gt;Node5 -->
<g id="edge31" class="edge">
<title>Node19&#45;&gt;Node5</title>
<path fill="none" stroke="#63b8ff" d="M647.89,-276.06C649.3,-263.61 652.45,-240.24 658,-221 672.69,-170.09 698.81,-113.23 712.7,-84.56"/>
<polygon fill="#63b8ff" stroke="#63b8ff" points="716.27,-86.24 717.53,-75.72 709.99,-83.15 716.27,-86.24"/>
</g>
<!-- Node19&#45;&gt;Node8 -->
<g id="edge33" class="edge">
<title>Node19&#45;&gt;Node8</title>
<path fill="none" stroke="#63b8ff" d="M648.62,-276.11C651.75,-261.92 660.05,-234.16 679,-221 739.95,-178.66 961.43,-240.23 1011,-185 1022.1,-172.63 1015.92,-153.5 1008.6,-139.41"/>
<polygon fill="#63b8ff" stroke="#63b8ff" points="1011.32,-138.11 1003.29,-131.2 1005.25,-141.61 1011.32,-138.11"/>
</g>
<!-- Node19&#45;&gt;Node15 -->
<g id="edge34" class="edge">
<title>Node19&#45;&gt;Node15</title>
<path fill="none" stroke="#63b8ff" d="M639.62,-275.78C620.93,-253.39 569.22,-195.27 513,-165.75 453.44,-134.48 424.37,-163.19 366,-129.75 345.76,-118.15 327.83,-98.03 316.53,-83.46"/>
<polygon fill="#63b8ff" stroke="#63b8ff" points="318.88,-81.76 310.1,-75.84 313.27,-85.95 318.88,-81.76"/>
</g>
<!-- Node20 -->
<g id="node20" class="node">
<title>Node20</title>
<g id="a_node20"><a xlink:title=" ">
<polygon fill="#e0e0e0" stroke="#999999" points="726.25,-240.25 687.75,-240.25 687.75,-221 726.25,-221 726.25,-240.25"/>
<text text-anchor="middle" x="707" y="-226.75" font-family="Helvetica,sans-Serif" font-size="10.00">utility</text>
</a>
</g>
</g>
<!-- Node19&#45;&gt;Node20 -->
<g id="edge32" class="edge">
<title>Node19&#45;&gt;Node20</title>
<path fill="none" stroke="#63b8ff" d="M657.18,-275.84C665.85,-268.15 678.52,-256.9 688.92,-247.68"/>
<polygon fill="#63b8ff" stroke="#63b8ff" points="690.82,-250.78 695.97,-241.52 686.17,-245.54 690.82,-250.78"/>
</g>
<!-- Node21&#45;&gt;Node4 -->
<g id="edge37" class="edge">
<title>Node21&#45;&gt;Node4</title>
<path fill="none" stroke="#63b8ff" d="M342.8,-275.84C368.68,-267.12 408.08,-253.84 436.95,-244.11"/>
<polygon fill="#63b8ff" stroke="#63b8ff" points="437.71,-247.21 446.07,-240.7 435.47,-240.58 437.71,-247.21"/>
</g>
<!-- Node21&#45;&gt;Node8 -->
<g id="edge36" class="edge">
<title>Node21&#45;&gt;Node8</title>
<path fill="none" stroke="#63b8ff" d="M359.57,-275.75C424.4,-262.4 550.21,-237.35 658,-221 726.13,-210.67 909.82,-224.91 966,-185 980.75,-174.52 988.78,-155.06 992.94,-140.37"/>
<polygon fill="#63b8ff" stroke="#63b8ff" points="996.53,-141.41 995.51,-130.86 989.73,-139.75 996.53,-141.41"/>
</g>
<!-- Node21&#45;&gt;Node15 -->
<g id="edge40" class="edge">
<title>Node21&#45;&gt;Node15</title>
<path fill="none" stroke="#63b8ff" d="M290.84,-275.89C275.17,-268.82 256.27,-257.29 247,-240.25 217.76,-186.52 264.47,-115.28 289.63,-83.03"/>
<polygon fill="#63b8ff" stroke="#63b8ff" points="292.81,-85.66 296.36,-75.67 287.36,-81.27 292.81,-85.66"/>
</g>
<!-- Node22 -->
<g id="node22" class="node">
<title>Node22</title>
<g id="a_node22"><a xlink:href="v8-weak-callback-info_8h.html" target="_top" xlink:title=" ">
<polygon fill="white" stroke="#666666" points="374,-240.25 256,-240.25 256,-221 374,-221 374,-240.25"/>
<text text-anchor="middle" x="315" y="-226.75" font-family="Helvetica,sans-Serif" font-size="10.00">v8&#45;weak&#45;callback&#45;info.h</text>
</a>
</g>
</g>
<!-- Node21&#45;&gt;Node22 -->
<g id="edge38" class="edge">
<title>Node21&#45;&gt;Node22</title>
<path fill="none" stroke="#63b8ff" d="M315.83,-276.08C315.71,-269.42 315.53,-259.99 315.37,-251.53"/>
<polygon fill="#63b8ff" stroke="#63b8ff" points="318.86,-251.54 315.17,-241.61 311.86,-251.67 318.86,-251.54"/>
</g>
<!-- Node22&#45;&gt;Node15 -->
<g id="edge39" class="edge">
<title>Node22&#45;&gt;Node15</title>
<path fill="none" stroke="#63b8ff" d="M310.89,-220.72C302.27,-200.99 283.63,-152.07 290,-110.5 291.31,-101.98 293.94,-92.85 296.57,-85.09"/>
<polygon fill="#63b8ff" stroke="#63b8ff" points="300.14,-86.51 300.27,-75.91 293.56,-84.11 300.14,-86.51"/>
</g>
<!-- Node23&#45;&gt;Node4 -->
<g id="edge46" class="edge">
<title>Node23&#45;&gt;Node4</title>
<path fill="none" stroke="#63b8ff" d="M473.05,-386.57C473.21,-361.14 473.66,-287.1 473.88,-251.37"/>
<polygon fill="#63b8ff" stroke="#63b8ff" points="477.38,-251.49 473.95,-241.47 470.38,-251.45 477.38,-251.49"/>
</g>
<!-- Node23&#45;&gt;Node8 -->
<g id="edge45" class="edge">
<title>Node23&#45;&gt;Node8</title>
<path fill="none" stroke="#63b8ff" d="M510.36,-396.01C610.11,-395.7 886.01,-381.37 1046,-240.25 1073.16,-216.29 1097.5,-196.88 1079,-165.75 1070.37,-151.23 1055.19,-141.14 1040.21,-134.28"/>
<polygon fill="#63b8ff" stroke="#63b8ff" points="1042.05,-130.84 1031.47,-130.22 1039.35,-137.3 1042.05,-130.84"/>
</g>
<!-- Node23&#45;&gt;Node15 -->
<g id="edge53" class="edge">
<title>Node23&#45;&gt;Node15</title>
<path fill="none" stroke="#63b8ff" d="M436.02,-389.71C383.24,-379.76 286.36,-354.33 229,-295.5 171.52,-236.54 185.67,-173.24 239,-110.5 249.38,-98.28 263.88,-87.9 276.54,-80.24"/>
<polygon fill="#63b8ff" stroke="#63b8ff" points="277.85,-82.94 284.77,-74.92 274.36,-76.88 277.85,-82.94"/>
</g>
<!-- Node24 -->
<g id="node24" class="node">
<title>Node24</title>
<g id="a_node24"><a xlink:href="v8-data_8h.html" target="_top" xlink:title=" ">
<polygon fill="white" stroke="#666666" points="445.88,-295.5 390.12,-295.5 390.12,-276.25 445.88,-276.25 445.88,-295.5"/>
<text text-anchor="middle" x="418" y="-282" font-family="Helvetica,sans-Serif" font-size="10.00">v8&#45;data.h</text>
</a>
</g>
</g>
<!-- Node23&#45;&gt;Node24 -->
<g id="edge42" class="edge">
<title>Node23&#45;&gt;Node24</title>
<path fill="none" stroke="#63b8ff" d="M468.5,-386.5C459.56,-368.85 439.38,-329.05 427.41,-305.45"/>
<polygon fill="#63b8ff" stroke="#63b8ff" points="430.21,-304.21 422.56,-296.88 423.96,-307.38 430.21,-304.21"/>
</g>
<!-- Node23&#45;&gt;Node25 -->
<g id="edge47" class="edge">
<title>Node23&#45;&gt;Node25</title>
<path fill="none" stroke="#63b8ff" d="M482.08,-386.58C489.92,-379 501.44,-367.84 510.99,-358.6"/>
<polygon fill="#63b8ff" stroke="#63b8ff" points="512.97,-361.58 517.72,-352.11 508.1,-356.55 512.97,-361.58"/>
</g>
<!-- Node24&#45;&gt;Node4 -->
<g id="edge43" class="edge">
<title>Node24&#45;&gt;Node4</title>
<path fill="none" stroke="#63b8ff" d="M427.5,-275.84C435.51,-268.22 447.18,-257.12 456.83,-247.95"/>
<polygon fill="#63b8ff" stroke="#63b8ff" points="458.81,-250.95 463.64,-241.52 453.98,-245.88 458.81,-250.95"/>
</g>
<!-- Node24&#45;&gt;Node15 -->
<g id="edge44" class="edge">
<title>Node24&#45;&gt;Node15</title>
<path fill="none" stroke="#63b8ff" d="M413.36,-276.13C406.76,-263.77 394.22,-240.51 383,-221 359.4,-179.95 348.64,-172.37 328,-129.75 320.96,-115.22 314.62,-98.06 310.22,-85.18"/>
<polygon fill="#63b8ff" stroke="#63b8ff" points="313.24,-84.16 306.77,-75.77 306.59,-86.36 313.24,-84.16"/>
</g>
<!-- Node25&#45;&gt;Node4 -->
<g id="edge50" class="edge">
<title>Node25&#45;&gt;Node4</title>
<path fill="none" stroke="#63b8ff" d="M523.58,-331.25C514.8,-313.6 494.99,-273.8 483.24,-250.2"/>
<polygon fill="#63b8ff" stroke="#63b8ff" points="486.07,-249.02 478.48,-241.63 479.8,-252.14 486.07,-249.02"/>
</g>
<!-- Node25&#45;&gt;Node8 -->
<g id="edge49" class="edge">
<title>Node25&#45;&gt;Node8</title>
<path fill="none" stroke="#63b8ff" d="M558.62,-339.12C618.95,-336.47 756.93,-327.18 868,-295.5 964.17,-268.07 1019.18,-274.4 1064,-185 1074.43,-164.19 1051.62,-146.49 1029.84,-135.03"/>
<polygon fill="#63b8ff" stroke="#63b8ff" points="1031.54,-131.48 1021.02,-130.22 1028.46,-137.76 1031.54,-131.48"/>
</g>
<!-- Node25&#45;&gt;Node15 -->
<g id="edge52" class="edge">
<title>Node25&#45;&gt;Node15</title>
<path fill="none" stroke="#63b8ff" d="M497.79,-339.28C433.68,-336.86 286.94,-327.84 251,-295.5 189.86,-240.49 209.26,-178.85 255,-110.5 262.37,-99.48 273.03,-89.35 282.52,-81.53"/>
<polygon fill="#63b8ff" stroke="#63b8ff" points="284.41,-83.71 290.13,-74.79 280.1,-78.2 284.41,-83.71"/>
</g>
<!-- Node25&#45;&gt;Node19 -->
<g id="edge51" class="edge">
<title>Node25&#45;&gt;Node19</title>
<path fill="none" stroke="#63b8ff" d="M548.19,-331.09C566.99,-322.68 595.28,-310.02 616.78,-300.4"/>
<polygon fill="#63b8ff" stroke="#63b8ff" points="618.02,-303.23 625.71,-295.95 615.16,-296.84 618.02,-303.23"/>
</g>
<!-- Node25&#45;&gt;Node24 -->
<g id="edge48" class="edge">
<title>Node25&#45;&gt;Node24</title>
<path fill="none" stroke="#63b8ff" d="M509.34,-331.09C492.11,-322.75 466.28,-310.25 446.48,-300.66"/>
<polygon fill="#63b8ff" stroke="#63b8ff" points="448.28,-297.16 437.75,-295.95 445.23,-303.46 448.28,-297.16"/>
</g>
<!-- Node26&#45;&gt;Node8 -->
<g id="edge56" class="edge">
<title>Node26&#45;&gt;Node8</title>
<path fill="none" stroke="#63b8ff" d="M822.62,-165.34C858.24,-156.31 913.14,-142.39 951.81,-132.59"/>
<polygon fill="#63b8ff" stroke="#63b8ff" points="952.42,-135.79 961.25,-129.94 950.7,-129 952.42,-135.79"/>
</g>
<!-- Node26&#45;&gt;Node15 -->
<g id="edge57" class="edge">
<title>Node26&#45;&gt;Node15</title>
<path fill="none" stroke="#63b8ff" d="M750.2,-171.19C672.72,-164.23 495.16,-146.93 437,-129.75 426.17,-126.55 367.1,-97.43 331.43,-79.63"/>
<polygon fill="#63b8ff" stroke="#63b8ff" points="333.56,-76.28 323.05,-74.94 330.43,-82.54 333.56,-76.28"/>
</g>
<!-- Node27 -->
<g id="node27" class="node">
<title>Node27</title>
<g id="a_node27"><a xlink:title=" ">
<polygon fill="#e0e0e0" stroke="#999999" points="833.62,-129.75 788.38,-129.75 788.38,-110.5 833.62,-110.5 833.62,-129.75"/>
<text text-anchor="middle" x="811" y="-116.25" font-family="Helvetica,sans-Serif" font-size="10.00">cstdint</text>
</a>
</g>
</g>
<!-- Node26&#45;&gt;Node27 -->
<g id="edge55" class="edge">
<title>Node26&#45;&gt;Node27</title>
<path fill="none" stroke="#63b8ff" d="M790.96,-165.58C794.11,-158.61 798.61,-148.62 802.55,-139.87"/>
<polygon fill="#63b8ff" stroke="#63b8ff" points="806.03,-141.66 806.95,-131.11 799.65,-138.79 806.03,-141.66"/>
</g>
<!-- Node28&#45;&gt;Node2 -->
<g id="edge59" class="edge">
<title>Node28&#45;&gt;Node2</title>
<path fill="none" stroke="#63b8ff" d="M806.08,-276.11C798.69,-263.31 783.89,-239.07 768,-221 751.99,-202.79 744.47,-201.81 727,-185 690.57,-149.95 650.39,-106.29 629.13,-82.77"/>
<polygon fill="#63b8ff" stroke="#63b8ff" points="632.25,-80.9 622.96,-75.81 627.05,-85.58 632.25,-80.9"/>
</g>
<!-- Node28&#45;&gt;Node3 -->
<g id="edge63" class="edge">
<title>Node28&#45;&gt;Node3</title>
<path fill="none" stroke="#63b8ff" d="M858.88,-284.36C982.17,-281.76 1301,-266.34 1301,-176.38 1301,-176.38 1301,-176.38 1301,-119.12 1301,-89.51 1303.14,-76 1282,-55.25 1248.61,-22.48 1193.37,-13.29 1157.08,-10.97"/>
<polygon fill="#63b8ff" stroke="#63b8ff" points="1157.63,-7.45 1147.47,-10.46 1157.29,-14.44 1157.63,-7.45"/>
</g>
<!-- Node28&#45;&gt;Node4 -->
<g id="edge67" class="edge">
<title>Node28&#45;&gt;Node4</title>
<path fill="none" stroke="#63b8ff" d="M763.07,-277.3C701.36,-267.55 594.34,-250.64 529.27,-240.36"/>
<polygon fill="#63b8ff" stroke="#63b8ff" points="530.23,-236.81 519.8,-238.7 529.13,-243.72 530.23,-236.81"/>
</g>
<!-- Node28&#45;&gt;Node5 -->
<g id="edge64" class="edge">
<title>Node28&#45;&gt;Node5</title>
<path fill="none" stroke="#63b8ff" d="M812.79,-275.79C814.87,-262.6 816.78,-237.88 806,-221 788.44,-193.49 760.76,-211.71 742,-185 721.07,-155.21 719.33,-111.05 720.38,-85.7"/>
<polygon fill="#63b8ff" stroke="#63b8ff" points="723.92,-86.11 721.04,-75.91 716.93,-85.68 723.92,-86.11"/>
</g>
<!-- Node28&#45;&gt;Node8 -->
<g id="edge66" class="edge">
<title>Node28&#45;&gt;Node8</title>
<path fill="none" stroke="#63b8ff" d="M844.19,-275.85C903.85,-258.89 1025.25,-220.73 1049,-185 1060.78,-167.27 1041.28,-148.57 1022.9,-136.01"/>
<polygon fill="#63b8ff" stroke="#63b8ff" points="1025.14,-132.65 1014.83,-130.21 1021.36,-138.55 1025.14,-132.65"/>
</g>
<!-- Node28&#45;&gt;Node9 -->
<g id="edge60" class="edge">
<title>Node28&#45;&gt;Node9</title>
<path fill="none" stroke="#63b8ff" d="M859.11,-278.2C896.19,-271.82 948.04,-260.15 990,-240.25 1071.22,-201.73 1143.7,-118.96 1172.65,-83.07"/>
<polygon fill="#63b8ff" stroke="#63b8ff" points="1175.86,-85.64 1179.34,-75.63 1170.38,-81.29 1175.86,-85.64"/>
</g>
<!-- Node28&#45;&gt;Node11 -->
<g id="edge62" class="edge">
<title>Node28&#45;&gt;Node11</title>
<path fill="none" stroke="#63b8ff" d="M859.02,-280.36C902.74,-274.95 968.32,-263.51 1021,-240.25 1111.56,-200.25 1199.1,-117.73 1234.06,-82.45"/>
<polygon fill="#63b8ff" stroke="#63b8ff" points="1235.94,-85.52 1240.43,-75.93 1230.93,-80.62 1235.94,-85.52"/>
</g>
<!-- Node28&#45;&gt;Node15 -->
<g id="edge69" class="edge">
<title>Node28&#45;&gt;Node15</title>
<path fill="none" stroke="#63b8ff" d="M802.99,-276.09C790.02,-262.36 763.01,-235.87 735,-221 655.82,-178.95 627.66,-188.69 541,-165.75 475.98,-148.54 455.18,-157.71 394,-129.75 390.24,-128.03 350.56,-99.53 325.16,-81.19"/>
<polygon fill="#63b8ff" stroke="#63b8ff" points="327.69,-77.98 317.54,-74.96 323.59,-83.66 327.69,-77.98"/>
</g>
<!-- Node28&#45;&gt;Node20 -->
<g id="edge65" class="edge">
<title>Node28&#45;&gt;Node20</title>
<path fill="none" stroke="#63b8ff" d="M793.36,-275.84C777.22,-267.58 753.1,-255.23 734.44,-245.68"/>
<polygon fill="#63b8ff" stroke="#63b8ff" points="736.22,-242.14 725.73,-240.7 733.03,-248.38 736.22,-242.14"/>
</g>
<!-- Node28&#45;&gt;Node22 -->
<g id="edge68" class="edge">
<title>Node28&#45;&gt;Node22</title>
<path fill="none" stroke="#63b8ff" d="M762.99,-279.72C675.03,-270.28 487.67,-250.16 385.32,-239.17"/>
<polygon fill="#63b8ff" stroke="#63b8ff" points="385.79,-235.6 375.48,-238.01 385.05,-242.56 385.79,-235.6"/>
</g>
<!-- Node29 -->
<g id="node29" class="node">
<title>Node29</title>
<g id="a_node29"><a xlink:title=" ">
<polygon fill="#e0e0e0" stroke="#999999" points="902.25,-240.25 857.75,-240.25 857.75,-221 902.25,-221 902.25,-240.25"/>
<text text-anchor="middle" x="880" y="-226.75" font-family="Helvetica,sans-Serif" font-size="10.00">stdio.h</text>
</a>
</g>
</g>
<!-- Node28&#45;&gt;Node29 -->
<g id="edge61" class="edge">
<title>Node28&#45;&gt;Node29</title>
<path fill="none" stroke="#63b8ff" d="M822.7,-275.84C832.88,-267.99 847.83,-256.45 859.92,-247.12"/>
<polygon fill="#63b8ff" stroke="#63b8ff" points="861.69,-249.41 867.47,-240.52 857.41,-243.86 861.69,-249.41"/>
</g>
</g>
</svg>
