<?xml version="1.0" encoding="UTF-8" standalone="no"?>
<!DOCTYPE svg PUBLIC "-//W3C//DTD SVG 1.1//EN"
 "http://www.w3.org/Graphics/SVG/1.1/DTD/svg11.dtd">
<!-- Generated by graphviz version 8.0.5 (20230430.1635)
 -->
<!-- Title: include/v8&#45;fast&#45;api&#45;calls.h Pages: 1 -->
<svg width="1585pt" height="646pt"
 viewBox="0.00 0.00 1584.50 646.25" xmlns="http://www.w3.org/2000/svg" xmlns:xlink="http://www.w3.org/1999/xlink">
<g id="graph0" class="graph" transform="scale(1 1) rotate(0) translate(4 642.25)">
<title>include/v8&#45;fast&#45;api&#45;calls.h</title>
<!-- Node1 -->
<g id="node1" class="node">
<title>Node1</title>
<g id="a_node1"><a xlink:title=" ">
<polygon fill="#999999" stroke="#666666" points="1311.75,-638.25 1216.25,-638.25 1216.25,-607.75 1311.75,-607.75 1311.75,-638.25"/>
<text text-anchor="start" x="1224.25" y="-624.75" font-family="Helvetica,sans-Serif" font-size="10.00">include/v8&#45;fast&#45;api</text>
<text text-anchor="middle" x="1264" y="-613.5" font-family="Helvetica,sans-Serif" font-size="10.00">&#45;calls.h</text>
</a>
</g>
</g>
<!-- Node2 -->
<g id="node2" class="node">
<title>Node2</title>
<g id="a_node2"><a xlink:title=" ">
<polygon fill="#e0e0e0" stroke="#999999" points="1444.25,-74.5 1393.75,-74.5 1393.75,-55.25 1444.25,-55.25 1444.25,-74.5"/>
<text text-anchor="middle" x="1419" y="-61" font-family="Helvetica,sans-Serif" font-size="10.00">stddef.h</text>
</a>
</g>
</g>
<!-- Node1&#45;&gt;Node2 -->
<g id="edge1" class="edge">
<title>Node1&#45;&gt;Node2</title>
<path fill="none" stroke="#63b8ff" d="M1312.21,-620.58C1384.09,-615.61 1511,-594.56 1511,-507.88 1511,-507.88 1511,-507.88 1511,-174.38 1511,-132.84 1471.3,-99.05 1444.06,-80.76"/>
<polygon fill="#63b8ff" stroke="#63b8ff" points="1446.33,-77.42 1436.03,-74.95 1442.54,-83.3 1446.33,-77.42"/>
</g>
<!-- Node3 -->
<g id="node3" class="node">
<title>Node3</title>
<g id="a_node3"><a xlink:title=" ">
<polygon fill="#e0e0e0" stroke="#999999" points="1358.75,-74.5 1311.25,-74.5 1311.25,-55.25 1358.75,-55.25 1358.75,-74.5"/>
<text text-anchor="middle" x="1335" y="-61" font-family="Helvetica,sans-Serif" font-size="10.00">stdint.h</text>
</a>
</g>
</g>
<!-- Node1&#45;&gt;Node3 -->
<g id="edge2" class="edge">
<title>Node1&#45;&gt;Node3</title>
<path fill="none" stroke="#63b8ff" d="M1312.09,-611.7C1362.67,-597.7 1435,-567.3 1435,-507.88 1435,-507.88 1435,-507.88 1435,-229.62 1435,-167.78 1382.4,-109.51 1353.49,-82.16"/>
<polygon fill="#63b8ff" stroke="#63b8ff" points="1356.43,-80.18 1346.7,-75.99 1351.69,-85.33 1356.43,-80.18"/>
</g>
<!-- Node4 -->
<g id="node4" class="node">
<title>Node4</title>
<g id="a_node4"><a xlink:title=" ">
<polygon fill="#e0e0e0" stroke="#999999" points="1576.5,-571.75 1539.5,-571.75 1539.5,-552.5 1576.5,-552.5 1576.5,-571.75"/>
<text text-anchor="middle" x="1558" y="-558.25" font-family="Helvetica,sans-Serif" font-size="10.00">tuple</text>
</a>
</g>
</g>
<!-- Node1&#45;&gt;Node4 -->
<g id="edge3" class="edge">
<title>Node1&#45;&gt;Node4</title>
<path fill="none" stroke="#63b8ff" d="M1311.82,-613.76C1364.31,-604.49 1450.97,-588.53 1525,-571.75 1526.3,-571.46 1527.63,-571.15 1528.96,-570.83"/>
<polygon fill="#63b8ff" stroke="#63b8ff" points="1529.35,-574.09 1538.2,-568.26 1527.65,-567.3 1529.35,-574.09"/>
</g>
<!-- Node5 -->
<g id="node5" class="node">
<title>Node5</title>
<g id="a_node5"><a xlink:title=" ">
<polygon fill="#e0e0e0" stroke="#999999" points="1104.5,-74.5 1043.5,-74.5 1043.5,-55.25 1104.5,-55.25 1104.5,-74.5"/>
<text text-anchor="middle" x="1074" y="-61" font-family="Helvetica,sans-Serif" font-size="10.00">type_traits</text>
</a>
</g>
</g>
<!-- Node1&#45;&gt;Node5 -->
<g id="edge4" class="edge">
<title>Node1&#45;&gt;Node5</title>
<path fill="none" stroke="#63b8ff" d="M1282.01,-607.47C1304.49,-587.57 1340,-549.53 1340,-507.88 1340,-507.88 1340,-507.88 1340,-450.62 1340,-291.19 1340.85,-221.08 1226,-110.5 1210.15,-95.24 1154.76,-81.63 1115.44,-73.56"/>
<polygon fill="#63b8ff" stroke="#63b8ff" points="1116.31,-69.97 1105.82,-71.44 1114.93,-76.83 1116.31,-69.97"/>
</g>
<!-- Node6 -->
<g id="node6" class="node">
<title>Node6</title>
<g id="a_node6"><a xlink:href="v8-internal_8h.html" target="_top" xlink:title=" ">
<polygon fill="white" stroke="#666666" points="807.25,-129.75 738.75,-129.75 738.75,-110.5 807.25,-110.5 807.25,-129.75"/>
<text text-anchor="middle" x="773" y="-116.25" font-family="Helvetica,sans-Serif" font-size="10.00">v8&#45;internal.h</text>
</a>
</g>
</g>
<!-- Node1&#45;&gt;Node6 -->
<g id="edge5" class="edge">
<title>Node1&#45;&gt;Node6</title>
<path fill="none" stroke="#63b8ff" d="M1215.88,-621.64C1005.03,-619.52 170.19,-605.54 100,-516.5 -53.96,-321.18 303.03,-252.8 536,-165.75 600.04,-141.82 678.8,-130.26 727.45,-125.03"/>
<polygon fill="#63b8ff" stroke="#63b8ff" points="727.67,-128.42 737.25,-123.92 726.95,-121.46 727.67,-128.42"/>
</g>
<!-- Node13 -->
<g id="node13" class="node">
<title>Node13</title>
<g id="a_node13"><a xlink:href="v8config_8h.html" target="_top" xlink:title=" ">
<polygon fill="white" stroke="#666666" points="425.75,-74.5 366.25,-74.5 366.25,-55.25 425.75,-55.25 425.75,-74.5"/>
<text text-anchor="middle" x="396" y="-61" font-family="Helvetica,sans-Serif" font-size="10.00">v8config.h</text>
</a>
</g>
</g>
<!-- Node1&#45;&gt;Node13 -->
<g id="edge85" class="edge">
<title>Node1&#45;&gt;Node13</title>
<path fill="none" stroke="#63b8ff" d="M1215.93,-621.65C1033.3,-620.02 382.67,-611.5 180,-571.75 96.7,-555.41 0,-592.76 0,-507.88 0,-507.88 0,-507.88 0,-395.38 0,-320.66 38,-306.34 38,-231.62 38,-231.62 38,-231.62 38,-174.38 38,-136.62 60.85,-128.56 94,-110.5 138.29,-86.37 283.64,-73.45 355.31,-68.42"/>
<polygon fill="#63b8ff" stroke="#63b8ff" points="355.41,-71.85 365.15,-67.67 354.93,-64.86 355.41,-71.85"/>
</g>
<!-- Node14 -->
<g id="node14" class="node">
<title>Node14</title>
<g id="a_node14"><a xlink:href="v8-local-handle_8h.html" target="_top" xlink:title=" ">
<polygon fill="white" stroke="#666666" points="892.38,-240.25 803.62,-240.25 803.62,-221 892.38,-221 892.38,-240.25"/>
<text text-anchor="middle" x="848" y="-226.75" font-family="Helvetica,sans-Serif" font-size="10.00">v8&#45;local&#45;handle.h</text>
</a>
</g>
</g>
<!-- Node1&#45;&gt;Node14 -->
<g id="edge17" class="edge">
<title>Node1&#45;&gt;Node14</title>
<path fill="none" stroke="#63b8ff" d="M1254.53,-607.44C1220.15,-555.61 1096.47,-377.78 954,-276.25 934.48,-262.34 909.95,-251.66 889.41,-244.24"/>
<polygon fill="#63b8ff" stroke="#63b8ff" points="890.67,-240.63 880.07,-240.66 888.38,-247.24 890.67,-240.63"/>
</g>
<!-- Node17 -->
<g id="node17" class="node">
<title>Node17</title>
<g id="a_node17"><a xlink:href="v8-typed-array_8h.html" target="_top" xlink:title=" ">
<polygon fill="white" stroke="#666666" points="955.12,-571.75 870.88,-571.75 870.88,-552.5 955.12,-552.5 955.12,-571.75"/>
<text text-anchor="middle" x="913" y="-558.25" font-family="Helvetica,sans-Serif" font-size="10.00">v8&#45;typed&#45;array.h</text>
</a>
</g>
</g>
<!-- Node1&#45;&gt;Node17 -->
<g id="edge24" class="edge">
<title>Node1&#45;&gt;Node17</title>
<path fill="none" stroke="#63b8ff" d="M1215.93,-613.94C1150.52,-602.97 1033.88,-583.4 966.01,-572.02"/>
<polygon fill="#63b8ff" stroke="#63b8ff" points="966.99,-568.46 956.55,-570.26 965.83,-575.37 966.99,-568.46"/>
</g>
<!-- Node28 -->
<g id="node28" class="node">
<title>Node28</title>
<g id="a_node28"><a xlink:href="v8-value_8h.html" target="_top" xlink:title=" ">
<polygon fill="white" stroke="#666666" points="573.12,-350.75 512.88,-350.75 512.88,-331.5 573.12,-331.5 573.12,-350.75"/>
<text text-anchor="middle" x="543" y="-337.25" font-family="Helvetica,sans-Serif" font-size="10.00">v8&#45;value.h</text>
</a>
</g>
</g>
<!-- Node1&#45;&gt;Node28 -->
<g id="edge84" class="edge">
<title>Node1&#45;&gt;Node28</title>
<path fill="none" stroke="#63b8ff" d="M1215.86,-621.62C1016.51,-619.41 266,-604.66 266,-507.88 266,-507.88 266,-507.88 266,-450.62 266,-400.6 424.62,-364.15 501.8,-349.38"/>
<polygon fill="#63b8ff" stroke="#63b8ff" points="502.38,-352.65 511.56,-347.36 501.09,-345.77 502.38,-352.65"/>
</g>
<!-- Node6&#45;&gt;Node2 -->
<g id="edge6" class="edge">
<title>Node6&#45;&gt;Node2</title>
<path fill="none" stroke="#63b8ff" d="M807.65,-117.65C899.36,-113.51 1155.92,-100.33 1368,-74.5 1372.79,-73.92 1377.82,-73.2 1382.78,-72.43"/>
<polygon fill="#63b8ff" stroke="#63b8ff" points="1383.08,-75.76 1392.38,-70.68 1381.95,-68.85 1383.08,-75.76"/>
</g>
<!-- Node6&#45;&gt;Node3 -->
<g id="edge7" class="edge">
<title>Node6&#45;&gt;Node3</title>
<path fill="none" stroke="#63b8ff" d="M807.73,-115.83C908.32,-106.3 1199.08,-78.75 1300,-69.19"/>
<polygon fill="#63b8ff" stroke="#63b8ff" points="1300.17,-72.6 1309.8,-68.17 1299.51,-65.63 1300.17,-72.6"/>
</g>
<!-- Node6&#45;&gt;Node5 -->
<g id="edge14" class="edge">
<title>Node6&#45;&gt;Node5</title>
<path fill="none" stroke="#63b8ff" d="M807.54,-113.37C856.92,-105.09 950.51,-89.19 1030,-74.5 1030.94,-74.33 1031.89,-74.15 1032.84,-73.97"/>
<polygon fill="#63b8ff" stroke="#63b8ff" points="1033.07,-77.3 1042.24,-71.99 1031.77,-70.42 1033.07,-77.3"/>
</g>
<!-- Node7 -->
<g id="node7" class="node">
<title>Node7</title>
<g id="a_node7"><a xlink:title=" ">
<polygon fill="#e0e0e0" stroke="#999999" points="865.75,-74.5 818.25,-74.5 818.25,-55.25 865.75,-55.25 865.75,-74.5"/>
<text text-anchor="middle" x="842" y="-61" font-family="Helvetica,sans-Serif" font-size="10.00">string.h</text>
</a>
</g>
</g>
<!-- Node6&#45;&gt;Node7 -->
<g id="edge8" class="edge">
<title>Node6&#45;&gt;Node7</title>
<path fill="none" stroke="#63b8ff" d="M784.7,-110.09C794.88,-102.24 809.83,-90.7 821.92,-81.37"/>
<polygon fill="#63b8ff" stroke="#63b8ff" points="823.69,-83.66 829.47,-74.77 819.41,-78.11 823.69,-83.66"/>
</g>
<!-- Node8 -->
<g id="node8" class="node">
<title>Node8</title>
<g id="a_node8"><a xlink:title=" ">
<polygon fill="#e0e0e0" stroke="#999999" points="948.62,-74.5 903.38,-74.5 903.38,-55.25 948.62,-55.25 948.62,-74.5"/>
<text text-anchor="middle" x="926" y="-61" font-family="Helvetica,sans-Serif" font-size="10.00">atomic</text>
</a>
</g>
</g>
<!-- Node6&#45;&gt;Node8 -->
<g id="edge9" class="edge">
<title>Node6&#45;&gt;Node8</title>
<path fill="none" stroke="#63b8ff" d="M798.95,-110.09C824.81,-101.09 864.61,-87.24 892.76,-77.44"/>
<polygon fill="#63b8ff" stroke="#63b8ff" points="893.63,-80.5 901.93,-73.91 891.33,-73.89 893.63,-80.5"/>
</g>
<!-- Node9 -->
<g id="node9" class="node">
<title>Node9</title>
<g id="a_node9"><a xlink:title=" ">
<polygon fill="#e0e0e0" stroke="#999999" points="1021,-74.5 975,-74.5 975,-55.25 1021,-55.25 1021,-74.5"/>
<text text-anchor="middle" x="998" y="-61" font-family="Helvetica,sans-Serif" font-size="10.00">iterator</text>
</a>
</g>
</g>
<!-- Node6&#45;&gt;Node9 -->
<g id="edge10" class="edge">
<title>Node6&#45;&gt;Node9</title>
<path fill="none" stroke="#63b8ff" d="M807.66,-110.92C850.21,-100.85 921.89,-83.89 964.09,-73.9"/>
<polygon fill="#63b8ff" stroke="#63b8ff" points="964.73,-77.11 973.66,-71.4 963.12,-70.3 964.73,-77.11"/>
</g>
<!-- Node10 -->
<g id="node10" class="node">
<title>Node10</title>
<g id="a_node10"><a xlink:title=" ">
<polygon fill="#e0e0e0" stroke="#999999" points="184.62,-74.5 145.38,-74.5 145.38,-55.25 184.62,-55.25 184.62,-74.5"/>
<text text-anchor="middle" x="165" y="-61" font-family="Helvetica,sans-Serif" font-size="10.00">limits</text>
</a>
</g>
</g>
<!-- Node6&#45;&gt;Node10 -->
<g id="edge11" class="edge">
<title>Node6&#45;&gt;Node10</title>
<path fill="none" stroke="#63b8ff" d="M738.57,-116.11C630.45,-106.64 298.77,-77.59 195.82,-68.57"/>
<polygon fill="#63b8ff" stroke="#63b8ff" points="196.22,-65.01 185.96,-67.62 195.61,-71.98 196.22,-65.01"/>
</g>
<!-- Node11 -->
<g id="node11" class="node">
<title>Node11</title>
<g id="a_node11"><a xlink:title=" ">
<polygon fill="#e0e0e0" stroke="#999999" points="1029.25,-19.25 978.75,-19.25 978.75,0 1029.25,0 1029.25,-19.25"/>
<text text-anchor="middle" x="1004" y="-5.75" font-family="Helvetica,sans-Serif" font-size="10.00">memory</text>
</a>
</g>
</g>
<!-- Node6&#45;&gt;Node11 -->
<g id="edge12" class="edge">
<title>Node6&#45;&gt;Node11</title>
<path fill="none" stroke="#63b8ff" d="M762.4,-110.09C748.27,-96.96 726.59,-72.31 741,-55.25 769.6,-21.39 902.48,-13.21 967.7,-11.25"/>
<polygon fill="#63b8ff" stroke="#63b8ff" points="967.4,-14.73 977.31,-10.96 967.22,-7.73 967.4,-14.73"/>
</g>
<!-- Node12 -->
<g id="node12" class="node">
<title>Node12</title>
<g id="a_node12"><a xlink:title=" ">
<polygon fill="#e0e0e0" stroke="#999999" points="799.88,-74.5 750.12,-74.5 750.12,-55.25 799.88,-55.25 799.88,-74.5"/>
<text text-anchor="middle" x="775" y="-61" font-family="Helvetica,sans-Serif" font-size="10.00">optional</text>
</a>
</g>
</g>
<!-- Node6&#45;&gt;Node12 -->
<g id="edge13" class="edge">
<title>Node6&#45;&gt;Node12</title>
<path fill="none" stroke="#63b8ff" d="M773.33,-110.33C773.58,-103.67 773.93,-94.24 774.25,-85.78"/>
<polygon fill="#63b8ff" stroke="#63b8ff" points="777.78,-85.98 774.66,-75.86 770.79,-85.72 777.78,-85.98"/>
</g>
<!-- Node6&#45;&gt;Node13 -->
<g id="edge15" class="edge">
<title>Node6&#45;&gt;Node13</title>
<path fill="none" stroke="#63b8ff" d="M738.54,-114.26C668.87,-104.42 511.52,-82.19 436.83,-71.64"/>
<polygon fill="#63b8ff" stroke="#63b8ff" points="437.4,-68.05 427,-70.11 436.42,-74.98 437.4,-68.05"/>
</g>
<!-- Node13&#45;&gt;Node11 -->
<g id="edge16" class="edge">
<title>Node13&#45;&gt;Node11</title>
<path fill="none" stroke="#63b8ff" d="M426.15,-61.23C527.75,-52.34 857.35,-23.47 967.66,-13.81"/>
<polygon fill="#63b8ff" stroke="#63b8ff" points="967.87,-17.22 977.52,-12.86 967.26,-10.24 967.87,-17.22"/>
</g>
<!-- Node14&#45;&gt;Node2 -->
<g id="edge18" class="edge">
<title>Node14&#45;&gt;Node2</title>
<path fill="none" stroke="#63b8ff" d="M883.27,-220.56C918.05,-211.61 972.72,-197.47 1020,-185 1111.66,-160.82 1135.19,-156.93 1226,-129.75 1281.32,-113.19 1344.77,-91.71 1383.35,-78.36"/>
<polygon fill="#63b8ff" stroke="#63b8ff" points="1384.25,-81.4 1392.55,-74.82 1381.95,-74.79 1384.25,-81.4"/>
</g>
<!-- Node14&#45;&gt;Node5 -->
<g id="edge19" class="edge">
<title>Node14&#45;&gt;Node5</title>
<path fill="none" stroke="#63b8ff" d="M891.17,-220.53C929.3,-211.83 981.37,-198.13 998,-185 1028.01,-161.31 1020.05,-142.48 1041,-110.5 1047,-101.35 1054.17,-91.53 1060.29,-83.45"/>
<polygon fill="#63b8ff" stroke="#63b8ff" points="1063.55,-85.95 1066.86,-75.89 1058,-81.69 1063.55,-85.95"/>
</g>
<!-- Node14&#45;&gt;Node6 -->
<g id="edge23" class="edge">
<title>Node14&#45;&gt;Node6</title>
<path fill="none" stroke="#63b8ff" d="M841.86,-220.75C829.56,-202.94 801.66,-162.58 785.4,-139.06"/>
<polygon fill="#63b8ff" stroke="#63b8ff" points="787.79,-137.36 779.22,-131.13 782.03,-141.34 787.79,-137.36"/>
</g>
<!-- Node15 -->
<g id="node15" class="node">
<title>Node15</title>
<g id="a_node15"><a xlink:title=" ">
<polygon fill="#e0e0e0" stroke="#999999" points="988.5,-185 945.5,-185 945.5,-165.75 988.5,-165.75 988.5,-185"/>
<text text-anchor="middle" x="967" y="-171.5" font-family="Helvetica,sans-Serif" font-size="10.00">vector</text>
</a>
</g>
</g>
<!-- Node14&#45;&gt;Node15 -->
<g id="edge20" class="edge">
<title>Node14&#45;&gt;Node15</title>
<path fill="none" stroke="#63b8ff" d="M868.19,-220.59C886.99,-212.18 915.28,-199.52 936.78,-189.9"/>
<polygon fill="#63b8ff" stroke="#63b8ff" points="938.02,-192.73 945.71,-185.45 935.16,-186.34 938.02,-192.73"/>
</g>
<!-- Node16 -->
<g id="node16" class="node">
<title>Node16</title>
<g id="a_node16"><a xlink:href="v8-handle-base_8h.html" target="_top" xlink:title=" ">
<polygon fill="white" stroke="#666666" points="927.75,-185 838.25,-185 838.25,-165.75 927.75,-165.75 927.75,-185"/>
<text text-anchor="middle" x="883" y="-171.5" font-family="Helvetica,sans-Serif" font-size="10.00">v8&#45;handle&#45;base.h</text>
</a>
</g>
</g>
<!-- Node14&#45;&gt;Node16 -->
<g id="edge21" class="edge">
<title>Node14&#45;&gt;Node16</title>
<path fill="none" stroke="#63b8ff" d="M853.78,-220.83C858.46,-213.71 865.22,-203.43 871.06,-194.55"/>
<polygon fill="#63b8ff" stroke="#63b8ff" points="874.53,-196.64 877.09,-186.36 868.68,-192.79 874.53,-196.64"/>
</g>
<!-- Node16&#45;&gt;Node6 -->
<g id="edge22" class="edge">
<title>Node16&#45;&gt;Node6</title>
<path fill="none" stroke="#63b8ff" d="M864.34,-165.34C847.11,-157 821.28,-144.5 801.48,-134.91"/>
<polygon fill="#63b8ff" stroke="#63b8ff" points="803.28,-131.41 792.75,-130.2 800.23,-137.71 803.28,-131.41"/>
</g>
<!-- Node17&#45;&gt;Node10 -->
<g id="edge25" class="edge">
<title>Node17&#45;&gt;Node10</title>
<path fill="none" stroke="#63b8ff" d="M870.61,-561.31C781.67,-560.87 569.58,-555.41 397,-516.5 185.15,-468.73 0,-448.8 0,-231.62 0,-231.62 0,-231.62 0,-174.38 0,-144.05 2,-131.37 24,-110.5 54.2,-81.86 102.68,-71.6 134.19,-67.92"/>
<polygon fill="#63b8ff" stroke="#63b8ff" points="134.36,-71.32 143.97,-66.84 133.67,-64.36 134.36,-71.32"/>
</g>
<!-- Node17&#45;&gt;Node13 -->
<g id="edge83" class="edge">
<title>Node17&#45;&gt;Node13</title>
<path fill="none" stroke="#63b8ff" d="M870.67,-561.59C752.5,-561.02 412.6,-546.45 181,-406 174.34,-401.96 76,-289.61 76,-286.88 76,-286.88 76,-286.88 76,-174.38 76,-137.2 97.7,-128.89 130,-110.5 167.79,-88.98 290.79,-75.2 355.44,-69.25"/>
<polygon fill="#63b8ff" stroke="#63b8ff" points="355.4,-72.68 365.05,-68.3 354.78,-65.71 355.4,-72.68"/>
</g>
<!-- Node17&#45;&gt;Node14 -->
<g id="edge82" class="edge">
<title>Node17&#45;&gt;Node14</title>
<path fill="none" stroke="#63b8ff" d="M913,-552.12C913,-533.53 913,-489.55 913,-452.62 913,-452.62 913,-452.62 913,-340.12 913,-303.23 885.01,-268.04 865.76,-248.2"/>
<polygon fill="#63b8ff" stroke="#63b8ff" points="868.73,-246.22 859.16,-241.67 863.8,-251.19 868.73,-246.22"/>
</g>
<!-- Node18 -->
<g id="node18" class="node">
<title>Node18</title>
<g id="a_node18"><a xlink:href="v8-array-buffer_8h.html" target="_top" xlink:title=" ">
<polygon fill="white" stroke="#666666" points="1026.5,-516.5 941.5,-516.5 941.5,-497.25 1026.5,-497.25 1026.5,-516.5"/>
<text text-anchor="middle" x="984" y="-503" font-family="Helvetica,sans-Serif" font-size="10.00">v8&#45;array&#45;buffer.h</text>
</a>
</g>
</g>
<!-- Node17&#45;&gt;Node18 -->
<g id="edge26" class="edge">
<title>Node17&#45;&gt;Node18</title>
<path fill="none" stroke="#63b8ff" d="M925.04,-552.09C935.51,-544.24 950.9,-532.7 963.33,-523.37"/>
<polygon fill="#63b8ff" stroke="#63b8ff" points="965.23,-525.57 971.13,-516.77 961.03,-519.97 965.23,-525.57"/>
</g>
<!-- Node18&#45;&gt;Node2 -->
<g id="edge27" class="edge">
<title>Node18&#45;&gt;Node2</title>
<path fill="none" stroke="#63b8ff" d="M1009.67,-496.76C1030.49,-488.82 1060.19,-476.25 1084,-461.25 1116.08,-441.04 1121.68,-432.29 1149,-406 1245.1,-313.52 1265.29,-286.34 1352,-185 1372.41,-161.15 1380.7,-157.16 1396,-129.75 1403.83,-115.72 1409.84,-98.53 1413.75,-85.52"/>
<polygon fill="#63b8ff" stroke="#63b8ff" points="1417.39,-86.52 1416.74,-75.95 1410.65,-84.62 1417.39,-86.52"/>
</g>
<!-- Node18&#45;&gt;Node11 -->
<g id="edge28" class="edge">
<title>Node18&#45;&gt;Node11</title>
<path fill="none" stroke="#63b8ff" d="M1026.93,-504.9C1158.78,-499.42 1549,-463.6 1549,-231.62 1549,-231.62 1549,-231.62 1549,-119.12 1549,-15.15 1162.63,-9.35 1040.53,-10.11"/>
<polygon fill="#63b8ff" stroke="#63b8ff" points="1040.53,-6.62 1030.56,-10.2 1040.58,-13.62 1040.53,-6.62"/>
</g>
<!-- Node18&#45;&gt;Node13 -->
<g id="edge81" class="edge">
<title>Node18&#45;&gt;Node13</title>
<path fill="none" stroke="#63b8ff" d="M941.07,-501.33C873.61,-494 738.77,-478.65 625,-461.25 378.87,-423.62 114,-480.61 114,-231.62 114,-231.62 114,-231.62 114,-174.38 114,-138.32 133.23,-129.29 164,-110.5 223.43,-74.2 306.07,-66.42 355,-65.3"/>
<polygon fill="#63b8ff" stroke="#63b8ff" points="354.84,-68.79 364.79,-65.15 354.74,-61.79 354.84,-68.79"/>
</g>
<!-- Node18&#45;&gt;Node14 -->
<g id="edge29" class="edge">
<title>Node18&#45;&gt;Node14</title>
<path fill="none" stroke="#63b8ff" d="M981.64,-496.95C976.97,-478.49 967,-434.75 967,-397.38 967,-397.38 967,-397.38 967,-340.12 967,-293.69 916.9,-261.83 881.72,-245.19"/>
<polygon fill="#63b8ff" stroke="#63b8ff" points="883.35,-241.63 872.8,-240.7 880.47,-248.01 883.35,-241.63"/>
</g>
<!-- Node19 -->
<g id="node19" class="node">
<title>Node19</title>
<g id="a_node19"><a xlink:href="v8-memory-span_8h.html" target="_top" xlink:title=" ">
<polygon fill="white" stroke="#666666" points="1216.75,-129.75 1121.25,-129.75 1121.25,-110.5 1216.75,-110.5 1216.75,-129.75"/>
<text text-anchor="middle" x="1169" y="-116.25" font-family="Helvetica,sans-Serif" font-size="10.00">v8&#45;memory&#45;span.h</text>
</a>
</g>
</g>
<!-- Node18&#45;&gt;Node19 -->
<g id="edge30" class="edge">
<title>Node18&#45;&gt;Node19</title>
<path fill="none" stroke="#63b8ff" d="M1000.73,-496.86C1045.02,-471.92 1164.93,-397.05 1209,-295.5 1232.43,-241.51 1199.26,-171.91 1180.44,-139.39"/>
<polygon fill="#63b8ff" stroke="#63b8ff" points="1183.07,-137.97 1174.93,-131.2 1177.07,-141.57 1183.07,-137.97"/>
</g>
<!-- Node21 -->
<g id="node21" class="node">
<title>Node21</title>
<g id="a_node21"><a xlink:href="v8-object_8h.html" target="_top" xlink:title=" ">
<polygon fill="white" stroke="#666666" points="697.62,-461.25 634.38,-461.25 634.38,-442 697.62,-442 697.62,-461.25"/>
<text text-anchor="middle" x="666" y="-447.75" font-family="Helvetica,sans-Serif" font-size="10.00">v8&#45;object.h</text>
</a>
</g>
</g>
<!-- Node18&#45;&gt;Node21 -->
<g id="edge36" class="edge">
<title>Node18&#45;&gt;Node21</title>
<path fill="none" stroke="#63b8ff" d="M941.11,-498.69C880.15,-488.48 769.1,-469.89 708.4,-459.73"/>
<polygon fill="#63b8ff" stroke="#63b8ff" points="709.12,-456.13 698.68,-457.93 707.96,-463.03 709.12,-456.13"/>
</g>
<!-- Node19&#45;&gt;Node2 -->
<g id="edge31" class="edge">
<title>Node19&#45;&gt;Node2</title>
<path fill="none" stroke="#63b8ff" d="M1211.69,-110.03C1259.88,-99.77 1337.44,-83.25 1382.78,-73.59"/>
<polygon fill="#63b8ff" stroke="#63b8ff" points="1383.25,-76.85 1392.3,-71.35 1381.8,-70.01 1383.25,-76.85"/>
</g>
<!-- Node19&#45;&gt;Node5 -->
<g id="edge34" class="edge">
<title>Node19&#45;&gt;Node5</title>
<path fill="none" stroke="#63b8ff" d="M1152.88,-110.09C1138.28,-101.91 1116.51,-89.71 1099.54,-80.19"/>
<polygon fill="#63b8ff" stroke="#63b8ff" points="1101.63,-76.79 1091.19,-74.95 1098.21,-82.9 1101.63,-76.79"/>
</g>
<!-- Node19&#45;&gt;Node9 -->
<g id="edge33" class="edge">
<title>Node19&#45;&gt;Node9</title>
<path fill="none" stroke="#63b8ff" d="M1139.99,-110.09C1110.07,-100.78 1063.45,-86.26 1031.86,-76.42"/>
<polygon fill="#63b8ff" stroke="#63b8ff" points="1032.96,-72.78 1022.37,-73.15 1030.88,-79.47 1032.96,-72.78"/>
</g>
<!-- Node19&#45;&gt;Node13 -->
<g id="edge35" class="edge">
<title>Node19&#45;&gt;Node13</title>
<path fill="none" stroke="#63b8ff" d="M1120.94,-115.81C979.76,-106.09 567.99,-77.72 436.71,-68.68"/>
<polygon fill="#63b8ff" stroke="#63b8ff" points="437.18,-65.13 426.96,-67.94 436.7,-72.12 437.18,-65.13"/>
</g>
<!-- Node20 -->
<g id="node20" class="node">
<title>Node20</title>
<g id="a_node20"><a xlink:title=" ">
<polygon fill="#e0e0e0" stroke="#999999" points="1187.5,-74.5 1150.5,-74.5 1150.5,-55.25 1187.5,-55.25 1187.5,-74.5"/>
<text text-anchor="middle" x="1169" y="-61" font-family="Helvetica,sans-Serif" font-size="10.00">array</text>
</a>
</g>
</g>
<!-- Node19&#45;&gt;Node20 -->
<g id="edge32" class="edge">
<title>Node19&#45;&gt;Node20</title>
<path fill="none" stroke="#63b8ff" d="M1169,-110.33C1169,-103.67 1169,-94.24 1169,-85.78"/>
<polygon fill="#63b8ff" stroke="#63b8ff" points="1172.5,-85.86 1169,-75.86 1165.5,-85.86 1172.5,-85.86"/>
</g>
<!-- Node21&#45;&gt;Node6 -->
<g id="edge37" class="edge">
<title>Node21&#45;&gt;Node6</title>
<path fill="none" stroke="#63b8ff" d="M676.02,-441.75C699.9,-419.84 759.67,-360.23 780,-295.5 796.98,-241.44 785.41,-173.29 777.95,-140.5"/>
<polygon fill="#63b8ff" stroke="#63b8ff" points="781.19,-140.01 775.44,-131.11 774.38,-141.65 781.19,-140.01"/>
</g>
<!-- Node21&#45;&gt;Node13 -->
<g id="edge80" class="edge">
<title>Node21&#45;&gt;Node13</title>
<path fill="none" stroke="#63b8ff" d="M633.92,-449.22C580.78,-446.1 471.76,-436.24 385,-406 262.86,-363.42 152,-360.97 152,-231.62 152,-231.62 152,-231.62 152,-174.38 152,-86.54 285.63,-69.29 355.11,-66.25"/>
<polygon fill="#63b8ff" stroke="#63b8ff" points="355.21,-69.72 365.08,-65.87 354.96,-62.72 355.21,-69.72"/>
</g>
<!-- Node21&#45;&gt;Node14 -->
<g id="edge38" class="edge">
<title>Node21&#45;&gt;Node14</title>
<path fill="none" stroke="#63b8ff" d="M697.99,-447.6C745.8,-442.35 832.3,-429.75 851,-406 886.85,-360.48 867.42,-285.57 855.33,-250.65"/>
<polygon fill="#63b8ff" stroke="#63b8ff" points="858.32,-249.63 851.6,-241.44 851.75,-252.04 858.32,-249.63"/>
</g>
<!-- Node22 -->
<g id="node22" class="node">
<title>Node22</title>
<g id="a_node22"><a xlink:href="v8-maybe_8h.html" target="_top" xlink:title=" ">
<polygon fill="white" stroke="#666666" points="770.75,-295.5 705.25,-295.5 705.25,-276.25 770.75,-276.25 770.75,-295.5"/>
<text text-anchor="middle" x="738" y="-282" font-family="Helvetica,sans-Serif" font-size="10.00">v8&#45;maybe.h</text>
</a>
</g>
</g>
<!-- Node21&#45;&gt;Node22 -->
<g id="edge39" class="edge">
<title>Node21&#45;&gt;Node22</title>
<path fill="none" stroke="#63b8ff" d="M669.87,-441.82C681.15,-416.17 714.18,-341.05 729.73,-305.69"/>
<polygon fill="#63b8ff" stroke="#63b8ff" points="733.29,-307.29 734.11,-296.72 726.88,-304.47 733.29,-307.29"/>
</g>
<!-- Node24 -->
<g id="node24" class="node">
<title>Node24</title>
<g id="a_node24"><a xlink:href="v8-persistent-handle_8h.html" target="_top" xlink:title=" ">
<polygon fill="white" stroke="#666666" points="467.62,-295.5 356.38,-295.5 356.38,-276.25 467.62,-276.25 467.62,-295.5"/>
<text text-anchor="middle" x="412" y="-282" font-family="Helvetica,sans-Serif" font-size="10.00">v8&#45;persistent&#45;handle.h</text>
</a>
</g>
</g>
<!-- Node21&#45;&gt;Node24 -->
<g id="edge44" class="edge">
<title>Node21&#45;&gt;Node24</title>
<path fill="none" stroke="#63b8ff" d="M640.82,-441.66C619.63,-433.64 588.89,-420.87 564,-406 511.54,-374.66 456.73,-327.56 429.51,-303.03"/>
<polygon fill="#63b8ff" stroke="#63b8ff" points="432.43,-301.04 422.68,-296.9 427.72,-306.22 432.43,-301.04"/>
</g>
<!-- Node26 -->
<g id="node26" class="node">
<title>Node26</title>
<g id="a_node26"><a xlink:href="v8-primitive_8h.html" target="_top" xlink:title=" ">
<polygon fill="white" stroke="#666666" points="667.88,-406 594.12,-406 594.12,-386.75 667.88,-386.75 667.88,-406"/>
<text text-anchor="middle" x="631" y="-392.5" font-family="Helvetica,sans-Serif" font-size="10.00">v8&#45;primitive.h</text>
</a>
</g>
</g>
<!-- Node21&#45;&gt;Node26 -->
<g id="edge50" class="edge">
<title>Node21&#45;&gt;Node26</title>
<path fill="none" stroke="#63b8ff" d="M660.22,-441.83C655.54,-434.71 648.78,-424.43 642.94,-415.55"/>
<polygon fill="#63b8ff" stroke="#63b8ff" points="645.32,-413.79 636.91,-407.36 639.47,-417.64 645.32,-413.79"/>
</g>
<!-- Node21&#45;&gt;Node28 -->
<g id="edge79" class="edge">
<title>Node21&#45;&gt;Node28</title>
<path fill="none" stroke="#63b8ff" d="M643.16,-441.65C625.81,-434.02 602.09,-421.81 585,-406 570.87,-392.93 559.27,-374.17 551.87,-360.36"/>
<polygon fill="#63b8ff" stroke="#63b8ff" points="554.72,-359.25 547.05,-351.94 548.49,-362.44 554.72,-359.25"/>
</g>
<!-- Node29 -->
<g id="node29" class="node">
<title>Node29</title>
<g id="a_node29"><a xlink:href="v8-sandbox_8h.html" target="_top" xlink:title=" ">
<polygon fill="white" stroke="#666666" points="253.5,-185 180.5,-185 180.5,-165.75 253.5,-165.75 253.5,-185"/>
<text text-anchor="middle" x="217" y="-171.5" font-family="Helvetica,sans-Serif" font-size="10.00">v8&#45;sandbox.h</text>
</a>
</g>
</g>
<!-- Node21&#45;&gt;Node29 -->
<g id="edge63" class="edge">
<title>Node21&#45;&gt;Node29</title>
<path fill="none" stroke="#63b8ff" d="M633.91,-448.26C556.3,-440.77 357.16,-410.73 252,-295.5 226.54,-267.6 219.53,-222.07 217.65,-196.13"/>
<polygon fill="#63b8ff" stroke="#63b8ff" points="221.11,-196.22 217.09,-186.42 214.12,-196.59 221.11,-196.22"/>
</g>
<!-- Node31 -->
<g id="node31" class="node">
<title>Node31</title>
<g id="a_node31"><a xlink:href="v8-traced-handle_8h.html" target="_top" xlink:title=" ">
<polygon fill="white" stroke="#666666" points="1199.75,-295.5 1104.25,-295.5 1104.25,-276.25 1199.75,-276.25 1199.75,-295.5"/>
<text text-anchor="middle" x="1152" y="-282" font-family="Helvetica,sans-Serif" font-size="10.00">v8&#45;traced&#45;handle.h</text>
</a>
</g>
</g>
<!-- Node21&#45;&gt;Node31 -->
<g id="edge67" class="edge">
<title>Node21&#45;&gt;Node31</title>
<path fill="none" stroke="#63b8ff" d="M697.97,-446.56C741.8,-440.47 822.66,-427.35 889,-406 979.27,-376.94 1079.76,-325.77 1126.06,-301.04"/>
<polygon fill="#63b8ff" stroke="#63b8ff" points="1127.46,-303.73 1134.6,-295.91 1124.14,-297.56 1127.46,-303.73"/>
</g>
<!-- Node22&#45;&gt;Node5 -->
<g id="edge40" class="edge">
<title>Node22&#45;&gt;Node5</title>
<path fill="none" stroke="#63b8ff" d="M771.1,-277.88C804.48,-270.35 857.2,-257.14 901,-240.25 918.66,-233.44 921.9,-229.12 939,-221 974.58,-204.09 992.04,-212.75 1020,-185 1048.24,-156.97 1063.12,-111.49 1069.7,-85.59"/>
<polygon fill="#63b8ff" stroke="#63b8ff" points="1073.33,-86.44 1072.22,-75.9 1066.52,-84.83 1073.33,-86.44"/>
</g>
<!-- Node22&#45;&gt;Node6 -->
<g id="edge42" class="edge">
<title>Node22&#45;&gt;Node6</title>
<path fill="none" stroke="#63b8ff" d="M739.03,-275.81C741.4,-255.76 747.87,-206.23 758,-165.75 760.11,-157.33 763.05,-148.22 765.76,-140.44"/>
<polygon fill="#63b8ff" stroke="#63b8ff" points="769.35,-141.82 769.47,-131.23 762.77,-139.44 769.35,-141.82"/>
</g>
<!-- Node22&#45;&gt;Node13 -->
<g id="edge43" class="edge">
<title>Node22&#45;&gt;Node13</title>
<path fill="none" stroke="#63b8ff" d="M719.89,-275.78C688,-259.43 620.23,-223.18 568,-185 527.99,-155.74 525.96,-138.41 485,-110.5 467.09,-98.3 445.37,-87.34 427.87,-79.34"/>
<polygon fill="#63b8ff" stroke="#63b8ff" points="429.68,-75.87 419.12,-74.98 426.82,-82.26 429.68,-75.87"/>
</g>
<!-- Node23 -->
<g id="node23" class="node">
<title>Node23</title>
<g id="a_node23"><a xlink:title=" ">
<polygon fill="#e0e0e0" stroke="#999999" points="986.25,-240.25 947.75,-240.25 947.75,-221 986.25,-221 986.25,-240.25"/>
<text text-anchor="middle" x="967" y="-226.75" font-family="Helvetica,sans-Serif" font-size="10.00">utility</text>
</a>
</g>
</g>
<!-- Node22&#45;&gt;Node23 -->
<g id="edge41" class="edge">
<title>Node22&#45;&gt;Node23</title>
<path fill="none" stroke="#63b8ff" d="M771.02,-277.69C810.04,-269.13 876.88,-254.21 934,-240.25 934.96,-240.02 935.93,-239.78 936.91,-239.53"/>
<polygon fill="#63b8ff" stroke="#63b8ff" points="937.66,-242.7 946.48,-236.84 935.93,-235.92 937.66,-242.7"/>
</g>
<!-- Node24&#45;&gt;Node6 -->
<g id="edge45" class="edge">
<title>Node24&#45;&gt;Node6</title>
<path fill="none" stroke="#63b8ff" d="M417.56,-276.11C426.68,-262.43 446.12,-235.98 469,-221 551.42,-167.02 665.55,-139.9 727.89,-128.33"/>
<polygon fill="#63b8ff" stroke="#63b8ff" points="728.32,-131.63 737.54,-126.41 727.08,-124.74 728.32,-131.63"/>
</g>
<!-- Node24&#45;&gt;Node13 -->
<g id="edge49" class="edge">
<title>Node24&#45;&gt;Node13</title>
<path fill="none" stroke="#63b8ff" d="M411.35,-276.02C408.99,-243.62 400.76,-131.05 397.42,-85.37"/>
<polygon fill="#63b8ff" stroke="#63b8ff" points="400.86,-85.32 396.64,-75.6 393.88,-85.83 400.86,-85.32"/>
</g>
<!-- Node24&#45;&gt;Node14 -->
<g id="edge46" class="edge">
<title>Node24&#45;&gt;Node14</title>
<path fill="none" stroke="#63b8ff" d="M468.11,-278.02C551.97,-267.78 709.06,-248.59 792.54,-238.4"/>
<polygon fill="#63b8ff" stroke="#63b8ff" points="792.83,-241.77 802.33,-237.08 791.98,-234.82 792.83,-241.77"/>
</g>
<!-- Node25 -->
<g id="node25" class="node">
<title>Node25</title>
<g id="a_node25"><a xlink:href="v8-weak-callback-info_8h.html" target="_top" xlink:title=" ">
<polygon fill="white" stroke="#666666" points="596,-240.25 478,-240.25 478,-221 596,-221 596,-240.25"/>
<text text-anchor="middle" x="537" y="-226.75" font-family="Helvetica,sans-Serif" font-size="10.00">v8&#45;weak&#45;callback&#45;info.h</text>
</a>
</g>
</g>
<!-- Node24&#45;&gt;Node25 -->
<g id="edge47" class="edge">
<title>Node24&#45;&gt;Node25</title>
<path fill="none" stroke="#63b8ff" d="M433.2,-275.84C453.14,-267.35 483.21,-254.54 505.87,-244.89"/>
<polygon fill="#63b8ff" stroke="#63b8ff" points="506.86,-247.84 514.69,-240.7 504.12,-241.4 506.86,-247.84"/>
</g>
<!-- Node25&#45;&gt;Node13 -->
<g id="edge48" class="edge">
<title>Node25&#45;&gt;Node13</title>
<path fill="none" stroke="#63b8ff" d="M533.18,-220.66C523.84,-199.51 498.11,-145.68 464,-110.5 452.41,-98.54 437.06,-88.13 423.89,-80.38"/>
<polygon fill="#63b8ff" stroke="#63b8ff" points="425.76,-76.85 415.33,-74.99 422.32,-82.95 425.76,-76.85"/>
</g>
<!-- Node26&#45;&gt;Node6 -->
<g id="edge54" class="edge">
<title>Node26&#45;&gt;Node6</title>
<path fill="none" stroke="#63b8ff" d="M635.44,-386.58C650.91,-356 703.94,-251.44 749,-165.75 753.55,-157.09 758.68,-147.53 763.03,-139.48"/>
<polygon fill="#63b8ff" stroke="#63b8ff" points="766.48,-141.45 768.17,-130.99 760.33,-138.11 766.48,-141.45"/>
</g>
<!-- Node26&#45;&gt;Node13 -->
<g id="edge62" class="edge">
<title>Node26&#45;&gt;Node13</title>
<path fill="none" stroke="#63b8ff" d="M593.68,-394.65C529.38,-391.24 398.18,-374.38 331,-295.5 277.31,-232.46 307.58,-179.73 353,-110.5 359.75,-100.22 369.04,-90.22 377.26,-82.31"/>
<polygon fill="#63b8ff" stroke="#63b8ff" points="379.32,-85.24 384.29,-75.89 374.57,-80.1 379.32,-85.24"/>
</g>
<!-- Node26&#45;&gt;Node14 -->
<g id="edge55" class="edge">
<title>Node26&#45;&gt;Node14</title>
<path fill="none" stroke="#63b8ff" d="M645.94,-386.49C673.43,-369.91 733.46,-332.54 780,-295.5 798.89,-280.46 818.84,-261.28 832.2,-247.88"/>
<polygon fill="#63b8ff" stroke="#63b8ff" points="834.08,-250.95 838.61,-241.37 829.1,-246.03 834.08,-250.95"/>
</g>
<!-- Node27 -->
<g id="node27" class="node">
<title>Node27</title>
<g id="a_node27"><a xlink:href="v8-data_8h.html" target="_top" xlink:title=" ">
<polygon fill="white" stroke="#666666" points="610.88,-295.5 555.12,-295.5 555.12,-276.25 610.88,-276.25 610.88,-295.5"/>
<text text-anchor="middle" x="583" y="-282" font-family="Helvetica,sans-Serif" font-size="10.00">v8&#45;data.h</text>
</a>
</g>
</g>
<!-- Node26&#45;&gt;Node27 -->
<g id="edge51" class="edge">
<title>Node26&#45;&gt;Node27</title>
<path fill="none" stroke="#63b8ff" d="M627.07,-386.5C619.3,-368.93 601.82,-329.41 591.36,-305.77"/>
<polygon fill="#63b8ff" stroke="#63b8ff" points="594.23,-304.61 586.98,-296.88 587.83,-307.44 594.23,-304.61"/>
</g>
<!-- Node26&#45;&gt;Node28 -->
<g id="edge56" class="edge">
<title>Node26&#45;&gt;Node28</title>
<path fill="none" stroke="#63b8ff" d="M616.07,-386.34C602.67,-378.23 582.76,-366.18 567.1,-356.71"/>
<polygon fill="#63b8ff" stroke="#63b8ff" points="569.37,-353.39 559,-351.2 565.74,-359.37 569.37,-353.39"/>
</g>
<!-- Node27&#45;&gt;Node13 -->
<g id="edge53" class="edge">
<title>Node27&#45;&gt;Node13</title>
<path fill="none" stroke="#63b8ff" d="M554.77,-280.27C529.39,-274.77 492.57,-263.27 469,-240.25 466.02,-237.34 421.73,-129.08 403.63,-84.63"/>
<polygon fill="#63b8ff" stroke="#63b8ff" points="406.55,-83.53 399.54,-75.58 400.07,-86.17 406.55,-83.53"/>
</g>
<!-- Node27&#45;&gt;Node14 -->
<g id="edge52" class="edge">
<title>Node27&#45;&gt;Node14</title>
<path fill="none" stroke="#63b8ff" d="M611.36,-279.18C654.55,-270.5 737.6,-253.81 792.92,-242.69"/>
<polygon fill="#63b8ff" stroke="#63b8ff" points="793.48,-245.95 802.6,-240.55 792.1,-239.09 793.48,-245.95"/>
</g>
<!-- Node28&#45;&gt;Node6 -->
<g id="edge58" class="edge">
<title>Node28&#45;&gt;Node6</title>
<path fill="none" stroke="#63b8ff" d="M540.94,-331.12C538.47,-318.04 535.81,-293.44 546,-276.25 561.66,-249.82 580.7,-259.04 605,-240.25 642.67,-211.12 643.04,-193.12 682,-165.75 699.93,-153.15 721.96,-142.25 739.85,-134.37"/>
<polygon fill="#63b8ff" stroke="#63b8ff" points="741.02,-137.25 748.84,-130.1 738.27,-130.81 741.02,-137.25"/>
</g>
<!-- Node28&#45;&gt;Node13 -->
<g id="edge61" class="edge">
<title>Node28&#45;&gt;Node13</title>
<path fill="none" stroke="#63b8ff" d="M512.39,-337.71C462.55,-333.06 367.35,-321.01 347,-295.5 295.8,-231.33 355.48,-126.01 383.27,-84"/>
<polygon fill="#63b8ff" stroke="#63b8ff" points="386.69,-86.2 389.42,-75.96 380.9,-82.26 386.69,-86.2"/>
</g>
<!-- Node28&#45;&gt;Node14 -->
<g id="edge59" class="edge">
<title>Node28&#45;&gt;Node14</title>
<path fill="none" stroke="#63b8ff" d="M562.53,-331.15C591.36,-318.1 647.16,-293.55 696,-276.25 731.36,-263.72 772.2,-251.87 802.63,-243.54"/>
<polygon fill="#63b8ff" stroke="#63b8ff" points="803.21,-246.74 811.94,-240.74 801.37,-239.98 803.21,-246.74"/>
</g>
<!-- Node28&#45;&gt;Node22 -->
<g id="edge60" class="edge">
<title>Node28&#45;&gt;Node22</title>
<path fill="none" stroke="#63b8ff" d="M573.47,-331.8C605.93,-322.94 657.62,-308.83 694.39,-298.78"/>
<polygon fill="#63b8ff" stroke="#63b8ff" points="695.09,-301.95 703.81,-295.94 693.24,-295.2 695.09,-301.95"/>
</g>
<!-- Node28&#45;&gt;Node27 -->
<g id="edge57" class="edge">
<title>Node28&#45;&gt;Node27</title>
<path fill="none" stroke="#63b8ff" d="M549.61,-331.33C555.07,-324.05 563.01,-313.48 569.78,-304.48"/>
<polygon fill="#63b8ff" stroke="#63b8ff" points="573.04,-306.96 576.25,-296.86 567.45,-302.75 573.04,-306.96"/>
</g>
<!-- Node29&#45;&gt;Node6 -->
<g id="edge65" class="edge">
<title>Node29&#45;&gt;Node6</title>
<path fill="none" stroke="#63b8ff" d="M253.91,-170.84C352.18,-161.43 619.98,-135.78 727.46,-125.49"/>
<polygon fill="#63b8ff" stroke="#63b8ff" points="727.64,-128.89 737.26,-124.45 726.97,-121.92 727.64,-128.89"/>
</g>
<!-- Node29&#45;&gt;Node13 -->
<g id="edge66" class="edge">
<title>Node29&#45;&gt;Node13</title>
<path fill="none" stroke="#63b8ff" d="M212.22,-165.45C205.76,-152.01 196.4,-126.47 209,-110.5 226.88,-87.85 305.93,-75.44 355.35,-69.77"/>
<polygon fill="#63b8ff" stroke="#63b8ff" points="355.46,-73.17 365.02,-68.6 354.69,-66.21 355.46,-73.17"/>
</g>
<!-- Node30 -->
<g id="node30" class="node">
<title>Node30</title>
<g id="a_node30"><a xlink:title=" ">
<polygon fill="#e0e0e0" stroke="#999999" points="263.62,-129.75 218.38,-129.75 218.38,-110.5 263.62,-110.5 263.62,-129.75"/>
<text text-anchor="middle" x="241" y="-116.25" font-family="Helvetica,sans-Serif" font-size="10.00">cstdint</text>
</a>
</g>
</g>
<!-- Node29&#45;&gt;Node30 -->
<g id="edge64" class="edge">
<title>Node29&#45;&gt;Node30</title>
<path fill="none" stroke="#63b8ff" d="M220.96,-165.58C224.11,-158.61 228.61,-148.62 232.55,-139.87"/>
<polygon fill="#63b8ff" stroke="#63b8ff" points="236.03,-141.66 236.95,-131.11 229.65,-138.79 236.03,-141.66"/>
</g>
<!-- Node31&#45;&gt;Node2 -->
<g id="edge68" class="edge">
<title>Node31&#45;&gt;Node2</title>
<path fill="none" stroke="#63b8ff" d="M1188.74,-275.77C1212.75,-268.65 1243.98,-257.11 1268,-240.25 1331.54,-195.64 1385.44,-118.59 1407.86,-83.82"/>
<polygon fill="#63b8ff" stroke="#63b8ff" points="1411.16,-86.15 1413.56,-75.83 1405.25,-82.4 1411.16,-86.15"/>
</g>
<!-- Node31&#45;&gt;Node3 -->
<g id="edge69" class="edge">
<title>Node31&#45;&gt;Node3</title>
<path fill="none" stroke="#63b8ff" d="M1175.35,-275.8C1194.24,-267.89 1221.05,-255.33 1242,-240.25 1270.12,-220.01 1279.01,-214.61 1297,-185 1316.38,-153.1 1326.87,-110.31 1331.67,-85.65"/>
<polygon fill="#63b8ff" stroke="#63b8ff" points="1335.29,-86.31 1333.63,-75.84 1328.4,-85.06 1335.29,-86.31"/>
</g>
<!-- Node31&#45;&gt;Node5 -->
<g id="edge73" class="edge">
<title>Node31&#45;&gt;Node5</title>
<path fill="none" stroke="#63b8ff" d="M1156.3,-275.82C1161.64,-263.47 1169.61,-240.65 1166,-221 1161.26,-195.16 1158.79,-188.11 1145,-165.75 1133.61,-147.28 1124.95,-147.17 1112,-129.75 1101.19,-115.21 1090.8,-97.39 1083.63,-84.28"/>
<polygon fill="#63b8ff" stroke="#63b8ff" points="1086.42,-83.08 1078.62,-75.92 1080.25,-86.39 1086.42,-83.08"/>
</g>
<!-- Node31&#45;&gt;Node6 -->
<g id="edge75" class="edge">
<title>Node31&#45;&gt;Node6</title>
<path fill="none" stroke="#63b8ff" d="M1131.7,-275.75C1114.69,-267.63 1090.18,-254.82 1071,-240.25 1034.08,-212.21 1038.78,-187.8 998,-165.75 941.08,-134.98 865.78,-125.29 818.36,-122.32"/>
<polygon fill="#63b8ff" stroke="#63b8ff" points="818.69,-118.78 808.52,-121.73 818.31,-125.77 818.69,-118.78"/>
</g>
<!-- Node31&#45;&gt;Node8 -->
<g id="edge71" class="edge">
<title>Node31&#45;&gt;Node8</title>
<path fill="none" stroke="#63b8ff" d="M1151.12,-275.85C1149.46,-262.73 1144.9,-238.09 1133,-221 1085.85,-153.31 999.79,-102.89 954.93,-79.81"/>
<polygon fill="#63b8ff" stroke="#63b8ff" points="956.74,-76.3 946.24,-74.92 953.59,-82.55 956.74,-76.3"/>
</g>
<!-- Node31&#45;&gt;Node11 -->
<g id="edge72" class="edge">
<title>Node31&#45;&gt;Node11</title>
<path fill="none" stroke="#63b8ff" d="M1158.21,-276C1173.77,-253.12 1214.01,-189.73 1226,-129.75 1232.96,-94.91 1225.13,-76.96 1197,-55.25 1151.24,-19.93 1082.36,-11.75 1040.46,-10.3"/>
<polygon fill="#63b8ff" stroke="#63b8ff" points="1040.73,-6.79 1030.65,-10.06 1040.57,-13.78 1040.73,-6.79"/>
</g>
<!-- Node31&#45;&gt;Node13 -->
<g id="edge78" class="edge">
<title>Node31&#45;&gt;Node13</title>
<path fill="none" stroke="#63b8ff" d="M1131.11,-275.85C1094.87,-260.28 1021.64,-229.24 995,-221 922.88,-198.69 902.31,-203.02 829,-185 683.47,-149.23 512.38,-100.02 436.15,-77.72"/>
<polygon fill="#63b8ff" stroke="#63b8ff" points="437.62,-74.21 427.04,-74.75 435.65,-80.92 437.62,-74.21"/>
</g>
<!-- Node31&#45;&gt;Node14 -->
<g id="edge76" class="edge">
<title>Node31&#45;&gt;Node14</title>
<path fill="none" stroke="#63b8ff" d="M1103.83,-276.44C1049.25,-266.88 960.46,-251.32 903.15,-241.29"/>
<polygon fill="#63b8ff" stroke="#63b8ff" points="903.94,-237.69 893.48,-239.42 902.73,-244.59 903.94,-237.69"/>
</g>
<!-- Node31&#45;&gt;Node23 -->
<g id="edge74" class="edge">
<title>Node31&#45;&gt;Node23</title>
<path fill="none" stroke="#63b8ff" d="M1120.62,-275.84C1086.01,-265.88 1030.75,-249.98 996.8,-240.2"/>
<polygon fill="#63b8ff" stroke="#63b8ff" points="998.15,-236.66 987.57,-237.26 996.22,-243.39 998.15,-236.66"/>
</g>
<!-- Node31&#45;&gt;Node25 -->
<g id="edge77" class="edge">
<title>Node31&#45;&gt;Node25</title>
<path fill="none" stroke="#63b8ff" d="M1104,-280.72C995.91,-271.36 733.05,-248.6 606.86,-237.67"/>
<polygon fill="#63b8ff" stroke="#63b8ff" points="607.45,-234.13 597.18,-236.75 606.84,-241.1 607.45,-234.13"/>
</g>
<!-- Node32 -->
<g id="node32" class="node">
<title>Node32</title>
<g id="a_node32"><a xlink:title=" ">
<polygon fill="#e0e0e0" stroke="#999999" points="1124.25,-240.25 1079.75,-240.25 1079.75,-221 1124.25,-221 1124.25,-240.25"/>
<text text-anchor="middle" x="1102" y="-226.75" font-family="Helvetica,sans-Serif" font-size="10.00">stdio.h</text>
</a>
</g>
</g>
<!-- Node31&#45;&gt;Node32 -->
<g id="edge70" class="edge">
<title>Node31&#45;&gt;Node32</title>
<path fill="none" stroke="#63b8ff" d="M1143.74,-276.08C1136.69,-268.57 1126.35,-257.56 1117.73,-248.38"/>
<polygon fill="#63b8ff" stroke="#63b8ff" points="1120.83,-246.5 1111.44,-241.61 1115.73,-251.3 1120.83,-246.5"/>
</g>
</g>
</svg>
