<?xml version="1.0" encoding="UTF-8" standalone="no"?>
<!DOCTYPE svg PUBLIC "-//W3C//DTD SVG 1.1//EN"
 "http://www.w3.org/Graphics/SVG/1.1/DTD/svg11.dtd">
<!-- Generated by graphviz version 8.0.5 (20230430.1635)
 -->
<!-- Title: include/v8&#45;local&#45;handle.h Pages: 1 -->
<svg width="3201pt" height="836pt"
 viewBox="0.00 0.00 3200.62 835.50" xmlns="http://www.w3.org/2000/svg" xmlns:xlink="http://www.w3.org/1999/xlink">
<g id="graph0" class="graph" transform="scale(1 1) rotate(0) translate(4 831.5)">
<title>include/v8&#45;local&#45;handle.h</title>
<!-- Node1 -->
<g id="node1" class="node">
<title>Node1</title>
<g id="a_node1"><a xlink:title=" ">
<polygon fill="#999999" stroke="#666666" points="1434.25,-827.5 1311.75,-827.5 1311.75,-808.25 1434.25,-808.25 1434.25,-827.5"/>
<text text-anchor="middle" x="1373" y="-814" font-family="Helvetica,sans-Serif" font-size="10.00">include/v8&#45;local&#45;handle.h</text>
</a>
</g>
</g>
<!-- Node2 -->
<g id="node2" class="node">
<title>Node2</title>
<g id="a_node2"><a xlink:href="v8-array-buffer_8h.html" target="_top" xlink:title=" ">
<polygon fill="white" stroke="#666666" points="1112.38,-500.62 993.62,-500.62 993.62,-481.38 1112.38,-481.38 1112.38,-500.62"/>
<text text-anchor="middle" x="1053" y="-487.12" font-family="Helvetica,sans-Serif" font-size="10.00">include/v8&#45;array&#45;buffer.h</text>
</a>
</g>
</g>
<!-- Node1&#45;&gt;Node2 -->
<g id="edge1" class="edge">
<title>Node1&#45;&gt;Node2</title>
<path fill="none" stroke="#63b8ff" d="M1300.48,-813.13C1233.96,-808.16 1141.94,-796.95 1116,-772.25 1035.45,-695.57 1047.43,-539.83 1051.86,-500.95"/>
<polygon fill="#63b8ff" stroke="#63b8ff" points="1300.12,-816.68 1310.34,-813.9 1300.62,-809.7 1300.12,-816.68"/>
</g>
<!-- Node3 -->
<g id="node3" class="node">
<title>Node3</title>
<g id="a_node3"><a xlink:href="v8-isolate_8h.html" target="_top" xlink:title=" ">
<polygon fill="white" stroke="#666666" points="1151.62,-251.5 1052.38,-251.5 1052.38,-232.25 1151.62,-232.25 1151.62,-251.5"/>
<text text-anchor="middle" x="1102" y="-238" font-family="Helvetica,sans-Serif" font-size="10.00">include/v8&#45;isolate.h</text>
</a>
</g>
</g>
<!-- Node1&#45;&gt;Node3 -->
<g id="edge99" class="edge">
<title>Node1&#45;&gt;Node3</title>
<path fill="none" stroke="#63b8ff" d="M1315.82,-804.73C1294.28,-797.95 1270.74,-787.66 1253,-772.25 1132.44,-667.5 1140,-590.84 1140,-431.12 1140,-431.12 1140,-431.12 1140,-368.25 1140,-322.76 1116.81,-271.83 1106.66,-251.72"/>
<polygon fill="#63b8ff" stroke="#63b8ff" points="1314.62,-808.31 1325.2,-807.78 1316.59,-801.6 1314.62,-808.31"/>
</g>
<!-- Node5 -->
<g id="node5" class="node">
<title>Node5</title>
<g id="a_node5"><a xlink:href="v8_8h.html" target="_top" xlink:title=" ">
<polygon fill="white" stroke="#666666" points="1363.88,-19.25 1296.12,-19.25 1296.12,0 1363.88,0 1363.88,-19.25"/>
<text text-anchor="middle" x="1330" y="-5.75" font-family="Helvetica,sans-Serif" font-size="10.00">include/v8.h</text>
</a>
</g>
</g>
<!-- Node1&#45;&gt;Node5 -->
<g id="edge134" class="edge">
<title>Node1&#45;&gt;Node5</title>
<path fill="none" stroke="#63b8ff" d="M1300.85,-816.34C1032.3,-814.09 103.3,-804.03 49,-772.25 12.77,-751.04 0,-733.48 0,-691.5 0,-691.5 0,-691.5 0,-124.75 0,-69.53 50.49,-72.36 103,-55.25 219.03,-17.45 1109.3,-11.57 1295.8,-10.75"/>
<polygon fill="#63b8ff" stroke="#63b8ff" points="1300.6,-819.84 1310.63,-816.43 1300.66,-812.84 1300.6,-819.84"/>
</g>
<!-- Node6 -->
<g id="node6" class="node">
<title>Node6</title>
<g id="a_node6"><a xlink:href="v8-inspector_8h.html" target="_top" xlink:title=" ">
<polygon fill="white" stroke="#666666" points="846.25,-196.25 735.75,-196.25 735.75,-177 846.25,-177 846.25,-196.25"/>
<text text-anchor="middle" x="791" y="-182.75" font-family="Helvetica,sans-Serif" font-size="10.00">include/v8&#45;inspector.h</text>
</a>
</g>
</g>
<!-- Node1&#45;&gt;Node6 -->
<g id="edge98" class="edge">
<title>Node1&#45;&gt;Node6</title>
<path fill="none" stroke="#63b8ff" d="M1300.28,-815.06C1149.2,-810.8 805.98,-798.5 692,-772.25 599.39,-750.92 494,-786.54 494,-691.5 494,-691.5 494,-691.5 494,-429.12 494,-391.99 720.38,-235.62 777.86,-196.52"/>
<polygon fill="#63b8ff" stroke="#63b8ff" points="1300.16,-818.58 1310.25,-815.36 1300.35,-811.59 1300.16,-818.58"/>
</g>
<!-- Node8 -->
<g id="node8" class="node">
<title>Node8</title>
<g id="a_node8"><a xlink:href="v8-metrics_8h.html" target="_top" xlink:title=" ">
<polygon fill="white" stroke="#666666" points="717.5,-196.25 614.5,-196.25 614.5,-177 717.5,-177 717.5,-196.25"/>
<text text-anchor="middle" x="666" y="-182.75" font-family="Helvetica,sans-Serif" font-size="10.00">include/v8&#45;metrics.h</text>
</a>
</g>
</g>
<!-- Node1&#45;&gt;Node8 -->
<g id="edge103" class="edge">
<title>Node1&#45;&gt;Node8</title>
<path fill="none" stroke="#63b8ff" d="M1300.7,-816.82C1105.49,-816.16 577.86,-810.79 510,-772.25 472.46,-750.93 456,-734.67 456,-691.5 456,-691.5 456,-691.5 456,-429.12 456,-312.17 597.99,-224.27 648.46,-196.72"/>
<polygon fill="#63b8ff" stroke="#63b8ff" points="1300.4,-820.32 1310.41,-816.85 1300.42,-813.32 1300.4,-820.32"/>
</g>
<!-- Node9 -->
<g id="node9" class="node">
<title>Node9</title>
<g id="a_node9"><a xlink:href="v8-snapshot_8h.html" target="_top" xlink:title=" ">
<polygon fill="white" stroke="#666666" points="444.25,-196.25 333.75,-196.25 333.75,-177 444.25,-177 444.25,-196.25"/>
<text text-anchor="middle" x="389" y="-182.75" font-family="Helvetica,sans-Serif" font-size="10.00">include/v8&#45;snapshot.h</text>
</a>
</g>
</g>
<!-- Node1&#45;&gt;Node9 -->
<g id="edge120" class="edge">
<title>Node1&#45;&gt;Node9</title>
<path fill="none" stroke="#63b8ff" d="M1300.61,-815.92C1050.6,-812.37 236.03,-798.83 187,-772.25 148.38,-751.31 130,-735.43 130,-691.5 130,-691.5 130,-691.5 130,-490 130,-412.41 329.18,-238.37 378.2,-196.71"/>
<polygon fill="#63b8ff" stroke="#63b8ff" points="1300.34,-819.43 1310.39,-816.07 1300.44,-812.43 1300.34,-819.43"/>
</g>
<!-- Node10 -->
<g id="node10" class="node">
<title>Node10</title>
<g id="a_node10"><a xlink:href="v8-context_8h.html" target="_top" xlink:title=" ">
<polygon fill="white" stroke="#666666" points="376.12,-135.38 273.88,-135.38 273.88,-116.12 376.12,-116.12 376.12,-135.38"/>
<text text-anchor="middle" x="325" y="-121.88" font-family="Helvetica,sans-Serif" font-size="10.00">include/v8&#45;context.h</text>
</a>
</g>
</g>
<!-- Node1&#45;&gt;Node10 -->
<g id="edge29" class="edge">
<title>Node1&#45;&gt;Node10</title>
<path fill="none" stroke="#63b8ff" d="M1300.95,-815.9C1045.29,-812.22 194.05,-798.09 142,-772.25 100.49,-751.63 76,-737.85 76,-691.5 76,-691.5 76,-691.5 76,-368.25 76,-331.38 74.31,-318.01 95,-287.5 148.87,-208.07 256.03,-155.7 302.56,-135.77"/>
<polygon fill="#63b8ff" stroke="#63b8ff" points="1300.55,-819.41 1310.59,-816.05 1300.65,-812.41 1300.55,-819.41"/>
</g>
<!-- Node11 -->
<g id="node11" class="node">
<title>Node11</title>
<g id="a_node11"><a xlink:href="v8-proxy_8h.html" target="_top" xlink:title=" ">
<polygon fill="white" stroke="#666666" points="405.62,-74.5 312.38,-74.5 312.38,-55.25 405.62,-55.25 405.62,-74.5"/>
<text text-anchor="middle" x="359" y="-61" font-family="Helvetica,sans-Serif" font-size="10.00">include/v8&#45;proxy.h</text>
</a>
</g>
</g>
<!-- Node1&#45;&gt;Node11 -->
<g id="edge117" class="edge">
<title>Node1&#45;&gt;Node11</title>
<path fill="none" stroke="#63b8ff" d="M1300.57,-816.19C1037.31,-813.46 143.92,-802.02 91,-772.25 53.58,-751.2 38,-734.43 38,-691.5 38,-691.5 38,-691.5 38,-185.62 38,-127.85 222.82,-88.81 311.98,-73.33"/>
<polygon fill="#63b8ff" stroke="#63b8ff" points="1300.48,-819.7 1310.51,-816.3 1300.55,-812.7 1300.48,-819.7"/>
</g>
<!-- Node12 -->
<g id="node12" class="node">
<title>Node12</title>
<g id="a_node12"><a xlink:href="v8-typed-array_8h.html" target="_top" xlink:title=" ">
<polygon fill="white" stroke="#666666" points="428,-439.75 310,-439.75 310,-420.5 428,-420.5 428,-439.75"/>
<text text-anchor="middle" x="369" y="-426.25" font-family="Helvetica,sans-Serif" font-size="10.00">include/v8&#45;typed&#45;array.h</text>
</a>
</g>
</g>
<!-- Node1&#45;&gt;Node12 -->
<g id="edge129" class="edge">
<title>Node1&#45;&gt;Node12</title>
<path fill="none" stroke="#63b8ff" d="M1300.36,-816.16C1089.77,-813.71 488.6,-803.98 406,-772.25 362.52,-755.55 344.91,-747.86 325,-705.75 279.59,-609.72 344.72,-475.92 363.94,-440.19"/>
<polygon fill="#63b8ff" stroke="#63b8ff" points="1300.25,-819.67 1310.29,-816.28 1300.33,-812.67 1300.25,-819.67"/>
</g>
<!-- Node13 -->
<g id="node13" class="node">
<title>Node13</title>
<g id="a_node13"><a xlink:href="v8-fast-api-calls_8h.html" target="_top" xlink:title=" ">
<polygon fill="white" stroke="#666666" points="367.75,-384.5 272.25,-384.5 272.25,-354 367.75,-354 367.75,-384.5"/>
<text text-anchor="start" x="280.25" y="-371" font-family="Helvetica,sans-Serif" font-size="10.00">include/v8&#45;fast&#45;api</text>
<text text-anchor="middle" x="320" y="-359.75" font-family="Helvetica,sans-Serif" font-size="10.00">&#45;calls.h</text>
</a>
</g>
</g>
<!-- Node1&#45;&gt;Node13 -->
<g id="edge94" class="edge">
<title>Node1&#45;&gt;Node13</title>
<path fill="none" stroke="#63b8ff" d="M1300.64,-817.3C1097.95,-817.92 527.52,-815.64 346,-772.25 261.51,-752.05 168,-778.37 168,-691.5 168,-691.5 168,-691.5 168,-556.5 168,-476.99 252.17,-412.68 295.24,-384.97"/>
<polygon fill="#63b8ff" stroke="#63b8ff" points="1300.47,-820.8 1310.45,-817.26 1300.44,-813.8 1300.47,-820.8"/>
</g>
<!-- Node14 -->
<g id="node14" class="node">
<title>Node14</title>
<g id="a_node14"><a xlink:href="v8-callbacks_8h.html" target="_top" xlink:title=" ">
<polygon fill="white" stroke="#666666" points="878,-439.75 766,-439.75 766,-420.5 878,-420.5 878,-439.75"/>
<text text-anchor="middle" x="822" y="-426.25" font-family="Helvetica,sans-Serif" font-size="10.00">include/v8&#45;callbacks.h</text>
</a>
</g>
</g>
<!-- Node1&#45;&gt;Node14 -->
<g id="edge19" class="edge">
<title>Node1&#45;&gt;Node14</title>
<path fill="none" stroke="#63b8ff" d="M1300.39,-817.52C1205.18,-816.82 1045.17,-809.86 1002,-772.25 945.35,-722.89 999.96,-671.74 959,-608.75 945.04,-587.28 931.2,-591.73 914,-572.75 873.45,-527.99 838.59,-463.56 826.52,-440.1"/>
<polygon fill="#63b8ff" stroke="#63b8ff" points="1300.37,-821.02 1310.39,-817.57 1300.4,-814.02 1300.37,-821.02"/>
</g>
<!-- Node15 -->
<g id="node15" class="node">
<title>Node15</title>
<g id="a_node15"><a xlink:href="v8-script_8h.html" target="_top" xlink:title=" ">
<polygon fill="white" stroke="#666666" points="935.38,-378.88 840.62,-378.88 840.62,-359.62 935.38,-359.62 935.38,-378.88"/>
<text text-anchor="middle" x="888" y="-365.38" font-family="Helvetica,sans-Serif" font-size="10.00">include/v8&#45;script.h</text>
</a>
</g>
</g>
<!-- Node1&#45;&gt;Node15 -->
<g id="edge119" class="edge">
<title>Node1&#45;&gt;Node15</title>
<path fill="none" stroke="#63b8ff" d="M1300.41,-812.98C1227.37,-807.78 1120.98,-796.25 1088,-772.25 1015.05,-719.16 910.49,-433.35 891.14,-379.13"/>
<polygon fill="#63b8ff" stroke="#63b8ff" points="1300.16,-816.54 1310.38,-813.74 1300.64,-809.56 1300.16,-816.54"/>
</g>
<!-- Node17 -->
<g id="node17" class="node">
<title>Node17</title>
<g id="a_node17"><a xlink:href="v8-container_8h.html" target="_top" xlink:title=" ">
<polygon fill="white" stroke="#666666" points="2321.25,-500.62 2210.75,-500.62 2210.75,-481.38 2321.25,-481.38 2321.25,-500.62"/>
<text text-anchor="middle" x="2266" y="-487.12" font-family="Helvetica,sans-Serif" font-size="10.00">include/v8&#45;container.h</text>
</a>
</g>
</g>
<!-- Node1&#45;&gt;Node17 -->
<g id="edge27" class="edge">
<title>Node1&#45;&gt;Node17</title>
<path fill="none" stroke="#63b8ff" d="M1445.24,-815.42C1592.73,-811.88 1923.75,-800.92 2033,-772.25 2113.52,-751.12 2202,-774.74 2202,-691.5 2202,-691.5 2202,-691.5 2202,-623 2202,-572.63 2240.67,-521.41 2257.89,-501.1"/>
<polygon fill="#63b8ff" stroke="#63b8ff" points="1445.44,-811.93 1435.52,-815.67 1445.6,-818.93 1445.44,-811.93"/>
</g>
<!-- Node18 -->
<g id="node18" class="node">
<title>Node18</title>
<g id="a_node18"><a xlink:href="v8-data_8h.html" target="_top" xlink:title=" ">
<polygon fill="white" stroke="#666666" points="820.75,-766.62 731.25,-766.62 731.25,-747.38 820.75,-747.38 820.75,-766.62"/>
<text text-anchor="middle" x="776" y="-753.12" font-family="Helvetica,sans-Serif" font-size="10.00">include/v8&#45;data.h</text>
</a>
</g>
</g>
<!-- Node1&#45;&gt;Node18 -->
<g id="edge30" class="edge">
<title>Node1&#45;&gt;Node18</title>
<path fill="none" stroke="#63b8ff" d="M1300.48,-810.38C1208.12,-802.01 1043.63,-786.81 903,-772.25 875.86,-769.44 845.48,-766.04 821.24,-763.27"/>
<polygon fill="#63b8ff" stroke="#63b8ff" points="1300.1,-813.95 1310.38,-811.36 1300.73,-806.98 1300.1,-813.95"/>
</g>
<!-- Node19 -->
<g id="node19" class="node">
<title>Node19</title>
<g id="a_node19"><a xlink:href="v8-primitive_8h.html" target="_top" xlink:title=" ">
<polygon fill="white" stroke="#666666" points="949.75,-633.62 842.25,-633.62 842.25,-614.38 949.75,-614.38 949.75,-633.62"/>
<text text-anchor="middle" x="896" y="-620.12" font-family="Helvetica,sans-Serif" font-size="10.00">include/v8&#45;primitive.h</text>
</a>
</g>
</g>
<!-- Node1&#45;&gt;Node19 -->
<g id="edge114" class="edge">
<title>Node1&#45;&gt;Node19</title>
<path fill="none" stroke="#63b8ff" d="M1300.38,-817.34C1197.56,-816.61 1016.25,-809.82 964,-772.25 915.76,-737.56 900.85,-660.02 897.09,-633.83"/>
<polygon fill="#63b8ff" stroke="#63b8ff" points="1300.28,-820.84 1310.29,-817.39 1300.31,-813.84 1300.28,-820.84"/>
</g>
<!-- Node20 -->
<g id="node20" class="node">
<title>Node20</title>
<g id="a_node20"><a xlink:href="v8-extension_8h.html" target="_top" xlink:title=" ">
<polygon fill="white" stroke="#666666" points="710,-567.12 598,-567.12 598,-547.88 710,-547.88 710,-567.12"/>
<text text-anchor="middle" x="654" y="-553.62" font-family="Helvetica,sans-Serif" font-size="10.00">include/v8&#45;extension.h</text>
</a>
</g>
</g>
<!-- Node1&#45;&gt;Node20 -->
<g id="edge93" class="edge">
<title>Node1&#45;&gt;Node20</title>
<path fill="none" stroke="#63b8ff" d="M1300.81,-816.44C1140.76,-814.83 766.67,-807.32 722,-772.25 654.92,-719.58 652.85,-600.6 653.65,-567.3"/>
<polygon fill="#63b8ff" stroke="#63b8ff" points="1300.47,-819.94 1310.5,-816.54 1300.54,-812.94 1300.47,-819.94"/>
</g>
<!-- Node21 -->
<g id="node21" class="node">
<title>Node21</title>
<g id="a_node21"><a xlink:href="v8-function-callback_8h.html" target="_top" xlink:title=" ">
<polygon fill="white" stroke="#666666" points="1455.88,-572.75 1358.12,-572.75 1358.12,-542.25 1455.88,-542.25 1455.88,-572.75"/>
<text text-anchor="start" x="1366.12" y="-559.25" font-family="Helvetica,sans-Serif" font-size="10.00">include/v8&#45;function</text>
<text text-anchor="middle" x="1407" y="-548" font-family="Helvetica,sans-Serif" font-size="10.00">&#45;callback.h</text>
</a>
</g>
</g>
<!-- Node1&#45;&gt;Node21 -->
<g id="edge96" class="edge">
<title>Node1&#45;&gt;Node21</title>
<path fill="none" stroke="#63b8ff" d="M1403.85,-802.65C1415.86,-795.38 1428.32,-785.29 1435,-772.25 1469.73,-704.47 1431.55,-609.38 1414.43,-573.23"/>
<polygon fill="#63b8ff" stroke="#63b8ff" points="1402.49,-799.96 1395.44,-807.87 1405.88,-806.08 1402.49,-799.96"/>
</g>
<!-- Node22 -->
<g id="node22" class="node">
<title>Node22</title>
<g id="a_node22"><a xlink:href="v8-function_8h.html" target="_top" xlink:title=" ">
<polygon fill="white" stroke="#666666" points="1743.62,-378.88 1638.38,-378.88 1638.38,-359.62 1743.62,-359.62 1743.62,-378.88"/>
<text text-anchor="middle" x="1691" y="-365.38" font-family="Helvetica,sans-Serif" font-size="10.00">include/v8&#45;function.h</text>
</a>
</g>
</g>
<!-- Node1&#45;&gt;Node22 -->
<g id="edge97" class="edge">
<title>Node1&#45;&gt;Node22</title>
<path fill="none" stroke="#63b8ff" d="M1445.49,-816.96C1705.38,-816.34 2575,-805.72 2575,-691.5 2575,-691.5 2575,-691.5 2575,-490 2575,-405.64 1934.69,-378.14 1743.98,-371.81"/>
<polygon fill="#63b8ff" stroke="#63b8ff" points="1445.67,-813.47 1435.68,-816.99 1445.68,-820.47 1445.67,-813.47"/>
</g>
<!-- Node23 -->
<g id="node23" class="node">
<title>Node23</title>
<g id="a_node23"><a xlink:href="v8-template_8h.html" target="_top" xlink:title=" ">
<polygon fill="white" stroke="#666666" points="1745.12,-439.75 1636.88,-439.75 1636.88,-420.5 1745.12,-420.5 1745.12,-439.75"/>
<text text-anchor="middle" x="1691" y="-426.25" font-family="Helvetica,sans-Serif" font-size="10.00">include/v8&#45;template.h</text>
</a>
</g>
</g>
<!-- Node1&#45;&gt;Node23 -->
<g id="edge122" class="edge">
<title>Node1&#45;&gt;Node23</title>
<path fill="none" stroke="#63b8ff" d="M1445.57,-814.7C1590.28,-808.37 1901,-784.01 1901,-691.5 1901,-691.5 1901,-691.5 1901,-556.5 1901,-484 1807.58,-452.44 1745.35,-439.45"/>
<polygon fill="#63b8ff" stroke="#63b8ff" points="1445.45,-811.24 1435.6,-815.15 1445.74,-818.23 1445.45,-811.24"/>
</g>
<!-- Node25 -->
<g id="node25" class="node">
<title>Node25</title>
<g id="a_node25"><a xlink:href="v8-message_8h.html" target="_top" xlink:title=" ">
<polygon fill="white" stroke="#666666" points="1264.25,-567.12 1153.75,-567.12 1153.75,-547.88 1264.25,-547.88 1264.25,-567.12"/>
<text text-anchor="middle" x="1209" y="-553.62" font-family="Helvetica,sans-Serif" font-size="10.00">include/v8&#45;message.h</text>
</a>
</g>
</g>
<!-- Node1&#45;&gt;Node25 -->
<g id="edge102" class="edge">
<title>Node1&#45;&gt;Node25</title>
<path fill="none" stroke="#63b8ff" d="M1327.42,-804.15C1309.89,-797.24 1290.99,-787 1278,-772.25 1222.08,-708.74 1211.38,-599.32 1209.42,-567.45"/>
<polygon fill="#63b8ff" stroke="#63b8ff" points="1325.93,-807.7 1336.53,-807.85 1328.34,-801.13 1325.93,-807.7"/>
</g>
<!-- Node26 -->
<g id="node26" class="node">
<title>Node26</title>
<g id="a_node26"><a xlink:href="v8-profiler_8h.html" target="_top" xlink:title=" ">
<polygon fill="white" stroke="#666666" points="1571.62,-500.62 1472.38,-500.62 1472.38,-481.38 1571.62,-481.38 1571.62,-500.62"/>
<text text-anchor="middle" x="1522" y="-487.12" font-family="Helvetica,sans-Serif" font-size="10.00">include/v8&#45;profiler.h</text>
</a>
</g>
</g>
<!-- Node1&#45;&gt;Node26 -->
<g id="edge115" class="edge">
<title>Node1&#45;&gt;Node26</title>
<path fill="none" stroke="#63b8ff" d="M1410.81,-803.94C1454.95,-786.14 1522,-749.56 1522,-691.5 1522,-691.5 1522,-691.5 1522,-623 1522,-577.06 1522,-522.06 1522,-500.89"/>
<polygon fill="#63b8ff" stroke="#63b8ff" points="1409.74,-800.98 1401.68,-807.86 1412.27,-807.51 1409.74,-800.98"/>
</g>
<!-- Node27 -->
<g id="node27" class="node">
<title>Node27</title>
<g id="a_node27"><a xlink:href="v8-object_8h.html" target="_top" xlink:title=" ">
<polygon fill="white" stroke="#666666" points="2086.5,-567.12 1989.5,-567.12 1989.5,-547.88 2086.5,-547.88 2086.5,-567.12"/>
<text text-anchor="middle" x="2038" y="-553.62" font-family="Helvetica,sans-Serif" font-size="10.00">include/v8&#45;object.h</text>
</a>
</g>
</g>
<!-- Node1&#45;&gt;Node27 -->
<g id="edge106" class="edge">
<title>Node1&#45;&gt;Node27</title>
<path fill="none" stroke="#63b8ff" d="M1445.66,-814.63C1584.29,-809.79 1876.29,-796.81 1915,-772.25 1994.17,-722.02 2027.9,-601.3 2036,-567.46"/>
<polygon fill="#63b8ff" stroke="#63b8ff" points="1445.61,-811.16 1435.74,-815 1445.85,-818.15 1445.61,-811.16"/>
</g>
<!-- Node28 -->
<g id="node28" class="node">
<title>Node28</title>
<g id="a_node28"><a xlink:href="v8-date_8h.html" target="_top" xlink:title=" ">
<polygon fill="white" stroke="#666666" points="2428.75,-500.62 2339.25,-500.62 2339.25,-481.38 2428.75,-481.38 2428.75,-500.62"/>
<text text-anchor="middle" x="2384" y="-487.12" font-family="Helvetica,sans-Serif" font-size="10.00">include/v8&#45;date.h</text>
</a>
</g>
</g>
<!-- Node1&#45;&gt;Node28 -->
<g id="edge87" class="edge">
<title>Node1&#45;&gt;Node28</title>
<path fill="none" stroke="#63b8ff" d="M1445.44,-815.94C1607.09,-813.29 1992.88,-803.78 2119,-772.25 2202.49,-751.38 2295,-777.56 2295,-691.5 2295,-691.5 2295,-691.5 2295,-623 2295,-568.83 2347.7,-520.46 2372,-501.04"/>
<polygon fill="#63b8ff" stroke="#63b8ff" points="1445.61,-812.45 1435.66,-816.11 1445.72,-819.45 1445.61,-812.45"/>
</g>
<!-- Node29 -->
<g id="node29" class="node">
<title>Node29</title>
<g id="a_node29"><a xlink:href="v8-exception_8h.html" target="_top" xlink:title=" ">
<polygon fill="white" stroke="#666666" points="2155,-500.62 2043,-500.62 2043,-481.38 2155,-481.38 2155,-500.62"/>
<text text-anchor="middle" x="2099" y="-487.12" font-family="Helvetica,sans-Serif" font-size="10.00">include/v8&#45;exception.h</text>
</a>
</g>
</g>
<!-- Node1&#45;&gt;Node29 -->
<g id="edge92" class="edge">
<title>Node1&#45;&gt;Node29</title>
<path fill="none" stroke="#63b8ff" d="M1445.35,-814.51C1577.47,-809.65 1852.68,-796.87 1945,-772.25 2025.82,-750.69 2115,-775.15 2115,-691.5 2115,-691.5 2115,-691.5 2115,-623 2115,-576.72 2105.04,-521.91 2100.84,-500.85"/>
<polygon fill="#63b8ff" stroke="#63b8ff" points="1445.42,-811.04 1435.55,-814.9 1445.67,-818.04 1445.42,-811.04"/>
</g>
<!-- Node30 -->
<g id="node30" class="node">
<title>Node30</title>
<g id="a_node30"><a xlink:href="v8-primitive-object_8h.html" target="_top" xlink:title=" ">
<polygon fill="white" stroke="#666666" points="2547,-506.25 2447,-506.25 2447,-475.75 2547,-475.75 2547,-506.25"/>
<text text-anchor="start" x="2455" y="-492.75" font-family="Helvetica,sans-Serif" font-size="10.00">include/v8&#45;primitive</text>
<text text-anchor="middle" x="2497" y="-481.5" font-family="Helvetica,sans-Serif" font-size="10.00">&#45;object.h</text>
</a>
</g>
</g>
<!-- Node1&#45;&gt;Node30 -->
<g id="edge113" class="edge">
<title>Node1&#45;&gt;Node30</title>
<path fill="none" stroke="#63b8ff" d="M1445.58,-816.43C1621.21,-814.79 2065.21,-807.22 2209,-772.25 2293.8,-751.63 2388,-778.78 2388,-691.5 2388,-691.5 2388,-691.5 2388,-623 2388,-570.48 2440.4,-527.82 2472.54,-506.59"/>
<polygon fill="#63b8ff" stroke="#63b8ff" points="1445.63,-812.94 1435.66,-816.52 1445.69,-819.93 1445.63,-812.94"/>
</g>
<!-- Node31 -->
<g id="node31" class="node">
<title>Node31</title>
<g id="a_node31"><a xlink:href="v8-promise_8h.html" target="_top" xlink:title=" ">
<polygon fill="white" stroke="#666666" points="1834.62,-500.62 1729.38,-500.62 1729.38,-481.38 1834.62,-481.38 1834.62,-500.62"/>
<text text-anchor="middle" x="1782" y="-487.12" font-family="Helvetica,sans-Serif" font-size="10.00">include/v8&#45;promise.h</text>
</a>
</g>
</g>
<!-- Node1&#45;&gt;Node31 -->
<g id="edge116" class="edge">
<title>Node1&#45;&gt;Node31</title>
<path fill="none" stroke="#63b8ff" d="M1445.08,-808.82C1558.54,-794.11 1766,-758.1 1766,-691.5 1766,-691.5 1766,-691.5 1766,-623 1766,-576.72 1775.96,-521.91 1780.16,-500.85"/>
<polygon fill="#63b8ff" stroke="#63b8ff" points="1444.88,-805.44 1435.41,-810.18 1445.77,-812.39 1444.88,-805.44"/>
</g>
<!-- Node32 -->
<g id="node32" class="node">
<title>Node32</title>
<g id="a_node32"><a xlink:href="v8-statistics_8h.html" target="_top" xlink:title=" ">
<polygon fill="white" stroke="#666666" points="1354.25,-439.75 1243.75,-439.75 1243.75,-420.5 1354.25,-420.5 1354.25,-439.75"/>
<text text-anchor="middle" x="1299" y="-426.25" font-family="Helvetica,sans-Serif" font-size="10.00">include/v8&#45;statistics.h</text>
</a>
</g>
</g>
<!-- Node1&#45;&gt;Node32 -->
<g id="edge121" class="edge">
<title>Node1&#45;&gt;Node32</title>
<path fill="none" stroke="#63b8ff" d="M1344.57,-802.45C1332.53,-794.98 1319.37,-784.78 1311,-772.25 1290.52,-741.59 1292,-728.37 1292,-691.5 1292,-691.5 1292,-691.5 1292,-556.5 1292,-512.9 1296.27,-460.9 1298.14,-440.24"/>
<polygon fill="#63b8ff" stroke="#63b8ff" points="1342.47,-805.85 1352.87,-807.84 1345.98,-799.8 1342.47,-805.85"/>
</g>
<!-- Node33 -->
<g id="node33" class="node">
<title>Node33</title>
<g id="a_node33"><a xlink:href="v8-regexp_8h.html" target="_top" xlink:title=" ">
<polygon fill="white" stroke="#666666" points="2702.62,-500.62 2603.38,-500.62 2603.38,-481.38 2702.62,-481.38 2702.62,-500.62"/>
<text text-anchor="middle" x="2653" y="-487.12" font-family="Helvetica,sans-Serif" font-size="10.00">include/v8&#45;regexp.h</text>
</a>
</g>
</g>
<!-- Node1&#45;&gt;Node33 -->
<g id="edge118" class="edge">
<title>Node1&#45;&gt;Node33</title>
<path fill="none" stroke="#63b8ff" d="M1445.39,-816.53C1700.34,-815.02 2543.68,-807.37 2589,-772.25 2618.59,-749.32 2613,-728.94 2613,-691.5 2613,-691.5 2613,-691.5 2613,-623 2613,-575.2 2637.66,-521.7 2648.25,-500.92"/>
<polygon fill="#63b8ff" stroke="#63b8ff" points="1445.4,-813.04 1435.42,-816.59 1445.44,-820.04 1445.4,-813.04"/>
</g>
<!-- Node34 -->
<g id="node34" class="node">
<title>Node34</title>
<g id="a_node34"><a xlink:href="v8-wasm_8h.html" target="_top" xlink:title=" ">
<polygon fill="white" stroke="#666666" points="2856.5,-500.62 2759.5,-500.62 2759.5,-481.38 2856.5,-481.38 2856.5,-500.62"/>
<text text-anchor="middle" x="2808" y="-487.12" font-family="Helvetica,sans-Serif" font-size="10.00">include/v8&#45;wasm.h</text>
</a>
</g>
</g>
<!-- Node1&#45;&gt;Node34 -->
<g id="edge133" class="edge">
<title>Node1&#45;&gt;Node34</title>
<path fill="none" stroke="#63b8ff" d="M1445.48,-816.56C1714.71,-815.13 2648.43,-807.62 2777,-772.25 2848.5,-752.58 2923,-765.65 2923,-691.5 2923,-691.5 2923,-691.5 2923,-623 2923,-564.29 2856.96,-519.33 2824.97,-501"/>
<polygon fill="#63b8ff" stroke="#63b8ff" points="1445.65,-813.07 1435.67,-816.62 1445.69,-820.07 1445.65,-813.07"/>
</g>
<!-- Node35 -->
<g id="node35" class="node">
<title>Node35</title>
<g id="a_node35"><a xlink:href="v8-value_8h.html" target="_top" xlink:title=" ">
<polygon fill="white" stroke="#666666" points="428,-700.12 334,-700.12 334,-680.88 428,-680.88 428,-700.12"/>
<text text-anchor="middle" x="381" y="-686.62" font-family="Helvetica,sans-Serif" font-size="10.00">include/v8&#45;value.h</text>
</a>
</g>
</g>
<!-- Node1&#45;&gt;Node35 -->
<g id="edge132" class="edge">
<title>Node1&#45;&gt;Node35</title>
<path fill="none" stroke="#63b8ff" d="M1300.57,-816.91C1094.86,-816.53 517.08,-811.9 442,-772.25 411.86,-756.33 392.37,-718.17 384.7,-700.61"/>
<polygon fill="#63b8ff" stroke="#63b8ff" points="1300.54,-820.41 1310.54,-816.93 1300.55,-813.41 1300.54,-820.41"/>
</g>
<!-- Node37 -->
<g id="node37" class="node">
<title>Node37</title>
<g id="a_node37"><a xlink:href="v8-embedder-state-scope_8h.html" target="_top" xlink:title=" ">
<polygon fill="white" stroke="#666666" points="1426,-772.25 1320,-772.25 1320,-741.75 1426,-741.75 1426,-772.25"/>
<text text-anchor="start" x="1328" y="-758.75" font-family="Helvetica,sans-Serif" font-size="10.00">include/v8&#45;embedder</text>
<text text-anchor="middle" x="1373" y="-747.5" font-family="Helvetica,sans-Serif" font-size="10.00">&#45;state&#45;scope.h</text>
</a>
</g>
</g>
<!-- Node1&#45;&gt;Node37 -->
<g id="edge88" class="edge">
<title>Node1&#45;&gt;Node37</title>
<path fill="none" stroke="#63b8ff" d="M1373,-796.95C1373,-788.95 1373,-779.9 1373,-772.53"/>
<polygon fill="#63b8ff" stroke="#63b8ff" points="1369.5,-796.93 1373,-806.93 1376.5,-796.93 1369.5,-796.93"/>
</g>
<!-- Node39 -->
<g id="node39" class="node">
<title>Node39</title>
<g id="a_node39"><a xlink:href="v8-forward_8h.html" target="_top" xlink:title=" ">
<polygon fill="white" stroke="#666666" points="2744.5,-766.62 2641.5,-766.62 2641.5,-747.38 2744.5,-747.38 2744.5,-766.62"/>
<text text-anchor="middle" x="2693" y="-753.12" font-family="Helvetica,sans-Serif" font-size="10.00">include/v8&#45;forward.h</text>
</a>
</g>
</g>
<!-- Node1&#45;&gt;Node39 -->
<g id="edge95" class="edge">
<title>Node1&#45;&gt;Node39</title>
<path fill="none" stroke="#63b8ff" d="M1445.72,-815.98C1677.33,-812.86 2396.1,-801.05 2627,-772.25 2636.65,-771.05 2646.99,-769.12 2656.54,-767.08"/>
<polygon fill="#63b8ff" stroke="#63b8ff" points="1445.69,-812.49 1435.73,-816.13 1445.78,-819.49 1445.69,-812.49"/>
</g>
<!-- Node40 -->
<g id="node40" class="node">
<title>Node40</title>
<g id="a_node40"><a xlink:href="v8-json_8h.html" target="_top" xlink:title=" ">
<polygon fill="white" stroke="#666666" points="3001.38,-74.5 2912.62,-74.5 2912.62,-55.25 3001.38,-55.25 3001.38,-74.5"/>
<text text-anchor="middle" x="2957" y="-61" font-family="Helvetica,sans-Serif" font-size="10.00">include/v8&#45;json.h</text>
</a>
</g>
</g>
<!-- Node1&#45;&gt;Node40 -->
<g id="edge100" class="edge">
<title>Node1&#45;&gt;Node40</title>
<path fill="none" stroke="#63b8ff" d="M1445.25,-817.21C1723.6,-818.14 2717.62,-818.19 2851,-772.25 2908.34,-752.5 2961,-752.15 2961,-691.5 2961,-691.5 2961,-691.5 2961,-185.62 2961,-144.23 2958.58,-94.83 2957.51,-74.88"/>
<polygon fill="#63b8ff" stroke="#63b8ff" points="1445.49,-813.7 1435.48,-817.17 1445.47,-820.7 1445.49,-813.7"/>
</g>
<!-- Node41 -->
<g id="node41" class="node">
<title>Node41</title>
<g id="a_node41"><a xlink:href="v8-microtask-queue_8h.html" target="_top" xlink:title=" ">
<polygon fill="white" stroke="#666666" points="3095,-705.75 2989,-705.75 2989,-675.25 3095,-675.25 3095,-705.75"/>
<text text-anchor="start" x="2997" y="-692.25" font-family="Helvetica,sans-Serif" font-size="10.00">include/v8&#45;microtask</text>
<text text-anchor="middle" x="3042" y="-681" font-family="Helvetica,sans-Serif" font-size="10.00">&#45;queue.h</text>
</a>
</g>
</g>
<!-- Node1&#45;&gt;Node41 -->
<g id="edge104" class="edge">
<title>Node1&#45;&gt;Node41</title>
<path fill="none" stroke="#63b8ff" d="M1445.55,-816.52C1749.2,-814.8 2905.5,-806.08 2975,-772.25 3003.83,-758.22 3024.68,-725.31 3034.91,-706.12"/>
<polygon fill="#63b8ff" stroke="#63b8ff" points="1445.67,-813.02 1435.69,-816.58 1445.71,-820.02 1445.67,-813.02"/>
</g>
<!-- Node42 -->
<g id="node42" class="node">
<title>Node42</title>
<g id="a_node42"><a xlink:href="v8-persistent-handle_8h.html" target="_top" xlink:title=" ">
<polygon fill="white" stroke="#666666" points="1690,-639.25 1584,-639.25 1584,-608.75 1690,-608.75 1690,-639.25"/>
<text text-anchor="start" x="1592" y="-625.75" font-family="Helvetica,sans-Serif" font-size="10.00">include/v8&#45;persistent</text>
<text text-anchor="middle" x="1637" y="-614.5" font-family="Helvetica,sans-Serif" font-size="10.00">&#45;handle.h</text>
</a>
</g>
</g>
<!-- Node1&#45;&gt;Node42 -->
<g id="edge107" class="edge">
<title>Node1&#45;&gt;Node42</title>
<path fill="none" stroke="#63b8ff" d="M1445.17,-808.3C1475.34,-802.01 1509.48,-791.12 1536,-772.25 1585.51,-737.03 1618.41,-669.42 1631.11,-639.67"/>
<polygon fill="#63b8ff" stroke="#63b8ff" points="1444.82,-805 1435.67,-810.34 1446.16,-811.87 1444.82,-805"/>
</g>
<!-- Node43 -->
<g id="node43" class="node">
<title>Node43</title>
<g id="a_node43"><a xlink:href="v8-traced-handle_8h.html" target="_top" xlink:title=" ">
<polygon fill="white" stroke="#666666" points="2837.62,-633.62 2708.38,-633.62 2708.38,-614.38 2837.62,-614.38 2837.62,-633.62"/>
<text text-anchor="middle" x="2773" y="-620.12" font-family="Helvetica,sans-Serif" font-size="10.00">include/v8&#45;traced&#45;handle.h</text>
</a>
</g>
</g>
<!-- Node1&#45;&gt;Node43 -->
<g id="edge123" class="edge">
<title>Node1&#45;&gt;Node43</title>
<path fill="none" stroke="#63b8ff" d="M1445.06,-817.11C1722.03,-817.68 2705.21,-816.57 2754,-772.25 2794.07,-735.86 2781.18,-660.08 2775.26,-634.03"/>
<polygon fill="#63b8ff" stroke="#63b8ff" points="1445.34,-813.61 1435.34,-817.08 1445.33,-820.61 1445.34,-813.61"/>
</g>
<!-- Node46 -->
<g id="node46" class="node">
<title>Node46</title>
<g id="a_node46"><a xlink:href="v8-value-serializer_8h.html" target="_top" xlink:title=" ">
<polygon fill="white" stroke="#666666" points="3192.62,-251.5 3057.38,-251.5 3057.38,-232.25 3192.62,-232.25 3192.62,-251.5"/>
<text text-anchor="middle" x="3125" y="-238" font-family="Helvetica,sans-Serif" font-size="10.00">include/v8&#45;value&#45;serializer.h</text>
</a>
</g>
</g>
<!-- Node1&#45;&gt;Node46 -->
<g id="edge130" class="edge">
<title>Node1&#45;&gt;Node46</title>
<path fill="none" stroke="#63b8ff" d="M1445.29,-817.28C1741.83,-818.64 2856.43,-820.45 3006,-772.25 3066.49,-752.76 3124,-755.05 3124,-691.5 3124,-691.5 3124,-691.5 3124,-368.25 3124,-324.72 3124.61,-272.68 3124.88,-252"/>
<polygon fill="#63b8ff" stroke="#63b8ff" points="1445.69,-813.78 1435.67,-817.23 1445.66,-820.78 1445.69,-813.78"/>
</g>
<!-- Node2&#45;&gt;Node3 -->
<g id="edge2" class="edge">
<title>Node2&#45;&gt;Node3</title>
<path fill="none" stroke="#63b8ff" d="M1058.01,-470.55C1063.35,-449.44 1071.87,-414.71 1078,-384.5 1088.12,-334.64 1097.35,-274.31 1100.68,-251.86"/>
<polygon fill="#63b8ff" stroke="#63b8ff" points="1054.42,-469.46 1055.34,-480.01 1061.2,-471.19 1054.42,-469.46"/>
</g>
<!-- Node2&#45;&gt;Node5 -->
<g id="edge18" class="edge">
<title>Node2&#45;&gt;Node5</title>
<path fill="none" stroke="#63b8ff" d="M1046.74,-470.58C1033.55,-426.14 1006.97,-314.54 1043,-232.25 1052.46,-210.64 1066.38,-213.93 1082,-196.25 1133.03,-138.47 1120.35,-100.16 1183,-55.25 1216.82,-31.01 1264,-19.74 1295.71,-14.64"/>
<polygon fill="#63b8ff" stroke="#63b8ff" points="1043.67,-471.51 1049.97,-480.03 1050.36,-469.45 1043.67,-471.51"/>
</g>
<!-- Node2&#45;&gt;Node12 -->
<g id="edge15" class="edge">
<title>Node2&#45;&gt;Node12</title>
<path fill="none" stroke="#63b8ff" d="M982.58,-483.94C847.47,-472.31 554.15,-447.06 428.3,-436.23"/>
<polygon fill="#63b8ff" stroke="#63b8ff" points="981.93,-487.48 992.2,-484.85 982.53,-480.51 981.93,-487.48"/>
</g>
<!-- Node4 -->
<g id="node4" class="node">
<title>Node4</title>
<g id="a_node4"><a xlink:href="v8-initialization_8h.html" target="_top" xlink:title=" ">
<polygon fill="white" stroke="#666666" points="1073.5,-196.25 952.5,-196.25 952.5,-177 1073.5,-177 1073.5,-196.25"/>
<text text-anchor="middle" x="1013" y="-182.75" font-family="Helvetica,sans-Serif" font-size="10.00">include/v8&#45;initialization.h</text>
</a>
</g>
</g>
<!-- Node3&#45;&gt;Node4 -->
<g id="edge3" class="edge">
<title>Node3&#45;&gt;Node4</title>
<path fill="none" stroke="#63b8ff" d="M1077.71,-226.34C1061.89,-216.88 1041.75,-204.83 1028.17,-196.7"/>
<polygon fill="#63b8ff" stroke="#63b8ff" points="1075.52,-229.71 1085.9,-231.84 1079.12,-223.7 1075.52,-229.71"/>
</g>
<!-- Node3&#45;&gt;Node5 -->
<g id="edge14" class="edge">
<title>Node3&#45;&gt;Node5</title>
<path fill="none" stroke="#63b8ff" d="M1110.1,-221.91C1128.5,-179.55 1174.06,-79.07 1202,-55.25 1228.77,-32.42 1267.93,-21.04 1295.87,-15.52"/>
<polygon fill="#63b8ff" stroke="#63b8ff" points="1106.49,-220.42 1105.75,-230.99 1112.92,-223.19 1106.49,-220.42"/>
</g>
<!-- Node3&#45;&gt;Node6 -->
<g id="edge5" class="edge">
<title>Node3&#45;&gt;Node6</title>
<path fill="none" stroke="#63b8ff" d="M1041.32,-230.48C984.02,-220.67 898.95,-206.11 844.23,-196.74"/>
<polygon fill="#63b8ff" stroke="#63b8ff" points="1040.59,-234.08 1051.03,-232.32 1041.77,-227.18 1040.59,-234.08"/>
</g>
<!-- Node3&#45;&gt;Node8 -->
<g id="edge7" class="edge">
<title>Node3&#45;&gt;Node8</title>
<path fill="none" stroke="#63b8ff" d="M1041.38,-234.08C967.19,-225.66 837.77,-210.67 727,-196.25 724.03,-195.86 720.98,-195.46 717.9,-195.04"/>
<polygon fill="#63b8ff" stroke="#63b8ff" points="1040.58,-237.62 1050.91,-235.27 1041.37,-230.67 1040.58,-237.62"/>
</g>
<!-- Node3&#45;&gt;Node9 -->
<g id="edge8" class="edge">
<title>Node3&#45;&gt;Node9</title>
<path fill="none" stroke="#63b8ff" d="M1041.51,-236.36C905.23,-226.18 575.89,-201.58 444.49,-191.77"/>
<polygon fill="#63b8ff" stroke="#63b8ff" points="1040.91,-239.9 1051.15,-237.15 1041.44,-232.92 1040.91,-239.9"/>
</g>
<!-- Node4&#45;&gt;Node5 -->
<g id="edge4" class="edge">
<title>Node4&#45;&gt;Node5</title>
<path fill="none" stroke="#63b8ff" d="M1018.46,-166.09C1027.68,-136.97 1049.21,-82.68 1088,-55.25 1120.96,-31.94 1237.16,-18.72 1295.72,-13.4"/>
<polygon fill="#63b8ff" stroke="#63b8ff" points="1014.84,-164.97 1015.34,-175.55 1021.55,-166.97 1014.84,-164.97"/>
</g>
<!-- Node7 -->
<g id="node7" class="node">
<title>Node7</title>
<g id="a_node7"><a xlink:href="v8-inspector-protocol_8h.html" target="_top" xlink:title=" ">
<polygon fill="white" stroke="#666666" points="842.5,-141 739.5,-141 739.5,-110.5 842.5,-110.5 842.5,-141"/>
<text text-anchor="start" x="747.5" y="-127.5" font-family="Helvetica,sans-Serif" font-size="10.00">include/v8&#45;inspector</text>
<text text-anchor="middle" x="791" y="-116.25" font-family="Helvetica,sans-Serif" font-size="10.00">&#45;protocol.h</text>
</a>
</g>
</g>
<!-- Node6&#45;&gt;Node7 -->
<g id="edge6" class="edge">
<title>Node6&#45;&gt;Node7</title>
<path fill="none" stroke="#63b8ff" d="M791,-165.7C791,-157.7 791,-148.65 791,-141.28"/>
<polygon fill="#63b8ff" stroke="#63b8ff" points="787.5,-165.68 791,-175.68 794.5,-165.68 787.5,-165.68"/>
</g>
<!-- Node9&#45;&gt;Node5 -->
<g id="edge13" class="edge">
<title>Node9&#45;&gt;Node5</title>
<path fill="none" stroke="#63b8ff" d="M393.01,-165.92C400.24,-136.13 418.52,-80.42 458,-55.25 529.54,-9.64 1142.83,-9.68 1295.63,-10.4"/>
<polygon fill="#63b8ff" stroke="#63b8ff" points="389.39,-165.09 390.63,-175.61 396.22,-166.61 389.39,-165.09"/>
</g>
<!-- Node9&#45;&gt;Node10 -->
<g id="edge9" class="edge">
<title>Node9&#45;&gt;Node10</title>
<path fill="none" stroke="#63b8ff" d="M371.4,-169.44C359.61,-158.59 344.53,-144.71 334.81,-135.78"/>
<polygon fill="#63b8ff" stroke="#63b8ff" points="368.55,-171.49 378.28,-175.68 373.29,-166.34 368.55,-171.49"/>
</g>
<!-- Node10&#45;&gt;Node5 -->
<g id="edge12" class="edge">
<title>Node10&#45;&gt;Node5</title>
<path fill="none" stroke="#63b8ff" d="M310.89,-107.16C300.22,-91.63 289.52,-69.33 303,-55.25 338.08,-18.61 1121.01,-11.85 1295.67,-10.8"/>
<polygon fill="#63b8ff" stroke="#63b8ff" points="308.55,-108.87 317.31,-114.82 314.17,-104.7 308.55,-108.87"/>
</g>
<!-- Node10&#45;&gt;Node11 -->
<g id="edge10" class="edge">
<title>Node10&#45;&gt;Node11</title>
<path fill="none" stroke="#63b8ff" d="M335.65,-106.31C341.69,-95.85 348.98,-83.23 353.79,-74.9"/>
<polygon fill="#63b8ff" stroke="#63b8ff" points="332.13,-104.4 330.16,-114.81 338.2,-107.9 332.13,-104.4"/>
</g>
<!-- Node11&#45;&gt;Node5 -->
<g id="edge11" class="edge">
<title>Node11&#45;&gt;Node5</title>
<path fill="none" stroke="#63b8ff" d="M416.53,-55.59C417.7,-55.47 418.86,-55.36 420,-55.25 760.92,-22.86 1176.05,-13.34 1296.04,-11.17"/>
<polygon fill="#63b8ff" stroke="#63b8ff" points="416.45,-52.19 406.91,-56.8 417.24,-59.15 416.45,-52.19"/>
</g>
<!-- Node12&#45;&gt;Node5 -->
<g id="edge17" class="edge">
<title>Node12&#45;&gt;Node5</title>
<path fill="none" stroke="#63b8ff" d="M376.26,-410.02C391.24,-370.39 426.39,-276.25 453,-196.25 473.68,-134.08 444.41,-95.63 496,-55.25 527.97,-30.23 1142.52,-14.83 1295.66,-11.37"/>
<polygon fill="#63b8ff" stroke="#63b8ff" points="372.64,-408.71 372.37,-419.3 379.18,-411.19 372.64,-408.71"/>
</g>
<!-- Node12&#45;&gt;Node13 -->
<g id="edge16" class="edge">
<title>Node12&#45;&gt;Node13</title>
<path fill="none" stroke="#63b8ff" d="M354.73,-411.98C347.55,-403.35 338.94,-393.01 332.09,-384.78"/>
<polygon fill="#63b8ff" stroke="#63b8ff" points="352.47,-413.74 361.56,-419.18 357.85,-409.26 352.47,-413.74"/>
</g>
<!-- Node14&#45;&gt;Node3 -->
<g id="edge21" class="edge">
<title>Node14&#45;&gt;Node3</title>
<path fill="none" stroke="#63b8ff" d="M868.3,-416.88C891.95,-409.48 920.6,-398.72 944,-384.5 998.58,-351.35 1002.21,-329.85 1050,-287.5 1064.25,-274.88 1081,-260.6 1091.56,-251.67"/>
<polygon fill="#63b8ff" stroke="#63b8ff" points="867.39,-413.8 858.82,-420.04 869.41,-420.5 867.39,-413.8"/>
</g>
<!-- Node14&#45;&gt;Node4 -->
<g id="edge20" class="edge">
<title>Node14&#45;&gt;Node4</title>
<path fill="none" stroke="#63b8ff" d="M821.24,-409.11C821.15,-379.47 825.07,-323.53 853,-287.5 888.91,-241.17 952.82,-210.8 988.03,-196.72"/>
<polygon fill="#63b8ff" stroke="#63b8ff" points="817.76,-409.15 821.46,-419.07 824.76,-409 817.76,-409.15"/>
</g>
<!-- Node14&#45;&gt;Node15 -->
<g id="edge22" class="edge">
<title>Node14&#45;&gt;Node15</title>
<path fill="none" stroke="#63b8ff" d="M840.15,-412.94C852.31,-402.09 867.86,-388.21 877.88,-379.28"/>
<polygon fill="#63b8ff" stroke="#63b8ff" points="838.16,-409.91 833.02,-419.18 842.82,-415.14 838.16,-409.91"/>
</g>
<!-- Node15&#45;&gt;Node5 -->
<g id="edge26" class="edge">
<title>Node15&#45;&gt;Node5</title>
<path fill="none" stroke="#63b8ff" d="M872.1,-351.08C864.75,-341.97 856.82,-330.17 853,-318 848.94,-305.07 849.33,-300.55 853,-287.5 887.96,-163.07 909.89,-107.73 1028,-55.25 1118.57,-15.01 1237.97,-9.74 1295.75,-9.83"/>
<polygon fill="#63b8ff" stroke="#63b8ff" points="869.9,-352.9 879.08,-358.2 875.21,-348.33 869.9,-352.9"/>
</g>
<!-- Node16 -->
<g id="node16" class="node">
<title>Node16</title>
<g id="a_node16"><a xlink:href="v8-debug_8h.html" target="_top" xlink:title=" ">
<polygon fill="white" stroke="#666666" points="959.5,-312.38 862.5,-312.38 862.5,-293.12 959.5,-293.12 959.5,-312.38"/>
<text text-anchor="middle" x="911" y="-298.88" font-family="Helvetica,sans-Serif" font-size="10.00">include/v8&#45;debug.h</text>
</a>
</g>
</g>
<!-- Node15&#45;&gt;Node16 -->
<g id="edge23" class="edge">
<title>Node15&#45;&gt;Node16</title>
<path fill="none" stroke="#63b8ff" d="M894.77,-349.27C899.08,-337.17 904.48,-322.05 907.83,-312.64"/>
<polygon fill="#63b8ff" stroke="#63b8ff" points="891.26,-347.69 891.2,-358.28 897.85,-350.04 891.26,-347.69"/>
</g>
<!-- Node16&#45;&gt;Node3 -->
<g id="edge24" class="edge">
<title>Node16&#45;&gt;Node3</title>
<path fill="none" stroke="#63b8ff" d="M950.66,-289.53C986.96,-278.34 1039.86,-262.03 1072.54,-251.96"/>
<polygon fill="#63b8ff" stroke="#63b8ff" points="949.95,-286.39 941.43,-292.68 952.01,-293.08 949.95,-286.39"/>
</g>
<!-- Node16&#45;&gt;Node5 -->
<g id="edge25" class="edge">
<title>Node16&#45;&gt;Node5</title>
<path fill="none" stroke="#63b8ff" d="M912.83,-281.77C915.9,-256.06 923.76,-210.71 943,-177 980.98,-110.48 996.9,-90.32 1065,-55.25 1140.7,-16.26 1243.14,-10.18 1295.73,-9.91"/>
<polygon fill="#63b8ff" stroke="#63b8ff" points="909.25,-281.36 911.68,-291.68 916.21,-282.1 909.25,-281.36"/>
</g>
<!-- Node17&#45;&gt;Node5 -->
<g id="edge28" class="edge">
<title>Node17&#45;&gt;Node5</title>
<path fill="none" stroke="#63b8ff" d="M2285.56,-473.95C2308.96,-452.84 2345,-413.32 2345,-370.25 2345,-370.25 2345,-370.25 2345,-124.75 2345,-52.08 2267.5,-72.89 2197,-55.25 2035.07,-14.73 1504.29,-10.92 1364.17,-10.63"/>
<polygon fill="#63b8ff" stroke="#63b8ff" points="2283.57,-471.92 2278.32,-481.12 2288.16,-477.2 2283.57,-471.92"/>
</g>
<!-- Node18&#45;&gt;Node3 -->
<g id="edge33" class="edge">
<title>Node18&#45;&gt;Node3</title>
<path fill="none" stroke="#63b8ff" d="M770.91,-736.6C753.9,-671.37 700,-462.34 700,-431.12 700,-431.12 700,-431.12 700,-368.25 700,-295.33 944.14,-259.92 1051.9,-247.84"/>
<polygon fill="#63b8ff" stroke="#63b8ff" points="767.73,-737.24 773.64,-746.03 774.5,-735.47 767.73,-737.24"/>
</g>
<!-- Node18&#45;&gt;Node5 -->
<g id="edge86" class="edge">
<title>Node18&#45;&gt;Node5</title>
<path fill="none" stroke="#63b8ff" d="M743.36,-742.78C685.27,-716.83 570,-653.38 570,-558.5 570,-558.5 570,-558.5 570,-429.12 570,-342.16 510,-329.84 510,-242.88 510,-242.88 510,-242.88 510,-124.75 510,-88.89 520.38,-73.92 551,-55.25 615.19,-16.11 1153.87,-11.3 1295.82,-10.71"/>
<polygon fill="#63b8ff" stroke="#63b8ff" points="741.6,-746.26 752.17,-747.04 744.39,-739.84 741.6,-746.26"/>
</g>
<!-- Node18&#45;&gt;Node10 -->
<g id="edge32" class="edge">
<title>Node18&#45;&gt;Node10</title>
<path fill="none" stroke="#63b8ff" d="M720.24,-750.53C648.22,-740.04 532,-709.95 532,-625 532,-625 532,-625 532,-429.12 532,-290.65 374.21,-325.69 325,-196.25 317.2,-175.72 320.49,-149.26 323.04,-135.67"/>
<polygon fill="#63b8ff" stroke="#63b8ff" points="719.58,-754.11 729.96,-752 720.53,-747.17 719.58,-754.11"/>
</g>
<!-- Node18&#45;&gt;Node14 -->
<g id="edge31" class="edge">
<title>Node18&#45;&gt;Node14</title>
<path fill="none" stroke="#63b8ff" d="M785.14,-737.1C796.38,-712.08 814,-666.28 814,-625 814,-625 814,-625 814,-556.5 814,-512.88 818.88,-460.89 821.02,-440.24"/>
<polygon fill="#63b8ff" stroke="#63b8ff" points="781.56,-735.51 780.51,-746.05 787.9,-738.46 781.56,-735.51"/>
</g>
<!-- Node18&#45;&gt;Node15 -->
<g id="edge77" class="edge">
<title>Node18&#45;&gt;Node15</title>
<path fill="none" stroke="#63b8ff" d="M773.51,-736.38C765.07,-668.53 739.11,-446.52 757,-420.5 775.63,-393.4 811.04,-380.91 840.35,-375.15"/>
<polygon fill="#63b8ff" stroke="#63b8ff" points="770.14,-736.69 774.86,-746.18 777.09,-735.82 770.14,-736.69"/>
</g>
<!-- Node18&#45;&gt;Node19 -->
<g id="edge34" class="edge">
<title>Node18&#45;&gt;Node19</title>
<path fill="none" stroke="#63b8ff" d="M793.74,-739.71C804.01,-730.08 817.02,-717.51 828,-705.75 851.52,-680.57 877.17,-648.82 889.13,-633.74"/>
<polygon fill="#63b8ff" stroke="#63b8ff" points="791.82,-736.65 786.88,-746.03 796.58,-741.78 791.82,-736.65"/>
</g>
<!-- Node18&#45;&gt;Node23 -->
<g id="edge78" class="edge">
<title>Node18&#45;&gt;Node23</title>
<path fill="none" stroke="#63b8ff" d="M831.74,-749.8C981.51,-731.88 1386.62,-674.71 1465,-572.75 1491.28,-538.56 1435.59,-509.04 1463,-475.75 1484.57,-449.55 1576.27,-438.52 1636.6,-434.03"/>
<polygon fill="#63b8ff" stroke="#63b8ff" points="831.51,-746.42 821.99,-751.07 832.33,-753.37 831.51,-746.42"/>
</g>
<!-- Node18&#45;&gt;Node35 -->
<g id="edge79" class="edge">
<title>Node18&#45;&gt;Node35</title>
<path fill="none" stroke="#63b8ff" d="M720.49,-746.94C642.46,-734.19 501.69,-711.21 428.34,-699.23"/>
<polygon fill="#63b8ff" stroke="#63b8ff" points="719.64,-750.51 730.07,-748.66 720.77,-743.6 719.64,-750.51"/>
</g>
<!-- Node19&#45;&gt;Node3 -->
<g id="edge45" class="edge">
<title>Node19&#45;&gt;Node3</title>
<path fill="none" stroke="#63b8ff" d="M906,-604.56C942.85,-536.56 1070.35,-301.28 1097.07,-251.98"/>
<polygon fill="#63b8ff" stroke="#63b8ff" points="902.58,-602.52 900.89,-612.98 908.73,-605.85 902.58,-602.52"/>
</g>
<!-- Node19&#45;&gt;Node5 -->
<g id="edge76" class="edge">
<title>Node19&#45;&gt;Node5</title>
<path fill="none" stroke="#63b8ff" d="M872.23,-608.13C786.13,-552.37 501.04,-350.06 605,-177 678.23,-55.09 1162.1,-19.8 1295.82,-12.32"/>
<polygon fill="#63b8ff" stroke="#63b8ff" points="870.17,-611.61 880.48,-614.05 873.95,-605.71 870.17,-611.61"/>
</g>
<!-- Node19&#45;&gt;Node20 -->
<g id="edge35" class="edge">
<title>Node19&#45;&gt;Node20</title>
<path fill="none" stroke="#63b8ff" d="M851.31,-611.09C804.1,-598.51 730.69,-578.94 687.99,-567.56"/>
<polygon fill="#63b8ff" stroke="#63b8ff" points="850.28,-614.7 860.84,-613.9 852.08,-607.94 850.28,-614.7"/>
</g>
<!-- Node19&#45;&gt;Node21 -->
<g id="edge37" class="edge">
<title>Node19&#45;&gt;Node21</title>
<path fill="none" stroke="#63b8ff" d="M960.83,-614.82C1064.46,-601.74 1265.17,-576.4 1357.88,-564.7"/>
<polygon fill="#63b8ff" stroke="#63b8ff" points="960.69,-611.43 951.2,-616.16 961.56,-618.38 960.69,-611.43"/>
</g>
<!-- Node19&#45;&gt;Node25 -->
<g id="edge46" class="edge">
<title>Node19&#45;&gt;Node25</title>
<path fill="none" stroke="#63b8ff" d="M950.73,-611.72C1011.55,-599.19 1108.58,-579.19 1164.79,-567.61"/>
<polygon fill="#63b8ff" stroke="#63b8ff" points="950.27,-608.45 941.18,-613.9 951.68,-615.31 950.27,-608.45"/>
</g>
<!-- Node19&#45;&gt;Node27 -->
<g id="edge51" class="edge">
<title>Node19&#45;&gt;Node27</title>
<path fill="none" stroke="#63b8ff" d="M960.89,-619.34C1167.49,-607.67 1807.04,-571.54 1989.15,-561.26"/>
<polygon fill="#63b8ff" stroke="#63b8ff" points="960.72,-615.9 950.93,-619.95 961.11,-622.88 960.72,-615.9"/>
</g>
<!-- Node20&#45;&gt;Node5 -->
<g id="edge36" class="edge">
<title>Node20&#45;&gt;Node5</title>
<path fill="none" stroke="#63b8ff" d="M647.35,-537.38C624.13,-470.49 548,-250.67 548,-242.88 548,-242.88 548,-242.88 548,-124.75 548,-92.07 545.96,-74.99 572,-55.25 630.24,-11.11 1156.33,-9.96 1296.05,-10.44"/>
<polygon fill="#63b8ff" stroke="#63b8ff" points="644.24,-538.08 650.83,-546.38 650.85,-535.78 644.24,-538.08"/>
</g>
<!-- Node21&#45;&gt;Node3 -->
<g id="edge40" class="edge">
<title>Node21&#45;&gt;Node3</title>
<path fill="none" stroke="#63b8ff" d="M1367.02,-536.71C1329.28,-516.46 1272.96,-482.02 1235,-439.75 1183.79,-382.72 1201.91,-347.33 1154,-287.5 1142.7,-273.39 1126.48,-260.3 1115.18,-252"/>
<polygon fill="#63b8ff" stroke="#63b8ff" points="1365.19,-540.22 1375.67,-541.79 1368.45,-534.03 1365.19,-540.22"/>
</g>
<!-- Node21&#45;&gt;Node22 -->
<g id="edge38" class="edge">
<title>Node21&#45;&gt;Node22</title>
<path fill="none" stroke="#63b8ff" d="M1400.35,-531.41C1397.33,-514.18 1396.61,-491.64 1408,-475.75 1436.01,-436.68 1464.89,-456.37 1510,-439.75 1567.01,-418.75 1633.61,-392.81 1667.93,-379.34"/>
<polygon fill="#63b8ff" stroke="#63b8ff" points="1397.06,-531.79 1402.56,-540.84 1403.91,-530.33 1397.06,-531.79"/>
</g>
<!-- Node21&#45;&gt;Node23 -->
<g id="edge41" class="edge">
<title>Node21&#45;&gt;Node23</title>
<path fill="none" stroke="#63b8ff" d="M1407.46,-530.91C1409.21,-512.88 1414.6,-489.57 1430,-475.75 1459.68,-449.12 1569.01,-438.09 1636.4,-433.74"/>
<polygon fill="#63b8ff" stroke="#63b8ff" points="1403.91,-530.65 1406.77,-540.85 1410.89,-531.09 1403.91,-530.65"/>
</g>
<!-- Node24 -->
<g id="node24" class="node">
<title>Node24</title>
<g id="a_node24"><a xlink:href="v8-util_8h.html" target="_top" xlink:title=" ">
<polygon fill="white" stroke="#666666" points="1672.75,-500.62 1589.25,-500.62 1589.25,-481.38 1672.75,-481.38 1672.75,-500.62"/>
<text text-anchor="middle" x="1631" y="-487.12" font-family="Helvetica,sans-Serif" font-size="10.00">include/v8&#45;util.h</text>
</a>
</g>
</g>
<!-- Node21&#45;&gt;Node24 -->
<g id="edge44" class="edge">
<title>Node21&#45;&gt;Node24</title>
<path fill="none" stroke="#63b8ff" d="M1466.71,-539.31C1509.43,-527.01 1565.22,-510.94 1599.56,-501.05"/>
<polygon fill="#63b8ff" stroke="#63b8ff" points="1465.8,-536.21 1457.16,-542.35 1467.74,-542.94 1465.8,-536.21"/>
</g>
<!-- Node22&#45;&gt;Node5 -->
<g id="edge39" class="edge">
<title>Node22&#45;&gt;Node5</title>
<path fill="none" stroke="#63b8ff" d="M1685.69,-348.82C1679.47,-324.32 1670,-280.81 1670,-242.88 1670,-242.88 1670,-242.88 1670,-124.75 1670,-87.71 1655.22,-75.19 1624,-55.25 1581.47,-28.09 1432.44,-16.39 1364.37,-12.37"/>
<polygon fill="#63b8ff" stroke="#63b8ff" points="1682.49,-349.43 1688.42,-358.21 1689.26,-347.65 1682.49,-349.43"/>
</g>
<!-- Node23&#45;&gt;Node5 -->
<g id="edge43" class="edge">
<title>Node23&#45;&gt;Node5</title>
<path fill="none" stroke="#63b8ff" d="M1662.57,-414.7C1650.53,-407.23 1637.37,-397.03 1629,-384.5 1608.52,-353.84 1610,-340.62 1610,-303.75 1610,-303.75 1610,-303.75 1610,-124.75 1610,-92.07 1610.88,-76.44 1586,-55.25 1553.11,-27.24 1426.18,-16.17 1364.3,-12.36"/>
<polygon fill="#63b8ff" stroke="#63b8ff" points="1660.47,-418.1 1670.87,-420.09 1663.98,-412.05 1660.47,-418.1"/>
</g>
<!-- Node23&#45;&gt;Node22 -->
<g id="edge42" class="edge">
<title>Node23&#45;&gt;Node22</title>
<path fill="none" stroke="#63b8ff" d="M1691,-409.37C1691,-399.18 1691,-387.26 1691,-379.28"/>
<polygon fill="#63b8ff" stroke="#63b8ff" points="1687.5,-409.18 1691,-419.18 1694.5,-409.18 1687.5,-409.18"/>
</g>
<!-- Node25&#45;&gt;Node5 -->
<g id="edge50" class="edge">
<title>Node25&#45;&gt;Node5</title>
<path fill="none" stroke="#63b8ff" d="M1210.22,-536.89C1212.23,-502.95 1216,-431.06 1216,-370.25 1216,-370.25 1216,-370.25 1216,-124.75 1216,-72.52 1276.5,-35.82 1309.36,-19.74"/>
<polygon fill="#63b8ff" stroke="#63b8ff" points="1206.69,-536.39 1209.57,-546.59 1213.67,-536.82 1206.69,-536.39"/>
</g>
<!-- Node25&#45;&gt;Node15 -->
<g id="edge49" class="edge">
<title>Node25&#45;&gt;Node15</title>
<path fill="none" stroke="#63b8ff" d="M1142.83,-554.05C1095.45,-549.5 1031.98,-537.43 985,-506.25 972.07,-497.67 912.98,-408.4 893.93,-379.34"/>
<polygon fill="#63b8ff" stroke="#63b8ff" points="1142.33,-557.61 1152.6,-554.98 1142.94,-550.63 1142.33,-557.61"/>
</g>
<!-- Node25&#45;&gt;Node22 -->
<g id="edge47" class="edge">
<title>Node25&#45;&gt;Node22</title>
<path fill="none" stroke="#63b8ff" d="M1236.09,-542.55C1288.13,-516.15 1406.13,-458.13 1510,-420.5 1557.83,-403.17 1614.58,-388.3 1651.62,-379.33"/>
<polygon fill="#63b8ff" stroke="#63b8ff" points="1234.9,-539.74 1227.58,-547.4 1238.08,-545.97 1234.9,-539.74"/>
</g>
<!-- Node25&#45;&gt;Node26 -->
<g id="edge48" class="edge">
<title>Node25&#45;&gt;Node26</title>
<path fill="none" stroke="#63b8ff" d="M1263.73,-545.22C1324.55,-532.69 1421.58,-512.69 1477.79,-501.11"/>
<polygon fill="#63b8ff" stroke="#63b8ff" points="1263.27,-541.95 1254.18,-547.4 1264.68,-548.81 1263.27,-541.95"/>
</g>
<!-- Node27&#45;&gt;Node2 -->
<g id="edge52" class="edge">
<title>Node27&#45;&gt;Node2</title>
<path fill="none" stroke="#63b8ff" d="M1978.32,-552.59C1802.65,-541.09 1288.69,-507.43 1112.82,-495.92"/>
<polygon fill="#63b8ff" stroke="#63b8ff" points="1977.95,-556.14 1988.15,-553.3 1978.4,-549.16 1977.95,-556.14"/>
</g>
<!-- Node27&#45;&gt;Node5 -->
<g id="edge75" class="edge">
<title>Node27&#45;&gt;Node5</title>
<path fill="none" stroke="#63b8ff" d="M2097.14,-545.25C2120.97,-537.89 2146.83,-525.85 2164,-506.25 2186.7,-480.35 2183,-465.57 2183,-431.12 2183,-431.12 2183,-431.12 2183,-124.75 2183,-53.29 2107.15,-73.27 2038,-55.25 1908.24,-21.43 1486.99,-12.86 1364,-11.05"/>
<polygon fill="#63b8ff" stroke="#63b8ff" points="2096.38,-542.11 2087.72,-548.22 2098.3,-548.84 2096.38,-542.11"/>
</g>
<!-- Node27&#45;&gt;Node11 -->
<g id="edge69" class="edge">
<title>Node27&#45;&gt;Node11</title>
<path fill="none" stroke="#63b8ff" d="M2003.99,-543.58C1978.31,-533.69 1942.26,-519.54 1911,-506.25 1880.89,-493.45 1875.29,-485.3 1844,-475.75 1750.91,-447.35 1714.45,-484.46 1628,-439.75 1543.35,-395.97 1559.11,-335.89 1477,-287.5 1227.91,-140.7 1135.3,-163.12 851,-110.5 689.29,-80.57 493.8,-70.44 405.86,-67.24"/>
<polygon fill="#63b8ff" stroke="#63b8ff" points="2002.39,-547.1 2012.98,-547.41 2004.9,-540.56 2002.39,-547.1"/>
</g>
<!-- Node27&#45;&gt;Node17 -->
<g id="edge53" class="edge">
<title>Node27&#45;&gt;Node17</title>
<path fill="none" stroke="#63b8ff" d="M2080.67,-544.43C2125.17,-531.84 2193.91,-512.39 2233.98,-501.06"/>
<polygon fill="#63b8ff" stroke="#63b8ff" points="2079.85,-541.31 2071.18,-547.4 2081.76,-548.04 2079.85,-541.31"/>
</g>
<!-- Node27&#45;&gt;Node22 -->
<g id="edge60" class="edge">
<title>Node27&#45;&gt;Node22</title>
<path fill="none" stroke="#63b8ff" d="M2023.88,-539.22C2008.5,-521.33 1982.42,-493.56 1955,-475.75 1879.66,-426.83 1778.01,-394.14 1725.54,-379.34"/>
<polygon fill="#63b8ff" stroke="#63b8ff" points="2021.78,-541.17 2030.89,-546.57 2027.14,-536.66 2021.78,-541.17"/>
</g>
<!-- Node27&#45;&gt;Node23 -->
<g id="edge72" class="edge">
<title>Node27&#45;&gt;Node23</title>
<path fill="none" stroke="#63b8ff" d="M2019.14,-540.74C1996.06,-522.29 1955.1,-492.18 1915,-475.75 1859.59,-453.05 1791.62,-441.61 1745.17,-436.03"/>
<polygon fill="#63b8ff" stroke="#63b8ff" points="2016.64,-544.03 2026.61,-547.63 2021.06,-538.6 2016.64,-544.03"/>
</g>
<!-- Node27&#45;&gt;Node28 -->
<g id="edge54" class="edge">
<title>Node27&#45;&gt;Node28</title>
<path fill="none" stroke="#63b8ff" d="M2097.47,-547.83C2156.68,-538.83 2250.03,-523.65 2330,-506.25 2337.01,-504.72 2344.48,-502.89 2351.56,-501.05"/>
<polygon fill="#63b8ff" stroke="#63b8ff" points="2097.18,-544.48 2087.82,-549.44 2098.23,-551.4 2097.18,-544.48"/>
</g>
<!-- Node27&#45;&gt;Node29 -->
<g id="edge56" class="edge">
<title>Node27&#45;&gt;Node29</title>
<path fill="none" stroke="#63b8ff" d="M2053.88,-539.7C2065.63,-527.29 2081.15,-510.87 2090.59,-500.89"/>
<polygon fill="#63b8ff" stroke="#63b8ff" points="2051.81,-536.86 2047.48,-546.53 2056.9,-541.67 2051.81,-536.86"/>
</g>
<!-- Node27&#45;&gt;Node30 -->
<g id="edge61" class="edge">
<title>Node27&#45;&gt;Node30</title>
<path fill="none" stroke="#63b8ff" d="M2097.55,-551.12C2175.98,-543.56 2318,-528.21 2438,-506.25 2440.8,-505.74 2443.66,-505.18 2446.55,-504.58"/>
<polygon fill="#63b8ff" stroke="#63b8ff" points="2097.54,-547.7 2087.91,-552.14 2098.2,-554.67 2097.54,-547.7"/>
</g>
<!-- Node27&#45;&gt;Node31 -->
<g id="edge63" class="edge">
<title>Node27&#45;&gt;Node31</title>
<path fill="none" stroke="#63b8ff" d="M1991.36,-544.75C1941.43,-532.17 1863.32,-512.49 1817.95,-501.06"/>
<polygon fill="#63b8ff" stroke="#63b8ff" points="1990.31,-548.35 2000.86,-547.4 1992.02,-541.56 1990.31,-548.35"/>
</g>
<!-- Node27&#45;&gt;Node33 -->
<g id="edge70" class="edge">
<title>Node27&#45;&gt;Node33</title>
<path fill="none" stroke="#63b8ff" d="M2097.34,-551.7C2193.71,-543.69 2390.19,-526.46 2556,-506.25 2571.38,-504.38 2588.08,-502.03 2603.22,-499.79"/>
<polygon fill="#63b8ff" stroke="#63b8ff" points="2097.33,-548.27 2087.65,-552.58 2097.9,-555.25 2097.33,-548.27"/>
</g>
<!-- Node27&#45;&gt;Node34 -->
<g id="edge73" class="edge">
<title>Node27&#45;&gt;Node34</title>
<path fill="none" stroke="#63b8ff" d="M2097.66,-553.52C2215.37,-547.31 2485.77,-531.44 2712,-506.25 2727.41,-504.53 2744.14,-502.21 2759.25,-499.94"/>
<polygon fill="#63b8ff" stroke="#63b8ff" points="2097.55,-550.07 2087.75,-554.09 2097.92,-557.06 2097.55,-550.07"/>
</g>
<!-- Node28&#45;&gt;Node5 -->
<g id="edge55" class="edge">
<title>Node28&#45;&gt;Node5</title>
<path fill="none" stroke="#63b8ff" d="M2384,-470.28C2384,-446.54 2384,-405.48 2384,-370.25 2384,-370.25 2384,-370.25 2384,-124.75 2384,-65.03 2326.13,-72.64 2269,-55.25 2181.23,-28.53 1523.11,-14.32 1364.37,-11.26"/>
<polygon fill="#63b8ff" stroke="#63b8ff" points="2380.5,-469.99 2384,-479.99 2387.5,-469.99 2380.5,-469.99"/>
</g>
<!-- Node29&#45;&gt;Node3 -->
<g id="edge57" class="edge">
<title>Node29&#45;&gt;Node3</title>
<path fill="none" stroke="#63b8ff" d="M2069.26,-476.69C2010.01,-450.54 1872.62,-391.72 1753,-354 1632.66,-316.05 1601.2,-309.77 1477,-287.5 1361.48,-266.79 1224.17,-253.22 1152.02,-246.94"/>
<polygon fill="#63b8ff" stroke="#63b8ff" points="2067.51,-480.19 2078.07,-481.04 2070.35,-473.79 2067.51,-480.19"/>
</g>
<!-- Node29&#45;&gt;Node5 -->
<g id="edge59" class="edge">
<title>Node29&#45;&gt;Node5</title>
<path fill="none" stroke="#63b8ff" d="M2097.94,-470.28C2096.75,-446.56 2095,-405.5 2095,-370.25 2095,-370.25 2095,-370.25 2095,-124.75 2095,-69.16 2043.62,-73.17 1991,-55.25 1873.28,-15.16 1482.78,-10.96 1364.35,-10.62"/>
<polygon fill="#63b8ff" stroke="#63b8ff" points="2094.48,-470.19 2098.49,-479.99 2101.47,-469.82 2094.48,-470.19"/>
</g>
<!-- Node29&#45;&gt;Node23 -->
<g id="edge58" class="edge">
<title>Node29&#45;&gt;Node23</title>
<path fill="none" stroke="#63b8ff" d="M2032.24,-480.37C1952.19,-468.82 1819.56,-449.68 1745.42,-438.98"/>
<polygon fill="#63b8ff" stroke="#63b8ff" points="2031.3,-483.91 2041.7,-481.88 2032.3,-476.98 2031.3,-483.91"/>
</g>
<!-- Node30&#45;&gt;Node5 -->
<g id="edge62" class="edge">
<title>Node30&#45;&gt;Node5</title>
<path fill="none" stroke="#63b8ff" d="M2484.67,-465.43C2473.91,-441.69 2460,-404.4 2460,-370.25 2460,-370.25 2460,-370.25 2460,-124.75 2460,-56.08 2388.44,-72.62 2322,-55.25 2135.3,-6.43 1516.49,-8.87 1364.12,-10.25"/>
<polygon fill="#63b8ff" stroke="#63b8ff" points="2481.91,-466.77 2489.33,-474.33 2488.24,-463.79 2481.91,-466.77"/>
</g>
<!-- Node31&#45;&gt;Node5 -->
<g id="edge68" class="edge">
<title>Node31&#45;&gt;Node5</title>
<path fill="none" stroke="#63b8ff" d="M1730.16,-478.35C1691.43,-468.7 1642.75,-454.27 1628,-439.75 1603.82,-415.95 1572,-307.99 1572,-242.88 1572,-242.88 1572,-242.88 1572,-124.75 1572,-33.94 1430.87,-15.27 1364.16,-11.52"/>
<polygon fill="#63b8ff" stroke="#63b8ff" points="1729.24,-481.97 1739.78,-480.94 1730.9,-475.17 1729.24,-481.97"/>
</g>
<!-- Node31&#45;&gt;Node14 -->
<g id="edge64" class="edge">
<title>Node31&#45;&gt;Node14</title>
<path fill="none" stroke="#63b8ff" d="M1718.08,-480.02C1706.11,-478.4 1693.69,-476.88 1682,-475.75 1379.92,-446.45 1016.15,-435.56 878.48,-432.3"/>
<polygon fill="#63b8ff" stroke="#63b8ff" points="1717.52,-483.62 1727.91,-481.53 1718.49,-476.68 1717.52,-483.62"/>
</g>
<!-- Node31&#45;&gt;Node32 -->
<g id="edge65" class="edge">
<title>Node31&#45;&gt;Node32</title>
<path fill="none" stroke="#63b8ff" d="M1718.22,-480.66C1706.19,-478.97 1693.72,-477.27 1682,-475.75 1565.65,-460.68 1429.11,-445.33 1354.55,-437.15"/>
<polygon fill="#63b8ff" stroke="#63b8ff" points="1717.71,-484.27 1728.1,-482.2 1718.69,-477.34 1717.71,-484.27"/>
</g>
<!-- Node32&#45;&gt;Node3 -->
<g id="edge66" class="edge">
<title>Node32&#45;&gt;Node3</title>
<path fill="none" stroke="#63b8ff" d="M1288.83,-410.58C1271.97,-381.24 1235.74,-323.75 1192,-287.5 1172.8,-271.59 1146.97,-259.53 1127.9,-251.98"/>
<polygon fill="#63b8ff" stroke="#63b8ff" points="1286.19,-412.02 1294.14,-419.02 1292.29,-408.59 1286.19,-412.02"/>
</g>
<!-- Node32&#45;&gt;Node5 -->
<g id="edge67" class="edge">
<title>Node32&#45;&gt;Node5</title>
<path fill="none" stroke="#63b8ff" d="M1306.72,-410.22C1315.9,-385.99 1330,-342.46 1330,-303.75 1330,-303.75 1330,-303.75 1330,-124.75 1330,-85.52 1330,-38.7 1330,-19.5"/>
<polygon fill="#63b8ff" stroke="#63b8ff" points="1303.2,-408.6 1302.8,-419.19 1309.72,-411.16 1303.2,-408.6"/>
</g>
<!-- Node33&#45;&gt;Node5 -->
<g id="edge71" class="edge">
<title>Node33&#45;&gt;Node5</title>
<path fill="none" stroke="#63b8ff" d="M2663.32,-471.53C2675.17,-448.54 2693,-407.72 2693,-370.25 2693,-370.25 2693,-370.25 2693,-124.75 2693,14.28 2525.8,-73.7 2388,-55.25 2183.23,-27.83 1522.54,-14.16 1364.29,-11.23"/>
<polygon fill="#63b8ff" stroke="#63b8ff" points="2659.86,-469.56 2658.23,-480.03 2666.04,-472.86 2659.86,-469.56"/>
</g>
<!-- Node34&#45;&gt;Node5 -->
<g id="edge74" class="edge">
<title>Node34&#45;&gt;Node5</title>
<path fill="none" stroke="#63b8ff" d="M2802.95,-470.43C2797.33,-446.84 2789,-405.92 2789,-370.25 2789,-370.25 2789,-370.25 2789,-124.75 2789,-13.27 2658.08,-72.87 2548,-55.25 2310.85,-17.3 1536.59,-11.56 1364.22,-10.75"/>
<polygon fill="#63b8ff" stroke="#63b8ff" points="2799.79,-471.2 2805.59,-480.06 2806.58,-469.52 2799.79,-471.2"/>
</g>
<!-- Node35&#45;&gt;Node5 -->
<g id="edge85" class="edge">
<title>Node35&#45;&gt;Node5</title>
<path fill="none" stroke="#63b8ff" d="M366.53,-672.09C359.32,-662.78 350.91,-650.87 345,-639.25 330.89,-611.5 332.62,-602.36 323,-572.75 259.04,-375.82 216.06,-311.69 265,-110.5 271.51,-83.75 269.86,-70.16 293,-55.25 336.08,-27.49 1121.55,-13.83 1295.91,-11.13"/>
<polygon fill="#63b8ff" stroke="#63b8ff" points="364.21,-673.8 373.19,-679.42 369.68,-669.42 364.21,-673.8"/>
</g>
<!-- Node35&#45;&gt;Node13 -->
<g id="edge82" class="edge">
<title>Node35&#45;&gt;Node13</title>
<path fill="none" stroke="#63b8ff" d="M372.78,-670.78C355.31,-629.87 314.94,-528.98 301,-439.75 299.68,-431.3 299.46,-428.92 301,-420.5 303.28,-408.02 308.5,-394.62 312.89,-384.8"/>
<polygon fill="#63b8ff" stroke="#63b8ff" points="369.87,-671.89 377.06,-679.67 376.3,-669.11 369.87,-671.89"/>
</g>
<!-- Node35&#45;&gt;Node19 -->
<g id="edge84" class="edge">
<title>Node35&#45;&gt;Node19</title>
<path fill="none" stroke="#63b8ff" d="M438.91,-682.25C539.31,-669.67 744.3,-644 841.95,-631.77"/>
<polygon fill="#63b8ff" stroke="#63b8ff" points="438.56,-678.89 429.07,-683.61 439.43,-685.84 438.56,-678.89"/>
</g>
<!-- Node35&#45;&gt;Node27 -->
<g id="edge83" class="edge">
<title>Node35&#45;&gt;Node27</title>
<path fill="none" stroke="#63b8ff" d="M439.16,-688.8C660.5,-685.88 1450.24,-673.29 1699,-639.25 1815.29,-623.34 1950.01,-585.17 2008.44,-567.62"/>
<polygon fill="#63b8ff" stroke="#63b8ff" points="439.4,-685.31 429.45,-688.94 439.49,-692.31 439.4,-685.31"/>
</g>
<!-- Node36 -->
<g id="node36" class="node">
<title>Node36</title>
<g id="a_node36"><a xlink:href="v8-external_8h.html" target="_top" xlink:title=" ">
<polygon fill="white" stroke="#666666" points="208.25,-312.38 103.75,-312.38 103.75,-293.12 208.25,-293.12 208.25,-312.38"/>
<text text-anchor="middle" x="156" y="-298.88" font-family="Helvetica,sans-Serif" font-size="10.00">include/v8&#45;external.h</text>
</a>
</g>
</g>
<!-- Node35&#45;&gt;Node36 -->
<g id="edge80" class="edge">
<title>Node35&#45;&gt;Node36</title>
<path fill="none" stroke="#63b8ff" d="M332.01,-677.1C309.98,-669.37 285.14,-657.35 268,-639.25 172.79,-538.71 158.41,-354.97 156.34,-312.62"/>
<polygon fill="#63b8ff" stroke="#63b8ff" points="330.63,-680.66 341.22,-680.46 332.81,-674.01 330.63,-680.66"/>
</g>
<!-- Node36&#45;&gt;Node5 -->
<g id="edge81" class="edge">
<title>Node36&#45;&gt;Node5</title>
<path fill="none" stroke="#63b8ff" d="M135.09,-285.78C111.38,-265.7 76,-228.82 76,-187.62 76,-187.62 76,-187.62 76,-124.75 76,-48.85 158.09,-72.54 232,-55.25 441.45,-6.24 1133.86,-8.95 1295.88,-10.29"/>
<polygon fill="#63b8ff" stroke="#63b8ff" points="132.53,-289.03 142.5,-292.63 136.95,-283.6 132.53,-289.03"/>
</g>
<!-- Node38 -->
<g id="node38" class="node">
<title>Node38</title>
<g id="a_node38"><a xlink:href="v8-unwinder_8h.html" target="_top" xlink:title=" ">
<polygon fill="white" stroke="#666666" points="1467.88,-312.38 1358.12,-312.38 1358.12,-293.12 1467.88,-293.12 1467.88,-312.38"/>
<text text-anchor="middle" x="1413" y="-298.88" font-family="Helvetica,sans-Serif" font-size="10.00">include/v8&#45;unwinder.h</text>
</a>
</g>
</g>
<!-- Node37&#45;&gt;Node38 -->
<g id="edge89" class="edge">
<title>Node37&#45;&gt;Node38</title>
<path fill="none" stroke="#63b8ff" d="M1360,-731.95C1347.35,-706.25 1330,-663.92 1330,-625 1330,-625 1330,-625 1330,-556.5 1330,-530.52 1394.12,-354.96 1409.64,-312.83"/>
<polygon fill="#63b8ff" stroke="#63b8ff" points="1357.25,-733.26 1364.91,-740.58 1363.49,-730.08 1357.25,-733.26"/>
</g>
<!-- Node38&#45;&gt;Node3 -->
<g id="edge90" class="edge">
<title>Node38&#45;&gt;Node3</title>
<path fill="none" stroke="#63b8ff" d="M1354.42,-290.66C1295.27,-279.46 1205.01,-262.38 1149.97,-251.96"/>
<polygon fill="#63b8ff" stroke="#63b8ff" points="1353.61,-294.26 1364.09,-292.68 1354.91,-287.38 1353.61,-294.26"/>
</g>
<!-- Node38&#45;&gt;Node5 -->
<g id="edge91" class="edge">
<title>Node38&#45;&gt;Node5</title>
<path fill="none" stroke="#63b8ff" d="M1406.69,-282.5C1399.88,-260.01 1390,-221.53 1390,-187.62 1390,-187.62 1390,-187.62 1390,-124.75 1390,-81.1 1355.19,-37.73 1338.6,-19.54"/>
<polygon fill="#63b8ff" stroke="#63b8ff" points="1403.56,-283.22 1409.9,-291.7 1410.23,-281.11 1403.56,-283.22"/>
</g>
<!-- Node40&#45;&gt;Node5 -->
<g id="edge101" class="edge">
<title>Node40&#45;&gt;Node5</title>
<path fill="none" stroke="#63b8ff" d="M2901.88,-55.52C2900.92,-55.42 2899.95,-55.33 2899,-55.25 2586.15,-27.64 1564.68,-13.57 1364.29,-11.04"/>
<polygon fill="#63b8ff" stroke="#63b8ff" points="2901.09,-59.06 2911.42,-56.7 2901.87,-52.11 2901.09,-59.06"/>
</g>
<!-- Node41&#45;&gt;Node5 -->
<g id="edge105" class="edge">
<title>Node41&#45;&gt;Node5</title>
<path fill="none" stroke="#63b8ff" d="M3038.03,-664.47C3034.21,-638.16 3029,-595.53 3029,-558.5 3029,-558.5 3029,-558.5 3029,-124.75 3029,-92.73 3035.19,-75.02 3010,-55.25 2976.43,-28.91 1600.57,-13.44 1364.35,-10.97"/>
<polygon fill="#63b8ff" stroke="#63b8ff" points="3034.67,-664.64 3039.62,-674.01 3041.59,-663.6 3034.67,-664.64"/>
</g>
<!-- Node42&#45;&gt;Node3 -->
<g id="edge108" class="edge">
<title>Node42&#45;&gt;Node3</title>
<path fill="none" stroke="#63b8ff" d="M1655.83,-600.09C1679.35,-568.59 1712.94,-511.72 1682,-475.75 1647.12,-435.2 1493.78,-459.32 1444,-439.75 1332.31,-395.84 1327.51,-342.8 1221,-287.5 1192.02,-272.45 1156.77,-259.89 1132.19,-251.97"/>
<polygon fill="#63b8ff" stroke="#63b8ff" points="1652.58,-597.58 1649.24,-607.63 1658.12,-601.86 1652.58,-597.58"/>
</g>
<!-- Node42&#45;&gt;Node5 -->
<g id="edge112" class="edge">
<title>Node42&#45;&gt;Node5</title>
<path fill="none" stroke="#63b8ff" d="M1691.2,-604.84C1787.18,-571.02 1977,-495.95 1977,-431.12 1977,-431.12 1977,-431.12 1977,-124.75 1977,-61.95 1498.09,-22.73 1364.33,-13.01"/>
<polygon fill="#63b8ff" stroke="#63b8ff" points="1690.39,-601.77 1682.1,-608.37 1692.7,-608.38 1690.39,-601.77"/>
</g>
<!-- Node42&#45;&gt;Node24 -->
<g id="edge111" class="edge">
<title>Node42&#45;&gt;Node24</title>
<path fill="none" stroke="#63b8ff" d="M1635.84,-597.77C1634.49,-568.23 1632.32,-520.85 1631.42,-501.1"/>
<polygon fill="#63b8ff" stroke="#63b8ff" points="1632.38,-597.65 1636.33,-607.48 1639.37,-597.33 1632.38,-597.65"/>
</g>
<!-- Node42&#45;&gt;Node26 -->
<g id="edge110" class="edge">
<title>Node42&#45;&gt;Node26</title>
<path fill="none" stroke="#63b8ff" d="M1617.21,-600.46C1591.52,-571.2 1547.86,-521.46 1529.99,-501.1"/>
<polygon fill="#63b8ff" stroke="#63b8ff" points="1615.03,-602.27 1624.25,-607.48 1620.29,-597.66 1615.03,-602.27"/>
</g>
<!-- Node42&#45;&gt;Node27 -->
<g id="edge109" class="edge">
<title>Node42&#45;&gt;Node27</title>
<path fill="none" stroke="#63b8ff" d="M1701.2,-609.58C1702.82,-609.3 1704.42,-609.02 1706,-608.75 1824.92,-588.54 1856.28,-594.08 1975,-572.75 1983.28,-571.26 1992.11,-569.42 2000.47,-567.57"/>
<polygon fill="#63b8ff" stroke="#63b8ff" points="1700.62,-606.32 1691.42,-611.58 1701.89,-613.2 1700.62,-606.32"/>
</g>
<!-- Node43&#45;&gt;Node5 -->
<g id="edge128" class="edge">
<title>Node43&#45;&gt;Node5</title>
<path fill="none" stroke="#63b8ff" d="M2813.41,-609.95C2832.01,-601.99 2852.82,-589.96 2866,-572.75 2888.41,-543.47 2885,-528.87 2885,-492 2885,-492 2885,-492 2885,-124.75 2885,-25.59 2770.64,-72.51 2673,-55.25 2410.54,-8.84 1546.65,-9.73 1364.08,-10.45"/>
<polygon fill="#63b8ff" stroke="#63b8ff" points="2812.35,-607.01 2804.36,-613.97 2814.95,-613.51 2812.35,-607.01"/>
</g>
<!-- Node43&#45;&gt;Node27 -->
<g id="edge127" class="edge">
<title>Node43&#45;&gt;Node27</title>
<path fill="none" stroke="#63b8ff" d="M2697.57,-616.38C2546.85,-603.15 2212.2,-573.79 2086.75,-562.78"/>
<polygon fill="#63b8ff" stroke="#63b8ff" points="2696.83,-619.92 2707.1,-617.3 2697.44,-612.94 2696.83,-619.92"/>
</g>
<!-- Node44 -->
<g id="node44" class="node">
<title>Node44</title>
<g id="a_node44"><a xlink:href="v8-cppgc_8h.html" target="_top" xlink:title=" ">
<polygon fill="white" stroke="#666666" points="2856.5,-567.12 2759.5,-567.12 2759.5,-547.88 2856.5,-547.88 2856.5,-567.12"/>
<text text-anchor="middle" x="2808" y="-553.62" font-family="Helvetica,sans-Serif" font-size="10.00">include/v8&#45;cppgc.h</text>
</a>
</g>
</g>
<!-- Node43&#45;&gt;Node44 -->
<g id="edge124" class="edge">
<title>Node43&#45;&gt;Node44</title>
<path fill="none" stroke="#63b8ff" d="M2783.1,-604.39C2789.7,-592.23 2798.02,-576.89 2803.17,-567.39"/>
<polygon fill="#63b8ff" stroke="#63b8ff" points="2779.56,-602.57 2777.87,-613.03 2785.71,-605.91 2779.56,-602.57"/>
</g>
<!-- Node45 -->
<g id="node45" class="node">
<title>Node45</title>
<g id="a_node45"><a xlink:href="v8-embedder-heap_8h.html" target="_top" xlink:title=" ">
<polygon fill="white" stroke="#666666" points="2317,-318 2211,-318 2211,-287.5 2317,-287.5 2317,-318"/>
<text text-anchor="start" x="2219" y="-304.5" font-family="Helvetica,sans-Serif" font-size="10.00">include/v8&#45;embedder</text>
<text text-anchor="middle" x="2264" y="-293.25" font-family="Helvetica,sans-Serif" font-size="10.00">&#45;heap.h</text>
</a>
</g>
</g>
<!-- Node43&#45;&gt;Node45 -->
<g id="edge125" class="edge">
<title>Node43&#45;&gt;Node45</title>
<path fill="none" stroke="#63b8ff" d="M2764.64,-604.28C2760.48,-594.85 2755.4,-583.23 2751,-572.75 2733.01,-529.91 2744.19,-509.25 2712,-475.75 2602.76,-362.06 2410.2,-322.46 2317.21,-309.54"/>
<polygon fill="#63b8ff" stroke="#63b8ff" points="2761.76,-605.42 2769.02,-613.14 2768.16,-602.58 2761.76,-605.42"/>
</g>
<!-- Node45&#45;&gt;Node3 -->
<g id="edge126" class="edge">
<title>Node45&#45;&gt;Node3</title>
<path fill="none" stroke="#63b8ff" d="M2199.94,-298.5C1991.92,-287.96 1338.09,-254.84 1151.91,-245.4"/>
<polygon fill="#63b8ff" stroke="#63b8ff" points="2199.5,-302.04 2209.67,-299.05 2199.86,-295.05 2199.5,-302.04"/>
</g>
<!-- Node46&#45;&gt;Node5 -->
<g id="edge131" class="edge">
<title>Node46&#45;&gt;Node5</title>
<path fill="none" stroke="#63b8ff" d="M3123,-220.99C3117.83,-181.47 3100.17,-93.56 3043,-55.25 2970.71,-6.81 1599.35,-9.64 1364.18,-10.48"/>
<polygon fill="#63b8ff" stroke="#63b8ff" points="3119.62,-221.27 3124.25,-230.8 3126.58,-220.46 3119.62,-221.27"/>
</g>
</g>
</svg>
