<?xml version="1.0" encoding="UTF-8" standalone="no"?>
<!DOCTYPE svg PUBLIC "-//W3C//DTD SVG 1.1//EN"
 "http://www.w3.org/Graphics/SVG/1.1/DTD/svg11.dtd">
<!-- Generated by graphviz version 8.0.5 (20230430.1635)
 -->
<!-- Title: include/v8&#45;proxy.h Pages: 1 -->
<svg width="3204pt" height="911pt"
 viewBox="0.00 0.00 3204.00 911.25" xmlns="http://www.w3.org/2000/svg" xmlns:xlink="http://www.w3.org/1999/xlink">
<g id="graph0" class="graph" transform="scale(1 1) rotate(0) translate(4 907.25)">
<title>include/v8&#45;proxy.h</title>
<!-- Node1 -->
<g id="node1" class="node">
<title>Node1</title>
<g id="a_node1"><a xlink:title=" ">
<polygon fill="#999999" stroke="#666666" points="1719.62,-903.25 1626.38,-903.25 1626.38,-884 1719.62,-884 1719.62,-903.25"/>
<text text-anchor="middle" x="1673" y="-889.75" font-family="Helvetica,sans-Serif" font-size="10.00">include/v8&#45;proxy.h</text>
</a>
</g>
</g>
<!-- Node2 -->
<g id="node2" class="node">
<title>Node2</title>
<g id="a_node2"><a xlink:href="v8-context_8h.html" target="_top" xlink:title=" ">
<polygon fill="white" stroke="#666666" points="451.25,-848 382.75,-848 382.75,-828.75 451.25,-828.75 451.25,-848"/>
<text text-anchor="middle" x="417" y="-834.5" font-family="Helvetica,sans-Serif" font-size="10.00">v8&#45;context.h</text>
</a>
</g>
</g>
<!-- Node1&#45;&gt;Node2 -->
<g id="edge1" class="edge">
<title>Node1&#45;&gt;Node2</title>
<path fill="none" stroke="#63b8ff" d="M1626.06,-890.63C1427.5,-882.22 657.95,-849.59 462.39,-841.3"/>
<polygon fill="#63b8ff" stroke="#63b8ff" points="462.8,-837.77 452.66,-840.84 462.51,-844.77 462.8,-837.77"/>
</g>
<!-- Node6 -->
<g id="node6" class="node">
<title>Node6</title>
<g id="a_node6"><a xlink:href="v8-local-handle_8h.html" target="_top" xlink:title=" ">
<polygon fill="white" stroke="#666666" points="2347.38,-240.25 2258.62,-240.25 2258.62,-221 2347.38,-221 2347.38,-240.25"/>
<text text-anchor="middle" x="2303" y="-226.75" font-family="Helvetica,sans-Serif" font-size="10.00">v8&#45;local&#45;handle.h</text>
</a>
</g>
</g>
<!-- Node1&#45;&gt;Node6 -->
<g id="edge166" class="edge">
<title>Node1&#45;&gt;Node6</title>
<path fill="none" stroke="#63b8ff" d="M1719.98,-891.08C1948.18,-883.27 2930,-846.07 2930,-784.12 2930,-784.12 2930,-784.12 2930,-561.12 2930,-382.03 2816.41,-328.15 2645,-276.25 2547.01,-246.58 2427.35,-236.64 2358.68,-233.3"/>
<polygon fill="#63b8ff" stroke="#63b8ff" points="2358.85,-229.76 2348.7,-232.81 2358.53,-236.76 2358.85,-229.76"/>
</g>
<!-- Node17 -->
<g id="node17" class="node">
<title>Node17</title>
<g id="a_node17"><a xlink:href="v8config_8h.html" target="_top" xlink:title=" ">
<polygon fill="white" stroke="#666666" points="1110.75,-74.5 1051.25,-74.5 1051.25,-55.25 1110.75,-55.25 1110.75,-74.5"/>
<text text-anchor="middle" x="1081" y="-61" font-family="Helvetica,sans-Serif" font-size="10.00">v8config.h</text>
</a>
</g>
</g>
<!-- Node1&#45;&gt;Node17 -->
<g id="edge168" class="edge">
<title>Node1&#45;&gt;Node17</title>
<path fill="none" stroke="#63b8ff" d="M1625.93,-891.98C1423.26,-889.04 623.91,-875.88 374,-848 222.93,-831.15 38,-936.13 38,-784.12 38,-784.12 38,-784.12 38,-450.62 38,-334.28 323.79,-141.23 436,-110.5 550.56,-79.13 916.55,-69.13 1039.94,-66.6"/>
<polygon fill="#63b8ff" stroke="#63b8ff" points="1039.84,-70.09 1049.77,-66.39 1039.7,-63.09 1039.84,-70.09"/>
</g>
<!-- Node27 -->
<g id="node27" class="node">
<title>Node27</title>
<g id="a_node27"><a xlink:href="v8-object_8h.html" target="_top" xlink:title=" ">
<polygon fill="white" stroke="#666666" points="2023.62,-461.25 1960.38,-461.25 1960.38,-442 2023.62,-442 2023.62,-461.25"/>
<text text-anchor="middle" x="1992" y="-447.75" font-family="Helvetica,sans-Serif" font-size="10.00">v8&#45;object.h</text>
</a>
</g>
</g>
<!-- Node1&#45;&gt;Node27 -->
<g id="edge167" class="edge">
<title>Node1&#45;&gt;Node27</title>
<path fill="none" stroke="#63b8ff" d="M1719.88,-886.09C1865.28,-864.79 2303.75,-792.27 2386,-682.25 2435.96,-615.43 2136.6,-502.99 2029.24,-465.34"/>
<polygon fill="#63b8ff" stroke="#63b8ff" points="2030.48,-461.72 2019.88,-461.73 2028.17,-468.33 2030.48,-461.72"/>
</g>
<!-- Node3 -->
<g id="node3" class="node">
<title>Node3</title>
<g id="a_node3"><a xlink:title=" ">
<polygon fill="#e0e0e0" stroke="#999999" points="289.75,-74.5 242.25,-74.5 242.25,-55.25 289.75,-55.25 289.75,-74.5"/>
<text text-anchor="middle" x="266" y="-61" font-family="Helvetica,sans-Serif" font-size="10.00">stdint.h</text>
</a>
</g>
</g>
<!-- Node2&#45;&gt;Node3 -->
<g id="edge2" class="edge">
<title>Node2&#45;&gt;Node3</title>
<path fill="none" stroke="#63b8ff" d="M382.43,-833.83C295.73,-823.98 76,-792.71 76,-728.88 76,-728.88 76,-728.88 76,-174.38 76,-103.66 176.49,-78.41 231.3,-69.9"/>
<polygon fill="#63b8ff" stroke="#63b8ff" points="231.54,-73.26 240.94,-68.37 230.54,-66.33 231.54,-73.26"/>
</g>
<!-- Node4 -->
<g id="node4" class="node">
<title>Node4</title>
<g id="a_node4"><a xlink:title=" ">
<polygon fill="#e0e0e0" stroke="#999999" points="976.5,-185 933.5,-185 933.5,-165.75 976.5,-165.75 976.5,-185"/>
<text text-anchor="middle" x="955" y="-171.5" font-family="Helvetica,sans-Serif" font-size="10.00">vector</text>
</a>
</g>
</g>
<!-- Node2&#45;&gt;Node4 -->
<g id="edge3" class="edge">
<title>Node2&#45;&gt;Node4</title>
<path fill="none" stroke="#63b8ff" d="M382.33,-833.26C327.77,-824.64 228,-799.25 228,-728.88 228,-728.88 228,-728.88 228,-671.62 228,-494.2 296.33,-439.63 437,-331.5 591.03,-213.09 834.56,-184.75 922.21,-178.24"/>
<polygon fill="#63b8ff" stroke="#63b8ff" points="922.32,-181.67 932.05,-177.48 921.83,-174.68 922.32,-181.67"/>
</g>
<!-- Node5 -->
<g id="node5" class="node">
<title>Node5</title>
<g id="a_node5"><a xlink:href="v8-data_8h.html" target="_top" xlink:title=" ">
<polygon fill="white" stroke="#666666" points="1251.88,-295.5 1196.12,-295.5 1196.12,-276.25 1251.88,-276.25 1251.88,-295.5"/>
<text text-anchor="middle" x="1224" y="-282" font-family="Helvetica,sans-Serif" font-size="10.00">v8&#45;data.h</text>
</a>
</g>
</g>
<!-- Node2&#45;&gt;Node5 -->
<g id="edge4" class="edge">
<title>Node2&#45;&gt;Node5</title>
<path fill="none" stroke="#63b8ff" d="M421.2,-828.64C435.25,-800.31 483.53,-710.12 550,-663 785.37,-496.16 928.7,-623.89 1167,-461.25 1193.39,-443.24 1200.76,-435.51 1213,-406 1226.61,-373.18 1226.94,-331.02 1225.67,-306.66"/>
<polygon fill="#63b8ff" stroke="#63b8ff" points="1229.11,-306.71 1224.94,-296.97 1222.13,-307.19 1229.11,-306.71"/>
</g>
<!-- Node2&#45;&gt;Node6 -->
<g id="edge24" class="edge">
<title>Node2&#45;&gt;Node6</title>
<path fill="none" stroke="#63b8ff" d="M451.45,-836.78C747.65,-831.51 2854,-791.87 2854,-728.88 2854,-728.88 2854,-728.88 2854,-561.12 2854,-393.26 2763.49,-334.35 2606,-276.25 2523.29,-245.74 2420.63,-236.03 2358.54,-232.98"/>
<polygon fill="#63b8ff" stroke="#63b8ff" points="2358.96,-229.45 2348.81,-232.5 2358.64,-236.44 2358.96,-229.45"/>
</g>
<!-- Node2&#45;&gt;Node17 -->
<g id="edge165" class="edge">
<title>Node2&#45;&gt;Node17</title>
<path fill="none" stroke="#63b8ff" d="M382.52,-836.21C319.02,-832.04 190,-813.18 190,-728.88 190,-728.88 190,-728.88 190,-450.62 190,-251.39 297.98,-186.85 482,-110.5 583.24,-68.5 922.13,-65.39 1040.1,-65.62"/>
<polygon fill="#63b8ff" stroke="#63b8ff" points="1039.8,-69.12 1049.81,-65.65 1039.82,-62.12 1039.8,-69.12"/>
</g>
<!-- Node18 -->
<g id="node18" class="node">
<title>Node18</title>
<g id="a_node18"><a xlink:href="v8-maybe_8h.html" target="_top" xlink:title=" ">
<polygon fill="white" stroke="#666666" points="1177.75,-295.5 1112.25,-295.5 1112.25,-276.25 1177.75,-276.25 1177.75,-295.5"/>
<text text-anchor="middle" x="1145" y="-282" font-family="Helvetica,sans-Serif" font-size="10.00">v8&#45;maybe.h</text>
</a>
</g>
</g>
<!-- Node2&#45;&gt;Node18 -->
<g id="edge25" class="edge">
<title>Node2&#45;&gt;Node18</title>
<path fill="none" stroke="#63b8ff" d="M411.56,-828.46C401.05,-810.38 379,-767.79 379,-728.88 379,-728.88 379,-728.88 379,-671.62 379,-515.28 559.55,-595.05 710,-552.5 757.73,-539 1115.71,-499.74 1147,-461.25 1183.54,-416.29 1164.33,-341.11 1152.31,-306.01"/>
<polygon fill="#63b8ff" stroke="#63b8ff" points="1155.29,-304.96 1148.59,-296.75 1148.7,-307.34 1155.29,-304.96"/>
</g>
<!-- Node20 -->
<g id="node20" class="node">
<title>Node20</title>
<g id="a_node20"><a xlink:href="v8-snapshot_8h.html" target="_top" xlink:title=" ">
<polygon fill="white" stroke="#666666" points="1337.38,-792.75 1260.62,-792.75 1260.62,-773.5 1337.38,-773.5 1337.38,-792.75"/>
<text text-anchor="middle" x="1299" y="-779.25" font-family="Helvetica,sans-Serif" font-size="10.00">v8&#45;snapshot.h</text>
</a>
</g>
</g>
<!-- Node2&#45;&gt;Node20 -->
<g id="edge30" class="edge">
<title>Node2&#45;&gt;Node20</title>
<path fill="none" stroke="#63b8ff" d="M451.58,-835.29C587.96,-827.05 1089,-796.8 1249.31,-787.12"/>
<polygon fill="#63b8ff" stroke="#63b8ff" points="1249.49,-790.56 1259.26,-786.46 1249.06,-783.57 1249.49,-790.56"/>
</g>
<!-- Node5&#45;&gt;Node6 -->
<g id="edge5" class="edge">
<title>Node5&#45;&gt;Node6</title>
<path fill="none" stroke="#63b8ff" d="M1252.31,-283.48C1396.64,-276.36 2051.44,-244.04 2247.42,-234.37"/>
<polygon fill="#63b8ff" stroke="#63b8ff" points="2247.49,-237.82 2257.31,-233.83 2247.15,-230.83 2247.49,-237.82"/>
</g>
<!-- Node5&#45;&gt;Node17 -->
<g id="edge23" class="edge">
<title>Node5&#45;&gt;Node17</title>
<path fill="none" stroke="#63b8ff" d="M1196.96,-275.85C1170.84,-266.61 1133.82,-251.99 1124,-240.25 1104.33,-216.73 1089.51,-126.44 1083.69,-85.85"/>
<polygon fill="#63b8ff" stroke="#63b8ff" points="1087.02,-85.4 1082.18,-75.98 1080.09,-86.36 1087.02,-85.4"/>
</g>
<!-- Node6&#45;&gt;Node4 -->
<g id="edge8" class="edge">
<title>Node6&#45;&gt;Node4</title>
<path fill="none" stroke="#63b8ff" d="M2258.15,-227.85C2048.72,-219.58 1169.59,-184.85 987.93,-177.68"/>
<polygon fill="#63b8ff" stroke="#63b8ff" points="988.12,-174.14 977.99,-177.24 987.84,-181.14 988.12,-174.14"/>
</g>
<!-- Node7 -->
<g id="node7" class="node">
<title>Node7</title>
<g id="a_node7"><a xlink:title=" ">
<polygon fill="#e0e0e0" stroke="#999999" points="2974.25,-74.5 2923.75,-74.5 2923.75,-55.25 2974.25,-55.25 2974.25,-74.5"/>
<text text-anchor="middle" x="2949" y="-61" font-family="Helvetica,sans-Serif" font-size="10.00">stddef.h</text>
</a>
</g>
</g>
<!-- Node6&#45;&gt;Node7 -->
<g id="edge6" class="edge">
<title>Node6&#45;&gt;Node7</title>
<path fill="none" stroke="#63b8ff" d="M2338.65,-220.59C2451.41,-192.01 2799.53,-103.76 2912.9,-75.02"/>
<polygon fill="#63b8ff" stroke="#63b8ff" points="2913.6,-78.21 2922.43,-72.36 2911.88,-71.42 2913.6,-78.21"/>
</g>
<!-- Node8 -->
<g id="node8" class="node">
<title>Node8</title>
<g id="a_node8"><a xlink:title=" ">
<polygon fill="#e0e0e0" stroke="#999999" points="1923.5,-74.5 1862.5,-74.5 1862.5,-55.25 1923.5,-55.25 1923.5,-74.5"/>
<text text-anchor="middle" x="1893" y="-61" font-family="Helvetica,sans-Serif" font-size="10.00">type_traits</text>
</a>
</g>
</g>
<!-- Node6&#45;&gt;Node8 -->
<g id="edge7" class="edge">
<title>Node6&#45;&gt;Node8</title>
<path fill="none" stroke="#63b8ff" d="M2267.66,-220.6C2210.3,-205.36 2094,-172.04 2001,-129.75 1970.01,-115.66 1936.62,-94.97 1915.3,-80.99"/>
<polygon fill="#63b8ff" stroke="#63b8ff" points="1917.4,-77.52 1907.14,-74.91 1913.53,-83.36 1917.4,-77.52"/>
</g>
<!-- Node9 -->
<g id="node9" class="node">
<title>Node9</title>
<g id="a_node9"><a xlink:href="v8-handle-base_8h.html" target="_top" xlink:title=" ">
<polygon fill="white" stroke="#666666" points="2441.75,-185 2352.25,-185 2352.25,-165.75 2441.75,-165.75 2441.75,-185"/>
<text text-anchor="middle" x="2397" y="-171.5" font-family="Helvetica,sans-Serif" font-size="10.00">v8&#45;handle&#45;base.h</text>
</a>
</g>
</g>
<!-- Node6&#45;&gt;Node9 -->
<g id="edge9" class="edge">
<title>Node6&#45;&gt;Node9</title>
<path fill="none" stroke="#63b8ff" d="M2318.95,-220.59C2333.4,-212.41 2354.93,-200.21 2371.73,-190.69"/>
<polygon fill="#63b8ff" stroke="#63b8ff" points="2373,-193.43 2379.98,-185.45 2369.55,-187.34 2373,-193.43"/>
</g>
<!-- Node10 -->
<g id="node10" class="node">
<title>Node10</title>
<g id="a_node10"><a xlink:href="v8-internal_8h.html" target="_top" xlink:title=" ">
<polygon fill="white" stroke="#666666" points="2237.25,-129.75 2168.75,-129.75 2168.75,-110.5 2237.25,-110.5 2237.25,-129.75"/>
<text text-anchor="middle" x="2203" y="-116.25" font-family="Helvetica,sans-Serif" font-size="10.00">v8&#45;internal.h</text>
</a>
</g>
</g>
<!-- Node6&#45;&gt;Node10 -->
<g id="edge22" class="edge">
<title>Node6&#45;&gt;Node10</title>
<path fill="none" stroke="#63b8ff" d="M2305.22,-220.9C2308.05,-207.72 2311.3,-182.5 2300,-165.75 2288.11,-148.11 2267.39,-137.32 2248.14,-130.78"/>
<polygon fill="#63b8ff" stroke="#63b8ff" points="2249.25,-127.16 2238.67,-127.57 2247.2,-133.85 2249.25,-127.16"/>
</g>
<!-- Node9&#45;&gt;Node10 -->
<g id="edge10" class="edge">
<title>Node9&#45;&gt;Node10</title>
<path fill="none" stroke="#63b8ff" d="M2364.09,-165.34C2331.76,-156.47 2282.24,-142.87 2246.64,-133.1"/>
<polygon fill="#63b8ff" stroke="#63b8ff" points="2247.64,-129.47 2237.07,-130.2 2245.79,-136.22 2247.64,-129.47"/>
</g>
<!-- Node10&#45;&gt;Node3 -->
<g id="edge12" class="edge">
<title>Node10&#45;&gt;Node3</title>
<path fill="none" stroke="#63b8ff" d="M2168.36,-115.14C2152.17,-113.42 2132.62,-111.57 2115,-110.5 1742.67,-87.79 523.13,-69.54 300.91,-66.37"/>
<polygon fill="#63b8ff" stroke="#63b8ff" points="301,-62.85 290.95,-66.21 300.9,-69.85 301,-62.85"/>
</g>
<!-- Node10&#45;&gt;Node7 -->
<g id="edge11" class="edge">
<title>Node10&#45;&gt;Node7</title>
<path fill="none" stroke="#63b8ff" d="M2237.54,-112.43C2242.05,-111.7 2246.63,-111.03 2251,-110.5 2503.13,-79.89 2809.2,-69.51 2912.77,-66.74"/>
<polygon fill="#63b8ff" stroke="#63b8ff" points="2912.64,-70.21 2922.55,-66.46 2912.46,-63.22 2912.64,-70.21"/>
</g>
<!-- Node10&#45;&gt;Node8 -->
<g id="edge19" class="edge">
<title>Node10&#45;&gt;Node8</title>
<path fill="none" stroke="#63b8ff" d="M2168.67,-114.08C2119.09,-106.67 2024.32,-92.01 1934.29,-74.86"/>
<polygon fill="#63b8ff" stroke="#63b8ff" points="1935.1,-71.26 1924.62,-72.81 1933.78,-78.14 1935.1,-71.26"/>
</g>
<!-- Node11 -->
<g id="node11" class="node">
<title>Node11</title>
<g id="a_node11"><a xlink:title=" ">
<polygon fill="#e0e0e0" stroke="#999999" points="2277.75,-74.5 2230.25,-74.5 2230.25,-55.25 2277.75,-55.25 2277.75,-74.5"/>
<text text-anchor="middle" x="2254" y="-61" font-family="Helvetica,sans-Serif" font-size="10.00">string.h</text>
</a>
</g>
</g>
<!-- Node10&#45;&gt;Node11 -->
<g id="edge13" class="edge">
<title>Node10&#45;&gt;Node11</title>
<path fill="none" stroke="#63b8ff" d="M2211.42,-110.33C2218.61,-102.82 2229.16,-91.81 2237.95,-82.63"/>
<polygon fill="#63b8ff" stroke="#63b8ff" points="2240.01,-85.5 2244.4,-75.86 2234.95,-80.66 2240.01,-85.5"/>
</g>
<!-- Node12 -->
<g id="node12" class="node">
<title>Node12</title>
<g id="a_node12"><a xlink:title=" ">
<polygon fill="#e0e0e0" stroke="#999999" points="2041.62,-74.5 1996.38,-74.5 1996.38,-55.25 2041.62,-55.25 2041.62,-74.5"/>
<text text-anchor="middle" x="2019" y="-61" font-family="Helvetica,sans-Serif" font-size="10.00">atomic</text>
</a>
</g>
</g>
<!-- Node10&#45;&gt;Node12 -->
<g id="edge14" class="edge">
<title>Node10&#45;&gt;Node12</title>
<path fill="none" stroke="#63b8ff" d="M2171.79,-110.09C2138.57,-100.48 2086.23,-85.33 2052.25,-75.5"/>
<polygon fill="#63b8ff" stroke="#63b8ff" points="2053.49,-71.92 2042.92,-72.51 2051.55,-78.65 2053.49,-71.92"/>
</g>
<!-- Node13 -->
<g id="node13" class="node">
<title>Node13</title>
<g id="a_node13"><a xlink:title=" ">
<polygon fill="#e0e0e0" stroke="#999999" points="2106,-74.5 2060,-74.5 2060,-55.25 2106,-55.25 2106,-74.5"/>
<text text-anchor="middle" x="2083" y="-61" font-family="Helvetica,sans-Serif" font-size="10.00">iterator</text>
</a>
</g>
</g>
<!-- Node10&#45;&gt;Node13 -->
<g id="edge15" class="edge">
<title>Node10&#45;&gt;Node13</title>
<path fill="none" stroke="#63b8ff" d="M2182.64,-110.09C2163.68,-101.68 2135.15,-89.02 2113.48,-79.4"/>
<polygon fill="#63b8ff" stroke="#63b8ff" points="2115.02,-75.81 2104.46,-74.95 2112.18,-82.21 2115.02,-75.81"/>
</g>
<!-- Node14 -->
<g id="node14" class="node">
<title>Node14</title>
<g id="a_node14"><a xlink:title=" ">
<polygon fill="#e0e0e0" stroke="#999999" points="2623.62,-74.5 2584.38,-74.5 2584.38,-55.25 2623.62,-55.25 2623.62,-74.5"/>
<text text-anchor="middle" x="2604" y="-61" font-family="Helvetica,sans-Serif" font-size="10.00">limits</text>
</a>
</g>
</g>
<!-- Node10&#45;&gt;Node14 -->
<g id="edge16" class="edge">
<title>Node10&#45;&gt;Node14</title>
<path fill="none" stroke="#63b8ff" d="M2237.57,-112.69C2242.08,-111.92 2246.65,-111.17 2251,-110.5 2369.75,-92.34 2511.78,-76.02 2573.2,-69.22"/>
<polygon fill="#63b8ff" stroke="#63b8ff" points="2573.49,-72.6 2583.05,-68.03 2572.72,-65.64 2573.49,-72.6"/>
</g>
<!-- Node15 -->
<g id="node15" class="node">
<title>Node15</title>
<g id="a_node15"><a xlink:title=" ">
<polygon fill="#e0e0e0" stroke="#999999" points="1529.25,-19.25 1478.75,-19.25 1478.75,0 1529.25,0 1529.25,-19.25"/>
<text text-anchor="middle" x="1504" y="-5.75" font-family="Helvetica,sans-Serif" font-size="10.00">memory</text>
</a>
</g>
</g>
<!-- Node10&#45;&gt;Node15 -->
<g id="edge17" class="edge">
<title>Node10&#45;&gt;Node15</title>
<path fill="none" stroke="#63b8ff" d="M2232.31,-110.01C2264.33,-98.63 2308.39,-77.89 2287,-55.25 2261.06,-27.79 1691.45,-14.4 1540.46,-11.33"/>
<polygon fill="#63b8ff" stroke="#63b8ff" points="1540.6,-7.81 1530.53,-11.11 1540.46,-14.81 1540.6,-7.81"/>
</g>
<!-- Node16 -->
<g id="node16" class="node">
<title>Node16</title>
<g id="a_node16"><a xlink:title=" ">
<polygon fill="#e0e0e0" stroke="#999999" points="2211.88,-74.5 2162.12,-74.5 2162.12,-55.25 2211.88,-55.25 2211.88,-74.5"/>
<text text-anchor="middle" x="2187" y="-61" font-family="Helvetica,sans-Serif" font-size="10.00">optional</text>
</a>
</g>
</g>
<!-- Node10&#45;&gt;Node16 -->
<g id="edge18" class="edge">
<title>Node10&#45;&gt;Node16</title>
<path fill="none" stroke="#63b8ff" d="M2200.36,-110.33C2198.31,-103.51 2195.39,-93.81 2192.81,-85.2"/>
<polygon fill="#63b8ff" stroke="#63b8ff" points="2195.93,-84.43 2189.7,-75.86 2189.23,-86.44 2195.93,-84.43"/>
</g>
<!-- Node10&#45;&gt;Node17 -->
<g id="edge20" class="edge">
<title>Node10&#45;&gt;Node17</title>
<path fill="none" stroke="#63b8ff" d="M2168.35,-115.29C2152.16,-113.61 2132.61,-111.74 2115,-110.5 1729.28,-83.29 1261.38,-70.29 1122.03,-66.84"/>
<polygon fill="#63b8ff" stroke="#63b8ff" points="1122.15,-63.32 1112.06,-66.57 1121.98,-70.32 1122.15,-63.32"/>
</g>
<!-- Node17&#45;&gt;Node15 -->
<g id="edge21" class="edge">
<title>Node17&#45;&gt;Node15</title>
<path fill="none" stroke="#63b8ff" d="M1111.08,-60.09C1186.88,-50.55 1385.52,-25.54 1467.65,-15.2"/>
<polygon fill="#63b8ff" stroke="#63b8ff" points="1467.96,-18.56 1477.44,-13.84 1467.08,-11.62 1467.96,-18.56"/>
</g>
<!-- Node18&#45;&gt;Node8 -->
<g id="edge26" class="edge">
<title>Node18&#45;&gt;Node8</title>
<path fill="none" stroke="#63b8ff" d="M1171.46,-275.82C1251.1,-248.75 1495.74,-166.8 1702,-110.5 1753.2,-96.53 1812.85,-83.03 1851.68,-74.6"/>
<polygon fill="#63b8ff" stroke="#63b8ff" points="1852.02,-77.9 1861.06,-72.37 1850.55,-71.05 1852.02,-77.9"/>
</g>
<!-- Node18&#45;&gt;Node10 -->
<g id="edge28" class="edge">
<title>Node18&#45;&gt;Node10</title>
<path fill="none" stroke="#63b8ff" d="M1177.98,-277.94C1181.03,-277.35 1184.07,-276.77 1187,-276.25 1561.04,-209.33 2015.83,-146.4 2158.2,-127.13"/>
<polygon fill="#63b8ff" stroke="#63b8ff" points="2158.25,-130.52 2167.69,-125.72 2157.31,-123.59 2158.25,-130.52"/>
</g>
<!-- Node18&#45;&gt;Node17 -->
<g id="edge29" class="edge">
<title>Node18&#45;&gt;Node17</title>
<path fill="none" stroke="#63b8ff" d="M1125.29,-275.85C1111.6,-268.42 1094.36,-256.46 1086,-240.25 1059.92,-189.66 1069.44,-119.38 1076.34,-85.58"/>
<polygon fill="#63b8ff" stroke="#63b8ff" points="1079.96,-86.4 1078.7,-75.88 1073.13,-84.89 1079.96,-86.4"/>
</g>
<!-- Node19 -->
<g id="node19" class="node">
<title>Node19</title>
<g id="a_node19"><a xlink:title=" ">
<polygon fill="#e0e0e0" stroke="#999999" points="1034.25,-240.25 995.75,-240.25 995.75,-221 1034.25,-221 1034.25,-240.25"/>
<text text-anchor="middle" x="1015" y="-226.75" font-family="Helvetica,sans-Serif" font-size="10.00">utility</text>
</a>
</g>
</g>
<!-- Node18&#45;&gt;Node19 -->
<g id="edge27" class="edge">
<title>Node18&#45;&gt;Node19</title>
<path fill="none" stroke="#63b8ff" d="M1122.95,-275.84C1101.37,-267 1068.35,-253.48 1044.52,-243.72"/>
<polygon fill="#63b8ff" stroke="#63b8ff" points="1046.19,-240.21 1035.61,-239.66 1043.53,-246.68 1046.19,-240.21"/>
</g>
<!-- Node20&#45;&gt;Node6 -->
<g id="edge163" class="edge">
<title>Node20&#45;&gt;Node6</title>
<path fill="none" stroke="#63b8ff" d="M1337.8,-781.37C1571.15,-776.55 2778,-748.05 2778,-673.62 2778,-673.62 2778,-673.62 2778,-561.12 2778,-405.66 2712.24,-349.3 2575,-276.25 2538.41,-256.77 2426.79,-243.22 2358.44,-236.5"/>
<polygon fill="#63b8ff" stroke="#63b8ff" points="2359.15,-232.95 2348.86,-235.47 2358.47,-239.92 2359.15,-232.95"/>
</g>
<!-- Node20&#45;&gt;Node10 -->
<g id="edge31" class="edge">
<title>Node20&#45;&gt;Node10</title>
<path fill="none" stroke="#63b8ff" d="M1337.71,-781.57C1518.93,-778.87 2284.54,-765.93 2522,-737.5 2643.62,-722.94 2679.92,-731.66 2792,-682.25 2957.32,-609.37 3082,-578.05 3082,-397.38 3082,-397.38 3082,-397.38 3082,-229.62 3082,-144.81 2429.04,-125.6 2248.67,-121.91"/>
<polygon fill="#63b8ff" stroke="#63b8ff" points="2248.8,-118.39 2238.73,-121.69 2248.66,-125.39 2248.8,-118.39"/>
</g>
<!-- Node20&#45;&gt;Node17 -->
<g id="edge164" class="edge">
<title>Node20&#45;&gt;Node17</title>
<path fill="none" stroke="#63b8ff" d="M1260.35,-781.76C1117.29,-779.74 619.53,-766.67 490,-682.25 446.33,-653.79 396.54,-628.95 342,-406 325.3,-337.74 349.86,-210.61 515,-110.5 559.65,-83.43 918.13,-70.6 1040.35,-66.98"/>
<polygon fill="#63b8ff" stroke="#63b8ff" points="1040.19,-70.46 1050.09,-66.67 1039.99,-63.46 1040.19,-70.46"/>
</g>
<!-- Node21 -->
<g id="node21" class="node">
<title>Node21</title>
<g id="a_node21"><a xlink:href="v8-isolate_8h.html" target="_top" xlink:title=" ">
<polygon fill="white" stroke="#666666" points="1331.75,-737.5 1266.25,-737.5 1266.25,-718.25 1331.75,-718.25 1331.75,-737.5"/>
<text text-anchor="middle" x="1299" y="-724" font-family="Helvetica,sans-Serif" font-size="10.00">v8&#45;isolate.h</text>
</a>
</g>
</g>
<!-- Node20&#45;&gt;Node21 -->
<g id="edge32" class="edge">
<title>Node20&#45;&gt;Node21</title>
<path fill="none" stroke="#63b8ff" d="M1299,-773.33C1299,-766.67 1299,-757.24 1299,-748.78"/>
<polygon fill="#63b8ff" stroke="#63b8ff" points="1302.5,-748.86 1299,-738.86 1295.5,-748.86 1302.5,-748.86"/>
</g>
<!-- Node21&#45;&gt;Node3 -->
<g id="edge34" class="edge">
<title>Node21&#45;&gt;Node3</title>
<path fill="none" stroke="#63b8ff" d="M1265.76,-726.32C1122.59,-723.77 562.58,-711.94 490,-682.25 265.56,-590.43 114,-529.37 114,-286.88 114,-286.88 114,-286.88 114,-229.62 114,-157.83 193.45,-104.26 237.47,-80.08"/>
<polygon fill="#63b8ff" stroke="#63b8ff" points="238.88,-82.77 246.06,-74.97 235.59,-76.59 238.88,-82.77"/>
</g>
<!-- Node21&#45;&gt;Node5 -->
<g id="edge102" class="edge">
<title>Node21&#45;&gt;Node5</title>
<path fill="none" stroke="#63b8ff" d="M1265.8,-719.15C1220.8,-706.49 1146,-676.66 1146,-618.38 1146,-618.38 1146,-618.38 1146,-561.12 1146,-531.51 1144.29,-518.42 1165,-497.25 1201.57,-459.88 1241.87,-499.97 1277,-461.25 1299.54,-436.41 1298.54,-418.9 1289,-386.75 1279.39,-354.37 1255.6,-322.66 1239.62,-303.94"/>
<polygon fill="#63b8ff" stroke="#63b8ff" points="1241.74,-302.05 1232.5,-296.85 1236.48,-306.67 1241.74,-302.05"/>
</g>
<!-- Node21&#45;&gt;Node6 -->
<g id="edge141" class="edge">
<title>Node21&#45;&gt;Node6</title>
<path fill="none" stroke="#63b8ff" d="M1332.17,-726.63C1508.97,-725.19 2334.13,-716.62 2375,-682.25 2444.1,-624.14 2437.07,-353.29 2390,-276.25 2381,-261.52 2365.41,-251.44 2349.9,-244.66"/>
<polygon fill="#63b8ff" stroke="#63b8ff" points="2351.37,-241.08 2340.79,-240.66 2348.8,-247.59 2351.37,-241.08"/>
</g>
<!-- Node21&#45;&gt;Node7 -->
<g id="edge33" class="edge">
<title>Node21&#45;&gt;Node7</title>
<path fill="none" stroke="#63b8ff" d="M1332.19,-726.7C1525.55,-725.52 2502.51,-717.87 2631,-682.25 2772.23,-643.1 3196,-488.68 3196,-342.12 3196,-342.12 3196,-342.12 3196,-174.38 3196,-83.42 3053.88,-68.02 2985.24,-65.89"/>
<polygon fill="#63b8ff" stroke="#63b8ff" points="2985.58,-62.37 2975.5,-65.65 2985.42,-69.37 2985.58,-62.37"/>
</g>
<!-- Node21&#45;&gt;Node10 -->
<g id="edge140" class="edge">
<title>Node21&#45;&gt;Node10</title>
<path fill="none" stroke="#63b8ff" d="M1331.95,-726.81C1521.79,-726.32 2471.62,-721.89 2595,-682.25 2713.46,-644.19 2888.61,-435.73 2901,-406 3011.51,-140.89 2419.67,-120.96 2248.39,-120.68"/>
<polygon fill="#63b8ff" stroke="#63b8ff" points="2248.5,-117.18 2238.5,-120.68 2248.5,-124.18 2248.5,-117.18"/>
</g>
<!-- Node21&#45;&gt;Node15 -->
<g id="edge35" class="edge">
<title>Node21&#45;&gt;Node15</title>
<path fill="none" stroke="#63b8ff" d="M1266.09,-726.81C1128.75,-726.28 601,-721.67 440,-682.25 319.96,-652.86 0,-465.71 0,-342.12 0,-342.12 0,-342.12 0,-119.12 0,-35.49 94.87,-71.04 177,-55.25 434.34,-5.77 1281.3,-8.98 1467.56,-10.32"/>
<polygon fill="#63b8ff" stroke="#63b8ff" points="1467.36,-13.82 1477.38,-10.4 1467.41,-6.82 1467.36,-13.82"/>
</g>
<!-- Node21&#45;&gt;Node17 -->
<g id="edge162" class="edge">
<title>Node21&#45;&gt;Node17</title>
<path fill="none" stroke="#63b8ff" d="M1266.11,-726.16C1124.76,-722.93 574.9,-708.68 550,-682.25 429.5,-554.35 550,-462.6 550,-286.88 550,-286.88 550,-286.88 550,-174.38 550,-135.43 575.02,-127.64 610,-110.5 685.28,-73.62 939.99,-67.18 1040.1,-66.09"/>
<polygon fill="#63b8ff" stroke="#63b8ff" points="1040,-69.58 1049.97,-65.98 1039.94,-62.58 1040,-69.58"/>
</g>
<!-- Node21&#45;&gt;Node19 -->
<g id="edge37" class="edge">
<title>Node21&#45;&gt;Node19</title>
<path fill="none" stroke="#63b8ff" d="M1266.01,-726.45C1172.77,-724.83 909.03,-717.19 831,-682.25 792.86,-665.17 762,-660.16 762,-618.38 762,-618.38 762,-618.38 762,-561.12 762,-447.77 785.68,-403.78 873,-331.5 912.84,-298.52 963.08,-264.88 991.87,-246.28"/>
<polygon fill="#63b8ff" stroke="#63b8ff" points="993.24,-248.92 999.76,-240.57 989.46,-243.03 993.24,-248.92"/>
</g>
<!-- Node22 -->
<g id="node22" class="node">
<title>Node22</title>
<g id="a_node22"><a xlink:title=" ">
<polygon fill="#e0e0e0" stroke="#999999" points="1214,-516.5 1174,-516.5 1174,-497.25 1214,-497.25 1214,-516.5"/>
<text text-anchor="middle" x="1194" y="-503" font-family="Helvetica,sans-Serif" font-size="10.00">string</text>
</a>
</g>
</g>
<!-- Node21&#45;&gt;Node22 -->
<g id="edge36" class="edge">
<title>Node21&#45;&gt;Node22</title>
<path fill="none" stroke="#63b8ff" d="M1294.75,-718.02C1279.12,-685.41 1224.56,-571.61 1202.93,-526.5"/>
<polygon fill="#63b8ff" stroke="#63b8ff" points="1205.66,-525.11 1198.18,-517.6 1199.35,-528.13 1205.66,-525.11"/>
</g>
<!-- Node23 -->
<g id="node23" class="node">
<title>Node23</title>
<g id="a_node23"><a xlink:href="common_8h.html" target="_top" xlink:title=" ">
<polygon fill="white" stroke="#666666" points="734.12,-516.5 643.88,-516.5 643.88,-497.25 734.12,-497.25 734.12,-516.5"/>
<text text-anchor="middle" x="689" y="-503" font-family="Helvetica,sans-Serif" font-size="10.00">cppgc/common.h</text>
</a>
</g>
</g>
<!-- Node21&#45;&gt;Node23 -->
<g id="edge38" class="edge">
<title>Node21&#45;&gt;Node23</title>
<path fill="none" stroke="#63b8ff" d="M1265.84,-726.28C1153.03,-723.98 788.86,-714.13 748,-682.25 699.33,-644.27 690.52,-564.33 689.12,-527.37"/>
<polygon fill="#63b8ff" stroke="#63b8ff" points="692.6,-527.53 688.89,-517.61 685.61,-527.68 692.6,-527.53"/>
</g>
<!-- Node24 -->
<g id="node24" class="node">
<title>Node24</title>
<g id="a_node24"><a xlink:href="v8-array-buffer_8h.html" target="_top" xlink:title=" ">
<polygon fill="white" stroke="#666666" points="2566.5,-516.5 2481.5,-516.5 2481.5,-497.25 2566.5,-497.25 2566.5,-516.5"/>
<text text-anchor="middle" x="2524" y="-503" font-family="Helvetica,sans-Serif" font-size="10.00">v8&#45;array&#45;buffer.h</text>
</a>
</g>
</g>
<!-- Node21&#45;&gt;Node24 -->
<g id="edge40" class="edge">
<title>Node21&#45;&gt;Node24</title>
<path fill="none" stroke="#63b8ff" d="M1331.96,-726.83C1520.52,-726.45 2455.5,-722.52 2500,-682.25 2543.56,-642.82 2535.23,-564.26 2528.38,-527.59"/>
<polygon fill="#63b8ff" stroke="#63b8ff" points="2531.62,-526.97 2526.19,-517.87 2524.76,-528.37 2531.62,-526.97"/>
</g>
<!-- Node28 -->
<g id="node28" class="node">
<title>Node28</title>
<g id="a_node28"><a xlink:href="v8-persistent-handle_8h.html" target="_top" xlink:title=" ">
<polygon fill="white" stroke="#666666" points="2065.62,-295.5 1954.38,-295.5 1954.38,-276.25 2065.62,-276.25 2065.62,-295.5"/>
<text text-anchor="middle" x="2010" y="-282" font-family="Helvetica,sans-Serif" font-size="10.00">v8&#45;persistent&#45;handle.h</text>
</a>
</g>
</g>
<!-- Node21&#45;&gt;Node28 -->
<g id="edge143" class="edge">
<title>Node21&#45;&gt;Node28</title>
<path fill="none" stroke="#63b8ff" d="M1332.02,-726.55C1506.18,-724.69 2311.78,-714.37 2353,-682.25 2376.36,-664.04 2372,-647.99 2372,-618.38 2372,-618.38 2372,-618.38 2372,-561.12 2372,-531.51 2371.04,-520.74 2353,-497.25 2271.05,-390.53 2118.25,-325.31 2047.6,-299.55"/>
<polygon fill="#63b8ff" stroke="#63b8ff" points="2048.99,-295.97 2038.39,-295.9 2046.63,-302.56 2048.99,-295.97"/>
</g>
<!-- Node30 -->
<g id="node30" class="node">
<title>Node30</title>
<g id="a_node30"><a xlink:href="v8-primitive_8h.html" target="_top" xlink:title=" ">
<polygon fill="white" stroke="#666666" points="1647.88,-406 1574.12,-406 1574.12,-386.75 1647.88,-386.75 1647.88,-406"/>
<text text-anchor="middle" x="1611" y="-392.5" font-family="Helvetica,sans-Serif" font-size="10.00">v8&#45;primitive.h</text>
</a>
</g>
</g>
<!-- Node21&#45;&gt;Node30 -->
<g id="edge144" class="edge">
<title>Node21&#45;&gt;Node30</title>
<path fill="none" stroke="#63b8ff" d="M1332.06,-726.95C1399.36,-725.19 1546,-710.76 1546,-618.38 1546,-618.38 1546,-618.38 1546,-505.88 1546,-468.98 1573.99,-433.79 1593.24,-413.95"/>
<polygon fill="#63b8ff" stroke="#63b8ff" points="1595.2,-416.94 1599.84,-407.42 1590.27,-411.97 1595.2,-416.94"/>
</g>
<!-- Node36 -->
<g id="node36" class="node">
<title>Node36</title>
<g id="a_node36"><a xlink:href="v8-callbacks_8h.html" target="_top" xlink:title=" ">
<polygon fill="white" stroke="#666666" points="1338.12,-571.75 1259.88,-571.75 1259.88,-552.5 1338.12,-552.5 1338.12,-571.75"/>
<text text-anchor="middle" x="1299" y="-558.25" font-family="Helvetica,sans-Serif" font-size="10.00">v8&#45;callbacks.h</text>
</a>
</g>
</g>
<!-- Node21&#45;&gt;Node36 -->
<g id="edge90" class="edge">
<title>Node21&#45;&gt;Node36</title>
<path fill="none" stroke="#63b8ff" d="M1299,-718.07C1299,-692.64 1299,-618.6 1299,-582.87"/>
<polygon fill="#63b8ff" stroke="#63b8ff" points="1302.5,-582.97 1299,-572.97 1295.5,-582.97 1302.5,-582.97"/>
</g>
<!-- Node39 -->
<g id="node39" class="node">
<title>Node39</title>
<g id="a_node39"><a xlink:href="v8-debug_8h.html" target="_top" xlink:title=" ">
<polygon fill="white" stroke="#666666" points="622.62,-682.25 559.38,-682.25 559.38,-663 622.62,-663 622.62,-682.25"/>
<text text-anchor="middle" x="591" y="-668.75" font-family="Helvetica,sans-Serif" font-size="10.00">v8&#45;debug.h</text>
</a>
</g>
</g>
<!-- Node21&#45;&gt;Node39 -->
<g id="edge103" class="edge">
<title>Node21&#45;&gt;Node39</title>
<path fill="none" stroke="#63b8ff" d="M1265.8,-726.02C1168.71,-723.23 876.97,-712.73 637,-682.25 635.87,-682.11 634.73,-681.95 633.58,-681.79"/>
<polygon fill="#63b8ff" stroke="#63b8ff" points="634.52,-678.24 624.09,-680.14 633.43,-685.15 634.52,-678.24"/>
</g>
<!-- Node44 -->
<g id="node44" class="node">
<title>Node44</title>
<g id="a_node44"><a xlink:href="v8-embedder-heap_8h.html" target="_top" xlink:title=" ">
<polygon fill="white" stroke="#666666" points="985.88,-350.75 882.12,-350.75 882.12,-331.5 985.88,-331.5 985.88,-350.75"/>
<text text-anchor="middle" x="934" y="-337.25" font-family="Helvetica,sans-Serif" font-size="10.00">v8&#45;embedder&#45;heap.h</text>
</a>
</g>
</g>
<!-- Node21&#45;&gt;Node44 -->
<g id="edge125" class="edge">
<title>Node21&#45;&gt;Node44</title>
<path fill="none" stroke="#63b8ff" d="M1265.87,-726.76C1154.42,-725.51 800,-714.01 800,-618.38 800,-618.38 800,-618.38 800,-450.62 800,-401.58 854.9,-370.87 894.42,-355.11"/>
<polygon fill="#63b8ff" stroke="#63b8ff" points="895.49,-358.07 903.59,-351.24 893,-351.53 895.49,-358.07"/>
</g>
<!-- Node45 -->
<g id="node45" class="node">
<title>Node45</title>
<g id="a_node45"><a xlink:href="v8-exception_8h.html" target="_top" xlink:title=" ">
<polygon fill="white" stroke="#666666" points="2344.12,-516.5 2265.88,-516.5 2265.88,-497.25 2344.12,-497.25 2344.12,-516.5"/>
<text text-anchor="middle" x="2305" y="-503" font-family="Helvetica,sans-Serif" font-size="10.00">v8&#45;exception.h</text>
</a>
</g>
</g>
<!-- Node21&#45;&gt;Node45 -->
<g id="edge128" class="edge">
<title>Node21&#45;&gt;Node45</title>
<path fill="none" stroke="#63b8ff" d="M1331.95,-721.92C1385.05,-713.89 1492.85,-697.39 1584,-682.25 1864,-635.74 1950.52,-679.76 2213,-571.75 2241.17,-560.16 2269.33,-538.83 2286.93,-524.02"/>
<polygon fill="#63b8ff" stroke="#63b8ff" points="2288.83,-526.14 2294.11,-516.96 2284.25,-520.84 2288.83,-526.14"/>
</g>
<!-- Node46 -->
<g id="node46" class="node">
<title>Node46</title>
<g id="a_node46"><a xlink:href="v8-function-callback_8h.html" target="_top" xlink:title=" ">
<polygon fill="white" stroke="#666666" points="2593.25,-461.25 2482.75,-461.25 2482.75,-442 2593.25,-442 2593.25,-461.25"/>
<text text-anchor="middle" x="2538" y="-447.75" font-family="Helvetica,sans-Serif" font-size="10.00">v8&#45;function&#45;callback.h</text>
</a>
</g>
</g>
<!-- Node21&#45;&gt;Node46 -->
<g id="edge133" class="edge">
<title>Node21&#45;&gt;Node46</title>
<path fill="none" stroke="#63b8ff" d="M1332.09,-726.43C1515.49,-723.84 2403.36,-709.98 2522,-682.25 2589.39,-666.5 2664,-687.58 2664,-618.38 2664,-618.38 2664,-618.38 2664,-561.12 2664,-513.36 2611.37,-482.02 2574.14,-465.82"/>
<polygon fill="#63b8ff" stroke="#63b8ff" points="2575.68,-462.26 2565.11,-461.65 2573,-468.72 2575.68,-462.26"/>
</g>
<!-- Node47 -->
<g id="node47" class="node">
<title>Node47</title>
<g id="a_node47"><a xlink:href="v8-microtask_8h.html" target="_top" xlink:title=" ">
<polygon fill="white" stroke="#666666" points="2343.88,-682.25 2264.12,-682.25 2264.12,-663 2343.88,-663 2343.88,-682.25"/>
<text text-anchor="middle" x="2304" y="-668.75" font-family="Helvetica,sans-Serif" font-size="10.00">v8&#45;microtask.h</text>
</a>
</g>
</g>
<!-- Node21&#45;&gt;Node47 -->
<g id="edge142" class="edge">
<title>Node21&#45;&gt;Node47</title>
<path fill="none" stroke="#63b8ff" d="M1331.95,-726.66C1453.97,-725.57 1891.57,-719.17 2250,-682.25 2250.97,-682.15 2251.95,-682.04 2252.94,-681.93"/>
<polygon fill="#63b8ff" stroke="#63b8ff" points="2253.19,-685.3 2262.67,-680.57 2252.31,-678.36 2253.19,-685.3"/>
</g>
<!-- Node48 -->
<g id="node48" class="node">
<title>Node48</title>
<g id="a_node48"><a xlink:href="v8-statistics_8h.html" target="_top" xlink:title=" ">
<polygon fill="white" stroke="#666666" points="1668.38,-571.75 1591.62,-571.75 1591.62,-552.5 1668.38,-552.5 1668.38,-571.75"/>
<text text-anchor="middle" x="1630" y="-558.25" font-family="Helvetica,sans-Serif" font-size="10.00">v8&#45;statistics.h</text>
</a>
</g>
</g>
<!-- Node21&#45;&gt;Node48 -->
<g id="edge145" class="edge">
<title>Node21&#45;&gt;Node48</title>
<path fill="none" stroke="#63b8ff" d="M1332.01,-724.68C1393.69,-720.02 1523.5,-707.46 1560,-682.25 1595.25,-657.91 1615.38,-609.56 1624.34,-582.54"/>
<polygon fill="#63b8ff" stroke="#63b8ff" points="1627.96,-583.69 1627.59,-573.1 1621.27,-581.6 1627.96,-583.69"/>
</g>
<!-- Node49 -->
<g id="node49" class="node">
<title>Node49</title>
<g id="a_node49"><a xlink:href="v8-unwinder_8h.html" target="_top" xlink:title=" ">
<polygon fill="white" stroke="#666666" points="522,-350.75 446,-350.75 446,-331.5 522,-331.5 522,-350.75"/>
<text text-anchor="middle" x="484" y="-337.25" font-family="Helvetica,sans-Serif" font-size="10.00">v8&#45;unwinder.h</text>
</a>
</g>
</g>
<!-- Node21&#45;&gt;Node49 -->
<g id="edge155" class="edge">
<title>Node21&#45;&gt;Node49</title>
<path fill="none" stroke="#63b8ff" d="M1266.17,-726.73C1126.08,-725.9 582.52,-720.22 517,-682.25 407.05,-618.54 457.99,-423.33 477.56,-361.28"/>
<polygon fill="#63b8ff" stroke="#63b8ff" points="481.13,-362.6 480.9,-352.01 474.48,-360.43 481.13,-362.6"/>
</g>
<!-- Node23&#45;&gt;Node17 -->
<g id="edge39" class="edge">
<title>Node23&#45;&gt;Node17</title>
<path fill="none" stroke="#63b8ff" d="M686.14,-496.83C671.42,-448.2 609.16,-216.17 726,-110.5 771.31,-69.52 956.59,-65.17 1039.98,-65.35"/>
<polygon fill="#63b8ff" stroke="#63b8ff" points="1039.8,-68.86 1049.81,-65.4 1039.83,-61.86 1039.8,-68.86"/>
</g>
<!-- Node24&#45;&gt;Node6 -->
<g id="edge43" class="edge">
<title>Node24&#45;&gt;Node6</title>
<path fill="none" stroke="#63b8ff" d="M2554.01,-496.82C2571.17,-489.97 2591.35,-478.69 2602,-461.25 2632.07,-412 2639.29,-379.33 2607,-331.5 2552.53,-250.8 2430.17,-233.79 2358.4,-231.08"/>
<polygon fill="#63b8ff" stroke="#63b8ff" points="2358.86,-227.56 2348.76,-230.77 2358.65,-234.56 2358.86,-227.56"/>
</g>
<!-- Node24&#45;&gt;Node7 -->
<g id="edge41" class="edge">
<title>Node24&#45;&gt;Node7</title>
<path fill="none" stroke="#63b8ff" d="M2549.96,-496.86C2587.49,-483.96 2659.16,-459.84 2721,-442 2783.56,-423.95 2803.64,-432.75 2863,-406 2927.34,-377 2968,-357.45 2968,-286.88 2968,-286.88 2968,-286.88 2968,-174.38 2968,-142.75 2960.07,-106.71 2954.46,-85.15"/>
<polygon fill="#63b8ff" stroke="#63b8ff" points="2957.64,-84.52 2951.64,-75.78 2950.89,-86.35 2957.64,-84.52"/>
</g>
<!-- Node24&#45;&gt;Node15 -->
<g id="edge42" class="edge">
<title>Node24&#45;&gt;Node15</title>
<path fill="none" stroke="#63b8ff" d="M2566.86,-503.37C2703.52,-494.23 3120,-456.94 3120,-342.12 3120,-342.12 3120,-342.12 3120,-119.12 3120,-51.94 3048.36,-70.78 2983,-55.25 2838.89,-21.02 1754.04,-12.25 1540.45,-10.84"/>
<polygon fill="#63b8ff" stroke="#63b8ff" points="1540.58,-7.34 1530.55,-10.77 1540.53,-14.34 1540.58,-7.34"/>
</g>
<!-- Node24&#45;&gt;Node17 -->
<g id="edge89" class="edge">
<title>Node24&#45;&gt;Node17</title>
<path fill="none" stroke="#63b8ff" d="M2497.79,-496.78C2459.91,-483.78 2387.54,-459.54 2325,-442 2258.09,-423.23 1760,-350.09 1717,-295.5 1695.92,-268.74 1754.33,-249.05 1735,-221 1656.74,-107.43 1578.88,-143.69 1445,-110.5 1329.97,-81.98 1189.78,-71.34 1121.83,-67.66"/>
<polygon fill="#63b8ff" stroke="#63b8ff" points="1122.34,-64.13 1112.17,-67.11 1121.98,-71.12 1122.34,-64.13"/>
</g>
<!-- Node25 -->
<g id="node25" class="node">
<title>Node25</title>
<g id="a_node25"><a xlink:href="v8-memory-span_8h.html" target="_top" xlink:title=" ">
<polygon fill="white" stroke="#666666" points="2105.75,-129.75 2010.25,-129.75 2010.25,-110.5 2105.75,-110.5 2105.75,-129.75"/>
<text text-anchor="middle" x="2058" y="-116.25" font-family="Helvetica,sans-Serif" font-size="10.00">v8&#45;memory&#45;span.h</text>
</a>
</g>
</g>
<!-- Node24&#45;&gt;Node25 -->
<g id="edge44" class="edge">
<title>Node24&#45;&gt;Node25</title>
<path fill="none" stroke="#63b8ff" d="M2508.89,-496.99C2497.16,-489.18 2481.64,-476.68 2474,-461.25 2415.53,-343.21 2542.48,-260.53 2451,-165.75 2445.25,-159.79 2225.08,-137.48 2116.85,-126.84"/>
<polygon fill="#63b8ff" stroke="#63b8ff" points="2117.4,-123.28 2107.11,-125.79 2116.72,-130.25 2117.4,-123.28"/>
</g>
<!-- Node24&#45;&gt;Node27 -->
<g id="edge50" class="edge">
<title>Node24&#45;&gt;Node27</title>
<path fill="none" stroke="#63b8ff" d="M2481.36,-501.61C2381.77,-491.64 2134.73,-466.91 2034.89,-456.92"/>
<polygon fill="#63b8ff" stroke="#63b8ff" points="2035.32,-453.34 2025.02,-455.83 2034.62,-460.31 2035.32,-453.34"/>
</g>
<!-- Node25&#45;&gt;Node7 -->
<g id="edge45" class="edge">
<title>Node25&#45;&gt;Node7</title>
<path fill="none" stroke="#63b8ff" d="M2106.23,-114.77C2123.22,-113.31 2142.45,-111.74 2160,-110.5 2450.1,-90.03 2800.73,-72.87 2912.75,-67.56"/>
<polygon fill="#63b8ff" stroke="#63b8ff" points="2912.62,-71.03 2922.44,-67.06 2912.29,-64.04 2912.62,-71.03"/>
</g>
<!-- Node25&#45;&gt;Node8 -->
<g id="edge48" class="edge">
<title>Node25&#45;&gt;Node8</title>
<path fill="none" stroke="#63b8ff" d="M2030.01,-110.09C2002.87,-101.33 1961.48,-87.98 1931.3,-78.23"/>
<polygon fill="#63b8ff" stroke="#63b8ff" points="1932.72,-74.69 1922.13,-74.95 1930.57,-81.35 1932.72,-74.69"/>
</g>
<!-- Node25&#45;&gt;Node13 -->
<g id="edge47" class="edge">
<title>Node25&#45;&gt;Node13</title>
<path fill="none" stroke="#63b8ff" d="M2062.13,-110.33C2065.4,-103.36 2070.09,-93.37 2074.2,-84.62"/>
<polygon fill="#63b8ff" stroke="#63b8ff" points="2077.7,-86.4 2078.78,-75.86 2071.36,-83.42 2077.7,-86.4"/>
</g>
<!-- Node25&#45;&gt;Node17 -->
<g id="edge49" class="edge">
<title>Node25&#45;&gt;Node17</title>
<path fill="none" stroke="#63b8ff" d="M2009.96,-114.64C1993.49,-113.19 1974.95,-111.66 1958,-110.5 1636.1,-88.44 1247.03,-72.35 1121.87,-67.44"/>
<polygon fill="#63b8ff" stroke="#63b8ff" points="1122.06,-63.91 1111.93,-67.02 1121.79,-70.9 1122.06,-63.91"/>
</g>
<!-- Node26 -->
<g id="node26" class="node">
<title>Node26</title>
<g id="a_node26"><a xlink:title=" ">
<polygon fill="#e0e0e0" stroke="#999999" points="1978.5,-74.5 1941.5,-74.5 1941.5,-55.25 1978.5,-55.25 1978.5,-74.5"/>
<text text-anchor="middle" x="1960" y="-61" font-family="Helvetica,sans-Serif" font-size="10.00">array</text>
</a>
</g>
</g>
<!-- Node25&#45;&gt;Node26 -->
<g id="edge46" class="edge">
<title>Node25&#45;&gt;Node26</title>
<path fill="none" stroke="#63b8ff" d="M2041.38,-110.09C2026.31,-101.91 2003.86,-89.71 1986.35,-80.19"/>
<polygon fill="#63b8ff" stroke="#63b8ff" points="1988.16,-76.65 1977.71,-74.95 1984.82,-82.8 1988.16,-76.65"/>
</g>
<!-- Node27&#45;&gt;Node6 -->
<g id="edge52" class="edge">
<title>Node27&#45;&gt;Node6</title>
<path fill="none" stroke="#63b8ff" d="M1999.42,-441.7C2010.49,-428.7 2032.35,-404.21 2054,-386.75 2128.79,-326.43 2228.58,-270.77 2275.9,-245.66"/>
<polygon fill="#63b8ff" stroke="#63b8ff" points="2277.22,-248.39 2284.44,-240.63 2273.96,-242.2 2277.22,-248.39"/>
</g>
<!-- Node27&#45;&gt;Node10 -->
<g id="edge51" class="edge">
<title>Node27&#45;&gt;Node10</title>
<path fill="none" stroke="#63b8ff" d="M2024.01,-449.61C2137.34,-445.81 2515.3,-431.33 2563,-406 2590.72,-391.28 2593.05,-378.87 2607,-350.75 2632.86,-298.59 2650.39,-273.39 2625,-221 2607.71,-185.33 2591.55,-181.08 2555,-165.75 2500.62,-142.94 2330.71,-129.29 2248.48,-123.86"/>
<polygon fill="#63b8ff" stroke="#63b8ff" points="2248.92,-120.31 2238.72,-123.16 2248.47,-127.3 2248.92,-120.31"/>
</g>
<!-- Node27&#45;&gt;Node17 -->
<g id="edge88" class="edge">
<title>Node27&#45;&gt;Node17</title>
<path fill="none" stroke="#63b8ff" d="M1968.76,-441.64C1897.82,-414.23 1688.44,-333.41 1681,-331.5 1566.72,-302.21 1524.74,-345.75 1418,-295.5 1308.15,-243.79 1321.72,-171.93 1217,-110.5 1187.29,-93.07 1149.89,-81.44 1121.83,-74.43"/>
<polygon fill="#63b8ff" stroke="#63b8ff" points="1122.73,-70.8 1112.19,-71.88 1121.1,-77.61 1122.73,-70.8"/>
</g>
<!-- Node27&#45;&gt;Node18 -->
<g id="edge53" class="edge">
<title>Node27&#45;&gt;Node18</title>
<path fill="none" stroke="#63b8ff" d="M1960.05,-449.53C1888.56,-446.58 1710.53,-436.53 1565,-406 1458.6,-383.68 1436.73,-360.69 1332,-331.5 1283.28,-317.92 1226.71,-304.78 1188.66,-296.32"/>
<polygon fill="#63b8ff" stroke="#63b8ff" points="1189.48,-292.69 1178.96,-293.95 1187.97,-299.53 1189.48,-292.69"/>
</g>
<!-- Node27&#45;&gt;Node28 -->
<g id="edge54" class="edge">
<title>Node27&#45;&gt;Node28</title>
<path fill="none" stroke="#63b8ff" d="M1992.97,-441.82C1995.76,-416.39 2003.9,-342.35 2007.83,-306.62"/>
<polygon fill="#63b8ff" stroke="#63b8ff" points="2011.41,-307.05 2009.03,-296.72 2004.46,-306.28 2011.41,-307.05"/>
</g>
<!-- Node27&#45;&gt;Node30 -->
<g id="edge60" class="edge">
<title>Node27&#45;&gt;Node30</title>
<path fill="none" stroke="#63b8ff" d="M1960.09,-446.67C1901.13,-439.27 1771.17,-422.61 1662,-406 1661.03,-405.85 1660.05,-405.7 1659.06,-405.55"/>
<polygon fill="#63b8ff" stroke="#63b8ff" points="1659.73,-401.95 1649.3,-403.83 1658.62,-408.86 1659.73,-401.95"/>
</g>
<!-- Node31 -->
<g id="node31" class="node">
<title>Node31</title>
<g id="a_node31"><a xlink:href="v8-value_8h.html" target="_top" xlink:title=" ">
<polygon fill="white" stroke="#666666" points="1672.12,-350.75 1611.88,-350.75 1611.88,-331.5 1672.12,-331.5 1672.12,-350.75"/>
<text text-anchor="middle" x="1642" y="-337.25" font-family="Helvetica,sans-Serif" font-size="10.00">v8&#45;value.h</text>
</a>
</g>
</g>
<!-- Node27&#45;&gt;Node31 -->
<g id="edge87" class="edge">
<title>Node27&#45;&gt;Node31</title>
<path fill="none" stroke="#63b8ff" d="M1959.89,-446.46C1917.13,-440.36 1839.52,-427.35 1776,-406 1736.53,-392.73 1693.51,-370.77 1667.14,-356.37"/>
<polygon fill="#63b8ff" stroke="#63b8ff" points="1669.01,-352.86 1658.57,-351.08 1665.63,-358.98 1669.01,-352.86"/>
</g>
<!-- Node32 -->
<g id="node32" class="node">
<title>Node32</title>
<g id="a_node32"><a xlink:href="v8-sandbox_8h.html" target="_top" xlink:title=" ">
<polygon fill="white" stroke="#666666" points="2554.5,-406 2481.5,-406 2481.5,-386.75 2554.5,-386.75 2554.5,-406"/>
<text text-anchor="middle" x="2518" y="-392.5" font-family="Helvetica,sans-Serif" font-size="10.00">v8&#45;sandbox.h</text>
</a>
</g>
</g>
<!-- Node27&#45;&gt;Node32 -->
<g id="edge71" class="edge">
<title>Node27&#45;&gt;Node32</title>
<path fill="none" stroke="#63b8ff" d="M2024.11,-447.37C2113.41,-438.33 2365.01,-412.86 2470.51,-402.18"/>
<polygon fill="#63b8ff" stroke="#63b8ff" points="2470.55,-405.6 2480.15,-401.11 2469.85,-398.63 2470.55,-405.6"/>
</g>
<!-- Node34 -->
<g id="node34" class="node">
<title>Node34</title>
<g id="a_node34"><a xlink:href="v8-traced-handle_8h.html" target="_top" xlink:title=" ">
<polygon fill="white" stroke="#666666" points="1555.75,-295.5 1460.25,-295.5 1460.25,-276.25 1555.75,-276.25 1555.75,-295.5"/>
<text text-anchor="middle" x="1508" y="-282" font-family="Helvetica,sans-Serif" font-size="10.00">v8&#45;traced&#45;handle.h</text>
</a>
</g>
</g>
<!-- Node27&#45;&gt;Node34 -->
<g id="edge75" class="edge">
<title>Node27&#45;&gt;Node34</title>
<path fill="none" stroke="#63b8ff" d="M1977.46,-441.58C1940.99,-419.3 1842.05,-361.42 1752,-331.5 1690.51,-311.07 1617.02,-299.24 1566.87,-292.96"/>
<polygon fill="#63b8ff" stroke="#63b8ff" points="1567.57,-289.4 1557.22,-291.66 1566.72,-296.34 1567.57,-289.4"/>
</g>
<!-- Node28&#45;&gt;Node6 -->
<g id="edge56" class="edge">
<title>Node28&#45;&gt;Node6</title>
<path fill="none" stroke="#63b8ff" d="M2060.04,-275.78C2112.18,-266.31 2193.67,-251.49 2247.69,-241.68"/>
<polygon fill="#63b8ff" stroke="#63b8ff" points="2248.24,-244.95 2257.45,-239.72 2246.98,-238.07 2248.24,-244.95"/>
</g>
<!-- Node28&#45;&gt;Node10 -->
<g id="edge55" class="edge">
<title>Node28&#45;&gt;Node10</title>
<path fill="none" stroke="#63b8ff" d="M2049.66,-275.82C2084.97,-267.09 2133.26,-253.32 2148,-240.25 2178.15,-213.51 2192.89,-166.84 2199.13,-140.56"/>
<polygon fill="#63b8ff" stroke="#63b8ff" points="2202.71,-141.57 2201.42,-131.06 2195.87,-140.08 2202.71,-141.57"/>
</g>
<!-- Node28&#45;&gt;Node17 -->
<g id="edge59" class="edge">
<title>Node28&#45;&gt;Node17</title>
<path fill="none" stroke="#63b8ff" d="M2018.32,-275.95C2029.4,-262.95 2046.23,-238.46 2034,-221 1951.52,-103.26 1870.64,-140.28 1730,-110.5 1612.94,-85.72 1245.06,-71.39 1121.75,-67.19"/>
<polygon fill="#63b8ff" stroke="#63b8ff" points="1122.04,-63.66 1111.93,-66.82 1121.8,-70.66 1122.04,-63.66"/>
</g>
<!-- Node29 -->
<g id="node29" class="node">
<title>Node29</title>
<g id="a_node29"><a xlink:href="v8-weak-callback-info_8h.html" target="_top" xlink:title=" ">
<polygon fill="white" stroke="#666666" points="1726,-240.25 1608,-240.25 1608,-221 1726,-221 1726,-240.25"/>
<text text-anchor="middle" x="1667" y="-226.75" font-family="Helvetica,sans-Serif" font-size="10.00">v8&#45;weak&#45;callback&#45;info.h</text>
</a>
</g>
</g>
<!-- Node28&#45;&gt;Node29 -->
<g id="edge57" class="edge">
<title>Node28&#45;&gt;Node29</title>
<path fill="none" stroke="#63b8ff" d="M1954.13,-276.2C1894.73,-266.98 1800.7,-252.38 1736.54,-242.42"/>
<polygon fill="#63b8ff" stroke="#63b8ff" points="1737.14,-238.82 1726.72,-240.74 1736.07,-245.73 1737.14,-238.82"/>
</g>
<!-- Node29&#45;&gt;Node17 -->
<g id="edge58" class="edge">
<title>Node29&#45;&gt;Node17</title>
<path fill="none" stroke="#63b8ff" d="M1651.31,-220.56C1611.45,-197.97 1502.48,-138.96 1404,-110.5 1305.19,-81.95 1183.94,-71.45 1121.87,-67.75"/>
<polygon fill="#63b8ff" stroke="#63b8ff" points="1122.17,-64.21 1111.99,-67.14 1121.77,-71.2 1122.17,-64.21"/>
</g>
<!-- Node30&#45;&gt;Node5 -->
<g id="edge61" class="edge">
<title>Node30&#45;&gt;Node5</title>
<path fill="none" stroke="#63b8ff" d="M1590.81,-386.26C1560.09,-372.7 1499.52,-347.11 1446,-331.5 1382.85,-313.08 1307.42,-299.67 1262.73,-292.6"/>
<polygon fill="#63b8ff" stroke="#63b8ff" points="1263.48,-289.02 1253.06,-290.94 1262.4,-295.93 1263.48,-289.02"/>
</g>
<!-- Node30&#45;&gt;Node6 -->
<g id="edge63" class="edge">
<title>Node30&#45;&gt;Node6</title>
<path fill="none" stroke="#63b8ff" d="M1648.07,-391.58C1736.1,-381.9 1963.97,-352.89 2146,-295.5 2149.16,-294.5 2225.55,-263.31 2270.59,-244.89"/>
<polygon fill="#63b8ff" stroke="#63b8ff" points="2271.83,-247.75 2279.76,-240.73 2269.18,-241.27 2271.83,-247.75"/>
</g>
<!-- Node30&#45;&gt;Node10 -->
<g id="edge62" class="edge">
<title>Node30&#45;&gt;Node10</title>
<path fill="none" stroke="#63b8ff" d="M1635.17,-386.32C1690,-365.87 1828.1,-314.91 1945,-276.25 1997.06,-259.04 2014.9,-266.56 2063,-240.25 2114.09,-212.3 2163.48,-163.67 2187.64,-138.04"/>
<polygon fill="#63b8ff" stroke="#63b8ff" points="2189.85,-140.72 2194.09,-131.01 2184.72,-135.96 2189.85,-140.72"/>
</g>
<!-- Node30&#45;&gt;Node17 -->
<g id="edge70" class="edge">
<title>Node30&#45;&gt;Node17</title>
<path fill="none" stroke="#63b8ff" d="M1596.37,-386.35C1573.83,-372.79 1528.93,-347.08 1488,-331.5 1427.15,-308.34 1408.17,-314.83 1346,-295.5 1322.47,-288.18 1317.14,-284.74 1294,-276.25 1250.05,-260.12 1227.63,-273.83 1195,-240.25 1152.66,-196.68 1189.48,-158.31 1152,-110.5 1141.74,-97.41 1126.49,-87.11 1112.75,-79.73"/>
<polygon fill="#63b8ff" stroke="#63b8ff" points="1114.62,-76.24 1104.11,-74.86 1111.46,-82.49 1114.62,-76.24"/>
</g>
<!-- Node30&#45;&gt;Node31 -->
<g id="edge64" class="edge">
<title>Node30&#45;&gt;Node31</title>
<path fill="none" stroke="#63b8ff" d="M1616.12,-386.58C1620.22,-379.53 1626.12,-369.4 1631.25,-360.58"/>
<polygon fill="#63b8ff" stroke="#63b8ff" points="1634.76,-362.51 1636.77,-352.11 1628.71,-358.99 1634.76,-362.51"/>
</g>
<!-- Node31&#45;&gt;Node5 -->
<g id="edge65" class="edge">
<title>Node31&#45;&gt;Node5</title>
<path fill="none" stroke="#63b8ff" d="M1611.6,-336.25C1537.15,-326.77 1345.75,-302.39 1263.04,-291.85"/>
<polygon fill="#63b8ff" stroke="#63b8ff" points="1263.7,-288.28 1253.34,-290.49 1262.82,-295.22 1263.7,-288.28"/>
</g>
<!-- Node31&#45;&gt;Node6 -->
<g id="edge67" class="edge">
<title>Node31&#45;&gt;Node6</title>
<path fill="none" stroke="#63b8ff" d="M1672.55,-337.54C1764.75,-329.67 2036.31,-305.87 2075,-295.5 2095.23,-290.08 2098.18,-283.01 2118,-276.25 2160.69,-261.68 2210.46,-249.96 2247.62,-242.19"/>
<polygon fill="#63b8ff" stroke="#63b8ff" points="2248.15,-245.45 2257.24,-240.01 2246.74,-238.6 2248.15,-245.45"/>
</g>
<!-- Node31&#45;&gt;Node10 -->
<g id="edge66" class="edge">
<title>Node31&#45;&gt;Node10</title>
<path fill="none" stroke="#63b8ff" d="M1672.28,-335C1715.97,-327.42 1799.1,-312.29 1869,-295.5 1890.79,-290.26 2042.6,-249.53 2063,-240.25 2104.01,-221.59 2114.07,-214.65 2148,-185 2164.12,-170.92 2179.77,-152.08 2190.23,-138.51"/>
<polygon fill="#63b8ff" stroke="#63b8ff" points="2193.35,-141.18 2196.58,-131.09 2187.77,-136.97 2193.35,-141.18"/>
</g>
<!-- Node31&#45;&gt;Node17 -->
<g id="edge69" class="edge">
<title>Node31&#45;&gt;Node17</title>
<path fill="none" stroke="#63b8ff" d="M1611.86,-336.02C1547.43,-327.1 1400.46,-305.9 1380,-295.5 1274.94,-242.08 1288.57,-175.12 1190,-110.5 1168.93,-96.69 1142.9,-85.84 1121.56,-78.29"/>
<polygon fill="#63b8ff" stroke="#63b8ff" points="1122.79,-74.67 1112.19,-74.76 1120.53,-81.3 1122.79,-74.67"/>
</g>
<!-- Node31&#45;&gt;Node18 -->
<g id="edge68" class="edge">
<title>Node31&#45;&gt;Node18</title>
<path fill="none" stroke="#63b8ff" d="M1611.51,-338.24C1539.7,-333.57 1354.12,-320.14 1188.81,-295.61"/>
<polygon fill="#63b8ff" stroke="#63b8ff" points="1189.37,-292.01 1178.96,-293.98 1188.33,-298.93 1189.37,-292.01"/>
</g>
<!-- Node32&#45;&gt;Node10 -->
<g id="edge73" class="edge">
<title>Node32&#45;&gt;Node10</title>
<path fill="none" stroke="#63b8ff" d="M2519.57,-386.61C2522.31,-373.38 2529.07,-348.1 2543,-331.5 2562.74,-307.97 2586.96,-322.29 2602,-295.5 2632.23,-241.64 2630.45,-230.19 2526,-165.75 2480.48,-137.67 2326.19,-126.73 2248.49,-122.93"/>
<polygon fill="#63b8ff" stroke="#63b8ff" points="2248.76,-119.39 2238.6,-122.42 2248.43,-126.38 2248.76,-119.39"/>
</g>
<!-- Node32&#45;&gt;Node17 -->
<g id="edge74" class="edge">
<title>Node32&#45;&gt;Node17</title>
<path fill="none" stroke="#63b8ff" d="M2516.65,-386.42C2512.97,-364.85 2500.9,-309.33 2470,-276.25 2431.57,-235.1 2409.31,-239.12 2356,-221 2126.53,-143 2062.25,-142.42 1822,-110.5 1556.75,-75.26 1234.36,-67.83 1121.97,-66.28"/>
<polygon fill="#63b8ff" stroke="#63b8ff" points="1122.19,-62.77 1112.15,-66.14 1122.1,-69.77 1122.19,-62.77"/>
</g>
<!-- Node33 -->
<g id="node33" class="node">
<title>Node33</title>
<g id="a_node33"><a xlink:title=" ">
<polygon fill="#e0e0e0" stroke="#999999" points="2597.62,-350.75 2552.38,-350.75 2552.38,-331.5 2597.62,-331.5 2597.62,-350.75"/>
<text text-anchor="middle" x="2575" y="-337.25" font-family="Helvetica,sans-Serif" font-size="10.00">cstdint</text>
</a>
</g>
</g>
<!-- Node32&#45;&gt;Node33 -->
<g id="edge72" class="edge">
<title>Node32&#45;&gt;Node33</title>
<path fill="none" stroke="#63b8ff" d="M2527.67,-386.34C2535.83,-378.72 2547.71,-367.62 2557.52,-358.45"/>
<polygon fill="#63b8ff" stroke="#63b8ff" points="2559.56,-361.41 2564.47,-352.02 2554.78,-356.29 2559.56,-361.41"/>
</g>
<!-- Node34&#45;&gt;Node3 -->
<g id="edge77" class="edge">
<title>Node34&#45;&gt;Node3</title>
<path fill="none" stroke="#63b8ff" d="M1474.43,-275.78C1426.41,-262.89 1335.24,-238.89 1257,-221 1136.75,-193.5 1106.6,-186.52 985,-165.75 723.08,-121 404.87,-82.21 300.77,-69.92"/>
<polygon fill="#63b8ff" stroke="#63b8ff" points="301.32,-66.35 290.98,-68.65 300.5,-73.3 301.32,-66.35"/>
</g>
<!-- Node34&#45;&gt;Node6 -->
<g id="edge84" class="edge">
<title>Node34&#45;&gt;Node6</title>
<path fill="none" stroke="#63b8ff" d="M1556.24,-281.64C1695.89,-272.29 2099.97,-245.22 2247.9,-235.32"/>
<polygon fill="#63b8ff" stroke="#63b8ff" points="2247.77,-238.77 2257.52,-234.6 2247.3,-231.78 2247.77,-238.77"/>
</g>
<!-- Node34&#45;&gt;Node7 -->
<g id="edge76" class="edge">
<title>Node34&#45;&gt;Node7</title>
<path fill="none" stroke="#63b8ff" d="M1556.02,-278.21C1617.47,-269.63 1727.21,-254.19 1821,-240.25 2251.34,-176.31 2773.22,-93.79 2913.09,-71.58"/>
<polygon fill="#63b8ff" stroke="#63b8ff" points="2913.28,-74.94 2922.6,-69.91 2912.18,-68.03 2913.28,-74.94"/>
</g>
<!-- Node34&#45;&gt;Node8 -->
<g id="edge81" class="edge">
<title>Node34&#45;&gt;Node8</title>
<path fill="none" stroke="#63b8ff" d="M1517.31,-275.84C1547.15,-247.36 1644.03,-158.55 1740,-110.5 1775.74,-92.61 1819.87,-80.7 1851.53,-73.72"/>
<polygon fill="#63b8ff" stroke="#63b8ff" points="1852.13,-76.95 1861.18,-71.45 1850.67,-70.11 1852.13,-76.95"/>
</g>
<!-- Node34&#45;&gt;Node10 -->
<g id="edge83" class="edge">
<title>Node34&#45;&gt;Node10</title>
<path fill="none" stroke="#63b8ff" d="M1556.19,-278.04C1608.6,-270.27 1694.68,-256.54 1768,-240.25 1915.47,-207.48 2087.72,-156.45 2163.65,-133.29"/>
<polygon fill="#63b8ff" stroke="#63b8ff" points="2164.17,-136.48 2172.71,-130.21 2162.12,-129.79 2164.17,-136.48"/>
</g>
<!-- Node34&#45;&gt;Node12 -->
<g id="edge79" class="edge">
<title>Node34&#45;&gt;Node12</title>
<path fill="none" stroke="#63b8ff" d="M1556.17,-277.58C1618.43,-267.82 1720.6,-250.54 1735,-240.25 1766.1,-218.01 1749.26,-190.96 1778,-165.75 1810.37,-137.35 1927.63,-96.03 1985.8,-76.66"/>
<polygon fill="#63b8ff" stroke="#63b8ff" points="1986.55,-79.77 1994.94,-73.31 1984.35,-73.12 1986.55,-79.77"/>
</g>
<!-- Node34&#45;&gt;Node15 -->
<g id="edge80" class="edge">
<title>Node34&#45;&gt;Node15</title>
<path fill="none" stroke="#63b8ff" d="M1507.44,-275.88C1506.34,-257.29 1504,-213.32 1504,-176.38 1504,-176.38 1504,-176.38 1504,-119.12 1504,-88.12 1504,-52.13 1504,-30.38"/>
<polygon fill="#63b8ff" stroke="#63b8ff" points="1507.5,-30.63 1504,-20.63 1500.5,-30.63 1507.5,-30.63"/>
</g>
<!-- Node34&#45;&gt;Node17 -->
<g id="edge86" class="edge">
<title>Node34&#45;&gt;Node17</title>
<path fill="none" stroke="#63b8ff" d="M1504.65,-275.99C1496.44,-255.01 1473.64,-201.53 1442,-165.75 1428.17,-150.11 1385.3,-118.48 1366,-110.5 1283.77,-76.51 1178.42,-68.21 1121.64,-66.31"/>
<polygon fill="#63b8ff" stroke="#63b8ff" points="1122.04,-62.79 1111.95,-66.01 1121.85,-69.78 1122.04,-62.79"/>
</g>
<!-- Node34&#45;&gt;Node19 -->
<g id="edge82" class="edge">
<title>Node34&#45;&gt;Node19</title>
<path fill="none" stroke="#63b8ff" d="M1459.83,-279.67C1359.04,-268.79 1128.39,-243.87 1045.43,-234.91"/>
<polygon fill="#63b8ff" stroke="#63b8ff" points="1045.83,-231.33 1035.51,-233.73 1045.08,-238.29 1045.83,-231.33"/>
</g>
<!-- Node34&#45;&gt;Node29 -->
<g id="edge85" class="edge">
<title>Node34&#45;&gt;Node29</title>
<path fill="none" stroke="#63b8ff" d="M1534.97,-275.84C1561.01,-267.12 1600.66,-253.84 1629.72,-244.11"/>
<polygon fill="#63b8ff" stroke="#63b8ff" points="1630.52,-247.2 1638.9,-240.7 1628.3,-240.56 1630.52,-247.2"/>
</g>
<!-- Node35 -->
<g id="node35" class="node">
<title>Node35</title>
<g id="a_node35"><a xlink:title=" ">
<polygon fill="#e0e0e0" stroke="#999999" points="1248.25,-240.25 1203.75,-240.25 1203.75,-221 1248.25,-221 1248.25,-240.25"/>
<text text-anchor="middle" x="1226" y="-226.75" font-family="Helvetica,sans-Serif" font-size="10.00">stdio.h</text>
</a>
</g>
</g>
<!-- Node34&#45;&gt;Node35 -->
<g id="edge78" class="edge">
<title>Node34&#45;&gt;Node35</title>
<path fill="none" stroke="#63b8ff" d="M1459.84,-275.78C1402.78,-265.01 1309.2,-247.33 1259.48,-237.95"/>
<polygon fill="#63b8ff" stroke="#63b8ff" points="1260.18,-234.33 1249.7,-235.91 1258.88,-241.21 1260.18,-234.33"/>
</g>
<!-- Node36&#45;&gt;Node5 -->
<g id="edge95" class="edge">
<title>Node36&#45;&gt;Node5</title>
<path fill="none" stroke="#63b8ff" d="M1327.86,-552.06C1366.98,-537.76 1432,-505.97 1432,-452.62 1432,-452.62 1432,-452.62 1432,-395.38 1432,-355.81 1403.76,-352.13 1370,-331.5 1351.94,-320.46 1299.57,-305.83 1262.75,-296.38"/>
<polygon fill="#63b8ff" stroke="#63b8ff" points="1263.9,-292.81 1253.34,-293.74 1262.18,-299.59 1263.9,-292.81"/>
</g>
<!-- Node36&#45;&gt;Node6 -->
<g id="edge96" class="edge">
<title>Node36&#45;&gt;Node6</title>
<path fill="none" stroke="#63b8ff" d="M1338.5,-560.56C1430.71,-558.7 1667.01,-550.68 1861,-516.5 1951.82,-500.5 1978.88,-503.21 2061,-461.25 2162.59,-409.34 2180.29,-379.94 2257,-295.5 2270.18,-280.99 2283.03,-262.69 2291.79,-249.4"/>
<polygon fill="#63b8ff" stroke="#63b8ff" points="2295.14,-251.66 2297.62,-241.36 2289.26,-247.86 2295.14,-251.66"/>
</g>
<!-- Node36&#45;&gt;Node7 -->
<g id="edge91" class="edge">
<title>Node36&#45;&gt;Node7</title>
<path fill="none" stroke="#63b8ff" d="M1338.58,-559.9C1550.64,-553.32 2543.85,-522.26 2575,-516.5 2593.6,-513.06 2880.31,-414.89 2897,-406 2960.35,-372.28 3006,-358.64 3006,-286.88 3006,-286.88 3006,-286.88 3006,-174.38 3006,-138.76 2981.64,-103.34 2964.77,-83.08"/>
<polygon fill="#63b8ff" stroke="#63b8ff" points="2966.86,-81.15 2957.66,-75.89 2961.57,-85.74 2966.86,-81.15"/>
</g>
<!-- Node36&#45;&gt;Node17 -->
<g id="edge101" class="edge">
<title>Node36&#45;&gt;Node17</title>
<path fill="none" stroke="#63b8ff" d="M1291.64,-552.3C1279.17,-538.02 1252.35,-510.14 1223,-497.25 1012.13,-404.69 842.16,-549.59 726,-350.75 692.8,-293.92 746.29,-126.76 764,-110.5 803.56,-74.19 964.03,-67.27 1040.32,-66.06"/>
<polygon fill="#63b8ff" stroke="#63b8ff" points="1039.99,-69.55 1049.95,-65.92 1039.9,-62.55 1039.99,-69.55"/>
</g>
<!-- Node36&#45;&gt;Node22 -->
<g id="edge93" class="edge">
<title>Node36&#45;&gt;Node22</title>
<path fill="none" stroke="#63b8ff" d="M1281.19,-552.09C1264.9,-543.83 1240.54,-531.48 1221.71,-521.93"/>
<polygon fill="#63b8ff" stroke="#63b8ff" points="1223.4,-518.35 1212.9,-516.95 1220.23,-524.6 1223.4,-518.35"/>
</g>
<!-- Node36&#45;&gt;Node23 -->
<g id="edge94" class="edge">
<title>Node36&#45;&gt;Node23</title>
<path fill="none" stroke="#63b8ff" d="M1259.45,-557.67C1154.25,-548.49 867.27,-523.44 745.18,-512.78"/>
<polygon fill="#63b8ff" stroke="#63b8ff" points="745.86,-509.24 735.59,-511.85 745.25,-516.21 745.86,-509.24"/>
</g>
<!-- Node37 -->
<g id="node37" class="node">
<title>Node37</title>
<g id="a_node37"><a xlink:title=" ">
<polygon fill="#e0e0e0" stroke="#999999" points="1328,-516.5 1270,-516.5 1270,-497.25 1328,-497.25 1328,-516.5"/>
<text text-anchor="middle" x="1299" y="-503" font-family="Helvetica,sans-Serif" font-size="10.00">functional</text>
</a>
</g>
</g>
<!-- Node36&#45;&gt;Node37 -->
<g id="edge92" class="edge">
<title>Node36&#45;&gt;Node37</title>
<path fill="none" stroke="#63b8ff" d="M1299,-552.33C1299,-545.67 1299,-536.24 1299,-527.78"/>
<polygon fill="#63b8ff" stroke="#63b8ff" points="1302.5,-527.86 1299,-517.86 1295.5,-527.86 1302.5,-527.86"/>
</g>
<!-- Node38 -->
<g id="node38" class="node">
<title>Node38</title>
<g id="a_node38"><a xlink:href="v8-promise_8h.html" target="_top" xlink:title=" ">
<polygon fill="white" stroke="#666666" points="1851.75,-516.5 1780.25,-516.5 1780.25,-497.25 1851.75,-497.25 1851.75,-516.5"/>
<text text-anchor="middle" x="1816" y="-503" font-family="Helvetica,sans-Serif" font-size="10.00">v8&#45;promise.h</text>
</a>
</g>
</g>
<!-- Node36&#45;&gt;Node38 -->
<g id="edge97" class="edge">
<title>Node36&#45;&gt;Node38</title>
<path fill="none" stroke="#63b8ff" d="M1338.28,-557.08C1431.97,-547.43 1668.23,-523.09 1769.14,-512.7"/>
<polygon fill="#63b8ff" stroke="#63b8ff" points="1769.31,-516.1 1778.9,-511.59 1768.59,-509.14 1769.31,-516.1"/>
</g>
<!-- Node38&#45;&gt;Node6 -->
<g id="edge98" class="edge">
<title>Node38&#45;&gt;Node6</title>
<path fill="none" stroke="#63b8ff" d="M1851.94,-503.95C1896.47,-500.37 1973.71,-490.17 2033,-461.25 2062.46,-446.88 2229.96,-297.32 2285.28,-247.6"/>
<polygon fill="#63b8ff" stroke="#63b8ff" points="2287.06,-250.8 2292.15,-241.51 2282.38,-245.6 2287.06,-250.8"/>
</g>
<!-- Node38&#45;&gt;Node17 -->
<g id="edge100" class="edge">
<title>Node38&#45;&gt;Node17</title>
<path fill="none" stroke="#63b8ff" d="M1779.89,-505.28C1648.23,-502.86 1194.24,-492.41 1053,-461.25 954.97,-439.62 919.14,-428.79 856,-350.75 834.93,-324.71 816,-320.37 816,-286.88 816,-286.88 816,-286.88 816,-174.38 816,-78.74 965.64,-65.57 1040.03,-64.93"/>
<polygon fill="#63b8ff" stroke="#63b8ff" points="1039.86,-68.43 1049.86,-64.92 1039.86,-61.43 1039.86,-68.43"/>
</g>
<!-- Node38&#45;&gt;Node27 -->
<g id="edge99" class="edge">
<title>Node38&#45;&gt;Node27</title>
<path fill="none" stroke="#63b8ff" d="M1845.86,-496.84C1874.93,-488.04 1919.34,-474.61 1951.57,-464.86"/>
<polygon fill="#63b8ff" stroke="#63b8ff" points="1952.44,-467.95 1961,-461.7 1950.41,-461.25 1952.44,-467.95"/>
</g>
<!-- Node39&#45;&gt;Node3 -->
<g id="edge104" class="edge">
<title>Node39&#45;&gt;Node3</title>
<path fill="none" stroke="#63b8ff" d="M574.46,-662.58C503.45,-622.43 228,-452.46 228,-231.62 228,-231.62 228,-231.62 228,-174.38 228,-141.23 243.99,-105.43 255.22,-84.37"/>
<polygon fill="#63b8ff" stroke="#63b8ff" points="258.75,-86.23 260.56,-75.79 252.63,-82.83 258.75,-86.23"/>
</g>
<!-- Node39&#45;&gt;Node17 -->
<g id="edge124" class="edge">
<title>Node39&#45;&gt;Node17</title>
<path fill="none" stroke="#63b8ff" d="M590.88,-662.68C590.32,-620.49 588,-437.17 588,-286.88 588,-286.88 588,-286.88 588,-174.38 588,-134.19 615.71,-127.76 652,-110.5 720.08,-78.11 946.46,-69.07 1040.01,-66.68"/>
<polygon fill="#63b8ff" stroke="#63b8ff" points="1040.08,-70.16 1050,-66.41 1039.91,-63.16 1040.08,-70.16"/>
</g>
<!-- Node40 -->
<g id="node40" class="node">
<title>Node40</title>
<g id="a_node40"><a xlink:href="v8-script_8h.html" target="_top" xlink:title=" ">
<polygon fill="white" stroke="#666666" points="1044.5,-627 983.5,-627 983.5,-607.75 1044.5,-607.75 1044.5,-627"/>
<text text-anchor="middle" x="1014" y="-613.5" font-family="Helvetica,sans-Serif" font-size="10.00">v8&#45;script.h</text>
</a>
</g>
</g>
<!-- Node39&#45;&gt;Node40 -->
<g id="edge105" class="edge">
<title>Node39&#45;&gt;Node40</title>
<path fill="none" stroke="#63b8ff" d="M622.79,-667.62C698.28,-658.12 888.25,-634.21 972.57,-623.59"/>
<polygon fill="#63b8ff" stroke="#63b8ff" points="972.79,-626.96 982.27,-622.24 971.91,-620.02 972.79,-626.96"/>
</g>
<!-- Node40&#45;&gt;Node3 -->
<g id="edge107" class="edge">
<title>Node40&#45;&gt;Node3</title>
<path fill="none" stroke="#63b8ff" d="M983.08,-613.14C914.16,-604.99 744,-579.55 617,-516.5 437.04,-427.16 266,-432.54 266,-231.62 266,-231.62 266,-231.62 266,-174.38 266,-143.37 266,-107.38 266,-85.63"/>
<polygon fill="#63b8ff" stroke="#63b8ff" points="269.5,-85.88 266,-75.88 262.5,-85.88 269.5,-85.88"/>
</g>
<!-- Node40&#45;&gt;Node4 -->
<g id="edge110" class="edge">
<title>Node40&#45;&gt;Node4</title>
<path fill="none" stroke="#63b8ff" d="M1007.68,-607.32C1002.04,-598.64 994.2,-584.96 991,-571.75 988.98,-563.44 990.92,-561.06 991,-552.5 991.24,-527.94 998.4,-355.82 995,-331.5 989.17,-289.74 979.3,-281.14 969,-240.25 965.26,-225.4 961.58,-208.46 958.92,-195.77"/>
<polygon fill="#63b8ff" stroke="#63b8ff" points="962.17,-195.18 956.73,-186.09 955.32,-196.59 962.17,-195.18"/>
</g>
<!-- Node40&#45;&gt;Node5 -->
<g id="edge112" class="edge">
<title>Node40&#45;&gt;Node5</title>
<path fill="none" stroke="#63b8ff" d="M1034.71,-607.36C1050.68,-599.64 1072.58,-587.31 1088,-571.75 1115.07,-544.43 1101.62,-520.83 1132,-497.25 1177.34,-462.07 1221.54,-507.14 1256,-461.25 1290.63,-415.14 1273.65,-386.4 1256,-331.5 1252.77,-321.45 1246.35,-311.75 1240.1,-303.98"/>
<polygon fill="#63b8ff" stroke="#63b8ff" points="1242.24,-302.1 1233.05,-296.83 1236.95,-306.68 1242.24,-302.1"/>
</g>
<!-- Node40&#45;&gt;Node6 -->
<g id="edge113" class="edge">
<title>Node40&#45;&gt;Node6</title>
<path fill="none" stroke="#63b8ff" d="M1044.94,-616.69C1207.18,-617.9 1960.06,-617.9 2165,-516.5 2271.4,-463.86 2287,-410.86 2315,-295.5 2318.63,-280.56 2314.99,-263.42 2310.8,-250.66"/>
<polygon fill="#63b8ff" stroke="#63b8ff" points="2313.74,-249.53 2306.98,-241.37 2307.18,-251.96 2313.74,-249.53"/>
</g>
<!-- Node40&#45;&gt;Node7 -->
<g id="edge106" class="edge">
<title>Node40&#45;&gt;Node7</title>
<path fill="none" stroke="#63b8ff" d="M1044.81,-615.52C1244.75,-609.83 2360.77,-575.78 2696,-516.5 2787.02,-500.4 3017.66,-453.42 3097,-406 3130.7,-385.86 3158,-381.38 3158,-342.12 3158,-342.12 3158,-342.12 3158,-174.38 3158,-97.56 3045.42,-75.05 2985.51,-68.52"/>
<polygon fill="#63b8ff" stroke="#63b8ff" points="2985.92,-64.94 2975.63,-67.44 2985.23,-71.91 2985.92,-64.94"/>
</g>
<!-- Node40&#45;&gt;Node15 -->
<g id="edge108" class="edge">
<title>Node40&#45;&gt;Node15</title>
<path fill="none" stroke="#63b8ff" d="M983.07,-615.39C829.02,-608.69 152,-557.57 152,-176.38 152,-176.38 152,-176.38 152,-119.12 152,-73.28 189.96,-71.03 233,-55.25 351.46,-11.82 1271.62,-10.37 1467.44,-10.56"/>
<polygon fill="#63b8ff" stroke="#63b8ff" points="1467.26,-14.06 1477.26,-10.57 1467.27,-7.06 1467.26,-14.06"/>
</g>
<!-- Node40&#45;&gt;Node17 -->
<g id="edge123" class="edge">
<title>Node40&#45;&gt;Node17</title>
<path fill="none" stroke="#63b8ff" d="M995,-607.36C965.19,-593.56 905.32,-567.26 852,-552.5 804.89,-539.46 667.33,-553.16 635,-516.5 567.44,-439.9 626,-389.01 626,-286.88 626,-286.88 626,-286.88 626,-174.38 626,-129.22 663.4,-128.04 705,-110.5 764.72,-85.32 955.52,-72.45 1040.04,-67.87"/>
<polygon fill="#63b8ff" stroke="#63b8ff" points="1040.19,-71.32 1050,-67.29 1039.82,-64.33 1040.19,-71.32"/>
</g>
<!-- Node40&#45;&gt;Node18 -->
<g id="edge114" class="edge">
<title>Node40&#45;&gt;Node18</title>
<path fill="none" stroke="#63b8ff" d="M1015.1,-607.49C1017.02,-594.54 1021.9,-570.12 1033,-552.5 1052.49,-521.55 1063.13,-516.87 1094,-497.25 1128.97,-475.02 1157.04,-495.75 1180,-461.25 1211.95,-413.24 1198.83,-386.01 1180,-331.5 1176.41,-321.11 1169.3,-311.3 1162.42,-303.53"/>
<polygon fill="#63b8ff" stroke="#63b8ff" points="1165.65,-301.8 1156.22,-296.98 1160.58,-306.63 1165.65,-301.8"/>
</g>
<!-- Node40&#45;&gt;Node25 -->
<g id="edge115" class="edge">
<title>Node40&#45;&gt;Node25</title>
<path fill="none" stroke="#63b8ff" d="M1044.98,-615.66C1147.62,-612.46 1470,-595.46 1470,-507.88 1470,-507.88 1470,-507.88 1470,-450.62 1470,-371.27 1541.43,-381.56 1603,-331.5 1635.12,-305.38 1642.11,-296.89 1678,-276.25 1691.38,-268.55 1918.64,-171.42 1933,-165.75 1962.26,-154.2 1995.85,-142.28 2020.84,-133.67"/>
<polygon fill="#63b8ff" stroke="#63b8ff" points="2021.66,-136.75 2029.99,-130.19 2019.39,-130.12 2021.66,-136.75"/>
</g>
<!-- Node40&#45;&gt;Node36 -->
<g id="edge111" class="edge">
<title>Node40&#45;&gt;Node36</title>
<path fill="none" stroke="#63b8ff" d="M1044.77,-610.63C1093.82,-601.46 1190.21,-583.45 1249.18,-572.43"/>
<polygon fill="#63b8ff" stroke="#63b8ff" points="1249.55,-575.74 1258.74,-570.46 1248.27,-568.86 1249.55,-575.74"/>
</g>
<!-- Node41 -->
<g id="node41" class="node">
<title>Node41</title>
<g id="a_node41"><a xlink:title=" ">
<polygon fill="#e0e0e0" stroke="#999999" points="1079.5,-571.75 1042.5,-571.75 1042.5,-552.5 1079.5,-552.5 1079.5,-571.75"/>
<text text-anchor="middle" x="1061" y="-558.25" font-family="Helvetica,sans-Serif" font-size="10.00">tuple</text>
</a>
</g>
</g>
<!-- Node40&#45;&gt;Node41 -->
<g id="edge109" class="edge">
<title>Node40&#45;&gt;Node41</title>
<path fill="none" stroke="#63b8ff" d="M1021.76,-607.58C1028.32,-600.15 1037.91,-589.29 1045.96,-580.16"/>
<polygon fill="#63b8ff" stroke="#63b8ff" points="1048.08,-582.92 1052.07,-573.11 1042.83,-578.29 1048.08,-582.92"/>
</g>
<!-- Node42 -->
<g id="node42" class="node">
<title>Node42</title>
<g id="a_node42"><a xlink:href="v8-message_8h.html" target="_top" xlink:title=" ">
<polygon fill="white" stroke="#666666" points="1138.38,-461.25 1061.62,-461.25 1061.62,-442 1138.38,-442 1138.38,-461.25"/>
<text text-anchor="middle" x="1100" y="-447.75" font-family="Helvetica,sans-Serif" font-size="10.00">v8&#45;message.h</text>
</a>
</g>
</g>
<!-- Node40&#45;&gt;Node42 -->
<g id="edge116" class="edge">
<title>Node40&#45;&gt;Node42</title>
<path fill="none" stroke="#63b8ff" d="M1009.76,-607.29C1000.46,-585.9 980.97,-531.57 1005,-497.25 1016.01,-481.53 1034.04,-471.19 1051.45,-464.47"/>
<polygon fill="#63b8ff" stroke="#63b8ff" points="1052.3,-467.53 1060.58,-460.91 1049.98,-460.92 1052.3,-467.53"/>
</g>
<!-- Node42&#45;&gt;Node6 -->
<g id="edge119" class="edge">
<title>Node42&#45;&gt;Node6</title>
<path fill="none" stroke="#63b8ff" d="M1138.8,-445.06C1318.57,-419.22 2063.71,-311.57 2111,-295.5 2127.81,-289.79 2129.58,-283 2146,-276.25 2180,-262.28 2219.85,-251.01 2250.89,-243.29"/>
<polygon fill="#63b8ff" stroke="#63b8ff" points="2251.59,-246.48 2260.48,-240.71 2249.94,-239.68 2251.59,-246.48"/>
</g>
<!-- Node42&#45;&gt;Node17 -->
<g id="edge122" class="edge">
<title>Node42&#45;&gt;Node17</title>
<path fill="none" stroke="#63b8ff" d="M1061.17,-443.93C1010.61,-433.18 922.84,-407.26 873,-350.75 853.41,-328.54 854,-316.49 854,-286.88 854,-286.88 854,-286.88 854,-174.38 854,-92.82 974.73,-72.51 1040.1,-67.49"/>
<polygon fill="#63b8ff" stroke="#63b8ff" points="1040.11,-70.93 1049.86,-66.77 1039.64,-63.95 1040.11,-70.93"/>
</g>
<!-- Node42&#45;&gt;Node18 -->
<g id="edge120" class="edge">
<title>Node42&#45;&gt;Node18</title>
<path fill="none" stroke="#63b8ff" d="M1102.42,-441.82C1109.44,-416.28 1129.93,-341.7 1139.7,-306.15"/>
<polygon fill="#63b8ff" stroke="#63b8ff" points="1143.29,-307.29 1142.57,-296.72 1136.54,-305.44 1143.29,-307.29"/>
</g>
<!-- Node42&#45;&gt;Node30 -->
<g id="edge121" class="edge">
<title>Node42&#45;&gt;Node30</title>
<path fill="none" stroke="#63b8ff" d="M1138.83,-446.58C1230.98,-436.98 1462.69,-412.83 1563.22,-402.35"/>
<polygon fill="#63b8ff" stroke="#63b8ff" points="1563.38,-405.75 1572.96,-401.23 1562.65,-398.79 1563.38,-405.75"/>
</g>
<!-- Node42&#45;&gt;Node35 -->
<g id="edge117" class="edge">
<title>Node42&#45;&gt;Node35</title>
<path fill="none" stroke="#63b8ff" d="M1096.93,-441.57C1088.12,-413.79 1065.7,-328.49 1103,-276.25 1123.27,-247.85 1163.5,-237.47 1192.44,-233.7"/>
<polygon fill="#63b8ff" stroke="#63b8ff" points="1192.73,-237.08 1202.29,-232.53 1191.98,-230.12 1192.73,-237.08"/>
</g>
<!-- Node43 -->
<g id="node43" class="node">
<title>Node43</title>
<g id="a_node43"><a xlink:title=" ">
<polygon fill="#e0e0e0" stroke="#999999" points="1062.25,-406 1017.75,-406 1017.75,-386.75 1062.25,-386.75 1062.25,-406"/>
<text text-anchor="middle" x="1040" y="-392.5" font-family="Helvetica,sans-Serif" font-size="10.00">iosfwd</text>
</a>
</g>
</g>
<!-- Node42&#45;&gt;Node43 -->
<g id="edge118" class="edge">
<title>Node42&#45;&gt;Node43</title>
<path fill="none" stroke="#63b8ff" d="M1089.82,-441.59C1081.15,-433.9 1068.48,-422.65 1058.08,-413.43"/>
<polygon fill="#63b8ff" stroke="#63b8ff" points="1060.83,-411.29 1051.03,-407.27 1056.18,-416.53 1060.83,-411.29"/>
</g>
<!-- Node44&#45;&gt;Node17 -->
<g id="edge127" class="edge">
<title>Node44&#45;&gt;Node17</title>
<path fill="none" stroke="#63b8ff" d="M927.8,-331.01C916.12,-312.91 892,-270.81 892,-231.62 892,-231.62 892,-231.62 892,-174.38 892,-106.45 984.95,-80.43 1040.48,-70.95"/>
<polygon fill="#63b8ff" stroke="#63b8ff" points="1040.73,-74.3 1050.05,-69.27 1039.63,-67.39 1040.73,-74.3"/>
</g>
<!-- Node44&#45;&gt;Node34 -->
<g id="edge126" class="edge">
<title>Node44&#45;&gt;Node34</title>
<path fill="none" stroke="#63b8ff" d="M986.21,-335.28C1093.19,-325.36 1336.68,-302.77 1449.1,-292.34"/>
<polygon fill="#63b8ff" stroke="#63b8ff" points="1449.25,-295.75 1458.89,-291.34 1448.61,-288.78 1449.25,-295.75"/>
</g>
<!-- Node45&#45;&gt;Node6 -->
<g id="edge130" class="edge">
<title>Node45&#45;&gt;Node6</title>
<path fill="none" stroke="#63b8ff" d="M2307.27,-497.04C2314,-471.22 2334.8,-393.76 2358,-331.5 2366.93,-307.54 2386.36,-298.63 2374,-276.25 2366.41,-262.51 2352.61,-252.43 2339.19,-245.36"/>
<polygon fill="#63b8ff" stroke="#63b8ff" points="2341.11,-241.92 2330.58,-240.74 2338.07,-248.22 2341.11,-241.92"/>
</g>
<!-- Node45&#45;&gt;Node7 -->
<g id="edge129" class="edge">
<title>Node45&#45;&gt;Node7</title>
<path fill="none" stroke="#63b8ff" d="M2344.49,-502.78C2401.94,-497.64 2511.58,-485.43 2602,-461.25 2618.26,-456.9 2728,-413.63 2743,-406 2830.84,-361.34 2930,-385.42 2930,-286.88 2930,-286.88 2930,-286.88 2930,-174.38 2930,-142.75 2937.93,-106.71 2943.54,-85.15"/>
<polygon fill="#63b8ff" stroke="#63b8ff" points="2947.11,-86.35 2946.36,-75.78 2940.36,-84.52 2947.11,-86.35"/>
</g>
<!-- Node45&#45;&gt;Node17 -->
<g id="edge132" class="edge">
<title>Node45&#45;&gt;Node17</title>
<path fill="none" stroke="#63b8ff" d="M2265.42,-501.11C2199.96,-493.17 2065.03,-476.6 1951,-461.25 1779.24,-438.13 1731.29,-454.8 1565,-406 1488.57,-383.57 1476.11,-360.69 1402,-331.5 1354.92,-312.96 1340.1,-316.36 1294,-295.5 1278.53,-288.5 1276.15,-283.92 1261,-276.25 1225.13,-258.09 1207.8,-267.25 1178,-240.25 1171.49,-234.35 1114.41,-128.36 1090.98,-84.56"/>
<polygon fill="#63b8ff" stroke="#63b8ff" points="1093.6,-83.04 1085.8,-75.87 1087.42,-86.34 1093.6,-83.04"/>
</g>
<!-- Node45&#45;&gt;Node27 -->
<g id="edge131" class="edge">
<title>Node45&#45;&gt;Node27</title>
<path fill="none" stroke="#63b8ff" d="M2265.68,-499.18C2206.63,-489.14 2095.52,-470.24 2034.61,-459.87"/>
<polygon fill="#63b8ff" stroke="#63b8ff" points="2035.29,-456.27 2024.84,-458.04 2034.11,-463.17 2035.29,-456.27"/>
</g>
<!-- Node46&#45;&gt;Node6 -->
<g id="edge137" class="edge">
<title>Node46&#45;&gt;Node6</title>
<path fill="none" stroke="#63b8ff" d="M2516.4,-441.63C2501.51,-434.27 2482.56,-422.4 2472,-406 2440.33,-356.82 2488.66,-320.15 2450,-276.25 2427.22,-250.38 2389.96,-239.26 2358.66,-234.58"/>
<polygon fill="#63b8ff" stroke="#63b8ff" points="2359.24,-231 2348.87,-233.19 2358.34,-237.94 2359.24,-231"/>
</g>
<!-- Node46&#45;&gt;Node10 -->
<g id="edge136" class="edge">
<title>Node46&#45;&gt;Node10</title>
<path fill="none" stroke="#63b8ff" d="M2582.3,-441.57C2651.65,-424.51 2778,-380.57 2778,-286.88 2778,-286.88 2778,-286.88 2778,-229.62 2778,-175.84 2384.43,-136.78 2248.51,-124.9"/>
<polygon fill="#63b8ff" stroke="#63b8ff" points="2248.94,-121.34 2238.67,-123.96 2248.34,-128.31 2248.94,-121.34"/>
</g>
<!-- Node46&#45;&gt;Node14 -->
<g id="edge135" class="edge">
<title>Node46&#45;&gt;Node14</title>
<path fill="none" stroke="#63b8ff" d="M2593.63,-443.29C2629.28,-436.97 2675.69,-425.65 2713,-406 2811.33,-354.2 2812.57,-294.76 2830,-185 2843.85,-97.81 2699.53,-74.19 2634.63,-67.99"/>
<polygon fill="#63b8ff" stroke="#63b8ff" points="2635.12,-64.44 2624.85,-67.06 2634.51,-71.41 2635.12,-64.44"/>
</g>
<!-- Node46&#45;&gt;Node17 -->
<g id="edge139" class="edge">
<title>Node46&#45;&gt;Node17</title>
<path fill="none" stroke="#63b8ff" d="M2482.56,-442.3C2350.66,-422.55 2007.77,-371.52 1721,-331.5 1601.1,-314.77 1560.87,-346.34 1451,-295.5 1339.62,-243.96 1353.75,-169.25 1246,-110.5 1206.74,-89.09 1156.53,-77.43 1121.86,-71.45"/>
<polygon fill="#63b8ff" stroke="#63b8ff" points="1122.62,-67.86 1112.18,-69.7 1121.49,-74.77 1122.62,-67.86"/>
</g>
<!-- Node46&#45;&gt;Node30 -->
<g id="edge138" class="edge">
<title>Node46&#45;&gt;Node30</title>
<path fill="none" stroke="#63b8ff" d="M2482.44,-447.43C2314.79,-437.8 1815.84,-409.14 1658.85,-400.12"/>
<polygon fill="#63b8ff" stroke="#63b8ff" points="1659.33,-396.59 1649.14,-399.51 1658.93,-403.58 1659.33,-396.59"/>
</g>
<!-- Node46&#45;&gt;Node33 -->
<g id="edge134" class="edge">
<title>Node46&#45;&gt;Node33</title>
<path fill="none" stroke="#63b8ff" d="M2544.08,-441.81C2549.81,-433.1 2558.21,-419.19 2563,-406 2568.19,-391.69 2571.25,-374.73 2572.97,-361.88"/>
<polygon fill="#63b8ff" stroke="#63b8ff" points="2576.55,-362.38 2574.25,-352.04 2569.6,-361.57 2576.55,-362.38"/>
</g>
<!-- Node48&#45;&gt;Node3 -->
<g id="edge147" class="edge">
<title>Node48&#45;&gt;Node3</title>
<path fill="none" stroke="#63b8ff" d="M1591.45,-558.82C1539.7,-554.76 1445.53,-543.99 1370,-516.5 1354.04,-510.69 1353.18,-502.39 1337,-497.25 1160.96,-441.36 1105.48,-489.79 923,-461.25 704.15,-427.02 616.4,-480.69 437,-350.75 340.14,-280.59 288,-137.2 271.69,-85.23"/>
<polygon fill="#63b8ff" stroke="#63b8ff" points="274.78,-84.37 268.52,-75.83 268.08,-86.41 274.78,-84.37"/>
</g>
<!-- Node48&#45;&gt;Node4 -->
<g id="edge150" class="edge">
<title>Node48&#45;&gt;Node4</title>
<path fill="none" stroke="#63b8ff" d="M1607.35,-552.1C1504.95,-510.99 1085.99,-339.09 987,-240.25 974.52,-227.79 966.03,-209.47 960.95,-195.64"/>
<polygon fill="#63b8ff" stroke="#63b8ff" points="963.98,-194.66 957.47,-186.3 957.35,-196.9 963.98,-194.66"/>
</g>
<!-- Node48&#45;&gt;Node6 -->
<g id="edge151" class="edge">
<title>Node48&#45;&gt;Node6</title>
<path fill="none" stroke="#63b8ff" d="M1668.81,-561.8C1773.29,-562.99 2058,-561.87 2138,-516.5 2190.74,-486.59 2277.07,-352.41 2298,-295.5 2303.18,-281.42 2304.29,-264.44 2304.18,-251.53"/>
<polygon fill="#63b8ff" stroke="#63b8ff" points="2307.64,-251.5 2303.79,-241.63 2300.65,-251.74 2307.64,-251.5"/>
</g>
<!-- Node48&#45;&gt;Node7 -->
<g id="edge146" class="edge">
<title>Node48&#45;&gt;Node7</title>
<path fill="none" stroke="#63b8ff" d="M1668.82,-560.68C1830.13,-558.66 2448,-548.9 2640,-516.5 2724.61,-502.22 2743.53,-488.2 2825,-461.25 2943.13,-422.18 3044,-411.29 3044,-286.88 3044,-286.88 3044,-286.88 3044,-174.38 3044,-144.05 3039.18,-133.99 3020,-110.5 3009.41,-97.52 2993.99,-87.19 2980.23,-79.76"/>
<polygon fill="#63b8ff" stroke="#63b8ff" points="2982.09,-76.27 2971.59,-74.86 2978.92,-82.51 2982.09,-76.27"/>
</g>
<!-- Node48&#45;&gt;Node15 -->
<g id="edge148" class="edge">
<title>Node48&#45;&gt;Node15</title>
<path fill="none" stroke="#63b8ff" d="M1637.7,-552.15C1644.72,-543.53 1654.9,-529.89 1661,-516.5 1671.51,-493.45 1668.99,-485.86 1675,-461.25 1680.99,-436.74 1682.36,-430.59 1688,-406 1691.3,-391.6 1706.55,-286.7 1717,-276.25 1768.84,-224.4 1808.59,-263.88 1878,-240.25 1988.02,-202.8 2052.55,-227.77 2115,-129.75 2132.79,-101.82 2137.54,-79.5 2115,-55.25 2075.81,-13.09 1665.94,-10.32 1540.37,-10.47"/>
<polygon fill="#63b8ff" stroke="#63b8ff" points="1540.45,-6.97 1530.46,-10.49 1540.46,-13.97 1540.45,-6.97"/>
</g>
<!-- Node48&#45;&gt;Node17 -->
<g id="edge154" class="edge">
<title>Node48&#45;&gt;Node17</title>
<path fill="none" stroke="#63b8ff" d="M1591.46,-556.6C1546.51,-550.59 1470.4,-538.13 1408,-516.5 1390.11,-510.3 1388.19,-502.48 1370,-497.25 1201.01,-448.65 1142.87,-516.7 976,-461.25 900.45,-436.14 877.96,-417.78 835,-350.75 777.35,-260.8 742.59,-175.99 827,-110.5 859.62,-85.19 977.07,-73.19 1040.19,-68.45"/>
<polygon fill="#63b8ff" stroke="#63b8ff" points="1040.22,-71.89 1049.94,-67.68 1039.71,-64.91 1040.22,-71.89"/>
</g>
<!-- Node48&#45;&gt;Node19 -->
<g id="edge149" class="edge">
<title>Node48&#45;&gt;Node19</title>
<path fill="none" stroke="#63b8ff" d="M1604.06,-552.01C1562.99,-537.97 1480.26,-511.19 1408,-497.25 1330.14,-482.23 1122.6,-499.24 1053,-461.25 1025.45,-446.21 1019.36,-435.63 1009,-406 1000.43,-381.49 1021.76,-375.96 1028,-350.75 1036.52,-316.37 1027.96,-275.04 1021.27,-251.2"/>
<polygon fill="#63b8ff" stroke="#63b8ff" points="1024.35,-250.31 1018.13,-241.74 1017.65,-252.32 1024.35,-250.31"/>
</g>
<!-- Node48&#45;&gt;Node25 -->
<g id="edge152" class="edge">
<title>Node48&#45;&gt;Node25</title>
<path fill="none" stroke="#63b8ff" d="M1632.89,-552.02C1641.97,-523.02 1669.91,-430.03 1681,-350.75 1682.15,-342.55 1678.7,-282.61 1684,-276.25 1730.67,-220.26 1776.34,-267.36 1844,-240.25 1903.68,-216.33 1911.6,-196.61 1968,-165.75 1988.08,-154.76 2011.23,-143.31 2029.02,-134.76"/>
<polygon fill="#63b8ff" stroke="#63b8ff" points="2030.29,-137.55 2037.81,-130.09 2027.28,-131.24 2030.29,-137.55"/>
</g>
<!-- Node48&#45;&gt;Node38 -->
<g id="edge153" class="edge">
<title>Node48&#45;&gt;Node38</title>
<path fill="none" stroke="#63b8ff" d="M1661.55,-552.09C1692.42,-543.26 1739.62,-529.74 1773.72,-519.98"/>
<polygon fill="#63b8ff" stroke="#63b8ff" points="1774.64,-523.07 1783.29,-516.95 1772.72,-516.34 1774.64,-523.07"/>
</g>
<!-- Node49&#45;&gt;Node15 -->
<g id="edge156" class="edge">
<title>Node49&#45;&gt;Node15</title>
<path fill="none" stroke="#63b8ff" d="M482.61,-331.15C479.86,-312.61 474,-268.7 474,-231.62 474,-231.62 474,-231.62 474,-119.12 474,-17.08 1283.9,-10.7 1467.36,-10.56"/>
<polygon fill="#63b8ff" stroke="#63b8ff" points="1467.28,-14.06 1477.28,-10.56 1467.28,-7.06 1467.28,-14.06"/>
</g>
<!-- Node49&#45;&gt;Node17 -->
<g id="edge161" class="edge">
<title>Node49&#45;&gt;Node17</title>
<path fill="none" stroke="#63b8ff" d="M488.01,-331.04C495.75,-312.66 512,-269.56 512,-231.62 512,-231.62 512,-231.62 512,-174.38 512,-144.05 511.79,-128.77 536,-110.5 575.96,-80.34 920.11,-69.58 1040.01,-66.73"/>
<polygon fill="#63b8ff" stroke="#63b8ff" points="1039.98,-70.21 1049.9,-66.48 1039.82,-63.21 1039.98,-70.21"/>
</g>
<!-- Node50 -->
<g id="node50" class="node">
<title>Node50</title>
<g id="a_node50"><a xlink:href="v8-embedder-state-scope_8h.html" target="_top" xlink:title=" ">
<polygon fill="white" stroke="#666666" points="1859.88,-295.5 1726.12,-295.5 1726.12,-276.25 1859.88,-276.25 1859.88,-295.5"/>
<text text-anchor="middle" x="1793" y="-282" font-family="Helvetica,sans-Serif" font-size="10.00">v8&#45;embedder&#45;state&#45;scope.h</text>
</a>
</g>
</g>
<!-- Node49&#45;&gt;Node50 -->
<g id="edge157" class="edge">
<title>Node49&#45;&gt;Node50</title>
<path fill="none" stroke="#63b8ff" d="M522.47,-338.56C702.96,-331.22 1467.45,-300.12 1715.17,-290.04"/>
<polygon fill="#63b8ff" stroke="#63b8ff" points="1715.03,-293.51 1724.88,-289.61 1714.74,-286.52 1715.03,-293.51"/>
</g>
<!-- Node50&#45;&gt;Node6 -->
<g id="edge160" class="edge">
<title>Node50&#45;&gt;Node6</title>
<path fill="none" stroke="#63b8ff" d="M1860.2,-277.86C1961.93,-267.24 2153.14,-247.27 2247.48,-237.42"/>
<polygon fill="#63b8ff" stroke="#63b8ff" points="2247.63,-240.82 2257.22,-236.3 2246.91,-233.86 2247.63,-240.82"/>
</g>
<!-- Node50&#45;&gt;Node10 -->
<g id="edge159" class="edge">
<title>Node50&#45;&gt;Node10</title>
<path fill="none" stroke="#63b8ff" d="M1860.32,-276.43C1920.61,-268.15 2004,-254.69 2034,-240.25 2079.57,-218.32 2078.37,-194.45 2120,-165.75 2136.95,-154.06 2157.3,-143.08 2173.61,-134.93"/>
<polygon fill="#63b8ff" stroke="#63b8ff" points="2174.73,-137.79 2182.17,-130.25 2171.65,-131.5 2174.73,-137.79"/>
</g>
<!-- Node50&#45;&gt;Node15 -->
<g id="edge158" class="edge">
<title>Node50&#45;&gt;Node15</title>
<path fill="none" stroke="#63b8ff" d="M1858.63,-275.77C1897.91,-267.13 1937.17,-250.84 1920,-221 1838.32,-79 1625.74,-30.03 1540.32,-15.75"/>
<polygon fill="#63b8ff" stroke="#63b8ff" points="1541.03,-12.16 1530.6,-14.04 1539.92,-19.08 1541.03,-12.16"/>
</g>
</g>
</svg>
