<?xml version="1.0" encoding="UTF-8" standalone="no"?>
<!DOCTYPE svg PUBLIC "-//W3C//DTD SVG 1.1//EN"
 "http://www.w3.org/Graphics/SVG/1.1/DTD/svg11.dtd">
<!-- Generated by graphviz version 8.0.5 (20230430.1635)
 -->
<!-- Title: include/v8&#45;regexp.h Pages: 1 -->
<svg width="1242pt" height="525pt"
 viewBox="0.00 0.00 1242.25 524.50" xmlns="http://www.w3.org/2000/svg" xmlns:xlink="http://www.w3.org/1999/xlink">
<g id="graph0" class="graph" transform="scale(1 1) rotate(0) translate(4 520.5)">
<title>include/v8&#45;regexp.h</title>
<!-- Node1 -->
<g id="node1" class="node">
<title>Node1</title>
<g id="a_node1"><a xlink:title=" ">
<polygon fill="#999999" stroke="#666666" points="649.62,-516.5 550.38,-516.5 550.38,-497.25 649.62,-497.25 649.62,-516.5"/>
<text text-anchor="middle" x="600" y="-503" font-family="Helvetica,sans-Serif" font-size="10.00">include/v8&#45;regexp.h</text>
</a>
</g>
</g>
<!-- Node2 -->
<g id="node2" class="node">
<title>Node2</title>
<g id="a_node2"><a xlink:href="v8-local-handle_8h.html" target="_top" xlink:title=" ">
<polygon fill="white" stroke="#666666" points="663.38,-240.25 574.62,-240.25 574.62,-221 663.38,-221 663.38,-240.25"/>
<text text-anchor="middle" x="619" y="-226.75" font-family="Helvetica,sans-Serif" font-size="10.00">v8&#45;local&#45;handle.h</text>
</a>
</g>
</g>
<!-- Node1&#45;&gt;Node2 -->
<g id="edge1" class="edge">
<title>Node1&#45;&gt;Node2</title>
<path fill="none" stroke="#63b8ff" d="M616.72,-496.98C644.23,-481.01 696,-444.66 696,-397.38 696,-397.38 696,-397.38 696,-340.12 696,-301.18 662.59,-266.47 639.79,-247.31"/>
<polygon fill="#63b8ff" stroke="#63b8ff" points="642.35,-244.07 632.37,-240.52 637.96,-249.52 642.35,-244.07"/>
</g>
<!-- Node15 -->
<g id="node15" class="node">
<title>Node15</title>
<g id="a_node15"><a xlink:href="v8config_8h.html" target="_top" xlink:title=" ">
<polygon fill="white" stroke="#666666" points="302.75,-74.5 243.25,-74.5 243.25,-55.25 302.75,-55.25 302.75,-74.5"/>
<text text-anchor="middle" x="273" y="-61" font-family="Helvetica,sans-Serif" font-size="10.00">v8config.h</text>
</a>
</g>
</g>
<!-- Node1&#45;&gt;Node15 -->
<g id="edge64" class="edge">
<title>Node1&#45;&gt;Node15</title>
<path fill="none" stroke="#63b8ff" d="M549.88,-502.09C405.67,-490.54 0,-453.08 0,-397.38 0,-397.38 0,-397.38 0,-174.38 0,-138.05 19.99,-129.42 51,-110.5 107.28,-76.18 185.07,-67.67 232.05,-65.89"/>
<polygon fill="#63b8ff" stroke="#63b8ff" points="232.12,-69.36 242.02,-65.57 231.92,-62.36 232.12,-69.36"/>
</g>
<!-- Node16 -->
<g id="node16" class="node">
<title>Node16</title>
<g id="a_node16"><a xlink:href="v8-object_8h.html" target="_top" xlink:title=" ">
<polygon fill="white" stroke="#666666" points="631.62,-461.25 568.38,-461.25 568.38,-442 631.62,-442 631.62,-461.25"/>
<text text-anchor="middle" x="600" y="-447.75" font-family="Helvetica,sans-Serif" font-size="10.00">v8&#45;object.h</text>
</a>
</g>
</g>
<!-- Node1&#45;&gt;Node16 -->
<g id="edge19" class="edge">
<title>Node1&#45;&gt;Node16</title>
<path fill="none" stroke="#63b8ff" d="M600,-497.08C600,-490.42 600,-480.99 600,-472.53"/>
<polygon fill="#63b8ff" stroke="#63b8ff" points="603.5,-472.61 600,-462.61 596.5,-472.61 603.5,-472.61"/>
</g>
<!-- Node3 -->
<g id="node3" class="node">
<title>Node3</title>
<g id="a_node3"><a xlink:title=" ">
<polygon fill="#e0e0e0" stroke="#999999" points="870.25,-74.5 819.75,-74.5 819.75,-55.25 870.25,-55.25 870.25,-74.5"/>
<text text-anchor="middle" x="845" y="-61" font-family="Helvetica,sans-Serif" font-size="10.00">stddef.h</text>
</a>
</g>
</g>
<!-- Node2&#45;&gt;Node3 -->
<g id="edge2" class="edge">
<title>Node2&#45;&gt;Node3</title>
<path fill="none" stroke="#63b8ff" d="M634.8,-220.55C649.92,-211.76 673.29,-197.9 693,-185 728.55,-161.74 737.55,-155.94 771,-129.75 790.88,-114.18 812.65,-95.13 827.4,-81.91"/>
<polygon fill="#63b8ff" stroke="#63b8ff" points="829.12,-85.16 834.2,-75.86 824.43,-79.97 829.12,-85.16"/>
</g>
<!-- Node4 -->
<g id="node4" class="node">
<title>Node4</title>
<g id="a_node4"><a xlink:title=" ">
<polygon fill="#e0e0e0" stroke="#999999" points="1093.5,-74.5 1032.5,-74.5 1032.5,-55.25 1093.5,-55.25 1093.5,-74.5"/>
<text text-anchor="middle" x="1063" y="-61" font-family="Helvetica,sans-Serif" font-size="10.00">type_traits</text>
</a>
</g>
</g>
<!-- Node2&#45;&gt;Node4 -->
<g id="edge3" class="edge">
<title>Node2&#45;&gt;Node4</title>
<path fill="none" stroke="#63b8ff" d="M643.5,-220.59C717.94,-193.14 941.57,-110.66 1028.2,-78.71"/>
<polygon fill="#63b8ff" stroke="#63b8ff" points="1029.13,-81.73 1037.3,-74.98 1026.71,-75.16 1029.13,-81.73"/>
</g>
<!-- Node5 -->
<g id="node5" class="node">
<title>Node5</title>
<g id="a_node5"><a xlink:title=" ">
<polygon fill="#e0e0e0" stroke="#999999" points="477.5,-185 434.5,-185 434.5,-165.75 477.5,-165.75 477.5,-185"/>
<text text-anchor="middle" x="456" y="-171.5" font-family="Helvetica,sans-Serif" font-size="10.00">vector</text>
</a>
</g>
</g>
<!-- Node2&#45;&gt;Node5 -->
<g id="edge4" class="edge">
<title>Node2&#45;&gt;Node5</title>
<path fill="none" stroke="#63b8ff" d="M591.35,-220.59C562.71,-211.24 518.02,-196.64 487.91,-186.8"/>
<polygon fill="#63b8ff" stroke="#63b8ff" points="489.12,-183.19 478.53,-183.41 486.95,-189.84 489.12,-183.19"/>
</g>
<!-- Node6 -->
<g id="node6" class="node">
<title>Node6</title>
<g id="a_node6"><a xlink:href="v8-handle-base_8h.html" target="_top" xlink:title=" ">
<polygon fill="white" stroke="#666666" points="661.75,-185 572.25,-185 572.25,-165.75 661.75,-165.75 661.75,-185"/>
<text text-anchor="middle" x="617" y="-171.5" font-family="Helvetica,sans-Serif" font-size="10.00">v8&#45;handle&#45;base.h</text>
</a>
</g>
</g>
<!-- Node2&#45;&gt;Node6 -->
<g id="edge5" class="edge">
<title>Node2&#45;&gt;Node6</title>
<path fill="none" stroke="#63b8ff" d="M618.67,-220.83C618.42,-214.17 618.07,-204.74 617.75,-196.28"/>
<polygon fill="#63b8ff" stroke="#63b8ff" points="621.21,-196.22 617.34,-186.36 614.22,-196.48 621.21,-196.22"/>
</g>
<!-- Node7 -->
<g id="node7" class="node">
<title>Node7</title>
<g id="a_node7"><a xlink:href="v8-internal_8h.html" target="_top" xlink:title=" ">
<polygon fill="white" stroke="#666666" points="762.25,-129.75 693.75,-129.75 693.75,-110.5 762.25,-110.5 762.25,-129.75"/>
<text text-anchor="middle" x="728" y="-116.25" font-family="Helvetica,sans-Serif" font-size="10.00">v8&#45;internal.h</text>
</a>
</g>
</g>
<!-- Node2&#45;&gt;Node7 -->
<g id="edge18" class="edge">
<title>Node2&#45;&gt;Node7</title>
<path fill="none" stroke="#63b8ff" d="M630.13,-220.8C640.92,-212.08 657.58,-198.16 671,-185 686.35,-169.95 702.54,-151.52 713.74,-138.33"/>
<polygon fill="#63b8ff" stroke="#63b8ff" points="716.86,-141.05 720.61,-131.14 711.5,-136.55 716.86,-141.05"/>
</g>
<!-- Node6&#45;&gt;Node7 -->
<g id="edge6" class="edge">
<title>Node6&#45;&gt;Node7</title>
<path fill="none" stroke="#63b8ff" d="M635.83,-165.34C653.21,-157 679.28,-144.5 699.26,-134.91"/>
<polygon fill="#63b8ff" stroke="#63b8ff" points="700.58,-137.68 708.08,-130.2 697.55,-131.37 700.58,-137.68"/>
</g>
<!-- Node7&#45;&gt;Node3 -->
<g id="edge7" class="edge">
<title>Node7&#45;&gt;Node3</title>
<path fill="none" stroke="#63b8ff" d="M747.85,-110.09C766.34,-101.68 794.15,-89.02 815.29,-79.4"/>
<polygon fill="#63b8ff" stroke="#63b8ff" points="816.4,-82.28 824.06,-74.95 813.5,-75.91 816.4,-82.28"/>
</g>
<!-- Node7&#45;&gt;Node4 -->
<g id="edge15" class="edge">
<title>Node7&#45;&gt;Node4</title>
<path fill="none" stroke="#63b8ff" d="M762.63,-114.08C816.77,-106.11 924.71,-89.95 1016,-74.5 1017.8,-74.2 1019.64,-73.88 1021.49,-73.56"/>
<polygon fill="#63b8ff" stroke="#63b8ff" points="1021.94,-76.85 1031.18,-71.66 1020.72,-69.96 1021.94,-76.85"/>
</g>
<!-- Node8 -->
<g id="node8" class="node">
<title>Node8</title>
<g id="a_node8"><a xlink:title=" ">
<polygon fill="#e0e0e0" stroke="#999999" points="938.75,-74.5 891.25,-74.5 891.25,-55.25 938.75,-55.25 938.75,-74.5"/>
<text text-anchor="middle" x="915" y="-61" font-family="Helvetica,sans-Serif" font-size="10.00">stdint.h</text>
</a>
</g>
</g>
<!-- Node7&#45;&gt;Node8 -->
<g id="edge8" class="edge">
<title>Node7&#45;&gt;Node8</title>
<path fill="none" stroke="#63b8ff" d="M759.72,-110.09C793.2,-100.56 845.79,-85.58 880.34,-75.75"/>
<polygon fill="#63b8ff" stroke="#63b8ff" points="881.21,-78.85 889.87,-72.75 879.29,-72.12 881.21,-78.85"/>
</g>
<!-- Node9 -->
<g id="node9" class="node">
<title>Node9</title>
<g id="a_node9"><a xlink:title=" ">
<polygon fill="#e0e0e0" stroke="#999999" points="573.75,-74.5 526.25,-74.5 526.25,-55.25 573.75,-55.25 573.75,-74.5"/>
<text text-anchor="middle" x="550" y="-61" font-family="Helvetica,sans-Serif" font-size="10.00">string.h</text>
</a>
</g>
</g>
<!-- Node7&#45;&gt;Node9 -->
<g id="edge9" class="edge">
<title>Node7&#45;&gt;Node9</title>
<path fill="none" stroke="#63b8ff" d="M697.8,-110.09C666.44,-100.71 617.43,-86.05 584.54,-76.21"/>
<polygon fill="#63b8ff" stroke="#63b8ff" points="585.64,-72.58 575.05,-73.07 583.63,-79.29 585.64,-72.58"/>
</g>
<!-- Node10 -->
<g id="node10" class="node">
<title>Node10</title>
<g id="a_node10"><a xlink:title=" ">
<polygon fill="#e0e0e0" stroke="#999999" points="1006.62,-74.5 961.38,-74.5 961.38,-55.25 1006.62,-55.25 1006.62,-74.5"/>
<text text-anchor="middle" x="984" y="-61" font-family="Helvetica,sans-Serif" font-size="10.00">atomic</text>
</a>
</g>
</g>
<!-- Node7&#45;&gt;Node10 -->
<g id="edge10" class="edge">
<title>Node7&#45;&gt;Node10</title>
<path fill="none" stroke="#63b8ff" d="M762.37,-112.54C805.74,-104.14 882.55,-88.97 948,-74.5 948.93,-74.29 949.88,-74.08 950.83,-73.87"/>
<polygon fill="#63b8ff" stroke="#63b8ff" points="951.22,-77.14 960.17,-71.47 949.64,-70.32 951.22,-77.14"/>
</g>
<!-- Node11 -->
<g id="node11" class="node">
<title>Node11</title>
<g id="a_node11"><a xlink:title=" ">
<polygon fill="#e0e0e0" stroke="#999999" points="638,-74.5 592,-74.5 592,-55.25 638,-55.25 638,-74.5"/>
<text text-anchor="middle" x="615" y="-61" font-family="Helvetica,sans-Serif" font-size="10.00">iterator</text>
</a>
</g>
</g>
<!-- Node7&#45;&gt;Node11 -->
<g id="edge11" class="edge">
<title>Node7&#45;&gt;Node11</title>
<path fill="none" stroke="#63b8ff" d="M708.83,-110.09C691.06,-101.72 664.36,-89.13 643.98,-79.53"/>
<polygon fill="#63b8ff" stroke="#63b8ff" points="645.8,-76.05 635.26,-74.95 642.82,-82.38 645.8,-76.05"/>
</g>
<!-- Node12 -->
<g id="node12" class="node">
<title>Node12</title>
<g id="a_node12"><a xlink:title=" ">
<polygon fill="#e0e0e0" stroke="#999999" points="695.62,-74.5 656.38,-74.5 656.38,-55.25 695.62,-55.25 695.62,-74.5"/>
<text text-anchor="middle" x="676" y="-61" font-family="Helvetica,sans-Serif" font-size="10.00">limits</text>
</a>
</g>
</g>
<!-- Node7&#45;&gt;Node12 -->
<g id="edge12" class="edge">
<title>Node7&#45;&gt;Node12</title>
<path fill="none" stroke="#63b8ff" d="M719.41,-110.33C712.08,-102.82 701.33,-91.81 692.36,-82.63"/>
<polygon fill="#63b8ff" stroke="#63b8ff" points="695.26,-80.57 685.77,-75.86 690.26,-85.46 695.26,-80.57"/>
</g>
<!-- Node13 -->
<g id="node13" class="node">
<title>Node13</title>
<g id="a_node13"><a xlink:title=" ">
<polygon fill="#e0e0e0" stroke="#999999" points="817.25,-19.25 766.75,-19.25 766.75,0 817.25,0 817.25,-19.25"/>
<text text-anchor="middle" x="792" y="-5.75" font-family="Helvetica,sans-Serif" font-size="10.00">memory</text>
</a>
</g>
</g>
<!-- Node7&#45;&gt;Node13 -->
<g id="edge13" class="edge">
<title>Node7&#45;&gt;Node13</title>
<path fill="none" stroke="#63b8ff" d="M739.99,-110.12C750.16,-101.89 764.41,-88.85 773,-74.5 781.19,-60.82 786.07,-43.36 788.83,-30.15"/>
<polygon fill="#63b8ff" stroke="#63b8ff" points="792.43,-30.92 790.8,-20.45 785.54,-29.65 792.43,-30.92"/>
</g>
<!-- Node14 -->
<g id="node14" class="node">
<title>Node14</title>
<g id="a_node14"><a xlink:title=" ">
<polygon fill="#e0e0e0" stroke="#999999" points="763.88,-74.5 714.12,-74.5 714.12,-55.25 763.88,-55.25 763.88,-74.5"/>
<text text-anchor="middle" x="739" y="-61" font-family="Helvetica,sans-Serif" font-size="10.00">optional</text>
</a>
</g>
</g>
<!-- Node7&#45;&gt;Node14 -->
<g id="edge14" class="edge">
<title>Node7&#45;&gt;Node14</title>
<path fill="none" stroke="#63b8ff" d="M729.82,-110.33C731.21,-103.59 733.19,-94.02 734.95,-85.49"/>
<polygon fill="#63b8ff" stroke="#63b8ff" points="738.55,-86.36 737.14,-75.86 731.69,-84.94 738.55,-86.36"/>
</g>
<!-- Node7&#45;&gt;Node15 -->
<g id="edge16" class="edge">
<title>Node7&#45;&gt;Node15</title>
<path fill="none" stroke="#63b8ff" d="M693.43,-115.08C610.79,-105.41 402.14,-80.99 313.67,-70.63"/>
<polygon fill="#63b8ff" stroke="#63b8ff" points="314.33,-67.07 303.99,-69.39 313.52,-74.02 314.33,-67.07"/>
</g>
<!-- Node15&#45;&gt;Node13 -->
<g id="edge17" class="edge">
<title>Node15&#45;&gt;Node13</title>
<path fill="none" stroke="#63b8ff" d="M303.15,-60.78C392.94,-51.57 658.42,-24.33 755.72,-14.35"/>
<polygon fill="#63b8ff" stroke="#63b8ff" points="755.88,-17.75 765.47,-13.24 755.16,-10.78 755.88,-17.75"/>
</g>
<!-- Node16&#45;&gt;Node2 -->
<g id="edge21" class="edge">
<title>Node16&#45;&gt;Node2</title>
<path fill="none" stroke="#63b8ff" d="M604.85,-441.6C613.76,-424.49 632.39,-385.87 639,-350.75 645.64,-315.51 634.48,-274.19 626.34,-250.64"/>
<polygon fill="#63b8ff" stroke="#63b8ff" points="629.4,-249.81 622.68,-241.61 622.82,-252.21 629.4,-249.81"/>
</g>
<!-- Node16&#45;&gt;Node7 -->
<g id="edge20" class="edge">
<title>Node16&#45;&gt;Node7</title>
<path fill="none" stroke="#63b8ff" d="M629.41,-441.51C668.85,-427.23 734,-395.56 734,-342.12 734,-342.12 734,-342.12 734,-284.88 734,-232.87 730.94,-171.63 729.19,-140.87"/>
<polygon fill="#63b8ff" stroke="#63b8ff" points="732.63,-140.77 728.55,-131 725.64,-141.18 732.63,-140.77"/>
</g>
<!-- Node16&#45;&gt;Node15 -->
<g id="edge63" class="edge">
<title>Node16&#45;&gt;Node15</title>
<path fill="none" stroke="#63b8ff" d="M568.17,-451.3C449.29,-452.98 38,-450.94 38,-342.12 38,-342.12 38,-342.12 38,-174.38 38,-89.88 164.78,-70.97 232.1,-66.89"/>
<polygon fill="#63b8ff" stroke="#63b8ff" points="231.95,-70.35 241.76,-66.34 231.59,-63.36 231.95,-70.35"/>
</g>
<!-- Node17 -->
<g id="node17" class="node">
<title>Node17</title>
<g id="a_node17"><a xlink:href="v8-maybe_8h.html" target="_top" xlink:title=" ">
<polygon fill="white" stroke="#666666" points="1210.75,-295.5 1145.25,-295.5 1145.25,-276.25 1210.75,-276.25 1210.75,-295.5"/>
<text text-anchor="middle" x="1178" y="-282" font-family="Helvetica,sans-Serif" font-size="10.00">v8&#45;maybe.h</text>
</a>
</g>
</g>
<!-- Node16&#45;&gt;Node17 -->
<g id="edge22" class="edge">
<title>Node16&#45;&gt;Node17</title>
<path fill="none" stroke="#63b8ff" d="M631.94,-443.06C667.65,-434.51 727.15,-419.94 778,-406 910.94,-369.56 1067.18,-321.5 1138.69,-299.21"/>
<polygon fill="#63b8ff" stroke="#63b8ff" points="1139.51,-302.3 1148.02,-295.98 1137.43,-295.62 1139.51,-302.3"/>
</g>
<!-- Node19 -->
<g id="node19" class="node">
<title>Node19</title>
<g id="a_node19"><a xlink:href="v8-persistent-handle_8h.html" target="_top" xlink:title=" ">
<polygon fill="white" stroke="#666666" points="434.62,-295.5 323.38,-295.5 323.38,-276.25 434.62,-276.25 434.62,-295.5"/>
<text text-anchor="middle" x="379" y="-282" font-family="Helvetica,sans-Serif" font-size="10.00">v8&#45;persistent&#45;handle.h</text>
</a>
</g>
</g>
<!-- Node16&#45;&gt;Node19 -->
<g id="edge27" class="edge">
<title>Node16&#45;&gt;Node19</title>
<path fill="none" stroke="#63b8ff" d="M567.92,-444.61C540.74,-438.35 501.71,-426.51 473,-406 434.57,-378.54 403.86,-331.11 388.91,-305.15"/>
<polygon fill="#63b8ff" stroke="#63b8ff" points="391.59,-303.77 383.65,-296.76 385.48,-307.19 391.59,-303.77"/>
</g>
<!-- Node21 -->
<g id="node21" class="node">
<title>Node21</title>
<g id="a_node21"><a xlink:href="v8-primitive_8h.html" target="_top" xlink:title=" ">
<polygon fill="white" stroke="#666666" points="555.88,-406 482.12,-406 482.12,-386.75 555.88,-386.75 555.88,-406"/>
<text text-anchor="middle" x="519" y="-392.5" font-family="Helvetica,sans-Serif" font-size="10.00">v8&#45;primitive.h</text>
</a>
</g>
</g>
<!-- Node16&#45;&gt;Node21 -->
<g id="edge33" class="edge">
<title>Node16&#45;&gt;Node21</title>
<path fill="none" stroke="#63b8ff" d="M586.26,-441.59C574.04,-433.56 555.94,-421.66 541.59,-412.23"/>
<polygon fill="#63b8ff" stroke="#63b8ff" points="544.09,-409.02 533.81,-406.45 540.24,-414.87 544.09,-409.02"/>
</g>
<!-- Node23 -->
<g id="node23" class="node">
<title>Node23</title>
<g id="a_node23"><a xlink:href="v8-value_8h.html" target="_top" xlink:title=" ">
<polygon fill="white" stroke="#666666" points="630.12,-350.75 569.88,-350.75 569.88,-331.5 630.12,-331.5 630.12,-350.75"/>
<text text-anchor="middle" x="600" y="-337.25" font-family="Helvetica,sans-Serif" font-size="10.00">v8&#45;value.h</text>
</a>
</g>
</g>
<!-- Node16&#45;&gt;Node23 -->
<g id="edge62" class="edge">
<title>Node16&#45;&gt;Node23</title>
<path fill="none" stroke="#63b8ff" d="M600,-441.75C600,-424.42 600,-385.73 600,-361.99"/>
<polygon fill="#63b8ff" stroke="#63b8ff" points="603.5,-362.13 600,-352.13 596.5,-362.13 603.5,-362.13"/>
</g>
<!-- Node24 -->
<g id="node24" class="node">
<title>Node24</title>
<g id="a_node24"><a xlink:href="v8-sandbox_8h.html" target="_top" xlink:title=" ">
<polygon fill="white" stroke="#666666" points="149.5,-185 76.5,-185 76.5,-165.75 149.5,-165.75 149.5,-185"/>
<text text-anchor="middle" x="113" y="-171.5" font-family="Helvetica,sans-Serif" font-size="10.00">v8&#45;sandbox.h</text>
</a>
</g>
</g>
<!-- Node16&#45;&gt;Node24 -->
<g id="edge46" class="edge">
<title>Node16&#45;&gt;Node24</title>
<path fill="none" stroke="#63b8ff" d="M568.05,-450.36C459.7,-448.6 113,-435.68 113,-342.12 113,-342.12 113,-342.12 113,-284.88 113,-253.87 113,-217.88 113,-196.13"/>
<polygon fill="#63b8ff" stroke="#63b8ff" points="116.5,-196.38 113,-186.38 109.5,-196.38 116.5,-196.38"/>
</g>
<!-- Node26 -->
<g id="node26" class="node">
<title>Node26</title>
<g id="a_node26"><a xlink:href="v8-traced-handle_8h.html" target="_top" xlink:title=" ">
<polygon fill="white" stroke="#666666" points="966.75,-295.5 871.25,-295.5 871.25,-276.25 966.75,-276.25 966.75,-295.5"/>
<text text-anchor="middle" x="919" y="-282" font-family="Helvetica,sans-Serif" font-size="10.00">v8&#45;traced&#45;handle.h</text>
</a>
</g>
</g>
<!-- Node16&#45;&gt;Node26 -->
<g id="edge50" class="edge">
<title>Node16&#45;&gt;Node26</title>
<path fill="none" stroke="#63b8ff" d="M631.97,-444.07C662.7,-437.06 709.95,-424.41 748,-406 807.92,-377.01 870.03,-328.17 900.23,-302.98"/>
<polygon fill="#63b8ff" stroke="#63b8ff" points="902.16,-305.09 907.55,-295.97 897.65,-299.74 902.16,-305.09"/>
</g>
<!-- Node17&#45;&gt;Node4 -->
<g id="edge23" class="edge">
<title>Node17&#45;&gt;Node4</title>
<path fill="none" stroke="#63b8ff" d="M1195.21,-275.94C1214.54,-264.6 1241.99,-243.73 1232,-221 1202.68,-154.28 1128.92,-103.68 1089.24,-80.25"/>
<polygon fill="#63b8ff" stroke="#63b8ff" points="1091.35,-76.85 1080.93,-74.88 1087.85,-82.91 1091.35,-76.85"/>
</g>
<!-- Node17&#45;&gt;Node7 -->
<g id="edge25" class="edge">
<title>Node17&#45;&gt;Node7</title>
<path fill="none" stroke="#63b8ff" d="M1190.21,-275.87C1206.21,-262.99 1230.6,-238.89 1216,-221 1160.23,-152.66 883.47,-129.82 773.33,-123.35"/>
<polygon fill="#63b8ff" stroke="#63b8ff" points="773.77,-119.82 763.59,-122.75 773.37,-126.81 773.77,-119.82"/>
</g>
<!-- Node17&#45;&gt;Node15 -->
<g id="edge26" class="edge">
<title>Node17&#45;&gt;Node15</title>
<path fill="none" stroke="#63b8ff" d="M1182.3,-276.09C1188.32,-262.37 1197.05,-235.89 1183,-221 1135.64,-170.81 629.72,-202.62 563,-185 544.31,-180.06 541.45,-174.07 524,-165.75 471,-140.48 458.53,-132.27 404,-110.5 373.8,-98.44 338.91,-86.66 312.74,-78.23"/>
<polygon fill="#63b8ff" stroke="#63b8ff" points="314.04,-74.65 303.45,-74.95 311.91,-81.32 314.04,-74.65"/>
</g>
<!-- Node18 -->
<g id="node18" class="node">
<title>Node18</title>
<g id="a_node18"><a xlink:title=" ">
<polygon fill="#e0e0e0" stroke="#999999" points="1174.25,-240.25 1135.75,-240.25 1135.75,-221 1174.25,-221 1174.25,-240.25"/>
<text text-anchor="middle" x="1155" y="-226.75" font-family="Helvetica,sans-Serif" font-size="10.00">utility</text>
</a>
</g>
</g>
<!-- Node17&#45;&gt;Node18 -->
<g id="edge24" class="edge">
<title>Node17&#45;&gt;Node18</title>
<path fill="none" stroke="#63b8ff" d="M1174.2,-276.08C1171.22,-269.19 1166.97,-259.34 1163.22,-250.66"/>
<polygon fill="#63b8ff" stroke="#63b8ff" points="1166.06,-249.4 1158.88,-241.61 1159.63,-252.18 1166.06,-249.4"/>
</g>
<!-- Node19&#45;&gt;Node2 -->
<g id="edge29" class="edge">
<title>Node19&#45;&gt;Node2</title>
<path fill="none" stroke="#63b8ff" d="M419.98,-275.78C460.8,-266.73 523.57,-252.8 567.68,-243.01"/>
<polygon fill="#63b8ff" stroke="#63b8ff" points="568.18,-246.26 577.18,-240.68 566.66,-239.43 568.18,-246.26"/>
</g>
<!-- Node19&#45;&gt;Node7 -->
<g id="edge28" class="edge">
<title>Node19&#45;&gt;Node7</title>
<path fill="none" stroke="#63b8ff" d="M403.8,-275.79C419.26,-268.69 437.88,-257.15 447,-240.25 451.06,-232.72 451.07,-228.53 447,-221 433.11,-195.3 405.89,-210.7 392,-185 387.93,-177.47 386.36,-172.19 392,-165.75 410.85,-144.23 594.97,-129.65 682.37,-123.89"/>
<polygon fill="#63b8ff" stroke="#63b8ff" points="682.54,-127.32 692.29,-123.18 682.08,-120.34 682.54,-127.32"/>
</g>
<!-- Node19&#45;&gt;Node15 -->
<g id="edge32" class="edge">
<title>Node19&#45;&gt;Node15</title>
<path fill="none" stroke="#63b8ff" d="M356.99,-275.88C341.76,-268.53 322.28,-256.66 311,-240.25 277.86,-192.04 272.93,-120.09 272.63,-85.64"/>
<polygon fill="#63b8ff" stroke="#63b8ff" points="276.13,-85.78 272.68,-75.76 269.13,-85.74 276.13,-85.78"/>
</g>
<!-- Node20 -->
<g id="node20" class="node">
<title>Node20</title>
<g id="a_node20"><a xlink:href="v8-weak-callback-info_8h.html" target="_top" xlink:title=" ">
<polygon fill="white" stroke="#666666" points="438,-240.25 320,-240.25 320,-221 438,-221 438,-240.25"/>
<text text-anchor="middle" x="379" y="-226.75" font-family="Helvetica,sans-Serif" font-size="10.00">v8&#45;weak&#45;callback&#45;info.h</text>
</a>
</g>
</g>
<!-- Node19&#45;&gt;Node20 -->
<g id="edge30" class="edge">
<title>Node19&#45;&gt;Node20</title>
<path fill="none" stroke="#63b8ff" d="M379,-276.08C379,-269.42 379,-259.99 379,-251.53"/>
<polygon fill="#63b8ff" stroke="#63b8ff" points="382.5,-251.61 379,-241.61 375.5,-251.61 382.5,-251.61"/>
</g>
<!-- Node20&#45;&gt;Node15 -->
<g id="edge31" class="edge">
<title>Node20&#45;&gt;Node15</title>
<path fill="none" stroke="#63b8ff" d="M373.94,-220.79C362.42,-200.81 333.12,-150.72 306,-110.5 299.88,-101.43 292.7,-91.62 286.6,-83.52"/>
<polygon fill="#63b8ff" stroke="#63b8ff" points="288.91,-81.77 280.06,-75.94 283.34,-86.01 288.91,-81.77"/>
</g>
<!-- Node21&#45;&gt;Node2 -->
<g id="edge38" class="edge">
<title>Node21&#45;&gt;Node2</title>
<path fill="none" stroke="#63b8ff" d="M524.38,-386.57C540.18,-360.69 586.71,-284.5 608.06,-249.53"/>
<polygon fill="#63b8ff" stroke="#63b8ff" points="611.37,-251.83 613.6,-241.47 605.4,-248.18 611.37,-251.83"/>
</g>
<!-- Node21&#45;&gt;Node7 -->
<g id="edge37" class="edge">
<title>Node21&#45;&gt;Node7</title>
<path fill="none" stroke="#63b8ff" d="M517.73,-386.37C513.6,-359.42 498.73,-277.79 463,-221 447.13,-195.77 405.52,-188.31 425,-165.75 457.75,-127.82 606.52,-121.55 682.72,-120.89"/>
<polygon fill="#63b8ff" stroke="#63b8ff" points="682.43,-124.38 692.41,-120.82 682.39,-117.38 682.43,-124.38"/>
</g>
<!-- Node21&#45;&gt;Node15 -->
<g id="edge45" class="edge">
<title>Node21&#45;&gt;Node15</title>
<path fill="none" stroke="#63b8ff" d="M481.68,-394.94C414.73,-392.05 274.04,-376.11 197,-295.5 176.54,-274.09 178,-261.24 178,-231.62 178,-231.62 178,-231.62 178,-174.38 178,-132.27 219,-98.66 247.13,-80.56"/>
<polygon fill="#63b8ff" stroke="#63b8ff" points="248.77,-83.04 255.45,-74.81 245.1,-77.08 248.77,-83.04"/>
</g>
<!-- Node22 -->
<g id="node22" class="node">
<title>Node22</title>
<g id="a_node22"><a xlink:href="v8-data_8h.html" target="_top" xlink:title=" ">
<polygon fill="white" stroke="#666666" points="261.88,-295.5 206.12,-295.5 206.12,-276.25 261.88,-276.25 261.88,-295.5"/>
<text text-anchor="middle" x="234" y="-282" font-family="Helvetica,sans-Serif" font-size="10.00">v8&#45;data.h</text>
</a>
</g>
</g>
<!-- Node21&#45;&gt;Node22 -->
<g id="edge34" class="edge">
<title>Node21&#45;&gt;Node22</title>
<path fill="none" stroke="#63b8ff" d="M495.19,-386.31C444.69,-367.08 326.67,-322.15 268.15,-299.87"/>
<polygon fill="#63b8ff" stroke="#63b8ff" points="269.53,-296.28 258.94,-295.99 267.04,-302.82 269.53,-296.28"/>
</g>
<!-- Node21&#45;&gt;Node23 -->
<g id="edge39" class="edge">
<title>Node21&#45;&gt;Node23</title>
<path fill="none" stroke="#63b8ff" d="M532.74,-386.34C544.96,-378.31 563.06,-366.41 577.41,-356.98"/>
<polygon fill="#63b8ff" stroke="#63b8ff" points="578.76,-359.62 585.19,-351.2 574.91,-353.77 578.76,-359.62"/>
</g>
<!-- Node22&#45;&gt;Node2 -->
<g id="edge35" class="edge">
<title>Node22&#45;&gt;Node2</title>
<path fill="none" stroke="#63b8ff" d="M262.31,-280.96C325.71,-272.19 480.07,-250.84 563.42,-239.31"/>
<polygon fill="#63b8ff" stroke="#63b8ff" points="563.78,-242.66 573.21,-237.82 562.82,-235.72 563.78,-242.66"/>
</g>
<!-- Node22&#45;&gt;Node15 -->
<g id="edge36" class="edge">
<title>Node22&#45;&gt;Node15</title>
<path fill="none" stroke="#63b8ff" d="M232.48,-275.83C228.43,-249.42 219.05,-170.56 240,-110.5 243.51,-100.43 250.16,-90.72 256.57,-82.95"/>
<polygon fill="#63b8ff" stroke="#63b8ff" points="258.77,-85.61 262.79,-75.81 253.53,-80.97 258.77,-85.61"/>
</g>
<!-- Node23&#45;&gt;Node2 -->
<g id="edge42" class="edge">
<title>Node23&#45;&gt;Node2</title>
<path fill="none" stroke="#63b8ff" d="M600.3,-331.37C600.83,-319 602.28,-295.72 606,-276.25 607.61,-267.84 610.12,-258.73 612.5,-250.95"/>
<polygon fill="#63b8ff" stroke="#63b8ff" points="616.06,-252.32 615.79,-241.73 609.4,-250.18 616.06,-252.32"/>
</g>
<!-- Node23&#45;&gt;Node7 -->
<g id="edge41" class="edge">
<title>Node23&#45;&gt;Node7</title>
<path fill="none" stroke="#63b8ff" d="M607.35,-331.15C621.09,-314.11 651.18,-275.62 672,-240.25 692.02,-206.25 710.51,-163.92 720.42,-139.97"/>
<polygon fill="#63b8ff" stroke="#63b8ff" points="723.92,-141.66 724.46,-131.08 717.44,-139.01 723.92,-141.66"/>
</g>
<!-- Node23&#45;&gt;Node15 -->
<g id="edge44" class="edge">
<title>Node23&#45;&gt;Node15</title>
<path fill="none" stroke="#63b8ff" d="M569.44,-339.29C503.77,-336.9 352.07,-327.92 314,-295.5 251.86,-242.6 262.15,-130.69 269.34,-85.46"/>
<polygon fill="#63b8ff" stroke="#63b8ff" points="272.93,-86.24 271.18,-75.79 266.03,-85.05 272.93,-86.24"/>
</g>
<!-- Node23&#45;&gt;Node17 -->
<g id="edge43" class="edge">
<title>Node23&#45;&gt;Node17</title>
<path fill="none" stroke="#63b8ff" d="M630.26,-337.34C725.82,-328.53 1021.41,-301.3 1133.92,-290.94"/>
<polygon fill="#63b8ff" stroke="#63b8ff" points="1134.21,-294.33 1143.84,-289.93 1133.57,-287.36 1134.21,-294.33"/>
</g>
<!-- Node23&#45;&gt;Node22 -->
<g id="edge40" class="edge">
<title>Node23&#45;&gt;Node22</title>
<path fill="none" stroke="#63b8ff" d="M569.52,-336.6C511.98,-329.81 383.45,-313.91 276,-295.5 274.86,-295.31 273.71,-295.1 272.55,-294.89"/>
<polygon fill="#63b8ff" stroke="#63b8ff" points="273.44,-291.31 262.97,-292.88 272.14,-298.19 273.44,-291.31"/>
</g>
<!-- Node24&#45;&gt;Node7 -->
<g id="edge48" class="edge">
<title>Node24&#45;&gt;Node7</title>
<path fill="none" stroke="#63b8ff" d="M149.63,-171.2C256.22,-161.97 566.06,-135.15 682.79,-125.04"/>
<polygon fill="#63b8ff" stroke="#63b8ff" points="682.81,-128.46 692.48,-124.11 682.21,-121.49 682.81,-128.46"/>
</g>
<!-- Node24&#45;&gt;Node15 -->
<g id="edge49" class="edge">
<title>Node24&#45;&gt;Node15</title>
<path fill="none" stroke="#63b8ff" d="M106.12,-165.59C96.64,-152.34 82.1,-127.03 95,-110.5 111.69,-89.11 184.98,-76.43 232.16,-70.33"/>
<polygon fill="#63b8ff" stroke="#63b8ff" points="232.47,-73.7 241.96,-69 231.6,-66.75 232.47,-73.7"/>
</g>
<!-- Node25 -->
<g id="node25" class="node">
<title>Node25</title>
<g id="a_node25"><a xlink:title=" ">
<polygon fill="#e0e0e0" stroke="#999999" points="149.62,-129.75 104.38,-129.75 104.38,-110.5 149.62,-110.5 149.62,-129.75"/>
<text text-anchor="middle" x="127" y="-116.25" font-family="Helvetica,sans-Serif" font-size="10.00">cstdint</text>
</a>
</g>
</g>
<!-- Node24&#45;&gt;Node25 -->
<g id="edge47" class="edge">
<title>Node24&#45;&gt;Node25</title>
<path fill="none" stroke="#63b8ff" d="M115.31,-165.58C117.08,-158.84 119.6,-149.27 121.84,-140.74"/>
<polygon fill="#63b8ff" stroke="#63b8ff" points="125.48,-141.67 124.64,-131.11 118.71,-139.89 125.48,-141.67"/>
</g>
<!-- Node26&#45;&gt;Node2 -->
<g id="edge59" class="edge">
<title>Node26&#45;&gt;Node2</title>
<path fill="none" stroke="#63b8ff" d="M870.8,-276.32C817.12,-266.79 730.5,-251.42 674.15,-241.41"/>
<polygon fill="#63b8ff" stroke="#63b8ff" points="675.11,-237.85 664.65,-239.55 673.89,-244.74 675.11,-237.85"/>
</g>
<!-- Node26&#45;&gt;Node3 -->
<g id="edge51" class="edge">
<title>Node26&#45;&gt;Node3</title>
<path fill="none" stroke="#63b8ff" d="M916.01,-276.02C905.01,-243.48 866.7,-130.09 851.39,-84.79"/>
<polygon fill="#63b8ff" stroke="#63b8ff" points="854.47,-83.95 847.95,-75.6 847.83,-86.2 854.47,-83.95"/>
</g>
<!-- Node26&#45;&gt;Node4 -->
<g id="edge56" class="edge">
<title>Node26&#45;&gt;Node4</title>
<path fill="none" stroke="#63b8ff" d="M950.19,-275.87C969.04,-268.95 992.22,-257.59 1007,-240.25 1046.31,-194.15 1058.13,-120.08 1061.6,-85.21"/>
<polygon fill="#63b8ff" stroke="#63b8ff" points="1065.14,-85.88 1062.51,-75.62 1058.17,-85.28 1065.14,-85.88"/>
</g>
<!-- Node26&#45;&gt;Node7 -->
<g id="edge58" class="edge">
<title>Node26&#45;&gt;Node7</title>
<path fill="none" stroke="#63b8ff" d="M908.46,-275.84C877.34,-249.16 785.6,-170.5 746.25,-136.77"/>
<polygon fill="#63b8ff" stroke="#63b8ff" points="749.15,-133.79 739.28,-129.93 744.59,-139.1 749.15,-133.79"/>
</g>
<!-- Node26&#45;&gt;Node8 -->
<g id="edge52" class="edge">
<title>Node26&#45;&gt;Node8</title>
<path fill="none" stroke="#63b8ff" d="M937.59,-275.83C950.71,-268.31 967.28,-256.27 975,-240.25 978.71,-232.54 975.39,-229.55 975,-221 973.89,-196.37 977.21,-189.33 970,-165.75 960.58,-134.96 940.93,-102.98 927.85,-83.75"/>
<polygon fill="#63b8ff" stroke="#63b8ff" points="930.29,-82.13 921.7,-75.93 924.55,-86.13 930.29,-82.13"/>
</g>
<!-- Node26&#45;&gt;Node10 -->
<g id="edge54" class="edge">
<title>Node26&#45;&gt;Node10</title>
<path fill="none" stroke="#63b8ff" d="M944.86,-275.82C960.69,-268.79 979.64,-257.31 989,-240.25 1016.49,-190.13 1000.72,-119.13 990.55,-85.28"/>
<polygon fill="#63b8ff" stroke="#63b8ff" points="993.63,-84.42 987.26,-75.95 986.96,-86.54 993.63,-84.42"/>
</g>
<!-- Node26&#45;&gt;Node13 -->
<g id="edge55" class="edge">
<title>Node26&#45;&gt;Node13</title>
<path fill="none" stroke="#63b8ff" d="M958.35,-275.77C980.61,-269 1007.74,-257.82 1027,-240.25 1092.66,-180.34 1161.22,-122.42 1103,-55.25 1067.74,-14.57 901.99,-10.09 827.92,-10.17"/>
<polygon fill="#63b8ff" stroke="#63b8ff" points="828.25,-6.68 818.27,-10.22 828.28,-13.68 828.25,-6.68"/>
</g>
<!-- Node26&#45;&gt;Node15 -->
<g id="edge61" class="edge">
<title>Node26&#45;&gt;Node15</title>
<path fill="none" stroke="#63b8ff" d="M884.24,-275.83C836.45,-263.41 747.73,-240.39 672,-221 608.93,-204.85 591.36,-206.78 530,-185 518.34,-180.86 366.21,-109.62 301.65,-79.33"/>
<polygon fill="#63b8ff" stroke="#63b8ff" points="303.62,-75.92 293.08,-74.84 300.64,-82.25 303.62,-75.92"/>
</g>
<!-- Node26&#45;&gt;Node18 -->
<g id="edge57" class="edge">
<title>Node26&#45;&gt;Node18</title>
<path fill="none" stroke="#63b8ff" d="M962.67,-275.79C1003.86,-267.1 1067.27,-253.41 1122,-240.25 1122.96,-240.02 1123.93,-239.78 1124.91,-239.54"/>
<polygon fill="#63b8ff" stroke="#63b8ff" points="1125.65,-242.71 1134.49,-236.86 1123.93,-235.92 1125.65,-242.71"/>
</g>
<!-- Node26&#45;&gt;Node20 -->
<g id="edge60" class="edge">
<title>Node26&#45;&gt;Node20</title>
<path fill="none" stroke="#63b8ff" d="M871.08,-280.15C775.4,-270.71 560.36,-249.51 448.92,-238.52"/>
<polygon fill="#63b8ff" stroke="#63b8ff" points="449.44,-234.96 439.14,-237.46 448.75,-241.92 449.44,-234.96"/>
</g>
<!-- Node27 -->
<g id="node27" class="node">
<title>Node27</title>
<g id="a_node27"><a xlink:title=" ">
<polygon fill="#e0e0e0" stroke="#999999" points="966.25,-240.25 921.75,-240.25 921.75,-221 966.25,-221 966.25,-240.25"/>
<text text-anchor="middle" x="944" y="-226.75" font-family="Helvetica,sans-Serif" font-size="10.00">stdio.h</text>
</a>
</g>
</g>
<!-- Node26&#45;&gt;Node27 -->
<g id="edge53" class="edge">
<title>Node26&#45;&gt;Node27</title>
<path fill="none" stroke="#63b8ff" d="M923.13,-276.08C926.4,-269.11 931.09,-259.12 935.2,-250.37"/>
<polygon fill="#63b8ff" stroke="#63b8ff" points="938.7,-252.15 939.78,-241.61 932.36,-249.17 938.7,-252.15"/>
</g>
</g>
</svg>
