<?xml version="1.0" encoding="UTF-8" standalone="no"?>
<!DOCTYPE svg PUBLIC "-//W3C//DTD SVG 1.1//EN"
 "http://www.w3.org/Graphics/SVG/1.1/DTD/svg11.dtd">
<!-- Generated by graphviz version 8.0.5 (20230430.1635)
 -->
<!-- Title: v8::Local&lt; T &gt; Pages: 1 -->
<svg width="673pt" height="407pt"
 viewBox="0.00 0.00 673.25 406.59" xmlns="http://www.w3.org/2000/svg" xmlns:xlink="http://www.w3.org/1999/xlink">
<g id="graph0" class="graph" transform="scale(1 1) rotate(0) translate(4 402.59)">
<title>v8::Local&lt; T &gt;</title>
<!-- Node1 -->
<g id="node1" class="node">
<title>Node1</title>
<g id="a_node1"><a xlink:title=" ">
<polygon fill="#999999" stroke="#666666" points="368,-209.28 290.5,-209.28 290.5,-190.03 368,-190.03 368,-209.28"/>
<text text-anchor="middle" x="329.25" y="-195.78" font-family="Helvetica,sans-Serif" font-size="10.00">v8::Local&lt; T &gt;</text>
</a>
</g>
</g>
<!-- Node4 -->
<g id="node4" class="node">
<title>Node4</title>
<g id="a_node4"><a xlink:href="classv8_1_1internal_1_1LocalUnchecked.html" target="_top" xlink:title=" ">
<polygon fill="white" stroke="#666666" points="665.25,-394.28 502.25,-394.28 502.25,-375.03 665.25,-375.03 665.25,-394.28"/>
<text text-anchor="middle" x="583.75" y="-380.78" font-family="Helvetica,sans-Serif" font-size="10.00">v8::internal::LocalUnchecked&lt; T &gt;</text>
</a>
</g>
</g>
<!-- Node1&#45;&gt;Node4 -->
<g id="edge3" class="edge">
<title>Node1&#45;&gt;Node4</title>
<path fill="none" stroke="#63b8ff" d="M330.19,-220.19C331.3,-256.86 339.45,-333.15 386,-369.65 427.92,-402.52 491.51,-401 534.97,-394.73"/>
<polygon fill="#63b8ff" stroke="#63b8ff" points="333.68,-220.34 330.03,-210.39 326.68,-220.44 333.68,-220.34"/>
</g>
<!-- Node5 -->
<g id="node5" class="node">
<title>Node5</title>
<g id="a_node5"><a xlink:href="classv8_1_1Local.html" target="_top" xlink:title=" ">
<polygon fill="white" stroke="#666666" points="639.75,-357.28 527.75,-357.28 527.75,-338.03 639.75,-338.03 639.75,-357.28"/>
<text text-anchor="middle" x="583.75" y="-343.78" font-family="Helvetica,sans-Serif" font-size="10.00">v8::Local&lt; v8::String &gt;</text>
</a>
</g>
</g>
<!-- Node1&#45;&gt;Node5 -->
<g id="edge4" class="edge">
<title>Node1&#45;&gt;Node5</title>
<path fill="none" stroke="orange" stroke-dasharray="5,2" d="M333.02,-220.36C338.05,-249.1 351.57,-300.4 386,-325.65 426.47,-355.33 484.77,-358.31 527.4,-355.4"/>
<polygon fill="orange" stroke="orange" points="336.34,-219.91 331.35,-210.56 329.42,-220.98 336.34,-219.91"/>
<text text-anchor="middle" x="435.12" y="-356.4" font-family="Helvetica,sans-Serif" font-size="10.00"> &lt; v8::String &gt;</text>
</g>
<!-- Node6 -->
<g id="node6" class="node">
<title>Node6</title>
<g id="a_node6"><a xlink:href="classv8_1_1Local.html" target="_top" xlink:title=" ">
<polygon fill="white" stroke="#666666" points="641.25,-320.28 526.25,-320.28 526.25,-301.03 641.25,-301.03 641.25,-320.28"/>
<text text-anchor="middle" x="583.75" y="-306.78" font-family="Helvetica,sans-Serif" font-size="10.00">v8::Local&lt; v8::Object &gt;</text>
</a>
</g>
</g>
<!-- Node1&#45;&gt;Node6 -->
<g id="edge5" class="edge">
<title>Node1&#45;&gt;Node6</title>
<path fill="none" stroke="orange" stroke-dasharray="5,2" d="M338.24,-219.85C346.95,-239.06 362.83,-267.13 386,-281.65 427.83,-307.88 484.32,-313.86 526.04,-314.02"/>
<polygon fill="orange" stroke="orange" points="341.07,-218.56 333.93,-210.73 334.63,-221.3 341.07,-218.56"/>
<text text-anchor="middle" x="435.12" y="-312.4" font-family="Helvetica,sans-Serif" font-size="10.00"> &lt; v8::Object &gt;</text>
</g>
<!-- Node7 -->
<g id="node7" class="node">
<title>Node7</title>
<g id="a_node7"><a xlink:href="classv8_1_1Local.html" target="_top" xlink:title=" ">
<polygon fill="white" stroke="#666666" points="638.25,-283.28 529.25,-283.28 529.25,-264.03 638.25,-264.03 638.25,-283.28"/>
<text text-anchor="middle" x="583.75" y="-269.78" font-family="Helvetica,sans-Serif" font-size="10.00">v8::Local&lt; v8::Array &gt;</text>
</a>
</g>
</g>
<!-- Node1&#45;&gt;Node7 -->
<g id="edge6" class="edge">
<title>Node1&#45;&gt;Node7</title>
<path fill="none" stroke="orange" stroke-dasharray="5,2" d="M347.7,-216.82C358.01,-225.95 371.79,-236.53 386,-242.65 431.73,-262.35 488.27,-269.69 528.99,-272.35"/>
<polygon fill="orange" stroke="orange" points="350.64,-214.85 340.92,-210.62 345.88,-219.98 350.64,-214.85"/>
<text text-anchor="middle" x="435.12" y="-268.4" font-family="Helvetica,sans-Serif" font-size="10.00"> &lt; v8::Array &gt;</text>
</g>
<!-- Node8 -->
<g id="node8" class="node">
<title>Node8</title>
<g id="a_node8"><a xlink:href="classv8_1_1Local.html" target="_top" xlink:title=" ">
<polygon fill="white" stroke="#666666" points="643.5,-246.28 524,-246.28 524,-227.03 643.5,-227.03 643.5,-246.28"/>
<text text-anchor="middle" x="583.75" y="-232.78" font-family="Helvetica,sans-Serif" font-size="10.00">v8::Local&lt; v8::Context &gt;</text>
</a>
</g>
</g>
<!-- Node1&#45;&gt;Node8 -->
<g id="edge7" class="edge">
<title>Node1&#45;&gt;Node8</title>
<path fill="none" stroke="orange" stroke-dasharray="5,2" d="M374.96,-212.32C378.68,-213.18 382.39,-213.97 386,-214.65 431.93,-223.35 484.59,-229.01 523.86,-232.41"/>
<polygon fill="orange" stroke="orange" points="376.11,-208.75 365.56,-209.76 374.43,-215.54 376.11,-208.75"/>
<text text-anchor="middle" x="435.12" y="-229.4" font-family="Helvetica,sans-Serif" font-size="10.00"> &lt; v8::Context &gt;</text>
</g>
<!-- Node9 -->
<g id="node9" class="node">
<title>Node9</title>
<g id="a_node9"><a xlink:href="classv8_1_1Local.html" target="_top" xlink:title=" ">
<polygon fill="white" stroke="#666666" points="639.38,-209.28 528.12,-209.28 528.12,-190.03 639.38,-190.03 639.38,-209.28"/>
<text text-anchor="middle" x="583.75" y="-195.78" font-family="Helvetica,sans-Serif" font-size="10.00">v8::Local&lt; v8::Value &gt;</text>
</a>
</g>
</g>
<!-- Node1&#45;&gt;Node9 -->
<g id="edge8" class="edge">
<title>Node1&#45;&gt;Node9</title>
<path fill="none" stroke="orange" stroke-dasharray="5,2" d="M379.28,-199.65C421.94,-199.65 483.69,-199.65 527.96,-199.65"/>
<polygon fill="orange" stroke="orange" points="379.33,-196.15 369.33,-199.65 379.33,-203.15 379.33,-196.15"/>
<text text-anchor="middle" x="435.12" y="-201.4" font-family="Helvetica,sans-Serif" font-size="10.00"> &lt; v8::Value &gt;</text>
</g>
<!-- Node10 -->
<g id="node10" class="node">
<title>Node10</title>
<g id="a_node10"><a xlink:href="classv8_1_1Local.html" target="_top" xlink:title=" ">
<polygon fill="white" stroke="#666666" points="631.88,-172.28 535.62,-172.28 535.62,-153.03 631.88,-153.03 631.88,-172.28"/>
<text text-anchor="middle" x="583.75" y="-158.78" font-family="Helvetica,sans-Serif" font-size="10.00">v8::Local&lt; Value &gt;</text>
</a>
</g>
</g>
<!-- Node1&#45;&gt;Node10 -->
<g id="edge9" class="edge">
<title>Node1&#45;&gt;Node10</title>
<path fill="none" stroke="orange" stroke-dasharray="5,2" d="M374.13,-186.96C378.13,-186.01 382.13,-185.14 386,-184.4 436.47,-174.77 495.09,-168.97 535.13,-165.81"/>
<polygon fill="orange" stroke="orange" points="373.5,-183.76 364.66,-189.6 375.21,-190.55 373.5,-183.76"/>
<text text-anchor="middle" x="435.12" y="-186.4" font-family="Helvetica,sans-Serif" font-size="10.00"> &lt; Value &gt;</text>
</g>
<!-- Node11 -->
<g id="node11" class="node">
<title>Node11</title>
<g id="a_node11"><a xlink:href="classv8_1_1Local.html" target="_top" xlink:title=" ">
<polygon fill="white" stroke="#666666" points="659.25,-135.28 508.25,-135.28 508.25,-116.03 659.25,-116.03 659.25,-135.28"/>
<text text-anchor="middle" x="583.75" y="-121.78" font-family="Helvetica,sans-Serif" font-size="10.00">v8::Local&lt; v8::UnboundScript &gt;</text>
</a>
</g>
</g>
<!-- Node1&#45;&gt;Node11 -->
<g id="edge10" class="edge">
<title>Node1&#45;&gt;Node11</title>
<path fill="none" stroke="orange" stroke-dasharray="5,2" d="M347.68,-182.37C357.98,-173.19 371.77,-162.55 386,-156.4 424.25,-139.89 470.08,-132.11 507.89,-128.5"/>
<polygon fill="orange" stroke="orange" points="345.83,-179.24 340.91,-188.62 350.61,-184.36 345.83,-179.24"/>
<text text-anchor="middle" x="435.12" y="-158.4" font-family="Helvetica,sans-Serif" font-size="10.00"> &lt; v8::UnboundScript &gt;</text>
</g>
<!-- Node12 -->
<g id="node12" class="node">
<title>Node12</title>
<g id="a_node12"><a xlink:href="classv8_1_1Local.html" target="_top" xlink:title=" ">
<polygon fill="white" stroke="#666666" points="632.62,-98.28 534.88,-98.28 534.88,-79.03 632.62,-79.03 632.62,-98.28"/>
<text text-anchor="middle" x="583.75" y="-84.78" font-family="Helvetica,sans-Serif" font-size="10.00">v8::Local&lt; Name &gt;</text>
</a>
</g>
</g>
<!-- Node1&#45;&gt;Node12 -->
<g id="edge11" class="edge">
<title>Node1&#45;&gt;Node12</title>
<path fill="none" stroke="orange" stroke-dasharray="5,2" d="M338.09,-179.66C346.77,-160.38 362.68,-132.03 386,-117.4 430.75,-89.34 492.28,-84.55 534.56,-85.24"/>
<polygon fill="orange" stroke="orange" points="334.59,-177.97 333.92,-188.54 341.03,-180.69 334.59,-177.97"/>
<text text-anchor="middle" x="435.12" y="-119.4" font-family="Helvetica,sans-Serif" font-size="10.00"> &lt; Name &gt;</text>
</g>
<!-- Node13 -->
<g id="node13" class="node">
<title>Node13</title>
<g id="a_node13"><a xlink:href="classv8_1_1Local.html" target="_top" xlink:title=" ">
<polygon fill="white" stroke="#666666" points="645,-61.28 522.5,-61.28 522.5,-42.03 645,-42.03 645,-61.28"/>
<text text-anchor="middle" x="583.75" y="-47.78" font-family="Helvetica,sans-Serif" font-size="10.00">v8::Local&lt; v8::Promise &gt;</text>
</a>
</g>
</g>
<!-- Node1&#45;&gt;Node13 -->
<g id="edge12" class="edge">
<title>Node1&#45;&gt;Node13</title>
<path fill="none" stroke="orange" stroke-dasharray="5,2" d="M332.86,-179.1C337.74,-150.12 351.09,-97.93 386,-72.4 424.81,-44.02 480.02,-40.47 522.08,-43.09"/>
<polygon fill="orange" stroke="orange" points="329.31,-178.22 331.3,-188.63 336.23,-179.25 329.31,-178.22"/>
<text text-anchor="middle" x="435.12" y="-74.4" font-family="Helvetica,sans-Serif" font-size="10.00"> &lt; v8::Promise &gt;</text>
</g>
<!-- Node14 -->
<g id="node14" class="node">
<title>Node14</title>
<g id="a_node14"><a xlink:href="classv8_1_1Local.html" target="_top" xlink:title=" ">
<polygon fill="white" stroke="#666666" points="637.12,-24.28 530.38,-24.28 530.38,-5.03 637.12,-5.03 637.12,-24.28"/>
<text text-anchor="middle" x="583.75" y="-10.78" font-family="Helvetica,sans-Serif" font-size="10.00">v8::Local&lt; v8::Data &gt;</text>
</a>
</g>
</g>
<!-- Node1&#45;&gt;Node14 -->
<g id="edge13" class="edge">
<title>Node1&#45;&gt;Node14</title>
<path fill="none" stroke="orange" stroke-dasharray="5,2" d="M330.11,-178.94C331.11,-141.96 339.06,-65.05 386,-28.4 428.78,5 494.01,2.31 537.49,-4.58"/>
<polygon fill="orange" stroke="orange" points="326.6,-178.79 329.99,-188.83 333.6,-178.87 326.6,-178.79"/>
<text text-anchor="middle" x="435.12" y="-30.4" font-family="Helvetica,sans-Serif" font-size="10.00"> &lt; v8::Data &gt;</text>
</g>
<!-- Node2 -->
<g id="node2" class="node">
<title>Node2</title>
<g id="a_node2"><a xlink:href="classv8_1_1LocalBase.html" target="_top" xlink:title=" ">
<polygon fill="white" stroke="#666666" points="253.5,-209.28 153.5,-209.28 153.5,-190.03 253.5,-190.03 253.5,-209.28"/>
<text text-anchor="middle" x="203.5" y="-195.78" font-family="Helvetica,sans-Serif" font-size="10.00">v8::LocalBase&lt; T &gt;</text>
</a>
</g>
</g>
<!-- Node2&#45;&gt;Node1 -->
<g id="edge1" class="edge">
<title>Node2&#45;&gt;Node1</title>
<path fill="none" stroke="#63b8ff" d="M264.7,-199.65C273.39,-199.65 282.12,-199.65 290.21,-199.65"/>
<polygon fill="#63b8ff" stroke="#63b8ff" points="264.76,-196.15 254.76,-199.65 264.76,-203.15 264.76,-196.15"/>
</g>
<!-- Node3 -->
<g id="node3" class="node">
<title>Node3</title>
<g id="a_node3"><a xlink:href="classv8_1_1IndirectHandleBase.html" target="_top" xlink:title=" ">
<polygon fill="white" stroke="#666666" points="116.5,-209.28 0,-209.28 0,-190.03 116.5,-190.03 116.5,-209.28"/>
<text text-anchor="middle" x="58.25" y="-195.78" font-family="Helvetica,sans-Serif" font-size="10.00">v8::IndirectHandleBase</text>
</a>
</g>
</g>
<!-- Node3&#45;&gt;Node2 -->
<g id="edge2" class="edge">
<title>Node3&#45;&gt;Node2</title>
<path fill="none" stroke="#63b8ff" d="M127.62,-199.65C136.3,-199.65 145.05,-199.65 153.35,-199.65"/>
<polygon fill="#63b8ff" stroke="#63b8ff" points="127.69,-196.15 117.69,-199.65 127.69,-203.15 127.69,-196.15"/>
</g>
</g>
</svg>
