<?xml version="1.0" encoding="UTF-8" standalone="no"?>
<!DOCTYPE svg PUBLIC "-//W3C//DTD SVG 1.1//EN"
 "http://www.w3.org/Graphics/SVG/1.1/DTD/svg11.dtd">
<!-- Generated by graphviz version 8.0.5 (20230430.1635)
 -->
<!-- Title: include/v8&#45;exception.h Pages: 1 -->
<svg width="542pt" height="248pt"
 viewBox="0.00 0.00 542.00 248.25" xmlns="http://www.w3.org/2000/svg" xmlns:xlink="http://www.w3.org/1999/xlink">
<g id="graph0" class="graph" transform="scale(1 1) rotate(0) translate(4 244.25)">
<title>include/v8&#45;exception.h</title>
<!-- Node1 -->
<g id="node1" class="node">
<title>Node1</title>
<g id="a_node1"><a xlink:title=" ">
<polygon fill="#999999" stroke="#666666" points="218.25,-240.25 106.25,-240.25 106.25,-221 218.25,-221 218.25,-240.25"/>
<text text-anchor="middle" x="162.25" y="-226.75" font-family="Helvetica,sans-Serif" font-size="10.00">include/v8&#45;exception.h</text>
</a>
</g>
</g>
<!-- Node2 -->
<g id="node2" class="node">
<title>Node2</title>
<g id="a_node2"><a xlink:title=" ">
<polygon fill="#e0e0e0" stroke="#999999" points="50.5,-19.25 0,-19.25 0,0 50.5,0 50.5,-19.25"/>
<text text-anchor="middle" x="25.25" y="-5.75" font-family="Helvetica,sans-Serif" font-size="10.00">stddef.h</text>
</a>
</g>
</g>
<!-- Node1&#45;&gt;Node2 -->
<g id="edge1" class="edge">
<title>Node1&#45;&gt;Node2</title>
<path fill="none" stroke="#63b8ff" d="M148.67,-220.67C137.04,-212.47 120.46,-199.44 109.25,-185 70.37,-134.89 43.16,-63.88 31.55,-30.03"/>
<polygon fill="#63b8ff" stroke="#63b8ff" points="34.58,-29.08 28.09,-20.7 27.94,-31.3 34.58,-29.08"/>
</g>
<!-- Node3 -->
<g id="node3" class="node">
<title>Node3</title>
<g id="a_node3"><a xlink:href="v8-local-handle_8h.html" target="_top" xlink:title=" ">
<polygon fill="white" stroke="#666666" points="206.62,-185 117.88,-185 117.88,-165.75 206.62,-165.75 206.62,-185"/>
<text text-anchor="middle" x="162.25" y="-171.5" font-family="Helvetica,sans-Serif" font-size="10.00">v8&#45;local&#45;handle.h</text>
</a>
</g>
</g>
<!-- Node1&#45;&gt;Node3 -->
<g id="edge2" class="edge">
<title>Node1&#45;&gt;Node3</title>
<path fill="none" stroke="#63b8ff" d="M162.25,-220.83C162.25,-214.17 162.25,-204.74 162.25,-196.28"/>
<polygon fill="#63b8ff" stroke="#63b8ff" points="165.75,-196.36 162.25,-186.36 158.75,-196.36 165.75,-196.36"/>
</g>
<!-- Node13 -->
<g id="node13" class="node">
<title>Node13</title>
<g id="a_node13"><a xlink:href="v8config_8h.html" target="_top" xlink:title=" ">
<polygon fill="white" stroke="#666666" points="534,-19.25 474.5,-19.25 474.5,0 534,0 534,-19.25"/>
<text text-anchor="middle" x="504.25" y="-5.75" font-family="Helvetica,sans-Serif" font-size="10.00">v8config.h</text>
</a>
</g>
</g>
<!-- Node1&#45;&gt;Node13 -->
<g id="edge17" class="edge">
<title>Node1&#45;&gt;Node13</title>
<path fill="none" stroke="#63b8ff" d="M181.81,-220.6C216.67,-204.21 291.41,-167.74 350.25,-129.75 401.75,-96.49 457.58,-50.57 485.75,-26.61"/>
<polygon fill="#63b8ff" stroke="#63b8ff" points="487.56,-28.82 492.88,-19.65 483.01,-23.5 487.56,-28.82"/>
</g>
<!-- Node3&#45;&gt;Node2 -->
<g id="edge3" class="edge">
<title>Node3&#45;&gt;Node2</title>
<path fill="none" stroke="#63b8ff" d="M154.88,-165.57C133.05,-139.47 68.39,-62.19 39.49,-27.64"/>
<polygon fill="#63b8ff" stroke="#63b8ff" points="41.75,-25.9 32.65,-20.47 36.38,-30.39 41.75,-25.9"/>
</g>
<!-- Node4 -->
<g id="node4" class="node">
<title>Node4</title>
<g id="a_node4"><a xlink:title=" ">
<polygon fill="#e0e0e0" stroke="#999999" points="129.75,-19.25 68.75,-19.25 68.75,0 129.75,0 129.75,-19.25"/>
<text text-anchor="middle" x="99.25" y="-5.75" font-family="Helvetica,sans-Serif" font-size="10.00">type_traits</text>
</a>
</g>
</g>
<!-- Node3&#45;&gt;Node4 -->
<g id="edge4" class="edge">
<title>Node3&#45;&gt;Node4</title>
<path fill="none" stroke="#63b8ff" d="M158.86,-165.57C148.99,-139.92 120.09,-64.8 106.49,-29.44"/>
<polygon fill="#63b8ff" stroke="#63b8ff" points="109.51,-28.55 102.65,-20.47 102.98,-31.06 109.51,-28.55"/>
</g>
<!-- Node5 -->
<g id="node5" class="node">
<title>Node5</title>
<g id="a_node5"><a xlink:title=" ">
<polygon fill="#e0e0e0" stroke="#999999" points="340.75,-129.75 297.75,-129.75 297.75,-110.5 340.75,-110.5 340.75,-129.75"/>
<text text-anchor="middle" x="319.25" y="-116.25" font-family="Helvetica,sans-Serif" font-size="10.00">vector</text>
</a>
</g>
</g>
<!-- Node3&#45;&gt;Node5 -->
<g id="edge5" class="edge">
<title>Node3&#45;&gt;Node5</title>
<path fill="none" stroke="#63b8ff" d="M188.88,-165.34C216.03,-156.13 258.17,-141.84 287.15,-132.01"/>
<polygon fill="#63b8ff" stroke="#63b8ff" points="288.21,-135.01 296.55,-128.48 285.96,-128.38 288.21,-135.01"/>
</g>
<!-- Node6 -->
<g id="node6" class="node">
<title>Node6</title>
<g id="a_node6"><a xlink:href="v8-handle-base_8h.html" target="_top" xlink:title=" ">
<polygon fill="white" stroke="#666666" points="280,-129.75 190.5,-129.75 190.5,-110.5 280,-110.5 280,-129.75"/>
<text text-anchor="middle" x="235.25" y="-116.25" font-family="Helvetica,sans-Serif" font-size="10.00">v8&#45;handle&#45;base.h</text>
</a>
</g>
</g>
<!-- Node3&#45;&gt;Node6 -->
<g id="edge6" class="edge">
<title>Node3&#45;&gt;Node6</title>
<path fill="none" stroke="#63b8ff" d="M174.63,-165.34C185.5,-157.41 201.53,-145.72 214.38,-136.35"/>
<polygon fill="#63b8ff" stroke="#63b8ff" points="216.03,-138.75 222.05,-130.02 211.91,-133.09 216.03,-138.75"/>
</g>
<!-- Node7 -->
<g id="node7" class="node">
<title>Node7</title>
<g id="a_node7"><a xlink:href="v8-internal_8h.html" target="_top" xlink:title=" ">
<polygon fill="white" stroke="#666666" points="270.5,-74.5 202,-74.5 202,-55.25 270.5,-55.25 270.5,-74.5"/>
<text text-anchor="middle" x="236.25" y="-61" font-family="Helvetica,sans-Serif" font-size="10.00">v8&#45;internal.h</text>
</a>
</g>
</g>
<!-- Node3&#45;&gt;Node7 -->
<g id="edge16" class="edge">
<title>Node3&#45;&gt;Node7</title>
<path fill="none" stroke="#63b8ff" d="M163.22,-165.41C164.99,-152.36 169.68,-127.81 181.25,-110.5 189.07,-98.8 200.89,-88.64 211.58,-80.98"/>
<polygon fill="#63b8ff" stroke="#63b8ff" points="213.22,-83.42 219.54,-74.92 209.3,-77.62 213.22,-83.42"/>
</g>
<!-- Node6&#45;&gt;Node7 -->
<g id="edge7" class="edge">
<title>Node6&#45;&gt;Node7</title>
<path fill="none" stroke="#63b8ff" d="M235.42,-110.33C235.54,-103.67 235.72,-94.24 235.88,-85.78"/>
<polygon fill="#63b8ff" stroke="#63b8ff" points="239.39,-85.92 236.08,-75.86 232.39,-85.79 239.39,-85.92"/>
</g>
<!-- Node7&#45;&gt;Node2 -->
<g id="edge8" class="edge">
<title>Node7&#45;&gt;Node2</title>
<path fill="none" stroke="#63b8ff" d="M201.65,-55.17C168.13,-46.73 115.57,-33.49 61.36,-19.78"/>
<polygon fill="#63b8ff" stroke="#63b8ff" points="62.42,-16.19 51.87,-17.13 60.71,-22.97 62.42,-16.19"/>
</g>
<!-- Node7&#45;&gt;Node4 -->
<g id="edge14" class="edge">
<title>Node7&#45;&gt;Node4</title>
<path fill="none" stroke="#63b8ff" d="M213.01,-54.84C190.97,-46.27 157.6,-33.31 132.7,-23.63"/>
<polygon fill="#63b8ff" stroke="#63b8ff" points="134.19,-20.06 123.6,-19.7 131.66,-26.59 134.19,-20.06"/>
</g>
<!-- Node8 -->
<g id="node8" class="node">
<title>Node8</title>
<g id="a_node8"><a xlink:title=" ">
<polygon fill="#e0e0e0" stroke="#999999" points="195,-19.25 147.5,-19.25 147.5,0 195,0 195,-19.25"/>
<text text-anchor="middle" x="171.25" y="-5.75" font-family="Helvetica,sans-Serif" font-size="10.00">stdint.h</text>
</a>
</g>
</g>
<!-- Node7&#45;&gt;Node8 -->
<g id="edge9" class="edge">
<title>Node7&#45;&gt;Node8</title>
<path fill="none" stroke="#63b8ff" d="M225.22,-54.84C215.74,-47.07 201.83,-35.67 190.5,-26.4"/>
<polygon fill="#63b8ff" stroke="#63b8ff" points="193.07,-23.15 183.11,-19.52 188.63,-28.57 193.07,-23.15"/>
</g>
<!-- Node9 -->
<g id="node9" class="node">
<title>Node9</title>
<g id="a_node9"><a xlink:title=" ">
<polygon fill="#e0e0e0" stroke="#999999" points="261,-19.25 213.5,-19.25 213.5,0 261,0 261,-19.25"/>
<text text-anchor="middle" x="237.25" y="-5.75" font-family="Helvetica,sans-Serif" font-size="10.00">string.h</text>
</a>
</g>
</g>
<!-- Node7&#45;&gt;Node9 -->
<g id="edge10" class="edge">
<title>Node7&#45;&gt;Node9</title>
<path fill="none" stroke="#63b8ff" d="M236.42,-55.08C236.54,-48.42 236.72,-38.99 236.88,-30.53"/>
<polygon fill="#63b8ff" stroke="#63b8ff" points="240.39,-30.67 237.08,-20.61 233.39,-30.54 240.39,-30.67"/>
</g>
<!-- Node10 -->
<g id="node10" class="node">
<title>Node10</title>
<g id="a_node10"><a xlink:title=" ">
<polygon fill="#e0e0e0" stroke="#999999" points="323.88,-19.25 278.62,-19.25 278.62,0 323.88,0 323.88,-19.25"/>
<text text-anchor="middle" x="301.25" y="-5.75" font-family="Helvetica,sans-Serif" font-size="10.00">atomic</text>
</a>
</g>
</g>
<!-- Node7&#45;&gt;Node10 -->
<g id="edge11" class="edge">
<title>Node7&#45;&gt;Node10</title>
<path fill="none" stroke="#63b8ff" d="M247.28,-54.84C256.76,-47.07 270.67,-35.67 282,-26.4"/>
<polygon fill="#63b8ff" stroke="#63b8ff" points="283.87,-28.57 289.39,-19.52 279.43,-23.15 283.87,-28.57"/>
</g>
<!-- Node11 -->
<g id="node11" class="node">
<title>Node11</title>
<g id="a_node11"><a xlink:title=" ">
<polygon fill="#e0e0e0" stroke="#999999" points="388.25,-19.25 342.25,-19.25 342.25,0 388.25,0 388.25,-19.25"/>
<text text-anchor="middle" x="365.25" y="-5.75" font-family="Helvetica,sans-Serif" font-size="10.00">iterator</text>
</a>
</g>
</g>
<!-- Node7&#45;&gt;Node11 -->
<g id="edge12" class="edge">
<title>Node7&#45;&gt;Node11</title>
<path fill="none" stroke="#63b8ff" d="M258.13,-54.84C278.7,-46.35 309.74,-33.54 333.12,-23.89"/>
<polygon fill="#63b8ff" stroke="#63b8ff" points="334.35,-26.75 342.26,-19.7 331.68,-20.28 334.35,-26.75"/>
</g>
<!-- Node12 -->
<g id="node12" class="node">
<title>Node12</title>
<g id="a_node12"><a xlink:title=" ">
<polygon fill="#e0e0e0" stroke="#999999" points="456.5,-19.25 406,-19.25 406,0 456.5,0 456.5,-19.25"/>
<text text-anchor="middle" x="431.25" y="-5.75" font-family="Helvetica,sans-Serif" font-size="10.00">memory</text>
</a>
</g>
</g>
<!-- Node7&#45;&gt;Node12 -->
<g id="edge13" class="edge">
<title>Node7&#45;&gt;Node12</title>
<path fill="none" stroke="#63b8ff" d="M269.33,-54.84C304.29,-45.3 359.24,-30.29 395.27,-20.45"/>
<polygon fill="#63b8ff" stroke="#63b8ff" points="396.07,-23.59 404.79,-17.58 394.22,-16.83 396.07,-23.59"/>
</g>
<!-- Node7&#45;&gt;Node13 -->
<g id="edge15" class="edge">
<title>Node7&#45;&gt;Node13</title>
<path fill="none" stroke="#63b8ff" d="M270.83,-57.42C313.7,-49.35 389.27,-34.93 463.56,-19.56"/>
<polygon fill="#63b8ff" stroke="#63b8ff" points="463.95,-22.85 473.03,-17.39 462.53,-15.99 463.95,-22.85"/>
</g>
</g>
</svg>
