<?xml version="1.0" encoding="UTF-8" standalone="no"?>
<!DOCTYPE svg PUBLIC "-//W3C//DTD SVG 1.1//EN"
 "http://www.w3.org/Graphics/SVG/1.1/DTD/svg11.dtd">
<!-- Generated by graphviz version 8.0.5 (20230430.1635)
 -->
<!-- Title: include/v8&#45;local&#45;handle.h Pages: 1 -->
<svg width="542pt" height="193pt"
 viewBox="0.00 0.00 542.00 193.00" xmlns="http://www.w3.org/2000/svg" xmlns:xlink="http://www.w3.org/1999/xlink">
<g id="graph0" class="graph" transform="scale(1 1) rotate(0) translate(4 189)">
<title>include/v8&#45;local&#45;handle.h</title>
<!-- Node1 -->
<g id="node1" class="node">
<title>Node1</title>
<g id="a_node1"><a xlink:title=" ">
<polygon fill="#999999" stroke="#666666" points="229.5,-185 107,-185 107,-165.75 229.5,-165.75 229.5,-185"/>
<text text-anchor="middle" x="168.25" y="-171.5" font-family="Helvetica,sans-Serif" font-size="10.00">include/v8&#45;local&#45;handle.h</text>
</a>
</g>
</g>
<!-- Node2 -->
<g id="node2" class="node">
<title>Node2</title>
<g id="a_node2"><a xlink:title=" ">
<polygon fill="#e0e0e0" stroke="#999999" points="50.5,-19.25 0,-19.25 0,0 50.5,0 50.5,-19.25"/>
<text text-anchor="middle" x="25.25" y="-5.75" font-family="Helvetica,sans-Serif" font-size="10.00">stddef.h</text>
</a>
</g>
</g>
<!-- Node1&#45;&gt;Node2 -->
<g id="edge1" class="edge">
<title>Node1&#45;&gt;Node2</title>
<path fill="none" stroke="#63b8ff" d="M151.14,-165.38C136.93,-157.35 116.77,-144.57 102.25,-129.75 71.93,-98.79 46.91,-54.11 34.23,-29.2"/>
<polygon fill="#63b8ff" stroke="#63b8ff" points="37.02,-27.95 29.44,-20.55 30.75,-31.06 37.02,-27.95"/>
</g>
<!-- Node3 -->
<g id="node3" class="node">
<title>Node3</title>
<g id="a_node3"><a xlink:title=" ">
<polygon fill="#e0e0e0" stroke="#999999" points="129.75,-19.25 68.75,-19.25 68.75,0 129.75,0 129.75,-19.25"/>
<text text-anchor="middle" x="99.25" y="-5.75" font-family="Helvetica,sans-Serif" font-size="10.00">type_traits</text>
</a>
</g>
</g>
<!-- Node1&#45;&gt;Node3 -->
<g id="edge2" class="edge">
<title>Node1&#45;&gt;Node3</title>
<path fill="none" stroke="#63b8ff" d="M151.65,-165.36C139.17,-157.64 122.81,-145.31 114.25,-129.75 96.98,-98.34 96.14,-55.38 97.45,-30.56"/>
<polygon fill="#63b8ff" stroke="#63b8ff" points="101.01,-30.9 98.23,-20.67 94.03,-30.4 101.01,-30.9"/>
</g>
<!-- Node4 -->
<g id="node4" class="node">
<title>Node4</title>
<g id="a_node4"><a xlink:title=" ">
<polygon fill="#e0e0e0" stroke="#999999" points="312.75,-129.75 269.75,-129.75 269.75,-110.5 312.75,-110.5 312.75,-129.75"/>
<text text-anchor="middle" x="291.25" y="-116.25" font-family="Helvetica,sans-Serif" font-size="10.00">vector</text>
</a>
</g>
</g>
<!-- Node1&#45;&gt;Node4 -->
<g id="edge3" class="edge">
<title>Node1&#45;&gt;Node4</title>
<path fill="none" stroke="#63b8ff" d="M189.12,-165.34C208.64,-156.89 238.06,-144.15 260.31,-134.52"/>
<polygon fill="#63b8ff" stroke="#63b8ff" points="261.5,-137.39 269.28,-130.2 258.71,-130.96 261.5,-137.39"/>
</g>
<!-- Node5 -->
<g id="node5" class="node">
<title>Node5</title>
<g id="a_node5"><a xlink:href="v8-handle-base_8h.html" target="_top" xlink:title=" ">
<polygon fill="white" stroke="#666666" points="213,-129.75 123.5,-129.75 123.5,-110.5 213,-110.5 213,-129.75"/>
<text text-anchor="middle" x="168.25" y="-116.25" font-family="Helvetica,sans-Serif" font-size="10.00">v8&#45;handle&#45;base.h</text>
</a>
</g>
</g>
<!-- Node1&#45;&gt;Node5 -->
<g id="edge4" class="edge">
<title>Node1&#45;&gt;Node5</title>
<path fill="none" stroke="#63b8ff" d="M168.25,-165.58C168.25,-158.92 168.25,-149.49 168.25,-141.03"/>
<polygon fill="#63b8ff" stroke="#63b8ff" points="171.75,-141.11 168.25,-131.11 164.75,-141.11 171.75,-141.11"/>
</g>
<!-- Node6 -->
<g id="node6" class="node">
<title>Node6</title>
<g id="a_node6"><a xlink:href="v8-internal_8h.html" target="_top" xlink:title=" ">
<polygon fill="white" stroke="#666666" points="273.5,-74.5 205,-74.5 205,-55.25 273.5,-55.25 273.5,-74.5"/>
<text text-anchor="middle" x="239.25" y="-61" font-family="Helvetica,sans-Serif" font-size="10.00">v8&#45;internal.h</text>
</a>
</g>
</g>
<!-- Node1&#45;&gt;Node6 -->
<g id="edge14" class="edge">
<title>Node1&#45;&gt;Node6</title>
<path fill="none" stroke="#63b8ff" d="M183.79,-165.34C196,-157.45 212.53,-144.9 222.25,-129.75 230.79,-116.44 235.06,-98.95 237.18,-85.63"/>
<polygon fill="#63b8ff" stroke="#63b8ff" points="240.77,-86.19 238.59,-75.82 233.83,-85.29 240.77,-86.19"/>
</g>
<!-- Node5&#45;&gt;Node6 -->
<g id="edge5" class="edge">
<title>Node5&#45;&gt;Node6</title>
<path fill="none" stroke="#63b8ff" d="M180.29,-110.09C190.76,-102.24 206.15,-90.7 218.58,-81.37"/>
<polygon fill="#63b8ff" stroke="#63b8ff" points="220.48,-83.57 226.38,-74.77 216.28,-77.97 220.48,-83.57"/>
</g>
<!-- Node6&#45;&gt;Node2 -->
<g id="edge6" class="edge">
<title>Node6&#45;&gt;Node2</title>
<path fill="none" stroke="#63b8ff" d="M204.73,-55.38C170.61,-46.96 116.64,-33.62 61.22,-19.74"/>
<polygon fill="#63b8ff" stroke="#63b8ff" points="62.42,-16.18 51.87,-17.14 60.71,-22.97 62.42,-16.18"/>
</g>
<!-- Node6&#45;&gt;Node3 -->
<g id="edge12" class="edge">
<title>Node6&#45;&gt;Node3</title>
<path fill="none" stroke="#63b8ff" d="M215.5,-54.84C192.87,-46.24 158.58,-33.19 133.09,-23.5"/>
<polygon fill="#63b8ff" stroke="#63b8ff" points="134.71,-19.99 124.12,-19.7 132.22,-26.53 134.71,-19.99"/>
</g>
<!-- Node7 -->
<g id="node7" class="node">
<title>Node7</title>
<g id="a_node7"><a xlink:title=" ">
<polygon fill="#e0e0e0" stroke="#999999" points="195,-19.25 147.5,-19.25 147.5,0 195,0 195,-19.25"/>
<text text-anchor="middle" x="171.25" y="-5.75" font-family="Helvetica,sans-Serif" font-size="10.00">stdint.h</text>
</a>
</g>
</g>
<!-- Node6&#45;&gt;Node7 -->
<g id="edge7" class="edge">
<title>Node6&#45;&gt;Node7</title>
<path fill="none" stroke="#63b8ff" d="M227.71,-54.84C217.69,-46.99 202.95,-35.45 191.04,-26.12"/>
<polygon fill="#63b8ff" stroke="#63b8ff" points="193.65,-22.93 183.61,-19.52 189.33,-28.45 193.65,-22.93"/>
</g>
<!-- Node8 -->
<g id="node8" class="node">
<title>Node8</title>
<g id="a_node8"><a xlink:title=" ">
<polygon fill="#e0e0e0" stroke="#999999" points="261,-19.25 213.5,-19.25 213.5,0 261,0 261,-19.25"/>
<text text-anchor="middle" x="237.25" y="-5.75" font-family="Helvetica,sans-Serif" font-size="10.00">string.h</text>
</a>
</g>
</g>
<!-- Node6&#45;&gt;Node8 -->
<g id="edge8" class="edge">
<title>Node6&#45;&gt;Node8</title>
<path fill="none" stroke="#63b8ff" d="M238.92,-55.08C238.67,-48.42 238.32,-38.99 238,-30.53"/>
<polygon fill="#63b8ff" stroke="#63b8ff" points="241.46,-30.47 237.59,-20.61 234.47,-30.73 241.46,-30.47"/>
</g>
<!-- Node9 -->
<g id="node9" class="node">
<title>Node9</title>
<g id="a_node9"><a xlink:title=" ">
<polygon fill="#e0e0e0" stroke="#999999" points="323.88,-19.25 278.62,-19.25 278.62,0 323.88,0 323.88,-19.25"/>
<text text-anchor="middle" x="301.25" y="-5.75" font-family="Helvetica,sans-Serif" font-size="10.00">atomic</text>
</a>
</g>
</g>
<!-- Node6&#45;&gt;Node9 -->
<g id="edge9" class="edge">
<title>Node6&#45;&gt;Node9</title>
<path fill="none" stroke="#63b8ff" d="M249.77,-54.84C258.73,-47.15 271.82,-35.9 282.56,-26.68"/>
<polygon fill="#63b8ff" stroke="#63b8ff" points="284.58,-28.7 289.89,-19.52 280.02,-23.39 284.58,-28.7"/>
</g>
<!-- Node10 -->
<g id="node10" class="node">
<title>Node10</title>
<g id="a_node10"><a xlink:title=" ">
<polygon fill="#e0e0e0" stroke="#999999" points="388.25,-19.25 342.25,-19.25 342.25,0 388.25,0 388.25,-19.25"/>
<text text-anchor="middle" x="365.25" y="-5.75" font-family="Helvetica,sans-Serif" font-size="10.00">iterator</text>
</a>
</g>
</g>
<!-- Node6&#45;&gt;Node10 -->
<g id="edge10" class="edge">
<title>Node6&#45;&gt;Node10</title>
<path fill="none" stroke="#63b8ff" d="M260.62,-54.84C280.72,-46.35 311.03,-33.54 333.87,-23.89"/>
<polygon fill="#63b8ff" stroke="#63b8ff" points="334.92,-26.82 342.77,-19.7 332.2,-20.37 334.92,-26.82"/>
</g>
<!-- Node11 -->
<g id="node11" class="node">
<title>Node11</title>
<g id="a_node11"><a xlink:title=" ">
<polygon fill="#e0e0e0" stroke="#999999" points="456.5,-19.25 406,-19.25 406,0 456.5,0 456.5,-19.25"/>
<text text-anchor="middle" x="431.25" y="-5.75" font-family="Helvetica,sans-Serif" font-size="10.00">memory</text>
</a>
</g>
</g>
<!-- Node6&#45;&gt;Node11 -->
<g id="edge11" class="edge">
<title>Node6&#45;&gt;Node11</title>
<path fill="none" stroke="#63b8ff" d="M271.82,-54.84C306.05,-45.35 359.74,-30.46 395.22,-20.62"/>
<polygon fill="#63b8ff" stroke="#63b8ff" points="395.9,-23.78 404.6,-17.74 394.03,-17.04 395.9,-23.78"/>
</g>
<!-- Node12 -->
<g id="node12" class="node">
<title>Node12</title>
<g id="a_node12"><a xlink:href="v8config_8h.html" target="_top" xlink:title=" ">
<polygon fill="white" stroke="#666666" points="534,-19.25 474.5,-19.25 474.5,0 534,0 534,-19.25"/>
<text text-anchor="middle" x="504.25" y="-5.75" font-family="Helvetica,sans-Serif" font-size="10.00">v8config.h</text>
</a>
</g>
</g>
<!-- Node6&#45;&gt;Node12 -->
<g id="edge13" class="edge">
<title>Node6&#45;&gt;Node12</title>
<path fill="none" stroke="#63b8ff" d="M273.76,-57.31C316.13,-49.2 390.47,-34.79 463.71,-19.54"/>
<polygon fill="#63b8ff" stroke="#63b8ff" points="463.96,-22.85 473.03,-17.38 462.53,-16 463.96,-22.85"/>
</g>
</g>
</svg>
