<?xml version="1.0" encoding="UTF-8" standalone="no"?>
<!DOCTYPE svg PUBLIC "-//W3C//DTD SVG 1.1//EN"
 "http://www.w3.org/Graphics/SVG/1.1/DTD/svg11.dtd">
<!-- Generated by graphviz version 8.0.5 (20230430.1635)
 -->
<!-- Title: include/v8&#45;statistics.h Pages: 1 -->
<svg width="1280pt" height="525pt"
 viewBox="0.00 0.00 1280.00 524.50" xmlns="http://www.w3.org/2000/svg" xmlns:xlink="http://www.w3.org/1999/xlink">
<g id="graph0" class="graph" transform="scale(1 1) rotate(0) translate(4 520.5)">
<title>include/v8&#45;statistics.h</title>
<!-- Node1 -->
<g id="node1" class="node">
<title>Node1</title>
<g id="a_node1"><a xlink:title=" ">
<polygon fill="#999999" stroke="#666666" points="513.25,-516.5 402.75,-516.5 402.75,-497.25 513.25,-497.25 513.25,-516.5"/>
<text text-anchor="middle" x="458" y="-503" font-family="Helvetica,sans-Serif" font-size="10.00">include/v8&#45;statistics.h</text>
</a>
</g>
</g>
<!-- Node2 -->
<g id="node2" class="node">
<title>Node2</title>
<g id="a_node2"><a xlink:title=" ">
<polygon fill="#e0e0e0" stroke="#999999" points="369.25,-19.25 318.75,-19.25 318.75,0 369.25,0 369.25,-19.25"/>
<text text-anchor="middle" x="344" y="-5.75" font-family="Helvetica,sans-Serif" font-size="10.00">stddef.h</text>
</a>
</g>
</g>
<!-- Node1&#45;&gt;Node2 -->
<g id="edge1" class="edge">
<title>Node1&#45;&gt;Node2</title>
<path fill="none" stroke="#63b8ff" d="M402.45,-501.71C296.51,-492.22 76,-464.42 76,-397.38 76,-397.38 76,-397.38 76,-174.38 76,-67.02 234.53,-27.94 307.74,-15.61"/>
<polygon fill="#63b8ff" stroke="#63b8ff" points="307.98,-18.96 317.3,-13.92 306.88,-12.05 307.98,-18.96"/>
</g>
<!-- Node3 -->
<g id="node3" class="node">
<title>Node3</title>
<g id="a_node3"><a xlink:title=" ">
<polygon fill="#e0e0e0" stroke="#999999" points="152.75,-19.25 105.25,-19.25 105.25,0 152.75,0 152.75,-19.25"/>
<text text-anchor="middle" x="129" y="-5.75" font-family="Helvetica,sans-Serif" font-size="10.00">stdint.h</text>
</a>
</g>
</g>
<!-- Node1&#45;&gt;Node3 -->
<g id="edge2" class="edge">
<title>Node1&#45;&gt;Node3</title>
<path fill="none" stroke="#63b8ff" d="M402.33,-502.6C318.09,-496.98 162.67,-483.89 112,-461.25 72.33,-443.53 38,-440.82 38,-397.38 38,-397.38 38,-397.38 38,-119.12 38,-77.78 77.27,-43.93 104.22,-25.58"/>
<polygon fill="#63b8ff" stroke="#63b8ff" points="105.69,-28.14 112.15,-19.74 101.86,-22.28 105.69,-28.14"/>
</g>
<!-- Node4 -->
<g id="node4" class="node">
<title>Node4</title>
<g id="a_node4"><a xlink:title=" ">
<polygon fill="#e0e0e0" stroke="#999999" points="87.25,-19.25 36.75,-19.25 36.75,0 87.25,0 87.25,-19.25"/>
<text text-anchor="middle" x="62" y="-5.75" font-family="Helvetica,sans-Serif" font-size="10.00">memory</text>
</a>
</g>
</g>
<!-- Node1&#45;&gt;Node4 -->
<g id="edge3" class="edge">
<title>Node1&#45;&gt;Node4</title>
<path fill="none" stroke="#63b8ff" d="M402.3,-504.13C308.01,-500.44 121.5,-489.68 63,-461.25 27.14,-443.82 0,-437.25 0,-397.38 0,-397.38 0,-397.38 0,-119.12 0,-82.65 26.74,-47.29 45.1,-27.31"/>
<polygon fill="#63b8ff" stroke="#63b8ff" points="47.19,-30.14 51.58,-20.5 42.14,-25.3 47.19,-30.14"/>
</g>
<!-- Node5 -->
<g id="node5" class="node">
<title>Node5</title>
<g id="a_node5"><a xlink:title=" ">
<polygon fill="#e0e0e0" stroke="#999999" points="470.25,-185 431.75,-185 431.75,-165.75 470.25,-165.75 470.25,-185"/>
<text text-anchor="middle" x="451" y="-171.5" font-family="Helvetica,sans-Serif" font-size="10.00">utility</text>
</a>
</g>
</g>
<!-- Node1&#45;&gt;Node5 -->
<g id="edge4" class="edge">
<title>Node1&#45;&gt;Node5</title>
<path fill="none" stroke="#63b8ff" d="M452.56,-496.96C442.05,-478.88 420,-436.29 420,-397.38 420,-397.38 420,-397.38 420,-284.88 420,-252.49 432.92,-216.69 442.08,-195.39"/>
<polygon fill="#63b8ff" stroke="#63b8ff" points="445.66,-196.97 446.56,-186.41 439.27,-194.1 445.66,-196.97"/>
</g>
<!-- Node6 -->
<g id="node6" class="node">
<title>Node6</title>
<g id="a_node6"><a xlink:title=" ">
<polygon fill="#e0e0e0" stroke="#999999" points="751.5,-129.75 708.5,-129.75 708.5,-110.5 751.5,-110.5 751.5,-129.75"/>
<text text-anchor="middle" x="730" y="-116.25" font-family="Helvetica,sans-Serif" font-size="10.00">vector</text>
</a>
</g>
</g>
<!-- Node1&#45;&gt;Node6 -->
<g id="edge5" class="edge">
<title>Node1&#45;&gt;Node6</title>
<path fill="none" stroke="#63b8ff" d="M513.36,-500.73C635.2,-486 924.18,-431.45 1031,-240.25 1088.25,-137.78 851.76,-123.22 762.7,-121.33"/>
<polygon fill="#63b8ff" stroke="#63b8ff" points="762.93,-117.82 752.88,-121.15 762.82,-124.82 762.93,-117.82"/>
</g>
<!-- Node7 -->
<g id="node7" class="node">
<title>Node7</title>
<g id="a_node7"><a xlink:href="v8-local-handle_8h.html" target="_top" xlink:title=" ">
<polygon fill="white" stroke="#666666" points="614.38,-185 525.62,-185 525.62,-165.75 614.38,-165.75 614.38,-185"/>
<text text-anchor="middle" x="570" y="-171.5" font-family="Helvetica,sans-Serif" font-size="10.00">v8&#45;local&#45;handle.h</text>
</a>
</g>
</g>
<!-- Node1&#45;&gt;Node7 -->
<g id="edge6" class="edge">
<title>Node1&#45;&gt;Node7</title>
<path fill="none" stroke="#63b8ff" d="M458,-496.87C458,-478.28 458,-434.3 458,-397.38 458,-397.38 458,-397.38 458,-284.88 458,-239.73 505.52,-207.36 538.65,-190.28"/>
<polygon fill="#63b8ff" stroke="#63b8ff" points="539.98,-193.04 547.41,-185.47 536.89,-186.76 539.98,-193.04"/>
</g>
<!-- Node14 -->
<g id="node14" class="node">
<title>Node14</title>
<g id="a_node14"><a xlink:href="v8config_8h.html" target="_top" xlink:title=" ">
<polygon fill="white" stroke="#666666" points="1007.75,-19.25 948.25,-19.25 948.25,0 1007.75,0 1007.75,-19.25"/>
<text text-anchor="middle" x="978" y="-5.75" font-family="Helvetica,sans-Serif" font-size="10.00">v8config.h</text>
</a>
</g>
</g>
<!-- Node1&#45;&gt;Node14 -->
<g id="edge70" class="edge">
<title>Node1&#45;&gt;Node14</title>
<path fill="none" stroke="#63b8ff" d="M513.63,-504.32C697.19,-498.48 1272,-474.05 1272,-397.38 1272,-397.38 1272,-397.38 1272,-119.12 1272,-83.35 1253.54,-73.9 1223,-55.25 1189.31,-34.67 1078.99,-20.74 1018.53,-14.45"/>
<polygon fill="#63b8ff" stroke="#63b8ff" points="1019.16,-10.89 1008.85,-13.36 1018.45,-17.86 1019.16,-10.89"/>
</g>
<!-- Node15 -->
<g id="node15" class="node">
<title>Node15</title>
<g id="a_node15"><a xlink:href="v8-memory-span_8h.html" target="_top" xlink:title=" ">
<polygon fill="white" stroke="#666666" points="774.75,-74.5 679.25,-74.5 679.25,-55.25 774.75,-55.25 774.75,-74.5"/>
<text text-anchor="middle" x="727" y="-61" font-family="Helvetica,sans-Serif" font-size="10.00">v8&#45;memory&#45;span.h</text>
</a>
</g>
</g>
<!-- Node1&#45;&gt;Node15 -->
<g id="edge21" class="edge">
<title>Node1&#45;&gt;Node15</title>
<path fill="none" stroke="#63b8ff" d="M513.47,-503.56C685.1,-495.65 1196,-466.33 1196,-397.38 1196,-397.38 1196,-397.38 1196,-229.62 1196,-143.62 911.35,-92.24 785.57,-73.73"/>
<polygon fill="#63b8ff" stroke="#63b8ff" points="786.39,-70.17 775.99,-72.19 785.38,-77.09 786.39,-70.17"/>
</g>
<!-- Node17 -->
<g id="node17" class="node">
<title>Node17</title>
<g id="a_node17"><a xlink:href="v8-promise_8h.html" target="_top" xlink:title=" ">
<polygon fill="white" stroke="#666666" points="662.75,-461.25 591.25,-461.25 591.25,-442 662.75,-442 662.75,-461.25"/>
<text text-anchor="middle" x="627" y="-447.75" font-family="Helvetica,sans-Serif" font-size="10.00">v8&#45;promise.h</text>
</a>
</g>
</g>
<!-- Node1&#45;&gt;Node17 -->
<g id="edge27" class="edge">
<title>Node1&#45;&gt;Node17</title>
<path fill="none" stroke="#63b8ff" d="M486.67,-496.84C514.47,-488.08 556.86,-474.73 587.78,-464.98"/>
<polygon fill="#63b8ff" stroke="#63b8ff" points="588.7,-468.05 597.19,-461.7 586.6,-461.37 588.7,-468.05"/>
</g>
<!-- Node7&#45;&gt;Node2 -->
<g id="edge7" class="edge">
<title>Node7&#45;&gt;Node2</title>
<path fill="none" stroke="#63b8ff" d="M525.22,-165.8C498.44,-159.12 464.74,-147.86 439,-129.75 400.21,-102.46 369.15,-54.97 354.03,-28.95"/>
<polygon fill="#63b8ff" stroke="#63b8ff" points="356.67,-27.51 348.7,-20.53 350.58,-30.96 356.67,-27.51"/>
</g>
<!-- Node7&#45;&gt;Node6 -->
<g id="edge9" class="edge">
<title>Node7&#45;&gt;Node6</title>
<path fill="none" stroke="#63b8ff" d="M597.14,-165.34C625.09,-156.04 668.63,-141.55 698.18,-131.72"/>
<polygon fill="#63b8ff" stroke="#63b8ff" points="699,-134.8 707.38,-128.32 696.79,-128.16 699,-134.8"/>
</g>
<!-- Node8 -->
<g id="node8" class="node">
<title>Node8</title>
<g id="a_node8"><a xlink:title=" ">
<polygon fill="#e0e0e0" stroke="#999999" points="630.5,-19.25 569.5,-19.25 569.5,0 630.5,0 630.5,-19.25"/>
<text text-anchor="middle" x="600" y="-5.75" font-family="Helvetica,sans-Serif" font-size="10.00">type_traits</text>
</a>
</g>
</g>
<!-- Node7&#45;&gt;Node8 -->
<g id="edge8" class="edge">
<title>Node7&#45;&gt;Node8</title>
<path fill="none" stroke="#63b8ff" d="M571.61,-165.57C576.29,-140.03 589.96,-65.45 596.47,-29.9"/>
<polygon fill="#63b8ff" stroke="#63b8ff" points="600.02,-30.94 598.38,-20.47 593.13,-29.68 600.02,-30.94"/>
</g>
<!-- Node9 -->
<g id="node9" class="node">
<title>Node9</title>
<g id="a_node9"><a xlink:href="v8-handle-base_8h.html" target="_top" xlink:title=" ">
<polygon fill="white" stroke="#666666" points="537.75,-129.75 448.25,-129.75 448.25,-110.5 537.75,-110.5 537.75,-129.75"/>
<text text-anchor="middle" x="493" y="-116.25" font-family="Helvetica,sans-Serif" font-size="10.00">v8&#45;handle&#45;base.h</text>
</a>
</g>
</g>
<!-- Node7&#45;&gt;Node9 -->
<g id="edge10" class="edge">
<title>Node7&#45;&gt;Node9</title>
<path fill="none" stroke="#63b8ff" d="M556.94,-165.34C545.43,-157.39 528.44,-145.64 514.87,-136.25"/>
<polygon fill="#63b8ff" stroke="#63b8ff" points="517.34,-133.01 507.13,-130.2 513.36,-138.77 517.34,-133.01"/>
</g>
<!-- Node10 -->
<g id="node10" class="node">
<title>Node10</title>
<g id="a_node10"><a xlink:href="v8-internal_8h.html" target="_top" xlink:title=" ">
<polygon fill="white" stroke="#666666" points="543.25,-74.5 474.75,-74.5 474.75,-55.25 543.25,-55.25 543.25,-74.5"/>
<text text-anchor="middle" x="509" y="-61" font-family="Helvetica,sans-Serif" font-size="10.00">v8&#45;internal.h</text>
</a>
</g>
</g>
<!-- Node7&#45;&gt;Node10 -->
<g id="edge20" class="edge">
<title>Node7&#45;&gt;Node10</title>
<path fill="none" stroke="#63b8ff" d="M567.83,-165.25C564.53,-152.44 557.52,-128.65 547,-110.5 541.15,-100.42 532.93,-90.42 525.63,-82.45"/>
<polygon fill="#63b8ff" stroke="#63b8ff" points="528.66,-80.51 519.22,-75.7 523.59,-85.35 528.66,-80.51"/>
</g>
<!-- Node9&#45;&gt;Node10 -->
<g id="edge11" class="edge">
<title>Node9&#45;&gt;Node10</title>
<path fill="none" stroke="#63b8ff" d="M495.64,-110.33C497.69,-103.51 500.61,-93.81 503.19,-85.2"/>
<polygon fill="#63b8ff" stroke="#63b8ff" points="506.77,-86.44 506.3,-75.86 500.07,-84.43 506.77,-86.44"/>
</g>
<!-- Node10&#45;&gt;Node2 -->
<g id="edge12" class="edge">
<title>Node10&#45;&gt;Node2</title>
<path fill="none" stroke="#63b8ff" d="M481.01,-54.84C453.13,-45.84 410.21,-31.99 379.85,-22.2"/>
<polygon fill="#63b8ff" stroke="#63b8ff" points="381.27,-18.65 370.68,-18.91 379.12,-25.32 381.27,-18.65"/>
</g>
<!-- Node10&#45;&gt;Node3 -->
<g id="edge13" class="edge">
<title>Node10&#45;&gt;Node3</title>
<path fill="none" stroke="#63b8ff" d="M474.27,-59.01C401.92,-48.87 235.8,-25.59 163.58,-15.47"/>
<polygon fill="#63b8ff" stroke="#63b8ff" points="164.21,-11.89 153.82,-13.96 163.24,-18.82 164.21,-11.89"/>
</g>
<!-- Node10&#45;&gt;Node4 -->
<g id="edge17" class="edge">
<title>Node10&#45;&gt;Node4</title>
<path fill="none" stroke="#63b8ff" d="M474.5,-61.8C404.97,-57.25 242.95,-44.88 97.94,-19.37"/>
<polygon fill="#63b8ff" stroke="#63b8ff" points="99,-15.83 88.54,-17.51 97.76,-22.72 99,-15.83"/>
</g>
<!-- Node10&#45;&gt;Node8 -->
<g id="edge18" class="edge">
<title>Node10&#45;&gt;Node8</title>
<path fill="none" stroke="#63b8ff" d="M524.44,-54.84C538.29,-46.73 558.89,-34.68 575.08,-25.21"/>
<polygon fill="#63b8ff" stroke="#63b8ff" points="576.62,-27.77 583.49,-19.7 573.09,-21.73 576.62,-27.77"/>
</g>
<!-- Node11 -->
<g id="node11" class="node">
<title>Node11</title>
<g id="a_node11"><a xlink:title=" ">
<polygon fill="#e0e0e0" stroke="#999999" points="532.75,-19.25 485.25,-19.25 485.25,0 532.75,0 532.75,-19.25"/>
<text text-anchor="middle" x="509" y="-5.75" font-family="Helvetica,sans-Serif" font-size="10.00">string.h</text>
</a>
</g>
</g>
<!-- Node10&#45;&gt;Node11 -->
<g id="edge14" class="edge">
<title>Node10&#45;&gt;Node11</title>
<path fill="none" stroke="#63b8ff" d="M509,-55.08C509,-48.42 509,-38.99 509,-30.53"/>
<polygon fill="#63b8ff" stroke="#63b8ff" points="512.5,-30.61 509,-20.61 505.5,-30.61 512.5,-30.61"/>
</g>
<!-- Node12 -->
<g id="node12" class="node">
<title>Node12</title>
<g id="a_node12"><a xlink:title=" ">
<polygon fill="#e0e0e0" stroke="#999999" points="451.62,-19.25 406.38,-19.25 406.38,0 451.62,0 451.62,-19.25"/>
<text text-anchor="middle" x="429" y="-5.75" font-family="Helvetica,sans-Serif" font-size="10.00">atomic</text>
</a>
</g>
</g>
<!-- Node10&#45;&gt;Node12 -->
<g id="edge15" class="edge">
<title>Node10&#45;&gt;Node12</title>
<path fill="none" stroke="#63b8ff" d="M495.43,-54.84C483.48,-46.89 465.82,-35.14 451.72,-25.75"/>
<polygon fill="#63b8ff" stroke="#63b8ff" points="453.9,-22.33 443.64,-19.7 450.02,-28.16 453.9,-22.33"/>
</g>
<!-- Node13 -->
<g id="node13" class="node">
<title>Node13</title>
<g id="a_node13"><a xlink:title=" ">
<polygon fill="#e0e0e0" stroke="#999999" points="695,-19.25 649,-19.25 649,0 695,0 695,-19.25"/>
<text text-anchor="middle" x="672" y="-5.75" font-family="Helvetica,sans-Serif" font-size="10.00">iterator</text>
</a>
</g>
</g>
<!-- Node10&#45;&gt;Node13 -->
<g id="edge16" class="edge">
<title>Node10&#45;&gt;Node13</title>
<path fill="none" stroke="#63b8ff" d="M536.65,-54.84C564.72,-45.67 608.22,-31.46 638.29,-21.64"/>
<polygon fill="#63b8ff" stroke="#63b8ff" points="639.29,-24.67 647.71,-18.23 637.12,-18.01 639.29,-24.67"/>
</g>
<!-- Node10&#45;&gt;Node14 -->
<g id="edge19" class="edge">
<title>Node10&#45;&gt;Node14</title>
<path fill="none" stroke="#63b8ff" d="M543.49,-59.96C628.17,-50.34 846.04,-25.61 937.07,-15.27"/>
<polygon fill="#63b8ff" stroke="#63b8ff" points="937.24,-18.66 946.78,-14.06 936.45,-11.71 937.24,-18.66"/>
</g>
<!-- Node15&#45;&gt;Node2 -->
<g id="edge22" class="edge">
<title>Node15&#45;&gt;Node2</title>
<path fill="none" stroke="#63b8ff" d="M678.85,-57.78C614.53,-49.54 497.07,-34.16 397,-19.25 391.55,-18.44 385.79,-17.54 380.16,-16.64"/>
<polygon fill="#63b8ff" stroke="#63b8ff" points="381.02,-13.07 370.59,-14.93 379.9,-19.98 381.02,-13.07"/>
</g>
<!-- Node15&#45;&gt;Node8 -->
<g id="edge25" class="edge">
<title>Node15&#45;&gt;Node8</title>
<path fill="none" stroke="#63b8ff" d="M705.46,-54.84C685.2,-46.35 654.65,-33.54 631.63,-23.89"/>
<polygon fill="#63b8ff" stroke="#63b8ff" points="633.23,-20.34 622.65,-19.7 630.52,-26.8 633.23,-20.34"/>
</g>
<!-- Node15&#45;&gt;Node13 -->
<g id="edge24" class="edge">
<title>Node15&#45;&gt;Node13</title>
<path fill="none" stroke="#63b8ff" d="M717.92,-55.08C710.08,-47.5 698.56,-36.34 689.01,-27.1"/>
<polygon fill="#63b8ff" stroke="#63b8ff" points="691.9,-25.05 682.28,-20.61 687.03,-30.08 691.9,-25.05"/>
</g>
<!-- Node15&#45;&gt;Node14 -->
<g id="edge26" class="edge">
<title>Node15&#45;&gt;Node14</title>
<path fill="none" stroke="#63b8ff" d="M769.86,-54.78C816.79,-44.83 891.46,-28.99 937.45,-19.23"/>
<polygon fill="#63b8ff" stroke="#63b8ff" points="937.87,-22.5 946.93,-17.01 936.42,-15.66 937.87,-22.5"/>
</g>
<!-- Node16 -->
<g id="node16" class="node">
<title>Node16</title>
<g id="a_node16"><a xlink:title=" ">
<polygon fill="#e0e0e0" stroke="#999999" points="750.5,-19.25 713.5,-19.25 713.5,0 750.5,0 750.5,-19.25"/>
<text text-anchor="middle" x="732" y="-5.75" font-family="Helvetica,sans-Serif" font-size="10.00">array</text>
</a>
</g>
</g>
<!-- Node15&#45;&gt;Node16 -->
<g id="edge23" class="edge">
<title>Node15&#45;&gt;Node16</title>
<path fill="none" stroke="#63b8ff" d="M727.83,-55.08C728.45,-48.42 729.34,-38.99 730.13,-30.53"/>
<polygon fill="#63b8ff" stroke="#63b8ff" points="733.71,-30.89 731.16,-20.61 726.74,-30.24 733.71,-30.89"/>
</g>
<!-- Node17&#45;&gt;Node7 -->
<g id="edge28" class="edge">
<title>Node17&#45;&gt;Node7</title>
<path fill="none" stroke="#63b8ff" d="M598.9,-441.55C560.41,-427.15 496,-395.13 496,-342.12 496,-342.12 496,-342.12 496,-284.88 496,-246.6 527.82,-211.87 549.73,-192.49"/>
<polygon fill="#63b8ff" stroke="#63b8ff" points="551.74,-194.52 557.11,-185.38 547.22,-189.18 551.74,-194.52"/>
</g>
<!-- Node17&#45;&gt;Node14 -->
<g id="edge69" class="edge">
<title>Node17&#45;&gt;Node14</title>
<path fill="none" stroke="#63b8ff" d="M663.15,-442.62C793.83,-412.67 1234,-302.42 1234,-176.38 1234,-176.38 1234,-176.38 1234,-119.12 1234,-26.91 1091.45,-11.9 1019.1,-10.22"/>
<polygon fill="#63b8ff" stroke="#63b8ff" points="1019.17,-6.71 1009.12,-10.06 1019.07,-13.71 1019.17,-6.71"/>
</g>
<!-- Node18 -->
<g id="node18" class="node">
<title>Node18</title>
<g id="a_node18"><a xlink:href="v8-object_8h.html" target="_top" xlink:title=" ">
<polygon fill="white" stroke="#666666" points="683.62,-406 620.38,-406 620.38,-386.75 683.62,-386.75 683.62,-406"/>
<text text-anchor="middle" x="652" y="-392.5" font-family="Helvetica,sans-Serif" font-size="10.00">v8&#45;object.h</text>
</a>
</g>
</g>
<!-- Node17&#45;&gt;Node18 -->
<g id="edge29" class="edge">
<title>Node17&#45;&gt;Node18</title>
<path fill="none" stroke="#63b8ff" d="M631.13,-441.83C634.4,-434.86 639.09,-424.87 643.2,-416.12"/>
<polygon fill="#63b8ff" stroke="#63b8ff" points="646.7,-417.9 647.78,-407.36 640.36,-414.92 646.7,-417.9"/>
</g>
<!-- Node18&#45;&gt;Node7 -->
<g id="edge30" class="edge">
<title>Node18&#45;&gt;Node7</title>
<path fill="none" stroke="#63b8ff" d="M646,-386.43C630.91,-363.4 591.41,-299.66 575,-240.25 571.01,-225.79 569.83,-208.83 569.62,-196.03"/>
<polygon fill="#63b8ff" stroke="#63b8ff" points="573.12,-196.24 569.64,-186.24 566.12,-196.23 573.12,-196.24"/>
</g>
<!-- Node18&#45;&gt;Node14 -->
<g id="edge68" class="edge">
<title>Node18&#45;&gt;Node14</title>
<path fill="none" stroke="#63b8ff" d="M683.91,-392.11C759.76,-382.71 952.66,-348.86 1062,-240.25 1104.29,-198.24 1111.08,-168.18 1096,-110.5 1088.88,-83.26 1085.28,-74.78 1065,-55.25 1050.83,-41.6 1031.65,-31.16 1014.9,-23.82"/>
<polygon fill="#63b8ff" stroke="#63b8ff" points="1016.44,-20.25 1005.86,-19.65 1013.75,-26.72 1016.44,-20.25"/>
</g>
<!-- Node19 -->
<g id="node19" class="node">
<title>Node19</title>
<g id="a_node19"><a xlink:href="v8-maybe_8h.html" target="_top" xlink:title=" ">
<polygon fill="white" stroke="#666666" points="665.75,-240.25 600.25,-240.25 600.25,-221 665.75,-221 665.75,-240.25"/>
<text text-anchor="middle" x="633" y="-226.75" font-family="Helvetica,sans-Serif" font-size="10.00">v8&#45;maybe.h</text>
</a>
</g>
</g>
<!-- Node18&#45;&gt;Node19 -->
<g id="edge31" class="edge">
<title>Node18&#45;&gt;Node19</title>
<path fill="none" stroke="#63b8ff" d="M650.98,-386.57C648.03,-361.14 639.44,-287.1 635.29,-251.37"/>
<polygon fill="#63b8ff" stroke="#63b8ff" points="638.66,-251 634.03,-241.47 631.7,-251.81 638.66,-251"/>
</g>
<!-- Node20 -->
<g id="node20" class="node">
<title>Node20</title>
<g id="a_node20"><a xlink:href="v8-persistent-handle_8h.html" target="_top" xlink:title=" ">
<polygon fill="white" stroke="#666666" points="1021.62,-240.25 910.38,-240.25 910.38,-221 1021.62,-221 1021.62,-240.25"/>
<text text-anchor="middle" x="966" y="-226.75" font-family="Helvetica,sans-Serif" font-size="10.00">v8&#45;persistent&#45;handle.h</text>
</a>
</g>
</g>
<!-- Node18&#45;&gt;Node20 -->
<g id="edge36" class="edge">
<title>Node18&#45;&gt;Node20</title>
<path fill="none" stroke="#63b8ff" d="M684.06,-390.24C718.38,-383.95 773.84,-371.51 818,-350.75 856.45,-332.68 862.91,-322.15 896,-295.5 914.89,-280.29 935.23,-261.42 949.09,-248.14"/>
<polygon fill="#63b8ff" stroke="#63b8ff" points="951.06,-251.15 955.82,-241.69 946.19,-246.12 951.06,-251.15"/>
</g>
<!-- Node22 -->
<g id="node22" class="node">
<title>Node22</title>
<g id="a_node22"><a xlink:href="v8-primitive_8h.html" target="_top" xlink:title=" ">
<polygon fill="white" stroke="#666666" points="808.88,-350.75 735.12,-350.75 735.12,-331.5 808.88,-331.5 808.88,-350.75"/>
<text text-anchor="middle" x="772" y="-337.25" font-family="Helvetica,sans-Serif" font-size="10.00">v8&#45;primitive.h</text>
</a>
</g>
</g>
<!-- Node18&#45;&gt;Node22 -->
<g id="edge42" class="edge">
<title>Node18&#45;&gt;Node22</title>
<path fill="none" stroke="#63b8ff" d="M672.36,-386.34C691.32,-377.93 719.85,-365.27 741.52,-355.65"/>
<polygon fill="#63b8ff" stroke="#63b8ff" points="742.82,-358.46 750.54,-351.2 739.98,-352.06 742.82,-358.46"/>
</g>
<!-- Node24 -->
<g id="node24" class="node">
<title>Node24</title>
<g id="a_node24"><a xlink:href="v8-value_8h.html" target="_top" xlink:title=" ">
<polygon fill="white" stroke="#666666" points="762.12,-295.5 701.88,-295.5 701.88,-276.25 762.12,-276.25 762.12,-295.5"/>
<text text-anchor="middle" x="732" y="-282" font-family="Helvetica,sans-Serif" font-size="10.00">v8&#45;value.h</text>
</a>
</g>
</g>
<!-- Node18&#45;&gt;Node24 -->
<g id="edge67" class="edge">
<title>Node18&#45;&gt;Node24</title>
<path fill="none" stroke="#63b8ff" d="M658.55,-386.5C671.73,-368.61 701.7,-327.97 719.01,-304.5"/>
<polygon fill="#63b8ff" stroke="#63b8ff" points="722.25,-307 725.36,-296.88 716.61,-302.85 722.25,-307"/>
</g>
<!-- Node25 -->
<g id="node25" class="node">
<title>Node25</title>
<g id="a_node25"><a xlink:href="v8-traced-handle_8h.html" target="_top" xlink:title=" ">
<polygon fill="white" stroke="#666666" points="370.75,-240.25 275.25,-240.25 275.25,-221 370.75,-221 370.75,-240.25"/>
<text text-anchor="middle" x="323" y="-226.75" font-family="Helvetica,sans-Serif" font-size="10.00">v8&#45;traced&#45;handle.h</text>
</a>
</g>
</g>
<!-- Node18&#45;&gt;Node25 -->
<g id="edge55" class="edge">
<title>Node18&#45;&gt;Node25</title>
<path fill="none" stroke="#63b8ff" d="M620.05,-386.7C592.83,-378.82 553.02,-366.09 520,-350.75 453.07,-319.66 380.21,-271.45 344.79,-246.98"/>
<polygon fill="#63b8ff" stroke="#63b8ff" points="347.03,-243.59 336.82,-240.75 343.03,-249.33 347.03,-243.59"/>
</g>
<!-- Node19&#45;&gt;Node5 -->
<g id="edge33" class="edge">
<title>Node19&#45;&gt;Node5</title>
<path fill="none" stroke="#63b8ff" d="M602.13,-220.59C568.32,-210.7 514.48,-194.95 481.02,-185.16"/>
<polygon fill="#63b8ff" stroke="#63b8ff" points="482.09,-181.53 471.51,-182.08 480.13,-188.25 482.09,-181.53"/>
</g>
<!-- Node19&#45;&gt;Node8 -->
<g id="edge32" class="edge">
<title>Node19&#45;&gt;Node8</title>
<path fill="none" stroke="#63b8ff" d="M641.77,-220.84C654.77,-208.02 680.2,-183.76 704,-165.75 727.89,-147.67 746.54,-155.99 761,-129.75 765.13,-122.26 765.81,-117.58 761,-110.5 736.55,-74.53 706.89,-97.54 670,-74.5 648.97,-61.37 628.44,-41.56 615.11,-27.49"/>
<polygon fill="#63b8ff" stroke="#63b8ff" points="618.16,-25.54 608.8,-20.58 613.02,-30.3 618.16,-25.54"/>
</g>
<!-- Node19&#45;&gt;Node10 -->
<g id="edge34" class="edge">
<title>Node19&#45;&gt;Node10</title>
<path fill="none" stroke="#63b8ff" d="M603.51,-220.55C579.52,-212.64 545.15,-200.08 517,-185 498.28,-174.97 448.76,-148.62 439,-129.75 428.01,-108.49 452.11,-90.77 474.97,-79.43"/>
<polygon fill="#63b8ff" stroke="#63b8ff" points="476.32,-82.2 483.93,-74.82 473.38,-75.84 476.32,-82.2"/>
</g>
<!-- Node19&#45;&gt;Node14 -->
<g id="edge35" class="edge">
<title>Node19&#45;&gt;Node14</title>
<path fill="none" stroke="#63b8ff" d="M648.17,-220.54C662.69,-211.74 685.11,-197.87 704,-185 784.31,-130.27 796.21,-104.49 880,-55.25 900.67,-43.1 925.23,-31.93 944.59,-23.8"/>
<polygon fill="#63b8ff" stroke="#63b8ff" points="945.84,-26.65 953.75,-19.61 943.17,-20.18 945.84,-26.65"/>
</g>
<!-- Node20&#45;&gt;Node7 -->
<g id="edge38" class="edge">
<title>Node20&#45;&gt;Node7</title>
<path fill="none" stroke="#63b8ff" d="M910.1,-222.11C834.51,-211.94 700.51,-193.93 625.25,-183.81"/>
<polygon fill="#63b8ff" stroke="#63b8ff" points="625.97,-180.24 615.59,-182.37 625.03,-187.17 625.97,-180.24"/>
</g>
<!-- Node20&#45;&gt;Node10 -->
<g id="edge37" class="edge">
<title>Node20&#45;&gt;Node10</title>
<path fill="none" stroke="#63b8ff" d="M934.99,-220.6C911.12,-212.95 877.78,-200.72 851,-185 806.22,-158.71 808.13,-132.3 761,-110.5 693.57,-79.3 606.7,-69.82 554.56,-67"/>
<polygon fill="#63b8ff" stroke="#63b8ff" points="554.83,-63.46 544.67,-66.48 554.49,-70.45 554.83,-63.46"/>
</g>
<!-- Node20&#45;&gt;Node14 -->
<g id="edge41" class="edge">
<title>Node20&#45;&gt;Node14</title>
<path fill="none" stroke="#63b8ff" d="M1006.73,-220.51C1025.77,-213.99 1046.69,-203.05 1058,-185 1092.25,-130.33 1028.87,-58.56 996,-26.87"/>
<polygon fill="#63b8ff" stroke="#63b8ff" points="998.69,-24.66 989,-20.37 993.9,-29.77 998.69,-24.66"/>
</g>
<!-- Node21 -->
<g id="node21" class="node">
<title>Node21</title>
<g id="a_node21"><a xlink:href="v8-weak-callback-info_8h.html" target="_top" xlink:title=" ">
<polygon fill="white" stroke="#666666" points="978,-185 860,-185 860,-165.75 978,-165.75 978,-185"/>
<text text-anchor="middle" x="919" y="-171.5" font-family="Helvetica,sans-Serif" font-size="10.00">v8&#45;weak&#45;callback&#45;info.h</text>
</a>
</g>
</g>
<!-- Node20&#45;&gt;Node21 -->
<g id="edge39" class="edge">
<title>Node20&#45;&gt;Node21</title>
<path fill="none" stroke="#63b8ff" d="M958.24,-220.83C951.68,-213.4 942.09,-202.54 934.04,-193.41"/>
<polygon fill="#63b8ff" stroke="#63b8ff" points="937.17,-191.54 927.93,-186.36 931.92,-196.17 937.17,-191.54"/>
</g>
<!-- Node21&#45;&gt;Node14 -->
<g id="edge40" class="edge">
<title>Node21&#45;&gt;Node14</title>
<path fill="none" stroke="#63b8ff" d="M922.17,-165.57C931.42,-139.92 958.48,-64.8 971.22,-29.44"/>
<polygon fill="#63b8ff" stroke="#63b8ff" points="974.72,-31.07 974.81,-20.47 968.13,-28.69 974.72,-31.07"/>
</g>
<!-- Node22&#45;&gt;Node7 -->
<g id="edge47" class="edge">
<title>Node22&#45;&gt;Node7</title>
<path fill="none" stroke="#63b8ff" d="M741.49,-331.09C701.34,-317.69 631.2,-288.74 591,-240.25 580.51,-227.6 575.21,-209.55 572.56,-195.86"/>
<polygon fill="#63b8ff" stroke="#63b8ff" points="575.89,-195.52 570.85,-186.2 568.98,-196.63 575.89,-195.52"/>
</g>
<!-- Node22&#45;&gt;Node10 -->
<g id="edge46" class="edge">
<title>Node22&#45;&gt;Node10</title>
<path fill="none" stroke="#63b8ff" d="M788.49,-331.05C821.69,-311.57 891.12,-264.03 863,-221 844.23,-192.28 629.54,-110.45 543.93,-78.69"/>
<polygon fill="#63b8ff" stroke="#63b8ff" points="545.27,-75.09 534.68,-74.9 542.85,-81.65 545.27,-75.09"/>
</g>
<!-- Node22&#45;&gt;Node14 -->
<g id="edge54" class="edge">
<title>Node22&#45;&gt;Node14</title>
<path fill="none" stroke="#63b8ff" d="M809.32,-336.29C881.4,-326.51 1036.09,-293.16 1075,-185 1095.1,-129.11 1083.65,-98.55 1043,-55.25 1031.88,-43.4 1017.09,-32.94 1004.43,-25.14"/>
<polygon fill="#63b8ff" stroke="#63b8ff" points="1006.65,-21.79 996.26,-19.7 1003.08,-27.81 1006.65,-21.79"/>
</g>
<!-- Node23 -->
<g id="node23" class="node">
<title>Node23</title>
<g id="a_node23"><a xlink:href="v8-data_8h.html" target="_top" xlink:title=" ">
<polygon fill="white" stroke="#666666" points="853.88,-240.25 798.12,-240.25 798.12,-221 853.88,-221 853.88,-240.25"/>
<text text-anchor="middle" x="826" y="-226.75" font-family="Helvetica,sans-Serif" font-size="10.00">v8&#45;data.h</text>
</a>
</g>
</g>
<!-- Node22&#45;&gt;Node23 -->
<g id="edge43" class="edge">
<title>Node22&#45;&gt;Node23</title>
<path fill="none" stroke="#63b8ff" d="M776.42,-331.25C785.2,-313.6 805.01,-273.8 816.76,-250.2"/>
<polygon fill="#63b8ff" stroke="#63b8ff" points="820.2,-252.14 821.52,-241.63 813.93,-249.02 820.2,-252.14"/>
</g>
<!-- Node22&#45;&gt;Node24 -->
<g id="edge48" class="edge">
<title>Node22&#45;&gt;Node24</title>
<path fill="none" stroke="#63b8ff" d="M765.39,-331.33C759.93,-324.05 751.99,-313.48 745.22,-304.48"/>
<polygon fill="#63b8ff" stroke="#63b8ff" points="747.55,-302.75 738.75,-296.86 741.96,-306.96 747.55,-302.75"/>
</g>
<!-- Node23&#45;&gt;Node7 -->
<g id="edge44" class="edge">
<title>Node23&#45;&gt;Node7</title>
<path fill="none" stroke="#63b8ff" d="M797.63,-223.72C755.85,-215.03 677.03,-198.64 624,-187.61"/>
<polygon fill="#63b8ff" stroke="#63b8ff" points="624.94,-184.02 614.43,-185.41 623.51,-190.87 624.94,-184.02"/>
</g>
<!-- Node23&#45;&gt;Node14 -->
<g id="edge45" class="edge">
<title>Node23&#45;&gt;Node14</title>
<path fill="none" stroke="#63b8ff" d="M854.23,-225.91C895.98,-219.78 970.98,-206.07 987,-185 1022.12,-138.83 999.7,-64.24 986.15,-29.53"/>
<polygon fill="#63b8ff" stroke="#63b8ff" points="989.02,-28.31 981.98,-20.38 982.54,-30.96 989.02,-28.31"/>
</g>
<!-- Node24&#45;&gt;Node7 -->
<g id="edge51" class="edge">
<title>Node24&#45;&gt;Node7</title>
<path fill="none" stroke="#63b8ff" d="M725.98,-275.9C716.52,-262.4 696.98,-236.76 675,-221 655.67,-207.14 631.38,-196.47 611.02,-189.04"/>
<polygon fill="#63b8ff" stroke="#63b8ff" points="612.38,-185.45 601.79,-185.45 610.07,-192.06 612.38,-185.45"/>
</g>
<!-- Node24&#45;&gt;Node10 -->
<g id="edge50" class="edge">
<title>Node24&#45;&gt;Node10</title>
<path fill="none" stroke="#63b8ff" d="M728.73,-275.95C723.69,-262.96 713.11,-238.48 699,-221 649.42,-159.57 572.03,-105.77 533.09,-80.76"/>
<polygon fill="#63b8ff" stroke="#63b8ff" points="535.16,-77.29 524.84,-74.89 531.41,-83.2 535.16,-77.29"/>
</g>
<!-- Node24&#45;&gt;Node14 -->
<g id="edge53" class="edge">
<title>Node24&#45;&gt;Node14</title>
<path fill="none" stroke="#63b8ff" d="M740.11,-275.77C751.15,-263.37 771.55,-240.49 789,-221 853.61,-148.84 930.88,-62.96 962.93,-27.36"/>
<polygon fill="#63b8ff" stroke="#63b8ff" points="964.98,-30.21 969.07,-20.43 959.78,-25.52 964.98,-30.21"/>
</g>
<!-- Node24&#45;&gt;Node19 -->
<g id="edge52" class="edge">
<title>Node24&#45;&gt;Node19</title>
<path fill="none" stroke="#63b8ff" d="M715.21,-275.84C699.85,-267.58 676.88,-255.23 659.12,-245.68"/>
<polygon fill="#63b8ff" stroke="#63b8ff" points="661.34,-242.36 650.88,-240.7 658.03,-248.52 661.34,-242.36"/>
</g>
<!-- Node24&#45;&gt;Node23 -->
<g id="edge49" class="edge">
<title>Node24&#45;&gt;Node23</title>
<path fill="none" stroke="#63b8ff" d="M747.95,-275.84C762.4,-267.66 783.93,-255.46 800.73,-245.94"/>
<polygon fill="#63b8ff" stroke="#63b8ff" points="802,-248.68 808.98,-240.7 798.55,-242.59 802,-248.68"/>
</g>
<!-- Node25&#45;&gt;Node2 -->
<g id="edge56" class="edge">
<title>Node25&#45;&gt;Node2</title>
<path fill="none" stroke="#63b8ff" d="M274.98,-222.47C252.48,-216.45 227.67,-205.37 214,-185 181.86,-137.12 180.49,-102.18 214,-55.25 235.12,-25.67 277.12,-15.49 307.68,-12.1"/>
<polygon fill="#63b8ff" stroke="#63b8ff" points="307.72,-15.52 317.36,-11.13 307.09,-8.55 307.72,-15.52"/>
</g>
<!-- Node25&#45;&gt;Node3 -->
<g id="edge57" class="edge">
<title>Node25&#45;&gt;Node3</title>
<path fill="none" stroke="#63b8ff" d="M274.99,-222.12C249.63,-215.96 219.59,-204.85 199,-185 154.06,-141.67 137.19,-65.68 131.54,-30.07"/>
<polygon fill="#63b8ff" stroke="#63b8ff" points="134.93,-30.04 130.03,-20.65 128,-31.05 134.93,-30.04"/>
</g>
<!-- Node25&#45;&gt;Node4 -->
<g id="edge60" class="edge">
<title>Node25&#45;&gt;Node4</title>
<path fill="none" stroke="#63b8ff" d="M274.89,-223.09C244.98,-217.11 207.02,-205.87 179,-185 122.54,-142.95 84.69,-65.12 69.49,-29.42"/>
<polygon fill="#63b8ff" stroke="#63b8ff" points="72.41,-28.31 65.36,-20.4 65.94,-30.98 72.41,-28.31"/>
</g>
<!-- Node25&#45;&gt;Node5 -->
<g id="edge62" class="edge">
<title>Node25&#45;&gt;Node5</title>
<path fill="none" stroke="#63b8ff" d="M344.71,-220.59C365.74,-211.84 397.8,-198.51 421.21,-188.77"/>
<polygon fill="#63b8ff" stroke="#63b8ff" points="422.4,-191.65 430.28,-184.58 419.71,-185.19 422.4,-191.65"/>
</g>
<!-- Node25&#45;&gt;Node7 -->
<g id="edge64" class="edge">
<title>Node25&#45;&gt;Node7</title>
<path fill="none" stroke="#63b8ff" d="M365.18,-220.53C407.27,-211.46 472.06,-197.49 517.47,-187.7"/>
<polygon fill="#63b8ff" stroke="#63b8ff" points="517.96,-190.96 526.99,-185.43 516.48,-184.12 517.96,-190.96"/>
</g>
<!-- Node25&#45;&gt;Node8 -->
<g id="edge61" class="edge">
<title>Node25&#45;&gt;Node8</title>
<path fill="none" stroke="#63b8ff" d="M338.83,-220.64C352.2,-212.52 371.31,-199.62 385,-185 431.46,-135.38 412.59,-97.31 466,-55.25 492.9,-34.06 530.33,-22.71 558.8,-16.77"/>
<polygon fill="#63b8ff" stroke="#63b8ff" points="559.08,-20.09 568.23,-14.75 557.74,-13.22 559.08,-20.09"/>
</g>
<!-- Node25&#45;&gt;Node10 -->
<g id="edge63" class="edge">
<title>Node25&#45;&gt;Node10</title>
<path fill="none" stroke="#63b8ff" d="M312.33,-220.65C298.63,-208.02 277.98,-184.44 290,-165.75 328.3,-106.19 411.84,-81.72 463.96,-71.98"/>
<polygon fill="#63b8ff" stroke="#63b8ff" points="464.33,-75.29 473.58,-70.12 463.12,-68.4 464.33,-75.29"/>
</g>
<!-- Node25&#45;&gt;Node12 -->
<g id="edge59" class="edge">
<title>Node25&#45;&gt;Node12</title>
<path fill="none" stroke="#63b8ff" d="M310.97,-220.51C301.35,-212.39 288.58,-199.58 283,-185 279.94,-177.01 280.51,-173.94 283,-165.75 302.74,-100.78 369.26,-49.22 405.31,-25.24"/>
<polygon fill="#63b8ff" stroke="#63b8ff" points="406.7,-27.86 413.19,-19.49 402.89,-21.99 406.7,-27.86"/>
</g>
<!-- Node25&#45;&gt;Node14 -->
<g id="edge66" class="edge">
<title>Node25&#45;&gt;Node14</title>
<path fill="none" stroke="#63b8ff" d="M320.18,-220.54C316.67,-207.35 312.34,-182.63 323,-165.75 353.49,-117.46 384.03,-125.96 439,-110.5 587.4,-68.75 633.25,-106.79 784,-74.5 791.88,-72.81 886.48,-41.28 940.61,-23.16"/>
<polygon fill="#63b8ff" stroke="#63b8ff" points="941.48,-26.23 949.85,-19.73 939.26,-19.59 941.48,-26.23"/>
</g>
<!-- Node25&#45;&gt;Node21 -->
<g id="edge65" class="edge">
<title>Node25&#45;&gt;Node21</title>
<path fill="none" stroke="#63b8ff" d="M371.02,-225.33C476.03,-215.95 726.48,-193.58 849.04,-182.63"/>
<polygon fill="#63b8ff" stroke="#63b8ff" points="849.13,-186.04 858.78,-181.67 848.5,-179.07 849.13,-186.04"/>
</g>
<!-- Node26 -->
<g id="node26" class="node">
<title>Node26</title>
<g id="a_node26"><a xlink:title=" ">
<polygon fill="#e0e0e0" stroke="#999999" points="376.25,-185 331.75,-185 331.75,-165.75 376.25,-165.75 376.25,-185"/>
<text text-anchor="middle" x="354" y="-171.5" font-family="Helvetica,sans-Serif" font-size="10.00">stdio.h</text>
</a>
</g>
</g>
<!-- Node25&#45;&gt;Node26 -->
<g id="edge58" class="edge">
<title>Node25&#45;&gt;Node26</title>
<path fill="none" stroke="#63b8ff" d="M328.12,-220.83C332.22,-213.78 338.12,-203.65 343.25,-194.83"/>
<polygon fill="#63b8ff" stroke="#63b8ff" points="346.76,-196.76 348.77,-186.36 340.71,-193.24 346.76,-196.76"/>
</g>
</g>
</svg>
