<?xml version="1.0" encoding="UTF-8" standalone="no"?>
<!DOCTYPE svg PUBLIC "-//W3C//DTD SVG 1.1//EN"
 "http://www.w3.org/Graphics/SVG/1.1/DTD/svg11.dtd">
<!-- Generated by graphviz version 8.0.5 (20230430.1635)
 -->
<!-- Title: v8::Local&lt; T &gt; Pages: 1 -->
<svg width="371pt" height="304pt"
 viewBox="0.00 0.00 370.75 303.50" xmlns="http://www.w3.org/2000/svg" xmlns:xlink="http://www.w3.org/1999/xlink">
<g id="graph0" class="graph" transform="scale(1 1) rotate(0) translate(4 299.5)">
<title>v8::Local&lt; T &gt;</title>
<!-- Node1 -->
<g id="node1" class="node">
<title>Node1</title>
<g id="a_node1"><a xlink:title=" ">
<polygon fill="#999999" stroke="#666666" points="77.5,-159.88 0,-159.88 0,-140.62 77.5,-140.62 77.5,-159.88"/>
<text text-anchor="middle" x="38.75" y="-146.38" font-family="Helvetica,sans-Serif" font-size="10.00">v8::Local&lt; T &gt;</text>
</a>
</g>
</g>
<!-- Node2 -->
<g id="node2" class="node">
<title>Node2</title>
<g id="a_node2"><a xlink:href="classv8_1_1Local.html" target="_top" xlink:title=" ">
<polygon fill="white" stroke="#666666" points="343.25,-289.88 231.25,-289.88 231.25,-270.62 343.25,-270.62 343.25,-289.88"/>
<text text-anchor="middle" x="287.25" y="-276.38" font-family="Helvetica,sans-Serif" font-size="10.00">v8::Local&lt; v8::String &gt;</text>
</a>
</g>
</g>
<!-- Node1&#45;&gt;Node2 -->
<g id="edge1" class="edge">
<title>Node1&#45;&gt;Node2</title>
<path fill="none" stroke="orange" stroke-dasharray="5,2" d="M44.69,-170.78C51.67,-194.97 66.87,-234.36 95.5,-254.25 134.89,-281.61 190.06,-286.47 230.94,-285.45"/>
<polygon fill="orange" stroke="orange" points="47.86,-170.05 41.91,-161.28 41.09,-171.85 47.86,-170.05"/>
<text text-anchor="middle" x="144.62" y="-286" font-family="Helvetica,sans-Serif" font-size="10.00"> &lt; v8::String &gt;</text>
</g>
<!-- Node3 -->
<g id="node3" class="node">
<title>Node3</title>
<g id="a_node3"><a xlink:href="classv8_1_1Local.html" target="_top" xlink:title=" ">
<polygon fill="white" stroke="#666666" points="347,-252.88 227.5,-252.88 227.5,-233.62 347,-233.62 347,-252.88"/>
<text text-anchor="middle" x="287.25" y="-239.38" font-family="Helvetica,sans-Serif" font-size="10.00">v8::Local&lt; v8::Context &gt;</text>
</a>
</g>
</g>
<!-- Node1&#45;&gt;Node3 -->
<g id="edge2" class="edge">
<title>Node1&#45;&gt;Node3</title>
<path fill="none" stroke="orange" stroke-dasharray="5,2" d="M51.54,-168.74C61.5,-182.74 77.07,-201.22 95.5,-211.25 135.91,-233.24 187.7,-240.85 227.11,-243.19"/>
<polygon fill="orange" stroke="orange" points="54.08,-167.24 45.58,-160.92 48.28,-171.17 54.08,-167.24"/>
<text text-anchor="middle" x="144.62" y="-241" font-family="Helvetica,sans-Serif" font-size="10.00"> &lt; v8::Context &gt;</text>
</g>
<!-- Node4 -->
<g id="node4" class="node">
<title>Node4</title>
<g id="a_node4"><a xlink:href="classv8_1_1Local.html" target="_top" xlink:title=" ">
<polygon fill="white" stroke="#666666" points="335.38,-215.88 239.12,-215.88 239.12,-196.62 335.38,-196.62 335.38,-215.88"/>
<text text-anchor="middle" x="287.25" y="-202.38" font-family="Helvetica,sans-Serif" font-size="10.00">v8::Local&lt; Value &gt;</text>
</a>
</g>
</g>
<!-- Node1&#45;&gt;Node4 -->
<g id="edge3" class="edge">
<title>Node1&#45;&gt;Node4</title>
<path fill="none" stroke="orange" stroke-dasharray="5,2" d="M67.5,-165.06C76.26,-169.22 86.1,-173.38 95.5,-176.25 143.11,-190.78 199.67,-198.55 238.78,-202.51"/>
<polygon fill="orange" stroke="orange" points="69.33,-161.56 58.82,-160.26 66.22,-167.83 69.33,-161.56"/>
<text text-anchor="middle" x="144.62" y="-198" font-family="Helvetica,sans-Serif" font-size="10.00"> &lt; Value &gt;</text>
</g>
<!-- Node5 -->
<g id="node5" class="node">
<title>Node5</title>
<g id="a_node5"><a xlink:href="classv8_1_1Local.html" target="_top" xlink:title=" ">
<polygon fill="white" stroke="#666666" points="342.88,-178.88 231.62,-178.88 231.62,-159.62 342.88,-159.62 342.88,-178.88"/>
<text text-anchor="middle" x="287.25" y="-165.38" font-family="Helvetica,sans-Serif" font-size="10.00">v8::Local&lt; v8::Value &gt;</text>
</a>
</g>
</g>
<!-- Node1&#45;&gt;Node5 -->
<g id="edge4" class="edge">
<title>Node1&#45;&gt;Node5</title>
<path fill="none" stroke="orange" stroke-dasharray="5,2" d="M88.85,-154.03C130.01,-157.21 188.73,-161.73 231.42,-165.02"/>
<polygon fill="orange" stroke="orange" points="89.23,-150.48 79,-153.2 88.7,-157.46 89.23,-150.48"/>
<text text-anchor="middle" x="144.62" y="-163" font-family="Helvetica,sans-Serif" font-size="10.00"> &lt; v8::Value &gt;</text>
</g>
<!-- Node6 -->
<g id="node6" class="node">
<title>Node6</title>
<g id="a_node6"><a xlink:href="classv8_1_1Local.html" target="_top" xlink:title=" ">
<polygon fill="white" stroke="#666666" points="362.75,-141.88 211.75,-141.88 211.75,-122.62 362.75,-122.62 362.75,-141.88"/>
<text text-anchor="middle" x="287.25" y="-128.38" font-family="Helvetica,sans-Serif" font-size="10.00">v8::Local&lt; v8::UnboundScript &gt;</text>
</a>
</g>
</g>
<!-- Node1&#45;&gt;Node6 -->
<g id="edge5" class="edge">
<title>Node1&#45;&gt;Node6</title>
<path fill="none" stroke="orange" stroke-dasharray="5,2" d="M84.42,-137.88C88.15,-137.13 91.88,-136.49 95.5,-136 133.57,-130.83 176.31,-129.58 211.66,-129.75"/>
<polygon fill="orange" stroke="orange" points="84.01,-134.6 75,-140.18 85.52,-141.44 84.01,-134.6"/>
<text text-anchor="middle" x="144.62" y="-137" font-family="Helvetica,sans-Serif" font-size="10.00"> &lt; v8::UnboundScript &gt;</text>
</g>
<!-- Node7 -->
<g id="node7" class="node">
<title>Node7</title>
<g id="a_node7"><a xlink:href="classv8_1_1Local.html" target="_top" xlink:title=" ">
<polygon fill="white" stroke="#666666" points="336.12,-104.88 238.38,-104.88 238.38,-85.62 336.12,-85.62 336.12,-104.88"/>
<text text-anchor="middle" x="287.25" y="-91.38" font-family="Helvetica,sans-Serif" font-size="10.00">v8::Local&lt; Name &gt;</text>
</a>
</g>
</g>
<!-- Node1&#45;&gt;Node7 -->
<g id="edge6" class="edge">
<title>Node1&#45;&gt;Node7</title>
<path fill="none" stroke="orange" stroke-dasharray="5,2" d="M59.7,-133.92C69.82,-126.55 82.65,-118.5 95.5,-114 142.13,-97.65 198.85,-93.96 238.26,-93.74"/>
<polygon fill="orange" stroke="orange" points="58.08,-131.52 52.26,-140.37 62.33,-137.08 58.08,-131.52"/>
<text text-anchor="middle" x="144.62" y="-115" font-family="Helvetica,sans-Serif" font-size="10.00"> &lt; Name &gt;</text>
</g>
<!-- Node8 -->
<g id="node8" class="node">
<title>Node8</title>
<g id="a_node8"><a xlink:href="classv8_1_1Local.html" target="_top" xlink:title=" ">
<polygon fill="white" stroke="#666666" points="348.5,-67.88 226,-67.88 226,-48.62 348.5,-48.62 348.5,-67.88"/>
<text text-anchor="middle" x="287.25" y="-54.38" font-family="Helvetica,sans-Serif" font-size="10.00">v8::Local&lt; v8::Promise &gt;</text>
</a>
</g>
</g>
<!-- Node1&#45;&gt;Node8 -->
<g id="edge7" class="edge">
<title>Node1&#45;&gt;Node8</title>
<path fill="none" stroke="orange" stroke-dasharray="5,2" d="M49.41,-130.97C58.78,-114.46 74.64,-91.58 95.5,-80 135.13,-58 186.49,-53.24 225.93,-53.6"/>
<polygon fill="orange" stroke="orange" points="46.07,-128.8 44.42,-139.26 52.23,-132.1 46.07,-128.8"/>
<text text-anchor="middle" x="144.62" y="-81" font-family="Helvetica,sans-Serif" font-size="10.00"> &lt; v8::Promise &gt;</text>
</g>
<!-- Node9 -->
<g id="node9" class="node">
<title>Node9</title>
<g id="a_node9"><a xlink:href="classv8_1_1Local.html" target="_top" xlink:title=" ">
<polygon fill="white" stroke="#666666" points="345.5,-30.5 229,-30.5 229,0 345.5,0 345.5,-30.5"/>
<text text-anchor="start" x="237" y="-17" font-family="Helvetica,sans-Serif" font-size="10.00">v8::Local&lt; v8::Primitive</text>
<text text-anchor="middle" x="287.25" y="-5.75" font-family="Helvetica,sans-Serif" font-size="10.00">Array &gt;</text>
</a>
</g>
</g>
<!-- Node1&#45;&gt;Node9 -->
<g id="edge8" class="edge">
<title>Node1&#45;&gt;Node9</title>
<path fill="none" stroke="orange" stroke-dasharray="5,2" d="M43.86,-129.75C50.17,-104.01 64.9,-60.62 95.5,-39 133.93,-11.85 187.89,-7.4 228.62,-8.89"/>
<polygon fill="orange" stroke="orange" points="40.29,-128.66 41.52,-139.19 47.12,-130.19 40.29,-128.66"/>
<text text-anchor="middle" x="144.62" y="-41" font-family="Helvetica,sans-Serif" font-size="10.00"> &lt; v8::PrimitiveArray &gt;</text>
</g>
</g>
</svg>
