<?xml version="1.0" encoding="UTF-8" standalone="no"?>
<!DOCTYPE svg PUBLIC "-//W3C//DTD SVG 1.1//EN"
 "http://www.w3.org/Graphics/SVG/1.1/DTD/svg11.dtd">
<!-- Generated by graphviz version 8.0.5 (20230430.1635)
 -->
<!-- Title: include/v8&#45;util.h Pages: 1 -->
<svg width="559pt" height="138pt"
 viewBox="0.00 0.00 558.62 137.75" xmlns="http://www.w3.org/2000/svg" xmlns:xlink="http://www.w3.org/1999/xlink">
<g id="graph0" class="graph" transform="scale(1 1) rotate(0) translate(4 133.75)">
<title>include/v8&#45;util.h</title>
<!-- Node1 -->
<g id="node1" class="node">
<title>Node1</title>
<g id="a_node1"><a xlink:title=" ">
<polygon fill="#999999" stroke="#666666" points="487,-129.75 403.5,-129.75 403.5,-110.5 487,-110.5 487,-129.75"/>
<text text-anchor="middle" x="445.25" y="-116.25" font-family="Helvetica,sans-Serif" font-size="10.00">include/v8&#45;util.h</text>
</a>
</g>
</g>
<!-- Node2 -->
<g id="node2" class="node">
<title>Node2</title>
<g id="a_node2"><a xlink:href="v8_8h.html" target="_top" xlink:title=" ">
<polygon fill="white" stroke="#666666" points="302.25,-74.5 268.25,-74.5 268.25,-55.25 302.25,-55.25 302.25,-74.5"/>
<text text-anchor="middle" x="285.25" y="-61" font-family="Helvetica,sans-Serif" font-size="10.00">v8.h</text>
</a>
</g>
</g>
<!-- Node1&#45;&gt;Node2 -->
<g id="edge1" class="edge">
<title>Node1&#45;&gt;Node2</title>
<path fill="none" stroke="#63b8ff" d="M418.11,-110.09C388.86,-100.36 342.54,-84.94 313.04,-75.12"/>
<polygon fill="#63b8ff" stroke="#63b8ff" points="314.22,-71.5 303.63,-71.66 312.01,-78.14 314.22,-71.5"/>
</g>
<!-- Node8 -->
<g id="node8" class="node">
<title>Node8</title>
<g id="a_node8"><a xlink:title=" ">
<polygon fill="#e0e0e0" stroke="#999999" points="529.75,-19.25 486.75,-19.25 486.75,0 529.75,0 529.75,-19.25"/>
<text text-anchor="middle" x="508.25" y="-5.75" font-family="Helvetica,sans-Serif" font-size="10.00">vector</text>
</a>
</g>
</g>
<!-- Node1&#45;&gt;Node8 -->
<g id="edge12" class="edge">
<title>Node1&#45;&gt;Node8</title>
<path fill="none" stroke="#63b8ff" d="M441.21,-110.23C435.98,-97.28 428.59,-72.86 438.25,-55.25 446.53,-40.16 462.32,-29.43 476.81,-22.29"/>
<polygon fill="#63b8ff" stroke="#63b8ff" points="477.85,-25.21 485.53,-17.9 474.97,-18.83 477.85,-25.21"/>
</g>
<!-- Node11 -->
<g id="node11" class="node">
<title>Node11</title>
<g id="a_node11"><a xlink:title=" ">
<polygon fill="#e0e0e0" stroke="#999999" points="497.5,-74.5 447,-74.5 447,-55.25 497.5,-55.25 497.5,-74.5"/>
<text text-anchor="middle" x="472.25" y="-61" font-family="Helvetica,sans-Serif" font-size="10.00">assert.h</text>
</a>
</g>
</g>
<!-- Node1&#45;&gt;Node11 -->
<g id="edge10" class="edge">
<title>Node1&#45;&gt;Node11</title>
<path fill="none" stroke="#63b8ff" d="M449.71,-110.33C453.24,-103.36 458.31,-93.37 462.74,-84.62"/>
<polygon fill="#63b8ff" stroke="#63b8ff" points="466.29,-86.36 467.69,-75.86 460.05,-83.2 466.29,-86.36"/>
</g>
<!-- Node12 -->
<g id="node12" class="node">
<title>Node12</title>
<g id="a_node12"><a xlink:title=" ">
<polygon fill="#e0e0e0" stroke="#999999" points="550.62,-74.5 515.88,-74.5 515.88,-55.25 550.62,-55.25 550.62,-74.5"/>
<text text-anchor="middle" x="533.25" y="-61" font-family="Helvetica,sans-Serif" font-size="10.00">map</text>
</a>
</g>
</g>
<!-- Node1&#45;&gt;Node12 -->
<g id="edge11" class="edge">
<title>Node1&#45;&gt;Node12</title>
<path fill="none" stroke="#63b8ff" d="M460.18,-110.09C473.58,-101.98 493.49,-89.93 509.15,-80.46"/>
<polygon fill="#63b8ff" stroke="#63b8ff" points="510.51,-83.12 517.25,-74.95 506.88,-77.14 510.51,-83.12"/>
</g>
<!-- Node3 -->
<g id="node3" class="node">
<title>Node3</title>
<g id="a_node3"><a xlink:title=" ">
<polygon fill="#e0e0e0" stroke="#999999" points="50.5,-19.25 0,-19.25 0,0 50.5,0 50.5,-19.25"/>
<text text-anchor="middle" x="25.25" y="-5.75" font-family="Helvetica,sans-Serif" font-size="10.00">stddef.h</text>
</a>
</g>
</g>
<!-- Node2&#45;&gt;Node3 -->
<g id="edge2" class="edge">
<title>Node2&#45;&gt;Node3</title>
<path fill="none" stroke="#63b8ff" d="M267.89,-60.77C231.48,-54.2 144.25,-38.1 61.43,-19.65"/>
<polygon fill="#63b8ff" stroke="#63b8ff" points="62.36,-16.05 51.83,-17.27 60.82,-22.88 62.36,-16.05"/>
</g>
<!-- Node4 -->
<g id="node4" class="node">
<title>Node4</title>
<g id="a_node4"><a xlink:title=" ">
<polygon fill="#e0e0e0" stroke="#999999" points="116,-19.25 68.5,-19.25 68.5,0 116,0 116,-19.25"/>
<text text-anchor="middle" x="92.25" y="-5.75" font-family="Helvetica,sans-Serif" font-size="10.00">stdint.h</text>
</a>
</g>
</g>
<!-- Node2&#45;&gt;Node4 -->
<g id="edge3" class="edge">
<title>Node2&#45;&gt;Node4</title>
<path fill="none" stroke="#63b8ff" d="M267.78,-59.06C236.01,-50.29 168.23,-31.59 126.81,-20.16"/>
<polygon fill="#63b8ff" stroke="#63b8ff" points="127.96,-16.57 117.38,-17.28 126.09,-23.32 127.96,-16.57"/>
</g>
<!-- Node5 -->
<g id="node5" class="node">
<title>Node5</title>
<g id="a_node5"><a xlink:title=" ">
<polygon fill="#e0e0e0" stroke="#999999" points="178.5,-19.25 134,-19.25 134,0 178.5,0 178.5,-19.25"/>
<text text-anchor="middle" x="156.25" y="-5.75" font-family="Helvetica,sans-Serif" font-size="10.00">stdio.h</text>
</a>
</g>
</g>
<!-- Node2&#45;&gt;Node5 -->
<g id="edge4" class="edge">
<title>Node2&#45;&gt;Node5</title>
<path fill="none" stroke="#63b8ff" d="M267.85,-56.69C247.42,-48.26 213.13,-34.1 187.94,-23.71"/>
<polygon fill="#63b8ff" stroke="#63b8ff" points="189.68,-20.23 179.1,-19.65 187.01,-26.7 189.68,-20.23"/>
</g>
<!-- Node6 -->
<g id="node6" class="node">
<title>Node6</title>
<g id="a_node6"><a xlink:title=" ">
<polygon fill="#e0e0e0" stroke="#999999" points="247.5,-19.25 197,-19.25 197,0 247.5,0 247.5,-19.25"/>
<text text-anchor="middle" x="222.25" y="-5.75" font-family="Helvetica,sans-Serif" font-size="10.00">memory</text>
</a>
</g>
</g>
<!-- Node2&#45;&gt;Node6 -->
<g id="edge5" class="edge">
<title>Node2&#45;&gt;Node6</title>
<path fill="none" stroke="#63b8ff" d="M274.56,-54.84C265.37,-47.07 251.89,-35.67 240.91,-26.4"/>
<polygon fill="#63b8ff" stroke="#63b8ff" points="243.68,-23.31 233.78,-19.52 239.16,-28.65 243.68,-23.31"/>
</g>
<!-- Node7 -->
<g id="node7" class="node">
<title>Node7</title>
<g id="a_node7"><a xlink:title=" ">
<polygon fill="#e0e0e0" stroke="#999999" points="304.5,-19.25 266,-19.25 266,0 304.5,0 304.5,-19.25"/>
<text text-anchor="middle" x="285.25" y="-5.75" font-family="Helvetica,sans-Serif" font-size="10.00">utility</text>
</a>
</g>
</g>
<!-- Node2&#45;&gt;Node7 -->
<g id="edge6" class="edge">
<title>Node2&#45;&gt;Node7</title>
<path fill="none" stroke="#63b8ff" d="M285.25,-55.08C285.25,-48.42 285.25,-38.99 285.25,-30.53"/>
<polygon fill="#63b8ff" stroke="#63b8ff" points="288.75,-30.61 285.25,-20.61 281.75,-30.61 288.75,-30.61"/>
</g>
<!-- Node2&#45;&gt;Node8 -->
<g id="edge7" class="edge">
<title>Node2&#45;&gt;Node8</title>
<path fill="none" stroke="#63b8ff" d="M302.63,-60.18C334.87,-53.25 406.39,-37.58 475.68,-19.82"/>
<polygon fill="#63b8ff" stroke="#63b8ff" points="476.52,-22.96 485.33,-17.07 474.77,-16.18 476.52,-22.96"/>
</g>
<!-- Node9 -->
<g id="node9" class="node">
<title>Node9</title>
<g id="a_node9"><a xlink:href="v8-version_8h.html" target="_top" xlink:title=" ">
<polygon fill="white" stroke="#666666" points="391.5,-19.25 323,-19.25 323,0 391.5,0 391.5,-19.25"/>
<text text-anchor="middle" x="357.25" y="-5.75" font-family="Helvetica,sans-Serif" font-size="10.00">v8&#45;version.h</text>
</a>
</g>
</g>
<!-- Node2&#45;&gt;Node9 -->
<g id="edge8" class="edge">
<title>Node2&#45;&gt;Node9</title>
<path fill="none" stroke="#63b8ff" d="M297.46,-54.84C308.18,-46.91 323.99,-35.22 336.66,-25.85"/>
<polygon fill="#63b8ff" stroke="#63b8ff" points="338.26,-28.29 344.22,-19.52 334.1,-22.66 338.26,-28.29"/>
</g>
<!-- Node10 -->
<g id="node10" class="node">
<title>Node10</title>
<g id="a_node10"><a xlink:href="v8config_8h.html" target="_top" xlink:title=" ">
<polygon fill="white" stroke="#666666" points="469,-19.25 409.5,-19.25 409.5,0 469,0 469,-19.25"/>
<text text-anchor="middle" x="439.25" y="-5.75" font-family="Helvetica,sans-Serif" font-size="10.00">v8config.h</text>
</a>
</g>
</g>
<!-- Node2&#45;&gt;Node10 -->
<g id="edge9" class="edge">
<title>Node2&#45;&gt;Node10</title>
<path fill="none" stroke="#63b8ff" d="M302.62,-57.87C326.79,-49.51 371.16,-34.17 402.77,-23.24"/>
<polygon fill="#63b8ff" stroke="#63b8ff" points="403.65,-26.29 411.96,-19.72 401.37,-19.68 403.65,-26.29"/>
</g>
</g>
</svg>
