<?xml version="1.0" encoding="UTF-8" standalone="no"?>
<!DOCTYPE svg PUBLIC "-//W3C//DTD SVG 1.1//EN"
 "http://www.w3.org/Graphics/SVG/1.1/DTD/svg11.dtd">
<!-- Generated by graphviz version 8.0.5 (20230430.1635)
 -->
<!-- Title: cppgc::internal::BasicCrossThreadPersistent::operator= Pages: 1 -->
<svg width="646pt" height="321pt"
 viewBox="0.00 0.00 645.75 320.50" xmlns="http://www.w3.org/2000/svg" xmlns:xlink="http://www.w3.org/1999/xlink">
<g id="graph0" class="graph" transform="scale(1 1) rotate(0) translate(4 316.5)">
<title>cppgc::internal::BasicCrossThreadPersistent::operator=</title>
<!-- Node1 -->
<g id="node1" class="node">
<title>Node1</title>
<g id="a_node1"><a xlink:title=" ">
<polygon fill="#999999" stroke="#666666" points="136,-187.5 0,-187.5 0,-157 136,-157 136,-187.5"/>
<text text-anchor="start" x="8" y="-174" font-family="Helvetica,sans-Serif" font-size="10.00">cppgc::internal::BasicCross</text>
<text text-anchor="middle" x="68" y="-162.75" font-family="Helvetica,sans-Serif" font-size="10.00">ThreadPersistent::operator=</text>
</a>
</g>
</g>
<!-- Node2 -->
<g id="node2" class="node">
<title>Node2</title>
<g id="a_node2"><a xlink:href="classcppgc_1_1internal_1_1BasicCrossThreadPersistent.html#a4101c15a02138c88ea1d29ef95b10b34" target="_top" xlink:title=" ">
<polygon fill="white" stroke="#666666" points="305,-212.5 172,-212.5 172,-182 305,-182 305,-212.5"/>
<text text-anchor="start" x="180" y="-199" font-family="Helvetica,sans-Serif" font-size="10.00">cppgc::internal::BasicCross</text>
<text text-anchor="middle" x="238.5" y="-187.75" font-family="Helvetica,sans-Serif" font-size="10.00">ThreadPersistent::Clear</text>
</a>
</g>
</g>
<!-- Node1&#45;&gt;Node2 -->
<g id="edge1" class="edge">
<title>Node1&#45;&gt;Node2</title>
<path fill="none" stroke="#63b8ff" d="M136.08,-182.2C144.25,-183.41 152.64,-184.66 160.93,-185.89"/>
<polygon fill="#63b8ff" stroke="#63b8ff" points="160.34,-189.49 170.75,-187.49 161.37,-182.57 160.34,-189.49"/>
</g>
<!-- Node5 -->
<g id="node5" class="node">
<title>Node5</title>
<g id="a_node5"><a xlink:href="classcppgc_1_1internal_1_1PersistentBase.html#aa189d8229e1fd8cc2cfce363ade822c6" target="_top" xlink:title=" ">
<polygon fill="white" stroke="#666666" points="468,-312.5 341,-312.5 341,-282 468,-282 468,-312.5"/>
<text text-anchor="start" x="349" y="-299" font-family="Helvetica,sans-Serif" font-size="10.00">cppgc::internal::Persistent</text>
<text text-anchor="middle" x="404.5" y="-287.75" font-family="Helvetica,sans-Serif" font-size="10.00">Base::GetNode</text>
</a>
</g>
</g>
<!-- Node1&#45;&gt;Node5 -->
<g id="edge8" class="edge">
<title>Node1&#45;&gt;Node5</title>
<path fill="none" stroke="#63b8ff" d="M85.86,-187.73C105.22,-204.66 138.62,-231.35 172,-246.25 222.38,-268.74 283.48,-281.66 330.25,-288.87"/>
<polygon fill="#63b8ff" stroke="#63b8ff" points="329.51,-292.45 339.91,-290.45 330.53,-285.52 329.51,-292.45"/>
</g>
<!-- Node6 -->
<g id="node6" class="node">
<title>Node6</title>
<g id="a_node6"><a xlink:href="classcppgc_1_1internal_1_1PersistentBase.html#a2fce9ff2e5e2e6e347e31dc1399c7acb" target="_top" xlink:title=" ">
<polygon fill="white" stroke="#666666" points="468,-263.5 341,-263.5 341,-233 468,-233 468,-263.5"/>
<text text-anchor="start" x="349" y="-250" font-family="Helvetica,sans-Serif" font-size="10.00">cppgc::internal::Persistent</text>
<text text-anchor="middle" x="404.5" y="-238.75" font-family="Helvetica,sans-Serif" font-size="10.00">Base::GetValue</text>
</a>
</g>
</g>
<!-- Node1&#45;&gt;Node6 -->
<g id="edge9" class="edge">
<title>Node1&#45;&gt;Node6</title>
<path fill="none" stroke="#63b8ff" d="M95.58,-187.89C115.84,-199.05 144.79,-213.42 172,-221.25 223.48,-236.06 283.63,-242.77 329.71,-245.8"/>
<polygon fill="#63b8ff" stroke="#63b8ff" points="329.31,-249.34 339.51,-246.46 329.74,-242.36 329.31,-249.34"/>
</g>
<!-- Node7 -->
<g id="node7" class="node">
<title>Node7</title>
<g id="a_node7"><a xlink:href="classcppgc_1_1internal_1_1PersistentBase.html#af84e1d2f71c9cbd3f0a4424339c725cb" target="_top" xlink:title=" ">
<polygon fill="white" stroke="#666666" points="468,-165.5 341,-165.5 341,-135 468,-135 468,-165.5"/>
<text text-anchor="start" x="349" y="-152" font-family="Helvetica,sans-Serif" font-size="10.00">cppgc::internal::Persistent</text>
<text text-anchor="middle" x="404.5" y="-140.75" font-family="Helvetica,sans-Serif" font-size="10.00">Base::SetNode</text>
</a>
</g>
</g>
<!-- Node1&#45;&gt;Node7 -->
<g id="edge10" class="edge">
<title>Node1&#45;&gt;Node7</title>
<path fill="none" stroke="#63b8ff" d="M136.29,-167.82C192.3,-164.14 271.93,-158.9 329.68,-155.11"/>
<polygon fill="#63b8ff" stroke="#63b8ff" points="329.81,-158.54 339.56,-154.39 329.35,-151.55 329.81,-158.54"/>
</g>
<!-- Node8 -->
<g id="node8" class="node">
<title>Node8</title>
<g id="a_node8"><a xlink:href="classcppgc_1_1internal_1_1PersistentBase.html#a697d2fa1fc753a2f2e8c479143d72995" target="_top" xlink:title=" ">
<polygon fill="white" stroke="#666666" points="468,-116.5 341,-116.5 341,-86 468,-86 468,-116.5"/>
<text text-anchor="start" x="349" y="-103" font-family="Helvetica,sans-Serif" font-size="10.00">cppgc::internal::Persistent</text>
<text text-anchor="middle" x="404.5" y="-91.75" font-family="Helvetica,sans-Serif" font-size="10.00">Base::SetValue</text>
</a>
</g>
</g>
<!-- Node1&#45;&gt;Node8 -->
<g id="edge11" class="edge">
<title>Node1&#45;&gt;Node8</title>
<path fill="none" stroke="#63b8ff" d="M136.29,-157.97C192.41,-146.05 272.26,-129.11 330.04,-116.84"/>
<polygon fill="#63b8ff" stroke="#63b8ff" points="330.51,-120.11 339.56,-114.61 329.05,-113.26 330.51,-120.11"/>
</g>
<!-- Node9 -->
<g id="node9" class="node">
<title>Node9</title>
<g id="a_node9"><a xlink:href="classcppgc_1_1internal_1_1PersistentNode.html#a1ca2104547bd2139cb56233c575a38f9" target="_top" xlink:title=" ">
<polygon fill="white" stroke="#666666" points="302,-73.5 175,-73.5 175,-43 302,-43 302,-73.5"/>
<text text-anchor="start" x="183" y="-60" font-family="Helvetica,sans-Serif" font-size="10.00">cppgc::internal::Persistent</text>
<text text-anchor="middle" x="238.5" y="-48.75" font-family="Helvetica,sans-Serif" font-size="10.00">Node::UpdateOwner</text>
</a>
</g>
</g>
<!-- Node1&#45;&gt;Node9 -->
<g id="edge12" class="edge">
<title>Node1&#45;&gt;Node9</title>
<path fill="none" stroke="#63b8ff" d="M86.87,-156.75C106.84,-139.81 140.54,-112.4 172,-92.25 179.21,-87.63 187.11,-83.11 194.86,-78.95"/>
<polygon fill="#63b8ff" stroke="#63b8ff" points="196.29,-81.63 203.53,-73.89 193.05,-75.43 196.29,-81.63"/>
</g>
<!-- Node3 -->
<g id="node3" class="node">
<title>Node3</title>
<g id="a_node3"><a xlink:href="classcppgc_1_1internal_1_1PersistentRegion.html#af9379c9232b30b74532cccb697de9950" target="_top" xlink:title=" ">
<polygon fill="white" stroke="#666666" points="468,-214.5 341,-214.5 341,-184 468,-184 468,-214.5"/>
<text text-anchor="start" x="349" y="-201" font-family="Helvetica,sans-Serif" font-size="10.00">cppgc::internal::Persistent</text>
<text text-anchor="middle" x="404.5" y="-189.75" font-family="Helvetica,sans-Serif" font-size="10.00">Region::FreeNode</text>
</a>
</g>
</g>
<!-- Node2&#45;&gt;Node3 -->
<g id="edge2" class="edge">
<title>Node2&#45;&gt;Node3</title>
<path fill="none" stroke="#63b8ff" d="M305.26,-198.05C313.29,-198.15 321.53,-198.25 329.66,-198.35"/>
<polygon fill="#63b8ff" stroke="#63b8ff" points="329.61,-201.86 339.66,-198.48 329.7,-194.86 329.61,-201.86"/>
</g>
<!-- Node2&#45;&gt;Node5 -->
<g id="edge4" class="edge">
<title>Node2&#45;&gt;Node5</title>
<path fill="none" stroke="#63b8ff" d="M257.6,-212.87C277.18,-229.21 309.8,-254.86 341,-272.25 344.01,-273.93 347.16,-275.55 350.37,-277.11"/>
<polygon fill="#63b8ff" stroke="#63b8ff" points="348.58,-280.6 359.13,-281.58 351.5,-274.24 348.58,-280.6"/>
</g>
<!-- Node2&#45;&gt;Node6 -->
<g id="edge5" class="edge">
<title>Node2&#45;&gt;Node6</title>
<path fill="none" stroke="#63b8ff" d="M290.04,-212.97C306.8,-218.18 325.62,-224.03 343.05,-229.45"/>
<polygon fill="#63b8ff" stroke="#63b8ff" points="341.54,-232.96 352.12,-232.58 343.61,-226.27 341.54,-232.96"/>
</g>
<!-- Node2&#45;&gt;Node7 -->
<g id="edge6" class="edge">
<title>Node2&#45;&gt;Node7</title>
<path fill="none" stroke="#63b8ff" d="M294.11,-181.6C308.21,-177.56 323.52,-173.17 338.11,-168.99"/>
<polygon fill="#63b8ff" stroke="#63b8ff" points="338.92,-172.11 347.57,-165.99 336.99,-165.38 338.92,-172.11"/>
</g>
<!-- Node2&#45;&gt;Node8 -->
<g id="edge7" class="edge">
<title>Node2&#45;&gt;Node8</title>
<path fill="none" stroke="#63b8ff" d="M258.84,-181.69C278.65,-166.25 310.73,-142.61 341,-126.25 344.08,-124.58 347.3,-122.96 350.59,-121.4"/>
<polygon fill="#63b8ff" stroke="#63b8ff" points="351.86,-124.22 359.54,-116.91 348.98,-117.83 351.86,-124.22"/>
</g>
<!-- Node4 -->
<g id="node4" class="node">
<title>Node4</title>
<g id="a_node4"><a xlink:href="classcppgc_1_1internal_1_1PersistentNode.html#a54960a446ce00f010add74b54bccc0ba" target="_top" xlink:title=" ">
<polygon fill="white" stroke="#666666" points="637.75,-214.5 504,-214.5 504,-184 637.75,-184 637.75,-214.5"/>
<text text-anchor="start" x="512" y="-201" font-family="Helvetica,sans-Serif" font-size="10.00">cppgc::internal::Persistent</text>
<text text-anchor="middle" x="570.88" y="-189.75" font-family="Helvetica,sans-Serif" font-size="10.00">Node::InitializeAsFreeNode</text>
</a>
</g>
</g>
<!-- Node3&#45;&gt;Node4 -->
<g id="edge3" class="edge">
<title>Node3&#45;&gt;Node4</title>
<path fill="none" stroke="#63b8ff" d="M468.11,-199.25C476.19,-199.25 484.53,-199.25 492.8,-199.25"/>
<polygon fill="#63b8ff" stroke="#63b8ff" points="492.61,-202.75 502.61,-199.25 492.61,-195.75 492.61,-202.75"/>
</g>
<!-- Node10 -->
<g id="node10" class="node">
<title>Node10</title>
<g id="a_node10"><a xlink:href="classcppgc_1_1internal_1_1PersistentNode.html#a6117a8f66c181bb22827a21b3fbd3457" target="_top" xlink:title=" ">
<polygon fill="white" stroke="#666666" points="634.38,-52.5 507.38,-52.5 507.38,-22 634.38,-22 634.38,-52.5"/>
<text text-anchor="start" x="515.38" y="-39" font-family="Helvetica,sans-Serif" font-size="10.00">cppgc::internal::Persistent</text>
<text text-anchor="middle" x="570.88" y="-27.75" font-family="Helvetica,sans-Serif" font-size="10.00">Node::IsUsed</text>
</a>
</g>
</g>
<!-- Node9&#45;&gt;Node10 -->
<g id="edge13" class="edge">
<title>Node9&#45;&gt;Node10</title>
<path fill="none" stroke="#63b8ff" d="M302.42,-54.25C357.56,-50.75 437.76,-45.65 495.95,-41.95"/>
<polygon fill="#63b8ff" stroke="#63b8ff" points="496.15,-45.38 505.91,-41.25 495.71,-38.39 496.15,-45.38"/>
</g>
<!-- Node11 -->
<g id="node11" class="node">
<title>Node11</title>
<g id="a_node11"><a xlink:href="classcppgc_1_1internal_1_1PersistentNode.html#ad50ff2c6d54004b92ec8c2d92455f17b" target="_top" xlink:title=" ">
<polygon fill="white" stroke="#666666" points="468,-30.5 341,-30.5 341,0 468,0 468,-30.5"/>
<text text-anchor="start" x="349" y="-17" font-family="Helvetica,sans-Serif" font-size="10.00">cppgc::internal::Persistent</text>
<text text-anchor="middle" x="404.5" y="-5.75" font-family="Helvetica,sans-Serif" font-size="10.00">Node::owner</text>
</a>
</g>
</g>
<!-- Node9&#45;&gt;Node11 -->
<g id="edge14" class="edge">
<title>Node9&#45;&gt;Node11</title>
<path fill="none" stroke="#63b8ff" d="M299.17,-42.6C310.25,-39.7 321.92,-36.64 333.28,-33.66"/>
<polygon fill="#63b8ff" stroke="#63b8ff" points="333.81,-36.88 342.6,-30.96 332.04,-30.11 333.81,-36.88"/>
</g>
<!-- Node11&#45;&gt;Node10 -->
<g id="edge15" class="edge">
<title>Node11&#45;&gt;Node10</title>
<path fill="none" stroke="#63b8ff" d="M468.11,-23.63C477.24,-24.85 486.71,-26.12 496.04,-27.37"/>
<polygon fill="#63b8ff" stroke="#63b8ff" points="495.52,-30.96 505.89,-28.82 496.45,-24.02 495.52,-30.96"/>
</g>
</g>
</svg>
