<?xml version="1.0" encoding="UTF-8" standalone="no"?>
<!DOCTYPE svg PUBLIC "-//W3C//DTD SVG 1.1//EN"
 "http://www.w3.org/Graphics/SVG/1.1/DTD/svg11.dtd">
<!-- Generated by graphviz version 8.0.5 (20230430.1635)
 -->
<!-- Title: v8::Integer::New Pages: 1 -->
<svg width="258pt" height="162pt"
 viewBox="0.00 0.00 257.50 161.88" xmlns="http://www.w3.org/2000/svg" xmlns:xlink="http://www.w3.org/1999/xlink">
<g id="graph0" class="graph" transform="scale(1 1) rotate(0) translate(4 157.88)">
<title>v8::Integer::New</title>
<!-- Node1 -->
<g id="node1" class="node">
<title>Node1</title>
<g id="a_node1"><a xlink:title=" ">
<polygon fill="#999999" stroke="#666666" points="249.5,-77.25 163.75,-77.25 163.75,-58 249.5,-58 249.5,-77.25"/>
<text text-anchor="middle" x="206.62" y="-63.75" font-family="Helvetica,sans-Serif" font-size="10.00">v8::Integer::New</text>
</a>
</g>
</g>
<!-- Node2 -->
<g id="node2" class="node">
<title>Node2</title>
<g id="a_node2"><a xlink:href="classv8_1_1ScriptOrigin.html#a75794aa0bda3508406b97cf66ac47682" target="_top" xlink:title=" ">
<polygon fill="white" stroke="#666666" points="127.75,-153.88 0,-153.88 0,-123.38 127.75,-123.38 127.75,-153.88"/>
<text text-anchor="start" x="8" y="-140.38" font-family="Helvetica,sans-Serif" font-size="10.00">v8::ScriptOrigin::Resource</text>
<text text-anchor="middle" x="63.88" y="-129.12" font-family="Helvetica,sans-Serif" font-size="10.00">ColumnOffset</text>
</a>
</g>
</g>
<!-- Node1&#45;&gt;Node2 -->
<g id="edge1" class="edge">
<title>Node1&#45;&gt;Node2</title>
<path fill="none" stroke="#63b8ff" d="M181.07,-83.46C166,-92.84 146.14,-104.61 127.75,-113.62 121.11,-116.88 113.92,-120.05 106.87,-122.98"/>
<polygon fill="#63b8ff" stroke="#63b8ff" points="182.62,-85.99 189.21,-77.7 178.88,-80.07 182.62,-85.99"/>
</g>
<!-- Node3 -->
<g id="node3" class="node">
<title>Node3</title>
<g id="a_node3"><a xlink:href="classv8_1_1ScriptOrigin.html#ae9f8419ea44b2b0d9e249f2c6825e8cd" target="_top" xlink:title=" ">
<polygon fill="white" stroke="#666666" points="127.75,-104.88 0,-104.88 0,-74.38 127.75,-74.38 127.75,-104.88"/>
<text text-anchor="start" x="8" y="-91.38" font-family="Helvetica,sans-Serif" font-size="10.00">v8::ScriptOrigin::Resource</text>
<text text-anchor="middle" x="63.88" y="-80.12" font-family="Helvetica,sans-Serif" font-size="10.00">LineOffset</text>
</a>
</g>
</g>
<!-- Node1&#45;&gt;Node3 -->
<g id="edge2" class="edge">
<title>Node1&#45;&gt;Node3</title>
<path fill="none" stroke="#63b8ff" d="M152.71,-75.9C144.7,-77.15 136.36,-78.45 128.16,-79.73"/>
<polygon fill="#63b8ff" stroke="#63b8ff" points="153.06,-79.23 162.4,-74.23 151.97,-72.31 153.06,-79.23"/>
</g>
<!-- Node4 -->
<g id="node4" class="node">
<title>Node4</title>
<g id="a_node4"><a xlink:href="classv8_1_1ScriptOrigin.html#ae4431018214bd4512c6c0f8168ca3101" target="_top" xlink:title=" ">
<polygon fill="white" stroke="#666666" points="124.75,-56.25 3,-56.25 3,-37 124.75,-37 124.75,-56.25"/>
<text text-anchor="middle" x="63.88" y="-42.75" font-family="Helvetica,sans-Serif" font-size="10.00">v8::ScriptOrigin::ScriptID</text>
</a>
</g>
</g>
<!-- Node1&#45;&gt;Node4 -->
<g id="edge3" class="edge">
<title>Node1&#45;&gt;Node4</title>
<path fill="none" stroke="#63b8ff" d="M152.64,-59.72C143.63,-58.38 134.21,-56.97 125.03,-55.6"/>
<polygon fill="#63b8ff" stroke="#63b8ff" points="151.99,-63.31 162.4,-61.32 153.02,-56.39 151.99,-63.31"/>
</g>
<!-- Node5 -->
<g id="node5" class="node">
<title>Node5</title>
<g id="a_node5"><a xlink:href="classv8_1_1ReturnValue.html#ab214555052e3d03b8c44a7e8779bcbc2" target="_top" xlink:title=" ">
<polygon fill="white" stroke="#666666" points="115.75,-19.25 12,-19.25 12,0 115.75,0 115.75,-19.25"/>
<text text-anchor="middle" x="63.88" y="-5.75" font-family="Helvetica,sans-Serif" font-size="10.00">v8::ReturnValue::Set</text>
</a>
</g>
</g>
<!-- Node1&#45;&gt;Node5 -->
<g id="edge4" class="edge">
<title>Node1&#45;&gt;Node5</title>
<path fill="none" stroke="#63b8ff" d="M178.95,-52.28C164.19,-44.21 145.32,-34.57 127.75,-27.62 120.36,-24.7 112.31,-22.03 104.51,-19.69"/>
<polygon fill="#63b8ff" stroke="#63b8ff" points="177.01,-55.76 187.45,-57.56 180.42,-49.64 177.01,-55.76"/>
</g>
</g>
</svg>
