<?xml version="1.0" encoding="UTF-8" standalone="no"?>
<!DOCTYPE svg PUBLIC "-//W3C//DTD SVG 1.1//EN"
 "http://www.w3.org/Graphics/SVG/1.1/DTD/svg11.dtd">
<!-- Generated by graphviz version 8.0.5 (20230430.1635)
 -->
<!-- Title: include/cppgc/internal/pointer&#45;policies.h Pages: 1 -->
<svg width="834pt" height="282pt"
 viewBox="0.00 0.00 834.43 282.00" xmlns="http://www.w3.org/2000/svg" xmlns:xlink="http://www.w3.org/1999/xlink">
<g id="graph0" class="graph" transform="scale(1 1) rotate(0) translate(4 278)">
<title>include/cppgc/internal/pointer&#45;policies.h</title>
<!-- Node1 -->
<g id="node1" class="node">
<title>Node1</title>
<g id="a_node1"><a xlink:title=" ">
<polygon fill="#999999" stroke="#666666" points="721.7,-274 611.2,-274 611.2,-243.5 721.7,-243.5 721.7,-274"/>
<text text-anchor="start" x="619.2" y="-260.5" font-family="Helvetica,sans-Serif" font-size="10.00">include/cppgc/internal</text>
<text text-anchor="middle" x="666.45" y="-249.25" font-family="Helvetica,sans-Serif" font-size="10.00">/pointer&#45;policies.h</text>
</a>
</g>
</g>
<!-- Node2 -->
<g id="node2" class="node">
<title>Node2</title>
<g id="a_node2"><a xlink:title=" ">
<polygon fill="#e0e0e0" stroke="#999999" points="54.08,-74.5 8.83,-74.5 8.83,-55.25 54.08,-55.25 54.08,-74.5"/>
<text text-anchor="middle" x="31.45" y="-61" font-family="Helvetica,sans-Serif" font-size="10.00">cstdint</text>
</a>
</g>
</g>
<!-- Node1&#45;&gt;Node2 -->
<g id="edge1" class="edge">
<title>Node1&#45;&gt;Node2</title>
<path fill="none" stroke="#63b8ff" d="M610.88,-256.68C466.18,-252.62 83.62,-233.18 6.45,-141 -7.41,-124.44 5.17,-99.9 16.95,-83.42"/>
<polygon fill="#63b8ff" stroke="#63b8ff" points="20.28,-85.83 23.59,-75.77 14.72,-81.57 20.28,-85.83"/>
</g>
<!-- Node3 -->
<g id="node3" class="node">
<title>Node3</title>
<g id="a_node3"><a xlink:title=" ">
<polygon fill="#e0e0e0" stroke="#999999" points="414.95,-19.25 353.95,-19.25 353.95,0 414.95,0 414.95,-19.25"/>
<text text-anchor="middle" x="384.45" y="-5.75" font-family="Helvetica,sans-Serif" font-size="10.00">type_traits</text>
</a>
</g>
</g>
<!-- Node1&#45;&gt;Node3 -->
<g id="edge2" class="edge">
<title>Node1&#45;&gt;Node3</title>
<path fill="none" stroke="#63b8ff" d="M722.17,-255.44C756.81,-250.76 798.91,-238.5 821.45,-207.5 829.42,-196.54 826.21,-189.69 821.45,-177 807.69,-140.28 794.92,-133.9 763.45,-110.5 659.58,-33.26 500.8,-15.66 426.07,-11.72"/>
<polygon fill="#63b8ff" stroke="#63b8ff" points="426.4,-8.18 416.25,-11.21 426.07,-15.18 426.4,-8.18"/>
</g>
<!-- Node4 -->
<g id="node4" class="node">
<title>Node4</title>
<g id="a_node4"><a xlink:href="write-barrier_8h.html" target="_top" xlink:title=" ">
<polygon fill="white" stroke="#666666" points="487.83,-207.5 387.08,-207.5 387.08,-177 487.83,-177 487.83,-207.5"/>
<text text-anchor="start" x="395.08" y="-194" font-family="Helvetica,sans-Serif" font-size="10.00">cppgc/internal/write</text>
<text text-anchor="middle" x="437.45" y="-182.75" font-family="Helvetica,sans-Serif" font-size="10.00">&#45;barrier.h</text>
</a>
</g>
</g>
<!-- Node1&#45;&gt;Node4 -->
<g id="edge3" class="edge">
<title>Node1&#45;&gt;Node4</title>
<path fill="none" stroke="#63b8ff" d="M614.2,-243.03C579.84,-233.35 534.73,-220.65 498.69,-210.5"/>
<polygon fill="#63b8ff" stroke="#63b8ff" points="499.87,-206.91 489.3,-207.57 497.97,-213.65 499.87,-206.91"/>
</g>
<!-- Node6 -->
<g id="node6" class="node">
<title>Node6</title>
<g id="a_node6"><a xlink:href="v8config_8h.html" target="_top" xlink:title=" ">
<polygon fill="white" stroke="#666666" points="632.2,-74.5 572.7,-74.5 572.7,-55.25 632.2,-55.25 632.2,-74.5"/>
<text text-anchor="middle" x="602.45" y="-61" font-family="Helvetica,sans-Serif" font-size="10.00">v8config.h</text>
</a>
</g>
</g>
<!-- Node1&#45;&gt;Node6 -->
<g id="edge23" class="edge">
<title>Node1&#45;&gt;Node6</title>
<path fill="none" stroke="#63b8ff" d="M663.65,-243.18C658.23,-216.33 645.19,-157.5 626.45,-110.5 622.87,-101.52 617.95,-92.03 613.49,-84.12"/>
<polygon fill="#63b8ff" stroke="#63b8ff" points="616.12,-82.68 608.05,-75.81 610.07,-86.21 616.12,-82.68"/>
</g>
<!-- Node15 -->
<g id="node15" class="node">
<title>Node15</title>
<g id="a_node15"><a xlink:href="source-location_8h.html" target="_top" xlink:title=" ">
<polygon fill="white" stroke="#666666" points="812.83,-201.88 694.08,-201.88 694.08,-182.62 812.83,-182.62 812.83,-201.88"/>
<text text-anchor="middle" x="753.45" y="-188.38" font-family="Helvetica,sans-Serif" font-size="10.00">cppgc/source&#45;location.h</text>
</a>
</g>
</g>
<!-- Node1&#45;&gt;Node15 -->
<g id="edge20" class="edge">
<title>Node1&#45;&gt;Node15</title>
<path fill="none" stroke="#63b8ff" d="M686.19,-243.11C700.18,-232.75 718.88,-218.88 733.02,-208.4"/>
<polygon fill="#63b8ff" stroke="#63b8ff" points="734.6,-210.84 740.55,-202.07 730.44,-205.22 734.6,-210.84"/>
</g>
<!-- Node5 -->
<g id="node5" class="node">
<title>Node5</title>
<g id="a_node5"><a xlink:href="heap-state_8h.html" target="_top" xlink:title=" ">
<polygon fill="white" stroke="#666666" points="600.7,-135.38 502.2,-135.38 502.2,-116.12 600.7,-116.12 600.7,-135.38"/>
<text text-anchor="middle" x="551.45" y="-121.88" font-family="Helvetica,sans-Serif" font-size="10.00">cppgc/heap&#45;state.h</text>
</a>
</g>
</g>
<!-- Node4&#45;&gt;Node5 -->
<g id="edge4" class="edge">
<title>Node4&#45;&gt;Node5</title>
<path fill="none" stroke="#63b8ff" d="M463.32,-176.61C482.14,-165.96 507.5,-151.62 526.18,-141.05"/>
<polygon fill="#63b8ff" stroke="#63b8ff" points="527.55,-143.73 534.53,-135.76 524.1,-137.64 527.55,-143.73"/>
</g>
<!-- Node4&#45;&gt;Node6 -->
<g id="edge19" class="edge">
<title>Node4&#45;&gt;Node6</title>
<path fill="none" stroke="#63b8ff" d="M488.15,-183.28C533.43,-175.01 594.8,-160.54 609.45,-141 621.45,-124.99 616.64,-101.34 610.81,-84.87"/>
<polygon fill="#63b8ff" stroke="#63b8ff" points="613.75,-83.79 606.8,-75.79 607.24,-86.38 613.75,-83.79"/>
</g>
<!-- Node7 -->
<g id="node7" class="node">
<title>Node7</title>
<g id="a_node7"><a xlink:href="api-constants_8h.html" target="_top" xlink:title=" ">
<polygon fill="white" stroke="#666666" points="483.7,-141 391.2,-141 391.2,-110.5 483.7,-110.5 483.7,-141"/>
<text text-anchor="start" x="399.2" y="-127.5" font-family="Helvetica,sans-Serif" font-size="10.00">cppgc/internal/api</text>
<text text-anchor="middle" x="437.45" y="-116.25" font-family="Helvetica,sans-Serif" font-size="10.00">&#45;constants.h</text>
</a>
</g>
</g>
<!-- Node4&#45;&gt;Node7 -->
<g id="edge6" class="edge">
<title>Node4&#45;&gt;Node7</title>
<path fill="none" stroke="#63b8ff" d="M437.45,-176.61C437.45,-169.36 437.45,-160.38 437.45,-152.06"/>
<polygon fill="#63b8ff" stroke="#63b8ff" points="440.95,-152.33 437.45,-142.33 433.95,-152.33 440.95,-152.33"/>
</g>
<!-- Node10 -->
<g id="node10" class="node">
<title>Node10</title>
<g id="a_node10"><a xlink:href="atomic-entry-flag_8h.html" target="_top" xlink:title=" ">
<polygon fill="white" stroke="#666666" points="260.95,-141 151.95,-141 151.95,-110.5 260.95,-110.5 260.95,-141"/>
<text text-anchor="start" x="159.95" y="-127.5" font-family="Helvetica,sans-Serif" font-size="10.00">cppgc/internal/atomic</text>
<text text-anchor="middle" x="206.45" y="-116.25" font-family="Helvetica,sans-Serif" font-size="10.00">&#45;entry&#45;flag.h</text>
</a>
</g>
</g>
<!-- Node4&#45;&gt;Node10 -->
<g id="edge10" class="edge">
<title>Node4&#45;&gt;Node10</title>
<path fill="none" stroke="#63b8ff" d="M386.76,-177.1C352.16,-167.43 306.09,-154.57 269.18,-144.27"/>
<polygon fill="#63b8ff" stroke="#63b8ff" points="270.6,-140.75 260.03,-141.43 268.72,-147.49 270.6,-140.75"/>
</g>
<!-- Node12 -->
<g id="node12" class="node">
<title>Node12</title>
<g id="a_node12"><a xlink:href="sentinel-pointer_8h.html" target="_top" xlink:title=" ">
<polygon fill="white" stroke="#666666" points="133.83,-135.38 15.08,-135.38 15.08,-116.12 133.83,-116.12 133.83,-135.38"/>
<text text-anchor="middle" x="74.45" y="-121.88" font-family="Helvetica,sans-Serif" font-size="10.00">cppgc/sentinel&#45;pointer.h</text>
</a>
</g>
</g>
<!-- Node4&#45;&gt;Node12 -->
<g id="edge12" class="edge">
<title>Node4&#45;&gt;Node12</title>
<path fill="none" stroke="#63b8ff" d="M386.71,-183.21C327.85,-173.74 227.95,-157.23 142.45,-141 137.46,-140.05 132.26,-139.03 127.07,-137.98"/>
<polygon fill="#63b8ff" stroke="#63b8ff" points="127.98,-134.39 117.48,-135.82 126.58,-141.25 127.98,-134.39"/>
</g>
<!-- Node13 -->
<g id="node13" class="node">
<title>Node13</title>
<g id="a_node13"><a xlink:href="trace-trait_8h.html" target="_top" xlink:title=" ">
<polygon fill="white" stroke="#666666" points="373.45,-135.38 279.45,-135.38 279.45,-116.12 373.45,-116.12 373.45,-135.38"/>
<text text-anchor="middle" x="326.45" y="-121.88" font-family="Helvetica,sans-Serif" font-size="10.00">cppgc/trace&#45;trait.h</text>
</a>
</g>
</g>
<!-- Node4&#45;&gt;Node13 -->
<g id="edge14" class="edge">
<title>Node4&#45;&gt;Node13</title>
<path fill="none" stroke="#63b8ff" d="M412.27,-176.61C394.02,-166.01 369.48,-151.75 351.31,-141.2"/>
<polygon fill="#63b8ff" stroke="#63b8ff" points="353.36,-137.76 342.96,-135.76 349.85,-143.81 353.36,-137.76"/>
</g>
<!-- Node5&#45;&gt;Node6 -->
<g id="edge5" class="edge">
<title>Node5&#45;&gt;Node6</title>
<path fill="none" stroke="#63b8ff" d="M559.2,-115.81C566.69,-107.16 578.23,-93.84 587.51,-83.12"/>
<polygon fill="#63b8ff" stroke="#63b8ff" points="590.73,-85.75 594.63,-75.9 585.44,-81.17 590.73,-85.75"/>
</g>
<!-- Node7&#45;&gt;Node6 -->
<g id="edge9" class="edge">
<title>Node7&#45;&gt;Node6</title>
<path fill="none" stroke="#63b8ff" d="M478.66,-110.05C505.85,-100.35 541.08,-87.77 567.01,-78.52"/>
<polygon fill="#63b8ff" stroke="#63b8ff" points="567.91,-81.56 576.15,-74.9 565.55,-74.97 567.91,-81.56"/>
</g>
<!-- Node8 -->
<g id="node8" class="node">
<title>Node8</title>
<g id="a_node8"><a xlink:title=" ">
<polygon fill="#e0e0e0" stroke="#999999" points="462.7,-74.5 412.2,-74.5 412.2,-55.25 462.7,-55.25 462.7,-74.5"/>
<text text-anchor="middle" x="437.45" y="-61" font-family="Helvetica,sans-Serif" font-size="10.00">stddef.h</text>
</a>
</g>
</g>
<!-- Node7&#45;&gt;Node8 -->
<g id="edge7" class="edge">
<title>Node7&#45;&gt;Node8</title>
<path fill="none" stroke="#63b8ff" d="M437.45,-110.2C437.45,-102.87 437.45,-93.87 437.45,-85.91"/>
<polygon fill="#63b8ff" stroke="#63b8ff" points="440.95,-85.95 437.45,-75.95 433.95,-85.95 440.95,-85.95"/>
</g>
<!-- Node9 -->
<g id="node9" class="node">
<title>Node9</title>
<g id="a_node9"><a xlink:title=" ">
<polygon fill="#e0e0e0" stroke="#999999" points="528.2,-74.5 480.7,-74.5 480.7,-55.25 528.2,-55.25 528.2,-74.5"/>
<text text-anchor="middle" x="504.45" y="-61" font-family="Helvetica,sans-Serif" font-size="10.00">stdint.h</text>
</a>
</g>
</g>
<!-- Node7&#45;&gt;Node9 -->
<g id="edge8" class="edge">
<title>Node7&#45;&gt;Node9</title>
<path fill="none" stroke="#63b8ff" d="M454.01,-110.2C463.73,-101.66 476.01,-90.87 486.03,-82.06"/>
<polygon fill="#63b8ff" stroke="#63b8ff" points="487.92,-84.18 493.12,-74.95 483.3,-78.92 487.92,-84.18"/>
</g>
<!-- Node11 -->
<g id="node11" class="node">
<title>Node11</title>
<g id="a_node11"><a xlink:title=" ">
<polygon fill="#e0e0e0" stroke="#999999" points="229.08,-74.5 183.83,-74.5 183.83,-55.25 229.08,-55.25 229.08,-74.5"/>
<text text-anchor="middle" x="206.45" y="-61" font-family="Helvetica,sans-Serif" font-size="10.00">atomic</text>
</a>
</g>
</g>
<!-- Node10&#45;&gt;Node11 -->
<g id="edge11" class="edge">
<title>Node10&#45;&gt;Node11</title>
<path fill="none" stroke="#63b8ff" d="M206.45,-110.2C206.45,-102.87 206.45,-93.87 206.45,-85.91"/>
<polygon fill="#63b8ff" stroke="#63b8ff" points="209.95,-85.95 206.45,-75.95 202.95,-85.95 209.95,-85.95"/>
</g>
<!-- Node12&#45;&gt;Node2 -->
<g id="edge13" class="edge">
<title>Node12&#45;&gt;Node2</title>
<path fill="none" stroke="#63b8ff" d="M67.92,-115.81C61.73,-107.34 52.26,-94.37 44.52,-83.77"/>
<polygon fill="#63b8ff" stroke="#63b8ff" points="46.77,-81.91 38.05,-75.9 41.12,-86.04 46.77,-81.91"/>
</g>
<!-- Node13&#45;&gt;Node3 -->
<g id="edge15" class="edge">
<title>Node13&#45;&gt;Node3</title>
<path fill="none" stroke="#63b8ff" d="M335.06,-115.84C343.83,-106.31 357.28,-90.41 365.45,-74.5 372.66,-60.48 377.58,-43.28 380.6,-30.27"/>
<polygon fill="#63b8ff" stroke="#63b8ff" points="384.19,-31.21 382.86,-20.7 377.35,-29.75 384.19,-31.21"/>
</g>
<!-- Node13&#45;&gt;Node6 -->
<g id="edge18" class="edge">
<title>Node13&#45;&gt;Node6</title>
<path fill="none" stroke="#63b8ff" d="M361.04,-115.67C368.11,-113.89 375.51,-112.09 382.45,-110.5 444.8,-96.25 517.61,-81.94 561.85,-73.49"/>
<polygon fill="#63b8ff" stroke="#63b8ff" points="562.29,-76.78 571.46,-71.47 560.98,-69.9 562.29,-76.78"/>
</g>
<!-- Node14 -->
<g id="node14" class="node">
<title>Node14</title>
<g id="a_node14"><a xlink:href="type-traits_8h.html" target="_top" xlink:title=" ">
<polygon fill="white" stroke="#666666" points="356.2,-74.5 260.7,-74.5 260.7,-55.25 356.2,-55.25 356.2,-74.5"/>
<text text-anchor="middle" x="308.45" y="-61" font-family="Helvetica,sans-Serif" font-size="10.00">cppgc/type&#45;traits.h</text>
</a>
</g>
</g>
<!-- Node13&#45;&gt;Node14 -->
<g id="edge16" class="edge">
<title>Node13&#45;&gt;Node14</title>
<path fill="none" stroke="#63b8ff" d="M323.72,-115.81C321.26,-107.77 317.57,-95.68 314.43,-85.41"/>
<polygon fill="#63b8ff" stroke="#63b8ff" points="317.48,-84.44 311.21,-75.9 310.79,-86.49 317.48,-84.44"/>
</g>
<!-- Node14&#45;&gt;Node3 -->
<g id="edge17" class="edge">
<title>Node14&#45;&gt;Node3</title>
<path fill="none" stroke="#63b8ff" d="M321.35,-54.84C332.7,-46.89 349.47,-35.14 362.87,-25.75"/>
<polygon fill="#63b8ff" stroke="#63b8ff" points="364.32,-28.31 370.5,-19.7 360.3,-22.57 364.32,-28.31"/>
</g>
<!-- Node15&#45;&gt;Node6 -->
<g id="edge22" class="edge">
<title>Node15&#45;&gt;Node6</title>
<path fill="none" stroke="#63b8ff" d="M755.18,-182.29C757.78,-165.98 760.71,-131.24 743.45,-110.5 719.15,-81.27 675.8,-70.93 643.56,-67.4"/>
<polygon fill="#63b8ff" stroke="#63b8ff" points="643.95,-63.83 633.67,-66.41 643.32,-70.8 643.95,-63.83"/>
</g>
<!-- Node16 -->
<g id="node16" class="node">
<title>Node16</title>
<g id="a_node16"><a xlink:title=" ">
<polygon fill="#e0e0e0" stroke="#999999" points="734.45,-135.38 694.45,-135.38 694.45,-116.12 734.45,-116.12 734.45,-135.38"/>
<text text-anchor="middle" x="714.45" y="-121.88" font-family="Helvetica,sans-Serif" font-size="10.00">string</text>
</a>
</g>
</g>
<!-- Node15&#45;&gt;Node16 -->
<g id="edge21" class="edge">
<title>Node15&#45;&gt;Node16</title>
<path fill="none" stroke="#63b8ff" d="M748.03,-182.28C742.21,-172.65 732.8,-157.1 725.43,-144.9"/>
<polygon fill="#63b8ff" stroke="#63b8ff" points="728,-143.39 719.83,-136.64 722.01,-147.01 728,-143.39"/>
</g>
</g>
</svg>
