<?xml version="1.0" encoding="UTF-8" standalone="no"?>
<!DOCTYPE svg PUBLIC "-//W3C//DTD SVG 1.1//EN"
 "http://www.w3.org/Graphics/SVG/1.1/DTD/svg11.dtd">
<!-- Generated by graphviz version 8.0.5 (20230430.1635)
 -->
<!-- Title: v8::Data Pages: 1 -->
<svg width="770pt" height="878pt"
 viewBox="0.00 0.00 770.00 878.25" xmlns="http://www.w3.org/2000/svg" xmlns:xlink="http://www.w3.org/1999/xlink">
<g id="graph0" class="graph" transform="scale(1 1) rotate(0) translate(4 874.25)">
<title>v8::Data</title>
<!-- Node1 -->
<g id="node1" class="node">
<title>Node1</title>
<g id="a_node1"><a xlink:title=" ">
<polygon fill="#999999" stroke="#666666" points="51.25,-592.25 0,-592.25 0,-573 51.25,-573 51.25,-592.25"/>
<text text-anchor="middle" x="25.62" y="-578.75" font-family="Helvetica,sans-Serif" font-size="10.00">v8::Data</text>
</a>
</g>
</g>
<!-- Node2 -->
<g id="node2" class="node">
<title>Node2</title>
<g id="a_node2"><a xlink:href="classv8_1_1AccessorSignature.html" target="_top" xlink:title=" ">
<polygon fill="white" stroke="#666666" points="207.5,-703.25 94,-703.25 94,-684 207.5,-684 207.5,-703.25"/>
<text text-anchor="middle" x="150.75" y="-689.75" font-family="Helvetica,sans-Serif" font-size="10.00">v8::AccessorSignature</text>
</a>
</g>
</g>
<!-- Node1&#45;&gt;Node2 -->
<g id="edge1" class="edge">
<title>Node1&#45;&gt;Node2</title>
<path fill="none" stroke="#63b8ff" d="M34.58,-602.61C44.03,-623.81 61.78,-656.79 87.25,-675.62 91.52,-678.78 96.32,-681.38 101.33,-683.53"/>
<polygon fill="#63b8ff" stroke="#63b8ff" points="37.52,-601.58 30.4,-593.73 31.07,-604.3 37.52,-601.58"/>
</g>
<!-- Node3 -->
<g id="node3" class="node">
<title>Node3</title>
<g id="a_node3"><a xlink:href="classv8_1_1Module.html" target="_top" xlink:title=" ">
<polygon fill="white" stroke="#666666" points="182,-666.25 119.5,-666.25 119.5,-647 182,-647 182,-666.25"/>
<text text-anchor="middle" x="150.75" y="-652.75" font-family="Helvetica,sans-Serif" font-size="10.00">v8::Module</text>
</a>
</g>
</g>
<!-- Node1&#45;&gt;Node3 -->
<g id="edge2" class="edge">
<title>Node1&#45;&gt;Node3</title>
<path fill="none" stroke="#63b8ff" d="M41.92,-600.63C53.28,-612.95 69.77,-628.78 87.25,-638.62 96.99,-644.11 108.54,-648.05 119.05,-650.81"/>
<polygon fill="#63b8ff" stroke="#63b8ff" points="44.87,-598.56 35.61,-593.41 39.64,-603.21 44.87,-598.56"/>
</g>
<!-- Node4 -->
<g id="node4" class="node">
<title>Node4</title>
<g id="a_node4"><a xlink:href="classv8_1_1Private.html" target="_top" xlink:title=" ">
<polygon fill="white" stroke="#666666" points="181.62,-629.25 119.88,-629.25 119.88,-610 181.62,-610 181.62,-629.25"/>
<text text-anchor="middle" x="150.75" y="-615.75" font-family="Helvetica,sans-Serif" font-size="10.00">v8::Private</text>
</a>
</g>
</g>
<!-- Node1&#45;&gt;Node4 -->
<g id="edge3" class="edge">
<title>Node1&#45;&gt;Node4</title>
<path fill="none" stroke="#63b8ff" d="M62.11,-593.9C70.35,-596.47 79.1,-599.17 87.25,-601.62 97.74,-604.78 109.25,-608.13 119.51,-611.07"/>
<polygon fill="#63b8ff" stroke="#63b8ff" points="63.25,-590.27 52.66,-590.61 61.15,-596.95 63.25,-590.27"/>
</g>
<!-- Node5 -->
<g id="node5" class="node">
<title>Node5</title>
<g id="a_node5"><a xlink:href="classv8_1_1Signature.html" target="_top" xlink:title=" ">
<polygon fill="white" stroke="#666666" points="186.88,-592.25 114.62,-592.25 114.62,-573 186.88,-573 186.88,-592.25"/>
<text text-anchor="middle" x="150.75" y="-578.75" font-family="Helvetica,sans-Serif" font-size="10.00">v8::Signature</text>
</a>
</g>
</g>
<!-- Node1&#45;&gt;Node5 -->
<g id="edge4" class="edge">
<title>Node1&#45;&gt;Node5</title>
<path fill="none" stroke="#63b8ff" d="M62.28,-582.62C78.58,-582.62 97.84,-582.62 114.14,-582.62"/>
<polygon fill="#63b8ff" stroke="#63b8ff" points="62.54,-579.13 52.54,-582.62 62.54,-586.13 62.54,-579.13"/>
</g>
<!-- Node6 -->
<g id="node6" class="node">
<title>Node6</title>
<g id="a_node6"><a xlink:href="classv8_1_1Template.html" target="_top" xlink:title=" ">
<polygon fill="white" stroke="#666666" points="186.5,-555.25 115,-555.25 115,-536 186.5,-536 186.5,-555.25"/>
<text text-anchor="middle" x="150.75" y="-541.75" font-family="Helvetica,sans-Serif" font-size="10.00">v8::Template</text>
</a>
</g>
</g>
<!-- Node1&#45;&gt;Node6 -->
<g id="edge5" class="edge">
<title>Node1&#45;&gt;Node6</title>
<path fill="none" stroke="#63b8ff" d="M62.11,-571.35C70.35,-568.78 79.1,-566.08 87.25,-563.62 96.12,-560.96 105.72,-558.15 114.67,-555.57"/>
<polygon fill="#63b8ff" stroke="#63b8ff" points="61.15,-568.3 52.66,-574.64 63.25,-574.98 61.15,-568.3"/>
</g>
<!-- Node9 -->
<g id="node9" class="node">
<title>Node9</title>
<g id="a_node9"><a xlink:href="classv8_1_1UnboundModuleScript.html" target="_top" xlink:title=" ">
<polygon fill="white" stroke="#666666" points="214.25,-518.25 87.25,-518.25 87.25,-499 214.25,-499 214.25,-518.25"/>
<text text-anchor="middle" x="150.75" y="-504.75" font-family="Helvetica,sans-Serif" font-size="10.00">v8::UnboundModuleScript</text>
</a>
</g>
</g>
<!-- Node1&#45;&gt;Node9 -->
<g id="edge8" class="edge">
<title>Node1&#45;&gt;Node9</title>
<path fill="none" stroke="#63b8ff" d="M41.92,-564.62C53.28,-552.3 69.77,-536.47 87.25,-526.62 92.76,-523.52 98.85,-520.91 105,-518.73"/>
<polygon fill="#63b8ff" stroke="#63b8ff" points="39.64,-562.04 35.61,-571.84 44.87,-566.69 39.64,-562.04"/>
</g>
<!-- Node10 -->
<g id="node10" class="node">
<title>Node10</title>
<g id="a_node10"><a xlink:href="classv8_1_1Value.html" target="_top" xlink:title=" ">
<polygon fill="white" stroke="#666666" points="178.62,-481.25 122.88,-481.25 122.88,-462 178.62,-462 178.62,-481.25"/>
<text text-anchor="middle" x="150.75" y="-467.75" font-family="Helvetica,sans-Serif" font-size="10.00">v8::Value</text>
</a>
</g>
</g>
<!-- Node1&#45;&gt;Node10 -->
<g id="edge9" class="edge">
<title>Node1&#45;&gt;Node10</title>
<path fill="none" stroke="#63b8ff" d="M34.58,-562.64C44.03,-541.44 61.78,-508.46 87.25,-489.62 97.51,-482.04 110.89,-477.64 122.64,-475.1"/>
<polygon fill="#63b8ff" stroke="#63b8ff" points="31.07,-560.95 30.4,-571.52 37.52,-563.67 31.07,-560.95"/>
</g>
<!-- Node7 -->
<g id="node7" class="node">
<title>Node7</title>
<g id="a_node7"><a xlink:href="classv8_1_1FunctionTemplate.html" target="_top" xlink:title=" ">
<polygon fill="white" stroke="#666666" points="359.25,-592.25 250.25,-592.25 250.25,-573 359.25,-573 359.25,-592.25"/>
<text text-anchor="middle" x="304.75" y="-578.75" font-family="Helvetica,sans-Serif" font-size="10.00">v8::FunctionTemplate</text>
</a>
</g>
</g>
<!-- Node6&#45;&gt;Node7 -->
<g id="edge6" class="edge">
<title>Node6&#45;&gt;Node7</title>
<path fill="none" stroke="#63b8ff" d="M197.07,-556.66C217.76,-561.69 242.09,-567.62 262.29,-572.53"/>
<polygon fill="#63b8ff" stroke="#63b8ff" points="198.17,-553.08 187.62,-554.11 196.51,-559.88 198.17,-553.08"/>
</g>
<!-- Node8 -->
<g id="node8" class="node">
<title>Node8</title>
<g id="a_node8"><a xlink:href="classv8_1_1ObjectTemplate.html" target="_top" xlink:title=" ">
<polygon fill="white" stroke="#666666" points="354.75,-555.25 254.75,-555.25 254.75,-536 354.75,-536 354.75,-555.25"/>
<text text-anchor="middle" x="304.75" y="-541.75" font-family="Helvetica,sans-Serif" font-size="10.00">v8::ObjectTemplate</text>
</a>
</g>
</g>
<!-- Node6&#45;&gt;Node8 -->
<g id="edge7" class="edge">
<title>Node6&#45;&gt;Node8</title>
<path fill="none" stroke="#63b8ff" d="M197.41,-545.62C215.37,-545.62 236.04,-545.62 254.35,-545.62"/>
<polygon fill="#63b8ff" stroke="#63b8ff" points="197.62,-542.13 187.62,-545.62 197.62,-549.13 197.62,-542.13"/>
</g>
<!-- Node11 -->
<g id="node11" class="node">
<title>Node11</title>
<g id="a_node11"><a xlink:href="classv8_1_1External.html" target="_top" xlink:title=" ">
<polygon fill="white" stroke="#666666" points="337.5,-518.25 272,-518.25 272,-499 337.5,-499 337.5,-518.25"/>
<text text-anchor="middle" x="304.75" y="-504.75" font-family="Helvetica,sans-Serif" font-size="10.00">v8::External</text>
</a>
</g>
</g>
<!-- Node10&#45;&gt;Node11 -->
<g id="edge10" class="edge">
<title>Node10&#45;&gt;Node11</title>
<path fill="none" stroke="#63b8ff" d="M189.57,-480.83C214.78,-486.97 247.57,-494.95 271.54,-500.78"/>
<polygon fill="#63b8ff" stroke="#63b8ff" points="190.47,-477.2 179.92,-478.24 188.81,-484.01 190.47,-477.2"/>
</g>
<!-- Node12 -->
<g id="node12" class="node">
<title>Node12</title>
<g id="a_node12"><a xlink:href="classv8_1_1Object.html" target="_top" xlink:title=" ">
<polygon fill="white" stroke="#666666" points="334.5,-481.25 275,-481.25 275,-462 334.5,-462 334.5,-481.25"/>
<text text-anchor="middle" x="304.75" y="-467.75" font-family="Helvetica,sans-Serif" font-size="10.00">v8::Object</text>
</a>
</g>
</g>
<!-- Node10&#45;&gt;Node12 -->
<g id="edge11" class="edge">
<title>Node10&#45;&gt;Node12</title>
<path fill="none" stroke="#63b8ff" d="M189.66,-471.62C216,-471.62 250.58,-471.62 274.74,-471.62"/>
<polygon fill="#63b8ff" stroke="#63b8ff" points="189.92,-468.13 179.92,-471.62 189.92,-475.13 189.92,-468.13"/>
</g>
<!-- Node45 -->
<g id="node42" class="node">
<title>Node45</title>
<g id="a_node42"><a xlink:href="classv8_1_1Primitive.html" target="_top" xlink:title=" ">
<polygon fill="white" stroke="#666666" points="339.38,-93.25 270.12,-93.25 270.12,-74 339.38,-74 339.38,-93.25"/>
<text text-anchor="middle" x="304.75" y="-79.75" font-family="Helvetica,sans-Serif" font-size="10.00">v8::Primitive</text>
</a>
</g>
</g>
<!-- Node10&#45;&gt;Node45 -->
<g id="edge41" class="edge">
<title>Node10&#45;&gt;Node45</title>
<path fill="none" stroke="#63b8ff" d="M159.5,-451.83C187.06,-381.48 279.73,-144.95 299.87,-93.54"/>
<polygon fill="#63b8ff" stroke="#63b8ff" points="156.05,-450.06 155.66,-460.64 162.57,-452.61 156.05,-450.06"/>
</g>
<!-- Node13 -->
<g id="node13" class="node">
<title>Node13</title>
<g id="a_node13"><a xlink:href="classv8_1_1Array.html" target="_top" xlink:title=" ">
<polygon fill="white" stroke="#666666" points="481.38,-833.25 427.88,-833.25 427.88,-814 481.38,-814 481.38,-833.25"/>
<text text-anchor="middle" x="454.62" y="-819.75" font-family="Helvetica,sans-Serif" font-size="10.00">v8::Array</text>
</a>
</g>
</g>
<!-- Node12&#45;&gt;Node13 -->
<g id="edge12" class="edge">
<title>Node12&#45;&gt;Node13</title>
<path fill="none" stroke="#63b8ff" d="M344.98,-478.92C350.45,-481.49 355.48,-484.96 359.25,-489.62 448.11,-599.55 304.99,-696.84 395.25,-805.62 403.11,-815.09 415.83,-819.68 427.39,-821.86"/>
<polygon fill="#63b8ff" stroke="#63b8ff" points="346.43,-475.36 335.83,-475.2 344.01,-481.93 346.43,-475.36"/>
</g>
<!-- Node14 -->
<g id="node14" class="node">
<title>Node14</title>
<g id="a_node14"><a xlink:href="classv8_1_1ArrayBuffer.html" target="_top" xlink:title=" ">
<polygon fill="white" stroke="#666666" points="494.12,-796.25 415.12,-796.25 415.12,-777 494.12,-777 494.12,-796.25"/>
<text text-anchor="middle" x="454.62" y="-782.75" font-family="Helvetica,sans-Serif" font-size="10.00">v8::ArrayBuffer</text>
</a>
</g>
</g>
<!-- Node12&#45;&gt;Node14 -->
<g id="edge13" class="edge">
<title>Node12&#45;&gt;Node14</title>
<path fill="none" stroke="#63b8ff" d="M344.92,-478.97C350.39,-481.54 355.44,-484.99 359.25,-489.62 438.57,-586.27 314.7,-673 395.25,-768.62 400.31,-774.63 407.32,-778.66 414.73,-781.37"/>
<polygon fill="#63b8ff" stroke="#63b8ff" points="346.36,-475.41 335.77,-475.25 343.95,-481.98 346.36,-475.41"/>
</g>
<!-- Node15 -->
<g id="node15" class="node">
<title>Node15</title>
<g id="a_node15"><a xlink:href="classv8_1_1ArrayBufferView.html" target="_top" xlink:title=" ">
<polygon fill="white" stroke="#666666" points="505,-759.25 404.25,-759.25 404.25,-740 505,-740 505,-759.25"/>
<text text-anchor="middle" x="454.62" y="-745.75" font-family="Helvetica,sans-Serif" font-size="10.00">v8::ArrayBufferView</text>
</a>
</g>
</g>
<!-- Node12&#45;&gt;Node15 -->
<g id="edge14" class="edge">
<title>Node12&#45;&gt;Node15</title>
<path fill="none" stroke="#63b8ff" d="M345.01,-479.11C350.43,-481.66 355.44,-485.07 359.25,-489.62 429.05,-573.01 324.4,-649.14 395.25,-731.62 397.95,-734.76 401.17,-737.36 404.71,-739.51"/>
<polygon fill="#63b8ff" stroke="#63b8ff" points="346.56,-475.59 335.97,-475.4 344.13,-482.15 346.56,-475.59"/>
</g>
<!-- Node29 -->
<g id="node26" class="node">
<title>Node29</title>
<g id="a_node26"><a xlink:href="classv8_1_1BigIntObject.html" target="_top" xlink:title=" ">
<polygon fill="white" stroke="#666666" points="497.12,-722.25 412.12,-722.25 412.12,-703 497.12,-703 497.12,-722.25"/>
<text text-anchor="middle" x="454.62" y="-708.75" font-family="Helvetica,sans-Serif" font-size="10.00">v8::BigIntObject</text>
</a>
</g>
</g>
<!-- Node12&#45;&gt;Node29 -->
<g id="edge25" class="edge">
<title>Node12&#45;&gt;Node29</title>
<path fill="none" stroke="#63b8ff" d="M344.9,-479.2C350.34,-481.74 355.38,-485.12 359.25,-489.62 419.55,-559.78 334.06,-625.25 395.25,-694.62 399.67,-699.64 405.45,-703.27 411.65,-705.9"/>
<polygon fill="#63b8ff" stroke="#63b8ff" points="346.45,-475.67 335.86,-475.49 344.02,-482.24 346.45,-475.67"/>
</g>
<!-- Node30 -->
<g id="node27" class="node">
<title>Node30</title>
<g id="a_node27"><a xlink:href="classv8_1_1BooleanObject.html" target="_top" xlink:title=" ">
<polygon fill="white" stroke="#666666" points="502,-685.25 407.25,-685.25 407.25,-666 502,-666 502,-685.25"/>
<text text-anchor="middle" x="454.62" y="-671.75" font-family="Helvetica,sans-Serif" font-size="10.00">v8::BooleanObject</text>
</a>
</g>
</g>
<!-- Node12&#45;&gt;Node30 -->
<g id="edge26" class="edge">
<title>Node12&#45;&gt;Node30</title>
<path fill="none" stroke="#63b8ff" d="M344.93,-479.41C350.32,-481.92 355.33,-485.24 359.25,-489.62 410.1,-546.6 343.68,-601.31 395.25,-657.62 398.54,-661.22 402.54,-664.11 406.88,-666.42"/>
<polygon fill="#63b8ff" stroke="#63b8ff" points="346.57,-475.91 335.98,-475.7 344.13,-482.47 346.57,-475.91"/>
</g>
<!-- Node31 -->
<g id="node28" class="node">
<title>Node31</title>
<g id="a_node28"><a xlink:href="classv8_1_1Date.html" target="_top" xlink:title=" ">
<polygon fill="white" stroke="#666666" points="480.25,-648.25 429,-648.25 429,-629 480.25,-629 480.25,-648.25"/>
<text text-anchor="middle" x="454.62" y="-634.75" font-family="Helvetica,sans-Serif" font-size="10.00">v8::Date</text>
</a>
</g>
</g>
<!-- Node12&#45;&gt;Node31 -->
<g id="edge27" class="edge">
<title>Node12&#45;&gt;Node31</title>
<path fill="none" stroke="#63b8ff" d="M344.71,-479.61C350.13,-482.09 355.21,-485.35 359.25,-489.62 400.73,-533.51 353.22,-577.27 395.25,-620.62 403.96,-629.61 417.04,-634.14 428.62,-636.41"/>
<polygon fill="#63b8ff" stroke="#63b8ff" points="346.34,-476.11 335.75,-475.92 343.91,-482.67 346.34,-476.11"/>
</g>
<!-- Node32 -->
<g id="node29" class="node">
<title>Node32</title>
<g id="a_node29"><a xlink:href="classv8_1_1FinalizationGroup.html" target="_top" xlink:title=" ">
<polygon fill="white" stroke="#666666" points="507.62,-611.25 401.62,-611.25 401.62,-592 507.62,-592 507.62,-611.25"/>
<text text-anchor="middle" x="454.62" y="-597.75" font-family="Helvetica,sans-Serif" font-size="10.00">v8::FinalizationGroup</text>
</a>
</g>
</g>
<!-- Node12&#45;&gt;Node32 -->
<g id="edge28" class="edge">
<title>Node12&#45;&gt;Node32</title>
<path fill="none" stroke="#63b8ff" d="M345.09,-480.3C350.28,-482.69 355.2,-485.74 359.25,-489.62 391.53,-520.6 362.58,-553.06 395.25,-583.62 398.66,-586.81 402.62,-589.44 406.84,-591.6"/>
<polygon fill="#63b8ff" stroke="#63b8ff" points="346.51,-476.72 335.92,-476.46 344.04,-483.27 346.51,-476.72"/>
</g>
<!-- Node33 -->
<g id="node30" class="node">
<title>Node33</title>
<g id="a_node30"><a xlink:href="classv8_1_1Function.html" target="_top" xlink:title=" ">
<polygon fill="white" stroke="#666666" points="488.88,-574.25 420.38,-574.25 420.38,-555 488.88,-555 488.88,-574.25"/>
<text text-anchor="middle" x="454.62" y="-560.75" font-family="Helvetica,sans-Serif" font-size="10.00">v8::Function</text>
</a>
</g>
</g>
<!-- Node12&#45;&gt;Node33 -->
<g id="edge29" class="edge">
<title>Node12&#45;&gt;Node33</title>
<path fill="none" stroke="#63b8ff" d="M344.77,-481.2C349.94,-483.46 354.93,-486.23 359.25,-489.62 382.81,-508.14 371.46,-528.41 395.25,-546.62 402.49,-552.17 411.46,-556.02 420.17,-558.69"/>
<polygon fill="#63b8ff" stroke="#63b8ff" points="346.35,-477.68 335.76,-477.46 343.9,-484.24 346.35,-477.68"/>
</g>
<!-- Node34 -->
<g id="node31" class="node">
<title>Node34</title>
<g id="a_node31"><a xlink:href="classv8_1_1Map.html" target="_top" xlink:title=" ">
<polygon fill="white" stroke="#666666" points="479.5,-537.25 429.75,-537.25 429.75,-518 479.5,-518 479.5,-537.25"/>
<text text-anchor="middle" x="454.62" y="-523.75" font-family="Helvetica,sans-Serif" font-size="10.00">v8::Map</text>
</a>
</g>
</g>
<!-- Node12&#45;&gt;Node34 -->
<g id="edge30" class="edge">
<title>Node12&#45;&gt;Node34</title>
<path fill="none" stroke="#63b8ff" d="M345.3,-484.02C350.05,-485.77 354.79,-487.66 359.25,-489.62 375.99,-497.02 378.41,-502.45 395.25,-509.62 406.18,-514.28 418.72,-518.31 429.36,-521.37"/>
<polygon fill="#63b8ff" stroke="#63b8ff" points="346.59,-480.41 335.99,-480.39 344.27,-487.01 346.59,-480.41"/>
</g>
<!-- Node35 -->
<g id="node32" class="node">
<title>Node35</title>
<g id="a_node32"><a xlink:href="classv8_1_1NumberObject.html" target="_top" xlink:title=" ">
<polygon fill="white" stroke="#666666" points="501.62,-500.25 407.62,-500.25 407.62,-481 501.62,-481 501.62,-500.25"/>
<text text-anchor="middle" x="454.62" y="-486.75" font-family="Helvetica,sans-Serif" font-size="10.00">v8::NumberObject</text>
</a>
</g>
</g>
<!-- Node12&#45;&gt;Node35 -->
<g id="edge31" class="edge">
<title>Node12&#45;&gt;Node35</title>
<path fill="none" stroke="#63b8ff" d="M345.66,-476.75C364.67,-479.2 387.52,-482.13 407.3,-484.67"/>
<polygon fill="#63b8ff" stroke="#63b8ff" points="346.33,-473.18 335.97,-475.38 345.44,-480.12 346.33,-473.18"/>
</g>
<!-- Node36 -->
<g id="node33" class="node">
<title>Node36</title>
<g id="a_node33"><a xlink:href="classv8_1_1Promise.html" target="_top" xlink:title=" ">
<polygon fill="white" stroke="#666666" points="488.12,-463.25 421.12,-463.25 421.12,-444 488.12,-444 488.12,-463.25"/>
<text text-anchor="middle" x="454.62" y="-449.75" font-family="Helvetica,sans-Serif" font-size="10.00">v8::Promise</text>
</a>
</g>
</g>
<!-- Node12&#45;&gt;Node36 -->
<g id="edge32" class="edge">
<title>Node12&#45;&gt;Node36</title>
<path fill="none" stroke="#63b8ff" d="M345.66,-466.77C369.22,-463.9 398.68,-460.31 420.87,-457.61"/>
<polygon fill="#63b8ff" stroke="#63b8ff" points="345.47,-463.39 335.97,-468.07 346.32,-470.33 345.47,-463.39"/>
</g>
<!-- Node37 -->
<g id="node34" class="node">
<title>Node37</title>
<g id="a_node34"><a xlink:href="classv8_1_1Promise_1_1Resolver.html" target="_top" xlink:title=" ">
<polygon fill="white" stroke="#666666" points="509.5,-426.25 399.75,-426.25 399.75,-407 509.5,-407 509.5,-426.25"/>
<text text-anchor="middle" x="454.62" y="-412.75" font-family="Helvetica,sans-Serif" font-size="10.00">v8::Promise::Resolver</text>
</a>
</g>
</g>
<!-- Node12&#45;&gt;Node37 -->
<g id="edge33" class="edge">
<title>Node12&#45;&gt;Node37</title>
<path fill="none" stroke="#63b8ff" d="M338.24,-457.34C355.1,-450.15 376.12,-441.51 395.25,-434.62 402.93,-431.86 411.28,-429.13 419.19,-426.66"/>
<polygon fill="#63b8ff" stroke="#63b8ff" points="337.13,-454.44 329.33,-461.61 339.9,-460.87 337.13,-454.44"/>
</g>
<!-- Node38 -->
<g id="node35" class="node">
<title>Node38</title>
<g id="a_node35"><a xlink:href="classv8_1_1Proxy.html" target="_top" xlink:title=" ">
<polygon fill="white" stroke="#666666" points="482.12,-389.25 427.12,-389.25 427.12,-370 482.12,-370 482.12,-389.25"/>
<text text-anchor="middle" x="454.62" y="-375.75" font-family="Helvetica,sans-Serif" font-size="10.00">v8::Proxy</text>
</a>
</g>
</g>
<!-- Node12&#45;&gt;Node38 -->
<g id="edge34" class="edge">
<title>Node12&#45;&gt;Node38</title>
<path fill="none" stroke="#63b8ff" d="M322.69,-454.09C339.65,-437.44 367.2,-412.77 395.25,-397.62 405.05,-392.34 416.63,-388.36 426.88,-385.5"/>
<polygon fill="#63b8ff" stroke="#63b8ff" points="320.84,-450.99 316.26,-460.54 325.8,-455.93 320.84,-450.99"/>
</g>
<!-- Node39 -->
<g id="node36" class="node">
<title>Node39</title>
<g id="a_node36"><a xlink:href="classv8_1_1RegExp.html" target="_top" xlink:title=" ">
<polygon fill="white" stroke="#666666" points="486.62,-352.25 422.62,-352.25 422.62,-333 486.62,-333 486.62,-352.25"/>
<text text-anchor="middle" x="454.62" y="-338.75" font-family="Helvetica,sans-Serif" font-size="10.00">v8::RegExp</text>
</a>
</g>
</g>
<!-- Node12&#45;&gt;Node39 -->
<g id="edge35" class="edge">
<title>Node12&#45;&gt;Node39</title>
<path fill="none" stroke="#63b8ff" d="M316.41,-452.25C331.02,-427.45 359.57,-384.81 395.25,-360.62 403.33,-355.15 413.14,-351.29 422.39,-348.58"/>
<polygon fill="#63b8ff" stroke="#63b8ff" points="312.94,-450.26 311.02,-460.68 319.02,-453.73 312.94,-450.26"/>
</g>
<!-- Node40 -->
<g id="node37" class="node">
<title>Node40</title>
<g id="a_node37"><a xlink:href="classv8_1_1Set.html" target="_top" xlink:title=" ">
<polygon fill="white" stroke="#666666" points="477.62,-315.25 431.62,-315.25 431.62,-296 477.62,-296 477.62,-315.25"/>
<text text-anchor="middle" x="454.62" y="-301.75" font-family="Helvetica,sans-Serif" font-size="10.00">v8::Set</text>
</a>
</g>
</g>
<!-- Node12&#45;&gt;Node40 -->
<g id="edge36" class="edge">
<title>Node12&#45;&gt;Node40</title>
<path fill="none" stroke="#63b8ff" d="M312.6,-451.35C324.41,-419.45 351.62,-357.7 395.25,-323.62 405.61,-315.53 419.63,-311.05 431.34,-308.59"/>
<polygon fill="#63b8ff" stroke="#63b8ff" points="309,-450.04 308.95,-460.64 315.59,-452.39 309,-450.04"/>
</g>
<!-- Node41 -->
<g id="node38" class="node">
<title>Node41</title>
<g id="a_node38"><a xlink:href="classv8_1_1SharedArrayBuffer.html" target="_top" xlink:title=" ">
<polygon fill="white" stroke="#666666" points="509.5,-278.25 399.75,-278.25 399.75,-259 509.5,-259 509.5,-278.25"/>
<text text-anchor="middle" x="454.62" y="-264.75" font-family="Helvetica,sans-Serif" font-size="10.00">v8::SharedArrayBuffer</text>
</a>
</g>
</g>
<!-- Node12&#45;&gt;Node41 -->
<g id="edge37" class="edge">
<title>Node12&#45;&gt;Node41</title>
<path fill="none" stroke="#63b8ff" d="M309.96,-451.21C318.87,-413.17 343.23,-331.31 395.25,-286.62 398.95,-283.45 403.21,-280.83 407.7,-278.67"/>
<polygon fill="#63b8ff" stroke="#63b8ff" points="306.34,-450.39 307.6,-460.91 313.17,-451.9 306.34,-450.39"/>
</g>
<!-- Node42 -->
<g id="node39" class="node">
<title>Node42</title>
<g id="a_node39"><a xlink:href="classv8_1_1StringObject.html" target="_top" xlink:title=" ">
<polygon fill="white" stroke="#666666" points="497.12,-241.25 412.12,-241.25 412.12,-222 497.12,-222 497.12,-241.25"/>
<text text-anchor="middle" x="454.62" y="-227.75" font-family="Helvetica,sans-Serif" font-size="10.00">v8::StringObject</text>
</a>
</g>
</g>
<!-- Node12&#45;&gt;Node42 -->
<g id="edge38" class="edge">
<title>Node12&#45;&gt;Node42</title>
<path fill="none" stroke="#63b8ff" d="M308.17,-450.8C314.38,-407.08 334.85,-305.15 395.25,-249.62 400.01,-245.25 405.82,-241.93 411.9,-239.43"/>
<polygon fill="#63b8ff" stroke="#63b8ff" points="304.6,-450.14 306.78,-460.51 311.54,-451.04 304.6,-450.14"/>
</g>
<!-- Node43 -->
<g id="node40" class="node">
<title>Node43</title>
<g id="a_node40"><a xlink:href="classv8_1_1SymbolObject.html" target="_top" xlink:title=" ">
<polygon fill="white" stroke="#666666" points="500.5,-204.25 408.75,-204.25 408.75,-185 500.5,-185 500.5,-204.25"/>
<text text-anchor="middle" x="454.62" y="-190.75" font-family="Helvetica,sans-Serif" font-size="10.00">v8::SymbolObject</text>
</a>
</g>
</g>
<!-- Node12&#45;&gt;Node43 -->
<g id="edge39" class="edge">
<title>Node12&#45;&gt;Node43</title>
<path fill="none" stroke="#63b8ff" d="M306.78,-451.09C310.33,-402.49 326.04,-279.54 395.25,-212.62 399.06,-208.94 403.61,-206.01 408.47,-203.67"/>
<polygon fill="#63b8ff" stroke="#63b8ff" points="303.24,-450.56 306.11,-460.76 310.23,-451 303.24,-450.56"/>
</g>
<!-- Node44 -->
<g id="node41" class="node">
<title>Node44</title>
<g id="a_node41"><a xlink:href="classv8_1_1WasmModuleObject.html" target="_top" xlink:title=" ">
<polygon fill="white" stroke="#666666" points="514,-167.25 395.25,-167.25 395.25,-148 514,-148 514,-167.25"/>
<text text-anchor="middle" x="454.62" y="-153.75" font-family="Helvetica,sans-Serif" font-size="10.00">v8::WasmModuleObject</text>
</a>
</g>
</g>
<!-- Node12&#45;&gt;Node44 -->
<g id="edge40" class="edge">
<title>Node12&#45;&gt;Node44</title>
<path fill="none" stroke="#63b8ff" d="M305.74,-450.74C306.88,-397.22 317.45,-253.85 395.25,-175.62 398.39,-172.47 402.07,-169.86 406.03,-167.71"/>
<polygon fill="#63b8ff" stroke="#63b8ff" points="302.23,-450.5 305.62,-460.54 309.23,-450.58 302.23,-450.5"/>
</g>
<!-- Node16 -->
<g id="node16" class="node">
<title>Node16</title>
<g id="a_node16"><a xlink:href="classv8_1_1DataView.html" target="_top" xlink:title=" ">
<polygon fill="white" stroke="#666666" points="626.38,-777.25 553.38,-777.25 553.38,-758 626.38,-758 626.38,-777.25"/>
<text text-anchor="middle" x="589.88" y="-763.75" font-family="Helvetica,sans-Serif" font-size="10.00">v8::DataView</text>
</a>
</g>
</g>
<!-- Node15&#45;&gt;Node16 -->
<g id="edge15" class="edge">
<title>Node15&#45;&gt;Node16</title>
<path fill="none" stroke="#63b8ff" d="M515.79,-757.75C528.48,-759.47 541.49,-761.22 552.95,-762.77"/>
<polygon fill="#63b8ff" stroke="#63b8ff" points="516.62,-754.2 506.24,-756.33 515.68,-761.13 516.62,-754.2"/>
</g>
<!-- Node17 -->
<g id="node17" class="node">
<title>Node17</title>
<g id="a_node17"><a xlink:href="classv8_1_1TypedArray.html" target="_top" xlink:title=" ">
<polygon fill="#fff0f0" stroke="red" points="629.75,-740.25 550,-740.25 550,-721 629.75,-721 629.75,-740.25"/>
<text text-anchor="middle" x="589.88" y="-726.75" font-family="Helvetica,sans-Serif" font-size="10.00">v8::TypedArray</text>
</a>
</g>
</g>
<!-- Node15&#45;&gt;Node17 -->
<g id="edge16" class="edge">
<title>Node15&#45;&gt;Node17</title>
<path fill="none" stroke="#63b8ff" d="M516.05,-741.01C527.45,-739.38 539.09,-737.72 549.62,-736.22"/>
<polygon fill="#63b8ff" stroke="#63b8ff" points="515.65,-737.67 506.24,-742.55 516.64,-744.6 515.65,-737.67"/>
</g>
<!-- Node18 -->
<g id="node18" class="node">
<title>Node18</title>
<g id="a_node18"><a xlink:href="classv8_1_1BigInt64Array.html" target="_top" xlink:title=" ">
<polygon fill="white" stroke="#666666" points="758.62,-870.25 669.12,-870.25 669.12,-851 758.62,-851 758.62,-870.25"/>
<text text-anchor="middle" x="713.88" y="-856.75" font-family="Helvetica,sans-Serif" font-size="10.00">v8::BigInt64Array</text>
</a>
</g>
</g>
<!-- Node17&#45;&gt;Node18 -->
<g id="edge17" class="edge">
<title>Node17&#45;&gt;Node18</title>
<path fill="none" stroke="#63b8ff" d="M628.03,-746.9C628.62,-747.46 629.2,-748.03 629.75,-748.62 660.29,-781.31 634.1,-811.01 665.75,-842.62 668.97,-845.84 672.83,-848.5 676.93,-850.68"/>
<polygon fill="#63b8ff" stroke="#63b8ff" points="630.53,-743.67 620.38,-740.62 626.41,-749.33 630.53,-743.67"/>
</g>
<!-- Node19 -->
<g id="node19" class="node">
<title>Node19</title>
<g id="a_node19"><a xlink:href="classv8_1_1BigUint64Array.html" target="_top" xlink:title=" ">
<polygon fill="white" stroke="#666666" points="762,-833.25 665.75,-833.25 665.75,-814 762,-814 762,-833.25"/>
<text text-anchor="middle" x="713.88" y="-819.75" font-family="Helvetica,sans-Serif" font-size="10.00">v8::BigUint64Array</text>
</a>
</g>
</g>
<!-- Node17&#45;&gt;Node19 -->
<g id="edge18" class="edge">
<title>Node17&#45;&gt;Node19</title>
<path fill="none" stroke="#63b8ff" d="M627.05,-746.42C627.98,-747.13 628.88,-747.86 629.75,-748.62 652.27,-768.39 642.57,-786.64 665.75,-805.62 669.54,-808.73 673.93,-811.34 678.48,-813.52"/>
<polygon fill="#63b8ff" stroke="#63b8ff" points="629.37,-743.11 619.04,-740.73 625.62,-749.03 629.37,-743.11"/>
</g>
<!-- Node20 -->
<g id="node20" class="node">
<title>Node20</title>
<g id="a_node20"><a xlink:href="classv8_1_1Float32Array.html" target="_top" xlink:title=" ">
<polygon fill="white" stroke="#666666" points="756.75,-796.25 671,-796.25 671,-777 756.75,-777 756.75,-796.25"/>
<text text-anchor="middle" x="713.88" y="-782.75" font-family="Helvetica,sans-Serif" font-size="10.00">v8::Float32Array</text>
</a>
</g>
</g>
<!-- Node17&#45;&gt;Node20 -->
<g id="edge19" class="edge">
<title>Node17&#45;&gt;Node20</title>
<path fill="none" stroke="#63b8ff" d="M623.1,-745.32C625.36,-746.42 627.6,-747.53 629.75,-748.62 646.07,-756.92 649.16,-760.9 665.75,-768.62 671.78,-771.44 678.39,-774.16 684.69,-776.61"/>
<polygon fill="#63b8ff" stroke="#63b8ff" points="624.75,-741.76 614.21,-740.63 621.74,-748.08 624.75,-741.76"/>
</g>
<!-- Node21 -->
<g id="node21" class="node">
<title>Node21</title>
<g id="a_node21"><a xlink:href="classv8_1_1Float64Array.html" target="_top" xlink:title=" ">
<polygon fill="white" stroke="#666666" points="756.75,-759.25 671,-759.25 671,-740 756.75,-740 756.75,-759.25"/>
<text text-anchor="middle" x="713.88" y="-745.75" font-family="Helvetica,sans-Serif" font-size="10.00">v8::Float64Array</text>
</a>
</g>
</g>
<!-- Node17&#45;&gt;Node21 -->
<g id="edge20" class="edge">
<title>Node17&#45;&gt;Node21</title>
<path fill="none" stroke="#63b8ff" d="M640.74,-738.39C650.69,-739.94 661.06,-741.56 670.73,-743.06"/>
<polygon fill="#63b8ff" stroke="#63b8ff" points="641.57,-734.82 631.15,-736.74 640.49,-741.74 641.57,-734.82"/>
</g>
<!-- Node22 -->
<g id="node22" class="node">
<title>Node22</title>
<g id="a_node22"><a xlink:href="classv8_1_1Int16Array.html" target="_top" xlink:title=" ">
<polygon fill="white" stroke="#666666" points="751.5,-722.25 676.25,-722.25 676.25,-703 751.5,-703 751.5,-722.25"/>
<text text-anchor="middle" x="713.88" y="-708.75" font-family="Helvetica,sans-Serif" font-size="10.00">v8::Int16Array</text>
</a>
</g>
</g>
<!-- Node17&#45;&gt;Node22 -->
<g id="edge21" class="edge">
<title>Node17&#45;&gt;Node22</title>
<path fill="none" stroke="#63b8ff" d="M640.7,-723.27C652.42,-721.55 664.7,-719.73 675.75,-718.1"/>
<polygon fill="#63b8ff" stroke="#63b8ff" points="640.53,-719.91 631.15,-724.83 641.55,-726.83 640.53,-719.91"/>
</g>
<!-- Node23 -->
<g id="node23" class="node">
<title>Node23</title>
<g id="a_node23"><a xlink:href="classv8_1_1Int32Array.html" target="_top" xlink:title=" ">
<polygon fill="white" stroke="#666666" points="751.5,-685.25 676.25,-685.25 676.25,-666 751.5,-666 751.5,-685.25"/>
<text text-anchor="middle" x="713.88" y="-671.75" font-family="Helvetica,sans-Serif" font-size="10.00">v8::Int32Array</text>
</a>
</g>
</g>
<!-- Node17&#45;&gt;Node23 -->
<g id="edge22" class="edge">
<title>Node17&#45;&gt;Node23</title>
<path fill="none" stroke="#63b8ff" d="M619.49,-715.7C633.32,-708.68 650.25,-700.4 665.75,-693.62 672.01,-690.89 678.83,-688.15 685.29,-685.66"/>
<polygon fill="#63b8ff" stroke="#63b8ff" points="618.34,-712.86 611.03,-720.54 621.53,-719.1 618.34,-712.86"/>
</g>
<!-- Node24 -->
<g id="node24" class="node">
<title>Node24</title>
<g id="a_node24"><a xlink:href="classv8_1_1Int8Array.html" target="_top" xlink:title=" ">
<polygon fill="white" stroke="#666666" points="748.88,-648.25 678.88,-648.25 678.88,-629 748.88,-629 748.88,-648.25"/>
<text text-anchor="middle" x="713.88" y="-634.75" font-family="Helvetica,sans-Serif" font-size="10.00">v8::Int8Array</text>
</a>
</g>
</g>
<!-- Node17&#45;&gt;Node24 -->
<g id="edge23" class="edge">
<title>Node17&#45;&gt;Node24</title>
<path fill="none" stroke="#63b8ff" d="M605.45,-712.4C619.44,-695.93 641.9,-671.99 665.75,-656.62 670.46,-653.59 675.76,-650.95 681.07,-648.69"/>
<polygon fill="#63b8ff" stroke="#63b8ff" points="602.28,-709.74 598.6,-719.68 607.68,-714.21 602.28,-709.74"/>
</g>
<!-- Node25 -->
<g id="node25" class="node">
<title>Node25</title>
<g id="a_node25"><a xlink:href="classv8_1_1Uint16Array.html" target="_top" xlink:title=" ">
<polygon fill="white" stroke="#666666" points="754.88,-611.25 672.88,-611.25 672.88,-592 754.88,-592 754.88,-611.25"/>
<text text-anchor="middle" x="713.88" y="-597.75" font-family="Helvetica,sans-Serif" font-size="10.00">v8::Uint16Array</text>
</a>
</g>
</g>
<!-- Node17&#45;&gt;Node25 -->
<g id="edge24" class="edge">
<title>Node17&#45;&gt;Node25</title>
<path fill="none" stroke="#63b8ff" d="M599.56,-710.85C611.27,-686.28 634.35,-644.56 665.75,-619.62 669.73,-616.47 674.32,-613.81 679.05,-611.6"/>
<polygon fill="#63b8ff" stroke="#63b8ff" points="596.11,-708.97 595.11,-719.52 602.47,-711.9 596.11,-708.97"/>
</g>
<!-- Node46 -->
<g id="node43" class="node">
<title>Node46</title>
<g id="a_node43"><a xlink:href="classv8_1_1BigInt.html" target="_top" xlink:title=" ">
<polygon fill="white" stroke="#666666" points="482.88,-130.25 426.38,-130.25 426.38,-111 482.88,-111 482.88,-130.25"/>
<text text-anchor="middle" x="454.62" y="-116.75" font-family="Helvetica,sans-Serif" font-size="10.00">v8::BigInt</text>
</a>
</g>
</g>
<!-- Node45&#45;&gt;Node46 -->
<g id="edge42" class="edge">
<title>Node45&#45;&gt;Node46</title>
<path fill="none" stroke="#63b8ff" d="M350.27,-94.76C375,-100.95 404.99,-108.46 426.28,-113.78"/>
<polygon fill="#63b8ff" stroke="#63b8ff" points="351.23,-91.15 340.68,-92.11 349.53,-97.94 351.23,-91.15"/>
</g>
<!-- Node47 -->
<g id="node44" class="node">
<title>Node47</title>
<g id="a_node44"><a xlink:href="classv8_1_1Boolean.html" target="_top" xlink:title=" ">
<polygon fill="white" stroke="#666666" points="487.75,-93.25 421.5,-93.25 421.5,-74 487.75,-74 487.75,-93.25"/>
<text text-anchor="middle" x="454.62" y="-79.75" font-family="Helvetica,sans-Serif" font-size="10.00">v8::Boolean</text>
</a>
</g>
</g>
<!-- Node45&#45;&gt;Node47 -->
<g id="edge43" class="edge">
<title>Node45&#45;&gt;Node47</title>
<path fill="none" stroke="#63b8ff" d="M350.45,-83.62C373.21,-83.62 400.38,-83.62 421.13,-83.62"/>
<polygon fill="#63b8ff" stroke="#63b8ff" points="350.68,-80.13 340.68,-83.62 350.68,-87.13 350.68,-80.13"/>
</g>
<!-- Node48 -->
<g id="node45" class="node">
<title>Node48</title>
<g id="a_node45"><a xlink:href="classv8_1_1Name.html" target="_top" xlink:title=" ">
<polygon fill="white" stroke="#666666" points="483.25,-56.25 426,-56.25 426,-37 483.25,-37 483.25,-56.25"/>
<text text-anchor="middle" x="454.62" y="-42.75" font-family="Helvetica,sans-Serif" font-size="10.00">v8::Name</text>
</a>
</g>
</g>
<!-- Node45&#45;&gt;Node48 -->
<g id="edge44" class="edge">
<title>Node45&#45;&gt;Node48</title>
<path fill="none" stroke="#63b8ff" d="M350.2,-72.5C374.76,-66.36 404.52,-58.91 425.8,-53.59"/>
<polygon fill="#63b8ff" stroke="#63b8ff" points="349.53,-69.31 340.68,-75.14 351.23,-76.1 349.53,-69.31"/>
</g>
<!-- Node51 -->
<g id="node48" class="node">
<title>Node51</title>
<g id="a_node48"><a xlink:href="classv8_1_1Number.html" target="_top" xlink:title=" ">
<polygon fill="white" stroke="#666666" points="487.38,-19.25 421.88,-19.25 421.88,0 487.38,0 487.38,-19.25"/>
<text text-anchor="middle" x="454.62" y="-5.75" font-family="Helvetica,sans-Serif" font-size="10.00">v8::Number</text>
</a>
</g>
</g>
<!-- Node45&#45;&gt;Node51 -->
<g id="edge47" class="edge">
<title>Node45&#45;&gt;Node51</title>
<path fill="none" stroke="#63b8ff" d="M328.27,-67.22C345.83,-55.02 371.2,-38.63 395.25,-27.62 403.54,-23.83 412.85,-20.55 421.56,-17.88"/>
<polygon fill="#63b8ff" stroke="#63b8ff" points="326.52,-64.88 320.37,-73.52 330.56,-70.6 326.52,-64.88"/>
</g>
<!-- Node49 -->
<g id="node46" class="node">
<title>Node49</title>
<g id="a_node46"><a xlink:href="classv8_1_1String.html" target="_top" xlink:title=" ">
<polygon fill="white" stroke="#666666" points="618.12,-93.25 561.62,-93.25 561.62,-74 618.12,-74 618.12,-93.25"/>
<text text-anchor="middle" x="589.88" y="-79.75" font-family="Helvetica,sans-Serif" font-size="10.00">v8::String</text>
</a>
</g>
</g>
<!-- Node48&#45;&gt;Node49 -->
<g id="edge45" class="edge">
<title>Node48&#45;&gt;Node49</title>
<path fill="none" stroke="#63b8ff" d="M494.01,-57.28C515.57,-63.27 541.96,-70.6 561.43,-76.01"/>
<polygon fill="#63b8ff" stroke="#63b8ff" points="495.13,-53.68 484.56,-54.38 493.26,-60.43 495.13,-53.68"/>
</g>
<!-- Node50 -->
<g id="node47" class="node">
<title>Node50</title>
<g id="a_node47"><a xlink:href="classv8_1_1Symbol.html" target="_top" xlink:title=" ">
<polygon fill="white" stroke="#666666" points="621.5,-56.25 558.25,-56.25 558.25,-37 621.5,-37 621.5,-56.25"/>
<text text-anchor="middle" x="589.88" y="-42.75" font-family="Helvetica,sans-Serif" font-size="10.00">v8::Symbol</text>
</a>
</g>
</g>
<!-- Node48&#45;&gt;Node50 -->
<g id="edge46" class="edge">
<title>Node48&#45;&gt;Node50</title>
<path fill="none" stroke="#63b8ff" d="M494.35,-46.62C514.66,-46.62 539.2,-46.62 558.19,-46.62"/>
<polygon fill="#63b8ff" stroke="#63b8ff" points="494.56,-43.13 484.56,-46.62 494.56,-50.13 494.56,-43.13"/>
</g>
<!-- Node52 -->
<g id="node49" class="node">
<title>Node52</title>
<g id="a_node49"><a xlink:href="classv8_1_1Integer.html" target="_top" xlink:title=" ">
<polygon fill="#fff0f0" stroke="red" points="620.38,-19.25 559.38,-19.25 559.38,0 620.38,0 620.38,-19.25"/>
<text text-anchor="middle" x="589.88" y="-5.75" font-family="Helvetica,sans-Serif" font-size="10.00">v8::Integer</text>
</a>
</g>
</g>
<!-- Node51&#45;&gt;Node52 -->
<g id="edge48" class="edge">
<title>Node51&#45;&gt;Node52</title>
<path fill="none" stroke="#63b8ff" d="M498.44,-9.62C518.21,-9.62 541.19,-9.62 559.04,-9.62"/>
<polygon fill="#63b8ff" stroke="#63b8ff" points="498.54,-6.13 488.54,-9.62 498.54,-13.13 498.54,-6.13"/>
</g>
</g>
</svg>
