<?xml version="1.0" encoding="UTF-8" standalone="no"?>
<!DOCTYPE svg PUBLIC "-//W3C//DTD SVG 1.1//EN"
 "http://www.w3.org/Graphics/SVG/1.1/DTD/svg11.dtd">
<!-- Generated by graphviz version 8.0.5 (20230430.1635)
 -->
<!-- Title: v8::PersistentValueMap::SetUnique Pages: 1 -->
<svg width="481pt" height="223pt"
 viewBox="0.00 0.00 481.25 222.88" xmlns="http://www.w3.org/2000/svg" xmlns:xlink="http://www.w3.org/1999/xlink">
<g id="graph0" class="graph" transform="scale(1 1) rotate(0) translate(4 218.88)">
<title>v8::PersistentValueMap::SetUnique</title>
<!-- Node1 -->
<g id="node1" class="node">
<title>Node1</title>
<g id="a_node1"><a xlink:title=" ">
<polygon fill="#999999" stroke="#666666" points="118.75,-140.88 0,-140.88 0,-110.38 118.75,-110.38 118.75,-140.88"/>
<text text-anchor="start" x="8" y="-127.38" font-family="Helvetica,sans-Serif" font-size="10.00">v8::PersistentValueMap</text>
<text text-anchor="middle" x="59.38" y="-116.12" font-family="Helvetica,sans-Serif" font-size="10.00">::SetUnique</text>
</a>
</g>
</g>
<!-- Node2 -->
<g id="node2" class="node">
<title>Node2</title>
<g id="a_node2"><a xlink:href="classv8_1_1PersistentValueMapBase.html#a7b083c75829bbc4177729ffe9827c4ac" target="_top" xlink:title=" ">
<polygon fill="white" stroke="#666666" points="296,-214.88 154.75,-214.88 154.75,-184.38 296,-184.38 296,-214.88"/>
<text text-anchor="start" x="162.75" y="-201.38" font-family="Helvetica,sans-Serif" font-size="10.00">v8::PersistentValueMapBase</text>
<text text-anchor="middle" x="225.38" y="-190.12" font-family="Helvetica,sans-Serif" font-size="10.00">::ClearAndLeak</text>
</a>
</g>
</g>
<!-- Node1&#45;&gt;Node2 -->
<g id="edge1" class="edge">
<title>Node1&#45;&gt;Node2</title>
<path fill="none" stroke="#63b8ff" d="M87.98,-141.21C106.54,-151.37 131.74,-164.58 154.75,-174.62 159.04,-176.5 163.51,-178.34 168.04,-180.13"/>
<polygon fill="#63b8ff" stroke="#63b8ff" points="166.38,-183.63 176.97,-183.94 168.89,-177.09 166.38,-183.63"/>
</g>
<!-- Node3 -->
<g id="node3" class="node">
<title>Node3</title>
<g id="a_node3"><a xlink:href="classv8_1_1PersistentValueMapBase.html#a149e5b7f40fa52dc9b379342ac802d94" target="_top" xlink:title=" ">
<polygon fill="white" stroke="#666666" points="296,-165.88 154.75,-165.88 154.75,-135.38 296,-135.38 296,-165.88"/>
<text text-anchor="start" x="162.75" y="-152.38" font-family="Helvetica,sans-Serif" font-size="10.00">v8::PersistentValueMapBase</text>
<text text-anchor="middle" x="225.38" y="-141.12" font-family="Helvetica,sans-Serif" font-size="10.00">::impl</text>
</a>
</g>
</g>
<!-- Node1&#45;&gt;Node3 -->
<g id="edge2" class="edge">
<title>Node1&#45;&gt;Node3</title>
<path fill="none" stroke="#63b8ff" d="M119.12,-134.58C127.04,-135.79 135.28,-137.04 143.51,-138.3"/>
<polygon fill="#63b8ff" stroke="#63b8ff" points="142.87,-141.89 153.29,-139.94 143.93,-134.97 142.87,-141.89"/>
</g>
<!-- Node4 -->
<g id="node4" class="node">
<title>Node4</title>
<g id="a_node4"><a xlink:href="classv8_1_1PersistentValueMapBase.html#ac15c999275fb50c0084246cb9a848811" target="_top" xlink:title=" ">
<polygon fill="white" stroke="#666666" points="296,-116.88 154.75,-116.88 154.75,-86.38 296,-86.38 296,-116.88"/>
<text text-anchor="start" x="162.75" y="-103.38" font-family="Helvetica,sans-Serif" font-size="10.00">v8::PersistentValueMapBase</text>
<text text-anchor="middle" x="225.38" y="-92.12" font-family="Helvetica,sans-Serif" font-size="10.00">::isolate</text>
</a>
</g>
</g>
<!-- Node1&#45;&gt;Node4 -->
<g id="edge3" class="edge">
<title>Node1&#45;&gt;Node4</title>
<path fill="none" stroke="#63b8ff" d="M119.12,-117.03C127.04,-115.87 135.28,-114.66 143.51,-113.46"/>
<polygon fill="#63b8ff" stroke="#63b8ff" points="143.9,-116.79 153.29,-111.88 142.88,-109.87 143.9,-116.79"/>
</g>
<!-- Node5 -->
<g id="node5" class="node">
<title>Node5</title>
<g id="a_node5"><a xlink:href="classv8_1_1PersistentValueMapBase.html#aea9af944a2bd71a3b6abd2a2e57788f1" target="_top" xlink:title=" ">
<polygon fill="white" stroke="#666666" points="296,-67.88 154.75,-67.88 154.75,-37.38 296,-37.38 296,-67.88"/>
<text text-anchor="start" x="162.75" y="-54.38" font-family="Helvetica,sans-Serif" font-size="10.00">v8::PersistentValueMapBase</text>
<text text-anchor="middle" x="225.38" y="-43.12" font-family="Helvetica,sans-Serif" font-size="10.00">::Release</text>
</a>
</g>
</g>
<!-- Node1&#45;&gt;Node5 -->
<g id="edge4" class="edge">
<title>Node1&#45;&gt;Node5</title>
<path fill="none" stroke="#63b8ff" d="M88.84,-109.96C107.34,-100.08 132.14,-87.39 154.75,-77.62 159.04,-75.77 163.53,-73.94 168.06,-72.16"/>
<polygon fill="#63b8ff" stroke="#63b8ff" points="168.9,-75.2 176.99,-68.36 166.4,-68.66 168.9,-75.2"/>
</g>
<!-- Node6 -->
<g id="node6" class="node">
<title>Node6</title>
<g id="a_node6"><a xlink:href="classv8_1_1PersistentValueMapBase.html#abb262f768e4353658726ba4d1295947c" target="_top" xlink:title=" ">
<polygon fill="white" stroke="#666666" points="473.25,-116.88 332,-116.88 332,-86.38 473.25,-86.38 473.25,-116.88"/>
<text text-anchor="start" x="340" y="-103.38" font-family="Helvetica,sans-Serif" font-size="10.00">v8::PersistentValueMapBase</text>
<text text-anchor="middle" x="402.62" y="-92.12" font-family="Helvetica,sans-Serif" font-size="10.00">::FromVal</text>
</a>
</g>
</g>
<!-- Node5&#45;&gt;Node6 -->
<g id="edge5" class="edge">
<title>Node5&#45;&gt;Node6</title>
<path fill="none" stroke="#63b8ff" d="M282.31,-68.26C299.14,-72.97 317.77,-78.18 335.21,-83.06"/>
<polygon fill="#63b8ff" stroke="#63b8ff" points="333.75,-86.56 344.32,-85.88 335.63,-79.82 333.75,-86.56"/>
</g>
<!-- Node7 -->
<g id="node7" class="node">
<title>Node7</title>
<g id="a_node7"><a xlink:href="classv8_1_1PersistentBase.html#a479c7b146da083aa608e133a7dec79f9" target="_top" xlink:title=" ">
<polygon fill="white" stroke="#666666" points="451.5,-67.88 353.75,-67.88 353.75,-37.38 451.5,-37.38 451.5,-67.88"/>
<text text-anchor="start" x="361.75" y="-54.38" font-family="Helvetica,sans-Serif" font-size="10.00">v8::PersistentBase</text>
<text text-anchor="middle" x="402.62" y="-43.12" font-family="Helvetica,sans-Serif" font-size="10.00">::IsWeak</text>
</a>
</g>
</g>
<!-- Node5&#45;&gt;Node7 -->
<g id="edge6" class="edge">
<title>Node5&#45;&gt;Node7</title>
<path fill="none" stroke="#63b8ff" d="M296.39,-52.62C311.74,-52.62 327.83,-52.62 342.69,-52.62"/>
<polygon fill="#63b8ff" stroke="#63b8ff" points="342.26,-56.13 352.26,-52.62 342.26,-49.13 342.26,-56.13"/>
</g>
<!-- Node8 -->
<g id="node8" class="node">
<title>Node8</title>
<g id="a_node8"><a xlink:href="classv8_1_1Global.html#a914903149cc752468d4a3a11b6089c7e" target="_top" xlink:title=" ">
<polygon fill="white" stroke="#666666" points="445.5,-19.25 359.75,-19.25 359.75,0 445.5,0 445.5,-19.25"/>
<text text-anchor="middle" x="402.62" y="-5.75" font-family="Helvetica,sans-Serif" font-size="10.00">v8::Global::Pass</text>
</a>
</g>
</g>
<!-- Node5&#45;&gt;Node8 -->
<g id="edge7" class="edge">
<title>Node5&#45;&gt;Node8</title>
<path fill="none" stroke="#63b8ff" d="M290.14,-36.98C309.87,-32.14 331.34,-26.87 350.13,-22.26"/>
<polygon fill="#63b8ff" stroke="#63b8ff" points="350.67,-25.49 359.55,-19.7 349,-18.69 350.67,-25.49"/>
</g>
</g>
</svg>
