<?xml version="1.0" encoding="UTF-8" standalone="no"?>
<!DOCTYPE svg PUBLIC "-//W3C//DTD SVG 1.1//EN"
 "http://www.w3.org/Graphics/SVG/1.1/DTD/svg11.dtd">
<!-- Generated by graphviz version 8.0.5 (20230430.1635)
 -->
<!-- Title: v8::TypedArray Pages: 1 -->
<svg width="650pt" height="323pt"
 viewBox="0.00 0.00 650.00 323.25" xmlns="http://www.w3.org/2000/svg" xmlns:xlink="http://www.w3.org/1999/xlink">
<g id="graph0" class="graph" transform="scale(1 1) rotate(0) translate(4 319.25)">
<title>v8::TypedArray</title>
<!-- Node1 -->
<g id="node1" class="node">
<title>Node1</title>
<g id="a_node1"><a xlink:title=" ">
<polygon fill="#999999" stroke="#666666" points="491,-167.25 411.25,-167.25 411.25,-148 491,-148 491,-167.25"/>
<text text-anchor="middle" x="451.12" y="-153.75" font-family="Helvetica,sans-Serif" font-size="10.00">v8::TypedArray</text>
</a>
</g>
</g>
<!-- Node6 -->
<g id="node6" class="node">
<title>Node6</title>
<g id="a_node6"><a xlink:href="classv8_1_1Float32Array.html" target="_top" xlink:title=" ">
<polygon fill="white" stroke="#666666" points="627.38,-315.25 541.62,-315.25 541.62,-296 627.38,-296 627.38,-315.25"/>
<text text-anchor="middle" x="584.5" y="-301.75" font-family="Helvetica,sans-Serif" font-size="10.00">v8::Float32Array</text>
</a>
</g>
</g>
<!-- Node1&#45;&gt;Node6 -->
<g id="edge5" class="edge">
<title>Node1&#45;&gt;Node6</title>
<path fill="none" stroke="#63b8ff" d="M458.47,-177.75C468.48,-206.3 490.64,-258.32 527,-287.62 531.25,-291.05 536.16,-293.83 541.28,-296.08"/>
<polygon fill="#63b8ff" stroke="#63b8ff" points="461.5,-176.79 455.02,-168.41 454.86,-179 461.5,-176.79"/>
</g>
<!-- Node7 -->
<g id="node7" class="node">
<title>Node7</title>
<g id="a_node7"><a xlink:href="classv8_1_1Float64Array.html" target="_top" xlink:title=" ">
<polygon fill="white" stroke="#666666" points="627.38,-278.25 541.62,-278.25 541.62,-259 627.38,-259 627.38,-278.25"/>
<text text-anchor="middle" x="584.5" y="-264.75" font-family="Helvetica,sans-Serif" font-size="10.00">v8::Float64Array</text>
</a>
</g>
</g>
<!-- Node1&#45;&gt;Node7 -->
<g id="edge6" class="edge">
<title>Node1&#45;&gt;Node7</title>
<path fill="none" stroke="#63b8ff" d="M462.89,-176.87C475.6,-197.9 498.64,-231.19 527,-250.62 531.59,-253.77 536.75,-256.38 542.05,-258.56"/>
<polygon fill="#63b8ff" stroke="#63b8ff" points="465.57,-175.51 457.5,-168.64 459.52,-179.04 465.57,-175.51"/>
</g>
<!-- Node8 -->
<g id="node8" class="node">
<title>Node8</title>
<g id="a_node8"><a xlink:href="classv8_1_1Int16Array.html" target="_top" xlink:title=" ">
<polygon fill="white" stroke="#666666" points="622.12,-241.25 546.88,-241.25 546.88,-222 622.12,-222 622.12,-241.25"/>
<text text-anchor="middle" x="584.5" y="-227.75" font-family="Helvetica,sans-Serif" font-size="10.00">v8::Int16Array</text>
</a>
</g>
</g>
<!-- Node1&#45;&gt;Node8 -->
<g id="edge7" class="edge">
<title>Node1&#45;&gt;Node8</title>
<path fill="none" stroke="#63b8ff" d="M471.12,-174.66C485.58,-186.9 506.44,-203.04 527,-213.62 533.13,-216.78 539.93,-219.52 546.61,-221.84"/>
<polygon fill="#63b8ff" stroke="#63b8ff" points="473.85,-171.53 464,-167.63 469.27,-176.82 473.85,-171.53"/>
</g>
<!-- Node9 -->
<g id="node9" class="node">
<title>Node9</title>
<g id="a_node9"><a xlink:href="classv8_1_1Int32Array.html" target="_top" xlink:title=" ">
<polygon fill="white" stroke="#666666" points="622.12,-204.25 546.88,-204.25 546.88,-185 622.12,-185 622.12,-204.25"/>
<text text-anchor="middle" x="584.5" y="-190.75" font-family="Helvetica,sans-Serif" font-size="10.00">v8::Int32Array</text>
</a>
</g>
</g>
<!-- Node1&#45;&gt;Node9 -->
<g id="edge8" class="edge">
<title>Node1&#45;&gt;Node9</title>
<path fill="none" stroke="#63b8ff" d="M498.36,-170.65C514.54,-175.2 532.44,-180.25 547.64,-184.53"/>
<polygon fill="#63b8ff" stroke="#63b8ff" points="499.6,-167.08 489.02,-167.74 497.7,-173.82 499.6,-167.08"/>
</g>
<!-- Node10 -->
<g id="node10" class="node">
<title>Node10</title>
<g id="a_node10"><a xlink:href="classv8_1_1Int8Array.html" target="_top" xlink:title=" ">
<polygon fill="white" stroke="#666666" points="619.5,-167.25 549.5,-167.25 549.5,-148 619.5,-148 619.5,-167.25"/>
<text text-anchor="middle" x="584.5" y="-153.75" font-family="Helvetica,sans-Serif" font-size="10.00">v8::Int8Array</text>
</a>
</g>
</g>
<!-- Node1&#45;&gt;Node10 -->
<g id="edge9" class="edge">
<title>Node1&#45;&gt;Node10</title>
<path fill="none" stroke="#63b8ff" d="M501.87,-157.62C517.69,-157.62 534.81,-157.62 549.27,-157.62"/>
<polygon fill="#63b8ff" stroke="#63b8ff" points="502.19,-154.13 492.19,-157.62 502.19,-161.13 502.19,-154.13"/>
</g>
<!-- Node11 -->
<g id="node11" class="node">
<title>Node11</title>
<g id="a_node11"><a xlink:href="classv8_1_1Uint16Array.html" target="_top" xlink:title=" ">
<polygon fill="white" stroke="#666666" points="625.5,-130.25 543.5,-130.25 543.5,-111 625.5,-111 625.5,-130.25"/>
<text text-anchor="middle" x="584.5" y="-116.75" font-family="Helvetica,sans-Serif" font-size="10.00">v8::Uint16Array</text>
</a>
</g>
</g>
<!-- Node1&#45;&gt;Node11 -->
<g id="edge10" class="edge">
<title>Node1&#45;&gt;Node11</title>
<path fill="none" stroke="#63b8ff" d="M498.36,-144.6C514.54,-140.05 532.44,-135 547.64,-130.72"/>
<polygon fill="#63b8ff" stroke="#63b8ff" points="497.7,-141.43 489.02,-147.51 499.6,-148.17 497.7,-141.43"/>
</g>
<!-- Node12 -->
<g id="node12" class="node">
<title>Node12</title>
<g id="a_node12"><a xlink:href="classv8_1_1Uint32Array.html" target="_top" xlink:title=" ">
<polygon fill="white" stroke="#666666" points="625.5,-93.25 543.5,-93.25 543.5,-74 625.5,-74 625.5,-93.25"/>
<text text-anchor="middle" x="584.5" y="-79.75" font-family="Helvetica,sans-Serif" font-size="10.00">v8::Uint32Array</text>
</a>
</g>
</g>
<!-- Node1&#45;&gt;Node12 -->
<g id="edge11" class="edge">
<title>Node1&#45;&gt;Node12</title>
<path fill="none" stroke="#63b8ff" d="M471.12,-140.59C485.58,-128.35 506.44,-112.21 527,-101.62 532.86,-98.61 539.32,-95.98 545.71,-93.72"/>
<polygon fill="#63b8ff" stroke="#63b8ff" points="469.27,-138.43 464,-147.62 473.85,-143.72 469.27,-138.43"/>
</g>
<!-- Node13 -->
<g id="node13" class="node">
<title>Node13</title>
<g id="a_node13"><a xlink:href="classv8_1_1Uint8Array.html" target="_top" xlink:title=" ">
<polygon fill="white" stroke="#666666" points="622.88,-56.25 546.12,-56.25 546.12,-37 622.88,-37 622.88,-56.25"/>
<text text-anchor="middle" x="584.5" y="-42.75" font-family="Helvetica,sans-Serif" font-size="10.00">v8::Uint8Array</text>
</a>
</g>
</g>
<!-- Node1&#45;&gt;Node13 -->
<g id="edge12" class="edge">
<title>Node1&#45;&gt;Node13</title>
<path fill="none" stroke="#63b8ff" d="M462.89,-138.38C475.6,-117.35 498.64,-84.06 527,-64.62 532.69,-60.73 539.27,-57.64 545.89,-55.2"/>
<polygon fill="#63b8ff" stroke="#63b8ff" points="459.52,-136.21 457.5,-146.61 465.57,-139.74 459.52,-136.21"/>
</g>
<!-- Node14 -->
<g id="node14" class="node">
<title>Node14</title>
<g id="a_node14"><a xlink:href="classv8_1_1Uint8ClampedArray.html" target="_top" xlink:title=" ">
<polygon fill="white" stroke="#666666" points="642,-19.25 527,-19.25 527,0 642,0 642,-19.25"/>
<text text-anchor="middle" x="584.5" y="-5.75" font-family="Helvetica,sans-Serif" font-size="10.00">v8::Uint8ClampedArray</text>
</a>
</g>
</g>
<!-- Node1&#45;&gt;Node14 -->
<g id="edge13" class="edge">
<title>Node1&#45;&gt;Node14</title>
<path fill="none" stroke="#63b8ff" d="M458.47,-137.5C468.48,-108.95 490.64,-56.93 527,-27.62 530.93,-24.46 535.42,-21.85 540.12,-19.69"/>
<polygon fill="#63b8ff" stroke="#63b8ff" points="454.86,-136.25 455.02,-146.84 461.5,-138.46 454.86,-136.25"/>
</g>
<!-- Node2 -->
<g id="node2" class="node">
<title>Node2</title>
<g id="a_node2"><a xlink:href="classv8_1_1ArrayBufferView.html" target="_top" xlink:title=" ">
<polygon fill="white" stroke="#666666" points="375.25,-167.25 274.5,-167.25 274.5,-148 375.25,-148 375.25,-167.25"/>
<text text-anchor="middle" x="324.88" y="-153.75" font-family="Helvetica,sans-Serif" font-size="10.00">v8::ArrayBufferView</text>
</a>
</g>
</g>
<!-- Node2&#45;&gt;Node1 -->
<g id="edge1" class="edge">
<title>Node2&#45;&gt;Node1</title>
<path fill="none" stroke="#63b8ff" d="M386.55,-157.62C394.87,-157.62 403.21,-157.62 411,-157.62"/>
<polygon fill="#63b8ff" stroke="#63b8ff" points="386.7,-154.13 376.7,-157.62 386.7,-161.13 386.7,-154.13"/>
</g>
<!-- Node3 -->
<g id="node3" class="node">
<title>Node3</title>
<g id="a_node3"><a xlink:href="classv8_1_1Object.html" target="_top" xlink:title=" ">
<polygon fill="white" stroke="#666666" points="238.5,-167.25 179,-167.25 179,-148 238.5,-148 238.5,-167.25"/>
<text text-anchor="middle" x="208.75" y="-153.75" font-family="Helvetica,sans-Serif" font-size="10.00">v8::Object</text>
</a>
</g>
</g>
<!-- Node3&#45;&gt;Node2 -->
<g id="edge2" class="edge">
<title>Node3&#45;&gt;Node2</title>
<path fill="none" stroke="#63b8ff" d="M249.73,-157.62C257.71,-157.62 266.18,-157.62 274.44,-157.62"/>
<polygon fill="#63b8ff" stroke="#63b8ff" points="249.84,-154.13 239.84,-157.62 249.84,-161.13 249.84,-154.13"/>
</g>
<!-- Node4 -->
<g id="node4" class="node">
<title>Node4</title>
<g id="a_node4"><a xlink:href="classv8_1_1Value.html" target="_top" xlink:title=" ">
<polygon fill="white" stroke="#666666" points="143,-167.25 87.25,-167.25 87.25,-148 143,-148 143,-167.25"/>
<text text-anchor="middle" x="115.12" y="-153.75" font-family="Helvetica,sans-Serif" font-size="10.00">v8::Value</text>
</a>
</g>
</g>
<!-- Node4&#45;&gt;Node3 -->
<g id="edge3" class="edge">
<title>Node4&#45;&gt;Node3</title>
<path fill="none" stroke="#63b8ff" d="M154.04,-157.62C162.28,-157.62 170.88,-157.62 178.71,-157.62"/>
<polygon fill="#63b8ff" stroke="#63b8ff" points="154.12,-154.13 144.12,-157.62 154.12,-161.13 154.12,-154.13"/>
</g>
<!-- Node5 -->
<g id="node5" class="node">
<title>Node5</title>
<g id="a_node5"><a xlink:href="classv8_1_1Data.html" target="_top" xlink:title=" ">
<polygon fill="white" stroke="#666666" points="51.25,-167.25 0,-167.25 0,-148 51.25,-148 51.25,-167.25"/>
<text text-anchor="middle" x="25.62" y="-153.75" font-family="Helvetica,sans-Serif" font-size="10.00">v8::Data</text>
</a>
</g>
</g>
<!-- Node5&#45;&gt;Node4 -->
<g id="edge4" class="edge">
<title>Node5&#45;&gt;Node4</title>
<path fill="none" stroke="#63b8ff" d="M62.26,-157.62C70.43,-157.62 79,-157.62 86.77,-157.62"/>
<polygon fill="#63b8ff" stroke="#63b8ff" points="62.46,-154.13 52.46,-157.62 62.46,-161.13 62.46,-154.13"/>
</g>
</g>
</svg>
