<?xml version="1.0" encoding="UTF-8" standalone="no"?>
<!DOCTYPE svg PUBLIC "-//W3C//DTD SVG 1.1//EN"
 "http://www.w3.org/Graphics/SVG/1.1/DTD/svg11.dtd">
<!-- Generated by graphviz version 8.0.5 (20230430.1635)
 -->
<!-- Title: include/cppgc/garbage&#45;collected.h Pages: 1 -->
<svg width="323pt" height="149pt"
 viewBox="0.00 0.00 323.38 149.00" xmlns="http://www.w3.org/2000/svg" xmlns:xlink="http://www.w3.org/1999/xlink">
<g id="graph0" class="graph" transform="scale(1 1) rotate(0) translate(4 145)">
<title>include/cppgc/garbage&#45;collected.h</title>
<!-- Node1 -->
<g id="node1" class="node">
<title>Node1</title>
<g id="a_node1"><a xlink:title=" ">
<polygon fill="#999999" stroke="#666666" points="189.62,-141 76.12,-141 76.12,-110.5 189.62,-110.5 189.62,-141"/>
<text text-anchor="start" x="84.12" y="-127.5" font-family="Helvetica,sans-Serif" font-size="10.00">include/cppgc/garbage</text>
<text text-anchor="middle" x="132.88" y="-116.25" font-family="Helvetica,sans-Serif" font-size="10.00">&#45;collected.h</text>
</a>
</g>
</g>
<!-- Node2 -->
<g id="node2" class="node">
<title>Node2</title>
<g id="a_node2"><a xlink:href="allocation_8h.html" target="_top" xlink:title=" ">
<polygon fill="white" stroke="#666666" points="127.75,-74.5 0,-74.5 0,-55.25 127.75,-55.25 127.75,-74.5"/>
<text text-anchor="middle" x="63.88" y="-61" font-family="Helvetica,sans-Serif" font-size="10.00">include/cppgc/allocation.h</text>
</a>
</g>
</g>
<!-- Node1&#45;&gt;Node2 -->
<g id="edge1" class="edge">
<title>Node1&#45;&gt;Node2</title>
<path fill="none" stroke="#63b8ff" d="M107.48,-103.08C96.1,-93.37 83.29,-82.44 74.51,-74.95"/>
<polygon fill="#63b8ff" stroke="#63b8ff" points="104.94,-106.37 114.82,-110.2 109.48,-101.04 104.94,-106.37"/>
</g>
<!-- Node3 -->
<g id="node3" class="node">
<title>Node3</title>
<g id="a_node3"><a xlink:href="visitor_8h.html" target="_top" xlink:title=" ">
<polygon fill="white" stroke="#666666" points="258.25,-74.5 145.5,-74.5 145.5,-55.25 258.25,-55.25 258.25,-74.5"/>
<text text-anchor="middle" x="201.88" y="-61" font-family="Helvetica,sans-Serif" font-size="10.00">include/cppgc/visitor.h</text>
</a>
</g>
</g>
<!-- Node1&#45;&gt;Node3 -->
<g id="edge2" class="edge">
<title>Node1&#45;&gt;Node3</title>
<path fill="none" stroke="#63b8ff" d="M158.27,-103.08C169.65,-93.37 182.46,-82.44 191.24,-74.95"/>
<polygon fill="#63b8ff" stroke="#63b8ff" points="156.27,-101.04 150.93,-110.2 160.81,-106.37 156.27,-101.04"/>
</g>
<!-- Node4 -->
<g id="node4" class="node">
<title>Node4</title>
<g id="a_node4"><a xlink:href="persistent_8h.html" target="_top" xlink:title=" ">
<polygon fill="white" stroke="#666666" points="200.5,-19.25 71.25,-19.25 71.25,0 200.5,0 200.5,-19.25"/>
<text text-anchor="middle" x="135.88" y="-5.75" font-family="Helvetica,sans-Serif" font-size="10.00">include/cppgc/persistent.h</text>
</a>
</g>
</g>
<!-- Node3&#45;&gt;Node4 -->
<g id="edge3" class="edge">
<title>Node3&#45;&gt;Node4</title>
<path fill="none" stroke="#63b8ff" d="M182.13,-47.94C170.6,-38.64 156.49,-27.26 146.91,-19.52"/>
<polygon fill="#63b8ff" stroke="#63b8ff" points="179.7,-51.29 189.68,-54.84 184.09,-45.84 179.7,-51.29"/>
</g>
<!-- Node5 -->
<g id="node5" class="node">
<title>Node5</title>
<g id="a_node5"><a xlink:href="v8-cppgc_8h.html" target="_top" xlink:title=" ">
<polygon fill="white" stroke="#666666" points="315.38,-19.25 218.38,-19.25 218.38,0 315.38,0 315.38,-19.25"/>
<text text-anchor="middle" x="266.88" y="-5.75" font-family="Helvetica,sans-Serif" font-size="10.00">include/v8&#45;cppgc.h</text>
</a>
</g>
</g>
<!-- Node3&#45;&gt;Node5 -->
<g id="edge4" class="edge">
<title>Node3&#45;&gt;Node5</title>
<path fill="none" stroke="#63b8ff" d="M221.32,-47.94C232.68,-38.64 246.57,-27.26 256.01,-19.52"/>
<polygon fill="#63b8ff" stroke="#63b8ff" points="219.42,-45.8 213.9,-54.84 223.86,-51.21 219.42,-45.8"/>
</g>
</g>
</svg>
