<?xml version="1.0" encoding="UTF-8" standalone="no"?>
<!DOCTYPE svg PUBLIC "-//W3C//DTD SVG 1.1//EN"
 "http://www.w3.org/Graphics/SVG/1.1/DTD/svg11.dtd">
<!-- Generated by graphviz version 8.0.5 (20230430.1635)
 -->
<!-- Title: include/v8.h Pages: 1 -->
<svg width="573pt" height="149pt"
 viewBox="0.00 0.00 573.25 149.00" xmlns="http://www.w3.org/2000/svg" xmlns:xlink="http://www.w3.org/1999/xlink">
<g id="graph0" class="graph" transform="scale(1 1) rotate(0) translate(4 145)">
<title>include/v8.h</title>
<!-- Node1 -->
<g id="node1" class="node">
<title>Node1</title>
<g id="a_node1"><a xlink:title=" ">
<polygon fill="#999999" stroke="#666666" points="329.38,-141 261.62,-141 261.62,-121.75 329.38,-121.75 329.38,-141"/>
<text text-anchor="middle" x="295.5" y="-127.5" font-family="Helvetica,sans-Serif" font-size="10.00">include/v8.h</text>
</a>
</g>
</g>
<!-- Node2 -->
<g id="node2" class="node">
<title>Node2</title>
<g id="a_node2"><a xlink:href="v8-cppgc_8h.html" target="_top" xlink:title=" ">
<polygon fill="white" stroke="#666666" points="97,-85.75 0,-85.75 0,-66.5 97,-66.5 97,-85.75"/>
<text text-anchor="middle" x="48.5" y="-72.25" font-family="Helvetica,sans-Serif" font-size="10.00">include/v8&#45;cppgc.h</text>
</a>
</g>
</g>
<!-- Node1&#45;&gt;Node2 -->
<g id="edge1" class="edge">
<title>Node1&#45;&gt;Node2</title>
<path fill="none" stroke="#63b8ff" d="M250.43,-120.66C204.96,-110.85 135.29,-95.83 90.82,-86.25"/>
<polygon fill="#63b8ff" stroke="#63b8ff" points="249.64,-124.28 260.16,-122.97 251.12,-117.44 249.64,-124.28"/>
</g>
<!-- Node3 -->
<g id="node3" class="node">
<title>Node3</title>
<g id="a_node3"><a xlink:href="v8-inspector_8h.html" target="_top" xlink:title=" ">
<polygon fill="white" stroke="#666666" points="225.75,-85.75 115.25,-85.75 115.25,-66.5 225.75,-66.5 225.75,-85.75"/>
<text text-anchor="middle" x="170.5" y="-72.25" font-family="Helvetica,sans-Serif" font-size="10.00">include/v8&#45;inspector.h</text>
</a>
</g>
</g>
<!-- Node1&#45;&gt;Node3 -->
<g id="edge2" class="edge">
<title>Node1&#45;&gt;Node3</title>
<path fill="none" stroke="#63b8ff" d="M264.18,-117.03C241.59,-107.41 211.69,-94.67 191.81,-86.2"/>
<polygon fill="#63b8ff" stroke="#63b8ff" points="262.72,-120.64 273.3,-121.34 265.47,-114.2 262.72,-120.64"/>
</g>
<!-- Node5 -->
<g id="node5" class="node">
<title>Node5</title>
<g id="a_node5"><a xlink:href="v8-metrics_8h.html" target="_top" xlink:title=" ">
<polygon fill="white" stroke="#666666" points="347,-85.75 244,-85.75 244,-66.5 347,-66.5 347,-85.75"/>
<text text-anchor="middle" x="295.5" y="-72.25" font-family="Helvetica,sans-Serif" font-size="10.00">include/v8&#45;metrics.h</text>
</a>
</g>
</g>
<!-- Node1&#45;&gt;Node5 -->
<g id="edge4" class="edge">
<title>Node1&#45;&gt;Node5</title>
<path fill="none" stroke="#63b8ff" d="M295.5,-110.71C295.5,-102.27 295.5,-92.83 295.5,-86.11"/>
<polygon fill="#63b8ff" stroke="#63b8ff" points="292,-110.58 295.5,-120.58 299,-110.58 292,-110.58"/>
</g>
<!-- Node6 -->
<g id="node6" class="node">
<title>Node6</title>
<g id="a_node6"><a xlink:href="v8-profiler_8h.html" target="_top" xlink:title=" ">
<polygon fill="white" stroke="#666666" points="464.12,-85.75 364.88,-85.75 364.88,-66.5 464.12,-66.5 464.12,-85.75"/>
<text text-anchor="middle" x="414.5" y="-72.25" font-family="Helvetica,sans-Serif" font-size="10.00">include/v8&#45;profiler.h</text>
</a>
</g>
</g>
<!-- Node1&#45;&gt;Node6 -->
<g id="edge5" class="edge">
<title>Node1&#45;&gt;Node6</title>
<path fill="none" stroke="#63b8ff" d="M325.61,-116.9C347.08,-107.29 375.38,-94.63 394.21,-86.2"/>
<polygon fill="#63b8ff" stroke="#63b8ff" points="324.38,-114.06 316.69,-121.34 327.24,-120.45 324.38,-114.06"/>
</g>
<!-- Node7 -->
<g id="node7" class="node">
<title>Node7</title>
<g id="a_node7"><a xlink:href="v8-util_8h.html" target="_top" xlink:title=" ">
<polygon fill="white" stroke="#666666" points="565.25,-85.75 481.75,-85.75 481.75,-66.5 565.25,-66.5 565.25,-85.75"/>
<text text-anchor="middle" x="523.5" y="-72.25" font-family="Helvetica,sans-Serif" font-size="10.00">include/v8&#45;util.h</text>
</a>
</g>
</g>
<!-- Node1&#45;&gt;Node7 -->
<g id="edge6" class="edge">
<title>Node1&#45;&gt;Node7</title>
<path fill="none" stroke="#63b8ff" d="M340.12,-119.95C382.15,-110.14 444.47,-95.58 484.54,-86.22"/>
<polygon fill="#63b8ff" stroke="#63b8ff" points="339.58,-116.72 330.63,-122.4 341.17,-123.54 339.58,-116.72"/>
</g>
<!-- Node4 -->
<g id="node4" class="node">
<title>Node4</title>
<g id="a_node4"><a xlink:href="v8-inspector-protocol_8h.html" target="_top" xlink:title=" ">
<polygon fill="white" stroke="#666666" points="222,-30.5 119,-30.5 119,0 222,0 222,-30.5"/>
<text text-anchor="start" x="127" y="-17" font-family="Helvetica,sans-Serif" font-size="10.00">include/v8&#45;inspector</text>
<text text-anchor="middle" x="170.5" y="-5.75" font-family="Helvetica,sans-Serif" font-size="10.00">&#45;protocol.h</text>
</a>
</g>
</g>
<!-- Node3&#45;&gt;Node4 -->
<g id="edge3" class="edge">
<title>Node3&#45;&gt;Node4</title>
<path fill="none" stroke="#63b8ff" d="M170.5,-55.2C170.5,-47.2 170.5,-38.15 170.5,-30.78"/>
<polygon fill="#63b8ff" stroke="#63b8ff" points="167,-55.18 170.5,-65.18 174,-55.18 167,-55.18"/>
</g>
</g>
</svg>
