<?xml version="1.0" encoding="UTF-8" standalone="no"?>
<!DOCTYPE svg PUBLIC "-//W3C//DTD SVG 1.1//EN"
 "http://www.w3.org/Graphics/SVG/1.1/DTD/svg11.dtd">
<!-- Generated by graphviz version 8.0.5 (20230430.1635)
 -->
<!-- Title: v8::String::ExternalStringResourceBase Pages: 1 -->
<svg width="280pt" height="105pt"
 viewBox="0.00 0.00 280.00 105.00" xmlns="http://www.w3.org/2000/svg" xmlns:xlink="http://www.w3.org/1999/xlink">
<g id="graph0" class="graph" transform="scale(1 1) rotate(0) translate(4 101)">
<title>v8::String::ExternalStringResourceBase</title>
<!-- Node1 -->
<g id="node1" class="node">
<title>Node1</title>
<g id="a_node1"><a xlink:title=" ">
<polygon fill="#999999" stroke="#666666" points="199,-97 78,-97 78,-66.5 199,-66.5 199,-97"/>
<text text-anchor="start" x="86" y="-83.5" font-family="Helvetica,sans-Serif" font-size="10.00">v8::String::ExternalString</text>
<text text-anchor="middle" x="138.5" y="-72.25" font-family="Helvetica,sans-Serif" font-size="10.00">ResourceBase</text>
</a>
</g>
</g>
<!-- Node2 -->
<g id="node2" class="node">
<title>Node2</title>
<g id="a_node2"><a xlink:href="classv8_1_1String_1_1ExternalOneByteStringResource.html" target="_top" xlink:title=" ">
<polygon fill="white" stroke="#666666" points="133,-30.5 0,-30.5 0,0 133,0 133,-30.5"/>
<text text-anchor="start" x="8" y="-17" font-family="Helvetica,sans-Serif" font-size="10.00">v8::String::ExternalOneByte</text>
<text text-anchor="middle" x="66.5" y="-5.75" font-family="Helvetica,sans-Serif" font-size="10.00">StringResource</text>
</a>
</g>
</g>
<!-- Node1&#45;&gt;Node2 -->
<g id="edge1" class="edge">
<title>Node1&#45;&gt;Node2</title>
<path fill="none" stroke="#63b8ff" d="M114.24,-59.02C103.88,-49.73 92.06,-39.15 82.77,-30.83"/>
<polygon fill="#63b8ff" stroke="#63b8ff" points="111.38,-61.05 121.16,-65.11 116.05,-55.83 111.38,-61.05"/>
</g>
<!-- Node3 -->
<g id="node3" class="node">
<title>Node3</title>
<g id="a_node3"><a xlink:href="classv8_1_1String_1_1ExternalStringResource.html" target="_top" xlink:title=" ">
<polygon fill="white" stroke="#666666" points="272,-30.5 151,-30.5 151,0 272,0 272,-30.5"/>
<text text-anchor="start" x="159" y="-17" font-family="Helvetica,sans-Serif" font-size="10.00">v8::String::ExternalString</text>
<text text-anchor="middle" x="211.5" y="-5.75" font-family="Helvetica,sans-Serif" font-size="10.00">Resource</text>
</a>
</g>
</g>
<!-- Node1&#45;&gt;Node3 -->
<g id="edge2" class="edge">
<title>Node1&#45;&gt;Node3</title>
<path fill="none" stroke="#63b8ff" d="M163.1,-59.02C173.6,-49.73 185.59,-39.15 195,-30.83"/>
<polygon fill="#63b8ff" stroke="#63b8ff" points="161.24,-55.87 156.06,-65.11 165.88,-61.12 161.24,-55.87"/>
</g>
</g>
</svg>
