<?xml version="1.0" encoding="UTF-8" standalone="no"?>
<!DOCTYPE svg PUBLIC "-//W3C//DTD SVG 1.1//EN"
 "http://www.w3.org/Graphics/SVG/1.1/DTD/svg11.dtd">
<!-- Generated by graphviz version 8.0.5 (20230430.1635)
 -->
<!-- Title: cppgc::internal::MemberBase::SetRawAtomic Pages: 1 -->
<svg width="327pt" height="88pt"
 viewBox="0.00 0.00 327.25 87.50" xmlns="http://www.w3.org/2000/svg" xmlns:xlink="http://www.w3.org/1999/xlink">
<g id="graph0" class="graph" transform="scale(1 1) rotate(0) translate(4 83.5)">
<title>cppgc::internal::MemberBase::SetRawAtomic</title>
<!-- Node1 -->
<g id="node1" class="node">
<title>Node1</title>
<g id="a_node1"><a xlink:title=" ">
<polygon fill="#999999" stroke="#666666" points="319.25,-54.5 178.75,-54.5 178.75,-24 319.25,-24 319.25,-54.5"/>
<text text-anchor="start" x="186.75" y="-41" font-family="Helvetica,sans-Serif" font-size="10.00">cppgc::internal::MemberBase</text>
<text text-anchor="middle" x="249" y="-29.75" font-family="Helvetica,sans-Serif" font-size="10.00">::SetRawAtomic</text>
</a>
</g>
</g>
<!-- Node2 -->
<g id="node2" class="node">
<title>Node2</title>
<g id="a_node2"><a xlink:href="classcppgc_1_1internal_1_1MemberBase.html#a648acb301b10bbb42d008f4dc2050b0c" target="_top" xlink:title=" ">
<polygon fill="white" stroke="#666666" points="141.62,-79.5 1.12,-79.5 1.12,-49 141.62,-49 141.62,-79.5"/>
<text text-anchor="start" x="9.12" y="-66" font-family="Helvetica,sans-Serif" font-size="10.00">cppgc::internal::MemberBase</text>
<text text-anchor="middle" x="71.38" y="-54.75" font-family="Helvetica,sans-Serif" font-size="10.00">::MemberBase</text>
</a>
</g>
</g>
<!-- Node1&#45;&gt;Node2 -->
<g id="edge1" class="edge">
<title>Node1&#45;&gt;Node2</title>
<path fill="none" stroke="#63b8ff" d="M167.57,-50.7C159.02,-51.92 150.37,-53.15 141.95,-54.35"/>
<polygon fill="#63b8ff" stroke="#63b8ff" points="167.93,-54.04 177.34,-49.17 166.94,-47.11 167.93,-54.04"/>
</g>
<!-- Node3 -->
<g id="node3" class="node">
<title>Node3</title>
<g id="a_node3"><a xlink:href="classcppgc_1_1internal_1_1BasicMember.html#ad0bbee7deda2203d71e07bef6fa1b05d" target="_top" xlink:title=" ">
<polygon fill="white" stroke="#666666" points="142.75,-30.5 0,-30.5 0,0 142.75,0 142.75,-30.5"/>
<text text-anchor="start" x="8" y="-17" font-family="Helvetica,sans-Serif" font-size="10.00">cppgc::internal::BasicMember</text>
<text text-anchor="middle" x="71.38" y="-5.75" font-family="Helvetica,sans-Serif" font-size="10.00">::operator=</text>
</a>
</g>
</g>
<!-- Node1&#45;&gt;Node3 -->
<g id="edge2" class="edge">
<title>Node1&#45;&gt;Node3</title>
<path fill="none" stroke="#63b8ff" d="M167.65,-28.27C159.46,-27.15 151.18,-26.02 143.11,-24.92"/>
<polygon fill="#63b8ff" stroke="#63b8ff" points="166.95,-31.84 177.34,-29.73 167.9,-24.91 166.95,-31.84"/>
</g>
</g>
</svg>
