<?xml version="1.0" encoding="UTF-8" standalone="no"?>
<!DOCTYPE svg PUBLIC "-//W3C//DTD SVG 1.1//EN"
 "http://www.w3.org/Graphics/SVG/1.1/DTD/svg11.dtd">
<!-- Generated by graphviz version 8.0.5 (20230430.1635)
 -->
<!-- Title: include/cppgc/platform.h Pages: 1 -->
<svg width="551pt" height="537pt"
 viewBox="0.00 0.00 551.12 536.75" xmlns="http://www.w3.org/2000/svg" xmlns:xlink="http://www.w3.org/1999/xlink">
<g id="graph0" class="graph" transform="scale(1 1) rotate(0) translate(4 532.75)">
<title>include/cppgc/platform.h</title>
<!-- Node1 -->
<g id="node1" class="node">
<title>Node1</title>
<g id="a_node1"><a xlink:title=" ">
<polygon fill="#999999" stroke="#666666" points="279,-528.75 157.25,-528.75 157.25,-509.5 279,-509.5 279,-528.75"/>
<text text-anchor="middle" x="218.12" y="-515.25" font-family="Helvetica,sans-Serif" font-size="10.00">include/cppgc/platform.h</text>
</a>
</g>
</g>
<!-- Node2 -->
<g id="node2" class="node">
<title>Node2</title>
<g id="a_node2"><a xlink:href="default-platform_8h.html" target="_top" xlink:title=" ">
<polygon fill="white" stroke="#666666" points="108.25,-473.5 0,-473.5 0,-443 108.25,-443 108.25,-473.5"/>
<text text-anchor="start" x="8" y="-460" font-family="Helvetica,sans-Serif" font-size="10.00">include/cppgc/default</text>
<text text-anchor="middle" x="54.12" y="-448.75" font-family="Helvetica,sans-Serif" font-size="10.00">&#45;platform.h</text>
</a>
</g>
</g>
<!-- Node1&#45;&gt;Node2 -->
<g id="edge1" class="edge">
<title>Node1&#45;&gt;Node2</title>
<path fill="none" stroke="#63b8ff" d="M182.78,-505.44C157.01,-496.19 122.04,-483.63 95.06,-473.94"/>
<polygon fill="#63b8ff" stroke="#63b8ff" points="181.26,-508.97 191.86,-509.05 183.63,-502.38 181.26,-508.97"/>
</g>
<!-- Node3 -->
<g id="node3" class="node">
<title>Node3</title>
<g id="a_node3"><a xlink:href="garbage-collected_8h.html" target="_top" xlink:title=" ">
<polygon fill="white" stroke="#666666" points="122.88,-340.5 9.38,-340.5 9.38,-310 122.88,-310 122.88,-340.5"/>
<text text-anchor="start" x="17.38" y="-327" font-family="Helvetica,sans-Serif" font-size="10.00">include/cppgc/garbage</text>
<text text-anchor="middle" x="66.12" y="-315.75" font-family="Helvetica,sans-Serif" font-size="10.00">&#45;collected.h</text>
</a>
</g>
</g>
<!-- Node1&#45;&gt;Node3 -->
<g id="edge2" class="edge">
<title>Node1&#45;&gt;Node3</title>
<path fill="none" stroke="#63b8ff" d="M204.37,-500.77C174.76,-463.38 105.4,-375.83 77.78,-340.96"/>
<polygon fill="#63b8ff" stroke="#63b8ff" points="202.04,-502.46 211,-508.13 207.53,-498.12 202.04,-502.46"/>
</g>
<!-- Node8 -->
<g id="node8" class="node">
<title>Node8</title>
<g id="a_node8"><a xlink:href="heap_8h.html" target="_top" xlink:title=" ">
<polygon fill="white" stroke="#666666" points="271.88,-401.38 164.38,-401.38 164.38,-382.12 271.88,-382.12 271.88,-401.38"/>
<text text-anchor="middle" x="218.12" y="-387.88" font-family="Helvetica,sans-Serif" font-size="10.00">include/cppgc/heap.h</text>
</a>
</g>
</g>
<!-- Node1&#45;&gt;Node8 -->
<g id="edge8" class="edge">
<title>Node1&#45;&gt;Node8</title>
<path fill="none" stroke="#63b8ff" d="M218.12,-498.43C218.12,-470.82 218.12,-421.76 218.12,-401.68"/>
<polygon fill="#63b8ff" stroke="#63b8ff" points="214.63,-498.11 218.12,-508.11 221.63,-498.11 214.63,-498.11"/>
</g>
<!-- Node12 -->
<g id="node12" class="node">
<title>Node12</title>
<g id="a_node12"><a xlink:href="caged-heap-local-data_8h.html" target="_top" xlink:title=" ">
<polygon fill="white" stroke="#666666" points="531,-473.5 409.25,-473.5 409.25,-443 531,-443 531,-473.5"/>
<text text-anchor="start" x="417.25" y="-460" font-family="Helvetica,sans-Serif" font-size="10.00">include/cppgc/internal</text>
<text text-anchor="middle" x="470.12" y="-448.75" font-family="Helvetica,sans-Serif" font-size="10.00">/caged&#45;heap&#45;local&#45;data.h</text>
</a>
</g>
</g>
<!-- Node1&#45;&gt;Node12 -->
<g id="edge14" class="edge">
<title>Node1&#45;&gt;Node12</title>
<path fill="none" stroke="#63b8ff" d="M267.65,-506.55C308.21,-497.08 365.78,-483.63 409.17,-473.49"/>
<polygon fill="#63b8ff" stroke="#63b8ff" points="266.89,-503.37 257.95,-509.05 268.48,-510.19 266.89,-503.37"/>
</g>
<!-- Node13 -->
<g id="node13" class="node">
<title>Node13</title>
<g id="a_node13"><a xlink:href="write-barrier_8h.html" target="_top" xlink:title=" ">
<polygon fill="white" stroke="#666666" points="391.38,-473.5 280.88,-473.5 280.88,-443 391.38,-443 391.38,-473.5"/>
<text text-anchor="start" x="288.88" y="-460" font-family="Helvetica,sans-Serif" font-size="10.00">include/cppgc/internal</text>
<text text-anchor="middle" x="336.12" y="-448.75" font-family="Helvetica,sans-Serif" font-size="10.00">/write&#45;barrier.h</text>
</a>
</g>
</g>
<!-- Node1&#45;&gt;Node13 -->
<g id="edge15" class="edge">
<title>Node1&#45;&gt;Node13</title>
<path fill="none" stroke="#63b8ff" d="M246.07,-504.18C264.32,-495.08 288.12,-483.2 306.67,-473.94"/>
<polygon fill="#63b8ff" stroke="#63b8ff" points="244.69,-501.46 237.3,-509.05 247.81,-507.72 244.69,-501.46"/>
</g>
<!-- Node4 -->
<g id="node4" class="node">
<title>Node4</title>
<g id="a_node4"><a xlink:href="visitor_8h.html" target="_top" xlink:title=" ">
<polygon fill="white" stroke="#666666" points="347.5,-141 234.75,-141 234.75,-121.75 347.5,-121.75 347.5,-141"/>
<text text-anchor="middle" x="291.12" y="-127.5" font-family="Helvetica,sans-Serif" font-size="10.00">include/cppgc/visitor.h</text>
</a>
</g>
</g>
<!-- Node3&#45;&gt;Node4 -->
<g id="edge3" class="edge">
<title>Node3&#45;&gt;Node4</title>
<path fill="none" stroke="#63b8ff" d="M55.45,-299.83C43.28,-267.79 28.52,-211.57 57.12,-177 79.2,-150.31 172.57,-139.44 234.48,-135.12"/>
<polygon fill="#63b8ff" stroke="#63b8ff" points="52.44,-300.73 59.41,-308.71 58.94,-298.12 52.44,-300.73"/>
</g>
<!-- Node5 -->
<g id="node5" class="node">
<title>Node5</title>
<g id="a_node5"><a xlink:href="cross-thread-persistent_8h.html" target="_top" xlink:title=" ">
<polygon fill="white" stroke="#666666" points="473.62,-30.5 370.62,-30.5 370.62,0 473.62,0 473.62,-30.5"/>
<text text-anchor="start" x="378.62" y="-17" font-family="Helvetica,sans-Serif" font-size="10.00">include/cppgc/cross</text>
<text text-anchor="middle" x="422.12" y="-5.75" font-family="Helvetica,sans-Serif" font-size="10.00">&#45;thread&#45;persistent.h</text>
</a>
</g>
</g>
<!-- Node4&#45;&gt;Node5 -->
<g id="edge4" class="edge">
<title>Node4&#45;&gt;Node5</title>
<path fill="none" stroke="#63b8ff" d="M262.85,-115.98C241.96,-103.4 219.35,-84.42 233.12,-66.5 249.78,-44.83 320.24,-30.54 370.24,-22.92"/>
<polygon fill="#63b8ff" stroke="#63b8ff" points="260.77,-119.38 271.19,-121.27 264.22,-113.29 260.77,-119.38"/>
</g>
<!-- Node6 -->
<g id="node6" class="node">
<title>Node6</title>
<g id="a_node6"><a xlink:href="persistent_8h.html" target="_top" xlink:title=" ">
<polygon fill="white" stroke="#666666" points="486.75,-85.75 357.5,-85.75 357.5,-66.5 486.75,-66.5 486.75,-85.75"/>
<text text-anchor="middle" x="422.12" y="-72.25" font-family="Helvetica,sans-Serif" font-size="10.00">include/cppgc/persistent.h</text>
</a>
</g>
</g>
<!-- Node4&#45;&gt;Node6 -->
<g id="edge5" class="edge">
<title>Node4&#45;&gt;Node6</title>
<path fill="none" stroke="#63b8ff" d="M323.31,-117.29C347.06,-107.64 378.77,-94.75 399.79,-86.2"/>
<polygon fill="#63b8ff" stroke="#63b8ff" points="322.29,-114.33 314.35,-121.34 324.93,-120.82 322.29,-114.33"/>
</g>
<!-- Node7 -->
<g id="node7" class="node">
<title>Node7</title>
<g id="a_node7"><a xlink:href="v8-cppgc_8h.html" target="_top" xlink:title=" ">
<polygon fill="white" stroke="#666666" points="339.62,-85.75 242.62,-85.75 242.62,-66.5 339.62,-66.5 339.62,-85.75"/>
<text text-anchor="middle" x="291.12" y="-72.25" font-family="Helvetica,sans-Serif" font-size="10.00">include/v8&#45;cppgc.h</text>
</a>
</g>
</g>
<!-- Node4&#45;&gt;Node7 -->
<g id="edge7" class="edge">
<title>Node4&#45;&gt;Node7</title>
<path fill="none" stroke="#63b8ff" d="M291.12,-110.71C291.12,-102.27 291.12,-92.83 291.12,-86.11"/>
<polygon fill="#63b8ff" stroke="#63b8ff" points="287.63,-110.58 291.12,-120.58 294.63,-110.58 287.63,-110.58"/>
</g>
<!-- Node6&#45;&gt;Node5 -->
<g id="edge6" class="edge">
<title>Node6&#45;&gt;Node5</title>
<path fill="none" stroke="#63b8ff" d="M422.12,-55.2C422.12,-47.2 422.12,-38.15 422.12,-30.78"/>
<polygon fill="#63b8ff" stroke="#63b8ff" points="418.63,-55.18 422.12,-65.18 425.63,-55.18 418.63,-55.18"/>
</g>
<!-- Node9 -->
<g id="node9" class="node">
<title>Node9</title>
<g id="a_node9"><a xlink:href="liveness-broker_8h.html" target="_top" xlink:title=" ">
<polygon fill="white" stroke="#666666" points="262.62,-274 147.62,-274 147.62,-243.5 262.62,-243.5 262.62,-274"/>
<text text-anchor="start" x="155.62" y="-260.5" font-family="Helvetica,sans-Serif" font-size="10.00">include/cppgc/liveness</text>
<text text-anchor="middle" x="205.12" y="-249.25" font-family="Helvetica,sans-Serif" font-size="10.00">&#45;broker.h</text>
</a>
</g>
</g>
<!-- Node8&#45;&gt;Node9 -->
<g id="edge9" class="edge">
<title>Node8&#45;&gt;Node9</title>
<path fill="none" stroke="#63b8ff" d="M216.18,-371.12C213.54,-344.57 208.9,-297.81 206.56,-274.22"/>
<polygon fill="#63b8ff" stroke="#63b8ff" points="212.76,-371.14 217.23,-380.75 219.73,-370.45 212.76,-371.14"/>
</g>
<!-- Node9&#45;&gt;Node4 -->
<g id="edge13" class="edge">
<title>Node9&#45;&gt;Node4</title>
<path fill="none" stroke="#63b8ff" d="M136.79,-243.09C90.7,-230.04 42.58,-208.17 68.12,-177 88.77,-151.81 175.44,-140.55 234.45,-135.73"/>
<polygon fill="#63b8ff" stroke="#63b8ff" points="135.61,-246.67 146.18,-245.9 137.44,-239.91 135.61,-246.67"/>
</g>
<!-- Node10 -->
<g id="node10" class="node">
<title>Node10</title>
<g id="a_node10"><a xlink:href="ephemeron-pair_8h.html" target="_top" xlink:title=" ">
<polygon fill="white" stroke="#666666" points="354.62,-207.5 227.62,-207.5 227.62,-177 354.62,-177 354.62,-207.5"/>
<text text-anchor="start" x="235.62" y="-194" font-family="Helvetica,sans-Serif" font-size="10.00">include/cppgc/ephemeron</text>
<text text-anchor="middle" x="291.12" y="-182.75" font-family="Helvetica,sans-Serif" font-size="10.00">&#45;pair.h</text>
</a>
</g>
</g>
<!-- Node9&#45;&gt;Node10 -->
<g id="edge10" class="edge">
<title>Node9&#45;&gt;Node10</title>
<path fill="none" stroke="#63b8ff" d="M233.37,-236.57C245.92,-227.16 260.38,-216.31 271.69,-207.83"/>
<polygon fill="#63b8ff" stroke="#63b8ff" points="231.54,-234.31 225.64,-243.11 235.74,-239.91 231.54,-234.31"/>
</g>
<!-- Node11 -->
<g id="node11" class="node">
<title>Node11</title>
<g id="a_node11"><a xlink:href="prefinalizer_8h.html" target="_top" xlink:title=" ">
<polygon fill="white" stroke="#666666" points="209.25,-201.88 77,-201.88 77,-182.62 209.25,-182.62 209.25,-201.88"/>
<text text-anchor="middle" x="143.12" y="-188.38" font-family="Helvetica,sans-Serif" font-size="10.00">include/cppgc/prefinalizer.h</text>
</a>
</g>
</g>
<!-- Node9&#45;&gt;Node11 -->
<g id="edge12" class="edge">
<title>Node9&#45;&gt;Node11</title>
<path fill="none" stroke="#63b8ff" d="M183.46,-235.21C172.48,-223.78 159.78,-210.57 151.61,-202.07"/>
<polygon fill="#63b8ff" stroke="#63b8ff" points="180.6,-237.33 190.06,-242.11 185.65,-232.48 180.6,-237.33"/>
</g>
<!-- Node10&#45;&gt;Node4 -->
<g id="edge11" class="edge">
<title>Node10&#45;&gt;Node4</title>
<path fill="none" stroke="#63b8ff" d="M291.12,-165.82C291.12,-157.14 291.12,-147.98 291.12,-141.45"/>
<polygon fill="#63b8ff" stroke="#63b8ff" points="287.63,-165.7 291.12,-175.7 294.63,-165.7 287.63,-165.7"/>
</g>
<!-- Node14 -->
<g id="node14" class="node">
<title>Node14</title>
<g id="a_node14"><a xlink:href="heap-consistency_8h.html" target="_top" xlink:title=" ">
<polygon fill="white" stroke="#666666" points="543.12,-407 443.12,-407 443.12,-376.5 543.12,-376.5 543.12,-407"/>
<text text-anchor="start" x="451.12" y="-393.5" font-family="Helvetica,sans-Serif" font-size="10.00">include/cppgc/heap</text>
<text text-anchor="middle" x="493.12" y="-382.25" font-family="Helvetica,sans-Serif" font-size="10.00">&#45;consistency.h</text>
</a>
</g>
</g>
<!-- Node13&#45;&gt;Node14 -->
<g id="edge16" class="edge">
<title>Node13&#45;&gt;Node14</title>
<path fill="none" stroke="#63b8ff" d="M381.73,-438.51C405.81,-428.62 434.94,-416.65 457.37,-407.44"/>
<polygon fill="#63b8ff" stroke="#63b8ff" points="380.67,-435.58 372.75,-442.61 383.33,-442.05 380.67,-435.58"/>
</g>
<!-- Node15 -->
<g id="node15" class="node">
<title>Node15</title>
<g id="a_node15"><a xlink:href="pointer-policies_8h.html" target="_top" xlink:title=" ">
<polygon fill="white" stroke="#666666" points="425.38,-407 314.88,-407 314.88,-376.5 425.38,-376.5 425.38,-407"/>
<text text-anchor="start" x="322.88" y="-393.5" font-family="Helvetica,sans-Serif" font-size="10.00">include/cppgc/internal</text>
<text text-anchor="middle" x="370.12" y="-382.25" font-family="Helvetica,sans-Serif" font-size="10.00">/pointer&#45;policies.h</text>
</a>
</g>
</g>
<!-- Node13&#45;&gt;Node15 -->
<g id="edge17" class="edge">
<title>Node13&#45;&gt;Node15</title>
<path fill="none" stroke="#63b8ff" d="M348.9,-433.01C353.46,-424.37 358.45,-414.91 362.44,-407.33"/>
<polygon fill="#63b8ff" stroke="#63b8ff" points="345.41,-431.14 343.84,-441.61 351.6,-434.4 345.41,-431.14"/>
</g>
<!-- Node15&#45;&gt;Node4 -->
<g id="edge24" class="edge">
<title>Node15&#45;&gt;Node4</title>
<path fill="none" stroke="#63b8ff" d="M376.65,-365.58C386.1,-323.37 398.91,-237.05 364.12,-177 354.15,-159.78 334.61,-148.36 318.26,-141.39"/>
<polygon fill="#63b8ff" stroke="#63b8ff" points="373.02,-364.72 374.11,-375.25 379.83,-366.33 373.02,-364.72"/>
</g>
<!-- Node15&#45;&gt;Node5 -->
<g id="edge18" class="edge">
<title>Node15&#45;&gt;Node5</title>
<path fill="none" stroke="#63b8ff" d="M417.73,-371.36C460,-350.62 515.12,-313.3 515.12,-259.75 515.12,-259.75 515.12,-259.75 515.12,-130.38 515.12,-100.76 513.61,-90.4 496.12,-66.5 485.12,-51.46 468.17,-39.48 453.27,-30.99"/>
<polygon fill="#63b8ff" stroke="#63b8ff" points="416.39,-368.59 408.84,-376.03 419.38,-374.92 416.39,-368.59"/>
</g>
<!-- Node15&#45;&gt;Node6 -->
<g id="edge23" class="edge">
<title>Node15&#45;&gt;Node6</title>
<path fill="none" stroke="#63b8ff" d="M397.11,-368.94C423.3,-345.13 459.12,-304.41 459.12,-259.75 459.12,-259.75 459.12,-259.75 459.12,-191.25 459.12,-150.22 437.21,-104.75 427.11,-85.98"/>
<polygon fill="#63b8ff" stroke="#63b8ff" points="395.21,-366.83 390,-376.05 399.82,-372.09 395.21,-366.83"/>
</g>
<!-- Node16 -->
<g id="node16" class="node">
<title>Node16</title>
<g id="a_node16"><a xlink:href="member_8h.html" target="_top" xlink:title=" ">
<polygon fill="white" stroke="#666666" points="355,-334.88 233.25,-334.88 233.25,-315.62 355,-315.62 355,-334.88"/>
<text text-anchor="middle" x="294.12" y="-321.38" font-family="Helvetica,sans-Serif" font-size="10.00">include/cppgc/member.h</text>
</a>
</g>
</g>
<!-- Node15&#45;&gt;Node16 -->
<g id="edge19" class="edge">
<title>Node15&#45;&gt;Node16</title>
<path fill="none" stroke="#63b8ff" d="M344.73,-369.2C331.02,-357.56 314.83,-343.82 304.52,-335.07"/>
<polygon fill="#63b8ff" stroke="#63b8ff" points="341.99,-372.31 351.88,-376.11 346.52,-366.97 341.99,-372.31"/>
</g>
<!-- Node16&#45;&gt;Node4 -->
<g id="edge22" class="edge">
<title>Node16&#45;&gt;Node4</title>
<path fill="none" stroke="#63b8ff" d="M312.06,-308.2C340.47,-280.76 390.08,-223.29 364.12,-177 354.46,-159.77 335.14,-148.4 318.8,-141.45"/>
<polygon fill="#63b8ff" stroke="#63b8ff" points="310.26,-305.02 305.36,-314.41 315.05,-310.13 310.26,-305.02"/>
</g>
<!-- Node16&#45;&gt;Node9 -->
<g id="edge21" class="edge">
<title>Node16&#45;&gt;Node9</title>
<path fill="none" stroke="#63b8ff" d="M273.01,-308.95C258.56,-298.47 239.5,-284.66 225.26,-274.34"/>
<polygon fill="#63b8ff" stroke="#63b8ff" points="270.6,-312.25 280.75,-315.28 274.71,-306.58 270.6,-312.25"/>
</g>
<!-- Node16&#45;&gt;Node10 -->
<g id="edge20" class="edge">
<title>Node16&#45;&gt;Node10</title>
<path fill="none" stroke="#63b8ff" d="M293.67,-304.26C293.06,-277.65 291.99,-231.21 291.46,-207.72"/>
<polygon fill="#63b8ff" stroke="#63b8ff" points="290.19,-304.33 293.92,-314.25 297.19,-304.17 290.19,-304.33"/>
</g>
</g>
</svg>
