<?xml version="1.0" encoding="UTF-8" standalone="no"?>
<!DOCTYPE svg PUBLIC "-//W3C//DTD SVG 1.1//EN"
 "http://www.w3.org/Graphics/SVG/1.1/DTD/svg11.dtd">
<!-- Generated by graphviz version 8.0.5 (20230430.1635)
 -->
<!-- Title: include/v8&#45;unwinder.h Pages: 1 -->
<svg width="469pt" height="359pt"
 viewBox="0.00 0.00 468.75 358.75" xmlns="http://www.w3.org/2000/svg" xmlns:xlink="http://www.w3.org/1999/xlink">
<g id="graph0" class="graph" transform="scale(1 1) rotate(0) translate(4 354.75)">
<title>include/v8&#45;unwinder.h</title>
<!-- Node1 -->
<g id="node1" class="node">
<title>Node1</title>
<g id="a_node1"><a xlink:title=" ">
<polygon fill="#999999" stroke="#666666" points="235.62,-350.75 125.88,-350.75 125.88,-331.5 235.62,-331.5 235.62,-350.75"/>
<text text-anchor="middle" x="180.75" y="-337.25" font-family="Helvetica,sans-Serif" font-size="10.00">include/v8&#45;unwinder.h</text>
</a>
</g>
</g>
<!-- Node2 -->
<g id="node2" class="node">
<title>Node2</title>
<g id="a_node2"><a xlink:title=" ">
<polygon fill="#e0e0e0" stroke="#999999" points="72,-240.25 21.5,-240.25 21.5,-221 72,-221 72,-240.25"/>
<text text-anchor="middle" x="46.75" y="-226.75" font-family="Helvetica,sans-Serif" font-size="10.00">memory</text>
</a>
</g>
</g>
<!-- Node1&#45;&gt;Node2 -->
<g id="edge1" class="edge">
<title>Node1&#45;&gt;Node2</title>
<path fill="none" stroke="#63b8ff" d="M161.93,-331.11C145.9,-322.98 122.68,-310.07 104.75,-295.5 87.75,-281.69 71.24,-262.81 60.21,-249.16"/>
<polygon fill="#63b8ff" stroke="#63b8ff" points="62.46,-247.36 53.52,-241.68 56.97,-251.69 62.46,-247.36"/>
</g>
<!-- Node3 -->
<g id="node3" class="node">
<title>Node3</title>
<g id="a_node3"><a xlink:href="v8-embedder-state-scope_8h.html" target="_top" xlink:title=" ">
<polygon fill="white" stroke="#666666" points="247.62,-295.5 113.88,-295.5 113.88,-276.25 247.62,-276.25 247.62,-295.5"/>
<text text-anchor="middle" x="180.75" y="-282" font-family="Helvetica,sans-Serif" font-size="10.00">v8&#45;embedder&#45;state&#45;scope.h</text>
</a>
</g>
</g>
<!-- Node1&#45;&gt;Node3 -->
<g id="edge2" class="edge">
<title>Node1&#45;&gt;Node3</title>
<path fill="none" stroke="#63b8ff" d="M180.75,-331.33C180.75,-324.67 180.75,-315.24 180.75,-306.78"/>
<polygon fill="#63b8ff" stroke="#63b8ff" points="184.25,-306.86 180.75,-296.86 177.25,-306.86 184.25,-306.86"/>
</g>
<!-- Node13 -->
<g id="node13" class="node">
<title>Node13</title>
<g id="a_node13"><a xlink:href="v8config_8h.html" target="_top" xlink:title=" ">
<polygon fill="white" stroke="#666666" points="425.5,-19.25 366,-19.25 366,0 425.5,0 425.5,-19.25"/>
<text text-anchor="middle" x="395.75" y="-5.75" font-family="Helvetica,sans-Serif" font-size="10.00">v8config.h</text>
</a>
</g>
</g>
<!-- Node1&#45;&gt;Node13 -->
<g id="edge26" class="edge">
<title>Node1&#45;&gt;Node13</title>
<path fill="none" stroke="#63b8ff" d="M232.43,-331.04C313.34,-315.32 460.75,-280.04 460.75,-231.62 460.75,-231.62 460.75,-231.62 460.75,-119.12 460.75,-82.23 432.76,-47.04 413.51,-27.2"/>
<polygon fill="#63b8ff" stroke="#63b8ff" points="416.48,-25.22 406.91,-20.67 411.55,-30.19 416.48,-25.22"/>
</g>
<!-- Node3&#45;&gt;Node2 -->
<g id="edge3" class="edge">
<title>Node3&#45;&gt;Node2</title>
<path fill="none" stroke="#63b8ff" d="M158.02,-275.84C136.55,-267.31 104.12,-254.42 79.8,-244.76"/>
<polygon fill="#63b8ff" stroke="#63b8ff" points="81.18,-241.14 70.59,-240.7 78.59,-247.65 81.18,-241.14"/>
</g>
<!-- Node4 -->
<g id="node4" class="node">
<title>Node4</title>
<g id="a_node4"><a xlink:href="v8-context_8h.html" target="_top" xlink:title=" ">
<polygon fill="white" stroke="#666666" points="266,-240.25 197.5,-240.25 197.5,-221 266,-221 266,-240.25"/>
<text text-anchor="middle" x="231.75" y="-226.75" font-family="Helvetica,sans-Serif" font-size="10.00">v8&#45;context.h</text>
</a>
</g>
</g>
<!-- Node3&#45;&gt;Node4 -->
<g id="edge4" class="edge">
<title>Node3&#45;&gt;Node4</title>
<path fill="none" stroke="#63b8ff" d="M189.17,-276.08C196.36,-268.57 206.91,-257.56 215.7,-248.38"/>
<polygon fill="#63b8ff" stroke="#63b8ff" points="217.76,-251.25 222.15,-241.61 212.7,-246.41 217.76,-251.25"/>
</g>
<!-- Node7 -->
<g id="node7" class="node">
<title>Node7</title>
<g id="a_node7"><a xlink:href="v8-local-handle_8h.html" target="_top" xlink:title=" ">
<polygon fill="white" stroke="#666666" points="292.12,-129.75 203.38,-129.75 203.38,-110.5 292.12,-110.5 292.12,-129.75"/>
<text text-anchor="middle" x="247.75" y="-116.25" font-family="Helvetica,sans-Serif" font-size="10.00">v8&#45;local&#45;handle.h</text>
</a>
</g>
</g>
<!-- Node3&#45;&gt;Node7 -->
<g id="edge25" class="edge">
<title>Node3&#45;&gt;Node7</title>
<path fill="none" stroke="#63b8ff" d="M223.47,-275.77C268.31,-263.64 336.3,-237.33 365.75,-185 382.51,-155.22 341.31,-138.59 303.07,-129.83"/>
<polygon fill="#63b8ff" stroke="#63b8ff" points="303.93,-126.22 293.42,-127.56 302.47,-133.06 303.93,-126.22"/>
</g>
<!-- Node10 -->
<g id="node10" class="node">
<title>Node10</title>
<g id="a_node10"><a xlink:href="v8-internal_8h.html" target="_top" xlink:title=" ">
<polygon fill="white" stroke="#666666" points="216,-74.5 147.5,-74.5 147.5,-55.25 216,-55.25 216,-74.5"/>
<text text-anchor="middle" x="181.75" y="-61" font-family="Helvetica,sans-Serif" font-size="10.00">v8&#45;internal.h</text>
</a>
</g>
</g>
<!-- Node3&#45;&gt;Node10 -->
<g id="edge24" class="edge">
<title>Node3&#45;&gt;Node10</title>
<path fill="none" stroke="#63b8ff" d="M180.79,-276.02C180.94,-243.62 181.45,-131.05 181.66,-85.37"/>
<polygon fill="#63b8ff" stroke="#63b8ff" points="185.16,-85.62 181.71,-75.6 178.16,-85.59 185.16,-85.62"/>
</g>
<!-- Node5 -->
<g id="node5" class="node">
<title>Node5</title>
<g id="a_node5"><a xlink:title=" ">
<polygon fill="#e0e0e0" stroke="#999999" points="47.5,-19.25 0,-19.25 0,0 47.5,0 47.5,-19.25"/>
<text text-anchor="middle" x="23.75" y="-5.75" font-family="Helvetica,sans-Serif" font-size="10.00">stdint.h</text>
</a>
</g>
</g>
<!-- Node4&#45;&gt;Node5 -->
<g id="edge5" class="edge">
<title>Node4&#45;&gt;Node5</title>
<path fill="none" stroke="#63b8ff" d="M223.34,-220.77C191.91,-187.68 81.06,-70.97 39.58,-27.29"/>
<polygon fill="#63b8ff" stroke="#63b8ff" points="42.46,-25.19 33.04,-20.35 37.39,-30.01 42.46,-25.19"/>
</g>
<!-- Node6 -->
<g id="node6" class="node">
<title>Node6</title>
<g id="a_node6"><a xlink:href="v8-data_8h.html" target="_top" xlink:title=" ">
<polygon fill="white" stroke="#666666" points="356.62,-185 300.88,-185 300.88,-165.75 356.62,-165.75 356.62,-185"/>
<text text-anchor="middle" x="328.75" y="-171.5" font-family="Helvetica,sans-Serif" font-size="10.00">v8&#45;data.h</text>
</a>
</g>
</g>
<!-- Node4&#45;&gt;Node6 -->
<g id="edge6" class="edge">
<title>Node4&#45;&gt;Node6</title>
<path fill="none" stroke="#63b8ff" d="M248.2,-220.59C263.12,-212.41 285.34,-200.21 302.67,-190.69"/>
<polygon fill="#63b8ff" stroke="#63b8ff" points="304.13,-193.33 311.21,-185.45 300.76,-187.2 304.13,-193.33"/>
</g>
<!-- Node4&#45;&gt;Node7 -->
<g id="edge18" class="edge">
<title>Node4&#45;&gt;Node7</title>
<path fill="none" stroke="#63b8ff" d="M221.22,-220.72C208.17,-208.55 188.71,-185.93 197.75,-165.75 203.07,-153.88 213.27,-143.87 223.09,-136.35"/>
<polygon fill="#63b8ff" stroke="#63b8ff" points="224.69,-138.8 230.83,-130.17 220.65,-133.09 224.69,-138.8"/>
</g>
<!-- Node4&#45;&gt;Node13 -->
<g id="edge23" class="edge">
<title>Node4&#45;&gt;Node13</title>
<path fill="none" stroke="#63b8ff" d="M266.3,-227.73C297.08,-224.1 340.98,-213.83 365.75,-185 403.89,-140.61 401.88,-65.7 398.35,-30.29"/>
<polygon fill="#63b8ff" stroke="#63b8ff" points="401.73,-30.06 397.1,-20.53 394.78,-30.87 401.73,-30.06"/>
</g>
<!-- Node14 -->
<g id="node14" class="node">
<title>Node14</title>
<g id="a_node14"><a xlink:href="v8-snapshot_8h.html" target="_top" xlink:title=" ">
<polygon fill="white" stroke="#666666" points="283.12,-185 206.38,-185 206.38,-165.75 283.12,-165.75 283.12,-185"/>
<text text-anchor="middle" x="244.75" y="-171.5" font-family="Helvetica,sans-Serif" font-size="10.00">v8&#45;snapshot.h</text>
</a>
</g>
</g>
<!-- Node4&#45;&gt;Node14 -->
<g id="edge19" class="edge">
<title>Node4&#45;&gt;Node14</title>
<path fill="none" stroke="#63b8ff" d="M233.9,-220.83C235.54,-214.09 237.88,-204.52 239.96,-195.99"/>
<polygon fill="#63b8ff" stroke="#63b8ff" points="243.59,-196.9 242.56,-186.36 236.78,-195.24 243.59,-196.9"/>
</g>
<!-- Node6&#45;&gt;Node7 -->
<g id="edge7" class="edge">
<title>Node6&#45;&gt;Node7</title>
<path fill="none" stroke="#63b8ff" d="M315.01,-165.34C302.79,-157.31 284.69,-145.41 270.34,-135.98"/>
<polygon fill="#63b8ff" stroke="#63b8ff" points="272.84,-132.77 262.56,-130.2 268.99,-138.62 272.84,-132.77"/>
</g>
<!-- Node6&#45;&gt;Node13 -->
<g id="edge17" class="edge">
<title>Node6&#45;&gt;Node13</title>
<path fill="none" stroke="#63b8ff" d="M332.35,-165.57C342.85,-139.92 373.58,-64.8 388.05,-29.44"/>
<polygon fill="#63b8ff" stroke="#63b8ff" points="391.58,-31.05 392.13,-20.47 385.1,-28.4 391.58,-31.05"/>
</g>
<!-- Node8 -->
<g id="node8" class="node">
<title>Node8</title>
<g id="a_node8"><a xlink:title=" ">
<polygon fill="#e0e0e0" stroke="#999999" points="269,-19.25 218.5,-19.25 218.5,0 269,0 269,-19.25"/>
<text text-anchor="middle" x="243.75" y="-5.75" font-family="Helvetica,sans-Serif" font-size="10.00">stddef.h</text>
</a>
</g>
</g>
<!-- Node7&#45;&gt;Node8 -->
<g id="edge8" class="edge">
<title>Node7&#45;&gt;Node8</title>
<path fill="none" stroke="#63b8ff" d="M247.42,-110.25C246.78,-92.92 245.36,-54.23 244.48,-30.49"/>
<polygon fill="#63b8ff" stroke="#63b8ff" points="247.95,-30.49 244.08,-20.63 240.95,-30.75 247.95,-30.49"/>
</g>
<!-- Node9 -->
<g id="node9" class="node">
<title>Node9</title>
<g id="a_node9"><a xlink:title=" ">
<polygon fill="#e0e0e0" stroke="#999999" points="348.25,-19.25 287.25,-19.25 287.25,0 348.25,0 348.25,-19.25"/>
<text text-anchor="middle" x="317.75" y="-5.75" font-family="Helvetica,sans-Serif" font-size="10.00">type_traits</text>
</a>
</g>
</g>
<!-- Node7&#45;&gt;Node9 -->
<g id="edge9" class="edge">
<title>Node7&#45;&gt;Node9</title>
<path fill="none" stroke="#63b8ff" d="M253.48,-110.25C264.96,-92.44 291,-52.08 306.18,-28.56"/>
<polygon fill="#63b8ff" stroke="#63b8ff" points="309.46,-30.93 311.94,-20.63 303.58,-27.13 309.46,-30.93"/>
</g>
<!-- Node7&#45;&gt;Node10 -->
<g id="edge10" class="edge">
<title>Node7&#45;&gt;Node10</title>
<path fill="none" stroke="#63b8ff" d="M236.55,-110.09C226.92,-102.32 212.8,-90.92 201.3,-81.65"/>
<polygon fill="#63b8ff" stroke="#63b8ff" points="203.76,-78.33 193.78,-74.77 199.37,-83.78 203.76,-78.33"/>
</g>
<!-- Node10&#45;&gt;Node5 -->
<g id="edge12" class="edge">
<title>Node10&#45;&gt;Node5</title>
<path fill="none" stroke="#63b8ff" d="M154.95,-54.84C128.21,-45.83 87.03,-31.95 57.95,-22.15"/>
<polygon fill="#63b8ff" stroke="#63b8ff" points="59.43,-18.62 48.83,-18.74 57.19,-25.25 59.43,-18.62"/>
</g>
<!-- Node10&#45;&gt;Node8 -->
<g id="edge11" class="edge">
<title>Node10&#45;&gt;Node8</title>
<path fill="none" stroke="#63b8ff" d="M192.27,-54.84C201.23,-47.15 214.32,-35.9 225.06,-26.68"/>
<polygon fill="#63b8ff" stroke="#63b8ff" points="227.08,-28.7 232.39,-19.52 222.52,-23.39 227.08,-28.7"/>
</g>
<!-- Node10&#45;&gt;Node9 -->
<g id="edge14" class="edge">
<title>Node10&#45;&gt;Node9</title>
<path fill="none" stroke="#63b8ff" d="M204.82,-54.84C226.7,-46.27 259.82,-33.31 284.54,-23.63"/>
<polygon fill="#63b8ff" stroke="#63b8ff" points="285.53,-26.61 293.57,-19.7 282.98,-20.09 285.53,-26.61"/>
</g>
<!-- Node11 -->
<g id="node11" class="node">
<title>Node11</title>
<g id="a_node11"><a xlink:title=" ">
<polygon fill="#e0e0e0" stroke="#999999" points="113.5,-19.25 66,-19.25 66,0 113.5,0 113.5,-19.25"/>
<text text-anchor="middle" x="89.75" y="-5.75" font-family="Helvetica,sans-Serif" font-size="10.00">string.h</text>
</a>
</g>
</g>
<!-- Node10&#45;&gt;Node11 -->
<g id="edge13" class="edge">
<title>Node10&#45;&gt;Node11</title>
<path fill="none" stroke="#63b8ff" d="M166.14,-54.84C152.13,-46.73 131.32,-34.68 114.95,-25.21"/>
<polygon fill="#63b8ff" stroke="#63b8ff" points="116.84,-21.68 106.43,-19.7 113.33,-27.74 116.84,-21.68"/>
</g>
<!-- Node12 -->
<g id="node12" class="node">
<title>Node12</title>
<g id="a_node12"><a xlink:href="v8-version_8h.html" target="_top" xlink:title=" ">
<polygon fill="white" stroke="#666666" points="200,-19.25 131.5,-19.25 131.5,0 200,0 200,-19.25"/>
<text text-anchor="middle" x="165.75" y="-5.75" font-family="Helvetica,sans-Serif" font-size="10.00">v8&#45;version.h</text>
</a>
</g>
</g>
<!-- Node10&#45;&gt;Node12 -->
<g id="edge15" class="edge">
<title>Node10&#45;&gt;Node12</title>
<path fill="none" stroke="#63b8ff" d="M179.11,-55.08C177.06,-48.26 174.14,-38.56 171.56,-29.95"/>
<polygon fill="#63b8ff" stroke="#63b8ff" points="174.68,-29.18 168.45,-20.61 167.98,-31.19 174.68,-29.18"/>
</g>
<!-- Node10&#45;&gt;Node13 -->
<g id="edge16" class="edge">
<title>Node10&#45;&gt;Node13</title>
<path fill="none" stroke="#63b8ff" d="M216.13,-55.32C254.01,-45.89 314.88,-30.75 355.1,-20.74"/>
<polygon fill="#63b8ff" stroke="#63b8ff" points="355.74,-23.94 364.6,-18.13 354.05,-17.14 355.74,-23.94"/>
</g>
<!-- Node14&#45;&gt;Node7 -->
<g id="edge21" class="edge">
<title>Node14&#45;&gt;Node7</title>
<path fill="none" stroke="#63b8ff" d="M245.25,-165.58C245.62,-158.92 246.15,-149.49 246.63,-141.03"/>
<polygon fill="#63b8ff" stroke="#63b8ff" points="250.18,-141.29 247.24,-131.11 243.19,-140.9 250.18,-141.29"/>
</g>
<!-- Node14&#45;&gt;Node10 -->
<g id="edge20" class="edge">
<title>Node14&#45;&gt;Node10</title>
<path fill="none" stroke="#63b8ff" d="M230.6,-165.54C219.12,-157.6 203.44,-144.88 194.75,-129.75 186.98,-116.23 183.81,-98.75 182.54,-85.5"/>
<polygon fill="#63b8ff" stroke="#63b8ff" points="185.98,-85.5 181.82,-75.75 178.99,-85.96 185.98,-85.5"/>
</g>
<!-- Node14&#45;&gt;Node13 -->
<g id="edge22" class="edge">
<title>Node14&#45;&gt;Node13</title>
<path fill="none" stroke="#63b8ff" d="M257.43,-165.54C269.24,-157.03 287.03,-143.46 300.75,-129.75 333.8,-96.71 366.48,-52.54 383.55,-28.34"/>
<polygon fill="#63b8ff" stroke="#63b8ff" points="386.83,-30.76 389.69,-20.55 381.09,-26.75 386.83,-30.76"/>
</g>
</g>
</svg>
