<?xml version="1.0" encoding="UTF-8" standalone="no"?>
<!DOCTYPE svg PUBLIC "-//W3C//DTD SVG 1.1//EN"
 "http://www.w3.org/Graphics/SVG/1.1/DTD/svg11.dtd">
<!-- Generated by graphviz version 8.0.5 (20230430.1635)
 -->
<!-- Title: include/cppgc/internal/api&#45;constants.h Pages: 1 -->
<svg width="713pt" height="548pt"
 viewBox="0.00 0.00 713.11 548.00" xmlns="http://www.w3.org/2000/svg" xmlns:xlink="http://www.w3.org/1999/xlink">
<g id="graph0" class="graph" transform="scale(1 1) rotate(0) translate(4 544)">
<title>include/cppgc/internal/api&#45;constants.h</title>
<!-- Node1 -->
<g id="node1" class="node">
<title>Node1</title>
<g id="a_node1"><a xlink:title=" ">
<polygon fill="#999999" stroke="#666666" points="255.12,-540 144.62,-540 144.62,-509.5 255.12,-509.5 255.12,-540"/>
<text text-anchor="start" x="152.62" y="-526.5" font-family="Helvetica,sans-Serif" font-size="10.00">include/cppgc/internal</text>
<text text-anchor="middle" x="199.88" y="-515.25" font-family="Helvetica,sans-Serif" font-size="10.00">/api&#45;constants.h</text>
</a>
</g>
</g>
<!-- Node2 -->
<g id="node2" class="node">
<title>Node2</title>
<g id="a_node2"><a xlink:href="allocation_8h.html" target="_top" xlink:title=" ">
<polygon fill="white" stroke="#666666" points="127.75,-467.88 0,-467.88 0,-448.62 127.75,-448.62 127.75,-467.88"/>
<text text-anchor="middle" x="63.88" y="-454.38" font-family="Helvetica,sans-Serif" font-size="10.00">include/cppgc/allocation.h</text>
</a>
</g>
</g>
<!-- Node1&#45;&gt;Node2 -->
<g id="edge1" class="edge">
<title>Node1&#45;&gt;Node2</title>
<path fill="none" stroke="#63b8ff" d="M159.3,-504.51C133.98,-492.5 102.57,-477.6 82.87,-468.26"/>
<polygon fill="#63b8ff" stroke="#63b8ff" points="157.48,-507.99 168.01,-509.11 160.48,-501.67 157.48,-507.99"/>
</g>
<!-- Node4 -->
<g id="node4" class="node">
<title>Node4</title>
<g id="a_node4"><a xlink:href="garbage-collected_8h.html" target="_top" xlink:title=" ">
<polygon fill="white" stroke="#666666" points="212.62,-340.5 99.12,-340.5 99.12,-310 212.62,-310 212.62,-340.5"/>
<text text-anchor="start" x="107.12" y="-327" font-family="Helvetica,sans-Serif" font-size="10.00">include/cppgc/garbage</text>
<text text-anchor="middle" x="155.88" y="-315.75" font-family="Helvetica,sans-Serif" font-size="10.00">&#45;collected.h</text>
</a>
</g>
</g>
<!-- Node1&#45;&gt;Node4 -->
<g id="edge3" class="edge">
<title>Node1&#45;&gt;Node4</title>
<path fill="none" stroke="#63b8ff" d="M185.92,-499.79C181.76,-491.68 177.58,-482.42 174.88,-473.5 160.56,-426.39 157.03,-367.61 156.16,-340.8"/>
<polygon fill="#63b8ff" stroke="#63b8ff" points="183.25,-501.2 191.08,-508.34 189.41,-497.87 183.25,-501.2"/>
</g>
<!-- Node9 -->
<g id="node9" class="node">
<title>Node9</title>
<g id="a_node9"><a xlink:href="caged-heap-local-data_8h.html" target="_top" xlink:title=" ">
<polygon fill="white" stroke="#666666" points="305.75,-473.5 184,-473.5 184,-443 305.75,-443 305.75,-473.5"/>
<text text-anchor="start" x="192" y="-460" font-family="Helvetica,sans-Serif" font-size="10.00">include/cppgc/internal</text>
<text text-anchor="middle" x="244.88" y="-448.75" font-family="Helvetica,sans-Serif" font-size="10.00">/caged&#45;heap&#45;local&#45;data.h</text>
</a>
</g>
</g>
<!-- Node1&#45;&gt;Node9 -->
<g id="edge9" class="edge">
<title>Node1&#45;&gt;Node9</title>
<path fill="none" stroke="#63b8ff" d="M216.2,-500.35C222.39,-491.48 229.25,-481.65 234.7,-473.83"/>
<polygon fill="#63b8ff" stroke="#63b8ff" points="212.94,-497.91 210.09,-508.11 218.68,-501.92 212.94,-497.91"/>
</g>
<!-- Node10 -->
<g id="node10" class="node">
<title>Node10</title>
<g id="a_node10"><a xlink:href="write-barrier_8h.html" target="_top" xlink:title=" ">
<polygon fill="white" stroke="#666666" points="434.12,-473.5 323.62,-473.5 323.62,-443 434.12,-443 434.12,-473.5"/>
<text text-anchor="start" x="331.62" y="-460" font-family="Helvetica,sans-Serif" font-size="10.00">include/cppgc/internal</text>
<text text-anchor="middle" x="378.88" y="-448.75" font-family="Helvetica,sans-Serif" font-size="10.00">/write&#45;barrier.h</text>
</a>
</g>
</g>
<!-- Node1&#45;&gt;Node10 -->
<g id="edge10" class="edge">
<title>Node1&#45;&gt;Node10</title>
<path fill="none" stroke="#63b8ff" d="M250.77,-505.41C278.44,-495.44 312.19,-483.28 338.11,-473.94"/>
<polygon fill="#63b8ff" stroke="#63b8ff" points="249.71,-502.43 241.49,-509.11 252.09,-509.02 249.71,-502.43"/>
</g>
<!-- Node3 -->
<g id="node3" class="node">
<title>Node3</title>
<g id="a_node3"><a xlink:href="explicit-management_8h.html" target="_top" xlink:title=" ">
<polygon fill="white" stroke="#666666" points="118.38,-407 9.38,-407 9.38,-376.5 118.38,-376.5 118.38,-407"/>
<text text-anchor="start" x="17.38" y="-393.5" font-family="Helvetica,sans-Serif" font-size="10.00">include/cppgc/explicit</text>
<text text-anchor="middle" x="63.88" y="-382.25" font-family="Helvetica,sans-Serif" font-size="10.00">&#45;management.h</text>
</a>
</g>
</g>
<!-- Node2&#45;&gt;Node3 -->
<g id="edge2" class="edge">
<title>Node2&#45;&gt;Node3</title>
<path fill="none" stroke="#63b8ff" d="M63.88,-437.52C63.88,-427.7 63.88,-416.05 63.88,-407.09"/>
<polygon fill="#63b8ff" stroke="#63b8ff" points="60.38,-437.28 63.88,-447.28 67.38,-437.28 60.38,-437.28"/>
</g>
<!-- Node5 -->
<g id="node5" class="node">
<title>Node5</title>
<g id="a_node5"><a xlink:href="visitor_8h.html" target="_top" xlink:title=" ">
<polygon fill="white" stroke="#666666" points="427.25,-141 314.5,-141 314.5,-121.75 427.25,-121.75 427.25,-141"/>
<text text-anchor="middle" x="370.88" y="-127.5" font-family="Helvetica,sans-Serif" font-size="10.00">include/cppgc/visitor.h</text>
</a>
</g>
</g>
<!-- Node4&#45;&gt;Node5 -->
<g id="edge4" class="edge">
<title>Node4&#45;&gt;Node5</title>
<path fill="none" stroke="#63b8ff" d="M161.35,-299.27C169.81,-266.53 189.17,-209.47 226.88,-177 251.17,-156.08 285.18,-144.96 314.06,-139.05"/>
<polygon fill="#63b8ff" stroke="#63b8ff" points="157.76,-298.21 158.8,-308.76 164.57,-299.87 157.76,-298.21"/>
</g>
<!-- Node6 -->
<g id="node6" class="node">
<title>Node6</title>
<g id="a_node6"><a xlink:href="cross-thread-persistent_8h.html" target="_top" xlink:title=" ">
<polygon fill="white" stroke="#666666" points="617.38,-30.5 514.38,-30.5 514.38,0 617.38,0 617.38,-30.5"/>
<text text-anchor="start" x="522.38" y="-17" font-family="Helvetica,sans-Serif" font-size="10.00">include/cppgc/cross</text>
<text text-anchor="middle" x="565.88" y="-5.75" font-family="Helvetica,sans-Serif" font-size="10.00">&#45;thread&#45;persistent.h</text>
</a>
</g>
</g>
<!-- Node5&#45;&gt;Node6 -->
<g id="edge5" class="edge">
<title>Node5&#45;&gt;Node6</title>
<path fill="none" stroke="#63b8ff" d="M395.31,-116.07C432.54,-94.29 503.1,-52.99 540.74,-30.96"/>
<polygon fill="#63b8ff" stroke="#63b8ff" points="394.04,-113.35 387.18,-121.42 397.57,-119.39 394.04,-113.35"/>
</g>
<!-- Node7 -->
<g id="node7" class="node">
<title>Node7</title>
<g id="a_node7"><a xlink:href="persistent_8h.html" target="_top" xlink:title=" ">
<polygon fill="white" stroke="#666666" points="630.5,-85.75 501.25,-85.75 501.25,-66.5 630.5,-66.5 630.5,-85.75"/>
<text text-anchor="middle" x="565.88" y="-72.25" font-family="Helvetica,sans-Serif" font-size="10.00">include/cppgc/persistent.h</text>
</a>
</g>
</g>
<!-- Node5&#45;&gt;Node7 -->
<g id="edge6" class="edge">
<title>Node5&#45;&gt;Node7</title>
<path fill="none" stroke="#63b8ff" d="M414.56,-118.45C450.3,-108.69 500.08,-95.09 532.63,-86.2"/>
<polygon fill="#63b8ff" stroke="#63b8ff" points="413.68,-115.33 404.95,-121.34 415.52,-122.08 413.68,-115.33"/>
</g>
<!-- Node8 -->
<g id="node8" class="node">
<title>Node8</title>
<g id="a_node8"><a xlink:href="v8-cppgc_8h.html" target="_top" xlink:title=" ">
<polygon fill="white" stroke="#666666" points="419.38,-85.75 322.38,-85.75 322.38,-66.5 419.38,-66.5 419.38,-85.75"/>
<text text-anchor="middle" x="370.88" y="-72.25" font-family="Helvetica,sans-Serif" font-size="10.00">include/v8&#45;cppgc.h</text>
</a>
</g>
</g>
<!-- Node5&#45;&gt;Node8 -->
<g id="edge8" class="edge">
<title>Node5&#45;&gt;Node8</title>
<path fill="none" stroke="#63b8ff" d="M370.88,-110.71C370.88,-102.27 370.88,-92.83 370.88,-86.11"/>
<polygon fill="#63b8ff" stroke="#63b8ff" points="367.38,-110.58 370.88,-120.58 374.38,-110.58 367.38,-110.58"/>
</g>
<!-- Node7&#45;&gt;Node6 -->
<g id="edge7" class="edge">
<title>Node7&#45;&gt;Node6</title>
<path fill="none" stroke="#63b8ff" d="M565.88,-55.2C565.88,-47.2 565.88,-38.15 565.88,-30.78"/>
<polygon fill="#63b8ff" stroke="#63b8ff" points="562.38,-55.18 565.88,-65.18 569.38,-55.18 562.38,-55.18"/>
</g>
<!-- Node11 -->
<g id="node11" class="node">
<title>Node11</title>
<g id="a_node11"><a xlink:href="heap-consistency_8h.html" target="_top" xlink:title=" ">
<polygon fill="white" stroke="#666666" points="349.88,-407 249.88,-407 249.88,-376.5 349.88,-376.5 349.88,-407"/>
<text text-anchor="start" x="257.88" y="-393.5" font-family="Helvetica,sans-Serif" font-size="10.00">include/cppgc/heap</text>
<text text-anchor="middle" x="299.88" y="-382.25" font-family="Helvetica,sans-Serif" font-size="10.00">&#45;consistency.h</text>
</a>
</g>
</g>
<!-- Node10&#45;&gt;Node11 -->
<g id="edge11" class="edge">
<title>Node10&#45;&gt;Node11</title>
<path fill="none" stroke="#63b8ff" d="M352.59,-435.79C341.14,-426.44 328.02,-415.73 317.73,-407.33"/>
<polygon fill="#63b8ff" stroke="#63b8ff" points="349.99,-439 359.95,-442.61 354.42,-433.58 349.99,-439"/>
</g>
<!-- Node12 -->
<g id="node12" class="node">
<title>Node12</title>
<g id="a_node12"><a xlink:href="pointer-policies_8h.html" target="_top" xlink:title=" ">
<polygon fill="white" stroke="#666666" points="478.12,-407 367.62,-407 367.62,-376.5 478.12,-376.5 478.12,-407"/>
<text text-anchor="start" x="375.62" y="-393.5" font-family="Helvetica,sans-Serif" font-size="10.00">include/cppgc/internal</text>
<text text-anchor="middle" x="422.88" y="-382.25" font-family="Helvetica,sans-Serif" font-size="10.00">/pointer&#45;policies.h</text>
</a>
</g>
</g>
<!-- Node10&#45;&gt;Node12 -->
<g id="edge12" class="edge">
<title>Node10&#45;&gt;Node12</title>
<path fill="none" stroke="#63b8ff" d="M395.03,-433.57C401.03,-424.78 407.65,-415.07 412.93,-407.33"/>
<polygon fill="#63b8ff" stroke="#63b8ff" points="391.6,-431.38 388.86,-441.61 397.39,-435.33 391.6,-431.38"/>
</g>
<!-- Node12&#45;&gt;Node5 -->
<g id="edge25" class="edge">
<title>Node12&#45;&gt;Node5</title>
<path fill="none" stroke="#63b8ff" d="M385.14,-370.56C372.46,-362.46 358.99,-352.24 348.88,-340.5 306.54,-291.38 301.71,-271.06 288.88,-207.5 286.19,-194.21 281.95,-188.65 288.88,-177 299.39,-159.31 319.65,-148.18 337.41,-141.47"/>
<polygon fill="#63b8ff" stroke="#63b8ff" points="382.81,-373.85 393.17,-376.08 386.46,-367.88 382.81,-373.85"/>
</g>
<!-- Node12&#45;&gt;Node6 -->
<g id="edge13" class="edge">
<title>Node12&#45;&gt;Node6</title>
<path fill="none" stroke="#63b8ff" d="M489.39,-383.61C561.64,-371.74 666.88,-340.58 666.88,-259.75 666.88,-259.75 666.88,-259.75 666.88,-130.38 666.88,-99.55 659.42,-90.33 639.88,-66.5 627.76,-51.73 610.2,-39.56 595.23,-30.89"/>
<polygon fill="#63b8ff" stroke="#63b8ff" points="488.89,-380.3 479.55,-385.29 489.97,-387.22 488.89,-380.3"/>
</g>
<!-- Node12&#45;&gt;Node7 -->
<g id="edge24" class="edge">
<title>Node12&#45;&gt;Node7</title>
<path fill="none" stroke="#63b8ff" d="M489.47,-385.56C556.36,-379.02 653.35,-365.49 680.88,-340.5 708.6,-315.33 704.88,-297.19 704.88,-259.75 704.88,-259.75 704.88,-259.75 704.88,-191.25 704.88,-134.74 635.39,-101.09 594.68,-86.22"/>
<polygon fill="#63b8ff" stroke="#63b8ff" points="489.22,-382.16 479.59,-386.59 489.88,-389.13 489.22,-382.16"/>
</g>
<!-- Node13 -->
<g id="node13" class="node">
<title>Node13</title>
<g id="a_node13"><a xlink:href="member_8h.html" target="_top" xlink:title=" ">
<polygon fill="white" stroke="#666666" points="479.75,-334.88 358,-334.88 358,-315.62 479.75,-315.62 479.75,-334.88"/>
<text text-anchor="middle" x="418.88" y="-321.38" font-family="Helvetica,sans-Serif" font-size="10.00">include/cppgc/member.h</text>
</a>
</g>
</g>
<!-- Node12&#45;&gt;Node13 -->
<g id="edge14" class="edge">
<title>Node12&#45;&gt;Node13</title>
<path fill="none" stroke="#63b8ff" d="M421.29,-365.18C420.63,-354.51 419.9,-342.83 419.42,-335.07"/>
<polygon fill="#63b8ff" stroke="#63b8ff" points="417.85,-365.35 421.97,-375.11 424.84,-364.92 417.85,-365.35"/>
</g>
<!-- Node13&#45;&gt;Node5 -->
<g id="edge23" class="edge">
<title>Node13&#45;&gt;Node5</title>
<path fill="none" stroke="#63b8ff" d="M394.02,-309.28C364.66,-289.97 317.35,-253.36 297.88,-207.5 292.58,-195.02 291.25,-188.82 297.88,-177 307.54,-159.77 326.86,-148.4 343.2,-141.45"/>
<polygon fill="#63b8ff" stroke="#63b8ff" points="391.9,-312.72 402.22,-315.15 395.67,-306.82 391.9,-312.72"/>
</g>
<!-- Node14 -->
<g id="node14" class="node">
<title>Node14</title>
<g id="a_node14"><a xlink:href="ephemeron-pair_8h.html" target="_top" xlink:title=" ">
<polygon fill="white" stroke="#666666" points="434.38,-207.5 307.38,-207.5 307.38,-177 434.38,-177 434.38,-207.5"/>
<text text-anchor="start" x="315.38" y="-194" font-family="Helvetica,sans-Serif" font-size="10.00">include/cppgc/ephemeron</text>
<text text-anchor="middle" x="370.88" y="-182.75" font-family="Helvetica,sans-Serif" font-size="10.00">&#45;pair.h</text>
</a>
</g>
</g>
<!-- Node13&#45;&gt;Node14 -->
<g id="edge15" class="edge">
<title>Node13&#45;&gt;Node14</title>
<path fill="none" stroke="#63b8ff" d="M410.2,-305.66C405.95,-296.26 400.9,-284.63 396.88,-274 388.27,-251.27 379.95,-224.3 375.13,-207.99"/>
<polygon fill="#63b8ff" stroke="#63b8ff" points="407.35,-306.84 414.71,-314.47 413.71,-303.92 407.35,-306.84"/>
</g>
<!-- Node15 -->
<g id="node15" class="node">
<title>Node15</title>
<g id="a_node15"><a xlink:href="liveness-broker_8h.html" target="_top" xlink:title=" ">
<polygon fill="white" stroke="#666666" points="520.38,-274 405.38,-274 405.38,-243.5 520.38,-243.5 520.38,-274"/>
<text text-anchor="start" x="413.38" y="-260.5" font-family="Helvetica,sans-Serif" font-size="10.00">include/cppgc/liveness</text>
<text text-anchor="middle" x="462.88" y="-249.25" font-family="Helvetica,sans-Serif" font-size="10.00">&#45;broker.h</text>
</a>
</g>
</g>
<!-- Node13&#45;&gt;Node15 -->
<g id="edge17" class="edge">
<title>Node13&#45;&gt;Node15</title>
<path fill="none" stroke="#63b8ff" d="M431.03,-306.44C437.98,-296.25 446.58,-283.64 453.09,-274.09"/>
<polygon fill="#63b8ff" stroke="#63b8ff" points="427.74,-304.05 424.99,-314.28 433.52,-307.99 427.74,-304.05"/>
</g>
<!-- Node14&#45;&gt;Node5 -->
<g id="edge16" class="edge">
<title>Node14&#45;&gt;Node5</title>
<path fill="none" stroke="#63b8ff" d="M370.88,-165.82C370.88,-157.14 370.88,-147.98 370.88,-141.45"/>
<polygon fill="#63b8ff" stroke="#63b8ff" points="367.38,-165.7 370.88,-175.7 374.38,-165.7 367.38,-165.7"/>
</g>
<!-- Node15&#45;&gt;Node5 -->
<g id="edge22" class="edge">
<title>Node15&#45;&gt;Node5</title>
<path fill="none" stroke="#63b8ff" d="M461.92,-232.4C460.15,-215.35 455.54,-193.11 443.88,-177 431.85,-160.4 411.58,-148.73 395.44,-141.49"/>
<polygon fill="#63b8ff" stroke="#63b8ff" points="458.5,-232.54 462.74,-242.25 465.48,-232.01 458.5,-232.54"/>
</g>
<!-- Node15&#45;&gt;Node14 -->
<g id="edge18" class="edge">
<title>Node15&#45;&gt;Node14</title>
<path fill="none" stroke="#63b8ff" d="M433.05,-236.84C419.54,-227.37 403.89,-216.39 391.67,-207.83"/>
<polygon fill="#63b8ff" stroke="#63b8ff" points="430.8,-240.24 441,-243.11 434.82,-234.51 430.8,-240.24"/>
</g>
<!-- Node16 -->
<g id="node16" class="node">
<title>Node16</title>
<g id="a_node16"><a xlink:href="prefinalizer-handler_8h.html" target="_top" xlink:title=" ">
<polygon fill="white" stroke="#666666" points="639.12,-207.5 528.62,-207.5 528.62,-177 639.12,-177 639.12,-207.5"/>
<text text-anchor="start" x="536.62" y="-194" font-family="Helvetica,sans-Serif" font-size="10.00">include/cppgc/internal</text>
<text text-anchor="middle" x="583.88" y="-182.75" font-family="Helvetica,sans-Serif" font-size="10.00">/prefinalizer&#45;handler.h</text>
</a>
</g>
</g>
<!-- Node15&#45;&gt;Node16 -->
<g id="edge19" class="edge">
<title>Node15&#45;&gt;Node16</title>
<path fill="none" stroke="#63b8ff" d="M499.81,-238.06C518.08,-228.32 539.76,-216.76 556.53,-207.83"/>
<polygon fill="#63b8ff" stroke="#63b8ff" points="498.51,-235.32 491.33,-243.11 501.8,-241.5 498.51,-235.32"/>
</g>
<!-- Node17 -->
<g id="node17" class="node">
<title>Node17</title>
<g id="a_node17"><a xlink:href="prefinalizer_8h.html" target="_top" xlink:title=" ">
<polygon fill="white" stroke="#666666" points="608,-141 475.75,-141 475.75,-121.75 608,-121.75 608,-141"/>
<text text-anchor="middle" x="541.88" y="-127.5" font-family="Helvetica,sans-Serif" font-size="10.00">include/cppgc/prefinalizer.h</text>
</a>
</g>
</g>
<!-- Node15&#45;&gt;Node17 -->
<g id="edge21" class="edge">
<title>Node15&#45;&gt;Node17</title>
<path fill="none" stroke="#63b8ff" d="M477.69,-234.23C495.4,-206.13 524.15,-160.5 536.24,-141.32"/>
<polygon fill="#63b8ff" stroke="#63b8ff" points="474.31,-232.04 471.94,-242.37 480.23,-235.77 474.31,-232.04"/>
</g>
<!-- Node16&#45;&gt;Node17 -->
<g id="edge20" class="edge">
<title>Node16&#45;&gt;Node17</title>
<path fill="none" stroke="#63b8ff" d="M567.19,-167.86C560.58,-158.59 553.38,-148.5 548.35,-141.45"/>
<polygon fill="#63b8ff" stroke="#63b8ff" points="564.84,-169.59 573.49,-175.7 570.53,-165.52 564.84,-169.59"/>
</g>
</g>
</svg>
