<?xml version="1.0" encoding="UTF-8" standalone="no"?>
<!DOCTYPE svg PUBLIC "-//W3C//DTD SVG 1.1//EN"
 "http://www.w3.org/Graphics/SVG/1.1/DTD/svg11.dtd">
<!-- Generated by graphviz version 8.0.5 (20230430.1635)
 -->
<!-- Title: v8::AnyCType Pages: 1 -->
<svg width="735pt" height="462pt"
 viewBox="0.00 0.00 735.25 462.25" xmlns="http://www.w3.org/2000/svg" xmlns:xlink="http://www.w3.org/1999/xlink">
<g id="graph0" class="graph" transform="scale(1 1) rotate(0) translate(4 458.25)">
<title>v8::AnyCType</title>
<!-- Node1 -->
<g id="node1" class="node">
<title>Node1</title>
<g id="a_node1"><a xlink:title=" ">
<polygon fill="#999999" stroke="#666666" points="727.25,-263.25 652,-263.25 652,-244 727.25,-244 727.25,-263.25"/>
<text text-anchor="middle" x="689.62" y="-249.75" font-family="Helvetica,sans-Serif" font-size="10.00">v8::AnyCType</text>
</a>
</g>
</g>
<!-- Node2 -->
<g id="node2" class="node">
<title>Node2</title>
<g id="a_node2"><a xlink:href="classv8_1_1Local.html" target="_top" xlink:title=" ">
<polygon fill="white" stroke="#666666" points="532.75,-413.25 417.75,-413.25 417.75,-394 532.75,-394 532.75,-413.25"/>
<text text-anchor="middle" x="475.25" y="-399.75" font-family="Helvetica,sans-Serif" font-size="10.00">v8::Local&lt; v8::Object &gt;</text>
</a>
</g>
</g>
<!-- Node2&#45;&gt;Node1 -->
<g id="edge1" class="edge">
<title>Node2&#45;&gt;Node1</title>
<path fill="none" stroke="#9a32cd" stroke-dasharray="5,2" d="M536.91,-390.66C568.48,-381.57 606.18,-366.79 634,-343.62 660.97,-321.17 678.21,-281.77 685.15,-263.48"/>
<polygon fill="#9a32cd" stroke="#9a32cd" points="536.17,-387.51 527.46,-393.53 538.03,-394.26 536.17,-387.51"/>
<text text-anchor="middle" x="597.62" y="-383.38" font-family="Helvetica,sans-Serif" font-size="10.00"> object_value</text>
</g>
<!-- Node3 -->
<g id="node3" class="node">
<title>Node3</title>
<g id="a_node3"><a xlink:href="classv8_1_1Local.html" target="_top" xlink:title=" ">
<polygon fill="white" stroke="#666666" points="279.75,-444.25 202.25,-444.25 202.25,-425 279.75,-425 279.75,-444.25"/>
<text text-anchor="middle" x="241" y="-430.75" font-family="Helvetica,sans-Serif" font-size="10.00">v8::Local&lt; T &gt;</text>
</a>
</g>
</g>
<!-- Node3&#45;&gt;Node2 -->
<g id="edge2" class="edge">
<title>Node3&#45;&gt;Node2</title>
<path fill="none" stroke="orange" stroke-dasharray="5,2" d="M290.69,-427.47C302.57,-425.76 315.24,-423.97 327,-422.38 356.88,-418.32 390.2,-414.06 417.58,-410.62"/>
<polygon fill="orange" stroke="orange" points="290.46,-424.11 281.06,-429 291.46,-431.04 290.46,-424.11"/>
<text text-anchor="middle" x="358.12" y="-423.38" font-family="Helvetica,sans-Serif" font-size="10.00"> &lt; v8::Object &gt;</text>
</g>
<!-- Node4 -->
<g id="node4" class="node">
<title>Node4</title>
<g id="a_node4"><a xlink:href="classv8_1_1Local.html" target="_top" xlink:title=" ">
<polygon fill="white" stroke="#666666" points="529.75,-454.25 420.75,-454.25 420.75,-435 529.75,-435 529.75,-454.25"/>
<text text-anchor="middle" x="475.25" y="-440.75" font-family="Helvetica,sans-Serif" font-size="10.00">v8::Local&lt; v8::Array &gt;</text>
</a>
</g>
</g>
<!-- Node3&#45;&gt;Node4 -->
<g id="edge4" class="edge">
<title>Node3&#45;&gt;Node4</title>
<path fill="none" stroke="orange" stroke-dasharray="5,2" d="M290.87,-436.73C328.82,-438.36 381.39,-440.63 420.51,-442.31"/>
<polygon fill="orange" stroke="orange" points="291.23,-433.2 281.09,-436.27 290.93,-440.19 291.23,-433.2"/>
<text text-anchor="middle" x="358.12" y="-442.38" font-family="Helvetica,sans-Serif" font-size="10.00"> &lt; v8::Array &gt;</text>
</g>
<!-- Node4&#45;&gt;Node1 -->
<g id="edge3" class="edge">
<title>Node4&#45;&gt;Node1</title>
<path fill="none" stroke="#9a32cd" stroke-dasharray="5,2" d="M540.58,-438.35C572.14,-432.24 608.7,-420.22 634,-396.62 674.03,-359.28 685.01,-289.44 687.77,-263.59"/>
<polygon fill="#9a32cd" stroke="#9a32cd" points="540.33,-435.01 531.1,-440.2 541.55,-441.91 540.33,-435.01"/>
<text text-anchor="middle" x="597.62" y="-434.38" font-family="Helvetica,sans-Serif" font-size="10.00"> sequence_value</text>
</g>
<!-- Node5 -->
<g id="node5" class="node">
<title>Node5</title>
<g id="a_node5"><a xlink:href="structv8_1_1FastApiTypedArray.html" target="_top" xlink:title=" ">
<polygon fill="white" stroke="#666666" points="532,-219.88 418.5,-219.88 418.5,-189.38 532,-189.38 532,-219.88"/>
<text text-anchor="start" x="426.5" y="-206.38" font-family="Helvetica,sans-Serif" font-size="10.00">v8::FastApiTypedArray</text>
<text text-anchor="middle" x="475.25" y="-195.12" font-family="Helvetica,sans-Serif" font-size="10.00">&lt; int32_t &gt;</text>
</a>
</g>
</g>
<!-- Node5&#45;&gt;Node1 -->
<g id="edge5" class="edge">
<title>Node5&#45;&gt;Node1</title>
<path fill="none" stroke="#9a32cd" stroke-dasharray="5,2" d="M542.84,-217.93C571.05,-223.8 604.22,-231.04 634,-238.38 640.41,-239.95 647.2,-241.75 653.74,-243.54"/>
<polygon fill="#9a32cd" stroke="#9a32cd" points="543.79,-214.34 533.29,-215.74 542.37,-221.2 543.79,-214.34"/>
<text text-anchor="middle" x="597.62" y="-239.38" font-family="Helvetica,sans-Serif" font-size="10.00"> int32_ta_value</text>
</g>
<!-- Node6 -->
<g id="node6" class="node">
<title>Node6</title>
<g id="a_node6"><a xlink:href="structv8_1_1FastApiTypedArrayBase.html" target="_top" xlink:title=" ">
<polygon fill="white" stroke="#666666" points="136,-231.25 0,-231.25 0,-212 136,-212 136,-231.25"/>
<text text-anchor="middle" x="68" y="-217.75" font-family="Helvetica,sans-Serif" font-size="10.00">v8::FastApiTypedArrayBase</text>
</a>
</g>
</g>
<!-- Node6&#45;&gt;Node5 -->
<g id="edge6" class="edge">
<title>Node6&#45;&gt;Node5</title>
<path fill="none" stroke="#63b8ff" d="M99.25,-206.99C156.89,-181.16 285.91,-133.21 389.25,-166.62 398.64,-169.66 398.55,-174.97 407.25,-179.62 413.6,-183.02 420.51,-186.16 427.4,-188.99"/>
<polygon fill="#63b8ff" stroke="#63b8ff" points="97.97,-204.19 90.34,-211.53 100.89,-210.55 97.97,-204.19"/>
</g>
<!-- Node7 -->
<g id="node7" class="node">
<title>Node7</title>
<g id="a_node7"><a xlink:href="structv8_1_1FastApiTypedArray.html" target="_top" xlink:title=" ">
<polygon fill="white" stroke="#666666" points="309,-231.25 173,-231.25 173,-212 309,-212 309,-231.25"/>
<text text-anchor="middle" x="241" y="-217.75" font-family="Helvetica,sans-Serif" font-size="10.00">v8::FastApiTypedArray&lt; T &gt;</text>
</a>
</g>
</g>
<!-- Node6&#45;&gt;Node7 -->
<g id="edge8" class="edge">
<title>Node6&#45;&gt;Node7</title>
<path fill="none" stroke="#63b8ff" d="M146.87,-221.62C155.44,-221.62 164.11,-221.62 172.54,-221.62"/>
<polygon fill="#63b8ff" stroke="#63b8ff" points="147.09,-218.13 137.09,-221.62 147.09,-225.13 147.09,-218.13"/>
</g>
<!-- Node8 -->
<g id="node8" class="node">
<title>Node8</title>
<g id="a_node8"><a xlink:href="structv8_1_1FastApiTypedArray.html" target="_top" xlink:title=" ">
<polygon fill="white" stroke="#666666" points="532,-121.88 418.5,-121.88 418.5,-91.38 532,-91.38 532,-121.88"/>
<text text-anchor="start" x="426.5" y="-108.38" font-family="Helvetica,sans-Serif" font-size="10.00">v8::FastApiTypedArray</text>
<text text-anchor="middle" x="475.25" y="-97.12" font-family="Helvetica,sans-Serif" font-size="10.00">&lt; uint32_t &gt;</text>
</a>
</g>
</g>
<!-- Node6&#45;&gt;Node8 -->
<g id="edge10" class="edge">
<title>Node6&#45;&gt;Node8</title>
<path fill="none" stroke="#63b8ff" d="M80.48,-202.8C97.2,-177.36 130.9,-133.08 173,-114.62 252.54,-79.76 355.6,-86.75 418.22,-95.97"/>
<polygon fill="#63b8ff" stroke="#63b8ff" points="77.15,-200.51 74.73,-210.82 83.05,-204.26 77.15,-200.51"/>
</g>
<!-- Node9 -->
<g id="node9" class="node">
<title>Node9</title>
<g id="a_node9"><a xlink:href="structv8_1_1FastApiTypedArray.html" target="_top" xlink:title=" ">
<polygon fill="white" stroke="#666666" points="532,-170.88 418.5,-170.88 418.5,-140.38 532,-140.38 532,-170.88"/>
<text text-anchor="start" x="426.5" y="-157.38" font-family="Helvetica,sans-Serif" font-size="10.00">v8::FastApiTypedArray</text>
<text text-anchor="middle" x="475.25" y="-146.12" font-family="Helvetica,sans-Serif" font-size="10.00">&lt; int64_t &gt;</text>
</a>
</g>
</g>
<!-- Node6&#45;&gt;Node9 -->
<g id="edge13" class="edge">
<title>Node6&#45;&gt;Node9</title>
<path fill="none" stroke="#63b8ff" d="M88.03,-204.72C107.81,-188.14 140.39,-163.53 173,-150.62 262.92,-115.04 293.85,-110.8 389.25,-126.62 397.94,-128.07 415.52,-133.89 432.45,-139.94"/>
<polygon fill="#63b8ff" stroke="#63b8ff" points="86.2,-202.54 80.88,-211.7 90.75,-207.85 86.2,-202.54"/>
</g>
<!-- Node10 -->
<g id="node10" class="node">
<title>Node10</title>
<g id="a_node10"><a xlink:href="structv8_1_1FastApiTypedArray.html" target="_top" xlink:title=" ">
<polygon fill="white" stroke="#666666" points="532,-317.88 418.5,-317.88 418.5,-287.38 532,-287.38 532,-317.88"/>
<text text-anchor="start" x="426.5" y="-304.38" font-family="Helvetica,sans-Serif" font-size="10.00">v8::FastApiTypedArray</text>
<text text-anchor="middle" x="475.25" y="-293.12" font-family="Helvetica,sans-Serif" font-size="10.00">&lt; uint64_t &gt;</text>
</a>
</g>
</g>
<!-- Node6&#45;&gt;Node10 -->
<g id="edge16" class="edge">
<title>Node6&#45;&gt;Node10</title>
<path fill="none" stroke="#63b8ff" d="M90.48,-238.16C110.79,-253.12 142.6,-274.85 173,-288.62 237.84,-318 256.5,-322.75 327,-332.62 354.4,-336.46 361.98,-337.3 389.25,-332.62 393.88,-331.83 412.84,-325.19 431.69,-318.36"/>
<polygon fill="#63b8ff" stroke="#63b8ff" points="92.85,-234.81 82.74,-231.62 88.65,-240.41 92.85,-234.81"/>
</g>
<!-- Node11 -->
<g id="node11" class="node">
<title>Node11</title>
<g id="a_node11"><a xlink:href="structv8_1_1FastApiTypedArray.html" target="_top" xlink:title=" ">
<polygon fill="white" stroke="#666666" points="532,-366.88 418.5,-366.88 418.5,-336.38 532,-336.38 532,-366.88"/>
<text text-anchor="start" x="426.5" y="-353.38" font-family="Helvetica,sans-Serif" font-size="10.00">v8::FastApiTypedArray</text>
<text text-anchor="middle" x="475.25" y="-342.12" font-family="Helvetica,sans-Serif" font-size="10.00">&lt; float &gt;</text>
</a>
</g>
</g>
<!-- Node6&#45;&gt;Node11 -->
<g id="edge19" class="edge">
<title>Node6&#45;&gt;Node11</title>
<path fill="none" stroke="#63b8ff" d="M82.4,-240.36C100.22,-263.75 134.07,-303.05 173,-322.62 251.16,-361.92 355.08,-362.37 418.19,-357.88"/>
<polygon fill="#63b8ff" stroke="#63b8ff" points="84.74,-238.64 75.97,-232.7 79.11,-242.81 84.74,-238.64"/>
</g>
<!-- Node12 -->
<g id="node12" class="node">
<title>Node12</title>
<g id="a_node12"><a xlink:href="structv8_1_1FastApiTypedArray.html" target="_top" xlink:title=" ">
<polygon fill="white" stroke="#666666" points="532,-268.88 418.5,-268.88 418.5,-238.38 532,-238.38 532,-268.88"/>
<text text-anchor="start" x="426.5" y="-255.38" font-family="Helvetica,sans-Serif" font-size="10.00">v8::FastApiTypedArray</text>
<text text-anchor="middle" x="475.25" y="-244.12" font-family="Helvetica,sans-Serif" font-size="10.00">&lt; double &gt;</text>
</a>
</g>
</g>
<!-- Node6&#45;&gt;Node12 -->
<g id="edge22" class="edge">
<title>Node6&#45;&gt;Node12</title>
<path fill="none" stroke="#63b8ff" d="M101.02,-235.88C158.58,-259.72 283.4,-303.32 389.25,-284.62 391.67,-284.2 411.99,-276.8 432.15,-269.33"/>
<polygon fill="#63b8ff" stroke="#63b8ff" points="102.65,-232.34 92.08,-231.68 99.92,-238.79 102.65,-232.34"/>
</g>
<!-- Node7&#45;&gt;Node5 -->
<g id="edge7" class="edge">
<title>Node7&#45;&gt;Node5</title>
<path fill="none" stroke="orange" stroke-dasharray="5,2" d="M296.95,-209.59C306.9,-207.85 317.23,-206.33 327,-205.38 357.02,-202.45 390.66,-202.07 418.19,-202.5"/>
<polygon fill="orange" stroke="orange" points="296.53,-206.3 287.33,-211.55 297.8,-213.18 296.53,-206.3"/>
<text text-anchor="middle" x="358.12" y="-206.38" font-family="Helvetica,sans-Serif" font-size="10.00"> &lt; int32_t &gt;</text>
</g>
<!-- Node7&#45;&gt;Node8 -->
<g id="edge11" class="edge">
<title>Node7&#45;&gt;Node8</title>
<path fill="none" stroke="orange" stroke-dasharray="5,2" d="M260.13,-204.47C276.51,-189.74 301.85,-168.82 327,-155.38 355.62,-140.08 389.92,-128.38 418.21,-120.28"/>
<polygon fill="orange" stroke="orange" points="258.43,-201.2 253.43,-210.53 263.16,-206.35 258.43,-201.2"/>
<text text-anchor="middle" x="358.12" y="-156.38" font-family="Helvetica,sans-Serif" font-size="10.00"> &lt; uint32_t &gt;</text>
</g>
<!-- Node7&#45;&gt;Node9 -->
<g id="edge14" class="edge">
<title>Node7&#45;&gt;Node9</title>
<path fill="none" stroke="orange" stroke-dasharray="5,2" d="M273.06,-207.1C288.94,-200.1 308.72,-192.02 327,-186.38 356.57,-177.24 390.32,-169.98 418.03,-164.81"/>
<polygon fill="orange" stroke="orange" points="271.94,-204.22 264.25,-211.5 274.81,-210.6 271.94,-204.22"/>
<text text-anchor="middle" x="358.12" y="-187.38" font-family="Helvetica,sans-Serif" font-size="10.00"> &lt; int64_t &gt;</text>
</g>
<!-- Node7&#45;&gt;Node10 -->
<g id="edge17" class="edge">
<title>Node7&#45;&gt;Node10</title>
<path fill="none" stroke="orange" stroke-dasharray="5,2" d="M281.09,-235.26C322.06,-249.55 386.35,-271.97 429.38,-286.97"/>
<polygon fill="orange" stroke="orange" points="282.54,-231.71 271.95,-231.72 280.23,-238.32 282.54,-231.71"/>
<text text-anchor="middle" x="358.12" y="-273.38" font-family="Helvetica,sans-Serif" font-size="10.00"> &lt; uint64_t &gt;</text>
</g>
<!-- Node7&#45;&gt;Node11 -->
<g id="edge20" class="edge">
<title>Node7&#45;&gt;Node11</title>
<path fill="none" stroke="orange" stroke-dasharray="5,2" d="M261.99,-238.66C278.74,-252.49 303.59,-272.03 327,-286.62 360.81,-307.71 370.7,-310.75 407.25,-326.62 414.65,-329.84 422.61,-333.03 430.38,-336.01"/>
<polygon fill="orange" stroke="orange" points="264.5,-235.36 254.59,-231.63 260.01,-240.73 264.5,-235.36"/>
<text text-anchor="middle" x="358.12" y="-319.38" font-family="Helvetica,sans-Serif" font-size="10.00"> &lt; float &gt;</text>
</g>
<!-- Node7&#45;&gt;Node12 -->
<g id="edge23" class="edge">
<title>Node7&#45;&gt;Node12</title>
<path fill="none" stroke="orange" stroke-dasharray="5,2" d="M319.97,-230.34C342.37,-233.03 366.8,-236.14 389.25,-239.38 398.58,-240.72 408.47,-242.26 418.07,-243.83"/>
<polygon fill="orange" stroke="orange" points="320.5,-226.76 310.16,-229.06 319.68,-233.71 320.5,-226.76"/>
<text text-anchor="middle" x="358.12" y="-240.38" font-family="Helvetica,sans-Serif" font-size="10.00"> &lt; double &gt;</text>
</g>
<!-- Node8&#45;&gt;Node1 -->
<g id="edge9" class="edge">
<title>Node8&#45;&gt;Node1</title>
<path fill="none" stroke="#9a32cd" stroke-dasharray="5,2" d="M542.95,-118.78C573.22,-126.9 608,-140.13 634,-161.38 661.82,-184.11 678.74,-225 685.38,-243.74"/>
<polygon fill="#9a32cd" stroke="#9a32cd" points="544,-115.18 533.44,-116.12 542.28,-121.97 544,-115.18"/>
<text text-anchor="middle" x="597.62" y="-162.38" font-family="Helvetica,sans-Serif" font-size="10.00"> uint32_ta_value</text>
</g>
<!-- Node9&#45;&gt;Node1 -->
<g id="edge12" class="edge">
<title>Node9&#45;&gt;Node1</title>
<path fill="none" stroke="#9a32cd" stroke-dasharray="5,2" d="M542.66,-170.6C571.81,-178.76 605.75,-190.49 634,-206.38 651.93,-216.45 669.3,-233.01 679.48,-243.61"/>
<polygon fill="#9a32cd" stroke="#9a32cd" points="543.73,-166.99 533.16,-167.75 541.9,-173.75 543.73,-166.99"/>
<text text-anchor="middle" x="597.62" y="-207.38" font-family="Helvetica,sans-Serif" font-size="10.00"> int64_ta_value</text>
</g>
<!-- Node10&#45;&gt;Node1 -->
<g id="edge15" class="edge">
<title>Node10&#45;&gt;Node1</title>
<path fill="none" stroke="#9a32cd" stroke-dasharray="5,2" d="M542.82,-289.14C571.03,-283.2 604.2,-275.92 634,-268.62 640.21,-267.1 646.79,-265.39 653.15,-263.68"/>
<polygon fill="#9a32cd" stroke="#9a32cd" points="542.35,-285.87 533.27,-291.34 543.78,-292.72 542.35,-285.87"/>
<text text-anchor="middle" x="597.62" y="-285.38" font-family="Helvetica,sans-Serif" font-size="10.00"> uint64_ta_value</text>
</g>
<!-- Node11&#45;&gt;Node1 -->
<g id="edge18" class="edge">
<title>Node11&#45;&gt;Node1</title>
<path fill="none" stroke="#9a32cd" stroke-dasharray="5,2" d="M542.81,-335.14C571.84,-326.48 605.65,-314.36 634,-298.62 651.4,-288.97 668.66,-273.51 678.98,-263.46"/>
<polygon fill="#9a32cd" stroke="#9a32cd" points="541.98,-332.02 533.35,-338.17 543.93,-338.75 541.98,-332.02"/>
<text text-anchor="middle" x="597.62" y="-330.38" font-family="Helvetica,sans-Serif" font-size="10.00"> float_ta_value</text>
</g>
<!-- Node12&#45;&gt;Node1 -->
<g id="edge21" class="edge">
<title>Node12&#45;&gt;Node1</title>
<path fill="none" stroke="#9a32cd" stroke-dasharray="5,2" d="M543.2,-253.62C579.04,-253.62 621.82,-253.62 651.66,-253.62"/>
<polygon fill="#9a32cd" stroke="#9a32cd" points="543.33,-250.13 533.33,-253.62 543.33,-257.13 543.33,-250.13"/>
<text text-anchor="middle" x="597.62" y="-255.38" font-family="Helvetica,sans-Serif" font-size="10.00"> double_ta_value</text>
</g>
<!-- Node13 -->
<g id="node13" class="node">
<title>Node13</title>
<g id="a_node13"><a xlink:href="structv8_1_1FastApiCallbackOptions.html" target="_top" xlink:title=" ">
<polygon fill="white" stroke="#666666" points="543.25,-55.25 407.25,-55.25 407.25,-36 543.25,-36 543.25,-55.25"/>
<text text-anchor="middle" x="475.25" y="-41.75" font-family="Helvetica,sans-Serif" font-size="10.00">v8::FastApiCallbackOptions</text>
</a>
</g>
</g>
<!-- Node13&#45;&gt;Node1 -->
<g id="edge24" class="edge">
<title>Node13&#45;&gt;Node1</title>
<path fill="none" stroke="#9a32cd" stroke-dasharray="5,2" d="M540.16,-58.62C571.95,-67.99 608.85,-83.67 634,-109.38 672.57,-148.81 684.44,-218.18 687.6,-243.78"/>
<polygon fill="#9a32cd" stroke="#9a32cd" points="541.17,-54.99 530.6,-55.68 539.29,-61.74 541.17,-54.99"/>
<text text-anchor="middle" x="597.62" y="-111.38" font-family="Helvetica,sans-Serif" font-size="10.00"> options_value</text>
</g>
<!-- Node14 -->
<g id="node14" class="node">
<title>Node14</title>
<g id="a_node14"><a xlink:href="classv8_1_1Value.html" target="_top" xlink:title=" ">
<polygon fill="white" stroke="#666666" points="268.88,-19.25 213.12,-19.25 213.12,0 268.88,0 268.88,-19.25"/>
<text text-anchor="middle" x="241" y="-5.75" font-family="Helvetica,sans-Serif" font-size="10.00">v8::Value</text>
</a>
</g>
</g>
<!-- Node14&#45;&gt;Node13 -->
<g id="edge25" class="edge">
<title>Node14&#45;&gt;Node13</title>
<path fill="none" stroke="#9a32cd" stroke-dasharray="5,2" d="M280.13,-11.04C310,-12.59 352.52,-15.82 389.25,-22.38 407.17,-25.57 426.8,-30.82 442.67,-35.53"/>
<polygon fill="#9a32cd" stroke="#9a32cd" points="280.49,-7.5 270.33,-10.52 280.15,-14.49 280.49,-7.5"/>
<text text-anchor="middle" x="358.12" y="-24.38" font-family="Helvetica,sans-Serif" font-size="10.00"> data</text>
</g>
<!-- Node15 -->
<g id="node15" class="node">
<title>Node15</title>
<g id="a_node15"><a xlink:href="classv8_1_1Data.html" target="_top" xlink:title=" ">
<polygon fill="white" stroke="#666666" points="93.62,-19.25 42.38,-19.25 42.38,0 93.62,0 93.62,-19.25"/>
<text text-anchor="middle" x="68" y="-5.75" font-family="Helvetica,sans-Serif" font-size="10.00">v8::Data</text>
</a>
</g>
</g>
<!-- Node15&#45;&gt;Node14 -->
<g id="edge26" class="edge">
<title>Node15&#45;&gt;Node14</title>
<path fill="none" stroke="#63b8ff" d="M104.6,-9.62C136.81,-9.62 183.56,-9.62 212.84,-9.62"/>
<polygon fill="#63b8ff" stroke="#63b8ff" points="104.86,-6.13 94.86,-9.62 104.86,-13.13 104.86,-6.13"/>
</g>
</g>
</svg>
