<?xml version="1.0" encoding="UTF-8" standalone="no"?>
<!DOCTYPE svg PUBLIC "-//W3C//DTD SVG 1.1//EN"
 "http://www.w3.org/Graphics/SVG/1.1/DTD/svg11.dtd">
<!-- Generated by graphviz version 8.0.5 (20230430.1635)
 -->
<!-- Title: include/v8&#45;function.h Pages: 1 -->
<svg width="1438pt" height="469pt"
 viewBox="0.00 0.00 1438.39 469.25" xmlns="http://www.w3.org/2000/svg" xmlns:xlink="http://www.w3.org/1999/xlink">
<g id="graph0" class="graph" transform="scale(1 1) rotate(0) translate(4 465.25)">
<title>include/v8&#45;function.h</title>
<!-- Node1 -->
<g id="node1" class="node">
<title>Node1</title>
<g id="a_node1"><a xlink:title=" ">
<polygon fill="#999999" stroke="#666666" points="469.02,-461.25 363.77,-461.25 363.77,-442 469.02,-442 469.02,-461.25"/>
<text text-anchor="middle" x="416.39" y="-447.75" font-family="Helvetica,sans-Serif" font-size="10.00">include/v8&#45;function.h</text>
</a>
</g>
</g>
<!-- Node2 -->
<g id="node2" class="node">
<title>Node2</title>
<g id="a_node2"><a xlink:title=" ">
<polygon fill="#e0e0e0" stroke="#999999" points="177.64,-19.25 127.14,-19.25 127.14,0 177.64,0 177.64,-19.25"/>
<text text-anchor="middle" x="152.39" y="-5.75" font-family="Helvetica,sans-Serif" font-size="10.00">stddef.h</text>
</a>
</g>
</g>
<!-- Node1&#45;&gt;Node2 -->
<g id="edge1" class="edge">
<title>Node1&#45;&gt;Node2</title>
<path fill="none" stroke="#63b8ff" d="M363.29,-447.9C251.14,-440.7 0.39,-416.3 0.39,-342.12 0.39,-342.12 0.39,-342.12 0.39,-119.12 0.39,-89.51 -1.18,-76.55 19.39,-55.25 44.75,-29 86,-18.19 115.84,-13.74"/>
<polygon fill="#63b8ff" stroke="#63b8ff" points="116.2,-17.09 125.66,-12.33 115.29,-10.15 116.2,-17.09"/>
</g>
<!-- Node3 -->
<g id="node3" class="node">
<title>Node3</title>
<g id="a_node3"><a xlink:title=" ">
<polygon fill="#e0e0e0" stroke="#999999" points="1278.14,-19.25 1230.64,-19.25 1230.64,0 1278.14,0 1278.14,-19.25"/>
<text text-anchor="middle" x="1254.39" y="-5.75" font-family="Helvetica,sans-Serif" font-size="10.00">stdint.h</text>
</a>
</g>
</g>
<!-- Node1&#45;&gt;Node3 -->
<g id="edge2" class="edge">
<title>Node1&#45;&gt;Node3</title>
<path fill="none" stroke="#63b8ff" d="M469.26,-450.58C633.92,-450.04 1135.92,-445.13 1293.39,-406 1358.59,-389.8 1430.39,-409.31 1430.39,-342.12 1430.39,-342.12 1430.39,-342.12 1430.39,-119.12 1430.39,-53.41 1340.39,-26.2 1289.11,-16.03"/>
<polygon fill="#63b8ff" stroke="#63b8ff" points="1289.97,-12.44 1279.5,-14.05 1288.69,-19.32 1289.97,-12.44"/>
</g>
<!-- Node4 -->
<g id="node4" class="node">
<title>Node4</title>
<g id="a_node4"><a xlink:href="v8-function-callback_8h.html" target="_top" xlink:title=" ">
<polygon fill="white" stroke="#666666" points="252.64,-350.75 142.14,-350.75 142.14,-331.5 252.64,-331.5 252.64,-350.75"/>
<text text-anchor="middle" x="197.39" y="-337.25" font-family="Helvetica,sans-Serif" font-size="10.00">v8&#45;function&#45;callback.h</text>
</a>
</g>
</g>
<!-- Node1&#45;&gt;Node4 -->
<g id="edge3" class="edge">
<title>Node1&#45;&gt;Node4</title>
<path fill="none" stroke="#63b8ff" d="M363.49,-448.57C324.42,-444.63 271.75,-434 234.39,-406 219.5,-394.84 209.6,-375.8 203.82,-361.4"/>
<polygon fill="#63b8ff" stroke="#63b8ff" points="206.77,-360.27 200.05,-352.09 200.2,-362.68 206.77,-360.27"/>
</g>
<!-- Node5 -->
<g id="node5" class="node">
<title>Node5</title>
<g id="a_node5"><a xlink:href="v8-local-handle_8h.html" target="_top" xlink:title=" ">
<polygon fill="white" stroke="#666666" points="370.77,-129.75 282.02,-129.75 282.02,-110.5 370.77,-110.5 370.77,-129.75"/>
<text text-anchor="middle" x="326.39" y="-116.25" font-family="Helvetica,sans-Serif" font-size="10.00">v8&#45;local&#45;handle.h</text>
</a>
</g>
</g>
<!-- Node1&#45;&gt;Node5 -->
<g id="edge30" class="edge">
<title>Node1&#45;&gt;Node5</title>
<path fill="none" stroke="#63b8ff" d="M363.49,-444.87C321.23,-438.92 261.21,-427.38 212.39,-406 173.15,-388.81 153.19,-388.75 133.39,-350.75 96.98,-280.85 10.5,-371.93 237.39,-165.75 252.47,-152.05 272.53,-141.5 289.79,-134.11"/>
<polygon fill="#63b8ff" stroke="#63b8ff" points="290.63,-137.14 298.57,-130.13 287.99,-130.66 290.63,-137.14"/>
</g>
<!-- Node10 -->
<g id="node10" class="node">
<title>Node10</title>
<g id="a_node10"><a xlink:href="v8config_8h.html" target="_top" xlink:title=" ">
<polygon fill="white" stroke="#666666" points="756.14,-19.25 696.64,-19.25 696.64,0 756.14,0 756.14,-19.25"/>
<text text-anchor="middle" x="726.39" y="-5.75" font-family="Helvetica,sans-Serif" font-size="10.00">v8config.h</text>
</a>
</g>
</g>
<!-- Node1&#45;&gt;Node10 -->
<g id="edge71" class="edge">
<title>Node1&#45;&gt;Node10</title>
<path fill="none" stroke="#63b8ff" d="M469.21,-450.35C672.41,-448.61 1392.39,-435.84 1392.39,-342.12 1392.39,-342.12 1392.39,-342.12 1392.39,-119.12 1392.39,-57.53 1328.59,-72.3 1269.39,-55.25 1175.13,-28.1 877.18,-15.65 767.47,-11.9"/>
<polygon fill="#63b8ff" stroke="#63b8ff" points="767.66,-8.37 757.54,-11.54 767.42,-15.37 767.66,-8.37"/>
</g>
<!-- Node15 -->
<g id="node15" class="node">
<title>Node15</title>
<g id="a_node15"><a xlink:href="v8-message_8h.html" target="_top" xlink:title=" ">
<polygon fill="white" stroke="#666666" points="838.77,-350.75 762.02,-350.75 762.02,-331.5 838.77,-331.5 838.77,-350.75"/>
<text text-anchor="middle" x="800.39" y="-337.25" font-family="Helvetica,sans-Serif" font-size="10.00">v8&#45;message.h</text>
</a>
</g>
</g>
<!-- Node1&#45;&gt;Node15 -->
<g id="edge31" class="edge">
<title>Node1&#45;&gt;Node15</title>
<path fill="none" stroke="#63b8ff" d="M448.47,-441.56C517.51,-422.05 680.18,-376.09 757.77,-354.17"/>
<polygon fill="#63b8ff" stroke="#63b8ff" points="758.47,-357.33 767.14,-351.24 756.56,-350.59 758.47,-357.33"/>
</g>
<!-- Node18 -->
<g id="node18" class="node">
<title>Node18</title>
<g id="a_node18"><a xlink:href="v8-object_8h.html" target="_top" xlink:title=" ">
<polygon fill="white" stroke="#666666" points="584.02,-350.75 520.77,-350.75 520.77,-331.5 584.02,-331.5 584.02,-350.75"/>
<text text-anchor="middle" x="552.39" y="-337.25" font-family="Helvetica,sans-Serif" font-size="10.00">v8&#45;object.h</text>
</a>
</g>
</g>
<!-- Node1&#45;&gt;Node18 -->
<g id="edge38" class="edge">
<title>Node1&#45;&gt;Node18</title>
<path fill="none" stroke="#63b8ff" d="M427.52,-441.75C450.54,-423.39 503.62,-381.04 532.61,-357.91"/>
<polygon fill="#63b8ff" stroke="#63b8ff" points="534.48,-360.1 540.11,-351.13 530.11,-354.63 534.48,-360.1"/>
</g>
<!-- Node25 -->
<g id="node25" class="node">
<title>Node25</title>
<g id="a_node25"><a xlink:href="v8-template_8h.html" target="_top" xlink:title=" ">
<polygon fill="white" stroke="#666666" points="317.64,-406 243.14,-406 243.14,-386.75 317.64,-386.75 317.64,-406"/>
<text text-anchor="middle" x="280.39" y="-392.5" font-family="Helvetica,sans-Serif" font-size="10.00">v8&#45;template.h</text>
</a>
</g>
</g>
<!-- Node1&#45;&gt;Node25 -->
<g id="edge62" class="edge">
<title>Node1&#45;&gt;Node25</title>
<path fill="none" stroke="#63b8ff" d="M393.32,-441.59C371.44,-433.02 338.32,-420.06 313.6,-410.38"/>
<polygon fill="#63b8ff" stroke="#63b8ff" points="315.17,-406.84 304.58,-406.45 312.61,-413.36 315.17,-406.84"/>
</g>
<!-- Node4&#45;&gt;Node5 -->
<g id="edge4" class="edge">
<title>Node4&#45;&gt;Node5</title>
<path fill="none" stroke="#63b8ff" d="M199.35,-331.1C206.39,-299.29 231.09,-192.81 252.39,-165.75 262.95,-152.34 278.73,-142.04 293.02,-134.73"/>
<polygon fill="#63b8ff" stroke="#63b8ff" points="294.08,-137.62 301.58,-130.14 291.05,-131.31 294.08,-137.62"/>
</g>
<!-- Node4&#45;&gt;Node10 -->
<g id="edge29" class="edge">
<title>Node4&#45;&gt;Node10</title>
<path fill="none" stroke="#63b8ff" d="M197.28,-331.29C197.33,-296.75 202.51,-169.75 273.39,-110.5 413.3,6.44 493.02,-45.99 673.39,-19.25 677.31,-18.67 681.39,-18.04 685.47,-17.4"/>
<polygon fill="#63b8ff" stroke="#63b8ff" points="685.82,-20.73 695.15,-15.7 684.72,-13.82 685.82,-20.73"/>
</g>
<!-- Node11 -->
<g id="node11" class="node">
<title>Node11</title>
<g id="a_node11"><a xlink:href="v8-primitive_8h.html" target="_top" xlink:title=" ">
<polygon fill="white" stroke="#666666" points="509.27,-295.5 435.52,-295.5 435.52,-276.25 509.27,-276.25 509.27,-295.5"/>
<text text-anchor="middle" x="472.39" y="-282" font-family="Helvetica,sans-Serif" font-size="10.00">v8&#45;primitive.h</text>
</a>
</g>
</g>
<!-- Node4&#45;&gt;Node11 -->
<g id="edge14" class="edge">
<title>Node4&#45;&gt;Node11</title>
<path fill="none" stroke="#63b8ff" d="M244.36,-331.03C294.66,-321.29 374.08,-305.91 424.68,-296.12"/>
<polygon fill="#63b8ff" stroke="#63b8ff" points="425.17,-299.39 434.32,-294.05 423.84,-292.52 425.17,-299.39"/>
</g>
<!-- Node5&#45;&gt;Node2 -->
<g id="edge5" class="edge">
<title>Node5&#45;&gt;Node2</title>
<path fill="none" stroke="#63b8ff" d="M311.86,-110.06C281.72,-91.27 212.19,-47.91 175.7,-25.16"/>
<polygon fill="#63b8ff" stroke="#63b8ff" points="178.1,-21.91 167.77,-19.59 174.4,-27.85 178.1,-21.91"/>
</g>
<!-- Node6 -->
<g id="node6" class="node">
<title>Node6</title>
<g id="a_node6"><a xlink:title=" ">
<polygon fill="#e0e0e0" stroke="#999999" points="511.89,-19.25 450.89,-19.25 450.89,0 511.89,0 511.89,-19.25"/>
<text text-anchor="middle" x="481.39" y="-5.75" font-family="Helvetica,sans-Serif" font-size="10.00">type_traits</text>
</a>
</g>
</g>
<!-- Node5&#45;&gt;Node6 -->
<g id="edge6" class="edge">
<title>Node5&#45;&gt;Node6</title>
<path fill="none" stroke="#63b8ff" d="M332.62,-110.24C342.37,-96.85 362.4,-71.36 384.39,-55.25 402.56,-41.94 425.33,-31.21 444.25,-23.61"/>
<polygon fill="#63b8ff" stroke="#63b8ff" points="445.24,-26.59 453.3,-19.72 442.72,-20.06 445.24,-26.59"/>
</g>
<!-- Node7 -->
<g id="node7" class="node">
<title>Node7</title>
<g id="a_node7"><a xlink:href="v8-internal_8h.html" target="_top" xlink:title=" ">
<polygon fill="white" stroke="#666666" points="598.64,-74.5 530.14,-74.5 530.14,-55.25 598.64,-55.25 598.64,-74.5"/>
<text text-anchor="middle" x="564.39" y="-61" font-family="Helvetica,sans-Serif" font-size="10.00">v8&#45;internal.h</text>
</a>
</g>
</g>
<!-- Node5&#45;&gt;Node7 -->
<g id="edge7" class="edge">
<title>Node5&#45;&gt;Node7</title>
<path fill="none" stroke="#63b8ff" d="M367.04,-110.03C409.26,-100.58 475.18,-85.84 519.07,-76.02"/>
<polygon fill="#63b8ff" stroke="#63b8ff" points="519.73,-79.23 528.72,-73.63 518.2,-72.4 519.73,-79.23"/>
</g>
<!-- Node7&#45;&gt;Node2 -->
<g id="edge8" class="edge">
<title>Node7&#45;&gt;Node2</title>
<path fill="none" stroke="#63b8ff" d="M529.98,-59.43C453.02,-49.48 267.61,-25.52 188.81,-15.33"/>
<polygon fill="#63b8ff" stroke="#63b8ff" points="189.35,-11.74 178.98,-13.93 188.45,-18.69 189.35,-11.74"/>
</g>
<!-- Node7&#45;&gt;Node3 -->
<g id="edge9" class="edge">
<title>Node7&#45;&gt;Node3</title>
<path fill="none" stroke="#63b8ff" d="M599.08,-61.2C716.91,-52.1 1100.97,-22.47 1219.34,-13.33"/>
<polygon fill="#63b8ff" stroke="#63b8ff" points="1219.56,-16.75 1229.26,-12.49 1219.02,-9.77 1219.56,-16.75"/>
</g>
<!-- Node7&#45;&gt;Node6 -->
<g id="edge11" class="edge">
<title>Node7&#45;&gt;Node6</title>
<path fill="none" stroke="#63b8ff" d="M550.31,-54.84C537.79,-46.81 519.25,-34.91 504.55,-25.48"/>
<polygon fill="#63b8ff" stroke="#63b8ff" points="506.85,-22.16 496.54,-19.7 503.07,-28.05 506.85,-22.16"/>
</g>
<!-- Node8 -->
<g id="node8" class="node">
<title>Node8</title>
<g id="a_node8"><a xlink:title=" ">
<polygon fill="#e0e0e0" stroke="#999999" points="664.14,-19.25 616.64,-19.25 616.64,0 664.14,0 664.14,-19.25"/>
<text text-anchor="middle" x="640.39" y="-5.75" font-family="Helvetica,sans-Serif" font-size="10.00">string.h</text>
</a>
</g>
</g>
<!-- Node7&#45;&gt;Node8 -->
<g id="edge10" class="edge">
<title>Node7&#45;&gt;Node8</title>
<path fill="none" stroke="#63b8ff" d="M577.29,-54.84C588.64,-46.89 605.41,-35.14 618.81,-25.75"/>
<polygon fill="#63b8ff" stroke="#63b8ff" points="620.26,-28.31 626.44,-19.7 616.24,-22.57 620.26,-28.31"/>
</g>
<!-- Node9 -->
<g id="node9" class="node">
<title>Node9</title>
<g id="a_node9"><a xlink:href="v8-version_8h.html" target="_top" xlink:title=" ">
<polygon fill="white" stroke="#666666" points="598.64,-19.25 530.14,-19.25 530.14,0 598.64,0 598.64,-19.25"/>
<text text-anchor="middle" x="564.39" y="-5.75" font-family="Helvetica,sans-Serif" font-size="10.00">v8&#45;version.h</text>
</a>
</g>
</g>
<!-- Node7&#45;&gt;Node9 -->
<g id="edge12" class="edge">
<title>Node7&#45;&gt;Node9</title>
<path fill="none" stroke="#63b8ff" d="M564.39,-55.08C564.39,-48.42 564.39,-38.99 564.39,-30.53"/>
<polygon fill="#63b8ff" stroke="#63b8ff" points="567.89,-30.61 564.39,-20.61 560.89,-30.61 567.89,-30.61"/>
</g>
<!-- Node7&#45;&gt;Node10 -->
<g id="edge13" class="edge">
<title>Node7&#45;&gt;Node10</title>
<path fill="none" stroke="#63b8ff" d="M591.88,-54.84C618.41,-46.12 658.8,-32.84 688.41,-23.11"/>
<polygon fill="#63b8ff" stroke="#63b8ff" points="689.37,-26.15 697.78,-19.7 687.19,-19.5 689.37,-26.15"/>
</g>
<!-- Node11&#45;&gt;Node5 -->
<g id="edge19" class="edge">
<title>Node11&#45;&gt;Node5</title>
<path fill="none" stroke="#63b8ff" d="M459.81,-275.83C437.82,-259.54 391.81,-223.41 361.39,-185 350.36,-171.06 340.88,-153.16 334.59,-139.86"/>
<polygon fill="#63b8ff" stroke="#63b8ff" points="337.41,-138.61 330.08,-130.95 331.04,-141.5 337.41,-138.61"/>
</g>
<!-- Node11&#45;&gt;Node7 -->
<g id="edge18" class="edge">
<title>Node11&#45;&gt;Node7</title>
<path fill="none" stroke="#63b8ff" d="M474.02,-276.08C479.15,-249.72 496.54,-169.54 528.39,-110.5 533.75,-100.57 541.42,-90.69 548.31,-82.75"/>
<polygon fill="#63b8ff" stroke="#63b8ff" points="550.46,-85.49 554.58,-75.73 545.27,-80.79 550.46,-85.49"/>
</g>
<!-- Node11&#45;&gt;Node10 -->
<g id="edge28" class="edge">
<title>Node11&#45;&gt;Node10</title>
<path fill="none" stroke="#63b8ff" d="M471.18,-276.21C466.97,-242.26 456.57,-117.22 521.39,-55.25 527.36,-49.55 627.71,-29.54 685.75,-18.35"/>
<polygon fill="#63b8ff" stroke="#63b8ff" points="686.25,-21.62 695.41,-16.3 684.93,-14.75 686.25,-21.62"/>
</g>
<!-- Node12 -->
<g id="node12" class="node">
<title>Node12</title>
<g id="a_node12"><a xlink:href="v8-data_8h.html" target="_top" xlink:title=" ">
<polygon fill="white" stroke="#666666" points="426.27,-185 370.52,-185 370.52,-165.75 426.27,-165.75 426.27,-185"/>
<text text-anchor="middle" x="398.39" y="-171.5" font-family="Helvetica,sans-Serif" font-size="10.00">v8&#45;data.h</text>
</a>
</g>
</g>
<!-- Node11&#45;&gt;Node12 -->
<g id="edge15" class="edge">
<title>Node11&#45;&gt;Node12</title>
<path fill="none" stroke="#63b8ff" d="M466.34,-276C454.2,-258.19 426.67,-217.83 410.63,-194.31"/>
<polygon fill="#63b8ff" stroke="#63b8ff" points="413.06,-192.67 404.53,-186.38 407.28,-196.61 413.06,-192.67"/>
</g>
<!-- Node13 -->
<g id="node13" class="node">
<title>Node13</title>
<g id="a_node13"><a xlink:href="v8-value_8h.html" target="_top" xlink:title=" ">
<polygon fill="white" stroke="#666666" points="582.52,-240.25 522.27,-240.25 522.27,-221 582.52,-221 582.52,-240.25"/>
<text text-anchor="middle" x="552.39" y="-226.75" font-family="Helvetica,sans-Serif" font-size="10.00">v8&#45;value.h</text>
</a>
</g>
</g>
<!-- Node11&#45;&gt;Node13 -->
<g id="edge20" class="edge">
<title>Node11&#45;&gt;Node13</title>
<path fill="none" stroke="#63b8ff" d="M485.97,-275.84C497.92,-267.89 515.57,-256.14 529.67,-246.75"/>
<polygon fill="#63b8ff" stroke="#63b8ff" points="531.37,-249.16 537.76,-240.7 527.49,-243.33 531.37,-249.16"/>
</g>
<!-- Node12&#45;&gt;Node5 -->
<g id="edge16" class="edge">
<title>Node12&#45;&gt;Node5</title>
<path fill="none" stroke="#63b8ff" d="M386.18,-165.34C375.46,-157.41 359.65,-145.72 346.98,-136.35"/>
<polygon fill="#63b8ff" stroke="#63b8ff" points="349.55,-133.16 339.43,-130.02 345.39,-138.79 349.55,-133.16"/>
</g>
<!-- Node12&#45;&gt;Node10 -->
<g id="edge17" class="edge">
<title>Node12&#45;&gt;Node10</title>
<path fill="none" stroke="#63b8ff" d="M397.09,-165.29C394.45,-142.91 391.12,-84.81 422.39,-55.25 463.35,-16.54 617.69,-27.78 673.39,-19.25 677.36,-18.64 681.49,-18 685.62,-17.34"/>
<polygon fill="#63b8ff" stroke="#63b8ff" points="686.1,-20.65 695.42,-15.6 684.99,-13.74 686.1,-20.65"/>
</g>
<!-- Node13&#45;&gt;Node5 -->
<g id="edge23" class="edge">
<title>Node13&#45;&gt;Node5</title>
<path fill="none" stroke="#63b8ff" d="M537.16,-220.6C515.1,-207.69 472.8,-183.55 435.39,-165.75 410.8,-154.05 382.29,-142.44 360.6,-134"/>
<polygon fill="#63b8ff" stroke="#63b8ff" points="362.13,-130.45 351.54,-130.12 359.61,-136.99 362.13,-130.45"/>
</g>
<!-- Node13&#45;&gt;Node7 -->
<g id="edge22" class="edge">
<title>Node13&#45;&gt;Node7</title>
<path fill="none" stroke="#63b8ff" d="M548.78,-220.78C541.11,-200.75 524.85,-150.61 536.39,-110.5 539.17,-100.86 544.71,-91.29 550.13,-83.5"/>
<polygon fill="#63b8ff" stroke="#63b8ff" points="553.52,-85.81 556.72,-75.71 547.92,-81.61 553.52,-85.81"/>
</g>
<!-- Node13&#45;&gt;Node10 -->
<g id="edge27" class="edge">
<title>Node13&#45;&gt;Node10</title>
<path fill="none" stroke="#63b8ff" d="M559.43,-220.77C585.61,-187.82 677.68,-71.94 712.72,-27.84"/>
<polygon fill="#63b8ff" stroke="#63b8ff" points="715.98,-30.36 719.46,-20.35 710.5,-26 715.98,-30.36"/>
</g>
<!-- Node13&#45;&gt;Node12 -->
<g id="edge21" class="edge">
<title>Node13&#45;&gt;Node12</title>
<path fill="none" stroke="#63b8ff" d="M526.27,-220.59C501.16,-211.91 462.98,-198.71 434.88,-188.99"/>
<polygon fill="#63b8ff" stroke="#63b8ff" points="436.24,-185.41 425.65,-185.45 433.95,-192.03 436.24,-185.41"/>
</g>
<!-- Node14 -->
<g id="node14" class="node">
<title>Node14</title>
<g id="a_node14"><a xlink:href="v8-maybe_8h.html" target="_top" xlink:title=" ">
<polygon fill="white" stroke="#666666" points="738.14,-185 672.64,-185 672.64,-165.75 738.14,-165.75 738.14,-185"/>
<text text-anchor="middle" x="705.39" y="-171.5" font-family="Helvetica,sans-Serif" font-size="10.00">v8&#45;maybe.h</text>
</a>
</g>
</g>
<!-- Node13&#45;&gt;Node14 -->
<g id="edge24" class="edge">
<title>Node13&#45;&gt;Node14</title>
<path fill="none" stroke="#63b8ff" d="M578.35,-220.59C603.3,-211.91 641.23,-198.71 669.15,-188.99"/>
<polygon fill="#63b8ff" stroke="#63b8ff" points="670.02,-192.05 678.31,-185.45 667.72,-185.43 670.02,-192.05"/>
</g>
<!-- Node14&#45;&gt;Node7 -->
<g id="edge25" class="edge">
<title>Node14&#45;&gt;Node7</title>
<path fill="none" stroke="#63b8ff" d="M678.19,-165.3C658.52,-157.84 632.06,-145.88 612.39,-129.75 596.69,-116.87 583.24,-97.82 574.61,-83.88"/>
<polygon fill="#63b8ff" stroke="#63b8ff" points="577.33,-82.6 569.21,-75.79 571.31,-86.17 577.33,-82.6"/>
</g>
<!-- Node14&#45;&gt;Node10 -->
<g id="edge26" class="edge">
<title>Node14&#45;&gt;Node10</title>
<path fill="none" stroke="#63b8ff" d="M720.52,-165.57C732.21,-157.81 747.51,-145.33 754.39,-129.75 767.78,-99.46 763.55,-87.07 754.39,-55.25 751.62,-45.61 746.08,-36.04 740.66,-28.25"/>
<polygon fill="#63b8ff" stroke="#63b8ff" points="742.87,-26.36 734.07,-20.46 737.27,-30.56 742.87,-26.36"/>
</g>
<!-- Node15&#45;&gt;Node5 -->
<g id="edge34" class="edge">
<title>Node15&#45;&gt;Node5</title>
<path fill="none" stroke="#63b8ff" d="M800.82,-331.04C801.64,-301.66 799.84,-208.58 747.39,-165.75 719.63,-143.08 489.78,-129.05 381.9,-123.65"/>
<polygon fill="#63b8ff" stroke="#63b8ff" points="382.39,-120.12 372.23,-123.13 382.05,-127.12 382.39,-120.12"/>
</g>
<!-- Node15&#45;&gt;Node10 -->
<g id="edge37" class="edge">
<title>Node15&#45;&gt;Node10</title>
<path fill="none" stroke="#63b8ff" d="M839.17,-338.1C982.99,-329.18 1470.75,-285.65 1335.39,-110.5 1265.83,-20.48 892.58,-11.08 767.37,-10.49"/>
<polygon fill="#63b8ff" stroke="#63b8ff" points="767.4,-6.99 757.39,-10.46 767.38,-13.99 767.4,-6.99"/>
</g>
<!-- Node15&#45;&gt;Node11 -->
<g id="edge36" class="edge">
<title>Node15&#45;&gt;Node11</title>
<path fill="none" stroke="#63b8ff" d="M761.8,-333.86C701.69,-324.1 585.83,-305.29 520.4,-294.67"/>
<polygon fill="#63b8ff" stroke="#63b8ff" points="521.01,-291.06 510.58,-292.91 519.89,-297.97 521.01,-291.06"/>
</g>
<!-- Node15&#45;&gt;Node14 -->
<g id="edge35" class="edge">
<title>Node15&#45;&gt;Node14</title>
<path fill="none" stroke="#63b8ff" d="M795.29,-331.32C780.34,-305.55 736.45,-229.9 716.05,-194.74"/>
<polygon fill="#63b8ff" stroke="#63b8ff" points="718.57,-193.12 710.53,-186.22 712.52,-196.63 718.57,-193.12"/>
</g>
<!-- Node16 -->
<g id="node16" class="node">
<title>Node16</title>
<g id="a_node16"><a xlink:title=" ">
<polygon fill="#e0e0e0" stroke="#999999" points="1326.64,-129.75 1282.14,-129.75 1282.14,-110.5 1326.64,-110.5 1326.64,-129.75"/>
<text text-anchor="middle" x="1304.39" y="-116.25" font-family="Helvetica,sans-Serif" font-size="10.00">stdio.h</text>
</a>
</g>
</g>
<!-- Node15&#45;&gt;Node16 -->
<g id="edge32" class="edge">
<title>Node15&#45;&gt;Node16</title>
<path fill="none" stroke="#63b8ff" d="M821.09,-331.13C899.66,-296.99 1179.74,-175.29 1273.53,-134.54"/>
<polygon fill="#63b8ff" stroke="#63b8ff" points="1274.75,-137.39 1282.52,-130.19 1271.96,-130.97 1274.75,-137.39"/>
</g>
<!-- Node17 -->
<g id="node17" class="node">
<title>Node17</title>
<g id="a_node17"><a xlink:title=" ">
<polygon fill="#e0e0e0" stroke="#999999" points="1364.64,-295.5 1320.14,-295.5 1320.14,-276.25 1364.64,-276.25 1364.64,-295.5"/>
<text text-anchor="middle" x="1342.39" y="-282" font-family="Helvetica,sans-Serif" font-size="10.00">iosfwd</text>
</a>
</g>
</g>
<!-- Node15&#45;&gt;Node17 -->
<g id="edge33" class="edge">
<title>Node15&#45;&gt;Node17</title>
<path fill="none" stroke="#63b8ff" d="M839.04,-338.66C924.03,-335.01 1133.4,-323.69 1306.39,-295.5 1307.37,-295.34 1308.35,-295.17 1309.34,-294.99"/>
<polygon fill="#63b8ff" stroke="#63b8ff" points="1309.95,-298.23 1319.03,-292.77 1308.53,-291.38 1309.95,-298.23"/>
</g>
<!-- Node18&#45;&gt;Node5 -->
<g id="edge39" class="edge">
<title>Node18&#45;&gt;Node5</title>
<path fill="none" stroke="#63b8ff" d="M520.42,-334.27C493.35,-328.11 454.58,-316.32 426.39,-295.5 377.21,-259.16 371.36,-239.89 344.39,-185 337.47,-170.91 332.82,-153.72 329.98,-140.72"/>
<polygon fill="#63b8ff" stroke="#63b8ff" points="333.26,-140.29 327.87,-131.17 326.4,-141.67 333.26,-140.29"/>
</g>
<!-- Node18&#45;&gt;Node10 -->
<g id="edge61" class="edge">
<title>Node18&#45;&gt;Node10</title>
<path fill="none" stroke="#63b8ff" d="M557.56,-331.05C576.66,-297.42 644.82,-176.56 696.39,-74.5 704,-59.45 712.1,-42.11 717.97,-29.3"/>
<polygon fill="#63b8ff" stroke="#63b8ff" points="721.52,-30.93 722.48,-20.38 715.15,-28.04 721.52,-30.93"/>
</g>
<!-- Node18&#45;&gt;Node11 -->
<g id="edge47" class="edge">
<title>Node18&#45;&gt;Node11</title>
<path fill="none" stroke="#63b8ff" d="M538.82,-331.09C526.87,-323.14 509.22,-311.39 495.12,-302"/>
<polygon fill="#63b8ff" stroke="#63b8ff" points="497.3,-298.58 487.03,-295.95 493.42,-304.41 497.3,-298.58"/>
</g>
<!-- Node18&#45;&gt;Node13 -->
<g id="edge60" class="edge">
<title>Node18&#45;&gt;Node13</title>
<path fill="none" stroke="#63b8ff" d="M552.39,-331.25C552.39,-313.92 552.39,-275.23 552.39,-251.49"/>
<polygon fill="#63b8ff" stroke="#63b8ff" points="555.89,-251.63 552.39,-241.63 548.89,-251.63 555.89,-251.63"/>
</g>
<!-- Node18&#45;&gt;Node14 -->
<g id="edge40" class="edge">
<title>Node18&#45;&gt;Node14</title>
<path fill="none" stroke="#63b8ff" d="M571.74,-331.14C587.23,-323.29 608.87,-310.75 624.39,-295.5 652.49,-267.89 650.01,-253.41 672.39,-221 678.61,-212 685.81,-202.2 691.89,-194.09"/>
<polygon fill="#63b8ff" stroke="#63b8ff" points="695.16,-196.57 698.39,-186.48 689.57,-192.35 695.16,-196.57"/>
</g>
<!-- Node19 -->
<g id="node19" class="node">
<title>Node19</title>
<g id="a_node19"><a xlink:href="v8-persistent-handle_8h.html" target="_top" xlink:title=" ">
<polygon fill="white" stroke="#666666" points="923.02,-185 811.77,-185 811.77,-165.75 923.02,-165.75 923.02,-185"/>
<text text-anchor="middle" x="867.39" y="-171.5" font-family="Helvetica,sans-Serif" font-size="10.00">v8&#45;persistent&#45;handle.h</text>
</a>
</g>
</g>
<!-- Node18&#45;&gt;Node19 -->
<g id="edge41" class="edge">
<title>Node18&#45;&gt;Node19</title>
<path fill="none" stroke="#63b8ff" d="M578.76,-331.04C598.56,-323.43 625.72,-311.29 646.39,-295.5 681.09,-269.01 673.62,-244.52 710.39,-221 737.5,-203.66 771.45,-192.93 800.84,-186.35"/>
<polygon fill="#63b8ff" stroke="#63b8ff" points="801.38,-189.6 810.44,-184.1 799.93,-182.75 801.38,-189.6"/>
</g>
<!-- Node21 -->
<g id="node21" class="node">
<title>Node21</title>
<g id="a_node21"><a xlink:href="v8-traced-handle_8h.html" target="_top" xlink:title=" ">
<polygon fill="white" stroke="#666666" points="1060.14,-185 964.64,-185 964.64,-165.75 1060.14,-165.75 1060.14,-185"/>
<text text-anchor="middle" x="1012.39" y="-171.5" font-family="Helvetica,sans-Serif" font-size="10.00">v8&#45;traced&#45;handle.h</text>
</a>
</g>
</g>
<!-- Node18&#45;&gt;Node21 -->
<g id="edge48" class="edge">
<title>Node18&#45;&gt;Node21</title>
<path fill="none" stroke="#63b8ff" d="M577.78,-331.09C654.97,-303.61 887.06,-220.99 976.61,-189.11"/>
<polygon fill="#63b8ff" stroke="#63b8ff" points="977.56,-192.14 985.8,-185.48 975.21,-185.54 977.56,-192.14"/>
</g>
<!-- Node19&#45;&gt;Node5 -->
<g id="edge43" class="edge">
<title>Node19&#45;&gt;Node5</title>
<path fill="none" stroke="#63b8ff" d="M811.63,-167.36C806.81,-166.8 802.02,-166.25 797.39,-165.75 647.44,-149.41 470.25,-133.55 382.06,-125.89"/>
<polygon fill="#63b8ff" stroke="#63b8ff" points="382.51,-122.33 372.25,-124.95 381.91,-129.3 382.51,-122.33"/>
</g>
<!-- Node19&#45;&gt;Node7 -->
<g id="edge42" class="edge">
<title>Node19&#45;&gt;Node7</title>
<path fill="none" stroke="#63b8ff" d="M811.35,-165.68C756.95,-156.74 678.61,-142.38 650.39,-129.75 624.04,-117.95 598.02,-96.97 581.62,-82.29"/>
<polygon fill="#63b8ff" stroke="#63b8ff" points="584.29,-80.07 574.56,-75.87 579.55,-85.22 584.29,-80.07"/>
</g>
<!-- Node19&#45;&gt;Node10 -->
<g id="edge46" class="edge">
<title>Node19&#45;&gt;Node10</title>
<path fill="none" stroke="#63b8ff" d="M860.61,-165.47C845.18,-145.33 806,-94.97 770.39,-55.25 761.79,-45.65 751.72,-35.38 743.39,-27.11"/>
<polygon fill="#63b8ff" stroke="#63b8ff" points="746.34,-25.12 736.76,-20.61 741.44,-30.11 746.34,-25.12"/>
</g>
<!-- Node20 -->
<g id="node20" class="node">
<title>Node20</title>
<g id="a_node20"><a xlink:href="v8-weak-callback-info_8h.html" target="_top" xlink:title=" ">
<polygon fill="white" stroke="#666666" points="1000.39,-129.75 882.39,-129.75 882.39,-110.5 1000.39,-110.5 1000.39,-129.75"/>
<text text-anchor="middle" x="941.39" y="-116.25" font-family="Helvetica,sans-Serif" font-size="10.00">v8&#45;weak&#45;callback&#45;info.h</text>
</a>
</g>
</g>
<!-- Node19&#45;&gt;Node20 -->
<g id="edge44" class="edge">
<title>Node19&#45;&gt;Node20</title>
<path fill="none" stroke="#63b8ff" d="M879.95,-165.34C890.96,-157.41 907.21,-145.72 920.24,-136.35"/>
<polygon fill="#63b8ff" stroke="#63b8ff" points="921.95,-138.71 928.03,-130.02 917.87,-133.02 921.95,-138.71"/>
</g>
<!-- Node20&#45;&gt;Node10 -->
<g id="edge45" class="edge">
<title>Node20&#45;&gt;Node10</title>
<path fill="none" stroke="#63b8ff" d="M926.97,-110.1C906.08,-97.19 865.99,-73.05 830.39,-55.25 807.2,-43.65 780.28,-32.15 759.64,-23.73"/>
<polygon fill="#63b8ff" stroke="#63b8ff" points="761.05,-20.12 750.47,-19.62 758.43,-26.61 761.05,-20.12"/>
</g>
<!-- Node21&#45;&gt;Node2 -->
<g id="edge49" class="edge">
<title>Node21&#45;&gt;Node2</title>
<path fill="none" stroke="#63b8ff" d="M984.06,-165.28C904.94,-140.01 682.58,-69.86 607.39,-55.25 453.49,-25.34 266.19,-15.02 188.67,-11.87"/>
<polygon fill="#63b8ff" stroke="#63b8ff" points="189.17,-8.34 179.04,-11.45 188.9,-15.34 189.17,-8.34"/>
</g>
<!-- Node21&#45;&gt;Node3 -->
<g id="edge50" class="edge">
<title>Node21&#45;&gt;Node3</title>
<path fill="none" stroke="#63b8ff" d="M1060.32,-170.67C1117.12,-165.27 1207.01,-153.21 1230.39,-129.75 1256.63,-103.44 1258.12,-56.95 1256.51,-30.5"/>
<polygon fill="#63b8ff" stroke="#63b8ff" points="1259.91,-30.27 1255.59,-20.6 1252.94,-30.86 1259.91,-30.27"/>
</g>
<!-- Node21&#45;&gt;Node5 -->
<g id="edge57" class="edge">
<title>Node21&#45;&gt;Node5</title>
<path fill="none" stroke="#63b8ff" d="M964.19,-168.91C953.72,-167.8 942.69,-166.68 932.39,-165.75 729.71,-147.37 488.35,-131.35 381.72,-124.57"/>
<polygon fill="#63b8ff" stroke="#63b8ff" points="382.11,-121.02 371.91,-123.88 381.67,-128.01 382.11,-121.02"/>
</g>
<!-- Node21&#45;&gt;Node6 -->
<g id="edge54" class="edge">
<title>Node21&#45;&gt;Node6</title>
<path fill="none" stroke="#63b8ff" d="M983.09,-165.34C893.53,-137.72 623.34,-54.4 521.14,-22.88"/>
<polygon fill="#63b8ff" stroke="#63b8ff" points="522.52,-19.34 511.94,-19.73 520.46,-26.03 522.52,-19.34"/>
</g>
<!-- Node21&#45;&gt;Node7 -->
<g id="edge56" class="edge">
<title>Node21&#45;&gt;Node7</title>
<path fill="none" stroke="#63b8ff" d="M964.35,-168.67C880.56,-158.58 714.14,-137.89 688.39,-129.75 678.3,-126.56 624.11,-97.91 590.8,-80.08"/>
<polygon fill="#63b8ff" stroke="#63b8ff" points="592.67,-76.58 582.2,-74.94 589.36,-82.75 592.67,-76.58"/>
</g>
<!-- Node21&#45;&gt;Node10 -->
<g id="edge59" class="edge">
<title>Node21&#45;&gt;Node10</title>
<path fill="none" stroke="#63b8ff" d="M1060.42,-173.46C1127.3,-170.46 1236.16,-158.35 1197.39,-110.5 1143.2,-43.61 871.26,-19.7 767.08,-12.91"/>
<polygon fill="#63b8ff" stroke="#63b8ff" points="767.58,-9.37 757.38,-12.24 767.14,-16.36 767.58,-9.37"/>
</g>
<!-- Node21&#45;&gt;Node16 -->
<g id="edge51" class="edge">
<title>Node21&#45;&gt;Node16</title>
<path fill="none" stroke="#63b8ff" d="M1060.22,-166.96C1111.77,-158.74 1196.16,-144.68 1268.39,-129.75 1269.36,-129.55 1270.34,-129.34 1271.32,-129.13"/>
<polygon fill="#63b8ff" stroke="#63b8ff" points="1271.99,-132.34 1280.97,-126.73 1270.45,-125.52 1271.99,-132.34"/>
</g>
<!-- Node21&#45;&gt;Node20 -->
<g id="edge58" class="edge">
<title>Node21&#45;&gt;Node20</title>
<path fill="none" stroke="#63b8ff" d="M1000.35,-165.34C989.88,-157.49 974.49,-145.95 962.06,-136.62"/>
<polygon fill="#63b8ff" stroke="#63b8ff" points="964.36,-133.22 954.26,-130.02 960.16,-138.82 964.36,-133.22"/>
</g>
<!-- Node22 -->
<g id="node22" class="node">
<title>Node22</title>
<g id="a_node22"><a xlink:title=" ">
<polygon fill="#e0e0e0" stroke="#999999" points="1120.02,-129.75 1074.77,-129.75 1074.77,-110.5 1120.02,-110.5 1120.02,-129.75"/>
<text text-anchor="middle" x="1097.39" y="-116.25" font-family="Helvetica,sans-Serif" font-size="10.00">atomic</text>
</a>
</g>
</g>
<!-- Node21&#45;&gt;Node22 -->
<g id="edge52" class="edge">
<title>Node21&#45;&gt;Node22</title>
<path fill="none" stroke="#63b8ff" d="M1026.81,-165.34C1039.64,-157.31 1058.63,-145.41 1073.68,-135.98"/>
<polygon fill="#63b8ff" stroke="#63b8ff" points="1075.29,-138.48 1081.9,-130.2 1071.57,-132.55 1075.29,-138.48"/>
</g>
<!-- Node23 -->
<g id="node23" class="node">
<title>Node23</title>
<g id="a_node23"><a xlink:title=" ">
<polygon fill="#e0e0e0" stroke="#999999" points="1188.64,-129.75 1138.14,-129.75 1138.14,-110.5 1188.64,-110.5 1188.64,-129.75"/>
<text text-anchor="middle" x="1163.39" y="-116.25" font-family="Helvetica,sans-Serif" font-size="10.00">memory</text>
</a>
</g>
</g>
<!-- Node21&#45;&gt;Node23 -->
<g id="edge53" class="edge">
<title>Node21&#45;&gt;Node23</title>
<path fill="none" stroke="#63b8ff" d="M1038.01,-165.34C1062.63,-156.66 1100.06,-143.46 1127.62,-133.74"/>
<polygon fill="#63b8ff" stroke="#63b8ff" points="1128.39,-136.83 1136.65,-130.2 1126.06,-130.23 1128.39,-136.83"/>
</g>
<!-- Node24 -->
<g id="node24" class="node">
<title>Node24</title>
<g id="a_node24"><a xlink:title=" ">
<polygon fill="#e0e0e0" stroke="#999999" points="1056.64,-129.75 1018.14,-129.75 1018.14,-110.5 1056.64,-110.5 1056.64,-129.75"/>
<text text-anchor="middle" x="1037.39" y="-116.25" font-family="Helvetica,sans-Serif" font-size="10.00">utility</text>
</a>
</g>
</g>
<!-- Node21&#45;&gt;Node24 -->
<g id="edge55" class="edge">
<title>Node21&#45;&gt;Node24</title>
<path fill="none" stroke="#63b8ff" d="M1016.52,-165.58C1019.8,-158.61 1024.49,-148.62 1028.59,-139.87"/>
<polygon fill="#63b8ff" stroke="#63b8ff" points="1032.09,-141.65 1033.18,-131.11 1025.76,-138.67 1032.09,-141.65"/>
</g>
<!-- Node25&#45;&gt;Node4 -->
<g id="edge64" class="edge">
<title>Node25&#45;&gt;Node4</title>
<path fill="none" stroke="#63b8ff" d="M266.31,-386.34C253.79,-378.31 235.25,-366.41 220.55,-356.98"/>
<polygon fill="#63b8ff" stroke="#63b8ff" points="222.85,-353.66 212.54,-351.2 219.07,-359.55 222.85,-353.66"/>
</g>
<!-- Node25&#45;&gt;Node5 -->
<g id="edge65" class="edge">
<title>Node25&#45;&gt;Node5</title>
<path fill="none" stroke="#63b8ff" d="M281.92,-386.25C288.45,-347.37 314,-195.01 323.13,-140.58"/>
<polygon fill="#63b8ff" stroke="#63b8ff" points="326.7,-141.45 324.9,-131.01 319.8,-140.29 326.7,-141.45"/>
</g>
<!-- Node25&#45;&gt;Node10 -->
<g id="edge70" class="edge">
<title>Node25&#45;&gt;Node10</title>
<path fill="none" stroke="#63b8ff" d="M242.77,-393.64C209.67,-390.11 162.36,-379.87 133.39,-350.75 112.51,-329.75 114.39,-316.49 114.39,-286.88 114.39,-286.88 114.39,-286.88 114.39,-229.62 114.39,-141.32 196.81,-154.46 273.39,-110.5 431.54,-19.73 493.02,-45.99 673.39,-19.25 677.31,-18.67 681.39,-18.04 685.47,-17.4"/>
<polygon fill="#63b8ff" stroke="#63b8ff" points="685.82,-20.73 695.15,-15.7 684.72,-13.82 685.82,-20.73"/>
</g>
<!-- Node25&#45;&gt;Node12 -->
<g id="edge63" class="edge">
<title>Node25&#45;&gt;Node12</title>
<path fill="none" stroke="#63b8ff" d="M285.17,-386.52C302.77,-353.84 364.31,-239.63 388.51,-194.71"/>
<polygon fill="#63b8ff" stroke="#63b8ff" points="392.03,-196.57 393.69,-186.1 385.87,-193.24 392.03,-196.57"/>
</g>
<!-- Node25&#45;&gt;Node18 -->
<g id="edge69" class="edge">
<title>Node25&#45;&gt;Node18</title>
<path fill="none" stroke="#63b8ff" d="M317.93,-388.03C368.13,-378.2 456.93,-360.82 509.65,-350.49"/>
<polygon fill="#63b8ff" stroke="#63b8ff" points="510.19,-353.76 519.33,-348.4 508.84,-346.89 510.19,-353.76"/>
</g>
<!-- Node26 -->
<g id="node26" class="node">
<title>Node26</title>
<g id="a_node26"><a xlink:href="v8-memory-span_8h.html" target="_top" xlink:title=" ">
<polygon fill="white" stroke="#666666" points="124.14,-74.5 28.64,-74.5 28.64,-55.25 124.14,-55.25 124.14,-74.5"/>
<text text-anchor="middle" x="76.39" y="-61" font-family="Helvetica,sans-Serif" font-size="10.00">v8&#45;memory&#45;span.h</text>
</a>
</g>
</g>
<!-- Node25&#45;&gt;Node26 -->
<g id="edge66" class="edge">
<title>Node25&#45;&gt;Node26</title>
<path fill="none" stroke="#63b8ff" d="M242.64,-395.83C202.62,-394.29 139.84,-385.85 100.39,-350.75 77.74,-330.59 76.39,-317.2 76.39,-286.88 76.39,-286.88 76.39,-286.88 76.39,-174.38 76.39,-143.37 76.39,-107.38 76.39,-85.63"/>
<polygon fill="#63b8ff" stroke="#63b8ff" points="79.89,-85.88 76.39,-75.88 72.89,-85.88 79.89,-85.88"/>
</g>
<!-- Node26&#45;&gt;Node2 -->
<g id="edge67" class="edge">
<title>Node26&#45;&gt;Node2</title>
<path fill="none" stroke="#63b8ff" d="M89.29,-54.84C100.64,-46.89 117.41,-35.14 130.81,-25.75"/>
<polygon fill="#63b8ff" stroke="#63b8ff" points="132.26,-28.31 138.44,-19.7 128.24,-22.57 132.26,-28.31"/>
</g>
<!-- Node26&#45;&gt;Node10 -->
<g id="edge68" class="edge">
<title>Node26&#45;&gt;Node10</title>
<path fill="none" stroke="#63b8ff" d="M124.45,-59.6C140.92,-58.17 159.46,-56.59 176.39,-55.25 397.17,-37.73 453.44,-45.06 673.39,-19.25 677.33,-18.79 681.42,-18.24 685.5,-17.65"/>
<polygon fill="#63b8ff" stroke="#63b8ff" points="685.83,-20.99 695.19,-16.02 684.78,-14.07 685.83,-20.99"/>
</g>
</g>
</svg>
