<?xml version="1.0" encoding="UTF-8" standalone="no"?>
<!DOCTYPE svg PUBLIC "-//W3C//DTD SVG 1.1//EN"
 "http://www.w3.org/Graphics/SVG/1.1/DTD/svg11.dtd">
<!-- Generated by graphviz version 8.0.5 (20230430.1635)
 -->
<!-- Title: include/cppgc/heap.h Pages: 1 -->
<svg width="398pt" height="138pt"
 viewBox="0.00 0.00 398.38 137.75" xmlns="http://www.w3.org/2000/svg" xmlns:xlink="http://www.w3.org/1999/xlink">
<g id="graph0" class="graph" transform="scale(1 1) rotate(0) translate(4 133.75)">
<title>include/cppgc/heap.h</title>
<!-- Node1 -->
<g id="node1" class="node">
<title>Node1</title>
<g id="a_node1"><a xlink:title=" ">
<polygon fill="#999999" stroke="#666666" points="229,-129.75 121.5,-129.75 121.5,-110.5 229,-110.5 229,-129.75"/>
<text text-anchor="middle" x="175.25" y="-116.25" font-family="Helvetica,sans-Serif" font-size="10.00">include/cppgc/heap.h</text>
</a>
</g>
</g>
<!-- Node2 -->
<g id="node2" class="node">
<title>Node2</title>
<g id="a_node2"><a xlink:title=" ">
<polygon fill="#e0e0e0" stroke="#999999" points="50.5,-74.5 0,-74.5 0,-55.25 50.5,-55.25 50.5,-74.5"/>
<text text-anchor="middle" x="25.25" y="-61" font-family="Helvetica,sans-Serif" font-size="10.00">memory</text>
</a>
</g>
</g>
<!-- Node1&#45;&gt;Node2 -->
<g id="edge1" class="edge">
<title>Node1&#45;&gt;Node2</title>
<path fill="none" stroke="#63b8ff" d="M149.8,-110.09C125.45,-101.45 88.49,-88.32 61.15,-78.62"/>
<polygon fill="#63b8ff" stroke="#63b8ff" points="62.42,-75 51.82,-74.95 60.07,-81.6 62.42,-75"/>
</g>
<!-- Node3 -->
<g id="node3" class="node">
<title>Node3</title>
<g id="a_node3"><a xlink:title=" ">
<polygon fill="#e0e0e0" stroke="#999999" points="111.75,-74.5 68.75,-74.5 68.75,-55.25 111.75,-55.25 111.75,-74.5"/>
<text text-anchor="middle" x="90.25" y="-61" font-family="Helvetica,sans-Serif" font-size="10.00">vector</text>
</a>
</g>
</g>
<!-- Node1&#45;&gt;Node3 -->
<g id="edge2" class="edge">
<title>Node1&#45;&gt;Node3</title>
<path fill="none" stroke="#63b8ff" d="M160.83,-110.09C148.01,-102.06 129.02,-90.16 113.96,-80.73"/>
<polygon fill="#63b8ff" stroke="#63b8ff" points="116.07,-77.3 105.74,-74.95 112.36,-83.23 116.07,-77.3"/>
</g>
<!-- Node4 -->
<g id="node4" class="node">
<title>Node4</title>
<g id="a_node4"><a xlink:href="common_8h.html" target="_top" xlink:title=" ">
<polygon fill="white" stroke="#666666" points="220.38,-74.5 130.12,-74.5 130.12,-55.25 220.38,-55.25 220.38,-74.5"/>
<text text-anchor="middle" x="175.25" y="-61" font-family="Helvetica,sans-Serif" font-size="10.00">cppgc/common.h</text>
</a>
</g>
</g>
<!-- Node1&#45;&gt;Node4 -->
<g id="edge3" class="edge">
<title>Node1&#45;&gt;Node4</title>
<path fill="none" stroke="#63b8ff" d="M175.25,-110.33C175.25,-103.67 175.25,-94.24 175.25,-85.78"/>
<polygon fill="#63b8ff" stroke="#63b8ff" points="178.75,-85.86 175.25,-75.86 171.75,-85.86 178.75,-85.86"/>
</g>
<!-- Node5 -->
<g id="node5" class="node">
<title>Node5</title>
<g id="a_node5"><a xlink:href="v8config_8h.html" target="_top" xlink:title=" ">
<polygon fill="white" stroke="#666666" points="242,-19.25 182.5,-19.25 182.5,0 242,0 242,-19.25"/>
<text text-anchor="middle" x="212.25" y="-5.75" font-family="Helvetica,sans-Serif" font-size="10.00">v8config.h</text>
</a>
</g>
</g>
<!-- Node1&#45;&gt;Node5 -->
<g id="edge7" class="edge">
<title>Node1&#45;&gt;Node5</title>
<path fill="none" stroke="#63b8ff" d="M192.93,-110.07C205.64,-102.48 221.79,-90.34 229.25,-74.5 236.12,-59.92 230.33,-42.11 223.71,-29"/>
<polygon fill="#63b8ff" stroke="#63b8ff" points="226.4,-27.65 218.45,-20.65 220.3,-31.09 226.4,-27.65"/>
</g>
<!-- Node6 -->
<g id="node6" class="node">
<title>Node6</title>
<g id="a_node6"><a xlink:href="custom-space_8h.html" target="_top" xlink:title=" ">
<polygon fill="white" stroke="#666666" points="390.38,-74.5 276.12,-74.5 276.12,-55.25 390.38,-55.25 390.38,-74.5"/>
<text text-anchor="middle" x="333.25" y="-61" font-family="Helvetica,sans-Serif" font-size="10.00">cppgc/custom&#45;space.h</text>
</a>
</g>
</g>
<!-- Node1&#45;&gt;Node6 -->
<g id="edge5" class="edge">
<title>Node1&#45;&gt;Node6</title>
<path fill="none" stroke="#63b8ff" d="M202.05,-110.09C227.93,-101.37 267.33,-88.09 296.2,-78.36"/>
<polygon fill="#63b8ff" stroke="#63b8ff" points="296.96,-81.46 305.32,-74.95 294.72,-74.83 296.96,-81.46"/>
</g>
<!-- Node4&#45;&gt;Node5 -->
<g id="edge4" class="edge">
<title>Node4&#45;&gt;Node5</title>
<path fill="none" stroke="#63b8ff" d="M181.36,-55.08C186.36,-47.88 193.61,-37.46 199.82,-28.51"/>
<polygon fill="#63b8ff" stroke="#63b8ff" points="203.18,-30.82 206.01,-20.61 197.43,-26.82 203.18,-30.82"/>
</g>
<!-- Node7 -->
<g id="node7" class="node">
<title>Node7</title>
<g id="a_node7"><a xlink:title=" ">
<polygon fill="#e0e0e0" stroke="#999999" points="358.5,-19.25 308,-19.25 308,0 358.5,0 358.5,-19.25"/>
<text text-anchor="middle" x="333.25" y="-5.75" font-family="Helvetica,sans-Serif" font-size="10.00">stddef.h</text>
</a>
</g>
</g>
<!-- Node6&#45;&gt;Node7 -->
<g id="edge6" class="edge">
<title>Node6&#45;&gt;Node7</title>
<path fill="none" stroke="#63b8ff" d="M333.25,-55.08C333.25,-48.42 333.25,-38.99 333.25,-30.53"/>
<polygon fill="#63b8ff" stroke="#63b8ff" points="336.75,-30.61 333.25,-20.61 329.75,-30.61 336.75,-30.61"/>
</g>
</g>
</svg>
