<?xml version="1.0" encoding="UTF-8" standalone="no"?>
<!DOCTYPE svg PUBLIC "-//W3C//DTD SVG 1.1//EN"
 "http://www.w3.org/Graphics/SVG/1.1/DTD/svg11.dtd">
<!-- Generated by graphviz version 8.0.5 (20230430.1635)
 -->
<!-- Title: include/v8&#45;inspector&#45;protocol.h Pages: 1 -->
<svg width="815pt" height="260pt"
 viewBox="0.00 0.00 815.25 259.50" xmlns="http://www.w3.org/2000/svg" xmlns:xlink="http://www.w3.org/1999/xlink">
<g id="graph0" class="graph" transform="scale(1 1) rotate(0) translate(4 255.5)">
<title>include/v8&#45;inspector&#45;protocol.h</title>
<!-- Node1 -->
<g id="node1" class="node">
<title>Node1</title>
<g id="a_node1"><a xlink:title=" ">
<polygon fill="#999999" stroke="#666666" points="288.25,-251.5 185.25,-251.5 185.25,-221 288.25,-221 288.25,-251.5"/>
<text text-anchor="start" x="193.25" y="-238" font-family="Helvetica,sans-Serif" font-size="10.00">include/v8&#45;inspector</text>
<text text-anchor="middle" x="236.75" y="-226.75" font-family="Helvetica,sans-Serif" font-size="10.00">&#45;protocol.h</text>
</a>
</g>
</g>
<!-- Node2 -->
<g id="node2" class="node">
<title>Node2</title>
<g id="a_node2"><a xlink:title=" ">
<polygon fill="#e0e0e0" stroke="#999999" points="107.5,-185 0,-185 0,-165.75 107.5,-165.75 107.5,-185"/>
<text text-anchor="middle" x="53.75" y="-171.5" font-family="Helvetica,sans-Serif" font-size="10.00">inspector/Debugger.h</text>
</a>
</g>
</g>
<!-- Node1&#45;&gt;Node2 -->
<g id="edge1" class="edge">
<title>Node1&#45;&gt;Node2</title>
<path fill="none" stroke="#63b8ff" d="M191.04,-220.55C160.59,-210.75 121.02,-198.02 92.18,-188.74"/>
<polygon fill="#63b8ff" stroke="#63b8ff" points="93.68,-185.22 83.08,-185.49 91.53,-191.89 93.68,-185.22"/>
</g>
<!-- Node3 -->
<g id="node3" class="node">
<title>Node3</title>
<g id="a_node3"><a xlink:title=" ">
<polygon fill="#e0e0e0" stroke="#999999" points="227.88,-185 125.62,-185 125.62,-165.75 227.88,-165.75 227.88,-185"/>
<text text-anchor="middle" x="176.75" y="-171.5" font-family="Helvetica,sans-Serif" font-size="10.00">inspector/Runtime.h</text>
</a>
</g>
</g>
<!-- Node1&#45;&gt;Node3 -->
<g id="edge2" class="edge">
<title>Node1&#45;&gt;Node3</title>
<path fill="none" stroke="#63b8ff" d="M221.92,-220.7C213.4,-212.34 202.66,-201.8 193.8,-193.1"/>
<polygon fill="#63b8ff" stroke="#63b8ff" points="196.59,-190.96 187,-186.45 191.69,-195.95 196.59,-190.96"/>
</g>
<!-- Node4 -->
<g id="node4" class="node">
<title>Node4</title>
<g id="a_node4"><a xlink:title=" ">
<polygon fill="#e0e0e0" stroke="#999999" points="347.88,-185 245.62,-185 245.62,-165.75 347.88,-165.75 347.88,-185"/>
<text text-anchor="middle" x="296.75" y="-171.5" font-family="Helvetica,sans-Serif" font-size="10.00">inspector/Schema.h</text>
</a>
</g>
</g>
<!-- Node1&#45;&gt;Node4 -->
<g id="edge3" class="edge">
<title>Node1&#45;&gt;Node4</title>
<path fill="none" stroke="#63b8ff" d="M251.58,-220.7C260.1,-212.34 270.84,-201.8 279.7,-193.1"/>
<polygon fill="#63b8ff" stroke="#63b8ff" points="281.81,-195.95 286.5,-186.45 276.91,-190.96 281.81,-195.95"/>
</g>
<!-- Node5 -->
<g id="node5" class="node">
<title>Node5</title>
<g id="a_node5"><a xlink:href="v8-inspector_8h.html" target="_top" xlink:title=" ">
<polygon fill="white" stroke="#666666" points="443.12,-185 366.38,-185 366.38,-165.75 443.12,-165.75 443.12,-185"/>
<text text-anchor="middle" x="404.75" y="-171.5" font-family="Helvetica,sans-Serif" font-size="10.00">v8&#45;inspector.h</text>
</a>
</g>
</g>
<!-- Node1&#45;&gt;Node5 -->
<g id="edge4" class="edge">
<title>Node1&#45;&gt;Node5</title>
<path fill="none" stroke="#63b8ff" d="M278.71,-220.55C306.39,-210.85 342.27,-198.27 368.66,-189.02"/>
<polygon fill="#63b8ff" stroke="#63b8ff" points="369.71,-192.01 377.99,-185.4 367.39,-185.41 369.71,-192.01"/>
</g>
<!-- Node6 -->
<g id="node6" class="node">
<title>Node6</title>
<g id="a_node6"><a xlink:title=" ">
<polygon fill="#e0e0e0" stroke="#999999" points="202.5,-19.25 155,-19.25 155,0 202.5,0 202.5,-19.25"/>
<text text-anchor="middle" x="178.75" y="-5.75" font-family="Helvetica,sans-Serif" font-size="10.00">stdint.h</text>
</a>
</g>
</g>
<!-- Node5&#45;&gt;Node6 -->
<g id="edge5" class="edge">
<title>Node5&#45;&gt;Node6</title>
<path fill="none" stroke="#63b8ff" d="M367.83,-165.26C288.6,-145.31 108.08,-97.75 91.75,-74.5 74.43,-49.84 113.21,-30.95 144.43,-20.32"/>
<polygon fill="#63b8ff" stroke="#63b8ff" points="145.19,-23.43 153.64,-17.03 143.05,-16.77 145.19,-23.43"/>
</g>
<!-- Node7 -->
<g id="node7" class="node">
<title>Node7</title>
<g id="a_node7"><a xlink:title=" ">
<polygon fill="#e0e0e0" stroke="#999999" points="484,-129.75 439.5,-129.75 439.5,-110.5 484,-110.5 484,-129.75"/>
<text text-anchor="middle" x="461.75" y="-116.25" font-family="Helvetica,sans-Serif" font-size="10.00">cctype</text>
</a>
</g>
</g>
<!-- Node5&#45;&gt;Node7 -->
<g id="edge6" class="edge">
<title>Node5&#45;&gt;Node7</title>
<path fill="none" stroke="#63b8ff" d="M414.42,-165.34C422.58,-157.72 434.46,-146.62 444.27,-137.45"/>
<polygon fill="#63b8ff" stroke="#63b8ff" points="446.31,-140.41 451.22,-131.02 441.53,-135.29 446.31,-140.41"/>
</g>
<!-- Node8 -->
<g id="node8" class="node">
<title>Node8</title>
<g id="a_node8"><a xlink:title=" ">
<polygon fill="#e0e0e0" stroke="#999999" points="151,-74.5 100.5,-74.5 100.5,-55.25 151,-55.25 151,-74.5"/>
<text text-anchor="middle" x="125.75" y="-61" font-family="Helvetica,sans-Serif" font-size="10.00">memory</text>
</a>
</g>
</g>
<!-- Node5&#45;&gt;Node8 -->
<g id="edge7" class="edge">
<title>Node5&#45;&gt;Node8</title>
<path fill="none" stroke="#63b8ff" d="M381.44,-165.31C332,-146.08 216.47,-101.15 159.18,-78.87"/>
<polygon fill="#63b8ff" stroke="#63b8ff" points="160.78,-75.35 150.19,-74.99 158.24,-81.88 160.78,-75.35"/>
</g>
<!-- Node9 -->
<g id="node9" class="node">
<title>Node9</title>
<g id="a_node9"><a xlink:title=" ">
<polygon fill="#e0e0e0" stroke="#999999" points="585.12,-129.75 502.38,-129.75 502.38,-110.5 585.12,-110.5 585.12,-129.75"/>
<text text-anchor="middle" x="543.75" y="-116.25" font-family="Helvetica,sans-Serif" font-size="10.00">unordered_map</text>
</a>
</g>
</g>
<!-- Node5&#45;&gt;Node9 -->
<g id="edge8" class="edge">
<title>Node5&#45;&gt;Node9</title>
<path fill="none" stroke="#63b8ff" d="M428.33,-165.34C450.69,-156.77 484.54,-143.81 509.81,-134.13"/>
<polygon fill="#63b8ff" stroke="#63b8ff" points="510.97,-137.05 519.05,-130.2 508.46,-130.51 510.97,-137.05"/>
</g>
<!-- Node10 -->
<g id="node10" class="node">
<title>Node10</title>
<g id="a_node10"><a xlink:href="v8_8h.html" target="_top" xlink:title=" ">
<polygon fill="white" stroke="#666666" points="421.75,-129.75 387.75,-129.75 387.75,-110.5 421.75,-110.5 421.75,-129.75"/>
<text text-anchor="middle" x="404.75" y="-116.25" font-family="Helvetica,sans-Serif" font-size="10.00">v8.h</text>
</a>
</g>
</g>
<!-- Node5&#45;&gt;Node10 -->
<g id="edge9" class="edge">
<title>Node5&#45;&gt;Node10</title>
<path fill="none" stroke="#63b8ff" d="M404.75,-165.58C404.75,-158.92 404.75,-149.49 404.75,-141.03"/>
<polygon fill="#63b8ff" stroke="#63b8ff" points="408.25,-141.11 404.75,-131.11 401.25,-141.11 408.25,-141.11"/>
</g>
<!-- Node10&#45;&gt;Node6 -->
<g id="edge11" class="edge">
<title>Node10&#45;&gt;Node6</title>
<path fill="none" stroke="#63b8ff" d="M387.32,-117.63C342.64,-113.45 225.53,-100.23 197.75,-74.5 185.55,-63.2 181.06,-44.45 179.47,-30.18"/>
<polygon fill="#63b8ff" stroke="#63b8ff" points="182.91,-30.23 178.71,-20.51 175.93,-30.73 182.91,-30.23"/>
</g>
<!-- Node10&#45;&gt;Node8 -->
<g id="edge13" class="edge">
<title>Node10&#45;&gt;Node8</title>
<path fill="none" stroke="#63b8ff" d="M387.54,-116.13C348.07,-109.22 248.02,-91.44 164.75,-74.5 163.8,-74.31 162.83,-74.11 161.86,-73.91"/>
<polygon fill="#63b8ff" stroke="#63b8ff" points="162.83,-70.32 152.32,-71.66 161.37,-77.17 162.83,-70.32"/>
</g>
<!-- Node11 -->
<g id="node11" class="node">
<title>Node11</title>
<g id="a_node11"><a xlink:title=" ">
<polygon fill="#e0e0e0" stroke="#999999" points="728,-19.25 677.5,-19.25 677.5,0 728,0 728,-19.25"/>
<text text-anchor="middle" x="702.75" y="-5.75" font-family="Helvetica,sans-Serif" font-size="10.00">stddef.h</text>
</a>
</g>
</g>
<!-- Node10&#45;&gt;Node11 -->
<g id="edge10" class="edge">
<title>Node10&#45;&gt;Node11</title>
<path fill="none" stroke="#63b8ff" d="M422.25,-112.85C425.07,-111.97 427.97,-111.15 430.75,-110.5 486.03,-97.51 640.74,-111.58 683.75,-74.5 696.35,-63.64 700.79,-44.84 702.26,-30.43"/>
<polygon fill="#63b8ff" stroke="#63b8ff" points="705.8,-30.84 702.91,-20.64 698.82,-30.41 705.8,-30.84"/>
</g>
<!-- Node12 -->
<g id="node12" class="node">
<title>Node12</title>
<g id="a_node12"><a xlink:title=" ">
<polygon fill="#e0e0e0" stroke="#999999" points="397,-74.5 352.5,-74.5 352.5,-55.25 397,-55.25 397,-74.5"/>
<text text-anchor="middle" x="374.75" y="-61" font-family="Helvetica,sans-Serif" font-size="10.00">stdio.h</text>
</a>
</g>
</g>
<!-- Node10&#45;&gt;Node12 -->
<g id="edge12" class="edge">
<title>Node10&#45;&gt;Node12</title>
<path fill="none" stroke="#63b8ff" d="M399.8,-110.33C395.82,-103.28 390.11,-93.15 385.15,-84.33"/>
<polygon fill="#63b8ff" stroke="#63b8ff" points="387.77,-82.85 379.81,-75.86 381.67,-86.29 387.77,-82.85"/>
</g>
<!-- Node13 -->
<g id="node13" class="node">
<title>Node13</title>
<g id="a_node13"><a xlink:title=" ">
<polygon fill="#e0e0e0" stroke="#999999" points="454.75,-74.5 414.75,-74.5 414.75,-55.25 454.75,-55.25 454.75,-74.5"/>
<text text-anchor="middle" x="434.75" y="-61" font-family="Helvetica,sans-Serif" font-size="10.00">string</text>
</a>
</g>
</g>
<!-- Node10&#45;&gt;Node13 -->
<g id="edge14" class="edge">
<title>Node10&#45;&gt;Node13</title>
<path fill="none" stroke="#63b8ff" d="M409.7,-110.33C413.68,-103.28 419.39,-93.15 424.35,-84.33"/>
<polygon fill="#63b8ff" stroke="#63b8ff" points="427.83,-86.29 429.69,-75.86 421.73,-82.85 427.83,-86.29"/>
</g>
<!-- Node14 -->
<g id="node14" class="node">
<title>Node14</title>
<g id="a_node14"><a xlink:title=" ">
<polygon fill="#e0e0e0" stroke="#999999" points="807.25,-19.25 746.25,-19.25 746.25,0 807.25,0 807.25,-19.25"/>
<text text-anchor="middle" x="776.75" y="-5.75" font-family="Helvetica,sans-Serif" font-size="10.00">type_traits</text>
</a>
</g>
</g>
<!-- Node10&#45;&gt;Node14 -->
<g id="edge15" class="edge">
<title>Node10&#45;&gt;Node14</title>
<path fill="none" stroke="#63b8ff" d="M422.24,-112.82C425.06,-111.95 427.97,-111.14 430.75,-110.5 550.03,-83.11 592.25,-124.96 703.75,-74.5 727.6,-63.7 749.41,-42.46 762.86,-27.44"/>
<polygon fill="#63b8ff" stroke="#63b8ff" points="765.88,-30.3 769.76,-20.44 760.58,-25.73 765.88,-30.3"/>
</g>
<!-- Node15 -->
<g id="node15" class="node">
<title>Node15</title>
<g id="a_node15"><a xlink:title=" ">
<polygon fill="#e0e0e0" stroke="#999999" points="511,-74.5 472.5,-74.5 472.5,-55.25 511,-55.25 511,-74.5"/>
<text text-anchor="middle" x="491.75" y="-61" font-family="Helvetica,sans-Serif" font-size="10.00">utility</text>
</a>
</g>
</g>
<!-- Node10&#45;&gt;Node15 -->
<g id="edge16" class="edge">
<title>Node10&#45;&gt;Node15</title>
<path fill="none" stroke="#63b8ff" d="M419.51,-110.09C432.76,-101.98 452.44,-89.93 467.92,-80.46"/>
<polygon fill="#63b8ff" stroke="#63b8ff" points="469.22,-83.16 475.92,-74.95 465.56,-77.19 469.22,-83.16"/>
</g>
<!-- Node16 -->
<g id="node16" class="node">
<title>Node16</title>
<g id="a_node16"><a xlink:title=" ">
<polygon fill="#e0e0e0" stroke="#999999" points="572.25,-74.5 529.25,-74.5 529.25,-55.25 572.25,-55.25 572.25,-74.5"/>
<text text-anchor="middle" x="550.75" y="-61" font-family="Helvetica,sans-Serif" font-size="10.00">vector</text>
</a>
</g>
</g>
<!-- Node10&#45;&gt;Node16 -->
<g id="edge17" class="edge">
<title>Node10&#45;&gt;Node16</title>
<path fill="none" stroke="#63b8ff" d="M422.07,-112.81C445.89,-104.12 489.17,-88.34 518.91,-77.49"/>
<polygon fill="#63b8ff" stroke="#63b8ff" points="519.99,-80.45 528.19,-73.74 517.6,-73.88 519.99,-80.45"/>
</g>
<!-- Node17 -->
<g id="node17" class="node">
<title>Node17</title>
<g id="a_node17"><a xlink:href="common_8h.html" target="_top" xlink:title=" ">
<polygon fill="white" stroke="#666666" points="296.88,-74.5 206.62,-74.5 206.62,-55.25 296.88,-55.25 296.88,-74.5"/>
<text text-anchor="middle" x="251.75" y="-61" font-family="Helvetica,sans-Serif" font-size="10.00">cppgc/common.h</text>
</a>
</g>
</g>
<!-- Node10&#45;&gt;Node17 -->
<g id="edge18" class="edge">
<title>Node10&#45;&gt;Node17</title>
<path fill="none" stroke="#63b8ff" d="M387.5,-113.12C363.48,-104.76 319.4,-89.42 287.99,-78.49"/>
<polygon fill="#63b8ff" stroke="#63b8ff" points="289.46,-74.95 278.87,-74.97 287.16,-81.56 289.46,-74.95"/>
</g>
<!-- Node18 -->
<g id="node18" class="node">
<title>Node18</title>
<g id="a_node18"><a xlink:href="v8config_8h.html" target="_top" xlink:title=" ">
<polygon fill="white" stroke="#666666" points="354.5,-19.25 295,-19.25 295,0 354.5,0 354.5,-19.25"/>
<text text-anchor="middle" x="324.75" y="-5.75" font-family="Helvetica,sans-Serif" font-size="10.00">v8config.h</text>
</a>
</g>
</g>
<!-- Node10&#45;&gt;Node18 -->
<g id="edge28" class="edge">
<title>Node10&#45;&gt;Node18</title>
<path fill="none" stroke="#63b8ff" d="M387.32,-110.47C373.58,-102.81 354.94,-90.37 343.75,-74.5 334.47,-61.34 329.66,-43.6 327.21,-30.16"/>
<polygon fill="#63b8ff" stroke="#63b8ff" points="330.58,-30.03 325.61,-20.67 323.66,-31.09 330.58,-30.03"/>
</g>
<!-- Node19 -->
<g id="node19" class="node">
<title>Node19</title>
<g id="a_node19"><a xlink:href="v8-internal_8h.html" target="_top" xlink:title=" ">
<polygon fill="white" stroke="#666666" points="659,-74.5 590.5,-74.5 590.5,-55.25 659,-55.25 659,-74.5"/>
<text text-anchor="middle" x="624.75" y="-61" font-family="Helvetica,sans-Serif" font-size="10.00">v8&#45;internal.h</text>
</a>
</g>
</g>
<!-- Node10&#45;&gt;Node19 -->
<g id="edge20" class="edge">
<title>Node10&#45;&gt;Node19</title>
<path fill="none" stroke="#63b8ff" d="M422.02,-113.14C424.92,-112.21 427.91,-111.3 430.75,-110.5 481.24,-96.35 540.04,-83.3 579.55,-75.01"/>
<polygon fill="#63b8ff" stroke="#63b8ff" points="580.08,-78.27 589.16,-72.8 578.66,-71.41 580.08,-78.27"/>
</g>
<!-- Node21 -->
<g id="node21" class="node">
<title>Node21</title>
<g id="a_node21"><a xlink:href="v8-version_8h.html" target="_top" xlink:title=" ">
<polygon fill="white" stroke="#666666" points="659,-19.25 590.5,-19.25 590.5,0 659,0 659,-19.25"/>
<text text-anchor="middle" x="624.75" y="-5.75" font-family="Helvetica,sans-Serif" font-size="10.00">v8&#45;version.h</text>
</a>
</g>
</g>
<!-- Node10&#45;&gt;Node21 -->
<g id="edge27" class="edge">
<title>Node10&#45;&gt;Node21</title>
<path fill="none" stroke="#63b8ff" d="M421.97,-112.96C424.88,-112.05 427.88,-111.19 430.75,-110.5 482.55,-98.07 633.03,-114.9 667.75,-74.5 681.03,-59.05 663.25,-39.35 646.69,-25.94"/>
<polygon fill="#63b8ff" stroke="#63b8ff" points="649.39,-22.84 639.31,-19.56 645.15,-28.4 649.39,-22.84"/>
</g>
<!-- Node17&#45;&gt;Node18 -->
<g id="edge19" class="edge">
<title>Node17&#45;&gt;Node18</title>
<path fill="none" stroke="#63b8ff" d="M264.13,-54.84C275,-46.91 291.03,-35.22 303.88,-25.85"/>
<polygon fill="#63b8ff" stroke="#63b8ff" points="305.53,-28.25 311.55,-19.52 301.41,-22.59 305.53,-28.25"/>
</g>
<!-- Node19&#45;&gt;Node6 -->
<g id="edge22" class="edge">
<title>Node19&#45;&gt;Node6</title>
<path fill="none" stroke="#63b8ff" d="M590.06,-56.65C587.26,-56.14 584.46,-55.67 581.75,-55.25 446.35,-34.21 283.85,-19.37 213.75,-13.46"/>
<polygon fill="#63b8ff" stroke="#63b8ff" points="214.18,-9.9 203.92,-12.56 213.6,-16.88 214.18,-9.9"/>
</g>
<!-- Node19&#45;&gt;Node11 -->
<g id="edge21" class="edge">
<title>Node19&#45;&gt;Node11</title>
<path fill="none" stroke="#63b8ff" d="M637.98,-54.84C649.64,-46.89 666.85,-35.14 680.6,-25.75"/>
<polygon fill="#63b8ff" stroke="#63b8ff" points="682.17,-28.23 688.45,-19.7 678.22,-22.45 682.17,-28.23"/>
</g>
<!-- Node19&#45;&gt;Node14 -->
<g id="edge24" class="edge">
<title>Node19&#45;&gt;Node14</title>
<path fill="none" stroke="#63b8ff" d="M650.53,-54.84C675.32,-46.16 713,-32.96 740.74,-23.24"/>
<polygon fill="#63b8ff" stroke="#63b8ff" points="741.56,-26.31 749.84,-19.7 739.24,-19.71 741.56,-26.31"/>
</g>
<!-- Node19&#45;&gt;Node18 -->
<g id="edge26" class="edge">
<title>Node19&#45;&gt;Node18</title>
<path fill="none" stroke="#63b8ff" d="M590.03,-56.83C587.23,-56.29 584.44,-55.75 581.75,-55.25 505.6,-41 416.47,-25.87 365.7,-17.4"/>
<polygon fill="#63b8ff" stroke="#63b8ff" points="366.3,-13.78 355.87,-15.59 365.15,-20.69 366.3,-13.78"/>
</g>
<!-- Node20 -->
<g id="node20" class="node">
<title>Node20</title>
<g id="a_node20"><a xlink:title=" ">
<polygon fill="#e0e0e0" stroke="#999999" points="572.5,-19.25 525,-19.25 525,0 572.5,0 572.5,-19.25"/>
<text text-anchor="middle" x="548.75" y="-5.75" font-family="Helvetica,sans-Serif" font-size="10.00">string.h</text>
</a>
</g>
</g>
<!-- Node19&#45;&gt;Node20 -->
<g id="edge23" class="edge">
<title>Node19&#45;&gt;Node20</title>
<path fill="none" stroke="#63b8ff" d="M611.86,-54.84C600.5,-46.89 583.73,-35.14 570.34,-25.75"/>
<polygon fill="#63b8ff" stroke="#63b8ff" points="572.9,-22.57 562.71,-19.7 568.89,-28.31 572.9,-22.57"/>
</g>
<!-- Node19&#45;&gt;Node21 -->
<g id="edge25" class="edge">
<title>Node19&#45;&gt;Node21</title>
<path fill="none" stroke="#63b8ff" d="M624.75,-55.08C624.75,-48.42 624.75,-38.99 624.75,-30.53"/>
<polygon fill="#63b8ff" stroke="#63b8ff" points="628.25,-30.61 624.75,-20.61 621.25,-30.61 628.25,-30.61"/>
</g>
</g>
</svg>
