<?xml version="1.0" encoding="UTF-8" standalone="no"?>
<!DOCTYPE svg PUBLIC "-//W3C//DTD SVG 1.1//EN"
 "http://www.w3.org/Graphics/SVG/1.1/DTD/svg11.dtd">
<!-- Generated by graphviz version 8.0.5 (20230430.1635)
 -->
<!-- Title: v8::PersistentValueMapBase::FromVal Pages: 1 -->
<svg width="701pt" height="209pt"
 viewBox="0.00 0.00 701.25 208.88" xmlns="http://www.w3.org/2000/svg" xmlns:xlink="http://www.w3.org/1999/xlink">
<g id="graph0" class="graph" transform="scale(1 1) rotate(0) translate(4 204.88)">
<title>v8::PersistentValueMapBase::FromVal</title>
<!-- Node1 -->
<g id="node1" class="node">
<title>Node1</title>
<g id="a_node1"><a xlink:title=" ">
<polygon fill="#999999" stroke="#666666" points="693.25,-130.5 552,-130.5 552,-100 693.25,-100 693.25,-130.5"/>
<text text-anchor="start" x="560" y="-117" font-family="Helvetica,sans-Serif" font-size="10.00">v8::PersistentValueMapBase</text>
<text text-anchor="middle" x="622.62" y="-105.75" font-family="Helvetica,sans-Serif" font-size="10.00">::FromVal</text>
</a>
</g>
</g>
<!-- Node2 -->
<g id="node2" class="node">
<title>Node2</title>
<g id="a_node2"><a xlink:href="classv8_1_1PersistentValueMapBase.html#a5bac0db345afa5ac0654c7bac39fd67b" target="_top" xlink:title=" ">
<polygon fill="white" stroke="#666666" points="516,-200.88 354.5,-200.88 354.5,-181.62 516,-181.62 516,-200.88"/>
<text text-anchor="middle" x="435.25" y="-187.38" font-family="Helvetica,sans-Serif" font-size="10.00">v8::PersistentValueMapBase::Get</text>
</a>
</g>
</g>
<!-- Node1&#45;&gt;Node2 -->
<g id="edge1" class="edge">
<title>Node1&#45;&gt;Node2</title>
<path fill="none" stroke="#63b8ff" d="M587.93,-136.37C567.7,-148.29 541.1,-162.68 516,-172.25 506.96,-175.7 497.09,-178.66 487.48,-181.14"/>
<polygon fill="#63b8ff" stroke="#63b8ff" points="589.54,-138.89 596.32,-130.75 585.94,-132.88 589.54,-138.89"/>
</g>
<!-- Node3 -->
<g id="node3" class="node">
<title>Node3</title>
<g id="a_node3"><a xlink:href="classv8_1_1PersistentValueMapBase_1_1PersistentValueReference.html#aab9ed032c017149867c0f2cef2df89fd" target="_top" xlink:title=" ">
<polygon fill="white" stroke="#666666" points="505.88,-163.12 364.62,-163.12 364.62,-121.38 505.88,-121.38 505.88,-163.12"/>
<text text-anchor="start" x="372.62" y="-149.62" font-family="Helvetica,sans-Serif" font-size="10.00">v8::PersistentValueMapBase</text>
<text text-anchor="start" x="372.62" y="-138.38" font-family="Helvetica,sans-Serif" font-size="10.00">::PersistentValueReference</text>
<text text-anchor="middle" x="435.25" y="-127.12" font-family="Helvetica,sans-Serif" font-size="10.00">::NewLocal</text>
</a>
</g>
</g>
<!-- Node1&#45;&gt;Node3 -->
<g id="edge2" class="edge">
<title>Node1&#45;&gt;Node3</title>
<path fill="none" stroke="#63b8ff" d="M540.97,-127C529.37,-128.69 517.5,-130.42 506.12,-132.07"/>
<polygon fill="#63b8ff" stroke="#63b8ff" points="541.15,-130.36 550.54,-125.46 540.14,-123.44 541.15,-130.36"/>
</g>
<!-- Node4 -->
<g id="node4" class="node">
<title>Node4</title>
<g id="a_node4"><a xlink:href="classv8_1_1PersistentValueMapBase.html#a1cc8230f09ebf3498aaff7e718d2f052" target="_top" xlink:title=" ">
<polygon fill="white" stroke="#666666" points="505.88,-103.5 364.62,-103.5 364.62,-73 505.88,-73 505.88,-103.5"/>
<text text-anchor="start" x="372.62" y="-90" font-family="Helvetica,sans-Serif" font-size="10.00">v8::PersistentValueMapBase</text>
<text text-anchor="middle" x="435.25" y="-78.75" font-family="Helvetica,sans-Serif" font-size="10.00">::Release</text>
</a>
</g>
</g>
<!-- Node1&#45;&gt;Node4 -->
<g id="edge3" class="edge">
<title>Node1&#45;&gt;Node4</title>
<path fill="none" stroke="#63b8ff" d="M540.97,-103.5C529.37,-101.81 517.5,-100.08 506.12,-98.43"/>
<polygon fill="#63b8ff" stroke="#63b8ff" points="540.14,-107.06 550.54,-105.04 541.15,-100.14 540.14,-107.06"/>
</g>
<!-- Node12 -->
<g id="node12" class="node">
<title>Node12</title>
<g id="a_node12"><a xlink:href="classv8_1_1PersistentValueMapBase.html#a6fa5f720b283dd9fa626a67e7687dcd0" target="_top" xlink:title=" ">
<polygon fill="white" stroke="#666666" points="505.88,-54.5 364.62,-54.5 364.62,-24 505.88,-24 505.88,-54.5"/>
<text text-anchor="start" x="372.62" y="-41" font-family="Helvetica,sans-Serif" font-size="10.00">v8::PersistentValueMapBase</text>
<text text-anchor="middle" x="435.25" y="-29.75" font-family="Helvetica,sans-Serif" font-size="10.00">::SetReference</text>
</a>
</g>
</g>
<!-- Node1&#45;&gt;Node12 -->
<g id="edge11" class="edge">
<title>Node1&#45;&gt;Node12</title>
<path fill="none" stroke="#63b8ff" d="M582.3,-94.57C562.68,-84.69 538.41,-73.12 516,-64.25 507.77,-60.99 498.93,-57.87 490.25,-55"/>
<polygon fill="#63b8ff" stroke="#63b8ff" points="580.6,-98.14 591.1,-99.56 583.77,-91.9 580.6,-98.14"/>
</g>
<!-- Node5 -->
<g id="node5" class="node">
<title>Node5</title>
<g id="a_node5"><a xlink:href="classv8_1_1PersistentValueMapBase.html#a1bf074e7a7c24713c9a3d40ddce89e74" target="_top" xlink:title=" ">
<polygon fill="white" stroke="#666666" points="318.5,-177.5 177.25,-177.5 177.25,-147 318.5,-147 318.5,-177.5"/>
<text text-anchor="start" x="185.25" y="-164" font-family="Helvetica,sans-Serif" font-size="10.00">v8::PersistentValueMapBase</text>
<text text-anchor="middle" x="247.88" y="-152.75" font-family="Helvetica,sans-Serif" font-size="10.00">::Clear</text>
</a>
</g>
</g>
<!-- Node4&#45;&gt;Node5 -->
<g id="edge4" class="edge">
<title>Node4&#45;&gt;Node5</title>
<path fill="none" stroke="#63b8ff" d="M364.69,-107.73C361.21,-109.15 357.79,-110.66 354.5,-112.25 336.96,-120.72 335.82,-128.33 318.5,-137.25 311.88,-140.66 304.68,-143.81 297.51,-146.64"/>
<polygon fill="#63b8ff" stroke="#63b8ff" points="365.57,-110.75 373.66,-103.91 363.07,-104.22 365.57,-110.75"/>
</g>
<!-- Node7 -->
<g id="node7" class="node">
<title>Node7</title>
<g id="a_node7"><a xlink:href="classv8_1_1PersistentValueMapBase.html#a8d2d423674cb9c939e6a94992eb1c6f4" target="_top" xlink:title=" ">
<polygon fill="white" stroke="#666666" points="318.5,-128.5 177.25,-128.5 177.25,-98 318.5,-98 318.5,-128.5"/>
<text text-anchor="start" x="185.25" y="-115" font-family="Helvetica,sans-Serif" font-size="10.00">v8::PersistentValueMapBase</text>
<text text-anchor="middle" x="247.88" y="-103.75" font-family="Helvetica,sans-Serif" font-size="10.00">::Remove</text>
</a>
</g>
</g>
<!-- Node4&#45;&gt;Node7 -->
<g id="edge6" class="edge">
<title>Node4&#45;&gt;Node7</title>
<path fill="none" stroke="#63b8ff" d="M353.6,-99.13C341.99,-100.69 330.13,-102.29 318.75,-103.83"/>
<polygon fill="#63b8ff" stroke="#63b8ff" points="353.73,-102.51 363.17,-97.7 352.79,-95.57 353.73,-102.51"/>
</g>
<!-- Node8 -->
<g id="node8" class="node">
<title>Node8</title>
<g id="a_node8"><a xlink:href="classv8_1_1PersistentValueMap.html#aee5c2b20750be1bd28746cd06bbf4a1e" target="_top" xlink:title=" ">
<polygon fill="white" stroke="#666666" points="307.25,-79.5 188.5,-79.5 188.5,-49 307.25,-49 307.25,-79.5"/>
<text text-anchor="start" x="196.5" y="-66" font-family="Helvetica,sans-Serif" font-size="10.00">v8::PersistentValueMap</text>
<text text-anchor="middle" x="247.88" y="-54.75" font-family="Helvetica,sans-Serif" font-size="10.00">::SetUnique</text>
</a>
</g>
</g>
<!-- Node4&#45;&gt;Node8 -->
<g id="edge7" class="edge">
<title>Node4&#45;&gt;Node8</title>
<path fill="none" stroke="#63b8ff" d="M353.56,-77.8C338.09,-75.8 322.17,-73.74 307.56,-71.85"/>
<polygon fill="#63b8ff" stroke="#63b8ff" points="352.8,-81.36 363.17,-79.18 353.7,-74.42 352.8,-81.36"/>
</g>
<!-- Node10 -->
<g id="node10" class="node">
<title>Node10</title>
<g id="a_node10"><a xlink:href="classv8_1_1PhantomPersistentValueMap.html#a2c610d2c5a82641b545b3ffc9b9010b0" target="_top" xlink:title=" ">
<polygon fill="white" stroke="#666666" points="317.38,-30.5 178.38,-30.5 178.38,0 317.38,0 317.38,-30.5"/>
<text text-anchor="start" x="186.38" y="-17" font-family="Helvetica,sans-Serif" font-size="10.00">v8::PhantomPersistentValue</text>
<text text-anchor="middle" x="247.88" y="-5.75" font-family="Helvetica,sans-Serif" font-size="10.00">Map::SetUnique</text>
</a>
</g>
</g>
<!-- Node4&#45;&gt;Node10 -->
<g id="edge9" class="edge">
<title>Node4&#45;&gt;Node10</title>
<path fill="none" stroke="#63b8ff" d="M367.75,-68.89C363.21,-67.12 358.76,-65.23 354.5,-63.25 337.29,-55.23 335.54,-48.62 318.5,-40.25 311.7,-36.91 304.33,-33.78 297.03,-30.94"/>
<polygon fill="#63b8ff" stroke="#63b8ff" points="366.17,-72.41 376.76,-72.6 368.6,-65.84 366.17,-72.41"/>
</g>
<!-- Node6 -->
<g id="node6" class="node">
<title>Node6</title>
<g id="a_node6"><a xlink:href="classv8_1_1PersistentValueMapBase.html#a558a88d9caba29448265225a1d780c1d" target="_top" xlink:title=" ">
<polygon fill="white" stroke="#666666" points="141.25,-177.5 0,-177.5 0,-147 141.25,-147 141.25,-177.5"/>
<text text-anchor="start" x="8" y="-164" font-family="Helvetica,sans-Serif" font-size="10.00">v8::PersistentValueMapBase</text>
<text text-anchor="middle" x="70.62" y="-152.75" font-family="Helvetica,sans-Serif" font-size="10.00">::~PersistentValueMapBase</text>
</a>
</g>
</g>
<!-- Node5&#45;&gt;Node6 -->
<g id="edge5" class="edge">
<title>Node5&#45;&gt;Node6</title>
<path fill="none" stroke="#63b8ff" d="M166.13,-162.25C157.91,-162.25 149.62,-162.25 141.53,-162.25"/>
<polygon fill="#63b8ff" stroke="#63b8ff" points="165.86,-165.75 175.86,-162.25 165.86,-158.75 165.86,-165.75"/>
</g>
<!-- Node9 -->
<g id="node9" class="node">
<title>Node9</title>
<g id="a_node9"><a xlink:href="classv8_1_1PersistentValueMap.html#a2b70a88eaae80d4f39e6d689b385c097" target="_top" xlink:title=" ">
<polygon fill="white" stroke="#666666" points="139.75,-73.88 1.5,-73.88 1.5,-54.62 139.75,-54.62 139.75,-73.88"/>
<text text-anchor="middle" x="70.62" y="-60.38" font-family="Helvetica,sans-Serif" font-size="10.00">v8::PersistentValueMap::Set</text>
</a>
</g>
</g>
<!-- Node8&#45;&gt;Node9 -->
<g id="edge8" class="edge">
<title>Node8&#45;&gt;Node9</title>
<path fill="none" stroke="#63b8ff" d="M177.38,-64.25C165.07,-64.25 152.28,-64.25 140.01,-64.25"/>
<polygon fill="#63b8ff" stroke="#63b8ff" points="177.03,-67.75 187.03,-64.25 177.03,-60.75 177.03,-67.75"/>
</g>
<!-- Node11 -->
<g id="node11" class="node">
<title>Node11</title>
<g id="a_node11"><a xlink:href="classv8_1_1PhantomPersistentValueMap.html#a1d7559a0ad8dcdd31cebaff16c4596bd" target="_top" xlink:title=" ">
<polygon fill="white" stroke="#666666" points="140.12,-30.5 1.12,-30.5 1.12,0 140.12,0 140.12,-30.5"/>
<text text-anchor="start" x="9.12" y="-17" font-family="Helvetica,sans-Serif" font-size="10.00">v8::PhantomPersistentValue</text>
<text text-anchor="middle" x="70.62" y="-5.75" font-family="Helvetica,sans-Serif" font-size="10.00">Map::Set</text>
</a>
</g>
</g>
<!-- Node10&#45;&gt;Node11 -->
<g id="edge10" class="edge">
<title>Node10&#45;&gt;Node11</title>
<path fill="none" stroke="#63b8ff" d="M167.28,-15.25C158.33,-15.25 149.27,-15.25 140.47,-15.25"/>
<polygon fill="#63b8ff" stroke="#63b8ff" points="167.11,-18.75 177.11,-15.25 167.11,-11.75 167.11,-18.75"/>
</g>
</g>
</svg>
