<?xml version="1.0" encoding="UTF-8" standalone="no"?>
<!DOCTYPE svg PUBLIC "-//W3C//DTD SVG 1.1//EN"
 "http://www.w3.org/Graphics/SVG/1.1/DTD/svg11.dtd">
<!-- Generated by graphviz version 8.0.5 (20230430.1635)
 -->
<!-- Title: v8::PhantomPersistentValueMap::Set Pages: 1 -->
<svg width="819pt" height="235pt"
 viewBox="0.00 0.00 818.50 234.50" xmlns="http://www.w3.org/2000/svg" xmlns:xlink="http://www.w3.org/1999/xlink">
<g id="graph0" class="graph" transform="scale(1 1) rotate(0) translate(4 230.5)">
<title>v8::PhantomPersistentValueMap::Set</title>
<!-- Node1 -->
<g id="node1" class="node">
<title>Node1</title>
<g id="a_node1"><a xlink:title=" ">
<polygon fill="#999999" stroke="#666666" points="139,-152.5 0,-152.5 0,-122 139,-122 139,-152.5"/>
<text text-anchor="start" x="8" y="-139" font-family="Helvetica,sans-Serif" font-size="10.00">v8::PhantomPersistentValue</text>
<text text-anchor="middle" x="69.5" y="-127.75" font-family="Helvetica,sans-Serif" font-size="10.00">Map::Set</text>
</a>
</g>
</g>
<!-- Node2 -->
<g id="node2" class="node">
<title>Node2</title>
<g id="a_node2"><a xlink:href="classv8_1_1PhantomPersistentValueMap.html#a2c610d2c5a82641b545b3ffc9b9010b0" target="_top" xlink:title=" ">
<polygon fill="white" stroke="#666666" points="314,-152.5 175,-152.5 175,-122 314,-122 314,-152.5"/>
<text text-anchor="start" x="183" y="-139" font-family="Helvetica,sans-Serif" font-size="10.00">v8::PhantomPersistentValue</text>
<text text-anchor="middle" x="244.5" y="-127.75" font-family="Helvetica,sans-Serif" font-size="10.00">Map::SetUnique</text>
</a>
</g>
</g>
<!-- Node1&#45;&gt;Node2 -->
<g id="edge1" class="edge">
<title>Node1&#45;&gt;Node2</title>
<path fill="none" stroke="#63b8ff" d="M139.37,-137.25C147.34,-137.25 155.52,-137.25 163.61,-137.25"/>
<polygon fill="#63b8ff" stroke="#63b8ff" points="163.58,-140.75 173.58,-137.25 163.58,-133.75 163.58,-140.75"/>
</g>
<!-- Node3 -->
<g id="node3" class="node">
<title>Node3</title>
<g id="a_node3"><a xlink:href="classv8_1_1PersistentValueMapBase.html#a639f2b3a7f41e389a71792fe9d1aeb7c" target="_top" xlink:title=" ">
<polygon fill="white" stroke="#666666" points="491.25,-226.5 350,-226.5 350,-196 491.25,-196 491.25,-226.5"/>
<text text-anchor="start" x="358" y="-213" font-family="Helvetica,sans-Serif" font-size="10.00">v8::PersistentValueMapBase</text>
<text text-anchor="middle" x="420.62" y="-201.75" font-family="Helvetica,sans-Serif" font-size="10.00">::ClearAndLeak</text>
</a>
</g>
</g>
<!-- Node2&#45;&gt;Node3 -->
<g id="edge2" class="edge">
<title>Node2&#45;&gt;Node3</title>
<path fill="none" stroke="#63b8ff" d="M276.71,-152.82C297.3,-162.86 325,-175.93 350,-186.25 354.46,-188.09 359.11,-189.93 363.8,-191.73"/>
<polygon fill="#63b8ff" stroke="#63b8ff" points="362.48,-195.35 373.07,-195.59 364.94,-188.8 362.48,-195.35"/>
</g>
<!-- Node4 -->
<g id="node4" class="node">
<title>Node4</title>
<g id="a_node4"><a xlink:href="classv8_1_1PersistentValueMapBase.html#a149e5b7f40fa52dc9b379342ac802d94" target="_top" xlink:title=" ">
<polygon fill="white" stroke="#666666" points="491.25,-177.5 350,-177.5 350,-147 491.25,-147 491.25,-177.5"/>
<text text-anchor="start" x="358" y="-164" font-family="Helvetica,sans-Serif" font-size="10.00">v8::PersistentValueMapBase</text>
<text text-anchor="middle" x="420.62" y="-152.75" font-family="Helvetica,sans-Serif" font-size="10.00">::impl</text>
</a>
</g>
</g>
<!-- Node2&#45;&gt;Node4 -->
<g id="edge3" class="edge">
<title>Node2&#45;&gt;Node4</title>
<path fill="none" stroke="#63b8ff" d="M314.32,-147.13C322.38,-148.29 330.67,-149.48 338.87,-150.66"/>
<polygon fill="#63b8ff" stroke="#63b8ff" points="338.2,-154.24 348.59,-152.2 339.19,-147.31 338.2,-154.24"/>
</g>
<!-- Node5 -->
<g id="node5" class="node">
<title>Node5</title>
<g id="a_node5"><a xlink:href="classv8_1_1PersistentValueMapBase.html#ac15c999275fb50c0084246cb9a848811" target="_top" xlink:title=" ">
<polygon fill="white" stroke="#666666" points="491.25,-128.5 350,-128.5 350,-98 491.25,-98 491.25,-128.5"/>
<text text-anchor="start" x="358" y="-115" font-family="Helvetica,sans-Serif" font-size="10.00">v8::PersistentValueMapBase</text>
<text text-anchor="middle" x="420.62" y="-103.75" font-family="Helvetica,sans-Serif" font-size="10.00">::isolate</text>
</a>
</g>
</g>
<!-- Node2&#45;&gt;Node5 -->
<g id="edge4" class="edge">
<title>Node2&#45;&gt;Node5</title>
<path fill="none" stroke="#63b8ff" d="M314.32,-127.76C322.38,-126.65 330.67,-125.51 338.87,-124.38"/>
<polygon fill="#63b8ff" stroke="#63b8ff" points="339.17,-127.74 348.59,-122.9 338.21,-120.8 339.17,-127.74"/>
</g>
<!-- Node6 -->
<g id="node6" class="node">
<title>Node6</title>
<g id="a_node6"><a xlink:href="classv8_1_1PersistentValueMapBase.html#a1cc8230f09ebf3498aaff7e718d2f052" target="_top" xlink:title=" ">
<polygon fill="white" stroke="#666666" points="491.25,-79.5 350,-79.5 350,-49 491.25,-49 491.25,-79.5"/>
<text text-anchor="start" x="358" y="-66" font-family="Helvetica,sans-Serif" font-size="10.00">v8::PersistentValueMapBase</text>
<text text-anchor="middle" x="420.62" y="-54.75" font-family="Helvetica,sans-Serif" font-size="10.00">::Release</text>
</a>
</g>
</g>
<!-- Node2&#45;&gt;Node6 -->
<g id="edge5" class="edge">
<title>Node2&#45;&gt;Node6</title>
<path fill="none" stroke="#63b8ff" d="M277.67,-121.61C298.17,-111.85 325.42,-99.29 350,-89.25 354.47,-87.43 359.12,-85.6 363.82,-83.81"/>
<polygon fill="#63b8ff" stroke="#63b8ff" points="364.95,-86.75 373.09,-79.96 362.5,-80.19 364.95,-86.75"/>
</g>
<!-- Node7 -->
<g id="node7" class="node">
<title>Node7</title>
<g id="a_node7"><a xlink:href="classv8_1_1PersistentValueMapBase.html#abb262f768e4353658726ba4d1295947c" target="_top" xlink:title=" ">
<polygon fill="white" stroke="#666666" points="668.5,-128.5 527.25,-128.5 527.25,-98 668.5,-98 668.5,-128.5"/>
<text text-anchor="start" x="535.25" y="-115" font-family="Helvetica,sans-Serif" font-size="10.00">v8::PersistentValueMapBase</text>
<text text-anchor="middle" x="597.88" y="-103.75" font-family="Helvetica,sans-Serif" font-size="10.00">::FromVal</text>
</a>
</g>
</g>
<!-- Node6&#45;&gt;Node7 -->
<g id="edge6" class="edge">
<title>Node6&#45;&gt;Node7</title>
<path fill="none" stroke="#63b8ff" d="M477.56,-79.89C494.39,-84.59 513.02,-89.8 530.46,-94.68"/>
<polygon fill="#63b8ff" stroke="#63b8ff" points="529,-98.19 539.57,-97.51 530.88,-91.44 529,-98.19"/>
</g>
<!-- Node8 -->
<g id="node8" class="node">
<title>Node8</title>
<g id="a_node8"><a xlink:href="classv8_1_1PersistentBase.html#a479c7b146da083aa608e133a7dec79f9" target="_top" xlink:title=" ">
<polygon fill="white" stroke="#666666" points="646.75,-79.5 549,-79.5 549,-49 646.75,-49 646.75,-79.5"/>
<text text-anchor="start" x="557" y="-66" font-family="Helvetica,sans-Serif" font-size="10.00">v8::PersistentBase</text>
<text text-anchor="middle" x="597.88" y="-54.75" font-family="Helvetica,sans-Serif" font-size="10.00">::IsWeak</text>
</a>
</g>
</g>
<!-- Node6&#45;&gt;Node8 -->
<g id="edge7" class="edge">
<title>Node6&#45;&gt;Node8</title>
<path fill="none" stroke="#63b8ff" d="M491.64,-64.25C506.99,-64.25 523.08,-64.25 537.94,-64.25"/>
<polygon fill="#63b8ff" stroke="#63b8ff" points="537.51,-67.75 547.51,-64.25 537.51,-60.75 537.51,-67.75"/>
</g>
<!-- Node9 -->
<g id="node9" class="node">
<title>Node9</title>
<g id="a_node9"><a xlink:href="classv8_1_1UniquePersistent.html#ace8f7fa76e5d36afd3ae8ee94acff00f" target="_top" xlink:title=" ">
<polygon fill="white" stroke="#666666" points="650.88,-30.5 544.88,-30.5 544.88,0 650.88,0 650.88,-30.5"/>
<text text-anchor="start" x="552.88" y="-17" font-family="Helvetica,sans-Serif" font-size="10.00">v8::UniquePersistent</text>
<text text-anchor="middle" x="597.88" y="-5.75" font-family="Helvetica,sans-Serif" font-size="10.00">::Pass</text>
</a>
</g>
</g>
<!-- Node6&#45;&gt;Node9 -->
<g id="edge8" class="edge">
<title>Node6&#45;&gt;Node9</title>
<path fill="none" stroke="#63b8ff" d="M477.56,-48.61C495.56,-43.58 515.63,-37.97 534.09,-32.8"/>
<polygon fill="#63b8ff" stroke="#63b8ff" points="534.76,-35.97 543.45,-29.91 532.88,-29.23 534.76,-35.97"/>
</g>
<!-- Node10 -->
<g id="node10" class="node">
<title>Node10</title>
<g id="a_node10"><a xlink:href="classv8_1_1UniquePersistent.html#aace7c7db62ee4649d532e37c52d4dff8" target="_top" xlink:title=" ">
<polygon fill="white" stroke="#666666" points="810.5,-30.5 704.5,-30.5 704.5,0 810.5,0 810.5,-30.5"/>
<text text-anchor="start" x="712.5" y="-17" font-family="Helvetica,sans-Serif" font-size="10.00">v8::UniquePersistent</text>
<text text-anchor="middle" x="757.5" y="-5.75" font-family="Helvetica,sans-Serif" font-size="10.00">::UniquePersistent</text>
</a>
</g>
</g>
<!-- Node9&#45;&gt;Node10 -->
<g id="edge9" class="edge">
<title>Node9&#45;&gt;Node10</title>
<path fill="none" stroke="#63b8ff" d="M651.36,-15.25C664.79,-15.25 679.37,-15.25 693.27,-15.25"/>
<polygon fill="#63b8ff" stroke="#63b8ff" points="693.24,-18.75 703.24,-15.25 693.24,-11.75 693.24,-18.75"/>
</g>
</g>
</svg>
