<?xml version="1.0" encoding="UTF-8" standalone="no"?>
<!DOCTYPE svg PUBLIC "-//W3C//DTD SVG 1.1//EN"
 "http://www.w3.org/Graphics/SVG/1.1/DTD/svg11.dtd">
<!-- Generated by graphviz version 8.0.5 (20230430.1635)
 -->
<!-- Title: v8::PersistentValueMap::Set Pages: 1 -->
<svg width="820pt" height="235pt"
 viewBox="0.00 0.00 820.00 234.50" xmlns="http://www.w3.org/2000/svg" xmlns:xlink="http://www.w3.org/1999/xlink">
<g id="graph0" class="graph" transform="scale(1 1) rotate(0) translate(4 230.5)">
<title>v8::PersistentValueMap::Set</title>
<!-- Node1 -->
<g id="node1" class="node">
<title>Node1</title>
<g id="a_node1"><a xlink:title=" ">
<polygon fill="#999999" stroke="#666666" points="138.25,-170.88 0,-170.88 0,-151.62 138.25,-151.62 138.25,-170.88"/>
<text text-anchor="middle" x="69.12" y="-157.38" font-family="Helvetica,sans-Serif" font-size="10.00">v8::PersistentValueMap::Set</text>
</a>
</g>
</g>
<!-- Node2 -->
<g id="node2" class="node">
<title>Node2</title>
<g id="a_node2"><a xlink:href="classv8_1_1PersistentValueMapBase.html#ae49c98de990b7239aea9f0c131ed1be3" target="_top" xlink:title=" ">
<polygon fill="white" stroke="#666666" points="315.5,-201.5 174.25,-201.5 174.25,-171 315.5,-171 315.5,-201.5"/>
<text text-anchor="start" x="182.25" y="-188" font-family="Helvetica,sans-Serif" font-size="10.00">v8::PersistentValueMapBase</text>
<text text-anchor="middle" x="244.88" y="-176.75" font-family="Helvetica,sans-Serif" font-size="10.00">::Leak</text>
</a>
</g>
</g>
<!-- Node1&#45;&gt;Node2 -->
<g id="edge1" class="edge">
<title>Node1&#45;&gt;Node2</title>
<path fill="none" stroke="#63b8ff" d="M138.3,-171.06C146.43,-172.23 154.79,-173.43 163.07,-174.62"/>
<polygon fill="#63b8ff" stroke="#63b8ff" points="162.5,-178.22 172.9,-176.18 163.5,-171.29 162.5,-178.22"/>
</g>
<!-- Node3 -->
<g id="node3" class="node">
<title>Node3</title>
<g id="a_node3"><a xlink:href="classv8_1_1PersistentValueMap.html#aee5c2b20750be1bd28746cd06bbf4a1e" target="_top" xlink:title=" ">
<polygon fill="white" stroke="#666666" points="304.25,-152.5 185.5,-152.5 185.5,-122 304.25,-122 304.25,-152.5"/>
<text text-anchor="start" x="193.5" y="-139" font-family="Helvetica,sans-Serif" font-size="10.00">v8::PersistentValueMap</text>
<text text-anchor="middle" x="244.88" y="-127.75" font-family="Helvetica,sans-Serif" font-size="10.00">::SetUnique</text>
</a>
</g>
</g>
<!-- Node1&#45;&gt;Node3 -->
<g id="edge2" class="edge">
<title>Node1&#45;&gt;Node3</title>
<path fill="none" stroke="#63b8ff" d="M138.3,-151.83C150.16,-150.19 162.51,-148.49 174.41,-146.84"/>
<polygon fill="#63b8ff" stroke="#63b8ff" points="174.76,-150.19 184.19,-145.36 173.8,-143.26 174.76,-150.19"/>
</g>
<!-- Node4 -->
<g id="node4" class="node">
<title>Node4</title>
<g id="a_node4"><a xlink:href="classv8_1_1PersistentValueMapBase.html#a639f2b3a7f41e389a71792fe9d1aeb7c" target="_top" xlink:title=" ">
<polygon fill="white" stroke="#666666" points="492.75,-226.5 351.5,-226.5 351.5,-196 492.75,-196 492.75,-226.5"/>
<text text-anchor="start" x="359.5" y="-213" font-family="Helvetica,sans-Serif" font-size="10.00">v8::PersistentValueMapBase</text>
<text text-anchor="middle" x="422.12" y="-201.75" font-family="Helvetica,sans-Serif" font-size="10.00">::ClearAndLeak</text>
</a>
</g>
</g>
<!-- Node3&#45;&gt;Node4 -->
<g id="edge3" class="edge">
<title>Node3&#45;&gt;Node4</title>
<path fill="none" stroke="#63b8ff" d="M294.46,-152.97C301.63,-155.79 308.85,-158.9 315.5,-162.25 332.68,-170.9 334.32,-177.6 351.5,-186.25 355.03,-188.03 358.73,-189.74 362.49,-191.38"/>
<polygon fill="#63b8ff" stroke="#63b8ff" points="360.96,-194.95 371.54,-195.53 363.63,-188.48 360.96,-194.95"/>
</g>
<!-- Node5 -->
<g id="node5" class="node">
<title>Node5</title>
<g id="a_node5"><a xlink:href="classv8_1_1PersistentValueMapBase.html#a149e5b7f40fa52dc9b379342ac802d94" target="_top" xlink:title=" ">
<polygon fill="white" stroke="#666666" points="492.75,-177.5 351.5,-177.5 351.5,-147 492.75,-147 492.75,-177.5"/>
<text text-anchor="start" x="359.5" y="-164" font-family="Helvetica,sans-Serif" font-size="10.00">v8::PersistentValueMapBase</text>
<text text-anchor="middle" x="422.12" y="-152.75" font-family="Helvetica,sans-Serif" font-size="10.00">::impl</text>
</a>
</g>
</g>
<!-- Node3&#45;&gt;Node5 -->
<g id="edge4" class="edge">
<title>Node3&#45;&gt;Node5</title>
<path fill="none" stroke="#63b8ff" d="M304.72,-145.64C316.25,-147.29 328.54,-149.04 340.64,-150.77"/>
<polygon fill="#63b8ff" stroke="#63b8ff" points="339.81,-154.33 350.21,-152.28 340.8,-147.4 339.81,-154.33"/>
</g>
<!-- Node6 -->
<g id="node6" class="node">
<title>Node6</title>
<g id="a_node6"><a xlink:href="classv8_1_1PersistentValueMapBase.html#ac15c999275fb50c0084246cb9a848811" target="_top" xlink:title=" ">
<polygon fill="white" stroke="#666666" points="492.75,-128.5 351.5,-128.5 351.5,-98 492.75,-98 492.75,-128.5"/>
<text text-anchor="start" x="359.5" y="-115" font-family="Helvetica,sans-Serif" font-size="10.00">v8::PersistentValueMapBase</text>
<text text-anchor="middle" x="422.12" y="-103.75" font-family="Helvetica,sans-Serif" font-size="10.00">::isolate</text>
</a>
</g>
</g>
<!-- Node3&#45;&gt;Node6 -->
<g id="edge5" class="edge">
<title>Node3&#45;&gt;Node6</title>
<path fill="none" stroke="#63b8ff" d="M304.72,-129.19C316.25,-127.61 328.54,-125.93 340.64,-124.27"/>
<polygon fill="#63b8ff" stroke="#63b8ff" points="340.77,-127.65 350.21,-122.83 339.82,-120.71 340.77,-127.65"/>
</g>
<!-- Node7 -->
<g id="node7" class="node">
<title>Node7</title>
<g id="a_node7"><a xlink:href="classv8_1_1PersistentValueMapBase.html#a1cc8230f09ebf3498aaff7e718d2f052" target="_top" xlink:title=" ">
<polygon fill="white" stroke="#666666" points="492.75,-79.5 351.5,-79.5 351.5,-49 492.75,-49 492.75,-79.5"/>
<text text-anchor="start" x="359.5" y="-66" font-family="Helvetica,sans-Serif" font-size="10.00">v8::PersistentValueMapBase</text>
<text text-anchor="middle" x="422.12" y="-54.75" font-family="Helvetica,sans-Serif" font-size="10.00">::Release</text>
</a>
</g>
</g>
<!-- Node3&#45;&gt;Node7 -->
<g id="edge6" class="edge">
<title>Node3&#45;&gt;Node7</title>
<path fill="none" stroke="#63b8ff" d="M278.4,-121.63C299.14,-111.89 326.68,-99.33 351.5,-89.25 355.97,-87.43 360.63,-85.61 365.33,-83.83"/>
<polygon fill="#63b8ff" stroke="#63b8ff" points="366.46,-86.77 374.6,-79.99 364.01,-80.21 366.46,-86.77"/>
</g>
<!-- Node8 -->
<g id="node8" class="node">
<title>Node8</title>
<g id="a_node8"><a xlink:href="classv8_1_1PersistentValueMapBase.html#abb262f768e4353658726ba4d1295947c" target="_top" xlink:title=" ">
<polygon fill="white" stroke="#666666" points="670,-128.5 528.75,-128.5 528.75,-98 670,-98 670,-128.5"/>
<text text-anchor="start" x="536.75" y="-115" font-family="Helvetica,sans-Serif" font-size="10.00">v8::PersistentValueMapBase</text>
<text text-anchor="middle" x="599.38" y="-103.75" font-family="Helvetica,sans-Serif" font-size="10.00">::FromVal</text>
</a>
</g>
</g>
<!-- Node7&#45;&gt;Node8 -->
<g id="edge7" class="edge">
<title>Node7&#45;&gt;Node8</title>
<path fill="none" stroke="#63b8ff" d="M479.06,-79.89C495.89,-84.59 514.52,-89.8 531.96,-94.68"/>
<polygon fill="#63b8ff" stroke="#63b8ff" points="530.5,-98.19 541.07,-97.51 532.38,-91.44 530.5,-98.19"/>
</g>
<!-- Node9 -->
<g id="node9" class="node">
<title>Node9</title>
<g id="a_node9"><a xlink:href="classv8_1_1PersistentBase.html#a479c7b146da083aa608e133a7dec79f9" target="_top" xlink:title=" ">
<polygon fill="white" stroke="#666666" points="648.25,-79.5 550.5,-79.5 550.5,-49 648.25,-49 648.25,-79.5"/>
<text text-anchor="start" x="558.5" y="-66" font-family="Helvetica,sans-Serif" font-size="10.00">v8::PersistentBase</text>
<text text-anchor="middle" x="599.38" y="-54.75" font-family="Helvetica,sans-Serif" font-size="10.00">::IsWeak</text>
</a>
</g>
</g>
<!-- Node7&#45;&gt;Node9 -->
<g id="edge8" class="edge">
<title>Node7&#45;&gt;Node9</title>
<path fill="none" stroke="#63b8ff" d="M493.14,-64.25C508.49,-64.25 524.58,-64.25 539.44,-64.25"/>
<polygon fill="#63b8ff" stroke="#63b8ff" points="539.01,-67.75 549.01,-64.25 539.01,-60.75 539.01,-67.75"/>
</g>
<!-- Node10 -->
<g id="node10" class="node">
<title>Node10</title>
<g id="a_node10"><a xlink:href="classv8_1_1UniquePersistent.html#ace8f7fa76e5d36afd3ae8ee94acff00f" target="_top" xlink:title=" ">
<polygon fill="white" stroke="#666666" points="652.38,-30.5 546.38,-30.5 546.38,0 652.38,0 652.38,-30.5"/>
<text text-anchor="start" x="554.38" y="-17" font-family="Helvetica,sans-Serif" font-size="10.00">v8::UniquePersistent</text>
<text text-anchor="middle" x="599.38" y="-5.75" font-family="Helvetica,sans-Serif" font-size="10.00">::Pass</text>
</a>
</g>
</g>
<!-- Node7&#45;&gt;Node10 -->
<g id="edge9" class="edge">
<title>Node7&#45;&gt;Node10</title>
<path fill="none" stroke="#63b8ff" d="M479.06,-48.61C497.06,-43.58 517.13,-37.97 535.59,-32.8"/>
<polygon fill="#63b8ff" stroke="#63b8ff" points="536.26,-35.97 544.95,-29.91 534.38,-29.23 536.26,-35.97"/>
</g>
<!-- Node11 -->
<g id="node11" class="node">
<title>Node11</title>
<g id="a_node11"><a xlink:href="classv8_1_1UniquePersistent.html#aace7c7db62ee4649d532e37c52d4dff8" target="_top" xlink:title=" ">
<polygon fill="white" stroke="#666666" points="812,-30.5 706,-30.5 706,0 812,0 812,-30.5"/>
<text text-anchor="start" x="714" y="-17" font-family="Helvetica,sans-Serif" font-size="10.00">v8::UniquePersistent</text>
<text text-anchor="middle" x="759" y="-5.75" font-family="Helvetica,sans-Serif" font-size="10.00">::UniquePersistent</text>
</a>
</g>
</g>
<!-- Node10&#45;&gt;Node11 -->
<g id="edge10" class="edge">
<title>Node10&#45;&gt;Node11</title>
<path fill="none" stroke="#63b8ff" d="M652.86,-15.25C666.29,-15.25 680.87,-15.25 694.77,-15.25"/>
<polygon fill="#63b8ff" stroke="#63b8ff" points="694.74,-18.75 704.74,-15.25 694.74,-11.75 694.74,-18.75"/>
</g>
</g>
</svg>
