<?xml version="1.0" encoding="UTF-8" standalone="no"?>
<!DOCTYPE svg PUBLIC "-//W3C//DTD SVG 1.1//EN"
 "http://www.w3.org/Graphics/SVG/1.1/DTD/svg11.dtd">
<!-- Generated by graphviz version 8.0.5 (20230430.1635)
 -->
<!-- Title: cppgc::internal::PersistentBase::SetValue Pages: 1 -->
<svg width="511pt" height="137pt"
 viewBox="0.00 0.00 510.50 136.50" xmlns="http://www.w3.org/2000/svg" xmlns:xlink="http://www.w3.org/1999/xlink">
<g id="graph0" class="graph" transform="scale(1 1) rotate(0) translate(4 132.5)">
<title>cppgc::internal::PersistentBase::SetValue</title>
<!-- Node1 -->
<g id="node1" class="node">
<title>Node1</title>
<g id="a_node1"><a xlink:title=" ">
<polygon fill="#999999" stroke="#666666" points="502.5,-80.5 375.5,-80.5 375.5,-50 502.5,-50 502.5,-80.5"/>
<text text-anchor="start" x="383.5" y="-67" font-family="Helvetica,sans-Serif" font-size="10.00">cppgc::internal::Persistent</text>
<text text-anchor="middle" x="439" y="-55.75" font-family="Helvetica,sans-Serif" font-size="10.00">Base::SetValue</text>
</a>
</g>
</g>
<!-- Node2 -->
<g id="node2" class="node">
<title>Node2</title>
<g id="a_node2"><a xlink:href="classcppgc_1_1internal_1_1BasicPersistent.html#a74dde4359237ebdcc5056566265ad8be" target="_top" xlink:title=" ">
<polygon fill="white" stroke="#666666" points="339.5,-80.5 187.75,-80.5 187.75,-50 339.5,-50 339.5,-80.5"/>
<text text-anchor="start" x="195.75" y="-67" font-family="Helvetica,sans-Serif" font-size="10.00">cppgc::internal::BasicPersistent</text>
<text text-anchor="middle" x="263.62" y="-55.75" font-family="Helvetica,sans-Serif" font-size="10.00">::Clear</text>
</a>
</g>
</g>
<!-- Node1&#45;&gt;Node2 -->
<g id="edge1" class="edge">
<title>Node1&#45;&gt;Node2</title>
<path fill="none" stroke="#63b8ff" d="M364.43,-65.25C356.29,-65.25 347.99,-65.25 339.83,-65.25"/>
<polygon fill="#63b8ff" stroke="#63b8ff" points="364.41,-68.75 374.41,-65.25 364.41,-61.75 364.41,-68.75"/>
</g>
<!-- Node3 -->
<g id="node3" class="node">
<title>Node3</title>
<g id="a_node3"><a xlink:href="classcppgc_1_1internal_1_1BasicPersistent.html#a64bd8cc47feea777f916b4c9e1272f70" target="_top" xlink:title=" ">
<polygon fill="white" stroke="#666666" points="151.75,-128.5 0,-128.5 0,-98 151.75,-98 151.75,-128.5"/>
<text text-anchor="start" x="8" y="-115" font-family="Helvetica,sans-Serif" font-size="10.00">cppgc::internal::BasicPersistent</text>
<text text-anchor="middle" x="75.88" y="-103.75" font-family="Helvetica,sans-Serif" font-size="10.00">::operator=</text>
</a>
</g>
</g>
<!-- Node1&#45;&gt;Node3 -->
<g id="edge6" class="edge">
<title>Node1&#45;&gt;Node3</title>
<path fill="none" stroke="#63b8ff" d="M369.08,-83.41C359.2,-85.61 349.13,-87.65 339.5,-89.25 276.84,-99.69 204.95,-105.86 152.25,-109.33"/>
<polygon fill="#63b8ff" stroke="#63b8ff" points="369.74,-86.62 378.7,-80.96 368.17,-79.8 369.74,-86.62"/>
</g>
<!-- Node6 -->
<g id="node6" class="node">
<title>Node6</title>
<g id="a_node6"><a xlink:href="classcppgc_1_1internal_1_1BasicCrossThreadPersistent.html#a495e434ac092107ddb112715a863274c" target="_top" xlink:title=" ">
<polygon fill="white" stroke="#666666" points="331.62,-31.5 195.62,-31.5 195.62,-1 331.62,-1 331.62,-31.5"/>
<text text-anchor="start" x="203.62" y="-18" font-family="Helvetica,sans-Serif" font-size="10.00">cppgc::internal::BasicCross</text>
<text text-anchor="middle" x="263.62" y="-6.75" font-family="Helvetica,sans-Serif" font-size="10.00">ThreadPersistent::operator=</text>
</a>
</g>
</g>
<!-- Node1&#45;&gt;Node6 -->
<g id="edge5" class="edge">
<title>Node1&#45;&gt;Node6</title>
<path fill="none" stroke="#63b8ff" d="M372.2,-46.65C355.1,-41.82 336.85,-36.66 320.33,-31.99"/>
<polygon fill="#63b8ff" stroke="#63b8ff" points="371.09,-50.26 381.67,-49.61 373,-43.52 371.09,-50.26"/>
</g>
<!-- Node2&#45;&gt;Node3 -->
<g id="edge2" class="edge">
<title>Node2&#45;&gt;Node3</title>
<path fill="none" stroke="#63b8ff" d="M191.48,-83.64C173.68,-88.24 154.75,-93.13 137.52,-97.58"/>
<polygon fill="#63b8ff" stroke="#63b8ff" points="192,-86.86 200.8,-80.97 190.25,-80.08 192,-86.86"/>
</g>
<!-- Node4 -->
<g id="node4" class="node">
<title>Node4</title>
<g id="a_node4"><a xlink:href="classcppgc_1_1internal_1_1BasicPersistent.html#a6ace7843b070dccc7ae98aa1835f1bfd" target="_top" xlink:title=" ">
<polygon fill="white" stroke="#666666" points="151.75,-79.5 0,-79.5 0,-49 151.75,-49 151.75,-79.5"/>
<text text-anchor="start" x="8" y="-66" font-family="Helvetica,sans-Serif" font-size="10.00">cppgc::internal::BasicPersistent</text>
<text text-anchor="middle" x="75.88" y="-54.75" font-family="Helvetica,sans-Serif" font-size="10.00">::Release</text>
</a>
</g>
</g>
<!-- Node2&#45;&gt;Node4 -->
<g id="edge3" class="edge">
<title>Node2&#45;&gt;Node4</title>
<path fill="none" stroke="#63b8ff" d="M176.59,-64.79C168.37,-64.74 160.07,-64.7 151.96,-64.65"/>
<polygon fill="#63b8ff" stroke="#63b8ff" points="176.32,-68.29 186.34,-64.84 176.36,-61.29 176.32,-68.29"/>
</g>
<!-- Node5 -->
<g id="node5" class="node">
<title>Node5</title>
<g id="a_node5"><a xlink:href="classcppgc_1_1internal_1_1BasicPersistent.html#a72c5fa34d75229671de4e28c2164434d" target="_top" xlink:title=" ">
<polygon fill="white" stroke="#666666" points="151.75,-30.5 0,-30.5 0,0 151.75,0 151.75,-30.5"/>
<text text-anchor="start" x="8" y="-17" font-family="Helvetica,sans-Serif" font-size="10.00">cppgc::internal::BasicPersistent</text>
<text text-anchor="middle" x="75.88" y="-5.75" font-family="Helvetica,sans-Serif" font-size="10.00">::~BasicPersistent</text>
</a>
</g>
</g>
<!-- Node2&#45;&gt;Node5 -->
<g id="edge4" class="edge">
<title>Node2&#45;&gt;Node5</title>
<path fill="none" stroke="#63b8ff" d="M193.84,-46.73C174.58,-41.55 153.84,-35.97 135.25,-30.96"/>
<polygon fill="#63b8ff" stroke="#63b8ff" points="192.8,-50.35 203.36,-49.57 194.62,-43.59 192.8,-50.35"/>
</g>
</g>
</svg>
