<?xml version="1.0" encoding="UTF-8" standalone="no"?>
<!DOCTYPE svg PUBLIC "-//W3C//DTD SVG 1.1//EN"
 "http://www.w3.org/Graphics/SVG/1.1/DTD/svg11.dtd">
<!-- Generated by graphviz version 8.0.5 (20230430.1635)
 -->
<!-- Title: v8::PersistentValueMapBase::Release Pages: 1 -->
<svg width="327pt" height="174pt"
 viewBox="0.00 0.00 326.50 173.50" xmlns="http://www.w3.org/2000/svg" xmlns:xlink="http://www.w3.org/1999/xlink">
<g id="graph0" class="graph" transform="scale(1 1) rotate(0) translate(4 169.5)">
<title>v8::PersistentValueMapBase::Release</title>
<!-- Node1 -->
<g id="node1" class="node">
<title>Node1</title>
<g id="a_node1"><a xlink:title=" ">
<polygon fill="#999999" stroke="#666666" points="141.25,-94.5 0,-94.5 0,-64 141.25,-64 141.25,-94.5"/>
<text text-anchor="start" x="8" y="-81" font-family="Helvetica,sans-Serif" font-size="10.00">v8::PersistentValueMapBase</text>
<text text-anchor="middle" x="70.62" y="-69.75" font-family="Helvetica,sans-Serif" font-size="10.00">::Release</text>
</a>
</g>
</g>
<!-- Node2 -->
<g id="node2" class="node">
<title>Node2</title>
<g id="a_node2"><a xlink:href="classv8_1_1PersistentValueMapBase.html#abb262f768e4353658726ba4d1295947c" target="_top" xlink:title=" ">
<polygon fill="white" stroke="#666666" points="318.5,-165.5 177.25,-165.5 177.25,-135 318.5,-135 318.5,-165.5"/>
<text text-anchor="start" x="185.25" y="-152" font-family="Helvetica,sans-Serif" font-size="10.00">v8::PersistentValueMapBase</text>
<text text-anchor="middle" x="247.88" y="-140.75" font-family="Helvetica,sans-Serif" font-size="10.00">::FromVal</text>
</a>
</g>
</g>
<!-- Node1&#45;&gt;Node2 -->
<g id="edge1" class="edge">
<title>Node1&#45;&gt;Node2</title>
<path fill="none" stroke="#63b8ff" d="M106.11,-94.95C126.63,-104.13 153.27,-115.73 177.25,-125.25 181.93,-127.11 186.81,-128.98 191.71,-130.82"/>
<polygon fill="#63b8ff" stroke="#63b8ff" points="190.17,-134.36 200.77,-134.54 192.6,-127.79 190.17,-134.36"/>
</g>
<!-- Node3 -->
<g id="node3" class="node">
<title>Node3</title>
<g id="a_node3"><a xlink:href="classv8_1_1PersistentBase.html#a479c7b146da083aa608e133a7dec79f9" target="_top" xlink:title=" ">
<polygon fill="white" stroke="#666666" points="296.75,-116.5 199,-116.5 199,-86 296.75,-86 296.75,-116.5"/>
<text text-anchor="start" x="207" y="-103" font-family="Helvetica,sans-Serif" font-size="10.00">v8::PersistentBase</text>
<text text-anchor="middle" x="247.88" y="-91.75" font-family="Helvetica,sans-Serif" font-size="10.00">::IsWeak</text>
</a>
</g>
</g>
<!-- Node1&#45;&gt;Node3 -->
<g id="edge2" class="edge">
<title>Node1&#45;&gt;Node3</title>
<path fill="none" stroke="#63b8ff" d="M141.64,-88.04C156.99,-89.97 173.08,-91.99 187.94,-93.85"/>
<polygon fill="#63b8ff" stroke="#63b8ff" points="187.15,-97.41 197.51,-95.18 188.03,-90.46 187.15,-97.41"/>
</g>
<!-- Node4 -->
<g id="node4" class="node">
<title>Node4</title>
<g id="a_node4"><a xlink:href="classv8_1_1Global.html#a914903149cc752468d4a3a11b6089c7e" target="_top" xlink:title=" ">
<polygon fill="white" stroke="#666666" points="290.75,-67.88 205,-67.88 205,-48.62 290.75,-48.62 290.75,-67.88"/>
<text text-anchor="middle" x="247.88" y="-54.38" font-family="Helvetica,sans-Serif" font-size="10.00">v8::Global::Pass</text>
</a>
</g>
</g>
<!-- Node1&#45;&gt;Node4 -->
<g id="edge3" class="edge">
<title>Node1&#45;&gt;Node4</title>
<path fill="none" stroke="#63b8ff" d="M141.64,-70.86C159.16,-68.76 177.66,-66.54 194.18,-64.56"/>
<polygon fill="#63b8ff" stroke="#63b8ff" points="194.2,-67.97 203.72,-63.3 193.37,-61.02 194.2,-67.97"/>
</g>
<!-- Node5 -->
<g id="node5" class="node">
<title>Node5</title>
<g id="a_node5"><a xlink:href="classv8_1_1IndirectHandleBase.html#a88c4f2b13c4f7a406f57d7c690262ec8" target="_top" xlink:title=" ">
<polygon fill="white" stroke="#666666" points="306.12,-30.5 189.62,-30.5 189.62,0 306.12,0 306.12,-30.5"/>
<text text-anchor="start" x="197.62" y="-17" font-family="Helvetica,sans-Serif" font-size="10.00">v8::IndirectHandleBase</text>
<text text-anchor="middle" x="247.88" y="-5.75" font-family="Helvetica,sans-Serif" font-size="10.00">::slot</text>
</a>
</g>
</g>
<!-- Node1&#45;&gt;Node5 -->
<g id="edge4" class="edge">
<title>Node1&#45;&gt;Node5</title>
<path fill="none" stroke="#63b8ff" d="M112.15,-63.58C131.76,-56.08 155.68,-47.05 177.25,-39.25 181.51,-37.71 185.93,-36.14 190.37,-34.57"/>
<polygon fill="#63b8ff" stroke="#63b8ff" points="191.46,-37.54 199.74,-30.93 189.15,-30.94 191.46,-37.54"/>
</g>
</g>
</svg>
