<?xml version="1.0" encoding="UTF-8" standalone="no"?>
<!DOCTYPE svg PUBLIC "-//W3C//DTD SVG 1.1//EN"
 "http://www.w3.org/Graphics/SVG/1.1/DTD/svg11.dtd">
<!-- Generated by graphviz version 8.0.5 (20230430.1635)
 -->
<!-- Title: v8::NamedPropertyHandlerConfiguration Pages: 1 -->
<svg width="411pt" height="370pt"
 viewBox="0.00 0.00 410.75 369.75" xmlns="http://www.w3.org/2000/svg" xmlns:xlink="http://www.w3.org/1999/xlink">
<g id="graph0" class="graph" transform="scale(1 1) rotate(0) translate(4 365.75)">
<title>v8::NamedPropertyHandlerConfiguration</title>
<!-- Node1 -->
<g id="node1" class="node">
<title>Node1</title>
<g id="a_node1"><a xlink:title=" ">
<polygon fill="#999999" stroke="#666666" points="263.12,-30.5 130.88,-30.5 130.88,0 263.12,0 263.12,-30.5"/>
<text text-anchor="start" x="138.88" y="-17" font-family="Helvetica,sans-Serif" font-size="10.00">v8::NamedPropertyHandler</text>
<text text-anchor="middle" x="197" y="-5.75" font-family="Helvetica,sans-Serif" font-size="10.00">Configuration</text>
</a>
</g>
</g>
<!-- Node2 -->
<g id="node2" class="node">
<title>Node2</title>
<g id="a_node2"><a xlink:href="classv8_1_1Local.html" target="_top" xlink:title=" ">
<polygon fill="white" stroke="#666666" points="122.88,-158.88 25.12,-158.88 25.12,-139.62 122.88,-139.62 122.88,-158.88"/>
<text text-anchor="middle" x="74" y="-145.38" font-family="Helvetica,sans-Serif" font-size="10.00">v8::Local&lt; Name &gt;</text>
</a>
</g>
</g>
<!-- Node2&#45;&gt;Node1 -->
<g id="edge1" class="edge">
<title>Node2&#45;&gt;Node1</title>
<path fill="none" stroke="#9a32cd" stroke-dasharray="5,2" d="M85.33,-130.11C99.05,-109 123.66,-73.82 150.25,-48.5 156.96,-42.11 165.05,-36.06 172.59,-30.97"/>
<polygon fill="#9a32cd" stroke="#9a32cd" points="81.93,-127.92 79.5,-138.24 87.83,-131.69 81.93,-127.92"/>
<text text-anchor="middle" x="172.38" y="-106.5" font-family="Helvetica,sans-Serif" font-size="10.00"> definer</text>
<text text-anchor="middle" x="172.38" y="-95.25" font-family="Helvetica,sans-Serif" font-size="10.00">deleter</text>
<text text-anchor="middle" x="172.38" y="-84" font-family="Helvetica,sans-Serif" font-size="10.00">descriptor</text>
<text text-anchor="middle" x="172.38" y="-72.75" font-family="Helvetica,sans-Serif" font-size="10.00">getter</text>
<text text-anchor="middle" x="172.38" y="-61.5" font-family="Helvetica,sans-Serif" font-size="10.00">query</text>
<text text-anchor="middle" x="172.38" y="-50.25" font-family="Helvetica,sans-Serif" font-size="10.00">setter</text>
</g>
<!-- Node3 -->
<g id="node3" class="node">
<title>Node3</title>
<g id="a_node3"><a xlink:href="classv8_1_1LocalBase.html" target="_top" xlink:title=" ">
<polygon fill="white" stroke="#666666" points="100,-268.25 0,-268.25 0,-249 100,-249 100,-268.25"/>
<text text-anchor="middle" x="50" y="-254.75" font-family="Helvetica,sans-Serif" font-size="10.00">v8::LocalBase&lt; T &gt;</text>
</a>
</g>
</g>
<!-- Node3&#45;&gt;Node2 -->
<g id="edge2" class="edge">
<title>Node3&#45;&gt;Node2</title>
<path fill="none" stroke="#63b8ff" d="M54.36,-238.13C59.59,-214.71 68.15,-176.4 72.01,-159.16"/>
<polygon fill="#63b8ff" stroke="#63b8ff" points="50.73,-237.32 51.96,-247.84 57.56,-238.84 50.73,-237.32"/>
</g>
<!-- Node4 -->
<g id="node4" class="node">
<title>Node4</title>
<g id="a_node4"><a xlink:href="classv8_1_1IndirectHandleBase.html" target="_top" xlink:title=" ">
<polygon fill="white" stroke="#666666" points="200.25,-361.75 83.75,-361.75 83.75,-342.5 200.25,-342.5 200.25,-361.75"/>
<text text-anchor="middle" x="142" y="-348.25" font-family="Helvetica,sans-Serif" font-size="10.00">v8::IndirectHandleBase</text>
</a>
</g>
</g>
<!-- Node4&#45;&gt;Node3 -->
<g id="edge3" class="edge">
<title>Node4&#45;&gt;Node3</title>
<path fill="none" stroke="#63b8ff" d="M119.76,-336.27C108.14,-327.95 94.07,-316.96 83,-305.5 71.82,-293.93 61.42,-278.35 55.39,-268.66"/>
<polygon fill="#63b8ff" stroke="#63b8ff" points="117.24,-339.48 127.45,-342.33 121.25,-333.74 117.24,-339.48"/>
</g>
<!-- Node6 -->
<g id="node6" class="node">
<title>Node6</title>
<g id="a_node6"><a xlink:href="classv8_1_1LocalBase.html" target="_top" xlink:title=" ">
<polygon fill="white" stroke="#666666" points="192,-305.5 92,-305.5 92,-286.25 192,-286.25 192,-305.5"/>
<text text-anchor="middle" x="142" y="-292" font-family="Helvetica,sans-Serif" font-size="10.00">v8::LocalBase&lt; T &gt;</text>
</a>
</g>
</g>
<!-- Node4&#45;&gt;Node6 -->
<g id="edge6" class="edge">
<title>Node4&#45;&gt;Node6</title>
<path fill="none" stroke="#63b8ff" d="M142,-331.24C142,-322.45 142,-312.57 142,-305.67"/>
<polygon fill="#63b8ff" stroke="#63b8ff" points="138.5,-331.17 142,-341.17 145.5,-331.17 138.5,-331.17"/>
</g>
<!-- Node10 -->
<g id="node10" class="node">
<title>Node10</title>
<g id="a_node10"><a xlink:href="classv8_1_1LocalBase.html" target="_top" xlink:title=" ">
<polygon fill="white" stroke="#666666" points="273,-268.25 173,-268.25 173,-249 273,-249 273,-268.25"/>
<text text-anchor="middle" x="223" y="-254.75" font-family="Helvetica,sans-Serif" font-size="10.00">v8::LocalBase&lt; T &gt;</text>
</a>
</g>
</g>
<!-- Node4&#45;&gt;Node10 -->
<g id="edge11" class="edge">
<title>Node4&#45;&gt;Node10</title>
<path fill="none" stroke="#63b8ff" d="M166.59,-336C178.12,-328 191.4,-317.38 201,-305.5 210.22,-294.1 216.73,-278.19 220.17,-268.42"/>
<polygon fill="#63b8ff" stroke="#63b8ff" points="164.83,-333.62 158.43,-342.07 168.7,-339.46 164.83,-333.62"/>
</g>
<!-- Node5 -->
<g id="node5" class="node">
<title>Node5</title>
<g id="a_node5"><a xlink:href="classv8_1_1Local.html" target="_top" xlink:title=" ">
<polygon fill="white" stroke="#666666" points="180.75,-231 103.25,-231 103.25,-211.75 180.75,-211.75 180.75,-231"/>
<text text-anchor="middle" x="142" y="-217.5" font-family="Helvetica,sans-Serif" font-size="10.00">v8::Local&lt; T &gt;</text>
</a>
</g>
</g>
<!-- Node5&#45;&gt;Node2 -->
<g id="edge4" class="edge">
<title>Node5&#45;&gt;Node2</title>
<path fill="none" stroke="orange" stroke-dasharray="5,2" d="M113.33,-206.03C107.85,-202.49 102.44,-198.37 98,-193.75 88.2,-183.55 81.11,-168.57 77.27,-159.11"/>
<polygon fill="orange" stroke="orange" points="111.08,-209.36 121.47,-211.42 114.64,-203.33 111.08,-209.36"/>
<text text-anchor="middle" x="120.5" y="-184.25" font-family="Helvetica,sans-Serif" font-size="10.00"> &lt; Name &gt;</text>
</g>
<!-- Node9 -->
<g id="node9" class="node">
<title>Node9</title>
<g id="a_node9"><a xlink:href="classv8_1_1Local.html" target="_top" xlink:title=" ">
<polygon fill="white" stroke="#666666" points="252.62,-158.88 141.38,-158.88 141.38,-139.62 252.62,-139.62 252.62,-158.88"/>
<text text-anchor="middle" x="197" y="-145.38" font-family="Helvetica,sans-Serif" font-size="10.00">v8::Local&lt; v8::Value &gt;</text>
</a>
</g>
</g>
<!-- Node5&#45;&gt;Node9 -->
<g id="edge12" class="edge">
<title>Node5&#45;&gt;Node9</title>
<path fill="none" stroke="orange" stroke-dasharray="5,2" d="M144.12,-201.07C145.5,-194.75 147.77,-187.96 151.5,-182.5 158.28,-172.59 169.17,-164.71 178.59,-159.23"/>
<polygon fill="orange" stroke="orange" points="140.57,-200.13 142.48,-210.55 147.49,-201.21 140.57,-200.13"/>
<text text-anchor="middle" x="181.25" y="-184.25" font-family="Helvetica,sans-Serif" font-size="10.00"> &lt; v8::Value &gt;</text>
</g>
<!-- Node6&#45;&gt;Node5 -->
<g id="edge5" class="edge">
<title>Node6&#45;&gt;Node5</title>
<path fill="none" stroke="#63b8ff" d="M142,-275.28C142,-260.97 142,-242.24 142,-231.34"/>
<polygon fill="#63b8ff" stroke="#63b8ff" points="138.5,-274.99 142,-284.99 145.5,-274.99 138.5,-274.99"/>
</g>
<!-- Node7 -->
<g id="node7" class="node">
<title>Node7</title>
<g id="a_node7"><a xlink:href="classv8_1_1PropertyCallbackInfo.html" target="_top" xlink:title=" ">
<polygon fill="white" stroke="#666666" points="391.5,-164.5 270.5,-164.5 270.5,-134 391.5,-134 391.5,-164.5"/>
<text text-anchor="start" x="278.5" y="-151" font-family="Helvetica,sans-Serif" font-size="10.00">v8::PropertyCallbackInfo</text>
<text text-anchor="middle" x="331" y="-139.75" font-family="Helvetica,sans-Serif" font-size="10.00">&lt; Array &gt;</text>
</a>
</g>
</g>
<!-- Node7&#45;&gt;Node1 -->
<g id="edge7" class="edge">
<title>Node7&#45;&gt;Node1</title>
<path fill="none" stroke="#9a32cd" stroke-dasharray="5,2" d="M308.59,-126.18C281.14,-99.14 235.4,-54.08 211.92,-30.95"/>
<polygon fill="#9a32cd" stroke="#9a32cd" points="305.57,-128.1 315.15,-132.62 310.48,-123.11 305.57,-128.1"/>
<text text-anchor="middle" x="321.5" y="-78.38" font-family="Helvetica,sans-Serif" font-size="10.00"> enumerator</text>
</g>
<!-- Node8 -->
<g id="node8" class="node">
<title>Node8</title>
<g id="a_node8"><a xlink:href="classv8_1_1PropertyCallbackInfo.html" target="_top" xlink:title=" ">
<polygon fill="white" stroke="#666666" points="402.75,-231 259.25,-231 259.25,-211.75 402.75,-211.75 402.75,-231"/>
<text text-anchor="middle" x="331" y="-217.5" font-family="Helvetica,sans-Serif" font-size="10.00">v8::PropertyCallbackInfo&lt; T &gt;</text>
</a>
</g>
</g>
<!-- Node8&#45;&gt;Node7 -->
<g id="edge8" class="edge">
<title>Node8&#45;&gt;Node7</title>
<path fill="none" stroke="orange" stroke-dasharray="5,2" d="M331,-200.53C331,-189.2 331,-175.25 331,-164.92"/>
<polygon fill="orange" stroke="orange" points="327.5,-200.49 331,-210.49 334.5,-200.49 327.5,-200.49"/>
<text text-anchor="middle" x="351.62" y="-184.25" font-family="Helvetica,sans-Serif" font-size="10.00"> &lt; Array &gt;</text>
</g>
<!-- Node9&#45;&gt;Node1 -->
<g id="edge9" class="edge">
<title>Node9&#45;&gt;Node1</title>
<path fill="none" stroke="#9a32cd" stroke-dasharray="5,2" d="M197,-128.47C197,-101.72 197,-54.6 197,-30.84"/>
<polygon fill="#9a32cd" stroke="#9a32cd" points="193.5,-128.18 197,-138.18 200.5,-128.18 193.5,-128.18"/>
<text text-anchor="middle" x="207.5" y="-78.38" font-family="Helvetica,sans-Serif" font-size="10.00"> data</text>
</g>
<!-- Node10&#45;&gt;Node9 -->
<g id="edge10" class="edge">
<title>Node10&#45;&gt;Node9</title>
<path fill="none" stroke="#63b8ff" d="M220.76,-237.97C218.74,-222.67 215.26,-200.98 210,-182.5 207.69,-174.37 204.02,-165.49 201.16,-159.11"/>
<polygon fill="#63b8ff" stroke="#63b8ff" points="217.38,-238.2 222.08,-247.7 224.33,-237.35 217.38,-238.2"/>
</g>
</g>
</svg>
