<?xml version="1.0" encoding="UTF-8" standalone="no"?>
<!DOCTYPE svg PUBLIC "-//W3C//DTD SVG 1.1//EN"
 "http://www.w3.org/Graphics/SVG/1.1/DTD/svg11.dtd">
<!-- Generated by graphviz version 8.0.5 (20230430.1635)
 -->
<!-- Title: include/v8&#45;template.h Pages: 1 -->
<svg width="1212pt" height="469pt"
 viewBox="0.00 0.00 1212.48 469.25" xmlns="http://www.w3.org/2000/svg" xmlns:xlink="http://www.w3.org/1999/xlink">
<g id="graph0" class="graph" transform="scale(1 1) rotate(0) translate(4 465.25)">
<title>include/v8&#45;template.h</title>
<!-- Node1 -->
<g id="node1" class="node">
<title>Node1</title>
<g id="a_node1"><a xlink:title=" ">
<polygon fill="#999999" stroke="#666666" points="171.12,-461.25 62.88,-461.25 62.88,-442 171.12,-442 171.12,-461.25"/>
<text text-anchor="middle" x="117" y="-447.75" font-family="Helvetica,sans-Serif" font-size="10.00">include/v8&#45;template.h</text>
</a>
</g>
</g>
<!-- Node2 -->
<g id="node2" class="node">
<title>Node2</title>
<g id="a_node2"><a xlink:href="v8-data_8h.html" target="_top" xlink:title=" ">
<polygon fill="white" stroke="#666666" points="275.88,-240.25 220.12,-240.25 220.12,-221 275.88,-221 275.88,-240.25"/>
<text text-anchor="middle" x="248" y="-226.75" font-family="Helvetica,sans-Serif" font-size="10.00">v8&#45;data.h</text>
</a>
</g>
</g>
<!-- Node1&#45;&gt;Node2 -->
<g id="edge1" class="edge">
<title>Node1&#45;&gt;Node2</title>
<path fill="none" stroke="#63b8ff" d="M109.91,-441.83C100.81,-429.4 87.08,-406.07 95,-386.75 121.36,-322.5 188.6,-270.62 224.53,-246.41"/>
<polygon fill="#63b8ff" stroke="#63b8ff" points="225.93,-249.02 232.36,-240.6 222.08,-243.18 225.93,-249.02"/>
</g>
<!-- Node3 -->
<g id="node3" class="node">
<title>Node3</title>
<g id="a_node3"><a xlink:href="v8-local-handle_8h.html" target="_top" xlink:title=" ">
<polygon fill="white" stroke="#666666" points="458.38,-185 369.62,-185 369.62,-165.75 458.38,-165.75 458.38,-185"/>
<text text-anchor="middle" x="414" y="-171.5" font-family="Helvetica,sans-Serif" font-size="10.00">v8&#45;local&#45;handle.h</text>
</a>
</g>
</g>
<!-- Node1&#45;&gt;Node3 -->
<g id="edge32" class="edge">
<title>Node1&#45;&gt;Node3</title>
<path fill="none" stroke="#63b8ff" d="M165.87,-441.55C218.07,-429.44 300.03,-403.13 350,-350.75 392.41,-306.29 407.14,-231.42 411.91,-196.03"/>
<polygon fill="#63b8ff" stroke="#63b8ff" points="415.48,-196.62 413.2,-186.27 408.53,-195.78 415.48,-196.62"/>
</g>
<!-- Node11 -->
<g id="node11" class="node">
<title>Node11</title>
<g id="a_node11"><a xlink:href="v8config_8h.html" target="_top" xlink:title=" ">
<polygon fill="white" stroke="#666666" points="334.75,-19.25 275.25,-19.25 275.25,0 334.75,0 334.75,-19.25"/>
<text text-anchor="middle" x="305" y="-5.75" font-family="Helvetica,sans-Serif" font-size="10.00">v8config.h</text>
</a>
</g>
</g>
<!-- Node1&#45;&gt;Node11 -->
<g id="edge60" class="edge">
<title>Node1&#45;&gt;Node11</title>
<path fill="none" stroke="#63b8ff" d="M93.88,-441.56C59.79,-426.48 0,-392.82 0,-342.12 0,-342.12 0,-342.12 0,-119.12 0,-84.65 14.95,-73.81 44,-55.25 79.82,-32.37 200.05,-19.26 264.07,-13.75"/>
<polygon fill="#63b8ff" stroke="#63b8ff" points="264.29,-17.16 273.97,-12.83 263.71,-10.18 264.29,-17.16"/>
</g>
<!-- Node12 -->
<g id="node12" class="node">
<title>Node12</title>
<g id="a_node12"><a xlink:href="v8-function-callback_8h.html" target="_top" xlink:title=" ">
<polygon fill="white" stroke="#666666" points="214.25,-406 103.75,-406 103.75,-386.75 214.25,-386.75 214.25,-406"/>
<text text-anchor="middle" x="159" y="-392.5" font-family="Helvetica,sans-Serif" font-size="10.00">v8&#45;function&#45;callback.h</text>
</a>
</g>
</g>
<!-- Node1&#45;&gt;Node12 -->
<g id="edge14" class="edge">
<title>Node1&#45;&gt;Node12</title>
<path fill="none" stroke="#63b8ff" d="M123.94,-441.83C129.68,-434.55 138.01,-423.98 145.12,-414.98"/>
<polygon fill="#63b8ff" stroke="#63b8ff" points="148.47,-417.38 151.91,-407.36 142.97,-413.04 148.47,-417.38"/>
</g>
<!-- Node17 -->
<g id="node17" class="node">
<title>Node17</title>
<g id="a_node17"><a xlink:href="v8-memory-span_8h.html" target="_top" xlink:title=" ">
<polygon fill="white" stroke="#666666" points="561.75,-74.5 466.25,-74.5 466.25,-55.25 561.75,-55.25 561.75,-74.5"/>
<text text-anchor="middle" x="514" y="-61" font-family="Helvetica,sans-Serif" font-size="10.00">v8&#45;memory&#45;span.h</text>
</a>
</g>
</g>
<!-- Node1&#45;&gt;Node17 -->
<g id="edge33" class="edge">
<title>Node1&#45;&gt;Node17</title>
<path fill="none" stroke="#63b8ff" d="M109.33,-441.79C102.48,-433.28 92.95,-419.71 89,-406 86.63,-397.78 87.32,-395.14 89,-386.75 95.43,-354.55 148.54,-234.33 162,-221 245.85,-137.97 381.63,-95.66 457.72,-77.41"/>
<polygon fill="#63b8ff" stroke="#63b8ff" points="458.11,-80.68 467.05,-74.99 456.52,-73.86 458.11,-80.68"/>
</g>
<!-- Node18 -->
<g id="node18" class="node">
<title>Node18</title>
<g id="a_node18"><a xlink:href="v8-object_8h.html" target="_top" xlink:title=" ">
<polygon fill="white" stroke="#666666" points="513.62,-406 450.38,-406 450.38,-386.75 513.62,-386.75 513.62,-406"/>
<text text-anchor="middle" x="482" y="-392.5" font-family="Helvetica,sans-Serif" font-size="10.00">v8&#45;object.h</text>
</a>
</g>
</g>
<!-- Node1&#45;&gt;Node18 -->
<g id="edge36" class="edge">
<title>Node1&#45;&gt;Node18</title>
<path fill="none" stroke="#63b8ff" d="M171.35,-443.01C233.27,-434.29 337.47,-419.46 427,-406 430.96,-405.4 435.08,-404.78 439.2,-404.14"/>
<polygon fill="#63b8ff" stroke="#63b8ff" points="439.67,-407.45 449.02,-402.46 438.6,-400.54 439.67,-407.45"/>
</g>
<!-- Node2&#45;&gt;Node3 -->
<g id="edge2" class="edge">
<title>Node2&#45;&gt;Node3</title>
<path fill="none" stroke="#63b8ff" d="M276.16,-220.59C303.47,-211.83 345.1,-198.48 375.47,-188.73"/>
<polygon fill="#63b8ff" stroke="#63b8ff" points="376.25,-191.84 384.7,-185.45 374.11,-185.17 376.25,-191.84"/>
</g>
<!-- Node2&#45;&gt;Node11 -->
<g id="edge13" class="edge">
<title>Node2&#45;&gt;Node11</title>
<path fill="none" stroke="#63b8ff" d="M247.7,-220.51C247.15,-193.95 247.79,-114.68 272,-55.25 276.02,-45.37 282.74,-35.69 289.06,-27.89"/>
<polygon fill="#63b8ff" stroke="#63b8ff" points="292.25,-30.55 296.12,-20.69 286.95,-25.98 292.25,-30.55"/>
</g>
<!-- Node4 -->
<g id="node4" class="node">
<title>Node4</title>
<g id="a_node4"><a xlink:title=" ">
<polygon fill="#e0e0e0" stroke="#999999" points="650.25,-19.25 599.75,-19.25 599.75,0 650.25,0 650.25,-19.25"/>
<text text-anchor="middle" x="625" y="-5.75" font-family="Helvetica,sans-Serif" font-size="10.00">stddef.h</text>
</a>
</g>
</g>
<!-- Node3&#45;&gt;Node4 -->
<g id="edge3" class="edge">
<title>Node3&#45;&gt;Node4</title>
<path fill="none" stroke="#63b8ff" d="M424.98,-165.27C440.92,-152.27 471.69,-128.02 500,-110.5 530.09,-91.89 543.25,-96.45 571,-74.5 587.84,-61.18 603.25,-41.94 613.25,-28.06"/>
<polygon fill="#63b8ff" stroke="#63b8ff" points="616.41,-30.64 619.27,-20.44 610.67,-26.64 616.41,-30.64"/>
</g>
<!-- Node5 -->
<g id="node5" class="node">
<title>Node5</title>
<g id="a_node5"><a xlink:title=" ">
<polygon fill="#e0e0e0" stroke="#999999" points="844.5,-19.25 783.5,-19.25 783.5,0 844.5,0 844.5,-19.25"/>
<text text-anchor="middle" x="814" y="-5.75" font-family="Helvetica,sans-Serif" font-size="10.00">type_traits</text>
</a>
</g>
</g>
<!-- Node3&#45;&gt;Node5 -->
<g id="edge4" class="edge">
<title>Node3&#45;&gt;Node5</title>
<path fill="none" stroke="#63b8ff" d="M431.92,-165.4C449.42,-156.56 476.72,-142.57 500,-129.75 514.87,-121.56 517.63,-117.71 533,-110.5 598.08,-79.99 617.26,-79.28 685,-55.25 716.02,-44.25 751.34,-32.05 777.17,-23.19"/>
<polygon fill="#63b8ff" stroke="#63b8ff" points="777.95,-26.29 786.27,-19.73 775.68,-19.66 777.95,-26.29"/>
</g>
<!-- Node6 -->
<g id="node6" class="node">
<title>Node6</title>
<g id="a_node6"><a xlink:href="v8-handle-base_8h.html" target="_top" xlink:title=" ">
<polygon fill="white" stroke="#666666" points="631.75,-129.75 542.25,-129.75 542.25,-110.5 631.75,-110.5 631.75,-129.75"/>
<text text-anchor="middle" x="587" y="-116.25" font-family="Helvetica,sans-Serif" font-size="10.00">v8&#45;handle&#45;base.h</text>
</a>
</g>
</g>
<!-- Node3&#45;&gt;Node6 -->
<g id="edge5" class="edge">
<title>Node3&#45;&gt;Node6</title>
<path fill="none" stroke="#63b8ff" d="M443.35,-165.34C471.93,-156.54 515.58,-143.11 547.26,-133.36"/>
<polygon fill="#63b8ff" stroke="#63b8ff" points="547.98,-136.49 556.51,-130.2 545.92,-129.8 547.98,-136.49"/>
</g>
<!-- Node7 -->
<g id="node7" class="node">
<title>Node7</title>
<g id="a_node7"><a xlink:href="v8-internal_8h.html" target="_top" xlink:title=" ">
<polygon fill="white" stroke="#666666" points="762.25,-74.5 693.75,-74.5 693.75,-55.25 762.25,-55.25 762.25,-74.5"/>
<text text-anchor="middle" x="728" y="-61" font-family="Helvetica,sans-Serif" font-size="10.00">v8&#45;internal.h</text>
</a>
</g>
</g>
<!-- Node6&#45;&gt;Node7 -->
<g id="edge6" class="edge">
<title>Node6&#45;&gt;Node7</title>
<path fill="none" stroke="#63b8ff" d="M610.92,-110.09C633.71,-101.49 668.25,-88.44 693.91,-78.75"/>
<polygon fill="#63b8ff" stroke="#63b8ff" points="694.85,-81.76 702.96,-74.95 692.37,-75.21 694.85,-81.76"/>
</g>
<!-- Node7&#45;&gt;Node4 -->
<g id="edge7" class="edge">
<title>Node7&#45;&gt;Node4</title>
<path fill="none" stroke="#63b8ff" d="M710.53,-54.84C694.55,-46.58 670.65,-34.23 652.18,-24.68"/>
<polygon fill="#63b8ff" stroke="#63b8ff" points="654.05,-21.19 643.56,-19.7 650.83,-27.4 654.05,-21.19"/>
</g>
<!-- Node7&#45;&gt;Node5 -->
<g id="edge11" class="edge">
<title>Node7&#45;&gt;Node5</title>
<path fill="none" stroke="#63b8ff" d="M742.59,-54.84C755.56,-46.81 774.78,-34.91 790.01,-25.48"/>
<polygon fill="#63b8ff" stroke="#63b8ff" points="791.68,-27.94 798.34,-19.7 788,-21.99 791.68,-27.94"/>
</g>
<!-- Node8 -->
<g id="node8" class="node">
<title>Node8</title>
<g id="a_node8"><a xlink:title=" ">
<polygon fill="#e0e0e0" stroke="#999999" points="1047.75,-19.25 1000.25,-19.25 1000.25,0 1047.75,0 1047.75,-19.25"/>
<text text-anchor="middle" x="1024" y="-5.75" font-family="Helvetica,sans-Serif" font-size="10.00">stdint.h</text>
</a>
</g>
</g>
<!-- Node7&#45;&gt;Node8 -->
<g id="edge8" class="edge">
<title>Node7&#45;&gt;Node8</title>
<path fill="none" stroke="#63b8ff" d="M762.53,-57.66C819.44,-47.43 932.26,-27.13 989.29,-16.87"/>
<polygon fill="#63b8ff" stroke="#63b8ff" points="989.69,-20.17 998.91,-14.96 988.45,-13.28 989.69,-20.17"/>
</g>
<!-- Node9 -->
<g id="node9" class="node">
<title>Node9</title>
<g id="a_node9"><a xlink:title=" ">
<polygon fill="#e0e0e0" stroke="#999999" points="751.75,-19.25 704.25,-19.25 704.25,0 751.75,0 751.75,-19.25"/>
<text text-anchor="middle" x="728" y="-5.75" font-family="Helvetica,sans-Serif" font-size="10.00">string.h</text>
</a>
</g>
</g>
<!-- Node7&#45;&gt;Node9 -->
<g id="edge9" class="edge">
<title>Node7&#45;&gt;Node9</title>
<path fill="none" stroke="#63b8ff" d="M728,-55.08C728,-48.42 728,-38.99 728,-30.53"/>
<polygon fill="#63b8ff" stroke="#63b8ff" points="731.5,-30.61 728,-20.61 724.5,-30.61 731.5,-30.61"/>
</g>
<!-- Node10 -->
<g id="node10" class="node">
<title>Node10</title>
<g id="a_node10"><a xlink:title=" ">
<polygon fill="#e0e0e0" stroke="#999999" points="1179.62,-19.25 1134.38,-19.25 1134.38,0 1179.62,0 1179.62,-19.25"/>
<text text-anchor="middle" x="1157" y="-5.75" font-family="Helvetica,sans-Serif" font-size="10.00">atomic</text>
</a>
</g>
</g>
<!-- Node7&#45;&gt;Node10 -->
<g id="edge10" class="edge">
<title>Node7&#45;&gt;Node10</title>
<path fill="none" stroke="#63b8ff" d="M762.74,-59.56C843.55,-49.53 1043.28,-24.74 1123.17,-14.82"/>
<polygon fill="#63b8ff" stroke="#63b8ff" points="1123.57,-18.18 1133.06,-13.47 1122.71,-11.23 1123.57,-18.18"/>
</g>
<!-- Node7&#45;&gt;Node11 -->
<g id="edge12" class="edge">
<title>Node7&#45;&gt;Node11</title>
<path fill="none" stroke="#63b8ff" d="M693.38,-59.52C615.95,-49.77 429.03,-26.24 345.96,-15.78"/>
<polygon fill="#63b8ff" stroke="#63b8ff" points="346.55,-12.2 336.19,-14.43 345.67,-19.15 346.55,-12.2"/>
</g>
<!-- Node12&#45;&gt;Node3 -->
<g id="edge15" class="edge">
<title>Node12&#45;&gt;Node3</title>
<path fill="none" stroke="#63b8ff" d="M158.74,-386.55C158.41,-357.95 161.47,-267.02 211,-221 232.1,-201.39 305.83,-188.89 358.34,-182.25"/>
<polygon fill="#63b8ff" stroke="#63b8ff" points="358.7,-185.61 368.2,-180.92 357.85,-178.66 358.7,-185.61"/>
</g>
<!-- Node12&#45;&gt;Node11 -->
<g id="edge31" class="edge">
<title>Node12&#45;&gt;Node11</title>
<path fill="none" stroke="#63b8ff" d="M149.66,-386.32C121.61,-358.1 40,-268.11 40,-176.38 40,-176.38 40,-176.38 40,-119.12 40,-88.8 40.75,-74.72 64,-55.25 93.79,-30.3 203.73,-18.24 264.3,-13.37"/>
<polygon fill="#63b8ff" stroke="#63b8ff" points="264.31,-16.81 274.01,-12.55 263.77,-9.83 264.31,-16.81"/>
</g>
<!-- Node13 -->
<g id="node13" class="node">
<title>Node13</title>
<g id="a_node13"><a xlink:href="v8-primitive_8h.html" target="_top" xlink:title=" ">
<polygon fill="white" stroke="#666666" points="340.88,-350.75 267.12,-350.75 267.12,-331.5 340.88,-331.5 340.88,-350.75"/>
<text text-anchor="middle" x="304" y="-337.25" font-family="Helvetica,sans-Serif" font-size="10.00">v8&#45;primitive.h</text>
</a>
</g>
</g>
<!-- Node12&#45;&gt;Node13 -->
<g id="edge16" class="edge">
<title>Node12&#45;&gt;Node13</title>
<path fill="none" stroke="#63b8ff" d="M183.6,-386.34C207.14,-377.7 242.87,-364.57 269.3,-354.87"/>
<polygon fill="#63b8ff" stroke="#63b8ff" points="270.1,-357.94 278.28,-351.2 267.69,-351.36 270.1,-357.94"/>
</g>
<!-- Node13&#45;&gt;Node2 -->
<g id="edge17" class="edge">
<title>Node13&#45;&gt;Node2</title>
<path fill="none" stroke="#63b8ff" d="M299.42,-331.25C290.31,-313.6 269.77,-273.8 257.58,-250.2"/>
<polygon fill="#63b8ff" stroke="#63b8ff" points="260.34,-248.91 252.65,-241.63 254.12,-252.12 260.34,-248.91"/>
</g>
<!-- Node13&#45;&gt;Node3 -->
<g id="edge19" class="edge">
<title>Node13&#45;&gt;Node3</title>
<path fill="none" stroke="#63b8ff" d="M309.91,-331.32C327.3,-305.44 378.48,-229.25 401.97,-194.28"/>
<polygon fill="#63b8ff" stroke="#63b8ff" points="405.39,-196.48 408.06,-186.22 399.58,-192.57 405.39,-196.48"/>
</g>
<!-- Node13&#45;&gt;Node7 -->
<g id="edge18" class="edge">
<title>Node13&#45;&gt;Node7</title>
<path fill="none" stroke="#63b8ff" d="M304.21,-331.07C305.38,-302.54 312.91,-213.6 361,-165.75 406.56,-120.42 595.06,-86.28 682.75,-72.52"/>
<polygon fill="#63b8ff" stroke="#63b8ff" points="683.08,-75.85 692.43,-70.87 682.01,-68.94 683.08,-75.85"/>
</g>
<!-- Node13&#45;&gt;Node11 -->
<g id="edge30" class="edge">
<title>Node13&#45;&gt;Node11</title>
<path fill="none" stroke="#63b8ff" d="M285.61,-331.12C245.55,-310.05 154,-253.48 154,-176.38 154,-176.38 154,-176.38 154,-119.12 154,-64.58 219.77,-34.78 264.5,-20.81"/>
<polygon fill="#63b8ff" stroke="#63b8ff" points="265.21,-23.95 273.81,-17.75 263.22,-17.24 265.21,-23.95"/>
</g>
<!-- Node14 -->
<g id="node14" class="node">
<title>Node14</title>
<g id="a_node14"><a xlink:href="v8-value_8h.html" target="_top" xlink:title=" ">
<polygon fill="white" stroke="#666666" points="501.12,-295.5 440.88,-295.5 440.88,-276.25 501.12,-276.25 501.12,-295.5"/>
<text text-anchor="middle" x="471" y="-282" font-family="Helvetica,sans-Serif" font-size="10.00">v8&#45;value.h</text>
</a>
</g>
</g>
<!-- Node13&#45;&gt;Node14 -->
<g id="edge20" class="edge">
<title>Node13&#45;&gt;Node14</title>
<path fill="none" stroke="#63b8ff" d="M332.33,-331.09C359.8,-322.33 401.69,-308.98 432.24,-299.23"/>
<polygon fill="#63b8ff" stroke="#63b8ff" points="433.07,-302.33 441.53,-295.95 430.94,-295.66 433.07,-302.33"/>
</g>
<!-- Node14&#45;&gt;Node2 -->
<g id="edge21" class="edge">
<title>Node14&#45;&gt;Node2</title>
<path fill="none" stroke="#63b8ff" d="M440.46,-277.58C400.43,-268.02 330.2,-251.25 286.55,-240.83"/>
<polygon fill="#63b8ff" stroke="#63b8ff" points="287.6,-237.24 277.06,-238.33 285.98,-244.05 287.6,-237.24"/>
</g>
<!-- Node14&#45;&gt;Node3 -->
<g id="edge23" class="edge">
<title>Node14&#45;&gt;Node3</title>
<path fill="none" stroke="#63b8ff" d="M466.34,-276C457.07,-258.35 436.16,-218.55 423.76,-194.95"/>
<polygon fill="#63b8ff" stroke="#63b8ff" points="426.48,-193.6 418.73,-186.38 420.28,-196.86 426.48,-193.6"/>
</g>
<!-- Node14&#45;&gt;Node7 -->
<g id="edge22" class="edge">
<title>Node14&#45;&gt;Node7</title>
<path fill="none" stroke="#63b8ff" d="M501.51,-283.06C541.06,-279.57 611.11,-269.45 663,-240.25 692.92,-223.41 702.59,-216.17 717,-185 731.99,-152.58 731.8,-109.97 730.07,-85.48"/>
<polygon fill="#63b8ff" stroke="#63b8ff" points="733.49,-85.41 729.12,-75.76 726.51,-86.03 733.49,-85.41"/>
</g>
<!-- Node14&#45;&gt;Node11 -->
<g id="edge29" class="edge">
<title>Node14&#45;&gt;Node11</title>
<path fill="none" stroke="#63b8ff" d="M457.04,-275.85C433.82,-260.12 387.2,-225.5 361,-185 328.54,-134.83 313.56,-64.35 307.89,-30.42"/>
<polygon fill="#63b8ff" stroke="#63b8ff" points="311.21,-30.01 306.2,-20.67 304.29,-31.09 311.21,-30.01"/>
</g>
<!-- Node15 -->
<g id="node15" class="node">
<title>Node15</title>
<g id="a_node15"><a xlink:href="v8-maybe_8h.html" target="_top" xlink:title=" ">
<polygon fill="white" stroke="#666666" points="829.75,-240.25 764.25,-240.25 764.25,-221 829.75,-221 829.75,-240.25"/>
<text text-anchor="middle" x="797" y="-226.75" font-family="Helvetica,sans-Serif" font-size="10.00">v8&#45;maybe.h</text>
</a>
</g>
</g>
<!-- Node14&#45;&gt;Node15 -->
<g id="edge24" class="edge">
<title>Node14&#45;&gt;Node15</title>
<path fill="none" stroke="#63b8ff" d="M501.59,-280.22C552.97,-272.34 659.84,-255.73 750,-240.25 751.12,-240.06 752.26,-239.86 753.41,-239.66"/>
<polygon fill="#63b8ff" stroke="#63b8ff" points="753.66,-242.99 762.89,-237.8 752.43,-236.1 753.66,-242.99"/>
</g>
<!-- Node15&#45;&gt;Node5 -->
<g id="edge25" class="edge">
<title>Node15&#45;&gt;Node5</title>
<path fill="none" stroke="#63b8ff" d="M797.69,-220.77C800.2,-188.37 808.94,-75.8 812.49,-30.12"/>
<polygon fill="#63b8ff" stroke="#63b8ff" points="816.04,-30.59 813.32,-20.35 809.06,-30.05 816.04,-30.59"/>
</g>
<!-- Node15&#45;&gt;Node7 -->
<g id="edge27" class="edge">
<title>Node15&#45;&gt;Node7</title>
<path fill="none" stroke="#63b8ff" d="M793.71,-220.55C786.38,-200.5 767.92,-150.95 750,-110.5 746.15,-101.81 741.55,-92.35 737.55,-84.39"/>
<polygon fill="#63b8ff" stroke="#63b8ff" points="740.26,-82.99 732.6,-75.66 734.02,-86.16 740.26,-82.99"/>
</g>
<!-- Node15&#45;&gt;Node11 -->
<g id="edge28" class="edge">
<title>Node15&#45;&gt;Node11</title>
<path fill="none" stroke="#63b8ff" d="M764.1,-226.54C720.81,-221.66 642.96,-210.01 581,-185 476.46,-142.81 367.75,-60.91 324.46,-26.48"/>
<polygon fill="#63b8ff" stroke="#63b8ff" points="327.01,-23.23 317.02,-19.7 322.62,-28.69 327.01,-23.23"/>
</g>
<!-- Node16 -->
<g id="node16" class="node">
<title>Node16</title>
<g id="a_node16"><a xlink:title=" ">
<polygon fill="#e0e0e0" stroke="#999999" points="878.25,-185 839.75,-185 839.75,-165.75 878.25,-165.75 878.25,-185"/>
<text text-anchor="middle" x="859" y="-171.5" font-family="Helvetica,sans-Serif" font-size="10.00">utility</text>
</a>
</g>
</g>
<!-- Node15&#45;&gt;Node16 -->
<g id="edge26" class="edge">
<title>Node15&#45;&gt;Node16</title>
<path fill="none" stroke="#63b8ff" d="M807.52,-220.59C816.48,-212.9 829.57,-201.65 840.31,-192.43"/>
<polygon fill="#63b8ff" stroke="#63b8ff" points="842.33,-194.45 847.64,-185.27 837.77,-189.14 842.33,-194.45"/>
</g>
<!-- Node17&#45;&gt;Node4 -->
<g id="edge34" class="edge">
<title>Node17&#45;&gt;Node4</title>
<path fill="none" stroke="#63b8ff" d="M532.83,-54.84C550.21,-46.5 576.28,-34 596.26,-24.41"/>
<polygon fill="#63b8ff" stroke="#63b8ff" points="597.58,-27.18 605.08,-19.7 594.55,-20.87 597.58,-27.18"/>
</g>
<!-- Node17&#45;&gt;Node11 -->
<g id="edge35" class="edge">
<title>Node17&#45;&gt;Node11</title>
<path fill="none" stroke="#63b8ff" d="M478.55,-54.84C441.71,-45.46 384.17,-30.8 345.55,-20.96"/>
<polygon fill="#63b8ff" stroke="#63b8ff" points="346.75,-17.39 336.19,-18.32 345.02,-24.18 346.75,-17.39"/>
</g>
<!-- Node18&#45;&gt;Node3 -->
<g id="edge37" class="edge">
<title>Node18&#45;&gt;Node3</title>
<path fill="none" stroke="#63b8ff" d="M487.71,-386.43C499.85,-366.21 525.85,-315.67 510,-276.25 495.33,-239.77 460.25,-209.15 436.81,-191.79"/>
<polygon fill="#63b8ff" stroke="#63b8ff" points="439.03,-188.36 428.86,-185.38 434.96,-194.05 439.03,-188.36"/>
</g>
<!-- Node18&#45;&gt;Node11 -->
<g id="edge59" class="edge">
<title>Node18&#45;&gt;Node11</title>
<path fill="none" stroke="#63b8ff" d="M449.96,-393.15C354.41,-384.61 78,-345.31 78,-176.38 78,-176.38 78,-176.38 78,-119.12 78,-37.57 198.73,-17.26 264.1,-12.24"/>
<polygon fill="#63b8ff" stroke="#63b8ff" points="264.11,-15.68 273.86,-11.52 263.64,-8.7 264.11,-15.68"/>
</g>
<!-- Node18&#45;&gt;Node13 -->
<g id="edge45" class="edge">
<title>Node18&#45;&gt;Node13</title>
<path fill="none" stroke="#63b8ff" d="M451.8,-386.34C422.27,-377.51 377.09,-363.99 344.46,-354.23"/>
<polygon fill="#63b8ff" stroke="#63b8ff" points="345.93,-350.72 335.34,-351.2 343.92,-357.42 345.93,-350.72"/>
</g>
<!-- Node18&#45;&gt;Node14 -->
<g id="edge58" class="edge">
<title>Node18&#45;&gt;Node14</title>
<path fill="none" stroke="#63b8ff" d="M481.1,-386.5C479.34,-369.17 475.42,-330.48 473.01,-306.74"/>
<polygon fill="#63b8ff" stroke="#63b8ff" points="476.4,-306.47 471.91,-296.88 469.44,-307.18 476.4,-306.47"/>
</g>
<!-- Node18&#45;&gt;Node15 -->
<g id="edge38" class="edge">
<title>Node18&#45;&gt;Node15</title>
<path fill="none" stroke="#63b8ff" d="M499.38,-386.34C551.55,-359.22 707.04,-278.39 770.04,-245.64"/>
<polygon fill="#63b8ff" stroke="#63b8ff" points="771.41,-248.35 778.67,-240.63 768.18,-242.14 771.41,-248.35"/>
</g>
<!-- Node19 -->
<g id="node19" class="node">
<title>Node19</title>
<g id="a_node19"><a xlink:href="v8-persistent-handle_8h.html" target="_top" xlink:title=" ">
<polygon fill="white" stroke="#666666" points="653.62,-240.25 542.38,-240.25 542.38,-221 653.62,-221 653.62,-240.25"/>
<text text-anchor="middle" x="598" y="-226.75" font-family="Helvetica,sans-Serif" font-size="10.00">v8&#45;persistent&#45;handle.h</text>
</a>
</g>
</g>
<!-- Node18&#45;&gt;Node19 -->
<g id="edge39" class="edge">
<title>Node18&#45;&gt;Node19</title>
<path fill="none" stroke="#63b8ff" d="M498.84,-386.27C512.23,-378.35 530.7,-365.78 543,-350.75 568.16,-320.01 584.56,-275.87 592.47,-250.86"/>
<polygon fill="#63b8ff" stroke="#63b8ff" points="596.04,-252.12 595.58,-241.54 589.34,-250.1 596.04,-252.12"/>
</g>
<!-- Node21 -->
<g id="node21" class="node">
<title>Node21</title>
<g id="a_node21"><a xlink:href="v8-traced-handle_8h.html" target="_top" xlink:title=" ">
<polygon fill="white" stroke="#666666" points="1010.75,-240.25 915.25,-240.25 915.25,-221 1010.75,-221 1010.75,-240.25"/>
<text text-anchor="middle" x="963" y="-226.75" font-family="Helvetica,sans-Serif" font-size="10.00">v8&#45;traced&#45;handle.h</text>
</a>
</g>
</g>
<!-- Node18&#45;&gt;Node21 -->
<g id="edge46" class="edge">
<title>Node18&#45;&gt;Node21</title>
<path fill="none" stroke="#63b8ff" d="M508.55,-386.34C589.34,-358.83 832.44,-276.07 925.87,-244.27"/>
<polygon fill="#63b8ff" stroke="#63b8ff" points="926.9,-247.27 935.24,-240.73 924.65,-240.64 926.9,-247.27"/>
</g>
<!-- Node19&#45;&gt;Node3 -->
<g id="edge41" class="edge">
<title>Node19&#45;&gt;Node3</title>
<path fill="none" stroke="#63b8ff" d="M566.79,-220.59C536.26,-211.76 489.56,-198.24 455.83,-188.48"/>
<polygon fill="#63b8ff" stroke="#63b8ff" points="456.95,-184.87 446.37,-185.45 455,-191.59 456.95,-184.87"/>
</g>
<!-- Node19&#45;&gt;Node7 -->
<g id="edge40" class="edge">
<title>Node19&#45;&gt;Node7</title>
<path fill="none" stroke="#63b8ff" d="M591.7,-220.83C583.36,-208 570.82,-183.72 581,-165.75 596.32,-138.69 615.1,-146.97 641,-129.75 664.43,-114.17 690.32,-94.88 707.71,-81.6"/>
<polygon fill="#63b8ff" stroke="#63b8ff" points="709.63,-83.77 715.43,-74.91 705.36,-78.22 709.63,-83.77"/>
</g>
<!-- Node19&#45;&gt;Node11 -->
<g id="edge44" class="edge">
<title>Node19&#45;&gt;Node11</title>
<path fill="none" stroke="#63b8ff" d="M579.87,-220.53C554.68,-207.96 507.6,-184.66 467,-165.75 431.29,-149.11 416.23,-155.01 386,-129.75 351.91,-101.27 326.13,-54.96 313.54,-29.28"/>
<polygon fill="#63b8ff" stroke="#63b8ff" points="316.42,-28.18 308.97,-20.64 310.09,-31.18 316.42,-28.18"/>
</g>
<!-- Node20 -->
<g id="node20" class="node">
<title>Node20</title>
<g id="a_node20"><a xlink:href="v8-weak-callback-info_8h.html" target="_top" xlink:title=" ">
<polygon fill="white" stroke="#666666" points="708,-185 590,-185 590,-165.75 708,-165.75 708,-185"/>
<text text-anchor="middle" x="649" y="-171.5" font-family="Helvetica,sans-Serif" font-size="10.00">v8&#45;weak&#45;callback&#45;info.h</text>
</a>
</g>
</g>
<!-- Node19&#45;&gt;Node20 -->
<g id="edge42" class="edge">
<title>Node19&#45;&gt;Node20</title>
<path fill="none" stroke="#63b8ff" d="M606.42,-220.83C613.61,-213.32 624.16,-202.31 632.95,-193.13"/>
<polygon fill="#63b8ff" stroke="#63b8ff" points="635.01,-196 639.4,-186.36 629.95,-191.16 635.01,-196"/>
</g>
<!-- Node20&#45;&gt;Node11 -->
<g id="edge43" class="edge">
<title>Node20&#45;&gt;Node11</title>
<path fill="none" stroke="#63b8ff" d="M621.17,-165.36C597.27,-157.22 562.15,-144.31 533,-129.75 477.18,-101.86 469.52,-83.73 414,-55.25 390.23,-43.06 362.34,-31.69 340.72,-23.48"/>
<polygon fill="#63b8ff" stroke="#63b8ff" points="342.25,-19.94 331.66,-19.71 339.8,-26.5 342.25,-19.94"/>
</g>
<!-- Node21&#45;&gt;Node3 -->
<g id="edge55" class="edge">
<title>Node21&#45;&gt;Node3</title>
<path fill="none" stroke="#63b8ff" d="M914.76,-224.95C813.07,-215.08 577.22,-192.21 469.48,-181.76"/>
<polygon fill="#63b8ff" stroke="#63b8ff" points="470.14,-178.21 459.85,-180.72 469.46,-185.17 470.14,-178.21"/>
</g>
<!-- Node21&#45;&gt;Node4 -->
<g id="edge47" class="edge">
<title>Node21&#45;&gt;Node4</title>
<path fill="none" stroke="#63b8ff" d="M961.79,-220.59C959.67,-207.46 954.27,-182.81 942,-165.75 918.03,-132.43 902.34,-132.98 868,-110.5 826.49,-83.33 816.56,-74.9 771,-55.25 734.69,-39.59 691.12,-27.03 661.08,-19.27"/>
<polygon fill="#63b8ff" stroke="#63b8ff" points="662.22,-15.69 651.67,-16.63 660.5,-22.48 662.22,-15.69"/>
</g>
<!-- Node21&#45;&gt;Node5 -->
<g id="edge52" class="edge">
<title>Node21&#45;&gt;Node5</title>
<path fill="none" stroke="#63b8ff" d="M1010.2,-220.59C1044.75,-211.46 1083.3,-194.51 1069,-165.75 1026.99,-81.27 915.75,-38.49 855.01,-20.83"/>
<polygon fill="#63b8ff" stroke="#63b8ff" points="856.21,-17.25 845.64,-17.92 854.32,-23.99 856.21,-17.25"/>
</g>
<!-- Node21&#45;&gt;Node7 -->
<g id="edge54" class="edge">
<title>Node21&#45;&gt;Node7</title>
<path fill="none" stroke="#63b8ff" d="M958.85,-220.76C952.22,-207.4 938.15,-181.96 920,-165.75 873.34,-124.08 806.15,-94.36 764.88,-78.68"/>
<polygon fill="#63b8ff" stroke="#63b8ff" points="766.31,-75.11 755.72,-74.9 763.88,-81.67 766.31,-75.11"/>
</g>
<!-- Node21&#45;&gt;Node8 -->
<g id="edge48" class="edge">
<title>Node21&#45;&gt;Node8</title>
<path fill="none" stroke="#63b8ff" d="M1010.99,-226.05C1065.53,-220.88 1149.53,-209.14 1169,-185 1217.63,-124.7 1105.86,-54.09 1051.52,-24.63"/>
<polygon fill="#63b8ff" stroke="#63b8ff" points="1053.56,-21.22 1043.09,-19.62 1050.28,-27.41 1053.56,-21.22"/>
</g>
<!-- Node21&#45;&gt;Node10 -->
<g id="edge50" class="edge">
<title>Node21&#45;&gt;Node10</title>
<path fill="none" stroke="#63b8ff" d="M1011.21,-227.03C1070.52,-222.71 1166.08,-211.7 1188,-185 1225.67,-139.13 1188.9,-63.29 1168.54,-28.76"/>
<polygon fill="#63b8ff" stroke="#63b8ff" points="1171.05,-27.15 1162.85,-20.45 1165.08,-30.8 1171.05,-27.15"/>
</g>
<!-- Node21&#45;&gt;Node11 -->
<g id="edge57" class="edge">
<title>Node21&#45;&gt;Node11</title>
<path fill="none" stroke="#63b8ff" d="M954.45,-220.59C941.17,-207.01 914.26,-181.27 887,-165.75 702.6,-60.74 444.84,-24.74 345.89,-14.32"/>
<polygon fill="#63b8ff" stroke="#63b8ff" points="346.48,-10.76 336.17,-13.23 345.77,-17.73 346.48,-10.76"/>
</g>
<!-- Node21&#45;&gt;Node16 -->
<g id="edge53" class="edge">
<title>Node21&#45;&gt;Node16</title>
<path fill="none" stroke="#63b8ff" d="M945.36,-220.59C929.22,-212.33 905.1,-199.98 886.44,-190.43"/>
<polygon fill="#63b8ff" stroke="#63b8ff" points="888.22,-186.89 877.73,-185.45 885.03,-193.13 888.22,-186.89"/>
</g>
<!-- Node21&#45;&gt;Node20 -->
<g id="edge56" class="edge">
<title>Node21&#45;&gt;Node20</title>
<path fill="none" stroke="#63b8ff" d="M914.97,-221.48C861.03,-212.33 773.23,-197.44 713.38,-187.29"/>
<polygon fill="#63b8ff" stroke="#63b8ff" points="713.99,-183.68 703.55,-185.46 712.82,-190.58 713.99,-183.68"/>
</g>
<!-- Node22 -->
<g id="node22" class="node">
<title>Node22</title>
<g id="a_node22"><a xlink:title=" ">
<polygon fill="#e0e0e0" stroke="#999999" points="1160.25,-185 1115.75,-185 1115.75,-165.75 1160.25,-165.75 1160.25,-185"/>
<text text-anchor="middle" x="1138" y="-171.5" font-family="Helvetica,sans-Serif" font-size="10.00">stdio.h</text>
</a>
</g>
</g>
<!-- Node21&#45;&gt;Node22 -->
<g id="edge49" class="edge">
<title>Node21&#45;&gt;Node22</title>
<path fill="none" stroke="#63b8ff" d="M992.69,-220.59C1023.88,-211.1 1072.81,-196.21 1105.14,-186.37"/>
<polygon fill="#63b8ff" stroke="#63b8ff" points="1105.87,-189.51 1114.42,-183.25 1103.83,-182.81 1105.87,-189.51"/>
</g>
<!-- Node23 -->
<g id="node23" class="node">
<title>Node23</title>
<g id="a_node23"><a xlink:title=" ">
<polygon fill="#e0e0e0" stroke="#999999" points="1060.25,-185 1009.75,-185 1009.75,-165.75 1060.25,-165.75 1060.25,-185"/>
<text text-anchor="middle" x="1035" y="-171.5" font-family="Helvetica,sans-Serif" font-size="10.00">memory</text>
</a>
</g>
</g>
<!-- Node21&#45;&gt;Node23 -->
<g id="edge51" class="edge">
<title>Node21&#45;&gt;Node23</title>
<path fill="none" stroke="#63b8ff" d="M975.21,-220.59C985.93,-212.66 1001.74,-200.97 1014.41,-191.6"/>
<polygon fill="#63b8ff" stroke="#63b8ff" points="1016.01,-194.04 1021.97,-185.27 1011.85,-188.41 1016.01,-194.04"/>
</g>
</g>
</svg>
