<?xml version="1.0" encoding="UTF-8" standalone="no"?>
<!DOCTYPE svg PUBLIC "-//W3C//DTD SVG 1.1//EN"
 "http://www.w3.org/Graphics/SVG/1.1/DTD/svg11.dtd">
<!-- Generated by graphviz version 8.0.5 (20230430.1635)
 -->
<!-- Title: v8::PersistentValueMapBase::~PersistentValueMapBase Pages: 1 -->
<svg width="657pt" height="131pt"
 viewBox="0.00 0.00 657.00 130.50" xmlns="http://www.w3.org/2000/svg" xmlns:xlink="http://www.w3.org/1999/xlink">
<g id="graph0" class="graph" transform="scale(1 1) rotate(0) translate(4 126.5)">
<title>v8::PersistentValueMapBase::~PersistentValueMapBase</title>
<!-- Node1 -->
<g id="node1" class="node">
<title>Node1</title>
<g id="a_node1"><a xlink:title=" ">
<polygon fill="#999999" stroke="#666666" points="141.25,-97.5 0,-97.5 0,-67 141.25,-67 141.25,-97.5"/>
<text text-anchor="start" x="8" y="-84" font-family="Helvetica,sans-Serif" font-size="10.00">v8::PersistentValueMapBase</text>
<text text-anchor="middle" x="70.62" y="-72.75" font-family="Helvetica,sans-Serif" font-size="10.00">::~PersistentValueMapBase</text>
</a>
</g>
</g>
<!-- Node2 -->
<g id="node2" class="node">
<title>Node2</title>
<g id="a_node2"><a xlink:href="classv8_1_1PersistentValueMapBase.html#a1bf074e7a7c24713c9a3d40ddce89e74" target="_top" xlink:title=" ">
<polygon fill="white" stroke="#666666" points="318.5,-97.5 177.25,-97.5 177.25,-67 318.5,-67 318.5,-97.5"/>
<text text-anchor="start" x="185.25" y="-84" font-family="Helvetica,sans-Serif" font-size="10.00">v8::PersistentValueMapBase</text>
<text text-anchor="middle" x="247.88" y="-72.75" font-family="Helvetica,sans-Serif" font-size="10.00">::Clear</text>
</a>
</g>
</g>
<!-- Node1&#45;&gt;Node2 -->
<g id="edge1" class="edge">
<title>Node1&#45;&gt;Node2</title>
<path fill="none" stroke="#63b8ff" d="M141.64,-82.25C149.73,-82.25 158.03,-82.25 166.24,-82.25"/>
<polygon fill="#63b8ff" stroke="#63b8ff" points="165.97,-85.75 175.97,-82.25 165.97,-78.75 165.97,-85.75"/>
</g>
<!-- Node3 -->
<g id="node3" class="node">
<title>Node3</title>
<g id="a_node3"><a xlink:href="classv8_1_1PersistentValueMapBase.html#a149e5b7f40fa52dc9b379342ac802d94" target="_top" xlink:title=" ">
<polygon fill="white" stroke="#666666" points="495.75,-122.5 354.5,-122.5 354.5,-92 495.75,-92 495.75,-122.5"/>
<text text-anchor="start" x="362.5" y="-109" font-family="Helvetica,sans-Serif" font-size="10.00">v8::PersistentValueMapBase</text>
<text text-anchor="middle" x="425.12" y="-97.75" font-family="Helvetica,sans-Serif" font-size="10.00">::impl</text>
</a>
</g>
</g>
<!-- Node2&#45;&gt;Node3 -->
<g id="edge2" class="edge">
<title>Node2&#45;&gt;Node3</title>
<path fill="none" stroke="#63b8ff" d="M318.89,-92.24C326.98,-93.39 335.28,-94.58 343.49,-95.75"/>
<polygon fill="#63b8ff" stroke="#63b8ff" points="342.82,-99.33 353.22,-97.28 343.81,-92.4 342.82,-99.33"/>
</g>
<!-- Node4 -->
<g id="node4" class="node">
<title>Node4</title>
<g id="a_node4"><a xlink:href="classv8_1_1PersistentValueMapBase.html#aea9af944a2bd71a3b6abd2a2e57788f1" target="_top" xlink:title=" ">
<polygon fill="white" stroke="#666666" points="495.75,-73.5 354.5,-73.5 354.5,-43 495.75,-43 495.75,-73.5"/>
<text text-anchor="start" x="362.5" y="-60" font-family="Helvetica,sans-Serif" font-size="10.00">v8::PersistentValueMapBase</text>
<text text-anchor="middle" x="425.12" y="-48.75" font-family="Helvetica,sans-Serif" font-size="10.00">::Release</text>
</a>
</g>
</g>
<!-- Node2&#45;&gt;Node4 -->
<g id="edge3" class="edge">
<title>Node2&#45;&gt;Node4</title>
<path fill="none" stroke="#63b8ff" d="M318.89,-72.66C326.98,-71.55 335.28,-70.42 343.49,-69.29"/>
<polygon fill="#63b8ff" stroke="#63b8ff" points="343.78,-72.65 353.22,-67.82 342.83,-65.71 343.78,-72.65"/>
</g>
<!-- Node5 -->
<g id="node5" class="node">
<title>Node5</title>
<g id="a_node5"><a xlink:href="classv8_1_1PersistentBase.html#a479c7b146da083aa608e133a7dec79f9" target="_top" xlink:title=" ">
<polygon fill="white" stroke="#666666" points="639.25,-116.5 541.5,-116.5 541.5,-86 639.25,-86 639.25,-116.5"/>
<text text-anchor="start" x="549.5" y="-103" font-family="Helvetica,sans-Serif" font-size="10.00">v8::PersistentBase</text>
<text text-anchor="middle" x="590.38" y="-91.75" font-family="Helvetica,sans-Serif" font-size="10.00">::IsWeak</text>
</a>
</g>
</g>
<!-- Node4&#45;&gt;Node5 -->
<g id="edge4" class="edge">
<title>Node4&#45;&gt;Node5</title>
<path fill="none" stroke="#63b8ff" d="M485.52,-73.9C500.27,-77.78 516.06,-81.94 530.77,-85.81"/>
<polygon fill="#63b8ff" stroke="#63b8ff" points="529.69,-89.41 540.26,-88.58 531.48,-82.64 529.69,-89.41"/>
</g>
<!-- Node6 -->
<g id="node6" class="node">
<title>Node6</title>
<g id="a_node6"><a xlink:href="classv8_1_1Global.html#a914903149cc752468d4a3a11b6089c7e" target="_top" xlink:title=" ">
<polygon fill="white" stroke="#666666" points="633.25,-67.88 547.5,-67.88 547.5,-48.62 633.25,-48.62 633.25,-67.88"/>
<text text-anchor="middle" x="590.38" y="-54.38" font-family="Helvetica,sans-Serif" font-size="10.00">v8::Global::Pass</text>
</a>
</g>
</g>
<!-- Node4&#45;&gt;Node6 -->
<g id="edge5" class="edge">
<title>Node4&#45;&gt;Node6</title>
<path fill="none" stroke="#63b8ff" d="M495.83,-58.25C509.51,-58.25 523.64,-58.25 536.65,-58.25"/>
<polygon fill="#63b8ff" stroke="#63b8ff" points="536.28,-61.75 546.28,-58.25 536.28,-54.75 536.28,-61.75"/>
</g>
<!-- Node7 -->
<g id="node7" class="node">
<title>Node7</title>
<g id="a_node7"><a xlink:href="classv8_1_1api__internal_1_1IndirectHandleBase.html#a6d57129edaf800a385036b628efbdbde" target="_top" xlink:title=" ">
<polygon fill="white" stroke="#666666" points="649,-30.5 531.75,-30.5 531.75,0 649,0 649,-30.5"/>
<text text-anchor="start" x="539.75" y="-17" font-family="Helvetica,sans-Serif" font-size="10.00">v8::api_internal::Indirect</text>
<text text-anchor="middle" x="590.38" y="-5.75" font-family="Helvetica,sans-Serif" font-size="10.00">HandleBase::slot</text>
</a>
</g>
</g>
<!-- Node4&#45;&gt;Node7 -->
<g id="edge6" class="edge">
<title>Node4&#45;&gt;Node7</title>
<path fill="none" stroke="#63b8ff" d="M485.52,-42.6C496.97,-39.59 509.05,-36.41 520.76,-33.32"/>
<polygon fill="#63b8ff" stroke="#63b8ff" points="521.61,-36.46 530.38,-30.52 519.82,-29.69 521.61,-36.46"/>
</g>
</g>
</svg>
