<?xml version="1.0" encoding="UTF-8" standalone="no"?>
<!DOCTYPE svg PUBLIC "-//W3C//DTD SVG 1.1//EN"
 "http://www.w3.org/Graphics/SVG/1.1/DTD/svg11.dtd">
<!-- Generated by graphviz version 8.0.5 (20230430.1635)
 -->
<!-- Title: v8::PersistentBase::operator!= Pages: 1 -->
<svg width="402pt" height="39pt"
 viewBox="0.00 0.00 401.75 38.50" xmlns="http://www.w3.org/2000/svg" xmlns:xlink="http://www.w3.org/1999/xlink">
<g id="graph0" class="graph" transform="scale(1 1) rotate(0) translate(4 34.5)">
<title>v8::PersistentBase::operator!=</title>
<!-- Node1 -->
<g id="node1" class="node">
<title>Node1</title>
<g id="a_node1"><a xlink:title=" ">
<polygon fill="#999999" stroke="#666666" points="97.75,-30.5 0,-30.5 0,0 97.75,0 97.75,-30.5"/>
<text text-anchor="start" x="8" y="-17" font-family="Helvetica,sans-Serif" font-size="10.00">v8::PersistentBase</text>
<text text-anchor="middle" x="48.88" y="-5.75" font-family="Helvetica,sans-Serif" font-size="10.00">::operator!=</text>
</a>
</g>
</g>
<!-- Node2 -->
<g id="node2" class="node">
<title>Node2</title>
<g id="a_node2"><a xlink:href="classv8_1_1PersistentBase.html#ab7440113aa5b002c5c19c6dea81c99c9" target="_top" xlink:title=" ">
<polygon fill="white" stroke="#666666" points="231.5,-30.5 133.75,-30.5 133.75,0 231.5,0 231.5,-30.5"/>
<text text-anchor="start" x="141.75" y="-17" font-family="Helvetica,sans-Serif" font-size="10.00">v8::PersistentBase</text>
<text text-anchor="middle" x="182.62" y="-5.75" font-family="Helvetica,sans-Serif" font-size="10.00">::operator==</text>
</a>
</g>
</g>
<!-- Node1&#45;&gt;Node2 -->
<g id="edge1" class="edge">
<title>Node1&#45;&gt;Node2</title>
<path fill="none" stroke="#63b8ff" d="M98.19,-15.25C106.06,-15.25 114.3,-15.25 122.4,-15.25"/>
<polygon fill="#63b8ff" stroke="#63b8ff" points="122.32,-18.75 132.32,-15.25 122.32,-11.75 122.32,-18.75"/>
</g>
<!-- Node3 -->
<g id="node3" class="node">
<title>Node3</title>
<g id="a_node3"><a xlink:href="classv8_1_1internal_1_1HandleHelper.html#a2b1d94d348e4f2f61d99d0b86b21f465" target="_top" xlink:title=" ">
<polygon fill="white" stroke="#666666" points="393.75,-30.5 267.5,-30.5 267.5,0 393.75,0 393.75,-30.5"/>
<text text-anchor="start" x="275.5" y="-17" font-family="Helvetica,sans-Serif" font-size="10.00">v8::internal::HandleHelper</text>
<text text-anchor="middle" x="330.62" y="-5.75" font-family="Helvetica,sans-Serif" font-size="10.00">::EqualHandles</text>
</a>
</g>
</g>
<!-- Node2&#45;&gt;Node3 -->
<g id="edge2" class="edge">
<title>Node2&#45;&gt;Node3</title>
<path fill="none" stroke="#63b8ff" d="M231.84,-15.25C239.69,-15.25 247.98,-15.25 256.27,-15.25"/>
<polygon fill="#63b8ff" stroke="#63b8ff" points="256.15,-18.75 266.15,-15.25 256.15,-11.75 256.15,-18.75"/>
</g>
</g>
</svg>
