<?xml version="1.0" encoding="UTF-8" standalone="no"?>
<!DOCTYPE svg PUBLIC "-//W3C//DTD SVG 1.1//EN"
 "http://www.w3.org/Graphics/SVG/1.1/DTD/svg11.dtd">
<!-- Generated by graphviz version 8.0.5 (20230430.1635)
 -->
<!-- Title: include/v8&#45;weak&#45;callback&#45;info.h Pages: 1 -->
<svg width="134pt" height="149pt"
 viewBox="0.00 0.00 133.50 149.00" xmlns="http://www.w3.org/2000/svg" xmlns:xlink="http://www.w3.org/1999/xlink">
<g id="graph0" class="graph" transform="scale(1 1) rotate(0) translate(4 145)">
<title>include/v8&#45;weak&#45;callback&#45;info.h</title>
<!-- Node1 -->
<g id="node1" class="node">
<title>Node1</title>
<g id="a_node1"><a xlink:title=" ">
<polygon fill="#999999" stroke="#666666" points="125.5,-141 0,-141 0,-110.5 125.5,-110.5 125.5,-141"/>
<text text-anchor="start" x="8" y="-127.5" font-family="Helvetica,sans-Serif" font-size="10.00">include/v8&#45;weak&#45;callback</text>
<text text-anchor="middle" x="62.75" y="-116.25" font-family="Helvetica,sans-Serif" font-size="10.00">&#45;info.h</text>
</a>
</g>
</g>
<!-- Node2 -->
<g id="node2" class="node">
<title>Node2</title>
<g id="a_node2"><a xlink:href="v8config_8h.html" target="_top" xlink:title=" ">
<polygon fill="white" stroke="#666666" points="92.5,-74.5 33,-74.5 33,-55.25 92.5,-55.25 92.5,-74.5"/>
<text text-anchor="middle" x="62.75" y="-61" font-family="Helvetica,sans-Serif" font-size="10.00">v8config.h</text>
</a>
</g>
</g>
<!-- Node1&#45;&gt;Node2 -->
<g id="edge1" class="edge">
<title>Node1&#45;&gt;Node2</title>
<path fill="none" stroke="#63b8ff" d="M62.75,-110.2C62.75,-102.87 62.75,-93.87 62.75,-85.91"/>
<polygon fill="#63b8ff" stroke="#63b8ff" points="66.25,-85.95 62.75,-75.95 59.25,-85.95 66.25,-85.95"/>
</g>
<!-- Node3 -->
<g id="node3" class="node">
<title>Node3</title>
<g id="a_node3"><a xlink:title=" ">
<polygon fill="#e0e0e0" stroke="#999999" points="88,-19.25 37.5,-19.25 37.5,0 88,0 88,-19.25"/>
<text text-anchor="middle" x="62.75" y="-5.75" font-family="Helvetica,sans-Serif" font-size="10.00">memory</text>
</a>
</g>
</g>
<!-- Node2&#45;&gt;Node3 -->
<g id="edge2" class="edge">
<title>Node2&#45;&gt;Node3</title>
<path fill="none" stroke="#63b8ff" d="M62.75,-55.08C62.75,-48.42 62.75,-38.99 62.75,-30.53"/>
<polygon fill="#63b8ff" stroke="#63b8ff" points="66.25,-30.61 62.75,-20.61 59.25,-30.61 66.25,-30.61"/>
</g>
</g>
</svg>
