<?xml version="1.0" encoding="UTF-8" standalone="no"?>
<!DOCTYPE svg PUBLIC "-//W3C//DTD SVG 1.1//EN"
 "http://www.w3.org/Graphics/SVG/1.1/DTD/svg11.dtd">
<!-- Generated by graphviz version 8.0.5 (20230430.1635)
 -->
<!-- Title: v8::PersistentBase::Reset Pages: 1 -->
<svg width="240pt" height="76pt"
 viewBox="0.00 0.00 239.50 75.88" xmlns="http://www.w3.org/2000/svg" xmlns:xlink="http://www.w3.org/1999/xlink">
<g id="graph0" class="graph" transform="scale(1 1) rotate(0) translate(4 71.88)">
<title>v8::PersistentBase::Reset</title>
<!-- Node1 -->
<g id="node1" class="node">
<title>Node1</title>
<g id="a_node1"><a xlink:title=" ">
<polygon fill="#999999" stroke="#666666" points="97.75,-45.88 0,-45.88 0,-15.37 97.75,-15.37 97.75,-45.88"/>
<text text-anchor="start" x="8" y="-32.38" font-family="Helvetica,sans-Serif" font-size="10.00">v8::PersistentBase</text>
<text text-anchor="middle" x="48.88" y="-21.12" font-family="Helvetica,sans-Serif" font-size="10.00">::Reset</text>
</a>
</g>
</g>
<!-- Node2 -->
<g id="node2" class="node">
<title>Node2</title>
<g id="a_node2"><a xlink:href="classv8_1_1PersistentBase.html#ac351d0d9e9973cc7809624f354ad8f2b" target="_top" xlink:title=" ">
<polygon fill="white" stroke="#666666" points="231.5,-67.88 133.75,-67.88 133.75,-37.38 231.5,-37.38 231.5,-67.88"/>
<text text-anchor="start" x="141.75" y="-54.38" font-family="Helvetica,sans-Serif" font-size="10.00">v8::PersistentBase</text>
<text text-anchor="middle" x="182.62" y="-43.12" font-family="Helvetica,sans-Serif" font-size="10.00">::IsEmpty</text>
</a>
</g>
</g>
<!-- Node1&#45;&gt;Node2 -->
<g id="edge1" class="edge">
<title>Node1&#45;&gt;Node2</title>
<path fill="none" stroke="#63b8ff" d="M98.19,-38.69C106.15,-40.02 114.49,-41.41 122.68,-42.78"/>
<polygon fill="#63b8ff" stroke="#63b8ff" points="121.88,-46.36 132.32,-44.56 123.03,-39.46 121.88,-46.36"/>
</g>
<!-- Node3 -->
<g id="node3" class="node">
<title>Node3</title>
<g id="a_node3"><a xlink:href="classv8_1_1Object.html#ac1bb26c7d4e43f43fd26024bfd9dee76" target="_top" xlink:title=" ">
<polygon fill="white" stroke="#666666" points="224.75,-19.25 140.5,-19.25 140.5,0 224.75,0 224.75,-19.25"/>
<text text-anchor="middle" x="182.62" y="-5.75" font-family="Helvetica,sans-Serif" font-size="10.00">v8::Object::New</text>
</a>
</g>
</g>
<!-- Node1&#45;&gt;Node3 -->
<g id="edge2" class="edge">
<title>Node1&#45;&gt;Node3</title>
<path fill="none" stroke="#63b8ff" d="M98.19,-22.92C108.43,-21.29 119.29,-19.56 129.67,-17.91"/>
<polygon fill="#63b8ff" stroke="#63b8ff" points="129.94,-21.25 139.26,-16.22 128.83,-14.34 129.94,-21.25"/>
</g>
</g>
</svg>
