<?xml version="1.0" encoding="UTF-8" standalone="no"?>
<!DOCTYPE svg PUBLIC "-//W3C//DTD SVG 1.1//EN"
 "http://www.w3.org/Graphics/SVG/1.1/DTD/svg11.dtd">
<!-- Generated by graphviz version 8.0.5 (20230430.1635)
 -->
<!-- Title: include/v8&#45;profiler.h Pages: 1 -->
<svg width="548pt" height="138pt"
 viewBox="0.00 0.00 547.50 137.75" xmlns="http://www.w3.org/2000/svg" xmlns:xlink="http://www.w3.org/1999/xlink">
<g id="graph0" class="graph" transform="scale(1 1) rotate(0) translate(4 133.75)">
<title>include/v8&#45;profiler.h</title>
<!-- Node1 -->
<g id="node1" class="node">
<title>Node1</title>
<g id="a_node1"><a xlink:title=" ">
<polygon fill="#999999" stroke="#666666" points="155.38,-129.75 56.12,-129.75 56.12,-110.5 155.38,-110.5 155.38,-129.75"/>
<text text-anchor="middle" x="105.75" y="-116.25" font-family="Helvetica,sans-Serif" font-size="10.00">include/v8&#45;profiler.h</text>
</a>
</g>
</g>
<!-- Node2 -->
<g id="node2" class="node">
<title>Node2</title>
<g id="a_node2"><a xlink:title=" ">
<polygon fill="#e0e0e0" stroke="#999999" points="77.5,-74.5 0,-74.5 0,-55.25 77.5,-55.25 77.5,-74.5"/>
<text text-anchor="middle" x="38.75" y="-61" font-family="Helvetica,sans-Serif" font-size="10.00">unordered_set</text>
</a>
</g>
</g>
<!-- Node1&#45;&gt;Node2 -->
<g id="edge1" class="edge">
<title>Node1&#45;&gt;Node2</title>
<path fill="none" stroke="#63b8ff" d="M94.38,-110.09C84.51,-102.24 69.98,-90.7 58.25,-81.37"/>
<polygon fill="#63b8ff" stroke="#63b8ff" points="60.95,-78.26 50.95,-74.77 56.6,-83.74 60.95,-78.26"/>
</g>
<!-- Node3 -->
<g id="node3" class="node">
<title>Node3</title>
<g id="a_node3"><a xlink:title=" ">
<polygon fill="#e0e0e0" stroke="#999999" points="52.25,-19.25 9.25,-19.25 9.25,0 52.25,0 52.25,-19.25"/>
<text text-anchor="middle" x="30.75" y="-5.75" font-family="Helvetica,sans-Serif" font-size="10.00">vector</text>
</a>
</g>
</g>
<!-- Node1&#45;&gt;Node3 -->
<g id="edge2" class="edge">
<title>Node1&#45;&gt;Node3</title>
<path fill="none" stroke="#63b8ff" d="M104.8,-110.14C103.06,-97.08 98.4,-72.51 86.75,-55.25 78.79,-43.45 66.75,-33.28 55.88,-25.65"/>
<polygon fill="#63b8ff" stroke="#63b8ff" points="58.02,-22.21 47.75,-19.61 54.16,-28.04 58.02,-22.21"/>
</g>
<!-- Node4 -->
<g id="node4" class="node">
<title>Node4</title>
<g id="a_node4"><a xlink:href="v8_8h.html" target="_top" xlink:title=" ">
<polygon fill="white" stroke="#666666" points="243.75,-74.5 209.75,-74.5 209.75,-55.25 243.75,-55.25 243.75,-74.5"/>
<text text-anchor="middle" x="226.75" y="-61" font-family="Helvetica,sans-Serif" font-size="10.00">v8.h</text>
</a>
</g>
</g>
<!-- Node1&#45;&gt;Node4 -->
<g id="edge3" class="edge">
<title>Node1&#45;&gt;Node4</title>
<path fill="none" stroke="#63b8ff" d="M126.28,-110.09C146.42,-101.23 177.25,-87.66 199.45,-77.89"/>
<polygon fill="#63b8ff" stroke="#63b8ff" points="200.53,-80.8 208.27,-73.57 197.71,-74.39 200.53,-80.8"/>
</g>
<!-- Node4&#45;&gt;Node3 -->
<g id="edge9" class="edge">
<title>Node4&#45;&gt;Node3</title>
<path fill="none" stroke="#63b8ff" d="M209.4,-59.23C180.96,-51.6 122.42,-35.86 62.78,-19.52"/>
<polygon fill="#63b8ff" stroke="#63b8ff" points="63.99,-15.95 53.42,-16.68 62.14,-22.7 63.99,-15.95"/>
</g>
<!-- Node5 -->
<g id="node5" class="node">
<title>Node5</title>
<g id="a_node5"><a xlink:title=" ">
<polygon fill="#e0e0e0" stroke="#999999" points="121,-19.25 70.5,-19.25 70.5,0 121,0 121,-19.25"/>
<text text-anchor="middle" x="95.75" y="-5.75" font-family="Helvetica,sans-Serif" font-size="10.00">stddef.h</text>
</a>
</g>
</g>
<!-- Node4&#45;&gt;Node5 -->
<g id="edge4" class="edge">
<title>Node4&#45;&gt;Node5</title>
<path fill="none" stroke="#63b8ff" d="M209.35,-56.8C188.68,-48.4 153.75,-34.2 128.07,-23.76"/>
<polygon fill="#63b8ff" stroke="#63b8ff" points="129.62,-20.21 119.04,-19.69 126.99,-26.69 129.62,-20.21"/>
</g>
<!-- Node6 -->
<g id="node6" class="node">
<title>Node6</title>
<g id="a_node6"><a xlink:title=" ">
<polygon fill="#e0e0e0" stroke="#999999" points="186.5,-19.25 139,-19.25 139,0 186.5,0 186.5,-19.25"/>
<text text-anchor="middle" x="162.75" y="-5.75" font-family="Helvetica,sans-Serif" font-size="10.00">stdint.h</text>
</a>
</g>
</g>
<!-- Node4&#45;&gt;Node6 -->
<g id="edge5" class="edge">
<title>Node4&#45;&gt;Node6</title>
<path fill="none" stroke="#63b8ff" d="M215.89,-54.84C206.55,-47.07 192.86,-35.67 181.71,-26.4"/>
<polygon fill="#63b8ff" stroke="#63b8ff" points="184.37,-23.23 174.45,-19.52 179.89,-28.61 184.37,-23.23"/>
</g>
<!-- Node7 -->
<g id="node7" class="node">
<title>Node7</title>
<g id="a_node7"><a xlink:title=" ">
<polygon fill="#e0e0e0" stroke="#999999" points="249,-19.25 204.5,-19.25 204.5,0 249,0 249,-19.25"/>
<text text-anchor="middle" x="226.75" y="-5.75" font-family="Helvetica,sans-Serif" font-size="10.00">stdio.h</text>
</a>
</g>
</g>
<!-- Node4&#45;&gt;Node7 -->
<g id="edge6" class="edge">
<title>Node4&#45;&gt;Node7</title>
<path fill="none" stroke="#63b8ff" d="M226.75,-55.08C226.75,-48.42 226.75,-38.99 226.75,-30.53"/>
<polygon fill="#63b8ff" stroke="#63b8ff" points="230.25,-30.61 226.75,-20.61 223.25,-30.61 230.25,-30.61"/>
</g>
<!-- Node8 -->
<g id="node8" class="node">
<title>Node8</title>
<g id="a_node8"><a xlink:title=" ">
<polygon fill="#e0e0e0" stroke="#999999" points="318,-19.25 267.5,-19.25 267.5,0 318,0 318,-19.25"/>
<text text-anchor="middle" x="292.75" y="-5.75" font-family="Helvetica,sans-Serif" font-size="10.00">memory</text>
</a>
</g>
</g>
<!-- Node4&#45;&gt;Node8 -->
<g id="edge7" class="edge">
<title>Node4&#45;&gt;Node8</title>
<path fill="none" stroke="#63b8ff" d="M237.95,-54.84C247.58,-47.07 261.7,-35.67 273.2,-26.4"/>
<polygon fill="#63b8ff" stroke="#63b8ff" points="275.13,-28.53 280.72,-19.52 270.74,-23.08 275.13,-28.53"/>
</g>
<!-- Node9 -->
<g id="node9" class="node">
<title>Node9</title>
<g id="a_node9"><a xlink:title=" ">
<polygon fill="#e0e0e0" stroke="#999999" points="375,-19.25 336.5,-19.25 336.5,0 375,0 375,-19.25"/>
<text text-anchor="middle" x="355.75" y="-5.75" font-family="Helvetica,sans-Serif" font-size="10.00">utility</text>
</a>
</g>
</g>
<!-- Node4&#45;&gt;Node9 -->
<g id="edge8" class="edge">
<title>Node4&#45;&gt;Node9</title>
<path fill="none" stroke="#63b8ff" d="M244.15,-56.69C265.09,-48.05 300.6,-33.39 325.94,-22.93"/>
<polygon fill="#63b8ff" stroke="#63b8ff" points="327.19,-25.79 335.1,-18.74 324.52,-19.32 327.19,-25.79"/>
</g>
<!-- Node10 -->
<g id="node10" class="node">
<title>Node10</title>
<g id="a_node10"><a xlink:href="v8-version_8h.html" target="_top" xlink:title=" ">
<polygon fill="white" stroke="#666666" points="462,-19.25 393.5,-19.25 393.5,0 462,0 462,-19.25"/>
<text text-anchor="middle" x="427.75" y="-5.75" font-family="Helvetica,sans-Serif" font-size="10.00">v8&#45;version.h</text>
</a>
</g>
</g>
<!-- Node4&#45;&gt;Node10 -->
<g id="edge10" class="edge">
<title>Node4&#45;&gt;Node10</title>
<path fill="none" stroke="#63b8ff" d="M244.24,-59.24C274.94,-51.11 339.44,-34.02 383.19,-22.43"/>
<polygon fill="#63b8ff" stroke="#63b8ff" points="383.79,-25.63 392.56,-19.68 381.99,-18.86 383.79,-25.63"/>
</g>
<!-- Node11 -->
<g id="node11" class="node">
<title>Node11</title>
<g id="a_node11"><a xlink:href="v8config_8h.html" target="_top" xlink:title=" ">
<polygon fill="white" stroke="#666666" points="539.5,-19.25 480,-19.25 480,0 539.5,0 539.5,-19.25"/>
<text text-anchor="middle" x="509.75" y="-5.75" font-family="Helvetica,sans-Serif" font-size="10.00">v8config.h</text>
</a>
</g>
</g>
<!-- Node4&#45;&gt;Node11 -->
<g id="edge11" class="edge">
<title>Node4&#45;&gt;Node11</title>
<path fill="none" stroke="#63b8ff" d="M244.25,-60.9C282.85,-54.3 378.46,-37.67 468.83,-19.58"/>
<polygon fill="#63b8ff" stroke="#63b8ff" points="469.43,-22.83 478.54,-17.42 468.05,-15.96 469.43,-22.83"/>
</g>
</g>
</svg>
