<?xml version="1.0" encoding="UTF-8" standalone="no"?>
<!DOCTYPE svg PUBLIC "-//W3C//DTD SVG 1.1//EN"
 "http://www.w3.org/Graphics/SVG/1.1/DTD/svg11.dtd">
<!-- Generated by graphviz version 8.0.5 (20230430.1635)
 -->
<!-- Title: v8::Local&lt; T &gt; Pages: 1 -->
<svg width="125pt" height="138pt"
 viewBox="0.00 0.00 124.50 137.75" xmlns="http://www.w3.org/2000/svg" xmlns:xlink="http://www.w3.org/1999/xlink">
<g id="graph0" class="graph" transform="scale(1 1) rotate(0) translate(4 133.75)">
<title>v8::Local&lt; T &gt;</title>
<!-- Node1 -->
<g id="node1" class="node">
<title>Node1</title>
<g id="a_node1"><a xlink:title=" ">
<polygon fill="#999999" stroke="#666666" points="97,-19.25 19.5,-19.25 19.5,0 97,0 97,-19.25"/>
<text text-anchor="middle" x="58.25" y="-5.75" font-family="Helvetica,sans-Serif" font-size="10.00">v8::Local&lt; T &gt;</text>
</a>
</g>
</g>
<!-- Node2 -->
<g id="node2" class="node">
<title>Node2</title>
<g id="a_node2"><a xlink:href="classv8_1_1LocalBase.html" target="_top" xlink:title=" ">
<polygon fill="white" stroke="#666666" points="108.25,-74.5 8.25,-74.5 8.25,-55.25 108.25,-55.25 108.25,-74.5"/>
<text text-anchor="middle" x="58.25" y="-61" font-family="Helvetica,sans-Serif" font-size="10.00">v8::LocalBase&lt; T &gt;</text>
</a>
</g>
</g>
<!-- Node2&#45;&gt;Node1 -->
<g id="edge1" class="edge">
<title>Node2&#45;&gt;Node1</title>
<path fill="none" stroke="#63b8ff" d="M58.25,-44.21C58.25,-35.77 58.25,-26.33 58.25,-19.61"/>
<polygon fill="#63b8ff" stroke="#63b8ff" points="54.75,-44.08 58.25,-54.08 61.75,-44.08 54.75,-44.08"/>
</g>
<!-- Node3 -->
<g id="node3" class="node">
<title>Node3</title>
<g id="a_node3"><a xlink:href="classv8_1_1IndirectHandleBase.html" target="_top" xlink:title=" ">
<polygon fill="white" stroke="#666666" points="116.5,-129.75 0,-129.75 0,-110.5 116.5,-110.5 116.5,-129.75"/>
<text text-anchor="middle" x="58.25" y="-116.25" font-family="Helvetica,sans-Serif" font-size="10.00">v8::IndirectHandleBase</text>
</a>
</g>
</g>
<!-- Node3&#45;&gt;Node2 -->
<g id="edge2" class="edge">
<title>Node3&#45;&gt;Node2</title>
<path fill="none" stroke="#63b8ff" d="M58.25,-99.46C58.25,-91.02 58.25,-81.58 58.25,-74.86"/>
<polygon fill="#63b8ff" stroke="#63b8ff" points="54.75,-99.33 58.25,-109.33 61.75,-99.33 54.75,-99.33"/>
</g>
</g>
</svg>
