<?xml version="1.0" encoding="UTF-8" standalone="no"?>
<!DOCTYPE svg PUBLIC "-//W3C//DTD SVG 1.1//EN"
 "http://www.w3.org/Graphics/SVG/1.1/DTD/svg11.dtd">
<!-- Generated by graphviz version 8.0.5 (20230430.1635)
 -->
<!-- Title: v8::internal::CFunctionBuilder::CFunctionBuilder Pages: 1 -->
<svg width="342pt" height="51pt"
 viewBox="0.00 0.00 342.25 50.88" xmlns="http://www.w3.org/2000/svg" xmlns:xlink="http://www.w3.org/1999/xlink">
<g id="graph0" class="graph" transform="scale(1 1) rotate(0) translate(4 46.88)">
<title>v8::internal::CFunctionBuilder::CFunctionBuilder</title>
<!-- Node1 -->
<g id="node1" class="node">
<title>Node1</title>
<g id="a_node1"><a xlink:title=" ">
<polygon fill="#999999" stroke="#666666" points="334.25,-30.5 193,-30.5 193,0 334.25,0 334.25,-30.5"/>
<text text-anchor="start" x="201" y="-17" font-family="Helvetica,sans-Serif" font-size="10.00">v8::internal::CFunctionBuilder</text>
<text text-anchor="middle" x="263.62" y="-5.75" font-family="Helvetica,sans-Serif" font-size="10.00">::CFunctionBuilder</text>
</a>
</g>
</g>
<!-- Node2 -->
<g id="node2" class="node">
<title>Node2</title>
<g id="a_node2"><a xlink:href="classv8_1_1internal_1_1CFunctionBuilder.html#ae652fd306dd6a3f581a4af0575ba2517" target="_top" xlink:title=" ">
<polygon fill="white" stroke="#666666" points="157,-24.88 0,-24.88 0,-5.63 157,-5.63 157,-24.88"/>
<text text-anchor="middle" x="78.5" y="-11.38" font-family="Helvetica,sans-Serif" font-size="10.00">v8::internal::CFunctionBuilder::Fn</text>
</a>
</g>
</g>
<!-- Node1&#45;&gt;Node2 -->
<g id="edge1" class="edge">
<title>Node1&#45;&gt;Node2</title>
<path fill="none" stroke="#63b8ff" d="M181.7,-15.25C173.63,-15.25 165.45,-15.25 157.42,-15.25"/>
<polygon fill="#63b8ff" stroke="#63b8ff" points="181.61,-18.75 191.61,-15.25 181.61,-11.75 181.61,-18.75"/>
</g>
<!-- Node2&#45;&gt;Node2 -->
<g id="edge2" class="edge">
<title>Node2&#45;&gt;Node2</title>
<path fill="none" stroke="#63b8ff" d="M112.5,-34.9C109.66,-39.49 98.33,-42.88 78.5,-42.88 45.96,-42.88 36.3,-33.77 49.52,-25.16"/>
<polygon fill="#63b8ff" stroke="#63b8ff" points="115.17,-33.45 107.48,-26.16 108.95,-36.66 115.17,-33.45"/>
</g>
</g>
</svg>
