<?xml version="1.0" encoding="UTF-8" standalone="no"?>
<!DOCTYPE svg PUBLIC "-//W3C//DTD SVG 1.1//EN"
 "http://www.w3.org/Graphics/SVG/1.1/DTD/svg11.dtd">
<!-- Generated by graphviz version 8.0.5 (20230430.1635)
 -->
<!-- Title: include/cppgc/internal/pointer&#45;policies.h Pages: 1 -->
<svg width="1611pt" height="404pt"
 viewBox="0.00 0.00 1611.00 403.75" xmlns="http://www.w3.org/2000/svg" xmlns:xlink="http://www.w3.org/1999/xlink">
<g id="graph0" class="graph" transform="scale(1 1) rotate(0) translate(4 399.75)">
<title>include/cppgc/internal/pointer&#45;policies.h</title>
<!-- Node1 -->
<g id="node1" class="node">
<title>Node1</title>
<g id="a_node1"><a xlink:title=" ">
<polygon fill="#999999" stroke="#666666" points="583.25,-395.75 472.75,-395.75 472.75,-365.25 583.25,-365.25 583.25,-395.75"/>
<text text-anchor="start" x="480.75" y="-382.25" font-family="Helvetica,sans-Serif" font-size="10.00">include/cppgc/internal</text>
<text text-anchor="middle" x="528" y="-371" font-family="Helvetica,sans-Serif" font-size="10.00">/pointer&#45;policies.h</text>
</a>
</g>
</g>
<!-- Node2 -->
<g id="node2" class="node">
<title>Node2</title>
<g id="a_node2"><a xlink:title=" ">
<polygon fill="#e0e0e0" stroke="#999999" points="202.62,-74.5 157.38,-74.5 157.38,-55.25 202.62,-55.25 202.62,-74.5"/>
<text text-anchor="middle" x="180" y="-61" font-family="Helvetica,sans-Serif" font-size="10.00">cstdint</text>
</a>
</g>
</g>
<!-- Node1&#45;&gt;Node2 -->
<g id="edge1" class="edge">
<title>Node1&#45;&gt;Node2</title>
<path fill="none" stroke="#63b8ff" d="M472.49,-377.45C336.93,-370.95 0,-345.07 0,-248.5 0,-248.5 0,-248.5 0,-185.62 0,-116.04 94.41,-84.44 146.48,-72.3"/>
<polygon fill="#63b8ff" stroke="#63b8ff" points="147.19,-75.5 156.2,-69.93 145.68,-68.67 147.19,-75.5"/>
</g>
<!-- Node3 -->
<g id="node3" class="node">
<title>Node3</title>
<g id="a_node3"><a xlink:title=" ">
<polygon fill="#e0e0e0" stroke="#999999" points="487.5,-135.38 426.5,-135.38 426.5,-116.12 487.5,-116.12 487.5,-135.38"/>
<text text-anchor="middle" x="457" y="-121.88" font-family="Helvetica,sans-Serif" font-size="10.00">type_traits</text>
</a>
</g>
</g>
<!-- Node1&#45;&gt;Node3 -->
<g id="edge2" class="edge">
<title>Node1&#45;&gt;Node3</title>
<path fill="none" stroke="#63b8ff" d="M472.47,-379.82C363.73,-376.94 127.19,-352.29 57,-196.25 21.01,-116.25 -7.77,-197.88 379,-141 390.99,-139.24 403.96,-137 415.82,-134.83"/>
<polygon fill="#63b8ff" stroke="#63b8ff" points="416.15,-138.14 425.33,-132.86 414.86,-131.26 416.15,-138.14"/>
</g>
<!-- Node4 -->
<g id="node4" class="node">
<title>Node4</title>
<g id="a_node4"><a xlink:href="member-storage_8h.html" target="_top" xlink:title=" ">
<polygon fill="white" stroke="#666666" points="426.5,-262.75 311.5,-262.75 311.5,-232.25 426.5,-232.25 426.5,-262.75"/>
<text text-anchor="start" x="319.5" y="-249.25" font-family="Helvetica,sans-Serif" font-size="10.00">cppgc/internal/member</text>
<text text-anchor="middle" x="369" y="-238" font-family="Helvetica,sans-Serif" font-size="10.00">&#45;storage.h</text>
</a>
</g>
</g>
<!-- Node1&#45;&gt;Node4 -->
<g id="edge3" class="edge">
<title>Node1&#45;&gt;Node4</title>
<path fill="none" stroke="#63b8ff" d="M510.38,-364.98C482.32,-341.86 427.36,-296.58 394.85,-269.79"/>
<polygon fill="#63b8ff" stroke="#63b8ff" points="397.65,-266.74 387.7,-263.08 393.19,-272.14 397.65,-266.74"/>
</g>
<!-- Node8 -->
<g id="node8" class="node">
<title>Node8</title>
<g id="a_node8"><a xlink:href="v8config_8h.html" target="_top" xlink:title=" ">
<polygon fill="white" stroke="#666666" points="972.75,-19.25 913.25,-19.25 913.25,0 972.75,0 972.75,-19.25"/>
<text text-anchor="middle" x="943" y="-5.75" font-family="Helvetica,sans-Serif" font-size="10.00">v8config.h</text>
</a>
</g>
</g>
<!-- Node1&#45;&gt;Node8 -->
<g id="edge62" class="edge">
<title>Node1&#45;&gt;Node8</title>
<path fill="none" stroke="#63b8ff" d="M583.53,-378.63C803.66,-374.48 1603,-352.26 1603,-248.5 1603,-248.5 1603,-248.5 1603,-124.75 1603,-78.65 1568.37,-73.43 1526,-55.25 1428.27,-13.32 1099.99,-10.13 984.01,-10.36"/>
<polygon fill="#63b8ff" stroke="#63b8ff" points="984.13,-6.86 974.14,-10.39 984.15,-13.86 984.13,-6.86"/>
</g>
<!-- Node10 -->
<g id="node10" class="node">
<title>Node10</title>
<g id="a_node10"><a xlink:href="source-location_8h.html" target="_top" xlink:title=" ">
<polygon fill="white" stroke="#666666" points="1243.38,-135.38 1124.62,-135.38 1124.62,-116.12 1243.38,-116.12 1243.38,-135.38"/>
<text text-anchor="middle" x="1184" y="-121.88" font-family="Helvetica,sans-Serif" font-size="10.00">cppgc/source&#45;location.h</text>
</a>
</g>
</g>
<!-- Node1&#45;&gt;Node10 -->
<g id="edge60" class="edge">
<title>Node1&#45;&gt;Node10</title>
<path fill="none" stroke="#63b8ff" d="M583.57,-374.07C736.21,-357.86 1155.6,-304.07 1231,-196.25 1243.91,-177.78 1224.06,-156.26 1206.32,-142.11"/>
<polygon fill="#63b8ff" stroke="#63b8ff" points="1209.04,-139.02 1198.94,-135.81 1204.83,-144.62 1209.04,-139.02"/>
</g>
<!-- Node13 -->
<g id="node13" class="node">
<title>Node13</title>
<g id="a_node13"><a xlink:href="sentinel-pointer_8h.html" target="_top" xlink:title=" ">
<polygon fill="white" stroke="#666666" points="184.38,-196.25 65.62,-196.25 65.62,-177 184.38,-177 184.38,-196.25"/>
<text text-anchor="middle" x="125" y="-182.75" font-family="Helvetica,sans-Serif" font-size="10.00">cppgc/sentinel&#45;pointer.h</text>
</a>
</g>
</g>
<!-- Node1&#45;&gt;Node13 -->
<g id="edge59" class="edge">
<title>Node1&#45;&gt;Node13</title>
<path fill="none" stroke="#63b8ff" d="M472.53,-376.47C392.84,-369.28 245.71,-344.95 156,-262.75 139.94,-248.03 131.98,-223.75 128.19,-206.79"/>
<polygon fill="#63b8ff" stroke="#63b8ff" points="131.52,-206.57 126.18,-197.42 124.64,-207.9 131.52,-206.57"/>
</g>
<!-- Node14 -->
<g id="node14" class="node">
<title>Node14</title>
<g id="a_node14"><a xlink:href="write-barrier_8h.html" target="_top" xlink:title=" ">
<polygon fill="white" stroke="#666666" points="710.38,-329.25 609.62,-329.25 609.62,-298.75 710.38,-298.75 710.38,-329.25"/>
<text text-anchor="start" x="617.62" y="-315.75" font-family="Helvetica,sans-Serif" font-size="10.00">cppgc/internal/write</text>
<text text-anchor="middle" x="660" y="-304.5" font-family="Helvetica,sans-Serif" font-size="10.00">&#45;barrier.h</text>
</a>
</g>
</g>
<!-- Node1&#45;&gt;Node14 -->
<g id="edge22" class="edge">
<title>Node1&#45;&gt;Node14</title>
<path fill="none" stroke="#63b8ff" d="M557.95,-364.86C576.43,-355.83 600.35,-344.15 620.39,-334.36"/>
<polygon fill="#63b8ff" stroke="#63b8ff" points="621.72,-337.11 629.17,-329.58 618.64,-330.82 621.72,-337.11"/>
</g>
<!-- Node27 -->
<g id="node27" class="node">
<title>Node27</title>
<g id="a_node27"><a xlink:href="type-traits_8h.html" target="_top" xlink:title=" ">
<polygon fill="white" stroke="#666666" points="665.75,-196.25 570.25,-196.25 570.25,-177 665.75,-177 665.75,-196.25"/>
<text text-anchor="middle" x="618" y="-182.75" font-family="Helvetica,sans-Serif" font-size="10.00">cppgc/type&#45;traits.h</text>
</a>
</g>
</g>
<!-- Node1&#45;&gt;Node27 -->
<g id="edge61" class="edge">
<title>Node1&#45;&gt;Node27</title>
<path fill="none" stroke="#63b8ff" d="M534.91,-364.76C551.1,-330.26 591.42,-244.28 609.27,-206.24"/>
<polygon fill="#63b8ff" stroke="#63b8ff" points="612.77,-208.01 613.85,-197.47 606.44,-205.04 612.77,-208.01"/>
</g>
<!-- Node4&#45;&gt;Node3 -->
<g id="edge6" class="edge">
<title>Node4&#45;&gt;Node3</title>
<path fill="none" stroke="#63b8ff" d="M379.79,-231.82C396.01,-209.75 426.61,-168.11 444.02,-144.41"/>
<polygon fill="#63b8ff" stroke="#63b8ff" points="447.29,-146.87 450.39,-136.74 441.65,-142.72 447.29,-146.87"/>
</g>
<!-- Node5 -->
<g id="node5" class="node">
<title>Node5</title>
<g id="a_node5"><a xlink:title=" ">
<polygon fill="#e0e0e0" stroke="#999999" points="475.62,-196.25 430.38,-196.25 430.38,-177 475.62,-177 475.62,-196.25"/>
<text text-anchor="middle" x="453" y="-182.75" font-family="Helvetica,sans-Serif" font-size="10.00">atomic</text>
</a>
</g>
</g>
<!-- Node4&#45;&gt;Node5 -->
<g id="edge4" class="edge">
<title>Node4&#45;&gt;Node5</title>
<path fill="none" stroke="#63b8ff" d="M389.76,-231.95C402.43,-223.07 418.59,-211.74 431.41,-202.76"/>
<polygon fill="#63b8ff" stroke="#63b8ff" points="432.87,-205.31 439.05,-196.7 428.85,-199.57 432.87,-205.31"/>
</g>
<!-- Node6 -->
<g id="node6" class="node">
<title>Node6</title>
<g id="a_node6"><a xlink:title=" ">
<polygon fill="#e0e0e0" stroke="#999999" points="540.12,-19.25 491.88,-19.25 491.88,0 540.12,0 540.12,-19.25"/>
<text text-anchor="middle" x="516" y="-5.75" font-family="Helvetica,sans-Serif" font-size="10.00">cstddef</text>
</a>
</g>
</g>
<!-- Node4&#45;&gt;Node6 -->
<g id="edge5" class="edge">
<title>Node4&#45;&gt;Node6</title>
<path fill="none" stroke="#63b8ff" d="M344.13,-231.89C305.48,-207.29 238.44,-155.82 269,-110.5 316.9,-39.46 424.81,-18.93 480.8,-13.02"/>
<polygon fill="#63b8ff" stroke="#63b8ff" points="480.97,-16.42 490.59,-11.99 480.31,-9.45 480.97,-16.42"/>
</g>
<!-- Node7 -->
<g id="node7" class="node">
<title>Node7</title>
<g id="a_node7"><a xlink:href="api-constants_8h.html" target="_top" xlink:title=" ">
<polygon fill="white" stroke="#666666" points="370.25,-141 277.75,-141 277.75,-110.5 370.25,-110.5 370.25,-141"/>
<text text-anchor="start" x="285.75" y="-127.5" font-family="Helvetica,sans-Serif" font-size="10.00">cppgc/internal/api</text>
<text text-anchor="middle" x="324" y="-116.25" font-family="Helvetica,sans-Serif" font-size="10.00">&#45;constants.h</text>
</a>
</g>
</g>
<!-- Node4&#45;&gt;Node7 -->
<g id="edge7" class="edge">
<title>Node4&#45;&gt;Node7</title>
<path fill="none" stroke="#63b8ff" d="M363.5,-231.99C359.7,-221.96 354.53,-208.3 350,-196.25 344.44,-181.46 338.24,-164.89 333.29,-151.64"/>
<polygon fill="#63b8ff" stroke="#63b8ff" points="336.24,-150.54 329.46,-142.4 329.68,-152.99 336.24,-150.54"/>
</g>
<!-- Node4&#45;&gt;Node8 -->
<g id="edge21" class="edge">
<title>Node4&#45;&gt;Node8</title>
<path fill="none" stroke="#63b8ff" d="M369.6,-232C371.58,-203.93 380.15,-142.15 417,-110.5 435.63,-94.5 782.18,-36.82 902.36,-17.21"/>
<polygon fill="#63b8ff" stroke="#63b8ff" points="902.63,-20.55 911.94,-15.48 901.51,-13.64 902.63,-20.55"/>
</g>
<!-- Node9 -->
<g id="node9" class="node">
<title>Node9</title>
<g id="a_node9"><a xlink:href="logging_8h.html" target="_top" xlink:title=" ">
<polygon fill="white" stroke="#666666" points="954,-196.25 836,-196.25 836,-177 954,-177 954,-196.25"/>
<text text-anchor="middle" x="895" y="-182.75" font-family="Helvetica,sans-Serif" font-size="10.00">cppgc/internal/logging.h</text>
</a>
</g>
</g>
<!-- Node4&#45;&gt;Node9 -->
<g id="edge11" class="edge">
<title>Node4&#45;&gt;Node9</title>
<path fill="none" stroke="#63b8ff" d="M426.88,-233.61C429.62,-233.12 432.34,-232.67 435,-232.25 572.18,-210.86 734.07,-198 824.59,-191.91"/>
<polygon fill="#63b8ff" stroke="#63b8ff" points="824.8,-195.34 834.54,-191.18 824.33,-188.35 824.8,-195.34"/>
</g>
<!-- Node4&#45;&gt;Node13 -->
<g id="edge18" class="edge">
<title>Node4&#45;&gt;Node13</title>
<path fill="none" stroke="#63b8ff" d="M311.18,-232.55C269.09,-222.39 212.77,-208.8 173.13,-199.24"/>
<polygon fill="#63b8ff" stroke="#63b8ff" points="174.21,-195.66 163.67,-196.71 172.57,-202.46 174.21,-195.66"/>
</g>
<!-- Node7&#45;&gt;Node2 -->
<g id="edge9" class="edge">
<title>Node7&#45;&gt;Node2</title>
<path fill="none" stroke="#63b8ff" d="M288.03,-110.05C264.73,-100.52 234.65,-88.22 212.15,-79.02"/>
<polygon fill="#63b8ff" stroke="#63b8ff" points="213.66,-75.45 203.08,-74.9 211.02,-81.93 213.66,-75.45"/>
</g>
<!-- Node7&#45;&gt;Node6 -->
<g id="edge8" class="edge">
<title>Node7&#45;&gt;Node6</title>
<path fill="none" stroke="#63b8ff" d="M348.71,-110.06C385.71,-88.07 455.09,-46.83 491.8,-25.01"/>
<polygon fill="#63b8ff" stroke="#63b8ff" points="493,-27.77 499.81,-19.66 489.42,-21.76 493,-27.77"/>
</g>
<!-- Node7&#45;&gt;Node8 -->
<g id="edge10" class="edge">
<title>Node7&#45;&gt;Node8</title>
<path fill="none" stroke="#63b8ff" d="M369.87,-110.03C420.37,-94.33 504.21,-69.78 578,-55.25 694.59,-32.3 834.6,-19.13 902.34,-13.65"/>
<polygon fill="#63b8ff" stroke="#63b8ff" points="902.27,-17.09 911.96,-12.81 901.71,-10.11 902.27,-17.09"/>
</g>
<!-- Node9&#45;&gt;Node8 -->
<g id="edge17" class="edge">
<title>Node9&#45;&gt;Node8</title>
<path fill="none" stroke="#63b8ff" d="M897.45,-176.71C904.89,-149.56 927.39,-67.53 937.72,-29.88"/>
<polygon fill="#63b8ff" stroke="#63b8ff" points="941.23,-31.31 940.5,-20.74 934.48,-29.45 941.23,-31.31"/>
</g>
<!-- Node9&#45;&gt;Node10 -->
<g id="edge12" class="edge">
<title>Node9&#45;&gt;Node10</title>
<path fill="none" stroke="#63b8ff" d="M939.52,-176.55C990.44,-166.18 1073.83,-149.19 1128.82,-137.99"/>
<polygon fill="#63b8ff" stroke="#63b8ff" points="1129.33,-141.26 1138.43,-135.83 1127.93,-134.4 1129.33,-141.26"/>
</g>
<!-- Node11 -->
<g id="node11" class="node">
<title>Node11</title>
<g id="a_node11"><a xlink:href="v8-source-location_8h.html" target="_top" xlink:title=" ">
<polygon fill="white" stroke="#666666" points="1237.5,-74.5 1134.5,-74.5 1134.5,-55.25 1237.5,-55.25 1237.5,-74.5"/>
<text text-anchor="middle" x="1186" y="-61" font-family="Helvetica,sans-Serif" font-size="10.00">v8&#45;source&#45;location.h</text>
</a>
</g>
</g>
<!-- Node10&#45;&gt;Node11 -->
<g id="edge13" class="edge">
<title>Node10&#45;&gt;Node11</title>
<path fill="none" stroke="#63b8ff" d="M1184.3,-115.81C1184.57,-107.85 1184.98,-95.94 1185.33,-85.74"/>
<polygon fill="#63b8ff" stroke="#63b8ff" points="1188.85,-86.01 1185.69,-75.9 1181.86,-85.78 1188.85,-86.01"/>
</g>
<!-- Node11&#45;&gt;Node6 -->
<g id="edge14" class="edge">
<title>Node11&#45;&gt;Node6</title>
<path fill="none" stroke="#63b8ff" d="M1134.12,-56.3C1131.03,-55.92 1127.98,-55.57 1125,-55.25 907.45,-31.93 644.84,-17.2 551.24,-12.38"/>
<polygon fill="#63b8ff" stroke="#63b8ff" points="551.59,-8.84 541.42,-11.82 551.23,-15.83 551.59,-8.84"/>
</g>
<!-- Node11&#45;&gt;Node8 -->
<g id="edge16" class="edge">
<title>Node11&#45;&gt;Node8</title>
<path fill="none" stroke="#63b8ff" d="M1144.5,-54.78C1099.55,-44.93 1028.28,-29.31 983.66,-19.53"/>
<polygon fill="#63b8ff" stroke="#63b8ff" points="984.71,-15.96 974.19,-17.24 983.21,-22.8 984.71,-15.96"/>
</g>
<!-- Node12 -->
<g id="node12" class="node">
<title>Node12</title>
<g id="a_node12"><a xlink:title=" ">
<polygon fill="#e0e0e0" stroke="#999999" points="1395,-19.25 1355,-19.25 1355,0 1395,0 1395,-19.25"/>
<text text-anchor="middle" x="1375" y="-5.75" font-family="Helvetica,sans-Serif" font-size="10.00">string</text>
</a>
</g>
</g>
<!-- Node11&#45;&gt;Node12 -->
<g id="edge15" class="edge">
<title>Node11&#45;&gt;Node12</title>
<path fill="none" stroke="#63b8ff" d="M1218.06,-54.84C1253.32,-44.91 1309.56,-29.06 1344.28,-19.28"/>
<polygon fill="#63b8ff" stroke="#63b8ff" points="1345.06,-22.41 1353.74,-16.33 1343.16,-15.68 1345.06,-22.41"/>
</g>
<!-- Node13&#45;&gt;Node2 -->
<g id="edge19" class="edge">
<title>Node13&#45;&gt;Node2</title>
<path fill="none" stroke="#63b8ff" d="M129.13,-176.62C138.05,-157.21 159.26,-111.02 171.29,-84.84"/>
<polygon fill="#63b8ff" stroke="#63b8ff" points="174.82,-86.53 175.82,-75.98 168.46,-83.61 174.82,-86.53"/>
</g>
<!-- Node13&#45;&gt;Node7 -->
<g id="edge20" class="edge">
<title>Node13&#45;&gt;Node7</title>
<path fill="none" stroke="#63b8ff" d="M155.66,-176.55C185.23,-167.81 230.71,-154.35 266.95,-143.63"/>
<polygon fill="#63b8ff" stroke="#63b8ff" points="267.79,-146.73 276.38,-140.54 265.8,-140.02 267.79,-146.73"/>
</g>
<!-- Node14&#45;&gt;Node2 -->
<g id="edge24" class="edge">
<title>Node14&#45;&gt;Node2</title>
<path fill="none" stroke="#63b8ff" d="M609.16,-311.79C519.36,-308.74 337.32,-298.25 286,-262.75 223.08,-219.22 194.22,-126.03 184.26,-85.44"/>
<polygon fill="#63b8ff" stroke="#63b8ff" points="187.48,-84.8 181.81,-75.85 180.66,-86.39 187.48,-84.8"/>
</g>
<!-- Node14&#45;&gt;Node4 -->
<g id="edge37" class="edge">
<title>Node14&#45;&gt;Node4</title>
<path fill="none" stroke="#63b8ff" d="M609.31,-301.76C561.7,-291.21 490.11,-275.34 437.45,-263.67"/>
<polygon fill="#63b8ff" stroke="#63b8ff" points="438.37,-260.07 427.85,-261.32 436.85,-266.9 438.37,-260.07"/>
</g>
<!-- Node14&#45;&gt;Node6 -->
<g id="edge23" class="edge">
<title>Node14&#45;&gt;Node6</title>
<path fill="none" stroke="#63b8ff" d="M682.51,-298.43C693.96,-289.63 706.74,-277.31 713,-262.75 718.35,-250.3 717.02,-245.2 713,-232.25 683.13,-136.1 583.91,-57.5 538.74,-25.76"/>
<polygon fill="#63b8ff" stroke="#63b8ff" points="541.19,-22.51 530.97,-19.71 537.21,-28.27 541.19,-22.51"/>
</g>
<!-- Node14&#45;&gt;Node7 -->
<g id="edge29" class="edge">
<title>Node14&#45;&gt;Node7</title>
<path fill="none" stroke="#63b8ff" d="M609.39,-313.67C520.31,-313.66 341.22,-307.86 302,-262.75 274.91,-231.59 294.36,-180.6 309.9,-150.71"/>
<polygon fill="#63b8ff" stroke="#63b8ff" points="313.44,-152.53 315.16,-142.08 307.29,-149.18 313.44,-152.53"/>
</g>
<!-- Node14&#45;&gt;Node8 -->
<g id="edge58" class="edge">
<title>Node14&#45;&gt;Node8</title>
<path fill="none" stroke="#63b8ff" d="M686.35,-298.33C718.89,-278.05 770,-238.15 770,-187.62 770,-187.62 770,-187.62 770,-124.75 770,-61.6 851.32,-31.4 902.45,-18.65"/>
<polygon fill="#63b8ff" stroke="#63b8ff" points="902.94,-21.89 911.87,-16.19 901.33,-15.08 902.94,-21.89"/>
</g>
<!-- Node14&#45;&gt;Node13 -->
<g id="edge51" class="edge">
<title>Node14&#45;&gt;Node13</title>
<path fill="none" stroke="#63b8ff" d="M609.47,-311.79C505.1,-308.6 269.51,-297.65 198,-262.75 171.66,-249.9 149.55,-223.45 136.79,-205.63"/>
<polygon fill="#63b8ff" stroke="#63b8ff" points="139.24,-204.01 130.69,-197.75 133.47,-207.97 139.24,-204.01"/>
</g>
<!-- Node15 -->
<g id="node15" class="node">
<title>Node15</title>
<g id="a_node15"><a xlink:href="heap-handle_8h.html" target="_top" xlink:title=" ">
<polygon fill="white" stroke="#666666" points="1115.62,-196.25 1010.38,-196.25 1010.38,-177 1115.62,-177 1115.62,-196.25"/>
<text text-anchor="middle" x="1063" y="-182.75" font-family="Helvetica,sans-Serif" font-size="10.00">cppgc/heap&#45;handle.h</text>
</a>
</g>
</g>
<!-- Node14&#45;&gt;Node15 -->
<g id="edge25" class="edge">
<title>Node14&#45;&gt;Node15</title>
<path fill="none" stroke="#63b8ff" d="M710.7,-310.96C770.78,-307.06 872.94,-295.73 954,-262.75 989.23,-248.42 1024.47,-221.22 1044.98,-203.78"/>
<polygon fill="#63b8ff" stroke="#63b8ff" points="1046.81,-205.95 1052.07,-196.75 1042.22,-200.67 1046.81,-205.95"/>
</g>
<!-- Node16 -->
<g id="node16" class="node">
<title>Node16</title>
<g id="a_node16"><a xlink:href="heap-state_8h.html" target="_top" xlink:title=" ">
<polygon fill="white" stroke="#666666" points="896.25,-135.38 797.75,-135.38 797.75,-116.12 896.25,-116.12 896.25,-135.38"/>
<text text-anchor="middle" x="847" y="-121.88" font-family="Helvetica,sans-Serif" font-size="10.00">cppgc/heap&#45;state.h</text>
</a>
</g>
</g>
<!-- Node14&#45;&gt;Node16 -->
<g id="edge27" class="edge">
<title>Node14&#45;&gt;Node16</title>
<path fill="none" stroke="#63b8ff" d="M710.71,-301.8C735.31,-294.22 763.82,-281.97 784,-262.75 793.1,-254.09 824.32,-181.11 839.11,-145.78"/>
<polygon fill="#63b8ff" stroke="#63b8ff" points="842.67,-147.33 843.28,-136.76 836.21,-144.64 842.67,-147.33"/>
</g>
<!-- Node17 -->
<g id="node17" class="node">
<title>Node17</title>
<g id="a_node17"><a xlink:href="atomic-entry-flag_8h.html" target="_top" xlink:title=" ">
<polygon fill="white" stroke="#666666" points="553.5,-262.75 444.5,-262.75 444.5,-232.25 553.5,-232.25 553.5,-262.75"/>
<text text-anchor="start" x="452.5" y="-249.25" font-family="Helvetica,sans-Serif" font-size="10.00">cppgc/internal/atomic</text>
<text text-anchor="middle" x="499" y="-238" font-family="Helvetica,sans-Serif" font-size="10.00">&#45;entry&#45;flag.h</text>
</a>
</g>
</g>
<!-- Node14&#45;&gt;Node17 -->
<g id="edge30" class="edge">
<title>Node14&#45;&gt;Node17</title>
<path fill="none" stroke="#63b8ff" d="M623.47,-298.36C600.39,-289.12 570.36,-277.09 545.58,-267.16"/>
<polygon fill="#63b8ff" stroke="#63b8ff" points="547.25,-263.66 536.67,-263.19 544.65,-270.16 547.25,-263.66"/>
</g>
<!-- Node18 -->
<g id="node18" class="node">
<title>Node18</title>
<g id="a_node18"><a xlink:href="base-page-handle_8h.html" target="_top" xlink:title=" ">
<polygon fill="white" stroke="#666666" points="945.38,-262.75 844.62,-262.75 844.62,-232.25 945.38,-232.25 945.38,-262.75"/>
<text text-anchor="start" x="852.62" y="-249.25" font-family="Helvetica,sans-Serif" font-size="10.00">cppgc/internal/base</text>
<text text-anchor="middle" x="895" y="-238" font-family="Helvetica,sans-Serif" font-size="10.00">&#45;page&#45;handle.h</text>
</a>
</g>
</g>
<!-- Node14&#45;&gt;Node18 -->
<g id="edge32" class="edge">
<title>Node14&#45;&gt;Node18</title>
<path fill="none" stroke="#63b8ff" d="M710.7,-299.08C746.84,-289.17 795.6,-275.78 833.89,-265.27"/>
<polygon fill="#63b8ff" stroke="#63b8ff" points="834.67,-268.41 843.39,-262.39 832.82,-261.66 834.67,-268.41"/>
</g>
<!-- Node19 -->
<g id="node19" class="node">
<title>Node19</title>
<g id="a_node19"><a xlink:href="platform_8h.html" target="_top" xlink:title=" ">
<polygon fill="white" stroke="#666666" points="1222,-196.25 1134,-196.25 1134,-177 1222,-177 1222,-196.25"/>
<text text-anchor="middle" x="1178" y="-182.75" font-family="Helvetica,sans-Serif" font-size="10.00">cppgc/platform.h</text>
</a>
</g>
</g>
<!-- Node14&#45;&gt;Node19 -->
<g id="edge38" class="edge">
<title>Node14&#45;&gt;Node19</title>
<path fill="none" stroke="#63b8ff" d="M710.86,-309.14C777.02,-303.26 895.77,-289.78 994,-262.75 1051.38,-246.96 1114.96,-218.35 1150.34,-201.36"/>
<polygon fill="#63b8ff" stroke="#63b8ff" points="1151.5,-204.2 1158.96,-196.69 1148.44,-197.91 1151.5,-204.2"/>
</g>
<!-- Node26 -->
<g id="node26" class="node">
<title>Node26</title>
<g id="a_node26"><a xlink:href="trace-trait_8h.html" target="_top" xlink:title=" ">
<polygon fill="white" stroke="#666666" points="704,-257.12 610,-257.12 610,-237.88 704,-237.88 704,-257.12"/>
<text text-anchor="middle" x="657" y="-243.62" font-family="Helvetica,sans-Serif" font-size="10.00">cppgc/trace&#45;trait.h</text>
</a>
</g>
</g>
<!-- Node14&#45;&gt;Node26 -->
<g id="edge52" class="edge">
<title>Node14&#45;&gt;Node26</title>
<path fill="none" stroke="#63b8ff" d="M659.32,-298.36C658.9,-289.38 658.36,-277.76 657.91,-268.01"/>
<polygon fill="#63b8ff" stroke="#63b8ff" points="661.37,-268.15 657.41,-258.32 654.38,-268.47 661.37,-268.15"/>
</g>
<!-- Node15&#45;&gt;Node8 -->
<g id="edge26" class="edge">
<title>Node15&#45;&gt;Node8</title>
<path fill="none" stroke="#63b8ff" d="M1054.03,-176.52C1045.71,-167.82 1033.25,-154.12 1024,-141 998.83,-105.31 999.7,-91.94 976,-55.25 970.06,-46.06 962.9,-36.24 956.77,-28.16"/>
<polygon fill="#63b8ff" stroke="#63b8ff" points="959.05,-26.39 950.17,-20.61 953.51,-30.67 959.05,-26.39"/>
</g>
<!-- Node16&#45;&gt;Node8 -->
<g id="edge28" class="edge">
<title>Node16&#45;&gt;Node8</title>
<path fill="none" stroke="#63b8ff" d="M854.53,-115.79C870.45,-96.88 907.72,-52.57 928.45,-27.93"/>
<polygon fill="#63b8ff" stroke="#63b8ff" points="931.74,-30.44 935.5,-20.54 926.39,-25.94 931.74,-30.44"/>
</g>
<!-- Node17&#45;&gt;Node5 -->
<g id="edge31" class="edge">
<title>Node17&#45;&gt;Node5</title>
<path fill="none" stroke="#63b8ff" d="M487.63,-231.95C481.3,-223.84 473.37,-213.7 466.7,-205.16"/>
<polygon fill="#63b8ff" stroke="#63b8ff" points="469.01,-203.43 460.09,-197.7 463.49,-207.74 469.01,-203.43"/>
</g>
<!-- Node18&#45;&gt;Node7 -->
<g id="edge34" class="edge">
<title>Node18&#45;&gt;Node7</title>
<path fill="none" stroke="#63b8ff" d="M844.25,-241.04C778.45,-233.47 660.35,-218.18 561,-196.25 526.73,-188.69 439.41,-162.38 380.87,-144.4"/>
<polygon fill="#63b8ff" stroke="#63b8ff" points="382.25,-140.85 371.66,-141.25 380.19,-147.54 382.25,-140.85"/>
</g>
<!-- Node18&#45;&gt;Node8 -->
<g id="edge36" class="edge">
<title>Node18&#45;&gt;Node8</title>
<path fill="none" stroke="#63b8ff" d="M926.18,-231.92C940.14,-223.6 955.2,-211.72 963,-196.25 991.06,-140.63 965.71,-63.89 951.34,-29.1"/>
<polygon fill="#63b8ff" stroke="#63b8ff" points="954.31,-28.16 947.14,-20.36 947.88,-30.93 954.31,-28.16"/>
</g>
<!-- Node18&#45;&gt;Node9 -->
<g id="edge35" class="edge">
<title>Node18&#45;&gt;Node9</title>
<path fill="none" stroke="#63b8ff" d="M895,-231.95C895,-224.62 895,-215.62 895,-207.66"/>
<polygon fill="#63b8ff" stroke="#63b8ff" points="898.5,-207.7 895,-197.7 891.5,-207.7 898.5,-207.7"/>
</g>
<!-- Node18&#45;&gt;Node15 -->
<g id="edge33" class="edge">
<title>Node18&#45;&gt;Node15</title>
<path fill="none" stroke="#63b8ff" d="M936.96,-231.8C964.64,-222.1 1000.52,-209.52 1026.91,-200.27"/>
<polygon fill="#63b8ff" stroke="#63b8ff" points="1027.96,-203.26 1036.24,-196.65 1025.64,-196.66 1027.96,-203.26"/>
</g>
<!-- Node19&#45;&gt;Node8 -->
<g id="edge50" class="edge">
<title>Node19&#45;&gt;Node8</title>
<path fill="none" stroke="#63b8ff" d="M1159.04,-176.53C1142.21,-168.15 1117.23,-154.93 1097,-141 1089.82,-136.06 1000.79,-60.05 961.46,-26.43"/>
<polygon fill="#63b8ff" stroke="#63b8ff" points="964.33,-23.41 954.45,-19.57 959.78,-28.73 964.33,-23.41"/>
</g>
<!-- Node19&#45;&gt;Node10 -->
<g id="edge40" class="edge">
<title>Node19&#45;&gt;Node10</title>
<path fill="none" stroke="#63b8ff" d="M1178.91,-176.68C1179.72,-168.73 1180.94,-156.81 1181.98,-146.62"/>
<polygon fill="#63b8ff" stroke="#63b8ff" points="1185.55,-147.08 1183.08,-136.78 1178.58,-146.37 1185.55,-147.08"/>
</g>
<!-- Node20 -->
<g id="node20" class="node">
<title>Node20</title>
<g id="a_node20"><a xlink:title=" ">
<polygon fill="#e0e0e0" stroke="#999999" points="1116.25,-74.5 1065.75,-74.5 1065.75,-55.25 1116.25,-55.25 1116.25,-74.5"/>
<text text-anchor="middle" x="1091" y="-61" font-family="Helvetica,sans-Serif" font-size="10.00">memory</text>
</a>
</g>
</g>
<!-- Node19&#45;&gt;Node20 -->
<g id="edge39" class="edge">
<title>Node19&#45;&gt;Node20</title>
<path fill="none" stroke="#63b8ff" d="M1159.85,-176.63C1146.02,-168.92 1127.47,-156.6 1116,-141 1103.8,-124.41 1097.32,-101.51 1094.04,-85.37"/>
<polygon fill="#63b8ff" stroke="#63b8ff" points="1097.31,-84.79 1092.11,-75.55 1090.42,-86.01 1097.31,-84.79"/>
</g>
<!-- Node21 -->
<g id="node21" class="node">
<title>Node21</title>
<g id="a_node21"><a xlink:href="v8-platform_8h.html" target="_top" xlink:title=" ">
<polygon fill="white" stroke="#666666" points="1380.12,-135.38 1307.88,-135.38 1307.88,-116.12 1380.12,-116.12 1380.12,-135.38"/>
<text text-anchor="middle" x="1344" y="-121.88" font-family="Helvetica,sans-Serif" font-size="10.00">v8&#45;platform.h</text>
</a>
</g>
</g>
<!-- Node19&#45;&gt;Node21 -->
<g id="edge41" class="edge">
<title>Node19&#45;&gt;Node21</title>
<path fill="none" stroke="#63b8ff" d="M1203.57,-176.55C1231.6,-166.61 1276.76,-150.6 1308.28,-139.42"/>
<polygon fill="#63b8ff" stroke="#63b8ff" points="1309.14,-142.47 1317.4,-135.83 1306.8,-135.87 1309.14,-142.47"/>
</g>
<!-- Node21&#45;&gt;Node8 -->
<g id="edge49" class="edge">
<title>Node21&#45;&gt;Node8</title>
<path fill="none" stroke="#63b8ff" d="M1380.44,-121.73C1439.95,-115.51 1547.56,-98.06 1508,-55.25 1472.58,-16.93 1107.92,-11.47 983.97,-10.73"/>
<polygon fill="#63b8ff" stroke="#63b8ff" points="984.1,-7.23 974.09,-10.67 984.07,-14.23 984.1,-7.23"/>
</g>
<!-- Node21&#45;&gt;Node11 -->
<g id="edge48" class="edge">
<title>Node21&#45;&gt;Node11</title>
<path fill="none" stroke="#63b8ff" d="M1319.66,-115.68C1293.1,-105.78 1250.37,-89.86 1220.39,-78.69"/>
<polygon fill="#63b8ff" stroke="#63b8ff" points="1221.96,-75.17 1211.37,-74.96 1219.52,-81.73 1221.96,-75.17"/>
</g>
<!-- Node21&#45;&gt;Node12 -->
<g id="edge47" class="edge">
<title>Node21&#45;&gt;Node12</title>
<path fill="none" stroke="#63b8ff" d="M1380.2,-120.78C1431.54,-114.32 1521.46,-99.66 1541,-74.5 1577.77,-27.18 1463.4,-14.9 1405.91,-11.72"/>
<polygon fill="#63b8ff" stroke="#63b8ff" points="1406.39,-8.19 1396.23,-11.2 1406.04,-15.18 1406.39,-8.19"/>
</g>
<!-- Node21&#45;&gt;Node20 -->
<g id="edge46" class="edge">
<title>Node21&#45;&gt;Node20</title>
<path fill="none" stroke="#63b8ff" d="M1307.7,-116.56C1266.43,-107.21 1196.77,-91.3 1126.91,-74.69"/>
<polygon fill="#63b8ff" stroke="#63b8ff" points="1128.14,-71.15 1117.6,-72.23 1126.52,-77.95 1128.14,-71.15"/>
</g>
<!-- Node22 -->
<g id="node22" class="node">
<title>Node22</title>
<g id="a_node22"><a xlink:title=" ">
<polygon fill="#e0e0e0" stroke="#999999" points="1300.62,-74.5 1255.38,-74.5 1255.38,-55.25 1300.62,-55.25 1300.62,-74.5"/>
<text text-anchor="middle" x="1278" y="-61" font-family="Helvetica,sans-Serif" font-size="10.00">math.h</text>
</a>
</g>
</g>
<!-- Node21&#45;&gt;Node22 -->
<g id="edge42" class="edge">
<title>Node21&#45;&gt;Node22</title>
<path fill="none" stroke="#63b8ff" d="M1333.98,-115.81C1323.99,-106.9 1308.44,-93.03 1296.26,-82.17"/>
<polygon fill="#63b8ff" stroke="#63b8ff" points="1298.91,-79.95 1289.12,-75.9 1294.25,-85.17 1298.91,-79.95"/>
</g>
<!-- Node23 -->
<g id="node23" class="node">
<title>Node23</title>
<g id="a_node23"><a xlink:title=" ">
<polygon fill="#e0e0e0" stroke="#999999" points="1369.25,-74.5 1318.75,-74.5 1318.75,-55.25 1369.25,-55.25 1369.25,-74.5"/>
<text text-anchor="middle" x="1344" y="-61" font-family="Helvetica,sans-Serif" font-size="10.00">stddef.h</text>
</a>
</g>
</g>
<!-- Node21&#45;&gt;Node23 -->
<g id="edge43" class="edge">
<title>Node21&#45;&gt;Node23</title>
<path fill="none" stroke="#63b8ff" d="M1344,-115.81C1344,-107.85 1344,-95.94 1344,-85.74"/>
<polygon fill="#63b8ff" stroke="#63b8ff" points="1347.5,-85.9 1344,-75.9 1340.5,-85.9 1347.5,-85.9"/>
</g>
<!-- Node24 -->
<g id="node24" class="node">
<title>Node24</title>
<g id="a_node24"><a xlink:title=" ">
<polygon fill="#e0e0e0" stroke="#999999" points="1434.75,-74.5 1387.25,-74.5 1387.25,-55.25 1434.75,-55.25 1434.75,-74.5"/>
<text text-anchor="middle" x="1411" y="-61" font-family="Helvetica,sans-Serif" font-size="10.00">stdint.h</text>
</a>
</g>
</g>
<!-- Node21&#45;&gt;Node24 -->
<g id="edge44" class="edge">
<title>Node21&#45;&gt;Node24</title>
<path fill="none" stroke="#63b8ff" d="M1354.18,-115.81C1364.41,-106.82 1380.4,-92.76 1392.82,-81.85"/>
<polygon fill="#63b8ff" stroke="#63b8ff" points="1394.53,-84.13 1399.73,-74.9 1389.91,-78.87 1394.53,-84.13"/>
</g>
<!-- Node25 -->
<g id="node25" class="node">
<title>Node25</title>
<g id="a_node25"><a xlink:title=" ">
<polygon fill="#e0e0e0" stroke="#999999" points="1499.38,-74.5 1452.62,-74.5 1452.62,-55.25 1499.38,-55.25 1499.38,-74.5"/>
<text text-anchor="middle" x="1476" y="-61" font-family="Helvetica,sans-Serif" font-size="10.00">stdlib.h</text>
</a>
</g>
</g>
<!-- Node21&#45;&gt;Node25 -->
<g id="edge45" class="edge">
<title>Node21&#45;&gt;Node25</title>
<path fill="none" stroke="#63b8ff" d="M1364.34,-115.68C1386.1,-105.97 1420.87,-90.46 1445.83,-79.33"/>
<polygon fill="#63b8ff" stroke="#63b8ff" points="1447.15,-82.13 1454.86,-74.86 1444.3,-75.74 1447.15,-82.13"/>
</g>
<!-- Node26&#45;&gt;Node3 -->
<g id="edge53" class="edge">
<title>Node26&#45;&gt;Node3</title>
<path fill="none" stroke="#63b8ff" d="M638.28,-237.44C618.69,-227.8 587.21,-211.8 561,-196.25 531.66,-178.83 499.16,-156.62 478.43,-142.05"/>
<polygon fill="#63b8ff" stroke="#63b8ff" points="480.71,-138.67 470.53,-135.76 476.67,-144.39 480.71,-138.67"/>
</g>
<!-- Node26&#45;&gt;Node8 -->
<g id="edge57" class="edge">
<title>Node26&#45;&gt;Node8</title>
<path fill="none" stroke="#63b8ff" d="M660.4,-237.72C673.77,-203.62 723.6,-80.59 756,-55.25 798.18,-22.27 860.92,-13.1 901.9,-10.85"/>
<polygon fill="#63b8ff" stroke="#63b8ff" points="902,-14.3 911.84,-10.38 901.7,-7.31 902,-14.3"/>
</g>
<!-- Node26&#45;&gt;Node27 -->
<g id="edge54" class="edge">
<title>Node26&#45;&gt;Node27</title>
<path fill="none" stroke="#63b8ff" d="M651.08,-237.56C645.46,-229.09 636.87,-216.12 629.85,-205.52"/>
<polygon fill="#63b8ff" stroke="#63b8ff" points="632.42,-204.05 623.98,-197.65 626.58,-207.92 632.42,-204.05"/>
</g>
<!-- Node27&#45;&gt;Node3 -->
<g id="edge56" class="edge">
<title>Node27&#45;&gt;Node3</title>
<path fill="none" stroke="#63b8ff" d="M593.2,-176.55C566.13,-166.66 522.59,-150.74 492.05,-139.57"/>
<polygon fill="#63b8ff" stroke="#63b8ff" points="493.43,-135.98 482.83,-135.83 491.02,-142.55 493.43,-135.98"/>
</g>
<!-- Node27&#45;&gt;Node6 -->
<g id="edge55" class="edge">
<title>Node27&#45;&gt;Node6</title>
<path fill="none" stroke="#63b8ff" d="M612.8,-176.71C596.85,-149.33 548.34,-66.11 526.66,-28.92"/>
<polygon fill="#63b8ff" stroke="#63b8ff" points="529.37,-27.61 521.31,-20.74 523.32,-31.14 529.37,-27.61"/>
</g>
</g>
</svg>
