<?xml version="1.0" encoding="UTF-8" standalone="no"?>
<!DOCTYPE svg PUBLIC "-//W3C//DTD SVG 1.1//EN"
 "http://www.w3.org/Graphics/SVG/1.1/DTD/svg11.dtd">
<!-- Generated by graphviz version 8.0.5 (20230430.1635)
 -->
<!-- Title: v8::PersistentBase::Reset Pages: 1 -->
<svg width="283pt" height="150pt"
 viewBox="0.00 0.00 283.00 150.25" xmlns="http://www.w3.org/2000/svg" xmlns:xlink="http://www.w3.org/1999/xlink">
<g id="graph0" class="graph" transform="scale(1 1) rotate(0) translate(4 146.25)">
<title>v8::PersistentBase::Reset</title>
<!-- Node1 -->
<g id="node1" class="node">
<title>Node1</title>
<g id="a_node1"><a xlink:title=" ">
<polygon fill="#999999" stroke="#666666" points="275,-82.88 177.25,-82.88 177.25,-52.38 275,-52.38 275,-82.88"/>
<text text-anchor="start" x="185.25" y="-69.38" font-family="Helvetica,sans-Serif" font-size="10.00">v8::PersistentBase</text>
<text text-anchor="middle" x="226.12" y="-58.12" font-family="Helvetica,sans-Serif" font-size="10.00">::Reset</text>
</a>
</g>
</g>
<!-- Node2 -->
<g id="node2" class="node">
<title>Node2</title>
<g id="a_node2"><a xlink:href="classv8_1_1Global.html#a70f789090c3ac1fda6e3ab5f5c8b105a" target="_top" xlink:title=" ">
<polygon fill="white" stroke="#666666" points="122.88,-142.25 18.38,-142.25 18.38,-123 122.88,-123 122.88,-142.25"/>
<text text-anchor="middle" x="70.62" y="-128.75" font-family="Helvetica,sans-Serif" font-size="10.00">v8::Global::operator=</text>
</a>
</g>
</g>
<!-- Node1&#45;&gt;Node2 -->
<g id="edge1" class="edge">
<title>Node1&#45;&gt;Node2</title>
<path fill="none" stroke="#63b8ff" d="M190.9,-88.78C176.03,-97.34 158.18,-106.79 141.25,-113.62 132.89,-117 123.72,-119.99 114.86,-122.53"/>
<polygon fill="#63b8ff" stroke="#63b8ff" points="192.34,-91.41 199.19,-83.33 188.8,-85.37 192.34,-91.41"/>
</g>
<!-- Node3 -->
<g id="node3" class="node">
<title>Node3</title>
<g id="a_node3"><a xlink:href="classv8_1_1PersistentValueMapBase.html#a5c16ace49c257f760c92a010a93b4884" target="_top" xlink:title=" ">
<polygon fill="white" stroke="#666666" points="141.25,-104.88 0,-104.88 0,-74.38 141.25,-74.38 141.25,-104.88"/>
<text text-anchor="start" x="8" y="-91.38" font-family="Helvetica,sans-Serif" font-size="10.00">v8::PersistentValueMapBase</text>
<text text-anchor="middle" x="70.62" y="-80.12" font-family="Helvetica,sans-Serif" font-size="10.00">::RemoveWeak</text>
</a>
</g>
</g>
<!-- Node1&#45;&gt;Node3 -->
<g id="edge2" class="edge">
<title>Node1&#45;&gt;Node3</title>
<path fill="none" stroke="#63b8ff" d="M166.18,-76.07C158.11,-77.23 149.77,-78.43 141.53,-79.61"/>
<polygon fill="#63b8ff" stroke="#63b8ff" points="166.58,-79.41 175.98,-74.53 165.58,-72.48 166.58,-79.41"/>
</g>
<!-- Node4 -->
<g id="node4" class="node">
<title>Node4</title>
<g id="a_node4"><a xlink:href="classv8_1_1Global.html#a83de768d39fbeb312f2f85603e77b047" target="_top" xlink:title=" ">
<polygon fill="white" stroke="#666666" points="118.75,-56.25 22.5,-56.25 22.5,-37 118.75,-37 118.75,-56.25"/>
<text text-anchor="middle" x="70.62" y="-42.75" font-family="Helvetica,sans-Serif" font-size="10.00">v8::Global::~Global</text>
</a>
</g>
</g>
<!-- Node1&#45;&gt;Node4 -->
<g id="edge3" class="edge">
<title>Node1&#45;&gt;Node4</title>
<path fill="none" stroke="#63b8ff" d="M166.35,-59.58C150.72,-57.45 134.02,-55.16 119.07,-53.12"/>
<polygon fill="#63b8ff" stroke="#63b8ff" points="165.6,-63.15 175.98,-61.04 166.54,-56.21 165.6,-63.15"/>
</g>
<!-- Node5 -->
<g id="node5" class="node">
<title>Node5</title>
<g id="a_node5"><a xlink:href="classv8_1_1Persistent.html#a4037b6a6b2b5b35a676e317e574ebe3c" target="_top" xlink:title=" ">
<polygon fill="white" stroke="#666666" points="135.25,-19.25 6,-19.25 6,0 135.25,0 135.25,-19.25"/>
<text text-anchor="middle" x="70.62" y="-5.75" font-family="Helvetica,sans-Serif" font-size="10.00">v8::Persistent::~Persistent</text>
</a>
</g>
</g>
<!-- Node1&#45;&gt;Node5 -->
<g id="edge4" class="edge">
<title>Node1&#45;&gt;Node5</title>
<path fill="none" stroke="#63b8ff" d="M186.1,-47.1C172.2,-40.3 156.26,-33.09 141.25,-27.62 133.15,-24.68 124.37,-22.01 115.84,-19.69"/>
<polygon fill="#63b8ff" stroke="#63b8ff" points="184.32,-50.62 194.83,-51.95 187.44,-44.36 184.32,-50.62"/>
</g>
</g>
</svg>
