<?xml version="1.0" encoding="UTF-8" standalone="no"?>
<!DOCTYPE svg PUBLIC "-//W3C//DTD SVG 1.1//EN"
 "http://www.w3.org/Graphics/SVG/1.1/DTD/svg11.dtd">
<!-- Generated by graphviz version 8.0.5 (20230430.1635)
 -->
<!-- Title: v8::PersistentValueMapBase::PersistentValueReference::NewLocal Pages: 1 -->
<svg width="327pt" height="143pt"
 viewBox="0.00 0.00 326.50 142.88" xmlns="http://www.w3.org/2000/svg" xmlns:xlink="http://www.w3.org/1999/xlink">
<g id="graph0" class="graph" transform="scale(1 1) rotate(0) translate(4 138.88)">
<title>v8::PersistentValueMapBase::PersistentValueReference::NewLocal</title>
<!-- Node1 -->
<g id="node1" class="node">
<title>Node1</title>
<g id="a_node1"><a xlink:title=" ">
<polygon fill="#999999" stroke="#666666" points="141.25,-91.5 0,-91.5 0,-49.75 141.25,-49.75 141.25,-91.5"/>
<text text-anchor="start" x="8" y="-78" font-family="Helvetica,sans-Serif" font-size="10.00">v8::PersistentValueMapBase</text>
<text text-anchor="start" x="8" y="-66.75" font-family="Helvetica,sans-Serif" font-size="10.00">::PersistentValueReference</text>
<text text-anchor="middle" x="70.62" y="-55.5" font-family="Helvetica,sans-Serif" font-size="10.00">::NewLocal</text>
</a>
</g>
</g>
<!-- Node2 -->
<g id="node2" class="node">
<title>Node2</title>
<g id="a_node2"><a xlink:href="classv8_1_1PersistentValueMapBase.html#abb262f768e4353658726ba4d1295947c" target="_top" xlink:title=" ">
<polygon fill="white" stroke="#666666" points="318.5,-134.88 177.25,-134.88 177.25,-104.38 318.5,-104.38 318.5,-134.88"/>
<text text-anchor="start" x="185.25" y="-121.38" font-family="Helvetica,sans-Serif" font-size="10.00">v8::PersistentValueMapBase</text>
<text text-anchor="middle" x="247.88" y="-110.12" font-family="Helvetica,sans-Serif" font-size="10.00">::FromVal</text>
</a>
</g>
</g>
<!-- Node1&#45;&gt;Node2 -->
<g id="edge1" class="edge">
<title>Node1&#45;&gt;Node2</title>
<path fill="none" stroke="#63b8ff" d="M141.64,-90.2C154.38,-93.76 167.64,-97.47 180.27,-101"/>
<polygon fill="#63b8ff" stroke="#63b8ff" points="179.14,-104.6 189.71,-103.92 181.02,-97.86 179.14,-104.6"/>
</g>
<!-- Node3 -->
<g id="node3" class="node">
<title>Node3</title>
<g id="a_node3"><a xlink:href="classv8_1_1PersistentValueMapBase.html#ac15c999275fb50c0084246cb9a848811" target="_top" xlink:title=" ">
<polygon fill="white" stroke="#666666" points="318.5,-85.88 177.25,-85.88 177.25,-55.38 318.5,-55.38 318.5,-85.88"/>
<text text-anchor="start" x="185.25" y="-72.38" font-family="Helvetica,sans-Serif" font-size="10.00">v8::PersistentValueMapBase</text>
<text text-anchor="middle" x="247.88" y="-61.12" font-family="Helvetica,sans-Serif" font-size="10.00">::isolate</text>
</a>
</g>
</g>
<!-- Node1&#45;&gt;Node3 -->
<g id="edge2" class="edge">
<title>Node1&#45;&gt;Node3</title>
<path fill="none" stroke="#63b8ff" d="M141.64,-70.62C149.73,-70.62 158.03,-70.62 166.24,-70.62"/>
<polygon fill="#63b8ff" stroke="#63b8ff" points="165.97,-74.13 175.97,-70.62 165.97,-67.13 165.97,-74.13"/>
</g>
<!-- Node4 -->
<g id="node4" class="node">
<title>Node4</title>
<g id="a_node4"><a xlink:href="classv8_1_1Local.html#abccf96e442bc7c20dc6bb18ab095cf7f" target="_top" xlink:title=" ">
<polygon fill="white" stroke="#666666" points="287.75,-19.25 208,-19.25 208,0 287.75,0 287.75,-19.25"/>
<text text-anchor="middle" x="247.88" y="-5.75" font-family="Helvetica,sans-Serif" font-size="10.00">v8::Local::New</text>
</a>
</g>
</g>
<!-- Node1&#45;&gt;Node4 -->
<g id="edge3" class="edge">
<title>Node1&#45;&gt;Node4</title>
<path fill="none" stroke="#63b8ff" d="M132.92,-49.29C157.69,-40.67 185.55,-30.97 207.53,-23.32"/>
<polygon fill="#63b8ff" stroke="#63b8ff" points="208.51,-26.34 216.8,-19.74 206.21,-19.73 208.51,-26.34"/>
</g>
<!-- Node4&#45;&gt;Node4 -->
<g id="edge4" class="edge">
<title>Node4&#45;&gt;Node4</title>
<path fill="none" stroke="#63b8ff" d="M220.13,-19.54C207.47,-28.15 216.72,-37.25 247.88,-37.25 266.86,-37.25 277.71,-33.87 280.43,-29.28"/>
<polygon fill="#63b8ff" stroke="#63b8ff" points="283.19,-27.96 275.62,-20.54 276.91,-31.05 283.19,-27.96"/>
</g>
</g>
</svg>
