<?xml version="1.0" encoding="UTF-8" standalone="no"?>
<!DOCTYPE svg PUBLIC "-//W3C//DTD SVG 1.1//EN"
 "http://www.w3.org/Graphics/SVG/1.1/DTD/svg11.dtd">
<!-- Generated by graphviz version 8.0.5 (20230430.1635)
 -->
<!-- Title: include/cppgc/heap.h Pages: 1 -->
<svg width="451pt" height="337pt"
 viewBox="0.00 0.00 450.75 337.25" xmlns="http://www.w3.org/2000/svg" xmlns:xlink="http://www.w3.org/1999/xlink">
<g id="graph0" class="graph" transform="scale(1 1) rotate(0) translate(4 333.25)">
<title>include/cppgc/heap.h</title>
<!-- Node1 -->
<g id="node1" class="node">
<title>Node1</title>
<g id="a_node1"><a xlink:title=" ">
<polygon fill="#999999" stroke="#666666" points="152,-329.25 44.5,-329.25 44.5,-310 152,-310 152,-329.25"/>
<text text-anchor="middle" x="98.25" y="-315.75" font-family="Helvetica,sans-Serif" font-size="10.00">include/cppgc/heap.h</text>
</a>
</g>
</g>
<!-- Node2 -->
<g id="node2" class="node">
<title>Node2</title>
<g id="a_node2"><a xlink:href="prefinalizer-handler_8h.html" target="_top" xlink:title=" ">
<polygon fill="white" stroke="#666666" points="110.5,-207.5 0,-207.5 0,-177 110.5,-177 110.5,-207.5"/>
<text text-anchor="start" x="8" y="-194" font-family="Helvetica,sans-Serif" font-size="10.00">include/cppgc/internal</text>
<text text-anchor="middle" x="55.25" y="-182.75" font-family="Helvetica,sans-Serif" font-size="10.00">/prefinalizer&#45;handler.h</text>
</a>
</g>
</g>
<!-- Node1&#45;&gt;Node2 -->
<g id="edge1" class="edge">
<title>Node1&#45;&gt;Node2</title>
<path fill="none" stroke="#63b8ff" d="M87.06,-300.44C82.58,-292.54 77.67,-283.04 74.25,-274 65.78,-251.64 60.3,-224.33 57.5,-207.88"/>
<polygon fill="#63b8ff" stroke="#63b8ff" points="84.46,-301.9 92.56,-308.73 90.48,-298.34 84.46,-301.9"/>
</g>
<!-- Node4 -->
<g id="node4" class="node">
<title>Node4</title>
<g id="a_node4"><a xlink:href="liveness-broker_8h.html" target="_top" xlink:title=" ">
<polygon fill="white" stroke="#666666" points="198.75,-274 83.75,-274 83.75,-243.5 198.75,-243.5 198.75,-274"/>
<text text-anchor="start" x="91.75" y="-260.5" font-family="Helvetica,sans-Serif" font-size="10.00">include/cppgc/liveness</text>
<text text-anchor="middle" x="141.25" y="-249.25" font-family="Helvetica,sans-Serif" font-size="10.00">&#45;broker.h</text>
</a>
</g>
</g>
<!-- Node1&#45;&gt;Node4 -->
<g id="edge3" class="edge">
<title>Node1&#45;&gt;Node4</title>
<path fill="none" stroke="#63b8ff" d="M111.17,-300.93C117.39,-292.42 124.75,-282.34 130.64,-274.28"/>
<polygon fill="#63b8ff" stroke="#63b8ff" points="107.85,-298.54 104.78,-308.68 113.51,-302.67 107.85,-298.54"/>
</g>
<!-- Node3 -->
<g id="node3" class="node">
<title>Node3</title>
<g id="a_node3"><a xlink:href="prefinalizer_8h.html" target="_top" xlink:title=" ">
<polygon fill="white" stroke="#666666" points="171.38,-141 39.12,-141 39.12,-121.75 171.38,-121.75 171.38,-141"/>
<text text-anchor="middle" x="105.25" y="-127.5" font-family="Helvetica,sans-Serif" font-size="10.00">include/cppgc/prefinalizer.h</text>
</a>
</g>
</g>
<!-- Node2&#45;&gt;Node3 -->
<g id="edge2" class="edge">
<title>Node2&#45;&gt;Node3</title>
<path fill="none" stroke="#63b8ff" d="M74.63,-168.43C82.63,-159.02 91.43,-148.64 97.54,-141.45"/>
<polygon fill="#63b8ff" stroke="#63b8ff" points="71.42,-165.81 67.61,-175.7 76.75,-170.34 71.42,-165.81"/>
</g>
<!-- Node4&#45;&gt;Node2 -->
<g id="edge10" class="edge">
<title>Node4&#45;&gt;Node2</title>
<path fill="none" stroke="#63b8ff" d="M113.01,-236.57C100.46,-227.16 86,-216.31 74.69,-207.83"/>
<polygon fill="#63b8ff" stroke="#63b8ff" points="110.64,-239.91 120.74,-243.11 114.84,-234.31 110.64,-239.91"/>
</g>
<!-- Node4&#45;&gt;Node3 -->
<g id="edge11" class="edge">
<title>Node4&#45;&gt;Node3</title>
<path fill="none" stroke="#63b8ff" d="M134.64,-232.5C130.39,-216.54 124.67,-195.51 119.25,-177 115.6,-164.53 111.04,-150.22 108.14,-141.23"/>
<polygon fill="#63b8ff" stroke="#63b8ff" points="131.5,-233.34 137.44,-242.12 138.27,-231.55 131.5,-233.34"/>
</g>
<!-- Node5 -->
<g id="node5" class="node">
<title>Node5</title>
<g id="a_node5"><a xlink:href="ephemeron-pair_8h.html" target="_top" xlink:title=" ">
<polygon fill="white" stroke="#666666" points="293.75,-207.5 166.75,-207.5 166.75,-177 293.75,-177 293.75,-207.5"/>
<text text-anchor="start" x="174.75" y="-194" font-family="Helvetica,sans-Serif" font-size="10.00">include/cppgc/ephemeron</text>
<text text-anchor="middle" x="230.25" y="-182.75" font-family="Helvetica,sans-Serif" font-size="10.00">&#45;pair.h</text>
</a>
</g>
</g>
<!-- Node4&#45;&gt;Node5 -->
<g id="edge4" class="edge">
<title>Node4&#45;&gt;Node5</title>
<path fill="none" stroke="#63b8ff" d="M170.1,-236.84C183.18,-227.37 198.31,-216.39 210.13,-207.83"/>
<polygon fill="#63b8ff" stroke="#63b8ff" points="168.49,-234.41 162.45,-243.11 172.6,-240.08 168.49,-234.41"/>
</g>
<!-- Node6 -->
<g id="node6" class="node">
<title>Node6</title>
<g id="a_node6"><a xlink:href="visitor_8h.html" target="_top" xlink:title=" ">
<polygon fill="white" stroke="#666666" points="319.62,-141 206.88,-141 206.88,-121.75 319.62,-121.75 319.62,-141"/>
<text text-anchor="middle" x="263.25" y="-127.5" font-family="Helvetica,sans-Serif" font-size="10.00">include/cppgc/visitor.h</text>
</a>
</g>
</g>
<!-- Node4&#45;&gt;Node6 -->
<g id="edge12" class="edge">
<title>Node4&#45;&gt;Node6</title>
<path fill="none" stroke="#63b8ff" d="M209.83,-254.73C243.7,-249.34 281.81,-236.59 303.25,-207.5 319.47,-185.49 291.36,-156.06 274.52,-141.43"/>
<polygon fill="#63b8ff" stroke="#63b8ff" points="209.43,-251.39 200.01,-256.23 210.39,-258.32 209.43,-251.39"/>
</g>
<!-- Node5&#45;&gt;Node6 -->
<g id="edge5" class="edge">
<title>Node5&#45;&gt;Node6</title>
<path fill="none" stroke="#63b8ff" d="M243.69,-167.28C248.79,-158.17 254.3,-148.35 258.16,-141.45"/>
<polygon fill="#63b8ff" stroke="#63b8ff" points="240.24,-165.26 238.41,-175.7 246.35,-168.68 240.24,-165.26"/>
</g>
<!-- Node7 -->
<g id="node7" class="node">
<title>Node7</title>
<g id="a_node7"><a xlink:href="cross-thread-persistent_8h.html" target="_top" xlink:title=" ">
<polygon fill="white" stroke="#666666" points="267.75,-30.5 164.75,-30.5 164.75,0 267.75,0 267.75,-30.5"/>
<text text-anchor="start" x="172.75" y="-17" font-family="Helvetica,sans-Serif" font-size="10.00">include/cppgc/cross</text>
<text text-anchor="middle" x="216.25" y="-5.75" font-family="Helvetica,sans-Serif" font-size="10.00">&#45;thread&#45;persistent.h</text>
</a>
</g>
</g>
<!-- Node6&#45;&gt;Node7 -->
<g id="edge6" class="edge">
<title>Node6&#45;&gt;Node7</title>
<path fill="none" stroke="#63b8ff" d="M225.26,-116.83C211.37,-109.82 197.15,-99.73 189.25,-85.75 179.13,-67.83 192,-45.36 203.2,-30.9"/>
<polygon fill="#63b8ff" stroke="#63b8ff" points="223.66,-120.41 234.21,-121.4 226.58,-114.05 223.66,-120.41"/>
</g>
<!-- Node8 -->
<g id="node8" class="node">
<title>Node8</title>
<g id="a_node8"><a xlink:href="persistent_8h.html" target="_top" xlink:title=" ">
<polygon fill="white" stroke="#666666" points="327.88,-85.75 198.62,-85.75 198.62,-66.5 327.88,-66.5 327.88,-85.75"/>
<text text-anchor="middle" x="263.25" y="-72.25" font-family="Helvetica,sans-Serif" font-size="10.00">include/cppgc/persistent.h</text>
</a>
</g>
</g>
<!-- Node6&#45;&gt;Node8 -->
<g id="edge7" class="edge">
<title>Node6&#45;&gt;Node8</title>
<path fill="none" stroke="#63b8ff" d="M263.25,-110.71C263.25,-102.27 263.25,-92.83 263.25,-86.11"/>
<polygon fill="#63b8ff" stroke="#63b8ff" points="259.75,-110.58 263.25,-120.58 266.75,-110.58 259.75,-110.58"/>
</g>
<!-- Node9 -->
<g id="node9" class="node">
<title>Node9</title>
<g id="a_node9"><a xlink:href="v8-cppgc_8h.html" target="_top" xlink:title=" ">
<polygon fill="white" stroke="#666666" points="442.75,-85.75 345.75,-85.75 345.75,-66.5 442.75,-66.5 442.75,-85.75"/>
<text text-anchor="middle" x="394.25" y="-72.25" font-family="Helvetica,sans-Serif" font-size="10.00">include/v8&#45;cppgc.h</text>
</a>
</g>
</g>
<!-- Node6&#45;&gt;Node9 -->
<g id="edge9" class="edge">
<title>Node6&#45;&gt;Node9</title>
<path fill="none" stroke="#63b8ff" d="M295.43,-117.29C319.18,-107.64 350.9,-94.75 371.92,-86.2"/>
<polygon fill="#63b8ff" stroke="#63b8ff" points="294.42,-114.33 286.47,-121.34 297.05,-120.82 294.42,-114.33"/>
</g>
<!-- Node8&#45;&gt;Node7 -->
<g id="edge8" class="edge">
<title>Node8&#45;&gt;Node7</title>
<path fill="none" stroke="#63b8ff" d="M249.34,-57.7C242.5,-49.13 234.35,-38.92 227.85,-30.78"/>
<polygon fill="#63b8ff" stroke="#63b8ff" points="247.14,-59.55 256.11,-65.18 252.61,-55.18 247.14,-59.55"/>
</g>
</g>
</svg>
