<?xml version="1.0" encoding="UTF-8" standalone="no"?>
<!DOCTYPE svg PUBLIC "-//W3C//DTD SVG 1.1//EN"
 "http://www.w3.org/Graphics/SVG/1.1/DTD/svg11.dtd">
<!-- Generated by graphviz version 8.0.5 (20230430.1635)
 -->
<!-- Title: Graphical Class Hierarchy Pages: 1 -->
<svg width="412pt" height="186pt"
 viewBox="0.00 0.00 412.25 185.50" xmlns="http://www.w3.org/2000/svg" xmlns:xlink="http://www.w3.org/1999/xlink">
<g id="graph0" class="graph" transform="scale(1 1) rotate(0) translate(4 181.5)">
<title>Graphical Class Hierarchy</title>
<!-- Node0 -->
<g id="node1" class="node">
<title>Node0</title>
<g id="a_node1"><a xlink:title=" ">
<polygon fill="#e0e0e0" stroke="#999999" points="108.25,-97.88 0,-97.88 0,-78.62 108.25,-78.62 108.25,-97.88"/>
<text text-anchor="middle" x="54.12" y="-84.38" font-family="Helvetica,sans-Serif" font-size="10.00">std::integral_constant</text>
</a>
</g>
</g>
<!-- Node1 -->
<g id="node2" class="node">
<title>Node1</title>
<g id="a_node2"><a xlink:href="structv8_1_1internal_1_1count.html" target="_top" xlink:title=" ">
<polygon fill="white" stroke="#666666" points="256.25,-177.5 165.25,-177.5 165.25,-147 256.25,-147 256.25,-177.5"/>
<text text-anchor="start" x="173.25" y="-164" font-family="Helvetica,sans-Serif" font-size="10.00">v8::internal::count</text>
<text text-anchor="middle" x="210.75" y="-152.75" font-family="Helvetica,sans-Serif" font-size="10.00">&lt; T, Args... &gt;</text>
</a>
</g>
</g>
<!-- Node0&#45;&gt;Node1 -->
<g id="edge1" class="edge">
<title>Node0&#45;&gt;Node1</title>
<path fill="none" stroke="#63b8ff" d="M80.89,-103.65C98.43,-113.83 122.35,-127.11 144.25,-137.25 151.21,-140.47 158.71,-143.62 166.06,-146.54"/>
<polygon fill="#63b8ff" stroke="#63b8ff" points="83.25,-100.39 72.85,-98.36 79.71,-106.43 83.25,-100.39"/>
</g>
<!-- Node3 -->
<g id="node4" class="node">
<title>Node3</title>
<g id="a_node4"><a xlink:href="structcppgc_1_1internal_1_1IsGarbageCollectedOrMixinType.html" target="_top" xlink:title=" ">
<polygon fill="white" stroke="#666666" points="277.25,-128.5 144.25,-128.5 144.25,-98 277.25,-98 277.25,-128.5"/>
<text text-anchor="start" x="152.25" y="-115" font-family="Helvetica,sans-Serif" font-size="10.00">cppgc::internal::IsGarbage</text>
<text text-anchor="middle" x="210.75" y="-103.75" font-family="Helvetica,sans-Serif" font-size="10.00">CollectedOrMixinType&lt; T &gt;</text>
</a>
</g>
</g>
<!-- Node0&#45;&gt;Node3 -->
<g id="edge3" class="edge">
<title>Node0&#45;&gt;Node3</title>
<path fill="none" stroke="#63b8ff" d="M118.98,-98.57C127.2,-99.9 135.62,-101.26 143.87,-102.6"/>
<polygon fill="#63b8ff" stroke="#63b8ff" points="119.77,-94.99 109.34,-96.85 118.65,-101.9 119.77,-94.99"/>
</g>
<!-- Node4 -->
<g id="node5" class="node">
<title>Node4</title>
<g id="a_node5"><a xlink:href="structv8_1_1internal_1_1count.html" target="_top" xlink:title=" ">
<polygon fill="white" stroke="#666666" points="256.25,-79.5 165.25,-79.5 165.25,-49 256.25,-49 256.25,-79.5"/>
<text text-anchor="start" x="173.25" y="-66" font-family="Helvetica,sans-Serif" font-size="10.00">v8::internal::count</text>
<text text-anchor="middle" x="210.75" y="-54.75" font-family="Helvetica,sans-Serif" font-size="10.00">&lt; T, List &gt;</text>
</a>
</g>
</g>
<!-- Node0&#45;&gt;Node4 -->
<g id="edge4" class="edge">
<title>Node0&#45;&gt;Node4</title>
<path fill="none" stroke="#63b8ff" d="M118.89,-78.35C134.35,-75.95 150.55,-73.44 164.92,-71.21"/>
<polygon fill="#63b8ff" stroke="#63b8ff" points="118.68,-75 109.34,-79.99 119.76,-81.92 118.68,-75"/>
</g>
<!-- Node5 -->
<g id="node6" class="node">
<title>Node5</title>
<g id="a_node6"><a xlink:href="structv8_1_1internal_1_1count_3_01T_00_01T_00_01Args_8_8_8_01_4.html" target="_top" xlink:title=" ">
<polygon fill="white" stroke="#666666" points="256.25,-30.5 165.25,-30.5 165.25,0 256.25,0 256.25,-30.5"/>
<text text-anchor="start" x="173.25" y="-17" font-family="Helvetica,sans-Serif" font-size="10.00">v8::internal::count</text>
<text text-anchor="middle" x="210.75" y="-5.75" font-family="Helvetica,sans-Serif" font-size="10.00">&lt; T, T, Args... &gt;</text>
</a>
</g>
</g>
<!-- Node0&#45;&gt;Node5 -->
<g id="edge5" class="edge">
<title>Node0&#45;&gt;Node5</title>
<path fill="none" stroke="#63b8ff" d="M81.74,-72.74C99.22,-62.86 122.74,-50.1 144.25,-40.25 151.33,-37.01 158.97,-33.82 166.44,-30.87"/>
<polygon fill="#63b8ff" stroke="#63b8ff" points="80.15,-70.19 73.21,-78.19 83.63,-76.27 80.15,-70.19"/>
</g>
<!-- Node2 -->
<g id="node3" class="node">
<title>Node2</title>
<g id="a_node3"><a xlink:href="structv8_1_1internal_1_1count_3_01T_00_01U_00_01Args_8_8_8_01_4.html" target="_top" xlink:title=" ">
<polygon fill="white" stroke="#666666" points="404.25,-177.5 313.25,-177.5 313.25,-147 404.25,-147 404.25,-177.5"/>
<text text-anchor="start" x="321.25" y="-164" font-family="Helvetica,sans-Serif" font-size="10.00">v8::internal::count</text>
<text text-anchor="middle" x="358.75" y="-152.75" font-family="Helvetica,sans-Serif" font-size="10.00">&lt; T, U, Args... &gt;</text>
</a>
</g>
</g>
<!-- Node1&#45;&gt;Node2 -->
<g id="edge2" class="edge">
<title>Node1&#45;&gt;Node2</title>
<path fill="none" stroke="#63b8ff" d="M267.46,-162.25C282.49,-162.25 298.55,-162.25 312.9,-162.25"/>
<polygon fill="#63b8ff" stroke="#63b8ff" points="267.75,-158.75 257.75,-162.25 267.75,-165.75 267.75,-158.75"/>
</g>
</g>
</svg>
