<?xml version="1.0" encoding="UTF-8" standalone="no"?>
<!DOCTYPE svg PUBLIC "-//W3C//DTD SVG 1.1//EN"
 "http://www.w3.org/Graphics/SVG/1.1/DTD/svg11.dtd">
<!-- Generated by graphviz version 8.0.5 (20230430.1635)
 -->
<!-- Title: include/cppgc/internal/name&#45;trait.h Pages: 1 -->
<svg width="283pt" height="149pt"
 viewBox="0.00 0.00 282.88 149.00" xmlns="http://www.w3.org/2000/svg" xmlns:xlink="http://www.w3.org/1999/xlink">
<g id="graph0" class="graph" transform="scale(1 1) rotate(0) translate(4 145)">
<title>include/cppgc/internal/name&#45;trait.h</title>
<!-- Node1 -->
<g id="node1" class="node">
<title>Node1</title>
<g id="a_node1"><a xlink:title=" ">
<polygon fill="#999999" stroke="#666666" points="205.38,-141 94.88,-141 94.88,-110.5 205.38,-110.5 205.38,-141"/>
<text text-anchor="start" x="102.88" y="-127.5" font-family="Helvetica,sans-Serif" font-size="10.00">include/cppgc/internal</text>
<text text-anchor="middle" x="150.12" y="-116.25" font-family="Helvetica,sans-Serif" font-size="10.00">/name&#45;trait.h</text>
</a>
</g>
</g>
<!-- Node2 -->
<g id="node2" class="node">
<title>Node2</title>
<g id="a_node2"><a xlink:title=" ">
<polygon fill="#e0e0e0" stroke="#999999" points="48.25,-74.5 0,-74.5 0,-55.25 48.25,-55.25 48.25,-74.5"/>
<text text-anchor="middle" x="24.12" y="-61" font-family="Helvetica,sans-Serif" font-size="10.00">cstddef</text>
</a>
</g>
</g>
<!-- Node1&#45;&gt;Node2 -->
<g id="edge1" class="edge">
<title>Node1&#45;&gt;Node2</title>
<path fill="none" stroke="#63b8ff" d="M118.65,-110.05C98.64,-100.69 72.89,-88.66 53.33,-79.52"/>
<polygon fill="#63b8ff" stroke="#63b8ff" points="54.99,-75.97 44.45,-74.9 52.03,-82.31 54.99,-75.97"/>
</g>
<!-- Node3 -->
<g id="node3" class="node">
<title>Node3</title>
<g id="a_node3"><a xlink:title=" ">
<polygon fill="#e0e0e0" stroke="#999999" points="127.62,-74.5 66.62,-74.5 66.62,-55.25 127.62,-55.25 127.62,-74.5"/>
<text text-anchor="middle" x="97.12" y="-61" font-family="Helvetica,sans-Serif" font-size="10.00">type_traits</text>
</a>
</g>
</g>
<!-- Node1&#45;&gt;Node3 -->
<g id="edge2" class="edge">
<title>Node1&#45;&gt;Node3</title>
<path fill="none" stroke="#63b8ff" d="M137.02,-110.2C129.57,-101.92 120.21,-91.52 112.42,-82.87"/>
<polygon fill="#63b8ff" stroke="#63b8ff" points="115.59,-81.04 106.3,-75.95 110.38,-85.73 115.59,-81.04"/>
</g>
<!-- Node4 -->
<g id="node4" class="node">
<title>Node4</title>
<g id="a_node4"><a xlink:href="name-provider_8h.html" target="_top" xlink:title=" ">
<polygon fill="white" stroke="#666666" points="260.25,-74.5 146,-74.5 146,-55.25 260.25,-55.25 260.25,-74.5"/>
<text text-anchor="middle" x="203.12" y="-61" font-family="Helvetica,sans-Serif" font-size="10.00">cppgc/name&#45;provider.h</text>
</a>
</g>
</g>
<!-- Node1&#45;&gt;Node4 -->
<g id="edge3" class="edge">
<title>Node1&#45;&gt;Node4</title>
<path fill="none" stroke="#63b8ff" d="M163.23,-110.2C170.68,-101.92 180.04,-91.52 187.83,-82.87"/>
<polygon fill="#63b8ff" stroke="#63b8ff" points="189.87,-85.73 193.95,-75.95 184.66,-81.04 189.87,-85.73"/>
</g>
<!-- Node5 -->
<g id="node5" class="node">
<title>Node5</title>
<g id="a_node5"><a xlink:href="v8config_8h.html" target="_top" xlink:title=" ">
<polygon fill="white" stroke="#666666" points="274.88,-19.25 215.38,-19.25 215.38,0 274.88,0 274.88,-19.25"/>
<text text-anchor="middle" x="245.12" y="-5.75" font-family="Helvetica,sans-Serif" font-size="10.00">v8config.h</text>
</a>
</g>
</g>
<!-- Node1&#45;&gt;Node5 -->
<g id="edge5" class="edge">
<title>Node1&#45;&gt;Node5</title>
<path fill="none" stroke="#63b8ff" d="M205.69,-115.37C229.41,-108.32 254.87,-95.99 269.12,-74.5 278.7,-60.06 269.5,-41.27 259.86,-27.82"/>
<polygon fill="#63b8ff" stroke="#63b8ff" points="262.25,-26.19 253.33,-20.47 256.73,-30.51 262.25,-26.19"/>
</g>
<!-- Node4&#45;&gt;Node5 -->
<g id="edge4" class="edge">
<title>Node4&#45;&gt;Node5</title>
<path fill="none" stroke="#63b8ff" d="M210.06,-55.08C215.8,-47.8 224.14,-37.23 231.24,-28.23"/>
<polygon fill="#63b8ff" stroke="#63b8ff" points="234.59,-30.63 238.04,-20.61 229.1,-26.29 234.59,-30.63"/>
</g>
</g>
</svg>
