<?xml version="1.0" encoding="UTF-8" standalone="no"?>
<!DOCTYPE svg PUBLIC "-//W3C//DTD SVG 1.1//EN"
 "http://www.w3.org/Graphics/SVG/1.1/DTD/svg11.dtd">
<!-- Generated by graphviz version 8.0.5 (20230430.1635)
 -->
<!-- Title: include/v8&#45;maybe.h Pages: 1 -->
<svg width="1659pt" height="514pt"
 viewBox="0.00 0.00 1659.14 514.25" xmlns="http://www.w3.org/2000/svg" xmlns:xlink="http://www.w3.org/1999/xlink">
<g id="graph0" class="graph" transform="scale(1 1) rotate(0) translate(4 510.25)">
<title>include/v8&#45;maybe.h</title>
<!-- Node1 -->
<g id="node1" class="node">
<title>Node1</title>
<g id="a_node1"><a xlink:title=" ">
<polygon fill="#999999" stroke="#666666" points="1489.12,-506.25 1389.88,-506.25 1389.88,-487 1489.12,-487 1489.12,-506.25"/>
<text text-anchor="middle" x="1439.5" y="-492.75" font-family="Helvetica,sans-Serif" font-size="10.00">include/v8&#45;maybe.h</text>
</a>
</g>
</g>
<!-- Node2 -->
<g id="node2" class="node">
<title>Node2</title>
<g id="a_node2"><a xlink:href="v8-message_8h.html" target="_top" xlink:title=" ">
<polygon fill="white" stroke="#666666" points="1340.75,-334.88 1230.25,-334.88 1230.25,-315.62 1340.75,-315.62 1340.75,-334.88"/>
<text text-anchor="middle" x="1285.5" y="-321.38" font-family="Helvetica,sans-Serif" font-size="10.00">include/v8&#45;message.h</text>
</a>
</g>
</g>
<!-- Node1&#45;&gt;Node2 -->
<g id="edge1" class="edge">
<title>Node1&#45;&gt;Node2</title>
<path fill="none" stroke="#63b8ff" d="M1427.95,-477.48C1411.97,-453.09 1381.43,-409.03 1349.5,-376.5 1333.67,-360.37 1312.63,-344.77 1299.07,-335.34"/>
<polygon fill="#63b8ff" stroke="#63b8ff" points="1425.51,-479.14 1433.88,-485.64 1431.39,-475.34 1425.51,-479.14"/>
</g>
<!-- Node4 -->
<g id="node4" class="node">
<title>Node4</title>
<g id="a_node4"><a xlink:href="v8_8h.html" target="_top" xlink:title=" ">
<polygon fill="white" stroke="#666666" points="886.38,-24.88 818.62,-24.88 818.62,-5.63 886.38,-5.63 886.38,-24.88"/>
<text text-anchor="middle" x="852.5" y="-11.38" font-family="Helvetica,sans-Serif" font-size="10.00">include/v8.h</text>
</a>
</g>
</g>
<!-- Node1&#45;&gt;Node4 -->
<g id="edge63" class="edge">
<title>Node1&#45;&gt;Node4</title>
<path fill="none" stroke="#63b8ff" d="M1500.34,-488.21C1549.2,-481.06 1612.67,-468.72 1631.5,-451 1653.07,-430.7 1650.5,-416.74 1650.5,-387.12 1650.5,-387.12 1650.5,-387.12 1650.5,-141.62 1650.5,-91.21 1612,-86 1565.5,-66.5 1440.76,-14.19 1011.43,-14.53 886.72,-15.79"/>
<polygon fill="#63b8ff" stroke="#63b8ff" points="1499.93,-484.87 1490.52,-489.74 1500.92,-491.8 1499.93,-484.87"/>
</g>
<!-- Node6 -->
<g id="node6" class="node">
<title>Node6</title>
<g id="a_node6"><a xlink:href="v8-script_8h.html" target="_top" xlink:title=" ">
<polygon fill="white" stroke="#666666" points="1504.88,-274 1410.12,-274 1410.12,-254.75 1504.88,-254.75 1504.88,-274"/>
<text text-anchor="middle" x="1457.5" y="-260.5" font-family="Helvetica,sans-Serif" font-size="10.00">include/v8&#45;script.h</text>
</a>
</g>
</g>
<!-- Node1&#45;&gt;Node6 -->
<g id="edge42" class="edge">
<title>Node1&#45;&gt;Node6</title>
<path fill="none" stroke="#63b8ff" d="M1441.04,-475.87C1444.78,-428.04 1454.21,-307.52 1456.82,-274.09"/>
<polygon fill="#63b8ff" stroke="#63b8ff" points="1437.5,-475.36 1440.21,-485.6 1444.47,-475.9 1437.5,-475.36"/>
</g>
<!-- Node7 -->
<g id="node7" class="node">
<title>Node7</title>
<g id="a_node7"><a xlink:href="v8-object_8h.html" target="_top" xlink:title=" ">
<polygon fill="white" stroke="#666666" points="590,-334.88 493,-334.88 493,-315.62 590,-315.62 590,-334.88"/>
<text text-anchor="middle" x="541.5" y="-321.38" font-family="Helvetica,sans-Serif" font-size="10.00">include/v8&#45;object.h</text>
</a>
</g>
</g>
<!-- Node1&#45;&gt;Node7 -->
<g id="edge8" class="edge">
<title>Node1&#45;&gt;Node7</title>
<path fill="none" stroke="#63b8ff" d="M1378.73,-492.38C1214.57,-482.93 765.38,-452.49 629.5,-395.75 595.73,-381.65 564.1,-350.78 549.68,-335.37"/>
<polygon fill="#63b8ff" stroke="#63b8ff" points="1378.41,-495.92 1388.59,-492.99 1378.81,-488.93 1378.41,-495.92"/>
</g>
<!-- Node24 -->
<g id="node24" class="node">
<title>Node24</title>
<g id="a_node24"><a xlink:href="v8-value-serializer_8h.html" target="_top" xlink:title=" ">
<polygon fill="white" stroke="#666666" points="1622.12,-451 1486.88,-451 1486.88,-431.75 1622.12,-431.75 1622.12,-451"/>
<text text-anchor="middle" x="1554.5" y="-437.5" font-family="Helvetica,sans-Serif" font-size="10.00">include/v8&#45;value&#45;serializer.h</text>
</a>
</g>
</g>
<!-- Node1&#45;&gt;Node24 -->
<g id="edge43" class="edge">
<title>Node1&#45;&gt;Node24</title>
<path fill="none" stroke="#63b8ff" d="M1468.88,-482.02C1489.6,-472.43 1516.77,-459.84 1534.9,-451.45"/>
<polygon fill="#63b8ff" stroke="#63b8ff" points="1467.61,-479.21 1460.01,-486.59 1470.55,-485.57 1467.61,-479.21"/>
</g>
<!-- Node25 -->
<g id="node25" class="node">
<title>Node25</title>
<g id="a_node25"><a xlink:href="v8-value_8h.html" target="_top" xlink:title=" ">
<polygon fill="white" stroke="#666666" points="1266.5,-451 1172.5,-451 1172.5,-431.75 1266.5,-431.75 1266.5,-451"/>
<text text-anchor="middle" x="1219.5" y="-437.5" font-family="Helvetica,sans-Serif" font-size="10.00">include/v8&#45;value.h</text>
</a>
</g>
</g>
<!-- Node1&#45;&gt;Node25 -->
<g id="edge45" class="edge">
<title>Node1&#45;&gt;Node25</title>
<path fill="none" stroke="#63b8ff" d="M1391.51,-484.01C1351.11,-474.23 1294.13,-460.44 1257,-451.45"/>
<polygon fill="#63b8ff" stroke="#63b8ff" points="1390.64,-487.64 1401.18,-486.59 1392.28,-480.84 1390.64,-487.64"/>
</g>
<!-- Node3 -->
<g id="node3" class="node">
<title>Node3</title>
<g id="a_node3"><a xlink:href="v8-function_8h.html" target="_top" xlink:title=" ">
<polygon fill="white" stroke="#666666" points="1008.12,-213.12 902.88,-213.12 902.88,-193.88 1008.12,-193.88 1008.12,-213.12"/>
<text text-anchor="middle" x="955.5" y="-199.62" font-family="Helvetica,sans-Serif" font-size="10.00">include/v8&#45;function.h</text>
</a>
</g>
</g>
<!-- Node2&#45;&gt;Node3 -->
<g id="edge2" class="edge">
<title>Node2&#45;&gt;Node3</title>
<path fill="none" stroke="#63b8ff" d="M1250.36,-311.5C1183.34,-287.18 1038.75,-234.71 980.54,-213.59"/>
<polygon fill="#63b8ff" stroke="#63b8ff" points="1248.83,-315.03 1259.43,-315.15 1251.22,-308.45 1248.83,-315.03"/>
</g>
<!-- Node2&#45;&gt;Node4 -->
<g id="edge7" class="edge">
<title>Node2&#45;&gt;Node4</title>
<path fill="none" stroke="#63b8ff" d="M1269.31,-307.5C1261.15,-298.26 1251.69,-286.21 1245.5,-274 1231.01,-245.44 1226.5,-236.52 1226.5,-204.5 1226.5,-204.5 1226.5,-204.5 1226.5,-141.62 1226.5,-106.57 1229.26,-89.14 1202.5,-66.5 1155.22,-26.51 965.08,-18.34 886.62,-16.68"/>
<polygon fill="#63b8ff" stroke="#63b8ff" points="1266.24,-309.43 1275.59,-314.42 1271.39,-304.69 1266.24,-309.43"/>
</g>
<!-- Node5 -->
<g id="node5" class="node">
<title>Node5</title>
<g id="a_node5"><a xlink:href="v8-profiler_8h.html" target="_top" xlink:title=" ">
<polygon fill="white" stroke="#666666" points="1354.12,-274 1254.88,-274 1254.88,-254.75 1354.12,-254.75 1354.12,-274"/>
<text text-anchor="middle" x="1304.5" y="-260.5" font-family="Helvetica,sans-Serif" font-size="10.00">include/v8&#45;profiler.h</text>
</a>
</g>
</g>
<!-- Node2&#45;&gt;Node5 -->
<g id="edge4" class="edge">
<title>Node2&#45;&gt;Node5</title>
<path fill="none" stroke="#63b8ff" d="M1291.66,-305.15C1295,-294.83 1298.96,-282.56 1301.59,-274.4"/>
<polygon fill="#63b8ff" stroke="#63b8ff" points="1288.13,-303.72 1288.39,-314.31 1294.79,-305.87 1288.13,-303.72"/>
</g>
<!-- Node2&#45;&gt;Node6 -->
<g id="edge5" class="edge">
<title>Node2&#45;&gt;Node6</title>
<path fill="none" stroke="#63b8ff" d="M1322.06,-311.74C1354.72,-300.56 1401.79,-284.44 1430.97,-274.46"/>
<polygon fill="#63b8ff" stroke="#63b8ff" points="1321.33,-308.63 1313,-315.18 1323.59,-315.25 1321.33,-308.63"/>
</g>
<!-- Node3&#45;&gt;Node4 -->
<g id="edge3" class="edge">
<title>Node3&#45;&gt;Node4</title>
<path fill="none" stroke="#63b8ff" d="M942.62,-184.65C936.01,-175.2 928.01,-163.3 921.5,-152.25 894.23,-105.94 866.82,-47.56 856.64,-25.37"/>
<polygon fill="#63b8ff" stroke="#63b8ff" points="940.24,-186.33 948.88,-192.46 945.94,-182.28 940.24,-186.33"/>
</g>
<!-- Node6&#45;&gt;Node4 -->
<g id="edge6" class="edge">
<title>Node6&#45;&gt;Node4</title>
<path fill="none" stroke="#63b8ff" d="M1452.53,-243.87C1440.99,-203.03 1408.23,-108.83 1342.5,-66.5 1266.92,-17.82 984.97,-15.21 886.61,-15.83"/>
<polygon fill="#63b8ff" stroke="#63b8ff" points="1449.36,-244.55 1455.33,-253.3 1456.11,-242.73 1449.36,-244.55"/>
</g>
<!-- Node7&#45;&gt;Node3 -->
<g id="edge24" class="edge">
<title>Node7&#45;&gt;Node3</title>
<path fill="none" stroke="#63b8ff" d="M601.06,-320.73C662.43,-315.62 760.09,-303.29 839.5,-274 860.87,-266.12 916.47,-230.27 942.14,-213.37"/>
<polygon fill="#63b8ff" stroke="#63b8ff" points="601.1,-317.3 591.4,-321.58 601.65,-324.28 601.1,-317.3"/>
</g>
<!-- Node7&#45;&gt;Node4 -->
<g id="edge41" class="edge">
<title>Node7&#45;&gt;Node4</title>
<path fill="none" stroke="#63b8ff" d="M481.83,-319.57C366.77,-308.89 125.5,-277.76 125.5,-204.5 125.5,-204.5 125.5,-204.5 125.5,-141.62 125.5,-107.18 118.09,-88.61 144.5,-66.5 196.59,-22.9 684.2,-17.13 818.44,-16.37"/>
<polygon fill="#63b8ff" stroke="#63b8ff" points="481.28,-323.12 491.56,-320.54 481.91,-316.15 481.28,-323.12"/>
</g>
<!-- Node8 -->
<g id="node8" class="node">
<title>Node8</title>
<g id="a_node8"><a xlink:href="v8-array-buffer_8h.html" target="_top" xlink:title=" ">
<polygon fill="white" stroke="#666666" points="690.88,-213.12 572.12,-213.12 572.12,-193.88 690.88,-193.88 690.88,-213.12"/>
<text text-anchor="middle" x="631.5" y="-199.62" font-family="Helvetica,sans-Serif" font-size="10.00">include/v8&#45;array&#45;buffer.h</text>
</a>
</g>
</g>
<!-- Node7&#45;&gt;Node8 -->
<g id="edge9" class="edge">
<title>Node7&#45;&gt;Node8</title>
<path fill="none" stroke="#63b8ff" d="M554.87,-306.46C574.34,-280.56 609.79,-233.38 624.66,-213.61"/>
<polygon fill="#63b8ff" stroke="#63b8ff" points="551.47,-304.15 548.26,-314.25 557.07,-308.36 551.47,-304.15"/>
</g>
<!-- Node15 -->
<g id="node15" class="node">
<title>Node15</title>
<g id="a_node15"><a xlink:href="v8-container_8h.html" target="_top" xlink:title=" ">
<polygon fill="white" stroke="#666666" points="263.75,-91.38 153.25,-91.38 153.25,-72.12 263.75,-72.12 263.75,-91.38"/>
<text text-anchor="middle" x="208.5" y="-77.88" font-family="Helvetica,sans-Serif" font-size="10.00">include/v8&#45;container.h</text>
</a>
</g>
</g>
<!-- Node7&#45;&gt;Node15 -->
<g id="edge20" class="edge">
<title>Node7&#45;&gt;Node15</title>
<path fill="none" stroke="#63b8ff" d="M481.84,-319.04C411.76,-311.95 300.72,-297.41 266.5,-274 216.04,-239.49 215.36,-212.01 202.5,-152.25 197.92,-130.94 202.74,-105.24 206.02,-91.85"/>
<polygon fill="#63b8ff" stroke="#63b8ff" points="481.42,-322.61 491.71,-320.11 482.1,-315.65 481.42,-322.61"/>
</g>
<!-- Node16 -->
<g id="node16" class="node">
<title>Node16</title>
<g id="a_node16"><a xlink:href="v8-date_8h.html" target="_top" xlink:title=" ">
<polygon fill="white" stroke="#666666" points="301.25,-152.25 211.75,-152.25 211.75,-133 301.25,-133 301.25,-152.25"/>
<text text-anchor="middle" x="256.5" y="-138.75" font-family="Helvetica,sans-Serif" font-size="10.00">include/v8&#45;date.h</text>
</a>
</g>
</g>
<!-- Node7&#45;&gt;Node16 -->
<g id="edge22" class="edge">
<title>Node7&#45;&gt;Node16</title>
<path fill="none" stroke="#63b8ff" d="M481.7,-324.33C408.43,-320.7 288.17,-301.61 240.5,-218.75 228.13,-197.25 242.18,-167.33 250.79,-152.58"/>
<polygon fill="#63b8ff" stroke="#63b8ff" points="481.46,-327.87 491.59,-324.78 481.75,-320.87 481.46,-327.87"/>
</g>
<!-- Node17 -->
<g id="node17" class="node">
<title>Node17</title>
<g id="a_node17"><a xlink:href="v8-primitive-object_8h.html" target="_top" xlink:title=" ">
<polygon fill="white" stroke="#666666" points="349.5,-218.75 249.5,-218.75 249.5,-188.25 349.5,-188.25 349.5,-218.75"/>
<text text-anchor="start" x="257.5" y="-205.25" font-family="Helvetica,sans-Serif" font-size="10.00">include/v8&#45;primitive</text>
<text text-anchor="middle" x="299.5" y="-194" font-family="Helvetica,sans-Serif" font-size="10.00">&#45;object.h</text>
</a>
</g>
</g>
<!-- Node7&#45;&gt;Node17 -->
<g id="edge25" class="edge">
<title>Node7&#45;&gt;Node17</title>
<path fill="none" stroke="#63b8ff" d="M482.07,-315.91C445.79,-308.85 399.61,-296.18 363.5,-274 340.44,-259.83 320.52,-235.06 309.27,-219.23"/>
<polygon fill="#63b8ff" stroke="#63b8ff" points="481.03,-319.47 491.5,-317.85 482.31,-312.58 481.03,-319.47"/>
</g>
<!-- Node18 -->
<g id="node18" class="node">
<title>Node18</title>
<g id="a_node18"><a xlink:href="v8-promise_8h.html" target="_top" xlink:title=" ">
<polygon fill="white" stroke="#666666" points="551.12,-274 445.88,-274 445.88,-254.75 551.12,-254.75 551.12,-274"/>
<text text-anchor="middle" x="498.5" y="-260.5" font-family="Helvetica,sans-Serif" font-size="10.00">include/v8&#45;promise.h</text>
</a>
</g>
</g>
<!-- Node7&#45;&gt;Node18 -->
<g id="edge27" class="edge">
<title>Node7&#45;&gt;Node18</title>
<path fill="none" stroke="#63b8ff" d="M528.51,-306.46C520.78,-295.88 511.3,-282.9 505.09,-274.4"/>
<polygon fill="#63b8ff" stroke="#63b8ff" points="526.24,-308.3 534.97,-314.31 531.9,-304.17 526.24,-308.3"/>
</g>
<!-- Node20 -->
<g id="node20" class="node">
<title>Node20</title>
<g id="a_node20"><a xlink:href="v8-proxy_8h.html" target="_top" xlink:title=" ">
<polygon fill="white" stroke="#666666" points="451.12,-91.38 357.88,-91.38 357.88,-72.12 451.12,-72.12 451.12,-91.38"/>
<text text-anchor="middle" x="404.5" y="-77.88" font-family="Helvetica,sans-Serif" font-size="10.00">include/v8&#45;proxy.h</text>
</a>
</g>
</g>
<!-- Node7&#45;&gt;Node20 -->
<g id="edge32" class="edge">
<title>Node7&#45;&gt;Node20</title>
<path fill="none" stroke="#63b8ff" d="M501.94,-311.4C480.82,-303.13 455.37,-290.76 436.5,-274 414.77,-254.7 409.6,-246.67 401.5,-218.75 388.08,-172.48 397.95,-113.59 402.52,-91.58"/>
<polygon fill="#63b8ff" stroke="#63b8ff" points="500.63,-315.02 511.22,-315.24 503.08,-308.46 500.63,-315.02"/>
</g>
<!-- Node21 -->
<g id="node21" class="node">
<title>Node21</title>
<g id="a_node21"><a xlink:href="v8-regexp_8h.html" target="_top" xlink:title=" ">
<polygon fill="white" stroke="#666666" points="846.12,-213.12 746.88,-213.12 746.88,-193.88 846.12,-193.88 846.12,-213.12"/>
<text text-anchor="middle" x="796.5" y="-199.62" font-family="Helvetica,sans-Serif" font-size="10.00">include/v8&#45;regexp.h</text>
</a>
</g>
</g>
<!-- Node7&#45;&gt;Node21 -->
<g id="edge34" class="edge">
<title>Node7&#45;&gt;Node21</title>
<path fill="none" stroke="#63b8ff" d="M570.36,-310.7C622.85,-286.05 732.59,-234.51 777.11,-213.61"/>
<polygon fill="#63b8ff" stroke="#63b8ff" points="569.23,-307.83 561.67,-315.25 572.21,-314.17 569.23,-307.83"/>
</g>
<!-- Node22 -->
<g id="node22" class="node">
<title>Node22</title>
<g id="a_node22"><a xlink:href="v8-template_8h.html" target="_top" xlink:title=" ">
<polygon fill="white" stroke="#666666" points="830.62,-274 722.38,-274 722.38,-254.75 830.62,-254.75 830.62,-274"/>
<text text-anchor="middle" x="776.5" y="-260.5" font-family="Helvetica,sans-Serif" font-size="10.00">include/v8&#45;template.h</text>
</a>
</g>
</g>
<!-- Node7&#45;&gt;Node22 -->
<g id="edge36" class="edge">
<title>Node7&#45;&gt;Node22</title>
<path fill="none" stroke="#63b8ff" d="M588.29,-312.53C633,-301.33 699.44,-284.68 740.26,-274.46"/>
<polygon fill="#63b8ff" stroke="#63b8ff" points="587.55,-309.35 578.7,-315.18 589.25,-316.14 587.55,-309.35"/>
</g>
<!-- Node23 -->
<g id="node23" class="node">
<title>Node23</title>
<g id="a_node23"><a xlink:href="v8-wasm_8h.html" target="_top" xlink:title=" ">
<polygon fill="white" stroke="#666666" points="97,-152.25 0,-152.25 0,-133 97,-133 97,-152.25"/>
<text text-anchor="middle" x="48.5" y="-138.75" font-family="Helvetica,sans-Serif" font-size="10.00">include/v8&#45;wasm.h</text>
</a>
</g>
</g>
<!-- Node7&#45;&gt;Node23 -->
<g id="edge39" class="edge">
<title>Node7&#45;&gt;Node23</title>
<path fill="none" stroke="#63b8ff" d="M481.82,-324.2C377.99,-323.01 169.62,-315.36 111.5,-274 68.9,-243.68 53.93,-176.56 49.82,-152.46"/>
<polygon fill="#63b8ff" stroke="#63b8ff" points="481.71,-327.71 491.74,-324.31 481.78,-320.71 481.71,-327.71"/>
</g>
<!-- Node8&#45;&gt;Node4 -->
<g id="edge19" class="edge">
<title>Node8&#45;&gt;Node4</title>
<path fill="none" stroke="#63b8ff" d="M605.6,-187.75C586.41,-174.72 565.09,-154.5 574.5,-133 591.97,-93.09 608.12,-87.1 646.5,-66.5 702.13,-36.65 775.68,-24.24 818.17,-19.3"/>
<polygon fill="#63b8ff" stroke="#63b8ff" points="603.39,-191.13 613.7,-193.54 607.14,-185.22 603.39,-191.13"/>
</g>
<!-- Node9 -->
<g id="node9" class="node">
<title>Node9</title>
<g id="a_node9"><a xlink:href="v8-isolate_8h.html" target="_top" xlink:title=" ">
<polygon fill="white" stroke="#666666" points="1030.12,-152.25 930.88,-152.25 930.88,-133 1030.12,-133 1030.12,-152.25"/>
<text text-anchor="middle" x="980.5" y="-138.75" font-family="Helvetica,sans-Serif" font-size="10.00">include/v8&#45;isolate.h</text>
</a>
</g>
</g>
<!-- Node8&#45;&gt;Node9 -->
<g id="edge10" class="edge">
<title>Node8&#45;&gt;Node9</title>
<path fill="none" stroke="#63b8ff" d="M695.81,-191.65C763.58,-180.22 868.88,-162.45 930.63,-152.04"/>
<polygon fill="#63b8ff" stroke="#63b8ff" points="695.54,-188.32 686.27,-193.43 696.71,-195.22 695.54,-188.32"/>
</g>
<!-- Node13 -->
<g id="node13" class="node">
<title>Node13</title>
<g id="a_node13"><a xlink:href="v8-typed-array_8h.html" target="_top" xlink:title=" ">
<polygon fill="white" stroke="#666666" points="701.5,-152.25 583.5,-152.25 583.5,-133 701.5,-133 701.5,-152.25"/>
<text text-anchor="middle" x="642.5" y="-138.75" font-family="Helvetica,sans-Serif" font-size="10.00">include/v8&#45;typed&#45;array.h</text>
</a>
</g>
</g>
<!-- Node8&#45;&gt;Node13 -->
<g id="edge16" class="edge">
<title>Node8&#45;&gt;Node13</title>
<path fill="none" stroke="#63b8ff" d="M635.13,-183.07C637.05,-172.82 639.31,-160.72 640.81,-152.65"/>
<polygon fill="#63b8ff" stroke="#63b8ff" points="631.57,-182.09 633.17,-192.56 638.45,-183.37 631.57,-182.09"/>
</g>
<!-- Node9&#45;&gt;Node4 -->
<g id="edge15" class="edge">
<title>Node9&#45;&gt;Node4</title>
<path fill="none" stroke="#63b8ff" d="M1015.01,-127.66C1027.93,-120.53 1041.23,-110.47 1048.5,-97 1054.94,-85.07 1056.81,-77.21 1048.5,-66.5 1028.85,-41.18 937.61,-26.42 886.83,-20.04"/>
<polygon fill="#63b8ff" stroke="#63b8ff" points="1013.66,-124.92 1006.3,-132.54 1016.81,-131.17 1013.66,-124.92"/>
</g>
<!-- Node10 -->
<g id="node10" class="node">
<title>Node10</title>
<g id="a_node10"><a xlink:href="v8-initialization_8h.html" target="_top" xlink:title=" ">
<polygon fill="white" stroke="#666666" points="1040,-91.38 919,-91.38 919,-72.12 1040,-72.12 1040,-91.38"/>
<text text-anchor="middle" x="979.5" y="-77.88" font-family="Helvetica,sans-Serif" font-size="10.00">include/v8&#45;initialization.h</text>
</a>
</g>
</g>
<!-- Node9&#45;&gt;Node10 -->
<g id="edge11" class="edge">
<title>Node9&#45;&gt;Node10</title>
<path fill="none" stroke="#63b8ff" d="M980.16,-121.87C979.99,-111.68 979.79,-99.76 979.65,-91.78"/>
<polygon fill="#63b8ff" stroke="#63b8ff" points="976.68,-121.74 980.35,-131.68 983.68,-121.63 976.68,-121.74"/>
</g>
<!-- Node11 -->
<g id="node11" class="node">
<title>Node11</title>
<g id="a_node11"><a xlink:href="v8-inspector_8h.html" target="_top" xlink:title=" ">
<polygon fill="white" stroke="#666666" points="1504.75,-91.38 1394.25,-91.38 1394.25,-72.12 1504.75,-72.12 1504.75,-91.38"/>
<text text-anchor="middle" x="1449.5" y="-77.88" font-family="Helvetica,sans-Serif" font-size="10.00">include/v8&#45;inspector.h</text>
</a>
</g>
</g>
<!-- Node9&#45;&gt;Node11 -->
<g id="edge13" class="edge">
<title>Node9&#45;&gt;Node11</title>
<path fill="none" stroke="#63b8ff" d="M1041.15,-132.81C1174,-115.05 1317.31,-98.06 1394.07,-89.13"/>
<polygon fill="#63b8ff" stroke="#63b8ff" points="1040.83,-129.45 1031.38,-134.25 1041.76,-136.39 1040.83,-129.45"/>
</g>
<!-- Node10&#45;&gt;Node4 -->
<g id="edge12" class="edge">
<title>Node10&#45;&gt;Node4</title>
<path fill="none" stroke="#63b8ff" d="M952.03,-66.8C927.26,-54.22 891.57,-36.09 870.34,-25.31"/>
<polygon fill="#63b8ff" stroke="#63b8ff" points="950.07,-70.24 960.57,-71.65 953.24,-64 950.07,-70.24"/>
</g>
<!-- Node12 -->
<g id="node12" class="node">
<title>Node12</title>
<g id="a_node12"><a xlink:href="v8-inspector-protocol_8h.html" target="_top" xlink:title=" ">
<polygon fill="white" stroke="#666666" points="1501,-30.5 1398,-30.5 1398,0 1501,0 1501,-30.5"/>
<text text-anchor="start" x="1406" y="-17" font-family="Helvetica,sans-Serif" font-size="10.00">include/v8&#45;inspector</text>
<text text-anchor="middle" x="1449.5" y="-5.75" font-family="Helvetica,sans-Serif" font-size="10.00">&#45;protocol.h</text>
</a>
</g>
</g>
<!-- Node11&#45;&gt;Node12 -->
<g id="edge14" class="edge">
<title>Node11&#45;&gt;Node12</title>
<path fill="none" stroke="#63b8ff" d="M1449.5,-61.02C1449.5,-51.2 1449.5,-39.55 1449.5,-30.59"/>
<polygon fill="#63b8ff" stroke="#63b8ff" points="1446,-60.78 1449.5,-70.78 1453,-60.78 1446,-60.78"/>
</g>
<!-- Node13&#45;&gt;Node4 -->
<g id="edge18" class="edge">
<title>Node13&#45;&gt;Node4</title>
<path fill="none" stroke="#63b8ff" d="M644,-121.64C646.34,-104.67 652.31,-80.86 667.5,-66.5 708.73,-27.51 777.1,-18.17 818.17,-16.28"/>
<polygon fill="#63b8ff" stroke="#63b8ff" points="640.42,-121.24 642.86,-131.55 647.38,-121.97 640.42,-121.24"/>
</g>
<!-- Node14 -->
<g id="node14" class="node">
<title>Node14</title>
<g id="a_node14"><a xlink:href="v8-fast-api-calls_8h.html" target="_top" xlink:title=" ">
<polygon fill="white" stroke="#666666" points="772.25,-97 676.75,-97 676.75,-66.5 772.25,-66.5 772.25,-97"/>
<text text-anchor="start" x="684.75" y="-83.5" font-family="Helvetica,sans-Serif" font-size="10.00">include/v8&#45;fast&#45;api</text>
<text text-anchor="middle" x="724.5" y="-72.25" font-family="Helvetica,sans-Serif" font-size="10.00">&#45;calls.h</text>
</a>
</g>
</g>
<!-- Node13&#45;&gt;Node14 -->
<g id="edge17" class="edge">
<title>Node13&#45;&gt;Node14</title>
<path fill="none" stroke="#63b8ff" d="M663.77,-126.35C676.26,-117.39 691.95,-106.12 704.26,-97.28"/>
<polygon fill="#63b8ff" stroke="#63b8ff" points="662.04,-124.01 655.95,-132.68 666.12,-129.69 662.04,-124.01"/>
</g>
<!-- Node15&#45;&gt;Node4 -->
<g id="edge21" class="edge">
<title>Node15&#45;&gt;Node4</title>
<path fill="none" stroke="#63b8ff" d="M258.89,-69.64C265.14,-68.47 271.45,-67.39 277.5,-66.5 481.5,-36.62 729.01,-22.31 818.31,-17.85"/>
<polygon fill="#63b8ff" stroke="#63b8ff" points="258.64,-66.32 249.49,-71.67 259.98,-73.19 258.64,-66.32"/>
</g>
<!-- Node16&#45;&gt;Node4 -->
<g id="edge23" class="edge">
<title>Node16&#45;&gt;Node4</title>
<path fill="none" stroke="#63b8ff" d="M265.38,-123.13C275.03,-105.29 292.24,-79.18 315.5,-66.5 402.75,-18.93 714.46,-15.7 818.45,-15.98"/>
<polygon fill="#63b8ff" stroke="#63b8ff" points="261.91,-121.25 260.48,-131.74 268.14,-124.43 261.91,-121.25"/>
</g>
<!-- Node17&#45;&gt;Node4 -->
<g id="edge26" class="edge">
<title>Node17&#45;&gt;Node4</title>
<path fill="none" stroke="#63b8ff" d="M305.12,-177.61C313.61,-142.3 330.64,-80.42 348.5,-66.5 385.52,-37.64 711.34,-21.97 818.5,-17.56"/>
<polygon fill="#63b8ff" stroke="#63b8ff" points="301.54,-176.5 302.67,-187.04 308.36,-178.1 301.54,-176.5"/>
</g>
<!-- Node18&#45;&gt;Node4 -->
<g id="edge31" class="edge">
<title>Node18&#45;&gt;Node4</title>
<path fill="none" stroke="#63b8ff" d="M466.41,-249.21C454.1,-242 441.37,-231.92 434.5,-218.75 428.23,-206.73 429.28,-200.76 434.5,-188.25 464.12,-117.26 489.08,-101.64 557.5,-66.5 643.69,-22.23 760.86,-15.79 818.13,-15.56"/>
<polygon fill="#63b8ff" stroke="#63b8ff" points="464.61,-252.75 475.07,-254.39 467.91,-246.58 464.61,-252.75"/>
</g>
<!-- Node19 -->
<g id="node19" class="node">
<title>Node19</title>
<g id="a_node19"><a xlink:href="v8-statistics_8h.html" target="_top" xlink:title=" ">
<polygon fill="white" stroke="#666666" points="553.75,-213.12 443.25,-213.12 443.25,-193.88 553.75,-193.88 553.75,-213.12"/>
<text text-anchor="middle" x="498.5" y="-199.62" font-family="Helvetica,sans-Serif" font-size="10.00">include/v8&#45;statistics.h</text>
</a>
</g>
</g>
<!-- Node18&#45;&gt;Node19 -->
<g id="edge28" class="edge">
<title>Node18&#45;&gt;Node19</title>
<path fill="none" stroke="#63b8ff" d="M498.5,-243.62C498.5,-233.43 498.5,-221.51 498.5,-213.53"/>
<polygon fill="#63b8ff" stroke="#63b8ff" points="495,-243.43 498.5,-253.43 502,-243.43 495,-243.43"/>
</g>
<!-- Node19&#45;&gt;Node4 -->
<g id="edge30" class="edge">
<title>Node19&#45;&gt;Node4</title>
<path fill="none" stroke="#63b8ff" d="M506.32,-183.35C519.65,-153.28 549.75,-95.45 594.5,-66.5 631.19,-42.77 757.36,-26.42 818.61,-19.69"/>
<polygon fill="#63b8ff" stroke="#63b8ff" points="502.74,-181.82 502.04,-192.39 509.18,-184.57 502.74,-181.82"/>
</g>
<!-- Node19&#45;&gt;Node9 -->
<g id="edge29" class="edge">
<title>Node19&#45;&gt;Node9</title>
<path fill="none" stroke="#63b8ff" d="M547.04,-191.25C552.58,-190.15 558.15,-189.12 563.5,-188.25 695.19,-166.83 852.02,-153.21 930.52,-147.2"/>
<polygon fill="#63b8ff" stroke="#63b8ff" points="546.6,-187.98 537.52,-193.44 548.02,-194.83 546.6,-187.98"/>
</g>
<!-- Node20&#45;&gt;Node4 -->
<g id="edge33" class="edge">
<title>Node20&#45;&gt;Node4</title>
<path fill="none" stroke="#63b8ff" d="M451.24,-69.33C456.04,-68.31 460.86,-67.34 465.5,-66.5 594.83,-43.06 750.39,-26.29 818.15,-19.54"/>
<polygon fill="#63b8ff" stroke="#63b8ff" points="450.83,-66.06 441.82,-71.63 452.34,-72.89 450.83,-66.06"/>
</g>
<!-- Node21&#45;&gt;Node4 -->
<g id="edge35" class="edge">
<title>Node21&#45;&gt;Node4</title>
<path fill="none" stroke="#63b8ff" d="M802.34,-183.08C814.32,-143.25 841.25,-53.66 849.83,-25.14"/>
<polygon fill="#63b8ff" stroke="#63b8ff" points="798.73,-181.93 799.2,-192.52 805.43,-183.95 798.73,-181.93"/>
</g>
<!-- Node22&#45;&gt;Node3 -->
<g id="edge37" class="edge">
<title>Node22&#45;&gt;Node3</title>
<path fill="none" stroke="#63b8ff" d="M814.1,-251.01C848.11,-239.82 897.4,-223.61 927.89,-213.58"/>
<polygon fill="#63b8ff" stroke="#63b8ff" points="813.48,-247.86 805.08,-254.3 815.67,-254.51 813.48,-247.86"/>
</g>
<!-- Node22&#45;&gt;Node4 -->
<g id="edge38" class="edge">
<title>Node22&#45;&gt;Node4</title>
<path fill="none" stroke="#63b8ff" d="M817.91,-249.99C832.43,-243.07 847.18,-233.01 855.5,-218.75 893.6,-153.46 865.59,-55.01 855.64,-25.14"/>
<polygon fill="#63b8ff" stroke="#63b8ff" points="816.76,-247.1 808.97,-254.28 819.54,-253.52 816.76,-247.1"/>
</g>
<!-- Node23&#45;&gt;Node4 -->
<g id="edge40" class="edge">
<title>Node23&#45;&gt;Node4</title>
<path fill="none" stroke="#63b8ff" d="M58.09,-123.23C68.57,-105.27 87.15,-78.88 111.5,-66.5 175,-34.22 681.1,-20.22 818.3,-17"/>
<polygon fill="#63b8ff" stroke="#63b8ff" points="54.65,-121.22 52.88,-131.66 60.78,-124.6 54.65,-121.22"/>
</g>
<!-- Node24&#45;&gt;Node4 -->
<g id="edge44" class="edge">
<title>Node24&#45;&gt;Node4</title>
<path fill="none" stroke="#63b8ff" d="M1558.96,-420.7C1563.69,-398.04 1570.5,-359.66 1570.5,-326.25 1570.5,-326.25 1570.5,-326.25 1570.5,-141.62 1570.5,-105.16 1567.28,-87.54 1537.5,-66.5 1484,-28.7 1017.61,-18.77 886.6,-16.71"/>
<polygon fill="#63b8ff" stroke="#63b8ff" points="1555.36,-419.75 1556.66,-430.26 1562.2,-421.24 1555.36,-419.75"/>
</g>
<!-- Node25&#45;&gt;Node4 -->
<g id="edge62" class="edge">
<title>Node25&#45;&gt;Node4</title>
<path fill="none" stroke="#63b8ff" d="M1267.1,-428.39C1354.69,-403.17 1532.5,-335.79 1532.5,-204.5 1532.5,-204.5 1532.5,-204.5 1532.5,-141.62 1532.5,-107.18 1539.85,-88.67 1513.5,-66.5 1465.23,-25.89 1014.8,-17.98 886.47,-16.55"/>
<polygon fill="#63b8ff" stroke="#63b8ff" points="1266.32,-425.26 1257.63,-431.33 1268.21,-432 1266.32,-425.26"/>
</g>
<!-- Node25&#45;&gt;Node7 -->
<g id="edge49" class="edge">
<title>Node25&#45;&gt;Node7</title>
<path fill="none" stroke="#63b8ff" d="M1161.62,-438.36C1041.67,-433.72 769.71,-420.74 680.5,-395.75 631.4,-382 579.03,-350.67 554.99,-335.21"/>
<polygon fill="#63b8ff" stroke="#63b8ff" points="1161.27,-441.88 1171.4,-438.77 1161.54,-434.89 1161.27,-441.88"/>
</g>
<!-- Node25&#45;&gt;Node14 -->
<g id="edge48" class="edge">
<title>Node25&#45;&gt;Node14</title>
<path fill="none" stroke="#63b8ff" d="M1161.66,-430.05C1040.58,-407.14 767.19,-348.17 713.5,-274 693.22,-245.98 713.16,-137.24 721.35,-97.44"/>
<polygon fill="#63b8ff" stroke="#63b8ff" points="1160.72,-433.63 1171.2,-432.03 1162.01,-426.74 1160.72,-433.63"/>
</g>
<!-- Node26 -->
<g id="node26" class="node">
<title>Node26</title>
<g id="a_node26"><a xlink:href="v8-external_8h.html" target="_top" xlink:title=" ">
<polygon fill="white" stroke="#666666" points="1340.75,-395.75 1236.25,-395.75 1236.25,-376.5 1340.75,-376.5 1340.75,-395.75"/>
<text text-anchor="middle" x="1288.5" y="-382.25" font-family="Helvetica,sans-Serif" font-size="10.00">include/v8&#45;external.h</text>
</a>
</g>
</g>
<!-- Node25&#45;&gt;Node26 -->
<g id="edge46" class="edge">
<title>Node25&#45;&gt;Node26</title>
<path fill="none" stroke="#63b8ff" d="M1239.79,-424.72C1251.9,-415.37 1266.85,-403.83 1276.97,-396.02"/>
<polygon fill="#63b8ff" stroke="#63b8ff" points="1237.98,-422.46 1232.2,-431.34 1242.26,-428 1237.98,-422.46"/>
</g>
<!-- Node27 -->
<g id="node27" class="node">
<title>Node27</title>
<g id="a_node27"><a xlink:href="v8-primitive_8h.html" target="_top" xlink:title=" ">
<polygon fill="white" stroke="#666666" points="1204.25,-395.75 1096.75,-395.75 1096.75,-376.5 1204.25,-376.5 1204.25,-395.75"/>
<text text-anchor="middle" x="1150.5" y="-382.25" font-family="Helvetica,sans-Serif" font-size="10.00">include/v8&#45;primitive.h</text>
</a>
</g>
</g>
<!-- Node25&#45;&gt;Node27 -->
<g id="edge50" class="edge">
<title>Node25&#45;&gt;Node27</title>
<path fill="none" stroke="#63b8ff" d="M1199.21,-424.72C1187.1,-415.37 1172.15,-403.83 1162.03,-396.02"/>
<polygon fill="#63b8ff" stroke="#63b8ff" points="1196.74,-428 1206.8,-431.34 1201.02,-422.46 1196.74,-428"/>
</g>
<!-- Node26&#45;&gt;Node4 -->
<g id="edge47" class="edge">
<title>Node26&#45;&gt;Node4</title>
<path fill="none" stroke="#63b8ff" d="M1316.61,-370.69C1328.49,-363.22 1341.41,-353.03 1349.5,-340.5 1370.45,-308.06 1375.38,-291.49 1363.5,-254.75 1331.74,-156.54 1316.07,-119.5 1227.5,-66.5 1170.29,-32.27 968.01,-20.73 886.71,-17.42"/>
<polygon fill="#63b8ff" stroke="#63b8ff" points="1315.27,-368.01 1308.43,-376.09 1318.82,-374.04 1315.27,-368.01"/>
</g>
<!-- Node27&#45;&gt;Node2 -->
<g id="edge59" class="edge">
<title>Node27&#45;&gt;Node2</title>
<path fill="none" stroke="#63b8ff" d="M1181.24,-371.72C1206.85,-360.55 1242.62,-344.95 1264.9,-335.23"/>
<polygon fill="#63b8ff" stroke="#63b8ff" points="1180.06,-368.85 1172.3,-376.05 1182.86,-375.27 1180.06,-368.85"/>
</g>
<!-- Node27&#45;&gt;Node4 -->
<g id="edge61" class="edge">
<title>Node27&#45;&gt;Node4</title>
<path fill="none" stroke="#63b8ff" d="M1160.3,-366.59C1171.56,-343.54 1188.5,-302.66 1188.5,-265.38 1188.5,-265.38 1188.5,-265.38 1188.5,-141.62 1188.5,-87.1 1140.99,-89.39 1091.5,-66.5 1023.19,-34.91 934.71,-22.97 886.87,-18.62"/>
<polygon fill="#63b8ff" stroke="#63b8ff" points="1156.87,-364.62 1155.47,-375.12 1163.11,-367.79 1156.87,-364.62"/>
</g>
<!-- Node27&#45;&gt;Node7 -->
<g id="edge60" class="edge">
<title>Node27&#45;&gt;Node7</title>
<path fill="none" stroke="#63b8ff" d="M1085.74,-378.86C963.08,-367.01 699.39,-341.51 590.3,-330.97"/>
<polygon fill="#63b8ff" stroke="#63b8ff" points="1085.16,-382.42 1095.46,-379.9 1085.84,-375.45 1085.16,-382.42"/>
</g>
<!-- Node27&#45;&gt;Node9 -->
<g id="edge58" class="edge">
<title>Node27&#45;&gt;Node9</title>
<path fill="none" stroke="#63b8ff" d="M1142.16,-366.34C1125.29,-329.62 1084.43,-246.78 1034.5,-188.25 1022.34,-174 1005.27,-160.75 993.6,-152.45"/>
<polygon fill="#63b8ff" stroke="#63b8ff" points="1139.3,-367.51 1146.61,-375.18 1145.68,-364.63 1139.3,-367.51"/>
</g>
<!-- Node28 -->
<g id="node28" class="node">
<title>Node28</title>
<g id="a_node28"><a xlink:href="v8-extension_8h.html" target="_top" xlink:title=" ">
<polygon fill="white" stroke="#666666" points="1160.5,-152.25 1048.5,-152.25 1048.5,-133 1160.5,-133 1160.5,-152.25"/>
<text text-anchor="middle" x="1104.5" y="-138.75" font-family="Helvetica,sans-Serif" font-size="10.00">include/v8&#45;extension.h</text>
</a>
</g>
</g>
<!-- Node27&#45;&gt;Node28 -->
<g id="edge51" class="edge">
<title>Node27&#45;&gt;Node28</title>
<path fill="none" stroke="#63b8ff" d="M1146.75,-365.46C1137.33,-315.96 1112.88,-187.64 1106.21,-152.59"/>
<polygon fill="#63b8ff" stroke="#63b8ff" points="1143.5,-366.08 1148.81,-375.24 1150.38,-364.77 1143.5,-366.08"/>
</g>
<!-- Node29 -->
<g id="node29" class="node">
<title>Node29</title>
<g id="a_node29"><a xlink:href="v8-function-callback_8h.html" target="_top" xlink:title=" ">
<polygon fill="white" stroke="#666666" points="1046.38,-340.5 948.62,-340.5 948.62,-310 1046.38,-310 1046.38,-340.5"/>
<text text-anchor="start" x="956.62" y="-327" font-family="Helvetica,sans-Serif" font-size="10.00">include/v8&#45;function</text>
<text text-anchor="middle" x="997.5" y="-315.75" font-family="Helvetica,sans-Serif" font-size="10.00">&#45;callback.h</text>
</a>
</g>
</g>
<!-- Node27&#45;&gt;Node29 -->
<g id="edge53" class="edge">
<title>Node27&#45;&gt;Node29</title>
<path fill="none" stroke="#63b8ff" d="M1116.88,-372.19C1092.91,-362.96 1060.63,-350.54 1035.69,-340.94"/>
<polygon fill="#63b8ff" stroke="#63b8ff" points="1115.34,-375.73 1125.93,-376.05 1117.85,-369.2 1115.34,-375.73"/>
</g>
<!-- Node28&#45;&gt;Node4 -->
<g id="edge52" class="edge">
<title>Node28&#45;&gt;Node4</title>
<path fill="none" stroke="#63b8ff" d="M1099.4,-122.1C1093.89,-104.89 1083.4,-80.44 1065.5,-66.5 1012.9,-25.52 932.31,-17.11 886.83,-15.88"/>
<polygon fill="#63b8ff" stroke="#63b8ff" points="1096.31,-123.01 1102.45,-131.64 1103.04,-121.06 1096.31,-123.01"/>
</g>
<!-- Node29&#45;&gt;Node3 -->
<g id="edge54" class="edge">
<title>Node29&#45;&gt;Node3</title>
<path fill="none" stroke="#63b8ff" d="M992.26,-299.27C989.14,-285.88 984.77,-269.21 979.5,-254.75 974.07,-239.85 965.75,-223.42 960.47,-213.53"/>
<polygon fill="#63b8ff" stroke="#63b8ff" points="988.97,-299.63 994.57,-308.63 995.81,-298.1 988.97,-299.63"/>
</g>
<!-- Node29&#45;&gt;Node9 -->
<g id="edge55" class="edge">
<title>Node29&#45;&gt;Node9</title>
<path fill="none" stroke="#63b8ff" d="M1008,-299.89C1018.41,-272.11 1031.01,-225.71 1017.5,-188.25 1012.31,-173.86 1000.24,-160.83 991.29,-152.61"/>
<polygon fill="#63b8ff" stroke="#63b8ff" points="1004.46,-298.31 1004.04,-308.9 1010.97,-300.89 1004.46,-298.31"/>
</g>
<!-- Node29&#45;&gt;Node22 -->
<g id="edge56" class="edge">
<title>Node29&#45;&gt;Node22</title>
<path fill="none" stroke="#63b8ff" d="M937.55,-308.28C896.8,-297.42 844.35,-283.45 810.58,-274.45"/>
<polygon fill="#63b8ff" stroke="#63b8ff" points="936.61,-311.92 947.18,-311.11 938.42,-305.15 936.61,-311.92"/>
</g>
<!-- Node30 -->
<g id="node30" class="node">
<title>Node30</title>
<g id="a_node30"><a xlink:href="v8-util_8h.html" target="_top" xlink:title=" ">
<polygon fill="white" stroke="#666666" points="970.25,-274 886.75,-274 886.75,-254.75 970.25,-254.75 970.25,-274"/>
<text text-anchor="middle" x="928.5" y="-260.5" font-family="Helvetica,sans-Serif" font-size="10.00">include/v8&#45;util.h</text>
</a>
</g>
</g>
<!-- Node29&#45;&gt;Node30 -->
<g id="edge57" class="edge">
<title>Node29&#45;&gt;Node30</title>
<path fill="none" stroke="#63b8ff" d="M972.11,-302.58C960.72,-292.87 947.91,-281.94 939.14,-274.45"/>
<polygon fill="#63b8ff" stroke="#63b8ff" points="969.56,-305.87 979.44,-309.7 974.11,-300.54 969.56,-305.87"/>
</g>
</g>
</svg>
