<?xml version="1.0" encoding="UTF-8" standalone="no"?>
<!DOCTYPE svg PUBLIC "-//W3C//DTD SVG 1.1//EN"
 "http://www.w3.org/Graphics/SVG/1.1/DTD/svg11.dtd">
<!-- Generated by graphviz version 8.0.5 (20230430.1635)
 -->
<!-- Title: v8::TracedReference&lt; T &gt; Pages: 1 -->
<svg width="161pt" height="138pt"
 viewBox="0.00 0.00 160.50 137.75" xmlns="http://www.w3.org/2000/svg" xmlns:xlink="http://www.w3.org/1999/xlink">
<g id="graph0" class="graph" transform="scale(1 1) rotate(0) translate(4 133.75)">
<title>v8::TracedReference&lt; T &gt;</title>
<!-- Node1 -->
<g id="node1" class="node">
<title>Node1</title>
<g id="a_node1"><a xlink:title=" ">
<polygon fill="#999999" stroke="#666666" points="140.12,-19.25 12.38,-19.25 12.38,0 140.12,0 140.12,-19.25"/>
<text text-anchor="middle" x="76.25" y="-5.75" font-family="Helvetica,sans-Serif" font-size="10.00">v8::TracedReference&lt; T &gt;</text>
</a>
</g>
</g>
<!-- Node2 -->
<g id="node2" class="node">
<title>Node2</title>
<g id="a_node2"><a xlink:href="classv8_1_1BasicTracedReference.html" target="_top" xlink:title=" ">
<polygon fill="white" stroke="#666666" points="152.5,-74.5 0,-74.5 0,-55.25 152.5,-55.25 152.5,-74.5"/>
<text text-anchor="middle" x="76.25" y="-61" font-family="Helvetica,sans-Serif" font-size="10.00">v8::BasicTracedReference&lt; T &gt;</text>
</a>
</g>
</g>
<!-- Node2&#45;&gt;Node1 -->
<g id="edge1" class="edge">
<title>Node2&#45;&gt;Node1</title>
<path fill="none" stroke="#63b8ff" d="M76.25,-44.21C76.25,-35.77 76.25,-26.33 76.25,-19.61"/>
<polygon fill="#63b8ff" stroke="#63b8ff" points="72.75,-44.08 76.25,-54.08 79.75,-44.08 72.75,-44.08"/>
</g>
<!-- Node3 -->
<g id="node3" class="node">
<title>Node3</title>
<g id="a_node3"><a xlink:href="classv8_1_1TracedReferenceBase.html" target="_top" xlink:title=" ">
<polygon fill="white" stroke="#666666" points="140.12,-129.75 12.38,-129.75 12.38,-110.5 140.12,-110.5 140.12,-129.75"/>
<text text-anchor="middle" x="76.25" y="-116.25" font-family="Helvetica,sans-Serif" font-size="10.00">v8::TracedReferenceBase</text>
</a>
</g>
</g>
<!-- Node3&#45;&gt;Node2 -->
<g id="edge2" class="edge">
<title>Node3&#45;&gt;Node2</title>
<path fill="none" stroke="#63b8ff" d="M76.25,-99.46C76.25,-91.02 76.25,-81.58 76.25,-74.86"/>
<polygon fill="#63b8ff" stroke="#63b8ff" points="72.75,-99.33 76.25,-109.33 79.75,-99.33 72.75,-99.33"/>
</g>
</g>
</svg>
