<?xml version="1.0" encoding="UTF-8" standalone="no"?>
<!DOCTYPE svg PUBLIC "-//W3C//DTD SVG 1.1//EN"
 "http://www.w3.org/Graphics/SVG/1.1/DTD/svg11.dtd">
<!-- Generated by graphviz version 8.0.5 (20230430.1635)
 -->
<!-- Title: cppgc::internal::PersistentBase::GetValue Pages: 1 -->
<svg width="727pt" height="829pt"
 viewBox="0.00 0.00 726.75 828.50" xmlns="http://www.w3.org/2000/svg" xmlns:xlink="http://www.w3.org/1999/xlink">
<g id="graph0" class="graph" transform="scale(1 1) rotate(0) translate(4 824.5)">
<title>cppgc::internal::PersistentBase::GetValue</title>
<!-- Node1 -->
<g id="node1" class="node">
<title>Node1</title>
<g id="a_node1"><a xlink:title=" ">
<polygon fill="#999999" stroke="#666666" points="718.75,-394.5 591.75,-394.5 591.75,-364 718.75,-364 718.75,-394.5"/>
<text text-anchor="start" x="599.75" y="-381" font-family="Helvetica,sans-Serif" font-size="10.00">cppgc::internal::Persistent</text>
<text text-anchor="middle" x="655.25" y="-369.75" font-family="Helvetica,sans-Serif" font-size="10.00">Base::GetValue</text>
</a>
</g>
</g>
<!-- Node2 -->
<g id="node2" class="node">
<title>Node2</title>
<g id="a_node2"><a xlink:href="classcppgc_1_1internal_1_1BasicPersistent.html#a0bd538038aa020da214af7fac0caf31c" target="_top" xlink:title=" ">
<polygon fill="white" stroke="#666666" points="331.62,-673.5 179.88,-673.5 179.88,-643 331.62,-643 331.62,-673.5"/>
<text text-anchor="start" x="187.88" y="-660" font-family="Helvetica,sans-Serif" font-size="10.00">cppgc::internal::BasicPersistent</text>
<text text-anchor="middle" x="255.75" y="-648.75" font-family="Helvetica,sans-Serif" font-size="10.00">::BasicPersistent</text>
</a>
</g>
</g>
<!-- Node1&#45;&gt;Node2 -->
<g id="edge1" class="edge">
<title>Node1&#45;&gt;Node2</title>
<path fill="none" stroke="#63b8ff" d="M641.36,-404.15C624.81,-434.22 593.66,-484.9 555.75,-518.25 483.45,-581.86 377.28,-622.27 312.82,-642.54"/>
<polygon fill="#63b8ff" stroke="#63b8ff" points="644.73,-406.26 646.4,-395.8 638.57,-402.94 644.73,-406.26"/>
</g>
<!-- Node3 -->
<g id="node3" class="node">
<title>Node3</title>
<g id="a_node3"><a xlink:href="classcppgc_1_1internal_1_1BasicPersistent.html#a74dde4359237ebdcc5056566265ad8be" target="_top" xlink:title=" ">
<polygon fill="white" stroke="#666666" points="541.5,-746.5 389.75,-746.5 389.75,-716 541.5,-716 541.5,-746.5"/>
<text text-anchor="start" x="397.75" y="-733" font-family="Helvetica,sans-Serif" font-size="10.00">cppgc::internal::BasicPersistent</text>
<text text-anchor="middle" x="465.62" y="-721.75" font-family="Helvetica,sans-Serif" font-size="10.00">::Clear</text>
</a>
</g>
</g>
<!-- Node1&#45;&gt;Node3 -->
<g id="edge2" class="edge">
<title>Node1&#45;&gt;Node3</title>
<path fill="none" stroke="#63b8ff" d="M645.6,-405.24C630.43,-449.34 596.7,-540.96 555.75,-612.25 532.99,-651.87 499.1,-693.59 480.35,-715.56"/>
<polygon fill="#63b8ff" stroke="#63b8ff" points="649.23,-406.45 649.14,-395.85 642.6,-404.19 649.23,-406.45"/>
</g>
<!-- Node7 -->
<g id="node7" class="node">
<title>Node7</title>
<g id="a_node7"><a xlink:href="classcppgc_1_1internal_1_1BasicCrossThreadPersistent.html#a11303453def5b5179a064fa1a9c35988" target="_top" xlink:title=" ">
<polygon fill="white" stroke="#666666" points="532.12,-250.5 399.12,-250.5 399.12,-220 532.12,-220 532.12,-250.5"/>
<text text-anchor="start" x="407.12" y="-237" font-family="Helvetica,sans-Serif" font-size="10.00">cppgc::internal::BasicCross</text>
<text text-anchor="middle" x="465.62" y="-225.75" font-family="Helvetica,sans-Serif" font-size="10.00">ThreadPersistent::Get</text>
</a>
</g>
</g>
<!-- Node1&#45;&gt;Node7 -->
<g id="edge6" class="edge">
<title>Node1&#45;&gt;Node7</title>
<path fill="none" stroke="#63b8ff" d="M625.17,-356.93C586.86,-327.53 520.43,-276.55 487.04,-250.92"/>
<polygon fill="#63b8ff" stroke="#63b8ff" points="622.75,-360.25 632.81,-363.57 627.01,-354.7 622.75,-360.25"/>
</g>
<!-- Node16 -->
<g id="node16" class="node">
<title>Node16</title>
<g id="a_node16"><a xlink:href="classcppgc_1_1internal_1_1BasicPersistent.html#ad771b1acc6a1c9a0d51e98e9f3d455d2" target="_top" xlink:title=" ">
<polygon fill="white" stroke="#666666" points="551.62,-508.88 379.62,-508.88 379.62,-489.62 551.62,-489.62 551.62,-508.88"/>
<text text-anchor="middle" x="465.62" y="-495.38" font-family="Helvetica,sans-Serif" font-size="10.00">cppgc::internal::BasicPersistent::Get</text>
</a>
</g>
</g>
<!-- Node1&#45;&gt;Node16 -->
<g id="edge15" class="edge">
<title>Node1&#45;&gt;Node16</title>
<path fill="none" stroke="#63b8ff" d="M620.7,-400.71C579.9,-426.8 512.74,-469.76 482.38,-489.17"/>
<polygon fill="#63b8ff" stroke="#63b8ff" points="622.18,-403.27 628.72,-394.94 618.41,-397.38 622.18,-403.27"/>
</g>
<!-- Node23 -->
<g id="node23" class="node">
<title>Node23</title>
<g id="a_node23"><a xlink:href="classcppgc_1_1internal_1_1BasicCrossThreadPersistent.html#a495e434ac092107ddb112715a863274c" target="_top" xlink:title=" ">
<polygon fill="white" stroke="#666666" points="533.62,-201.5 397.62,-201.5 397.62,-171 533.62,-171 533.62,-201.5"/>
<text text-anchor="start" x="405.62" y="-188" font-family="Helvetica,sans-Serif" font-size="10.00">cppgc::internal::BasicCross</text>
<text text-anchor="middle" x="465.62" y="-176.75" font-family="Helvetica,sans-Serif" font-size="10.00">ThreadPersistent::operator=</text>
</a>
</g>
</g>
<!-- Node1&#45;&gt;Node23 -->
<g id="edge25" class="edge">
<title>Node1&#45;&gt;Node23</title>
<path fill="none" stroke="#63b8ff" d="M646.15,-353.58C633.13,-316.53 604,-248.46 555.75,-211.25 549.26,-206.24 541.82,-202.24 534.06,-199.04"/>
<polygon fill="#63b8ff" stroke="#63b8ff" points="643.01,-354.23 649.54,-362.58 649.64,-351.99 643.01,-354.23"/>
</g>
<!-- Node24 -->
<g id="node24" class="node">
<title>Node24</title>
<g id="a_node24"><a xlink:href="classcppgc_1_1internal_1_1BasicCrossThreadPersistent.html#a4a9f99e98580ac06fdcdfbab0eae4977" target="_top" xlink:title=" ">
<polygon fill="white" stroke="#666666" points="555.75,-153.12 375.5,-153.12 375.5,-111.38 555.75,-111.38 555.75,-153.12"/>
<text text-anchor="start" x="383.5" y="-139.62" font-family="Helvetica,sans-Serif" font-size="10.00">cppgc::internal::BasicCross</text>
<text text-anchor="start" x="383.5" y="-128.38" font-family="Helvetica,sans-Serif" font-size="10.00">ThreadPersistent::~BasicCrossThread</text>
<text text-anchor="middle" x="465.62" y="-117.12" font-family="Helvetica,sans-Serif" font-size="10.00">Persistent</text>
</a>
</g>
</g>
<!-- Node1&#45;&gt;Node24 -->
<g id="edge26" class="edge">
<title>Node1&#45;&gt;Node24</title>
<path fill="none" stroke="#63b8ff" d="M649.4,-352.91C639.7,-307.56 613.65,-214.55 555.75,-162.25 552.12,-158.97 548.11,-156.04 543.87,-153.43"/>
<polygon fill="#63b8ff" stroke="#63b8ff" points="646.15,-353.51 651.57,-362.61 653.01,-352.12 646.15,-353.51"/>
</g>
<!-- Node4 -->
<g id="node4" class="node">
<title>Node4</title>
<g id="a_node4"><a xlink:href="classcppgc_1_1internal_1_1BasicPersistent.html#a64bd8cc47feea777f916b4c9e1272f70" target="_top" xlink:title=" ">
<polygon fill="white" stroke="#666666" points="331.62,-820.5 179.88,-820.5 179.88,-790 331.62,-790 331.62,-820.5"/>
<text text-anchor="start" x="187.88" y="-807" font-family="Helvetica,sans-Serif" font-size="10.00">cppgc::internal::BasicPersistent</text>
<text text-anchor="middle" x="255.75" y="-795.75" font-family="Helvetica,sans-Serif" font-size="10.00">::operator=</text>
</a>
</g>
</g>
<!-- Node3&#45;&gt;Node4 -->
<g id="edge3" class="edge">
<title>Node3&#45;&gt;Node4</title>
<path fill="none" stroke="#63b8ff" d="M416.93,-750.96C393.72,-760.29 365.33,-771.31 339.5,-780.25 330.28,-783.44 320.41,-786.62 310.81,-789.6"/>
<polygon fill="#63b8ff" stroke="#63b8ff" points="417.9,-753.94 425.86,-746.95 415.28,-747.45 417.9,-753.94"/>
</g>
<!-- Node5 -->
<g id="node5" class="node">
<title>Node5</title>
<g id="a_node5"><a xlink:href="classcppgc_1_1internal_1_1BasicPersistent.html#a6ace7843b070dccc7ae98aa1835f1bfd" target="_top" xlink:title=" ">
<polygon fill="white" stroke="#666666" points="331.62,-722.5 179.88,-722.5 179.88,-692 331.62,-692 331.62,-722.5"/>
<text text-anchor="start" x="187.88" y="-709" font-family="Helvetica,sans-Serif" font-size="10.00">cppgc::internal::BasicPersistent</text>
<text text-anchor="middle" x="255.75" y="-697.75" font-family="Helvetica,sans-Serif" font-size="10.00">::Release</text>
</a>
</g>
</g>
<!-- Node3&#45;&gt;Node5 -->
<g id="edge4" class="edge">
<title>Node3&#45;&gt;Node5</title>
<path fill="none" stroke="#63b8ff" d="M378.64,-721.32C363.11,-719.53 347.02,-717.67 331.83,-715.92"/>
<polygon fill="#63b8ff" stroke="#63b8ff" points="377.95,-724.88 388.28,-722.55 378.75,-717.93 377.95,-724.88"/>
</g>
<!-- Node6 -->
<g id="node6" class="node">
<title>Node6</title>
<g id="a_node6"><a xlink:href="classcppgc_1_1internal_1_1BasicPersistent.html#a72c5fa34d75229671de4e28c2164434d" target="_top" xlink:title=" ">
<polygon fill="white" stroke="#666666" points="331.62,-771.5 179.88,-771.5 179.88,-741 331.62,-741 331.62,-771.5"/>
<text text-anchor="start" x="187.88" y="-758" font-family="Helvetica,sans-Serif" font-size="10.00">cppgc::internal::BasicPersistent</text>
<text text-anchor="middle" x="255.75" y="-746.75" font-family="Helvetica,sans-Serif" font-size="10.00">::~BasicPersistent</text>
</a>
</g>
</g>
<!-- Node3&#45;&gt;Node6 -->
<g id="edge5" class="edge">
<title>Node3&#45;&gt;Node6</title>
<path fill="none" stroke="#63b8ff" d="M378.64,-741.59C363.11,-743.46 347.02,-745.39 331.83,-747.22"/>
<polygon fill="#63b8ff" stroke="#63b8ff" points="378.77,-744.98 388.28,-740.31 377.94,-738.03 378.77,-744.98"/>
</g>
<!-- Node8 -->
<g id="node8" class="node">
<title>Node8</title>
<g id="a_node8"><a xlink:href="classcppgc_1_1internal_1_1BasicCrossThreadPersistent.html#a84f83cc8d906976362b01e2549638d1b" target="_top" xlink:title=" ">
<polygon fill="white" stroke="#666666" points="330.88,-226.5 180.62,-226.5 180.62,-196 330.88,-196 330.88,-226.5"/>
<text text-anchor="start" x="188.62" y="-213" font-family="Helvetica,sans-Serif" font-size="10.00">cppgc::internal::BasicCross</text>
<text text-anchor="middle" x="255.75" y="-201.75" font-family="Helvetica,sans-Serif" font-size="10.00">ThreadPersistent::operator bool</text>
</a>
</g>
</g>
<!-- Node7&#45;&gt;Node8 -->
<g id="edge7" class="edge">
<title>Node7&#45;&gt;Node8</title>
<path fill="none" stroke="#63b8ff" d="M388.07,-226.41C369.48,-224.26 349.63,-221.97 331.14,-219.84"/>
<polygon fill="#63b8ff" stroke="#63b8ff" points="387.52,-229.99 397.85,-227.66 388.32,-223.03 387.52,-229.99"/>
</g>
<!-- Node9 -->
<g id="node9" class="node">
<title>Node9</title>
<g id="a_node9"><a xlink:href="classcppgc_1_1internal_1_1BasicCrossThreadPersistent.html#a1aec53f1cfad5e17e9eeec7b5dac1ac8" target="_top" xlink:title=" ">
<polygon fill="white" stroke="#666666" points="326.75,-177.5 184.75,-177.5 184.75,-147 326.75,-147 326.75,-177.5"/>
<text text-anchor="start" x="192.75" y="-164" font-family="Helvetica,sans-Serif" font-size="10.00">cppgc::internal::BasicCross</text>
<text text-anchor="middle" x="255.75" y="-152.75" font-family="Helvetica,sans-Serif" font-size="10.00">ThreadPersistent::operator T*</text>
</a>
</g>
</g>
<!-- Node7&#45;&gt;Node9 -->
<g id="edge8" class="edge">
<title>Node7&#45;&gt;Node9</title>
<path fill="none" stroke="#63b8ff" d="M389.86,-216.06C384.94,-214.25 380.12,-212.32 375.5,-210.25 358.17,-202.49 356.75,-195.18 339.5,-187.25 332,-183.8 323.9,-180.68 315.81,-177.91"/>
<polygon fill="#63b8ff" stroke="#63b8ff" points="388.45,-219.62 399.04,-219.59 390.74,-213.01 388.45,-219.62"/>
</g>
<!-- Node10 -->
<g id="node10" class="node">
<title>Node10</title>
<g id="a_node10"><a xlink:href="classcppgc_1_1internal_1_1BasicCrossThreadPersistent.html#a1d6f2e4b2d492f2c7693892a05187742" target="_top" xlink:title=" ">
<polygon fill="white" stroke="#666666" points="322.62,-128.5 188.88,-128.5 188.88,-98 322.62,-98 322.62,-128.5"/>
<text text-anchor="start" x="196.88" y="-115" font-family="Helvetica,sans-Serif" font-size="10.00">cppgc::internal::BasicCross</text>
<text text-anchor="middle" x="255.75" y="-103.75" font-family="Helvetica,sans-Serif" font-size="10.00">ThreadPersistent::operator*</text>
</a>
</g>
</g>
<!-- Node7&#45;&gt;Node10 -->
<g id="edge9" class="edge">
<title>Node7&#45;&gt;Node10</title>
<path fill="none" stroke="#63b8ff" d="M388.72,-219C384.01,-216.49 379.55,-213.59 375.5,-210.25 347.91,-187.47 366.86,-161.31 339.5,-138.25 334.57,-134.09 328.95,-130.62 323.03,-127.73"/>
<polygon fill="#63b8ff" stroke="#63b8ff" points="387.13,-222.58 397.68,-223.62 390.08,-216.24 387.13,-222.58"/>
</g>
<!-- Node11 -->
<g id="node11" class="node">
<title>Node11</title>
<g id="a_node11"><a xlink:href="classcppgc_1_1internal_1_1BasicCrossThreadPersistent.html#a9989bb2566d1c44ea61b09cb55fc8894" target="_top" xlink:title=" ">
<polygon fill="white" stroke="#666666" points="325.25,-79.5 186.25,-79.5 186.25,-49 325.25,-49 325.25,-79.5"/>
<text text-anchor="start" x="194.25" y="-66" font-family="Helvetica,sans-Serif" font-size="10.00">cppgc::internal::BasicCross</text>
<text text-anchor="middle" x="255.75" y="-54.75" font-family="Helvetica,sans-Serif" font-size="10.00">ThreadPersistent::operator&#45;&gt;</text>
</a>
</g>
</g>
<!-- Node7&#45;&gt;Node11 -->
<g id="edge10" class="edge">
<title>Node7&#45;&gt;Node11</title>
<path fill="none" stroke="#63b8ff" d="M389.53,-220.65C384.41,-217.77 379.65,-214.34 375.5,-210.25 335.52,-170.89 379.09,-129.01 339.5,-89.25 335.37,-85.1 330.58,-81.64 325.42,-78.75"/>
<polygon fill="#63b8ff" stroke="#63b8ff" points="387.54,-224.06 398.07,-225.25 390.59,-217.75 387.54,-224.06"/>
</g>
<!-- Node12 -->
<g id="node12" class="node">
<title>Node12</title>
<g id="a_node12"><a xlink:href="classcppgc_1_1internal_1_1BasicCrossThreadPersistent.html#ac0fd17a29487381e9c38a6f70267d4f2" target="_top" xlink:title=" ">
<polygon fill="white" stroke="#666666" points="323.75,-30.5 187.75,-30.5 187.75,0 323.75,0 323.75,-30.5"/>
<text text-anchor="start" x="195.75" y="-17" font-family="Helvetica,sans-Serif" font-size="10.00">cppgc::internal::BasicCross</text>
<text text-anchor="middle" x="255.75" y="-5.75" font-family="Helvetica,sans-Serif" font-size="10.00">ThreadPersistent::operator=</text>
</a>
</g>
</g>
<!-- Node7&#45;&gt;Node12 -->
<g id="edge11" class="edge">
<title>Node7&#45;&gt;Node12</title>
<path fill="none" stroke="#63b8ff" d="M389.42,-221.16C384.29,-218.17 379.55,-214.57 375.5,-210.25 322.69,-153.9 391.75,-97.12 339.5,-40.25 335.13,-35.5 329.9,-31.64 324.21,-28.5"/>
<polygon fill="#63b8ff" stroke="#63b8ff" points="387.52,-224.62 398.04,-225.91 390.62,-218.34 387.52,-224.62"/>
</g>
<!-- Node14 -->
<g id="node14" class="node">
<title>Node14</title>
<g id="a_node14"><a xlink:href="classcppgc_1_1internal_1_1BasicCrossThreadPersistent.html#abb70613317d91b74292c7f20a5b52226" target="_top" xlink:title=" ">
<polygon fill="white" stroke="#666666" points="322.25,-324.5 189.25,-324.5 189.25,-294 322.25,-294 322.25,-324.5"/>
<text text-anchor="start" x="197.25" y="-311" font-family="Helvetica,sans-Serif" font-size="10.00">cppgc::internal::BasicCross</text>
<text text-anchor="middle" x="255.75" y="-299.75" font-family="Helvetica,sans-Serif" font-size="10.00">ThreadPersistent::Release</text>
</a>
</g>
</g>
<!-- Node7&#45;&gt;Node14 -->
<g id="edge13" class="edge">
<title>Node7&#45;&gt;Node14</title>
<path fill="none" stroke="#63b8ff" d="M416.93,-254.96C393.72,-264.29 365.33,-275.31 339.5,-284.25 330.28,-287.44 320.41,-290.62 310.81,-293.6"/>
<polygon fill="#63b8ff" stroke="#63b8ff" points="417.9,-257.94 425.86,-250.95 415.28,-251.45 417.9,-257.94"/>
</g>
<!-- Node15 -->
<g id="node15" class="node">
<title>Node15</title>
<g id="a_node15"><a xlink:href="classcppgc_1_1internal_1_1BasicCrossThreadPersistent.html#a94dd54135f677d67ba26145acad8d876" target="_top" xlink:title=" ">
<polygon fill="white" stroke="#666666" points="322.25,-275.5 189.25,-275.5 189.25,-245 322.25,-245 322.25,-275.5"/>
<text text-anchor="start" x="197.25" y="-262" font-family="Helvetica,sans-Serif" font-size="10.00">cppgc::internal::BasicCross</text>
<text text-anchor="middle" x="255.75" y="-250.75" font-family="Helvetica,sans-Serif" font-size="10.00">ThreadPersistent::To</text>
</a>
</g>
</g>
<!-- Node7&#45;&gt;Node15 -->
<g id="edge14" class="edge">
<title>Node7&#45;&gt;Node15</title>
<path fill="none" stroke="#63b8ff" d="M388.09,-244.45C366.55,-247.05 343.31,-249.84 322.45,-252.35"/>
<polygon fill="#63b8ff" stroke="#63b8ff" points="388.34,-247.83 397.85,-243.16 387.51,-240.88 388.34,-247.83"/>
</g>
<!-- Node13 -->
<g id="node13" class="node">
<title>Node13</title>
<g id="a_node13"><a xlink:href="classcppgc_1_1internal_1_1BasicCrossThreadPersistent.html#a5bbad1a41a588db1131b0a3340a4c4ec" target="_top" xlink:title=" ">
<polygon fill="white" stroke="#666666" points="136,-30.5 0,-30.5 0,0 136,0 136,-30.5"/>
<text text-anchor="start" x="8" y="-17" font-family="Helvetica,sans-Serif" font-size="10.00">cppgc::internal::BasicCross</text>
<text text-anchor="middle" x="68" y="-5.75" font-family="Helvetica,sans-Serif" font-size="10.00">ThreadPersistent::operator=</text>
</a>
</g>
</g>
<!-- Node12&#45;&gt;Node13 -->
<g id="edge12" class="edge">
<title>Node12&#45;&gt;Node13</title>
<path fill="none" stroke="#63b8ff" d="M176.78,-15.25C163.36,-15.25 149.52,-15.25 136.4,-15.25"/>
<polygon fill="#63b8ff" stroke="#63b8ff" points="176.43,-18.75 186.43,-15.25 176.43,-11.75 176.43,-18.75"/>
</g>
<!-- Node16&#45;&gt;Node2 -->
<g id="edge16" class="edge">
<title>Node16&#45;&gt;Node2</title>
<path fill="none" stroke="#63b8ff" d="M444.94,-516.21C426.21,-532.74 397.69,-559.02 375.5,-584.25 357.65,-604.54 361.57,-617.65 339.5,-633.25 334.35,-636.89 328.67,-640.01 322.76,-642.67"/>
<polygon fill="#63b8ff" stroke="#63b8ff" points="446.81,-518.34 452.03,-509.13 442.2,-513.08 446.81,-518.34"/>
</g>
<!-- Node16&#45;&gt;Node5 -->
<g id="edge23" class="edge">
<title>Node16&#45;&gt;Node5</title>
<path fill="none" stroke="#63b8ff" d="M456.5,-519.1C440.09,-556.67 399.41,-638.36 339.5,-682.25 334.54,-685.89 329.04,-689 323.31,-691.66"/>
<polygon fill="#63b8ff" stroke="#63b8ff" points="459.95,-520.91 460.64,-510.34 453.51,-518.17 459.95,-520.91"/>
</g>
<!-- Node17 -->
<g id="node17" class="node">
<title>Node17</title>
<g id="a_node17"><a xlink:href="classcppgc_1_1internal_1_1BasicPersistent.html#aa482ce311ee265edc2e0fa0133de8648" target="_top" xlink:title=" ">
<polygon fill="white" stroke="#666666" points="331.62,-471.5 179.88,-471.5 179.88,-441 331.62,-441 331.62,-471.5"/>
<text text-anchor="start" x="187.88" y="-458" font-family="Helvetica,sans-Serif" font-size="10.00">cppgc::internal::BasicPersistent</text>
<text text-anchor="middle" x="255.75" y="-446.75" font-family="Helvetica,sans-Serif" font-size="10.00">::operator bool</text>
</a>
</g>
</g>
<!-- Node16&#45;&gt;Node17 -->
<g id="edge17" class="edge">
<title>Node16&#45;&gt;Node17</title>
<path fill="none" stroke="#63b8ff" d="M405.34,-486.99C382.52,-482.27 356.16,-476.81 332.04,-471.82"/>
<polygon fill="#63b8ff" stroke="#63b8ff" points="404.39,-490.57 414.89,-489.17 405.8,-483.72 404.39,-490.57"/>
</g>
<!-- Node18 -->
<g id="node18" class="node">
<title>Node18</title>
<g id="a_node18"><a xlink:href="classcppgc_1_1internal_1_1BasicPersistent.html#a5ef52055741895dd89ffc999f701bf2e" target="_top" xlink:title=" ">
<polygon fill="white" stroke="#666666" points="331.62,-422.5 179.88,-422.5 179.88,-392 331.62,-392 331.62,-422.5"/>
<text text-anchor="start" x="187.88" y="-409" font-family="Helvetica,sans-Serif" font-size="10.00">cppgc::internal::BasicPersistent</text>
<text text-anchor="middle" x="255.75" y="-397.75" font-family="Helvetica,sans-Serif" font-size="10.00">::operator T*</text>
</a>
</g>
</g>
<!-- Node16&#45;&gt;Node18 -->
<g id="edge18" class="edge">
<title>Node16&#45;&gt;Node18</title>
<path fill="none" stroke="#63b8ff" d="M439.15,-483.67C414.37,-468.99 375.32,-447.08 339.5,-432.25 331.32,-428.86 322.51,-425.71 313.81,-422.86"/>
<polygon fill="#63b8ff" stroke="#63b8ff" points="437.16,-487.16 447.54,-489.29 440.76,-481.15 437.16,-487.16"/>
</g>
<!-- Node19 -->
<g id="node19" class="node">
<title>Node19</title>
<g id="a_node19"><a xlink:href="classcppgc_1_1internal_1_1BasicPersistent.html#ab97e13c375479bd323625ee17519cd28" target="_top" xlink:title=" ">
<polygon fill="white" stroke="#666666" points="331.62,-373.5 179.88,-373.5 179.88,-343 331.62,-343 331.62,-373.5"/>
<text text-anchor="start" x="187.88" y="-360" font-family="Helvetica,sans-Serif" font-size="10.00">cppgc::internal::BasicPersistent</text>
<text text-anchor="middle" x="255.75" y="-348.75" font-family="Helvetica,sans-Serif" font-size="10.00">::operator*</text>
</a>
</g>
</g>
<!-- Node16&#45;&gt;Node19 -->
<g id="edge19" class="edge">
<title>Node16&#45;&gt;Node19</title>
<path fill="none" stroke="#63b8ff" d="M449.64,-480.86C427.93,-455.37 385.28,-409.49 339.5,-383.25 333.25,-379.67 326.43,-376.55 319.49,-373.85"/>
<polygon fill="#63b8ff" stroke="#63b8ff" points="447.56,-482.83 456.66,-488.26 452.93,-478.34 447.56,-482.83"/>
</g>
<!-- Node20 -->
<g id="node20" class="node">
<title>Node20</title>
<g id="a_node20"><a xlink:href="classcppgc_1_1internal_1_1BasicPersistent.html#a751d2f671eb8592ecb8106d720496acf" target="_top" xlink:title=" ">
<polygon fill="white" stroke="#666666" points="331.62,-624.5 179.88,-624.5 179.88,-594 331.62,-594 331.62,-624.5"/>
<text text-anchor="start" x="187.88" y="-611" font-family="Helvetica,sans-Serif" font-size="10.00">cppgc::internal::BasicPersistent</text>
<text text-anchor="middle" x="255.75" y="-599.75" font-family="Helvetica,sans-Serif" font-size="10.00">::operator&#45;&gt;</text>
</a>
</g>
</g>
<!-- Node16&#45;&gt;Node20 -->
<g id="edge20" class="edge">
<title>Node16&#45;&gt;Node20</title>
<path fill="none" stroke="#63b8ff" d="M444.06,-516.13C420.2,-535 379.05,-565.39 339.5,-584.25 332.19,-587.74 324.27,-590.87 316.34,-593.63"/>
<polygon fill="#63b8ff" stroke="#63b8ff" points="445.99,-518.27 451.61,-509.28 441.61,-512.8 445.99,-518.27"/>
</g>
<!-- Node21 -->
<g id="node21" class="node">
<title>Node21</title>
<g id="a_node21"><a xlink:href="classcppgc_1_1internal_1_1BasicPersistent.html#a8aafec5d5b02eb3295d601e251f277e2" target="_top" xlink:title=" ">
<polygon fill="white" stroke="#666666" points="331.62,-557.5 179.88,-557.5 179.88,-527 331.62,-527 331.62,-557.5"/>
<text text-anchor="start" x="187.88" y="-544" font-family="Helvetica,sans-Serif" font-size="10.00">cppgc::internal::BasicPersistent</text>
<text text-anchor="middle" x="255.75" y="-532.75" font-family="Helvetica,sans-Serif" font-size="10.00">::operator=</text>
</a>
</g>
</g>
<!-- Node16&#45;&gt;Node21 -->
<g id="edge21" class="edge">
<title>Node16&#45;&gt;Node21</title>
<path fill="none" stroke="#63b8ff" d="M405.34,-511.51C382.52,-516.23 356.16,-521.69 332.04,-526.68"/>
<polygon fill="#63b8ff" stroke="#63b8ff" points="405.8,-514.78 414.89,-509.33 404.39,-507.93 405.8,-514.78"/>
</g>
<!-- Node22 -->
<g id="node22" class="node">
<title>Node22</title>
<g id="a_node22"><a xlink:href="classcppgc_1_1internal_1_1BasicPersistent.html#a3c5ac0b9306390e41bd62e23beb2ef7e" target="_top" xlink:title=" ">
<polygon fill="white" stroke="#666666" points="339.5,-508.88 172,-508.88 172,-489.62 339.5,-489.62 339.5,-508.88"/>
<text text-anchor="middle" x="255.75" y="-495.38" font-family="Helvetica,sans-Serif" font-size="10.00">cppgc::internal::BasicPersistent::To</text>
</a>
</g>
</g>
<!-- Node16&#45;&gt;Node22 -->
<g id="edge24" class="edge">
<title>Node16&#45;&gt;Node22</title>
<path fill="none" stroke="#63b8ff" d="M368.45,-499.25C358.9,-499.25 349.26,-499.25 339.86,-499.25"/>
<polygon fill="#63b8ff" stroke="#63b8ff" points="368.17,-502.75 378.17,-499.25 368.17,-495.75 368.17,-502.75"/>
</g>
<!-- Node21&#45;&gt;Node21 -->
<g id="edge22" class="edge">
<title>Node21&#45;&gt;Node21</title>
<path fill="none" stroke="#63b8ff" d="M287.66,-568.88C282.68,-572.83 272.05,-575.5 255.75,-575.5 226.78,-575.5 215.69,-567.06 222.48,-557.99"/>
<polygon fill="#63b8ff" stroke="#63b8ff" points="291.26,-569.34 289.02,-558.99 284.31,-568.48 291.26,-569.34"/>
</g>
</g>
</svg>
