<?xml version="1.0" encoding="UTF-8" standalone="no"?>
<!DOCTYPE svg PUBLIC "-//W3C//DTD SVG 1.1//EN"
 "http://www.w3.org/Graphics/SVG/1.1/DTD/svg11.dtd">
<!-- Generated by graphviz version 8.0.5 (20230430.1635)
 -->
<!-- Title: Graphical Class Hierarchy Pages: 1 -->
<svg width="310pt" height="64pt"
 viewBox="0.00 0.00 310.00 64.25" xmlns="http://www.w3.org/2000/svg" xmlns:xlink="http://www.w3.org/1999/xlink">
<g id="graph0" class="graph" transform="scale(1 1) rotate(0) translate(4 60.25)">
<title>Graphical Class Hierarchy</title>
<!-- Node0 -->
<g id="node1" class="node">
<title>Node0</title>
<g id="a_node1"><a xlink:href="classcppgc_1_1internal_1_1GarbageCollectedBase.html" target="_top" xlink:title=" ">
<polygon fill="white" stroke="#666666" points="119.5,-42.88 0,-42.88 0,-12.37 119.5,-12.37 119.5,-42.88"/>
<text text-anchor="start" x="8" y="-29.38" font-family="Helvetica,sans-Serif" font-size="10.00">cppgc::internal::Garbage</text>
<text text-anchor="middle" x="59.75" y="-18.12" font-family="Helvetica,sans-Serif" font-size="10.00">CollectedBase</text>
</a>
</g>
</g>
<!-- Node1 -->
<g id="node2" class="node">
<title>Node1</title>
<g id="a_node2"><a xlink:href="classcppgc_1_1GarbageCollected.html" target="_top" xlink:title=" ">
<polygon fill="white" stroke="#666666" points="302,-56.25 155.5,-56.25 155.5,-37 302,-37 302,-56.25"/>
<text text-anchor="middle" x="228.75" y="-42.75" font-family="Helvetica,sans-Serif" font-size="10.00">cppgc::GarbageCollected&lt; T &gt;</text>
</a>
</g>
</g>
<!-- Node0&#45;&gt;Node1 -->
<g id="edge1" class="edge">
<title>Node0&#45;&gt;Node1</title>
<path fill="none" stroke="#63b8ff" d="M130.54,-35.56C138.64,-36.49 146.92,-37.43 155.06,-38.36"/>
<polygon fill="#63b8ff" stroke="#63b8ff" points="130.96,-31.98 120.63,-34.32 130.17,-38.93 130.96,-31.98"/>
</g>
<!-- Node2 -->
<g id="node3" class="node">
<title>Node2</title>
<g id="a_node3"><a xlink:href="classcppgc_1_1GarbageCollectedMixin.html" target="_top" xlink:title=" ">
<polygon fill="white" stroke="#666666" points="302,-19.25 155.5,-19.25 155.5,0 302,0 302,-19.25"/>
<text text-anchor="middle" x="228.75" y="-5.75" font-family="Helvetica,sans-Serif" font-size="10.00">cppgc::GarbageCollectedMixin</text>
</a>
</g>
</g>
<!-- Node0&#45;&gt;Node2 -->
<g id="edge2" class="edge">
<title>Node0&#45;&gt;Node2</title>
<path fill="none" stroke="#63b8ff" d="M130.54,-20.1C138.64,-19.23 146.92,-18.34 155.06,-17.46"/>
<polygon fill="#63b8ff" stroke="#63b8ff" points="130.2,-16.73 120.63,-21.28 130.95,-23.69 130.2,-16.73"/>
</g>
</g>
</svg>
