<?xml version="1.0" encoding="UTF-8" standalone="no"?>
<!DOCTYPE svg PUBLIC "-//W3C//DTD SVG 1.1//EN"
 "http://www.w3.org/Graphics/SVG/1.1/DTD/svg11.dtd">
<!-- Generated by graphviz version 8.0.5 (20230430.1635)
 -->
<!-- Title: Graphical Class Hierarchy Pages: 1 -->
<svg width="488pt" height="64pt"
 viewBox="0.00 0.00 488.00 64.25" xmlns="http://www.w3.org/2000/svg" xmlns:xlink="http://www.w3.org/1999/xlink">
<g id="graph0" class="graph" transform="scale(1 1) rotate(0) translate(4 60.25)">
<title>Graphical Class Hierarchy</title>
<!-- Node0 -->
<g id="node1" class="node">
<title>Node0</title>
<g id="a_node1"><a xlink:href="classv8_1_1TracedReferenceBase.html" target="_top" xlink:title=" ">
<polygon fill="white" stroke="#666666" points="127.75,-37.25 0,-37.25 0,-18 127.75,-18 127.75,-37.25"/>
<text text-anchor="middle" x="63.88" y="-23.75" font-family="Helvetica,sans-Serif" font-size="10.00">v8::TracedReferenceBase</text>
</a>
</g>
</g>
<!-- Node1 -->
<g id="node2" class="node">
<title>Node1</title>
<g id="a_node2"><a xlink:href="classv8_1_1BasicTracedReference.html" target="_top" xlink:title=" ">
<polygon fill="white" stroke="#666666" points="316.25,-37.25 163.75,-37.25 163.75,-18 316.25,-18 316.25,-37.25"/>
<text text-anchor="middle" x="240" y="-23.75" font-family="Helvetica,sans-Serif" font-size="10.00">v8::BasicTracedReference&lt; T &gt;</text>
</a>
</g>
</g>
<!-- Node0&#45;&gt;Node1 -->
<g id="edge1" class="edge">
<title>Node0&#45;&gt;Node1</title>
<path fill="none" stroke="#63b8ff" d="M139.04,-27.62C147.06,-27.62 155.22,-27.62 163.25,-27.62"/>
<polygon fill="#63b8ff" stroke="#63b8ff" points="139.23,-24.13 129.23,-27.62 139.23,-31.13 139.23,-24.13"/>
</g>
<!-- Node2 -->
<g id="node3" class="node">
<title>Node2</title>
<g id="a_node3"><a xlink:href="classv8_1_1TracedGlobal.html" target="_top" xlink:title=" ">
<polygon fill="white" stroke="#666666" points="471.75,-56.25 360.5,-56.25 360.5,-37 471.75,-37 471.75,-56.25"/>
<text text-anchor="middle" x="416.12" y="-42.75" font-family="Helvetica,sans-Serif" font-size="10.00">v8::TracedGlobal&lt; T &gt;</text>
</a>
</g>
</g>
<!-- Node1&#45;&gt;Node2 -->
<g id="edge2" class="edge">
<title>Node1&#45;&gt;Node2</title>
<path fill="none" stroke="#63b8ff" d="M327.27,-37.04C338.41,-38.25 349.58,-39.47 360.02,-40.61"/>
<polygon fill="#63b8ff" stroke="#63b8ff" points="327.93,-33.48 317.61,-35.88 327.18,-40.44 327.93,-33.48"/>
</g>
<!-- Node3 -->
<g id="node4" class="node">
<title>Node3</title>
<g id="a_node4"><a xlink:href="classv8_1_1TracedReference.html" target="_top" xlink:title=" ">
<polygon fill="white" stroke="#666666" points="480,-19.25 352.25,-19.25 352.25,0 480,0 480,-19.25"/>
<text text-anchor="middle" x="416.12" y="-5.75" font-family="Helvetica,sans-Serif" font-size="10.00">v8::TracedReference&lt; T &gt;</text>
</a>
</g>
</g>
<!-- Node1&#45;&gt;Node3 -->
<g id="edge3" class="edge">
<title>Node1&#45;&gt;Node3</title>
<path fill="none" stroke="#63b8ff" d="M327.41,-18.69C335.64,-17.84 343.88,-16.99 351.83,-16.17"/>
<polygon fill="#63b8ff" stroke="#63b8ff" points="327.2,-15.3 317.61,-19.81 327.92,-22.26 327.2,-15.3"/>
</g>
</g>
</svg>
