<?xml version="1.0" encoding="UTF-8" standalone="no"?>
<!DOCTYPE svg PUBLIC "-//W3C//DTD SVG 1.1//EN"
 "http://www.w3.org/Graphics/SVG/1.1/DTD/svg11.dtd">
<!-- Generated by graphviz version 8.0.5 (20230430.1635)
 -->
<!-- Title: include/libplatform/libplatform&#45;export.h Pages: 1 -->
<svg width="148pt" height="238pt"
 viewBox="0.00 0.00 147.50 238.00" xmlns="http://www.w3.org/2000/svg" xmlns:xlink="http://www.w3.org/1999/xlink">
<g id="graph0" class="graph" transform="scale(1 1) rotate(0) translate(4 234)">
<title>include/libplatform/libplatform&#45;export.h</title>
<!-- Node1 -->
<g id="node1" class="node">
<title>Node1</title>
<g id="a_node1"><a xlink:title=" ">
<polygon fill="#999999" stroke="#666666" points="104.5,-230 3.75,-230 3.75,-199.5 104.5,-199.5 104.5,-230"/>
<text text-anchor="start" x="11.75" y="-216.5" font-family="Helvetica,sans-Serif" font-size="10.00">include/libplatform</text>
<text text-anchor="middle" x="54.12" y="-205.25" font-family="Helvetica,sans-Serif" font-size="10.00">/libplatform&#45;export.h</text>
</a>
</g>
</g>
<!-- Node2 -->
<g id="node2" class="node">
<title>Node2</title>
<g id="a_node2"><a xlink:href="libplatform_8h.html" target="_top" xlink:title=" ">
<polygon fill="white" stroke="#666666" points="101.5,-97 6.75,-97 6.75,-66.5 101.5,-66.5 101.5,-97"/>
<text text-anchor="start" x="14.75" y="-83.5" font-family="Helvetica,sans-Serif" font-size="10.00">include/libplatform</text>
<text text-anchor="middle" x="54.12" y="-72.25" font-family="Helvetica,sans-Serif" font-size="10.00">/libplatform.h</text>
</a>
</g>
</g>
<!-- Node1&#45;&gt;Node2 -->
<g id="edge1" class="edge">
<title>Node1&#45;&gt;Node2</title>
<path fill="none" stroke="#63b8ff" d="M43.37,-189.03C40.41,-181.04 37.61,-172.04 36.12,-163.5 33.81,-150.14 33.81,-146.36 36.12,-133 38.28,-120.58 43.23,-107.18 47.39,-97.34"/>
<polygon fill="#63b8ff" stroke="#63b8ff" points="40.45,-190.16 47.39,-198.16 46.95,-187.58 40.45,-190.16"/>
</g>
<!-- Node4 -->
<g id="node4" class="node">
<title>Node4</title>
<g id="a_node4"><a xlink:href="v8-tracing_8h.html" target="_top" xlink:title=" ">
<polygon fill="white" stroke="#666666" points="139.5,-163.5 44.75,-163.5 44.75,-133 139.5,-133 139.5,-163.5"/>
<text text-anchor="start" x="52.75" y="-150" font-family="Helvetica,sans-Serif" font-size="10.00">include/libplatform</text>
<text text-anchor="middle" x="92.12" y="-138.75" font-family="Helvetica,sans-Serif" font-size="10.00">/v8&#45;tracing.h</text>
</a>
</g>
</g>
<!-- Node1&#45;&gt;Node4 -->
<g id="edge3" class="edge">
<title>Node1&#45;&gt;Node4</title>
<path fill="none" stroke="#63b8ff" d="M68.24,-189.79C73.38,-181.07 79.02,-171.49 83.54,-163.83"/>
<polygon fill="#63b8ff" stroke="#63b8ff" points="64.81,-187.72 62.75,-198.11 70.84,-191.27 64.81,-187.72"/>
</g>
<!-- Node3 -->
<g id="node3" class="node">
<title>Node3</title>
<g id="a_node3"><a xlink:href="default-platform_8h.html" target="_top" xlink:title=" ">
<polygon fill="white" stroke="#666666" points="108.25,-30.5 0,-30.5 0,0 108.25,0 108.25,-30.5"/>
<text text-anchor="start" x="8" y="-17" font-family="Helvetica,sans-Serif" font-size="10.00">include/cppgc/default</text>
<text text-anchor="middle" x="54.12" y="-5.75" font-family="Helvetica,sans-Serif" font-size="10.00">&#45;platform.h</text>
</a>
</g>
</g>
<!-- Node2&#45;&gt;Node3 -->
<g id="edge2" class="edge">
<title>Node2&#45;&gt;Node3</title>
<path fill="none" stroke="#63b8ff" d="M54.12,-55.38C54.12,-47.05 54.12,-38.08 54.12,-30.83"/>
<polygon fill="#63b8ff" stroke="#63b8ff" points="50.63,-55.11 54.12,-65.11 57.63,-55.11 50.63,-55.11"/>
</g>
<!-- Node4&#45;&gt;Node2 -->
<g id="edge4" class="edge">
<title>Node4&#45;&gt;Node2</title>
<path fill="none" stroke="#63b8ff" d="M78.01,-123.29C72.87,-114.57 67.23,-104.99 62.71,-97.33"/>
<polygon fill="#63b8ff" stroke="#63b8ff" points="75.41,-124.77 83.5,-131.61 81.44,-121.22 75.41,-124.77"/>
</g>
</g>
</svg>
