<?xml version="1.0" encoding="UTF-8" standalone="no"?>
<!DOCTYPE svg PUBLIC "-//W3C//DTD SVG 1.1//EN"
 "http://www.w3.org/Graphics/SVG/1.1/DTD/svg11.dtd">
<!-- Generated by graphviz version 8.0.5 (20230430.1635)
 -->
<!-- Title: include/v8&#45;object.h Pages: 1 -->
<svg width="1125pt" height="359pt"
 viewBox="0.00 0.00 1125.08 358.75" xmlns="http://www.w3.org/2000/svg" xmlns:xlink="http://www.w3.org/1999/xlink">
<g id="graph0" class="graph" transform="scale(1 1) rotate(0) translate(4 354.75)">
<title>include/v8&#45;object.h</title>
<!-- Node1 -->
<g id="node1" class="node">
<title>Node1</title>
<g id="a_node1"><a xlink:title=" ">
<polygon fill="#999999" stroke="#666666" points="380.5,-350.75 283.5,-350.75 283.5,-331.5 380.5,-331.5 380.5,-350.75"/>
<text text-anchor="middle" x="332" y="-337.25" font-family="Helvetica,sans-Serif" font-size="10.00">include/v8&#45;object.h</text>
</a>
</g>
</g>
<!-- Node2 -->
<g id="node2" class="node">
<title>Node2</title>
<g id="a_node2"><a xlink:href="v8-local-handle_8h.html" target="_top" xlink:title=" ">
<polygon fill="white" stroke="#666666" points="594.38,-129.75 505.62,-129.75 505.62,-110.5 594.38,-110.5 594.38,-129.75"/>
<text text-anchor="middle" x="550" y="-116.25" font-family="Helvetica,sans-Serif" font-size="10.00">v8&#45;local&#45;handle.h</text>
</a>
</g>
</g>
<!-- Node1&#45;&gt;Node2 -->
<g id="edge1" class="edge">
<title>Node1&#45;&gt;Node2</title>
<path fill="none" stroke="#63b8ff" d="M364.57,-331.08C405.67,-317.95 475.63,-289.63 514,-240.25 530.65,-218.82 532.04,-210.95 540,-185 544.44,-170.52 546.98,-153.57 548.38,-140.77"/>
<polygon fill="#63b8ff" stroke="#63b8ff" points="551.95,-141.27 549.41,-130.98 544.98,-140.6 551.95,-141.27"/>
</g>
<!-- Node9 -->
<g id="node9" class="node">
<title>Node9</title>
<g id="a_node9"><a xlink:href="v8config_8h.html" target="_top" xlink:title=" ">
<polygon fill="white" stroke="#666666" points="219.75,-19.25 160.25,-19.25 160.25,0 219.75,0 219.75,-19.25"/>
<text text-anchor="middle" x="190" y="-5.75" font-family="Helvetica,sans-Serif" font-size="10.00">v8config.h</text>
</a>
</g>
</g>
<!-- Node1&#45;&gt;Node9 -->
<g id="edge48" class="edge">
<title>Node1&#45;&gt;Node9</title>
<path fill="none" stroke="#63b8ff" d="M283.01,-334.47C190.66,-322.43 0,-290.44 0,-231.62 0,-231.62 0,-231.62 0,-119.12 0,-50.93 93.44,-25.02 149.27,-15.63"/>
<polygon fill="#63b8ff" stroke="#63b8ff" points="149.56,-18.97 158.89,-13.96 148.47,-12.06 149.56,-18.97"/>
</g>
<!-- Node10 -->
<g id="node10" class="node">
<title>Node10</title>
<g id="a_node10"><a xlink:href="v8-maybe_8h.html" target="_top" xlink:title=" ">
<polygon fill="white" stroke="#666666" points="131.75,-185 66.25,-185 66.25,-165.75 131.75,-165.75 131.75,-185"/>
<text text-anchor="middle" x="99" y="-171.5" font-family="Helvetica,sans-Serif" font-size="10.00">v8&#45;maybe.h</text>
</a>
</g>
</g>
<!-- Node1&#45;&gt;Node10 -->
<g id="edge11" class="edge">
<title>Node1&#45;&gt;Node10</title>
<path fill="none" stroke="#63b8ff" d="M319.14,-331.09C281.03,-304.3 168.38,-225.13 120.7,-191.63"/>
<polygon fill="#63b8ff" stroke="#63b8ff" points="123.01,-188.27 112.82,-185.38 118.99,-194 123.01,-188.27"/>
</g>
<!-- Node11 -->
<g id="node11" class="node">
<title>Node11</title>
<g id="a_node11"><a xlink:href="v8-persistent-handle_8h.html" target="_top" xlink:title=" ">
<polygon fill="white" stroke="#666666" points="299.62,-185 188.38,-185 188.38,-165.75 299.62,-165.75 299.62,-185"/>
<text text-anchor="middle" x="244" y="-171.5" font-family="Helvetica,sans-Serif" font-size="10.00">v8&#45;persistent&#45;handle.h</text>
</a>
</g>
</g>
<!-- Node1&#45;&gt;Node11 -->
<g id="edge14" class="edge">
<title>Node1&#45;&gt;Node11</title>
<path fill="none" stroke="#63b8ff" d="M327.27,-331.32C313.42,-305.55 272.77,-229.9 253.87,-194.74"/>
<polygon fill="#63b8ff" stroke="#63b8ff" points="256.57,-193.37 248.75,-186.22 250.41,-196.69 256.57,-193.37"/>
</g>
<!-- Node13 -->
<g id="node13" class="node">
<title>Node13</title>
<g id="a_node13"><a xlink:href="v8-primitive_8h.html" target="_top" xlink:title=" ">
<polygon fill="white" stroke="#666666" points="437.88,-295.5 364.12,-295.5 364.12,-276.25 437.88,-276.25 437.88,-295.5"/>
<text text-anchor="middle" x="401" y="-282" font-family="Helvetica,sans-Serif" font-size="10.00">v8&#45;primitive.h</text>
</a>
</g>
</g>
<!-- Node1&#45;&gt;Node13 -->
<g id="edge20" class="edge">
<title>Node1&#45;&gt;Node13</title>
<path fill="none" stroke="#63b8ff" d="M343.7,-331.09C353.88,-323.24 368.83,-311.7 380.92,-302.37"/>
<polygon fill="#63b8ff" stroke="#63b8ff" points="382.69,-304.66 388.47,-295.77 378.41,-299.11 382.69,-304.66"/>
</g>
<!-- Node15 -->
<g id="node15" class="node">
<title>Node15</title>
<g id="a_node15"><a xlink:href="v8-value_8h.html" target="_top" xlink:title=" ">
<polygon fill="white" stroke="#666666" points="362.12,-240.25 301.88,-240.25 301.88,-221 362.12,-221 362.12,-240.25"/>
<text text-anchor="middle" x="332" y="-226.75" font-family="Helvetica,sans-Serif" font-size="10.00">v8&#45;value.h</text>
</a>
</g>
</g>
<!-- Node1&#45;&gt;Node15 -->
<g id="edge47" class="edge">
<title>Node1&#45;&gt;Node15</title>
<path fill="none" stroke="#63b8ff" d="M332,-331.25C332,-313.92 332,-275.23 332,-251.49"/>
<polygon fill="#63b8ff" stroke="#63b8ff" points="335.5,-251.63 332,-241.63 328.5,-251.63 335.5,-251.63"/>
</g>
<!-- Node16 -->
<g id="node16" class="node">
<title>Node16</title>
<g id="a_node16"><a xlink:href="v8-traced-handle_8h.html" target="_top" xlink:title=" ">
<polygon fill="white" stroke="#666666" points="844.75,-185 749.25,-185 749.25,-165.75 844.75,-165.75 844.75,-185"/>
<text text-anchor="middle" x="797" y="-171.5" font-family="Helvetica,sans-Serif" font-size="10.00">v8&#45;traced&#45;handle.h</text>
</a>
</g>
</g>
<!-- Node1&#45;&gt;Node16 -->
<g id="edge33" class="edge">
<title>Node1&#45;&gt;Node16</title>
<path fill="none" stroke="#63b8ff" d="M380.99,-335.1C429.48,-329.15 505.35,-317.19 568,-295.5 647.64,-267.93 733.85,-216.58 774,-191.27"/>
<polygon fill="#63b8ff" stroke="#63b8ff" points="775.63,-193.74 782.19,-185.42 771.87,-187.84 775.63,-193.74"/>
</g>
<!-- Node3 -->
<g id="node3" class="node">
<title>Node3</title>
<g id="a_node3"><a xlink:title=" ">
<polygon fill="#e0e0e0" stroke="#999999" points="649.25,-19.25 598.75,-19.25 598.75,0 649.25,0 649.25,-19.25"/>
<text text-anchor="middle" x="624" y="-5.75" font-family="Helvetica,sans-Serif" font-size="10.00">stddef.h</text>
</a>
</g>
</g>
<!-- Node2&#45;&gt;Node3 -->
<g id="edge2" class="edge">
<title>Node2&#45;&gt;Node3</title>
<path fill="none" stroke="#63b8ff" d="M560.16,-110.32C569.53,-101.82 583.39,-88.26 593,-74.5 602.92,-60.29 611.3,-42.41 616.83,-29.19"/>
<polygon fill="#63b8ff" stroke="#63b8ff" points="620.3,-30.94 620.78,-20.36 613.81,-28.33 620.3,-30.94"/>
</g>
<!-- Node4 -->
<g id="node4" class="node">
<title>Node4</title>
<g id="a_node4"><a xlink:title=" ">
<polygon fill="#e0e0e0" stroke="#999999" points="728.5,-19.25 667.5,-19.25 667.5,0 728.5,0 728.5,-19.25"/>
<text text-anchor="middle" x="698" y="-5.75" font-family="Helvetica,sans-Serif" font-size="10.00">type_traits</text>
</a>
</g>
</g>
<!-- Node2&#45;&gt;Node4 -->
<g id="edge3" class="edge">
<title>Node2&#45;&gt;Node4</title>
<path fill="none" stroke="#63b8ff" d="M563.11,-110C575.9,-101.06 595.89,-86.98 613,-74.5 635.27,-58.25 660.48,-39.22 677.63,-26.19"/>
<polygon fill="#63b8ff" stroke="#63b8ff" points="679.42,-28.46 685.25,-19.62 675.18,-22.89 679.42,-28.46"/>
</g>
<!-- Node5 -->
<g id="node5" class="node">
<title>Node5</title>
<g id="a_node5"><a xlink:href="v8-internal_8h.html" target="_top" xlink:title=" ">
<polygon fill="white" stroke="#666666" points="584.25,-74.5 515.75,-74.5 515.75,-55.25 584.25,-55.25 584.25,-74.5"/>
<text text-anchor="middle" x="550" y="-61" font-family="Helvetica,sans-Serif" font-size="10.00">v8&#45;internal.h</text>
</a>
</g>
</g>
<!-- Node2&#45;&gt;Node5 -->
<g id="edge4" class="edge">
<title>Node2&#45;&gt;Node5</title>
<path fill="none" stroke="#63b8ff" d="M550,-110.33C550,-103.67 550,-94.24 550,-85.78"/>
<polygon fill="#63b8ff" stroke="#63b8ff" points="553.5,-85.86 550,-75.86 546.5,-85.86 553.5,-85.86"/>
</g>
<!-- Node5&#45;&gt;Node3 -->
<g id="edge5" class="edge">
<title>Node5&#45;&gt;Node3</title>
<path fill="none" stroke="#63b8ff" d="M562.55,-54.84C573.57,-46.91 589.82,-35.22 602.84,-25.85"/>
<polygon fill="#63b8ff" stroke="#63b8ff" points="604.56,-28.21 610.63,-19.52 600.47,-22.52 604.56,-28.21"/>
</g>
<!-- Node5&#45;&gt;Node4 -->
<g id="edge8" class="edge">
<title>Node5&#45;&gt;Node4</title>
<path fill="none" stroke="#63b8ff" d="M575.11,-54.84C599.13,-46.2 635.6,-33.07 662.58,-23.37"/>
<polygon fill="#63b8ff" stroke="#63b8ff" points="663.55,-26.38 671.77,-19.7 661.18,-19.79 663.55,-26.38"/>
</g>
<!-- Node6 -->
<g id="node6" class="node">
<title>Node6</title>
<g id="a_node6"><a xlink:title=" ">
<polygon fill="#e0e0e0" stroke="#999999" points="982.75,-19.25 935.25,-19.25 935.25,0 982.75,0 982.75,-19.25"/>
<text text-anchor="middle" x="959" y="-5.75" font-family="Helvetica,sans-Serif" font-size="10.00">stdint.h</text>
</a>
</g>
</g>
<!-- Node5&#45;&gt;Node6 -->
<g id="edge6" class="edge">
<title>Node5&#45;&gt;Node6</title>
<path fill="none" stroke="#63b8ff" d="M584.52,-59.38C661.61,-49.34 847.08,-25.2 924.32,-15.14"/>
<polygon fill="#63b8ff" stroke="#63b8ff" points="924.44,-18.52 933.91,-13.76 923.54,-11.58 924.44,-18.52"/>
</g>
<!-- Node7 -->
<g id="node7" class="node">
<title>Node7</title>
<g id="a_node7"><a xlink:title=" ">
<polygon fill="#e0e0e0" stroke="#999999" points="493.75,-19.25 446.25,-19.25 446.25,0 493.75,0 493.75,-19.25"/>
<text text-anchor="middle" x="470" y="-5.75" font-family="Helvetica,sans-Serif" font-size="10.00">string.h</text>
</a>
</g>
</g>
<!-- Node5&#45;&gt;Node7 -->
<g id="edge7" class="edge">
<title>Node5&#45;&gt;Node7</title>
<path fill="none" stroke="#63b8ff" d="M536.43,-54.84C524.48,-46.89 506.82,-35.14 492.72,-25.75"/>
<polygon fill="#63b8ff" stroke="#63b8ff" points="494.9,-22.33 484.64,-19.7 491.02,-28.16 494.9,-22.33"/>
</g>
<!-- Node8 -->
<g id="node8" class="node">
<title>Node8</title>
<g id="a_node8"><a xlink:href="v8-version_8h.html" target="_top" xlink:title=" ">
<polygon fill="white" stroke="#666666" points="580.25,-19.25 511.75,-19.25 511.75,0 580.25,0 580.25,-19.25"/>
<text text-anchor="middle" x="546" y="-5.75" font-family="Helvetica,sans-Serif" font-size="10.00">v8&#45;version.h</text>
</a>
</g>
</g>
<!-- Node5&#45;&gt;Node8 -->
<g id="edge9" class="edge">
<title>Node5&#45;&gt;Node8</title>
<path fill="none" stroke="#63b8ff" d="M549.34,-55.08C548.84,-48.42 548.13,-38.99 547.5,-30.53"/>
<polygon fill="#63b8ff" stroke="#63b8ff" points="550.91,-30.32 546.67,-20.61 543.93,-30.84 550.91,-30.32"/>
</g>
<!-- Node5&#45;&gt;Node9 -->
<g id="edge10" class="edge">
<title>Node5&#45;&gt;Node9</title>
<path fill="none" stroke="#63b8ff" d="M515.42,-57.51C510.91,-56.72 506.35,-55.95 502,-55.25 405.07,-39.61 290.74,-23.97 231.02,-16.02"/>
<polygon fill="#63b8ff" stroke="#63b8ff" points="231.55,-12.42 221.17,-14.58 230.63,-19.36 231.55,-12.42"/>
</g>
<!-- Node10&#45;&gt;Node5 -->
<g id="edge12" class="edge">
<title>Node10&#45;&gt;Node5</title>
<path fill="none" stroke="#63b8ff" d="M115.78,-165.4C142.68,-151.41 197.47,-124.57 247,-110.5 336.32,-85.12 444.77,-73.6 504.7,-68.84"/>
<polygon fill="#63b8ff" stroke="#63b8ff" points="504.6,-72.28 514.3,-68.03 504.07,-65.3 504.6,-72.28"/>
</g>
<!-- Node10&#45;&gt;Node9 -->
<g id="edge13" class="edge">
<title>Node10&#45;&gt;Node9</title>
<path fill="none" stroke="#63b8ff" d="M100.26,-165.28C103.52,-144.32 113.7,-91.62 138,-55.25 145.59,-43.89 156.83,-33.74 166.93,-26"/>
<polygon fill="#63b8ff" stroke="#63b8ff" points="168.7,-28.32 174.74,-19.61 164.59,-22.65 168.7,-28.32"/>
</g>
<!-- Node11&#45;&gt;Node2 -->
<g id="edge16" class="edge">
<title>Node11&#45;&gt;Node2</title>
<path fill="none" stroke="#63b8ff" d="M296.26,-165.28C351.58,-155.65 438.54,-140.52 494.92,-130.71"/>
<polygon fill="#63b8ff" stroke="#63b8ff" points="495.17,-134.05 504.42,-128.88 493.97,-127.15 495.17,-134.05"/>
</g>
<!-- Node11&#45;&gt;Node5 -->
<g id="edge15" class="edge">
<title>Node11&#45;&gt;Node5</title>
<path fill="none" stroke="#63b8ff" d="M275.81,-165.25C304.21,-156.85 346.79,-143.62 383,-129.75 402.55,-122.26 406.58,-118.33 426,-110.5 454.97,-98.82 488.3,-86.91 513.1,-78.34"/>
<polygon fill="#63b8ff" stroke="#63b8ff" points="513.85,-81.43 522.17,-74.87 511.58,-74.81 513.85,-81.43"/>
</g>
<!-- Node11&#45;&gt;Node9 -->
<g id="edge19" class="edge">
<title>Node11&#45;&gt;Node9</title>
<path fill="none" stroke="#63b8ff" d="M236.41,-165.42C229.52,-156.82 219.61,-143.19 214,-129.75 200.16,-96.59 194.11,-54.83 191.62,-30.58"/>
<polygon fill="#63b8ff" stroke="#63b8ff" points="195.01,-30.28 190.61,-20.64 188.04,-30.92 195.01,-30.28"/>
</g>
<!-- Node12 -->
<g id="node12" class="node">
<title>Node12</title>
<g id="a_node12"><a xlink:href="v8-weak-callback-info_8h.html" target="_top" xlink:title=" ">
<polygon fill="white" stroke="#666666" points="374,-129.75 256,-129.75 256,-110.5 374,-110.5 374,-129.75"/>
<text text-anchor="middle" x="315" y="-116.25" font-family="Helvetica,sans-Serif" font-size="10.00">v8&#45;weak&#45;callback&#45;info.h</text>
</a>
</g>
</g>
<!-- Node11&#45;&gt;Node12 -->
<g id="edge17" class="edge">
<title>Node11&#45;&gt;Node12</title>
<path fill="none" stroke="#63b8ff" d="M256.04,-165.34C266.51,-157.49 281.9,-145.95 294.33,-136.62"/>
<polygon fill="#63b8ff" stroke="#63b8ff" points="296.23,-138.82 302.13,-130.02 292.03,-133.22 296.23,-138.82"/>
</g>
<!-- Node12&#45;&gt;Node9 -->
<g id="edge18" class="edge">
<title>Node12&#45;&gt;Node9</title>
<path fill="none" stroke="#63b8ff" d="M305.11,-110.42C291.1,-98.09 264.65,-74.88 242,-55.25 230.99,-45.71 218.61,-35.08 208.69,-26.59"/>
<polygon fill="#63b8ff" stroke="#63b8ff" points="211.26,-23.33 201.38,-19.49 206.71,-28.65 211.26,-23.33"/>
</g>
<!-- Node13&#45;&gt;Node2 -->
<g id="edge25" class="edge">
<title>Node13&#45;&gt;Node2</title>
<path fill="none" stroke="#63b8ff" d="M431.1,-275.82C450.48,-268.73 475.1,-257.2 492,-240.25 520.59,-211.58 537.29,-166.01 544.93,-140.34"/>
<polygon fill="#63b8ff" stroke="#63b8ff" points="548.48,-141.65 547.81,-131.08 541.74,-139.76 548.48,-141.65"/>
</g>
<!-- Node13&#45;&gt;Node5 -->
<g id="edge24" class="edge">
<title>Node13&#45;&gt;Node5</title>
<path fill="none" stroke="#63b8ff" d="M406.44,-275.88C416.92,-258.49 440.48,-218.98 459,-185 476.78,-152.36 473.88,-139.6 497,-110.5 505.71,-99.54 517.45,-89.32 527.67,-81.44"/>
<polygon fill="#63b8ff" stroke="#63b8ff" points="529.55,-83.66 535.5,-74.9 525.38,-78.04 529.55,-83.66"/>
</g>
<!-- Node13&#45;&gt;Node9 -->
<g id="edge32" class="edge">
<title>Node13&#45;&gt;Node9</title>
<path fill="none" stroke="#63b8ff" d="M363.86,-281.73C271.34,-272.88 38,-243.88 38,-176.38 38,-176.38 38,-176.38 38,-119.12 38,-64.2 104.57,-34.45 149.6,-20.61"/>
<polygon fill="#63b8ff" stroke="#63b8ff" points="150.35,-23.75 158.97,-17.59 148.39,-17.03 150.35,-23.75"/>
</g>
<!-- Node14 -->
<g id="node14" class="node">
<title>Node14</title>
<g id="a_node14"><a xlink:href="v8-data_8h.html" target="_top" xlink:title=" ">
<polygon fill="white" stroke="#666666" points="449.88,-185 394.12,-185 394.12,-165.75 449.88,-165.75 449.88,-185"/>
<text text-anchor="middle" x="422" y="-171.5" font-family="Helvetica,sans-Serif" font-size="10.00">v8&#45;data.h</text>
</a>
</g>
</g>
<!-- Node13&#45;&gt;Node14 -->
<g id="edge21" class="edge">
<title>Node13&#45;&gt;Node14</title>
<path fill="none" stroke="#63b8ff" d="M402.72,-276C406.09,-258.59 413.63,-219.62 418.22,-195.91"/>
<polygon fill="#63b8ff" stroke="#63b8ff" points="421.79,-196.86 420.26,-186.38 414.92,-195.53 421.79,-196.86"/>
</g>
<!-- Node13&#45;&gt;Node15 -->
<g id="edge26" class="edge">
<title>Node13&#45;&gt;Node15</title>
<path fill="none" stroke="#63b8ff" d="M389.3,-275.84C379.12,-267.99 364.17,-256.45 352.08,-247.12"/>
<polygon fill="#63b8ff" stroke="#63b8ff" points="354.59,-243.86 344.53,-240.52 350.31,-249.41 354.59,-243.86"/>
</g>
<!-- Node14&#45;&gt;Node2 -->
<g id="edge22" class="edge">
<title>Node14&#45;&gt;Node2</title>
<path fill="none" stroke="#63b8ff" d="M443.71,-165.34C464.12,-156.85 494.92,-144.04 518.12,-134.39"/>
<polygon fill="#63b8ff" stroke="#63b8ff" points="519.29,-137.28 527.18,-130.2 516.6,-130.81 519.29,-137.28"/>
</g>
<!-- Node14&#45;&gt;Node9 -->
<g id="edge23" class="edge">
<title>Node14&#45;&gt;Node9</title>
<path fill="none" stroke="#63b8ff" d="M393.91,-174.28C356.38,-172.72 289.66,-164.75 247,-129.75 245.94,-128.88 214.61,-62.74 198.86,-29.4"/>
<polygon fill="#63b8ff" stroke="#63b8ff" points="201.62,-28.04 194.18,-20.5 195.29,-31.03 201.62,-28.04"/>
</g>
<!-- Node15&#45;&gt;Node2 -->
<g id="edge29" class="edge">
<title>Node15&#45;&gt;Node2</title>
<path fill="none" stroke="#63b8ff" d="M336.93,-220.71C345.07,-206.81 362.69,-180.08 385,-165.75 418,-144.54 460.92,-133.34 494.71,-127.46"/>
<polygon fill="#63b8ff" stroke="#63b8ff" points="495.03,-130.79 504.34,-125.73 493.9,-123.88 495.03,-130.79"/>
</g>
<!-- Node15&#45;&gt;Node5 -->
<g id="edge28" class="edge">
<title>Node15&#45;&gt;Node5</title>
<path fill="none" stroke="#63b8ff" d="M333.75,-220.74C336.78,-207.36 344.17,-181.88 359,-165.75 371.05,-152.64 470.81,-103.79 521.16,-79.61"/>
<polygon fill="#63b8ff" stroke="#63b8ff" points="522.31,-82.46 529.82,-74.98 519.29,-76.15 522.31,-82.46"/>
</g>
<!-- Node15&#45;&gt;Node9 -->
<g id="edge31" class="edge">
<title>Node15&#45;&gt;Node9</title>
<path fill="none" stroke="#63b8ff" d="M301.48,-225.1C261.21,-218.42 193.69,-204.59 179,-185 144.18,-138.58 167.54,-64.17 181.57,-29.52"/>
<polygon fill="#63b8ff" stroke="#63b8ff" points="185.03,-31.32 185.72,-20.75 178.59,-28.59 185.03,-31.32"/>
</g>
<!-- Node15&#45;&gt;Node10 -->
<g id="edge30" class="edge">
<title>Node15&#45;&gt;Node10</title>
<path fill="none" stroke="#63b8ff" d="M301.54,-222.66C261,-213.4 189.05,-196.96 142.72,-186.37"/>
<polygon fill="#63b8ff" stroke="#63b8ff" points="143.63,-182.76 133.1,-183.94 142.07,-189.58 143.63,-182.76"/>
</g>
<!-- Node15&#45;&gt;Node14 -->
<g id="edge27" class="edge">
<title>Node15&#45;&gt;Node14</title>
<path fill="none" stroke="#63b8ff" d="M347.27,-220.59C360.97,-212.48 381.34,-200.43 397.35,-190.96"/>
<polygon fill="#63b8ff" stroke="#63b8ff" points="398.83,-193.56 405.66,-185.45 395.27,-187.53 398.83,-193.56"/>
</g>
<!-- Node16&#45;&gt;Node2 -->
<g id="edge44" class="edge">
<title>Node16&#45;&gt;Node2</title>
<path fill="none" stroke="#63b8ff" d="M754.82,-165.28C712.73,-156.21 647.94,-142.24 602.53,-132.45"/>
<polygon fill="#63b8ff" stroke="#63b8ff" points="603.52,-128.87 593.01,-130.18 602.04,-135.71 603.52,-128.87"/>
</g>
<!-- Node16&#45;&gt;Node3 -->
<g id="edge34" class="edge">
<title>Node16&#45;&gt;Node3</title>
<path fill="none" stroke="#63b8ff" d="M845.02,-172.95C910.74,-169.87 1023.49,-160.18 1049,-129.75 1054.5,-123.19 1054.32,-117.2 1049,-110.5 940.25,26.56 835.55,-58.01 660.17,-19.62"/>
<polygon fill="#63b8ff" stroke="#63b8ff" points="661.14,-16.02 650.61,-17.18 659.56,-22.84 661.14,-16.02"/>
</g>
<!-- Node16&#45;&gt;Node4 -->
<g id="edge40" class="edge">
<title>Node16&#45;&gt;Node4</title>
<path fill="none" stroke="#63b8ff" d="M845.14,-174.07C918.28,-172.48 1052.09,-164.71 1082,-129.75 1103.53,-104.59 1104.02,-79.98 1082,-55.25 1059.51,-29.99 834.4,-16.85 739.66,-12.39"/>
<polygon fill="#63b8ff" stroke="#63b8ff" points="739.93,-8.86 729.78,-11.89 739.61,-15.85 739.93,-8.86"/>
</g>
<!-- Node16&#45;&gt;Node5 -->
<g id="edge43" class="edge">
<title>Node16&#45;&gt;Node5</title>
<path fill="none" stroke="#63b8ff" d="M770.93,-165.35C746.82,-156.8 710.13,-143.3 679,-129.75 642.79,-113.98 602.13,-93.34 576.31,-79.85"/>
<polygon fill="#63b8ff" stroke="#63b8ff" points="578.34,-76.44 567.86,-74.89 575.08,-82.64 578.34,-76.44"/>
</g>
<!-- Node16&#45;&gt;Node6 -->
<g id="edge35" class="edge">
<title>Node16&#45;&gt;Node6</title>
<path fill="none" stroke="#63b8ff" d="M845.1,-174.55C922.21,-173.69 1068.19,-167.05 1101,-129.75 1122.87,-104.89 1121.62,-81.93 1102,-55.25 1077.36,-21.75 1027.7,-12.69 993.89,-10.61"/>
<polygon fill="#63b8ff" stroke="#63b8ff" points="994.24,-7.07 984.1,-10.14 993.94,-14.07 994.24,-7.07"/>
</g>
<!-- Node16&#45;&gt;Node9 -->
<g id="edge46" class="edge">
<title>Node16&#45;&gt;Node9</title>
<path fill="none" stroke="#63b8ff" d="M752.58,-165.31C719.65,-157.82 674.08,-145.82 636,-129.75 620.36,-123.15 618.75,-116.84 603,-110.5 472.06,-57.8 306.14,-28.08 230.67,-16.43"/>
<polygon fill="#63b8ff" stroke="#63b8ff" points="231.62,-12.89 221.21,-14.85 230.57,-19.81 231.62,-12.89"/>
</g>
<!-- Node16&#45;&gt;Node12 -->
<g id="edge45" class="edge">
<title>Node16&#45;&gt;Node12</title>
<path fill="none" stroke="#63b8ff" d="M749.02,-169.07C663.53,-159.63 484.51,-139.85 385.17,-128.88"/>
<polygon fill="#63b8ff" stroke="#63b8ff" points="385.67,-125.3 375.35,-127.68 384.9,-132.26 385.67,-125.3"/>
</g>
<!-- Node17 -->
<g id="node17" class="node">
<title>Node17</title>
<g id="a_node17"><a xlink:title=" ">
<polygon fill="#e0e0e0" stroke="#999999" points="850.25,-129.75 805.75,-129.75 805.75,-110.5 850.25,-110.5 850.25,-129.75"/>
<text text-anchor="middle" x="828" y="-116.25" font-family="Helvetica,sans-Serif" font-size="10.00">stdio.h</text>
</a>
</g>
</g>
<!-- Node16&#45;&gt;Node17 -->
<g id="edge36" class="edge">
<title>Node16&#45;&gt;Node17</title>
<path fill="none" stroke="#63b8ff" d="M802.12,-165.58C806.22,-158.53 812.12,-148.4 817.25,-139.58"/>
<polygon fill="#63b8ff" stroke="#63b8ff" points="820.76,-141.51 822.77,-131.11 814.71,-137.99 820.76,-141.51"/>
</g>
<!-- Node18 -->
<g id="node18" class="node">
<title>Node18</title>
<g id="a_node18"><a xlink:title=" ">
<polygon fill="#e0e0e0" stroke="#999999" points="913.62,-129.75 868.38,-129.75 868.38,-110.5 913.62,-110.5 913.62,-129.75"/>
<text text-anchor="middle" x="891" y="-116.25" font-family="Helvetica,sans-Serif" font-size="10.00">atomic</text>
</a>
</g>
</g>
<!-- Node16&#45;&gt;Node18 -->
<g id="edge37" class="edge">
<title>Node16&#45;&gt;Node18</title>
<path fill="none" stroke="#63b8ff" d="M812.95,-165.34C827.4,-157.16 848.93,-144.96 865.73,-135.44"/>
<polygon fill="#63b8ff" stroke="#63b8ff" points="867,-138.18 873.98,-130.2 863.55,-132.09 867,-138.18"/>
</g>
<!-- Node19 -->
<g id="node19" class="node">
<title>Node19</title>
<g id="a_node19"><a xlink:title=" ">
<polygon fill="#e0e0e0" stroke="#999999" points="982.25,-129.75 931.75,-129.75 931.75,-110.5 982.25,-110.5 982.25,-129.75"/>
<text text-anchor="middle" x="957" y="-116.25" font-family="Helvetica,sans-Serif" font-size="10.00">memory</text>
</a>
</g>
</g>
<!-- Node16&#45;&gt;Node19 -->
<g id="edge38" class="edge">
<title>Node16&#45;&gt;Node19</title>
<path fill="none" stroke="#63b8ff" d="M824.14,-165.34C850.82,-156.46 891.7,-142.86 921.07,-133.08"/>
<polygon fill="#63b8ff" stroke="#63b8ff" points="921.93,-136.15 930.32,-129.67 919.72,-129.51 921.93,-136.15"/>
</g>
<!-- Node20 -->
<g id="node20" class="node">
<title>Node20</title>
<g id="a_node20"><a xlink:title=" ">
<polygon fill="#e0e0e0" stroke="#999999" points="1040,-129.75 1000,-129.75 1000,-110.5 1040,-110.5 1040,-129.75"/>
<text text-anchor="middle" x="1020" y="-116.25" font-family="Helvetica,sans-Serif" font-size="10.00">string</text>
</a>
</g>
</g>
<!-- Node16&#45;&gt;Node20 -->
<g id="edge39" class="edge">
<title>Node16&#45;&gt;Node20</title>
<path fill="none" stroke="#63b8ff" d="M839.96,-165.31C877.08,-157.29 932.41,-144.91 989.16,-130.11"/>
<polygon fill="#63b8ff" stroke="#63b8ff" points="989.98,-133.25 998.76,-127.32 988.2,-126.48 989.98,-133.25"/>
</g>
<!-- Node21 -->
<g id="node21" class="node">
<title>Node21</title>
<g id="a_node21"><a xlink:title=" ">
<polygon fill="#e0e0e0" stroke="#999999" points="726.25,-129.75 687.75,-129.75 687.75,-110.5 726.25,-110.5 726.25,-129.75"/>
<text text-anchor="middle" x="707" y="-116.25" font-family="Helvetica,sans-Serif" font-size="10.00">utility</text>
</a>
</g>
</g>
<!-- Node16&#45;&gt;Node21 -->
<g id="edge41" class="edge">
<title>Node16&#45;&gt;Node21</title>
<path fill="none" stroke="#63b8ff" d="M781.73,-165.34C768.03,-157.23 747.66,-145.18 731.65,-135.71"/>
<polygon fill="#63b8ff" stroke="#63b8ff" points="733.73,-132.28 723.34,-130.2 730.17,-138.31 733.73,-132.28"/>
</g>
<!-- Node22 -->
<g id="node22" class="node">
<title>Node22</title>
<g id="a_node22"><a xlink:title=" ">
<polygon fill="#e0e0e0" stroke="#999999" points="787.5,-129.75 744.5,-129.75 744.5,-110.5 787.5,-110.5 787.5,-129.75"/>
<text text-anchor="middle" x="766" y="-116.25" font-family="Helvetica,sans-Serif" font-size="10.00">vector</text>
</a>
</g>
</g>
<!-- Node16&#45;&gt;Node22 -->
<g id="edge42" class="edge">
<title>Node16&#45;&gt;Node22</title>
<path fill="none" stroke="#63b8ff" d="M791.88,-165.58C787.78,-158.53 781.88,-148.4 776.75,-139.58"/>
<polygon fill="#63b8ff" stroke="#63b8ff" points="779.29,-137.99 771.23,-131.11 773.24,-141.51 779.29,-137.99"/>
</g>
</g>
</svg>
