<?xml version="1.0" encoding="UTF-8" standalone="no"?>
<!DOCTYPE svg PUBLIC "-//W3C//DTD SVG 1.1//EN"
 "http://www.w3.org/Graphics/SVG/1.1/DTD/svg11.dtd">
<!-- Generated by graphviz version 8.0.5 (20230430.1635)
 -->
<!-- Title: v8::V8::RemoveGCPrologueCallback Pages: 1 -->
<svg width="333pt" height="76pt"
 viewBox="0.00 0.00 333.25 75.88" xmlns="http://www.w3.org/2000/svg" xmlns:xlink="http://www.w3.org/1999/xlink">
<g id="graph0" class="graph" transform="scale(1 1) rotate(0) translate(4 71.88)">
<title>v8::V8::RemoveGCPrologueCallback</title>
<!-- Node1 -->
<g id="node1" class="node">
<title>Node1</title>
<g id="a_node1"><a xlink:title=" ">
<polygon fill="#999999" stroke="#666666" points="136,-51.5 0,-51.5 0,-21 136,-21 136,-51.5"/>
<text text-anchor="start" x="8" y="-38" font-family="Helvetica,sans-Serif" font-size="10.00">v8::V8::RemoveGCPrologue</text>
<text text-anchor="middle" x="68" y="-26.75" font-family="Helvetica,sans-Serif" font-size="10.00">Callback</text>
</a>
</g>
</g>
<!-- Node2 -->
<g id="node2" class="node">
<title>Node2</title>
<g id="a_node2"><a xlink:href="classv8_1_1Isolate.html#a45942d2ae9502b8e9cbcf72f6b543c46" target="_top" xlink:title=" ">
<polygon fill="white" stroke="#666666" points="304.62,-67.88 192.62,-67.88 192.62,-48.62 304.62,-48.62 304.62,-67.88"/>
<text text-anchor="middle" x="248.62" y="-54.38" font-family="Helvetica,sans-Serif" font-size="10.00">v8::Isolate::GetCurrent</text>
</a>
</g>
</g>
<!-- Node1&#45;&gt;Node2 -->
<g id="edge1" class="edge">
<title>Node1&#45;&gt;Node2</title>
<path fill="none" stroke="#63b8ff" d="M136.28,-44.54C151.16,-46.37 166.91,-48.31 181.74,-50.13"/>
<polygon fill="#63b8ff" stroke="#63b8ff" points="180.99,-53.69 191.34,-51.44 181.84,-46.74 180.99,-53.69"/>
</g>
<!-- Node3 -->
<g id="node3" class="node">
<title>Node3</title>
<g id="a_node3"><a xlink:href="classv8_1_1Isolate.html#a7c424950b2bc9589fc676a9b38b27d63" target="_top" xlink:title=" ">
<polygon fill="white" stroke="#666666" points="325.25,-30.5 172,-30.5 172,0 325.25,0 325.25,-30.5"/>
<text text-anchor="start" x="180" y="-17" font-family="Helvetica,sans-Serif" font-size="10.00">v8::Isolate::RemoveGCPrologue</text>
<text text-anchor="middle" x="248.62" y="-5.75" font-family="Helvetica,sans-Serif" font-size="10.00">Callback</text>
</a>
</g>
</g>
<!-- Node1&#45;&gt;Node3 -->
<g id="edge2" class="edge">
<title>Node1&#45;&gt;Node3</title>
<path fill="none" stroke="#63b8ff" d="M136.28,-28.34C144.32,-27.39 152.62,-26.42 160.89,-25.45"/>
<polygon fill="#63b8ff" stroke="#63b8ff" points="161.2,-28.82 170.72,-24.17 160.38,-21.87 161.2,-28.82"/>
</g>
</g>
</svg>
