<?xml version="1.0" encoding="UTF-8" standalone="no"?>
<!DOCTYPE svg PUBLIC "-//W3C//DTD SVG 1.1//EN"
 "http://www.w3.org/Graphics/SVG/1.1/DTD/svg11.dtd">
<!-- Generated by graphviz version 8.0.5 (20230430.1635)
 -->
<!-- Title: include/cppgc/allocation.h Pages: 1 -->
<svg width="685pt" height="271pt"
 viewBox="0.00 0.00 685.13 270.75" xmlns="http://www.w3.org/2000/svg" xmlns:xlink="http://www.w3.org/1999/xlink">
<g id="graph0" class="graph" transform="scale(1 1) rotate(0) translate(4 266.75)">
<title>include/cppgc/allocation.h</title>
<!-- Node1 -->
<g id="node1" class="node">
<title>Node1</title>
<g id="a_node1"><a xlink:title=" ">
<polygon fill="#999999" stroke="#666666" points="265.55,-262.75 137.8,-262.75 137.8,-243.5 265.55,-243.5 265.55,-262.75"/>
<text text-anchor="middle" x="201.67" y="-249.25" font-family="Helvetica,sans-Serif" font-size="10.00">include/cppgc/allocation.h</text>
</a>
</g>
</g>
<!-- Node2 -->
<g id="node2" class="node">
<title>Node2</title>
<g id="a_node2"><a xlink:title=" ">
<polygon fill="#e0e0e0" stroke="#999999" points="152.42,-19.25 104.92,-19.25 104.92,0 152.42,0 152.42,-19.25"/>
<text text-anchor="middle" x="128.67" y="-5.75" font-family="Helvetica,sans-Serif" font-size="10.00">stdint.h</text>
</a>
</g>
</g>
<!-- Node1&#45;&gt;Node2 -->
<g id="edge1" class="edge">
<title>Node1&#45;&gt;Node2</title>
<path fill="none" stroke="#63b8ff" d="M156.2,-243.03C109.68,-231.04 39.82,-204.97 7.67,-152.25 -23.8,-100.66 55.15,-48.92 100.08,-24.74"/>
<polygon fill="#63b8ff" stroke="#63b8ff" points="101.39,-27.48 108.63,-19.74 98.15,-21.28 101.39,-27.48"/>
</g>
<!-- Node3 -->
<g id="node3" class="node">
<title>Node3</title>
<g id="a_node3"><a xlink:title=" ">
<polygon fill="#e0e0e0" stroke="#999999" points="527.3,-207.5 482.05,-207.5 482.05,-188.25 527.3,-188.25 527.3,-207.5"/>
<text text-anchor="middle" x="504.67" y="-194" font-family="Helvetica,sans-Serif" font-size="10.00">atomic</text>
</a>
</g>
</g>
<!-- Node1&#45;&gt;Node3 -->
<g id="edge2" class="edge">
<title>Node1&#45;&gt;Node3</title>
<path fill="none" stroke="#63b8ff" d="M265.8,-243.61C318.67,-236.14 395.8,-224.19 471.11,-207.89"/>
<polygon fill="#63b8ff" stroke="#63b8ff" points="471.7,-211.12 480.72,-205.56 470.2,-204.29 471.7,-211.12"/>
</g>
<!-- Node4 -->
<g id="node4" class="node">
<title>Node4</title>
<g id="a_node4"><a xlink:href="custom-space_8h.html" target="_top" xlink:title=" ">
<polygon fill="white" stroke="#666666" points="130.8,-146.62 16.55,-146.62 16.55,-127.38 130.8,-127.38 130.8,-146.62"/>
<text text-anchor="middle" x="73.67" y="-133.12" font-family="Helvetica,sans-Serif" font-size="10.00">cppgc/custom&#45;space.h</text>
</a>
</g>
</g>
<!-- Node1&#45;&gt;Node4 -->
<g id="edge3" class="edge">
<title>Node1&#45;&gt;Node4</title>
<path fill="none" stroke="#63b8ff" d="M189.57,-243.27C177.82,-234.52 159.61,-220.59 144.67,-207.5 124.93,-190.21 103.58,-168.92 89.5,-154.5"/>
<polygon fill="#63b8ff" stroke="#63b8ff" points="92.59,-152.63 83.12,-147.88 87.57,-157.5 92.59,-152.63"/>
</g>
<!-- Node6 -->
<g id="node6" class="node">
<title>Node6</title>
<g id="a_node6"><a xlink:href="garbage-collected_8h.html" target="_top" xlink:title=" ">
<polygon fill="white" stroke="#666666" points="464.3,-207.5 335.05,-207.5 335.05,-188.25 464.3,-188.25 464.3,-207.5"/>
<text text-anchor="middle" x="399.67" y="-194" font-family="Helvetica,sans-Serif" font-size="10.00">cppgc/garbage&#45;collected.h</text>
</a>
</g>
</g>
<!-- Node1&#45;&gt;Node6 -->
<g id="edge5" class="edge">
<title>Node1&#45;&gt;Node6</title>
<path fill="none" stroke="#63b8ff" d="M235.26,-243.09C268.4,-234.18 319.24,-220.51 355.6,-210.73"/>
<polygon fill="#63b8ff" stroke="#63b8ff" points="356.17,-213.93 364.92,-207.95 354.35,-207.17 356.17,-213.93"/>
</g>
<!-- Node8 -->
<g id="node8" class="node">
<title>Node8</title>
<g id="a_node8"><a xlink:href="api-constants_8h.html" target="_top" xlink:title=" ">
<polygon fill="white" stroke="#666666" points="244.92,-85.75 152.42,-85.75 152.42,-55.25 244.92,-55.25 244.92,-85.75"/>
<text text-anchor="start" x="160.42" y="-72.25" font-family="Helvetica,sans-Serif" font-size="10.00">cppgc/internal/api</text>
<text text-anchor="middle" x="198.67" y="-61" font-family="Helvetica,sans-Serif" font-size="10.00">&#45;constants.h</text>
</a>
</g>
</g>
<!-- Node1&#45;&gt;Node8 -->
<g id="edge25" class="edge">
<title>Node1&#45;&gt;Node8</title>
<path fill="none" stroke="#63b8ff" d="M199.1,-243.33C196.63,-234.4 193.07,-220.13 191.67,-207.5 187.42,-169.05 191.46,-124.19 194.93,-96.83"/>
<polygon fill="#63b8ff" stroke="#63b8ff" points="198.49,-97.62 196.36,-87.24 191.56,-96.68 198.49,-97.62"/>
</g>
<!-- Node17 -->
<g id="node17" class="node">
<title>Node17</title>
<g id="a_node17"><a xlink:href="gc-info_8h.html" target="_top" xlink:title=" ">
<polygon fill="white" stroke="#666666" points="316.92,-207.5 200.42,-207.5 200.42,-188.25 316.92,-188.25 316.92,-207.5"/>
<text text-anchor="middle" x="258.67" y="-194" font-family="Helvetica,sans-Serif" font-size="10.00">cppgc/internal/gc&#45;info.h</text>
</a>
</g>
</g>
<!-- Node1&#45;&gt;Node17 -->
<g id="edge26" class="edge">
<title>Node1&#45;&gt;Node17</title>
<path fill="none" stroke="#63b8ff" d="M211.34,-243.09C219.5,-235.47 231.38,-224.37 241.19,-215.2"/>
<polygon fill="#63b8ff" stroke="#63b8ff" points="243.23,-218.16 248.15,-208.77 238.45,-213.04 243.23,-218.16"/>
</g>
<!-- Node5 -->
<g id="node5" class="node">
<title>Node5</title>
<g id="a_node5"><a xlink:title=" ">
<polygon fill="#e0e0e0" stroke="#999999" points="223.92,-19.25 173.42,-19.25 173.42,0 223.92,0 223.92,-19.25"/>
<text text-anchor="middle" x="198.67" y="-5.75" font-family="Helvetica,sans-Serif" font-size="10.00">stddef.h</text>
</a>
</g>
</g>
<!-- Node4&#45;&gt;Node5 -->
<g id="edge4" class="edge">
<title>Node4&#45;&gt;Node5</title>
<path fill="none" stroke="#63b8ff" d="M80.56,-127.07C92.61,-111.69 118.61,-79.51 143.67,-55.25 154.33,-44.93 167.16,-34.43 177.75,-26.2"/>
<polygon fill="#63b8ff" stroke="#63b8ff" points="179.54,-28.48 185.36,-19.63 175.29,-22.91 179.54,-28.48"/>
</g>
<!-- Node7 -->
<g id="node7" class="node">
<title>Node7</title>
<g id="a_node7"><a xlink:title=" ">
<polygon fill="#e0e0e0" stroke="#999999" points="573.17,-19.25 512.17,-19.25 512.17,0 573.17,0 573.17,-19.25"/>
<text text-anchor="middle" x="542.67" y="-5.75" font-family="Helvetica,sans-Serif" font-size="10.00">type_traits</text>
</a>
</g>
</g>
<!-- Node6&#45;&gt;Node7 -->
<g id="edge6" class="edge">
<title>Node6&#45;&gt;Node7</title>
<path fill="none" stroke="#63b8ff" d="M463.49,-187.78C537.22,-176.97 649.3,-159.49 655.67,-152.25 684.17,-119.87 683.09,-90.8 658.67,-55.25 642.05,-31.05 610.33,-19.97 584.25,-14.9"/>
<polygon fill="#63b8ff" stroke="#63b8ff" points="584.93,-11.29 574.49,-13.07 583.76,-18.19 584.93,-11.29"/>
</g>
<!-- Node6&#45;&gt;Node8 -->
<g id="edge7" class="edge">
<title>Node6&#45;&gt;Node8</title>
<path fill="none" stroke="#63b8ff" d="M370.94,-187.86C348.45,-180.14 316.87,-167.82 291.67,-152.25 264.85,-135.68 238.08,-111.42 220.2,-93.81"/>
<polygon fill="#63b8ff" stroke="#63b8ff" points="223.18,-91.85 213.64,-87.25 218.23,-96.8 223.18,-91.85"/>
</g>
<!-- Node10 -->
<g id="node10" class="node">
<title>Node10</title>
<g id="a_node10"><a xlink:href="platform_8h.html" target="_top" xlink:title=" ">
<polygon fill="white" stroke="#666666" points="388.67,-146.62 300.67,-146.62 300.67,-127.38 388.67,-127.38 388.67,-146.62"/>
<text text-anchor="middle" x="344.67" y="-133.12" font-family="Helvetica,sans-Serif" font-size="10.00">cppgc/platform.h</text>
</a>
</g>
</g>
<!-- Node6&#45;&gt;Node10 -->
<g id="edge11" class="edge">
<title>Node6&#45;&gt;Node10</title>
<path fill="none" stroke="#63b8ff" d="M391.32,-187.93C383.16,-179.2 370.54,-165.69 360.49,-154.93"/>
<polygon fill="#63b8ff" stroke="#63b8ff" points="363.49,-152.94 354.1,-148.03 358.37,-157.72 363.49,-152.94"/>
</g>
<!-- Node15 -->
<g id="node15" class="node">
<title>Node15</title>
<g id="a_node15"><a xlink:href="trace-trait_8h.html" target="_top" xlink:title=" ">
<polygon fill="white" stroke="#666666" points="630.67,-146.62 536.67,-146.62 536.67,-127.38 630.67,-127.38 630.67,-146.62"/>
<text text-anchor="middle" x="583.67" y="-133.12" font-family="Helvetica,sans-Serif" font-size="10.00">cppgc/trace&#45;trait.h</text>
</a>
</g>
</g>
<!-- Node6&#45;&gt;Node15 -->
<g id="edge20" class="edge">
<title>Node6&#45;&gt;Node15</title>
<path fill="none" stroke="#63b8ff" d="M428.02,-187.8C459.35,-177.78 510.01,-161.57 544.98,-150.38"/>
<polygon fill="#63b8ff" stroke="#63b8ff" points="545.84,-153.46 554.29,-147.08 543.7,-146.79 545.84,-153.46"/>
</g>
<!-- Node16 -->
<g id="node16" class="node">
<title>Node16</title>
<g id="a_node16"><a xlink:href="type-traits_8h.html" target="_top" xlink:title=" ">
<polygon fill="white" stroke="#666666" points="649.42,-80.12 553.92,-80.12 553.92,-60.88 649.42,-60.88 649.42,-80.12"/>
<text text-anchor="middle" x="601.67" y="-66.62" font-family="Helvetica,sans-Serif" font-size="10.00">cppgc/type&#45;traits.h</text>
</a>
</g>
</g>
<!-- Node6&#45;&gt;Node16 -->
<g id="edge24" class="edge">
<title>Node6&#45;&gt;Node16</title>
<path fill="none" stroke="#63b8ff" d="M464.55,-189.1C531.73,-180.39 628.48,-165.71 639.67,-152.25 655.76,-132.9 636.14,-105.6 619.64,-88.22"/>
<polygon fill="#63b8ff" stroke="#63b8ff" points="622.52,-86.15 612.96,-81.57 617.58,-91.11 622.52,-86.15"/>
</g>
<!-- Node8&#45;&gt;Node2 -->
<g id="edge9" class="edge">
<title>Node8&#45;&gt;Node2</title>
<path fill="none" stroke="#63b8ff" d="M181.37,-54.95C171.12,-46.33 158.13,-35.4 147.6,-26.55"/>
<polygon fill="#63b8ff" stroke="#63b8ff" points="150.37,-23.46 140.46,-19.7 145.86,-28.82 150.37,-23.46"/>
</g>
<!-- Node8&#45;&gt;Node5 -->
<g id="edge8" class="edge">
<title>Node8&#45;&gt;Node5</title>
<path fill="none" stroke="#63b8ff" d="M198.67,-54.95C198.67,-47.62 198.67,-38.62 198.67,-30.66"/>
<polygon fill="#63b8ff" stroke="#63b8ff" points="202.17,-30.7 198.67,-20.7 195.17,-30.7 202.17,-30.7"/>
</g>
<!-- Node9 -->
<g id="node9" class="node">
<title>Node9</title>
<g id="a_node9"><a xlink:href="v8config_8h.html" target="_top" xlink:title=" ">
<polygon fill="white" stroke="#666666" points="302.42,-19.25 242.92,-19.25 242.92,0 302.42,0 302.42,-19.25"/>
<text text-anchor="middle" x="272.67" y="-5.75" font-family="Helvetica,sans-Serif" font-size="10.00">v8config.h</text>
</a>
</g>
</g>
<!-- Node8&#45;&gt;Node9 -->
<g id="edge10" class="edge">
<title>Node8&#45;&gt;Node9</title>
<path fill="none" stroke="#63b8ff" d="M216.96,-54.95C227.8,-46.33 241.54,-35.4 252.66,-26.55"/>
<polygon fill="#63b8ff" stroke="#63b8ff" points="254.62,-28.67 260.26,-19.7 250.26,-23.19 254.62,-28.67"/>
</g>
<!-- Node10&#45;&gt;Node9 -->
<g id="edge19" class="edge">
<title>Node10&#45;&gt;Node9</title>
<path fill="none" stroke="#63b8ff" d="M339.49,-126.98C327.71,-106.47 298.72,-55.99 283.08,-28.75"/>
<polygon fill="#63b8ff" stroke="#63b8ff" points="285.82,-27.49 277.8,-20.56 279.75,-30.97 285.82,-27.49"/>
</g>
<!-- Node11 -->
<g id="node11" class="node">
<title>Node11</title>
<g id="a_node11"><a xlink:href="v8-platform_8h.html" target="_top" xlink:title=" ">
<polygon fill="white" stroke="#666666" points="410.8,-80.12 338.55,-80.12 338.55,-60.88 410.8,-60.88 410.8,-80.12"/>
<text text-anchor="middle" x="374.67" y="-66.62" font-family="Helvetica,sans-Serif" font-size="10.00">v8&#45;platform.h</text>
</a>
</g>
</g>
<!-- Node10&#45;&gt;Node11 -->
<g id="edge12" class="edge">
<title>Node10&#45;&gt;Node11</title>
<path fill="none" stroke="#63b8ff" d="M348.84,-127.03C353.28,-117.5 360.41,-102.16 366.06,-90.02"/>
<polygon fill="#63b8ff" stroke="#63b8ff" points="369.49,-91.94 370.54,-81.39 363.15,-88.98 369.49,-91.94"/>
</g>
<!-- Node11&#45;&gt;Node2 -->
<g id="edge14" class="edge">
<title>Node11&#45;&gt;Node2</title>
<path fill="none" stroke="#63b8ff" d="M338.25,-60.79C296.37,-50.77 225.56,-33.83 164.67,-19.25 164.19,-19.13 163.7,-19.02 163.21,-18.9"/>
<polygon fill="#63b8ff" stroke="#63b8ff" points="164.22,-15.3 153.68,-16.38 162.59,-22.11 164.22,-15.3"/>
</g>
<!-- Node11&#45;&gt;Node5 -->
<g id="edge13" class="edge">
<title>Node11&#45;&gt;Node5</title>
<path fill="none" stroke="#63b8ff" d="M347.56,-60.43C317.28,-50.3 268.14,-33.86 234.66,-22.66"/>
<polygon fill="#63b8ff" stroke="#63b8ff" points="235.98,-19.08 225.38,-19.23 233.76,-25.72 235.98,-19.08"/>
</g>
<!-- Node11&#45;&gt;Node9 -->
<g id="edge18" class="edge">
<title>Node11&#45;&gt;Node9</title>
<path fill="none" stroke="#63b8ff" d="M359.18,-60.56C342.85,-51.13 316.89,-36.15 297.66,-25.05"/>
<polygon fill="#63b8ff" stroke="#63b8ff" points="299.72,-21.62 289.31,-19.65 296.22,-27.68 299.72,-21.62"/>
</g>
<!-- Node12 -->
<g id="node12" class="node">
<title>Node12</title>
<g id="a_node12"><a xlink:title=" ">
<polygon fill="#e0e0e0" stroke="#999999" points="493.05,-19.25 446.3,-19.25 446.3,0 493.05,0 493.05,-19.25"/>
<text text-anchor="middle" x="469.67" y="-5.75" font-family="Helvetica,sans-Serif" font-size="10.00">stdlib.h</text>
</a>
</g>
</g>
<!-- Node11&#45;&gt;Node12 -->
<g id="edge15" class="edge">
<title>Node11&#45;&gt;Node12</title>
<path fill="none" stroke="#63b8ff" d="M389.1,-60.56C404.17,-51.22 428.04,-36.42 445.9,-25.36"/>
<polygon fill="#63b8ff" stroke="#63b8ff" points="447.45,-27.89 454.11,-19.65 443.76,-21.94 447.45,-27.89"/>
</g>
<!-- Node13 -->
<g id="node13" class="node">
<title>Node13</title>
<g id="a_node13"><a xlink:title=" ">
<polygon fill="#e0e0e0" stroke="#999999" points="370.92,-19.25 320.42,-19.25 320.42,0 370.92,0 370.92,-19.25"/>
<text text-anchor="middle" x="345.67" y="-5.75" font-family="Helvetica,sans-Serif" font-size="10.00">memory</text>
</a>
</g>
</g>
<!-- Node11&#45;&gt;Node13 -->
<g id="edge16" class="edge">
<title>Node11&#45;&gt;Node13</title>
<path fill="none" stroke="#63b8ff" d="M370.27,-60.56C366.22,-52.35 360.1,-39.91 354.97,-29.5"/>
<polygon fill="#63b8ff" stroke="#63b8ff" points="357.68,-28.08 350.12,-20.65 351.4,-31.17 357.68,-28.08"/>
</g>
<!-- Node14 -->
<g id="node14" class="node">
<title>Node14</title>
<g id="a_node14"><a xlink:title=" ">
<polygon fill="#e0e0e0" stroke="#999999" points="428.67,-19.25 388.67,-19.25 388.67,0 428.67,0 428.67,-19.25"/>
<text text-anchor="middle" x="408.67" y="-5.75" font-family="Helvetica,sans-Serif" font-size="10.00">string</text>
</a>
</g>
</g>
<!-- Node11&#45;&gt;Node14 -->
<g id="edge17" class="edge">
<title>Node11&#45;&gt;Node14</title>
<path fill="none" stroke="#63b8ff" d="M379.84,-60.56C384.63,-52.26 391.91,-39.64 397.96,-29.17"/>
<polygon fill="#63b8ff" stroke="#63b8ff" points="401.49,-31.06 403.46,-20.65 395.43,-27.56 401.49,-31.06"/>
</g>
<!-- Node15&#45;&gt;Node7 -->
<g id="edge21" class="edge">
<title>Node15&#45;&gt;Node7</title>
<path fill="none" stroke="#63b8ff" d="M573.84,-127.12C564.37,-117.86 550.62,-102.39 544.67,-85.75 538.3,-67.91 538.51,-46.14 539.89,-30.64"/>
<polygon fill="#63b8ff" stroke="#63b8ff" points="543.48,-31.08 541.14,-20.75 536.52,-30.28 543.48,-31.08"/>
</g>
<!-- Node15&#45;&gt;Node16 -->
<g id="edge22" class="edge">
<title>Node15&#45;&gt;Node16</title>
<path fill="none" stroke="#63b8ff" d="M586.17,-127.03C588.78,-117.69 592.94,-102.78 596.3,-90.76"/>
<polygon fill="#63b8ff" stroke="#63b8ff" points="599.87,-91.97 599.19,-81.39 593.13,-90.08 599.87,-91.97"/>
</g>
<!-- Node16&#45;&gt;Node7 -->
<g id="edge23" class="edge">
<title>Node16&#45;&gt;Node7</title>
<path fill="none" stroke="#63b8ff" d="M592.71,-60.56C583.87,-51.74 570.16,-38.05 559.32,-27.23"/>
<polygon fill="#63b8ff" stroke="#63b8ff" points="562.27,-25.24 552.72,-20.65 557.32,-30.19 562.27,-25.24"/>
</g>
<!-- Node17&#45;&gt;Node2 -->
<g id="edge27" class="edge">
<title>Node17&#45;&gt;Node2</title>
<path fill="none" stroke="#63b8ff" d="M244.72,-187.76C220.05,-170.83 168.95,-132.05 143.67,-85.75 134.22,-68.45 130.69,-46 129.39,-30.16"/>
<polygon fill="#63b8ff" stroke="#63b8ff" points="132.84,-30.31 128.76,-20.53 125.85,-30.72 132.84,-30.31"/>
</g>
<!-- Node17&#45;&gt;Node9 -->
<g id="edge32" class="edge">
<title>Node17&#45;&gt;Node9</title>
<path fill="none" stroke="#63b8ff" d="M259.35,-187.89C261.49,-159.37 268.18,-70.42 271.18,-30.44"/>
<polygon fill="#63b8ff" stroke="#63b8ff" points="274.74,-30.75 272,-20.52 267.76,-30.23 274.74,-30.75"/>
</g>
<!-- Node17&#45;&gt;Node15 -->
<g id="edge31" class="edge">
<title>Node17&#45;&gt;Node15</title>
<path fill="none" stroke="#63b8ff" d="M317.18,-188.63C371.85,-180.58 455.63,-167.36 527.67,-152.25 531.53,-151.44 535.53,-150.54 539.52,-149.6"/>
<polygon fill="#63b8ff" stroke="#63b8ff" points="540.13,-152.82 549.02,-147.06 538.48,-146.01 540.13,-152.82"/>
</g>
<!-- Node18 -->
<g id="node18" class="node">
<title>Node18</title>
<g id="a_node18"><a xlink:href="finalizer-trait_8h.html" target="_top" xlink:title=" ">
<polygon fill="white" stroke="#666666" points="518.67,-152.25 406.67,-152.25 406.67,-121.75 518.67,-121.75 518.67,-152.25"/>
<text text-anchor="start" x="414.67" y="-138.75" font-family="Helvetica,sans-Serif" font-size="10.00">cppgc/internal/finalizer</text>
<text text-anchor="middle" x="462.67" y="-127.5" font-family="Helvetica,sans-Serif" font-size="10.00">&#45;trait.h</text>
</a>
</g>
</g>
<!-- Node17&#45;&gt;Node18 -->
<g id="edge28" class="edge">
<title>Node17&#45;&gt;Node18</title>
<path fill="none" stroke="#63b8ff" d="M290.1,-187.8C319.73,-179.25 364.93,-166.21 401.65,-155.61"/>
<polygon fill="#63b8ff" stroke="#63b8ff" points="402.12,-158.83 410.76,-152.69 400.18,-152.1 402.12,-158.83"/>
</g>
<!-- Node18&#45;&gt;Node7 -->
<g id="edge29" class="edge">
<title>Node18&#45;&gt;Node7</title>
<path fill="none" stroke="#63b8ff" d="M471.85,-121.62C486.49,-98.67 515.13,-53.79 531.14,-28.7"/>
<polygon fill="#63b8ff" stroke="#63b8ff" points="534.54,-30.88 536.96,-20.57 528.64,-27.12 534.54,-30.88"/>
</g>
<!-- Node18&#45;&gt;Node16 -->
<g id="edge30" class="edge">
<title>Node18&#45;&gt;Node16</title>
<path fill="none" stroke="#63b8ff" d="M494.21,-121.36C517.69,-110.47 549.51,-95.71 572.42,-85.08"/>
<polygon fill="#63b8ff" stroke="#63b8ff" points="573.66,-87.89 581.26,-80.51 570.71,-81.54 573.66,-87.89"/>
</g>
</g>
</svg>
