<?xml version="1.0" encoding="UTF-8" standalone="no"?>
<!DOCTYPE svg PUBLIC "-//W3C//DTD SVG 1.1//EN"
 "http://www.w3.org/Graphics/SVG/1.1/DTD/svg11.dtd">
<!-- Generated by graphviz version 8.0.5 (20230430.1635)
 -->
<!-- Title: include/v8&#45;callbacks.h Pages: 1 -->
<svg width="736pt" height="437pt"
 viewBox="0.00 0.00 735.50 436.50" xmlns="http://www.w3.org/2000/svg" xmlns:xlink="http://www.w3.org/1999/xlink">
<g id="graph0" class="graph" transform="scale(1 1) rotate(0) translate(4 432.5)">
<title>include/v8&#45;callbacks.h</title>
<!-- Node1 -->
<g id="node1" class="node">
<title>Node1</title>
<g id="a_node1"><a xlink:title=" ">
<polygon fill="#999999" stroke="#666666" points="454.5,-428.5 342.5,-428.5 342.5,-409.25 454.5,-409.25 454.5,-428.5"/>
<text text-anchor="middle" x="398.5" y="-415" font-family="Helvetica,sans-Serif" font-size="10.00">include/v8&#45;callbacks.h</text>
</a>
</g>
</g>
<!-- Node2 -->
<g id="node2" class="node">
<title>Node2</title>
<g id="a_node2"><a xlink:href="v8-initialization_8h.html" target="_top" xlink:title=" ">
<polygon fill="white" stroke="#666666" points="121,-201.88 0,-201.88 0,-182.62 121,-182.62 121,-201.88"/>
<text text-anchor="middle" x="60.5" y="-188.38" font-family="Helvetica,sans-Serif" font-size="10.00">include/v8&#45;initialization.h</text>
</a>
</g>
</g>
<!-- Node1&#45;&gt;Node2 -->
<g id="edge1" class="edge">
<title>Node1&#45;&gt;Node2</title>
<path fill="none" stroke="#63b8ff" d="M375.81,-402.8C310.86,-359.63 125.55,-236.48 73.97,-202.2"/>
<polygon fill="#63b8ff" stroke="#63b8ff" points="373.57,-406.17 383.83,-408.79 377.44,-400.34 373.57,-406.17"/>
</g>
<!-- Node4 -->
<g id="node4" class="node">
<title>Node4</title>
<g id="a_node4"><a xlink:href="v8-isolate_8h.html" target="_top" xlink:title=" ">
<polygon fill="white" stroke="#666666" points="448.12,-262.75 348.88,-262.75 348.88,-243.5 448.12,-243.5 448.12,-262.75"/>
<text text-anchor="middle" x="398.5" y="-249.25" font-family="Helvetica,sans-Serif" font-size="10.00">include/v8&#45;isolate.h</text>
</a>
</g>
</g>
<!-- Node1&#45;&gt;Node4 -->
<g id="edge3" class="edge">
<title>Node1&#45;&gt;Node4</title>
<path fill="none" stroke="#63b8ff" d="M398.5,-398.19C398.5,-362.5 398.5,-288.46 398.5,-262.97"/>
<polygon fill="#63b8ff" stroke="#63b8ff" points="395,-398.07 398.5,-408.07 402,-398.07 395,-398.07"/>
</g>
<!-- Node12 -->
<g id="node12" class="node">
<title>Node12</title>
<g id="a_node12"><a xlink:href="v8-script_8h.html" target="_top" xlink:title=" ">
<polygon fill="white" stroke="#666666" points="609.88,-373.25 515.12,-373.25 515.12,-354 609.88,-354 609.88,-373.25"/>
<text text-anchor="middle" x="562.5" y="-359.75" font-family="Helvetica,sans-Serif" font-size="10.00">include/v8&#45;script.h</text>
</a>
</g>
</g>
<!-- Node1&#45;&gt;Node12 -->
<g id="edge16" class="edge">
<title>Node1&#45;&gt;Node12</title>
<path fill="none" stroke="#63b8ff" d="M436.41,-405.57C466.38,-395.84 507.52,-382.48 534.54,-373.7"/>
<polygon fill="#63b8ff" stroke="#63b8ff" points="435.75,-402.42 427.32,-408.84 437.91,-409.08 435.75,-402.42"/>
</g>
<!-- Node3 -->
<g id="node3" class="node">
<title>Node3</title>
<g id="a_node3"><a xlink:href="v8_8h.html" target="_top" xlink:title=" ">
<polygon fill="white" stroke="#666666" points="394.38,-19.25 326.62,-19.25 326.62,0 394.38,0 394.38,-19.25"/>
<text text-anchor="middle" x="360.5" y="-5.75" font-family="Helvetica,sans-Serif" font-size="10.00">include/v8.h</text>
</a>
</g>
</g>
<!-- Node2&#45;&gt;Node3 -->
<g id="edge2" class="edge">
<title>Node2&#45;&gt;Node3</title>
<path fill="none" stroke="#63b8ff" d="M72.44,-173.64C93.17,-144.48 138.68,-86.28 191.5,-55.25 234.02,-30.27 290.65,-19.02 326.35,-14.14"/>
<polygon fill="#63b8ff" stroke="#63b8ff" points="69.23,-171.13 66.39,-181.34 74.97,-175.13 69.23,-171.13"/>
</g>
<!-- Node4&#45;&gt;Node2 -->
<g id="edge5" class="edge">
<title>Node4&#45;&gt;Node2</title>
<path fill="none" stroke="#63b8ff" d="M338.29,-242.83C283.69,-234.24 201.06,-220.82 129.5,-207.5 120.96,-205.91 111.85,-204.11 103.15,-202.33"/>
<polygon fill="#63b8ff" stroke="#63b8ff" points="337.4,-246.39 347.82,-244.48 338.48,-239.47 337.4,-246.39"/>
</g>
<!-- Node4&#45;&gt;Node3 -->
<g id="edge15" class="edge">
<title>Node4&#45;&gt;Node3</title>
<path fill="none" stroke="#63b8ff" d="M396.48,-232.25C392.69,-196.6 383.79,-119.51 371.5,-55.25 369.1,-42.71 365.4,-28.41 362.97,-19.45"/>
<polygon fill="#63b8ff" stroke="#63b8ff" points="393.08,-232.46 397.6,-242.04 400.04,-231.73 393.08,-232.46"/>
</g>
<!-- Node5 -->
<g id="node5" class="node">
<title>Node5</title>
<g id="a_node5"><a xlink:href="v8-external-memory-accounter_8h.html" target="_top" xlink:title=" ">
<polygon fill="white" stroke="#666666" points="532.88,-207.5 426.12,-207.5 426.12,-177 532.88,-177 532.88,-207.5"/>
<text text-anchor="start" x="434.12" y="-194" font-family="Helvetica,sans-Serif" font-size="10.00">include/v8&#45;external</text>
<text text-anchor="middle" x="479.5" y="-182.75" font-family="Helvetica,sans-Serif" font-size="10.00">&#45;memory&#45;accounter.h</text>
</a>
</g>
</g>
<!-- Node4&#45;&gt;Node5 -->
<g id="edge4" class="edge">
<title>Node4&#45;&gt;Node5</title>
<path fill="none" stroke="#63b8ff" d="M419.51,-236.85C431.85,-227.89 447.35,-216.62 459.51,-207.78"/>
<polygon fill="#63b8ff" stroke="#63b8ff" points="417.83,-234.47 411.8,-243.18 421.95,-240.13 417.83,-234.47"/>
</g>
<!-- Node6 -->
<g id="node6" class="node">
<title>Node6</title>
<g id="a_node6"><a xlink:href="v8-inspector_8h.html" target="_top" xlink:title=" ">
<polygon fill="white" stroke="#666666" points="661.75,-201.88 551.25,-201.88 551.25,-182.62 661.75,-182.62 661.75,-201.88"/>
<text text-anchor="middle" x="606.5" y="-188.38" font-family="Helvetica,sans-Serif" font-size="10.00">include/v8&#45;inspector.h</text>
</a>
</g>
</g>
<!-- Node4&#45;&gt;Node6 -->
<g id="edge6" class="edge">
<title>Node4&#45;&gt;Node6</title>
<path fill="none" stroke="#63b8ff" d="M440.92,-240.12C480.48,-228.92 538.6,-212.47 574.42,-202.33"/>
<polygon fill="#63b8ff" stroke="#63b8ff" points="440.21,-236.96 431.54,-243.05 442.12,-243.7 440.21,-236.96"/>
</g>
<!-- Node8 -->
<g id="node8" class="node">
<title>Node8</title>
<g id="a_node8"><a xlink:href="v8-metrics_8h.html" target="_top" xlink:title=" ">
<polygon fill="white" stroke="#666666" points="242,-201.88 139,-201.88 139,-182.62 242,-182.62 242,-201.88"/>
<text text-anchor="middle" x="190.5" y="-188.38" font-family="Helvetica,sans-Serif" font-size="10.00">include/v8&#45;metrics.h</text>
</a>
</g>
</g>
<!-- Node4&#45;&gt;Node8 -->
<g id="edge8" class="edge">
<title>Node4&#45;&gt;Node8</title>
<path fill="none" stroke="#63b8ff" d="M356.08,-240.12C316.52,-228.92 258.4,-212.47 222.58,-202.33"/>
<polygon fill="#63b8ff" stroke="#63b8ff" points="354.88,-243.7 365.46,-243.05 356.79,-236.96 354.88,-243.7"/>
</g>
<!-- Node9 -->
<g id="node9" class="node">
<title>Node9</title>
<g id="a_node9"><a xlink:href="v8-snapshot_8h.html" target="_top" xlink:title=" ">
<polygon fill="white" stroke="#666666" points="370.75,-201.88 260.25,-201.88 260.25,-182.62 370.75,-182.62 370.75,-201.88"/>
<text text-anchor="middle" x="315.5" y="-188.38" font-family="Helvetica,sans-Serif" font-size="10.00">include/v8&#45;snapshot.h</text>
</a>
</g>
</g>
<!-- Node4&#45;&gt;Node9 -->
<g id="edge9" class="edge">
<title>Node4&#45;&gt;Node9</title>
<path fill="none" stroke="#63b8ff" d="M377,-236.88C361.53,-225.9 341.19,-211.47 328.22,-202.28"/>
<polygon fill="#63b8ff" stroke="#63b8ff" points="374.71,-240.25 384.89,-243.18 378.76,-234.54 374.71,-240.25"/>
</g>
<!-- Node7 -->
<g id="node7" class="node">
<title>Node7</title>
<g id="a_node7"><a xlink:href="v8-inspector-protocol_8h.html" target="_top" xlink:title=" ">
<polygon fill="white" stroke="#666666" points="658,-141 555,-141 555,-110.5 658,-110.5 658,-141"/>
<text text-anchor="start" x="563" y="-127.5" font-family="Helvetica,sans-Serif" font-size="10.00">include/v8&#45;inspector</text>
<text text-anchor="middle" x="606.5" y="-116.25" font-family="Helvetica,sans-Serif" font-size="10.00">&#45;protocol.h</text>
</a>
</g>
</g>
<!-- Node6&#45;&gt;Node7 -->
<g id="edge7" class="edge">
<title>Node6&#45;&gt;Node7</title>
<path fill="none" stroke="#63b8ff" d="M606.5,-171.52C606.5,-161.7 606.5,-150.05 606.5,-141.09"/>
<polygon fill="#63b8ff" stroke="#63b8ff" points="603,-171.28 606.5,-181.28 610,-171.28 603,-171.28"/>
</g>
<!-- Node9&#45;&gt;Node3 -->
<g id="edge14" class="edge">
<title>Node9&#45;&gt;Node3</title>
<path fill="none" stroke="#63b8ff" d="M326.77,-173.08C332.04,-163.8 337.92,-152.14 341.5,-141 355.64,-97.01 359.3,-41.27 360.21,-19.71"/>
<polygon fill="#63b8ff" stroke="#63b8ff" points="323.34,-171 321.25,-181.39 329.36,-174.57 323.34,-171"/>
</g>
<!-- Node10 -->
<g id="node10" class="node">
<title>Node10</title>
<g id="a_node10"><a xlink:href="v8-context_8h.html" target="_top" xlink:title=" ">
<polygon fill="white" stroke="#666666" points="332.62,-135.38 230.38,-135.38 230.38,-116.12 332.62,-116.12 332.62,-135.38"/>
<text text-anchor="middle" x="281.5" y="-121.88" font-family="Helvetica,sans-Serif" font-size="10.00">include/v8&#45;context.h</text>
</a>
</g>
</g>
<!-- Node9&#45;&gt;Node10 -->
<g id="edge10" class="edge">
<title>Node9&#45;&gt;Node10</title>
<path fill="none" stroke="#63b8ff" d="M305.69,-172.64C299.28,-160.48 291.2,-145.14 286.19,-135.64"/>
<polygon fill="#63b8ff" stroke="#63b8ff" points="303.01,-174.07 310.77,-181.28 309.21,-170.8 303.01,-174.07"/>
</g>
<!-- Node10&#45;&gt;Node3 -->
<g id="edge13" class="edge">
<title>Node10&#45;&gt;Node3</title>
<path fill="none" stroke="#63b8ff" d="M293.74,-107.07C310.86,-82.34 341.32,-38.34 354.33,-19.54"/>
<polygon fill="#63b8ff" stroke="#63b8ff" points="290.51,-104.58 287.7,-114.79 296.27,-108.56 290.51,-104.58"/>
</g>
<!-- Node11 -->
<g id="node11" class="node">
<title>Node11</title>
<g id="a_node11"><a xlink:href="v8-proxy_8h.html" target="_top" xlink:title=" ">
<polygon fill="white" stroke="#666666" points="294.12,-74.5 200.88,-74.5 200.88,-55.25 294.12,-55.25 294.12,-74.5"/>
<text text-anchor="middle" x="247.5" y="-61" font-family="Helvetica,sans-Serif" font-size="10.00">include/v8&#45;proxy.h</text>
</a>
</g>
</g>
<!-- Node10&#45;&gt;Node11 -->
<g id="edge11" class="edge">
<title>Node10&#45;&gt;Node11</title>
<path fill="none" stroke="#63b8ff" d="M270.85,-106.31C264.81,-95.85 257.52,-83.23 252.71,-74.9"/>
<polygon fill="#63b8ff" stroke="#63b8ff" points="268.3,-107.9 276.34,-114.81 274.37,-104.4 268.3,-107.9"/>
</g>
<!-- Node11&#45;&gt;Node3 -->
<g id="edge12" class="edge">
<title>Node11&#45;&gt;Node3</title>
<path fill="none" stroke="#63b8ff" d="M276.37,-50.27C296.73,-40.68 323.43,-28.09 341.24,-19.7"/>
<polygon fill="#63b8ff" stroke="#63b8ff" points="275.22,-47.41 267.67,-54.84 278.21,-53.75 275.22,-47.41"/>
</g>
<!-- Node12&#45;&gt;Node3 -->
<g id="edge20" class="edge">
<title>Node12&#45;&gt;Node3</title>
<path fill="none" stroke="#63b8ff" d="M617.46,-350.64C665.46,-336.56 727.5,-307.94 727.5,-254.12 727.5,-254.12 727.5,-254.12 727.5,-124.75 727.5,-70.63 677.63,-75.65 627.5,-55.25 548.27,-23.01 446.75,-14.06 394.67,-11.57"/>
<polygon fill="#63b8ff" stroke="#63b8ff" points="616.85,-347.46 608.15,-353.51 618.72,-354.2 616.85,-347.46"/>
</g>
<!-- Node13 -->
<g id="node13" class="node">
<title>Node13</title>
<g id="a_node13"><a xlink:href="v8-debug_8h.html" target="_top" xlink:title=" ">
<polygon fill="white" stroke="#666666" points="611,-318 514,-318 514,-298.75 611,-298.75 611,-318"/>
<text text-anchor="middle" x="562.5" y="-304.5" font-family="Helvetica,sans-Serif" font-size="10.00">include/v8&#45;debug.h</text>
</a>
</g>
</g>
<!-- Node12&#45;&gt;Node13 -->
<g id="edge17" class="edge">
<title>Node12&#45;&gt;Node13</title>
<path fill="none" stroke="#63b8ff" d="M562.5,-342.96C562.5,-334.52 562.5,-325.08 562.5,-318.36"/>
<polygon fill="#63b8ff" stroke="#63b8ff" points="559,-342.83 562.5,-352.83 566,-342.83 559,-342.83"/>
</g>
<!-- Node13&#45;&gt;Node3 -->
<g id="edge19" class="edge">
<title>Node13&#45;&gt;Node3</title>
<path fill="none" stroke="#63b8ff" d="M596.6,-294.12C634.21,-277 689.5,-243.32 689.5,-193.25 689.5,-193.25 689.5,-193.25 689.5,-124.75 689.5,-62.86 479.04,-26.96 394.78,-15.07"/>
<polygon fill="#63b8ff" stroke="#63b8ff" points="595.75,-291.11 587.99,-298.31 598.55,-297.52 595.75,-291.11"/>
</g>
<!-- Node13&#45;&gt;Node4 -->
<g id="edge18" class="edge">
<title>Node13&#45;&gt;Node4</title>
<path fill="none" stroke="#63b8ff" d="M524.59,-295.07C494.62,-285.34 453.48,-271.98 426.46,-263.2"/>
<polygon fill="#63b8ff" stroke="#63b8ff" points="523.09,-298.58 533.68,-298.34 525.25,-291.92 523.09,-298.58"/>
</g>
</g>
</svg>
