<?xml version="1.0" encoding="UTF-8" standalone="no"?>
<!DOCTYPE svg PUBLIC "-//W3C//DTD SVG 1.1//EN"
 "http://www.w3.org/Graphics/SVG/1.1/DTD/svg11.dtd">
<!-- Generated by graphviz version 8.0.5 (20230430.1635)
 -->
<!-- Title: include/v8&#45;primitive.h Pages: 1 -->
<svg width="1736pt" height="625pt"
 viewBox="0.00 0.00 1736.00 624.75" xmlns="http://www.w3.org/2000/svg" xmlns:xlink="http://www.w3.org/1999/xlink">
<g id="graph0" class="graph" transform="scale(1 1) rotate(0) translate(4 620.75)">
<title>include/v8&#45;primitive.h</title>
<!-- Node1 -->
<g id="node1" class="node">
<title>Node1</title>
<g id="a_node1"><a xlink:title=" ">
<polygon fill="#999999" stroke="#666666" points="383.75,-616.75 276.25,-616.75 276.25,-597.5 383.75,-597.5 383.75,-616.75"/>
<text text-anchor="middle" x="330" y="-603.25" font-family="Helvetica,sans-Serif" font-size="10.00">include/v8&#45;primitive.h</text>
</a>
</g>
</g>
<!-- Node2 -->
<g id="node2" class="node">
<title>Node2</title>
<g id="a_node2"><a xlink:href="v8-extension_8h.html" target="_top" xlink:title=" ">
<polygon fill="white" stroke="#666666" points="112,-74.5 0,-74.5 0,-55.25 112,-55.25 112,-74.5"/>
<text text-anchor="middle" x="56" y="-61" font-family="Helvetica,sans-Serif" font-size="10.00">include/v8&#45;extension.h</text>
</a>
</g>
</g>
<!-- Node1&#45;&gt;Node2 -->
<g id="edge1" class="edge">
<title>Node1&#45;&gt;Node2</title>
<path fill="none" stroke="#63b8ff" d="M265.16,-603.79C190.79,-597.24 79,-573.78 79,-492 79,-492 79,-492 79,-191.25 79,-146.99 64.96,-95.36 58.82,-74.89"/>
<polygon fill="#63b8ff" stroke="#63b8ff" points="264.6,-607.34 274.85,-604.64 265.15,-600.36 264.6,-607.34"/>
</g>
<!-- Node3 -->
<g id="node3" class="node">
<title>Node3</title>
<g id="a_node3"><a xlink:href="v8_8h.html" target="_top" xlink:title=" ">
<polygon fill="white" stroke="#666666" points="973.88,-19.25 906.12,-19.25 906.12,0 973.88,0 973.88,-19.25"/>
<text text-anchor="middle" x="940" y="-5.75" font-family="Helvetica,sans-Serif" font-size="10.00">include/v8.h</text>
</a>
</g>
</g>
<!-- Node1&#45;&gt;Node3 -->
<g id="edge68" class="edge">
<title>Node1&#45;&gt;Node3</title>
<path fill="none" stroke="#63b8ff" d="M265.37,-594.89C210.3,-581.17 140,-551.92 140,-492 140,-492 140,-492 140,-124.75 140,-85.36 160.07,-73.46 195,-55.25 258.55,-22.12 768.72,-12.92 906.06,-11.04"/>
<polygon fill="#63b8ff" stroke="#63b8ff" points="264.27,-598.46 274.81,-597.35 265.88,-591.65 264.27,-598.46"/>
</g>
<!-- Node4 -->
<g id="node4" class="node">
<title>Node4</title>
<g id="a_node4"><a xlink:href="v8-function-callback_8h.html" target="_top" xlink:title=" ">
<polygon fill="white" stroke="#666666" points="417.88,-506.25 320.12,-506.25 320.12,-475.75 417.88,-475.75 417.88,-506.25"/>
<text text-anchor="start" x="328.12" y="-492.75" font-family="Helvetica,sans-Serif" font-size="10.00">include/v8&#45;function</text>
<text text-anchor="middle" x="369" y="-481.5" font-family="Helvetica,sans-Serif" font-size="10.00">&#45;callback.h</text>
</a>
</g>
</g>
<!-- Node1&#45;&gt;Node4 -->
<g id="edge3" class="edge">
<title>Node1&#45;&gt;Node4</title>
<path fill="none" stroke="#63b8ff" d="M336.61,-586.77C344.38,-564.06 357.07,-526.91 364.04,-506.52"/>
<polygon fill="#63b8ff" stroke="#63b8ff" points="332.98,-585.58 333.06,-596.17 339.61,-587.84 332.98,-585.58"/>
</g>
<!-- Node6 -->
<g id="node6" class="node">
<title>Node6</title>
<g id="a_node6"><a xlink:href="v8-isolate_8h.html" target="_top" xlink:title=" ">
<polygon fill="white" stroke="#666666" points="903.62,-268.38 804.38,-268.38 804.38,-249.12 903.62,-249.12 903.62,-268.38"/>
<text text-anchor="middle" x="854" y="-254.88" font-family="Helvetica,sans-Serif" font-size="10.00">include/v8&#45;isolate.h</text>
</a>
</g>
</g>
<!-- Node1&#45;&gt;Node6 -->
<g id="edge24" class="edge">
<title>Node1&#45;&gt;Node6</title>
<path fill="none" stroke="#63b8ff" d="M394.68,-605.49C534.83,-602.35 854,-585.01 854,-492 854,-492 854,-492 854,-373.88 854,-334.64 854,-287.83 854,-268.63"/>
<polygon fill="#63b8ff" stroke="#63b8ff" points="395.03,-602 385.1,-605.7 395.17,-609 395.03,-602"/>
</g>
<!-- Node17 -->
<g id="node17" class="node">
<title>Node17</title>
<g id="a_node17"><a xlink:href="v8-message_8h.html" target="_top" xlink:title=" ">
<polygon fill="white" stroke="#666666" points="278.25,-439.75 167.75,-439.75 167.75,-420.5 278.25,-420.5 278.25,-439.75"/>
<text text-anchor="middle" x="223" y="-426.25" font-family="Helvetica,sans-Serif" font-size="10.00">include/v8&#45;message.h</text>
</a>
</g>
</g>
<!-- Node1&#45;&gt;Node17 -->
<g id="edge25" class="edge">
<title>Node1&#45;&gt;Node17</title>
<path fill="none" stroke="#63b8ff" d="M318.97,-588.09C296.36,-551.11 245.47,-467.87 228.57,-440.24"/>
<polygon fill="#63b8ff" stroke="#63b8ff" points="316.34,-589.5 324.55,-596.21 322.32,-585.85 316.34,-589.5"/>
</g>
<!-- Node21 -->
<g id="node21" class="node">
<title>Node21</title>
<g id="a_node21"><a xlink:href="v8-object_8h.html" target="_top" xlink:title=" ">
<polygon fill="white" stroke="#666666" points="1165.5,-561.5 1068.5,-561.5 1068.5,-542.25 1165.5,-542.25 1165.5,-561.5"/>
<text text-anchor="middle" x="1117" y="-548" font-family="Helvetica,sans-Serif" font-size="10.00">include/v8&#45;object.h</text>
</a>
</g>
</g>
<!-- Node1&#45;&gt;Node21 -->
<g id="edge34" class="edge">
<title>Node1&#45;&gt;Node21</title>
<path fill="none" stroke="#63b8ff" d="M394.75,-601.74C548.34,-591.35 932.01,-565.39 1068.14,-556.18"/>
<polygon fill="#63b8ff" stroke="#63b8ff" points="394.83,-598.3 385.09,-602.46 395.31,-605.28 394.83,-598.3"/>
</g>
<!-- Node2&#45;&gt;Node3 -->
<g id="edge2" class="edge">
<title>Node2&#45;&gt;Node3</title>
<path fill="none" stroke="#63b8ff" d="M123.02,-55.52C124.02,-55.43 125.01,-55.34 126,-55.25 427.69,-28.43 793.81,-15.26 905.82,-11.67"/>
<polygon fill="#63b8ff" stroke="#63b8ff" points="122.73,-52.13 113.13,-56.62 123.43,-59.1 122.73,-52.13"/>
</g>
<!-- Node5 -->
<g id="node5" class="node">
<title>Node5</title>
<g id="a_node5"><a xlink:href="v8-function_8h.html" target="_top" xlink:title=" ">
<polygon fill="white" stroke="#666666" points="428.62,-384.5 323.38,-384.5 323.38,-365.25 428.62,-365.25 428.62,-384.5"/>
<text text-anchor="middle" x="376" y="-371" font-family="Helvetica,sans-Serif" font-size="10.00">include/v8&#45;function.h</text>
</a>
</g>
</g>
<!-- Node4&#45;&gt;Node5 -->
<g id="edge4" class="edge">
<title>Node4&#45;&gt;Node5</title>
<path fill="none" stroke="#63b8ff" d="M380.84,-465.66C384.16,-457.6 387.33,-448.47 389,-439.75 392.75,-420.19 385.2,-397.33 380.11,-384.96"/>
<polygon fill="#63b8ff" stroke="#63b8ff" points="377.33,-463.93 376.48,-474.49 383.73,-466.77 377.33,-463.93"/>
</g>
<!-- Node4&#45;&gt;Node6 -->
<g id="edge6" class="edge">
<title>Node4&#45;&gt;Node6</title>
<path fill="none" stroke="#63b8ff" d="M428.94,-482.69C474.75,-475.64 538.69,-462.57 591,-439.75 699.53,-392.4 810.39,-298.43 843.85,-268.87"/>
<polygon fill="#63b8ff" stroke="#63b8ff" points="428.67,-479.34 419.29,-484.27 429.7,-486.26 428.67,-479.34"/>
</g>
<!-- Node15 -->
<g id="node15" class="node">
<title>Node15</title>
<g id="a_node15"><a xlink:href="v8-template_8h.html" target="_top" xlink:title=" ">
<polygon fill="white" stroke="#666666" points="582.12,-439.75 473.88,-439.75 473.88,-420.5 582.12,-420.5 582.12,-439.75"/>
<text text-anchor="middle" x="528" y="-426.25" font-family="Helvetica,sans-Serif" font-size="10.00">include/v8&#45;template.h</text>
</a>
</g>
</g>
<!-- Node4&#45;&gt;Node15 -->
<g id="edge20" class="edge">
<title>Node4&#45;&gt;Node15</title>
<path fill="none" stroke="#63b8ff" d="M418.82,-471.55C447.06,-461.1 481.13,-448.48 503.62,-440.15"/>
<polygon fill="#63b8ff" stroke="#63b8ff" points="417.87,-468.54 409.71,-475.3 420.31,-475.1 417.87,-468.54"/>
</g>
<!-- Node16 -->
<g id="node16" class="node">
<title>Node16</title>
<g id="a_node16"><a xlink:href="v8-util_8h.html" target="_top" xlink:title=" ">
<polygon fill="white" stroke="#666666" points="379.75,-439.75 296.25,-439.75 296.25,-420.5 379.75,-420.5 379.75,-439.75"/>
<text text-anchor="middle" x="338" y="-426.25" font-family="Helvetica,sans-Serif" font-size="10.00">include/v8&#45;util.h</text>
</a>
</g>
</g>
<!-- Node4&#45;&gt;Node16 -->
<g id="edge23" class="edge">
<title>Node4&#45;&gt;Node16</title>
<path fill="none" stroke="#63b8ff" d="M356.22,-465.74C351.47,-456.72 346.37,-447.03 342.78,-440.2"/>
<polygon fill="#63b8ff" stroke="#63b8ff" points="353.58,-467.23 361.34,-474.45 359.77,-463.97 353.58,-467.23"/>
</g>
<!-- Node5&#45;&gt;Node3 -->
<g id="edge5" class="edge">
<title>Node5&#45;&gt;Node3</title>
<path fill="none" stroke="#63b8ff" d="M331.48,-361.5C286.31,-345.91 223,-314.32 223,-259.75 223,-259.75 223,-259.75 223,-124.75 223,-92.07 221.01,-75.06 247,-55.25 299.74,-15.05 773.63,-10.99 905.87,-10.64"/>
<polygon fill="#63b8ff" stroke="#63b8ff" points="330.07,-365.05 340.66,-364.86 332.26,-358.4 330.07,-365.05"/>
</g>
<!-- Node6&#45;&gt;Node3 -->
<g id="edge19" class="edge">
<title>Node6&#45;&gt;Node3</title>
<path fill="none" stroke="#63b8ff" d="M793.59,-250.21C767.02,-243.55 738.22,-231.03 722,-207.5 712.54,-193.78 711.49,-131.84 726,-110.5 767.61,-49.3 856.93,-24.75 906,-15.59"/>
<polygon fill="#63b8ff" stroke="#63b8ff" points="792.5,-253.77 803.02,-252.56 794.04,-246.94 792.5,-253.77"/>
</g>
<!-- Node7 -->
<g id="node7" class="node">
<title>Node7</title>
<g id="a_node7"><a xlink:href="v8-external-memory-accounter_8h.html" target="_top" xlink:title=" ">
<polygon fill="white" stroke="#666666" points="675.38,-207.5 568.62,-207.5 568.62,-177 675.38,-177 675.38,-207.5"/>
<text text-anchor="start" x="576.62" y="-194" font-family="Helvetica,sans-Serif" font-size="10.00">include/v8&#45;external</text>
<text text-anchor="middle" x="622" y="-182.75" font-family="Helvetica,sans-Serif" font-size="10.00">&#45;memory&#45;accounter.h</text>
</a>
</g>
</g>
<!-- Node6&#45;&gt;Node7 -->
<g id="edge7" class="edge">
<title>Node6&#45;&gt;Node7</title>
<path fill="none" stroke="#63b8ff" d="M810.9,-245.77C772.39,-235.06 715.87,-219.35 674.69,-207.9"/>
<polygon fill="#63b8ff" stroke="#63b8ff" points="809.68,-249.34 820.25,-248.65 811.56,-242.59 809.68,-249.34"/>
</g>
<!-- Node8 -->
<g id="node8" class="node">
<title>Node8</title>
<g id="a_node8"><a xlink:href="v8-initialization_8h.html" target="_top" xlink:title=" ">
<polygon fill="white" stroke="#666666" points="1230.5,-201.88 1109.5,-201.88 1109.5,-182.62 1230.5,-182.62 1230.5,-201.88"/>
<text text-anchor="middle" x="1170" y="-188.38" font-family="Helvetica,sans-Serif" font-size="10.00">include/v8&#45;initialization.h</text>
</a>
</g>
</g>
<!-- Node6&#45;&gt;Node8 -->
<g id="edge8" class="edge">
<title>Node6&#45;&gt;Node8</title>
<path fill="none" stroke="#63b8ff" d="M909.25,-246.47C970.66,-233.94 1068.62,-213.94 1125.37,-202.36"/>
<polygon fill="#63b8ff" stroke="#63b8ff" points="908.7,-243.22 899.6,-248.65 910.1,-250.07 908.7,-243.22"/>
</g>
<!-- Node9 -->
<g id="node9" class="node">
<title>Node9</title>
<g id="a_node9"><a xlink:href="v8-inspector_8h.html" target="_top" xlink:title=" ">
<polygon fill="white" stroke="#666666" points="841.25,-201.88 730.75,-201.88 730.75,-182.62 841.25,-182.62 841.25,-201.88"/>
<text text-anchor="middle" x="786" y="-188.38" font-family="Helvetica,sans-Serif" font-size="10.00">include/v8&#45;inspector.h</text>
</a>
</g>
</g>
<!-- Node6&#45;&gt;Node9 -->
<g id="edge10" class="edge">
<title>Node6&#45;&gt;Node9</title>
<path fill="none" stroke="#63b8ff" d="M836.67,-241.31C823.54,-228.86 806,-212.22 795.37,-202.14"/>
<polygon fill="#63b8ff" stroke="#63b8ff" points="833.88,-243.44 843.54,-247.78 838.7,-238.36 833.88,-243.44"/>
</g>
<!-- Node11 -->
<g id="node11" class="node">
<title>Node11</title>
<g id="a_node11"><a xlink:href="v8-metrics_8h.html" target="_top" xlink:title=" ">
<polygon fill="white" stroke="#666666" points="962.5,-201.88 859.5,-201.88 859.5,-182.62 962.5,-182.62 962.5,-201.88"/>
<text text-anchor="middle" x="911" y="-188.38" font-family="Helvetica,sans-Serif" font-size="10.00">include/v8&#45;metrics.h</text>
</a>
</g>
</g>
<!-- Node6&#45;&gt;Node11 -->
<g id="edge12" class="edge">
<title>Node6&#45;&gt;Node11</title>
<path fill="none" stroke="#63b8ff" d="M869.16,-240.59C880.09,-228.22 894.41,-212.03 903.14,-202.14"/>
<polygon fill="#63b8ff" stroke="#63b8ff" points="866.92,-237.97 862.93,-247.78 872.17,-242.61 866.92,-237.97"/>
</g>
<!-- Node12 -->
<g id="node12" class="node">
<title>Node12</title>
<g id="a_node12"><a xlink:href="v8-snapshot_8h.html" target="_top" xlink:title=" ">
<polygon fill="white" stroke="#666666" points="1091.25,-201.88 980.75,-201.88 980.75,-182.62 1091.25,-182.62 1091.25,-201.88"/>
<text text-anchor="middle" x="1036" y="-188.38" font-family="Helvetica,sans-Serif" font-size="10.00">include/v8&#45;snapshot.h</text>
</a>
</g>
</g>
<!-- Node6&#45;&gt;Node12 -->
<g id="edge13" class="edge">
<title>Node6&#45;&gt;Node12</title>
<path fill="none" stroke="#63b8ff" d="M889.65,-245.12C925.2,-232.52 978.93,-213.47 1010.44,-202.31"/>
<polygon fill="#63b8ff" stroke="#63b8ff" points="888.95,-242.01 880.69,-248.65 891.28,-248.6 888.95,-242.01"/>
</g>
<!-- Node8&#45;&gt;Node3 -->
<g id="edge9" class="edge">
<title>Node8&#45;&gt;Node3</title>
<path fill="none" stroke="#63b8ff" d="M1166.74,-171.76C1160.73,-142.11 1145.07,-85.86 1109,-55.25 1070.71,-22.76 1011.29,-13.62 974.07,-11.23"/>
<polygon fill="#63b8ff" stroke="#63b8ff" points="1163.44,-172.18 1168.7,-181.37 1170.32,-170.9 1163.44,-172.18"/>
</g>
<!-- Node10 -->
<g id="node10" class="node">
<title>Node10</title>
<g id="a_node10"><a xlink:href="v8-inspector-protocol_8h.html" target="_top" xlink:title=" ">
<polygon fill="white" stroke="#666666" points="837.5,-141 734.5,-141 734.5,-110.5 837.5,-110.5 837.5,-141"/>
<text text-anchor="start" x="742.5" y="-127.5" font-family="Helvetica,sans-Serif" font-size="10.00">include/v8&#45;inspector</text>
<text text-anchor="middle" x="786" y="-116.25" font-family="Helvetica,sans-Serif" font-size="10.00">&#45;protocol.h</text>
</a>
</g>
</g>
<!-- Node9&#45;&gt;Node10 -->
<g id="edge11" class="edge">
<title>Node9&#45;&gt;Node10</title>
<path fill="none" stroke="#63b8ff" d="M786,-171.52C786,-161.7 786,-150.05 786,-141.09"/>
<polygon fill="#63b8ff" stroke="#63b8ff" points="782.5,-171.28 786,-181.28 789.5,-171.28 782.5,-171.28"/>
</g>
<!-- Node12&#45;&gt;Node3 -->
<g id="edge18" class="edge">
<title>Node12&#45;&gt;Node3</title>
<path fill="none" stroke="#63b8ff" d="M1011.72,-176.15C999.36,-167.31 985.08,-155.12 976,-141 950.09,-100.71 942.61,-41.84 940.65,-19.59"/>
<polygon fill="#63b8ff" stroke="#63b8ff" points="1009.43,-179.5 1019.67,-182.23 1013.37,-173.71 1009.43,-179.5"/>
</g>
<!-- Node13 -->
<g id="node13" class="node">
<title>Node13</title>
<g id="a_node13"><a xlink:href="v8-context_8h.html" target="_top" xlink:title=" ">
<polygon fill="white" stroke="#666666" points="1087.12,-135.38 984.88,-135.38 984.88,-116.12 1087.12,-116.12 1087.12,-135.38"/>
<text text-anchor="middle" x="1036" y="-121.88" font-family="Helvetica,sans-Serif" font-size="10.00">include/v8&#45;context.h</text>
</a>
</g>
</g>
<!-- Node12&#45;&gt;Node13 -->
<g id="edge14" class="edge">
<title>Node12&#45;&gt;Node13</title>
<path fill="none" stroke="#63b8ff" d="M1036,-171.52C1036,-159.55 1036,-144.85 1036,-135.64"/>
<polygon fill="#63b8ff" stroke="#63b8ff" points="1032.5,-171.28 1036,-181.28 1039.5,-171.28 1032.5,-171.28"/>
</g>
<!-- Node13&#45;&gt;Node3 -->
<g id="edge17" class="edge">
<title>Node13&#45;&gt;Node3</title>
<path fill="none" stroke="#63b8ff" d="M1021.4,-107.4C1000.65,-82.73 963.38,-38.42 947.5,-19.54"/>
<polygon fill="#63b8ff" stroke="#63b8ff" points="1019.35,-109.4 1028.47,-114.79 1024.71,-104.89 1019.35,-109.4"/>
</g>
<!-- Node14 -->
<g id="node14" class="node">
<title>Node14</title>
<g id="a_node14"><a xlink:href="v8-proxy_8h.html" target="_top" xlink:title=" ">
<polygon fill="white" stroke="#666666" points="1099.62,-74.5 1006.38,-74.5 1006.38,-55.25 1099.62,-55.25 1099.62,-74.5"/>
<text text-anchor="middle" x="1053" y="-61" font-family="Helvetica,sans-Serif" font-size="10.00">include/v8&#45;proxy.h</text>
</a>
</g>
</g>
<!-- Node13&#45;&gt;Node14 -->
<g id="edge15" class="edge">
<title>Node13&#45;&gt;Node14</title>
<path fill="none" stroke="#63b8ff" d="M1041.61,-105.32C1044.57,-95.07 1048.06,-82.97 1050.39,-74.9"/>
<polygon fill="#63b8ff" stroke="#63b8ff" points="1037.99,-104.23 1038.58,-114.81 1044.72,-106.17 1037.99,-104.23"/>
</g>
<!-- Node14&#45;&gt;Node3 -->
<g id="edge16" class="edge">
<title>Node14&#45;&gt;Node3</title>
<path fill="none" stroke="#63b8ff" d="M1024.13,-50.27C1003.77,-40.68 977.07,-28.09 959.26,-19.7"/>
<polygon fill="#63b8ff" stroke="#63b8ff" points="1022.29,-53.75 1032.83,-54.84 1025.28,-47.41 1022.29,-53.75"/>
</g>
<!-- Node15&#45;&gt;Node3 -->
<g id="edge22" class="edge">
<title>Node15&#45;&gt;Node3</title>
<path fill="none" stroke="#63b8ff" d="M507.51,-413.71C489.52,-400.39 462.48,-380.88 438,-365.25 410.82,-347.9 397.21,-352.64 375,-329.25 302.02,-252.39 225.57,-201.45 280,-110.5 306.67,-65.92 333.16,-69.91 383,-55.25 481.88,-26.16 800.39,-14.61 905.78,-11.53"/>
<polygon fill="#63b8ff" stroke="#63b8ff" points="504.92,-416.89 515.03,-420.06 509.1,-411.28 504.92,-416.89"/>
</g>
<!-- Node15&#45;&gt;Node5 -->
<g id="edge21" class="edge">
<title>Node15&#45;&gt;Node5</title>
<path fill="none" stroke="#63b8ff" d="M492.13,-416.56C464.43,-406.85 426.74,-393.65 401.91,-384.95"/>
<polygon fill="#63b8ff" stroke="#63b8ff" points="490.62,-420.09 501.22,-420.09 492.93,-413.48 490.62,-420.09"/>
</g>
<!-- Node17&#45;&gt;Node3 -->
<g id="edge33" class="edge">
<title>Node17&#45;&gt;Node3</title>
<path fill="none" stroke="#63b8ff" d="M210.4,-411.15C197.09,-390.36 178,-354.62 178,-320.62 178,-320.62 178,-320.62 178,-124.75 178,-87.21 193.32,-73.72 226,-55.25 285.61,-21.56 772.24,-12.8 906.06,-11.02"/>
<polygon fill="#63b8ff" stroke="#63b8ff" points="207.9,-412.7 216.36,-419.08 213.72,-408.82 207.9,-412.7"/>
</g>
<!-- Node17&#45;&gt;Node5 -->
<g id="edge26" class="edge">
<title>Node17&#45;&gt;Node5</title>
<path fill="none" stroke="#63b8ff" d="M259.1,-416.56C286.99,-406.85 324.93,-393.65 349.92,-384.95"/>
<polygon fill="#63b8ff" stroke="#63b8ff" points="258.25,-413.5 249.95,-420.09 260.55,-420.11 258.25,-413.5"/>
</g>
<!-- Node18 -->
<g id="node18" class="node">
<title>Node18</title>
<g id="a_node18"><a xlink:href="v8-profiler_8h.html" target="_top" xlink:title=" ">
<polygon fill="white" stroke="#666666" points="305.62,-384.5 206.38,-384.5 206.38,-365.25 305.62,-365.25 305.62,-384.5"/>
<text text-anchor="middle" x="256" y="-371" font-family="Helvetica,sans-Serif" font-size="10.00">include/v8&#45;profiler.h</text>
</a>
</g>
</g>
<!-- Node17&#45;&gt;Node18 -->
<g id="edge27" class="edge">
<title>Node17&#45;&gt;Node18</title>
<path fill="none" stroke="#63b8ff" d="M234.11,-411.19C239.6,-402.34 245.98,-392.04 250.43,-384.86"/>
<polygon fill="#63b8ff" stroke="#63b8ff" points="230.74,-408.99 228.45,-419.33 236.69,-412.68 230.74,-408.99"/>
</g>
<!-- Node19 -->
<g id="node19" class="node">
<title>Node19</title>
<g id="a_node19"><a xlink:href="v8-script_8h.html" target="_top" xlink:title=" ">
<polygon fill="white" stroke="#666666" points="658.38,-384.5 563.62,-384.5 563.62,-365.25 658.38,-365.25 658.38,-384.5"/>
<text text-anchor="middle" x="611" y="-371" font-family="Helvetica,sans-Serif" font-size="10.00">include/v8&#45;script.h</text>
</a>
</g>
</g>
<!-- Node17&#45;&gt;Node19 -->
<g id="edge28" class="edge">
<title>Node17&#45;&gt;Node19</title>
<path fill="none" stroke="#63b8ff" d="M289.23,-420.03C367.07,-409.35 494.31,-391.89 563.15,-382.44"/>
<polygon fill="#63b8ff" stroke="#63b8ff" points="289.02,-416.67 279.59,-421.5 289.97,-423.6 289.02,-416.67"/>
</g>
<!-- Node19&#45;&gt;Node3 -->
<g id="edge32" class="edge">
<title>Node19&#45;&gt;Node3</title>
<path fill="none" stroke="#63b8ff" d="M552.5,-372.15C517.24,-368.04 473.9,-357.07 446,-329.25 423.33,-306.64 427,-291.77 427,-259.75 427,-259.75 427,-259.75 427,-124.75 427,-86.96 443.32,-74.24 476,-55.25 549.04,-12.82 811.49,-9.91 905.88,-10.29"/>
<polygon fill="#63b8ff" stroke="#63b8ff" points="551.86,-375.7 562.16,-373.22 552.56,-368.74 551.86,-375.7"/>
</g>
<!-- Node20 -->
<g id="node20" class="node">
<title>Node20</title>
<g id="a_node20"><a xlink:href="v8-debug_8h.html" target="_top" xlink:title=" ">
<polygon fill="white" stroke="#666666" points="659.5,-329.25 562.5,-329.25 562.5,-310 659.5,-310 659.5,-329.25"/>
<text text-anchor="middle" x="611" y="-315.75" font-family="Helvetica,sans-Serif" font-size="10.00">include/v8&#45;debug.h</text>
</a>
</g>
</g>
<!-- Node19&#45;&gt;Node20 -->
<g id="edge29" class="edge">
<title>Node19&#45;&gt;Node20</title>
<path fill="none" stroke="#63b8ff" d="M611,-354.21C611,-345.77 611,-336.33 611,-329.61"/>
<polygon fill="#63b8ff" stroke="#63b8ff" points="607.5,-354.08 611,-364.08 614.5,-354.08 607.5,-354.08"/>
</g>
<!-- Node20&#45;&gt;Node3 -->
<g id="edge31" class="edge">
<title>Node20&#45;&gt;Node3</title>
<path fill="none" stroke="#63b8ff" d="M585.35,-303.98C553.41,-283.61 503,-243.5 503,-193.25 503,-193.25 503,-193.25 503,-124.75 503,-92.07 501.45,-75.62 527,-55.25 556.4,-31.82 811.87,-16.95 905.66,-12.24"/>
<polygon fill="#63b8ff" stroke="#63b8ff" points="583.24,-307.41 593.6,-309.66 586.91,-301.44 583.24,-307.41"/>
</g>
<!-- Node20&#45;&gt;Node6 -->
<g id="edge30" class="edge">
<title>Node20&#45;&gt;Node6</title>
<path fill="none" stroke="#63b8ff" d="M659.09,-306.97C705.32,-295.77 774.23,-279.08 816.52,-268.83"/>
<polygon fill="#63b8ff" stroke="#63b8ff" points="658.33,-303.8 649.44,-309.55 659.98,-310.6 658.33,-303.8"/>
</g>
<!-- Node21&#45;&gt;Node3 -->
<g id="edge67" class="edge">
<title>Node21&#45;&gt;Node3</title>
<path fill="none" stroke="#63b8ff" d="M1176.52,-546.41C1292.61,-536.05 1538,-505.38 1538,-431.12 1538,-431.12 1538,-431.12 1538,-124.75 1538,-89.96 1530.98,-74.49 1502,-55.25 1458.02,-26.05 1089,-14.37 974.05,-11.42"/>
<polygon fill="#63b8ff" stroke="#63b8ff" points="1176.37,-543 1166.71,-547.35 1176.97,-549.97 1176.37,-543"/>
</g>
<!-- Node21&#45;&gt;Node5 -->
<g id="edge49" class="edge">
<title>Node21&#45;&gt;Node5</title>
<path fill="none" stroke="#63b8ff" d="M1057.11,-550.21C931.74,-548.16 645.78,-539.84 555,-506.25 480,-478.5 408.71,-409.78 384.61,-384.98"/>
<polygon fill="#63b8ff" stroke="#63b8ff" points="1056.96,-553.73 1067.01,-550.38 1057.06,-546.73 1056.96,-553.73"/>
</g>
<!-- Node21&#45;&gt;Node14 -->
<g id="edge61" class="edge">
<title>Node21&#45;&gt;Node14</title>
<path fill="none" stroke="#63b8ff" d="M1176.13,-539.38C1231.57,-524.77 1306,-493.53 1306,-431.12 1306,-431.12 1306,-431.12 1306,-318.62 1306,-249.18 1286.59,-228.5 1240,-177 1193.26,-125.33 1116.76,-90.42 1077.67,-74.95"/>
<polygon fill="#63b8ff" stroke="#63b8ff" points="1175.52,-536.18 1166.67,-542.01 1177.22,-542.97 1175.52,-536.18"/>
</g>
<!-- Node21&#45;&gt;Node15 -->
<g id="edge64" class="edge">
<title>Node21&#45;&gt;Node15</title>
<path fill="none" stroke="#63b8ff" d="M1057.48,-551.18C938.45,-550.93 675.66,-545.75 596,-506.25 565.74,-491.25 542.62,-456.49 532.95,-440.05"/>
<polygon fill="#63b8ff" stroke="#63b8ff" points="1057.2,-554.68 1067.2,-551.19 1057.2,-547.68 1057.2,-554.68"/>
</g>
<!-- Node22 -->
<g id="node22" class="node">
<title>Node22</title>
<g id="a_node22"><a xlink:href="v8-array-buffer_8h.html" target="_top" xlink:title=" ">
<polygon fill="white" stroke="#666666" points="1684.38,-329.25 1565.62,-329.25 1565.62,-310 1684.38,-310 1684.38,-329.25"/>
<text text-anchor="middle" x="1625" y="-315.75" font-family="Helvetica,sans-Serif" font-size="10.00">include/v8&#45;array&#45;buffer.h</text>
</a>
</g>
</g>
<!-- Node21&#45;&gt;Node22 -->
<g id="edge35" class="edge">
<title>Node21&#45;&gt;Node22</title>
<path fill="none" stroke="#63b8ff" d="M1176.8,-548.17C1289.06,-542.59 1522.74,-528.46 1552,-506.25 1611.58,-461.03 1622.59,-359.97 1624.57,-329.49"/>
<polygon fill="#63b8ff" stroke="#63b8ff" points="1176.82,-544.71 1167,-548.7 1177.16,-551.7 1176.82,-544.71"/>
</g>
<!-- Node25 -->
<g id="node25" class="node">
<title>Node25</title>
<g id="a_node25"><a xlink:href="v8-container_8h.html" target="_top" xlink:title=" ">
<polygon fill="white" stroke="#666666" points="399.25,-135.38 288.75,-135.38 288.75,-116.12 399.25,-116.12 399.25,-135.38"/>
<text text-anchor="middle" x="344" y="-121.88" font-family="Helvetica,sans-Serif" font-size="10.00">include/v8&#45;container.h</text>
</a>
</g>
</g>
<!-- Node21&#45;&gt;Node25 -->
<g id="edge41" class="edge">
<title>Node21&#45;&gt;Node25</title>
<path fill="none" stroke="#63b8ff" d="M1057.14,-550.47C950.11,-548.85 730.87,-541.22 664,-506.25 619.65,-483.05 629.71,-452.23 591,-420.5 526.49,-367.62 482.38,-391.63 427,-329.25 372.51,-267.88 350.88,-165.91 345.46,-135.54"/>
<polygon fill="#63b8ff" stroke="#63b8ff" points="1057.02,-553.98 1067.07,-550.62 1057.12,-546.98 1057.02,-553.98"/>
</g>
<!-- Node26 -->
<g id="node26" class="node">
<title>Node26</title>
<g id="a_node26"><a xlink:href="v8-date_8h.html" target="_top" xlink:title=" ">
<polygon fill="white" stroke="#666666" points="544.75,-329.25 455.25,-329.25 455.25,-310 544.75,-310 544.75,-329.25"/>
<text text-anchor="middle" x="500" y="-315.75" font-family="Helvetica,sans-Serif" font-size="10.00">include/v8&#45;date.h</text>
</a>
</g>
</g>
<!-- Node21&#45;&gt;Node26 -->
<g id="edge43" class="edge">
<title>Node21&#45;&gt;Node26</title>
<path fill="none" stroke="#63b8ff" d="M1057.6,-549.45C958.78,-546.26 765.48,-536.28 705,-506.25 658.04,-482.93 665.82,-452.12 624,-420.5 596.41,-399.64 582.1,-405.99 555,-384.5 534.13,-367.95 515.14,-342.65 505.9,-329.4"/>
<polygon fill="#63b8ff" stroke="#63b8ff" points="1057.2,-552.97 1067.31,-549.78 1057.42,-545.98 1057.2,-552.97"/>
</g>
<!-- Node27 -->
<g id="node27" class="node">
<title>Node27</title>
<g id="a_node27"><a xlink:href="v8-exception_8h.html" target="_top" xlink:title=" ">
<polygon fill="white" stroke="#666666" points="826,-500.62 714,-500.62 714,-481.38 826,-481.38 826,-500.62"/>
<text text-anchor="middle" x="770" y="-487.12" font-family="Helvetica,sans-Serif" font-size="10.00">include/v8&#45;exception.h</text>
</a>
</g>
</g>
<!-- Node21&#45;&gt;Node27 -->
<g id="edge45" class="edge">
<title>Node21&#45;&gt;Node27</title>
<path fill="none" stroke="#63b8ff" d="M1057.42,-540.77C991.67,-529.61 886.81,-511.82 823.57,-501.09"/>
<polygon fill="#63b8ff" stroke="#63b8ff" points="1056.57,-544.34 1067.02,-542.56 1057.75,-537.44 1056.57,-544.34"/>
</g>
<!-- Node28 -->
<g id="node28" class="node">
<title>Node28</title>
<g id="a_node28"><a xlink:href="v8-primitive-object_8h.html" target="_top" xlink:title=" ">
<polygon fill="white" stroke="#666666" points="1434,-274 1334,-274 1334,-243.5 1434,-243.5 1434,-274"/>
<text text-anchor="start" x="1342" y="-260.5" font-family="Helvetica,sans-Serif" font-size="10.00">include/v8&#45;primitive</text>
<text text-anchor="middle" x="1384" y="-249.25" font-family="Helvetica,sans-Serif" font-size="10.00">&#45;object.h</text>
</a>
</g>
</g>
<!-- Node21&#45;&gt;Node28 -->
<g id="edge50" class="edge">
<title>Node21&#45;&gt;Node28</title>
<path fill="none" stroke="#63b8ff" d="M1176.71,-544.31C1228.78,-537.44 1299.16,-525.01 1320,-506.25 1346.15,-482.71 1345,-466.31 1345,-431.12 1345,-431.12 1345,-431.12 1345,-373.88 1345,-336.4 1364.07,-295.53 1375.54,-274.34"/>
<polygon fill="#63b8ff" stroke="#63b8ff" points="1176.38,-540.96 1166.9,-545.7 1177.26,-547.9 1176.38,-540.96"/>
</g>
<!-- Node29 -->
<g id="node29" class="node">
<title>Node29</title>
<g id="a_node29"><a xlink:href="v8-promise_8h.html" target="_top" xlink:title=" ">
<polygon fill="white" stroke="#666666" points="1169.62,-500.62 1064.38,-500.62 1064.38,-481.38 1169.62,-481.38 1169.62,-500.62"/>
<text text-anchor="middle" x="1117" y="-487.12" font-family="Helvetica,sans-Serif" font-size="10.00">include/v8&#45;promise.h</text>
</a>
</g>
</g>
<!-- Node21&#45;&gt;Node29 -->
<g id="edge52" class="edge">
<title>Node21&#45;&gt;Node29</title>
<path fill="none" stroke="#63b8ff" d="M1117,-531.12C1117,-520.93 1117,-509.01 1117,-501.03"/>
<polygon fill="#63b8ff" stroke="#63b8ff" points="1113.5,-530.93 1117,-540.93 1120.5,-530.93 1113.5,-530.93"/>
</g>
<!-- Node32 -->
<g id="node32" class="node">
<title>Node32</title>
<g id="a_node32"><a xlink:href="v8-regexp_8h.html" target="_top" xlink:title=" ">
<polygon fill="white" stroke="#666666" points="1471.62,-74.5 1372.38,-74.5 1372.38,-55.25 1471.62,-55.25 1471.62,-74.5"/>
<text text-anchor="middle" x="1422" y="-61" font-family="Helvetica,sans-Serif" font-size="10.00">include/v8&#45;regexp.h</text>
</a>
</g>
</g>
<!-- Node21&#45;&gt;Node32 -->
<g id="edge62" class="edge">
<title>Node21&#45;&gt;Node32</title>
<path fill="none" stroke="#63b8ff" d="M1176.46,-545.49C1234.87,-539.12 1318.78,-526.7 1344,-506.25 1396.9,-463.36 1377.28,-427.9 1404,-365.25 1421.3,-324.68 1434.15,-317.21 1443,-274 1445.72,-260.72 1443.8,-257.03 1443,-243.5 1439.17,-178.4 1427.49,-100.58 1423.42,-74.71"/>
<polygon fill="#63b8ff" stroke="#63b8ff" points="1176.45,-542.08 1166.87,-546.61 1177.18,-549.04 1176.45,-542.08"/>
</g>
<!-- Node33 -->
<g id="node33" class="node">
<title>Node33</title>
<g id="a_node33"><a xlink:href="v8-wasm_8h.html" target="_top" xlink:title=" ">
<polygon fill="white" stroke="#666666" points="1509.5,-384.5 1412.5,-384.5 1412.5,-365.25 1509.5,-365.25 1509.5,-384.5"/>
<text text-anchor="middle" x="1461" y="-371" font-family="Helvetica,sans-Serif" font-size="10.00">include/v8&#45;wasm.h</text>
</a>
</g>
</g>
<!-- Node21&#45;&gt;Node33 -->
<g id="edge65" class="edge">
<title>Node21&#45;&gt;Node33</title>
<path fill="none" stroke="#63b8ff" d="M1176.69,-547.81C1248.56,-543.04 1363.87,-531.61 1398,-506.25 1439.77,-475.21 1455.18,-409.13 1459.55,-384.96"/>
<polygon fill="#63b8ff" stroke="#63b8ff" points="1176.74,-544.37 1166.98,-548.49 1177.19,-551.35 1176.74,-544.37"/>
</g>
<!-- Node22&#45;&gt;Node3 -->
<g id="edge40" class="edge">
<title>Node22&#45;&gt;Node3</title>
<path fill="none" stroke="#63b8ff" d="M1654.46,-304.34C1667.62,-296.79 1682.49,-286.48 1693,-274 1718.18,-244.07 1728,-232.37 1728,-193.25 1728,-193.25 1728,-193.25 1728,-124.75 1728,-53.69 1652.69,-73.48 1584,-55.25 1467.15,-24.24 1089.84,-13.8 974.09,-11.29"/>
<polygon fill="#63b8ff" stroke="#63b8ff" points="1652.95,-301.72 1645.83,-309.57 1656.29,-307.87 1652.95,-301.72"/>
</g>
<!-- Node22&#45;&gt;Node6 -->
<g id="edge36" class="edge">
<title>Node22&#45;&gt;Node6</title>
<path fill="none" stroke="#63b8ff" d="M1554.42,-313.24C1400.4,-301.47 1037.29,-273.75 904.1,-263.58"/>
<polygon fill="#63b8ff" stroke="#63b8ff" points="1553.9,-316.78 1564.14,-314.05 1554.44,-309.8 1553.9,-316.78"/>
</g>
<!-- Node23 -->
<g id="node23" class="node">
<title>Node23</title>
<g id="a_node23"><a xlink:href="v8-typed-array_8h.html" target="_top" xlink:title=" ">
<polygon fill="white" stroke="#666666" points="1684,-268.38 1566,-268.38 1566,-249.12 1684,-249.12 1684,-268.38"/>
<text text-anchor="middle" x="1625" y="-254.88" font-family="Helvetica,sans-Serif" font-size="10.00">include/v8&#45;typed&#45;array.h</text>
</a>
</g>
</g>
<!-- Node22&#45;&gt;Node23 -->
<g id="edge37" class="edge">
<title>Node22&#45;&gt;Node23</title>
<path fill="none" stroke="#63b8ff" d="M1625,-298.87C1625,-288.68 1625,-276.76 1625,-268.78"/>
<polygon fill="#63b8ff" stroke="#63b8ff" points="1621.5,-298.68 1625,-308.68 1628.5,-298.68 1621.5,-298.68"/>
</g>
<!-- Node23&#45;&gt;Node3 -->
<g id="edge39" class="edge">
<title>Node23&#45;&gt;Node3</title>
<path fill="none" stroke="#63b8ff" d="M1645.27,-241.96C1655.05,-233.03 1665.76,-220.97 1671,-207.5 1675.91,-194.86 1676.12,-189.55 1671,-177 1642.44,-106.93 1620.62,-87.12 1552,-55.25 1499.52,-30.88 1095.36,-15.73 974.21,-11.71"/>
<polygon fill="#63b8ff" stroke="#63b8ff" points="1643.41,-239.8 1638.09,-248.95 1647.96,-245.12 1643.41,-239.8"/>
</g>
<!-- Node24 -->
<g id="node24" class="node">
<title>Node24</title>
<g id="a_node24"><a xlink:href="v8-fast-api-calls_8h.html" target="_top" xlink:title=" ">
<polygon fill="white" stroke="#666666" points="1661.75,-207.5 1566.25,-207.5 1566.25,-177 1661.75,-177 1661.75,-207.5"/>
<text text-anchor="start" x="1574.25" y="-194" font-family="Helvetica,sans-Serif" font-size="10.00">include/v8&#45;fast&#45;api</text>
<text text-anchor="middle" x="1614" y="-182.75" font-family="Helvetica,sans-Serif" font-size="10.00">&#45;calls.h</text>
</a>
</g>
</g>
<!-- Node23&#45;&gt;Node24 -->
<g id="edge38" class="edge">
<title>Node23&#45;&gt;Node24</title>
<path fill="none" stroke="#63b8ff" d="M1621.63,-238.02C1619.96,-228.2 1617.97,-216.55 1616.45,-207.59"/>
<polygon fill="#63b8ff" stroke="#63b8ff" points="1618.34,-238.51 1623.47,-247.78 1625.24,-237.34 1618.34,-238.51"/>
</g>
<!-- Node25&#45;&gt;Node3 -->
<g id="edge42" class="edge">
<title>Node25&#45;&gt;Node3</title>
<path fill="none" stroke="#63b8ff" d="M355.7,-107.25C367.86,-90.67 388.53,-66.67 413,-55.25 500.99,-14.18 803.3,-10.51 905.74,-10.48"/>
<polygon fill="#63b8ff" stroke="#63b8ff" points="352.44,-104.8 349.56,-115 358.17,-108.83 352.44,-104.8"/>
</g>
<!-- Node26&#45;&gt;Node3 -->
<g id="edge44" class="edge">
<title>Node26&#45;&gt;Node3</title>
<path fill="none" stroke="#63b8ff" d="M491.29,-299.82C480.92,-275.68 465,-232.27 465,-193.25 465,-193.25 465,-193.25 465,-124.75 465,-89.11 475.1,-74.64 505,-55.25 571,-12.44 815.24,-9.7 905.86,-10.21"/>
<polygon fill="#63b8ff" stroke="#63b8ff" points="488.44,-301.03 495.71,-308.74 494.83,-298.18 488.44,-301.03"/>
</g>
<!-- Node27&#45;&gt;Node3 -->
<g id="edge48" class="edge">
<title>Node27&#45;&gt;Node3</title>
<path fill="none" stroke="#63b8ff" d="M761.8,-471.22C746.44,-437.17 711.05,-363.76 669,-310 621.92,-249.8 522.71,-243.71 560,-177 630.99,-50.02 826.54,-19.84 905.88,-12.76"/>
<polygon fill="#63b8ff" stroke="#63b8ff" points="758.96,-472.46 766.22,-480.18 765.36,-469.62 758.96,-472.46"/>
</g>
<!-- Node27&#45;&gt;Node6 -->
<g id="edge46" class="edge">
<title>Node27&#45;&gt;Node6</title>
<path fill="none" stroke="#63b8ff" d="M776.99,-470.85C794.28,-423.44 838.57,-302.04 850.82,-268.47"/>
<polygon fill="#63b8ff" stroke="#63b8ff" points="773.43,-469.38 773.29,-479.97 780.01,-471.78 773.43,-469.38"/>
</g>
<!-- Node27&#45;&gt;Node15 -->
<g id="edge47" class="edge">
<title>Node27&#45;&gt;Node15</title>
<path fill="none" stroke="#63b8ff" d="M722.11,-478.35C676.07,-467.15 607.44,-450.45 565.32,-440.21"/>
<polygon fill="#63b8ff" stroke="#63b8ff" points="721.17,-481.97 731.72,-480.93 722.83,-475.17 721.17,-481.97"/>
</g>
<!-- Node28&#45;&gt;Node3 -->
<g id="edge51" class="edge">
<title>Node28&#45;&gt;Node3</title>
<path fill="none" stroke="#63b8ff" d="M1382.96,-232.23C1379.67,-188.36 1366.18,-99.17 1311,-55.25 1259.42,-14.19 1055.88,-10.2 974.19,-10.3"/>
<polygon fill="#63b8ff" stroke="#63b8ff" points="1379.52,-232.31 1383.63,-242.08 1386.5,-231.88 1379.52,-232.31"/>
</g>
<!-- Node29&#45;&gt;Node3 -->
<g id="edge60" class="edge">
<title>Node29&#45;&gt;Node3</title>
<path fill="none" stroke="#63b8ff" d="M1160.85,-477.48C1205.43,-461.75 1268,-430.03 1268,-375.88 1268,-375.88 1268,-375.88 1268,-318.62 1268,-192.11 1274.4,-109.28 1160,-55.25 1098.51,-26.21 1018.63,-16.02 974,-12.48"/>
<polygon fill="#63b8ff" stroke="#63b8ff" points="1159.87,-474.45 1151.51,-480.96 1162.11,-481.09 1159.87,-474.45"/>
</g>
<!-- Node30 -->
<g id="node30" class="node">
<title>Node30</title>
<g id="a_node30"><a xlink:href="v8-callbacks_8h.html" target="_top" xlink:title=" ">
<polygon fill="white" stroke="#666666" points="1071,-439.75 959,-439.75 959,-420.5 1071,-420.5 1071,-439.75"/>
<text text-anchor="middle" x="1015" y="-426.25" font-family="Helvetica,sans-Serif" font-size="10.00">include/v8&#45;callbacks.h</text>
</a>
</g>
</g>
<!-- Node29&#45;&gt;Node30 -->
<g id="edge53" class="edge">
<title>Node29&#45;&gt;Node30</title>
<path fill="none" stroke="#63b8ff" d="M1092.18,-475.67C1072.99,-464.6 1047.02,-449.61 1030.64,-440.15"/>
<polygon fill="#63b8ff" stroke="#63b8ff" points="1090.1,-479.09 1100.51,-481.06 1093.6,-473.03 1090.1,-479.09"/>
</g>
<!-- Node31 -->
<g id="node31" class="node">
<title>Node31</title>
<g id="a_node31"><a xlink:href="v8-statistics_8h.html" target="_top" xlink:title=" ">
<polygon fill="white" stroke="#666666" points="1172.25,-329.25 1061.75,-329.25 1061.75,-310 1172.25,-310 1172.25,-329.25"/>
<text text-anchor="middle" x="1117" y="-315.75" font-family="Helvetica,sans-Serif" font-size="10.00">include/v8&#45;statistics.h</text>
</a>
</g>
</g>
<!-- Node29&#45;&gt;Node31 -->
<g id="edge57" class="edge">
<title>Node29&#45;&gt;Node31</title>
<path fill="none" stroke="#63b8ff" d="M1117,-470.06C1117,-433.12 1117,-355.44 1117,-329.37"/>
<polygon fill="#63b8ff" stroke="#63b8ff" points="1113.5,-469.89 1117,-479.89 1120.5,-469.89 1113.5,-469.89"/>
</g>
<!-- Node30&#45;&gt;Node6 -->
<g id="edge55" class="edge">
<title>Node30&#45;&gt;Node6</title>
<path fill="none" stroke="#63b8ff" d="M999.14,-412.44C965.48,-377.03 887.85,-295.36 862.31,-268.49"/>
<polygon fill="#63b8ff" stroke="#63b8ff" points="995.92,-414.18 1005.34,-419.02 1000.99,-409.36 995.92,-414.18"/>
</g>
<!-- Node30&#45;&gt;Node8 -->
<g id="edge54" class="edge">
<title>Node30&#45;&gt;Node8</title>
<path fill="none" stroke="#63b8ff" d="M1018.31,-409.34C1023.09,-384.67 1033.57,-341.87 1053,-310 1081.99,-262.47 1134.23,-219.93 1157.84,-202.11"/>
<polygon fill="#63b8ff" stroke="#63b8ff" points="1014.69,-408.69 1016.36,-419.15 1021.58,-409.93 1014.69,-408.69"/>
</g>
<!-- Node30&#45;&gt;Node19 -->
<g id="edge56" class="edge">
<title>Node30&#45;&gt;Node19</title>
<path fill="none" stroke="#63b8ff" d="M947.93,-420.28C866.32,-409.53 730.57,-391.63 658.82,-382.18"/>
<polygon fill="#63b8ff" stroke="#63b8ff" points="947.45,-423.88 957.83,-421.72 948.37,-416.94 947.45,-423.88"/>
</g>
<!-- Node31&#45;&gt;Node3 -->
<g id="edge59" class="edge">
<title>Node31&#45;&gt;Node3</title>
<path fill="none" stroke="#63b8ff" d="M1145.95,-304.51C1188.68,-281.53 1261.37,-232.9 1240,-177 1214.07,-109.16 1193.48,-92.28 1131,-55.25 1081.49,-25.91 1014.11,-15.86 974.03,-12.42"/>
<polygon fill="#63b8ff" stroke="#63b8ff" points="1144.57,-301.81 1137.32,-309.54 1147.81,-308.02 1144.57,-301.81"/>
</g>
<!-- Node31&#45;&gt;Node6 -->
<g id="edge58" class="edge">
<title>Node31&#45;&gt;Node6</title>
<path fill="none" stroke="#63b8ff" d="M1065.9,-307.19C1015.86,-295.98 940.63,-279.14 894.56,-268.83"/>
<polygon fill="#63b8ff" stroke="#63b8ff" points="1064.96,-310.79 1075.48,-309.55 1066.49,-303.95 1064.96,-310.79"/>
</g>
<!-- Node32&#45;&gt;Node3 -->
<g id="edge63" class="edge">
<title>Node32&#45;&gt;Node3</title>
<path fill="none" stroke="#63b8ff" d="M1361.45,-55.67C1360.29,-55.53 1359.14,-55.39 1358,-55.25 1215.62,-38.06 1045.54,-20.97 974.17,-13.95"/>
<polygon fill="#63b8ff" stroke="#63b8ff" points="1360.7,-59.23 1371.06,-57.01 1361.57,-52.28 1360.7,-59.23"/>
</g>
<!-- Node33&#45;&gt;Node3 -->
<g id="edge66" class="edge">
<title>Node33&#45;&gt;Node3</title>
<path fill="none" stroke="#63b8ff" d="M1471.57,-355.33C1483.12,-333.28 1500,-295.02 1500,-259.75 1500,-259.75 1500,-259.75 1500,-124.75 1500,-92.73 1505.63,-75.71 1481,-55.25 1442.03,-22.88 1086.93,-13.41 974.19,-11.2"/>
<polygon fill="#63b8ff" stroke="#63b8ff" points="1468.14,-353.31 1466.42,-363.77 1474.28,-356.66 1468.14,-353.31"/>
</g>
</g>
</svg>
