<?xml version="1.0" encoding="UTF-8" standalone="no"?>
<!DOCTYPE svg PUBLIC "-//W3C//DTD SVG 1.1//EN"
 "http://www.w3.org/Graphics/SVG/1.1/DTD/svg11.dtd">
<!-- Generated by graphviz version 8.0.5 (20230430.1635)
 -->
<!-- Title: v8::internal::ValueHelper::ValueAsAddress Pages: 1 -->
<svg width="312pt" height="413pt"
 viewBox="0.00 0.00 312.25 412.88" xmlns="http://www.w3.org/2000/svg" xmlns:xlink="http://www.w3.org/1999/xlink">
<g id="graph0" class="graph" transform="scale(1 1) rotate(0) translate(4 408.88)">
<title>v8::internal::ValueHelper::ValueAsAddress</title>
<!-- Node1 -->
<g id="node1" class="node">
<title>Node1</title>
<g id="a_node1"><a xlink:title=" ">
<polygon fill="#999999" stroke="#666666" points="304.25,-202.88 184,-202.88 184,-172.38 304.25,-172.38 304.25,-202.88"/>
<text text-anchor="start" x="192" y="-189.38" font-family="Helvetica,sans-Serif" font-size="10.00">v8::internal::ValueHelper</text>
<text text-anchor="middle" x="244.12" y="-178.12" font-family="Helvetica,sans-Serif" font-size="10.00">::ValueAsAddress</text>
</a>
</g>
</g>
<!-- Node2 -->
<g id="node2" class="node">
<title>Node2</title>
<g id="a_node2"><a xlink:href="classv8_1_1SnapshotCreator.html#a0bc97ea7ead4892f2dfa64fef20454d9" target="_top" xlink:title=" ">
<polygon fill="white" stroke="#666666" points="125.88,-386.88 22.12,-386.88 22.12,-356.38 125.88,-356.38 125.88,-386.88"/>
<text text-anchor="start" x="30.12" y="-373.38" font-family="Helvetica,sans-Serif" font-size="10.00">v8::SnapshotCreator</text>
<text text-anchor="middle" x="74" y="-362.12" font-family="Helvetica,sans-Serif" font-size="10.00">::AddData</text>
</a>
</g>
</g>
<!-- Node1&#45;&gt;Node2 -->
<g id="edge1" class="edge">
<title>Node1&#45;&gt;Node2</title>
<path fill="none" stroke="#63b8ff" d="M234.32,-213.1C220.98,-248.06 192.4,-310.66 148,-346.62 141.55,-351.85 133.94,-356.01 126.11,-359.32"/>
<polygon fill="#63b8ff" stroke="#63b8ff" points="237.8,-214.79 237.97,-204.19 231.23,-212.37 237.8,-214.79"/>
</g>
<!-- Node3 -->
<g id="node3" class="node">
<title>Node3</title>
<g id="a_node3"><a xlink:href="classv8_1_1Context.html#aa3b5c1a1a5d145c6096840898013f559" target="_top" xlink:title=" ">
<polygon fill="white" stroke="#666666" points="147.62,-337.88 0.38,-337.88 0.38,-307.38 147.62,-307.38 147.62,-337.88"/>
<text text-anchor="start" x="8.38" y="-324.38" font-family="Helvetica,sans-Serif" font-size="10.00">v8::Context::GetAlignedPointer</text>
<text text-anchor="middle" x="74" y="-313.12" font-family="Helvetica,sans-Serif" font-size="10.00">FromEmbedderData</text>
</a>
</g>
</g>
<!-- Node1&#45;&gt;Node3 -->
<g id="edge3" class="edge">
<title>Node1&#45;&gt;Node3</title>
<path fill="none" stroke="#63b8ff" d="M227.64,-212.17C210.83,-236.98 181.8,-274.8 148,-297.62 142.78,-301.15 137.02,-304.22 131.09,-306.89"/>
<polygon fill="#63b8ff" stroke="#63b8ff" points="231.08,-214.32 233.67,-204.05 225.24,-210.46 231.08,-214.32"/>
</g>
<!-- Node4 -->
<g id="node4" class="node">
<title>Node4</title>
<g id="a_node4"><a xlink:href="classv8_1_1Object.html#a435f68bb7ef0f64dd522c5c910682448" target="_top" xlink:title=" ">
<polygon fill="white" stroke="#666666" points="145.38,-288.88 2.62,-288.88 2.62,-258.38 145.38,-258.38 145.38,-288.88"/>
<text text-anchor="start" x="10.62" y="-275.38" font-family="Helvetica,sans-Serif" font-size="10.00">v8::Object::GetAlignedPointer</text>
<text text-anchor="middle" x="74" y="-264.12" font-family="Helvetica,sans-Serif" font-size="10.00">FromInternalField</text>
</a>
</g>
</g>
<!-- Node1&#45;&gt;Node4 -->
<g id="edge4" class="edge">
<title>Node1&#45;&gt;Node4</title>
<path fill="none" stroke="#63b8ff" d="M214.09,-209.4C195.82,-222.36 171.37,-238.41 148,-249.62 141.75,-252.63 135.02,-255.4 128.27,-257.91"/>
<polygon fill="#63b8ff" stroke="#63b8ff" points="215.46,-212 221.52,-203.32 211.36,-206.32 215.46,-212"/>
</g>
<!-- Node5 -->
<g id="node5" class="node">
<title>Node5</title>
<g id="a_node5"><a xlink:href="classv8_1_1Context.html#a9cfafe0ac56f6aee17eb80a913489296" target="_top" xlink:title=" ">
<polygon fill="white" stroke="#666666" points="148,-240.25 0,-240.25 0,-221 148,-221 148,-240.25"/>
<text text-anchor="middle" x="74" y="-226.75" font-family="Helvetica,sans-Serif" font-size="10.00">v8::Context::GetEmbedderData</text>
</a>
</g>
</g>
<!-- Node1&#45;&gt;Node5 -->
<g id="edge5" class="edge">
<title>Node1&#45;&gt;Node5</title>
<path fill="none" stroke="#63b8ff" d="M173.47,-205.44C153.36,-210.58 132.13,-216.01 114.54,-220.51"/>
<polygon fill="#63b8ff" stroke="#63b8ff" points="174.03,-208.65 182.85,-202.79 172.29,-201.87 174.03,-208.65"/>
</g>
<!-- Node6 -->
<g id="node6" class="node">
<title>Node6</title>
<g id="a_node6"><a xlink:href="classv8_1_1String.html#ac751c8c239eb213a879204cab6787883" target="_top" xlink:title=" ">
<polygon fill="white" stroke="#666666" points="142.38,-202.88 5.62,-202.88 5.62,-172.38 142.38,-172.38 142.38,-202.88"/>
<text text-anchor="start" x="13.62" y="-189.38" font-family="Helvetica,sans-Serif" font-size="10.00">v8::String::GetExternalString</text>
<text text-anchor="middle" x="74" y="-178.12" font-family="Helvetica,sans-Serif" font-size="10.00">Resource</text>
</a>
</g>
</g>
<!-- Node1&#45;&gt;Node6 -->
<g id="edge6" class="edge">
<title>Node1&#45;&gt;Node6</title>
<path fill="none" stroke="#63b8ff" d="M173.06,-187.62C163,-187.62 152.65,-187.62 142.63,-187.62"/>
<polygon fill="#63b8ff" stroke="#63b8ff" points="172.85,-191.13 182.85,-187.62 172.85,-184.13 172.85,-191.13"/>
</g>
<!-- Node7 -->
<g id="node7" class="node">
<title>Node7</title>
<g id="a_node7"><a xlink:href="classv8_1_1String.html#a3031c6406f3f84bbc2d9810477a07489" target="_top" xlink:title=" ">
<polygon fill="white" stroke="#666666" points="142.38,-153.88 5.62,-153.88 5.62,-123.38 142.38,-123.38 142.38,-153.88"/>
<text text-anchor="start" x="13.62" y="-140.38" font-family="Helvetica,sans-Serif" font-size="10.00">v8::String::GetExternalString</text>
<text text-anchor="middle" x="74" y="-129.12" font-family="Helvetica,sans-Serif" font-size="10.00">ResourceBase</text>
</a>
</g>
</g>
<!-- Node1&#45;&gt;Node7 -->
<g id="edge7" class="edge">
<title>Node1&#45;&gt;Node7</title>
<path fill="none" stroke="#63b8ff" d="M179.31,-169.03C162.73,-164.19 145.03,-159.04 129.01,-154.37"/>
<polygon fill="#63b8ff" stroke="#63b8ff" points="177.89,-172.55 188.47,-171.99 179.85,-165.83 177.89,-172.55"/>
</g>
<!-- Node8 -->
<g id="node8" class="node">
<title>Node8</title>
<g id="a_node8"><a xlink:href="classv8_1_1Object.html#aa369f735e99f0741d8f36b77244d2ce3" target="_top" xlink:title=" ">
<polygon fill="white" stroke="#666666" points="140.5,-105.25 7.5,-105.25 7.5,-86 140.5,-86 140.5,-105.25"/>
<text text-anchor="middle" x="74" y="-91.75" font-family="Helvetica,sans-Serif" font-size="10.00">v8::Object::GetInternalField</text>
</a>
</g>
</g>
<!-- Node1&#45;&gt;Node8 -->
<g id="edge8" class="edge">
<title>Node1&#45;&gt;Node8</title>
<path fill="none" stroke="#63b8ff" d="M219.22,-164.89C201,-148.71 174.6,-127.62 148,-114.62 140.71,-111.06 132.66,-108.11 124.66,-105.68"/>
<polygon fill="#63b8ff" stroke="#63b8ff" points="216.22,-166.8 225.98,-170.93 220.93,-161.62 216.22,-166.8"/>
</g>
<!-- Node9 -->
<g id="node9" class="node">
<title>Node9</title>
<g id="a_node9"><a xlink:href="classv8_1_1TypecheckWitness.html#aea4382d0b2380ff1ad44f2088bd8790b" target="_top" xlink:title=" ">
<polygon fill="white" stroke="#666666" points="130.75,-67.88 17.25,-67.88 17.25,-37.38 130.75,-37.38 130.75,-67.88"/>
<text text-anchor="start" x="25.25" y="-54.38" font-family="Helvetica,sans-Serif" font-size="10.00">v8::TypecheckWitness</text>
<text text-anchor="middle" x="74" y="-43.12" font-family="Helvetica,sans-Serif" font-size="10.00">::Matches</text>
</a>
</g>
</g>
<!-- Node1&#45;&gt;Node9 -->
<g id="edge9" class="edge">
<title>Node1&#45;&gt;Node9</title>
<path fill="none" stroke="#63b8ff" d="M227.97,-163.09C211.28,-138 182.22,-99.54 148,-76.62 142.79,-73.14 137.03,-70.12 131.1,-67.52"/>
<polygon fill="#63b8ff" stroke="#63b8ff" points="225.37,-164.51 233.75,-171 231.24,-160.7 225.37,-164.51"/>
</g>
<!-- Node10 -->
<g id="node10" class="node">
<title>Node10</title>
<g id="a_node10"><a xlink:href="classv8_1_1LocalBase.html#a31a9bd49b7938c5ee451b24a048a06fc" target="_top" xlink:title=" ">
<polygon fill="white" stroke="#666666" points="125.12,-19.25 22.88,-19.25 22.88,0 125.12,0 125.12,-19.25"/>
<text text-anchor="middle" x="74" y="-5.75" font-family="Helvetica,sans-Serif" font-size="10.00">v8::LocalBase::New</text>
</a>
</g>
</g>
<!-- Node1&#45;&gt;Node10 -->
<g id="edge10" class="edge">
<title>Node1&#45;&gt;Node10</title>
<path fill="none" stroke="#63b8ff" d="M234.89,-162.22C222.08,-126.8 193.96,-63.07 148,-28.62 141.29,-23.6 133.38,-19.9 125.28,-17.17"/>
<polygon fill="#63b8ff" stroke="#63b8ff" points="231.78,-162.94 238.38,-171.24 238.39,-160.64 231.78,-162.94"/>
</g>
<!-- Node2&#45;&gt;Node2 -->
<g id="edge2" class="edge">
<title>Node2&#45;&gt;Node2</title>
<path fill="none" stroke="#63b8ff" d="M102.92,-398.25C98.4,-402.2 88.77,-404.88 74,-404.88 47.75,-404.88 37.7,-396.43 43.85,-387.36"/>
<polygon fill="#63b8ff" stroke="#63b8ff" points="106.5,-398.69 104.15,-388.36 99.55,-397.91 106.5,-398.69"/>
</g>
</g>
</svg>
