<?xml version="1.0" encoding="UTF-8" standalone="no"?>
<!DOCTYPE svg PUBLIC "-//W3C//DTD SVG 1.1//EN"
 "http://www.w3.org/Graphics/SVG/1.1/DTD/svg11.dtd">
<!-- Generated by graphviz version 8.0.5 (20230430.1635)
 -->
<!-- Title: v8::Platform::CallLowPriorityTaskOnWorkerThread Pages: 1 -->
<svg width="612pt" height="60pt"
 viewBox="0.00 0.00 612.00 59.50" xmlns="http://www.w3.org/2000/svg" xmlns:xlink="http://www.w3.org/1999/xlink">
<g id="graph0" class="graph" transform="scale(1 1) rotate(0) translate(4 55.5)">
<title>v8::Platform::CallLowPriorityTaskOnWorkerThread</title>
<!-- Node1 -->
<g id="node1" class="node">
<title>Node1</title>
<g id="a_node1"><a xlink:title=" ">
<polygon fill="#999999" stroke="#666666" points="137.5,-51.5 0,-51.5 0,-21 137.5,-21 137.5,-51.5"/>
<text text-anchor="start" x="8" y="-38" font-family="Helvetica,sans-Serif" font-size="10.00">v8::Platform::CallLowPriority</text>
<text text-anchor="middle" x="68.75" y="-26.75" font-family="Helvetica,sans-Serif" font-size="10.00">TaskOnWorkerThread</text>
</a>
</g>
</g>
<!-- Node2 -->
<g id="node2" class="node">
<title>Node2</title>
<g id="a_node2"><a xlink:href="classv8_1_1SourceLocation.html#aae8d4f3be838d1f855c7013b3a053d87" target="_top" xlink:title=" ">
<polygon fill="white" stroke="#666666" points="604,-51.5 504.75,-51.5 504.75,-21 604,-21 604,-51.5"/>
<text text-anchor="start" x="512.75" y="-38" font-family="Helvetica,sans-Serif" font-size="10.00">v8::SourceLocation</text>
<text text-anchor="middle" x="554.38" y="-26.75" font-family="Helvetica,sans-Serif" font-size="10.00">::Current</text>
</a>
</g>
</g>
<!-- Node1&#45;&gt;Node2 -->
<g id="edge1" class="edge">
<title>Node1&#45;&gt;Node2</title>
<path fill="none" stroke="#63b8ff" d="M137.83,-38.5C149.72,-38.81 161.97,-39.08 173.5,-39.25 304.71,-41.15 337.55,-41.57 468.75,-39.25 476.82,-39.11 485.33,-38.89 493.71,-38.63"/>
<polygon fill="#63b8ff" stroke="#63b8ff" points="493.73,-42.1 503.61,-38.27 493.5,-35.1 493.73,-42.1"/>
</g>
<!-- Node3 -->
<g id="node3" class="node">
<title>Node3</title>
<g id="a_node3"><a xlink:href="classv8_1_1Platform.html#ab4aedaa0f6d9258f1abab9b2ef53107e" target="_top" xlink:title=" ">
<polygon fill="white" stroke="#666666" points="300.5,-30.5 173.5,-30.5 173.5,0 300.5,0 300.5,-30.5"/>
<text text-anchor="start" x="181.5" y="-17" font-family="Helvetica,sans-Serif" font-size="10.00">v8::Platform::PostTaskOn</text>
<text text-anchor="middle" x="237" y="-5.75" font-family="Helvetica,sans-Serif" font-size="10.00">WorkerThreadImpl</text>
</a>
</g>
</g>
<!-- Node1&#45;&gt;Node3 -->
<g id="edge2" class="edge">
<title>Node1&#45;&gt;Node3</title>
<path fill="none" stroke="#63b8ff" d="M137.85,-27.65C145.96,-26.62 154.26,-25.58 162.44,-24.54"/>
<polygon fill="#63b8ff" stroke="#63b8ff" points="162.6,-27.92 172.09,-23.2 161.73,-20.98 162.6,-27.92"/>
</g>
<!-- Node4 -->
<g id="node4" class="node">
<title>Node4</title>
<g id="a_node4"><a xlink:href="classv8_1_1Platform.html#aa3a39256a37f9fd16594e6af72417abd" target="_top" xlink:title=" ">
<polygon fill="white" stroke="#666666" points="468.75,-30.5 336.5,-30.5 336.5,0 468.75,0 468.75,-30.5"/>
<text text-anchor="start" x="344.5" y="-17" font-family="Helvetica,sans-Serif" font-size="10.00">v8::Platform::CallOnWorker</text>
<text text-anchor="middle" x="402.62" y="-5.75" font-family="Helvetica,sans-Serif" font-size="10.00">Thread</text>
</a>
</g>
</g>
<!-- Node3&#45;&gt;Node4 -->
<g id="edge3" class="edge">
<title>Node3&#45;&gt;Node4</title>
<path fill="none" stroke="#63b8ff" d="M300.79,-8.66C308.72,-8.53 316.91,-8.47 325.02,-8.51"/>
<polygon fill="#63b8ff" stroke="#63b8ff" points="324.98,-12.02 335.02,-8.62 325.05,-5.02 324.98,-12.02"/>
</g>
<!-- Node4&#45;&gt;Node2 -->
<g id="edge4" class="edge">
<title>Node4&#45;&gt;Node2</title>
<path fill="none" stroke="#63b8ff" d="M468.87,-24.4C477.2,-25.57 485.69,-26.76 493.93,-27.91"/>
<polygon fill="#63b8ff" stroke="#63b8ff" points="493.17,-31.48 503.56,-29.4 494.14,-24.55 493.17,-31.48"/>
</g>
<!-- Node4&#45;&gt;Node3 -->
<g id="edge5" class="edge">
<title>Node4&#45;&gt;Node3</title>
<path fill="none" stroke="#63b8ff" d="M336.02,-21.88C328.03,-22 319.83,-22.03 311.73,-21.97"/>
<polygon fill="#63b8ff" stroke="#63b8ff" points="311.84,-18.46 301.79,-21.84 311.75,-25.46 311.84,-18.46"/>
</g>
</g>
</svg>
