<?xml version="1.0" encoding="UTF-8" standalone="no"?>
<!DOCTYPE svg PUBLIC "-//W3C//DTD SVG 1.1//EN"
 "http://www.w3.org/Graphics/SVG/1.1/DTD/svg11.dtd">
<!-- Generated by graphviz version 8.0.5 (20230430.1635)
 -->
<!-- Title: include/v8&#45;isolate.h Pages: 1 -->
<svg width="2554pt" height="690pt"
 viewBox="0.00 0.00 2554.00 690.25" xmlns="http://www.w3.org/2000/svg" xmlns:xlink="http://www.w3.org/1999/xlink">
<g id="graph0" class="graph" transform="scale(1 1) rotate(0) translate(4 686.25)">
<title>include/v8&#45;isolate.h</title>
<!-- Node1 -->
<g id="node1" class="node">
<title>Node1</title>
<g id="a_node1"><a xlink:title=" ">
<polygon fill="#999999" stroke="#666666" points="1747.62,-682.25 1648.38,-682.25 1648.38,-663 1747.62,-663 1747.62,-682.25"/>
<text text-anchor="middle" x="1698" y="-668.75" font-family="Helvetica,sans-Serif" font-size="10.00">include/v8&#45;isolate.h</text>
</a>
</g>
</g>
<!-- Node2 -->
<g id="node2" class="node">
<title>Node2</title>
<g id="a_node2"><a xlink:title=" ">
<polygon fill="#e0e0e0" stroke="#999999" points="253.25,-19.25 202.75,-19.25 202.75,0 253.25,0 253.25,-19.25"/>
<text text-anchor="middle" x="228" y="-5.75" font-family="Helvetica,sans-Serif" font-size="10.00">stddef.h</text>
</a>
</g>
</g>
<!-- Node1&#45;&gt;Node2 -->
<g id="edge1" class="edge">
<title>Node1&#45;&gt;Node2</title>
<path fill="none" stroke="#63b8ff" d="M1648.29,-671.37C1381.83,-669.85 131.98,-660.96 58,-627 23.15,-611 0,-601.47 0,-563.12 0,-563.12 0,-563.12 0,-119.12 0,-35.38 126.96,-16.2 191.4,-11.86"/>
<polygon fill="#63b8ff" stroke="#63b8ff" points="191.51,-15.3 201.29,-11.23 191.1,-8.32 191.51,-15.3"/>
</g>
<!-- Node3 -->
<g id="node3" class="node">
<title>Node3</title>
<g id="a_node3"><a xlink:title=" ">
<polygon fill="#e0e0e0" stroke="#999999" points="2379.75,-19.25 2332.25,-19.25 2332.25,0 2379.75,0 2379.75,-19.25"/>
<text text-anchor="middle" x="2356" y="-5.75" font-family="Helvetica,sans-Serif" font-size="10.00">stdint.h</text>
</a>
</g>
</g>
<!-- Node1&#45;&gt;Node3 -->
<g id="edge2" class="edge">
<title>Node1&#45;&gt;Node3</title>
<path fill="none" stroke="#63b8ff" d="M1747.98,-671.64C1914.78,-671.32 2445.44,-667.14 2510,-627 2537.67,-609.79 2546,-595.71 2546,-563.12 2546,-563.12 2546,-563.12 2546,-119.12 2546,-48.41 2445.51,-23.16 2390.7,-14.65"/>
<polygon fill="#63b8ff" stroke="#63b8ff" points="2391.46,-11.08 2381.06,-13.12 2390.46,-18.01 2391.46,-11.08"/>
</g>
<!-- Node4 -->
<g id="node4" class="node">
<title>Node4</title>
<g id="a_node4"><a xlink:title=" ">
<polygon fill="#e0e0e0" stroke="#999999" points="2240.25,-185 2189.75,-185 2189.75,-165.75 2240.25,-165.75 2240.25,-185"/>
<text text-anchor="middle" x="2215" y="-171.5" font-family="Helvetica,sans-Serif" font-size="10.00">memory</text>
</a>
</g>
</g>
<!-- Node1&#45;&gt;Node4 -->
<g id="edge3" class="edge">
<title>Node1&#45;&gt;Node4</title>
<path fill="none" stroke="#63b8ff" d="M1747.91,-672.09C1912.5,-673.16 2431.01,-672.85 2489,-627 2512.23,-608.63 2508,-592.74 2508,-563.12 2508,-563.12 2508,-563.12 2508,-395.38 2508,-268.46 2329.43,-206.23 2251.1,-185.04"/>
<polygon fill="#63b8ff" stroke="#63b8ff" points="2252.31,-181.48 2241.75,-182.32 2250.53,-188.25 2252.31,-181.48"/>
</g>
<!-- Node5 -->
<g id="node5" class="node">
<title>Node5</title>
<g id="a_node5"><a xlink:title=" ">
<polygon fill="#e0e0e0" stroke="#999999" points="1882.25,-185 1843.75,-185 1843.75,-165.75 1882.25,-165.75 1882.25,-185"/>
<text text-anchor="middle" x="1863" y="-171.5" font-family="Helvetica,sans-Serif" font-size="10.00">utility</text>
</a>
</g>
</g>
<!-- Node1&#45;&gt;Node5 -->
<g id="edge4" class="edge">
<title>Node1&#45;&gt;Node5</title>
<path fill="none" stroke="#63b8ff" d="M1720.25,-662.51C1753.43,-647.27 1812,-613.26 1812,-563.12 1812,-563.12 1812,-563.12 1812,-505.88 1812,-444.27 1847.25,-257.35 1859.14,-196.06"/>
<polygon fill="#63b8ff" stroke="#63b8ff" points="1862.77,-196.75 1861.24,-186.27 1855.9,-195.41 1862.77,-196.75"/>
</g>
<!-- Node6 -->
<g id="node6" class="node">
<title>Node6</title>
<g id="a_node6"><a xlink:href="common_8h.html" target="_top" xlink:title=" ">
<polygon fill="white" stroke="#666666" points="1930.12,-461.25 1839.88,-461.25 1839.88,-442 1930.12,-442 1930.12,-461.25"/>
<text text-anchor="middle" x="1885" y="-447.75" font-family="Helvetica,sans-Serif" font-size="10.00">cppgc/common.h</text>
</a>
</g>
</g>
<!-- Node1&#45;&gt;Node6 -->
<g id="edge5" class="edge">
<title>Node1&#45;&gt;Node6</title>
<path fill="none" stroke="#63b8ff" d="M1747.98,-664.94C1774.29,-659.03 1805.29,-647.9 1826,-627 1868.86,-583.74 1880.6,-508.28 1883.81,-472.52"/>
<polygon fill="#63b8ff" stroke="#63b8ff" points="1887.36,-472.87 1884.62,-462.64 1880.38,-472.35 1887.36,-472.87"/>
</g>
<!-- Node7 -->
<g id="node7" class="node">
<title>Node7</title>
<g id="a_node7"><a xlink:href="v8config_8h.html" target="_top" xlink:title=" ">
<polygon fill="white" stroke="#666666" points="1441.75,-19.25 1382.25,-19.25 1382.25,0 1441.75,0 1441.75,-19.25"/>
<text text-anchor="middle" x="1412" y="-5.75" font-family="Helvetica,sans-Serif" font-size="10.00">v8config.h</text>
</a>
</g>
</g>
<!-- Node1&#45;&gt;Node7 -->
<g id="edge141" class="edge">
<title>Node1&#45;&gt;Node7</title>
<path fill="none" stroke="#63b8ff" d="M1748.05,-668.83C1820.9,-664.06 1960.12,-652.31 2076,-627 2154.03,-609.96 2178.31,-612.5 2247,-571.75 2344.34,-514.01 2436.96,-498.94 2422,-386.75 2398.69,-211.96 2364.54,-128.21 2204,-55.25 2135.35,-24.05 1604.46,-13.57 1452.51,-11.2"/>
<polygon fill="#63b8ff" stroke="#63b8ff" points="1452.88,-7.69 1442.83,-11.03 1452.77,-14.69 1452.88,-7.69"/>
</g>
<!-- Node8 -->
<g id="node8" class="node">
<title>Node8</title>
<g id="a_node8"><a xlink:href="v8-array-buffer_8h.html" target="_top" xlink:title=" ">
<polygon fill="white" stroke="#666666" points="1030.5,-461.25 945.5,-461.25 945.5,-442 1030.5,-442 1030.5,-461.25"/>
<text text-anchor="middle" x="988" y="-447.75" font-family="Helvetica,sans-Serif" font-size="10.00">v8&#45;array&#45;buffer.h</text>
</a>
</g>
</g>
<!-- Node1&#45;&gt;Node8 -->
<g id="edge7" class="edge">
<title>Node1&#45;&gt;Node8</title>
<path fill="none" stroke="#63b8ff" d="M1648.01,-671.26C1504.63,-669.78 1099.25,-662.48 1052,-627 1002.19,-589.6 991.11,-509.36 988.67,-472.22"/>
<polygon fill="#63b8ff" stroke="#63b8ff" points="992.13,-472.22 988.13,-462.41 985.13,-472.57 992.13,-472.22"/>
</g>
<!-- Node9 -->
<g id="node9" class="node">
<title>Node9</title>
<g id="a_node9"><a xlink:href="v8-local-handle_8h.html" target="_top" xlink:title=" ">
<polygon fill="white" stroke="#666666" points="589.38,-185 500.62,-185 500.62,-165.75 589.38,-165.75 589.38,-185"/>
<text text-anchor="middle" x="545" y="-171.5" font-family="Helvetica,sans-Serif" font-size="10.00">v8&#45;local&#45;handle.h</text>
</a>
</g>
</g>
<!-- Node1&#45;&gt;Node9 -->
<g id="edge110" class="edge">
<title>Node1&#45;&gt;Node9</title>
<path fill="none" stroke="#63b8ff" d="M1648.3,-671.29C1386.05,-669.38 172.49,-658.86 100,-627 63.78,-611.08 38,-602.69 38,-563.12 38,-563.12 38,-563.12 38,-450.62 38,-246.95 358.46,-193.78 489.83,-180.55"/>
<polygon fill="#63b8ff" stroke="#63b8ff" points="489.83,-183.97 499.45,-179.52 489.16,-177 489.83,-183.97"/>
</g>
<!-- Node12 -->
<g id="node12" class="node">
<title>Node12</title>
<g id="a_node12"><a xlink:href="v8-internal_8h.html" target="_top" xlink:title=" ">
<polygon fill="white" stroke="#666666" points="838.25,-74.5 769.75,-74.5 769.75,-55.25 838.25,-55.25 838.25,-74.5"/>
<text text-anchor="middle" x="804" y="-61" font-family="Helvetica,sans-Serif" font-size="10.00">v8&#45;internal.h</text>
</a>
</g>
</g>
<!-- Node1&#45;&gt;Node12 -->
<g id="edge109" class="edge">
<title>Node1&#45;&gt;Node12</title>
<path fill="none" stroke="#63b8ff" d="M1648.03,-670.91C1444.86,-667.83 680.18,-654.61 440,-627 293.32,-610.14 114,-710.77 114,-563.12 114,-563.12 114,-563.12 114,-450.62 114,-154.58 604.53,-84.23 758.4,-69.45"/>
<polygon fill="#63b8ff" stroke="#63b8ff" points="758.67,-72.85 768.31,-68.44 758.03,-65.88 758.67,-72.85"/>
</g>
<!-- Node17 -->
<g id="node17" class="node">
<title>Node17</title>
<g id="a_node17"><a xlink:href="v8-persistent-handle_8h.html" target="_top" xlink:title=" ">
<polygon fill="white" stroke="#666666" points="1125.62,-240.25 1014.38,-240.25 1014.38,-221 1125.62,-221 1125.62,-240.25"/>
<text text-anchor="middle" x="1070" y="-226.75" font-family="Helvetica,sans-Serif" font-size="10.00">v8&#45;persistent&#45;handle.h</text>
</a>
</g>
</g>
<!-- Node1&#45;&gt;Node17 -->
<g id="edge112" class="edge">
<title>Node1&#45;&gt;Node17</title>
<path fill="none" stroke="#63b8ff" d="M1647.88,-668.3C1498.4,-657.73 1066,-622.06 1066,-563.12 1066,-563.12 1066,-563.12 1066,-340.12 1066,-309.1 1067.65,-273.11 1068.83,-251.37"/>
<polygon fill="#63b8ff" stroke="#63b8ff" points="1072.37,-251.81 1069.44,-241.62 1065.38,-251.41 1072.37,-251.81"/>
</g>
<!-- Node19 -->
<g id="node19" class="node">
<title>Node19</title>
<g id="a_node19"><a xlink:href="v8-primitive_8h.html" target="_top" xlink:title=" ">
<polygon fill="white" stroke="#666666" points="693.88,-350.75 620.12,-350.75 620.12,-331.5 693.88,-331.5 693.88,-350.75"/>
<text text-anchor="middle" x="657" y="-337.25" font-family="Helvetica,sans-Serif" font-size="10.00">v8&#45;primitive.h</text>
</a>
</g>
</g>
<!-- Node1&#45;&gt;Node19 -->
<g id="edge113" class="edge">
<title>Node1&#45;&gt;Node19</title>
<path fill="none" stroke="#63b8ff" d="M1648.29,-670.52C1395.66,-664.56 266,-633.99 266,-563.12 266,-563.12 266,-563.12 266,-505.88 266,-432.22 505.04,-373.63 609.32,-351.58"/>
<polygon fill="#63b8ff" stroke="#63b8ff" points="609.79,-354.85 618.86,-349.38 608.36,-348 609.79,-354.85"/>
</g>
<!-- Node20 -->
<g id="node20" class="node">
<title>Node20</title>
<g id="a_node20"><a xlink:href="v8-data_8h.html" target="_top" xlink:title=" ">
<polygon fill="white" stroke="#666666" points="729.88,-240.25 674.12,-240.25 674.12,-221 729.88,-221 729.88,-240.25"/>
<text text-anchor="middle" x="702" y="-226.75" font-family="Helvetica,sans-Serif" font-size="10.00">v8&#45;data.h</text>
</a>
</g>
</g>
<!-- Node1&#45;&gt;Node20 -->
<g id="edge74" class="edge">
<title>Node1&#45;&gt;Node20</title>
<path fill="none" stroke="#63b8ff" d="M1647.9,-671.14C1453.52,-668.63 760,-653.34 760,-563.12 760,-563.12 760,-563.12 760,-340.12 760,-304.38 735.21,-269 718.04,-248.78"/>
<polygon fill="#63b8ff" stroke="#63b8ff" points="721.06,-246.78 711.81,-241.61 715.82,-251.42 721.06,-246.78"/>
</g>
<!-- Node24 -->
<g id="node24" class="node">
<title>Node24</title>
<g id="a_node24"><a xlink:href="v8-callbacks_8h.html" target="_top" xlink:title=" ">
<polygon fill="white" stroke="#666666" points="732.12,-516.5 653.88,-516.5 653.88,-497.25 732.12,-497.25 732.12,-516.5"/>
<text text-anchor="middle" x="693" y="-503" font-family="Helvetica,sans-Serif" font-size="10.00">v8&#45;callbacks.h</text>
</a>
</g>
</g>
<!-- Node1&#45;&gt;Node24 -->
<g id="edge62" class="edge">
<title>Node1&#45;&gt;Node24</title>
<path fill="none" stroke="#63b8ff" d="M1648.07,-670.73C1457.34,-667.13 783.5,-652.63 746,-627 712.46,-604.08 699.9,-554.76 695.39,-527.31"/>
<polygon fill="#63b8ff" stroke="#63b8ff" points="698.75,-527.12 693.87,-517.72 691.82,-528.12 698.75,-527.12"/>
</g>
<!-- Node28 -->
<g id="node28" class="node">
<title>Node28</title>
<g id="a_node28"><a xlink:href="v8-debug_8h.html" target="_top" xlink:title=" ">
<polygon fill="white" stroke="#666666" points="1729.62,-627 1666.38,-627 1666.38,-607.75 1729.62,-607.75 1729.62,-627"/>
<text text-anchor="middle" x="1698" y="-613.5" font-family="Helvetica,sans-Serif" font-size="10.00">v8&#45;debug.h</text>
</a>
</g>
</g>
<!-- Node1&#45;&gt;Node28 -->
<g id="edge75" class="edge">
<title>Node1&#45;&gt;Node28</title>
<path fill="none" stroke="#63b8ff" d="M1698,-662.83C1698,-656.17 1698,-646.74 1698,-638.28"/>
<polygon fill="#63b8ff" stroke="#63b8ff" points="1701.5,-638.36 1698,-628.36 1694.5,-638.36 1701.5,-638.36"/>
</g>
<!-- Node37 -->
<g id="node37" class="node">
<title>Node37</title>
<g id="a_node37"><a xlink:href="v8-embedder-heap_8h.html" target="_top" xlink:title=" ">
<polygon fill="white" stroke="#666666" points="1829.88,-295.5 1726.12,-295.5 1726.12,-276.25 1829.88,-276.25 1829.88,-295.5"/>
<text text-anchor="middle" x="1778" y="-282" font-family="Helvetica,sans-Serif" font-size="10.00">v8&#45;embedder&#45;heap.h</text>
</a>
</g>
</g>
<!-- Node1&#45;&gt;Node37 -->
<g id="edge102" class="edge">
<title>Node1&#45;&gt;Node37</title>
<path fill="none" stroke="#63b8ff" d="M1710.21,-662.69C1731.69,-645.83 1774,-607.05 1774,-563.12 1774,-563.12 1774,-563.12 1774,-395.38 1774,-364.35 1775.65,-328.36 1776.83,-306.62"/>
<polygon fill="#63b8ff" stroke="#63b8ff" points="1780.37,-307.06 1777.44,-296.87 1773.38,-306.66 1780.37,-307.06"/>
</g>
<!-- Node38 -->
<g id="node38" class="node">
<title>Node38</title>
<g id="a_node38"><a xlink:href="v8-function-callback_8h.html" target="_top" xlink:title=" ">
<polygon fill="white" stroke="#666666" points="610.25,-406 499.75,-406 499.75,-386.75 610.25,-386.75 610.25,-406"/>
<text text-anchor="middle" x="555" y="-392.5" font-family="Helvetica,sans-Serif" font-size="10.00">v8&#45;function&#45;callback.h</text>
</a>
</g>
</g>
<!-- Node1&#45;&gt;Node38 -->
<g id="edge105" class="edge">
<title>Node1&#45;&gt;Node38</title>
<path fill="none" stroke="#63b8ff" d="M1648.06,-671.54C1460.86,-670.93 807.17,-666.01 723,-627 631.76,-584.72 615.63,-550.34 569,-461.25 561.74,-447.39 558.24,-429.94 556.56,-416.78"/>
<polygon fill="#63b8ff" stroke="#63b8ff" points="559.97,-416.72 555.46,-407.13 553,-417.44 559.97,-416.72"/>
</g>
<!-- Node39 -->
<g id="node39" class="node">
<title>Node39</title>
<g id="a_node39"><a xlink:href="v8-microtask_8h.html" target="_top" xlink:title=" ">
<polygon fill="white" stroke="#666666" points="2479.88,-627 2400.12,-627 2400.12,-607.75 2479.88,-607.75 2479.88,-627"/>
<text text-anchor="middle" x="2440" y="-613.5" font-family="Helvetica,sans-Serif" font-size="10.00">v8&#45;microtask.h</text>
</a>
</g>
</g>
<!-- Node1&#45;&gt;Node39 -->
<g id="edge111" class="edge">
<title>Node1&#45;&gt;Node39</title>
<path fill="none" stroke="#63b8ff" d="M1747.78,-669.99C1861.28,-665.93 2147.8,-653.69 2386,-627 2386.97,-626.89 2387.95,-626.78 2388.94,-626.66"/>
<polygon fill="#63b8ff" stroke="#63b8ff" points="2389.2,-630.02 2398.66,-625.24 2388.29,-623.08 2389.2,-630.02"/>
</g>
<!-- Node40 -->
<g id="node40" class="node">
<title>Node40</title>
<g id="a_node40"><a xlink:href="v8-statistics_8h.html" target="_top" xlink:title=" ">
<polygon fill="white" stroke="#666666" points="2086.38,-516.5 2009.62,-516.5 2009.62,-497.25 2086.38,-497.25 2086.38,-516.5"/>
<text text-anchor="middle" x="2048" y="-503" font-family="Helvetica,sans-Serif" font-size="10.00">v8&#45;statistics.h</text>
</a>
</g>
</g>
<!-- Node1&#45;&gt;Node40 -->
<g id="edge114" class="edge">
<title>Node1&#45;&gt;Node40</title>
<path fill="none" stroke="#63b8ff" d="M1747.91,-669.9C1822.43,-666.38 1958.06,-656.08 1996,-627 2027.84,-602.6 2040.53,-554.64 2045.32,-527.61"/>
<polygon fill="#63b8ff" stroke="#63b8ff" points="2048.92,-528.24 2047,-517.82 2042,-527.17 2048.92,-528.24"/>
</g>
<!-- Node41 -->
<g id="node41" class="node">
<title>Node41</title>
<g id="a_node41"><a xlink:href="v8-unwinder_8h.html" target="_top" xlink:title=" ">
<polygon fill="white" stroke="#666666" points="2328,-406 2252,-406 2252,-386.75 2328,-386.75 2328,-406"/>
<text text-anchor="middle" x="2290" y="-392.5" font-family="Helvetica,sans-Serif" font-size="10.00">v8&#45;unwinder.h</text>
</a>
</g>
</g>
<!-- Node1&#45;&gt;Node41 -->
<g id="edge123" class="edge">
<title>Node1&#45;&gt;Node41</title>
<path fill="none" stroke="#63b8ff" d="M1747.9,-668.78C1811.57,-664.23 1924.65,-653 2018,-627 2138.17,-593.53 2201.35,-616.44 2276,-516.5 2297.74,-487.4 2296.35,-442.64 2293.26,-417.08"/>
<polygon fill="#63b8ff" stroke="#63b8ff" points="2296.59,-416.62 2291.7,-407.22 2289.66,-417.62 2296.59,-416.62"/>
</g>
<!-- Node6&#45;&gt;Node7 -->
<g id="edge6" class="edge">
<title>Node6&#45;&gt;Node7</title>
<path fill="none" stroke="#63b8ff" d="M1888.83,-441.67C1910.6,-389.42 2012.78,-123.69 1870,-55.25 1796.8,-20.16 1551.24,-12.66 1453.06,-11.06"/>
<polygon fill="#63b8ff" stroke="#63b8ff" points="1453.17,-7.55 1443.12,-10.9 1453.06,-14.54 1453.17,-7.55"/>
</g>
<!-- Node8&#45;&gt;Node2 -->
<g id="edge8" class="edge">
<title>Node8&#45;&gt;Node2</title>
<path fill="none" stroke="#63b8ff" d="M945.24,-447.77C813.8,-438.93 423.79,-412.23 412,-406 383.1,-390.72 228,-209.07 228,-176.38 228,-176.38 228,-176.38 228,-119.12 228,-88.12 228,-52.13 228,-30.38"/>
<polygon fill="#63b8ff" stroke="#63b8ff" points="231.5,-30.63 228,-20.63 224.5,-30.63 231.5,-30.63"/>
</g>
<!-- Node8&#45;&gt;Node4 -->
<g id="edge9" class="edge">
<title>Node8&#45;&gt;Node4</title>
<path fill="none" stroke="#63b8ff" d="M1030.98,-446.68C1135.23,-437.07 1395.8,-412.73 1435,-406 1637.97,-371.13 1688.13,-355.95 1885,-295.5 1952.52,-274.77 1968.11,-265.67 2034,-240.25 2055.44,-231.98 2060.43,-228.94 2082,-221 2114.54,-209.03 2152.03,-196.57 2178.89,-187.87"/>
<polygon fill="#63b8ff" stroke="#63b8ff" points="2179.91,-190.89 2188.35,-184.5 2177.76,-184.23 2179.91,-190.89"/>
</g>
<!-- Node8&#45;&gt;Node7 -->
<g id="edge61" class="edge">
<title>Node8&#45;&gt;Node7</title>
<path fill="none" stroke="#63b8ff" d="M986.9,-441.59C982.26,-399.24 968.06,-217.85 1050,-110.5 1074.26,-78.72 1084.28,-71.07 1121,-55.25 1204.84,-19.14 1313.32,-11.69 1371.27,-10.49"/>
<polygon fill="#63b8ff" stroke="#63b8ff" points="1371.21,-13.98 1381.16,-10.33 1371.11,-6.98 1371.21,-13.98"/>
</g>
<!-- Node8&#45;&gt;Node9 -->
<g id="edge10" class="edge">
<title>Node8&#45;&gt;Node9</title>
<path fill="none" stroke="#63b8ff" d="M945.23,-447.62C818.46,-438.65 452.88,-412.3 442,-406 369.36,-363.93 354.4,-288.72 404,-221 423.54,-194.32 459.12,-183.19 489.64,-178.72"/>
<polygon fill="#63b8ff" stroke="#63b8ff" points="489.71,-182.11 499.19,-177.4 488.84,-175.16 489.71,-182.11"/>
</g>
<!-- Node15 -->
<g id="node15" class="node">
<title>Node15</title>
<g id="a_node15"><a xlink:href="v8-object_8h.html" target="_top" xlink:title=" ">
<polygon fill="white" stroke="#666666" points="1167.62,-406 1104.38,-406 1104.38,-386.75 1167.62,-386.75 1167.62,-406"/>
<text text-anchor="middle" x="1136" y="-392.5" font-family="Helvetica,sans-Serif" font-size="10.00">v8&#45;object.h</text>
</a>
</g>
</g>
<!-- Node8&#45;&gt;Node15 -->
<g id="edge21" class="edge">
<title>Node8&#45;&gt;Node15</title>
<path fill="none" stroke="#63b8ff" d="M1013.11,-441.59C1037.13,-432.95 1073.6,-419.82 1100.58,-410.12"/>
<polygon fill="#63b8ff" stroke="#63b8ff" points="1101.55,-413.13 1109.77,-406.45 1099.18,-406.54 1101.55,-413.13"/>
</g>
<!-- Node9&#45;&gt;Node2 -->
<g id="edge11" class="edge">
<title>Node9&#45;&gt;Node2</title>
<path fill="none" stroke="#63b8ff" d="M527.51,-165.34C475,-138.22 318.53,-57.39 255.13,-24.64"/>
<polygon fill="#63b8ff" stroke="#63b8ff" points="256.93,-21.11 246.44,-19.63 253.72,-27.33 256.93,-21.11"/>
</g>
<!-- Node10 -->
<g id="node10" class="node">
<title>Node10</title>
<g id="a_node10"><a xlink:title=" ">
<polygon fill="#e0e0e0" stroke="#999999" points="870.5,-19.25 809.5,-19.25 809.5,0 870.5,0 870.5,-19.25"/>
<text text-anchor="middle" x="840" y="-5.75" font-family="Helvetica,sans-Serif" font-size="10.00">type_traits</text>
</a>
</g>
</g>
<!-- Node9&#45;&gt;Node10 -->
<g id="edge12" class="edge">
<title>Node9&#45;&gt;Node10</title>
<path fill="none" stroke="#63b8ff" d="M537.49,-165.29C527.55,-152.1 512.65,-127.38 525,-110.5 541.58,-87.84 716.99,-41.44 798.63,-20.85"/>
<polygon fill="#63b8ff" stroke="#63b8ff" points="799.42,-24.01 808.27,-18.18 797.72,-17.22 799.42,-24.01"/>
</g>
<!-- Node11 -->
<g id="node11" class="node">
<title>Node11</title>
<g id="a_node11"><a xlink:href="v8-handle-base_8h.html" target="_top" xlink:title=" ">
<polygon fill="white" stroke="#666666" points="623.75,-129.75 534.25,-129.75 534.25,-110.5 623.75,-110.5 623.75,-129.75"/>
<text text-anchor="middle" x="579" y="-116.25" font-family="Helvetica,sans-Serif" font-size="10.00">v8&#45;handle&#45;base.h</text>
</a>
</g>
</g>
<!-- Node9&#45;&gt;Node11 -->
<g id="edge13" class="edge">
<title>Node9&#45;&gt;Node11</title>
<path fill="none" stroke="#63b8ff" d="M550.61,-165.58C555.16,-158.46 561.73,-148.18 567.4,-139.3"/>
<polygon fill="#63b8ff" stroke="#63b8ff" points="570.83,-141.42 573.26,-131.11 564.93,-137.65 570.83,-141.42"/>
</g>
<!-- Node11&#45;&gt;Node12 -->
<g id="edge14" class="edge">
<title>Node11&#45;&gt;Node12</title>
<path fill="none" stroke="#63b8ff" d="M617.42,-110.03C656.6,-100.76 717.34,-86.38 758.8,-76.57"/>
<polygon fill="#63b8ff" stroke="#63b8ff" points="759.5,-79.77 768.43,-74.06 757.89,-72.95 759.5,-79.77"/>
</g>
<!-- Node12&#45;&gt;Node2 -->
<g id="edge15" class="edge">
<title>Node12&#45;&gt;Node2</title>
<path fill="none" stroke="#63b8ff" d="M769.27,-60.66C667.17,-51.23 368.66,-23.63 264.43,-13.99"/>
<polygon fill="#63b8ff" stroke="#63b8ff" points="264.83,-10.42 254.55,-12.99 264.18,-17.39 264.83,-10.42"/>
</g>
<!-- Node12&#45;&gt;Node3 -->
<g id="edge16" class="edge">
<title>Node12&#45;&gt;Node3</title>
<path fill="none" stroke="#63b8ff" d="M838.59,-62.69C1045.12,-55.6 2113.4,-18.95 2321.02,-11.83"/>
<polygon fill="#63b8ff" stroke="#63b8ff" points="2320.98,-15.29 2330.86,-11.45 2320.74,-8.3 2320.98,-15.29"/>
</g>
<!-- Node12&#45;&gt;Node7 -->
<g id="edge20" class="edge">
<title>Node12&#45;&gt;Node7</title>
<path fill="none" stroke="#63b8ff" d="M838.43,-60.86C943.23,-51.68 1258.03,-24.11 1371.05,-14.21"/>
<polygon fill="#63b8ff" stroke="#63b8ff" points="1371.3,-17.62 1380.96,-13.26 1370.69,-10.64 1371.3,-17.62"/>
</g>
<!-- Node12&#45;&gt;Node10 -->
<g id="edge19" class="edge">
<title>Node12&#45;&gt;Node10</title>
<path fill="none" stroke="#63b8ff" d="M809.94,-55.08C814.81,-47.88 821.86,-37.46 827.91,-28.51"/>
<polygon fill="#63b8ff" stroke="#63b8ff" points="831.22,-30.85 833.93,-20.61 825.43,-26.93 831.22,-30.85"/>
</g>
<!-- Node13 -->
<g id="node13" class="node">
<title>Node13</title>
<g id="a_node13"><a xlink:title=" ">
<polygon fill="#e0e0e0" stroke="#999999" points="791.75,-19.25 744.25,-19.25 744.25,0 791.75,0 791.75,-19.25"/>
<text text-anchor="middle" x="768" y="-5.75" font-family="Helvetica,sans-Serif" font-size="10.00">string.h</text>
</a>
</g>
</g>
<!-- Node12&#45;&gt;Node13 -->
<g id="edge17" class="edge">
<title>Node12&#45;&gt;Node13</title>
<path fill="none" stroke="#63b8ff" d="M798.06,-55.08C793.19,-47.88 786.14,-37.46 780.09,-28.51"/>
<polygon fill="#63b8ff" stroke="#63b8ff" points="782.57,-26.93 774.07,-20.61 776.78,-30.85 782.57,-26.93"/>
</g>
<!-- Node14 -->
<g id="node14" class="node">
<title>Node14</title>
<g id="a_node14"><a xlink:title=" ">
<polygon fill="#e0e0e0" stroke="#999999" points="1049.62,-19.25 1004.38,-19.25 1004.38,0 1049.62,0 1049.62,-19.25"/>
<text text-anchor="middle" x="1027" y="-5.75" font-family="Helvetica,sans-Serif" font-size="10.00">atomic</text>
</a>
</g>
</g>
<!-- Node12&#45;&gt;Node14 -->
<g id="edge18" class="edge">
<title>Node12&#45;&gt;Node14</title>
<path fill="none" stroke="#63b8ff" d="M838.36,-55.67C880.64,-45.58 951.95,-28.55 993.73,-18.57"/>
<polygon fill="#63b8ff" stroke="#63b8ff" points="994.26,-21.8 1003.18,-16.07 992.64,-14.99 994.26,-21.8"/>
</g>
<!-- Node15&#45;&gt;Node7 -->
<g id="edge60" class="edge">
<title>Node15&#45;&gt;Node7</title>
<path fill="none" stroke="#63b8ff" d="M1144.12,-386.51C1171.7,-356.27 1260.46,-258.13 1267,-240.25 1269.94,-232.22 1272.14,-227.84 1267,-221 1230.77,-172.76 1119.12,-221.16 1143,-165.75 1171.31,-100.07 1197.97,-90.86 1260,-55.25 1294.78,-35.28 1339.25,-23.58 1371.09,-17.21"/>
<polygon fill="#63b8ff" stroke="#63b8ff" points="1371.62,-20.48 1380.79,-15.18 1370.31,-13.61 1371.62,-20.48"/>
</g>
<!-- Node15&#45;&gt;Node9 -->
<g id="edge22" class="edge">
<title>Node15&#45;&gt;Node9</title>
<path fill="none" stroke="#63b8ff" d="M1104.01,-395.31C988.07,-394.74 594.65,-389.94 556,-350.75 515.05,-309.23 529.4,-231.72 539.09,-195.7"/>
<polygon fill="#63b8ff" stroke="#63b8ff" points="542.71,-196.76 542.11,-186.18 535.99,-194.83 542.71,-196.76"/>
</g>
<!-- Node16 -->
<g id="node16" class="node">
<title>Node16</title>
<g id="a_node16"><a xlink:href="v8-maybe_8h.html" target="_top" xlink:title=" ">
<polygon fill="white" stroke="#666666" points="1569.75,-240.25 1504.25,-240.25 1504.25,-221 1569.75,-221 1569.75,-240.25"/>
<text text-anchor="middle" x="1537" y="-226.75" font-family="Helvetica,sans-Serif" font-size="10.00">v8&#45;maybe.h</text>
</a>
</g>
</g>
<!-- Node15&#45;&gt;Node16 -->
<g id="edge23" class="edge">
<title>Node15&#45;&gt;Node16</title>
<path fill="none" stroke="#63b8ff" d="M1154.34,-386.34C1171.24,-377.8 1196.84,-364.29 1218,-350.75 1264.68,-320.87 1267.41,-298.87 1318,-276.25 1388.28,-244.83 1414.21,-255.35 1493.51,-240.47"/>
<polygon fill="#63b8ff" stroke="#63b8ff" points="1493.85,-243.77 1502.99,-238.41 1492.5,-236.9 1493.85,-243.77"/>
</g>
<!-- Node15&#45;&gt;Node17 -->
<g id="edge28" class="edge">
<title>Node15&#45;&gt;Node17</title>
<path fill="none" stroke="#63b8ff" d="M1132.45,-386.57C1122.11,-360.92 1091.84,-285.8 1077.58,-250.44"/>
<polygon fill="#63b8ff" stroke="#63b8ff" points="1080.55,-249.44 1073.57,-241.47 1074.06,-252.06 1080.55,-249.44"/>
</g>
<!-- Node15&#45;&gt;Node19 -->
<g id="edge34" class="edge">
<title>Node15&#45;&gt;Node19</title>
<path fill="none" stroke="#63b8ff" d="M1104.2,-391.84C1022.11,-382.71 802.71,-358.32 705.04,-347.47"/>
<polygon fill="#63b8ff" stroke="#63b8ff" points="705.63,-343.9 695.31,-346.27 704.86,-350.86 705.63,-343.9"/>
</g>
<!-- Node21 -->
<g id="node21" class="node">
<title>Node21</title>
<g id="a_node21"><a xlink:href="v8-value_8h.html" target="_top" xlink:title=" ">
<polygon fill="white" stroke="#666666" points="924.12,-295.5 863.88,-295.5 863.88,-276.25 924.12,-276.25 924.12,-295.5"/>
<text text-anchor="middle" x="894" y="-282" font-family="Helvetica,sans-Serif" font-size="10.00">v8&#45;value.h</text>
</a>
</g>
</g>
<!-- Node15&#45;&gt;Node21 -->
<g id="edge59" class="edge">
<title>Node15&#45;&gt;Node21</title>
<path fill="none" stroke="#63b8ff" d="M1115.78,-386.31C1073.26,-367.24 974.34,-322.9 924.24,-300.43"/>
<polygon fill="#63b8ff" stroke="#63b8ff" points="925.89,-296.89 915.33,-295.99 923.02,-303.27 925.89,-296.89"/>
</g>
<!-- Node22 -->
<g id="node22" class="node">
<title>Node22</title>
<g id="a_node22"><a xlink:href="v8-traced-handle_8h.html" target="_top" xlink:title=" ">
<polygon fill="white" stroke="#666666" points="1485.75,-240.25 1390.25,-240.25 1390.25,-221 1485.75,-221 1485.75,-240.25"/>
<text text-anchor="middle" x="1438" y="-226.75" font-family="Helvetica,sans-Serif" font-size="10.00">v8&#45;traced&#45;handle.h</text>
</a>
</g>
</g>
<!-- Node15&#45;&gt;Node22 -->
<g id="edge47" class="edge">
<title>Node15&#45;&gt;Node22</title>
<path fill="none" stroke="#63b8ff" d="M1148.16,-386.35C1160,-377.47 1178.45,-363.45 1194,-350.75 1233.17,-318.76 1235.49,-300.25 1280,-276.25 1310.86,-259.61 1348.54,-248.66 1379.36,-241.77"/>
<polygon fill="#63b8ff" stroke="#63b8ff" points="1379.91,-245.02 1388.95,-239.5 1378.44,-238.17 1379.91,-245.02"/>
</g>
<!-- Node16&#45;&gt;Node5 -->
<g id="edge25" class="edge">
<title>Node16&#45;&gt;Node5</title>
<path fill="none" stroke="#63b8ff" d="M1570.05,-224.23C1633.47,-213.87 1771.34,-191.35 1832.61,-181.34"/>
<polygon fill="#63b8ff" stroke="#63b8ff" points="1833.15,-184.63 1842.46,-179.57 1832.02,-177.73 1833.15,-184.63"/>
</g>
<!-- Node16&#45;&gt;Node7 -->
<g id="edge27" class="edge">
<title>Node16&#45;&gt;Node7</title>
<path fill="none" stroke="#63b8ff" d="M1539.53,-220.63C1542.62,-207.96 1546.68,-184.35 1540,-165.75 1518.29,-105.34 1461.75,-51.69 1431.6,-26.25"/>
<polygon fill="#63b8ff" stroke="#63b8ff" points="1434.44,-23.23 1424.5,-19.56 1429.98,-28.63 1434.44,-23.23"/>
</g>
<!-- Node16&#45;&gt;Node10 -->
<g id="edge24" class="edge">
<title>Node16&#45;&gt;Node10</title>
<path fill="none" stroke="#63b8ff" d="M1508.38,-220.63C1398.73,-186.18 1005.3,-62.56 879.19,-22.94"/>
<polygon fill="#63b8ff" stroke="#63b8ff" points="880.45,-19.35 869.86,-19.69 878.35,-26.03 880.45,-19.35"/>
</g>
<!-- Node16&#45;&gt;Node12 -->
<g id="edge26" class="edge">
<title>Node16&#45;&gt;Node12</title>
<path fill="none" stroke="#63b8ff" d="M1504.1,-221.08C1455.15,-208.46 1360.19,-184.33 1279,-165.75 1121.77,-129.77 934.12,-91.76 849.43,-74.87"/>
<polygon fill="#63b8ff" stroke="#63b8ff" points="850.15,-71.24 839.66,-72.72 848.78,-78.11 850.15,-71.24"/>
</g>
<!-- Node17&#45;&gt;Node7 -->
<g id="edge33" class="edge">
<title>Node17&#45;&gt;Node7</title>
<path fill="none" stroke="#63b8ff" d="M1059.01,-220.82C1045.39,-208.76 1025,-186.27 1034,-165.75 1065.28,-94.43 1098.43,-85.97 1170,-55.25 1236.83,-26.56 1321.8,-16.29 1371.22,-12.63"/>
<polygon fill="#63b8ff" stroke="#63b8ff" points="1371.36,-16.07 1381.1,-11.89 1370.88,-9.08 1371.36,-16.07"/>
</g>
<!-- Node17&#45;&gt;Node9 -->
<g id="edge30" class="edge">
<title>Node17&#45;&gt;Node9</title>
<path fill="none" stroke="#63b8ff" d="M1014.31,-223.98C913.33,-213.73 701.15,-192.21 600.39,-181.99"/>
<polygon fill="#63b8ff" stroke="#63b8ff" points="600.84,-178.42 590.54,-180.89 600.13,-185.38 600.84,-178.42"/>
</g>
<!-- Node17&#45;&gt;Node12 -->
<g id="edge29" class="edge">
<title>Node17&#45;&gt;Node12</title>
<path fill="none" stroke="#63b8ff" d="M1013.9,-220.98C975.78,-213.99 924.72,-202.41 882,-185 837.83,-167 813.49,-171.26 790,-129.75 782.06,-115.72 787.24,-97.59 793.42,-84.24"/>
<polygon fill="#63b8ff" stroke="#63b8ff" points="796.87,-86.21 798.37,-75.72 790.65,-82.98 796.87,-86.21"/>
</g>
<!-- Node18 -->
<g id="node18" class="node">
<title>Node18</title>
<g id="a_node18"><a xlink:href="v8-weak-callback-info_8h.html" target="_top" xlink:title=" ">
<polygon fill="white" stroke="#666666" points="1270,-185 1152,-185 1152,-165.75 1270,-165.75 1270,-185"/>
<text text-anchor="middle" x="1211" y="-171.5" font-family="Helvetica,sans-Serif" font-size="10.00">v8&#45;weak&#45;callback&#45;info.h</text>
</a>
</g>
</g>
<!-- Node17&#45;&gt;Node18 -->
<g id="edge31" class="edge">
<title>Node17&#45;&gt;Node18</title>
<path fill="none" stroke="#63b8ff" d="M1093.92,-220.59C1116.71,-211.99 1151.25,-198.94 1176.91,-189.25"/>
<polygon fill="#63b8ff" stroke="#63b8ff" points="1177.85,-192.26 1185.96,-185.45 1175.37,-185.71 1177.85,-192.26"/>
</g>
<!-- Node18&#45;&gt;Node7 -->
<g id="edge32" class="edge">
<title>Node18&#45;&gt;Node7</title>
<path fill="none" stroke="#63b8ff" d="M1214.04,-165.47C1221.99,-143.51 1245.47,-86.3 1284,-55.25 1309.13,-35 1344.05,-23.64 1371.08,-17.46"/>
<polygon fill="#63b8ff" stroke="#63b8ff" points="1371.7,-20.69 1380.75,-15.19 1370.24,-13.85 1371.7,-20.69"/>
</g>
<!-- Node19&#45;&gt;Node7 -->
<g id="edge46" class="edge">
<title>Node19&#45;&gt;Node7</title>
<path fill="none" stroke="#63b8ff" d="M694.37,-334.51C825.25,-314.79 1255.66,-249.37 1267,-240.25 1336.02,-184.77 1284.28,-123.26 1341,-55.25 1351.73,-42.38 1367.16,-32.07 1380.89,-24.61"/>
<polygon fill="#63b8ff" stroke="#63b8ff" points="1382.2,-27.36 1389.51,-19.69 1379.01,-21.13 1382.2,-27.36"/>
</g>
<!-- Node19&#45;&gt;Node9 -->
<g id="edge39" class="edge">
<title>Node19&#45;&gt;Node9</title>
<path fill="none" stroke="#63b8ff" d="M651.84,-331.28C637.8,-307.26 598.94,-241.32 584,-221 576.93,-211.38 568.25,-201.31 560.88,-193.18"/>
<polygon fill="#63b8ff" stroke="#63b8ff" points="563.89,-191.2 554.54,-186.23 558.75,-195.95 563.89,-191.2"/>
</g>
<!-- Node19&#45;&gt;Node12 -->
<g id="edge38" class="edge">
<title>Node19&#45;&gt;Node12</title>
<path fill="none" stroke="#63b8ff" d="M656.19,-331.19C654.65,-311 652.51,-260.53 665,-221 682.3,-166.24 691.59,-151.31 732,-110.5 744.24,-98.14 760.54,-87.67 774.54,-79.99"/>
<polygon fill="#63b8ff" stroke="#63b8ff" points="776,-82.65 783.23,-74.9 772.75,-76.45 776,-82.65"/>
</g>
<!-- Node19&#45;&gt;Node20 -->
<g id="edge35" class="edge">
<title>Node19&#45;&gt;Node20</title>
<path fill="none" stroke="#63b8ff" d="M660.68,-331.25C667.97,-313.68 684.36,-274.16 694.17,-250.52"/>
<polygon fill="#63b8ff" stroke="#63b8ff" points="697.67,-252.2 698.27,-241.63 691.2,-249.52 697.67,-252.2"/>
</g>
<!-- Node19&#45;&gt;Node21 -->
<g id="edge40" class="edge">
<title>Node19&#45;&gt;Node21</title>
<path fill="none" stroke="#63b8ff" d="M694.29,-331.75C737.53,-322.03 808.55,-306.08 853.21,-296.04"/>
<polygon fill="#63b8ff" stroke="#63b8ff" points="853.71,-299.29 862.69,-293.68 852.17,-292.46 853.71,-299.29"/>
</g>
<!-- Node20&#45;&gt;Node7 -->
<g id="edge37" class="edge">
<title>Node20&#45;&gt;Node7</title>
<path fill="none" stroke="#63b8ff" d="M703.89,-220.73C707.15,-207.34 714.95,-181.85 730,-165.75 802.56,-88.13 840.11,-85.39 942,-55.25 1022.03,-31.58 1272.17,-17.33 1371.12,-12.49"/>
<polygon fill="#63b8ff" stroke="#63b8ff" points="1371.05,-15.95 1380.87,-11.97 1370.71,-8.96 1371.05,-15.95"/>
</g>
<!-- Node20&#45;&gt;Node9 -->
<g id="edge36" class="edge">
<title>Node20&#45;&gt;Node9</title>
<path fill="none" stroke="#63b8ff" d="M675.37,-220.59C649.65,-211.87 610.5,-198.59 581.82,-188.86"/>
<polygon fill="#63b8ff" stroke="#63b8ff" points="583.36,-185.35 572.76,-185.45 581.11,-191.98 583.36,-185.35"/>
</g>
<!-- Node21&#45;&gt;Node7 -->
<g id="edge45" class="edge">
<title>Node21&#45;&gt;Node7</title>
<path fill="none" stroke="#63b8ff" d="M887.66,-276.14C877.76,-262.95 857.53,-237.72 836,-221 805.24,-197.12 747.81,-199.05 768,-165.75 795.55,-120.32 929.12,-70.53 980,-55.25 1119.03,-13.5 1293.29,-9.31 1371.14,-9.8"/>
<polygon fill="#63b8ff" stroke="#63b8ff" points="1370.88,-13.3 1380.92,-9.9 1370.95,-6.3 1370.88,-13.3"/>
</g>
<!-- Node21&#45;&gt;Node9 -->
<g id="edge43" class="edge">
<title>Node21&#45;&gt;Node9</title>
<path fill="none" stroke="#63b8ff" d="M879.96,-275.8C857.88,-261.92 813.27,-235.52 772,-221 715.18,-201.01 647.02,-189.13 600.32,-182.71"/>
<polygon fill="#63b8ff" stroke="#63b8ff" points="600.89,-179.13 590.51,-181.27 599.96,-186.06 600.89,-179.13"/>
</g>
<!-- Node21&#45;&gt;Node12 -->
<g id="edge42" class="edge">
<title>Node21&#45;&gt;Node12</title>
<path fill="none" stroke="#63b8ff" d="M883.22,-275.88C867.24,-262.79 836.01,-238.21 807,-221 774.51,-201.73 750.28,-216.87 730,-185 706.43,-147.96 752.79,-103.99 782.25,-81.23"/>
<polygon fill="#63b8ff" stroke="#63b8ff" points="783.84,-83.67 789.76,-74.88 779.65,-78.06 783.84,-83.67"/>
</g>
<!-- Node21&#45;&gt;Node16 -->
<g id="edge44" class="edge">
<title>Node21&#45;&gt;Node16</title>
<path fill="none" stroke="#63b8ff" d="M924.48,-283.99C1011.62,-281.19 1269.41,-270.84 1493.41,-240.28"/>
<polygon fill="#63b8ff" stroke="#63b8ff" points="1493.63,-243.64 1503.05,-238.81 1492.67,-236.71 1493.63,-243.64"/>
</g>
<!-- Node21&#45;&gt;Node20 -->
<g id="edge41" class="edge">
<title>Node21&#45;&gt;Node20</title>
<path fill="none" stroke="#63b8ff" d="M863.58,-276.44C830.18,-267.18 776.51,-252.29 740.28,-242.24"/>
<polygon fill="#63b8ff" stroke="#63b8ff" points="741.67,-238.72 731.09,-239.42 739.8,-245.46 741.67,-238.72"/>
</g>
<!-- Node22&#45;&gt;Node2 -->
<g id="edge48" class="edge">
<title>Node22&#45;&gt;Node2</title>
<path fill="none" stroke="#63b8ff" d="M1389.91,-225.5C1315.51,-218.82 1168.13,-204.4 1044,-185 796.37,-146.31 735.72,-128.64 491,-74.5 409.58,-56.49 314.65,-32.75 264.07,-19.88"/>
<polygon fill="#63b8ff" stroke="#63b8ff" points="265.23,-16.31 254.68,-17.23 263.5,-23.09 265.23,-16.31"/>
</g>
<!-- Node22&#45;&gt;Node3 -->
<g id="edge49" class="edge">
<title>Node22&#45;&gt;Node3</title>
<path fill="none" stroke="#63b8ff" d="M1463.56,-220.56C1545.02,-192.02 1806.21,-103.03 2029,-55.25 2134.26,-32.67 2261.16,-19.2 2321.23,-13.63"/>
<polygon fill="#63b8ff" stroke="#63b8ff" points="2321.35,-17.04 2330.99,-12.65 2320.71,-10.07 2321.35,-17.04"/>
</g>
<!-- Node22&#45;&gt;Node4 -->
<g id="edge52" class="edge">
<title>Node22&#45;&gt;Node4</title>
<path fill="none" stroke="#63b8ff" d="M1486.16,-222.03C1489.15,-221.66 1492.11,-221.31 1495,-221 1756.34,-193.18 2073.04,-180.98 2178.72,-177.49"/>
<polygon fill="#63b8ff" stroke="#63b8ff" points="2178.54,-180.97 2188.42,-177.14 2178.32,-173.97 2178.54,-180.97"/>
</g>
<!-- Node22&#45;&gt;Node5 -->
<g id="edge54" class="edge">
<title>Node22&#45;&gt;Node5</title>
<path fill="none" stroke="#63b8ff" d="M1486.19,-222.23C1489.17,-221.81 1492.12,-221.39 1495,-221 1620.17,-203.95 1769.73,-186.81 1832.7,-179.74"/>
<polygon fill="#63b8ff" stroke="#63b8ff" points="1832.88,-183.13 1842.43,-178.54 1832.1,-176.18 1832.88,-183.13"/>
</g>
<!-- Node22&#45;&gt;Node7 -->
<g id="edge58" class="edge">
<title>Node22&#45;&gt;Node7</title>
<path fill="none" stroke="#63b8ff" d="M1436.95,-220.77C1433.1,-188.37 1419.74,-75.8 1414.31,-30.12"/>
<polygon fill="#63b8ff" stroke="#63b8ff" points="1417.69,-29.87 1413.04,-20.35 1410.74,-30.69 1417.69,-29.87"/>
</g>
<!-- Node22&#45;&gt;Node9 -->
<g id="edge56" class="edge">
<title>Node22&#45;&gt;Node9</title>
<path fill="none" stroke="#63b8ff" d="M1389.99,-226.76C1237.27,-217.66 763.19,-189.39 600.48,-179.68"/>
<polygon fill="#63b8ff" stroke="#63b8ff" points="600.96,-176.15 590.77,-179.04 600.54,-183.13 600.96,-176.15"/>
</g>
<!-- Node22&#45;&gt;Node10 -->
<g id="edge53" class="edge">
<title>Node22&#45;&gt;Node10</title>
<path fill="none" stroke="#63b8ff" d="M1390.01,-222.84C1309.43,-211.38 1154.54,-189.03 1143,-185 1028.29,-144.92 907.68,-60.88 860.56,-26.15"/>
<polygon fill="#63b8ff" stroke="#63b8ff" points="863,-22.86 852.89,-19.71 858.83,-28.48 863,-22.86"/>
</g>
<!-- Node22&#45;&gt;Node12 -->
<g id="edge55" class="edge">
<title>Node22&#45;&gt;Node12</title>
<path fill="none" stroke="#63b8ff" d="M1389.79,-226.64C1325.22,-221.83 1207.5,-210.23 1110,-185 1004.19,-157.62 885.24,-104.44 832.18,-79.46"/>
<polygon fill="#63b8ff" stroke="#63b8ff" points="834,-75.97 823.47,-74.85 831,-82.3 834,-75.97"/>
</g>
<!-- Node22&#45;&gt;Node14 -->
<g id="edge51" class="edge">
<title>Node22&#45;&gt;Node14</title>
<path fill="none" stroke="#63b8ff" d="M1421.12,-220.63C1357.37,-186.66 1130.92,-66 1053.32,-24.65"/>
<polygon fill="#63b8ff" stroke="#63b8ff" points="1055.26,-21.19 1044.79,-19.57 1051.97,-27.36 1055.26,-21.19"/>
</g>
<!-- Node22&#45;&gt;Node18 -->
<g id="edge57" class="edge">
<title>Node22&#45;&gt;Node18</title>
<path fill="none" stroke="#63b8ff" d="M1399.24,-220.53C1360.79,-211.51 1301.76,-197.67 1260.07,-187.89"/>
<polygon fill="#63b8ff" stroke="#63b8ff" points="1261.14,-184.31 1250.6,-185.43 1259.54,-191.12 1261.14,-184.31"/>
</g>
<!-- Node23 -->
<g id="node23" class="node">
<title>Node23</title>
<g id="a_node23"><a xlink:title=" ">
<polygon fill="#e0e0e0" stroke="#999999" points="1712.25,-185 1667.75,-185 1667.75,-165.75 1712.25,-165.75 1712.25,-185"/>
<text text-anchor="middle" x="1690" y="-171.5" font-family="Helvetica,sans-Serif" font-size="10.00">stdio.h</text>
</a>
</g>
</g>
<!-- Node22&#45;&gt;Node23 -->
<g id="edge50" class="edge">
<title>Node22&#45;&gt;Node23</title>
<path fill="none" stroke="#63b8ff" d="M1481.03,-220.53C1530.8,-210.02 1611.64,-192.93 1656.8,-183.39"/>
<polygon fill="#63b8ff" stroke="#63b8ff" points="1657.41,-186.63 1666.47,-181.14 1655.96,-179.78 1657.41,-186.63"/>
</g>
<!-- Node24&#45;&gt;Node2 -->
<g id="edge63" class="edge">
<title>Node24&#45;&gt;Node2</title>
<path fill="none" stroke="#63b8ff" d="M653.57,-501.81C588.22,-494.68 460.56,-478.99 419,-461.25 262.94,-394.64 114,-401.3 114,-231.62 114,-231.62 114,-231.62 114,-119.12 114,-73.49 162.52,-41.22 196.25,-24.3"/>
<polygon fill="#63b8ff" stroke="#63b8ff" points="197.25,-27.22 204.75,-19.74 194.22,-20.91 197.25,-27.22"/>
</g>
<!-- Node24&#45;&gt;Node6 -->
<g id="edge66" class="edge">
<title>Node24&#45;&gt;Node6</title>
<path fill="none" stroke="#63b8ff" d="M732.32,-504.12C908.04,-496.27 1621.84,-464.38 1828.62,-455.14"/>
<polygon fill="#63b8ff" stroke="#63b8ff" points="1828.68,-458.6 1838.51,-454.66 1828.36,-451.61 1828.68,-458.6"/>
</g>
<!-- Node24&#45;&gt;Node7 -->
<g id="edge73" class="edge">
<title>Node24&#45;&gt;Node7</title>
<path fill="none" stroke="#63b8ff" d="M706.16,-496.94C744.88,-470.15 860.27,-386.68 933,-295.5 1011.06,-197.64 970.13,-115.24 1080,-55.25 1129.38,-28.29 1293.77,-16.59 1371.11,-12.49"/>
<polygon fill="#63b8ff" stroke="#63b8ff" points="1371.06,-15.94 1380.86,-11.93 1370.7,-8.95 1371.06,-15.94"/>
</g>
<!-- Node24&#45;&gt;Node9 -->
<g id="edge68" class="edge">
<title>Node24&#45;&gt;Node9</title>
<path fill="none" stroke="#63b8ff" d="M653.54,-499.74C574.35,-486.55 400.65,-452.82 366,-406 316.71,-339.4 329.83,-279 389,-221 415.68,-194.84 456.6,-183.81 489.83,-179.25"/>
<polygon fill="#63b8ff" stroke="#63b8ff" points="489.81,-182.66 499.32,-177.99 488.98,-175.71 489.81,-182.66"/>
</g>
<!-- Node24&#45;&gt;Node20 -->
<g id="edge67" class="edge">
<title>Node24&#45;&gt;Node20</title>
<path fill="none" stroke="#63b8ff" d="M697.15,-496.81C705.17,-478.45 722,-435.4 722,-397.38 722,-397.38 722,-397.38 722,-340.12 722,-308.45 713.65,-272.42 707.74,-250.88"/>
<polygon fill="#63b8ff" stroke="#63b8ff" points="710.9,-250.18 704.78,-241.52 704.17,-252.1 710.9,-250.18"/>
</g>
<!-- Node25 -->
<g id="node25" class="node">
<title>Node25</title>
<g id="a_node25"><a xlink:title=" ">
<polygon fill="#e0e0e0" stroke="#999999" points="694,-461.25 636,-461.25 636,-442 694,-442 694,-461.25"/>
<text text-anchor="middle" x="665" y="-447.75" font-family="Helvetica,sans-Serif" font-size="10.00">functional</text>
</a>
</g>
</g>
<!-- Node24&#45;&gt;Node25 -->
<g id="edge64" class="edge">
<title>Node24&#45;&gt;Node25</title>
<path fill="none" stroke="#63b8ff" d="M688.38,-497.08C684.67,-490.03 679.34,-479.9 674.71,-471.08"/>
<polygon fill="#63b8ff" stroke="#63b8ff" points="677.48,-469.83 669.72,-462.61 671.28,-473.09 677.48,-469.83"/>
</g>
<!-- Node26 -->
<g id="node26" class="node">
<title>Node26</title>
<g id="a_node26"><a xlink:title=" ">
<polygon fill="#e0e0e0" stroke="#999999" points="618,-461.25 578,-461.25 578,-442 618,-442 618,-461.25"/>
<text text-anchor="middle" x="598" y="-447.75" font-family="Helvetica,sans-Serif" font-size="10.00">string</text>
</a>
</g>
</g>
<!-- Node24&#45;&gt;Node26 -->
<g id="edge65" class="edge">
<title>Node24&#45;&gt;Node26</title>
<path fill="none" stroke="#63b8ff" d="M676.88,-496.84C662.28,-488.66 640.51,-476.46 623.54,-466.94"/>
<polygon fill="#63b8ff" stroke="#63b8ff" points="625.63,-463.54 615.19,-461.7 622.21,-469.65 625.63,-463.54"/>
</g>
<!-- Node27 -->
<g id="node27" class="node">
<title>Node27</title>
<g id="a_node27"><a xlink:href="v8-promise_8h.html" target="_top" xlink:title=" ">
<polygon fill="white" stroke="#666666" points="1171.75,-461.25 1100.25,-461.25 1100.25,-442 1171.75,-442 1171.75,-461.25"/>
<text text-anchor="middle" x="1136" y="-447.75" font-family="Helvetica,sans-Serif" font-size="10.00">v8&#45;promise.h</text>
</a>
</g>
</g>
<!-- Node24&#45;&gt;Node27 -->
<g id="edge69" class="edge">
<title>Node24&#45;&gt;Node27</title>
<path fill="none" stroke="#63b8ff" d="M732.31,-501.15C813.95,-491.34 1001.51,-468.79 1089.21,-458.25"/>
<polygon fill="#63b8ff" stroke="#63b8ff" points="1089.38,-461.63 1098.89,-456.97 1088.55,-454.68 1089.38,-461.63"/>
</g>
<!-- Node27&#45;&gt;Node7 -->
<g id="edge72" class="edge">
<title>Node27&#45;&gt;Node7</title>
<path fill="none" stroke="#63b8ff" d="M1172.22,-446.54C1270.34,-434.92 1538.88,-399.38 1612,-350.75 1650.41,-325.2 1725.03,-229.55 1737,-185 1754.46,-120.02 1720.34,-82.9 1659,-55.25 1590.86,-24.54 1503.14,-14.95 1452.67,-11.96"/>
<polygon fill="#63b8ff" stroke="#63b8ff" points="1453.06,-8.43 1442.89,-11.39 1452.69,-15.42 1453.06,-8.43"/>
</g>
<!-- Node27&#45;&gt;Node9 -->
<g id="edge70" class="edge">
<title>Node27&#45;&gt;Node9</title>
<path fill="none" stroke="#63b8ff" d="M1100,-447.18C1081.99,-445.51 1059.85,-443.54 1040,-442 979.05,-437.26 540.99,-441.18 491,-406 423.24,-358.32 419.21,-287.96 468,-221 478.05,-207.2 493.78,-197 508.4,-189.86"/>
<polygon fill="#63b8ff" stroke="#63b8ff" points="509.59,-192.71 517.26,-185.4 506.71,-186.33 509.59,-192.71"/>
</g>
<!-- Node27&#45;&gt;Node15 -->
<g id="edge71" class="edge">
<title>Node27&#45;&gt;Node15</title>
<path fill="none" stroke="#63b8ff" d="M1136,-441.83C1136,-435.17 1136,-425.74 1136,-417.28"/>
<polygon fill="#63b8ff" stroke="#63b8ff" points="1139.5,-417.36 1136,-407.36 1132.5,-417.36 1139.5,-417.36"/>
</g>
<!-- Node28&#45;&gt;Node3 -->
<g id="edge76" class="edge">
<title>Node28&#45;&gt;Node3</title>
<path fill="none" stroke="#63b8ff" d="M1730.05,-616.18C1827.84,-614.06 2127.41,-596.27 2321,-461.25 2445.22,-374.61 2508,-327.83 2508,-176.38 2508,-176.38 2508,-176.38 2508,-119.12 2508,-61.77 2435.41,-31.87 2390.56,-18.87"/>
<polygon fill="#63b8ff" stroke="#63b8ff" points="2391.65,-15.27 2381.08,-15.99 2389.8,-22.02 2391.65,-15.27"/>
</g>
<!-- Node28&#45;&gt;Node7 -->
<g id="edge101" class="edge">
<title>Node28&#45;&gt;Node7</title>
<path fill="none" stroke="#63b8ff" d="M1698,-607.37C1698,-588.78 1698,-544.8 1698,-507.88 1698,-507.88 1698,-507.88 1698,-340.12 1698,-235.68 1792.58,-204.96 1748,-110.5 1732.8,-78.3 1721.9,-71.06 1690,-55.25 1612.56,-16.87 1509.47,-10.22 1453.11,-9.78"/>
<polygon fill="#63b8ff" stroke="#63b8ff" points="1453.15,-6.27 1443.15,-9.76 1453.15,-13.27 1453.15,-6.27"/>
</g>
<!-- Node29 -->
<g id="node29" class="node">
<title>Node29</title>
<g id="a_node29"><a xlink:href="v8-script_8h.html" target="_top" xlink:title=" ">
<polygon fill="white" stroke="#666666" points="1371.5,-571.75 1310.5,-571.75 1310.5,-552.5 1371.5,-552.5 1371.5,-571.75"/>
<text text-anchor="middle" x="1341" y="-558.25" font-family="Helvetica,sans-Serif" font-size="10.00">v8&#45;script.h</text>
</a>
</g>
</g>
<!-- Node28&#45;&gt;Node29 -->
<g id="edge77" class="edge">
<title>Node28&#45;&gt;Node29</title>
<path fill="none" stroke="#63b8ff" d="M1666,-611.6C1601.13,-601.93 1454.19,-580.01 1382.24,-569.28"/>
<polygon fill="#63b8ff" stroke="#63b8ff" points="1383.19,-565.73 1372.78,-567.72 1382.15,-572.65 1383.19,-565.73"/>
</g>
<!-- Node29&#45;&gt;Node2 -->
<g id="edge78" class="edge">
<title>Node29&#45;&gt;Node2</title>
<path fill="none" stroke="#63b8ff" d="M1310.33,-560.63C1174,-558.27 622.18,-546.97 452,-516.5 244.89,-479.42 38,-497.28 38,-286.88 38,-286.88 38,-286.88 38,-119.12 38,-49.12 136.48,-23.67 191.64,-14.92"/>
<polygon fill="#63b8ff" stroke="#63b8ff" points="191.99,-18.25 201.38,-13.33 190.97,-11.33 191.99,-18.25"/>
</g>
<!-- Node29&#45;&gt;Node3 -->
<g id="edge79" class="edge">
<title>Node29&#45;&gt;Node3</title>
<path fill="none" stroke="#63b8ff" d="M1371.97,-560.32C1512.98,-556.53 2090.7,-539.69 2168,-516.5 2261.2,-488.54 2288.34,-474.94 2357,-406 2380.15,-382.75 2394,-374.93 2394,-342.12 2394,-342.12 2394,-342.12 2394,-119.12 2394,-85.98 2378.01,-50.18 2366.78,-29.12"/>
<polygon fill="#63b8ff" stroke="#63b8ff" points="2369.37,-27.58 2361.44,-20.54 2363.25,-30.98 2369.37,-27.58"/>
</g>
<!-- Node29&#45;&gt;Node4 -->
<g id="edge80" class="edge">
<title>Node29&#45;&gt;Node4</title>
<path fill="none" stroke="#63b8ff" d="M1371.93,-560.63C1510.14,-558.23 2067.43,-546.76 2139,-516.5 2258.63,-465.92 2231.07,-261.01 2219.05,-196.16"/>
<polygon fill="#63b8ff" stroke="#63b8ff" points="2222.31,-195.59 2216.97,-186.44 2215.44,-196.93 2222.31,-195.59"/>
</g>
<!-- Node29&#45;&gt;Node7 -->
<g id="edge100" class="edge">
<title>Node29&#45;&gt;Node7</title>
<path fill="none" stroke="#63b8ff" d="M1371.87,-560.75C1483.17,-558.72 1861.45,-545.62 1939,-461.25 2061.76,-327.69 2058.01,-138.83 1897,-55.25 1820.05,-15.3 1555.18,-10.72 1452.82,-10.48"/>
<polygon fill="#63b8ff" stroke="#63b8ff" points="1453.02,-6.98 1443.02,-10.47 1453.01,-13.98 1453.02,-6.98"/>
</g>
<!-- Node29&#45;&gt;Node9 -->
<g id="edge85" class="edge">
<title>Node29&#45;&gt;Node9</title>
<path fill="none" stroke="#63b8ff" d="M1310.26,-561.07C1212.47,-560.5 899.93,-555.52 645,-516.5 542.79,-500.85 511.77,-506.92 419,-461.25 338.31,-421.53 310.35,-362.15 337,-276.25 345.34,-249.36 345.64,-238.11 368,-221 402.93,-194.27 452.02,-183.4 489.64,-179.06"/>
<polygon fill="#63b8ff" stroke="#63b8ff" points="489.83,-182.46 499.42,-177.96 489.11,-175.49 489.83,-182.46"/>
</g>
<!-- Node29&#45;&gt;Node16 -->
<g id="edge86" class="edge">
<title>Node29&#45;&gt;Node16</title>
<path fill="none" stroke="#63b8ff" d="M1334.06,-552.12C1320.99,-534.22 1294,-492.45 1294,-452.62 1294,-452.62 1294,-452.62 1294,-395.38 1294,-365.76 1293.5,-353.79 1313,-331.5 1338.68,-302.15 1442.32,-263.66 1499.18,-244.14"/>
<polygon fill="#63b8ff" stroke="#63b8ff" points="1500.22,-247.15 1508.56,-240.61 1497.97,-240.52 1500.22,-247.15"/>
</g>
<!-- Node29&#45;&gt;Node20 -->
<g id="edge84" class="edge">
<title>Node29&#45;&gt;Node20</title>
<path fill="none" stroke="#63b8ff" d="M1310.29,-559.93C1212.38,-555.3 914,-534.47 914,-452.62 914,-452.62 914,-452.62 914,-395.38 914,-349.2 786.44,-276.13 729.21,-245.68"/>
<polygon fill="#63b8ff" stroke="#63b8ff" points="731.19,-242.23 720.71,-240.67 727.92,-248.43 731.19,-242.23"/>
</g>
<!-- Node29&#45;&gt;Node24 -->
<g id="edge83" class="edge">
<title>Node29&#45;&gt;Node24</title>
<path fill="none" stroke="#63b8ff" d="M1310.18,-558.59C1206.68,-550.09 870.87,-522.49 743.03,-511.99"/>
<polygon fill="#63b8ff" stroke="#63b8ff" points="743.65,-508.44 733.4,-511.11 743.08,-515.42 743.65,-508.44"/>
</g>
<!-- Node30 -->
<g id="node30" class="node">
<title>Node30</title>
<g id="a_node30"><a xlink:title=" ">
<polygon fill="#e0e0e0" stroke="#999999" points="1359.5,-516.5 1322.5,-516.5 1322.5,-497.25 1359.5,-497.25 1359.5,-516.5"/>
<text text-anchor="middle" x="1341" y="-503" font-family="Helvetica,sans-Serif" font-size="10.00">tuple</text>
</a>
</g>
</g>
<!-- Node29&#45;&gt;Node30 -->
<g id="edge81" class="edge">
<title>Node29&#45;&gt;Node30</title>
<path fill="none" stroke="#63b8ff" d="M1341,-552.33C1341,-545.67 1341,-536.24 1341,-527.78"/>
<polygon fill="#63b8ff" stroke="#63b8ff" points="1344.5,-527.86 1341,-517.86 1337.5,-527.86 1344.5,-527.86"/>
</g>
<!-- Node31 -->
<g id="node31" class="node">
<title>Node31</title>
<g id="a_node31"><a xlink:title=" ">
<polygon fill="#e0e0e0" stroke="#999999" points="2133.5,-240.25 2090.5,-240.25 2090.5,-221 2133.5,-221 2133.5,-240.25"/>
<text text-anchor="middle" x="2112" y="-226.75" font-family="Helvetica,sans-Serif" font-size="10.00">vector</text>
</a>
</g>
</g>
<!-- Node29&#45;&gt;Node31 -->
<g id="edge82" class="edge">
<title>Node29&#45;&gt;Node31</title>
<path fill="none" stroke="#63b8ff" d="M1371.92,-560.29C1505.07,-556.57 2025.97,-540.57 2095,-516.5 2141.66,-500.23 2186,-502.04 2186,-452.62 2186,-452.62 2186,-452.62 2186,-395.38 2186,-337.64 2147.32,-277.8 2125.89,-249.07"/>
<polygon fill="#63b8ff" stroke="#63b8ff" points="2128.23,-247.37 2119.37,-241.57 2122.68,-251.63 2128.23,-247.37"/>
</g>
<!-- Node32 -->
<g id="node32" class="node">
<title>Node32</title>
<g id="a_node32"><a xlink:href="v8-memory-span_8h.html" target="_top" xlink:title=" ">
<polygon fill="white" stroke="#666666" points="595.75,-74.5 500.25,-74.5 500.25,-55.25 595.75,-55.25 595.75,-74.5"/>
<text text-anchor="middle" x="548" y="-61" font-family="Helvetica,sans-Serif" font-size="10.00">v8&#45;memory&#45;span.h</text>
</a>
</g>
</g>
<!-- Node29&#45;&gt;Node32 -->
<g id="edge87" class="edge">
<title>Node29&#45;&gt;Node32</title>
<path fill="none" stroke="#63b8ff" d="M1310.15,-560.9C1179.1,-559.75 668.15,-552.93 512,-516.5 451.26,-502.33 440.08,-486.39 383,-461.25 274.06,-413.26 222.53,-435.58 139,-350.75 50.51,-260.89 177.26,-167.03 290,-110.5 353.11,-78.86 434.59,-69.18 488.94,-66.47"/>
<polygon fill="#63b8ff" stroke="#63b8ff" points="488.93,-69.93 498.77,-66 488.63,-62.94 488.93,-69.93"/>
</g>
<!-- Node35 -->
<g id="node35" class="node">
<title>Node35</title>
<g id="a_node35"><a xlink:href="v8-message_8h.html" target="_top" xlink:title=" ">
<polygon fill="white" stroke="#666666" points="1426.38,-406 1349.62,-406 1349.62,-386.75 1426.38,-386.75 1426.38,-406"/>
<text text-anchor="middle" x="1388" y="-392.5" font-family="Helvetica,sans-Serif" font-size="10.00">v8&#45;message.h</text>
</a>
</g>
</g>
<!-- Node29&#45;&gt;Node35 -->
<g id="edge93" class="edge">
<title>Node29&#45;&gt;Node35</title>
<path fill="none" stroke="#63b8ff" d="M1348.18,-552.13C1354.68,-543.51 1363.98,-529.86 1369,-516.5 1381.54,-483.11 1385.8,-441.42 1387.25,-417.26"/>
<polygon fill="#63b8ff" stroke="#63b8ff" points="1390.79,-417.51 1387.78,-407.35 1383.8,-417.17 1390.79,-417.51"/>
</g>
<!-- Node32&#45;&gt;Node2 -->
<g id="edge88" class="edge">
<title>Node32&#45;&gt;Node2</title>
<path fill="none" stroke="#63b8ff" d="M500.09,-55.9C435.69,-45.19 322.6,-26.37 264.59,-16.71"/>
<polygon fill="#63b8ff" stroke="#63b8ff" points="265.19,-13.1 254.75,-14.91 264.04,-20 265.19,-13.1"/>
</g>
<!-- Node32&#45;&gt;Node7 -->
<g id="edge92" class="edge">
<title>Node32&#45;&gt;Node7</title>
<path fill="none" stroke="#63b8ff" d="M595.99,-60.92C749.62,-51.45 1227.58,-21.99 1370.94,-13.16"/>
<polygon fill="#63b8ff" stroke="#63b8ff" points="1371.08,-16.59 1380.84,-12.48 1370.65,-9.61 1371.08,-16.59"/>
</g>
<!-- Node32&#45;&gt;Node10 -->
<g id="edge91" class="edge">
<title>Node32&#45;&gt;Node10</title>
<path fill="none" stroke="#63b8ff" d="M596.15,-56.02C644.84,-47.93 722.54,-34.64 798.64,-19.65"/>
<polygon fill="#63b8ff" stroke="#63b8ff" points="799.24,-22.91 808.37,-17.53 797.88,-16.04 799.24,-22.91"/>
</g>
<!-- Node33 -->
<g id="node33" class="node">
<title>Node33</title>
<g id="a_node33"><a xlink:title=" ">
<polygon fill="#e0e0e0" stroke="#999999" points="536.5,-19.25 499.5,-19.25 499.5,0 536.5,0 536.5,-19.25"/>
<text text-anchor="middle" x="518" y="-5.75" font-family="Helvetica,sans-Serif" font-size="10.00">array</text>
</a>
</g>
</g>
<!-- Node32&#45;&gt;Node33 -->
<g id="edge89" class="edge">
<title>Node32&#45;&gt;Node33</title>
<path fill="none" stroke="#63b8ff" d="M543.05,-55.08C539.07,-48.03 533.36,-37.9 528.4,-29.08"/>
<polygon fill="#63b8ff" stroke="#63b8ff" points="531.02,-27.6 523.06,-20.61 524.92,-31.04 531.02,-27.6"/>
</g>
<!-- Node34 -->
<g id="node34" class="node">
<title>Node34</title>
<g id="a_node34"><a xlink:title=" ">
<polygon fill="#e0e0e0" stroke="#999999" points="601,-19.25 555,-19.25 555,0 601,0 601,-19.25"/>
<text text-anchor="middle" x="578" y="-5.75" font-family="Helvetica,sans-Serif" font-size="10.00">iterator</text>
</a>
</g>
</g>
<!-- Node32&#45;&gt;Node34 -->
<g id="edge90" class="edge">
<title>Node32&#45;&gt;Node34</title>
<path fill="none" stroke="#63b8ff" d="M552.95,-55.08C556.93,-48.03 562.64,-37.9 567.6,-29.08"/>
<polygon fill="#63b8ff" stroke="#63b8ff" points="571.08,-31.04 572.94,-20.61 564.98,-27.6 571.08,-31.04"/>
</g>
<!-- Node35&#45;&gt;Node7 -->
<g id="edge99" class="edge">
<title>Node35&#45;&gt;Node7</title>
<path fill="none" stroke="#63b8ff" d="M1426.81,-394.25C1469.16,-391.38 1537.53,-381.82 1587,-350.75 1622.77,-328.29 1619.48,-309.12 1646,-276.25 1678.96,-235.39 1703.3,-234.42 1721,-185 1763.02,-67.7 1545.72,-26.9 1452.66,-14.94"/>
<polygon fill="#63b8ff" stroke="#63b8ff" points="1453.31,-11.37 1442.96,-13.62 1452.45,-18.32 1453.31,-11.37"/>
</g>
<!-- Node35&#45;&gt;Node9 -->
<g id="edge96" class="edge">
<title>Node35&#45;&gt;Node9</title>
<path fill="none" stroke="#63b8ff" d="M1349.24,-393.72C1194.18,-387.03 626.05,-361.79 611,-350.75 560.59,-313.75 548.68,-233.31 545.87,-196.05"/>
<polygon fill="#63b8ff" stroke="#63b8ff" points="549.31,-195.97 545.22,-186.19 542.32,-196.38 549.31,-195.97"/>
</g>
<!-- Node35&#45;&gt;Node16 -->
<g id="edge97" class="edge">
<title>Node35&#45;&gt;Node16</title>
<path fill="none" stroke="#63b8ff" d="M1390.32,-386.65C1393.94,-373.9 1401.72,-349.73 1413,-331.5 1430.43,-303.34 1437.44,-297.3 1463,-276.25 1477.21,-264.55 1494.79,-253.81 1509.26,-245.81"/>
<polygon fill="#63b8ff" stroke="#63b8ff" points="1510.55,-248.55 1517.69,-240.72 1507.23,-242.39 1510.55,-248.55"/>
</g>
<!-- Node35&#45;&gt;Node19 -->
<g id="edge98" class="edge">
<title>Node35&#45;&gt;Node19</title>
<path fill="none" stroke="#63b8ff" d="M1349.21,-392.55C1225.48,-383.54 840.31,-355.48 704.77,-345.6"/>
<polygon fill="#63b8ff" stroke="#63b8ff" points="705.17,-342.05 694.94,-344.82 704.66,-349.03 705.17,-342.05"/>
</g>
<!-- Node35&#45;&gt;Node23 -->
<g id="edge94" class="edge">
<title>Node35&#45;&gt;Node23</title>
<path fill="none" stroke="#63b8ff" d="M1426.58,-394.18C1465.15,-391.17 1524.42,-381.42 1565,-350.75 1595.5,-327.7 1586.24,-307.68 1608,-276.25 1629.16,-245.67 1657.3,-212.82 1674.5,-193.46"/>
<polygon fill="#63b8ff" stroke="#63b8ff" points="1676.71,-196.12 1680.78,-186.34 1671.5,-191.45 1676.71,-196.12"/>
</g>
<!-- Node36 -->
<g id="node36" class="node">
<title>Node36</title>
<g id="a_node36"><a xlink:title=" ">
<polygon fill="#e0e0e0" stroke="#999999" points="1366.25,-350.75 1321.75,-350.75 1321.75,-331.5 1366.25,-331.5 1366.25,-350.75"/>
<text text-anchor="middle" x="1344" y="-337.25" font-family="Helvetica,sans-Serif" font-size="10.00">iosfwd</text>
</a>
</g>
</g>
<!-- Node35&#45;&gt;Node36 -->
<g id="edge95" class="edge">
<title>Node35&#45;&gt;Node36</title>
<path fill="none" stroke="#63b8ff" d="M1380.73,-386.58C1374.66,-379.23 1365.8,-368.51 1358.31,-359.44"/>
<polygon fill="#63b8ff" stroke="#63b8ff" points="1360.49,-357.59 1351.42,-352.11 1355.1,-362.05 1360.49,-357.59"/>
</g>
<!-- Node37&#45;&gt;Node7 -->
<g id="edge104" class="edge">
<title>Node37&#45;&gt;Node7</title>
<path fill="none" stroke="#63b8ff" d="M1806.32,-275.86C1845.1,-261.54 1910,-229.62 1910,-176.38 1910,-176.38 1910,-176.38 1910,-119.12 1910,-25.8 1571.87,-12.6 1452.85,-10.85"/>
<polygon fill="#63b8ff" stroke="#63b8ff" points="1453.07,-7.34 1443.03,-10.72 1452.99,-14.34 1453.07,-7.34"/>
</g>
<!-- Node37&#45;&gt;Node22 -->
<g id="edge103" class="edge">
<title>Node37&#45;&gt;Node22</title>
<path fill="none" stroke="#63b8ff" d="M1725.99,-276.73C1664.27,-267.06 1561.6,-250.98 1496.97,-240.86"/>
<polygon fill="#63b8ff" stroke="#63b8ff" points="1497.57,-237.26 1487.15,-239.17 1496.49,-244.17 1497.57,-237.26"/>
</g>
<!-- Node38&#45;&gt;Node7 -->
<g id="edge108" class="edge">
<title>Node38&#45;&gt;Node7</title>
<path fill="none" stroke="#63b8ff" d="M610.58,-389.75C762.64,-373.43 1181.44,-321.96 1290,-240.25 1362.69,-185.54 1396.54,-74.67 1407.65,-29.96"/>
<polygon fill="#63b8ff" stroke="#63b8ff" points="1411.25,-30.97 1410.15,-20.43 1404.44,-29.35 1411.25,-30.97"/>
</g>
<!-- Node38&#45;&gt;Node9 -->
<g id="edge106" class="edge">
<title>Node38&#45;&gt;Node9</title>
<path fill="none" stroke="#63b8ff" d="M526.22,-386.35C509.52,-379.46 489.89,-368.14 480,-350.75 451.5,-300.62 453.14,-272.03 480,-221 487.01,-207.68 499.99,-197.57 512.52,-190.37"/>
<polygon fill="#63b8ff" stroke="#63b8ff" points="513.69,-193.18 520.91,-185.42 510.43,-186.99 513.69,-193.18"/>
</g>
<!-- Node38&#45;&gt;Node19 -->
<g id="edge107" class="edge">
<title>Node38&#45;&gt;Node19</title>
<path fill="none" stroke="#63b8ff" d="M572.3,-386.34C588.13,-378.08 611.79,-365.73 630.08,-356.18"/>
<polygon fill="#63b8ff" stroke="#63b8ff" points="631.37,-358.93 638.61,-351.2 628.13,-352.73 631.37,-358.93"/>
</g>
<!-- Node40&#45;&gt;Node2 -->
<g id="edge115" class="edge">
<title>Node40&#45;&gt;Node2</title>
<path fill="none" stroke="#63b8ff" d="M2009.58,-505.17C1867.28,-502.36 1356.79,-490.74 937,-461.25 906.37,-459.1 414.48,-419.71 387,-406 321.89,-373.52 190,-267.48 190,-176.38 190,-176.38 190,-176.38 190,-119.12 190,-85.98 205.99,-50.18 217.22,-29.12"/>
<polygon fill="#63b8ff" stroke="#63b8ff" points="220.75,-30.98 222.56,-20.54 214.63,-27.58 220.75,-30.98"/>
</g>
<!-- Node40&#45;&gt;Node3 -->
<g id="edge116" class="edge">
<title>Node40&#45;&gt;Node3</title>
<path fill="none" stroke="#63b8ff" d="M2086.82,-497.11C2157.19,-480.49 2301.8,-442.76 2337,-406 2357.48,-384.61 2356,-371.74 2356,-342.12 2356,-342.12 2356,-342.12 2356,-119.12 2356,-88.12 2356,-52.13 2356,-30.38"/>
<polygon fill="#63b8ff" stroke="#63b8ff" points="2359.5,-30.63 2356,-20.63 2352.5,-30.63 2359.5,-30.63"/>
</g>
<!-- Node40&#45;&gt;Node4 -->
<g id="edge117" class="edge">
<title>Node40&#45;&gt;Node4</title>
<path fill="none" stroke="#63b8ff" d="M2072.79,-496.84C2089.45,-489.59 2110.72,-477.86 2124,-461.25 2190.36,-378.26 2208.78,-245.9 2213.49,-196.14"/>
<polygon fill="#63b8ff" stroke="#63b8ff" points="2217.05,-196.61 2214.42,-186.35 2210.08,-196.02 2217.05,-196.61"/>
</g>
<!-- Node40&#45;&gt;Node5 -->
<g id="edge118" class="edge">
<title>Node40&#45;&gt;Node5</title>
<path fill="none" stroke="#63b8ff" d="M2043.05,-497.06C2018.33,-453.04 1908.05,-256.62 1873.43,-194.96"/>
<polygon fill="#63b8ff" stroke="#63b8ff" points="1876,-193.38 1868.05,-186.37 1869.89,-196.8 1876,-193.38"/>
</g>
<!-- Node40&#45;&gt;Node7 -->
<g id="edge122" class="edge">
<title>Node40&#45;&gt;Node7</title>
<path fill="none" stroke="#63b8ff" d="M2054.79,-496.97C2079.33,-463.87 2162,-344.03 2162,-231.62 2162,-231.62 2162,-231.62 2162,-119.12 2162,-49.52 2086.5,-72.25 2019,-55.25 1911.3,-28.12 1571.17,-15.46 1452.96,-11.79"/>
<polygon fill="#63b8ff" stroke="#63b8ff" points="1453.33,-8.27 1443.23,-11.47 1453.12,-15.27 1453.33,-8.27"/>
</g>
<!-- Node40&#45;&gt;Node9 -->
<g id="edge120" class="edge">
<title>Node40&#45;&gt;Node9</title>
<path fill="none" stroke="#63b8ff" d="M2037.09,-496.98C2018.37,-482.33 1978.35,-453.58 1939,-442 1789.46,-397.97 657.13,-452.46 539,-350.75 494.27,-312.24 521.11,-231.34 536.48,-194.88"/>
<polygon fill="#63b8ff" stroke="#63b8ff" points="539.96,-196.65 540.79,-186.09 533.56,-193.83 539.96,-196.65"/>
</g>
<!-- Node40&#45;&gt;Node27 -->
<g id="edge121" class="edge">
<title>Node40&#45;&gt;Node27</title>
<path fill="none" stroke="#63b8ff" d="M2009.4,-503.62C1863.05,-495.08 1342.71,-464.69 1182.98,-455.37"/>
<polygon fill="#63b8ff" stroke="#63b8ff" points="1183.3,-451.82 1173.11,-454.73 1182.89,-458.81 1183.3,-451.82"/>
</g>
<!-- Node40&#45;&gt;Node31 -->
<g id="edge119" class="edge">
<title>Node40&#45;&gt;Node31</title>
<path fill="none" stroke="#63b8ff" d="M2050.13,-496.75C2059.2,-457.87 2094.76,-305.51 2107.46,-251.08"/>
<polygon fill="#63b8ff" stroke="#63b8ff" points="2111.06,-252.04 2109.93,-241.51 2104.25,-250.45 2111.06,-252.04"/>
</g>
<!-- Node41&#45;&gt;Node4 -->
<g id="edge124" class="edge">
<title>Node41&#45;&gt;Node4</title>
<path fill="none" stroke="#63b8ff" d="M2289.54,-386.55C2287.88,-360.12 2280.64,-279.77 2252,-221 2247.07,-210.88 2239.38,-201.08 2232.28,-193.25"/>
<polygon fill="#63b8ff" stroke="#63b8ff" points="2235.15,-191.15 2225.71,-186.35 2230.1,-195.99 2235.15,-191.15"/>
</g>
<!-- Node41&#45;&gt;Node7 -->
<g id="edge140" class="edge">
<title>Node41&#45;&gt;Node7</title>
<path fill="none" stroke="#63b8ff" d="M2292.06,-386.55C2294.04,-377.59 2296.88,-363.29 2298,-350.75 2300.96,-317.47 2296.43,-308.58 2288,-276.25 2260.21,-169.7 2271.41,-110.22 2176,-55.25 2113.17,-19.05 1601.89,-12.14 1452.71,-10.89"/>
<polygon fill="#63b8ff" stroke="#63b8ff" points="1452.83,-7.38 1442.81,-10.8 1452.78,-14.38 1452.83,-7.38"/>
</g>
<!-- Node42 -->
<g id="node42" class="node">
<title>Node42</title>
<g id="a_node42"><a xlink:href="v8-embedder-state-scope_8h.html" target="_top" xlink:title=" ">
<polygon fill="white" stroke="#666666" points="1555.88,-350.75 1422.12,-350.75 1422.12,-331.5 1555.88,-331.5 1555.88,-350.75"/>
<text text-anchor="middle" x="1489" y="-337.25" font-family="Helvetica,sans-Serif" font-size="10.00">v8&#45;embedder&#45;state&#45;scope.h</text>
</a>
</g>
</g>
<!-- Node41&#45;&gt;Node42 -->
<g id="edge125" class="edge">
<title>Node41&#45;&gt;Node42</title>
<path fill="none" stroke="#63b8ff" d="M2251.64,-392.82C2127.57,-384.58 1735.54,-358.51 1567.12,-347.32"/>
<polygon fill="#63b8ff" stroke="#63b8ff" points="1567.57,-343.77 1557.36,-346.6 1567.1,-350.76 1567.57,-343.77"/>
</g>
<!-- Node42&#45;&gt;Node4 -->
<g id="edge126" class="edge">
<title>Node42&#45;&gt;Node4</title>
<path fill="none" stroke="#63b8ff" d="M1556.22,-335.88C1627.26,-330.38 1742.19,-318.64 1839,-295.5 1934.91,-272.58 1953.84,-250.31 2048,-221 2092.73,-207.08 2145.01,-193.54 2178.99,-185.1"/>
<polygon fill="#63b8ff" stroke="#63b8ff" points="2179.48,-188.33 2188.35,-182.54 2177.8,-181.54 2179.48,-188.33"/>
</g>
<!-- Node42&#45;&gt;Node9 -->
<g id="edge139" class="edge">
<title>Node42&#45;&gt;Node9</title>
<path fill="none" stroke="#63b8ff" d="M1421.79,-334.97C1406.42,-333.81 1390.14,-332.6 1375,-331.5 1259.47,-323.13 964.95,-331.94 855,-295.5 825.92,-285.86 767.24,-232.89 739,-221 694.16,-202.12 639.98,-190.51 600.28,-183.89"/>
<polygon fill="#63b8ff" stroke="#63b8ff" points="600.92,-180.28 590.49,-182.15 599.81,-187.19 600.92,-180.28"/>
</g>
<!-- Node42&#45;&gt;Node12 -->
<g id="edge138" class="edge">
<title>Node42&#45;&gt;Node12</title>
<path fill="none" stroke="#63b8ff" d="M1453.74,-331C1394.66,-315.27 1272.35,-280.8 1173,-240.25 1155.47,-233.1 1152.89,-227.2 1135,-221 1058.33,-194.42 1033.03,-210.51 956,-185 901.41,-166.92 880.87,-169.17 839,-129.75 825.78,-117.3 816.38,-98.72 810.67,-84.8"/>
<polygon fill="#63b8ff" stroke="#63b8ff" points="813.71,-83.95 806.88,-75.85 807.17,-86.44 813.71,-83.95"/>
</g>
<!-- Node43 -->
<g id="node43" class="node">
<title>Node43</title>
<g id="a_node43"><a xlink:href="v8-context_8h.html" target="_top" xlink:title=" ">
<polygon fill="white" stroke="#666666" points="1540.25,-295.5 1471.75,-295.5 1471.75,-276.25 1540.25,-276.25 1540.25,-295.5"/>
<text text-anchor="middle" x="1506" y="-282" font-family="Helvetica,sans-Serif" font-size="10.00">v8&#45;context.h</text>
</a>
</g>
</g>
<!-- Node42&#45;&gt;Node43 -->
<g id="edge127" class="edge">
<title>Node42&#45;&gt;Node43</title>
<path fill="none" stroke="#63b8ff" d="M1491.81,-331.33C1493.98,-324.51 1497.08,-314.81 1499.83,-306.2"/>
<polygon fill="#63b8ff" stroke="#63b8ff" points="1503.42,-307.45 1503.13,-296.86 1496.76,-305.32 1503.42,-307.45"/>
</g>
<!-- Node43&#45;&gt;Node3 -->
<g id="edge128" class="edge">
<title>Node43&#45;&gt;Node3</title>
<path fill="none" stroke="#63b8ff" d="M1540.59,-277.19C1608.43,-261.83 1763.44,-225.34 1891,-185 2056.72,-132.59 2249.78,-54.6 2324.37,-23.81"/>
<polygon fill="#63b8ff" stroke="#63b8ff" points="2325.59,-26.67 2333.49,-19.62 2322.92,-20.21 2325.59,-26.67"/>
</g>
<!-- Node43&#45;&gt;Node7 -->
<g id="edge137" class="edge">
<title>Node43&#45;&gt;Node7</title>
<path fill="none" stroke="#63b8ff" d="M1533.67,-275.8C1550.01,-268.85 1569.34,-257.48 1579,-240.25 1583.18,-232.79 1580.74,-229.38 1579,-221 1561.81,-138.3 1549.48,-110.98 1486,-55.25 1472.26,-43.19 1454.83,-32.5 1440.34,-24.6"/>
<polygon fill="#63b8ff" stroke="#63b8ff" points="1442.33,-21.17 1431.86,-19.61 1439.07,-27.37 1442.33,-21.17"/>
</g>
<!-- Node43&#45;&gt;Node9 -->
<g id="edge131" class="edge">
<title>Node43&#45;&gt;Node9</title>
<path fill="none" stroke="#63b8ff" d="M1471.32,-282.38C1389.83,-276.38 1179.83,-260.16 1005,-240.25 858.61,-223.58 686.82,-198.16 600.49,-184.98"/>
<polygon fill="#63b8ff" stroke="#63b8ff" points="601.05,-181.37 590.64,-183.32 599.99,-188.29 601.05,-181.37"/>
</g>
<!-- Node43&#45;&gt;Node16 -->
<g id="edge132" class="edge">
<title>Node43&#45;&gt;Node16</title>
<path fill="none" stroke="#63b8ff" d="M1511.12,-276.08C1515.22,-269.03 1521.12,-258.9 1526.25,-250.08"/>
<polygon fill="#63b8ff" stroke="#63b8ff" points="1529.76,-252.01 1531.77,-241.61 1523.71,-248.49 1529.76,-252.01"/>
</g>
<!-- Node43&#45;&gt;Node20 -->
<g id="edge130" class="edge">
<title>Node43&#45;&gt;Node20</title>
<path fill="none" stroke="#63b8ff" d="M1471.45,-282.59C1340.92,-273.94 878.22,-243.3 740.77,-234.19"/>
<polygon fill="#63b8ff" stroke="#63b8ff" points="741.18,-230.65 730.97,-233.48 740.71,-237.63 741.18,-230.65"/>
</g>
<!-- Node43&#45;&gt;Node31 -->
<g id="edge129" class="edge">
<title>Node43&#45;&gt;Node31</title>
<path fill="none" stroke="#63b8ff" d="M1540.32,-281.86C1647.35,-272.45 1974.16,-243.74 2079.15,-234.51"/>
<polygon fill="#63b8ff" stroke="#63b8ff" points="2079.35,-237.92 2089,-233.56 2078.73,-230.95 2079.35,-237.92"/>
</g>
<!-- Node44 -->
<g id="node44" class="node">
<title>Node44</title>
<g id="a_node44"><a xlink:href="v8-snapshot_8h.html" target="_top" xlink:title=" ">
<polygon fill="white" stroke="#666666" points="1258.38,-240.25 1181.62,-240.25 1181.62,-221 1258.38,-221 1258.38,-240.25"/>
<text text-anchor="middle" x="1220" y="-226.75" font-family="Helvetica,sans-Serif" font-size="10.00">v8&#45;snapshot.h</text>
</a>
</g>
</g>
<!-- Node43&#45;&gt;Node44 -->
<g id="edge133" class="edge">
<title>Node43&#45;&gt;Node44</title>
<path fill="none" stroke="#63b8ff" d="M1471.5,-278.45C1421.12,-269.07 1327.13,-251.57 1269.41,-240.83"/>
<polygon fill="#63b8ff" stroke="#63b8ff" points="1270.2,-237.23 1259.73,-238.84 1268.92,-244.11 1270.2,-237.23"/>
</g>
<!-- Node44&#45;&gt;Node7 -->
<g id="edge136" class="edge">
<title>Node44&#45;&gt;Node7</title>
<path fill="none" stroke="#63b8ff" d="M1234.78,-220.65C1247.5,-212.44 1265.83,-199.41 1279,-185 1324.87,-134.83 1315.7,-106.81 1360,-55.25 1369.14,-44.61 1380.89,-34.31 1390.91,-26.28"/>
<polygon fill="#63b8ff" stroke="#63b8ff" points="1392.75,-28.51 1398.5,-19.61 1388.45,-22.98 1392.75,-28.51"/>
</g>
<!-- Node44&#45;&gt;Node9 -->
<g id="edge135" class="edge">
<title>Node44&#45;&gt;Node9</title>
<path fill="none" stroke="#63b8ff" d="M1181.51,-225.51C1166.95,-224.01 1150.22,-222.35 1135,-221 938.78,-203.63 705.47,-187.24 600.74,-180.11"/>
<polygon fill="#63b8ff" stroke="#63b8ff" points="601.03,-176.56 590.81,-179.37 600.55,-183.54 601.03,-176.56"/>
</g>
<!-- Node44&#45;&gt;Node12 -->
<g id="edge134" class="edge">
<title>Node44&#45;&gt;Node12</title>
<path fill="none" stroke="#63b8ff" d="M1181.37,-221.6C1101.13,-204.48 919.46,-163.19 866,-129.75 846.22,-117.38 828.22,-97.39 816.76,-83.07"/>
<polygon fill="#63b8ff" stroke="#63b8ff" points="819.12,-81.39 810.23,-75.61 813.58,-85.67 819.12,-81.39"/>
</g>
</g>
</svg>
