<?xml version="1.0" encoding="UTF-8" standalone="no"?>
<!DOCTYPE svg PUBLIC "-//W3C//DTD SVG 1.1//EN"
 "http://www.w3.org/Graphics/SVG/1.1/DTD/svg11.dtd">
<!-- Generated by graphviz version 8.0.5 (20230430.1635)
 -->
<!-- Title: include/v8&#45;json.h Pages: 1 -->
<svg width="409pt" height="248pt"
 viewBox="0.00 0.00 409.00 248.25" xmlns="http://www.w3.org/2000/svg" xmlns:xlink="http://www.w3.org/1999/xlink">
<g id="graph0" class="graph" transform="scale(1 1) rotate(0) translate(4 244.25)">
<title>include/v8&#45;json.h</title>
<!-- Node1 -->
<g id="node1" class="node">
<title>Node1</title>
<g id="a_node1"><a xlink:title=" ">
<polygon fill="#999999" stroke="#666666" points="216.62,-240.25 127.88,-240.25 127.88,-221 216.62,-221 216.62,-240.25"/>
<text text-anchor="middle" x="172.25" y="-226.75" font-family="Helvetica,sans-Serif" font-size="10.00">include/v8&#45;json.h</text>
</a>
</g>
</g>
<!-- Node2 -->
<g id="node2" class="node">
<title>Node2</title>
<g id="a_node2"><a xlink:href="v8-local-handle_8h.html" target="_top" xlink:title=" ">
<polygon fill="white" stroke="#666666" points="180.62,-185 91.88,-185 91.88,-165.75 180.62,-165.75 180.62,-185"/>
<text text-anchor="middle" x="136.25" y="-171.5" font-family="Helvetica,sans-Serif" font-size="10.00">v8&#45;local&#45;handle.h</text>
</a>
</g>
</g>
<!-- Node1&#45;&gt;Node2 -->
<g id="edge1" class="edge">
<title>Node1&#45;&gt;Node2</title>
<path fill="none" stroke="#63b8ff" d="M166.31,-220.83C161.44,-213.63 154.39,-203.21 148.34,-194.26"/>
<polygon fill="#63b8ff" stroke="#63b8ff" points="150.82,-192.68 142.32,-186.36 145.03,-196.6 150.82,-192.68"/>
</g>
<!-- Node10 -->
<g id="node10" class="node">
<title>Node10</title>
<g id="a_node10"><a xlink:href="v8config_8h.html" target="_top" xlink:title=" ">
<polygon fill="white" stroke="#666666" points="401,-19.25 341.5,-19.25 341.5,0 401,0 401,-19.25"/>
<text text-anchor="middle" x="371.25" y="-5.75" font-family="Helvetica,sans-Serif" font-size="10.00">v8config.h</text>
</a>
</g>
</g>
<!-- Node1&#45;&gt;Node10 -->
<g id="edge12" class="edge">
<title>Node1&#45;&gt;Node10</title>
<path fill="none" stroke="#63b8ff" d="M180.3,-220.77C210.37,-187.68 316.42,-70.97 356.11,-27.29"/>
<polygon fill="#63b8ff" stroke="#63b8ff" points="358.19,-30.11 362.32,-20.35 353,-25.4 358.19,-30.11"/>
</g>
<!-- Node3 -->
<g id="node3" class="node">
<title>Node3</title>
<g id="a_node3"><a xlink:title=" ">
<polygon fill="#e0e0e0" stroke="#999999" points="50.5,-19.25 0,-19.25 0,0 50.5,0 50.5,-19.25"/>
<text text-anchor="middle" x="25.25" y="-5.75" font-family="Helvetica,sans-Serif" font-size="10.00">stddef.h</text>
</a>
</g>
</g>
<!-- Node2&#45;&gt;Node3 -->
<g id="edge2" class="edge">
<title>Node2&#45;&gt;Node3</title>
<path fill="none" stroke="#63b8ff" d="M130.28,-165.57C112.74,-139.69 61.09,-63.5 37.39,-28.53"/>
<polygon fill="#63b8ff" stroke="#63b8ff" points="39.76,-26.79 31.25,-20.47 33.96,-30.71 39.76,-26.79"/>
</g>
<!-- Node4 -->
<g id="node4" class="node">
<title>Node4</title>
<g id="a_node4"><a xlink:title=" ">
<polygon fill="#e0e0e0" stroke="#999999" points="129.75,-19.25 68.75,-19.25 68.75,0 129.75,0 129.75,-19.25"/>
<text text-anchor="middle" x="99.25" y="-5.75" font-family="Helvetica,sans-Serif" font-size="10.00">type_traits</text>
</a>
</g>
</g>
<!-- Node2&#45;&gt;Node4 -->
<g id="edge3" class="edge">
<title>Node2&#45;&gt;Node4</title>
<path fill="none" stroke="#63b8ff" d="M131.91,-165.35C127.81,-156.49 121.78,-142.47 118.25,-129.75 108.76,-95.55 103.51,-54.43 101.04,-30.54"/>
<polygon fill="#63b8ff" stroke="#63b8ff" points="104.44,-30.36 100,-20.74 97.48,-31.03 104.44,-30.36"/>
</g>
<!-- Node5 -->
<g id="node5" class="node">
<title>Node5</title>
<g id="a_node5"><a xlink:href="v8-handle-base_8h.html" target="_top" xlink:title=" ">
<polygon fill="white" stroke="#666666" points="217,-129.75 127.5,-129.75 127.5,-110.5 217,-110.5 217,-129.75"/>
<text text-anchor="middle" x="172.25" y="-116.25" font-family="Helvetica,sans-Serif" font-size="10.00">v8&#45;handle&#45;base.h</text>
</a>
</g>
</g>
<!-- Node2&#45;&gt;Node5 -->
<g id="edge4" class="edge">
<title>Node2&#45;&gt;Node5</title>
<path fill="none" stroke="#63b8ff" d="M142.19,-165.58C147.06,-158.38 154.11,-147.96 160.16,-139.01"/>
<polygon fill="#63b8ff" stroke="#63b8ff" points="163.47,-141.35 166.18,-131.11 157.68,-137.43 163.47,-141.35"/>
</g>
<!-- Node6 -->
<g id="node6" class="node">
<title>Node6</title>
<g id="a_node6"><a xlink:href="v8-internal_8h.html" target="_top" xlink:title=" ">
<polygon fill="white" stroke="#666666" points="206.5,-74.5 138,-74.5 138,-55.25 206.5,-55.25 206.5,-74.5"/>
<text text-anchor="middle" x="172.25" y="-61" font-family="Helvetica,sans-Serif" font-size="10.00">v8&#45;internal.h</text>
</a>
</g>
</g>
<!-- Node5&#45;&gt;Node6 -->
<g id="edge5" class="edge">
<title>Node5&#45;&gt;Node6</title>
<path fill="none" stroke="#63b8ff" d="M172.25,-110.33C172.25,-103.67 172.25,-94.24 172.25,-85.78"/>
<polygon fill="#63b8ff" stroke="#63b8ff" points="175.75,-85.86 172.25,-75.86 168.75,-85.86 175.75,-85.86"/>
</g>
<!-- Node6&#45;&gt;Node3 -->
<g id="edge6" class="edge">
<title>Node6&#45;&gt;Node3</title>
<path fill="none" stroke="#63b8ff" d="M147.31,-54.84C123.45,-46.2 87.22,-33.07 60.43,-23.37"/>
<polygon fill="#63b8ff" stroke="#63b8ff" points="61.9,-19.82 51.31,-19.7 59.52,-26.4 61.9,-19.82"/>
</g>
<!-- Node6&#45;&gt;Node4 -->
<g id="edge10" class="edge">
<title>Node6&#45;&gt;Node4</title>
<path fill="none" stroke="#63b8ff" d="M159.87,-54.84C149,-46.91 132.97,-35.22 120.12,-25.85"/>
<polygon fill="#63b8ff" stroke="#63b8ff" points="122.59,-22.59 112.45,-19.52 118.47,-28.25 122.59,-22.59"/>
</g>
<!-- Node7 -->
<g id="node7" class="node">
<title>Node7</title>
<g id="a_node7"><a xlink:title=" ">
<polygon fill="#e0e0e0" stroke="#999999" points="323,-19.25 275.5,-19.25 275.5,0 323,0 323,-19.25"/>
<text text-anchor="middle" x="299.25" y="-5.75" font-family="Helvetica,sans-Serif" font-size="10.00">stdint.h</text>
</a>
</g>
</g>
<!-- Node6&#45;&gt;Node7 -->
<g id="edge7" class="edge">
<title>Node6&#45;&gt;Node7</title>
<path fill="none" stroke="#63b8ff" d="M193.79,-54.84C214.05,-46.35 244.6,-33.54 267.62,-23.89"/>
<polygon fill="#63b8ff" stroke="#63b8ff" points="268.73,-26.8 276.6,-19.7 266.02,-20.34 268.73,-26.8"/>
</g>
<!-- Node8 -->
<g id="node8" class="node">
<title>Node8</title>
<g id="a_node8"><a xlink:title=" ">
<polygon fill="#e0e0e0" stroke="#999999" points="195,-19.25 147.5,-19.25 147.5,0 195,0 195,-19.25"/>
<text text-anchor="middle" x="171.25" y="-5.75" font-family="Helvetica,sans-Serif" font-size="10.00">string.h</text>
</a>
</g>
</g>
<!-- Node6&#45;&gt;Node8 -->
<g id="edge8" class="edge">
<title>Node6&#45;&gt;Node8</title>
<path fill="none" stroke="#63b8ff" d="M172.08,-55.08C171.96,-48.42 171.78,-38.99 171.62,-30.53"/>
<polygon fill="#63b8ff" stroke="#63b8ff" points="175.11,-30.54 171.42,-20.61 168.11,-30.67 175.11,-30.54"/>
</g>
<!-- Node9 -->
<g id="node9" class="node">
<title>Node9</title>
<g id="a_node9"><a xlink:title=" ">
<polygon fill="#e0e0e0" stroke="#999999" points="257.88,-19.25 212.62,-19.25 212.62,0 257.88,0 257.88,-19.25"/>
<text text-anchor="middle" x="235.25" y="-5.75" font-family="Helvetica,sans-Serif" font-size="10.00">atomic</text>
</a>
</g>
</g>
<!-- Node6&#45;&gt;Node9 -->
<g id="edge9" class="edge">
<title>Node6&#45;&gt;Node9</title>
<path fill="none" stroke="#63b8ff" d="M182.94,-54.84C192.13,-47.07 205.61,-35.67 216.59,-26.4"/>
<polygon fill="#63b8ff" stroke="#63b8ff" points="218.34,-28.65 223.72,-19.52 213.82,-23.31 218.34,-28.65"/>
</g>
<!-- Node6&#45;&gt;Node10 -->
<g id="edge11" class="edge">
<title>Node6&#45;&gt;Node10</title>
<path fill="none" stroke="#63b8ff" d="M206.01,-54.84C240.52,-45.61 294.15,-31.26 330.89,-21.43"/>
<polygon fill="#63b8ff" stroke="#63b8ff" points="331.48,-24.62 340.24,-18.66 329.67,-17.86 331.48,-24.62"/>
</g>
</g>
</svg>
