<?xml version="1.0" encoding="UTF-8" standalone="no"?>
<!DOCTYPE svg PUBLIC "-//W3C//DTD SVG 1.1//EN"
 "http://www.w3.org/Graphics/SVG/1.1/DTD/svg11.dtd">
<!-- Generated by graphviz version 8.0.5 (20230430.1635)
 -->
<!-- Title: include/v8&#45;microtask&#45;queue.h Pages: 1 -->
<svg width="430pt" height="260pt"
 viewBox="0.00 0.00 430.12 259.50" xmlns="http://www.w3.org/2000/svg" xmlns:xlink="http://www.w3.org/1999/xlink">
<g id="graph0" class="graph" transform="scale(1 1) rotate(0) translate(4 255.5)">
<title>include/v8&#45;microtask&#45;queue.h</title>
<!-- Node1 -->
<g id="node1" class="node">
<title>Node1</title>
<g id="a_node1"><a xlink:title=" ">
<polygon fill="#999999" stroke="#666666" points="299.25,-251.5 193.25,-251.5 193.25,-221 299.25,-221 299.25,-251.5"/>
<text text-anchor="start" x="201.25" y="-238" font-family="Helvetica,sans-Serif" font-size="10.00">include/v8&#45;microtask</text>
<text text-anchor="middle" x="246.25" y="-226.75" font-family="Helvetica,sans-Serif" font-size="10.00">&#45;queue.h</text>
</a>
</g>
</g>
<!-- Node2 -->
<g id="node2" class="node">
<title>Node2</title>
<g id="a_node2"><a xlink:title=" ">
<polygon fill="#e0e0e0" stroke="#999999" points="50.5,-19.25 0,-19.25 0,0 50.5,0 50.5,-19.25"/>
<text text-anchor="middle" x="25.25" y="-5.75" font-family="Helvetica,sans-Serif" font-size="10.00">stddef.h</text>
</a>
</g>
</g>
<!-- Node1&#45;&gt;Node2 -->
<g id="edge1" class="edge">
<title>Node1&#45;&gt;Node2</title>
<path fill="none" stroke="#63b8ff" d="M192.89,-231.08C157.83,-225.66 113.24,-213.26 84.25,-185 40.65,-142.49 29.27,-66.67 26.3,-30.66"/>
<polygon fill="#63b8ff" stroke="#63b8ff" points="29.72,-30.45 25.56,-20.71 22.74,-30.92 29.72,-30.45"/>
</g>
<!-- Node3 -->
<g id="node3" class="node">
<title>Node3</title>
<g id="a_node3"><a xlink:title=" ">
<polygon fill="#e0e0e0" stroke="#999999" points="324.5,-185 274,-185 274,-165.75 324.5,-165.75 324.5,-185"/>
<text text-anchor="middle" x="299.25" y="-171.5" font-family="Helvetica,sans-Serif" font-size="10.00">memory</text>
</a>
</g>
</g>
<!-- Node1&#45;&gt;Node3 -->
<g id="edge2" class="edge">
<title>Node1&#45;&gt;Node3</title>
<path fill="none" stroke="#63b8ff" d="M259.35,-220.7C266.8,-212.42 276.17,-202.02 283.95,-193.37"/>
<polygon fill="#63b8ff" stroke="#63b8ff" points="285.99,-196.23 290.08,-186.45 280.79,-191.54 285.99,-196.23"/>
</g>
<!-- Node4 -->
<g id="node4" class="node">
<title>Node4</title>
<g id="a_node4"><a xlink:href="v8-local-handle_8h.html" target="_top" xlink:title=" ">
<polygon fill="white" stroke="#666666" points="181.62,-185 92.88,-185 92.88,-165.75 181.62,-165.75 181.62,-185"/>
<text text-anchor="middle" x="137.25" y="-171.5" font-family="Helvetica,sans-Serif" font-size="10.00">v8&#45;local&#45;handle.h</text>
</a>
</g>
</g>
<!-- Node1&#45;&gt;Node4 -->
<g id="edge3" class="edge">
<title>Node1&#45;&gt;Node4</title>
<path fill="none" stroke="#63b8ff" d="M219.03,-220.55C201.95,-211.32 180.05,-199.5 163.22,-190.4"/>
<polygon fill="#63b8ff" stroke="#63b8ff" points="165.43,-187.08 154.97,-185.4 162.1,-193.24 165.43,-187.08"/>
</g>
<!-- Node11 -->
<g id="node11" class="node">
<title>Node11</title>
<g id="a_node11"><a xlink:href="v8config_8h.html" target="_top" xlink:title=" ">
<polygon fill="white" stroke="#666666" points="401,-19.25 341.5,-19.25 341.5,0 401,0 401,-19.25"/>
<text text-anchor="middle" x="371.25" y="-5.75" font-family="Helvetica,sans-Serif" font-size="10.00">v8config.h</text>
</a>
</g>
</g>
<!-- Node1&#45;&gt;Node11 -->
<g id="edge15" class="edge">
<title>Node1&#45;&gt;Node11</title>
<path fill="none" stroke="#63b8ff" d="M248.77,-220.65C251.59,-206.24 256.9,-183.8 265.25,-165.75 290.47,-111.22 334.27,-54.86 356.86,-27.53"/>
<polygon fill="#63b8ff" stroke="#63b8ff" points="359.91,-30.33 363.65,-20.42 354.54,-25.84 359.91,-30.33"/>
</g>
<!-- Node12 -->
<g id="node12" class="node">
<title>Node12</title>
<g id="a_node12"><a xlink:href="v8-microtask_8h.html" target="_top" xlink:title=" ">
<polygon fill="white" stroke="#666666" points="422.12,-185 342.38,-185 342.38,-165.75 422.12,-165.75 422.12,-185"/>
<text text-anchor="middle" x="382.25" y="-171.5" font-family="Helvetica,sans-Serif" font-size="10.00">v8&#45;microtask.h</text>
</a>
</g>
</g>
<!-- Node1&#45;&gt;Node12 -->
<g id="edge14" class="edge">
<title>Node1&#45;&gt;Node12</title>
<path fill="none" stroke="#63b8ff" d="M280.22,-220.55C302.02,-211.1 330.12,-198.94 351.31,-189.77"/>
<polygon fill="#63b8ff" stroke="#63b8ff" points="352.61,-192.59 360.39,-185.4 349.83,-186.16 352.61,-192.59"/>
</g>
<!-- Node4&#45;&gt;Node2 -->
<g id="edge4" class="edge">
<title>Node4&#45;&gt;Node2</title>
<path fill="none" stroke="#63b8ff" d="M131.23,-165.57C113.53,-139.69 61.41,-63.5 37.5,-28.53"/>
<polygon fill="#63b8ff" stroke="#63b8ff" points="39.84,-26.75 31.3,-20.47 34.06,-30.7 39.84,-26.75"/>
</g>
<!-- Node5 -->
<g id="node5" class="node">
<title>Node5</title>
<g id="a_node5"><a xlink:title=" ">
<polygon fill="#e0e0e0" stroke="#999999" points="129.75,-19.25 68.75,-19.25 68.75,0 129.75,0 129.75,-19.25"/>
<text text-anchor="middle" x="99.25" y="-5.75" font-family="Helvetica,sans-Serif" font-size="10.00">type_traits</text>
</a>
</g>
</g>
<!-- Node4&#45;&gt;Node5 -->
<g id="edge5" class="edge">
<title>Node4&#45;&gt;Node5</title>
<path fill="none" stroke="#63b8ff" d="M132.93,-165.35C128.85,-156.47 122.83,-142.45 119.25,-129.75 109.6,-95.55 103.96,-54.43 101.25,-30.53"/>
<polygon fill="#63b8ff" stroke="#63b8ff" points="104.64,-30.31 100.1,-20.74 97.68,-31.05 104.64,-30.31"/>
</g>
<!-- Node6 -->
<g id="node6" class="node">
<title>Node6</title>
<g id="a_node6"><a xlink:href="v8-handle-base_8h.html" target="_top" xlink:title=" ">
<polygon fill="white" stroke="#666666" points="218,-129.75 128.5,-129.75 128.5,-110.5 218,-110.5 218,-129.75"/>
<text text-anchor="middle" x="173.25" y="-116.25" font-family="Helvetica,sans-Serif" font-size="10.00">v8&#45;handle&#45;base.h</text>
</a>
</g>
</g>
<!-- Node4&#45;&gt;Node6 -->
<g id="edge6" class="edge">
<title>Node4&#45;&gt;Node6</title>
<path fill="none" stroke="#63b8ff" d="M143.19,-165.58C148.06,-158.38 155.11,-147.96 161.16,-139.01"/>
<polygon fill="#63b8ff" stroke="#63b8ff" points="164.47,-141.35 167.18,-131.11 158.68,-137.43 164.47,-141.35"/>
</g>
<!-- Node7 -->
<g id="node7" class="node">
<title>Node7</title>
<g id="a_node7"><a xlink:href="v8-internal_8h.html" target="_top" xlink:title=" ">
<polygon fill="white" stroke="#666666" points="207.5,-74.5 139,-74.5 139,-55.25 207.5,-55.25 207.5,-74.5"/>
<text text-anchor="middle" x="173.25" y="-61" font-family="Helvetica,sans-Serif" font-size="10.00">v8&#45;internal.h</text>
</a>
</g>
</g>
<!-- Node6&#45;&gt;Node7 -->
<g id="edge7" class="edge">
<title>Node6&#45;&gt;Node7</title>
<path fill="none" stroke="#63b8ff" d="M173.25,-110.33C173.25,-103.67 173.25,-94.24 173.25,-85.78"/>
<polygon fill="#63b8ff" stroke="#63b8ff" points="176.75,-85.86 173.25,-75.86 169.75,-85.86 176.75,-85.86"/>
</g>
<!-- Node7&#45;&gt;Node2 -->
<g id="edge8" class="edge">
<title>Node7&#45;&gt;Node2</title>
<path fill="none" stroke="#63b8ff" d="M148.14,-54.84C124.12,-46.2 87.65,-33.07 60.67,-23.37"/>
<polygon fill="#63b8ff" stroke="#63b8ff" points="62.07,-19.79 51.48,-19.7 59.7,-26.38 62.07,-19.79"/>
</g>
<!-- Node7&#45;&gt;Node5 -->
<g id="edge12" class="edge">
<title>Node7&#45;&gt;Node5</title>
<path fill="none" stroke="#63b8ff" d="M160.7,-54.84C149.68,-46.91 133.43,-35.22 120.41,-25.85"/>
<polygon fill="#63b8ff" stroke="#63b8ff" points="122.78,-22.52 112.62,-19.52 118.69,-28.21 122.78,-22.52"/>
</g>
<!-- Node8 -->
<g id="node8" class="node">
<title>Node8</title>
<g id="a_node8"><a xlink:title=" ">
<polygon fill="#e0e0e0" stroke="#999999" points="195,-19.25 147.5,-19.25 147.5,0 195,0 195,-19.25"/>
<text text-anchor="middle" x="171.25" y="-5.75" font-family="Helvetica,sans-Serif" font-size="10.00">stdint.h</text>
</a>
</g>
</g>
<!-- Node7&#45;&gt;Node8 -->
<g id="edge9" class="edge">
<title>Node7&#45;&gt;Node8</title>
<path fill="none" stroke="#63b8ff" d="M172.92,-55.08C172.67,-48.42 172.32,-38.99 172,-30.53"/>
<polygon fill="#63b8ff" stroke="#63b8ff" points="175.46,-30.47 171.59,-20.61 168.47,-30.73 175.46,-30.47"/>
</g>
<!-- Node9 -->
<g id="node9" class="node">
<title>Node9</title>
<g id="a_node9"><a xlink:title=" ">
<polygon fill="#e0e0e0" stroke="#999999" points="261,-19.25 213.5,-19.25 213.5,0 261,0 261,-19.25"/>
<text text-anchor="middle" x="237.25" y="-5.75" font-family="Helvetica,sans-Serif" font-size="10.00">string.h</text>
</a>
</g>
</g>
<!-- Node7&#45;&gt;Node9 -->
<g id="edge10" class="edge">
<title>Node7&#45;&gt;Node9</title>
<path fill="none" stroke="#63b8ff" d="M184.11,-54.84C193.45,-47.07 207.14,-35.67 218.29,-26.4"/>
<polygon fill="#63b8ff" stroke="#63b8ff" points="220.11,-28.61 225.55,-19.52 215.63,-23.23 220.11,-28.61"/>
</g>
<!-- Node10 -->
<g id="node10" class="node">
<title>Node10</title>
<g id="a_node10"><a xlink:title=" ">
<polygon fill="#e0e0e0" stroke="#999999" points="323.88,-19.25 278.62,-19.25 278.62,0 323.88,0 323.88,-19.25"/>
<text text-anchor="middle" x="301.25" y="-5.75" font-family="Helvetica,sans-Serif" font-size="10.00">atomic</text>
</a>
</g>
</g>
<!-- Node7&#45;&gt;Node10 -->
<g id="edge11" class="edge">
<title>Node7&#45;&gt;Node10</title>
<path fill="none" stroke="#63b8ff" d="M194.96,-54.84C215.37,-46.35 246.17,-33.54 269.37,-23.89"/>
<polygon fill="#63b8ff" stroke="#63b8ff" points="270.54,-26.78 278.43,-19.7 267.85,-20.31 270.54,-26.78"/>
</g>
<!-- Node7&#45;&gt;Node11 -->
<g id="edge13" class="edge">
<title>Node7&#45;&gt;Node11</title>
<path fill="none" stroke="#63b8ff" d="M206.84,-54.84C241.08,-45.63 294.22,-31.34 330.77,-21.51"/>
<polygon fill="#63b8ff" stroke="#63b8ff" points="331.32,-24.72 340.07,-18.74 329.51,-17.96 331.32,-24.72"/>
</g>
</g>
</svg>
