<?xml version="1.0" encoding="UTF-8" standalone="no"?>
<!DOCTYPE svg PUBLIC "-//W3C//DTD SVG 1.1//EN"
 "http://www.w3.org/Graphics/SVG/1.1/DTD/svg11.dtd">
<!-- Generated by graphviz version 8.0.5 (20230430.1635)
 -->
<!-- Title: include/v8&#45;snapshot.h Pages: 1 -->
<svg width="410pt" height="248pt"
 viewBox="0.00 0.00 410.00 248.25" xmlns="http://www.w3.org/2000/svg" xmlns:xlink="http://www.w3.org/1999/xlink">
<g id="graph0" class="graph" transform="scale(1 1) rotate(0) translate(4 244.25)">
<title>include/v8&#45;snapshot.h</title>
<!-- Node1 -->
<g id="node1" class="node">
<title>Node1</title>
<g id="a_node1"><a xlink:title=" ">
<polygon fill="#999999" stroke="#666666" points="212,-240.25 101.5,-240.25 101.5,-221 212,-221 212,-240.25"/>
<text text-anchor="middle" x="156.75" y="-226.75" font-family="Helvetica,sans-Serif" font-size="10.00">include/v8&#45;snapshot.h</text>
</a>
</g>
</g>
<!-- Node2 -->
<g id="node2" class="node">
<title>Node2</title>
<g id="a_node2"><a xlink:href="v8-internal_8h.html" target="_top" xlink:title=" ">
<polygon fill="white" stroke="#666666" points="227,-74.5 158.5,-74.5 158.5,-55.25 227,-55.25 227,-74.5"/>
<text text-anchor="middle" x="192.75" y="-61" font-family="Helvetica,sans-Serif" font-size="10.00">v8&#45;internal.h</text>
</a>
</g>
</g>
<!-- Node1&#45;&gt;Node2 -->
<g id="edge1" class="edge">
<title>Node1&#45;&gt;Node2</title>
<path fill="none" stroke="#63b8ff" d="M157.56,-220.53C159.48,-200.41 164.99,-150.76 175.75,-110.5 178.05,-101.9 181.41,-92.66 184.54,-84.83"/>
<polygon fill="#63b8ff" stroke="#63b8ff" points="188.05,-86.5 188.67,-75.92 181.59,-83.81 188.05,-86.5"/>
</g>
<!-- Node8 -->
<g id="node8" class="node">
<title>Node8</title>
<g id="a_node8"><a xlink:href="v8config_8h.html" target="_top" xlink:title=" ">
<polygon fill="white" stroke="#666666" points="59.5,-19.25 0,-19.25 0,0 59.5,0 59.5,-19.25"/>
<text text-anchor="middle" x="29.75" y="-5.75" font-family="Helvetica,sans-Serif" font-size="10.00">v8config.h</text>
</a>
</g>
</g>
<!-- Node1&#45;&gt;Node8 -->
<g id="edge13" class="edge">
<title>Node1&#45;&gt;Node8</title>
<path fill="none" stroke="#63b8ff" d="M151.61,-220.77C132.63,-188.02 66.15,-73.39 40.22,-28.68"/>
<polygon fill="#63b8ff" stroke="#63b8ff" points="42.85,-27.25 34.81,-20.35 36.8,-30.76 42.85,-27.25"/>
</g>
<!-- Node9 -->
<g id="node9" class="node">
<title>Node9</title>
<g id="a_node9"><a xlink:href="v8-local-handle_8h.html" target="_top" xlink:title=" ">
<polygon fill="white" stroke="#666666" points="310.12,-185 221.38,-185 221.38,-165.75 310.12,-165.75 310.12,-185"/>
<text text-anchor="middle" x="265.75" y="-171.5" font-family="Helvetica,sans-Serif" font-size="10.00">v8&#45;local&#45;handle.h</text>
</a>
</g>
</g>
<!-- Node1&#45;&gt;Node9 -->
<g id="edge8" class="edge">
<title>Node1&#45;&gt;Node9</title>
<path fill="none" stroke="#63b8ff" d="M175.24,-220.59C192.31,-212.25 217.91,-199.75 237.53,-190.16"/>
<polygon fill="#63b8ff" stroke="#63b8ff" points="238.72,-192.99 246.17,-185.45 235.65,-186.7 238.72,-192.99"/>
</g>
<!-- Node3 -->
<g id="node3" class="node">
<title>Node3</title>
<g id="a_node3"><a xlink:title=" ">
<polygon fill="#e0e0e0" stroke="#999999" points="402,-19.25 351.5,-19.25 351.5,0 402,0 402,-19.25"/>
<text text-anchor="middle" x="376.75" y="-5.75" font-family="Helvetica,sans-Serif" font-size="10.00">stddef.h</text>
</a>
</g>
</g>
<!-- Node2&#45;&gt;Node3 -->
<g id="edge2" class="edge">
<title>Node2&#45;&gt;Node3</title>
<path fill="none" stroke="#63b8ff" d="M223.96,-54.84C256.25,-45.5 306.62,-30.92 340.62,-21.08"/>
<polygon fill="#63b8ff" stroke="#63b8ff" points="341.4,-24.21 350.03,-18.07 339.46,-17.49 341.4,-24.21"/>
</g>
<!-- Node4 -->
<g id="node4" class="node">
<title>Node4</title>
<g id="a_node4"><a xlink:title=" ">
<polygon fill="#e0e0e0" stroke="#999999" points="125.5,-19.25 78,-19.25 78,0 125.5,0 125.5,-19.25"/>
<text text-anchor="middle" x="101.75" y="-5.75" font-family="Helvetica,sans-Serif" font-size="10.00">stdint.h</text>
</a>
</g>
</g>
<!-- Node2&#45;&gt;Node4 -->
<g id="edge3" class="edge">
<title>Node2&#45;&gt;Node4</title>
<path fill="none" stroke="#63b8ff" d="M177.31,-54.84C163.46,-46.73 142.86,-34.68 126.67,-25.21"/>
<polygon fill="#63b8ff" stroke="#63b8ff" points="128.66,-21.73 118.26,-19.7 125.13,-27.77 128.66,-21.73"/>
</g>
<!-- Node5 -->
<g id="node5" class="node">
<title>Node5</title>
<g id="a_node5"><a xlink:title=" ">
<polygon fill="#e0e0e0" stroke="#999999" points="191.5,-19.25 144,-19.25 144,0 191.5,0 191.5,-19.25"/>
<text text-anchor="middle" x="167.75" y="-5.75" font-family="Helvetica,sans-Serif" font-size="10.00">string.h</text>
</a>
</g>
</g>
<!-- Node2&#45;&gt;Node5 -->
<g id="edge4" class="edge">
<title>Node2&#45;&gt;Node5</title>
<path fill="none" stroke="#63b8ff" d="M188.62,-55.08C185.35,-48.11 180.66,-38.12 176.55,-29.37"/>
<polygon fill="#63b8ff" stroke="#63b8ff" points="179.39,-28.17 171.97,-20.61 173.05,-31.15 179.39,-28.17"/>
</g>
<!-- Node6 -->
<g id="node6" class="node">
<title>Node6</title>
<g id="a_node6"><a xlink:title=" ">
<polygon fill="#e0e0e0" stroke="#999999" points="254.38,-19.25 209.12,-19.25 209.12,0 254.38,0 254.38,-19.25"/>
<text text-anchor="middle" x="231.75" y="-5.75" font-family="Helvetica,sans-Serif" font-size="10.00">atomic</text>
</a>
</g>
</g>
<!-- Node2&#45;&gt;Node6 -->
<g id="edge5" class="edge">
<title>Node2&#45;&gt;Node6</title>
<path fill="none" stroke="#63b8ff" d="M199.19,-55.08C204.52,-47.8 212.26,-37.23 218.86,-28.23"/>
<polygon fill="#63b8ff" stroke="#63b8ff" points="222.08,-30.74 225.17,-20.61 216.44,-26.61 222.08,-30.74"/>
</g>
<!-- Node7 -->
<g id="node7" class="node">
<title>Node7</title>
<g id="a_node7"><a xlink:title=" ">
<polygon fill="#e0e0e0" stroke="#999999" points="333.25,-19.25 272.25,-19.25 272.25,0 333.25,0 333.25,-19.25"/>
<text text-anchor="middle" x="302.75" y="-5.75" font-family="Helvetica,sans-Serif" font-size="10.00">type_traits</text>
</a>
</g>
</g>
<!-- Node2&#45;&gt;Node7 -->
<g id="edge6" class="edge">
<title>Node2&#45;&gt;Node7</title>
<path fill="none" stroke="#63b8ff" d="M211.41,-54.84C228.64,-46.5 254.47,-34 274.27,-24.41"/>
<polygon fill="#63b8ff" stroke="#63b8ff" points="275.52,-27.21 283,-19.7 272.47,-20.91 275.52,-27.21"/>
</g>
<!-- Node2&#45;&gt;Node8 -->
<g id="edge7" class="edge">
<title>Node2&#45;&gt;Node8</title>
<path fill="none" stroke="#63b8ff" d="M165.1,-54.84C138.4,-46.12 97.76,-32.84 67.97,-23.11"/>
<polygon fill="#63b8ff" stroke="#63b8ff" points="69.13,-19.48 58.54,-19.7 66.96,-26.13 69.13,-19.48"/>
</g>
<!-- Node9&#45;&gt;Node3 -->
<g id="edge9" class="edge">
<title>Node9&#45;&gt;Node3</title>
<path fill="none" stroke="#63b8ff" d="M272.99,-165.3C280.03,-156.39 290.9,-142.34 299.75,-129.75 324.29,-94.82 350.9,-52.57 365.53,-28.94"/>
<polygon fill="#63b8ff" stroke="#63b8ff" points="368.92,-31.1 371.19,-20.75 362.96,-27.43 368.92,-31.1"/>
</g>
<!-- Node9&#45;&gt;Node7 -->
<g id="edge10" class="edge">
<title>Node9&#45;&gt;Node7</title>
<path fill="none" stroke="#63b8ff" d="M270.09,-165.35C274.19,-156.49 280.22,-142.47 283.75,-129.75 293.24,-95.55 298.49,-54.43 300.96,-30.54"/>
<polygon fill="#63b8ff" stroke="#63b8ff" points="304.52,-31.03 302,-20.74 297.56,-30.36 304.52,-31.03"/>
</g>
<!-- Node10 -->
<g id="node10" class="node">
<title>Node10</title>
<g id="a_node10"><a xlink:href="v8-handle-base_8h.html" target="_top" xlink:title=" ">
<polygon fill="white" stroke="#666666" points="274.5,-129.75 185,-129.75 185,-110.5 274.5,-110.5 274.5,-129.75"/>
<text text-anchor="middle" x="229.75" y="-116.25" font-family="Helvetica,sans-Serif" font-size="10.00">v8&#45;handle&#45;base.h</text>
</a>
</g>
</g>
<!-- Node9&#45;&gt;Node10 -->
<g id="edge11" class="edge">
<title>Node9&#45;&gt;Node10</title>
<path fill="none" stroke="#63b8ff" d="M259.81,-165.58C254.94,-158.38 247.89,-147.96 241.84,-139.01"/>
<polygon fill="#63b8ff" stroke="#63b8ff" points="244.32,-137.43 235.82,-131.11 238.53,-141.35 244.32,-137.43"/>
</g>
<!-- Node10&#45;&gt;Node2 -->
<g id="edge12" class="edge">
<title>Node10&#45;&gt;Node2</title>
<path fill="none" stroke="#63b8ff" d="M223.64,-110.33C218.64,-103.13 211.39,-92.71 205.18,-83.76"/>
<polygon fill="#63b8ff" stroke="#63b8ff" points="207.57,-82.07 198.99,-75.86 201.82,-86.07 207.57,-82.07"/>
</g>
</g>
</svg>
