<?xml version="1.0" encoding="UTF-8" standalone="no"?>
<!DOCTYPE svg PUBLIC "-//W3C//DTD SVG 1.1//EN"
 "http://www.w3.org/Graphics/SVG/1.1/DTD/svg11.dtd">
<!-- Generated by graphviz version 8.0.5 (20230430.1635)
 -->
<!-- Title: v8::Maybe::operator== Pages: 1 -->
<svg width="264pt" height="76pt"
 viewBox="0.00 0.00 263.50 75.88" xmlns="http://www.w3.org/2000/svg" xmlns:xlink="http://www.w3.org/1999/xlink">
<g id="graph0" class="graph" transform="scale(1 1) rotate(0) translate(4 71.88)">
<title>v8::Maybe::operator==</title>
<!-- Node1 -->
<g id="node1" class="node">
<title>Node1</title>
<g id="a_node1"><a xlink:title=" ">
<polygon fill="#999999" stroke="#666666" points="255.5,-45.88 144.25,-45.88 144.25,-26.62 255.5,-26.62 255.5,-45.88"/>
<text text-anchor="middle" x="199.88" y="-32.38" font-family="Helvetica,sans-Serif" font-size="10.00">v8::Maybe::operator==</text>
</a>
</g>
</g>
<!-- Node2 -->
<g id="node2" class="node">
<title>Node2</title>
<g id="a_node2"><a xlink:href="classv8_1_1Maybe.html#a4d4ac6c3387f7148ea3b6ec6864b4940" target="_top" xlink:title=" ">
<polygon fill="white" stroke="#666666" points="108.25,-67.88 0,-67.88 0,-48.62 108.25,-48.62 108.25,-67.88"/>
<text text-anchor="middle" x="54.12" y="-54.38" font-family="Helvetica,sans-Serif" font-size="10.00">v8::Maybe::operator!=</text>
</a>
</g>
</g>
<!-- Node1&#45;&gt;Node2 -->
<g id="edge1" class="edge">
<title>Node1&#45;&gt;Node2</title>
<path fill="none" stroke="#63b8ff" d="M133.53,-46.25C125.08,-47.54 116.52,-48.85 108.3,-50.11"/>
<polygon fill="#63b8ff" stroke="#63b8ff" points="133.76,-49.6 143.12,-44.63 132.7,-42.68 133.76,-49.6"/>
</g>
<!-- Node3 -->
<g id="node3" class="node">
<title>Node3</title>
<g id="a_node3"><a xlink:href="classv8_1_1Maybe_3_01void_01_4.html#aaf837c2e394c2e9c13ee64589da50c7e" target="_top" xlink:title=" ">
<polygon fill="white" stroke="#666666" points="103.38,-30.5 4.87,-30.5 4.87,0 103.38,0 103.38,-30.5"/>
<text text-anchor="start" x="12.88" y="-17" font-family="Helvetica,sans-Serif" font-size="10.00">v8::Maybe&lt; void &gt;::</text>
<text text-anchor="middle" x="54.12" y="-5.75" font-family="Helvetica,sans-Serif" font-size="10.00">operator!=</text>
</a>
</g>
</g>
<!-- Node1&#45;&gt;Node3 -->
<g id="edge2" class="edge">
<title>Node1&#45;&gt;Node3</title>
<path fill="none" stroke="#63b8ff" d="M133.36,-26.68C123.35,-25.22 113.17,-23.73 103.61,-22.33"/>
<polygon fill="#63b8ff" stroke="#63b8ff" points="132.72,-30.27 143.12,-28.25 133.73,-23.34 132.72,-30.27"/>
</g>
</g>
</svg>
