<?xml version="1.0" encoding="UTF-8" standalone="no"?>
<!DOCTYPE svg PUBLIC "-//W3C//DTD SVG 1.1//EN"
 "http://www.w3.org/Graphics/SVG/1.1/DTD/svg11.dtd">
<!-- Generated by graphviz version 8.0.5 (20230430.1635)
 -->
<!-- Title: include/v8&#45;debug.h Pages: 1 -->
<svg width="1494pt" height="635pt"
 viewBox="0.00 0.00 1494.00 635.00" xmlns="http://www.w3.org/2000/svg" xmlns:xlink="http://www.w3.org/1999/xlink">
<g id="graph0" class="graph" transform="scale(1 1) rotate(0) translate(4 631)">
<title>include/v8&#45;debug.h</title>
<!-- Node1 -->
<g id="node1" class="node">
<title>Node1</title>
<g id="a_node1"><a xlink:title=" ">
<polygon fill="#999999" stroke="#666666" points="1186.5,-627 1089.5,-627 1089.5,-607.75 1186.5,-607.75 1186.5,-627"/>
<text text-anchor="middle" x="1138" y="-613.5" font-family="Helvetica,sans-Serif" font-size="10.00">include/v8&#45;debug.h</text>
</a>
</g>
</g>
<!-- Node2 -->
<g id="node2" class="node">
<title>Node2</title>
<g id="a_node2"><a xlink:title=" ">
<polygon fill="#e0e0e0" stroke="#999999" points="1394.75,-19.25 1347.25,-19.25 1347.25,0 1394.75,0 1394.75,-19.25"/>
<text text-anchor="middle" x="1371" y="-5.75" font-family="Helvetica,sans-Serif" font-size="10.00">stdint.h</text>
</a>
</g>
</g>
<!-- Node1&#45;&gt;Node2 -->
<g id="edge1" class="edge">
<title>Node1&#45;&gt;Node2</title>
<path fill="none" stroke="#63b8ff" d="M1186.75,-611.47C1282.53,-600.47 1486,-569.82 1486,-507.88 1486,-507.88 1486,-507.88 1486,-119.12 1486,-73.28 1437.05,-41.07 1403.03,-24.22"/>
<polygon fill="#63b8ff" stroke="#63b8ff" points="1404.98,-20.8 1394.45,-19.68 1401.98,-27.13 1404.98,-20.8"/>
</g>
<!-- Node3 -->
<g id="node3" class="node">
<title>Node3</title>
<g id="a_node3"><a xlink:href="v8-script_8h.html" target="_top" xlink:title=" ">
<polygon fill="white" stroke="#666666" points="1168.5,-571.75 1107.5,-571.75 1107.5,-552.5 1168.5,-552.5 1168.5,-571.75"/>
<text text-anchor="middle" x="1138" y="-558.25" font-family="Helvetica,sans-Serif" font-size="10.00">v8&#45;script.h</text>
</a>
</g>
</g>
<!-- Node1&#45;&gt;Node3 -->
<g id="edge2" class="edge">
<title>Node1&#45;&gt;Node3</title>
<path fill="none" stroke="#63b8ff" d="M1138,-607.58C1138,-600.92 1138,-591.49 1138,-583.03"/>
<polygon fill="#63b8ff" stroke="#63b8ff" points="1141.5,-583.11 1138,-573.11 1134.5,-583.11 1141.5,-583.11"/>
</g>
<!-- Node12 -->
<g id="node12" class="node">
<title>Node12</title>
<g id="a_node12"><a xlink:href="v8config_8h.html" target="_top" xlink:title=" ">
<polygon fill="white" stroke="#666666" points="427.75,-19.25 368.25,-19.25 368.25,0 427.75,0 427.75,-19.25"/>
<text text-anchor="middle" x="398" y="-5.75" font-family="Helvetica,sans-Serif" font-size="10.00">v8config.h</text>
</a>
</g>
</g>
<!-- Node1&#45;&gt;Node12 -->
<g id="edge82" class="edge">
<title>Node1&#45;&gt;Node12</title>
<path fill="none" stroke="#63b8ff" d="M1089.1,-616.92C871.28,-618.73 0,-619.02 0,-507.88 0,-507.88 0,-507.88 0,-119.12 0,-73.97 37.58,-73.23 79,-55.25 128.16,-33.92 282.51,-19.51 357,-13.62"/>
<polygon fill="#63b8ff" stroke="#63b8ff" points="357.11,-17.05 366.81,-12.78 356.57,-10.07 357.11,-17.05"/>
</g>
<!-- Node3&#45;&gt;Node2 -->
<g id="edge4" class="edge">
<title>Node3&#45;&gt;Node2</title>
<path fill="none" stroke="#63b8ff" d="M1168.9,-560.45C1235.7,-558.37 1390.62,-549.96 1429,-516.5 1451.33,-497.04 1448,-482.24 1448,-452.62 1448,-452.62 1448,-452.62 1448,-119.12 1448,-80.18 1414.59,-45.47 1391.79,-26.31"/>
<polygon fill="#63b8ff" stroke="#63b8ff" points="1394.35,-23.07 1384.37,-19.52 1389.96,-28.52 1394.35,-23.07"/>
</g>
<!-- Node4 -->
<g id="node4" class="node">
<title>Node4</title>
<g id="a_node4"><a xlink:title=" ">
<polygon fill="#e0e0e0" stroke="#999999" points="1253.25,-19.25 1202.75,-19.25 1202.75,0 1253.25,0 1253.25,-19.25"/>
<text text-anchor="middle" x="1228" y="-5.75" font-family="Helvetica,sans-Serif" font-size="10.00">stddef.h</text>
</a>
</g>
</g>
<!-- Node3&#45;&gt;Node4 -->
<g id="edge3" class="edge">
<title>Node3&#45;&gt;Node4</title>
<path fill="none" stroke="#63b8ff" d="M1163.1,-552.06C1230.44,-526.97 1410,-454.7 1410,-397.38 1410,-397.38 1410,-397.38 1410,-119.12 1410,-51.98 1317.49,-25.43 1264.38,-15.72"/>
<polygon fill="#63b8ff" stroke="#63b8ff" points="1265.14,-12.12 1254.69,-13.89 1263.96,-19.02 1265.14,-12.12"/>
</g>
<!-- Node5 -->
<g id="node5" class="node">
<title>Node5</title>
<g id="a_node5"><a xlink:title=" ">
<polygon fill="#e0e0e0" stroke="#999999" points="1344.25,-185 1293.75,-185 1293.75,-165.75 1344.25,-165.75 1344.25,-185"/>
<text text-anchor="middle" x="1319" y="-171.5" font-family="Helvetica,sans-Serif" font-size="10.00">memory</text>
</a>
</g>
</g>
<!-- Node3&#45;&gt;Node5 -->
<g id="edge5" class="edge">
<title>Node3&#45;&gt;Node5</title>
<path fill="none" stroke="#63b8ff" d="M1160.45,-552.07C1193.91,-536.9 1253,-502.99 1253,-452.62 1253,-452.62 1253,-452.62 1253,-284.88 1253,-247.83 1281.42,-212.68 1300.97,-192.89"/>
<polygon fill="#63b8ff" stroke="#63b8ff" points="1302.95,-195.87 1307.69,-186.39 1298.08,-190.85 1302.95,-195.87"/>
</g>
<!-- Node6 -->
<g id="node6" class="node">
<title>Node6</title>
<g id="a_node6"><a xlink:title=" ">
<polygon fill="#e0e0e0" stroke="#999999" points="1358.5,-516.5 1321.5,-516.5 1321.5,-497.25 1358.5,-497.25 1358.5,-516.5"/>
<text text-anchor="middle" x="1340" y="-503" font-family="Helvetica,sans-Serif" font-size="10.00">tuple</text>
</a>
</g>
</g>
<!-- Node3&#45;&gt;Node6 -->
<g id="edge6" class="edge">
<title>Node3&#45;&gt;Node6</title>
<path fill="none" stroke="#63b8ff" d="M1168.68,-553.04C1207.25,-542.87 1272.99,-525.54 1310.84,-515.56"/>
<polygon fill="#63b8ff" stroke="#63b8ff" points="1311.4,-518.77 1320.18,-512.84 1309.62,-512 1311.4,-518.77"/>
</g>
<!-- Node7 -->
<g id="node7" class="node">
<title>Node7</title>
<g id="a_node7"><a xlink:title=" ">
<polygon fill="#e0e0e0" stroke="#999999" points="1419.5,-516.5 1376.5,-516.5 1376.5,-497.25 1419.5,-497.25 1419.5,-516.5"/>
<text text-anchor="middle" x="1398" y="-503" font-family="Helvetica,sans-Serif" font-size="10.00">vector</text>
</a>
</g>
</g>
<!-- Node3&#45;&gt;Node7 -->
<g id="edge7" class="edge">
<title>Node3&#45;&gt;Node7</title>
<path fill="none" stroke="#63b8ff" d="M1168.69,-556.06C1210.98,-548.89 1289.72,-534.85 1365.44,-516.96"/>
<polygon fill="#63b8ff" stroke="#63b8ff" points="1366.19,-520.14 1375.1,-514.41 1364.56,-513.33 1366.19,-520.14"/>
</g>
<!-- Node8 -->
<g id="node8" class="node">
<title>Node8</title>
<g id="a_node8"><a xlink:href="v8-callbacks_8h.html" target="_top" xlink:title=" ">
<polygon fill="white" stroke="#666666" points="880.12,-516.5 801.88,-516.5 801.88,-497.25 880.12,-497.25 880.12,-516.5"/>
<text text-anchor="middle" x="841" y="-503" font-family="Helvetica,sans-Serif" font-size="10.00">v8&#45;callbacks.h</text>
</a>
</g>
</g>
<!-- Node3&#45;&gt;Node8 -->
<g id="edge8" class="edge">
<title>Node3&#45;&gt;Node8</title>
<path fill="none" stroke="#63b8ff" d="M1107.06,-555.58C1055.76,-546.38 952.66,-527.89 890.95,-516.83"/>
<polygon fill="#63b8ff" stroke="#63b8ff" points="891.76,-513.24 881.3,-514.92 890.52,-520.13 891.76,-513.24"/>
</g>
<!-- Node3&#45;&gt;Node12 -->
<g id="edge81" class="edge">
<title>Node3&#45;&gt;Node12</title>
<path fill="none" stroke="#63b8ff" d="M1107.14,-561.4C928.81,-562.62 38,-563.15 38,-452.62 38,-452.62 38,-452.62 38,-119.12 38,-53.1 262.76,-23.68 357.09,-14.23"/>
<polygon fill="#63b8ff" stroke="#63b8ff" points="357.31,-17.63 366.93,-13.18 356.63,-10.66 357.31,-17.63"/>
</g>
<!-- Node13 -->
<g id="node13" class="node">
<title>Node13</title>
<g id="a_node13"><a xlink:href="v8-data_8h.html" target="_top" xlink:title=" ">
<polygon fill="white" stroke="#666666" points="481.88,-240.25 426.12,-240.25 426.12,-221 481.88,-221 481.88,-240.25"/>
<text text-anchor="middle" x="454" y="-226.75" font-family="Helvetica,sans-Serif" font-size="10.00">v8&#45;data.h</text>
</a>
</g>
</g>
<!-- Node3&#45;&gt;Node13 -->
<g id="edge71" class="edge">
<title>Node3&#45;&gt;Node13</title>
<path fill="none" stroke="#63b8ff" d="M1107.01,-561.41C994.97,-562.07 611.62,-560.96 499,-516.5 397.24,-476.32 354.22,-453.63 317,-350.75 298.26,-298.95 368.97,-262.35 415.72,-244.35"/>
<polygon fill="#63b8ff" stroke="#63b8ff" points="416.71,-247.34 424.87,-240.58 414.28,-240.78 416.71,-247.34"/>
</g>
<!-- Node14 -->
<g id="node14" class="node">
<title>Node14</title>
<g id="a_node14"><a xlink:href="v8-local-handle_8h.html" target="_top" xlink:title=" ">
<polygon fill="white" stroke="#666666" points="1048.38,-185 959.62,-185 959.62,-165.75 1048.38,-165.75 1048.38,-185"/>
<text text-anchor="middle" x="1004" y="-171.5" font-family="Helvetica,sans-Serif" font-size="10.00">v8&#45;local&#45;handle.h</text>
</a>
</g>
</g>
<!-- Node3&#45;&gt;Node14 -->
<g id="edge72" class="edge">
<title>Node3&#45;&gt;Node14</title>
<path fill="none" stroke="#63b8ff" d="M1138,-552.12C1138,-533.53 1138,-489.55 1138,-452.62 1138,-452.62 1138,-452.62 1138,-340.12 1138,-271.89 1067.45,-216.46 1028.73,-191.18"/>
<polygon fill="#63b8ff" stroke="#63b8ff" points="1030.95,-187.81 1020.63,-185.42 1027.21,-193.73 1030.95,-187.81"/>
</g>
<!-- Node23 -->
<g id="node23" class="node">
<title>Node23</title>
<g id="a_node23"><a xlink:href="v8-maybe_8h.html" target="_top" xlink:title=" ">
<polygon fill="white" stroke="#666666" points="612.75,-240.25 547.25,-240.25 547.25,-221 612.75,-221 612.75,-240.25"/>
<text text-anchor="middle" x="580" y="-226.75" font-family="Helvetica,sans-Serif" font-size="10.00">v8&#45;maybe.h</text>
</a>
</g>
</g>
<!-- Node3&#45;&gt;Node23 -->
<g id="edge73" class="edge">
<title>Node3&#45;&gt;Node23</title>
<path fill="none" stroke="#63b8ff" d="M1107.32,-558.73C986.75,-548.94 552,-509.66 552,-452.62 552,-452.62 552,-452.62 552,-340.12 552,-307.97 563.67,-272.1 571.95,-250.73"/>
<polygon fill="#63b8ff" stroke="#63b8ff" points="575.49,-252.29 575.99,-241.71 569,-249.67 575.49,-252.29"/>
</g>
<!-- Node31 -->
<g id="node31" class="node">
<title>Node31</title>
<g id="a_node31"><a xlink:href="v8-message_8h.html" target="_top" xlink:title=" ">
<polygon fill="white" stroke="#666666" points="448.38,-406 371.62,-406 371.62,-386.75 448.38,-386.75 448.38,-406"/>
<text text-anchor="middle" x="410" y="-392.5" font-family="Helvetica,sans-Serif" font-size="10.00">v8&#45;message.h</text>
</a>
</g>
</g>
<!-- Node3&#45;&gt;Node31 -->
<g id="edge74" class="edge">
<title>Node3&#45;&gt;Node31</title>
<path fill="none" stroke="#63b8ff" d="M1107.14,-561.05C999.89,-560.43 644.16,-555.42 538,-516.5 485.22,-497.15 441.83,-443.47 421.85,-415.24"/>
<polygon fill="#63b8ff" stroke="#63b8ff" points="424.34,-413.68 415.79,-407.42 418.57,-417.64 424.34,-413.68"/>
</g>
<!-- Node8&#45;&gt;Node4 -->
<g id="edge9" class="edge">
<title>Node8&#45;&gt;Node4</title>
<path fill="none" stroke="#63b8ff" d="M880.48,-506.2C1003.54,-506.17 1372,-497.7 1372,-397.38 1372,-397.38 1372,-397.38 1372,-119.12 1372,-65.16 1306.7,-34.68 1264.05,-20.52"/>
<polygon fill="#63b8ff" stroke="#63b8ff" points="1265.33,-16.94 1254.74,-17.27 1263.23,-23.61 1265.33,-16.94"/>
</g>
<!-- Node9 -->
<g id="node9" class="node">
<title>Node9</title>
<g id="a_node9"><a xlink:title=" ">
<polygon fill="#e0e0e0" stroke="#999999" points="870,-461.25 812,-461.25 812,-442 870,-442 870,-461.25"/>
<text text-anchor="middle" x="841" y="-447.75" font-family="Helvetica,sans-Serif" font-size="10.00">functional</text>
</a>
</g>
</g>
<!-- Node8&#45;&gt;Node9 -->
<g id="edge10" class="edge">
<title>Node8&#45;&gt;Node9</title>
<path fill="none" stroke="#63b8ff" d="M841,-497.08C841,-490.42 841,-480.99 841,-472.53"/>
<polygon fill="#63b8ff" stroke="#63b8ff" points="844.5,-472.61 841,-462.61 837.5,-472.61 844.5,-472.61"/>
</g>
<!-- Node10 -->
<g id="node10" class="node">
<title>Node10</title>
<g id="a_node10"><a xlink:title=" ">
<polygon fill="#e0e0e0" stroke="#999999" points="928,-461.25 888,-461.25 888,-442 928,-442 928,-461.25"/>
<text text-anchor="middle" x="908" y="-447.75" font-family="Helvetica,sans-Serif" font-size="10.00">string</text>
</a>
</g>
</g>
<!-- Node8&#45;&gt;Node10 -->
<g id="edge11" class="edge">
<title>Node8&#45;&gt;Node10</title>
<path fill="none" stroke="#63b8ff" d="M852.37,-496.84C862.24,-488.99 876.77,-477.45 888.5,-468.12"/>
<polygon fill="#63b8ff" stroke="#63b8ff" points="890.15,-470.49 895.8,-461.52 885.8,-465.01 890.15,-470.49"/>
</g>
<!-- Node11 -->
<g id="node11" class="node">
<title>Node11</title>
<g id="a_node11"><a xlink:href="common_8h.html" target="_top" xlink:title=" ">
<polygon fill="white" stroke="#666666" points="156.12,-295.5 65.88,-295.5 65.88,-276.25 156.12,-276.25 156.12,-295.5"/>
<text text-anchor="middle" x="111" y="-282" font-family="Helvetica,sans-Serif" font-size="10.00">cppgc/common.h</text>
</a>
</g>
</g>
<!-- Node8&#45;&gt;Node11 -->
<g id="edge12" class="edge">
<title>Node8&#45;&gt;Node11</title>
<path fill="none" stroke="#63b8ff" d="M801.41,-505.71C685.47,-504.79 348.47,-498.86 246,-461.25 206.8,-446.86 196.94,-437.91 170,-406 144.04,-375.24 126.07,-331.11 117.25,-306.1"/>
<polygon fill="#63b8ff" stroke="#63b8ff" points="120.28,-305.13 113.75,-296.78 113.65,-307.38 120.28,-305.13"/>
</g>
<!-- Node8&#45;&gt;Node12 -->
<g id="edge70" class="edge">
<title>Node8&#45;&gt;Node12</title>
<path fill="none" stroke="#63b8ff" d="M801.38,-504.57C659.34,-498.84 184,-470.11 184,-342.12 184,-342.12 184,-342.12 184,-119.12 184,-42.3 295.07,-19.86 357.17,-13.31"/>
<polygon fill="#63b8ff" stroke="#63b8ff" points="357.17,-16.73 366.79,-12.3 356.51,-9.76 357.17,-16.73"/>
</g>
<!-- Node8&#45;&gt;Node13 -->
<g id="edge14" class="edge">
<title>Node8&#45;&gt;Node13</title>
<path fill="none" stroke="#63b8ff" d="M801.59,-502.58C707.21,-493.6 476,-464.72 476,-397.38 476,-397.38 476,-397.38 476,-340.12 476,-308.34 466.82,-272.34 460.32,-250.84"/>
<polygon fill="#63b8ff" stroke="#63b8ff" points="463.4,-249.99 457.06,-241.5 456.73,-252.09 463.4,-249.99"/>
</g>
<!-- Node8&#45;&gt;Node14 -->
<g id="edge28" class="edge">
<title>Node8&#45;&gt;Node14</title>
<path fill="none" stroke="#63b8ff" d="M880.51,-503.9C944.08,-498.36 1062,-477.3 1062,-397.38 1062,-397.38 1062,-397.38 1062,-284.88 1062,-249.13 1037.21,-213.75 1020.04,-193.53"/>
<polygon fill="#63b8ff" stroke="#63b8ff" points="1023.06,-191.53 1013.81,-186.36 1017.82,-196.17 1023.06,-191.53"/>
</g>
<!-- Node21 -->
<g id="node21" class="node">
<title>Node21</title>
<g id="a_node21"><a xlink:href="v8-promise_8h.html" target="_top" xlink:title=" ">
<polygon fill="white" stroke="#666666" points="793.75,-461.25 722.25,-461.25 722.25,-442 793.75,-442 793.75,-461.25"/>
<text text-anchor="middle" x="758" y="-447.75" font-family="Helvetica,sans-Serif" font-size="10.00">v8&#45;promise.h</text>
</a>
</g>
</g>
<!-- Node8&#45;&gt;Node21 -->
<g id="edge29" class="edge">
<title>Node8&#45;&gt;Node21</title>
<path fill="none" stroke="#63b8ff" d="M826.92,-496.84C814.4,-488.81 795.85,-476.91 781.15,-467.48"/>
<polygon fill="#63b8ff" stroke="#63b8ff" points="783.46,-464.16 773.15,-461.7 779.68,-470.05 783.46,-464.16"/>
</g>
<!-- Node11&#45;&gt;Node12 -->
<g id="edge13" class="edge">
<title>Node11&#45;&gt;Node12</title>
<path fill="none" stroke="#63b8ff" d="M113.5,-275.96C118.45,-257.52 129,-213.8 129,-176.38 129,-176.38 129,-176.38 129,-119.12 129,-85.39 142.1,-74.21 170,-55.25 199.95,-34.9 300.03,-21.15 357.14,-14.75"/>
<polygon fill="#63b8ff" stroke="#63b8ff" points="357.4,-18.13 366.96,-13.56 356.64,-11.17 357.4,-18.13"/>
</g>
<!-- Node13&#45;&gt;Node12 -->
<g id="edge27" class="edge">
<title>Node13&#45;&gt;Node12</title>
<path fill="none" stroke="#63b8ff" d="M452.11,-220.86C446.53,-195.24 429.45,-118.27 412,-55.25 409.67,-46.84 406.83,-37.62 404.32,-29.76"/>
<polygon fill="#63b8ff" stroke="#63b8ff" points="407.39,-28.89 400.97,-20.46 400.73,-31.05 407.39,-28.89"/>
</g>
<!-- Node13&#45;&gt;Node14 -->
<g id="edge15" class="edge">
<title>Node13&#45;&gt;Node14</title>
<path fill="none" stroke="#63b8ff" d="M482,-226.7C498.33,-225.01 519.33,-222.85 538,-221 616.31,-213.23 842.79,-191.68 948.47,-181.64"/>
<polygon fill="#63b8ff" stroke="#63b8ff" points="948.6,-185.05 958.22,-180.62 947.94,-178.08 948.6,-185.05"/>
</g>
<!-- Node14&#45;&gt;Node4 -->
<g id="edge16" class="edge">
<title>Node14&#45;&gt;Node4</title>
<path fill="none" stroke="#63b8ff" d="M1016.36,-165.34C1052.92,-138.61 1160.85,-59.71 1206.85,-26.09"/>
<polygon fill="#63b8ff" stroke="#63b8ff" points="1208.67,-28.36 1214.68,-19.63 1204.54,-22.71 1208.67,-28.36"/>
</g>
<!-- Node15 -->
<g id="node15" class="node">
<title>Node15</title>
<g id="a_node15"><a xlink:title=" ">
<polygon fill="#e0e0e0" stroke="#999999" points="1087.5,-19.25 1026.5,-19.25 1026.5,0 1087.5,0 1087.5,-19.25"/>
<text text-anchor="middle" x="1057" y="-5.75" font-family="Helvetica,sans-Serif" font-size="10.00">type_traits</text>
</a>
</g>
</g>
<!-- Node14&#45;&gt;Node15 -->
<g id="edge17" class="edge">
<title>Node14&#45;&gt;Node15</title>
<path fill="none" stroke="#63b8ff" d="M1006.85,-165.57C1015.12,-140.03 1039.25,-65.45 1050.76,-29.9"/>
<polygon fill="#63b8ff" stroke="#63b8ff" points="1054.39,-31.06 1054.14,-20.47 1047.73,-28.91 1054.39,-31.06"/>
</g>
<!-- Node16 -->
<g id="node16" class="node">
<title>Node16</title>
<g id="a_node16"><a xlink:href="v8-handle-base_8h.html" target="_top" xlink:title=" ">
<polygon fill="white" stroke="#666666" points="971.75,-129.75 882.25,-129.75 882.25,-110.5 971.75,-110.5 971.75,-129.75"/>
<text text-anchor="middle" x="927" y="-116.25" font-family="Helvetica,sans-Serif" font-size="10.00">v8&#45;handle&#45;base.h</text>
</a>
</g>
</g>
<!-- Node14&#45;&gt;Node16 -->
<g id="edge18" class="edge">
<title>Node14&#45;&gt;Node16</title>
<path fill="none" stroke="#63b8ff" d="M990.94,-165.34C979.43,-157.39 962.44,-145.64 948.87,-136.25"/>
<polygon fill="#63b8ff" stroke="#63b8ff" points="951.34,-133.01 941.13,-130.2 947.36,-138.77 951.34,-133.01"/>
</g>
<!-- Node17 -->
<g id="node17" class="node">
<title>Node17</title>
<g id="a_node17"><a xlink:href="v8-internal_8h.html" target="_top" xlink:title=" ">
<polygon fill="white" stroke="#666666" points="968.25,-74.5 899.75,-74.5 899.75,-55.25 968.25,-55.25 968.25,-74.5"/>
<text text-anchor="middle" x="934" y="-61" font-family="Helvetica,sans-Serif" font-size="10.00">v8&#45;internal.h</text>
</a>
</g>
</g>
<!-- Node16&#45;&gt;Node17 -->
<g id="edge19" class="edge">
<title>Node16&#45;&gt;Node17</title>
<path fill="none" stroke="#63b8ff" d="M928.16,-110.33C929.04,-103.59 930.3,-94.02 931.42,-85.49"/>
<polygon fill="#63b8ff" stroke="#63b8ff" points="934.99,-86.23 932.82,-75.86 928.05,-85.32 934.99,-86.23"/>
</g>
<!-- Node17&#45;&gt;Node2 -->
<g id="edge21" class="edge">
<title>Node17&#45;&gt;Node2</title>
<path fill="none" stroke="#63b8ff" d="M968.66,-59.65C1050.31,-49.7 1254.05,-24.88 1336.02,-14.89"/>
<polygon fill="#63b8ff" stroke="#63b8ff" points="1336.25,-18.26 1345.76,-13.58 1335.41,-11.31 1336.25,-18.26"/>
</g>
<!-- Node17&#45;&gt;Node4 -->
<g id="edge20" class="edge">
<title>Node17&#45;&gt;Node4</title>
<path fill="none" stroke="#63b8ff" d="M968.52,-57.75C1016.44,-49.22 1105.84,-33.24 1182,-19.25 1185.25,-18.65 1188.63,-18.03 1192.02,-17.4"/>
<polygon fill="#63b8ff" stroke="#63b8ff" points="1192.51,-20.68 1201.7,-15.4 1191.23,-13.8 1192.51,-20.68"/>
</g>
<!-- Node17&#45;&gt;Node12 -->
<g id="edge26" class="edge">
<title>Node17&#45;&gt;Node12</title>
<path fill="none" stroke="#63b8ff" d="M899.27,-60.38C883.61,-58.81 864.87,-56.93 848,-55.25 697.22,-40.21 518.01,-22.48 438.94,-14.67"/>
<polygon fill="#63b8ff" stroke="#63b8ff" points="439.31,-11.09 429.02,-13.59 438.63,-18.06 439.31,-11.09"/>
</g>
<!-- Node17&#45;&gt;Node15 -->
<g id="edge24" class="edge">
<title>Node17&#45;&gt;Node15</title>
<path fill="none" stroke="#63b8ff" d="M954.87,-54.84C974.39,-46.39 1003.81,-33.65 1026.06,-24.02"/>
<polygon fill="#63b8ff" stroke="#63b8ff" points="1027.25,-26.89 1035.03,-19.7 1024.46,-20.46 1027.25,-26.89"/>
</g>
<!-- Node18 -->
<g id="node18" class="node">
<title>Node18</title>
<g id="a_node18"><a xlink:title=" ">
<polygon fill="#e0e0e0" stroke="#999999" points="892.75,-19.25 845.25,-19.25 845.25,0 892.75,0 892.75,-19.25"/>
<text text-anchor="middle" x="869" y="-5.75" font-family="Helvetica,sans-Serif" font-size="10.00">string.h</text>
</a>
</g>
</g>
<!-- Node17&#45;&gt;Node18 -->
<g id="edge22" class="edge">
<title>Node17&#45;&gt;Node18</title>
<path fill="none" stroke="#63b8ff" d="M922.97,-54.84C913.49,-47.07 899.58,-35.67 888.25,-26.4"/>
<polygon fill="#63b8ff" stroke="#63b8ff" points="890.82,-23.15 880.86,-19.52 886.38,-28.57 890.82,-23.15"/>
</g>
<!-- Node19 -->
<g id="node19" class="node">
<title>Node19</title>
<g id="a_node19"><a xlink:title=" ">
<polygon fill="#e0e0e0" stroke="#999999" points="1172.62,-19.25 1127.38,-19.25 1127.38,0 1172.62,0 1172.62,-19.25"/>
<text text-anchor="middle" x="1150" y="-5.75" font-family="Helvetica,sans-Serif" font-size="10.00">atomic</text>
</a>
</g>
</g>
<!-- Node17&#45;&gt;Node19 -->
<g id="edge23" class="edge">
<title>Node17&#45;&gt;Node19</title>
<path fill="none" stroke="#63b8ff" d="M968.7,-55.32C1009.36,-45.3 1076.26,-28.8 1116.43,-18.9"/>
<polygon fill="#63b8ff" stroke="#63b8ff" points="1117.13,-22.09 1126,-16.29 1115.46,-15.29 1117.13,-22.09"/>
</g>
<!-- Node20 -->
<g id="node20" class="node">
<title>Node20</title>
<g id="a_node20"><a xlink:href="v8-version_8h.html" target="_top" xlink:title=" ">
<polygon fill="white" stroke="#666666" points="979.25,-19.25 910.75,-19.25 910.75,0 979.25,0 979.25,-19.25"/>
<text text-anchor="middle" x="945" y="-5.75" font-family="Helvetica,sans-Serif" font-size="10.00">v8&#45;version.h</text>
</a>
</g>
</g>
<!-- Node17&#45;&gt;Node20 -->
<g id="edge25" class="edge">
<title>Node17&#45;&gt;Node20</title>
<path fill="none" stroke="#63b8ff" d="M935.82,-55.08C937.21,-48.34 939.19,-38.77 940.95,-30.24"/>
<polygon fill="#63b8ff" stroke="#63b8ff" points="944.55,-31.11 943.14,-20.61 937.69,-29.69 944.55,-31.11"/>
</g>
<!-- Node21&#45;&gt;Node12 -->
<g id="edge69" class="edge">
<title>Node21&#45;&gt;Node12</title>
<path fill="none" stroke="#63b8ff" d="M721.78,-450.46C607.19,-448.98 260,-436.69 260,-342.12 260,-342.12 260,-342.12 260,-119.12 260,-68.94 317.1,-38.43 357.84,-23.04"/>
<polygon fill="#63b8ff" stroke="#63b8ff" points="358.83,-26.04 367.06,-19.36 356.46,-19.45 358.83,-26.04"/>
</g>
<!-- Node21&#45;&gt;Node14 -->
<g id="edge30" class="edge">
<title>Node21&#45;&gt;Node14</title>
<path fill="none" stroke="#63b8ff" d="M794.15,-443.76C866.88,-428.92 1024,-391.19 1024,-342.12 1024,-342.12 1024,-342.12 1024,-284.88 1024,-253.2 1015.65,-217.17 1009.74,-195.63"/>
<polygon fill="#63b8ff" stroke="#63b8ff" points="1012.9,-194.93 1006.78,-186.27 1006.17,-196.85 1012.9,-194.93"/>
</g>
<!-- Node22 -->
<g id="node22" class="node">
<title>Node22</title>
<g id="a_node22"><a xlink:href="v8-object_8h.html" target="_top" xlink:title=" ">
<polygon fill="white" stroke="#666666" points="789.62,-406 726.38,-406 726.38,-386.75 789.62,-386.75 789.62,-406"/>
<text text-anchor="middle" x="758" y="-392.5" font-family="Helvetica,sans-Serif" font-size="10.00">v8&#45;object.h</text>
</a>
</g>
</g>
<!-- Node21&#45;&gt;Node22 -->
<g id="edge31" class="edge">
<title>Node21&#45;&gt;Node22</title>
<path fill="none" stroke="#63b8ff" d="M758,-441.83C758,-435.17 758,-425.74 758,-417.28"/>
<polygon fill="#63b8ff" stroke="#63b8ff" points="761.5,-417.36 758,-407.36 754.5,-417.36 761.5,-417.36"/>
</g>
<!-- Node22&#45;&gt;Node12 -->
<g id="edge68" class="edge">
<title>Node22&#45;&gt;Node12</title>
<path fill="none" stroke="#63b8ff" d="M726.02,-391.08C621.7,-376.19 298,-322.65 298,-231.62 298,-231.62 298,-231.62 298,-119.12 298,-76.09 341.07,-42.81 370.68,-25.01"/>
<polygon fill="#63b8ff" stroke="#63b8ff" points="372.2,-27.6 379.12,-19.58 368.71,-21.53 372.2,-27.6"/>
</g>
<!-- Node22&#45;&gt;Node14 -->
<g id="edge32" class="edge">
<title>Node22&#45;&gt;Node14</title>
<path fill="none" stroke="#63b8ff" d="M789.9,-387.91C834.49,-375.89 915.2,-348.08 962,-295.5 987.55,-266.79 997.8,-221.56 1001.73,-195.89"/>
<polygon fill="#63b8ff" stroke="#63b8ff" points="1005.29,-196.68 1003.15,-186.3 998.35,-195.75 1005.29,-196.68"/>
</g>
<!-- Node22&#45;&gt;Node23 -->
<g id="edge33" class="edge">
<title>Node22&#45;&gt;Node23</title>
<path fill="none" stroke="#63b8ff" d="M754.88,-386.29C746.94,-364.41 723.93,-308.26 687,-276.25 668.79,-260.46 644.2,-249.68 623.18,-242.67"/>
<polygon fill="#63b8ff" stroke="#63b8ff" points="624.47,-239.1 613.88,-239.44 622.38,-245.77 624.47,-239.1"/>
</g>
<!-- Node25 -->
<g id="node25" class="node">
<title>Node25</title>
<g id="a_node25"><a xlink:href="v8-persistent-handle_8h.html" target="_top" xlink:title=" ">
<polygon fill="white" stroke="#666666" points="805.62,-240.25 694.38,-240.25 694.38,-221 805.62,-221 805.62,-240.25"/>
<text text-anchor="middle" x="750" y="-226.75" font-family="Helvetica,sans-Serif" font-size="10.00">v8&#45;persistent&#45;handle.h</text>
</a>
</g>
</g>
<!-- Node22&#45;&gt;Node25 -->
<g id="edge38" class="edge">
<title>Node22&#45;&gt;Node25</title>
<path fill="none" stroke="#63b8ff" d="M761.73,-386.34C765.18,-377.46 770.06,-363.43 772,-350.75 777.01,-318.02 779.52,-308.5 772,-276.25 769.9,-267.23 765.69,-257.93 761.52,-250.18"/>
<polygon fill="#63b8ff" stroke="#63b8ff" points="764.09,-248.63 756.05,-241.73 758.03,-252.13 764.09,-248.63"/>
</g>
<!-- Node27 -->
<g id="node27" class="node">
<title>Node27</title>
<g id="a_node27"><a xlink:href="v8-primitive_8h.html" target="_top" xlink:title=" ">
<polygon fill="white" stroke="#666666" points="653.88,-350.75 580.12,-350.75 580.12,-331.5 653.88,-331.5 653.88,-350.75"/>
<text text-anchor="middle" x="617" y="-337.25" font-family="Helvetica,sans-Serif" font-size="10.00">v8&#45;primitive.h</text>
</a>
</g>
</g>
<!-- Node22&#45;&gt;Node27 -->
<g id="edge44" class="edge">
<title>Node22&#45;&gt;Node27</title>
<path fill="none" stroke="#63b8ff" d="M734.08,-386.34C711.29,-377.74 676.75,-364.69 651.09,-355"/>
<polygon fill="#63b8ff" stroke="#63b8ff" points="652.63,-351.46 642.04,-351.2 650.15,-358.01 652.63,-351.46"/>
</g>
<!-- Node28 -->
<g id="node28" class="node">
<title>Node28</title>
<g id="a_node28"><a xlink:href="v8-value_8h.html" target="_top" xlink:title=" ">
<polygon fill="white" stroke="#666666" points="678.12,-295.5 617.88,-295.5 617.88,-276.25 678.12,-276.25 678.12,-295.5"/>
<text text-anchor="middle" x="648" y="-282" font-family="Helvetica,sans-Serif" font-size="10.00">v8&#45;value.h</text>
</a>
</g>
</g>
<!-- Node22&#45;&gt;Node28 -->
<g id="edge67" class="edge">
<title>Node22&#45;&gt;Node28</title>
<path fill="none" stroke="#63b8ff" d="M749,-386.5C730.63,-368.38 688.56,-326.88 664.92,-303.57"/>
<polygon fill="#63b8ff" stroke="#63b8ff" points="667.7,-301.41 658.13,-296.88 662.79,-306.39 667.7,-301.41"/>
</g>
<!-- Node29 -->
<g id="node29" class="node">
<title>Node29</title>
<g id="a_node29"><a xlink:href="v8-traced-handle_8h.html" target="_top" xlink:title=" ">
<polygon fill="white" stroke="#666666" points="1223.75,-240.25 1128.25,-240.25 1128.25,-221 1223.75,-221 1223.75,-240.25"/>
<text text-anchor="middle" x="1176" y="-226.75" font-family="Helvetica,sans-Serif" font-size="10.00">v8&#45;traced&#45;handle.h</text>
</a>
</g>
</g>
<!-- Node22&#45;&gt;Node29 -->
<g id="edge55" class="edge">
<title>Node22&#45;&gt;Node29</title>
<path fill="none" stroke="#63b8ff" d="M790.11,-393.65C837.6,-390.17 928.64,-379.97 1000,-350.75 1063.71,-324.66 1128.04,-273.32 1158.25,-247.4"/>
<polygon fill="#63b8ff" stroke="#63b8ff" points="1159.91,-249.72 1165.16,-240.51 1155.32,-244.44 1159.91,-249.72"/>
</g>
<!-- Node23&#45;&gt;Node12 -->
<g id="edge37" class="edge">
<title>Node23&#45;&gt;Node12</title>
<path fill="none" stroke="#63b8ff" d="M568.89,-220.75C559.09,-212.42 544.99,-199.14 536,-185 503.01,-133.11 529.11,-100.97 488,-55.25 474.64,-40.4 455.23,-29.9 437.84,-22.84"/>
<polygon fill="#63b8ff" stroke="#63b8ff" points="439.5,-19.35 428.91,-19.07 437.01,-25.89 439.5,-19.35"/>
</g>
<!-- Node23&#45;&gt;Node15 -->
<g id="edge34" class="edge">
<title>Node23&#45;&gt;Node15</title>
<path fill="none" stroke="#63b8ff" d="M583.4,-220.8C588.59,-207.93 599.37,-183.61 613,-165.75 634.99,-136.93 641.18,-127.86 673,-110.5 732.75,-77.91 929.02,-36.13 1015.48,-18.76"/>
<polygon fill="#63b8ff" stroke="#63b8ff" points="1016.07,-22.01 1025.2,-16.62 1014.7,-15.15 1016.07,-22.01"/>
</g>
<!-- Node23&#45;&gt;Node17 -->
<g id="edge36" class="edge">
<title>Node23&#45;&gt;Node17</title>
<path fill="none" stroke="#63b8ff" d="M586.44,-220.62C603.22,-197.91 650.83,-138.15 706,-110.5 714.16,-106.41 824.79,-85.79 888.89,-74.06"/>
<polygon fill="#63b8ff" stroke="#63b8ff" points="889.31,-77.36 898.52,-72.12 888.05,-70.48 889.31,-77.36"/>
</g>
<!-- Node24 -->
<g id="node24" class="node">
<title>Node24</title>
<g id="a_node24"><a xlink:title=" ">
<polygon fill="#e0e0e0" stroke="#999999" points="692.25,-185 653.75,-185 653.75,-165.75 692.25,-165.75 692.25,-185"/>
<text text-anchor="middle" x="673" y="-171.5" font-family="Helvetica,sans-Serif" font-size="10.00">utility</text>
</a>
</g>
</g>
<!-- Node23&#45;&gt;Node24 -->
<g id="edge35" class="edge">
<title>Node23&#45;&gt;Node24</title>
<path fill="none" stroke="#63b8ff" d="M595.78,-220.59C610.07,-212.41 631.38,-200.21 647.99,-190.69"/>
<polygon fill="#63b8ff" stroke="#63b8ff" points="649.21,-193.46 656.15,-185.45 645.73,-187.38 649.21,-193.46"/>
</g>
<!-- Node25&#45;&gt;Node12 -->
<g id="edge43" class="edge">
<title>Node25&#45;&gt;Node12</title>
<path fill="none" stroke="#63b8ff" d="M721.43,-220.63C699.49,-213 668.99,-200.78 645,-185 575.21,-139.09 579.24,-100.48 509,-55.25 487.24,-41.24 460.36,-30.29 438.51,-22.75"/>
<polygon fill="#63b8ff" stroke="#63b8ff" points="439.82,-19.17 429.23,-19.32 437.61,-25.81 439.82,-19.17"/>
</g>
<!-- Node25&#45;&gt;Node14 -->
<g id="edge40" class="edge">
<title>Node25&#45;&gt;Node14</title>
<path fill="none" stroke="#63b8ff" d="M793.38,-220.53C836.75,-211.44 903.56,-197.43 950.27,-187.64"/>
<polygon fill="#63b8ff" stroke="#63b8ff" points="950.73,-190.91 959.8,-185.43 949.3,-184.06 950.73,-190.91"/>
</g>
<!-- Node25&#45;&gt;Node17 -->
<g id="edge39" class="edge">
<title>Node25&#45;&gt;Node17</title>
<path fill="none" stroke="#63b8ff" d="M752.37,-220.72C756.12,-207.76 764.31,-183.32 777,-165.75 807.72,-123.2 862.68,-94.43 898.74,-79.09"/>
<polygon fill="#63b8ff" stroke="#63b8ff" points="899.91,-81.98 907.83,-74.94 897.25,-75.51 899.91,-81.98"/>
</g>
<!-- Node26 -->
<g id="node26" class="node">
<title>Node26</title>
<g id="a_node26"><a xlink:href="v8-weak-callback-info_8h.html" target="_top" xlink:title=" ">
<polygon fill="white" stroke="#666666" points="904,-185 786,-185 786,-165.75 904,-165.75 904,-185"/>
<text text-anchor="middle" x="845" y="-171.5" font-family="Helvetica,sans-Serif" font-size="10.00">v8&#45;weak&#45;callback&#45;info.h</text>
</a>
</g>
</g>
<!-- Node25&#45;&gt;Node26 -->
<g id="edge41" class="edge">
<title>Node25&#45;&gt;Node26</title>
<path fill="none" stroke="#63b8ff" d="M766.12,-220.59C780.72,-212.41 802.49,-200.21 819.46,-190.69"/>
<polygon fill="#63b8ff" stroke="#63b8ff" points="820.79,-193.4 827.81,-185.45 817.37,-187.29 820.79,-193.4"/>
</g>
<!-- Node26&#45;&gt;Node12 -->
<g id="edge42" class="edge">
<title>Node26&#45;&gt;Node12</title>
<path fill="none" stroke="#63b8ff" d="M833.26,-165.56C802.99,-143.31 719.14,-84.53 640,-55.25 571.98,-30.08 487.74,-18.67 438.72,-13.84"/>
<polygon fill="#63b8ff" stroke="#63b8ff" points="439.21,-10.27 428.92,-12.82 438.55,-17.24 439.21,-10.27"/>
</g>
<!-- Node27&#45;&gt;Node12 -->
<g id="edge54" class="edge">
<title>Node27&#45;&gt;Node12</title>
<path fill="none" stroke="#63b8ff" d="M579.82,-331.47C534.65,-319.02 459.25,-291.68 417,-240.25 398.2,-217.37 398,-205.99 398,-176.38 398,-176.38 398,-176.38 398,-119.12 398,-88.12 398,-52.13 398,-30.38"/>
<polygon fill="#63b8ff" stroke="#63b8ff" points="401.5,-30.63 398,-20.63 394.5,-30.63 401.5,-30.63"/>
</g>
<!-- Node27&#45;&gt;Node13 -->
<g id="edge45" class="edge">
<title>Node27&#45;&gt;Node13</title>
<path fill="none" stroke="#63b8ff" d="M603.38,-331.06C575.27,-312.35 510.57,-269.28 476.27,-246.45"/>
<polygon fill="#63b8ff" stroke="#63b8ff" points="478.73,-243.21 468.46,-240.59 474.85,-249.04 478.73,-243.21"/>
</g>
<!-- Node27&#45;&gt;Node14 -->
<g id="edge47" class="edge">
<title>Node27&#45;&gt;Node14</title>
<path fill="none" stroke="#63b8ff" d="M653.9,-333.51C716.9,-322.15 839.3,-299.73 848,-295.5 893.48,-273.4 893.46,-251.23 934,-221 948.41,-210.25 965.4,-199.39 979.03,-191.07"/>
<polygon fill="#63b8ff" stroke="#63b8ff" points="980.51,-193.65 987.27,-185.5 976.9,-187.66 980.51,-193.65"/>
</g>
<!-- Node27&#45;&gt;Node17 -->
<g id="edge46" class="edge">
<title>Node27&#45;&gt;Node17</title>
<path fill="none" stroke="#63b8ff" d="M654.27,-333.6C720.56,-319.73 857.25,-280.43 913,-185 917.32,-177.61 916.48,-173.57 913,-165.75 903.27,-143.9 882.73,-151.6 873,-129.75 869.52,-121.93 869.13,-118.13 873,-110.5 879.56,-97.57 891.82,-87.49 903.63,-80.21"/>
<polygon fill="#63b8ff" stroke="#63b8ff" points="904.92,-82.94 911.9,-74.97 901.47,-76.85 904.92,-82.94"/>
</g>
<!-- Node27&#45;&gt;Node28 -->
<g id="edge48" class="edge">
<title>Node27&#45;&gt;Node28</title>
<path fill="none" stroke="#63b8ff" d="M622.12,-331.33C626.22,-324.28 632.12,-314.15 637.25,-305.33"/>
<polygon fill="#63b8ff" stroke="#63b8ff" points="640.76,-307.26 642.77,-296.86 634.71,-303.74 640.76,-307.26"/>
</g>
<!-- Node28&#45;&gt;Node12 -->
<g id="edge53" class="edge">
<title>Node28&#45;&gt;Node12</title>
<path fill="none" stroke="#63b8ff" d="M617.63,-278.26C593.8,-271.82 560.94,-260.04 538,-240.25 465.74,-177.91 480.48,-135.61 429,-55.25 423.28,-46.33 416.62,-36.64 410.93,-28.58"/>
<polygon fill="#63b8ff" stroke="#63b8ff" points="413.27,-26.83 404.62,-20.72 407.57,-30.89 413.27,-26.83"/>
</g>
<!-- Node28&#45;&gt;Node13 -->
<g id="edge49" class="edge">
<title>Node28&#45;&gt;Node13</title>
<path fill="none" stroke="#63b8ff" d="M617.69,-276.55C583.93,-267.29 529.3,-252.29 492.54,-242.2"/>
<polygon fill="#63b8ff" stroke="#63b8ff" points="493.78,-238.64 483.21,-239.37 491.93,-245.39 493.78,-238.64"/>
</g>
<!-- Node28&#45;&gt;Node14 -->
<g id="edge51" class="edge">
<title>Node28&#45;&gt;Node14</title>
<path fill="none" stroke="#63b8ff" d="M678.34,-277.4C711.93,-268.97 767.6,-254.58 815,-240.25 869.09,-223.9 931.01,-202.44 968.8,-189.03"/>
<polygon fill="#63b8ff" stroke="#63b8ff" points="969.55,-192.13 977.79,-185.47 967.2,-185.53 969.55,-192.13"/>
</g>
<!-- Node28&#45;&gt;Node17 -->
<g id="edge50" class="edge">
<title>Node28&#45;&gt;Node17</title>
<path fill="none" stroke="#63b8ff" d="M652.01,-276.07C658.1,-263.23 670.5,-238.94 685,-221 731,-164.11 744.14,-147.92 807,-110.5 832.48,-95.33 863.9,-84.24 889.11,-76.91"/>
<polygon fill="#63b8ff" stroke="#63b8ff" points="889.82,-80.06 898.5,-73.99 887.93,-73.32 889.82,-80.06"/>
</g>
<!-- Node28&#45;&gt;Node23 -->
<g id="edge52" class="edge">
<title>Node28&#45;&gt;Node23</title>
<path fill="none" stroke="#63b8ff" d="M636.46,-275.84C626.44,-267.99 611.7,-256.45 599.79,-247.12"/>
<polygon fill="#63b8ff" stroke="#63b8ff" points="602.4,-243.93 592.36,-240.52 598.08,-249.45 602.4,-243.93"/>
</g>
<!-- Node29&#45;&gt;Node2 -->
<g id="edge57" class="edge">
<title>Node29&#45;&gt;Node2</title>
<path fill="none" stroke="#63b8ff" d="M1183.89,-220.77C1213.29,-187.75 1316.84,-71.45 1355.92,-27.56"/>
<polygon fill="#63b8ff" stroke="#63b8ff" points="1358.19,-30.15 1362.23,-20.35 1352.97,-25.49 1358.19,-30.15"/>
</g>
<!-- Node29&#45;&gt;Node4 -->
<g id="edge56" class="edge">
<title>Node29&#45;&gt;Node4</title>
<path fill="none" stroke="#63b8ff" d="M1178.1,-220.77C1185.81,-188.3 1212.64,-75.32 1223.44,-29.83"/>
<polygon fill="#63b8ff" stroke="#63b8ff" points="1227.02,-30.89 1225.93,-20.35 1220.21,-29.27 1227.02,-30.89"/>
</g>
<!-- Node29&#45;&gt;Node5 -->
<g id="edge60" class="edge">
<title>Node29&#45;&gt;Node5</title>
<path fill="none" stroke="#63b8ff" d="M1200.26,-220.59C1223.37,-211.99 1258.4,-198.94 1284.43,-189.25"/>
<polygon fill="#63b8ff" stroke="#63b8ff" points="1285.47,-192.22 1293.62,-185.45 1283.03,-185.66 1285.47,-192.22"/>
</g>
<!-- Node29&#45;&gt;Node12 -->
<g id="edge66" class="edge">
<title>Node29&#45;&gt;Node12</title>
<path fill="none" stroke="#63b8ff" d="M1156.85,-220.52C1139.18,-211.92 1112.37,-198.38 1090,-185 1064.82,-169.94 1008.15,-121.63 981,-110.5 788.84,-31.72 536.44,-15.08 438.91,-11.57"/>
<polygon fill="#63b8ff" stroke="#63b8ff" points="439.17,-8.04 429.06,-11.21 438.94,-15.04 439.17,-8.04"/>
</g>
<!-- Node29&#45;&gt;Node14 -->
<g id="edge64" class="edge">
<title>Node29&#45;&gt;Node14</title>
<path fill="none" stroke="#63b8ff" d="M1146.82,-220.59C1118.41,-211.79 1075.01,-198.36 1043.51,-188.61"/>
<polygon fill="#63b8ff" stroke="#63b8ff" points="1044.91,-185.07 1034.32,-185.45 1042.84,-191.75 1044.91,-185.07"/>
</g>
<!-- Node29&#45;&gt;Node15 -->
<g id="edge61" class="edge">
<title>Node29&#45;&gt;Node15</title>
<path fill="none" stroke="#63b8ff" d="M1171.19,-220.77C1153.43,-188.09 1091.37,-73.88 1066.96,-28.96"/>
<polygon fill="#63b8ff" stroke="#63b8ff" points="1069.59,-27.47 1061.74,-20.35 1063.44,-30.81 1069.59,-27.47"/>
</g>
<!-- Node29&#45;&gt;Node17 -->
<g id="edge63" class="edge">
<title>Node29&#45;&gt;Node17</title>
<path fill="none" stroke="#63b8ff" d="M1164.97,-220.72C1139.27,-200.17 1073.12,-148.29 1014,-110.5 996.85,-99.54 976.86,-88.39 961.15,-79.97"/>
<polygon fill="#63b8ff" stroke="#63b8ff" points="962.99,-76.46 952.52,-74.87 959.71,-82.64 962.99,-76.46"/>
</g>
<!-- Node29&#45;&gt;Node19 -->
<g id="edge59" class="edge">
<title>Node29&#45;&gt;Node19</title>
<path fill="none" stroke="#63b8ff" d="M1175.48,-220.64C1174.27,-200.74 1171,-151.5 1166,-110.5 1162.59,-82.51 1157.16,-50.34 1153.59,-30.24"/>
<polygon fill="#63b8ff" stroke="#63b8ff" points="1156.9,-29.9 1151.68,-20.68 1150.02,-31.14 1156.9,-29.9"/>
</g>
<!-- Node29&#45;&gt;Node24 -->
<g id="edge62" class="edge">
<title>Node29&#45;&gt;Node24</title>
<path fill="none" stroke="#63b8ff" d="M1127.77,-224.52C1025.14,-213.65 787.63,-188.51 703.35,-179.59"/>
<polygon fill="#63b8ff" stroke="#63b8ff" points="703.81,-176.01 693.5,-178.44 703.07,-182.97 703.81,-176.01"/>
</g>
<!-- Node29&#45;&gt;Node26 -->
<g id="edge65" class="edge">
<title>Node29&#45;&gt;Node26</title>
<path fill="none" stroke="#63b8ff" d="M1127.87,-221.88C1071.09,-212.75 976.33,-197.5 912.3,-187.2"/>
<polygon fill="#63b8ff" stroke="#63b8ff" points="912.94,-183.6 902.51,-185.47 911.83,-190.51 912.94,-183.6"/>
</g>
<!-- Node30 -->
<g id="node30" class="node">
<title>Node30</title>
<g id="a_node30"><a xlink:title=" ">
<polygon fill="#e0e0e0" stroke="#999999" points="370.25,-185 325.75,-185 325.75,-165.75 370.25,-165.75 370.25,-185"/>
<text text-anchor="middle" x="348" y="-171.5" font-family="Helvetica,sans-Serif" font-size="10.00">stdio.h</text>
</a>
</g>
</g>
<!-- Node29&#45;&gt;Node30 -->
<g id="edge58" class="edge">
<title>Node29&#45;&gt;Node30</title>
<path fill="none" stroke="#63b8ff" d="M1127.9,-226.53C976.13,-216.77 509.79,-186.78 381.16,-178.51"/>
<polygon fill="#63b8ff" stroke="#63b8ff" points="381.66,-174.97 371.45,-177.82 381.21,-181.95 381.66,-174.97"/>
</g>
<!-- Node31&#45;&gt;Node12 -->
<g id="edge80" class="edge">
<title>Node31&#45;&gt;Node12</title>
<path fill="none" stroke="#63b8ff" d="M371.5,-390.53C316.5,-381.22 222,-355.27 222,-286.88 222,-286.88 222,-286.88 222,-119.12 222,-88.8 223.78,-75.89 246,-55.25 276.24,-27.17 323.24,-16.67 356.97,-12.8"/>
<polygon fill="#63b8ff" stroke="#63b8ff" points="357.26,-16.19 366.86,-11.72 356.57,-9.22 357.26,-16.19"/>
</g>
<!-- Node31&#45;&gt;Node14 -->
<g id="edge77" class="edge">
<title>Node31&#45;&gt;Node14</title>
<path fill="none" stroke="#63b8ff" d="M448.8,-394.45C532.15,-390.94 732.36,-374.28 876,-295.5 924.36,-268.98 968.55,-220.1 990.13,-193.96"/>
<polygon fill="#63b8ff" stroke="#63b8ff" points="993.45,-196.41 997.02,-186.44 988.01,-192.01 993.45,-196.41"/>
</g>
<!-- Node31&#45;&gt;Node23 -->
<g id="edge78" class="edge">
<title>Node31&#45;&gt;Node23</title>
<path fill="none" stroke="#63b8ff" d="M419.14,-386.57C446.47,-360.25 527.84,-281.87 563.24,-247.77"/>
<polygon fill="#63b8ff" stroke="#63b8ff" points="565.04,-250.93 569.81,-241.47 560.18,-245.89 565.04,-250.93"/>
</g>
<!-- Node31&#45;&gt;Node27 -->
<g id="edge79" class="edge">
<title>Node31&#45;&gt;Node27</title>
<path fill="none" stroke="#63b8ff" d="M445.11,-386.34C479.91,-377.39 533.36,-363.64 571.42,-353.85"/>
<polygon fill="#63b8ff" stroke="#63b8ff" points="571.9,-357.08 580.71,-351.2 570.16,-350.3 571.9,-357.08"/>
</g>
<!-- Node31&#45;&gt;Node30 -->
<g id="edge75" class="edge">
<title>Node31&#45;&gt;Node30</title>
<path fill="none" stroke="#63b8ff" d="M407.49,-386.52C398.3,-354.05 366.32,-241.07 353.44,-195.58"/>
<polygon fill="#63b8ff" stroke="#63b8ff" points="356.56,-194.77 350.47,-186.1 349.83,-196.68 356.56,-194.77"/>
</g>
<!-- Node32 -->
<g id="node32" class="node">
<title>Node32</title>
<g id="a_node32"><a xlink:title=" ">
<polygon fill="#e0e0e0" stroke="#999999" points="370.25,-350.75 325.75,-350.75 325.75,-331.5 370.25,-331.5 370.25,-350.75"/>
<text text-anchor="middle" x="348" y="-337.25" font-family="Helvetica,sans-Serif" font-size="10.00">iosfwd</text>
</a>
</g>
</g>
<!-- Node31&#45;&gt;Node32 -->
<g id="edge76" class="edge">
<title>Node31&#45;&gt;Node32</title>
<path fill="none" stroke="#63b8ff" d="M399.48,-386.34C390.52,-378.65 377.43,-367.4 366.69,-358.18"/>
<polygon fill="#63b8ff" stroke="#63b8ff" points="369.23,-354.89 359.36,-351.02 364.67,-360.2 369.23,-354.89"/>
</g>
</g>
</svg>
