<?xml version="1.0" encoding="UTF-8" standalone="no"?>
<!DOCTYPE svg PUBLIC "-//W3C//DTD SVG 1.1//EN"
 "http://www.w3.org/Graphics/SVG/1.1/DTD/svg11.dtd">
<!-- Generated by graphviz version 8.0.5 (20230430.1635)
 -->
<!-- Title: include/v8&#45;embedder&#45;state&#45;scope.h Pages: 1 -->
<svg width="553pt" height="370pt"
 viewBox="0.00 0.00 552.99 370.00" xmlns="http://www.w3.org/2000/svg" xmlns:xlink="http://www.w3.org/1999/xlink">
<g id="graph0" class="graph" transform="scale(1 1) rotate(0) translate(4 366)">
<title>include/v8&#45;embedder&#45;state&#45;scope.h</title>
<!-- Node1 -->
<g id="node1" class="node">
<title>Node1</title>
<g id="a_node1"><a xlink:title=" ">
<polygon fill="#999999" stroke="#666666" points="150.25,-362 44.25,-362 44.25,-331.5 150.25,-331.5 150.25,-362"/>
<text text-anchor="start" x="52.25" y="-348.5" font-family="Helvetica,sans-Serif" font-size="10.00">include/v8&#45;embedder</text>
<text text-anchor="middle" x="97.25" y="-337.25" font-family="Helvetica,sans-Serif" font-size="10.00">&#45;state&#45;scope.h</text>
</a>
</g>
</g>
<!-- Node2 -->
<g id="node2" class="node">
<title>Node2</title>
<g id="a_node2"><a xlink:title=" ">
<polygon fill="#e0e0e0" stroke="#999999" points="50.5,-295.5 0,-295.5 0,-276.25 50.5,-276.25 50.5,-295.5"/>
<text text-anchor="middle" x="25.25" y="-282" font-family="Helvetica,sans-Serif" font-size="10.00">memory</text>
</a>
</g>
</g>
<!-- Node1&#45;&gt;Node2 -->
<g id="edge1" class="edge">
<title>Node1&#45;&gt;Node2</title>
<path fill="none" stroke="#63b8ff" d="M79.45,-331.2C68.91,-322.58 55.55,-311.65 44.72,-302.8"/>
<polygon fill="#63b8ff" stroke="#63b8ff" points="47.31,-299.57 37.35,-295.95 42.88,-304.99 47.31,-299.57"/>
</g>
<!-- Node3 -->
<g id="node3" class="node">
<title>Node3</title>
<g id="a_node3"><a xlink:href="v8-context_8h.html" target="_top" xlink:title=" ">
<polygon fill="white" stroke="#666666" points="272.5,-295.5 204,-295.5 204,-276.25 272.5,-276.25 272.5,-295.5"/>
<text text-anchor="middle" x="238.25" y="-282" font-family="Helvetica,sans-Serif" font-size="10.00">v8&#45;context.h</text>
</a>
</g>
</g>
<!-- Node1&#45;&gt;Node3 -->
<g id="edge2" class="edge">
<title>Node1&#45;&gt;Node3</title>
<path fill="none" stroke="#63b8ff" d="M132.47,-331.05C155.28,-321.52 184.74,-309.22 206.77,-300.02"/>
<polygon fill="#63b8ff" stroke="#63b8ff" points="207.75,-302.99 215.63,-295.9 205.05,-296.53 207.75,-302.99"/>
</g>
<!-- Node7 -->
<g id="node7" class="node">
<title>Node7</title>
<g id="a_node7"><a xlink:href="v8-local-handle_8h.html" target="_top" xlink:title=" ">
<polygon fill="white" stroke="#666666" points="233.62,-185 144.88,-185 144.88,-165.75 233.62,-165.75 233.62,-185"/>
<text text-anchor="middle" x="189.25" y="-171.5" font-family="Helvetica,sans-Serif" font-size="10.00">v8&#45;local&#45;handle.h</text>
</a>
</g>
</g>
<!-- Node1&#45;&gt;Node7 -->
<g id="edge31" class="edge">
<title>Node1&#45;&gt;Node7</title>
<path fill="none" stroke="#63b8ff" d="M105.25,-331.02C121.98,-300.22 160.61,-229.1 179.07,-195.12"/>
<polygon fill="#63b8ff" stroke="#63b8ff" points="182.6,-196.94 184.3,-186.49 176.45,-193.6 182.6,-196.94"/>
</g>
<!-- Node11 -->
<g id="node11" class="node">
<title>Node11</title>
<g id="a_node11"><a xlink:href="v8-internal_8h.html" target="_top" xlink:title=" ">
<polygon fill="white" stroke="#666666" points="269.5,-74.5 201,-74.5 201,-55.25 269.5,-55.25 269.5,-74.5"/>
<text text-anchor="middle" x="235.25" y="-61" font-family="Helvetica,sans-Serif" font-size="10.00">v8&#45;internal.h</text>
</a>
</g>
</g>
<!-- Node1&#45;&gt;Node11 -->
<g id="edge30" class="edge">
<title>Node1&#45;&gt;Node11</title>
<path fill="none" stroke="#63b8ff" d="M93.22,-331.11C87.64,-309.51 78.25,-267.78 78.25,-231.62 78.25,-231.62 78.25,-231.62 78.25,-174.38 78.25,-119.51 143.95,-90.22 190.34,-76.38"/>
<polygon fill="#63b8ff" stroke="#63b8ff" points="191.13,-79.52 199.8,-73.43 189.22,-72.78 191.13,-79.52"/>
</g>
<!-- Node4 -->
<g id="node4" class="node">
<title>Node4</title>
<g id="a_node4"><a xlink:title=" ">
<polygon fill="#e0e0e0" stroke="#999999" points="61,-19.25 13.5,-19.25 13.5,0 61,0 61,-19.25"/>
<text text-anchor="middle" x="37.25" y="-5.75" font-family="Helvetica,sans-Serif" font-size="10.00">stdint.h</text>
</a>
</g>
</g>
<!-- Node3&#45;&gt;Node4 -->
<g id="edge3" class="edge">
<title>Node3&#45;&gt;Node4</title>
<path fill="none" stroke="#63b8ff" d="M203.59,-281.63C146.57,-274.19 39.25,-250.35 39.25,-176.38 39.25,-176.38 39.25,-176.38 39.25,-119.12 39.25,-88.11 38.42,-52.12 37.83,-30.38"/>
<polygon fill="#63b8ff" stroke="#63b8ff" points="41.31,-30.52 37.53,-20.63 34.31,-30.72 41.31,-30.52"/>
</g>
<!-- Node5 -->
<g id="node5" class="node">
<title>Node5</title>
<g id="a_node5"><a xlink:title=" ">
<polygon fill="#e0e0e0" stroke="#999999" points="541.75,-240.25 498.75,-240.25 498.75,-221 541.75,-221 541.75,-240.25"/>
<text text-anchor="middle" x="520.25" y="-226.75" font-family="Helvetica,sans-Serif" font-size="10.00">vector</text>
</a>
</g>
</g>
<!-- Node3&#45;&gt;Node5 -->
<g id="edge4" class="edge">
<title>Node3&#45;&gt;Node5</title>
<path fill="none" stroke="#63b8ff" d="M273,-279.2C320.75,-271.26 409.28,-256.02 484.25,-240.25 485.56,-239.97 486.89,-239.69 488.24,-239.39"/>
<polygon fill="#63b8ff" stroke="#63b8ff" points="488.63,-242.66 497.59,-237.02 487.06,-235.84 488.63,-242.66"/>
</g>
<!-- Node6 -->
<g id="node6" class="node">
<title>Node6</title>
<g id="a_node6"><a xlink:href="v8-data_8h.html" target="_top" xlink:title=" ">
<polygon fill="white" stroke="#666666" points="238.12,-240.25 182.38,-240.25 182.38,-221 238.12,-221 238.12,-240.25"/>
<text text-anchor="middle" x="210.25" y="-226.75" font-family="Helvetica,sans-Serif" font-size="10.00">v8&#45;data.h</text>
</a>
</g>
</g>
<!-- Node3&#45;&gt;Node6 -->
<g id="edge5" class="edge">
<title>Node3&#45;&gt;Node6</title>
<path fill="none" stroke="#63b8ff" d="M233.63,-276.08C229.92,-269.03 224.59,-258.9 219.96,-250.08"/>
<polygon fill="#63b8ff" stroke="#63b8ff" points="222.73,-248.83 214.97,-241.61 216.53,-252.09 222.73,-248.83"/>
</g>
<!-- Node3&#45;&gt;Node7 -->
<g id="edge19" class="edge">
<title>Node3&#45;&gt;Node7</title>
<path fill="none" stroke="#63b8ff" d="M215.16,-275.83C200.25,-268.63 182.05,-256.96 173.25,-240.25 165.69,-225.88 171.44,-207.8 178.06,-194.54"/>
<polygon fill="#63b8ff" stroke="#63b8ff" points="181.51,-196.55 183.32,-186.11 175.4,-193.14 181.51,-196.55"/>
</g>
<!-- Node15 -->
<g id="node15" class="node">
<title>Node15</title>
<g id="a_node15"><a xlink:href="v8config_8h.html" target="_top" xlink:title=" ">
<polygon fill="white" stroke="#666666" points="501,-19.25 441.5,-19.25 441.5,0 501,0 501,-19.25"/>
<text text-anchor="middle" x="471.25" y="-5.75" font-family="Helvetica,sans-Serif" font-size="10.00">v8config.h</text>
</a>
</g>
</g>
<!-- Node3&#45;&gt;Node15 -->
<g id="edge29" class="edge">
<title>Node3&#45;&gt;Node15</title>
<path fill="none" stroke="#63b8ff" d="M272.98,-284.02C337.7,-280.38 470.25,-262.41 470.25,-176.38 470.25,-176.38 470.25,-176.38 470.25,-119.12 470.25,-88.12 470.66,-52.13 470.96,-30.38"/>
<polygon fill="#63b8ff" stroke="#63b8ff" points="474.47,-30.68 471.11,-20.63 467.47,-30.58 474.47,-30.68"/>
</g>
<!-- Node16 -->
<g id="node16" class="node">
<title>Node16</title>
<g id="a_node16"><a xlink:href="v8-maybe_8h.html" target="_top" xlink:title=" ">
<polygon fill="white" stroke="#666666" points="394,-129.75 328.5,-129.75 328.5,-110.5 394,-110.5 394,-129.75"/>
<text text-anchor="middle" x="361.25" y="-116.25" font-family="Helvetica,sans-Serif" font-size="10.00">v8&#45;maybe.h</text>
</a>
</g>
</g>
<!-- Node3&#45;&gt;Node16 -->
<g id="edge20" class="edge">
<title>Node3&#45;&gt;Node16</title>
<path fill="none" stroke="#63b8ff" d="M244.59,-276.16C253.58,-263.84 270.57,-240.62 285.25,-221 306.9,-192.07 332.4,-158.7 347.67,-138.79"/>
<polygon fill="#63b8ff" stroke="#63b8ff" points="350.97,-141.24 354.28,-131.18 345.42,-136.98 350.97,-141.24"/>
</g>
<!-- Node18 -->
<g id="node18" class="node">
<title>Node18</title>
<g id="a_node18"><a xlink:href="v8-snapshot_8h.html" target="_top" xlink:title=" ">
<polygon fill="white" stroke="#666666" points="370.62,-240.25 293.88,-240.25 293.88,-221 370.62,-221 370.62,-240.25"/>
<text text-anchor="middle" x="332.25" y="-226.75" font-family="Helvetica,sans-Serif" font-size="10.00">v8&#45;snapshot.h</text>
</a>
</g>
</g>
<!-- Node3&#45;&gt;Node18 -->
<g id="edge25" class="edge">
<title>Node3&#45;&gt;Node18</title>
<path fill="none" stroke="#63b8ff" d="M254.2,-275.84C268.65,-267.66 290.18,-255.46 306.98,-245.94"/>
<polygon fill="#63b8ff" stroke="#63b8ff" points="308.25,-248.68 315.23,-240.7 304.8,-242.59 308.25,-248.68"/>
</g>
<!-- Node6&#45;&gt;Node7 -->
<g id="edge6" class="edge">
<title>Node6&#45;&gt;Node7</title>
<path fill="none" stroke="#63b8ff" d="M206.78,-220.83C204.06,-213.94 200.18,-204.09 196.76,-195.41"/>
<polygon fill="#63b8ff" stroke="#63b8ff" points="199.72,-194.38 192.79,-186.36 193.21,-196.95 199.72,-194.38"/>
</g>
<!-- Node6&#45;&gt;Node15 -->
<g id="edge18" class="edge">
<title>Node6&#45;&gt;Node15</title>
<path fill="none" stroke="#63b8ff" d="M238.28,-224.08C297.43,-210.66 433.69,-170.2 484.25,-74.5 491.68,-60.43 487.03,-42.54 481.32,-29.28"/>
<polygon fill="#63b8ff" stroke="#63b8ff" points="484.04,-27.87 476.52,-20.41 477.75,-30.93 484.04,-27.87"/>
</g>
<!-- Node8 -->
<g id="node8" class="node">
<title>Node8</title>
<g id="a_node8"><a xlink:title=" ">
<polygon fill="#e0e0e0" stroke="#999999" points="129.5,-19.25 79,-19.25 79,0 129.5,0 129.5,-19.25"/>
<text text-anchor="middle" x="104.25" y="-5.75" font-family="Helvetica,sans-Serif" font-size="10.00">stddef.h</text>
</a>
</g>
</g>
<!-- Node7&#45;&gt;Node8 -->
<g id="edge7" class="edge">
<title>Node7&#45;&gt;Node8</title>
<path fill="none" stroke="#63b8ff" d="M173.69,-165.35C161.46,-157.47 144.92,-144.93 135.25,-129.75 115.5,-98.76 108.3,-55.66 105.69,-30.7"/>
<polygon fill="#63b8ff" stroke="#63b8ff" points="109.09,-30.4 104.73,-20.74 102.12,-31.01 109.09,-30.4"/>
</g>
<!-- Node9 -->
<g id="node9" class="node">
<title>Node9</title>
<g id="a_node9"><a xlink:title=" ">
<polygon fill="#e0e0e0" stroke="#999999" points="423.75,-19.25 362.75,-19.25 362.75,0 423.75,0 423.75,-19.25"/>
<text text-anchor="middle" x="393.25" y="-5.75" font-family="Helvetica,sans-Serif" font-size="10.00">type_traits</text>
</a>
</g>
</g>
<!-- Node7&#45;&gt;Node9 -->
<g id="edge8" class="edge">
<title>Node7&#45;&gt;Node9</title>
<path fill="none" stroke="#63b8ff" d="M200.51,-165.34C233.67,-138.72 331.28,-60.37 373.46,-26.51"/>
<polygon fill="#63b8ff" stroke="#63b8ff" points="375.42,-28.62 381.03,-19.63 371.04,-23.16 375.42,-28.62"/>
</g>
<!-- Node10 -->
<g id="node10" class="node">
<title>Node10</title>
<g id="a_node10"><a xlink:href="v8-handle-base_8h.html" target="_top" xlink:title=" ">
<polygon fill="white" stroke="#666666" points="234,-129.75 144.5,-129.75 144.5,-110.5 234,-110.5 234,-129.75"/>
<text text-anchor="middle" x="189.25" y="-116.25" font-family="Helvetica,sans-Serif" font-size="10.00">v8&#45;handle&#45;base.h</text>
</a>
</g>
</g>
<!-- Node7&#45;&gt;Node10 -->
<g id="edge9" class="edge">
<title>Node7&#45;&gt;Node10</title>
<path fill="none" stroke="#63b8ff" d="M189.25,-165.58C189.25,-158.92 189.25,-149.49 189.25,-141.03"/>
<polygon fill="#63b8ff" stroke="#63b8ff" points="192.75,-141.11 189.25,-131.11 185.75,-141.11 192.75,-141.11"/>
</g>
<!-- Node10&#45;&gt;Node11 -->
<g id="edge10" class="edge">
<title>Node10&#45;&gt;Node11</title>
<path fill="none" stroke="#63b8ff" d="M196.85,-110.33C203.27,-102.9 212.65,-92.04 220.53,-82.91"/>
<polygon fill="#63b8ff" stroke="#63b8ff" points="223.6,-85.71 227.49,-75.86 218.3,-81.14 223.6,-85.71"/>
</g>
<!-- Node11&#45;&gt;Node4 -->
<g id="edge12" class="edge">
<title>Node11&#45;&gt;Node4</title>
<path fill="none" stroke="#63b8ff" d="M201.66,-54.84C165.41,-45.09 107.98,-29.65 71.48,-19.83"/>
<polygon fill="#63b8ff" stroke="#63b8ff" points="72.89,-16.32 62.32,-17.1 71.07,-23.08 72.89,-16.32"/>
</g>
<!-- Node11&#45;&gt;Node8 -->
<g id="edge11" class="edge">
<title>Node11&#45;&gt;Node8</title>
<path fill="none" stroke="#63b8ff" d="M213.03,-54.84C192.04,-46.31 160.33,-33.42 136.56,-23.76"/>
<polygon fill="#63b8ff" stroke="#63b8ff" points="138.16,-20.23 127.58,-19.7 135.53,-26.71 138.16,-20.23"/>
</g>
<!-- Node11&#45;&gt;Node9 -->
<g id="edge15" class="edge">
<title>Node11&#45;&gt;Node9</title>
<path fill="none" stroke="#63b8ff" d="M262.05,-54.84C287.93,-46.12 327.33,-32.84 356.2,-23.11"/>
<polygon fill="#63b8ff" stroke="#63b8ff" points="356.96,-26.21 365.32,-19.7 354.72,-19.58 356.96,-26.21"/>
</g>
<!-- Node12 -->
<g id="node12" class="node">
<title>Node12</title>
<g id="a_node12"><a xlink:title=" ">
<polygon fill="#e0e0e0" stroke="#999999" points="195,-19.25 147.5,-19.25 147.5,0 195,0 195,-19.25"/>
<text text-anchor="middle" x="171.25" y="-5.75" font-family="Helvetica,sans-Serif" font-size="10.00">string.h</text>
</a>
</g>
</g>
<!-- Node11&#45;&gt;Node12 -->
<g id="edge13" class="edge">
<title>Node11&#45;&gt;Node12</title>
<path fill="none" stroke="#63b8ff" d="M224.39,-54.84C215.05,-47.07 201.36,-35.67 190.21,-26.4"/>
<polygon fill="#63b8ff" stroke="#63b8ff" points="192.87,-23.23 182.95,-19.52 188.39,-28.61 192.87,-23.23"/>
</g>
<!-- Node13 -->
<g id="node13" class="node">
<title>Node13</title>
<g id="a_node13"><a xlink:title=" ">
<polygon fill="#e0e0e0" stroke="#999999" points="257.88,-19.25 212.62,-19.25 212.62,0 257.88,0 257.88,-19.25"/>
<text text-anchor="middle" x="235.25" y="-5.75" font-family="Helvetica,sans-Serif" font-size="10.00">atomic</text>
</a>
</g>
</g>
<!-- Node11&#45;&gt;Node13 -->
<g id="edge14" class="edge">
<title>Node11&#45;&gt;Node13</title>
<path fill="none" stroke="#63b8ff" d="M235.25,-55.08C235.25,-48.42 235.25,-38.99 235.25,-30.53"/>
<polygon fill="#63b8ff" stroke="#63b8ff" points="238.75,-30.61 235.25,-20.61 231.75,-30.61 238.75,-30.61"/>
</g>
<!-- Node14 -->
<g id="node14" class="node">
<title>Node14</title>
<g id="a_node14"><a xlink:href="v8-version_8h.html" target="_top" xlink:title=" ">
<polygon fill="white" stroke="#666666" points="344.5,-19.25 276,-19.25 276,0 344.5,0 344.5,-19.25"/>
<text text-anchor="middle" x="310.25" y="-5.75" font-family="Helvetica,sans-Serif" font-size="10.00">v8&#45;version.h</text>
</a>
</g>
</g>
<!-- Node11&#45;&gt;Node14 -->
<g id="edge16" class="edge">
<title>Node11&#45;&gt;Node14</title>
<path fill="none" stroke="#63b8ff" d="M247.97,-54.84C259.07,-46.96 275.41,-35.36 288.57,-26.02"/>
<polygon fill="#63b8ff" stroke="#63b8ff" points="290.34,-28.35 296.46,-19.7 286.28,-22.64 290.34,-28.35"/>
</g>
<!-- Node11&#45;&gt;Node15 -->
<g id="edge17" class="edge">
<title>Node11&#45;&gt;Node15</title>
<path fill="none" stroke="#63b8ff" d="M269.95,-56.07C307.32,-47.66 368.83,-33.81 430.65,-19.84"/>
<polygon fill="#63b8ff" stroke="#63b8ff" points="431.4,-23.03 440.38,-17.41 429.85,-16.2 431.4,-23.03"/>
</g>
<!-- Node16&#45;&gt;Node9 -->
<g id="edge21" class="edge">
<title>Node16&#45;&gt;Node9</title>
<path fill="none" stroke="#63b8ff" d="M359.79,-110.18C358.08,-97.58 356.2,-74.04 362.25,-55.25 365.41,-45.42 371.54,-35.83 377.52,-28.08"/>
<polygon fill="#63b8ff" stroke="#63b8ff" points="380.83,-30.58 384.53,-20.65 375.45,-26.1 380.83,-30.58"/>
</g>
<!-- Node16&#45;&gt;Node11 -->
<g id="edge23" class="edge">
<title>Node16&#45;&gt;Node11</title>
<path fill="none" stroke="#63b8ff" d="M339.88,-110.09C319.78,-101.6 289.47,-88.79 266.63,-79.14"/>
<polygon fill="#63b8ff" stroke="#63b8ff" points="268.3,-75.62 257.73,-74.95 265.58,-82.07 268.3,-75.62"/>
</g>
<!-- Node16&#45;&gt;Node15 -->
<g id="edge24" class="edge">
<title>Node16&#45;&gt;Node15</title>
<path fill="none" stroke="#63b8ff" d="M364.16,-110.34C368.92,-97.07 379.42,-71.75 395.25,-55.25 407.64,-42.33 424.58,-31.9 439.32,-24.38"/>
<polygon fill="#63b8ff" stroke="#63b8ff" points="440.62,-27.15 448.1,-19.64 437.57,-20.86 440.62,-27.15"/>
</g>
<!-- Node17 -->
<g id="node17" class="node">
<title>Node17</title>
<g id="a_node17"><a xlink:title=" ">
<polygon fill="#e0e0e0" stroke="#999999" points="442.5,-74.5 404,-74.5 404,-55.25 442.5,-55.25 442.5,-74.5"/>
<text text-anchor="middle" x="423.25" y="-61" font-family="Helvetica,sans-Serif" font-size="10.00">utility</text>
</a>
</g>
</g>
<!-- Node16&#45;&gt;Node17 -->
<g id="edge22" class="edge">
<title>Node16&#45;&gt;Node17</title>
<path fill="none" stroke="#63b8ff" d="M371.77,-110.09C380.73,-102.4 393.82,-91.15 404.56,-81.93"/>
<polygon fill="#63b8ff" stroke="#63b8ff" points="406.58,-83.95 411.89,-74.77 402.02,-78.64 406.58,-83.95"/>
</g>
<!-- Node18&#45;&gt;Node7 -->
<g id="edge27" class="edge">
<title>Node18&#45;&gt;Node7</title>
<path fill="none" stroke="#63b8ff" d="M307.99,-220.59C284.88,-211.99 249.85,-198.94 223.82,-189.25"/>
<polygon fill="#63b8ff" stroke="#63b8ff" points="225.22,-185.66 214.63,-185.45 222.78,-192.22 225.22,-185.66"/>
</g>
<!-- Node18&#45;&gt;Node11 -->
<g id="edge26" class="edge">
<title>Node18&#45;&gt;Node11</title>
<path fill="none" stroke="#63b8ff" d="M327.03,-220.82C311.71,-194.94 266.57,-118.75 245.86,-83.78"/>
<polygon fill="#63b8ff" stroke="#63b8ff" points="248.6,-82.54 240.49,-75.72 242.58,-86.11 248.6,-82.54"/>
</g>
<!-- Node18&#45;&gt;Node15 -->
<g id="edge28" class="edge">
<title>Node18&#45;&gt;Node15</title>
<path fill="none" stroke="#63b8ff" d="M370.89,-226.12C420.87,-220.7 503.73,-208.37 522.25,-185 558.06,-139.8 546.08,-107.76 522.25,-55.25 516.82,-43.27 506.4,-33.25 496.4,-25.75"/>
<polygon fill="#63b8ff" stroke="#63b8ff" points="498.69,-22.4 488.48,-19.6 494.72,-28.16 498.69,-22.4"/>
</g>
</g>
</svg>
