<?xml version="1.0" encoding="UTF-8" standalone="no"?>
<!DOCTYPE svg PUBLIC "-//W3C//DTD SVG 1.1//EN"
 "http://www.w3.org/Graphics/SVG/1.1/DTD/svg11.dtd">
<!-- Generated by graphviz version 8.0.5 (20230430.1635)
 -->
<!-- Title: include/v8&#45;fast&#45;api&#45;calls.h Pages: 1 -->
<svg width="1415pt" height="591pt"
 viewBox="0.00 0.00 1414.50 591.00" xmlns="http://www.w3.org/2000/svg" xmlns:xlink="http://www.w3.org/1999/xlink">
<g id="graph0" class="graph" transform="scale(1 1) rotate(0) translate(4 587)">
<title>include/v8&#45;fast&#45;api&#45;calls.h</title>
<!-- Node1 -->
<g id="node1" class="node">
<title>Node1</title>
<g id="a_node1"><a xlink:title=" ">
<polygon fill="#999999" stroke="#666666" points="621.75,-583 526.25,-583 526.25,-552.5 621.75,-552.5 621.75,-583"/>
<text text-anchor="start" x="534.25" y="-569.5" font-family="Helvetica,sans-Serif" font-size="10.00">include/v8&#45;fast&#45;api</text>
<text text-anchor="middle" x="574" y="-558.25" font-family="Helvetica,sans-Serif" font-size="10.00">&#45;calls.h</text>
</a>
</g>
</g>
<!-- Node2 -->
<g id="node2" class="node">
<title>Node2</title>
<g id="a_node2"><a xlink:title=" ">
<polygon fill="#e0e0e0" stroke="#999999" points="207.25,-19.25 156.75,-19.25 156.75,0 207.25,0 207.25,-19.25"/>
<text text-anchor="middle" x="182" y="-5.75" font-family="Helvetica,sans-Serif" font-size="10.00">stddef.h</text>
</a>
</g>
</g>
<!-- Node1&#45;&gt;Node2 -->
<g id="edge1" class="edge">
<title>Node1&#45;&gt;Node2</title>
<path fill="none" stroke="#63b8ff" d="M526.05,-567.35C388.09,-567.8 0,-559.56 0,-452.62 0,-452.62 0,-452.62 0,-119.12 0,-51.98 92.51,-25.43 145.62,-15.72"/>
<polygon fill="#63b8ff" stroke="#63b8ff" points="146.04,-19.02 155.31,-13.89 144.86,-12.12 146.04,-19.02"/>
</g>
<!-- Node3 -->
<g id="node3" class="node">
<title>Node3</title>
<g id="a_node3"><a xlink:title=" ">
<polygon fill="#e0e0e0" stroke="#999999" points="281.75,-19.25 234.25,-19.25 234.25,0 281.75,0 281.75,-19.25"/>
<text text-anchor="middle" x="258" y="-5.75" font-family="Helvetica,sans-Serif" font-size="10.00">stdint.h</text>
</a>
</g>
</g>
<!-- Node1&#45;&gt;Node3 -->
<g id="edge2" class="edge">
<title>Node1&#45;&gt;Node3</title>
<path fill="none" stroke="#63b8ff" d="M525.96,-566.67C394.4,-565.17 38,-551.93 38,-452.62 38,-452.62 38,-452.62 38,-119.12 38,-78.25 161.72,-37.66 223.6,-19.92"/>
<polygon fill="#63b8ff" stroke="#63b8ff" points="224.36,-23.06 233.04,-16.98 222.46,-16.32 224.36,-23.06"/>
</g>
<!-- Node4 -->
<g id="node4" class="node">
<title>Node4</title>
<g id="a_node4"><a xlink:title=" ">
<polygon fill="#e0e0e0" stroke="#999999" points="1406.5,-516.5 1369.5,-516.5 1369.5,-497.25 1406.5,-497.25 1406.5,-516.5"/>
<text text-anchor="middle" x="1388" y="-503" font-family="Helvetica,sans-Serif" font-size="10.00">tuple</text>
</a>
</g>
</g>
<!-- Node1&#45;&gt;Node4 -->
<g id="edge3" class="edge">
<title>Node1&#45;&gt;Node4</title>
<path fill="none" stroke="#63b8ff" d="M621.9,-566.84C744.62,-566.4 1080.02,-560.86 1355,-516.5 1356.32,-516.29 1357.65,-516.05 1359,-515.78"/>
<polygon fill="#63b8ff" stroke="#63b8ff" points="1359.32,-519.07 1368.29,-513.43 1357.76,-512.25 1359.32,-519.07"/>
</g>
<!-- Node5 -->
<g id="node5" class="node">
<title>Node5</title>
<g id="a_node5"><a xlink:title=" ">
<polygon fill="#e0e0e0" stroke="#999999" points="752.5,-19.25 691.5,-19.25 691.5,0 752.5,0 752.5,-19.25"/>
<text text-anchor="middle" x="722" y="-5.75" font-family="Helvetica,sans-Serif" font-size="10.00">type_traits</text>
</a>
</g>
</g>
<!-- Node1&#45;&gt;Node5 -->
<g id="edge4" class="edge">
<title>Node1&#45;&gt;Node5</title>
<path fill="none" stroke="#63b8ff" d="M622.06,-567.04C740.04,-567.02 1040.68,-562.35 1128,-516.5 1156.29,-501.65 1162.86,-491.2 1174,-461.25 1257.55,-236.7 877.51,-70 757.4,-23.62"/>
<polygon fill="#63b8ff" stroke="#63b8ff" points="758.84,-20.04 748.25,-19.75 756.35,-26.58 758.84,-20.04"/>
</g>
<!-- Node6 -->
<g id="node6" class="node">
<title>Node6</title>
<g id="a_node6"><a xlink:href="v8-internal_8h.html" target="_top" xlink:title=" ">
<polygon fill="white" stroke="#666666" points="444.25,-74.5 375.75,-74.5 375.75,-55.25 444.25,-55.25 444.25,-74.5"/>
<text text-anchor="middle" x="410" y="-61" font-family="Helvetica,sans-Serif" font-size="10.00">v8&#45;internal.h</text>
</a>
</g>
</g>
<!-- Node1&#45;&gt;Node6 -->
<g id="edge5" class="edge">
<title>Node1&#45;&gt;Node6</title>
<path fill="none" stroke="#63b8ff" d="M526.07,-564.99C408.26,-559.36 114,-536.86 114,-452.62 114,-452.62 114,-452.62 114,-229.62 114,-200.01 112.66,-187.28 133,-165.75 194.96,-100.15 303.17,-77.53 364.39,-69.81"/>
<polygon fill="#63b8ff" stroke="#63b8ff" points="364.73,-73.18 374.25,-68.53 363.91,-66.22 364.73,-73.18"/>
</g>
<!-- Node10 -->
<g id="node10" class="node">
<title>Node10</title>
<g id="a_node10"><a xlink:href="v8config_8h.html" target="_top" xlink:title=" ">
<polygon fill="white" stroke="#666666" points="1161.75,-19.25 1102.25,-19.25 1102.25,0 1161.75,0 1161.75,-19.25"/>
<text text-anchor="middle" x="1132" y="-5.75" font-family="Helvetica,sans-Serif" font-size="10.00">v8config.h</text>
</a>
</g>
</g>
<!-- Node1&#45;&gt;Node10 -->
<g id="edge67" class="edge">
<title>Node1&#45;&gt;Node10</title>
<path fill="none" stroke="#63b8ff" d="M621.98,-564.7C789.89,-556.88 1341,-525.66 1341,-452.62 1341,-452.62 1341,-452.62 1341,-119.12 1341,-44.07 1233.53,-20.87 1172.72,-13.74"/>
<polygon fill="#63b8ff" stroke="#63b8ff" points="1173.26,-10.17 1162.94,-12.59 1172.52,-17.13 1173.26,-10.17"/>
</g>
<!-- Node11 -->
<g id="node11" class="node">
<title>Node11</title>
<g id="a_node11"><a xlink:href="v8-local-handle_8h.html" target="_top" xlink:title=" ">
<polygon fill="white" stroke="#666666" points="683.38,-185 594.62,-185 594.62,-165.75 683.38,-165.75 683.38,-185"/>
<text text-anchor="middle" x="639" y="-171.5" font-family="Helvetica,sans-Serif" font-size="10.00">v8&#45;local&#45;handle.h</text>
</a>
</g>
</g>
<!-- Node1&#45;&gt;Node11 -->
<g id="edge13" class="edge">
<title>Node1&#45;&gt;Node11</title>
<path fill="none" stroke="#63b8ff" d="M575.98,-552.2C582.54,-504.53 604.55,-348.75 629,-221 630.59,-212.71 632.58,-203.62 634.37,-195.81"/>
<polygon fill="#63b8ff" stroke="#63b8ff" points="637.97,-196.77 636.84,-186.23 631.16,-195.17 637.97,-196.77"/>
</g>
<!-- Node13 -->
<g id="node13" class="node">
<title>Node13</title>
<g id="a_node13"><a xlink:href="v8-typed-array_8h.html" target="_top" xlink:title=" ">
<polygon fill="white" stroke="#666666" points="527.12,-516.5 442.88,-516.5 442.88,-497.25 527.12,-497.25 527.12,-516.5"/>
<text text-anchor="middle" x="485" y="-503" font-family="Helvetica,sans-Serif" font-size="10.00">v8&#45;typed&#45;array.h</text>
</a>
</g>
</g>
<!-- Node1&#45;&gt;Node13 -->
<g id="edge18" class="edge">
<title>Node1&#45;&gt;Node13</title>
<path fill="none" stroke="#63b8ff" d="M552,-552.2C538.58,-543.32 521.45,-531.99 507.88,-523.01"/>
<polygon fill="#63b8ff" stroke="#63b8ff" points="509.99,-519.55 499.72,-516.95 506.13,-525.39 509.99,-519.55"/>
</g>
<!-- Node23 -->
<g id="node23" class="node">
<title>Node23</title>
<g id="a_node23"><a xlink:href="v8-value_8h.html" target="_top" xlink:title=" ">
<polygon fill="white" stroke="#666666" points="798.12,-295.5 737.88,-295.5 737.88,-276.25 798.12,-276.25 798.12,-295.5"/>
<text text-anchor="middle" x="768" y="-282" font-family="Helvetica,sans-Serif" font-size="10.00">v8&#45;value.h</text>
</a>
</g>
</g>
<!-- Node1&#45;&gt;Node23 -->
<g id="edge66" class="edge">
<title>Node1&#45;&gt;Node23</title>
<path fill="none" stroke="#63b8ff" d="M622.04,-567.56C762.23,-568.66 1161,-562.15 1161,-452.62 1161,-452.62 1161,-452.62 1161,-395.38 1161,-322.97 910.02,-297 809.2,-289.49"/>
<polygon fill="#63b8ff" stroke="#63b8ff" points="809.74,-285.94 799.51,-288.72 809.23,-292.93 809.74,-285.94"/>
</g>
<!-- Node6&#45;&gt;Node2 -->
<g id="edge6" class="edge">
<title>Node6&#45;&gt;Node2</title>
<path fill="none" stroke="#63b8ff" d="M375.37,-55.79C332.97,-45.88 261.49,-29.19 218.32,-19.11"/>
<polygon fill="#63b8ff" stroke="#63b8ff" points="219.27,-15.5 208.74,-16.64 217.68,-22.32 219.27,-15.5"/>
</g>
<!-- Node6&#45;&gt;Node3 -->
<g id="edge7" class="edge">
<title>Node6&#45;&gt;Node3</title>
<path fill="none" stroke="#63b8ff" d="M384.22,-54.84C358.83,-45.95 319.92,-32.32 292.01,-22.54"/>
<polygon fill="#63b8ff" stroke="#63b8ff" points="293.5,-19 282.9,-19 291.18,-25.61 293.5,-19"/>
</g>
<!-- Node6&#45;&gt;Node5 -->
<g id="edge10" class="edge">
<title>Node6&#45;&gt;Node5</title>
<path fill="none" stroke="#63b8ff" d="M444.6,-57.61C449.11,-56.81 453.66,-56.01 458,-55.25 536.5,-41.56 628.24,-26.2 680.3,-17.54"/>
<polygon fill="#63b8ff" stroke="#63b8ff" points="680.8,-20.84 690.09,-15.74 679.65,-13.93 680.8,-20.84"/>
</g>
<!-- Node7 -->
<g id="node7" class="node">
<title>Node7</title>
<g id="a_node7"><a xlink:title=" ">
<polygon fill="#e0e0e0" stroke="#999999" points="509.75,-19.25 462.25,-19.25 462.25,0 509.75,0 509.75,-19.25"/>
<text text-anchor="middle" x="486" y="-5.75" font-family="Helvetica,sans-Serif" font-size="10.00">string.h</text>
</a>
</g>
</g>
<!-- Node6&#45;&gt;Node7 -->
<g id="edge8" class="edge">
<title>Node6&#45;&gt;Node7</title>
<path fill="none" stroke="#63b8ff" d="M422.89,-54.84C434.25,-46.89 451.02,-35.14 464.41,-25.75"/>
<polygon fill="#63b8ff" stroke="#63b8ff" points="465.86,-28.31 472.04,-19.7 461.85,-22.57 465.86,-28.31"/>
</g>
<!-- Node8 -->
<g id="node8" class="node">
<title>Node8</title>
<g id="a_node8"><a xlink:title=" ">
<polygon fill="#e0e0e0" stroke="#999999" points="357.62,-19.25 312.38,-19.25 312.38,0 357.62,0 357.62,-19.25"/>
<text text-anchor="middle" x="335" y="-5.75" font-family="Helvetica,sans-Serif" font-size="10.00">atomic</text>
</a>
</g>
</g>
<!-- Node6&#45;&gt;Node8 -->
<g id="edge9" class="edge">
<title>Node6&#45;&gt;Node8</title>
<path fill="none" stroke="#63b8ff" d="M397.28,-54.84C386.18,-46.96 369.84,-35.36 356.68,-26.02"/>
<polygon fill="#63b8ff" stroke="#63b8ff" points="358.97,-22.64 348.79,-19.7 354.91,-28.35 358.97,-22.64"/>
</g>
<!-- Node9 -->
<g id="node9" class="node">
<title>Node9</title>
<g id="a_node9"><a xlink:href="v8-version_8h.html" target="_top" xlink:title=" ">
<polygon fill="white" stroke="#666666" points="444.25,-19.25 375.75,-19.25 375.75,0 444.25,0 444.25,-19.25"/>
<text text-anchor="middle" x="410" y="-5.75" font-family="Helvetica,sans-Serif" font-size="10.00">v8&#45;version.h</text>
</a>
</g>
</g>
<!-- Node6&#45;&gt;Node9 -->
<g id="edge11" class="edge">
<title>Node6&#45;&gt;Node9</title>
<path fill="none" stroke="#63b8ff" d="M410,-55.08C410,-48.42 410,-38.99 410,-30.53"/>
<polygon fill="#63b8ff" stroke="#63b8ff" points="413.5,-30.61 410,-20.61 406.5,-30.61 413.5,-30.61"/>
</g>
<!-- Node6&#45;&gt;Node10 -->
<g id="edge12" class="edge">
<title>Node6&#45;&gt;Node10</title>
<path fill="none" stroke="#63b8ff" d="M444.34,-61.34C563.9,-52.52 961.66,-23.19 1090.99,-13.65"/>
<polygon fill="#63b8ff" stroke="#63b8ff" points="1091.23,-17.07 1100.95,-12.84 1090.72,-10.09 1091.23,-17.07"/>
</g>
<!-- Node11&#45;&gt;Node2 -->
<g id="edge14" class="edge">
<title>Node11&#45;&gt;Node2</title>
<path fill="none" stroke="#63b8ff" d="M606.44,-165.32C576.3,-156.76 530.35,-143.25 491,-129.75 388.56,-94.62 269.58,-46.69 213.86,-23.82"/>
<polygon fill="#63b8ff" stroke="#63b8ff" points="215.48,-20.29 204.9,-19.72 212.81,-26.76 215.48,-20.29"/>
</g>
<!-- Node11&#45;&gt;Node5 -->
<g id="edge15" class="edge">
<title>Node11&#45;&gt;Node5</title>
<path fill="none" stroke="#63b8ff" d="M643.46,-165.57C656.52,-139.8 694.87,-64.15 712.69,-28.99"/>
<polygon fill="#63b8ff" stroke="#63b8ff" points="716.12,-30.97 717.52,-20.47 709.87,-27.81 716.12,-30.97"/>
</g>
<!-- Node12 -->
<g id="node12" class="node">
<title>Node12</title>
<g id="a_node12"><a xlink:href="v8-handle-base_8h.html" target="_top" xlink:title=" ">
<polygon fill="white" stroke="#666666" points="589.75,-129.75 500.25,-129.75 500.25,-110.5 589.75,-110.5 589.75,-129.75"/>
<text text-anchor="middle" x="545" y="-116.25" font-family="Helvetica,sans-Serif" font-size="10.00">v8&#45;handle&#45;base.h</text>
</a>
</g>
</g>
<!-- Node11&#45;&gt;Node12 -->
<g id="edge16" class="edge">
<title>Node11&#45;&gt;Node12</title>
<path fill="none" stroke="#63b8ff" d="M623.05,-165.34C608.6,-157.16 587.07,-144.96 570.27,-135.44"/>
<polygon fill="#63b8ff" stroke="#63b8ff" points="572.45,-132.09 562.02,-130.2 569,-138.18 572.45,-132.09"/>
</g>
<!-- Node12&#45;&gt;Node6 -->
<g id="edge17" class="edge">
<title>Node12&#45;&gt;Node6</title>
<path fill="none" stroke="#63b8ff" d="M522.1,-110.09C500.38,-101.52 467.5,-88.56 442.96,-78.88"/>
<polygon fill="#63b8ff" stroke="#63b8ff" points="444.6,-75.37 434.01,-74.95 442.03,-81.88 444.6,-75.37"/>
</g>
<!-- Node13&#45;&gt;Node10 -->
<g id="edge65" class="edge">
<title>Node13&#45;&gt;Node10</title>
<path fill="none" stroke="#63b8ff" d="M527.49,-501.81C635.34,-490.28 926.64,-451.4 1146,-350.75 1240.78,-307.26 1303,-280.66 1303,-176.38 1303,-176.38 1303,-176.38 1303,-119.12 1303,-57.71 1223.38,-29.59 1172.8,-17.92"/>
<polygon fill="#63b8ff" stroke="#63b8ff" points="1173.69,-14.32 1163.18,-15.61 1172.21,-21.16 1173.69,-14.32"/>
</g>
<!-- Node13&#45;&gt;Node11 -->
<g id="edge64" class="edge">
<title>Node13&#45;&gt;Node11</title>
<path fill="none" stroke="#63b8ff" d="M458.42,-496.76C442.45,-489.75 423.44,-478.33 414,-461.25 394.14,-425.3 326.96,-622.13 451,-276.25 460.29,-250.34 457.71,-238.46 479,-221 495.14,-207.77 544.17,-195.23 583.74,-186.84"/>
<polygon fill="#63b8ff" stroke="#63b8ff" points="584.27,-190.09 593.35,-184.64 582.85,-183.24 584.27,-190.09"/>
</g>
<!-- Node14 -->
<g id="node14" class="node">
<title>Node14</title>
<g id="a_node14"><a xlink:href="v8-array-buffer_8h.html" target="_top" xlink:title=" ">
<polygon fill="white" stroke="#666666" points="507.5,-461.25 422.5,-461.25 422.5,-442 507.5,-442 507.5,-461.25"/>
<text text-anchor="middle" x="465" y="-447.75" font-family="Helvetica,sans-Serif" font-size="10.00">v8&#45;array&#45;buffer.h</text>
</a>
</g>
</g>
<!-- Node13&#45;&gt;Node14 -->
<g id="edge19" class="edge">
<title>Node13&#45;&gt;Node14</title>
<path fill="none" stroke="#63b8ff" d="M481.7,-497.08C479.11,-490.19 475.41,-480.34 472.15,-471.66"/>
<polygon fill="#63b8ff" stroke="#63b8ff" points="475.17,-470.74 468.37,-462.61 468.61,-473.2 475.17,-470.74"/>
</g>
<!-- Node14&#45;&gt;Node2 -->
<g id="edge20" class="edge">
<title>Node14&#45;&gt;Node2</title>
<path fill="none" stroke="#63b8ff" d="M422.26,-446.63C321.21,-434.59 76,-389.15 76,-231.62 76,-231.62 76,-231.62 76,-119.12 76,-74.93 121.56,-42.05 152.94,-24.64"/>
<polygon fill="#63b8ff" stroke="#63b8ff" points="154.37,-27.32 161.56,-19.54 151.08,-21.13 154.37,-27.32"/>
</g>
<!-- Node14&#45;&gt;Node10 -->
<g id="edge63" class="edge">
<title>Node14&#45;&gt;Node10</title>
<path fill="none" stroke="#63b8ff" d="M507.94,-444.08C512.69,-443.37 517.44,-442.66 522,-442 783.7,-403.87 864.32,-448.64 1110,-350.75 1206.33,-312.37 1265,-280.07 1265,-176.38 1265,-176.38 1265,-176.38 1265,-119.12 1265,-70.16 1210.21,-39.35 1170.96,-23.57"/>
<polygon fill="#63b8ff" stroke="#63b8ff" points="1172.45,-20.01 1161.86,-19.69 1169.94,-26.54 1172.45,-20.01"/>
</g>
<!-- Node14&#45;&gt;Node11 -->
<g id="edge22" class="edge">
<title>Node14&#45;&gt;Node11</title>
<path fill="none" stroke="#63b8ff" d="M465,-441.62C465,-423.03 465,-379.05 465,-342.12 465,-342.12 465,-342.12 465,-284.88 465,-228.04 532.67,-199.9 583.61,-186.76"/>
<polygon fill="#63b8ff" stroke="#63b8ff" points="584.3,-189.95 593.19,-184.18 582.65,-183.15 584.3,-189.95"/>
</g>
<!-- Node15 -->
<g id="node15" class="node">
<title>Node15</title>
<g id="a_node15"><a xlink:title=" ">
<polygon fill="#e0e0e0" stroke="#999999" points="192.25,-185 141.75,-185 141.75,-165.75 192.25,-165.75 192.25,-185"/>
<text text-anchor="middle" x="167" y="-171.5" font-family="Helvetica,sans-Serif" font-size="10.00">memory</text>
</a>
</g>
</g>
<!-- Node14&#45;&gt;Node15 -->
<g id="edge21" class="edge">
<title>Node14&#45;&gt;Node15</title>
<path fill="none" stroke="#63b8ff" d="M422.36,-445.29C366.34,-435.64 275,-409.55 275,-342.12 275,-342.12 275,-342.12 275,-284.88 275,-240.32 228.68,-207.58 196.71,-190.3"/>
<polygon fill="#63b8ff" stroke="#63b8ff" points="198.8,-186.93 188.31,-185.44 195.58,-193.14 198.8,-186.93"/>
</g>
<!-- Node16 -->
<g id="node16" class="node">
<title>Node16</title>
<g id="a_node16"><a xlink:href="v8-object_8h.html" target="_top" xlink:title=" ">
<polygon fill="white" stroke="#666666" points="769.62,-406 706.38,-406 706.38,-386.75 769.62,-386.75 769.62,-406"/>
<text text-anchor="middle" x="738" y="-392.5" font-family="Helvetica,sans-Serif" font-size="10.00">v8&#45;object.h</text>
</a>
</g>
</g>
<!-- Node14&#45;&gt;Node16 -->
<g id="edge23" class="edge">
<title>Node14&#45;&gt;Node16</title>
<path fill="none" stroke="#63b8ff" d="M507.96,-442.25C559.16,-432.26 644.19,-415.67 695.29,-405.71"/>
<polygon fill="#63b8ff" stroke="#63b8ff" points="695.81,-408.97 704.96,-403.63 694.47,-402.1 695.81,-408.97"/>
</g>
<!-- Node16&#45;&gt;Node10 -->
<g id="edge62" class="edge">
<title>Node16&#45;&gt;Node10</title>
<path fill="none" stroke="#63b8ff" d="M770.08,-395.72C878.87,-395.07 1227,-377.3 1227,-176.38 1227,-176.38 1227,-176.38 1227,-119.12 1227,-77.02 1186,-43.41 1157.87,-25.31"/>
<polygon fill="#63b8ff" stroke="#63b8ff" points="1159.9,-21.83 1149.55,-19.56 1156.23,-27.79 1159.9,-21.83"/>
</g>
<!-- Node16&#45;&gt;Node11 -->
<g id="edge24" class="edge">
<title>Node16&#45;&gt;Node11</title>
<path fill="none" stroke="#63b8ff" d="M709.32,-386.29C692.2,-379.33 671.6,-367.96 660,-350.75 627.68,-302.8 631.72,-230.2 635.99,-195.78"/>
<polygon fill="#63b8ff" stroke="#63b8ff" points="639.53,-196.69 637.45,-186.31 632.6,-195.73 639.53,-196.69"/>
</g>
<!-- Node17 -->
<g id="node17" class="node">
<title>Node17</title>
<g id="a_node17"><a xlink:href="v8-maybe_8h.html" target="_top" xlink:title=" ">
<polygon fill="white" stroke="#666666" points="860.75,-240.25 795.25,-240.25 795.25,-221 860.75,-221 860.75,-240.25"/>
<text text-anchor="middle" x="828" y="-226.75" font-family="Helvetica,sans-Serif" font-size="10.00">v8&#45;maybe.h</text>
</a>
</g>
</g>
<!-- Node16&#45;&gt;Node17 -->
<g id="edge25" class="edge">
<title>Node16&#45;&gt;Node17</title>
<path fill="none" stroke="#63b8ff" d="M745.62,-386.3C759.5,-369.4 789.09,-331.55 807,-295.5 814.08,-281.25 819.57,-264.07 823.16,-251.12"/>
<polygon fill="#63b8ff" stroke="#63b8ff" points="826.76,-252.18 825.91,-241.62 819.99,-250.4 826.76,-252.18"/>
</g>
<!-- Node19 -->
<g id="node19" class="node">
<title>Node19</title>
<g id="a_node19"><a xlink:href="v8-persistent-handle_8h.html" target="_top" xlink:title=" ">
<polygon fill="white" stroke="#666666" points="1054.62,-240.25 943.38,-240.25 943.38,-221 1054.62,-221 1054.62,-240.25"/>
<text text-anchor="middle" x="999" y="-226.75" font-family="Helvetica,sans-Serif" font-size="10.00">v8&#45;persistent&#45;handle.h</text>
</a>
</g>
</g>
<!-- Node16&#45;&gt;Node19 -->
<g id="edge30" class="edge">
<title>Node16&#45;&gt;Node19</title>
<path fill="none" stroke="#63b8ff" d="M752.4,-386.34C795.27,-359.44 922.34,-279.72 975.36,-246.46"/>
<polygon fill="#63b8ff" stroke="#63b8ff" points="977.03,-248.91 983.64,-240.63 973.31,-242.98 977.03,-248.91"/>
</g>
<!-- Node21 -->
<g id="node21" class="node">
<title>Node21</title>
<g id="a_node21"><a xlink:href="v8-primitive_8h.html" target="_top" xlink:title=" ">
<polygon fill="white" stroke="#666666" points="742.88,-350.75 669.12,-350.75 669.12,-331.5 742.88,-331.5 742.88,-350.75"/>
<text text-anchor="middle" x="706" y="-337.25" font-family="Helvetica,sans-Serif" font-size="10.00">v8&#45;primitive.h</text>
</a>
</g>
</g>
<!-- Node16&#45;&gt;Node21 -->
<g id="edge36" class="edge">
<title>Node16&#45;&gt;Node21</title>
<path fill="none" stroke="#63b8ff" d="M732.72,-386.58C728.43,-379.46 722.26,-369.18 716.92,-360.3"/>
<polygon fill="#63b8ff" stroke="#63b8ff" points="719.55,-358.88 711.4,-352.11 713.55,-362.48 719.55,-358.88"/>
</g>
<!-- Node16&#45;&gt;Node23 -->
<g id="edge61" class="edge">
<title>Node16&#45;&gt;Node23</title>
<path fill="none" stroke="#63b8ff" d="M740.94,-386.53C743.89,-377.56 748.48,-363.25 752,-350.75 756.18,-335.91 760.4,-318.97 763.45,-306.27"/>
<polygon fill="#63b8ff" stroke="#63b8ff" points="767.08,-307.13 765.99,-296.6 760.27,-305.52 767.08,-307.13"/>
</g>
<!-- Node24 -->
<g id="node24" class="node">
<title>Node24</title>
<g id="a_node24"><a xlink:href="v8-traced-handle_8h.html" target="_top" xlink:title=" ">
<polygon fill="white" stroke="#666666" points="398.75,-240.25 303.25,-240.25 303.25,-221 398.75,-221 398.75,-240.25"/>
<text text-anchor="middle" x="351" y="-226.75" font-family="Helvetica,sans-Serif" font-size="10.00">v8&#45;traced&#45;handle.h</text>
</a>
</g>
</g>
<!-- Node16&#45;&gt;Node24 -->
<g id="edge49" class="edge">
<title>Node16&#45;&gt;Node24</title>
<path fill="none" stroke="#63b8ff" d="M707.05,-386.33C679.44,-377.97 638.07,-364.77 603,-350.75 519,-317.16 423.31,-269.11 377.79,-245.62"/>
<polygon fill="#63b8ff" stroke="#63b8ff" points="379.58,-242.09 369.09,-240.6 376.36,-248.31 379.58,-242.09"/>
</g>
<!-- Node17&#45;&gt;Node5 -->
<g id="edge26" class="edge">
<title>Node17&#45;&gt;Node5</title>
<path fill="none" stroke="#63b8ff" d="M823.71,-220.77C807.93,-188.16 752.85,-74.36 731.01,-29.25"/>
<polygon fill="#63b8ff" stroke="#63b8ff" points="733.73,-27.83 726.22,-20.35 727.43,-30.88 733.73,-27.83"/>
</g>
<!-- Node17&#45;&gt;Node6 -->
<g id="edge28" class="edge">
<title>Node17&#45;&gt;Node6</title>
<path fill="none" stroke="#63b8ff" d="M821.62,-220.77C804.58,-197.88 755.34,-136.74 698,-110.5 618.04,-73.91 513.91,-66.44 455.28,-65.41"/>
<polygon fill="#63b8ff" stroke="#63b8ff" points="455.57,-61.9 445.53,-65.28 455.49,-68.9 455.57,-61.9"/>
</g>
<!-- Node17&#45;&gt;Node10 -->
<g id="edge29" class="edge">
<title>Node17&#45;&gt;Node10</title>
<path fill="none" stroke="#63b8ff" d="M861.07,-225.42C893.46,-220.09 943.18,-208.59 980,-185 1045.87,-142.81 1099.49,-63.88 1121.38,-28.54"/>
<polygon fill="#63b8ff" stroke="#63b8ff" points="1124.71,-30.79 1126.91,-20.42 1118.73,-27.15 1124.71,-30.79"/>
</g>
<!-- Node18 -->
<g id="node18" class="node">
<title>Node18</title>
<g id="a_node18"><a xlink:title=" ">
<polygon fill="#e0e0e0" stroke="#999999" points="576.25,-185 537.75,-185 537.75,-165.75 576.25,-165.75 576.25,-185"/>
<text text-anchor="middle" x="557" y="-171.5" font-family="Helvetica,sans-Serif" font-size="10.00">utility</text>
</a>
</g>
</g>
<!-- Node17&#45;&gt;Node18 -->
<g id="edge27" class="edge">
<title>Node17&#45;&gt;Node18</title>
<path fill="none" stroke="#63b8ff" d="M794.89,-224.67C749.98,-217.69 667.1,-203.95 586.86,-184.97"/>
<polygon fill="#63b8ff" stroke="#63b8ff" points="588.12,-181.43 577.58,-182.51 586.49,-188.24 588.12,-181.43"/>
</g>
<!-- Node19&#45;&gt;Node6 -->
<g id="edge31" class="edge">
<title>Node19&#45;&gt;Node6</title>
<path fill="none" stroke="#63b8ff" d="M999.04,-220.75C998.59,-206.9 995.59,-180.24 980,-165.75 903.64,-94.79 576.52,-73.24 455.36,-67.63"/>
<polygon fill="#63b8ff" stroke="#63b8ff" points="455.78,-64.1 445.63,-67.15 455.47,-71.09 455.78,-64.1"/>
</g>
<!-- Node19&#45;&gt;Node10 -->
<g id="edge35" class="edge">
<title>Node19&#45;&gt;Node10</title>
<path fill="none" stroke="#63b8ff" d="M1012.37,-220.65C1023.8,-212.44 1040.08,-199.41 1051,-185 1089.04,-134.78 1115.02,-63.82 1126.04,-30.01"/>
<polygon fill="#63b8ff" stroke="#63b8ff" points="1129.63,-31.28 1129.31,-20.69 1122.95,-29.16 1129.63,-31.28"/>
</g>
<!-- Node19&#45;&gt;Node11 -->
<g id="edge32" class="edge">
<title>Node19&#45;&gt;Node11</title>
<path fill="none" stroke="#63b8ff" d="M943.14,-221.36C875.42,-211.35 761.99,-194.57 694.45,-184.58"/>
<polygon fill="#63b8ff" stroke="#63b8ff" points="695.01,-180.97 684.61,-182.97 693.99,-187.9 695.01,-180.97"/>
</g>
<!-- Node20 -->
<g id="node20" class="node">
<title>Node20</title>
<g id="a_node20"><a xlink:href="v8-weak-callback-info_8h.html" target="_top" xlink:title=" ">
<polygon fill="white" stroke="#666666" points="971,-185 853,-185 853,-165.75 971,-165.75 971,-185"/>
<text text-anchor="middle" x="912" y="-171.5" font-family="Helvetica,sans-Serif" font-size="10.00">v8&#45;weak&#45;callback&#45;info.h</text>
</a>
</g>
</g>
<!-- Node19&#45;&gt;Node20 -->
<g id="edge33" class="edge">
<title>Node19&#45;&gt;Node20</title>
<path fill="none" stroke="#63b8ff" d="M984.24,-220.59C970.99,-212.48 951.31,-200.43 935.83,-190.96"/>
<polygon fill="#63b8ff" stroke="#63b8ff" points="938.19,-187.69 927.83,-185.45 934.53,-193.66 938.19,-187.69"/>
</g>
<!-- Node20&#45;&gt;Node10 -->
<g id="edge34" class="edge">
<title>Node20&#45;&gt;Node10</title>
<path fill="none" stroke="#63b8ff" d="M921.13,-165.25C942.45,-144.24 997.68,-91.45 1050,-55.25 1066.89,-43.57 1087.15,-32.52 1103.3,-24.33"/>
<polygon fill="#63b8ff" stroke="#63b8ff" points="1104.37,-27.22 1111.76,-19.63 1101.25,-20.95 1104.37,-27.22"/>
</g>
<!-- Node21&#45;&gt;Node6 -->
<g id="edge40" class="edge">
<title>Node21&#45;&gt;Node6</title>
<path fill="none" stroke="#63b8ff" d="M695.41,-331.27C667.61,-307.93 590.43,-242.55 529,-185 491.17,-149.56 448.64,-106.05 426.08,-82.66"/>
<polygon fill="#63b8ff" stroke="#63b8ff" points="428.92,-80.53 419.47,-75.74 423.88,-85.38 428.92,-80.53"/>
</g>
<!-- Node21&#45;&gt;Node10 -->
<g id="edge48" class="edge">
<title>Node21&#45;&gt;Node10</title>
<path fill="none" stroke="#63b8ff" d="M743.1,-335.7C856.2,-321.17 1189,-270.45 1189,-176.38 1189,-176.38 1189,-176.38 1189,-119.12 1189,-83.51 1164.64,-48.09 1147.77,-27.83"/>
<polygon fill="#63b8ff" stroke="#63b8ff" points="1149.86,-25.9 1140.66,-20.64 1144.57,-30.49 1149.86,-25.9"/>
</g>
<!-- Node21&#45;&gt;Node11 -->
<g id="edge41" class="edge">
<title>Node21&#45;&gt;Node11</title>
<path fill="none" stroke="#63b8ff" d="M700.49,-331.08C690.25,-313.93 668.13,-275.25 655,-240.25 649.53,-225.66 645.35,-208.5 642.64,-195.65"/>
<polygon fill="#63b8ff" stroke="#63b8ff" points="645.95,-195.37 640.56,-186.24 639.08,-196.74 645.95,-195.37"/>
</g>
<!-- Node22 -->
<g id="node22" class="node">
<title>Node22</title>
<g id="a_node22"><a xlink:href="v8-data_8h.html" target="_top" xlink:title=" ">
<polygon fill="white" stroke="#666666" points="738.88,-240.25 683.12,-240.25 683.12,-221 738.88,-221 738.88,-240.25"/>
<text text-anchor="middle" x="711" y="-226.75" font-family="Helvetica,sans-Serif" font-size="10.00">v8&#45;data.h</text>
</a>
</g>
</g>
<!-- Node21&#45;&gt;Node22 -->
<g id="edge37" class="edge">
<title>Node21&#45;&gt;Node22</title>
<path fill="none" stroke="#63b8ff" d="M706.41,-331.25C707.21,-313.92 708.99,-275.23 710.08,-251.49"/>
<polygon fill="#63b8ff" stroke="#63b8ff" points="713.62,-251.78 710.59,-241.63 706.63,-251.45 713.62,-251.78"/>
</g>
<!-- Node21&#45;&gt;Node23 -->
<g id="edge42" class="edge">
<title>Node21&#45;&gt;Node23</title>
<path fill="none" stroke="#63b8ff" d="M716.52,-331.09C725.48,-323.4 738.57,-312.15 749.31,-302.93"/>
<polygon fill="#63b8ff" stroke="#63b8ff" points="751.33,-304.95 756.64,-295.77 746.77,-299.64 751.33,-304.95"/>
</g>
<!-- Node22&#45;&gt;Node10 -->
<g id="edge39" class="edge">
<title>Node22&#45;&gt;Node10</title>
<path fill="none" stroke="#63b8ff" d="M725.42,-220.56C768.87,-193.44 902.77,-111.37 1020,-55.25 1045.1,-43.23 1074.33,-31.66 1096.64,-23.32"/>
<polygon fill="#63b8ff" stroke="#63b8ff" points="1097.51,-26.36 1105.67,-19.6 1095.08,-19.79 1097.51,-26.36"/>
</g>
<!-- Node22&#45;&gt;Node11 -->
<g id="edge38" class="edge">
<title>Node22&#45;&gt;Node11</title>
<path fill="none" stroke="#63b8ff" d="M698.79,-220.59C688.07,-212.66 672.26,-200.97 659.59,-191.6"/>
<polygon fill="#63b8ff" stroke="#63b8ff" points="662.15,-188.41 652.03,-185.27 657.99,-194.04 662.15,-188.41"/>
</g>
<!-- Node23&#45;&gt;Node6 -->
<g id="edge44" class="edge">
<title>Node23&#45;&gt;Node6</title>
<path fill="none" stroke="#63b8ff" d="M766.64,-276.05C764.36,-263.18 758.89,-238.86 748,-221 729.79,-191.15 719.68,-187.11 692,-165.75 653.94,-136.37 643.58,-128.51 599,-110.5 551.67,-91.38 494.21,-79.26 455.16,-72.56"/>
<polygon fill="#63b8ff" stroke="#63b8ff" points="455.85,-68.96 445.41,-70.77 454.7,-75.86 455.85,-68.96"/>
</g>
<!-- Node23&#45;&gt;Node10 -->
<g id="edge47" class="edge">
<title>Node23&#45;&gt;Node10</title>
<path fill="none" stroke="#63b8ff" d="M798.49,-284.09C865.64,-281.76 1023.54,-272.87 1064,-240.25 1129.08,-187.77 1133.88,-76.05 1132.94,-30.54"/>
<polygon fill="#63b8ff" stroke="#63b8ff" points="1136.4,-30.44 1132.57,-20.56 1129.41,-30.68 1136.4,-30.44"/>
</g>
<!-- Node23&#45;&gt;Node11 -->
<g id="edge45" class="edge">
<title>Node23&#45;&gt;Node11</title>
<path fill="none" stroke="#63b8ff" d="M737.62,-275.92C717.66,-268.82 692,-257.24 674,-240.25 660.79,-227.79 651.39,-209.21 645.68,-195.29"/>
<polygon fill="#63b8ff" stroke="#63b8ff" points="648.72,-194.44 641.89,-186.34 642.18,-196.93 648.72,-194.44"/>
</g>
<!-- Node23&#45;&gt;Node17 -->
<g id="edge46" class="edge">
<title>Node23&#45;&gt;Node17</title>
<path fill="none" stroke="#63b8ff" d="M778.18,-275.84C786.85,-268.15 799.52,-256.9 809.92,-247.68"/>
<polygon fill="#63b8ff" stroke="#63b8ff" points="811.82,-250.78 816.97,-241.52 807.17,-245.54 811.82,-250.78"/>
</g>
<!-- Node23&#45;&gt;Node22 -->
<g id="edge43" class="edge">
<title>Node23&#45;&gt;Node22</title>
<path fill="none" stroke="#63b8ff" d="M758.33,-275.84C750.17,-268.22 738.29,-257.12 728.48,-247.95"/>
<polygon fill="#63b8ff" stroke="#63b8ff" points="731.22,-245.79 721.53,-241.52 726.44,-250.91 731.22,-245.79"/>
</g>
<!-- Node24&#45;&gt;Node2 -->
<g id="edge50" class="edge">
<title>Node24&#45;&gt;Node2</title>
<path fill="none" stroke="#63b8ff" d="M335.71,-220.53C322.78,-212.35 304.29,-199.41 291,-185 244.9,-135.01 207.06,-62.88 190.71,-29.23"/>
<polygon fill="#63b8ff" stroke="#63b8ff" points="193.47,-27.89 186.01,-20.38 187.16,-30.91 193.47,-27.89"/>
</g>
<!-- Node24&#45;&gt;Node3 -->
<g id="edge51" class="edge">
<title>Node24&#45;&gt;Node3</title>
<path fill="none" stroke="#63b8ff" d="M338.93,-220.66C328.72,-212.46 314.44,-199.44 306,-185 276.22,-134.06 264.29,-63.94 260.06,-30.25"/>
<polygon fill="#63b8ff" stroke="#63b8ff" points="263.45,-30.13 258.83,-20.59 256.5,-30.93 263.45,-30.13"/>
</g>
<!-- Node24&#45;&gt;Node5 -->
<g id="edge55" class="edge">
<title>Node24&#45;&gt;Node5</title>
<path fill="none" stroke="#63b8ff" d="M359.86,-220.67C381.08,-199.57 437.07,-145.82 491,-110.5 537.77,-79.87 552.69,-77.44 604,-55.25 631.02,-43.56 662.2,-31.85 685.72,-23.35"/>
<polygon fill="#63b8ff" stroke="#63b8ff" points="686.71,-26.36 694.94,-19.69 684.35,-19.77 686.71,-26.36"/>
</g>
<!-- Node24&#45;&gt;Node6 -->
<g id="edge57" class="edge">
<title>Node24&#45;&gt;Node6</title>
<path fill="none" stroke="#63b8ff" d="M357.09,-220.75C362.88,-211.99 371.5,-198.05 377,-185 391.26,-151.17 401.2,-109.35 406.22,-85.33"/>
<polygon fill="#63b8ff" stroke="#63b8ff" points="409.8,-86.3 408.35,-75.8 402.94,-84.91 409.8,-86.3"/>
</g>
<!-- Node24&#45;&gt;Node8 -->
<g id="edge53" class="edge">
<title>Node24&#45;&gt;Node8</title>
<path fill="none" stroke="#63b8ff" d="M340.5,-220.58C331.78,-212.32 320.04,-199.27 315,-185 295.94,-131.02 315.62,-62.37 327.45,-29.64"/>
<polygon fill="#63b8ff" stroke="#63b8ff" points="330.97,-31.24 331.23,-20.65 324.42,-28.76 330.97,-31.24"/>
</g>
<!-- Node24&#45;&gt;Node10 -->
<g id="edge60" class="edge">
<title>Node24&#45;&gt;Node10</title>
<path fill="none" stroke="#63b8ff" d="M374.09,-220.56C407.82,-207.5 472.67,-183.06 529,-165.75 738.18,-101.46 993.62,-41.84 1091.34,-19.71"/>
<polygon fill="#63b8ff" stroke="#63b8ff" points="1091.94,-22.94 1100.92,-17.32 1090.4,-16.11 1091.94,-22.94"/>
</g>
<!-- Node24&#45;&gt;Node11 -->
<g id="edge58" class="edge">
<title>Node24&#45;&gt;Node11</title>
<path fill="none" stroke="#63b8ff" d="M399.2,-220.71C450.14,-211.29 530.34,-196.47 583.78,-186.58"/>
<polygon fill="#63b8ff" stroke="#63b8ff" points="584.23,-189.88 593.43,-184.62 582.96,-182.99 584.23,-189.88"/>
</g>
<!-- Node24&#45;&gt;Node15 -->
<g id="edge54" class="edge">
<title>Node24&#45;&gt;Node15</title>
<path fill="none" stroke="#63b8ff" d="M319.79,-220.59C287.5,-211.25 237.13,-196.67 203.13,-186.83"/>
<polygon fill="#63b8ff" stroke="#63b8ff" points="204.29,-183.24 193.72,-183.82 202.35,-189.96 204.29,-183.24"/>
</g>
<!-- Node24&#45;&gt;Node18 -->
<g id="edge56" class="edge">
<title>Node24&#45;&gt;Node18</title>
<path fill="none" stroke="#63b8ff" d="M386.46,-220.51C421.44,-211.52 476.41,-197.36 524,-185 524.95,-184.75 525.92,-184.5 526.9,-184.25"/>
<polygon fill="#63b8ff" stroke="#63b8ff" points="527.67,-187.4 536.46,-181.49 525.9,-180.63 527.67,-187.4"/>
</g>
<!-- Node24&#45;&gt;Node20 -->
<g id="edge59" class="edge">
<title>Node24&#45;&gt;Node20</title>
<path fill="none" stroke="#63b8ff" d="M398.83,-225.08C497.91,-215.68 725.99,-194.03 841.8,-183.04"/>
<polygon fill="#63b8ff" stroke="#63b8ff" points="842.02,-186.44 851.64,-182.01 841.36,-179.47 842.02,-186.44"/>
</g>
<!-- Node25 -->
<g id="node25" class="node">
<title>Node25</title>
<g id="a_node25"><a xlink:title=" ">
<polygon fill="#e0e0e0" stroke="#999999" points="368.25,-185 323.75,-185 323.75,-165.75 368.25,-165.75 368.25,-185"/>
<text text-anchor="middle" x="346" y="-171.5" font-family="Helvetica,sans-Serif" font-size="10.00">stdio.h</text>
</a>
</g>
</g>
<!-- Node24&#45;&gt;Node25 -->
<g id="edge52" class="edge">
<title>Node24&#45;&gt;Node25</title>
<path fill="none" stroke="#63b8ff" d="M350.17,-220.83C349.55,-214.17 348.66,-204.74 347.87,-196.28"/>
<polygon fill="#63b8ff" stroke="#63b8ff" points="351.26,-195.99 346.84,-186.36 344.29,-196.64 351.26,-195.99"/>
</g>
</g>
</svg>
