<?xml version="1.0" encoding="UTF-8" standalone="no"?>
<!DOCTYPE svg PUBLIC "-//W3C//DTD SVG 1.1//EN"
 "http://www.w3.org/Graphics/SVG/1.1/DTD/svg11.dtd">
<!-- Generated by graphviz version 8.0.5 (20230430.1635)
 -->
<!-- Title: include/v8&#45;primitive.h Pages: 1 -->
<svg width="557pt" height="359pt"
 viewBox="0.00 0.00 557.25 358.75" xmlns="http://www.w3.org/2000/svg" xmlns:xlink="http://www.w3.org/1999/xlink">
<g id="graph0" class="graph" transform="scale(1 1) rotate(0) translate(4 354.75)">
<title>include/v8&#45;primitive.h</title>
<!-- Node1 -->
<g id="node1" class="node">
<title>Node1</title>
<g id="a_node1"><a xlink:title=" ">
<polygon fill="#999999" stroke="#666666" points="433,-350.75 325.5,-350.75 325.5,-331.5 433,-331.5 433,-350.75"/>
<text text-anchor="middle" x="379.25" y="-337.25" font-family="Helvetica,sans-Serif" font-size="10.00">include/v8&#45;primitive.h</text>
</a>
</g>
</g>
<!-- Node2 -->
<g id="node2" class="node">
<title>Node2</title>
<g id="a_node2"><a xlink:href="v8-data_8h.html" target="_top" xlink:title=" ">
<polygon fill="white" stroke="#666666" points="521.12,-240.25 465.38,-240.25 465.38,-221 521.12,-221 521.12,-240.25"/>
<text text-anchor="middle" x="493.25" y="-226.75" font-family="Helvetica,sans-Serif" font-size="10.00">v8&#45;data.h</text>
</a>
</g>
</g>
<!-- Node1&#45;&gt;Node2 -->
<g id="edge1" class="edge">
<title>Node1&#45;&gt;Node2</title>
<path fill="none" stroke="#63b8ff" d="M388.58,-331.25C407.7,-313.05 451.6,-271.27 476.03,-248.01"/>
<polygon fill="#63b8ff" stroke="#63b8ff" points="477.96,-251.06 482.79,-241.63 473.14,-245.99 477.96,-251.06"/>
</g>
<!-- Node3 -->
<g id="node3" class="node">
<title>Node3</title>
<g id="a_node3"><a xlink:href="v8-local-handle_8h.html" target="_top" xlink:title=" ">
<polygon fill="white" stroke="#666666" points="252.62,-185 163.88,-185 163.88,-165.75 252.62,-165.75 252.62,-185"/>
<text text-anchor="middle" x="208.25" y="-171.5" font-family="Helvetica,sans-Serif" font-size="10.00">v8&#45;local&#45;handle.h</text>
</a>
</g>
</g>
<!-- Node1&#45;&gt;Node3 -->
<g id="edge16" class="edge">
<title>Node1&#45;&gt;Node3</title>
<path fill="none" stroke="#63b8ff" d="M361.8,-331.24C333.24,-315.97 276.11,-282.31 240.25,-240.25 228.93,-226.98 220.39,-209.01 214.99,-195.52"/>
<polygon fill="#63b8ff" stroke="#63b8ff" points="218,-194.56 211.21,-186.43 211.45,-197.02 218,-194.56"/>
</g>
<!-- Node7 -->
<g id="node7" class="node">
<title>Node7</title>
<g id="a_node7"><a xlink:href="v8-internal_8h.html" target="_top" xlink:title=" ">
<polygon fill="white" stroke="#666666" points="256.5,-74.5 188,-74.5 188,-55.25 256.5,-55.25 256.5,-74.5"/>
<text text-anchor="middle" x="222.25" y="-61" font-family="Helvetica,sans-Serif" font-size="10.00">v8&#45;internal.h</text>
</a>
</g>
</g>
<!-- Node1&#45;&gt;Node7 -->
<g id="edge15" class="edge">
<title>Node1&#45;&gt;Node7</title>
<path fill="none" stroke="#63b8ff" d="M325.18,-339.13C253.03,-334.6 134.25,-314.55 134.25,-231.62 134.25,-231.62 134.25,-231.62 134.25,-174.38 134.25,-144.76 135.49,-134.2 153.25,-110.5 163.02,-97.45 177.82,-87.16 191.21,-79.77"/>
<polygon fill="#63b8ff" stroke="#63b8ff" points="192.34,-82.6 199.61,-74.9 189.12,-76.39 192.34,-82.6"/>
</g>
<!-- Node12 -->
<g id="node12" class="node">
<title>Node12</title>
<g id="a_node12"><a xlink:href="v8config_8h.html" target="_top" xlink:title=" ">
<polygon fill="white" stroke="#666666" points="503,-19.25 443.5,-19.25 443.5,0 503,0 503,-19.25"/>
<text text-anchor="middle" x="473.25" y="-5.75" font-family="Helvetica,sans-Serif" font-size="10.00">v8config.h</text>
</a>
</g>
</g>
<!-- Node1&#45;&gt;Node12 -->
<g id="edge27" class="edge">
<title>Node1&#45;&gt;Node12</title>
<path fill="none" stroke="#63b8ff" d="M426.6,-331.1C476.91,-318.45 549.25,-290.1 549.25,-231.62 549.25,-231.62 549.25,-231.62 549.25,-119.12 549.25,-80.35 516.28,-45.58 493.77,-26.36"/>
<polygon fill="#63b8ff" stroke="#63b8ff" points="496.42,-23.19 486.46,-19.56 491.98,-28.6 496.42,-23.19"/>
</g>
<!-- Node13 -->
<g id="node13" class="node">
<title>Node13</title>
<g id="a_node13"><a xlink:href="v8-value_8h.html" target="_top" xlink:title=" ">
<polygon fill="white" stroke="#666666" points="409.38,-295.5 349.12,-295.5 349.12,-276.25 409.38,-276.25 409.38,-295.5"/>
<text text-anchor="middle" x="379.25" y="-282" font-family="Helvetica,sans-Serif" font-size="10.00">v8&#45;value.h</text>
</a>
</g>
</g>
<!-- Node1&#45;&gt;Node13 -->
<g id="edge17" class="edge">
<title>Node1&#45;&gt;Node13</title>
<path fill="none" stroke="#63b8ff" d="M379.25,-331.33C379.25,-324.67 379.25,-315.24 379.25,-306.78"/>
<polygon fill="#63b8ff" stroke="#63b8ff" points="382.75,-306.86 379.25,-296.86 375.75,-306.86 382.75,-306.86"/>
</g>
<!-- Node2&#45;&gt;Node3 -->
<g id="edge2" class="edge">
<title>Node2&#45;&gt;Node3</title>
<path fill="none" stroke="#63b8ff" d="M464.88,-224.32C418.06,-215.58 323.81,-197.97 263.48,-186.69"/>
<polygon fill="#63b8ff" stroke="#63b8ff" points="264.47,-183.13 254,-184.74 263.19,-190.01 264.47,-183.13"/>
</g>
<!-- Node2&#45;&gt;Node12 -->
<g id="edge14" class="edge">
<title>Node2&#45;&gt;Node12</title>
<path fill="none" stroke="#63b8ff" d="M493.78,-220.83C495.14,-195.12 497.96,-117.95 487.25,-55.25 485.8,-46.75 483.14,-37.63 480.53,-29.86"/>
<polygon fill="#63b8ff" stroke="#63b8ff" points="483.55,-28.91 476.88,-20.68 476.96,-31.27 483.55,-28.91"/>
</g>
<!-- Node4 -->
<g id="node4" class="node">
<title>Node4</title>
<g id="a_node4"><a xlink:title=" ">
<polygon fill="#e0e0e0" stroke="#999999" points="50.5,-19.25 0,-19.25 0,0 50.5,0 50.5,-19.25"/>
<text text-anchor="middle" x="25.25" y="-5.75" font-family="Helvetica,sans-Serif" font-size="10.00">stddef.h</text>
</a>
</g>
</g>
<!-- Node3&#45;&gt;Node4 -->
<g id="edge3" class="edge">
<title>Node3&#45;&gt;Node4</title>
<path fill="none" stroke="#63b8ff" d="M196.69,-165.37C185.43,-156.51 167.91,-142.5 153.25,-129.75 112.44,-94.28 66.45,-50.49 42.25,-27.14"/>
<polygon fill="#63b8ff" stroke="#63b8ff" points="44.99,-24.95 35.37,-20.51 40.12,-29.98 44.99,-24.95"/>
</g>
<!-- Node5 -->
<g id="node5" class="node">
<title>Node5</title>
<g id="a_node5"><a xlink:title=" ">
<polygon fill="#e0e0e0" stroke="#999999" points="410.75,-19.25 349.75,-19.25 349.75,0 410.75,0 410.75,-19.25"/>
<text text-anchor="middle" x="380.25" y="-5.75" font-family="Helvetica,sans-Serif" font-size="10.00">type_traits</text>
</a>
</g>
</g>
<!-- Node3&#45;&gt;Node5 -->
<g id="edge4" class="edge">
<title>Node3&#45;&gt;Node5</title>
<path fill="none" stroke="#63b8ff" d="M219.45,-165.41C230.34,-156.59 247.25,-142.61 261.25,-129.75 299.43,-94.68 341.82,-51.03 364.27,-27.52"/>
<polygon fill="#63b8ff" stroke="#63b8ff" points="366.49,-30.21 370.84,-20.56 361.41,-25.39 366.49,-30.21"/>
</g>
<!-- Node6 -->
<g id="node6" class="node">
<title>Node6</title>
<g id="a_node6"><a xlink:href="v8-handle-base_8h.html" target="_top" xlink:title=" ">
<polygon fill="white" stroke="#666666" points="252,-129.75 162.5,-129.75 162.5,-110.5 252,-110.5 252,-129.75"/>
<text text-anchor="middle" x="207.25" y="-116.25" font-family="Helvetica,sans-Serif" font-size="10.00">v8&#45;handle&#45;base.h</text>
</a>
</g>
</g>
<!-- Node3&#45;&gt;Node6 -->
<g id="edge5" class="edge">
<title>Node3&#45;&gt;Node6</title>
<path fill="none" stroke="#63b8ff" d="M208.08,-165.58C207.96,-158.92 207.78,-149.49 207.62,-141.03"/>
<polygon fill="#63b8ff" stroke="#63b8ff" points="211.11,-141.04 207.42,-131.11 204.11,-141.17 211.11,-141.04"/>
</g>
<!-- Node6&#45;&gt;Node7 -->
<g id="edge6" class="edge">
<title>Node6&#45;&gt;Node7</title>
<path fill="none" stroke="#63b8ff" d="M209.73,-110.33C211.65,-103.51 214.38,-93.81 216.81,-85.2"/>
<polygon fill="#63b8ff" stroke="#63b8ff" points="220.38,-86.43 219.72,-75.86 213.64,-84.54 220.38,-86.43"/>
</g>
<!-- Node7&#45;&gt;Node4 -->
<g id="edge7" class="edge">
<title>Node7&#45;&gt;Node4</title>
<path fill="none" stroke="#63b8ff" d="M188.83,-54.84C153.36,-45.25 97.51,-30.16 61.13,-20.32"/>
<polygon fill="#63b8ff" stroke="#63b8ff" points="62.53,-16.81 51.97,-17.58 60.71,-23.56 62.53,-16.81"/>
</g>
<!-- Node7&#45;&gt;Node5 -->
<g id="edge11" class="edge">
<title>Node7&#45;&gt;Node5</title>
<path fill="none" stroke="#63b8ff" d="M249.05,-54.84C274.93,-46.12 314.33,-32.84 343.2,-23.11"/>
<polygon fill="#63b8ff" stroke="#63b8ff" points="343.96,-26.21 352.32,-19.7 341.72,-19.58 343.96,-26.21"/>
</g>
<!-- Node8 -->
<g id="node8" class="node">
<title>Node8</title>
<g id="a_node8"><a xlink:title=" ">
<polygon fill="#e0e0e0" stroke="#999999" points="116,-19.25 68.5,-19.25 68.5,0 116,0 116,-19.25"/>
<text text-anchor="middle" x="92.25" y="-5.75" font-family="Helvetica,sans-Serif" font-size="10.00">stdint.h</text>
</a>
</g>
</g>
<!-- Node7&#45;&gt;Node8 -->
<g id="edge8" class="edge">
<title>Node7&#45;&gt;Node8</title>
<path fill="none" stroke="#63b8ff" d="M200.2,-54.84C179.37,-46.31 147.91,-33.42 124.31,-23.76"/>
<polygon fill="#63b8ff" stroke="#63b8ff" points="125.99,-20.25 115.41,-19.7 123.34,-26.73 125.99,-20.25"/>
</g>
<!-- Node9 -->
<g id="node9" class="node">
<title>Node9</title>
<g id="a_node9"><a xlink:title=" ">
<polygon fill="#e0e0e0" stroke="#999999" points="182,-19.25 134.5,-19.25 134.5,0 182,0 182,-19.25"/>
<text text-anchor="middle" x="158.25" y="-5.75" font-family="Helvetica,sans-Serif" font-size="10.00">string.h</text>
</a>
</g>
</g>
<!-- Node7&#45;&gt;Node9 -->
<g id="edge9" class="edge">
<title>Node7&#45;&gt;Node9</title>
<path fill="none" stroke="#63b8ff" d="M211.39,-54.84C202.05,-47.07 188.36,-35.67 177.21,-26.4"/>
<polygon fill="#63b8ff" stroke="#63b8ff" points="179.87,-23.23 169.95,-19.52 175.39,-28.61 179.87,-23.23"/>
</g>
<!-- Node10 -->
<g id="node10" class="node">
<title>Node10</title>
<g id="a_node10"><a xlink:title=" ">
<polygon fill="#e0e0e0" stroke="#999999" points="244.88,-19.25 199.62,-19.25 199.62,0 244.88,0 244.88,-19.25"/>
<text text-anchor="middle" x="222.25" y="-5.75" font-family="Helvetica,sans-Serif" font-size="10.00">atomic</text>
</a>
</g>
</g>
<!-- Node7&#45;&gt;Node10 -->
<g id="edge10" class="edge">
<title>Node7&#45;&gt;Node10</title>
<path fill="none" stroke="#63b8ff" d="M222.25,-55.08C222.25,-48.42 222.25,-38.99 222.25,-30.53"/>
<polygon fill="#63b8ff" stroke="#63b8ff" points="225.75,-30.61 222.25,-20.61 218.75,-30.61 225.75,-30.61"/>
</g>
<!-- Node11 -->
<g id="node11" class="node">
<title>Node11</title>
<g id="a_node11"><a xlink:href="v8-version_8h.html" target="_top" xlink:title=" ">
<polygon fill="white" stroke="#666666" points="331.5,-19.25 263,-19.25 263,0 331.5,0 331.5,-19.25"/>
<text text-anchor="middle" x="297.25" y="-5.75" font-family="Helvetica,sans-Serif" font-size="10.00">v8&#45;version.h</text>
</a>
</g>
</g>
<!-- Node7&#45;&gt;Node11 -->
<g id="edge12" class="edge">
<title>Node7&#45;&gt;Node11</title>
<path fill="none" stroke="#63b8ff" d="M234.97,-54.84C246.07,-46.96 262.41,-35.36 275.57,-26.02"/>
<polygon fill="#63b8ff" stroke="#63b8ff" points="277.34,-28.35 283.46,-19.7 273.28,-22.64 277.34,-28.35"/>
</g>
<!-- Node7&#45;&gt;Node12 -->
<g id="edge13" class="edge">
<title>Node7&#45;&gt;Node12</title>
<path fill="none" stroke="#63b8ff" d="M256.89,-56.53C302.9,-46.77 384.03,-29.55 432.8,-19.21"/>
<polygon fill="#63b8ff" stroke="#63b8ff" points="433.22,-22.48 442.28,-16.98 431.77,-15.64 433.22,-22.48"/>
</g>
<!-- Node13&#45;&gt;Node2 -->
<g id="edge18" class="edge">
<title>Node13&#45;&gt;Node2</title>
<path fill="none" stroke="#63b8ff" d="M398.59,-275.84C416.52,-267.47 443.46,-254.88 464.02,-245.28"/>
<polygon fill="#63b8ff" stroke="#63b8ff" points="465.24,-248.11 472.82,-240.7 462.28,-241.76 465.24,-248.11"/>
</g>
<!-- Node13&#45;&gt;Node3 -->
<g id="edge20" class="edge">
<title>Node13&#45;&gt;Node3</title>
<path fill="none" stroke="#63b8ff" d="M349.11,-277.08C325.23,-269.98 291.76,-257.88 266.25,-240.25 248.03,-227.65 231.51,-208.3 220.8,-194.19"/>
<polygon fill="#63b8ff" stroke="#63b8ff" points="223.1,-192.41 214.37,-186.42 217.45,-196.55 223.1,-192.41"/>
</g>
<!-- Node13&#45;&gt;Node7 -->
<g id="edge19" class="edge">
<title>Node13&#45;&gt;Node7</title>
<path fill="none" stroke="#63b8ff" d="M373.73,-275.9C357.49,-249.69 308.11,-171.3 261.25,-110.5 253.96,-101.04 245.27,-90.99 237.94,-82.83"/>
<polygon fill="#63b8ff" stroke="#63b8ff" points="240.98,-80.86 231.66,-75.83 235.8,-85.58 240.98,-80.86"/>
</g>
<!-- Node13&#45;&gt;Node12 -->
<g id="edge26" class="edge">
<title>Node13&#45;&gt;Node12</title>
<path fill="none" stroke="#63b8ff" d="M382.56,-276.11C393.38,-247.39 428.48,-153.38 454.25,-74.5 459.15,-59.51 464.21,-42.38 467.88,-29.63"/>
<polygon fill="#63b8ff" stroke="#63b8ff" points="471.44,-30.93 470.81,-20.35 464.71,-29.01 471.44,-30.93"/>
</g>
<!-- Node14 -->
<g id="node14" class="node">
<title>Node14</title>
<g id="a_node14"><a xlink:href="v8-maybe_8h.html" target="_top" xlink:title=" ">
<polygon fill="white" stroke="#666666" points="412,-129.75 346.5,-129.75 346.5,-110.5 412,-110.5 412,-129.75"/>
<text text-anchor="middle" x="379.25" y="-116.25" font-family="Helvetica,sans-Serif" font-size="10.00">v8&#45;maybe.h</text>
</a>
</g>
</g>
<!-- Node13&#45;&gt;Node14 -->
<g id="edge21" class="edge">
<title>Node13&#45;&gt;Node14</title>
<path fill="none" stroke="#63b8ff" d="M379.25,-276.07C379.25,-250.64 379.25,-176.6 379.25,-140.87"/>
<polygon fill="#63b8ff" stroke="#63b8ff" points="382.75,-140.97 379.25,-130.97 375.75,-140.97 382.75,-140.97"/>
</g>
<!-- Node14&#45;&gt;Node5 -->
<g id="edge22" class="edge">
<title>Node14&#45;&gt;Node5</title>
<path fill="none" stroke="#63b8ff" d="M375.06,-110.09C369.85,-97.77 362.02,-74.97 365.25,-55.25 366.65,-46.69 369.47,-37.55 372.29,-29.79"/>
<polygon fill="#63b8ff" stroke="#63b8ff" points="375.88,-31.22 376.25,-20.63 369.36,-28.68 375.88,-31.22"/>
</g>
<!-- Node14&#45;&gt;Node7 -->
<g id="edge24" class="edge">
<title>Node14&#45;&gt;Node7</title>
<path fill="none" stroke="#63b8ff" d="M352.62,-110.09C326.9,-101.37 287.75,-88.09 259.07,-78.36"/>
<polygon fill="#63b8ff" stroke="#63b8ff" points="260.61,-74.85 250.01,-74.95 258.36,-81.48 260.61,-74.85"/>
</g>
<!-- Node14&#45;&gt;Node12 -->
<g id="edge25" class="edge">
<title>Node14&#45;&gt;Node12</title>
<path fill="none" stroke="#63b8ff" d="M379.85,-110.36C381.17,-97.14 385.31,-71.86 398.25,-55.25 408.76,-41.75 424.6,-31.47 439.01,-24.21"/>
<polygon fill="#63b8ff" stroke="#63b8ff" points="440.12,-27.08 447.68,-19.66 437.14,-20.75 440.12,-27.08"/>
</g>
<!-- Node15 -->
<g id="node15" class="node">
<title>Node15</title>
<g id="a_node15"><a xlink:title=" ">
<polygon fill="#e0e0e0" stroke="#999999" points="445.5,-74.5 407,-74.5 407,-55.25 445.5,-55.25 445.5,-74.5"/>
<text text-anchor="middle" x="426.25" y="-61" font-family="Helvetica,sans-Serif" font-size="10.00">utility</text>
</a>
</g>
</g>
<!-- Node14&#45;&gt;Node15 -->
<g id="edge23" class="edge">
<title>Node14&#45;&gt;Node15</title>
<path fill="none" stroke="#63b8ff" d="M387.01,-110.33C393.57,-102.9 403.16,-92.04 411.21,-82.91"/>
<polygon fill="#63b8ff" stroke="#63b8ff" points="413.33,-85.67 417.32,-75.86 408.08,-81.04 413.33,-85.67"/>
</g>
</g>
</svg>
