<?xml version="1.0" encoding="UTF-8" standalone="no"?>
<!DOCTYPE svg PUBLIC "-//W3C//DTD SVG 1.1//EN"
 "http://www.w3.org/Graphics/SVG/1.1/DTD/svg11.dtd">
<!-- Generated by graphviz version 8.0.5 (20230430.1635)
 -->
<!-- Title: include/v8&#45;traced&#45;handle.h Pages: 1 -->
<svg width="705pt" height="248pt"
 viewBox="0.00 0.00 704.50 248.25" xmlns="http://www.w3.org/2000/svg" xmlns:xlink="http://www.w3.org/1999/xlink">
<g id="graph0" class="graph" transform="scale(1 1) rotate(0) translate(4 244.25)">
<title>include/v8&#45;traced&#45;handle.h</title>
<!-- Node1 -->
<g id="node1" class="node">
<title>Node1</title>
<g id="a_node1"><a xlink:title=" ">
<polygon fill="#999999" stroke="#666666" points="425.88,-240.25 296.62,-240.25 296.62,-221 425.88,-221 425.88,-240.25"/>
<text text-anchor="middle" x="361.25" y="-226.75" font-family="Helvetica,sans-Serif" font-size="10.00">include/v8&#45;traced&#45;handle.h</text>
</a>
</g>
</g>
<!-- Node2 -->
<g id="node2" class="node">
<title>Node2</title>
<g id="a_node2"><a xlink:title=" ">
<polygon fill="#e0e0e0" stroke="#999999" points="50.5,-19.25 0,-19.25 0,0 50.5,0 50.5,-19.25"/>
<text text-anchor="middle" x="25.25" y="-5.75" font-family="Helvetica,sans-Serif" font-size="10.00">stddef.h</text>
</a>
</g>
</g>
<!-- Node1&#45;&gt;Node2 -->
<g id="edge1" class="edge">
<title>Node1&#45;&gt;Node2</title>
<path fill="none" stroke="#63b8ff" d="M296.28,-223.72C234.36,-217.04 146.5,-204.48 118.25,-185 63.45,-147.21 38.3,-66.55 29.33,-29.7"/>
<polygon fill="#63b8ff" stroke="#63b8ff" points="32.61,-29.36 26.97,-20.39 25.79,-30.92 32.61,-29.36"/>
</g>
<!-- Node3 -->
<g id="node3" class="node">
<title>Node3</title>
<g id="a_node3"><a xlink:title=" ">
<polygon fill="#e0e0e0" stroke="#999999" points="268,-19.25 220.5,-19.25 220.5,0 268,0 268,-19.25"/>
<text text-anchor="middle" x="244.25" y="-5.75" font-family="Helvetica,sans-Serif" font-size="10.00">stdint.h</text>
</a>
</g>
</g>
<!-- Node1&#45;&gt;Node3 -->
<g id="edge2" class="edge">
<title>Node1&#45;&gt;Node3</title>
<path fill="none" stroke="#63b8ff" d="M356.52,-220.77C339.06,-188.09 278.04,-73.88 254.05,-28.96"/>
<polygon fill="#63b8ff" stroke="#63b8ff" points="256.71,-27.52 248.91,-20.35 250.54,-30.82 256.71,-27.52"/>
</g>
<!-- Node4 -->
<g id="node4" class="node">
<title>Node4</title>
<g id="a_node4"><a xlink:title=" ">
<polygon fill="#e0e0e0" stroke="#999999" points="570.5,-185 526,-185 526,-165.75 570.5,-165.75 570.5,-185"/>
<text text-anchor="middle" x="548.25" y="-171.5" font-family="Helvetica,sans-Serif" font-size="10.00">stdio.h</text>
</a>
</g>
</g>
<!-- Node1&#45;&gt;Node4 -->
<g id="edge3" class="edge">
<title>Node1&#45;&gt;Node4</title>
<path fill="none" stroke="#63b8ff" d="M392.97,-220.59C426.92,-210.93 480.52,-195.66 515.03,-185.83"/>
<polygon fill="#63b8ff" stroke="#63b8ff" points="515.86,-188.95 524.51,-182.85 513.94,-182.22 515.86,-188.95"/>
</g>
<!-- Node5 -->
<g id="node5" class="node">
<title>Node5</title>
<g id="a_node5"><a xlink:title=" ">
<polygon fill="#e0e0e0" stroke="#999999" points="409.88,-19.25 364.62,-19.25 364.62,0 409.88,0 409.88,-19.25"/>
<text text-anchor="middle" x="387.25" y="-5.75" font-family="Helvetica,sans-Serif" font-size="10.00">atomic</text>
</a>
</g>
</g>
<!-- Node1&#45;&gt;Node5 -->
<g id="edge4" class="edge">
<title>Node1&#45;&gt;Node5</title>
<path fill="none" stroke="#63b8ff" d="M362.3,-220.77C366.15,-188.37 379.51,-75.8 384.94,-30.12"/>
<polygon fill="#63b8ff" stroke="#63b8ff" points="388.51,-30.69 386.21,-20.35 381.56,-29.87 388.51,-30.69"/>
</g>
<!-- Node6 -->
<g id="node6" class="node">
<title>Node6</title>
<g id="a_node6"><a xlink:title=" ">
<polygon fill="#e0e0e0" stroke="#999999" points="639.5,-185 589,-185 589,-165.75 639.5,-165.75 639.5,-185"/>
<text text-anchor="middle" x="614.25" y="-171.5" font-family="Helvetica,sans-Serif" font-size="10.00">memory</text>
</a>
</g>
</g>
<!-- Node1&#45;&gt;Node6 -->
<g id="edge5" class="edge">
<title>Node1&#45;&gt;Node6</title>
<path fill="none" stroke="#63b8ff" d="M408.57,-220.5C450.56,-212.28 513.82,-199.58 578.31,-185.14"/>
<polygon fill="#63b8ff" stroke="#63b8ff" points="578.68,-188.42 587.66,-182.8 577.14,-181.59 578.68,-188.42"/>
</g>
<!-- Node7 -->
<g id="node7" class="node">
<title>Node7</title>
<g id="a_node7"><a xlink:title=" ">
<polygon fill="#e0e0e0" stroke="#999999" points="346.75,-19.25 285.75,-19.25 285.75,0 346.75,0 346.75,-19.25"/>
<text text-anchor="middle" x="316.25" y="-5.75" font-family="Helvetica,sans-Serif" font-size="10.00">type_traits</text>
</a>
</g>
</g>
<!-- Node1&#45;&gt;Node7 -->
<g id="edge6" class="edge">
<title>Node1&#45;&gt;Node7</title>
<path fill="none" stroke="#63b8ff" d="M359.43,-220.77C352.77,-188.37 329.64,-75.8 320.26,-30.12"/>
<polygon fill="#63b8ff" stroke="#63b8ff" points="323.48,-29.44 318.04,-20.35 316.63,-30.85 323.48,-29.44"/>
</g>
<!-- Node8 -->
<g id="node8" class="node">
<title>Node8</title>
<g id="a_node8"><a xlink:title=" ">
<polygon fill="#e0e0e0" stroke="#999999" points="696.5,-185 658,-185 658,-165.75 696.5,-165.75 696.5,-185"/>
<text text-anchor="middle" x="677.25" y="-171.5" font-family="Helvetica,sans-Serif" font-size="10.00">utility</text>
</a>
</g>
</g>
<!-- Node1&#45;&gt;Node8 -->
<g id="edge7" class="edge">
<title>Node1&#45;&gt;Node8</title>
<path fill="none" stroke="#63b8ff" d="M426.12,-222.08C482.2,-214.98 565.56,-203.05 647.22,-184.94"/>
<polygon fill="#63b8ff" stroke="#63b8ff" points="647.7,-188.19 656.69,-182.58 646.16,-181.37 647.7,-188.19"/>
</g>
<!-- Node9 -->
<g id="node9" class="node">
<title>Node9</title>
<g id="a_node9"><a xlink:href="v8-internal_8h.html" target="_top" xlink:title=" ">
<polygon fill="white" stroke="#666666" points="208.5,-74.5 140,-74.5 140,-55.25 208.5,-55.25 208.5,-74.5"/>
<text text-anchor="middle" x="174.25" y="-61" font-family="Helvetica,sans-Serif" font-size="10.00">v8&#45;internal.h</text>
</a>
</g>
</g>
<!-- Node1&#45;&gt;Node9 -->
<g id="edge8" class="edge">
<title>Node1&#45;&gt;Node9</title>
<path fill="none" stroke="#63b8ff" d="M296.2,-223.55C239.64,-217.03 163.27,-204.84 140.25,-185 114.28,-162.62 105.64,-141.52 120.25,-110.5 126.02,-98.25 136.99,-88.21 147.54,-80.78"/>
<polygon fill="#63b8ff" stroke="#63b8ff" points="149.08,-83.3 155.57,-74.93 145.27,-77.43 149.08,-83.3"/>
</g>
<!-- Node12 -->
<g id="node12" class="node">
<title>Node12</title>
<g id="a_node12"><a xlink:href="v8config_8h.html" target="_top" xlink:title=" ">
<polygon fill="white" stroke="#666666" points="487,-19.25 427.5,-19.25 427.5,0 487,0 487,-19.25"/>
<text text-anchor="middle" x="457.25" y="-5.75" font-family="Helvetica,sans-Serif" font-size="10.00">v8config.h</text>
</a>
</g>
</g>
<!-- Node1&#45;&gt;Node12 -->
<g id="edge23" class="edge">
<title>Node1&#45;&gt;Node12</title>
<path fill="none" stroke="#63b8ff" d="M390.56,-220.5C427.56,-207.22 489.58,-178.65 516.25,-129.75 535.92,-93.68 499.71,-50.17 475.82,-27.01"/>
<polygon fill="#63b8ff" stroke="#63b8ff" points="478.69,-24.98 468.99,-20.72 473.92,-30.1 478.69,-24.98"/>
</g>
<!-- Node13 -->
<g id="node13" class="node">
<title>Node13</title>
<g id="a_node13"><a xlink:href="v8-local-handle_8h.html" target="_top" xlink:title=" ">
<polygon fill="white" stroke="#666666" points="237.62,-185 148.88,-185 148.88,-165.75 237.62,-165.75 237.62,-185"/>
<text text-anchor="middle" x="193.25" y="-171.5" font-family="Helvetica,sans-Serif" font-size="10.00">v8&#45;local&#45;handle.h</text>
</a>
</g>
</g>
<!-- Node1&#45;&gt;Node13 -->
<g id="edge16" class="edge">
<title>Node1&#45;&gt;Node13</title>
<path fill="none" stroke="#63b8ff" d="M332.75,-220.59C305.12,-211.83 262.98,-198.48 232.24,-188.73"/>
<polygon fill="#63b8ff" stroke="#63b8ff" points="233.48,-185.14 222.89,-185.45 231.36,-191.81 233.48,-185.14"/>
</g>
<!-- Node15 -->
<g id="node15" class="node">
<title>Node15</title>
<g id="a_node15"><a xlink:href="v8-weak-callback-info_8h.html" target="_top" xlink:title=" ">
<polygon fill="white" stroke="#666666" points="507.25,-129.75 389.25,-129.75 389.25,-110.5 507.25,-110.5 507.25,-129.75"/>
<text text-anchor="middle" x="448.25" y="-116.25" font-family="Helvetica,sans-Serif" font-size="10.00">v8&#45;weak&#45;callback&#45;info.h</text>
</a>
</g>
</g>
<!-- Node1&#45;&gt;Node15 -->
<g id="edge21" class="edge">
<title>Node1&#45;&gt;Node15</title>
<path fill="none" stroke="#63b8ff" d="M368.37,-220.75C382.77,-202.78 415.59,-161.86 434.37,-138.44"/>
<polygon fill="#63b8ff" stroke="#63b8ff" points="437.51,-141.12 441.03,-131.13 432.05,-136.74 437.51,-141.12"/>
</g>
<!-- Node9&#45;&gt;Node2 -->
<g id="edge9" class="edge">
<title>Node9&#45;&gt;Node2</title>
<path fill="none" stroke="#63b8ff" d="M148.97,-54.84C124.79,-46.2 88.07,-33.07 60.91,-23.37"/>
<polygon fill="#63b8ff" stroke="#63b8ff" points="62.24,-19.77 51.65,-19.7 59.89,-26.36 62.24,-19.77"/>
</g>
<!-- Node9&#45;&gt;Node3 -->
<g id="edge10" class="edge">
<title>Node9&#45;&gt;Node3</title>
<path fill="none" stroke="#63b8ff" d="M186.12,-54.84C196.44,-46.99 211.62,-35.45 223.88,-26.12"/>
<polygon fill="#63b8ff" stroke="#63b8ff" points="225.71,-28.36 231.55,-19.52 221.47,-22.79 225.71,-28.36"/>
</g>
<!-- Node9&#45;&gt;Node5 -->
<g id="edge12" class="edge">
<title>Node9&#45;&gt;Node5</title>
<path fill="none" stroke="#63b8ff" d="M208.88,-55.72C243.41,-47.52 298.21,-34.3 353.85,-19.83"/>
<polygon fill="#63b8ff" stroke="#63b8ff" points="354.46,-23.02 363.25,-17.11 352.69,-16.25 354.46,-23.02"/>
</g>
<!-- Node9&#45;&gt;Node7 -->
<g id="edge13" class="edge">
<title>Node9&#45;&gt;Node7</title>
<path fill="none" stroke="#63b8ff" d="M198.34,-54.84C221.29,-46.24 256.07,-33.19 281.92,-23.5"/>
<polygon fill="#63b8ff" stroke="#63b8ff" points="282.91,-26.49 291.04,-19.7 280.45,-19.94 282.91,-26.49"/>
</g>
<!-- Node10 -->
<g id="node10" class="node">
<title>Node10</title>
<g id="a_node10"><a xlink:title=" ">
<polygon fill="#e0e0e0" stroke="#999999" points="116,-19.25 68.5,-19.25 68.5,0 116,0 116,-19.25"/>
<text text-anchor="middle" x="92.25" y="-5.75" font-family="Helvetica,sans-Serif" font-size="10.00">string.h</text>
</a>
</g>
</g>
<!-- Node9&#45;&gt;Node10 -->
<g id="edge11" class="edge">
<title>Node9&#45;&gt;Node10</title>
<path fill="none" stroke="#63b8ff" d="M160.34,-54.84C147.97,-46.81 129.65,-34.91 115.12,-25.48"/>
<polygon fill="#63b8ff" stroke="#63b8ff" points="117.52,-22.21 107.23,-19.7 113.71,-28.08 117.52,-22.21"/>
</g>
<!-- Node11 -->
<g id="node11" class="node">
<title>Node11</title>
<g id="a_node11"><a xlink:href="v8-version_8h.html" target="_top" xlink:title=" ">
<polygon fill="white" stroke="#666666" points="202.5,-19.25 134,-19.25 134,0 202.5,0 202.5,-19.25"/>
<text text-anchor="middle" x="168.25" y="-5.75" font-family="Helvetica,sans-Serif" font-size="10.00">v8&#45;version.h</text>
</a>
</g>
</g>
<!-- Node9&#45;&gt;Node11 -->
<g id="edge14" class="edge">
<title>Node9&#45;&gt;Node11</title>
<path fill="none" stroke="#63b8ff" d="M173.26,-55.08C172.51,-48.42 171.45,-38.99 170.49,-30.53"/>
<polygon fill="#63b8ff" stroke="#63b8ff" points="173.86,-30.15 169.26,-20.61 166.9,-30.94 173.86,-30.15"/>
</g>
<!-- Node9&#45;&gt;Node12 -->
<g id="edge15" class="edge">
<title>Node9&#45;&gt;Node12</title>
<path fill="none" stroke="#63b8ff" d="M208.83,-58.06C254.31,-50.3 336.99,-35.85 416.69,-19.71"/>
<polygon fill="#63b8ff" stroke="#63b8ff" points="417.31,-22.95 426.41,-17.53 415.91,-16.09 417.31,-22.95"/>
</g>
<!-- Node13&#45;&gt;Node2 -->
<g id="edge17" class="edge">
<title>Node13&#45;&gt;Node2</title>
<path fill="none" stroke="#63b8ff" d="M174.66,-165.34C159.15,-157.28 136.95,-144.49 120.25,-129.75 85.04,-98.67 52.98,-53.41 36.63,-28.58"/>
<polygon fill="#63b8ff" stroke="#63b8ff" points="39.17,-27.06 30.8,-20.57 33.29,-30.87 39.17,-27.06"/>
</g>
<!-- Node13&#45;&gt;Node7 -->
<g id="edge18" class="edge">
<title>Node13&#45;&gt;Node7</title>
<path fill="none" stroke="#63b8ff" d="M200.3,-165.54C207.42,-156.58 218.71,-142.28 228.25,-129.75 255.37,-94.13 286.31,-51.85 303.33,-28.45"/>
<polygon fill="#63b8ff" stroke="#63b8ff" points="306.67,-30.81 309.71,-20.66 301.01,-26.69 306.67,-30.81"/>
</g>
<!-- Node14 -->
<g id="node14" class="node">
<title>Node14</title>
<g id="a_node14"><a xlink:href="v8-handle-base_8h.html" target="_top" xlink:title=" ">
<polygon fill="white" stroke="#666666" points="219,-129.75 129.5,-129.75 129.5,-110.5 219,-110.5 219,-129.75"/>
<text text-anchor="middle" x="174.25" y="-116.25" font-family="Helvetica,sans-Serif" font-size="10.00">v8&#45;handle&#45;base.h</text>
</a>
</g>
</g>
<!-- Node13&#45;&gt;Node14 -->
<g id="edge19" class="edge">
<title>Node13&#45;&gt;Node14</title>
<path fill="none" stroke="#63b8ff" d="M190.11,-165.58C187.68,-158.76 184.22,-149.06 181.15,-140.45"/>
<polygon fill="#63b8ff" stroke="#63b8ff" points="184.11,-139.35 177.46,-131.11 177.52,-141.7 184.11,-139.35"/>
</g>
<!-- Node14&#45;&gt;Node9 -->
<g id="edge20" class="edge">
<title>Node14&#45;&gt;Node9</title>
<path fill="none" stroke="#63b8ff" d="M174.25,-110.33C174.25,-103.67 174.25,-94.24 174.25,-85.78"/>
<polygon fill="#63b8ff" stroke="#63b8ff" points="177.75,-85.86 174.25,-75.86 170.75,-85.86 177.75,-85.86"/>
</g>
<!-- Node15&#45;&gt;Node12 -->
<g id="edge22" class="edge">
<title>Node15&#45;&gt;Node12</title>
<path fill="none" stroke="#63b8ff" d="M448.99,-110.25C450.42,-92.92 453.63,-54.23 455.6,-30.49"/>
<polygon fill="#63b8ff" stroke="#63b8ff" points="459.16,-30.88 456.5,-20.63 452.19,-30.3 459.16,-30.88"/>
</g>
</g>
</svg>
