<?xml version="1.0" encoding="UTF-8" standalone="no"?>
<!DOCTYPE svg PUBLIC "-//W3C//DTD SVG 1.1//EN"
 "http://www.w3.org/Graphics/SVG/1.1/DTD/svg11.dtd">
<!-- Generated by graphviz version 8.0.5 (20230430.1635)
 -->
<!-- Title: include/v8&#45;unwinder.h Pages: 1 -->
<svg width="581pt" height="414pt"
 viewBox="0.00 0.00 580.75 414.00" xmlns="http://www.w3.org/2000/svg" xmlns:xlink="http://www.w3.org/1999/xlink">
<g id="graph0" class="graph" transform="scale(1 1) rotate(0) translate(4 410)">
<title>include/v8&#45;unwinder.h</title>
<!-- Node1 -->
<g id="node1" class="node">
<title>Node1</title>
<g id="a_node1"><a xlink:title=" ">
<polygon fill="#999999" stroke="#666666" points="215.88,-406 106.12,-406 106.12,-386.75 215.88,-386.75 215.88,-406"/>
<text text-anchor="middle" x="161" y="-392.5" font-family="Helvetica,sans-Serif" font-size="10.00">include/v8&#45;unwinder.h</text>
</a>
</g>
</g>
<!-- Node2 -->
<g id="node2" class="node">
<title>Node2</title>
<g id="a_node2"><a xlink:title=" ">
<polygon fill="#e0e0e0" stroke="#999999" points="191.25,-295.5 140.75,-295.5 140.75,-276.25 191.25,-276.25 191.25,-295.5"/>
<text text-anchor="middle" x="166" y="-282" font-family="Helvetica,sans-Serif" font-size="10.00">memory</text>
</a>
</g>
</g>
<!-- Node1&#45;&gt;Node2 -->
<g id="edge1" class="edge">
<title>Node1&#45;&gt;Node2</title>
<path fill="none" stroke="#63b8ff" d="M161.41,-386.5C162.21,-369.17 163.99,-330.48 165.08,-306.74"/>
<polygon fill="#63b8ff" stroke="#63b8ff" points="168.62,-307.03 165.59,-296.88 161.63,-306.7 168.62,-307.03"/>
</g>
<!-- Node3 -->
<g id="node3" class="node">
<title>Node3</title>
<g id="a_node3"><a xlink:href="v8-embedder-state-scope_8h.html" target="_top" xlink:title=" ">
<polygon fill="white" stroke="#666666" points="322.88,-350.75 189.12,-350.75 189.12,-331.5 322.88,-331.5 322.88,-350.75"/>
<text text-anchor="middle" x="256" y="-337.25" font-family="Helvetica,sans-Serif" font-size="10.00">v8&#45;embedder&#45;state&#45;scope.h</text>
</a>
</g>
</g>
<!-- Node1&#45;&gt;Node3 -->
<g id="edge2" class="edge">
<title>Node1&#45;&gt;Node3</title>
<path fill="none" stroke="#63b8ff" d="M177.12,-386.34C191.72,-378.16 213.49,-365.96 230.46,-356.44"/>
<polygon fill="#63b8ff" stroke="#63b8ff" points="231.79,-359.15 238.81,-351.2 228.37,-353.04 231.79,-359.15"/>
</g>
<!-- Node16 -->
<g id="node16" class="node">
<title>Node16</title>
<g id="a_node16"><a xlink:href="v8config_8h.html" target="_top" xlink:title=" ">
<polygon fill="white" stroke="#666666" points="132.75,-19.25 73.25,-19.25 73.25,0 132.75,0 132.75,-19.25"/>
<text text-anchor="middle" x="103" y="-5.75" font-family="Helvetica,sans-Serif" font-size="10.00">v8config.h</text>
</a>
</g>
</g>
<!-- Node1&#45;&gt;Node16 -->
<g id="edge34" class="edge">
<title>Node1&#45;&gt;Node16</title>
<path fill="none" stroke="#63b8ff" d="M118.7,-386.27C71,-373.22 0,-344.18 0,-286.88 0,-286.88 0,-286.88 0,-119.12 0,-75.53 44.27,-42.46 74.77,-24.86"/>
<polygon fill="#63b8ff" stroke="#63b8ff" points="76.05,-27.59 83.11,-19.69 72.66,-21.47 76.05,-27.59"/>
</g>
<!-- Node3&#45;&gt;Node2 -->
<g id="edge3" class="edge">
<title>Node3&#45;&gt;Node2</title>
<path fill="none" stroke="#63b8ff" d="M240.73,-331.09C227.03,-322.98 206.66,-310.93 190.65,-301.46"/>
<polygon fill="#63b8ff" stroke="#63b8ff" points="192.73,-298.03 182.34,-295.95 189.17,-304.06 192.73,-298.03"/>
</g>
<!-- Node4 -->
<g id="node4" class="node">
<title>Node4</title>
<g id="a_node4"><a xlink:href="v8-context_8h.html" target="_top" xlink:title=" ">
<polygon fill="white" stroke="#666666" points="282.25,-295.5 213.75,-295.5 213.75,-276.25 282.25,-276.25 282.25,-295.5"/>
<text text-anchor="middle" x="248" y="-282" font-family="Helvetica,sans-Serif" font-size="10.00">v8&#45;context.h</text>
</a>
</g>
</g>
<!-- Node3&#45;&gt;Node4 -->
<g id="edge4" class="edge">
<title>Node3&#45;&gt;Node4</title>
<path fill="none" stroke="#63b8ff" d="M254.68,-331.33C253.67,-324.59 252.23,-315.02 250.95,-306.49"/>
<polygon fill="#63b8ff" stroke="#63b8ff" points="254.3,-306.23 249.35,-296.86 247.37,-307.27 254.3,-306.23"/>
</g>
<!-- Node8 -->
<g id="node8" class="node">
<title>Node8</title>
<g id="a_node8"><a xlink:href="v8-local-handle_8h.html" target="_top" xlink:title=" ">
<polygon fill="white" stroke="#666666" points="400.38,-185 311.62,-185 311.62,-165.75 400.38,-165.75 400.38,-185"/>
<text text-anchor="middle" x="356" y="-171.5" font-family="Helvetica,sans-Serif" font-size="10.00">v8&#45;local&#45;handle.h</text>
</a>
</g>
</g>
<!-- Node3&#45;&gt;Node8 -->
<g id="edge33" class="edge">
<title>Node3&#45;&gt;Node8</title>
<path fill="none" stroke="#63b8ff" d="M269.99,-331.13C292.56,-315.7 336.25,-281.8 354,-240.25 359.94,-226.34 360.12,-209.14 358.99,-196.09"/>
<polygon fill="#63b8ff" stroke="#63b8ff" points="362.39,-196 357.72,-186.49 355.44,-196.84 362.39,-196"/>
</g>
<!-- Node12 -->
<g id="node12" class="node">
<title>Node12</title>
<g id="a_node12"><a xlink:href="v8-internal_8h.html" target="_top" xlink:title=" ">
<polygon fill="white" stroke="#666666" points="418.25,-74.5 349.75,-74.5 349.75,-55.25 418.25,-55.25 418.25,-74.5"/>
<text text-anchor="middle" x="384" y="-61" font-family="Helvetica,sans-Serif" font-size="10.00">v8&#45;internal.h</text>
</a>
</g>
</g>
<!-- Node3&#45;&gt;Node12 -->
<g id="edge32" class="edge">
<title>Node3&#45;&gt;Node12</title>
<path fill="none" stroke="#63b8ff" d="M310.51,-331.06C394,-315.61 544,-280.98 544,-231.62 544,-231.62 544,-231.62 544,-174.38 544,-118.52 476.39,-89.44 429.07,-75.92"/>
<polygon fill="#63b8ff" stroke="#63b8ff" points="430.28,-72.35 419.72,-73.11 428.45,-79.11 430.28,-72.35"/>
</g>
<!-- Node5 -->
<g id="node5" class="node">
<title>Node5</title>
<g id="a_node5"><a xlink:title=" ">
<polygon fill="#e0e0e0" stroke="#999999" points="572.75,-19.25 525.25,-19.25 525.25,0 572.75,0 572.75,-19.25"/>
<text text-anchor="middle" x="549" y="-5.75" font-family="Helvetica,sans-Serif" font-size="10.00">stdint.h</text>
</a>
</g>
</g>
<!-- Node4&#45;&gt;Node5 -->
<g id="edge5" class="edge">
<title>Node4&#45;&gt;Node5</title>
<path fill="none" stroke="#63b8ff" d="M282.53,-285.5C352.83,-284.78 506,-272.22 506,-176.38 506,-176.38 506,-176.38 506,-119.12 506,-85.5 524.07,-49.87 536.78,-28.97"/>
<polygon fill="#63b8ff" stroke="#63b8ff" points="540.25,-31.04 542.66,-20.72 534.34,-27.29 540.25,-31.04"/>
</g>
<!-- Node6 -->
<g id="node6" class="node">
<title>Node6</title>
<g id="a_node6"><a xlink:title=" ">
<polygon fill="#e0e0e0" stroke="#999999" points="230.5,-240.25 187.5,-240.25 187.5,-221 230.5,-221 230.5,-240.25"/>
<text text-anchor="middle" x="209" y="-226.75" font-family="Helvetica,sans-Serif" font-size="10.00">vector</text>
</a>
</g>
</g>
<!-- Node4&#45;&gt;Node6 -->
<g id="edge6" class="edge">
<title>Node4&#45;&gt;Node6</title>
<path fill="none" stroke="#63b8ff" d="M241.56,-276.08C236.23,-268.8 228.49,-258.23 221.89,-249.23"/>
<polygon fill="#63b8ff" stroke="#63b8ff" points="224.31,-247.61 215.58,-241.61 218.67,-251.74 224.31,-247.61"/>
</g>
<!-- Node7 -->
<g id="node7" class="node">
<title>Node7</title>
<g id="a_node7"><a xlink:href="v8-data_8h.html" target="_top" xlink:title=" ">
<polygon fill="white" stroke="#666666" points="130.88,-240.25 75.12,-240.25 75.12,-221 130.88,-221 130.88,-240.25"/>
<text text-anchor="middle" x="103" y="-226.75" font-family="Helvetica,sans-Serif" font-size="10.00">v8&#45;data.h</text>
</a>
</g>
</g>
<!-- Node4&#45;&gt;Node7 -->
<g id="edge7" class="edge">
<title>Node4&#45;&gt;Node7</title>
<path fill="none" stroke="#63b8ff" d="M223.4,-275.84C199.86,-267.2 164.13,-254.07 137.7,-244.37"/>
<polygon fill="#63b8ff" stroke="#63b8ff" points="139.31,-240.86 128.72,-240.7 136.9,-247.44 139.31,-240.86"/>
</g>
<!-- Node4&#45;&gt;Node8 -->
<g id="edge21" class="edge">
<title>Node4&#45;&gt;Node8</title>
<path fill="none" stroke="#63b8ff" d="M277.95,-275.76C296.4,-268.74 319.27,-257.32 334,-240.25 344.79,-227.75 350.36,-209.68 353.2,-195.95"/>
<polygon fill="#63b8ff" stroke="#63b8ff" points="356.79,-196.7 355.04,-186.25 349.89,-195.51 356.79,-196.7"/>
</g>
<!-- Node4&#45;&gt;Node16 -->
<g id="edge31" class="edge">
<title>Node4&#45;&gt;Node16</title>
<path fill="none" stroke="#63b8ff" d="M213.6,-278.15C164.06,-268.21 77.3,-249.75 66,-240.25 42.27,-220.3 38,-207.37 38,-176.38 38,-176.38 38,-176.38 38,-119.12 38,-82.23 65.99,-47.04 85.24,-27.2"/>
<polygon fill="#63b8ff" stroke="#63b8ff" points="87.2,-30.19 91.84,-20.67 82.27,-25.22 87.2,-30.19"/>
</g>
<!-- Node17 -->
<g id="node17" class="node">
<title>Node17</title>
<g id="a_node17"><a xlink:href="v8-maybe_8h.html" target="_top" xlink:title=" ">
<polygon fill="white" stroke="#666666" points="202.75,-129.75 137.25,-129.75 137.25,-110.5 202.75,-110.5 202.75,-129.75"/>
<text text-anchor="middle" x="170" y="-116.25" font-family="Helvetica,sans-Serif" font-size="10.00">v8&#45;maybe.h</text>
</a>
</g>
</g>
<!-- Node4&#45;&gt;Node17 -->
<g id="edge22" class="edge">
<title>Node4&#45;&gt;Node17</title>
<path fill="none" stroke="#63b8ff" d="M222.87,-275.77C207.13,-268.65 188,-257.11 178,-240.25 159.65,-209.3 162.51,-165.55 166.25,-140.59"/>
<polygon fill="#63b8ff" stroke="#63b8ff" points="169.83,-141.43 168.07,-130.98 162.93,-140.25 169.83,-141.43"/>
</g>
<!-- Node19 -->
<g id="node19" class="node">
<title>Node19</title>
<g id="a_node19"><a xlink:href="v8-snapshot_8h.html" target="_top" xlink:title=" ">
<polygon fill="white" stroke="#666666" points="325.38,-240.25 248.62,-240.25 248.62,-221 325.38,-221 325.38,-240.25"/>
<text text-anchor="middle" x="287" y="-226.75" font-family="Helvetica,sans-Serif" font-size="10.00">v8&#45;snapshot.h</text>
</a>
</g>
</g>
<!-- Node4&#45;&gt;Node19 -->
<g id="edge27" class="edge">
<title>Node4&#45;&gt;Node19</title>
<path fill="none" stroke="#63b8ff" d="M254.44,-276.08C259.77,-268.8 267.51,-258.23 274.11,-249.23"/>
<polygon fill="#63b8ff" stroke="#63b8ff" points="277.33,-251.74 280.42,-241.61 271.69,-247.61 277.33,-251.74"/>
</g>
<!-- Node7&#45;&gt;Node8 -->
<g id="edge8" class="edge">
<title>Node7&#45;&gt;Node8</title>
<path fill="none" stroke="#63b8ff" d="M131.04,-223.72C172.33,-215.03 250.23,-198.64 302.63,-187.61"/>
<polygon fill="#63b8ff" stroke="#63b8ff" points="303.01,-190.89 312.08,-185.41 301.57,-184.04 303.01,-190.89"/>
</g>
<!-- Node7&#45;&gt;Node16 -->
<g id="edge20" class="edge">
<title>Node7&#45;&gt;Node16</title>
<path fill="none" stroke="#63b8ff" d="M101.72,-220.53C98.27,-194.64 89.39,-118.34 95,-55.25 95.74,-46.92 97.24,-37.82 98.75,-30.02"/>
<polygon fill="#63b8ff" stroke="#63b8ff" points="102.34,-30.95 100.94,-20.45 95.48,-29.53 102.34,-30.95"/>
</g>
<!-- Node9 -->
<g id="node9" class="node">
<title>Node9</title>
<g id="a_node9"><a xlink:title=" ">
<polygon fill="#e0e0e0" stroke="#999999" points="507.25,-19.25 456.75,-19.25 456.75,0 507.25,0 507.25,-19.25"/>
<text text-anchor="middle" x="482" y="-5.75" font-family="Helvetica,sans-Serif" font-size="10.00">stddef.h</text>
</a>
</g>
</g>
<!-- Node8&#45;&gt;Node9 -->
<g id="edge9" class="edge">
<title>Node8&#45;&gt;Node9</title>
<path fill="none" stroke="#63b8ff" d="M391.01,-165.4C410.67,-158.66 434.17,-147.47 449,-129.75 473.03,-101.04 479.63,-56.14 481.4,-30.45"/>
<polygon fill="#63b8ff" stroke="#63b8ff" points="484.94,-30.69 481.94,-20.53 477.95,-30.35 484.94,-30.69"/>
</g>
<!-- Node10 -->
<g id="node10" class="node">
<title>Node10</title>
<g id="a_node10"><a xlink:title=" ">
<polygon fill="#e0e0e0" stroke="#999999" points="223.5,-19.25 162.5,-19.25 162.5,0 223.5,0 223.5,-19.25"/>
<text text-anchor="middle" x="193" y="-5.75" font-family="Helvetica,sans-Serif" font-size="10.00">type_traits</text>
</a>
</g>
</g>
<!-- Node8&#45;&gt;Node10 -->
<g id="edge10" class="edge">
<title>Node8&#45;&gt;Node10</title>
<path fill="none" stroke="#63b8ff" d="M350.28,-165.54C336.49,-144.68 299.62,-91.43 260,-55.25 247.5,-43.84 231.83,-33.23 218.79,-25.23"/>
<polygon fill="#63b8ff" stroke="#63b8ff" points="220.8,-21.76 210.42,-19.64 217.22,-27.77 220.8,-21.76"/>
</g>
<!-- Node11 -->
<g id="node11" class="node">
<title>Node11</title>
<g id="a_node11"><a xlink:href="v8-handle-base_8h.html" target="_top" xlink:title=" ">
<polygon fill="white" stroke="#666666" points="439.75,-129.75 350.25,-129.75 350.25,-110.5 439.75,-110.5 439.75,-129.75"/>
<text text-anchor="middle" x="395" y="-116.25" font-family="Helvetica,sans-Serif" font-size="10.00">v8&#45;handle&#45;base.h</text>
</a>
</g>
</g>
<!-- Node8&#45;&gt;Node11 -->
<g id="edge11" class="edge">
<title>Node8&#45;&gt;Node11</title>
<path fill="none" stroke="#63b8ff" d="M362.44,-165.58C367.77,-158.3 375.51,-147.73 382.11,-138.73"/>
<polygon fill="#63b8ff" stroke="#63b8ff" points="385.33,-141.24 388.42,-131.11 379.69,-137.11 385.33,-141.24"/>
</g>
<!-- Node11&#45;&gt;Node12 -->
<g id="edge12" class="edge">
<title>Node11&#45;&gt;Node12</title>
<path fill="none" stroke="#63b8ff" d="M393.18,-110.33C391.79,-103.59 389.81,-94.02 388.05,-85.49"/>
<polygon fill="#63b8ff" stroke="#63b8ff" points="391.31,-84.94 385.86,-75.86 384.45,-86.36 391.31,-84.94"/>
</g>
<!-- Node12&#45;&gt;Node5 -->
<g id="edge14" class="edge">
<title>Node12&#45;&gt;Node5</title>
<path fill="none" stroke="#63b8ff" d="M411.99,-54.84C440.37,-45.68 484.31,-31.5 514.75,-21.68"/>
<polygon fill="#63b8ff" stroke="#63b8ff" points="515.46,-24.8 523.9,-18.4 513.31,-18.14 515.46,-24.8"/>
</g>
<!-- Node12&#45;&gt;Node9 -->
<g id="edge13" class="edge">
<title>Node12&#45;&gt;Node9</title>
<path fill="none" stroke="#63b8ff" d="M400.62,-54.84C415.69,-46.66 438.14,-34.46 455.65,-24.94"/>
<polygon fill="#63b8ff" stroke="#63b8ff" points="457.18,-27.55 464.29,-19.7 453.84,-21.4 457.18,-27.55"/>
</g>
<!-- Node12&#45;&gt;Node10 -->
<g id="edge17" class="edge">
<title>Node12&#45;&gt;Node10</title>
<path fill="none" stroke="#63b8ff" d="M351.6,-54.84C319.29,-45.83 269.53,-31.96 234.38,-22.16"/>
<polygon fill="#63b8ff" stroke="#63b8ff" points="235.55,-18.57 224.97,-19.26 233.67,-25.32 235.55,-18.57"/>
</g>
<!-- Node13 -->
<g id="node13" class="node">
<title>Node13</title>
<g id="a_node13"><a xlink:title=" ">
<polygon fill="#e0e0e0" stroke="#999999" points="288.75,-19.25 241.25,-19.25 241.25,0 288.75,0 288.75,-19.25"/>
<text text-anchor="middle" x="265" y="-5.75" font-family="Helvetica,sans-Serif" font-size="10.00">string.h</text>
</a>
</g>
</g>
<!-- Node12&#45;&gt;Node13 -->
<g id="edge15" class="edge">
<title>Node12&#45;&gt;Node13</title>
<path fill="none" stroke="#63b8ff" d="M363.81,-54.84C345.01,-46.43 316.72,-33.77 295.22,-24.15"/>
<polygon fill="#63b8ff" stroke="#63b8ff" points="296.84,-20.59 286.29,-19.7 293.98,-26.98 296.84,-20.59"/>
</g>
<!-- Node14 -->
<g id="node14" class="node">
<title>Node14</title>
<g id="a_node14"><a xlink:title=" ">
<polygon fill="#e0e0e0" stroke="#999999" points="351.62,-19.25 306.38,-19.25 306.38,0 351.62,0 351.62,-19.25"/>
<text text-anchor="middle" x="329" y="-5.75" font-family="Helvetica,sans-Serif" font-size="10.00">atomic</text>
</a>
</g>
</g>
<!-- Node12&#45;&gt;Node14 -->
<g id="edge16" class="edge">
<title>Node12&#45;&gt;Node14</title>
<path fill="none" stroke="#63b8ff" d="M374.92,-55.08C367.08,-47.5 355.56,-36.34 346.01,-27.1"/>
<polygon fill="#63b8ff" stroke="#63b8ff" points="348.9,-25.05 339.28,-20.61 344.03,-30.08 348.9,-25.05"/>
</g>
<!-- Node15 -->
<g id="node15" class="node">
<title>Node15</title>
<g id="a_node15"><a xlink:href="v8-version_8h.html" target="_top" xlink:title=" ">
<polygon fill="white" stroke="#666666" points="438.25,-19.25 369.75,-19.25 369.75,0 438.25,0 438.25,-19.25"/>
<text text-anchor="middle" x="404" y="-5.75" font-family="Helvetica,sans-Serif" font-size="10.00">v8&#45;version.h</text>
</a>
</g>
</g>
<!-- Node12&#45;&gt;Node15 -->
<g id="edge18" class="edge">
<title>Node12&#45;&gt;Node15</title>
<path fill="none" stroke="#63b8ff" d="M387.3,-55.08C389.89,-48.19 393.59,-38.34 396.85,-29.66"/>
<polygon fill="#63b8ff" stroke="#63b8ff" points="400.39,-31.2 400.63,-20.61 393.83,-28.74 400.39,-31.2"/>
</g>
<!-- Node12&#45;&gt;Node16 -->
<g id="edge19" class="edge">
<title>Node12&#45;&gt;Node16</title>
<path fill="none" stroke="#63b8ff" d="M349.26,-57.29C297.09,-47.41 198.73,-28.77 143.42,-18.28"/>
<polygon fill="#63b8ff" stroke="#63b8ff" points="144.43,-14.72 133.95,-16.3 143.13,-21.6 144.43,-14.72"/>
</g>
<!-- Node17&#45;&gt;Node10 -->
<g id="edge23" class="edge">
<title>Node17&#45;&gt;Node10</title>
<path fill="none" stroke="#63b8ff" d="M173.34,-110.01C176.5,-101.08 181.18,-87.01 184,-74.5 187.33,-59.76 189.65,-42.82 191.1,-30.09"/>
<polygon fill="#63b8ff" stroke="#63b8ff" points="194.66,-30.7 192.22,-20.39 187.7,-29.96 194.66,-30.7"/>
</g>
<!-- Node17&#45;&gt;Node12 -->
<g id="edge25" class="edge">
<title>Node17&#45;&gt;Node12</title>
<path fill="none" stroke="#63b8ff" d="M202.97,-110.92C239.45,-101.84 298.46,-87.16 339.14,-77.04"/>
<polygon fill="#63b8ff" stroke="#63b8ff" points="339.72,-80.25 348.58,-74.44 338.03,-73.46 339.72,-80.25"/>
</g>
<!-- Node17&#45;&gt;Node16 -->
<g id="edge26" class="edge">
<title>Node17&#45;&gt;Node16</title>
<path fill="none" stroke="#63b8ff" d="M168.87,-110.26C166.91,-97.33 161.98,-72.94 151,-55.25 144.09,-44.11 133.68,-33.96 124.32,-26.17"/>
<polygon fill="#63b8ff" stroke="#63b8ff" points="126.83,-22.91 116.81,-19.46 122.5,-28.4 126.83,-22.91"/>
</g>
<!-- Node18 -->
<g id="node18" class="node">
<title>Node18</title>
<g id="a_node18"><a xlink:title=" ">
<polygon fill="#e0e0e0" stroke="#999999" points="142.25,-74.5 103.75,-74.5 103.75,-55.25 142.25,-55.25 142.25,-74.5"/>
<text text-anchor="middle" x="123" y="-61" font-family="Helvetica,sans-Serif" font-size="10.00">utility</text>
</a>
</g>
</g>
<!-- Node17&#45;&gt;Node18 -->
<g id="edge24" class="edge">
<title>Node17&#45;&gt;Node18</title>
<path fill="none" stroke="#63b8ff" d="M162.24,-110.33C155.68,-102.9 146.09,-92.04 138.04,-82.91"/>
<polygon fill="#63b8ff" stroke="#63b8ff" points="141.17,-81.04 131.93,-75.86 135.92,-85.67 141.17,-81.04"/>
</g>
<!-- Node19&#45;&gt;Node8 -->
<g id="edge29" class="edge">
<title>Node19&#45;&gt;Node8</title>
<path fill="none" stroke="#63b8ff" d="M298.7,-220.59C308.88,-212.74 323.83,-201.2 335.92,-191.87"/>
<polygon fill="#63b8ff" stroke="#63b8ff" points="337.69,-194.16 343.47,-185.27 333.41,-188.61 337.69,-194.16"/>
</g>
<!-- Node19&#45;&gt;Node12 -->
<g id="edge28" class="edge">
<title>Node19&#45;&gt;Node12</title>
<path fill="none" stroke="#63b8ff" d="M288.22,-220.61C290.16,-207.93 294.63,-184.3 303,-165.75 318.05,-132.4 347.03,-100.81 365.94,-82.4"/>
<polygon fill="#63b8ff" stroke="#63b8ff" points="367.98,-85.34 372.83,-75.91 363.16,-80.26 367.98,-85.34"/>
</g>
<!-- Node19&#45;&gt;Node16 -->
<g id="edge30" class="edge">
<title>Node19&#45;&gt;Node16</title>
<path fill="none" stroke="#63b8ff" d="M282.81,-220.63C269.6,-193.03 226.33,-108.17 170,-55.25 157.74,-43.74 142.21,-33.19 129.18,-25.24"/>
<polygon fill="#63b8ff" stroke="#63b8ff" points="131.19,-21.77 120.81,-19.7 127.63,-27.8 131.19,-21.77"/>
</g>
</g>
</svg>
