<?xml version="1.0" encoding="UTF-8" standalone="no"?>
<!DOCTYPE svg PUBLIC "-//W3C//DTD SVG 1.1//EN"
 "http://www.w3.org/Graphics/SVG/1.1/DTD/svg11.dtd">
<!-- Generated by graphviz version 8.0.5 (20230430.1635)
 -->
<!-- Title: v8::api_internal::IndirectHandleBase Pages: 1 -->
<svg width="874pt" height="1481pt"
 viewBox="0.00 0.00 874.00 1481.25" xmlns="http://www.w3.org/2000/svg" xmlns:xlink="http://www.w3.org/1999/xlink">
<g id="graph0" class="graph" transform="scale(1 1) rotate(0) translate(4 1477.25)">
<title>v8::api_internal::IndirectHandleBase</title>
<!-- Node1 -->
<g id="node1" class="node">
<title>Node1</title>
<g id="a_node1"><a xlink:title=" ">
<polygon fill="#999999" stroke="#666666" points="117.25,-435.88 0,-435.88 0,-405.38 117.25,-405.38 117.25,-435.88"/>
<text text-anchor="start" x="8" y="-422.38" font-family="Helvetica,sans-Serif" font-size="10.00">v8::api_internal::Indirect</text>
<text text-anchor="middle" x="58.62" y="-411.12" font-family="Helvetica,sans-Serif" font-size="10.00">HandleBase</text>
</a>
</g>
</g>
<!-- Node2 -->
<g id="node2" class="node">
<title>Node2</title>
<g id="a_node2"><a xlink:href="classv8_1_1LocalBase.html" target="_top" xlink:title=" ">
<polygon fill="white" stroke="#666666" points="542.88,-1426.88 442.12,-1426.88 442.12,-1396.38 542.88,-1396.38 542.88,-1426.88"/>
<text text-anchor="start" x="450.12" y="-1413.38" font-family="Helvetica,sans-Serif" font-size="10.00">v8::LocalBase&lt; v8::</text>
<text text-anchor="middle" x="492.5" y="-1402.12" font-family="Helvetica,sans-Serif" font-size="10.00">String &gt;</text>
</a>
</g>
</g>
<!-- Node1&#45;&gt;Node2 -->
<g id="edge1" class="edge">
<title>Node1&#45;&gt;Node2</title>
<path fill="none" stroke="#63b8ff" d="M59.52,-447.23C59.44,-578.11 64.28,-1153.28 154.25,-1302.62 196.69,-1373.07 222.25,-1389.83 300,-1416.62 346.06,-1432.5 402.12,-1428.57 441.65,-1422.3"/>
<polygon fill="#63b8ff" stroke="#63b8ff" points="63.02,-447.3 59.54,-437.3 56.02,-447.29 63.02,-447.3"/>
</g>
<!-- Node3 -->
<g id="node3" class="node">
<title>Node3</title>
<g id="a_node3"><a xlink:href="classv8_1_1LocalBase.html" target="_top" xlink:title=" ">
<polygon fill="white" stroke="#666666" points="542.88,-1322.88 442.12,-1322.88 442.12,-1292.38 542.88,-1292.38 542.88,-1322.88"/>
<text text-anchor="start" x="450.12" y="-1309.38" font-family="Helvetica,sans-Serif" font-size="10.00">v8::LocalBase&lt; v8::</text>
<text text-anchor="middle" x="492.5" y="-1298.12" font-family="Helvetica,sans-Serif" font-size="10.00">Object &gt;</text>
</a>
</g>
</g>
<!-- Node1&#45;&gt;Node3 -->
<g id="edge2" class="edge">
<title>Node1&#45;&gt;Node3</title>
<path fill="none" stroke="#63b8ff" d="M60.94,-446.97C66.99,-561.26 94.34,-1014.17 154.25,-1141.62 194.75,-1227.79 213.65,-1258.52 300,-1298.62 344.68,-1319.37 401.7,-1319.14 441.86,-1315.25"/>
<polygon fill="#63b8ff" stroke="#63b8ff" points="64.39,-446.94 60.38,-437.13 57.4,-447.3 64.39,-446.94"/>
</g>
<!-- Node4 -->
<g id="node4" class="node">
<title>Node4</title>
<g id="a_node4"><a xlink:href="classv8_1_1LocalBase.html" target="_top" xlink:title=" ">
<polygon fill="white" stroke="#666666" points="542.88,-1209.88 442.12,-1209.88 442.12,-1179.38 542.88,-1179.38 542.88,-1209.88"/>
<text text-anchor="start" x="450.12" y="-1196.38" font-family="Helvetica,sans-Serif" font-size="10.00">v8::LocalBase&lt; v8::</text>
<text text-anchor="middle" x="492.5" y="-1185.12" font-family="Helvetica,sans-Serif" font-size="10.00">Array &gt;</text>
</a>
</g>
</g>
<!-- Node1&#45;&gt;Node4 -->
<g id="edge3" class="edge">
<title>Node1&#45;&gt;Node4</title>
<path fill="none" stroke="#63b8ff" d="M63.82,-446.85C84.03,-569.76 175.59,-1086.76 300,-1180.62 340.32,-1211.04 399.98,-1210.36 441.98,-1204.74"/>
<polygon fill="#63b8ff" stroke="#63b8ff" points="67.14,-446.52 62.08,-437.21 60.24,-447.65 67.14,-446.52"/>
</g>
<!-- Node5 -->
<g id="node5" class="node">
<title>Node5</title>
<g id="a_node5"><a xlink:href="classv8_1_1LocalBase.html" target="_top" xlink:title=" ">
<polygon fill="white" stroke="#666666" points="542.88,-495.88 442.12,-495.88 442.12,-465.38 542.88,-465.38 542.88,-495.88"/>
<text text-anchor="start" x="450.12" y="-482.38" font-family="Helvetica,sans-Serif" font-size="10.00">v8::LocalBase&lt; v8::</text>
<text text-anchor="middle" x="492.5" y="-471.12" font-family="Helvetica,sans-Serif" font-size="10.00">Context &gt;</text>
</a>
</g>
</g>
<!-- Node1&#45;&gt;Node5 -->
<g id="edge4" class="edge">
<title>Node1&#45;&gt;Node5</title>
<path fill="none" stroke="#63b8ff" d="M128.2,-435.45C136.96,-437.25 145.81,-439.01 154.25,-440.62 218.81,-452.95 234.78,-457.49 300,-465.62 347.98,-471.61 403.05,-475.62 441.78,-477.98"/>
<polygon fill="#63b8ff" stroke="#63b8ff" points="129.1,-431.86 118.6,-433.25 127.68,-438.71 129.1,-431.86"/>
</g>
<!-- Node6 -->
<g id="node6" class="node">
<title>Node6</title>
<g id="a_node6"><a xlink:href="classv8_1_1LocalBase.html" target="_top" xlink:title=" ">
<polygon fill="white" stroke="#666666" points="553.75,-447.25 431.25,-447.25 431.25,-428 553.75,-428 553.75,-447.25"/>
<text text-anchor="middle" x="492.5" y="-433.75" font-family="Helvetica,sans-Serif" font-size="10.00">v8::LocalBase&lt; Object &gt;</text>
</a>
</g>
</g>
<!-- Node1&#45;&gt;Node6 -->
<g id="edge5" class="edge">
<title>Node1&#45;&gt;Node6</title>
<path fill="none" stroke="#63b8ff" d="M128.31,-423.33C211.78,-426.61 351.29,-432.11 430.92,-435.24"/>
<polygon fill="#63b8ff" stroke="#63b8ff" points="128.55,-419.8 118.42,-422.9 128.28,-426.79 128.55,-419.8"/>
</g>
<!-- Node7 -->
<g id="node7" class="node">
<title>Node7</title>
<g id="a_node7"><a xlink:href="classv8_1_1LocalBase.html" target="_top" xlink:title=" ">
<polygon fill="white" stroke="#666666" points="556,-1473.25 429,-1473.25 429,-1454 556,-1454 556,-1473.25"/>
<text text-anchor="middle" x="492.5" y="-1459.75" font-family="Helvetica,sans-Serif" font-size="10.00">v8::LocalBase&lt; Context &gt;</text>
</a>
</g>
</g>
<!-- Node1&#45;&gt;Node7 -->
<g id="edge6" class="edge">
<title>Node1&#45;&gt;Node7</title>
<path fill="none" stroke="#63b8ff" d="M60.57,-447.01C66,-592.75 95.12,-1295.38 154.25,-1369.62 219.76,-1451.88 350.74,-1465.89 428.79,-1466.33"/>
<polygon fill="#63b8ff" stroke="#63b8ff" points="64.03,-446.93 60.17,-437.07 57.04,-447.19 64.03,-446.93"/>
</g>
<!-- Node8 -->
<g id="node8" class="node">
<title>Node8</title>
<g id="a_node8"><a xlink:href="classv8_1_1LocalBase.html" target="_top" xlink:title=" ">
<polygon fill="white" stroke="#666666" points="542.88,-409.88 442.12,-409.88 442.12,-379.38 542.88,-379.38 542.88,-409.88"/>
<text text-anchor="start" x="450.12" y="-396.38" font-family="Helvetica,sans-Serif" font-size="10.00">v8::LocalBase&lt; v8::</text>
<text text-anchor="middle" x="492.5" y="-385.12" font-family="Helvetica,sans-Serif" font-size="10.00">Value &gt;</text>
</a>
</g>
</g>
<!-- Node1&#45;&gt;Node8 -->
<g id="edge7" class="edge">
<title>Node1&#45;&gt;Node8</title>
<path fill="none" stroke="#63b8ff" d="M127.01,-402.35C195.24,-386.05 303.87,-366.11 398.25,-375.62 412.55,-377.07 427.9,-379.72 441.94,-382.6"/>
<polygon fill="#63b8ff" stroke="#63b8ff" points="126.3,-399.17 117.42,-404.93 127.96,-405.97 126.3,-399.17"/>
</g>
<!-- Node9 -->
<g id="node9" class="node">
<title>Node9</title>
<g id="a_node9"><a xlink:href="classv8_1_1LocalBase.html" target="_top" xlink:title=" ">
<polygon fill="white" stroke="#666666" points="551.88,-361.25 433.12,-361.25 433.12,-342 551.88,-342 551.88,-361.25"/>
<text text-anchor="middle" x="492.5" y="-347.75" font-family="Helvetica,sans-Serif" font-size="10.00">v8::LocalBase&lt; Value &gt;</text>
</a>
</g>
</g>
<!-- Node1&#45;&gt;Node9 -->
<g id="edge8" class="edge">
<title>Node1&#45;&gt;Node9</title>
<path fill="none" stroke="#63b8ff" d="M94.42,-399.5C139.77,-373.41 222.49,-330.76 300,-316.62 342.96,-308.79 357.43,-301.11 398.25,-316.62 408.25,-320.43 406.79,-327.62 416.25,-332.62 423.04,-336.22 430.53,-339.15 438.08,-341.55"/>
<polygon fill="#63b8ff" stroke="#63b8ff" points="92.93,-396.9 86.05,-404.95 96.45,-402.94 92.93,-396.9"/>
</g>
<!-- Node10 -->
<g id="node10" class="node">
<title>Node10</title>
<g id="a_node10"><a xlink:href="classv8_1_1LocalBase.html" target="_top" xlink:title=" ">
<polygon fill="white" stroke="#666666" points="542.88,-323.88 442.12,-323.88 442.12,-293.38 542.88,-293.38 542.88,-323.88"/>
<text text-anchor="start" x="450.12" y="-310.38" font-family="Helvetica,sans-Serif" font-size="10.00">v8::LocalBase&lt; v8::</text>
<text text-anchor="middle" x="492.5" y="-299.12" font-family="Helvetica,sans-Serif" font-size="10.00">UnboundScript &gt;</text>
</a>
</g>
</g>
<!-- Node1&#45;&gt;Node10 -->
<g id="edge9" class="edge">
<title>Node1&#45;&gt;Node10</title>
<path fill="none" stroke="#63b8ff" d="M76.63,-396.35C93.9,-373.21 122.57,-338.7 154.25,-316.62 211.59,-276.67 231.4,-270.98 300,-257.62 342.86,-249.28 359.57,-237.36 398.25,-257.62 410.7,-264.15 405,-275.2 416.25,-283.62 423.85,-289.32 432.82,-293.76 441.87,-297.21"/>
<polygon fill="#63b8ff" stroke="#63b8ff" points="73.23,-394.07 70.16,-404.21 78.89,-398.2 73.23,-394.07"/>
</g>
<!-- Node11 -->
<g id="node11" class="node">
<title>Node11</title>
<g id="a_node11"><a xlink:href="classv8_1_1LocalBase.html" target="_top" xlink:title=" ">
<polygon fill="white" stroke="#666666" points="552.62,-1373.25 432.38,-1373.25 432.38,-1354 552.62,-1354 552.62,-1373.25"/>
<text text-anchor="middle" x="492.5" y="-1359.75" font-family="Helvetica,sans-Serif" font-size="10.00">v8::LocalBase&lt; Name &gt;</text>
</a>
</g>
</g>
<!-- Node1&#45;&gt;Node11 -->
<g id="edge10" class="edge">
<title>Node1&#45;&gt;Node11</title>
<path fill="none" stroke="#63b8ff" d="M60.11,-447.15C62.77,-570.62 78.35,-1089.03 154.25,-1228.62 195.57,-1304.62 219.6,-1325.71 300,-1357.62 341.89,-1374.26 393.09,-1374.96 432,-1371.94"/>
<polygon fill="#63b8ff" stroke="#63b8ff" points="63.59,-447.08 59.89,-437.15 56.59,-447.22 63.59,-447.08"/>
</g>
<!-- Node12 -->
<g id="node12" class="node">
<title>Node12</title>
<g id="a_node12"><a xlink:href="classv8_1_1LocalBase.html" target="_top" xlink:title=" ">
<polygon fill="white" stroke="#666666" points="542.88,-1263.88 442.12,-1263.88 442.12,-1233.38 542.88,-1233.38 542.88,-1263.88"/>
<text text-anchor="start" x="450.12" y="-1250.38" font-family="Helvetica,sans-Serif" font-size="10.00">v8::LocalBase&lt; v8::</text>
<text text-anchor="middle" x="492.5" y="-1239.12" font-family="Helvetica,sans-Serif" font-size="10.00">Promise &gt;</text>
</a>
</g>
</g>
<!-- Node1&#45;&gt;Node12 -->
<g id="edge11" class="edge">
<title>Node1&#45;&gt;Node12</title>
<path fill="none" stroke="#63b8ff" d="M59.59,-447.28C60.35,-534.25 69.6,-816.34 154.25,-1028.62 196.47,-1134.49 200.34,-1184.32 300,-1239.62 343.36,-1263.69 401.12,-1262.79 441.83,-1257.83"/>
<polygon fill="#63b8ff" stroke="#63b8ff" points="63.09,-447.31 59.54,-437.33 56.09,-447.35 63.09,-447.31"/>
</g>
<!-- Node13 -->
<g id="node13" class="node">
<title>Node13</title>
<g id="a_node13"><a xlink:href="classv8_1_1LocalBase.html" target="_top" xlink:title=" ">
<polygon fill="white" stroke="#666666" points="542.88,-274.88 442.12,-274.88 442.12,-244.38 542.88,-244.38 542.88,-274.88"/>
<text text-anchor="start" x="450.12" y="-261.38" font-family="Helvetica,sans-Serif" font-size="10.00">v8::LocalBase&lt; v8::</text>
<text text-anchor="middle" x="492.5" y="-250.12" font-family="Helvetica,sans-Serif" font-size="10.00">Data &gt;</text>
</a>
</g>
</g>
<!-- Node1&#45;&gt;Node13 -->
<g id="edge12" class="edge">
<title>Node1&#45;&gt;Node13</title>
<path fill="none" stroke="#63b8ff" d="M66.44,-394.77C77.79,-357.31 104.41,-288.92 154.25,-256.62 242.82,-199.23 373.86,-224.14 443.65,-243.92"/>
<polygon fill="#63b8ff" stroke="#63b8ff" points="62.93,-393.31 63.51,-403.89 69.65,-395.25 62.93,-393.31"/>
</g>
<!-- Node14 -->
<g id="node14" class="node">
<title>Node14</title>
<g id="a_node14"><a xlink:href="classv8_1_1PersistentBase.html" target="_top" xlink:title=" ">
<polygon fill="white" stroke="#666666" points="541.38,-106.88 443.62,-106.88 443.62,-76.38 541.38,-76.38 541.38,-106.88"/>
<text text-anchor="start" x="451.62" y="-93.38" font-family="Helvetica,sans-Serif" font-size="10.00">v8::PersistentBase</text>
<text text-anchor="middle" x="492.5" y="-82.12" font-family="Helvetica,sans-Serif" font-size="10.00">&lt; v8::Context &gt;</text>
</a>
</g>
</g>
<!-- Node1&#45;&gt;Node14 -->
<g id="edge13" class="edge">
<title>Node1&#45;&gt;Node14</title>
<path fill="none" stroke="#63b8ff" d="M61.28,-394.3C66.06,-340.67 84.46,-218.04 154.25,-149.62 231.68,-73.73 370.11,-76.57 443.21,-84.45"/>
<polygon fill="#63b8ff" stroke="#63b8ff" points="57.74,-393.7 60.43,-403.94 64.71,-394.25 57.74,-393.7"/>
</g>
<!-- Node15 -->
<g id="node15" class="node">
<title>Node15</title>
<g id="a_node15"><a xlink:href="classv8_1_1Eternal.html" target="_top" xlink:title=" ">
<polygon fill="white" stroke="#666666" points="259.88,-56.25 176.38,-56.25 176.38,-37 259.88,-37 259.88,-56.25"/>
<text text-anchor="middle" x="218.12" y="-42.75" font-family="Helvetica,sans-Serif" font-size="10.00">v8::Eternal&lt; T &gt;</text>
</a>
</g>
</g>
<!-- Node1&#45;&gt;Node15 -->
<g id="edge14" class="edge">
<title>Node1&#45;&gt;Node15</title>
<path fill="none" stroke="#63b8ff" d="M61.87,-394.24C68.63,-321.12 91.03,-118.16 135.25,-70.62 145.74,-59.35 161.22,-53.27 175.91,-50.03"/>
<polygon fill="#63b8ff" stroke="#63b8ff" points="58.3,-393.92 60.89,-404.2 65.27,-394.55 58.3,-393.92"/>
</g>
<!-- Node16 -->
<g id="node16" class="node">
<title>Node16</title>
<g id="a_node16"><a xlink:href="classv8_1_1LocalBase.html" target="_top" xlink:title=" ">
<polygon fill="white" stroke="#666666" points="268.12,-773.25 168.12,-773.25 168.12,-754 268.12,-754 268.12,-773.25"/>
<text text-anchor="middle" x="218.12" y="-759.75" font-family="Helvetica,sans-Serif" font-size="10.00">v8::LocalBase&lt; T &gt;</text>
</a>
</g>
</g>
<!-- Node1&#45;&gt;Node16 -->
<g id="edge15" class="edge">
<title>Node1&#45;&gt;Node16</title>
<path fill="none" stroke="#63b8ff" d="M71.26,-445.97C103.23,-515.59 191.42,-707.64 212.54,-753.63"/>
<polygon fill="#63b8ff" stroke="#63b8ff" points="74.16,-444.88 66.8,-437.25 67.79,-447.8 74.16,-444.88"/>
</g>
<!-- Node31 -->
<g id="node31" class="node">
<title>Node31</title>
<g id="a_node31"><a xlink:href="classv8_1_1PersistentBase.html" target="_top" xlink:title=" ">
<polygon fill="white" stroke="#666666" points="278.25,-178.25 158,-178.25 158,-159 278.25,-159 278.25,-178.25"/>
<text text-anchor="middle" x="218.12" y="-164.75" font-family="Helvetica,sans-Serif" font-size="10.00">v8::PersistentBase&lt; T &gt;</text>
</a>
</g>
</g>
<!-- Node1&#45;&gt;Node31 -->
<g id="edge54" class="edge">
<title>Node1&#45;&gt;Node31</title>
<path fill="none" stroke="#63b8ff" d="M62.08,-394.41C67.56,-349.97 84.59,-259.37 135.25,-204.62 146.53,-192.43 162.69,-184.14 177.67,-178.62"/>
<polygon fill="#63b8ff" stroke="#63b8ff" points="58.51,-393.83 60.88,-404.16 65.47,-394.61 58.51,-393.83"/>
</g>
<!-- Node35 -->
<g id="node35" class="node">
<title>Node35</title>
<g id="a_node35"><a xlink:href="classv8_1_1TracedReferenceBase.html" target="_top" xlink:title=" ">
<polygon fill="white" stroke="#666666" points="282,-19.25 154.25,-19.25 154.25,0 282,0 282,-19.25"/>
<text text-anchor="middle" x="218.12" y="-5.75" font-family="Helvetica,sans-Serif" font-size="10.00">v8::TracedReferenceBase</text>
</a>
</g>
</g>
<!-- Node1&#45;&gt;Node35 -->
<g id="edge60" class="edge">
<title>Node1&#45;&gt;Node35</title>
<path fill="none" stroke="#63b8ff" d="M63,-394.42C71.14,-334.91 94.26,-185.55 135.25,-66.62 141.53,-48.4 139.48,-40.02 154.25,-27.62 158.08,-24.41 162.45,-21.77 167.06,-19.61"/>
<polygon fill="#63b8ff" stroke="#63b8ff" points="59.43,-393.71 61.57,-404.08 66.37,-394.64 59.43,-393.71"/>
</g>
<!-- Node16&#45;&gt;Node2 -->
<g id="edge42" class="edge">
<title>Node16&#45;&gt;Node2</title>
<path fill="none" stroke="orange" stroke-dasharray="5,2" d="M219.58,-784.44C221.95,-875.12 235.32,-1235.09 300,-1323.62 328.64,-1362.83 355.77,-1347.86 398.25,-1371.38 406.5,-1375.94 407.81,-1378.41 416.25,-1382.62 425.89,-1387.44 436.55,-1391.99 446.72,-1395.98"/>
<polygon fill="orange" stroke="orange" points="223.06,-784.61 219.32,-774.7 216.06,-784.78 223.06,-784.61"/>
<text text-anchor="middle" x="349.12" y="-1372.38" font-family="Helvetica,sans-Serif" font-size="10.00"> &lt; v8::String &gt;</text>
</g>
<!-- Node16&#45;&gt;Node3 -->
<g id="edge43" class="edge">
<title>Node16&#45;&gt;Node3</title>
<path fill="none" stroke="orange" stroke-dasharray="5,2" d="M220.45,-784.11C225.82,-861.82 248.26,-1137.52 300,-1205.62 329.37,-1244.28 359.18,-1224.55 398.25,-1253.38 407.68,-1260.33 406.77,-1265.75 416.25,-1272.62 426.63,-1280.15 438.89,-1286.67 450.47,-1291.98"/>
<polygon fill="orange" stroke="orange" points="223.89,-784.14 219.73,-774.39 216.91,-784.61 223.89,-784.14"/>
<text text-anchor="middle" x="349.12" y="-1254.38" font-family="Helvetica,sans-Serif" font-size="10.00"> &lt; v8::Object &gt;</text>
</g>
<!-- Node16&#45;&gt;Node4 -->
<g id="edge44" class="edge">
<title>Node16&#45;&gt;Node4</title>
<path fill="none" stroke="orange" stroke-dasharray="5,2" d="M221.08,-784.31C227.89,-852.03 252.8,-1065.43 300,-1112.62 331.7,-1144.32 361.86,-1109.21 398.25,-1135.38 410.64,-1144.29 404.57,-1154.8 416.25,-1164.62 423.78,-1170.96 432.82,-1176.08 441.98,-1180.16"/>
<polygon fill="orange" stroke="orange" points="224.47,-784.05 220.02,-774.44 217.51,-784.73 224.47,-784.05"/>
<text text-anchor="middle" x="349.12" y="-1136.38" font-family="Helvetica,sans-Serif" font-size="10.00"> &lt; v8::Array &gt;</text>
</g>
<!-- Node16&#45;&gt;Node5 -->
<g id="edge45" class="edge">
<title>Node16&#45;&gt;Node5</title>
<path fill="none" stroke="orange" stroke-dasharray="5,2" d="M220.57,-742.77C224.75,-699.46 240.64,-599.46 300,-547.38 333.69,-517.81 358.11,-544.57 398.25,-524.62 407.58,-519.99 407.27,-514.9 416.25,-509.62 424.82,-504.59 434.42,-500.12 443.83,-496.28"/>
<polygon fill="orange" stroke="orange" points="217.01,-742.36 219.66,-752.62 223.99,-742.95 217.01,-742.36"/>
<text text-anchor="middle" x="349.12" y="-548.38" font-family="Helvetica,sans-Serif" font-size="10.00"> &lt; v8::Context &gt;</text>
</g>
<!-- Node16&#45;&gt;Node6 -->
<g id="edge46" class="edge">
<title>Node16&#45;&gt;Node6</title>
<path fill="none" stroke="orange" stroke-dasharray="5,2" d="M220.18,-742.57C223.63,-695.31 238.26,-579.63 300,-511.38 331.95,-476.06 356.44,-491.42 398.25,-468.62 406.69,-464.02 407.46,-460.53 416.25,-456.62 424.26,-453.07 433.05,-450.1 441.71,-447.64"/>
<polygon fill="orange" stroke="orange" points="216.62,-742.32 219.5,-752.52 223.61,-742.75 216.62,-742.32"/>
<text text-anchor="middle" x="349.12" y="-512.38" font-family="Helvetica,sans-Serif" font-size="10.00"> &lt; Object &gt;</text>
</g>
<!-- Node16&#45;&gt;Node7 -->
<g id="edge47" class="edge">
<title>Node16&#45;&gt;Node7</title>
<path fill="none" stroke="orange" stroke-dasharray="5,2" d="M219.21,-784.17C219.97,-880.24 227.49,-1284.52 300,-1382.62 319.42,-1408.9 407.11,-1438.51 456.82,-1453.61"/>
<polygon fill="orange" stroke="orange" points="222.7,-784.35 219.14,-774.37 215.7,-784.39 222.7,-784.35"/>
<text text-anchor="middle" x="349.12" y="-1434.38" font-family="Helvetica,sans-Serif" font-size="10.00"> &lt; Context &gt;</text>
</g>
<!-- Node16&#45;&gt;Node8 -->
<g id="edge48" class="edge">
<title>Node16&#45;&gt;Node8</title>
<path fill="none" stroke="orange" stroke-dasharray="5,2" d="M221.87,-742.95C230.54,-680.57 259.2,-495.95 300,-453.38 319.61,-432.91 391.88,-414.69 441.81,-404.15"/>
<polygon fill="orange" stroke="orange" points="218.28,-742.33 220.4,-752.71 225.22,-743.28 218.28,-742.33"/>
<text text-anchor="middle" x="349.12" y="-454.38" font-family="Helvetica,sans-Serif" font-size="10.00"> &lt; v8::Value &gt;</text>
</g>
<!-- Node16&#45;&gt;Node9 -->
<g id="edge49" class="edge">
<title>Node16&#45;&gt;Node9</title>
<path fill="none" stroke="orange" stroke-dasharray="5,2" d="M220.88,-742.9C227.19,-673.14 251.04,-448.4 300,-398.38 334.35,-363.28 390.36,-352.84 432.96,-350.44"/>
<polygon fill="orange" stroke="orange" points="217.32,-742.45 219.93,-752.72 224.29,-743.07 217.32,-742.45"/>
<text text-anchor="middle" x="349.12" y="-399.38" font-family="Helvetica,sans-Serif" font-size="10.00"> &lt; Value &gt;</text>
</g>
<!-- Node16&#45;&gt;Node10 -->
<g id="edge50" class="edge">
<title>Node16&#45;&gt;Node10</title>
<path fill="none" stroke="orange" stroke-dasharray="5,2" d="M220.02,-742.97C223.82,-665.88 241.16,-396.53 300,-339.38 337.08,-303.36 398.54,-299.48 441.82,-302.15"/>
<polygon fill="orange" stroke="orange" points="216.5,-742.48 219.53,-752.63 223.49,-742.8 216.5,-742.48"/>
<text text-anchor="middle" x="349.12" y="-340.38" font-family="Helvetica,sans-Serif" font-size="10.00"> &lt; v8::UnboundScript &gt;</text>
</g>
<!-- Node16&#45;&gt;Node11 -->
<g id="edge51" class="edge">
<title>Node16&#45;&gt;Node11</title>
<path fill="none" stroke="orange" stroke-dasharray="5,2" d="M219.97,-784.35C223.79,-868.81 241.82,-1186.36 300,-1264.62 328.96,-1303.59 359.18,-1283.55 398.25,-1312.38 407.68,-1319.33 406.65,-1324.91 416.25,-1331.62 429.51,-1340.9 445.88,-1348.26 459.97,-1353.57"/>
<polygon fill="orange" stroke="orange" points="223.43,-784.28 219.5,-774.44 216.43,-784.58 223.43,-784.28"/>
<text text-anchor="middle" x="349.12" y="-1313.38" font-family="Helvetica,sans-Serif" font-size="10.00"> &lt; Name &gt;</text>
</g>
<!-- Node16&#45;&gt;Node12 -->
<g id="edge52" class="edge">
<title>Node16&#45;&gt;Node12</title>
<path fill="none" stroke="orange" stroke-dasharray="5,2" d="M221.07,-784.05C228.19,-854.86 254.71,-1088.66 300,-1146.62 329.89,-1184.88 360.88,-1163.38 398.25,-1194.38 408.58,-1202.94 405.61,-1210.44 416.25,-1218.62 423.94,-1224.54 432.95,-1229.45 442.01,-1233.46"/>
<polygon fill="orange" stroke="orange" points="224.5,-784.07 220.04,-774.46 217.53,-784.76 224.5,-784.07"/>
<text text-anchor="middle" x="349.12" y="-1195.38" font-family="Helvetica,sans-Serif" font-size="10.00"> &lt; v8::Promise &gt;</text>
</g>
<!-- Node16&#45;&gt;Node13 -->
<g id="edge53" class="edge">
<title>Node16&#45;&gt;Node13</title>
<path fill="none" stroke="orange" stroke-dasharray="5,2" d="M219.51,-742.82C221.52,-659.46 233.42,-351.05 300,-286.38 336.96,-250.47 398.45,-248.01 441.76,-251.79"/>
<polygon fill="orange" stroke="orange" points="216,-742.55 219.28,-752.62 223,-742.7 216,-742.55"/>
<text text-anchor="middle" x="349.12" y="-287.38" font-family="Helvetica,sans-Serif" font-size="10.00"> &lt; v8::Data &gt;</text>
</g>
<!-- Node17 -->
<g id="node17" class="node">
<title>Node17</title>
<g id="a_node17"><a xlink:href="classv8_1_1Local.html" target="_top" xlink:title=" ">
<polygon fill="white" stroke="#666666" points="840.5,-981.25 728.5,-981.25 728.5,-962 840.5,-962 840.5,-981.25"/>
<text text-anchor="middle" x="784.5" y="-967.75" font-family="Helvetica,sans-Serif" font-size="10.00">v8::Local&lt; v8::String &gt;</text>
</a>
</g>
</g>
<!-- Node16&#45;&gt;Node17 -->
<g id="edge16" class="edge">
<title>Node16&#45;&gt;Node17</title>
<path fill="none" stroke="#63b8ff" d="M229.47,-783.23C243.13,-807.76 269.1,-850.03 300,-878.62 404.95,-975.77 446.94,-994.52 586.75,-1024.62 629.44,-1033.82 642.66,-1035.29 685,-1024.62 687.17,-1024.08 737.1,-996.94 765.02,-981.71"/>
<polygon fill="#63b8ff" stroke="#63b8ff" points="232.09,-781.72 224.24,-774.6 225.94,-785.06 232.09,-781.72"/>
</g>
<!-- Node18 -->
<g id="node18" class="node">
<title>Node18</title>
<g id="a_node18"><a xlink:href="classv8_1_1Local.html" target="_top" xlink:title=" ">
<polygon fill="white" stroke="#666666" points="842,-578.25 727,-578.25 727,-559 842,-559 842,-578.25"/>
<text text-anchor="middle" x="784.5" y="-564.75" font-family="Helvetica,sans-Serif" font-size="10.00">v8::Local&lt; v8::Object &gt;</text>
</a>
</g>
</g>
<!-- Node16&#45;&gt;Node18 -->
<g id="edge17" class="edge">
<title>Node16&#45;&gt;Node18</title>
<path fill="none" stroke="#63b8ff" d="M231.98,-744.96C246.47,-725.13 271.74,-694.01 300,-674.62 332.73,-652.17 582.04,-572.44 586.75,-571.62 633.37,-563.55 687.13,-563.33 726.67,-564.84"/>
<polygon fill="#63b8ff" stroke="#63b8ff" points="228.71,-742.51 225.76,-752.69 234.41,-746.57 228.71,-742.51"/>
</g>
<!-- Node19 -->
<g id="node19" class="node">
<title>Node19</title>
<g id="a_node19"><a xlink:href="classv8_1_1Local.html" target="_top" xlink:title=" ">
<polygon fill="white" stroke="#666666" points="839,-1165.25 730,-1165.25 730,-1146 839,-1146 839,-1165.25"/>
<text text-anchor="middle" x="784.5" y="-1151.75" font-family="Helvetica,sans-Serif" font-size="10.00">v8::Local&lt; v8::Array &gt;</text>
</a>
</g>
</g>
<!-- Node16&#45;&gt;Node19 -->
<g id="edge18" class="edge">
<title>Node16&#45;&gt;Node19</title>
<path fill="none" stroke="#63b8ff" d="M220.99,-784.42C226.13,-831.75 244.05,-949.45 300,-1027.62 337.1,-1079.46 358.85,-1083.89 416.25,-1111.62 525.5,-1164.41 563.69,-1162.09 685,-1159.62 699.46,-1159.33 715.1,-1158.8 729.58,-1158.21"/>
<polygon fill="#63b8ff" stroke="#63b8ff" points="224.4,-784.33 219.92,-774.73 217.43,-785.03 224.4,-784.33"/>
</g>
<!-- Node20 -->
<g id="node20" class="node">
<title>Node20</title>
<g id="a_node20"><a xlink:href="classv8_1_1Local.html" target="_top" xlink:title=" ">
<polygon fill="white" stroke="#666666" points="844.25,-1104.25 724.75,-1104.25 724.75,-1085 844.25,-1085 844.25,-1104.25"/>
<text text-anchor="middle" x="784.5" y="-1090.75" font-family="Helvetica,sans-Serif" font-size="10.00">v8::Local&lt; v8::Context &gt;</text>
</a>
</g>
</g>
<!-- Node16&#45;&gt;Node20 -->
<g id="edge19" class="edge">
<title>Node16&#45;&gt;Node20</title>
<path fill="none" stroke="#63b8ff" d="M222.69,-784.35C230.55,-825.17 252.59,-917.3 300,-978.62 338.67,-1028.65 361.74,-1028.59 416.25,-1060.62 434.37,-1071.28 566.25,-1137.95 586.75,-1142.62 629.32,-1152.33 642.45,-1152.44 685,-1142.62 701.31,-1138.86 741.75,-1117.59 765.43,-1104.66"/>
<polygon fill="#63b8ff" stroke="#63b8ff" points="225.97,-783.84 220.73,-774.64 219.08,-785.1 225.97,-783.84"/>
</g>
<!-- Node21 -->
<g id="node21" class="node">
<title>Node21</title>
<g id="a_node21"><a xlink:href="classv8_1_1Local.html" target="_top" xlink:title=" ">
<polygon fill="white" stroke="#666666" points="834.5,-1044.25 734.5,-1044.25 734.5,-1025 834.5,-1025 834.5,-1044.25"/>
<text text-anchor="middle" x="784.5" y="-1030.75" font-family="Helvetica,sans-Serif" font-size="10.00">v8::Local&lt; Object &gt;</text>
</a>
</g>
</g>
<!-- Node16&#45;&gt;Node21 -->
<g id="edge20" class="edge">
<title>Node16&#45;&gt;Node21</title>
<path fill="none" stroke="#63b8ff" d="M224.92,-783.74C235.41,-817.42 260.22,-886.02 300,-931.62 340.73,-978.33 361.86,-978.93 416.25,-1008.62 525.09,-1068.05 564.28,-1111.99 685,-1083.62 689.21,-1082.64 736.7,-1058.55 764.17,-1044.52"/>
<polygon fill="#63b8ff" stroke="#63b8ff" points="228.04,-782.95 221.81,-774.38 221.33,-784.96 228.04,-782.95"/>
</g>
<!-- Node22 -->
<g id="node22" class="node">
<title>Node22</title>
<g id="a_node22"><a xlink:href="classv8_1_1Local.html" target="_top" xlink:title=" ">
<polygon fill="white" stroke="#666666" points="836.75,-536.25 732.25,-536.25 732.25,-517 836.75,-517 836.75,-536.25"/>
<text text-anchor="middle" x="784.5" y="-522.75" font-family="Helvetica,sans-Serif" font-size="10.00">v8::Local&lt; Context &gt;</text>
</a>
</g>
</g>
<!-- Node16&#45;&gt;Node22 -->
<g id="edge21" class="edge">
<title>Node16&#45;&gt;Node22</title>
<path fill="none" stroke="#63b8ff" d="M226.88,-743.65C238.78,-715.25 264.01,-663.04 300,-630.62 302.65,-628.23 412.89,-576.83 416.25,-575.62 482.03,-552.13 510.92,-576.81 568.75,-537.62 580.08,-529.95 574.56,-518.87 586.75,-512.62 642.07,-484.29 717.85,-503.17 757.26,-516.56"/>
<polygon fill="#63b8ff" stroke="#63b8ff" points="223.36,-742.02 222.85,-752.6 229.84,-744.65 223.36,-742.02"/>
</g>
<!-- Node23 -->
<g id="node23" class="node">
<title>Node23</title>
<g id="a_node23"><a xlink:href="classv8_1_1Local.html" target="_top" xlink:title=" ">
<polygon fill="white" stroke="#666666" points="840.12,-491.25 728.88,-491.25 728.88,-472 840.12,-472 840.12,-491.25"/>
<text text-anchor="middle" x="784.5" y="-477.75" font-family="Helvetica,sans-Serif" font-size="10.00">v8::Local&lt; v8::Value &gt;</text>
</a>
</g>
</g>
<!-- Node16&#45;&gt;Node23 -->
<g id="edge22" class="edge">
<title>Node16&#45;&gt;Node23</title>
<path fill="none" stroke="#63b8ff" d="M222.62,-743.49C230.06,-706.75 250.98,-628.75 300,-586.62 334.44,-557.03 360.02,-583.12 398.25,-558.62 408.6,-551.99 405.69,-543.92 416.25,-537.62 475.81,-502.11 504.37,-530.4 568.75,-504.62 577.45,-501.14 577.81,-496.44 586.75,-493.62 633.11,-479.04 688.57,-476.95 728.78,-477.97"/>
<polygon fill="#63b8ff" stroke="#63b8ff" points="219.08,-742.4 220.66,-752.87 225.95,-743.7 219.08,-742.4"/>
</g>
<!-- Node24 -->
<g id="node24" class="node">
<title>Node24</title>
<g id="a_node24"><a xlink:href="classv8_1_1Local.html" target="_top" xlink:title=" ">
<polygon fill="white" stroke="#666666" points="832.62,-831.25 736.38,-831.25 736.38,-812 832.62,-812 832.62,-831.25"/>
<text text-anchor="middle" x="784.5" y="-817.75" font-family="Helvetica,sans-Serif" font-size="10.00">v8::Local&lt; Value &gt;</text>
</a>
</g>
</g>
<!-- Node16&#45;&gt;Node24 -->
<g id="edge23" class="edge">
<title>Node16&#45;&gt;Node24</title>
<path fill="none" stroke="#63b8ff" d="M279.45,-768.41C368.36,-775.67 539.74,-790.45 685,-807.62 701.64,-809.59 719.81,-812.08 735.96,-814.41"/>
<polygon fill="#63b8ff" stroke="#63b8ff" points="279.76,-764.84 269.51,-767.52 279.19,-771.82 279.76,-764.84"/>
</g>
<!-- Node25 -->
<g id="node25" class="node">
<title>Node25</title>
<g id="a_node25"><a xlink:href="classv8_1_1Local.html" target="_top" xlink:title=" ">
<polygon fill="white" stroke="#666666" points="860,-769.25 709,-769.25 709,-750 860,-750 860,-769.25"/>
<text text-anchor="middle" x="784.5" y="-755.75" font-family="Helvetica,sans-Serif" font-size="10.00">v8::Local&lt; v8::UnboundScript &gt;</text>
</a>
</g>
</g>
<!-- Node16&#45;&gt;Node25 -->
<g id="edge24" class="edge">
<title>Node16&#45;&gt;Node25</title>
<path fill="none" stroke="#63b8ff" d="M279.4,-758.31C368.23,-751.24 539.52,-740.53 685,-748.62 692.65,-749.05 700.61,-749.66 708.55,-750.38"/>
<polygon fill="#63b8ff" stroke="#63b8ff" points="279.15,-754.9 269.46,-759.19 279.71,-761.88 279.15,-754.9"/>
</g>
<!-- Node26 -->
<g id="node26" class="node">
<title>Node26</title>
<g id="a_node26"><a xlink:href="classv8_1_1Local.html" target="_top" xlink:title=" ">
<polygon fill="white" stroke="#666666" points="833.38,-637.25 735.62,-637.25 735.62,-618 833.38,-618 833.38,-637.25"/>
<text text-anchor="middle" x="784.5" y="-623.75" font-family="Helvetica,sans-Serif" font-size="10.00">v8::Local&lt; Name &gt;</text>
</a>
</g>
</g>
<!-- Node16&#45;&gt;Node26 -->
<g id="edge25" class="edge">
<title>Node16&#45;&gt;Node26</title>
<path fill="none" stroke="#63b8ff" d="M244.84,-747.93C260.42,-738.86 280.92,-727.69 300,-719.62 422.93,-667.71 454.97,-651.63 586.75,-630.62 637.02,-622.61 695.42,-622.91 735.46,-624.56"/>
<polygon fill="#63b8ff" stroke="#63b8ff" points="243.2,-745.43 236.38,-753.54 246.77,-751.46 243.2,-745.43"/>
</g>
<!-- Node27 -->
<g id="node27" class="node">
<title>Node27</title>
<g id="a_node27"><a xlink:href="classv8_1_1Local.html" target="_top" xlink:title=" ">
<polygon fill="white" stroke="#666666" points="845.75,-708.25 723.25,-708.25 723.25,-689 845.75,-689 845.75,-708.25"/>
<text text-anchor="middle" x="784.5" y="-694.75" font-family="Helvetica,sans-Serif" font-size="10.00">v8::Local&lt; v8::Promise &gt;</text>
</a>
</g>
</g>
<!-- Node16&#45;&gt;Node27 -->
<g id="edge26" class="edge">
<title>Node16&#45;&gt;Node27</title>
<path fill="none" stroke="#63b8ff" d="M277.27,-751.32C284.91,-749.73 292.64,-748.13 300,-746.62 469.47,-711.97 512.2,-681.75 685,-689.62 697.27,-690.18 710.36,-691.13 722.87,-692.21"/>
<polygon fill="#63b8ff" stroke="#63b8ff" points="276.65,-748.09 267.58,-753.56 278.08,-754.94 276.65,-748.09"/>
</g>
<!-- Node28 -->
<g id="node28" class="node">
<title>Node28</title>
<g id="a_node28"><a xlink:href="classv8_1_1Local.html" target="_top" xlink:title=" ">
<polygon fill="white" stroke="#666666" points="837.88,-940.25 731.12,-940.25 731.12,-921 837.88,-921 837.88,-940.25"/>
<text text-anchor="middle" x="784.5" y="-926.75" font-family="Helvetica,sans-Serif" font-size="10.00">v8::Local&lt; v8::Data &gt;</text>
</a>
</g>
</g>
<!-- Node16&#45;&gt;Node28 -->
<g id="edge27" class="edge">
<title>Node16&#45;&gt;Node28</title>
<path fill="none" stroke="#63b8ff" d="M236.04,-781.14C251.62,-796.6 275.91,-819.03 300,-834.62 417.62,-910.77 449.84,-935.83 586.75,-965.62 629.42,-974.91 643.45,-979.06 685,-965.62 694.39,-962.59 694.1,-956.88 703,-952.62 713.19,-947.75 724.65,-943.8 735.65,-940.67"/>
<polygon fill="#63b8ff" stroke="#63b8ff" points="238.86,-779 229.34,-774.36 233.88,-783.93 238.86,-779"/>
</g>
<!-- Node29 -->
<g id="node29" class="node">
<title>Node29</title>
<g id="a_node29"><a xlink:href="classv8_1_1Local.html" target="_top" xlink:title=" ">
<polygon fill="white" stroke="#666666" points="531.25,-860.25 453.75,-860.25 453.75,-841 531.25,-841 531.25,-860.25"/>
<text text-anchor="middle" x="492.5" y="-846.75" font-family="Helvetica,sans-Serif" font-size="10.00">v8::Local&lt; T &gt;</text>
</a>
</g>
</g>
<!-- Node16&#45;&gt;Node29 -->
<g id="edge28" class="edge">
<title>Node16&#45;&gt;Node29</title>
<path fill="none" stroke="#63b8ff" d="M243.3,-779.09C258.94,-788.5 280.05,-800.13 300,-807.62 351.51,-826.99 414.24,-839.03 453.54,-845.29"/>
<polygon fill="#63b8ff" stroke="#63b8ff" points="245.67,-775.82 235.32,-773.56 242,-781.78 245.67,-775.82"/>
</g>
<!-- Node29&#45;&gt;Node17 -->
<g id="edge30" class="edge">
<title>Node29&#45;&gt;Node17</title>
<path fill="none" stroke="orange" stroke-dasharray="5,2" d="M511.55,-867.95C529.33,-884.1 557.93,-907.71 586.75,-921.62 631.82,-943.38 687.42,-956.39 728.01,-963.66"/>
<polygon fill="orange" stroke="orange" points="514.45,-865.94 504.74,-861.7 509.69,-871.07 514.45,-865.94"/>
<text text-anchor="middle" x="635.88" y="-955.38" font-family="Helvetica,sans-Serif" font-size="10.00"> &lt; v8::String &gt;</text>
</g>
<!-- Node29&#45;&gt;Node18 -->
<g id="edge31" class="edge">
<title>Node29&#45;&gt;Node18</title>
<path fill="none" stroke="orange" stroke-dasharray="5,2" d="M497.87,-830.22C507.34,-790.61 533.35,-702.7 586.75,-651.38 599.71,-638.92 706.02,-597.82 756.75,-578.64"/>
<polygon fill="orange" stroke="orange" points="494.25,-829.34 495.45,-839.87 501.08,-830.89 494.25,-829.34"/>
<text text-anchor="middle" x="635.88" y="-652.38" font-family="Helvetica,sans-Serif" font-size="10.00"> &lt; v8::Object &gt;</text>
</g>
<!-- Node29&#45;&gt;Node19 -->
<g id="edge32" class="edge">
<title>Node29&#45;&gt;Node19</title>
<path fill="none" stroke="orange" stroke-dasharray="5,2" d="M495.71,-871.35C501.69,-917.25 522.37,-1028.28 586.75,-1089.62 625.75,-1126.78 686.3,-1143.05 729.92,-1150.15"/>
<polygon fill="orange" stroke="orange" points="499.09,-871.2 494.43,-861.68 492.14,-872.03 499.09,-871.2"/>
<text text-anchor="middle" x="635.88" y="-1141.38" font-family="Helvetica,sans-Serif" font-size="10.00"> &lt; v8::Array &gt;</text>
</g>
<!-- Node29&#45;&gt;Node20 -->
<g id="edge33" class="edge">
<title>Node29&#45;&gt;Node20</title>
<path fill="none" stroke="orange" stroke-dasharray="5,2" d="M498.83,-871.08C509.4,-907.7 536.47,-984.67 586.75,-1027.62 625.71,-1060.91 681.98,-1077.88 724.38,-1086.4"/>
<polygon fill="orange" stroke="orange" points="502,-870.41 495.97,-861.7 495.25,-872.27 502,-870.41"/>
<text text-anchor="middle" x="635.88" y="-1076.38" font-family="Helvetica,sans-Serif" font-size="10.00"> &lt; v8::Context &gt;</text>
</g>
<!-- Node29&#45;&gt;Node21 -->
<g id="edge34" class="edge">
<title>Node29&#45;&gt;Node21</title>
<path fill="none" stroke="orange" stroke-dasharray="5,2" d="M503.95,-869.96C518.96,-895.99 549.02,-942.09 586.75,-968.62 631.4,-1000.02 692.11,-1017.37 734.23,-1026.31"/>
<polygon fill="orange" stroke="orange" points="506.56,-868.46 498.62,-861.44 500.45,-871.88 506.56,-868.46"/>
<text text-anchor="middle" x="635.88" y="-1014.38" font-family="Helvetica,sans-Serif" font-size="10.00"> &lt; Object &gt;</text>
</g>
<!-- Node29&#45;&gt;Node22 -->
<g id="edge35" class="edge">
<title>Node29&#45;&gt;Node22</title>
<path fill="none" stroke="orange" stroke-dasharray="5,2" d="M495.17,-829.73C500.15,-781.33 519.04,-660.48 586.75,-592.38 608.27,-570.73 687.55,-548.92 738.66,-536.66"/>
<polygon fill="orange" stroke="orange" points="491.6,-829.36 494.17,-839.64 498.57,-830 491.6,-829.36"/>
<text text-anchor="middle" x="635.88" y="-593.38" font-family="Helvetica,sans-Serif" font-size="10.00"> &lt; Context &gt;</text>
</g>
<!-- Node29&#45;&gt;Node23 -->
<g id="edge36" class="edge">
<title>Node29&#45;&gt;Node23</title>
<path fill="none" stroke="orange" stroke-dasharray="5,2" d="M493.21,-829.83C493.59,-773.93 502.61,-619.09 586.75,-536.38 624.3,-499.46 684.49,-486.95 728.42,-482.95"/>
<polygon fill="orange" stroke="orange" points="489.71,-829.75 493.24,-839.74 496.71,-829.73 489.71,-829.75"/>
<text text-anchor="middle" x="635.88" y="-537.38" font-family="Helvetica,sans-Serif" font-size="10.00"> &lt; v8::Value &gt;</text>
</g>
<!-- Node29&#45;&gt;Node24 -->
<g id="edge37" class="edge">
<title>Node29&#45;&gt;Node24</title>
<path fill="none" stroke="orange" stroke-dasharray="5,2" d="M542.37,-849.02C581.14,-847.4 636.67,-844.29 685,-838.62 701.72,-836.66 719.91,-833.75 736.06,-830.88"/>
<polygon fill="orange" stroke="orange" points="542.25,-845.56 532.4,-849.46 542.53,-852.56 542.25,-845.56"/>
<text text-anchor="middle" x="635.88" y="-847.38" font-family="Helvetica,sans-Serif" font-size="10.00"> &lt; Value &gt;</text>
</g>
<!-- Node29&#45;&gt;Node25 -->
<g id="edge38" class="edge">
<title>Node29&#45;&gt;Node25</title>
<path fill="none" stroke="orange" stroke-dasharray="5,2" d="M536.05,-837.27C594.74,-818.86 699.23,-786.07 751.65,-769.62"/>
<polygon fill="orange" stroke="orange" points="535.14,-834.21 526.64,-840.54 537.23,-840.88 535.14,-834.21"/>
<text text-anchor="middle" x="635.88" y="-822.38" font-family="Helvetica,sans-Serif" font-size="10.00"> &lt; v8::UnboundScript &gt;</text>
</g>
<!-- Node29&#45;&gt;Node26 -->
<g id="edge39" class="edge">
<title>Node29&#45;&gt;Node26</title>
<path fill="none" stroke="orange" stroke-dasharray="5,2" d="M502.68,-831.21C517.03,-802.66 547.28,-749.2 586.75,-716.38 614.12,-693.61 709.24,-655.75 756.47,-637.74"/>
<polygon fill="orange" stroke="orange" points="499.22,-829.32 497.97,-839.84 505.51,-832.39 499.22,-829.32"/>
<text text-anchor="middle" x="635.88" y="-717.38" font-family="Helvetica,sans-Serif" font-size="10.00"> &lt; Name &gt;</text>
</g>
<!-- Node29&#45;&gt;Node27 -->
<g id="edge40" class="edge">
<title>Node29&#45;&gt;Node27</title>
<path fill="none" stroke="orange" stroke-dasharray="5,2" d="M511.84,-833.28C529.83,-816.97 558.58,-792.67 586.75,-776.38 640.48,-745.3 709.01,-721.37 749.39,-708.69"/>
<polygon fill="orange" stroke="orange" points="509.91,-830.23 504.93,-839.58 514.65,-835.37 509.91,-830.23"/>
<text text-anchor="middle" x="635.88" y="-777.38" font-family="Helvetica,sans-Serif" font-size="10.00"> &lt; v8::Promise &gt;</text>
</g>
<!-- Node29&#45;&gt;Node28 -->
<g id="edge41" class="edge">
<title>Node29&#45;&gt;Node28</title>
<path fill="none" stroke="orange" stroke-dasharray="5,2" d="M531.87,-864.12C548.63,-869.82 568.57,-876.35 586.75,-881.62 638.47,-896.64 698.65,-911.21 738.7,-920.5"/>
<polygon fill="orange" stroke="orange" points="533.49,-860.63 522.89,-860.69 531.21,-867.25 533.49,-860.63"/>
<text text-anchor="middle" x="635.88" y="-908.38" font-family="Helvetica,sans-Serif" font-size="10.00"> &lt; v8::Data &gt;</text>
</g>
<!-- Node30 -->
<g id="node30" class="node">
<title>Node30</title>
<g id="a_node30"><a xlink:href="classv8_1_1internal_1_1LocalUnchecked.html" target="_top" xlink:title=" ">
<polygon fill="white" stroke="#666666" points="866,-896.25 703,-896.25 703,-877 866,-877 866,-896.25"/>
<text text-anchor="middle" x="784.5" y="-882.75" font-family="Helvetica,sans-Serif" font-size="10.00">v8::internal::LocalUnchecked&lt; T &gt;</text>
</a>
</g>
</g>
<!-- Node29&#45;&gt;Node30 -->
<g id="edge29" class="edge">
<title>Node29&#45;&gt;Node30</title>
<path fill="none" stroke="#63b8ff" d="M542.36,-856.69C586.13,-862.12 651.17,-870.2 702.68,-876.59"/>
<polygon fill="#63b8ff" stroke="#63b8ff" points="543.07,-853.13 532.71,-855.37 542.2,-860.07 543.07,-853.13"/>
</g>
<!-- Node31&#45;&gt;Node14 -->
<g id="edge59" class="edge">
<title>Node31&#45;&gt;Node14</title>
<path fill="none" stroke="orange" stroke-dasharray="5,2" d="M240.23,-152.07C255.85,-140.7 278.12,-126.3 300,-118.38 346.87,-101.4 403.8,-95.12 443.35,-92.84"/>
<polygon fill="orange" stroke="orange" points="238.33,-149.86 232.43,-158.66 242.53,-155.46 238.33,-149.86"/>
<text text-anchor="middle" x="349.12" y="-119.38" font-family="Helvetica,sans-Serif" font-size="10.00"> &lt; v8::Context &gt;</text>
</g>
<!-- Node32 -->
<g id="node32" class="node">
<title>Node32</title>
<g id="a_node32"><a xlink:href="classv8_1_1Global.html" target="_top" xlink:title=" ">
<polygon fill="white" stroke="#666666" points="846.12,-178.25 722.88,-178.25 722.88,-159 846.12,-159 846.12,-178.25"/>
<text text-anchor="middle" x="784.5" y="-164.75" font-family="Helvetica,sans-Serif" font-size="10.00">v8::Global&lt; v8::Context &gt;</text>
</a>
</g>
</g>
<!-- Node31&#45;&gt;Node32 -->
<g id="edge55" class="edge">
<title>Node31&#45;&gt;Node32</title>
<path fill="none" stroke="#63b8ff" d="M289.47,-165.08C327.08,-163.36 374.17,-161.48 416.25,-160.62 484.01,-159.25 500.98,-159.36 568.75,-160.62 620.6,-161.59 679.46,-163.87 722.42,-165.74"/>
<polygon fill="#63b8ff" stroke="#63b8ff" points="289.45,-161.62 279.63,-165.58 289.78,-168.61 289.45,-161.62"/>
</g>
<!-- Node33 -->
<g id="node33" class="node">
<title>Node33</title>
<g id="a_node33"><a xlink:href="classv8_1_1Global.html" target="_top" xlink:title=" ">
<polygon fill="white" stroke="#666666" points="533.12,-226.25 451.88,-226.25 451.88,-207 533.12,-207 533.12,-226.25"/>
<text text-anchor="middle" x="492.5" y="-212.75" font-family="Helvetica,sans-Serif" font-size="10.00">v8::Global&lt; T &gt;</text>
</a>
</g>
</g>
<!-- Node31&#45;&gt;Node33 -->
<g id="edge56" class="edge">
<title>Node31&#45;&gt;Node33</title>
<path fill="none" stroke="#63b8ff" d="M287.33,-180.65C339.18,-189.78 408.7,-202.03 451.77,-209.62"/>
<polygon fill="#63b8ff" stroke="#63b8ff" points="288.01,-177.03 277.56,-178.75 286.8,-183.93 288.01,-177.03"/>
</g>
<!-- Node34 -->
<g id="node34" class="node">
<title>Node34</title>
<g id="a_node34"><a xlink:href="classv8_1_1Persistent.html" target="_top" xlink:title=" ">
<polygon fill="white" stroke="#666666" points="548.12,-189.25 436.88,-189.25 436.88,-170 548.12,-170 548.12,-189.25"/>
<text text-anchor="middle" x="492.5" y="-175.75" font-family="Helvetica,sans-Serif" font-size="10.00">v8::Persistent&lt; T, M &gt;</text>
</a>
</g>
</g>
<!-- Node31&#45;&gt;Node34 -->
<g id="edge58" class="edge">
<title>Node31&#45;&gt;Node34</title>
<path fill="none" stroke="#63b8ff" d="M289.34,-171.46C335.27,-173.32 394.39,-175.7 436.82,-177.42"/>
<polygon fill="#63b8ff" stroke="#63b8ff" points="289.7,-167.93 279.56,-171.03 289.41,-174.93 289.7,-167.93"/>
</g>
<!-- Node33&#45;&gt;Node32 -->
<g id="edge57" class="edge">
<title>Node33&#45;&gt;Node32</title>
<path fill="none" stroke="orange" stroke-dasharray="5,2" d="M544.31,-208.21C593.95,-200 669.54,-187.49 722.42,-178.73"/>
<polygon fill="orange" stroke="orange" points="543.81,-204.92 534.52,-210 544.96,-211.82 543.81,-204.92"/>
<text text-anchor="middle" x="635.88" y="-202.38" font-family="Helvetica,sans-Serif" font-size="10.00"> &lt; v8::Context &gt;</text>
</g>
<!-- Node36 -->
<g id="node36" class="node">
<title>Node36</title>
<g id="a_node36"><a xlink:href="classv8_1_1BasicTracedReference.html" target="_top" xlink:title=" ">
<polygon fill="white" stroke="#666666" points="568.75,-19.25 416.25,-19.25 416.25,0 568.75,0 568.75,-19.25"/>
<text text-anchor="middle" x="492.5" y="-5.75" font-family="Helvetica,sans-Serif" font-size="10.00">v8::BasicTracedReference&lt; T &gt;</text>
</a>
</g>
</g>
<!-- Node35&#45;&gt;Node36 -->
<g id="edge61" class="edge">
<title>Node35&#45;&gt;Node36</title>
<path fill="none" stroke="#63b8ff" d="M292.84,-9.62C331.05,-9.62 377.63,-9.62 416.08,-9.62"/>
<polygon fill="#63b8ff" stroke="#63b8ff" points="293.3,-6.13 283.3,-9.62 293.3,-13.13 293.3,-6.13"/>
</g>
<!-- Node37 -->
<g id="node37" class="node">
<title>Node37</title>
<g id="a_node37"><a xlink:href="classv8_1_1TracedReference.html" target="_top" xlink:title=" ">
<polygon fill="white" stroke="#666666" points="848.38,-19.25 720.62,-19.25 720.62,0 848.38,0 848.38,-19.25"/>
<text text-anchor="middle" x="784.5" y="-5.75" font-family="Helvetica,sans-Serif" font-size="10.00">v8::TracedReference&lt; T &gt;</text>
</a>
</g>
</g>
<!-- Node36&#45;&gt;Node37 -->
<g id="edge62" class="edge">
<title>Node36&#45;&gt;Node37</title>
<path fill="none" stroke="#63b8ff" d="M579.89,-9.62C624.94,-9.62 679.08,-9.62 720.21,-9.62"/>
<polygon fill="#63b8ff" stroke="#63b8ff" points="579.94,-6.13 569.94,-9.62 579.94,-13.13 579.94,-6.13"/>
</g>
</g>
</svg>
