<?xml version="1.0" encoding="UTF-8" standalone="no"?>
<!DOCTYPE svg PUBLIC "-//W3C//DTD SVG 1.1//EN"
 "http://www.w3.org/Graphics/SVG/1.1/DTD/svg11.dtd">
<!-- Generated by graphviz version 8.0.5 (20230430.1635)
 -->
<!-- Title: v8::LocalBase::LocalBase Pages: 1 -->
<svg width="413pt" height="27pt"
 viewBox="0.00 0.00 413.00 27.25" xmlns="http://www.w3.org/2000/svg" xmlns:xlink="http://www.w3.org/1999/xlink">
<g id="graph0" class="graph" transform="scale(1 1) rotate(0) translate(4 23.25)">
<title>v8::LocalBase::LocalBase</title>
<!-- Node1 -->
<g id="node1" class="node">
<title>Node1</title>
<g id="a_node1"><a xlink:title=" ">
<polygon fill="#999999" stroke="#666666" points="405,-19.25 276.5,-19.25 276.5,0 405,0 405,-19.25"/>
<text text-anchor="middle" x="340.75" y="-5.75" font-family="Helvetica,sans-Serif" font-size="10.00">v8::LocalBase::LocalBase</text>
</a>
</g>
</g>
<!-- Node2 -->
<g id="node2" class="node">
<title>Node2</title>
<g id="a_node2"><a xlink:href="classv8_1_1LocalBase.html#afa3765a9d9b97f9f2edc583639823e0b" target="_top" xlink:title=" ">
<polygon fill="white" stroke="#666666" points="240.5,-19.25 138.25,-19.25 138.25,0 240.5,0 240.5,-19.25"/>
<text text-anchor="middle" x="189.38" y="-5.75" font-family="Helvetica,sans-Serif" font-size="10.00">v8::LocalBase::New</text>
</a>
</g>
</g>
<!-- Node1&#45;&gt;Node2 -->
<g id="edge1" class="edge">
<title>Node1&#45;&gt;Node2</title>
<path fill="none" stroke="#63b8ff" d="M265.42,-9.62C257.05,-9.62 248.66,-9.62 240.69,-9.62"/>
<polygon fill="#63b8ff" stroke="#63b8ff" points="265.4,-13.13 275.4,-9.62 265.4,-6.13 265.4,-13.13"/>
</g>
<!-- Node3 -->
<g id="node3" class="node">
<title>Node3</title>
<g id="a_node3"><a xlink:href="classv8_1_1LocalBase.html#a31a9bd49b7938c5ee451b24a048a06fc" target="_top" xlink:title=" ">
<polygon fill="white" stroke="#666666" points="102.25,-19.25 0,-19.25 0,0 102.25,0 102.25,-19.25"/>
<text text-anchor="middle" x="51.12" y="-5.75" font-family="Helvetica,sans-Serif" font-size="10.00">v8::LocalBase::New</text>
</a>
</g>
</g>
<!-- Node2&#45;&gt;Node3 -->
<g id="edge2" class="edge">
<title>Node2&#45;&gt;Node3</title>
<path fill="none" stroke="#63b8ff" d="M127.06,-9.62C118.92,-9.62 110.65,-9.62 102.72,-9.62"/>
<polygon fill="#63b8ff" stroke="#63b8ff" points="127.03,-13.13 137.03,-9.62 127.03,-6.13 127.03,-13.13"/>
</g>
</g>
</svg>
