<?xml version="1.0" encoding="UTF-8" standalone="no"?>
<!DOCTYPE svg PUBLIC "-//W3C//DTD SVG 1.1//EN"
 "http://www.w3.org/Graphics/SVG/1.1/DTD/svg11.dtd">
<!-- Generated by graphviz version 8.0.5 (20230430.1635)
 -->
<!-- Title: v8_inspector::WebDriverValue Pages: 1 -->
<svg width="259pt" height="172pt"
 viewBox="0.00 0.00 259.12 171.50" xmlns="http://www.w3.org/2000/svg" xmlns:xlink="http://www.w3.org/1999/xlink">
<g id="graph0" class="graph" transform="scale(1 1) rotate(0) translate(4 167.5)">
<title>v8_inspector::WebDriverValue</title>
<!-- Node1 -->
<g id="node1" class="node">
<title>Node1</title>
<g id="a_node1"><a xlink:title=" ">
<polygon fill="#999999" stroke="#666666" points="155.5,-19.25 9.75,-19.25 9.75,0 155.5,0 155.5,-19.25"/>
<text text-anchor="middle" x="82.62" y="-5.75" font-family="Helvetica,sans-Serif" font-size="10.00">v8_inspector::WebDriverValue</text>
</a>
</g>
</g>
<!-- Node2 -->
<g id="node2" class="node">
<title>Node2</title>
<g id="a_node2"><a xlink:href="classv8__inspector_1_1StringView.html" target="_top" xlink:title=" ">
<polygon fill="white" stroke="#666666" points="123.25,-91.38 0,-91.38 0,-72.12 123.25,-72.12 123.25,-91.38"/>
<text text-anchor="middle" x="61.62" y="-77.88" font-family="Helvetica,sans-Serif" font-size="10.00">v8_inspector::StringView</text>
</a>
</g>
</g>
<!-- Node2&#45;&gt;Node1 -->
<g id="edge1" class="edge">
<title>Node2&#45;&gt;Node1</title>
<path fill="none" stroke="#9a32cd" stroke-dasharray="5,2" d="M67.36,-61.61C71.45,-47.95 76.76,-30.2 79.92,-19.66"/>
<polygon fill="#9a32cd" stroke="#9a32cd" points="63.8,-60.28 64.28,-70.87 70.51,-62.29 63.8,-60.28"/>
<text text-anchor="middle" x="84.75" y="-39" font-family="Helvetica,sans-Serif" font-size="10.00"> type</text>
</g>
<!-- Node3 -->
<g id="node3" class="node">
<title>Node3</title>
<g id="a_node3"><a xlink:href="classv8_1_1MaybeLocal.html" target="_top" xlink:title=" ">
<polygon fill="white" stroke="#666666" points="243.75,-97 141.5,-97 141.5,-66.5 243.75,-66.5 243.75,-97"/>
<text text-anchor="start" x="149.5" y="-83.5" font-family="Helvetica,sans-Serif" font-size="10.00">v8::MaybeLocal&lt; v8</text>
<text text-anchor="middle" x="192.62" y="-72.25" font-family="Helvetica,sans-Serif" font-size="10.00">::Value &gt;</text>
</a>
</g>
</g>
<!-- Node3&#45;&gt;Node1 -->
<g id="edge2" class="edge">
<title>Node3&#45;&gt;Node1</title>
<path fill="none" stroke="#9a32cd" stroke-dasharray="5,2" d="M160.34,-60.17C139.31,-46.76 112.91,-29.93 96.92,-19.74"/>
<polygon fill="#9a32cd" stroke="#9a32cd" points="158.25,-63.63 168.57,-66.05 162.01,-57.72 158.25,-63.63"/>
<text text-anchor="middle" x="153.38" y="-39" font-family="Helvetica,sans-Serif" font-size="10.00"> value</text>
</g>
<!-- Node4 -->
<g id="node4" class="node">
<title>Node4</title>
<g id="a_node4"><a xlink:href="classv8_1_1MaybeLocal.html" target="_top" xlink:title=" ">
<polygon fill="white" stroke="#666666" points="245.62,-163.5 139.62,-163.5 139.62,-144.25 245.62,-144.25 245.62,-163.5"/>
<text text-anchor="middle" x="192.62" y="-150" font-family="Helvetica,sans-Serif" font-size="10.00">v8::MaybeLocal&lt; T &gt;</text>
</a>
</g>
</g>
<!-- Node4&#45;&gt;Node3 -->
<g id="edge3" class="edge">
<title>Node4&#45;&gt;Node3</title>
<path fill="none" stroke="orange" stroke-dasharray="5,2" d="M192.62,-133.03C192.62,-121.7 192.62,-107.75 192.62,-97.42"/>
<polygon fill="orange" stroke="orange" points="189.13,-132.99 192.62,-142.99 196.13,-132.99 189.13,-132.99"/>
<text text-anchor="middle" x="221.88" y="-116.75" font-family="Helvetica,sans-Serif" font-size="10.00"> &lt; v8::Value &gt;</text>
</g>
</g>
</svg>
