<?xml version="1.0" encoding="UTF-8" standalone="no"?>
<!DOCTYPE svg PUBLIC "-//W3C//DTD SVG 1.1//EN"
 "http://www.w3.org/Graphics/SVG/1.1/DTD/svg11.dtd">
<!-- Generated by graphviz version 8.0.5 (20230430.1635)
 -->
<!-- Title: include/cppgc/heap&#45;consistency.h Pages: 1 -->
<svg width="1069pt" height="282pt"
 viewBox="0.00 0.00 1069.00 282.00" xmlns="http://www.w3.org/2000/svg" xmlns:xlink="http://www.w3.org/1999/xlink">
<g id="graph0" class="graph" transform="scale(1 1) rotate(0) translate(4 278)">
<title>include/cppgc/heap&#45;consistency.h</title>
<!-- Node1 -->
<g id="node1" class="node">
<title>Node1</title>
<g id="a_node1"><a xlink:title=" ">
<polygon fill="#999999" stroke="#666666" points="329.5,-274 229.5,-274 229.5,-243.5 329.5,-243.5 329.5,-274"/>
<text text-anchor="start" x="237.5" y="-260.5" font-family="Helvetica,sans-Serif" font-size="10.00">include/cppgc/heap</text>
<text text-anchor="middle" x="279.5" y="-249.25" font-family="Helvetica,sans-Serif" font-size="10.00">&#45;consistency.h</text>
</a>
</g>
</g>
<!-- Node2 -->
<g id="node2" class="node">
<title>Node2</title>
<g id="a_node2"><a xlink:title=" ">
<polygon fill="#e0e0e0" stroke="#999999" points="308.62,-19.25 260.38,-19.25 260.38,0 308.62,0 308.62,-19.25"/>
<text text-anchor="middle" x="284.5" y="-5.75" font-family="Helvetica,sans-Serif" font-size="10.00">cstddef</text>
</a>
</g>
</g>
<!-- Node1&#45;&gt;Node2 -->
<g id="edge1" class="edge">
<title>Node1&#45;&gt;Node2</title>
<path fill="none" stroke="#63b8ff" d="M257.4,-243.09C246.17,-234.27 233.63,-221.95 227.5,-207.5 222.21,-195.02 226.89,-190.54 227.5,-177 229.97,-122.22 222.66,-104.14 247.5,-55.25 252.6,-45.21 260.31,-35.42 267.38,-27.58"/>
<polygon fill="#63b8ff" stroke="#63b8ff" points="269.56,-30.32 273.9,-20.65 264.48,-25.5 269.56,-30.32"/>
</g>
<!-- Node3 -->
<g id="node3" class="node">
<title>Node3</title>
<g id="a_node3"><a xlink:href="write-barrier_8h.html" target="_top" xlink:title=" ">
<polygon fill="white" stroke="#666666" points="591.88,-207.5 491.12,-207.5 491.12,-177 591.88,-177 591.88,-207.5"/>
<text text-anchor="start" x="499.12" y="-194" font-family="Helvetica,sans-Serif" font-size="10.00">cppgc/internal/write</text>
<text text-anchor="middle" x="541.5" y="-182.75" font-family="Helvetica,sans-Serif" font-size="10.00">&#45;barrier.h</text>
</a>
</g>
</g>
<!-- Node1&#45;&gt;Node3 -->
<g id="edge2" class="edge">
<title>Node1&#45;&gt;Node3</title>
<path fill="none" stroke="#63b8ff" d="M329.71,-245.39C372.71,-234.8 434.79,-219.52 480.62,-208.24"/>
<polygon fill="#63b8ff" stroke="#63b8ff" points="481.14,-211.47 490.02,-205.68 479.47,-204.67 481.14,-211.47"/>
</g>
<!-- Node6 -->
<g id="node6" class="node">
<title>Node6</title>
<g id="a_node6"><a xlink:href="v8config_8h.html" target="_top" xlink:title=" ">
<polygon fill="white" stroke="#666666" points="649.25,-19.25 589.75,-19.25 589.75,0 649.25,0 649.25,-19.25"/>
<text text-anchor="middle" x="619.5" y="-5.75" font-family="Helvetica,sans-Serif" font-size="10.00">v8config.h</text>
</a>
</g>
</g>
<!-- Node1&#45;&gt;Node6 -->
<g id="edge40" class="edge">
<title>Node1&#45;&gt;Node6</title>
<path fill="none" stroke="#63b8ff" d="M329.87,-255.98C461.41,-250.19 809.8,-226.87 877.5,-141 939.56,-62.28 747.71,-27.03 660.39,-15.34"/>
<polygon fill="#63b8ff" stroke="#63b8ff" points="660.91,-11.75 650.54,-13.94 660.01,-18.69 660.91,-11.75"/>
</g>
<!-- Node19 -->
<g id="node19" class="node">
<title>Node19</title>
<g id="a_node19"><a xlink:href="trace-trait_8h.html" target="_top" xlink:title=" ">
<polygon fill="white" stroke="#666666" points="154.5,-135.38 60.5,-135.38 60.5,-116.12 154.5,-116.12 154.5,-135.38"/>
<text text-anchor="middle" x="107.5" y="-121.88" font-family="Helvetica,sans-Serif" font-size="10.00">cppgc/trace&#45;trait.h</text>
</a>
</g>
</g>
<!-- Node1&#45;&gt;Node19 -->
<g id="edge39" class="edge">
<title>Node1&#45;&gt;Node19</title>
<path fill="none" stroke="#63b8ff" d="M233.96,-243.06C212.68,-234.78 187.83,-222.96 168.5,-207.5 146.59,-189.98 128.28,-162.9 117.61,-145.01"/>
<polygon fill="#63b8ff" stroke="#63b8ff" points="120.25,-143.59 112.23,-136.67 114.19,-147.08 120.25,-143.59"/>
</g>
<!-- Node22 -->
<g id="node22" class="node">
<title>Node22</title>
<g id="a_node22"><a xlink:href="macros_8h.html" target="_top" xlink:title=" ">
<polygon fill="white" stroke="#666666" points="322,-201.88 237,-201.88 237,-182.62 322,-182.62 322,-201.88"/>
<text text-anchor="middle" x="279.5" y="-188.38" font-family="Helvetica,sans-Serif" font-size="10.00">cppgc/macros.h</text>
</a>
</g>
</g>
<!-- Node1&#45;&gt;Node22 -->
<g id="edge36" class="edge">
<title>Node1&#45;&gt;Node22</title>
<path fill="none" stroke="#63b8ff" d="M279.5,-243.11C279.5,-234.13 279.5,-222.51 279.5,-212.76"/>
<polygon fill="#63b8ff" stroke="#63b8ff" points="283,-213.07 279.5,-203.07 276,-213.07 283,-213.07"/>
</g>
<!-- Node3&#45;&gt;Node2 -->
<g id="edge3" class="edge">
<title>Node3&#45;&gt;Node2</title>
<path fill="none" stroke="#63b8ff" d="M506.84,-176.7C486.55,-167.58 460.82,-154.92 439.5,-141 385.31,-105.61 328.91,-53.7 301.5,-27.33"/>
<polygon fill="#63b8ff" stroke="#63b8ff" points="304.27,-25.18 294.65,-20.72 299.39,-30.2 304.27,-25.18"/>
</g>
<!-- Node4 -->
<g id="node4" class="node">
<title>Node4</title>
<g id="a_node4"><a xlink:title=" ">
<polygon fill="#e0e0e0" stroke="#999999" points="652.12,-74.5 606.88,-74.5 606.88,-55.25 652.12,-55.25 652.12,-74.5"/>
<text text-anchor="middle" x="629.5" y="-61" font-family="Helvetica,sans-Serif" font-size="10.00">cstdint</text>
</a>
</g>
</g>
<!-- Node3&#45;&gt;Node4 -->
<g id="edge4" class="edge">
<title>Node3&#45;&gt;Node4</title>
<path fill="none" stroke="#63b8ff" d="M592.31,-184.97C643.19,-177.52 716.34,-163.23 733.5,-141 741.78,-130.27 740.96,-121.82 733.5,-110.5 725.24,-97.97 689.82,-84.51 662.59,-75.69"/>
<polygon fill="#63b8ff" stroke="#63b8ff" points="663.85,-72.1 653.26,-72.43 661.74,-78.77 663.85,-72.1"/>
</g>
<!-- Node5 -->
<g id="node5" class="node">
<title>Node5</title>
<g id="a_node5"><a xlink:href="heap-state_8h.html" target="_top" xlink:title=" ">
<polygon fill="white" stroke="#666666" points="512.75,-74.5 414.25,-74.5 414.25,-55.25 512.75,-55.25 512.75,-74.5"/>
<text text-anchor="middle" x="463.5" y="-61" font-family="Helvetica,sans-Serif" font-size="10.00">cppgc/heap&#45;state.h</text>
</a>
</g>
</g>
<!-- Node3&#45;&gt;Node5 -->
<g id="edge5" class="edge">
<title>Node3&#45;&gt;Node5</title>
<path fill="none" stroke="#63b8ff" d="M493.41,-176.58C476.48,-168.84 459.25,-157.43 449.5,-141 439.27,-123.76 446,-100.69 453.23,-84.69"/>
<polygon fill="#63b8ff" stroke="#63b8ff" points="456.78,-86.4 458.11,-75.89 450.51,-83.28 456.78,-86.4"/>
</g>
<!-- Node3&#45;&gt;Node6 -->
<g id="edge35" class="edge">
<title>Node3&#45;&gt;Node6</title>
<path fill="none" stroke="#63b8ff" d="M547.07,-176.82C556.8,-151.84 577.74,-99 597.5,-55.25 601.41,-46.59 606.02,-37.13 610.01,-29.16"/>
<polygon fill="#63b8ff" stroke="#63b8ff" points="613.55,-30.93 614.94,-20.43 607.3,-27.77 613.55,-30.93"/>
</g>
<!-- Node7 -->
<g id="node7" class="node">
<title>Node7</title>
<g id="a_node7"><a xlink:href="api-constants_8h.html" target="_top" xlink:title=" ">
<polygon fill="white" stroke="#666666" points="550.75,-141 458.25,-141 458.25,-110.5 550.75,-110.5 550.75,-141"/>
<text text-anchor="start" x="466.25" y="-127.5" font-family="Helvetica,sans-Serif" font-size="10.00">cppgc/internal/api</text>
<text text-anchor="middle" x="504.5" y="-116.25" font-family="Helvetica,sans-Serif" font-size="10.00">&#45;constants.h</text>
</a>
</g>
</g>
<!-- Node3&#45;&gt;Node7 -->
<g id="edge7" class="edge">
<title>Node3&#45;&gt;Node7</title>
<path fill="none" stroke="#63b8ff" d="M533.1,-176.61C528.7,-168.94 523.21,-159.36 518.21,-150.65"/>
<polygon fill="#63b8ff" stroke="#63b8ff" points="520.87,-149.26 512.86,-142.33 514.8,-152.74 520.87,-149.26"/>
</g>
<!-- Node8 -->
<g id="node8" class="node">
<title>Node8</title>
<g id="a_node8"><a xlink:href="atomic-entry-flag_8h.html" target="_top" xlink:title=" ">
<polygon fill="white" stroke="#666666" points="1061,-141 952,-141 952,-110.5 1061,-110.5 1061,-141"/>
<text text-anchor="start" x="960" y="-127.5" font-family="Helvetica,sans-Serif" font-size="10.00">cppgc/internal/atomic</text>
<text text-anchor="middle" x="1006.5" y="-116.25" font-family="Helvetica,sans-Serif" font-size="10.00">&#45;entry&#45;flag.h</text>
</a>
</g>
</g>
<!-- Node3&#45;&gt;Node8 -->
<g id="edge11" class="edge">
<title>Node3&#45;&gt;Node8</title>
<path fill="none" stroke="#63b8ff" d="M592.15,-184.22C676.83,-172.48 847.08,-148.86 940.84,-135.86"/>
<polygon fill="#63b8ff" stroke="#63b8ff" points="941.18,-139.2 950.61,-134.36 940.22,-132.27 941.18,-139.2"/>
</g>
<!-- Node10 -->
<g id="node10" class="node">
<title>Node10</title>
<g id="a_node10"><a xlink:href="platform_8h.html" target="_top" xlink:title=" ">
<polygon fill="white" stroke="#666666" points="868.5,-135.38 780.5,-135.38 780.5,-116.12 868.5,-116.12 868.5,-135.38"/>
<text text-anchor="middle" x="824.5" y="-121.88" font-family="Helvetica,sans-Serif" font-size="10.00">cppgc/platform.h</text>
</a>
</g>
</g>
<!-- Node3&#45;&gt;Node10 -->
<g id="edge13" class="edge">
<title>Node3&#45;&gt;Node10</title>
<path fill="none" stroke="#63b8ff" d="M592.06,-180.28C637.71,-170.3 706.68,-155.03 766.5,-141 770.09,-140.16 773.81,-139.27 777.54,-138.38"/>
<polygon fill="#63b8ff" stroke="#63b8ff" points="778.12,-141.59 787.02,-135.84 776.48,-134.79 778.12,-141.59"/>
</g>
<!-- Node18 -->
<g id="node18" class="node">
<title>Node18</title>
<g id="a_node18"><a xlink:href="sentinel-pointer_8h.html" target="_top" xlink:title=" ">
<polygon fill="white" stroke="#666666" points="724.88,-135.38 606.12,-135.38 606.12,-116.12 724.88,-116.12 724.88,-135.38"/>
<text text-anchor="middle" x="665.5" y="-121.88" font-family="Helvetica,sans-Serif" font-size="10.00">cppgc/sentinel&#45;pointer.h</text>
</a>
</g>
</g>
<!-- Node3&#45;&gt;Node18 -->
<g id="edge27" class="edge">
<title>Node3&#45;&gt;Node18</title>
<path fill="none" stroke="#63b8ff" d="M569.64,-176.61C590.3,-165.87 618.2,-151.36 638.57,-140.76"/>
<polygon fill="#63b8ff" stroke="#63b8ff" points="639.92,-143.48 647.18,-135.76 636.69,-137.27 639.92,-143.48"/>
</g>
<!-- Node3&#45;&gt;Node19 -->
<g id="edge29" class="edge">
<title>Node3&#45;&gt;Node19</title>
<path fill="none" stroke="#63b8ff" d="M490.87,-183.72C409.79,-171.67 251.27,-148.12 165.66,-135.39"/>
<polygon fill="#63b8ff" stroke="#63b8ff" points="166.24,-131.79 155.84,-133.79 165.21,-138.72 166.24,-131.79"/>
</g>
<!-- Node5&#45;&gt;Node6 -->
<g id="edge6" class="edge">
<title>Node5&#45;&gt;Node6</title>
<path fill="none" stroke="#63b8ff" d="M489.96,-54.84C515.4,-46.16 554.07,-32.96 582.54,-23.24"/>
<polygon fill="#63b8ff" stroke="#63b8ff" points="583.57,-26.25 591.91,-19.7 581.31,-19.62 583.57,-26.25"/>
</g>
<!-- Node7&#45;&gt;Node2 -->
<g id="edge8" class="edge">
<title>Node7&#45;&gt;Node2</title>
<path fill="none" stroke="#63b8ff" d="M475.41,-110.14C455.65,-100.18 428.95,-86.64 405.5,-74.5 372.83,-57.59 335.4,-37.76 310.93,-24.73"/>
<polygon fill="#63b8ff" stroke="#63b8ff" points="312.76,-21.21 302.29,-19.6 309.47,-27.39 312.76,-21.21"/>
</g>
<!-- Node7&#45;&gt;Node4 -->
<g id="edge9" class="edge">
<title>Node7&#45;&gt;Node4</title>
<path fill="none" stroke="#63b8ff" d="M535.72,-110.05C555.58,-100.69 581.12,-88.66 600.53,-79.52"/>
<polygon fill="#63b8ff" stroke="#63b8ff" points="601.77,-82.33 609.33,-74.9 598.79,-76 601.77,-82.33"/>
</g>
<!-- Node7&#45;&gt;Node6 -->
<g id="edge10" class="edge">
<title>Node7&#45;&gt;Node6</title>
<path fill="none" stroke="#63b8ff" d="M515.76,-110.25C527.33,-95.72 546.19,-73.01 564.5,-55.25 575.15,-44.92 587.98,-34.42 598.57,-26.19"/>
<polygon fill="#63b8ff" stroke="#63b8ff" points="600.36,-28.47 606.18,-19.62 596.11,-22.9 600.36,-28.47"/>
</g>
<!-- Node9 -->
<g id="node9" class="node">
<title>Node9</title>
<g id="a_node9"><a xlink:title=" ">
<polygon fill="#e0e0e0" stroke="#999999" points="1056.12,-74.5 1010.88,-74.5 1010.88,-55.25 1056.12,-55.25 1056.12,-74.5"/>
<text text-anchor="middle" x="1033.5" y="-61" font-family="Helvetica,sans-Serif" font-size="10.00">atomic</text>
</a>
</g>
</g>
<!-- Node8&#45;&gt;Node9 -->
<g id="edge12" class="edge">
<title>Node8&#45;&gt;Node9</title>
<path fill="none" stroke="#63b8ff" d="M1013.17,-110.2C1016.69,-102.53 1021.05,-93.02 1024.83,-84.79"/>
<polygon fill="#63b8ff" stroke="#63b8ff" points="1028.35,-86.5 1029.34,-75.95 1021.99,-83.58 1028.35,-86.5"/>
</g>
<!-- Node10&#45;&gt;Node6 -->
<g id="edge26" class="edge">
<title>Node10&#45;&gt;Node6</title>
<path fill="none" stroke="#63b8ff" d="M823.66,-116.05C821.76,-101.29 815.75,-71.35 797.5,-55.25 777.36,-37.48 706.54,-23.76 660.53,-16.46"/>
<polygon fill="#63b8ff" stroke="#63b8ff" points="661.12,-12.86 650.7,-14.79 660.05,-19.78 661.12,-12.86"/>
</g>
<!-- Node11 -->
<g id="node11" class="node">
<title>Node11</title>
<g id="a_node11"><a xlink:title=" ">
<polygon fill="#e0e0e0" stroke="#999999" points="1016.75,-19.25 966.25,-19.25 966.25,0 1016.75,0 1016.75,-19.25"/>
<text text-anchor="middle" x="991.5" y="-5.75" font-family="Helvetica,sans-Serif" font-size="10.00">memory</text>
</a>
</g>
</g>
<!-- Node10&#45;&gt;Node11 -->
<g id="edge14" class="edge">
<title>Node10&#45;&gt;Node11</title>
<path fill="none" stroke="#63b8ff" d="M868.74,-118.13C898.72,-111.59 937.46,-98.87 963.5,-74.5 976.21,-62.61 983.47,-43.93 987.4,-29.84"/>
<polygon fill="#63b8ff" stroke="#63b8ff" points="990.99,-30.87 989.96,-20.33 984.19,-29.22 990.99,-30.87"/>
</g>
<!-- Node12 -->
<g id="node12" class="node">
<title>Node12</title>
<g id="a_node12"><a xlink:href="source-location_8h.html" target="_top" xlink:title=" ">
<polygon fill="white" stroke="#666666" points="788.88,-74.5 670.12,-74.5 670.12,-55.25 788.88,-55.25 788.88,-74.5"/>
<text text-anchor="middle" x="729.5" y="-61" font-family="Helvetica,sans-Serif" font-size="10.00">cppgc/source&#45;location.h</text>
</a>
</g>
</g>
<!-- Node10&#45;&gt;Node12 -->
<g id="edge15" class="edge">
<title>Node10&#45;&gt;Node12</title>
<path fill="none" stroke="#63b8ff" d="M810.07,-115.81C795.01,-106.47 771.13,-91.67 753.27,-80.61"/>
<polygon fill="#63b8ff" stroke="#63b8ff" points="755.41,-77.19 745.06,-74.9 751.72,-83.14 755.41,-77.19"/>
</g>
<!-- Node14 -->
<g id="node14" class="node">
<title>Node14</title>
<g id="a_node14"><a xlink:href="v8-platform_8h.html" target="_top" xlink:title=" ">
<polygon fill="white" stroke="#666666" points="954.62,-74.5 882.38,-74.5 882.38,-55.25 954.62,-55.25 954.62,-74.5"/>
<text text-anchor="middle" x="918.5" y="-61" font-family="Helvetica,sans-Serif" font-size="10.00">v8&#45;platform.h</text>
</a>
</g>
</g>
<!-- Node10&#45;&gt;Node14 -->
<g id="edge19" class="edge">
<title>Node10&#45;&gt;Node14</title>
<path fill="none" stroke="#63b8ff" d="M838.78,-115.81C853.68,-106.47 877.31,-91.67 894.98,-80.61"/>
<polygon fill="#63b8ff" stroke="#63b8ff" points="896.47,-83.18 903.09,-74.9 892.76,-77.24 896.47,-83.18"/>
</g>
<!-- Node12&#45;&gt;Node2 -->
<g id="edge16" class="edge">
<title>Node12&#45;&gt;Node2</title>
<path fill="none" stroke="#63b8ff" d="M669.8,-56.27C666.99,-55.93 664.22,-55.58 661.5,-55.25 535.65,-39.82 386.06,-22.38 319.47,-14.67"/>
<polygon fill="#63b8ff" stroke="#63b8ff" points="320.1,-11.1 309.77,-13.43 319.3,-18.05 320.1,-11.1"/>
</g>
<!-- Node12&#45;&gt;Node6 -->
<g id="edge18" class="edge">
<title>Node12&#45;&gt;Node6</title>
<path fill="none" stroke="#63b8ff" d="M710.84,-54.84C693.61,-46.5 667.78,-34 647.98,-24.41"/>
<polygon fill="#63b8ff" stroke="#63b8ff" points="649.78,-20.91 639.25,-19.7 646.73,-27.21 649.78,-20.91"/>
</g>
<!-- Node13 -->
<g id="node13" class="node">
<title>Node13</title>
<g id="a_node13"><a xlink:title=" ">
<polygon fill="#e0e0e0" stroke="#999999" points="749.5,-19.25 709.5,-19.25 709.5,0 749.5,0 749.5,-19.25"/>
<text text-anchor="middle" x="729.5" y="-5.75" font-family="Helvetica,sans-Serif" font-size="10.00">string</text>
</a>
</g>
</g>
<!-- Node12&#45;&gt;Node13 -->
<g id="edge17" class="edge">
<title>Node12&#45;&gt;Node13</title>
<path fill="none" stroke="#63b8ff" d="M729.5,-55.08C729.5,-48.42 729.5,-38.99 729.5,-30.53"/>
<polygon fill="#63b8ff" stroke="#63b8ff" points="733,-30.61 729.5,-20.61 726,-30.61 733,-30.61"/>
</g>
<!-- Node14&#45;&gt;Node6 -->
<g id="edge25" class="edge">
<title>Node14&#45;&gt;Node6</title>
<path fill="none" stroke="#63b8ff" d="M882.14,-57.4C825.99,-47.4 718.58,-28.27 660.02,-17.84"/>
<polygon fill="#63b8ff" stroke="#63b8ff" points="660.79,-14.25 650.33,-15.94 659.56,-21.14 660.79,-14.25"/>
</g>
<!-- Node14&#45;&gt;Node11 -->
<g id="edge23" class="edge">
<title>Node14&#45;&gt;Node11</title>
<path fill="none" stroke="#63b8ff" d="M930.88,-54.84C941.75,-46.91 957.78,-35.22 970.63,-25.85"/>
<polygon fill="#63b8ff" stroke="#63b8ff" points="972.28,-28.25 978.3,-19.52 968.16,-22.59 972.28,-28.25"/>
</g>
<!-- Node14&#45;&gt;Node13 -->
<g id="edge24" class="edge">
<title>Node14&#45;&gt;Node13</title>
<path fill="none" stroke="#63b8ff" d="M885.36,-54.81C855.12,-46.5 808.93,-33.71 760.2,-19.71"/>
<polygon fill="#63b8ff" stroke="#63b8ff" points="761.35,-16.11 750.77,-16.7 759.41,-22.83 761.35,-16.11"/>
</g>
<!-- Node15 -->
<g id="node15" class="node">
<title>Node15</title>
<g id="a_node15"><a xlink:title=" ">
<polygon fill="#e0e0e0" stroke="#999999" points="817.75,-19.25 767.25,-19.25 767.25,0 817.75,0 817.75,-19.25"/>
<text text-anchor="middle" x="792.5" y="-5.75" font-family="Helvetica,sans-Serif" font-size="10.00">stddef.h</text>
</a>
</g>
</g>
<!-- Node14&#45;&gt;Node15 -->
<g id="edge20" class="edge">
<title>Node14&#45;&gt;Node15</title>
<path fill="none" stroke="#63b8ff" d="M897.13,-54.84C877.03,-46.35 846.72,-33.54 823.88,-23.89"/>
<polygon fill="#63b8ff" stroke="#63b8ff" points="825.55,-20.37 814.98,-19.7 822.83,-26.82 825.55,-20.37"/>
</g>
<!-- Node16 -->
<g id="node16" class="node">
<title>Node16</title>
<g id="a_node16"><a xlink:title=" ">
<polygon fill="#e0e0e0" stroke="#999999" points="883.25,-19.25 835.75,-19.25 835.75,0 883.25,0 883.25,-19.25"/>
<text text-anchor="middle" x="859.5" y="-5.75" font-family="Helvetica,sans-Serif" font-size="10.00">stdint.h</text>
</a>
</g>
</g>
<!-- Node14&#45;&gt;Node16 -->
<g id="edge21" class="edge">
<title>Node14&#45;&gt;Node16</title>
<path fill="none" stroke="#63b8ff" d="M908.49,-54.84C899.96,-47.15 887.5,-35.9 877.28,-26.68"/>
<polygon fill="#63b8ff" stroke="#63b8ff" points="880.13,-24.63 870.36,-20.52 875.44,-29.82 880.13,-24.63"/>
</g>
<!-- Node17 -->
<g id="node17" class="node">
<title>Node17</title>
<g id="a_node17"><a xlink:title=" ">
<polygon fill="#e0e0e0" stroke="#999999" points="947.88,-19.25 901.12,-19.25 901.12,0 947.88,0 947.88,-19.25"/>
<text text-anchor="middle" x="924.5" y="-5.75" font-family="Helvetica,sans-Serif" font-size="10.00">stdlib.h</text>
</a>
</g>
</g>
<!-- Node14&#45;&gt;Node17 -->
<g id="edge22" class="edge">
<title>Node14&#45;&gt;Node17</title>
<path fill="none" stroke="#63b8ff" d="M919.49,-55.08C920.24,-48.42 921.3,-38.99 922.26,-30.53"/>
<polygon fill="#63b8ff" stroke="#63b8ff" points="925.85,-30.94 923.49,-20.61 918.89,-30.15 925.85,-30.94"/>
</g>
<!-- Node18&#45;&gt;Node4 -->
<g id="edge28" class="edge">
<title>Node18&#45;&gt;Node4</title>
<path fill="none" stroke="#63b8ff" d="M660.03,-115.81C654.9,-107.42 647.08,-94.63 640.64,-84.09"/>
<polygon fill="#63b8ff" stroke="#63b8ff" points="643.22,-82.61 635.02,-75.9 637.25,-86.26 643.22,-82.61"/>
</g>
<!-- Node19&#45;&gt;Node6 -->
<g id="edge34" class="edge">
<title>Node19&#45;&gt;Node6</title>
<path fill="none" stroke="#63b8ff" d="M145.07,-115.69C201.52,-102.14 311.61,-75.99 405.5,-55.25 465.67,-41.96 535.6,-27.58 578.71,-18.83"/>
<polygon fill="#63b8ff" stroke="#63b8ff" points="579.22,-22.1 588.33,-16.68 577.83,-15.24 579.22,-22.1"/>
</g>
<!-- Node20 -->
<g id="node20" class="node">
<title>Node20</title>
<g id="a_node20"><a xlink:title=" ">
<polygon fill="#e0e0e0" stroke="#999999" points="61,-19.25 0,-19.25 0,0 61,0 61,-19.25"/>
<text text-anchor="middle" x="30.5" y="-5.75" font-family="Helvetica,sans-Serif" font-size="10.00">type_traits</text>
</a>
</g>
</g>
<!-- Node19&#45;&gt;Node20 -->
<g id="edge30" class="edge">
<title>Node19&#45;&gt;Node20</title>
<path fill="none" stroke="#63b8ff" d="M70.8,-115.75C49.48,-108.44 24.36,-95.74 11.5,-74.5 2.91,-60.3 9.91,-41.96 17.73,-28.58"/>
<polygon fill="#63b8ff" stroke="#63b8ff" points="21.13,-30.76 23.62,-20.46 15.25,-26.96 21.13,-30.76"/>
</g>
<!-- Node21 -->
<g id="node21" class="node">
<title>Node21</title>
<g id="a_node21"><a xlink:href="type-traits_8h.html" target="_top" xlink:title=" ">
<polygon fill="white" stroke="#666666" points="116.25,-74.5 20.75,-74.5 20.75,-55.25 116.25,-55.25 116.25,-74.5"/>
<text text-anchor="middle" x="68.5" y="-61" font-family="Helvetica,sans-Serif" font-size="10.00">cppgc/type&#45;traits.h</text>
</a>
</g>
</g>
<!-- Node19&#45;&gt;Node21 -->
<g id="edge31" class="edge">
<title>Node19&#45;&gt;Node21</title>
<path fill="none" stroke="#63b8ff" d="M101.58,-115.81C95.96,-107.34 87.37,-94.37 80.35,-83.77"/>
<polygon fill="#63b8ff" stroke="#63b8ff" points="82.92,-82.3 74.48,-75.9 77.08,-86.17 82.92,-82.3"/>
</g>
<!-- Node21&#45;&gt;Node2 -->
<g id="edge32" class="edge">
<title>Node21&#45;&gt;Node2</title>
<path fill="none" stroke="#63b8ff" d="M105.14,-54.84C145.52,-44.89 209.98,-29 249.63,-19.22"/>
<polygon fill="#63b8ff" stroke="#63b8ff" points="250.25,-22.43 259.12,-16.64 248.57,-15.63 250.25,-22.43"/>
</g>
<!-- Node21&#45;&gt;Node20 -->
<g id="edge33" class="edge">
<title>Node21&#45;&gt;Node20</title>
<path fill="none" stroke="#63b8ff" d="M62.23,-55.08C57.09,-47.88 49.65,-37.46 43.26,-28.51"/>
<polygon fill="#63b8ff" stroke="#63b8ff" points="45.57,-26.72 36.91,-20.61 39.87,-30.78 45.57,-26.72"/>
</g>
<!-- Node22&#45;&gt;Node2 -->
<g id="edge37" class="edge">
<title>Node22&#45;&gt;Node2</title>
<path fill="none" stroke="#63b8ff" d="M269.33,-182.46C259.54,-173.26 245.38,-157.84 239.5,-141 235.03,-128.2 236.65,-123.75 239.5,-110.5 245.97,-80.38 262.27,-48.38 273.37,-28.95"/>
<polygon fill="#63b8ff" stroke="#63b8ff" points="276.86,-30.93 278.91,-20.54 270.82,-27.38 276.86,-30.93"/>
</g>
<!-- Node23 -->
<g id="node23" class="node">
<title>Node23</title>
<g id="a_node23"><a xlink:href="compiler-specific_8h.html" target="_top" xlink:title=" ">
<polygon fill="white" stroke="#666666" points="364.75,-141 248.25,-141 248.25,-110.5 364.75,-110.5 364.75,-141"/>
<text text-anchor="start" x="256.25" y="-127.5" font-family="Helvetica,sans-Serif" font-size="10.00">cppgc/internal/compiler</text>
<text text-anchor="middle" x="306.5" y="-116.25" font-family="Helvetica,sans-Serif" font-size="10.00">&#45;specific.h</text>
</a>
</g>
</g>
<!-- Node22&#45;&gt;Node23 -->
<g id="edge38" class="edge">
<title>Node22&#45;&gt;Node23</title>
<path fill="none" stroke="#63b8ff" d="M283.25,-182.28C286.64,-174.2 291.77,-161.95 296.35,-151.01"/>
<polygon fill="#63b8ff" stroke="#63b8ff" points="299.86,-152.67 300.5,-142.09 293.41,-149.97 299.86,-152.67"/>
</g>
</g>
</svg>
