<?xml version="1.0" encoding="UTF-8" standalone="no"?>
<!DOCTYPE svg PUBLIC "-//W3C//DTD SVG 1.1//EN"
 "http://www.w3.org/Graphics/SVG/1.1/DTD/svg11.dtd">
<!-- Generated by graphviz version 8.0.5 (20230430.1635)
 -->
<!-- Title: include/v8&#45;proxy.h Pages: 1 -->
<svg width="1210pt" height="414pt"
 viewBox="0.00 0.00 1209.95 414.00" xmlns="http://www.w3.org/2000/svg" xmlns:xlink="http://www.w3.org/1999/xlink">
<g id="graph0" class="graph" transform="scale(1 1) rotate(0) translate(4 410)">
<title>include/v8&#45;proxy.h</title>
<!-- Node1 -->
<g id="node1" class="node">
<title>Node1</title>
<g id="a_node1"><a xlink:title=" ">
<polygon fill="#999999" stroke="#666666" points="408.57,-406 315.32,-406 315.32,-386.75 408.57,-386.75 408.57,-406"/>
<text text-anchor="middle" x="361.95" y="-392.5" font-family="Helvetica,sans-Serif" font-size="10.00">include/v8&#45;proxy.h</text>
</a>
</g>
</g>
<!-- Node2 -->
<g id="node2" class="node">
<title>Node2</title>
<g id="a_node2"><a xlink:href="v8-context_8h.html" target="_top" xlink:title=" ">
<polygon fill="white" stroke="#666666" points="173.2,-240.25 104.7,-240.25 104.7,-221 173.2,-221 173.2,-240.25"/>
<text text-anchor="middle" x="138.95" y="-226.75" font-family="Helvetica,sans-Serif" font-size="10.00">v8&#45;context.h</text>
</a>
</g>
</g>
<!-- Node1&#45;&gt;Node2 -->
<g id="edge1" class="edge">
<title>Node1&#45;&gt;Node2</title>
<path fill="none" stroke="#63b8ff" d="M315.13,-386.68C288.37,-380.04 255.21,-368.87 229.95,-350.75 192.03,-323.55 162.59,-276.02 148.35,-249.97"/>
<polygon fill="#63b8ff" stroke="#63b8ff" points="151.12,-248.74 143.35,-241.54 144.94,-252.02 151.12,-248.74"/>
</g>
<!-- Node5 -->
<g id="node5" class="node">
<title>Node5</title>
<g id="a_node5"><a xlink:href="v8-local-handle_8h.html" target="_top" xlink:title=" ">
<polygon fill="white" stroke="#666666" points="218.32,-129.75 129.57,-129.75 129.57,-110.5 218.32,-110.5 218.32,-129.75"/>
<text text-anchor="middle" x="173.95" y="-116.25" font-family="Helvetica,sans-Serif" font-size="10.00">v8&#45;local&#45;handle.h</text>
</a>
</g>
</g>
<!-- Node1&#45;&gt;Node5 -->
<g id="edge21" class="edge">
<title>Node1&#45;&gt;Node5</title>
<path fill="none" stroke="#63b8ff" d="M338.63,-386.36C304.24,-371.36 243.95,-337.8 243.95,-286.88 243.95,-286.88 243.95,-286.88 243.95,-229.62 243.95,-191.8 213.53,-156.69 192.8,-137.16"/>
<polygon fill="#63b8ff" stroke="#63b8ff" points="195.65,-135.12 185.88,-131.01 190.96,-140.31 195.65,-135.12"/>
</g>
<!-- Node11 -->
<g id="node11" class="node">
<title>Node11</title>
<g id="a_node11"><a xlink:href="v8config_8h.html" target="_top" xlink:title=" ">
<polygon fill="white" stroke="#666666" points="965.7,-19.25 906.2,-19.25 906.2,0 965.7,0 965.7,-19.25"/>
<text text-anchor="middle" x="935.95" y="-5.75" font-family="Helvetica,sans-Serif" font-size="10.00">v8config.h</text>
</a>
</g>
</g>
<!-- Node1&#45;&gt;Node11 -->
<g id="edge58" class="edge">
<title>Node1&#45;&gt;Node11</title>
<path fill="none" stroke="#63b8ff" d="M408.91,-394.29C585.81,-389.6 1201.95,-367.47 1201.95,-286.88 1201.95,-286.88 1201.95,-286.88 1201.95,-119.12 1201.95,-83.35 1183.27,-74.24 1152.95,-55.25 1098.59,-21.2 1022.98,-12.58 976.86,-10.7"/>
<polygon fill="#63b8ff" stroke="#63b8ff" points="977.19,-7.18 967.09,-10.36 976.97,-14.17 977.19,-7.18"/>
</g>
<!-- Node13 -->
<g id="node13" class="node">
<title>Node13</title>
<g id="a_node13"><a xlink:href="v8-object_8h.html" target="_top" xlink:title=" ">
<polygon fill="white" stroke="#666666" points="692.57,-350.75 629.32,-350.75 629.32,-331.5 692.57,-331.5 692.57,-350.75"/>
<text text-anchor="middle" x="660.95" y="-337.25" font-family="Helvetica,sans-Serif" font-size="10.00">v8&#45;object.h</text>
</a>
</g>
</g>
<!-- Node1&#45;&gt;Node13 -->
<g id="edge22" class="edge">
<title>Node1&#45;&gt;Node13</title>
<path fill="none" stroke="#63b8ff" d="M408.99,-387C466.5,-376.75 562.98,-359.57 618.38,-349.71"/>
<polygon fill="#63b8ff" stroke="#63b8ff" points="618.65,-353.03 627.88,-347.84 617.42,-346.14 618.65,-353.03"/>
</g>
<!-- Node3 -->
<g id="node3" class="node">
<title>Node3</title>
<g id="a_node3"><a xlink:title=" ">
<polygon fill="#e0e0e0" stroke="#999999" points="204.7,-19.25 157.2,-19.25 157.2,0 204.7,0 204.7,-19.25"/>
<text text-anchor="middle" x="180.95" y="-5.75" font-family="Helvetica,sans-Serif" font-size="10.00">stdint.h</text>
</a>
</g>
</g>
<!-- Node2&#45;&gt;Node3 -->
<g id="edge2" class="edge">
<title>Node2&#45;&gt;Node3</title>
<path fill="none" stroke="#63b8ff" d="M104.44,-228C74.49,-224.55 32.75,-214.37 11.95,-185 -7.2,-157.98 0.52,-141.58 11.95,-110.5 32.4,-54.89 103.02,-28.75 146.24,-17.7"/>
<polygon fill="#63b8ff" stroke="#63b8ff" points="146.94,-20.89 155.85,-15.14 145.31,-14.08 146.94,-20.89"/>
</g>
<!-- Node4 -->
<g id="node4" class="node">
<title>Node4</title>
<g id="a_node4"><a xlink:href="v8-data_8h.html" target="_top" xlink:title=" ">
<polygon fill="white" stroke="#666666" points="831.82,-185 776.07,-185 776.07,-165.75 831.82,-165.75 831.82,-185"/>
<text text-anchor="middle" x="803.95" y="-171.5" font-family="Helvetica,sans-Serif" font-size="10.00">v8&#45;data.h</text>
</a>
</g>
</g>
<!-- Node2&#45;&gt;Node4 -->
<g id="edge3" class="edge">
<title>Node2&#45;&gt;Node4</title>
<path fill="none" stroke="#63b8ff" d="M173.3,-226.87C286.28,-217.83 645.9,-189.03 765.13,-179.48"/>
<polygon fill="#63b8ff" stroke="#63b8ff" points="765.21,-182.91 774.9,-178.62 764.65,-175.93 765.21,-182.91"/>
</g>
<!-- Node2&#45;&gt;Node5 -->
<g id="edge15" class="edge">
<title>Node2&#45;&gt;Node5</title>
<path fill="none" stroke="#63b8ff" d="M141.81,-220.75C147.45,-203.26 160.11,-164.02 167.75,-140.34"/>
<polygon fill="#63b8ff" stroke="#63b8ff" points="171.3,-141.72 171.04,-131.13 164.64,-139.57 171.3,-141.72"/>
</g>
<!-- Node2&#45;&gt;Node11 -->
<g id="edge20" class="edge">
<title>Node2&#45;&gt;Node11</title>
<path fill="none" stroke="#63b8ff" d="M105.48,-220.53C87.73,-213.82 67.46,-202.69 56.95,-185 21.97,-126.15 78.48,-85.38 139.95,-55.25 208,-21.89 742.24,-12.95 895.17,-11.06"/>
<polygon fill="#63b8ff" stroke="#63b8ff" points="894.97,-14.55 904.93,-10.93 894.88,-7.55 894.97,-14.55"/>
</g>
<!-- Node12 -->
<g id="node12" class="node">
<title>Node12</title>
<g id="a_node12"><a xlink:href="v8-snapshot_8h.html" target="_top" xlink:title=" ">
<polygon fill="white" stroke="#666666" points="142.32,-185 65.57,-185 65.57,-165.75 142.32,-165.75 142.32,-185"/>
<text text-anchor="middle" x="103.95" y="-171.5" font-family="Helvetica,sans-Serif" font-size="10.00">v8&#45;snapshot.h</text>
</a>
</g>
</g>
<!-- Node2&#45;&gt;Node12 -->
<g id="edge16" class="edge">
<title>Node2&#45;&gt;Node12</title>
<path fill="none" stroke="#63b8ff" d="M133.17,-220.83C128.48,-213.71 121.73,-203.43 115.89,-194.55"/>
<polygon fill="#63b8ff" stroke="#63b8ff" points="118.27,-192.79 109.85,-186.36 112.42,-196.64 118.27,-192.79"/>
</g>
<!-- Node4&#45;&gt;Node5 -->
<g id="edge4" class="edge">
<title>Node4&#45;&gt;Node5</title>
<path fill="none" stroke="#63b8ff" d="M775.65,-171.98C678.76,-163.79 359.1,-136.77 229.38,-125.81"/>
<polygon fill="#63b8ff" stroke="#63b8ff" points="229.79,-122.25 219.53,-124.89 229.2,-129.22 229.79,-122.25"/>
</g>
<!-- Node4&#45;&gt;Node11 -->
<g id="edge14" class="edge">
<title>Node4&#45;&gt;Node11</title>
<path fill="none" stroke="#63b8ff" d="M832.26,-170.25C857.04,-165.12 892.09,-153.87 911.95,-129.75 935.34,-101.34 938,-56.33 937.31,-30.54"/>
<polygon fill="#63b8ff" stroke="#63b8ff" points="940.76,-30.4 936.79,-20.58 933.77,-30.73 940.76,-30.4"/>
</g>
<!-- Node6 -->
<g id="node6" class="node">
<title>Node6</title>
<g id="a_node6"><a xlink:title=" ">
<polygon fill="#e0e0e0" stroke="#999999" points="273.2,-19.25 222.7,-19.25 222.7,0 273.2,0 273.2,-19.25"/>
<text text-anchor="middle" x="247.95" y="-5.75" font-family="Helvetica,sans-Serif" font-size="10.00">stddef.h</text>
</a>
</g>
</g>
<!-- Node5&#45;&gt;Node6 -->
<g id="edge5" class="edge">
<title>Node5&#45;&gt;Node6</title>
<path fill="none" stroke="#63b8ff" d="M131.14,-110.07C93.61,-100.14 48.05,-81.97 68.95,-55.25 107.86,-5.5 145.66,-32.45 211.9,-19.47"/>
<polygon fill="#63b8ff" stroke="#63b8ff" points="212.33,-22.73 221.33,-17.14 210.81,-15.9 212.33,-22.73"/>
</g>
<!-- Node7 -->
<g id="node7" class="node">
<title>Node7</title>
<g id="a_node7"><a xlink:title=" ">
<polygon fill="#e0e0e0" stroke="#999999" points="352.45,-19.25 291.45,-19.25 291.45,0 352.45,0 352.45,-19.25"/>
<text text-anchor="middle" x="321.95" y="-5.75" font-family="Helvetica,sans-Serif" font-size="10.00">type_traits</text>
</a>
</g>
</g>
<!-- Node5&#45;&gt;Node7 -->
<g id="edge6" class="edge">
<title>Node5&#45;&gt;Node7</title>
<path fill="none" stroke="#63b8ff" d="M186.31,-110.06C211.62,-91.51 269.58,-49.01 300.92,-26.04"/>
<polygon fill="#63b8ff" stroke="#63b8ff" points="302.73,-28.32 308.72,-19.59 298.59,-22.68 302.73,-28.32"/>
</g>
<!-- Node8 -->
<g id="node8" class="node">
<title>Node8</title>
<g id="a_node8"><a xlink:href="v8-internal_8h.html" target="_top" xlink:title=" ">
<polygon fill="white" stroke="#666666" points="418.2,-74.5 349.7,-74.5 349.7,-55.25 418.2,-55.25 418.2,-74.5"/>
<text text-anchor="middle" x="383.95" y="-61" font-family="Helvetica,sans-Serif" font-size="10.00">v8&#45;internal.h</text>
</a>
</g>
</g>
<!-- Node5&#45;&gt;Node8 -->
<g id="edge7" class="edge">
<title>Node5&#45;&gt;Node8</title>
<path fill="none" stroke="#63b8ff" d="M209.57,-110.09C245.19,-101.06 300.09,-87.14 338.75,-77.34"/>
<polygon fill="#63b8ff" stroke="#63b8ff" points="339.36,-80.54 348.2,-74.69 337.64,-73.75 339.36,-80.54"/>
</g>
<!-- Node8&#45;&gt;Node3 -->
<g id="edge9" class="edge">
<title>Node8&#45;&gt;Node3</title>
<path fill="none" stroke="#63b8ff" d="M349.51,-54.84C312.14,-45.04 252.81,-29.48 215.42,-19.67"/>
<polygon fill="#63b8ff" stroke="#63b8ff" points="216.59,-16.09 206.03,-16.94 214.82,-22.87 216.59,-16.09"/>
</g>
<!-- Node8&#45;&gt;Node6 -->
<g id="edge8" class="edge">
<title>Node8&#45;&gt;Node6</title>
<path fill="none" stroke="#63b8ff" d="M360.88,-54.84C338.99,-46.27 305.88,-33.31 281.15,-23.63"/>
<polygon fill="#63b8ff" stroke="#63b8ff" points="282.72,-20.09 272.13,-19.7 280.17,-26.61 282.72,-20.09"/>
</g>
<!-- Node8&#45;&gt;Node7 -->
<g id="edge11" class="edge">
<title>Node8&#45;&gt;Node7</title>
<path fill="none" stroke="#63b8ff" d="M373.43,-54.84C364.47,-47.15 351.37,-35.9 340.63,-26.68"/>
<polygon fill="#63b8ff" stroke="#63b8ff" points="343.18,-23.39 333.31,-19.52 338.61,-28.7 343.18,-23.39"/>
</g>
<!-- Node9 -->
<g id="node9" class="node">
<title>Node9</title>
<g id="a_node9"><a xlink:title=" ">
<polygon fill="#e0e0e0" stroke="#999999" points="417.7,-19.25 370.2,-19.25 370.2,0 417.7,0 417.7,-19.25"/>
<text text-anchor="middle" x="393.95" y="-5.75" font-family="Helvetica,sans-Serif" font-size="10.00">string.h</text>
</a>
</g>
</g>
<!-- Node8&#45;&gt;Node9 -->
<g id="edge10" class="edge">
<title>Node8&#45;&gt;Node9</title>
<path fill="none" stroke="#63b8ff" d="M385.6,-55.08C386.86,-48.34 388.66,-38.77 390.26,-30.24"/>
<polygon fill="#63b8ff" stroke="#63b8ff" points="393.85,-31.08 392.26,-20.61 386.97,-29.79 393.85,-31.08"/>
</g>
<!-- Node10 -->
<g id="node10" class="node">
<title>Node10</title>
<g id="a_node10"><a xlink:href="v8-version_8h.html" target="_top" xlink:title=" ">
<polygon fill="white" stroke="#666666" points="504.2,-19.25 435.7,-19.25 435.7,0 504.2,0 504.2,-19.25"/>
<text text-anchor="middle" x="469.95" y="-5.75" font-family="Helvetica,sans-Serif" font-size="10.00">v8&#45;version.h</text>
</a>
</g>
</g>
<!-- Node8&#45;&gt;Node10 -->
<g id="edge12" class="edge">
<title>Node8&#45;&gt;Node10</title>
<path fill="none" stroke="#63b8ff" d="M398.54,-54.84C411.51,-46.81 430.73,-34.91 445.96,-25.48"/>
<polygon fill="#63b8ff" stroke="#63b8ff" points="447.63,-27.94 454.29,-19.7 443.94,-21.99 447.63,-27.94"/>
</g>
<!-- Node8&#45;&gt;Node11 -->
<g id="edge13" class="edge">
<title>Node8&#45;&gt;Node11</title>
<path fill="none" stroke="#63b8ff" d="M418.5,-57.29C423.01,-56.54 427.58,-55.83 431.95,-55.25 603.18,-32.33 808.77,-18.29 894.87,-13.01"/>
<polygon fill="#63b8ff" stroke="#63b8ff" points="894.96,-16.45 904.73,-12.35 894.54,-9.47 894.96,-16.45"/>
</g>
<!-- Node12&#45;&gt;Node5 -->
<g id="edge18" class="edge">
<title>Node12&#45;&gt;Node5</title>
<path fill="none" stroke="#63b8ff" d="M115.82,-165.34C126.14,-157.49 141.32,-145.95 153.57,-136.62"/>
<polygon fill="#63b8ff" stroke="#63b8ff" points="155.41,-138.86 161.25,-130.02 151.17,-133.29 155.41,-138.86"/>
</g>
<!-- Node12&#45;&gt;Node8 -->
<g id="edge17" class="edge">
<title>Node12&#45;&gt;Node8</title>
<path fill="none" stroke="#63b8ff" d="M103.52,-165.44C103.39,-151.5 105.35,-124.73 120.95,-110.5 152.15,-82.05 272.34,-71.49 338.91,-67.77"/>
<polygon fill="#63b8ff" stroke="#63b8ff" points="338.71,-71.23 348.51,-67.21 338.34,-64.24 338.71,-71.23"/>
</g>
<!-- Node12&#45;&gt;Node11 -->
<g id="edge19" class="edge">
<title>Node12&#45;&gt;Node11</title>
<path fill="none" stroke="#63b8ff" d="M100.8,-165.41C96.69,-151.92 91.4,-126.31 103.95,-110.5 171.19,-25.78 234.04,-71.62 340.95,-55.25 547.54,-23.62 798.07,-14.13 894.96,-11.53"/>
<polygon fill="#63b8ff" stroke="#63b8ff" points="894.83,-15 904.73,-11.25 894.65,-8.01 894.83,-15"/>
</g>
<!-- Node13&#45;&gt;Node5 -->
<g id="edge23" class="edge">
<title>Node13&#45;&gt;Node5</title>
<path fill="none" stroke="#63b8ff" d="M639.76,-331.08C584.76,-307.56 433.02,-242.28 307.95,-185 271.17,-168.16 229.12,-147.96 202.09,-134.85"/>
<polygon fill="#63b8ff" stroke="#63b8ff" points="204.03,-131.41 193.5,-130.19 200.97,-137.71 204.03,-131.41"/>
</g>
<!-- Node13&#45;&gt;Node11 -->
<g id="edge57" class="edge">
<title>Node13&#45;&gt;Node11</title>
<path fill="none" stroke="#63b8ff" d="M692.79,-340.08C803.36,-339.09 1163.95,-328.44 1163.95,-231.62 1163.95,-231.62 1163.95,-231.62 1163.95,-119.12 1163.95,-37.07 1042.07,-17 976.53,-12.14"/>
<polygon fill="#63b8ff" stroke="#63b8ff" points="976.96,-8.6 966.75,-11.44 976.51,-15.58 976.96,-8.6"/>
</g>
<!-- Node14 -->
<g id="node14" class="node">
<title>Node14</title>
<g id="a_node14"><a xlink:href="v8-maybe_8h.html" target="_top" xlink:title=" ">
<polygon fill="white" stroke="#666666" points="1097.7,-185 1032.2,-185 1032.2,-165.75 1097.7,-165.75 1097.7,-185"/>
<text text-anchor="middle" x="1064.95" y="-171.5" font-family="Helvetica,sans-Serif" font-size="10.00">v8&#45;maybe.h</text>
</a>
</g>
</g>
<!-- Node13&#45;&gt;Node14 -->
<g id="edge24" class="edge">
<title>Node13&#45;&gt;Node14</title>
<path fill="none" stroke="#63b8ff" d="M692.83,-338.29C739.03,-334.71 826.57,-324.4 894.95,-295.5 956.62,-269.44 1018.31,-218.47 1047.51,-192.46"/>
<polygon fill="#63b8ff" stroke="#63b8ff" points="1049.42,-195.55 1054.5,-186.25 1044.73,-190.36 1049.42,-195.55"/>
</g>
<!-- Node15 -->
<g id="node15" class="node">
<title>Node15</title>
<g id="a_node15"><a xlink:href="v8-persistent-handle_8h.html" target="_top" xlink:title=" ">
<polygon fill="white" stroke="#666666" points="515.57,-185 404.32,-185 404.32,-165.75 515.57,-165.75 515.57,-185"/>
<text text-anchor="middle" x="459.95" y="-171.5" font-family="Helvetica,sans-Serif" font-size="10.00">v8&#45;persistent&#45;handle.h</text>
</a>
</g>
</g>
<!-- Node13&#45;&gt;Node15 -->
<g id="edge27" class="edge">
<title>Node13&#45;&gt;Node15</title>
<path fill="none" stroke="#63b8ff" d="M649.85,-331.09C617.11,-304.41 520.56,-225.75 479.16,-192.02"/>
<polygon fill="#63b8ff" stroke="#63b8ff" points="481.72,-188.79 471.76,-185.18 477.3,-194.21 481.72,-188.79"/>
</g>
<!-- Node17 -->
<g id="node17" class="node">
<title>Node17</title>
<g id="a_node17"><a xlink:href="v8-primitive_8h.html" target="_top" xlink:title=" ">
<polygon fill="white" stroke="#666666" points="861.82,-295.5 788.07,-295.5 788.07,-276.25 861.82,-276.25 861.82,-295.5"/>
<text text-anchor="middle" x="824.95" y="-282" font-family="Helvetica,sans-Serif" font-size="10.00">v8&#45;primitive.h</text>
</a>
</g>
</g>
<!-- Node13&#45;&gt;Node17 -->
<g id="edge33" class="edge">
<title>Node13&#45;&gt;Node17</title>
<path fill="none" stroke="#63b8ff" d="M688.77,-331.09C715.74,-322.33 756.88,-308.98 786.88,-299.23"/>
<polygon fill="#63b8ff" stroke="#63b8ff" points="787.56,-302.37 795.99,-295.95 785.4,-295.71 787.56,-302.37"/>
</g>
<!-- Node18 -->
<g id="node18" class="node">
<title>Node18</title>
<g id="a_node18"><a xlink:href="v8-value_8h.html" target="_top" xlink:title=" ">
<polygon fill="white" stroke="#666666" points="948.07,-240.25 887.82,-240.25 887.82,-221 948.07,-221 948.07,-240.25"/>
<text text-anchor="middle" x="917.95" y="-226.75" font-family="Helvetica,sans-Serif" font-size="10.00">v8&#45;value.h</text>
</a>
</g>
</g>
<!-- Node13&#45;&gt;Node18 -->
<g id="edge56" class="edge">
<title>Node13&#45;&gt;Node18</title>
<path fill="none" stroke="#63b8ff" d="M692.76,-340.22C736.34,-338.9 815.51,-331.26 870.95,-295.5 888.08,-284.45 901.11,-264.81 909.06,-250.22"/>
<polygon fill="#63b8ff" stroke="#63b8ff" points="912.5,-252.18 913.94,-241.68 906.27,-248.99 912.5,-252.18"/>
</g>
<!-- Node19 -->
<g id="node19" class="node">
<title>Node19</title>
<g id="a_node19"><a xlink:href="v8-traced-handle_8h.html" target="_top" xlink:title=" ">
<polygon fill="white" stroke="#666666" points="628.7,-185 533.2,-185 533.2,-165.75 628.7,-165.75 628.7,-185"/>
<text text-anchor="middle" x="580.95" y="-171.5" font-family="Helvetica,sans-Serif" font-size="10.00">v8&#45;traced&#45;handle.h</text>
</a>
</g>
</g>
<!-- Node13&#45;&gt;Node19 -->
<g id="edge44" class="edge">
<title>Node13&#45;&gt;Node19</title>
<path fill="none" stroke="#63b8ff" d="M656.65,-331.32C644.06,-305.55 607.1,-229.9 589.92,-194.74"/>
<polygon fill="#63b8ff" stroke="#63b8ff" points="592.8,-193.67 585.27,-186.22 586.51,-196.74 592.8,-193.67"/>
</g>
<!-- Node14&#45;&gt;Node8 -->
<g id="edge25" class="edge">
<title>Node14&#45;&gt;Node8</title>
<path fill="none" stroke="#63b8ff" d="M1052.98,-165.41C1032.9,-150.93 990.62,-122.76 949.95,-110.5 852.79,-81.21 545.8,-70.17 429.34,-66.97"/>
<polygon fill="#63b8ff" stroke="#63b8ff" points="429.45,-63.44 419.36,-66.67 429.26,-70.44 429.45,-63.44"/>
</g>
<!-- Node14&#45;&gt;Node11 -->
<g id="edge26" class="edge">
<title>Node14&#45;&gt;Node11</title>
<path fill="none" stroke="#63b8ff" d="M1064.34,-165.47C1062.44,-143.99 1054.86,-88.65 1025.95,-55.25 1012.88,-40.15 993.49,-29.63 976.05,-22.61"/>
<polygon fill="#63b8ff" stroke="#63b8ff" points="977.66,-19.1 967.07,-18.88 975.21,-25.66 977.66,-19.1"/>
</g>
<!-- Node15&#45;&gt;Node5 -->
<g id="edge29" class="edge">
<title>Node15&#45;&gt;Node5</title>
<path fill="none" stroke="#63b8ff" d="M411.11,-165.28C360.66,-155.89 282.06,-141.25 229.33,-131.44"/>
<polygon fill="#63b8ff" stroke="#63b8ff" points="230.29,-127.87 219.82,-129.48 229.01,-134.75 230.29,-127.87"/>
</g>
<!-- Node15&#45;&gt;Node8 -->
<g id="edge28" class="edge">
<title>Node15&#45;&gt;Node8</title>
<path fill="none" stroke="#63b8ff" d="M430.41,-165.29C413.57,-158.42 393.91,-147.15 383.95,-129.75 376.28,-116.35 376.95,-98.64 379.16,-85.26"/>
<polygon fill="#63b8ff" stroke="#63b8ff" points="382.72,-86.34 381.32,-75.84 375.86,-84.92 382.72,-86.34"/>
</g>
<!-- Node15&#45;&gt;Node11 -->
<g id="edge32" class="edge">
<title>Node15&#45;&gt;Node11</title>
<path fill="none" stroke="#63b8ff" d="M446.23,-165.35C428.6,-152.64 401.96,-128.98 416.95,-110.5 477.16,-36.26 783.12,-16.71 894.95,-12"/>
<polygon fill="#63b8ff" stroke="#63b8ff" points="894.91,-15.47 904.76,-11.57 894.63,-8.47 894.91,-15.47"/>
</g>
<!-- Node16 -->
<g id="node16" class="node">
<title>Node16</title>
<g id="a_node16"><a xlink:href="v8-weak-callback-info_8h.html" target="_top" xlink:title=" ">
<polygon fill="white" stroke="#666666" points="543.95,-129.75 425.95,-129.75 425.95,-110.5 543.95,-110.5 543.95,-129.75"/>
<text text-anchor="middle" x="484.95" y="-116.25" font-family="Helvetica,sans-Serif" font-size="10.00">v8&#45;weak&#45;callback&#45;info.h</text>
</a>
</g>
</g>
<!-- Node15&#45;&gt;Node16 -->
<g id="edge30" class="edge">
<title>Node15&#45;&gt;Node16</title>
<path fill="none" stroke="#63b8ff" d="M464.08,-165.58C467.35,-158.61 472.04,-148.62 476.15,-139.87"/>
<polygon fill="#63b8ff" stroke="#63b8ff" points="479.65,-141.65 480.73,-131.11 473.31,-138.67 479.65,-141.65"/>
</g>
<!-- Node16&#45;&gt;Node11 -->
<g id="edge31" class="edge">
<title>Node16&#45;&gt;Node11</title>
<path fill="none" stroke="#63b8ff" d="M522.62,-110.06C606.67,-89.84 808.9,-41.19 895.49,-20.36"/>
<polygon fill="#63b8ff" stroke="#63b8ff" points="896.04,-23.58 904.95,-17.84 894.41,-16.78 896.04,-23.58"/>
</g>
<!-- Node17&#45;&gt;Node4 -->
<g id="edge34" class="edge">
<title>Node17&#45;&gt;Node4</title>
<path fill="none" stroke="#63b8ff" d="M823.23,-276C819.86,-258.59 812.32,-219.62 807.73,-195.91"/>
<polygon fill="#63b8ff" stroke="#63b8ff" points="811.03,-195.53 805.69,-186.38 804.15,-196.86 811.03,-195.53"/>
</g>
<!-- Node17&#45;&gt;Node5 -->
<g id="edge36" class="edge">
<title>Node17&#45;&gt;Node5</title>
<path fill="none" stroke="#63b8ff" d="M787.78,-279.68C707.1,-267.82 510.39,-235.8 351.95,-185 331.62,-178.48 327.87,-173.41 307.95,-165.75 276.73,-153.75 240.74,-141.87 213.92,-133.39"/>
<polygon fill="#63b8ff" stroke="#63b8ff" points="215.35,-129.85 204.76,-130.2 213.25,-136.53 215.35,-129.85"/>
</g>
<!-- Node17&#45;&gt;Node8 -->
<g id="edge35" class="edge">
<title>Node17&#45;&gt;Node8</title>
<path fill="none" stroke="#63b8ff" d="M829.83,-275.83C844.49,-247.33 884.45,-158.46 840.95,-110.5 813.6,-80.35 539.02,-69.91 429.09,-66.91"/>
<polygon fill="#63b8ff" stroke="#63b8ff" points="429.45,-63.4 419.36,-66.63 429.27,-70.39 429.45,-63.4"/>
</g>
<!-- Node17&#45;&gt;Node11 -->
<g id="edge43" class="edge">
<title>Node17&#45;&gt;Node11</title>
<path fill="none" stroke="#63b8ff" d="M862.25,-284.43C925.19,-281.41 1051.09,-265.09 1106.95,-185 1136.98,-141.93 1157.39,-154.16 1045.95,-55.25 1026.25,-37.77 998.82,-26.62 976.27,-19.84"/>
<polygon fill="#63b8ff" stroke="#63b8ff" points="977.56,-16.28 966.98,-16.94 975.66,-23.02 977.56,-16.28"/>
</g>
<!-- Node17&#45;&gt;Node18 -->
<g id="edge37" class="edge">
<title>Node17&#45;&gt;Node18</title>
<path fill="none" stroke="#63b8ff" d="M840.72,-275.84C855.02,-267.66 876.33,-255.46 892.94,-245.94"/>
<polygon fill="#63b8ff" stroke="#63b8ff" points="894.15,-248.71 901.09,-240.7 890.68,-242.63 894.15,-248.71"/>
</g>
<!-- Node18&#45;&gt;Node4 -->
<g id="edge38" class="edge">
<title>Node18&#45;&gt;Node4</title>
<path fill="none" stroke="#63b8ff" d="M898.61,-220.59C880.67,-212.22 853.74,-199.63 833.18,-190.03"/>
<polygon fill="#63b8ff" stroke="#63b8ff" points="834.92,-186.51 824.38,-185.45 831.96,-192.86 834.92,-186.51"/>
</g>
<!-- Node18&#45;&gt;Node5 -->
<g id="edge40" class="edge">
<title>Node18&#45;&gt;Node5</title>
<path fill="none" stroke="#63b8ff" d="M887.62,-228.37C790.69,-224.16 489.24,-209.38 394.95,-185 374.67,-179.76 371.73,-172.6 351.95,-165.75 311.57,-151.77 264.64,-140.19 229.11,-132.33"/>
<polygon fill="#63b8ff" stroke="#63b8ff" points="229.98,-128.72 219.47,-130.01 228.49,-135.56 229.98,-128.72"/>
</g>
<!-- Node18&#45;&gt;Node8 -->
<g id="edge39" class="edge">
<title>Node18&#45;&gt;Node8</title>
<path fill="none" stroke="#63b8ff" d="M917.67,-220.6C916.46,-197.84 909.82,-137.99 873.95,-110.5 839.09,-83.79 544.02,-71.19 429.31,-67.27"/>
<polygon fill="#63b8ff" stroke="#63b8ff" points="429.57,-63.75 419.46,-66.91 429.34,-70.74 429.57,-63.75"/>
</g>
<!-- Node18&#45;&gt;Node11 -->
<g id="edge42" class="edge">
<title>Node18&#45;&gt;Node11</title>
<path fill="none" stroke="#63b8ff" d="M921.62,-220.58C931.62,-194.83 958.02,-118.87 948.95,-55.25 947.74,-46.77 945.29,-37.65 942.85,-29.88"/>
<polygon fill="#63b8ff" stroke="#63b8ff" points="945.93,-29.04 939.41,-20.69 939.29,-31.28 945.93,-29.04"/>
</g>
<!-- Node18&#45;&gt;Node14 -->
<g id="edge41" class="edge">
<title>Node18&#45;&gt;Node14</title>
<path fill="none" stroke="#63b8ff" d="M942.88,-220.59C966.75,-211.95 1002.97,-198.82 1029.77,-189.12"/>
<polygon fill="#63b8ff" stroke="#63b8ff" points="1030.68,-192.15 1038.89,-185.45 1028.29,-185.57 1030.68,-192.15"/>
</g>
<!-- Node19&#45;&gt;Node3 -->
<g id="edge46" class="edge">
<title>Node19&#45;&gt;Node3</title>
<path fill="none" stroke="#63b8ff" d="M532.84,-166.68C467.65,-156.06 357.34,-137.37 339.95,-129.75 281.51,-104.14 224.51,-53.34 197.38,-27.13"/>
<polygon fill="#63b8ff" stroke="#63b8ff" points="200.24,-25.05 190.65,-20.55 195.34,-30.05 200.24,-25.05"/>
</g>
<!-- Node19&#45;&gt;Node5 -->
<g id="edge53" class="edge">
<title>Node19&#45;&gt;Node5</title>
<path fill="none" stroke="#63b8ff" d="M532.7,-166.85C530.08,-166.47 527.48,-166.1 524.95,-165.75 394.98,-147.76 361.96,-147.4 231.95,-129.75 231,-129.62 230.04,-129.49 229.08,-129.36"/>
<polygon fill="#63b8ff" stroke="#63b8ff" points="229.97,-125.81 219.58,-127.88 228.99,-132.74 229.97,-125.81"/>
</g>
<!-- Node19&#45;&gt;Node6 -->
<g id="edge45" class="edge">
<title>Node19&#45;&gt;Node6</title>
<path fill="none" stroke="#63b8ff" d="M532.99,-165.51C476.05,-154.77 386.99,-137.17 372.95,-129.75 324.56,-104.17 281.61,-54.48 260.95,-28.09"/>
<polygon fill="#63b8ff" stroke="#63b8ff" points="263.24,-26.32 254.38,-20.5 257.68,-30.57 263.24,-26.32"/>
</g>
<!-- Node19&#45;&gt;Node7 -->
<g id="edge50" class="edge">
<title>Node19&#45;&gt;Node7</title>
<path fill="none" stroke="#63b8ff" d="M533.03,-166.12C499.43,-159.2 454.06,-147.55 416.95,-129.75 379.29,-111.69 365.06,-108.59 340.95,-74.5 331.65,-61.35 326.84,-43.61 324.39,-30.17"/>
<polygon fill="#63b8ff" stroke="#63b8ff" points="327.76,-30.03 322.8,-20.68 320.84,-31.09 327.76,-30.03"/>
</g>
<!-- Node19&#45;&gt;Node8 -->
<g id="edge52" class="edge">
<title>Node19&#45;&gt;Node8</title>
<path fill="none" stroke="#63b8ff" d="M590.54,-165.28C603.32,-152.08 622.78,-127.34 608.95,-110.5 586.69,-83.39 488.54,-72.46 429.47,-68.28"/>
<polygon fill="#63b8ff" stroke="#63b8ff" points="429.78,-64.73 419.57,-67.55 429.31,-71.71 429.78,-64.73"/>
</g>
<!-- Node19&#45;&gt;Node11 -->
<g id="edge55" class="edge">
<title>Node19&#45;&gt;Node11</title>
<path fill="none" stroke="#63b8ff" d="M629.15,-170.22C694.18,-163.92 805.91,-150.46 840.95,-129.75 881.98,-105.5 912.31,-56.38 926.68,-29.4"/>
<polygon fill="#63b8ff" stroke="#63b8ff" points="930.24,-31.13 931.7,-20.64 924.01,-27.94 930.24,-31.13"/>
</g>
<!-- Node19&#45;&gt;Node16 -->
<g id="edge54" class="edge">
<title>Node19&#45;&gt;Node16</title>
<path fill="none" stroke="#63b8ff" d="M564.66,-165.34C549.9,-157.16 527.91,-144.96 510.76,-135.44"/>
<polygon fill="#63b8ff" stroke="#63b8ff" points="512.75,-131.99 502.31,-130.2 509.36,-138.11 512.75,-131.99"/>
</g>
<!-- Node20 -->
<g id="node20" class="node">
<title>Node20</title>
<g id="a_node20"><a xlink:title=" ">
<polygon fill="#e0e0e0" stroke="#999999" points="700.2,-129.75 655.7,-129.75 655.7,-110.5 700.2,-110.5 700.2,-129.75"/>
<text text-anchor="middle" x="677.95" y="-116.25" font-family="Helvetica,sans-Serif" font-size="10.00">stdio.h</text>
</a>
</g>
</g>
<!-- Node19&#45;&gt;Node20 -->
<g id="edge47" class="edge">
<title>Node19&#45;&gt;Node20</title>
<path fill="none" stroke="#63b8ff" d="M597.4,-165.34C612.31,-157.16 634.54,-144.96 651.87,-135.44"/>
<polygon fill="#63b8ff" stroke="#63b8ff" points="653.33,-138.08 660.41,-130.2 649.96,-131.95 653.33,-138.08"/>
</g>
<!-- Node21 -->
<g id="node21" class="node">
<title>Node21</title>
<g id="a_node21"><a xlink:title=" ">
<polygon fill="#e0e0e0" stroke="#999999" points="763.57,-129.75 718.32,-129.75 718.32,-110.5 763.57,-110.5 763.57,-129.75"/>
<text text-anchor="middle" x="740.95" y="-116.25" font-family="Helvetica,sans-Serif" font-size="10.00">atomic</text>
</a>
</g>
</g>
<!-- Node19&#45;&gt;Node21 -->
<g id="edge48" class="edge">
<title>Node19&#45;&gt;Node21</title>
<path fill="none" stroke="#63b8ff" d="M608.09,-165.34C635.56,-156.2 678.09,-142.04 707.6,-132.22"/>
<polygon fill="#63b8ff" stroke="#63b8ff" points="708.45,-135.3 716.83,-128.82 706.24,-128.65 708.45,-135.3"/>
</g>
<!-- Node22 -->
<g id="node22" class="node">
<title>Node22</title>
<g id="a_node22"><a xlink:title=" ">
<polygon fill="#e0e0e0" stroke="#999999" points="832.2,-129.75 781.7,-129.75 781.7,-110.5 832.2,-110.5 832.2,-129.75"/>
<text text-anchor="middle" x="806.95" y="-116.25" font-family="Helvetica,sans-Serif" font-size="10.00">memory</text>
</a>
</g>
</g>
<!-- Node19&#45;&gt;Node22 -->
<g id="edge49" class="edge">
<title>Node19&#45;&gt;Node22</title>
<path fill="none" stroke="#63b8ff" d="M621.09,-165.29C657.69,-156.95 713.54,-144.1 770.66,-130.27"/>
<polygon fill="#63b8ff" stroke="#63b8ff" points="771.45,-133.44 780.34,-127.68 769.8,-126.64 771.45,-133.44"/>
</g>
<!-- Node23 -->
<g id="node23" class="node">
<title>Node23</title>
<g id="a_node23"><a xlink:title=" ">
<polygon fill="#e0e0e0" stroke="#999999" points="600.2,-129.75 561.7,-129.75 561.7,-110.5 600.2,-110.5 600.2,-129.75"/>
<text text-anchor="middle" x="580.95" y="-116.25" font-family="Helvetica,sans-Serif" font-size="10.00">utility</text>
</a>
</g>
</g>
<!-- Node19&#45;&gt;Node23 -->
<g id="edge51" class="edge">
<title>Node19&#45;&gt;Node23</title>
<path fill="none" stroke="#63b8ff" d="M580.95,-165.58C580.95,-158.92 580.95,-149.49 580.95,-141.03"/>
<polygon fill="#63b8ff" stroke="#63b8ff" points="584.45,-141.11 580.95,-131.11 577.45,-141.11 584.45,-141.11"/>
</g>
</g>
</svg>
