<?xml version="1.0" encoding="UTF-8" standalone="no"?>
<!DOCTYPE svg PUBLIC "-//W3C//DTD SVG 1.1//EN"
 "http://www.w3.org/Graphics/SVG/1.1/DTD/svg11.dtd">
<!-- Generated by graphviz version 8.0.5 (20230430.1635)
 -->
<!-- Title: cppgc::internal::BasicPersistent::operator= Pages: 1 -->
<svg width="694pt" height="293pt"
 viewBox="0.00 0.00 693.75 292.50" xmlns="http://www.w3.org/2000/svg" xmlns:xlink="http://www.w3.org/1999/xlink">
<g id="graph0" class="graph" transform="scale(1 1) rotate(0) translate(4 288.5)">
<title>cppgc::internal::BasicPersistent::operator=</title>
<!-- Node1 -->
<g id="node1" class="node">
<title>Node1</title>
<g id="a_node1"><a xlink:title=" ">
<polygon fill="#999999" stroke="#666666" points="151.75,-173.5 0,-173.5 0,-143 151.75,-143 151.75,-173.5"/>
<text text-anchor="start" x="8" y="-160" font-family="Helvetica,sans-Serif" font-size="10.00">cppgc::internal::BasicPersistent</text>
<text text-anchor="middle" x="75.88" y="-148.75" font-family="Helvetica,sans-Serif" font-size="10.00">::operator=</text>
</a>
</g>
</g>
<!-- Node2 -->
<g id="node2" class="node">
<title>Node2</title>
<g id="a_node2"><a xlink:href="classcppgc_1_1internal_1_1BasicPersistent.html#a74dde4359237ebdcc5056566265ad8be" target="_top" xlink:title=" ">
<polygon fill="white" stroke="#666666" points="349.62,-284.5 197.88,-284.5 197.88,-254 349.62,-254 349.62,-284.5"/>
<text text-anchor="start" x="205.88" y="-271" font-family="Helvetica,sans-Serif" font-size="10.00">cppgc::internal::BasicPersistent</text>
<text text-anchor="middle" x="273.75" y="-259.75" font-family="Helvetica,sans-Serif" font-size="10.00">::Clear</text>
</a>
</g>
</g>
<!-- Node1&#45;&gt;Node2 -->
<g id="edge1" class="edge">
<title>Node1&#45;&gt;Node2</title>
<path fill="none" stroke="#63b8ff" d="M92.38,-173.71C112.65,-193.08 150.02,-226.07 187.75,-245.25 190.83,-246.81 194.02,-248.29 197.28,-249.68"/>
<polygon fill="#63b8ff" stroke="#63b8ff" points="195.65,-253.19 206.24,-253.59 198.21,-246.67 195.65,-253.19"/>
</g>
<!-- Node3 -->
<g id="node3" class="node">
<title>Node3</title>
<g id="a_node3"><a xlink:href="classcppgc_1_1internal_1_1BasicPersistent.html#ad771b1acc6a1c9a0d51e98e9f3d455d2" target="_top" xlink:title=" ">
<polygon fill="white" stroke="#666666" points="359.75,-235.88 187.75,-235.88 187.75,-216.62 359.75,-216.62 359.75,-235.88"/>
<text text-anchor="middle" x="273.75" y="-222.38" font-family="Helvetica,sans-Serif" font-size="10.00">cppgc::internal::BasicPersistent::Get</text>
</a>
</g>
</g>
<!-- Node1&#45;&gt;Node3 -->
<g id="edge2" class="edge">
<title>Node1&#45;&gt;Node3</title>
<path fill="none" stroke="#63b8ff" d="M107.77,-173.87C129.66,-184.44 159.96,-198.1 187.75,-207.25 194.78,-209.56 202.23,-211.69 209.68,-213.61"/>
<polygon fill="#63b8ff" stroke="#63b8ff" points="208.62,-217.2 219.17,-216.19 210.29,-210.4 208.62,-217.2"/>
</g>
<!-- Node5 -->
<g id="node5" class="node">
<title>Node5</title>
<g id="a_node5"><a xlink:href="classcppgc_1_1internal_1_1PersistentBase.html#aa189d8229e1fd8cc2cfce363ade822c6" target="_top" xlink:title=" ">
<polygon fill="white" stroke="#666666" points="337.25,-198.5 210.25,-198.5 210.25,-168 337.25,-168 337.25,-198.5"/>
<text text-anchor="start" x="218.25" y="-185" font-family="Helvetica,sans-Serif" font-size="10.00">cppgc::internal::Persistent</text>
<text text-anchor="middle" x="273.75" y="-173.75" font-family="Helvetica,sans-Serif" font-size="10.00">Base::GetNode</text>
</a>
</g>
</g>
<!-- Node1&#45;&gt;Node5 -->
<g id="edge4" class="edge">
<title>Node1&#45;&gt;Node5</title>
<path fill="none" stroke="#63b8ff" d="M152.05,-167.84C167.56,-169.82 183.88,-171.91 199.34,-173.88"/>
<polygon fill="#63b8ff" stroke="#63b8ff" points="198.51,-177.43 208.87,-175.22 199.4,-170.49 198.51,-177.43"/>
</g>
<!-- Node6 -->
<g id="node6" class="node">
<title>Node6</title>
<g id="a_node6"><a xlink:href="classcppgc_1_1internal_1_1PersistentBase.html#af84e1d2f71c9cbd3f0a4424339c725cb" target="_top" xlink:title=" ">
<polygon fill="white" stroke="#666666" points="337.25,-149.5 210.25,-149.5 210.25,-119 337.25,-119 337.25,-149.5"/>
<text text-anchor="start" x="218.25" y="-136" font-family="Helvetica,sans-Serif" font-size="10.00">cppgc::internal::Persistent</text>
<text text-anchor="middle" x="273.75" y="-124.75" font-family="Helvetica,sans-Serif" font-size="10.00">Base::SetNode</text>
</a>
</g>
</g>
<!-- Node1&#45;&gt;Node6 -->
<g id="edge5" class="edge">
<title>Node1&#45;&gt;Node6</title>
<path fill="none" stroke="#63b8ff" d="M152.05,-149.04C167.56,-147.14 183.88,-145.14 199.34,-143.25"/>
<polygon fill="#63b8ff" stroke="#63b8ff" points="199.37,-146.64 208.87,-141.95 198.52,-139.7 199.37,-146.64"/>
</g>
<!-- Node7 -->
<g id="node7" class="node">
<title>Node7</title>
<g id="a_node7"><a xlink:href="classcppgc_1_1internal_1_1PersistentBase.html#a4aa141bb08a81570f725c71d31c0e681" target="_top" xlink:title=" ">
<polygon fill="white" stroke="#666666" points="337.25,-100.5 210.25,-100.5 210.25,-70 337.25,-70 337.25,-100.5"/>
<text text-anchor="start" x="218.25" y="-87" font-family="Helvetica,sans-Serif" font-size="10.00">cppgc::internal::Persistent</text>
<text text-anchor="middle" x="273.75" y="-75.75" font-family="Helvetica,sans-Serif" font-size="10.00">Base::SetValue</text>
</a>
</g>
</g>
<!-- Node1&#45;&gt;Node7 -->
<g id="edge6" class="edge">
<title>Node1&#45;&gt;Node7</title>
<path fill="none" stroke="#63b8ff" d="M109.92,-142.68C131.75,-132.71 161.12,-119.89 187.75,-110.25 193.49,-108.17 199.5,-106.13 205.55,-104.18"/>
<polygon fill="#63b8ff" stroke="#63b8ff" points="206.26,-107.31 214.74,-100.97 204.15,-100.64 206.26,-107.31"/>
</g>
<!-- Node8 -->
<g id="node8" class="node">
<title>Node8</title>
<g id="a_node8"><a xlink:href="classcppgc_1_1internal_1_1PersistentNode.html#a1ca2104547bd2139cb56233c575a38f9" target="_top" xlink:title=" ">
<polygon fill="white" stroke="#666666" points="337.25,-51.5 210.25,-51.5 210.25,-21 337.25,-21 337.25,-51.5"/>
<text text-anchor="start" x="218.25" y="-38" font-family="Helvetica,sans-Serif" font-size="10.00">cppgc::internal::Persistent</text>
<text text-anchor="middle" x="273.75" y="-26.75" font-family="Helvetica,sans-Serif" font-size="10.00">Node::UpdateOwner</text>
</a>
</g>
</g>
<!-- Node1&#45;&gt;Node8 -->
<g id="edge7" class="edge">
<title>Node1&#45;&gt;Node8</title>
<path fill="none" stroke="#63b8ff" d="M90.37,-142.83C109.83,-121.5 147.85,-83.17 187.75,-61.25 191.62,-59.13 195.69,-57.16 199.86,-55.35"/>
<polygon fill="#63b8ff" stroke="#63b8ff" points="200.76,-58.36 208.75,-51.4 198.17,-51.86 200.76,-58.36"/>
</g>
<!-- Node4 -->
<g id="node4" class="node">
<title>Node4</title>
<g id="a_node4"><a xlink:href="classcppgc_1_1internal_1_1PersistentBase.html#a6c8a32409cf958d76b61bb1f651c434c" target="_top" xlink:title=" ">
<polygon fill="white" stroke="#666666" points="522.75,-241.5 395.75,-241.5 395.75,-211 522.75,-211 522.75,-241.5"/>
<text text-anchor="start" x="403.75" y="-228" font-family="Helvetica,sans-Serif" font-size="10.00">cppgc::internal::Persistent</text>
<text text-anchor="middle" x="459.25" y="-216.75" font-family="Helvetica,sans-Serif" font-size="10.00">Base::GetValue</text>
</a>
</g>
</g>
<!-- Node3&#45;&gt;Node4 -->
<g id="edge3" class="edge">
<title>Node3&#45;&gt;Node4</title>
<path fill="none" stroke="#63b8ff" d="M360.05,-226.25C368.23,-226.25 376.47,-226.25 384.51,-226.25"/>
<polygon fill="#63b8ff" stroke="#63b8ff" points="384.34,-229.75 394.34,-226.25 384.34,-222.75 384.34,-229.75"/>
</g>
<!-- Node9 -->
<g id="node9" class="node">
<title>Node9</title>
<g id="a_node9"><a xlink:href="classcppgc_1_1internal_1_1PersistentNode.html#a6117a8f66c181bb22827a21b3fbd3457" target="_top" xlink:title=" ">
<polygon fill="white" stroke="#666666" points="685.75,-51.5 558.75,-51.5 558.75,-21 685.75,-21 685.75,-51.5"/>
<text text-anchor="start" x="566.75" y="-38" font-family="Helvetica,sans-Serif" font-size="10.00">cppgc::internal::Persistent</text>
<text text-anchor="middle" x="622.25" y="-26.75" font-family="Helvetica,sans-Serif" font-size="10.00">Node::IsUsed</text>
</a>
</g>
</g>
<!-- Node8&#45;&gt;Node9 -->
<g id="edge8" class="edge">
<title>Node8&#45;&gt;Node9</title>
<path fill="none" stroke="#63b8ff" d="M337.55,-38.1C356.27,-38.58 376.84,-39.02 395.75,-39.25 452.19,-39.95 466.31,-40.11 522.75,-39.25 530.78,-39.13 539.17,-38.95 547.53,-38.74"/>
<polygon fill="#63b8ff" stroke="#63b8ff" points="547.56,-42.21 557.46,-38.45 547.37,-35.22 547.56,-42.21"/>
</g>
<!-- Node10 -->
<g id="node10" class="node">
<title>Node10</title>
<g id="a_node10"><a xlink:href="classcppgc_1_1internal_1_1PersistentNode.html#ad50ff2c6d54004b92ec8c2d92455f17b" target="_top" xlink:title=" ">
<polygon fill="white" stroke="#666666" points="522.75,-30.5 395.75,-30.5 395.75,0 522.75,0 522.75,-30.5"/>
<text text-anchor="start" x="403.75" y="-17" font-family="Helvetica,sans-Serif" font-size="10.00">cppgc::internal::Persistent</text>
<text text-anchor="middle" x="459.25" y="-5.75" font-family="Helvetica,sans-Serif" font-size="10.00">Node::owner</text>
</a>
</g>
</g>
<!-- Node8&#45;&gt;Node10 -->
<g id="edge9" class="edge">
<title>Node8&#45;&gt;Node10</title>
<path fill="none" stroke="#63b8ff" d="M337.64,-29.05C352.82,-27.32 369.16,-25.45 384.77,-23.66"/>
<polygon fill="#63b8ff" stroke="#63b8ff" points="384.9,-27.05 394.44,-22.44 384.11,-20.1 384.9,-27.05"/>
</g>
<!-- Node10&#45;&gt;Node9 -->
<g id="edge10" class="edge">
<title>Node10&#45;&gt;Node9</title>
<path fill="none" stroke="#63b8ff" d="M522.96,-23.43C531.06,-24.49 539.42,-25.58 547.68,-26.65"/>
<polygon fill="#63b8ff" stroke="#63b8ff" points="547.08,-30.24 557.45,-28.06 547.99,-23.29 547.08,-30.24"/>
</g>
</g>
</svg>
