<?xml version="1.0" encoding="UTF-8" standalone="no"?>
<!DOCTYPE svg PUBLIC "-//W3C//DTD SVG 1.1//EN"
 "http://www.w3.org/Graphics/SVG/1.1/DTD/svg11.dtd">
<!-- Generated by graphviz version 8.0.5 (20230430.1635)
 -->
<!-- Title: include/cppgc/internal/pointer&#45;policies.h Pages: 1 -->
<svg width="517pt" height="293pt"
 viewBox="0.00 0.00 516.62 293.25" xmlns="http://www.w3.org/2000/svg" xmlns:xlink="http://www.w3.org/1999/xlink">
<g id="graph0" class="graph" transform="scale(1 1) rotate(0) translate(4 289.25)">
<title>include/cppgc/internal/pointer&#45;policies.h</title>
<!-- Node1 -->
<g id="node1" class="node">
<title>Node1</title>
<g id="a_node1"><a xlink:title=" ">
<polygon fill="#999999" stroke="#666666" points="247.88,-285.25 137.38,-285.25 137.38,-254.75 247.88,-254.75 247.88,-285.25"/>
<text text-anchor="start" x="145.38" y="-271.75" font-family="Helvetica,sans-Serif" font-size="10.00">include/cppgc/internal</text>
<text text-anchor="middle" x="192.62" y="-260.5" font-family="Helvetica,sans-Serif" font-size="10.00">/pointer&#45;policies.h</text>
</a>
</g>
</g>
<!-- Node2 -->
<g id="node2" class="node">
<title>Node2</title>
<g id="a_node2"><a xlink:title=" ">
<polygon fill="#e0e0e0" stroke="#999999" points="45.25,-213.12 0,-213.12 0,-193.88 45.25,-193.88 45.25,-213.12"/>
<text text-anchor="middle" x="22.62" y="-199.62" font-family="Helvetica,sans-Serif" font-size="10.00">cstdint</text>
</a>
</g>
</g>
<!-- Node1&#45;&gt;Node2 -->
<g id="edge1" class="edge">
<title>Node1&#45;&gt;Node2</title>
<path fill="none" stroke="#63b8ff" d="M149.07,-254.31C121.49,-244.75 85.21,-231.69 53.62,-218.75 52.89,-218.45 52.14,-218.14 51.38,-217.82"/>
<polygon fill="#63b8ff" stroke="#63b8ff" points="53.1,-214.31 42.53,-213.5 50.28,-220.72 53.1,-214.31"/>
</g>
<!-- Node3 -->
<g id="node3" class="node">
<title>Node3</title>
<g id="a_node3"><a xlink:title=" ">
<polygon fill="#e0e0e0" stroke="#999999" points="124.12,-213.12 63.12,-213.12 63.12,-193.88 124.12,-193.88 124.12,-213.12"/>
<text text-anchor="middle" x="93.62" y="-199.62" font-family="Helvetica,sans-Serif" font-size="10.00">type_traits</text>
</a>
</g>
</g>
<!-- Node1&#45;&gt;Node3 -->
<g id="edge2" class="edge">
<title>Node1&#45;&gt;Node3</title>
<path fill="none" stroke="#63b8ff" d="M170.16,-254.36C154.04,-243.86 132.4,-229.77 116.25,-219.24"/>
<polygon fill="#63b8ff" stroke="#63b8ff" points="118.74,-216.04 108.45,-213.51 114.92,-221.9 118.74,-216.04"/>
</g>
<!-- Node4 -->
<g id="node4" class="node">
<title>Node4</title>
<g id="a_node4"><a xlink:href="write-barrier_8h.html" target="_top" xlink:title=" ">
<polygon fill="white" stroke="#666666" points="243,-218.75 142.25,-218.75 142.25,-188.25 243,-188.25 243,-218.75"/>
<text text-anchor="start" x="150.25" y="-205.25" font-family="Helvetica,sans-Serif" font-size="10.00">cppgc/internal/write</text>
<text text-anchor="middle" x="192.62" y="-194" font-family="Helvetica,sans-Serif" font-size="10.00">&#45;barrier.h</text>
</a>
</g>
</g>
<!-- Node1&#45;&gt;Node4 -->
<g id="edge3" class="edge">
<title>Node1&#45;&gt;Node4</title>
<path fill="none" stroke="#63b8ff" d="M192.62,-254.36C192.62,-247.11 192.62,-238.13 192.62,-229.81"/>
<polygon fill="#63b8ff" stroke="#63b8ff" points="196.13,-230.08 192.62,-220.08 189.13,-230.08 196.13,-230.08"/>
</g>
<!-- Node8 -->
<g id="node8" class="node">
<title>Node8</title>
<g id="a_node8"><a xlink:href="v8config_8h.html" target="_top" xlink:title=" ">
<polygon fill="white" stroke="#666666" points="292.38,-80.12 232.88,-80.12 232.88,-60.88 292.38,-60.88 292.38,-80.12"/>
<text text-anchor="middle" x="262.62" y="-66.62" font-family="Helvetica,sans-Serif" font-size="10.00">v8config.h</text>
</a>
</g>
</g>
<!-- Node1&#45;&gt;Node8 -->
<g id="edge16" class="edge">
<title>Node1&#45;&gt;Node8</title>
<path fill="none" stroke="#63b8ff" d="M217.78,-254.35C230.22,-245.68 244.13,-233.51 251.62,-218.75 272.65,-177.35 269.43,-120.82 265.75,-91.3"/>
<polygon fill="#63b8ff" stroke="#63b8ff" points="269.08,-90.83 264.21,-81.42 262.15,-91.81 269.08,-90.83"/>
</g>
<!-- Node12 -->
<g id="node12" class="node">
<title>Node12</title>
<g id="a_node12"><a xlink:href="source-location_8h.html" target="_top" xlink:title=" ">
<polygon fill="white" stroke="#666666" points="500,-213.12 381.25,-213.12 381.25,-193.88 500,-193.88 500,-213.12"/>
<text text-anchor="middle" x="440.62" y="-199.62" font-family="Helvetica,sans-Serif" font-size="10.00">cppgc/source&#45;location.h</text>
</a>
</g>
</g>
<!-- Node1&#45;&gt;Node12 -->
<g id="edge13" class="edge">
<title>Node1&#45;&gt;Node12</title>
<path fill="none" stroke="#63b8ff" d="M248.28,-254.52C292.59,-243 353.83,-227.07 395.21,-216.31"/>
<polygon fill="#63b8ff" stroke="#63b8ff" points="396.01,-219.46 404.8,-213.56 394.25,-212.69 396.01,-219.46"/>
</g>
<!-- Node5 -->
<g id="node5" class="node">
<title>Node5</title>
<g id="a_node5"><a xlink:href="api-constants_8h.html" target="_top" xlink:title=" ">
<polygon fill="white" stroke="#666666" points="204.88,-152.25 112.38,-152.25 112.38,-121.75 204.88,-121.75 204.88,-152.25"/>
<text text-anchor="start" x="120.38" y="-138.75" font-family="Helvetica,sans-Serif" font-size="10.00">cppgc/internal/api</text>
<text text-anchor="middle" x="158.62" y="-127.5" font-family="Helvetica,sans-Serif" font-size="10.00">&#45;constants.h</text>
</a>
</g>
</g>
<!-- Node4&#45;&gt;Node5 -->
<g id="edge4" class="edge">
<title>Node4&#45;&gt;Node5</title>
<path fill="none" stroke="#63b8ff" d="M184.91,-187.86C180.91,-180.28 175.92,-170.81 171.37,-162.18"/>
<polygon fill="#63b8ff" stroke="#63b8ff" points="174.07,-160.79 166.31,-153.58 167.88,-164.06 174.07,-160.79"/>
</g>
<!-- Node4&#45;&gt;Node8 -->
<g id="edge12" class="edge">
<title>Node4&#45;&gt;Node8</title>
<path fill="none" stroke="#63b8ff" d="M200.38,-187.98C213.15,-164.09 238.56,-116.53 252.65,-90.17"/>
<polygon fill="#63b8ff" stroke="#63b8ff" points="256.14,-92.07 257.76,-81.6 249.96,-88.77 256.14,-92.07"/>
</g>
<!-- Node9 -->
<g id="node9" class="node">
<title>Node9</title>
<g id="a_node9"><a xlink:href="process-heap_8h.html" target="_top" xlink:title=" ">
<polygon fill="white" stroke="#666666" points="412.75,-152.25 298.5,-152.25 298.5,-121.75 412.75,-121.75 412.75,-152.25"/>
<text text-anchor="start" x="306.5" y="-138.75" font-family="Helvetica,sans-Serif" font-size="10.00">cppgc/internal/process</text>
<text text-anchor="middle" x="355.62" y="-127.5" font-family="Helvetica,sans-Serif" font-size="10.00">&#45;heap.h</text>
</a>
</g>
</g>
<!-- Node4&#45;&gt;Node9 -->
<g id="edge8" class="edge">
<title>Node4&#45;&gt;Node9</title>
<path fill="none" stroke="#63b8ff" d="M229.61,-187.86C252.98,-178.62 283.38,-166.59 308.47,-156.66"/>
<polygon fill="#63b8ff" stroke="#63b8ff" points="309.49,-159.62 317.5,-152.69 306.92,-153.11 309.49,-159.62"/>
</g>
<!-- Node6 -->
<g id="node6" class="node">
<title>Node6</title>
<g id="a_node6"><a xlink:title=" ">
<polygon fill="#e0e0e0" stroke="#999999" points="195.88,-80.12 145.38,-80.12 145.38,-60.88 195.88,-60.88 195.88,-80.12"/>
<text text-anchor="middle" x="170.62" y="-66.62" font-family="Helvetica,sans-Serif" font-size="10.00">stddef.h</text>
</a>
</g>
</g>
<!-- Node5&#45;&gt;Node6 -->
<g id="edge5" class="edge">
<title>Node5&#45;&gt;Node6</title>
<path fill="none" stroke="#63b8ff" d="M161.35,-121.36C163.02,-112.38 165.18,-100.76 167,-91.01"/>
<polygon fill="#63b8ff" stroke="#63b8ff" points="170.6,-91.79 168.98,-81.32 163.71,-90.51 170.6,-91.79"/>
</g>
<!-- Node7 -->
<g id="node7" class="node">
<title>Node7</title>
<g id="a_node7"><a xlink:title=" ">
<polygon fill="#e0e0e0" stroke="#999999" points="127.38,-80.12 79.88,-80.12 79.88,-60.88 127.38,-60.88 127.38,-80.12"/>
<text text-anchor="middle" x="103.62" y="-66.62" font-family="Helvetica,sans-Serif" font-size="10.00">stdint.h</text>
</a>
</g>
</g>
<!-- Node5&#45;&gt;Node7 -->
<g id="edge6" class="edge">
<title>Node5&#45;&gt;Node7</title>
<path fill="none" stroke="#63b8ff" d="M146.14,-121.36C137.81,-111.59 126.82,-98.7 118.1,-88.48"/>
<polygon fill="#63b8ff" stroke="#63b8ff" points="120.3,-86.66 111.15,-81.32 114.97,-91.2 120.3,-86.66"/>
</g>
<!-- Node5&#45;&gt;Node8 -->
<g id="edge7" class="edge">
<title>Node5&#45;&gt;Node8</title>
<path fill="none" stroke="#63b8ff" d="M182.22,-121.36C199.16,-110.86 221.89,-96.77 238.86,-86.24"/>
<polygon fill="#63b8ff" stroke="#63b8ff" points="240.44,-88.75 247.1,-80.51 236.75,-82.81 240.44,-88.75"/>
</g>
<!-- Node9&#45;&gt;Node8 -->
<g id="edge11" class="edge">
<title>Node9&#45;&gt;Node8</title>
<path fill="none" stroke="#63b8ff" d="M334.52,-121.36C319.52,-110.96 299.43,-97.03 284.31,-86.54"/>
<polygon fill="#63b8ff" stroke="#63b8ff" points="286.83,-83.33 276.62,-80.51 282.84,-89.08 286.83,-83.33"/>
</g>
<!-- Node10 -->
<g id="node10" class="node">
<title>Node10</title>
<g id="a_node10"><a xlink:href="atomic-entry-flag_8h.html" target="_top" xlink:title=" ">
<polygon fill="white" stroke="#666666" points="419.12,-85.75 310.12,-85.75 310.12,-55.25 419.12,-55.25 419.12,-85.75"/>
<text text-anchor="start" x="318.12" y="-72.25" font-family="Helvetica,sans-Serif" font-size="10.00">cppgc/internal/atomic</text>
<text text-anchor="middle" x="364.62" y="-61" font-family="Helvetica,sans-Serif" font-size="10.00">&#45;entry&#45;flag.h</text>
</a>
</g>
</g>
<!-- Node9&#45;&gt;Node10 -->
<g id="edge9" class="edge">
<title>Node9&#45;&gt;Node10</title>
<path fill="none" stroke="#63b8ff" d="M357.67,-121.36C358.68,-114.11 359.93,-105.13 361.09,-96.81"/>
<polygon fill="#63b8ff" stroke="#63b8ff" points="364.68,-97.47 362.59,-87.08 357.74,-96.5 364.68,-97.47"/>
</g>
<!-- Node11 -->
<g id="node11" class="node">
<title>Node11</title>
<g id="a_node11"><a xlink:title=" ">
<polygon fill="#e0e0e0" stroke="#999999" points="387.25,-19.25 342,-19.25 342,0 387.25,0 387.25,-19.25"/>
<text text-anchor="middle" x="364.62" y="-5.75" font-family="Helvetica,sans-Serif" font-size="10.00">atomic</text>
</a>
</g>
</g>
<!-- Node10&#45;&gt;Node11 -->
<g id="edge10" class="edge">
<title>Node10&#45;&gt;Node11</title>
<path fill="none" stroke="#63b8ff" d="M364.62,-54.95C364.62,-47.62 364.62,-38.62 364.62,-30.66"/>
<polygon fill="#63b8ff" stroke="#63b8ff" points="368.13,-30.7 364.62,-20.7 361.13,-30.7 368.13,-30.7"/>
</g>
<!-- Node12&#45;&gt;Node8 -->
<g id="edge15" class="edge">
<title>Node12&#45;&gt;Node8</title>
<path fill="none" stroke="#63b8ff" d="M441.22,-193.4C441.79,-176.86 440.5,-141.76 421.62,-121.75 383.12,-80.94 353.81,-103.61 300.62,-85.75 299.12,-85.25 297.59,-84.72 296.05,-84.18"/>
<polygon fill="#63b8ff" stroke="#63b8ff" points="297.44,-80.6 286.85,-80.5 295.06,-87.19 297.44,-80.6"/>
</g>
<!-- Node13 -->
<g id="node13" class="node">
<title>Node13</title>
<g id="a_node13"><a xlink:title=" ">
<polygon fill="#e0e0e0" stroke="#999999" points="508.62,-146.62 468.62,-146.62 468.62,-127.38 508.62,-127.38 508.62,-146.62"/>
<text text-anchor="middle" x="488.62" y="-133.12" font-family="Helvetica,sans-Serif" font-size="10.00">string</text>
</a>
</g>
</g>
<!-- Node12&#45;&gt;Node13 -->
<g id="edge14" class="edge">
<title>Node12&#45;&gt;Node13</title>
<path fill="none" stroke="#63b8ff" d="M447.3,-193.53C454.61,-183.71 466.5,-167.73 475.66,-155.42"/>
<polygon fill="#63b8ff" stroke="#63b8ff" points="478.85,-158 482.01,-147.89 473.23,-153.83 478.85,-158"/>
</g>
</g>
</svg>
