<?xml version="1.0" encoding="UTF-8" standalone="no"?>
<!DOCTYPE svg PUBLIC "-//W3C//DTD SVG 1.1//EN"
 "http://www.w3.org/Graphics/SVG/1.1/DTD/svg11.dtd">
<!-- Generated by graphviz version 8.0.5 (20230430.1635)
 -->
<!-- Title: include/cppgc/internal/prefinalizer&#45;handler.h Pages: 1 -->
<svg width="1035pt" height="470pt"
 viewBox="0.00 0.00 1035.25 470.25" xmlns="http://www.w3.org/2000/svg" xmlns:xlink="http://www.w3.org/1999/xlink">
<g id="graph0" class="graph" transform="scale(1 1) rotate(0) translate(4 466.25)">
<title>include/cppgc/internal/prefinalizer&#45;handler.h</title>
<!-- Node1 -->
<g id="node1" class="node">
<title>Node1</title>
<g id="a_node1"><a xlink:title=" ">
<polygon fill="#999999" stroke="#666666" points="588.25,-462.25 477.75,-462.25 477.75,-431.75 588.25,-431.75 588.25,-462.25"/>
<text text-anchor="start" x="485.75" y="-448.75" font-family="Helvetica,sans-Serif" font-size="10.00">include/cppgc/internal</text>
<text text-anchor="middle" x="533" y="-437.5" font-family="Helvetica,sans-Serif" font-size="10.00">/prefinalizer&#45;handler.h</text>
</a>
</g>
</g>
<!-- Node2 -->
<g id="node2" class="node">
<title>Node2</title>
<g id="a_node2"><a xlink:href="heap_8h.html" target="_top" xlink:title=" ">
<polygon fill="white" stroke="#666666" points="644.88,-279.62 571.12,-279.62 571.12,-260.38 644.88,-260.38 644.88,-279.62"/>
<text text-anchor="middle" x="608" y="-266.12" font-family="Helvetica,sans-Serif" font-size="10.00">cppgc/heap.h</text>
</a>
</g>
</g>
<!-- Node1&#45;&gt;Node2 -->
<g id="edge1" class="edge">
<title>Node1&#45;&gt;Node2</title>
<path fill="none" stroke="#63b8ff" d="M539.27,-431.38C552.8,-399.8 584.75,-325.24 599.84,-290.04"/>
<polygon fill="#63b8ff" stroke="#63b8ff" points="603.38,-291.66 604.1,-281.09 596.95,-288.91 603.38,-291.66"/>
</g>
<!-- Node14 -->
<g id="node14" class="node">
<title>Node14</title>
<g id="a_node14"><a xlink:href="liveness-broker_8h.html" target="_top" xlink:title=" ">
<polygon fill="white" stroke="#666666" points="537.38,-395.75 418.62,-395.75 418.62,-376.5 537.38,-376.5 537.38,-395.75"/>
<text text-anchor="middle" x="478" y="-382.25" font-family="Helvetica,sans-Serif" font-size="10.00">cppgc/liveness&#45;broker.h</text>
</a>
</g>
</g>
<!-- Node1&#45;&gt;Node14 -->
<g id="edge18" class="edge">
<title>Node1&#45;&gt;Node14</title>
<path fill="none" stroke="#63b8ff" d="M519.4,-431.45C511.67,-423.17 501.96,-412.77 493.88,-404.12"/>
<polygon fill="#63b8ff" stroke="#63b8ff" points="496.86,-402.12 487.48,-397.2 491.75,-406.9 496.86,-402.12"/>
</g>
<!-- Node3 -->
<g id="node3" class="node">
<title>Node3</title>
<g id="a_node3"><a xlink:title=" ">
<polygon fill="#e0e0e0" stroke="#999999" points="1027.25,-80.12 976.75,-80.12 976.75,-60.88 1027.25,-60.88 1027.25,-80.12"/>
<text text-anchor="middle" x="1002" y="-66.62" font-family="Helvetica,sans-Serif" font-size="10.00">memory</text>
</a>
</g>
</g>
<!-- Node2&#45;&gt;Node3 -->
<g id="edge2" class="edge">
<title>Node2&#45;&gt;Node3</title>
<path fill="none" stroke="#63b8ff" d="M645.29,-264.11C737.04,-251.23 969.46,-213.1 1013,-152.25 1025.89,-134.23 1018.9,-108.04 1011.52,-90.42"/>
<polygon fill="#63b8ff" stroke="#63b8ff" points="1014.3,-89.09 1006.94,-81.47 1007.94,-92.02 1014.3,-89.09"/>
</g>
<!-- Node4 -->
<g id="node4" class="node">
<title>Node4</title>
<g id="a_node4"><a xlink:title=" ">
<polygon fill="#e0e0e0" stroke="#999999" points="654.5,-213.12 611.5,-213.12 611.5,-193.88 654.5,-193.88 654.5,-213.12"/>
<text text-anchor="middle" x="633" y="-199.62" font-family="Helvetica,sans-Serif" font-size="10.00">vector</text>
</a>
</g>
</g>
<!-- Node2&#45;&gt;Node4 -->
<g id="edge3" class="edge">
<title>Node2&#45;&gt;Node4</title>
<path fill="none" stroke="#63b8ff" d="M611.48,-260.03C615.13,-250.6 621,-235.47 625.68,-223.38"/>
<polygon fill="#63b8ff" stroke="#63b8ff" points="629.2,-224.98 629.55,-214.39 622.68,-222.45 629.2,-224.98"/>
</g>
<!-- Node5 -->
<g id="node5" class="node">
<title>Node5</title>
<g id="a_node5"><a xlink:href="common_8h.html" target="_top" xlink:title=" ">
<polygon fill="white" stroke="#666666" points="634.12,-146.62 543.88,-146.62 543.88,-127.38 634.12,-127.38 634.12,-146.62"/>
<text text-anchor="middle" x="589" y="-133.12" font-family="Helvetica,sans-Serif" font-size="10.00">cppgc/common.h</text>
</a>
</g>
</g>
<!-- Node2&#45;&gt;Node5 -->
<g id="edge4" class="edge">
<title>Node2&#45;&gt;Node5</title>
<path fill="none" stroke="#63b8ff" d="M606.69,-260C603.66,-239.06 596.06,-186.68 591.88,-157.83"/>
<polygon fill="#63b8ff" stroke="#63b8ff" points="595.21,-157.46 590.32,-148.07 588.29,-158.47 595.21,-157.46"/>
</g>
<!-- Node6 -->
<g id="node6" class="node">
<title>Node6</title>
<g id="a_node6"><a xlink:href="v8config_8h.html" target="_top" xlink:title=" ">
<polygon fill="white" stroke="#666666" points="488.75,-80.12 429.25,-80.12 429.25,-60.88 488.75,-60.88 488.75,-80.12"/>
<text text-anchor="middle" x="459" y="-66.62" font-family="Helvetica,sans-Serif" font-size="10.00">v8config.h</text>
</a>
</g>
</g>
<!-- Node2&#45;&gt;Node6 -->
<g id="edge17" class="edge">
<title>Node2&#45;&gt;Node6</title>
<path fill="none" stroke="#63b8ff" d="M601.21,-260C578.23,-229.54 503.1,-129.95 472.33,-89.16"/>
<polygon fill="#63b8ff" stroke="#63b8ff" points="474.65,-87.43 465.83,-81.55 469.06,-91.64 474.65,-87.43"/>
</g>
<!-- Node7 -->
<g id="node7" class="node">
<title>Node7</title>
<g id="a_node7"><a xlink:href="custom-space_8h.html" target="_top" xlink:title=" ">
<polygon fill="white" stroke="#666666" points="1004.12,-146.62 889.88,-146.62 889.88,-127.38 1004.12,-127.38 1004.12,-146.62"/>
<text text-anchor="middle" x="947" y="-133.12" font-family="Helvetica,sans-Serif" font-size="10.00">cppgc/custom&#45;space.h</text>
</a>
</g>
</g>
<!-- Node2&#45;&gt;Node7 -->
<g id="edge6" class="edge">
<title>Node2&#45;&gt;Node7</title>
<path fill="none" stroke="#63b8ff" d="M641.62,-259.92C674.68,-250.68 726.39,-235.38 770,-218.75 824.05,-198.13 885.01,-168.96 919.44,-151.9"/>
<polygon fill="#63b8ff" stroke="#63b8ff" points="920.84,-154.62 928.23,-147.02 917.72,-148.35 920.84,-154.62"/>
</g>
<!-- Node9 -->
<g id="node9" class="node">
<title>Node9</title>
<g id="a_node9"><a xlink:href="platform_8h.html" target="_top" xlink:title=" ">
<polygon fill="white" stroke="#666666" points="761,-213.12 673,-213.12 673,-193.88 761,-193.88 761,-213.12"/>
<text text-anchor="middle" x="717" y="-199.62" font-family="Helvetica,sans-Serif" font-size="10.00">cppgc/platform.h</text>
</a>
</g>
</g>
<!-- Node2&#45;&gt;Node9 -->
<g id="edge8" class="edge">
<title>Node2&#45;&gt;Node9</title>
<path fill="none" stroke="#63b8ff" d="M623.16,-260.03C641.03,-249.45 671,-231.72 692.26,-219.14"/>
<polygon fill="#63b8ff" stroke="#63b8ff" points="693.8,-221.71 700.62,-213.6 690.23,-215.68 693.8,-221.71"/>
</g>
<!-- Node5&#45;&gt;Node6 -->
<g id="edge5" class="edge">
<title>Node5&#45;&gt;Node6</title>
<path fill="none" stroke="#63b8ff" d="M570.65,-126.9C548.87,-116.09 512.33,-97.96 487.01,-85.4"/>
<polygon fill="#63b8ff" stroke="#63b8ff" points="488.77,-81.87 478.26,-80.56 485.66,-88.14 488.77,-81.87"/>
</g>
<!-- Node8 -->
<g id="node8" class="node">
<title>Node8</title>
<g id="a_node8"><a xlink:title=" ">
<polygon fill="#e0e0e0" stroke="#999999" points="919.25,-80.12 868.75,-80.12 868.75,-60.88 919.25,-60.88 919.25,-80.12"/>
<text text-anchor="middle" x="894" y="-66.62" font-family="Helvetica,sans-Serif" font-size="10.00">stddef.h</text>
</a>
</g>
</g>
<!-- Node7&#45;&gt;Node8 -->
<g id="edge7" class="edge">
<title>Node7&#45;&gt;Node8</title>
<path fill="none" stroke="#63b8ff" d="M939.63,-127.03C931.48,-117.12 918.17,-100.91 908.02,-88.56"/>
<polygon fill="#63b8ff" stroke="#63b8ff" points="910.36,-86.9 901.31,-81.39 904.95,-91.34 910.36,-86.9"/>
</g>
<!-- Node9&#45;&gt;Node6 -->
<g id="edge16" class="edge">
<title>Node9&#45;&gt;Node6</title>
<path fill="none" stroke="#63b8ff" d="M711.28,-193.45C700.21,-176.68 674.17,-140.76 643,-121.75 598.39,-94.54 538.87,-81.78 499.76,-76"/>
<polygon fill="#63b8ff" stroke="#63b8ff" points="500.45,-72.42 490.06,-74.51 499.49,-79.35 500.45,-72.42"/>
</g>
<!-- Node10 -->
<g id="node10" class="node">
<title>Node10</title>
<g id="a_node10"><a xlink:href="v8-platform_8h.html" target="_top" xlink:title=" ">
<polygon fill="white" stroke="#666666" points="872.12,-146.62 799.88,-146.62 799.88,-127.38 872.12,-127.38 872.12,-146.62"/>
<text text-anchor="middle" x="836" y="-133.12" font-family="Helvetica,sans-Serif" font-size="10.00">v8&#45;platform.h</text>
</a>
</g>
</g>
<!-- Node9&#45;&gt;Node10 -->
<g id="edge9" class="edge">
<title>Node9&#45;&gt;Node10</title>
<path fill="none" stroke="#63b8ff" d="M733.8,-193.4C753.55,-182.69 786.59,-164.78 809.74,-152.24"/>
<polygon fill="#63b8ff" stroke="#63b8ff" points="811.16,-154.9 818.29,-147.06 807.83,-148.75 811.16,-154.9"/>
</g>
<!-- Node10&#45;&gt;Node3 -->
<g id="edge13" class="edge">
<title>Node10&#45;&gt;Node3</title>
<path fill="none" stroke="#63b8ff" d="M859.43,-126.9C887.98,-115.8 936.4,-96.99 968.78,-84.41"/>
<polygon fill="#63b8ff" stroke="#63b8ff" points="969.63,-87.44 977.69,-80.56 967.1,-80.92 969.63,-87.44"/>
</g>
<!-- Node10&#45;&gt;Node6 -->
<g id="edge15" class="edge">
<title>Node10&#45;&gt;Node6</title>
<path fill="none" stroke="#63b8ff" d="M810.02,-127.01C803.84,-125.09 797.23,-123.2 791,-121.75 736.27,-109.03 575.72,-86.97 499.74,-76.85"/>
<polygon fill="#63b8ff" stroke="#63b8ff" points="500.54,-73.3 490.17,-75.45 499.62,-80.24 500.54,-73.3"/>
</g>
<!-- Node10&#45;&gt;Node8 -->
<g id="edge10" class="edge">
<title>Node10&#45;&gt;Node8</title>
<path fill="none" stroke="#63b8ff" d="M844.06,-127.03C852.98,-117.12 867.55,-100.91 878.66,-88.56"/>
<polygon fill="#63b8ff" stroke="#63b8ff" points="880.92,-91.17 885,-81.39 875.71,-86.49 880.92,-91.17"/>
</g>
<!-- Node11 -->
<g id="node11" class="node">
<title>Node11</title>
<g id="a_node11"><a xlink:title=" ">
<polygon fill="#e0e0e0" stroke="#999999" points="768.75,-80.12 721.25,-80.12 721.25,-60.88 768.75,-60.88 768.75,-80.12"/>
<text text-anchor="middle" x="745" y="-66.62" font-family="Helvetica,sans-Serif" font-size="10.00">stdint.h</text>
</a>
</g>
</g>
<!-- Node10&#45;&gt;Node11 -->
<g id="edge11" class="edge">
<title>Node10&#45;&gt;Node11</title>
<path fill="none" stroke="#63b8ff" d="M823.35,-127.03C808.62,-116.6 784.08,-99.2 766.38,-86.65"/>
<polygon fill="#63b8ff" stroke="#63b8ff" points="769.02,-83.53 758.84,-80.6 764.97,-89.24 769.02,-83.53"/>
</g>
<!-- Node12 -->
<g id="node12" class="node">
<title>Node12</title>
<g id="a_node12"><a xlink:title=" ">
<polygon fill="#e0e0e0" stroke="#999999" points="850.38,-80.12 803.62,-80.12 803.62,-60.88 850.38,-60.88 850.38,-80.12"/>
<text text-anchor="middle" x="827" y="-66.62" font-family="Helvetica,sans-Serif" font-size="10.00">stdlib.h</text>
</a>
</g>
</g>
<!-- Node10&#45;&gt;Node12 -->
<g id="edge12" class="edge">
<title>Node10&#45;&gt;Node12</title>
<path fill="none" stroke="#63b8ff" d="M834.75,-127.03C833.46,-117.79 831.41,-103.08 829.74,-91.13"/>
<polygon fill="#63b8ff" stroke="#63b8ff" points="833.09,-90.81 828.24,-81.39 826.16,-91.78 833.09,-90.81"/>
</g>
<!-- Node13 -->
<g id="node13" class="node">
<title>Node13</title>
<g id="a_node13"><a xlink:title=" ">
<polygon fill="#e0e0e0" stroke="#999999" points="620,-80.12 580,-80.12 580,-60.88 620,-60.88 620,-80.12"/>
<text text-anchor="middle" x="600" y="-66.62" font-family="Helvetica,sans-Serif" font-size="10.00">string</text>
</a>
</g>
</g>
<!-- Node10&#45;&gt;Node13 -->
<g id="edge14" class="edge">
<title>Node10&#45;&gt;Node13</title>
<path fill="none" stroke="#63b8ff" d="M807.98,-126.89C802.37,-125.13 796.51,-123.35 791,-121.75 734.8,-105.47 668.65,-88.56 630.79,-79.1"/>
<polygon fill="#63b8ff" stroke="#63b8ff" points="631.99,-75.55 621.44,-76.53 630.3,-82.34 631.99,-75.55"/>
</g>
<!-- Node14&#45;&gt;Node2 -->
<g id="edge19" class="edge">
<title>Node14&#45;&gt;Node2</title>
<path fill="none" stroke="#63b8ff" d="M488.2,-376.17C510.13,-356.92 562.01,-311.37 589.76,-287.02"/>
<polygon fill="#63b8ff" stroke="#63b8ff" points="591.64,-289.14 596.85,-279.91 587.02,-283.88 591.64,-289.14"/>
</g>
<!-- Node14&#45;&gt;Node6 -->
<g id="edge48" class="edge">
<title>Node14&#45;&gt;Node6</title>
<path fill="none" stroke="#63b8ff" d="M478,-376.25C478,-357.05 478,-310.23 478,-271 478,-271 478,-271 478,-202.5 478,-162.43 469.18,-116.16 463.56,-90.74"/>
<polygon fill="#63b8ff" stroke="#63b8ff" points="466.82,-90.3 461.18,-81.33 460,-91.86 466.82,-90.3"/>
</g>
<!-- Node15 -->
<g id="node15" class="node">
<title>Node15</title>
<g id="a_node15"><a xlink:href="member_8h.html" target="_top" xlink:title=" ">
<polygon fill="white" stroke="#666666" points="326,-340.5 238,-340.5 238,-321.25 326,-321.25 326,-340.5"/>
<text text-anchor="middle" x="282" y="-327" font-family="Helvetica,sans-Serif" font-size="10.00">cppgc/member.h</text>
</a>
</g>
</g>
<!-- Node14&#45;&gt;Node15 -->
<g id="edge20" class="edge">
<title>Node14&#45;&gt;Node15</title>
<path fill="none" stroke="#63b8ff" d="M444.75,-376.09C411.95,-367.18 361.62,-353.51 325.62,-343.73"/>
<polygon fill="#63b8ff" stroke="#63b8ff" points="326.98,-340.2 316.41,-340.95 325.14,-346.95 326.98,-340.2"/>
</g>
<!-- Node27 -->
<g id="node27" class="node">
<title>Node27</title>
<g id="a_node27"><a xlink:href="trace-trait_8h.html" target="_top" xlink:title=" ">
<polygon fill="white" stroke="#666666" points="94,-340.5 0,-340.5 0,-321.25 94,-321.25 94,-340.5"/>
<text text-anchor="middle" x="47" y="-327" font-family="Helvetica,sans-Serif" font-size="10.00">cppgc/trace&#45;trait.h</text>
</a>
</g>
</g>
<!-- Node14&#45;&gt;Node27 -->
<g id="edge44" class="edge">
<title>Node14&#45;&gt;Node27</title>
<path fill="none" stroke="#63b8ff" d="M418.52,-377.78C335.84,-367.56 187.12,-349.19 105.15,-339.06"/>
<polygon fill="#63b8ff" stroke="#63b8ff" points="105.63,-335.47 95.28,-337.72 104.78,-342.42 105.63,-335.47"/>
</g>
<!-- Node15&#45;&gt;Node6 -->
<g id="edge43" class="edge">
<title>Node15&#45;&gt;Node6</title>
<path fill="none" stroke="#63b8ff" d="M297.4,-320.9C310.98,-312.6 330.88,-299.43 346,-285.25 373.57,-259.39 379.9,-251.36 399,-218.75 424.26,-175.62 443.8,-119.85 453.08,-90.88"/>
<polygon fill="#63b8ff" stroke="#63b8ff" points="456.67,-92.13 456.32,-81.54 449.99,-90.04 456.67,-92.13"/>
</g>
<!-- Node16 -->
<g id="node16" class="node">
<title>Node16</title>
<g id="a_node16"><a xlink:title=" ">
<polygon fill="#e0e0e0" stroke="#999999" points="122.62,-19.25 77.38,-19.25 77.38,0 122.62,0 122.62,-19.25"/>
<text text-anchor="middle" x="100" y="-5.75" font-family="Helvetica,sans-Serif" font-size="10.00">atomic</text>
</a>
</g>
</g>
<!-- Node15&#45;&gt;Node16 -->
<g id="edge21" class="edge">
<title>Node15&#45;&gt;Node16</title>
<path fill="none" stroke="#63b8ff" d="M267.44,-320.87C254.08,-312.34 233.99,-298.86 218,-285.25 172.28,-246.35 168.84,-228.17 124,-188.25 104.35,-170.75 88.65,-175.84 77,-152.25 72.74,-143.63 70.26,-87.37 78,-55.25 80.17,-46.24 84.38,-36.95 88.55,-29.19"/>
<polygon fill="#63b8ff" stroke="#63b8ff" points="92.04,-31.15 94,-20.74 85.97,-27.65 92.04,-31.15"/>
</g>
<!-- Node17 -->
<g id="node17" class="node">
<title>Node17</title>
<g id="a_node17"><a xlink:title=" ">
<polygon fill="#e0e0e0" stroke="#999999" points="450.12,-279.62 401.88,-279.62 401.88,-260.38 450.12,-260.38 450.12,-279.62"/>
<text text-anchor="middle" x="426" y="-266.12" font-family="Helvetica,sans-Serif" font-size="10.00">cstddef</text>
</a>
</g>
</g>
<!-- Node15&#45;&gt;Node17 -->
<g id="edge22" class="edge">
<title>Node15&#45;&gt;Node17</title>
<path fill="none" stroke="#63b8ff" d="M304.18,-320.8C328.25,-310.97 366.88,-295.17 394.17,-284.01"/>
<polygon fill="#63b8ff" stroke="#63b8ff" points="395.1,-287.01 403.03,-279.98 392.45,-280.53 395.1,-287.01"/>
</g>
<!-- Node18 -->
<g id="node18" class="node">
<title>Node18</title>
<g id="a_node18"><a xlink:title=" ">
<polygon fill="#e0e0e0" stroke="#999999" points="115.5,-213.12 54.5,-213.12 54.5,-193.88 115.5,-193.88 115.5,-213.12"/>
<text text-anchor="middle" x="85" y="-199.62" font-family="Helvetica,sans-Serif" font-size="10.00">type_traits</text>
</a>
</g>
</g>
<!-- Node15&#45;&gt;Node18 -->
<g id="edge23" class="edge">
<title>Node15&#45;&gt;Node18</title>
<path fill="none" stroke="#63b8ff" d="M258.03,-320.8C237.87,-312.71 208.63,-299.91 185,-285.25 153.9,-265.96 121.6,-238.24 102.41,-220.81"/>
<polygon fill="#63b8ff" stroke="#63b8ff" points="105.06,-218.57 95.33,-214.38 100.32,-223.72 105.06,-218.57"/>
</g>
<!-- Node19 -->
<g id="node19" class="node">
<title>Node19</title>
<g id="a_node19"><a xlink:href="pointer-policies_8h.html" target="_top" xlink:title=" ">
<polygon fill="white" stroke="#666666" points="336.5,-285.25 227.5,-285.25 227.5,-254.75 336.5,-254.75 336.5,-285.25"/>
<text text-anchor="start" x="235.5" y="-271.75" font-family="Helvetica,sans-Serif" font-size="10.00">cppgc/internal/pointer</text>
<text text-anchor="middle" x="282" y="-260.5" font-family="Helvetica,sans-Serif" font-size="10.00">&#45;policies.h</text>
</a>
</g>
</g>
<!-- Node15&#45;&gt;Node19 -->
<g id="edge24" class="edge">
<title>Node15&#45;&gt;Node19</title>
<path fill="none" stroke="#63b8ff" d="M282,-320.93C282,-314.4 282,-305.2 282,-296.47"/>
<polygon fill="#63b8ff" stroke="#63b8ff" points="285.5,-296.53 282,-286.53 278.5,-296.53 285.5,-296.53"/>
</g>
<!-- Node26 -->
<g id="node26" class="node">
<title>Node26</title>
<g id="a_node26"><a xlink:href="type-traits_8h.html" target="_top" xlink:title=" ">
<polygon fill="white" stroke="#666666" points="132.75,-279.62 37.25,-279.62 37.25,-260.38 132.75,-260.38 132.75,-279.62"/>
<text text-anchor="middle" x="85" y="-266.12" font-family="Helvetica,sans-Serif" font-size="10.00">cppgc/type&#45;traits.h</text>
</a>
</g>
</g>
<!-- Node15&#45;&gt;Node26 -->
<g id="edge41" class="edge">
<title>Node15&#45;&gt;Node26</title>
<path fill="none" stroke="#63b8ff" d="M251.65,-320.8C217.81,-310.69 162.93,-294.29 125.46,-283.09"/>
<polygon fill="#63b8ff" stroke="#63b8ff" points="126.97,-279.59 116.38,-280.08 124.96,-286.3 126.97,-279.59"/>
</g>
<!-- Node19&#45;&gt;Node6 -->
<g id="edge40" class="edge">
<title>Node19&#45;&gt;Node6</title>
<path fill="none" stroke="#63b8ff" d="M242.08,-254.35C226.35,-246.38 209.93,-234.8 201,-218.75 194.41,-206.9 195.98,-200.84 201,-188.25 234.65,-103.8 354.28,-80.44 418.14,-73.97"/>
<polygon fill="#63b8ff" stroke="#63b8ff" points="418.36,-77.38 428,-72.98 417.73,-70.4 418.36,-77.38"/>
</g>
<!-- Node19&#45;&gt;Node18 -->
<g id="edge26" class="edge">
<title>Node19&#45;&gt;Node18</title>
<path fill="none" stroke="#63b8ff" d="M237.3,-254.36C202.78,-243.06 155.54,-227.6 122.87,-216.9"/>
<polygon fill="#63b8ff" stroke="#63b8ff" points="124.4,-213.39 113.81,-213.6 122.22,-220.04 124.4,-213.39"/>
</g>
<!-- Node20 -->
<g id="node20" class="node">
<title>Node20</title>
<g id="a_node20"><a xlink:title=" ">
<polygon fill="#e0e0e0" stroke="#999999" points="373.62,-213.12 328.38,-213.12 328.38,-193.88 373.62,-193.88 373.62,-213.12"/>
<text text-anchor="middle" x="351" y="-199.62" font-family="Helvetica,sans-Serif" font-size="10.00">cstdint</text>
</a>
</g>
</g>
<!-- Node19&#45;&gt;Node20 -->
<g id="edge25" class="edge">
<title>Node19&#45;&gt;Node20</title>
<path fill="none" stroke="#63b8ff" d="M297.66,-254.36C308.43,-244.29 322.74,-230.92 333.82,-220.56"/>
<polygon fill="#63b8ff" stroke="#63b8ff" points="335.65,-223.71 340.56,-214.32 330.87,-218.59 335.65,-223.71"/>
</g>
<!-- Node21 -->
<g id="node21" class="node">
<title>Node21</title>
<g id="a_node21"><a xlink:href="write-barrier_8h.html" target="_top" xlink:title=" ">
<polygon fill="white" stroke="#666666" points="310.38,-218.75 209.62,-218.75 209.62,-188.25 310.38,-188.25 310.38,-218.75"/>
<text text-anchor="start" x="217.62" y="-205.25" font-family="Helvetica,sans-Serif" font-size="10.00">cppgc/internal/write</text>
<text text-anchor="middle" x="260" y="-194" font-family="Helvetica,sans-Serif" font-size="10.00">&#45;barrier.h</text>
</a>
</g>
</g>
<!-- Node19&#45;&gt;Node21 -->
<g id="edge27" class="edge">
<title>Node19&#45;&gt;Node21</title>
<path fill="none" stroke="#63b8ff" d="M277.01,-254.36C274.48,-246.94 271.33,-237.72 268.44,-229.24"/>
<polygon fill="#63b8ff" stroke="#63b8ff" points="271.51,-228.41 264.97,-220.08 264.89,-230.67 271.51,-228.41"/>
</g>
<!-- Node25 -->
<g id="node25" class="node">
<title>Node25</title>
<g id="a_node25"><a xlink:href="source-location_8h.html" target="_top" xlink:title=" ">
<polygon fill="white" stroke="#666666" points="412.38,-146.62 293.62,-146.62 293.62,-127.38 412.38,-127.38 412.38,-146.62"/>
<text text-anchor="middle" x="353" y="-133.12" font-family="Helvetica,sans-Serif" font-size="10.00">cppgc/source&#45;location.h</text>
</a>
</g>
</g>
<!-- Node19&#45;&gt;Node25 -->
<g id="edge37" class="edge">
<title>Node19&#45;&gt;Node25</title>
<path fill="none" stroke="#63b8ff" d="M336.79,-254.54C354.67,-246.94 372.58,-235.57 383,-218.75 395.49,-198.58 380.98,-172.4 368.14,-155.41"/>
<polygon fill="#63b8ff" stroke="#63b8ff" points="370.36,-153.59 361.36,-148.01 364.92,-157.99 370.36,-153.59"/>
</g>
<!-- Node21&#45;&gt;Node6 -->
<g id="edge36" class="edge">
<title>Node21&#45;&gt;Node6</title>
<path fill="none" stroke="#63b8ff" d="M260.49,-187.83C261.89,-169.8 266.98,-139.43 285,-121.75 320.62,-86.8 378.95,-75.87 418.14,-72.61"/>
<polygon fill="#63b8ff" stroke="#63b8ff" points="418.17,-76.05 427.9,-71.87 417.68,-69.07 418.17,-76.05"/>
</g>
<!-- Node22 -->
<g id="node22" class="node">
<title>Node22</title>
<g id="a_node22"><a xlink:href="api-constants_8h.html" target="_top" xlink:title=" ">
<polygon fill="white" stroke="#666666" points="782.25,-152.25 689.75,-152.25 689.75,-121.75 782.25,-121.75 782.25,-152.25"/>
<text text-anchor="start" x="697.75" y="-138.75" font-family="Helvetica,sans-Serif" font-size="10.00">cppgc/internal/api</text>
<text text-anchor="middle" x="736" y="-127.5" font-family="Helvetica,sans-Serif" font-size="10.00">&#45;constants.h</text>
</a>
</g>
</g>
<!-- Node21&#45;&gt;Node22 -->
<g id="edge28" class="edge">
<title>Node21&#45;&gt;Node22</title>
<path fill="none" stroke="#63b8ff" d="M310.76,-189.81C313.54,-189.25 316.3,-188.72 319,-188.25 461.7,-163.19 499.36,-171.23 643,-152.25 654.65,-150.71 667.11,-148.91 678.99,-147.12"/>
<polygon fill="#63b8ff" stroke="#63b8ff" points="679.34,-150.45 688.7,-145.48 678.28,-143.53 679.34,-150.45"/>
</g>
<!-- Node23 -->
<g id="node23" class="node">
<title>Node23</title>
<g id="a_node23"><a xlink:href="process-heap_8h.html" target="_top" xlink:title=" ">
<polygon fill="white" stroke="#666666" points="200.12,-152.25 85.88,-152.25 85.88,-121.75 200.12,-121.75 200.12,-152.25"/>
<text text-anchor="start" x="93.88" y="-138.75" font-family="Helvetica,sans-Serif" font-size="10.00">cppgc/internal/process</text>
<text text-anchor="middle" x="143" y="-127.5" font-family="Helvetica,sans-Serif" font-size="10.00">&#45;heap.h</text>
</a>
</g>
</g>
<!-- Node21&#45;&gt;Node23 -->
<g id="edge32" class="edge">
<title>Node21&#45;&gt;Node23</title>
<path fill="none" stroke="#63b8ff" d="M233.45,-187.86C217.29,-178.96 196.45,-167.47 178.84,-157.76"/>
<polygon fill="#63b8ff" stroke="#63b8ff" points="180.89,-154.34 170.44,-152.58 177.51,-160.47 180.89,-154.34"/>
</g>
<!-- Node22&#45;&gt;Node6 -->
<g id="edge31" class="edge">
<title>Node22&#45;&gt;Node6</title>
<path fill="none" stroke="#63b8ff" d="M689.49,-124.93C684.93,-123.85 680.38,-122.78 676,-121.75 614.57,-107.34 543.29,-90.89 499.67,-80.85"/>
<polygon fill="#63b8ff" stroke="#63b8ff" points="500.73,-77.27 490.2,-78.44 499.16,-84.09 500.73,-77.27"/>
</g>
<!-- Node22&#45;&gt;Node8 -->
<g id="edge29" class="edge">
<title>Node22&#45;&gt;Node8</title>
<path fill="none" stroke="#63b8ff" d="M771.85,-121.36C798.9,-110.32 835.68,-95.31 861.8,-84.65"/>
<polygon fill="#63b8ff" stroke="#63b8ff" points="862.99,-87.53 870.93,-80.51 860.35,-81.05 862.99,-87.53"/>
</g>
<!-- Node22&#45;&gt;Node11 -->
<g id="edge30" class="edge">
<title>Node22&#45;&gt;Node11</title>
<path fill="none" stroke="#63b8ff" d="M738.04,-121.36C739.3,-112.38 740.92,-100.76 742.28,-91.01"/>
<polygon fill="#63b8ff" stroke="#63b8ff" points="745.85,-91.71 743.77,-81.32 738.92,-90.74 745.85,-91.71"/>
</g>
<!-- Node23&#45;&gt;Node6 -->
<g id="edge35" class="edge">
<title>Node23&#45;&gt;Node6</title>
<path fill="none" stroke="#63b8ff" d="M200.59,-124.24C263.68,-111.37 363.23,-91.05 418.54,-79.76"/>
<polygon fill="#63b8ff" stroke="#63b8ff" points="418.89,-83.05 427.99,-77.63 417.49,-76.2 418.89,-83.05"/>
</g>
<!-- Node24 -->
<g id="node24" class="node">
<title>Node24</title>
<g id="a_node24"><a xlink:href="atomic-entry-flag_8h.html" target="_top" xlink:title=" ">
<polygon fill="white" stroke="#666666" points="196.5,-85.75 87.5,-85.75 87.5,-55.25 196.5,-55.25 196.5,-85.75"/>
<text text-anchor="start" x="95.5" y="-72.25" font-family="Helvetica,sans-Serif" font-size="10.00">cppgc/internal/atomic</text>
<text text-anchor="middle" x="142" y="-61" font-family="Helvetica,sans-Serif" font-size="10.00">&#45;entry&#45;flag.h</text>
</a>
</g>
</g>
<!-- Node23&#45;&gt;Node24 -->
<g id="edge33" class="edge">
<title>Node23&#45;&gt;Node24</title>
<path fill="none" stroke="#63b8ff" d="M142.77,-121.36C142.66,-114.11 142.52,-105.13 142.39,-96.81"/>
<polygon fill="#63b8ff" stroke="#63b8ff" points="145.88,-97.02 142.23,-87.08 138.88,-97.13 145.88,-97.02"/>
</g>
<!-- Node24&#45;&gt;Node16 -->
<g id="edge34" class="edge">
<title>Node24&#45;&gt;Node16</title>
<path fill="none" stroke="#63b8ff" d="M131.62,-54.95C125.9,-46.93 118.76,-36.92 112.71,-28.44"/>
<polygon fill="#63b8ff" stroke="#63b8ff" points="115.13,-26.81 106.47,-20.7 109.43,-30.87 115.13,-26.81"/>
</g>
<!-- Node25&#45;&gt;Node6 -->
<g id="edge39" class="edge">
<title>Node25&#45;&gt;Node6</title>
<path fill="none" stroke="#63b8ff" d="M367.74,-127.03C385.04,-116.5 414,-98.88 434.66,-86.31"/>
<polygon fill="#63b8ff" stroke="#63b8ff" points="436.32,-88.79 443.04,-80.6 432.68,-82.81 436.32,-88.79"/>
</g>
<!-- Node25&#45;&gt;Node13 -->
<g id="edge38" class="edge">
<title>Node25&#45;&gt;Node13</title>
<path fill="none" stroke="#63b8ff" d="M387.87,-126.9C436.27,-114.26 523.06,-91.59 569.2,-79.54"/>
<polygon fill="#63b8ff" stroke="#63b8ff" points="569.95,-82.7 578.74,-76.79 568.18,-75.93 569.95,-82.7"/>
</g>
<!-- Node26&#45;&gt;Node18 -->
<g id="edge42" class="edge">
<title>Node26&#45;&gt;Node18</title>
<path fill="none" stroke="#63b8ff" d="M85,-260.03C85,-250.79 85,-236.08 85,-224.13"/>
<polygon fill="#63b8ff" stroke="#63b8ff" points="88.5,-224.39 85,-214.39 81.5,-224.39 88.5,-224.39"/>
</g>
<!-- Node27&#45;&gt;Node6 -->
<g id="edge47" class="edge">
<title>Node27&#45;&gt;Node6</title>
<path fill="none" stroke="#63b8ff" d="M39.87,-320.95C33.5,-312.37 24.65,-298.75 21,-285.25 17.47,-272.16 18.66,-268.1 21,-254.75 32.05,-191.57 25.05,-159.36 77,-121.75 130.79,-82.81 330.92,-74.05 418.04,-72.07"/>
<polygon fill="#63b8ff" stroke="#63b8ff" points="417.9,-75.56 427.83,-71.85 417.76,-68.56 417.9,-75.56"/>
</g>
<!-- Node27&#45;&gt;Node18 -->
<g id="edge45" class="edge">
<title>Node27&#45;&gt;Node18</title>
<path fill="none" stroke="#63b8ff" d="M41.21,-321.21C32.4,-306.88 17.7,-277.56 28,-254.75 34.58,-240.19 47.69,-228.16 59.68,-219.52"/>
<polygon fill="#63b8ff" stroke="#63b8ff" points="61.16,-222.07 67.51,-213.59 57.25,-216.26 61.16,-222.07"/>
</g>
<!-- Node27&#45;&gt;Node26 -->
<g id="edge46" class="edge">
<title>Node27&#45;&gt;Node26</title>
<path fill="none" stroke="#63b8ff" d="M52.77,-320.93C58.18,-312.55 66.44,-299.76 73.24,-289.22"/>
<polygon fill="#63b8ff" stroke="#63b8ff" points="76.69,-291.33 79.17,-281.03 70.81,-287.53 76.69,-291.33"/>
</g>
</g>
</svg>
