<?xml version="1.0" encoding="UTF-8" standalone="no"?>
<!DOCTYPE svg PUBLIC "-//W3C//DTD SVG 1.1//EN"
 "http://www.w3.org/Graphics/SVG/1.1/DTD/svg11.dtd">
<!-- Generated by graphviz version 8.0.5 (20230430.1635)
 -->
<!-- Title: cppgc::internal::BasicMember::operator= Pages: 1 -->
<svg width="705pt" height="57pt"
 viewBox="0.00 0.00 705.00 56.50" xmlns="http://www.w3.org/2000/svg" xmlns:xlink="http://www.w3.org/1999/xlink">
<g id="graph0" class="graph" transform="scale(1 1) rotate(0) translate(4 52.5)">
<title>cppgc::internal::BasicMember::operator=</title>
<!-- Node1 -->
<g id="node1" class="node">
<title>Node1</title>
<g id="a_node1"><a xlink:title=" ">
<polygon fill="#999999" stroke="#666666" points="142.75,-30.5 0,-30.5 0,0 142.75,0 142.75,-30.5"/>
<text text-anchor="start" x="8" y="-17" font-family="Helvetica,sans-Serif" font-size="10.00">cppgc::internal::BasicMember</text>
<text text-anchor="middle" x="71.38" y="-5.75" font-family="Helvetica,sans-Serif" font-size="10.00">::operator=</text>
</a>
</g>
</g>
<!-- Node2 -->
<g id="node2" class="node">
<title>Node2</title>
<g id="a_node2"><a xlink:href="classcppgc_1_1internal_1_1BasicMember.html#abe0688e901473e5e94109602a73c79f6" target="_top" xlink:title=" ">
<polygon fill="white" stroke="#666666" points="321.5,-30.5 178.75,-30.5 178.75,0 321.5,0 321.5,-30.5"/>
<text text-anchor="start" x="186.75" y="-17" font-family="Helvetica,sans-Serif" font-size="10.00">cppgc::internal::BasicMember</text>
<text text-anchor="middle" x="250.12" y="-5.75" font-family="Helvetica,sans-Serif" font-size="10.00">::operator=</text>
</a>
</g>
</g>
<!-- Node1&#45;&gt;Node2 -->
<g id="edge1" class="edge">
<title>Node1&#45;&gt;Node2</title>
<path fill="none" stroke="#63b8ff" d="M143.25,-15.25C151.24,-15.25 159.43,-15.25 167.54,-15.25"/>
<polygon fill="#63b8ff" stroke="#63b8ff" points="167.52,-18.75 177.52,-15.25 167.52,-11.75 167.52,-18.75"/>
</g>
<!-- Node2&#45;&gt;Node2 -->
<g id="edge4" class="edge">
<title>Node2&#45;&gt;Node2</title>
<path fill="none" stroke="#63b8ff" d="M218.45,-30.99C211.99,-40.06 222.54,-48.5 250.12,-48.5 265.64,-48.5 275.77,-45.83 280.51,-41.88"/>
<polygon fill="#63b8ff" stroke="#63b8ff" points="284.1,-42.33 281.8,-31.99 277.15,-41.5 284.1,-42.33"/>
</g>
<!-- Node3 -->
<g id="node3" class="node">
<title>Node3</title>
<g id="a_node3"><a xlink:href="classcppgc_1_1internal_1_1BasicMember.html#ab047f8c2b8c817aca366ed03456f8f69" target="_top" xlink:title=" ">
<polygon fill="white" stroke="#666666" points="520.5,-24.88 357.5,-24.88 357.5,-5.63 520.5,-5.63 520.5,-24.88"/>
<text text-anchor="middle" x="439" y="-11.38" font-family="Helvetica,sans-Serif" font-size="10.00">cppgc::internal::BasicMember::Get</text>
</a>
</g>
</g>
<!-- Node2&#45;&gt;Node3 -->
<g id="edge2" class="edge">
<title>Node2&#45;&gt;Node3</title>
<path fill="none" stroke="#63b8ff" d="M321.77,-15.25C329.82,-15.25 338.11,-15.25 346.38,-15.25"/>
<polygon fill="#63b8ff" stroke="#63b8ff" points="346.22,-18.75 356.22,-15.25 346.22,-11.75 346.22,-18.75"/>
</g>
<!-- Node4 -->
<g id="node4" class="node">
<title>Node4</title>
<g id="a_node4"><a xlink:href="classcppgc_1_1internal_1_1MemberBase.html#a7a7e9f460524f8e23efddc27212cbe93" target="_top" xlink:title=" ">
<polygon fill="white" stroke="#666666" points="697,-30.5 556.5,-30.5 556.5,0 697,0 697,-30.5"/>
<text text-anchor="start" x="564.5" y="-17" font-family="Helvetica,sans-Serif" font-size="10.00">cppgc::internal::MemberBase</text>
<text text-anchor="middle" x="626.75" y="-5.75" font-family="Helvetica,sans-Serif" font-size="10.00">::GetRaw</text>
</a>
</g>
</g>
<!-- Node3&#45;&gt;Node4 -->
<g id="edge3" class="edge">
<title>Node3&#45;&gt;Node4</title>
<path fill="none" stroke="#63b8ff" d="M520.93,-15.25C529,-15.25 537.19,-15.25 545.25,-15.25"/>
<polygon fill="#63b8ff" stroke="#63b8ff" points="545.14,-18.75 555.14,-15.25 545.14,-11.75 545.14,-18.75"/>
</g>
</g>
</svg>
