<?xml version="1.0" encoding="UTF-8" standalone="no"?>
<!DOCTYPE svg PUBLIC "-//W3C//DTD SVG 1.1//EN"
 "http://www.w3.org/Graphics/SVG/1.1/DTD/svg11.dtd">
<!-- Generated by graphviz version 8.0.5 (20230430.1635)
 -->
<!-- Title: v8::UnwindState Pages: 1 -->
<svg width="242pt" height="164pt"
 viewBox="0.00 0.00 242.12 163.50" xmlns="http://www.w3.org/2000/svg" xmlns:xlink="http://www.w3.org/1999/xlink">
<g id="graph0" class="graph" transform="scale(1 1) rotate(0) translate(4 159.5)">
<title>v8::UnwindState</title>
<!-- Node1 -->
<g id="node1" class="node">
<title>Node1</title>
<g id="a_node1"><a xlink:title=" ">
<polygon fill="#999999" stroke="#666666" points="90.25,-19.25 3,-19.25 3,0 90.25,0 90.25,-19.25"/>
<text text-anchor="middle" x="46.62" y="-5.75" font-family="Helvetica,sans-Serif" font-size="10.00">v8::UnwindState</text>
</a>
</g>
</g>
<!-- Node2 -->
<g id="node2" class="node">
<title>Node2</title>
<g id="a_node2"><a xlink:href="structv8_1_1MemoryRange.html" target="_top" xlink:title=" ">
<polygon fill="white" stroke="#666666" points="93.25,-155.5 0,-155.5 0,-136.25 93.25,-136.25 93.25,-155.5"/>
<text text-anchor="middle" x="46.62" y="-142" font-family="Helvetica,sans-Serif" font-size="10.00">v8::MemoryRange</text>
</a>
</g>
</g>
<!-- Node2&#45;&gt;Node1 -->
<g id="edge1" class="edge">
<title>Node2&#45;&gt;Node1</title>
<path fill="none" stroke="#9a32cd" stroke-dasharray="5,2" d="M43.77,-125.15C42.36,-114.47 40.82,-101.04 40.12,-89 38.66,-63.65 42.75,-33.76 45.1,-19.31"/>
<polygon fill="#9a32cd" stroke="#9a32cd" points="40.4,-125.38 45.24,-134.81 47.34,-124.42 40.4,-125.38"/>
<text text-anchor="middle" x="90.88" y="-79.5" font-family="Helvetica,sans-Serif" font-size="10.00"> code_range</text>
<text text-anchor="middle" x="90.88" y="-68.25" font-family="Helvetica,sans-Serif" font-size="10.00">embedded_code_range</text>
</g>
<!-- Node3 -->
<g id="node3" class="node">
<title>Node3</title>
<g id="a_node3"><a xlink:href="structv8_1_1JSEntryStub.html" target="_top" xlink:title=" ">
<polygon fill="white" stroke="#666666" points="234.12,-87.38 149.12,-87.38 149.12,-68.12 234.12,-68.12 234.12,-87.38"/>
<text text-anchor="middle" x="191.62" y="-73.88" font-family="Helvetica,sans-Serif" font-size="10.00">v8::JSEntryStub</text>
</a>
</g>
</g>
<!-- Node2&#45;&gt;Node3 -->
<g id="edge3" class="edge">
<title>Node2&#45;&gt;Node3</title>
<path fill="none" stroke="#9a32cd" stroke-dasharray="5,2" d="M76.34,-131.33C104.94,-118.28 147.39,-98.92 172.01,-87.7"/>
<polygon fill="#9a32cd" stroke="#9a32cd" points="75.13,-128.49 67.48,-135.82 78.03,-134.85 75.13,-128.49"/>
<text text-anchor="middle" x="139.25" y="-108.75" font-family="Helvetica,sans-Serif" font-size="10.00"> code</text>
</g>
<!-- Node3&#45;&gt;Node1 -->
<g id="edge2" class="edge">
<title>Node3&#45;&gt;Node1</title>
<path fill="none" stroke="#9a32cd" stroke-dasharray="5,2" d="M161.91,-63.2C133.31,-50.15 90.86,-30.8 66.24,-19.57"/>
<polygon fill="#9a32cd" stroke="#9a32cd" points="160.22,-66.73 170.77,-67.69 163.12,-60.36 160.22,-66.73"/>
<text text-anchor="middle" x="157.62" y="-39" font-family="Helvetica,sans-Serif" font-size="10.00"> js_entry_stub</text>
</g>
</g>
</svg>
