<?xml version="1.0" encoding="UTF-8" standalone="no"?>
<!DOCTYPE svg PUBLIC "-//W3C//DTD SVG 1.1//EN"
 "http://www.w3.org/Graphics/SVG/1.1/DTD/svg11.dtd">
<!-- Generated by graphviz version 8.0.5 (20230430.1635)
 -->
<!-- Title: v8::PersistentValueMap::Set Pages: 1 -->
<svg width="678pt" height="272pt"
 viewBox="0.00 0.00 678.00 271.88" xmlns="http://www.w3.org/2000/svg" xmlns:xlink="http://www.w3.org/1999/xlink">
<g id="graph0" class="graph" transform="scale(1 1) rotate(0) translate(4 267.88)">
<title>v8::PersistentValueMap::Set</title>
<!-- Node1 -->
<g id="node1" class="node">
<title>Node1</title>
<g id="a_node1"><a xlink:title=" ">
<polygon fill="#999999" stroke="#666666" points="138.25,-184.25 0,-184.25 0,-165 138.25,-165 138.25,-184.25"/>
<text text-anchor="middle" x="69.12" y="-170.75" font-family="Helvetica,sans-Serif" font-size="10.00">v8::PersistentValueMap::Set</text>
</a>
</g>
</g>
<!-- Node2 -->
<g id="node2" class="node">
<title>Node2</title>
<g id="a_node2"><a xlink:href="classv8_1_1PersistentValueMapBase.html#adacf68ca7b9fb19deab68711a70a8313" target="_top" xlink:title=" ">
<polygon fill="white" stroke="#666666" points="315.5,-214.88 174.25,-214.88 174.25,-184.38 315.5,-184.38 315.5,-214.88"/>
<text text-anchor="start" x="182.25" y="-201.38" font-family="Helvetica,sans-Serif" font-size="10.00">v8::PersistentValueMapBase</text>
<text text-anchor="middle" x="244.88" y="-190.12" font-family="Helvetica,sans-Serif" font-size="10.00">::Leak</text>
</a>
</g>
</g>
<!-- Node1&#45;&gt;Node2 -->
<g id="edge1" class="edge">
<title>Node1&#45;&gt;Node2</title>
<path fill="none" stroke="#63b8ff" d="M138.3,-184.43C146.43,-185.6 154.79,-186.81 163.07,-188"/>
<polygon fill="#63b8ff" stroke="#63b8ff" points="162.5,-191.6 172.9,-189.56 163.5,-184.67 162.5,-191.6"/>
</g>
<!-- Node3 -->
<g id="node3" class="node">
<title>Node3</title>
<g id="a_node3"><a xlink:href="classv8_1_1PersistentValueMap.html#a69bb485985460550e40c08c7fe55f89c" target="_top" xlink:title=" ">
<polygon fill="white" stroke="#666666" points="304.25,-165.88 185.5,-165.88 185.5,-135.38 304.25,-135.38 304.25,-165.88"/>
<text text-anchor="start" x="193.5" y="-152.38" font-family="Helvetica,sans-Serif" font-size="10.00">v8::PersistentValueMap</text>
<text text-anchor="middle" x="244.88" y="-141.12" font-family="Helvetica,sans-Serif" font-size="10.00">::SetUnique</text>
</a>
</g>
</g>
<!-- Node1&#45;&gt;Node3 -->
<g id="edge2" class="edge">
<title>Node1&#45;&gt;Node3</title>
<path fill="none" stroke="#63b8ff" d="M138.3,-165.21C150.16,-163.57 162.51,-161.86 174.41,-160.22"/>
<polygon fill="#63b8ff" stroke="#63b8ff" points="174.76,-163.57 184.19,-158.73 173.8,-156.63 174.76,-163.57"/>
</g>
<!-- Node4 -->
<g id="node4" class="node">
<title>Node4</title>
<g id="a_node4"><a xlink:href="classv8_1_1PersistentValueMapBase.html#a243dfaf4ef5f9aa7bc178a660b14235a" target="_top" xlink:title=" ">
<polygon fill="white" stroke="#666666" points="492.75,-263.88 351.5,-263.88 351.5,-233.38 492.75,-233.38 492.75,-263.88"/>
<text text-anchor="start" x="359.5" y="-250.38" font-family="Helvetica,sans-Serif" font-size="10.00">v8::PersistentValueMapBase</text>
<text text-anchor="middle" x="422.12" y="-239.12" font-family="Helvetica,sans-Serif" font-size="10.00">::AnnotateStrongRetainer</text>
</a>
</g>
</g>
<!-- Node3&#45;&gt;Node4 -->
<g id="edge3" class="edge">
<title>Node3&#45;&gt;Node4</title>
<path fill="none" stroke="#63b8ff" d="M299.61,-166.24C305.22,-168.93 310.64,-172.04 315.5,-175.62 336.95,-191.46 330.05,-207.79 351.5,-223.62 353.62,-225.19 355.86,-226.67 358.17,-228.06"/>
<polygon fill="#63b8ff" stroke="#63b8ff" points="355.92,-231.37 366.39,-233.01 359.23,-225.2 355.92,-231.37"/>
</g>
<!-- Node6 -->
<g id="node6" class="node">
<title>Node6</title>
<g id="a_node6"><a xlink:href="classv8_1_1PersistentValueMapBase.html#a7b083c75829bbc4177729ffe9827c4ac" target="_top" xlink:title=" ">
<polygon fill="white" stroke="#666666" points="492.75,-214.88 351.5,-214.88 351.5,-184.38 492.75,-184.38 492.75,-214.88"/>
<text text-anchor="start" x="359.5" y="-201.38" font-family="Helvetica,sans-Serif" font-size="10.00">v8::PersistentValueMapBase</text>
<text text-anchor="middle" x="422.12" y="-190.12" font-family="Helvetica,sans-Serif" font-size="10.00">::ClearAndLeak</text>
</a>
</g>
</g>
<!-- Node3&#45;&gt;Node6 -->
<g id="edge5" class="edge">
<title>Node3&#45;&gt;Node6</title>
<path fill="none" stroke="#63b8ff" d="M301.81,-166.26C318.64,-170.97 337.27,-176.18 354.71,-181.06"/>
<polygon fill="#63b8ff" stroke="#63b8ff" points="353.25,-184.56 363.82,-183.88 355.13,-177.82 353.25,-184.56"/>
</g>
<!-- Node7 -->
<g id="node7" class="node">
<title>Node7</title>
<g id="a_node7"><a xlink:href="classv8_1_1PersistentValueMapBase.html#a149e5b7f40fa52dc9b379342ac802d94" target="_top" xlink:title=" ">
<polygon fill="white" stroke="#666666" points="492.75,-165.88 351.5,-165.88 351.5,-135.38 492.75,-135.38 492.75,-165.88"/>
<text text-anchor="start" x="359.5" y="-152.38" font-family="Helvetica,sans-Serif" font-size="10.00">v8::PersistentValueMapBase</text>
<text text-anchor="middle" x="422.12" y="-141.12" font-family="Helvetica,sans-Serif" font-size="10.00">::impl</text>
</a>
</g>
</g>
<!-- Node3&#45;&gt;Node7 -->
<g id="edge6" class="edge">
<title>Node3&#45;&gt;Node7</title>
<path fill="none" stroke="#63b8ff" d="M304.72,-150.62C316.14,-150.62 328.29,-150.62 340.27,-150.62"/>
<polygon fill="#63b8ff" stroke="#63b8ff" points="340.21,-154.13 350.21,-150.62 340.21,-147.13 340.21,-154.13"/>
</g>
<!-- Node8 -->
<g id="node8" class="node">
<title>Node8</title>
<g id="a_node8"><a xlink:href="classv8_1_1PersistentValueMapBase.html#ac15c999275fb50c0084246cb9a848811" target="_top" xlink:title=" ">
<polygon fill="white" stroke="#666666" points="492.75,-116.88 351.5,-116.88 351.5,-86.38 492.75,-86.38 492.75,-116.88"/>
<text text-anchor="start" x="359.5" y="-103.38" font-family="Helvetica,sans-Serif" font-size="10.00">v8::PersistentValueMapBase</text>
<text text-anchor="middle" x="422.12" y="-92.12" font-family="Helvetica,sans-Serif" font-size="10.00">::isolate</text>
</a>
</g>
</g>
<!-- Node3&#45;&gt;Node8 -->
<g id="edge7" class="edge">
<title>Node3&#45;&gt;Node8</title>
<path fill="none" stroke="#63b8ff" d="M301.81,-134.99C318.64,-130.28 337.27,-125.07 354.71,-120.19"/>
<polygon fill="#63b8ff" stroke="#63b8ff" points="355.13,-123.43 363.82,-117.37 353.25,-116.69 355.13,-123.43"/>
</g>
<!-- Node9 -->
<g id="node9" class="node">
<title>Node9</title>
<g id="a_node9"><a xlink:href="classv8_1_1PersistentValueMapBase.html#aea9af944a2bd71a3b6abd2a2e57788f1" target="_top" xlink:title=" ">
<polygon fill="white" stroke="#666666" points="492.75,-67.88 351.5,-67.88 351.5,-37.38 492.75,-37.38 492.75,-67.88"/>
<text text-anchor="start" x="359.5" y="-54.38" font-family="Helvetica,sans-Serif" font-size="10.00">v8::PersistentValueMapBase</text>
<text text-anchor="middle" x="422.12" y="-43.12" font-family="Helvetica,sans-Serif" font-size="10.00">::Release</text>
</a>
</g>
</g>
<!-- Node3&#45;&gt;Node9 -->
<g id="edge8" class="edge">
<title>Node3&#45;&gt;Node9</title>
<path fill="none" stroke="#63b8ff" d="M265.15,-135C285.62,-118.98 319.38,-94.13 351.5,-77.62 355.02,-75.82 358.7,-74.08 362.45,-72.43"/>
<polygon fill="#63b8ff" stroke="#63b8ff" points="363.61,-75.32 371.49,-68.25 360.92,-68.86 363.61,-75.32"/>
</g>
<!-- Node5 -->
<g id="node5" class="node">
<title>Node5</title>
<g id="a_node5"><a xlink:href="classv8_1_1PersistentBase.html#a27ddb6118b13225207e9641c1e6c8c91" target="_top" xlink:title=" ">
<polygon fill="white" stroke="#666666" points="661.38,-263.88 537.38,-263.88 537.38,-233.38 661.38,-233.38 661.38,-263.88"/>
<text text-anchor="start" x="545.38" y="-250.38" font-family="Helvetica,sans-Serif" font-size="10.00">v8::PersistentBase</text>
<text text-anchor="middle" x="599.38" y="-239.12" font-family="Helvetica,sans-Serif" font-size="10.00">::AnnotateStrongRetainer</text>
</a>
</g>
</g>
<!-- Node4&#45;&gt;Node5 -->
<g id="edge4" class="edge">
<title>Node4&#45;&gt;Node5</title>
<path fill="none" stroke="#63b8ff" d="M493.14,-248.62C504.01,-248.62 515.26,-248.62 526.17,-248.62"/>
<polygon fill="#63b8ff" stroke="#63b8ff" points="525.95,-252.13 535.95,-248.62 525.95,-245.13 525.95,-252.13"/>
</g>
<!-- Node10 -->
<g id="node10" class="node">
<title>Node10</title>
<g id="a_node10"><a xlink:href="classv8_1_1PersistentValueMapBase.html#abb262f768e4353658726ba4d1295947c" target="_top" xlink:title=" ">
<polygon fill="white" stroke="#666666" points="670,-116.88 528.75,-116.88 528.75,-86.38 670,-86.38 670,-116.88"/>
<text text-anchor="start" x="536.75" y="-103.38" font-family="Helvetica,sans-Serif" font-size="10.00">v8::PersistentValueMapBase</text>
<text text-anchor="middle" x="599.38" y="-92.12" font-family="Helvetica,sans-Serif" font-size="10.00">::FromVal</text>
</a>
</g>
</g>
<!-- Node9&#45;&gt;Node10 -->
<g id="edge9" class="edge">
<title>Node9&#45;&gt;Node10</title>
<path fill="none" stroke="#63b8ff" d="M479.06,-68.26C495.89,-72.97 514.52,-78.18 531.96,-83.06"/>
<polygon fill="#63b8ff" stroke="#63b8ff" points="530.5,-86.56 541.07,-85.88 532.38,-79.82 530.5,-86.56"/>
</g>
<!-- Node11 -->
<g id="node11" class="node">
<title>Node11</title>
<g id="a_node11"><a xlink:href="classv8_1_1PersistentBase.html#a479c7b146da083aa608e133a7dec79f9" target="_top" xlink:title=" ">
<polygon fill="white" stroke="#666666" points="648.25,-67.88 550.5,-67.88 550.5,-37.38 648.25,-37.38 648.25,-67.88"/>
<text text-anchor="start" x="558.5" y="-54.38" font-family="Helvetica,sans-Serif" font-size="10.00">v8::PersistentBase</text>
<text text-anchor="middle" x="599.38" y="-43.12" font-family="Helvetica,sans-Serif" font-size="10.00">::IsWeak</text>
</a>
</g>
</g>
<!-- Node9&#45;&gt;Node11 -->
<g id="edge10" class="edge">
<title>Node9&#45;&gt;Node11</title>
<path fill="none" stroke="#63b8ff" d="M493.14,-52.62C508.49,-52.62 524.58,-52.62 539.44,-52.62"/>
<polygon fill="#63b8ff" stroke="#63b8ff" points="539.01,-56.13 549.01,-52.62 539.01,-49.13 539.01,-56.13"/>
</g>
<!-- Node12 -->
<g id="node12" class="node">
<title>Node12</title>
<g id="a_node12"><a xlink:href="classv8_1_1Global.html#a914903149cc752468d4a3a11b6089c7e" target="_top" xlink:title=" ">
<polygon fill="white" stroke="#666666" points="642.25,-19.25 556.5,-19.25 556.5,0 642.25,0 642.25,-19.25"/>
<text text-anchor="middle" x="599.38" y="-5.75" font-family="Helvetica,sans-Serif" font-size="10.00">v8::Global::Pass</text>
</a>
</g>
</g>
<!-- Node9&#45;&gt;Node12 -->
<g id="edge11" class="edge">
<title>Node9&#45;&gt;Node12</title>
<path fill="none" stroke="#63b8ff" d="M486.89,-36.98C506.62,-32.14 528.09,-26.87 546.88,-22.26"/>
<polygon fill="#63b8ff" stroke="#63b8ff" points="547.42,-25.49 556.3,-19.7 545.75,-18.69 547.42,-25.49"/>
</g>
</g>
</svg>
