<?xml version="1.0" encoding="UTF-8" standalone="no"?>
<!DOCTYPE svg PUBLIC "-//W3C//DTD SVG 1.1//EN"
 "http://www.w3.org/Graphics/SVG/1.1/DTD/svg11.dtd">
<!-- Generated by graphviz version 8.0.5 (20230430.1635)
 -->
<!-- Title: include/cppgc/internal/caged&#45;heap.h Pages: 1 -->
<svg width="558pt" height="603pt"
 viewBox="0.00 0.00 558.00 603.25" xmlns="http://www.w3.org/2000/svg" xmlns:xlink="http://www.w3.org/1999/xlink">
<g id="graph0" class="graph" transform="scale(1 1) rotate(0) translate(4 599.25)">
<title>include/cppgc/internal/caged&#45;heap.h</title>
<!-- Node1 -->
<g id="node1" class="node">
<title>Node1</title>
<g id="a_node1"><a xlink:title=" ">
<polygon fill="#999999" stroke="#666666" points="185.25,-595.25 74.75,-595.25 74.75,-564.75 185.25,-564.75 185.25,-595.25"/>
<text text-anchor="start" x="82.75" y="-581.75" font-family="Helvetica,sans-Serif" font-size="10.00">include/cppgc/internal</text>
<text text-anchor="middle" x="130" y="-570.5" font-family="Helvetica,sans-Serif" font-size="10.00">/caged&#45;heap.h</text>
</a>
</g>
</g>
<!-- Node2 -->
<g id="node2" class="node">
<title>Node2</title>
<g id="a_node2"><a xlink:href="caged-heap-local-data_8h.html" target="_top" xlink:title=" ">
<polygon fill="white" stroke="#666666" points="123.88,-528.75 2.12,-528.75 2.12,-498.25 123.88,-498.25 123.88,-528.75"/>
<text text-anchor="start" x="10.12" y="-515.25" font-family="Helvetica,sans-Serif" font-size="10.00">include/cppgc/internal</text>
<text text-anchor="middle" x="63" y="-504" font-family="Helvetica,sans-Serif" font-size="10.00">/caged&#45;heap&#45;local&#45;data.h</text>
</a>
</g>
</g>
<!-- Node1&#45;&gt;Node2 -->
<g id="edge1" class="edge">
<title>Node1&#45;&gt;Node2</title>
<path fill="none" stroke="#63b8ff" d="M107.14,-556.99C97.57,-547.78 86.7,-537.31 78.14,-529.08"/>
<polygon fill="#63b8ff" stroke="#63b8ff" points="104.17,-558.95 113.8,-563.36 109.02,-553.91 104.17,-558.95"/>
</g>
<!-- Node3 -->
<g id="node3" class="node">
<title>Node3</title>
<g id="a_node3"><a xlink:href="member-storage_8h.html" target="_top" xlink:title=" ">
<polygon fill="white" stroke="#666666" points="252.25,-528.75 141.75,-528.75 141.75,-498.25 252.25,-498.25 252.25,-528.75"/>
<text text-anchor="start" x="149.75" y="-515.25" font-family="Helvetica,sans-Serif" font-size="10.00">include/cppgc/internal</text>
<text text-anchor="middle" x="197" y="-504" font-family="Helvetica,sans-Serif" font-size="10.00">/member&#45;storage.h</text>
</a>
</g>
</g>
<!-- Node1&#45;&gt;Node3 -->
<g id="edge2" class="edge">
<title>Node1&#45;&gt;Node3</title>
<path fill="none" stroke="#63b8ff" d="M152.86,-556.99C162.43,-547.78 173.3,-537.31 181.86,-529.08"/>
<polygon fill="#63b8ff" stroke="#63b8ff" points="150.98,-553.91 146.2,-563.36 155.83,-558.95 150.98,-553.91"/>
</g>
<!-- Node4 -->
<g id="node4" class="node">
<title>Node4</title>
<g id="a_node4"><a xlink:href="pointer-policies_8h.html" target="_top" xlink:title=" ">
<polygon fill="white" stroke="#666666" points="126.25,-395.75 15.75,-395.75 15.75,-365.25 126.25,-365.25 126.25,-395.75"/>
<text text-anchor="start" x="23.75" y="-382.25" font-family="Helvetica,sans-Serif" font-size="10.00">include/cppgc/internal</text>
<text text-anchor="middle" x="71" y="-371" font-family="Helvetica,sans-Serif" font-size="10.00">/pointer&#45;policies.h</text>
</a>
</g>
</g>
<!-- Node3&#45;&gt;Node4 -->
<g id="edge3" class="edge">
<title>Node3&#45;&gt;Node4</title>
<path fill="none" stroke="#63b8ff" d="M132.66,-493.51C116.74,-486.06 101.08,-475.91 90,-462.25 74.49,-443.12 71.22,-413.52 70.76,-395.97"/>
<polygon fill="#63b8ff" stroke="#63b8ff" points="131,-497.04 141.57,-497.81 133.79,-490.62 131,-497.04"/>
</g>
<!-- Node6 -->
<g id="node6" class="node">
<title>Node6</title>
<g id="a_node6"><a xlink:href="member_8h.html" target="_top" xlink:title=" ">
<polygon fill="white" stroke="#666666" points="303.88,-329.25 182.12,-329.25 182.12,-310 303.88,-310 303.88,-329.25"/>
<text text-anchor="middle" x="243" y="-315.75" font-family="Helvetica,sans-Serif" font-size="10.00">include/cppgc/member.h</text>
</a>
</g>
</g>
<!-- Node3&#45;&gt;Node6 -->
<g id="edge23" class="edge">
<title>Node3&#45;&gt;Node6</title>
<path fill="none" stroke="#63b8ff" d="M208.52,-487.99C211.96,-479.93 215.48,-470.83 218,-462.25 232.33,-413.37 239.7,-352.46 242.1,-329.73"/>
<polygon fill="#63b8ff" stroke="#63b8ff" points="204.99,-486.3 204.13,-496.86 211.39,-489.14 204.99,-486.3"/>
</g>
<!-- Node8 -->
<g id="node8" class="node">
<title>Node8</title>
<g id="a_node8"><a xlink:href="visitor_8h.html" target="_top" xlink:title=" ">
<polygon fill="white" stroke="#666666" points="303.38,-141 190.62,-141 190.62,-121.75 303.38,-121.75 303.38,-141"/>
<text text-anchor="middle" x="247" y="-127.5" font-family="Helvetica,sans-Serif" font-size="10.00">include/cppgc/visitor.h</text>
</a>
</g>
</g>
<!-- Node3&#45;&gt;Node8 -->
<g id="edge24" class="edge">
<title>Node3&#45;&gt;Node8</title>
<path fill="none" stroke="#63b8ff" d="M263.07,-501.87C365.26,-483.54 550,-442.03 550,-381.5 550,-381.5 550,-381.5 550,-257.75 550,-217.7 542.14,-200.9 510,-177 478.13,-153.3 370.93,-141.33 303.63,-136"/>
<polygon fill="#63b8ff" stroke="#63b8ff" points="262.78,-498.54 253.54,-503.73 264,-505.44 262.78,-498.54"/>
</g>
<!-- Node14 -->
<g id="node14" class="node">
<title>Node14</title>
<g id="a_node14"><a xlink:href="write-barrier_8h.html" target="_top" xlink:title=" ">
<polygon fill="white" stroke="#666666" points="209.25,-462.25 98.75,-462.25 98.75,-431.75 209.25,-431.75 209.25,-462.25"/>
<text text-anchor="start" x="106.75" y="-448.75" font-family="Helvetica,sans-Serif" font-size="10.00">include/cppgc/internal</text>
<text text-anchor="middle" x="154" y="-437.5" font-family="Helvetica,sans-Serif" font-size="10.00">/write&#45;barrier.h</text>
</a>
</g>
</g>
<!-- Node3&#45;&gt;Node14 -->
<g id="edge20" class="edge">
<title>Node3&#45;&gt;Node14</title>
<path fill="none" stroke="#63b8ff" d="M181.21,-488.82C175.35,-480.03 168.88,-470.32 163.72,-462.58"/>
<polygon fill="#63b8ff" stroke="#63b8ff" points="178.78,-490.48 187.24,-496.86 184.61,-486.6 178.78,-490.48"/>
</g>
<!-- Node5 -->
<g id="node5" class="node">
<title>Node5</title>
<g id="a_node5"><a xlink:href="cross-thread-persistent_8h.html" target="_top" xlink:title=" ">
<polygon fill="white" stroke="#666666" points="144.5,-30.5 41.5,-30.5 41.5,0 144.5,0 144.5,-30.5"/>
<text text-anchor="start" x="49.5" y="-17" font-family="Helvetica,sans-Serif" font-size="10.00">include/cppgc/cross</text>
<text text-anchor="middle" x="93" y="-5.75" font-family="Helvetica,sans-Serif" font-size="10.00">&#45;thread&#45;persistent.h</text>
</a>
</g>
</g>
<!-- Node4&#45;&gt;Node5 -->
<g id="edge4" class="edge">
<title>Node4&#45;&gt;Node5</title>
<path fill="none" stroke="#63b8ff" d="M47.69,-357.01C26.99,-334.53 0,-297.9 0,-259.75 0,-259.75 0,-259.75 0,-130.38 0,-100.76 1.51,-90.4 19,-66.5 30,-51.46 46.95,-39.48 61.85,-30.99"/>
<polygon fill="#63b8ff" stroke="#63b8ff" points="44.8,-359.1 54.24,-363.91 49.86,-354.26 44.8,-359.1"/>
</g>
<!-- Node4&#45;&gt;Node6 -->
<g id="edge5" class="edge">
<title>Node4&#45;&gt;Node6</title>
<path fill="none" stroke="#63b8ff" d="M124.06,-361.34C154.66,-350.86 191.82,-338.14 216.37,-329.74"/>
<polygon fill="#63b8ff" stroke="#63b8ff" points="123.29,-358.25 114.96,-364.8 125.55,-364.87 123.29,-358.25"/>
</g>
<!-- Node4&#45;&gt;Node8 -->
<g id="edge19" class="edge">
<title>Node4&#45;&gt;Node8</title>
<path fill="none" stroke="#63b8ff" d="M70.01,-353.94C70.07,-325 73.83,-277.48 95,-243.5 126.97,-192.17 192.11,-156.99 225.79,-141.43"/>
<polygon fill="#63b8ff" stroke="#63b8ff" points="66.52,-353.8 70.16,-363.75 73.52,-353.7 66.52,-353.8"/>
</g>
<!-- Node9 -->
<g id="node9" class="node">
<title>Node9</title>
<g id="a_node9"><a xlink:href="persistent_8h.html" target="_top" xlink:title=" ">
<polygon fill="white" stroke="#666666" points="157.62,-85.75 28.38,-85.75 28.38,-66.5 157.62,-66.5 157.62,-85.75"/>
<text text-anchor="middle" x="93" y="-72.25" font-family="Helvetica,sans-Serif" font-size="10.00">include/cppgc/persistent.h</text>
</a>
</g>
</g>
<!-- Node4&#45;&gt;Node9 -->
<g id="edge18" class="edge">
<title>Node4&#45;&gt;Node9</title>
<path fill="none" stroke="#63b8ff" d="M60.16,-355.19C50.54,-331.37 38,-293.79 38,-259.75 38,-259.75 38,-259.75 38,-191.25 38,-148.36 69.91,-104.59 85.12,-86.17"/>
<polygon fill="#63b8ff" stroke="#63b8ff" points="57.23,-356.24 64.32,-364.11 63.68,-353.53 57.23,-356.24"/>
</g>
<!-- Node7 -->
<g id="node7" class="node">
<title>Node7</title>
<g id="a_node7"><a xlink:href="ephemeron-pair_8h.html" target="_top" xlink:title=" ">
<polygon fill="white" stroke="#666666" points="333.5,-207.5 206.5,-207.5 206.5,-177 333.5,-177 333.5,-207.5"/>
<text text-anchor="start" x="214.5" y="-194" font-family="Helvetica,sans-Serif" font-size="10.00">include/cppgc/ephemeron</text>
<text text-anchor="middle" x="270" y="-182.75" font-family="Helvetica,sans-Serif" font-size="10.00">&#45;pair.h</text>
</a>
</g>
</g>
<!-- Node6&#45;&gt;Node7 -->
<g id="edge6" class="edge">
<title>Node6&#45;&gt;Node7</title>
<path fill="none" stroke="#63b8ff" d="M247.2,-299.13C252.64,-273.86 262.01,-230.37 266.87,-207.8"/>
<polygon fill="#63b8ff" stroke="#63b8ff" points="243.63,-298.1 244.94,-308.61 250.47,-299.57 243.63,-298.1"/>
</g>
<!-- Node6&#45;&gt;Node8 -->
<g id="edge17" class="edge">
<title>Node6&#45;&gt;Node8</title>
<path fill="none" stroke="#63b8ff" d="M235.63,-299.59C229.68,-284.36 221,-262.47 213,-243.5 206.2,-227.37 200.63,-224.63 197,-207.5 194.19,-194.24 191.46,-189.37 197,-177 203.94,-161.5 219.23,-149.16 231.08,-141.42"/>
<polygon fill="#63b8ff" stroke="#63b8ff" points="232.71,-300.74 239.6,-308.79 239.24,-298.2 232.71,-300.74"/>
</g>
<!-- Node11 -->
<g id="node11" class="node">
<title>Node11</title>
<g id="a_node11"><a xlink:href="heap-consistency_8h.html" target="_top" xlink:title=" ">
<polygon fill="white" stroke="#666666" points="204,-274 104,-274 104,-243.5 204,-243.5 204,-274"/>
<text text-anchor="start" x="112" y="-260.5" font-family="Helvetica,sans-Serif" font-size="10.00">include/cppgc/heap</text>
<text text-anchor="middle" x="154" y="-249.25" font-family="Helvetica,sans-Serif" font-size="10.00">&#45;consistency.h</text>
</a>
</g>
</g>
<!-- Node6&#45;&gt;Node11 -->
<g id="edge12" class="edge">
<title>Node6&#45;&gt;Node11</title>
<path fill="none" stroke="#63b8ff" d="M220.31,-303.62C206.69,-294.61 189.46,-283.2 175.97,-274.28"/>
<polygon fill="#63b8ff" stroke="#63b8ff" points="218.21,-307.08 228.48,-309.68 222.07,-301.25 218.21,-307.08"/>
</g>
<!-- Node12 -->
<g id="node12" class="node">
<title>Node12</title>
<g id="a_node12"><a xlink:href="liveness-broker_8h.html" target="_top" xlink:title=" ">
<polygon fill="white" stroke="#666666" points="444.5,-274 329.5,-274 329.5,-243.5 444.5,-243.5 444.5,-274"/>
<text text-anchor="start" x="337.5" y="-260.5" font-family="Helvetica,sans-Serif" font-size="10.00">include/cppgc/liveness</text>
<text text-anchor="middle" x="387" y="-249.25" font-family="Helvetica,sans-Serif" font-size="10.00">&#45;broker.h</text>
</a>
</g>
</g>
<!-- Node6&#45;&gt;Node12 -->
<g id="edge13" class="edge">
<title>Node6&#45;&gt;Node12</title>
<path fill="none" stroke="#63b8ff" d="M275.25,-305.44C297.75,-296.24 327.79,-283.96 351.06,-274.44"/>
<polygon fill="#63b8ff" stroke="#63b8ff" points="274.12,-302.53 266.18,-309.55 276.77,-309.01 274.12,-302.53"/>
</g>
<!-- Node7&#45;&gt;Node8 -->
<g id="edge7" class="edge">
<title>Node7&#45;&gt;Node8</title>
<path fill="none" stroke="#63b8ff" d="M260.41,-166.69C256.92,-157.76 253.18,-148.2 250.55,-141.45"/>
<polygon fill="#63b8ff" stroke="#63b8ff" points="257.42,-167.66 264.31,-175.7 263.94,-165.11 257.42,-167.66"/>
</g>
<!-- Node8&#45;&gt;Node5 -->
<g id="edge8" class="edge">
<title>Node8&#45;&gt;Node5</title>
<path fill="none" stroke="#63b8ff" d="M265.85,-114.45C279.47,-101 293.6,-81.58 282,-66.5 265.34,-44.83 194.88,-30.54 144.88,-22.92"/>
<polygon fill="#63b8ff" stroke="#63b8ff" points="264.07,-111.25 259.09,-120.6 268.82,-116.4 264.07,-111.25"/>
</g>
<!-- Node8&#45;&gt;Node9 -->
<g id="edge9" class="edge">
<title>Node8&#45;&gt;Node9</title>
<path fill="none" stroke="#63b8ff" d="M210.66,-117.81C182.59,-108.1 144.41,-94.9 119.25,-86.2"/>
<polygon fill="#63b8ff" stroke="#63b8ff" points="209.28,-121.38 219.88,-121.34 211.57,-114.77 209.28,-121.38"/>
</g>
<!-- Node10 -->
<g id="node10" class="node">
<title>Node10</title>
<g id="a_node10"><a xlink:href="v8-cppgc_8h.html" target="_top" xlink:title=" ">
<polygon fill="white" stroke="#666666" points="272.5,-85.75 175.5,-85.75 175.5,-66.5 272.5,-66.5 272.5,-85.75"/>
<text text-anchor="middle" x="224" y="-72.25" font-family="Helvetica,sans-Serif" font-size="10.00">include/v8&#45;cppgc.h</text>
</a>
</g>
</g>
<!-- Node8&#45;&gt;Node10 -->
<g id="edge11" class="edge">
<title>Node8&#45;&gt;Node10</title>
<path fill="none" stroke="#63b8ff" d="M238.88,-111.58C235.14,-102.92 230.88,-93.06 227.88,-86.11"/>
<polygon fill="#63b8ff" stroke="#63b8ff" points="236.02,-112.79 243.2,-120.58 242.45,-110.01 236.02,-112.79"/>
</g>
<!-- Node9&#45;&gt;Node5 -->
<g id="edge10" class="edge">
<title>Node9&#45;&gt;Node5</title>
<path fill="none" stroke="#63b8ff" d="M93,-55.2C93,-47.2 93,-38.15 93,-30.78"/>
<polygon fill="#63b8ff" stroke="#63b8ff" points="89.5,-55.18 93,-65.18 96.5,-55.18 89.5,-55.18"/>
</g>
<!-- Node12&#45;&gt;Node7 -->
<g id="edge14" class="edge">
<title>Node12&#45;&gt;Node7</title>
<path fill="none" stroke="#63b8ff" d="M351.04,-237.93C333.42,-228.21 312.58,-216.72 296.44,-207.83"/>
<polygon fill="#63b8ff" stroke="#63b8ff" points="349,-241.35 359.45,-243.11 352.38,-235.22 349,-241.35"/>
</g>
<!-- Node12&#45;&gt;Node8 -->
<g id="edge16" class="edge">
<title>Node12&#45;&gt;Node8</title>
<path fill="none" stroke="#63b8ff" d="M443.42,-239.16C478.84,-224.49 514.14,-202.32 493,-177 469.35,-148.68 368.63,-138.29 303.63,-134.51"/>
<polygon fill="#63b8ff" stroke="#63b8ff" points="442.49,-236.16 434.47,-243.09 445.06,-242.67 442.49,-236.16"/>
</g>
<!-- Node13 -->
<g id="node13" class="node">
<title>Node13</title>
<g id="a_node13"><a xlink:href="prefinalizer_8h.html" target="_top" xlink:title=" ">
<polygon fill="white" stroke="#666666" points="484.12,-201.88 351.88,-201.88 351.88,-182.62 484.12,-182.62 484.12,-201.88"/>
<text text-anchor="middle" x="418" y="-188.38" font-family="Helvetica,sans-Serif" font-size="10.00">include/cppgc/prefinalizer.h</text>
</a>
</g>
</g>
<!-- Node12&#45;&gt;Node13 -->
<g id="edge15" class="edge">
<title>Node12&#45;&gt;Node13</title>
<path fill="none" stroke="#63b8ff" d="M398.64,-233.53C403.94,-222.51 409.87,-210.16 413.76,-202.07"/>
<polygon fill="#63b8ff" stroke="#63b8ff" points="395.21,-231.58 394.03,-242.11 401.52,-234.62 395.21,-231.58"/>
</g>
<!-- Node14&#45;&gt;Node4 -->
<g id="edge22" class="edge">
<title>Node14&#45;&gt;Node4</title>
<path fill="none" stroke="#63b8ff" d="M126.74,-424.82C114.63,-415.41 100.68,-404.56 89.76,-396.08"/>
<polygon fill="#63b8ff" stroke="#63b8ff" points="124.12,-427.99 134.17,-431.36 128.42,-422.46 124.12,-427.99"/>
</g>
<!-- Node14&#45;&gt;Node11 -->
<g id="edge21" class="edge">
<title>Node14&#45;&gt;Node11</title>
<path fill="none" stroke="#63b8ff" d="M154,-420.55C154,-380.94 154,-305.86 154,-274.3"/>
<polygon fill="#63b8ff" stroke="#63b8ff" points="150.5,-420.39 154,-430.39 157.5,-420.39 150.5,-420.39"/>
</g>
</g>
</svg>
