<?xml version="1.0" encoding="UTF-8" standalone="no"?>
<!DOCTYPE svg PUBLIC "-//W3C//DTD SVG 1.1//EN"
 "http://www.w3.org/Graphics/SVG/1.1/DTD/svg11.dtd">
<!-- Generated by graphviz version 8.0.5 (20230430.1635)
 -->
<!-- Title: v8::ReturnValue::Set Pages: 1 -->
<svg width="269pt" height="137pt"
 viewBox="0.00 0.00 268.75 136.50" xmlns="http://www.w3.org/2000/svg" xmlns:xlink="http://www.w3.org/1999/xlink">
<g id="graph0" class="graph" transform="scale(1 1) rotate(0) translate(4 132.5)">
<title>v8::ReturnValue::Set</title>
<!-- Node1 -->
<g id="node1" class="node">
<title>Node1</title>
<g id="a_node1"><a xlink:title=" ">
<polygon fill="#999999" stroke="#666666" points="103.75,-73.88 0,-73.88 0,-54.62 103.75,-54.62 103.75,-73.88"/>
<text text-anchor="middle" x="51.88" y="-60.38" font-family="Helvetica,sans-Serif" font-size="10.00">v8::ReturnValue::Set</text>
</a>
</g>
</g>
<!-- Node2 -->
<g id="node2" class="node">
<title>Node2</title>
<g id="a_node2"><a xlink:href="classv8_1_1PropertyCallbackInfo.html#aff7b838ede308ab8a42890962eb9271c" target="_top" xlink:title=" ">
<polygon fill="white" stroke="#666666" points="260.75,-128.5 139.75,-128.5 139.75,-98 260.75,-98 260.75,-128.5"/>
<text text-anchor="start" x="147.75" y="-115" font-family="Helvetica,sans-Serif" font-size="10.00">v8::PropertyCallbackInfo</text>
<text text-anchor="middle" x="200.25" y="-103.75" font-family="Helvetica,sans-Serif" font-size="10.00">::GetIsolate</text>
</a>
</g>
</g>
<!-- Node1&#45;&gt;Node2 -->
<g id="edge1" class="edge">
<title>Node1&#45;&gt;Node2</title>
<path fill="none" stroke="#63b8ff" d="M82.85,-74.28C99.87,-79.98 121.75,-87.31 141.94,-94.07"/>
<polygon fill="#63b8ff" stroke="#63b8ff" points="140.72,-97.68 151.31,-97.54 142.94,-91.04 140.72,-97.68"/>
</g>
<!-- Node3 -->
<g id="node3" class="node">
<title>Node3</title>
<g id="a_node3"><a xlink:href="classv8_1_1api__internal_1_1IndirectHandleBase.html#ab505cc6c5f12d0a44149b7170b37411f" target="_top" xlink:title=" ">
<polygon fill="white" stroke="#666666" points="258.88,-79.5 141.62,-79.5 141.62,-49 258.88,-49 258.88,-79.5"/>
<text text-anchor="start" x="149.62" y="-66" font-family="Helvetica,sans-Serif" font-size="10.00">v8::api_internal::Indirect</text>
<text text-anchor="middle" x="200.25" y="-54.75" font-family="Helvetica,sans-Serif" font-size="10.00">HandleBase::IsEmpty</text>
</a>
</g>
</g>
<!-- Node1&#45;&gt;Node3 -->
<g id="edge2" class="edge">
<title>Node1&#45;&gt;Node3</title>
<path fill="none" stroke="#63b8ff" d="M104.07,-64.25C112.63,-64.25 121.63,-64.25 130.54,-64.25"/>
<polygon fill="#63b8ff" stroke="#63b8ff" points="130.33,-67.75 140.33,-64.25 130.33,-60.75 130.33,-67.75"/>
</g>
<!-- Node4 -->
<g id="node4" class="node">
<title>Node4</title>
<g id="a_node4"><a xlink:href="classv8_1_1api__internal_1_1IndirectHandleBase.html#a347b3dcd2e9478bc38f338f5fe431678" target="_top" xlink:title=" ">
<polygon fill="white" stroke="#666666" points="258.88,-30.5 141.62,-30.5 141.62,0 258.88,0 258.88,-30.5"/>
<text text-anchor="start" x="149.62" y="-17" font-family="Helvetica,sans-Serif" font-size="10.00">v8::api_internal::Indirect</text>
<text text-anchor="middle" x="200.25" y="-5.75" font-family="Helvetica,sans-Serif" font-size="10.00">HandleBase::ptr</text>
</a>
</g>
</g>
<!-- Node1&#45;&gt;Node4 -->
<g id="edge3" class="edge">
<title>Node1&#45;&gt;Node4</title>
<path fill="none" stroke="#63b8ff" d="M82.85,-54.22C99.87,-48.52 121.75,-41.19 141.94,-34.43"/>
<polygon fill="#63b8ff" stroke="#63b8ff" points="142.94,-37.46 151.31,-30.96 140.72,-30.82 142.94,-37.46"/>
</g>
</g>
</svg>
