<?xml version="1.0" encoding="UTF-8" standalone="no"?>
<!DOCTYPE svg PUBLIC "-//W3C//DTD SVG 1.1//EN"
 "http://www.w3.org/Graphics/SVG/1.1/DTD/svg11.dtd">
<!-- Generated by graphviz version 8.0.5 (20230430.1635)
 -->
<!-- Title: cppgc::NameProvider Pages: 1 -->
<svg width="238pt" height="83pt"
 viewBox="0.00 0.00 238.00 82.50" xmlns="http://www.w3.org/2000/svg" xmlns:xlink="http://www.w3.org/1999/xlink">
<g id="graph0" class="graph" transform="scale(1 1) rotate(0) translate(4 78.5)">
<title>cppgc::NameProvider</title>
<!-- Node1 -->
<g id="node1" class="node">
<title>Node1</title>
<g id="a_node1"><a xlink:title=" ">
<polygon fill="#999999" stroke="#666666" points="167.62,-74.5 58.62,-74.5 58.62,-55.25 167.62,-55.25 167.62,-74.5"/>
<text text-anchor="middle" x="113.12" y="-61" font-family="Helvetica,sans-Serif" font-size="10.00">cppgc::NameProvider</text>
</a>
</g>
</g>
<!-- Node2 -->
<g id="node2" class="node">
<title>Node2</title>
<g id="a_node2"><a xlink:href="classv8_1_1MicrotaskQueue.html" target="_top" xlink:title=" ">
<polygon fill="white" stroke="#666666" points="102.25,-19.25 0,-19.25 0,0 102.25,0 102.25,-19.25"/>
<text text-anchor="middle" x="51.12" y="-5.75" font-family="Helvetica,sans-Serif" font-size="10.00">v8::MicrotaskQueue</text>
</a>
</g>
</g>
<!-- Node1&#45;&gt;Node2 -->
<g id="edge1" class="edge">
<title>Node1&#45;&gt;Node2</title>
<path fill="none" stroke="#63b8ff" d="M94.57,-47.94C83.75,-38.64 70.49,-27.26 61.49,-19.52"/>
<polygon fill="#63b8ff" stroke="#63b8ff" points="91.74,-50.98 101.61,-54.84 96.3,-45.67 91.74,-50.98"/>
</g>
<!-- Node3 -->
<g id="node3" class="node">
<title>Node3</title>
<g id="a_node3"><a xlink:href="classv8_1_1Object_1_1Wrappable.html" target="_top" xlink:title=" ">
<polygon fill="white" stroke="#666666" points="230,-19.25 120.25,-19.25 120.25,0 230,0 230,-19.25"/>
<text text-anchor="middle" x="175.12" y="-5.75" font-family="Helvetica,sans-Serif" font-size="10.00">v8::Object::Wrappable</text>
</a>
</g>
</g>
<!-- Node1&#45;&gt;Node3 -->
<g id="edge2" class="edge">
<title>Node1&#45;&gt;Node3</title>
<path fill="none" stroke="#63b8ff" d="M131.68,-47.94C142.5,-38.64 155.76,-27.26 164.76,-19.52"/>
<polygon fill="#63b8ff" stroke="#63b8ff" points="129.95,-45.67 124.64,-54.84 134.51,-50.98 129.95,-45.67"/>
</g>
</g>
</svg>
