<?xml version="1.0" encoding="UTF-8" standalone="no"?>
<!DOCTYPE svg PUBLIC "-//W3C//DTD SVG 1.1//EN"
 "http://www.w3.org/Graphics/SVG/1.1/DTD/svg11.dtd">
<!-- Generated by graphviz version 8.0.5 (20230430.1635)
 -->
<!-- Title: v8::Object::Wrap Pages: 1 -->
<svg width="285pt" height="76pt"
 viewBox="0.00 0.00 285.25 75.88" xmlns="http://www.w3.org/2000/svg" xmlns:xlink="http://www.w3.org/1999/xlink">
<g id="graph0" class="graph" transform="scale(1 1) rotate(0) translate(4 71.88)">
<title>v8::Object::Wrap</title>
<!-- Node1 -->
<g id="node1" class="node">
<title>Node1</title>
<g id="a_node1"><a xlink:title=" ">
<polygon fill="#999999" stroke="#666666" points="86.5,-40.25 0,-40.25 0,-21 86.5,-21 86.5,-40.25"/>
<text text-anchor="middle" x="43.25" y="-26.75" font-family="Helvetica,sans-Serif" font-size="10.00">v8::Object::Wrap</text>
</a>
</g>
</g>
<!-- Node2 -->
<g id="node2" class="node">
<title>Node2</title>
<g id="a_node2"><a xlink:href="structv8_1_1internal_1_1TagRange.html#aa154151460bd16263945aaf678c12c04" target="_top" xlink:title=" ">
<polygon fill="white" stroke="#666666" points="255.5,-67.88 144.25,-67.88 144.25,-37.38 255.5,-37.38 255.5,-67.88"/>
<text text-anchor="start" x="152.25" y="-54.38" font-family="Helvetica,sans-Serif" font-size="10.00">v8::internal::TagRange</text>
<text text-anchor="middle" x="199.88" y="-43.12" font-family="Helvetica,sans-Serif" font-size="10.00">::Contains</text>
</a>
</g>
</g>
<!-- Node1&#45;&gt;Node2 -->
<g id="edge1" class="edge">
<title>Node1&#45;&gt;Node2</title>
<path fill="none" stroke="#63b8ff" d="M86.91,-36.69C101.22,-38.73 117.52,-41.05 133.18,-43.28"/>
<polygon fill="#63b8ff" stroke="#63b8ff" points="132.49,-46.86 142.88,-44.8 133.47,-39.93 132.49,-46.86"/>
</g>
<!-- Node3 -->
<g id="node3" class="node">
<title>Node3</title>
<g id="a_node3"><a xlink:href="namespacev8.html#aef8041a13770a07f852d89867b7f98c4" target="_top" xlink:title=" ">
<polygon fill="white" stroke="#666666" points="277.25,-19.25 122.5,-19.25 122.5,0 277.25,0 277.25,-19.25"/>
<text text-anchor="middle" x="199.88" y="-5.75" font-family="Helvetica,sans-Serif" font-size="10.00">v8::kObjectWrappableTagRange</text>
</a>
</g>
</g>
<!-- Node1&#45;&gt;Node3 -->
<g id="edge2" class="edge">
<title>Node1&#45;&gt;Node3</title>
<path fill="none" stroke="#63b8ff" d="M86.91,-24.83C95.42,-23.68 104.63,-22.42 114,-21.15"/>
<polygon fill="#63b8ff" stroke="#63b8ff" points="114.16,-24.53 123.6,-19.71 113.22,-17.59 114.16,-24.53"/>
</g>
</g>
</svg>
