<?xml version="1.0" encoding="UTF-8" standalone="no"?>
<!DOCTYPE svg PUBLIC "-//W3C//DTD SVG 1.1//EN"
 "http://www.w3.org/Graphics/SVG/1.1/DTD/svg11.dtd">
<!-- Generated by graphviz version 8.0.5 (20230430.1635)
 -->
<!-- Title: Graphical Class Hierarchy Pages: 1 -->
<svg width="278pt" height="125pt"
 viewBox="0.00 0.00 277.75 124.50" xmlns="http://www.w3.org/2000/svg" xmlns:xlink="http://www.w3.org/1999/xlink">
<g id="graph0" class="graph" transform="scale(1 1) rotate(0) translate(4 120.5)">
<title>Graphical Class Hierarchy</title>
<!-- Node0 -->
<g id="node1" class="node">
<title>Node0</title>
<g id="a_node1"><a xlink:href="classcppgc_1_1GarbageCollected.html" target="_top" xlink:title=" ">
<polygon fill="white" stroke="#666666" points="124,-116.5 0,-116.5 0,-86 124,-86 124,-116.5"/>
<text text-anchor="start" x="8" y="-103" font-family="Helvetica,sans-Serif" font-size="10.00">cppgc::GarbageCollected</text>
<text text-anchor="middle" x="62" y="-91.75" font-family="Helvetica,sans-Serif" font-size="10.00">&lt; MicrotaskQueue &gt;</text>
</a>
</g>
</g>
<!-- Node1 -->
<g id="node2" class="node">
<title>Node1</title>
<g id="a_node2"><a xlink:href="classv8_1_1MicrotaskQueue.html" target="_top" xlink:title=" ">
<polygon fill="white" stroke="#666666" points="266,-87.88 163.75,-87.88 163.75,-68.62 266,-68.62 266,-87.88"/>
<text text-anchor="middle" x="214.88" y="-74.38" font-family="Helvetica,sans-Serif" font-size="10.00">v8::MicrotaskQueue</text>
</a>
</g>
</g>
<!-- Node0&#45;&gt;Node1 -->
<g id="edge1" class="edge">
<title>Node0&#45;&gt;Node1</title>
<path fill="none" stroke="#63b8ff" d="M135.17,-90.25C144.8,-88.78 154.5,-87.3 163.64,-85.91"/>
<polygon fill="#63b8ff" stroke="#63b8ff" points="134.72,-86.93 125.37,-91.9 135.78,-93.85 134.72,-86.93"/>
</g>
<!-- Node4 -->
<g id="node3" class="node">
<title>Node4</title>
<g id="a_node3"><a xlink:href="classcppgc_1_1GarbageCollected.html" target="_top" xlink:title=" ">
<polygon fill="white" stroke="#666666" points="124,-30.5 0,-30.5 0,0 124,0 124,-30.5"/>
<text text-anchor="start" x="8" y="-17" font-family="Helvetica,sans-Serif" font-size="10.00">cppgc::GarbageCollected</text>
<text text-anchor="middle" x="62" y="-5.75" font-family="Helvetica,sans-Serif" font-size="10.00">&lt; Wrappable &gt;</text>
</a>
</g>
</g>
<!-- Node3 -->
<g id="node4" class="node">
<title>Node3</title>
<g id="a_node4"><a xlink:href="classv8_1_1Object_1_1Wrappable.html" target="_top" xlink:title=" ">
<polygon fill="white" stroke="#666666" points="269.75,-47.88 160,-47.88 160,-28.62 269.75,-28.62 269.75,-47.88"/>
<text text-anchor="middle" x="214.88" y="-34.38" font-family="Helvetica,sans-Serif" font-size="10.00">v8::Object::Wrappable</text>
</a>
</g>
</g>
<!-- Node4&#45;&gt;Node3 -->
<g id="edge2" class="edge">
<title>Node4&#45;&gt;Node3</title>
<path fill="none" stroke="#63b8ff" d="M135.2,-26.26C143.49,-27.52 151.84,-28.79 159.83,-30.01"/>
<polygon fill="#63b8ff" stroke="#63b8ff" points="135.78,-22.65 125.37,-24.6 134.72,-29.57 135.78,-22.65"/>
</g>
<!-- Node2 -->
<g id="node5" class="node">
<title>Node2</title>
<g id="a_node5"><a xlink:href="classcppgc_1_1NameProvider.html" target="_top" xlink:title=" ">
<polygon fill="white" stroke="#666666" points="116.5,-67.88 7.5,-67.88 7.5,-48.62 116.5,-48.62 116.5,-67.88"/>
<text text-anchor="middle" x="62" y="-54.38" font-family="Helvetica,sans-Serif" font-size="10.00">cppgc::NameProvider</text>
</a>
</g>
</g>
<!-- Node2&#45;&gt;Node1 -->
<g id="edge3" class="edge">
<title>Node2&#45;&gt;Node1</title>
<path fill="none" stroke="#63b8ff" d="M127.52,-66.8C139.54,-68.4 151.94,-70.04 163.46,-71.57"/>
<polygon fill="#63b8ff" stroke="#63b8ff" points="127.99,-63.2 117.62,-65.36 127.07,-70.14 127.99,-63.2"/>
</g>
<!-- Node2&#45;&gt;Node3 -->
<g id="edge4" class="edge">
<title>Node2&#45;&gt;Node3</title>
<path fill="none" stroke="#63b8ff" d="M127.27,-49.73C138.06,-48.3 149.16,-46.83 159.67,-45.44"/>
<polygon fill="#63b8ff" stroke="#63b8ff" points="127.07,-46.36 117.62,-51.14 127.99,-53.3 127.07,-46.36"/>
</g>
</g>
</svg>
