<?xml version="1.0" encoding="UTF-8" standalone="no"?>
<!DOCTYPE svg PUBLIC "-//W3C//DTD SVG 1.1//EN"
 "http://www.w3.org/Graphics/SVG/1.1/DTD/svg11.dtd">
<!-- Generated by graphviz version 8.0.5 (20230430.1635)
 -->
<!-- Title: include/cppgc/prefinalizer.h Pages: 1 -->
<svg width="2008pt" height="636pt"
 viewBox="0.00 0.00 2007.66 636.00" xmlns="http://www.w3.org/2000/svg" xmlns:xlink="http://www.w3.org/1999/xlink">
<g id="graph0" class="graph" transform="scale(1 1) rotate(0) translate(4 632)">
<title>include/cppgc/prefinalizer.h</title>
<!-- Node1 -->
<g id="node1" class="node">
<title>Node1</title>
<g id="a_node1"><a xlink:title=" ">
<polygon fill="#999999" stroke="#666666" points="1102.79,-628 970.54,-628 970.54,-608.75 1102.79,-608.75 1102.79,-628"/>
<text text-anchor="middle" x="1036.66" y="-614.5" font-family="Helvetica,sans-Serif" font-size="10.00">include/cppgc/prefinalizer.h</text>
</a>
</g>
</g>
<!-- Node2 -->
<g id="node2" class="node">
<title>Node2</title>
<g id="a_node2"><a xlink:href="compiler-specific_8h.html" target="_top" xlink:title=" ">
<polygon fill="white" stroke="#666666" points="1026.91,-572.75 910.41,-572.75 910.41,-542.25 1026.91,-542.25 1026.91,-572.75"/>
<text text-anchor="start" x="918.41" y="-559.25" font-family="Helvetica,sans-Serif" font-size="10.00">cppgc/internal/compiler</text>
<text text-anchor="middle" x="968.66" y="-548" font-family="Helvetica,sans-Serif" font-size="10.00">&#45;specific.h</text>
</a>
</g>
</g>
<!-- Node1&#45;&gt;Node2 -->
<g id="edge1" class="edge">
<title>Node1&#45;&gt;Node2</title>
<path fill="none" stroke="#63b8ff" d="M1026.34,-608.43C1017.69,-600.95 1004.99,-589.95 993.71,-580.18"/>
<polygon fill="#63b8ff" stroke="#63b8ff" points="996.3,-576.93 986.45,-573.03 991.72,-582.22 996.3,-576.93"/>
</g>
<!-- Node3 -->
<g id="node3" class="node">
<title>Node3</title>
<g id="a_node3"><a xlink:href="liveness-broker_8h.html" target="_top" xlink:title=" ">
<polygon fill="white" stroke="#666666" points="1164.04,-567.12 1045.29,-567.12 1045.29,-547.88 1164.04,-547.88 1164.04,-567.12"/>
<text text-anchor="middle" x="1104.66" y="-553.62" font-family="Helvetica,sans-Serif" font-size="10.00">cppgc/liveness&#45;broker.h</text>
</a>
</g>
</g>
<!-- Node1&#45;&gt;Node3 -->
<g id="edge2" class="edge">
<title>Node1&#45;&gt;Node3</title>
<path fill="none" stroke="#63b8ff" d="M1046.99,-608.43C1057.38,-599.44 1073.61,-585.39 1086.21,-574.48"/>
<polygon fill="#63b8ff" stroke="#63b8ff" points="1087.97,-576.72 1093.24,-567.53 1083.39,-571.43 1087.97,-576.72"/>
</g>
<!-- Node4 -->
<g id="node4" class="node">
<title>Node4</title>
<g id="a_node4"><a xlink:href="heap_8h.html" target="_top" xlink:title=" ">
<polygon fill="white" stroke="#666666" points="224.54,-312.38 150.79,-312.38 150.79,-293.12 224.54,-293.12 224.54,-312.38"/>
<text text-anchor="middle" x="187.66" y="-298.88" font-family="Helvetica,sans-Serif" font-size="10.00">cppgc/heap.h</text>
</a>
</g>
</g>
<!-- Node3&#45;&gt;Node4 -->
<g id="edge3" class="edge">
<title>Node3&#45;&gt;Node4</title>
<path fill="none" stroke="#63b8ff" d="M1063.55,-547.38C1054.4,-545.52 1044.72,-543.7 1035.66,-542.25 859.64,-514.06 377.76,-562.49 238.66,-451 199.36,-419.49 190.25,-355.91 188.2,-323.59"/>
<polygon fill="#63b8ff" stroke="#63b8ff" points="191.67,-323.69 187.72,-313.86 184.68,-324.01 191.67,-323.69"/>
</g>
<!-- Node10 -->
<g id="node10" class="node">
<title>Node10</title>
<g id="a_node10"><a xlink:href="v8config_8h.html" target="_top" xlink:title=" ">
<polygon fill="white" stroke="#666666" points="868.41,-74.5 808.91,-74.5 808.91,-55.25 868.41,-55.25 868.41,-74.5"/>
<text text-anchor="middle" x="838.66" y="-61" font-family="Helvetica,sans-Serif" font-size="10.00">v8config.h</text>
</a>
</g>
</g>
<!-- Node3&#45;&gt;Node10 -->
<g id="edge89" class="edge">
<title>Node3&#45;&gt;Node10</title>
<path fill="none" stroke="#63b8ff" d="M1065.8,-547.38C1056.01,-545.39 1045.49,-543.5 1035.66,-542.25 713.86,-501.32 628.05,-550.34 306.66,-506.25 168.5,-487.29 0.66,-576.21 0.66,-436.75 0.66,-436.75 0.66,-436.75 0.66,-240.88 0.66,-206.43 -1.99,-192.53 19.66,-165.75 54.57,-122.59 78.03,-124.8 131.66,-110.5 258.82,-76.58 667.48,-68.19 798.11,-66.35"/>
<polygon fill="#63b8ff" stroke="#63b8ff" points="797.86,-69.84 807.81,-66.2 797.76,-62.84 797.86,-69.84"/>
</g>
<!-- Node21 -->
<g id="node21" class="node">
<title>Node21</title>
<g id="a_node21"><a xlink:href="member_8h.html" target="_top" xlink:title=" ">
<polygon fill="white" stroke="#666666" points="1665.66,-506.25 1577.66,-506.25 1577.66,-487 1665.66,-487 1665.66,-506.25"/>
<text text-anchor="middle" x="1621.66" y="-492.75" font-family="Helvetica,sans-Serif" font-size="10.00">cppgc/member.h</text>
</a>
</g>
</g>
<!-- Node3&#45;&gt;Node21 -->
<g id="edge31" class="edge">
<title>Node3&#45;&gt;Node21</title>
<path fill="none" stroke="#63b8ff" d="M1164.48,-549.69C1265.57,-538.18 1468.76,-515.04 1566.57,-503.9"/>
<polygon fill="#63b8ff" stroke="#63b8ff" points="1566.86,-507.27 1576.4,-502.67 1566.07,-500.32 1566.86,-507.27"/>
</g>
<!-- Node27 -->
<g id="node27" class="node">
<title>Node27</title>
<g id="a_node27"><a xlink:href="sentinel-pointer_8h.html" target="_top" xlink:title=" ">
<polygon fill="white" stroke="#666666" points="1304.04,-251.5 1185.29,-251.5 1185.29,-232.25 1304.04,-232.25 1304.04,-251.5"/>
<text text-anchor="middle" x="1244.66" y="-238" font-family="Helvetica,sans-Serif" font-size="10.00">cppgc/sentinel&#45;pointer.h</text>
</a>
</g>
</g>
<!-- Node3&#45;&gt;Node27 -->
<g id="edge87" class="edge">
<title>Node3&#45;&gt;Node27</title>
<path fill="none" stroke="#63b8ff" d="M1105.77,-547.85C1110.59,-512.67 1132.35,-377.8 1192.66,-287.5 1200.25,-276.14 1211.5,-265.99 1221.59,-258.25"/>
<polygon fill="#63b8ff" stroke="#63b8ff" points="1223.36,-260.57 1229.4,-251.86 1219.25,-254.9 1223.36,-260.57"/>
</g>
<!-- Node34 -->
<g id="node34" class="node">
<title>Node34</title>
<g id="a_node34"><a xlink:href="trace-trait_8h.html" target="_top" xlink:title=" ">
<polygon fill="white" stroke="#666666" points="1857.66,-312.38 1763.66,-312.38 1763.66,-293.12 1857.66,-293.12 1857.66,-312.38"/>
<text text-anchor="middle" x="1810.66" y="-298.88" font-family="Helvetica,sans-Serif" font-size="10.00">cppgc/trace&#45;trait.h</text>
</a>
</g>
</g>
<!-- Node3&#45;&gt;Node34 -->
<g id="edge88" class="edge">
<title>Node3&#45;&gt;Node34</title>
<path fill="none" stroke="#63b8ff" d="M1164.29,-554.14C1301.55,-548.3 1631.47,-531.77 1674.66,-506.25 1747.32,-463.32 1789.27,-364.53 1804.29,-322.85"/>
<polygon fill="#63b8ff" stroke="#63b8ff" points="1807.84,-324.3 1807.82,-313.71 1801.23,-322 1807.84,-324.3"/>
</g>
<!-- Node5 -->
<g id="node5" class="node">
<title>Node5</title>
<g id="a_node5"><a xlink:title=" ">
<polygon fill="#e0e0e0" stroke="#999999" points="1506.79,-74.5 1458.54,-74.5 1458.54,-55.25 1506.79,-55.25 1506.79,-74.5"/>
<text text-anchor="middle" x="1482.66" y="-61" font-family="Helvetica,sans-Serif" font-size="10.00">cstddef</text>
</a>
</g>
</g>
<!-- Node4&#45;&gt;Node5 -->
<g id="edge4" class="edge">
<title>Node4&#45;&gt;Node5</title>
<path fill="none" stroke="#63b8ff" d="M195.44,-292.69C225.84,-257.56 337.33,-131.18 385.66,-110.5 435.55,-89.15 1264.86,-70.47 1447.34,-66.61"/>
<polygon fill="#63b8ff" stroke="#63b8ff" points="1447.25,-70.09 1457.17,-66.38 1447.1,-63.09 1447.25,-70.09"/>
</g>
<!-- Node6 -->
<g id="node6" class="node">
<title>Node6</title>
<g id="a_node6"><a xlink:title=" ">
<polygon fill="#e0e0e0" stroke="#999999" points="1243.29,-129.75 1198.04,-129.75 1198.04,-110.5 1243.29,-110.5 1243.29,-129.75"/>
<text text-anchor="middle" x="1220.66" y="-116.25" font-family="Helvetica,sans-Serif" font-size="10.00">cstdint</text>
</a>
</g>
</g>
<!-- Node4&#45;&gt;Node6 -->
<g id="edge5" class="edge">
<title>Node4&#45;&gt;Node6</title>
<path fill="none" stroke="#63b8ff" d="M224.79,-299.31C303.65,-293.77 493.5,-278.59 650.66,-251.5 687.13,-245.21 695.62,-240.63 731.66,-232.25 902.96,-192.43 1108.39,-146.26 1187.43,-128.56"/>
<polygon fill="#63b8ff" stroke="#63b8ff" points="1187.74,-131.85 1196.73,-126.25 1186.21,-125.02 1187.74,-131.85"/>
</g>
<!-- Node7 -->
<g id="node7" class="node">
<title>Node7</title>
<g id="a_node7"><a xlink:title=" ">
<polygon fill="#e0e0e0" stroke="#999999" points="651.91,-19.25 601.41,-19.25 601.41,0 651.91,0 651.91,-19.25"/>
<text text-anchor="middle" x="626.66" y="-5.75" font-family="Helvetica,sans-Serif" font-size="10.00">memory</text>
</a>
</g>
</g>
<!-- Node4&#45;&gt;Node7 -->
<g id="edge6" class="edge">
<title>Node4&#45;&gt;Node7</title>
<path fill="none" stroke="#63b8ff" d="M189.51,-292.75C196.97,-256.68 225.18,-123.87 238.66,-110.5 288.83,-60.76 503.67,-27.07 590.27,-15.28"/>
<polygon fill="#63b8ff" stroke="#63b8ff" points="590.69,-18.62 600.14,-13.83 589.76,-11.68 590.69,-18.62"/>
</g>
<!-- Node8 -->
<g id="node8" class="node">
<title>Node8</title>
<g id="a_node8"><a xlink:title=" ">
<polygon fill="#e0e0e0" stroke="#999999" points="186.16,-251.5 143.16,-251.5 143.16,-232.25 186.16,-232.25 186.16,-251.5"/>
<text text-anchor="middle" x="164.66" y="-238" font-family="Helvetica,sans-Serif" font-size="10.00">vector</text>
</a>
</g>
</g>
<!-- Node4&#45;&gt;Node8 -->
<g id="edge7" class="edge">
<title>Node4&#45;&gt;Node8</title>
<path fill="none" stroke="#63b8ff" d="M184.17,-292.81C181,-284.68 176.21,-272.42 172.17,-262.08"/>
<polygon fill="#63b8ff" stroke="#63b8ff" points="175.09,-260.94 168.19,-252.9 168.57,-263.49 175.09,-260.94"/>
</g>
<!-- Node9 -->
<g id="node9" class="node">
<title>Node9</title>
<g id="a_node9"><a xlink:href="common_8h.html" target="_top" xlink:title=" ">
<polygon fill="white" stroke="#666666" points="118.79,-190.62 28.54,-190.62 28.54,-171.38 118.79,-171.38 118.79,-190.62"/>
<text text-anchor="middle" x="73.66" y="-177.12" font-family="Helvetica,sans-Serif" font-size="10.00">cppgc/common.h</text>
</a>
</g>
</g>
<!-- Node4&#45;&gt;Node9 -->
<g id="edge8" class="edge">
<title>Node4&#45;&gt;Node9</title>
<path fill="none" stroke="#63b8ff" d="M150.34,-297.83C121.06,-292.58 82.11,-280.28 62.66,-251.5 52.54,-236.51 57.8,-215.61 64.05,-200.65"/>
<polygon fill="#63b8ff" stroke="#63b8ff" points="67.5,-202.52 68.56,-191.98 61.16,-199.56 67.5,-202.52"/>
</g>
<!-- Node4&#45;&gt;Node10 -->
<g id="edge30" class="edge">
<title>Node4&#45;&gt;Node10</title>
<path fill="none" stroke="#63b8ff" d="M168.44,-292.63C146.35,-280.72 114.37,-258.3 124.66,-232.25 151.9,-163.31 171.79,-142.49 238.66,-110.5 288.86,-86.49 671.13,-71.53 797.94,-67.19"/>
<polygon fill="#63b8ff" stroke="#63b8ff" points="797.83,-70.67 807.7,-66.83 797.59,-63.67 797.83,-70.67"/>
</g>
<!-- Node11 -->
<g id="node11" class="node">
<title>Node11</title>
<g id="a_node11"><a xlink:href="custom-space_8h.html" target="_top" xlink:title=" ">
<polygon fill="white" stroke="#666666" points="508.79,-190.62 394.54,-190.62 394.54,-171.38 508.79,-171.38 508.79,-190.62"/>
<text text-anchor="middle" x="451.66" y="-177.12" font-family="Helvetica,sans-Serif" font-size="10.00">cppgc/custom&#45;space.h</text>
</a>
</g>
</g>
<!-- Node4&#45;&gt;Node11 -->
<g id="edge11" class="edge">
<title>Node4&#45;&gt;Node11</title>
<path fill="none" stroke="#63b8ff" d="M172.09,-292.73C150.71,-279.23 116.83,-253.14 134.66,-232.25 165.96,-195.6 299.7,-185.54 383.15,-182.86"/>
<polygon fill="#63b8ff" stroke="#63b8ff" points="383.18,-186.34 393.07,-182.55 382.98,-179.34 383.18,-186.34"/>
</g>
<!-- Node13 -->
<g id="node13" class="node">
<title>Node13</title>
<g id="a_node13"><a xlink:href="platform_8h.html" target="_top" xlink:title=" ">
<polygon fill="white" stroke="#666666" points="641.66,-251.5 553.66,-251.5 553.66,-232.25 641.66,-232.25 641.66,-251.5"/>
<text text-anchor="middle" x="597.66" y="-238" font-family="Helvetica,sans-Serif" font-size="10.00">cppgc/platform.h</text>
</a>
</g>
</g>
<!-- Node4&#45;&gt;Node13 -->
<g id="edge13" class="edge">
<title>Node4&#45;&gt;Node13</title>
<path fill="none" stroke="#63b8ff" d="M224.77,-296.42C297.19,-286.02 457.69,-262.98 542.56,-250.79"/>
<polygon fill="#63b8ff" stroke="#63b8ff" points="542.87,-254.14 552.28,-249.25 541.88,-247.21 542.87,-254.14"/>
</g>
<!-- Node9&#45;&gt;Node10 -->
<g id="edge9" class="edge">
<title>Node9&#45;&gt;Node10</title>
<path fill="none" stroke="#63b8ff" d="M82.55,-170.93C98.5,-155.3 133.81,-123.71 170.66,-110.5 287.09,-68.76 671.62,-65.58 798.01,-65.69"/>
<polygon fill="#63b8ff" stroke="#63b8ff" points="797.73,-69.19 807.73,-65.71 797.74,-62.19 797.73,-69.19"/>
</g>
<!-- Node10&#45;&gt;Node7 -->
<g id="edge10" class="edge">
<title>Node10&#45;&gt;Node7</title>
<path fill="none" stroke="#63b8ff" d="M808.74,-56.36C770.37,-46.72 703.89,-30.02 662.76,-19.69"/>
<polygon fill="#63b8ff" stroke="#63b8ff" points="663.68,-16.06 653.12,-17.02 661.97,-22.85 663.68,-16.06"/>
</g>
<!-- Node12 -->
<g id="node12" class="node">
<title>Node12</title>
<g id="a_node12"><a xlink:title=" ">
<polygon fill="#e0e0e0" stroke="#999999" points="444.91,-129.75 394.41,-129.75 394.41,-110.5 444.91,-110.5 444.91,-129.75"/>
<text text-anchor="middle" x="419.66" y="-116.25" font-family="Helvetica,sans-Serif" font-size="10.00">stddef.h</text>
</a>
</g>
</g>
<!-- Node11&#45;&gt;Node12 -->
<g id="edge12" class="edge">
<title>Node11&#45;&gt;Node12</title>
<path fill="none" stroke="#63b8ff" d="M446.8,-171.06C442.29,-162.76 435.44,-150.14 429.75,-139.67"/>
<polygon fill="#63b8ff" stroke="#63b8ff" points="432.42,-138.27 424.57,-131.15 426.27,-141.61 432.42,-138.27"/>
</g>
<!-- Node13&#45;&gt;Node7 -->
<g id="edge14" class="edge">
<title>Node13&#45;&gt;Node7</title>
<path fill="none" stroke="#63b8ff" d="M615.3,-231.84C644.34,-215.84 701.22,-179.46 723.66,-129.75 743.22,-86.42 688.52,-45.68 653.49,-24.93"/>
<polygon fill="#63b8ff" stroke="#63b8ff" points="655.63,-21.55 645.21,-19.62 652.15,-27.62 655.63,-21.55"/>
</g>
<!-- Node13&#45;&gt;Node10 -->
<g id="edge29" class="edge">
<title>Node13&#45;&gt;Node10</title>
<path fill="none" stroke="#63b8ff" d="M553.17,-237.93C497.33,-233.21 406.34,-221.73 385.66,-196.25 361.65,-166.66 360.07,-138.74 385.66,-110.5 413.09,-80.24 691.6,-69.75 797.81,-66.84"/>
<polygon fill="#63b8ff" stroke="#63b8ff" points="797.81,-70.31 807.72,-66.55 797.63,-63.31 797.81,-70.31"/>
</g>
<!-- Node14 -->
<g id="node14" class="node">
<title>Node14</title>
<g id="a_node14"><a xlink:href="source-location_8h.html" target="_top" xlink:title=" ">
<polygon fill="white" stroke="#666666" points="1155.04,-190.62 1036.29,-190.62 1036.29,-171.38 1155.04,-171.38 1155.04,-190.62"/>
<text text-anchor="middle" x="1095.66" y="-177.12" font-family="Helvetica,sans-Serif" font-size="10.00">cppgc/source&#45;location.h</text>
</a>
</g>
</g>
<!-- Node13&#45;&gt;Node14 -->
<g id="edge15" class="edge">
<title>Node13&#45;&gt;Node14</title>
<path fill="none" stroke="#63b8ff" d="M641.86,-235.65C728.42,-225.42 920.93,-202.66 1025.23,-190.33"/>
<polygon fill="#63b8ff" stroke="#63b8ff" points="1025.45,-193.71 1034.97,-189.06 1024.63,-186.76 1025.45,-193.71"/>
</g>
<!-- Node17 -->
<g id="node17" class="node">
<title>Node17</title>
<g id="a_node17"><a xlink:href="v8-platform_8h.html" target="_top" xlink:title=" ">
<polygon fill="white" stroke="#666666" points="633.79,-190.62 561.54,-190.62 561.54,-171.38 633.79,-171.38 633.79,-190.62"/>
<text text-anchor="middle" x="597.66" y="-177.12" font-family="Helvetica,sans-Serif" font-size="10.00">v8&#45;platform.h</text>
</a>
</g>
</g>
<!-- Node13&#45;&gt;Node17 -->
<g id="edge20" class="edge">
<title>Node13&#45;&gt;Node17</title>
<path fill="none" stroke="#63b8ff" d="M597.66,-231.93C597.66,-223.98 597.66,-212.06 597.66,-201.87"/>
<polygon fill="#63b8ff" stroke="#63b8ff" points="601.16,-202.03 597.66,-192.03 594.16,-202.03 601.16,-202.03"/>
</g>
<!-- Node15 -->
<g id="node15" class="node">
<title>Node15</title>
<g id="a_node15"><a xlink:href="v8-source-location_8h.html" target="_top" xlink:title=" ">
<polygon fill="white" stroke="#666666" points="1102.16,-129.75 999.16,-129.75 999.16,-110.5 1102.16,-110.5 1102.16,-129.75"/>
<text text-anchor="middle" x="1050.66" y="-116.25" font-family="Helvetica,sans-Serif" font-size="10.00">v8&#45;source&#45;location.h</text>
</a>
</g>
</g>
<!-- Node14&#45;&gt;Node15 -->
<g id="edge16" class="edge">
<title>Node14&#45;&gt;Node15</title>
<path fill="none" stroke="#63b8ff" d="M1088.83,-171.06C1082.29,-162.5 1072.24,-149.35 1064.09,-138.7"/>
<polygon fill="#63b8ff" stroke="#63b8ff" points="1066.42,-136.97 1057.56,-131.15 1060.86,-141.22 1066.42,-136.97"/>
</g>
<!-- Node15&#45;&gt;Node5 -->
<g id="edge17" class="edge">
<title>Node15&#45;&gt;Node5</title>
<path fill="none" stroke="#63b8ff" d="M1102.34,-112.75C1191.39,-101.78 1371.48,-79.58 1447.52,-70.21"/>
<polygon fill="#63b8ff" stroke="#63b8ff" points="1447.88,-73.57 1457.38,-68.87 1447.03,-66.62 1447.88,-73.57"/>
</g>
<!-- Node15&#45;&gt;Node10 -->
<g id="edge19" class="edge">
<title>Node15&#45;&gt;Node10</title>
<path fill="none" stroke="#63b8ff" d="M1014.7,-110.09C977.12,-100.65 918.29,-85.88 879.12,-76.04"/>
<polygon fill="#63b8ff" stroke="#63b8ff" points="880.18,-72.44 869.62,-73.4 878.47,-79.23 880.18,-72.44"/>
</g>
<!-- Node16 -->
<g id="node16" class="node">
<title>Node16</title>
<g id="a_node16"><a xlink:title=" ">
<polygon fill="#e0e0e0" stroke="#999999" points="998.66,-74.5 958.66,-74.5 958.66,-55.25 998.66,-55.25 998.66,-74.5"/>
<text text-anchor="middle" x="978.66" y="-61" font-family="Helvetica,sans-Serif" font-size="10.00">string</text>
</a>
</g>
</g>
<!-- Node15&#45;&gt;Node16 -->
<g id="edge18" class="edge">
<title>Node15&#45;&gt;Node16</title>
<path fill="none" stroke="#63b8ff" d="M1038.45,-110.09C1027.73,-102.16 1011.92,-90.47 999.25,-81.1"/>
<polygon fill="#63b8ff" stroke="#63b8ff" points="1001.82,-77.91 991.7,-74.77 997.66,-83.54 1001.82,-77.91"/>
</g>
<!-- Node17&#45;&gt;Node7 -->
<g id="edge25" class="edge">
<title>Node17&#45;&gt;Node7</title>
<path fill="none" stroke="#63b8ff" d="M572.05,-170.92C544.91,-159.64 507.52,-138.45 519.66,-110.5 536.19,-72.47 575.11,-42.35 601.17,-25.5"/>
<polygon fill="#63b8ff" stroke="#63b8ff" points="602.83,-27.97 609.46,-19.71 599.12,-22.03 602.83,-27.97"/>
</g>
<!-- Node17&#45;&gt;Node10 -->
<g id="edge28" class="edge">
<title>Node17&#45;&gt;Node10</title>
<path fill="none" stroke="#63b8ff" d="M577.1,-170.9C550.55,-157.94 509.99,-133.21 529.66,-110.5 563.91,-70.96 722.16,-65.67 797.96,-65.47"/>
<polygon fill="#63b8ff" stroke="#63b8ff" points="797.53,-68.97 807.53,-65.47 797.53,-61.97 797.53,-68.97"/>
</g>
<!-- Node17&#45;&gt;Node12 -->
<g id="edge22" class="edge">
<title>Node17&#45;&gt;Node12</title>
<path fill="none" stroke="#63b8ff" d="M570.24,-170.93C539.53,-160.77 489.63,-144.27 455.77,-133.07"/>
<polygon fill="#63b8ff" stroke="#63b8ff" points="456.98,-129.45 446.38,-129.63 454.78,-136.09 456.98,-129.45"/>
</g>
<!-- Node17&#45;&gt;Node15 -->
<g id="edge27" class="edge">
<title>Node17&#45;&gt;Node15</title>
<path fill="none" stroke="#63b8ff" d="M633.97,-175.28C711.09,-165.26 892.05,-141.74 988.14,-129.25"/>
<polygon fill="#63b8ff" stroke="#63b8ff" points="988.4,-132.62 997.86,-127.86 987.5,-125.68 988.4,-132.62"/>
</g>
<!-- Node17&#45;&gt;Node16 -->
<g id="edge26" class="edge">
<title>Node17&#45;&gt;Node16</title>
<path fill="none" stroke="#63b8ff" d="M627.88,-170.95C699.03,-149.64 876.5,-96.48 948.05,-75.05"/>
<polygon fill="#63b8ff" stroke="#63b8ff" points="948.63,-78.23 957.2,-72 946.62,-71.52 948.63,-78.23"/>
</g>
<!-- Node18 -->
<g id="node18" class="node">
<title>Node18</title>
<g id="a_node18"><a xlink:title=" ">
<polygon fill="#e0e0e0" stroke="#999999" points="714.29,-129.75 669.04,-129.75 669.04,-110.5 714.29,-110.5 714.29,-129.75"/>
<text text-anchor="middle" x="691.66" y="-116.25" font-family="Helvetica,sans-Serif" font-size="10.00">math.h</text>
</a>
</g>
</g>
<!-- Node17&#45;&gt;Node18 -->
<g id="edge21" class="edge">
<title>Node17&#45;&gt;Node18</title>
<path fill="none" stroke="#63b8ff" d="M611.94,-171.06C626.85,-161.72 650.47,-146.92 668.14,-135.86"/>
<polygon fill="#63b8ff" stroke="#63b8ff" points="669.64,-138.43 676.25,-130.15 665.92,-132.49 669.64,-138.43"/>
</g>
<!-- Node19 -->
<g id="node19" class="node">
<title>Node19</title>
<g id="a_node19"><a xlink:title=" ">
<polygon fill="#e0e0e0" stroke="#999999" points="586.41,-129.75 538.91,-129.75 538.91,-110.5 586.41,-110.5 586.41,-129.75"/>
<text text-anchor="middle" x="562.66" y="-116.25" font-family="Helvetica,sans-Serif" font-size="10.00">stdint.h</text>
</a>
</g>
</g>
<!-- Node17&#45;&gt;Node19 -->
<g id="edge23" class="edge">
<title>Node17&#45;&gt;Node19</title>
<path fill="none" stroke="#63b8ff" d="M592.35,-171.06C587.36,-162.67 579.76,-149.88 573.5,-139.34"/>
<polygon fill="#63b8ff" stroke="#63b8ff" points="576.15,-137.96 568.03,-131.15 570.13,-141.54 576.15,-137.96"/>
</g>
<!-- Node20 -->
<g id="node20" class="node">
<title>Node20</title>
<g id="a_node20"><a xlink:title=" ">
<polygon fill="#e0e0e0" stroke="#999999" points="651.04,-129.75 604.29,-129.75 604.29,-110.5 651.04,-110.5 651.04,-129.75"/>
<text text-anchor="middle" x="627.66" y="-116.25" font-family="Helvetica,sans-Serif" font-size="10.00">stdlib.h</text>
</a>
</g>
</g>
<!-- Node17&#45;&gt;Node20 -->
<g id="edge24" class="edge">
<title>Node17&#45;&gt;Node20</title>
<path fill="none" stroke="#63b8ff" d="M602.22,-171.06C606.45,-162.76 612.88,-150.14 618.21,-139.67"/>
<polygon fill="#63b8ff" stroke="#63b8ff" points="621.64,-141.65 623.07,-131.15 615.41,-138.47 621.64,-141.65"/>
</g>
<!-- Node21&#45;&gt;Node5 -->
<g id="edge33" class="edge">
<title>Node21&#45;&gt;Node5</title>
<path fill="none" stroke="#63b8ff" d="M1666.14,-490.42C1766.06,-477.49 1999.66,-439.82 1999.66,-370.25 1999.66,-370.25 1999.66,-370.25 1999.66,-180 1999.66,-81.15 1634.71,-67.84 1518.06,-66.11"/>
<polygon fill="#63b8ff" stroke="#63b8ff" points="1518.3,-62.6 1508.25,-65.98 1518.21,-69.6 1518.3,-62.6"/>
</g>
<!-- Node21&#45;&gt;Node10 -->
<g id="edge86" class="edge">
<title>Node21&#45;&gt;Node10</title>
<path fill="none" stroke="#63b8ff" d="M1577.28,-493.94C1342.15,-484.73 252.66,-438.38 252.66,-370.25 252.66,-370.25 252.66,-370.25 252.66,-180 252.66,-68.71 665,-63.83 797.91,-65.14"/>
<polygon fill="#63b8ff" stroke="#63b8ff" points="797.76,-68.65 807.8,-65.27 797.84,-61.65 797.76,-68.65"/>
</g>
<!-- Node22 -->
<g id="node22" class="node">
<title>Node22</title>
<g id="a_node22"><a xlink:title=" ">
<polygon fill="#e0e0e0" stroke="#999999" points="1595.29,-251.5 1550.04,-251.5 1550.04,-232.25 1595.29,-232.25 1595.29,-251.5"/>
<text text-anchor="middle" x="1572.66" y="-238" font-family="Helvetica,sans-Serif" font-size="10.00">atomic</text>
</a>
</g>
</g>
<!-- Node21&#45;&gt;Node22 -->
<g id="edge32" class="edge">
<title>Node21&#45;&gt;Node22</title>
<path fill="none" stroke="#63b8ff" d="M1622.4,-486.57C1624.47,-456.94 1628.67,-360.66 1602.66,-287.5 1599.2,-277.74 1593.1,-268.07 1587.31,-260.23"/>
<polygon fill="#63b8ff" stroke="#63b8ff" points="1589.53,-258.39 1580.59,-252.7 1584.03,-262.72 1589.53,-258.39"/>
</g>
<!-- Node23 -->
<g id="node23" class="node">
<title>Node23</title>
<g id="a_node23"><a xlink:title=" ">
<polygon fill="#e0e0e0" stroke="#999999" points="1824.16,-190.62 1763.16,-190.62 1763.16,-171.38 1824.16,-171.38 1824.16,-190.62"/>
<text text-anchor="middle" x="1793.66" y="-177.12" font-family="Helvetica,sans-Serif" font-size="10.00">type_traits</text>
</a>
</g>
</g>
<!-- Node21&#45;&gt;Node23 -->
<g id="edge34" class="edge">
<title>Node21&#45;&gt;Node23</title>
<path fill="none" stroke="#63b8ff" d="M1666.1,-487.33C1697.77,-480.34 1740.75,-468.62 1775.66,-451 1848.36,-414.32 1866.61,-391.5 1901.66,-318 1918.75,-282.17 1949.24,-264.91 1926.66,-232.25 1906.2,-202.64 1865.9,-190.46 1835,-185.46"/>
<polygon fill="#63b8ff" stroke="#63b8ff" points="1835.9,-181.91 1825.51,-183.97 1834.92,-188.84 1835.9,-181.91"/>
</g>
<!-- Node24 -->
<g id="node24" class="node">
<title>Node24</title>
<g id="a_node24"><a xlink:href="api-constants_8h.html" target="_top" xlink:title=" ">
<polygon fill="white" stroke="#666666" points="1378.91,-196.25 1286.41,-196.25 1286.41,-165.75 1378.91,-165.75 1378.91,-196.25"/>
<text text-anchor="start" x="1294.41" y="-182.75" font-family="Helvetica,sans-Serif" font-size="10.00">cppgc/internal/api</text>
<text text-anchor="middle" x="1332.66" y="-171.5" font-family="Helvetica,sans-Serif" font-size="10.00">&#45;constants.h</text>
</a>
</g>
</g>
<!-- Node21&#45;&gt;Node24 -->
<g id="edge35" class="edge">
<title>Node21&#45;&gt;Node24</title>
<path fill="none" stroke="#63b8ff" d="M1625.52,-486.65C1640.77,-449.63 1692.74,-307.25 1624.66,-232.25 1609.05,-215.05 1470.08,-197.1 1389.62,-188.03"/>
<polygon fill="#63b8ff" stroke="#63b8ff" points="1390.48,-184.49 1380.15,-186.86 1389.7,-191.45 1390.48,-184.49"/>
</g>
<!-- Node25 -->
<g id="node25" class="node">
<title>Node25</title>
<g id="a_node25"><a xlink:href="member-storage_8h.html" target="_top" xlink:title=" ">
<polygon fill="white" stroke="#666666" points="1466.16,-318 1351.16,-318 1351.16,-287.5 1466.16,-287.5 1466.16,-318"/>
<text text-anchor="start" x="1359.16" y="-304.5" font-family="Helvetica,sans-Serif" font-size="10.00">cppgc/internal/member</text>
<text text-anchor="middle" x="1408.66" y="-293.25" font-family="Helvetica,sans-Serif" font-size="10.00">&#45;storage.h</text>
</a>
</g>
</g>
<!-- Node21&#45;&gt;Node25 -->
<g id="edge39" class="edge">
<title>Node21&#45;&gt;Node25</title>
<path fill="none" stroke="#63b8ff" d="M1611.68,-486.63C1579.78,-457.89 1479.71,-367.75 1433.06,-325.72"/>
<polygon fill="#63b8ff" stroke="#63b8ff" points="1435.77,-323.55 1425.99,-319.46 1431.08,-328.75 1435.77,-323.55"/>
</g>
<!-- Node21&#45;&gt;Node27 -->
<g id="edge84" class="edge">
<title>Node21&#45;&gt;Node27</title>
<path fill="none" stroke="#63b8ff" d="M1577.3,-491.31C1477.52,-480.52 1240.86,-448.53 1199.66,-384.5 1173.83,-344.34 1208.87,-288.23 1230.27,-260.22"/>
<polygon fill="#63b8ff" stroke="#63b8ff" points="1233.43,-262.87 1236.89,-252.86 1227.94,-258.52 1233.43,-262.87"/>
</g>
<!-- Node28 -->
<g id="node28" class="node">
<title>Node28</title>
<g id="a_node28"><a xlink:href="pointer-policies_8h.html" target="_top" xlink:title=" ">
<polygon fill="white" stroke="#666666" points="1463.16,-451 1354.16,-451 1354.16,-420.5 1463.16,-420.5 1463.16,-451"/>
<text text-anchor="start" x="1362.16" y="-437.5" font-family="Helvetica,sans-Serif" font-size="10.00">cppgc/internal/pointer</text>
<text text-anchor="middle" x="1408.66" y="-426.25" font-family="Helvetica,sans-Serif" font-size="10.00">&#45;policies.h</text>
</a>
</g>
</g>
<!-- Node21&#45;&gt;Node28 -->
<g id="edge51" class="edge">
<title>Node21&#45;&gt;Node28</title>
<path fill="none" stroke="#63b8ff" d="M1588.85,-486.55C1557.92,-478 1510.72,-464.96 1472.38,-454.36"/>
<polygon fill="#63b8ff" stroke="#63b8ff" points="1473.4,-450.74 1462.83,-451.44 1471.53,-457.48 1473.4,-450.74"/>
</g>
<!-- Node35 -->
<g id="node35" class="node">
<title>Node35</title>
<g id="a_node35"><a xlink:href="type-traits_8h.html" target="_top" xlink:title=" ">
<polygon fill="white" stroke="#666666" points="1917.41,-251.5 1821.91,-251.5 1821.91,-232.25 1917.41,-232.25 1917.41,-251.5"/>
<text text-anchor="middle" x="1869.66" y="-238" font-family="Helvetica,sans-Serif" font-size="10.00">cppgc/type&#45;traits.h</text>
</a>
</g>
</g>
<!-- Node21&#45;&gt;Node35 -->
<g id="edge85" class="edge">
<title>Node21&#45;&gt;Node35</title>
<path fill="none" stroke="#63b8ff" d="M1651.36,-486.62C1709.74,-467.08 1837.93,-414.57 1885.66,-318 1894.59,-299.93 1887.41,-277.02 1880.02,-261.27"/>
<polygon fill="#63b8ff" stroke="#63b8ff" points="1882.76,-259.95 1875.06,-252.67 1876.54,-263.16 1882.76,-259.95"/>
</g>
<!-- Node24&#45;&gt;Node5 -->
<g id="edge36" class="edge">
<title>Node24&#45;&gt;Node5</title>
<path fill="none" stroke="#63b8ff" d="M1351.97,-165.31C1380.38,-143.69 1433.24,-103.48 1462.27,-81.39"/>
<polygon fill="#63b8ff" stroke="#63b8ff" points="1463.96,-83.75 1469.8,-74.91 1459.72,-78.18 1463.96,-83.75"/>
</g>
<!-- Node24&#45;&gt;Node6 -->
<g id="edge37" class="edge">
<title>Node24&#45;&gt;Node6</title>
<path fill="none" stroke="#63b8ff" d="M1304.69,-165.3C1287.14,-156.07 1264.65,-144.25 1247.35,-135.15"/>
<polygon fill="#63b8ff" stroke="#63b8ff" points="1249.32,-131.71 1238.84,-130.15 1246.06,-137.91 1249.32,-131.71"/>
</g>
<!-- Node24&#45;&gt;Node10 -->
<g id="edge38" class="edge">
<title>Node24&#45;&gt;Node10</title>
<path fill="none" stroke="#63b8ff" d="M1320.85,-165.39C1306.6,-148.93 1281,-122.86 1252.66,-110.5 1235.68,-103.09 980.27,-78.92 879.3,-69.59"/>
<polygon fill="#63b8ff" stroke="#63b8ff" points="879.89,-66.04 869.61,-68.61 879.25,-73.01 879.89,-66.04"/>
</g>
<!-- Node25&#45;&gt;Node5 -->
<g id="edge41" class="edge">
<title>Node25&#45;&gt;Node5</title>
<path fill="none" stroke="#63b8ff" d="M1427.79,-287.17C1449.94,-268.84 1484.87,-235.05 1496.66,-196.25 1507.75,-159.79 1502.44,-148.17 1496.66,-110.5 1495.36,-101.98 1492.73,-92.85 1490.1,-85.09"/>
<polygon fill="#63b8ff" stroke="#63b8ff" points="1493.1,-84.11 1486.39,-75.91 1486.53,-86.51 1493.1,-84.11"/>
</g>
<!-- Node25&#45;&gt;Node10 -->
<g id="edge50" class="edge">
<title>Node25&#45;&gt;Node10</title>
<path fill="none" stroke="#63b8ff" d="M1410.44,-287.06C1412.89,-260.27 1414.31,-202.79 1387.66,-165.75 1356.41,-122.3 1331.97,-125.73 1280.66,-110.5 1242.76,-99.25 981.97,-77.39 879.7,-69.14"/>
<polygon fill="#63b8ff" stroke="#63b8ff" points="880.13,-65.58 869.88,-68.27 879.57,-72.56 880.13,-65.58"/>
</g>
<!-- Node25&#45;&gt;Node22 -->
<g id="edge40" class="edge">
<title>Node25&#45;&gt;Node22</title>
<path fill="none" stroke="#63b8ff" d="M1449.63,-287.05C1477.48,-277.05 1513.84,-263.99 1539.79,-254.68"/>
<polygon fill="#63b8ff" stroke="#63b8ff" points="1540.65,-257.73 1548.88,-251.05 1538.29,-251.14 1540.65,-257.73"/>
</g>
<!-- Node25&#45;&gt;Node23 -->
<g id="edge42" class="edge">
<title>Node25&#45;&gt;Node23</title>
<path fill="none" stroke="#63b8ff" d="M1434.36,-287.09C1466.38,-269.01 1519.49,-239.75 1540.66,-232.25 1612.68,-206.75 1701.07,-192.92 1752.02,-186.53"/>
<polygon fill="#63b8ff" stroke="#63b8ff" points="1752.42,-189.89 1761.92,-185.21 1751.57,-182.94 1752.42,-189.89"/>
</g>
<!-- Node25&#45;&gt;Node24 -->
<g id="edge43" class="edge">
<title>Node25&#45;&gt;Node24</title>
<path fill="none" stroke="#63b8ff" d="M1399.35,-287.07C1386.46,-266.76 1363.04,-229.86 1347.67,-205.64"/>
<polygon fill="#63b8ff" stroke="#63b8ff" points="1350.14,-204 1341.82,-197.43 1344.23,-207.75 1350.14,-204"/>
</g>
<!-- Node26 -->
<g id="node26" class="node">
<title>Node26</title>
<g id="a_node26"><a xlink:href="logging_8h.html" target="_top" xlink:title=" ">
<polygon fill="white" stroke="#666666" points="1091.66,-251.5 973.66,-251.5 973.66,-232.25 1091.66,-232.25 1091.66,-251.5"/>
<text text-anchor="middle" x="1032.66" y="-238" font-family="Helvetica,sans-Serif" font-size="10.00">cppgc/internal/logging.h</text>
</a>
</g>
</g>
<!-- Node25&#45;&gt;Node26 -->
<g id="edge44" class="edge">
<title>Node25&#45;&gt;Node26</title>
<path fill="none" stroke="#63b8ff" d="M1350.74,-292.68C1283.53,-282.16 1172.82,-264.82 1101.34,-253.63"/>
<polygon fill="#63b8ff" stroke="#63b8ff" points="1102.08,-250.04 1091.66,-251.96 1100.99,-256.96 1102.08,-250.04"/>
</g>
<!-- Node25&#45;&gt;Node27 -->
<g id="edge47" class="edge">
<title>Node25&#45;&gt;Node27</title>
<path fill="none" stroke="#63b8ff" d="M1367.7,-287.05C1340.69,-277.35 1305.66,-264.77 1279.89,-255.52"/>
<polygon fill="#63b8ff" stroke="#63b8ff" points="1281.41,-251.99 1270.82,-251.9 1279.04,-258.58 1281.41,-251.99"/>
</g>
<!-- Node26&#45;&gt;Node10 -->
<g id="edge46" class="edge">
<title>Node26&#45;&gt;Node10</title>
<path fill="none" stroke="#63b8ff" d="M1029.04,-231.97C1019.18,-208.81 989.75,-146.04 946.66,-110.5 927.03,-94.3 900.7,-83.26 878.95,-76.22"/>
<polygon fill="#63b8ff" stroke="#63b8ff" points="880.28,-72.66 869.69,-73.07 878.23,-79.35 880.28,-72.66"/>
</g>
<!-- Node26&#45;&gt;Node14 -->
<g id="edge45" class="edge">
<title>Node26&#45;&gt;Node14</title>
<path fill="none" stroke="#63b8ff" d="M1042.23,-231.93C1051.76,-223.03 1066.61,-209.16 1078.23,-198.29"/>
<polygon fill="#63b8ff" stroke="#63b8ff" points="1080.09,-201.41 1085.01,-192.03 1075.31,-196.3 1080.09,-201.41"/>
</g>
<!-- Node27&#45;&gt;Node6 -->
<g id="edge48" class="edge">
<title>Node27&#45;&gt;Node6</title>
<path fill="none" stroke="#63b8ff" d="M1243.98,-232C1242.78,-217.85 1239.9,-189.39 1234.66,-165.75 1232.8,-157.33 1230.07,-148.23 1227.52,-140.44"/>
<polygon fill="#63b8ff" stroke="#63b8ff" points="1230.58,-139.56 1224.03,-131.23 1223.95,-141.83 1230.58,-139.56"/>
</g>
<!-- Node27&#45;&gt;Node24 -->
<g id="edge49" class="edge">
<title>Node27&#45;&gt;Node24</title>
<path fill="none" stroke="#63b8ff" d="M1258.03,-231.93C1269.66,-224.15 1286.95,-212.59 1301.96,-202.54"/>
<polygon fill="#63b8ff" stroke="#63b8ff" points="1303.58,-205 1309.94,-196.53 1299.69,-199.18 1303.58,-205"/>
</g>
<!-- Node28&#45;&gt;Node6 -->
<g id="edge52" class="edge">
<title>Node28&#45;&gt;Node6</title>
<path fill="none" stroke="#63b8ff" d="M1353.9,-429.12C1208.24,-412.75 818.7,-359.32 764.66,-251.5 724.56,-171.47 1085.36,-239.62 1163.66,-196.25 1186.44,-183.64 1202.91,-157.71 1212.12,-139.88"/>
<polygon fill="#63b8ff" stroke="#63b8ff" points="1215.7,-141.53 1216.91,-131.01 1209.4,-138.47 1215.7,-141.53"/>
</g>
<!-- Node28&#45;&gt;Node10 -->
<g id="edge83" class="edge">
<title>Node28&#45;&gt;Node10</title>
<path fill="none" stroke="#63b8ff" d="M1354,-433.93C1134.45,-429.94 328.66,-408.16 328.66,-303.75 328.66,-303.75 328.66,-303.75 328.66,-180 328.66,-144.36 338.69,-129.78 368.66,-110.5 404.37,-87.53 690.08,-72.51 797.78,-67.62"/>
<polygon fill="#63b8ff" stroke="#63b8ff" points="797.7,-71.08 807.53,-67.14 797.38,-64.09 797.7,-71.08"/>
</g>
<!-- Node28&#45;&gt;Node14 -->
<g id="edge81" class="edge">
<title>Node28&#45;&gt;Node14</title>
<path fill="none" stroke="#63b8ff" d="M1429.54,-420.01C1453.66,-403.23 1494.75,-375.39 1531.66,-354 1562.28,-336.26 1583.7,-347.87 1602.66,-318 1623.1,-285.82 1630.26,-260.5 1604.66,-232.25 1597.38,-224.21 1304.5,-199.16 1166.38,-187.75"/>
<polygon fill="#63b8ff" stroke="#63b8ff" points="1166.76,-184.19 1156.51,-186.86 1166.19,-191.17 1166.76,-184.19"/>
</g>
<!-- Node28&#45;&gt;Node23 -->
<g id="edge53" class="edge">
<title>Node28&#45;&gt;Node23</title>
<path fill="none" stroke="#63b8ff" d="M1445.76,-420.01C1468.17,-410.68 1497.05,-397.89 1521.66,-384.5 1625.74,-327.9 1734.27,-235.16 1775.94,-198.07"/>
<polygon fill="#63b8ff" stroke="#63b8ff" points="1777.89,-201.12 1783,-191.84 1773.22,-195.91 1777.89,-201.12"/>
</g>
<!-- Node28&#45;&gt;Node25 -->
<g id="edge54" class="edge">
<title>Node28&#45;&gt;Node25</title>
<path fill="none" stroke="#63b8ff" d="M1408.66,-420.23C1408.66,-398.3 1408.66,-356.4 1408.66,-329.29"/>
<polygon fill="#63b8ff" stroke="#63b8ff" points="1412.16,-329.33 1408.66,-319.33 1405.16,-329.33 1412.16,-329.33"/>
</g>
<!-- Node28&#45;&gt;Node27 -->
<g id="edge80" class="edge">
<title>Node28&#45;&gt;Node27</title>
<path fill="none" stroke="#63b8ff" d="M1396.07,-420.01C1366.2,-385.06 1291.19,-297.31 1259.34,-260.04"/>
<polygon fill="#63b8ff" stroke="#63b8ff" points="1261.38,-258.05 1252.23,-252.72 1256.06,-262.6 1261.38,-258.05"/>
</g>
<!-- Node29 -->
<g id="node29" class="node">
<title>Node29</title>
<g id="a_node29"><a xlink:href="write-barrier_8h.html" target="_top" xlink:title=" ">
<polygon fill="white" stroke="#666666" points="1309.04,-384.5 1208.29,-384.5 1208.29,-354 1309.04,-354 1309.04,-384.5"/>
<text text-anchor="start" x="1216.29" y="-371" font-family="Helvetica,sans-Serif" font-size="10.00">cppgc/internal/write</text>
<text text-anchor="middle" x="1258.66" y="-359.75" font-family="Helvetica,sans-Serif" font-size="10.00">&#45;barrier.h</text>
</a>
</g>
</g>
<!-- Node28&#45;&gt;Node29 -->
<g id="edge55" class="edge">
<title>Node28&#45;&gt;Node29</title>
<path fill="none" stroke="#63b8ff" d="M1374.63,-420.11C1353.32,-410.95 1325.65,-399.05 1302.68,-389.18"/>
<polygon fill="#63b8ff" stroke="#63b8ff" points="1304.4,-385.67 1293.83,-384.94 1301.63,-392.11 1304.4,-385.67"/>
</g>
<!-- Node28&#45;&gt;Node35 -->
<g id="edge82" class="edge">
<title>Node28&#45;&gt;Node35</title>
<path fill="none" stroke="#63b8ff" d="M1463.59,-428.87C1573.86,-415.82 1816,-380.58 1866.66,-318 1879.09,-302.65 1877.88,-279.21 1874.81,-262.6"/>
<polygon fill="#63b8ff" stroke="#63b8ff" points="1878.02,-261.91 1872.41,-252.92 1871.19,-263.45 1878.02,-261.91"/>
</g>
<!-- Node29&#45;&gt;Node5 -->
<g id="edge56" class="edge">
<title>Node29&#45;&gt;Node5</title>
<path fill="none" stroke="#63b8ff" d="M1272.86,-353.74C1282.22,-343.93 1294.58,-330.53 1304.66,-318 1372.35,-233.96 1443.7,-126.11 1471.06,-83.92"/>
<polygon fill="#63b8ff" stroke="#63b8ff" points="1474.42,-86.18 1476.91,-75.88 1468.54,-82.38 1474.42,-86.18"/>
</g>
<!-- Node29&#45;&gt;Node6 -->
<g id="edge57" class="edge">
<title>Node29&#45;&gt;Node6</title>
<path fill="none" stroke="#63b8ff" d="M1243.83,-353.7C1224.02,-333.11 1189.88,-293.3 1176.66,-251.5 1174.09,-243.34 1174.52,-240.53 1176.66,-232.25 1181.26,-214.53 1189.4,-213.05 1196.66,-196.25 1204.63,-177.82 1211.35,-155.86 1215.63,-140.46"/>
<polygon fill="#63b8ff" stroke="#63b8ff" points="1219.19,-141.69 1218.41,-131.12 1212.43,-139.87 1219.19,-141.69"/>
</g>
<!-- Node29&#45;&gt;Node10 -->
<g id="edge79" class="edge">
<title>Node29&#45;&gt;Node10</title>
<path fill="none" stroke="#63b8ff" d="M1207.89,-366.11C1129.26,-361.85 982.88,-349.77 942.66,-318 932.82,-310.23 868.02,-142.58 845.98,-85.05"/>
<polygon fill="#63b8ff" stroke="#63b8ff" points="848.91,-83.91 842.07,-75.82 842.37,-86.41 848.91,-83.91"/>
</g>
<!-- Node29&#45;&gt;Node13 -->
<g id="edge71" class="edge">
<title>Node29&#45;&gt;Node13</title>
<path fill="none" stroke="#63b8ff" d="M1208.12,-368.16C1118.36,-366.88 925.87,-359.07 769.66,-318 715.12,-303.66 655.7,-274.37 622.94,-256.9"/>
<polygon fill="#63b8ff" stroke="#63b8ff" points="625.12,-253.56 614.66,-251.88 621.79,-259.72 625.12,-253.56"/>
</g>
<!-- Node29&#45;&gt;Node24 -->
<g id="edge62" class="edge">
<title>Node29&#45;&gt;Node24</title>
<path fill="none" stroke="#63b8ff" d="M1266.22,-353.81C1277.4,-332.06 1298.55,-289.38 1312.66,-251.5 1318.08,-236.98 1322.92,-220.3 1326.48,-206.92"/>
<polygon fill="#63b8ff" stroke="#63b8ff" points="1330.04,-208.14 1329.16,-197.58 1323.27,-206.39 1330.04,-208.14"/>
</g>
<!-- Node29&#45;&gt;Node25 -->
<g id="edge70" class="edge">
<title>Node29&#45;&gt;Node25</title>
<path fill="none" stroke="#63b8ff" d="M1292.7,-353.61C1314.01,-344.45 1341.68,-332.55 1364.65,-322.68"/>
<polygon fill="#63b8ff" stroke="#63b8ff" points="1365.7,-325.61 1373.5,-318.44 1362.93,-319.17 1365.7,-325.61"/>
</g>
<!-- Node29&#45;&gt;Node27 -->
<g id="edge72" class="edge">
<title>Node29&#45;&gt;Node27</title>
<path fill="none" stroke="#63b8ff" d="M1248.7,-353.6C1242.76,-343.96 1235.78,-330.79 1232.66,-318 1228.09,-299.18 1232.69,-277.28 1237.46,-261.99"/>
<polygon fill="#63b8ff" stroke="#63b8ff" points="1241.04,-263.35 1240.99,-252.76 1234.42,-261.07 1241.04,-263.35"/>
</g>
<!-- Node30 -->
<g id="node30" class="node">
<title>Node30</title>
<g id="a_node30"><a xlink:href="heap-handle_8h.html" target="_top" xlink:title=" ">
<polygon fill="white" stroke="#666666" points="879.29,-251.5 774.04,-251.5 774.04,-232.25 879.29,-232.25 879.29,-251.5"/>
<text text-anchor="middle" x="826.66" y="-238" font-family="Helvetica,sans-Serif" font-size="10.00">cppgc/heap&#45;handle.h</text>
</a>
</g>
</g>
<!-- Node29&#45;&gt;Node30 -->
<g id="edge58" class="edge">
<title>Node29&#45;&gt;Node30</title>
<path fill="none" stroke="#63b8ff" d="M1208.1,-356.5C1203.57,-355.6 1199.04,-354.75 1194.66,-354 1061.85,-331.33 1013.12,-380.31 893.66,-318 868.92,-305.1 848.98,-279.07 837.48,-261.3"/>
<polygon fill="#63b8ff" stroke="#63b8ff" points="839.94,-259.63 831.71,-252.96 833.98,-263.31 839.94,-259.63"/>
</g>
<!-- Node31 -->
<g id="node31" class="node">
<title>Node31</title>
<g id="a_node31"><a xlink:href="heap-state_8h.html" target="_top" xlink:title=" ">
<polygon fill="white" stroke="#666666" points="828.91,-190.62 730.41,-190.62 730.41,-171.38 828.91,-171.38 828.91,-190.62"/>
<text text-anchor="middle" x="779.66" y="-177.12" font-family="Helvetica,sans-Serif" font-size="10.00">cppgc/heap&#45;state.h</text>
</a>
</g>
</g>
<!-- Node29&#45;&gt;Node31 -->
<g id="edge60" class="edge">
<title>Node29&#45;&gt;Node31</title>
<path fill="none" stroke="#63b8ff" d="M1207.95,-365.21C1114.05,-359.04 916.93,-343.46 853.66,-318 807.86,-299.57 786.79,-295.65 764.66,-251.5 756.64,-235.49 762.53,-215.32 769.13,-200.83"/>
<polygon fill="#63b8ff" stroke="#63b8ff" points="772.7,-202.53 774.11,-192.03 766.46,-199.36 772.7,-202.53"/>
</g>
<!-- Node32 -->
<g id="node32" class="node">
<title>Node32</title>
<g id="a_node32"><a xlink:href="atomic-entry-flag_8h.html" target="_top" xlink:title=" ">
<polygon fill="white" stroke="#666666" points="1593.16,-318 1484.16,-318 1484.16,-287.5 1593.16,-287.5 1593.16,-318"/>
<text text-anchor="start" x="1492.16" y="-304.5" font-family="Helvetica,sans-Serif" font-size="10.00">cppgc/internal/atomic</text>
<text text-anchor="middle" x="1538.66" y="-293.25" font-family="Helvetica,sans-Serif" font-size="10.00">&#45;entry&#45;flag.h</text>
</a>
</g>
</g>
<!-- Node29&#45;&gt;Node32 -->
<g id="edge63" class="edge">
<title>Node29&#45;&gt;Node32</title>
<path fill="none" stroke="#63b8ff" d="M1309.37,-356.57C1355.33,-345.98 1423.31,-330.32 1473.33,-318.8"/>
<polygon fill="#63b8ff" stroke="#63b8ff" points="1474.07,-321.99 1483.03,-316.34 1472.5,-315.17 1474.07,-321.99"/>
</g>
<!-- Node33 -->
<g id="node33" class="node">
<title>Node33</title>
<g id="a_node33"><a xlink:href="base-page-handle_8h.html" target="_top" xlink:title=" ">
<polygon fill="white" stroke="#666666" points="1052.04,-318 951.29,-318 951.29,-287.5 1052.04,-287.5 1052.04,-318"/>
<text text-anchor="start" x="959.29" y="-304.5" font-family="Helvetica,sans-Serif" font-size="10.00">cppgc/internal/base</text>
<text text-anchor="middle" x="1001.66" y="-293.25" font-family="Helvetica,sans-Serif" font-size="10.00">&#45;page&#45;handle.h</text>
</a>
</g>
</g>
<!-- Node29&#45;&gt;Node33 -->
<g id="edge65" class="edge">
<title>Node29&#45;&gt;Node33</title>
<path fill="none" stroke="#63b8ff" d="M1207.89,-355.51C1166.27,-345.06 1107.21,-330.24 1062.96,-319.13"/>
<polygon fill="#63b8ff" stroke="#63b8ff" points="1063.89,-315.51 1053.33,-316.47 1062.18,-322.3 1063.89,-315.51"/>
</g>
<!-- Node29&#45;&gt;Node34 -->
<g id="edge73" class="edge">
<title>Node29&#45;&gt;Node34</title>
<path fill="none" stroke="#63b8ff" d="M1309.11,-362.36C1411.65,-350.37 1643.86,-323.24 1752.54,-310.54"/>
<polygon fill="#63b8ff" stroke="#63b8ff" points="1752.76,-313.92 1762.29,-309.29 1751.95,-306.97 1752.76,-313.92"/>
</g>
<!-- Node30&#45;&gt;Node10 -->
<g id="edge59" class="edge">
<title>Node30&#45;&gt;Node10</title>
<path fill="none" stroke="#63b8ff" d="M829.58,-231.76C832.27,-222.83 836.1,-208.76 837.66,-196.25 842.55,-157.26 841.27,-111.2 839.94,-85.59"/>
<polygon fill="#63b8ff" stroke="#63b8ff" points="843.39,-85.55 839.31,-75.77 836.4,-85.96 843.39,-85.55"/>
</g>
<!-- Node31&#45;&gt;Node10 -->
<g id="edge61" class="edge">
<title>Node31&#45;&gt;Node10</title>
<path fill="none" stroke="#63b8ff" d="M784.29,-171.04C793.9,-152.46 816.18,-109.37 829.04,-84.5"/>
<polygon fill="#63b8ff" stroke="#63b8ff" points="832.57,-86.28 834.06,-75.79 826.36,-83.06 832.57,-86.28"/>
</g>
<!-- Node32&#45;&gt;Node22 -->
<g id="edge64" class="edge">
<title>Node32&#45;&gt;Node22</title>
<path fill="none" stroke="#63b8ff" d="M1547.07,-287.2C1551.6,-279.35 1557.23,-269.6 1562.06,-261.24"/>
<polygon fill="#63b8ff" stroke="#63b8ff" points="1565.45,-263.36 1567.42,-252.95 1559.39,-259.86 1565.45,-263.36"/>
</g>
<!-- Node33&#45;&gt;Node10 -->
<g id="edge69" class="edge">
<title>Node33&#45;&gt;Node10</title>
<path fill="none" stroke="#63b8ff" d="M989.26,-287.04C981.51,-277.37 971.71,-264.2 964.66,-251.5 931.96,-192.53 951.62,-162.48 908.66,-110.5 898.1,-97.72 882.89,-87.41 869.34,-79.93"/>
<polygon fill="#63b8ff" stroke="#63b8ff" points="871.35,-76.51 860.87,-75 868.12,-82.72 871.35,-76.51"/>
</g>
<!-- Node33&#45;&gt;Node24 -->
<g id="edge67" class="edge">
<title>Node33&#45;&gt;Node24</title>
<path fill="none" stroke="#63b8ff" d="M1036.6,-287.08C1071.74,-272.52 1127.59,-249.88 1176.66,-232.25 1209.24,-220.55 1246.09,-208.62 1275.79,-199.32"/>
<polygon fill="#63b8ff" stroke="#63b8ff" points="1276.47,-202.47 1284.97,-196.15 1274.39,-195.78 1276.47,-202.47"/>
</g>
<!-- Node33&#45;&gt;Node26 -->
<g id="edge68" class="edge">
<title>Node33&#45;&gt;Node26</title>
<path fill="none" stroke="#63b8ff" d="M1009.33,-287.2C1013.41,-279.44 1018.48,-269.81 1022.85,-261.51"/>
<polygon fill="#63b8ff" stroke="#63b8ff" points="1026.32,-263.43 1027.89,-252.95 1020.13,-260.17 1026.32,-263.43"/>
</g>
<!-- Node33&#45;&gt;Node30 -->
<g id="edge66" class="edge">
<title>Node33&#45;&gt;Node30</title>
<path fill="none" stroke="#63b8ff" d="M957.96,-287.05C929.09,-277.33 891.65,-264.74 864.15,-255.48"/>
<polygon fill="#63b8ff" stroke="#63b8ff" points="865.35,-251.86 854.76,-251.99 863.12,-258.5 865.35,-251.86"/>
</g>
<!-- Node34&#45;&gt;Node10 -->
<g id="edge78" class="edge">
<title>Node34&#45;&gt;Node10</title>
<path fill="none" stroke="#63b8ff" d="M1794.81,-292.66C1769.93,-278.62 1719.99,-251.28 1675.66,-232.25 1524.71,-167.44 1487.22,-145.3 1326.66,-110.5 1283.5,-101.15 989.28,-77.61 879.69,-69.05"/>
<polygon fill="#63b8ff" stroke="#63b8ff" points="880.01,-65.48 869.77,-68.2 879.47,-72.46 880.01,-65.48"/>
</g>
<!-- Node34&#45;&gt;Node23 -->
<g id="edge74" class="edge">
<title>Node34&#45;&gt;Node23</title>
<path fill="none" stroke="#63b8ff" d="M1809.39,-292.75C1806.65,-273.5 1800.19,-227.97 1796.46,-201.67"/>
<polygon fill="#63b8ff" stroke="#63b8ff" points="1799.83,-201.51 1794.96,-192.11 1792.9,-202.5 1799.83,-201.51"/>
</g>
<!-- Node34&#45;&gt;Node35 -->
<g id="edge75" class="edge">
<title>Node34&#45;&gt;Node35</title>
<path fill="none" stroke="#63b8ff" d="M1819.63,-292.81C1828.46,-283.99 1842.18,-270.3 1853.02,-259.48"/>
<polygon fill="#63b8ff" stroke="#63b8ff" points="1855.01,-262.44 1859.62,-252.9 1850.07,-257.49 1855.01,-262.44"/>
</g>
<!-- Node35&#45;&gt;Node5 -->
<g id="edge76" class="edge">
<title>Node35&#45;&gt;Node5</title>
<path fill="none" stroke="#63b8ff" d="M1867.85,-231.75C1864.22,-215.92 1854.56,-183.37 1833.66,-165.75 1739.61,-86.44 1586.28,-69.98 1517.72,-66.66"/>
<polygon fill="#63b8ff" stroke="#63b8ff" points="1518.22,-63.14 1508.08,-66.22 1517.93,-70.13 1518.22,-63.14"/>
</g>
<!-- Node35&#45;&gt;Node23 -->
<g id="edge77" class="edge">
<title>Node35&#45;&gt;Node23</title>
<path fill="none" stroke="#63b8ff" d="M1858.12,-231.93C1846.4,-222.86 1828.02,-208.62 1813.88,-197.66"/>
<polygon fill="#63b8ff" stroke="#63b8ff" points="1816.36,-194.38 1806.32,-191.03 1812.08,-199.92 1816.36,-194.38"/>
</g>
</g>
</svg>
