<?xml version="1.0" encoding="UTF-8" standalone="no"?>
<!DOCTYPE svg PUBLIC "-//W3C//DTD SVG 1.1//EN"
 "http://www.w3.org/Graphics/SVG/1.1/DTD/svg11.dtd">
<!-- Generated by graphviz version 8.0.5 (20230430.1635)
 -->
<!-- Title: include/v8&#45;maybe.h Pages: 1 -->
<svg width="1984pt" height="735pt"
 viewBox="0.00 0.00 1983.78 735.25" xmlns="http://www.w3.org/2000/svg" xmlns:xlink="http://www.w3.org/1999/xlink">
<g id="graph0" class="graph" transform="scale(1 1) rotate(0) translate(4 731.25)">
<title>include/v8&#45;maybe.h</title>
<!-- Node1 -->
<g id="node1" class="node">
<title>Node1</title>
<g id="a_node1"><a xlink:title=" ">
<polygon fill="#999999" stroke="#666666" points="350.15,-727.25 250.9,-727.25 250.9,-708 350.15,-708 350.15,-727.25"/>
<text text-anchor="middle" x="300.53" y="-713.75" font-family="Helvetica,sans-Serif" font-size="10.00">include/v8&#45;maybe.h</text>
</a>
</g>
</g>
<!-- Node2 -->
<g id="node2" class="node">
<title>Node2</title>
<g id="a_node2"><a xlink:href="v8-context_8h.html" target="_top" xlink:title=" ">
<polygon fill="white" stroke="#666666" points="468.65,-135.38 366.4,-135.38 366.4,-116.12 468.65,-116.12 468.65,-135.38"/>
<text text-anchor="middle" x="417.53" y="-121.88" font-family="Helvetica,sans-Serif" font-size="10.00">include/v8&#45;context.h</text>
</a>
</g>
</g>
<!-- Node1&#45;&gt;Node2 -->
<g id="edge1" class="edge">
<title>Node1&#45;&gt;Node2</title>
<path fill="none" stroke="#63b8ff" d="M252.95,-704.35C208.37,-689.64 148.53,-660.2 148.53,-608.12 148.53,-608.12 148.53,-608.12 148.53,-257.75 148.53,-220.88 141.03,-202.64 167.53,-177 195.28,-150.14 301.36,-136.55 366.09,-130.62"/>
<polygon fill="#63b8ff" stroke="#63b8ff" points="251.76,-707.96 262.35,-707.61 253.85,-701.28 251.76,-707.96"/>
</g>
<!-- Node4 -->
<g id="node4" class="node">
<title>Node4</title>
<g id="a_node4"><a xlink:href="v8_8h.html" target="_top" xlink:title=" ">
<polygon fill="white" stroke="#666666" points="1341.4,-19.25 1273.65,-19.25 1273.65,0 1341.4,0 1341.4,-19.25"/>
<text text-anchor="middle" x="1307.53" y="-5.75" font-family="Helvetica,sans-Serif" font-size="10.00">include/v8.h</text>
</a>
</g>
</g>
<!-- Node1&#45;&gt;Node4 -->
<g id="edge82" class="edge">
<title>Node1&#45;&gt;Node4</title>
<path fill="none" stroke="#63b8ff" d="M239.95,-711.66C195.09,-706.22 133.38,-695 83.53,-672 41.58,-652.65 1.53,-654.32 1.53,-608.12 1.53,-608.12 1.53,-608.12 1.53,-124.75 1.53,-92.73 -4.59,-75.12 20.53,-55.25 71.05,-15.28 1073.97,-11.11 1273.27,-10.68"/>
<polygon fill="#63b8ff" stroke="#63b8ff" points="239.35,-715.22 249.69,-712.88 240.15,-708.27 239.35,-715.22"/>
</g>
<!-- Node5 -->
<g id="node5" class="node">
<title>Node5</title>
<g id="a_node5"><a xlink:href="v8-message_8h.html" target="_top" xlink:title=" ">
<polygon fill="white" stroke="#666666" points="1004.78,-439.75 894.28,-439.75 894.28,-420.5 1004.78,-420.5 1004.78,-439.75"/>
<text text-anchor="middle" x="949.53" y="-426.25" font-family="Helvetica,sans-Serif" font-size="10.00">include/v8&#45;message.h</text>
</a>
</g>
</g>
<!-- Node1&#45;&gt;Node5 -->
<g id="edge5" class="edge">
<title>Node1&#45;&gt;Node5</title>
<path fill="none" stroke="#63b8ff" d="M331.04,-703.2C443.74,-653.62 834.88,-481.56 929.03,-440.14"/>
<polygon fill="#63b8ff" stroke="#63b8ff" points="329.77,-700.38 322.02,-707.61 332.59,-706.79 329.77,-700.38"/>
</g>
<!-- Node8 -->
<g id="node8" class="node">
<title>Node8</title>
<g id="a_node8"><a xlink:href="v8-script_8h.html" target="_top" xlink:title=" ">
<polygon fill="white" stroke="#666666" points="840.9,-384.5 746.15,-384.5 746.15,-365.25 840.9,-365.25 840.9,-384.5"/>
<text text-anchor="middle" x="793.53" y="-371" font-family="Helvetica,sans-Serif" font-size="10.00">include/v8&#45;script.h</text>
</a>
</g>
</g>
<!-- Node1&#45;&gt;Node8 -->
<g id="edge61" class="edge">
<title>Node1&#45;&gt;Node8</title>
<path fill="none" stroke="#63b8ff" d="M300.53,-696.87C300.53,-675.12 300.53,-639.13 300.53,-608.12 300.53,-608.12 300.53,-608.12 300.53,-550.88 300.53,-472.83 769.83,-444.73 775.53,-439.75 791.5,-425.81 793.81,-398.91 793.85,-384.88"/>
<polygon fill="#63b8ff" stroke="#63b8ff" points="297.03,-696.62 300.53,-706.62 304.03,-696.62 297.03,-696.62"/>
</g>
<!-- Node17 -->
<g id="node17" class="node">
<title>Node17</title>
<g id="a_node17"><a xlink:href="v8-object_8h.html" target="_top" xlink:title=" ">
<polygon fill="white" stroke="#666666" points="1081.03,-561.5 984.03,-561.5 984.03,-542.25 1081.03,-542.25 1081.03,-561.5"/>
<text text-anchor="middle" x="1032.53" y="-548" font-family="Helvetica,sans-Serif" font-size="10.00">include/v8&#45;object.h</text>
</a>
</g>
</g>
<!-- Node1&#45;&gt;Node17 -->
<g id="edge25" class="edge">
<title>Node1&#45;&gt;Node17</title>
<path fill="none" stroke="#63b8ff" d="M351.87,-705.14C489.92,-674.26 867.08,-589.89 991.85,-561.98"/>
<polygon fill="#63b8ff" stroke="#63b8ff" points="351.18,-701.93 342.19,-707.53 352.71,-708.76 351.18,-701.93"/>
</g>
<!-- Node31 -->
<g id="node31" class="node">
<title>Node31</title>
<g id="a_node31"><a xlink:href="v8-value-serializer_8h.html" target="_top" xlink:title=" ">
<polygon fill="white" stroke="#666666" points="165.15,-74.5 29.9,-74.5 29.9,-55.25 165.15,-55.25 165.15,-74.5"/>
<text text-anchor="middle" x="97.53" y="-61" font-family="Helvetica,sans-Serif" font-size="10.00">include/v8&#45;value&#45;serializer.h</text>
</a>
</g>
</g>
<!-- Node1&#45;&gt;Node31 -->
<g id="edge62" class="edge">
<title>Node1&#45;&gt;Node31</title>
<path fill="none" stroke="#63b8ff" d="M239.95,-713.28C172.41,-705.89 72.53,-682.4 72.53,-608.12 72.53,-608.12 72.53,-608.12 72.53,-191.25 72.53,-146.86 87.79,-95.31 94.46,-74.88"/>
<polygon fill="#63b8ff" stroke="#63b8ff" points="239.19,-716.82 249.49,-714.33 239.89,-709.85 239.19,-716.82"/>
</g>
<!-- Node32 -->
<g id="node32" class="node">
<title>Node32</title>
<g id="a_node32"><a xlink:href="v8-value_8h.html" target="_top" xlink:title=" ">
<polygon fill="white" stroke="#666666" points="1230.53,-672 1136.53,-672 1136.53,-652.75 1230.53,-652.75 1230.53,-672"/>
<text text-anchor="middle" x="1183.53" y="-658.5" font-family="Helvetica,sans-Serif" font-size="10.00">include/v8&#45;value.h</text>
</a>
</g>
</g>
<!-- Node1&#45;&gt;Node32 -->
<g id="edge64" class="edge">
<title>Node1&#45;&gt;Node32</title>
<path fill="none" stroke="#63b8ff" d="M361.03,-712.98C527.03,-702.97 987.13,-675.22 1136.23,-666.23"/>
<polygon fill="#63b8ff" stroke="#63b8ff" points="361.3,-709.51 351.53,-713.61 361.72,-716.5 361.3,-709.51"/>
</g>
<!-- Node3 -->
<g id="node3" class="node">
<title>Node3</title>
<g id="a_node3"><a xlink:href="v8-proxy_8h.html" target="_top" xlink:title=" ">
<polygon fill="white" stroke="#666666" points="430.15,-74.5 336.9,-74.5 336.9,-55.25 430.15,-55.25 430.15,-74.5"/>
<text text-anchor="middle" x="383.53" y="-61" font-family="Helvetica,sans-Serif" font-size="10.00">include/v8&#45;proxy.h</text>
</a>
</g>
</g>
<!-- Node2&#45;&gt;Node3 -->
<g id="edge2" class="edge">
<title>Node2&#45;&gt;Node3</title>
<path fill="none" stroke="#63b8ff" d="M406.88,-106.31C400.84,-95.85 393.55,-83.23 388.74,-74.9"/>
<polygon fill="#63b8ff" stroke="#63b8ff" points="404.33,-107.9 412.36,-114.81 410.39,-104.4 404.33,-107.9"/>
</g>
<!-- Node2&#45;&gt;Node4 -->
<g id="edge4" class="edge">
<title>Node2&#45;&gt;Node4</title>
<path fill="none" stroke="#63b8ff" d="M428.24,-107.11C439.46,-90.42 458.75,-66.34 482.53,-55.25 555,-21.45 1127.23,-12.67 1273.55,-10.97"/>
<polygon fill="#63b8ff" stroke="#63b8ff" points="425.04,-104.61 422.59,-114.92 430.93,-108.39 425.04,-104.61"/>
</g>
<!-- Node3&#45;&gt;Node4 -->
<g id="edge3" class="edge">
<title>Node3&#45;&gt;Node4</title>
<path fill="none" stroke="#63b8ff" d="M441.06,-55.6C442.23,-55.48 443.38,-55.36 444.53,-55.25 765.97,-24.28 1156.99,-13.84 1273.32,-11.3"/>
<polygon fill="#63b8ff" stroke="#63b8ff" points="440.97,-52.2 431.44,-56.81 441.77,-59.15 440.97,-52.2"/>
</g>
<!-- Node5&#45;&gt;Node4 -->
<g id="edge24" class="edge">
<title>Node5&#45;&gt;Node4</title>
<path fill="none" stroke="#63b8ff" d="M969,-413.42C988.94,-398.28 1021.48,-376.11 1053.53,-365.25 1127.37,-340.22 1343.07,-379.68 1402.53,-329.25 1426.95,-308.54 1421.53,-291.77 1421.53,-259.75 1421.53,-259.75 1421.53,-259.75 1421.53,-124.75 1421.53,-72.52 1361.02,-35.82 1328.17,-19.74"/>
<polygon fill="#63b8ff" stroke="#63b8ff" points="967.27,-411.11 961.52,-420.01 971.57,-416.64 967.27,-411.11"/>
</g>
<!-- Node6 -->
<g id="node6" class="node">
<title>Node6</title>
<g id="a_node6"><a xlink:href="v8-function_8h.html" target="_top" xlink:title=" ">
<polygon fill="white" stroke="#666666" points="1168.15,-384.5 1062.9,-384.5 1062.9,-365.25 1168.15,-365.25 1168.15,-384.5"/>
<text text-anchor="middle" x="1115.53" y="-371" font-family="Helvetica,sans-Serif" font-size="10.00">include/v8&#45;function.h</text>
</a>
</g>
</g>
<!-- Node5&#45;&gt;Node6 -->
<g id="edge6" class="edge">
<title>Node5&#45;&gt;Node6</title>
<path fill="none" stroke="#63b8ff" d="M987.9,-416.82C1018.23,-407.09 1059.88,-393.73 1087.23,-384.95"/>
<polygon fill="#63b8ff" stroke="#63b8ff" points="987.14,-413.7 978.69,-420.09 989.28,-420.37 987.14,-413.7"/>
</g>
<!-- Node7 -->
<g id="node7" class="node">
<title>Node7</title>
<g id="a_node7"><a xlink:href="v8-profiler_8h.html" target="_top" xlink:title=" ">
<polygon fill="white" stroke="#666666" points="999.15,-384.5 899.9,-384.5 899.9,-365.25 999.15,-365.25 999.15,-384.5"/>
<text text-anchor="middle" x="949.53" y="-371" font-family="Helvetica,sans-Serif" font-size="10.00">include/v8&#45;profiler.h</text>
</a>
</g>
</g>
<!-- Node5&#45;&gt;Node7 -->
<g id="edge8" class="edge">
<title>Node5&#45;&gt;Node7</title>
<path fill="none" stroke="#63b8ff" d="M949.53,-409.46C949.53,-401.02 949.53,-391.58 949.53,-384.86"/>
<polygon fill="#63b8ff" stroke="#63b8ff" points="946.03,-409.33 949.53,-419.33 953.03,-409.33 946.03,-409.33"/>
</g>
<!-- Node5&#45;&gt;Node8 -->
<g id="edge9" class="edge">
<title>Node5&#45;&gt;Node8</title>
<path fill="none" stroke="#63b8ff" d="M912.72,-416.56C884.28,-406.85 845.6,-393.65 820.12,-384.95"/>
<polygon fill="#63b8ff" stroke="#63b8ff" points="911.47,-420.17 922.07,-420.09 913.73,-413.55 911.47,-420.17"/>
</g>
<!-- Node6&#45;&gt;Node4 -->
<g id="edge7" class="edge">
<title>Node6&#45;&gt;Node4</title>
<path fill="none" stroke="#63b8ff" d="M1179.24,-365.41C1271.87,-353.04 1433.06,-331.28 1435.53,-329.25 1460.76,-308.49 1459.53,-292.43 1459.53,-259.75 1459.53,-259.75 1459.53,-259.75 1459.53,-124.75 1459.53,-92.07 1458.6,-78.39 1435.53,-55.25 1410.44,-30.08 1370.41,-19.08 1341.8,-14.29"/>
<polygon fill="#63b8ff" stroke="#63b8ff" points="1179.02,-362.04 1169.57,-366.83 1179.94,-368.98 1179.02,-362.04"/>
</g>
<!-- Node8&#45;&gt;Node4 -->
<g id="edge23" class="edge">
<title>Node8&#45;&gt;Node4</title>
<path fill="none" stroke="#63b8ff" d="M851.87,-365.08C918.1,-354.93 1021.93,-338.45 1060.53,-329.25 1140.69,-310.13 1164.14,-311.49 1237.53,-274 1290.9,-246.73 1345.53,-253.18 1345.53,-193.25 1345.53,-193.25 1345.53,-193.25 1345.53,-124.75 1345.53,-83.82 1323.25,-38.67 1312.81,-19.75"/>
<polygon fill="#63b8ff" stroke="#63b8ff" points="851.53,-361.74 842.18,-366.72 852.59,-368.66 851.53,-361.74"/>
</g>
<!-- Node9 -->
<g id="node9" class="node">
<title>Node9</title>
<g id="a_node9"><a xlink:href="v8-debug_8h.html" target="_top" xlink:title=" ">
<polygon fill="white" stroke="#666666" points="1051.03,-329.25 954.03,-329.25 954.03,-310 1051.03,-310 1051.03,-329.25"/>
<text text-anchor="middle" x="1002.53" y="-315.75" font-family="Helvetica,sans-Serif" font-size="10.00">include/v8&#45;debug.h</text>
</a>
</g>
</g>
<!-- Node8&#45;&gt;Node9 -->
<g id="edge10" class="edge">
<title>Node8&#45;&gt;Node9</title>
<path fill="none" stroke="#63b8ff" d="M839.36,-362.2C877.73,-352.42 931.71,-338.67 966.9,-329.7"/>
<polygon fill="#63b8ff" stroke="#63b8ff" points="838.81,-358.98 829.98,-364.84 840.54,-365.76 838.81,-358.98"/>
</g>
<!-- Node9&#45;&gt;Node4 -->
<g id="edge22" class="edge">
<title>Node9&#45;&gt;Node4</title>
<path fill="none" stroke="#63b8ff" d="M1059.85,-307.27C1148.19,-288.11 1307.53,-246.22 1307.53,-193.25 1307.53,-193.25 1307.53,-193.25 1307.53,-124.75 1307.53,-85.52 1307.53,-38.7 1307.53,-19.5"/>
<polygon fill="#63b8ff" stroke="#63b8ff" points="1059.23,-304.04 1050.18,-309.55 1060.69,-310.89 1059.23,-304.04"/>
</g>
<!-- Node10 -->
<g id="node10" class="node">
<title>Node10</title>
<g id="a_node10"><a xlink:href="v8-isolate_8h.html" target="_top" xlink:title=" ">
<polygon fill="white" stroke="#666666" points="1052.15,-268.38 952.9,-268.38 952.9,-249.12 1052.15,-249.12 1052.15,-268.38"/>
<text text-anchor="middle" x="1002.53" y="-254.88" font-family="Helvetica,sans-Serif" font-size="10.00">include/v8&#45;isolate.h</text>
</a>
</g>
</g>
<!-- Node9&#45;&gt;Node10 -->
<g id="edge11" class="edge">
<title>Node9&#45;&gt;Node10</title>
<path fill="none" stroke="#63b8ff" d="M1002.53,-298.87C1002.53,-288.68 1002.53,-276.76 1002.53,-268.78"/>
<polygon fill="#63b8ff" stroke="#63b8ff" points="999.03,-298.68 1002.53,-308.68 1006.03,-298.68 999.03,-298.68"/>
</g>
<!-- Node10&#45;&gt;Node4 -->
<g id="edge21" class="edge">
<title>Node10&#45;&gt;Node4</title>
<path fill="none" stroke="#63b8ff" d="M1046.09,-245.37C1071,-237.04 1102.06,-224.46 1126.53,-207.5 1168.5,-178.4 1272.01,-53.92 1300.29,-19.48"/>
<polygon fill="#63b8ff" stroke="#63b8ff" points="1045.27,-242.28 1036.83,-248.68 1047.42,-248.94 1045.27,-242.28"/>
</g>
<!-- Node11 -->
<g id="node11" class="node">
<title>Node11</title>
<g id="a_node11"><a xlink:href="v8-external-memory-accounter_8h.html" target="_top" xlink:title=" ">
<polygon fill="white" stroke="#666666" points="1279.9,-207.5 1173.15,-207.5 1173.15,-177 1279.9,-177 1279.9,-207.5"/>
<text text-anchor="start" x="1181.15" y="-194" font-family="Helvetica,sans-Serif" font-size="10.00">include/v8&#45;external</text>
<text text-anchor="middle" x="1226.53" y="-182.75" font-family="Helvetica,sans-Serif" font-size="10.00">&#45;memory&#45;accounter.h</text>
</a>
</g>
</g>
<!-- Node10&#45;&gt;Node11 -->
<g id="edge12" class="edge">
<title>Node10&#45;&gt;Node11</title>
<path fill="none" stroke="#63b8ff" d="M1044.62,-245.63C1081.79,-234.93 1136.07,-219.3 1175.65,-207.9"/>
<polygon fill="#63b8ff" stroke="#63b8ff" points="1043.79,-242.52 1035.15,-248.65 1045.73,-249.24 1043.79,-242.52"/>
</g>
<!-- Node12 -->
<g id="node12" class="node">
<title>Node12</title>
<g id="a_node12"><a xlink:href="v8-initialization_8h.html" target="_top" xlink:title=" ">
<polygon fill="white" stroke="#666666" points="738.03,-201.88 617.03,-201.88 617.03,-182.62 738.03,-182.62 738.03,-201.88"/>
<text text-anchor="middle" x="677.53" y="-188.38" font-family="Helvetica,sans-Serif" font-size="10.00">include/v8&#45;initialization.h</text>
</a>
</g>
</g>
<!-- Node10&#45;&gt;Node12 -->
<g id="edge13" class="edge">
<title>Node10&#45;&gt;Node12</title>
<path fill="none" stroke="#63b8ff" d="M945.36,-246.59C893.67,-236.48 815.48,-221.11 747.53,-207.5 739.26,-205.84 730.44,-204.06 721.96,-202.34"/>
<polygon fill="#63b8ff" stroke="#63b8ff" points="944.49,-250.18 954.98,-248.67 945.84,-243.31 944.49,-250.18"/>
</g>
<!-- Node13 -->
<g id="node13" class="node">
<title>Node13</title>
<g id="a_node13"><a xlink:href="v8-inspector_8h.html" target="_top" xlink:title=" ">
<polygon fill="white" stroke="#666666" points="995.78,-201.88 885.28,-201.88 885.28,-182.62 995.78,-182.62 995.78,-201.88"/>
<text text-anchor="middle" x="940.53" y="-188.38" font-family="Helvetica,sans-Serif" font-size="10.00">include/v8&#45;inspector.h</text>
</a>
</g>
</g>
<!-- Node10&#45;&gt;Node13 -->
<g id="edge15" class="edge">
<title>Node10&#45;&gt;Node13</title>
<path fill="none" stroke="#63b8ff" d="M986.38,-240.95C974.45,-228.54 958.67,-212.12 949.08,-202.14"/>
<polygon fill="#63b8ff" stroke="#63b8ff" points="983.45,-243 992.91,-247.78 988.5,-238.15 983.45,-243"/>
</g>
<!-- Node15 -->
<g id="node15" class="node">
<title>Node15</title>
<g id="a_node15"><a xlink:href="v8-metrics_8h.html" target="_top" xlink:title=" ">
<polygon fill="white" stroke="#666666" points="1117.03,-201.88 1014.03,-201.88 1014.03,-182.62 1117.03,-182.62 1117.03,-201.88"/>
<text text-anchor="middle" x="1065.53" y="-188.38" font-family="Helvetica,sans-Serif" font-size="10.00">include/v8&#45;metrics.h</text>
</a>
</g>
</g>
<!-- Node10&#45;&gt;Node15 -->
<g id="edge17" class="edge">
<title>Node10&#45;&gt;Node15</title>
<path fill="none" stroke="#63b8ff" d="M1018.93,-240.95C1031.06,-228.54 1047.1,-212.12 1056.84,-202.14"/>
<polygon fill="#63b8ff" stroke="#63b8ff" points="1016.77,-238.18 1012.29,-247.78 1021.78,-243.07 1016.77,-238.18"/>
</g>
<!-- Node16 -->
<g id="node16" class="node">
<title>Node16</title>
<g id="a_node16"><a xlink:href="v8-snapshot_8h.html" target="_top" xlink:title=" ">
<polygon fill="white" stroke="#666666" points="866.78,-201.88 756.28,-201.88 756.28,-182.62 866.78,-182.62 866.78,-201.88"/>
<text text-anchor="middle" x="811.53" y="-188.38" font-family="Helvetica,sans-Serif" font-size="10.00">include/v8&#45;snapshot.h</text>
</a>
</g>
</g>
<!-- Node10&#45;&gt;Node16 -->
<g id="edge18" class="edge">
<title>Node10&#45;&gt;Node16</title>
<path fill="none" stroke="#63b8ff" d="M965.6,-245.28C928.29,-232.68 871.56,-213.52 838.35,-202.31"/>
<polygon fill="#63b8ff" stroke="#63b8ff" points="963.97,-248.76 974.57,-248.65 966.21,-242.13 963.97,-248.76"/>
</g>
<!-- Node12&#45;&gt;Node4 -->
<g id="edge14" class="edge">
<title>Node12&#45;&gt;Node4</title>
<path fill="none" stroke="#63b8ff" d="M700.52,-176.53C746.4,-147.93 853.45,-85.05 952.53,-55.25 1066.59,-20.94 1208.95,-12.99 1273.22,-11.16"/>
<polygon fill="#63b8ff" stroke="#63b8ff" points="699.03,-173.96 692.43,-182.24 702.76,-179.88 699.03,-173.96"/>
</g>
<!-- Node14 -->
<g id="node14" class="node">
<title>Node14</title>
<g id="a_node14"><a xlink:href="v8-inspector-protocol_8h.html" target="_top" xlink:title=" ">
<polygon fill="white" stroke="#666666" points="992.03,-141 889.03,-141 889.03,-110.5 992.03,-110.5 992.03,-141"/>
<text text-anchor="start" x="897.03" y="-127.5" font-family="Helvetica,sans-Serif" font-size="10.00">include/v8&#45;inspector</text>
<text text-anchor="middle" x="940.53" y="-116.25" font-family="Helvetica,sans-Serif" font-size="10.00">&#45;protocol.h</text>
</a>
</g>
</g>
<!-- Node13&#45;&gt;Node14 -->
<g id="edge16" class="edge">
<title>Node13&#45;&gt;Node14</title>
<path fill="none" stroke="#63b8ff" d="M940.53,-171.52C940.53,-161.7 940.53,-150.05 940.53,-141.09"/>
<polygon fill="#63b8ff" stroke="#63b8ff" points="937.03,-171.28 940.53,-181.28 944.03,-171.28 937.03,-171.28"/>
</g>
<!-- Node16&#45;&gt;Node2 -->
<g id="edge19" class="edge">
<title>Node16&#45;&gt;Node2</title>
<path fill="none" stroke="#63b8ff" d="M762.05,-179.88C757.15,-178.86 752.25,-177.88 747.53,-177 649.41,-158.63 533.93,-142.23 468.87,-133.47"/>
<polygon fill="#63b8ff" stroke="#63b8ff" points="761.18,-183.49 771.69,-182.16 762.65,-176.65 761.18,-183.49"/>
</g>
<!-- Node16&#45;&gt;Node4 -->
<g id="edge20" class="edge">
<title>Node16&#45;&gt;Node4</title>
<path fill="none" stroke="#63b8ff" d="M822.1,-173.16C833.94,-154.54 854.88,-126.11 880.53,-110.5 1010.27,-31.53 1197.12,-14.99 1273.27,-11.53"/>
<polygon fill="#63b8ff" stroke="#63b8ff" points="818.71,-170.99 816.48,-181.35 824.68,-174.64 818.71,-170.99"/>
</g>
<!-- Node17&#45;&gt;Node3 -->
<g id="edge54" class="edge">
<title>Node17&#45;&gt;Node3</title>
<path fill="none" stroke="#63b8ff" d="M972.77,-549.11C839.91,-544.74 528.55,-531.88 488.53,-506.25 388.73,-442.34 387.63,-388.62 357.53,-274 339.07,-203.72 338.58,-180.65 357.53,-110.5 361.18,-97 370.03,-83.38 376.4,-74.8"/>
<polygon fill="#63b8ff" stroke="#63b8ff" points="972.43,-552.63 982.54,-549.46 972.66,-545.64 972.43,-552.63"/>
</g>
<!-- Node17&#45;&gt;Node4 -->
<g id="edge60" class="edge">
<title>Node17&#45;&gt;Node4</title>
<path fill="none" stroke="#63b8ff" d="M1092.44,-548.68C1176.49,-544.64 1324.21,-533.77 1369.53,-506.25 1425.98,-471.98 1535.53,-325.79 1535.53,-259.75 1535.53,-259.75 1535.53,-259.75 1535.53,-124.75 1535.53,-39.1 1405.27,-17.72 1341.66,-12.39"/>
<polygon fill="#63b8ff" stroke="#63b8ff" points="1092.35,-545.23 1082.52,-549.18 1092.67,-552.22 1092.35,-545.23"/>
</g>
<!-- Node17&#45;&gt;Node6 -->
<g id="edge42" class="edge">
<title>Node17&#45;&gt;Node6</title>
<path fill="none" stroke="#63b8ff" d="M1030.76,-531.09C1029.32,-504.03 1030.26,-454.93 1051.53,-420.5 1061.57,-404.25 1079.96,-392.36 1094.46,-384.96"/>
<polygon fill="#63b8ff" stroke="#63b8ff" points="1027.32,-531.11 1031.53,-540.84 1034.31,-530.61 1027.32,-531.11"/>
</g>
<!-- Node18 -->
<g id="node18" class="node">
<title>Node18</title>
<g id="a_node18"><a xlink:href="v8-array-buffer_8h.html" target="_top" xlink:title=" ">
<polygon fill="white" stroke="#666666" points="522.9,-329.25 404.15,-329.25 404.15,-310 522.9,-310 522.9,-329.25"/>
<text text-anchor="middle" x="463.53" y="-315.75" font-family="Helvetica,sans-Serif" font-size="10.00">include/v8&#45;array&#45;buffer.h</text>
</a>
</g>
</g>
<!-- Node17&#45;&gt;Node18 -->
<g id="edge26" class="edge">
<title>Node17&#45;&gt;Node18</title>
<path fill="none" stroke="#63b8ff" d="M972.94,-549.43C845.06,-545.79 553.08,-534.46 518.53,-506.25 462.29,-460.34 461.8,-359.75 463.02,-329.44"/>
<polygon fill="#63b8ff" stroke="#63b8ff" points="972.6,-552.94 982.69,-549.72 972.79,-545.95 972.6,-552.94"/>
</g>
<!-- Node21 -->
<g id="node21" class="node">
<title>Node21</title>
<g id="a_node21"><a xlink:href="v8-container_8h.html" target="_top" xlink:title=" ">
<polygon fill="white" stroke="#666666" points="1628.78,-384.5 1518.28,-384.5 1518.28,-365.25 1628.78,-365.25 1628.78,-384.5"/>
<text text-anchor="middle" x="1573.53" y="-371" font-family="Helvetica,sans-Serif" font-size="10.00">include/v8&#45;container.h</text>
</a>
</g>
</g>
<!-- Node17&#45;&gt;Node21 -->
<g id="edge32" class="edge">
<title>Node17&#45;&gt;Node21</title>
<path fill="none" stroke="#63b8ff" d="M1091.96,-548.39C1211.16,-542.97 1470.93,-528.7 1504.53,-506.25 1548.82,-476.65 1566.69,-409.08 1571.83,-384.79"/>
<polygon fill="#63b8ff" stroke="#63b8ff" points="1092.05,-544.93 1082.22,-548.88 1092.36,-551.92 1092.05,-544.93"/>
</g>
<!-- Node22 -->
<g id="node22" class="node">
<title>Node22</title>
<g id="a_node22"><a xlink:href="v8-date_8h.html" target="_top" xlink:title=" ">
<polygon fill="white" stroke="#666666" points="1691.28,-329.25 1601.78,-329.25 1601.78,-310 1691.28,-310 1691.28,-329.25"/>
<text text-anchor="middle" x="1646.53" y="-315.75" font-family="Helvetica,sans-Serif" font-size="10.00">include/v8&#45;date.h</text>
</a>
</g>
</g>
<!-- Node17&#45;&gt;Node22 -->
<g id="edge34" class="edge">
<title>Node17&#45;&gt;Node22</title>
<path fill="none" stroke="#63b8ff" d="M1092.22,-551.08C1207.74,-550.6 1457.13,-544.94 1532.53,-506.25 1596.1,-473.63 1608.01,-449.57 1637.53,-384.5 1645.76,-366.35 1646.9,-342.56 1646.82,-329.74"/>
<polygon fill="#63b8ff" stroke="#63b8ff" points="1092.46,-547.59 1082.47,-551.12 1092.48,-554.59 1092.46,-547.59"/>
</g>
<!-- Node23 -->
<g id="node23" class="node">
<title>Node23</title>
<g id="a_node23"><a xlink:href="v8-exception_8h.html" target="_top" xlink:title=" ">
<polygon fill="white" stroke="#666666" points="639.53,-500.62 527.53,-500.62 527.53,-481.38 639.53,-481.38 639.53,-500.62"/>
<text text-anchor="middle" x="583.53" y="-487.12" font-family="Helvetica,sans-Serif" font-size="10.00">include/v8&#45;exception.h</text>
</a>
</g>
</g>
<!-- Node17&#45;&gt;Node23 -->
<g id="edge36" class="edge">
<title>Node17&#45;&gt;Node23</title>
<path fill="none" stroke="#63b8ff" d="M973.08,-545.83C897.4,-538.98 762.73,-525.35 648.53,-506.25 639.87,-504.8 630.62,-502.96 621.9,-501.08"/>
<polygon fill="#63b8ff" stroke="#63b8ff" points="972.54,-549.38 982.81,-546.79 973.17,-542.41 972.54,-549.38"/>
</g>
<!-- Node24 -->
<g id="node24" class="node">
<title>Node24</title>
<g id="a_node24"><a xlink:href="v8-template_8h.html" target="_top" xlink:title=" ">
<polygon fill="white" stroke="#666666" points="1168.65,-439.75 1060.4,-439.75 1060.4,-420.5 1168.65,-420.5 1168.65,-439.75"/>
<text text-anchor="middle" x="1114.53" y="-426.25" font-family="Helvetica,sans-Serif" font-size="10.00">include/v8&#45;template.h</text>
</a>
</g>
</g>
<!-- Node17&#45;&gt;Node24 -->
<g id="edge57" class="edge">
<title>Node17&#45;&gt;Node24</title>
<path fill="none" stroke="#63b8ff" d="M1044.71,-533.09C1062.45,-507.18 1094.75,-460.01 1108.29,-440.23"/>
<polygon fill="#63b8ff" stroke="#63b8ff" points="1041.45,-530.65 1038.69,-540.87 1047.23,-534.6 1041.45,-530.65"/>
</g>
<!-- Node25 -->
<g id="node25" class="node">
<title>Node25</title>
<g id="a_node25"><a xlink:href="v8-primitive-object_8h.html" target="_top" xlink:title=" ">
<polygon fill="white" stroke="#666666" points="1739.53,-274 1639.53,-274 1639.53,-243.5 1739.53,-243.5 1739.53,-274"/>
<text text-anchor="start" x="1647.53" y="-260.5" font-family="Helvetica,sans-Serif" font-size="10.00">include/v8&#45;primitive</text>
<text text-anchor="middle" x="1689.53" y="-249.25" font-family="Helvetica,sans-Serif" font-size="10.00">&#45;object.h</text>
</a>
</g>
</g>
<!-- Node17&#45;&gt;Node25 -->
<g id="edge43" class="edge">
<title>Node17&#45;&gt;Node25</title>
<path fill="none" stroke="#63b8ff" d="M1091.97,-548.78C1212.36,-544.07 1481.09,-531.07 1569.53,-506.25 1641.32,-486.1 1719.53,-505.69 1719.53,-431.12 1719.53,-431.12 1719.53,-431.12 1719.53,-373.88 1719.53,-337 1704.7,-295.56 1695.89,-274.2"/>
<polygon fill="#63b8ff" stroke="#63b8ff" points="1091.99,-545.31 1082.14,-549.2 1092.26,-552.31 1091.99,-545.31"/>
</g>
<!-- Node26 -->
<g id="node26" class="node">
<title>Node26</title>
<g id="a_node26"><a xlink:href="v8-promise_8h.html" target="_top" xlink:title=" ">
<polygon fill="white" stroke="#666666" points="763.15,-500.62 657.9,-500.62 657.9,-481.38 763.15,-481.38 763.15,-500.62"/>
<text text-anchor="middle" x="710.53" y="-487.12" font-family="Helvetica,sans-Serif" font-size="10.00">include/v8&#45;promise.h</text>
</a>
</g>
</g>
<!-- Node17&#45;&gt;Node26 -->
<g id="edge45" class="edge">
<title>Node17&#45;&gt;Node26</title>
<path fill="none" stroke="#63b8ff" d="M972.98,-539.99C911.85,-528.81 817.78,-511.61 760.42,-501.12"/>
<polygon fill="#63b8ff" stroke="#63b8ff" points="972.16,-543.58 982.62,-541.93 973.42,-536.69 972.16,-543.58"/>
</g>
<!-- Node29 -->
<g id="node29" class="node">
<title>Node29</title>
<g id="a_node29"><a xlink:href="v8-regexp_8h.html" target="_top" xlink:title=" ">
<polygon fill="white" stroke="#666666" points="222.15,-135.38 122.9,-135.38 122.9,-116.12 222.15,-116.12 222.15,-135.38"/>
<text text-anchor="middle" x="172.53" y="-121.88" font-family="Helvetica,sans-Serif" font-size="10.00">include/v8&#45;regexp.h</text>
</a>
</g>
</g>
<!-- Node17&#45;&gt;Node29 -->
<g id="edge55" class="edge">
<title>Node17&#45;&gt;Node29</title>
<path fill="none" stroke="#63b8ff" d="M972.96,-550.78C825.13,-549.95 444.72,-544.1 324.53,-506.25 218.3,-472.8 110.53,-487.25 110.53,-375.88 110.53,-375.88 110.53,-375.88 110.53,-257.75 110.53,-220.31 117.63,-210.41 134.53,-177 142.52,-161.19 155.62,-145.27 164.15,-135.7"/>
<polygon fill="#63b8ff" stroke="#63b8ff" points="972.6,-554.28 982.62,-550.83 972.63,-547.28 972.6,-554.28"/>
</g>
<!-- Node30 -->
<g id="node30" class="node">
<title>Node30</title>
<g id="a_node30"><a xlink:href="v8-wasm_8h.html" target="_top" xlink:title=" ">
<polygon fill="white" stroke="#666666" points="319.03,-74.5 222.03,-74.5 222.03,-55.25 319.03,-55.25 319.03,-74.5"/>
<text text-anchor="middle" x="270.53" y="-61" font-family="Helvetica,sans-Serif" font-size="10.00">include/v8&#45;wasm.h</text>
</a>
</g>
</g>
<!-- Node17&#45;&gt;Node30 -->
<g id="edge58" class="edge">
<title>Node17&#45;&gt;Node30</title>
<path fill="none" stroke="#63b8ff" d="M973.04,-549.29C832.54,-545.13 488.54,-532.37 443.53,-506.25 360.76,-458.22 285.34,-132.82 272.46,-74.74"/>
<polygon fill="#63b8ff" stroke="#63b8ff" points="972.9,-552.81 983,-549.61 973.1,-545.82 972.9,-552.81"/>
</g>
<!-- Node18&#45;&gt;Node4 -->
<g id="edge31" class="edge">
<title>Node18&#45;&gt;Node4</title>
<path fill="none" stroke="#63b8ff" d="M477.26,-300.9C482.9,-292.99 489.12,-283.37 493.53,-274 536.76,-182.25 479.08,-118.29 558.53,-55.25 615.04,-10.41 1134.48,-9.76 1273.46,-10.4"/>
<polygon fill="#63b8ff" stroke="#63b8ff" points="473.99,-298.43 470.84,-308.55 479.61,-302.6 473.99,-298.43"/>
</g>
<!-- Node18&#45;&gt;Node10 -->
<g id="edge27" class="edge">
<title>Node18&#45;&gt;Node10</title>
<path fill="none" stroke="#63b8ff" d="M533.97,-310.93C644.52,-298.86 856.07,-275.75 952.45,-265.22"/>
<polygon fill="#63b8ff" stroke="#63b8ff" points="533.83,-307.53 524.27,-312.1 534.59,-314.49 533.83,-307.53"/>
</g>
<!-- Node19 -->
<g id="node19" class="node">
<title>Node19</title>
<g id="a_node19"><a xlink:href="v8-typed-array_8h.html" target="_top" xlink:title=" ">
<polygon fill="white" stroke="#666666" points="484.53,-268.38 366.53,-268.38 366.53,-249.12 484.53,-249.12 484.53,-268.38"/>
<text text-anchor="middle" x="425.53" y="-254.88" font-family="Helvetica,sans-Serif" font-size="10.00">include/v8&#45;typed&#45;array.h</text>
</a>
</g>
</g>
<!-- Node18&#45;&gt;Node19 -->
<g id="edge28" class="edge">
<title>Node18&#45;&gt;Node19</title>
<path fill="none" stroke="#63b8ff" d="M451.84,-300.51C445.05,-289.99 436.79,-277.19 431.35,-268.78"/>
<polygon fill="#63b8ff" stroke="#63b8ff" points="449.39,-302.18 457.76,-308.68 455.27,-298.38 449.39,-302.18"/>
</g>
<!-- Node19&#45;&gt;Node4 -->
<g id="edge30" class="edge">
<title>Node19&#45;&gt;Node4</title>
<path fill="none" stroke="#63b8ff" d="M434.08,-238.87C456.64,-189.13 516.36,-58.07 520.53,-55.25 583.53,-12.67 1130.31,-10.39 1273.38,-10.53"/>
<polygon fill="#63b8ff" stroke="#63b8ff" points="430.57,-237.12 429.63,-247.67 436.95,-240.01 430.57,-237.12"/>
</g>
<!-- Node20 -->
<g id="node20" class="node">
<title>Node20</title>
<g id="a_node20"><a xlink:href="v8-fast-api-calls_8h.html" target="_top" xlink:title=" ">
<polygon fill="white" stroke="#666666" points="272.28,-207.5 176.78,-207.5 176.78,-177 272.28,-177 272.28,-207.5"/>
<text text-anchor="start" x="184.78" y="-194" font-family="Helvetica,sans-Serif" font-size="10.00">include/v8&#45;fast&#45;api</text>
<text text-anchor="middle" x="224.53" y="-182.75" font-family="Helvetica,sans-Serif" font-size="10.00">&#45;calls.h</text>
</a>
</g>
</g>
<!-- Node19&#45;&gt;Node20 -->
<g id="edge29" class="edge">
<title>Node19&#45;&gt;Node20</title>
<path fill="none" stroke="#63b8ff" d="M386.89,-245.35C353.57,-234.66 305.4,-219.2 270.18,-207.9"/>
<polygon fill="#63b8ff" stroke="#63b8ff" points="385.57,-248.92 396.16,-248.65 387.7,-242.26 385.57,-248.92"/>
</g>
<!-- Node21&#45;&gt;Node4 -->
<g id="edge33" class="edge">
<title>Node21&#45;&gt;Node4</title>
<path fill="none" stroke="#63b8ff" d="M1573.53,-354.11C1573.53,-331.35 1573.53,-292.85 1573.53,-259.75 1573.53,-259.75 1573.53,-259.75 1573.53,-124.75 1573.53,-92.07 1574.3,-76.56 1549.53,-55.25 1518.84,-28.85 1400.98,-17.08 1341.82,-12.75"/>
<polygon fill="#63b8ff" stroke="#63b8ff" points="1570.03,-354 1573.53,-364 1577.03,-354 1570.03,-354"/>
</g>
<!-- Node22&#45;&gt;Node4 -->
<g id="edge35" class="edge">
<title>Node22&#45;&gt;Node4</title>
<path fill="none" stroke="#63b8ff" d="M1637.81,-299.82C1627.45,-275.68 1611.53,-232.27 1611.53,-193.25 1611.53,-193.25 1611.53,-193.25 1611.53,-124.75 1611.53,-92.07 1612.56,-76.26 1587.53,-55.25 1550.86,-24.48 1408.28,-14.71 1341.89,-11.79"/>
<polygon fill="#63b8ff" stroke="#63b8ff" points="1634.97,-301.03 1642.24,-308.74 1641.36,-298.18 1634.97,-301.03"/>
</g>
<!-- Node23&#45;&gt;Node4 -->
<g id="edge41" class="edge">
<title>Node23&#45;&gt;Node4</title>
<path fill="none" stroke="#63b8ff" d="M574.6,-471.31C564.83,-449.09 550.53,-410.63 550.53,-375.88 550.53,-375.88 550.53,-375.88 550.53,-257.75 550.53,-180.82 577.4,-152.99 641.53,-110.5 747.28,-40.43 1152.28,-17.39 1273.23,-11.99"/>
<polygon fill="#63b8ff" stroke="#63b8ff" points="571.73,-472.45 579.08,-480.08 578.1,-469.53 571.73,-472.45"/>
</g>
<!-- Node23&#45;&gt;Node10 -->
<g id="edge37" class="edge">
<title>Node23&#45;&gt;Node10</title>
<path fill="none" stroke="#63b8ff" d="M588.32,-470.42C592.71,-455.51 600.41,-435.11 612.53,-420.5 669.56,-351.7 698.29,-344.98 780.53,-310 836.89,-286.02 906.39,-272.66 952.45,-265.85"/>
<polygon fill="#63b8ff" stroke="#63b8ff" points="584.69,-469.43 585.48,-479.99 591.45,-471.24 584.69,-469.43"/>
</g>
<!-- Node23&#45;&gt;Node24 -->
<g id="edge38" class="edge">
<title>Node23&#45;&gt;Node24</title>
<path fill="none" stroke="#63b8ff" d="M631.85,-478.73C637.45,-477.63 643.1,-476.6 648.53,-475.75 688.32,-469.51 945.95,-446.17 1060.16,-435.96"/>
<polygon fill="#63b8ff" stroke="#63b8ff" points="631.28,-475.49 622.19,-480.94 632.69,-482.34 631.28,-475.49"/>
</g>
<!-- Node24&#45;&gt;Node4 -->
<g id="edge40" class="edge">
<title>Node24&#45;&gt;Node4</title>
<path fill="none" stroke="#63b8ff" d="M1179.9,-428.61C1289.28,-423.93 1497.53,-396.99 1497.53,-259.75 1497.53,-259.75 1497.53,-259.75 1497.53,-124.75 1497.53,-88.89 1484.76,-77.36 1456.53,-55.25 1423.05,-29.03 1374.36,-18.18 1341.86,-13.71"/>
<polygon fill="#63b8ff" stroke="#63b8ff" points="1179.86,-425.15 1170,-429.02 1180.12,-432.14 1179.86,-425.15"/>
</g>
<!-- Node24&#45;&gt;Node6 -->
<g id="edge39" class="edge">
<title>Node24&#45;&gt;Node6</title>
<path fill="none" stroke="#63b8ff" d="M1114.9,-409.46C1115.06,-401.02 1115.23,-391.58 1115.36,-384.86"/>
<polygon fill="#63b8ff" stroke="#63b8ff" points="1111.38,-409.27 1114.69,-419.33 1118.38,-409.4 1111.38,-409.27"/>
</g>
<!-- Node25&#45;&gt;Node4 -->
<g id="edge44" class="edge">
<title>Node25&#45;&gt;Node4</title>
<path fill="none" stroke="#63b8ff" d="M1689.6,-232.44C1688.23,-188.9 1678.65,-100.18 1625.53,-55.25 1583.23,-19.47 1414.94,-12.35 1341.78,-10.95"/>
<polygon fill="#63b8ff" stroke="#63b8ff" points="1686.11,-232.27 1689.79,-242.21 1693.11,-232.14 1686.11,-232.27"/>
</g>
<!-- Node26&#45;&gt;Node4 -->
<g id="edge53" class="edge">
<title>Node26&#45;&gt;Node4</title>
<path fill="none" stroke="#63b8ff" d="M682.88,-475.31C669.46,-466.73 654.37,-454.66 645.53,-439.75 585.37,-338.32 544.34,-275.93 608.53,-177 648,-116.16 690.67,-138.59 757.53,-110.5 819.2,-84.58 832.59,-71.29 897.53,-55.25 1033.95,-21.56 1202.16,-13.3 1273.24,-11.28"/>
<polygon fill="#63b8ff" stroke="#63b8ff" points="680.86,-478.78 691.24,-480.92 684.46,-472.78 680.86,-478.78"/>
</g>
<!-- Node27 -->
<g id="node27" class="node">
<title>Node27</title>
<g id="a_node27"><a xlink:href="v8-callbacks_8h.html" target="_top" xlink:title=" ">
<polygon fill="white" stroke="#666666" points="766.53,-439.75 654.53,-439.75 654.53,-420.5 766.53,-420.5 766.53,-439.75"/>
<text text-anchor="middle" x="710.53" y="-426.25" font-family="Helvetica,sans-Serif" font-size="10.00">include/v8&#45;callbacks.h</text>
</a>
</g>
</g>
<!-- Node26&#45;&gt;Node27 -->
<g id="edge46" class="edge">
<title>Node26&#45;&gt;Node27</title>
<path fill="none" stroke="#63b8ff" d="M710.53,-470.24C710.53,-460.06 710.53,-448.13 710.53,-440.15"/>
<polygon fill="#63b8ff" stroke="#63b8ff" points="707.03,-470.06 710.53,-480.06 714.03,-470.06 707.03,-470.06"/>
</g>
<!-- Node28 -->
<g id="node28" class="node">
<title>Node28</title>
<g id="a_node28"><a xlink:href="v8-statistics_8h.html" target="_top" xlink:title=" ">
<polygon fill="white" stroke="#666666" points="1393.78,-329.25 1283.28,-329.25 1283.28,-310 1393.78,-310 1393.78,-329.25"/>
<text text-anchor="middle" x="1338.53" y="-315.75" font-family="Helvetica,sans-Serif" font-size="10.00">include/v8&#45;statistics.h</text>
</a>
</g>
</g>
<!-- Node26&#45;&gt;Node28 -->
<g id="edge50" class="edge">
<title>Node26&#45;&gt;Node28</title>
<path fill="none" stroke="#63b8ff" d="M741.87,-476.52C761.72,-467.36 787.51,-454.3 808.53,-439.75 849.01,-411.72 845.54,-385.26 890.53,-365.25 925.61,-349.65 1170.79,-331.71 1282.86,-324.21"/>
<polygon fill="#63b8ff" stroke="#63b8ff" points="740.76,-473.63 733.09,-480.93 743.64,-480.01 740.76,-473.63"/>
</g>
<!-- Node27&#45;&gt;Node8 -->
<g id="edge49" class="edge">
<title>Node27&#45;&gt;Node8</title>
<path fill="none" stroke="#63b8ff" d="M733.6,-414.32C748.29,-404.9 766.84,-393 779.38,-384.95"/>
<polygon fill="#63b8ff" stroke="#63b8ff" points="732.14,-411.75 725.61,-420.09 735.91,-417.64 732.14,-411.75"/>
</g>
<!-- Node27&#45;&gt;Node10 -->
<g id="edge48" class="edge">
<title>Node27&#45;&gt;Node10</title>
<path fill="none" stroke="#63b8ff" d="M714.54,-409.58C718.32,-395.6 725.3,-377.23 737.53,-365.25 797.41,-306.61 893.94,-279.4 952.49,-267.68"/>
<polygon fill="#63b8ff" stroke="#63b8ff" points="710.96,-408.5 712.07,-419.04 717.77,-410.11 710.96,-408.5"/>
</g>
<!-- Node27&#45;&gt;Node12 -->
<g id="edge47" class="edge">
<title>Node27&#45;&gt;Node12</title>
<path fill="none" stroke="#63b8ff" d="M707.79,-409.57C701.01,-361.07 683.6,-236.68 678.78,-202.22"/>
<polygon fill="#63b8ff" stroke="#63b8ff" points="704.42,-409.75 709.28,-419.17 711.36,-408.78 704.42,-409.75"/>
</g>
<!-- Node28&#45;&gt;Node4 -->
<g id="edge52" class="edge">
<title>Node28&#45;&gt;Node4</title>
<path fill="none" stroke="#63b8ff" d="M1349.57,-300.39C1362.9,-276.62 1383.53,-233.34 1383.53,-193.25 1383.53,-193.25 1383.53,-193.25 1383.53,-124.75 1383.53,-92.07 1377.9,-82.28 1359.53,-55.25 1349.5,-40.49 1333.37,-27.71 1321.73,-19.65"/>
<polygon fill="#63b8ff" stroke="#63b8ff" points="1346.23,-298.19 1344.23,-308.59 1352.28,-301.7 1346.23,-298.19"/>
</g>
<!-- Node28&#45;&gt;Node10 -->
<g id="edge51" class="edge">
<title>Node28&#45;&gt;Node10</title>
<path fill="none" stroke="#63b8ff" d="M1276.32,-307.72C1211.75,-296.41 1112.03,-278.94 1052.43,-268.49"/>
<polygon fill="#63b8ff" stroke="#63b8ff" points="1275.31,-311.28 1285.76,-309.55 1276.52,-304.38 1275.31,-311.28"/>
</g>
<!-- Node29&#45;&gt;Node4 -->
<g id="edge56" class="edge">
<title>Node29&#45;&gt;Node4</title>
<path fill="none" stroke="#63b8ff" d="M178.01,-105.84C183.89,-89.34 194.97,-66.36 213.53,-55.25 260.07,-27.4 1093.3,-13.74 1273.39,-11.1"/>
<polygon fill="#63b8ff" stroke="#63b8ff" points="174.47,-104.41 174.74,-115 181.14,-106.55 174.47,-104.41"/>
</g>
<!-- Node30&#45;&gt;Node4 -->
<g id="edge59" class="edge">
<title>Node30&#45;&gt;Node4</title>
<path fill="none" stroke="#63b8ff" d="M330.11,-55.1C705.6,-18.85 1149.08,-12.11 1273.58,-10.89"/>
<polygon fill="#63b8ff" stroke="#63b8ff" points="329.92,-51.7 320.3,-56.15 330.6,-58.66 329.92,-51.7"/>
</g>
<!-- Node31&#45;&gt;Node4 -->
<g id="edge63" class="edge">
<title>Node31&#45;&gt;Node4</title>
<path fill="none" stroke="#63b8ff" d="M176.08,-55.51C177.24,-55.42 178.39,-55.33 179.53,-55.25 610.55,-24.09 1135.92,-13.5 1273.34,-11.16"/>
<polygon fill="#63b8ff" stroke="#63b8ff" points="176.19,-52.07 166.51,-56.38 176.77,-59.04 176.19,-52.07"/>
</g>
<!-- Node32&#45;&gt;Node4 -->
<g id="edge81" class="edge">
<title>Node32&#45;&gt;Node4</title>
<path fill="none" stroke="#63b8ff" d="M1241.65,-657.91C1402.81,-647.53 1843.53,-613.6 1843.53,-552.88 1843.53,-552.88 1843.53,-552.88 1843.53,-124.75 1843.53,-21.76 1460.17,-11.34 1341.87,-10.58"/>
<polygon fill="#63b8ff" stroke="#63b8ff" points="1241.75,-654.46 1231.99,-658.59 1242.2,-661.45 1241.75,-654.46"/>
</g>
<!-- Node32&#45;&gt;Node17 -->
<g id="edge68" class="edge">
<title>Node32&#45;&gt;Node17</title>
<path fill="none" stroke="#63b8ff" d="M1162.31,-646.13C1130.34,-623.16 1070.81,-580.38 1045,-561.84"/>
<polygon fill="#63b8ff" stroke="#63b8ff" points="1159.75,-649.32 1169.91,-652.31 1163.84,-643.63 1159.75,-649.32"/>
</g>
<!-- Node32&#45;&gt;Node20 -->
<g id="edge67" class="edge">
<title>Node32&#45;&gt;Node20</title>
<path fill="none" stroke="#63b8ff" d="M1125.59,-656.89C923.58,-640.51 262.53,-580.15 262.53,-492 262.53,-492 262.53,-492 262.53,-318.62 262.53,-277 243.11,-230.82 232.04,-207.87"/>
<polygon fill="#63b8ff" stroke="#63b8ff" points="1125.02,-660.44 1135.27,-657.75 1125.58,-653.46 1125.02,-660.44"/>
</g>
<!-- Node33 -->
<g id="node33" class="node">
<title>Node33</title>
<g id="a_node33"><a xlink:href="v8-external_8h.html" target="_top" xlink:title=" ">
<polygon fill="white" stroke="#666666" points="1975.78,-616.75 1871.28,-616.75 1871.28,-597.5 1975.78,-597.5 1975.78,-616.75"/>
<text text-anchor="middle" x="1923.53" y="-603.25" font-family="Helvetica,sans-Serif" font-size="10.00">include/v8&#45;external.h</text>
</a>
</g>
</g>
<!-- Node32&#45;&gt;Node33 -->
<g id="edge65" class="edge">
<title>Node32&#45;&gt;Node33</title>
<path fill="none" stroke="#63b8ff" d="M1241.84,-658.77C1358.79,-653.27 1630.28,-639.1 1857.53,-616.75 1861.9,-616.32 1866.43,-615.83 1870.97,-615.3"/>
<polygon fill="#63b8ff" stroke="#63b8ff" points="1241.83,-655.31 1232.01,-659.28 1242.16,-662.31 1241.83,-655.31"/>
</g>
<!-- Node34 -->
<g id="node34" class="node">
<title>Node34</title>
<g id="a_node34"><a xlink:href="v8-primitive_8h.html" target="_top" xlink:title=" ">
<polygon fill="white" stroke="#666666" points="1288.28,-616.75 1180.78,-616.75 1180.78,-597.5 1288.28,-597.5 1288.28,-616.75"/>
<text text-anchor="middle" x="1234.53" y="-603.25" font-family="Helvetica,sans-Serif" font-size="10.00">include/v8&#45;primitive.h</text>
</a>
</g>
</g>
<!-- Node32&#45;&gt;Node34 -->
<g id="edge69" class="edge">
<title>Node32&#45;&gt;Node34</title>
<path fill="none" stroke="#63b8ff" d="M1199.35,-644.85C1208.12,-635.7 1218.68,-624.68 1225.92,-617.11"/>
<polygon fill="#63b8ff" stroke="#63b8ff" points="1197.34,-641.94 1192.95,-651.58 1202.39,-646.78 1197.34,-641.94"/>
</g>
<!-- Node33&#45;&gt;Node4 -->
<g id="edge66" class="edge">
<title>Node33&#45;&gt;Node4</title>
<path fill="none" stroke="#63b8ff" d="M1917.68,-586.53C1911.46,-563.95 1902.53,-525.64 1902.53,-492 1902.53,-492 1902.53,-492 1902.53,-124.75 1902.53,-87.95 1889.12,-74.12 1857.53,-55.25 1813.27,-28.81 1454.6,-15.28 1341.54,-11.65"/>
<polygon fill="#63b8ff" stroke="#63b8ff" points="1914.58,-587.41 1920.7,-596.06 1921.3,-585.48 1914.58,-587.41"/>
</g>
<!-- Node34&#45;&gt;Node4 -->
<g id="edge80" class="edge">
<title>Node34&#45;&gt;Node4</title>
<path fill="none" stroke="#63b8ff" d="M1299.61,-606.66C1449.34,-606.15 1805.53,-594.2 1805.53,-492 1805.53,-492 1805.53,-492 1805.53,-124.75 1805.53,-29.4 1454.27,-13.71 1341.76,-11.13"/>
<polygon fill="#63b8ff" stroke="#63b8ff" points="1299.76,-603.17 1289.76,-606.68 1299.77,-610.17 1299.76,-603.17"/>
</g>
<!-- Node34&#45;&gt;Node5 -->
<g id="edge78" class="edge">
<title>Node34&#45;&gt;Node5</title>
<path fill="none" stroke="#63b8ff" d="M1210.71,-591.5C1153.72,-556.51 1010.81,-468.76 964.37,-440.24"/>
<polygon fill="#63b8ff" stroke="#63b8ff" points="1208.65,-594.96 1219,-597.21 1212.31,-588.99 1208.65,-594.96"/>
</g>
<!-- Node34&#45;&gt;Node10 -->
<g id="edge77" class="edge">
<title>Node34&#45;&gt;Node10</title>
<path fill="none" stroke="#63b8ff" d="M1234.53,-586.36C1234.53,-563.6 1234.53,-525.1 1234.53,-492 1234.53,-492 1234.53,-492 1234.53,-429.12 1234.53,-334.37 1106.73,-286.97 1040.84,-268.83"/>
<polygon fill="#63b8ff" stroke="#63b8ff" points="1231.03,-586.25 1234.53,-596.25 1238.03,-586.25 1231.03,-586.25"/>
</g>
<!-- Node34&#45;&gt;Node17 -->
<g id="edge79" class="edge">
<title>Node34&#45;&gt;Node17</title>
<path fill="none" stroke="#63b8ff" d="M1189.75,-594.32C1152.7,-584.55 1100.83,-570.88 1066.96,-561.95"/>
<polygon fill="#63b8ff" stroke="#63b8ff" points="1188.7,-597.93 1199.26,-597.09 1190.48,-591.16 1188.7,-597.93"/>
</g>
<!-- Node35 -->
<g id="node35" class="node">
<title>Node35</title>
<g id="a_node35"><a xlink:href="v8-extension_8h.html" target="_top" xlink:title=" ">
<polygon fill="white" stroke="#666666" points="1604.53,-561.5 1492.53,-561.5 1492.53,-542.25 1604.53,-542.25 1604.53,-561.5"/>
<text text-anchor="middle" x="1548.53" y="-548" font-family="Helvetica,sans-Serif" font-size="10.00">include/v8&#45;extension.h</text>
</a>
</g>
</g>
<!-- Node34&#45;&gt;Node35 -->
<g id="edge70" class="edge">
<title>Node34&#45;&gt;Node35</title>
<path fill="none" stroke="#63b8ff" d="M1298.99,-595.19C1356.79,-585.39 1440.63,-571.17 1494.87,-561.98"/>
<polygon fill="#63b8ff" stroke="#63b8ff" points="1298.42,-591.91 1289.15,-597.03 1299.59,-598.81 1298.42,-591.91"/>
</g>
<!-- Node36 -->
<g id="node36" class="node">
<title>Node36</title>
<g id="a_node36"><a xlink:href="v8-function-callback_8h.html" target="_top" xlink:title=" ">
<polygon fill="white" stroke="#666666" points="1360.4,-506.25 1262.65,-506.25 1262.65,-475.75 1360.4,-475.75 1360.4,-506.25"/>
<text text-anchor="start" x="1270.65" y="-492.75" font-family="Helvetica,sans-Serif" font-size="10.00">include/v8&#45;function</text>
<text text-anchor="middle" x="1311.53" y="-481.5" font-family="Helvetica,sans-Serif" font-size="10.00">&#45;callback.h</text>
</a>
</g>
</g>
<!-- Node34&#45;&gt;Node36 -->
<g id="edge72" class="edge">
<title>Node34&#45;&gt;Node36</title>
<path fill="none" stroke="#63b8ff" d="M1246.55,-588.31C1261.76,-565.77 1287.66,-527.37 1301.73,-506.52"/>
<polygon fill="#63b8ff" stroke="#63b8ff" points="1243.26,-585.92 1240.57,-596.17 1249.06,-589.84 1243.26,-585.92"/>
</g>
<!-- Node35&#45;&gt;Node4 -->
<g id="edge71" class="edge">
<title>Node35&#45;&gt;Node4</title>
<path fill="none" stroke="#63b8ff" d="M1615.45,-542.69C1679.85,-530.63 1767.53,-501.32 1767.53,-431.12 1767.53,-431.12 1767.53,-431.12 1767.53,-124.75 1767.53,-37.02 1448.33,-16.26 1341.73,-11.77"/>
<polygon fill="#63b8ff" stroke="#63b8ff" points="1615.17,-539.36 1605.93,-544.54 1616.38,-546.25 1615.17,-539.36"/>
</g>
<!-- Node36&#45;&gt;Node6 -->
<g id="edge73" class="edge">
<title>Node36&#45;&gt;Node6</title>
<path fill="none" stroke="#63b8ff" d="M1276.8,-469.78C1233.78,-444.73 1162.35,-403.14 1131.04,-384.91"/>
<polygon fill="#63b8ff" stroke="#63b8ff" points="1274.9,-473.31 1285.31,-475.31 1278.43,-467.26 1274.9,-473.31"/>
</g>
<!-- Node36&#45;&gt;Node10 -->
<g id="edge74" class="edge">
<title>Node36&#45;&gt;Node10</title>
<path fill="none" stroke="#63b8ff" d="M1301.38,-465.62C1281.33,-417.68 1238.01,-315.29 1231.53,-310 1204.56,-288 1111.45,-272.97 1052.58,-265.41"/>
<polygon fill="#63b8ff" stroke="#63b8ff" points="1298.42,-466.62 1305.51,-474.5 1304.88,-463.93 1298.42,-466.62"/>
</g>
<!-- Node36&#45;&gt;Node24 -->
<g id="edge75" class="edge">
<title>Node36&#45;&gt;Node24</title>
<path fill="none" stroke="#63b8ff" d="M1252.13,-472.25C1216.82,-461.7 1173.52,-448.75 1145.03,-440.24"/>
<polygon fill="#63b8ff" stroke="#63b8ff" points="1250.74,-475.79 1261.33,-475.3 1252.75,-469.08 1250.74,-475.79"/>
</g>
<!-- Node37 -->
<g id="node37" class="node">
<title>Node37</title>
<g id="a_node37"><a xlink:href="v8-util_8h.html" target="_top" xlink:title=" ">
<polygon fill="white" stroke="#666666" points="1384.28,-439.75 1300.78,-439.75 1300.78,-420.5 1384.28,-420.5 1384.28,-439.75"/>
<text text-anchor="middle" x="1342.53" y="-426.25" font-family="Helvetica,sans-Serif" font-size="10.00">include/v8&#45;util.h</text>
</a>
</g>
</g>
<!-- Node36&#45;&gt;Node37 -->
<g id="edge76" class="edge">
<title>Node36&#45;&gt;Node37</title>
<path fill="none" stroke="#63b8ff" d="M1324.3,-465.74C1329.05,-456.72 1334.16,-447.03 1337.75,-440.2"/>
<polygon fill="#63b8ff" stroke="#63b8ff" points="1320.75,-463.97 1319.19,-474.45 1326.95,-467.23 1320.75,-463.97"/>
</g>
</g>
</svg>
