<?xml version="1.0" encoding="UTF-8" standalone="no"?>
<!DOCTYPE svg PUBLIC "-//W3C//DTD SVG 1.1//EN"
 "http://www.w3.org/Graphics/SVG/1.1/DTD/svg11.dtd">
<!-- Generated by graphviz version 8.0.5 (20230430.1635)
 -->
<!-- Title: include/v8&#45;proxy.h Pages: 1 -->
<svg width="2796pt" height="757pt"
 viewBox="0.00 0.00 2795.97 756.75" xmlns="http://www.w3.org/2000/svg" xmlns:xlink="http://www.w3.org/1999/xlink">
<g id="graph0" class="graph" transform="scale(1 1) rotate(0) translate(4 752.75)">
<title>include/v8&#45;proxy.h</title>
<!-- Node1 -->
<g id="node1" class="node">
<title>Node1</title>
<g id="a_node1"><a xlink:title=" ">
<polygon fill="#999999" stroke="#666666" points="697.6,-748.75 604.35,-748.75 604.35,-729.5 697.6,-729.5 697.6,-748.75"/>
<text text-anchor="middle" x="650.97" y="-735.25" font-family="Helvetica,sans-Serif" font-size="10.00">include/v8&#45;proxy.h</text>
</a>
</g>
</g>
<!-- Node2 -->
<g id="node2" class="node">
<title>Node2</title>
<g id="a_node2"><a xlink:href="v8-context_8h.html" target="_top" xlink:title=" ">
<polygon fill="white" stroke="#666666" points="856.22,-693.5 787.72,-693.5 787.72,-674.25 856.22,-674.25 856.22,-693.5"/>
<text text-anchor="middle" x="821.97" y="-680" font-family="Helvetica,sans-Serif" font-size="10.00">v8&#45;context.h</text>
</a>
</g>
</g>
<!-- Node1&#45;&gt;Node2 -->
<g id="edge1" class="edge">
<title>Node1&#45;&gt;Node2</title>
<path fill="none" stroke="#63b8ff" d="M679.98,-729.09C708.23,-720.29 751.38,-706.86 782.69,-697.11"/>
<polygon fill="#63b8ff" stroke="#63b8ff" points="783.32,-700.27 791.82,-693.95 781.23,-693.58 783.32,-700.27"/>
</g>
<!-- Node10 -->
<g id="node10" class="node">
<title>Node10</title>
<g id="a_node10"><a xlink:href="v8-local-handle_8h.html" target="_top" xlink:title=" ">
<polygon fill="white" stroke="#666666" points="2048.35,-251.5 1959.6,-251.5 1959.6,-232.25 2048.35,-232.25 2048.35,-251.5"/>
<text text-anchor="middle" x="2003.97" y="-238" font-family="Helvetica,sans-Serif" font-size="10.00">v8&#45;local&#45;handle.h</text>
</a>
</g>
</g>
<!-- Node1&#45;&gt;Node10 -->
<g id="edge143" class="edge">
<title>Node1&#45;&gt;Node10</title>
<path fill="none" stroke="#63b8ff" d="M697.89,-738.18C1004.67,-738.26 2711.97,-733.98 2711.97,-629.62 2711.97,-629.62 2711.97,-629.62 2711.97,-572.38 2711.97,-395.78 2593.89,-364.52 2434.97,-287.5 2370.05,-256.04 2160.46,-246.67 2059.43,-243.95"/>
<polygon fill="#63b8ff" stroke="#63b8ff" points="2059.63,-240.43 2049.54,-243.67 2059.45,-247.43 2059.63,-240.43"/>
</g>
<!-- Node22 -->
<g id="node22" class="node">
<title>Node22</title>
<g id="a_node22"><a xlink:href="v8config_8h.html" target="_top" xlink:title=" ">
<polygon fill="white" stroke="#666666" points="1237.72,-74.5 1178.22,-74.5 1178.22,-55.25 1237.72,-55.25 1237.72,-74.5"/>
<text text-anchor="middle" x="1207.97" y="-61" font-family="Helvetica,sans-Serif" font-size="10.00">v8config.h</text>
</a>
</g>
</g>
<!-- Node1&#45;&gt;Node22 -->
<g id="edge145" class="edge">
<title>Node1&#45;&gt;Node22</title>
<path fill="none" stroke="#63b8ff" d="M640.69,-729.26C609.81,-701.6 519.97,-613.05 519.97,-519.12 519.97,-519.12 519.97,-519.12 519.97,-461.88 519.97,-350.24 778.53,-159.21 878.97,-110.5 929.02,-86.23 1090.61,-73.19 1167.11,-68.24"/>
<polygon fill="#63b8ff" stroke="#63b8ff" points="1166.99,-71.69 1176.75,-67.57 1166.55,-64.71 1166.99,-71.69"/>
</g>
<!-- Node34 -->
<g id="node32" class="node">
<title>Node34</title>
<g id="a_node32"><a xlink:href="v8-object_8h.html" target="_top" xlink:title=" ">
<polygon fill="white" stroke="#666666" points="1468.6,-472.5 1405.35,-472.5 1405.35,-453.25 1468.6,-453.25 1468.6,-472.5"/>
<text text-anchor="middle" x="1436.97" y="-459" font-family="Helvetica,sans-Serif" font-size="10.00">v8&#45;object.h</text>
</a>
</g>
</g>
<!-- Node1&#45;&gt;Node34 -->
<g id="edge144" class="edge">
<title>Node1&#45;&gt;Node34</title>
<path fill="none" stroke="#63b8ff" d="M657.73,-729.36C685.61,-693.96 796.17,-560.9 921.97,-508.5 1006.99,-473.09 1286.7,-465.77 1394.28,-464.27"/>
<polygon fill="#63b8ff" stroke="#63b8ff" points="1394.09,-467.76 1404.04,-464.13 1394,-460.76 1394.09,-467.76"/>
</g>
<!-- Node3 -->
<g id="node3" class="node">
<title>Node3</title>
<g id="a_node3"><a xlink:title=" ">
<polygon fill="#e0e0e0" stroke="#999999" points="2474.72,-74.5 2427.22,-74.5 2427.22,-55.25 2474.72,-55.25 2474.72,-74.5"/>
<text text-anchor="middle" x="2450.97" y="-61" font-family="Helvetica,sans-Serif" font-size="10.00">stdint.h</text>
</a>
</g>
</g>
<!-- Node2&#45;&gt;Node3 -->
<g id="edge2" class="edge">
<title>Node2&#45;&gt;Node3</title>
<path fill="none" stroke="#63b8ff" d="M856.46,-682.99C1047.23,-683.42 1974.81,-683.13 2256.97,-638.25 2502.29,-599.23 2787.97,-712.27 2787.97,-463.88 2787.97,-463.88 2787.97,-463.88 2787.97,-240.88 2787.97,-170.47 2757.15,-148.65 2697.97,-110.5 2663.39,-88.21 2545.44,-74.52 2485.92,-68.87"/>
<polygon fill="#63b8ff" stroke="#63b8ff" points="2486.46,-65.32 2476.18,-67.88 2485.82,-72.29 2486.46,-65.32"/>
</g>
<!-- Node4 -->
<g id="node4" class="node">
<title>Node4</title>
<g id="a_node4"><a xlink:title=" ">
<polygon fill="#e0e0e0" stroke="#999999" points="623.47,-74.5 562.47,-74.5 562.47,-55.25 623.47,-55.25 623.47,-74.5"/>
<text text-anchor="middle" x="592.97" y="-61" font-family="Helvetica,sans-Serif" font-size="10.00">type_traits</text>
</a>
</g>
</g>
<!-- Node2&#45;&gt;Node4 -->
<g id="edge3" class="edge">
<title>Node2&#45;&gt;Node4</title>
<path fill="none" stroke="#63b8ff" d="M787.55,-678.29C752.75,-672.62 698.23,-660.8 655.97,-638.25 376.36,-489 266.11,-426.95 155.97,-129.75 153,-121.73 150.24,-116.85 155.97,-110.5 182.2,-81.45 447.34,-70.3 551.38,-67.02"/>
<polygon fill="#63b8ff" stroke="#63b8ff" points="551.21,-70.49 561.1,-66.69 550.99,-63.5 551.21,-70.49"/>
</g>
<!-- Node5 -->
<g id="node5" class="node">
<title>Node5</title>
<g id="a_node5"><a xlink:title=" ">
<polygon fill="#e0e0e0" stroke="#999999" points="2251.47,-190.62 2208.47,-190.62 2208.47,-171.38 2251.47,-171.38 2251.47,-190.62"/>
<text text-anchor="middle" x="2229.97" y="-177.12" font-family="Helvetica,sans-Serif" font-size="10.00">vector</text>
</a>
</g>
</g>
<!-- Node2&#45;&gt;Node5 -->
<g id="edge4" class="edge">
<title>Node2&#45;&gt;Node5</title>
<path fill="none" stroke="#63b8ff" d="M856.68,-682.89C1042.63,-682.81 1922.54,-680.2 2190.97,-638.25 2279.55,-624.41 2304.55,-622.62 2384.97,-583 2508.84,-521.97 2655.29,-459.76 2581.97,-342.75 2510.53,-228.73 2335.42,-194.73 2262.58,-185.33"/>
<polygon fill="#63b8ff" stroke="#63b8ff" points="2263.15,-181.75 2252.8,-184.02 2262.31,-188.7 2263.15,-181.75"/>
</g>
<!-- Node6 -->
<g id="node6" class="node">
<title>Node6</title>
<g id="a_node6"><a xlink:href="type-traits_8h.html" target="_top" xlink:title=" ">
<polygon fill="white" stroke="#666666" points="363.72,-129.75 268.22,-129.75 268.22,-110.5 363.72,-110.5 363.72,-129.75"/>
<text text-anchor="middle" x="315.97" y="-116.25" font-family="Helvetica,sans-Serif" font-size="10.00">cppgc/type&#45;traits.h</text>
</a>
</g>
</g>
<!-- Node2&#45;&gt;Node6 -->
<g id="edge5" class="edge">
<title>Node2&#45;&gt;Node6</title>
<path fill="none" stroke="#63b8ff" d="M787.54,-682.93C744.36,-681.41 669.73,-673.35 617.97,-638.25 576.49,-610.11 357.58,-266.24 329.97,-196.25 322.9,-178.33 319.35,-156.57 317.6,-141.1"/>
<polygon fill="#63b8ff" stroke="#63b8ff" points="320.99,-140.84 316.55,-131.22 314.03,-141.51 320.99,-140.84"/>
</g>
<!-- Node9 -->
<g id="node9" class="node">
<title>Node9</title>
<g id="a_node9"><a xlink:href="v8-data_8h.html" target="_top" xlink:title=" ">
<polygon fill="white" stroke="#666666" points="1789.85,-306.75 1734.1,-306.75 1734.1,-287.5 1789.85,-287.5 1789.85,-306.75"/>
<text text-anchor="middle" x="1761.97" y="-293.25" font-family="Helvetica,sans-Serif" font-size="10.00">v8&#45;data.h</text>
</a>
</g>
</g>
<!-- Node2&#45;&gt;Node9 -->
<g id="edge9" class="edge">
<title>Node2&#45;&gt;Node9</title>
<path fill="none" stroke="#63b8ff" d="M856.72,-675.39C956.72,-653.07 1252.47,-581.74 1477.97,-472.5 1570.99,-427.44 1581.48,-394.46 1670.97,-342.75 1690.71,-331.34 1713.78,-320.05 1731.75,-311.68"/>
<polygon fill="#63b8ff" stroke="#63b8ff" points="1733.06,-314.47 1740.68,-307.11 1730.14,-308.11 1733.06,-314.47"/>
</g>
<!-- Node2&#45;&gt;Node10 -->
<g id="edge31" class="edge">
<title>Node2&#45;&gt;Node10</title>
<path fill="none" stroke="#63b8ff" d="M856.51,-682.48C1034.04,-680.3 1845.29,-668.82 2094.97,-638.25 2212.66,-623.84 2249.55,-635.27 2355.97,-583 2434.25,-544.55 2445.97,-495.84 2445.97,-408.62 2445.97,-408.62 2445.97,-408.62 2445.97,-351.38 2445.97,-318.79 2437.17,-305.45 2409.97,-287.5 2353.7,-250.35 2156.99,-243.77 2059.54,-242.84"/>
<polygon fill="#63b8ff" stroke="#63b8ff" points="2059.76,-239.33 2049.73,-242.76 2059.7,-246.33 2059.76,-239.33"/>
</g>
<!-- Node2&#45;&gt;Node22 -->
<g id="edge142" class="edge">
<title>Node2&#45;&gt;Node22</title>
<path fill="none" stroke="#63b8ff" d="M787.48,-674.65C742.64,-661.66 669.97,-631.76 669.97,-574.38 669.97,-574.38 669.97,-574.38 669.97,-517.12 669.97,-463.76 668.63,-448.8 684.97,-398 710.65,-318.2 715.57,-291.39 774.97,-232.25 798.93,-208.4 816.45,-218.42 841.97,-196.25 877.68,-165.24 864.45,-134.88 904.97,-110.5 948.33,-84.41 1094.68,-72.45 1166.93,-68.03"/>
<polygon fill="#63b8ff" stroke="#63b8ff" points="1167.09,-71.47 1176.86,-67.38 1166.67,-64.48 1167.09,-71.47"/>
</g>
<!-- Node23 -->
<g id="node23" class="node">
<title>Node23</title>
<g id="a_node23"><a xlink:href="v8-maybe_8h.html" target="_top" xlink:title=" ">
<polygon fill="white" stroke="#666666" points="849.72,-251.5 784.22,-251.5 784.22,-232.25 849.72,-232.25 849.72,-251.5"/>
<text text-anchor="middle" x="816.97" y="-238" font-family="Helvetica,sans-Serif" font-size="10.00">v8&#45;maybe.h</text>
</a>
</g>
</g>
<!-- Node2&#45;&gt;Node23 -->
<g id="edge32" class="edge">
<title>Node2&#45;&gt;Node23</title>
<path fill="none" stroke="#63b8ff" d="M820.87,-673.8C818.02,-649.93 810.48,-583.4 807.97,-527.75 803.49,-428.13 811.64,-308.82 815.31,-262.55"/>
<polygon fill="#63b8ff" stroke="#63b8ff" points="818.87,-262.99 816.2,-252.74 811.89,-262.42 818.87,-262.99"/>
</g>
<!-- Node27 -->
<g id="node26" class="node">
<title>Node27</title>
<g id="a_node26"><a xlink:href="v8-snapshot_8h.html" target="_top" xlink:title=" ">
<polygon fill="white" stroke="#666666" points="2086.35,-638.25 2009.6,-638.25 2009.6,-619 2086.35,-619 2086.35,-638.25"/>
<text text-anchor="middle" x="2047.97" y="-624.75" font-family="Helvetica,sans-Serif" font-size="10.00">v8&#45;snapshot.h</text>
</a>
</g>
</g>
<!-- Node2&#45;&gt;Node27 -->
<g id="edge42" class="edge">
<title>Node2&#45;&gt;Node27</title>
<path fill="none" stroke="#63b8ff" d="M856.69,-681.37C1029.37,-673.87 1795.47,-640.59 1998.47,-631.78"/>
<polygon fill="#63b8ff" stroke="#63b8ff" points="1998.53,-635.23 2008.37,-631.3 1998.23,-628.24 1998.53,-635.23"/>
</g>
<!-- Node6&#45;&gt;Node4 -->
<g id="edge7" class="edge">
<title>Node6&#45;&gt;Node4</title>
<path fill="none" stroke="#63b8ff" d="M363.28,-110.03C416.25,-99.85 501.27,-83.5 551.67,-73.81"/>
<polygon fill="#63b8ff" stroke="#63b8ff" points="552.02,-77.12 561.18,-71.79 550.7,-70.25 552.02,-77.12"/>
</g>
<!-- Node7 -->
<g id="node7" class="node">
<title>Node7</title>
<g id="a_node7"><a xlink:title=" ">
<polygon fill="#e0e0e0" stroke="#999999" points="340.1,-74.5 291.85,-74.5 291.85,-55.25 340.1,-55.25 340.1,-74.5"/>
<text text-anchor="middle" x="315.97" y="-61" font-family="Helvetica,sans-Serif" font-size="10.00">cstddef</text>
</a>
</g>
</g>
<!-- Node6&#45;&gt;Node7 -->
<g id="edge6" class="edge">
<title>Node6&#45;&gt;Node7</title>
<path fill="none" stroke="#63b8ff" d="M315.97,-110.33C315.97,-103.67 315.97,-94.24 315.97,-85.78"/>
<polygon fill="#63b8ff" stroke="#63b8ff" points="319.47,-85.86 315.97,-75.86 312.47,-85.86 319.47,-85.86"/>
</g>
<!-- Node8 -->
<g id="node8" class="node">
<title>Node8</title>
<g id="a_node8"><a xlink:title=" ">
<polygon fill="#e0e0e0" stroke="#999999" points="118.22,-74.5 79.72,-74.5 79.72,-55.25 118.22,-55.25 118.22,-74.5"/>
<text text-anchor="middle" x="98.97" y="-61" font-family="Helvetica,sans-Serif" font-size="10.00">utility</text>
</a>
</g>
</g>
<!-- Node6&#45;&gt;Node8 -->
<g id="edge8" class="edge">
<title>Node6&#45;&gt;Node8</title>
<path fill="none" stroke="#63b8ff" d="M279.16,-110.09C236.92,-99.73 168.44,-82.92 129.19,-73.29"/>
<polygon fill="#63b8ff" stroke="#63b8ff" points="130.25,-69.7 119.7,-70.72 128.58,-76.5 130.25,-69.7"/>
</g>
<!-- Node9&#45;&gt;Node10 -->
<g id="edge10" class="edge">
<title>Node9&#45;&gt;Node10</title>
<path fill="none" stroke="#63b8ff" d="M1790.21,-289.91C1829.82,-281.2 1902.57,-265.19 1952.09,-254.29"/>
<polygon fill="#63b8ff" stroke="#63b8ff" points="1952.58,-257.55 1961.59,-251.98 1951.08,-250.71 1952.58,-257.55"/>
</g>
<!-- Node9&#45;&gt;Node22 -->
<g id="edge30" class="edge">
<title>Node9&#45;&gt;Node22</title>
<path fill="none" stroke="#63b8ff" d="M1757.07,-287.21C1749.68,-274.23 1734.73,-249.76 1717.97,-232.25 1655.21,-166.67 1638.33,-144.04 1553.97,-110.5 1499.21,-88.73 1327.78,-74.27 1248.69,-68.59"/>
<polygon fill="#63b8ff" stroke="#63b8ff" points="1249.39,-65.06 1239.16,-67.84 1248.89,-72.04 1249.39,-65.06"/>
</g>
<!-- Node10&#45;&gt;Node4 -->
<g id="edge12" class="edge">
<title>Node10&#45;&gt;Node4</title>
<path fill="none" stroke="#63b8ff" d="M1959.41,-235.35C1747.13,-209.02 840.19,-96.54 634.55,-71.03"/>
<polygon fill="#63b8ff" stroke="#63b8ff" points="635.28,-67.47 624.92,-69.71 634.41,-74.42 635.28,-67.47"/>
</g>
<!-- Node10&#45;&gt;Node5 -->
<g id="edge13" class="edge">
<title>Node10&#45;&gt;Node5</title>
<path fill="none" stroke="#63b8ff" d="M2048.62,-232.31C2087.44,-224.42 2144.99,-211.61 2193.97,-196.25 2195.46,-195.78 2196.97,-195.29 2198.48,-194.77"/>
<polygon fill="#63b8ff" stroke="#63b8ff" points="2199.27,-197.84 2207.45,-191.11 2196.86,-191.27 2199.27,-197.84"/>
</g>
<!-- Node11 -->
<g id="node11" class="node">
<title>Node11</title>
<g id="a_node11"><a xlink:title=" ">
<polygon fill="#e0e0e0" stroke="#999999" points="2409.22,-74.5 2358.72,-74.5 2358.72,-55.25 2409.22,-55.25 2409.22,-74.5"/>
<text text-anchor="middle" x="2383.97" y="-61" font-family="Helvetica,sans-Serif" font-size="10.00">stddef.h</text>
</a>
</g>
</g>
<!-- Node10&#45;&gt;Node11 -->
<g id="edge11" class="edge">
<title>Node10&#45;&gt;Node11</title>
<path fill="none" stroke="#63b8ff" d="M2030.29,-231.9C2054.61,-223.39 2091.62,-209.91 2122.97,-196.25 2210.82,-157.96 2311.37,-105.06 2357.87,-80.06"/>
<polygon fill="#63b8ff" stroke="#63b8ff" points="2359.33,-82.71 2366.47,-74.88 2356,-76.55 2359.33,-82.71"/>
</g>
<!-- Node12 -->
<g id="node12" class="node">
<title>Node12</title>
<g id="a_node12"><a xlink:href="v8-handle-base_8h.html" target="_top" xlink:title=" ">
<polygon fill="white" stroke="#666666" points="2113.72,-190.62 2024.22,-190.62 2024.22,-171.38 2113.72,-171.38 2113.72,-190.62"/>
<text text-anchor="middle" x="2068.97" y="-177.12" font-family="Helvetica,sans-Serif" font-size="10.00">v8&#45;handle&#45;base.h</text>
</a>
</g>
</g>
<!-- Node10&#45;&gt;Node12 -->
<g id="edge14" class="edge">
<title>Node10&#45;&gt;Node12</title>
<path fill="none" stroke="#63b8ff" d="M2013.84,-231.93C2023.68,-223.03 2038.99,-209.16 2050.99,-198.29"/>
<polygon fill="#63b8ff" stroke="#63b8ff" points="2052.95,-201.33 2058.01,-192.03 2048.25,-196.15 2052.95,-201.33"/>
</g>
<!-- Node13 -->
<g id="node13" class="node">
<title>Node13</title>
<g id="a_node13"><a xlink:href="v8-internal_8h.html" target="_top" xlink:title=" ">
<polygon fill="white" stroke="#666666" points="1929.22,-129.75 1860.72,-129.75 1860.72,-110.5 1929.22,-110.5 1929.22,-129.75"/>
<text text-anchor="middle" x="1894.97" y="-116.25" font-family="Helvetica,sans-Serif" font-size="10.00">v8&#45;internal.h</text>
</a>
</g>
</g>
<!-- Node10&#45;&gt;Node13 -->
<g id="edge29" class="edge">
<title>Node10&#45;&gt;Node13</title>
<path fill="none" stroke="#63b8ff" d="M1995.78,-231.87C1977.63,-211.94 1933.8,-163.78 1910.36,-138.03"/>
<polygon fill="#63b8ff" stroke="#63b8ff" points="1913.58,-136.27 1904.26,-131.23 1908.4,-140.98 1913.58,-136.27"/>
</g>
<!-- Node12&#45;&gt;Node13 -->
<g id="edge15" class="edge">
<title>Node12&#45;&gt;Node13</title>
<path fill="none" stroke="#63b8ff" d="M2042.17,-170.93C2012.66,-160.95 1965.04,-144.83 1931.99,-133.65"/>
<polygon fill="#63b8ff" stroke="#63b8ff" points="1933.4,-130.1 1922.81,-130.21 1931.16,-136.73 1933.4,-130.1"/>
</g>
<!-- Node13&#45;&gt;Node3 -->
<g id="edge17" class="edge">
<title>Node13&#45;&gt;Node3</title>
<path fill="none" stroke="#63b8ff" d="M1929.68,-115.55C1945.6,-113.95 1964.74,-112.07 1981.97,-110.5 2172.11,-93.23 2224.43,-106.7 2416.2,-74.5"/>
<polygon fill="#63b8ff" stroke="#63b8ff" points="2416.66,-77.8 2425.93,-72.67 2415.48,-70.9 2416.66,-77.8"/>
</g>
<!-- Node13&#45;&gt;Node4 -->
<g id="edge26" class="edge">
<title>Node13&#45;&gt;Node4</title>
<path fill="none" stroke="#63b8ff" d="M1860.48,-117.71C1678.72,-110.28 832.82,-75.68 634.61,-67.58"/>
<polygon fill="#63b8ff" stroke="#63b8ff" points="634.94,-64.05 624.81,-67.14 634.65,-71.04 634.94,-64.05"/>
</g>
<!-- Node13&#45;&gt;Node11 -->
<g id="edge16" class="edge">
<title>Node13&#45;&gt;Node11</title>
<path fill="none" stroke="#63b8ff" d="M1929.72,-112.68C1934.5,-111.89 1939.35,-111.14 1943.97,-110.5 2093.36,-89.81 2272.53,-74.6 2347.84,-68.64"/>
<polygon fill="#63b8ff" stroke="#63b8ff" points="2347.9,-72.07 2357.6,-67.79 2347.36,-65.09 2347.9,-72.07"/>
</g>
<!-- Node14 -->
<g id="node14" class="node">
<title>Node14</title>
<g id="a_node14"><a xlink:title=" ">
<polygon fill="#e0e0e0" stroke="#999999" points="1970.72,-74.5 1923.22,-74.5 1923.22,-55.25 1970.72,-55.25 1970.72,-74.5"/>
<text text-anchor="middle" x="1946.97" y="-61" font-family="Helvetica,sans-Serif" font-size="10.00">string.h</text>
</a>
</g>
</g>
<!-- Node13&#45;&gt;Node14 -->
<g id="edge18" class="edge">
<title>Node13&#45;&gt;Node14</title>
<path fill="none" stroke="#63b8ff" d="M1903.56,-110.33C1910.89,-102.82 1921.64,-91.81 1930.61,-82.63"/>
<polygon fill="#63b8ff" stroke="#63b8ff" points="1932.72,-85.46 1937.2,-75.86 1927.71,-80.57 1932.72,-85.46"/>
</g>
<!-- Node15 -->
<g id="node15" class="node">
<title>Node15</title>
<g id="a_node15"><a xlink:title=" ">
<polygon fill="#e0e0e0" stroke="#999999" points="1676.6,-74.5 1631.35,-74.5 1631.35,-55.25 1676.6,-55.25 1676.6,-74.5"/>
<text text-anchor="middle" x="1653.97" y="-61" font-family="Helvetica,sans-Serif" font-size="10.00">atomic</text>
</a>
</g>
</g>
<!-- Node13&#45;&gt;Node15 -->
<g id="edge19" class="edge">
<title>Node13&#45;&gt;Node15</title>
<path fill="none" stroke="#63b8ff" d="M1860.45,-112.34C1821.02,-104.46 1754.32,-90.74 1687.7,-74.81"/>
<polygon fill="#63b8ff" stroke="#63b8ff" points="1688.55,-71.18 1678.01,-72.24 1686.91,-77.98 1688.55,-71.18"/>
</g>
<!-- Node16 -->
<g id="node16" class="node">
<title>Node16</title>
<g id="a_node16"><a xlink:title=" ">
<polygon fill="#e0e0e0" stroke="#999999" points="2042.72,-74.5 1989.22,-74.5 1989.22,-55.25 2042.72,-55.25 2042.72,-74.5"/>
<text text-anchor="middle" x="2015.97" y="-61" font-family="Helvetica,sans-Serif" font-size="10.00">compare</text>
</a>
</g>
</g>
<!-- Node13&#45;&gt;Node16 -->
<g id="edge20" class="edge">
<title>Node13&#45;&gt;Node16</title>
<path fill="none" stroke="#63b8ff" d="M1915.5,-110.09C1934.71,-101.64 1963.65,-88.9 1985.54,-79.27"/>
<polygon fill="#63b8ff" stroke="#63b8ff" points="1986.6,-82.18 1994.35,-74.95 1983.78,-75.78 1986.6,-82.18"/>
</g>
<!-- Node17 -->
<g id="node17" class="node">
<title>Node17</title>
<g id="a_node17"><a xlink:title=" ">
<polygon fill="#e0e0e0" stroke="#999999" points="2116.85,-74.5 2061.1,-74.5 2061.1,-55.25 2116.85,-55.25 2116.85,-74.5"/>
<text text-anchor="middle" x="2088.97" y="-61" font-family="Helvetica,sans-Serif" font-size="10.00">concepts</text>
</a>
</g>
</g>
<!-- Node13&#45;&gt;Node17 -->
<g id="edge21" class="edge">
<title>Node13&#45;&gt;Node17</title>
<path fill="none" stroke="#63b8ff" d="M1927.88,-110.09C1961.68,-100.81 2014.27,-86.38 2050.1,-76.54"/>
<polygon fill="#63b8ff" stroke="#63b8ff" points="2050.93,-79.67 2059.64,-73.65 2049.07,-72.92 2050.93,-79.67"/>
</g>
<!-- Node18 -->
<g id="node18" class="node">
<title>Node18</title>
<g id="a_node18"><a xlink:title=" ">
<polygon fill="#e0e0e0" stroke="#999999" points="1740.97,-74.5 1694.97,-74.5 1694.97,-55.25 1740.97,-55.25 1740.97,-74.5"/>
<text text-anchor="middle" x="1717.97" y="-61" font-family="Helvetica,sans-Serif" font-size="10.00">iterator</text>
</a>
</g>
</g>
<!-- Node13&#45;&gt;Node18 -->
<g id="edge22" class="edge">
<title>Node13&#45;&gt;Node18</title>
<path fill="none" stroke="#63b8ff" d="M1864.95,-110.09C1833.58,-100.65 1784.47,-85.88 1751.76,-76.04"/>
<polygon fill="#63b8ff" stroke="#63b8ff" points="1752.93,-72.44 1742.35,-72.91 1750.92,-79.14 1752.93,-72.44"/>
</g>
<!-- Node19 -->
<g id="node19" class="node">
<title>Node19</title>
<g id="a_node19"><a xlink:title=" ">
<polygon fill="#e0e0e0" stroke="#999999" points="1798.6,-74.5 1759.35,-74.5 1759.35,-55.25 1798.6,-55.25 1798.6,-74.5"/>
<text text-anchor="middle" x="1778.97" y="-61" font-family="Helvetica,sans-Serif" font-size="10.00">limits</text>
</a>
</g>
</g>
<!-- Node13&#45;&gt;Node19 -->
<g id="edge23" class="edge">
<title>Node13&#45;&gt;Node19</title>
<path fill="none" stroke="#63b8ff" d="M1875.29,-110.09C1857.05,-101.72 1829.64,-89.13 1808.72,-79.53"/>
<polygon fill="#63b8ff" stroke="#63b8ff" points="1810.3,-75.94 1799.75,-74.95 1807.38,-82.31 1810.3,-75.94"/>
</g>
<!-- Node20 -->
<g id="node20" class="node">
<title>Node20</title>
<g id="a_node20"><a xlink:title=" ">
<polygon fill="#e0e0e0" stroke="#999999" points="1424.22,-19.25 1373.72,-19.25 1373.72,0 1424.22,0 1424.22,-19.25"/>
<text text-anchor="middle" x="1398.97" y="-5.75" font-family="Helvetica,sans-Serif" font-size="10.00">memory</text>
</a>
</g>
</g>
<!-- Node13&#45;&gt;Node20 -->
<g id="edge24" class="edge">
<title>Node13&#45;&gt;Node20</title>
<path fill="none" stroke="#63b8ff" d="M1895.21,-110.02C1895.04,-95.85 1892.43,-68.76 1875.97,-55.25 1842.09,-27.43 1540.53,-15.17 1435.14,-11.7"/>
<polygon fill="#63b8ff" stroke="#63b8ff" points="1435.53,-8.18 1425.42,-11.36 1435.3,-15.18 1435.53,-8.18"/>
</g>
<!-- Node21 -->
<g id="node21" class="node">
<title>Node21</title>
<g id="a_node21"><a xlink:title=" ">
<polygon fill="#e0e0e0" stroke="#999999" points="1866.85,-74.5 1817.1,-74.5 1817.1,-55.25 1866.85,-55.25 1866.85,-74.5"/>
<text text-anchor="middle" x="1841.97" y="-61" font-family="Helvetica,sans-Serif" font-size="10.00">optional</text>
</a>
</g>
</g>
<!-- Node13&#45;&gt;Node21 -->
<g id="edge25" class="edge">
<title>Node13&#45;&gt;Node21</title>
<path fill="none" stroke="#63b8ff" d="M1886.22,-110.33C1878.75,-102.82 1867.79,-91.81 1858.65,-82.63"/>
<polygon fill="#63b8ff" stroke="#63b8ff" points="1861.45,-80.48 1851.91,-75.86 1856.49,-85.42 1861.45,-80.48"/>
</g>
<!-- Node13&#45;&gt;Node22 -->
<g id="edge27" class="edge">
<title>Node13&#45;&gt;Node22</title>
<path fill="none" stroke="#63b8ff" d="M1860.43,-112.46C1855.92,-111.72 1851.34,-111.04 1846.97,-110.5 1622.23,-82.54 1350.67,-70.83 1249.01,-67.2"/>
<polygon fill="#63b8ff" stroke="#63b8ff" points="1249.14,-63.67 1239.03,-66.82 1248.9,-70.67 1249.14,-63.67"/>
</g>
<!-- Node22&#45;&gt;Node20 -->
<g id="edge28" class="edge">
<title>Node22&#45;&gt;Node20</title>
<path fill="none" stroke="#63b8ff" d="M1237.82,-55.55C1271.57,-46.14 1326.54,-30.82 1362.73,-20.73"/>
<polygon fill="#63b8ff" stroke="#63b8ff" points="1363.62,-23.84 1372.31,-17.78 1361.74,-17.09 1363.62,-23.84"/>
</g>
<!-- Node23&#45;&gt;Node4 -->
<g id="edge33" class="edge">
<title>Node23&#45;&gt;Node4</title>
<path fill="none" stroke="#63b8ff" d="M809.01,-231.81C795.01,-216.35 764.47,-184.74 732.97,-165.75 693.59,-142.01 672.11,-158.19 635.97,-129.75 620.57,-117.63 608.71,-98.44 601.38,-84.25"/>
<polygon fill="#63b8ff" stroke="#63b8ff" points="604.2,-83.04 596.68,-75.58 597.9,-86.1 604.2,-83.04"/>
</g>
<!-- Node23&#45;&gt;Node8 -->
<g id="edge34" class="edge">
<title>Node23&#45;&gt;Node8</title>
<path fill="none" stroke="#63b8ff" d="M783.88,-239.93C708.93,-237.27 520.79,-227.76 366.97,-196.25 270.65,-176.52 238.55,-183.12 155.97,-129.75 137.31,-117.69 121.01,-97.93 110.67,-83.58"/>
<polygon fill="#63b8ff" stroke="#63b8ff" points="113.08,-81.91 104.51,-75.67 107.32,-85.88 113.08,-81.91"/>
</g>
<!-- Node23&#45;&gt;Node13 -->
<g id="edge40" class="edge">
<title>Node23&#45;&gt;Node13</title>
<path fill="none" stroke="#63b8ff" d="M850.21,-238.39C930.73,-232.28 1142.63,-215.58 1318.97,-196.25 1517.09,-174.53 1752.61,-141.57 1849.7,-127.67"/>
<polygon fill="#63b8ff" stroke="#63b8ff" points="1849.89,-131.04 1859.3,-126.15 1848.9,-124.11 1849.89,-131.04"/>
</g>
<!-- Node23&#45;&gt;Node22 -->
<g id="edge41" class="edge">
<title>Node23&#45;&gt;Node22</title>
<path fill="none" stroke="#63b8ff" d="M833.79,-231.79C847.47,-223.78 866.62,-211.1 879.97,-196.25 909.18,-163.77 892.16,-135.49 927.97,-110.5 965.92,-84.02 1099.18,-72.36 1167.27,-68.04"/>
<polygon fill="#63b8ff" stroke="#63b8ff" points="1167.24,-71.49 1177,-67.39 1166.81,-64.5 1167.24,-71.49"/>
</g>
<!-- Node24 -->
<g id="node24" class="node">
<title>Node24</title>
<g id="a_node24"><a xlink:href="conditional-stack-allocated_8h.html" target="_top" xlink:title=" ">
<polygon fill="white" stroke="#666666" points="502.1,-196.25 375.85,-196.25 375.85,-165.75 502.1,-165.75 502.1,-196.25"/>
<text text-anchor="start" x="383.85" y="-182.75" font-family="Helvetica,sans-Serif" font-size="10.00">cppgc/internal/conditional</text>
<text text-anchor="middle" x="438.97" y="-171.5" font-family="Helvetica,sans-Serif" font-size="10.00">&#45;stack&#45;allocated.h</text>
</a>
</g>
</g>
<!-- Node23&#45;&gt;Node24 -->
<g id="edge35" class="edge">
<title>Node23&#45;&gt;Node24</title>
<path fill="none" stroke="#63b8ff" d="M783.83,-236.6C729.46,-229.47 617.66,-214.3 513.27,-196.6"/>
<polygon fill="#63b8ff" stroke="#63b8ff" points="513.99,-193 503.54,-194.76 512.81,-199.9 513.99,-193"/>
</g>
<!-- Node24&#45;&gt;Node4 -->
<g id="edge36" class="edge">
<title>Node24&#45;&gt;Node4</title>
<path fill="none" stroke="#63b8ff" d="M463.4,-165.37C479.05,-155.73 499.6,-142.56 516.97,-129.75 537.61,-114.52 559.93,-95.42 575.01,-82.09"/>
<polygon fill="#63b8ff" stroke="#63b8ff" points="576.85,-85.25 581.98,-75.98 572.19,-80.02 576.85,-85.25"/>
</g>
<!-- Node24&#45;&gt;Node6 -->
<g id="edge39" class="edge">
<title>Node24&#45;&gt;Node6</title>
<path fill="none" stroke="#63b8ff" d="M408.25,-165.3C388.8,-155.98 363.81,-144.02 344.75,-134.9"/>
<polygon fill="#63b8ff" stroke="#63b8ff" points="346.37,-131.31 335.84,-130.15 343.34,-137.63 346.37,-131.31"/>
</g>
<!-- Node25 -->
<g id="node25" class="node">
<title>Node25</title>
<g id="a_node25"><a xlink:href="macros_8h.html" target="_top" xlink:title=" ">
<polygon fill="#fff0f0" stroke="red" points="250.47,-129.75 165.47,-129.75 165.47,-110.5 250.47,-110.5 250.47,-129.75"/>
<text text-anchor="middle" x="207.97" y="-116.25" font-family="Helvetica,sans-Serif" font-size="10.00">cppgc/macros.h</text>
</a>
</g>
</g>
<!-- Node24&#45;&gt;Node25 -->
<g id="edge37" class="edge">
<title>Node24&#45;&gt;Node25</title>
<path fill="none" stroke="#63b8ff" d="M381.28,-165.3C341.99,-155.28 290.68,-142.21 254.11,-132.88"/>
<polygon fill="#63b8ff" stroke="#63b8ff" points="255.29,-129.32 244.74,-130.24 253.56,-136.1 255.29,-129.32"/>
</g>
<!-- Node25&#45;&gt;Node7 -->
<g id="edge38" class="edge">
<title>Node25&#45;&gt;Node7</title>
<path fill="none" stroke="#63b8ff" d="M226.29,-110.09C243.13,-101.79 268.34,-89.36 287.74,-79.79"/>
<polygon fill="#63b8ff" stroke="#63b8ff" points="289.14,-82.51 296.56,-74.95 286.05,-76.24 289.14,-82.51"/>
</g>
<!-- Node27&#45;&gt;Node10 -->
<g id="edge140" class="edge">
<title>Node27&#45;&gt;Node10</title>
<path fill="none" stroke="#63b8ff" d="M2086.84,-624.22C2179.93,-615 2407.97,-585.63 2407.97,-519.12 2407.97,-519.12 2407.97,-519.12 2407.97,-351.38 2407.97,-321.76 2411.65,-306.55 2388.97,-287.5 2340.34,-246.66 2154.08,-241.78 2059.61,-242.04"/>
<polygon fill="#63b8ff" stroke="#63b8ff" points="2059.82,-238.54 2049.84,-242.09 2059.86,-245.54 2059.82,-238.54"/>
</g>
<!-- Node27&#45;&gt;Node13 -->
<g id="edge43" class="edge">
<title>Node27&#45;&gt;Node13</title>
<path fill="none" stroke="#63b8ff" d="M2086.4,-619.79C2087.94,-619.52 2089.47,-619.25 2090.97,-619 2208.19,-599.3 2247.43,-631.44 2355.97,-583 2496.4,-520.33 2613.94,-420.05 2535.97,-287.5 2479.51,-191.51 2423.15,-199.34 2316.97,-165.75 2247.7,-143.84 2034.68,-129.2 1940.53,-123.64"/>
<polygon fill="#63b8ff" stroke="#63b8ff" points="1940.84,-120.09 1930.65,-123 1940.43,-127.08 1940.84,-120.09"/>
</g>
<!-- Node27&#45;&gt;Node22 -->
<g id="edge141" class="edge">
<title>Node27&#45;&gt;Node22</title>
<path fill="none" stroke="#63b8ff" d="M2009.15,-626.56C1820.16,-621.04 1001.74,-593.51 910.97,-527.75 864.33,-493.96 859.97,-466.22 859.97,-408.62 859.97,-408.62 859.97,-408.62 859.97,-351.38 859.97,-224.79 904.07,-176.69 1011.97,-110.5 1059.93,-81.08 1125.22,-71.02 1166.99,-67.6"/>
<polygon fill="#63b8ff" stroke="#63b8ff" points="1167.13,-71.03 1176.85,-66.82 1166.63,-64.04 1167.13,-71.03"/>
</g>
<!-- Node28 -->
<g id="node27" class="node">
<title>Node28</title>
<g id="a_node27"><a xlink:href="v8-isolate_8h.html" target="_top" xlink:title=" ">
<polygon fill="#fff0f0" stroke="red" points="2080.72,-583 2015.22,-583 2015.22,-563.75 2080.72,-563.75 2080.72,-583"/>
<text text-anchor="middle" x="2047.97" y="-569.5" font-family="Helvetica,sans-Serif" font-size="10.00">v8&#45;isolate.h</text>
</a>
</g>
</g>
<!-- Node27&#45;&gt;Node28 -->
<g id="edge44" class="edge">
<title>Node27&#45;&gt;Node28</title>
<path fill="none" stroke="#63b8ff" d="M2047.97,-618.83C2047.97,-612.17 2047.97,-602.74 2047.97,-594.28"/>
<polygon fill="#63b8ff" stroke="#63b8ff" points="2051.47,-594.36 2047.97,-584.36 2044.47,-594.36 2051.47,-594.36"/>
</g>
<!-- Node28&#45;&gt;Node3 -->
<g id="edge46" class="edge">
<title>Node28&#45;&gt;Node3</title>
<path fill="none" stroke="#63b8ff" d="M2080.9,-571.42C2214.88,-566.66 2711.97,-540.12 2711.97,-408.62 2711.97,-408.62 2711.97,-408.62 2711.97,-180 2711.97,-82.36 2556.73,-67.44 2485.7,-65.73"/>
<polygon fill="#63b8ff" stroke="#63b8ff" points="2486.11,-62.22 2476.06,-65.56 2486,-69.22 2486.11,-62.22"/>
</g>
<!-- Node28&#45;&gt;Node8 -->
<g id="edge50" class="edge">
<title>Node28&#45;&gt;Node8</title>
<path fill="none" stroke="#63b8ff" d="M2014.74,-571.97C1831.51,-569.63 948.58,-556.92 830.97,-527.75 501.92,-446.14 383.57,-436.1 143.97,-196.25 113.61,-165.85 103.7,-114.01 100.49,-85.72"/>
<polygon fill="#63b8ff" stroke="#63b8ff" points="103.89,-85.48 99.46,-75.86 96.92,-86.14 103.89,-85.48"/>
</g>
<!-- Node28&#45;&gt;Node9 -->
<g id="edge123" class="edge">
<title>Node28&#45;&gt;Node9</title>
<path fill="none" stroke="#63b8ff" d="M2015.06,-570.3C1921.03,-563.47 1657.97,-537.76 1657.97,-463.88 1657.97,-463.88 1657.97,-463.88 1657.97,-406.62 1657.97,-362.83 1702.67,-329.83 1733.46,-312.29"/>
<polygon fill="#63b8ff" stroke="#63b8ff" points="1734.79,-315 1741.9,-307.14 1731.44,-308.86 1734.79,-315"/>
</g>
<!-- Node28&#45;&gt;Node10 -->
<g id="edge136" class="edge">
<title>Node28&#45;&gt;Node10</title>
<path fill="none" stroke="#63b8ff" d="M2080.63,-563.33C2098.27,-556.6 2118.52,-545.44 2128.97,-527.75 2133.32,-520.38 2130.82,-516.85 2128.97,-508.5 2106.92,-408.96 2043,-302.79 2016.12,-261.13"/>
<polygon fill="#63b8ff" stroke="#63b8ff" points="2018.53,-259.43 2010.13,-252.97 2012.67,-263.26 2018.53,-259.43"/>
</g>
<!-- Node28&#45;&gt;Node11 -->
<g id="edge45" class="edge">
<title>Node28&#45;&gt;Node11</title>
<path fill="none" stroke="#63b8ff" d="M2081.19,-570.72C2210.6,-562.32 2673.97,-513.38 2673.97,-242.88 2673.97,-242.88 2673.97,-242.88 2673.97,-180 2673.97,-110.93 2599.23,-135.83 2534.97,-110.5 2514.08,-102.27 2457.82,-86.22 2420.19,-75.78"/>
<polygon fill="#63b8ff" stroke="#63b8ff" points="2421.21,-72.16 2410.64,-72.87 2419.35,-78.91 2421.21,-72.16"/>
</g>
<!-- Node28&#45;&gt;Node13 -->
<g id="edge135" class="edge">
<title>Node28&#45;&gt;Node13</title>
<path fill="none" stroke="#63b8ff" d="M2081,-570.25C2128.91,-566.31 2219.85,-555.57 2291.97,-527.75 2385.67,-491.61 2483.97,-509.05 2483.97,-408.62 2483.97,-408.62 2483.97,-408.62 2483.97,-351.38 2483.97,-321.05 2478.81,-311.26 2459.97,-287.5 2444.86,-268.43 2300.8,-174.16 2277.97,-165.75 2216.96,-143.29 2028.05,-129.22 1940.44,-123.74"/>
<polygon fill="#63b8ff" stroke="#63b8ff" points="1940.72,-120.19 1930.53,-123.07 1940.29,-127.18 1940.72,-120.19"/>
</g>
<!-- Node28&#45;&gt;Node20 -->
<g id="edge48" class="edge">
<title>Node28&#45;&gt;Node20</title>
<path fill="none" stroke="#63b8ff" d="M2080.89,-570.81C2219.68,-563.79 2749.97,-532.47 2749.97,-463.88 2749.97,-463.88 2749.97,-463.88 2749.97,-240.88 2749.97,-178.49 2746.59,-149.59 2697.97,-110.5 2621.42,-48.95 2581.14,-69.63 2483.97,-55.25 2274.98,-24.33 1600.32,-13.35 1435.54,-11.09"/>
<polygon fill="#63b8ff" stroke="#63b8ff" points="1435.61,-7.58 1425.57,-10.94 1435.52,-14.58 1435.61,-7.58"/>
</g>
<!-- Node28&#45;&gt;Node22 -->
<g id="edge139" class="edge">
<title>Node28&#45;&gt;Node22</title>
<path fill="none" stroke="#63b8ff" d="M2014.82,-571.96C1868.77,-569.94 1282.06,-559.95 1100.97,-527.75 1007.85,-511.19 897.97,-558.46 897.97,-463.88 897.97,-463.88 897.97,-463.88 897.97,-406.62 897.97,-333.84 976.99,-150.24 1037.97,-110.5 1077.36,-84.84 1130.91,-73.9 1167.31,-69.26"/>
<polygon fill="#63b8ff" stroke="#63b8ff" points="1167.49,-72.65 1177.02,-68.01 1166.68,-65.69 1167.49,-72.65"/>
</g>
<!-- Node28&#45;&gt;Node25 -->
<g id="edge53" class="edge">
<title>Node28&#45;&gt;Node25</title>
<path fill="none" stroke="#63b8ff" d="M2014.96,-572.16C1836.82,-570.85 994.18,-562.82 883.97,-527.75 783.36,-495.74 774.6,-453.81 684.97,-398 530.92,-302.08 486.47,-288.13 329.97,-196.25 295.28,-175.88 255.74,-151.27 231.31,-135.9"/>
<polygon fill="#63b8ff" stroke="#63b8ff" points="233.46,-132.48 223.13,-130.11 229.72,-138.41 233.46,-132.48"/>
</g>
<!-- Node29 -->
<g id="node28" class="node">
<title>Node29</title>
<g id="a_node28"><a xlink:title=" ">
<polygon fill="#e0e0e0" stroke="#999999" points="2321.97,-306.75 2263.97,-306.75 2263.97,-287.5 2321.97,-287.5 2321.97,-306.75"/>
<text text-anchor="middle" x="2292.97" y="-293.25" font-family="Helvetica,sans-Serif" font-size="10.00">functional</text>
</a>
</g>
</g>
<!-- Node28&#45;&gt;Node29 -->
<g id="edge47" class="edge">
<title>Node28&#45;&gt;Node29</title>
<path fill="none" stroke="#63b8ff" d="M2080.84,-571.25C2143.52,-567.18 2273.97,-548.53 2273.97,-463.88 2273.97,-463.88 2273.97,-463.88 2273.97,-406.62 2273.97,-375 2281.9,-338.96 2287.52,-317.4"/>
<polygon fill="#63b8ff" stroke="#63b8ff" points="2291.09,-318.6 2290.33,-308.03 2284.33,-316.77 2291.09,-318.6"/>
</g>
<!-- Node30 -->
<g id="node29" class="node">
<title>Node30</title>
<g id="a_node29"><a xlink:title=" ">
<polygon fill="#e0e0e0" stroke="#999999" points="2379.97,-306.75 2339.97,-306.75 2339.97,-287.5 2379.97,-287.5 2379.97,-306.75"/>
<text text-anchor="middle" x="2359.97" y="-293.25" font-family="Helvetica,sans-Serif" font-size="10.00">string</text>
</a>
</g>
</g>
<!-- Node28&#45;&gt;Node30 -->
<g id="edge49" class="edge">
<title>Node28&#45;&gt;Node30</title>
<path fill="none" stroke="#63b8ff" d="M2080.9,-572C2125.22,-570.12 2205.16,-561.8 2262.97,-527.75 2295.25,-508.74 2317.97,-501.34 2317.97,-463.88 2317.97,-463.88 2317.97,-463.88 2317.97,-406.62 2317.97,-373.1 2335.62,-337.44 2348.04,-316.51"/>
<polygon fill="#63b8ff" stroke="#63b8ff" points="2351.49,-318.58 2353.78,-308.24 2345.54,-314.9 2351.49,-318.58"/>
</g>
<!-- Node31 -->
<g id="node30" class="node">
<title>Node31</title>
<g id="a_node30"><a xlink:href="common_8h.html" target="_top" xlink:title=" ">
<polygon fill="white" stroke="#666666" points="1450.1,-306.75 1359.85,-306.75 1359.85,-287.5 1450.1,-287.5 1450.1,-306.75"/>
<text text-anchor="middle" x="1404.97" y="-293.25" font-family="Helvetica,sans-Serif" font-size="10.00">cppgc/common.h</text>
</a>
</g>
</g>
<!-- Node28&#45;&gt;Node31 -->
<g id="edge51" class="edge">
<title>Node28&#45;&gt;Node31</title>
<path fill="none" stroke="#63b8ff" d="M2014.82,-572.86C1904.88,-574.01 1553.52,-573.91 1451.97,-527.75 1420.14,-513.28 1409.46,-504.76 1395.97,-472.5 1374,-419.94 1389.13,-350.58 1398.74,-317.41"/>
<polygon fill="#63b8ff" stroke="#63b8ff" points="1402.37,-318.51 1401.95,-307.92 1395.68,-316.46 1402.37,-318.51"/>
</g>
<!-- Node32 -->
<g id="node31" class="node">
<title>Node32</title>
<g id="a_node31"><a xlink:href="v8-array-buffer_8h.html" target="_top" xlink:title=" ">
<polygon fill="#fff0f0" stroke="red" points="1545.47,-527.75 1460.47,-527.75 1460.47,-508.5 1545.47,-508.5 1545.47,-527.75"/>
<text text-anchor="middle" x="1502.97" y="-514.25" font-family="Helvetica,sans-Serif" font-size="10.00">v8&#45;array&#45;buffer.h</text>
</a>
</g>
</g>
<!-- Node28&#45;&gt;Node32 -->
<g id="edge54" class="edge">
<title>Node28&#45;&gt;Node32</title>
<path fill="none" stroke="#63b8ff" d="M2015.11,-569.16C1924.13,-560.27 1668.31,-535.28 1556.45,-524.35"/>
<polygon fill="#63b8ff" stroke="#63b8ff" points="1557.06,-520.8 1546.77,-523.31 1556.38,-527.76 1557.06,-520.8"/>
</g>
<!-- Node47 -->
<g id="node39" class="node">
<title>Node47</title>
<g id="a_node39"><a xlink:href="v8-persistent-handle_8h.html" target="_top" xlink:title=" ">
<polygon fill="white" stroke="#666666" points="1265.6,-306.75 1154.35,-306.75 1154.35,-287.5 1265.6,-287.5 1265.6,-306.75"/>
<text text-anchor="middle" x="1209.97" y="-293.25" font-family="Helvetica,sans-Serif" font-size="10.00">v8&#45;persistent&#45;handle.h</text>
</a>
</g>
</g>
<!-- Node28&#45;&gt;Node47 -->
<g id="edge137" class="edge">
<title>Node28&#45;&gt;Node47</title>
<path fill="none" stroke="#63b8ff" d="M2014.8,-571.73C1901.27,-569.28 1528.98,-558.98 1413.97,-527.75 1307.23,-498.76 1249.29,-511.24 1190.97,-417.25 1171.54,-385.94 1187.8,-341.39 1199.86,-316.59"/>
<polygon fill="#63b8ff" stroke="#63b8ff" points="1203.34,-318.48 1204.82,-307.99 1197.12,-315.28 1203.34,-318.48"/>
</g>
<!-- Node50 -->
<g id="node41" class="node">
<title>Node50</title>
<g id="a_node41"><a xlink:href="v8-primitive_8h.html" target="_top" xlink:title=" ">
<polygon fill="white" stroke="#666666" points="1776.85,-417.25 1703.1,-417.25 1703.1,-398 1776.85,-398 1776.85,-417.25"/>
<text text-anchor="middle" x="1739.97" y="-403.75" font-family="Helvetica,sans-Serif" font-size="10.00">v8&#45;primitive.h</text>
</a>
</g>
</g>
<!-- Node28&#45;&gt;Node50 -->
<g id="edge138" class="edge">
<title>Node28&#45;&gt;Node50</title>
<path fill="none" stroke="#63b8ff" d="M2030.97,-563.34C1979.97,-536.22 1827.93,-455.39 1766.33,-422.64"/>
<polygon fill="#63b8ff" stroke="#63b8ff" points="1768.39,-419.24 1757.92,-417.63 1765.11,-425.42 1768.39,-419.24"/>
</g>
<!-- Node56 -->
<g id="node47" class="node">
<title>Node56</title>
<g id="a_node47"><a xlink:href="v8-callbacks_8h.html" target="_top" xlink:title=" ">
<polygon fill="#fff0f0" stroke="red" points="2240.1,-362 2161.85,-362 2161.85,-342.75 2240.1,-342.75 2240.1,-362"/>
<text text-anchor="middle" x="2200.97" y="-348.5" font-family="Helvetica,sans-Serif" font-size="10.00">v8&#45;callbacks.h</text>
</a>
</g>
</g>
<!-- Node28&#45;&gt;Node56 -->
<g id="edge115" class="edge">
<title>Node28&#45;&gt;Node56</title>
<path fill="none" stroke="#63b8ff" d="M2081.05,-567.68C2122.54,-561.05 2190.07,-547.48 2204.97,-527.75 2239.9,-481.51 2220.37,-406.96 2208.29,-372.27"/>
<polygon fill="#63b8ff" stroke="#63b8ff" points="2211.3,-371.31 2204.56,-363.13 2204.73,-373.72 2211.3,-371.31"/>
</g>
<!-- Node58 -->
<g id="node48" class="node">
<title>Node58</title>
<g id="a_node48"><a xlink:href="v8-debug_8h.html" target="_top" xlink:title=" ">
<polygon fill="#fff0f0" stroke="red" points="2479.6,-129.75 2416.35,-129.75 2416.35,-110.5 2479.6,-110.5 2479.6,-129.75"/>
<text text-anchor="middle" x="2447.97" y="-116.25" font-family="Helvetica,sans-Serif" font-size="10.00">v8&#45;debug.h</text>
</a>
</g>
</g>
<!-- Node28&#45;&gt;Node58 -->
<g id="edge124" class="edge">
<title>Node28&#45;&gt;Node58</title>
<path fill="none" stroke="#63b8ff" d="M2060.75,-563.52C2071.58,-555.39 2086.78,-542.4 2095.97,-527.75 2141.7,-454.87 2103.39,-413.06 2152.97,-342.75 2176.63,-309.21 2189.48,-304.19 2226.97,-287.5 2301.9,-254.14 2347.11,-306.48 2407.97,-251.5 2439.79,-222.75 2446.61,-169.42 2447.88,-140.68"/>
<polygon fill="#63b8ff" stroke="#63b8ff" points="2451.39,-141.1 2448.13,-131.01 2444.39,-140.93 2451.39,-141.1"/>
</g>
<!-- Node63 -->
<g id="node49" class="node">
<title>Node63</title>
<g id="a_node49"><a xlink:href="v8-embedder-heap_8h.html" target="_top" xlink:title=" ">
<polygon fill="white" stroke="#666666" points="1143.85,-362 1040.1,-362 1040.1,-342.75 1143.85,-342.75 1143.85,-362"/>
<text text-anchor="middle" x="1091.97" y="-348.5" font-family="Helvetica,sans-Serif" font-size="10.00">v8&#45;embedder&#45;heap.h</text>
</a>
</g>
</g>
<!-- Node28&#45;&gt;Node63 -->
<g id="edge127" class="edge">
<title>Node28&#45;&gt;Node63</title>
<path fill="none" stroke="#63b8ff" d="M2014.93,-571.94C1853.49,-569.69 1153.99,-558.18 1119.97,-527.75 1076.04,-488.45 1082.3,-409.82 1088.15,-373.11"/>
<polygon fill="#63b8ff" stroke="#63b8ff" points="1091.75,-373.84 1090.04,-363.38 1084.85,-372.62 1091.75,-373.84"/>
</g>
<!-- Node64 -->
<g id="node50" class="node">
<title>Node64</title>
<g id="a_node50"><a xlink:href="v8-exception_8h.html" target="_top" xlink:title=" ">
<polygon fill="white" stroke="#666666" points="2087.1,-527.75 2008.85,-527.75 2008.85,-508.5 2087.1,-508.5 2087.1,-527.75"/>
<text text-anchor="middle" x="2047.97" y="-514.25" font-family="Helvetica,sans-Serif" font-size="10.00">v8&#45;exception.h</text>
</a>
</g>
</g>
<!-- Node28&#45;&gt;Node64 -->
<g id="edge130" class="edge">
<title>Node28&#45;&gt;Node64</title>
<path fill="none" stroke="#63b8ff" d="M2047.97,-563.58C2047.97,-556.92 2047.97,-547.49 2047.97,-539.03"/>
<polygon fill="#63b8ff" stroke="#63b8ff" points="2051.47,-539.11 2047.97,-529.11 2044.47,-539.11 2051.47,-539.11"/>
</g>
<!-- Node31&#45;&gt;Node22 -->
<g id="edge52" class="edge">
<title>Node31&#45;&gt;Node22</title>
<path fill="none" stroke="#63b8ff" d="M1403.58,-287.26C1398.18,-253.93 1377.63,-136.74 1351.97,-110.5 1324.96,-82.88 1281.23,-72.27 1249.04,-68.25"/>
<polygon fill="#63b8ff" stroke="#63b8ff" points="1249.5,-64.67 1239.18,-67.08 1248.75,-71.63 1249.5,-64.67"/>
</g>
<!-- Node32&#45;&gt;Node10 -->
<g id="edge57" class="edge">
<title>Node32&#45;&gt;Node10</title>
<path fill="none" stroke="#63b8ff" d="M1545.79,-516.1C1622.32,-512.27 1784.58,-494.83 1891.97,-417.25 1948.29,-376.57 1983.37,-298.04 1997.21,-261.91"/>
<polygon fill="#63b8ff" stroke="#63b8ff" points="2000.77,-263.37 2000.96,-252.77 1994.21,-260.94 2000.77,-263.37"/>
</g>
<!-- Node32&#45;&gt;Node11 -->
<g id="edge55" class="edge">
<title>Node32&#45;&gt;Node11</title>
<path fill="none" stroke="#63b8ff" d="M1545.74,-515.97C1607.85,-513.22 1725.97,-503.93 1820.97,-472.5 2015.65,-408.1 2063.68,-376.83 2225.97,-251.5 2252.66,-230.89 2255.77,-221.63 2277.97,-196.25 2312.38,-156.93 2350.53,-108.81 2370.34,-83.45"/>
<polygon fill="#63b8ff" stroke="#63b8ff" points="2373.61,-85.95 2376.99,-75.91 2368.09,-81.65 2373.61,-85.95"/>
</g>
<!-- Node32&#45;&gt;Node20 -->
<g id="edge56" class="edge">
<title>Node32&#45;&gt;Node20</title>
<path fill="none" stroke="#63b8ff" d="M1460.21,-514.41C1203.47,-497.14 -118.18,-394.11 8.97,-110.5 24.07,-76.82 36.71,-68.97 70.97,-55.25 193.74,-6.11 1162,-9.2 1362.65,-10.38"/>
<polygon fill="#63b8ff" stroke="#63b8ff" points="1362.44,-13.88 1372.46,-10.44 1362.48,-6.88 1362.44,-13.88"/>
</g>
<!-- Node32&#45;&gt;Node22 -->
<g id="edge114" class="edge">
<title>Node32&#45;&gt;Node22</title>
<path fill="none" stroke="#63b8ff" d="M1460.25,-517.97C1364.71,-517.26 1134.14,-500.53 1030.97,-362 963.7,-271.67 977.39,-184.87 1061.97,-110.5 1091.26,-84.75 1135.12,-73.85 1167.12,-69.25"/>
<polygon fill="#63b8ff" stroke="#63b8ff" points="1167.43,-72.61 1176.9,-67.87 1166.54,-65.67 1167.43,-72.61"/>
</g>
<!-- Node32&#45;&gt;Node34 -->
<g id="edge58" class="edge">
<title>Node32&#45;&gt;Node34</title>
<path fill="none" stroke="#63b8ff" d="M1491.78,-508.09C1482.14,-500.32 1468.02,-488.92 1456.52,-479.65"/>
<polygon fill="#63b8ff" stroke="#63b8ff" points="1458.98,-476.33 1449,-472.77 1454.59,-481.78 1458.98,-476.33"/>
</g>
<!-- Node34&#45;&gt;Node10 -->
<g id="edge75" class="edge">
<title>Node34&#45;&gt;Node10</title>
<path fill="none" stroke="#63b8ff" d="M1468.81,-460.52C1563.45,-456.22 1838.4,-441.74 1869.97,-417.25 1918.56,-379.57 1877.28,-333.59 1917.97,-287.5 1930.42,-273.4 1948.4,-263.11 1964.7,-255.98"/>
<polygon fill="#63b8ff" stroke="#63b8ff" points="1965.64,-258.97 1973.57,-251.95 1962.99,-252.49 1965.64,-258.97"/>
</g>
<!-- Node34&#45;&gt;Node13 -->
<g id="edge74" class="edge">
<title>Node34&#45;&gt;Node13</title>
<path fill="none" stroke="#63b8ff" d="M1468.85,-461.9C1545.5,-461.33 1737.36,-455.97 1785.97,-417.25 1875.22,-346.16 1891.4,-194.74 1894.33,-140.75"/>
<polygon fill="#63b8ff" stroke="#63b8ff" points="1897.86,-141.14 1894.8,-130.99 1890.86,-140.83 1897.86,-141.14"/>
</g>
<!-- Node34&#45;&gt;Node22 -->
<g id="edge113" class="edge">
<title>Node34&#45;&gt;Node22</title>
<path fill="none" stroke="#63b8ff" d="M1405.26,-459.6C1346.7,-454.85 1224.5,-442.18 1190.97,-417.25 1161.14,-395.07 1170.79,-375.37 1152.97,-342.75 1144.09,-326.49 1137.29,-324.49 1131.97,-306.75 1113.98,-246.71 1117.57,-226.24 1133.97,-165.75 1141.13,-139.37 1144.81,-132.54 1160.97,-110.5 1168.74,-99.91 1179.19,-89.7 1188.27,-81.73"/>
<polygon fill="#63b8ff" stroke="#63b8ff" points="1190.05,-83.96 1195.42,-74.83 1185.52,-78.62 1190.05,-83.96"/>
</g>
<!-- Node34&#45;&gt;Node23 -->
<g id="edge76" class="edge">
<title>Node34&#45;&gt;Node23</title>
<path fill="none" stroke="#63b8ff" d="M1405.02,-459.4C1352.57,-454.75 1245.31,-442.79 1157.97,-417.25 1098.89,-399.97 1086.15,-389.28 1030.97,-362 960.67,-327.24 880.58,-280.73 841.31,-257.45"/>
<polygon fill="#63b8ff" stroke="#63b8ff" points="843.39,-254.02 833.01,-251.92 839.82,-260.04 843.39,-254.02"/>
</g>
<!-- Node35 -->
<g id="node33" class="node">
<title>Node35</title>
<g id="a_node33"><a xlink:href="garbage-collected_8h.html" target="_top" xlink:title=" ">
<polygon fill="white" stroke="#666666" points="631.6,-251.5 502.35,-251.5 502.35,-232.25 631.6,-232.25 631.6,-251.5"/>
<text text-anchor="middle" x="566.97" y="-238" font-family="Helvetica,sans-Serif" font-size="10.00">cppgc/garbage&#45;collected.h</text>
</a>
</g>
</g>
<!-- Node34&#45;&gt;Node35 -->
<g id="edge59" class="edge">
<title>Node34&#45;&gt;Node35</title>
<path fill="none" stroke="#63b8ff" d="M1404.87,-459.91C1344.33,-455.71 1209.43,-443.96 1098.97,-417.25 932.44,-376.98 899.61,-338.25 735.97,-287.5 695.83,-275.05 649.65,-263.01 615.72,-254.58"/>
<polygon fill="#63b8ff" stroke="#63b8ff" points="616.71,-250.97 606.16,-251.97 615.03,-257.77 616.71,-250.97"/>
</g>
<!-- Node46 -->
<g id="node38" class="node">
<title>Node46</title>
<g id="a_node38"><a xlink:href="name-provider_8h.html" target="_top" xlink:title=" ">
<polygon fill="white" stroke="#666666" points="1314.1,-417.25 1199.85,-417.25 1199.85,-398 1314.1,-398 1314.1,-417.25"/>
<text text-anchor="middle" x="1256.97" y="-403.75" font-family="Helvetica,sans-Serif" font-size="10.00">cppgc/name&#45;provider.h</text>
</a>
</g>
</g>
<!-- Node34&#45;&gt;Node46 -->
<g id="edge72" class="edge">
<title>Node34&#45;&gt;Node46</title>
<path fill="none" stroke="#63b8ff" d="M1406.44,-452.84C1376.57,-444.01 1330.89,-430.49 1297.89,-420.73"/>
<polygon fill="#63b8ff" stroke="#63b8ff" points="1299.24,-417.18 1288.66,-417.7 1297.25,-423.9 1299.24,-417.18"/>
</g>
<!-- Node34&#45;&gt;Node47 -->
<g id="edge77" class="edge">
<title>Node34&#45;&gt;Node47</title>
<path fill="none" stroke="#63b8ff" d="M1424.44,-452.84C1387.32,-426.05 1277.56,-346.88 1231.12,-313.38"/>
<polygon fill="#63b8ff" stroke="#63b8ff" points="1233.62,-310.15 1223.46,-307.13 1229.52,-315.82 1233.62,-310.15"/>
</g>
<!-- Node34&#45;&gt;Node50 -->
<g id="edge84" class="edge">
<title>Node34&#45;&gt;Node50</title>
<path fill="none" stroke="#63b8ff" d="M1468.83,-456.28C1522.15,-446.91 1629.76,-427.99 1692.18,-417.02"/>
<polygon fill="#63b8ff" stroke="#63b8ff" points="1692.68,-420.32 1701.92,-415.14 1691.46,-413.42 1692.68,-420.32"/>
</g>
<!-- Node52 -->
<g id="node43" class="node">
<title>Node52</title>
<g id="a_node43"><a xlink:href="v8-value_8h.html" target="_top" xlink:title=" ">
<polygon fill="white" stroke="#666666" points="1554.1,-362 1493.85,-362 1493.85,-342.75 1554.1,-342.75 1554.1,-362"/>
<text text-anchor="middle" x="1523.97" y="-348.5" font-family="Helvetica,sans-Serif" font-size="10.00">v8&#45;value.h</text>
</a>
</g>
</g>
<!-- Node34&#45;&gt;Node52 -->
<g id="edge112" class="edge">
<title>Node34&#45;&gt;Node52</title>
<path fill="none" stroke="#63b8ff" d="M1444.09,-453C1458.49,-435.03 1491.31,-394.11 1510.09,-370.69"/>
<polygon fill="#63b8ff" stroke="#63b8ff" points="1513.23,-373.37 1516.75,-363.38 1507.77,-368.99 1513.23,-373.37"/>
</g>
<!-- Node53 -->
<g id="node44" class="node">
<title>Node53</title>
<g id="a_node44"><a xlink:href="v8-sandbox_8h.html" target="_top" xlink:title=" ">
<polygon fill="white" stroke="#666666" points="1309.47,-190.62 1236.47,-190.62 1236.47,-171.38 1309.47,-171.38 1309.47,-190.62"/>
<text text-anchor="middle" x="1272.97" y="-177.12" font-family="Helvetica,sans-Serif" font-size="10.00">v8&#45;sandbox.h</text>
</a>
</g>
</g>
<!-- Node34&#45;&gt;Node53 -->
<g id="edge96" class="edge">
<title>Node34&#45;&gt;Node53</title>
<path fill="none" stroke="#63b8ff" d="M1428.35,-452.79C1407.03,-429.94 1351.19,-367.51 1317.97,-306.75 1298.71,-271.52 1284.81,-226.4 1277.91,-201.21"/>
<polygon fill="#63b8ff" stroke="#63b8ff" points="1281.11,-200.63 1275.16,-191.86 1274.34,-202.43 1281.11,-200.63"/>
</g>
<!-- Node54 -->
<g id="node45" class="node">
<title>Node54</title>
<g id="a_node45"><a xlink:href="v8-traced-handle_8h.html" target="_top" xlink:title=" ">
<polygon fill="white" stroke="#666666" points="1601.72,-306.75 1506.22,-306.75 1506.22,-287.5 1601.72,-287.5 1601.72,-306.75"/>
<text text-anchor="middle" x="1553.97" y="-293.25" font-family="Helvetica,sans-Serif" font-size="10.00">v8&#45;traced&#45;handle.h</text>
</a>
</g>
</g>
<!-- Node34&#45;&gt;Node54 -->
<g id="edge100" class="edge">
<title>Node34&#45;&gt;Node54</title>
<path fill="none" stroke="#63b8ff" d="M1435.38,-453.03C1432.05,-431.69 1426.64,-376.64 1451.97,-342.75 1463.34,-327.54 1481,-317.44 1498.45,-310.75"/>
<polygon fill="#63b8ff" stroke="#63b8ff" points="1499.36,-313.8 1507.65,-307.2 1497.06,-307.18 1499.36,-313.8"/>
</g>
<!-- Node35&#45;&gt;Node6 -->
<g id="edge71" class="edge">
<title>Node35&#45;&gt;Node6</title>
<path fill="none" stroke="#63b8ff" d="M501.97,-232.94C449.41,-225.46 380.55,-212.91 357.97,-196.25 339.23,-182.42 327.74,-157.59 321.62,-140.27"/>
<polygon fill="#63b8ff" stroke="#63b8ff" points="324.76,-139.61 318.35,-131.17 318.1,-141.76 324.76,-139.61"/>
</g>
<!-- Node36 -->
<g id="node34" class="node">
<title>Node36</title>
<g id="a_node34"><a xlink:href="api-constants_8h.html" target="_top" xlink:title=" ">
<polygon fill="white" stroke="#666666" points="724.22,-196.25 631.72,-196.25 631.72,-165.75 724.22,-165.75 724.22,-196.25"/>
<text text-anchor="start" x="639.72" y="-182.75" font-family="Helvetica,sans-Serif" font-size="10.00">cppgc/internal/api</text>
<text text-anchor="middle" x="677.97" y="-171.5" font-family="Helvetica,sans-Serif" font-size="10.00">&#45;constants.h</text>
</a>
</g>
</g>
<!-- Node35&#45;&gt;Node36 -->
<g id="edge60" class="edge">
<title>Node35&#45;&gt;Node36</title>
<path fill="none" stroke="#63b8ff" d="M583.83,-231.93C598.98,-223.9 621.76,-211.82 641.11,-201.55"/>
<polygon fill="#63b8ff" stroke="#63b8ff" points="642.38,-204.31 649.57,-196.53 639.1,-198.13 642.38,-204.31"/>
</g>
<!-- Node38 -->
<g id="node36" class="node">
<title>Node38</title>
<g id="a_node36"><a xlink:href="platform_8h.html" target="_top" xlink:title=" ">
<polygon fill="#fff0f0" stroke="red" points="507.97,-129.75 419.97,-129.75 419.97,-110.5 507.97,-110.5 507.97,-129.75"/>
<text text-anchor="middle" x="463.97" y="-116.25" font-family="Helvetica,sans-Serif" font-size="10.00">cppgc/platform.h</text>
</a>
</g>
</g>
<!-- Node35&#45;&gt;Node38 -->
<g id="edge64" class="edge">
<title>Node35&#45;&gt;Node38</title>
<path fill="none" stroke="#63b8ff" d="M501.86,-235.06C450.12,-228.93 383.74,-217.17 366.97,-196.25 358.5,-185.67 359.66,-177.16 366.97,-165.75 376.66,-150.63 392.91,-140.56 409.37,-133.89"/>
<polygon fill="#63b8ff" stroke="#63b8ff" points="410.39,-136.87 418.58,-130.16 407.99,-130.3 410.39,-136.87"/>
</g>
<!-- Node45 -->
<g id="node37" class="node">
<title>Node45</title>
<g id="a_node37"><a xlink:href="trace-trait_8h.html" target="_top" xlink:title=" ">
<polygon fill="white" stroke="#666666" points="613.97,-190.62 519.97,-190.62 519.97,-171.38 613.97,-171.38 613.97,-190.62"/>
<text text-anchor="middle" x="566.97" y="-177.12" font-family="Helvetica,sans-Serif" font-size="10.00">cppgc/trace&#45;trait.h</text>
</a>
</g>
</g>
<!-- Node35&#45;&gt;Node45 -->
<g id="edge67" class="edge">
<title>Node35&#45;&gt;Node45</title>
<path fill="none" stroke="#63b8ff" d="M566.97,-231.93C566.97,-223.98 566.97,-212.06 566.97,-201.87"/>
<polygon fill="#63b8ff" stroke="#63b8ff" points="570.47,-202.03 566.97,-192.03 563.47,-202.03 570.47,-202.03"/>
</g>
<!-- Node36&#45;&gt;Node7 -->
<g id="edge61" class="edge">
<title>Node36&#45;&gt;Node7</title>
<path fill="none" stroke="#63b8ff" d="M631.23,-167.6C628.44,-166.95 625.67,-166.33 622.97,-165.75 529.52,-145.75 499.72,-165.21 410.97,-129.75 381.79,-118.09 352.41,-96.47 334.22,-81.63"/>
<polygon fill="#63b8ff" stroke="#63b8ff" points="337.15,-78.69 327.23,-74.97 332.67,-84.07 337.15,-78.69"/>
</g>
<!-- Node36&#45;&gt;Node22 -->
<g id="edge63" class="edge">
<title>Node36&#45;&gt;Node22</title>
<path fill="none" stroke="#63b8ff" d="M687.29,-165.35C698.69,-148.85 719.62,-122.74 744.97,-110.5 819.02,-74.74 1068.26,-67.63 1167.1,-66.22"/>
<polygon fill="#63b8ff" stroke="#63b8ff" points="1166.88,-69.71 1176.84,-66.08 1166.79,-62.71 1166.88,-69.71"/>
</g>
<!-- Node37 -->
<g id="node35" class="node">
<title>Node37</title>
<g id="a_node35"><a xlink:title=" ">
<polygon fill="#e0e0e0" stroke="#999999" points="799.6,-129.75 754.35,-129.75 754.35,-110.5 799.6,-110.5 799.6,-129.75"/>
<text text-anchor="middle" x="776.97" y="-116.25" font-family="Helvetica,sans-Serif" font-size="10.00">cstdint</text>
</a>
</g>
</g>
<!-- Node36&#45;&gt;Node37 -->
<g id="edge62" class="edge">
<title>Node36&#45;&gt;Node37</title>
<path fill="none" stroke="#63b8ff" d="M702.7,-165.3C717.92,-156.24 737.35,-144.69 752.52,-135.66"/>
<polygon fill="#63b8ff" stroke="#63b8ff" points="753.98,-138.27 760.79,-130.15 750.41,-132.26 753.98,-138.27"/>
</g>
<!-- Node38&#45;&gt;Node20 -->
<g id="edge65" class="edge">
<title>Node38&#45;&gt;Node20</title>
<path fill="none" stroke="#63b8ff" d="M472.93,-110.04C488.06,-95.38 520.32,-66.97 553.97,-55.25 631.04,-28.42 1210.87,-14.55 1362.68,-11.35"/>
<polygon fill="#63b8ff" stroke="#63b8ff" points="1362.33,-14.84 1372.26,-11.13 1362.19,-7.84 1362.33,-14.84"/>
</g>
<!-- Node38&#45;&gt;Node22 -->
<g id="edge66" class="edge">
<title>Node38&#45;&gt;Node22</title>
<path fill="none" stroke="#63b8ff" d="M508.29,-115.95C641.59,-106.41 1037.69,-78.06 1166.79,-68.82"/>
<polygon fill="#63b8ff" stroke="#63b8ff" points="1167.01,-72.24 1176.73,-68.04 1166.51,-65.26 1167.01,-72.24"/>
</g>
<!-- Node45&#45;&gt;Node4 -->
<g id="edge68" class="edge">
<title>Node45&#45;&gt;Node4</title>
<path fill="none" stroke="#63b8ff" d="M569.01,-171.04C573.19,-152.71 582.8,-110.53 588.5,-85.51"/>
<polygon fill="#63b8ff" stroke="#63b8ff" points="592.13,-86.32 590.94,-75.79 585.31,-84.76 592.13,-86.32"/>
</g>
<!-- Node45&#45;&gt;Node6 -->
<g id="edge69" class="edge">
<title>Node45&#45;&gt;Node6</title>
<path fill="none" stroke="#63b8ff" d="M531.76,-170.9C524.87,-169.16 517.7,-167.38 510.97,-165.75 462.53,-154.04 407.12,-141.44 367.78,-132.62"/>
<polygon fill="#63b8ff" stroke="#63b8ff" points="368.65,-129.01 358.13,-130.24 367.12,-135.84 368.65,-129.01"/>
</g>
<!-- Node45&#45;&gt;Node22 -->
<g id="edge70" class="edge">
<title>Node45&#45;&gt;Node22</title>
<path fill="none" stroke="#63b8ff" d="M581.44,-171.09C607.2,-155.73 663.19,-124.53 714.97,-110.5 799.92,-87.48 1064.52,-72.73 1166.93,-67.75"/>
<polygon fill="#63b8ff" stroke="#63b8ff" points="1166.92,-71.21 1176.74,-67.23 1166.58,-64.22 1166.92,-71.21"/>
</g>
<!-- Node46&#45;&gt;Node22 -->
<g id="edge73" class="edge">
<title>Node46&#45;&gt;Node22</title>
<path fill="none" stroke="#63b8ff" d="M1247.36,-397.91C1233.74,-385.58 1208.03,-362.36 1185.97,-342.75 1167.85,-326.64 1157.09,-327.75 1144.97,-306.75 1132.46,-285.06 1136.43,-276.42 1133.97,-251.5 1127.5,-185.79 1171.55,-115.19 1194.58,-83.29"/>
<polygon fill="#63b8ff" stroke="#63b8ff" points="1197.82,-85.79 1200.97,-75.68 1192.2,-81.62 1197.82,-85.79"/>
</g>
<!-- Node47&#45;&gt;Node10 -->
<g id="edge79" class="edge">
<title>Node47&#45;&gt;Node10</title>
<path fill="none" stroke="#63b8ff" d="M1265.81,-292.38C1411.67,-282.6 1802.93,-256.36 1948.45,-246.6"/>
<polygon fill="#63b8ff" stroke="#63b8ff" points="1948.57,-250.03 1958.31,-245.87 1948.1,-243.05 1948.57,-250.03"/>
</g>
<!-- Node47&#45;&gt;Node13 -->
<g id="edge78" class="edge">
<title>Node47&#45;&gt;Node13</title>
<path fill="none" stroke="#63b8ff" d="M1245.36,-287.08C1360.23,-257.74 1722.6,-165.16 1850.08,-132.59"/>
<polygon fill="#63b8ff" stroke="#63b8ff" points="1850.79,-135.77 1859.61,-129.9 1849.06,-128.99 1850.79,-135.77"/>
</g>
<!-- Node47&#45;&gt;Node22 -->
<g id="edge83" class="edge">
<title>Node47&#45;&gt;Node22</title>
<path fill="none" stroke="#63b8ff" d="M1186.88,-287.08C1171.97,-279.88 1153.77,-268.21 1144.97,-251.5 1128.56,-220.33 1145.53,-231.42 1183.97,-129.75 1189.62,-114.82 1195.97,-97.91 1200.72,-85.24"/>
<polygon fill="#63b8ff" stroke="#63b8ff" points="1204.34,-86.57 1204.57,-75.98 1197.78,-84.11 1204.34,-86.57"/>
</g>
<!-- Node48 -->
<g id="node40" class="node">
<title>Node48</title>
<g id="a_node40"><a xlink:href="v8-weak-callback-info_8h.html" target="_top" xlink:title=" ">
<polygon fill="#fff0f0" stroke="red" points="1271.97,-251.5 1153.97,-251.5 1153.97,-232.25 1271.97,-232.25 1271.97,-251.5"/>
<text text-anchor="middle" x="1212.97" y="-238" font-family="Helvetica,sans-Serif" font-size="10.00">v8&#45;weak&#45;callback&#45;info.h</text>
</a>
</g>
</g>
<!-- Node47&#45;&gt;Node48 -->
<g id="edge80" class="edge">
<title>Node47&#45;&gt;Node48</title>
<path fill="none" stroke="#63b8ff" d="M1210.47,-287.33C1210.84,-280.67 1211.37,-271.24 1211.85,-262.78"/>
<polygon fill="#63b8ff" stroke="#63b8ff" points="1215.4,-263.04 1212.47,-252.86 1208.41,-262.65 1215.4,-263.04"/>
</g>
<!-- Node48&#45;&gt;Node22 -->
<g id="edge82" class="edge">
<title>Node48&#45;&gt;Node22</title>
<path fill="none" stroke="#63b8ff" d="M1214.93,-231.97C1219.3,-210.79 1228.91,-155.8 1221.97,-110.5 1220.67,-101.98 1218.04,-92.85 1215.41,-85.09"/>
<polygon fill="#63b8ff" stroke="#63b8ff" points="1218.41,-84.11 1211.7,-75.91 1211.83,-86.51 1218.41,-84.11"/>
</g>
<!-- Node48&#45;&gt;Node24 -->
<g id="edge81" class="edge">
<title>Node48&#45;&gt;Node24</title>
<path fill="none" stroke="#63b8ff" d="M1153.55,-239.74C1034.05,-236.88 756.02,-227.35 513.3,-196.44"/>
<polygon fill="#63b8ff" stroke="#63b8ff" points="513.87,-192.85 503.5,-195.05 512.97,-199.8 513.87,-192.85"/>
</g>
<!-- Node50&#45;&gt;Node9 -->
<g id="edge86" class="edge">
<title>Node50&#45;&gt;Node9</title>
<path fill="none" stroke="#63b8ff" d="M1732.09,-397.87C1721.96,-385.5 1706.61,-362.23 1714.97,-342.75 1719.95,-331.15 1729.59,-321.15 1738.85,-313.58"/>
<polygon fill="#63b8ff" stroke="#63b8ff" points="1740.58,-315.9 1746.44,-307.08 1736.36,-310.32 1740.58,-315.9"/>
</g>
<!-- Node50&#45;&gt;Node10 -->
<g id="edge88" class="edge">
<title>Node50&#45;&gt;Node10</title>
<path fill="none" stroke="#63b8ff" d="M1752.44,-397.73C1764.57,-388.95 1783.4,-375 1798.97,-362 1836.52,-330.66 1838.14,-312.84 1879.97,-287.5 1903.67,-273.15 1932.69,-262.39 1956.7,-255.04"/>
<polygon fill="#63b8ff" stroke="#63b8ff" points="1957.39,-258.19 1965.99,-252 1955.41,-251.47 1957.39,-258.19"/>
</g>
<!-- Node50&#45;&gt;Node13 -->
<g id="edge87" class="edge">
<title>Node50&#45;&gt;Node13</title>
<path fill="none" stroke="#63b8ff" d="M1761.93,-397.6C1810.53,-377.63 1930.92,-328.24 2031.97,-287.5 2133.58,-246.53 2199.49,-286.93 2260.97,-196.25 2268.58,-185.03 2269.96,-175.9 2260.97,-165.75 2240.02,-142.09 2033.62,-128.38 1940.33,-123.35"/>
<polygon fill="#63b8ff" stroke="#63b8ff" points="1940.71,-119.81 1930.54,-122.78 1940.34,-126.8 1940.71,-119.81"/>
</g>
<!-- Node50&#45;&gt;Node22 -->
<g id="edge95" class="edge">
<title>Node50&#45;&gt;Node22</title>
<path fill="none" stroke="#63b8ff" d="M1712.27,-397.6C1656.14,-378.93 1531.39,-335.45 1496.97,-306.75 1417.36,-240.37 1454.5,-171.87 1370.97,-110.5 1335.02,-84.09 1284.28,-73.31 1248.99,-68.91"/>
<polygon fill="#63b8ff" stroke="#63b8ff" points="1249.45,-65.33 1239.12,-67.69 1248.67,-72.28 1249.45,-65.33"/>
</g>
<!-- Node51 -->
<g id="node42" class="node">
<title>Node51</title>
<g id="a_node42"><a xlink:title=" ">
<polygon fill="#e0e0e0" stroke="#999999" points="1789.72,-362 1724.22,-362 1724.22,-342.75 1789.72,-342.75 1789.72,-362"/>
<text text-anchor="middle" x="1756.97" y="-348.5" font-family="Helvetica,sans-Serif" font-size="10.00">string_view</text>
</a>
</g>
</g>
<!-- Node50&#45;&gt;Node51 -->
<g id="edge85" class="edge">
<title>Node50&#45;&gt;Node51</title>
<path fill="none" stroke="#63b8ff" d="M1742.78,-397.83C1744.96,-391.01 1748.06,-381.31 1750.8,-372.7"/>
<polygon fill="#63b8ff" stroke="#63b8ff" points="1754.4,-373.95 1754.1,-363.36 1747.73,-371.82 1754.4,-373.95"/>
</g>
<!-- Node50&#45;&gt;Node52 -->
<g id="edge89" class="edge">
<title>Node50&#45;&gt;Node52</title>
<path fill="none" stroke="#63b8ff" d="M1703.33,-397.59C1664.96,-388.13 1604.85,-373.31 1564.93,-363.47"/>
<polygon fill="#63b8ff" stroke="#63b8ff" points="1566.05,-359.9 1555.5,-360.9 1564.37,-366.69 1566.05,-359.9"/>
</g>
<!-- Node52&#45;&gt;Node9 -->
<g id="edge90" class="edge">
<title>Node52&#45;&gt;Node9</title>
<path fill="none" stroke="#63b8ff" d="M1554.12,-344.63C1597.08,-335.02 1675.94,-317.37 1723.2,-306.8"/>
<polygon fill="#63b8ff" stroke="#63b8ff" points="1723.93,-310 1732.92,-304.4 1722.4,-303.17 1723.93,-310"/>
</g>
<!-- Node52&#45;&gt;Node10 -->
<g id="edge92" class="edge">
<title>Node52&#45;&gt;Node10</title>
<path fill="none" stroke="#63b8ff" d="M1554.38,-344.19C1586.51,-336.27 1638.43,-322.55 1681.97,-306.75 1701.66,-299.61 1704.91,-293.48 1724.97,-287.5 1800.55,-264.97 1891.25,-253.13 1948.26,-247.45"/>
<polygon fill="#63b8ff" stroke="#63b8ff" points="1948.58,-250.84 1958.2,-246.39 1947.91,-243.87 1948.58,-250.84"/>
</g>
<!-- Node52&#45;&gt;Node13 -->
<g id="edge91" class="edge">
<title>Node52&#45;&gt;Node13</title>
<path fill="none" stroke="#63b8ff" d="M1553.28,-342.35C1578.01,-334.29 1614.07,-321.5 1643.97,-306.75 1685.39,-286.32 1783.87,-225.05 1819.97,-196.25 1842.58,-178.21 1865.66,-154.06 1880.13,-138.06"/>
<polygon fill="#63b8ff" stroke="#63b8ff" points="1882.18,-140.9 1886.23,-131.11 1876.96,-136.24 1882.18,-140.9"/>
</g>
<!-- Node52&#45;&gt;Node22 -->
<g id="edge94" class="edge">
<title>Node52&#45;&gt;Node22</title>
<path fill="none" stroke="#63b8ff" d="M1493.53,-347.37C1449.35,-340.93 1370.58,-326.94 1350.97,-306.75 1306.2,-260.65 1346.14,-223.98 1318.97,-165.75 1305.93,-137.8 1299.6,-131.47 1276.97,-110.5 1264.26,-98.72 1248.07,-88.07 1234.57,-80.13"/>
<polygon fill="#63b8ff" stroke="#63b8ff" points="1236.72,-76.76 1226.3,-74.85 1233.26,-82.84 1236.72,-76.76"/>
</g>
<!-- Node52&#45;&gt;Node23 -->
<g id="edge93" class="edge">
<title>Node52&#45;&gt;Node23</title>
<path fill="none" stroke="#63b8ff" d="M1493.41,-348.56C1428.85,-342.45 1273.93,-326.87 1144.97,-306.75 1042.5,-290.76 923.2,-265.96 860.54,-252.44"/>
<polygon fill="#63b8ff" stroke="#63b8ff" points="861.4,-248.83 850.88,-250.14 859.92,-255.67 861.4,-248.83"/>
</g>
<!-- Node53&#45;&gt;Node13 -->
<g id="edge98" class="edge">
<title>Node53&#45;&gt;Node13</title>
<path fill="none" stroke="#63b8ff" d="M1309.56,-176.54C1417.03,-166.36 1731.58,-136.59 1849.57,-125.42"/>
<polygon fill="#63b8ff" stroke="#63b8ff" points="1849.74,-128.83 1859.36,-124.4 1849.08,-121.86 1849.74,-128.83"/>
</g>
<!-- Node53&#45;&gt;Node22 -->
<g id="edge99" class="edge">
<title>Node53&#45;&gt;Node22</title>
<path fill="none" stroke="#63b8ff" d="M1273.14,-171.24C1273.04,-157.41 1271.26,-130.06 1259.97,-110.5 1253.24,-98.82 1242.28,-88.74 1232.15,-81.13"/>
<polygon fill="#63b8ff" stroke="#63b8ff" points="1234.42,-77.75 1224.23,-74.86 1230.4,-83.47 1234.42,-77.75"/>
</g>
<!-- Node53&#45;&gt;Node37 -->
<g id="edge97" class="edge">
<title>Node53&#45;&gt;Node37</title>
<path fill="none" stroke="#63b8ff" d="M1236.1,-175.62C1143.18,-164.59 900.49,-135.79 810.87,-125.15"/>
<polygon fill="#63b8ff" stroke="#63b8ff" points="811.34,-121.56 800.99,-123.86 810.51,-128.51 811.34,-121.56"/>
</g>
<!-- Node54&#45;&gt;Node3 -->
<g id="edge102" class="edge">
<title>Node54&#45;&gt;Node3</title>
<path fill="none" stroke="#63b8ff" d="M1597.69,-287.01C1636.77,-278.62 1695.49,-265.39 1745.97,-251.5 1866.96,-218.21 1893.89,-198.69 2014.97,-165.75 2188.8,-118.46 2237.7,-118 2416.3,-74.84"/>
<polygon fill="#63b8ff" stroke="#63b8ff" points="2416.95,-78.04 2425.85,-72.28 2415.3,-71.24 2416.95,-78.04"/>
</g>
<!-- Node54&#45;&gt;Node4 -->
<g id="edge106" class="edge">
<title>Node54&#45;&gt;Node4</title>
<path fill="none" stroke="#63b8ff" d="M1517.43,-287.07C1465.16,-274.24 1365.96,-250.31 1280.97,-232.25 1043.73,-181.83 977.15,-199.89 744.97,-129.75 700.12,-116.2 650.48,-93.86 620.51,-79.51"/>
<polygon fill="#63b8ff" stroke="#63b8ff" points="622.3,-76.01 611.77,-74.8 619.25,-82.31 622.3,-76.01"/>
</g>
<!-- Node54&#45;&gt;Node8 -->
<g id="edge107" class="edge">
<title>Node54&#45;&gt;Node8</title>
<path fill="none" stroke="#63b8ff" d="M1506.17,-291.28C1491.08,-289.89 1474.34,-288.48 1458.97,-287.5 1244.6,-273.78 704.29,-290.14 492.97,-251.5 326,-220.97 259.1,-241.09 130.97,-129.75 117.38,-117.94 108.91,-98.98 104.13,-84.78"/>
<polygon fill="#63b8ff" stroke="#63b8ff" points="107.31,-84.19 101.05,-75.64 100.61,-86.22 107.31,-84.19"/>
</g>
<!-- Node54&#45;&gt;Node10 -->
<g id="edge109" class="edge">
<title>Node54&#45;&gt;Node10</title>
<path fill="none" stroke="#63b8ff" d="M1602.13,-290.43C1686.25,-280.47 1859.48,-259.97 1948.49,-249.44"/>
<polygon fill="#63b8ff" stroke="#63b8ff" points="1948.65,-252.83 1958.17,-248.18 1947.83,-245.88 1948.65,-252.83"/>
</g>
<!-- Node54&#45;&gt;Node11 -->
<g id="edge101" class="edge">
<title>Node54&#45;&gt;Node11</title>
<path fill="none" stroke="#63b8ff" d="M1594.03,-287C1626.17,-279.14 1672.18,-266.68 1710.97,-251.5 1761.55,-231.71 1771.75,-221.23 1819.97,-196.25 1856.14,-177.51 1943.04,-122.49 1981.97,-110.5 2112.25,-70.39 2276.09,-65.45 2347.69,-65.41"/>
<polygon fill="#63b8ff" stroke="#63b8ff" points="2347.36,-68.91 2357.37,-65.44 2347.38,-61.91 2347.36,-68.91"/>
</g>
<!-- Node54&#45;&gt;Node13 -->
<g id="edge108" class="edge">
<title>Node54&#45;&gt;Node13</title>
<path fill="none" stroke="#63b8ff" d="M1585.23,-287.02C1611.17,-279 1648.73,-266.31 1679.97,-251.5 1754.52,-216.16 1836.17,-161.95 1873.81,-135.98"/>
<polygon fill="#63b8ff" stroke="#63b8ff" points="1875.18,-138.6 1881.4,-130.02 1871.19,-132.85 1875.18,-138.6"/>
</g>
<!-- Node54&#45;&gt;Node15 -->
<g id="edge104" class="edge">
<title>Node54&#45;&gt;Node15</title>
<path fill="none" stroke="#63b8ff" d="M1590.26,-287.07C1608.93,-280.43 1630.18,-269.38 1641.97,-251.5 1676,-199.91 1665.86,-121.72 1658.57,-85.53"/>
<polygon fill="#63b8ff" stroke="#63b8ff" points="1661.82,-85 1656.28,-75.97 1654.98,-86.48 1661.82,-85"/>
</g>
<!-- Node54&#45;&gt;Node20 -->
<g id="edge105" class="edge">
<title>Node54&#45;&gt;Node20</title>
<path fill="none" stroke="#63b8ff" d="M1571.97,-287.15C1584.91,-279.61 1601.36,-267.49 1608.97,-251.5 1612.65,-243.78 1612.14,-240.2 1608.97,-232.25 1570.59,-135.94 1468.28,-57.43 1422.13,-25.74"/>
<polygon fill="#63b8ff" stroke="#63b8ff" points="1424.42,-22.39 1414.17,-19.69 1420.5,-28.19 1424.42,-22.39"/>
</g>
<!-- Node54&#45;&gt;Node22 -->
<g id="edge111" class="edge">
<title>Node54&#45;&gt;Node22</title>
<path fill="none" stroke="#63b8ff" d="M1552.69,-287.36C1547.79,-257.21 1527.31,-157.1 1465.97,-110.5 1432.51,-85.08 1312.8,-73.1 1248.88,-68.41"/>
<polygon fill="#63b8ff" stroke="#63b8ff" points="1249.22,-64.85 1239,-67.64 1248.73,-71.83 1249.22,-64.85"/>
</g>
<!-- Node54&#45;&gt;Node48 -->
<g id="edge110" class="edge">
<title>Node54&#45;&gt;Node48</title>
<path fill="none" stroke="#63b8ff" d="M1505.84,-288.61C1447.41,-279.48 1348.45,-264.03 1281.93,-253.64"/>
<polygon fill="#63b8ff" stroke="#63b8ff" points="1282.55,-250.04 1272.13,-251.96 1281.47,-256.96 1282.55,-250.04"/>
</g>
<!-- Node55 -->
<g id="node46" class="node">
<title>Node55</title>
<g id="a_node46"><a xlink:title=" ">
<polygon fill="#e0e0e0" stroke="#999999" points="1600.22,-251.5 1555.72,-251.5 1555.72,-232.25 1600.22,-232.25 1600.22,-251.5"/>
<text text-anchor="middle" x="1577.97" y="-238" font-family="Helvetica,sans-Serif" font-size="10.00">stdio.h</text>
</a>
</g>
</g>
<!-- Node54&#45;&gt;Node55 -->
<g id="edge103" class="edge">
<title>Node54&#45;&gt;Node55</title>
<path fill="none" stroke="#63b8ff" d="M1557.94,-287.33C1561.08,-280.36 1565.58,-270.37 1569.52,-261.62"/>
<polygon fill="#63b8ff" stroke="#63b8ff" points="1573.01,-263.41 1573.92,-252.86 1566.62,-260.54 1573.01,-263.41"/>
</g>
<!-- Node56&#45;&gt;Node9 -->
<g id="edge120" class="edge">
<title>Node56&#45;&gt;Node9</title>
<path fill="none" stroke="#63b8ff" d="M2161.63,-346.6C2078.13,-336.47 1884.04,-312.93 1800.91,-302.85"/>
<polygon fill="#63b8ff" stroke="#63b8ff" points="1801.52,-299.27 1791.17,-301.54 1800.67,-306.22 1801.52,-299.27"/>
</g>
<!-- Node56&#45;&gt;Node10 -->
<g id="edge121" class="edge">
<title>Node56&#45;&gt;Node10</title>
<path fill="none" stroke="#63b8ff" d="M2187.6,-342.41C2168.22,-329.57 2131.04,-305.53 2097.97,-287.5 2077.33,-276.24 2053.37,-264.9 2034.81,-256.46"/>
<polygon fill="#63b8ff" stroke="#63b8ff" points="2036.4,-252.89 2025.84,-251.97 2033.52,-259.27 2036.4,-252.89"/>
</g>
<!-- Node56&#45;&gt;Node11 -->
<g id="edge116" class="edge">
<title>Node56&#45;&gt;Node11</title>
<path fill="none" stroke="#63b8ff" d="M2205.6,-342.63C2213.59,-328.46 2231.43,-300.74 2254.97,-287.5 2344.77,-236.98 2415.42,-328.41 2483.97,-251.5 2525.69,-204.69 2523.57,-162.8 2488.97,-110.5 2480.89,-98.29 2447.11,-85.29 2420.02,-76.5"/>
<polygon fill="#63b8ff" stroke="#63b8ff" points="2421.25,-72.9 2410.66,-73.23 2419.14,-79.57 2421.25,-72.9"/>
</g>
<!-- Node56&#45;&gt;Node22 -->
<g id="edge122" class="edge">
<title>Node56&#45;&gt;Node22</title>
<path fill="none" stroke="#63b8ff" d="M2200.29,-342.5C2197.42,-312.01 2183.5,-210.89 2122.97,-165.75 2105.12,-152.44 1424.19,-86.54 1248.83,-69.77"/>
<polygon fill="#63b8ff" stroke="#63b8ff" points="1249.31,-66.2 1239.02,-68.73 1248.64,-73.17 1249.31,-66.2"/>
</g>
<!-- Node56&#45;&gt;Node29 -->
<g id="edge117" class="edge">
<title>Node56&#45;&gt;Node29</title>
<path fill="none" stroke="#63b8ff" d="M2216.58,-342.34C2230.59,-334.23 2251.41,-322.18 2267.77,-312.71"/>
<polygon fill="#63b8ff" stroke="#63b8ff" points="2269.39,-315.24 2276.29,-307.2 2265.88,-309.18 2269.39,-315.24"/>
</g>
<!-- Node56&#45;&gt;Node30 -->
<g id="edge118" class="edge">
<title>Node56&#45;&gt;Node30</title>
<path fill="none" stroke="#63b8ff" d="M2227.94,-342.34C2256.19,-332.88 2300.46,-318.06 2329.84,-308.22"/>
<polygon fill="#63b8ff" stroke="#63b8ff" points="2330.56,-311.33 2338.93,-304.84 2328.34,-304.69 2330.56,-311.33"/>
</g>
<!-- Node56&#45;&gt;Node31 -->
<g id="edge119" class="edge">
<title>Node56&#45;&gt;Node31</title>
<path fill="none" stroke="#63b8ff" d="M2161.64,-349.3C2054.75,-343.57 1750.01,-326.63 1496.97,-306.75 1485.34,-305.84 1472.89,-304.75 1461.03,-303.65"/>
<polygon fill="#63b8ff" stroke="#63b8ff" points="1461.62,-300.1 1451.34,-302.65 1460.97,-307.07 1461.62,-300.1"/>
</g>
<!-- Node58&#45;&gt;Node3 -->
<g id="edge125" class="edge">
<title>Node58&#45;&gt;Node3</title>
<path fill="none" stroke="#63b8ff" d="M2448.47,-110.33C2448.84,-103.67 2449.37,-94.24 2449.85,-85.78"/>
<polygon fill="#63b8ff" stroke="#63b8ff" points="2453.4,-86.04 2450.47,-75.86 2446.41,-85.65 2453.4,-86.04"/>
</g>
<!-- Node58&#45;&gt;Node22 -->
<g id="edge126" class="edge">
<title>Node58&#45;&gt;Node22</title>
<path fill="none" stroke="#63b8ff" d="M2416.07,-117.76C2245.38,-110.42 1440.46,-75.86 1248.94,-67.63"/>
<polygon fill="#63b8ff" stroke="#63b8ff" points="1249.12,-64.1 1238.98,-67.16 1248.82,-71.09 1249.12,-64.1"/>
</g>
<!-- Node63&#45;&gt;Node22 -->
<g id="edge129" class="edge">
<title>Node63&#45;&gt;Node22</title>
<path fill="none" stroke="#63b8ff" d="M1073.38,-342.33C1060.26,-334.81 1043.69,-322.77 1035.97,-306.75 1016.57,-266.49 1048.19,-141.92 1079.97,-110.5 1103.39,-87.35 1139.45,-76.17 1167.33,-70.8"/>
<polygon fill="#63b8ff" stroke="#63b8ff" points="1167.71,-74.11 1176.96,-68.95 1166.51,-67.22 1167.71,-74.11"/>
</g>
<!-- Node63&#45;&gt;Node54 -->
<g id="edge128" class="edge">
<title>Node63&#45;&gt;Node54</title>
<path fill="none" stroke="#63b8ff" d="M1144.07,-345.37C1230.81,-335.37 1404.26,-315.38 1495.22,-304.9"/>
<polygon fill="#63b8ff" stroke="#63b8ff" points="1495.36,-308.29 1504.89,-303.67 1494.56,-301.33 1495.36,-308.29"/>
</g>
<!-- Node64&#45;&gt;Node10 -->
<g id="edge132" class="edge">
<title>Node64&#45;&gt;Node10</title>
<path fill="none" stroke="#63b8ff" d="M2046.51,-508C2040.27,-469.12 2015.83,-316.76 2007.09,-262.33"/>
<polygon fill="#63b8ff" stroke="#63b8ff" points="2010.44,-262.08 2005.4,-252.76 2003.53,-263.18 2010.44,-262.08"/>
</g>
<!-- Node64&#45;&gt;Node11 -->
<g id="edge131" class="edge">
<title>Node64&#45;&gt;Node11</title>
<path fill="none" stroke="#63b8ff" d="M2087.3,-518.1C2207.19,-518.84 2559.97,-503.57 2559.97,-298.12 2559.97,-298.12 2559.97,-298.12 2559.97,-180 2559.97,-141.42 2538.99,-133.44 2507.97,-110.5 2493.74,-99.97 2451.4,-85.86 2420.14,-76.35"/>
<polygon fill="#63b8ff" stroke="#63b8ff" points="2421.19,-72.71 2410.61,-73.19 2419.18,-79.42 2421.19,-72.71"/>
</g>
<!-- Node64&#45;&gt;Node22 -->
<g id="edge134" class="edge">
<title>Node64&#45;&gt;Node22</title>
<path fill="none" stroke="#63b8ff" d="M2008.74,-512.42C1891.84,-497.53 1549.94,-447.29 1484.97,-362 1479.79,-355.19 1479.82,-349.58 1484.97,-342.75 1520.05,-296.25 1575.9,-353.25 1610.97,-306.75 1617.54,-298.04 1624.86,-269.31 1608.97,-232.25 1579.15,-162.71 1557.2,-145.23 1489.97,-110.5 1448.67,-89.16 1316.52,-75.14 1248.81,-69.16"/>
<polygon fill="#63b8ff" stroke="#63b8ff" points="1249.39,-65.61 1239.13,-68.24 1248.79,-72.59 1249.39,-65.61"/>
</g>
<!-- Node64&#45;&gt;Node34 -->
<g id="edge133" class="edge">
<title>Node64&#45;&gt;Node34</title>
<path fill="none" stroke="#63b8ff" d="M2008.35,-513.67C1898.82,-504.13 1592.56,-477.43 1479.56,-467.59"/>
<polygon fill="#63b8ff" stroke="#63b8ff" points="1480.19,-464.04 1469.93,-466.66 1479.58,-471.01 1480.19,-464.04"/>
</g>
</g>
</svg>
