<?xml version="1.0" encoding="UTF-8" standalone="no"?>
<!DOCTYPE svg PUBLIC "-//W3C//DTD SVG 1.1//EN"
 "http://www.w3.org/Graphics/SVG/1.1/DTD/svg11.dtd">
<!-- Generated by graphviz version 8.0.5 (20230430.1635)
 -->
<!-- Title: v8::Local::New Pages: 1 -->
<svg width="285pt" height="162pt"
 viewBox="0.00 0.00 285.25 161.50" xmlns="http://www.w3.org/2000/svg" xmlns:xlink="http://www.w3.org/1999/xlink">
<g id="graph0" class="graph" transform="scale(1 1) rotate(0) translate(4 157.5)">
<title>v8::Local::New</title>
<!-- Node1 -->
<g id="node1" class="node">
<title>Node1</title>
<g id="a_node1"><a xlink:title=" ">
<polygon fill="#999999" stroke="#666666" points="277.25,-97.5 197.5,-97.5 197.5,-78.25 277.25,-78.25 277.25,-97.5"/>
<text text-anchor="middle" x="237.38" y="-84" font-family="Helvetica,sans-Serif" font-size="10.00">v8::Local::New</text>
</a>
</g>
</g>
<!-- Node2 -->
<g id="node2" class="node">
<title>Node2</title>
<g id="a_node2"><a xlink:href="classv8_1_1PersistentValueMapBase.html#a5bac0db345afa5ac0654c7bac39fd67b" target="_top" xlink:title=" ">
<polygon fill="white" stroke="#666666" points="161.5,-153.5 0,-153.5 0,-134.25 161.5,-134.25 161.5,-153.5"/>
<text text-anchor="middle" x="80.75" y="-140" font-family="Helvetica,sans-Serif" font-size="10.00">v8::PersistentValueMapBase::Get</text>
</a>
</g>
</g>
<!-- Node1&#45;&gt;Node2 -->
<g id="edge1" class="edge">
<title>Node1&#45;&gt;Node2</title>
<path fill="none" stroke="#63b8ff" d="M210.17,-103.2C196.11,-110.89 178.27,-119.83 161.5,-125.88 153.09,-128.91 143.99,-131.54 135.04,-133.78"/>
<polygon fill="#63b8ff" stroke="#63b8ff" points="211.65,-105.82 218.66,-97.88 208.23,-99.71 211.65,-105.82"/>
</g>
<!-- Node3 -->
<g id="node3" class="node">
<title>Node3</title>
<g id="a_node3"><a xlink:href="classv8_1_1PersistentBase.html#a3904f51a5d7024c2983d027c8075201d" target="_top" xlink:title=" ">
<polygon fill="white" stroke="#666666" points="139.75,-116.5 21.75,-116.5 21.75,-97.25 139.75,-97.25 139.75,-116.5"/>
<text text-anchor="middle" x="80.75" y="-103" font-family="Helvetica,sans-Serif" font-size="10.00">v8::PersistentBase::Get</text>
</a>
</g>
</g>
<!-- Node1&#45;&gt;Node3 -->
<g id="edge2" class="edge">
<title>Node1&#45;&gt;Node3</title>
<path fill="none" stroke="#63b8ff" d="M186.83,-93.96C171.94,-95.79 155.46,-97.82 140.06,-99.71"/>
<polygon fill="#63b8ff" stroke="#63b8ff" points="186.86,-97.36 196.36,-92.67 186,-90.42 186.86,-97.36"/>
</g>
<!-- Node4 -->
<g id="node4" class="node">
<title>Node4</title>
<g id="a_node4"><a xlink:href="classv8_1_1PersistentValueVector.html#a773384c8da374c10ce437a391c662189" target="_top" xlink:title=" ">
<polygon fill="white" stroke="#666666" points="155.12,-79.5 6.38,-79.5 6.38,-60.25 155.12,-60.25 155.12,-79.5"/>
<text text-anchor="middle" x="80.75" y="-66" font-family="Helvetica,sans-Serif" font-size="10.00">v8::PersistentValueVector::Get</text>
</a>
</g>
</g>
<!-- Node1&#45;&gt;Node4 -->
<g id="edge3" class="edge">
<title>Node1&#45;&gt;Node4</title>
<path fill="none" stroke="#63b8ff" d="M186.48,-82.07C176.56,-80.91 165.93,-79.67 155.4,-78.45"/>
<polygon fill="#63b8ff" stroke="#63b8ff" points="186.02,-85.65 196.36,-83.33 186.83,-78.7 186.02,-85.65"/>
</g>
<!-- Node5 -->
<g id="node5" class="node">
<title>Node5</title>
<g id="a_node5"><a xlink:href="classv8_1_1PersistentValueMapBase_1_1PersistentValueReference.html#aab9ed032c017149867c0f2cef2df89fd" target="_top" xlink:title=" ">
<polygon fill="white" stroke="#666666" points="151.38,-41.75 10.12,-41.75 10.12,0 151.38,0 151.38,-41.75"/>
<text text-anchor="start" x="18.12" y="-28.25" font-family="Helvetica,sans-Serif" font-size="10.00">v8::PersistentValueMapBase</text>
<text text-anchor="start" x="18.12" y="-17" font-family="Helvetica,sans-Serif" font-size="10.00">::PersistentValueReference</text>
<text text-anchor="middle" x="80.75" y="-5.75" font-family="Helvetica,sans-Serif" font-size="10.00">::NewLocal</text>
</a>
</g>
</g>
<!-- Node1&#45;&gt;Node5 -->
<g id="edge4" class="edge">
<title>Node1&#45;&gt;Node5</title>
<path fill="none" stroke="#63b8ff" d="M207.77,-72.91C193.95,-65.89 177.02,-57.61 161.5,-50.88 154.71,-47.93 147.54,-44.99 140.38,-42.17"/>
<polygon fill="#63b8ff" stroke="#63b8ff" points="205.73,-76.31 216.23,-77.76 208.93,-70.08 205.73,-76.31"/>
</g>
</g>
</svg>
