<?xml version="1.0" encoding="UTF-8" standalone="no"?>
<!DOCTYPE svg PUBLIC "-//W3C//DTD SVG 1.1//EN"
 "http://www.w3.org/Graphics/SVG/1.1/DTD/svg11.dtd">
<!-- Generated by graphviz version 8.0.5 (20230430.1635)
 -->
<!-- Title: include/cppgc/source&#45;location.h Pages: 1 -->
<svg width="975pt" height="603pt"
 viewBox="0.00 0.00 975.25 603.25" xmlns="http://www.w3.org/2000/svg" xmlns:xlink="http://www.w3.org/1999/xlink">
<g id="graph0" class="graph" transform="scale(1 1) rotate(0) translate(4 599.25)">
<title>include/cppgc/source&#45;location.h</title>
<!-- Node1 -->
<g id="node1" class="node">
<title>Node1</title>
<g id="a_node1"><a xlink:title=" ">
<polygon fill="#999999" stroke="#666666" points="534.38,-595.25 426.12,-595.25 426.12,-564.75 534.38,-564.75 534.38,-595.25"/>
<text text-anchor="start" x="434.12" y="-581.75" font-family="Helvetica,sans-Serif" font-size="10.00">include/cppgc/source</text>
<text text-anchor="middle" x="480.25" y="-570.5" font-family="Helvetica,sans-Serif" font-size="10.00">&#45;location.h</text>
</a>
</g>
</g>
<!-- Node2 -->
<g id="node2" class="node">
<title>Node2</title>
<g id="a_node2"><a xlink:href="logging_8h.html" target="_top" xlink:title=" ">
<polygon fill="white" stroke="#666666" points="339.5,-218.75 229,-218.75 229,-188.25 339.5,-188.25 339.5,-218.75"/>
<text text-anchor="start" x="237" y="-205.25" font-family="Helvetica,sans-Serif" font-size="10.00">include/cppgc/internal</text>
<text text-anchor="middle" x="284.25" y="-194" font-family="Helvetica,sans-Serif" font-size="10.00">/logging.h</text>
</a>
</g>
</g>
<!-- Node1&#45;&gt;Node2 -->
<g id="edge1" class="edge">
<title>Node1&#45;&gt;Node2</title>
<path fill="none" stroke="#63b8ff" d="M415.29,-572.78C381.79,-566.51 342.39,-553.93 315.25,-528.75 290.96,-506.21 288.25,-492.39 288.25,-459.25 288.25,-459.25 288.25,-459.25 288.25,-329.88 288.25,-289.8 286.18,-242.57 285.02,-219.16"/>
<polygon fill="#63b8ff" stroke="#63b8ff" points="414.48,-576.37 424.93,-574.61 415.67,-569.47 414.48,-576.37"/>
</g>
<!-- Node7 -->
<g id="node7" class="node">
<title>Node7</title>
<g id="a_node7"><a xlink:href="persistent_8h.html" target="_top" xlink:title=" ">
<polygon fill="white" stroke="#666666" points="507.88,-85.75 378.62,-85.75 378.62,-66.5 507.88,-66.5 507.88,-85.75"/>
<text text-anchor="middle" x="443.25" y="-72.25" font-family="Helvetica,sans-Serif" font-size="10.00">include/cppgc/persistent.h</text>
</a>
</g>
</g>
<!-- Node1&#45;&gt;Node7 -->
<g id="edge24" class="edge">
<title>Node1&#45;&gt;Node7</title>
<path fill="none" stroke="#63b8ff" d="M424,-560.21C381.08,-541.91 329.25,-509.43 329.25,-459.25 329.25,-459.25 329.25,-459.25 329.25,-329.88 329.25,-225.9 410.41,-117.45 435.77,-86.09"/>
<polygon fill="#63b8ff" stroke="#63b8ff" points="422.54,-563.81 433.12,-564.34 425.19,-557.33 422.54,-563.81"/>
</g>
<!-- Node8 -->
<g id="node8" class="node">
<title>Node8</title>
<g id="a_node8"><a xlink:href="visitor_8h.html" target="_top" xlink:title=" ">
<polygon fill="white" stroke="#666666" points="725.62,-146.62 612.88,-146.62 612.88,-127.38 725.62,-127.38 725.62,-146.62"/>
<text text-anchor="middle" x="669.25" y="-133.12" font-family="Helvetica,sans-Serif" font-size="10.00">include/cppgc/visitor.h</text>
</a>
</g>
</g>
<!-- Node1&#45;&gt;Node8 -->
<g id="edge35" class="edge">
<title>Node1&#45;&gt;Node8</title>
<path fill="none" stroke="#63b8ff" d="M545.51,-576.54C678.26,-569.75 967.25,-545.1 967.25,-459.25 967.25,-459.25 967.25,-459.25 967.25,-329.88 967.25,-254.82 936.47,-231.68 875.25,-188.25 831.26,-157.05 770.16,-145.1 725.93,-140.59"/>
<polygon fill="#63b8ff" stroke="#63b8ff" points="545.51,-573.08 535.7,-577.07 545.86,-580.07 545.51,-573.08"/>
</g>
<!-- Node10 -->
<g id="node10" class="node">
<title>Node10</title>
<g id="a_node10"><a xlink:href="pointer-policies_8h.html" target="_top" xlink:title=" ">
<polygon fill="white" stroke="#666666" points="825.5,-407 715,-407 715,-376.5 825.5,-376.5 825.5,-407"/>
<text text-anchor="start" x="723" y="-393.5" font-family="Helvetica,sans-Serif" font-size="10.00">include/cppgc/internal</text>
<text text-anchor="middle" x="770.25" y="-382.25" font-family="Helvetica,sans-Serif" font-size="10.00">/pointer&#45;policies.h</text>
</a>
</g>
</g>
<!-- Node1&#45;&gt;Node10 -->
<g id="edge12" class="edge">
<title>Node1&#45;&gt;Node10</title>
<path fill="none" stroke="#63b8ff" d="M545.25,-571.6C607.94,-560.93 700.82,-535.15 753.25,-473.5 769.12,-454.84 771.37,-425.08 771.12,-407.37"/>
<polygon fill="#63b8ff" stroke="#63b8ff" points="545,-568.26 535.69,-573.31 546.12,-575.17 545,-568.26"/>
</g>
<!-- Node15 -->
<g id="node15" class="node">
<title>Node15</title>
<g id="a_node15"><a xlink:href="platform_8h.html" target="_top" xlink:title=" ">
<polygon fill="white" stroke="#666666" points="541.12,-528.75 419.38,-528.75 419.38,-509.5 541.12,-509.5 541.12,-528.75"/>
<text text-anchor="middle" x="480.25" y="-515.25" font-family="Helvetica,sans-Serif" font-size="10.00">include/cppgc/platform.h</text>
</a>
</g>
</g>
<!-- Node1&#45;&gt;Node15 -->
<g id="edge25" class="edge">
<title>Node1&#45;&gt;Node15</title>
<path fill="none" stroke="#63b8ff" d="M480.25,-553.57C480.25,-544.89 480.25,-535.73 480.25,-529.2"/>
<polygon fill="#63b8ff" stroke="#63b8ff" points="476.75,-553.45 480.25,-563.45 483.75,-553.45 476.75,-553.45"/>
</g>
<!-- Node3 -->
<g id="node3" class="node">
<title>Node3</title>
<g id="a_node3"><a xlink:href="explicit-management_8h.html" target="_top" xlink:title=" ">
<polygon fill="white" stroke="#666666" points="237.75,-152.25 128.75,-152.25 128.75,-121.75 237.75,-121.75 237.75,-152.25"/>
<text text-anchor="start" x="136.75" y="-138.75" font-family="Helvetica,sans-Serif" font-size="10.00">include/cppgc/explicit</text>
<text text-anchor="middle" x="183.25" y="-127.5" font-family="Helvetica,sans-Serif" font-size="10.00">&#45;management.h</text>
</a>
</g>
</g>
<!-- Node2&#45;&gt;Node3 -->
<g id="edge2" class="edge">
<title>Node2&#45;&gt;Node3</title>
<path fill="none" stroke="#63b8ff" d="M252.36,-182.14C237.33,-172.54 219.75,-161.31 206.08,-152.58"/>
<polygon fill="#63b8ff" stroke="#63b8ff" points="250.02,-185.43 260.33,-187.86 253.79,-179.53 250.02,-185.43"/>
</g>
<!-- Node4 -->
<g id="node4" class="node">
<title>Node4</title>
<g id="a_node4"><a xlink:href="caged-heap-local-data_8h.html" target="_top" xlink:title=" ">
<polygon fill="white" stroke="#666666" points="377.12,-152.25 255.38,-152.25 255.38,-121.75 377.12,-121.75 377.12,-152.25"/>
<text text-anchor="start" x="263.38" y="-138.75" font-family="Helvetica,sans-Serif" font-size="10.00">include/cppgc/internal</text>
<text text-anchor="middle" x="316.25" y="-127.5" font-family="Helvetica,sans-Serif" font-size="10.00">/caged&#45;heap&#45;local&#45;data.h</text>
</a>
</g>
</g>
<!-- Node2&#45;&gt;Node4 -->
<g id="edge3" class="edge">
<title>Node2&#45;&gt;Node4</title>
<path fill="none" stroke="#63b8ff" d="M296.28,-178.26C300.56,-169.62 305.26,-160.16 309.02,-152.58"/>
<polygon fill="#63b8ff" stroke="#63b8ff" points="292.82,-176.35 291.51,-186.86 299.09,-179.46 292.82,-176.35"/>
</g>
<!-- Node5 -->
<g id="node5" class="node">
<title>Node5</title>
<g id="a_node5"><a xlink:href="persistent-node_8h.html" target="_top" xlink:title=" ">
<polygon fill="white" stroke="#666666" points="110.5,-152.25 0,-152.25 0,-121.75 110.5,-121.75 110.5,-152.25"/>
<text text-anchor="start" x="8" y="-138.75" font-family="Helvetica,sans-Serif" font-size="10.00">include/cppgc/internal</text>
<text text-anchor="middle" x="55.25" y="-127.5" font-family="Helvetica,sans-Serif" font-size="10.00">/persistent&#45;node.h</text>
</a>
</g>
</g>
<!-- Node2&#45;&gt;Node5 -->
<g id="edge4" class="edge">
<title>Node2&#45;&gt;Node5</title>
<path fill="none" stroke="#63b8ff" d="M221.64,-184.87C185.75,-174.76 141.23,-162.22 107.28,-152.65"/>
<polygon fill="#63b8ff" stroke="#63b8ff" points="220.43,-188.44 231,-187.78 222.32,-181.7 220.43,-188.44"/>
</g>
<!-- Node2&#45;&gt;Node8 -->
<g id="edge8" class="edge">
<title>Node2&#45;&gt;Node8</title>
<path fill="none" stroke="#63b8ff" d="M350.51,-191.4C425.28,-178.87 545.49,-158.73 614.94,-147.1"/>
<polygon fill="#63b8ff" stroke="#63b8ff" points="350.11,-188.09 340.82,-193.19 351.26,-194.99 350.11,-188.09"/>
</g>
<!-- Node6 -->
<g id="node6" class="node">
<title>Node6</title>
<g id="a_node6"><a xlink:href="cross-thread-persistent_8h.html" target="_top" xlink:title=" ">
<polygon fill="white" stroke="#666666" points="554.75,-30.5 451.75,-30.5 451.75,0 554.75,0 554.75,-30.5"/>
<text text-anchor="start" x="459.75" y="-17" font-family="Helvetica,sans-Serif" font-size="10.00">include/cppgc/cross</text>
<text text-anchor="middle" x="503.25" y="-5.75" font-family="Helvetica,sans-Serif" font-size="10.00">&#45;thread&#45;persistent.h</text>
</a>
</g>
</g>
<!-- Node5&#45;&gt;Node6 -->
<g id="edge5" class="edge">
<title>Node5&#45;&gt;Node6</title>
<path fill="none" stroke="#63b8ff" d="M120.76,-118.49C210.39,-94.53 369.45,-52.02 451.34,-30.13"/>
<polygon fill="#63b8ff" stroke="#63b8ff" points="119.94,-115.35 111.18,-121.32 121.75,-122.12 119.94,-115.35"/>
</g>
<!-- Node5&#45;&gt;Node7 -->
<g id="edge6" class="edge">
<title>Node5&#45;&gt;Node7</title>
<path fill="none" stroke="#63b8ff" d="M121.32,-121.46C215.99,-104.73 314.92,-92.02 378.15,-84.5"/>
<polygon fill="#63b8ff" stroke="#63b8ff" points="120.93,-118.16 111.7,-123.36 122.16,-125.05 120.93,-118.16"/>
</g>
<!-- Node7&#45;&gt;Node6 -->
<g id="edge7" class="edge">
<title>Node7&#45;&gt;Node6</title>
<path fill="none" stroke="#63b8ff" d="M460.17,-58.52C469.07,-49.79 479.88,-39.18 488.44,-30.78"/>
<polygon fill="#63b8ff" stroke="#63b8ff" points="458.05,-55.68 453.36,-65.18 462.95,-60.68 458.05,-55.68"/>
</g>
<!-- Node8&#45;&gt;Node6 -->
<g id="edge9" class="edge">
<title>Node8&#45;&gt;Node6</title>
<path fill="none" stroke="#63b8ff" d="M648.14,-120.77C615.96,-97.56 555.05,-53.62 523.44,-30.81"/>
<polygon fill="#63b8ff" stroke="#63b8ff" points="645.62,-123.99 655.77,-127 649.71,-118.31 645.62,-123.99"/>
</g>
<!-- Node8&#45;&gt;Node7 -->
<g id="edge10" class="edge">
<title>Node8&#45;&gt;Node7</title>
<path fill="none" stroke="#63b8ff" d="M623.98,-124.21C580.99,-113.01 517.27,-96.41 478.11,-86.21"/>
<polygon fill="#63b8ff" stroke="#63b8ff" points="622.87,-127.8 633.43,-126.93 624.64,-121.02 622.87,-127.8"/>
</g>
<!-- Node9 -->
<g id="node9" class="node">
<title>Node9</title>
<g id="a_node9"><a xlink:href="v8-cppgc_8h.html" target="_top" xlink:title=" ">
<polygon fill="white" stroke="#666666" points="717.75,-85.75 620.75,-85.75 620.75,-66.5 717.75,-66.5 717.75,-85.75"/>
<text text-anchor="middle" x="669.25" y="-72.25" font-family="Helvetica,sans-Serif" font-size="10.00">include/v8&#45;cppgc.h</text>
</a>
</g>
</g>
<!-- Node8&#45;&gt;Node9 -->
<g id="edge11" class="edge">
<title>Node8&#45;&gt;Node9</title>
<path fill="none" stroke="#63b8ff" d="M669.25,-116.24C669.25,-106.06 669.25,-94.13 669.25,-86.15"/>
<polygon fill="#63b8ff" stroke="#63b8ff" points="665.75,-116.06 669.25,-126.06 672.75,-116.06 665.75,-116.06"/>
</g>
<!-- Node10&#45;&gt;Node6 -->
<g id="edge13" class="edge">
<title>Node10&#45;&gt;Node6</title>
<path fill="none" stroke="#63b8ff" d="M813.74,-371.27C828.22,-363.26 843.61,-352.92 855.25,-340.5 901.92,-290.7 908.13,-248.05 875.25,-188.25 834.05,-113.31 803.13,-103.96 726.25,-66.5 671.31,-39.73 601.77,-26.98 555.08,-21.08"/>
<polygon fill="#63b8ff" stroke="#63b8ff" points="812.61,-368.43 805.4,-376.19 815.88,-374.62 812.61,-368.43"/>
</g>
<!-- Node10&#45;&gt;Node7 -->
<g id="edge22" class="edge">
<title>Node10&#45;&gt;Node7</title>
<path fill="none" stroke="#63b8ff" d="M703.87,-389.47C658.71,-385.38 599.98,-373.39 559.25,-340.5 526.38,-313.96 536.81,-292.7 518.25,-254.75 510.39,-238.68 507.6,-235.06 500.25,-218.75 478.05,-169.45 455.03,-108.79 446.6,-86.18"/>
<polygon fill="#63b8ff" stroke="#63b8ff" points="703.5,-393.03 713.75,-390.32 704.05,-386.05 703.5,-393.03"/>
</g>
<!-- Node10&#45;&gt;Node8 -->
<g id="edge23" class="edge">
<title>Node10&#45;&gt;Node8</title>
<path fill="none" stroke="#63b8ff" d="M807.13,-369.91C817.85,-362.06 828.48,-352.16 835.25,-340.5 869.42,-281.61 893.53,-242.4 852.25,-188.25 836.87,-168.08 773.77,-153.99 725.93,-145.97"/>
<polygon fill="#63b8ff" stroke="#63b8ff" points="805.47,-367.49 799.19,-376.02 809.42,-373.27 805.47,-367.49"/>
</g>
<!-- Node11 -->
<g id="node11" class="node">
<title>Node11</title>
<g id="a_node11"><a xlink:href="member_8h.html" target="_top" xlink:title=" ">
<polygon fill="white" stroke="#666666" points="826.12,-340.5 704.38,-340.5 704.38,-321.25 826.12,-321.25 826.12,-340.5"/>
<text text-anchor="middle" x="765.25" y="-327" font-family="Helvetica,sans-Serif" font-size="10.00">include/cppgc/member.h</text>
</a>
</g>
</g>
<!-- Node10&#45;&gt;Node11 -->
<g id="edge14" class="edge">
<title>Node10&#45;&gt;Node11</title>
<path fill="none" stroke="#63b8ff" d="M768.09,-365.32C767.35,-356.64 766.58,-347.48 766.02,-340.95"/>
<polygon fill="#63b8ff" stroke="#63b8ff" points="764.68,-365.53 769.01,-375.2 771.66,-364.94 764.68,-365.53"/>
</g>
<!-- Node11&#45;&gt;Node8 -->
<g id="edge21" class="edge">
<title>Node11&#45;&gt;Node8</title>
<path fill="none" stroke="#63b8ff" d="M783.79,-313.71C813.05,-286.22 863.66,-229.37 833.25,-188.25 808.82,-155.21 763.07,-143.19 726.09,-139.13"/>
<polygon fill="#63b8ff" stroke="#63b8ff" points="781.88,-310.63 776.84,-319.95 786.59,-315.8 781.88,-310.63"/>
</g>
<!-- Node12 -->
<g id="node12" class="node">
<title>Node12</title>
<g id="a_node12"><a xlink:href="ephemeron-pair_8h.html" target="_top" xlink:title=" ">
<polygon fill="white" stroke="#666666" points="824.75,-218.75 697.75,-218.75 697.75,-188.25 824.75,-188.25 824.75,-218.75"/>
<text text-anchor="start" x="705.75" y="-205.25" font-family="Helvetica,sans-Serif" font-size="10.00">include/cppgc/ephemeron</text>
<text text-anchor="middle" x="761.25" y="-194" font-family="Helvetica,sans-Serif" font-size="10.00">&#45;pair.h</text>
</a>
</g>
</g>
<!-- Node11&#45;&gt;Node12 -->
<g id="edge15" class="edge">
<title>Node11&#45;&gt;Node12</title>
<path fill="none" stroke="#63b8ff" d="M764.62,-310.04C763.81,-284.72 762.43,-241.52 761.71,-219.05"/>
<polygon fill="#63b8ff" stroke="#63b8ff" points="761.15,-309.98 764.96,-319.86 768.14,-309.75 761.15,-309.98"/>
</g>
<!-- Node13 -->
<g id="node13" class="node">
<title>Node13</title>
<g id="a_node13"><a xlink:href="liveness-broker_8h.html" target="_top" xlink:title=" ">
<polygon fill="white" stroke="#666666" points="726.75,-285.25 611.75,-285.25 611.75,-254.75 726.75,-254.75 726.75,-285.25"/>
<text text-anchor="start" x="619.75" y="-271.75" font-family="Helvetica,sans-Serif" font-size="10.00">include/cppgc/liveness</text>
<text text-anchor="middle" x="669.25" y="-260.5" font-family="Helvetica,sans-Serif" font-size="10.00">&#45;broker.h</text>
</a>
</g>
</g>
<!-- Node11&#45;&gt;Node13 -->
<g id="edge17" class="edge">
<title>Node11&#45;&gt;Node13</title>
<path fill="none" stroke="#63b8ff" d="M741.63,-315.39C726.81,-306.3 707.78,-294.63 692.95,-285.53"/>
<polygon fill="#63b8ff" stroke="#63b8ff" points="739.32,-318.69 749.67,-320.93 742.97,-312.72 739.32,-318.69"/>
</g>
<!-- Node12&#45;&gt;Node8 -->
<g id="edge16" class="edge">
<title>Node12&#45;&gt;Node8</title>
<path fill="none" stroke="#63b8ff" d="M731.5,-181.65C714.81,-169.94 694.84,-155.94 682.1,-147.01"/>
<polygon fill="#63b8ff" stroke="#63b8ff" points="729.18,-184.99 739.37,-187.86 733.19,-179.26 729.18,-184.99"/>
</g>
<!-- Node13&#45;&gt;Node8 -->
<g id="edge20" class="edge">
<title>Node13&#45;&gt;Node8</title>
<path fill="none" stroke="#63b8ff" d="M669.25,-243.77C669.25,-214.23 669.25,-166.85 669.25,-147.1"/>
<polygon fill="#63b8ff" stroke="#63b8ff" points="665.75,-243.48 669.25,-253.48 672.75,-243.48 665.75,-243.48"/>
</g>
<!-- Node13&#45;&gt;Node12 -->
<g id="edge18" class="edge">
<title>Node13&#45;&gt;Node12</title>
<path fill="none" stroke="#63b8ff" d="M699.07,-248.09C712.59,-238.62 728.24,-227.64 740.46,-219.08"/>
<polygon fill="#63b8ff" stroke="#63b8ff" points="697.31,-245.76 691.13,-254.36 701.32,-251.49 697.31,-245.76"/>
</g>
<!-- Node14 -->
<g id="node14" class="node">
<title>Node14</title>
<g id="a_node14"><a xlink:href="prefinalizer_8h.html" target="_top" xlink:title=" ">
<polygon fill="white" stroke="#666666" points="641.38,-213.12 509.12,-213.12 509.12,-193.88 641.38,-193.88 641.38,-213.12"/>
<text text-anchor="middle" x="575.25" y="-199.62" font-family="Helvetica,sans-Serif" font-size="10.00">include/cppgc/prefinalizer.h</text>
</a>
</g>
</g>
<!-- Node13&#45;&gt;Node14 -->
<g id="edge19" class="edge">
<title>Node13&#45;&gt;Node14</title>
<path fill="none" stroke="#63b8ff" d="M638.86,-248.15C621.8,-236.44 601.4,-222.44 588.38,-213.51"/>
<polygon fill="#63b8ff" stroke="#63b8ff" points="636.69,-251.59 646.92,-254.36 640.65,-245.82 636.69,-251.59"/>
</g>
<!-- Node15&#45;&gt;Node4 -->
<g id="edge31" class="edge">
<title>Node15&#45;&gt;Node4</title>
<path fill="none" stroke="#63b8ff" d="M453.33,-503.73C419.9,-483.67 367.25,-443.96 367.25,-392.75 367.25,-392.75 367.25,-392.75 367.25,-269 367.25,-232.13 362.58,-222.22 348.25,-188.25 342.86,-175.48 334.35,-162.31 327.46,-152.66"/>
<polygon fill="#63b8ff" stroke="#63b8ff" points="451.18,-507.11 461.59,-509.08 454.69,-501.05 451.18,-507.11"/>
</g>
<!-- Node16 -->
<g id="node16" class="node">
<title>Node16</title>
<g id="a_node16"><a xlink:href="default-platform_8h.html" target="_top" xlink:title=" ">
<polygon fill="white" stroke="#666666" points="744.38,-473.5 636.12,-473.5 636.12,-443 744.38,-443 744.38,-473.5"/>
<text text-anchor="start" x="644.12" y="-460" font-family="Helvetica,sans-Serif" font-size="10.00">include/cppgc/default</text>
<text text-anchor="middle" x="690.25" y="-448.75" font-family="Helvetica,sans-Serif" font-size="10.00">&#45;platform.h</text>
</a>
</g>
</g>
<!-- Node15&#45;&gt;Node16 -->
<g id="edge26" class="edge">
<title>Node15&#45;&gt;Node16</title>
<path fill="none" stroke="#63b8ff" d="M522.9,-506.17C556.11,-496.86 602.37,-483.89 637.84,-473.94"/>
<polygon fill="#63b8ff" stroke="#63b8ff" points="522.29,-502.99 513.6,-509.05 524.18,-509.73 522.29,-502.99"/>
</g>
<!-- Node17 -->
<g id="node17" class="node">
<title>Node17</title>
<g id="a_node17"><a xlink:href="garbage-collected_8h.html" target="_top" xlink:title=" ">
<polygon fill="white" stroke="#666666" points="509,-285.25 395.5,-285.25 395.5,-254.75 509,-254.75 509,-285.25"/>
<text text-anchor="start" x="403.5" y="-271.75" font-family="Helvetica,sans-Serif" font-size="10.00">include/cppgc/garbage</text>
<text text-anchor="middle" x="452.25" y="-260.5" font-family="Helvetica,sans-Serif" font-size="10.00">&#45;collected.h</text>
</a>
</g>
</g>
<!-- Node15&#45;&gt;Node17 -->
<g id="edge27" class="edge">
<title>Node15&#45;&gt;Node17</title>
<path fill="none" stroke="#63b8ff" d="M476.97,-498.66C475.71,-490.85 474.33,-481.76 473.25,-473.5 464.08,-403.05 456.36,-318.39 453.47,-285.27"/>
<polygon fill="#63b8ff" stroke="#63b8ff" points="473.64,-498.96 478.72,-508.25 480.54,-497.82 473.64,-498.96"/>
</g>
<!-- Node18 -->
<g id="node18" class="node">
<title>Node18</title>
<g id="a_node18"><a xlink:href="heap_8h.html" target="_top" xlink:title=" ">
<polygon fill="white" stroke="#666666" points="676,-340.5 568.5,-340.5 568.5,-321.25 676,-321.25 676,-340.5"/>
<text text-anchor="middle" x="622.25" y="-327" font-family="Helvetica,sans-Serif" font-size="10.00">include/cppgc/heap.h</text>
</a>
</g>
</g>
<!-- Node15&#45;&gt;Node18 -->
<g id="edge29" class="edge">
<title>Node15&#45;&gt;Node18</title>
<path fill="none" stroke="#63b8ff" d="M477.91,-498.65C475.45,-468.85 475.28,-411.7 504.25,-376.5 520.12,-357.22 545.25,-346.26 568.25,-340.04"/>
<polygon fill="#63b8ff" stroke="#63b8ff" points="474.5,-498.68 478.99,-508.28 481.46,-497.98 474.5,-498.68"/>
</g>
<!-- Node19 -->
<g id="node19" class="node">
<title>Node19</title>
<g id="a_node19"><a xlink:href="write-barrier_8h.html" target="_top" xlink:title=" ">
<polygon fill="white" stroke="#666666" points="618.5,-473.5 508,-473.5 508,-443 618.5,-443 618.5,-473.5"/>
<text text-anchor="start" x="516" y="-460" font-family="Helvetica,sans-Serif" font-size="10.00">include/cppgc/internal</text>
<text text-anchor="middle" x="563.25" y="-448.75" font-family="Helvetica,sans-Serif" font-size="10.00">/write&#45;barrier.h</text>
</a>
</g>
</g>
<!-- Node15&#45;&gt;Node19 -->
<g id="edge32" class="edge">
<title>Node15&#45;&gt;Node19</title>
<path fill="none" stroke="#63b8ff" d="M501.78,-502.85C514.42,-493.89 530.31,-482.62 542.76,-473.78"/>
<polygon fill="#63b8ff" stroke="#63b8ff" points="499.99,-500.54 493.86,-509.18 504.04,-506.25 499.99,-500.54"/>
</g>
<!-- Node17&#45;&gt;Node8 -->
<g id="edge28" class="edge">
<title>Node17&#45;&gt;Node8</title>
<path fill="none" stroke="#63b8ff" d="M461.14,-244.42C468.86,-226.41 481.73,-202.68 500.25,-188.25 532.61,-163.05 577.4,-150.46 612.73,-144.19"/>
<polygon fill="#63b8ff" stroke="#63b8ff" points="457.57,-242.92 457.1,-253.51 464.07,-245.53 457.57,-242.92"/>
</g>
<!-- Node18&#45;&gt;Node13 -->
<g id="edge30" class="edge">
<title>Node18&#45;&gt;Node13</title>
<path fill="none" stroke="#63b8ff" d="M636.16,-312.45C643,-303.88 651.15,-293.67 657.65,-285.53"/>
<polygon fill="#63b8ff" stroke="#63b8ff" points="632.89,-309.93 629.39,-319.93 638.36,-314.3 632.89,-309.93"/>
</g>
<!-- Node19&#45;&gt;Node10 -->
<g id="edge34" class="edge">
<title>Node19&#45;&gt;Node10</title>
<path fill="none" stroke="#63b8ff" d="M620.68,-439.35C652.98,-429.29 692.79,-416.89 723.22,-407.4"/>
<polygon fill="#63b8ff" stroke="#63b8ff" points="619.99,-436.22 611.48,-442.53 622.07,-442.9 619.99,-436.22"/>
</g>
<!-- Node20 -->
<g id="node20" class="node">
<title>Node20</title>
<g id="a_node20"><a xlink:href="heap-consistency_8h.html" target="_top" xlink:title=" ">
<polygon fill="white" stroke="#666666" points="613.25,-407 513.25,-407 513.25,-376.5 613.25,-376.5 613.25,-407"/>
<text text-anchor="start" x="521.25" y="-393.5" font-family="Helvetica,sans-Serif" font-size="10.00">include/cppgc/heap</text>
<text text-anchor="middle" x="563.25" y="-382.25" font-family="Helvetica,sans-Serif" font-size="10.00">&#45;consistency.h</text>
</a>
</g>
</g>
<!-- Node19&#45;&gt;Node20 -->
<g id="edge33" class="edge">
<title>Node19&#45;&gt;Node20</title>
<path fill="none" stroke="#63b8ff" d="M563.25,-431.88C563.25,-423.55 563.25,-414.58 563.25,-407.33"/>
<polygon fill="#63b8ff" stroke="#63b8ff" points="559.75,-431.61 563.25,-441.61 566.75,-431.61 559.75,-431.61"/>
</g>
</g>
</svg>
