<?xml version="1.0" encoding="UTF-8" standalone="no"?>
<!DOCTYPE svg PUBLIC "-//W3C//DTD SVG 1.1//EN"
 "http://www.w3.org/Graphics/SVG/1.1/DTD/svg11.dtd">
<!-- Generated by graphviz version 8.0.5 (20230430.1635)
 -->
<!-- Title: v8::String::GetExternalStringResourceBase Pages: 1 -->
<svg width="486pt" height="88pt"
 viewBox="0.00 0.00 485.75 87.50" xmlns="http://www.w3.org/2000/svg" xmlns:xlink="http://www.w3.org/1999/xlink">
<g id="graph0" class="graph" transform="scale(1 1) rotate(0) translate(4 83.5)">
<title>v8::String::GetExternalStringResourceBase</title>
<!-- Node1 -->
<g id="node1" class="node">
<title>Node1</title>
<g id="a_node1"><a xlink:title=" ">
<polygon fill="#999999" stroke="#666666" points="136.75,-54.5 0,-54.5 0,-24 136.75,-24 136.75,-54.5"/>
<text text-anchor="start" x="8" y="-41" font-family="Helvetica,sans-Serif" font-size="10.00">v8::String::GetExternalString</text>
<text text-anchor="middle" x="68.38" y="-29.75" font-family="Helvetica,sans-Serif" font-size="10.00">ResourceBase</text>
</a>
</g>
</g>
<!-- Node2 -->
<g id="node2" class="node">
<title>Node2</title>
<g id="a_node2"><a xlink:href="classv8_1_1internal_1_1Internals.html#ae95f365b5824fd38805fe2b456efdd04" target="_top" xlink:title=" ">
<polygon fill="white" stroke="#666666" points="321.5,-79.5 172.75,-79.5 172.75,-49 321.5,-49 321.5,-79.5"/>
<text text-anchor="start" x="180.75" y="-66" font-family="Helvetica,sans-Serif" font-size="10.00">v8::internal::Internals</text>
<text text-anchor="middle" x="247.12" y="-54.75" font-family="Helvetica,sans-Serif" font-size="10.00">::GetCurrentIsolateForSandbox</text>
</a>
</g>
</g>
<!-- Node1&#45;&gt;Node2 -->
<g id="edge1" class="edge">
<title>Node1&#45;&gt;Node2</title>
<path fill="none" stroke="#63b8ff" d="M137.21,-48.84C145.19,-49.97 153.42,-51.14 161.6,-52.29"/>
<polygon fill="#63b8ff" stroke="#63b8ff" points="160.91,-55.87 171.3,-53.81 161.89,-48.94 160.91,-55.87"/>
</g>
<!-- Node3 -->
<g id="node3" class="node">
<title>Node3</title>
<g id="a_node3"><a xlink:href="classv8_1_1String.html#a2dd45192ea4d73748dda6127fbe6f231" target="_top" xlink:title=" ">
<polygon fill="white" stroke="#666666" points="315.5,-30.5 178.75,-30.5 178.75,0 315.5,0 315.5,-30.5"/>
<text text-anchor="start" x="186.75" y="-17" font-family="Helvetica,sans-Serif" font-size="10.00">v8::String::GetExternalString</text>
<text text-anchor="middle" x="247.12" y="-5.75" font-family="Helvetica,sans-Serif" font-size="10.00">ResourceBase</text>
</a>
</g>
</g>
<!-- Node1&#45;&gt;Node3 -->
<g id="edge2" class="edge">
<title>Node1&#45;&gt;Node3</title>
<path fill="none" stroke="#63b8ff" d="M137.21,-30.04C147.14,-28.69 157.45,-27.29 167.58,-25.92"/>
<polygon fill="#63b8ff" stroke="#63b8ff" points="168.04,-29.25 177.48,-24.44 167.1,-22.31 168.04,-29.25"/>
</g>
<!-- Node4 -->
<g id="node4" class="node">
<title>Node4</title>
<g id="a_node4"><a xlink:href="classv8_1_1internal_1_1ValueHelper.html#a2032b423f5a859341b30210d1650111b" target="_top" xlink:title=" ">
<polygon fill="white" stroke="#666666" points="477.75,-30.5 357.5,-30.5 357.5,0 477.75,0 477.75,-30.5"/>
<text text-anchor="start" x="365.5" y="-17" font-family="Helvetica,sans-Serif" font-size="10.00">v8::internal::ValueHelper</text>
<text text-anchor="middle" x="417.62" y="-5.75" font-family="Helvetica,sans-Serif" font-size="10.00">::ValueAsAddress</text>
</a>
</g>
</g>
<!-- Node3&#45;&gt;Node4 -->
<g id="edge3" class="edge">
<title>Node3&#45;&gt;Node4</title>
<path fill="none" stroke="#63b8ff" d="M315.69,-15.25C325.78,-15.25 336.19,-15.25 346.33,-15.25"/>
<polygon fill="#63b8ff" stroke="#63b8ff" points="346.2,-18.75 356.2,-15.25 346.2,-11.75 346.2,-18.75"/>
</g>
</g>
</svg>
