<?xml version="1.0" encoding="UTF-8" standalone="no"?>
<!DOCTYPE svg PUBLIC "-//W3C//DTD SVG 1.1//EN"
 "http://www.w3.org/Graphics/SVG/1.1/DTD/svg11.dtd">
<!-- Generated by graphviz version 8.0.5 (20230430.1635)
 -->
<!-- Title: include/v8&#45;container.h Pages: 1 -->
<svg width="1292pt" height="525pt"
 viewBox="0.00 0.00 1292.00 524.50" xmlns="http://www.w3.org/2000/svg" xmlns:xlink="http://www.w3.org/1999/xlink">
<g id="graph0" class="graph" transform="scale(1 1) rotate(0) translate(4 520.5)">
<title>include/v8&#45;container.h</title>
<!-- Node1 -->
<g id="node1" class="node">
<title>Node1</title>
<g id="a_node1"><a xlink:title=" ">
<polygon fill="#999999" stroke="#666666" points="758.25,-516.5 647.75,-516.5 647.75,-497.25 758.25,-497.25 758.25,-516.5"/>
<text text-anchor="middle" x="703" y="-503" font-family="Helvetica,sans-Serif" font-size="10.00">include/v8&#45;container.h</text>
</a>
</g>
</g>
<!-- Node2 -->
<g id="node2" class="node">
<title>Node2</title>
<g id="a_node2"><a xlink:title=" ">
<polygon fill="#e0e0e0" stroke="#999999" points="801.25,-74.5 750.75,-74.5 750.75,-55.25 801.25,-55.25 801.25,-74.5"/>
<text text-anchor="middle" x="776" y="-61" font-family="Helvetica,sans-Serif" font-size="10.00">stddef.h</text>
</a>
</g>
</g>
<!-- Node1&#45;&gt;Node2 -->
<g id="edge1" class="edge">
<title>Node1&#45;&gt;Node2</title>
<path fill="none" stroke="#63b8ff" d="M758.49,-505.56C889.67,-503.32 1208,-488.51 1208,-397.38 1208,-397.38 1208,-397.38 1208,-284.88 1208,-141.65 1067.71,-169.04 937,-110.5 895.97,-92.13 845.62,-79.64 812.26,-72.65"/>
<polygon fill="#63b8ff" stroke="#63b8ff" points="813.13,-69.06 802.64,-70.49 811.74,-75.92 813.13,-69.06"/>
</g>
<!-- Node3 -->
<g id="node3" class="node">
<title>Node3</title>
<g id="a_node3"><a xlink:title=" ">
<polygon fill="#e0e0e0" stroke="#999999" points="1231.75,-74.5 1184.25,-74.5 1184.25,-55.25 1231.75,-55.25 1231.75,-74.5"/>
<text text-anchor="middle" x="1208" y="-61" font-family="Helvetica,sans-Serif" font-size="10.00">stdint.h</text>
</a>
</g>
</g>
<!-- Node1&#45;&gt;Node3 -->
<g id="edge2" class="edge">
<title>Node1&#45;&gt;Node3</title>
<path fill="none" stroke="#63b8ff" d="M758.56,-506.41C896.95,-506.24 1246,-496.03 1246,-397.38 1246,-397.38 1246,-397.38 1246,-174.38 1246,-141.23 1230.01,-105.43 1218.78,-84.37"/>
<polygon fill="#63b8ff" stroke="#63b8ff" points="1221.37,-82.83 1213.44,-75.79 1215.25,-86.23 1221.37,-82.83"/>
</g>
<!-- Node4 -->
<g id="node4" class="node">
<title>Node4</title>
<g id="a_node4"><a xlink:title=" ">
<polygon fill="#e0e0e0" stroke="#999999" points="704,-461.25 646,-461.25 646,-442 704,-442 704,-461.25"/>
<text text-anchor="middle" x="675" y="-447.75" font-family="Helvetica,sans-Serif" font-size="10.00">functional</text>
</a>
</g>
</g>
<!-- Node1&#45;&gt;Node4 -->
<g id="edge3" class="edge">
<title>Node1&#45;&gt;Node4</title>
<path fill="none" stroke="#63b8ff" d="M698.38,-497.08C694.67,-490.03 689.34,-479.9 684.71,-471.08"/>
<polygon fill="#63b8ff" stroke="#63b8ff" points="687.48,-469.83 679.72,-462.61 681.28,-473.09 687.48,-469.83"/>
</g>
<!-- Node5 -->
<g id="node5" class="node">
<title>Node5</title>
<g id="a_node5"><a xlink:href="v8-local-handle_8h.html" target="_top" xlink:title=" ">
<polygon fill="white" stroke="#666666" points="734.38,-240.25 645.62,-240.25 645.62,-221 734.38,-221 734.38,-240.25"/>
<text text-anchor="middle" x="690" y="-226.75" font-family="Helvetica,sans-Serif" font-size="10.00">v8&#45;local&#45;handle.h</text>
</a>
</g>
</g>
<!-- Node1&#45;&gt;Node5 -->
<g id="edge4" class="edge">
<title>Node1&#45;&gt;Node5</title>
<path fill="none" stroke="#63b8ff" d="M707.15,-496.81C715.17,-478.45 732,-435.4 732,-397.38 732,-397.38 732,-397.38 732,-340.12 732,-306.6 714.35,-270.94 701.93,-250.01"/>
<polygon fill="#63b8ff" stroke="#63b8ff" points="704.43,-248.4 696.2,-241.74 698.48,-252.08 704.43,-248.4"/>
</g>
<!-- Node14 -->
<g id="node14" class="node">
<title>Node14</title>
<g id="a_node14"><a xlink:href="v8config_8h.html" target="_top" xlink:title=" ">
<polygon fill="white" stroke="#666666" points="340.75,-74.5 281.25,-74.5 281.25,-55.25 340.75,-55.25 340.75,-74.5"/>
<text text-anchor="middle" x="311" y="-61" font-family="Helvetica,sans-Serif" font-size="10.00">v8config.h</text>
</a>
</g>
</g>
<!-- Node1&#45;&gt;Node14 -->
<g id="edge65" class="edge">
<title>Node1&#45;&gt;Node14</title>
<path fill="none" stroke="#63b8ff" d="M647.54,-503.15C481.54,-494.25 0,-462.79 0,-397.38 0,-397.38 0,-397.38 0,-174.38 0,-136.91 22.42,-128.99 55,-110.5 91.09,-90.02 207.5,-75.93 270.16,-69.62"/>
<polygon fill="#63b8ff" stroke="#63b8ff" points="270.23,-73.03 279.84,-68.57 269.54,-66.07 270.23,-73.03"/>
</g>
<!-- Node15 -->
<g id="node15" class="node">
<title>Node15</title>
<g id="a_node15"><a xlink:href="v8-object_8h.html" target="_top" xlink:title=" ">
<polygon fill="white" stroke="#666666" points="600.62,-461.25 537.38,-461.25 537.38,-442 600.62,-442 600.62,-461.25"/>
<text text-anchor="middle" x="569" y="-447.75" font-family="Helvetica,sans-Serif" font-size="10.00">v8&#45;object.h</text>
</a>
</g>
</g>
<!-- Node1&#45;&gt;Node15 -->
<g id="edge20" class="edge">
<title>Node1&#45;&gt;Node15</title>
<path fill="none" stroke="#63b8ff" d="M680.27,-496.84C658.8,-488.31 626.37,-475.42 602.05,-465.76"/>
<polygon fill="#63b8ff" stroke="#63b8ff" points="603.43,-462.14 592.84,-461.7 600.84,-468.65 603.43,-462.14"/>
</g>
<!-- Node5&#45;&gt;Node2 -->
<g id="edge5" class="edge">
<title>Node5&#45;&gt;Node2</title>
<path fill="none" stroke="#63b8ff" d="M707.02,-220.53C719.92,-212.77 737.06,-200.42 747,-185 766.93,-154.09 773.17,-110.63 775.12,-85.65"/>
<polygon fill="#63b8ff" stroke="#63b8ff" points="778.67,-85.91 775.78,-75.72 771.68,-85.49 778.67,-85.91"/>
</g>
<!-- Node6 -->
<g id="node6" class="node">
<title>Node6</title>
<g id="a_node6"><a xlink:title=" ">
<polygon fill="#e0e0e0" stroke="#999999" points="919.5,-74.5 858.5,-74.5 858.5,-55.25 919.5,-55.25 919.5,-74.5"/>
<text text-anchor="middle" x="889" y="-61" font-family="Helvetica,sans-Serif" font-size="10.00">type_traits</text>
</a>
</g>
</g>
<!-- Node5&#45;&gt;Node6 -->
<g id="edge6" class="edge">
<title>Node5&#45;&gt;Node6</title>
<path fill="none" stroke="#63b8ff" d="M707.96,-220.65C723.86,-212.34 747.37,-199.17 766,-185 808.36,-152.79 851.62,-107.37 873.81,-82.97"/>
<polygon fill="#63b8ff" stroke="#63b8ff" points="875.9,-85.77 879.99,-76 870.7,-81.09 875.9,-85.77"/>
</g>
<!-- Node7 -->
<g id="node7" class="node">
<title>Node7</title>
<g id="a_node7"><a xlink:title=" ">
<polygon fill="#e0e0e0" stroke="#999999" points="591.5,-185 548.5,-185 548.5,-165.75 591.5,-165.75 591.5,-185"/>
<text text-anchor="middle" x="570" y="-171.5" font-family="Helvetica,sans-Serif" font-size="10.00">vector</text>
</a>
</g>
</g>
<!-- Node5&#45;&gt;Node7 -->
<g id="edge7" class="edge">
<title>Node5&#45;&gt;Node7</title>
<path fill="none" stroke="#63b8ff" d="M669.64,-220.59C650.68,-212.18 622.15,-199.52 600.48,-189.9"/>
<polygon fill="#63b8ff" stroke="#63b8ff" points="602.02,-186.31 591.46,-185.45 599.18,-192.71 602.02,-186.31"/>
</g>
<!-- Node8 -->
<g id="node8" class="node">
<title>Node8</title>
<g id="a_node8"><a xlink:href="v8-handle-base_8h.html" target="_top" xlink:title=" ">
<polygon fill="white" stroke="#666666" points="737.75,-185 648.25,-185 648.25,-165.75 737.75,-165.75 737.75,-185"/>
<text text-anchor="middle" x="693" y="-171.5" font-family="Helvetica,sans-Serif" font-size="10.00">v8&#45;handle&#45;base.h</text>
</a>
</g>
</g>
<!-- Node5&#45;&gt;Node8 -->
<g id="edge8" class="edge">
<title>Node5&#45;&gt;Node8</title>
<path fill="none" stroke="#63b8ff" d="M690.5,-220.83C690.87,-214.17 691.4,-204.74 691.88,-196.28"/>
<polygon fill="#63b8ff" stroke="#63b8ff" points="695.43,-196.54 692.49,-186.36 688.44,-196.15 695.43,-196.54"/>
</g>
<!-- Node9 -->
<g id="node9" class="node">
<title>Node9</title>
<g id="a_node9"><a xlink:href="v8-internal_8h.html" target="_top" xlink:title=" ">
<polygon fill="white" stroke="#666666" points="680.25,-129.75 611.75,-129.75 611.75,-110.5 680.25,-110.5 680.25,-129.75"/>
<text text-anchor="middle" x="646" y="-116.25" font-family="Helvetica,sans-Serif" font-size="10.00">v8&#45;internal.h</text>
</a>
</g>
</g>
<!-- Node5&#45;&gt;Node9 -->
<g id="edge19" class="edge">
<title>Node5&#45;&gt;Node9</title>
<path fill="none" stroke="#63b8ff" d="M673.77,-220.65C661.69,-212.96 646.1,-200.64 639,-185 632.58,-170.86 635.22,-153.21 638.95,-140.05"/>
<polygon fill="#63b8ff" stroke="#63b8ff" points="642.51,-141.43 642.32,-130.84 635.86,-139.24 642.51,-141.43"/>
</g>
<!-- Node8&#45;&gt;Node9 -->
<g id="edge9" class="edge">
<title>Node8&#45;&gt;Node9</title>
<path fill="none" stroke="#63b8ff" d="M685.24,-165.58C678.68,-158.15 669.09,-147.29 661.04,-138.16"/>
<polygon fill="#63b8ff" stroke="#63b8ff" points="664.17,-136.29 654.93,-131.11 658.92,-140.92 664.17,-136.29"/>
</g>
<!-- Node9&#45;&gt;Node2 -->
<g id="edge10" class="edge">
<title>Node9&#45;&gt;Node2</title>
<path fill="none" stroke="#63b8ff" d="M668.05,-110.09C688.88,-101.56 720.34,-88.67 743.94,-79.01"/>
<polygon fill="#63b8ff" stroke="#63b8ff" points="744.91,-81.98 752.84,-74.95 742.26,-75.5 744.91,-81.98"/>
</g>
<!-- Node9&#45;&gt;Node3 -->
<g id="edge11" class="edge">
<title>Node9&#45;&gt;Node3</title>
<path fill="none" stroke="#63b8ff" d="M680.73,-115.83C781.32,-106.3 1072.08,-78.75 1173,-69.19"/>
<polygon fill="#63b8ff" stroke="#63b8ff" points="1173.17,-72.6 1182.8,-68.17 1172.51,-65.63 1173.17,-72.6"/>
</g>
<!-- Node9&#45;&gt;Node6 -->
<g id="edge16" class="edge">
<title>Node9&#45;&gt;Node6</title>
<path fill="none" stroke="#63b8ff" d="M680.56,-111.55C724.47,-101.93 800.2,-85.33 847.28,-75.02"/>
<polygon fill="#63b8ff" stroke="#63b8ff" points="848.01,-78.22 857.02,-72.66 846.51,-71.38 848.01,-78.22"/>
</g>
<!-- Node10 -->
<g id="node10" class="node">
<title>Node10</title>
<g id="a_node10"><a xlink:title=" ">
<polygon fill="#e0e0e0" stroke="#999999" points="604.75,-74.5 557.25,-74.5 557.25,-55.25 604.75,-55.25 604.75,-74.5"/>
<text text-anchor="middle" x="581" y="-61" font-family="Helvetica,sans-Serif" font-size="10.00">string.h</text>
</a>
</g>
</g>
<!-- Node9&#45;&gt;Node10 -->
<g id="edge12" class="edge">
<title>Node9&#45;&gt;Node10</title>
<path fill="none" stroke="#63b8ff" d="M634.97,-110.09C625.49,-102.32 611.58,-90.92 600.25,-81.65"/>
<polygon fill="#63b8ff" stroke="#63b8ff" points="602.82,-78.4 592.86,-74.77 598.38,-83.82 602.82,-78.4"/>
</g>
<!-- Node11 -->
<g id="node11" class="node">
<title>Node11</title>
<g id="a_node11"><a xlink:title=" ">
<polygon fill="#e0e0e0" stroke="#999999" points="1054.62,-74.5 1009.38,-74.5 1009.38,-55.25 1054.62,-55.25 1054.62,-74.5"/>
<text text-anchor="middle" x="1032" y="-61" font-family="Helvetica,sans-Serif" font-size="10.00">atomic</text>
</a>
</g>
</g>
<!-- Node9&#45;&gt;Node11 -->
<g id="edge13" class="edge">
<title>Node9&#45;&gt;Node11</title>
<path fill="none" stroke="#63b8ff" d="M680.59,-114.35C754.19,-104.2 925.49,-80.57 998.3,-70.52"/>
<polygon fill="#63b8ff" stroke="#63b8ff" points="998.68,-73.87 1008.1,-69.03 997.72,-66.93 998.68,-73.87"/>
</g>
<!-- Node12 -->
<g id="node12" class="node">
<title>Node12</title>
<g id="a_node12"><a xlink:title=" ">
<polygon fill="#e0e0e0" stroke="#999999" points="669,-74.5 623,-74.5 623,-55.25 669,-55.25 669,-74.5"/>
<text text-anchor="middle" x="646" y="-61" font-family="Helvetica,sans-Serif" font-size="10.00">iterator</text>
</a>
</g>
</g>
<!-- Node9&#45;&gt;Node12 -->
<g id="edge14" class="edge">
<title>Node9&#45;&gt;Node12</title>
<path fill="none" stroke="#63b8ff" d="M646,-110.33C646,-103.67 646,-94.24 646,-85.78"/>
<polygon fill="#63b8ff" stroke="#63b8ff" points="649.5,-85.86 646,-75.86 642.5,-85.86 649.5,-85.86"/>
</g>
<!-- Node13 -->
<g id="node13" class="node">
<title>Node13</title>
<g id="a_node13"><a xlink:title=" ">
<polygon fill="#e0e0e0" stroke="#999999" points="722.25,-19.25 671.75,-19.25 671.75,0 722.25,0 722.25,-19.25"/>
<text text-anchor="middle" x="697" y="-5.75" font-family="Helvetica,sans-Serif" font-size="10.00">memory</text>
</a>
</g>
</g>
<!-- Node9&#45;&gt;Node13 -->
<g id="edge15" class="edge">
<title>Node9&#45;&gt;Node13</title>
<path fill="none" stroke="#63b8ff" d="M653.84,-110.13C661,-101.5 671.46,-87.86 678,-74.5 684.94,-60.34 689.87,-43.16 692.97,-30.18"/>
<polygon fill="#63b8ff" stroke="#63b8ff" points="696.56,-31.17 695.31,-20.65 689.72,-29.66 696.56,-31.17"/>
</g>
<!-- Node9&#45;&gt;Node14 -->
<g id="edge17" class="edge">
<title>Node9&#45;&gt;Node14</title>
<path fill="none" stroke="#63b8ff" d="M611.41,-113.63C549.02,-103.71 417.96,-82.88 351.5,-72.31"/>
<polygon fill="#63b8ff" stroke="#63b8ff" points="352.44,-68.76 342.02,-70.65 351.35,-75.67 352.44,-68.76"/>
</g>
<!-- Node14&#45;&gt;Node13 -->
<g id="edge18" class="edge">
<title>Node14&#45;&gt;Node13</title>
<path fill="none" stroke="#63b8ff" d="M340.97,-59.74C410.89,-50.1 584.62,-26.13 660.53,-15.66"/>
<polygon fill="#63b8ff" stroke="#63b8ff" points="660.99,-18.99 670.42,-14.15 660.04,-12.05 660.99,-18.99"/>
</g>
<!-- Node15&#45;&gt;Node5 -->
<g id="edge22" class="edge">
<title>Node15&#45;&gt;Node5</title>
<path fill="none" stroke="#63b8ff" d="M587.73,-441.54C601.75,-433.86 620.43,-421.61 632,-406 667.87,-357.6 682.38,-285.74 687.52,-251.35"/>
<polygon fill="#63b8ff" stroke="#63b8ff" points="691.12,-251.88 689.02,-241.49 684.19,-250.92 691.12,-251.88"/>
</g>
<!-- Node15&#45;&gt;Node9 -->
<g id="edge21" class="edge">
<title>Node15&#45;&gt;Node9</title>
<path fill="none" stroke="#63b8ff" d="M576.23,-441.67C589.86,-423.86 618,-382.22 618,-342.12 618,-342.12 618,-342.12 618,-284.88 618,-255.26 617.15,-244.4 599,-221 576.78,-192.36 518.9,-195.92 539,-165.75 552.83,-145 578.33,-133.88 600.97,-127.94"/>
<polygon fill="#63b8ff" stroke="#63b8ff" points="601.51,-131.17 610.45,-125.48 599.92,-124.35 601.51,-131.17"/>
</g>
<!-- Node15&#45;&gt;Node14 -->
<g id="edge64" class="edge">
<title>Node15&#45;&gt;Node14</title>
<path fill="none" stroke="#63b8ff" d="M536.98,-450.94C422.18,-451.24 38,-444.57 38,-342.12 38,-342.12 38,-342.12 38,-174.38 38,-138.86 55.93,-129.4 86,-110.5 142.81,-74.8 222.31,-66.76 270.02,-65.44"/>
<polygon fill="#63b8ff" stroke="#63b8ff" points="269.92,-68.92 279.85,-65.24 269.79,-61.92 269.92,-68.92"/>
</g>
<!-- Node16 -->
<g id="node16" class="node">
<title>Node16</title>
<g id="a_node16"><a xlink:href="v8-maybe_8h.html" target="_top" xlink:title=" ">
<polygon fill="white" stroke="#666666" points="825.75,-295.5 760.25,-295.5 760.25,-276.25 825.75,-276.25 825.75,-295.5"/>
<text text-anchor="middle" x="793" y="-282" font-family="Helvetica,sans-Serif" font-size="10.00">v8&#45;maybe.h</text>
</a>
</g>
</g>
<!-- Node15&#45;&gt;Node16 -->
<g id="edge23" class="edge">
<title>Node15&#45;&gt;Node16</title>
<path fill="none" stroke="#63b8ff" d="M596.06,-441.65C617.2,-433.95 646.79,-421.63 670,-406 714.58,-375.98 757.54,-328.94 778.93,-303.9"/>
<polygon fill="#63b8ff" stroke="#63b8ff" points="782.04,-306.65 785.8,-296.74 776.68,-302.14 782.04,-306.65"/>
</g>
<!-- Node18 -->
<g id="node18" class="node">
<title>Node18</title>
<g id="a_node18"><a xlink:href="v8-persistent-handle_8h.html" target="_top" xlink:title=" ">
<polygon fill="white" stroke="#666666" points="513.62,-295.5 402.38,-295.5 402.38,-276.25 513.62,-276.25 513.62,-295.5"/>
<text text-anchor="middle" x="458" y="-282" font-family="Helvetica,sans-Serif" font-size="10.00">v8&#45;persistent&#45;handle.h</text>
</a>
</g>
</g>
<!-- Node15&#45;&gt;Node18 -->
<g id="edge28" class="edge">
<title>Node15&#45;&gt;Node18</title>
<path fill="none" stroke="#63b8ff" d="M563.03,-441.82C545.49,-415.94 493.84,-339.75 470.14,-304.78"/>
<polygon fill="#63b8ff" stroke="#63b8ff" points="472.51,-303.04 464,-296.72 466.71,-306.96 472.51,-303.04"/>
</g>
<!-- Node20 -->
<g id="node20" class="node">
<title>Node20</title>
<g id="a_node20"><a xlink:href="v8-primitive_8h.html" target="_top" xlink:title=" ">
<polygon fill="white" stroke="#666666" points="354.88,-406 281.12,-406 281.12,-386.75 354.88,-386.75 354.88,-406"/>
<text text-anchor="middle" x="318" y="-392.5" font-family="Helvetica,sans-Serif" font-size="10.00">v8&#45;primitive.h</text>
</a>
</g>
</g>
<!-- Node15&#45;&gt;Node20 -->
<g id="edge34" class="edge">
<title>Node15&#45;&gt;Node20</title>
<path fill="none" stroke="#63b8ff" d="M536.96,-443.83C493.62,-434.63 415.97,-418.16 365.74,-407.5"/>
<polygon fill="#63b8ff" stroke="#63b8ff" points="366.66,-403.91 356.15,-405.26 365.21,-410.76 366.66,-403.91"/>
</g>
<!-- Node22 -->
<g id="node22" class="node">
<title>Node22</title>
<g id="a_node22"><a xlink:href="v8-value_8h.html" target="_top" xlink:title=" ">
<polygon fill="white" stroke="#666666" points="400.12,-350.75 339.88,-350.75 339.88,-331.5 400.12,-331.5 400.12,-350.75"/>
<text text-anchor="middle" x="370" y="-337.25" font-family="Helvetica,sans-Serif" font-size="10.00">v8&#45;value.h</text>
</a>
</g>
</g>
<!-- Node15&#45;&gt;Node22 -->
<g id="edge63" class="edge">
<title>Node15&#45;&gt;Node22</title>
<path fill="none" stroke="#63b8ff" d="M552.38,-441.56C517.77,-422.69 437.77,-379.07 396.17,-356.4"/>
<polygon fill="#63b8ff" stroke="#63b8ff" points="398.17,-352.95 387.72,-351.24 394.82,-359.1 398.17,-352.95"/>
</g>
<!-- Node23 -->
<g id="node23" class="node">
<title>Node23</title>
<g id="a_node23"><a xlink:href="v8-sandbox_8h.html" target="_top" xlink:title=" ">
<polygon fill="white" stroke="#666666" points="149.5,-185 76.5,-185 76.5,-165.75 149.5,-165.75 149.5,-185"/>
<text text-anchor="middle" x="113" y="-171.5" font-family="Helvetica,sans-Serif" font-size="10.00">v8&#45;sandbox.h</text>
</a>
</g>
</g>
<!-- Node15&#45;&gt;Node23 -->
<g id="edge47" class="edge">
<title>Node15&#45;&gt;Node23</title>
<path fill="none" stroke="#63b8ff" d="M537.21,-449.65C435.87,-445.69 127,-426.67 127,-342.12 127,-342.12 127,-342.12 127,-284.88 127,-253.61 121.21,-217.69 117.08,-196.03"/>
<polygon fill="#63b8ff" stroke="#63b8ff" points="120.33,-195.45 114.95,-186.33 113.47,-196.82 120.33,-195.45"/>
</g>
<!-- Node25 -->
<g id="node25" class="node">
<title>Node25</title>
<g id="a_node25"><a xlink:href="v8-traced-handle_8h.html" target="_top" xlink:title=" ">
<polygon fill="white" stroke="#666666" points="1022.75,-295.5 927.25,-295.5 927.25,-276.25 1022.75,-276.25 1022.75,-295.5"/>
<text text-anchor="middle" x="975" y="-282" font-family="Helvetica,sans-Serif" font-size="10.00">v8&#45;traced&#45;handle.h</text>
</a>
</g>
</g>
<!-- Node15&#45;&gt;Node25 -->
<g id="edge51" class="edge">
<title>Node15&#45;&gt;Node25</title>
<path fill="none" stroke="#63b8ff" d="M596.92,-441.51C622.99,-432.86 662.88,-419.24 697,-406 788.63,-370.44 894.89,-323.2 945.4,-300.36"/>
<polygon fill="#63b8ff" stroke="#63b8ff" points="946.64,-303.19 954.31,-295.87 943.75,-296.81 946.64,-303.19"/>
</g>
<!-- Node16&#45;&gt;Node6 -->
<g id="edge24" class="edge">
<title>Node16&#45;&gt;Node6</title>
<path fill="none" stroke="#63b8ff" d="M815.94,-275.76C831.2,-268.47 850.33,-256.73 861,-240.25 892.47,-191.66 892.75,-119.89 890.73,-85.56"/>
<polygon fill="#63b8ff" stroke="#63b8ff" points="894.16,-85.44 889.93,-75.72 887.17,-85.95 894.16,-85.44"/>
</g>
<!-- Node16&#45;&gt;Node9 -->
<g id="edge26" class="edge">
<title>Node16&#45;&gt;Node9</title>
<path fill="none" stroke="#63b8ff" d="M791.9,-275.86C788.78,-254.14 778.06,-198.32 747,-165.75 731.86,-149.87 710.08,-139.27 690.61,-132.41"/>
<polygon fill="#63b8ff" stroke="#63b8ff" points="691.98,-128.85 681.39,-129.06 689.8,-135.5 691.98,-128.85"/>
</g>
<!-- Node16&#45;&gt;Node14 -->
<g id="edge27" class="edge">
<title>Node16&#45;&gt;Node14</title>
<path fill="none" stroke="#63b8ff" d="M759.99,-283.57C686.75,-280.18 513.11,-269.23 463,-240.25 399.97,-203.8 413.11,-163.32 363,-110.5 353.22,-100.19 341.25,-89.79 331.26,-81.62"/>
<polygon fill="#63b8ff" stroke="#63b8ff" points="333.75,-78.34 323.76,-74.82 329.38,-83.8 333.75,-78.34"/>
</g>
<!-- Node17 -->
<g id="node17" class="node">
<title>Node17</title>
<g id="a_node17"><a xlink:title=" ">
<polygon fill="#e0e0e0" stroke="#999999" points="852.25,-240.25 813.75,-240.25 813.75,-221 852.25,-221 852.25,-240.25"/>
<text text-anchor="middle" x="833" y="-226.75" font-family="Helvetica,sans-Serif" font-size="10.00">utility</text>
</a>
</g>
</g>
<!-- Node16&#45;&gt;Node17 -->
<g id="edge25" class="edge">
<title>Node16&#45;&gt;Node17</title>
<path fill="none" stroke="#63b8ff" d="M799.61,-276.08C805.07,-268.8 813.01,-258.23 819.78,-249.23"/>
<polygon fill="#63b8ff" stroke="#63b8ff" points="823.04,-251.71 826.25,-241.61 817.45,-247.5 823.04,-251.71"/>
</g>
<!-- Node18&#45;&gt;Node5 -->
<g id="edge30" class="edge">
<title>Node18&#45;&gt;Node5</title>
<path fill="none" stroke="#63b8ff" d="M497.62,-275.78C536.91,-266.76 597.24,-252.92 639.85,-243.14"/>
<polygon fill="#63b8ff" stroke="#63b8ff" points="640.58,-246.33 649.54,-240.68 639.02,-239.51 640.58,-246.33"/>
</g>
<!-- Node18&#45;&gt;Node9 -->
<g id="edge29" class="edge">
<title>Node18&#45;&gt;Node9</title>
<path fill="none" stroke="#63b8ff" d="M457.12,-275.84C456.22,-263.13 455.85,-239.46 463,-221 474.24,-191.99 480.48,-183.55 506,-165.75 534.29,-146.02 571.76,-134.68 600.81,-128.37"/>
<polygon fill="#63b8ff" stroke="#63b8ff" points="601.4,-131.62 610.5,-126.2 600,-124.76 601.4,-131.62"/>
</g>
<!-- Node18&#45;&gt;Node14 -->
<g id="edge33" class="edge">
<title>Node18&#45;&gt;Node14</title>
<path fill="none" stroke="#63b8ff" d="M452.06,-276.02C430.03,-243.2 352.81,-128.16 322.93,-83.65"/>
<polygon fill="#63b8ff" stroke="#63b8ff" points="325.34,-81.95 316.86,-75.6 319.52,-85.86 325.34,-81.95"/>
</g>
<!-- Node19 -->
<g id="node19" class="node">
<title>Node19</title>
<g id="a_node19"><a xlink:href="v8-weak-callback-info_8h.html" target="_top" xlink:title=" ">
<polygon fill="white" stroke="#666666" points="590,-240.25 472,-240.25 472,-221 590,-221 590,-240.25"/>
<text text-anchor="middle" x="531" y="-226.75" font-family="Helvetica,sans-Serif" font-size="10.00">v8&#45;weak&#45;callback&#45;info.h</text>
</a>
</g>
</g>
<!-- Node18&#45;&gt;Node19 -->
<g id="edge31" class="edge">
<title>Node18&#45;&gt;Node19</title>
<path fill="none" stroke="#63b8ff" d="M470.38,-275.84C481.25,-267.91 497.28,-256.22 510.13,-246.85"/>
<polygon fill="#63b8ff" stroke="#63b8ff" points="511.78,-249.25 517.8,-240.52 507.66,-243.59 511.78,-249.25"/>
</g>
<!-- Node19&#45;&gt;Node14 -->
<g id="edge32" class="edge">
<title>Node19&#45;&gt;Node14</title>
<path fill="none" stroke="#63b8ff" d="M524.77,-220.62C509.34,-198.91 467.21,-143.12 420,-110.5 399.04,-96.02 372.66,-85.06 351.1,-77.63"/>
<polygon fill="#63b8ff" stroke="#63b8ff" points="352.54,-74.09 341.95,-74.26 350.34,-80.73 352.54,-74.09"/>
</g>
<!-- Node20&#45;&gt;Node5 -->
<g id="edge39" class="edge">
<title>Node20&#45;&gt;Node5</title>
<path fill="none" stroke="#63b8ff" d="M341.13,-386.33C384.29,-369.34 479.92,-331.13 559,-295.5 595.25,-279.17 636.36,-258.82 662.7,-245.54"/>
<polygon fill="#63b8ff" stroke="#63b8ff" points="664.02,-248.29 671.36,-240.65 660.86,-242.04 664.02,-248.29"/>
</g>
<!-- Node20&#45;&gt;Node9 -->
<g id="edge38" class="edge">
<title>Node20&#45;&gt;Node9</title>
<path fill="none" stroke="#63b8ff" d="M303.74,-386.27C274.69,-366.54 213.48,-318.24 239,-276.25 315.55,-150.3 511.47,-126.22 600.61,-121.89"/>
<polygon fill="#63b8ff" stroke="#63b8ff" points="600.6,-125.35 610.45,-121.44 600.31,-118.36 600.6,-125.35"/>
</g>
<!-- Node20&#45;&gt;Node14 -->
<g id="edge46" class="edge">
<title>Node20&#45;&gt;Node14</title>
<path fill="none" stroke="#63b8ff" d="M286.23,-386.3C244.93,-372.33 178,-341.3 178,-286.88 178,-286.88 178,-286.88 178,-174.38 178,-125.41 232.79,-94.6 272.04,-78.82"/>
<polygon fill="#63b8ff" stroke="#63b8ff" points="273.06,-81.79 281.14,-74.94 270.55,-75.26 273.06,-81.79"/>
</g>
<!-- Node21 -->
<g id="node21" class="node">
<title>Node21</title>
<g id="a_node21"><a xlink:href="v8-data_8h.html" target="_top" xlink:title=" ">
<polygon fill="white" stroke="#666666" points="303.88,-295.5 248.12,-295.5 248.12,-276.25 303.88,-276.25 303.88,-295.5"/>
<text text-anchor="middle" x="276" y="-282" font-family="Helvetica,sans-Serif" font-size="10.00">v8&#45;data.h</text>
</a>
</g>
</g>
<!-- Node20&#45;&gt;Node21 -->
<g id="edge35" class="edge">
<title>Node20&#45;&gt;Node21</title>
<path fill="none" stroke="#63b8ff" d="M314.56,-386.5C307.79,-369.01 292.6,-329.77 283.44,-306.09"/>
<polygon fill="#63b8ff" stroke="#63b8ff" points="286.36,-304.94 279.48,-296.88 279.83,-307.47 286.36,-304.94"/>
</g>
<!-- Node20&#45;&gt;Node22 -->
<g id="edge40" class="edge">
<title>Node20&#45;&gt;Node22</title>
<path fill="none" stroke="#63b8ff" d="M326.59,-386.58C333.92,-379.07 344.67,-368.06 353.64,-358.88"/>
<polygon fill="#63b8ff" stroke="#63b8ff" points="355.74,-361.71 360.23,-352.11 350.74,-356.82 355.74,-361.71"/>
</g>
<!-- Node21&#45;&gt;Node5 -->
<g id="edge36" class="edge">
<title>Node21&#45;&gt;Node5</title>
<path fill="none" stroke="#63b8ff" d="M304.13,-281.26C371.83,-272.55 544.84,-250.3 634.4,-238.78"/>
<polygon fill="#63b8ff" stroke="#63b8ff" points="634.69,-242.14 644.16,-237.39 633.79,-235.2 634.69,-242.14"/>
</g>
<!-- Node21&#45;&gt;Node14 -->
<g id="edge37" class="edge">
<title>Node21&#45;&gt;Node14</title>
<path fill="none" stroke="#63b8ff" d="M265.5,-275.83C256.78,-267.57 245.04,-254.52 240,-240.25 220.8,-185.87 212.11,-160.97 240,-110.5 247.59,-96.76 261.39,-86.68 274.81,-79.61"/>
<polygon fill="#63b8ff" stroke="#63b8ff" points="275.93,-82.47 283.42,-74.99 272.89,-76.17 275.93,-82.47"/>
</g>
<!-- Node22&#45;&gt;Node5 -->
<g id="edge43" class="edge">
<title>Node22&#45;&gt;Node5</title>
<path fill="none" stroke="#63b8ff" d="M400.59,-332.53C431.76,-324.48 481.32,-310.83 523,-295.5 542.65,-288.27 546.58,-284.08 566,-276.25 594.97,-264.57 628.3,-252.66 653.1,-244.09"/>
<polygon fill="#63b8ff" stroke="#63b8ff" points="653.85,-247.18 662.17,-240.62 651.58,-240.56 653.85,-247.18"/>
</g>
<!-- Node22&#45;&gt;Node9 -->
<g id="edge42" class="edge">
<title>Node22&#45;&gt;Node9</title>
<path fill="none" stroke="#63b8ff" d="M372.27,-331.06C375.68,-318.31 382.83,-294.6 393,-276.25 423.31,-221.59 427.83,-200.17 480,-165.75 516.46,-141.7 565.49,-130.56 600.8,-125.43"/>
<polygon fill="#63b8ff" stroke="#63b8ff" points="600.84,-128.83 610.29,-124.03 599.91,-121.89 600.84,-128.83"/>
</g>
<!-- Node22&#45;&gt;Node14 -->
<g id="edge45" class="edge">
<title>Node22&#45;&gt;Node14</title>
<path fill="none" stroke="#63b8ff" d="M368.04,-331C359.67,-292.12 326.9,-139.76 315.19,-85.33"/>
<polygon fill="#63b8ff" stroke="#63b8ff" points="318.44,-84.8 312.91,-75.76 311.59,-86.27 318.44,-84.8"/>
</g>
<!-- Node22&#45;&gt;Node16 -->
<g id="edge44" class="edge">
<title>Node22&#45;&gt;Node16</title>
<path fill="none" stroke="#63b8ff" d="M400.42,-336.3C474.28,-327 663.32,-303.2 749.28,-292.38"/>
<polygon fill="#63b8ff" stroke="#63b8ff" points="749.48,-295.76 758.97,-291.03 748.61,-288.81 749.48,-295.76"/>
</g>
<!-- Node22&#45;&gt;Node21 -->
<g id="edge41" class="edge">
<title>Node22&#45;&gt;Node21</title>
<path fill="none" stroke="#63b8ff" d="M354.05,-331.09C339.6,-322.91 318.07,-310.71 301.27,-301.19"/>
<polygon fill="#63b8ff" stroke="#63b8ff" points="303.45,-297.84 293.02,-295.95 300,-303.93 303.45,-297.84"/>
</g>
<!-- Node23&#45;&gt;Node9 -->
<g id="edge49" class="edge">
<title>Node23&#45;&gt;Node9</title>
<path fill="none" stroke="#63b8ff" d="M149.64,-170.71C244.38,-161.25 497.29,-135.98 600.84,-125.64"/>
<polygon fill="#63b8ff" stroke="#63b8ff" points="600.95,-129.04 610.55,-124.57 600.25,-122.08 600.95,-129.04"/>
</g>
<!-- Node23&#45;&gt;Node14 -->
<g id="edge50" class="edge">
<title>Node23&#45;&gt;Node14</title>
<path fill="none" stroke="#63b8ff" d="M106.04,-165.52C96.44,-152.18 81.76,-126.76 95,-110.5 116.65,-83.92 213.69,-72.69 270.06,-68.34"/>
<polygon fill="#63b8ff" stroke="#63b8ff" points="270.04,-71.78 279.76,-67.56 269.53,-64.8 270.04,-71.78"/>
</g>
<!-- Node24 -->
<g id="node24" class="node">
<title>Node24</title>
<g id="a_node24"><a xlink:title=" ">
<polygon fill="#e0e0e0" stroke="#999999" points="149.62,-129.75 104.38,-129.75 104.38,-110.5 149.62,-110.5 149.62,-129.75"/>
<text text-anchor="middle" x="127" y="-116.25" font-family="Helvetica,sans-Serif" font-size="10.00">cstdint</text>
</a>
</g>
</g>
<!-- Node23&#45;&gt;Node24 -->
<g id="edge48" class="edge">
<title>Node23&#45;&gt;Node24</title>
<path fill="none" stroke="#63b8ff" d="M115.31,-165.58C117.08,-158.84 119.6,-149.27 121.84,-140.74"/>
<polygon fill="#63b8ff" stroke="#63b8ff" points="125.48,-141.67 124.64,-131.11 118.71,-139.89 125.48,-141.67"/>
</g>
<!-- Node25&#45;&gt;Node2 -->
<g id="edge52" class="edge">
<title>Node25&#45;&gt;Node2</title>
<path fill="none" stroke="#63b8ff" d="M977.43,-275.91C982.61,-254.78 992.52,-200.98 970,-165.75 934.57,-110.31 857.92,-84.13 812.29,-73.02"/>
<polygon fill="#63b8ff" stroke="#63b8ff" points="813.21,-69.41 802.67,-70.57 811.63,-76.23 813.21,-69.41"/>
</g>
<!-- Node25&#45;&gt;Node3 -->
<g id="edge53" class="edge">
<title>Node25&#45;&gt;Node3</title>
<path fill="none" stroke="#63b8ff" d="M1023.07,-281.06C1055.71,-276.2 1098.03,-265.19 1127,-240.25 1175.64,-198.38 1196.91,-121.04 1204.48,-85.13"/>
<polygon fill="#63b8ff" stroke="#63b8ff" points="1208.05,-86.14 1206.55,-75.65 1201.18,-84.79 1208.05,-86.14"/>
</g>
<!-- Node25&#45;&gt;Node5 -->
<g id="edge60" class="edge">
<title>Node25&#45;&gt;Node5</title>
<path fill="none" stroke="#63b8ff" d="M926.98,-275.9C876.66,-266.5 797.75,-251.76 744.98,-241.9"/>
<polygon fill="#63b8ff" stroke="#63b8ff" points="745.94,-238.33 735.46,-239.93 744.65,-245.21 745.94,-238.33"/>
</g>
<!-- Node25&#45;&gt;Node6 -->
<g id="edge57" class="edge">
<title>Node25&#45;&gt;Node6</title>
<path fill="none" stroke="#63b8ff" d="M1022.02,-275.78C1041.9,-269.36 1063.15,-258.51 1075,-240.25 1079.66,-233.07 1077.3,-229.24 1075,-221 1059.54,-165.69 1052.21,-147.16 1008,-110.5 985.73,-92.04 955.06,-80.78 930.44,-74.19"/>
<polygon fill="#63b8ff" stroke="#63b8ff" points="931.5,-70.6 920.95,-71.57 929.8,-77.39 931.5,-70.6"/>
</g>
<!-- Node25&#45;&gt;Node9 -->
<g id="edge59" class="edge">
<title>Node25&#45;&gt;Node9</title>
<path fill="none" stroke="#63b8ff" d="M961.39,-275.94C928.9,-254.86 843.91,-201.15 768,-165.75 741.12,-153.21 709.65,-141.78 685.41,-133.62"/>
<polygon fill="#63b8ff" stroke="#63b8ff" points="686.75,-130.05 676.16,-130.22 684.55,-136.69 686.75,-130.05"/>
</g>
<!-- Node25&#45;&gt;Node11 -->
<g id="edge55" class="edge">
<title>Node25&#45;&gt;Node11</title>
<path fill="none" stroke="#63b8ff" d="M1023.18,-282.28C1052.86,-277.89 1088.8,-266.94 1108,-240.25 1141.67,-193.44 1136.65,-160.55 1108,-110.5 1098.71,-94.27 1080.96,-83.37 1064.96,-76.4"/>
<polygon fill="#63b8ff" stroke="#63b8ff" points="1066.38,-72.8 1055.8,-72.38 1063.8,-79.31 1066.38,-72.8"/>
</g>
<!-- Node25&#45;&gt;Node13 -->
<g id="edge56" class="edge">
<title>Node25&#45;&gt;Node13</title>
<path fill="none" stroke="#63b8ff" d="M1022.94,-278.21C1109.73,-264.79 1284,-231.03 1284,-176.38 1284,-176.38 1284,-176.38 1284,-119.12 1284,-84.9 1270.53,-72.55 1241,-55.25 1197.38,-29.69 848.4,-15.73 733.52,-11.8"/>
<polygon fill="#63b8ff" stroke="#63b8ff" points="733.65,-8.27 723.54,-11.43 733.41,-15.26 733.65,-8.27"/>
</g>
<!-- Node25&#45;&gt;Node14 -->
<g id="edge62" class="edge">
<title>Node25&#45;&gt;Node14</title>
<path fill="none" stroke="#63b8ff" d="M966.4,-275.87C953.6,-262.77 928.42,-238.16 904,-221 861.5,-191.14 847.19,-189.52 801,-165.75 751.65,-140.35 742.22,-126.26 689,-110.5 569.92,-75.24 421.95,-67.7 351.69,-66.18"/>
<polygon fill="#63b8ff" stroke="#63b8ff" points="352.16,-62.67 342.1,-65.99 352.03,-69.67 352.16,-62.67"/>
</g>
<!-- Node25&#45;&gt;Node17 -->
<g id="edge58" class="edge">
<title>Node25&#45;&gt;Node17</title>
<path fill="none" stroke="#63b8ff" d="M950.91,-275.84C926.57,-266.71 888.91,-252.59 862.73,-242.77"/>
<polygon fill="#63b8ff" stroke="#63b8ff" points="864.22,-239.22 853.63,-238.98 861.76,-245.77 864.22,-239.22"/>
</g>
<!-- Node25&#45;&gt;Node19 -->
<g id="edge61" class="edge">
<title>Node25&#45;&gt;Node19</title>
<path fill="none" stroke="#63b8ff" d="M927.06,-279.13C848.52,-269.71 692.08,-250.94 601.09,-240.03"/>
<polygon fill="#63b8ff" stroke="#63b8ff" points="601.67,-236.46 591.32,-238.74 600.83,-243.41 601.67,-236.46"/>
</g>
<!-- Node26 -->
<g id="node26" class="node">
<title>Node26</title>
<g id="a_node26"><a xlink:title=" ">
<polygon fill="#e0e0e0" stroke="#999999" points="1066.25,-240.25 1021.75,-240.25 1021.75,-221 1066.25,-221 1066.25,-240.25"/>
<text text-anchor="middle" x="1044" y="-226.75" font-family="Helvetica,sans-Serif" font-size="10.00">stdio.h</text>
</a>
</g>
</g>
<!-- Node25&#45;&gt;Node26 -->
<g id="edge54" class="edge">
<title>Node25&#45;&gt;Node26</title>
<path fill="none" stroke="#63b8ff" d="M986.7,-275.84C996.88,-267.99 1011.83,-256.45 1023.92,-247.12"/>
<polygon fill="#63b8ff" stroke="#63b8ff" points="1025.69,-249.41 1031.47,-240.52 1021.41,-243.86 1025.69,-249.41"/>
</g>
</g>
</svg>
