<?xml version="1.0" encoding="UTF-8" standalone="no"?>
<!DOCTYPE svg PUBLIC "-//W3C//DTD SVG 1.1//EN"
 "http://www.w3.org/Graphics/SVG/1.1/DTD/svg11.dtd">
<!-- Generated by graphviz version 8.0.5 (20230430.1635)
 -->
<!-- Title: include/v8&#45;profiler.h Pages: 1 -->
<svg width="998pt" height="525pt"
 viewBox="0.00 0.00 997.50 524.50" xmlns="http://www.w3.org/2000/svg" xmlns:xlink="http://www.w3.org/1999/xlink">
<g id="graph0" class="graph" transform="scale(1 1) rotate(0) translate(4 520.5)">
<title>include/v8&#45;profiler.h</title>
<!-- Node1 -->
<g id="node1" class="node">
<title>Node1</title>
<g id="a_node1"><a xlink:title=" ">
<polygon fill="#999999" stroke="#666666" points="277,-516.5 177.75,-516.5 177.75,-497.25 277,-497.25 277,-516.5"/>
<text text-anchor="middle" x="227.38" y="-503" font-family="Helvetica,sans-Serif" font-size="10.00">include/v8&#45;profiler.h</text>
</a>
</g>
</g>
<!-- Node2 -->
<g id="node2" class="node">
<title>Node2</title>
<g id="a_node2"><a xlink:title=" ">
<polygon fill="#e0e0e0" stroke="#999999" points="46.75,-461.25 0,-461.25 0,-442 46.75,-442 46.75,-461.25"/>
<text text-anchor="middle" x="23.38" y="-447.75" font-family="Helvetica,sans-Serif" font-size="10.00">limits.h</text>
</a>
</g>
</g>
<!-- Node1&#45;&gt;Node2 -->
<g id="edge1" class="edge">
<title>Node1&#45;&gt;Node2</title>
<path fill="none" stroke="#63b8ff" d="M192.77,-496.84C155.01,-486.98 94.93,-471.3 57.4,-461.51"/>
<polygon fill="#63b8ff" stroke="#63b8ff" points="58.55,-457.93 47.99,-458.79 56.78,-464.7 58.55,-457.93"/>
</g>
<!-- Node3 -->
<g id="node3" class="node">
<title>Node3</title>
<g id="a_node3"><a xlink:title=" ">
<polygon fill="#e0e0e0" stroke="#999999" points="411.62,-19.25 361.12,-19.25 361.12,0 411.62,0 411.62,-19.25"/>
<text text-anchor="middle" x="386.38" y="-5.75" font-family="Helvetica,sans-Serif" font-size="10.00">memory</text>
</a>
</g>
</g>
<!-- Node1&#45;&gt;Node3 -->
<g id="edge2" class="edge">
<title>Node1&#45;&gt;Node3</title>
<path fill="none" stroke="#63b8ff" d="M177.4,-500.6C149.23,-495.13 115.38,-483.98 93.38,-461.25 72.77,-439.97 74.38,-426.99 74.38,-397.38 74.38,-397.38 74.38,-397.38 74.38,-119.12 74.38,-61.34 267.71,-27.3 350,-15.42"/>
<polygon fill="#63b8ff" stroke="#63b8ff" points="350.43,-18.76 359.84,-13.9 349.45,-11.83 350.43,-18.76"/>
</g>
<!-- Node4 -->
<g id="node4" class="node">
<title>Node4</title>
<g id="a_node4"><a xlink:title=" ">
<polygon fill="#e0e0e0" stroke="#999999" points="180.12,-461.25 102.62,-461.25 102.62,-442 180.12,-442 180.12,-461.25"/>
<text text-anchor="middle" x="141.38" y="-447.75" font-family="Helvetica,sans-Serif" font-size="10.00">unordered_set</text>
</a>
</g>
</g>
<!-- Node1&#45;&gt;Node4 -->
<g id="edge3" class="edge">
<title>Node1&#45;&gt;Node4</title>
<path fill="none" stroke="#63b8ff" d="M212.79,-496.84C199.81,-488.81 180.6,-476.91 165.36,-467.48"/>
<polygon fill="#63b8ff" stroke="#63b8ff" points="167.38,-463.99 157.04,-461.7 163.69,-469.94 167.38,-463.99"/>
</g>
<!-- Node5 -->
<g id="node5" class="node">
<title>Node5</title>
<g id="a_node5"><a xlink:title=" ">
<polygon fill="#e0e0e0" stroke="#999999" points="180.88,-185 137.88,-185 137.88,-165.75 180.88,-165.75 180.88,-185"/>
<text text-anchor="middle" x="159.38" y="-171.5" font-family="Helvetica,sans-Serif" font-size="10.00">vector</text>
</a>
</g>
</g>
<!-- Node1&#45;&gt;Node5 -->
<g id="edge4" class="edge">
<title>Node1&#45;&gt;Node5</title>
<path fill="none" stroke="#63b8ff" d="M224.73,-496.97C219.51,-478.55 208.38,-434.86 208.38,-397.38 208.38,-397.38 208.38,-397.38 208.38,-284.88 208.38,-250.42 187.59,-214.82 173.1,-194.19"/>
<polygon fill="#63b8ff" stroke="#63b8ff" points="175.34,-192.33 166.61,-186.33 169.69,-196.46 175.34,-192.33"/>
</g>
<!-- Node6 -->
<g id="node6" class="node">
<title>Node6</title>
<g id="a_node6"><a xlink:href="common_8h.html" target="_top" xlink:title=" ">
<polygon fill="white" stroke="#666666" points="989.5,-350.75 899.25,-350.75 899.25,-331.5 989.5,-331.5 989.5,-350.75"/>
<text text-anchor="middle" x="944.38" y="-337.25" font-family="Helvetica,sans-Serif" font-size="10.00">cppgc/common.h</text>
</a>
</g>
</g>
<!-- Node1&#45;&gt;Node6 -->
<g id="edge5" class="edge">
<title>Node1&#45;&gt;Node6</title>
<path fill="none" stroke="#63b8ff" d="M277.19,-503.11C412.2,-494.87 781.94,-467.16 885.38,-406 904.99,-394.4 921.98,-374.28 932.63,-359.71"/>
<polygon fill="#63b8ff" stroke="#63b8ff" points="935.8,-362.28 938.67,-352.09 930.07,-358.27 935.8,-362.28"/>
</g>
<!-- Node8 -->
<g id="node8" class="node">
<title>Node8</title>
<g id="a_node8"><a xlink:href="v8-local-handle_8h.html" target="_top" xlink:title=" ">
<polygon fill="white" stroke="#666666" points="364.75,-240.25 276,-240.25 276,-221 364.75,-221 364.75,-240.25"/>
<text text-anchor="middle" x="320.38" y="-226.75" font-family="Helvetica,sans-Serif" font-size="10.00">v8&#45;local&#45;handle.h</text>
</a>
</g>
</g>
<!-- Node1&#45;&gt;Node8 -->
<g id="edge8" class="edge">
<title>Node1&#45;&gt;Node8</title>
<path fill="none" stroke="#63b8ff" d="M230.02,-496.97C235.24,-478.55 246.38,-434.86 246.38,-397.38 246.38,-397.38 246.38,-397.38 246.38,-340.12 246.38,-301.85 278.2,-267.12 300.1,-247.74"/>
<polygon fill="#63b8ff" stroke="#63b8ff" points="302.12,-249.77 307.49,-240.63 297.59,-244.43 302.12,-249.77"/>
</g>
<!-- Node17 -->
<g id="node17" class="node">
<title>Node17</title>
<g id="a_node17"><a xlink:href="v8-message_8h.html" target="_top" xlink:title=" ">
<polygon fill="white" stroke="#666666" points="653.75,-461.25 577,-461.25 577,-442 653.75,-442 653.75,-461.25"/>
<text text-anchor="middle" x="615.38" y="-447.75" font-family="Helvetica,sans-Serif" font-size="10.00">v8&#45;message.h</text>
</a>
</g>
</g>
<!-- Node1&#45;&gt;Node17 -->
<g id="edge23" class="edge">
<title>Node1&#45;&gt;Node17</title>
<path fill="none" stroke="#63b8ff" d="M277.3,-499.02C352.02,-488.77 492.05,-469.55 566.28,-459.36"/>
<polygon fill="#63b8ff" stroke="#63b8ff" points="566.3,-462.76 575.74,-457.93 565.35,-455.82 566.3,-462.76"/>
</g>
<!-- Node25 -->
<g id="node25" class="node">
<title>Node25</title>
<g id="a_node25"><a xlink:href="v8-persistent-handle_8h.html" target="_top" xlink:title=" ">
<polygon fill="white" stroke="#666666" points="500,-295.5 388.75,-295.5 388.75,-276.25 500,-276.25 500,-295.5"/>
<text text-anchor="middle" x="444.38" y="-282" font-family="Helvetica,sans-Serif" font-size="10.00">v8&#45;persistent&#45;handle.h</text>
</a>
</g>
</g>
<!-- Node1&#45;&gt;Node25 -->
<g id="edge46" class="edge">
<title>Node1&#45;&gt;Node25</title>
<path fill="none" stroke="#63b8ff" d="M236.15,-497.02C269.01,-463.86 385.07,-346.73 428.13,-303.27"/>
<polygon fill="#63b8ff" stroke="#63b8ff" points="430.18,-306.17 434.73,-296.6 425.2,-301.24 430.18,-306.17"/>
</g>
<!-- Node7 -->
<g id="node7" class="node">
<title>Node7</title>
<g id="a_node7"><a xlink:href="v8config_8h.html" target="_top" xlink:title=" ">
<polygon fill="white" stroke="#666666" points="726.12,-74.5 666.62,-74.5 666.62,-55.25 726.12,-55.25 726.12,-74.5"/>
<text text-anchor="middle" x="696.38" y="-61" font-family="Helvetica,sans-Serif" font-size="10.00">v8config.h</text>
</a>
</g>
</g>
<!-- Node6&#45;&gt;Node7 -->
<g id="edge6" class="edge">
<title>Node6&#45;&gt;Node7</title>
<path fill="none" stroke="#63b8ff" d="M941.87,-331.21C936.93,-312.77 926.38,-269.05 926.38,-231.62 926.38,-231.62 926.38,-231.62 926.38,-174.38 926.38,-91.74 803.42,-71.94 737.31,-67.27"/>
<polygon fill="#63b8ff" stroke="#63b8ff" points="737.64,-63.72 727.44,-66.6 737.21,-70.71 737.64,-63.72"/>
</g>
<!-- Node7&#45;&gt;Node3 -->
<g id="edge7" class="edge">
<title>Node7&#45;&gt;Node3</title>
<path fill="none" stroke="#63b8ff" d="M666.37,-58.72C609.15,-48.89 484.64,-27.5 422.78,-16.88"/>
<polygon fill="#63b8ff" stroke="#63b8ff" points="423.43,-13.27 412.98,-15.02 422.25,-20.17 423.43,-13.27"/>
</g>
<!-- Node8&#45;&gt;Node5 -->
<g id="edge11" class="edge">
<title>Node8&#45;&gt;Node5</title>
<path fill="none" stroke="#63b8ff" d="M293.06,-220.59C264.94,-211.29 221.13,-196.8 191.39,-186.97"/>
<polygon fill="#63b8ff" stroke="#63b8ff" points="192.72,-183.39 182.13,-183.57 190.53,-190.03 192.72,-183.39"/>
</g>
<!-- Node9 -->
<g id="node9" class="node">
<title>Node9</title>
<g id="a_node9"><a xlink:title=" ">
<polygon fill="#e0e0e0" stroke="#999999" points="230.62,-74.5 180.12,-74.5 180.12,-55.25 230.62,-55.25 230.62,-74.5"/>
<text text-anchor="middle" x="205.38" y="-61" font-family="Helvetica,sans-Serif" font-size="10.00">stddef.h</text>
</a>
</g>
</g>
<!-- Node8&#45;&gt;Node9 -->
<g id="edge9" class="edge">
<title>Node8&#45;&gt;Node9</title>
<path fill="none" stroke="#63b8ff" d="M288.2,-220.62C269.54,-213.79 247.08,-202.51 233.38,-185 210.54,-155.81 205.82,-111.08 205.14,-85.55"/>
<polygon fill="#63b8ff" stroke="#63b8ff" points="208.63,-85.69 205.06,-75.71 201.63,-85.73 208.63,-85.69"/>
</g>
<!-- Node10 -->
<g id="node10" class="node">
<title>Node10</title>
<g id="a_node10"><a xlink:title=" ">
<polygon fill="#e0e0e0" stroke="#999999" points="540.88,-74.5 479.88,-74.5 479.88,-55.25 540.88,-55.25 540.88,-74.5"/>
<text text-anchor="middle" x="510.38" y="-61" font-family="Helvetica,sans-Serif" font-size="10.00">type_traits</text>
</a>
</g>
</g>
<!-- Node8&#45;&gt;Node10 -->
<g id="edge10" class="edge">
<title>Node8&#45;&gt;Node10</title>
<path fill="none" stroke="#63b8ff" d="M303.06,-220.68C282.49,-208.82 252.59,-186.92 266.38,-165.75 289.4,-130.4 405.78,-94.17 469.13,-76.66"/>
<polygon fill="#63b8ff" stroke="#63b8ff" points="469.84,-79.82 478.56,-73.81 468,-73.07 469.84,-79.82"/>
</g>
<!-- Node11 -->
<g id="node11" class="node">
<title>Node11</title>
<g id="a_node11"><a xlink:href="v8-handle-base_8h.html" target="_top" xlink:title=" ">
<polygon fill="white" stroke="#666666" points="365.12,-185 275.62,-185 275.62,-165.75 365.12,-165.75 365.12,-185"/>
<text text-anchor="middle" x="320.38" y="-171.5" font-family="Helvetica,sans-Serif" font-size="10.00">v8&#45;handle&#45;base.h</text>
</a>
</g>
</g>
<!-- Node8&#45;&gt;Node11 -->
<g id="edge12" class="edge">
<title>Node8&#45;&gt;Node11</title>
<path fill="none" stroke="#63b8ff" d="M320.38,-220.83C320.38,-214.17 320.38,-204.74 320.38,-196.28"/>
<polygon fill="#63b8ff" stroke="#63b8ff" points="323.88,-196.36 320.38,-186.36 316.88,-196.36 323.88,-196.36"/>
</g>
<!-- Node12 -->
<g id="node12" class="node">
<title>Node12</title>
<g id="a_node12"><a xlink:href="v8-internal_8h.html" target="_top" xlink:title=" ">
<polygon fill="white" stroke="#666666" points="468.62,-129.75 400.12,-129.75 400.12,-110.5 468.62,-110.5 468.62,-129.75"/>
<text text-anchor="middle" x="434.38" y="-116.25" font-family="Helvetica,sans-Serif" font-size="10.00">v8&#45;internal.h</text>
</a>
</g>
</g>
<!-- Node8&#45;&gt;Node12 -->
<g id="edge22" class="edge">
<title>Node8&#45;&gt;Node12</title>
<path fill="none" stroke="#63b8ff" d="M331.9,-220.79C343.08,-212.07 360.36,-198.15 374.38,-185 390.42,-169.94 407.49,-151.51 419.3,-138.33"/>
<polygon fill="#63b8ff" stroke="#63b8ff" points="421.54,-140.94 425.56,-131.14 416.3,-136.3 421.54,-140.94"/>
</g>
<!-- Node11&#45;&gt;Node12 -->
<g id="edge13" class="edge">
<title>Node11&#45;&gt;Node12</title>
<path fill="none" stroke="#63b8ff" d="M339.71,-165.34C357.65,-156.97 384.58,-144.38 405.14,-134.78"/>
<polygon fill="#63b8ff" stroke="#63b8ff" points="406.36,-137.61 413.94,-130.2 403.4,-131.26 406.36,-137.61"/>
</g>
<!-- Node12&#45;&gt;Node3 -->
<g id="edge19" class="edge">
<title>Node12&#45;&gt;Node3</title>
<path fill="none" stroke="#63b8ff" d="M427.32,-110.01C420.87,-101.29 411.42,-87.59 405.38,-74.5 398.76,-60.19 393.81,-43.01 390.62,-30.08"/>
<polygon fill="#63b8ff" stroke="#63b8ff" points="393.85,-29.55 388.19,-20.59 387.04,-31.13 393.85,-29.55"/>
</g>
<!-- Node12&#45;&gt;Node7 -->
<g id="edge21" class="edge">
<title>Node12&#45;&gt;Node7</title>
<path fill="none" stroke="#63b8ff" d="M468.9,-112.11C517.05,-102.32 604.24,-84.6 655.56,-74.17"/>
<polygon fill="#63b8ff" stroke="#63b8ff" points="656.14,-77.42 665.25,-72 654.75,-70.56 656.14,-77.42"/>
</g>
<!-- Node12&#45;&gt;Node9 -->
<g id="edge14" class="edge">
<title>Node12&#45;&gt;Node9</title>
<path fill="none" stroke="#63b8ff" d="M399.8,-111.47C362.91,-103.24 302.49,-89.61 241.55,-74.99"/>
<polygon fill="#63b8ff" stroke="#63b8ff" points="242.52,-71.38 231.98,-72.44 240.88,-78.18 242.52,-71.38"/>
</g>
<!-- Node12&#45;&gt;Node10 -->
<g id="edge20" class="edge">
<title>Node12&#45;&gt;Node10</title>
<path fill="none" stroke="#63b8ff" d="M447.27,-110.09C458.62,-102.14 475.39,-90.39 488.79,-81"/>
<polygon fill="#63b8ff" stroke="#63b8ff" points="490.24,-83.56 496.42,-74.95 486.22,-77.82 490.24,-83.56"/>
</g>
<!-- Node13 -->
<g id="node13" class="node">
<title>Node13</title>
<g id="a_node13"><a xlink:title=" ">
<polygon fill="#e0e0e0" stroke="#999999" points="462.12,-74.5 414.62,-74.5 414.62,-55.25 462.12,-55.25 462.12,-74.5"/>
<text text-anchor="middle" x="438.38" y="-61" font-family="Helvetica,sans-Serif" font-size="10.00">stdint.h</text>
</a>
</g>
</g>
<!-- Node12&#45;&gt;Node13 -->
<g id="edge15" class="edge">
<title>Node12&#45;&gt;Node13</title>
<path fill="none" stroke="#63b8ff" d="M435.04,-110.33C435.54,-103.67 436.24,-94.24 436.88,-85.78"/>
<polygon fill="#63b8ff" stroke="#63b8ff" points="440.44,-86.09 437.7,-75.86 433.46,-85.57 440.44,-86.09"/>
</g>
<!-- Node14 -->
<g id="node14" class="node">
<title>Node14</title>
<g id="a_node14"><a xlink:title=" ">
<polygon fill="#e0e0e0" stroke="#999999" points="606.12,-74.5 558.62,-74.5 558.62,-55.25 606.12,-55.25 606.12,-74.5"/>
<text text-anchor="middle" x="582.38" y="-61" font-family="Helvetica,sans-Serif" font-size="10.00">string.h</text>
</a>
</g>
</g>
<!-- Node12&#45;&gt;Node14 -->
<g id="edge16" class="edge">
<title>Node12&#45;&gt;Node14</title>
<path fill="none" stroke="#63b8ff" d="M459.48,-110.09C483.8,-101.34 520.87,-88.01 547.93,-78.27"/>
<polygon fill="#63b8ff" stroke="#63b8ff" points="548.91,-81.28 557.13,-74.6 546.54,-74.69 548.91,-81.28"/>
</g>
<!-- Node15 -->
<g id="node15" class="node">
<title>Node15</title>
<g id="a_node15"><a xlink:title=" ">
<polygon fill="#e0e0e0" stroke="#999999" points="294,-74.5 248.75,-74.5 248.75,-55.25 294,-55.25 294,-74.5"/>
<text text-anchor="middle" x="271.38" y="-61" font-family="Helvetica,sans-Serif" font-size="10.00">atomic</text>
</a>
</g>
</g>
<!-- Node12&#45;&gt;Node15 -->
<g id="edge17" class="edge">
<title>Node12&#45;&gt;Node15</title>
<path fill="none" stroke="#63b8ff" d="M406.72,-110.09C378.57,-100.9 334.91,-86.63 304.82,-76.8"/>
<polygon fill="#63b8ff" stroke="#63b8ff" points="306,-73.18 295.41,-73.4 303.83,-79.83 306,-73.18"/>
</g>
<!-- Node16 -->
<g id="node16" class="node">
<title>Node16</title>
<g id="a_node16"><a xlink:title=" ">
<polygon fill="#e0e0e0" stroke="#999999" points="358.38,-74.5 312.38,-74.5 312.38,-55.25 358.38,-55.25 358.38,-74.5"/>
<text text-anchor="middle" x="335.38" y="-61" font-family="Helvetica,sans-Serif" font-size="10.00">iterator</text>
</a>
</g>
</g>
<!-- Node12&#45;&gt;Node16 -->
<g id="edge18" class="edge">
<title>Node12&#45;&gt;Node16</title>
<path fill="none" stroke="#63b8ff" d="M417.58,-110.09C402.22,-101.83 379.26,-89.48 361.5,-79.93"/>
<polygon fill="#63b8ff" stroke="#63b8ff" points="363.72,-76.61 353.25,-74.95 360.4,-82.77 363.72,-76.61"/>
</g>
<!-- Node17&#45;&gt;Node7 -->
<g id="edge45" class="edge">
<title>Node17&#45;&gt;Node7</title>
<path fill="none" stroke="#63b8ff" d="M654.07,-445.57C717.44,-436.97 837.8,-419.14 852.38,-406 874.37,-386.16 871.38,-371.74 871.38,-342.12 871.38,-342.12 871.38,-342.12 871.38,-174.38 871.38,-111.47 788.68,-83.78 736.98,-72.61"/>
<polygon fill="#63b8ff" stroke="#63b8ff" points="737.96,-69.03 727.46,-70.47 736.56,-75.89 737.96,-69.03"/>
</g>
<!-- Node17&#45;&gt;Node8 -->
<g id="edge26" class="edge">
<title>Node17&#45;&gt;Node8</title>
<path fill="none" stroke="#63b8ff" d="M576.53,-441.99C513.01,-425.6 388.29,-383.47 331.38,-295.5 322.95,-282.48 320.41,-264.97 319.86,-251.57"/>
<polygon fill="#63b8ff" stroke="#63b8ff" points="323.35,-251.66 319.8,-241.67 316.35,-251.69 323.35,-251.66"/>
</g>
<!-- Node18 -->
<g id="node18" class="node">
<title>Node18</title>
<g id="a_node18"><a xlink:title=" ">
<polygon fill="#e0e0e0" stroke="#999999" points="843.62,-406 799.12,-406 799.12,-386.75 843.62,-386.75 843.62,-406"/>
<text text-anchor="middle" x="821.38" y="-392.5" font-family="Helvetica,sans-Serif" font-size="10.00">stdio.h</text>
</a>
</g>
</g>
<!-- Node17&#45;&gt;Node18 -->
<g id="edge24" class="edge">
<title>Node17&#45;&gt;Node18</title>
<path fill="none" stroke="#63b8ff" d="M650.32,-441.59C688.87,-431.63 750.45,-415.71 788.25,-405.94"/>
<polygon fill="#63b8ff" stroke="#63b8ff" points="788.91,-409.12 797.71,-403.23 787.15,-402.35 788.91,-409.12"/>
</g>
<!-- Node19 -->
<g id="node19" class="node">
<title>Node19</title>
<g id="a_node19"><a xlink:title=" ">
<polygon fill="#e0e0e0" stroke="#999999" points="560.62,-406 516.12,-406 516.12,-386.75 560.62,-386.75 560.62,-406"/>
<text text-anchor="middle" x="538.38" y="-392.5" font-family="Helvetica,sans-Serif" font-size="10.00">iosfwd</text>
</a>
</g>
</g>
<!-- Node17&#45;&gt;Node19 -->
<g id="edge25" class="edge">
<title>Node17&#45;&gt;Node19</title>
<path fill="none" stroke="#63b8ff" d="M602.31,-441.59C590.81,-433.64 573.82,-421.89 560.24,-412.5"/>
<polygon fill="#63b8ff" stroke="#63b8ff" points="562.72,-409.26 552.5,-406.45 558.74,-415.02 562.72,-409.26"/>
</g>
<!-- Node20 -->
<g id="node20" class="node">
<title>Node20</title>
<g id="a_node20"><a xlink:href="v8-maybe_8h.html" target="_top" xlink:title=" ">
<polygon fill="white" stroke="#666666" points="680.12,-185 614.62,-185 614.62,-165.75 680.12,-165.75 680.12,-185"/>
<text text-anchor="middle" x="647.38" y="-171.5" font-family="Helvetica,sans-Serif" font-size="10.00">v8&#45;maybe.h</text>
</a>
</g>
</g>
<!-- Node17&#45;&gt;Node20 -->
<g id="edge27" class="edge">
<title>Node17&#45;&gt;Node20</title>
<path fill="none" stroke="#63b8ff" d="M626.92,-441.8C637.13,-433.5 651.85,-420.24 661.38,-406 676.07,-384.03 678.4,-376.71 683.38,-350.75 690.19,-315.2 693.81,-293.34 671.38,-221 668.55,-211.89 663.81,-202.48 659.28,-194.67"/>
<polygon fill="#63b8ff" stroke="#63b8ff" points="661.85,-193.17 653.64,-186.48 655.89,-196.84 661.85,-193.17"/>
</g>
<!-- Node22 -->
<g id="node22" class="node">
<title>Node22</title>
<g id="a_node22"><a xlink:href="v8-primitive_8h.html" target="_top" xlink:title=" ">
<polygon fill="white" stroke="#666666" points="652.25,-406 578.5,-406 578.5,-386.75 652.25,-386.75 652.25,-406"/>
<text text-anchor="middle" x="615.38" y="-392.5" font-family="Helvetica,sans-Serif" font-size="10.00">v8&#45;primitive.h</text>
</a>
</g>
</g>
<!-- Node17&#45;&gt;Node22 -->
<g id="edge32" class="edge">
<title>Node17&#45;&gt;Node22</title>
<path fill="none" stroke="#63b8ff" d="M615.38,-441.83C615.38,-435.17 615.38,-425.74 615.38,-417.28"/>
<polygon fill="#63b8ff" stroke="#63b8ff" points="618.88,-417.36 615.38,-407.36 611.88,-417.36 618.88,-417.36"/>
</g>
<!-- Node20&#45;&gt;Node7 -->
<g id="edge31" class="edge">
<title>Node20&#45;&gt;Node7</title>
<path fill="none" stroke="#63b8ff" d="M651.38,-165.5C659.32,-147.93 677.17,-108.41 687.84,-84.77"/>
<polygon fill="#63b8ff" stroke="#63b8ff" points="691.38,-86.43 692.31,-75.88 685,-83.55 691.38,-86.43"/>
</g>
<!-- Node20&#45;&gt;Node10 -->
<g id="edge28" class="edge">
<title>Node20&#45;&gt;Node10</title>
<path fill="none" stroke="#63b8ff" d="M636.16,-165.5C612.98,-147.14 559.51,-104.79 530.3,-81.66"/>
<polygon fill="#63b8ff" stroke="#63b8ff" points="532.75,-78.34 522.74,-74.88 528.41,-83.83 532.75,-78.34"/>
</g>
<!-- Node20&#45;&gt;Node12 -->
<g id="edge30" class="edge">
<title>Node20&#45;&gt;Node12</title>
<path fill="none" stroke="#63b8ff" d="M614.56,-166.17C578.43,-157.14 520.11,-142.56 479.64,-132.44"/>
<polygon fill="#63b8ff" stroke="#63b8ff" points="480.55,-128.81 470,-129.78 478.85,-135.6 480.55,-128.81"/>
</g>
<!-- Node21 -->
<g id="node21" class="node">
<title>Node21</title>
<g id="a_node21"><a xlink:title=" ">
<polygon fill="#e0e0e0" stroke="#999999" points="649.62,-129.75 611.12,-129.75 611.12,-110.5 649.62,-110.5 649.62,-129.75"/>
<text text-anchor="middle" x="630.38" y="-116.25" font-family="Helvetica,sans-Serif" font-size="10.00">utility</text>
</a>
</g>
</g>
<!-- Node20&#45;&gt;Node21 -->
<g id="edge29" class="edge">
<title>Node20&#45;&gt;Node21</title>
<path fill="none" stroke="#63b8ff" d="M644.57,-165.58C642.39,-158.76 639.29,-149.06 636.54,-140.45"/>
<polygon fill="#63b8ff" stroke="#63b8ff" points="639.62,-139.57 633.24,-131.11 632.95,-141.7 639.62,-139.57"/>
</g>
<!-- Node22&#45;&gt;Node7 -->
<g id="edge44" class="edge">
<title>Node22&#45;&gt;Node7</title>
<path fill="none" stroke="#63b8ff" d="M651.37,-386.27C713.29,-368.2 833.38,-321.56 833.38,-231.62 833.38,-231.62 833.38,-231.62 833.38,-174.38 833.38,-124.55 777.01,-94.01 736.59,-78.5"/>
<polygon fill="#63b8ff" stroke="#63b8ff" points="738.03,-74.94 727.44,-74.8 735.63,-81.52 738.03,-74.94"/>
</g>
<!-- Node22&#45;&gt;Node8 -->
<g id="edge37" class="edge">
<title>Node22&#45;&gt;Node8</title>
<path fill="none" stroke="#63b8ff" d="M582.44,-386.33C519.52,-368.54 385.4,-327.87 350.38,-295.5 337.44,-283.55 329.57,-264.88 325.16,-250.8"/>
<polygon fill="#63b8ff" stroke="#63b8ff" points="328.29,-250 322.23,-241.31 321.55,-251.88 328.29,-250"/>
</g>
<!-- Node22&#45;&gt;Node12 -->
<g id="edge36" class="edge">
<title>Node22&#45;&gt;Node12</title>
<path fill="none" stroke="#63b8ff" d="M606.74,-386.57C584.81,-363.87 526.02,-300.86 488.38,-240.25 467.69,-206.95 450.34,-164.38 441.24,-140.19"/>
<polygon fill="#63b8ff" stroke="#63b8ff" points="444.3,-139.37 437.56,-131.19 437.73,-141.79 444.3,-139.37"/>
</g>
<!-- Node23 -->
<g id="node23" class="node">
<title>Node23</title>
<g id="a_node23"><a xlink:href="v8-data_8h.html" target="_top" xlink:title=" ">
<polygon fill="white" stroke="#666666" points="614.25,-295.5 558.5,-295.5 558.5,-276.25 614.25,-276.25 614.25,-295.5"/>
<text text-anchor="middle" x="586.38" y="-282" font-family="Helvetica,sans-Serif" font-size="10.00">v8&#45;data.h</text>
</a>
</g>
</g>
<!-- Node22&#45;&gt;Node23 -->
<g id="edge33" class="edge">
<title>Node22&#45;&gt;Node23</title>
<path fill="none" stroke="#63b8ff" d="M613,-386.5C608.35,-369.09 597.93,-330.12 591.6,-306.41"/>
<polygon fill="#63b8ff" stroke="#63b8ff" points="594.74,-305.63 588.78,-296.88 587.98,-307.44 594.74,-305.63"/>
</g>
<!-- Node24 -->
<g id="node24" class="node">
<title>Node24</title>
<g id="a_node24"><a xlink:href="v8-value_8h.html" target="_top" xlink:title=" ">
<polygon fill="white" stroke="#666666" points="674.5,-350.75 614.25,-350.75 614.25,-331.5 674.5,-331.5 674.5,-350.75"/>
<text text-anchor="middle" x="644.38" y="-337.25" font-family="Helvetica,sans-Serif" font-size="10.00">v8&#45;value.h</text>
</a>
</g>
</g>
<!-- Node22&#45;&gt;Node24 -->
<g id="edge38" class="edge">
<title>Node22&#45;&gt;Node24</title>
<path fill="none" stroke="#63b8ff" d="M620.16,-386.58C624,-379.53 629.52,-369.4 634.32,-360.58"/>
<polygon fill="#63b8ff" stroke="#63b8ff" points="637.77,-362.57 639.48,-352.11 631.63,-359.22 637.77,-362.57"/>
</g>
<!-- Node23&#45;&gt;Node7 -->
<g id="edge35" class="edge">
<title>Node23&#45;&gt;Node7</title>
<path fill="none" stroke="#63b8ff" d="M601.32,-275.76C624.94,-260.39 670.18,-226.89 689.38,-185 704.22,-152.62 702.28,-109.99 699.41,-85.49"/>
<polygon fill="#63b8ff" stroke="#63b8ff" points="702.76,-85.2 697.95,-75.77 695.83,-86.15 702.76,-85.2"/>
</g>
<!-- Node23&#45;&gt;Node8 -->
<g id="edge34" class="edge">
<title>Node23&#45;&gt;Node8</title>
<path fill="none" stroke="#63b8ff" d="M558.41,-279.28C515.27,-270.64 431.64,-253.9 375.9,-242.74"/>
<polygon fill="#63b8ff" stroke="#63b8ff" points="376.63,-239.12 366.14,-240.59 375.26,-245.98 376.63,-239.12"/>
</g>
<!-- Node24&#45;&gt;Node7 -->
<g id="edge43" class="edge">
<title>Node24&#45;&gt;Node7</title>
<path fill="none" stroke="#63b8ff" d="M650.9,-331.29C657.1,-322.56 666.36,-308.64 672.38,-295.5 704.02,-226.41 708.92,-205.55 714.38,-129.75 714.99,-121.22 716.01,-118.9 714.38,-110.5 712.67,-101.69 709.22,-92.42 705.8,-84.63"/>
<polygon fill="#63b8ff" stroke="#63b8ff" points="708.59,-83.34 701.16,-75.79 702.26,-86.33 708.59,-83.34"/>
</g>
<!-- Node24&#45;&gt;Node8 -->
<g id="edge41" class="edge">
<title>Node24&#45;&gt;Node8</title>
<path fill="none" stroke="#63b8ff" d="M614.15,-337.51C553.56,-331.86 419.59,-317.26 379.38,-295.5 359.12,-284.54 342.05,-263.95 331.56,-249.11"/>
<polygon fill="#63b8ff" stroke="#63b8ff" points="334.15,-247.68 325.66,-241.34 328.34,-251.59 334.15,-247.68"/>
</g>
<!-- Node24&#45;&gt;Node12 -->
<g id="edge40" class="edge">
<title>Node24&#45;&gt;Node12</title>
<path fill="none" stroke="#63b8ff" d="M645.4,-331.04C647.31,-309.65 649.21,-255.31 624.38,-221 589.35,-172.62 523.7,-145.67 479.51,-132.28"/>
<polygon fill="#63b8ff" stroke="#63b8ff" points="480.62,-128.67 470.04,-129.24 478.67,-135.39 480.62,-128.67"/>
</g>
<!-- Node24&#45;&gt;Node20 -->
<g id="edge42" class="edge">
<title>Node24&#45;&gt;Node20</title>
<path fill="none" stroke="#63b8ff" d="M647.84,-331.06C651.04,-322.16 655.57,-308.12 657.38,-295.5 662.05,-262.72 661.02,-253.91 657.38,-221 656.45,-212.62 654.57,-203.5 652.68,-195.71"/>
<polygon fill="#63b8ff" stroke="#63b8ff" points="655.85,-194.97 649.95,-186.17 649.07,-196.73 655.85,-194.97"/>
</g>
<!-- Node24&#45;&gt;Node23 -->
<g id="edge39" class="edge">
<title>Node24&#45;&gt;Node23</title>
<path fill="none" stroke="#63b8ff" d="M634.54,-331.09C626.24,-323.47 614.15,-312.37 604.16,-303.2"/>
<polygon fill="#63b8ff" stroke="#63b8ff" points="606.8,-300.96 597.07,-296.77 602.07,-306.12 606.8,-300.96"/>
</g>
<!-- Node25&#45;&gt;Node7 -->
<g id="edge51" class="edge">
<title>Node25&#45;&gt;Node7</title>
<path fill="none" stroke="#63b8ff" d="M449.19,-275.82C464.8,-247.3 516.94,-158.37 584.38,-110.5 606.03,-95.12 633.74,-84.03 656.18,-76.74"/>
<polygon fill="#63b8ff" stroke="#63b8ff" points="656.89,-79.88 665.4,-73.57 654.81,-73.19 656.89,-79.88"/>
</g>
<!-- Node25&#45;&gt;Node8 -->
<g id="edge48" class="edge">
<title>Node25&#45;&gt;Node8</title>
<path fill="none" stroke="#63b8ff" d="M423.34,-275.84C403.66,-267.39 374,-254.65 351.56,-245.02"/>
<polygon fill="#63b8ff" stroke="#63b8ff" points="353.08,-241.43 342.51,-240.7 350.32,-247.86 353.08,-241.43"/>
</g>
<!-- Node25&#45;&gt;Node12 -->
<g id="edge47" class="edge">
<title>Node25&#45;&gt;Node12</title>
<path fill="none" stroke="#63b8ff" d="M436.97,-276C430.37,-267.45 421.17,-253.86 417.38,-240.25 407.73,-205.66 418.7,-163.82 426.95,-140.06"/>
<polygon fill="#63b8ff" stroke="#63b8ff" points="430.5,-141.55 430.68,-130.95 423.93,-139.12 430.5,-141.55"/>
</g>
<!-- Node26 -->
<g id="node26" class="node">
<title>Node26</title>
<g id="a_node26"><a xlink:href="v8-weak-callback-info_8h.html" target="_top" xlink:title=" ">
<polygon fill="white" stroke="#666666" points="615.38,-240.25 497.38,-240.25 497.38,-221 615.38,-221 615.38,-240.25"/>
<text text-anchor="middle" x="556.38" y="-226.75" font-family="Helvetica,sans-Serif" font-size="10.00">v8&#45;weak&#45;callback&#45;info.h</text>
</a>
</g>
</g>
<!-- Node25&#45;&gt;Node26 -->
<g id="edge49" class="edge">
<title>Node25&#45;&gt;Node26</title>
<path fill="none" stroke="#63b8ff" d="M463.37,-275.84C480.91,-267.5 507.21,-255 527.38,-245.41"/>
<polygon fill="#63b8ff" stroke="#63b8ff" points="528.75,-248.16 536.28,-240.7 525.75,-241.84 528.75,-248.16"/>
</g>
<!-- Node26&#45;&gt;Node7 -->
<g id="edge50" class="edge">
<title>Node26&#45;&gt;Node7</title>
<path fill="none" stroke="#63b8ff" d="M557.54,-220.66C560.77,-199.07 571.76,-143.49 602.38,-110.5 616.82,-94.93 637.83,-84.25 656.32,-77.25"/>
<polygon fill="#63b8ff" stroke="#63b8ff" points="657.29,-80.27 665.56,-73.64 654.97,-73.66 657.29,-80.27"/>
</g>
</g>
</svg>
