<?xml version="1.0" encoding="UTF-8" standalone="no"?>
<!DOCTYPE svg PUBLIC "-//W3C//DTD SVG 1.1//EN"
 "http://www.w3.org/Graphics/SVG/1.1/DTD/svg11.dtd">
<!-- Generated by graphviz version 8.0.5 (20230430.1635)
 -->
<!-- Title: include/v8&#45;script.h Pages: 1 -->
<svg width="1734pt" height="635pt"
 viewBox="0.00 0.00 1733.50 635.00" xmlns="http://www.w3.org/2000/svg" xmlns:xlink="http://www.w3.org/1999/xlink">
<g id="graph0" class="graph" transform="scale(1 1) rotate(0) translate(4 631)">
<title>include/v8&#45;script.h</title>
<!-- Node1 -->
<g id="node1" class="node">
<title>Node1</title>
<g id="a_node1"><a xlink:title=" ">
<polygon fill="#999999" stroke="#666666" points="1498.38,-627 1403.62,-627 1403.62,-607.75 1498.38,-607.75 1498.38,-627"/>
<text text-anchor="middle" x="1451" y="-613.5" font-family="Helvetica,sans-Serif" font-size="10.00">include/v8&#45;script.h</text>
</a>
</g>
</g>
<!-- Node2 -->
<g id="node2" class="node">
<title>Node2</title>
<g id="a_node2"><a xlink:title=" ">
<polygon fill="#e0e0e0" stroke="#999999" points="1496.25,-74.5 1445.75,-74.5 1445.75,-55.25 1496.25,-55.25 1496.25,-74.5"/>
<text text-anchor="middle" x="1471" y="-61" font-family="Helvetica,sans-Serif" font-size="10.00">stddef.h</text>
</a>
</g>
</g>
<!-- Node1&#45;&gt;Node2 -->
<g id="edge1" class="edge">
<title>Node1&#45;&gt;Node2</title>
<path fill="none" stroke="#63b8ff" d="M1498.69,-612.39C1560.37,-604.34 1660,-580.14 1660,-507.88 1660,-507.88 1660,-507.88 1660,-174.38 1660,-104.64 1562.04,-79.08 1507.17,-70.23"/>
<polygon fill="#63b8ff" stroke="#63b8ff" points="1507.9,-66.65 1497.49,-68.63 1506.86,-73.57 1507.9,-66.65"/>
</g>
<!-- Node3 -->
<g id="node3" class="node">
<title>Node3</title>
<g id="a_node3"><a xlink:title=" ">
<polygon fill="#e0e0e0" stroke="#999999" points="1041.75,-74.5 994.25,-74.5 994.25,-55.25 1041.75,-55.25 1041.75,-74.5"/>
<text text-anchor="middle" x="1018" y="-61" font-family="Helvetica,sans-Serif" font-size="10.00">stdint.h</text>
</a>
</g>
</g>
<!-- Node1&#45;&gt;Node3 -->
<g id="edge2" class="edge">
<title>Node1&#45;&gt;Node3</title>
<path fill="none" stroke="#63b8ff" d="M1467.55,-607.44C1494.77,-591.4 1546,-554.94 1546,-507.88 1546,-507.88 1546,-507.88 1546,-450.62 1546,-375.91 1584,-361.59 1584,-286.88 1584,-286.88 1584,-286.88 1584,-229.62 1584,-191.58 1560.27,-184.22 1527,-165.75 1444.97,-120.21 1411.18,-147.22 1319,-129.75 1202.9,-107.74 1171.2,-102.46 1052.7,-74.81"/>
<polygon fill="#63b8ff" stroke="#63b8ff" points="1053.65,-71.2 1043.11,-72.33 1052.05,-78.02 1053.65,-71.2"/>
</g>
<!-- Node4 -->
<g id="node4" class="node">
<title>Node4</title>
<g id="a_node4"><a xlink:title=" ">
<polygon fill="#e0e0e0" stroke="#999999" points="258.25,-19.25 207.75,-19.25 207.75,0 258.25,0 258.25,-19.25"/>
<text text-anchor="middle" x="233" y="-5.75" font-family="Helvetica,sans-Serif" font-size="10.00">memory</text>
</a>
</g>
</g>
<!-- Node1&#45;&gt;Node4 -->
<g id="edge3" class="edge">
<title>Node1&#45;&gt;Node4</title>
<path fill="none" stroke="#63b8ff" d="M1403.35,-616.04C1164.56,-614.21 107.13,-604.29 46,-571.75 15.12,-555.31 0,-542.86 0,-507.88 0,-507.88 0,-507.88 0,-119.12 0,-33.28 131.57,-15.19 196.97,-11.49"/>
<polygon fill="#63b8ff" stroke="#63b8ff" points="196.8,-14.96 206.62,-10.99 196.47,-7.97 196.8,-14.96"/>
</g>
<!-- Node5 -->
<g id="node5" class="node">
<title>Node5</title>
<g id="a_node5"><a xlink:title=" ">
<polygon fill="#e0e0e0" stroke="#999999" points="1725.5,-571.75 1688.5,-571.75 1688.5,-552.5 1725.5,-552.5 1725.5,-571.75"/>
<text text-anchor="middle" x="1707" y="-558.25" font-family="Helvetica,sans-Serif" font-size="10.00">tuple</text>
</a>
</g>
</g>
<!-- Node1&#45;&gt;Node5 -->
<g id="edge4" class="edge">
<title>Node1&#45;&gt;Node5</title>
<path fill="none" stroke="#63b8ff" d="M1498.59,-607.68C1543.86,-599.22 1613.79,-585.63 1674,-571.75 1675.3,-571.45 1676.62,-571.14 1677.96,-570.81"/>
<polygon fill="#63b8ff" stroke="#63b8ff" points="1678.35,-574.07 1687.2,-568.24 1676.65,-567.28 1678.35,-574.07"/>
</g>
<!-- Node6 -->
<g id="node6" class="node">
<title>Node6</title>
<g id="a_node6"><a xlink:title=" ">
<polygon fill="#e0e0e0" stroke="#999999" points="1517.5,-185 1474.5,-185 1474.5,-165.75 1517.5,-165.75 1517.5,-185"/>
<text text-anchor="middle" x="1496" y="-171.5" font-family="Helvetica,sans-Serif" font-size="10.00">vector</text>
</a>
</g>
</g>
<!-- Node1&#45;&gt;Node6 -->
<g id="edge5" class="edge">
<title>Node1&#45;&gt;Node6</title>
<path fill="none" stroke="#63b8ff" d="M1494.77,-607.28C1516.84,-600.71 1542.55,-589.72 1560,-571.75 1581.13,-550 1584,-538.2 1584,-507.88 1584,-507.88 1584,-507.88 1584,-450.62 1584,-349.67 1529.27,-237.38 1506.13,-194.42"/>
<polygon fill="#63b8ff" stroke="#63b8ff" points="1508.86,-193.12 1500.98,-186.04 1502.73,-196.49 1508.86,-193.12"/>
</g>
<!-- Node7 -->
<g id="node7" class="node">
<title>Node7</title>
<g id="a_node7"><a xlink:href="v8-callbacks_8h.html" target="_top" xlink:title=" ">
<polygon fill="white" stroke="#666666" points="1001.12,-571.75 922.88,-571.75 922.88,-552.5 1001.12,-552.5 1001.12,-571.75"/>
<text text-anchor="middle" x="962" y="-558.25" font-family="Helvetica,sans-Serif" font-size="10.00">v8&#45;callbacks.h</text>
</a>
</g>
</g>
<!-- Node1&#45;&gt;Node7 -->
<g id="edge6" class="edge">
<title>Node1&#45;&gt;Node7</title>
<path fill="none" stroke="#63b8ff" d="M1403.22,-611.17C1310.41,-601.07 1106.57,-578.87 1012,-568.57"/>
<polygon fill="#63b8ff" stroke="#63b8ff" points="1012.62,-565.01 1002.3,-567.4 1011.86,-571.97 1012.62,-565.01"/>
</g>
<!-- Node11 -->
<g id="node11" class="node">
<title>Node11</title>
<g id="a_node11"><a xlink:href="v8config_8h.html" target="_top" xlink:title=" ">
<polygon fill="white" stroke="#666666" points="458.75,-74.5 399.25,-74.5 399.25,-55.25 458.75,-55.25 458.75,-74.5"/>
<text text-anchor="middle" x="429" y="-61" font-family="Helvetica,sans-Serif" font-size="10.00">v8config.h</text>
</a>
</g>
</g>
<!-- Node1&#45;&gt;Node11 -->
<g id="edge94" class="edge">
<title>Node1&#45;&gt;Node11</title>
<path fill="none" stroke="#63b8ff" d="M1403.19,-615.56C1217.73,-612.25 545.67,-598.61 334,-571.75 200.49,-554.81 38,-642.46 38,-507.88 38,-507.88 38,-507.88 38,-229.62 38,-165.85 64,-144.43 118,-110.5 162.21,-82.73 314.19,-71.54 388.05,-67.66"/>
<polygon fill="#63b8ff" stroke="#63b8ff" points="387.98,-71.12 397.79,-67.12 387.62,-64.13 387.98,-71.12"/>
</g>
<!-- Node12 -->
<g id="node12" class="node">
<title>Node12</title>
<g id="a_node12"><a xlink:href="v8-data_8h.html" target="_top" xlink:title=" ">
<polygon fill="white" stroke="#666666" points="1149.88,-295.5 1094.12,-295.5 1094.12,-276.25 1149.88,-276.25 1149.88,-295.5"/>
<text text-anchor="middle" x="1122" y="-282" font-family="Helvetica,sans-Serif" font-size="10.00">v8&#45;data.h</text>
</a>
</g>
</g>
<!-- Node1&#45;&gt;Node12 -->
<g id="edge78" class="edge">
<title>Node1&#45;&gt;Node12</title>
<path fill="none" stroke="#63b8ff" d="M1403.29,-614.4C1233.86,-606.88 668.58,-577.39 618,-516.5 495.57,-369.1 843.25,-433.67 1016,-350.75 1046.1,-336.3 1078.71,-315.86 1099.7,-302.02"/>
<polygon fill="#63b8ff" stroke="#63b8ff" points="1101.36,-304.46 1107.74,-296 1097.48,-298.63 1101.36,-304.46"/>
</g>
<!-- Node13 -->
<g id="node13" class="node">
<title>Node13</title>
<g id="a_node13"><a xlink:href="v8-local-handle_8h.html" target="_top" xlink:title=" ">
<polygon fill="white" stroke="#666666" points="1374.38,-240.25 1285.62,-240.25 1285.62,-221 1374.38,-221 1374.38,-240.25"/>
<text text-anchor="middle" x="1330" y="-226.75" font-family="Helvetica,sans-Serif" font-size="10.00">v8&#45;local&#45;handle.h</text>
</a>
</g>
</g>
<!-- Node1&#45;&gt;Node13 -->
<g id="edge79" class="edge">
<title>Node1&#45;&gt;Node13</title>
<path fill="none" stroke="#63b8ff" d="M1453.64,-607.47C1458.86,-589.05 1470,-545.36 1470,-507.88 1470,-507.88 1470,-507.88 1470,-340.12 1470,-289.95 1413.12,-259.66 1371.87,-244.29"/>
<polygon fill="#63b8ff" stroke="#63b8ff" points="1373.36,-240.74 1362.77,-240.7 1371.02,-247.34 1373.36,-240.74"/>
</g>
<!-- Node22 -->
<g id="node22" class="node">
<title>Node22</title>
<g id="a_node22"><a xlink:href="v8-maybe_8h.html" target="_top" xlink:title=" ">
<polygon fill="white" stroke="#666666" points="999.75,-295.5 934.25,-295.5 934.25,-276.25 999.75,-276.25 999.75,-295.5"/>
<text text-anchor="middle" x="967" y="-282" font-family="Helvetica,sans-Serif" font-size="10.00">v8&#45;maybe.h</text>
</a>
</g>
</g>
<!-- Node1&#45;&gt;Node22 -->
<g id="edge80" class="edge">
<title>Node1&#45;&gt;Node22</title>
<path fill="none" stroke="#63b8ff" d="M1403.15,-614.94C1168.44,-607.6 150,-572.05 150,-507.88 150,-507.88 150,-507.88 150,-450.62 150,-371.04 753.68,-307.28 923.2,-290.95"/>
<polygon fill="#63b8ff" stroke="#63b8ff" points="923.34,-294.35 932.96,-289.92 922.67,-287.39 923.34,-294.35"/>
</g>
<!-- Node32 -->
<g id="node32" class="node">
<title>Node32</title>
<g id="a_node32"><a xlink:href="v8-memory-span_8h.html" target="_top" xlink:title=" ">
<polygon fill="white" stroke="#666666" points="1423.75,-129.75 1328.25,-129.75 1328.25,-110.5 1423.75,-110.5 1423.75,-129.75"/>
<text text-anchor="middle" x="1376" y="-116.25" font-family="Helvetica,sans-Serif" font-size="10.00">v8&#45;memory&#45;span.h</text>
</a>
</g>
</g>
<!-- Node1&#45;&gt;Node32 -->
<g id="edge81" class="edge">
<title>Node1&#45;&gt;Node32</title>
<path fill="none" stroke="#63b8ff" d="M1498.63,-607.44C1549.23,-594.87 1622,-566.59 1622,-507.88 1622,-507.88 1622,-507.88 1622,-229.62 1622,-199.3 1621.1,-185.4 1598,-165.75 1573.88,-145.23 1492.19,-132.86 1434.94,-126.51"/>
<polygon fill="#63b8ff" stroke="#63b8ff" points="1435.52,-122.95 1425.2,-125.36 1434.77,-129.91 1435.52,-122.95"/>
</g>
<!-- Node34 -->
<g id="node34" class="node">
<title>Node34</title>
<g id="a_node34"><a xlink:href="v8-message_8h.html" target="_top" xlink:title=" ">
<polygon fill="white" stroke="#666666" points="1160.38,-461.25 1083.62,-461.25 1083.62,-442 1160.38,-442 1160.38,-461.25"/>
<text text-anchor="middle" x="1122" y="-447.75" font-family="Helvetica,sans-Serif" font-size="10.00">v8&#45;message.h</text>
</a>
</g>
</g>
<!-- Node1&#45;&gt;Node34 -->
<g id="edge87" class="edge">
<title>Node1&#45;&gt;Node34</title>
<path fill="none" stroke="#63b8ff" d="M1432.84,-607.34C1378.24,-580.16 1215.29,-499.06 1149.75,-466.44"/>
<polygon fill="#63b8ff" stroke="#63b8ff" points="1151.61,-462.96 1141.1,-461.63 1148.49,-469.22 1151.61,-462.96"/>
</g>
<!-- Node7&#45;&gt;Node2 -->
<g id="edge7" class="edge">
<title>Node7&#45;&gt;Node2</title>
<path fill="none" stroke="#63b8ff" d="M1001.27,-561.67C1126.46,-562.38 1508,-556.04 1508,-452.62 1508,-452.62 1508,-452.62 1508,-284.88 1508,-231.26 1540.55,-217.62 1527,-165.75 1518.83,-134.47 1498.44,-102.62 1484.65,-83.55"/>
<polygon fill="#63b8ff" stroke="#63b8ff" points="1486.92,-81.75 1478.14,-75.82 1481.31,-85.93 1486.92,-81.75"/>
</g>
<!-- Node8 -->
<g id="node8" class="node">
<title>Node8</title>
<g id="a_node8"><a xlink:title=" ">
<polygon fill="#e0e0e0" stroke="#999999" points="991,-516.5 933,-516.5 933,-497.25 991,-497.25 991,-516.5"/>
<text text-anchor="middle" x="962" y="-503" font-family="Helvetica,sans-Serif" font-size="10.00">functional</text>
</a>
</g>
</g>
<!-- Node7&#45;&gt;Node8 -->
<g id="edge8" class="edge">
<title>Node7&#45;&gt;Node8</title>
<path fill="none" stroke="#63b8ff" d="M962,-552.33C962,-545.67 962,-536.24 962,-527.78"/>
<polygon fill="#63b8ff" stroke="#63b8ff" points="965.5,-527.86 962,-517.86 958.5,-527.86 965.5,-527.86"/>
</g>
<!-- Node9 -->
<g id="node9" class="node">
<title>Node9</title>
<g id="a_node9"><a xlink:title=" ">
<polygon fill="#e0e0e0" stroke="#999999" points="915,-516.5 875,-516.5 875,-497.25 915,-497.25 915,-516.5"/>
<text text-anchor="middle" x="895" y="-503" font-family="Helvetica,sans-Serif" font-size="10.00">string</text>
</a>
</g>
</g>
<!-- Node7&#45;&gt;Node9 -->
<g id="edge9" class="edge">
<title>Node7&#45;&gt;Node9</title>
<path fill="none" stroke="#63b8ff" d="M950.63,-552.09C940.76,-544.24 926.23,-532.7 914.5,-523.37"/>
<polygon fill="#63b8ff" stroke="#63b8ff" points="917.2,-520.26 907.2,-516.77 912.85,-525.74 917.2,-520.26"/>
</g>
<!-- Node10 -->
<g id="node10" class="node">
<title>Node10</title>
<g id="a_node10"><a xlink:href="common_8h.html" target="_top" xlink:title=" ">
<polygon fill="white" stroke="#666666" points="158.12,-350.75 67.88,-350.75 67.88,-331.5 158.12,-331.5 158.12,-350.75"/>
<text text-anchor="middle" x="113" y="-337.25" font-family="Helvetica,sans-Serif" font-size="10.00">cppgc/common.h</text>
</a>
</g>
</g>
<!-- Node7&#45;&gt;Node10 -->
<g id="edge10" class="edge">
<title>Node7&#45;&gt;Node10</title>
<path fill="none" stroke="#63b8ff" d="M922.58,-560.53C781.88,-558.13 309.62,-547.82 250,-516.5 183.31,-481.46 138.52,-398.1 121.12,-360.77"/>
<polygon fill="#63b8ff" stroke="#63b8ff" points="124.09,-359.82 116.78,-352.15 117.71,-362.7 124.09,-359.82"/>
</g>
<!-- Node7&#45;&gt;Node11 -->
<g id="edge77" class="edge">
<title>Node7&#45;&gt;Node11</title>
<path fill="none" stroke="#63b8ff" d="M922.61,-561.88C817.3,-561.85 525.16,-548.18 347,-406 235.27,-316.84 130.09,-221.63 220,-110.5 240.74,-84.86 333.44,-73.31 388.17,-68.65"/>
<polygon fill="#63b8ff" stroke="#63b8ff" points="388.22,-72.07 397.91,-67.78 387.66,-65.1 388.22,-72.07"/>
</g>
<!-- Node7&#45;&gt;Node12 -->
<g id="edge13" class="edge">
<title>Node7&#45;&gt;Node12</title>
<path fill="none" stroke="#63b8ff" d="M970.78,-552.03C978.92,-543.33 991.08,-529.63 1000,-516.5 1050.22,-442.6 1095.71,-345.71 1113.77,-305.55"/>
<polygon fill="#63b8ff" stroke="#63b8ff" points="1117.33,-307.16 1118.2,-296.6 1110.94,-304.31 1117.33,-307.16"/>
</g>
<!-- Node7&#45;&gt;Node13 -->
<g id="edge30" class="edge">
<title>Node7&#45;&gt;Node13</title>
<path fill="none" stroke="#63b8ff" d="M1001.5,-555.98C1114.33,-540.17 1430,-487.87 1430,-397.38 1430,-397.38 1430,-397.38 1430,-340.12 1430,-297.09 1386.93,-263.81 1357.32,-246.01"/>
<polygon fill="#63b8ff" stroke="#63b8ff" points="1359.29,-242.53 1348.88,-240.58 1355.8,-248.6 1359.29,-242.53"/>
</g>
<!-- Node20 -->
<g id="node20" class="node">
<title>Node20</title>
<g id="a_node20"><a xlink:href="v8-promise_8h.html" target="_top" xlink:title=" ">
<polygon fill="white" stroke="#666666" points="698.75,-516.5 627.25,-516.5 627.25,-497.25 698.75,-497.25 698.75,-516.5"/>
<text text-anchor="middle" x="663" y="-503" font-family="Helvetica,sans-Serif" font-size="10.00">v8&#45;promise.h</text>
</a>
</g>
</g>
<!-- Node7&#45;&gt;Node20 -->
<g id="edge31" class="edge">
<title>Node7&#45;&gt;Node20</title>
<path fill="none" stroke="#63b8ff" d="M922.6,-554.11C867.78,-544.35 768.63,-526.69 710.01,-516.25"/>
<polygon fill="#63b8ff" stroke="#63b8ff" points="710.66,-512.63 700.21,-514.32 709.44,-519.52 710.66,-512.63"/>
</g>
<!-- Node10&#45;&gt;Node11 -->
<g id="edge11" class="edge">
<title>Node10&#45;&gt;Node11</title>
<path fill="none" stroke="#63b8ff" d="M113.14,-331.12C113.41,-312.53 114,-268.55 114,-231.62 114,-231.62 114,-231.62 114,-174.38 114,-144.05 114.45,-129.61 138,-110.5 175.62,-79.96 317.15,-70.18 388.02,-67.16"/>
<polygon fill="#63b8ff" stroke="#63b8ff" points="387.91,-70.63 397.77,-66.73 387.64,-63.63 387.91,-70.63"/>
</g>
<!-- Node11&#45;&gt;Node4 -->
<g id="edge12" class="edge">
<title>Node11&#45;&gt;Node4</title>
<path fill="none" stroke="#63b8ff" d="M398.8,-55.67C363.82,-46.17 306.21,-30.51 268.94,-20.39"/>
<polygon fill="#63b8ff" stroke="#63b8ff" points="270.11,-16.81 259.54,-17.56 268.28,-23.56 270.11,-16.81"/>
</g>
<!-- Node12&#45;&gt;Node11 -->
<g id="edge29" class="edge">
<title>Node12&#45;&gt;Node11</title>
<path fill="none" stroke="#63b8ff" d="M1113.08,-275.96C1090.58,-253.98 1028.92,-196.72 967,-165.75 796.73,-80.61 563.37,-67.56 470.03,-65.91"/>
<polygon fill="#63b8ff" stroke="#63b8ff" points="470.14,-62.4 460.09,-65.76 470.04,-69.4 470.14,-62.4"/>
</g>
<!-- Node12&#45;&gt;Node13 -->
<g id="edge14" class="edge">
<title>Node12&#45;&gt;Node13</title>
<path fill="none" stroke="#63b8ff" d="M1150.05,-277.69C1184.36,-268.91 1242.9,-253.92 1283.87,-243.44"/>
<polygon fill="#63b8ff" stroke="#63b8ff" points="1284.58,-246.61 1293.4,-240.74 1282.84,-239.83 1284.58,-246.61"/>
</g>
<!-- Node13&#45;&gt;Node2 -->
<g id="edge15" class="edge">
<title>Node13&#45;&gt;Node2</title>
<path fill="none" stroke="#63b8ff" d="M1353.46,-220.59C1385.81,-206.67 1442.76,-176.59 1466,-129.75 1472.81,-116.02 1473.74,-98.56 1473.14,-85.37"/>
<polygon fill="#63b8ff" stroke="#63b8ff" points="1476.57,-85.37 1472.29,-75.68 1469.6,-85.93 1476.57,-85.37"/>
</g>
<!-- Node13&#45;&gt;Node6 -->
<g id="edge17" class="edge">
<title>Node13&#45;&gt;Node6</title>
<path fill="none" stroke="#63b8ff" d="M1358.16,-220.59C1387.45,-211.2 1433.24,-196.51 1463.91,-186.67"/>
<polygon fill="#63b8ff" stroke="#63b8ff" points="1464.62,-189.79 1473.08,-183.41 1462.49,-183.13 1464.62,-189.79"/>
</g>
<!-- Node14 -->
<g id="node14" class="node">
<title>Node14</title>
<g id="a_node14"><a xlink:title=" ">
<polygon fill="#e0e0e0" stroke="#999999" points="1254.5,-74.5 1193.5,-74.5 1193.5,-55.25 1254.5,-55.25 1254.5,-74.5"/>
<text text-anchor="middle" x="1224" y="-61" font-family="Helvetica,sans-Serif" font-size="10.00">type_traits</text>
</a>
</g>
</g>
<!-- Node13&#45;&gt;Node14 -->
<g id="edge16" class="edge">
<title>Node13&#45;&gt;Node14</title>
<path fill="none" stroke="#63b8ff" d="M1349.26,-220.67C1371.24,-209.13 1402.53,-187.91 1389,-165.75 1370.78,-135.89 1349.12,-147.54 1319,-129.75 1292.8,-114.27 1263.95,-94.46 1245,-81.03"/>
<polygon fill="#63b8ff" stroke="#63b8ff" points="1247.47,-77.78 1237.3,-74.82 1243.41,-83.48 1247.47,-77.78"/>
</g>
<!-- Node15 -->
<g id="node15" class="node">
<title>Node15</title>
<g id="a_node15"><a xlink:href="v8-handle-base_8h.html" target="_top" xlink:title=" ">
<polygon fill="white" stroke="#666666" points="1379.75,-185 1290.25,-185 1290.25,-165.75 1379.75,-165.75 1379.75,-185"/>
<text text-anchor="middle" x="1335" y="-171.5" font-family="Helvetica,sans-Serif" font-size="10.00">v8&#45;handle&#45;base.h</text>
</a>
</g>
</g>
<!-- Node13&#45;&gt;Node15 -->
<g id="edge18" class="edge">
<title>Node13&#45;&gt;Node15</title>
<path fill="none" stroke="#63b8ff" d="M1330.83,-220.83C1331.45,-214.17 1332.34,-204.74 1333.13,-196.28"/>
<polygon fill="#63b8ff" stroke="#63b8ff" points="1336.71,-196.64 1334.16,-186.36 1329.74,-195.99 1336.71,-196.64"/>
</g>
<!-- Node16 -->
<g id="node16" class="node">
<title>Node16</title>
<g id="a_node16"><a xlink:href="v8-internal_8h.html" target="_top" xlink:title=" ">
<polygon fill="white" stroke="#666666" points="1144.25,-129.75 1075.75,-129.75 1075.75,-110.5 1144.25,-110.5 1144.25,-129.75"/>
<text text-anchor="middle" x="1110" y="-116.25" font-family="Helvetica,sans-Serif" font-size="10.00">v8&#45;internal.h</text>
</a>
</g>
</g>
<!-- Node13&#45;&gt;Node16 -->
<g id="edge28" class="edge">
<title>Node13&#45;&gt;Node16</title>
<path fill="none" stroke="#63b8ff" d="M1311.62,-220.56C1273.12,-201.57 1183.79,-157.52 1138.07,-134.97"/>
<polygon fill="#63b8ff" stroke="#63b8ff" points="1140,-131.52 1129.48,-130.24 1136.9,-137.8 1140,-131.52"/>
</g>
<!-- Node15&#45;&gt;Node16 -->
<g id="edge19" class="edge">
<title>Node15&#45;&gt;Node16</title>
<path fill="none" stroke="#63b8ff" d="M1296.58,-165.28C1257.4,-156.01 1196.66,-141.63 1155.2,-131.82"/>
<polygon fill="#63b8ff" stroke="#63b8ff" points="1156.11,-128.2 1145.57,-129.31 1154.5,-135.02 1156.11,-128.2"/>
</g>
<!-- Node16&#45;&gt;Node2 -->
<g id="edge20" class="edge">
<title>Node16&#45;&gt;Node2</title>
<path fill="none" stroke="#63b8ff" d="M1144.61,-114.02C1212.99,-103.93 1364.77,-81.54 1434.58,-71.25"/>
<polygon fill="#63b8ff" stroke="#63b8ff" points="1435.07,-74.57 1444.45,-69.64 1434.05,-67.64 1435.07,-74.57"/>
</g>
<!-- Node16&#45;&gt;Node3 -->
<g id="edge21" class="edge">
<title>Node16&#45;&gt;Node3</title>
<path fill="none" stroke="#63b8ff" d="M1094.39,-110.09C1080.38,-101.98 1059.57,-89.93 1043.2,-80.46"/>
<polygon fill="#63b8ff" stroke="#63b8ff" points="1045.09,-76.93 1034.68,-74.95 1041.58,-82.99 1045.09,-76.93"/>
</g>
<!-- Node16&#45;&gt;Node4 -->
<g id="edge25" class="edge">
<title>Node16&#45;&gt;Node4</title>
<path fill="none" stroke="#63b8ff" d="M1114.71,-110.34C1121.34,-96.62 1131.14,-70.13 1117,-55.25 1087.34,-24.05 432.07,-13.28 269.33,-11.08"/>
<polygon fill="#63b8ff" stroke="#63b8ff" points="269.53,-7.57 259.48,-10.93 269.43,-14.57 269.53,-7.57"/>
</g>
<!-- Node16&#45;&gt;Node11 -->
<g id="edge27" class="edge">
<title>Node16&#45;&gt;Node11</title>
<path fill="none" stroke="#63b8ff" d="M1075.29,-116.41C960.43,-107.43 592.96,-78.7 469.73,-69.06"/>
<polygon fill="#63b8ff" stroke="#63b8ff" points="470.16,-65.5 459.92,-68.21 469.61,-72.48 470.16,-65.5"/>
</g>
<!-- Node16&#45;&gt;Node14 -->
<g id="edge26" class="edge">
<title>Node16&#45;&gt;Node14</title>
<path fill="none" stroke="#63b8ff" d="M1129.34,-110.09C1147.27,-101.72 1174.21,-89.13 1194.77,-79.53"/>
<polygon fill="#63b8ff" stroke="#63b8ff" points="1195.99,-82.36 1203.57,-74.95 1193.03,-76.01 1195.99,-82.36"/>
</g>
<!-- Node17 -->
<g id="node17" class="node">
<title>Node17</title>
<g id="a_node17"><a xlink:title=" ">
<polygon fill="#e0e0e0" stroke="#999999" points="1107.75,-74.5 1060.25,-74.5 1060.25,-55.25 1107.75,-55.25 1107.75,-74.5"/>
<text text-anchor="middle" x="1084" y="-61" font-family="Helvetica,sans-Serif" font-size="10.00">string.h</text>
</a>
</g>
</g>
<!-- Node16&#45;&gt;Node17 -->
<g id="edge22" class="edge">
<title>Node16&#45;&gt;Node17</title>
<path fill="none" stroke="#63b8ff" d="M1105.71,-110.33C1102.3,-103.36 1097.42,-93.37 1093.15,-84.62"/>
<polygon fill="#63b8ff" stroke="#63b8ff" points="1095.92,-83.31 1088.39,-75.86 1089.63,-86.38 1095.92,-83.31"/>
</g>
<!-- Node18 -->
<g id="node18" class="node">
<title>Node18</title>
<g id="a_node18"><a xlink:title=" ">
<polygon fill="#e0e0e0" stroke="#999999" points="906.62,-74.5 861.38,-74.5 861.38,-55.25 906.62,-55.25 906.62,-74.5"/>
<text text-anchor="middle" x="884" y="-61" font-family="Helvetica,sans-Serif" font-size="10.00">atomic</text>
</a>
</g>
</g>
<!-- Node16&#45;&gt;Node18 -->
<g id="edge23" class="edge">
<title>Node16&#45;&gt;Node18</title>
<path fill="none" stroke="#63b8ff" d="M1075.68,-111.04C1032.83,-100.94 960.02,-83.79 917.54,-73.78"/>
<polygon fill="#63b8ff" stroke="#63b8ff" points="918.46,-70.16 907.92,-71.28 916.85,-76.98 918.46,-70.16"/>
</g>
<!-- Node19 -->
<g id="node19" class="node">
<title>Node19</title>
<g id="a_node19"><a xlink:title=" ">
<polygon fill="#e0e0e0" stroke="#999999" points="1329,-74.5 1283,-74.5 1283,-55.25 1329,-55.25 1329,-74.5"/>
<text text-anchor="middle" x="1306" y="-61" font-family="Helvetica,sans-Serif" font-size="10.00">iterator</text>
</a>
</g>
</g>
<!-- Node16&#45;&gt;Node19 -->
<g id="edge24" class="edge">
<title>Node16&#45;&gt;Node19</title>
<path fill="none" stroke="#63b8ff" d="M1143.25,-110.09C1179.18,-100.33 1236.13,-84.86 1272.25,-75.04"/>
<polygon fill="#63b8ff" stroke="#63b8ff" points="1273.01,-78.19 1281.75,-72.19 1271.18,-71.44 1273.01,-78.19"/>
</g>
<!-- Node20&#45;&gt;Node11 -->
<g id="edge76" class="edge">
<title>Node20&#45;&gt;Node11</title>
<path fill="none" stroke="#63b8ff" d="M626.77,-499.56C590.92,-492.63 534.93,-479.95 489,-461.25 335.63,-398.81 281.41,-345.07 239,-185 230.49,-152.89 212.28,-136.47 233,-110.5 252.01,-86.67 336.34,-74.59 387.99,-69.31"/>
<polygon fill="#63b8ff" stroke="#63b8ff" points="388.18,-72.71 397.79,-68.26 387.5,-65.74 388.18,-72.71"/>
</g>
<!-- Node20&#45;&gt;Node13 -->
<g id="edge32" class="edge">
<title>Node20&#45;&gt;Node13</title>
<path fill="none" stroke="#63b8ff" d="M699.15,-504.36C846.25,-497.7 1392,-468.23 1392,-397.38 1392,-397.38 1392,-397.38 1392,-340.12 1392,-303.65 1365.26,-268.29 1346.9,-248.31"/>
<polygon fill="#63b8ff" stroke="#63b8ff" points="1349.86,-246.3 1340.42,-241.5 1344.81,-251.14 1349.86,-246.3"/>
</g>
<!-- Node21 -->
<g id="node21" class="node">
<title>Node21</title>
<g id="a_node21"><a xlink:href="v8-object_8h.html" target="_top" xlink:title=" ">
<polygon fill="white" stroke="#666666" points="561.62,-461.25 498.38,-461.25 498.38,-442 561.62,-442 561.62,-461.25"/>
<text text-anchor="middle" x="530" y="-447.75" font-family="Helvetica,sans-Serif" font-size="10.00">v8&#45;object.h</text>
</a>
</g>
</g>
<!-- Node20&#45;&gt;Node21 -->
<g id="edge33" class="edge">
<title>Node20&#45;&gt;Node21</title>
<path fill="none" stroke="#63b8ff" d="M640.44,-496.84C619.13,-488.31 586.94,-475.42 562.8,-465.76"/>
<polygon fill="#63b8ff" stroke="#63b8ff" points="564.26,-462.17 553.67,-461.7 561.65,-468.67 564.26,-462.17"/>
</g>
<!-- Node21&#45;&gt;Node11 -->
<g id="edge75" class="edge">
<title>Node21&#45;&gt;Node11</title>
<path fill="none" stroke="#63b8ff" d="M497.99,-442.3C474.81,-435.22 443.54,-423.39 420,-406 375.56,-373.16 280.67,-264.47 251,-185 239.4,-153.94 226.53,-136.59 247,-110.5 264.23,-88.53 340.16,-75.96 388.34,-70.06"/>
<polygon fill="#63b8ff" stroke="#63b8ff" points="388.53,-73.45 398.05,-68.8 387.71,-66.5 388.53,-73.45"/>
</g>
<!-- Node21&#45;&gt;Node13 -->
<g id="edge35" class="edge">
<title>Node21&#45;&gt;Node13</title>
<path fill="none" stroke="#63b8ff" d="M562.03,-450.35C691.62,-449 1172.82,-441.6 1230,-406 1287.47,-370.22 1315.27,-288.52 1325.36,-251.06"/>
<polygon fill="#63b8ff" stroke="#63b8ff" points="1328.96,-252.11 1328.03,-241.56 1322.17,-250.39 1328.96,-252.11"/>
</g>
<!-- Node21&#45;&gt;Node16 -->
<g id="edge34" class="edge">
<title>Node21&#45;&gt;Node16</title>
<path fill="none" stroke="#63b8ff" d="M561.77,-450.82C684.83,-451.25 1125.35,-449.71 1168,-406 1242.73,-329.4 1206.56,-257.81 1152,-165.75 1145.8,-155.29 1136.76,-145.27 1128.66,-137.39"/>
<polygon fill="#63b8ff" stroke="#63b8ff" points="1131.42,-135.25 1121.71,-131.02 1126.66,-140.39 1131.42,-135.25"/>
</g>
<!-- Node21&#45;&gt;Node22 -->
<g id="edge36" class="edge">
<title>Node21&#45;&gt;Node22</title>
<path fill="none" stroke="#63b8ff" d="M533.8,-441.67C540.19,-427.71 554.45,-400.91 575,-386.75 684.42,-311.37 846.21,-292.86 923.2,-288.33"/>
<polygon fill="#63b8ff" stroke="#63b8ff" points="923.13,-291.78 932.93,-287.76 922.76,-284.79 923.13,-291.78"/>
</g>
<!-- Node24 -->
<g id="node24" class="node">
<title>Node24</title>
<g id="a_node24"><a xlink:href="v8-persistent-handle_8h.html" target="_top" xlink:title=" ">
<polygon fill="white" stroke="#666666" points="484.62,-295.5 373.38,-295.5 373.38,-276.25 484.62,-276.25 484.62,-295.5"/>
<text text-anchor="middle" x="429" y="-282" font-family="Helvetica,sans-Serif" font-size="10.00">v8&#45;persistent&#45;handle.h</text>
</a>
</g>
</g>
<!-- Node21&#45;&gt;Node24 -->
<g id="edge41" class="edge">
<title>Node21&#45;&gt;Node24</title>
<path fill="none" stroke="#63b8ff" d="M506.86,-441.6C491.09,-434.29 470.98,-422.49 459,-406 437.24,-376.05 431.2,-331.94 429.56,-306.65"/>
<polygon fill="#63b8ff" stroke="#63b8ff" points="433.02,-306.71 429.06,-296.89 426.03,-307.04 433.02,-306.71"/>
</g>
<!-- Node26 -->
<g id="node26" class="node">
<title>Node26</title>
<g id="a_node26"><a xlink:href="v8-primitive_8h.html" target="_top" xlink:title=" ">
<polygon fill="white" stroke="#666666" points="1158.88,-406 1085.12,-406 1085.12,-386.75 1158.88,-386.75 1158.88,-406"/>
<text text-anchor="middle" x="1122" y="-392.5" font-family="Helvetica,sans-Serif" font-size="10.00">v8&#45;primitive.h</text>
</a>
</g>
</g>
<!-- Node21&#45;&gt;Node26 -->
<g id="edge47" class="edge">
<title>Node21&#45;&gt;Node26</title>
<path fill="none" stroke="#63b8ff" d="M561.83,-447.76C659.78,-438.95 957.12,-412.21 1074.05,-401.69"/>
<polygon fill="#63b8ff" stroke="#63b8ff" points="1074.14,-405.1 1083.79,-400.72 1073.51,-398.13 1074.14,-405.1"/>
</g>
<!-- Node27 -->
<g id="node27" class="node">
<title>Node27</title>
<g id="a_node27"><a xlink:href="v8-value_8h.html" target="_top" xlink:title=" ">
<polygon fill="white" stroke="#666666" points="1007.12,-350.75 946.88,-350.75 946.88,-331.5 1007.12,-331.5 1007.12,-350.75"/>
<text text-anchor="middle" x="977" y="-337.25" font-family="Helvetica,sans-Serif" font-size="10.00">v8&#45;value.h</text>
</a>
</g>
</g>
<!-- Node21&#45;&gt;Node27 -->
<g id="edge74" class="edge">
<title>Node21&#45;&gt;Node27</title>
<path fill="none" stroke="#63b8ff" d="M537.96,-441.78C551.42,-427.47 580.25,-399.55 611,-386.75 668.91,-362.64 852.67,-349.29 935.64,-344.36"/>
<polygon fill="#63b8ff" stroke="#63b8ff" points="935.64,-347.8 945.42,-343.73 935.24,-340.82 935.64,-347.8"/>
</g>
<!-- Node28 -->
<g id="node28" class="node">
<title>Node28</title>
<g id="a_node28"><a xlink:href="v8-sandbox_8h.html" target="_top" xlink:title=" ">
<polygon fill="white" stroke="#666666" points="332.5,-185 259.5,-185 259.5,-165.75 332.5,-165.75 332.5,-185"/>
<text text-anchor="middle" x="296" y="-171.5" font-family="Helvetica,sans-Serif" font-size="10.00">v8&#45;sandbox.h</text>
</a>
</g>
</g>
<!-- Node21&#45;&gt;Node28 -->
<g id="edge58" class="edge">
<title>Node21&#45;&gt;Node28</title>
<path fill="none" stroke="#63b8ff" d="M505.56,-441.56C487.26,-433.96 462.35,-421.81 444,-406 371.93,-343.88 321.93,-238.11 303.67,-195.25"/>
<polygon fill="#63b8ff" stroke="#63b8ff" points="306.53,-194.01 299.45,-186.13 300.07,-196.71 306.53,-194.01"/>
</g>
<!-- Node30 -->
<g id="node30" class="node">
<title>Node30</title>
<g id="a_node30"><a xlink:href="v8-traced-handle_8h.html" target="_top" xlink:title=" ">
<polygon fill="white" stroke="#666666" points="834.75,-295.5 739.25,-295.5 739.25,-276.25 834.75,-276.25 834.75,-295.5"/>
<text text-anchor="middle" x="787" y="-282" font-family="Helvetica,sans-Serif" font-size="10.00">v8&#45;traced&#45;handle.h</text>
</a>
</g>
</g>
<!-- Node21&#45;&gt;Node30 -->
<g id="edge62" class="edge">
<title>Node21&#45;&gt;Node30</title>
<path fill="none" stroke="#63b8ff" d="M519.43,-441.55C506.37,-429.18 487.03,-406.33 497,-386.75 515.95,-349.54 534.82,-348.42 573,-331.5 622.74,-309.46 683.88,-298.11 728.05,-292.39"/>
<polygon fill="#63b8ff" stroke="#63b8ff" points="728.4,-295.75 737.9,-291.05 727.55,-288.8 728.4,-295.75"/>
</g>
<!-- Node22&#45;&gt;Node11 -->
<g id="edge40" class="edge">
<title>Node22&#45;&gt;Node11</title>
<path fill="none" stroke="#63b8ff" d="M976.24,-276.05C988.57,-263.19 1007.49,-238.86 995,-221 913.12,-103.85 831.15,-147.12 693,-110.5 615.35,-89.92 522.23,-76.79 469.91,-70.43"/>
<polygon fill="#63b8ff" stroke="#63b8ff" points="470.42,-66.85 460.07,-69.14 469.59,-73.8 470.42,-66.85"/>
</g>
<!-- Node22&#45;&gt;Node14 -->
<g id="edge37" class="edge">
<title>Node22&#45;&gt;Node14</title>
<path fill="none" stroke="#63b8ff" d="M987.78,-275.8C1005.2,-267.71 1030.31,-254.9 1050,-240.25 1116.48,-190.76 1182.01,-116.28 1209.94,-83"/>
<polygon fill="#63b8ff" stroke="#63b8ff" points="1213.09,-85.69 1216.79,-75.76 1207.71,-81.21 1213.09,-85.69"/>
</g>
<!-- Node22&#45;&gt;Node16 -->
<g id="edge39" class="edge">
<title>Node22&#45;&gt;Node16</title>
<path fill="none" stroke="#63b8ff" d="M982.14,-275.85C995.2,-267.6 1014.1,-254.55 1028,-240.25 1058.64,-208.72 1085.72,-164.6 1099.79,-139.85"/>
<polygon fill="#63b8ff" stroke="#63b8ff" points="1103.33,-141.68 1105.14,-131.25 1097.21,-138.28 1103.33,-141.68"/>
</g>
<!-- Node23 -->
<g id="node23" class="node">
<title>Node23</title>
<g id="a_node23"><a xlink:title=" ">
<polygon fill="#e0e0e0" stroke="#999999" points="986.25,-240.25 947.75,-240.25 947.75,-221 986.25,-221 986.25,-240.25"/>
<text text-anchor="middle" x="967" y="-226.75" font-family="Helvetica,sans-Serif" font-size="10.00">utility</text>
</a>
</g>
</g>
<!-- Node22&#45;&gt;Node23 -->
<g id="edge38" class="edge">
<title>Node22&#45;&gt;Node23</title>
<path fill="none" stroke="#63b8ff" d="M967,-276.08C967,-269.42 967,-259.99 967,-251.53"/>
<polygon fill="#63b8ff" stroke="#63b8ff" points="970.5,-251.61 967,-241.61 963.5,-251.61 970.5,-251.61"/>
</g>
<!-- Node24&#45;&gt;Node11 -->
<g id="edge46" class="edge">
<title>Node24&#45;&gt;Node11</title>
<path fill="none" stroke="#63b8ff" d="M399.08,-275.89C382.03,-269.06 362.11,-257.79 352,-240.25 347.73,-232.84 350.05,-229.33 352,-221 364.53,-167.56 398.36,-111.44 416.73,-83.65"/>
<polygon fill="#63b8ff" stroke="#63b8ff" points="420.04,-86 422.73,-75.75 414.23,-82.08 420.04,-86"/>
</g>
<!-- Node24&#45;&gt;Node13 -->
<g id="edge43" class="edge">
<title>Node24&#45;&gt;Node13</title>
<path fill="none" stroke="#63b8ff" d="M485.02,-281.56C646.82,-272 1113.49,-244.42 1274.56,-234.9"/>
<polygon fill="#63b8ff" stroke="#63b8ff" points="1274.39,-238.36 1284.17,-234.27 1273.98,-231.37 1274.39,-238.36"/>
</g>
<!-- Node24&#45;&gt;Node16 -->
<g id="edge42" class="edge">
<title>Node24&#45;&gt;Node16</title>
<path fill="none" stroke="#63b8ff" d="M406.82,-275.94C380.52,-264.09 342.44,-242.2 361,-221 407.73,-167.62 910.24,-133.14 1064.94,-123.73"/>
<polygon fill="#63b8ff" stroke="#63b8ff" points="1064.69,-127.19 1074.46,-123.1 1064.27,-120.21 1064.69,-127.19"/>
</g>
<!-- Node25 -->
<g id="node25" class="node">
<title>Node25</title>
<g id="a_node25"><a xlink:href="v8-weak-callback-info_8h.html" target="_top" xlink:title=" ">
<polygon fill="white" stroke="#666666" points="488,-240.25 370,-240.25 370,-221 488,-221 488,-240.25"/>
<text text-anchor="middle" x="429" y="-226.75" font-family="Helvetica,sans-Serif" font-size="10.00">v8&#45;weak&#45;callback&#45;info.h</text>
</a>
</g>
</g>
<!-- Node24&#45;&gt;Node25 -->
<g id="edge44" class="edge">
<title>Node24&#45;&gt;Node25</title>
<path fill="none" stroke="#63b8ff" d="M429,-276.08C429,-269.42 429,-259.99 429,-251.53"/>
<polygon fill="#63b8ff" stroke="#63b8ff" points="432.5,-251.61 429,-241.61 425.5,-251.61 432.5,-251.61"/>
</g>
<!-- Node25&#45;&gt;Node11 -->
<g id="edge45" class="edge">
<title>Node25&#45;&gt;Node11</title>
<path fill="none" stroke="#63b8ff" d="M429,-220.82C429,-195.39 429,-121.35 429,-85.62"/>
<polygon fill="#63b8ff" stroke="#63b8ff" points="432.5,-85.72 429,-75.72 425.5,-85.72 432.5,-85.72"/>
</g>
<!-- Node26&#45;&gt;Node11 -->
<g id="edge57" class="edge">
<title>Node26&#45;&gt;Node11</title>
<path fill="none" stroke="#63b8ff" d="M1084.78,-390.03C972.98,-373.22 643.5,-317.88 573,-240.25 532.16,-195.28 570.85,-155.47 530,-110.5 514.09,-92.98 490.03,-81.98 469.38,-75.28"/>
<polygon fill="#63b8ff" stroke="#63b8ff" points="470.54,-71.68 459.96,-72.16 468.53,-78.38 470.54,-71.68"/>
</g>
<!-- Node26&#45;&gt;Node12 -->
<g id="edge48" class="edge">
<title>Node26&#45;&gt;Node12</title>
<path fill="none" stroke="#63b8ff" d="M1122,-386.5C1122,-369.17 1122,-330.48 1122,-306.74"/>
<polygon fill="#63b8ff" stroke="#63b8ff" points="1125.5,-306.88 1122,-296.88 1118.5,-306.88 1125.5,-306.88"/>
</g>
<!-- Node26&#45;&gt;Node13 -->
<g id="edge50" class="edge">
<title>Node26&#45;&gt;Node13</title>
<path fill="none" stroke="#63b8ff" d="M1137.73,-386.25C1152.21,-377.65 1174.09,-364.1 1192,-350.75 1232.54,-320.52 1239.7,-309.27 1278,-276.25 1289.04,-266.73 1301.42,-256.11 1311.33,-247.61"/>
<polygon fill="#63b8ff" stroke="#63b8ff" points="1313.31,-249.67 1318.63,-240.5 1308.76,-244.35 1313.31,-249.67"/>
</g>
<!-- Node26&#45;&gt;Node16 -->
<g id="edge49" class="edge">
<title>Node26&#45;&gt;Node16</title>
<path fill="none" stroke="#63b8ff" d="M1126.61,-386.32C1135.06,-369.15 1152.74,-330.45 1159,-295.5 1169.42,-237.38 1138.19,-170.71 1120.81,-139.3"/>
<polygon fill="#63b8ff" stroke="#63b8ff" points="1123.53,-138 1115.52,-131.06 1117.45,-141.48 1123.53,-138"/>
</g>
<!-- Node26&#45;&gt;Node27 -->
<g id="edge51" class="edge">
<title>Node26&#45;&gt;Node27</title>
<path fill="none" stroke="#63b8ff" d="M1097.4,-386.34C1073.86,-377.7 1038.13,-364.57 1011.7,-354.87"/>
<polygon fill="#63b8ff" stroke="#63b8ff" points="1013.31,-351.36 1002.72,-351.2 1010.9,-357.94 1013.31,-351.36"/>
</g>
<!-- Node27&#45;&gt;Node11 -->
<g id="edge56" class="edge">
<title>Node27&#45;&gt;Node11</title>
<path fill="none" stroke="#63b8ff" d="M946.73,-340.9C897.9,-340.84 800.15,-335.22 730,-295.5 634.89,-241.66 659.35,-170.5 568,-110.5 538.13,-90.88 499,-79.34 469.87,-72.93"/>
<polygon fill="#63b8ff" stroke="#63b8ff" points="470.74,-69.32 460.24,-70.71 469.31,-76.18 470.74,-69.32"/>
</g>
<!-- Node27&#45;&gt;Node12 -->
<g id="edge52" class="edge">
<title>Node27&#45;&gt;Node12</title>
<path fill="none" stroke="#63b8ff" d="M1001.6,-331.09C1025.14,-322.45 1060.87,-309.32 1087.3,-299.62"/>
<polygon fill="#63b8ff" stroke="#63b8ff" points="1088.1,-302.69 1096.28,-295.95 1085.69,-296.11 1088.1,-302.69"/>
</g>
<!-- Node27&#45;&gt;Node13 -->
<g id="edge54" class="edge">
<title>Node27&#45;&gt;Node13</title>
<path fill="none" stroke="#63b8ff" d="M988.91,-331.13C1008.08,-317.13 1047.45,-290.26 1085,-276.25 1147.64,-252.88 1224.01,-241.46 1274.66,-236.08"/>
<polygon fill="#63b8ff" stroke="#63b8ff" points="1274.79,-239.48 1284.38,-234.99 1274.08,-232.52 1274.79,-239.48"/>
</g>
<!-- Node27&#45;&gt;Node16 -->
<g id="edge53" class="edge">
<title>Node27&#45;&gt;Node16</title>
<path fill="none" stroke="#63b8ff" d="M985.58,-331.12C1006.73,-308.45 1061.86,-246.39 1092,-185 1098.92,-170.91 1103.57,-153.72 1106.41,-140.72"/>
<polygon fill="#63b8ff" stroke="#63b8ff" points="1109.99,-141.67 1108.52,-131.17 1103.13,-140.29 1109.99,-141.67"/>
</g>
<!-- Node27&#45;&gt;Node22 -->
<g id="edge55" class="edge">
<title>Node27&#45;&gt;Node22</title>
<path fill="none" stroke="#63b8ff" d="M975.35,-331.33C974.08,-324.59 972.29,-315.02 970.68,-306.49"/>
<polygon fill="#63b8ff" stroke="#63b8ff" points="973.97,-306.04 968.69,-296.86 967.09,-307.33 973.97,-306.04"/>
</g>
<!-- Node28&#45;&gt;Node11 -->
<g id="edge61" class="edge">
<title>Node28&#45;&gt;Node11</title>
<path fill="none" stroke="#63b8ff" d="M302.78,-165.34C312.93,-152.21 333.12,-127.56 354,-110.5 368.39,-98.74 386.22,-88 400.88,-80.01"/>
<polygon fill="#63b8ff" stroke="#63b8ff" points="402.25,-82.71 409.44,-74.93 398.97,-76.53 402.25,-82.71"/>
</g>
<!-- Node28&#45;&gt;Node16 -->
<g id="edge60" class="edge">
<title>Node28&#45;&gt;Node16</title>
<path fill="none" stroke="#63b8ff" d="M332.82,-171.97C465.54,-163.28 919.16,-133.61 1064.68,-124.09"/>
<polygon fill="#63b8ff" stroke="#63b8ff" points="1064.66,-127.53 1074.41,-123.39 1064.21,-120.55 1064.66,-127.53"/>
</g>
<!-- Node29 -->
<g id="node29" class="node">
<title>Node29</title>
<g id="a_node29"><a xlink:title=" ">
<polygon fill="#e0e0e0" stroke="#999999" points="301.62,-129.75 256.38,-129.75 256.38,-110.5 301.62,-110.5 301.62,-129.75"/>
<text text-anchor="middle" x="279" y="-116.25" font-family="Helvetica,sans-Serif" font-size="10.00">cstdint</text>
</a>
</g>
</g>
<!-- Node28&#45;&gt;Node29 -->
<g id="edge59" class="edge">
<title>Node28&#45;&gt;Node29</title>
<path fill="none" stroke="#63b8ff" d="M293.19,-165.58C291.02,-158.76 287.92,-149.06 285.17,-140.45"/>
<polygon fill="#63b8ff" stroke="#63b8ff" points="288.24,-139.57 281.87,-131.11 281.58,-141.7 288.24,-139.57"/>
</g>
<!-- Node30&#45;&gt;Node2 -->
<g id="edge63" class="edge">
<title>Node30&#45;&gt;Node2</title>
<path fill="none" stroke="#63b8ff" d="M807.18,-275.75C842.21,-260.03 913.01,-228.76 939,-221 965.74,-213.01 1410.1,-145.7 1433,-129.75 1448.52,-118.94 1458.73,-99.56 1464.62,-84.97"/>
<polygon fill="#63b8ff" stroke="#63b8ff" points="1468.13,-86.56 1468.3,-75.97 1461.56,-84.15 1468.13,-86.56"/>
</g>
<!-- Node30&#45;&gt;Node3 -->
<g id="edge64" class="edge">
<title>Node30&#45;&gt;Node3</title>
<path fill="none" stroke="#63b8ff" d="M788.01,-276.01C790.85,-254.62 800.76,-199.47 830,-165.75 871.54,-117.85 941.84,-89.29 983.7,-75.67"/>
<polygon fill="#63b8ff" stroke="#63b8ff" points="984.45,-78.79 992.94,-72.45 982.35,-72.11 984.45,-78.79"/>
</g>
<!-- Node30&#45;&gt;Node4 -->
<g id="edge67" class="edge">
<title>Node30&#45;&gt;Node4</title>
<path fill="none" stroke="#63b8ff" d="M770.26,-275.83C742.87,-261.5 686.37,-233.88 635,-221 551.87,-200.16 311.89,-245.32 251,-185 209.43,-143.82 220.15,-66.14 228.06,-30.01"/>
<polygon fill="#63b8ff" stroke="#63b8ff" points="231.66,-31 230.56,-20.46 224.85,-29.39 231.66,-31"/>
</g>
<!-- Node30&#45;&gt;Node11 -->
<g id="edge73" class="edge">
<title>Node30&#45;&gt;Node11</title>
<path fill="none" stroke="#63b8ff" d="M783.75,-275.8C772.71,-246.42 733.68,-153.37 668,-110.5 635.96,-89.58 529.41,-75.91 469.97,-69.71"/>
<polygon fill="#63b8ff" stroke="#63b8ff" points="470.4,-66.14 460.1,-68.61 469.7,-73.1 470.4,-66.14"/>
</g>
<!-- Node30&#45;&gt;Node13 -->
<g id="edge71" class="edge">
<title>Node30&#45;&gt;Node13</title>
<path fill="none" stroke="#63b8ff" d="M835.19,-280.15C935.84,-270.28 1167.86,-247.53 1274.53,-237.07"/>
<polygon fill="#63b8ff" stroke="#63b8ff" points="1274.76,-240.46 1284.37,-236 1274.07,-233.49 1274.76,-240.46"/>
</g>
<!-- Node30&#45;&gt;Node14 -->
<g id="edge68" class="edge">
<title>Node30&#45;&gt;Node14</title>
<path fill="none" stroke="#63b8ff" d="M795.77,-276.1C808.78,-263.29 834.23,-239.04 858,-221 941.7,-157.48 968.34,-146.64 1067,-110.5 1105.61,-96.36 1150.89,-83.91 1182.87,-75.78"/>
<polygon fill="#63b8ff" stroke="#63b8ff" points="1183.33,-79.02 1192.18,-73.19 1181.63,-72.23 1183.33,-79.02"/>
</g>
<!-- Node30&#45;&gt;Node16 -->
<g id="edge70" class="edge">
<title>Node30&#45;&gt;Node16</title>
<path fill="none" stroke="#63b8ff" d="M801.5,-275.77C843.45,-249.47 963.13,-174.68 982,-165.75 1009.64,-152.67 1042.2,-141.37 1067.56,-133.42"/>
<polygon fill="#63b8ff" stroke="#63b8ff" points="1068.43,-136.5 1076.96,-130.22 1066.37,-129.81 1068.43,-136.5"/>
</g>
<!-- Node30&#45;&gt;Node18 -->
<g id="edge66" class="edge">
<title>Node30&#45;&gt;Node18</title>
<path fill="none" stroke="#63b8ff" d="M784.83,-275.82C778.74,-248.03 764.27,-162.71 802,-110.5 813.87,-94.07 833.71,-83.05 850.9,-76.06"/>
<polygon fill="#63b8ff" stroke="#63b8ff" points="852.02,-79.01 860.17,-72.23 849.57,-72.45 852.02,-79.01"/>
</g>
<!-- Node30&#45;&gt;Node23 -->
<g id="edge69" class="edge">
<title>Node30&#45;&gt;Node23</title>
<path fill="none" stroke="#63b8ff" d="M817.53,-275.84C850.88,-265.98 903.93,-250.28 937.04,-240.49"/>
<polygon fill="#63b8ff" stroke="#63b8ff" points="937.85,-243.6 946.45,-237.41 935.87,-236.89 937.85,-243.6"/>
</g>
<!-- Node30&#45;&gt;Node25 -->
<g id="edge72" class="edge">
<title>Node30&#45;&gt;Node25</title>
<path fill="none" stroke="#63b8ff" d="M739.09,-277.75C677.38,-268.57 569.66,-252.55 498.84,-242.01"/>
<polygon fill="#63b8ff" stroke="#63b8ff" points="499.64,-238.44 489.23,-240.44 498.61,-245.37 499.64,-238.44"/>
</g>
<!-- Node31 -->
<g id="node31" class="node">
<title>Node31</title>
<g id="a_node31"><a xlink:title=" ">
<polygon fill="#e0e0e0" stroke="#999999" points="626.25,-240.25 581.75,-240.25 581.75,-221 626.25,-221 626.25,-240.25"/>
<text text-anchor="middle" x="604" y="-226.75" font-family="Helvetica,sans-Serif" font-size="10.00">stdio.h</text>
</a>
</g>
</g>
<!-- Node30&#45;&gt;Node31 -->
<g id="edge65" class="edge">
<title>Node30&#45;&gt;Node31</title>
<path fill="none" stroke="#63b8ff" d="M755.96,-275.84C722.83,-266.2 670.57,-251 636.79,-241.17"/>
<polygon fill="#63b8ff" stroke="#63b8ff" points="638.1,-237.61 627.52,-238.18 636.14,-244.33 638.1,-237.61"/>
</g>
<!-- Node32&#45;&gt;Node2 -->
<g id="edge82" class="edge">
<title>Node32&#45;&gt;Node2</title>
<path fill="none" stroke="#63b8ff" d="M1392.12,-110.09C1406.72,-101.91 1428.49,-89.71 1445.46,-80.19"/>
<polygon fill="#63b8ff" stroke="#63b8ff" points="1446.79,-82.9 1453.81,-74.95 1443.37,-76.79 1446.79,-82.9"/>
</g>
<!-- Node32&#45;&gt;Node11 -->
<g id="edge86" class="edge">
<title>Node32&#45;&gt;Node11</title>
<path fill="none" stroke="#63b8ff" d="M1328.06,-116.43C1163.36,-107.17 622.41,-76.75 469.55,-68.16"/>
<polygon fill="#63b8ff" stroke="#63b8ff" points="470,-64.62 459.82,-67.55 469.61,-71.61 470,-64.62"/>
</g>
<!-- Node32&#45;&gt;Node14 -->
<g id="edge85" class="edge">
<title>Node32&#45;&gt;Node14</title>
<path fill="none" stroke="#63b8ff" d="M1350.22,-110.09C1325.43,-101.41 1287.75,-88.21 1260.01,-78.49"/>
<polygon fill="#63b8ff" stroke="#63b8ff" points="1261.51,-74.96 1250.91,-74.95 1259.19,-81.56 1261.51,-74.96"/>
</g>
<!-- Node32&#45;&gt;Node19 -->
<g id="edge84" class="edge">
<title>Node32&#45;&gt;Node19</title>
<path fill="none" stroke="#63b8ff" d="M1364.13,-110.09C1353.81,-102.24 1338.63,-90.7 1326.37,-81.37"/>
<polygon fill="#63b8ff" stroke="#63b8ff" points="1328.78,-78.04 1318.7,-74.77 1324.54,-83.61 1328.78,-78.04"/>
</g>
<!-- Node33 -->
<g id="node33" class="node">
<title>Node33</title>
<g id="a_node33"><a xlink:title=" ">
<polygon fill="#e0e0e0" stroke="#999999" points="1394.5,-74.5 1357.5,-74.5 1357.5,-55.25 1394.5,-55.25 1394.5,-74.5"/>
<text text-anchor="middle" x="1376" y="-61" font-family="Helvetica,sans-Serif" font-size="10.00">array</text>
</a>
</g>
</g>
<!-- Node32&#45;&gt;Node33 -->
<g id="edge83" class="edge">
<title>Node32&#45;&gt;Node33</title>
<path fill="none" stroke="#63b8ff" d="M1376,-110.33C1376,-103.67 1376,-94.24 1376,-85.78"/>
<polygon fill="#63b8ff" stroke="#63b8ff" points="1379.5,-85.86 1376,-75.86 1372.5,-85.86 1379.5,-85.86"/>
</g>
<!-- Node34&#45;&gt;Node11 -->
<g id="edge93" class="edge">
<title>Node34&#45;&gt;Node11</title>
<path fill="none" stroke="#63b8ff" d="M1083.34,-447.83C1029.85,-443.17 930.72,-431.66 850,-406 743.07,-372 717.39,-356.17 623,-295.5 533.96,-238.27 464.24,-127.6 439.11,-84.08"/>
<polygon fill="#63b8ff" stroke="#63b8ff" points="441.68,-82.51 433.7,-75.54 435.59,-85.96 441.68,-82.51"/>
</g>
<!-- Node34&#45;&gt;Node13 -->
<g id="edge90" class="edge">
<title>Node34&#45;&gt;Node13</title>
<path fill="none" stroke="#63b8ff" d="M1160.82,-445.94C1192.21,-440.56 1236.25,-429.27 1268,-406 1318.06,-369.31 1327.87,-288.71 1329.68,-251.35"/>
<polygon fill="#63b8ff" stroke="#63b8ff" points="1333.2,-251.58 1330.03,-241.47 1326.21,-251.35 1333.2,-251.58"/>
</g>
<!-- Node34&#45;&gt;Node22 -->
<g id="edge91" class="edge">
<title>Node34&#45;&gt;Node22</title>
<path fill="none" stroke="#63b8ff" d="M1083.18,-442.04C1039.12,-430 969.32,-403.38 938,-350.75 928.99,-335.61 939.42,-317.19 950.19,-304.03"/>
<polygon fill="#63b8ff" stroke="#63b8ff" points="952.43,-306.66 956.48,-296.86 947.21,-302 952.43,-306.66"/>
</g>
<!-- Node34&#45;&gt;Node26 -->
<g id="edge92" class="edge">
<title>Node34&#45;&gt;Node26</title>
<path fill="none" stroke="#63b8ff" d="M1122,-441.83C1122,-435.17 1122,-425.74 1122,-417.28"/>
<polygon fill="#63b8ff" stroke="#63b8ff" points="1125.5,-417.36 1122,-407.36 1118.5,-417.36 1125.5,-417.36"/>
</g>
<!-- Node34&#45;&gt;Node31 -->
<g id="edge88" class="edge">
<title>Node34&#45;&gt;Node31</title>
<path fill="none" stroke="#63b8ff" d="M1083.19,-444.68C999.94,-430.47 800.51,-388.57 662,-295.5 643.61,-283.15 627.12,-263.75 616.46,-249.57"/>
<polygon fill="#63b8ff" stroke="#63b8ff" points="618.76,-247.79 610.06,-241.74 613.09,-251.89 618.76,-247.79"/>
</g>
<!-- Node35 -->
<g id="node35" class="node">
<title>Node35</title>
<g id="a_node35"><a xlink:title=" ">
<polygon fill="#e0e0e0" stroke="#999999" points="1364.25,-406 1319.75,-406 1319.75,-386.75 1364.25,-386.75 1364.25,-406"/>
<text text-anchor="middle" x="1342" y="-392.5" font-family="Helvetica,sans-Serif" font-size="10.00">iosfwd</text>
</a>
</g>
</g>
<!-- Node34&#45;&gt;Node35 -->
<g id="edge89" class="edge">
<title>Node34&#45;&gt;Node35</title>
<path fill="none" stroke="#63b8ff" d="M1159.32,-441.59C1201.23,-431.45 1268.61,-415.14 1308.77,-405.42"/>
<polygon fill="#63b8ff" stroke="#63b8ff" points="1309.44,-408.62 1318.33,-402.86 1307.79,-401.81 1309.44,-408.62"/>
</g>
</g>
</svg>
