<?xml version="1.0" encoding="UTF-8" standalone="no"?>
<!DOCTYPE svg PUBLIC "-//W3C//DTD SVG 1.1//EN"
 "http://www.w3.org/Graphics/SVG/1.1/DTD/svg11.dtd">
<!-- Generated by graphviz version 8.0.5 (20230430.1635)
 -->
<!-- Title: v8::PersistentValueMapBase&lt; K, V, Traits &gt; Pages: 1 -->
<svg width="762pt" height="297pt"
 viewBox="0.00 0.00 761.75 296.75" xmlns="http://www.w3.org/2000/svg" xmlns:xlink="http://www.w3.org/1999/xlink">
<g id="graph0" class="graph" transform="scale(1 1) rotate(0) translate(4 292.75)">
<title>v8::PersistentValueMapBase&lt; K, V, Traits &gt;</title>
<!-- Node1 -->
<g id="node1" class="node">
<title>Node1</title>
<g id="a_node1"><a xlink:title=" ">
<polygon fill="#999999" stroke="#666666" points="141.25,-180.12 0,-180.12 0,-149.62 141.25,-149.62 141.25,-180.12"/>
<text text-anchor="start" x="8" y="-166.62" font-family="Helvetica,sans-Serif" font-size="10.00">v8::PersistentValueMapBase</text>
<text text-anchor="middle" x="70.62" y="-155.38" font-family="Helvetica,sans-Serif" font-size="10.00">&lt; K, V, Traits &gt;</text>
</a>
</g>
</g>
<!-- Node2 -->
<g id="node2" class="node">
<title>Node2</title>
<g id="a_node2"><a xlink:href="classv8_1_1GlobalValueMap.html" target="_top" xlink:title=" ">
<polygon fill="white" stroke="#666666" points="753.75,-288.75 603.5,-288.75 603.5,-247 753.75,-247 753.75,-288.75"/>
<text text-anchor="start" x="611.5" y="-275.25" font-family="Helvetica,sans-Serif" font-size="10.00">v8::GlobalValueMap</text>
<text text-anchor="start" x="611.5" y="-264" font-family="Helvetica,sans-Serif" font-size="10.00">&lt; K, V, DefaultGlobalMapTraits</text>
<text text-anchor="middle" x="678.62" y="-252.75" font-family="Helvetica,sans-Serif" font-size="10.00">&lt; K, V &gt; &gt;</text>
</a>
</g>
</g>
<!-- Node1&#45;&gt;Node2 -->
<g id="edge1" class="edge">
<title>Node1&#45;&gt;Node2</title>
<path fill="none" stroke="#63b8ff" d="M103.49,-186.06C119.64,-196 139.89,-207.3 159.25,-214.88 308.58,-273.29 499.63,-276.22 603.04,-272.5"/>
<polygon fill="#63b8ff" stroke="#63b8ff" points="105.83,-182.76 95.5,-180.4 102.1,-188.69 105.83,-182.76"/>
</g>
<!-- Node3 -->
<g id="node3" class="node">
<title>Node3</title>
<g id="a_node3"><a xlink:href="classv8_1_1PersistentValueMap.html" target="_top" xlink:title=" ">
<polygon fill="white" stroke="#666666" points="752.62,-172.75 604.62,-172.75 604.62,-131 752.62,-131 752.62,-172.75"/>
<text text-anchor="start" x="612.62" y="-159.25" font-family="Helvetica,sans-Serif" font-size="10.00">v8::PersistentValueMap</text>
<text text-anchor="start" x="612.62" y="-148" font-family="Helvetica,sans-Serif" font-size="10.00">&lt; K, V, DefaultPersistentValue</text>
<text text-anchor="middle" x="678.62" y="-136.75" font-family="Helvetica,sans-Serif" font-size="10.00">MapTraits&lt; K, V &gt; &gt;</text>
</a>
</g>
</g>
<!-- Node1&#45;&gt;Node3 -->
<g id="edge2" class="edge">
<title>Node1&#45;&gt;Node3</title>
<path fill="none" stroke="#63b8ff" d="M152.3,-167.89C253.58,-170.95 432.61,-173.94 585.5,-163.88 591.62,-163.47 597.95,-162.92 604.29,-162.28"/>
<polygon fill="#63b8ff" stroke="#63b8ff" points="152.64,-164.37 142.54,-167.56 152.43,-171.37 152.64,-164.37"/>
</g>
<!-- Node4 -->
<g id="node4" class="node">
<title>Node4</title>
<g id="a_node4"><a xlink:href="classv8_1_1GlobalValueMap.html" target="_top" xlink:title=" ">
<polygon fill="white" stroke="#666666" points="423.5,-236.12 321.25,-236.12 321.25,-205.62 423.5,-205.62 423.5,-236.12"/>
<text text-anchor="start" x="329.25" y="-222.62" font-family="Helvetica,sans-Serif" font-size="10.00">v8::GlobalValueMap</text>
<text text-anchor="middle" x="372.38" y="-211.38" font-family="Helvetica,sans-Serif" font-size="10.00">&lt; K, V, Traits &gt;</text>
</a>
</g>
</g>
<!-- Node1&#45;&gt;Node4 -->
<g id="edge3" class="edge">
<title>Node1&#45;&gt;Node4</title>
<path fill="none" stroke="#63b8ff" d="M128.15,-183.77C138.42,-186.78 149.1,-189.63 159.25,-191.88 213.87,-203.94 277.59,-211.84 320.82,-216.31"/>
<polygon fill="#63b8ff" stroke="#63b8ff" points="129.22,-180.13 118.63,-180.59 127.2,-186.83 129.22,-180.13"/>
</g>
<!-- Node6 -->
<g id="node6" class="node">
<title>Node6</title>
<g id="a_node6"><a xlink:href="classv8_1_1PersistentValueMap.html" target="_top" xlink:title=" ">
<polygon fill="white" stroke="#666666" points="431.75,-150.12 313,-150.12 313,-119.62 431.75,-119.62 431.75,-150.12"/>
<text text-anchor="start" x="321" y="-136.62" font-family="Helvetica,sans-Serif" font-size="10.00">v8::PersistentValueMap</text>
<text text-anchor="middle" x="372.38" y="-125.38" font-family="Helvetica,sans-Serif" font-size="10.00">&lt; K, V, Traits &gt;</text>
</a>
</g>
</g>
<!-- Node1&#45;&gt;Node6 -->
<g id="edge6" class="edge">
<title>Node1&#45;&gt;Node6</title>
<path fill="none" stroke="#63b8ff" d="M152.45,-156.79C203.11,-151.72 267.24,-145.3 312.97,-140.72"/>
<polygon fill="#63b8ff" stroke="#63b8ff" points="152.13,-153.4 142.52,-157.88 152.82,-160.37 152.13,-153.4"/>
</g>
<!-- Node8 -->
<g id="node8" class="node">
<title>Node8</title>
<g id="a_node8"><a xlink:href="classv8_1_1PersistentValueMapBase.html" target="_top" xlink:title=" ">
<polygon fill="white" stroke="#666666" points="447.5,-101.75 297.25,-101.75 297.25,-60 447.5,-60 447.5,-101.75"/>
<text text-anchor="start" x="305.25" y="-88.25" font-family="Helvetica,sans-Serif" font-size="10.00">v8::PersistentValueMapBase</text>
<text text-anchor="start" x="305.25" y="-77" font-family="Helvetica,sans-Serif" font-size="10.00">&lt; K, V, DefaultGlobalMapTraits</text>
<text text-anchor="middle" x="372.38" y="-65.75" font-family="Helvetica,sans-Serif" font-size="10.00">&lt; K, V &gt; &gt;</text>
</a>
</g>
</g>
<!-- Node1&#45;&gt;Node8 -->
<g id="edge9" class="edge">
<title>Node1&#45;&gt;Node8</title>
<path fill="none" stroke="orange" stroke-dasharray="5,2" d="M105.34,-143.79C121.18,-134.73 140.64,-124.78 159.25,-118.38 203.63,-103.1 255.48,-93.79 296.8,-88.27"/>
<polygon fill="orange" stroke="orange" points="103.85,-141.2 96.99,-149.27 107.39,-147.24 103.85,-141.2"/>
<text text-anchor="start" x="159.25" y="-131.88" font-family="Helvetica,sans-Serif" font-size="10.00"> &lt; K, V, DefaultGlobalMap</text>
<text text-anchor="middle" x="215.12" y="-120.62" font-family="Helvetica,sans-Serif" font-size="10.00">Traits&lt; K, V &gt; &gt;</text>
</g>
<!-- Node9 -->
<g id="node9" class="node">
<title>Node9</title>
<g id="a_node9"><a xlink:href="classv8_1_1PersistentValueMapBase.html" target="_top" xlink:title=" ">
<polygon fill="white" stroke="#666666" points="455.75,-41.75 289,-41.75 289,0 455.75,0 455.75,-41.75"/>
<text text-anchor="start" x="297" y="-28.25" font-family="Helvetica,sans-Serif" font-size="10.00">v8::PersistentValueMapBase</text>
<text text-anchor="start" x="297" y="-17" font-family="Helvetica,sans-Serif" font-size="10.00">&lt; K, V, DefaultPersistentValueMap</text>
<text text-anchor="middle" x="372.38" y="-5.75" font-family="Helvetica,sans-Serif" font-size="10.00">Traits&lt; K, V &gt; &gt;</text>
</a>
</g>
</g>
<!-- Node1&#45;&gt;Node9 -->
<g id="edge10" class="edge">
<title>Node1&#45;&gt;Node9</title>
<path fill="none" stroke="orange" stroke-dasharray="5,2" d="M86.73,-140.41C102.11,-117.62 128.1,-84.52 159.25,-66.38 198.38,-43.58 247.56,-32.16 288.7,-26.46"/>
<polygon fill="orange" stroke="orange" points="83.34,-138.19 80.8,-148.47 89.2,-142.02 83.34,-138.19"/>
<text text-anchor="start" x="159.25" y="-79.88" font-family="Helvetica,sans-Serif" font-size="10.00"> &lt; K, V, DefaultPersistent</text>
<text text-anchor="middle" x="215.12" y="-68.62" font-family="Helvetica,sans-Serif" font-size="10.00">ValueMapTraits&lt; K, V &gt; &gt;</text>
</g>
<!-- Node4&#45;&gt;Node2 -->
<g id="edge5" class="edge">
<title>Node4&#45;&gt;Node2</title>
<path fill="none" stroke="orange" stroke-dasharray="5,2" d="M434.68,-223.29C477.29,-225.75 535.23,-230.66 585.5,-240.38 594.1,-242.04 603.05,-244.17 611.84,-246.52"/>
<polygon fill="orange" stroke="orange" points="435.09,-219.75 424.92,-222.7 434.71,-226.74 435.09,-219.75"/>
<text text-anchor="start" x="473.75" y="-252.88" font-family="Helvetica,sans-Serif" font-size="10.00"> &lt; K, V, DefaultGlobalMap</text>
<text text-anchor="middle" x="529.62" y="-241.62" font-family="Helvetica,sans-Serif" font-size="10.00">Traits&lt; K, V &gt; &gt;</text>
</g>
<!-- Node5 -->
<g id="node5" class="node">
<title>Node5</title>
<g id="a_node5"><a xlink:href="classv8_1_1StdGlobalValueMap.html" target="_top" xlink:title=" ">
<polygon fill="white" stroke="#666666" points="737.25,-221.12 620,-221.12 620,-190.62 737.25,-190.62 737.25,-221.12"/>
<text text-anchor="start" x="628" y="-207.62" font-family="Helvetica,sans-Serif" font-size="10.00">v8::StdGlobalValueMap</text>
<text text-anchor="middle" x="678.62" y="-196.38" font-family="Helvetica,sans-Serif" font-size="10.00">&lt; K, V, Traits &gt;</text>
</a>
</g>
</g>
<!-- Node4&#45;&gt;Node5 -->
<g id="edge4" class="edge">
<title>Node4&#45;&gt;Node5</title>
<path fill="none" stroke="#63b8ff" d="M434.75,-217.85C488.72,-215.19 566.71,-211.34 619.64,-208.73"/>
<polygon fill="#63b8ff" stroke="#63b8ff" points="434.77,-214.39 424.96,-218.38 435.12,-221.38 434.77,-214.39"/>
</g>
<!-- Node6&#45;&gt;Node3 -->
<g id="edge8" class="edge">
<title>Node6&#45;&gt;Node3</title>
<path fill="none" stroke="orange" stroke-dasharray="5,2" d="M442.78,-135.55C484.24,-136.32 537.93,-137.94 585.5,-141.38 591.6,-141.82 597.92,-142.36 604.26,-142.96"/>
<polygon fill="orange" stroke="orange" points="443.02,-132.04 432.97,-135.37 442.9,-139.04 443.02,-132.04"/>
<text text-anchor="start" x="473.75" y="-153.88" font-family="Helvetica,sans-Serif" font-size="10.00"> &lt; K, V, DefaultPersistent</text>
<text text-anchor="middle" x="529.62" y="-142.62" font-family="Helvetica,sans-Serif" font-size="10.00">ValueMapTraits&lt; K, V &gt; &gt;</text>
</g>
<!-- Node7 -->
<g id="node7" class="node">
<title>Node7</title>
<g id="a_node7"><a xlink:href="classv8_1_1StdPersistentValueMap.html" target="_top" xlink:title=" ">
<polygon fill="white" stroke="#666666" points="745.5,-113.12 611.75,-113.12 611.75,-82.62 745.5,-82.62 745.5,-113.12"/>
<text text-anchor="start" x="619.75" y="-99.62" font-family="Helvetica,sans-Serif" font-size="10.00">v8::StdPersistentValueMap</text>
<text text-anchor="middle" x="678.62" y="-88.38" font-family="Helvetica,sans-Serif" font-size="10.00">&lt; K, V, Traits &gt;</text>
</a>
</g>
</g>
<!-- Node6&#45;&gt;Node7 -->
<g id="edge7" class="edge">
<title>Node6&#45;&gt;Node7</title>
<path fill="none" stroke="#63b8ff" d="M442.88,-126.42C493.51,-120.27 561.65,-111.98 611.48,-105.92"/>
<polygon fill="#63b8ff" stroke="#63b8ff" points="442.54,-123.06 433.04,-127.74 443.39,-130.01 442.54,-123.06"/>
</g>
</g>
</svg>
