<?xml version="1.0" encoding="UTF-8" standalone="no"?>
<!DOCTYPE svg PUBLIC "-//W3C//DTD SVG 1.1//EN"
 "http://www.w3.org/Graphics/SVG/1.1/DTD/svg11.dtd">
<!-- Generated by graphviz version 8.0.5 (20230430.1635)
 -->
<!-- Title: v8::GlobalValueMap::Set Pages: 1 -->
<svg width="623pt" height="223pt"
 viewBox="0.00 0.00 622.50 222.88" xmlns="http://www.w3.org/2000/svg" xmlns:xlink="http://www.w3.org/1999/xlink">
<g id="graph0" class="graph" transform="scale(1 1) rotate(0) translate(4 218.88)">
<title>v8::GlobalValueMap::Set</title>
<!-- Node1 -->
<g id="node1" class="node">
<title>Node1</title>
<g id="a_node1"><a xlink:title=" ">
<polygon fill="#999999" stroke="#666666" points="121.75,-135.25 0,-135.25 0,-116 121.75,-116 121.75,-135.25"/>
<text text-anchor="middle" x="60.88" y="-121.75" font-family="Helvetica,sans-Serif" font-size="10.00">v8::GlobalValueMap::Set</text>
</a>
</g>
</g>
<!-- Node2 -->
<g id="node2" class="node">
<title>Node2</title>
<g id="a_node2"><a xlink:href="classv8_1_1GlobalValueMap.html#a5c9f97a40e657b8b0b334d25559f0a4d" target="_top" xlink:title=" ">
<polygon fill="white" stroke="#666666" points="260,-140.88 157.75,-140.88 157.75,-110.38 260,-110.38 260,-140.88"/>
<text text-anchor="start" x="165.75" y="-127.38" font-family="Helvetica,sans-Serif" font-size="10.00">v8::GlobalValueMap</text>
<text text-anchor="middle" x="208.88" y="-116.12" font-family="Helvetica,sans-Serif" font-size="10.00">::SetUnique</text>
</a>
</g>
</g>
<!-- Node1&#45;&gt;Node2 -->
<g id="edge1" class="edge">
<title>Node1&#45;&gt;Node2</title>
<path fill="none" stroke="#63b8ff" d="M122.1,-125.62C130.2,-125.62 138.52,-125.62 146.64,-125.62"/>
<polygon fill="#63b8ff" stroke="#63b8ff" points="146.54,-129.13 156.54,-125.62 146.54,-122.13 146.54,-129.13"/>
</g>
<!-- Node3 -->
<g id="node3" class="node">
<title>Node3</title>
<g id="a_node3"><a xlink:href="classv8_1_1PersistentValueMapBase.html#a7b083c75829bbc4177729ffe9827c4ac" target="_top" xlink:title=" ">
<polygon fill="white" stroke="#666666" points="437.25,-214.88 296,-214.88 296,-184.38 437.25,-184.38 437.25,-214.88"/>
<text text-anchor="start" x="304" y="-201.38" font-family="Helvetica,sans-Serif" font-size="10.00">v8::PersistentValueMapBase</text>
<text text-anchor="middle" x="366.62" y="-190.12" font-family="Helvetica,sans-Serif" font-size="10.00">::ClearAndLeak</text>
</a>
</g>
</g>
<!-- Node2&#45;&gt;Node3 -->
<g id="edge2" class="edge">
<title>Node2&#45;&gt;Node3</title>
<path fill="none" stroke="#63b8ff" d="M234.52,-141.16C251.43,-151.44 274.59,-164.78 296,-174.62 300,-176.47 304.19,-178.26 308.42,-179.99"/>
<polygon fill="#63b8ff" stroke="#63b8ff" points="306.78,-183.5 317.37,-183.9 309.34,-176.99 306.78,-183.5"/>
</g>
<!-- Node4 -->
<g id="node4" class="node">
<title>Node4</title>
<g id="a_node4"><a xlink:href="classv8_1_1PersistentValueMapBase.html#a149e5b7f40fa52dc9b379342ac802d94" target="_top" xlink:title=" ">
<polygon fill="white" stroke="#666666" points="437.25,-165.88 296,-165.88 296,-135.38 437.25,-135.38 437.25,-165.88"/>
<text text-anchor="start" x="304" y="-152.38" font-family="Helvetica,sans-Serif" font-size="10.00">v8::PersistentValueMapBase</text>
<text text-anchor="middle" x="366.62" y="-141.12" font-family="Helvetica,sans-Serif" font-size="10.00">::impl</text>
</a>
</g>
</g>
<!-- Node2&#45;&gt;Node4 -->
<g id="edge3" class="edge">
<title>Node2&#45;&gt;Node4</title>
<path fill="none" stroke="#63b8ff" d="M260.44,-133.74C268.22,-134.99 276.42,-136.31 284.67,-137.63"/>
<polygon fill="#63b8ff" stroke="#63b8ff" points="284.07,-141.24 294.5,-139.37 285.18,-134.33 284.07,-141.24"/>
</g>
<!-- Node5 -->
<g id="node5" class="node">
<title>Node5</title>
<g id="a_node5"><a xlink:href="classv8_1_1PersistentValueMapBase.html#ac15c999275fb50c0084246cb9a848811" target="_top" xlink:title=" ">
<polygon fill="white" stroke="#666666" points="437.25,-116.88 296,-116.88 296,-86.38 437.25,-86.38 437.25,-116.88"/>
<text text-anchor="start" x="304" y="-103.38" font-family="Helvetica,sans-Serif" font-size="10.00">v8::PersistentValueMapBase</text>
<text text-anchor="middle" x="366.62" y="-92.12" font-family="Helvetica,sans-Serif" font-size="10.00">::isolate</text>
</a>
</g>
</g>
<!-- Node2&#45;&gt;Node5 -->
<g id="edge4" class="edge">
<title>Node2&#45;&gt;Node5</title>
<path fill="none" stroke="#63b8ff" d="M260.44,-117.83C268.22,-116.63 276.42,-115.37 284.67,-114.1"/>
<polygon fill="#63b8ff" stroke="#63b8ff" points="285.15,-117.41 294.5,-112.43 284.08,-110.49 285.15,-117.41"/>
</g>
<!-- Node6 -->
<g id="node6" class="node">
<title>Node6</title>
<g id="a_node6"><a xlink:href="classv8_1_1PersistentValueMapBase.html#aea9af944a2bd71a3b6abd2a2e57788f1" target="_top" xlink:title=" ">
<polygon fill="white" stroke="#666666" points="437.25,-67.88 296,-67.88 296,-37.38 437.25,-37.38 437.25,-67.88"/>
<text text-anchor="start" x="304" y="-54.38" font-family="Helvetica,sans-Serif" font-size="10.00">v8::PersistentValueMapBase</text>
<text text-anchor="middle" x="366.62" y="-43.12" font-family="Helvetica,sans-Serif" font-size="10.00">::Release</text>
</a>
</g>
</g>
<!-- Node2&#45;&gt;Node6 -->
<g id="edge5" class="edge">
<title>Node2&#45;&gt;Node6</title>
<path fill="none" stroke="#63b8ff" d="M235.31,-110C252.16,-100.01 274.96,-87.19 296,-77.62 300.08,-75.77 304.34,-73.96 308.65,-72.21"/>
<polygon fill="#63b8ff" stroke="#63b8ff" points="309.72,-75.16 317.76,-68.26 307.17,-68.64 309.72,-75.16"/>
</g>
<!-- Node7 -->
<g id="node7" class="node">
<title>Node7</title>
<g id="a_node7"><a xlink:href="classv8_1_1PersistentValueMapBase.html#abb262f768e4353658726ba4d1295947c" target="_top" xlink:title=" ">
<polygon fill="white" stroke="#666666" points="614.5,-116.88 473.25,-116.88 473.25,-86.38 614.5,-86.38 614.5,-116.88"/>
<text text-anchor="start" x="481.25" y="-103.38" font-family="Helvetica,sans-Serif" font-size="10.00">v8::PersistentValueMapBase</text>
<text text-anchor="middle" x="543.88" y="-92.12" font-family="Helvetica,sans-Serif" font-size="10.00">::FromVal</text>
</a>
</g>
</g>
<!-- Node6&#45;&gt;Node7 -->
<g id="edge6" class="edge">
<title>Node6&#45;&gt;Node7</title>
<path fill="none" stroke="#63b8ff" d="M423.56,-68.26C440.39,-72.97 459.02,-78.18 476.46,-83.06"/>
<polygon fill="#63b8ff" stroke="#63b8ff" points="475,-86.56 485.57,-85.88 476.88,-79.82 475,-86.56"/>
</g>
<!-- Node8 -->
<g id="node8" class="node">
<title>Node8</title>
<g id="a_node8"><a xlink:href="classv8_1_1PersistentBase.html#a479c7b146da083aa608e133a7dec79f9" target="_top" xlink:title=" ">
<polygon fill="white" stroke="#666666" points="592.75,-67.88 495,-67.88 495,-37.38 592.75,-37.38 592.75,-67.88"/>
<text text-anchor="start" x="503" y="-54.38" font-family="Helvetica,sans-Serif" font-size="10.00">v8::PersistentBase</text>
<text text-anchor="middle" x="543.88" y="-43.12" font-family="Helvetica,sans-Serif" font-size="10.00">::IsWeak</text>
</a>
</g>
</g>
<!-- Node6&#45;&gt;Node8 -->
<g id="edge7" class="edge">
<title>Node6&#45;&gt;Node8</title>
<path fill="none" stroke="#63b8ff" d="M437.64,-52.62C452.99,-52.62 469.08,-52.62 483.94,-52.62"/>
<polygon fill="#63b8ff" stroke="#63b8ff" points="483.51,-56.13 493.51,-52.62 483.51,-49.13 483.51,-56.13"/>
</g>
<!-- Node9 -->
<g id="node9" class="node">
<title>Node9</title>
<g id="a_node9"><a xlink:href="classv8_1_1Global.html#a914903149cc752468d4a3a11b6089c7e" target="_top" xlink:title=" ">
<polygon fill="white" stroke="#666666" points="586.75,-19.25 501,-19.25 501,0 586.75,0 586.75,-19.25"/>
<text text-anchor="middle" x="543.88" y="-5.75" font-family="Helvetica,sans-Serif" font-size="10.00">v8::Global::Pass</text>
</a>
</g>
</g>
<!-- Node6&#45;&gt;Node9 -->
<g id="edge8" class="edge">
<title>Node6&#45;&gt;Node9</title>
<path fill="none" stroke="#63b8ff" d="M431.39,-36.98C451.12,-32.14 472.59,-26.87 491.38,-22.26"/>
<polygon fill="#63b8ff" stroke="#63b8ff" points="491.92,-25.49 500.8,-19.7 490.25,-18.69 491.92,-25.49"/>
</g>
</g>
</svg>
