<?xml version="1.0" encoding="UTF-8" standalone="no"?>
<!DOCTYPE svg PUBLIC "-//W3C//DTD SVG 1.1//EN"
 "http://www.w3.org/Graphics/SVG/1.1/DTD/svg11.dtd">
<!-- Generated by graphviz version 8.0.5 (20230430.1635)
 -->
<!-- Title: v8::Value Pages: 1 -->
<svg width="669pt" height="618pt"
 viewBox="0.00 0.00 668.75 618.25" xmlns="http://www.w3.org/2000/svg" xmlns:xlink="http://www.w3.org/1999/xlink">
<g id="graph0" class="graph" transform="scale(1 1) rotate(0) translate(4 614.25)">
<title>v8::Value</title>
<!-- Node1 -->
<g id="node1" class="node">
<title>Node1</title>
<g id="a_node1"><a xlink:title=" ">
<polygon fill="#999999" stroke="#666666" points="143,-333.25 87.25,-333.25 87.25,-314 143,-314 143,-333.25"/>
<text text-anchor="middle" x="115.12" y="-319.75" font-family="Helvetica,sans-Serif" font-size="10.00">v8::Value</text>
</a>
</g>
</g>
<!-- Node3 -->
<g id="node3" class="node">
<title>Node3</title>
<g id="a_node3"><a xlink:href="classv8_1_1External.html" target="_top" xlink:title=" ">
<polygon fill="white" stroke="#666666" points="246.38,-370.25 180.88,-370.25 180.88,-351 246.38,-351 246.38,-370.25"/>
<text text-anchor="middle" x="213.62" y="-356.75" font-family="Helvetica,sans-Serif" font-size="10.00">v8::External</text>
</a>
</g>
</g>
<!-- Node1&#45;&gt;Node3 -->
<g id="edge2" class="edge">
<title>Node1&#45;&gt;Node3</title>
<path fill="none" stroke="#63b8ff" d="M152.48,-337.56C163.71,-341.87 175.87,-346.53 186.29,-350.53"/>
<polygon fill="#63b8ff" stroke="#63b8ff" points="154.08,-334.05 143.49,-333.74 151.58,-340.58 154.08,-334.05"/>
</g>
<!-- Node4 -->
<g id="node4" class="node">
<title>Node4</title>
<g id="a_node4"><a xlink:href="classv8_1_1Object.html" target="_top" xlink:title=" ">
<polygon fill="white" stroke="#666666" points="243.38,-333.25 183.88,-333.25 183.88,-314 243.38,-314 243.38,-333.25"/>
<text text-anchor="middle" x="213.62" y="-319.75" font-family="Helvetica,sans-Serif" font-size="10.00">v8::Object</text>
</a>
</g>
</g>
<!-- Node1&#45;&gt;Node4 -->
<g id="edge3" class="edge">
<title>Node1&#45;&gt;Node4</title>
<path fill="none" stroke="#63b8ff" d="M154.04,-323.62C163.9,-323.62 174.36,-323.62 183.67,-323.62"/>
<polygon fill="#63b8ff" stroke="#63b8ff" points="154.26,-320.13 144.26,-323.62 154.26,-327.13 154.26,-320.13"/>
</g>
<!-- Node28 -->
<g id="node28" class="node">
<title>Node28</title>
<g id="a_node28"><a xlink:href="classv8_1_1Primitive.html" target="_top" xlink:title=" ">
<polygon fill="white" stroke="#666666" points="248.25,-93.25 179,-93.25 179,-74 248.25,-74 248.25,-93.25"/>
<text text-anchor="middle" x="213.62" y="-79.75" font-family="Helvetica,sans-Serif" font-size="10.00">v8::Primitive</text>
</a>
</g>
</g>
<!-- Node1&#45;&gt;Node28 -->
<g id="edge27" class="edge">
<title>Node1&#45;&gt;Node28</title>
<path fill="none" stroke="#63b8ff" d="M124.17,-303.62C143.87,-254.63 194,-129.96 208.58,-93.67"/>
<polygon fill="#63b8ff" stroke="#63b8ff" points="120.63,-302.03 120.15,-312.62 127.13,-304.65 120.63,-302.03"/>
</g>
<!-- Node2 -->
<g id="node2" class="node">
<title>Node2</title>
<g id="a_node2"><a xlink:href="classv8_1_1Data.html" target="_top" xlink:title=" ">
<polygon fill="white" stroke="#666666" points="51.25,-333.25 0,-333.25 0,-314 51.25,-314 51.25,-333.25"/>
<text text-anchor="middle" x="25.62" y="-319.75" font-family="Helvetica,sans-Serif" font-size="10.00">v8::Data</text>
</a>
</g>
</g>
<!-- Node2&#45;&gt;Node1 -->
<g id="edge1" class="edge">
<title>Node2&#45;&gt;Node1</title>
<path fill="none" stroke="#63b8ff" d="M62.26,-323.62C70.43,-323.62 79,-323.62 86.77,-323.62"/>
<polygon fill="#63b8ff" stroke="#63b8ff" points="62.46,-320.13 52.46,-323.62 62.46,-327.13 62.46,-320.13"/>
</g>
<!-- Node5 -->
<g id="node5" class="node">
<title>Node5</title>
<g id="a_node5"><a xlink:href="classv8_1_1Array.html" target="_top" xlink:title=" ">
<polygon fill="white" stroke="#666666" points="365.88,-555.25 312.38,-555.25 312.38,-536 365.88,-536 365.88,-555.25"/>
<text text-anchor="middle" x="339.12" y="-541.75" font-family="Helvetica,sans-Serif" font-size="10.00">v8::Array</text>
</a>
</g>
</g>
<!-- Node4&#45;&gt;Node5 -->
<g id="edge4" class="edge">
<title>Node4&#45;&gt;Node5</title>
<path fill="none" stroke="#63b8ff" d="M247.81,-341.05C247.96,-341.24 248.11,-341.43 248.25,-341.62 298.21,-409.4 228.74,-464.31 284.25,-527.62 291.27,-535.63 301.96,-540.09 311.97,-542.56"/>
<polygon fill="#63b8ff" stroke="#63b8ff" points="250.52,-338.87 240.76,-334.72 245.8,-344.04 250.52,-338.87"/>
</g>
<!-- Node6 -->
<g id="node6" class="node">
<title>Node6</title>
<g id="a_node6"><a xlink:href="classv8_1_1ArrayBuffer.html" target="_top" xlink:title=" ">
<polygon fill="white" stroke="#666666" points="378.62,-518.25 299.62,-518.25 299.62,-499 378.62,-499 378.62,-518.25"/>
<text text-anchor="middle" x="339.12" y="-504.75" font-family="Helvetica,sans-Serif" font-size="10.00">v8::ArrayBuffer</text>
</a>
</g>
</g>
<!-- Node4&#45;&gt;Node6 -->
<g id="edge5" class="edge">
<title>Node4&#45;&gt;Node6</title>
<path fill="none" stroke="#63b8ff" d="M247.55,-340.75C247.79,-341.04 248.02,-341.33 248.25,-341.62 289.92,-395.52 238.18,-440.44 284.25,-490.62 288.38,-495.13 293.68,-498.51 299.32,-501.04"/>
<polygon fill="#63b8ff" stroke="#63b8ff" points="250.15,-337.51 240.3,-333.6 245.56,-342.79 250.15,-337.51"/>
</g>
<!-- Node7 -->
<g id="node7" class="node">
<title>Node7</title>
<g id="a_node7"><a xlink:href="classv8_1_1ArrayBufferView.html" target="_top" xlink:title=" ">
<polygon fill="white" stroke="#666666" points="389.5,-481.25 288.75,-481.25 288.75,-462 389.5,-462 389.5,-481.25"/>
<text text-anchor="middle" x="339.12" y="-467.75" font-family="Helvetica,sans-Serif" font-size="10.00">v8::ArrayBufferView</text>
</a>
</g>
</g>
<!-- Node4&#45;&gt;Node7 -->
<g id="edge6" class="edge">
<title>Node4&#45;&gt;Node7</title>
<path fill="none" stroke="#63b8ff" d="M247.23,-340.46C247.58,-340.84 247.92,-341.23 248.25,-341.62 281.74,-381.78 247.49,-416.44 284.25,-453.62 287.37,-456.78 291.06,-459.38 295.02,-461.53"/>
<polygon fill="#63b8ff" stroke="#63b8ff" points="249.72,-337.16 239.76,-333.54 245.29,-342.58 249.72,-337.16"/>
</g>
<!-- Node19 -->
<g id="node19" class="node">
<title>Node19</title>
<g id="a_node19"><a xlink:href="classv8_1_1BooleanObject.html" target="_top" xlink:title=" ">
<polygon fill="white" stroke="#666666" points="386.5,-444.25 291.75,-444.25 291.75,-425 386.5,-425 386.5,-444.25"/>
<text text-anchor="middle" x="339.12" y="-430.75" font-family="Helvetica,sans-Serif" font-size="10.00">v8::BooleanObject</text>
</a>
</g>
</g>
<!-- Node4&#45;&gt;Node19 -->
<g id="edge18" class="edge">
<title>Node4&#45;&gt;Node19</title>
<path fill="none" stroke="#63b8ff" d="M246.83,-340.22C247.32,-340.68 247.79,-341.15 248.25,-341.62 273.81,-368.34 256.52,-392.17 284.25,-416.62 287.87,-419.82 292.08,-422.45 296.52,-424.62"/>
<polygon fill="#63b8ff" stroke="#63b8ff" points="249.15,-336.84 239.05,-333.65 244.96,-342.44 249.15,-336.84"/>
</g>
<!-- Node20 -->
<g id="node20" class="node">
<title>Node20</title>
<g id="a_node20"><a xlink:href="classv8_1_1Date.html" target="_top" xlink:title=" ">
<polygon fill="white" stroke="#666666" points="364.75,-407.25 313.5,-407.25 313.5,-388 364.75,-388 364.75,-407.25"/>
<text text-anchor="middle" x="339.12" y="-393.75" font-family="Helvetica,sans-Serif" font-size="10.00">v8::Date</text>
</a>
</g>
</g>
<!-- Node4&#45;&gt;Node20 -->
<g id="edge19" class="edge">
<title>Node4&#45;&gt;Node20</title>
<path fill="none" stroke="#63b8ff" d="M244.94,-339.24C246.08,-340.01 247.18,-340.81 248.25,-341.62 266.74,-355.74 264.63,-367.12 284.25,-379.62 292.98,-385.19 303.61,-389.22 313.12,-392.03"/>
<polygon fill="#63b8ff" stroke="#63b8ff" points="247.25,-335.93 236.89,-333.67 243.58,-341.89 247.25,-335.93"/>
</g>
<!-- Node21 -->
<g id="node21" class="node">
<title>Node21</title>
<g id="a_node21"><a xlink:href="classv8_1_1Function.html" target="_top" xlink:title=" ">
<polygon fill="white" stroke="#666666" points="373.38,-370.25 304.88,-370.25 304.88,-351 373.38,-351 373.38,-370.25"/>
<text text-anchor="middle" x="339.12" y="-356.75" font-family="Helvetica,sans-Serif" font-size="10.00">v8::Function</text>
</a>
</g>
</g>
<!-- Node4&#45;&gt;Node21 -->
<g id="edge20" class="edge">
<title>Node4&#45;&gt;Node21</title>
<path fill="none" stroke="#63b8ff" d="M253.88,-335.39C270.18,-340.27 288.9,-345.88 304.54,-350.56"/>
<polygon fill="#63b8ff" stroke="#63b8ff" points="255.16,-331.82 244.58,-332.3 253.16,-338.52 255.16,-331.82"/>
</g>
<!-- Node22 -->
<g id="node22" class="node">
<title>Node22</title>
<g id="a_node22"><a xlink:href="classv8_1_1NumberObject.html" target="_top" xlink:title=" ">
<polygon fill="white" stroke="#666666" points="386.12,-333.25 292.12,-333.25 292.12,-314 386.12,-314 386.12,-333.25"/>
<text text-anchor="middle" x="339.12" y="-319.75" font-family="Helvetica,sans-Serif" font-size="10.00">v8::NumberObject</text>
</a>
</g>
</g>
<!-- Node4&#45;&gt;Node22 -->
<g id="edge21" class="edge">
<title>Node4&#45;&gt;Node22</title>
<path fill="none" stroke="#63b8ff" d="M254.56,-323.62C266.49,-323.62 279.66,-323.62 291.96,-323.62"/>
<polygon fill="#63b8ff" stroke="#63b8ff" points="254.58,-320.13 244.58,-323.62 254.58,-327.13 254.58,-320.13"/>
</g>
<!-- Node23 -->
<g id="node23" class="node">
<title>Node23</title>
<g id="a_node23"><a xlink:href="classv8_1_1Promise.html" target="_top" xlink:title=" ">
<polygon fill="white" stroke="#666666" points="372.62,-296.25 305.62,-296.25 305.62,-277 372.62,-277 372.62,-296.25"/>
<text text-anchor="middle" x="339.12" y="-282.75" font-family="Helvetica,sans-Serif" font-size="10.00">v8::Promise</text>
</a>
</g>
</g>
<!-- Node4&#45;&gt;Node23 -->
<g id="edge22" class="edge">
<title>Node4&#45;&gt;Node23</title>
<path fill="none" stroke="#63b8ff" d="M254.05,-311.81C270.62,-306.85 289.66,-301.14 305.43,-296.42"/>
<polygon fill="#63b8ff" stroke="#63b8ff" points="253.16,-308.73 244.58,-314.95 255.16,-315.43 253.16,-308.73"/>
</g>
<!-- Node24 -->
<g id="node24" class="node">
<title>Node24</title>
<g id="a_node24"><a xlink:href="classv8_1_1Promise_1_1Resolver.html" target="_top" xlink:title=" ">
<polygon fill="white" stroke="#666666" points="394,-259.25 284.25,-259.25 284.25,-240 394,-240 394,-259.25"/>
<text text-anchor="middle" x="339.12" y="-245.75" font-family="Helvetica,sans-Serif" font-size="10.00">v8::Promise::Resolver</text>
</a>
</g>
</g>
<!-- Node4&#45;&gt;Node24 -->
<g id="edge23" class="edge">
<title>Node4&#45;&gt;Node24</title>
<path fill="none" stroke="#63b8ff" d="M232.5,-306.25C245.86,-294.05 265.04,-278.12 284.25,-267.62 289.79,-264.6 295.93,-261.96 302.02,-259.71"/>
<polygon fill="#63b8ff" stroke="#63b8ff" points="230.54,-303.23 225.63,-312.62 235.32,-308.34 230.54,-303.23"/>
</g>
<!-- Node25 -->
<g id="node25" class="node">
<title>Node25</title>
<g id="a_node25"><a xlink:href="classv8_1_1RegExp.html" target="_top" xlink:title=" ">
<polygon fill="white" stroke="#666666" points="371.12,-222.25 307.12,-222.25 307.12,-203 371.12,-203 371.12,-222.25"/>
<text text-anchor="middle" x="339.12" y="-208.75" font-family="Helvetica,sans-Serif" font-size="10.00">v8::RegExp</text>
</a>
</g>
</g>
<!-- Node4&#45;&gt;Node25 -->
<g id="edge24" class="edge">
<title>Node4&#45;&gt;Node25</title>
<path fill="none" stroke="#63b8ff" d="M224.51,-304.15C236.12,-283.15 257.25,-250.12 284.25,-230.62 290.89,-225.83 298.88,-222.26 306.66,-219.61"/>
<polygon fill="#63b8ff" stroke="#63b8ff" points="221.07,-302.17 219.47,-312.64 227.25,-305.45 221.07,-302.17"/>
</g>
<!-- Node26 -->
<g id="node26" class="node">
<title>Node26</title>
<g id="a_node26"><a xlink:href="classv8_1_1StringObject.html" target="_top" xlink:title=" ">
<polygon fill="white" stroke="#666666" points="381.62,-185.25 296.62,-185.25 296.62,-166 381.62,-166 381.62,-185.25"/>
<text text-anchor="middle" x="339.12" y="-171.75" font-family="Helvetica,sans-Serif" font-size="10.00">v8::StringObject</text>
</a>
</g>
</g>
<!-- Node4&#45;&gt;Node26 -->
<g id="edge25" class="edge">
<title>Node4&#45;&gt;Node26</title>
<path fill="none" stroke="#63b8ff" d="M220.31,-303.16C229.27,-274.62 249.33,-223.08 284.25,-193.62 288.02,-190.45 292.37,-187.82 296.93,-185.66"/>
<polygon fill="#63b8ff" stroke="#63b8ff" points="216.73,-301.94 217.23,-312.53 223.44,-303.94 216.73,-301.94"/>
</g>
<!-- Node27 -->
<g id="node27" class="node">
<title>Node27</title>
<g id="a_node27"><a xlink:href="classv8_1_1SymbolObject.html" target="_top" xlink:title=" ">
<polygon fill="white" stroke="#666666" points="385,-148.25 293.25,-148.25 293.25,-129 385,-129 385,-148.25"/>
<text text-anchor="middle" x="339.12" y="-134.75" font-family="Helvetica,sans-Serif" font-size="10.00">v8::SymbolObject</text>
</a>
</g>
</g>
<!-- Node4&#45;&gt;Node27 -->
<g id="edge26" class="edge">
<title>Node4&#45;&gt;Node27</title>
<path fill="none" stroke="#63b8ff" d="M217.61,-302.97C223.75,-267.94 241.04,-196.81 284.25,-156.62 287.64,-153.47 291.61,-150.86 295.82,-148.72"/>
<polygon fill="#63b8ff" stroke="#63b8ff" points="214.01,-302.31 215.88,-312.74 220.92,-303.42 214.01,-302.31"/>
</g>
<!-- Node8 -->
<g id="node8" class="node">
<title>Node8</title>
<g id="a_node8"><a xlink:href="classv8_1_1DataView.html" target="_top" xlink:title=" ">
<polygon fill="white" stroke="#666666" points="506.38,-499.25 433.38,-499.25 433.38,-480 506.38,-480 506.38,-499.25"/>
<text text-anchor="middle" x="469.88" y="-485.75" font-family="Helvetica,sans-Serif" font-size="10.00">v8::DataView</text>
</a>
</g>
</g>
<!-- Node7&#45;&gt;Node8 -->
<g id="edge7" class="edge">
<title>Node7&#45;&gt;Node8</title>
<path fill="none" stroke="#63b8ff" d="M400.53,-480.07C411.71,-481.63 423.05,-483.22 433.2,-484.64"/>
<polygon fill="#63b8ff" stroke="#63b8ff" points="401.29,-476.5 390.9,-478.58 400.32,-483.44 401.29,-476.5"/>
</g>
<!-- Node9 -->
<g id="node9" class="node">
<title>Node9</title>
<g id="a_node9"><a xlink:href="classv8_1_1TypedArray.html" target="_top" xlink:title=" ">
<polygon fill="white" stroke="#666666" points="509.75,-462.25 430,-462.25 430,-443 509.75,-443 509.75,-462.25"/>
<text text-anchor="middle" x="469.88" y="-448.75" font-family="Helvetica,sans-Serif" font-size="10.00">v8::TypedArray</text>
</a>
</g>
</g>
<!-- Node7&#45;&gt;Node9 -->
<g id="edge8" class="edge">
<title>Node7&#45;&gt;Node9</title>
<path fill="none" stroke="#63b8ff" d="M400.53,-462.71C410.41,-461.25 420.41,-459.78 429.61,-458.42"/>
<polygon fill="#63b8ff" stroke="#63b8ff" points="400.28,-459.36 390.9,-464.28 401.31,-466.28 400.28,-459.36"/>
</g>
<!-- Node10 -->
<g id="node10" class="node">
<title>Node10</title>
<g id="a_node10"><a xlink:href="classv8_1_1Float32Array.html" target="_top" xlink:title=" ">
<polygon fill="white" stroke="#666666" points="646.12,-610.25 560.38,-610.25 560.38,-591 646.12,-591 646.12,-610.25"/>
<text text-anchor="middle" x="603.25" y="-596.75" font-family="Helvetica,sans-Serif" font-size="10.00">v8::Float32Array</text>
</a>
</g>
</g>
<!-- Node9&#45;&gt;Node10 -->
<g id="edge9" class="edge">
<title>Node9&#45;&gt;Node10</title>
<path fill="none" stroke="#63b8ff" d="M508.41,-469.2C508.87,-469.66 509.32,-470.14 509.75,-470.62 544.39,-509.79 508.73,-545.7 545.75,-582.62 549.83,-586.7 554.83,-589.85 560.15,-592.29"/>
<polygon fill="#63b8ff" stroke="#63b8ff" points="511,-466.01 500.93,-462.7 506.74,-471.56 511,-466.01"/>
</g>
<!-- Node11 -->
<g id="node11" class="node">
<title>Node11</title>
<g id="a_node11"><a xlink:href="classv8_1_1Float64Array.html" target="_top" xlink:title=" ">
<polygon fill="white" stroke="#666666" points="646.12,-573.25 560.38,-573.25 560.38,-554 646.12,-554 646.12,-573.25"/>
<text text-anchor="middle" x="603.25" y="-559.75" font-family="Helvetica,sans-Serif" font-size="10.00">v8::Float64Array</text>
</a>
</g>
</g>
<!-- Node9&#45;&gt;Node11 -->
<g id="edge10" class="edge">
<title>Node9&#45;&gt;Node11</title>
<path fill="none" stroke="#63b8ff" d="M507.58,-468.64C508.33,-469.28 509.05,-469.94 509.75,-470.62 536.08,-496.59 517.85,-521.36 545.75,-545.62 549.94,-549.27 554.88,-552.18 560.07,-554.5"/>
<polygon fill="#63b8ff" stroke="#63b8ff" points="509.99,-465.36 499.76,-462.61 506.04,-471.14 509.99,-465.36"/>
</g>
<!-- Node12 -->
<g id="node12" class="node">
<title>Node12</title>
<g id="a_node12"><a xlink:href="classv8_1_1Int16Array.html" target="_top" xlink:title=" ">
<polygon fill="white" stroke="#666666" points="640.88,-536.25 565.62,-536.25 565.62,-517 640.88,-517 640.88,-536.25"/>
<text text-anchor="middle" x="603.25" y="-522.75" font-family="Helvetica,sans-Serif" font-size="10.00">v8::Int16Array</text>
</a>
</g>
</g>
<!-- Node9&#45;&gt;Node12 -->
<g id="edge11" class="edge">
<title>Node9&#45;&gt;Node12</title>
<path fill="none" stroke="#63b8ff" d="M505.75,-467.95C507.13,-468.81 508.47,-469.7 509.75,-470.62 528.64,-484.2 526.04,-496.26 545.75,-508.62 551.68,-512.35 558.45,-515.36 565.19,-517.78"/>
<polygon fill="#63b8ff" stroke="#63b8ff" points="507.77,-464.51 497.33,-462.72 504.38,-470.63 507.77,-464.51"/>
</g>
<!-- Node13 -->
<g id="node13" class="node">
<title>Node13</title>
<g id="a_node13"><a xlink:href="classv8_1_1Int32Array.html" target="_top" xlink:title=" ">
<polygon fill="white" stroke="#666666" points="640.88,-499.25 565.62,-499.25 565.62,-480 640.88,-480 640.88,-499.25"/>
<text text-anchor="middle" x="603.25" y="-485.75" font-family="Helvetica,sans-Serif" font-size="10.00">v8::Int32Array</text>
</a>
</g>
</g>
<!-- Node9&#45;&gt;Node13 -->
<g id="edge12" class="edge">
<title>Node9&#45;&gt;Node13</title>
<path fill="none" stroke="#63b8ff" d="M517.11,-465.65C533.29,-470.2 551.19,-475.25 566.39,-479.53"/>
<polygon fill="#63b8ff" stroke="#63b8ff" points="518.35,-462.08 507.77,-462.74 516.45,-468.82 518.35,-462.08"/>
</g>
<!-- Node14 -->
<g id="node14" class="node">
<title>Node14</title>
<g id="a_node14"><a xlink:href="classv8_1_1Int8Array.html" target="_top" xlink:title=" ">
<polygon fill="white" stroke="#666666" points="638.25,-462.25 568.25,-462.25 568.25,-443 638.25,-443 638.25,-462.25"/>
<text text-anchor="middle" x="603.25" y="-448.75" font-family="Helvetica,sans-Serif" font-size="10.00">v8::Int8Array</text>
</a>
</g>
</g>
<!-- Node9&#45;&gt;Node14 -->
<g id="edge13" class="edge">
<title>Node9&#45;&gt;Node14</title>
<path fill="none" stroke="#63b8ff" d="M520.62,-452.62C536.44,-452.62 553.56,-452.62 568.02,-452.62"/>
<polygon fill="#63b8ff" stroke="#63b8ff" points="520.94,-449.13 510.94,-452.62 520.94,-456.13 520.94,-449.13"/>
</g>
<!-- Node15 -->
<g id="node15" class="node">
<title>Node15</title>
<g id="a_node15"><a xlink:href="classv8_1_1Uint16Array.html" target="_top" xlink:title=" ">
<polygon fill="white" stroke="#666666" points="644.25,-425.25 562.25,-425.25 562.25,-406 644.25,-406 644.25,-425.25"/>
<text text-anchor="middle" x="603.25" y="-411.75" font-family="Helvetica,sans-Serif" font-size="10.00">v8::Uint16Array</text>
</a>
</g>
</g>
<!-- Node9&#45;&gt;Node15 -->
<g id="edge14" class="edge">
<title>Node9&#45;&gt;Node15</title>
<path fill="none" stroke="#63b8ff" d="M517.11,-439.6C533.29,-435.05 551.19,-430 566.39,-425.72"/>
<polygon fill="#63b8ff" stroke="#63b8ff" points="516.45,-436.43 507.77,-442.51 518.35,-443.17 516.45,-436.43"/>
</g>
<!-- Node16 -->
<g id="node16" class="node">
<title>Node16</title>
<g id="a_node16"><a xlink:href="classv8_1_1Uint32Array.html" target="_top" xlink:title=" ">
<polygon fill="white" stroke="#666666" points="644.25,-388.25 562.25,-388.25 562.25,-369 644.25,-369 644.25,-388.25"/>
<text text-anchor="middle" x="603.25" y="-374.75" font-family="Helvetica,sans-Serif" font-size="10.00">v8::Uint32Array</text>
</a>
</g>
</g>
<!-- Node9&#45;&gt;Node16 -->
<g id="edge15" class="edge">
<title>Node9&#45;&gt;Node16</title>
<path fill="none" stroke="#63b8ff" d="M489.87,-435.59C504.33,-423.35 525.19,-407.21 545.75,-396.62 551.61,-393.61 558.07,-390.98 564.46,-388.72"/>
<polygon fill="#63b8ff" stroke="#63b8ff" points="488.02,-433.43 482.75,-442.62 492.6,-438.72 488.02,-433.43"/>
</g>
<!-- Node17 -->
<g id="node17" class="node">
<title>Node17</title>
<g id="a_node17"><a xlink:href="classv8_1_1Uint8Array.html" target="_top" xlink:title=" ">
<polygon fill="white" stroke="#666666" points="641.62,-351.25 564.88,-351.25 564.88,-332 641.62,-332 641.62,-351.25"/>
<text text-anchor="middle" x="603.25" y="-337.75" font-family="Helvetica,sans-Serif" font-size="10.00">v8::Uint8Array</text>
</a>
</g>
</g>
<!-- Node9&#45;&gt;Node17 -->
<g id="edge16" class="edge">
<title>Node9&#45;&gt;Node17</title>
<path fill="none" stroke="#63b8ff" d="M481.64,-433.38C494.35,-412.35 517.39,-379.06 545.75,-359.62 551.44,-355.73 558.02,-352.64 564.64,-350.2"/>
<polygon fill="#63b8ff" stroke="#63b8ff" points="478.27,-431.21 476.25,-441.61 484.32,-434.74 478.27,-431.21"/>
</g>
<!-- Node18 -->
<g id="node18" class="node">
<title>Node18</title>
<g id="a_node18"><a xlink:href="classv8_1_1Uint8ClampedArray.html" target="_top" xlink:title=" ">
<polygon fill="white" stroke="#666666" points="660.75,-314.25 545.75,-314.25 545.75,-295 660.75,-295 660.75,-314.25"/>
<text text-anchor="middle" x="603.25" y="-300.75" font-family="Helvetica,sans-Serif" font-size="10.00">v8::Uint8ClampedArray</text>
</a>
</g>
</g>
<!-- Node9&#45;&gt;Node18 -->
<g id="edge17" class="edge">
<title>Node9&#45;&gt;Node18</title>
<path fill="none" stroke="#63b8ff" d="M477.22,-432.5C487.23,-403.95 509.39,-351.93 545.75,-322.62 549.68,-319.46 554.17,-316.85 558.87,-314.69"/>
<polygon fill="#63b8ff" stroke="#63b8ff" points="473.61,-431.25 473.77,-441.84 480.25,-433.46 473.61,-431.25"/>
</g>
<!-- Node29 -->
<g id="node29" class="node">
<title>Node29</title>
<g id="a_node29"><a xlink:href="classv8_1_1Boolean.html" target="_top" xlink:title=" ">
<polygon fill="white" stroke="#666666" points="372.25,-111.25 306,-111.25 306,-92 372.25,-92 372.25,-111.25"/>
<text text-anchor="middle" x="339.12" y="-97.75" font-family="Helvetica,sans-Serif" font-size="10.00">v8::Boolean</text>
</a>
</g>
</g>
<!-- Node28&#45;&gt;Node29 -->
<g id="edge28" class="edge">
<title>Node28&#45;&gt;Node29</title>
<path fill="none" stroke="#63b8ff" d="M259.54,-90.17C274.88,-92.41 291.72,-94.86 305.86,-96.92"/>
<polygon fill="#63b8ff" stroke="#63b8ff" points="260.1,-86.57 249.7,-88.59 259.09,-93.5 260.1,-86.57"/>
</g>
<!-- Node30 -->
<g id="node30" class="node">
<title>Node30</title>
<g id="a_node30"><a xlink:href="classv8_1_1Name.html" target="_top" xlink:title=" ">
<polygon fill="white" stroke="#666666" points="367.75,-74.25 310.5,-74.25 310.5,-55 367.75,-55 367.75,-74.25"/>
<text text-anchor="middle" x="339.12" y="-60.75" font-family="Helvetica,sans-Serif" font-size="10.00">v8::Name</text>
</a>
</g>
</g>
<!-- Node28&#45;&gt;Node30 -->
<g id="edge29" class="edge">
<title>Node28&#45;&gt;Node30</title>
<path fill="none" stroke="#63b8ff" d="M259.55,-76.71C276.57,-74.1 295.42,-71.19 310.4,-68.89"/>
<polygon fill="#63b8ff" stroke="#63b8ff" points="259.05,-73.4 249.7,-78.38 260.11,-80.32 259.05,-73.4"/>
</g>
<!-- Node33 -->
<g id="node33" class="node">
<title>Node33</title>
<g id="a_node33"><a xlink:href="classv8_1_1Number.html" target="_top" xlink:title=" ">
<polygon fill="white" stroke="#666666" points="371.88,-37.25 306.38,-37.25 306.38,-18 371.88,-18 371.88,-37.25"/>
<text text-anchor="middle" x="339.12" y="-23.75" font-family="Helvetica,sans-Serif" font-size="10.00">v8::Number</text>
</a>
</g>
</g>
<!-- Node28&#45;&gt;Node33 -->
<g id="edge32" class="edge">
<title>Node28&#45;&gt;Node33</title>
<path fill="none" stroke="#63b8ff" d="M240.28,-68.2C253.2,-60.81 269.26,-52.16 284.25,-45.62 291.21,-42.59 298.86,-39.75 306.15,-37.27"/>
<polygon fill="#63b8ff" stroke="#63b8ff" points="238.97,-65.5 232.09,-73.56 242.49,-71.55 238.97,-65.5"/>
</g>
<!-- Node31 -->
<g id="node31" class="node">
<title>Node31</title>
<g id="a_node31"><a xlink:href="classv8_1_1String.html" target="_top" xlink:title=" ">
<polygon fill="white" stroke="#666666" points="498.12,-111.25 441.62,-111.25 441.62,-92 498.12,-92 498.12,-111.25"/>
<text text-anchor="middle" x="469.88" y="-97.75" font-family="Helvetica,sans-Serif" font-size="10.00">v8::String</text>
</a>
</g>
</g>
<!-- Node30&#45;&gt;Node31 -->
<g id="edge30" class="edge">
<title>Node30&#45;&gt;Node31</title>
<path fill="none" stroke="#63b8ff" d="M378.52,-75.66C398.76,-81.47 423.11,-88.47 441.43,-93.74"/>
<polygon fill="#63b8ff" stroke="#63b8ff" points="379.64,-72.05 369.06,-72.65 377.71,-78.78 379.64,-72.05"/>
</g>
<!-- Node32 -->
<g id="node32" class="node">
<title>Node32</title>
<g id="a_node32"><a xlink:href="classv8_1_1Symbol.html" target="_top" xlink:title=" ">
<polygon fill="white" stroke="#666666" points="501.5,-74.25 438.25,-74.25 438.25,-55 501.5,-55 501.5,-74.25"/>
<text text-anchor="middle" x="469.88" y="-60.75" font-family="Helvetica,sans-Serif" font-size="10.00">v8::Symbol</text>
</a>
</g>
</g>
<!-- Node30&#45;&gt;Node32 -->
<g id="edge31" class="edge">
<title>Node30&#45;&gt;Node32</title>
<path fill="none" stroke="#63b8ff" d="M378.98,-64.62C397.82,-64.62 420.15,-64.62 437.83,-64.62"/>
<polygon fill="#63b8ff" stroke="#63b8ff" points="379.06,-61.13 369.06,-64.62 379.06,-68.13 379.06,-61.13"/>
</g>
<!-- Node34 -->
<g id="node34" class="node">
<title>Node34</title>
<g id="a_node34"><a xlink:href="classv8_1_1Integer.html" target="_top" xlink:title=" ">
<polygon fill="white" stroke="#666666" points="500.38,-37.25 439.38,-37.25 439.38,-18 500.38,-18 500.38,-37.25"/>
<text text-anchor="middle" x="469.88" y="-23.75" font-family="Helvetica,sans-Serif" font-size="10.00">v8::Integer</text>
</a>
</g>
</g>
<!-- Node33&#45;&gt;Node34 -->
<g id="edge33" class="edge">
<title>Node33&#45;&gt;Node34</title>
<path fill="none" stroke="#63b8ff" d="M383.26,-27.62C401.52,-27.62 422.35,-27.62 438.89,-27.62"/>
<polygon fill="#63b8ff" stroke="#63b8ff" points="383.28,-24.13 373.28,-27.62 383.28,-31.13 383.28,-24.13"/>
</g>
<!-- Node35 -->
<g id="node35" class="node">
<title>Node35</title>
<g id="a_node35"><a xlink:href="classv8_1_1Int32.html" target="_top" xlink:title=" ">
<polygon fill="white" stroke="#666666" points="629.62,-56.25 576.88,-56.25 576.88,-37 629.62,-37 629.62,-56.25"/>
<text text-anchor="middle" x="603.25" y="-42.75" font-family="Helvetica,sans-Serif" font-size="10.00">v8::Int32</text>
</a>
</g>
</g>
<!-- Node34&#45;&gt;Node35 -->
<g id="edge34" class="edge">
<title>Node34&#45;&gt;Node35</title>
<path fill="none" stroke="#63b8ff" d="M511.36,-33.48C532.61,-36.55 558.01,-40.23 576.55,-42.91"/>
<polygon fill="#63b8ff" stroke="#63b8ff" points="512.08,-29.9 501.69,-31.94 511.08,-36.83 512.08,-29.9"/>
</g>
<!-- Node36 -->
<g id="node36" class="node">
<title>Node36</title>
<g id="a_node36"><a xlink:href="classv8_1_1Uint32.html" target="_top" xlink:title=" ">
<polygon fill="white" stroke="#666666" points="633,-19.25 573.5,-19.25 573.5,0 633,0 633,-19.25"/>
<text text-anchor="middle" x="603.25" y="-5.75" font-family="Helvetica,sans-Serif" font-size="10.00">v8::Uint32</text>
</a>
</g>
</g>
<!-- Node34&#45;&gt;Node36 -->
<g id="edge35" class="edge">
<title>Node34&#45;&gt;Node36</title>
<path fill="none" stroke="#63b8ff" d="M511.33,-22.08C531.26,-19.35 554.85,-16.12 573.01,-13.63"/>
<polygon fill="#63b8ff" stroke="#63b8ff" points="511.12,-18.72 501.69,-23.54 512.07,-25.65 511.12,-18.72"/>
</g>
</g>
</svg>
