<?xml version="1.0" encoding="UTF-8" standalone="no"?>
<!DOCTYPE svg PUBLIC "-//W3C//DTD SVG 1.1//EN"
 "http://www.w3.org/Graphics/SVG/1.1/DTD/svg11.dtd">
<!-- Generated by graphviz version 8.0.5 (20230430.1635)
 -->
<!-- Title: include/v8.h Pages: 1 -->
<svg width="351pt" height="83pt"
 viewBox="0.00 0.00 351.00 82.50" xmlns="http://www.w3.org/2000/svg" xmlns:xlink="http://www.w3.org/1999/xlink">
<g id="graph0" class="graph" transform="scale(1 1) rotate(0) translate(4 78.5)">
<title>include/v8.h</title>
<!-- Node1 -->
<g id="node1" class="node">
<title>Node1</title>
<g id="a_node1"><a xlink:title=" ">
<polygon fill="#999999" stroke="#666666" points="190.12,-74.5 122.38,-74.5 122.38,-55.25 190.12,-55.25 190.12,-74.5"/>
<text text-anchor="middle" x="156.25" y="-61" font-family="Helvetica,sans-Serif" font-size="10.00">include/v8.h</text>
</a>
</g>
</g>
<!-- Node2 -->
<g id="node2" class="node">
<title>Node2</title>
<g id="a_node2"><a xlink:title=" ">
<polygon fill="#e0e0e0" stroke="#999999" points="50.5,-19.25 0,-19.25 0,0 50.5,0 50.5,-19.25"/>
<text text-anchor="middle" x="25.25" y="-5.75" font-family="Helvetica,sans-Serif" font-size="10.00">stddef.h</text>
</a>
</g>
</g>
<!-- Node1&#45;&gt;Node2 -->
<g id="edge1" class="edge">
<title>Node1&#45;&gt;Node2</title>
<path fill="none" stroke="#63b8ff" d="M134.03,-54.84C113.04,-46.31 81.33,-33.42 57.56,-23.76"/>
<polygon fill="#63b8ff" stroke="#63b8ff" points="59.16,-20.23 48.58,-19.7 56.53,-26.71 59.16,-20.23"/>
</g>
<!-- Node3 -->
<g id="node3" class="node">
<title>Node3</title>
<g id="a_node3"><a xlink:title=" ">
<polygon fill="#e0e0e0" stroke="#999999" points="116,-19.25 68.5,-19.25 68.5,0 116,0 116,-19.25"/>
<text text-anchor="middle" x="92.25" y="-5.75" font-family="Helvetica,sans-Serif" font-size="10.00">stdint.h</text>
</a>
</g>
</g>
<!-- Node1&#45;&gt;Node3 -->
<g id="edge2" class="edge">
<title>Node1&#45;&gt;Node3</title>
<path fill="none" stroke="#63b8ff" d="M145.39,-54.84C136.05,-47.07 122.36,-35.67 111.21,-26.4"/>
<polygon fill="#63b8ff" stroke="#63b8ff" points="113.87,-23.23 103.95,-19.52 109.39,-28.61 113.87,-23.23"/>
</g>
<!-- Node4 -->
<g id="node4" class="node">
<title>Node4</title>
<g id="a_node4"><a xlink:title=" ">
<polygon fill="#e0e0e0" stroke="#999999" points="178.5,-19.25 134,-19.25 134,0 178.5,0 178.5,-19.25"/>
<text text-anchor="middle" x="156.25" y="-5.75" font-family="Helvetica,sans-Serif" font-size="10.00">stdio.h</text>
</a>
</g>
</g>
<!-- Node1&#45;&gt;Node4 -->
<g id="edge3" class="edge">
<title>Node1&#45;&gt;Node4</title>
<path fill="none" stroke="#63b8ff" d="M156.25,-55.08C156.25,-48.42 156.25,-38.99 156.25,-30.53"/>
<polygon fill="#63b8ff" stroke="#63b8ff" points="159.75,-30.61 156.25,-20.61 152.75,-30.61 159.75,-30.61"/>
</g>
<!-- Node5 -->
<g id="node5" class="node">
<title>Node5</title>
<g id="a_node5"><a xlink:href="v8-version_8h.html" target="_top" xlink:title=" ">
<polygon fill="white" stroke="#666666" points="265.5,-19.25 197,-19.25 197,0 265.5,0 265.5,-19.25"/>
<text text-anchor="middle" x="231.25" y="-5.75" font-family="Helvetica,sans-Serif" font-size="10.00">v8&#45;version.h</text>
</a>
</g>
</g>
<!-- Node1&#45;&gt;Node5 -->
<g id="edge4" class="edge">
<title>Node1&#45;&gt;Node5</title>
<path fill="none" stroke="#63b8ff" d="M168.97,-54.84C180.07,-46.96 196.41,-35.36 209.57,-26.02"/>
<polygon fill="#63b8ff" stroke="#63b8ff" points="211.34,-28.35 217.46,-19.7 207.28,-22.64 211.34,-28.35"/>
</g>
<!-- Node6 -->
<g id="node6" class="node">
<title>Node6</title>
<g id="a_node6"><a xlink:href="v8config_8h.html" target="_top" xlink:title=" ">
<polygon fill="white" stroke="#666666" points="343,-19.25 283.5,-19.25 283.5,0 343,0 343,-19.25"/>
<text text-anchor="middle" x="313.25" y="-5.75" font-family="Helvetica,sans-Serif" font-size="10.00">v8config.h</text>
</a>
</g>
</g>
<!-- Node1&#45;&gt;Node6 -->
<g id="edge5" class="edge">
<title>Node1&#45;&gt;Node6</title>
<path fill="none" stroke="#63b8ff" d="M182.88,-54.84C208.6,-46.12 247.75,-32.84 276.43,-23.11"/>
<polygon fill="#63b8ff" stroke="#63b8ff" points="277.14,-26.23 285.49,-19.7 274.89,-19.6 277.14,-26.23"/>
</g>
</g>
</svg>
