<?xml version="1.0" encoding="UTF-8" standalone="no"?>
<!DOCTYPE svg PUBLIC "-//W3C//DTD SVG 1.1//EN"
 "http://www.w3.org/Graphics/SVG/1.1/DTD/svg11.dtd">
<!-- Generated by graphviz version 8.0.5 (20230430.1635)
 -->
<!-- Title: v8::AllocationProfile::Node Pages: 1 -->
<svg width="911pt" height="133pt"
 viewBox="0.00 0.00 910.80 132.88" xmlns="http://www.w3.org/2000/svg" xmlns:xlink="http://www.w3.org/1999/xlink">
<g id="graph0" class="graph" transform="scale(1 1) rotate(0) translate(4 128.88)">
<title>v8::AllocationProfile::Node</title>
<!-- Node1 -->
<g id="node1" class="node">
<title>Node1</title>
<g id="a_node1"><a xlink:title=" ">
<polygon fill="#999999" stroke="#666666" points="697.8,-80.88 597.05,-80.88 597.05,-50.38 697.8,-50.38 697.8,-80.88"/>
<text text-anchor="start" x="605.05" y="-67.38" font-family="Helvetica,sans-Serif" font-size="10.00">v8::AllocationProfile</text>
<text text-anchor="middle" x="647.42" y="-56.12" font-family="Helvetica,sans-Serif" font-size="10.00">::Node</text>
</a>
</g>
</g>
<!-- Node4 -->
<g id="node4" class="node">
<title>Node4</title>
<g id="a_node4"><a xlink:title=" ">
<polygon fill="white" stroke="#666666" points="902.8,-46.88 775.8,-46.88 775.8,-16.38 902.8,-16.38 902.8,-46.88"/>
<text text-anchor="start" x="783.8" y="-33.38" font-family="Helvetica,sans-Serif" font-size="10.00">std::vector&lt; v8::Allocation</text>
<text text-anchor="middle" x="839.3" y="-22.12" font-family="Helvetica,sans-Serif" font-size="10.00">Profile::Node * &gt;</text>
</a>
</g>
</g>
<!-- Node1&#45;&gt;Node4 -->
<g id="edge4" class="edge">
<title>Node1&#45;&gt;Node4</title>
<path fill="none" stroke="#9a32cd" stroke-dasharray="5,2" d="M681.86,-44.74C692.33,-39.28 704.2,-34.16 715.8,-31.38 734.83,-26.82 756,-25.57 775.32,-25.84"/>
<polygon fill="#9a32cd" stroke="#9a32cd" points="680.37,-42.11 673.3,-50 683.75,-48.24 680.37,-42.11"/>
<text text-anchor="middle" x="736.8" y="-33.38" font-family="Helvetica,sans-Serif" font-size="10.00"> elements</text>
</g>
<!-- Node2 -->
<g id="node2" class="node">
<title>Node2</title>
<g id="a_node2"><a xlink:href="classv8_1_1Local.html" target="_top" xlink:title=" ">
<polygon fill="white" stroke="#666666" points="458.3,-121.25 346.3,-121.25 346.3,-102 458.3,-102 458.3,-121.25"/>
<text text-anchor="middle" x="402.3" y="-107.75" font-family="Helvetica,sans-Serif" font-size="10.00">v8::Local&lt; v8::String &gt;</text>
</a>
</g>
</g>
<!-- Node2&#45;&gt;Node1 -->
<g id="edge1" class="edge">
<title>Node2&#45;&gt;Node1</title>
<path fill="none" stroke="#9a32cd" stroke-dasharray="5,2" d="M468.9,-100.77C501.99,-95.11 542.72,-87.87 579.05,-80.62 584.81,-79.48 590.83,-78.22 596.81,-76.93"/>
<polygon fill="#9a32cd" stroke="#9a32cd" points="468.7,-97.42 459.43,-102.55 469.88,-104.32 468.7,-97.42"/>
<text text-anchor="middle" x="531.42" y="-110.62" font-family="Helvetica,sans-Serif" font-size="10.00"> name</text>
<text text-anchor="middle" x="531.42" y="-99.38" font-family="Helvetica,sans-Serif" font-size="10.00">script_name</text>
</g>
<!-- Node3 -->
<g id="node3" class="node">
<title>Node3</title>
<g id="a_node3"><a xlink:href="classv8_1_1Local.html" target="_top" xlink:title=" ">
<polygon fill="white" stroke="#666666" points="195.92,-124.25 118.42,-124.25 118.42,-105 195.92,-105 195.92,-124.25"/>
<text text-anchor="middle" x="157.17" y="-110.75" font-family="Helvetica,sans-Serif" font-size="10.00">v8::Local&lt; T &gt;</text>
</a>
</g>
</g>
<!-- Node3&#45;&gt;Node2 -->
<g id="edge2" class="edge">
<title>Node3&#45;&gt;Node2</title>
<path fill="none" stroke="orange" stroke-dasharray="5,2" d="M207.02,-114.02C247.2,-113.53 304.13,-112.82 345.98,-112.31"/>
<polygon fill="orange" stroke="orange" points="207.12,-110.53 197.16,-114.16 207.21,-117.53 207.12,-110.53"/>
<text text-anchor="middle" x="273.17" y="-115.38" font-family="Helvetica,sans-Serif" font-size="10.00"> &lt; v8::String &gt;</text>
</g>
<!-- Node4&#45;&gt;Node1 -->
<g id="edge3" class="edge">
<title>Node4&#45;&gt;Node1</title>
<path fill="none" stroke="#9a32cd" stroke-dasharray="5,2" d="M764.99,-44.75C742.5,-48.78 718.31,-53.11 697.82,-56.78"/>
<polygon fill="#9a32cd" stroke="#9a32cd" points="765.3,-48.07 774.53,-42.87 764.07,-41.18 765.3,-48.07"/>
<text text-anchor="middle" x="736.8" y="-55.38" font-family="Helvetica,sans-Serif" font-size="10.00"> children</text>
</g>
<!-- Node5 -->
<g id="node5" class="node">
<title>Node5</title>
<g id="a_node5"><a xlink:title=" ">
<polygon fill="white" stroke="#666666" points="198.92,-19.25 115.42,-19.25 115.42,0 198.92,0 198.92,-19.25"/>
<text text-anchor="middle" x="157.17" y="-5.75" font-family="Helvetica,sans-Serif" font-size="10.00">std::vector&lt; T &gt;</text>
</a>
</g>
</g>
<!-- Node5&#45;&gt;Node4 -->
<g id="edge5" class="edge">
<title>Node5&#45;&gt;Node4</title>
<path fill="none" stroke="orange" stroke-dasharray="5,2" d="M210.13,-9.19C314.19,-8.65 555.56,-9.15 757.8,-22.62 763.55,-23.01 769.53,-23.5 775.51,-24.05"/>
<polygon fill="orange" stroke="orange" points="210.29,-5.69 200.31,-9.25 210.33,-12.69 210.29,-5.69"/>
<text text-anchor="start" x="483.8" y="-27.62" font-family="Helvetica,sans-Serif" font-size="10.00"> &lt; v8::AllocationProfile</text>
<text text-anchor="middle" x="531.42" y="-16.38" font-family="Helvetica,sans-Serif" font-size="10.00">::Node * &gt;</text>
</g>
<!-- Node7 -->
<g id="node7" class="node">
<title>Node7</title>
<g id="a_node7"><a xlink:title=" ">
<polygon fill="white" stroke="#666666" points="465.8,-80.88 338.8,-80.88 338.8,-50.38 465.8,-50.38 465.8,-80.88"/>
<text text-anchor="start" x="346.8" y="-67.38" font-family="Helvetica,sans-Serif" font-size="10.00">std::vector&lt; v8::Allocation</text>
<text text-anchor="middle" x="402.3" y="-56.12" font-family="Helvetica,sans-Serif" font-size="10.00">Profile::Allocation &gt;</text>
</a>
</g>
</g>
<!-- Node5&#45;&gt;Node7 -->
<g id="edge9" class="edge">
<title>Node5&#45;&gt;Node7</title>
<path fill="none" stroke="orange" stroke-dasharray="5,2" d="M209.65,-18.73C241.76,-24.7 283.87,-33.06 320.8,-42.12 330.27,-44.45 340.3,-47.17 349.95,-49.91"/>
<polygon fill="orange" stroke="orange" points="210.63,-15.17 200.16,-16.8 209.36,-22.05 210.63,-15.17"/>
<text text-anchor="start" x="225.55" y="-55.62" font-family="Helvetica,sans-Serif" font-size="10.00"> &lt; v8::AllocationProfile</text>
<text text-anchor="middle" x="273.17" y="-44.38" font-family="Helvetica,sans-Serif" font-size="10.00">::Allocation &gt;</text>
</g>
<!-- Node6 -->
<g id="node6" class="node">
<title>Node6</title>
<g id="a_node6"><a xlink:title=" ">
<polygon fill="white" stroke="#666666" points="28.8,-19.25 0,-19.25 0,0 28.8,0 28.8,-19.25"/>
<text text-anchor="middle" x="14.4" y="-5.75" font-family="Helvetica,sans-Serif" font-size="10.00">T</text>
</a>
</g>
</g>
<!-- Node6&#45;&gt;Node5 -->
<g id="edge6" class="edge">
<title>Node6&#45;&gt;Node5</title>
<path fill="none" stroke="#9a32cd" stroke-dasharray="5,2" d="M40.15,-9.62C60.84,-9.62 90.76,-9.62 115.04,-9.62"/>
<polygon fill="#9a32cd" stroke="#9a32cd" points="40.15,-6.13 30.15,-9.62 40.15,-13.13 40.15,-6.13"/>
<text text-anchor="middle" x="67.8" y="-11.38" font-family="Helvetica,sans-Serif" font-size="10.00"> elements</text>
</g>
<!-- Node7&#45;&gt;Node1 -->
<g id="edge7" class="edge">
<title>Node7&#45;&gt;Node1</title>
<path fill="none" stroke="#9a32cd" stroke-dasharray="5,2" d="M476.95,-65.62C515.75,-65.62 562.3,-65.62 596.79,-65.62"/>
<polygon fill="#9a32cd" stroke="#9a32cd" points="477.23,-62.13 467.23,-65.62 477.23,-69.13 477.23,-62.13"/>
<text text-anchor="middle" x="531.42" y="-67.38" font-family="Helvetica,sans-Serif" font-size="10.00"> allocations</text>
</g>
<!-- Node8 -->
<g id="node8" class="node">
<title>Node8</title>
<g id="a_node8"><a xlink:href="structv8_1_1AllocationProfile_1_1Allocation.html" target="_top" xlink:title=" ">
<polygon fill="white" stroke="#666666" points="207.55,-86.88 106.8,-86.88 106.8,-56.38 207.55,-56.38 207.55,-86.88"/>
<text text-anchor="start" x="114.8" y="-73.38" font-family="Helvetica,sans-Serif" font-size="10.00">v8::AllocationProfile</text>
<text text-anchor="middle" x="157.17" y="-62.12" font-family="Helvetica,sans-Serif" font-size="10.00">::Allocation</text>
</a>
</g>
</g>
<!-- Node8&#45;&gt;Node7 -->
<g id="edge8" class="edge">
<title>Node8&#45;&gt;Node7</title>
<path fill="none" stroke="#9a32cd" stroke-dasharray="5,2" d="M218.95,-70.13C255.44,-69.22 301.76,-68.08 338.59,-67.17"/>
<polygon fill="#9a32cd" stroke="#9a32cd" points="218.87,-66.65 208.96,-70.4 219.04,-73.65 218.87,-66.65"/>
<text text-anchor="middle" x="273.17" y="-72.38" font-family="Helvetica,sans-Serif" font-size="10.00"> elements</text>
</g>
</g>
</svg>
