<?xml version="1.0" encoding="UTF-8" standalone="no"?>
<!DOCTYPE svg PUBLIC "-//W3C//DTD SVG 1.1//EN"
 "http://www.w3.org/Graphics/SVG/1.1/DTD/svg11.dtd">
<!-- Generated by graphviz version 8.0.5 (20230430.1635)
 -->
<!-- Title: include/v8&#45;inspector&#45;protocol.h Pages: 1 -->
<svg width="2912pt" height="646pt"
 viewBox="0.00 0.00 2912.25 646.25" xmlns="http://www.w3.org/2000/svg" xmlns:xlink="http://www.w3.org/1999/xlink">
<g id="graph0" class="graph" transform="scale(1 1) rotate(0) translate(4 642.25)">
<title>include/v8&#45;inspector&#45;protocol.h</title>
<!-- Node1 -->
<g id="node1" class="node">
<title>Node1</title>
<g id="a_node1"><a xlink:title=" ">
<polygon fill="#999999" stroke="#666666" points="2677.5,-638.25 2574.5,-638.25 2574.5,-607.75 2677.5,-607.75 2677.5,-638.25"/>
<text text-anchor="start" x="2582.5" y="-624.75" font-family="Helvetica,sans-Serif" font-size="10.00">include/v8&#45;inspector</text>
<text text-anchor="middle" x="2626" y="-613.5" font-family="Helvetica,sans-Serif" font-size="10.00">&#45;protocol.h</text>
</a>
</g>
</g>
<!-- Node2 -->
<g id="node2" class="node">
<title>Node2</title>
<g id="a_node2"><a xlink:title=" ">
<polygon fill="#e0e0e0" stroke="#999999" points="2496.75,-571.75 2389.25,-571.75 2389.25,-552.5 2496.75,-552.5 2496.75,-571.75"/>
<text text-anchor="middle" x="2443" y="-558.25" font-family="Helvetica,sans-Serif" font-size="10.00">inspector/Debugger.h</text>
</a>
</g>
</g>
<!-- Node1&#45;&gt;Node2 -->
<g id="edge1" class="edge">
<title>Node1&#45;&gt;Node2</title>
<path fill="none" stroke="#63b8ff" d="M2580.29,-607.3C2549.84,-597.5 2510.27,-584.77 2481.43,-575.49"/>
<polygon fill="#63b8ff" stroke="#63b8ff" points="2482.93,-571.97 2472.33,-572.24 2480.78,-578.64 2482.93,-571.97"/>
</g>
<!-- Node3 -->
<g id="node3" class="node">
<title>Node3</title>
<g id="a_node3"><a xlink:title=" ">
<polygon fill="#e0e0e0" stroke="#999999" points="2617.12,-571.75 2514.88,-571.75 2514.88,-552.5 2617.12,-552.5 2617.12,-571.75"/>
<text text-anchor="middle" x="2566" y="-558.25" font-family="Helvetica,sans-Serif" font-size="10.00">inspector/Runtime.h</text>
</a>
</g>
</g>
<!-- Node1&#45;&gt;Node3 -->
<g id="edge2" class="edge">
<title>Node1&#45;&gt;Node3</title>
<path fill="none" stroke="#63b8ff" d="M2611.17,-607.45C2602.65,-599.09 2591.91,-588.55 2583.05,-579.85"/>
<polygon fill="#63b8ff" stroke="#63b8ff" points="2585.84,-577.71 2576.25,-573.2 2580.94,-582.7 2585.84,-577.71"/>
</g>
<!-- Node4 -->
<g id="node4" class="node">
<title>Node4</title>
<g id="a_node4"><a xlink:title=" ">
<polygon fill="#e0e0e0" stroke="#999999" points="2737.12,-571.75 2634.88,-571.75 2634.88,-552.5 2737.12,-552.5 2737.12,-571.75"/>
<text text-anchor="middle" x="2686" y="-558.25" font-family="Helvetica,sans-Serif" font-size="10.00">inspector/Schema.h</text>
</a>
</g>
</g>
<!-- Node1&#45;&gt;Node4 -->
<g id="edge3" class="edge">
<title>Node1&#45;&gt;Node4</title>
<path fill="none" stroke="#63b8ff" d="M2640.83,-607.45C2649.35,-599.09 2660.09,-588.55 2668.95,-579.85"/>
<polygon fill="#63b8ff" stroke="#63b8ff" points="2671.06,-582.7 2675.75,-573.2 2666.16,-577.71 2671.06,-582.7"/>
</g>
<!-- Node5 -->
<g id="node5" class="node">
<title>Node5</title>
<g id="a_node5"><a xlink:href="v8-inspector_8h.html" target="_top" xlink:title=" ">
<polygon fill="white" stroke="#666666" points="2832.38,-571.75 2755.62,-571.75 2755.62,-552.5 2832.38,-552.5 2832.38,-571.75"/>
<text text-anchor="middle" x="2794" y="-558.25" font-family="Helvetica,sans-Serif" font-size="10.00">v8&#45;inspector.h</text>
</a>
</g>
</g>
<!-- Node1&#45;&gt;Node5 -->
<g id="edge4" class="edge">
<title>Node1&#45;&gt;Node5</title>
<path fill="none" stroke="#63b8ff" d="M2667.96,-607.3C2695.64,-597.6 2731.52,-585.02 2757.91,-575.77"/>
<polygon fill="#63b8ff" stroke="#63b8ff" points="2758.96,-578.76 2767.24,-572.15 2756.64,-572.16 2758.96,-578.76"/>
</g>
<!-- Node6 -->
<g id="node6" class="node">
<title>Node6</title>
<g id="a_node6"><a xlink:title=" ">
<polygon fill="#e0e0e0" stroke="#999999" points="2507.75,-19.25 2460.25,-19.25 2460.25,0 2507.75,0 2507.75,-19.25"/>
<text text-anchor="middle" x="2484" y="-5.75" font-family="Helvetica,sans-Serif" font-size="10.00">stdint.h</text>
</a>
</g>
</g>
<!-- Node5&#45;&gt;Node6 -->
<g id="edge5" class="edge">
<title>Node5&#45;&gt;Node6</title>
<path fill="none" stroke="#63b8ff" d="M2799.44,-552.21C2809.95,-534.13 2832,-491.54 2832,-452.62 2832,-452.62 2832,-452.62 2832,-119.12 2832,-70.44 2787.91,-74.06 2743,-55.25 2667.29,-23.55 2570.09,-14.36 2518.99,-11.71"/>
<polygon fill="#63b8ff" stroke="#63b8ff" points="2519.36,-8.17 2509.21,-11.21 2519.04,-15.17 2519.36,-8.17"/>
</g>
<!-- Node7 -->
<g id="node7" class="node">
<title>Node7</title>
<g id="a_node7"><a xlink:title=" ">
<polygon fill="#e0e0e0" stroke="#999999" points="2904.25,-516.5 2859.75,-516.5 2859.75,-497.25 2904.25,-497.25 2904.25,-516.5"/>
<text text-anchor="middle" x="2882" y="-503" font-family="Helvetica,sans-Serif" font-size="10.00">cctype</text>
</a>
</g>
</g>
<!-- Node5&#45;&gt;Node7 -->
<g id="edge6" class="edge">
<title>Node5&#45;&gt;Node7</title>
<path fill="none" stroke="#63b8ff" d="M2808.93,-552.09C2822.33,-543.98 2842.24,-531.93 2857.9,-522.46"/>
<polygon fill="#63b8ff" stroke="#63b8ff" points="2859.26,-525.12 2866,-516.95 2855.63,-519.14 2859.26,-525.12"/>
</g>
<!-- Node8 -->
<g id="node8" class="node">
<title>Node8</title>
<g id="a_node8"><a xlink:title=" ">
<polygon fill="#e0e0e0" stroke="#999999" points="2138.25,-129.75 2087.75,-129.75 2087.75,-110.5 2138.25,-110.5 2138.25,-129.75"/>
<text text-anchor="middle" x="2113" y="-116.25" font-family="Helvetica,sans-Serif" font-size="10.00">memory</text>
</a>
</g>
</g>
<!-- Node5&#45;&gt;Node8 -->
<g id="edge7" class="edge">
<title>Node5&#45;&gt;Node8</title>
<path fill="none" stroke="#63b8ff" d="M2794,-552.12C2794,-533.53 2794,-489.55 2794,-452.62 2794,-452.62 2794,-452.62 2794,-395.38 2794,-216.33 2630.66,-228.56 2463,-165.75 2406,-144.4 2226.59,-129.3 2149.16,-123.62"/>
<polygon fill="#63b8ff" stroke="#63b8ff" points="2149.73,-120.08 2139.5,-122.85 2149.22,-127.06 2149.73,-120.08"/>
</g>
<!-- Node9 -->
<g id="node9" class="node">
<title>Node9</title>
<g id="a_node9"><a xlink:href="v8-isolate_8h.html" target="_top" xlink:title=" ">
<polygon fill="white" stroke="#666666" points="1577.75,-516.5 1512.25,-516.5 1512.25,-497.25 1577.75,-497.25 1577.75,-516.5"/>
<text text-anchor="middle" x="1545" y="-503" font-family="Helvetica,sans-Serif" font-size="10.00">v8&#45;isolate.h</text>
</a>
</g>
</g>
<!-- Node5&#45;&gt;Node9 -->
<g id="edge8" class="edge">
<title>Node5&#45;&gt;Node9</title>
<path fill="none" stroke="#63b8ff" d="M2755.29,-553.69C2752.16,-553.23 2749.03,-552.83 2746,-552.5 2515.01,-527.58 1777.03,-512.25 1588.95,-508.68"/>
<polygon fill="#63b8ff" stroke="#63b8ff" points="1589.19,-505.16 1579.12,-508.47 1589.05,-512.16 1589.19,-505.16"/>
</g>
<!-- Node15 -->
<g id="node15" class="node">
<title>Node15</title>
<g id="a_node15"><a xlink:href="v8-local-handle_8h.html" target="_top" xlink:title=" ">
<polygon fill="white" stroke="#666666" points="1381.38,-129.75 1292.62,-129.75 1292.62,-110.5 1381.38,-110.5 1381.38,-129.75"/>
<text text-anchor="middle" x="1337" y="-116.25" font-family="Helvetica,sans-Serif" font-size="10.00">v8&#45;local&#45;handle.h</text>
</a>
</g>
</g>
<!-- Node5&#45;&gt;Node15 -->
<g id="edge145" class="edge">
<title>Node5&#45;&gt;Node15</title>
<path fill="none" stroke="#63b8ff" d="M2755.3,-553.66C2752.16,-553.21 2749.03,-552.81 2746,-552.5 2677.28,-545.37 1559.53,-556.22 1503,-516.5 1434.46,-468.35 1402.75,-240.52 1365,-165.75 1360.42,-156.68 1354.54,-147.08 1349.36,-139.11"/>
<polygon fill="#63b8ff" stroke="#63b8ff" points="1351.77,-137.43 1343.3,-131.07 1345.95,-141.32 1351.77,-137.43"/>
</g>
<!-- Node9&#45;&gt;Node6 -->
<g id="edge10" class="edge">
<title>Node9&#45;&gt;Node6</title>
<path fill="none" stroke="#63b8ff" d="M1578.12,-505.39C1756.61,-502.64 2597.52,-488.3 2645,-461.25 2750.71,-401.02 2794,-353.28 2794,-231.62 2794,-231.62 2794,-231.62 2794,-119.12 2794,-61.33 2599.62,-27.03 2518.7,-15.26"/>
<polygon fill="#63b8ff" stroke="#63b8ff" points="2519.46,-11.69 2509.07,-13.75 2518.47,-18.62 2519.46,-11.69"/>
</g>
<!-- Node9&#45;&gt;Node8 -->
<g id="edge11" class="edge">
<title>Node9&#45;&gt;Node8</title>
<path fill="none" stroke="#63b8ff" d="M1578.11,-502.69C1674.89,-492.82 1955.02,-460.11 2027,-406 2112.75,-341.55 2115.35,-291.92 2124,-185 2124.69,-176.47 2125.03,-174.24 2124,-165.75 2122.99,-157.44 2120.96,-148.44 2118.92,-140.72"/>
<polygon fill="#63b8ff" stroke="#63b8ff" points="2122.04,-139.9 2115.93,-131.23 2115.3,-141.81 2122.04,-139.9"/>
</g>
<!-- Node10 -->
<g id="node10" class="node">
<title>Node10</title>
<g id="a_node10"><a xlink:title=" ">
<polygon fill="#e0e0e0" stroke="#999999" points="2187.25,-19.25 2136.75,-19.25 2136.75,0 2187.25,0 2187.25,-19.25"/>
<text text-anchor="middle" x="2162" y="-5.75" font-family="Helvetica,sans-Serif" font-size="10.00">stddef.h</text>
</a>
</g>
</g>
<!-- Node9&#45;&gt;Node10 -->
<g id="edge9" class="edge">
<title>Node9&#45;&gt;Node10</title>
<path fill="none" stroke="#63b8ff" d="M1578.01,-505.82C1747.04,-505.33 2511.63,-500.96 2609,-461.25 2648.3,-445.22 2680,-439.82 2680,-397.38 2680,-397.38 2680,-397.38 2680,-340.12 2680,-111.42 2316.07,-34.62 2198.3,-15.75"/>
<polygon fill="#63b8ff" stroke="#63b8ff" points="2199.11,-12.18 2188.69,-14.1 2198.03,-19.1 2199.11,-12.18"/>
</g>
<!-- Node11 -->
<g id="node11" class="node">
<title>Node11</title>
<g id="a_node11"><a xlink:title=" ">
<polygon fill="#e0e0e0" stroke="#999999" points="2342.25,-129.75 2303.75,-129.75 2303.75,-110.5 2342.25,-110.5 2342.25,-129.75"/>
<text text-anchor="middle" x="2323" y="-116.25" font-family="Helvetica,sans-Serif" font-size="10.00">utility</text>
</a>
</g>
</g>
<!-- Node9&#45;&gt;Node11 -->
<g id="edge12" class="edge">
<title>Node9&#45;&gt;Node11</title>
<path fill="none" stroke="#63b8ff" d="M1578.13,-505.73C1751.99,-504.81 2552.24,-498.57 2588,-461.25 2680.65,-364.55 2642.77,-236.41 2529,-165.75 2499.87,-147.66 2403,-132.14 2353.17,-125.12"/>
<polygon fill="#63b8ff" stroke="#63b8ff" points="2353.82,-121.54 2343.44,-123.64 2352.87,-128.48 2353.82,-121.54"/>
</g>
<!-- Node12 -->
<g id="node12" class="node">
<title>Node12</title>
<g id="a_node12"><a xlink:href="common_8h.html" target="_top" xlink:title=" ">
<polygon fill="white" stroke="#666666" points="156.12,-185 65.88,-185 65.88,-165.75 156.12,-165.75 156.12,-185"/>
<text text-anchor="middle" x="111" y="-171.5" font-family="Helvetica,sans-Serif" font-size="10.00">cppgc/common.h</text>
</a>
</g>
</g>
<!-- Node9&#45;&gt;Node12 -->
<g id="edge13" class="edge">
<title>Node9&#45;&gt;Node12</title>
<path fill="none" stroke="#63b8ff" d="M1511.85,-505.73C1316.51,-504.75 319.82,-497.98 189,-461.25 133.46,-445.66 76,-455.07 76,-397.38 76,-397.38 76,-397.38 76,-284.88 76,-252.01 90.73,-216.13 101.07,-194.97"/>
<polygon fill="#63b8ff" stroke="#63b8ff" points="104.56,-196.84 105.99,-186.35 98.32,-193.66 104.56,-196.84"/>
</g>
<!-- Node13 -->
<g id="node13" class="node">
<title>Node13</title>
<g id="a_node13"><a xlink:href="v8config_8h.html" target="_top" xlink:title=" ">
<polygon fill="white" stroke="#666666" points="555.75,-19.25 496.25,-19.25 496.25,0 555.75,0 555.75,-19.25"/>
<text text-anchor="middle" x="526" y="-5.75" font-family="Helvetica,sans-Serif" font-size="10.00">v8config.h</text>
</a>
</g>
</g>
<!-- Node9&#45;&gt;Node13 -->
<g id="edge144" class="edge">
<title>Node9&#45;&gt;Node13</title>
<path fill="none" stroke="#63b8ff" d="M1512,-505.9C1309.55,-505.89 239.86,-503.81 101,-461.25 50.22,-445.69 0,-450.49 0,-397.38 0,-397.38 0,-397.38 0,-119.12 0,-77.66 30.23,-72.37 68,-55.25 141.93,-21.74 387.06,-13.31 485.03,-11.26"/>
<polygon fill="#63b8ff" stroke="#63b8ff" points="485.02,-14.74 494.95,-11.05 484.89,-7.74 485.02,-14.74"/>
</g>
<!-- Node14 -->
<g id="node14" class="node">
<title>Node14</title>
<g id="a_node14"><a xlink:href="v8-array-buffer_8h.html" target="_top" xlink:title=" ">
<polygon fill="white" stroke="#666666" points="1659.5,-406 1574.5,-406 1574.5,-386.75 1659.5,-386.75 1659.5,-406"/>
<text text-anchor="middle" x="1617" y="-392.5" font-family="Helvetica,sans-Serif" font-size="10.00">v8&#45;array&#45;buffer.h</text>
</a>
</g>
</g>
<!-- Node9&#45;&gt;Node14 -->
<g id="edge15" class="edge">
<title>Node9&#45;&gt;Node14</title>
<path fill="none" stroke="#63b8ff" d="M1550.89,-497C1562.71,-479.19 1589.49,-438.83 1605.1,-415.31"/>
<polygon fill="#63b8ff" stroke="#63b8ff" points="1608.41,-417.64 1611.03,-407.38 1602.58,-413.77 1608.41,-417.64"/>
</g>
<!-- Node9&#45;&gt;Node15 -->
<g id="edge115" class="edge">
<title>Node9&#45;&gt;Node15</title>
<path fill="none" stroke="#63b8ff" d="M1539.7,-496.94C1529.47,-478.82 1508,-436.18 1508,-397.38 1508,-397.38 1508,-397.38 1508,-340.12 1508,-250.79 1472.47,-227.6 1408,-165.75 1395.4,-153.66 1379.03,-143.11 1365.19,-135.31"/>
<polygon fill="#63b8ff" stroke="#63b8ff" points="1367.1,-131.82 1356.64,-130.12 1363.76,-137.97 1367.1,-131.82"/>
</g>
<!-- Node17 -->
<g id="node17" class="node">
<title>Node17</title>
<g id="a_node17"><a xlink:href="v8-internal_8h.html" target="_top" xlink:title=" ">
<polygon fill="white" stroke="#666666" points="1505.25,-74.5 1436.75,-74.5 1436.75,-55.25 1505.25,-55.25 1505.25,-74.5"/>
<text text-anchor="middle" x="1471" y="-61" font-family="Helvetica,sans-Serif" font-size="10.00">v8&#45;internal.h</text>
</a>
</g>
</g>
<!-- Node9&#45;&gt;Node17 -->
<g id="edge114" class="edge">
<title>Node9&#45;&gt;Node17</title>
<path fill="none" stroke="#63b8ff" d="M1511.77,-505.44C1329.57,-502.94 455.63,-489.55 339,-461.25 274.1,-445.5 203,-464.15 203,-397.38 203,-397.38 203,-397.38 203,-340.12 203,-84.58 1199.28,-66.59 1425.63,-65.8"/>
<polygon fill="#63b8ff" stroke="#63b8ff" points="1425.44,-69.29 1435.43,-65.77 1425.42,-62.29 1425.44,-69.29"/>
</g>
<!-- Node23 -->
<g id="node23" class="node">
<title>Node23</title>
<g id="a_node23"><a xlink:href="v8-persistent-handle_8h.html" target="_top" xlink:title=" ">
<polygon fill="white" stroke="#666666" points="741.62,-185 630.38,-185 630.38,-165.75 741.62,-165.75 741.62,-185"/>
<text text-anchor="middle" x="686" y="-171.5" font-family="Helvetica,sans-Serif" font-size="10.00">v8&#45;persistent&#45;handle.h</text>
</a>
</g>
</g>
<!-- Node9&#45;&gt;Node23 -->
<g id="edge117" class="edge">
<title>Node9&#45;&gt;Node23</title>
<path fill="none" stroke="#63b8ff" d="M1511.92,-505.79C1324.79,-505.14 405.64,-499.99 361,-461.25 316.93,-423.01 314.68,-383.58 341,-331.5 392.72,-229.16 534.37,-194.26 619.22,-182.41"/>
<polygon fill="#63b8ff" stroke="#63b8ff" points="619.58,-185.76 629.04,-180.98 618.67,-178.82 619.58,-185.76"/>
</g>
<!-- Node25 -->
<g id="node25" class="node">
<title>Node25</title>
<g id="a_node25"><a xlink:href="v8-primitive_8h.html" target="_top" xlink:title=" ">
<polygon fill="white" stroke="#666666" points="938.88,-295.5 865.12,-295.5 865.12,-276.25 938.88,-276.25 938.88,-295.5"/>
<text text-anchor="middle" x="902" y="-282" font-family="Helvetica,sans-Serif" font-size="10.00">v8&#45;primitive.h</text>
</a>
</g>
</g>
<!-- Node9&#45;&gt;Node25 -->
<g id="edge118" class="edge">
<title>Node9&#45;&gt;Node25</title>
<path fill="none" stroke="#63b8ff" d="M1515.49,-496.8C1486.91,-487.94 1442.38,-473.99 1404,-461.25 1228.22,-402.92 1019.45,-328.85 937.51,-299.59"/>
<polygon fill="#63b8ff" stroke="#63b8ff" points="938.84,-295.99 928.25,-295.92 936.49,-302.59 938.84,-295.99"/>
</g>
<!-- Node26 -->
<g id="node26" class="node">
<title>Node26</title>
<g id="a_node26"><a xlink:href="v8-data_8h.html" target="_top" xlink:title=" ">
<polygon fill="white" stroke="#666666" points="815.88,-185 760.12,-185 760.12,-165.75 815.88,-165.75 815.88,-185"/>
<text text-anchor="middle" x="788" y="-171.5" font-family="Helvetica,sans-Serif" font-size="10.00">v8&#45;data.h</text>
</a>
</g>
</g>
<!-- Node9&#45;&gt;Node26 -->
<g id="edge81" class="edge">
<title>Node9&#45;&gt;Node26</title>
<path fill="none" stroke="#63b8ff" d="M1511.77,-506.09C1394.38,-506.47 988.4,-504.35 657,-461.25 520.95,-443.56 355,-534.57 355,-397.38 355,-397.38 355,-397.38 355,-340.12 355,-298.16 643.21,-215.67 749.36,-186.72"/>
<polygon fill="#63b8ff" stroke="#63b8ff" points="750.19,-189.85 758.92,-183.85 748.36,-183.09 750.19,-189.85"/>
</g>
<!-- Node30 -->
<g id="node30" class="node">
<title>Node30</title>
<g id="a_node30"><a xlink:href="v8-callbacks_8h.html" target="_top" xlink:title=" ">
<polygon fill="white" stroke="#666666" points="843.12,-461.25 764.88,-461.25 764.88,-442 843.12,-442 843.12,-461.25"/>
<text text-anchor="middle" x="804" y="-447.75" font-family="Helvetica,sans-Serif" font-size="10.00">v8&#45;callbacks.h</text>
</a>
</g>
</g>
<!-- Node9&#45;&gt;Node30 -->
<g id="edge70" class="edge">
<title>Node9&#45;&gt;Node30</title>
<path fill="none" stroke="#63b8ff" d="M1512.2,-503.52C1394.94,-495.09 995.92,-466.42 854.34,-456.24"/>
<polygon fill="#63b8ff" stroke="#63b8ff" points="854.64,-452.68 844.41,-455.46 854.13,-459.66 854.64,-452.68"/>
</g>
<!-- Node33 -->
<g id="node33" class="node">
<title>Node33</title>
<g id="a_node33"><a xlink:href="v8-debug_8h.html" target="_top" xlink:title=" ">
<polygon fill="white" stroke="#666666" points="1827.62,-461.25 1764.38,-461.25 1764.38,-442 1827.62,-442 1827.62,-461.25"/>
<text text-anchor="middle" x="1796" y="-447.75" font-family="Helvetica,sans-Serif" font-size="10.00">v8&#45;debug.h</text>
</a>
</g>
</g>
<!-- Node9&#45;&gt;Node33 -->
<g id="edge82" class="edge">
<title>Node9&#45;&gt;Node33</title>
<path fill="none" stroke="#63b8ff" d="M1578.07,-498.86C1623.12,-489.3 1703.82,-472.18 1753.37,-461.67"/>
<polygon fill="#63b8ff" stroke="#63b8ff" points="1753.99,-464.9 1763.05,-459.4 1752.54,-458.06 1753.99,-464.9"/>
</g>
<!-- Node38 -->
<g id="node38" class="node">
<title>Node38</title>
<g id="a_node38"><a xlink:href="v8-embedder-heap_8h.html" target="_top" xlink:title=" ">
<polygon fill="white" stroke="#666666" points="2347.88,-240.25 2244.12,-240.25 2244.12,-221 2347.88,-221 2347.88,-240.25"/>
<text text-anchor="middle" x="2296" y="-226.75" font-family="Helvetica,sans-Serif" font-size="10.00">v8&#45;embedder&#45;heap.h</text>
</a>
</g>
</g>
<!-- Node9&#45;&gt;Node38 -->
<g id="edge101" class="edge">
<title>Node9&#45;&gt;Node38</title>
<path fill="none" stroke="#63b8ff" d="M1578.08,-505.28C1725.58,-502.48 2317.27,-489.51 2344,-461.25 2400.74,-401.26 2337.5,-292.26 2308.73,-249.51"/>
<polygon fill="#63b8ff" stroke="#63b8ff" points="2311.12,-247.81 2302.56,-241.57 2305.36,-251.79 2311.12,-247.81"/>
</g>
<!-- Node39 -->
<g id="node39" class="node">
<title>Node39</title>
<g id="a_node39"><a xlink:href="v8-function-callback_8h.html" target="_top" xlink:title=" ">
<polygon fill="white" stroke="#666666" points="896.25,-350.75 785.75,-350.75 785.75,-331.5 896.25,-331.5 896.25,-350.75"/>
<text text-anchor="middle" x="841" y="-337.25" font-family="Helvetica,sans-Serif" font-size="10.00">v8&#45;function&#45;callback.h</text>
</a>
</g>
</g>
<!-- Node9&#45;&gt;Node39 -->
<g id="edge110" class="edge">
<title>Node9&#45;&gt;Node39</title>
<path fill="none" stroke="#63b8ff" d="M1511.76,-505.46C1381.18,-503.59 903.37,-494.59 756,-461.25 692.77,-446.95 657.13,-459.83 621,-406 616.23,-398.9 615.58,-393.37 621,-386.75 640.15,-363.33 716.98,-351.9 774.49,-346.54"/>
<polygon fill="#63b8ff" stroke="#63b8ff" points="774.69,-349.94 784.35,-345.57 774.08,-342.97 774.69,-349.94"/>
</g>
<!-- Node40 -->
<g id="node40" class="node">
<title>Node40</title>
<g id="a_node40"><a xlink:href="v8-microtask_8h.html" target="_top" xlink:title=" ">
<polygon fill="white" stroke="#666666" points="2578.88,-461.25 2499.12,-461.25 2499.12,-442 2578.88,-442 2578.88,-461.25"/>
<text text-anchor="middle" x="2539" y="-447.75" font-family="Helvetica,sans-Serif" font-size="10.00">v8&#45;microtask.h</text>
</a>
</g>
</g>
<!-- Node9&#45;&gt;Node40 -->
<g id="edge116" class="edge">
<title>Node9&#45;&gt;Node40</title>
<path fill="none" stroke="#63b8ff" d="M1578.18,-505.83C1698.89,-505.35 2126.09,-500.85 2487.99,-461.32"/>
<polygon fill="#63b8ff" stroke="#63b8ff" points="2488.13,-464.72 2497.68,-460.14 2487.36,-457.76 2488.13,-464.72"/>
</g>
<!-- Node41 -->
<g id="node41" class="node">
<title>Node41</title>
<g id="a_node41"><a xlink:href="v8-statistics_8h.html" target="_top" xlink:title=" ">
<polygon fill="white" stroke="#666666" points="2481.38,-461.25 2404.62,-461.25 2404.62,-442 2481.38,-442 2481.38,-461.25"/>
<text text-anchor="middle" x="2443" y="-447.75" font-family="Helvetica,sans-Serif" font-size="10.00">v8&#45;statistics.h</text>
</a>
</g>
</g>
<!-- Node9&#45;&gt;Node41 -->
<g id="edge119" class="edge">
<title>Node9&#45;&gt;Node41</title>
<path fill="none" stroke="#63b8ff" d="M1578.17,-505.15C1691.01,-502.44 2070.24,-491.54 2382,-461.25 2385.73,-460.89 2389.59,-460.46 2393.46,-460"/>
<polygon fill="#63b8ff" stroke="#63b8ff" points="2393.86,-463.35 2403.34,-458.61 2392.97,-456.4 2393.86,-463.35"/>
</g>
<!-- Node42 -->
<g id="node42" class="node">
<title>Node42</title>
<g id="a_node42"><a xlink:href="v8-unwinder_8h.html" target="_top" xlink:title=" ">
<polygon fill="white" stroke="#666666" points="1235,-350.75 1159,-350.75 1159,-331.5 1235,-331.5 1235,-350.75"/>
<text text-anchor="middle" x="1197" y="-337.25" font-family="Helvetica,sans-Serif" font-size="10.00">v8&#45;unwinder.h</text>
</a>
</g>
</g>
<!-- Node9&#45;&gt;Node42 -->
<g id="edge128" class="edge">
<title>Node9&#45;&gt;Node42</title>
<path fill="none" stroke="#63b8ff" d="M1524.67,-496.86C1485.87,-479.61 1398.65,-440.54 1326,-406 1290.73,-389.23 1250.46,-369.14 1224.43,-356.02"/>
<polygon fill="#63b8ff" stroke="#63b8ff" points="1226.36,-352.57 1215.86,-351.19 1223.21,-358.82 1226.36,-352.57"/>
</g>
<!-- Node12&#45;&gt;Node13 -->
<g id="edge14" class="edge">
<title>Node12&#45;&gt;Node13</title>
<path fill="none" stroke="#63b8ff" d="M112.5,-165.34C116.8,-142.56 131.43,-82.66 170,-55.25 219.83,-19.84 402.5,-12.5 485.04,-11"/>
<polygon fill="#63b8ff" stroke="#63b8ff" points="485.05,-14.48 495,-10.82 484.94,-7.48 485.05,-14.48"/>
</g>
<!-- Node14&#45;&gt;Node8 -->
<g id="edge17" class="edge">
<title>Node14&#45;&gt;Node8</title>
<path fill="none" stroke="#63b8ff" d="M1659.96,-392.99C1733.83,-388.28 1881.33,-375.95 1926,-350.75 2017.01,-299.42 2081.38,-184.86 2104.04,-139.82"/>
<polygon fill="#63b8ff" stroke="#63b8ff" points="2107.52,-141.69 2108.79,-131.17 2101.24,-138.6 2107.52,-141.69"/>
</g>
<!-- Node14&#45;&gt;Node10 -->
<g id="edge16" class="edge">
<title>Node14&#45;&gt;Node10</title>
<path fill="none" stroke="#63b8ff" d="M1659.53,-386.51C1716.26,-373.29 1818.23,-344.56 1893,-295.5 1953.88,-255.56 2101.06,-83.2 2147.62,-27.82"/>
<polygon fill="#63b8ff" stroke="#63b8ff" points="2150.69,-30.62 2154.43,-20.71 2145.32,-26.12 2150.69,-30.62"/>
</g>
<!-- Node14&#45;&gt;Node13 -->
<g id="edge69" class="edge">
<title>Node14&#45;&gt;Node13</title>
<path fill="none" stroke="#63b8ff" d="M1574.26,-393.47C1533.58,-391.68 1470.62,-388.94 1416,-386.75 1309.23,-382.46 554.8,-388.93 455,-350.75 383.22,-323.29 366.56,-302.87 322,-240.25 304.42,-215.54 298,-206.7 298,-176.38 298,-176.38 298,-176.38 298,-119.12 298,-88.8 299.07,-75.1 322,-55.25 346.06,-34.43 433.02,-21.18 485.32,-14.91"/>
<polygon fill="#63b8ff" stroke="#63b8ff" points="485.39,-18.31 494.92,-13.68 484.58,-11.36 485.39,-18.31"/>
</g>
<!-- Node14&#45;&gt;Node15 -->
<g id="edge18" class="edge">
<title>Node14&#45;&gt;Node15</title>
<path fill="none" stroke="#63b8ff" d="M1607.91,-386.5C1599.11,-377.74 1585.6,-363.8 1575,-350.75 1511.81,-272.93 1524.24,-228.41 1446,-165.75 1427.79,-151.16 1404.15,-140.72 1383.55,-133.61"/>
<polygon fill="#63b8ff" stroke="#63b8ff" points="1384.69,-129.98 1374.1,-130.2 1382.52,-136.63 1384.69,-129.98"/>
</g>
<!-- Node21 -->
<g id="node21" class="node">
<title>Node21</title>
<g id="a_node21"><a xlink:href="v8-object_8h.html" target="_top" xlink:title=" ">
<polygon fill="white" stroke="#666666" points="1327.62,-350.75 1264.38,-350.75 1264.38,-331.5 1327.62,-331.5 1327.62,-350.75"/>
<text text-anchor="middle" x="1296" y="-337.25" font-family="Helvetica,sans-Serif" font-size="10.00">v8&#45;object.h</text>
</a>
</g>
</g>
<!-- Node14&#45;&gt;Node21 -->
<g id="edge29" class="edge">
<title>Node14&#45;&gt;Node21</title>
<path fill="none" stroke="#63b8ff" d="M1574.04,-388.25C1512.6,-378.06 1400.3,-359.43 1338.9,-349.24"/>
<polygon fill="#63b8ff" stroke="#63b8ff" points="1339.49,-345.63 1329.05,-347.44 1338.34,-352.53 1339.49,-345.63"/>
</g>
<!-- Node15&#45;&gt;Node10 -->
<g id="edge19" class="edge">
<title>Node15&#45;&gt;Node10</title>
<path fill="none" stroke="#63b8ff" d="M1381.65,-113.25C1528.01,-94 1991.55,-33.04 2125.45,-15.43"/>
<polygon fill="#63b8ff" stroke="#63b8ff" points="2125.85,-18.78 2135.3,-14 2124.93,-11.84 2125.85,-18.78"/>
</g>
<!-- Node16 -->
<g id="node16" class="node">
<title>Node16</title>
<g id="a_node16"><a xlink:title=" ">
<polygon fill="#e0e0e0" stroke="#999999" points="1774.5,-19.25 1713.5,-19.25 1713.5,0 1774.5,0 1774.5,-19.25"/>
<text text-anchor="middle" x="1744" y="-5.75" font-family="Helvetica,sans-Serif" font-size="10.00">type_traits</text>
</a>
</g>
</g>
<!-- Node15&#45;&gt;Node16 -->
<g id="edge20" class="edge">
<title>Node15&#45;&gt;Node16</title>
<path fill="none" stroke="#63b8ff" d="M1374.02,-110.07C1409.87,-101.23 1465.75,-87.28 1514,-74.5 1580.2,-56.96 1656.77,-35.45 1702.74,-22.4"/>
<polygon fill="#63b8ff" stroke="#63b8ff" points="1703.52,-25.54 1712.19,-19.43 1701.61,-18.8 1703.52,-25.54"/>
</g>
<!-- Node15&#45;&gt;Node17 -->
<g id="edge21" class="edge">
<title>Node15&#45;&gt;Node17</title>
<path fill="none" stroke="#63b8ff" d="M1359.73,-110.09C1381.2,-101.56 1413.63,-88.67 1437.95,-79.01"/>
<polygon fill="#63b8ff" stroke="#63b8ff" points="1439.16,-81.9 1447.16,-74.95 1436.57,-75.39 1439.16,-81.9"/>
</g>
<!-- Node17&#45;&gt;Node6 -->
<g id="edge23" class="edge">
<title>Node17&#45;&gt;Node6</title>
<path fill="none" stroke="#63b8ff" d="M1505.58,-62.06C1660.85,-53.9 2292.94,-20.67 2449.03,-12.46"/>
<polygon fill="#63b8ff" stroke="#63b8ff" points="2449.03,-15.92 2458.83,-11.9 2448.66,-8.93 2449.03,-15.92"/>
</g>
<!-- Node17&#45;&gt;Node10 -->
<g id="edge22" class="edge">
<title>Node17&#45;&gt;Node10</title>
<path fill="none" stroke="#63b8ff" d="M1505.74,-61.2C1623.32,-52.14 2005.68,-22.67 2125.65,-13.43"/>
<polygon fill="#63b8ff" stroke="#63b8ff" points="2125.72,-16.85 2135.42,-12.6 2125.18,-9.87 2125.72,-16.85"/>
</g>
<!-- Node17&#45;&gt;Node13 -->
<g id="edge28" class="edge">
<title>Node17&#45;&gt;Node13</title>
<path fill="none" stroke="#63b8ff" d="M1436.47,-57.13C1431.95,-56.4 1427.37,-55.75 1423,-55.25 1094.05,-17.67 693.66,-11.73 566.67,-10.8"/>
<polygon fill="#63b8ff" stroke="#63b8ff" points="566.95,-7.29 556.92,-10.73 566.9,-14.29 566.95,-7.29"/>
</g>
<!-- Node17&#45;&gt;Node16 -->
<g id="edge26" class="edge">
<title>Node17&#45;&gt;Node16</title>
<path fill="none" stroke="#63b8ff" d="M1505.58,-57.13C1555.78,-47.34 1648.71,-29.21 1702.53,-18.71"/>
<polygon fill="#63b8ff" stroke="#63b8ff" points="1702.92,-22.01 1712.07,-16.66 1701.58,-15.14 1702.92,-22.01"/>
</g>
<!-- Node18 -->
<g id="node18" class="node">
<title>Node18</title>
<g id="a_node18"><a xlink:title=" ">
<polygon fill="#e0e0e0" stroke="#999999" points="1532.75,-19.25 1485.25,-19.25 1485.25,0 1532.75,0 1532.75,-19.25"/>
<text text-anchor="middle" x="1509" y="-5.75" font-family="Helvetica,sans-Serif" font-size="10.00">string.h</text>
</a>
</g>
</g>
<!-- Node17&#45;&gt;Node18 -->
<g id="edge24" class="edge">
<title>Node17&#45;&gt;Node18</title>
<path fill="none" stroke="#63b8ff" d="M1477.27,-55.08C1482.41,-47.88 1489.85,-37.46 1496.24,-28.51"/>
<polygon fill="#63b8ff" stroke="#63b8ff" points="1499.63,-30.78 1502.59,-20.61 1493.93,-26.72 1499.63,-30.78"/>
</g>
<!-- Node19 -->
<g id="node19" class="node">
<title>Node19</title>
<g id="a_node19"><a xlink:title=" ">
<polygon fill="#e0e0e0" stroke="#999999" points="1878.62,-19.25 1833.38,-19.25 1833.38,0 1878.62,0 1878.62,-19.25"/>
<text text-anchor="middle" x="1856" y="-5.75" font-family="Helvetica,sans-Serif" font-size="10.00">atomic</text>
</a>
</g>
</g>
<!-- Node17&#45;&gt;Node19 -->
<g id="edge25" class="edge">
<title>Node17&#45;&gt;Node19</title>
<path fill="none" stroke="#63b8ff" d="M1505.51,-59.1C1578.91,-48.95 1749.77,-25.32 1822.38,-15.27"/>
<polygon fill="#63b8ff" stroke="#63b8ff" points="1822.74,-18.62 1832.16,-13.78 1821.78,-11.69 1822.74,-18.62"/>
</g>
<!-- Node20 -->
<g id="node20" class="node">
<title>Node20</title>
<g id="a_node20"><a xlink:href="v8-version_8h.html" target="_top" xlink:title=" ">
<polygon fill="white" stroke="#666666" points="1467.25,-19.25 1398.75,-19.25 1398.75,0 1467.25,0 1467.25,-19.25"/>
<text text-anchor="middle" x="1433" y="-5.75" font-family="Helvetica,sans-Serif" font-size="10.00">v8&#45;version.h</text>
</a>
</g>
</g>
<!-- Node17&#45;&gt;Node20 -->
<g id="edge27" class="edge">
<title>Node17&#45;&gt;Node20</title>
<path fill="none" stroke="#63b8ff" d="M1464.73,-55.08C1459.59,-47.88 1452.15,-37.46 1445.76,-28.51"/>
<polygon fill="#63b8ff" stroke="#63b8ff" points="1448.07,-26.72 1439.41,-20.61 1442.37,-30.78 1448.07,-26.72"/>
</g>
<!-- Node21&#45;&gt;Node13 -->
<g id="edge68" class="edge">
<title>Node21&#45;&gt;Node13</title>
<path fill="none" stroke="#63b8ff" d="M1263.88,-334.38C1257.32,-333.32 1250.45,-332.3 1244,-331.5 967.17,-297.06 869.05,-371.71 623,-240.25 567.13,-210.4 551.38,-190.36 533,-129.75 523.31,-97.78 521.88,-88.64 523,-55.25 523.27,-47.1 523.83,-38.13 524.39,-30.38"/>
<polygon fill="#63b8ff" stroke="#63b8ff" points="527.95,-30.75 525.23,-20.51 520.97,-30.21 527.95,-30.75"/>
</g>
<!-- Node21&#45;&gt;Node15 -->
<g id="edge30" class="edge">
<title>Node21&#45;&gt;Node15</title>
<path fill="none" stroke="#63b8ff" d="M1297.66,-331.27C1303.72,-298.87 1324.8,-186.3 1333.35,-140.62"/>
<polygon fill="#63b8ff" stroke="#63b8ff" points="1336.97,-141.32 1335.37,-130.85 1330.09,-140.04 1336.97,-141.32"/>
</g>
<!-- Node22 -->
<g id="node22" class="node">
<title>Node22</title>
<g id="a_node22"><a xlink:href="v8-maybe_8h.html" target="_top" xlink:title=" ">
<polygon fill="white" stroke="#666666" points="1715.75,-185 1650.25,-185 1650.25,-165.75 1715.75,-165.75 1715.75,-185"/>
<text text-anchor="middle" x="1683" y="-171.5" font-family="Helvetica,sans-Serif" font-size="10.00">v8&#45;maybe.h</text>
</a>
</g>
</g>
<!-- Node21&#45;&gt;Node22 -->
<g id="edge31" class="edge">
<title>Node21&#45;&gt;Node22</title>
<path fill="none" stroke="#63b8ff" d="M1311.87,-331.02C1334.86,-318.01 1378.95,-293.75 1418,-276.25 1497.37,-240.67 1593.6,-206.57 1645.48,-188.89"/>
<polygon fill="#63b8ff" stroke="#63b8ff" points="1646.51,-191.9 1654.86,-185.38 1644.26,-185.27 1646.51,-191.9"/>
</g>
<!-- Node21&#45;&gt;Node23 -->
<g id="edge36" class="edge">
<title>Node21&#45;&gt;Node23</title>
<path fill="none" stroke="#63b8ff" d="M1263.88,-334.43C1257.31,-333.37 1250.44,-332.33 1244,-331.5 1072.24,-309.32 1018.57,-355.19 856,-295.5 792.84,-272.31 731.39,-219.59 702.75,-192.74"/>
<polygon fill="#63b8ff" stroke="#63b8ff" points="705.6,-190.67 695.95,-186.3 700.77,-195.74 705.6,-190.67"/>
</g>
<!-- Node21&#45;&gt;Node25 -->
<g id="edge42" class="edge">
<title>Node21&#45;&gt;Node25</title>
<path fill="none" stroke="#63b8ff" d="M1264.13,-334.65C1257.48,-333.56 1250.52,-332.46 1244,-331.5 1120.31,-313.27 1088.94,-311.98 965,-295.5 960.19,-294.86 955.18,-294.19 950.17,-293.51"/>
<polygon fill="#63b8ff" stroke="#63b8ff" points="950.68,-289.91 940.3,-292.03 949.74,-296.85 950.68,-289.91"/>
</g>
<!-- Node27 -->
<g id="node27" class="node">
<title>Node27</title>
<g id="a_node27"><a xlink:href="v8-value_8h.html" target="_top" xlink:title=" ">
<polygon fill="white" stroke="#666666" points="932.12,-240.25 871.88,-240.25 871.88,-221 932.12,-221 932.12,-240.25"/>
<text text-anchor="middle" x="902" y="-226.75" font-family="Helvetica,sans-Serif" font-size="10.00">v8&#45;value.h</text>
</a>
</g>
</g>
<!-- Node21&#45;&gt;Node27 -->
<g id="edge67" class="edge">
<title>Node21&#45;&gt;Node27</title>
<path fill="none" stroke="#63b8ff" d="M1264.29,-334.78C1209.94,-325.48 1101.22,-306.32 1064,-295.5 1016.53,-281.71 963.61,-259.47 931.57,-245.21"/>
<polygon fill="#63b8ff" stroke="#63b8ff" points="933.09,-241.61 922.54,-240.7 930.22,-247.99 933.09,-241.61"/>
</g>
<!-- Node28 -->
<g id="node28" class="node">
<title>Node28</title>
<g id="a_node28"><a xlink:href="v8-traced-handle_8h.html" target="_top" xlink:title=" ">
<polygon fill="white" stroke="#666666" points="1905.75,-185 1810.25,-185 1810.25,-165.75 1905.75,-165.75 1905.75,-185"/>
<text text-anchor="middle" x="1858" y="-171.5" font-family="Helvetica,sans-Serif" font-size="10.00">v8&#45;traced&#45;handle.h</text>
</a>
</g>
</g>
<!-- Node21&#45;&gt;Node28 -->
<g id="edge55" class="edge">
<title>Node21&#45;&gt;Node28</title>
<path fill="none" stroke="#63b8ff" d="M1327.02,-331.09C1421.9,-303.44 1708.34,-219.98 1816.26,-188.54"/>
<polygon fill="#63b8ff" stroke="#63b8ff" points="1817.11,-191.64 1825.73,-185.48 1815.15,-184.92 1817.11,-191.64"/>
</g>
<!-- Node22&#45;&gt;Node11 -->
<g id="edge33" class="edge">
<title>Node22&#45;&gt;Node11</title>
<path fill="none" stroke="#63b8ff" d="M1716.06,-171.62C1827.08,-162.39 2185.58,-132.56 2292.58,-123.66"/>
<polygon fill="#63b8ff" stroke="#63b8ff" points="2292.85,-127.06 2302.52,-122.75 2292.27,-120.09 2292.85,-127.06"/>
</g>
<!-- Node22&#45;&gt;Node13 -->
<g id="edge35" class="edge">
<title>Node22&#45;&gt;Node13</title>
<path fill="none" stroke="#63b8ff" d="M1649.75,-166.36C1595.57,-153.48 1484.74,-127.84 1390,-110.5 1225.58,-80.4 1183.97,-75.09 1018,-55.25 851.09,-35.3 651.37,-19.74 566.91,-13.54"/>
<polygon fill="#63b8ff" stroke="#63b8ff" points="567.24,-9.98 557.01,-12.75 566.73,-16.97 567.24,-9.98"/>
</g>
<!-- Node22&#45;&gt;Node16 -->
<g id="edge32" class="edge">
<title>Node22&#45;&gt;Node16</title>
<path fill="none" stroke="#63b8ff" d="M1676.64,-165.63C1668.46,-153.26 1656.09,-130 1663,-110.5 1675.22,-76.04 1704.95,-44.8 1724.79,-26.76"/>
<polygon fill="#63b8ff" stroke="#63b8ff" points="1726.67,-29.89 1731.86,-20.65 1722.04,-24.63 1726.67,-29.89"/>
</g>
<!-- Node22&#45;&gt;Node17 -->
<g id="edge34" class="edge">
<title>Node22&#45;&gt;Node17</title>
<path fill="none" stroke="#63b8ff" d="M1665.29,-165.31C1628.27,-146.36 1542.47,-102.45 1498.32,-79.86"/>
<polygon fill="#63b8ff" stroke="#63b8ff" points="1500.31,-76.43 1489.81,-74.99 1497.12,-82.66 1500.31,-76.43"/>
</g>
<!-- Node23&#45;&gt;Node13 -->
<g id="edge41" class="edge">
<title>Node23&#45;&gt;Node13</title>
<path fill="none" stroke="#63b8ff" d="M686.26,-165.27C686.38,-143.34 683.6,-87.09 654,-55.25 631.51,-31.05 595.2,-19.98 566.99,-14.9"/>
<polygon fill="#63b8ff" stroke="#63b8ff" points="567.66,-11.31 557.23,-13.19 566.55,-18.22 567.66,-11.31"/>
</g>
<!-- Node23&#45;&gt;Node15 -->
<g id="edge38" class="edge">
<title>Node23&#45;&gt;Node15</title>
<path fill="none" stroke="#63b8ff" d="M742,-166.74C745.04,-166.39 748.06,-166.06 751,-165.75 945.6,-145.45 1177.47,-130.52 1281.58,-124.31"/>
<polygon fill="#63b8ff" stroke="#63b8ff" points="1281.67,-127.75 1291.45,-123.66 1281.26,-120.76 1281.67,-127.75"/>
</g>
<!-- Node23&#45;&gt;Node17 -->
<g id="edge37" class="edge">
<title>Node23&#45;&gt;Node17</title>
<path fill="none" stroke="#63b8ff" d="M741.86,-166.74C787.5,-159.67 853.34,-147.53 909,-129.75 928.95,-123.38 931.73,-115.75 952,-110.5 1041,-87.46 1315.97,-72.87 1425.4,-67.84"/>
<polygon fill="#63b8ff" stroke="#63b8ff" points="1425.54,-71.29 1435.38,-67.34 1425.23,-64.3 1425.54,-71.29"/>
</g>
<!-- Node24 -->
<g id="node24" class="node">
<title>Node24</title>
<g id="a_node24"><a xlink:href="v8-weak-callback-info_8h.html" target="_top" xlink:title=" ">
<polygon fill="white" stroke="#666666" points="900,-129.75 782,-129.75 782,-110.5 900,-110.5 900,-129.75"/>
<text text-anchor="middle" x="841" y="-116.25" font-family="Helvetica,sans-Serif" font-size="10.00">v8&#45;weak&#45;callback&#45;info.h</text>
</a>
</g>
</g>
<!-- Node23&#45;&gt;Node24 -->
<g id="edge39" class="edge">
<title>Node23&#45;&gt;Node24</title>
<path fill="none" stroke="#63b8ff" d="M712.29,-165.34C737.57,-156.66 775.99,-143.46 804.28,-133.74"/>
<polygon fill="#63b8ff" stroke="#63b8ff" points="805.26,-136.76 813.58,-130.2 802.98,-130.14 805.26,-136.76"/>
</g>
<!-- Node24&#45;&gt;Node13 -->
<g id="edge40" class="edge">
<title>Node24&#45;&gt;Node13</title>
<path fill="none" stroke="#63b8ff" d="M833.54,-110.01C821.4,-95.84 795.89,-68.74 768,-55.25 702.35,-23.49 616.65,-14.24 566.83,-11.61"/>
<polygon fill="#63b8ff" stroke="#63b8ff" points="567.02,-8.07 556.87,-11.11 566.7,-15.06 567.02,-8.07"/>
</g>
<!-- Node25&#45;&gt;Node13 -->
<g id="edge54" class="edge">
<title>Node25&#45;&gt;Node13</title>
<path fill="none" stroke="#63b8ff" d="M864.68,-283.85C797.96,-280.03 657.6,-262.61 576,-185 532.32,-143.45 526.01,-66.54 525.6,-30.38"/>
<polygon fill="#63b8ff" stroke="#63b8ff" points="529.11,-30.43 525.65,-20.41 522.11,-30.4 529.11,-30.43"/>
</g>
<!-- Node25&#45;&gt;Node15 -->
<g id="edge47" class="edge">
<title>Node25&#45;&gt;Node15</title>
<path fill="none" stroke="#63b8ff" d="M939.3,-284.62C985.78,-282.75 1066.25,-274.31 1125,-240.25 1163.01,-218.21 1153.1,-189.61 1190,-165.75 1217.63,-147.88 1252.76,-136.87 1281.75,-130.26"/>
<polygon fill="#63b8ff" stroke="#63b8ff" points="1282.09,-133.55 1291.13,-128.02 1280.61,-126.71 1282.09,-133.55"/>
</g>
<!-- Node25&#45;&gt;Node17 -->
<g id="edge46" class="edge">
<title>Node25&#45;&gt;Node17</title>
<path fill="none" stroke="#63b8ff" d="M889.76,-275.79C875.2,-263.77 853.92,-241.7 863,-221 894,-150.31 924.96,-138.24 997,-110.5 1074.51,-80.65 1322.43,-70.17 1425.45,-67.04"/>
<polygon fill="#63b8ff" stroke="#63b8ff" points="1425.51,-70.51 1435.4,-66.72 1425.31,-63.51 1425.51,-70.51"/>
</g>
<!-- Node25&#45;&gt;Node26 -->
<g id="edge43" class="edge">
<title>Node25&#45;&gt;Node26</title>
<path fill="none" stroke="#63b8ff" d="M882.7,-275.86C867.22,-267.98 845.6,-255.43 830,-240.25 816.34,-226.95 804.79,-208.48 797.28,-194.81"/>
<polygon fill="#63b8ff" stroke="#63b8ff" points="799.91,-193.3 792.16,-186.08 793.72,-196.56 799.91,-193.3"/>
</g>
<!-- Node25&#45;&gt;Node27 -->
<g id="edge48" class="edge">
<title>Node25&#45;&gt;Node27</title>
<path fill="none" stroke="#63b8ff" d="M902,-276.08C902,-269.42 902,-259.99 902,-251.53"/>
<polygon fill="#63b8ff" stroke="#63b8ff" points="905.5,-251.61 902,-241.61 898.5,-251.61 905.5,-251.61"/>
</g>
<!-- Node26&#45;&gt;Node13 -->
<g id="edge45" class="edge">
<title>Node26&#45;&gt;Node13</title>
<path fill="none" stroke="#63b8ff" d="M777.78,-165.44C767.86,-156.63 752.51,-142.66 740,-129.75 709.42,-98.19 711.94,-79.04 675,-55.25 641.9,-33.93 598.17,-22.42 566.65,-16.46"/>
<polygon fill="#63b8ff" stroke="#63b8ff" points="567.51,-12.88 557.05,-14.58 566.29,-19.77 567.51,-12.88"/>
</g>
<!-- Node26&#45;&gt;Node15 -->
<g id="edge44" class="edge">
<title>Node26&#45;&gt;Node15</title>
<path fill="none" stroke="#63b8ff" d="M816.36,-171.62C903.15,-163.21 1166.21,-137.69 1281.67,-126.49"/>
<polygon fill="#63b8ff" stroke="#63b8ff" points="1281.76,-129.9 1291.37,-125.45 1281.08,-122.94 1281.76,-129.9"/>
</g>
<!-- Node27&#45;&gt;Node13 -->
<g id="edge53" class="edge">
<title>Node27&#45;&gt;Node13</title>
<path fill="none" stroke="#63b8ff" d="M871.47,-229.2C801.25,-227.61 631.01,-220.15 588,-185 581.72,-179.87 546.76,-74.31 532.28,-29.97"/>
<polygon fill="#63b8ff" stroke="#63b8ff" points="535.35,-29.09 528.93,-20.67 528.7,-31.26 535.35,-29.09"/>
</g>
<!-- Node27&#45;&gt;Node15 -->
<g id="edge51" class="edge">
<title>Node27&#45;&gt;Node15</title>
<path fill="none" stroke="#63b8ff" d="M932.51,-222.63C966.58,-214.58 1023.22,-200.46 1071,-185 1093.66,-177.67 1098.15,-172.46 1121,-165.75 1174.68,-149.99 1237.45,-137.68 1281.45,-130.02"/>
<polygon fill="#63b8ff" stroke="#63b8ff" points="1281.95,-133.31 1291.21,-128.17 1280.76,-126.41 1281.95,-133.31"/>
</g>
<!-- Node27&#45;&gt;Node17 -->
<g id="edge50" class="edge">
<title>Node27&#45;&gt;Node17</title>
<path fill="none" stroke="#63b8ff" d="M905.9,-220.63C912.16,-207.11 925.64,-181.44 944,-165.75 989.25,-127.08 1008.59,-126.23 1066,-110.5 1193.29,-75.62 1350.16,-67.88 1425.88,-66.24"/>
<polygon fill="#63b8ff" stroke="#63b8ff" points="1425.52,-69.73 1435.45,-66.05 1425.39,-62.73 1425.52,-69.73"/>
</g>
<!-- Node27&#45;&gt;Node22 -->
<g id="edge52" class="edge">
<title>Node27&#45;&gt;Node22</title>
<path fill="none" stroke="#63b8ff" d="M932.62,-227.54C1053.43,-219.3 1497.41,-189.03 1639.18,-179.36"/>
<polygon fill="#63b8ff" stroke="#63b8ff" points="1639.28,-182.8 1649.02,-178.62 1638.8,-175.81 1639.28,-182.8"/>
</g>
<!-- Node27&#45;&gt;Node26 -->
<g id="edge49" class="edge">
<title>Node27&#45;&gt;Node26</title>
<path fill="none" stroke="#63b8ff" d="M882.66,-220.59C864.73,-212.22 837.79,-199.63 817.23,-190.03"/>
<polygon fill="#63b8ff" stroke="#63b8ff" points="818.97,-186.51 808.43,-185.45 816.01,-192.86 818.97,-186.51"/>
</g>
<!-- Node28&#45;&gt;Node6 -->
<g id="edge57" class="edge">
<title>Node28&#45;&gt;Node6</title>
<path fill="none" stroke="#63b8ff" d="M1875.07,-165.45C1900.79,-152.25 1951.25,-127.25 1996,-110.5 2078.36,-79.66 2100.1,-74.08 2186,-55.25 2280.18,-34.6 2393.21,-20.56 2449.13,-14.31"/>
<polygon fill="#63b8ff" stroke="#63b8ff" points="2449.29,-17.7 2458.85,-13.13 2448.53,-10.74 2449.29,-17.7"/>
</g>
<!-- Node28&#45;&gt;Node8 -->
<g id="edge60" class="edge">
<title>Node28&#45;&gt;Node8</title>
<path fill="none" stroke="#63b8ff" d="M1901.55,-165.28C1950.96,-154.96 2030.65,-138.32 2076.79,-128.69"/>
<polygon fill="#63b8ff" stroke="#63b8ff" points="2077.42,-131.92 2086.49,-126.45 2075.98,-125.07 2077.42,-131.92"/>
</g>
<!-- Node28&#45;&gt;Node10 -->
<g id="edge56" class="edge">
<title>Node28&#45;&gt;Node10</title>
<path fill="none" stroke="#63b8ff" d="M1868.9,-165.49C1895.61,-144.07 1967.06,-88.85 2034,-55.25 2063.95,-40.22 2100.18,-28.1 2126.44,-20.31"/>
<polygon fill="#63b8ff" stroke="#63b8ff" points="2127.05,-23.49 2135.68,-17.34 2125.1,-16.76 2127.05,-23.49"/>
</g>
<!-- Node28&#45;&gt;Node11 -->
<g id="edge62" class="edge">
<title>Node28&#45;&gt;Node11</title>
<path fill="none" stroke="#63b8ff" d="M1906.01,-168.88C2001.78,-157.91 2214.09,-133.6 2292.84,-124.58"/>
<polygon fill="#63b8ff" stroke="#63b8ff" points="2292.92,-127.98 2302.46,-123.36 2292.12,-121.02 2292.92,-127.98"/>
</g>
<!-- Node28&#45;&gt;Node13 -->
<g id="edge66" class="edge">
<title>Node28&#45;&gt;Node13</title>
<path fill="none" stroke="#63b8ff" d="M1849.1,-165.57C1824.86,-142.25 1754.58,-79.04 1682,-55.25 1574.46,-19.99 760.24,-12.23 567.03,-10.87"/>
<polygon fill="#63b8ff" stroke="#63b8ff" points="567.26,-7.37 557.23,-10.8 567.21,-14.37 567.26,-7.37"/>
</g>
<!-- Node28&#45;&gt;Node15 -->
<g id="edge64" class="edge">
<title>Node28&#45;&gt;Node15</title>
<path fill="none" stroke="#63b8ff" d="M1809.92,-169.46C1713.06,-159.56 1494.98,-137.27 1392.36,-126.78"/>
<polygon fill="#63b8ff" stroke="#63b8ff" points="1392.92,-123.22 1382.62,-125.69 1392.21,-130.18 1392.92,-123.22"/>
</g>
<!-- Node28&#45;&gt;Node16 -->
<g id="edge61" class="edge">
<title>Node28&#45;&gt;Node16</title>
<path fill="none" stroke="#63b8ff" d="M1855.84,-165.65C1852.44,-152.9 1845.08,-128.72 1834,-110.5 1813.93,-77.49 1782.19,-45.42 1762.26,-26.87"/>
<polygon fill="#63b8ff" stroke="#63b8ff" points="1765.01,-24.72 1755.27,-20.56 1760.29,-29.89 1765.01,-24.72"/>
</g>
<!-- Node28&#45;&gt;Node17 -->
<g id="edge63" class="edge">
<title>Node28&#45;&gt;Node17</title>
<path fill="none" stroke="#63b8ff" d="M1842.61,-165.25C1818.42,-151.32 1769.63,-124.84 1725,-110.5 1653.91,-87.66 1567.66,-75.64 1516.16,-70.04"/>
<polygon fill="#63b8ff" stroke="#63b8ff" points="1516.72,-66.47 1506.41,-68.91 1515.98,-73.43 1516.72,-66.47"/>
</g>
<!-- Node28&#45;&gt;Node19 -->
<g id="edge59" class="edge">
<title>Node28&#45;&gt;Node19</title>
<path fill="none" stroke="#63b8ff" d="M1861.73,-165.34C1865.18,-156.46 1870.06,-142.43 1872,-129.75 1877.01,-97.02 1877.67,-87.87 1872,-55.25 1870.5,-46.64 1867.5,-37.5 1864.49,-29.75"/>
<polygon fill="#63b8ff" stroke="#63b8ff" points="1867.34,-28.49 1860.26,-20.6 1860.88,-31.18 1867.34,-28.49"/>
</g>
<!-- Node28&#45;&gt;Node24 -->
<g id="edge65" class="edge">
<title>Node28&#45;&gt;Node24</title>
<path fill="none" stroke="#63b8ff" d="M1809.99,-171.1C1784.71,-169.41 1753.18,-167.38 1725,-165.75 1422.11,-148.28 1060.62,-131.22 911.07,-124.32"/>
<polygon fill="#63b8ff" stroke="#63b8ff" points="911.4,-120.79 901.25,-123.82 911.08,-127.78 911.4,-120.79"/>
</g>
<!-- Node29 -->
<g id="node29" class="node">
<title>Node29</title>
<g id="a_node29"><a xlink:title=" ">
<polygon fill="#e0e0e0" stroke="#999999" points="1716.25,-129.75 1671.75,-129.75 1671.75,-110.5 1716.25,-110.5 1716.25,-129.75"/>
<text text-anchor="middle" x="1694" y="-116.25" font-family="Helvetica,sans-Serif" font-size="10.00">stdio.h</text>
</a>
</g>
</g>
<!-- Node28&#45;&gt;Node29 -->
<g id="edge58" class="edge">
<title>Node28&#45;&gt;Node29</title>
<path fill="none" stroke="#63b8ff" d="M1830.18,-165.34C1801.57,-156.05 1757.03,-141.59 1726.74,-131.75"/>
<polygon fill="#63b8ff" stroke="#63b8ff" points="1728.26,-128.24 1717.67,-128.48 1726.1,-134.9 1728.26,-128.24"/>
</g>
<!-- Node30&#45;&gt;Node10 -->
<g id="edge71" class="edge">
<title>Node30&#45;&gt;Node10</title>
<path fill="none" stroke="#63b8ff" d="M843.42,-450.72C1026.17,-450.9 1792.02,-449.05 2027,-406 2114.22,-390.02 2216,-430.79 2216,-342.12 2216,-342.12 2216,-342.12 2216,-284.88 2216,-182.17 2224.56,-151.97 2190,-55.25 2186.62,-45.8 2181,-36.26 2175.68,-28.44"/>
<polygon fill="#63b8ff" stroke="#63b8ff" points="2177.97,-26.64 2169.28,-20.58 2172.3,-30.74 2177.97,-26.64"/>
</g>
<!-- Node30&#45;&gt;Node12 -->
<g id="edge73" class="edge">
<title>Node30&#45;&gt;Node12</title>
<path fill="none" stroke="#63b8ff" d="M764.57,-449.29C677.21,-444.98 462.5,-426.82 303,-350.75 222.79,-312.49 152.14,-229.58 123.98,-193.61"/>
<polygon fill="#63b8ff" stroke="#63b8ff" points="126.35,-191.94 117.47,-186.15 120.8,-196.21 126.35,-191.94"/>
</g>
<!-- Node30&#45;&gt;Node13 -->
<g id="edge80" class="edge">
<title>Node30&#45;&gt;Node13</title>
<path fill="none" stroke="#63b8ff" d="M764.43,-450.7C607.57,-449.97 38,-436.97 38,-286.88 38,-286.88 38,-286.88 38,-119.12 38,-27.79 367.82,-13.3 485.17,-11.03"/>
<polygon fill="#63b8ff" stroke="#63b8ff" points="484.9,-14.52 494.84,-10.85 484.78,-7.52 484.9,-14.52"/>
</g>
<!-- Node30&#45;&gt;Node15 -->
<g id="edge75" class="edge">
<title>Node30&#45;&gt;Node15</title>
<path fill="none" stroke="#63b8ff" d="M829.56,-441.65C886.81,-421.58 1029.8,-371.68 1150,-331.5 1199.19,-315.06 1222.59,-330.34 1261,-295.5 1273.29,-284.35 1313.15,-183.18 1329.69,-140.25"/>
<polygon fill="#63b8ff" stroke="#63b8ff" points="1333.22,-141.83 1333.54,-131.24 1326.68,-139.32 1333.22,-141.83"/>
</g>
<!-- Node30&#45;&gt;Node26 -->
<g id="edge74" class="edge">
<title>Node30&#45;&gt;Node26</title>
<path fill="none" stroke="#63b8ff" d="M764.4,-445.63C716.98,-438.86 641.38,-425.38 621,-406 599.54,-385.59 602,-371.74 602,-342.12 602,-342.12 602,-342.12 602,-284.88 602,-250.53 697.83,-209.59 751.92,-189.22"/>
<polygon fill="#63b8ff" stroke="#63b8ff" points="752.98,-192.18 761.14,-185.42 750.54,-185.62 752.98,-192.18"/>
</g>
<!-- Node31 -->
<g id="node31" class="node">
<title>Node31</title>
<g id="a_node31"><a xlink:title=" ">
<polygon fill="#e0e0e0" stroke="#999999" points="670,-406 630,-406 630,-386.75 670,-386.75 670,-406"/>
<text text-anchor="middle" x="650" y="-392.5" font-family="Helvetica,sans-Serif" font-size="10.00">string</text>
</a>
</g>
</g>
<!-- Node30&#45;&gt;Node31 -->
<g id="edge72" class="edge">
<title>Node30&#45;&gt;Node31</title>
<path fill="none" stroke="#63b8ff" d="M777.88,-441.59C750.94,-432.28 708.97,-417.76 680.52,-407.93"/>
<polygon fill="#63b8ff" stroke="#63b8ff" points="681.93,-404.37 671.34,-404.41 679.65,-410.98 681.93,-404.37"/>
</g>
<!-- Node32 -->
<g id="node32" class="node">
<title>Node32</title>
<g id="a_node32"><a xlink:href="v8-promise_8h.html" target="_top" xlink:title=" ">
<polygon fill="white" stroke="#666666" points="1406.75,-406 1335.25,-406 1335.25,-386.75 1406.75,-386.75 1406.75,-406"/>
<text text-anchor="middle" x="1371" y="-392.5" font-family="Helvetica,sans-Serif" font-size="10.00">v8&#45;promise.h</text>
</a>
</g>
</g>
<!-- Node30&#45;&gt;Node32 -->
<g id="edge76" class="edge">
<title>Node30&#45;&gt;Node32</title>
<path fill="none" stroke="#63b8ff" d="M843.42,-446.92C944.91,-437.39 1214.87,-412.04 1324.12,-401.78"/>
<polygon fill="#63b8ff" stroke="#63b8ff" points="1324.17,-405.19 1333.8,-400.78 1323.51,-398.23 1324.17,-405.19"/>
</g>
<!-- Node32&#45;&gt;Node13 -->
<g id="edge79" class="edge">
<title>Node32&#45;&gt;Node13</title>
<path fill="none" stroke="#63b8ff" d="M1334.89,-395.04C1171.28,-393.34 503.71,-384.38 417,-350.75 319.77,-313.04 260,-280.66 260,-176.38 260,-176.38 260,-176.38 260,-119.12 260,-88.8 260.74,-74.71 284,-55.25 313.92,-30.21 424.31,-18.19 485.14,-13.35"/>
<polygon fill="#63b8ff" stroke="#63b8ff" points="485.18,-16.78 494.88,-12.53 484.65,-9.8 485.18,-16.78"/>
</g>
<!-- Node32&#45;&gt;Node15 -->
<g id="edge77" class="edge">
<title>Node32&#45;&gt;Node15</title>
<path fill="none" stroke="#63b8ff" d="M1368.91,-386.43C1364.79,-367.95 1356,-324.15 1356,-286.88 1356,-286.88 1356,-286.88 1356,-229.62 1356,-198 1348.07,-161.96 1342.46,-140.4"/>
<polygon fill="#63b8ff" stroke="#63b8ff" points="1345.64,-139.77 1339.64,-131.03 1338.89,-141.6 1345.64,-139.77"/>
</g>
<!-- Node32&#45;&gt;Node21 -->
<g id="edge78" class="edge">
<title>Node32&#45;&gt;Node21</title>
<path fill="none" stroke="#63b8ff" d="M1358.28,-386.34C1347.18,-378.46 1330.84,-366.86 1317.68,-357.52"/>
<polygon fill="#63b8ff" stroke="#63b8ff" points="1319.97,-354.14 1309.79,-351.2 1315.91,-359.85 1319.97,-354.14"/>
</g>
<!-- Node33&#45;&gt;Node6 -->
<g id="edge83" class="edge">
<title>Node33&#45;&gt;Node6</title>
<path fill="none" stroke="#63b8ff" d="M1827.83,-449.9C1915.33,-447.49 2157.83,-438.04 2230,-406 2356.96,-349.63 2385.35,-307.41 2451,-185 2479.4,-132.05 2492.35,-115.25 2489,-55.25 2488.54,-47.08 2487.62,-38.1 2486.69,-30.36"/>
<polygon fill="#63b8ff" stroke="#63b8ff" points="2490.04,-29.96 2485.29,-20.49 2483.1,-30.86 2490.04,-29.96"/>
</g>
<!-- Node33&#45;&gt;Node13 -->
<g id="edge100" class="edge">
<title>Node33&#45;&gt;Node13</title>
<path fill="none" stroke="#63b8ff" d="M1764.16,-448.88C1559.58,-437.58 436.2,-374.65 368,-350.75 314.84,-332.12 184,-232.71 184,-176.38 184,-176.38 184,-176.38 184,-119.12 184,-73.63 222.48,-73.85 264,-55.25 337.32,-22.4 432.1,-13.59 485.23,-11.32"/>
<polygon fill="#63b8ff" stroke="#63b8ff" points="485.05,-14.79 494.92,-10.93 484.8,-7.8 485.05,-14.79"/>
</g>
<!-- Node34 -->
<g id="node34" class="node">
<title>Node34</title>
<g id="a_node34"><a xlink:href="v8-script_8h.html" target="_top" xlink:title=" ">
<polygon fill="white" stroke="#666666" points="2018.5,-406 1957.5,-406 1957.5,-386.75 2018.5,-386.75 2018.5,-406"/>
<text text-anchor="middle" x="1988" y="-392.5" font-family="Helvetica,sans-Serif" font-size="10.00">v8&#45;script.h</text>
</a>
</g>
</g>
<!-- Node33&#45;&gt;Node34 -->
<g id="edge84" class="edge">
<title>Node33&#45;&gt;Node34</title>
<path fill="none" stroke="#63b8ff" d="M1827.7,-441.83C1860.23,-432.81 1910.99,-418.73 1946.65,-408.84"/>
<polygon fill="#63b8ff" stroke="#63b8ff" points="1947.5,-411.96 1956.2,-405.92 1945.63,-405.22 1947.5,-411.96"/>
</g>
<!-- Node34&#45;&gt;Node6 -->
<g id="edge86" class="edge">
<title>Node34&#45;&gt;Node6</title>
<path fill="none" stroke="#63b8ff" d="M2018.71,-393.06C2065.1,-388.8 2155.25,-377.59 2227,-350.75 2272.39,-333.77 2282.31,-324.68 2321,-295.5 2376.83,-253.39 2397.7,-245.36 2433,-185 2462.93,-133.84 2476.4,-63.82 2481.45,-30.21"/>
<polygon fill="#63b8ff" stroke="#63b8ff" points="2485.02,-30.96 2482.94,-20.57 2478.08,-29.99 2485.02,-30.96"/>
</g>
<!-- Node34&#45;&gt;Node8 -->
<g id="edge87" class="edge">
<title>Node34&#45;&gt;Node8</title>
<path fill="none" stroke="#63b8ff" d="M1999.51,-386.28C2018.99,-370.19 2058.29,-334.71 2078,-295.5 2104.06,-243.66 2110.72,-173.96 2112.42,-140.56"/>
<polygon fill="#63b8ff" stroke="#63b8ff" points="2115.94,-141.13 2112.85,-131 2108.95,-140.85 2115.94,-141.13"/>
</g>
<!-- Node34&#45;&gt;Node10 -->
<g id="edge85" class="edge">
<title>Node34&#45;&gt;Node10</title>
<path fill="none" stroke="#63b8ff" d="M2007.48,-386.31C2023.11,-378.4 2045.01,-365.84 2061,-350.75 2126.21,-289.21 2149.22,-270.57 2176,-185 2192.96,-130.79 2177.67,-62.72 2168.19,-29.97"/>
<polygon fill="#63b8ff" stroke="#63b8ff" points="2171.3,-29.14 2165.04,-20.6 2164.6,-31.18 2171.3,-29.14"/>
</g>
<!-- Node34&#45;&gt;Node13 -->
<g id="edge99" class="edge">
<title>Node34&#45;&gt;Node13</title>
<path fill="none" stroke="#63b8ff" d="M1957.03,-394.42C1773.75,-388.74 837.1,-359.41 777,-350.75 678.5,-336.56 656.19,-321.03 560,-295.5 451.01,-266.58 336,-289.13 336,-176.38 336,-176.38 336,-176.38 336,-119.12 336,-88.8 337.54,-75.63 360,-55.25 394.35,-24.08 448.17,-14.31 485.17,-11.44"/>
<polygon fill="#63b8ff" stroke="#63b8ff" points="485.31,-14.88 495.07,-10.76 484.87,-7.89 485.31,-14.88"/>
</g>
<!-- Node34&#45;&gt;Node15 -->
<g id="edge90" class="edge">
<title>Node34&#45;&gt;Node15</title>
<path fill="none" stroke="#63b8ff" d="M1983.4,-386.32C1971.59,-364.03 1937.95,-306.11 1893,-276.25 1768.75,-193.69 1712.11,-230.35 1570,-185 1545.73,-177.25 1540.39,-173.12 1516,-165.75 1473.63,-152.95 1424.84,-140.96 1388.91,-132.64"/>
<polygon fill="#63b8ff" stroke="#63b8ff" points="1389.72,-129.01 1379.19,-130.18 1388.15,-135.83 1389.72,-129.01"/>
</g>
<!-- Node34&#45;&gt;Node22 -->
<g id="edge91" class="edge">
<title>Node34&#45;&gt;Node22</title>
<path fill="none" stroke="#63b8ff" d="M1988.95,-386.33C1990.7,-364.56 1992.05,-308.61 1964,-276.25 1932.31,-239.68 1797.11,-203.27 1726.44,-186.28"/>
<polygon fill="#63b8ff" stroke="#63b8ff" points="1727.62,-182.73 1717.08,-183.82 1726,-189.54 1727.62,-182.73"/>
</g>
<!-- Node34&#45;&gt;Node26 -->
<g id="edge89" class="edge">
<title>Node34&#45;&gt;Node26</title>
<path fill="none" stroke="#63b8ff" d="M1957.42,-394.29C1826.3,-389.56 1311.11,-370.09 1150,-350.75 1017.99,-334.9 970.64,-362.84 856,-295.5 818.99,-273.76 800.39,-223.58 792.62,-195.78"/>
<polygon fill="#63b8ff" stroke="#63b8ff" points="795.82,-195.19 789.93,-186.39 789.04,-196.95 795.82,-195.19"/>
</g>
<!-- Node35 -->
<g id="node35" class="node">
<title>Node35</title>
<g id="a_node35"><a xlink:title=" ">
<polygon fill="#e0e0e0" stroke="#999999" points="2423.5,-185 2380.5,-185 2380.5,-165.75 2423.5,-165.75 2423.5,-185"/>
<text text-anchor="middle" x="2402" y="-171.5" font-family="Helvetica,sans-Serif" font-size="10.00">vector</text>
</a>
</g>
</g>
<!-- Node34&#45;&gt;Node35 -->
<g id="edge88" class="edge">
<title>Node34&#45;&gt;Node35</title>
<path fill="none" stroke="#63b8ff" d="M2018.81,-392.27C2059.73,-387.34 2133.63,-375.62 2192,-350.75 2273.2,-316.16 2293.86,-301.92 2357,-240.25 2370.92,-226.66 2383.37,-208.24 2391.62,-194.68"/>
<polygon fill="#63b8ff" stroke="#63b8ff" points="2395.02,-196.8 2397.08,-186.41 2388.99,-193.26 2395.02,-196.8"/>
</g>
<!-- Node36 -->
<g id="node36" class="node">
<title>Node36</title>
<g id="a_node36"><a xlink:href="v8-message_8h.html" target="_top" xlink:title=" ">
<polygon fill="white" stroke="#666666" points="1660.38,-350.75 1583.62,-350.75 1583.62,-331.5 1660.38,-331.5 1660.38,-350.75"/>
<text text-anchor="middle" x="1622" y="-337.25" font-family="Helvetica,sans-Serif" font-size="10.00">v8&#45;message.h</text>
</a>
</g>
</g>
<!-- Node34&#45;&gt;Node36 -->
<g id="edge92" class="edge">
<title>Node34&#45;&gt;Node36</title>
<path fill="none" stroke="#63b8ff" d="M1957.11,-390.88C1893.71,-381.66 1748.39,-360.51 1671.62,-349.34"/>
<polygon fill="#63b8ff" stroke="#63b8ff" points="1672.21,-345.75 1661.81,-347.77 1671.2,-352.67 1672.21,-345.75"/>
</g>
<!-- Node36&#45;&gt;Node13 -->
<g id="edge98" class="edge">
<title>Node36&#45;&gt;Node13</title>
<path fill="none" stroke="#63b8ff" d="M1583.42,-338.38C1480.1,-333.46 1198.9,-318.32 1109,-295.5 1079.17,-287.93 1004.85,-260.87 982,-240.25 932.89,-195.91 957.04,-156 909,-110.5 868.7,-72.33 849.85,-72.22 797,-55.25 717.74,-29.8 620.55,-18.31 566.75,-13.57"/>
<polygon fill="#63b8ff" stroke="#63b8ff" points="567.21,-10.01 556.95,-12.66 566.62,-16.99 567.21,-10.01"/>
</g>
<!-- Node36&#45;&gt;Node15 -->
<g id="edge95" class="edge">
<title>Node36&#45;&gt;Node15</title>
<path fill="none" stroke="#63b8ff" d="M1618.99,-331.22C1611.57,-310.22 1590.74,-256.68 1560,-221 1516.58,-170.59 1442.66,-144.46 1391.91,-131.78"/>
<polygon fill="#63b8ff" stroke="#63b8ff" points="1392.99,-128.2 1382.45,-129.27 1391.36,-135.01 1392.99,-128.2"/>
</g>
<!-- Node36&#45;&gt;Node22 -->
<g id="edge96" class="edge">
<title>Node36&#45;&gt;Node22</title>
<path fill="none" stroke="#63b8ff" d="M1625.28,-331.32C1634.84,-305.67 1662.82,-230.55 1675.99,-195.19"/>
<polygon fill="#63b8ff" stroke="#63b8ff" points="1679.49,-196.82 1679.7,-186.22 1672.93,-194.37 1679.49,-196.82"/>
</g>
<!-- Node36&#45;&gt;Node25 -->
<g id="edge97" class="edge">
<title>Node36&#45;&gt;Node25</title>
<path fill="none" stroke="#63b8ff" d="M1583.29,-337.26C1461.12,-328.23 1083.93,-300.33 949.88,-290.42"/>
<polygon fill="#63b8ff" stroke="#63b8ff" points="950.39,-286.87 940.16,-289.62 949.88,-293.85 950.39,-286.87"/>
</g>
<!-- Node36&#45;&gt;Node29 -->
<g id="edge93" class="edge">
<title>Node36&#45;&gt;Node29</title>
<path fill="none" stroke="#63b8ff" d="M1631.12,-331.05C1652.83,-308.69 1707.13,-248.14 1725,-185 1727.33,-176.77 1727.56,-173.91 1725,-165.75 1721.91,-155.89 1715.8,-146.31 1709.81,-138.56"/>
<polygon fill="#63b8ff" stroke="#63b8ff" points="1711.87,-136.57 1702.77,-131.13 1706.49,-141.05 1711.87,-136.57"/>
</g>
<!-- Node37 -->
<g id="node37" class="node">
<title>Node37</title>
<g id="a_node37"><a xlink:title=" ">
<polygon fill="#e0e0e0" stroke="#999999" points="1884.25,-295.5 1839.75,-295.5 1839.75,-276.25 1884.25,-276.25 1884.25,-295.5"/>
<text text-anchor="middle" x="1862" y="-282" font-family="Helvetica,sans-Serif" font-size="10.00">iosfwd</text>
</a>
</g>
</g>
<!-- Node36&#45;&gt;Node37 -->
<g id="edge94" class="edge">
<title>Node36&#45;&gt;Node37</title>
<path fill="none" stroke="#63b8ff" d="M1660.78,-331.88C1701.86,-323.09 1768.58,-308.66 1826,-295.5 1826.96,-295.28 1827.93,-295.06 1828.91,-294.83"/>
<polygon fill="#63b8ff" stroke="#63b8ff" points="1829.61,-298.02 1838.55,-292.33 1828.01,-291.21 1829.61,-298.02"/>
</g>
<!-- Node38&#45;&gt;Node6 -->
<g id="edge103" class="edge">
<title>Node38&#45;&gt;Node6</title>
<path fill="none" stroke="#63b8ff" d="M2303.6,-220.77C2331.95,-187.75 2431.78,-71.45 2469.46,-27.56"/>
<polygon fill="#63b8ff" stroke="#63b8ff" points="2472.65,-30.22 2476.51,-20.35 2467.34,-25.66 2472.65,-30.22"/>
</g>
<!-- Node38&#45;&gt;Node10 -->
<g id="edge102" class="edge">
<title>Node38&#45;&gt;Node10</title>
<path fill="none" stroke="#63b8ff" d="M2296.23,-220.51C2296.46,-192.54 2293.56,-106.77 2252,-55.25 2238.3,-38.26 2216.49,-27.22 2197.77,-20.37"/>
<polygon fill="#63b8ff" stroke="#63b8ff" points="2199.07,-16.78 2188.47,-16.9 2196.83,-23.41 2199.07,-16.78"/>
</g>
<!-- Node38&#45;&gt;Node11 -->
<g id="edge104" class="edge">
<title>Node38&#45;&gt;Node11</title>
<path fill="none" stroke="#63b8ff" d="M2298.21,-220.75C2302.54,-203.34 2312.24,-164.37 2318.14,-140.66"/>
<polygon fill="#63b8ff" stroke="#63b8ff" points="2321.74,-141.68 2320.76,-131.13 2314.95,-139.99 2321.74,-141.68"/>
</g>
<!-- Node38&#45;&gt;Node12 -->
<g id="edge106" class="edge">
<title>Node38&#45;&gt;Node12</title>
<path fill="none" stroke="#63b8ff" d="M2243.88,-228.35C1947.21,-221.12 474.04,-185.22 167.09,-177.74"/>
<polygon fill="#63b8ff" stroke="#63b8ff" points="167.34,-174.22 157.25,-177.48 167.17,-181.22 167.34,-174.22"/>
</g>
<!-- Node38&#45;&gt;Node13 -->
<g id="edge109" class="edge">
<title>Node38&#45;&gt;Node13</title>
<path fill="none" stroke="#63b8ff" d="M2243.65,-229.31C2132.89,-227.94 1878.65,-220.86 1801,-185 1758.06,-165.17 1766.15,-133.83 1725,-110.5 1640.67,-62.69 1609.84,-69.8 1514,-55.25 1326.88,-26.85 729.33,-14.27 567.02,-11.32"/>
<polygon fill="#63b8ff" stroke="#63b8ff" points="567.16,-7.81 557.1,-11.13 567.03,-14.81 567.16,-7.81"/>
</g>
<!-- Node38&#45;&gt;Node15 -->
<g id="edge107" class="edge">
<title>Node38&#45;&gt;Node15</title>
<path fill="none" stroke="#63b8ff" d="M2243.84,-228.43C2109.62,-225 1754.91,-213.42 1641,-185 1620.68,-179.93 1618.03,-171.84 1598,-165.75 1578.68,-159.88 1462.9,-141.04 1392.19,-129.8"/>
<polygon fill="#63b8ff" stroke="#63b8ff" points="1393.1,-126.25 1382.68,-128.14 1392.01,-133.16 1393.1,-126.25"/>
</g>
<!-- Node38&#45;&gt;Node28 -->
<g id="edge108" class="edge">
<title>Node38&#45;&gt;Node28</title>
<path fill="none" stroke="#63b8ff" d="M2244.04,-223.31C2162.08,-213.34 2003.3,-194.04 1917.12,-183.56"/>
<polygon fill="#63b8ff" stroke="#63b8ff" points="1917.56,-179.97 1907.21,-182.24 1916.72,-186.92 1917.56,-179.97"/>
</g>
<!-- Node38&#45;&gt;Node35 -->
<g id="edge105" class="edge">
<title>Node38&#45;&gt;Node35</title>
<path fill="none" stroke="#63b8ff" d="M2313.98,-220.59C2330.5,-212.29 2355.25,-199.86 2374.29,-190.29"/>
<polygon fill="#63b8ff" stroke="#63b8ff" points="2375.57,-193.07 2382.93,-185.45 2372.42,-186.81 2375.57,-193.07"/>
</g>
<!-- Node39&#45;&gt;Node13 -->
<g id="edge113" class="edge">
<title>Node39&#45;&gt;Node13</title>
<path fill="none" stroke="#63b8ff" d="M785.79,-331.03C669.93,-310.37 412,-255.5 412,-176.38 412,-176.38 412,-176.38 412,-119.12 412,-88.8 415.66,-77.75 436,-55.25 449.39,-40.43 468.81,-29.94 486.19,-22.87"/>
<polygon fill="#63b8ff" stroke="#63b8ff" points="487.02,-25.92 495.12,-19.1 484.53,-19.38 487.02,-25.92"/>
</g>
<!-- Node39&#45;&gt;Node15 -->
<g id="edge111" class="edge">
<title>Node39&#45;&gt;Node15</title>
<path fill="none" stroke="#63b8ff" d="M885.01,-331.05C946.89,-317.17 1062,-287.25 1151,-240.25 1198.76,-215.03 1201.25,-194.44 1247,-165.75 1265.9,-153.9 1288.38,-142.75 1306.14,-134.56"/>
<polygon fill="#63b8ff" stroke="#63b8ff" points="1307.33,-137.41 1314.99,-130.1 1304.44,-131.04 1307.33,-137.41"/>
</g>
<!-- Node39&#45;&gt;Node25 -->
<g id="edge112" class="edge">
<title>Node39&#45;&gt;Node25</title>
<path fill="none" stroke="#63b8ff" d="M851.35,-331.09C860.16,-323.4 873.05,-312.15 883.61,-302.93"/>
<polygon fill="#63b8ff" stroke="#63b8ff" points="885.57,-304.99 890.81,-295.77 880.97,-299.71 885.57,-304.99"/>
</g>
<!-- Node41&#45;&gt;Node6 -->
<g id="edge121" class="edge">
<title>Node41&#45;&gt;Node6</title>
<path fill="none" stroke="#63b8ff" d="M2481.51,-442.32C2529.55,-431.72 2606.78,-413.82 2618,-406 2715.66,-337.89 2756,-295.44 2756,-176.38 2756,-176.38 2756,-176.38 2756,-119.12 2756,-68.59 2591.98,-31.11 2518.68,-16.89"/>
<polygon fill="#63b8ff" stroke="#63b8ff" points="2519.62,-13.31 2509.14,-14.88 2518.31,-20.19 2519.62,-13.31"/>
</g>
<!-- Node41&#45;&gt;Node8 -->
<g id="edge122" class="edge">
<title>Node41&#45;&gt;Node8</title>
<path fill="none" stroke="#63b8ff" d="M2457.42,-441.51C2481.67,-424.94 2528,-387.35 2528,-342.12 2528,-342.12 2528,-342.12 2528,-284.88 2528,-217.16 2491.83,-199.28 2433,-165.75 2385.14,-138.47 2222.34,-126.78 2149.16,-122.82"/>
<polygon fill="#63b8ff" stroke="#63b8ff" points="2149.79,-119.29 2139.62,-122.27 2149.43,-126.29 2149.79,-119.29"/>
</g>
<!-- Node41&#45;&gt;Node10 -->
<g id="edge120" class="edge">
<title>Node41&#45;&gt;Node10</title>
<path fill="none" stroke="#63b8ff" d="M2477.63,-441.5C2508.68,-432.67 2551.13,-418.79 2563,-406 2635.69,-327.71 2631.68,-240.15 2555,-165.75 2514.12,-126.09 2485.3,-149.83 2432,-129.75 2358.59,-102.1 2343.92,-86.56 2272,-55.25 2246.51,-44.15 2217.33,-32.36 2195.43,-23.68"/>
<polygon fill="#63b8ff" stroke="#63b8ff" points="2196.91,-20.1 2186.32,-19.69 2194.34,-26.62 2196.91,-20.1"/>
</g>
<!-- Node41&#45;&gt;Node11 -->
<g id="edge123" class="edge">
<title>Node41&#45;&gt;Node11</title>
<path fill="none" stroke="#63b8ff" d="M2480.12,-441.51C2500.74,-434.76 2525.49,-423.6 2542,-406 2562.75,-383.88 2566,-372.45 2566,-342.12 2566,-342.12 2566,-342.12 2566,-284.88 2566,-225.19 2553.09,-199.7 2504,-165.75 2479.76,-148.99 2398.38,-133.49 2353.45,-125.94"/>
<polygon fill="#63b8ff" stroke="#63b8ff" points="2354.04,-122.32 2343.6,-124.15 2352.9,-129.23 2354.04,-122.32"/>
</g>
<!-- Node41&#45;&gt;Node13 -->
<g id="edge127" class="edge">
<title>Node41&#45;&gt;Node13</title>
<path fill="none" stroke="#63b8ff" d="M2404.41,-449.73C2281.59,-446.67 1888.79,-435.1 1565,-406 1498.5,-400.02 1482.49,-392.91 1416,-386.75 1132.76,-360.51 1058.14,-394.04 777,-350.75 584.11,-321.05 374,-371.53 374,-176.38 374,-176.38 374,-176.38 374,-119.12 374,-64.2 440.57,-34.45 485.6,-20.61"/>
<polygon fill="#63b8ff" stroke="#63b8ff" points="486.35,-23.75 494.97,-17.59 484.39,-17.03 486.35,-23.75"/>
</g>
<!-- Node41&#45;&gt;Node15 -->
<g id="edge125" class="edge">
<title>Node41&#45;&gt;Node15</title>
<path fill="none" stroke="#63b8ff" d="M2422.36,-441.61C2343.97,-407.69 2056.59,-286.4 1809,-221 1717.02,-196.71 1688.77,-213.47 1598,-185 1578.79,-178.97 1576.11,-172.07 1557,-165.75 1541.51,-160.63 1452.16,-143.11 1392.2,-131.61"/>
<polygon fill="#63b8ff" stroke="#63b8ff" points="1393.22,-128.05 1382.74,-129.61 1391.9,-134.93 1393.22,-128.05"/>
</g>
<!-- Node41&#45;&gt;Node32 -->
<g id="edge126" class="edge">
<title>Node41&#45;&gt;Node32</title>
<path fill="none" stroke="#63b8ff" d="M2404.37,-448.8C2278.69,-442.83 1870.03,-423.33 1532,-406 1493.62,-404.03 1450.09,-401.69 1417.98,-399.95"/>
<polygon fill="#63b8ff" stroke="#63b8ff" points="1418.3,-396.41 1408.13,-399.36 1417.92,-403.4 1418.3,-396.41"/>
</g>
<!-- Node41&#45;&gt;Node35 -->
<g id="edge124" class="edge">
<title>Node41&#45;&gt;Node35</title>
<path fill="none" stroke="#63b8ff" d="M2444.25,-441.64C2446.72,-423.09 2452,-379.17 2452,-342.12 2452,-342.12 2452,-342.12 2452,-284.88 2452,-250.14 2430.6,-214.42 2415.8,-193.86"/>
<polygon fill="#63b8ff" stroke="#63b8ff" points="2418.18,-192.2 2409.38,-186.3 2412.58,-196.4 2418.18,-192.2"/>
</g>
<!-- Node42&#45;&gt;Node8 -->
<g id="edge129" class="edge">
<title>Node42&#45;&gt;Node8</title>
<path fill="none" stroke="#63b8ff" d="M1235.42,-333.99C1373.27,-311.77 1842.38,-234.21 1986,-185 2023.55,-172.13 2064.05,-150.22 2088.97,-135.71"/>
<polygon fill="#63b8ff" stroke="#63b8ff" points="2090.5,-138.27 2097.33,-130.17 2086.94,-132.25 2090.5,-138.27"/>
</g>
<!-- Node42&#45;&gt;Node13 -->
<g id="edge143" class="edge">
<title>Node42&#45;&gt;Node13</title>
<path fill="none" stroke="#63b8ff" d="M1158.6,-340.02C1074.71,-339.07 869.18,-332.76 702,-295.5 631.84,-279.86 613.47,-273.99 550,-240.25 513.13,-220.65 492.95,-222.21 474,-185 447.83,-133.61 449.92,-107.65 474,-55.25 479.51,-43.25 490.03,-33.27 500.16,-25.81"/>
<polygon fill="#63b8ff" stroke="#63b8ff" points="501.89,-28.18 508.21,-19.68 497.97,-22.39 501.89,-28.18"/>
</g>
<!-- Node43 -->
<g id="node43" class="node">
<title>Node43</title>
<g id="a_node43"><a xlink:href="v8-embedder-state-scope_8h.html" target="_top" xlink:title=" ">
<polygon fill="white" stroke="#666666" points="1251.88,-295.5 1118.12,-295.5 1118.12,-276.25 1251.88,-276.25 1251.88,-295.5"/>
<text text-anchor="middle" x="1185" y="-282" font-family="Helvetica,sans-Serif" font-size="10.00">v8&#45;embedder&#45;state&#45;scope.h</text>
</a>
</g>
</g>
<!-- Node42&#45;&gt;Node43 -->
<g id="edge130" class="edge">
<title>Node42&#45;&gt;Node43</title>
<path fill="none" stroke="#63b8ff" d="M1195.02,-331.33C1193.5,-324.59 1191.34,-315.02 1189.42,-306.49"/>
<polygon fill="#63b8ff" stroke="#63b8ff" points="1192.64,-305.85 1187.02,-296.86 1185.81,-307.38 1192.64,-305.85"/>
</g>
<!-- Node43&#45;&gt;Node8 -->
<g id="edge131" class="edge">
<title>Node43&#45;&gt;Node8</title>
<path fill="none" stroke="#63b8ff" d="M1252.11,-278.28C1412.91,-262.11 1816.65,-219.35 1948,-185 1970.24,-179.18 1974.59,-174.12 1996,-165.75 2023.74,-154.9 2055.3,-142.88 2078.65,-134.05"/>
<polygon fill="#63b8ff" stroke="#63b8ff" points="2079.63,-137.04 2087.75,-130.24 2077.16,-130.49 2079.63,-137.04"/>
</g>
<!-- Node43&#45;&gt;Node15 -->
<g id="edge142" class="edge">
<title>Node43&#45;&gt;Node15</title>
<path fill="none" stroke="#63b8ff" d="M1192,-275.77C1198.8,-266.84 1209.35,-252.78 1218,-240.25 1240.39,-207.84 1237.99,-193.45 1266,-165.75 1278.33,-153.56 1294.55,-143.05 1308.38,-135.3"/>
<polygon fill="#63b8ff" stroke="#63b8ff" points="1309.79,-137.98 1316.93,-130.16 1306.47,-131.82 1309.79,-137.98"/>
</g>
<!-- Node43&#45;&gt;Node17 -->
<g id="edge141" class="edge">
<title>Node43&#45;&gt;Node17</title>
<path fill="none" stroke="#63b8ff" d="M1131.51,-275.77C1055.45,-260.51 930.2,-225.43 977,-165.75 1004.85,-130.23 1308.75,-87.08 1425.6,-71.68"/>
<polygon fill="#63b8ff" stroke="#63b8ff" points="1425.84,-75.05 1435.3,-70.28 1424.93,-68.11 1425.84,-75.05"/>
</g>
<!-- Node44 -->
<g id="node44" class="node">
<title>Node44</title>
<g id="a_node44"><a xlink:href="v8-context_8h.html" target="_top" xlink:title=" ">
<polygon fill="white" stroke="#666666" points="1116.25,-240.25 1047.75,-240.25 1047.75,-221 1116.25,-221 1116.25,-240.25"/>
<text text-anchor="middle" x="1082" y="-226.75" font-family="Helvetica,sans-Serif" font-size="10.00">v8&#45;context.h</text>
</a>
</g>
</g>
<!-- Node43&#45;&gt;Node44 -->
<g id="edge132" class="edge">
<title>Node43&#45;&gt;Node44</title>
<path fill="none" stroke="#63b8ff" d="M1167.53,-275.84C1151.55,-267.58 1127.65,-255.23 1109.18,-245.68"/>
<polygon fill="#63b8ff" stroke="#63b8ff" points="1111.05,-242.19 1100.56,-240.7 1107.83,-248.4 1111.05,-242.19"/>
</g>
<!-- Node44&#45;&gt;Node6 -->
<g id="edge133" class="edge">
<title>Node44&#45;&gt;Node6</title>
<path fill="none" stroke="#63b8ff" d="M1116.6,-228.73C1264.26,-224.79 1837.74,-208.12 1915,-185 1931.27,-180.13 1932.81,-173.34 1948,-165.75 2004.52,-137.49 2019.03,-130.4 2079,-110.5 2213.4,-65.89 2378.77,-31.16 2449.39,-17.24"/>
<polygon fill="#63b8ff" stroke="#63b8ff" points="2449.75,-20.54 2458.89,-15.19 2448.4,-13.67 2449.75,-20.54"/>
</g>
<!-- Node44&#45;&gt;Node13 -->
<g id="edge140" class="edge">
<title>Node44&#45;&gt;Node13</title>
<path fill="none" stroke="#63b8ff" d="M1047.38,-227.2C943.16,-219.79 638.49,-197.17 621,-185 568.37,-148.4 590.8,-110.33 558,-55.25 552.46,-45.95 545.54,-36.12 539.55,-28.06"/>
<polygon fill="#63b8ff" stroke="#63b8ff" points="541.92,-26.4 533.09,-20.55 536.35,-30.63 541.92,-26.4"/>
</g>
<!-- Node44&#45;&gt;Node15 -->
<g id="edge135" class="edge">
<title>Node44&#45;&gt;Node15</title>
<path fill="none" stroke="#63b8ff" d="M1089.15,-220.68C1100.8,-206.73 1125.26,-179.95 1152,-165.75 1192.54,-144.22 1243.57,-132.92 1281.76,-127.08"/>
<polygon fill="#63b8ff" stroke="#63b8ff" points="1281.77,-130.47 1291.17,-125.57 1280.77,-123.54 1281.77,-130.47"/>
</g>
<!-- Node44&#45;&gt;Node26 -->
<g id="edge134" class="edge">
<title>Node44&#45;&gt;Node26</title>
<path fill="none" stroke="#63b8ff" d="M1047.41,-223.36C992.22,-213.36 884.61,-193.87 826.85,-183.41"/>
<polygon fill="#63b8ff" stroke="#63b8ff" points="827.8,-179.84 817.33,-181.51 826.55,-186.73 827.8,-179.84"/>
</g>
<!-- Node45 -->
<g id="node45" class="node">
<title>Node45</title>
<g id="a_node45"><a xlink:href="v8-snapshot_8h.html" target="_top" xlink:title=" ">
<polygon fill="white" stroke="#666666" points="1062.38,-185 985.62,-185 985.62,-165.75 1062.38,-165.75 1062.38,-185"/>
<text text-anchor="middle" x="1024" y="-171.5" font-family="Helvetica,sans-Serif" font-size="10.00">v8&#45;snapshot.h</text>
</a>
</g>
</g>
<!-- Node44&#45;&gt;Node45 -->
<g id="edge136" class="edge">
<title>Node44&#45;&gt;Node45</title>
<path fill="none" stroke="#63b8ff" d="M1072.16,-220.59C1063.86,-212.97 1051.77,-201.87 1041.78,-192.7"/>
<polygon fill="#63b8ff" stroke="#63b8ff" points="1044.43,-190.46 1034.69,-186.27 1039.69,-195.62 1044.43,-190.46"/>
</g>
<!-- Node45&#45;&gt;Node13 -->
<g id="edge139" class="edge">
<title>Node45&#45;&gt;Node13</title>
<path fill="none" stroke="#63b8ff" d="M985.49,-174.74C934.08,-173.68 841.56,-166.25 773,-129.75 732.35,-108.11 740.82,-78.37 701,-55.25 659.1,-30.92 604.03,-19.71 566.95,-14.63"/>
<polygon fill="#63b8ff" stroke="#63b8ff" points="567.41,-11.04 557.05,-13.25 566.53,-17.98 567.41,-11.04"/>
</g>
<!-- Node45&#45;&gt;Node15 -->
<g id="edge138" class="edge">
<title>Node45&#45;&gt;Node15</title>
<path fill="none" stroke="#63b8ff" d="M1062.69,-167.79C1117.74,-158.43 1218.93,-141.21 1281.82,-130.51"/>
<polygon fill="#63b8ff" stroke="#63b8ff" points="1282.07,-133.85 1291.34,-128.72 1280.89,-126.95 1282.07,-133.85"/>
</g>
<!-- Node45&#45;&gt;Node17 -->
<g id="edge137" class="edge">
<title>Node45&#45;&gt;Node17</title>
<path fill="none" stroke="#63b8ff" d="M1060.58,-165.31C1110.89,-152.85 1204.27,-129.81 1284,-110.5 1332.42,-98.77 1387.95,-85.55 1425.84,-76.56"/>
<polygon fill="#63b8ff" stroke="#63b8ff" points="1426.6,-79.74 1435.52,-74.03 1424.98,-72.93 1426.6,-79.74"/>
</g>
</g>
</svg>
