<?xml version="1.0" encoding="UTF-8" standalone="no"?>
<!DOCTYPE svg PUBLIC "-//W3C//DTD SVG 1.1//EN"
 "http://www.w3.org/Graphics/SVG/1.1/DTD/svg11.dtd">
<!-- Generated by graphviz version 8.0.5 (20230430.1635)
 -->
<!-- Title: include/v8&#45;script.h Pages: 1 -->
<svg width="735pt" height="414pt"
 viewBox="0.00 0.00 734.50 414.00" xmlns="http://www.w3.org/2000/svg" xmlns:xlink="http://www.w3.org/1999/xlink">
<g id="graph0" class="graph" transform="scale(1 1) rotate(0) translate(4 410)">
<title>include/v8&#45;script.h</title>
<!-- Node1 -->
<g id="node1" class="node">
<title>Node1</title>
<g id="a_node1"><a xlink:title=" ">
<polygon fill="#999999" stroke="#666666" points="558.38,-406 463.62,-406 463.62,-386.75 558.38,-386.75 558.38,-406"/>
<text text-anchor="middle" x="511" y="-392.5" font-family="Helvetica,sans-Serif" font-size="10.00">include/v8&#45;script.h</text>
</a>
</g>
</g>
<!-- Node2 -->
<g id="node2" class="node">
<title>Node2</title>
<g id="a_node2"><a xlink:title=" ">
<polygon fill="#e0e0e0" stroke="#999999" points="98.25,-19.25 47.75,-19.25 47.75,0 98.25,0 98.25,-19.25"/>
<text text-anchor="middle" x="73" y="-5.75" font-family="Helvetica,sans-Serif" font-size="10.00">stddef.h</text>
</a>
</g>
</g>
<!-- Node1&#45;&gt;Node2 -->
<g id="edge1" class="edge">
<title>Node1&#45;&gt;Node2</title>
<path fill="none" stroke="#63b8ff" d="M463.39,-395.3C336.53,-393.84 0,-381.08 0,-286.88 0,-286.88 0,-286.88 0,-119.12 0,-81.01 31.39,-46.23 53,-26.8"/>
<polygon fill="#63b8ff" stroke="#63b8ff" points="54.98,-28.85 60.27,-19.67 50.41,-23.55 54.98,-28.85"/>
</g>
<!-- Node3 -->
<g id="node3" class="node">
<title>Node3</title>
<g id="a_node3"><a xlink:title=" ">
<polygon fill="#e0e0e0" stroke="#999999" points="570.75,-19.25 523.25,-19.25 523.25,0 570.75,0 570.75,-19.25"/>
<text text-anchor="middle" x="547" y="-5.75" font-family="Helvetica,sans-Serif" font-size="10.00">stdint.h</text>
</a>
</g>
</g>
<!-- Node1&#45;&gt;Node3 -->
<g id="edge2" class="edge">
<title>Node1&#45;&gt;Node3</title>
<path fill="none" stroke="#63b8ff" d="M525.1,-386.28C536.68,-378.18 552.77,-365.37 563,-350.75 580.39,-325.9 587,-317.2 587,-286.88 587,-286.88 587,-286.88 587,-119.12 587,-85.63 570.02,-49.72 558.18,-28.76"/>
<polygon fill="#63b8ff" stroke="#63b8ff" points="560.82,-27.34 552.73,-20.5 554.79,-30.9 560.82,-27.34"/>
</g>
<!-- Node4 -->
<g id="node4" class="node">
<title>Node4</title>
<g id="a_node4"><a xlink:title=" ">
<polygon fill="#e0e0e0" stroke="#999999" points="665.25,-350.75 614.75,-350.75 614.75,-331.5 665.25,-331.5 665.25,-350.75"/>
<text text-anchor="middle" x="640" y="-337.25" font-family="Helvetica,sans-Serif" font-size="10.00">memory</text>
</a>
</g>
</g>
<!-- Node1&#45;&gt;Node4 -->
<g id="edge3" class="edge">
<title>Node1&#45;&gt;Node4</title>
<path fill="none" stroke="#63b8ff" d="M532.88,-386.34C553.45,-377.85 584.49,-365.04 607.87,-355.39"/>
<polygon fill="#63b8ff" stroke="#63b8ff" points="609.1,-358.25 617.01,-351.2 606.43,-351.78 609.1,-358.25"/>
</g>
<!-- Node5 -->
<g id="node5" class="node">
<title>Node5</title>
<g id="a_node5"><a xlink:title=" ">
<polygon fill="#e0e0e0" stroke="#999999" points="726.5,-350.75 683.5,-350.75 683.5,-331.5 726.5,-331.5 726.5,-350.75"/>
<text text-anchor="middle" x="705" y="-337.25" font-family="Helvetica,sans-Serif" font-size="10.00">vector</text>
</a>
</g>
</g>
<!-- Node1&#45;&gt;Node5 -->
<g id="edge4" class="edge">
<title>Node1&#45;&gt;Node5</title>
<path fill="none" stroke="#63b8ff" d="M544.41,-386.27C575.25,-377.86 622.57,-364.93 672.89,-351.05"/>
<polygon fill="#63b8ff" stroke="#63b8ff" points="673.61,-354.2 682.32,-348.17 671.75,-347.45 673.61,-354.2"/>
</g>
<!-- Node6 -->
<g id="node6" class="node">
<title>Node6</title>
<g id="a_node6"><a xlink:href="v8-data_8h.html" target="_top" xlink:title=" ">
<polygon fill="white" stroke="#666666" points="235.88,-185 180.12,-185 180.12,-165.75 235.88,-165.75 235.88,-185"/>
<text text-anchor="middle" x="208" y="-171.5" font-family="Helvetica,sans-Serif" font-size="10.00">v8&#45;data.h</text>
</a>
</g>
</g>
<!-- Node1&#45;&gt;Node6 -->
<g id="edge5" class="edge">
<title>Node1&#45;&gt;Node6</title>
<path fill="none" stroke="#63b8ff" d="M503.57,-386.5C484.77,-364.62 432.94,-307.57 378,-276.25 331.84,-249.93 308.49,-269.3 264,-240.25 245.54,-228.2 229.54,-208.44 219.43,-194.08"/>
<polygon fill="#63b8ff" stroke="#63b8ff" points="221.9,-192.5 213.41,-186.17 216.1,-196.42 221.9,-192.5"/>
</g>
<!-- Node7 -->
<g id="node7" class="node">
<title>Node7</title>
<g id="a_node7"><a xlink:href="v8-local-handle_8h.html" target="_top" xlink:title=" ">
<polygon fill="white" stroke="#666666" points="123.38,-129.75 34.62,-129.75 34.62,-110.5 123.38,-110.5 123.38,-129.75"/>
<text text-anchor="middle" x="79" y="-116.25" font-family="Helvetica,sans-Serif" font-size="10.00">v8&#45;local&#45;handle.h</text>
</a>
</g>
</g>
<!-- Node1&#45;&gt;Node7 -->
<g id="edge18" class="edge">
<title>Node1&#45;&gt;Node7</title>
<path fill="none" stroke="#63b8ff" d="M463.48,-394.49C343.53,-390.99 38,-373.55 38,-286.88 38,-286.88 38,-286.88 38,-229.62 38,-196.03 55.41,-160.15 67.54,-139.22"/>
<polygon fill="#63b8ff" stroke="#63b8ff" points="70.95,-141.35 73.13,-130.98 64.96,-137.73 70.95,-141.35"/>
</g>
<!-- Node13 -->
<g id="node13" class="node">
<title>Node13</title>
<g id="a_node13"><a xlink:href="v8config_8h.html" target="_top" xlink:title=" ">
<polygon fill="white" stroke="#666666" points="469.75,-19.25 410.25,-19.25 410.25,0 469.75,0 469.75,-19.25"/>
<text text-anchor="middle" x="440" y="-5.75" font-family="Helvetica,sans-Serif" font-size="10.00">v8config.h</text>
</a>
</g>
</g>
<!-- Node1&#45;&gt;Node13 -->
<g id="edge41" class="edge">
<title>Node1&#45;&gt;Node13</title>
<path fill="none" stroke="#63b8ff" d="M516.44,-386.46C526.95,-368.38 549,-325.79 549,-286.88 549,-286.88 549,-286.88 549,-119.12 549,-74.36 502.25,-41.69 469.98,-24.48"/>
<polygon fill="#63b8ff" stroke="#63b8ff" points="472,-21.07 461.5,-19.63 468.82,-27.3 472,-21.07"/>
</g>
<!-- Node14 -->
<g id="node14" class="node">
<title>Node14</title>
<g id="a_node14"><a xlink:href="v8-maybe_8h.html" target="_top" xlink:title=" ">
<polygon fill="white" stroke="#666666" points="395.75,-185 330.25,-185 330.25,-165.75 395.75,-165.75 395.75,-185"/>
<text text-anchor="middle" x="363" y="-171.5" font-family="Helvetica,sans-Serif" font-size="10.00">v8&#45;maybe.h</text>
</a>
</g>
</g>
<!-- Node1&#45;&gt;Node14 -->
<g id="edge19" class="edge">
<title>Node1&#45;&gt;Node14</title>
<path fill="none" stroke="#63b8ff" d="M511.2,-386.26C511.25,-365.26 509.01,-312.49 487,-276.25 463.38,-237.36 418.88,-207.19 390.1,-190.61"/>
<polygon fill="#63b8ff" stroke="#63b8ff" points="392.08,-187.14 381.64,-185.32 388.66,-193.25 392.08,-187.14"/>
</g>
<!-- Node16 -->
<g id="node16" class="node">
<title>Node16</title>
<g id="a_node16"><a xlink:href="v8-message_8h.html" target="_top" xlink:title=" ">
<polygon fill="white" stroke="#666666" points="385.38,-350.75 308.62,-350.75 308.62,-331.5 385.38,-331.5 385.38,-350.75"/>
<text text-anchor="middle" x="347" y="-337.25" font-family="Helvetica,sans-Serif" font-size="10.00">v8&#45;message.h</text>
</a>
</g>
</g>
<!-- Node1&#45;&gt;Node16 -->
<g id="edge24" class="edge">
<title>Node1&#45;&gt;Node16</title>
<path fill="none" stroke="#63b8ff" d="M483.18,-386.34C456.2,-377.58 415.07,-364.23 385.06,-354.48"/>
<polygon fill="#63b8ff" stroke="#63b8ff" points="386.55,-350.96 375.96,-351.2 384.39,-357.62 386.55,-350.96"/>
</g>
<!-- Node6&#45;&gt;Node7 -->
<g id="edge6" class="edge">
<title>Node6&#45;&gt;Node7</title>
<path fill="none" stroke="#63b8ff" d="M186.12,-165.34C165.55,-156.85 134.51,-144.04 111.13,-134.39"/>
<polygon fill="#63b8ff" stroke="#63b8ff" points="112.57,-130.78 101.99,-130.2 109.9,-137.25 112.57,-130.78"/>
</g>
<!-- Node6&#45;&gt;Node13 -->
<g id="edge17" class="edge">
<title>Node6&#45;&gt;Node13</title>
<path fill="none" stroke="#63b8ff" d="M217.98,-165.26C232.2,-152.46 259.29,-128.68 284,-110.5 328.65,-77.66 383.88,-43.77 415.22,-25.13"/>
<polygon fill="#63b8ff" stroke="#63b8ff" points="416.68,-27.74 423.51,-19.63 413.12,-21.71 416.68,-27.74"/>
</g>
<!-- Node7&#45;&gt;Node2 -->
<g id="edge7" class="edge">
<title>Node7&#45;&gt;Node2</title>
<path fill="none" stroke="#63b8ff" d="M78.51,-110.25C77.55,-92.92 75.41,-54.23 74.1,-30.49"/>
<polygon fill="#63b8ff" stroke="#63b8ff" points="77.54,-30.42 73.5,-20.63 70.56,-30.8 77.54,-30.42"/>
</g>
<!-- Node8 -->
<g id="node8" class="node">
<title>Node8</title>
<g id="a_node8"><a xlink:title=" ">
<polygon fill="#e0e0e0" stroke="#999999" points="177.5,-19.25 116.5,-19.25 116.5,0 177.5,0 177.5,-19.25"/>
<text text-anchor="middle" x="147" y="-5.75" font-family="Helvetica,sans-Serif" font-size="10.00">type_traits</text>
</a>
</g>
</g>
<!-- Node7&#45;&gt;Node8 -->
<g id="edge8" class="edge">
<title>Node7&#45;&gt;Node8</title>
<path fill="none" stroke="#63b8ff" d="M84.56,-110.25C95.67,-92.52 120.79,-52.44 135.56,-28.88"/>
<polygon fill="#63b8ff" stroke="#63b8ff" points="139.01,-30.96 141.36,-20.63 133.08,-27.24 139.01,-30.96"/>
</g>
<!-- Node9 -->
<g id="node9" class="node">
<title>Node9</title>
<g id="a_node9"><a xlink:href="v8-internal_8h.html" target="_top" xlink:title=" ">
<polygon fill="white" stroke="#666666" points="285.25,-74.5 216.75,-74.5 216.75,-55.25 285.25,-55.25 285.25,-74.5"/>
<text text-anchor="middle" x="251" y="-61" font-family="Helvetica,sans-Serif" font-size="10.00">v8&#45;internal.h</text>
</a>
</g>
</g>
<!-- Node7&#45;&gt;Node9 -->
<g id="edge9" class="edge">
<title>Node7&#45;&gt;Node9</title>
<path fill="none" stroke="#63b8ff" d="M108.18,-110.09C136.59,-101.29 179.99,-87.86 211.49,-78.11"/>
<polygon fill="#63b8ff" stroke="#63b8ff" points="212.16,-81.25 220.68,-74.95 210.09,-74.57 212.16,-81.25"/>
</g>
<!-- Node9&#45;&gt;Node2 -->
<g id="edge10" class="edge">
<title>Node9&#45;&gt;Node2</title>
<path fill="none" stroke="#63b8ff" d="M220.8,-54.84C189.97,-45.62 142.09,-31.29 109.23,-21.46"/>
<polygon fill="#63b8ff" stroke="#63b8ff" points="110.3,-17.83 99.71,-18.32 108.29,-24.54 110.3,-17.83"/>
</g>
<!-- Node9&#45;&gt;Node3 -->
<g id="edge11" class="edge">
<title>Node9&#45;&gt;Node3</title>
<path fill="none" stroke="#63b8ff" d="M285.53,-57.66C342.44,-47.43 455.26,-27.13 512.29,-16.87"/>
<polygon fill="#63b8ff" stroke="#63b8ff" points="512.69,-20.17 521.91,-14.96 511.45,-13.28 512.69,-20.17"/>
</g>
<!-- Node9&#45;&gt;Node8 -->
<g id="edge14" class="edge">
<title>Node9&#45;&gt;Node8</title>
<path fill="none" stroke="#63b8ff" d="M233.36,-54.84C217.22,-46.58 193.1,-34.23 174.44,-24.68"/>
<polygon fill="#63b8ff" stroke="#63b8ff" points="176.22,-21.14 165.73,-19.7 173.03,-27.38 176.22,-21.14"/>
</g>
<!-- Node10 -->
<g id="node10" class="node">
<title>Node10</title>
<g id="a_node10"><a xlink:title=" ">
<polygon fill="#e0e0e0" stroke="#999999" points="242.75,-19.25 195.25,-19.25 195.25,0 242.75,0 242.75,-19.25"/>
<text text-anchor="middle" x="219" y="-5.75" font-family="Helvetica,sans-Serif" font-size="10.00">string.h</text>
</a>
</g>
</g>
<!-- Node9&#45;&gt;Node10 -->
<g id="edge12" class="edge">
<title>Node9&#45;&gt;Node10</title>
<path fill="none" stroke="#63b8ff" d="M245.72,-55.08C241.43,-47.96 235.26,-37.68 229.92,-28.8"/>
<polygon fill="#63b8ff" stroke="#63b8ff" points="232.55,-27.38 224.4,-20.61 226.55,-30.98 232.55,-27.38"/>
</g>
<!-- Node11 -->
<g id="node11" class="node">
<title>Node11</title>
<g id="a_node11"><a xlink:title=" ">
<polygon fill="#e0e0e0" stroke="#999999" points="305.62,-19.25 260.38,-19.25 260.38,0 305.62,0 305.62,-19.25"/>
<text text-anchor="middle" x="283" y="-5.75" font-family="Helvetica,sans-Serif" font-size="10.00">atomic</text>
</a>
</g>
</g>
<!-- Node9&#45;&gt;Node11 -->
<g id="edge13" class="edge">
<title>Node9&#45;&gt;Node11</title>
<path fill="none" stroke="#63b8ff" d="M256.28,-55.08C260.57,-47.96 266.74,-37.68 272.08,-28.8"/>
<polygon fill="#63b8ff" stroke="#63b8ff" points="275.45,-30.98 277.6,-20.61 269.45,-27.38 275.45,-30.98"/>
</g>
<!-- Node12 -->
<g id="node12" class="node">
<title>Node12</title>
<g id="a_node12"><a xlink:href="v8-version_8h.html" target="_top" xlink:title=" ">
<polygon fill="white" stroke="#666666" points="392.25,-19.25 323.75,-19.25 323.75,0 392.25,0 392.25,-19.25"/>
<text text-anchor="middle" x="358" y="-5.75" font-family="Helvetica,sans-Serif" font-size="10.00">v8&#45;version.h</text>
</a>
</g>
</g>
<!-- Node9&#45;&gt;Node12 -->
<g id="edge15" class="edge">
<title>Node9&#45;&gt;Node12</title>
<path fill="none" stroke="#63b8ff" d="M269.15,-54.84C285.83,-46.54 310.8,-34.11 330.03,-24.54"/>
<polygon fill="#63b8ff" stroke="#63b8ff" points="331.37,-27.29 338.76,-19.7 328.25,-21.02 331.37,-27.29"/>
</g>
<!-- Node9&#45;&gt;Node13 -->
<g id="edge16" class="edge">
<title>Node9&#45;&gt;Node13</title>
<path fill="none" stroke="#63b8ff" d="M283.06,-54.84C315.23,-45.78 364.86,-31.8 399.68,-21.99"/>
<polygon fill="#63b8ff" stroke="#63b8ff" points="400.29,-25.17 408.97,-19.09 398.39,-18.43 400.29,-25.17"/>
</g>
<!-- Node14&#45;&gt;Node8 -->
<g id="edge20" class="edge">
<title>Node14&#45;&gt;Node8</title>
<path fill="none" stroke="#63b8ff" d="M345.72,-165.35C329.48,-156.7 304.67,-143.04 284,-129.75 248.87,-107.17 239.44,-101.99 208,-74.5 190.96,-59.6 173.28,-40.63 161.37,-27.26"/>
<polygon fill="#63b8ff" stroke="#63b8ff" points="163.67,-25.57 154.44,-20.37 158.41,-30.19 163.67,-25.57"/>
</g>
<!-- Node14&#45;&gt;Node9 -->
<g id="edge22" class="edge">
<title>Node14&#45;&gt;Node9</title>
<path fill="none" stroke="#63b8ff" d="M361.91,-165.47C359.86,-152.06 354.24,-126.54 340,-110.5 327.36,-96.26 309.13,-86.01 292.45,-78.96"/>
<polygon fill="#63b8ff" stroke="#63b8ff" points="293.91,-75.38 283.33,-74.97 291.35,-81.89 293.91,-75.38"/>
</g>
<!-- Node14&#45;&gt;Node13 -->
<g id="edge23" class="edge">
<title>Node14&#45;&gt;Node13</title>
<path fill="none" stroke="#63b8ff" d="M367.14,-165.57C379.26,-139.8 414.83,-64.15 431.37,-28.99"/>
<polygon fill="#63b8ff" stroke="#63b8ff" points="434.75,-31.01 435.84,-20.47 428.42,-28.03 434.75,-31.01"/>
</g>
<!-- Node15 -->
<g id="node15" class="node">
<title>Node15</title>
<g id="a_node15"><a xlink:title=" ">
<polygon fill="#e0e0e0" stroke="#999999" points="331.25,-129.75 292.75,-129.75 292.75,-110.5 331.25,-110.5 331.25,-129.75"/>
<text text-anchor="middle" x="312" y="-116.25" font-family="Helvetica,sans-Serif" font-size="10.00">utility</text>
</a>
</g>
</g>
<!-- Node14&#45;&gt;Node15 -->
<g id="edge21" class="edge">
<title>Node14&#45;&gt;Node15</title>
<path fill="none" stroke="#63b8ff" d="M354.58,-165.58C347.39,-158.07 336.84,-147.06 328.05,-137.88"/>
<polygon fill="#63b8ff" stroke="#63b8ff" points="331.05,-135.91 321.6,-131.11 325.99,-140.75 331.05,-135.91"/>
</g>
<!-- Node16&#45;&gt;Node7 -->
<g id="edge27" class="edge">
<title>Node16&#45;&gt;Node7</title>
<path fill="none" stroke="#63b8ff" d="M308.41,-338.38C268.57,-334.96 206.05,-324.9 161,-295.5 112.11,-263.6 108.75,-240.28 90,-185 85.13,-170.63 82.33,-153.66 80.78,-140.83"/>
<polygon fill="#63b8ff" stroke="#63b8ff" points="84.17,-140.6 79.65,-131.02 77.21,-141.33 84.17,-140.6"/>
</g>
<!-- Node16&#45;&gt;Node13 -->
<g id="edge40" class="edge">
<title>Node16&#45;&gt;Node13</title>
<path fill="none" stroke="#63b8ff" d="M368.1,-331.14C412.4,-310.7 511,-256.24 511,-176.38 511,-176.38 511,-176.38 511,-119.12 511,-81.33 480.47,-46.45 459.45,-26.91"/>
<polygon fill="#63b8ff" stroke="#63b8ff" points="462.2,-24.78 452.41,-20.74 457.54,-30.01 462.2,-24.78"/>
</g>
<!-- Node16&#45;&gt;Node14 -->
<g id="edge28" class="edge">
<title>Node16&#45;&gt;Node14</title>
<path fill="none" stroke="#63b8ff" d="M355.77,-331.12C363.32,-322.7 373.66,-309.36 378,-295.5 388.71,-261.31 378.28,-219.33 370.26,-195.44"/>
<polygon fill="#63b8ff" stroke="#63b8ff" points="373.29,-194.51 366.63,-186.27 366.7,-196.87 373.29,-194.51"/>
</g>
<!-- Node17 -->
<g id="node17" class="node">
<title>Node17</title>
<g id="a_node17"><a xlink:title=" ">
<polygon fill="#e0e0e0" stroke="#999999" points="306.25,-295.5 261.75,-295.5 261.75,-276.25 306.25,-276.25 306.25,-295.5"/>
<text text-anchor="middle" x="284" y="-282" font-family="Helvetica,sans-Serif" font-size="10.00">stdio.h</text>
</a>
</g>
</g>
<!-- Node16&#45;&gt;Node17 -->
<g id="edge25" class="edge">
<title>Node16&#45;&gt;Node17</title>
<path fill="none" stroke="#63b8ff" d="M336.31,-331.09C327.12,-323.32 313.64,-311.92 302.66,-302.65"/>
<polygon fill="#63b8ff" stroke="#63b8ff" points="305.43,-299.56 295.53,-295.77 300.91,-304.9 305.43,-299.56"/>
</g>
<!-- Node18 -->
<g id="node18" class="node">
<title>Node18</title>
<g id="a_node18"><a xlink:title=" ">
<polygon fill="#e0e0e0" stroke="#999999" points="369.25,-295.5 324.75,-295.5 324.75,-276.25 369.25,-276.25 369.25,-295.5"/>
<text text-anchor="middle" x="347" y="-282" font-family="Helvetica,sans-Serif" font-size="10.00">iosfwd</text>
</a>
</g>
</g>
<!-- Node16&#45;&gt;Node18 -->
<g id="edge26" class="edge">
<title>Node16&#45;&gt;Node18</title>
<path fill="none" stroke="#63b8ff" d="M347,-331.33C347,-324.67 347,-315.24 347,-306.78"/>
<polygon fill="#63b8ff" stroke="#63b8ff" points="350.5,-306.86 347,-296.86 343.5,-306.86 350.5,-306.86"/>
</g>
<!-- Node19 -->
<g id="node19" class="node">
<title>Node19</title>
<g id="a_node19"><a xlink:href="v8-primitive_8h.html" target="_top" xlink:title=" ">
<polygon fill="white" stroke="#666666" points="243.88,-295.5 170.12,-295.5 170.12,-276.25 243.88,-276.25 243.88,-295.5"/>
<text text-anchor="middle" x="207" y="-282" font-family="Helvetica,sans-Serif" font-size="10.00">v8&#45;primitive.h</text>
</a>
</g>
</g>
<!-- Node16&#45;&gt;Node19 -->
<g id="edge29" class="edge">
<title>Node16&#45;&gt;Node19</title>
<path fill="none" stroke="#63b8ff" d="M323.25,-331.09C300.62,-322.49 266.33,-309.44 240.84,-299.75"/>
<polygon fill="#63b8ff" stroke="#63b8ff" points="242.46,-296.24 231.87,-295.95 239.97,-302.78 242.46,-296.24"/>
</g>
<!-- Node19&#45;&gt;Node6 -->
<g id="edge30" class="edge">
<title>Node19&#45;&gt;Node6</title>
<path fill="none" stroke="#63b8ff" d="M207.08,-276C207.24,-258.67 207.6,-219.98 207.82,-196.24"/>
<polygon fill="#63b8ff" stroke="#63b8ff" points="211.32,-196.41 207.92,-186.38 204.32,-196.34 211.32,-196.41"/>
</g>
<!-- Node19&#45;&gt;Node7 -->
<g id="edge32" class="edge">
<title>Node19&#45;&gt;Node7</title>
<path fill="none" stroke="#63b8ff" d="M187.41,-275.85C172.36,-268.12 151.86,-255.79 138,-240.25 111.21,-210.21 93.54,-165.82 85,-140.57"/>
<polygon fill="#63b8ff" stroke="#63b8ff" points="88.03,-139.58 81.63,-131.15 81.37,-141.74 88.03,-139.58"/>
</g>
<!-- Node19&#45;&gt;Node9 -->
<g id="edge31" class="edge">
<title>Node19&#45;&gt;Node9</title>
<path fill="none" stroke="#63b8ff" d="M200.32,-275.82C186.41,-255.8 156.76,-206.32 171,-165.75 183.05,-131.42 212.42,-100.14 232.02,-82.06"/>
<polygon fill="#63b8ff" stroke="#63b8ff" points="233.87,-85.21 238.99,-75.93 229.21,-79.99 233.87,-85.21"/>
</g>
<!-- Node19&#45;&gt;Node13 -->
<g id="edge39" class="edge">
<title>Node19&#45;&gt;Node13</title>
<path fill="none" stroke="#63b8ff" d="M244.07,-278.06C292.74,-267.13 377.46,-240.96 424,-185 461.92,-139.42 464.57,-113.76 455,-55.25 453.6,-46.69 450.78,-37.55 447.96,-29.79"/>
<polygon fill="#63b8ff" stroke="#63b8ff" points="450.89,-28.68 444,-20.63 444.37,-31.22 450.89,-28.68"/>
</g>
<!-- Node20 -->
<g id="node20" class="node">
<title>Node20</title>
<g id="a_node20"><a xlink:href="v8-value_8h.html" target="_top" xlink:title=" ">
<polygon fill="white" stroke="#666666" points="333.12,-240.25 272.88,-240.25 272.88,-221 333.12,-221 333.12,-240.25"/>
<text text-anchor="middle" x="303" y="-226.75" font-family="Helvetica,sans-Serif" font-size="10.00">v8&#45;value.h</text>
</a>
</g>
</g>
<!-- Node19&#45;&gt;Node20 -->
<g id="edge33" class="edge">
<title>Node19&#45;&gt;Node20</title>
<path fill="none" stroke="#63b8ff" d="M223.29,-275.84C238.04,-267.66 260.04,-255.46 277.19,-245.94"/>
<polygon fill="#63b8ff" stroke="#63b8ff" points="278.59,-248.61 285.64,-240.7 275.19,-242.49 278.59,-248.61"/>
</g>
<!-- Node20&#45;&gt;Node6 -->
<g id="edge34" class="edge">
<title>Node20&#45;&gt;Node6</title>
<path fill="none" stroke="#63b8ff" d="M286.88,-220.59C272.28,-212.41 250.51,-200.21 233.54,-190.69"/>
<polygon fill="#63b8ff" stroke="#63b8ff" points="235.63,-187.29 225.19,-185.45 232.21,-193.4 235.63,-187.29"/>
</g>
<!-- Node20&#45;&gt;Node7 -->
<g id="edge36" class="edge">
<title>Node20&#45;&gt;Node7</title>
<path fill="none" stroke="#63b8ff" d="M297.4,-220.72C288.2,-206.83 268.52,-180.11 245,-165.75 211.33,-145.19 168.17,-133.97 134.3,-127.92"/>
<polygon fill="#63b8ff" stroke="#63b8ff" points="135.09,-124.33 124.65,-126.13 133.93,-131.24 135.09,-124.33"/>
</g>
<!-- Node20&#45;&gt;Node9 -->
<g id="edge35" class="edge">
<title>Node20&#45;&gt;Node9</title>
<path fill="none" stroke="#63b8ff" d="M300.2,-220.82C292.09,-195.28 268.41,-120.7 257.12,-85.15"/>
<polygon fill="#63b8ff" stroke="#63b8ff" points="260.17,-84.19 253.81,-75.72 253.5,-86.31 260.17,-84.19"/>
</g>
<!-- Node20&#45;&gt;Node13 -->
<g id="edge38" class="edge">
<title>Node20&#45;&gt;Node13</title>
<path fill="none" stroke="#63b8ff" d="M333.51,-224.16C356.61,-218.4 387.29,-206.97 405,-185 441.91,-139.19 443.27,-64.98 441.55,-30.01"/>
<polygon fill="#63b8ff" stroke="#63b8ff" points="445,-30.15 440.86,-20.4 438.01,-30.6 445,-30.15"/>
</g>
<!-- Node20&#45;&gt;Node14 -->
<g id="edge37" class="edge">
<title>Node20&#45;&gt;Node14</title>
<path fill="none" stroke="#63b8ff" d="M313.18,-220.59C321.85,-212.9 334.52,-201.65 344.92,-192.43"/>
<polygon fill="#63b8ff" stroke="#63b8ff" points="346.82,-195.53 351.97,-186.27 342.17,-190.29 346.82,-195.53"/>
</g>
</g>
</svg>
