<?xml version="1.0" encoding="UTF-8" standalone="no"?>
<!DOCTYPE svg PUBLIC "-//W3C//DTD SVG 1.1//EN"
 "http://www.w3.org/Graphics/SVG/1.1/DTD/svg11.dtd">
<!-- Generated by graphviz version 8.0.5 (20230430.1635)
 -->
<!-- Title: v8::MaybeLocal::IsEmpty Pages: 1 -->
<svg width="499pt" height="142pt"
 viewBox="0.00 0.00 499.25 142.25" xmlns="http://www.w3.org/2000/svg" xmlns:xlink="http://www.w3.org/1999/xlink">
<g id="graph0" class="graph" transform="scale(1 1) rotate(0) translate(4 138.25)">
<title>v8::MaybeLocal::IsEmpty</title>
<!-- Node1 -->
<g id="node1" class="node">
<title>Node1</title>
<g id="a_node1"><a xlink:title=" ">
<polygon fill="#999999" stroke="#666666" points="491.25,-74.25 368,-74.25 368,-55 491.25,-55 491.25,-74.25"/>
<text text-anchor="middle" x="429.62" y="-60.75" font-family="Helvetica,sans-Serif" font-size="10.00">v8::MaybeLocal::IsEmpty</text>
</a>
</g>
</g>
<!-- Node2 -->
<g id="node2" class="node">
<title>Node2</title>
<g id="a_node2"><a xlink:href="classv8_1_1MaybeLocal.html#a65a04464148b88c629e5bcfa31423200" target="_top" xlink:title=" ">
<polygon fill="white" stroke="#666666" points="305.38,-133.25 197.12,-133.25 197.12,-114 305.38,-114 305.38,-133.25"/>
<text text-anchor="middle" x="251.25" y="-119.75" font-family="Helvetica,sans-Serif" font-size="10.00">v8::MaybeLocal::Cast</text>
</a>
</g>
</g>
<!-- Node1&#45;&gt;Node2 -->
<g id="edge1" class="edge">
<title>Node1&#45;&gt;Node2</title>
<path fill="none" stroke="#63b8ff" d="M395.5,-78.77C377.01,-86.38 353.44,-95.61 332,-102.62 319.89,-106.59 306.56,-110.33 294.32,-113.53"/>
<polygon fill="#63b8ff" stroke="#63b8ff" points="396.59,-81.69 404.47,-74.62 393.9,-75.23 396.59,-81.69"/>
</g>
<!-- Node4 -->
<g id="node4" class="node">
<title>Node4</title>
<g id="a_node4"><a xlink:href="classv8_1_1MaybeLocal.html#aab9a2cc1350eeba310b592dcb3008b71" target="_top" xlink:title=" ">
<polygon fill="white" stroke="#666666" points="320.75,-93.25 181.75,-93.25 181.75,-74 320.75,-74 320.75,-93.25"/>
<text text-anchor="middle" x="251.25" y="-79.75" font-family="Helvetica,sans-Serif" font-size="10.00">v8::MaybeLocal::FromMaybe</text>
</a>
</g>
</g>
<!-- Node1&#45;&gt;Node4 -->
<g id="edge3" class="edge">
<title>Node1&#45;&gt;Node4</title>
<path fill="none" stroke="#63b8ff" d="M357.18,-72.32C345.32,-73.6 333.04,-74.92 321.24,-76.19"/>
<polygon fill="#63b8ff" stroke="#63b8ff" points="357.36,-75.71 366.93,-71.16 356.61,-68.75 357.36,-75.71"/>
</g>
<!-- Node6 -->
<g id="node6" class="node">
<title>Node6</title>
<g id="a_node6"><a xlink:href="classv8_1_1MaybeLocal.html#a07067e4e94ba92580d52ca6ff21739d6" target="_top" xlink:title=" ">
<polygon fill="white" stroke="#666666" points="312.88,-56.25 189.62,-56.25 189.62,-37 312.88,-37 312.88,-56.25"/>
<text text-anchor="middle" x="251.25" y="-42.75" font-family="Helvetica,sans-Serif" font-size="10.00">v8::MaybeLocal::ToLocal</text>
</a>
</g>
</g>
<!-- Node1&#45;&gt;Node6 -->
<g id="edge5" class="edge">
<title>Node1&#45;&gt;Node6</title>
<path fill="none" stroke="#63b8ff" d="M357,-57.32C342.53,-55.84 327.43,-54.3 313.36,-52.86"/>
<polygon fill="#63b8ff" stroke="#63b8ff" points="356.62,-60.9 366.93,-58.43 357.33,-53.93 356.62,-60.9"/>
</g>
<!-- Node7 -->
<g id="node7" class="node">
<title>Node7</title>
<g id="a_node7"><a xlink:href="classv8_1_1MaybeLocal.html#a9b2c9d50fca5897e3a03fd4c25d12415" target="_top" xlink:title=" ">
<polygon fill="white" stroke="#666666" points="332,-19.25 170.5,-19.25 170.5,0 332,0 332,-19.25"/>
<text text-anchor="middle" x="251.25" y="-5.75" font-family="Helvetica,sans-Serif" font-size="10.00">v8::MaybeLocal::ToLocalChecked</text>
</a>
</g>
</g>
<!-- Node1&#45;&gt;Node7 -->
<g id="edge6" class="edge">
<title>Node1&#45;&gt;Node7</title>
<path fill="none" stroke="#63b8ff" d="M395.19,-50.46C376.77,-43 353.37,-34.09 332,-27.62 322.35,-24.71 311.92,-22.02 301.89,-19.67"/>
<polygon fill="#63b8ff" stroke="#63b8ff" points="393.55,-53.98 404.13,-54.54 396.21,-47.5 393.55,-53.98"/>
</g>
<!-- Node3 -->
<g id="node3" class="node">
<title>Node3</title>
<g id="a_node3"><a xlink:href="classv8_1_1MaybeLocal.html#a9869255984427b843a0cb1b8417e1450" target="_top" xlink:title=" ">
<polygon fill="white" stroke="#666666" points="117.25,-134.25 17.25,-134.25 17.25,-115 117.25,-115 117.25,-134.25"/>
<text text-anchor="middle" x="67.25" y="-120.75" font-family="Helvetica,sans-Serif" font-size="10.00">v8::MaybeLocal::As</text>
</a>
</g>
</g>
<!-- Node2&#45;&gt;Node3 -->
<g id="edge2" class="edge">
<title>Node2&#45;&gt;Node3</title>
<path fill="none" stroke="#63b8ff" d="M185.81,-123.98C163.33,-124.1 138.49,-124.24 117.45,-124.35"/>
<polygon fill="#63b8ff" stroke="#63b8ff" points="185.65,-127.47 195.63,-123.92 185.61,-120.47 185.65,-127.47"/>
</g>
<!-- Node5 -->
<g id="node5" class="node">
<title>Node5</title>
<g id="a_node5"><a xlink:href="classv8_1_1EscapableHandleScope.html#ab6d69d1d88bb6392533ab93a58f51b67" target="_top" xlink:title=" ">
<polygon fill="white" stroke="#666666" points="134.5,-96.88 0,-96.88 0,-66.38 134.5,-66.38 134.5,-96.88"/>
<text text-anchor="start" x="8" y="-83.38" font-family="Helvetica,sans-Serif" font-size="10.00">v8::EscapableHandleScope</text>
<text text-anchor="middle" x="67.25" y="-72.12" font-family="Helvetica,sans-Serif" font-size="10.00">::EscapeMaybe</text>
</a>
</g>
</g>
<!-- Node4&#45;&gt;Node5 -->
<g id="edge4" class="edge">
<title>Node4&#45;&gt;Node5</title>
<path fill="none" stroke="#63b8ff" d="M170.56,-82.75C158.61,-82.62 146.39,-82.48 134.74,-82.36"/>
<polygon fill="#63b8ff" stroke="#63b8ff" points="170.41,-86.26 180.44,-82.87 170.48,-79.26 170.41,-86.26"/>
</g>
</g>
</svg>
