<?xml version="1.0" encoding="UTF-8" standalone="no"?>
<!DOCTYPE svg PUBLIC "-//W3C//DTD SVG 1.1//EN"
 "http://www.w3.org/Graphics/SVG/1.1/DTD/svg11.dtd">
<!-- Generated by graphviz version 8.0.5 (20230430.1635)
 -->
<!-- Title: include/cppgc/platform.h Pages: 1 -->
<svg width="473pt" height="248pt"
 viewBox="0.00 0.00 472.77 248.25" xmlns="http://www.w3.org/2000/svg" xmlns:xlink="http://www.w3.org/1999/xlink">
<g id="graph0" class="graph" transform="scale(1 1) rotate(0) translate(4 244.25)">
<title>include/cppgc/platform.h</title>
<!-- Node1 -->
<g id="node1" class="node">
<title>Node1</title>
<g id="a_node1"><a xlink:title=" ">
<polygon fill="#999999" stroke="#666666" points="122.65,-240.25 0.9,-240.25 0.9,-221 122.65,-221 122.65,-240.25"/>
<text text-anchor="middle" x="61.78" y="-226.75" font-family="Helvetica,sans-Serif" font-size="10.00">include/cppgc/platform.h</text>
</a>
</g>
</g>
<!-- Node2 -->
<g id="node2" class="node">
<title>Node2</title>
<g id="a_node2"><a xlink:title=" ">
<polygon fill="#e0e0e0" stroke="#999999" points="66.03,-19.25 15.53,-19.25 15.53,0 66.03,0 66.03,-19.25"/>
<text text-anchor="middle" x="40.78" y="-5.75" font-family="Helvetica,sans-Serif" font-size="10.00">memory</text>
</a>
</g>
</g>
<!-- Node1&#45;&gt;Node2 -->
<g id="edge1" class="edge">
<title>Node1&#45;&gt;Node2</title>
<path fill="none" stroke="#63b8ff" d="M54.1,-220.63C47.1,-212.01 36.94,-198.36 30.78,-185 9.52,-138.89 8.28,-124.86 1.78,-74.5 0.68,-66.01 -1.23,-63.26 1.78,-55.25 5.81,-44.5 13.74,-34.64 21.41,-26.94"/>
<polygon fill="#63b8ff" stroke="#63b8ff" points="23.48,-29.86 28.42,-20.49 18.71,-24.73 23.48,-29.86"/>
</g>
<!-- Node3 -->
<g id="node3" class="node">
<title>Node3</title>
<g id="a_node3"><a xlink:href="source-location_8h.html" target="_top" xlink:title=" ">
<polygon fill="white" stroke="#666666" points="165.15,-185 46.4,-185 46.4,-165.75 165.15,-165.75 165.15,-185"/>
<text text-anchor="middle" x="105.78" y="-171.5" font-family="Helvetica,sans-Serif" font-size="10.00">cppgc/source&#45;location.h</text>
</a>
</g>
</g>
<!-- Node1&#45;&gt;Node3 -->
<g id="edge2" class="edge">
<title>Node1&#45;&gt;Node3</title>
<path fill="none" stroke="#63b8ff" d="M69.04,-220.83C75.12,-213.48 83.98,-202.76 91.47,-193.69"/>
<polygon fill="#63b8ff" stroke="#63b8ff" points="94.68,-196.3 98.35,-186.36 89.29,-191.84 94.68,-196.3"/>
</g>
<!-- Node7 -->
<g id="node7" class="node">
<title>Node7</title>
<g id="a_node7"><a xlink:href="v8config_8h.html" target="_top" xlink:title=" ">
<polygon fill="white" stroke="#666666" points="70.53,-74.5 11.03,-74.5 11.03,-55.25 70.53,-55.25 70.53,-74.5"/>
<text text-anchor="middle" x="40.78" y="-61" font-family="Helvetica,sans-Serif" font-size="10.00">v8config.h</text>
</a>
</g>
</g>
<!-- Node1&#45;&gt;Node7 -->
<g id="edge17" class="edge">
<title>Node1&#45;&gt;Node7</title>
<path fill="none" stroke="#63b8ff" d="M55.19,-220.61C49.31,-211.97 41.13,-198.31 37.78,-185 29.17,-150.83 33.34,-109.4 37.1,-85.5"/>
<polygon fill="#63b8ff" stroke="#63b8ff" points="40.71,-86.17 38.96,-75.72 33.81,-84.98 40.71,-86.17"/>
</g>
<!-- Node8 -->
<g id="node8" class="node">
<title>Node8</title>
<g id="a_node8"><a xlink:href="v8-platform_8h.html" target="_top" xlink:title=" ">
<polygon fill="white" stroke="#666666" points="314.9,-185 242.65,-185 242.65,-165.75 314.9,-165.75 314.9,-185"/>
<text text-anchor="middle" x="278.78" y="-171.5" font-family="Helvetica,sans-Serif" font-size="10.00">v8&#45;platform.h</text>
</a>
</g>
</g>
<!-- Node1&#45;&gt;Node8 -->
<g id="edge8" class="edge">
<title>Node1&#45;&gt;Node8</title>
<path fill="none" stroke="#63b8ff" d="M98.59,-220.59C135.36,-211.57 192.02,-197.66 231.97,-187.86"/>
<polygon fill="#63b8ff" stroke="#63b8ff" points="232.63,-191.06 241.51,-185.27 230.96,-184.26 232.63,-191.06"/>
</g>
<!-- Node4 -->
<g id="node4" class="node">
<title>Node4</title>
<g id="a_node4"><a xlink:href="v8-source-location_8h.html" target="_top" xlink:title=" ">
<polygon fill="white" stroke="#666666" points="172.28,-129.75 69.28,-129.75 69.28,-110.5 172.28,-110.5 172.28,-129.75"/>
<text text-anchor="middle" x="120.78" y="-116.25" font-family="Helvetica,sans-Serif" font-size="10.00">v8&#45;source&#45;location.h</text>
</a>
</g>
</g>
<!-- Node3&#45;&gt;Node4 -->
<g id="edge3" class="edge">
<title>Node3&#45;&gt;Node4</title>
<path fill="none" stroke="#63b8ff" d="M108.25,-165.58C110.17,-158.76 112.91,-149.06 115.33,-140.45"/>
<polygon fill="#63b8ff" stroke="#63b8ff" points="118.9,-141.68 118.25,-131.11 112.17,-139.79 118.9,-141.68"/>
</g>
<!-- Node5 -->
<g id="node5" class="node">
<title>Node5</title>
<g id="a_node5"><a xlink:title=" ">
<polygon fill="#e0e0e0" stroke="#999999" points="144.9,-74.5 96.65,-74.5 96.65,-55.25 144.9,-55.25 144.9,-74.5"/>
<text text-anchor="middle" x="120.78" y="-61" font-family="Helvetica,sans-Serif" font-size="10.00">cstddef</text>
</a>
</g>
</g>
<!-- Node4&#45;&gt;Node5 -->
<g id="edge4" class="edge">
<title>Node4&#45;&gt;Node5</title>
<path fill="none" stroke="#63b8ff" d="M120.78,-110.33C120.78,-103.67 120.78,-94.24 120.78,-85.78"/>
<polygon fill="#63b8ff" stroke="#63b8ff" points="124.28,-85.86 120.78,-75.86 117.28,-85.86 124.28,-85.86"/>
</g>
<!-- Node6 -->
<g id="node6" class="node">
<title>Node6</title>
<g id="a_node6"><a xlink:title=" ">
<polygon fill="#e0e0e0" stroke="#999999" points="337.78,-74.5 297.78,-74.5 297.78,-55.25 337.78,-55.25 337.78,-74.5"/>
<text text-anchor="middle" x="317.78" y="-61" font-family="Helvetica,sans-Serif" font-size="10.00">string</text>
</a>
</g>
</g>
<!-- Node4&#45;&gt;Node6 -->
<g id="edge5" class="edge">
<title>Node4&#45;&gt;Node6</title>
<path fill="none" stroke="#63b8ff" d="M154.2,-110.09C191.4,-100.03 251.03,-83.92 287.1,-74.17"/>
<polygon fill="#63b8ff" stroke="#63b8ff" points="287.74,-77.35 296.48,-71.36 285.91,-70.59 287.74,-77.35"/>
</g>
<!-- Node4&#45;&gt;Node7 -->
<g id="edge6" class="edge">
<title>Node4&#45;&gt;Node7</title>
<path fill="none" stroke="#63b8ff" d="M107.21,-110.09C95.25,-102.14 77.6,-90.39 63.5,-81"/>
<polygon fill="#63b8ff" stroke="#63b8ff" points="65.68,-77.58 55.41,-74.95 61.8,-83.41 65.68,-77.58"/>
</g>
<!-- Node7&#45;&gt;Node2 -->
<g id="edge7" class="edge">
<title>Node7&#45;&gt;Node2</title>
<path fill="none" stroke="#63b8ff" d="M40.78,-55.08C40.78,-48.42 40.78,-38.99 40.78,-30.53"/>
<polygon fill="#63b8ff" stroke="#63b8ff" points="44.28,-30.61 40.78,-20.61 37.28,-30.61 44.28,-30.61"/>
</g>
<!-- Node8&#45;&gt;Node2 -->
<g id="edge13" class="edge">
<title>Node8&#45;&gt;Node2</title>
<path fill="none" stroke="#63b8ff" d="M315.13,-174.5C376.78,-173.27 492.04,-164 458.78,-110.5 418.12,-45.11 171.33,-20.24 77.2,-13.06"/>
<polygon fill="#63b8ff" stroke="#63b8ff" points="77.48,-9.49 67.25,-12.25 76.96,-16.47 77.48,-9.49"/>
</g>
<!-- Node8&#45;&gt;Node4 -->
<g id="edge15" class="edge">
<title>Node8&#45;&gt;Node4</title>
<path fill="none" stroke="#63b8ff" d="M251.97,-165.34C226.1,-156.62 186.7,-143.34 157.83,-133.61"/>
<polygon fill="#63b8ff" stroke="#63b8ff" points="159.31,-130.08 148.71,-130.2 157.07,-136.71 159.31,-130.08"/>
</g>
<!-- Node8&#45;&gt;Node6 -->
<g id="edge14" class="edge">
<title>Node8&#45;&gt;Node6</title>
<path fill="none" stroke="#63b8ff" d="M315.18,-169.63C358.63,-163.13 427.37,-149.91 442.78,-129.75 469.93,-94.23 393.97,-76.81 348.74,-69.8"/>
<polygon fill="#63b8ff" stroke="#63b8ff" points="349.39,-66.21 338.99,-68.23 348.38,-73.14 349.39,-66.21"/>
</g>
<!-- Node8&#45;&gt;Node7 -->
<g id="edge16" class="edge">
<title>Node8&#45;&gt;Node7</title>
<path fill="none" stroke="#63b8ff" d="M242.56,-171.38C187.68,-166.14 87.08,-153.51 60.78,-129.75 48.38,-118.55 43.6,-99.79 41.79,-85.49"/>
<polygon fill="#63b8ff" stroke="#63b8ff" points="45.21,-85.45 40.87,-75.79 38.24,-86.05 45.21,-85.45"/>
</g>
<!-- Node9 -->
<g id="node9" class="node">
<title>Node9</title>
<g id="a_node9"><a xlink:title=" ">
<polygon fill="#e0e0e0" stroke="#999999" points="365.4,-129.75 320.15,-129.75 320.15,-110.5 365.4,-110.5 365.4,-129.75"/>
<text text-anchor="middle" x="342.78" y="-116.25" font-family="Helvetica,sans-Serif" font-size="10.00">math.h</text>
</a>
</g>
</g>
<!-- Node8&#45;&gt;Node9 -->
<g id="edge9" class="edge">
<title>Node8&#45;&gt;Node9</title>
<path fill="none" stroke="#63b8ff" d="M289.63,-165.34C298.98,-157.57 312.67,-146.17 323.82,-136.9"/>
<polygon fill="#63b8ff" stroke="#63b8ff" points="325.63,-139.11 331.08,-130.02 321.16,-133.73 325.63,-139.11"/>
</g>
<!-- Node10 -->
<g id="node10" class="node">
<title>Node10</title>
<g id="a_node10"><a xlink:title=" ">
<polygon fill="#e0e0e0" stroke="#999999" points="434.03,-129.75 383.53,-129.75 383.53,-110.5 434.03,-110.5 434.03,-129.75"/>
<text text-anchor="middle" x="408.78" y="-116.25" font-family="Helvetica,sans-Serif" font-size="10.00">stddef.h</text>
</a>
</g>
</g>
<!-- Node8&#45;&gt;Node10 -->
<g id="edge10" class="edge">
<title>Node8&#45;&gt;Node10</title>
<path fill="none" stroke="#63b8ff" d="M300.83,-165.34C321.65,-156.81 353.12,-143.92 376.72,-134.26"/>
<polygon fill="#63b8ff" stroke="#63b8ff" points="377.69,-137.23 385.62,-130.2 375.04,-130.75 377.69,-137.23"/>
</g>
<!-- Node11 -->
<g id="node11" class="node">
<title>Node11</title>
<g id="a_node11"><a xlink:title=" ">
<polygon fill="#e0e0e0" stroke="#999999" points="237.53,-129.75 190.03,-129.75 190.03,-110.5 237.53,-110.5 237.53,-129.75"/>
<text text-anchor="middle" x="213.78" y="-116.25" font-family="Helvetica,sans-Serif" font-size="10.00">stdint.h</text>
</a>
</g>
</g>
<!-- Node8&#45;&gt;Node11 -->
<g id="edge11" class="edge">
<title>Node8&#45;&gt;Node11</title>
<path fill="none" stroke="#63b8ff" d="M267.75,-165.34C258.26,-157.57 244.35,-146.17 233.03,-136.9"/>
<polygon fill="#63b8ff" stroke="#63b8ff" points="235.59,-133.65 225.64,-130.02 231.16,-139.07 235.59,-133.65"/>
</g>
<!-- Node12 -->
<g id="node12" class="node">
<title>Node12</title>
<g id="a_node12"><a xlink:title=" ">
<polygon fill="#e0e0e0" stroke="#999999" points="302.15,-129.75 255.4,-129.75 255.4,-110.5 302.15,-110.5 302.15,-129.75"/>
<text text-anchor="middle" x="278.78" y="-116.25" font-family="Helvetica,sans-Serif" font-size="10.00">stdlib.h</text>
</a>
</g>
</g>
<!-- Node8&#45;&gt;Node12 -->
<g id="edge12" class="edge">
<title>Node8&#45;&gt;Node12</title>
<path fill="none" stroke="#63b8ff" d="M278.78,-165.58C278.78,-158.92 278.78,-149.49 278.78,-141.03"/>
<polygon fill="#63b8ff" stroke="#63b8ff" points="282.28,-141.11 278.78,-131.11 275.28,-141.11 282.28,-141.11"/>
</g>
</g>
</svg>
