<?xml version="1.0" encoding="UTF-8" standalone="no"?>
<!DOCTYPE svg PUBLIC "-//W3C//DTD SVG 1.1//EN"
 "http://www.w3.org/Graphics/SVG/1.1/DTD/svg11.dtd">
<!-- Generated by graphviz version 8.0.5 (20230430.1635)
 -->
<!-- Title: v8::AnyCType Pages: 1 -->
<svg width="1461pt" height="279pt"
 viewBox="0.00 0.00 1461.25 279.25" xmlns="http://www.w3.org/2000/svg" xmlns:xlink="http://www.w3.org/1999/xlink">
<g id="graph0" class="graph" transform="scale(1 1) rotate(0) translate(4 275.25)">
<title>v8::AnyCType</title>
<!-- Node1 -->
<g id="node1" class="node">
<title>Node1</title>
<g id="a_node1"><a xlink:title=" ">
<polygon fill="#999999" stroke="#666666" points="1453.25,-141.25 1378,-141.25 1378,-122 1453.25,-122 1453.25,-141.25"/>
<text text-anchor="middle" x="1415.62" y="-127.75" font-family="Helvetica,sans-Serif" font-size="10.00">v8::AnyCType</text>
</a>
</g>
</g>
<!-- Node2 -->
<g id="node2" class="node">
<title>Node2</title>
<g id="a_node2"><a xlink:href="classv8_1_1Local.html" target="_top" xlink:title=" ">
<polygon fill="white" stroke="#666666" points="1077,-226.25 962,-226.25 962,-207 1077,-207 1077,-226.25"/>
<text text-anchor="middle" x="1019.5" y="-212.75" font-family="Helvetica,sans-Serif" font-size="10.00">v8::Local&lt; v8::Object &gt;</text>
</a>
</g>
</g>
<!-- Node2&#45;&gt;Node1 -->
<g id="edge1" class="edge">
<title>Node2&#45;&gt;Node1</title>
<path fill="none" stroke="#9a32cd" stroke-dasharray="5,2" d="M1088,-208.71C1157.25,-199.57 1267.61,-182.15 1360,-154.62 1371.44,-151.22 1383.73,-146.17 1393.75,-141.68"/>
<polygon fill="#9a32cd" stroke="#9a32cd" points="1087.72,-205.35 1078.25,-210.11 1088.62,-212.29 1087.72,-205.35"/>
<text text-anchor="middle" x="1211.75" y="-202.38" font-family="Helvetica,sans-Serif" font-size="10.00"> object_value</text>
</g>
<!-- Node3 -->
<g id="node3" class="node">
<title>Node3</title>
<g id="a_node3"><a xlink:href="classv8_1_1LocalBase.html" target="_top" xlink:title=" ">
<polygon fill="white" stroke="#666666" points="745.75,-271.25 645.75,-271.25 645.75,-252 745.75,-252 745.75,-271.25"/>
<text text-anchor="middle" x="695.75" y="-257.75" font-family="Helvetica,sans-Serif" font-size="10.00">v8::LocalBase&lt; T &gt;</text>
</a>
</g>
</g>
<!-- Node3&#45;&gt;Node2 -->
<g id="edge2" class="edge">
<title>Node3&#45;&gt;Node2</title>
<path fill="none" stroke="#63b8ff" d="M756.86,-262.34C807.35,-261.79 881.13,-258.29 944,-244.62 962.36,-240.63 982.24,-232.98 996.84,-226.68"/>
<polygon fill="#63b8ff" stroke="#63b8ff" points="757.11,-258.85 747.13,-262.42 757.15,-265.85 757.11,-258.85"/>
</g>
<!-- Node4 -->
<g id="node4" class="node">
<title>Node4</title>
<g id="a_node4"><a xlink:href="classv8_1_1api__internal_1_1IndirectHandleBase.html" target="_top" xlink:title=" ">
<polygon fill="white" stroke="#666666" points="384.12,-118.88 266.88,-118.88 266.88,-88.38 384.12,-88.38 384.12,-118.88"/>
<text text-anchor="start" x="274.88" y="-105.38" font-family="Helvetica,sans-Serif" font-size="10.00">v8::api_internal::Indirect</text>
<text text-anchor="middle" x="325.5" y="-94.12" font-family="Helvetica,sans-Serif" font-size="10.00">HandleBase</text>
</a>
</g>
</g>
<!-- Node4&#45;&gt;Node3 -->
<g id="edge3" class="edge">
<title>Node4&#45;&gt;Node3</title>
<path fill="none" stroke="#63b8ff" d="M393.44,-123.12C396.15,-125.08 398.69,-127.24 401,-129.62 419.5,-148.69 401.06,-167.03 419,-186.62 477.13,-250.11 583.13,-261.99 645.41,-263.06"/>
<polygon fill="#63b8ff" stroke="#63b8ff" points="395.67,-119.76 385.32,-117.49 391.99,-125.72 395.67,-119.76"/>
</g>
<!-- Node9 -->
<g id="node9" class="node">
<title>Node9</title>
<g id="a_node9"><a xlink:href="classv8_1_1LocalBase.html" target="_top" xlink:title=" ">
<polygon fill="white" stroke="#666666" points="602.25,-150.25 502.25,-150.25 502.25,-131 602.25,-131 602.25,-150.25"/>
<text text-anchor="middle" x="552.25" y="-136.75" font-family="Helvetica,sans-Serif" font-size="10.00">v8::LocalBase&lt; T &gt;</text>
</a>
</g>
</g>
<!-- Node4&#45;&gt;Node9 -->
<g id="edge10" class="edge">
<title>Node4&#45;&gt;Node9</title>
<path fill="none" stroke="#63b8ff" d="M394.87,-114.88C429.41,-120.57 470.54,-127.34 501.95,-132.51"/>
<polygon fill="#63b8ff" stroke="#63b8ff" points="395.81,-111.32 385.38,-113.15 394.68,-118.23 395.81,-111.32"/>
</g>
<!-- Node11 -->
<g id="node11" class="node">
<title>Node11</title>
<g id="a_node11"><a xlink:href="classv8_1_1LocalBase.html" target="_top" xlink:title=" ">
<polygon fill="white" stroke="#666666" points="745.75,-110.25 645.75,-110.25 645.75,-91 745.75,-91 745.75,-110.25"/>
<text text-anchor="middle" x="695.75" y="-96.75" font-family="Helvetica,sans-Serif" font-size="10.00">v8::LocalBase&lt; T &gt;</text>
</a>
</g>
</g>
<!-- Node4&#45;&gt;Node11 -->
<g id="edge14" class="edge">
<title>Node4&#45;&gt;Node11</title>
<path fill="none" stroke="#63b8ff" d="M395.32,-103.06C468.07,-102.47 581.02,-101.55 645.39,-101.03"/>
<polygon fill="#63b8ff" stroke="#63b8ff" points="395.42,-99.57 385.44,-103.15 395.47,-106.57 395.42,-99.57"/>
</g>
<!-- Node16 -->
<g id="node16" class="node">
<title>Node16</title>
<g id="a_node16"><a xlink:href="classv8_1_1LocalBase.html" target="_top" xlink:title=" ">
<polygon fill="white" stroke="#666666" points="863.75,-19.25 763.75,-19.25 763.75,0 863.75,0 863.75,-19.25"/>
<text text-anchor="middle" x="813.75" y="-5.75" font-family="Helvetica,sans-Serif" font-size="10.00">v8::LocalBase&lt; T &gt;</text>
</a>
</g>
</g>
<!-- Node4&#45;&gt;Node16 -->
<g id="edge22" class="edge">
<title>Node4&#45;&gt;Node16</title>
<path fill="none" stroke="#63b8ff" d="M394.93,-87.1C459.38,-71.9 558.75,-49.39 645.75,-33.62 685.09,-26.49 729.96,-20.15 763.27,-15.77"/>
<polygon fill="#63b8ff" stroke="#63b8ff" points="394.42,-83.86 385.5,-89.57 396.04,-90.67 394.42,-83.86"/>
</g>
<!-- Node5 -->
<g id="node5" class="node">
<title>Node5</title>
<g id="a_node5"><a xlink:href="classv8_1_1api__internal_1_1StackAllocated.html" target="_top" xlink:title=" ">
<polygon fill="white" stroke="#666666" points="627.75,-201.88 476.75,-201.88 476.75,-171.38 627.75,-171.38 627.75,-201.88"/>
<text text-anchor="start" x="484.75" y="-188.38" font-family="Helvetica,sans-Serif" font-size="10.00">v8::api_internal::StackAllocated</text>
<text text-anchor="middle" x="552.25" y="-177.12" font-family="Helvetica,sans-Serif" font-size="10.00">&lt; false &gt;</text>
</a>
</g>
</g>
<!-- Node5&#45;&gt;Node2 -->
<g id="edge4" class="edge">
<title>Node5&#45;&gt;Node2</title>
<path fill="none" stroke="#63b8ff" d="M638.95,-196.1C705.16,-202.96 799.14,-211.68 881.75,-215.62 907.96,-216.88 937.02,-217.23 961.59,-217.23"/>
<polygon fill="#63b8ff" stroke="#63b8ff" points="639.46,-192.53 629.15,-194.97 638.73,-199.49 639.46,-192.53"/>
</g>
<!-- Node8 -->
<g id="node8" class="node">
<title>Node8</title>
<g id="a_node8"><a xlink:href="classv8_1_1Local.html" target="_top" xlink:title=" ">
<polygon fill="white" stroke="#666666" points="852.5,-185.25 775,-185.25 775,-166 852.5,-166 852.5,-185.25"/>
<text text-anchor="middle" x="813.75" y="-171.75" font-family="Helvetica,sans-Serif" font-size="10.00">v8::Local&lt; T &gt;</text>
</a>
</g>
</g>
<!-- Node5&#45;&gt;Node8 -->
<g id="edge11" class="edge">
<title>Node5&#45;&gt;Node8</title>
<path fill="none" stroke="#63b8ff" d="M638.85,-183C684.87,-181.05 739.3,-178.74 774.85,-177.23"/>
<polygon fill="#63b8ff" stroke="#63b8ff" points="638.8,-179.54 628.96,-183.46 639.1,-186.53 638.8,-179.54"/>
</g>
<!-- Node10 -->
<g id="node10" class="node">
<title>Node10</title>
<g id="a_node10"><a xlink:href="classv8_1_1Local.html" target="_top" xlink:title=" ">
<polygon fill="white" stroke="#666666" points="1074,-155.25 965,-155.25 965,-136 1074,-136 1074,-155.25"/>
<text text-anchor="middle" x="1019.5" y="-141.75" font-family="Helvetica,sans-Serif" font-size="10.00">v8::Local&lt; v8::Array &gt;</text>
</a>
</g>
</g>
<!-- Node5&#45;&gt;Node10 -->
<g id="edge15" class="edge">
<title>Node5&#45;&gt;Node10</title>
<path fill="none" stroke="#63b8ff" d="M638.62,-172.51C676.8,-166.7 722.42,-160.45 763.75,-156.62 832.96,-150.22 913.09,-147.53 964.72,-146.41"/>
<polygon fill="#63b8ff" stroke="#63b8ff" points="638.41,-169.16 629.05,-174.14 639.47,-176.08 638.41,-169.16"/>
</g>
<!-- Node15 -->
<g id="node15" class="node">
<title>Node15</title>
<g id="a_node15"><a xlink:href="classv8_1_1Local.html" target="_top" xlink:title=" ">
<polygon fill="white" stroke="#666666" points="1075.12,-57.25 963.88,-57.25 963.88,-38 1075.12,-38 1075.12,-57.25"/>
<text text-anchor="middle" x="1019.5" y="-43.75" font-family="Helvetica,sans-Serif" font-size="10.00">v8::Local&lt; v8::Value &gt;</text>
</a>
</g>
</g>
<!-- Node5&#45;&gt;Node15 -->
<g id="edge23" class="edge">
<title>Node5&#45;&gt;Node15</title>
<path fill="none" stroke="#63b8ff" d="M622.48,-164.78C624.35,-163.18 626.12,-161.47 627.75,-159.62 651.34,-132.99 618.94,-105.02 645.75,-81.62 691.84,-41.41 871.7,-41.95 963.68,-45.06"/>
<polygon fill="#63b8ff" stroke="#63b8ff" points="620.76,-162.42 614.65,-171.07 624.82,-168.12 620.76,-162.42"/>
</g>
<!-- Node6 -->
<g id="node6" class="node">
<title>Node6</title>
<g id="a_node6"><a xlink:href="structv8_1_1api__internal_1_1StackAllocated_1_1no__checking__tag.html" target="_top" xlink:title=" ">
<polygon fill="white" stroke="#666666" points="151,-200.5 0,-200.5 0,-158.75 151,-158.75 151,-200.5"/>
<text text-anchor="start" x="8" y="-187" font-family="Helvetica,sans-Serif" font-size="10.00">v8::api_internal::StackAllocated</text>
<text text-anchor="start" x="8" y="-175.75" font-family="Helvetica,sans-Serif" font-size="10.00">&lt; check_statically_enabled</text>
<text text-anchor="middle" x="75.5" y="-164.5" font-family="Helvetica,sans-Serif" font-size="10.00"> &gt;::no_checking_tag</text>
</a>
</g>
</g>
<!-- Node6&#45;&gt;Node5 -->
<g id="edge5" class="edge">
<title>Node6&#45;&gt;Node5</title>
<path fill="none" stroke="#9a32cd" stroke-dasharray="5,2" d="M162.23,-184.4C164.51,-184.48 166.77,-184.56 169,-184.62 275.79,-187.94 399.45,-187.87 476.52,-187.37"/>
<polygon fill="#9a32cd" stroke="#9a32cd" points="162.59,-180.87 152.46,-183.97 162.31,-187.86 162.59,-180.87"/>
<text text-anchor="middle" x="325.5" y="-189.38" font-family="Helvetica,sans-Serif" font-size="10.00"> do_not_check</text>
</g>
<!-- Node7 -->
<g id="node7" class="node">
<title>Node7</title>
<g id="a_node7"><a xlink:href="classv8_1_1api__internal_1_1StackAllocated.html" target="_top" xlink:title=" ">
<polygon fill="white" stroke="#666666" points="401,-168.88 250,-168.88 250,-138.38 401,-138.38 401,-168.88"/>
<text text-anchor="start" x="258" y="-155.38" font-family="Helvetica,sans-Serif" font-size="10.00">v8::api_internal::StackAllocated</text>
<text text-anchor="middle" x="325.5" y="-144.12" font-family="Helvetica,sans-Serif" font-size="10.00">&lt; check_statically_enabled &gt;</text>
</a>
</g>
</g>
<!-- Node6&#45;&gt;Node7 -->
<g id="edge7" class="edge">
<title>Node6&#45;&gt;Node7</title>
<path fill="none" stroke="#9a32cd" stroke-dasharray="5,2" d="M162.04,-170.66C190.62,-167.66 222.23,-164.35 249.91,-161.45"/>
<polygon fill="#9a32cd" stroke="#9a32cd" points="161.83,-167.27 152.24,-171.79 162.55,-174.23 161.83,-167.27"/>
<text text-anchor="middle" x="200.5" y="-171.38" font-family="Helvetica,sans-Serif" font-size="10.00"> do_not_check</text>
</g>
<!-- Node7&#45;&gt;Node5 -->
<g id="edge6" class="edge">
<title>Node7&#45;&gt;Node5</title>
<path fill="none" stroke="orange" stroke-dasharray="5,2" d="M411.95,-166.17C433.15,-169.28 455.71,-172.6 476.36,-175.63"/>
<polygon fill="orange" stroke="orange" points="412.74,-162.6 402.34,-164.61 411.72,-169.53 412.74,-162.6"/>
<text text-anchor="middle" x="438.88" y="-173.38" font-family="Helvetica,sans-Serif" font-size="10.00"> &lt; false &gt;</text>
</g>
<!-- Node8&#45;&gt;Node2 -->
<g id="edge8" class="edge">
<title>Node8&#45;&gt;Node2</title>
<path fill="none" stroke="orange" stroke-dasharray="5,2" d="M862.98,-185.33C894.8,-191.73 936.39,-200.1 968.55,-206.57"/>
<polygon fill="orange" stroke="orange" points="864.09,-181.78 853.6,-183.24 862.71,-188.64 864.09,-181.78"/>
<text text-anchor="middle" x="912.88" y="-202.38" font-family="Helvetica,sans-Serif" font-size="10.00"> &lt; v8::Object &gt;</text>
</g>
<!-- Node8&#45;&gt;Node10 -->
<g id="edge16" class="edge">
<title>Node8&#45;&gt;Node10</title>
<path fill="none" stroke="orange" stroke-dasharray="5,2" d="M863.41,-168.46C893.92,-163.97 933.29,-158.17 964.72,-153.54"/>
<polygon fill="orange" stroke="orange" points="862.98,-165.13 853.6,-170.05 864,-172.06 862.98,-165.13"/>
<text text-anchor="middle" x="912.88" y="-166.38" font-family="Helvetica,sans-Serif" font-size="10.00"> &lt; v8::Array &gt;</text>
</g>
<!-- Node8&#45;&gt;Node15 -->
<g id="edge24" class="edge">
<title>Node8&#45;&gt;Node15</title>
<path fill="none" stroke="orange" stroke-dasharray="5,2" d="M833.41,-158.4C860.09,-134.58 911.52,-91.59 962,-65.62 967.86,-62.61 974.32,-59.98 980.72,-57.73"/>
<polygon fill="orange" stroke="orange" points="831.42,-155.39 826.35,-164.69 836.11,-160.58 831.42,-155.39"/>
<text text-anchor="middle" x="912.88" y="-118.38" font-family="Helvetica,sans-Serif" font-size="10.00"> &lt; v8::Value &gt;</text>
</g>
<!-- Node9&#45;&gt;Node8 -->
<g id="edge9" class="edge">
<title>Node9&#45;&gt;Node8</title>
<path fill="none" stroke="#63b8ff" d="M613.31,-148.73C663.14,-155.45 732.47,-164.8 774.88,-170.52"/>
<polygon fill="#63b8ff" stroke="#63b8ff" points="614.05,-145.16 603.67,-147.29 613.11,-152.1 614.05,-145.16"/>
</g>
<!-- Node10&#45;&gt;Node1 -->
<g id="edge12" class="edge">
<title>Node10&#45;&gt;Node1</title>
<path fill="none" stroke="#9a32cd" stroke-dasharray="5,2" d="M1085.01,-146.93C1153.39,-147.74 1264.49,-147.43 1360,-139.62 1365.73,-139.16 1371.78,-138.47 1377.67,-137.69"/>
<polygon fill="#9a32cd" stroke="#9a32cd" points="1085.45,-143.42 1075.41,-146.79 1085.36,-150.42 1085.45,-143.42"/>
<text text-anchor="middle" x="1211.75" y="-148.38" font-family="Helvetica,sans-Serif" font-size="10.00"> sequence_value</text>
</g>
<!-- Node11&#45;&gt;Node10 -->
<g id="edge13" class="edge">
<title>Node11&#45;&gt;Node10</title>
<path fill="none" stroke="#63b8ff" d="M756.63,-102.94C806.99,-105.65 880.7,-111.45 944,-123.62 959.1,-126.53 975.52,-131.21 989.1,-135.51"/>
<polygon fill="#63b8ff" stroke="#63b8ff" points="757.1,-99.4 746.94,-102.39 756.74,-106.39 757.1,-99.4"/>
</g>
<!-- Node12 -->
<g id="node12" class="node">
<title>Node12</title>
<g id="a_node12"><a xlink:href="structv8_1_1FastOneByteString.html" target="_top" xlink:title=" ">
<polygon fill="white" stroke="#666666" points="1268.5,-118.25 1155,-118.25 1155,-99 1268.5,-99 1268.5,-118.25"/>
<text text-anchor="middle" x="1211.75" y="-104.75" font-family="Helvetica,sans-Serif" font-size="10.00">v8::FastOneByteString</text>
</a>
</g>
</g>
<!-- Node12&#45;&gt;Node1 -->
<g id="edge17" class="edge">
<title>Node12&#45;&gt;Node1</title>
<path fill="none" stroke="#9a32cd" stroke-dasharray="5,2" d="M1279.83,-116.27C1312.48,-119.99 1350.47,-124.32 1377.79,-127.43"/>
<polygon fill="#9a32cd" stroke="#9a32cd" points="1280.32,-112.69 1269.98,-115.03 1279.52,-119.64 1280.32,-112.69"/>
<text text-anchor="middle" x="1328.88" y="-126.38" font-family="Helvetica,sans-Serif" font-size="10.00"> string_value</text>
</g>
<!-- Node13 -->
<g id="node13" class="node">
<title>Node13</title>
<g id="a_node13"><a xlink:href="structv8_1_1FastApiCallbackOptions.html" target="_top" xlink:title=" ">
<polygon fill="white" stroke="#666666" points="1279.75,-81.25 1143.75,-81.25 1143.75,-62 1279.75,-62 1279.75,-81.25"/>
<text text-anchor="middle" x="1211.75" y="-67.75" font-family="Helvetica,sans-Serif" font-size="10.00">v8::FastApiCallbackOptions</text>
</a>
</g>
</g>
<!-- Node13&#45;&gt;Node1 -->
<g id="edge18" class="edge">
<title>Node13&#45;&gt;Node1</title>
<path fill="none" stroke="#9a32cd" stroke-dasharray="5,2" d="M1287.81,-83.81C1311.3,-88.68 1337.06,-95.13 1360,-103.38 1373.26,-108.14 1387.37,-115.5 1397.93,-121.52"/>
<polygon fill="#9a32cd" stroke="#9a32cd" points="1288.7,-80.22 1278.2,-81.69 1287.32,-87.09 1288.7,-80.22"/>
<text text-anchor="middle" x="1328.88" y="-104.38" font-family="Helvetica,sans-Serif" font-size="10.00"> options_value</text>
</g>
<!-- Node14 -->
<g id="node14" class="node">
<title>Node14</title>
<g id="a_node14"><a xlink:href="classv8_1_1Isolate.html" target="_top" xlink:title=" ">
<polygon fill="white" stroke="#666666" points="1049.62,-94.25 989.38,-94.25 989.38,-75 1049.62,-75 1049.62,-94.25"/>
<text text-anchor="middle" x="1019.5" y="-80.75" font-family="Helvetica,sans-Serif" font-size="10.00">v8::Isolate</text>
</a>
</g>
</g>
<!-- Node14&#45;&gt;Node13 -->
<g id="edge19" class="edge">
<title>Node14&#45;&gt;Node13</title>
<path fill="none" stroke="#9a32cd" stroke-dasharray="5,2" d="M1060.65,-81.88C1084.68,-80.24 1115.83,-78.11 1143.52,-76.22"/>
<polygon fill="#9a32cd" stroke="#9a32cd" points="1060.55,-78.45 1050.81,-82.62 1061.02,-85.43 1060.55,-78.45"/>
<text text-anchor="middle" x="1110.38" y="-80.38" font-family="Helvetica,sans-Serif" font-size="10.00"> isolate</text>
</g>
<!-- Node15&#45;&gt;Node13 -->
<g id="edge20" class="edge">
<title>Node15&#45;&gt;Node13</title>
<path fill="none" stroke="#9a32cd" stroke-dasharray="5,2" d="M1086.19,-55.91C1104.66,-58.24 1124.78,-60.78 1143.35,-63.12"/>
<polygon fill="#9a32cd" stroke="#9a32cd" points="1086.89,-52.35 1076.53,-54.57 1086.01,-59.29 1086.89,-52.35"/>
<text text-anchor="middle" x="1110.38" y="-62.38" font-family="Helvetica,sans-Serif" font-size="10.00"> data</text>
</g>
<!-- Node16&#45;&gt;Node15 -->
<g id="edge21" class="edge">
<title>Node16&#45;&gt;Node15</title>
<path fill="none" stroke="#63b8ff" d="M874.91,-20.77C896.68,-24.81 921.45,-29.41 944,-33.62 950.73,-34.88 957.8,-36.21 964.79,-37.52"/>
<polygon fill="#63b8ff" stroke="#63b8ff" points="875.63,-17.16 865.16,-18.77 874.36,-24.04 875.63,-17.16"/>
</g>
</g>
</svg>
