<?xml version="1.0" encoding="UTF-8" standalone="no"?>
<!DOCTYPE svg PUBLIC "-//W3C//DTD SVG 1.1//EN"
 "http://www.w3.org/Graphics/SVG/1.1/DTD/svg11.dtd">
<!-- Generated by graphviz version 8.0.5 (20230430.1635)
 -->
<!-- Title: include/v8&#45;metrics.h Pages: 1 -->
<svg width="638pt" height="304pt"
 viewBox="0.00 0.00 638.00 303.50" xmlns="http://www.w3.org/2000/svg" xmlns:xlink="http://www.w3.org/1999/xlink">
<g id="graph0" class="graph" transform="scale(1 1) rotate(0) translate(4 299.5)">
<title>include/v8&#45;metrics.h</title>
<!-- Node1 -->
<g id="node1" class="node">
<title>Node1</title>
<g id="a_node1"><a xlink:title=" ">
<polygon fill="#999999" stroke="#666666" points="277.25,-295.5 174.25,-295.5 174.25,-276.25 277.25,-276.25 277.25,-295.5"/>
<text text-anchor="middle" x="225.75" y="-282" font-family="Helvetica,sans-Serif" font-size="10.00">include/v8&#45;metrics.h</text>
</a>
</g>
</g>
<!-- Node2 -->
<g id="node2" class="node">
<title>Node2</title>
<g id="a_node2"><a xlink:title=" ">
<polygon fill="#e0e0e0" stroke="#999999" points="630,-74.5 579.5,-74.5 579.5,-55.25 630,-55.25 630,-74.5"/>
<text text-anchor="middle" x="604.75" y="-61" font-family="Helvetica,sans-Serif" font-size="10.00">stddef.h</text>
</a>
</g>
</g>
<!-- Node1&#45;&gt;Node2 -->
<g id="edge1" class="edge">
<title>Node1&#45;&gt;Node2</title>
<path fill="none" stroke="#63b8ff" d="M277.55,-280.73C319.09,-275.69 377.82,-264.58 423.75,-240.25 499.17,-200.3 565.01,-119.59 591.88,-83.74"/>
<polygon fill="#63b8ff" stroke="#63b8ff" points="595.28,-86.01 598.4,-75.89 589.65,-81.86 595.28,-86.01"/>
</g>
<!-- Node3 -->
<g id="node3" class="node">
<title>Node3</title>
<g id="a_node3"><a xlink:title=" ">
<polygon fill="#e0e0e0" stroke="#999999" points="47.5,-74.5 0,-74.5 0,-55.25 47.5,-55.25 47.5,-74.5"/>
<text text-anchor="middle" x="23.75" y="-61" font-family="Helvetica,sans-Serif" font-size="10.00">stdint.h</text>
</a>
</g>
</g>
<!-- Node1&#45;&gt;Node3 -->
<g id="edge2" class="edge">
<title>Node1&#45;&gt;Node3</title>
<path fill="none" stroke="#63b8ff" d="M217.58,-276.02C187.06,-242.93 79.41,-126.22 39.12,-82.54"/>
<polygon fill="#63b8ff" stroke="#63b8ff" points="42.15,-80.58 32.8,-75.6 37.01,-85.33 42.15,-80.58"/>
</g>
<!-- Node4 -->
<g id="node4" class="node">
<title>Node4</title>
<g id="a_node4"><a xlink:title=" ">
<polygon fill="#e0e0e0" stroke="#999999" points="272.25,-185 229.25,-185 229.25,-165.75 272.25,-165.75 272.25,-185"/>
<text text-anchor="middle" x="250.75" y="-171.5" font-family="Helvetica,sans-Serif" font-size="10.00">vector</text>
</a>
</g>
</g>
<!-- Node1&#45;&gt;Node4 -->
<g id="edge3" class="edge">
<title>Node1&#45;&gt;Node4</title>
<path fill="none" stroke="#63b8ff" d="M227.8,-276C231.81,-258.59 240.79,-219.62 246.25,-195.91"/>
<polygon fill="#63b8ff" stroke="#63b8ff" points="249.84,-196.91 248.68,-186.38 243.02,-195.34 249.84,-196.91"/>
</g>
<!-- Node5 -->
<g id="node5" class="node">
<title>Node5</title>
<g id="a_node5"><a xlink:href="v8-internal_8h.html" target="_top" xlink:title=" ">
<polygon fill="white" stroke="#666666" points="363,-129.75 294.5,-129.75 294.5,-110.5 363,-110.5 363,-129.75"/>
<text text-anchor="middle" x="328.75" y="-116.25" font-family="Helvetica,sans-Serif" font-size="10.00">v8&#45;internal.h</text>
</a>
</g>
</g>
<!-- Node1&#45;&gt;Node5 -->
<g id="edge4" class="edge">
<title>Node1&#45;&gt;Node5</title>
<path fill="none" stroke="#63b8ff" d="M222.07,-275.85C214.06,-254.58 197.5,-200.51 220.75,-165.75 234.77,-144.79 260.64,-133.66 283.55,-127.76"/>
<polygon fill="#63b8ff" stroke="#63b8ff" points="284.18,-130.98 293.15,-125.33 282.62,-124.15 284.18,-130.98"/>
</g>
<!-- Node13 -->
<g id="node13" class="node">
<title>Node13</title>
<g id="a_node13"><a xlink:href="v8config_8h.html" target="_top" xlink:title=" ">
<polygon fill="white" stroke="#666666" points="125.5,-74.5 66,-74.5 66,-55.25 125.5,-55.25 125.5,-74.5"/>
<text text-anchor="middle" x="95.75" y="-61" font-family="Helvetica,sans-Serif" font-size="10.00">v8config.h</text>
</a>
</g>
</g>
<!-- Node1&#45;&gt;Node13 -->
<g id="edge23" class="edge">
<title>Node1&#45;&gt;Node13</title>
<path fill="none" stroke="#63b8ff" d="M220.49,-276.02C201.06,-243.27 133.01,-128.64 106.47,-83.93"/>
<polygon fill="#63b8ff" stroke="#63b8ff" points="109.04,-82.41 100.93,-75.6 103.02,-85.99 109.04,-82.41"/>
</g>
<!-- Node14 -->
<g id="node14" class="node">
<title>Node14</title>
<g id="a_node14"><a xlink:href="v8-local-handle_8h.html" target="_top" xlink:title=" ">
<polygon fill="white" stroke="#666666" points="415.12,-240.25 326.38,-240.25 326.38,-221 415.12,-221 415.12,-240.25"/>
<text text-anchor="middle" x="370.75" y="-226.75" font-family="Helvetica,sans-Serif" font-size="10.00">v8&#45;local&#45;handle.h</text>
</a>
</g>
</g>
<!-- Node1&#45;&gt;Node14 -->
<g id="edge16" class="edge">
<title>Node1&#45;&gt;Node14</title>
<path fill="none" stroke="#63b8ff" d="M250.35,-275.84C273.89,-267.2 309.62,-254.07 336.05,-244.37"/>
<polygon fill="#63b8ff" stroke="#63b8ff" points="336.85,-247.44 345.03,-240.7 334.44,-240.86 336.85,-247.44"/>
</g>
<!-- Node5&#45;&gt;Node2 -->
<g id="edge5" class="edge">
<title>Node5&#45;&gt;Node2</title>
<path fill="none" stroke="#63b8ff" d="M363.36,-113.48C408.43,-105.97 489.91,-91.85 568.59,-74.86"/>
<polygon fill="#63b8ff" stroke="#63b8ff" points="569.15,-78.11 578.17,-72.56 567.66,-71.27 569.15,-78.11"/>
</g>
<!-- Node5&#45;&gt;Node3 -->
<g id="edge6" class="edge">
<title>Node5&#45;&gt;Node3</title>
<path fill="none" stroke="#63b8ff" d="M294.21,-114.51C244.34,-107.62 149.09,-93.6 58.57,-74.71"/>
<polygon fill="#63b8ff" stroke="#63b8ff" points="59.35,-71.09 48.84,-72.45 57.9,-77.94 59.35,-71.09"/>
</g>
<!-- Node6 -->
<g id="node6" class="node">
<title>Node6</title>
<g id="a_node6"><a xlink:title=" ">
<polygon fill="#e0e0e0" stroke="#999999" points="419.5,-74.5 372,-74.5 372,-55.25 419.5,-55.25 419.5,-74.5"/>
<text text-anchor="middle" x="395.75" y="-61" font-family="Helvetica,sans-Serif" font-size="10.00">string.h</text>
</a>
</g>
</g>
<!-- Node5&#45;&gt;Node6 -->
<g id="edge7" class="edge">
<title>Node5&#45;&gt;Node6</title>
<path fill="none" stroke="#63b8ff" d="M340.12,-110.09C349.99,-102.24 364.52,-90.7 376.25,-81.37"/>
<polygon fill="#63b8ff" stroke="#63b8ff" points="377.9,-83.74 383.55,-74.77 373.55,-78.26 377.9,-83.74"/>
</g>
<!-- Node7 -->
<g id="node7" class="node">
<title>Node7</title>
<g id="a_node7"><a xlink:title=" ">
<polygon fill="#e0e0e0" stroke="#999999" points="482.38,-74.5 437.12,-74.5 437.12,-55.25 482.38,-55.25 482.38,-74.5"/>
<text text-anchor="middle" x="459.75" y="-61" font-family="Helvetica,sans-Serif" font-size="10.00">atomic</text>
</a>
</g>
</g>
<!-- Node5&#45;&gt;Node7 -->
<g id="edge8" class="edge">
<title>Node5&#45;&gt;Node7</title>
<path fill="none" stroke="#63b8ff" d="M350.97,-110.09C371.96,-101.56 403.67,-88.67 427.44,-79.01"/>
<polygon fill="#63b8ff" stroke="#63b8ff" points="428.47,-81.96 436.42,-74.95 425.84,-75.48 428.47,-81.96"/>
</g>
<!-- Node8 -->
<g id="node8" class="node">
<title>Node8</title>
<g id="a_node8"><a xlink:title=" ">
<polygon fill="#e0e0e0" stroke="#999999" points="189.75,-74.5 143.75,-74.5 143.75,-55.25 189.75,-55.25 189.75,-74.5"/>
<text text-anchor="middle" x="166.75" y="-61" font-family="Helvetica,sans-Serif" font-size="10.00">iterator</text>
</a>
</g>
</g>
<!-- Node5&#45;&gt;Node8 -->
<g id="edge9" class="edge">
<title>Node5&#45;&gt;Node8</title>
<path fill="none" stroke="#63b8ff" d="M301.27,-110.09C273.45,-100.95 230.39,-86.79 200.51,-76.97"/>
<polygon fill="#63b8ff" stroke="#63b8ff" points="201.74,-73.37 191.15,-73.57 199.56,-80.02 201.74,-73.37"/>
</g>
<!-- Node9 -->
<g id="node9" class="node">
<title>Node9</title>
<g id="a_node9"><a xlink:title=" ">
<polygon fill="#e0e0e0" stroke="#999999" points="247.38,-74.5 208.12,-74.5 208.12,-55.25 247.38,-55.25 247.38,-74.5"/>
<text text-anchor="middle" x="227.75" y="-61" font-family="Helvetica,sans-Serif" font-size="10.00">limits</text>
</a>
</g>
</g>
<!-- Node5&#45;&gt;Node9 -->
<g id="edge10" class="edge">
<title>Node5&#45;&gt;Node9</title>
<path fill="none" stroke="#63b8ff" d="M311.62,-110.09C296.02,-101.87 272.73,-89.59 254.65,-80.06"/>
<polygon fill="#63b8ff" stroke="#63b8ff" points="256.45,-76.52 245.97,-74.95 253.18,-82.71 256.45,-76.52"/>
</g>
<!-- Node10 -->
<g id="node10" class="node">
<title>Node10</title>
<g id="a_node10"><a xlink:title=" ">
<polygon fill="#e0e0e0" stroke="#999999" points="211,-19.25 160.5,-19.25 160.5,0 211,0 211,-19.25"/>
<text text-anchor="middle" x="185.75" y="-5.75" font-family="Helvetica,sans-Serif" font-size="10.00">memory</text>
</a>
</g>
</g>
<!-- Node5&#45;&gt;Node10 -->
<g id="edge11" class="edge">
<title>Node5&#45;&gt;Node10</title>
<path fill="none" stroke="#63b8ff" d="M319.84,-110.35C306.63,-97.54 280.81,-73.29 256.75,-55.25 242.22,-44.36 225,-33.48 211.15,-25.2"/>
<polygon fill="#63b8ff" stroke="#63b8ff" points="213.15,-21.72 202.75,-19.66 209.59,-27.75 213.15,-21.72"/>
</g>
<!-- Node11 -->
<g id="node11" class="node">
<title>Node11</title>
<g id="a_node11"><a xlink:title=" ">
<polygon fill="#e0e0e0" stroke="#999999" points="353.62,-74.5 303.88,-74.5 303.88,-55.25 353.62,-55.25 353.62,-74.5"/>
<text text-anchor="middle" x="328.75" y="-61" font-family="Helvetica,sans-Serif" font-size="10.00">optional</text>
</a>
</g>
</g>
<!-- Node5&#45;&gt;Node11 -->
<g id="edge12" class="edge">
<title>Node5&#45;&gt;Node11</title>
<path fill="none" stroke="#63b8ff" d="M328.75,-110.33C328.75,-103.67 328.75,-94.24 328.75,-85.78"/>
<polygon fill="#63b8ff" stroke="#63b8ff" points="332.25,-85.86 328.75,-75.86 325.25,-85.86 332.25,-85.86"/>
</g>
<!-- Node12 -->
<g id="node12" class="node">
<title>Node12</title>
<g id="a_node12"><a xlink:title=" ">
<polygon fill="#e0e0e0" stroke="#999999" points="561.25,-74.5 500.25,-74.5 500.25,-55.25 561.25,-55.25 561.25,-74.5"/>
<text text-anchor="middle" x="530.75" y="-61" font-family="Helvetica,sans-Serif" font-size="10.00">type_traits</text>
</a>
</g>
</g>
<!-- Node5&#45;&gt;Node12 -->
<g id="edge13" class="edge">
<title>Node5&#45;&gt;Node12</title>
<path fill="none" stroke="#63b8ff" d="M363.02,-110.09C397.95,-100.88 452.17,-86.59 489.45,-76.76"/>
<polygon fill="#63b8ff" stroke="#63b8ff" points="490.18,-79.92 498.96,-73.99 488.4,-73.16 490.18,-79.92"/>
</g>
<!-- Node5&#45;&gt;Node13 -->
<g id="edge14" class="edge">
<title>Node5&#45;&gt;Node13</title>
<path fill="none" stroke="#63b8ff" d="M294.12,-111.21C251.96,-101.57 180.87,-85.33 136.23,-75.13"/>
<polygon fill="#63b8ff" stroke="#63b8ff" points="137.28,-71.55 126.75,-72.73 135.72,-78.37 137.28,-71.55"/>
</g>
<!-- Node13&#45;&gt;Node10 -->
<g id="edge15" class="edge">
<title>Node13&#45;&gt;Node10</title>
<path fill="none" stroke="#63b8ff" d="M111.02,-54.84C124.72,-46.73 145.09,-34.68 161.1,-25.21"/>
<polygon fill="#63b8ff" stroke="#63b8ff" points="162.58,-27.81 169.41,-19.7 159.02,-21.78 162.58,-27.81"/>
</g>
<!-- Node14&#45;&gt;Node2 -->
<g id="edge17" class="edge">
<title>Node14&#45;&gt;Node2</title>
<path fill="none" stroke="#63b8ff" d="M384.7,-220.52C398.31,-211.59 419.57,-197.53 437.75,-185 490.63,-148.54 551.88,-104.33 583.47,-81.39"/>
<polygon fill="#63b8ff" stroke="#63b8ff" points="585.25,-83.69 591.28,-74.98 581.13,-78.03 585.25,-83.69"/>
</g>
<!-- Node14&#45;&gt;Node4 -->
<g id="edge19" class="edge">
<title>Node14&#45;&gt;Node4</title>
<path fill="none" stroke="#63b8ff" d="M350.39,-220.59C331.43,-212.18 302.9,-199.52 281.23,-189.9"/>
<polygon fill="#63b8ff" stroke="#63b8ff" points="282.77,-186.31 272.21,-185.45 279.93,-192.71 282.77,-186.31"/>
</g>
<!-- Node14&#45;&gt;Node5 -->
<g id="edge22" class="edge">
<title>Node14&#45;&gt;Node5</title>
<path fill="none" stroke="#63b8ff" d="M377.31,-220.55C385.66,-207.8 397.96,-184.07 388.75,-165.75 382.33,-152.97 370.32,-142.93 358.73,-135.63"/>
<polygon fill="#63b8ff" stroke="#63b8ff" points="360.63,-132.11 350.22,-130.15 357.14,-138.18 360.63,-132.11"/>
</g>
<!-- Node14&#45;&gt;Node12 -->
<g id="edge18" class="edge">
<title>Node14&#45;&gt;Node12</title>
<path fill="none" stroke="#63b8ff" d="M379.35,-220.82C404.96,-194.61 481.01,-116.78 514.55,-82.45"/>
<polygon fill="#63b8ff" stroke="#63b8ff" points="516.62,-85.32 521.11,-75.72 511.61,-80.43 516.62,-85.32"/>
</g>
<!-- Node15 -->
<g id="node15" class="node">
<title>Node15</title>
<g id="a_node15"><a xlink:href="v8-handle-base_8h.html" target="_top" xlink:title=" ">
<polygon fill="white" stroke="#666666" points="379.5,-185 290,-185 290,-165.75 379.5,-165.75 379.5,-185"/>
<text text-anchor="middle" x="334.75" y="-171.5" font-family="Helvetica,sans-Serif" font-size="10.00">v8&#45;handle&#45;base.h</text>
</a>
</g>
</g>
<!-- Node14&#45;&gt;Node15 -->
<g id="edge20" class="edge">
<title>Node14&#45;&gt;Node15</title>
<path fill="none" stroke="#63b8ff" d="M364.81,-220.83C359.94,-213.63 352.89,-203.21 346.84,-194.26"/>
<polygon fill="#63b8ff" stroke="#63b8ff" points="349.32,-192.68 340.82,-186.36 343.53,-196.6 349.32,-192.68"/>
</g>
<!-- Node15&#45;&gt;Node5 -->
<g id="edge21" class="edge">
<title>Node15&#45;&gt;Node5</title>
<path fill="none" stroke="#63b8ff" d="M333.76,-165.58C333.01,-158.92 331.95,-149.49 330.99,-141.03"/>
<polygon fill="#63b8ff" stroke="#63b8ff" points="334.36,-140.65 329.76,-131.11 327.4,-141.44 334.36,-140.65"/>
</g>
</g>
</svg>
