<?xml version="1.0" encoding="UTF-8" standalone="no"?>
<!DOCTYPE svg PUBLIC "-//W3C//DTD SVG 1.1//EN"
 "http://www.w3.org/Graphics/SVG/1.1/DTD/svg11.dtd">
<!-- Generated by graphviz version 8.0.5 (20230430.1635)
 -->
<!-- Title: include/v8&#45;microtask&#45;queue.h Pages: 1 -->
<svg width="667pt" height="315pt"
 viewBox="0.00 0.00 666.72 314.75" xmlns="http://www.w3.org/2000/svg" xmlns:xlink="http://www.w3.org/1999/xlink">
<g id="graph0" class="graph" transform="scale(1 1) rotate(0) translate(4 310.75)">
<title>include/v8&#45;microtask&#45;queue.h</title>
<!-- Node1 -->
<g id="node1" class="node">
<title>Node1</title>
<g id="a_node1"><a xlink:title=" ">
<polygon fill="#999999" stroke="#666666" points="306.97,-306.75 200.97,-306.75 200.97,-276.25 306.97,-276.25 306.97,-306.75"/>
<text text-anchor="start" x="208.97" y="-293.25" font-family="Helvetica,sans-Serif" font-size="10.00">include/v8&#45;microtask</text>
<text text-anchor="middle" x="253.97" y="-282" font-family="Helvetica,sans-Serif" font-size="10.00">&#45;queue.h</text>
</a>
</g>
</g>
<!-- Node2 -->
<g id="node2" class="node">
<title>Node2</title>
<g id="a_node2"><a xlink:title=" ">
<polygon fill="#e0e0e0" stroke="#999999" points="79.22,-74.5 28.72,-74.5 28.72,-55.25 79.22,-55.25 79.22,-74.5"/>
<text text-anchor="middle" x="53.97" y="-61" font-family="Helvetica,sans-Serif" font-size="10.00">stddef.h</text>
</a>
</g>
</g>
<!-- Node1&#45;&gt;Node2 -->
<g id="edge1" class="edge">
<title>Node1&#45;&gt;Node2</title>
<path fill="none" stroke="#63b8ff" d="M228.08,-275.95C187.52,-251.58 110.02,-198.38 74.97,-129.75 67.74,-115.58 62.25,-98.4 58.71,-85.42"/>
<polygon fill="#63b8ff" stroke="#63b8ff" points="61.88,-84.71 56,-75.9 55.1,-86.45 61.88,-84.71"/>
</g>
<!-- Node3 -->
<g id="node3" class="node">
<title>Node3</title>
<g id="a_node3"><a xlink:title=" ">
<polygon fill="#e0e0e0" stroke="#999999" points="517.22,-19.25 466.72,-19.25 466.72,0 517.22,0 517.22,-19.25"/>
<text text-anchor="middle" x="491.97" y="-5.75" font-family="Helvetica,sans-Serif" font-size="10.00">memory</text>
</a>
</g>
</g>
<!-- Node1&#45;&gt;Node3 -->
<g id="edge2" class="edge">
<title>Node1&#45;&gt;Node3</title>
<path fill="none" stroke="#63b8ff" d="M200.62,-289.25C126.4,-284.35 0.97,-263.23 0.97,-176.38 0.97,-176.38 0.97,-176.38 0.97,-119.12 0.97,-89.51 -2.91,-74.06 19.97,-55.25 53.41,-27.76 350.61,-15.32 455.51,-11.75"/>
<polygon fill="#63b8ff" stroke="#63b8ff" points="455.59,-15.22 465.47,-11.39 455.36,-8.22 455.59,-15.22"/>
</g>
<!-- Node4 -->
<g id="node4" class="node">
<title>Node4</title>
<g id="a_node4"><a xlink:href="v8-local-handle_8h.html" target="_top" xlink:title=" ">
<polygon fill="white" stroke="#666666" points="298.35,-240.25 209.6,-240.25 209.6,-221 298.35,-221 298.35,-240.25"/>
<text text-anchor="middle" x="253.97" y="-226.75" font-family="Helvetica,sans-Serif" font-size="10.00">v8&#45;local&#45;handle.h</text>
</a>
</g>
</g>
<!-- Node1&#45;&gt;Node4 -->
<g id="edge3" class="edge">
<title>Node1&#45;&gt;Node4</title>
<path fill="none" stroke="#63b8ff" d="M253.97,-275.95C253.97,-268.62 253.97,-259.62 253.97,-251.66"/>
<polygon fill="#63b8ff" stroke="#63b8ff" points="257.47,-251.7 253.97,-241.7 250.47,-251.7 257.47,-251.7"/>
</g>
<!-- Node15 -->
<g id="node15" class="node">
<title>Node15</title>
<g id="a_node15"><a xlink:href="v8config_8h.html" target="_top" xlink:title=" ">
<polygon fill="white" stroke="#666666" points="658.72,-74.5 599.22,-74.5 599.22,-55.25 658.72,-55.25 658.72,-74.5"/>
<text text-anchor="middle" x="628.97" y="-61" font-family="Helvetica,sans-Serif" font-size="10.00">v8config.h</text>
</a>
</g>
</g>
<!-- Node1&#45;&gt;Node15 -->
<g id="edge22" class="edge">
<title>Node1&#45;&gt;Node15</title>
<path fill="none" stroke="#63b8ff" d="M278.58,-275.76C346.75,-234.92 537.51,-120.66 604.97,-80.25"/>
<polygon fill="#63b8ff" stroke="#63b8ff" points="606.21,-82.99 612.99,-74.85 602.62,-76.98 606.21,-82.99"/>
</g>
<!-- Node16 -->
<g id="node16" class="node">
<title>Node16</title>
<g id="a_node16"><a xlink:href="v8-microtask_8h.html" target="_top" xlink:title=" ">
<polygon fill="white" stroke="#666666" points="522.85,-240.25 443.1,-240.25 443.1,-221 522.85,-221 522.85,-240.25"/>
<text text-anchor="middle" x="482.97" y="-226.75" font-family="Helvetica,sans-Serif" font-size="10.00">v8&#45;microtask.h</text>
</a>
</g>
</g>
<!-- Node1&#45;&gt;Node16 -->
<g id="edge21" class="edge">
<title>Node1&#45;&gt;Node16</title>
<path fill="none" stroke="#63b8ff" d="M307.37,-276.77C346.71,-266.66 399.65,-253.05 437.08,-243.42"/>
<polygon fill="#63b8ff" stroke="#63b8ff" points="437.87,-246.58 446.69,-240.7 436.13,-239.8 437.87,-246.58"/>
</g>
<!-- Node4&#45;&gt;Node2 -->
<g id="edge4" class="edge">
<title>Node4&#45;&gt;Node2</title>
<path fill="none" stroke="#63b8ff" d="M214.88,-220.57C191.17,-213.67 161.29,-202.35 138.97,-185 103.16,-157.17 75.96,-110.24 62.78,-84.37"/>
<polygon fill="#63b8ff" stroke="#63b8ff" points="65.57,-83.11 58,-75.69 59.29,-86.2 65.57,-83.11"/>
</g>
<!-- Node5 -->
<g id="node5" class="node">
<title>Node5</title>
<g id="a_node5"><a xlink:title=" ">
<polygon fill="#e0e0e0" stroke="#999999" points="581.47,-74.5 520.47,-74.5 520.47,-55.25 581.47,-55.25 581.47,-74.5"/>
<text text-anchor="middle" x="550.97" y="-61" font-family="Helvetica,sans-Serif" font-size="10.00">type_traits</text>
</a>
</g>
</g>
<!-- Node4&#45;&gt;Node5 -->
<g id="edge5" class="edge">
<title>Node4&#45;&gt;Node5</title>
<path fill="none" stroke="#63b8ff" d="M270.42,-220.63C285.25,-212.22 307.37,-198.89 324.97,-185 362.1,-155.69 360.21,-134.51 400.97,-110.5 434.79,-90.58 478.21,-78.93 509.62,-72.56"/>
<polygon fill="#63b8ff" stroke="#63b8ff" points="510.04,-75.85 519.2,-70.52 508.72,-68.98 510.04,-75.85"/>
</g>
<!-- Node6 -->
<g id="node6" class="node">
<title>Node6</title>
<g id="a_node6"><a xlink:title=" ">
<polygon fill="#e0e0e0" stroke="#999999" points="191.47,-185 148.47,-185 148.47,-165.75 191.47,-165.75 191.47,-185"/>
<text text-anchor="middle" x="169.97" y="-171.5" font-family="Helvetica,sans-Serif" font-size="10.00">vector</text>
</a>
</g>
</g>
<!-- Node4&#45;&gt;Node6 -->
<g id="edge6" class="edge">
<title>Node4&#45;&gt;Node6</title>
<path fill="none" stroke="#63b8ff" d="M239.72,-220.59C227.05,-212.56 208.28,-200.66 193.4,-191.23"/>
<polygon fill="#63b8ff" stroke="#63b8ff" points="195.61,-187.85 185.29,-185.45 191.86,-193.76 195.61,-187.85"/>
</g>
<!-- Node7 -->
<g id="node7" class="node">
<title>Node7</title>
<g id="a_node7"><a xlink:href="v8-handle-base_8h.html" target="_top" xlink:title=" ">
<polygon fill="white" stroke="#666666" points="298.72,-185 209.22,-185 209.22,-165.75 298.72,-165.75 298.72,-185"/>
<text text-anchor="middle" x="253.97" y="-171.5" font-family="Helvetica,sans-Serif" font-size="10.00">v8&#45;handle&#45;base.h</text>
</a>
</g>
</g>
<!-- Node4&#45;&gt;Node7 -->
<g id="edge7" class="edge">
<title>Node4&#45;&gt;Node7</title>
<path fill="none" stroke="#63b8ff" d="M253.97,-220.83C253.97,-214.17 253.97,-204.74 253.97,-196.28"/>
<polygon fill="#63b8ff" stroke="#63b8ff" points="257.47,-196.36 253.97,-186.36 250.47,-196.36 257.47,-196.36"/>
</g>
<!-- Node8 -->
<g id="node8" class="node">
<title>Node8</title>
<g id="a_node8"><a xlink:href="v8-internal_8h.html" target="_top" xlink:title=" ">
<polygon fill="white" stroke="#666666" points="349.22,-129.75 280.72,-129.75 280.72,-110.5 349.22,-110.5 349.22,-129.75"/>
<text text-anchor="middle" x="314.97" y="-116.25" font-family="Helvetica,sans-Serif" font-size="10.00">v8&#45;internal.h</text>
</a>
</g>
</g>
<!-- Node4&#45;&gt;Node8 -->
<g id="edge20" class="edge">
<title>Node4&#45;&gt;Node8</title>
<path fill="none" stroke="#63b8ff" d="M270.64,-220.64C283.16,-212.94 299.54,-200.63 307.97,-185 315.27,-171.47 316.74,-154 316.54,-140.75"/>
<polygon fill="#63b8ff" stroke="#63b8ff" points="320,-140.81 316.01,-131 313.01,-141.16 320,-140.81"/>
</g>
<!-- Node7&#45;&gt;Node8 -->
<g id="edge8" class="edge">
<title>Node7&#45;&gt;Node8</title>
<path fill="none" stroke="#63b8ff" d="M264.32,-165.34C273.13,-157.65 286.02,-146.4 296.58,-137.18"/>
<polygon fill="#63b8ff" stroke="#63b8ff" points="298.54,-139.24 303.78,-130.02 293.94,-133.96 298.54,-139.24"/>
</g>
<!-- Node8&#45;&gt;Node2 -->
<g id="edge9" class="edge">
<title>Node8&#45;&gt;Node2</title>
<path fill="none" stroke="#63b8ff" d="M280.24,-112.9C237.6,-105.13 162.86,-91.09 89.84,-74.83"/>
<polygon fill="#63b8ff" stroke="#63b8ff" points="91.08,-71.3 80.55,-72.52 89.55,-78.13 91.08,-71.3"/>
</g>
<!-- Node8&#45;&gt;Node3 -->
<g id="edge15" class="edge">
<title>Node8&#45;&gt;Node3</title>
<path fill="none" stroke="#63b8ff" d="M349.37,-111.27C393.11,-101 464.07,-83.28 472.97,-74.5 484.81,-62.82 489.35,-44.12 491.04,-29.96"/>
<polygon fill="#63b8ff" stroke="#63b8ff" points="494.58,-30.64 491.9,-20.39 487.61,-30.08 494.58,-30.64"/>
</g>
<!-- Node8&#45;&gt;Node5 -->
<g id="edge17" class="edge">
<title>Node8&#45;&gt;Node5</title>
<path fill="none" stroke="#63b8ff" d="M349.54,-111.32C392,-101.74 463.97,-85.5 509.41,-75.25"/>
<polygon fill="#63b8ff" stroke="#63b8ff" points="510.09,-78.46 519.07,-72.85 508.55,-71.63 510.09,-78.46"/>
</g>
<!-- Node9 -->
<g id="node9" class="node">
<title>Node9</title>
<g id="a_node9"><a xlink:title=" ">
<polygon fill="#e0e0e0" stroke="#999999" points="144.72,-74.5 97.22,-74.5 97.22,-55.25 144.72,-55.25 144.72,-74.5"/>
<text text-anchor="middle" x="120.97" y="-61" font-family="Helvetica,sans-Serif" font-size="10.00">stdint.h</text>
</a>
</g>
</g>
<!-- Node8&#45;&gt;Node9 -->
<g id="edge10" class="edge">
<title>Node8&#45;&gt;Node9</title>
<path fill="none" stroke="#63b8ff" d="M282.06,-110.09C246.89,-100.44 191.37,-85.2 155.57,-75.37"/>
<polygon fill="#63b8ff" stroke="#63b8ff" points="156.7,-71.78 146.13,-72.51 154.85,-78.53 156.7,-71.78"/>
</g>
<!-- Node10 -->
<g id="node10" class="node">
<title>Node10</title>
<g id="a_node10"><a xlink:title=" ">
<polygon fill="#e0e0e0" stroke="#999999" points="210.72,-74.5 163.22,-74.5 163.22,-55.25 210.72,-55.25 210.72,-74.5"/>
<text text-anchor="middle" x="186.97" y="-61" font-family="Helvetica,sans-Serif" font-size="10.00">string.h</text>
</a>
</g>
</g>
<!-- Node8&#45;&gt;Node10 -->
<g id="edge11" class="edge">
<title>Node8&#45;&gt;Node10</title>
<path fill="none" stroke="#63b8ff" d="M293.26,-110.09C272.85,-101.6 242.05,-88.79 218.85,-79.14"/>
<polygon fill="#63b8ff" stroke="#63b8ff" points="220.37,-75.56 209.79,-74.95 217.68,-82.03 220.37,-75.56"/>
</g>
<!-- Node11 -->
<g id="node11" class="node">
<title>Node11</title>
<g id="a_node11"><a xlink:title=" ">
<polygon fill="#e0e0e0" stroke="#999999" points="273.6,-74.5 228.35,-74.5 228.35,-55.25 273.6,-55.25 273.6,-74.5"/>
<text text-anchor="middle" x="250.97" y="-61" font-family="Helvetica,sans-Serif" font-size="10.00">atomic</text>
</a>
</g>
</g>
<!-- Node8&#45;&gt;Node11 -->
<g id="edge12" class="edge">
<title>Node8&#45;&gt;Node11</title>
<path fill="none" stroke="#63b8ff" d="M304.11,-110.09C294.77,-102.32 281.08,-90.92 269.93,-81.65"/>
<polygon fill="#63b8ff" stroke="#63b8ff" points="272.59,-78.48 262.67,-74.77 268.12,-83.86 272.59,-78.48"/>
</g>
<!-- Node12 -->
<g id="node12" class="node">
<title>Node12</title>
<g id="a_node12"><a xlink:title=" ">
<polygon fill="#e0e0e0" stroke="#999999" points="337.97,-74.5 291.97,-74.5 291.97,-55.25 337.97,-55.25 337.97,-74.5"/>
<text text-anchor="middle" x="314.97" y="-61" font-family="Helvetica,sans-Serif" font-size="10.00">iterator</text>
</a>
</g>
</g>
<!-- Node8&#45;&gt;Node12 -->
<g id="edge13" class="edge">
<title>Node8&#45;&gt;Node12</title>
<path fill="none" stroke="#63b8ff" d="M314.97,-110.33C314.97,-103.67 314.97,-94.24 314.97,-85.78"/>
<polygon fill="#63b8ff" stroke="#63b8ff" points="318.47,-85.86 314.97,-75.86 311.47,-85.86 318.47,-85.86"/>
</g>
<!-- Node13 -->
<g id="node13" class="node">
<title>Node13</title>
<g id="a_node13"><a xlink:title=" ">
<polygon fill="#e0e0e0" stroke="#999999" points="395.6,-74.5 356.35,-74.5 356.35,-55.25 395.6,-55.25 395.6,-74.5"/>
<text text-anchor="middle" x="375.97" y="-61" font-family="Helvetica,sans-Serif" font-size="10.00">limits</text>
</a>
</g>
</g>
<!-- Node8&#45;&gt;Node13 -->
<g id="edge14" class="edge">
<title>Node8&#45;&gt;Node13</title>
<path fill="none" stroke="#63b8ff" d="M325.32,-110.09C334.13,-102.4 347.02,-91.15 357.58,-81.93"/>
<polygon fill="#63b8ff" stroke="#63b8ff" points="359.54,-83.99 364.78,-74.77 354.94,-78.71 359.54,-83.99"/>
</g>
<!-- Node14 -->
<g id="node14" class="node">
<title>Node14</title>
<g id="a_node14"><a xlink:title=" ">
<polygon fill="#e0e0e0" stroke="#999999" points="463.85,-74.5 414.1,-74.5 414.1,-55.25 463.85,-55.25 463.85,-74.5"/>
<text text-anchor="middle" x="438.97" y="-61" font-family="Helvetica,sans-Serif" font-size="10.00">optional</text>
</a>
</g>
</g>
<!-- Node8&#45;&gt;Node14 -->
<g id="edge16" class="edge">
<title>Node8&#45;&gt;Node14</title>
<path fill="none" stroke="#63b8ff" d="M336.01,-110.09C355.69,-101.64 385.35,-88.9 407.78,-79.27"/>
<polygon fill="#63b8ff" stroke="#63b8ff" points="409.02,-82.11 416.83,-74.95 406.26,-75.68 409.02,-82.11"/>
</g>
<!-- Node8&#45;&gt;Node15 -->
<g id="edge18" class="edge">
<title>Node8&#45;&gt;Node15</title>
<path fill="none" stroke="#63b8ff" d="M349.52,-114.25C399.91,-106.99 496.75,-92.45 587.92,-75.01"/>
<polygon fill="#63b8ff" stroke="#63b8ff" points="588.57,-78.25 597.72,-72.92 587.24,-71.38 588.57,-78.25"/>
</g>
<!-- Node15&#45;&gt;Node3 -->
<g id="edge19" class="edge">
<title>Node15&#45;&gt;Node3</title>
<path fill="none" stroke="#63b8ff" d="M605.73,-54.84C583.69,-46.27 550.32,-33.31 525.42,-23.63"/>
<polygon fill="#63b8ff" stroke="#63b8ff" points="526.91,-20.06 516.32,-19.7 524.38,-26.59 526.91,-20.06"/>
</g>
</g>
</svg>
