<?xml version="1.0" encoding="UTF-8" standalone="no"?>
<!DOCTYPE svg PUBLIC "-//W3C//DTD SVG 1.1//EN"
 "http://www.w3.org/Graphics/SVG/1.1/DTD/svg11.dtd">
<!-- Generated by graphviz version 8.0.5 (20230430.1635)
 -->
<!-- Title: include/v8&#45;initialization.h Pages: 1 -->
<svg width="3116pt" height="801pt"
 viewBox="0.00 0.00 3115.50 800.75" xmlns="http://www.w3.org/2000/svg" xmlns:xlink="http://www.w3.org/1999/xlink">
<g id="graph0" class="graph" transform="scale(1 1) rotate(0) translate(4 796.75)">
<title>include/v8&#45;initialization.h</title>
<!-- Node1 -->
<g id="node1" class="node">
<title>Node1</title>
<g id="a_node1"><a xlink:title=" ">
<polygon fill="#999999" stroke="#666666" points="1926.5,-792.75 1805.5,-792.75 1805.5,-773.5 1926.5,-773.5 1926.5,-792.75"/>
<text text-anchor="middle" x="1866" y="-779.25" font-family="Helvetica,sans-Serif" font-size="10.00">include/v8&#45;initialization.h</text>
</a>
</g>
</g>
<!-- Node2 -->
<g id="node2" class="node">
<title>Node2</title>
<g id="a_node2"><a xlink:title=" ">
<polygon fill="#e0e0e0" stroke="#999999" points="420.25,-74.5 369.75,-74.5 369.75,-55.25 420.25,-55.25 420.25,-74.5"/>
<text text-anchor="middle" x="395" y="-61" font-family="Helvetica,sans-Serif" font-size="10.00">stddef.h</text>
</a>
</g>
</g>
<!-- Node1&#45;&gt;Node2 -->
<g id="edge1" class="edge">
<title>Node1&#45;&gt;Node2</title>
<path fill="none" stroke="#63b8ff" d="M1805.19,-782.49C1546.85,-783.71 539.25,-785.27 226,-737.5 122.81,-721.76 0,-778 0,-673.62 0,-673.62 0,-673.62 0,-229.62 0,-162.73 34.27,-144.3 92,-110.5 136.64,-84.36 288.49,-72.18 358.76,-67.83"/>
<polygon fill="#63b8ff" stroke="#63b8ff" points="358.54,-71.29 368.31,-67.2 358.12,-64.31 358.54,-71.29"/>
</g>
<!-- Node3 -->
<g id="node3" class="node">
<title>Node3</title>
<g id="a_node3"><a xlink:title=" ">
<polygon fill="#e0e0e0" stroke="#999999" points="2549.75,-74.5 2502.25,-74.5 2502.25,-55.25 2549.75,-55.25 2549.75,-74.5"/>
<text text-anchor="middle" x="2526" y="-61" font-family="Helvetica,sans-Serif" font-size="10.00">stdint.h</text>
</a>
</g>
</g>
<!-- Node1&#45;&gt;Node3 -->
<g id="edge2" class="edge">
<title>Node1&#45;&gt;Node3</title>
<path fill="none" stroke="#63b8ff" d="M1926.74,-781.1C2078.49,-778.11 2471.1,-767.61 2598,-737.5 2668.1,-720.87 2747,-745.68 2747,-673.62 2747,-673.62 2747,-673.62 2747,-340.12 2747,-216.14 2608.35,-116.51 2550.69,-80.43"/>
<polygon fill="#63b8ff" stroke="#63b8ff" points="2552.89,-77.07 2542.54,-74.82 2549.23,-83.03 2552.89,-77.07"/>
</g>
<!-- Node4 -->
<g id="node4" class="node">
<title>Node4</title>
<g id="a_node4"><a xlink:href="v8-callbacks_8h.html" target="_top" xlink:title=" ">
<polygon fill="white" stroke="#666666" points="1075.12,-571.75 996.88,-571.75 996.88,-552.5 1075.12,-552.5 1075.12,-571.75"/>
<text text-anchor="middle" x="1036" y="-558.25" font-family="Helvetica,sans-Serif" font-size="10.00">v8&#45;callbacks.h</text>
</a>
</g>
</g>
<!-- Node1&#45;&gt;Node4 -->
<g id="edge3" class="edge">
<title>Node1&#45;&gt;Node4</title>
<path fill="none" stroke="#63b8ff" d="M1805.05,-782.03C1638.88,-780.63 1182.48,-768.8 1065,-682.25 1034.25,-659.59 1032.36,-610.17 1033.98,-582.63"/>
<polygon fill="#63b8ff" stroke="#63b8ff" points="1037.52,-583.26 1034.85,-573.01 1030.54,-582.69 1037.52,-583.26"/>
</g>
<!-- Node8 -->
<g id="node8" class="node">
<title>Node8</title>
<g id="a_node8"><a xlink:href="v8config_8h.html" target="_top" xlink:title=" ">
<polygon fill="white" stroke="#666666" points="1934.75,-74.5 1875.25,-74.5 1875.25,-55.25 1934.75,-55.25 1934.75,-74.5"/>
<text text-anchor="middle" x="1905" y="-61" font-family="Helvetica,sans-Serif" font-size="10.00">v8config.h</text>
</a>
</g>
</g>
<!-- Node1&#45;&gt;Node8 -->
<g id="edge156" class="edge">
<title>Node1&#45;&gt;Node8</title>
<path fill="none" stroke="#63b8ff" d="M1926.97,-780.69C2120.61,-775.32 2709,-752.52 2709,-673.62 2709,-673.62 2709,-673.62 2709,-561.12 2709,-359.79 2430.26,-176.25 2287,-110.5 2226.96,-82.95 2031.53,-71.33 1945.86,-67.47"/>
<polygon fill="#63b8ff" stroke="#63b8ff" points="1946.15,-63.94 1936.01,-67 1945.85,-70.93 1946.15,-63.94"/>
</g>
<!-- Node15 -->
<g id="node15" class="node">
<title>Node15</title>
<g id="a_node15"><a xlink:href="v8-internal_8h.html" target="_top" xlink:title=" ">
<polygon fill="white" stroke="#666666" points="743.25,-129.75 674.75,-129.75 674.75,-110.5 743.25,-110.5 743.25,-129.75"/>
<text text-anchor="middle" x="709" y="-116.25" font-family="Helvetica,sans-Serif" font-size="10.00">v8&#45;internal.h</text>
</a>
</g>
</g>
<!-- Node1&#45;&gt;Node15 -->
<g id="edge70" class="edge">
<title>Node1&#45;&gt;Node15</title>
<path fill="none" stroke="#63b8ff" d="M1805.16,-781.69C1491.96,-779.05 76,-762.23 76,-673.62 76,-673.62 76,-673.62 76,-450.62 76,-185.28 519.04,-133.29 663.82,-123.39"/>
<polygon fill="#63b8ff" stroke="#63b8ff" points="663.76,-126.84 673.52,-122.7 663.31,-119.85 663.76,-126.84"/>
</g>
<!-- Node29 -->
<g id="node29" class="node">
<title>Node29</title>
<g id="a_node29"><a xlink:href="v8-isolate_8h.html" target="_top" xlink:title=" ">
<polygon fill="white" stroke="#666666" points="1898.75,-737.5 1833.25,-737.5 1833.25,-718.25 1898.75,-718.25 1898.75,-737.5"/>
<text text-anchor="middle" x="1866" y="-724" font-family="Helvetica,sans-Serif" font-size="10.00">v8&#45;isolate.h</text>
</a>
</g>
</g>
<!-- Node1&#45;&gt;Node29 -->
<g id="edge71" class="edge">
<title>Node1&#45;&gt;Node29</title>
<path fill="none" stroke="#63b8ff" d="M1866,-773.33C1866,-766.67 1866,-757.24 1866,-748.78"/>
<polygon fill="#63b8ff" stroke="#63b8ff" points="1869.5,-748.86 1866,-738.86 1862.5,-748.86 1869.5,-748.86"/>
</g>
<!-- Node46 -->
<g id="node46" class="node">
<title>Node46</title>
<g id="a_node46"><a xlink:href="v8-platform_8h.html" target="_top" xlink:title=" ">
<polygon fill="white" stroke="#666666" points="2835.12,-185 2762.88,-185 2762.88,-165.75 2835.12,-165.75 2835.12,-185"/>
<text text-anchor="middle" x="2799" y="-171.5" font-family="Helvetica,sans-Serif" font-size="10.00">v8&#45;platform.h</text>
</a>
</g>
</g>
<!-- Node1&#45;&gt;Node46 -->
<g id="edge144" class="edge">
<title>Node1&#45;&gt;Node46</title>
<path fill="none" stroke="#63b8ff" d="M1926.75,-782.64C2116.85,-783.75 2691.82,-783.26 2761,-737.5 2787.32,-720.09 2792,-705.18 2792,-673.62 2792,-673.62 2792,-673.62 2792,-284.88 2792,-253.8 2794.89,-217.83 2796.96,-196.11"/>
<polygon fill="#63b8ff" stroke="#63b8ff" points="2800.52,-196.66 2798.03,-186.36 2793.56,-195.97 2800.52,-196.66"/>
</g>
<!-- Node4&#45;&gt;Node2 -->
<g id="edge4" class="edge">
<title>Node4&#45;&gt;Node2</title>
<path fill="none" stroke="#63b8ff" d="M996.52,-560.71C855.08,-558.52 375.53,-544.95 252,-461.25 200.13,-426.11 114,-309.41 114,-231.62 114,-231.62 114,-231.62 114,-174.38 114,-144.05 114.64,-129.84 138,-110.5 171,-83.17 295.63,-71.86 358.4,-67.82"/>
<polygon fill="#63b8ff" stroke="#63b8ff" points="358.6,-71.26 368.36,-67.15 358.17,-64.27 358.6,-71.26"/>
</g>
<!-- Node5 -->
<g id="node5" class="node">
<title>Node5</title>
<g id="a_node5"><a xlink:title=" ">
<polygon fill="#e0e0e0" stroke="#999999" points="862,-516.5 804,-516.5 804,-497.25 862,-497.25 862,-516.5"/>
<text text-anchor="middle" x="833" y="-503" font-family="Helvetica,sans-Serif" font-size="10.00">functional</text>
</a>
</g>
</g>
<!-- Node4&#45;&gt;Node5 -->
<g id="edge5" class="edge">
<title>Node4&#45;&gt;Node5</title>
<path fill="none" stroke="#63b8ff" d="M1001.56,-552.09C965.94,-542.75 910.37,-528.17 872.87,-518.33"/>
<polygon fill="#63b8ff" stroke="#63b8ff" points="873.89,-514.72 863.32,-515.57 872.11,-521.49 873.89,-514.72"/>
</g>
<!-- Node6 -->
<g id="node6" class="node">
<title>Node6</title>
<g id="a_node6"><a xlink:title=" ">
<polygon fill="#e0e0e0" stroke="#999999" points="2933,-74.5 2893,-74.5 2893,-55.25 2933,-55.25 2933,-74.5"/>
<text text-anchor="middle" x="2913" y="-61" font-family="Helvetica,sans-Serif" font-size="10.00">string</text>
</a>
</g>
</g>
<!-- Node4&#45;&gt;Node6 -->
<g id="edge6" class="edge">
<title>Node4&#45;&gt;Node6</title>
<path fill="none" stroke="#63b8ff" d="M1075.35,-558.55C1295.44,-544.08 2365.2,-473.28 2397,-461.25 2440.87,-444.65 2481,-444.28 2481,-397.38 2481,-397.38 2481,-397.38 2481,-340.12 2481,-149.99 2782.95,-86.09 2881.97,-70.24"/>
<polygon fill="#63b8ff" stroke="#63b8ff" points="2882.39,-73.56 2891.74,-68.58 2881.33,-66.64 2882.39,-73.56"/>
</g>
<!-- Node7 -->
<g id="node7" class="node">
<title>Node7</title>
<g id="a_node7"><a xlink:href="common_8h.html" target="_top" xlink:title=" ">
<polygon fill="white" stroke="#666666" points="2104.12,-516.5 2013.88,-516.5 2013.88,-497.25 2104.12,-497.25 2104.12,-516.5"/>
<text text-anchor="middle" x="2059" y="-503" font-family="Helvetica,sans-Serif" font-size="10.00">cppgc/common.h</text>
</a>
</g>
</g>
<!-- Node4&#45;&gt;Node7 -->
<g id="edge7" class="edge">
<title>Node4&#45;&gt;Node7</title>
<path fill="none" stroke="#63b8ff" d="M1075.48,-559.07C1233.09,-550.87 1817.67,-520.44 2002.56,-510.81"/>
<polygon fill="#63b8ff" stroke="#63b8ff" points="2002.58,-514.26 2012.38,-510.25 2002.21,-507.27 2002.58,-514.26"/>
</g>
<!-- Node4&#45;&gt;Node8 -->
<g id="edge69" class="edge">
<title>Node4&#45;&gt;Node8</title>
<path fill="none" stroke="#63b8ff" d="M1075.41,-555.25C1143.33,-544.03 1285.59,-515.68 1394,-461.25 1612.29,-351.66 1828.95,-142.43 1888.81,-82.37"/>
<polygon fill="#63b8ff" stroke="#63b8ff" points="1890.65,-85.48 1895.2,-75.91 1885.68,-80.55 1890.65,-85.48"/>
</g>
<!-- Node10 -->
<g id="node10" class="node">
<title>Node10</title>
<g id="a_node10"><a xlink:href="v8-data_8h.html" target="_top" xlink:title=" ">
<polygon fill="white" stroke="#666666" points="1185.88,-295.5 1130.12,-295.5 1130.12,-276.25 1185.88,-276.25 1185.88,-295.5"/>
<text text-anchor="middle" x="1158" y="-282" font-family="Helvetica,sans-Serif" font-size="10.00">v8&#45;data.h</text>
</a>
</g>
</g>
<!-- Node4&#45;&gt;Node10 -->
<g id="edge10" class="edge">
<title>Node4&#45;&gt;Node10</title>
<path fill="none" stroke="#63b8ff" d="M1034.11,-552.14C1027.71,-519.08 1009.92,-402.44 1061,-331.5 1074.74,-312.41 1098.69,-301.28 1119.35,-294.91"/>
<polygon fill="#63b8ff" stroke="#63b8ff" points="1120.1,-298.06 1128.79,-292 1118.21,-291.32 1120.1,-298.06"/>
</g>
<!-- Node11 -->
<g id="node11" class="node">
<title>Node11</title>
<g id="a_node11"><a xlink:href="v8-local-handle_8h.html" target="_top" xlink:title=" ">
<polygon fill="white" stroke="#666666" points="781.38,-240.25 692.62,-240.25 692.62,-221 781.38,-221 781.38,-240.25"/>
<text text-anchor="middle" x="737" y="-226.75" font-family="Helvetica,sans-Serif" font-size="10.00">v8&#45;local&#45;handle.h</text>
</a>
</g>
</g>
<!-- Node4&#45;&gt;Node11 -->
<g id="edge27" class="edge">
<title>Node4&#45;&gt;Node11</title>
<path fill="none" stroke="#63b8ff" d="M1013.2,-552.09C948.71,-525.04 765.93,-437.66 708,-295.5 701.49,-279.53 711.06,-261.68 720.91,-248.92"/>
<polygon fill="#63b8ff" stroke="#63b8ff" points="724.13,-251.52 727.9,-241.62 718.78,-247.01 724.13,-251.52"/>
</g>
<!-- Node19 -->
<g id="node19" class="node">
<title>Node19</title>
<g id="a_node19"><a xlink:href="v8-promise_8h.html" target="_top" xlink:title=" ">
<polygon fill="white" stroke="#666666" points="1392.75,-516.5 1321.25,-516.5 1321.25,-497.25 1392.75,-497.25 1392.75,-516.5"/>
<text text-anchor="middle" x="1357" y="-503" font-family="Helvetica,sans-Serif" font-size="10.00">v8&#45;promise.h</text>
</a>
</g>
</g>
<!-- Node4&#45;&gt;Node19 -->
<g id="edge28" class="edge">
<title>Node4&#45;&gt;Node19</title>
<path fill="none" stroke="#63b8ff" d="M1075.36,-554.6C1134.71,-544.75 1246.89,-526.14 1310.29,-515.62"/>
<polygon fill="#63b8ff" stroke="#63b8ff" points="1310.49,-518.97 1319.78,-513.88 1309.34,-512.07 1310.49,-518.97"/>
</g>
<!-- Node7&#45;&gt;Node8 -->
<g id="edge8" class="edge">
<title>Node7&#45;&gt;Node8</title>
<path fill="none" stroke="#63b8ff" d="M2062.85,-497.08C2077.24,-463.38 2127,-339.05 2127,-231.62 2127,-231.62 2127,-231.62 2127,-174.38 2127,-144.05 2125.87,-130.42 2103,-110.5 2079.85,-90.34 1996.51,-76.95 1945.62,-70.46"/>
<polygon fill="#63b8ff" stroke="#63b8ff" points="1946.34,-66.89 1935.98,-69.14 1945.48,-73.84 1946.34,-66.89"/>
</g>
<!-- Node9 -->
<g id="node9" class="node">
<title>Node9</title>
<g id="a_node9"><a xlink:title=" ">
<polygon fill="#e0e0e0" stroke="#999999" points="1601.25,-19.25 1550.75,-19.25 1550.75,0 1601.25,0 1601.25,-19.25"/>
<text text-anchor="middle" x="1576" y="-5.75" font-family="Helvetica,sans-Serif" font-size="10.00">memory</text>
</a>
</g>
</g>
<!-- Node8&#45;&gt;Node9 -->
<g id="edge9" class="edge">
<title>Node8&#45;&gt;Node9</title>
<path fill="none" stroke="#63b8ff" d="M1874.93,-59.01C1814.35,-49.2 1677.83,-27.11 1612.36,-16.51"/>
<polygon fill="#63b8ff" stroke="#63b8ff" points="1613.17,-12.93 1602.74,-14.79 1612.05,-19.84 1613.17,-12.93"/>
</g>
<!-- Node10&#45;&gt;Node8 -->
<g id="edge26" class="edge">
<title>Node10&#45;&gt;Node8</title>
<path fill="none" stroke="#63b8ff" d="M1129.73,-279.22C1096.48,-271 1047.4,-253.12 1061,-221 1067.88,-204.76 1158.86,-117.62 1175,-110.5 1238.12,-82.66 1720.22,-69.93 1864.4,-66.72"/>
<polygon fill="#63b8ff" stroke="#63b8ff" points="1864.04,-70.2 1873.97,-66.48 1863.89,-63.2 1864.04,-70.2"/>
</g>
<!-- Node10&#45;&gt;Node11 -->
<g id="edge11" class="edge">
<title>Node10&#45;&gt;Node11</title>
<path fill="none" stroke="#63b8ff" d="M1129.72,-281.3C1060.81,-272.58 883.19,-250.12 792.33,-238.62"/>
<polygon fill="#63b8ff" stroke="#63b8ff" points="793.05,-235.06 782.69,-237.28 792.17,-242 793.05,-235.06"/>
</g>
<!-- Node11&#45;&gt;Node2 -->
<g id="edge12" class="edge">
<title>Node11&#45;&gt;Node2</title>
<path fill="none" stroke="#63b8ff" d="M701.36,-220.52C672.79,-212.67 632.01,-200.21 598,-185 528.49,-153.9 452.61,-104.96 416.47,-80.63"/>
<polygon fill="#63b8ff" stroke="#63b8ff" points="419,-77.44 408.76,-74.72 415.08,-83.23 419,-77.44"/>
</g>
<!-- Node12 -->
<g id="node12" class="node">
<title>Node12</title>
<g id="a_node12"><a xlink:title=" ">
<polygon fill="#e0e0e0" stroke="#999999" points="1020.5,-74.5 959.5,-74.5 959.5,-55.25 1020.5,-55.25 1020.5,-74.5"/>
<text text-anchor="middle" x="990" y="-61" font-family="Helvetica,sans-Serif" font-size="10.00">type_traits</text>
</a>
</g>
</g>
<!-- Node11&#45;&gt;Node12 -->
<g id="edge13" class="edge">
<title>Node11&#45;&gt;Node12</title>
<path fill="none" stroke="#63b8ff" d="M744.5,-220.55C762.98,-198.7 813.1,-142.61 866,-110.5 891.76,-94.87 923.83,-83.51 948.9,-76.16"/>
<polygon fill="#63b8ff" stroke="#63b8ff" points="949.5,-79.35 958.18,-73.26 947.6,-72.61 949.5,-79.35"/>
</g>
<!-- Node13 -->
<g id="node13" class="node">
<title>Node13</title>
<g id="a_node13"><a xlink:title=" ">
<polygon fill="#e0e0e0" stroke="#999999" points="1658.5,-185 1615.5,-185 1615.5,-165.75 1658.5,-165.75 1658.5,-185"/>
<text text-anchor="middle" x="1637" y="-171.5" font-family="Helvetica,sans-Serif" font-size="10.00">vector</text>
</a>
</g>
</g>
<!-- Node11&#45;&gt;Node13 -->
<g id="edge14" class="edge">
<title>Node11&#45;&gt;Node13</title>
<path fill="none" stroke="#63b8ff" d="M781.63,-226.98C939.29,-217.66 1467.91,-186.38 1604.54,-178.3"/>
<polygon fill="#63b8ff" stroke="#63b8ff" points="1604.34,-181.75 1614.12,-177.67 1603.93,-174.77 1604.34,-181.75"/>
</g>
<!-- Node14 -->
<g id="node14" class="node">
<title>Node14</title>
<g id="a_node14"><a xlink:href="v8-handle-base_8h.html" target="_top" xlink:title=" ">
<polygon fill="white" stroke="#666666" points="704.75,-185 615.25,-185 615.25,-165.75 704.75,-165.75 704.75,-185"/>
<text text-anchor="middle" x="660" y="-171.5" font-family="Helvetica,sans-Serif" font-size="10.00">v8&#45;handle&#45;base.h</text>
</a>
</g>
</g>
<!-- Node11&#45;&gt;Node14 -->
<g id="edge15" class="edge">
<title>Node11&#45;&gt;Node14</title>
<path fill="none" stroke="#63b8ff" d="M723.94,-220.59C712.43,-212.64 695.44,-200.89 681.87,-191.5"/>
<polygon fill="#63b8ff" stroke="#63b8ff" points="684.34,-188.26 674.13,-185.45 680.36,-194.02 684.34,-188.26"/>
</g>
<!-- Node11&#45;&gt;Node15 -->
<g id="edge25" class="edge">
<title>Node11&#45;&gt;Node15</title>
<path fill="none" stroke="#63b8ff" d="M692.42,-227.24C662.65,-223.06 625.51,-212.25 606,-185 587.11,-158.6 628.39,-140.83 664.18,-130.86"/>
<polygon fill="#63b8ff" stroke="#63b8ff" points="664.77,-134.06 673.56,-128.14 663,-127.29 664.77,-134.06"/>
</g>
<!-- Node14&#45;&gt;Node15 -->
<g id="edge16" class="edge">
<title>Node14&#45;&gt;Node15</title>
<path fill="none" stroke="#63b8ff" d="M668.09,-165.58C674.93,-158.15 684.93,-147.29 693.32,-138.16"/>
<polygon fill="#63b8ff" stroke="#63b8ff" points="695.54,-140.84 699.73,-131.11 690.39,-136.1 695.54,-140.84"/>
</g>
<!-- Node15&#45;&gt;Node2 -->
<g id="edge17" class="edge">
<title>Node15&#45;&gt;Node2</title>
<path fill="none" stroke="#63b8ff" d="M674.4,-112.86C669.89,-112.06 665.34,-111.25 661,-110.5 579.08,-96.27 482.82,-80.31 431.53,-71.87"/>
<polygon fill="#63b8ff" stroke="#63b8ff" points="432.13,-68.25 421.7,-70.08 430.99,-75.16 432.13,-68.25"/>
</g>
<!-- Node15&#45;&gt;Node3 -->
<g id="edge18" class="edge">
<title>Node15&#45;&gt;Node3</title>
<path fill="none" stroke="#63b8ff" d="M743.6,-116.95C775.4,-115.01 823.86,-112.22 866,-110.5 1518.91,-83.8 2316.95,-69.4 2491.31,-66.45"/>
<polygon fill="#63b8ff" stroke="#63b8ff" points="2491.17,-69.93 2501.11,-66.27 2491.05,-62.93 2491.17,-69.93"/>
</g>
<!-- Node15&#45;&gt;Node8 -->
<g id="edge24" class="edge">
<title>Node15&#45;&gt;Node8</title>
<path fill="none" stroke="#63b8ff" d="M743.6,-117.1C775.41,-115.28 823.87,-112.56 866,-110.5 1254.47,-91.49 1724.85,-72.87 1864.23,-67.45"/>
<polygon fill="#63b8ff" stroke="#63b8ff" points="1863.96,-70.92 1873.82,-67.04 1863.69,-63.93 1863.96,-70.92"/>
</g>
<!-- Node15&#45;&gt;Node9 -->
<g id="edge22" class="edge">
<title>Node15&#45;&gt;Node9</title>
<path fill="none" stroke="#63b8ff" d="M714,-110.1C722.63,-95.52 741.84,-67.23 767,-55.25 837.32,-21.77 1391.5,-12.82 1539.67,-11.01"/>
<polygon fill="#63b8ff" stroke="#63b8ff" points="1539.45,-14.51 1549.41,-10.89 1539.37,-7.51 1539.45,-14.51"/>
</g>
<!-- Node15&#45;&gt;Node12 -->
<g id="edge23" class="edge">
<title>Node15&#45;&gt;Node12</title>
<path fill="none" stroke="#63b8ff" d="M743.54,-113.15C788.54,-105.28 869.93,-90.76 948.76,-74.9"/>
<polygon fill="#63b8ff" stroke="#63b8ff" points="949.26,-78.17 958.36,-72.76 947.87,-71.31 949.26,-78.17"/>
</g>
<!-- Node16 -->
<g id="node16" class="node">
<title>Node16</title>
<g id="a_node16"><a xlink:title=" ">
<polygon fill="#e0e0e0" stroke="#999999" points="719.75,-74.5 672.25,-74.5 672.25,-55.25 719.75,-55.25 719.75,-74.5"/>
<text text-anchor="middle" x="696" y="-61" font-family="Helvetica,sans-Serif" font-size="10.00">string.h</text>
</a>
</g>
</g>
<!-- Node15&#45;&gt;Node16 -->
<g id="edge19" class="edge">
<title>Node15&#45;&gt;Node16</title>
<path fill="none" stroke="#63b8ff" d="M706.85,-110.33C705.21,-103.59 702.87,-94.02 700.79,-85.49"/>
<polygon fill="#63b8ff" stroke="#63b8ff" points="703.97,-84.74 698.19,-75.86 697.16,-86.4 703.97,-84.74"/>
</g>
<!-- Node17 -->
<g id="node17" class="node">
<title>Node17</title>
<g id="a_node17"><a xlink:title=" ">
<polygon fill="#e0e0e0" stroke="#999999" points="821.62,-74.5 776.38,-74.5 776.38,-55.25 821.62,-55.25 821.62,-74.5"/>
<text text-anchor="middle" x="799" y="-61" font-family="Helvetica,sans-Serif" font-size="10.00">atomic</text>
</a>
</g>
</g>
<!-- Node15&#45;&gt;Node17 -->
<g id="edge20" class="edge">
<title>Node15&#45;&gt;Node17</title>
<path fill="none" stroke="#63b8ff" d="M724.27,-110.09C737.97,-101.98 758.34,-89.93 774.35,-80.46"/>
<polygon fill="#63b8ff" stroke="#63b8ff" points="775.83,-83.06 782.66,-74.95 772.27,-77.03 775.83,-83.06"/>
</g>
<!-- Node18 -->
<g id="node18" class="node">
<title>Node18</title>
<g id="a_node18"><a xlink:title=" ">
<polygon fill="#e0e0e0" stroke="#999999" points="886,-74.5 840,-74.5 840,-55.25 886,-55.25 886,-74.5"/>
<text text-anchor="middle" x="863" y="-61" font-family="Helvetica,sans-Serif" font-size="10.00">iterator</text>
</a>
</g>
</g>
<!-- Node15&#45;&gt;Node18 -->
<g id="edge21" class="edge">
<title>Node15&#45;&gt;Node18</title>
<path fill="none" stroke="#63b8ff" d="M735.12,-110.09C761.15,-101.09 801.21,-87.24 829.54,-77.44"/>
<polygon fill="#63b8ff" stroke="#63b8ff" points="830.47,-80.48 838.78,-73.91 828.18,-73.87 830.47,-80.48"/>
</g>
<!-- Node19&#45;&gt;Node8 -->
<g id="edge68" class="edge">
<title>Node19&#45;&gt;Node8</title>
<path fill="none" stroke="#63b8ff" d="M1382.85,-496.81C1490.02,-459.14 1894.82,-315.95 1915,-295.5 1973.16,-236.56 1967.94,-187.3 1937,-110.5 1933.06,-100.71 1926.54,-91.05 1920.42,-83.23"/>
<polygon fill="#63b8ff" stroke="#63b8ff" points="1922.66,-81.45 1913.58,-76 1917.28,-85.93 1922.66,-81.45"/>
</g>
<!-- Node19&#45;&gt;Node11 -->
<g id="edge29" class="edge">
<title>Node19&#45;&gt;Node11</title>
<path fill="none" stroke="#63b8ff" d="M1337.77,-496.82C1307.59,-482.97 1246.97,-456.61 1193,-442 1094.4,-415.31 1060.94,-443.69 966,-406 925.5,-389.92 920.38,-376.18 885,-350.75 851.96,-327 843.72,-320.98 812,-295.5 792.16,-279.56 770.04,-260.57 755,-247.46"/>
<polygon fill="#63b8ff" stroke="#63b8ff" points="757.87,-244.44 748.03,-240.49 753.26,-249.71 757.87,-244.44"/>
</g>
<!-- Node20 -->
<g id="node20" class="node">
<title>Node20</title>
<g id="a_node20"><a xlink:href="v8-object_8h.html" target="_top" xlink:title=" ">
<polygon fill="white" stroke="#666666" points="1384.62,-461.25 1321.38,-461.25 1321.38,-442 1384.62,-442 1384.62,-461.25"/>
<text text-anchor="middle" x="1353" y="-447.75" font-family="Helvetica,sans-Serif" font-size="10.00">v8&#45;object.h</text>
</a>
</g>
</g>
<!-- Node19&#45;&gt;Node20 -->
<g id="edge30" class="edge">
<title>Node19&#45;&gt;Node20</title>
<path fill="none" stroke="#63b8ff" d="M1356.34,-497.08C1355.84,-490.42 1355.13,-480.99 1354.5,-472.53"/>
<polygon fill="#63b8ff" stroke="#63b8ff" points="1357.91,-472.32 1353.67,-462.61 1350.93,-472.84 1357.91,-472.32"/>
</g>
<!-- Node20&#45;&gt;Node8 -->
<g id="edge67" class="edge">
<title>Node20&#45;&gt;Node8</title>
<path fill="none" stroke="#63b8ff" d="M1357.19,-441.67C1378.9,-396.47 1483.46,-192.35 1638,-110.5 1676.57,-90.07 1799.74,-75.79 1864.43,-69.5"/>
<polygon fill="#63b8ff" stroke="#63b8ff" points="1864.43,-72.92 1874.05,-68.48 1863.76,-65.95 1864.43,-72.92"/>
</g>
<!-- Node20&#45;&gt;Node11 -->
<g id="edge31" class="edge">
<title>Node20&#45;&gt;Node11</title>
<path fill="none" stroke="#63b8ff" d="M1321.09,-448.21C1247.94,-442.4 1070.16,-426.56 1014,-406 913.8,-369.32 902.75,-332.37 812,-276.25 795.46,-266.02 776.65,-254.83 762,-246.21"/>
<polygon fill="#63b8ff" stroke="#63b8ff" points="764,-242.74 753.61,-240.7 760.46,-248.78 764,-242.74"/>
</g>
<!-- Node21 -->
<g id="node21" class="node">
<title>Node21</title>
<g id="a_node21"><a xlink:href="v8-maybe_8h.html" target="_top" xlink:title=" ">
<polygon fill="white" stroke="#666666" points="1573.75,-295.5 1508.25,-295.5 1508.25,-276.25 1573.75,-276.25 1573.75,-295.5"/>
<text text-anchor="middle" x="1541" y="-282" font-family="Helvetica,sans-Serif" font-size="10.00">v8&#45;maybe.h</text>
</a>
</g>
</g>
<!-- Node20&#45;&gt;Node21 -->
<g id="edge32" class="edge">
<title>Node20&#45;&gt;Node21</title>
<path fill="none" stroke="#63b8ff" d="M1363.79,-441.7C1373.8,-433.13 1388.8,-419.52 1400,-406 1425.13,-375.67 1418.46,-357.56 1448,-331.5 1463.6,-317.73 1484.2,-307.27 1502.05,-299.95"/>
<polygon fill="#63b8ff" stroke="#63b8ff" points="1503.13,-302.89 1511.18,-296 1500.59,-296.37 1503.13,-302.89"/>
</g>
<!-- Node23 -->
<g id="node23" class="node">
<title>Node23</title>
<g id="a_node23"><a xlink:href="v8-persistent-handle_8h.html" target="_top" xlink:title=" ">
<polygon fill="white" stroke="#666666" points="1905.62,-295.5 1794.38,-295.5 1794.38,-276.25 1905.62,-276.25 1905.62,-295.5"/>
<text text-anchor="middle" x="1850" y="-282" font-family="Helvetica,sans-Serif" font-size="10.00">v8&#45;persistent&#45;handle.h</text>
</a>
</g>
</g>
<!-- Node20&#45;&gt;Node23 -->
<g id="edge37" class="edge">
<title>Node20&#45;&gt;Node23</title>
<path fill="none" stroke="#63b8ff" d="M1380.43,-441.59C1464,-414.05 1715.61,-331.15 1811.92,-299.42"/>
<polygon fill="#63b8ff" stroke="#63b8ff" points="1812.95,-302.44 1821.35,-295.98 1810.76,-295.79 1812.95,-302.44"/>
</g>
<!-- Node25 -->
<g id="node25" class="node">
<title>Node25</title>
<g id="a_node25"><a xlink:href="v8-primitive_8h.html" target="_top" xlink:title=" ">
<polygon fill="white" stroke="#666666" points="1167.88,-406 1094.12,-406 1094.12,-386.75 1167.88,-386.75 1167.88,-406"/>
<text text-anchor="middle" x="1131" y="-392.5" font-family="Helvetica,sans-Serif" font-size="10.00">v8&#45;primitive.h</text>
</a>
</g>
</g>
<!-- Node20&#45;&gt;Node25 -->
<g id="edge43" class="edge">
<title>Node20&#45;&gt;Node25</title>
<path fill="none" stroke="#63b8ff" d="M1321.19,-443C1283.95,-434.06 1221.87,-419.17 1178.82,-408.84"/>
<polygon fill="#63b8ff" stroke="#63b8ff" points="1179.85,-405.25 1169.31,-406.32 1178.22,-412.06 1179.85,-405.25"/>
</g>
<!-- Node26 -->
<g id="node26" class="node">
<title>Node26</title>
<g id="a_node26"><a xlink:href="v8-value_8h.html" target="_top" xlink:title=" ">
<polygon fill="white" stroke="#666666" points="1130.12,-350.75 1069.88,-350.75 1069.88,-331.5 1130.12,-331.5 1130.12,-350.75"/>
<text text-anchor="middle" x="1100" y="-337.25" font-family="Helvetica,sans-Serif" font-size="10.00">v8&#45;value.h</text>
</a>
</g>
</g>
<!-- Node20&#45;&gt;Node26 -->
<g id="edge66" class="edge">
<title>Node20&#45;&gt;Node26</title>
<path fill="none" stroke="#63b8ff" d="M1320.97,-446.41C1251.51,-437.12 1092.61,-414.99 1085,-406 1074.22,-393.27 1080.68,-374.2 1088.19,-360.21"/>
<polygon fill="#63b8ff" stroke="#63b8ff" points="1091.51,-362.47 1093.61,-352.09 1085.49,-358.9 1091.51,-362.47"/>
</g>
<!-- Node27 -->
<g id="node27" class="node">
<title>Node27</title>
<g id="a_node27"><a xlink:href="v8-traced-handle_8h.html" target="_top" xlink:title=" ">
<polygon fill="white" stroke="#666666" points="1413.75,-295.5 1318.25,-295.5 1318.25,-276.25 1413.75,-276.25 1413.75,-295.5"/>
<text text-anchor="middle" x="1366" y="-282" font-family="Helvetica,sans-Serif" font-size="10.00">v8&#45;traced&#45;handle.h</text>
</a>
</g>
</g>
<!-- Node20&#45;&gt;Node27 -->
<g id="edge54" class="edge">
<title>Node20&#45;&gt;Node27</title>
<path fill="none" stroke="#63b8ff" d="M1353.7,-441.82C1355.72,-416.39 1361.6,-342.35 1364.43,-306.62"/>
<polygon fill="#63b8ff" stroke="#63b8ff" points="1368,-306.97 1365.3,-296.72 1361.02,-306.41 1368,-306.97"/>
</g>
<!-- Node21&#45;&gt;Node8 -->
<g id="edge36" class="edge">
<title>Node21&#45;&gt;Node8</title>
<path fill="none" stroke="#63b8ff" d="M1544.24,-276.01C1555.88,-245.64 1598.92,-145.69 1673,-110.5 1735.42,-80.85 1816.18,-70.9 1864.09,-67.56"/>
<polygon fill="#63b8ff" stroke="#63b8ff" points="1864.19,-71 1873.95,-66.88 1863.75,-64.01 1864.19,-71"/>
</g>
<!-- Node21&#45;&gt;Node12 -->
<g id="edge33" class="edge">
<title>Node21&#45;&gt;Node12</title>
<path fill="none" stroke="#63b8ff" d="M1526.52,-275.8C1505.1,-262.63 1463.46,-237.93 1426,-221 1285.1,-157.33 1109.65,-101.72 1031.22,-78.04"/>
<polygon fill="#63b8ff" stroke="#63b8ff" points="1032.39,-74.44 1021.81,-74.91 1030.38,-81.14 1032.39,-74.44"/>
</g>
<!-- Node21&#45;&gt;Node15 -->
<g id="edge35" class="edge">
<title>Node21&#45;&gt;Node15</title>
<path fill="none" stroke="#63b8ff" d="M1523.12,-275.95C1494.48,-262.04 1436.22,-235.29 1384,-221 1223.2,-177 1178.04,-189.25 1013,-165.75 898.89,-149.5 866.93,-150.52 754.22,-130.81"/>
<polygon fill="#63b8ff" stroke="#63b8ff" points="754.88,-127.19 744.42,-128.9 753.66,-134.09 754.88,-127.19"/>
</g>
<!-- Node22 -->
<g id="node22" class="node">
<title>Node22</title>
<g id="a_node22"><a xlink:title=" ">
<polygon fill="#e0e0e0" stroke="#999999" points="1621.25,-240.25 1582.75,-240.25 1582.75,-221 1621.25,-221 1621.25,-240.25"/>
<text text-anchor="middle" x="1602" y="-226.75" font-family="Helvetica,sans-Serif" font-size="10.00">utility</text>
</a>
</g>
</g>
<!-- Node21&#45;&gt;Node22 -->
<g id="edge34" class="edge">
<title>Node21&#45;&gt;Node22</title>
<path fill="none" stroke="#63b8ff" d="M1551.35,-275.84C1560.16,-268.15 1573.05,-256.9 1583.61,-247.68"/>
<polygon fill="#63b8ff" stroke="#63b8ff" points="1585.57,-249.74 1590.81,-240.52 1580.97,-244.46 1585.57,-249.74"/>
</g>
<!-- Node23&#45;&gt;Node8 -->
<g id="edge42" class="edge">
<title>Node23&#45;&gt;Node8</title>
<path fill="none" stroke="#63b8ff" d="M1874.8,-275.79C1890.26,-268.69 1908.88,-257.15 1918,-240.25 1945.34,-189.61 1925.06,-118.35 1912.69,-84.78"/>
<polygon fill="#63b8ff" stroke="#63b8ff" points="1915.75,-83.99 1908.88,-75.92 1909.23,-86.51 1915.75,-83.99"/>
</g>
<!-- Node23&#45;&gt;Node11 -->
<g id="edge39" class="edge">
<title>Node23&#45;&gt;Node11</title>
<path fill="none" stroke="#63b8ff" d="M1794.04,-282.2C1603.66,-273.09 982.31,-243.36 792.54,-234.28"/>
<polygon fill="#63b8ff" stroke="#63b8ff" points="792.88,-230.75 782.72,-233.76 792.55,-237.74 792.88,-230.75"/>
</g>
<!-- Node23&#45;&gt;Node15 -->
<g id="edge38" class="edge">
<title>Node23&#45;&gt;Node15</title>
<path fill="none" stroke="#63b8ff" d="M1836.37,-275.94C1794.2,-248.28 1668.6,-165.94 1668,-165.75 1476.44,-104.53 968.67,-154.18 754.31,-130.39"/>
<polygon fill="#63b8ff" stroke="#63b8ff" points="754.74,-126.8 744.39,-129.08 753.91,-133.75 754.74,-126.8"/>
</g>
<!-- Node24 -->
<g id="node24" class="node">
<title>Node24</title>
<g id="a_node24"><a xlink:href="v8-weak-callback-info_8h.html" target="_top" xlink:title=" ">
<polygon fill="white" stroke="#666666" points="1909,-240.25 1791,-240.25 1791,-221 1909,-221 1909,-240.25"/>
<text text-anchor="middle" x="1850" y="-226.75" font-family="Helvetica,sans-Serif" font-size="10.00">v8&#45;weak&#45;callback&#45;info.h</text>
</a>
</g>
</g>
<!-- Node23&#45;&gt;Node24 -->
<g id="edge40" class="edge">
<title>Node23&#45;&gt;Node24</title>
<path fill="none" stroke="#63b8ff" d="M1850,-276.08C1850,-269.42 1850,-259.99 1850,-251.53"/>
<polygon fill="#63b8ff" stroke="#63b8ff" points="1853.5,-251.61 1850,-241.61 1846.5,-251.61 1853.5,-251.61"/>
</g>
<!-- Node24&#45;&gt;Node8 -->
<g id="edge41" class="edge">
<title>Node24&#45;&gt;Node8</title>
<path fill="none" stroke="#63b8ff" d="M1852.96,-220.82C1861.57,-195.17 1886.8,-120.05 1898.68,-84.69"/>
<polygon fill="#63b8ff" stroke="#63b8ff" points="1902.16,-86.32 1902.03,-75.72 1895.53,-84.09 1902.16,-86.32"/>
</g>
<!-- Node25&#45;&gt;Node8 -->
<g id="edge53" class="edge">
<title>Node25&#45;&gt;Node8</title>
<path fill="none" stroke="#63b8ff" d="M1168.37,-388.74C1193.49,-382.61 1225.93,-371.23 1248,-350.75 1314.61,-288.96 1283.53,-240.63 1335,-165.75 1354.28,-137.71 1357.3,-125.18 1388,-110.5 1471.9,-70.37 1756.78,-65.94 1863.86,-65.73"/>
<polygon fill="#63b8ff" stroke="#63b8ff" points="1863.84,-69.23 1873.84,-65.73 1863.84,-62.23 1863.84,-69.23"/>
</g>
<!-- Node25&#45;&gt;Node10 -->
<g id="edge44" class="edge">
<title>Node25&#45;&gt;Node10</title>
<path fill="none" stroke="#63b8ff" d="M1133.21,-386.5C1137.54,-369.09 1147.24,-330.12 1153.14,-306.41"/>
<polygon fill="#63b8ff" stroke="#63b8ff" points="1156.74,-307.43 1155.76,-296.88 1149.95,-305.74 1156.74,-307.43"/>
</g>
<!-- Node25&#45;&gt;Node11 -->
<g id="edge46" class="edge">
<title>Node25&#45;&gt;Node11</title>
<path fill="none" stroke="#63b8ff" d="M1108.67,-386.31C1087.65,-377.63 1055.39,-363.94 1028,-350.75 964.5,-320.16 953.24,-302.93 888,-276.25 854.87,-262.7 816.14,-251.34 786.19,-243.47"/>
<polygon fill="#63b8ff" stroke="#63b8ff" points="787.14,-239.84 776.58,-240.73 785.39,-246.62 787.14,-239.84"/>
</g>
<!-- Node25&#45;&gt;Node15 -->
<g id="edge45" class="edge">
<title>Node25&#45;&gt;Node15</title>
<path fill="none" stroke="#63b8ff" d="M1116.76,-386.36C1102.6,-377.38 1080.26,-363.17 1061,-350.75 936.34,-270.36 787.69,-172.84 731.77,-136.09"/>
<polygon fill="#63b8ff" stroke="#63b8ff" points="734,-132.72 723.72,-130.15 730.15,-138.57 734,-132.72"/>
</g>
<!-- Node25&#45;&gt;Node26 -->
<g id="edge47" class="edge">
<title>Node25&#45;&gt;Node26</title>
<path fill="none" stroke="#63b8ff" d="M1125.88,-386.58C1121.78,-379.53 1115.88,-369.4 1110.75,-360.58"/>
<polygon fill="#63b8ff" stroke="#63b8ff" points="1113.29,-358.99 1105.23,-352.11 1107.24,-362.51 1113.29,-358.99"/>
</g>
<!-- Node26&#45;&gt;Node8 -->
<g id="edge52" class="edge">
<title>Node26&#45;&gt;Node8</title>
<path fill="none" stroke="#63b8ff" d="M1094.28,-331.23C1083.8,-314.33 1061.85,-276.05 1054,-240.25 1052.17,-231.89 1051.62,-229.22 1054,-221 1071.8,-159.63 1087.5,-136.22 1146,-110.5 1211.87,-81.53 1716.26,-69.54 1864.29,-66.62"/>
<polygon fill="#63b8ff" stroke="#63b8ff" points="1864.19,-70.1 1874.12,-66.41 1864.05,-63.1 1864.19,-70.1"/>
</g>
<!-- Node26&#45;&gt;Node10 -->
<g id="edge48" class="edge">
<title>Node26&#45;&gt;Node10</title>
<path fill="none" stroke="#63b8ff" d="M1109.84,-331.09C1118.14,-323.47 1130.23,-312.37 1140.22,-303.2"/>
<polygon fill="#63b8ff" stroke="#63b8ff" points="1142.31,-306.12 1147.31,-296.77 1137.57,-300.96 1142.31,-306.12"/>
</g>
<!-- Node26&#45;&gt;Node11 -->
<g id="edge50" class="edge">
<title>Node26&#45;&gt;Node11</title>
<path fill="none" stroke="#63b8ff" d="M1078.04,-331.1C1045.31,-317.86 981.63,-292.96 926,-276.25 881.43,-262.86 829.98,-250.94 792.03,-242.79"/>
<polygon fill="#63b8ff" stroke="#63b8ff" points="793.21,-239.25 782.7,-240.6 791.75,-246.1 793.21,-239.25"/>
</g>
<!-- Node26&#45;&gt;Node15 -->
<g id="edge49" class="edge">
<title>Node26&#45;&gt;Node15</title>
<path fill="none" stroke="#63b8ff" d="M1093.61,-331.08C1083.6,-317.48 1062.96,-291.72 1040,-276.25 1003.25,-251.48 987.53,-258.19 947,-240.25 868.57,-205.54 778.75,-158.53 735.29,-135.31"/>
<polygon fill="#63b8ff" stroke="#63b8ff" points="737.23,-131.85 726.76,-130.21 733.92,-138.02 737.23,-131.85"/>
</g>
<!-- Node26&#45;&gt;Node21 -->
<g id="edge51" class="edge">
<title>Node26&#45;&gt;Node21</title>
<path fill="none" stroke="#63b8ff" d="M1130.31,-336.46C1206.73,-327.24 1407.53,-302.99 1496.95,-292.19"/>
<polygon fill="#63b8ff" stroke="#63b8ff" points="1497.28,-295.56 1506.79,-290.88 1496.45,-288.61 1497.28,-295.56"/>
</g>
<!-- Node27&#45;&gt;Node2 -->
<g id="edge55" class="edge">
<title>Node27&#45;&gt;Node2</title>
<path fill="none" stroke="#63b8ff" d="M1318.07,-277.4C1266.87,-269.2 1183.43,-255.19 1112,-240.25 849.16,-185.26 536.05,-103.42 431.2,-75.56"/>
<polygon fill="#63b8ff" stroke="#63b8ff" points="432.15,-71.92 421.59,-72.73 430.35,-78.69 432.15,-71.92"/>
</g>
<!-- Node27&#45;&gt;Node3 -->
<g id="edge56" class="edge">
<title>Node27&#45;&gt;Node3</title>
<path fill="none" stroke="#63b8ff" d="M1379.95,-275.76C1415.86,-252.81 1515.14,-192.53 1607,-165.75 1940.93,-68.4 2368.14,-64.3 2491.34,-65.33"/>
<polygon fill="#63b8ff" stroke="#63b8ff" points="2490.94,-68.84 2500.98,-65.44 2491.01,-61.84 2490.94,-68.84"/>
</g>
<!-- Node27&#45;&gt;Node8 -->
<g id="edge65" class="edge">
<title>Node27&#45;&gt;Node8</title>
<path fill="none" stroke="#63b8ff" d="M1352.4,-275.91C1336.49,-264.2 1313.36,-242.63 1322,-221 1347.13,-158.08 1366.06,-140.09 1427,-110.5 1503.62,-73.3 1762.55,-67.06 1863.87,-66.05"/>
<polygon fill="#63b8ff" stroke="#63b8ff" points="1863.89,-69.54 1873.86,-65.95 1863.83,-62.54 1863.89,-69.54"/>
</g>
<!-- Node27&#45;&gt;Node9 -->
<g id="edge59" class="edge">
<title>Node27&#45;&gt;Node9</title>
<path fill="none" stroke="#63b8ff" d="M1350.08,-275.83C1338.23,-268.09 1322.94,-255.75 1316,-240.25 1305.7,-217.25 1331.85,-170.9 1335,-165.75 1382.51,-87.9 1485.52,-42.01 1540.21,-22.22"/>
<polygon fill="#63b8ff" stroke="#63b8ff" points="1541.2,-25.23 1549.47,-18.61 1538.88,-18.63 1541.2,-25.23"/>
</g>
<!-- Node27&#45;&gt;Node11 -->
<g id="edge63" class="edge">
<title>Node27&#45;&gt;Node11</title>
<path fill="none" stroke="#63b8ff" d="M1317.95,-280.81C1203.35,-271.11 914.5,-246.65 792.62,-236.33"/>
<polygon fill="#63b8ff" stroke="#63b8ff" points="792.96,-232.77 782.7,-235.41 792.37,-239.74 792.96,-232.77"/>
</g>
<!-- Node27&#45;&gt;Node12 -->
<g id="edge60" class="edge">
<title>Node27&#45;&gt;Node12</title>
<path fill="none" stroke="#63b8ff" d="M1337.84,-275.88C1314.08,-267.85 1279.5,-255.07 1251,-240.25 1155.71,-190.69 1052.44,-114.08 1009.96,-81.45"/>
<polygon fill="#63b8ff" stroke="#63b8ff" points="1012.45,-78.18 1002.4,-74.83 1008.17,-83.72 1012.45,-78.18"/>
</g>
<!-- Node27&#45;&gt;Node15 -->
<g id="edge62" class="edge">
<title>Node27&#45;&gt;Node15</title>
<path fill="none" stroke="#63b8ff" d="M1320.45,-275.83C1281.5,-267.71 1224.12,-254.86 1175,-240.25 1106.1,-219.76 1090.14,-210.66 1023,-185 1001.53,-176.8 997.16,-171.87 975,-165.75 879.99,-139.52 850.43,-148.12 754.22,-130.85"/>
<polygon fill="#63b8ff" stroke="#63b8ff" points="754.9,-127.23 744.43,-128.86 753.63,-134.12 754.9,-127.23"/>
</g>
<!-- Node27&#45;&gt;Node17 -->
<g id="edge58" class="edge">
<title>Node27&#45;&gt;Node17</title>
<path fill="none" stroke="#63b8ff" d="M1332.36,-275.82C1301.21,-267.26 1253.71,-253.75 1213,-240.25 1122.97,-210.39 1103.66,-193.63 1013,-165.75 948.71,-145.98 925,-162.05 866,-129.75 844.52,-117.99 824.87,-97.6 812.49,-83.02"/>
<polygon fill="#63b8ff" stroke="#63b8ff" points="814.81,-81.33 805.76,-75.82 809.4,-85.77 814.81,-81.33"/>
</g>
<!-- Node27&#45;&gt;Node22 -->
<g id="edge61" class="edge">
<title>Node27&#45;&gt;Node22</title>
<path fill="none" stroke="#63b8ff" d="M1409.67,-275.79C1450.86,-267.1 1514.27,-253.41 1569,-240.25 1569.96,-240.02 1570.93,-239.78 1571.91,-239.54"/>
<polygon fill="#63b8ff" stroke="#63b8ff" points="1572.65,-242.71 1581.49,-236.86 1570.93,-235.92 1572.65,-242.71"/>
</g>
<!-- Node27&#45;&gt;Node24 -->
<g id="edge64" class="edge">
<title>Node27&#45;&gt;Node24</title>
<path fill="none" stroke="#63b8ff" d="M1414.18,-279.57C1500.14,-270.12 1680.27,-250.3 1779.94,-239.33"/>
<polygon fill="#63b8ff" stroke="#63b8ff" points="1780.24,-242.71 1789.8,-238.14 1779.47,-235.75 1780.24,-242.71"/>
</g>
<!-- Node28 -->
<g id="node28" class="node">
<title>Node28</title>
<g id="a_node28"><a xlink:title=" ">
<polygon fill="#e0e0e0" stroke="#999999" points="1375.25,-240.25 1330.75,-240.25 1330.75,-221 1375.25,-221 1375.25,-240.25"/>
<text text-anchor="middle" x="1353" y="-226.75" font-family="Helvetica,sans-Serif" font-size="10.00">stdio.h</text>
</a>
</g>
</g>
<!-- Node27&#45;&gt;Node28 -->
<g id="edge57" class="edge">
<title>Node27&#45;&gt;Node28</title>
<path fill="none" stroke="#63b8ff" d="M1363.85,-276.08C1362.21,-269.34 1359.87,-259.77 1357.79,-251.24"/>
<polygon fill="#63b8ff" stroke="#63b8ff" points="1360.97,-250.49 1355.19,-241.61 1354.16,-252.15 1360.97,-250.49"/>
</g>
<!-- Node29&#45;&gt;Node2 -->
<g id="edge72" class="edge">
<title>Node29&#45;&gt;Node2</title>
<path fill="none" stroke="#63b8ff" d="M1832.76,-726.65C1602.55,-724.98 252.07,-713.91 172,-682.25 97.9,-652.95 38,-642.81 38,-563.12 38,-563.12 38,-563.12 38,-284.88 38,-199.61 50.13,-162.12 118,-110.5 155.2,-82.21 292.28,-71.26 358.59,-67.55"/>
<polygon fill="#63b8ff" stroke="#63b8ff" points="358.56,-71 368.36,-66.97 358.19,-64.01 358.56,-71"/>
</g>
<!-- Node29&#45;&gt;Node3 -->
<g id="edge73" class="edge">
<title>Node29&#45;&gt;Node3</title>
<path fill="none" stroke="#63b8ff" d="M1898.93,-725.81C2009.07,-722.03 2363.87,-708.11 2475,-682.25 2548.77,-665.08 2633,-694.12 2633,-618.38 2633,-618.38 2633,-618.38 2633,-450.62 2633,-295.13 2607.75,-255.27 2551,-110.5 2547.44,-101.42 2542.33,-91.91 2537.66,-84.02"/>
<polygon fill="#63b8ff" stroke="#63b8ff" points="2540.16,-82.42 2531.93,-75.74 2534.21,-86.09 2540.16,-82.42"/>
</g>
<!-- Node29&#45;&gt;Node4 -->
<g id="edge83" class="edge">
<title>Node29&#45;&gt;Node4</title>
<path fill="none" stroke="#63b8ff" d="M1833.21,-726.98C1693.35,-727.15 1150.9,-725.03 1089,-682.25 1055.59,-659.15 1042.97,-609.91 1038.42,-582.52"/>
<polygon fill="#63b8ff" stroke="#63b8ff" points="1041.79,-582.34 1036.89,-572.95 1034.86,-583.35 1041.79,-582.34"/>
</g>
<!-- Node29&#45;&gt;Node7 -->
<g id="edge76" class="edge">
<title>Node29&#45;&gt;Node7</title>
<path fill="none" stroke="#63b8ff" d="M1899.08,-726.4C1933.66,-724.05 1987.08,-714.9 2018,-682.25 2058.74,-639.22 2061.55,-563.65 2060.32,-527.81"/>
<polygon fill="#63b8ff" stroke="#63b8ff" points="2063.77,-527.72 2059.77,-517.91 2056.78,-528.07 2063.77,-527.72"/>
</g>
<!-- Node29&#45;&gt;Node8 -->
<g id="edge143" class="edge">
<title>Node29&#45;&gt;Node8</title>
<path fill="none" stroke="#63b8ff" d="M1899.16,-725.4C1986.63,-721.17 2218.44,-707.65 2241,-682.25 2307.49,-607.37 2241,-331.76 2241,-231.62 2241,-231.62 2241,-231.62 2241,-174.38 2241,-135.73 2216.06,-128.77 2182,-110.5 2141.93,-89 2012.98,-75.13 1946.1,-69.19"/>
<polygon fill="#63b8ff" stroke="#63b8ff" points="1946.41,-65.62 1936.14,-68.24 1945.8,-72.59 1946.41,-65.62"/>
</g>
<!-- Node29&#45;&gt;Node9 -->
<g id="edge74" class="edge">
<title>Node29&#45;&gt;Node9</title>
<path fill="none" stroke="#63b8ff" d="M1899.21,-726.65C2019.32,-725.55 2430.61,-719.1 2556,-682.25 2612.09,-665.77 2671,-676.84 2671,-618.38 2671,-618.38 2671,-618.38 2671,-561.12 2671,-486.41 2709,-472.09 2709,-397.38 2709,-397.38 2709,-397.38 2709,-340.12 2709,-266.44 2735,-250.06 2735,-176.38 2735,-176.38 2735,-176.38 2735,-119.12 2735,-46.26 2655.08,-71.31 2584,-55.25 2393.55,-12.22 1770.45,-10.29 1612.6,-10.51"/>
<polygon fill="#63b8ff" stroke="#63b8ff" points="1612.63,-7.01 1602.64,-10.53 1612.64,-14.01 1612.63,-7.01"/>
</g>
<!-- Node29&#45;&gt;Node10 -->
<g id="edge84" class="edge">
<title>Node29&#45;&gt;Node10</title>
<path fill="none" stroke="#63b8ff" d="M1833.21,-725.73C1687.17,-720.18 1103,-693.3 1103,-618.38 1103,-618.38 1103,-618.38 1103,-505.88 1103,-450.63 1159.68,-458.46 1177,-406 1188.33,-371.66 1175.74,-329.46 1166.33,-305.61"/>
<polygon fill="#63b8ff" stroke="#63b8ff" points="1169.3,-304.65 1162.21,-296.77 1162.85,-307.35 1169.3,-304.65"/>
</g>
<!-- Node29&#45;&gt;Node11 -->
<g id="edge122" class="edge">
<title>Node29&#45;&gt;Node11</title>
<path fill="none" stroke="#63b8ff" d="M1832.9,-726.48C1680.17,-724.49 1042.58,-714.37 846,-682.25 744.67,-665.7 624,-721.04 624,-618.38 624,-618.38 624,-618.38 624,-450.62 624,-367.6 645.24,-345.53 691,-276.25 697.99,-265.67 707.88,-255.66 716.69,-247.81"/>
<polygon fill="#63b8ff" stroke="#63b8ff" points="718.65,-249.89 724.01,-240.75 714.12,-244.56 718.65,-249.89"/>
</g>
<!-- Node29&#45;&gt;Node15 -->
<g id="edge121" class="edge">
<title>Node29&#45;&gt;Node15</title>
<path fill="none" stroke="#63b8ff" d="M1832.91,-726.47C1600.96,-723.42 228,-701.87 228,-618.38 228,-618.38 228,-618.38 228,-505.88 228,-391.97 348.26,-427.96 432,-350.75 513.22,-275.87 507.51,-229.11 598,-165.75 618.32,-151.52 643.85,-140.85 665.3,-133.52"/>
<polygon fill="#63b8ff" stroke="#63b8ff" points="666.04,-136.63 674.46,-130.19 663.86,-129.98 666.04,-136.63"/>
</g>
<!-- Node29&#45;&gt;Node22 -->
<g id="edge75" class="edge">
<title>Node29&#45;&gt;Node22</title>
<path fill="none" stroke="#63b8ff" d="M1878.21,-717.94C1899.69,-701.08 1942,-662.3 1942,-618.38 1942,-618.38 1942,-618.38 1942,-450.62 1942,-394.63 2018.88,-374.49 1983,-331.5 1925.69,-262.83 1871.49,-318.31 1785,-295.5 1729.77,-280.93 1667.32,-257.6 1631.52,-243.53"/>
<polygon fill="#63b8ff" stroke="#63b8ff" points="1633.31,-240.08 1622.72,-239.65 1630.73,-246.59 1633.31,-240.08"/>
</g>
<!-- Node29&#45;&gt;Node23 -->
<g id="edge124" class="edge">
<title>Node29&#45;&gt;Node23</title>
<path fill="none" stroke="#63b8ff" d="M1899.15,-718.56C1918.67,-711.94 1942.16,-700.65 1956,-682.25 1967.88,-666.45 2028.03,-347.19 2016,-331.5 2003.62,-315.36 1957.36,-303.75 1916.81,-296.43"/>
<polygon fill="#63b8ff" stroke="#63b8ff" points="1917.55,-292.83 1907.1,-294.57 1916.35,-299.73 1917.55,-292.83"/>
</g>
<!-- Node29&#45;&gt;Node25 -->
<g id="edge125" class="edge">
<title>Node29&#45;&gt;Node25</title>
<path fill="none" stroke="#63b8ff" d="M1832.78,-727.14C1650.11,-728.16 776,-727.37 776,-618.38 776,-618.38 776,-618.38 776,-505.88 776,-442.42 986.03,-412.39 1082.99,-401.91"/>
<polygon fill="#63b8ff" stroke="#63b8ff" points="1083.1,-405.31 1092.68,-400.78 1082.37,-398.35 1083.1,-405.31"/>
</g>
<!-- Node30 -->
<g id="node30" class="node">
<title>Node30</title>
<g id="a_node30"><a xlink:href="v8-array-buffer_8h.html" target="_top" xlink:title=" ">
<polygon fill="white" stroke="#666666" points="590.5,-516.5 505.5,-516.5 505.5,-497.25 590.5,-497.25 590.5,-516.5"/>
<text text-anchor="middle" x="548" y="-503" font-family="Helvetica,sans-Serif" font-size="10.00">v8&#45;array&#45;buffer.h</text>
</a>
</g>
</g>
<!-- Node29&#45;&gt;Node30 -->
<g id="edge77" class="edge">
<title>Node29&#45;&gt;Node30</title>
<path fill="none" stroke="#63b8ff" d="M1832.92,-726.74C1639.41,-725.84 660.74,-719.43 610,-682.25 559.94,-645.57 550.12,-564.96 548.32,-527.6"/>
<polygon fill="#63b8ff" stroke="#63b8ff" points="551.79,-527.6 547.97,-517.72 544.8,-527.83 551.79,-527.6"/>
</g>
<!-- Node31 -->
<g id="node31" class="node">
<title>Node31</title>
<g id="a_node31"><a xlink:href="v8-debug_8h.html" target="_top" xlink:title=" ">
<polygon fill="white" stroke="#666666" points="2133.62,-682.25 2070.38,-682.25 2070.38,-663 2133.62,-663 2133.62,-682.25"/>
<text text-anchor="middle" x="2102" y="-668.75" font-family="Helvetica,sans-Serif" font-size="10.00">v8&#45;debug.h</text>
</a>
</g>
</g>
<!-- Node29&#45;&gt;Node31 -->
<g id="edge85" class="edge">
<title>Node29&#45;&gt;Node31</title>
<path fill="none" stroke="#63b8ff" d="M1899.06,-719.41C1940.99,-709.95 2013.35,-693.63 2059.38,-683.24"/>
<polygon fill="#63b8ff" stroke="#63b8ff" points="2059.93,-686.48 2068.92,-680.86 2058.39,-679.65 2059.93,-686.48"/>
</g>
<!-- Node38 -->
<g id="node38" class="node">
<title>Node38</title>
<g id="a_node38"><a xlink:href="v8-embedder-heap_8h.html" target="_top" xlink:title=" ">
<polygon fill="white" stroke="#666666" points="1973.88,-350.75 1870.12,-350.75 1870.12,-331.5 1973.88,-331.5 1973.88,-350.75"/>
<text text-anchor="middle" x="1922" y="-337.25" font-family="Helvetica,sans-Serif" font-size="10.00">v8&#45;embedder&#45;heap.h</text>
</a>
</g>
</g>
<!-- Node29&#45;&gt;Node38 -->
<g id="edge112" class="edge">
<title>Node29&#45;&gt;Node38</title>
<path fill="none" stroke="#63b8ff" d="M1867.27,-718.12C1874.36,-669.47 1908.89,-432.2 1919.13,-361.83"/>
<polygon fill="#63b8ff" stroke="#63b8ff" points="1922.73,-362.44 1920.7,-352.04 1915.8,-361.43 1922.73,-362.44"/>
</g>
<!-- Node39 -->
<g id="node39" class="node">
<title>Node39</title>
<g id="a_node39"><a xlink:href="v8-function-callback_8h.html" target="_top" xlink:title=" ">
<polygon fill="white" stroke="#666666" points="2388.25,-461.25 2277.75,-461.25 2277.75,-442 2388.25,-442 2388.25,-461.25"/>
<text text-anchor="middle" x="2333" y="-447.75" font-family="Helvetica,sans-Serif" font-size="10.00">v8&#45;function&#45;callback.h</text>
</a>
</g>
</g>
<!-- Node29&#45;&gt;Node39 -->
<g id="edge115" class="edge">
<title>Node29&#45;&gt;Node39</title>
<path fill="none" stroke="#63b8ff" d="M1899.22,-725.49C2041.83,-719.1 2595,-689.71 2595,-618.38 2595,-618.38 2595,-618.38 2595,-561.12 2595,-476.49 2476.85,-456.6 2399.23,-452.66"/>
<polygon fill="#63b8ff" stroke="#63b8ff" points="2399.7,-449.13 2389.56,-452.2 2399.41,-456.13 2399.7,-449.13"/>
</g>
<!-- Node42 -->
<g id="node42" class="node">
<title>Node42</title>
<g id="a_node42"><a xlink:href="v8-microtask_8h.html" target="_top" xlink:title=" ">
<polygon fill="white" stroke="#666666" points="2231.88,-682.25 2152.12,-682.25 2152.12,-663 2231.88,-663 2231.88,-682.25"/>
<text text-anchor="middle" x="2192" y="-668.75" font-family="Helvetica,sans-Serif" font-size="10.00">v8&#45;microtask.h</text>
</a>
</g>
</g>
<!-- Node29&#45;&gt;Node42 -->
<g id="edge123" class="edge">
<title>Node29&#45;&gt;Node42</title>
<path fill="none" stroke="#63b8ff" d="M1898.86,-721.74C1948.83,-713.9 2047.21,-698.32 2140.83,-682.6"/>
<polygon fill="#63b8ff" stroke="#63b8ff" points="2141.35,-685.89 2150.63,-680.78 2140.19,-678.99 2141.35,-685.89"/>
</g>
<!-- Node43 -->
<g id="node43" class="node">
<title>Node43</title>
<g id="a_node43"><a xlink:href="v8-statistics_8h.html" target="_top" xlink:title=" ">
<polygon fill="white" stroke="#666666" points="1548.38,-571.75 1471.62,-571.75 1471.62,-552.5 1548.38,-552.5 1548.38,-571.75"/>
<text text-anchor="middle" x="1510" y="-558.25" font-family="Helvetica,sans-Serif" font-size="10.00">v8&#45;statistics.h</text>
</a>
</g>
</g>
<!-- Node29&#45;&gt;Node43 -->
<g id="edge126" class="edge">
<title>Node29&#45;&gt;Node43</title>
<path fill="none" stroke="#63b8ff" d="M1835.69,-717.76C1786.04,-702.27 1684.88,-668.46 1605,-627 1577.81,-612.89 1548.92,-592.62 1530.24,-578.71"/>
<polygon fill="#63b8ff" stroke="#63b8ff" points="1532.55,-575.32 1522.46,-572.09 1528.34,-580.91 1532.55,-575.32"/>
</g>
<!-- Node44 -->
<g id="node44" class="node">
<title>Node44</title>
<g id="a_node44"><a xlink:href="v8-unwinder_8h.html" target="_top" xlink:title=" ">
<polygon fill="white" stroke="#666666" points="423,-350.75 347,-350.75 347,-331.5 423,-331.5 423,-350.75"/>
<text text-anchor="middle" x="385" y="-337.25" font-family="Helvetica,sans-Serif" font-size="10.00">v8&#45;unwinder.h</text>
</a>
</g>
</g>
<!-- Node29&#45;&gt;Node44 -->
<g id="edge136" class="edge">
<title>Node29&#45;&gt;Node44</title>
<path fill="none" stroke="#63b8ff" d="M1832.84,-726.69C1606.06,-725.32 290.8,-715.96 214,-682.25 177.77,-666.35 152,-657.94 152,-618.38 152,-618.38 152,-618.38 152,-505.88 152,-416.71 267.64,-371.9 335.99,-353.21"/>
<polygon fill="#63b8ff" stroke="#63b8ff" points="336.75,-356.37 345.52,-350.43 334.96,-349.6 336.75,-356.37"/>
</g>
<!-- Node30&#45;&gt;Node2 -->
<g id="edge78" class="edge">
<title>Node30&#45;&gt;Node2</title>
<path fill="none" stroke="#63b8ff" d="M524.92,-496.79C457.57,-468.59 266,-375.72 266,-231.62 266,-231.62 266,-231.62 266,-174.38 266,-125.21 321.55,-93.85 359.74,-78.1"/>
<polygon fill="#63b8ff" stroke="#63b8ff" points="360.49,-81.17 368.51,-74.25 357.93,-74.66 360.49,-81.17"/>
</g>
<!-- Node30&#45;&gt;Node8 -->
<g id="edge82" class="edge">
<title>Node30&#45;&gt;Node8</title>
<path fill="none" stroke="#63b8ff" d="M584.52,-496.84C709.55,-465.85 1114.08,-364.94 1139,-350.75 1264.03,-279.55 1227.58,-175.39 1356,-110.5 1444.91,-65.57 1752.73,-64.22 1864.25,-65.27"/>
<polygon fill="#63b8ff" stroke="#63b8ff" points="1863.99,-68.78 1874.03,-65.38 1864.07,-61.78 1863.99,-68.78"/>
</g>
<!-- Node30&#45;&gt;Node9 -->
<g id="edge79" class="edge">
<title>Node30&#45;&gt;Node9</title>
<path fill="none" stroke="#63b8ff" d="M512.6,-496.76C485.99,-489.18 449.1,-477.07 419,-461.25 237.17,-365.67 -1.85,-277.34 118,-110.5 162.87,-48.03 206.32,-69 282,-55.25 532.9,-9.67 1355.47,-9.83 1539.33,-10.46"/>
<polygon fill="#63b8ff" stroke="#63b8ff" points="1539.25,-13.96 1549.26,-10.5 1539.28,-6.96 1539.25,-13.96"/>
</g>
<!-- Node30&#45;&gt;Node11 -->
<g id="edge80" class="edge">
<title>Node30&#45;&gt;Node11</title>
<path fill="none" stroke="#63b8ff" d="M546.58,-497.14C541.57,-462.93 528.38,-337.03 594,-276.25 617.87,-254.13 652.58,-242.98 681.81,-237.35"/>
<polygon fill="#63b8ff" stroke="#63b8ff" points="682.06,-240.68 691.31,-235.52 680.86,-233.79 682.06,-240.68"/>
</g>
<!-- Node30&#45;&gt;Node20 -->
<g id="edge81" class="edge">
<title>Node30&#45;&gt;Node20</title>
<path fill="none" stroke="#63b8ff" d="M591,-503.03C730.73,-493.79 1171.05,-464.66 1310.33,-455.45"/>
<polygon fill="#63b8ff" stroke="#63b8ff" points="1310.22,-458.9 1319.97,-454.74 1309.76,-451.91 1310.22,-458.9"/>
</g>
<!-- Node31&#45;&gt;Node3 -->
<g id="edge86" class="edge">
<title>Node31&#45;&gt;Node3</title>
<path fill="none" stroke="#63b8ff" d="M2133.99,-664.85C2237.56,-642.83 2557,-574.01 2557,-563.12 2557,-563.12 2557,-563.12 2557,-284.88 2557,-210.72 2539.36,-123.83 2530.69,-85.61"/>
<polygon fill="#63b8ff" stroke="#63b8ff" points="2533.9,-84.94 2528.23,-75.99 2527.08,-86.52 2533.9,-84.94"/>
</g>
<!-- Node31&#45;&gt;Node8 -->
<g id="edge111" class="edge">
<title>Node31&#45;&gt;Node8</title>
<path fill="none" stroke="#63b8ff" d="M2121.44,-662.71C2152.04,-647.19 2208,-612.11 2208,-563.12 2208,-563.12 2208,-563.12 2208,-450.62 2208,-353.27 2203,-328.98 2203,-231.62 2203,-231.62 2203,-231.62 2203,-174.38 2203,-138.86 2185.25,-129.11 2155,-110.5 2120.62,-89.35 2007.53,-75.63 1945.91,-69.52"/>
<polygon fill="#63b8ff" stroke="#63b8ff" points="1946.32,-65.95 1936.03,-68.47 1945.65,-72.92 1946.32,-65.95"/>
</g>
<!-- Node32 -->
<g id="node32" class="node">
<title>Node32</title>
<g id="a_node32"><a xlink:href="v8-script_8h.html" target="_top" xlink:title=" ">
<polygon fill="white" stroke="#666666" points="1674.5,-627 1613.5,-627 1613.5,-607.75 1674.5,-607.75 1674.5,-627"/>
<text text-anchor="middle" x="1644" y="-613.5" font-family="Helvetica,sans-Serif" font-size="10.00">v8&#45;script.h</text>
</a>
</g>
</g>
<!-- Node31&#45;&gt;Node32 -->
<g id="edge87" class="edge">
<title>Node31&#45;&gt;Node32</title>
<path fill="none" stroke="#63b8ff" d="M2070.16,-667.92C1989.33,-658.52 1776.2,-633.75 1685.65,-623.22"/>
<polygon fill="#63b8ff" stroke="#63b8ff" points="1686.06,-619.63 1675.73,-621.95 1685.26,-626.58 1686.06,-619.63"/>
</g>
<!-- Node32&#45;&gt;Node2 -->
<g id="edge88" class="edge">
<title>Node32&#45;&gt;Node2</title>
<path fill="none" stroke="#63b8ff" d="M1613.27,-615.83C1440.53,-612.49 589.39,-592.39 340,-516.5 285.75,-499.99 269.9,-495.88 225,-461.25 138.7,-394.7 143.67,-325.07 176,-221 201.47,-139.03 303.69,-94.7 359.01,-76.29"/>
<polygon fill="#63b8ff" stroke="#63b8ff" points="359.96,-79.34 368.41,-72.95 357.82,-72.68 359.96,-79.34"/>
</g>
<!-- Node32&#45;&gt;Node3 -->
<g id="edge89" class="edge">
<title>Node32&#45;&gt;Node3</title>
<path fill="none" stroke="#63b8ff" d="M1674.75,-615.34C1808.59,-610.13 2338.06,-582.05 2438,-461.25 2533.6,-345.69 2530.99,-148.25 2527.45,-85.58"/>
<polygon fill="#63b8ff" stroke="#63b8ff" points="2530.9,-85.65 2526.76,-75.9 2523.92,-86.11 2530.9,-85.65"/>
</g>
<!-- Node32&#45;&gt;Node4 -->
<g id="edge93" class="edge">
<title>Node32&#45;&gt;Node4</title>
<path fill="none" stroke="#63b8ff" d="M1613.11,-613.8C1532.89,-607.09 1311.38,-588.45 1127,-571.75 1113.79,-570.55 1099.5,-569.22 1086.25,-567.96"/>
<polygon fill="#63b8ff" stroke="#63b8ff" points="1086.7,-564.4 1076.41,-566.93 1086.03,-571.36 1086.7,-564.4"/>
</g>
<!-- Node32&#45;&gt;Node8 -->
<g id="edge110" class="edge">
<title>Node32&#45;&gt;Node8</title>
<path fill="none" stroke="#63b8ff" d="M1674.91,-610.27C1778.18,-589.82 2105.19,-524.54 2113,-516.5 2202.67,-424.17 2165,-360.33 2165,-231.62 2165,-231.62 2165,-231.62 2165,-174.38 2165,-80.51 2018.9,-66.4 1945.74,-65.22"/>
<polygon fill="#63b8ff" stroke="#63b8ff" points="1946.11,-61.72 1936.08,-65.13 1946.05,-68.72 1946.11,-61.72"/>
</g>
<!-- Node32&#45;&gt;Node9 -->
<g id="edge90" class="edge">
<title>Node32&#45;&gt;Node9</title>
<path fill="none" stroke="#63b8ff" d="M1674.81,-616.09C1759.02,-614.84 1999.84,-608.1 2196,-571.75 2281.63,-555.88 2306.1,-555.44 2384,-516.5 2566.26,-425.38 2667.89,-301.54 2597,-110.5 2586.63,-82.56 2585.06,-69.72 2559,-55.25 2475.09,-8.66 1781.03,-9.48 1612.68,-10.37"/>
<polygon fill="#63b8ff" stroke="#63b8ff" points="1612.68,-6.88 1602.7,-10.44 1612.72,-13.88 1612.68,-6.88"/>
</g>
<!-- Node32&#45;&gt;Node10 -->
<g id="edge94" class="edge">
<title>Node32&#45;&gt;Node10</title>
<path fill="none" stroke="#63b8ff" d="M1613.08,-615.17C1549.34,-611.13 1401.78,-593.49 1312,-516.5 1240.73,-455.38 1269.24,-404.35 1210,-331.5 1201.15,-320.62 1189.42,-310.29 1179.34,-302.32"/>
<polygon fill="#63b8ff" stroke="#63b8ff" points="1181.76,-299 1171.68,-295.71 1177.51,-304.56 1181.76,-299"/>
</g>
<!-- Node32&#45;&gt;Node11 -->
<g id="edge95" class="edge">
<title>Node32&#45;&gt;Node11</title>
<path fill="none" stroke="#63b8ff" d="M1613.33,-615.68C1471,-612.33 878.59,-596.98 800,-571.75 749.79,-555.63 700,-560.61 700,-507.88 700,-507.88 700,-507.88 700,-450.62 700,-373.12 674.99,-349.26 701,-276.25 704.73,-265.78 712.05,-255.96 719.12,-248.21"/>
<polygon fill="#63b8ff" stroke="#63b8ff" points="721.01,-251.27 725.52,-241.68 716.01,-246.36 721.01,-251.27"/>
</g>
<!-- Node32&#45;&gt;Node13 -->
<g id="edge92" class="edge">
<title>Node32&#45;&gt;Node13</title>
<path fill="none" stroke="#63b8ff" d="M1651.67,-607.54C1658.52,-599.03 1668.05,-585.46 1672,-571.75 1674.37,-563.53 1672.35,-561.05 1672,-552.5 1666,-404.8 1664.06,-367.59 1645,-221 1643.92,-212.71 1642.36,-203.61 1640.9,-195.81"/>
<polygon fill="#63b8ff" stroke="#63b8ff" points="1644.19,-195.37 1638.85,-186.23 1637.32,-196.71 1644.19,-195.37"/>
</g>
<!-- Node32&#45;&gt;Node21 -->
<g id="edge96" class="edge">
<title>Node32&#45;&gt;Node21</title>
<path fill="none" stroke="#63b8ff" d="M1637.62,-607.55C1631.57,-598.83 1622.6,-584.91 1617,-571.75 1576.33,-476.2 1552.39,-353.19 1544.21,-306.25"/>
<polygon fill="#63b8ff" stroke="#63b8ff" points="1547.52,-305.83 1542.39,-296.56 1540.61,-307 1547.52,-305.83"/>
</g>
<!-- Node33 -->
<g id="node33" class="node">
<title>Node33</title>
<g id="a_node33"><a xlink:title=" ">
<polygon fill="#e0e0e0" stroke="#999999" points="1662.5,-571.75 1625.5,-571.75 1625.5,-552.5 1662.5,-552.5 1662.5,-571.75"/>
<text text-anchor="middle" x="1644" y="-558.25" font-family="Helvetica,sans-Serif" font-size="10.00">tuple</text>
</a>
</g>
</g>
<!-- Node32&#45;&gt;Node33 -->
<g id="edge91" class="edge">
<title>Node32&#45;&gt;Node33</title>
<path fill="none" stroke="#63b8ff" d="M1644,-607.58C1644,-600.92 1644,-591.49 1644,-583.03"/>
<polygon fill="#63b8ff" stroke="#63b8ff" points="1647.5,-583.11 1644,-573.11 1640.5,-583.11 1647.5,-583.11"/>
</g>
<!-- Node34 -->
<g id="node34" class="node">
<title>Node34</title>
<g id="a_node34"><a xlink:href="v8-memory-span_8h.html" target="_top" xlink:title=" ">
<polygon fill="white" stroke="#666666" points="970.75,-129.75 875.25,-129.75 875.25,-110.5 970.75,-110.5 970.75,-129.75"/>
<text text-anchor="middle" x="923" y="-116.25" font-family="Helvetica,sans-Serif" font-size="10.00">v8&#45;memory&#45;span.h</text>
</a>
</g>
</g>
<!-- Node32&#45;&gt;Node34 -->
<g id="edge97" class="edge">
<title>Node32&#45;&gt;Node34</title>
<path fill="none" stroke="#63b8ff" d="M1613.32,-616.57C1519.13,-616.7 1226.09,-613.45 988,-571.75 866.76,-550.52 738,-575.71 738,-452.62 738,-452.62 738,-452.62 738,-395.38 738,-278.83 854.24,-174.73 902.44,-136.57"/>
<polygon fill="#63b8ff" stroke="#63b8ff" points="904.11,-138.93 909.86,-130.03 899.82,-133.4 904.11,-138.93"/>
</g>
<!-- Node36 -->
<g id="node36" class="node">
<title>Node36</title>
<g id="a_node36"><a xlink:href="v8-message_8h.html" target="_top" xlink:title=" ">
<polygon fill="white" stroke="#666666" points="1836.38,-461.25 1759.62,-461.25 1759.62,-442 1836.38,-442 1836.38,-461.25"/>
<text text-anchor="middle" x="1798" y="-447.75" font-family="Helvetica,sans-Serif" font-size="10.00">v8&#45;message.h</text>
</a>
</g>
</g>
<!-- Node32&#45;&gt;Node36 -->
<g id="edge103" class="edge">
<title>Node32&#45;&gt;Node36</title>
<path fill="none" stroke="#63b8ff" d="M1674.66,-609.4C1696.93,-602.94 1726.46,-591.3 1746,-571.75 1773.95,-543.78 1788,-498.28 1794.09,-472.36"/>
<polygon fill="#63b8ff" stroke="#63b8ff" points="1797.71,-473.18 1796.4,-462.66 1790.86,-471.7 1797.71,-473.18"/>
</g>
<!-- Node34&#45;&gt;Node2 -->
<g id="edge98" class="edge">
<title>Node34&#45;&gt;Node2</title>
<path fill="none" stroke="#63b8ff" d="M875.21,-114.31C770.79,-103.77 524.2,-78.9 431.28,-69.53"/>
<polygon fill="#63b8ff" stroke="#63b8ff" points="431.77,-65.97 421.47,-68.44 431.07,-72.93 431.77,-65.97"/>
</g>
<!-- Node34&#45;&gt;Node8 -->
<g id="edge102" class="edge">
<title>Node34&#45;&gt;Node8</title>
<path fill="none" stroke="#63b8ff" d="M971.04,-114.63C987.51,-113.19 1006.05,-111.66 1023,-110.5 1347.06,-88.33 1738.81,-72.29 1864.27,-67.42"/>
<polygon fill="#63b8ff" stroke="#63b8ff" points="1864.04,-70.89 1873.9,-67.01 1863.77,-63.9 1864.04,-70.89"/>
</g>
<!-- Node34&#45;&gt;Node12 -->
<g id="edge101" class="edge">
<title>Node34&#45;&gt;Node12</title>
<path fill="none" stroke="#63b8ff" d="M934.37,-110.09C944.24,-102.24 958.77,-90.7 970.5,-81.37"/>
<polygon fill="#63b8ff" stroke="#63b8ff" points="972.15,-83.74 977.8,-74.77 967.8,-78.26 972.15,-83.74"/>
</g>
<!-- Node34&#45;&gt;Node18 -->
<g id="edge100" class="edge">
<title>Node34&#45;&gt;Node18</title>
<path fill="none" stroke="#63b8ff" d="M912.82,-110.09C904.15,-102.4 891.48,-91.15 881.08,-81.93"/>
<polygon fill="#63b8ff" stroke="#63b8ff" points="883.83,-79.79 874.03,-75.77 879.18,-85.03 883.83,-79.79"/>
</g>
<!-- Node35 -->
<g id="node35" class="node">
<title>Node35</title>
<g id="a_node35"><a xlink:title=" ">
<polygon fill="#e0e0e0" stroke="#999999" points="941.5,-74.5 904.5,-74.5 904.5,-55.25 941.5,-55.25 941.5,-74.5"/>
<text text-anchor="middle" x="923" y="-61" font-family="Helvetica,sans-Serif" font-size="10.00">array</text>
</a>
</g>
</g>
<!-- Node34&#45;&gt;Node35 -->
<g id="edge99" class="edge">
<title>Node34&#45;&gt;Node35</title>
<path fill="none" stroke="#63b8ff" d="M923,-110.33C923,-103.67 923,-94.24 923,-85.78"/>
<polygon fill="#63b8ff" stroke="#63b8ff" points="926.5,-85.86 923,-75.86 919.5,-85.86 926.5,-85.86"/>
</g>
<!-- Node36&#45;&gt;Node8 -->
<g id="edge109" class="edge">
<title>Node36&#45;&gt;Node8</title>
<path fill="none" stroke="#63b8ff" d="M1803.84,-441.54C1809.49,-432.63 1818.18,-418.58 1825,-406 1842.54,-373.68 1833.75,-356.2 1861,-331.5 1895.38,-300.34 1923.89,-325.84 1959,-295.5 1980.14,-277.23 1982.12,-267.33 1989,-240.25 2003.2,-184.36 2018.71,-159.92 1989,-110.5 1979.35,-94.44 1961.75,-83.85 1945.15,-77.04"/>
<polygon fill="#63b8ff" stroke="#63b8ff" points="1946.61,-73.48 1936.02,-73.27 1944.17,-80.04 1946.61,-73.48"/>
</g>
<!-- Node36&#45;&gt;Node11 -->
<g id="edge106" class="edge">
<title>Node36&#45;&gt;Node11</title>
<path fill="none" stroke="#63b8ff" d="M1759.32,-450.34C1629.99,-449.04 1213.51,-442.11 1085,-406 966,-372.56 950.36,-329.89 839,-276.25 815.87,-265.11 789.28,-253.51 769.04,-244.93"/>
<polygon fill="#63b8ff" stroke="#63b8ff" points="770.67,-241.4 760.1,-240.74 767.95,-247.85 770.67,-241.4"/>
</g>
<!-- Node36&#45;&gt;Node21 -->
<g id="edge107" class="edge">
<title>Node36&#45;&gt;Node21</title>
<path fill="none" stroke="#63b8ff" d="M1783.82,-441.59C1741.6,-414.69 1616.48,-334.97 1564.28,-301.71"/>
<polygon fill="#63b8ff" stroke="#63b8ff" points="1566.45,-298.31 1556.14,-295.88 1562.69,-304.21 1566.45,-298.31"/>
</g>
<!-- Node36&#45;&gt;Node25 -->
<g id="edge108" class="edge">
<title>Node36&#45;&gt;Node25</title>
<path fill="none" stroke="#63b8ff" d="M1759.26,-447.53C1644.28,-438.35 1305.21,-411.28 1179.03,-401.21"/>
<polygon fill="#63b8ff" stroke="#63b8ff" points="1179.44,-397.65 1169.2,-400.34 1178.89,-404.63 1179.44,-397.65"/>
</g>
<!-- Node36&#45;&gt;Node28 -->
<g id="edge104" class="edge">
<title>Node36&#45;&gt;Node28</title>
<path fill="none" stroke="#63b8ff" d="M1803.3,-441.81C1810.53,-428.52 1821.27,-403.15 1809,-386.75 1722.97,-271.75 1633.95,-344.66 1499,-295.5 1457.33,-280.32 1410.59,-259.1 1381.48,-245.36"/>
<polygon fill="#63b8ff" stroke="#63b8ff" points="1383.13,-241.8 1372.59,-240.66 1380.12,-248.12 1383.13,-241.8"/>
</g>
<!-- Node37 -->
<g id="node37" class="node">
<title>Node37</title>
<g id="a_node37"><a xlink:title=" ">
<polygon fill="#e0e0e0" stroke="#999999" points="1800.25,-406 1755.75,-406 1755.75,-386.75 1800.25,-386.75 1800.25,-406"/>
<text text-anchor="middle" x="1778" y="-392.5" font-family="Helvetica,sans-Serif" font-size="10.00">iosfwd</text>
</a>
</g>
</g>
<!-- Node36&#45;&gt;Node37 -->
<g id="edge105" class="edge">
<title>Node36&#45;&gt;Node37</title>
<path fill="none" stroke="#63b8ff" d="M1794.7,-441.83C1792.11,-434.94 1788.41,-425.09 1785.15,-416.41"/>
<polygon fill="#63b8ff" stroke="#63b8ff" points="1788.17,-415.49 1781.37,-407.36 1781.61,-417.95 1788.17,-415.49"/>
</g>
<!-- Node38&#45;&gt;Node8 -->
<g id="edge114" class="edge">
<title>Node38&#45;&gt;Node8</title>
<path fill="none" stroke="#63b8ff" d="M1953.66,-331C1973.73,-323.94 1999.18,-312.45 2017,-295.5 2040.3,-273.33 2051,-263.79 2051,-231.62 2051,-231.62 2051,-231.62 2051,-174.38 2051,-144.05 2048.54,-131.85 2027,-110.5 2005.21,-88.9 1972.12,-77.65 1945.89,-71.86"/>
<polygon fill="#63b8ff" stroke="#63b8ff" points="1946.62,-68.23 1936.13,-69.69 1945.24,-75.09 1946.62,-68.23"/>
</g>
<!-- Node38&#45;&gt;Node27 -->
<g id="edge113" class="edge">
<title>Node38&#45;&gt;Node27</title>
<path fill="none" stroke="#63b8ff" d="M1869.69,-335.12C1765.8,-325.17 1534.1,-302.97 1424.98,-292.52"/>
<polygon fill="#63b8ff" stroke="#63b8ff" points="1425.47,-288.96 1415.18,-291.49 1424.8,-295.93 1425.47,-288.96"/>
</g>
<!-- Node39&#45;&gt;Node8 -->
<g id="edge120" class="edge">
<title>Node39&#45;&gt;Node8</title>
<path fill="none" stroke="#63b8ff" d="M2324.5,-441.57C2317.2,-433.11 2307.19,-419.75 2303,-406 2300.5,-397.82 2302.62,-395.3 2303,-386.75 2306.11,-317.6 2317,-300.85 2317,-231.62 2317,-231.62 2317,-231.62 2317,-174.38 2317,-134.81 2290.39,-128.19 2255,-110.5 2201.49,-83.75 2025.9,-71.84 1945.66,-67.7"/>
<polygon fill="#63b8ff" stroke="#63b8ff" points="1946.16,-64.17 1935.99,-67.17 1945.81,-71.16 1946.16,-64.17"/>
</g>
<!-- Node39&#45;&gt;Node11 -->
<g id="edge118" class="edge">
<title>Node39&#45;&gt;Node11</title>
<path fill="none" stroke="#63b8ff" d="M2277.45,-442.55C2123.48,-420.09 1678.29,-354.65 1309,-295.5 1258.26,-287.37 1245.94,-283.02 1195,-276.25 1050.28,-257.01 878.8,-242.5 792.5,-235.77"/>
<polygon fill="#63b8ff" stroke="#63b8ff" points="792.89,-232.21 782.65,-234.93 792.35,-239.19 792.89,-232.21"/>
</g>
<!-- Node39&#45;&gt;Node25 -->
<g id="edge119" class="edge">
<title>Node39&#45;&gt;Node25</title>
<path fill="none" stroke="#63b8ff" d="M2277.44,-448.16C2073.72,-439.14 1369.77,-407.95 1179,-399.5"/>
<polygon fill="#63b8ff" stroke="#63b8ff" points="1179.37,-395.97 1169.22,-399.02 1179.06,-402.96 1179.37,-395.97"/>
</g>
<!-- Node40 -->
<g id="node40" class="node">
<title>Node40</title>
<g id="a_node40"><a xlink:title=" ">
<polygon fill="#e0e0e0" stroke="#999999" points="2357.62,-406 2312.38,-406 2312.38,-386.75 2357.62,-386.75 2357.62,-406"/>
<text text-anchor="middle" x="2335" y="-392.5" font-family="Helvetica,sans-Serif" font-size="10.00">cstdint</text>
</a>
</g>
</g>
<!-- Node39&#45;&gt;Node40 -->
<g id="edge116" class="edge">
<title>Node39&#45;&gt;Node40</title>
<path fill="none" stroke="#63b8ff" d="M2333.33,-441.83C2333.58,-435.17 2333.93,-425.74 2334.25,-417.28"/>
<polygon fill="#63b8ff" stroke="#63b8ff" points="2337.78,-417.48 2334.66,-407.36 2330.79,-417.22 2337.78,-417.48"/>
</g>
<!-- Node41 -->
<g id="node41" class="node">
<title>Node41</title>
<g id="a_node41"><a xlink:title=" ">
<polygon fill="#e0e0e0" stroke="#999999" points="2414.62,-406 2375.38,-406 2375.38,-386.75 2414.62,-386.75 2414.62,-406"/>
<text text-anchor="middle" x="2395" y="-392.5" font-family="Helvetica,sans-Serif" font-size="10.00">limits</text>
</a>
</g>
</g>
<!-- Node39&#45;&gt;Node41 -->
<g id="edge117" class="edge">
<title>Node39&#45;&gt;Node41</title>
<path fill="none" stroke="#63b8ff" d="M2343.52,-441.59C2352.48,-433.9 2365.57,-422.65 2376.31,-413.43"/>
<polygon fill="#63b8ff" stroke="#63b8ff" points="2378.33,-415.45 2383.64,-406.27 2373.77,-410.14 2378.33,-415.45"/>
</g>
<!-- Node43&#45;&gt;Node2 -->
<g id="edge127" class="edge">
<title>Node43&#45;&gt;Node2</title>
<path fill="none" stroke="#63b8ff" d="M1471.39,-555.65C1418.84,-547.98 1321.95,-533.12 1240,-516.5 1214.32,-511.29 339.21,-316.08 323,-295.5 270.72,-229.12 345.98,-124.31 379.89,-83.22"/>
<polygon fill="#63b8ff" stroke="#63b8ff" points="383.21,-85.72 386.99,-75.82 377.86,-81.2 383.21,-85.72"/>
</g>
<!-- Node43&#45;&gt;Node3 -->
<g id="edge128" class="edge">
<title>Node43&#45;&gt;Node3</title>
<path fill="none" stroke="#63b8ff" d="M1548.87,-557.83C1569.17,-556.15 1594.42,-554.13 1617,-552.5 1791.06,-539.96 2261.85,-571.66 2397,-461.25 2480.42,-393.1 2399.65,-324.64 2429,-221 2444.86,-164.99 2487.73,-109.67 2510.81,-82.76"/>
<polygon fill="#63b8ff" stroke="#63b8ff" points="2513.85,-85.59 2517.8,-75.76 2508.59,-80.98 2513.85,-85.59"/>
</g>
<!-- Node43&#45;&gt;Node8 -->
<g id="edge135" class="edge">
<title>Node43&#45;&gt;Node8</title>
<path fill="none" stroke="#63b8ff" d="M1548.44,-557.76C1677.76,-544.12 2089,-481.16 2089,-231.62 2089,-231.62 2089,-231.62 2089,-174.38 2089,-108.28 1999.82,-81.63 1945.63,-71.53"/>
<polygon fill="#63b8ff" stroke="#63b8ff" points="1946.42,-67.94 1935.97,-69.67 1945.22,-74.84 1946.42,-67.94"/>
</g>
<!-- Node43&#45;&gt;Node9 -->
<g id="edge129" class="edge">
<title>Node43&#45;&gt;Node9</title>
<path fill="none" stroke="#63b8ff" d="M1548.62,-557.94C1568.97,-556.28 1594.33,-554.24 1617,-552.5 1672.09,-548.28 2068,-548.57 2113,-516.5 2243.52,-423.47 2222.79,-342.01 2255,-185 2261.65,-152.56 2276.27,-135.88 2255,-110.5 2171.89,-11.32 1741.05,-8.54 1612.35,-9.98"/>
<polygon fill="#63b8ff" stroke="#63b8ff" points="1612.49,-6.49 1602.54,-10.12 1612.58,-13.49 1612.49,-6.49"/>
</g>
<!-- Node43&#45;&gt;Node11 -->
<g id="edge132" class="edge">
<title>Node43&#45;&gt;Node11</title>
<path fill="none" stroke="#63b8ff" d="M1471.26,-557.81C1424.43,-552.87 1343.84,-541.35 1279,-516.5 1248.98,-505 1185.21,-452.98 1155,-442 1058.16,-406.82 1020.68,-446.62 926,-406 852.83,-374.61 840.43,-352.66 785,-295.5 771.15,-281.22 757.75,-262.89 748.65,-249.53"/>
<polygon fill="#63b8ff" stroke="#63b8ff" points="751.04,-247.81 742.58,-241.43 745.22,-251.69 751.04,-247.81"/>
</g>
<!-- Node43&#45;&gt;Node13 -->
<g id="edge131" class="edge">
<title>Node43&#45;&gt;Node13</title>
<path fill="none" stroke="#63b8ff" d="M1516.72,-552.3C1523.12,-543.58 1532.69,-529.66 1539,-516.5 1594.91,-399.95 1602.59,-366.58 1630,-240.25 1633.19,-225.54 1634.96,-208.6 1635.92,-195.86"/>
<polygon fill="#63b8ff" stroke="#63b8ff" points="1639.47,-196.35 1636.62,-186.15 1632.48,-195.9 1639.47,-196.35"/>
</g>
<!-- Node43&#45;&gt;Node19 -->
<g id="edge134" class="edge">
<title>Node43&#45;&gt;Node19</title>
<path fill="none" stroke="#63b8ff" d="M1484.05,-552.09C1459.1,-543.41 1421.17,-530.21 1393.25,-520.49"/>
<polygon fill="#63b8ff" stroke="#63b8ff" points="1394.68,-516.93 1384.08,-516.95 1392.38,-523.55 1394.68,-516.93"/>
</g>
<!-- Node43&#45;&gt;Node22 -->
<g id="edge130" class="edge">
<title>Node43&#45;&gt;Node22</title>
<path fill="none" stroke="#63b8ff" d="M1512.46,-552.31C1524.7,-508.47 1579.14,-313.49 1596.6,-250.98"/>
<polygon fill="#63b8ff" stroke="#63b8ff" points="1600.17,-252.19 1599.49,-241.62 1593.43,-250.31 1600.17,-252.19"/>
</g>
<!-- Node43&#45;&gt;Node34 -->
<g id="edge133" class="edge">
<title>Node43&#45;&gt;Node34</title>
<path fill="none" stroke="#63b8ff" d="M1471.35,-556.07C1430.66,-549.91 1365.22,-537.62 1312,-516.5 1281.77,-504.5 1215.65,-455.38 1186,-442 1138.73,-420.67 1114.76,-439.3 1075,-406 986.27,-331.7 941.8,-191.97 927.91,-140.66"/>
<polygon fill="#63b8ff" stroke="#63b8ff" points="931.06,-139.89 925.15,-131.1 924.29,-141.66 931.06,-139.89"/>
</g>
<!-- Node44&#45;&gt;Node8 -->
<g id="edge142" class="edge">
<title>Node44&#45;&gt;Node8</title>
<path fill="none" stroke="#63b8ff" d="M405.34,-331.01C453.22,-309.79 577.05,-256.19 684,-221 867.76,-160.53 913.91,-140.59 1105,-110.5 1393.2,-65.11 1746.14,-64.14 1864.3,-65.27"/>
<polygon fill="#63b8ff" stroke="#63b8ff" points="1863.95,-68.78 1873.99,-65.39 1864.03,-61.78 1863.95,-68.78"/>
</g>
<!-- Node44&#45;&gt;Node9 -->
<g id="edge137" class="edge">
<title>Node44&#45;&gt;Node9</title>
<path fill="none" stroke="#63b8ff" d="M350.11,-331.15C330.07,-324.36 305.82,-313.13 290,-295.5 255.31,-256.85 260.56,-236.22 252,-185 246.54,-152.34 235.83,-139.4 252,-110.5 274.92,-69.54 297.07,-68.82 342,-55.25 459.02,-19.9 1347.12,-12.12 1539.37,-10.84"/>
<polygon fill="#63b8ff" stroke="#63b8ff" points="1539.29,-14.33 1549.27,-10.77 1539.25,-7.33 1539.29,-14.33"/>
</g>
<!-- Node45 -->
<g id="node45" class="node">
<title>Node45</title>
<g id="a_node45"><a xlink:href="v8-embedder-state-scope_8h.html" target="_top" xlink:title=" ">
<polygon fill="white" stroke="#666666" points="465.88,-295.5 332.12,-295.5 332.12,-276.25 465.88,-276.25 465.88,-295.5"/>
<text text-anchor="middle" x="399" y="-282" font-family="Helvetica,sans-Serif" font-size="10.00">v8&#45;embedder&#45;state&#45;scope.h</text>
</a>
</g>
</g>
<!-- Node44&#45;&gt;Node45 -->
<g id="edge138" class="edge">
<title>Node44&#45;&gt;Node45</title>
<path fill="none" stroke="#63b8ff" d="M387.31,-331.33C389.08,-324.59 391.6,-315.02 393.84,-306.49"/>
<polygon fill="#63b8ff" stroke="#63b8ff" points="397.48,-307.42 396.64,-296.86 390.71,-305.64 397.48,-307.42"/>
</g>
<!-- Node45&#45;&gt;Node9 -->
<g id="edge139" class="edge">
<title>Node45&#45;&gt;Node9</title>
<path fill="none" stroke="#63b8ff" d="M390.34,-275.86C374.4,-258.26 342,-217.44 342,-176.38 342,-176.38 342,-176.38 342,-119.12 342,-89.51 337.59,-73.39 361,-55.25 408.72,-18.27 1341.81,-11.75 1539.43,-10.78"/>
<polygon fill="#63b8ff" stroke="#63b8ff" points="1539.36,-14.27 1549.35,-10.73 1539.33,-7.27 1539.36,-14.27"/>
</g>
<!-- Node45&#45;&gt;Node11 -->
<g id="edge141" class="edge">
<title>Node45&#45;&gt;Node11</title>
<path fill="none" stroke="#63b8ff" d="M456.72,-275.78C519.6,-265.88 619.47,-250.14 681.47,-240.37"/>
<polygon fill="#63b8ff" stroke="#63b8ff" points="681.88,-243.69 691.21,-238.68 680.79,-236.78 681.88,-243.69"/>
</g>
<!-- Node45&#45;&gt;Node15 -->
<g id="edge140" class="edge">
<title>Node45&#45;&gt;Node15</title>
<path fill="none" stroke="#63b8ff" d="M405.05,-276.04C420.83,-253.75 465.63,-194.89 518,-165.75 563.7,-140.33 623.3,-129.35 663.68,-124.63"/>
<polygon fill="#63b8ff" stroke="#63b8ff" points="663.96,-128.01 673.53,-123.46 663.21,-121.05 663.96,-128.01"/>
</g>
<!-- Node46&#45;&gt;Node2 -->
<g id="edge146" class="edge">
<title>Node46&#45;&gt;Node2</title>
<path fill="none" stroke="#63b8ff" d="M2762.57,-174.25C2530.35,-173.36 1254.25,-166.82 866,-129.75 814.85,-124.87 802.84,-117.97 752,-110.5 635.11,-93.33 496.07,-77.17 431.41,-69.9"/>
<polygon fill="#63b8ff" stroke="#63b8ff" points="431.92,-66.33 421.59,-68.69 431.14,-73.28 431.92,-66.33"/>
</g>
<!-- Node46&#45;&gt;Node3 -->
<g id="edge147" class="edge">
<title>Node46&#45;&gt;Node3</title>
<path fill="none" stroke="#63b8ff" d="M2776.19,-165.31C2727.92,-146.12 2615.23,-101.34 2559.06,-79.01"/>
<polygon fill="#63b8ff" stroke="#63b8ff" points="2560.52,-75.43 2549.93,-74.99 2557.93,-81.94 2560.52,-75.43"/>
</g>
<!-- Node46&#45;&gt;Node6 -->
<g id="edge150" class="edge">
<title>Node46&#45;&gt;Node6</title>
<path fill="none" stroke="#63b8ff" d="M2835.09,-165.32C2855.04,-158.59 2878.79,-147.43 2894,-129.75 2904.62,-117.4 2909.31,-99.32 2911.37,-85.55"/>
<polygon fill="#63b8ff" stroke="#63b8ff" points="2914.94,-86.13 2912.6,-75.8 2907.99,-85.34 2914.94,-86.13"/>
</g>
<!-- Node46&#45;&gt;Node8 -->
<g id="edge155" class="edge">
<title>Node46&#45;&gt;Node8</title>
<path fill="none" stroke="#63b8ff" d="M2762.38,-167.49C2693.18,-154.69 2538.36,-127.02 2407,-110.5 2236.27,-89.03 2031.58,-74.21 1945.88,-68.5"/>
<polygon fill="#63b8ff" stroke="#63b8ff" points="1946.28,-64.95 1936.07,-67.78 1945.82,-71.93 1946.28,-64.95"/>
</g>
<!-- Node46&#45;&gt;Node9 -->
<g id="edge149" class="edge">
<title>Node46&#45;&gt;Node9</title>
<path fill="none" stroke="#63b8ff" d="M2798.37,-165.53C2796.21,-142.66 2786.98,-81.56 2749,-55.25 2701.18,-22.13 1805.49,-12.59 1612.46,-10.92"/>
<polygon fill="#63b8ff" stroke="#63b8ff" points="1612.55,-7.41 1602.52,-10.82 1612.49,-14.41 1612.55,-7.41"/>
</g>
<!-- Node47 -->
<g id="node47" class="node">
<title>Node47</title>
<g id="a_node47"><a xlink:title=" ">
<polygon fill="#e0e0e0" stroke="#999999" points="2986.62,-129.75 2941.38,-129.75 2941.38,-110.5 2986.62,-110.5 2986.62,-129.75"/>
<text text-anchor="middle" x="2964" y="-116.25" font-family="Helvetica,sans-Serif" font-size="10.00">math.h</text>
</a>
</g>
</g>
<!-- Node46&#45;&gt;Node47 -->
<g id="edge145" class="edge">
<title>Node46&#45;&gt;Node47</title>
<path fill="none" stroke="#63b8ff" d="M2826.99,-165.34C2855.69,-156.08 2900.33,-141.67 2930.8,-131.84"/>
<polygon fill="#63b8ff" stroke="#63b8ff" points="2931.5,-134.97 2939.94,-128.57 2929.35,-128.31 2931.5,-134.97"/>
</g>
<!-- Node48 -->
<g id="node48" class="node">
<title>Node48</title>
<g id="a_node48"><a xlink:title=" ">
<polygon fill="#e0e0e0" stroke="#999999" points="2885.38,-129.75 2838.62,-129.75 2838.62,-110.5 2885.38,-110.5 2885.38,-129.75"/>
<text text-anchor="middle" x="2862" y="-116.25" font-family="Helvetica,sans-Serif" font-size="10.00">stdlib.h</text>
</a>
</g>
</g>
<!-- Node46&#45;&gt;Node48 -->
<g id="edge148" class="edge">
<title>Node46&#45;&gt;Node48</title>
<path fill="none" stroke="#63b8ff" d="M2809.69,-165.34C2818.88,-157.57 2832.36,-146.17 2843.34,-136.9"/>
<polygon fill="#63b8ff" stroke="#63b8ff" points="2845.09,-139.15 2850.47,-130.02 2840.57,-133.81 2845.09,-139.15"/>
</g>
<!-- Node49 -->
<g id="node49" class="node">
<title>Node49</title>
<g id="a_node49"><a xlink:href="v8-source-location_8h.html" target="_top" xlink:title=" ">
<polygon fill="white" stroke="#666666" points="3107.5,-129.75 3004.5,-129.75 3004.5,-110.5 3107.5,-110.5 3107.5,-129.75"/>
<text text-anchor="middle" x="3056" y="-116.25" font-family="Helvetica,sans-Serif" font-size="10.00">v8&#45;source&#45;location.h</text>
</a>
</g>
</g>
<!-- Node46&#45;&gt;Node49 -->
<g id="edge151" class="edge">
<title>Node46&#45;&gt;Node49</title>
<path fill="none" stroke="#63b8ff" d="M2835.55,-166.8C2878.93,-157.81 2951.67,-142.74 3001.65,-132.39"/>
<polygon fill="#63b8ff" stroke="#63b8ff" points="3002.19,-135.64 3011.27,-130.19 3000.76,-128.79 3002.19,-135.64"/>
</g>
<!-- Node49&#45;&gt;Node6 -->
<g id="edge153" class="edge">
<title>Node49&#45;&gt;Node6</title>
<path fill="none" stroke="#63b8ff" d="M3031.74,-110.09C3007.37,-101.02 2969.74,-87 2943.39,-77.19"/>
<polygon fill="#63b8ff" stroke="#63b8ff" points="2944.8,-73.61 2934.21,-73.4 2942.36,-80.17 2944.8,-73.61"/>
</g>
<!-- Node49&#45;&gt;Node8 -->
<g id="edge154" class="edge">
<title>Node49&#45;&gt;Node8</title>
<path fill="none" stroke="#63b8ff" d="M3004,-111.32C3001.3,-111.02 2998.62,-110.74 2996,-110.5 2587.52,-72.89 2090.09,-66.98 1945.94,-66.05"/>
<polygon fill="#63b8ff" stroke="#63b8ff" points="1946.03,-62.54 1936.01,-65.98 1945.99,-69.54 1946.03,-62.54"/>
</g>
<!-- Node50 -->
<g id="node50" class="node">
<title>Node50</title>
<g id="a_node50"><a xlink:title=" ">
<polygon fill="#e0e0e0" stroke="#999999" points="3080.12,-74.5 3031.88,-74.5 3031.88,-55.25 3080.12,-55.25 3080.12,-74.5"/>
<text text-anchor="middle" x="3056" y="-61" font-family="Helvetica,sans-Serif" font-size="10.00">cstddef</text>
</a>
</g>
</g>
<!-- Node49&#45;&gt;Node50 -->
<g id="edge152" class="edge">
<title>Node49&#45;&gt;Node50</title>
<path fill="none" stroke="#63b8ff" d="M3056,-110.33C3056,-103.67 3056,-94.24 3056,-85.78"/>
<polygon fill="#63b8ff" stroke="#63b8ff" points="3059.5,-85.86 3056,-75.86 3052.5,-85.86 3059.5,-85.86"/>
</g>
</g>
</svg>
