<?xml version="1.0" encoding="UTF-8" standalone="no"?>
<!DOCTYPE svg PUBLIC "-//W3C//DTD SVG 1.1//EN"
 "http://www.w3.org/Graphics/SVG/1.1/DTD/svg11.dtd">
<!-- Generated by graphviz version 8.0.5 (20230430.1635)
 -->
<!-- Title: include/v8&#45;isolate.h Pages: 1 -->
<svg width="2687pt" height="746pt"
 viewBox="0.00 0.00 2687.06 745.50" xmlns="http://www.w3.org/2000/svg" xmlns:xlink="http://www.w3.org/1999/xlink">
<g id="graph0" class="graph" transform="scale(1 1) rotate(0) translate(4 741.5)">
<title>include/v8&#45;isolate.h</title>
<!-- Node1 -->
<g id="node1" class="node">
<title>Node1</title>
<g id="a_node1"><a xlink:title=" ">
<polygon fill="#999999" stroke="#666666" points="1547.62,-737.5 1448.38,-737.5 1448.38,-718.25 1547.62,-718.25 1547.62,-737.5"/>
<text text-anchor="middle" x="1498" y="-724" font-family="Helvetica,sans-Serif" font-size="10.00">include/v8&#45;isolate.h</text>
</a>
</g>
</g>
<!-- Node2 -->
<g id="node2" class="node">
<title>Node2</title>
<g id="a_node2"><a xlink:title=" ">
<polygon fill="#e0e0e0" stroke="#999999" points="519.25,-74.5 468.75,-74.5 468.75,-55.25 519.25,-55.25 519.25,-74.5"/>
<text text-anchor="middle" x="494" y="-61" font-family="Helvetica,sans-Serif" font-size="10.00">stddef.h</text>
</a>
</g>
</g>
<!-- Node1&#45;&gt;Node2 -->
<g id="edge1" class="edge">
<title>Node1&#45;&gt;Node2</title>
<path fill="none" stroke="#63b8ff" d="M1448.13,-726.47C1249.71,-724.63 515.85,-715.68 286,-682.25 173.37,-665.87 38,-732.19 38,-618.38 38,-618.38 38,-618.38 38,-340.12 38,-212.61 97.24,-170.03 210,-110.5 252.35,-88.14 390.79,-74.23 457.46,-68.66"/>
<polygon fill="#63b8ff" stroke="#63b8ff" points="457.6,-72.08 467.28,-67.78 457.03,-65.1 457.6,-72.08"/>
</g>
<!-- Node3 -->
<g id="node3" class="node">
<title>Node3</title>
<g id="a_node3"><a xlink:title=" ">
<polygon fill="#e0e0e0" stroke="#999999" points="2375.75,-74.5 2328.25,-74.5 2328.25,-55.25 2375.75,-55.25 2375.75,-74.5"/>
<text text-anchor="middle" x="2352" y="-61" font-family="Helvetica,sans-Serif" font-size="10.00">stdint.h</text>
</a>
</g>
</g>
<!-- Node1&#45;&gt;Node3 -->
<g id="edge2" class="edge">
<title>Node1&#45;&gt;Node3</title>
<path fill="none" stroke="#63b8ff" d="M1547.9,-726.01C1730.45,-722.62 2355.72,-709.16 2441,-682.25 2491.65,-666.27 2542,-671.49 2542,-618.38 2542,-618.38 2542,-618.38 2542,-174.38 2542,-138.94 2441.09,-97.53 2386.35,-77.67"/>
<polygon fill="#63b8ff" stroke="#63b8ff" points="2387.66,-74.06 2377.06,-74 2385.3,-80.66 2387.66,-74.06"/>
</g>
<!-- Node4 -->
<g id="node4" class="node">
<title>Node4</title>
<g id="a_node4"><a xlink:title=" ">
<polygon fill="#e0e0e0" stroke="#999999" points="253.25,-19.25 202.75,-19.25 202.75,0 253.25,0 253.25,-19.25"/>
<text text-anchor="middle" x="228" y="-5.75" font-family="Helvetica,sans-Serif" font-size="10.00">memory</text>
</a>
</g>
</g>
<!-- Node1&#45;&gt;Node4 -->
<g id="edge3" class="edge">
<title>Node1&#45;&gt;Node4</title>
<path fill="none" stroke="#63b8ff" d="M1447.98,-726.56C1199.82,-724.85 110.24,-715.46 47,-682.25 15.8,-665.86 0,-653.62 0,-618.38 0,-618.38 0,-618.38 0,-119.12 0,-35.38 126.96,-16.2 191.4,-11.86"/>
<polygon fill="#63b8ff" stroke="#63b8ff" points="191.51,-15.3 201.29,-11.23 191.1,-8.32 191.51,-15.3"/>
</g>
<!-- Node5 -->
<g id="node5" class="node">
<title>Node5</title>
<g id="a_node5"><a xlink:title=" ">
<polygon fill="#e0e0e0" stroke="#999999" points="1556.25,-240.25 1517.75,-240.25 1517.75,-221 1556.25,-221 1556.25,-240.25"/>
<text text-anchor="middle" x="1537" y="-226.75" font-family="Helvetica,sans-Serif" font-size="10.00">utility</text>
</a>
</g>
</g>
<!-- Node1&#45;&gt;Node5 -->
<g id="edge4" class="edge">
<title>Node1&#45;&gt;Node5</title>
<path fill="none" stroke="#63b8ff" d="M1547.95,-722.79C1688.64,-710.62 2078,-672.09 2078,-618.38 2078,-618.38 2078,-618.38 2078,-450.62 2078,-262.38 1869.08,-340.14 1692,-276.25 1638.53,-256.96 1620.65,-258.24 1567.05,-242.04"/>
<polygon fill="#63b8ff" stroke="#63b8ff" points="1568.19,-238.43 1557.6,-238.81 1566.12,-245.11 1568.19,-238.43"/>
</g>
<!-- Node6 -->
<g id="node6" class="node">
<title>Node6</title>
<g id="a_node6"><a xlink:href="common_8h.html" target="_top" xlink:title=" ">
<polygon fill="white" stroke="#666666" points="2234.12,-516.5 2143.88,-516.5 2143.88,-497.25 2234.12,-497.25 2234.12,-516.5"/>
<text text-anchor="middle" x="2189" y="-503" font-family="Helvetica,sans-Serif" font-size="10.00">cppgc/common.h</text>
</a>
</g>
</g>
<!-- Node1&#45;&gt;Node6 -->
<g id="edge5" class="edge">
<title>Node1&#45;&gt;Node6</title>
<path fill="none" stroke="#63b8ff" d="M1547.96,-726.48C1689.24,-724.94 2084.35,-717.5 2130,-682.25 2178.86,-644.52 2187.58,-564.45 2188.91,-527.42"/>
<polygon fill="#63b8ff" stroke="#63b8ff" points="2192.43,-527.7 2189.13,-517.63 2185.43,-527.56 2192.43,-527.7"/>
</g>
<!-- Node7 -->
<g id="node7" class="node">
<title>Node7</title>
<g id="a_node7"><a xlink:href="v8config_8h.html" target="_top" xlink:title=" ">
<polygon fill="white" stroke="#666666" points="1633.75,-74.5 1574.25,-74.5 1574.25,-55.25 1633.75,-55.25 1633.75,-74.5"/>
<text text-anchor="middle" x="1604" y="-61" font-family="Helvetica,sans-Serif" font-size="10.00">v8config.h</text>
</a>
</g>
</g>
<!-- Node1&#45;&gt;Node7 -->
<g id="edge138" class="edge">
<title>Node1&#45;&gt;Node7</title>
<path fill="none" stroke="#63b8ff" d="M1548.07,-727.11C1710.5,-727.44 2221.41,-724.97 2380,-682.25 2439.86,-666.13 2504,-680.37 2504,-618.38 2504,-618.38 2504,-618.38 2504,-284.88 2504,-197.99 2423.3,-210.79 2349,-165.75 2299.14,-135.52 2286.46,-125.09 2230,-110.5 2118.74,-81.74 1765.79,-70.08 1645.01,-66.86"/>
<polygon fill="#63b8ff" stroke="#63b8ff" points="1645.15,-63.34 1635.06,-66.58 1644.96,-70.34 1645.15,-63.34"/>
</g>
<!-- Node8 -->
<g id="node8" class="node">
<title>Node8</title>
<g id="a_node8"><a xlink:href="v8-array-buffer_8h.html" target="_top" xlink:title=" ">
<polygon fill="white" stroke="#666666" points="520.5,-516.5 435.5,-516.5 435.5,-497.25 520.5,-497.25 520.5,-516.5"/>
<text text-anchor="middle" x="478" y="-503" font-family="Helvetica,sans-Serif" font-size="10.00">v8&#45;array&#45;buffer.h</text>
</a>
</g>
</g>
<!-- Node1&#45;&gt;Node8 -->
<g id="edge8" class="edge">
<title>Node1&#45;&gt;Node8</title>
<path fill="none" stroke="#63b8ff" d="M1448.07,-726.12C1255.72,-723.03 571.6,-710.11 535,-682.25 486.04,-644.99 478.52,-564.68 477.77,-527.5"/>
<polygon fill="#63b8ff" stroke="#63b8ff" points="481.26,-527.66 477.72,-517.67 474.27,-527.68 481.26,-527.66"/>
</g>
<!-- Node9 -->
<g id="node9" class="node">
<title>Node9</title>
<g id="a_node9"><a xlink:href="v8-local-handle_8h.html" target="_top" xlink:title=" ">
<polygon fill="white" stroke="#666666" points="904.38,-240.25 815.62,-240.25 815.62,-221 904.38,-221 904.38,-240.25"/>
<text text-anchor="middle" x="860" y="-226.75" font-family="Helvetica,sans-Serif" font-size="10.00">v8&#45;local&#45;handle.h</text>
</a>
</g>
</g>
<!-- Node1&#45;&gt;Node9 -->
<g id="edge117" class="edge">
<title>Node1&#45;&gt;Node9</title>
<path fill="none" stroke="#63b8ff" d="M1447.98,-726.46C1252.25,-724.21 549,-709.74 549,-618.38 549,-618.38 549,-618.38 549,-450.62 549,-349.83 609.13,-330.63 694,-276.25 727.33,-254.89 770.69,-243.69 804.73,-237.85"/>
<polygon fill="#63b8ff" stroke="#63b8ff" points="805.11,-241.17 814.43,-236.13 804.01,-234.26 805.11,-241.17"/>
</g>
<!-- Node13 -->
<g id="node13" class="node">
<title>Node13</title>
<g id="a_node13"><a xlink:href="v8-internal_8h.html" target="_top" xlink:title=" ">
<polygon fill="white" stroke="#666666" points="811.25,-129.75 742.75,-129.75 742.75,-110.5 811.25,-110.5 811.25,-129.75"/>
<text text-anchor="middle" x="777" y="-116.25" font-family="Helvetica,sans-Serif" font-size="10.00">v8&#45;internal.h</text>
</a>
</g>
</g>
<!-- Node1&#45;&gt;Node13 -->
<g id="edge116" class="edge">
<title>Node1&#45;&gt;Node13</title>
<path fill="none" stroke="#63b8ff" d="M1448.1,-726.45C1273.91,-724.7 693.63,-716.38 511,-682.25 423.43,-665.88 321,-707.46 321,-618.38 321,-618.38 321,-618.38 321,-505.88 321,-392.32 655.51,-191.04 751.52,-135.61"/>
<polygon fill="#63b8ff" stroke="#63b8ff" points="753.11,-138.16 760.04,-130.14 749.62,-132.09 753.11,-138.16"/>
</g>
<!-- Node19 -->
<g id="node19" class="node">
<title>Node19</title>
<g id="a_node19"><a xlink:href="v8-persistent-handle_8h.html" target="_top" xlink:title=" ">
<polygon fill="white" stroke="#666666" points="1664.62,-295.5 1553.38,-295.5 1553.38,-276.25 1664.62,-276.25 1664.62,-295.5"/>
<text text-anchor="middle" x="1609" y="-282" font-family="Helvetica,sans-Serif" font-size="10.00">v8&#45;persistent&#45;handle.h</text>
</a>
</g>
</g>
<!-- Node1&#45;&gt;Node19 -->
<g id="edge119" class="edge">
<title>Node1&#45;&gt;Node19</title>
<path fill="none" stroke="#63b8ff" d="M1547.96,-722.86C1629.09,-713.2 1785.86,-680.62 1840,-571.75 1843.81,-564.09 1843,-560.51 1840,-552.5 1817.43,-492.17 1675.4,-351.08 1625.95,-303.15"/>
<polygon fill="#63b8ff" stroke="#63b8ff" points="1628.96,-301.23 1619.34,-296.8 1624.1,-306.26 1628.96,-301.23"/>
</g>
<!-- Node21 -->
<g id="node21" class="node">
<title>Node21</title>
<g id="a_node21"><a xlink:href="v8-primitive_8h.html" target="_top" xlink:title=" ">
<polygon fill="white" stroke="#666666" points="1265.88,-406 1192.12,-406 1192.12,-386.75 1265.88,-386.75 1265.88,-406"/>
<text text-anchor="middle" x="1229" y="-392.5" font-family="Helvetica,sans-Serif" font-size="10.00">v8&#45;primitive.h</text>
</a>
</g>
</g>
<!-- Node1&#45;&gt;Node21 -->
<g id="edge120" class="edge">
<title>Node1&#45;&gt;Node21</title>
<path fill="none" stroke="#63b8ff" d="M1448.18,-718.54C1366.24,-703.41 1212,-668.29 1212,-618.38 1212,-618.38 1212,-618.38 1212,-505.88 1212,-474.49 1219.03,-438.61 1224.05,-416.99"/>
<polygon fill="#63b8ff" stroke="#63b8ff" points="1227.68,-417.85 1226.64,-407.3 1220.88,-416.2 1227.68,-417.85"/>
</g>
<!-- Node22 -->
<g id="node22" class="node">
<title>Node22</title>
<g id="a_node22"><a xlink:href="v8-data_8h.html" target="_top" xlink:title=" ">
<polygon fill="white" stroke="#666666" points="1375.88,-295.5 1320.12,-295.5 1320.12,-276.25 1375.88,-276.25 1375.88,-295.5"/>
<text text-anchor="middle" x="1348" y="-282" font-family="Helvetica,sans-Serif" font-size="10.00">v8&#45;data.h</text>
</a>
</g>
</g>
<!-- Node1&#45;&gt;Node22 -->
<g id="edge79" class="edge">
<title>Node1&#45;&gt;Node22</title>
<path fill="none" stroke="#63b8ff" d="M1520.45,-717.82C1553.91,-702.65 1613,-668.74 1613,-618.38 1613,-618.38 1613,-618.38 1613,-561.12 1613,-531.51 1610.14,-522.09 1594,-497.25 1562.44,-448.69 1422.22,-341.94 1368.78,-302.19"/>
<polygon fill="#63b8ff" stroke="#63b8ff" points="1371.25,-298.92 1361.14,-295.78 1367.09,-304.55 1371.25,-298.92"/>
</g>
<!-- Node26 -->
<g id="node26" class="node">
<title>Node26</title>
<g id="a_node26"><a xlink:href="v8-callbacks_8h.html" target="_top" xlink:title=" ">
<polygon fill="white" stroke="#666666" points="1537.12,-571.75 1458.88,-571.75 1458.88,-552.5 1537.12,-552.5 1537.12,-571.75"/>
<text text-anchor="middle" x="1498" y="-558.25" font-family="Helvetica,sans-Serif" font-size="10.00">v8&#45;callbacks.h</text>
</a>
</g>
</g>
<!-- Node1&#45;&gt;Node26 -->
<g id="edge67" class="edge">
<title>Node1&#45;&gt;Node26</title>
<path fill="none" stroke="#63b8ff" d="M1498,-718.07C1498,-692.64 1498,-618.6 1498,-582.87"/>
<polygon fill="#63b8ff" stroke="#63b8ff" points="1501.5,-582.97 1498,-572.97 1494.5,-582.97 1501.5,-582.97"/>
</g>
<!-- Node30 -->
<g id="node30" class="node">
<title>Node30</title>
<g id="a_node30"><a xlink:href="v8-debug_8h.html" target="_top" xlink:title=" ">
<polygon fill="white" stroke="#666666" points="2370.62,-682.25 2307.38,-682.25 2307.38,-663 2370.62,-663 2370.62,-682.25"/>
<text text-anchor="middle" x="2339" y="-668.75" font-family="Helvetica,sans-Serif" font-size="10.00">v8&#45;debug.h</text>
</a>
</g>
</g>
<!-- Node1&#45;&gt;Node30 -->
<g id="edge80" class="edge">
<title>Node1&#45;&gt;Node30</title>
<path fill="none" stroke="#63b8ff" d="M1548.09,-723.7C1700.1,-714.08 2154.36,-685.32 2296.2,-676.34"/>
<polygon fill="#63b8ff" stroke="#63b8ff" points="2296.26,-679.77 2306.02,-675.65 2295.82,-672.79 2296.26,-679.77"/>
</g>
<!-- Node37 -->
<g id="node37" class="node">
<title>Node37</title>
<g id="a_node37"><a xlink:href="v8-embedder-heap_8h.html" target="_top" xlink:title=" ">
<polygon fill="white" stroke="#666666" points="2209.88,-350.75 2106.12,-350.75 2106.12,-331.5 2209.88,-331.5 2209.88,-350.75"/>
<text text-anchor="middle" x="2158" y="-337.25" font-family="Helvetica,sans-Serif" font-size="10.00">v8&#45;embedder&#45;heap.h</text>
</a>
</g>
</g>
<!-- Node1&#45;&gt;Node37 -->
<g id="edge107" class="edge">
<title>Node1&#45;&gt;Node37</title>
<path fill="none" stroke="#63b8ff" d="M1547.79,-726.17C1682.85,-723.83 2048.92,-714.54 2092,-682.25 2116.27,-664.06 2116,-648.7 2116,-618.38 2116,-618.38 2116,-618.38 2116,-450.62 2116,-417.1 2133.65,-381.44 2146.07,-360.51"/>
<polygon fill="#63b8ff" stroke="#63b8ff" points="2149.52,-362.58 2151.8,-352.24 2143.57,-358.9 2149.52,-362.58"/>
</g>
<!-- Node38 -->
<g id="node38" class="node">
<title>Node38</title>
<g id="a_node38"><a xlink:href="v8-function-callback_8h.html" target="_top" xlink:title=" ">
<polygon fill="white" stroke="#666666" points="791.25,-461.25 680.75,-461.25 680.75,-442 791.25,-442 791.25,-461.25"/>
<text text-anchor="middle" x="736" y="-447.75" font-family="Helvetica,sans-Serif" font-size="10.00">v8&#45;function&#45;callback.h</text>
</a>
</g>
</g>
<!-- Node1&#45;&gt;Node38 -->
<g id="edge110" class="edge">
<title>Node1&#45;&gt;Node38</title>
<path fill="none" stroke="#63b8ff" d="M1447.96,-725.67C1267.81,-720.68 663,-698 663,-618.38 663,-618.38 663,-618.38 663,-561.12 663,-523.01 694.39,-488.23 716,-468.8"/>
<polygon fill="#63b8ff" stroke="#63b8ff" points="717.98,-470.85 723.27,-461.67 713.41,-465.55 717.98,-470.85"/>
</g>
<!-- Node41 -->
<g id="node41" class="node">
<title>Node41</title>
<g id="a_node41"><a xlink:href="v8-microtask_8h.html" target="_top" xlink:title=" ">
<polygon fill="white" stroke="#666666" points="2649.88,-682.25 2570.12,-682.25 2570.12,-663 2649.88,-663 2649.88,-682.25"/>
<text text-anchor="middle" x="2610" y="-668.75" font-family="Helvetica,sans-Serif" font-size="10.00">v8&#45;microtask.h</text>
</a>
</g>
</g>
<!-- Node1&#45;&gt;Node41 -->
<g id="edge118" class="edge">
<title>Node1&#45;&gt;Node41</title>
<path fill="none" stroke="#63b8ff" d="M1547.99,-726.83C1699.91,-726.23 2169.35,-721.15 2556,-682.25 2556.97,-682.15 2557.95,-682.05 2558.94,-681.94"/>
<polygon fill="#63b8ff" stroke="#63b8ff" points="2559.18,-685.31 2568.67,-680.59 2558.31,-678.37 2559.18,-685.31"/>
</g>
<!-- Node42 -->
<g id="node42" class="node">
<title>Node42</title>
<g id="a_node42"><a xlink:href="v8-statistics_8h.html" target="_top" xlink:title=" ">
<polygon fill="white" stroke="#666666" points="979.38,-571.75 902.62,-571.75 902.62,-552.5 979.38,-552.5 979.38,-571.75"/>
<text text-anchor="middle" x="941" y="-558.25" font-family="Helvetica,sans-Serif" font-size="10.00">v8&#45;statistics.h</text>
</a>
</g>
</g>
<!-- Node1&#45;&gt;Node42 -->
<g id="edge121" class="edge">
<title>Node1&#45;&gt;Node42</title>
<path fill="none" stroke="#63b8ff" d="M1447.95,-723.82C1387.6,-719.14 1283.63,-707.88 1198,-682.25 1108.62,-655.49 1010.57,-602.97 965.79,-577.56"/>
<polygon fill="#63b8ff" stroke="#63b8ff" points="967.74,-574.08 957.32,-572.15 964.26,-580.15 967.74,-574.08"/>
</g>
<!-- Node43 -->
<g id="node43" class="node">
<title>Node43</title>
<g id="a_node43"><a xlink:href="v8-unwinder_8h.html" target="_top" xlink:title=" ">
<polygon fill="white" stroke="#666666" points="324,-350.75 248,-350.75 248,-331.5 324,-331.5 324,-350.75"/>
<text text-anchor="middle" x="286" y="-337.25" font-family="Helvetica,sans-Serif" font-size="10.00">v8&#45;unwinder.h</text>
</a>
</g>
</g>
<!-- Node1&#45;&gt;Node43 -->
<g id="edge131" class="edge">
<title>Node1&#45;&gt;Node43</title>
<path fill="none" stroke="#63b8ff" d="M1447.93,-726.54C1227.68,-724.85 353.93,-716.06 307,-682.25 282.4,-664.52 283,-648.7 283,-618.38 283,-618.38 283,-618.38 283,-450.62 283,-419.61 284.24,-383.62 285.13,-361.88"/>
<polygon fill="#63b8ff" stroke="#63b8ff" points="288.66,-362.26 285.58,-352.12 281.66,-361.97 288.66,-362.26"/>
</g>
<!-- Node6&#45;&gt;Node7 -->
<g id="edge6" class="edge">
<title>Node6&#45;&gt;Node7</title>
<path fill="none" stroke="#63b8ff" d="M2196.23,-496.92C2209.86,-479.11 2238,-437.47 2238,-397.38 2238,-397.38 2238,-397.38 2238,-229.62 2238,-157.26 2192.07,-142.17 2127,-110.5 2042.22,-69.24 1752.79,-65.53 1644.94,-65.62"/>
<polygon fill="#63b8ff" stroke="#63b8ff" points="1645.18,-62.12 1635.19,-65.64 1645.2,-69.12 1645.18,-62.12"/>
</g>
<!-- Node7&#45;&gt;Node4 -->
<g id="edge7" class="edge">
<title>Node7&#45;&gt;Node4</title>
<path fill="none" stroke="#63b8ff" d="M1573.98,-62.71C1394.22,-55.76 461.47,-19.66 264.54,-12.04"/>
<polygon fill="#63b8ff" stroke="#63b8ff" points="264.78,-8.51 254.66,-11.62 264.51,-15.5 264.78,-8.51"/>
</g>
<!-- Node8&#45;&gt;Node2 -->
<g id="edge9" class="edge">
<title>Node8&#45;&gt;Node2</title>
<path fill="none" stroke="#63b8ff" d="M474.6,-497.03C461.91,-463.18 418,-338.36 418,-231.62 418,-231.62 418,-231.62 418,-174.38 418,-135.6 450.97,-100.83 473.48,-81.61"/>
<polygon fill="#63b8ff" stroke="#63b8ff" points="475.27,-83.85 480.79,-74.81 470.83,-78.44 475.27,-83.85"/>
</g>
<!-- Node8&#45;&gt;Node4 -->
<g id="edge10" class="edge">
<title>Node8&#45;&gt;Node4</title>
<path fill="none" stroke="#63b8ff" d="M438.95,-496.8C331.27,-469.23 38,-375.83 38,-176.38 38,-176.38 38,-176.38 38,-119.12 38,-88.8 39.54,-75.63 62,-55.25 97.75,-22.81 154.6,-13.55 191.61,-11.12"/>
<polygon fill="#63b8ff" stroke="#63b8ff" points="191.61,-14.58 201.42,-10.57 191.25,-7.59 191.61,-14.58"/>
</g>
<!-- Node8&#45;&gt;Node7 -->
<g id="edge66" class="edge">
<title>Node8&#45;&gt;Node7</title>
<path fill="none" stroke="#63b8ff" d="M520.92,-503.34C678.43,-493.65 1218.43,-456.95 1275,-406 1325.1,-360.87 1294.88,-156.7 1344,-110.5 1375.06,-81.28 1498.52,-70.96 1563.51,-67.5"/>
<polygon fill="#63b8ff" stroke="#63b8ff" points="1563.36,-70.96 1573.17,-66.97 1563.01,-63.97 1563.36,-70.96"/>
</g>
<!-- Node8&#45;&gt;Node9 -->
<g id="edge11" class="edge">
<title>Node8&#45;&gt;Node9</title>
<path fill="none" stroke="#63b8ff" d="M479.5,-496.93C485.89,-461.97 514.22,-333.61 594,-276.25 626.86,-252.62 736.65,-240.56 804.47,-235.21"/>
<polygon fill="#63b8ff" stroke="#63b8ff" points="804.68,-238.63 814.39,-234.38 804.15,-231.65 804.68,-238.63"/>
</g>
<!-- Node17 -->
<g id="node17" class="node">
<title>Node17</title>
<g id="a_node17"><a xlink:href="v8-object_8h.html" target="_top" xlink:title=" ">
<polygon fill="white" stroke="#666666" points="1303.62,-461.25 1240.38,-461.25 1240.38,-442 1303.62,-442 1303.62,-461.25"/>
<text text-anchor="middle" x="1272" y="-447.75" font-family="Helvetica,sans-Serif" font-size="10.00">v8&#45;object.h</text>
</a>
</g>
</g>
<!-- Node8&#45;&gt;Node17 -->
<g id="edge26" class="edge">
<title>Node8&#45;&gt;Node17</title>
<path fill="none" stroke="#63b8ff" d="M520.97,-502.99C659.15,-493.73 1091.06,-464.76 1229.12,-455.5"/>
<polygon fill="#63b8ff" stroke="#63b8ff" points="1229.31,-458.93 1239.05,-454.77 1228.84,-451.94 1229.31,-458.93"/>
</g>
<!-- Node9&#45;&gt;Node2 -->
<g id="edge12" class="edge">
<title>Node9&#45;&gt;Node2</title>
<path fill="none" stroke="#63b8ff" d="M839.48,-220.6C819.06,-211.62 786.84,-197.41 759,-185 673.58,-146.93 572.9,-101.52 523.86,-79.37"/>
<polygon fill="#63b8ff" stroke="#63b8ff" points="525.48,-75.81 514.93,-74.88 522.6,-82.19 525.48,-75.81"/>
</g>
<!-- Node10 -->
<g id="node10" class="node">
<title>Node10</title>
<g id="a_node10"><a xlink:title=" ">
<polygon fill="#e0e0e0" stroke="#999999" points="1021.5,-74.5 960.5,-74.5 960.5,-55.25 1021.5,-55.25 1021.5,-74.5"/>
<text text-anchor="middle" x="991" y="-61" font-family="Helvetica,sans-Serif" font-size="10.00">type_traits</text>
</a>
</g>
</g>
<!-- Node9&#45;&gt;Node10 -->
<g id="edge13" class="edge">
<title>Node9&#45;&gt;Node10</title>
<path fill="none" stroke="#63b8ff" d="M866.56,-220.66C876.37,-207.62 895.89,-183.08 916,-165.75 938.42,-146.44 954.23,-153.41 972,-129.75 981.78,-116.73 986.55,-98.71 988.86,-85.14"/>
<polygon fill="#63b8ff" stroke="#63b8ff" points="992.42,-85.97 990.33,-75.58 985.49,-85.01 992.42,-85.97"/>
</g>
<!-- Node11 -->
<g id="node11" class="node">
<title>Node11</title>
<g id="a_node11"><a xlink:title=" ">
<polygon fill="#e0e0e0" stroke="#999999" points="967.5,-185 924.5,-185 924.5,-165.75 967.5,-165.75 967.5,-185"/>
<text text-anchor="middle" x="946" y="-171.5" font-family="Helvetica,sans-Serif" font-size="10.00">vector</text>
</a>
</g>
</g>
<!-- Node9&#45;&gt;Node11 -->
<g id="edge14" class="edge">
<title>Node9&#45;&gt;Node11</title>
<path fill="none" stroke="#63b8ff" d="M874.59,-220.59C887.56,-212.56 906.78,-200.66 922.01,-191.23"/>
<polygon fill="#63b8ff" stroke="#63b8ff" points="923.68,-193.69 930.34,-185.45 920,-187.74 923.68,-193.69"/>
</g>
<!-- Node12 -->
<g id="node12" class="node">
<title>Node12</title>
<g id="a_node12"><a xlink:href="v8-handle-base_8h.html" target="_top" xlink:title=" ">
<polygon fill="white" stroke="#666666" points="867.75,-185 778.25,-185 778.25,-165.75 867.75,-165.75 867.75,-185"/>
<text text-anchor="middle" x="823" y="-171.5" font-family="Helvetica,sans-Serif" font-size="10.00">v8&#45;handle&#45;base.h</text>
</a>
</g>
</g>
<!-- Node9&#45;&gt;Node12 -->
<g id="edge15" class="edge">
<title>Node9&#45;&gt;Node12</title>
<path fill="none" stroke="#63b8ff" d="M853.89,-220.83C848.89,-213.63 841.64,-203.21 835.43,-194.26"/>
<polygon fill="#63b8ff" stroke="#63b8ff" points="837.82,-192.57 829.24,-186.36 832.07,-196.57 837.82,-192.57"/>
</g>
<!-- Node9&#45;&gt;Node13 -->
<g id="edge25" class="edge">
<title>Node9&#45;&gt;Node13</title>
<path fill="none" stroke="#63b8ff" d="M820.17,-220.56C801.21,-214.03 780.26,-203.07 769,-185 760.69,-171.66 763.92,-153.7 768.52,-140.23"/>
<polygon fill="#63b8ff" stroke="#63b8ff" points="772.08,-141.74 772.49,-131.16 765.57,-139.18 772.08,-141.74"/>
</g>
<!-- Node12&#45;&gt;Node13 -->
<g id="edge16" class="edge">
<title>Node12&#45;&gt;Node13</title>
<path fill="none" stroke="#63b8ff" d="M815.4,-165.58C808.98,-158.15 799.6,-147.29 791.72,-138.16"/>
<polygon fill="#63b8ff" stroke="#63b8ff" points="793.95,-136.39 784.76,-131.11 788.65,-140.96 793.95,-136.39"/>
</g>
<!-- Node13&#45;&gt;Node2 -->
<g id="edge17" class="edge">
<title>Node13&#45;&gt;Node2</title>
<path fill="none" stroke="#63b8ff" d="M742.3,-112.6C688.31,-102.44 584.72,-82.95 529.97,-72.64"/>
<polygon fill="#63b8ff" stroke="#63b8ff" points="530.85,-69.06 520.38,-70.65 529.56,-75.94 530.85,-69.06"/>
</g>
<!-- Node13&#45;&gt;Node3 -->
<g id="edge18" class="edge">
<title>Node13&#45;&gt;Node3</title>
<path fill="none" stroke="#63b8ff" d="M811.64,-114.85C825.96,-113.23 842.76,-111.54 858,-110.5 1440.13,-70.87 2152.23,-66.43 2316.89,-65.94"/>
<polygon fill="#63b8ff" stroke="#63b8ff" points="2316.8,-69.43 2326.79,-65.91 2316.78,-62.43 2316.8,-69.43"/>
</g>
<!-- Node13&#45;&gt;Node4 -->
<g id="edge22" class="edge">
<title>Node13&#45;&gt;Node4</title>
<path fill="none" stroke="#63b8ff" d="M777.26,-110.46C777.16,-96.4 774.69,-68.83 758,-55.25 719.82,-24.2 377.71,-13.92 264.32,-11.35"/>
<polygon fill="#63b8ff" stroke="#63b8ff" points="264.55,-7.83 254.47,-11.11 264.39,-14.83 264.55,-7.83"/>
</g>
<!-- Node13&#45;&gt;Node7 -->
<g id="edge24" class="edge">
<title>Node13&#45;&gt;Node7</title>
<path fill="none" stroke="#63b8ff" d="M811.65,-115.08C825.98,-113.5 842.78,-111.76 858,-110.5 1126.45,-88.19 1450.14,-72.72 1562.9,-67.66"/>
<polygon fill="#63b8ff" stroke="#63b8ff" points="1562.93,-71.12 1572.76,-67.18 1562.62,-64.13 1562.93,-71.12"/>
</g>
<!-- Node13&#45;&gt;Node10 -->
<g id="edge23" class="edge">
<title>Node13&#45;&gt;Node10</title>
<path fill="none" stroke="#63b8ff" d="M811.38,-110.57C849.05,-101.2 909.44,-86.17 949.65,-76.16"/>
<polygon fill="#63b8ff" stroke="#63b8ff" points="950.32,-79.36 959.18,-73.55 948.63,-72.56 950.32,-79.36"/>
</g>
<!-- Node14 -->
<g id="node14" class="node">
<title>Node14</title>
<g id="a_node14"><a xlink:title=" ">
<polygon fill="#e0e0e0" stroke="#999999" points="748.75,-74.5 701.25,-74.5 701.25,-55.25 748.75,-55.25 748.75,-74.5"/>
<text text-anchor="middle" x="725" y="-61" font-family="Helvetica,sans-Serif" font-size="10.00">string.h</text>
</a>
</g>
</g>
<!-- Node13&#45;&gt;Node14 -->
<g id="edge19" class="edge">
<title>Node13&#45;&gt;Node14</title>
<path fill="none" stroke="#63b8ff" d="M768.41,-110.33C761.08,-102.82 750.33,-91.81 741.36,-82.63"/>
<polygon fill="#63b8ff" stroke="#63b8ff" points="744.26,-80.57 734.77,-75.86 739.26,-85.46 744.26,-80.57"/>
</g>
<!-- Node15 -->
<g id="node15" class="node">
<title>Node15</title>
<g id="a_node15"><a xlink:title=" ">
<polygon fill="#e0e0e0" stroke="#999999" points="1307.62,-74.5 1262.38,-74.5 1262.38,-55.25 1307.62,-55.25 1307.62,-74.5"/>
<text text-anchor="middle" x="1285" y="-61" font-family="Helvetica,sans-Serif" font-size="10.00">atomic</text>
</a>
</g>
</g>
<!-- Node13&#45;&gt;Node15 -->
<g id="edge20" class="edge">
<title>Node13&#45;&gt;Node15</title>
<path fill="none" stroke="#63b8ff" d="M811.69,-115.42C826.02,-113.89 842.81,-112.1 858,-110.5 1004.7,-95.02 1179.78,-76.81 1251.68,-69.33"/>
<polygon fill="#63b8ff" stroke="#63b8ff" points="1251.73,-72.74 1261.32,-68.23 1251.01,-65.78 1251.73,-72.74"/>
</g>
<!-- Node16 -->
<g id="node16" class="node">
<title>Node16</title>
<g id="a_node16"><a xlink:title=" ">
<polygon fill="#e0e0e0" stroke="#999999" points="864,-74.5 818,-74.5 818,-55.25 864,-55.25 864,-74.5"/>
<text text-anchor="middle" x="841" y="-61" font-family="Helvetica,sans-Serif" font-size="10.00">iterator</text>
</a>
</g>
</g>
<!-- Node13&#45;&gt;Node16 -->
<g id="edge21" class="edge">
<title>Node13&#45;&gt;Node16</title>
<path fill="none" stroke="#63b8ff" d="M787.86,-110.09C797.2,-102.32 810.89,-90.92 822.04,-81.65"/>
<polygon fill="#63b8ff" stroke="#63b8ff" points="823.86,-83.86 829.3,-74.77 819.38,-78.48 823.86,-83.86"/>
</g>
<!-- Node17&#45;&gt;Node7 -->
<g id="edge65" class="edge">
<title>Node17&#45;&gt;Node7</title>
<path fill="none" stroke="#63b8ff" d="M1278.63,-441.78C1314.17,-394.43 1482.96,-170.78 1545,-110.5 1556.08,-99.73 1569.78,-89.23 1581.19,-81.12"/>
<polygon fill="#63b8ff" stroke="#63b8ff" points="1582.9,-83.5 1589.12,-74.92 1578.91,-77.75 1582.9,-83.5"/>
</g>
<!-- Node17&#45;&gt;Node9 -->
<g id="edge27" class="edge">
<title>Node17&#45;&gt;Node9</title>
<path fill="none" stroke="#63b8ff" d="M1253.93,-441.57C1235.95,-432.56 1207.56,-418.33 1183,-406 1085.21,-356.92 1058.48,-348.94 963,-295.5 934.91,-279.78 903.62,-260.04 882.97,-246.7"/>
<polygon fill="#63b8ff" stroke="#63b8ff" points="885.05,-243.22 874.76,-240.71 881.23,-249.09 885.05,-243.22"/>
</g>
<!-- Node18 -->
<g id="node18" class="node">
<title>Node18</title>
<g id="a_node18"><a xlink:href="v8-maybe_8h.html" target="_top" xlink:title=" ">
<polygon fill="white" stroke="#666666" points="1535.75,-295.5 1470.25,-295.5 1470.25,-276.25 1535.75,-276.25 1535.75,-295.5"/>
<text text-anchor="middle" x="1503" y="-282" font-family="Helvetica,sans-Serif" font-size="10.00">v8&#45;maybe.h</text>
</a>
</g>
</g>
<!-- Node17&#45;&gt;Node18 -->
<g id="edge28" class="edge">
<title>Node17&#45;&gt;Node18</title>
<path fill="none" stroke="#63b8ff" d="M1303.9,-444.44C1335.09,-437.64 1383.39,-425.07 1422,-406 1459.44,-387.5 1477.61,-387.19 1498,-350.75 1505.49,-337.37 1506.36,-319.89 1505.57,-306.59"/>
<polygon fill="#63b8ff" stroke="#63b8ff" points="1508.98,-306.42 1504.52,-296.8 1502.01,-307.09 1508.98,-306.42"/>
</g>
<!-- Node17&#45;&gt;Node19 -->
<g id="edge33" class="edge">
<title>Node17&#45;&gt;Node19</title>
<path fill="none" stroke="#63b8ff" d="M1303.98,-444.56C1349.21,-435.7 1429.36,-418.86 1456,-406 1511.81,-379.06 1566.46,-329.27 1592.77,-303.42"/>
<polygon fill="#63b8ff" stroke="#63b8ff" points="1594.67,-306.47 1599.28,-296.93 1589.73,-301.51 1594.67,-306.47"/>
</g>
<!-- Node17&#45;&gt;Node21 -->
<g id="edge39" class="edge">
<title>Node17&#45;&gt;Node21</title>
<path fill="none" stroke="#63b8ff" d="M1264.9,-441.83C1258.96,-434.48 1250.31,-423.76 1242.98,-414.69"/>
<polygon fill="#63b8ff" stroke="#63b8ff" points="1245.26,-412.94 1236.25,-407.36 1239.81,-417.34 1245.26,-412.94"/>
</g>
<!-- Node23 -->
<g id="node23" class="node">
<title>Node23</title>
<g id="a_node23"><a xlink:href="v8-value_8h.html" target="_top" xlink:title=" ">
<polygon fill="white" stroke="#666666" points="1266.12,-350.75 1205.88,-350.75 1205.88,-331.5 1266.12,-331.5 1266.12,-350.75"/>
<text text-anchor="middle" x="1236" y="-337.25" font-family="Helvetica,sans-Serif" font-size="10.00">v8&#45;value.h</text>
</a>
</g>
</g>
<!-- Node17&#45;&gt;Node23 -->
<g id="edge64" class="edge">
<title>Node17&#45;&gt;Node23</title>
<path fill="none" stroke="#63b8ff" d="M1274.6,-441.6C1277.78,-428.9 1281.94,-405.25 1275,-386.75 1270.96,-376 1263.03,-366.14 1255.37,-358.44"/>
<polygon fill="#63b8ff" stroke="#63b8ff" points="1258.07,-356.23 1248.36,-351.99 1253.3,-361.36 1258.07,-356.23"/>
</g>
<!-- Node24 -->
<g id="node24" class="node">
<title>Node24</title>
<g id="a_node24"><a xlink:href="v8-traced-handle_8h.html" target="_top" xlink:title=" ">
<polygon fill="white" stroke="#666666" points="1889.75,-295.5 1794.25,-295.5 1794.25,-276.25 1889.75,-276.25 1889.75,-295.5"/>
<text text-anchor="middle" x="1842" y="-282" font-family="Helvetica,sans-Serif" font-size="10.00">v8&#45;traced&#45;handle.h</text>
</a>
</g>
</g>
<!-- Node17&#45;&gt;Node24 -->
<g id="edge52" class="edge">
<title>Node17&#45;&gt;Node24</title>
<path fill="none" stroke="#63b8ff" d="M1303.82,-445.2C1345.86,-437.75 1422.07,-423.3 1486,-406 1606.13,-373.5 1745.12,-323.2 1808,-299.74"/>
<polygon fill="#63b8ff" stroke="#63b8ff" points="1808.99,-302.74 1817.13,-295.95 1806.53,-296.18 1808.99,-302.74"/>
</g>
<!-- Node18&#45;&gt;Node5 -->
<g id="edge30" class="edge">
<title>Node18&#45;&gt;Node5</title>
<path fill="none" stroke="#63b8ff" d="M1508.61,-276.08C1513.16,-268.96 1519.73,-258.68 1525.4,-249.8"/>
<polygon fill="#63b8ff" stroke="#63b8ff" points="1528.83,-251.92 1531.26,-241.61 1522.93,-248.15 1528.83,-251.92"/>
</g>
<!-- Node18&#45;&gt;Node7 -->
<g id="edge32" class="edge">
<title>Node18&#45;&gt;Node7</title>
<path fill="none" stroke="#63b8ff" d="M1500.78,-275.98C1498.06,-263.44 1494.43,-239.96 1500,-221 1516.66,-164.26 1562.37,-109.63 1587.28,-82.9"/>
<polygon fill="#63b8ff" stroke="#63b8ff" points="1589.49,-85.6 1593.86,-75.95 1584.43,-80.77 1589.49,-85.6"/>
</g>
<!-- Node18&#45;&gt;Node10 -->
<g id="edge29" class="edge">
<title>Node18&#45;&gt;Node10</title>
<path fill="none" stroke="#63b8ff" d="M1481.97,-275.88C1402.08,-241.71 1117.06,-119.79 1022.06,-79.16"/>
<polygon fill="#63b8ff" stroke="#63b8ff" points="1023.77,-75.66 1013.2,-74.94 1021.02,-82.09 1023.77,-75.66"/>
</g>
<!-- Node18&#45;&gt;Node13 -->
<g id="edge31" class="edge">
<title>Node18&#45;&gt;Node13</title>
<path fill="none" stroke="#63b8ff" d="M1469.77,-278.69C1427.08,-270.6 1350.74,-255.63 1286,-240.25 1162.38,-210.88 1133.81,-194.28 1010,-165.75 974.93,-157.67 879.18,-139.83 821.93,-129.32"/>
<polygon fill="#63b8ff" stroke="#63b8ff" points="822.83,-125.74 812.36,-127.38 821.57,-132.63 822.83,-125.74"/>
</g>
<!-- Node19&#45;&gt;Node7 -->
<g id="edge38" class="edge">
<title>Node19&#45;&gt;Node7</title>
<path fill="none" stroke="#63b8ff" d="M1561.98,-275.78C1542.1,-269.36 1520.85,-258.51 1509,-240.25 1493.43,-216.26 1525.59,-208.43 1542,-185 1565.09,-152.03 1585.24,-109.34 1595.91,-85.05"/>
<polygon fill="#63b8ff" stroke="#63b8ff" points="1599.49,-86.57 1600.24,-76 1593.07,-83.8 1599.49,-86.57"/>
</g>
<!-- Node19&#45;&gt;Node9 -->
<g id="edge35" class="edge">
<title>Node19&#45;&gt;Node9</title>
<path fill="none" stroke="#63b8ff" d="M1553.18,-277.12C1550.42,-276.81 1547.68,-276.52 1545,-276.25 1311.51,-252.94 1031.96,-239.09 915.34,-233.93"/>
<polygon fill="#63b8ff" stroke="#63b8ff" points="915.71,-230.4 905.57,-233.46 915.4,-237.4 915.71,-230.4"/>
</g>
<!-- Node19&#45;&gt;Node13 -->
<g id="edge34" class="edge">
<title>Node19&#45;&gt;Node13</title>
<path fill="none" stroke="#63b8ff" d="M1561.62,-275.79C1475.95,-259.18 1289.74,-222.16 1134,-185 1101.78,-177.31 1094.42,-172.53 1062,-165.75 957.71,-143.96 930.11,-147.17 825,-129.75 824.05,-129.59 823.09,-129.43 822.12,-129.27"/>
<polygon fill="#63b8ff" stroke="#63b8ff" points="823.04,-125.7 812.59,-127.46 821.85,-132.6 823.04,-125.7"/>
</g>
<!-- Node20 -->
<g id="node20" class="node">
<title>Node20</title>
<g id="a_node20"><a xlink:href="v8-weak-callback-info_8h.html" target="_top" xlink:title=" ">
<polygon fill="white" stroke="#666666" points="1730,-240.25 1612,-240.25 1612,-221 1730,-221 1730,-240.25"/>
<text text-anchor="middle" x="1671" y="-226.75" font-family="Helvetica,sans-Serif" font-size="10.00">v8&#45;weak&#45;callback&#45;info.h</text>
</a>
</g>
</g>
<!-- Node19&#45;&gt;Node20 -->
<g id="edge36" class="edge">
<title>Node19&#45;&gt;Node20</title>
<path fill="none" stroke="#63b8ff" d="M1619.52,-275.84C1628.48,-268.15 1641.57,-256.9 1652.31,-247.68"/>
<polygon fill="#63b8ff" stroke="#63b8ff" points="1654.33,-249.7 1659.64,-240.52 1649.77,-244.39 1654.33,-249.7"/>
</g>
<!-- Node20&#45;&gt;Node7 -->
<g id="edge37" class="edge">
<title>Node20&#45;&gt;Node7</title>
<path fill="none" stroke="#63b8ff" d="M1667.4,-220.82C1656.9,-195.17 1626.17,-120.05 1611.7,-84.69"/>
<polygon fill="#63b8ff" stroke="#63b8ff" points="1614.65,-83.65 1607.62,-75.72 1608.17,-86.3 1614.65,-83.65"/>
</g>
<!-- Node21&#45;&gt;Node7 -->
<g id="edge51" class="edge">
<title>Node21&#45;&gt;Node7</title>
<path fill="none" stroke="#63b8ff" d="M1219.95,-386.42C1212.16,-378.04 1201.49,-364.73 1197,-350.75 1194.38,-342.61 1196.81,-340.05 1197,-331.5 1199.31,-229.27 1176.89,-168.65 1261,-110.5 1309.18,-77.19 1483.1,-68.73 1563.15,-66.6"/>
<polygon fill="#63b8ff" stroke="#63b8ff" points="1562.89,-70.08 1572.8,-66.33 1562.72,-63.08 1562.89,-70.08"/>
</g>
<!-- Node21&#45;&gt;Node9 -->
<g id="edge44" class="edge">
<title>Node21&#45;&gt;Node9</title>
<path fill="none" stroke="#63b8ff" d="M1208.64,-386.34C1147.15,-359.05 963.12,-277.39 890.22,-245.04"/>
<polygon fill="#63b8ff" stroke="#63b8ff" points="891.86,-241.49 881.3,-240.63 889.02,-247.89 891.86,-241.49"/>
</g>
<!-- Node21&#45;&gt;Node13 -->
<g id="edge43" class="edge">
<title>Node21&#45;&gt;Node13</title>
<path fill="none" stroke="#63b8ff" d="M1191.8,-388.55C1114.3,-372.93 932.38,-328.94 807,-240.25 780.44,-221.46 770.39,-215.47 759,-185 753.39,-169.99 759.19,-152.44 765.65,-139.54"/>
<polygon fill="#63b8ff" stroke="#63b8ff" points="769.19,-141.39 771.01,-130.95 763.07,-137.98 769.19,-141.39"/>
</g>
<!-- Node21&#45;&gt;Node22 -->
<g id="edge40" class="edge">
<title>Node21&#45;&gt;Node22</title>
<path fill="none" stroke="#63b8ff" d="M1238.74,-386.5C1258.7,-368.3 1304.52,-326.52 1330.03,-303.26"/>
<polygon fill="#63b8ff" stroke="#63b8ff" points="1332.1,-306.2 1337.13,-296.88 1327.38,-301.03 1332.1,-306.2"/>
</g>
<!-- Node21&#45;&gt;Node23 -->
<g id="edge45" class="edge">
<title>Node21&#45;&gt;Node23</title>
<path fill="none" stroke="#63b8ff" d="M1230.16,-386.58C1231.04,-379.84 1232.3,-370.27 1233.42,-361.74"/>
<polygon fill="#63b8ff" stroke="#63b8ff" points="1236.99,-362.48 1234.82,-352.11 1230.05,-361.57 1236.99,-362.48"/>
</g>
<!-- Node22&#45;&gt;Node7 -->
<g id="edge42" class="edge">
<title>Node22&#45;&gt;Node7</title>
<path fill="none" stroke="#63b8ff" d="M1345.38,-275.83C1337.75,-247.35 1318.65,-158.52 1362,-110.5 1388.28,-81.39 1501.31,-71.08 1563.16,-67.58"/>
<polygon fill="#63b8ff" stroke="#63b8ff" points="1563.28,-71.03 1573.08,-67 1562.91,-64.04 1563.28,-71.03"/>
</g>
<!-- Node22&#45;&gt;Node9 -->
<g id="edge41" class="edge">
<title>Node22&#45;&gt;Node9</title>
<path fill="none" stroke="#63b8ff" d="M1319.65,-281.78C1241.15,-273.22 1019.82,-249.06 915.6,-237.69"/>
<polygon fill="#63b8ff" stroke="#63b8ff" points="916,-234.11 905.68,-236.5 915.24,-241.06 916,-234.11"/>
</g>
<!-- Node23&#45;&gt;Node7 -->
<g id="edge50" class="edge">
<title>Node23&#45;&gt;Node7</title>
<path fill="none" stroke="#63b8ff" d="M1230.84,-331.27C1219.86,-311.23 1196.26,-261.05 1210,-221 1216.58,-201.83 1226.28,-201.54 1238,-185 1260.78,-152.87 1252.82,-131.72 1286,-110.5 1331.12,-81.65 1487.64,-70.97 1562.93,-67.43"/>
<polygon fill="#63b8ff" stroke="#63b8ff" points="1563.02,-70.89 1572.85,-66.94 1562.71,-63.9 1563.02,-70.89"/>
</g>
<!-- Node23&#45;&gt;Node9 -->
<g id="edge48" class="edge">
<title>Node23&#45;&gt;Node9</title>
<path fill="none" stroke="#63b8ff" d="M1210.19,-331.05C1172.87,-318.09 1101.58,-293.89 1040,-276.25 996.62,-263.82 946.78,-251.62 910.56,-243.13"/>
<polygon fill="#63b8ff" stroke="#63b8ff" points="911.79,-239.59 901.25,-240.73 910.2,-246.41 911.79,-239.59"/>
</g>
<!-- Node23&#45;&gt;Node13 -->
<g id="edge47" class="edge">
<title>Node23&#45;&gt;Node13</title>
<path fill="none" stroke="#63b8ff" d="M1223.37,-331.22C1175.2,-297.3 1004.33,-177.5 977,-165.75 962.87,-159.67 876.53,-141.44 822.01,-130.25"/>
<polygon fill="#63b8ff" stroke="#63b8ff" points="823.06,-126.68 812.56,-128.11 821.66,-133.54 823.06,-126.68"/>
</g>
<!-- Node23&#45;&gt;Node18 -->
<g id="edge49" class="edge">
<title>Node23&#45;&gt;Node18</title>
<path fill="none" stroke="#63b8ff" d="M1266.37,-334.07C1313.68,-324.63 1405.18,-306.38 1459.49,-295.55"/>
<polygon fill="#63b8ff" stroke="#63b8ff" points="1460.04,-298.81 1469.16,-293.42 1458.67,-291.95 1460.04,-298.81"/>
</g>
<!-- Node23&#45;&gt;Node22 -->
<g id="edge46" class="edge">
<title>Node23&#45;&gt;Node22</title>
<path fill="none" stroke="#63b8ff" d="M1255,-331.09C1272.54,-322.75 1298.84,-310.25 1319,-300.66"/>
<polygon fill="#63b8ff" stroke="#63b8ff" points="1320.38,-303.41 1327.91,-295.95 1317.37,-297.09 1320.38,-303.41"/>
</g>
<!-- Node24&#45;&gt;Node2 -->
<g id="edge53" class="edge">
<title>Node24&#45;&gt;Node2</title>
<path fill="none" stroke="#63b8ff" d="M1828.07,-276.01C1801.07,-258.88 1743.84,-222.71 1739,-221 1645.25,-187.89 1393.9,-175.97 1295,-165.75 1101.15,-145.71 1045.53,-182.77 858,-129.75 839.78,-124.6 838.07,-116.14 820,-110.5 718.1,-78.7 591.26,-69.55 530.19,-66.92"/>
<polygon fill="#63b8ff" stroke="#63b8ff" points="530.7,-63.4 520.57,-66.51 530.42,-70.4 530.7,-63.4"/>
</g>
<!-- Node24&#45;&gt;Node3 -->
<g id="edge54" class="edge">
<title>Node24&#45;&gt;Node3</title>
<path fill="none" stroke="#63b8ff" d="M1858.29,-275.87C1886.89,-260.17 1945.17,-228.72 1967,-221 2040.22,-195.1 2065.25,-212.19 2138,-185 2212.59,-157.12 2292.56,-106.28 2330.13,-81"/>
<polygon fill="#63b8ff" stroke="#63b8ff" points="2331.85,-83.38 2338.16,-74.86 2327.92,-77.59 2331.85,-83.38"/>
</g>
<!-- Node24&#45;&gt;Node4 -->
<g id="edge57" class="edge">
<title>Node24&#45;&gt;Node4</title>
<path fill="none" stroke="#63b8ff" d="M1848.9,-275.84C1857.43,-263.51 1870.12,-240.71 1864,-221 1855.16,-192.54 1846.59,-187.3 1826,-165.75 1760.36,-97.06 1735.09,-78.62 1643,-55.25 1506,-20.49 472.77,-12.17 264.51,-10.84"/>
<polygon fill="#63b8ff" stroke="#63b8ff" points="264.62,-7.33 254.6,-10.77 264.57,-14.33 264.62,-7.33"/>
</g>
<!-- Node24&#45;&gt;Node5 -->
<g id="edge59" class="edge">
<title>Node24&#45;&gt;Node5</title>
<path fill="none" stroke="#63b8ff" d="M1793.8,-277.52C1727.54,-267.31 1611.78,-249.12 1570,-240.25 1569.04,-240.05 1568.06,-239.83 1567.07,-239.61"/>
<polygon fill="#63b8ff" stroke="#63b8ff" points="1568.02,-235.99 1557.47,-237.04 1566.36,-242.8 1568.02,-235.99"/>
</g>
<!-- Node24&#45;&gt;Node7 -->
<g id="edge63" class="edge">
<title>Node24&#45;&gt;Node7</title>
<path fill="none" stroke="#63b8ff" d="M1845.82,-275.98C1850.76,-263.01 1857.65,-238.57 1848,-221 1804.44,-141.68 1701.22,-97.15 1643.98,-77.74"/>
<polygon fill="#63b8ff" stroke="#63b8ff" points="1645.44,-74.21 1634.85,-74.41 1643.25,-80.86 1645.44,-74.21"/>
</g>
<!-- Node24&#45;&gt;Node9 -->
<g id="edge61" class="edge">
<title>Node24&#45;&gt;Node9</title>
<path fill="none" stroke="#63b8ff" d="M1793.97,-282.27C1629.7,-273.36 1090.78,-244.14 915.57,-234.64"/>
<polygon fill="#63b8ff" stroke="#63b8ff" points="915.98,-231.1 905.81,-234.05 915.6,-238.09 915.98,-231.1"/>
</g>
<!-- Node24&#45;&gt;Node10 -->
<g id="edge58" class="edge">
<title>Node24&#45;&gt;Node10</title>
<path fill="none" stroke="#63b8ff" d="M1834.91,-275.8C1823.36,-261.68 1799.02,-234.65 1772,-221 1638.81,-153.7 1174.77,-89.58 1032.68,-71.15"/>
<polygon fill="#63b8ff" stroke="#63b8ff" points="1033.22,-67.56 1022.85,-69.75 1032.32,-74.5 1033.22,-67.56"/>
</g>
<!-- Node24&#45;&gt;Node13 -->
<g id="edge60" class="edge">
<title>Node24&#45;&gt;Node13</title>
<path fill="none" stroke="#63b8ff" d="M1793.83,-277.54C1734.57,-268.23 1637.58,-251.97 1603,-240.25 1585.07,-234.17 1583.11,-226.52 1565,-221 1406.51,-172.7 988.82,-154.55 825,-129.75 824.05,-129.61 823.09,-129.46 822.12,-129.31"/>
<polygon fill="#63b8ff" stroke="#63b8ff" points="823.01,-125.74 812.57,-127.57 821.87,-132.65 823.01,-125.74"/>
</g>
<!-- Node24&#45;&gt;Node15 -->
<g id="edge56" class="edge">
<title>Node24&#45;&gt;Node15</title>
<path fill="none" stroke="#63b8ff" d="M1839.88,-276.16C1836.13,-262.52 1827.06,-236.16 1810,-221 1701.91,-124.96 1643.21,-149.59 1504,-110.5 1439.36,-92.35 1362.05,-78.35 1318.73,-71.18"/>
<polygon fill="#63b8ff" stroke="#63b8ff" points="1319.39,-67.58 1308.96,-69.42 1318.27,-74.49 1319.39,-67.58"/>
</g>
<!-- Node24&#45;&gt;Node20 -->
<g id="edge62" class="edge">
<title>Node24&#45;&gt;Node20</title>
<path fill="none" stroke="#63b8ff" d="M1812.99,-275.84C1784.74,-267.04 1741.6,-253.61 1710.28,-243.86"/>
<polygon fill="#63b8ff" stroke="#63b8ff" points="1711.74,-240.33 1701.15,-240.7 1709.66,-247.02 1711.74,-240.33"/>
</g>
<!-- Node25 -->
<g id="node25" class="node">
<title>Node25</title>
<g id="a_node25"><a xlink:title=" ">
<polygon fill="#e0e0e0" stroke="#999999" points="2020.25,-240.25 1975.75,-240.25 1975.75,-221 2020.25,-221 2020.25,-240.25"/>
<text text-anchor="middle" x="1998" y="-226.75" font-family="Helvetica,sans-Serif" font-size="10.00">stdio.h</text>
</a>
</g>
</g>
<!-- Node24&#45;&gt;Node25 -->
<g id="edge55" class="edge">
<title>Node24&#45;&gt;Node25</title>
<path fill="none" stroke="#63b8ff" d="M1868.46,-275.84C1895.13,-266.74 1936.35,-252.67 1965.11,-242.85"/>
<polygon fill="#63b8ff" stroke="#63b8ff" points="1966.13,-245.86 1974.46,-239.32 1963.87,-239.24 1966.13,-245.86"/>
</g>
<!-- Node26&#45;&gt;Node2 -->
<g id="edge68" class="edge">
<title>Node26&#45;&gt;Node2</title>
<path fill="none" stroke="#63b8ff" d="M1458.86,-560.33C1313.95,-556.81 809.27,-539.09 672,-461.25 559.68,-397.55 494,-360.75 494,-231.62 494,-231.62 494,-231.62 494,-174.38 494,-143.37 494,-107.38 494,-85.63"/>
<polygon fill="#63b8ff" stroke="#63b8ff" points="497.5,-85.88 494,-75.88 490.5,-85.88 497.5,-85.88"/>
</g>
<!-- Node26&#45;&gt;Node6 -->
<g id="edge71" class="edge">
<title>Node26&#45;&gt;Node6</title>
<path fill="none" stroke="#63b8ff" d="M1537.38,-558.09C1653.86,-549.11 1997,-522.67 2132.78,-512.21"/>
<polygon fill="#63b8ff" stroke="#63b8ff" points="2133.02,-515.62 2142.72,-511.36 2132.49,-508.64 2133.02,-515.62"/>
</g>
<!-- Node26&#45;&gt;Node7 -->
<g id="edge78" class="edge">
<title>Node26&#45;&gt;Node7</title>
<path fill="none" stroke="#63b8ff" d="M1537.47,-560.05C1620.79,-556.24 1818.66,-539.02 1961,-461.25 1986,-447.59 2099.24,-337.27 2123,-295.5 2135.58,-273.38 2134.64,-265.47 2138,-240.25 2146.83,-174.01 2119.78,-144.09 2062,-110.5 1983.31,-64.75 1749.34,-88.04 1644.98,-75.17"/>
<polygon fill="#63b8ff" stroke="#63b8ff" points="1645.5,-71.56 1635.1,-73.61 1644.51,-78.49 1645.5,-71.56"/>
</g>
<!-- Node26&#45;&gt;Node9 -->
<g id="edge73" class="edge">
<title>Node26&#45;&gt;Node9</title>
<path fill="none" stroke="#63b8ff" d="M1458.66,-559.56C1405.38,-556.33 1308.09,-546.49 1231,-516.5 1066.15,-452.37 1020.68,-424.83 900,-295.5 887.32,-281.91 876.4,-263.74 869.19,-250.25"/>
<polygon fill="#63b8ff" stroke="#63b8ff" points="871.92,-248.91 864.23,-241.62 865.69,-252.11 871.92,-248.91"/>
</g>
<!-- Node26&#45;&gt;Node22 -->
<g id="edge72" class="edge">
<title>Node26&#45;&gt;Node22</title>
<path fill="none" stroke="#63b8ff" d="M1489.11,-552.1C1480.9,-543.45 1468.69,-529.78 1460,-516.5 1411.92,-443.05 1371.24,-345.91 1355.25,-305.62"/>
<polygon fill="#63b8ff" stroke="#63b8ff" points="1358.24,-304.66 1351.34,-296.63 1351.73,-307.22 1358.24,-304.66"/>
</g>
<!-- Node27 -->
<g id="node27" class="node">
<title>Node27</title>
<g id="a_node27"><a xlink:title=" ">
<polygon fill="#e0e0e0" stroke="#999999" points="1527,-516.5 1469,-516.5 1469,-497.25 1527,-497.25 1527,-516.5"/>
<text text-anchor="middle" x="1498" y="-503" font-family="Helvetica,sans-Serif" font-size="10.00">functional</text>
</a>
</g>
</g>
<!-- Node26&#45;&gt;Node27 -->
<g id="edge69" class="edge">
<title>Node26&#45;&gt;Node27</title>
<path fill="none" stroke="#63b8ff" d="M1498,-552.33C1498,-545.67 1498,-536.24 1498,-527.78"/>
<polygon fill="#63b8ff" stroke="#63b8ff" points="1501.5,-527.86 1498,-517.86 1494.5,-527.86 1501.5,-527.86"/>
</g>
<!-- Node28 -->
<g id="node28" class="node">
<title>Node28</title>
<g id="a_node28"><a xlink:title=" ">
<polygon fill="#e0e0e0" stroke="#999999" points="1585,-516.5 1545,-516.5 1545,-497.25 1585,-497.25 1585,-516.5"/>
<text text-anchor="middle" x="1565" y="-503" font-family="Helvetica,sans-Serif" font-size="10.00">string</text>
</a>
</g>
</g>
<!-- Node26&#45;&gt;Node28 -->
<g id="edge70" class="edge">
<title>Node26&#45;&gt;Node28</title>
<path fill="none" stroke="#63b8ff" d="M1509.37,-552.09C1519.24,-544.24 1533.77,-532.7 1545.5,-523.37"/>
<polygon fill="#63b8ff" stroke="#63b8ff" points="1547.15,-525.74 1552.8,-516.77 1542.8,-520.26 1547.15,-525.74"/>
</g>
<!-- Node29 -->
<g id="node29" class="node">
<title>Node29</title>
<g id="a_node29"><a xlink:href="v8-promise_8h.html" target="_top" xlink:title=" ">
<polygon fill="white" stroke="#666666" points="1311.75,-516.5 1240.25,-516.5 1240.25,-497.25 1311.75,-497.25 1311.75,-516.5"/>
<text text-anchor="middle" x="1276" y="-503" font-family="Helvetica,sans-Serif" font-size="10.00">v8&#45;promise.h</text>
</a>
</g>
</g>
<!-- Node26&#45;&gt;Node29 -->
<g id="edge74" class="edge">
<title>Node26&#45;&gt;Node29</title>
<path fill="none" stroke="#63b8ff" d="M1460.09,-552.03C1422.01,-542.9 1363.26,-528.81 1322.41,-519.01"/>
<polygon fill="#63b8ff" stroke="#63b8ff" points="1323.46,-515.42 1312.92,-516.49 1321.82,-522.23 1323.46,-515.42"/>
</g>
<!-- Node29&#45;&gt;Node7 -->
<g id="edge77" class="edge">
<title>Node29&#45;&gt;Node7</title>
<path fill="none" stroke="#63b8ff" d="M1311.96,-499.05C1450.35,-471.95 1944.96,-367.28 2029,-240.25 2071.07,-176.66 2214.73,-271.71 1753,-110.5 1716.78,-97.86 1674.88,-85.5 1644.75,-77.01"/>
<polygon fill="#63b8ff" stroke="#63b8ff" points="1645.79,-73.39 1635.22,-74.07 1643.91,-80.13 1645.79,-73.39"/>
</g>
<!-- Node29&#45;&gt;Node9 -->
<g id="edge75" class="edge">
<title>Node29&#45;&gt;Node9</title>
<path fill="none" stroke="#63b8ff" d="M1260.1,-496.91C1200.21,-463.05 988.58,-342.51 927,-295.5 907.96,-280.96 888.38,-261.7 875.34,-248.14"/>
<polygon fill="#63b8ff" stroke="#63b8ff" points="878.55,-246.38 869.13,-241.53 873.46,-251.2 878.55,-246.38"/>
</g>
<!-- Node29&#45;&gt;Node17 -->
<g id="edge76" class="edge">
<title>Node29&#45;&gt;Node17</title>
<path fill="none" stroke="#63b8ff" d="M1275.34,-497.08C1274.84,-490.42 1274.13,-480.99 1273.5,-472.53"/>
<polygon fill="#63b8ff" stroke="#63b8ff" points="1276.91,-472.32 1272.67,-462.61 1269.93,-472.84 1276.91,-472.32"/>
</g>
<!-- Node30&#45;&gt;Node3 -->
<g id="edge81" class="edge">
<title>Node30&#45;&gt;Node3</title>
<path fill="none" stroke="#63b8ff" d="M2370.73,-664.88C2393.32,-658.58 2422.92,-647.05 2442,-627 2462.91,-605.03 2466,-593.45 2466,-563.12 2466,-563.12 2466,-563.12 2466,-174.38 2466,-128.74 2417.48,-96.47 2383.75,-79.55"/>
<polygon fill="#63b8ff" stroke="#63b8ff" points="2385.78,-76.16 2375.25,-74.99 2382.75,-82.47 2385.78,-76.16"/>
</g>
<!-- Node30&#45;&gt;Node7 -->
<g id="edge106" class="edge">
<title>Node30&#45;&gt;Node7</title>
<path fill="none" stroke="#63b8ff" d="M2354.1,-662.68C2379.49,-646.37 2428,-609.17 2428,-563.12 2428,-563.12 2428,-563.12 2428,-340.12 2428,-194.73 2328.59,-167.88 2195,-110.5 2095.84,-67.91 1762.38,-65.15 1645.17,-65.55"/>
<polygon fill="#63b8ff" stroke="#63b8ff" points="1645.18,-62.05 1635.19,-65.6 1645.21,-69.05 1645.18,-62.05"/>
</g>
<!-- Node31 -->
<g id="node31" class="node">
<title>Node31</title>
<g id="a_node31"><a xlink:href="v8-script_8h.html" target="_top" xlink:title=" ">
<polygon fill="white" stroke="#666666" points="1757.5,-627 1696.5,-627 1696.5,-607.75 1757.5,-607.75 1757.5,-627"/>
<text text-anchor="middle" x="1727" y="-613.5" font-family="Helvetica,sans-Serif" font-size="10.00">v8&#45;script.h</text>
</a>
</g>
</g>
<!-- Node30&#45;&gt;Node31 -->
<g id="edge82" class="edge">
<title>Node30&#45;&gt;Node31</title>
<path fill="none" stroke="#63b8ff" d="M2306.96,-668.84C2204.37,-659.91 1884.02,-632.04 1768.81,-622.01"/>
<polygon fill="#63b8ff" stroke="#63b8ff" points="1769.26,-618.45 1758.99,-621.07 1768.65,-625.43 1769.26,-618.45"/>
</g>
<!-- Node31&#45;&gt;Node2 -->
<g id="edge83" class="edge">
<title>Node31&#45;&gt;Node2</title>
<path fill="none" stroke="#63b8ff" d="M1696.17,-615.89C1509.29,-612.7 532.78,-592.44 426,-516.5 351.01,-463.16 400.29,-394.28 333,-331.5 299.78,-300.51 228.64,-317.8 247,-276.25 291.04,-176.57 409.58,-107.41 464.86,-79.56"/>
<polygon fill="#63b8ff" stroke="#63b8ff" points="466,-82.41 473.42,-74.84 462.9,-76.13 466,-82.41"/>
</g>
<!-- Node31&#45;&gt;Node3 -->
<g id="edge84" class="edge">
<title>Node31&#45;&gt;Node3</title>
<path fill="none" stroke="#63b8ff" d="M1757.99,-614.32C1884.11,-605.54 2352,-568.86 2352,-507.88 2352,-507.88 2352,-507.88 2352,-340.12 2352,-246.62 2353.56,-223.25 2354,-129.75 2354.04,-121.19 2354.19,-119.05 2354,-110.5 2353.82,-102.36 2353.45,-93.39 2353.08,-85.64"/>
<polygon fill="#63b8ff" stroke="#63b8ff" points="2356.53,-85.57 2352.52,-75.76 2349.54,-85.93 2356.53,-85.57"/>
</g>
<!-- Node31&#45;&gt;Node4 -->
<g id="edge85" class="edge">
<title>Node31&#45;&gt;Node4</title>
<path fill="none" stroke="#63b8ff" d="M1757.99,-616.67C1837.32,-616.78 2053.79,-612.95 2228,-571.75 2303.32,-553.94 2390,-585.27 2390,-507.88 2390,-507.88 2390,-507.88 2390,-340.12 2390,-228.65 2580,-287.85 2580,-176.38 2580,-176.38 2580,-176.38 2580,-119.12 2580,-103.88 2901.33,-142.07 2385,-55.25 2167.87,-18.74 529.96,-11.65 264.34,-10.74"/>
<polygon fill="#63b8ff" stroke="#63b8ff" points="264.43,-7.24 254.41,-10.7 264.4,-14.24 264.43,-7.24"/>
</g>
<!-- Node31&#45;&gt;Node7 -->
<g id="edge105" class="edge">
<title>Node31&#45;&gt;Node7</title>
<path fill="none" stroke="#63b8ff" d="M1757.81,-615.14C1858.93,-610.4 2177.96,-589.77 2243,-516.5 2330.22,-418.23 2268.26,-351.38 2252,-221 2248.86,-195.86 2252.33,-186.64 2238,-165.75 2213.97,-130.72 2199.93,-124.99 2160,-110.5 2065.18,-76.08 1756.43,-68.13 1644.77,-66.36"/>
<polygon fill="#63b8ff" stroke="#63b8ff" points="1645.03,-62.85 1634.98,-66.2 1644.93,-69.85 1645.03,-62.85"/>
</g>
<!-- Node31&#45;&gt;Node9 -->
<g id="edge90" class="edge">
<title>Node31&#45;&gt;Node9</title>
<path fill="none" stroke="#63b8ff" d="M1696.16,-615.92C1554.42,-613.69 969.28,-602.66 894,-571.75 854.43,-555.5 822,-550.65 822,-507.88 822,-507.88 822,-507.88 822,-450.62 822,-373 780.99,-347.42 812,-276.25 817.1,-264.55 826.94,-254.54 836.39,-246.98"/>
<polygon fill="#63b8ff" stroke="#63b8ff" points="838.2,-249.26 844.17,-240.51 834.04,-243.62 838.2,-249.26"/>
</g>
<!-- Node31&#45;&gt;Node11 -->
<g id="edge87" class="edge">
<title>Node31&#45;&gt;Node11</title>
<path fill="none" stroke="#63b8ff" d="M1696.08,-616.32C1568.8,-615.85 1089.54,-611.44 1036,-571.75 1011.64,-553.69 1012,-538.2 1012,-507.88 1012,-507.88 1012,-507.88 1012,-450.62 1012,-352.17 971.3,-239.22 953.82,-195.26"/>
<polygon fill="#63b8ff" stroke="#63b8ff" points="956.74,-194.14 949.74,-186.18 950.25,-196.77 956.74,-194.14"/>
</g>
<!-- Node31&#45;&gt;Node18 -->
<g id="edge91" class="edge">
<title>Node31&#45;&gt;Node18</title>
<path fill="none" stroke="#63b8ff" d="M1723.87,-607.39C1712.39,-575.27 1670.3,-463.97 1612,-386.75 1586.2,-352.57 1547.73,-320.52 1524.06,-302.34"/>
<polygon fill="#63b8ff" stroke="#63b8ff" points="1526.57,-299.1 1516.48,-295.86 1522.35,-304.68 1526.57,-299.1"/>
</g>
<!-- Node31&#45;&gt;Node22 -->
<g id="edge89" class="edge">
<title>Node31&#45;&gt;Node22</title>
<path fill="none" stroke="#63b8ff" d="M1721.42,-607.41C1700.54,-574.44 1623.71,-458.06 1536,-386.75 1487.56,-347.37 1421.2,-316.48 1381.65,-300.01"/>
<polygon fill="#63b8ff" stroke="#63b8ff" points="1383.31,-296.5 1372.73,-295.95 1380.66,-302.98 1383.31,-296.5"/>
</g>
<!-- Node31&#45;&gt;Node26 -->
<g id="edge88" class="edge">
<title>Node31&#45;&gt;Node26</title>
<path fill="none" stroke="#63b8ff" d="M1696.12,-609.19C1658.03,-600.34 1592.79,-585.17 1547.64,-574.67"/>
<polygon fill="#63b8ff" stroke="#63b8ff" points="1548.73,-571.09 1538.19,-572.24 1547.14,-577.91 1548.73,-571.09"/>
</g>
<!-- Node32 -->
<g id="node32" class="node">
<title>Node32</title>
<g id="a_node32"><a xlink:title=" ">
<polygon fill="#e0e0e0" stroke="#999999" points="1830.5,-571.75 1793.5,-571.75 1793.5,-552.5 1830.5,-552.5 1830.5,-571.75"/>
<text text-anchor="middle" x="1812" y="-558.25" font-family="Helvetica,sans-Serif" font-size="10.00">tuple</text>
</a>
</g>
</g>
<!-- Node31&#45;&gt;Node32 -->
<g id="edge86" class="edge">
<title>Node31&#45;&gt;Node32</title>
<path fill="none" stroke="#63b8ff" d="M1741.42,-607.34C1754.24,-599.31 1773.23,-587.41 1788.29,-577.98"/>
<polygon fill="#63b8ff" stroke="#63b8ff" points="1789.89,-580.48 1796.51,-572.2 1786.18,-574.55 1789.89,-580.48"/>
</g>
<!-- Node33 -->
<g id="node33" class="node">
<title>Node33</title>
<g id="a_node33"><a xlink:href="v8-memory-span_8h.html" target="_top" xlink:title=" ">
<polygon fill="white" stroke="#666666" points="962.75,-129.75 867.25,-129.75 867.25,-110.5 962.75,-110.5 962.75,-129.75"/>
<text text-anchor="middle" x="915" y="-116.25" font-family="Helvetica,sans-Serif" font-size="10.00">v8&#45;memory&#45;span.h</text>
</a>
</g>
</g>
<!-- Node31&#45;&gt;Node33 -->
<g id="edge92" class="edge">
<title>Node31&#45;&gt;Node33</title>
<path fill="none" stroke="#63b8ff" d="M1696.27,-613.31C1600.38,-603.27 1308.44,-568.98 1231,-516.5 1071.67,-408.53 1113.29,-301.65 977,-165.75 965.74,-154.52 951.42,-144.02 939.38,-136.02"/>
<polygon fill="#63b8ff" stroke="#63b8ff" points="941.62,-132.66 931.32,-130.19 937.83,-138.55 941.62,-132.66"/>
</g>
<!-- Node35 -->
<g id="node35" class="node">
<title>Node35</title>
<g id="a_node35"><a xlink:href="v8-message_8h.html" target="_top" xlink:title=" ">
<polygon fill="white" stroke="#666666" points="1869.38,-461.25 1792.62,-461.25 1792.62,-442 1869.38,-442 1869.38,-461.25"/>
<text text-anchor="middle" x="1831" y="-447.75" font-family="Helvetica,sans-Serif" font-size="10.00">v8&#45;message.h</text>
</a>
</g>
</g>
<!-- Node31&#45;&gt;Node35 -->
<g id="edge98" class="edge">
<title>Node31&#45;&gt;Node35</title>
<path fill="none" stroke="#63b8ff" d="M1732.59,-607.57C1749.03,-581.69 1797.42,-505.5 1819.63,-470.53"/>
<polygon fill="#63b8ff" stroke="#63b8ff" points="1822.97,-472.79 1825.38,-462.47 1817.07,-469.04 1822.97,-472.79"/>
</g>
<!-- Node33&#45;&gt;Node2 -->
<g id="edge93" class="edge">
<title>Node33&#45;&gt;Node2</title>
<path fill="none" stroke="#63b8ff" d="M866.95,-112.37C862.23,-111.73 857.53,-111.1 853,-110.5 735.22,-94.99 595.51,-78.04 530.57,-70.24"/>
<polygon fill="#63b8ff" stroke="#63b8ff" points="531.05,-66.65 520.7,-68.94 530.21,-73.6 531.05,-66.65"/>
</g>
<!-- Node33&#45;&gt;Node7 -->
<g id="edge97" class="edge">
<title>Node33&#45;&gt;Node7</title>
<path fill="none" stroke="#63b8ff" d="M963.06,-114.88C979.52,-113.45 998.07,-111.87 1015,-110.5 1220.78,-93.83 1467.16,-75.78 1563.02,-68.83"/>
<polygon fill="#63b8ff" stroke="#63b8ff" points="1563.24,-72.25 1572.96,-68.04 1562.73,-65.27 1563.24,-72.25"/>
</g>
<!-- Node33&#45;&gt;Node10 -->
<g id="edge96" class="edge">
<title>Node33&#45;&gt;Node10</title>
<path fill="none" stroke="#63b8ff" d="M927.89,-110.09C939.25,-102.14 956.02,-90.39 969.41,-81"/>
<polygon fill="#63b8ff" stroke="#63b8ff" points="970.86,-83.56 977.04,-74.95 966.85,-77.82 970.86,-83.56"/>
</g>
<!-- Node33&#45;&gt;Node16 -->
<g id="edge95" class="edge">
<title>Node33&#45;&gt;Node16</title>
<path fill="none" stroke="#63b8ff" d="M902.45,-110.09C891.43,-102.16 875.18,-90.47 862.16,-81.1"/>
<polygon fill="#63b8ff" stroke="#63b8ff" points="864.53,-77.77 854.37,-74.77 860.44,-83.46 864.53,-77.77"/>
</g>
<!-- Node34 -->
<g id="node34" class="node">
<title>Node34</title>
<g id="a_node34"><a xlink:title=" ">
<polygon fill="#e0e0e0" stroke="#999999" points="933.5,-74.5 896.5,-74.5 896.5,-55.25 933.5,-55.25 933.5,-74.5"/>
<text text-anchor="middle" x="915" y="-61" font-family="Helvetica,sans-Serif" font-size="10.00">array</text>
</a>
</g>
</g>
<!-- Node33&#45;&gt;Node34 -->
<g id="edge94" class="edge">
<title>Node33&#45;&gt;Node34</title>
<path fill="none" stroke="#63b8ff" d="M915,-110.33C915,-103.67 915,-94.24 915,-85.78"/>
<polygon fill="#63b8ff" stroke="#63b8ff" points="918.5,-85.86 915,-75.86 911.5,-85.86 918.5,-85.86"/>
</g>
<!-- Node35&#45;&gt;Node7 -->
<g id="edge104" class="edge">
<title>Node35&#45;&gt;Node7</title>
<path fill="none" stroke="#63b8ff" d="M1858.17,-441.57C1878.2,-434.05 1905.44,-422.01 1926,-406 1928.35,-404.17 2061,-243.05 2062,-240.25 2064.88,-232.19 2064.78,-229.09 2062,-221 2055.42,-201.83 2045.72,-201.54 2034,-185 2011.22,-152.87 2019.56,-131.12 1986,-110.5 1922.72,-71.62 1732.31,-86.41 1644.98,-75.2"/>
<polygon fill="#63b8ff" stroke="#63b8ff" points="1645.52,-71.6 1635.11,-73.57 1644.48,-78.52 1645.52,-71.6"/>
</g>
<!-- Node35&#45;&gt;Node9 -->
<g id="edge101" class="edge">
<title>Node35&#45;&gt;Node9</title>
<path fill="none" stroke="#63b8ff" d="M1813.33,-441.55C1754.43,-411.78 1558.69,-316.69 1385,-276.25 1217.25,-237.19 1012.24,-231.45 915.54,-231.14"/>
<polygon fill="#63b8ff" stroke="#63b8ff" points="915.58,-227.64 905.57,-231.13 915.57,-234.64 915.58,-227.64"/>
</g>
<!-- Node35&#45;&gt;Node18 -->
<g id="edge102" class="edge">
<title>Node35&#45;&gt;Node18</title>
<path fill="none" stroke="#63b8ff" d="M1829.31,-441.92C1826.23,-428.31 1818.45,-401.97 1802,-386.75 1764.14,-351.72 1619.95,-314.13 1546.53,-296.74"/>
<polygon fill="#63b8ff" stroke="#63b8ff" points="1547.76,-293.2 1537.23,-294.33 1546.16,-300.02 1547.76,-293.2"/>
</g>
<!-- Node35&#45;&gt;Node21 -->
<g id="edge103" class="edge">
<title>Node35&#45;&gt;Node21</title>
<path fill="none" stroke="#63b8ff" d="M1792.43,-447.21C1686.71,-437.86 1392.56,-411.84 1276.74,-401.6"/>
<polygon fill="#63b8ff" stroke="#63b8ff" points="1277.37,-398.05 1267.1,-400.66 1276.75,-405.02 1277.37,-398.05"/>
</g>
<!-- Node35&#45;&gt;Node25 -->
<g id="edge99" class="edge">
<title>Node35&#45;&gt;Node25</title>
<path fill="none" stroke="#63b8ff" d="M1853.19,-441.64C1869.67,-434.09 1891.81,-421.96 1907,-406 1918.85,-393.54 1968.41,-292.7 1988.98,-250.3"/>
<polygon fill="#63b8ff" stroke="#63b8ff" points="1992.45,-252.18 1993.65,-241.65 1986.15,-249.13 1992.45,-252.18"/>
</g>
<!-- Node36 -->
<g id="node36" class="node">
<title>Node36</title>
<g id="a_node36"><a xlink:title=" ">
<polygon fill="#e0e0e0" stroke="#999999" points="1898.25,-406 1853.75,-406 1853.75,-386.75 1898.25,-386.75 1898.25,-406"/>
<text text-anchor="middle" x="1876" y="-392.5" font-family="Helvetica,sans-Serif" font-size="10.00">iosfwd</text>
</a>
</g>
</g>
<!-- Node35&#45;&gt;Node36 -->
<g id="edge100" class="edge">
<title>Node35&#45;&gt;Node36</title>
<path fill="none" stroke="#63b8ff" d="M1838.43,-441.83C1844.65,-434.48 1853.7,-423.76 1861.37,-414.69"/>
<polygon fill="#63b8ff" stroke="#63b8ff" points="1864.63,-417.26 1868.41,-407.36 1859.28,-412.74 1864.63,-417.26"/>
</g>
<!-- Node37&#45;&gt;Node7 -->
<g id="edge109" class="edge">
<title>Node37&#45;&gt;Node7</title>
<path fill="none" stroke="#63b8ff" d="M2161.99,-331.25C2170.44,-311.19 2188.41,-260.95 2176,-221 2158.31,-164.08 2151.46,-140.58 2100,-110.5 2023.21,-65.61 1749.46,-64.05 1644.95,-65.17"/>
<polygon fill="#63b8ff" stroke="#63b8ff" points="1645.17,-61.68 1635.22,-65.3 1645.26,-68.68 1645.17,-61.68"/>
</g>
<!-- Node37&#45;&gt;Node24 -->
<g id="edge108" class="edge">
<title>Node37&#45;&gt;Node24</title>
<path fill="none" stroke="#63b8ff" d="M2105.82,-331.33C2049.38,-321.82 1959.6,-306.69 1900.73,-296.77"/>
<polygon fill="#63b8ff" stroke="#63b8ff" points="1901.55,-293.19 1891.11,-294.98 1900.39,-300.1 1901.55,-293.19"/>
</g>
<!-- Node38&#45;&gt;Node7 -->
<g id="edge115" class="edge">
<title>Node38&#45;&gt;Node7</title>
<path fill="none" stroke="#63b8ff" d="M745.14,-441.74C791.9,-396.87 1010.87,-194.09 1233,-110.5 1292.72,-88.03 1479.71,-73.74 1563.12,-68.33"/>
<polygon fill="#63b8ff" stroke="#63b8ff" points="1563.19,-71.77 1572.95,-67.64 1562.75,-64.78 1563.19,-71.77"/>
</g>
<!-- Node38&#45;&gt;Node9 -->
<g id="edge113" class="edge">
<title>Node38&#45;&gt;Node9</title>
<path fill="none" stroke="#63b8ff" d="M745.11,-441.86C756.83,-429.48 774.6,-406.19 765,-386.75 753.35,-363.16 731.71,-373.21 718,-350.75 700.59,-322.24 687.98,-302.99 708,-276.25 719.83,-260.45 766.16,-248.34 804.59,-240.75"/>
<polygon fill="#63b8ff" stroke="#63b8ff" points="805.02,-244.04 814.19,-238.73 803.71,-237.17 805.02,-244.04"/>
</g>
<!-- Node38&#45;&gt;Node21 -->
<g id="edge114" class="edge">
<title>Node38&#45;&gt;Node21</title>
<path fill="none" stroke="#63b8ff" d="M791.6,-444.62C889.02,-434.1 1088.94,-412.5 1180.85,-402.58"/>
<polygon fill="#63b8ff" stroke="#63b8ff" points="1181.2,-405.95 1190.77,-401.4 1180.45,-398.99 1181.2,-405.95"/>
</g>
<!-- Node39 -->
<g id="node39" class="node">
<title>Node39</title>
<g id="a_node39"><a xlink:title=" ">
<polygon fill="#e0e0e0" stroke="#999999" points="755.62,-406 710.38,-406 710.38,-386.75 755.62,-386.75 755.62,-406"/>
<text text-anchor="middle" x="733" y="-392.5" font-family="Helvetica,sans-Serif" font-size="10.00">cstdint</text>
</a>
</g>
</g>
<!-- Node38&#45;&gt;Node39 -->
<g id="edge111" class="edge">
<title>Node38&#45;&gt;Node39</title>
<path fill="none" stroke="#63b8ff" d="M735.5,-441.83C735.13,-435.17 734.6,-425.74 734.12,-417.28"/>
<polygon fill="#63b8ff" stroke="#63b8ff" points="737.56,-417.15 733.51,-407.36 730.57,-417.54 737.56,-417.15"/>
</g>
<!-- Node40 -->
<g id="node40" class="node">
<title>Node40</title>
<g id="a_node40"><a xlink:title=" ">
<polygon fill="#e0e0e0" stroke="#999999" points="692.62,-406 653.38,-406 653.38,-386.75 692.62,-386.75 692.62,-406"/>
<text text-anchor="middle" x="673" y="-392.5" font-family="Helvetica,sans-Serif" font-size="10.00">limits</text>
</a>
</g>
</g>
<!-- Node38&#45;&gt;Node40 -->
<g id="edge112" class="edge">
<title>Node38&#45;&gt;Node40</title>
<path fill="none" stroke="#63b8ff" d="M725.31,-441.59C716.12,-433.82 702.64,-422.42 691.66,-413.15"/>
<polygon fill="#63b8ff" stroke="#63b8ff" points="694.43,-410.06 684.53,-406.27 689.91,-415.4 694.43,-410.06"/>
</g>
<!-- Node42&#45;&gt;Node2 -->
<g id="edge122" class="edge">
<title>Node42&#45;&gt;Node2</title>
<path fill="none" stroke="#63b8ff" d="M902.14,-559.93C743.34,-554.52 152,-529.23 152,-452.62 152,-452.62 152,-452.62 152,-229.62 152,-95.3 369.29,-71.07 457.47,-66.77"/>
<polygon fill="#63b8ff" stroke="#63b8ff" points="457.45,-70.23 467.29,-66.31 457.16,-63.24 457.45,-70.23"/>
</g>
<!-- Node42&#45;&gt;Node3 -->
<g id="edge123" class="edge">
<title>Node42&#45;&gt;Node3</title>
<path fill="none" stroke="#63b8ff" d="M979.86,-559.36C1057.81,-555.36 1238.58,-543.75 1388,-516.5 1420.59,-510.56 1427.36,-502.86 1460,-497.25 1659.05,-463.03 1715.59,-503.93 1913,-461.25 2054.33,-430.69 2112.25,-448.28 2219,-350.75 2302.02,-274.91 2337.55,-136.64 2348.26,-85.54"/>
<polygon fill="#63b8ff" stroke="#63b8ff" points="2351.89,-86.26 2350.42,-75.76 2345.03,-84.88 2351.89,-86.26"/>
</g>
<!-- Node42&#45;&gt;Node4 -->
<g id="edge124" class="edge">
<title>Node42&#45;&gt;Node4</title>
<path fill="none" stroke="#63b8ff" d="M902.31,-554.91C857.91,-547.42 783.08,-533.65 720,-516.5 501.81,-457.16 428.69,-473.81 239,-350.75 150,-293.01 76,-282.46 76,-176.38 76,-176.38 76,-176.38 76,-119.12 76,-62.36 147.08,-32.5 192.03,-19.28"/>
<polygon fill="#63b8ff" stroke="#63b8ff" points="192.87,-22.4 201.56,-16.35 190.99,-15.66 192.87,-22.4"/>
</g>
<!-- Node42&#45;&gt;Node5 -->
<g id="edge125" class="edge">
<title>Node42&#45;&gt;Node5</title>
<path fill="none" stroke="#63b8ff" d="M979.81,-553.77C1120.71,-526.14 1600.73,-423.56 1674,-295.5 1710.19,-232.25 1641.52,-262.47 1566.73,-241.84"/>
<polygon fill="#63b8ff" stroke="#63b8ff" points="1568.21,-238.33 1557.63,-238.74 1566.16,-245.02 1568.21,-238.33"/>
</g>
<!-- Node42&#45;&gt;Node7 -->
<g id="edge130" class="edge">
<title>Node42&#45;&gt;Node7</title>
<path fill="none" stroke="#63b8ff" d="M979.67,-557.39C1048.49,-550.57 1196.67,-535.07 1321,-516.5 1368.36,-509.43 1379.52,-503.44 1427,-497.25 1526.7,-484.25 1784.54,-498.3 1878,-461.25 2000.87,-412.54 2037.78,-366.47 2077,-240.25 2094.89,-182.66 2036.36,-127.07 2010,-110.5 1942.61,-68.14 1737.55,-86.83 1644.84,-75.17"/>
<polygon fill="#63b8ff" stroke="#63b8ff" points="1645.51,-71.58 1635.11,-73.59 1644.49,-78.51 1645.51,-71.58"/>
</g>
<!-- Node42&#45;&gt;Node9 -->
<g id="edge127" class="edge">
<title>Node42&#45;&gt;Node9</title>
<path fill="none" stroke="#63b8ff" d="M935.3,-552.46C913.19,-518.67 833.75,-395.39 822,-350.75 813.57,-318.73 810.56,-307.32 822,-276.25 825.92,-265.59 833.65,-255.74 841.12,-248.02"/>
<polygon fill="#63b8ff" stroke="#63b8ff" points="843.12,-250.99 847.93,-241.55 838.28,-245.94 843.12,-250.99"/>
</g>
<!-- Node42&#45;&gt;Node11 -->
<g id="edge126" class="edge">
<title>Node42&#45;&gt;Node11</title>
<path fill="none" stroke="#63b8ff" d="M941.11,-552.37C941.75,-503.72 944.83,-266.45 945.74,-196.08"/>
<polygon fill="#63b8ff" stroke="#63b8ff" points="949.25,-196.33 945.88,-186.29 942.25,-196.24 949.25,-196.33"/>
</g>
<!-- Node42&#45;&gt;Node29 -->
<g id="edge129" class="edge">
<title>Node42&#45;&gt;Node29</title>
<path fill="none" stroke="#63b8ff" d="M979.76,-554.96C1041.67,-545.12 1162.68,-525.89 1229.28,-515.3"/>
<polygon fill="#63b8ff" stroke="#63b8ff" points="1229.55,-518.64 1238.88,-513.62 1228.46,-511.73 1229.55,-518.64"/>
</g>
<!-- Node42&#45;&gt;Node33 -->
<g id="edge128" class="edge">
<title>Node42&#45;&gt;Node33</title>
<path fill="none" stroke="#63b8ff" d="M902.59,-555.89C845.89,-546.35 739.27,-521.29 672,-461.25 651.46,-442.92 650.4,-432.78 644,-406 616.03,-288.93 672.14,-237.2 769,-165.75 794.44,-146.99 827.86,-136.02 856.31,-129.66"/>
<polygon fill="#63b8ff" stroke="#63b8ff" points="856.87,-132.91 865.94,-127.44 855.44,-126.06 856.87,-132.91"/>
</g>
<!-- Node43&#45;&gt;Node4 -->
<g id="edge132" class="edge">
<title>Node43&#45;&gt;Node4</title>
<path fill="none" stroke="#63b8ff" d="M263.77,-331.06C247.96,-323.6 227.26,-311.64 214,-295.5 194.75,-272.07 190,-261.95 190,-231.62 190,-231.62 190,-231.62 190,-119.12 190,-85.98 205.99,-50.18 217.22,-29.12"/>
<polygon fill="#63b8ff" stroke="#63b8ff" points="220.75,-30.98 222.56,-20.54 214.63,-27.58 220.75,-30.98"/>
</g>
<!-- Node43&#45;&gt;Node7 -->
<g id="edge137" class="edge">
<title>Node43&#45;&gt;Node7</title>
<path fill="none" stroke="#63b8ff" d="M309.11,-331.08C392.07,-298.73 674.97,-189.38 769,-165.75 850.91,-145.17 1061.17,-120.73 1145,-110.5 1299.08,-91.7 1483.05,-75.78 1563.26,-69.16"/>
<polygon fill="#63b8ff" stroke="#63b8ff" points="1563.19,-72.6 1572.87,-68.29 1562.62,-65.62 1563.19,-72.6"/>
</g>
<!-- Node44 -->
<g id="node44" class="node">
<title>Node44</title>
<g id="a_node44"><a xlink:href="v8-embedder-state-scope_8h.html" target="_top" xlink:title=" ">
<polygon fill="white" stroke="#666666" points="389.88,-295.5 256.12,-295.5 256.12,-276.25 389.88,-276.25 389.88,-295.5"/>
<text text-anchor="middle" x="323" y="-282" font-family="Helvetica,sans-Serif" font-size="10.00">v8&#45;embedder&#45;state&#45;scope.h</text>
</a>
</g>
</g>
<!-- Node43&#45;&gt;Node44 -->
<g id="edge133" class="edge">
<title>Node43&#45;&gt;Node44</title>
<path fill="none" stroke="#63b8ff" d="M292.11,-331.33C297.11,-324.13 304.36,-313.71 310.57,-304.76"/>
<polygon fill="#63b8ff" stroke="#63b8ff" points="313.93,-307.07 316.76,-296.86 308.18,-303.07 313.93,-307.07"/>
</g>
<!-- Node44&#45;&gt;Node4 -->
<g id="edge134" class="edge">
<title>Node44&#45;&gt;Node4</title>
<path fill="none" stroke="#63b8ff" d="M319.84,-275.75C306.34,-236.79 253.37,-83.87 234.62,-29.74"/>
<polygon fill="#63b8ff" stroke="#63b8ff" points="237.66,-28.81 231.08,-20.51 231.04,-31.1 237.66,-28.81"/>
</g>
<!-- Node44&#45;&gt;Node9 -->
<g id="edge136" class="edge">
<title>Node44&#45;&gt;Node9</title>
<path fill="none" stroke="#63b8ff" d="M390.2,-278.21C497.48,-267.57 705.44,-246.95 804.69,-237.11"/>
<polygon fill="#63b8ff" stroke="#63b8ff" points="804.78,-240.52 814.39,-236.05 804.09,-233.55 804.78,-240.52"/>
</g>
<!-- Node44&#45;&gt;Node13 -->
<g id="edge135" class="edge">
<title>Node44&#45;&gt;Node13</title>
<path fill="none" stroke="#63b8ff" d="M334.07,-275.98C362.62,-253.54 441.87,-194.36 518,-165.75 589.77,-138.77 678.92,-127.98 731.71,-123.76"/>
<polygon fill="#63b8ff" stroke="#63b8ff" points="731.69,-127.19 741.4,-122.95 731.17,-120.21 731.69,-127.19"/>
</g>
</g>
</svg>
