<?xml version="1.0" encoding="UTF-8" standalone="no"?>
<!DOCTYPE svg PUBLIC "-//W3C//DTD SVG 1.1//EN"
 "http://www.w3.org/Graphics/SVG/1.1/DTD/svg11.dtd">
<!-- Generated by graphviz version 8.0.5 (20230430.1635)
 -->
<!-- Title: include/v8&#45;memory&#45;span.h Pages: 1 -->
<svg width="714pt" height="425pt"
 viewBox="0.00 0.00 713.50 425.25" xmlns="http://www.w3.org/2000/svg" xmlns:xlink="http://www.w3.org/1999/xlink">
<g id="graph0" class="graph" transform="scale(1 1) rotate(0) translate(4 421.25)">
<title>include/v8&#45;memory&#45;span.h</title>
<!-- Node1 -->
<g id="node1" class="node">
<title>Node1</title>
<g id="a_node1"><a xlink:title=" ">
<polygon fill="#999999" stroke="#666666" points="452.62,-417.25 323.38,-417.25 323.38,-398 452.62,-398 452.62,-417.25"/>
<text text-anchor="middle" x="388" y="-403.75" font-family="Helvetica,sans-Serif" font-size="10.00">include/v8&#45;memory&#45;span.h</text>
</a>
</g>
</g>
<!-- Node2 -->
<g id="node2" class="node">
<title>Node2</title>
<g id="a_node2"><a xlink:href="v8-script_8h.html" target="_top" xlink:title=" ">
<polygon fill="white" stroke="#666666" points="225.38,-362 130.62,-362 130.62,-342.75 225.38,-342.75 225.38,-362"/>
<text text-anchor="middle" x="178" y="-348.5" font-family="Helvetica,sans-Serif" font-size="10.00">include/v8&#45;script.h</text>
</a>
</g>
</g>
<!-- Node1&#45;&gt;Node2 -->
<g id="edge1" class="edge">
<title>Node1&#45;&gt;Node2</title>
<path fill="none" stroke="#63b8ff" d="M341.95,-394.95C303.39,-385.17 249.16,-371.42 213.8,-362.45"/>
<polygon fill="#63b8ff" stroke="#63b8ff" points="340.82,-398.53 351.38,-397.59 342.54,-391.74 340.82,-398.53"/>
</g>
<!-- Node6 -->
<g id="node6" class="node">
<title>Node6</title>
<g id="a_node6"><a xlink:href="v8_8h.html" target="_top" xlink:title=" ">
<polygon fill="white" stroke="#666666" points="398.88,-19.25 331.12,-19.25 331.12,0 398.88,0 398.88,-19.25"/>
<text text-anchor="middle" x="365" y="-5.75" font-family="Helvetica,sans-Serif" font-size="10.00">include/v8.h</text>
</a>
</g>
</g>
<!-- Node1&#45;&gt;Node6 -->
<g id="edge26" class="edge">
<title>Node1&#45;&gt;Node6</title>
<path fill="none" stroke="#63b8ff" d="M312.41,-400.9C199.52,-390.24 0,-362.33 0,-298.12 0,-298.12 0,-298.12 0,-124.75 0,-83.94 24.23,-74.88 60,-55.25 106.09,-29.95 261.12,-17.2 330.7,-12.64"/>
<polygon fill="#63b8ff" stroke="#63b8ff" points="311.78,-404.45 322.06,-401.88 312.42,-397.48 311.78,-404.45"/>
</g>
<!-- Node12 -->
<g id="node12" class="node">
<title>Node12</title>
<g id="a_node12"><a xlink:href="v8-statistics_8h.html" target="_top" xlink:title=" ">
<polygon fill="white" stroke="#666666" points="443.25,-306.75 332.75,-306.75 332.75,-287.5 443.25,-287.5 443.25,-306.75"/>
<text text-anchor="middle" x="388" y="-293.25" font-family="Helvetica,sans-Serif" font-size="10.00">include/v8&#45;statistics.h</text>
</a>
</g>
</g>
<!-- Node1&#45;&gt;Node12 -->
<g id="edge17" class="edge">
<title>Node1&#45;&gt;Node12</title>
<path fill="none" stroke="#63b8ff" d="M388,-386.93C388,-363.26 388,-324.55 388,-307.13"/>
<polygon fill="#63b8ff" stroke="#63b8ff" points="384.5,-386.75 388,-396.75 391.5,-386.75 384.5,-386.75"/>
</g>
<!-- Node13 -->
<g id="node13" class="node">
<title>Node13</title>
<g id="a_node13"><a xlink:href="v8-template_8h.html" target="_top" xlink:title=" ">
<polygon fill="white" stroke="#666666" points="615.12,-135.38 506.88,-135.38 506.88,-116.12 615.12,-116.12 615.12,-135.38"/>
<text text-anchor="middle" x="561" y="-121.88" font-family="Helvetica,sans-Serif" font-size="10.00">include/v8&#45;template.h</text>
</a>
</g>
</g>
<!-- Node1&#45;&gt;Node13 -->
<g id="edge20" class="edge">
<title>Node1&#45;&gt;Node13</title>
<path fill="none" stroke="#63b8ff" d="M434.57,-394.29C478.61,-379.48 538,-349.9 538,-298.12 538,-298.12 538,-298.12 538,-240.88 538,-201.06 551.62,-154.94 557.9,-135.8"/>
<polygon fill="#63b8ff" stroke="#63b8ff" points="433.77,-391.19 425.31,-397.57 435.9,-397.86 433.77,-391.19"/>
</g>
<!-- Node15 -->
<g id="node15" class="node">
<title>Node15</title>
<g id="a_node15"><a xlink:href="v8-wasm_8h.html" target="_top" xlink:title=" ">
<polygon fill="white" stroke="#666666" points="705.5,-251.5 608.5,-251.5 608.5,-232.25 705.5,-232.25 705.5,-251.5"/>
<text text-anchor="middle" x="657" y="-238" font-family="Helvetica,sans-Serif" font-size="10.00">include/v8&#45;wasm.h</text>
</a>
</g>
</g>
<!-- Node1&#45;&gt;Node15 -->
<g id="edge24" class="edge">
<title>Node1&#45;&gt;Node15</title>
<path fill="none" stroke="#63b8ff" d="M463.6,-395.64C492.78,-389.02 525.45,-378.53 552,-362 599.74,-332.27 638.07,-274.28 651.67,-251.94"/>
<polygon fill="#63b8ff" stroke="#63b8ff" points="463.07,-392.39 454.03,-397.91 464.54,-399.24 463.07,-392.39"/>
</g>
<!-- Node3 -->
<g id="node3" class="node">
<title>Node3</title>
<g id="a_node3"><a xlink:href="v8-debug_8h.html" target="_top" xlink:title=" ">
<polygon fill="white" stroke="#666666" points="226.5,-306.75 129.5,-306.75 129.5,-287.5 226.5,-287.5 226.5,-306.75"/>
<text text-anchor="middle" x="178" y="-293.25" font-family="Helvetica,sans-Serif" font-size="10.00">include/v8&#45;debug.h</text>
</a>
</g>
</g>
<!-- Node2&#45;&gt;Node3 -->
<g id="edge2" class="edge">
<title>Node2&#45;&gt;Node3</title>
<path fill="none" stroke="#63b8ff" d="M178,-331.71C178,-323.27 178,-313.83 178,-307.11"/>
<polygon fill="#63b8ff" stroke="#63b8ff" points="174.5,-331.58 178,-341.58 181.5,-331.58 174.5,-331.58"/>
</g>
<!-- Node2&#45;&gt;Node6 -->
<g id="edge16" class="edge">
<title>Node2&#45;&gt;Node6</title>
<path fill="none" stroke="#63b8ff" d="M136.13,-338.71C94.88,-323.34 38,-293.05 38,-242.88 38,-242.88 38,-242.88 38,-124.75 38,-85.08 59.73,-75.23 94,-55.25 133.75,-32.07 267.59,-18.48 331.06,-13.19"/>
<polygon fill="#63b8ff" stroke="#63b8ff" points="134.64,-342.26 145.23,-342.3 136.98,-335.66 134.64,-342.26"/>
</g>
<!-- Node4 -->
<g id="node4" class="node">
<title>Node4</title>
<g id="a_node4"><a xlink:href="v8-isolate_8h.html" target="_top" xlink:title=" ">
<polygon fill="white" stroke="#666666" points="310.62,-251.5 211.38,-251.5 211.38,-232.25 310.62,-232.25 310.62,-251.5"/>
<text text-anchor="middle" x="261" y="-238" font-family="Helvetica,sans-Serif" font-size="10.00">include/v8&#45;isolate.h</text>
</a>
</g>
</g>
<!-- Node3&#45;&gt;Node4 -->
<g id="edge3" class="edge">
<title>Node3&#45;&gt;Node4</title>
<path fill="none" stroke="#63b8ff" d="M201.07,-281.32C215.76,-271.9 234.31,-260 246.85,-251.95"/>
<polygon fill="#63b8ff" stroke="#63b8ff" points="199.61,-278.75 193.08,-287.09 203.39,-284.64 199.61,-278.75"/>
</g>
<!-- Node3&#45;&gt;Node6 -->
<g id="edge15" class="edge">
<title>Node3&#45;&gt;Node6</title>
<path fill="none" stroke="#63b8ff" d="M150.04,-281.82C119.84,-264.15 76,-231.02 76,-187.62 76,-187.62 76,-187.62 76,-124.75 76,-87.21 92.49,-75.66 124,-55.25 157.75,-33.39 273.03,-19.48 331.05,-13.7"/>
<polygon fill="#63b8ff" stroke="#63b8ff" points="147.86,-285.17 158.29,-287.01 151.28,-279.07 147.86,-285.17"/>
</g>
<!-- Node5 -->
<g id="node5" class="node">
<title>Node5</title>
<g id="a_node5"><a xlink:href="v8-initialization_8h.html" target="_top" xlink:title=" ">
<polygon fill="white" stroke="#666666" points="263.5,-74.5 142.5,-74.5 142.5,-55.25 263.5,-55.25 263.5,-74.5"/>
<text text-anchor="middle" x="203" y="-61" font-family="Helvetica,sans-Serif" font-size="10.00">include/v8&#45;initialization.h</text>
</a>
</g>
</g>
<!-- Node4&#45;&gt;Node5 -->
<g id="edge4" class="edge">
<title>Node4&#45;&gt;Node5</title>
<path fill="none" stroke="#63b8ff" d="M264.67,-221.55C268.72,-195.02 272.57,-146.53 255,-110.5 247.39,-94.89 231.54,-82.57 219.33,-74.87"/>
<polygon fill="#63b8ff" stroke="#63b8ff" points="261.1,-220.62 262.87,-231.07 268,-221.8 261.1,-220.62"/>
</g>
<!-- Node4&#45;&gt;Node6 -->
<g id="edge14" class="edge">
<title>Node4&#45;&gt;Node6</title>
<path fill="none" stroke="#63b8ff" d="M259.72,-221.3C256.9,-193.35 247.87,-141.93 219,-110.5 188.27,-77.04 104.07,-90.28 133,-55.25 157.68,-25.37 272.37,-15.28 330.72,-12.05"/>
<polygon fill="#63b8ff" stroke="#63b8ff" points="256.3,-221.35 260.61,-231.03 263.27,-220.77 256.3,-221.35"/>
</g>
<!-- Node7 -->
<g id="node7" class="node">
<title>Node7</title>
<g id="a_node7"><a xlink:href="v8-inspector_8h.html" target="_top" xlink:title=" ">
<polygon fill="white" stroke="#666666" points="214.25,-196.25 103.75,-196.25 103.75,-177 214.25,-177 214.25,-196.25"/>
<text text-anchor="middle" x="159" y="-182.75" font-family="Helvetica,sans-Serif" font-size="10.00">include/v8&#45;inspector.h</text>
</a>
</g>
</g>
<!-- Node4&#45;&gt;Node7 -->
<g id="edge6" class="edge">
<title>Node4&#45;&gt;Node7</title>
<path fill="none" stroke="#63b8ff" d="M234.18,-226.87C215.91,-217.33 192.24,-204.98 176.39,-196.7"/>
<polygon fill="#63b8ff" stroke="#63b8ff" points="232.21,-230.32 242.7,-231.84 235.45,-224.11 232.21,-230.32"/>
</g>
<!-- Node9 -->
<g id="node9" class="node">
<title>Node9</title>
<g id="a_node9"><a xlink:href="v8-snapshot_8h.html" target="_top" xlink:title=" ">
<polygon fill="white" stroke="#666666" points="418.25,-196.25 307.75,-196.25 307.75,-177 418.25,-177 418.25,-196.25"/>
<text text-anchor="middle" x="363" y="-182.75" font-family="Helvetica,sans-Serif" font-size="10.00">include/v8&#45;snapshot.h</text>
</a>
</g>
</g>
<!-- Node4&#45;&gt;Node9 -->
<g id="edge8" class="edge">
<title>Node4&#45;&gt;Node9</title>
<path fill="none" stroke="#63b8ff" d="M287.82,-226.87C306.09,-217.33 329.76,-204.98 345.61,-196.7"/>
<polygon fill="#63b8ff" stroke="#63b8ff" points="286.55,-224.11 279.3,-231.84 289.79,-230.32 286.55,-224.11"/>
</g>
<!-- Node5&#45;&gt;Node6 -->
<g id="edge5" class="edge">
<title>Node5&#45;&gt;Node6</title>
<path fill="none" stroke="#63b8ff" d="M240.84,-51.44C270.4,-41.72 310.81,-28.44 337.38,-19.7"/>
<polygon fill="#63b8ff" stroke="#63b8ff" points="239.89,-48.39 231.48,-54.84 242.07,-55.04 239.89,-48.39"/>
</g>
<!-- Node8 -->
<g id="node8" class="node">
<title>Node8</title>
<g id="a_node8"><a xlink:href="v8-inspector-protocol_8h.html" target="_top" xlink:title=" ">
<polygon fill="white" stroke="#666666" points="210.5,-141 107.5,-141 107.5,-110.5 210.5,-110.5 210.5,-141"/>
<text text-anchor="start" x="115.5" y="-127.5" font-family="Helvetica,sans-Serif" font-size="10.00">include/v8&#45;inspector</text>
<text text-anchor="middle" x="159" y="-116.25" font-family="Helvetica,sans-Serif" font-size="10.00">&#45;protocol.h</text>
</a>
</g>
</g>
<!-- Node7&#45;&gt;Node8 -->
<g id="edge7" class="edge">
<title>Node7&#45;&gt;Node8</title>
<path fill="none" stroke="#63b8ff" d="M159,-165.7C159,-157.7 159,-148.65 159,-141.28"/>
<polygon fill="#63b8ff" stroke="#63b8ff" points="155.5,-165.68 159,-175.68 162.5,-165.68 155.5,-165.68"/>
</g>
<!-- Node9&#45;&gt;Node6 -->
<g id="edge13" class="edge">
<title>Node9&#45;&gt;Node6</title>
<path fill="none" stroke="#63b8ff" d="M392.49,-171.01C403.9,-163.69 415.7,-153.67 422,-141 444.23,-96.32 395.89,-40.98 374.51,-19.62"/>
<polygon fill="#63b8ff" stroke="#63b8ff" points="390.98,-168.43 384.14,-176.52 394.53,-174.46 390.98,-168.43"/>
</g>
<!-- Node10 -->
<g id="node10" class="node">
<title>Node10</title>
<g id="a_node10"><a xlink:href="v8-context_8h.html" target="_top" xlink:title=" ">
<polygon fill="white" stroke="#666666" points="413.12,-135.38 310.88,-135.38 310.88,-116.12 413.12,-116.12 413.12,-135.38"/>
<text text-anchor="middle" x="362" y="-121.88" font-family="Helvetica,sans-Serif" font-size="10.00">include/v8&#45;context.h</text>
</a>
</g>
</g>
<!-- Node9&#45;&gt;Node10 -->
<g id="edge9" class="edge">
<title>Node9&#45;&gt;Node10</title>
<path fill="none" stroke="#63b8ff" d="M362.66,-165.87C362.49,-155.68 362.29,-143.76 362.15,-135.78"/>
<polygon fill="#63b8ff" stroke="#63b8ff" points="359.18,-165.74 362.85,-175.68 366.18,-165.63 359.18,-165.74"/>
</g>
<!-- Node10&#45;&gt;Node6 -->
<g id="edge12" class="edge">
<title>Node10&#45;&gt;Node6</title>
<path fill="none" stroke="#63b8ff" d="M372.29,-106.25C376.85,-97.01 381.7,-85.49 384,-74.5 388.17,-54.57 377.63,-31.85 370.63,-19.6"/>
<polygon fill="#63b8ff" stroke="#63b8ff" points="368.79,-104.39 367.24,-114.87 374.99,-107.64 368.79,-104.39"/>
</g>
<!-- Node11 -->
<g id="node11" class="node">
<title>Node11</title>
<g id="a_node11"><a xlink:href="v8-proxy_8h.html" target="_top" xlink:title=" ">
<polygon fill="white" stroke="#666666" points="374.62,-74.5 281.38,-74.5 281.38,-55.25 374.62,-55.25 374.62,-74.5"/>
<text text-anchor="middle" x="328" y="-61" font-family="Helvetica,sans-Serif" font-size="10.00">include/v8&#45;proxy.h</text>
</a>
</g>
</g>
<!-- Node10&#45;&gt;Node11 -->
<g id="edge10" class="edge">
<title>Node10&#45;&gt;Node11</title>
<path fill="none" stroke="#63b8ff" d="M351.35,-106.31C345.31,-95.85 338.02,-83.23 333.21,-74.9"/>
<polygon fill="#63b8ff" stroke="#63b8ff" points="348.8,-107.9 356.84,-114.81 354.87,-104.4 348.8,-107.9"/>
</g>
<!-- Node11&#45;&gt;Node6 -->
<g id="edge11" class="edge">
<title>Node11&#45;&gt;Node6</title>
<path fill="none" stroke="#63b8ff" d="M340.26,-46.22C346.46,-37.31 353.71,-26.87 358.76,-19.61"/>
<polygon fill="#63b8ff" stroke="#63b8ff" points="336.94,-43.87 334.11,-54.08 342.69,-47.87 336.94,-43.87"/>
</g>
<!-- Node12&#45;&gt;Node4 -->
<g id="edge18" class="edge">
<title>Node12&#45;&gt;Node4</title>
<path fill="none" stroke="#63b8ff" d="M356.49,-282.91C333.5,-273.27 302.94,-260.46 282.65,-251.95"/>
<polygon fill="#63b8ff" stroke="#63b8ff" points="354.88,-286.45 365.46,-287.09 357.59,-280 354.88,-286.45"/>
</g>
<!-- Node12&#45;&gt;Node6 -->
<g id="edge19" class="edge">
<title>Node12&#45;&gt;Node6</title>
<path fill="none" stroke="#63b8ff" d="M412.78,-281.17C439.73,-262.82 479,-228.97 479,-187.62 479,-187.62 479,-187.62 479,-124.75 479,-72.52 418.5,-35.82 385.64,-19.74"/>
<polygon fill="#63b8ff" stroke="#63b8ff" points="411.31,-278.61 404.85,-287.01 415.14,-284.47 411.31,-278.61"/>
</g>
<!-- Node13&#45;&gt;Node6 -->
<g id="edge23" class="edge">
<title>Node13&#45;&gt;Node6</title>
<path fill="none" stroke="#63b8ff" d="M548.03,-107.53C535.48,-91.94 515.16,-69.32 493,-55.25 463.9,-36.76 426.18,-24.82 399.25,-17.99"/>
<polygon fill="#63b8ff" stroke="#63b8ff" points="545.56,-109.05 554.47,-114.78 551.08,-104.74 545.56,-109.05"/>
</g>
<!-- Node14 -->
<g id="node14" class="node">
<title>Node14</title>
<g id="a_node14"><a xlink:href="v8-function_8h.html" target="_top" xlink:title=" ">
<polygon fill="white" stroke="#666666" points="650.62,-74.5 545.38,-74.5 545.38,-55.25 650.62,-55.25 650.62,-74.5"/>
<text text-anchor="middle" x="598" y="-61" font-family="Helvetica,sans-Serif" font-size="10.00">include/v8&#45;function.h</text>
</a>
</g>
</g>
<!-- Node13&#45;&gt;Node14 -->
<g id="edge21" class="edge">
<title>Node13&#45;&gt;Node14</title>
<path fill="none" stroke="#63b8ff" d="M572.38,-106.64C579,-96.11 587.04,-83.32 592.33,-74.9"/>
<polygon fill="#63b8ff" stroke="#63b8ff" points="568.98,-104.48 566.62,-114.81 574.9,-108.2 568.98,-104.48"/>
</g>
<!-- Node14&#45;&gt;Node6 -->
<g id="edge22" class="edge">
<title>Node14&#45;&gt;Node6</title>
<path fill="none" stroke="#63b8ff" d="M547.55,-52.34C502.72,-42.1 438.43,-27.41 399.31,-18.47"/>
<polygon fill="#63b8ff" stroke="#63b8ff" points="546.68,-55.97 557.21,-54.78 548.24,-49.14 546.68,-55.97"/>
</g>
<!-- Node15&#45;&gt;Node6 -->
<g id="edge25" class="edge">
<title>Node15&#45;&gt;Node6</title>
<path fill="none" stroke="#63b8ff" d="M664.44,-222.31C677.83,-185.53 700.95,-102.86 660,-55.25 626.69,-16.52 469.57,-10.98 399.22,-10.48"/>
<polygon fill="#63b8ff" stroke="#63b8ff" points="660.98,-220.57 660.68,-231.16 667.52,-223.06 660.98,-220.57"/>
</g>
</g>
</svg>
