<?xml version="1.0" encoding="UTF-8" standalone="no"?>
<!DOCTYPE svg PUBLIC "-//W3C//DTD SVG 1.1//EN"
 "http://www.w3.org/Graphics/SVG/1.1/DTD/svg11.dtd">
<!-- Generated by graphviz version 8.0.5 (20230430.1635)
 -->
<!-- Title: Graphical Class Hierarchy Pages: 1 -->
<svg width="302pt" height="88pt"
 viewBox="0.00 0.00 301.75 87.50" xmlns="http://www.w3.org/2000/svg" xmlns:xlink="http://www.w3.org/1999/xlink">
<g id="graph0" class="graph" transform="scale(1 1) rotate(0) translate(4 83.5)">
<title>Graphical Class Hierarchy</title>
<!-- Node0 -->
<g id="node1" class="node">
<title>Node0</title>
<g id="a_node1"><a xlink:href="classv8_1_1StdMapTraits.html" target="_top" xlink:title=" ">
<polygon fill="white" stroke="#666666" points="124.75,-48.88 0,-48.88 0,-29.62 124.75,-29.62 124.75,-48.88"/>
<text text-anchor="middle" x="62.38" y="-35.38" font-family="Helvetica,sans-Serif" font-size="10.00">v8::StdMapTraits&lt; K, V &gt;</text>
</a>
</g>
</g>
<!-- Node1 -->
<g id="node2" class="node">
<title>Node1</title>
<g id="a_node2"><a xlink:href="classv8_1_1DefaultGlobalMapTraits.html" target="_top" xlink:title=" ">
<polygon fill="white" stroke="#666666" points="293.75,-79.5 160.75,-79.5 160.75,-49 293.75,-49 293.75,-79.5"/>
<text text-anchor="start" x="168.75" y="-66" font-family="Helvetica,sans-Serif" font-size="10.00">v8::DefaultGlobalMapTraits</text>
<text text-anchor="middle" x="227.25" y="-54.75" font-family="Helvetica,sans-Serif" font-size="10.00">&lt; K, V &gt;</text>
</a>
</g>
</g>
<!-- Node0&#45;&gt;Node1 -->
<g id="edge1" class="edge">
<title>Node0&#45;&gt;Node1</title>
<path fill="none" stroke="#63b8ff" d="M135.7,-50.35C143.96,-51.62 152.35,-52.91 160.51,-54.16"/>
<polygon fill="#63b8ff" stroke="#63b8ff" points="136.37,-46.76 125.95,-48.7 135.3,-53.68 136.37,-46.76"/>
</g>
<!-- Node2 -->
<g id="node3" class="node">
<title>Node2</title>
<g id="a_node3"><a xlink:href="classv8_1_1DefaultPersistentValueMapTraits.html" target="_top" xlink:title=" ">
<polygon fill="white" stroke="#666666" points="292.62,-30.5 161.88,-30.5 161.88,0 292.62,0 292.62,-30.5"/>
<text text-anchor="start" x="169.88" y="-17" font-family="Helvetica,sans-Serif" font-size="10.00">v8::DefaultPersistentValue</text>
<text text-anchor="middle" x="227.25" y="-5.75" font-family="Helvetica,sans-Serif" font-size="10.00">MapTraits&lt; K, V &gt;</text>
</a>
</g>
</g>
<!-- Node0&#45;&gt;Node2 -->
<g id="edge2" class="edge">
<title>Node0&#45;&gt;Node2</title>
<path fill="none" stroke="#63b8ff" d="M135.75,-28.58C144.36,-27.32 153.11,-26.03 161.6,-24.78"/>
<polygon fill="#63b8ff" stroke="#63b8ff" points="135.33,-25.26 125.95,-30.18 136.35,-32.18 135.33,-25.26"/>
</g>
</g>
</svg>
