<?xml version="1.0" encoding="UTF-8" standalone="no"?>
<!DOCTYPE svg PUBLIC "-//W3C//DTD SVG 1.1//EN"
 "http://www.w3.org/Graphics/SVG/1.1/DTD/svg11.dtd">
<!-- Generated by graphviz version 8.0.5 (20230430.1635)
 -->
<!-- Title: v8::Isolate::CreateParams Pages: 1 -->
<svg width="886pt" height="197pt"
 viewBox="0.00 0.00 886.00 197.12" xmlns="http://www.w3.org/2000/svg" xmlns:xlink="http://www.w3.org/1999/xlink">
<g id="graph0" class="graph" transform="scale(1 1) rotate(0) translate(4 193.12)">
<title>v8::Isolate::CreateParams</title>
<!-- Node1 -->
<g id="node1" class="node">
<title>Node1</title>
<g id="a_node1"><a xlink:title=" ">
<polygon fill="#999999" stroke="#666666" points="878,-93.25 751,-93.25 751,-74 878,-74 878,-93.25"/>
<text text-anchor="middle" x="814.5" y="-79.75" font-family="Helvetica,sans-Serif" font-size="10.00">v8::Isolate::CreateParams</text>
</a>
</g>
</g>
<!-- Node2 -->
<g id="node2" class="node">
<title>Node2</title>
<g id="a_node2"><a xlink:href="structv8_1_1JitCodeEvent.html" target="_top" xlink:title=" ">
<polygon fill="white" stroke="#666666" points="604,-130.25 515.25,-130.25 515.25,-111 604,-111 604,-130.25"/>
<text text-anchor="middle" x="559.62" y="-116.75" font-family="Helvetica,sans-Serif" font-size="10.00">v8::JitCodeEvent</text>
</a>
</g>
</g>
<!-- Node2&#45;&gt;Node1 -->
<g id="edge1" class="edge">
<title>Node2&#45;&gt;Node1</title>
<path fill="none" stroke="#9a32cd" stroke-dasharray="5,2" d="M614.9,-113.94C648.88,-109.62 693.55,-103.68 733,-97.62 740.85,-96.42 749.12,-95.07 757.25,-93.7"/>
<polygon fill="#9a32cd" stroke="#9a32cd" points="614.74,-110.56 605.26,-115.29 615.62,-117.5 614.74,-110.56"/>
<text text-anchor="middle" x="685.75" y="-112.38" font-family="Helvetica,sans-Serif" font-size="10.00"> code_event_handler</text>
</g>
<!-- Node3 -->
<g id="node3" class="node">
<title>Node3</title>
<g id="a_node3"><a xlink:href="classv8_1_1Local.html" target="_top" xlink:title=" ">
<polygon fill="white" stroke="#666666" points="362.75,-149.25 211.75,-149.25 211.75,-130 362.75,-130 362.75,-149.25"/>
<text text-anchor="middle" x="287.25" y="-135.75" font-family="Helvetica,sans-Serif" font-size="10.00">v8::Local&lt; v8::UnboundScript &gt;</text>
</a>
</g>
</g>
<!-- Node3&#45;&gt;Node2 -->
<g id="edge2" class="edge">
<title>Node3&#45;&gt;Node2</title>
<path fill="none" stroke="#9a32cd" stroke-dasharray="5,2" d="M373.97,-133.6C420.8,-130.31 476.82,-126.37 514.79,-123.71"/>
<polygon fill="#9a32cd" stroke="#9a32cd" points="373.94,-130.17 364.21,-134.36 374.43,-137.15 373.94,-130.17"/>
<text text-anchor="middle" x="430.75" y="-134.38" font-family="Helvetica,sans-Serif" font-size="10.00"> script</text>
</g>
<!-- Node4 -->
<g id="node4" class="node">
<title>Node4</title>
<g id="a_node4"><a xlink:href="classv8_1_1Local.html" target="_top" xlink:title=" ">
<polygon fill="white" stroke="#666666" points="77.5,-168.25 0,-168.25 0,-149 77.5,-149 77.5,-168.25"/>
<text text-anchor="middle" x="38.75" y="-154.75" font-family="Helvetica,sans-Serif" font-size="10.00">v8::Local&lt; T &gt;</text>
</a>
</g>
</g>
<!-- Node4&#45;&gt;Node3 -->
<g id="edge3" class="edge">
<title>Node4&#45;&gt;Node3</title>
<path fill="none" stroke="orange" stroke-dasharray="5,2" d="M84.92,-146.17C88.48,-145.47 92.04,-144.85 95.5,-144.38 133.56,-139.11 176.3,-137.64 211.65,-137.6"/>
<polygon fill="orange" stroke="orange" points="84.32,-142.94 75.3,-148.51 85.82,-149.78 84.32,-142.94"/>
<text text-anchor="middle" x="144.62" y="-145.38" font-family="Helvetica,sans-Serif" font-size="10.00"> &lt; v8::UnboundScript &gt;</text>
</g>
<!-- Node10 -->
<g id="node10" class="node">
<title>Node10</title>
<g id="a_node10"><a xlink:href="classv8_1_1Local.html" target="_top" xlink:title=" ">
<polygon fill="white" stroke="#666666" points="480.75,-181.25 380.75,-181.25 380.75,-162 480.75,-162 480.75,-181.25"/>
<text text-anchor="middle" x="430.75" y="-167.75" font-family="Helvetica,sans-Serif" font-size="10.00">v8::Local&lt; Object &gt;</text>
</a>
</g>
</g>
<!-- Node4&#45;&gt;Node10 -->
<g id="edge10" class="edge">
<title>Node4&#45;&gt;Node10</title>
<path fill="none" stroke="orange" stroke-dasharray="5,2" d="M88.84,-160.26C163.71,-162.76 305.63,-167.49 380.56,-169.99"/>
<polygon fill="orange" stroke="orange" points="88.97,-156.73 78.85,-159.9 88.73,-163.73 88.97,-156.73"/>
<text text-anchor="middle" x="144.62" y="-165.38" font-family="Helvetica,sans-Serif" font-size="10.00"> &lt; Object &gt;</text>
</g>
<!-- Node5 -->
<g id="node5" class="node">
<title>Node5</title>
<g id="a_node5"><a xlink:href="structv8_1_1JitCodeEvent_1_1name__t.html" target="_top" xlink:title=" ">
<polygon fill="white" stroke="#666666" points="350,-63.25 224.5,-63.25 224.5,-44 350,-44 350,-63.25"/>
<text text-anchor="middle" x="287.25" y="-49.75" font-family="Helvetica,sans-Serif" font-size="10.00">v8::JitCodeEvent::name_t</text>
</a>
</g>
</g>
<!-- Node5&#45;&gt;Node2 -->
<g id="edge4" class="edge">
<title>Node5&#45;&gt;Node2</title>
<path fill="none" stroke="#9a32cd" stroke-dasharray="5,2" d="M361.13,-56.37C398.44,-60.12 443.69,-68.41 480.75,-86.38 490.45,-91.08 489.36,-97.33 498.75,-102.62 504.23,-105.72 510.31,-108.33 516.42,-110.53"/>
<polygon fill="#9a32cd" stroke="#9a32cd" points="361.6,-52.8 351.33,-55.38 360.97,-59.77 361.6,-52.8"/>
<text text-anchor="middle" x="430.75" y="-87.38" font-family="Helvetica,sans-Serif" font-size="10.00"> name</text>
</g>
<!-- Node6 -->
<g id="node6" class="node">
<title>Node6</title>
<g id="a_node6"><a xlink:href="structv8_1_1JitCodeEvent_1_1line__info__t.html" target="_top" xlink:title=" ">
<polygon fill="white" stroke="#666666" points="341.38,-111.88 233.12,-111.88 233.12,-81.38 341.38,-81.38 341.38,-111.88"/>
<text text-anchor="start" x="241.12" y="-98.38" font-family="Helvetica,sans-Serif" font-size="10.00">v8::JitCodeEvent::line</text>
<text text-anchor="middle" x="287.25" y="-87.12" font-family="Helvetica,sans-Serif" font-size="10.00">_info_t</text>
</a>
</g>
</g>
<!-- Node6&#45;&gt;Node2 -->
<g id="edge5" class="edge">
<title>Node6&#45;&gt;Node2</title>
<path fill="none" stroke="#9a32cd" stroke-dasharray="5,2" d="M352.61,-100.26C390.05,-102.62 438.12,-106.05 480.75,-110.38 491.87,-111.5 503.86,-112.96 515.02,-114.42"/>
<polygon fill="#9a32cd" stroke="#9a32cd" points="353.04,-96.72 342.85,-99.6 352.61,-103.71 353.04,-96.72"/>
<text text-anchor="middle" x="430.75" y="-111.38" font-family="Helvetica,sans-Serif" font-size="10.00"> line_info</text>
</g>
<!-- Node7 -->
<g id="node7" class="node">
<title>Node7</title>
<g id="a_node7"><a xlink:href="classv8_1_1ResourceConstraints.html" target="_top" xlink:title=" ">
<polygon fill="white" stroke="#666666" points="620.5,-93.25 498.75,-93.25 498.75,-74 620.5,-74 620.5,-93.25"/>
<text text-anchor="middle" x="559.62" y="-79.75" font-family="Helvetica,sans-Serif" font-size="10.00">v8::ResourceConstraints</text>
</a>
</g>
</g>
<!-- Node7&#45;&gt;Node1 -->
<g id="edge6" class="edge">
<title>Node7&#45;&gt;Node1</title>
<path fill="none" stroke="#9a32cd" stroke-dasharray="5,2" d="M631.69,-83.62C669.09,-83.62 714.53,-83.62 750.63,-83.62"/>
<polygon fill="#9a32cd" stroke="#9a32cd" points="631.87,-80.13 621.87,-83.62 631.87,-87.13 631.87,-80.13"/>
<text text-anchor="middle" x="685.75" y="-85.38" font-family="Helvetica,sans-Serif" font-size="10.00"> constraints</text>
</g>
<!-- Node8 -->
<g id="node8" class="node">
<title>Node8</title>
<g id="a_node8"><a xlink:href="classv8_1_1StartupData.html" target="_top" xlink:title=" ">
<polygon fill="white" stroke="#666666" points="601,-56.25 518.25,-56.25 518.25,-37 601,-37 601,-56.25"/>
<text text-anchor="middle" x="559.62" y="-42.75" font-family="Helvetica,sans-Serif" font-size="10.00">v8::StartupData</text>
</a>
</g>
</g>
<!-- Node8&#45;&gt;Node1 -->
<g id="edge7" class="edge">
<title>Node8&#45;&gt;Node1</title>
<path fill="none" stroke="#9a32cd" stroke-dasharray="5,2" d="M612.18,-52.29C646.5,-56.26 692.54,-62 733,-68.38 742.69,-69.9 753.01,-71.72 762.91,-73.55"/>
<polygon fill="#9a32cd" stroke="#9a32cd" points="612.81,-48.72 602.47,-51.06 612.01,-55.68 612.81,-48.72"/>
<text text-anchor="middle" x="685.75" y="-69.38" font-family="Helvetica,sans-Serif" font-size="10.00"> snapshot_blob</text>
</g>
<!-- Node9 -->
<g id="node9" class="node">
<title>Node9</title>
<g id="a_node9"><a xlink:href="classv8_1_1ArrayBuffer_1_1Allocator.html" target="_top" xlink:title=" ">
<polygon fill="white" stroke="#666666" points="620.5,-19.25 498.75,-19.25 498.75,0 620.5,0 620.5,-19.25"/>
<text text-anchor="middle" x="559.62" y="-5.75" font-family="Helvetica,sans-Serif" font-size="10.00">v8::ArrayBuffer::Allocator</text>
</a>
</g>
</g>
<!-- Node9&#45;&gt;Node1 -->
<g id="edge8" class="edge">
<title>Node9&#45;&gt;Node1</title>
<path fill="none" stroke="#9a32cd" stroke-dasharray="5,2" d="M631.4,-16.46C663.1,-20.89 700.55,-28.02 733,-39.38 757.38,-47.91 783.14,-63.36 798.77,-73.56"/>
<polygon fill="#9a32cd" stroke="#9a32cd" points="632.27,-12.92 621.89,-15.07 631.34,-19.85 632.27,-12.92"/>
<text text-anchor="middle" x="685.75" y="-41.38" font-family="Helvetica,sans-Serif" font-size="10.00"> array_buffer_allocator</text>
</g>
<!-- Node10&#45;&gt;Node1 -->
<g id="edge9" class="edge">
<title>Node10&#45;&gt;Node1</title>
<path fill="none" stroke="#9a32cd" stroke-dasharray="5,2" d="M491.88,-168.27C553.67,-163.49 652,-152.13 733,-125.62 756.97,-117.78 782.42,-103.34 798.14,-93.61"/>
<polygon fill="#9a32cd" stroke="#9a32cd" points="491.87,-164.84 482.16,-169.06 492.39,-171.82 491.87,-164.84"/>
<text text-anchor="start" x="517.25" y="-179.62" font-family="Helvetica,sans-Serif" font-size="10.00"> deserialize_internal</text>
<text text-anchor="middle" x="559.62" y="-168.38" font-family="Helvetica,sans-Serif" font-size="10.00">_fields_callback</text>
</g>
</g>
</svg>
