<?xml version="1.0" encoding="UTF-8" standalone="no"?>
<!DOCTYPE svg PUBLIC "-//W3C//DTD SVG 1.1//EN"
 "http://www.w3.org/Graphics/SVG/1.1/DTD/svg11.dtd">
<!-- Generated by graphviz version 8.0.5 (20230430.1635)
 -->
<!-- Title: v8::GlobalValueMap::SetUnique Pages: 1 -->
<svg width="465pt" height="223pt"
 viewBox="0.00 0.00 464.75 222.88" xmlns="http://www.w3.org/2000/svg" xmlns:xlink="http://www.w3.org/1999/xlink">
<g id="graph0" class="graph" transform="scale(1 1) rotate(0) translate(4 218.88)">
<title>v8::GlobalValueMap::SetUnique</title>
<!-- Node1 -->
<g id="node1" class="node">
<title>Node1</title>
<g id="a_node1"><a xlink:title=" ">
<polygon fill="#999999" stroke="#666666" points="102.25,-140.88 0,-140.88 0,-110.38 102.25,-110.38 102.25,-140.88"/>
<text text-anchor="start" x="8" y="-127.38" font-family="Helvetica,sans-Serif" font-size="10.00">v8::GlobalValueMap</text>
<text text-anchor="middle" x="51.12" y="-116.12" font-family="Helvetica,sans-Serif" font-size="10.00">::SetUnique</text>
</a>
</g>
</g>
<!-- Node2 -->
<g id="node2" class="node">
<title>Node2</title>
<g id="a_node2"><a xlink:href="classv8_1_1PersistentValueMapBase.html#a7b083c75829bbc4177729ffe9827c4ac" target="_top" xlink:title=" ">
<polygon fill="white" stroke="#666666" points="279.5,-214.88 138.25,-214.88 138.25,-184.38 279.5,-184.38 279.5,-214.88"/>
<text text-anchor="start" x="146.25" y="-201.38" font-family="Helvetica,sans-Serif" font-size="10.00">v8::PersistentValueMapBase</text>
<text text-anchor="middle" x="208.88" y="-190.12" font-family="Helvetica,sans-Serif" font-size="10.00">::ClearAndLeak</text>
</a>
</g>
</g>
<!-- Node1&#45;&gt;Node2 -->
<g id="edge1" class="edge">
<title>Node1&#45;&gt;Node2</title>
<path fill="none" stroke="#63b8ff" d="M76.77,-141.16C93.68,-151.44 116.84,-164.78 138.25,-174.62 142.25,-176.47 146.44,-178.26 150.67,-179.99"/>
<polygon fill="#63b8ff" stroke="#63b8ff" points="149.03,-183.5 159.62,-183.9 151.59,-176.99 149.03,-183.5"/>
</g>
<!-- Node3 -->
<g id="node3" class="node">
<title>Node3</title>
<g id="a_node3"><a xlink:href="classv8_1_1PersistentValueMapBase.html#a149e5b7f40fa52dc9b379342ac802d94" target="_top" xlink:title=" ">
<polygon fill="white" stroke="#666666" points="279.5,-165.88 138.25,-165.88 138.25,-135.38 279.5,-135.38 279.5,-165.88"/>
<text text-anchor="start" x="146.25" y="-152.38" font-family="Helvetica,sans-Serif" font-size="10.00">v8::PersistentValueMapBase</text>
<text text-anchor="middle" x="208.88" y="-141.12" font-family="Helvetica,sans-Serif" font-size="10.00">::impl</text>
</a>
</g>
</g>
<!-- Node1&#45;&gt;Node3 -->
<g id="edge2" class="edge">
<title>Node1&#45;&gt;Node3</title>
<path fill="none" stroke="#63b8ff" d="M102.69,-133.74C110.47,-134.99 118.67,-136.31 126.92,-137.63"/>
<polygon fill="#63b8ff" stroke="#63b8ff" points="126.32,-141.24 136.75,-139.37 127.43,-134.33 126.32,-141.24"/>
</g>
<!-- Node4 -->
<g id="node4" class="node">
<title>Node4</title>
<g id="a_node4"><a xlink:href="classv8_1_1PersistentValueMapBase.html#ac15c999275fb50c0084246cb9a848811" target="_top" xlink:title=" ">
<polygon fill="white" stroke="#666666" points="279.5,-116.88 138.25,-116.88 138.25,-86.38 279.5,-86.38 279.5,-116.88"/>
<text text-anchor="start" x="146.25" y="-103.38" font-family="Helvetica,sans-Serif" font-size="10.00">v8::PersistentValueMapBase</text>
<text text-anchor="middle" x="208.88" y="-92.12" font-family="Helvetica,sans-Serif" font-size="10.00">::isolate</text>
</a>
</g>
</g>
<!-- Node1&#45;&gt;Node4 -->
<g id="edge3" class="edge">
<title>Node1&#45;&gt;Node4</title>
<path fill="none" stroke="#63b8ff" d="M102.69,-117.83C110.47,-116.63 118.67,-115.37 126.92,-114.1"/>
<polygon fill="#63b8ff" stroke="#63b8ff" points="127.4,-117.41 136.75,-112.43 126.33,-110.49 127.4,-117.41"/>
</g>
<!-- Node5 -->
<g id="node5" class="node">
<title>Node5</title>
<g id="a_node5"><a xlink:href="classv8_1_1PersistentValueMapBase.html#aea9af944a2bd71a3b6abd2a2e57788f1" target="_top" xlink:title=" ">
<polygon fill="white" stroke="#666666" points="279.5,-67.88 138.25,-67.88 138.25,-37.38 279.5,-37.38 279.5,-67.88"/>
<text text-anchor="start" x="146.25" y="-54.38" font-family="Helvetica,sans-Serif" font-size="10.00">v8::PersistentValueMapBase</text>
<text text-anchor="middle" x="208.88" y="-43.12" font-family="Helvetica,sans-Serif" font-size="10.00">::Release</text>
</a>
</g>
</g>
<!-- Node1&#45;&gt;Node5 -->
<g id="edge4" class="edge">
<title>Node1&#45;&gt;Node5</title>
<path fill="none" stroke="#63b8ff" d="M77.56,-110C94.41,-100.01 117.21,-87.19 138.25,-77.62 142.33,-75.77 146.59,-73.96 150.9,-72.21"/>
<polygon fill="#63b8ff" stroke="#63b8ff" points="151.97,-75.16 160.01,-68.26 149.42,-68.64 151.97,-75.16"/>
</g>
<!-- Node6 -->
<g id="node6" class="node">
<title>Node6</title>
<g id="a_node6"><a xlink:href="classv8_1_1PersistentValueMapBase.html#abb262f768e4353658726ba4d1295947c" target="_top" xlink:title=" ">
<polygon fill="white" stroke="#666666" points="456.75,-116.88 315.5,-116.88 315.5,-86.38 456.75,-86.38 456.75,-116.88"/>
<text text-anchor="start" x="323.5" y="-103.38" font-family="Helvetica,sans-Serif" font-size="10.00">v8::PersistentValueMapBase</text>
<text text-anchor="middle" x="386.12" y="-92.12" font-family="Helvetica,sans-Serif" font-size="10.00">::FromVal</text>
</a>
</g>
</g>
<!-- Node5&#45;&gt;Node6 -->
<g id="edge5" class="edge">
<title>Node5&#45;&gt;Node6</title>
<path fill="none" stroke="#63b8ff" d="M265.81,-68.26C282.64,-72.97 301.27,-78.18 318.71,-83.06"/>
<polygon fill="#63b8ff" stroke="#63b8ff" points="317.25,-86.56 327.82,-85.88 319.13,-79.82 317.25,-86.56"/>
</g>
<!-- Node7 -->
<g id="node7" class="node">
<title>Node7</title>
<g id="a_node7"><a xlink:href="classv8_1_1PersistentBase.html#a479c7b146da083aa608e133a7dec79f9" target="_top" xlink:title=" ">
<polygon fill="white" stroke="#666666" points="435,-67.88 337.25,-67.88 337.25,-37.38 435,-37.38 435,-67.88"/>
<text text-anchor="start" x="345.25" y="-54.38" font-family="Helvetica,sans-Serif" font-size="10.00">v8::PersistentBase</text>
<text text-anchor="middle" x="386.12" y="-43.12" font-family="Helvetica,sans-Serif" font-size="10.00">::IsWeak</text>
</a>
</g>
</g>
<!-- Node5&#45;&gt;Node7 -->
<g id="edge6" class="edge">
<title>Node5&#45;&gt;Node7</title>
<path fill="none" stroke="#63b8ff" d="M279.89,-52.62C295.24,-52.62 311.33,-52.62 326.19,-52.62"/>
<polygon fill="#63b8ff" stroke="#63b8ff" points="325.76,-56.13 335.76,-52.62 325.76,-49.13 325.76,-56.13"/>
</g>
<!-- Node8 -->
<g id="node8" class="node">
<title>Node8</title>
<g id="a_node8"><a xlink:href="classv8_1_1Global.html#a914903149cc752468d4a3a11b6089c7e" target="_top" xlink:title=" ">
<polygon fill="white" stroke="#666666" points="429,-19.25 343.25,-19.25 343.25,0 429,0 429,-19.25"/>
<text text-anchor="middle" x="386.12" y="-5.75" font-family="Helvetica,sans-Serif" font-size="10.00">v8::Global::Pass</text>
</a>
</g>
</g>
<!-- Node5&#45;&gt;Node8 -->
<g id="edge7" class="edge">
<title>Node5&#45;&gt;Node8</title>
<path fill="none" stroke="#63b8ff" d="M273.64,-36.98C293.37,-32.14 314.84,-26.87 333.63,-22.26"/>
<polygon fill="#63b8ff" stroke="#63b8ff" points="334.17,-25.49 343.05,-19.7 332.5,-18.69 334.17,-25.49"/>
</g>
</g>
</svg>
