<?xml version="1.0" encoding="UTF-8" standalone="no"?>
<!DOCTYPE svg PUBLIC "-//W3C//DTD SVG 1.1//EN"
 "http://www.w3.org/Graphics/SVG/1.1/DTD/svg11.dtd">
<!-- Generated by graphviz version 8.0.5 (20230430.1635)
 -->
<!-- Title: v8::FunctionTemplate Pages: 1 -->
<svg width="117pt" height="138pt"
 viewBox="0.00 0.00 117.00 137.75" xmlns="http://www.w3.org/2000/svg" xmlns:xlink="http://www.w3.org/1999/xlink">
<g id="graph0" class="graph" transform="scale(1 1) rotate(0) translate(4 133.75)">
<title>v8::FunctionTemplate</title>
<!-- Node1 -->
<g id="node1" class="node">
<title>Node1</title>
<g id="a_node1"><a xlink:title=" ">
<polygon fill="#999999" stroke="#666666" points="109,-19.25 0,-19.25 0,0 109,0 109,-19.25"/>
<text text-anchor="middle" x="54.5" y="-5.75" font-family="Helvetica,sans-Serif" font-size="10.00">v8::FunctionTemplate</text>
</a>
</g>
</g>
<!-- Node2 -->
<g id="node2" class="node">
<title>Node2</title>
<g id="a_node2"><a xlink:href="classv8_1_1Template.html" target="_top" xlink:title=" ">
<polygon fill="white" stroke="#666666" points="90.25,-74.5 18.75,-74.5 18.75,-55.25 90.25,-55.25 90.25,-74.5"/>
<text text-anchor="middle" x="54.5" y="-61" font-family="Helvetica,sans-Serif" font-size="10.00">v8::Template</text>
</a>
</g>
</g>
<!-- Node2&#45;&gt;Node1 -->
<g id="edge1" class="edge">
<title>Node2&#45;&gt;Node1</title>
<path fill="none" stroke="#63b8ff" d="M54.5,-44.21C54.5,-35.77 54.5,-26.33 54.5,-19.61"/>
<polygon fill="#63b8ff" stroke="#63b8ff" points="51,-44.08 54.5,-54.08 58,-44.08 51,-44.08"/>
</g>
<!-- Node3 -->
<g id="node3" class="node">
<title>Node3</title>
<g id="a_node3"><a xlink:href="classv8_1_1Data.html" target="_top" xlink:title=" ">
<polygon fill="white" stroke="#666666" points="80.12,-129.75 28.88,-129.75 28.88,-110.5 80.12,-110.5 80.12,-129.75"/>
<text text-anchor="middle" x="54.5" y="-116.25" font-family="Helvetica,sans-Serif" font-size="10.00">v8::Data</text>
</a>
</g>
</g>
<!-- Node3&#45;&gt;Node2 -->
<g id="edge2" class="edge">
<title>Node3&#45;&gt;Node2</title>
<path fill="none" stroke="#63b8ff" d="M54.5,-99.46C54.5,-91.02 54.5,-81.58 54.5,-74.86"/>
<polygon fill="#63b8ff" stroke="#63b8ff" points="51,-99.33 54.5,-109.33 58,-99.33 51,-99.33"/>
</g>
</g>
</svg>
