<?xml version="1.0" encoding="UTF-8" standalone="no"?>
<!DOCTYPE svg PUBLIC "-//W3C//DTD SVG 1.1//EN"
 "http://www.w3.org/Graphics/SVG/1.1/DTD/svg11.dtd">
<!-- Generated by graphviz version 8.0.5 (20230430.1635)
 -->
<!-- Title: include/v8&#45;json.h Pages: 1 -->
<svg width="542pt" height="248pt"
 viewBox="0.00 0.00 542.25 248.25" xmlns="http://www.w3.org/2000/svg" xmlns:xlink="http://www.w3.org/1999/xlink">
<g id="graph0" class="graph" transform="scale(1 1) rotate(0) translate(4 244.25)">
<title>include/v8&#45;json.h</title>
<!-- Node1 -->
<g id="node1" class="node">
<title>Node1</title>
<g id="a_node1"><a xlink:title=" ">
<polygon fill="#999999" stroke="#666666" points="427.88,-240.25 339.12,-240.25 339.12,-221 427.88,-221 427.88,-240.25"/>
<text text-anchor="middle" x="383.5" y="-226.75" font-family="Helvetica,sans-Serif" font-size="10.00">include/v8&#45;json.h</text>
</a>
</g>
</g>
<!-- Node2 -->
<g id="node2" class="node">
<title>Node2</title>
<g id="a_node2"><a xlink:href="v8-local-handle_8h.html" target="_top" xlink:title=" ">
<polygon fill="white" stroke="#666666" points="383.88,-185 295.12,-185 295.12,-165.75 383.88,-165.75 383.88,-185"/>
<text text-anchor="middle" x="339.5" y="-171.5" font-family="Helvetica,sans-Serif" font-size="10.00">v8&#45;local&#45;handle.h</text>
</a>
</g>
</g>
<!-- Node1&#45;&gt;Node2 -->
<g id="edge1" class="edge">
<title>Node1&#45;&gt;Node2</title>
<path fill="none" stroke="#63b8ff" d="M376.23,-220.83C370.16,-213.48 361.3,-202.76 353.81,-193.69"/>
<polygon fill="#63b8ff" stroke="#63b8ff" points="355.99,-191.84 346.92,-186.36 350.6,-196.3 355.99,-191.84"/>
</g>
<!-- Node13 -->
<g id="node13" class="node">
<title>Node13</title>
<g id="a_node13"><a xlink:href="v8config_8h.html" target="_top" xlink:title=" ">
<polygon fill="white" stroke="#666666" points="534.25,-19.25 474.75,-19.25 474.75,0 534.25,0 534.25,-19.25"/>
<text text-anchor="middle" x="504.5" y="-5.75" font-family="Helvetica,sans-Serif" font-size="10.00">v8config.h</text>
</a>
</g>
</g>
<!-- Node1&#45;&gt;Node13 -->
<g id="edge16" class="edge">
<title>Node1&#45;&gt;Node13</title>
<path fill="none" stroke="#63b8ff" d="M388.39,-220.77C406.45,-188.09 469.55,-73.88 494.37,-28.96"/>
<polygon fill="#63b8ff" stroke="#63b8ff" points="497.91,-30.8 499.68,-20.35 491.78,-27.41 497.91,-30.8"/>
</g>
<!-- Node3 -->
<g id="node3" class="node">
<title>Node3</title>
<g id="a_node3"><a xlink:title=" ">
<polygon fill="#e0e0e0" stroke="#999999" points="456.75,-19.25 406.25,-19.25 406.25,0 456.75,0 456.75,-19.25"/>
<text text-anchor="middle" x="431.5" y="-5.75" font-family="Helvetica,sans-Serif" font-size="10.00">stddef.h</text>
</a>
</g>
</g>
<!-- Node2&#45;&gt;Node3 -->
<g id="edge2" class="edge">
<title>Node2&#45;&gt;Node3</title>
<path fill="none" stroke="#63b8ff" d="M364.82,-165.37C381.07,-158.25 401.18,-146.66 412.5,-129.75 432.73,-99.54 434.26,-55.53 433.15,-30.32"/>
<polygon fill="#63b8ff" stroke="#63b8ff" points="436.6,-30.35 432.46,-20.6 429.61,-30.8 436.6,-30.35"/>
</g>
<!-- Node4 -->
<g id="node4" class="node">
<title>Node4</title>
<g id="a_node4"><a xlink:title=" ">
<polygon fill="#e0e0e0" stroke="#999999" points="61,-19.25 0,-19.25 0,0 61,0 61,-19.25"/>
<text text-anchor="middle" x="30.5" y="-5.75" font-family="Helvetica,sans-Serif" font-size="10.00">type_traits</text>
</a>
</g>
</g>
<!-- Node2&#45;&gt;Node4 -->
<g id="edge3" class="edge">
<title>Node2&#45;&gt;Node4</title>
<path fill="none" stroke="#63b8ff" d="M316.41,-165.41C295.09,-156.9 262.71,-143.43 235.5,-129.75 167.64,-95.63 91.11,-48.81 53.66,-25.32"/>
<polygon fill="#63b8ff" stroke="#63b8ff" points="55.91,-21.98 45.59,-19.61 52.18,-27.9 55.91,-21.98"/>
</g>
<!-- Node5 -->
<g id="node5" class="node">
<title>Node5</title>
<g id="a_node5"><a xlink:title=" ">
<polygon fill="#e0e0e0" stroke="#999999" points="403,-129.75 360,-129.75 360,-110.5 403,-110.5 403,-129.75"/>
<text text-anchor="middle" x="381.5" y="-116.25" font-family="Helvetica,sans-Serif" font-size="10.00">vector</text>
</a>
</g>
</g>
<!-- Node2&#45;&gt;Node5 -->
<g id="edge4" class="edge">
<title>Node2&#45;&gt;Node5</title>
<path fill="none" stroke="#63b8ff" d="M346.44,-165.58C352.18,-158.3 360.51,-147.73 367.62,-138.73"/>
<polygon fill="#63b8ff" stroke="#63b8ff" points="370.97,-141.13 374.41,-131.11 365.47,-136.79 370.97,-141.13"/>
</g>
<!-- Node6 -->
<g id="node6" class="node">
<title>Node6</title>
<g id="a_node6"><a xlink:href="v8-handle-base_8h.html" target="_top" xlink:title=" ">
<polygon fill="white" stroke="#666666" points="342.25,-129.75 252.75,-129.75 252.75,-110.5 342.25,-110.5 342.25,-129.75"/>
<text text-anchor="middle" x="297.5" y="-116.25" font-family="Helvetica,sans-Serif" font-size="10.00">v8&#45;handle&#45;base.h</text>
</a>
</g>
</g>
<!-- Node2&#45;&gt;Node6 -->
<g id="edge5" class="edge">
<title>Node2&#45;&gt;Node6</title>
<path fill="none" stroke="#63b8ff" d="M332.56,-165.58C326.82,-158.3 318.49,-147.73 311.38,-138.73"/>
<polygon fill="#63b8ff" stroke="#63b8ff" points="313.53,-136.79 304.59,-131.11 308.03,-141.13 313.53,-136.79"/>
</g>
<!-- Node7 -->
<g id="node7" class="node">
<title>Node7</title>
<g id="a_node7"><a xlink:href="v8-internal_8h.html" target="_top" xlink:title=" ">
<polygon fill="white" stroke="#666666" points="298.75,-74.5 230.25,-74.5 230.25,-55.25 298.75,-55.25 298.75,-74.5"/>
<text text-anchor="middle" x="264.5" y="-61" font-family="Helvetica,sans-Serif" font-size="10.00">v8&#45;internal.h</text>
</a>
</g>
</g>
<!-- Node2&#45;&gt;Node7 -->
<g id="edge15" class="edge">
<title>Node2&#45;&gt;Node7</title>
<path fill="none" stroke="#63b8ff" d="M296.05,-165.39C276.47,-158.94 255.16,-148.03 243.5,-129.75 234.41,-115.5 242.33,-96.92 250.92,-83.48"/>
<polygon fill="#63b8ff" stroke="#63b8ff" points="254.18,-85.93 257.06,-75.74 248.45,-81.91 254.18,-85.93"/>
</g>
<!-- Node6&#45;&gt;Node7 -->
<g id="edge6" class="edge">
<title>Node6&#45;&gt;Node7</title>
<path fill="none" stroke="#63b8ff" d="M292.05,-110.33C287.63,-103.21 281.26,-92.93 275.76,-84.05"/>
<polygon fill="#63b8ff" stroke="#63b8ff" points="278.31,-82.52 270.07,-75.86 272.36,-86.2 278.31,-82.52"/>
</g>
<!-- Node7&#45;&gt;Node3 -->
<g id="edge7" class="edge">
<title>Node7&#45;&gt;Node3</title>
<path fill="none" stroke="#63b8ff" d="M292.83,-54.84C321.13,-45.82 364.74,-31.91 395.49,-22.11"/>
<polygon fill="#63b8ff" stroke="#63b8ff" points="396.31,-25.2 404.78,-18.83 394.19,-18.53 396.31,-25.2"/>
</g>
<!-- Node7&#45;&gt;Node4 -->
<g id="edge13" class="edge">
<title>Node7&#45;&gt;Node4</title>
<path fill="none" stroke="#63b8ff" d="M229.97,-56.02C187.93,-46.45 116.97,-30.3 71.99,-20.07"/>
<polygon fill="#63b8ff" stroke="#63b8ff" points="72.96,-16.47 62.43,-17.66 71.4,-23.3 72.96,-16.47"/>
</g>
<!-- Node8 -->
<g id="node8" class="node">
<title>Node8</title>
<g id="a_node8"><a xlink:title=" ">
<polygon fill="#e0e0e0" stroke="#999999" points="322.25,-19.25 274.75,-19.25 274.75,0 322.25,0 322.25,-19.25"/>
<text text-anchor="middle" x="298.5" y="-5.75" font-family="Helvetica,sans-Serif" font-size="10.00">stdint.h</text>
</a>
</g>
</g>
<!-- Node7&#45;&gt;Node8 -->
<g id="edge8" class="edge">
<title>Node7&#45;&gt;Node8</title>
<path fill="none" stroke="#63b8ff" d="M270.11,-55.08C274.66,-47.96 281.23,-37.68 286.9,-28.8"/>
<polygon fill="#63b8ff" stroke="#63b8ff" points="290.33,-30.92 292.76,-20.61 284.43,-27.15 290.33,-30.92"/>
</g>
<!-- Node9 -->
<g id="node9" class="node">
<title>Node9</title>
<g id="a_node9"><a xlink:title=" ">
<polygon fill="#e0e0e0" stroke="#999999" points="388.25,-19.25 340.75,-19.25 340.75,0 388.25,0 388.25,-19.25"/>
<text text-anchor="middle" x="364.5" y="-5.75" font-family="Helvetica,sans-Serif" font-size="10.00">string.h</text>
</a>
</g>
</g>
<!-- Node7&#45;&gt;Node9 -->
<g id="edge9" class="edge">
<title>Node7&#45;&gt;Node9</title>
<path fill="none" stroke="#63b8ff" d="M281.46,-54.84C296.91,-46.62 319.96,-34.34 337.86,-24.81"/>
<polygon fill="#63b8ff" stroke="#63b8ff" points="339.27,-27.49 346.45,-19.7 335.98,-21.31 339.27,-27.49"/>
</g>
<!-- Node10 -->
<g id="node10" class="node">
<title>Node10</title>
<g id="a_node10"><a xlink:title=" ">
<polygon fill="#e0e0e0" stroke="#999999" points="124.12,-19.25 78.88,-19.25 78.88,0 124.12,0 124.12,-19.25"/>
<text text-anchor="middle" x="101.5" y="-5.75" font-family="Helvetica,sans-Serif" font-size="10.00">atomic</text>
</a>
</g>
</g>
<!-- Node7&#45;&gt;Node10 -->
<g id="edge10" class="edge">
<title>Node7&#45;&gt;Node10</title>
<path fill="none" stroke="#63b8ff" d="M236.85,-54.84C208.7,-45.65 165.03,-31.38 134.95,-21.55"/>
<polygon fill="#63b8ff" stroke="#63b8ff" points="136.13,-17.93 125.54,-18.15 133.95,-24.58 136.13,-17.93"/>
</g>
<!-- Node11 -->
<g id="node11" class="node">
<title>Node11</title>
<g id="a_node11"><a xlink:title=" ">
<polygon fill="#e0e0e0" stroke="#999999" points="188.5,-19.25 142.5,-19.25 142.5,0 188.5,0 188.5,-19.25"/>
<text text-anchor="middle" x="165.5" y="-5.75" font-family="Helvetica,sans-Serif" font-size="10.00">iterator</text>
</a>
</g>
</g>
<!-- Node7&#45;&gt;Node11 -->
<g id="edge11" class="edge">
<title>Node7&#45;&gt;Node11</title>
<path fill="none" stroke="#63b8ff" d="M247.71,-54.84C232.35,-46.58 209.38,-34.23 191.62,-24.68"/>
<polygon fill="#63b8ff" stroke="#63b8ff" points="193.84,-21.36 183.38,-19.7 190.53,-27.52 193.84,-21.36"/>
</g>
<!-- Node12 -->
<g id="node12" class="node">
<title>Node12</title>
<g id="a_node12"><a xlink:title=" ">
<polygon fill="#e0e0e0" stroke="#999999" points="256.75,-19.25 206.25,-19.25 206.25,0 256.75,0 256.75,-19.25"/>
<text text-anchor="middle" x="231.5" y="-5.75" font-family="Helvetica,sans-Serif" font-size="10.00">memory</text>
</a>
</g>
</g>
<!-- Node7&#45;&gt;Node12 -->
<g id="edge12" class="edge">
<title>Node7&#45;&gt;Node12</title>
<path fill="none" stroke="#63b8ff" d="M259.05,-55.08C254.63,-47.96 248.26,-37.68 242.76,-28.8"/>
<polygon fill="#63b8ff" stroke="#63b8ff" points="245.31,-27.27 237.07,-20.61 239.36,-30.95 245.31,-27.27"/>
</g>
<!-- Node7&#45;&gt;Node13 -->
<g id="edge14" class="edge">
<title>Node7&#45;&gt;Node13</title>
<path fill="none" stroke="#63b8ff" d="M299.14,-56.19C342.77,-46.51 417.59,-29.91 463.87,-19.64"/>
<polygon fill="#63b8ff" stroke="#63b8ff" points="464.41,-22.88 473.42,-17.3 462.9,-16.05 464.41,-22.88"/>
</g>
</g>
</svg>
