<?xml version="1.0" encoding="UTF-8" standalone="no"?>
<!DOCTYPE svg PUBLIC "-//W3C//DTD SVG 1.1//EN"
 "http://www.w3.org/Graphics/SVG/1.1/DTD/svg11.dtd">
<!-- Generated by graphviz version 8.0.5 (20230430.1635)
 -->
<!-- Title: include/v8&#45;promise.h Pages: 1 -->
<svg width="635pt" height="481pt"
 viewBox="0.00 0.00 635.00 480.50" xmlns="http://www.w3.org/2000/svg" xmlns:xlink="http://www.w3.org/1999/xlink">
<g id="graph0" class="graph" transform="scale(1 1) rotate(0) translate(4 476.5)">
<title>include/v8&#45;promise.h</title>
<!-- Node1 -->
<g id="node1" class="node">
<title>Node1</title>
<g id="a_node1"><a xlink:title=" ">
<polygon fill="#999999" stroke="#666666" points="244.62,-472.5 139.38,-472.5 139.38,-453.25 244.62,-453.25 244.62,-472.5"/>
<text text-anchor="middle" x="192" y="-459" font-family="Helvetica,sans-Serif" font-size="10.00">include/v8&#45;promise.h</text>
</a>
</g>
</g>
<!-- Node2 -->
<g id="node2" class="node">
<title>Node2</title>
<g id="a_node2"><a xlink:href="v8-callbacks_8h.html" target="_top" xlink:title=" ">
<polygon fill="white" stroke="#666666" points="248,-417.25 136,-417.25 136,-398 248,-398 248,-417.25"/>
<text text-anchor="middle" x="192" y="-403.75" font-family="Helvetica,sans-Serif" font-size="10.00">include/v8&#45;callbacks.h</text>
</a>
</g>
</g>
<!-- Node1&#45;&gt;Node2 -->
<g id="edge1" class="edge">
<title>Node1&#45;&gt;Node2</title>
<path fill="none" stroke="#63b8ff" d="M192,-442.21C192,-433.77 192,-424.33 192,-417.61"/>
<polygon fill="#63b8ff" stroke="#63b8ff" points="188.5,-442.08 192,-452.08 195.5,-442.08 188.5,-442.08"/>
</g>
<!-- Node4 -->
<g id="node4" class="node">
<title>Node4</title>
<g id="a_node4"><a xlink:href="v8_8h.html" target="_top" xlink:title=" ">
<polygon fill="white" stroke="#666666" points="286.88,-19.25 219.12,-19.25 219.12,0 286.88,0 286.88,-19.25"/>
<text text-anchor="middle" x="253" y="-5.75" font-family="Helvetica,sans-Serif" font-size="10.00">include/v8.h</text>
</a>
</g>
</g>
<!-- Node1&#45;&gt;Node4 -->
<g id="edge25" class="edge">
<title>Node1&#45;&gt;Node4</title>
<path fill="none" stroke="#63b8ff" d="M128.45,-452.8C72.54,-440.8 0,-413.62 0,-353.38 0,-353.38 0,-353.38 0,-124.75 0,-29.82 149.82,-13.41 218.88,-10.89"/>
<polygon fill="#63b8ff" stroke="#63b8ff" points="127.53,-456.38 138.03,-454.93 128.92,-449.52 127.53,-456.38"/>
</g>
<!-- Node14 -->
<g id="node14" class="node">
<title>Node14</title>
<g id="a_node14"><a xlink:href="v8-statistics_8h.html" target="_top" xlink:title=" ">
<polygon fill="white" stroke="#666666" points="376.25,-306.75 265.75,-306.75 265.75,-287.5 376.25,-287.5 376.25,-306.75"/>
<text text-anchor="middle" x="321" y="-293.25" font-family="Helvetica,sans-Serif" font-size="10.00">include/v8&#45;statistics.h</text>
</a>
</g>
</g>
<!-- Node1&#45;&gt;Node14 -->
<g id="edge22" class="edge">
<title>Node1&#45;&gt;Node14</title>
<path fill="none" stroke="#63b8ff" d="M218.92,-447.42C231.58,-439.68 246.22,-429.27 257,-417.25 288.66,-381.95 310.21,-328.19 317.88,-307.08"/>
<polygon fill="#63b8ff" stroke="#63b8ff" points="217.59,-444.73 210.72,-452.8 221.12,-450.77 217.59,-444.73"/>
</g>
<!-- Node3 -->
<g id="node3" class="node">
<title>Node3</title>
<g id="a_node3"><a xlink:href="v8-initialization_8h.html" target="_top" xlink:title=" ">
<polygon fill="white" stroke="#666666" points="249.5,-196.25 128.5,-196.25 128.5,-177 249.5,-177 249.5,-196.25"/>
<text text-anchor="middle" x="189" y="-182.75" font-family="Helvetica,sans-Serif" font-size="10.00">include/v8&#45;initialization.h</text>
</a>
</g>
</g>
<!-- Node2&#45;&gt;Node3 -->
<g id="edge2" class="edge">
<title>Node2&#45;&gt;Node3</title>
<path fill="none" stroke="#63b8ff" d="M191.73,-386.95C191.1,-341.09 189.56,-228.54 189.12,-196.35"/>
<polygon fill="#63b8ff" stroke="#63b8ff" points="188.24,-386.82 191.88,-396.77 195.24,-386.72 188.24,-386.82"/>
</g>
<!-- Node5 -->
<g id="node5" class="node">
<title>Node5</title>
<g id="a_node5"><a xlink:href="v8-isolate_8h.html" target="_top" xlink:title=" ">
<polygon fill="white" stroke="#666666" points="370.62,-251.5 271.38,-251.5 271.38,-232.25 370.62,-232.25 370.62,-251.5"/>
<text text-anchor="middle" x="321" y="-238" font-family="Helvetica,sans-Serif" font-size="10.00">include/v8&#45;isolate.h</text>
</a>
</g>
</g>
<!-- Node2&#45;&gt;Node5 -->
<g id="edge4" class="edge">
<title>Node2&#45;&gt;Node5</title>
<path fill="none" stroke="#63b8ff" d="M199.11,-387.69C209.17,-362.68 229.46,-318.23 257,-287.5 270.47,-272.47 289.94,-259.82 303.86,-251.87"/>
<polygon fill="#63b8ff" stroke="#63b8ff" points="195.58,-386.1 195.22,-396.69 202.11,-388.64 195.58,-386.1"/>
</g>
<!-- Node12 -->
<g id="node12" class="node">
<title>Node12</title>
<g id="a_node12"><a xlink:href="v8-script_8h.html" target="_top" xlink:title=" ">
<polygon fill="white" stroke="#666666" points="162.38,-362 67.62,-362 67.62,-342.75 162.38,-342.75 162.38,-362"/>
<text text-anchor="middle" x="115" y="-348.5" font-family="Helvetica,sans-Serif" font-size="10.00">include/v8&#45;script.h</text>
</a>
</g>
</g>
<!-- Node2&#45;&gt;Node12 -->
<g id="edge17" class="edge">
<title>Node2&#45;&gt;Node12</title>
<path fill="none" stroke="#63b8ff" d="M170.21,-391.55C156.64,-382.17 139.65,-370.42 128.13,-362.45"/>
<polygon fill="#63b8ff" stroke="#63b8ff" points="167.72,-394.78 177.94,-397.59 171.7,-389.03 167.72,-394.78"/>
</g>
<!-- Node3&#45;&gt;Node4 -->
<g id="edge3" class="edge">
<title>Node3&#45;&gt;Node4</title>
<path fill="none" stroke="#63b8ff" d="M171.77,-169.02C147.06,-143.14 107.23,-92.32 133,-55.25 152.16,-27.69 190.46,-17.12 218.67,-13.08"/>
<polygon fill="#63b8ff" stroke="#63b8ff" points="168.94,-171.13 178.46,-175.78 173.91,-166.21 168.94,-171.13"/>
</g>
<!-- Node5&#45;&gt;Node3 -->
<g id="edge5" class="edge">
<title>Node5&#45;&gt;Node3</title>
<path fill="none" stroke="#63b8ff" d="M288.57,-227.79C264.64,-218.14 232.68,-205.25 211.5,-196.7"/>
<polygon fill="#63b8ff" stroke="#63b8ff" points="287.02,-231.35 297.61,-231.84 289.64,-224.85 287.02,-231.35"/>
</g>
<!-- Node5&#45;&gt;Node4 -->
<g id="edge16" class="edge">
<title>Node5&#45;&gt;Node4</title>
<path fill="none" stroke="#63b8ff" d="M351.9,-226.72C364.64,-219.37 378.4,-209.19 387,-196.25 421.87,-143.76 439.63,-105.8 402,-55.25 375.72,-19.94 322.5,-11.51 287.3,-10.04"/>
<polygon fill="#63b8ff" stroke="#63b8ff" points="350.61,-223.97 343.46,-231.78 353.92,-230.14 350.61,-223.97"/>
</g>
<!-- Node6 -->
<g id="node6" class="node">
<title>Node6</title>
<g id="a_node6"><a xlink:href="v8-inspector_8h.html" target="_top" xlink:title=" ">
<polygon fill="white" stroke="#666666" points="599.25,-196.25 488.75,-196.25 488.75,-177 599.25,-177 599.25,-196.25"/>
<text text-anchor="middle" x="544" y="-182.75" font-family="Helvetica,sans-Serif" font-size="10.00">include/v8&#45;inspector.h</text>
</a>
</g>
</g>
<!-- Node5&#45;&gt;Node6 -->
<g id="edge6" class="edge">
<title>Node5&#45;&gt;Node6</title>
<path fill="none" stroke="#63b8ff" d="M369.64,-229.26C410.63,-219.47 468.45,-205.67 506.08,-196.68"/>
<polygon fill="#63b8ff" stroke="#63b8ff" points="369,-226.05 360.08,-231.78 370.62,-232.86 369,-226.05"/>
</g>
<!-- Node8 -->
<g id="node8" class="node">
<title>Node8</title>
<g id="a_node8"><a xlink:href="v8-snapshot_8h.html" target="_top" xlink:title=" ">
<polygon fill="white" stroke="#666666" points="378.25,-196.25 267.75,-196.25 267.75,-177 378.25,-177 378.25,-196.25"/>
<text text-anchor="middle" x="323" y="-182.75" font-family="Helvetica,sans-Serif" font-size="10.00">include/v8&#45;snapshot.h</text>
</a>
</g>
</g>
<!-- Node5&#45;&gt;Node8 -->
<g id="edge8" class="edge">
<title>Node5&#45;&gt;Node8</title>
<path fill="none" stroke="#63b8ff" d="M321.74,-221.21C322.06,-212.77 322.41,-203.33 322.66,-196.61"/>
<polygon fill="#63b8ff" stroke="#63b8ff" points="318.21,-220.96 321.33,-231.08 325.2,-221.22 318.21,-220.96"/>
</g>
<!-- Node7 -->
<g id="node7" class="node">
<title>Node7</title>
<g id="a_node7"><a xlink:href="v8-inspector-protocol_8h.html" target="_top" xlink:title=" ">
<polygon fill="white" stroke="#666666" points="595.5,-141 492.5,-141 492.5,-110.5 595.5,-110.5 595.5,-141"/>
<text text-anchor="start" x="500.5" y="-127.5" font-family="Helvetica,sans-Serif" font-size="10.00">include/v8&#45;inspector</text>
<text text-anchor="middle" x="544" y="-116.25" font-family="Helvetica,sans-Serif" font-size="10.00">&#45;protocol.h</text>
</a>
</g>
</g>
<!-- Node6&#45;&gt;Node7 -->
<g id="edge7" class="edge">
<title>Node6&#45;&gt;Node7</title>
<path fill="none" stroke="#63b8ff" d="M544,-165.7C544,-157.7 544,-148.65 544,-141.28"/>
<polygon fill="#63b8ff" stroke="#63b8ff" points="540.5,-165.68 544,-175.68 547.5,-165.68 540.5,-165.68"/>
</g>
<!-- Node8&#45;&gt;Node4 -->
<g id="edge15" class="edge">
<title>Node8&#45;&gt;Node4</title>
<path fill="none" stroke="#63b8ff" d="M348.66,-170.73C359.23,-163.21 370.51,-153.1 377,-141 395.08,-107.31 406.26,-86.34 384,-55.25 362.18,-24.77 318.31,-14.87 287.36,-11.78"/>
<polygon fill="#63b8ff" stroke="#63b8ff" points="347.11,-168.22 340.69,-176.65 350.96,-174.06 347.11,-168.22"/>
</g>
<!-- Node9 -->
<g id="node9" class="node">
<title>Node9</title>
<g id="a_node9"><a xlink:href="v8-context_8h.html" target="_top" xlink:title=" ">
<polygon fill="white" stroke="#666666" points="368.12,-135.38 265.88,-135.38 265.88,-116.12 368.12,-116.12 368.12,-135.38"/>
<text text-anchor="middle" x="317" y="-121.88" font-family="Helvetica,sans-Serif" font-size="10.00">include/v8&#45;context.h</text>
</a>
</g>
</g>
<!-- Node8&#45;&gt;Node9 -->
<g id="edge9" class="edge">
<title>Node8&#45;&gt;Node9</title>
<path fill="none" stroke="#63b8ff" d="M320.99,-165.87C319.95,-155.68 318.73,-143.76 317.92,-135.78"/>
<polygon fill="#63b8ff" stroke="#63b8ff" points="317.59,-166.09 322.09,-175.68 324.56,-165.38 317.59,-166.09"/>
</g>
<!-- Node9&#45;&gt;Node4 -->
<g id="edge14" class="edge">
<title>Node9&#45;&gt;Node4</title>
<path fill="none" stroke="#63b8ff" d="M341.1,-109.45C359.97,-95.51 381.01,-74.25 368,-55.25 350.03,-29.01 314.22,-18.2 287.3,-13.74"/>
<polygon fill="#63b8ff" stroke="#63b8ff" points="339.38,-107.08 333.17,-115.67 343.38,-112.83 339.38,-107.08"/>
</g>
<!-- Node10 -->
<g id="node10" class="node">
<title>Node10</title>
<g id="a_node10"><a xlink:href="v8-function_8h.html" target="_top" xlink:title=" ">
<polygon fill="white" stroke="#666666" points="247.62,-74.5 142.38,-74.5 142.38,-55.25 247.62,-55.25 247.62,-74.5"/>
<text text-anchor="middle" x="195" y="-61" font-family="Helvetica,sans-Serif" font-size="10.00">include/v8&#45;function.h</text>
</a>
</g>
</g>
<!-- Node9&#45;&gt;Node10 -->
<g id="edge10" class="edge">
<title>Node9&#45;&gt;Node10</title>
<path fill="none" stroke="#63b8ff" d="M288.6,-111.04C265.5,-99.9 233.57,-84.49 213.62,-74.86"/>
<polygon fill="#63b8ff" stroke="#63b8ff" points="286.68,-114.49 297.2,-115.68 289.72,-108.18 286.68,-114.49"/>
</g>
<!-- Node11 -->
<g id="node11" class="node">
<title>Node11</title>
<g id="a_node11"><a xlink:href="v8-proxy_8h.html" target="_top" xlink:title=" ">
<polygon fill="white" stroke="#666666" points="358.62,-74.5 265.38,-74.5 265.38,-55.25 358.62,-55.25 358.62,-74.5"/>
<text text-anchor="middle" x="312" y="-61" font-family="Helvetica,sans-Serif" font-size="10.00">include/v8&#45;proxy.h</text>
</a>
</g>
</g>
<!-- Node9&#45;&gt;Node11 -->
<g id="edge12" class="edge">
<title>Node9&#45;&gt;Node11</title>
<path fill="none" stroke="#63b8ff" d="M315.32,-104.99C314.46,-94.81 313.44,-82.88 312.77,-74.9"/>
<polygon fill="#63b8ff" stroke="#63b8ff" points="311.91,-105.14 316.24,-114.81 318.88,-104.55 311.91,-105.14"/>
</g>
<!-- Node10&#45;&gt;Node4 -->
<g id="edge11" class="edge">
<title>Node10&#45;&gt;Node4</title>
<path fill="none" stroke="#63b8ff" d="M212.66,-47.66C222.73,-38.42 234.97,-27.18 243.31,-19.52"/>
<polygon fill="#63b8ff" stroke="#63b8ff" points="210.84,-44.5 205.84,-53.84 215.57,-49.66 210.84,-44.5"/>
</g>
<!-- Node11&#45;&gt;Node4 -->
<g id="edge13" class="edge">
<title>Node11&#45;&gt;Node4</title>
<path fill="none" stroke="#63b8ff" d="M294.04,-47.66C283.79,-38.42 271.34,-27.18 262.86,-19.52"/>
<polygon fill="#63b8ff" stroke="#63b8ff" points="291.22,-49.74 300.99,-53.84 295.91,-44.54 291.22,-49.74"/>
</g>
<!-- Node12&#45;&gt;Node4 -->
<g id="edge21" class="edge">
<title>Node12&#45;&gt;Node4</title>
<path fill="none" stroke="#63b8ff" d="M89.08,-336.6C77.79,-328.99 65.26,-318.78 57,-306.75 40.23,-282.34 38,-272.49 38,-242.88 38,-242.88 38,-242.88 38,-124.75 38,-43.82 158.31,-20.11 218.93,-13.3"/>
<polygon fill="#63b8ff" stroke="#63b8ff" points="86.84,-339.96 97.16,-342.37 90.59,-334.05 86.84,-339.96"/>
</g>
<!-- Node13 -->
<g id="node13" class="node">
<title>Node13</title>
<g id="a_node13"><a xlink:href="v8-debug_8h.html" target="_top" xlink:title=" ">
<polygon fill="white" stroke="#666666" points="163.5,-306.75 66.5,-306.75 66.5,-287.5 163.5,-287.5 163.5,-306.75"/>
<text text-anchor="middle" x="115" y="-293.25" font-family="Helvetica,sans-Serif" font-size="10.00">include/v8&#45;debug.h</text>
</a>
</g>
</g>
<!-- Node12&#45;&gt;Node13 -->
<g id="edge18" class="edge">
<title>Node12&#45;&gt;Node13</title>
<path fill="none" stroke="#63b8ff" d="M115,-331.71C115,-323.27 115,-313.83 115,-307.11"/>
<polygon fill="#63b8ff" stroke="#63b8ff" points="111.5,-331.58 115,-341.58 118.5,-331.58 111.5,-331.58"/>
</g>
<!-- Node13&#45;&gt;Node4 -->
<g id="edge20" class="edge">
<title>Node13&#45;&gt;Node4</title>
<path fill="none" stroke="#63b8ff" d="M104.1,-277.95C92.56,-256.96 76,-221.02 76,-187.62 76,-187.62 76,-187.62 76,-124.75 76,-57.47 167.44,-27.95 218.87,-16.66"/>
<polygon fill="#63b8ff" stroke="#63b8ff" points="101.4,-279.29 109.41,-286.23 107.48,-275.81 101.4,-279.29"/>
</g>
<!-- Node13&#45;&gt;Node5 -->
<g id="edge19" class="edge">
<title>Node13&#45;&gt;Node5</title>
<path fill="none" stroke="#63b8ff" d="M160.18,-284.45C197.99,-274.67 251.2,-260.92 285.88,-251.95"/>
<polygon fill="#63b8ff" stroke="#63b8ff" points="159.75,-281.2 150.95,-287.09 161.5,-287.98 159.75,-281.2"/>
</g>
<!-- Node14&#45;&gt;Node4 -->
<g id="edge24" class="edge">
<title>Node14&#45;&gt;Node4</title>
<path fill="none" stroke="#63b8ff" d="M387.07,-286.33C477.04,-271.1 627,-238.13 627,-187.62 627,-187.62 627,-187.62 627,-124.75 627,-54.06 379.51,-22.86 287.18,-13.68"/>
<polygon fill="#63b8ff" stroke="#63b8ff" points="386.71,-283.01 377.41,-288.1 387.85,-289.91 386.71,-283.01"/>
</g>
<!-- Node14&#45;&gt;Node5 -->
<g id="edge23" class="edge">
<title>Node14&#45;&gt;Node5</title>
<path fill="none" stroke="#63b8ff" d="M321,-276.46C321,-268.02 321,-258.58 321,-251.86"/>
<polygon fill="#63b8ff" stroke="#63b8ff" points="317.5,-276.33 321,-286.33 324.5,-276.33 317.5,-276.33"/>
</g>
</g>
</svg>
