<?xml version="1.0" encoding="UTF-8" standalone="no"?>
<!DOCTYPE svg PUBLIC "-//W3C//DTD SVG 1.1//EN"
 "http://www.w3.org/Graphics/SVG/1.1/DTD/svg11.dtd">
<!-- Generated by graphviz version 8.0.5 (20230430.1635)
 -->
<!-- Title: include/v8&#45;persistent&#45;handle.h Pages: 1 -->
<svg width="543pt" height="260pt"
 viewBox="0.00 0.00 543.00 259.50" xmlns="http://www.w3.org/2000/svg" xmlns:xlink="http://www.w3.org/1999/xlink">
<g id="graph0" class="graph" transform="scale(1 1) rotate(0) translate(4 255.5)">
<title>include/v8&#45;persistent&#45;handle.h</title>
<!-- Node1 -->
<g id="node1" class="node">
<title>Node1</title>
<g id="a_node1"><a xlink:title=" ">
<polygon fill="#999999" stroke="#666666" points="388.25,-251.5 282.25,-251.5 282.25,-221 388.25,-221 388.25,-251.5"/>
<text text-anchor="start" x="290.25" y="-238" font-family="Helvetica,sans-Serif" font-size="10.00">include/v8&#45;persistent</text>
<text text-anchor="middle" x="335.25" y="-226.75" font-family="Helvetica,sans-Serif" font-size="10.00">&#45;handle.h</text>
</a>
</g>
</g>
<!-- Node2 -->
<g id="node2" class="node">
<title>Node2</title>
<g id="a_node2"><a xlink:href="v8-internal_8h.html" target="_top" xlink:title=" ">
<polygon fill="white" stroke="#666666" points="277.5,-74.5 209,-74.5 209,-55.25 277.5,-55.25 277.5,-74.5"/>
<text text-anchor="middle" x="243.25" y="-61" font-family="Helvetica,sans-Serif" font-size="10.00">v8&#45;internal.h</text>
</a>
</g>
</g>
<!-- Node1&#45;&gt;Node2 -->
<g id="edge1" class="edge">
<title>Node1&#45;&gt;Node2</title>
<path fill="none" stroke="#63b8ff" d="M333.57,-220.63C330.18,-196.06 320.73,-145.73 297.25,-110.5 289.42,-98.76 277.6,-88.5 267.01,-80.78"/>
<polygon fill="#63b8ff" stroke="#63b8ff" points="269.38,-77.47 259.15,-74.68 265.41,-83.24 269.38,-77.47"/>
</g>
<!-- Node10 -->
<g id="node10" class="node">
<title>Node10</title>
<g id="a_node10"><a xlink:href="v8config_8h.html" target="_top" xlink:title=" ">
<polygon fill="white" stroke="#666666" points="535,-19.25 475.5,-19.25 475.5,0 535,0 535,-19.25"/>
<text text-anchor="middle" x="505.25" y="-5.75" font-family="Helvetica,sans-Serif" font-size="10.00">v8config.h</text>
</a>
</g>
</g>
<!-- Node1&#45;&gt;Node10 -->
<g id="edge19" class="edge">
<title>Node1&#45;&gt;Node10</title>
<path fill="none" stroke="#63b8ff" d="M346.54,-220.69C368.3,-192.57 417.54,-128.75 458.25,-74.5 469.97,-58.88 483.13,-40.96 492.54,-28.08"/>
<polygon fill="#63b8ff" stroke="#63b8ff" points="495.85,-30.48 498.92,-20.34 490.2,-26.36 495.85,-30.48"/>
</g>
<!-- Node11 -->
<g id="node11" class="node">
<title>Node11</title>
<g id="a_node11"><a xlink:href="v8-local-handle_8h.html" target="_top" xlink:title=" ">
<polygon fill="white" stroke="#666666" points="195.62,-185 106.88,-185 106.88,-165.75 195.62,-165.75 195.62,-185"/>
<text text-anchor="middle" x="151.25" y="-171.5" font-family="Helvetica,sans-Serif" font-size="10.00">v8&#45;local&#45;handle.h</text>
</a>
</g>
</g>
<!-- Node1&#45;&gt;Node11 -->
<g id="edge10" class="edge">
<title>Node1&#45;&gt;Node11</title>
<path fill="none" stroke="#63b8ff" d="M289.29,-220.55C258.67,-210.75 218.88,-198.02 189.89,-188.74"/>
<polygon fill="#63b8ff" stroke="#63b8ff" points="191.33,-185.2 180.74,-185.49 189.2,-191.87 191.33,-185.2"/>
</g>
<!-- Node14 -->
<g id="node14" class="node">
<title>Node14</title>
<g id="a_node14"><a xlink:href="v8-weak-callback-info_8h.html" target="_top" xlink:title=" ">
<polygon fill="white" stroke="#666666" points="449.25,-74.5 331.25,-74.5 331.25,-55.25 449.25,-55.25 449.25,-74.5"/>
<text text-anchor="middle" x="390.25" y="-61" font-family="Helvetica,sans-Serif" font-size="10.00">v8&#45;weak&#45;callback&#45;info.h</text>
</a>
</g>
</g>
<!-- Node1&#45;&gt;Node14 -->
<g id="edge17" class="edge">
<title>Node1&#45;&gt;Node14</title>
<path fill="none" stroke="#63b8ff" d="M340.03,-220.52C349.99,-189.86 372.93,-119.22 384.02,-85.06"/>
<polygon fill="#63b8ff" stroke="#63b8ff" points="387.53,-86.58 387.29,-75.99 380.87,-84.42 387.53,-86.58"/>
</g>
<!-- Node3 -->
<g id="node3" class="node">
<title>Node3</title>
<g id="a_node3"><a xlink:title=" ">
<polygon fill="#e0e0e0" stroke="#999999" points="50.5,-19.25 0,-19.25 0,0 50.5,0 50.5,-19.25"/>
<text text-anchor="middle" x="25.25" y="-5.75" font-family="Helvetica,sans-Serif" font-size="10.00">stddef.h</text>
</a>
</g>
</g>
<!-- Node2&#45;&gt;Node3 -->
<g id="edge2" class="edge">
<title>Node2&#45;&gt;Node3</title>
<path fill="none" stroke="#63b8ff" d="M208.63,-55.59C173.8,-47.24 118.25,-33.84 61.47,-19.78"/>
<polygon fill="#63b8ff" stroke="#63b8ff" points="62.41,-16.16 51.86,-17.15 60.73,-22.96 62.41,-16.16"/>
</g>
<!-- Node4 -->
<g id="node4" class="node">
<title>Node4</title>
<g id="a_node4"><a xlink:title=" ">
<polygon fill="#e0e0e0" stroke="#999999" points="391,-19.25 343.5,-19.25 343.5,0 391,0 391,-19.25"/>
<text text-anchor="middle" x="367.25" y="-5.75" font-family="Helvetica,sans-Serif" font-size="10.00">stdint.h</text>
</a>
</g>
</g>
<!-- Node2&#45;&gt;Node4 -->
<g id="edge3" class="edge">
<title>Node2&#45;&gt;Node4</title>
<path fill="none" stroke="#63b8ff" d="M264.28,-54.84C283.97,-46.39 313.63,-33.65 336.06,-24.02"/>
<polygon fill="#63b8ff" stroke="#63b8ff" points="337.3,-26.86 345.11,-19.7 334.54,-20.43 337.3,-26.86"/>
</g>
<!-- Node5 -->
<g id="node5" class="node">
<title>Node5</title>
<g id="a_node5"><a xlink:title=" ">
<polygon fill="#e0e0e0" stroke="#999999" points="457,-19.25 409.5,-19.25 409.5,0 457,0 457,-19.25"/>
<text text-anchor="middle" x="433.25" y="-5.75" font-family="Helvetica,sans-Serif" font-size="10.00">string.h</text>
</a>
</g>
</g>
<!-- Node2&#45;&gt;Node5 -->
<g id="edge4" class="edge">
<title>Node2&#45;&gt;Node5</title>
<path fill="none" stroke="#63b8ff" d="M275.48,-54.84C309.73,-45.24 363.69,-30.12 398.78,-20.29"/>
<polygon fill="#63b8ff" stroke="#63b8ff" points="399.33,-23.48 408.02,-17.42 397.45,-16.74 399.33,-23.48"/>
</g>
<!-- Node6 -->
<g id="node6" class="node">
<title>Node6</title>
<g id="a_node6"><a xlink:title=" ">
<polygon fill="#e0e0e0" stroke="#999999" points="192.88,-19.25 147.62,-19.25 147.62,0 192.88,0 192.88,-19.25"/>
<text text-anchor="middle" x="170.25" y="-5.75" font-family="Helvetica,sans-Serif" font-size="10.00">atomic</text>
</a>
</g>
</g>
<!-- Node2&#45;&gt;Node6 -->
<g id="edge5" class="edge">
<title>Node2&#45;&gt;Node6</title>
<path fill="none" stroke="#63b8ff" d="M230.87,-54.84C220,-46.91 203.97,-35.22 191.12,-25.85"/>
<polygon fill="#63b8ff" stroke="#63b8ff" points="193.59,-22.59 183.45,-19.52 189.47,-28.25 193.59,-22.59"/>
</g>
<!-- Node7 -->
<g id="node7" class="node">
<title>Node7</title>
<g id="a_node7"><a xlink:title=" ">
<polygon fill="#e0e0e0" stroke="#999999" points="257.25,-19.25 211.25,-19.25 211.25,0 257.25,0 257.25,-19.25"/>
<text text-anchor="middle" x="234.25" y="-5.75" font-family="Helvetica,sans-Serif" font-size="10.00">iterator</text>
</a>
</g>
</g>
<!-- Node2&#45;&gt;Node7 -->
<g id="edge6" class="edge">
<title>Node2&#45;&gt;Node7</title>
<path fill="none" stroke="#63b8ff" d="M241.76,-55.08C240.62,-48.34 239.01,-38.77 237.57,-30.24"/>
<polygon fill="#63b8ff" stroke="#63b8ff" points="240.89,-29.89 235.77,-20.61 233.98,-31.05 240.89,-29.89"/>
</g>
<!-- Node8 -->
<g id="node8" class="node">
<title>Node8</title>
<g id="a_node8"><a xlink:title=" ">
<polygon fill="#e0e0e0" stroke="#999999" points="325.5,-19.25 275,-19.25 275,0 325.5,0 325.5,-19.25"/>
<text text-anchor="middle" x="300.25" y="-5.75" font-family="Helvetica,sans-Serif" font-size="10.00">memory</text>
</a>
</g>
</g>
<!-- Node2&#45;&gt;Node8 -->
<g id="edge7" class="edge">
<title>Node2&#45;&gt;Node8</title>
<path fill="none" stroke="#63b8ff" d="M252.92,-54.84C261.08,-47.22 272.96,-36.12 282.77,-26.95"/>
<polygon fill="#63b8ff" stroke="#63b8ff" points="284.81,-29.91 289.72,-20.52 280.03,-24.79 284.81,-29.91"/>
</g>
<!-- Node9 -->
<g id="node9" class="node">
<title>Node9</title>
<g id="a_node9"><a xlink:title=" ">
<polygon fill="#e0e0e0" stroke="#999999" points="129.75,-19.25 68.75,-19.25 68.75,0 129.75,0 129.75,-19.25"/>
<text text-anchor="middle" x="99.25" y="-5.75" font-family="Helvetica,sans-Serif" font-size="10.00">type_traits</text>
</a>
</g>
</g>
<!-- Node2&#45;&gt;Node9 -->
<g id="edge8" class="edge">
<title>Node2&#45;&gt;Node9</title>
<path fill="none" stroke="#63b8ff" d="M218.82,-54.84C195.55,-46.24 160.27,-33.19 134.06,-23.5"/>
<polygon fill="#63b8ff" stroke="#63b8ff" points="135.39,-19.89 124.8,-19.7 132.96,-26.45 135.39,-19.89"/>
</g>
<!-- Node2&#45;&gt;Node10 -->
<g id="edge9" class="edge">
<title>Node2&#45;&gt;Node10</title>
<path fill="none" stroke="#63b8ff" d="M277.68,-57.21C319.47,-49.07 392.36,-34.71 464.41,-19.61"/>
<polygon fill="#63b8ff" stroke="#63b8ff" points="464.96,-22.85 474.03,-17.37 463.52,-16 464.96,-22.85"/>
</g>
<!-- Node11&#45;&gt;Node2 -->
<g id="edge16" class="edge">
<title>Node11&#45;&gt;Node2</title>
<path fill="none" stroke="#63b8ff" d="M155.31,-165.49C161.49,-152.55 174.14,-128.14 189.25,-110.5 198.68,-99.5 211.02,-89.08 221.53,-81.07"/>
<polygon fill="#63b8ff" stroke="#63b8ff" points="223.19,-83.46 229.17,-74.71 219.04,-77.82 223.19,-83.46"/>
</g>
<!-- Node11&#45;&gt;Node3 -->
<g id="edge11" class="edge">
<title>Node11&#45;&gt;Node3</title>
<path fill="none" stroke="#63b8ff" d="M144.48,-165.57C124.48,-139.58 65.43,-62.84 38.69,-28.09"/>
<polygon fill="#63b8ff" stroke="#63b8ff" points="40.93,-26.26 32.06,-20.47 35.38,-30.53 40.93,-26.26"/>
</g>
<!-- Node11&#45;&gt;Node9 -->
<g id="edge12" class="edge">
<title>Node11&#45;&gt;Node9</title>
<path fill="none" stroke="#63b8ff" d="M148.45,-165.57C140.34,-140.03 116.66,-65.45 105.37,-29.9"/>
<polygon fill="#63b8ff" stroke="#63b8ff" points="108.42,-28.94 102.06,-20.47 101.75,-31.06 108.42,-28.94"/>
</g>
<!-- Node12 -->
<g id="node12" class="node">
<title>Node12</title>
<g id="a_node12"><a xlink:title=" ">
<polygon fill="#e0e0e0" stroke="#999999" points="65.75,-129.75 22.75,-129.75 22.75,-110.5 65.75,-110.5 65.75,-129.75"/>
<text text-anchor="middle" x="44.25" y="-116.25" font-family="Helvetica,sans-Serif" font-size="10.00">vector</text>
</a>
</g>
</g>
<!-- Node11&#45;&gt;Node12 -->
<g id="edge13" class="edge">
<title>Node11&#45;&gt;Node12</title>
<path fill="none" stroke="#63b8ff" d="M133.1,-165.34C116.42,-157.04 91.45,-144.61 72.22,-135.04"/>
<polygon fill="#63b8ff" stroke="#63b8ff" points="74,-131.52 63.49,-130.2 70.88,-137.79 74,-131.52"/>
</g>
<!-- Node13 -->
<g id="node13" class="node">
<title>Node13</title>
<g id="a_node13"><a xlink:href="v8-handle-base_8h.html" target="_top" xlink:title=" ">
<polygon fill="white" stroke="#666666" points="288,-129.75 198.5,-129.75 198.5,-110.5 288,-110.5 288,-129.75"/>
<text text-anchor="middle" x="243.25" y="-116.25" font-family="Helvetica,sans-Serif" font-size="10.00">v8&#45;handle&#45;base.h</text>
</a>
</g>
</g>
<!-- Node11&#45;&gt;Node13 -->
<g id="edge14" class="edge">
<title>Node11&#45;&gt;Node13</title>
<path fill="none" stroke="#63b8ff" d="M166.86,-165.34C180.87,-157.23 201.68,-145.18 218.05,-135.71"/>
<polygon fill="#63b8ff" stroke="#63b8ff" points="219.67,-138.24 226.57,-130.2 216.16,-132.18 219.67,-138.24"/>
</g>
<!-- Node13&#45;&gt;Node2 -->
<g id="edge15" class="edge">
<title>Node13&#45;&gt;Node2</title>
<path fill="none" stroke="#63b8ff" d="M243.25,-110.33C243.25,-103.67 243.25,-94.24 243.25,-85.78"/>
<polygon fill="#63b8ff" stroke="#63b8ff" points="246.75,-85.86 243.25,-75.86 239.75,-85.86 246.75,-85.86"/>
</g>
<!-- Node14&#45;&gt;Node10 -->
<g id="edge18" class="edge">
<title>Node14&#45;&gt;Node10</title>
<path fill="none" stroke="#63b8ff" d="M409.76,-54.84C427.85,-46.47 455.02,-33.88 475.76,-24.28"/>
<polygon fill="#63b8ff" stroke="#63b8ff" points="477.04,-27.08 484.65,-19.7 474.1,-20.73 477.04,-27.08"/>
</g>
</g>
</svg>
