<?xml version="1.0" encoding="UTF-8" standalone="no"?>
<!DOCTYPE svg PUBLIC "-//W3C//DTD SVG 1.1//EN"
 "http://www.w3.org/Graphics/SVG/1.1/DTD/svg11.dtd">
<!-- Generated by graphviz version 8.0.5 (20230430.1635)
 -->
<!-- Title: v8::ArrayBufferView Pages: 1 -->
<svg width="650pt" height="434pt"
 viewBox="0.00 0.00 650.00 434.25" xmlns="http://www.w3.org/2000/svg" xmlns:xlink="http://www.w3.org/1999/xlink">
<g id="graph0" class="graph" transform="scale(1 1) rotate(0) translate(4 430.25)">
<title>v8::ArrayBufferView</title>
<!-- Node1 -->
<g id="node1" class="node">
<title>Node1</title>
<g id="a_node1"><a xlink:title=" ">
<polygon fill="#999999" stroke="#666666" points="375.25,-240.25 274.5,-240.25 274.5,-221 375.25,-221 375.25,-240.25"/>
<text text-anchor="middle" x="324.88" y="-226.75" font-family="Helvetica,sans-Serif" font-size="10.00">v8::ArrayBufferView</text>
</a>
</g>
</g>
<!-- Node5 -->
<g id="node5" class="node">
<title>Node5</title>
<g id="a_node5"><a xlink:href="classv8_1_1DataView.html" target="_top" xlink:title=" ">
<polygon fill="white" stroke="#666666" points="487.62,-259.25 414.62,-259.25 414.62,-240 487.62,-240 487.62,-259.25"/>
<text text-anchor="middle" x="451.12" y="-245.75" font-family="Helvetica,sans-Serif" font-size="10.00">v8::DataView</text>
</a>
</g>
</g>
<!-- Node1&#45;&gt;Node5 -->
<g id="edge4" class="edge">
<title>Node1&#45;&gt;Node5</title>
<path fill="none" stroke="#63b8ff" d="M386.45,-239.89C396.03,-241.35 405.67,-242.83 414.44,-244.17"/>
<polygon fill="#63b8ff" stroke="#63b8ff" points="387.11,-236.3 376.7,-238.24 386.05,-243.22 387.11,-236.3"/>
</g>
<!-- Node6 -->
<g id="node6" class="node">
<title>Node6</title>
<g id="a_node6"><a xlink:href="classv8_1_1TypedArray.html" target="_top" xlink:title=" ">
<polygon fill="white" stroke="#666666" points="491,-222.25 411.25,-222.25 411.25,-203 491,-203 491,-222.25"/>
<text text-anchor="middle" x="451.12" y="-208.75" font-family="Helvetica,sans-Serif" font-size="10.00">v8::TypedArray</text>
</a>
</g>
</g>
<!-- Node1&#45;&gt;Node6 -->
<g id="edge5" class="edge">
<title>Node1&#45;&gt;Node6</title>
<path fill="none" stroke="#63b8ff" d="M386.55,-221.83C394.87,-220.63 403.21,-219.42 411,-218.29"/>
<polygon fill="#63b8ff" stroke="#63b8ff" points="386.09,-218.51 376.7,-223.41 387.09,-225.44 386.09,-218.51"/>
</g>
<!-- Node2 -->
<g id="node2" class="node">
<title>Node2</title>
<g id="a_node2"><a xlink:href="classv8_1_1Object.html" target="_top" xlink:title=" ">
<polygon fill="white" stroke="#666666" points="238.5,-240.25 179,-240.25 179,-221 238.5,-221 238.5,-240.25"/>
<text text-anchor="middle" x="208.75" y="-226.75" font-family="Helvetica,sans-Serif" font-size="10.00">v8::Object</text>
</a>
</g>
</g>
<!-- Node2&#45;&gt;Node1 -->
<g id="edge1" class="edge">
<title>Node2&#45;&gt;Node1</title>
<path fill="none" stroke="#63b8ff" d="M249.73,-230.62C257.71,-230.62 266.18,-230.62 274.44,-230.62"/>
<polygon fill="#63b8ff" stroke="#63b8ff" points="249.84,-227.13 239.84,-230.62 249.84,-234.13 249.84,-227.13"/>
</g>
<!-- Node3 -->
<g id="node3" class="node">
<title>Node3</title>
<g id="a_node3"><a xlink:href="classv8_1_1Value.html" target="_top" xlink:title=" ">
<polygon fill="white" stroke="#666666" points="143,-240.25 87.25,-240.25 87.25,-221 143,-221 143,-240.25"/>
<text text-anchor="middle" x="115.12" y="-226.75" font-family="Helvetica,sans-Serif" font-size="10.00">v8::Value</text>
</a>
</g>
</g>
<!-- Node3&#45;&gt;Node2 -->
<g id="edge2" class="edge">
<title>Node3&#45;&gt;Node2</title>
<path fill="none" stroke="#63b8ff" d="M154.04,-230.62C162.28,-230.62 170.88,-230.62 178.71,-230.62"/>
<polygon fill="#63b8ff" stroke="#63b8ff" points="154.12,-227.13 144.12,-230.62 154.12,-234.13 154.12,-227.13"/>
</g>
<!-- Node4 -->
<g id="node4" class="node">
<title>Node4</title>
<g id="a_node4"><a xlink:href="classv8_1_1Data.html" target="_top" xlink:title=" ">
<polygon fill="white" stroke="#666666" points="51.25,-240.25 0,-240.25 0,-221 51.25,-221 51.25,-240.25"/>
<text text-anchor="middle" x="25.62" y="-226.75" font-family="Helvetica,sans-Serif" font-size="10.00">v8::Data</text>
</a>
</g>
</g>
<!-- Node4&#45;&gt;Node3 -->
<g id="edge3" class="edge">
<title>Node4&#45;&gt;Node3</title>
<path fill="none" stroke="#63b8ff" d="M62.26,-230.62C70.43,-230.62 79,-230.62 86.77,-230.62"/>
<polygon fill="#63b8ff" stroke="#63b8ff" points="62.46,-227.13 52.46,-230.62 62.46,-234.13 62.46,-227.13"/>
</g>
<!-- Node7 -->
<g id="node7" class="node">
<title>Node7</title>
<g id="a_node7"><a xlink:href="classv8_1_1BigInt64Array.html" target="_top" xlink:title=" ">
<polygon fill="white" stroke="#666666" points="629.25,-426.25 539.75,-426.25 539.75,-407 629.25,-407 629.25,-426.25"/>
<text text-anchor="middle" x="584.5" y="-412.75" font-family="Helvetica,sans-Serif" font-size="10.00">v8::BigInt64Array</text>
</a>
</g>
</g>
<!-- Node6&#45;&gt;Node7 -->
<g id="edge6" class="edge">
<title>Node6&#45;&gt;Node7</title>
<path fill="none" stroke="#63b8ff" d="M490.28,-229.76C490.52,-230.04 490.76,-230.33 491,-230.62 538.67,-290.28 475.69,-342.07 527,-398.62 530.46,-402.44 534.72,-405.45 539.34,-407.82"/>
<polygon fill="#63b8ff" stroke="#63b8ff" points="492.77,-226.44 482.86,-222.7 488.27,-231.81 492.77,-226.44"/>
</g>
<!-- Node8 -->
<g id="node8" class="node">
<title>Node8</title>
<g id="a_node8"><a xlink:href="classv8_1_1BigUint64Array.html" target="_top" xlink:title=" ">
<polygon fill="white" stroke="#666666" points="632.62,-389.25 536.38,-389.25 536.38,-370 632.62,-370 632.62,-389.25"/>
<text text-anchor="middle" x="584.5" y="-375.75" font-family="Helvetica,sans-Serif" font-size="10.00">v8::BigUint64Array</text>
</a>
</g>
</g>
<!-- Node6&#45;&gt;Node8 -->
<g id="edge7" class="edge">
<title>Node6&#45;&gt;Node8</title>
<path fill="none" stroke="#63b8ff" d="M489.69,-229.17C490.14,-229.64 490.58,-230.13 491,-230.62 530.02,-276.7 485.17,-318.08 527,-361.62 530.07,-364.82 533.7,-367.45 537.62,-369.61"/>
<polygon fill="#63b8ff" stroke="#63b8ff" points="492.33,-226.01 482.3,-222.6 488.01,-231.52 492.33,-226.01"/>
</g>
<!-- Node9 -->
<g id="node9" class="node">
<title>Node9</title>
<g id="a_node9"><a xlink:href="classv8_1_1Float16Array.html" target="_top" xlink:title=" ">
<polygon fill="white" stroke="#666666" points="627.38,-352.25 541.62,-352.25 541.62,-333 627.38,-333 627.38,-352.25"/>
<text text-anchor="middle" x="584.5" y="-338.75" font-family="Helvetica,sans-Serif" font-size="10.00">v8::Float16Array</text>
</a>
</g>
</g>
<!-- Node6&#45;&gt;Node9 -->
<g id="edge8" class="edge">
<title>Node6&#45;&gt;Node9</title>
<path fill="none" stroke="#63b8ff" d="M489.28,-228.9C489.87,-229.46 490.45,-230.03 491,-230.62 521.54,-263.31 494.47,-293.91 527,-324.62 531.12,-328.51 536.07,-331.56 541.32,-333.95"/>
<polygon fill="#63b8ff" stroke="#63b8ff" points="491.78,-225.67 481.63,-222.62 487.66,-231.33 491.78,-225.67"/>
</g>
<!-- Node10 -->
<g id="node10" class="node">
<title>Node10</title>
<g id="a_node10"><a xlink:href="classv8_1_1Float32Array.html" target="_top" xlink:title=" ">
<polygon fill="white" stroke="#666666" points="627.38,-315.25 541.62,-315.25 541.62,-296 627.38,-296 627.38,-315.25"/>
<text text-anchor="middle" x="584.5" y="-301.75" font-family="Helvetica,sans-Serif" font-size="10.00">v8::Float32Array</text>
</a>
</g>
</g>
<!-- Node6&#45;&gt;Node10 -->
<g id="edge9" class="edge">
<title>Node6&#45;&gt;Node10</title>
<path fill="none" stroke="#63b8ff" d="M488.3,-228.42C489.23,-229.13 490.13,-229.86 491,-230.62 513.52,-250.39 503.29,-269.3 527,-287.62 531.32,-290.96 536.27,-293.69 541.41,-295.91"/>
<polygon fill="#63b8ff" stroke="#63b8ff" points="490.62,-225.11 480.29,-222.73 486.87,-231.03 490.62,-225.11"/>
</g>
<!-- Node11 -->
<g id="node11" class="node">
<title>Node11</title>
<g id="a_node11"><a xlink:href="classv8_1_1Float64Array.html" target="_top" xlink:title=" ">
<polygon fill="white" stroke="#666666" points="627.38,-278.25 541.62,-278.25 541.62,-259 627.38,-259 627.38,-278.25"/>
<text text-anchor="middle" x="584.5" y="-264.75" font-family="Helvetica,sans-Serif" font-size="10.00">v8::Float64Array</text>
</a>
</g>
</g>
<!-- Node6&#45;&gt;Node11 -->
<g id="edge10" class="edge">
<title>Node6&#45;&gt;Node11</title>
<path fill="none" stroke="#63b8ff" d="M484.35,-227.32C486.61,-228.42 488.85,-229.53 491,-230.62 507.32,-238.92 510.2,-243.37 527,-250.62 533.71,-253.52 541.04,-256.2 548.14,-258.55"/>
<polygon fill="#63b8ff" stroke="#63b8ff" points="486,-223.76 475.46,-222.63 482.99,-230.08 486,-223.76"/>
</g>
<!-- Node12 -->
<g id="node12" class="node">
<title>Node12</title>
<g id="a_node12"><a xlink:href="classv8_1_1Int16Array.html" target="_top" xlink:title=" ">
<polygon fill="white" stroke="#666666" points="622.12,-241.25 546.88,-241.25 546.88,-222 622.12,-222 622.12,-241.25"/>
<text text-anchor="middle" x="584.5" y="-227.75" font-family="Helvetica,sans-Serif" font-size="10.00">v8::Int16Array</text>
</a>
</g>
</g>
<!-- Node6&#45;&gt;Node12 -->
<g id="edge11" class="edge">
<title>Node6&#45;&gt;Node12</title>
<path fill="none" stroke="#63b8ff" d="M501.77,-219.8C516.65,-221.96 532.71,-224.28 546.62,-226.29"/>
<polygon fill="#63b8ff" stroke="#63b8ff" points="502.58,-216.24 492.19,-218.27 501.58,-223.17 502.58,-216.24"/>
</g>
<!-- Node13 -->
<g id="node13" class="node">
<title>Node13</title>
<g id="a_node13"><a xlink:href="classv8_1_1Int32Array.html" target="_top" xlink:title=" ">
<polygon fill="white" stroke="#666666" points="622.12,-204.25 546.88,-204.25 546.88,-185 622.12,-185 622.12,-204.25"/>
<text text-anchor="middle" x="584.5" y="-190.75" font-family="Helvetica,sans-Serif" font-size="10.00">v8::Int32Array</text>
</a>
</g>
</g>
<!-- Node6&#45;&gt;Node13 -->
<g id="edge12" class="edge">
<title>Node6&#45;&gt;Node13</title>
<path fill="none" stroke="#63b8ff" d="M501.77,-205.82C516.65,-203.78 532.71,-201.58 546.62,-199.68"/>
<polygon fill="#63b8ff" stroke="#63b8ff" points="501.62,-202.45 492.19,-207.27 502.57,-209.38 501.62,-202.45"/>
</g>
<!-- Node14 -->
<g id="node14" class="node">
<title>Node14</title>
<g id="a_node14"><a xlink:href="classv8_1_1Int8Array.html" target="_top" xlink:title=" ">
<polygon fill="white" stroke="#666666" points="619.5,-167.25 549.5,-167.25 549.5,-148 619.5,-148 619.5,-167.25"/>
<text text-anchor="middle" x="584.5" y="-153.75" font-family="Helvetica,sans-Serif" font-size="10.00">v8::Int8Array</text>
</a>
</g>
</g>
<!-- Node6&#45;&gt;Node14 -->
<g id="edge13" class="edge">
<title>Node6&#45;&gt;Node14</title>
<path fill="none" stroke="#63b8ff" d="M480.01,-197.6C493.9,-190.43 511.1,-182.05 527,-175.62 534.06,-172.77 541.77,-170.07 549.15,-167.66"/>
<polygon fill="#63b8ff" stroke="#63b8ff" points="478.78,-194.82 471.54,-202.55 482.02,-201.02 478.78,-194.82"/>
</g>
<!-- Node15 -->
<g id="node15" class="node">
<title>Node15</title>
<g id="a_node15"><a xlink:href="classv8_1_1Uint16Array.html" target="_top" xlink:title=" ">
<polygon fill="white" stroke="#666666" points="625.5,-130.25 543.5,-130.25 543.5,-111 625.5,-111 625.5,-130.25"/>
<text text-anchor="middle" x="584.5" y="-116.75" font-family="Helvetica,sans-Serif" font-size="10.00">v8::Uint16Array</text>
</a>
</g>
</g>
<!-- Node6&#45;&gt;Node15 -->
<g id="edge14" class="edge">
<title>Node6&#45;&gt;Node15</title>
<path fill="none" stroke="#63b8ff" d="M466.28,-194.36C480.11,-177.66 502.59,-153.39 527,-138.62 532.11,-135.53 537.8,-132.92 543.56,-130.73"/>
<polygon fill="#63b8ff" stroke="#63b8ff" points="463.07,-191.76 459.53,-201.74 468.53,-196.15 463.07,-191.76"/>
</g>
<!-- Node16 -->
<g id="node16" class="node">
<title>Node16</title>
<g id="a_node16"><a xlink:href="classv8_1_1Uint32Array.html" target="_top" xlink:title=" ">
<polygon fill="white" stroke="#666666" points="625.5,-93.25 543.5,-93.25 543.5,-74 625.5,-74 625.5,-93.25"/>
<text text-anchor="middle" x="584.5" y="-79.75" font-family="Helvetica,sans-Serif" font-size="10.00">v8::Uint32Array</text>
</a>
</g>
</g>
<!-- Node6&#45;&gt;Node16 -->
<g id="edge15" class="edge">
<title>Node6&#45;&gt;Node16</title>
<path fill="none" stroke="#63b8ff" d="M460.41,-192.94C471.84,-168.12 494.75,-125.78 527,-101.62 531.86,-97.98 537.48,-95.06 543.26,-92.73"/>
<polygon fill="#63b8ff" stroke="#63b8ff" points="456.95,-191.13 456.1,-201.69 463.35,-193.96 456.95,-191.13"/>
</g>
<!-- Node17 -->
<g id="node17" class="node">
<title>Node17</title>
<g id="a_node17"><a xlink:href="classv8_1_1Uint8Array.html" target="_top" xlink:title=" ">
<polygon fill="white" stroke="#666666" points="622.88,-56.25 546.12,-56.25 546.12,-37 622.88,-37 622.88,-56.25"/>
<text text-anchor="middle" x="584.5" y="-42.75" font-family="Helvetica,sans-Serif" font-size="10.00">v8::Uint8Array</text>
</a>
</g>
</g>
<!-- Node6&#45;&gt;Node17 -->
<g id="edge16" class="edge">
<title>Node6&#45;&gt;Node17</title>
<path fill="none" stroke="#63b8ff" d="M456.94,-192.43C465.55,-160.65 486.58,-99.04 527,-64.62 532.41,-60.02 539.01,-56.59 545.76,-54.03"/>
<polygon fill="#63b8ff" stroke="#63b8ff" points="453.4,-191.13 454.32,-201.68 460.18,-192.86 453.4,-191.13"/>
</g>
<!-- Node18 -->
<g id="node18" class="node">
<title>Node18</title>
<g id="a_node18"><a xlink:href="classv8_1_1Uint8ClampedArray.html" target="_top" xlink:title=" ">
<polygon fill="white" stroke="#666666" points="642,-19.25 527,-19.25 527,0 642,0 642,-19.25"/>
<text text-anchor="middle" x="584.5" y="-5.75" font-family="Helvetica,sans-Serif" font-size="10.00">v8::Uint8ClampedArray</text>
</a>
</g>
</g>
<!-- Node6&#45;&gt;Node18 -->
<g id="edge17" class="edge">
<title>Node6&#45;&gt;Node18</title>
<path fill="none" stroke="#63b8ff" d="M454.74,-191.78C460.61,-153.7 478.38,-72.68 527,-27.62 530.4,-24.48 534.35,-21.88 538.55,-19.73"/>
<polygon fill="#63b8ff" stroke="#63b8ff" points="451.15,-191.14 453.23,-201.53 458.08,-192.12 451.15,-191.14"/>
</g>
</g>
</svg>
