<?xml version="1.0" encoding="UTF-8" standalone="no"?>
<!DOCTYPE svg PUBLIC "-//W3C//DTD SVG 1.1//EN"
 "http://www.w3.org/Graphics/SVG/1.1/DTD/svg11.dtd">
<!-- Generated by graphviz version 8.0.5 (20230430.1635)
 -->
<!-- Title: v8::Data Pages: 1 -->
<svg width="774pt" height="933pt"
 viewBox="0.00 0.00 773.75 933.25" xmlns="http://www.w3.org/2000/svg" xmlns:xlink="http://www.w3.org/1999/xlink">
<g id="graph0" class="graph" transform="scale(1 1) rotate(0) translate(4 929.25)">
<title>v8::Data</title>
<!-- Node1 -->
<g id="node1" class="node">
<title>Node1</title>
<g id="a_node1"><a xlink:title=" ">
<polygon fill="#999999" stroke="#666666" points="51.25,-703.25 0,-703.25 0,-684 51.25,-684 51.25,-703.25"/>
<text text-anchor="middle" x="25.62" y="-689.75" font-family="Helvetica,sans-Serif" font-size="10.00">v8::Data</text>
</a>
</g>
</g>
<!-- Node2 -->
<g id="node2" class="node">
<title>Node2</title>
<g id="a_node2"><a xlink:href="classv8_1_1CompileHintsCollector.html" target="_top" xlink:title=" ">
<polygon fill="white" stroke="#666666" points="215,-925.25 87.25,-925.25 87.25,-906 215,-906 215,-925.25"/>
<text text-anchor="middle" x="151.12" y="-911.75" font-family="Helvetica,sans-Serif" font-size="10.00">v8::CompileHintsCollector</text>
</a>
</g>
</g>
<!-- Node1&#45;&gt;Node2 -->
<g id="edge1" class="edge">
<title>Node1&#45;&gt;Node2</title>
<path fill="none" stroke="#63b8ff" d="M26.59,-714.32C27.69,-755.25 36.09,-846.98 87.25,-897.62 90.48,-900.82 94.23,-903.46 98.27,-905.63"/>
<polygon fill="#63b8ff" stroke="#63b8ff" points="30.08,-714.3 26.45,-704.35 23.08,-714.39 30.08,-714.3"/>
</g>
<!-- Node3 -->
<g id="node3" class="node">
<title>Node3</title>
<g id="a_node3"><a xlink:href="classv8_1_1Context.html" target="_top" xlink:title=" ">
<polygon fill="white" stroke="#666666" points="183.12,-888.25 119.12,-888.25 119.12,-869 183.12,-869 183.12,-888.25"/>
<text text-anchor="middle" x="151.12" y="-874.75" font-family="Helvetica,sans-Serif" font-size="10.00">v8::Context</text>
</a>
</g>
</g>
<!-- Node1&#45;&gt;Node3 -->
<g id="edge2" class="edge">
<title>Node1&#45;&gt;Node3</title>
<path fill="none" stroke="#63b8ff" d="M28.22,-714.42C32.05,-749.66 44.88,-821.1 87.25,-860.62 95.8,-868.6 107.65,-873.07 118.76,-875.57"/>
<polygon fill="#63b8ff" stroke="#63b8ff" points="31.62,-714.21 27.21,-704.58 24.65,-714.87 31.62,-714.21"/>
</g>
<!-- Node4 -->
<g id="node4" class="node">
<title>Node4</title>
<g id="a_node4"><a xlink:href="classv8_1_1FixedArray.html" target="_top" xlink:title=" ">
<polygon fill="white" stroke="#666666" points="189.5,-851.25 112.75,-851.25 112.75,-832 189.5,-832 189.5,-851.25"/>
<text text-anchor="middle" x="151.12" y="-837.75" font-family="Helvetica,sans-Serif" font-size="10.00">v8::FixedArray</text>
</a>
</g>
</g>
<!-- Node1&#45;&gt;Node4 -->
<g id="edge3" class="edge">
<title>Node1&#45;&gt;Node4</title>
<path fill="none" stroke="#63b8ff" d="M30.55,-713.84C37.16,-742.48 53.29,-794.63 87.25,-823.62 94.33,-829.67 103.33,-833.69 112.28,-836.36"/>
<polygon fill="#63b8ff" stroke="#63b8ff" points="33.84,-713.5 28.33,-704.45 26.99,-714.96 33.84,-713.5"/>
</g>
<!-- Node5 -->
<g id="node5" class="node">
<title>Node5</title>
<g id="a_node5"><a xlink:href="classv8_1_1Module.html" target="_top" xlink:title=" ">
<polygon fill="white" stroke="#666666" points="182.38,-814.25 119.88,-814.25 119.88,-795 182.38,-795 182.38,-814.25"/>
<text text-anchor="middle" x="151.12" y="-800.75" font-family="Helvetica,sans-Serif" font-size="10.00">v8::Module</text>
</a>
</g>
</g>
<!-- Node1&#45;&gt;Node5 -->
<g id="edge4" class="edge">
<title>Node1&#45;&gt;Node5</title>
<path fill="none" stroke="#63b8ff" d="M34.57,-713.61C44.02,-734.82 61.77,-767.81 87.25,-786.62 96.66,-793.57 108.67,-797.84 119.68,-800.47"/>
<polygon fill="#63b8ff" stroke="#63b8ff" points="37.51,-712.58 30.4,-704.74 31.07,-715.31 37.51,-712.58"/>
</g>
<!-- Node6 -->
<g id="node6" class="node">
<title>Node6</title>
<g id="a_node6"><a xlink:href="classv8_1_1ModuleRequest.html" target="_top" xlink:title=" ">
<polygon fill="white" stroke="#666666" points="200.38,-777.25 101.88,-777.25 101.88,-758 200.38,-758 200.38,-777.25"/>
<text text-anchor="middle" x="151.12" y="-763.75" font-family="Helvetica,sans-Serif" font-size="10.00">v8::ModuleRequest</text>
</a>
</g>
</g>
<!-- Node1&#45;&gt;Node6 -->
<g id="edge5" class="edge">
<title>Node1&#45;&gt;Node6</title>
<path fill="none" stroke="#63b8ff" d="M41.91,-711.64C53.27,-723.96 69.76,-739.79 87.25,-749.62 92.79,-752.74 98.92,-755.36 105.11,-757.54"/>
<polygon fill="#63b8ff" stroke="#63b8ff" points="44.87,-709.57 35.61,-704.42 39.64,-714.22 44.87,-709.57"/>
</g>
<!-- Node7 -->
<g id="node7" class="node">
<title>Node7</title>
<g id="a_node7"><a xlink:href="classv8_1_1PrimitiveArray.html" target="_top" xlink:title=" ">
<polygon fill="white" stroke="#666666" points="197,-740.25 105.25,-740.25 105.25,-721 197,-721 197,-740.25"/>
<text text-anchor="middle" x="151.12" y="-726.75" font-family="Helvetica,sans-Serif" font-size="10.00">v8::PrimitiveArray</text>
</a>
</g>
</g>
<!-- Node1&#45;&gt;Node7 -->
<g id="edge6" class="edge">
<title>Node1&#45;&gt;Node7</title>
<path fill="none" stroke="#63b8ff" d="M62.11,-704.91C70.35,-707.48 79.1,-710.18 87.25,-712.62 96.06,-715.27 105.59,-718.04 114.5,-720.59"/>
<polygon fill="#63b8ff" stroke="#63b8ff" points="63.24,-701.28 52.65,-701.62 61.14,-707.96 63.24,-701.28"/>
</g>
<!-- Node8 -->
<g id="node8" class="node">
<title>Node8</title>
<g id="a_node8"><a xlink:href="classv8_1_1Private.html" target="_top" xlink:title=" ">
<polygon fill="white" stroke="#666666" points="182,-703.25 120.25,-703.25 120.25,-684 182,-684 182,-703.25"/>
<text text-anchor="middle" x="151.12" y="-689.75" font-family="Helvetica,sans-Serif" font-size="10.00">v8::Private</text>
</a>
</g>
</g>
<!-- Node1&#45;&gt;Node8 -->
<g id="edge7" class="edge">
<title>Node1&#45;&gt;Node8</title>
<path fill="none" stroke="#63b8ff" d="M62.42,-693.62C80.65,-693.62 102.57,-693.62 119.93,-693.62"/>
<polygon fill="#63b8ff" stroke="#63b8ff" points="62.62,-690.13 52.62,-693.62 62.62,-697.13 62.62,-690.13"/>
</g>
<!-- Node9 -->
<g id="node9" class="node">
<title>Node9</title>
<g id="a_node9"><a xlink:href="classv8_1_1Script.html" target="_top" xlink:title=" ">
<polygon fill="white" stroke="#666666" points="179.38,-666.25 122.88,-666.25 122.88,-647 179.38,-647 179.38,-666.25"/>
<text text-anchor="middle" x="151.12" y="-652.75" font-family="Helvetica,sans-Serif" font-size="10.00">v8::Script</text>
</a>
</g>
</g>
<!-- Node1&#45;&gt;Node9 -->
<g id="edge8" class="edge">
<title>Node1&#45;&gt;Node9</title>
<path fill="none" stroke="#63b8ff" d="M62.11,-682.34C70.35,-679.77 79.1,-677.07 87.25,-674.62 98.78,-671.17 111.54,-667.49 122.54,-664.36"/>
<polygon fill="#63b8ff" stroke="#63b8ff" points="61.14,-679.29 52.65,-685.63 63.24,-685.97 61.14,-679.29"/>
</g>
<!-- Node10 -->
<g id="node10" class="node">
<title>Node10</title>
<g id="a_node10"><a xlink:href="classv8_1_1Signature.html" target="_top" xlink:title=" ">
<polygon fill="white" stroke="#666666" points="187.25,-629.25 115,-629.25 115,-610 187.25,-610 187.25,-629.25"/>
<text text-anchor="middle" x="151.12" y="-615.75" font-family="Helvetica,sans-Serif" font-size="10.00">v8::Signature</text>
</a>
</g>
</g>
<!-- Node1&#45;&gt;Node10 -->
<g id="edge9" class="edge">
<title>Node1&#45;&gt;Node10</title>
<path fill="none" stroke="#63b8ff" d="M41.91,-675.61C53.27,-663.29 69.76,-647.46 87.25,-637.62 95.66,-632.89 105.42,-629.32 114.7,-626.66"/>
<polygon fill="#63b8ff" stroke="#63b8ff" points="39.64,-673.03 35.61,-682.83 44.87,-677.68 39.64,-673.03"/>
</g>
<!-- Node11 -->
<g id="node11" class="node">
<title>Node11</title>
<g id="a_node11"><a xlink:href="classv8_1_1Template.html" target="_top" xlink:title=" ">
<polygon fill="white" stroke="#666666" points="186.88,-592.25 115.38,-592.25 115.38,-573 186.88,-573 186.88,-592.25"/>
<text text-anchor="middle" x="151.12" y="-578.75" font-family="Helvetica,sans-Serif" font-size="10.00">v8::Template</text>
</a>
</g>
</g>
<!-- Node1&#45;&gt;Node11 -->
<g id="edge10" class="edge">
<title>Node1&#45;&gt;Node11</title>
<path fill="none" stroke="#63b8ff" d="M34.57,-673.64C44.02,-652.43 61.77,-619.44 87.25,-600.62 95.38,-594.62 105.46,-590.62 115.14,-587.95"/>
<polygon fill="#63b8ff" stroke="#63b8ff" points="31.07,-671.94 30.4,-682.51 37.51,-674.67 31.07,-671.94"/>
</g>
<!-- Node14 -->
<g id="node14" class="node">
<title>Node14</title>
<g id="a_node14"><a xlink:href="classv8_1_1UnboundModuleScript.html" target="_top" xlink:title=" ">
<polygon fill="white" stroke="#666666" points="214.62,-555.25 87.62,-555.25 87.62,-536 214.62,-536 214.62,-555.25"/>
<text text-anchor="middle" x="151.12" y="-541.75" font-family="Helvetica,sans-Serif" font-size="10.00">v8::UnboundModuleScript</text>
</a>
</g>
</g>
<!-- Node1&#45;&gt;Node14 -->
<g id="edge13" class="edge">
<title>Node1&#45;&gt;Node14</title>
<path fill="none" stroke="#63b8ff" d="M30.55,-673.41C37.16,-644.77 53.29,-592.62 87.25,-563.62 90.96,-560.46 95.2,-557.84 99.69,-555.69"/>
<polygon fill="#63b8ff" stroke="#63b8ff" points="26.99,-672.29 28.33,-682.8 33.84,-673.75 26.99,-672.29"/>
</g>
<!-- Node15 -->
<g id="node15" class="node">
<title>Node15</title>
<g id="a_node15"><a xlink:href="classv8_1_1UnboundScript.html" target="_top" xlink:title=" ">
<polygon fill="white" stroke="#666666" points="198.88,-518.25 103.38,-518.25 103.38,-499 198.88,-499 198.88,-518.25"/>
<text text-anchor="middle" x="151.12" y="-504.75" font-family="Helvetica,sans-Serif" font-size="10.00">v8::UnboundScript</text>
</a>
</g>
</g>
<!-- Node1&#45;&gt;Node15 -->
<g id="edge14" class="edge">
<title>Node1&#45;&gt;Node15</title>
<path fill="none" stroke="#63b8ff" d="M28.22,-672.83C32.05,-637.59 44.88,-566.15 87.25,-526.62 91.82,-522.37 97.32,-519.1 103.15,-516.61"/>
<polygon fill="#63b8ff" stroke="#63b8ff" points="24.65,-672.38 27.21,-682.67 31.62,-673.04 24.65,-672.38"/>
</g>
<!-- Node16 -->
<g id="node16" class="node">
<title>Node16</title>
<g id="a_node16"><a xlink:href="classv8_1_1Value.html" target="_top" xlink:title=" ">
<polygon fill="white" stroke="#666666" points="179,-481.25 123.25,-481.25 123.25,-462 179,-462 179,-481.25"/>
<text text-anchor="middle" x="151.12" y="-467.75" font-family="Helvetica,sans-Serif" font-size="10.00">v8::Value</text>
</a>
</g>
</g>
<!-- Node1&#45;&gt;Node16 -->
<g id="edge15" class="edge">
<title>Node1&#45;&gt;Node16</title>
<path fill="none" stroke="#63b8ff" d="M26.59,-672.93C27.69,-632 36.09,-540.27 87.25,-489.62 96.69,-480.28 110.64,-475.72 122.99,-473.52"/>
<polygon fill="#63b8ff" stroke="#63b8ff" points="23.08,-672.86 26.45,-682.9 30.08,-672.95 23.08,-672.86"/>
</g>
<!-- Node12 -->
<g id="node12" class="node">
<title>Node12</title>
<g id="a_node12"><a xlink:href="classv8_1_1FunctionTemplate.html" target="_top" xlink:title=" ">
<polygon fill="white" stroke="#666666" points="360,-610.25 251,-610.25 251,-591 360,-591 360,-610.25"/>
<text text-anchor="middle" x="305.5" y="-596.75" font-family="Helvetica,sans-Serif" font-size="10.00">v8::FunctionTemplate</text>
</a>
</g>
</g>
<!-- Node11&#45;&gt;Node12 -->
<g id="edge11" class="edge">
<title>Node11&#45;&gt;Node12</title>
<path fill="none" stroke="#63b8ff" d="M197.64,-588C214.29,-589.97 233.27,-592.21 250.58,-594.26"/>
<polygon fill="#63b8ff" stroke="#63b8ff" points="198.42,-584.45 188.08,-586.75 197.6,-591.4 198.42,-584.45"/>
</g>
<!-- Node13 -->
<g id="node13" class="node">
<title>Node13</title>
<g id="a_node13"><a xlink:href="classv8_1_1ObjectTemplate.html" target="_top" xlink:title=" ">
<polygon fill="white" stroke="#666666" points="355.5,-573.25 255.5,-573.25 255.5,-554 355.5,-554 355.5,-573.25"/>
<text text-anchor="middle" x="305.5" y="-559.75" font-family="Helvetica,sans-Serif" font-size="10.00">v8::ObjectTemplate</text>
</a>
</g>
</g>
<!-- Node11&#45;&gt;Node13 -->
<g id="edge12" class="edge">
<title>Node11&#45;&gt;Node13</title>
<path fill="none" stroke="#63b8ff" d="M197.95,-576.91C216.04,-574.66 236.86,-572.06 255.27,-569.76"/>
<polygon fill="#63b8ff" stroke="#63b8ff" points="197.57,-573.56 188.08,-578.27 198.44,-580.5 197.57,-573.56"/>
</g>
<!-- Node17 -->
<g id="node17" class="node">
<title>Node17</title>
<g id="a_node17"><a xlink:href="classv8_1_1External.html" target="_top" xlink:title=" ">
<polygon fill="white" stroke="#666666" points="338.25,-518.25 272.75,-518.25 272.75,-499 338.25,-499 338.25,-518.25"/>
<text text-anchor="middle" x="305.5" y="-504.75" font-family="Helvetica,sans-Serif" font-size="10.00">v8::External</text>
</a>
</g>
</g>
<!-- Node16&#45;&gt;Node17 -->
<g id="edge16" class="edge">
<title>Node16&#45;&gt;Node17</title>
<path fill="none" stroke="#63b8ff" d="M189.73,-480.76C215.14,-486.93 248.33,-494.99 272.48,-500.85"/>
<polygon fill="#63b8ff" stroke="#63b8ff" points="190.91,-477.2 180.37,-478.24 189.26,-484 190.91,-477.2"/>
</g>
<!-- Node18 -->
<g id="node18" class="node">
<title>Node18</title>
<g id="a_node18"><a xlink:href="classv8_1_1Object.html" target="_top" xlink:title=" ">
<polygon fill="white" stroke="#666666" points="335.25,-481.25 275.75,-481.25 275.75,-462 335.25,-462 335.25,-481.25"/>
<text text-anchor="middle" x="305.5" y="-467.75" font-family="Helvetica,sans-Serif" font-size="10.00">v8::Object</text>
</a>
</g>
</g>
<!-- Node16&#45;&gt;Node18 -->
<g id="edge17" class="edge">
<title>Node16&#45;&gt;Node18</title>
<path fill="none" stroke="#63b8ff" d="M190.13,-471.62C216.54,-471.62 251.2,-471.62 275.42,-471.62"/>
<polygon fill="#63b8ff" stroke="#63b8ff" points="190.37,-468.13 180.37,-471.62 190.37,-475.13 190.37,-468.13"/>
</g>
<!-- Node52 -->
<g id="node42" class="node">
<title>Node52</title>
<g id="a_node42"><a xlink:href="classv8_1_1Primitive.html" target="_top" xlink:title=" ">
<polygon fill="white" stroke="#666666" points="340.12,-111.25 270.88,-111.25 270.88,-92 340.12,-92 340.12,-111.25"/>
<text text-anchor="middle" x="305.5" y="-97.75" font-family="Helvetica,sans-Serif" font-size="10.00">v8::Primitive</text>
</a>
</g>
</g>
<!-- Node16&#45;&gt;Node52 -->
<g id="edge41" class="edge">
<title>Node16&#45;&gt;Node52</title>
<path fill="none" stroke="#63b8ff" d="M160.25,-451.89C188.19,-384.05 279.7,-161.84 300.34,-111.73"/>
<polygon fill="#63b8ff" stroke="#63b8ff" points="156.77,-450.15 156.2,-460.73 163.24,-452.81 156.77,-450.15"/>
</g>
<!-- Node19 -->
<g id="node19" class="node">
<title>Node19</title>
<g id="a_node19"><a xlink:href="classv8_1_1Array.html" target="_top" xlink:title=" ">
<polygon fill="white" stroke="#666666" points="483.62,-833.25 430.12,-833.25 430.12,-814 483.62,-814 483.62,-833.25"/>
<text text-anchor="middle" x="456.88" y="-819.75" font-family="Helvetica,sans-Serif" font-size="10.00">v8::Array</text>
</a>
</g>
</g>
<!-- Node18&#45;&gt;Node19 -->
<g id="edge18" class="edge">
<title>Node18&#45;&gt;Node19</title>
<path fill="none" stroke="#63b8ff" d="M345.73,-478.92C351.2,-481.49 356.23,-484.96 360,-489.62 448.86,-599.55 305.36,-697.16 396,-805.62 404.28,-815.54 417.8,-820.12 429.9,-822.19"/>
<polygon fill="#63b8ff" stroke="#63b8ff" points="347.18,-475.36 336.58,-475.2 344.76,-481.93 347.18,-475.36"/>
</g>
<!-- Node20 -->
<g id="node20" class="node">
<title>Node20</title>
<g id="a_node20"><a xlink:href="classv8_1_1ArrayBuffer.html" target="_top" xlink:title=" ">
<polygon fill="white" stroke="#666666" points="496.38,-796.25 417.38,-796.25 417.38,-777 496.38,-777 496.38,-796.25"/>
<text text-anchor="middle" x="456.88" y="-782.75" font-family="Helvetica,sans-Serif" font-size="10.00">v8::ArrayBuffer</text>
</a>
</g>
</g>
<!-- Node18&#45;&gt;Node20 -->
<g id="edge19" class="edge">
<title>Node18&#45;&gt;Node20</title>
<path fill="none" stroke="#63b8ff" d="M345.67,-478.97C351.14,-481.54 356.19,-484.99 360,-489.62 439.32,-586.27 315.12,-673.28 396,-768.62 401.41,-775 408.98,-779.17 416.92,-781.88"/>
<polygon fill="#63b8ff" stroke="#63b8ff" points="347.11,-475.41 336.52,-475.25 344.7,-481.98 347.11,-475.41"/>
</g>
<!-- Node21 -->
<g id="node21" class="node">
<title>Node21</title>
<g id="a_node21"><a xlink:href="classv8_1_1ArrayBufferView.html" target="_top" xlink:title=" ">
<polygon fill="white" stroke="#666666" points="507.25,-759.25 406.5,-759.25 406.5,-740 507.25,-740 507.25,-759.25"/>
<text text-anchor="middle" x="456.88" y="-745.75" font-family="Helvetica,sans-Serif" font-size="10.00">v8::ArrayBufferView</text>
</a>
</g>
</g>
<!-- Node18&#45;&gt;Node21 -->
<g id="edge20" class="edge">
<title>Node18&#45;&gt;Node21</title>
<path fill="none" stroke="#63b8ff" d="M345.76,-479.11C351.18,-481.66 356.19,-485.07 360,-489.62 429.8,-573.01 324.85,-649.39 396,-731.62 398.91,-734.99 402.43,-737.74 406.28,-739.98"/>
<polygon fill="#63b8ff" stroke="#63b8ff" points="347.31,-475.59 336.72,-475.4 344.88,-482.15 347.31,-475.59"/>
</g>
<!-- Node36 -->
<g id="node26" class="node">
<title>Node36</title>
<g id="a_node26"><a xlink:href="classv8_1_1BigIntObject.html" target="_top" xlink:title=" ">
<polygon fill="white" stroke="#666666" points="499.38,-722.25 414.38,-722.25 414.38,-703 499.38,-703 499.38,-722.25"/>
<text text-anchor="middle" x="456.88" y="-708.75" font-family="Helvetica,sans-Serif" font-size="10.00">v8::BigIntObject</text>
</a>
</g>
</g>
<!-- Node18&#45;&gt;Node36 -->
<g id="edge25" class="edge">
<title>Node18&#45;&gt;Node36</title>
<path fill="none" stroke="#63b8ff" d="M345.65,-479.2C351.09,-481.74 356.13,-485.12 360,-489.62 420.3,-559.78 334.57,-625.46 396,-694.62 400.83,-700.06 407.23,-703.89 414.05,-706.57"/>
<polygon fill="#63b8ff" stroke="#63b8ff" points="347.2,-475.67 336.61,-475.49 344.77,-482.24 347.2,-475.67"/>
</g>
<!-- Node37 -->
<g id="node27" class="node">
<title>Node37</title>
<g id="a_node27"><a xlink:href="classv8_1_1BooleanObject.html" target="_top" xlink:title=" ">
<polygon fill="white" stroke="#666666" points="504.25,-685.25 409.5,-685.25 409.5,-666 504.25,-666 504.25,-685.25"/>
<text text-anchor="middle" x="456.88" y="-671.75" font-family="Helvetica,sans-Serif" font-size="10.00">v8::BooleanObject</text>
</a>
</g>
</g>
<!-- Node18&#45;&gt;Node37 -->
<g id="edge26" class="edge">
<title>Node18&#45;&gt;Node37</title>
<path fill="none" stroke="#63b8ff" d="M345.68,-479.41C351.07,-481.92 356.08,-485.24 360,-489.62 410.85,-546.6 344.23,-601.49 396,-657.62 399.68,-661.61 404.21,-664.73 409.11,-667.17"/>
<polygon fill="#63b8ff" stroke="#63b8ff" points="347.32,-475.91 336.73,-475.7 344.88,-482.47 347.32,-475.91"/>
</g>
<!-- Node38 -->
<g id="node28" class="node">
<title>Node38</title>
<g id="a_node28"><a xlink:href="classv8_1_1Date.html" target="_top" xlink:title=" ">
<polygon fill="white" stroke="#666666" points="482.5,-648.25 431.25,-648.25 431.25,-629 482.5,-629 482.5,-648.25"/>
<text text-anchor="middle" x="456.88" y="-634.75" font-family="Helvetica,sans-Serif" font-size="10.00">v8::Date</text>
</a>
</g>
</g>
<!-- Node18&#45;&gt;Node38 -->
<g id="edge27" class="edge">
<title>Node18&#45;&gt;Node38</title>
<path fill="none" stroke="#63b8ff" d="M345.46,-479.61C350.88,-482.09 355.96,-485.35 360,-489.62 401.48,-533.51 353.82,-577.42 396,-620.62 405.1,-629.94 418.82,-634.48 430.84,-636.67"/>
<polygon fill="#63b8ff" stroke="#63b8ff" points="347.09,-476.11 336.5,-475.92 344.66,-482.67 347.09,-476.11"/>
</g>
<!-- Node39 -->
<g id="node29" class="node">
<title>Node39</title>
<g id="a_node29"><a xlink:href="classv8_1_1Function.html" target="_top" xlink:title=" ">
<polygon fill="white" stroke="#666666" points="491.12,-611.25 422.62,-611.25 422.62,-592 491.12,-592 491.12,-611.25"/>
<text text-anchor="middle" x="456.88" y="-597.75" font-family="Helvetica,sans-Serif" font-size="10.00">v8::Function</text>
</a>
</g>
</g>
<!-- Node18&#45;&gt;Node39 -->
<g id="edge28" class="edge">
<title>Node18&#45;&gt;Node39</title>
<path fill="none" stroke="#63b8ff" d="M345.84,-480.3C351.03,-482.69 355.95,-485.74 360,-489.62 392.28,-520.6 363.22,-553.18 396,-583.62 403.24,-590.35 412.89,-594.57 422.34,-597.21"/>
<polygon fill="#63b8ff" stroke="#63b8ff" points="347.26,-476.72 336.67,-476.46 344.79,-483.27 347.26,-476.72"/>
</g>
<!-- Node40 -->
<g id="node30" class="node">
<title>Node40</title>
<g id="a_node30"><a xlink:href="classv8_1_1Map.html" target="_top" xlink:title=" ">
<polygon fill="white" stroke="#666666" points="481.75,-574.25 432,-574.25 432,-555 481.75,-555 481.75,-574.25"/>
<text text-anchor="middle" x="456.88" y="-560.75" font-family="Helvetica,sans-Serif" font-size="10.00">v8::Map</text>
</a>
</g>
</g>
<!-- Node18&#45;&gt;Node40 -->
<g id="edge29" class="edge">
<title>Node18&#45;&gt;Node40</title>
<path fill="none" stroke="#63b8ff" d="M345.52,-481.2C350.69,-483.46 355.68,-486.23 360,-489.62 383.56,-508.14 372.14,-528.5 396,-546.62 406.28,-554.44 419.95,-558.88 431.62,-561.39"/>
<polygon fill="#63b8ff" stroke="#63b8ff" points="347.1,-477.68 336.51,-477.46 344.65,-484.24 347.1,-477.68"/>
</g>
<!-- Node41 -->
<g id="node31" class="node">
<title>Node41</title>
<g id="a_node31"><a xlink:href="classv8_1_1NumberObject.html" target="_top" xlink:title=" ">
<polygon fill="white" stroke="#666666" points="503.88,-537.25 409.88,-537.25 409.88,-518 503.88,-518 503.88,-537.25"/>
<text text-anchor="middle" x="456.88" y="-523.75" font-family="Helvetica,sans-Serif" font-size="10.00">v8::NumberObject</text>
</a>
</g>
</g>
<!-- Node18&#45;&gt;Node41 -->
<g id="edge30" class="edge">
<title>Node18&#45;&gt;Node41</title>
<path fill="none" stroke="#63b8ff" d="M346.05,-484.02C350.8,-485.77 355.54,-487.66 360,-489.62 376.74,-497.02 379.14,-502.5 396,-509.62 402.9,-512.54 410.43,-515.19 417.75,-517.51"/>
<polygon fill="#63b8ff" stroke="#63b8ff" points="347.34,-480.41 336.74,-480.39 345.02,-487.01 347.34,-480.41"/>
</g>
<!-- Node42 -->
<g id="node32" class="node">
<title>Node42</title>
<g id="a_node32"><a xlink:href="classv8_1_1Promise.html" target="_top" xlink:title=" ">
<polygon fill="white" stroke="#666666" points="490.38,-500.25 423.38,-500.25 423.38,-481 490.38,-481 490.38,-500.25"/>
<text text-anchor="middle" x="456.88" y="-486.75" font-family="Helvetica,sans-Serif" font-size="10.00">v8::Promise</text>
</a>
</g>
</g>
<!-- Node18&#45;&gt;Node42 -->
<g id="edge31" class="edge">
<title>Node18&#45;&gt;Node42</title>
<path fill="none" stroke="#63b8ff" d="M346.49,-476.71C370.38,-479.75 400.36,-483.56 422.89,-486.43"/>
<polygon fill="#63b8ff" stroke="#63b8ff" points="347.02,-473.12 336.66,-475.33 346.13,-480.07 347.02,-473.12"/>
</g>
<!-- Node43 -->
<g id="node33" class="node">
<title>Node43</title>
<g id="a_node33"><a xlink:href="classv8_1_1Promise_1_1Resolver.html" target="_top" xlink:title=" ">
<polygon fill="white" stroke="#666666" points="511.75,-463.25 402,-463.25 402,-444 511.75,-444 511.75,-463.25"/>
<text text-anchor="middle" x="456.88" y="-449.75" font-family="Helvetica,sans-Serif" font-size="10.00">v8::Promise::Resolver</text>
</a>
</g>
</g>
<!-- Node18&#45;&gt;Node43 -->
<g id="edge32" class="edge">
<title>Node18&#45;&gt;Node43</title>
<path fill="none" stroke="#63b8ff" d="M346.32,-466.83C363.31,-464.78 383.39,-462.36 401.7,-460.15"/>
<polygon fill="#63b8ff" stroke="#63b8ff" points="346.17,-463.44 336.66,-468.11 347,-470.39 346.17,-463.44"/>
</g>
<!-- Node44 -->
<g id="node34" class="node">
<title>Node44</title>
<g id="a_node34"><a xlink:href="classv8_1_1Proxy.html" target="_top" xlink:title=" ">
<polygon fill="white" stroke="#666666" points="484.38,-426.25 429.38,-426.25 429.38,-407 484.38,-407 484.38,-426.25"/>
<text text-anchor="middle" x="456.88" y="-412.75" font-family="Helvetica,sans-Serif" font-size="10.00">v8::Proxy</text>
</a>
</g>
</g>
<!-- Node18&#45;&gt;Node44 -->
<g id="edge33" class="edge">
<title>Node18&#45;&gt;Node44</title>
<path fill="none" stroke="#63b8ff" d="M338.97,-457.28C355.82,-450.07 376.85,-441.44 396,-434.62 406.74,-430.8 418.74,-427.09 429.16,-424.03"/>
<polygon fill="#63b8ff" stroke="#63b8ff" points="337.86,-454.38 330.06,-461.56 340.63,-460.81 337.86,-454.38"/>
</g>
<!-- Node45 -->
<g id="node35" class="node">
<title>Node45</title>
<g id="a_node35"><a xlink:href="classv8_1_1RegExp.html" target="_top" xlink:title=" ">
<polygon fill="white" stroke="#666666" points="488.88,-389.25 424.88,-389.25 424.88,-370 488.88,-370 488.88,-389.25"/>
<text text-anchor="middle" x="456.88" y="-375.75" font-family="Helvetica,sans-Serif" font-size="10.00">v8::RegExp</text>
</a>
</g>
</g>
<!-- Node18&#45;&gt;Node45 -->
<g id="edge34" class="edge">
<title>Node18&#45;&gt;Node45</title>
<path fill="none" stroke="#63b8ff" d="M323.42,-454.04C340.36,-437.36 367.89,-412.67 396,-397.62 404.8,-392.91 415.01,-389.26 424.48,-386.52"/>
<polygon fill="#63b8ff" stroke="#63b8ff" points="321.56,-450.95 317,-460.51 326.53,-455.89 321.56,-450.95"/>
</g>
<!-- Node46 -->
<g id="node36" class="node">
<title>Node46</title>
<g id="a_node36"><a xlink:href="classv8_1_1Set.html" target="_top" xlink:title=" ">
<polygon fill="white" stroke="#666666" points="479.88,-352.25 433.88,-352.25 433.88,-333 479.88,-333 479.88,-352.25"/>
<text text-anchor="middle" x="456.88" y="-338.75" font-family="Helvetica,sans-Serif" font-size="10.00">v8::Set</text>
</a>
</g>
</g>
<!-- Node18&#45;&gt;Node46 -->
<g id="edge35" class="edge">
<title>Node18&#45;&gt;Node46</title>
<path fill="none" stroke="#63b8ff" d="M317.13,-452.21C331.72,-427.37 360.23,-384.68 396,-360.62 407.17,-353.11 421.57,-348.65 433.44,-346.05"/>
<polygon fill="#63b8ff" stroke="#63b8ff" points="313.66,-450.23 311.76,-460.66 319.74,-453.7 313.66,-450.23"/>
</g>
<!-- Node47 -->
<g id="node37" class="node">
<title>Node47</title>
<g id="a_node37"><a xlink:href="classv8_1_1SharedArrayBuffer.html" target="_top" xlink:title=" ">
<polygon fill="white" stroke="#666666" points="511.75,-315.25 402,-315.25 402,-296 511.75,-296 511.75,-315.25"/>
<text text-anchor="middle" x="456.88" y="-301.75" font-family="Helvetica,sans-Serif" font-size="10.00">v8::SharedArrayBuffer</text>
</a>
</g>
</g>
<!-- Node18&#45;&gt;Node47 -->
<g id="edge36" class="edge">
<title>Node18&#45;&gt;Node47</title>
<path fill="none" stroke="#63b8ff" d="M313.33,-451.31C325.1,-419.36 352.25,-357.54 396,-323.62 400.12,-320.43 404.8,-317.8 409.68,-315.64"/>
<polygon fill="#63b8ff" stroke="#63b8ff" points="309.71,-450.03 309.68,-460.62 316.31,-452.36 309.71,-450.03"/>
</g>
<!-- Node48 -->
<g id="node38" class="node">
<title>Node48</title>
<g id="a_node38"><a xlink:href="classv8_1_1StringObject.html" target="_top" xlink:title=" ">
<polygon fill="white" stroke="#666666" points="499.38,-278.25 414.38,-278.25 414.38,-259 499.38,-259 499.38,-278.25"/>
<text text-anchor="middle" x="456.88" y="-264.75" font-family="Helvetica,sans-Serif" font-size="10.00">v8::StringObject</text>
</a>
</g>
</g>
<!-- Node18&#45;&gt;Node48 -->
<g id="edge37" class="edge">
<title>Node18&#45;&gt;Node48</title>
<path fill="none" stroke="#63b8ff" d="M310.68,-451.17C319.54,-413.08 343.82,-331.12 396,-286.62 401.2,-282.19 407.47,-278.84 413.97,-276.33"/>
<polygon fill="#63b8ff" stroke="#63b8ff" points="307.06,-450.38 308.33,-460.89 313.89,-451.88 307.06,-450.38"/>
</g>
<!-- Node49 -->
<g id="node39" class="node">
<title>Node49</title>
<g id="a_node39"><a xlink:href="classv8_1_1SymbolObject.html" target="_top" xlink:title=" ">
<polygon fill="white" stroke="#666666" points="502.75,-241.25 411,-241.25 411,-222 502.75,-222 502.75,-241.25"/>
<text text-anchor="middle" x="456.88" y="-227.75" font-family="Helvetica,sans-Serif" font-size="10.00">v8::SymbolObject</text>
</a>
</g>
</g>
<!-- Node18&#45;&gt;Node49 -->
<g id="edge38" class="edge">
<title>Node18&#45;&gt;Node49</title>
<path fill="none" stroke="#63b8ff" d="M308.85,-451.1C314.94,-407.49 335.25,-305.07 396,-249.62 400.25,-245.75 405.31,-242.7 410.65,-240.31"/>
<polygon fill="#63b8ff" stroke="#63b8ff" points="305.26,-450.61 307.46,-460.97 312.2,-451.49 305.26,-450.61"/>
</g>
<!-- Node50 -->
<g id="node40" class="node">
<title>Node50</title>
<g id="a_node40"><a xlink:href="classv8_1_1WasmMemoryObject.html" target="_top" xlink:title=" ">
<polygon fill="white" stroke="#666666" points="517.75,-204.25 396,-204.25 396,-185 517.75,-185 517.75,-204.25"/>
<text text-anchor="middle" x="456.88" y="-190.75" font-family="Helvetica,sans-Serif" font-size="10.00">v8::WasmMemoryObject</text>
</a>
</g>
</g>
<!-- Node18&#45;&gt;Node50 -->
<g id="edge39" class="edge">
<title>Node18&#45;&gt;Node50</title>
<path fill="none" stroke="#63b8ff" d="M307.5,-451.05C310.98,-402.39 326.56,-279.3 396,-212.62 399.29,-209.47 403.11,-206.86 407.2,-204.71"/>
<polygon fill="#63b8ff" stroke="#63b8ff" points="303.96,-450.55 306.85,-460.74 310.95,-450.97 303.96,-450.55"/>
</g>
<!-- Node51 -->
<g id="node41" class="node">
<title>Node51</title>
<g id="a_node41"><a xlink:href="classv8_1_1WasmModuleObject.html" target="_top" xlink:title=" ">
<polygon fill="white" stroke="#666666" points="516.25,-167.25 397.5,-167.25 397.5,-148 516.25,-148 516.25,-167.25"/>
<text text-anchor="middle" x="456.88" y="-153.75" font-family="Helvetica,sans-Serif" font-size="10.00">v8::WasmModuleObject</text>
</a>
</g>
</g>
<!-- Node18&#45;&gt;Node51 -->
<g id="edge40" class="edge">
<title>Node18&#45;&gt;Node51</title>
<path fill="none" stroke="#63b8ff" d="M306.46,-450.71C307.53,-397.11 317.93,-253.57 396,-175.62 399.15,-172.48 402.83,-169.88 406.78,-167.73"/>
<polygon fill="#63b8ff" stroke="#63b8ff" points="302.95,-450.49 306.35,-460.52 309.95,-450.56 302.95,-450.49"/>
</g>
<!-- Node22 -->
<g id="node22" class="node">
<title>Node22</title>
<g id="a_node22"><a xlink:href="classv8_1_1DataView.html" target="_top" xlink:title=" ">
<polygon fill="white" stroke="#666666" points="630.12,-777.25 557.12,-777.25 557.12,-758 630.12,-758 630.12,-777.25"/>
<text text-anchor="middle" x="593.62" y="-763.75" font-family="Helvetica,sans-Serif" font-size="10.00">v8::DataView</text>
</a>
</g>
</g>
<!-- Node21&#45;&gt;Node22 -->
<g id="edge21" class="edge">
<title>Node21&#45;&gt;Node22</title>
<path fill="none" stroke="#63b8ff" d="M518.56,-757.73C531.68,-759.48 545.14,-761.28 556.92,-762.86"/>
<polygon fill="#63b8ff" stroke="#63b8ff" points="519.04,-754.13 508.67,-756.28 518.12,-761.07 519.04,-754.13"/>
</g>
<!-- Node23 -->
<g id="node23" class="node">
<title>Node23</title>
<g id="a_node23"><a xlink:href="classv8_1_1TypedArray.html" target="_top" xlink:title=" ">
<polygon fill="#fff0f0" stroke="red" points="633.5,-740.25 553.75,-740.25 553.75,-721 633.5,-721 633.5,-740.25"/>
<text text-anchor="middle" x="593.62" y="-726.75" font-family="Helvetica,sans-Serif" font-size="10.00">v8::TypedArray</text>
</a>
</g>
</g>
<!-- Node21&#45;&gt;Node23 -->
<g id="edge22" class="edge">
<title>Node21&#45;&gt;Node23</title>
<path fill="none" stroke="#63b8ff" d="M518.48,-741.08C530.39,-739.4 542.59,-737.68 553.56,-736.13"/>
<polygon fill="#63b8ff" stroke="#63b8ff" points="518.08,-737.74 508.67,-742.6 519.06,-744.67 518.08,-737.74"/>
</g>
<!-- Node24 -->
<g id="node24" class="node">
<title>Node24</title>
<g id="a_node24"><a xlink:href="classv8_1_1BigInt64Array.html" target="_top" xlink:title=" ">
<polygon fill="white" stroke="#666666" points="762.38,-758.25 672.88,-758.25 672.88,-739 762.38,-739 762.38,-758.25"/>
<text text-anchor="middle" x="717.62" y="-744.75" font-family="Helvetica,sans-Serif" font-size="10.00">v8::BigInt64Array</text>
</a>
</g>
</g>
<!-- Node23&#45;&gt;Node24 -->
<g id="edge23" class="edge">
<title>Node23&#45;&gt;Node24</title>
<path fill="none" stroke="#63b8ff" d="M644.63,-738C653.96,-739.38 663.64,-740.81 672.77,-742.15"/>
<polygon fill="#63b8ff" stroke="#63b8ff" points="645.3,-734.42 634.9,-736.42 644.28,-741.34 645.3,-734.42"/>
</g>
<!-- Node25 -->
<g id="node25" class="node">
<title>Node25</title>
<g id="a_node25"><a xlink:href="classv8_1_1BigUint64Array.html" target="_top" xlink:title=" ">
<polygon fill="white" stroke="#666666" points="765.75,-721.25 669.5,-721.25 669.5,-702 765.75,-702 765.75,-721.25"/>
<text text-anchor="middle" x="717.62" y="-707.75" font-family="Helvetica,sans-Serif" font-size="10.00">v8::BigUint64Array</text>
</a>
</g>
</g>
<!-- Node23&#45;&gt;Node25 -->
<g id="edge24" class="edge">
<title>Node23&#45;&gt;Node25</title>
<path fill="none" stroke="#63b8ff" d="M644.76,-722.82C652.88,-721.55 661.27,-720.25 669.32,-718.99"/>
<polygon fill="#63b8ff" stroke="#63b8ff" points="644.24,-719.51 634.9,-724.51 645.32,-726.43 644.24,-719.51"/>
</g>
<!-- Node53 -->
<g id="node43" class="node">
<title>Node53</title>
<g id="a_node43"><a xlink:href="classv8_1_1Boolean.html" target="_top" xlink:title=" ">
<polygon fill="white" stroke="#666666" points="490,-130.25 423.75,-130.25 423.75,-111 490,-111 490,-130.25"/>
<text text-anchor="middle" x="456.88" y="-116.75" font-family="Helvetica,sans-Serif" font-size="10.00">v8::Boolean</text>
</a>
</g>
</g>
<!-- Node52&#45;&gt;Node53 -->
<g id="edge42" class="edge">
<title>Node52&#45;&gt;Node53</title>
<path fill="none" stroke="#63b8ff" d="M351.04,-107.29C374.29,-110.25 402.21,-113.8 423.4,-116.49"/>
<polygon fill="#63b8ff" stroke="#63b8ff" points="351.76,-103.73 341.4,-105.94 350.87,-110.67 351.76,-103.73"/>
</g>
<!-- Node54 -->
<g id="node44" class="node">
<title>Node54</title>
<g id="a_node44"><a xlink:href="classv8_1_1Name.html" target="_top" xlink:title=" ">
<polygon fill="white" stroke="#666666" points="485.5,-93.25 428.25,-93.25 428.25,-74 485.5,-74 485.5,-93.25"/>
<text text-anchor="middle" x="456.88" y="-79.75" font-family="Helvetica,sans-Serif" font-size="10.00">v8::Name</text>
</a>
</g>
</g>
<!-- Node52&#45;&gt;Node54 -->
<g id="edge43" class="edge">
<title>Node52&#45;&gt;Node54</title>
<path fill="none" stroke="#63b8ff" d="M351.1,-96.25C376.1,-93.24 406.51,-89.57 428.11,-86.97"/>
<polygon fill="#63b8ff" stroke="#63b8ff" points="350.9,-92.87 341.4,-97.54 351.74,-99.82 350.9,-92.87"/>
</g>
<!-- Node57 -->
<g id="node47" class="node">
<title>Node57</title>
<g id="a_node47"><a xlink:href="classv8_1_1Numeric.html" target="_top" xlink:title=" ">
<polygon fill="white" stroke="#666666" points="490.75,-56.25 423,-56.25 423,-37 490.75,-37 490.75,-56.25"/>
<text text-anchor="middle" x="456.88" y="-42.75" font-family="Helvetica,sans-Serif" font-size="10.00">v8::Numeric</text>
</a>
</g>
</g>
<!-- Node52&#45;&gt;Node57 -->
<g id="edge46" class="edge">
<title>Node52&#45;&gt;Node57</title>
<path fill="none" stroke="#63b8ff" d="M338.97,-87.28C355.82,-80.07 376.85,-71.44 396,-64.62 404.59,-61.57 413.99,-58.58 422.74,-55.94"/>
<polygon fill="#63b8ff" stroke="#63b8ff" points="337.86,-84.38 330.06,-91.56 340.63,-90.81 337.86,-84.38"/>
</g>
<!-- Node55 -->
<g id="node45" class="node">
<title>Node55</title>
<g id="a_node45"><a xlink:href="classv8_1_1String.html" target="_top" xlink:title=" ">
<polygon fill="white" stroke="#666666" points="621.88,-130.25 565.38,-130.25 565.38,-111 621.88,-111 621.88,-130.25"/>
<text text-anchor="middle" x="593.62" y="-116.75" font-family="Helvetica,sans-Serif" font-size="10.00">v8::String</text>
</a>
</g>
</g>
<!-- Node54&#45;&gt;Node55 -->
<g id="edge44" class="edge">
<title>Node54&#45;&gt;Node55</title>
<path fill="none" stroke="#63b8ff" d="M496.14,-94.13C518.16,-100.18 545.31,-107.63 565.2,-113.09"/>
<polygon fill="#63b8ff" stroke="#63b8ff" points="497.37,-90.56 486.8,-91.29 495.51,-97.31 497.37,-90.56"/>
</g>
<!-- Node56 -->
<g id="node46" class="node">
<title>Node56</title>
<g id="a_node46"><a xlink:href="classv8_1_1Symbol.html" target="_top" xlink:title=" ">
<polygon fill="white" stroke="#666666" points="625.25,-93.25 562,-93.25 562,-74 625.25,-74 625.25,-93.25"/>
<text text-anchor="middle" x="593.62" y="-79.75" font-family="Helvetica,sans-Serif" font-size="10.00">v8::Symbol</text>
</a>
</g>
</g>
<!-- Node54&#45;&gt;Node56 -->
<g id="edge45" class="edge">
<title>Node54&#45;&gt;Node56</title>
<path fill="none" stroke="#63b8ff" d="M496.78,-83.62C517.49,-83.62 542.6,-83.62 561.92,-83.62"/>
<polygon fill="#63b8ff" stroke="#63b8ff" points="496.8,-80.13 486.8,-83.62 496.8,-87.13 496.8,-80.13"/>
</g>
<!-- Node58 -->
<g id="node48" class="node">
<title>Node58</title>
<g id="a_node48"><a xlink:href="classv8_1_1BigInt.html" target="_top" xlink:title=" ">
<polygon fill="white" stroke="#666666" points="621.88,-56.25 565.38,-56.25 565.38,-37 621.88,-37 621.88,-56.25"/>
<text text-anchor="middle" x="593.62" y="-42.75" font-family="Helvetica,sans-Serif" font-size="10.00">v8::BigInt</text>
</a>
</g>
</g>
<!-- Node57&#45;&gt;Node58 -->
<g id="edge47" class="edge">
<title>Node57&#45;&gt;Node58</title>
<path fill="none" stroke="#63b8ff" d="M502.02,-46.62C522.82,-46.62 547,-46.62 565.14,-46.62"/>
<polygon fill="#63b8ff" stroke="#63b8ff" points="502.18,-43.13 492.18,-46.62 502.18,-50.13 502.18,-43.13"/>
</g>
<!-- Node59 -->
<g id="node49" class="node">
<title>Node59</title>
<g id="a_node49"><a xlink:href="classv8_1_1Number.html" target="_top" xlink:title=" ">
<polygon fill="#fff0f0" stroke="red" points="626.38,-19.25 560.88,-19.25 560.88,0 626.38,0 626.38,-19.25"/>
<text text-anchor="middle" x="593.62" y="-5.75" font-family="Helvetica,sans-Serif" font-size="10.00">v8::Number</text>
</a>
</g>
</g>
<!-- Node57&#45;&gt;Node59 -->
<g id="edge48" class="edge">
<title>Node57&#45;&gt;Node59</title>
<path fill="none" stroke="#63b8ff" d="M501.79,-34.57C520.97,-29.3 543.04,-23.24 560.63,-18.41"/>
<polygon fill="#63b8ff" stroke="#63b8ff" points="500.9,-31.46 492.18,-37.48 502.75,-38.21 500.9,-31.46"/>
</g>
</g>
</svg>
