<?xml version="1.0" encoding="UTF-8" standalone="no"?>
<!DOCTYPE svg PUBLIC "-//W3C//DTD SVG 1.1//EN"
 "http://www.w3.org/Graphics/SVG/1.1/DTD/svg11.dtd">
<!-- Generated by graphviz version 8.0.5 (20230430.1635)
 -->
<!-- Title: include/v8&#45;callbacks.h Pages: 1 -->
<svg width="1551pt" height="580pt"
 viewBox="0.00 0.00 1551.12 579.75" xmlns="http://www.w3.org/2000/svg" xmlns:xlink="http://www.w3.org/1999/xlink">
<g id="graph0" class="graph" transform="scale(1 1) rotate(0) translate(4 575.75)">
<title>include/v8&#45;callbacks.h</title>
<!-- Node1 -->
<g id="node1" class="node">
<title>Node1</title>
<g id="a_node1"><a xlink:title=" ">
<polygon fill="#999999" stroke="#666666" points="1114.12,-571.75 1002.12,-571.75 1002.12,-552.5 1114.12,-552.5 1114.12,-571.75"/>
<text text-anchor="middle" x="1058.12" y="-558.25" font-family="Helvetica,sans-Serif" font-size="10.00">include/v8&#45;callbacks.h</text>
</a>
</g>
</g>
<!-- Node2 -->
<g id="node2" class="node">
<title>Node2</title>
<g id="a_node2"><a xlink:title=" ">
<polygon fill="#e0e0e0" stroke="#999999" points="1335.38,-74.5 1284.88,-74.5 1284.88,-55.25 1335.38,-55.25 1335.38,-74.5"/>
<text text-anchor="middle" x="1310.12" y="-61" font-family="Helvetica,sans-Serif" font-size="10.00">stddef.h</text>
</a>
</g>
</g>
<!-- Node1&#45;&gt;Node2 -->
<g id="edge1" class="edge">
<title>Node1&#45;&gt;Node2</title>
<path fill="none" stroke="#63b8ff" d="M1114.43,-554.98C1211.29,-542.82 1399.12,-511.64 1399.12,-452.62 1399.12,-452.62 1399.12,-452.62 1399.12,-284.88 1399.12,-204.97 1347.65,-119.94 1322.99,-83.79"/>
<polygon fill="#63b8ff" stroke="#63b8ff" points="1325.41,-82.13 1316.81,-75.94 1319.67,-86.14 1325.41,-82.13"/>
</g>
<!-- Node3 -->
<g id="node3" class="node">
<title>Node3</title>
<g id="a_node3"><a xlink:title=" ">
<polygon fill="#e0e0e0" stroke="#999999" points="1485.12,-516.5 1427.12,-516.5 1427.12,-497.25 1485.12,-497.25 1485.12,-516.5"/>
<text text-anchor="middle" x="1456.12" y="-503" font-family="Helvetica,sans-Serif" font-size="10.00">functional</text>
</a>
</g>
</g>
<!-- Node1&#45;&gt;Node3 -->
<g id="edge2" class="edge">
<title>Node1&#45;&gt;Node3</title>
<path fill="none" stroke="#63b8ff" d="M1114.57,-555.31C1184.75,-547.79 1308.13,-533.61 1413.12,-516.5 1414.25,-516.32 1415.39,-516.12 1416.55,-515.93"/>
<polygon fill="#63b8ff" stroke="#63b8ff" points="1416.83,-519.25 1426.03,-514.01 1415.57,-512.36 1416.83,-519.25"/>
</g>
<!-- Node4 -->
<g id="node4" class="node">
<title>Node4</title>
<g id="a_node4"><a xlink:title=" ">
<polygon fill="#e0e0e0" stroke="#999999" points="1543.12,-516.5 1503.12,-516.5 1503.12,-497.25 1543.12,-497.25 1543.12,-516.5"/>
<text text-anchor="middle" x="1523.12" y="-503" font-family="Helvetica,sans-Serif" font-size="10.00">string</text>
</a>
</g>
</g>
<!-- Node1&#45;&gt;Node4 -->
<g id="edge3" class="edge">
<title>Node1&#45;&gt;Node4</title>
<path fill="none" stroke="#63b8ff" d="M1114.37,-558.73C1195.87,-554.53 1351.56,-543.73 1492.13,-516.55"/>
<polygon fill="#63b8ff" stroke="#63b8ff" points="1492.51,-519.85 1501.65,-514.48 1491.16,-512.98 1492.51,-519.85"/>
</g>
<!-- Node5 -->
<g id="node5" class="node">
<title>Node5</title>
<g id="a_node5"><a xlink:href="common_8h.html" target="_top" xlink:title=" ">
<polygon fill="white" stroke="#666666" points="90.25,-461.25 0,-461.25 0,-442 90.25,-442 90.25,-461.25"/>
<text text-anchor="middle" x="45.12" y="-447.75" font-family="Helvetica,sans-Serif" font-size="10.00">cppgc/common.h</text>
</a>
</g>
</g>
<!-- Node1&#45;&gt;Node5 -->
<g id="edge4" class="edge">
<title>Node1&#45;&gt;Node5</title>
<path fill="none" stroke="#63b8ff" d="M1001.81,-560.97C809.38,-560.09 185.33,-554.33 104.12,-516.5 83.25,-506.77 66.3,-485.95 56.01,-470.71"/>
<polygon fill="#63b8ff" stroke="#63b8ff" points="58.57,-469.22 50.24,-462.68 52.67,-472.99 58.57,-469.22"/>
</g>
<!-- Node6 -->
<g id="node6" class="node">
<title>Node6</title>
<g id="a_node6"><a xlink:href="v8config_8h.html" target="_top" xlink:title=" ">
<polygon fill="white" stroke="#666666" points="420.88,-74.5 361.38,-74.5 361.38,-55.25 420.88,-55.25 420.88,-74.5"/>
<text text-anchor="middle" x="391.12" y="-61" font-family="Helvetica,sans-Serif" font-size="10.00">v8config.h</text>
</a>
</g>
</g>
<!-- Node1&#45;&gt;Node6 -->
<g id="edge73" class="edge">
<title>Node1&#45;&gt;Node6</title>
<path fill="none" stroke="#63b8ff" d="M1001.79,-560.58C798.99,-557.87 118.12,-542.11 118.12,-452.62 118.12,-452.62 118.12,-452.62 118.12,-174.38 118.12,-138.05 138.11,-129.42 169.12,-110.5 225.4,-76.18 303.2,-67.67 350.18,-65.89"/>
<polygon fill="#63b8ff" stroke="#63b8ff" points="350.25,-69.36 360.14,-65.57 350.04,-62.36 350.25,-69.36"/>
</g>
<!-- Node8 -->
<g id="node8" class="node">
<title>Node8</title>
<g id="a_node8"><a xlink:href="v8-data_8h.html" target="_top" xlink:title=" ">
<polygon fill="white" stroke="#666666" points="632,-295.5 576.25,-295.5 576.25,-276.25 632,-276.25 632,-295.5"/>
<text text-anchor="middle" x="604.12" y="-282" font-family="Helvetica,sans-Serif" font-size="10.00">v8&#45;data.h</text>
</a>
</g>
</g>
<!-- Node1&#45;&gt;Node8 -->
<g id="edge7" class="edge">
<title>Node1&#45;&gt;Node8</title>
<path fill="none" stroke="#63b8ff" d="M1001.68,-559.66C815.41,-554.08 232.12,-530.41 232.12,-452.62 232.12,-452.62 232.12,-452.62 232.12,-395.38 232.12,-378.17 469.85,-319.13 565.22,-296.14"/>
<polygon fill="#63b8ff" stroke="#63b8ff" points="565.95,-299.33 574.86,-293.59 564.32,-292.52 565.95,-299.33"/>
</g>
<!-- Node9 -->
<g id="node9" class="node">
<title>Node9</title>
<g id="a_node9"><a xlink:href="v8-local-handle_8h.html" target="_top" xlink:title=" ">
<polygon fill="white" stroke="#666666" points="911.5,-240.25 822.75,-240.25 822.75,-221 911.5,-221 911.5,-240.25"/>
<text text-anchor="middle" x="867.12" y="-226.75" font-family="Helvetica,sans-Serif" font-size="10.00">v8&#45;local&#45;handle.h</text>
</a>
</g>
</g>
<!-- Node1&#45;&gt;Node9 -->
<g id="edge26" class="edge">
<title>Node1&#45;&gt;Node9</title>
<path fill="none" stroke="#63b8ff" d="M1062.14,-552.04C1069.88,-533.66 1086.12,-490.56 1086.12,-452.62 1086.12,-452.62 1086.12,-452.62 1086.12,-340.12 1086.12,-267.32 987.75,-243.37 922.87,-235.49"/>
<polygon fill="#63b8ff" stroke="#63b8ff" points="923.3,-231.9 912.97,-234.28 922.52,-238.86 923.3,-231.9"/>
</g>
<!-- Node20 -->
<g id="node20" class="node">
<title>Node20</title>
<g id="a_node20"><a xlink:href="v8-promise_8h.html" target="_top" xlink:title=" ">
<polygon fill="white" stroke="#666666" points="918.88,-516.5 847.38,-516.5 847.38,-497.25 918.88,-497.25 918.88,-516.5"/>
<text text-anchor="middle" x="883.12" y="-503" font-family="Helvetica,sans-Serif" font-size="10.00">v8&#45;promise.h</text>
</a>
</g>
</g>
<!-- Node1&#45;&gt;Node20 -->
<g id="edge27" class="edge">
<title>Node1&#45;&gt;Node20</title>
<path fill="none" stroke="#63b8ff" d="M1028.44,-552.09C999.53,-543.29 955.37,-529.86 923.32,-520.11"/>
<polygon fill="#63b8ff" stroke="#63b8ff" points="924.54,-516.52 913.96,-516.95 922.51,-523.21 924.54,-516.52"/>
</g>
<!-- Node5&#45;&gt;Node6 -->
<g id="edge5" class="edge">
<title>Node5&#45;&gt;Node6</title>
<path fill="none" stroke="#63b8ff" d="M47.63,-441.71C52.57,-423.27 63.12,-379.55 63.12,-342.12 63.12,-342.12 63.12,-342.12 63.12,-174.38 63.12,-140.64 75.86,-128.91 104.12,-110.5 143.95,-84.57 280.74,-72.63 350.1,-68.14"/>
<polygon fill="#63b8ff" stroke="#63b8ff" points="350.27,-71.57 360.03,-67.45 349.83,-64.58 350.27,-71.57"/>
</g>
<!-- Node7 -->
<g id="node7" class="node">
<title>Node7</title>
<g id="a_node7"><a xlink:title=" ">
<polygon fill="#e0e0e0" stroke="#999999" points="1061.38,-19.25 1010.88,-19.25 1010.88,0 1061.38,0 1061.38,-19.25"/>
<text text-anchor="middle" x="1036.12" y="-5.75" font-family="Helvetica,sans-Serif" font-size="10.00">memory</text>
</a>
</g>
</g>
<!-- Node6&#45;&gt;Node7 -->
<g id="edge6" class="edge">
<title>Node6&#45;&gt;Node7</title>
<path fill="none" stroke="#63b8ff" d="M421.37,-61.38C527.79,-52.59 884.72,-23.13 999.93,-13.61"/>
<polygon fill="#63b8ff" stroke="#63b8ff" points="999.94,-17.04 1009.62,-12.73 999.37,-10.07 999.94,-17.04"/>
</g>
<!-- Node8&#45;&gt;Node6 -->
<g id="edge25" class="edge">
<title>Node8&#45;&gt;Node6</title>
<path fill="none" stroke="#63b8ff" d="M575.95,-278.27C528.96,-267.15 439.17,-245.37 434.12,-240.25 412.51,-218.31 398.65,-126.38 393.44,-85.56"/>
<polygon fill="#63b8ff" stroke="#63b8ff" points="396.8,-85.16 392.11,-75.66 389.85,-86.01 396.8,-85.16"/>
</g>
<!-- Node8&#45;&gt;Node9 -->
<g id="edge8" class="edge">
<title>Node8&#45;&gt;Node9</title>
<path fill="none" stroke="#63b8ff" d="M632.27,-279.18C675.01,-270.52 757.08,-253.91 811.99,-242.79"/>
<polygon fill="#63b8ff" stroke="#63b8ff" points="812.48,-246.06 821.59,-240.64 811.09,-239.2 812.48,-246.06"/>
</g>
<!-- Node9&#45;&gt;Node2 -->
<g id="edge9" class="edge">
<title>Node9&#45;&gt;Node2</title>
<path fill="none" stroke="#63b8ff" d="M891.69,-220.57C916.14,-211.56 954.73,-197.34 988.12,-185 1092.61,-146.41 1216.13,-100.68 1275.22,-78.8"/>
<polygon fill="#63b8ff" stroke="#63b8ff" points="1276.32,-81.75 1284.49,-75 1273.89,-75.19 1276.32,-81.75"/>
</g>
<!-- Node10 -->
<g id="node10" class="node">
<title>Node10</title>
<g id="a_node10"><a xlink:title=" ">
<polygon fill="#e0e0e0" stroke="#999999" points="1125.62,-74.5 1064.62,-74.5 1064.62,-55.25 1125.62,-55.25 1125.62,-74.5"/>
<text text-anchor="middle" x="1095.12" y="-61" font-family="Helvetica,sans-Serif" font-size="10.00">type_traits</text>
</a>
</g>
</g>
<!-- Node9&#45;&gt;Node10 -->
<g id="edge10" class="edge">
<title>Node9&#45;&gt;Node10</title>
<path fill="none" stroke="#63b8ff" d="M890.9,-220.54C910.52,-212.54 938.68,-199.86 961.12,-185 1008.02,-153.94 1055.47,-107.38 1079.33,-82.67"/>
<polygon fill="#63b8ff" stroke="#63b8ff" points="1081.38,-85.56 1085.75,-75.91 1076.31,-80.72 1081.38,-85.56"/>
</g>
<!-- Node11 -->
<g id="node11" class="node">
<title>Node11</title>
<g id="a_node11"><a xlink:title=" ">
<polygon fill="#e0e0e0" stroke="#999999" points="952.62,-185 909.62,-185 909.62,-165.75 952.62,-165.75 952.62,-185"/>
<text text-anchor="middle" x="931.12" y="-171.5" font-family="Helvetica,sans-Serif" font-size="10.00">vector</text>
</a>
</g>
</g>
<!-- Node9&#45;&gt;Node11 -->
<g id="edge11" class="edge">
<title>Node9&#45;&gt;Node11</title>
<path fill="none" stroke="#63b8ff" d="M877.98,-220.59C887.32,-212.82 901.02,-201.42 912.17,-192.15"/>
<polygon fill="#63b8ff" stroke="#63b8ff" points="913.98,-194.36 919.43,-185.27 909.5,-188.98 913.98,-194.36"/>
</g>
<!-- Node12 -->
<g id="node12" class="node">
<title>Node12</title>
<g id="a_node12"><a xlink:href="v8-handle-base_8h.html" target="_top" xlink:title=" ">
<polygon fill="white" stroke="#666666" points="891.88,-185 802.38,-185 802.38,-165.75 891.88,-165.75 891.88,-185"/>
<text text-anchor="middle" x="847.12" y="-171.5" font-family="Helvetica,sans-Serif" font-size="10.00">v8&#45;handle&#45;base.h</text>
</a>
</g>
</g>
<!-- Node9&#45;&gt;Node12 -->
<g id="edge12" class="edge">
<title>Node9&#45;&gt;Node12</title>
<path fill="none" stroke="#63b8ff" d="M863.82,-220.83C861.23,-213.94 857.53,-204.09 854.27,-195.41"/>
<polygon fill="#63b8ff" stroke="#63b8ff" points="857.29,-194.49 850.5,-186.36 850.74,-196.95 857.29,-194.49"/>
</g>
<!-- Node13 -->
<g id="node13" class="node">
<title>Node13</title>
<g id="a_node13"><a xlink:href="v8-internal_8h.html" target="_top" xlink:title=" ">
<polygon fill="white" stroke="#666666" points="952.38,-129.75 883.88,-129.75 883.88,-110.5 952.38,-110.5 952.38,-129.75"/>
<text text-anchor="middle" x="918.12" y="-116.25" font-family="Helvetica,sans-Serif" font-size="10.00">v8&#45;internal.h</text>
</a>
</g>
</g>
<!-- Node9&#45;&gt;Node13 -->
<g id="edge24" class="edge">
<title>Node9&#45;&gt;Node13</title>
<path fill="none" stroke="#63b8ff" d="M841.57,-220.63C814.14,-209.52 776.6,-189.19 793.12,-165.75 811.06,-140.31 844.86,-129.29 872.8,-124.56"/>
<polygon fill="#63b8ff" stroke="#63b8ff" points="873.18,-127.9 882.57,-122.99 872.17,-120.97 873.18,-127.9"/>
</g>
<!-- Node12&#45;&gt;Node13 -->
<g id="edge13" class="edge">
<title>Node12&#45;&gt;Node13</title>
<path fill="none" stroke="#63b8ff" d="M859.17,-165.34C869.64,-157.49 885.03,-145.95 897.46,-136.62"/>
<polygon fill="#63b8ff" stroke="#63b8ff" points="899.36,-138.82 905.26,-130.02 895.16,-133.22 899.36,-138.82"/>
</g>
<!-- Node13&#45;&gt;Node2 -->
<g id="edge14" class="edge">
<title>Node13&#45;&gt;Node2</title>
<path fill="none" stroke="#63b8ff" d="M952.82,-115.97C1016.57,-109.91 1156.49,-95.37 1273.12,-74.5 1273.48,-74.44 1273.83,-74.37 1274.19,-74.31"/>
<polygon fill="#63b8ff" stroke="#63b8ff" points="1274.62,-77.59 1283.72,-72.16 1273.22,-70.73 1274.62,-77.59"/>
</g>
<!-- Node13&#45;&gt;Node6 -->
<g id="edge23" class="edge">
<title>Node13&#45;&gt;Node6</title>
<path fill="none" stroke="#63b8ff" d="M883.57,-112.55C879.06,-111.8 874.49,-111.09 870.12,-110.5 708.69,-88.52 515.15,-74.12 432.17,-68.52"/>
<polygon fill="#63b8ff" stroke="#63b8ff" points="432.42,-64.96 422.21,-67.79 431.96,-71.95 432.42,-64.96"/>
</g>
<!-- Node13&#45;&gt;Node7 -->
<g id="edge20" class="edge">
<title>Node13&#45;&gt;Node7</title>
<path fill="none" stroke="#63b8ff" d="M952.82,-111.34C974.16,-104.86 1000.5,-93.52 1017.12,-74.5 1027.84,-62.24 1032.52,-44.15 1034.56,-30.35"/>
<polygon fill="#63b8ff" stroke="#63b8ff" points="1038.13,-30.9 1035.75,-20.58 1031.17,-30.13 1038.13,-30.9"/>
</g>
<!-- Node13&#45;&gt;Node10 -->
<g id="edge22" class="edge">
<title>Node13&#45;&gt;Node10</title>
<path fill="none" stroke="#63b8ff" d="M948.15,-110.09C977.39,-101.29 1022.05,-87.86 1054.47,-78.11"/>
<polygon fill="#63b8ff" stroke="#63b8ff" points="1055.38,-81.19 1063.95,-74.95 1053.37,-74.48 1055.38,-81.19"/>
</g>
<!-- Node14 -->
<g id="node14" class="node">
<title>Node14</title>
<g id="a_node14"><a xlink:title=" ">
<polygon fill="#e0e0e0" stroke="#999999" points="1194.88,-74.5 1147.38,-74.5 1147.38,-55.25 1194.88,-55.25 1194.88,-74.5"/>
<text text-anchor="middle" x="1171.12" y="-61" font-family="Helvetica,sans-Serif" font-size="10.00">stdint.h</text>
</a>
</g>
</g>
<!-- Node13&#45;&gt;Node14 -->
<g id="edge15" class="edge">
<title>Node13&#45;&gt;Node14</title>
<path fill="none" stroke="#63b8ff" d="M952.6,-112.28C995.28,-103.75 1070.17,-88.56 1134.12,-74.5 1134.92,-74.32 1135.73,-74.15 1136.54,-73.97"/>
<polygon fill="#63b8ff" stroke="#63b8ff" points="1137.28,-77.16 1146.26,-71.53 1135.73,-70.33 1137.28,-77.16"/>
</g>
<!-- Node15 -->
<g id="node15" class="node">
<title>Node15</title>
<g id="a_node15"><a xlink:title=" ">
<polygon fill="#e0e0e0" stroke="#999999" points="1007.88,-74.5 960.38,-74.5 960.38,-55.25 1007.88,-55.25 1007.88,-74.5"/>
<text text-anchor="middle" x="984.12" y="-61" font-family="Helvetica,sans-Serif" font-size="10.00">string.h</text>
</a>
</g>
</g>
<!-- Node13&#45;&gt;Node15 -->
<g id="edge16" class="edge">
<title>Node13&#45;&gt;Node15</title>
<path fill="none" stroke="#63b8ff" d="M929.32,-110.09C938.96,-102.32 953.08,-90.92 964.57,-81.65"/>
<polygon fill="#63b8ff" stroke="#63b8ff" points="966.51,-83.78 972.09,-74.77 962.11,-78.33 966.51,-83.78"/>
</g>
<!-- Node16 -->
<g id="node16" class="node">
<title>Node16</title>
<g id="a_node16"><a xlink:title=" ">
<polygon fill="#e0e0e0" stroke="#999999" points="1263.75,-74.5 1218.5,-74.5 1218.5,-55.25 1263.75,-55.25 1263.75,-74.5"/>
<text text-anchor="middle" x="1241.12" y="-61" font-family="Helvetica,sans-Serif" font-size="10.00">atomic</text>
</a>
</g>
</g>
<!-- Node13&#45;&gt;Node16 -->
<g id="edge17" class="edge">
<title>Node13&#45;&gt;Node16</title>
<path fill="none" stroke="#63b8ff" d="M952.61,-114.59C1006.49,-107.31 1113.85,-92.04 1204.12,-74.5 1205.26,-74.28 1206.41,-74.05 1207.57,-73.81"/>
<polygon fill="#63b8ff" stroke="#63b8ff" points="1208.06,-77.07 1217.09,-71.52 1206.57,-70.23 1208.06,-77.07"/>
</g>
<!-- Node17 -->
<g id="node17" class="node">
<title>Node17</title>
<g id="a_node17"><a xlink:title=" ">
<polygon fill="#e0e0e0" stroke="#999999" points="816.12,-74.5 770.12,-74.5 770.12,-55.25 816.12,-55.25 816.12,-74.5"/>
<text text-anchor="middle" x="793.12" y="-61" font-family="Helvetica,sans-Serif" font-size="10.00">iterator</text>
</a>
</g>
</g>
<!-- Node13&#45;&gt;Node17 -->
<g id="edge18" class="edge">
<title>Node13&#45;&gt;Node17</title>
<path fill="none" stroke="#63b8ff" d="M896.92,-110.09C876.99,-101.6 846.91,-88.79 824.26,-79.14"/>
<polygon fill="#63b8ff" stroke="#63b8ff" points="826.01,-75.65 815.43,-74.95 823.26,-82.09 826.01,-75.65"/>
</g>
<!-- Node18 -->
<g id="node18" class="node">
<title>Node18</title>
<g id="a_node18"><a xlink:title=" ">
<polygon fill="#e0e0e0" stroke="#999999" points="873.75,-74.5 834.5,-74.5 834.5,-55.25 873.75,-55.25 873.75,-74.5"/>
<text text-anchor="middle" x="854.12" y="-61" font-family="Helvetica,sans-Serif" font-size="10.00">limits</text>
</a>
</g>
</g>
<!-- Node13&#45;&gt;Node18 -->
<g id="edge19" class="edge">
<title>Node13&#45;&gt;Node18</title>
<path fill="none" stroke="#63b8ff" d="M907.27,-110.09C897.93,-102.32 884.23,-90.92 873.08,-81.65"/>
<polygon fill="#63b8ff" stroke="#63b8ff" points="875.75,-78.48 865.82,-74.77 871.27,-83.86 875.75,-78.48"/>
</g>
<!-- Node19 -->
<g id="node19" class="node">
<title>Node19</title>
<g id="a_node19"><a xlink:title=" ">
<polygon fill="#e0e0e0" stroke="#999999" points="942,-74.5 892.25,-74.5 892.25,-55.25 942,-55.25 942,-74.5"/>
<text text-anchor="middle" x="917.12" y="-61" font-family="Helvetica,sans-Serif" font-size="10.00">optional</text>
</a>
</g>
</g>
<!-- Node13&#45;&gt;Node19 -->
<g id="edge21" class="edge">
<title>Node13&#45;&gt;Node19</title>
<path fill="none" stroke="#63b8ff" d="M917.96,-110.33C917.83,-103.67 917.66,-94.24 917.5,-85.78"/>
<polygon fill="#63b8ff" stroke="#63b8ff" points="920.98,-85.79 917.29,-75.86 913.98,-85.92 920.98,-85.79"/>
</g>
<!-- Node20&#45;&gt;Node6 -->
<g id="edge72" class="edge">
<title>Node20&#45;&gt;Node6</title>
<path fill="none" stroke="#63b8ff" d="M847.07,-505.56C700.38,-503.33 156.12,-485.41 156.12,-342.12 156.12,-342.12 156.12,-342.12 156.12,-174.38 156.12,-89.88 282.91,-70.97 350.23,-66.89"/>
<polygon fill="#63b8ff" stroke="#63b8ff" points="350.08,-70.35 359.88,-66.34 349.72,-63.36 350.08,-70.35"/>
</g>
<!-- Node20&#45;&gt;Node9 -->
<g id="edge28" class="edge">
<title>Node20&#45;&gt;Node9</title>
<path fill="none" stroke="#63b8ff" d="M919.33,-498.89C967.91,-487.18 1048.12,-458.57 1048.12,-397.38 1048.12,-397.38 1048.12,-397.38 1048.12,-340.12 1048.12,-280.83 975.78,-253.14 922.56,-240.8"/>
<polygon fill="#63b8ff" stroke="#63b8ff" points="923.38,-237.17 912.87,-238.46 921.89,-244.01 923.38,-237.17"/>
</g>
<!-- Node21 -->
<g id="node21" class="node">
<title>Node21</title>
<g id="a_node21"><a xlink:href="v8-object_8h.html" target="_top" xlink:title=" ">
<polygon fill="white" stroke="#666666" points="887.75,-461.25 824.5,-461.25 824.5,-442 887.75,-442 887.75,-461.25"/>
<text text-anchor="middle" x="856.12" y="-447.75" font-family="Helvetica,sans-Serif" font-size="10.00">v8&#45;object.h</text>
</a>
</g>
</g>
<!-- Node20&#45;&gt;Node21 -->
<g id="edge29" class="edge">
<title>Node20&#45;&gt;Node21</title>
<path fill="none" stroke="#63b8ff" d="M878.67,-497.08C875.13,-490.11 870.06,-480.12 865.63,-471.37"/>
<polygon fill="#63b8ff" stroke="#63b8ff" points="868.32,-469.95 860.68,-462.61 862.08,-473.11 868.32,-469.95"/>
</g>
<!-- Node21&#45;&gt;Node6 -->
<g id="edge71" class="edge">
<title>Node21&#45;&gt;Node6</title>
<path fill="none" stroke="#63b8ff" d="M824.27,-450.34C746.67,-449.08 542.11,-442.27 376.12,-406 292.37,-387.7 194.12,-427.85 194.12,-342.12 194.12,-342.12 194.12,-342.12 194.12,-174.38 194.12,-103.58 292.95,-78.64 350.61,-70.11"/>
<polygon fill="#63b8ff" stroke="#63b8ff" points="350.77,-73.49 360.2,-68.66 349.82,-66.55 350.77,-73.49"/>
</g>
<!-- Node21&#45;&gt;Node9 -->
<g id="edge31" class="edge">
<title>Node21&#45;&gt;Node9</title>
<path fill="none" stroke="#63b8ff" d="M861.06,-441.83C874.84,-416.11 911.61,-338.92 894.12,-276.25 891.46,-266.68 886.12,-257.12 880.89,-249.32"/>
<polygon fill="#63b8ff" stroke="#63b8ff" points="883.22,-247.57 874.53,-241.5 877.54,-251.66 883.22,-247.57"/>
</g>
<!-- Node21&#45;&gt;Node13 -->
<g id="edge30" class="edge">
<title>Node21&#45;&gt;Node13</title>
<path fill="none" stroke="#63b8ff" d="M866.77,-441.54C897.31,-414.65 984.92,-331.62 1014.12,-240.25 1028.4,-195.58 977.32,-155.86 944.24,-135.51"/>
<polygon fill="#63b8ff" stroke="#63b8ff" points="946.44,-132.15 936.05,-130.07 942.87,-138.17 946.44,-132.15"/>
</g>
<!-- Node22 -->
<g id="node22" class="node">
<title>Node22</title>
<g id="a_node22"><a xlink:href="v8-maybe_8h.html" target="_top" xlink:title=" ">
<polygon fill="white" stroke="#666666" points="867.88,-295.5 802.38,-295.5 802.38,-276.25 867.88,-276.25 867.88,-295.5"/>
<text text-anchor="middle" x="835.12" y="-282" font-family="Helvetica,sans-Serif" font-size="10.00">v8&#45;maybe.h</text>
</a>
</g>
</g>
<!-- Node21&#45;&gt;Node22 -->
<g id="edge32" class="edge">
<title>Node21&#45;&gt;Node22</title>
<path fill="none" stroke="#63b8ff" d="M855,-441.82C851.73,-416.39 842.24,-342.35 837.66,-306.62"/>
<polygon fill="#63b8ff" stroke="#63b8ff" points="841,-306.2 836.26,-296.72 834.06,-307.09 841,-306.2"/>
</g>
<!-- Node24 -->
<g id="node24" class="node">
<title>Node24</title>
<g id="a_node24"><a xlink:href="v8-persistent-handle_8h.html" target="_top" xlink:title=" ">
<polygon fill="white" stroke="#666666" points="557.75,-295.5 446.5,-295.5 446.5,-276.25 557.75,-276.25 557.75,-295.5"/>
<text text-anchor="middle" x="502.12" y="-282" font-family="Helvetica,sans-Serif" font-size="10.00">v8&#45;persistent&#45;handle.h</text>
</a>
</g>
</g>
<!-- Node21&#45;&gt;Node24 -->
<g id="edge37" class="edge">
<title>Node21&#45;&gt;Node24</title>
<path fill="none" stroke="#63b8ff" d="M824.23,-450.57C776.77,-449.22 685.98,-441.68 619.12,-406 572.64,-381.19 533.18,-331.55 514.2,-304.85"/>
<polygon fill="#63b8ff" stroke="#63b8ff" points="516.53,-303.07 507.96,-296.84 510.78,-307.06 516.53,-303.07"/>
</g>
<!-- Node26 -->
<g id="node26" class="node">
<title>Node26</title>
<g id="a_node26"><a xlink:href="v8-primitive_8h.html" target="_top" xlink:title=" ">
<polygon fill="white" stroke="#666666" points="702,-406 628.25,-406 628.25,-386.75 702,-386.75 702,-406"/>
<text text-anchor="middle" x="665.12" y="-392.5" font-family="Helvetica,sans-Serif" font-size="10.00">v8&#45;primitive.h</text>
</a>
</g>
</g>
<!-- Node21&#45;&gt;Node26 -->
<g id="edge43" class="edge">
<title>Node21&#45;&gt;Node26</title>
<path fill="none" stroke="#63b8ff" d="M824.16,-441.71C792.4,-432.86 743.48,-419.22 708.29,-409.41"/>
<polygon fill="#63b8ff" stroke="#63b8ff" points="709.41,-405.81 698.84,-406.5 707.53,-412.55 709.41,-405.81"/>
</g>
<!-- Node27 -->
<g id="node27" class="node">
<title>Node27</title>
<g id="a_node27"><a xlink:href="v8-value_8h.html" target="_top" xlink:title=" ">
<polygon fill="white" stroke="#666666" points="766.25,-350.75 706,-350.75 706,-331.5 766.25,-331.5 766.25,-350.75"/>
<text text-anchor="middle" x="736.12" y="-337.25" font-family="Helvetica,sans-Serif" font-size="10.00">v8&#45;value.h</text>
</a>
</g>
</g>
<!-- Node21&#45;&gt;Node27 -->
<g id="edge70" class="edge">
<title>Node21&#45;&gt;Node27</title>
<path fill="none" stroke="#63b8ff" d="M846.3,-441.75C826.09,-423.47 779.57,-381.4 753.91,-358.21"/>
<polygon fill="#63b8ff" stroke="#63b8ff" points="756.85,-356.24 747.08,-352.13 752.15,-361.43 756.85,-356.24"/>
</g>
<!-- Node28 -->
<g id="node28" class="node">
<title>Node28</title>
<g id="a_node28"><a xlink:href="v8-sandbox_8h.html" target="_top" xlink:title=" ">
<polygon fill="white" stroke="#666666" points="305.62,-185 232.62,-185 232.62,-165.75 305.62,-165.75 305.62,-185"/>
<text text-anchor="middle" x="269.12" y="-171.5" font-family="Helvetica,sans-Serif" font-size="10.00">v8&#45;sandbox.h</text>
</a>
</g>
</g>
<!-- Node21&#45;&gt;Node28 -->
<g id="edge54" class="edge">
<title>Node21&#45;&gt;Node28</title>
<path fill="none" stroke="#63b8ff" d="M824.09,-447.99C703.42,-437.64 283.12,-397.62 283.12,-342.12 283.12,-342.12 283.12,-342.12 283.12,-284.88 283.12,-253.61 277.34,-217.69 273.2,-196.03"/>
<polygon fill="#63b8ff" stroke="#63b8ff" points="276.46,-195.45 271.07,-186.33 269.59,-196.82 276.46,-195.45"/>
</g>
<!-- Node30 -->
<g id="node30" class="node">
<title>Node30</title>
<g id="a_node30"><a xlink:href="v8-traced-handle_8h.html" target="_top" xlink:title=" ">
<polygon fill="white" stroke="#666666" points="1209.88,-295.5 1114.38,-295.5 1114.38,-276.25 1209.88,-276.25 1209.88,-295.5"/>
<text text-anchor="middle" x="1162.12" y="-282" font-family="Helvetica,sans-Serif" font-size="10.00">v8&#45;traced&#45;handle.h</text>
</a>
</g>
</g>
<!-- Node21&#45;&gt;Node30 -->
<g id="edge58" class="edge">
<title>Node21&#45;&gt;Node30</title>
<path fill="none" stroke="#63b8ff" d="M888.06,-442.23C914.97,-434.56 954.1,-421.98 986.12,-406 1047.12,-375.56 1111.75,-327.01 1142.99,-302.34"/>
<polygon fill="#63b8ff" stroke="#63b8ff" points="1144.59,-304.75 1150.24,-295.78 1140.23,-299.27 1144.59,-304.75"/>
</g>
<!-- Node22&#45;&gt;Node6 -->
<g id="edge36" class="edge">
<title>Node22&#45;&gt;Node6</title>
<path fill="none" stroke="#63b8ff" d="M802.14,-282.77C716.81,-277.05 493.6,-260.32 467.12,-240.25 417.35,-202.52 438.95,-167.37 413.12,-110.5 409.2,-101.85 404.58,-92.39 400.6,-84.42"/>
<polygon fill="#63b8ff" stroke="#63b8ff" points="403.31,-83.03 395.68,-75.69 397.06,-86.19 403.31,-83.03"/>
</g>
<!-- Node22&#45;&gt;Node10 -->
<g id="edge33" class="edge">
<title>Node22&#45;&gt;Node10</title>
<path fill="none" stroke="#63b8ff" d="M854.99,-275.83C872.63,-267.48 898.84,-254.29 920.12,-240.25 985.15,-197.38 1004.87,-188.39 1056.12,-129.75 1068.27,-115.86 1078.94,-97.72 1086.04,-84.32"/>
<polygon fill="#63b8ff" stroke="#63b8ff" points="1089.49,-86.26 1090.92,-75.77 1083.26,-83.08 1089.49,-86.26"/>
</g>
<!-- Node22&#45;&gt;Node13 -->
<g id="edge35" class="edge">
<title>Node22&#45;&gt;Node13</title>
<path fill="none" stroke="#63b8ff" d="M825.55,-275.81C804.64,-254.91 758.8,-202.35 785.12,-165.75 804.95,-138.19 842.61,-127.41 872.81,-123.31"/>
<polygon fill="#63b8ff" stroke="#63b8ff" points="873.02,-126.7 882.55,-122.09 872.22,-119.74 873.02,-126.7"/>
</g>
<!-- Node23 -->
<g id="node23" class="node">
<title>Node23</title>
<g id="a_node23"><a xlink:title=" ">
<polygon fill="#e0e0e0" stroke="#999999" points="1005.38,-240.25 966.88,-240.25 966.88,-221 1005.38,-221 1005.38,-240.25"/>
<text text-anchor="middle" x="986.12" y="-226.75" font-family="Helvetica,sans-Serif" font-size="10.00">utility</text>
</a>
</g>
</g>
<!-- Node22&#45;&gt;Node23 -->
<g id="edge34" class="edge">
<title>Node22&#45;&gt;Node23</title>
<path fill="none" stroke="#63b8ff" d="M860.74,-275.84C887.18,-266.52 928.41,-251.98 956.3,-242.14"/>
<polygon fill="#63b8ff" stroke="#63b8ff" points="957.37,-245.12 965.64,-238.5 955.05,-238.52 957.37,-245.12"/>
</g>
<!-- Node24&#45;&gt;Node6 -->
<g id="edge42" class="edge">
<title>Node24&#45;&gt;Node6</title>
<path fill="none" stroke="#63b8ff" d="M450.96,-275.83C430.43,-269.45 408.7,-258.62 396.12,-240.25 363.67,-192.86 376.56,-119.99 385.42,-85.4"/>
<polygon fill="#63b8ff" stroke="#63b8ff" points="389.04,-86.43 388.3,-75.86 382.28,-84.58 389.04,-86.43"/>
</g>
<!-- Node24&#45;&gt;Node9 -->
<g id="edge39" class="edge">
<title>Node24&#45;&gt;Node9</title>
<path fill="none" stroke="#63b8ff" d="M557.96,-276.73C626.86,-266.68 743.31,-249.69 811.92,-239.68"/>
<polygon fill="#63b8ff" stroke="#63b8ff" points="812.12,-243.04 821.51,-238.13 811.11,-236.11 812.12,-243.04"/>
</g>
<!-- Node24&#45;&gt;Node13 -->
<g id="edge38" class="edge">
<title>Node24&#45;&gt;Node13</title>
<path fill="none" stroke="#63b8ff" d="M536.05,-275.82C557.24,-268.83 584.01,-257.41 603.12,-240.25 631.57,-214.71 614.68,-187.49 646.12,-165.75 682.06,-140.9 805.1,-128.8 872.71,-123.9"/>
<polygon fill="#63b8ff" stroke="#63b8ff" points="872.73,-127.34 882.46,-123.15 872.24,-120.35 872.73,-127.34"/>
</g>
<!-- Node25 -->
<g id="node25" class="node">
<title>Node25</title>
<g id="a_node25"><a xlink:href="v8-weak-callback-info_8h.html" target="_top" xlink:title=" ">
<polygon fill="white" stroke="#666666" points="594.12,-240.25 476.12,-240.25 476.12,-221 594.12,-221 594.12,-240.25"/>
<text text-anchor="middle" x="535.12" y="-226.75" font-family="Helvetica,sans-Serif" font-size="10.00">v8&#45;weak&#45;callback&#45;info.h</text>
</a>
</g>
</g>
<!-- Node24&#45;&gt;Node25 -->
<g id="edge40" class="edge">
<title>Node24&#45;&gt;Node25</title>
<path fill="none" stroke="#63b8ff" d="M507.57,-276.08C511.99,-268.96 518.36,-258.68 523.86,-249.8"/>
<polygon fill="#63b8ff" stroke="#63b8ff" points="527.26,-251.95 529.56,-241.61 521.31,-248.27 527.26,-251.95"/>
</g>
<!-- Node25&#45;&gt;Node6 -->
<g id="edge41" class="edge">
<title>Node25&#45;&gt;Node6</title>
<path fill="none" stroke="#63b8ff" d="M531.35,-220.61C522.11,-199.37 496.57,-145.34 462.12,-110.5 450.02,-98.25 433.94,-87.8 420.15,-80.09"/>
<polygon fill="#63b8ff" stroke="#63b8ff" points="422.06,-76.61 411.6,-74.98 418.76,-82.78 422.06,-76.61"/>
</g>
<!-- Node26&#45;&gt;Node6 -->
<g id="edge53" class="edge">
<title>Node26&#45;&gt;Node6</title>
<path fill="none" stroke="#63b8ff" d="M627.8,-391.16C541.23,-380.36 334.12,-348.1 334.12,-286.88 334.12,-286.88 334.12,-286.88 334.12,-174.38 334.12,-138.76 358.49,-103.34 375.36,-83.08"/>
<polygon fill="#63b8ff" stroke="#63b8ff" points="378.55,-85.74 382.47,-75.89 373.27,-81.15 378.55,-85.74"/>
</g>
<!-- Node26&#45;&gt;Node8 -->
<g id="edge44" class="edge">
<title>Node26&#45;&gt;Node8</title>
<path fill="none" stroke="#63b8ff" d="M660.13,-386.5C650.21,-368.85 627.84,-329.05 614.57,-305.45"/>
<polygon fill="#63b8ff" stroke="#63b8ff" points="617.14,-303.88 609.19,-296.88 611.04,-307.31 617.14,-303.88"/>
</g>
<!-- Node26&#45;&gt;Node9 -->
<g id="edge46" class="edge">
<title>Node26&#45;&gt;Node9</title>
<path fill="none" stroke="#63b8ff" d="M702.28,-390.46C752.54,-381.57 840.17,-357.55 877.12,-295.5 885.2,-281.94 881.39,-264 876.31,-250.59"/>
<polygon fill="#63b8ff" stroke="#63b8ff" points="879.16,-249.37 871.98,-241.58 872.74,-252.15 879.16,-249.37"/>
</g>
<!-- Node26&#45;&gt;Node13 -->
<g id="edge45" class="edge">
<title>Node26&#45;&gt;Node13</title>
<path fill="none" stroke="#63b8ff" d="M665.9,-386.3C669.32,-351.92 686.22,-228.46 756.12,-165.75 788.2,-136.98 837.2,-126.55 872.91,-122.88"/>
<polygon fill="#63b8ff" stroke="#63b8ff" points="872.88,-126.31 882.53,-121.94 872.27,-119.33 872.88,-126.31"/>
</g>
<!-- Node26&#45;&gt;Node27 -->
<g id="edge47" class="edge">
<title>Node26&#45;&gt;Node27</title>
<path fill="none" stroke="#63b8ff" d="M677.17,-386.34C687.64,-378.49 703.03,-366.95 715.46,-357.62"/>
<polygon fill="#63b8ff" stroke="#63b8ff" points="717.36,-359.82 723.26,-351.02 713.16,-354.22 717.36,-359.82"/>
</g>
<!-- Node27&#45;&gt;Node6 -->
<g id="edge52" class="edge">
<title>Node27&#45;&gt;Node6</title>
<path fill="none" stroke="#63b8ff" d="M728.24,-331.2C698.86,-298.35 591.96,-182.36 485.12,-110.5 466.37,-97.88 443.49,-86.94 425,-79.05"/>
<polygon fill="#63b8ff" stroke="#63b8ff" points="426.53,-75.48 415.96,-74.87 423.85,-81.94 426.53,-75.48"/>
</g>
<!-- Node27&#45;&gt;Node8 -->
<g id="edge48" class="edge">
<title>Node27&#45;&gt;Node8</title>
<path fill="none" stroke="#63b8ff" d="M713.73,-331.09C692.59,-322.56 660.64,-309.67 636.68,-300.01"/>
<polygon fill="#63b8ff" stroke="#63b8ff" points="638.21,-296.45 627.63,-295.95 635.59,-302.94 638.21,-296.45"/>
</g>
<!-- Node27&#45;&gt;Node9 -->
<g id="edge50" class="edge">
<title>Node27&#45;&gt;Node9</title>
<path fill="none" stroke="#63b8ff" d="M742.77,-331.09C752.72,-317.97 772.53,-293.33 793.12,-276.25 807.29,-264.5 824.88,-253.76 839.35,-245.77"/>
<polygon fill="#63b8ff" stroke="#63b8ff" points="840.64,-248.51 847.79,-240.69 837.33,-242.34 840.64,-248.51"/>
</g>
<!-- Node27&#45;&gt;Node13 -->
<g id="edge49" class="edge">
<title>Node27&#45;&gt;Node13</title>
<path fill="none" stroke="#63b8ff" d="M735.2,-331.13C732.83,-302.8 729.51,-214.38 774.12,-165.75 799.21,-138.41 840.68,-127.66 872.69,-123.52"/>
<polygon fill="#63b8ff" stroke="#63b8ff" points="873.02,-126.89 882.58,-122.31 872.25,-119.94 873.02,-126.89"/>
</g>
<!-- Node27&#45;&gt;Node22 -->
<g id="edge51" class="edge">
<title>Node27&#45;&gt;Node22</title>
<path fill="none" stroke="#63b8ff" d="M752.92,-331.09C768.28,-322.83 791.24,-310.48 809,-300.93"/>
<polygon fill="#63b8ff" stroke="#63b8ff" points="810.1,-303.77 817.25,-295.95 806.78,-297.61 810.1,-303.77"/>
</g>
<!-- Node28&#45;&gt;Node6 -->
<g id="edge57" class="edge">
<title>Node28&#45;&gt;Node6</title>
<path fill="none" stroke="#63b8ff" d="M262.07,-165.26C252.76,-152.02 238.89,-127.24 251.12,-110.5 273.64,-79.69 317.65,-69.65 350.34,-66.63"/>
<polygon fill="#63b8ff" stroke="#63b8ff" points="350.23,-70.07 359.94,-65.85 349.72,-63.09 350.23,-70.07"/>
</g>
<!-- Node28&#45;&gt;Node13 -->
<g id="edge56" class="edge">
<title>Node28&#45;&gt;Node13</title>
<path fill="none" stroke="#63b8ff" d="M305.88,-171.36C417.3,-162.22 751.13,-134.83 872.97,-124.83"/>
<polygon fill="#63b8ff" stroke="#63b8ff" points="873.07,-128.25 882.75,-123.95 872.5,-121.27 873.07,-128.25"/>
</g>
<!-- Node29 -->
<g id="node29" class="node">
<title>Node29</title>
<g id="a_node29"><a xlink:title=" ">
<polygon fill="#e0e0e0" stroke="#999999" points="305.75,-129.75 260.5,-129.75 260.5,-110.5 305.75,-110.5 305.75,-129.75"/>
<text text-anchor="middle" x="283.12" y="-116.25" font-family="Helvetica,sans-Serif" font-size="10.00">cstdint</text>
</a>
</g>
</g>
<!-- Node28&#45;&gt;Node29 -->
<g id="edge55" class="edge">
<title>Node28&#45;&gt;Node29</title>
<path fill="none" stroke="#63b8ff" d="M271.44,-165.58C273.21,-158.84 275.72,-149.27 277.97,-140.74"/>
<polygon fill="#63b8ff" stroke="#63b8ff" points="281.61,-141.67 280.76,-131.11 274.84,-139.89 281.61,-141.67"/>
</g>
<!-- Node30&#45;&gt;Node2 -->
<g id="edge59" class="edge">
<title>Node30&#45;&gt;Node2</title>
<path fill="none" stroke="#63b8ff" d="M1199.06,-275.75C1219.12,-269.03 1242.86,-257.91 1258.12,-240.25 1297.48,-194.71 1307.06,-120.36 1309.38,-85.32"/>
<polygon fill="#63b8ff" stroke="#63b8ff" points="1312.91,-85.84 1309.94,-75.67 1305.92,-85.48 1312.91,-85.84"/>
</g>
<!-- Node30&#45;&gt;Node6 -->
<g id="edge69" class="edge">
<title>Node30&#45;&gt;Node6</title>
<path fill="none" stroke="#63b8ff" d="M1150.66,-276.01C1121.09,-253.63 1039.12,-194.59 961.12,-165.75 771.43,-95.59 527.59,-74.01 432.07,-68"/>
<polygon fill="#63b8ff" stroke="#63b8ff" points="432.37,-64.45 422.17,-67.34 431.94,-71.43 432.37,-64.45"/>
</g>
<!-- Node30&#45;&gt;Node7 -->
<g id="edge63" class="edge">
<title>Node30&#45;&gt;Node7</title>
<path fill="none" stroke="#63b8ff" d="M1207,-275.82C1230.43,-269.21 1258.27,-258.18 1278.12,-240.25 1342.92,-181.74 1401.26,-121.26 1344.12,-55.25 1309.31,-15.03 1145.86,-10.28 1072.23,-10.23"/>
<polygon fill="#63b8ff" stroke="#63b8ff" points="1072.63,-6.73 1062.63,-10.26 1072.64,-13.73 1072.63,-6.73"/>
</g>
<!-- Node30&#45;&gt;Node9 -->
<g id="edge67" class="edge">
<title>Node30&#45;&gt;Node9</title>
<path fill="none" stroke="#63b8ff" d="M1114.07,-276.2C1061.57,-266.72 977.61,-251.57 922.41,-241.6"/>
<polygon fill="#63b8ff" stroke="#63b8ff" points="923.24,-238.02 912.78,-239.68 921.99,-244.91 923.24,-238.02"/>
</g>
<!-- Node30&#45;&gt;Node10 -->
<g id="edge64" class="edge">
<title>Node30&#45;&gt;Node10</title>
<path fill="none" stroke="#63b8ff" d="M1169.8,-276.04C1176.65,-267.53 1186.18,-253.96 1190.12,-240.25 1192.49,-232.03 1192.05,-229.34 1190.12,-221 1177.08,-164.61 1134.02,-109.45 1110.61,-82.66"/>
<polygon fill="#63b8ff" stroke="#63b8ff" points="1113.77,-80.83 1104.49,-75.71 1108.55,-85.49 1113.77,-80.83"/>
</g>
<!-- Node30&#45;&gt;Node13 -->
<g id="edge66" class="edge">
<title>Node30&#45;&gt;Node13</title>
<path fill="none" stroke="#63b8ff" d="M1152.52,-276.04C1144.25,-267.72 1132.92,-254.46 1128.12,-240.25 1119.82,-215.65 1140.88,-210.21 1147.12,-185 1149.18,-176.7 1152.57,-172.35 1147.12,-165.75 1124.27,-138.01 1023.07,-127.29 963.11,-123.32"/>
<polygon fill="#63b8ff" stroke="#63b8ff" points="963.63,-119.78 953.43,-122.65 963.19,-126.77 963.63,-119.78"/>
</g>
<!-- Node30&#45;&gt;Node14 -->
<g id="edge60" class="edge">
<title>Node30&#45;&gt;Node14</title>
<path fill="none" stroke="#63b8ff" d="M1183.23,-275.78C1197.35,-268.44 1214.81,-256.63 1223.12,-240.25 1250.46,-186.38 1207.95,-115.7 1184.68,-83.37"/>
<polygon fill="#63b8ff" stroke="#63b8ff" points="1186.95,-81.57 1178.18,-75.63 1181.34,-85.75 1186.95,-81.57"/>
</g>
<!-- Node30&#45;&gt;Node16 -->
<g id="edge62" class="edge">
<title>Node30&#45;&gt;Node16</title>
<path fill="none" stroke="#63b8ff" d="M1192.19,-275.86C1209.38,-269.02 1229.55,-257.74 1240.12,-240.25 1269.82,-191.12 1256.07,-119.09 1246.94,-85.05"/>
<polygon fill="#63b8ff" stroke="#63b8ff" points="1250.1,-84.35 1243.99,-75.69 1243.37,-86.27 1250.1,-84.35"/>
</g>
<!-- Node30&#45;&gt;Node23 -->
<g id="edge65" class="edge">
<title>Node30&#45;&gt;Node23</title>
<path fill="none" stroke="#63b8ff" d="M1132.27,-275.84C1099.84,-266.03 1048.35,-250.45 1015.94,-240.65"/>
<polygon fill="#63b8ff" stroke="#63b8ff" points="1017.32,-237.11 1006.74,-237.56 1015.3,-243.81 1017.32,-237.11"/>
</g>
<!-- Node30&#45;&gt;Node25 -->
<g id="edge68" class="edge">
<title>Node30&#45;&gt;Node25</title>
<path fill="none" stroke="#63b8ff" d="M1113.97,-280.78C1003.91,-271.44 733.57,-248.48 605.11,-237.57"/>
<polygon fill="#63b8ff" stroke="#63b8ff" points="605.51,-234 595.25,-236.65 604.91,-240.98 605.51,-234"/>
</g>
<!-- Node31 -->
<g id="node31" class="node">
<title>Node31</title>
<g id="a_node31"><a xlink:title=" ">
<polygon fill="#e0e0e0" stroke="#999999" points="1181.38,-240.25 1136.88,-240.25 1136.88,-221 1181.38,-221 1181.38,-240.25"/>
<text text-anchor="middle" x="1159.12" y="-226.75" font-family="Helvetica,sans-Serif" font-size="10.00">stdio.h</text>
</a>
</g>
</g>
<!-- Node30&#45;&gt;Node31 -->
<g id="edge61" class="edge">
<title>Node30&#45;&gt;Node31</title>
<path fill="none" stroke="#63b8ff" d="M1161.63,-276.08C1161.25,-269.42 1160.72,-259.99 1160.25,-251.53"/>
<polygon fill="#63b8ff" stroke="#63b8ff" points="1163.69,-251.4 1159.63,-241.61 1156.7,-251.79 1163.69,-251.4"/>
</g>
</g>
</svg>
