<?xml version="1.0" encoding="UTF-8" standalone="no"?>
<!DOCTYPE svg PUBLIC "-//W3C//DTD SVG 1.1//EN"
 "http://www.w3.org/Graphics/SVG/1.1/DTD/svg11.dtd">
<!-- Generated by graphviz version 8.0.5 (20230430.1635)
 -->
<!-- Title: include/v8&#45;data.h Pages: 1 -->
<svg width="1690pt" height="735pt"
 viewBox="0.00 0.00 1690.00 735.25" xmlns="http://www.w3.org/2000/svg" xmlns:xlink="http://www.w3.org/1999/xlink">
<g id="graph0" class="graph" transform="scale(1 1) rotate(0) translate(4 731.25)">
<title>include/v8&#45;data.h</title>
<!-- Node1 -->
<g id="node1" class="node">
<title>Node1</title>
<g id="a_node1"><a xlink:title=" ">
<polygon fill="#999999" stroke="#666666" points="591.75,-727.25 502.25,-727.25 502.25,-708 591.75,-708 591.75,-727.25"/>
<text text-anchor="middle" x="547" y="-713.75" font-family="Helvetica,sans-Serif" font-size="10.00">include/v8&#45;data.h</text>
</a>
</g>
</g>
<!-- Node2 -->
<g id="node2" class="node">
<title>Node2</title>
<g id="a_node2"><a xlink:href="v8-callbacks_8h.html" target="_top" xlink:title=" ">
<polygon fill="white" stroke="#666666" points="610,-434.12 498,-434.12 498,-414.88 610,-414.88 610,-434.12"/>
<text text-anchor="middle" x="554" y="-420.62" font-family="Helvetica,sans-Serif" font-size="10.00">include/v8&#45;callbacks.h</text>
</a>
</g>
</g>
<!-- Node1&#45;&gt;Node2 -->
<g id="edge1" class="edge">
<title>Node1&#45;&gt;Node2</title>
<path fill="none" stroke="#63b8ff" d="M553.03,-697.39C559.24,-675.87 568,-639.85 568,-608.12 568,-608.12 568,-608.12 568,-545.25 568,-503.6 559.54,-454.34 555.77,-434.47"/>
<polygon fill="#63b8ff" stroke="#63b8ff" points="549.45,-696.15 549.92,-706.74 556.15,-698.17 549.45,-696.15"/>
</g>
<!-- Node4 -->
<g id="node4" class="node">
<title>Node4</title>
<g id="a_node4"><a xlink:href="v8_8h.html" target="_top" xlink:title=" ">
<polygon fill="white" stroke="#666666" points="953.88,-19.25 886.12,-19.25 886.12,0 953.88,0 953.88,-19.25"/>
<text text-anchor="middle" x="920" y="-5.75" font-family="Helvetica,sans-Serif" font-size="10.00">include/v8.h</text>
</a>
</g>
</g>
<!-- Node1&#45;&gt;Node4 -->
<g id="edge79" class="edge">
<title>Node1&#45;&gt;Node4</title>
<path fill="none" stroke="#63b8ff" d="M490.92,-717.24C351.43,-717.26 0,-707.45 0,-608.12 0,-608.12 0,-608.12 0,-124.75 0,-89.55 8.18,-73.96 38,-55.25 110.76,-9.58 732.15,-9.67 885.77,-10.4"/>
<polygon fill="#63b8ff" stroke="#63b8ff" points="490.78,-720.74 500.77,-717.22 490.76,-713.74 490.78,-720.74"/>
</g>
<!-- Node5 -->
<g id="node5" class="node">
<title>Node5</title>
<g id="a_node5"><a xlink:href="v8-isolate_8h.html" target="_top" xlink:title=" ">
<polygon fill="white" stroke="#666666" points="744.62,-262.75 645.38,-262.75 645.38,-243.5 744.62,-243.5 744.62,-262.75"/>
<text text-anchor="middle" x="695" y="-249.25" font-family="Helvetica,sans-Serif" font-size="10.00">include/v8&#45;isolate.h</text>
</a>
</g>
</g>
<!-- Node1&#45;&gt;Node5 -->
<g id="edge21" class="edge">
<title>Node1&#45;&gt;Node5</title>
<path fill="none" stroke="#63b8ff" d="M602.52,-706.02C653.11,-692.76 720,-664.56 720,-608.12 720,-608.12 720,-608.12 720,-545.25 720,-433.65 701.54,-298.86 696.34,-263.16"/>
<polygon fill="#63b8ff" stroke="#63b8ff" points="601.87,-702.83 593,-708.63 603.55,-709.62 601.87,-702.83"/>
</g>
<!-- Node9 -->
<g id="node9" class="node">
<title>Node9</title>
<g id="a_node9"><a xlink:href="v8-context_8h.html" target="_top" xlink:title=" ">
<polygon fill="white" stroke="#666666" points="892.12,-135.38 789.88,-135.38 789.88,-116.12 892.12,-116.12 892.12,-135.38"/>
<text text-anchor="middle" x="841" y="-121.88" font-family="Helvetica,sans-Serif" font-size="10.00">include/v8&#45;context.h</text>
</a>
</g>
</g>
<!-- Node1&#45;&gt;Node9 -->
<g id="edge20" class="edge">
<title>Node1&#45;&gt;Node9</title>
<path fill="none" stroke="#63b8ff" d="M602.53,-711.81C665.04,-703 758,-678.12 758,-608.12 758,-608.12 758,-608.12 758,-545.25 758,-435.54 726.16,-398.87 771,-298.75 794.54,-246.19 840.85,-260.66 863,-207.5 873.51,-182.28 856.72,-150.56 847.06,-135.48"/>
<polygon fill="#63b8ff" stroke="#63b8ff" points="602.47,-708.42 593.01,-713.19 603.38,-715.36 602.47,-708.42"/>
</g>
<!-- Node11 -->
<g id="node11" class="node">
<title>Node11</title>
<g id="a_node11"><a xlink:href="v8-script_8h.html" target="_top" xlink:title=" ">
<polygon fill="white" stroke="#666666" points="342.38,-373.25 247.62,-373.25 247.62,-354 342.38,-354 342.38,-373.25"/>
<text text-anchor="middle" x="295" y="-359.75" font-family="Helvetica,sans-Serif" font-size="10.00">include/v8&#45;script.h</text>
</a>
</g>
</g>
<!-- Node1&#45;&gt;Node11 -->
<g id="edge70" class="edge">
<title>Node1&#45;&gt;Node11</title>
<path fill="none" stroke="#63b8ff" d="M491.08,-714.79C370.74,-709.33 98,-688.13 98,-608.12 98,-608.12 98,-608.12 98,-545.25 98,-476.65 119.06,-454.06 171,-409.25 192.48,-390.72 222.25,-379.67 247.23,-373.2"/>
<polygon fill="#63b8ff" stroke="#63b8ff" points="490.75,-718.33 500.89,-715.26 491.05,-711.33 490.75,-718.33"/>
</g>
<!-- Node13 -->
<g id="node13" class="node">
<title>Node13</title>
<g id="a_node13"><a xlink:href="v8-primitive_8h.html" target="_top" xlink:title=" ">
<polygon fill="white" stroke="#666666" points="522.75,-616.75 415.25,-616.75 415.25,-597.5 522.75,-597.5 522.75,-616.75"/>
<text text-anchor="middle" x="469" y="-603.25" font-family="Helvetica,sans-Serif" font-size="10.00">include/v8&#45;primitive.h</text>
</a>
</g>
</g>
<!-- Node1&#45;&gt;Node13 -->
<g id="edge22" class="edge">
<title>Node1&#45;&gt;Node13</title>
<path fill="none" stroke="#63b8ff" d="M534.22,-698.85C517.37,-675.41 488.34,-635.03 475.47,-617.13"/>
<polygon fill="#63b8ff" stroke="#63b8ff" points="531.94,-700.67 540.62,-706.75 537.62,-696.58 531.94,-700.67"/>
</g>
<!-- Node17 -->
<g id="node17" class="node">
<title>Node17</title>
<g id="a_node17"><a xlink:href="v8-template_8h.html" target="_top" xlink:title=" ">
<polygon fill="white" stroke="#666666" points="400.12,-495 291.88,-495 291.88,-475.75 400.12,-475.75 400.12,-495"/>
<text text-anchor="middle" x="346" y="-481.5" font-family="Helvetica,sans-Serif" font-size="10.00">include/v8&#45;template.h</text>
</a>
</g>
</g>
<!-- Node1&#45;&gt;Node17 -->
<g id="edge71" class="edge">
<title>Node1&#45;&gt;Node17</title>
<path fill="none" stroke="#63b8ff" d="M519.29,-702.76C488.21,-686.03 437.99,-655.28 406,-616.75 373.53,-577.64 354.71,-518.07 348.4,-495.49"/>
<polygon fill="#63b8ff" stroke="#63b8ff" points="517.18,-706.13 527.66,-707.69 520.44,-699.94 517.18,-706.13"/>
</g>
<!-- Node33 -->
<g id="node33" class="node">
<title>Node33</title>
<g id="a_node33"><a xlink:href="v8-value_8h.html" target="_top" xlink:title=" ">
<polygon fill="white" stroke="#666666" points="1466,-672 1372,-672 1372,-652.75 1466,-652.75 1466,-672"/>
<text text-anchor="middle" x="1419" y="-658.5" font-family="Helvetica,sans-Serif" font-size="10.00">include/v8&#45;value.h</text>
</a>
</g>
</g>
<!-- Node1&#45;&gt;Node33 -->
<g id="edge72" class="edge">
<title>Node1&#45;&gt;Node33</title>
<path fill="none" stroke="#63b8ff" d="M602.59,-713.23C762.6,-703.46 1222.32,-675.39 1371.58,-666.27"/>
<polygon fill="#63b8ff" stroke="#63b8ff" points="602.81,-709.77 593.05,-713.87 603.24,-716.76 602.81,-709.77"/>
</g>
<!-- Node3 -->
<g id="node3" class="node">
<title>Node3</title>
<g id="a_node3"><a xlink:href="v8-initialization_8h.html" target="_top" xlink:title=" ">
<polygon fill="white" stroke="#666666" points="559.5,-201.88 438.5,-201.88 438.5,-182.62 559.5,-182.62 559.5,-201.88"/>
<text text-anchor="middle" x="499" y="-188.38" font-family="Helvetica,sans-Serif" font-size="10.00">include/v8&#45;initialization.h</text>
</a>
</g>
</g>
<!-- Node2&#45;&gt;Node3 -->
<g id="edge2" class="edge">
<title>Node2&#45;&gt;Node3</title>
<path fill="none" stroke="#63b8ff" d="M549.35,-404.05C537.98,-356.43 509.08,-235.47 501.08,-201.97"/>
<polygon fill="#63b8ff" stroke="#63b8ff" points="546.12,-404.56 551.84,-413.47 552.92,-402.93 546.12,-404.56"/>
</g>
<!-- Node2&#45;&gt;Node5 -->
<g id="edge4" class="edge">
<title>Node2&#45;&gt;Node5</title>
<path fill="none" stroke="#63b8ff" d="M561.1,-404.6C571.66,-378.42 593.58,-330.72 624,-298.75 638.65,-283.35 659.68,-271 675.05,-263.23"/>
<polygon fill="#63b8ff" stroke="#63b8ff" points="557.54,-403.1 557.17,-413.69 564.06,-405.65 557.54,-403.1"/>
</g>
<!-- Node2&#45;&gt;Node11 -->
<g id="edge15" class="edge">
<title>Node2&#45;&gt;Node11</title>
<path fill="none" stroke="#63b8ff" d="M503.67,-412.06C454.4,-400.86 380.31,-384.02 334.95,-373.71"/>
<polygon fill="#63b8ff" stroke="#63b8ff" points="502.57,-415.63 513.1,-414.43 504.12,-408.8 502.57,-415.63"/>
</g>
<!-- Node3&#45;&gt;Node4 -->
<g id="edge3" class="edge">
<title>Node3&#45;&gt;Node4</title>
<path fill="none" stroke="#63b8ff" d="M511.42,-173.49C524.69,-155.59 547.19,-128.17 572,-110.5 671.2,-39.86 819.58,-18.94 885.87,-12.94"/>
<polygon fill="#63b8ff" stroke="#63b8ff" points="508.05,-171.17 505.04,-181.33 513.73,-175.26 508.05,-171.17"/>
</g>
<!-- Node5&#45;&gt;Node3 -->
<g id="edge5" class="edge">
<title>Node5&#45;&gt;Node3</title>
<path fill="none" stroke="#63b8ff" d="M654.31,-239.9C617.05,-228.71 562.77,-212.4 529.23,-202.33"/>
<polygon fill="#63b8ff" stroke="#63b8ff" points="653.22,-243.53 663.8,-243.05 655.23,-236.83 653.22,-243.53"/>
</g>
<!-- Node5&#45;&gt;Node4 -->
<g id="edge14" class="edge">
<title>Node5&#45;&gt;Node4</title>
<path fill="none" stroke="#63b8ff" d="M699.54,-232.77C709.68,-193.67 737.83,-104.78 794,-55.25 819.85,-32.46 858.11,-21.09 885.68,-15.57"/>
<polygon fill="#63b8ff" stroke="#63b8ff" points="695.96,-231.66 696.96,-242.21 702.75,-233.34 695.96,-231.66"/>
</g>
<!-- Node6 -->
<g id="node6" class="node">
<title>Node6</title>
<g id="a_node6"><a xlink:href="v8-inspector_8h.html" target="_top" xlink:title=" ">
<polygon fill="white" stroke="#666666" points="688.25,-201.88 577.75,-201.88 577.75,-182.62 688.25,-182.62 688.25,-201.88"/>
<text text-anchor="middle" x="633" y="-188.38" font-family="Helvetica,sans-Serif" font-size="10.00">include/v8&#45;inspector.h</text>
</a>
</g>
</g>
<!-- Node5&#45;&gt;Node6 -->
<g id="edge6" class="edge">
<title>Node5&#45;&gt;Node6</title>
<path fill="none" stroke="#63b8ff" d="M677.62,-235.62C666.25,-224.82 651.82,-211.12 642.51,-202.28"/>
<polygon fill="#63b8ff" stroke="#63b8ff" points="674.92,-237.84 684.58,-242.18 679.74,-232.76 674.92,-237.84"/>
</g>
<!-- Node8 -->
<g id="node8" class="node">
<title>Node8</title>
<g id="a_node8"><a xlink:href="v8-snapshot_8h.html" target="_top" xlink:title=" ">
<polygon fill="white" stroke="#666666" points="854.25,-201.88 743.75,-201.88 743.75,-182.62 854.25,-182.62 854.25,-201.88"/>
<text text-anchor="middle" x="799" y="-188.38" font-family="Helvetica,sans-Serif" font-size="10.00">include/v8&#45;snapshot.h</text>
</a>
</g>
</g>
<!-- Node5&#45;&gt;Node8 -->
<g id="edge8" class="edge">
<title>Node5&#45;&gt;Node8</title>
<path fill="none" stroke="#63b8ff" d="M720.31,-237.8C739.87,-226.72 766.35,-211.73 783.06,-202.28"/>
<polygon fill="#63b8ff" stroke="#63b8ff" points="718.77,-235.21 711.8,-243.18 722.22,-241.3 718.77,-235.21"/>
</g>
<!-- Node7 -->
<g id="node7" class="node">
<title>Node7</title>
<g id="a_node7"><a xlink:href="v8-inspector-protocol_8h.html" target="_top" xlink:title=" ">
<polygon fill="white" stroke="#666666" points="684.5,-141 581.5,-141 581.5,-110.5 684.5,-110.5 684.5,-141"/>
<text text-anchor="start" x="589.5" y="-127.5" font-family="Helvetica,sans-Serif" font-size="10.00">include/v8&#45;inspector</text>
<text text-anchor="middle" x="633" y="-116.25" font-family="Helvetica,sans-Serif" font-size="10.00">&#45;protocol.h</text>
</a>
</g>
</g>
<!-- Node6&#45;&gt;Node7 -->
<g id="edge7" class="edge">
<title>Node6&#45;&gt;Node7</title>
<path fill="none" stroke="#63b8ff" d="M633,-171.52C633,-161.7 633,-150.05 633,-141.09"/>
<polygon fill="#63b8ff" stroke="#63b8ff" points="629.5,-171.28 633,-181.28 636.5,-171.28 629.5,-171.28"/>
</g>
<!-- Node8&#45;&gt;Node4 -->
<g id="edge13" class="edge">
<title>Node8&#45;&gt;Node4</title>
<path fill="none" stroke="#63b8ff" d="M789.44,-172.63C782.25,-156.13 774.63,-131.47 781,-110.5 789.59,-82.22 795.33,-74.21 818,-55.25 838.16,-38.38 865.69,-26.84 887.07,-19.73"/>
<polygon fill="#63b8ff" stroke="#63b8ff" points="786.52,-173.63 793.96,-181.17 792.84,-170.64 786.52,-173.63"/>
</g>
<!-- Node8&#45;&gt;Node9 -->
<g id="edge9" class="edge">
<title>Node8&#45;&gt;Node9</title>
<path fill="none" stroke="#63b8ff" d="M810.64,-173.37C818.63,-161.1 828.9,-145.33 835.21,-135.64"/>
<polygon fill="#63b8ff" stroke="#63b8ff" points="807.36,-170.99 804.84,-181.28 813.23,-174.81 807.36,-170.99"/>
</g>
<!-- Node9&#45;&gt;Node4 -->
<g id="edge12" class="edge">
<title>Node9&#45;&gt;Node4</title>
<path fill="none" stroke="#63b8ff" d="M830.46,-106.33C823.5,-91.5 817.29,-70.67 827,-55.25 839.88,-34.79 865.04,-23.5 885.94,-17.4"/>
<polygon fill="#63b8ff" stroke="#63b8ff" points="827.72,-107.64 835.44,-114.9 833.92,-104.41 827.72,-107.64"/>
</g>
<!-- Node10 -->
<g id="node10" class="node">
<title>Node10</title>
<g id="a_node10"><a xlink:href="v8-proxy_8h.html" target="_top" xlink:title=" ">
<polygon fill="white" stroke="#666666" points="929.62,-74.5 836.38,-74.5 836.38,-55.25 929.62,-55.25 929.62,-74.5"/>
<text text-anchor="middle" x="883" y="-61" font-family="Helvetica,sans-Serif" font-size="10.00">include/v8&#45;proxy.h</text>
</a>
</g>
</g>
<!-- Node9&#45;&gt;Node10 -->
<g id="edge10" class="edge">
<title>Node9&#45;&gt;Node10</title>
<path fill="none" stroke="#63b8ff" d="M853.69,-106.96C861.24,-96.38 870.5,-83.4 876.56,-74.9"/>
<polygon fill="#63b8ff" stroke="#63b8ff" points="850.34,-104.63 847.38,-114.81 856.04,-108.7 850.34,-104.63"/>
</g>
<!-- Node10&#45;&gt;Node4 -->
<g id="edge11" class="edge">
<title>Node10&#45;&gt;Node4</title>
<path fill="none" stroke="#63b8ff" d="M895.26,-46.22C901.46,-37.31 908.71,-26.87 913.76,-19.61"/>
<polygon fill="#63b8ff" stroke="#63b8ff" points="891.94,-43.87 889.11,-54.08 897.69,-47.87 891.94,-43.87"/>
</g>
<!-- Node11&#45;&gt;Node4 -->
<g id="edge19" class="edge">
<title>Node11&#45;&gt;Node4</title>
<path fill="none" stroke="#63b8ff" d="M266.23,-348.06C254.95,-340.71 243.23,-330.65 237,-318 233.22,-310.32 235.62,-307.19 237,-298.75 255.6,-184.57 232.32,-118.79 329,-55.25 375.6,-24.63 766.96,-13.87 885.87,-11.29"/>
<polygon fill="#63b8ff" stroke="#63b8ff" points="264.1,-351.46 274.48,-353.59 267.69,-345.45 264.1,-351.46"/>
</g>
<!-- Node12 -->
<g id="node12" class="node">
<title>Node12</title>
<g id="a_node12"><a xlink:href="v8-debug_8h.html" target="_top" xlink:title=" ">
<polygon fill="white" stroke="#666666" points="343.5,-318 246.5,-318 246.5,-298.75 343.5,-298.75 343.5,-318"/>
<text text-anchor="middle" x="295" y="-304.5" font-family="Helvetica,sans-Serif" font-size="10.00">include/v8&#45;debug.h</text>
</a>
</g>
</g>
<!-- Node11&#45;&gt;Node12 -->
<g id="edge16" class="edge">
<title>Node11&#45;&gt;Node12</title>
<path fill="none" stroke="#63b8ff" d="M295,-342.96C295,-334.52 295,-325.08 295,-318.36"/>
<polygon fill="#63b8ff" stroke="#63b8ff" points="291.5,-342.83 295,-352.83 298.5,-342.83 291.5,-342.83"/>
</g>
<!-- Node12&#45;&gt;Node4 -->
<g id="edge18" class="edge">
<title>Node12&#45;&gt;Node4</title>
<path fill="none" stroke="#63b8ff" d="M300.29,-287.74C305.92,-265.13 314,-226.79 314,-193.25 314,-193.25 314,-193.25 314,-124.75 314,-88.19 326.7,-74.13 358,-55.25 403.15,-28.01 770.53,-15.01 885.64,-11.58"/>
<polygon fill="#63b8ff" stroke="#63b8ff" points="296.68,-286.73 297.56,-297.29 303.46,-288.49 296.68,-286.73"/>
</g>
<!-- Node12&#45;&gt;Node5 -->
<g id="edge17" class="edge">
<title>Node12&#45;&gt;Node5</title>
<path fill="none" stroke="#63b8ff" d="M354.38,-299.47C433.29,-288.97 571.32,-270.59 645.12,-260.76"/>
<polygon fill="#63b8ff" stroke="#63b8ff" points="354.1,-296.11 344.65,-300.9 355.02,-303.05 354.1,-296.11"/>
</g>
<!-- Node13&#45;&gt;Node4 -->
<g id="edge69" class="edge">
<title>Node13&#45;&gt;Node4</title>
<path fill="none" stroke="#63b8ff" d="M404.35,-605.37C347.52,-602.45 263.83,-592.57 198,-561.5 96.04,-513.37 38,-477.38 38,-364.62 38,-364.62 38,-364.62 38,-124.75 38,-92.73 32.06,-75.33 57,-55.25 89.81,-28.83 729.47,-14.42 885.77,-11.28"/>
<polygon fill="#63b8ff" stroke="#63b8ff" points="403.85,-608.9 414,-605.85 404.16,-601.9 403.85,-608.9"/>
</g>
<!-- Node13&#45;&gt;Node5 -->
<g id="edge33" class="edge">
<title>Node13&#45;&gt;Node5</title>
<path fill="none" stroke="#63b8ff" d="M491.55,-590.74C528.47,-564.32 601.54,-506.67 640,-439.75 675.5,-377.97 689.92,-291.21 693.83,-263.22"/>
<polygon fill="#63b8ff" stroke="#63b8ff" points="489.73,-588.44 483.57,-597.06 493.76,-594.17 489.73,-588.44"/>
</g>
<!-- Node14 -->
<g id="node14" class="node">
<title>Node14</title>
<g id="a_node14"><a xlink:href="v8-extension_8h.html" target="_top" xlink:title=" ">
<polygon fill="white" stroke="#666666" points="178,-74.5 66,-74.5 66,-55.25 178,-55.25 178,-74.5"/>
<text text-anchor="middle" x="122" y="-61" font-family="Helvetica,sans-Serif" font-size="10.00">include/v8&#45;extension.h</text>
</a>
</g>
</g>
<!-- Node13&#45;&gt;Node14 -->
<g id="edge23" class="edge">
<title>Node13&#45;&gt;Node14</title>
<path fill="none" stroke="#63b8ff" d="M403.97,-596.56C292.31,-576.06 76,-516.72 76,-364.62 76,-364.62 76,-364.62 76,-191.25 76,-145.11 103.8,-94.94 116.17,-74.89"/>
<polygon fill="#63b8ff" stroke="#63b8ff" points="403.31,-600.18 413.77,-598.48 404.54,-593.29 403.31,-600.18"/>
</g>
<!-- Node15 -->
<g id="node15" class="node">
<title>Node15</title>
<g id="a_node15"><a xlink:href="v8-function-callback_8h.html" target="_top" xlink:title=" ">
<polygon fill="white" stroke="#666666" points="501.88,-561.5 404.12,-561.5 404.12,-531 501.88,-531 501.88,-561.5"/>
<text text-anchor="start" x="412.12" y="-548" font-family="Helvetica,sans-Serif" font-size="10.00">include/v8&#45;function</text>
<text text-anchor="middle" x="453" y="-536.75" font-family="Helvetica,sans-Serif" font-size="10.00">&#45;callback.h</text>
</a>
</g>
</g>
<!-- Node13&#45;&gt;Node15 -->
<g id="edge25" class="edge">
<title>Node13&#45;&gt;Node15</title>
<path fill="none" stroke="#63b8ff" d="M463.74,-586.76C461.53,-578.63 459,-569.32 456.95,-561.78"/>
<polygon fill="#63b8ff" stroke="#63b8ff" points="460.57,-587.45 466.57,-596.18 467.32,-585.62 460.57,-587.45"/>
</g>
<!-- Node19 -->
<g id="node19" class="node">
<title>Node19</title>
<g id="a_node19"><a xlink:href="v8-message_8h.html" target="_top" xlink:title=" ">
<polygon fill="white" stroke="#666666" points="274.25,-495 163.75,-495 163.75,-475.75 274.25,-475.75 274.25,-495"/>
<text text-anchor="middle" x="219" y="-481.5" font-family="Helvetica,sans-Serif" font-size="10.00">include/v8&#45;message.h</text>
</a>
</g>
</g>
<!-- Node13&#45;&gt;Node19 -->
<g id="edge34" class="edge">
<title>Node13&#45;&gt;Node19</title>
<path fill="none" stroke="#63b8ff" d="M440.38,-592.42C388.8,-567.71 281.57,-516.34 238.01,-495.48"/>
<polygon fill="#63b8ff" stroke="#63b8ff" points="438.68,-595.96 449.21,-597.12 441.7,-589.65 438.68,-595.96"/>
</g>
<!-- Node21 -->
<g id="node21" class="node">
<title>Node21</title>
<g id="a_node21"><a xlink:href="v8-object_8h.html" target="_top" xlink:title=" ">
<polygon fill="white" stroke="#666666" points="1160.5,-555.88 1063.5,-555.88 1063.5,-536.62 1160.5,-536.62 1160.5,-555.88"/>
<text text-anchor="middle" x="1112" y="-542.38" font-family="Helvetica,sans-Serif" font-size="10.00">include/v8&#45;object.h</text>
</a>
</g>
</g>
<!-- Node13&#45;&gt;Node21 -->
<g id="edge39" class="edge">
<title>Node13&#45;&gt;Node21</title>
<path fill="none" stroke="#63b8ff" d="M533.86,-600.19C662.85,-588.38 948.98,-562.18 1063.37,-551.7"/>
<polygon fill="#63b8ff" stroke="#63b8ff" points="533.63,-596.78 523.99,-601.18 534.27,-603.75 533.63,-596.78"/>
</g>
<!-- Node14&#45;&gt;Node4 -->
<g id="edge24" class="edge">
<title>Node14&#45;&gt;Node4</title>
<path fill="none" stroke="#63b8ff" d="M189.02,-55.53C190.02,-55.43 191.01,-55.34 192,-55.25 458.68,-30.67 781.62,-16.25 885.83,-11.97"/>
<polygon fill="#63b8ff" stroke="#63b8ff" points="188.72,-52.15 179.13,-56.65 189.44,-59.11 188.72,-52.15"/>
</g>
<!-- Node15&#45;&gt;Node5 -->
<g id="edge28" class="edge">
<title>Node15&#45;&gt;Node5</title>
<path fill="none" stroke="#63b8ff" d="M503.06,-526.34C540.87,-509.43 590.89,-480.9 619,-439.75 655.96,-385.65 632.54,-357.27 662,-298.75 668.76,-285.32 679.53,-271.69 686.92,-263.09"/>
<polygon fill="#63b8ff" stroke="#63b8ff" points="502.03,-523.41 494.25,-530.6 504.81,-529.83 502.03,-523.41"/>
</g>
<!-- Node16 -->
<g id="node16" class="node">
<title>Node16</title>
<g id="a_node16"><a xlink:href="v8-function_8h.html" target="_top" xlink:title=" ">
<polygon fill="white" stroke="#666666" points="479.62,-434.12 374.38,-434.12 374.38,-414.88 479.62,-414.88 479.62,-434.12"/>
<text text-anchor="middle" x="427" y="-420.62" font-family="Helvetica,sans-Serif" font-size="10.00">include/v8&#45;function.h</text>
</a>
</g>
</g>
<!-- Node15&#45;&gt;Node16 -->
<g id="edge26" class="edge">
<title>Node15&#45;&gt;Node16</title>
<path fill="none" stroke="#63b8ff" d="M447.53,-520.07C441.72,-493.31 432.85,-452.44 428.95,-434.49"/>
<polygon fill="#63b8ff" stroke="#63b8ff" points="444.27,-520.54 449.81,-529.57 451.11,-519.05 444.27,-520.54"/>
</g>
<!-- Node15&#45;&gt;Node17 -->
<g id="edge29" class="edge">
<title>Node15&#45;&gt;Node17</title>
<path fill="none" stroke="#63b8ff" d="M416.7,-525.27C398.28,-515.14 376.81,-503.33 362.41,-495.4"/>
<polygon fill="#63b8ff" stroke="#63b8ff" points="414.83,-528.79 425.28,-530.55 418.2,-522.66 414.83,-528.79"/>
</g>
<!-- Node18 -->
<g id="node18" class="node">
<title>Node18</title>
<g id="a_node18"><a xlink:href="v8-util_8h.html" target="_top" xlink:title=" ">
<polygon fill="white" stroke="#666666" points="539.75,-495 456.25,-495 456.25,-475.75 539.75,-475.75 539.75,-495"/>
<text text-anchor="middle" x="498" y="-481.5" font-family="Helvetica,sans-Serif" font-size="10.00">include/v8&#45;util.h</text>
</a>
</g>
</g>
<!-- Node15&#45;&gt;Node18 -->
<g id="edge32" class="edge">
<title>Node15&#45;&gt;Node18</title>
<path fill="none" stroke="#63b8ff" d="M470.66,-522.15C477.8,-512.8 485.62,-502.57 491.06,-495.45"/>
<polygon fill="#63b8ff" stroke="#63b8ff" points="467.42,-519.63 464.12,-529.7 472.98,-523.88 467.42,-519.63"/>
</g>
<!-- Node16&#45;&gt;Node4 -->
<g id="edge27" class="edge">
<title>Node16&#45;&gt;Node4</title>
<path fill="none" stroke="#63b8ff" d="M422.26,-403.84C417.23,-381.2 410,-342.83 410,-309.38 410,-309.38 410,-309.38 410,-124.75 410,-26.99 771.4,-12.95 885.75,-10.95"/>
<polygon fill="#63b8ff" stroke="#63b8ff" points="419.04,-404.44 424.71,-413.4 425.86,-402.87 419.04,-404.44"/>
</g>
<!-- Node17&#45;&gt;Node4 -->
<g id="edge31" class="edge">
<title>Node17&#45;&gt;Node4</title>
<path fill="none" stroke="#63b8ff" d="M349.69,-464.95C356.86,-425.41 372,-332.7 372,-254.12 372,-254.12 372,-254.12 372,-124.75 372,-78.32 407.44,-73.81 450,-55.25 528.42,-21.05 791.46,-12.95 885.89,-11.13"/>
<polygon fill="#63b8ff" stroke="#63b8ff" points="346.09,-464.16 347.71,-474.63 352.97,-465.44 346.09,-464.16"/>
</g>
<!-- Node17&#45;&gt;Node16 -->
<g id="edge30" class="edge">
<title>Node17&#45;&gt;Node16</title>
<path fill="none" stroke="#63b8ff" d="M366.98,-469.13C382.08,-458.15 401.93,-443.72 414.58,-434.53"/>
<polygon fill="#63b8ff" stroke="#63b8ff" points="365.33,-466.72 359.3,-475.43 369.45,-472.38 365.33,-466.72"/>
</g>
<!-- Node19&#45;&gt;Node4 -->
<g id="edge38" class="edge">
<title>Node19&#45;&gt;Node4</title>
<path fill="none" stroke="#63b8ff" d="M195.39,-469.02C185.94,-461.46 176.1,-451.45 171,-439.75 165.59,-427.32 169.15,-422.68 171,-409.25 193.88,-243.37 151.44,-132.51 300,-55.25 352.06,-28.18 763.2,-14.89 885.68,-11.51"/>
<polygon fill="#63b8ff" stroke="#63b8ff" points="193.04,-472.38 203.17,-475.49 197.2,-466.74 193.04,-472.38"/>
</g>
<!-- Node19&#45;&gt;Node11 -->
<g id="edge37" class="edge">
<title>Node19&#45;&gt;Node11</title>
<path fill="none" stroke="#63b8ff" d="M253.27,-470.69C266.69,-463.53 280.81,-453.37 289,-439.75 301.54,-418.9 299.03,-388.69 296.71,-373.73"/>
<polygon fill="#63b8ff" stroke="#63b8ff" points="252.15,-467.83 244.72,-475.38 255.24,-474.12 252.15,-467.83"/>
</g>
<!-- Node19&#45;&gt;Node16 -->
<g id="edge35" class="edge">
<title>Node19&#45;&gt;Node16</title>
<path fill="none" stroke="#63b8ff" d="M261.42,-472.37C300.98,-461.17 359.1,-444.72 394.92,-434.58"/>
<polygon fill="#63b8ff" stroke="#63b8ff" points="260.71,-469.21 252.04,-475.3 262.62,-475.95 260.71,-469.21"/>
</g>
<!-- Node20 -->
<g id="node20" class="node">
<title>Node20</title>
<g id="a_node20"><a xlink:href="v8-profiler_8h.html" target="_top" xlink:title=" ">
<polygon fill="white" stroke="#666666" points="279.62,-434.12 180.38,-434.12 180.38,-414.88 279.62,-414.88 279.62,-434.12"/>
<text text-anchor="middle" x="230" y="-420.62" font-family="Helvetica,sans-Serif" font-size="10.00">include/v8&#45;profiler.h</text>
</a>
</g>
</g>
<!-- Node19&#45;&gt;Node20 -->
<g id="edge36" class="edge">
<title>Node19&#45;&gt;Node20</title>
<path fill="none" stroke="#63b8ff" d="M222.63,-464.95C224.55,-454.69 226.81,-442.59 228.31,-434.53"/>
<polygon fill="#63b8ff" stroke="#63b8ff" points="219.07,-463.96 220.67,-474.43 225.95,-465.25 219.07,-463.96"/>
</g>
<!-- Node21&#45;&gt;Node4 -->
<g id="edge68" class="edge">
<title>Node21&#45;&gt;Node4</title>
<path fill="none" stroke="#63b8ff" d="M1127.28,-528.18C1152.28,-498.97 1200.96,-436.41 1219,-373.25 1243.82,-286.38 1199.21,-261.02 1166,-177 1142.64,-117.89 1143.88,-90.51 1091,-55.25 1049.13,-27.34 990.73,-16.87 954.16,-12.96"/>
<polygon fill="#63b8ff" stroke="#63b8ff" points="1124,-525.62 1120.06,-535.45 1129.27,-530.22 1124,-525.62"/>
</g>
<!-- Node21&#45;&gt;Node10 -->
<g id="edge62" class="edge">
<title>Node21&#45;&gt;Node10</title>
<path fill="none" stroke="#63b8ff" d="M1052.76,-541.82C1016.07,-536.65 970.48,-524.26 941,-495 918.1,-472.27 920,-457.77 920,-425.5 920,-425.5 920,-425.5 920,-191.25 920,-145.86 897.42,-94.87 887.54,-74.73"/>
<polygon fill="#63b8ff" stroke="#63b8ff" points="1051.99,-545.37 1062.34,-543.15 1052.86,-538.43 1051.99,-545.37"/>
</g>
<!-- Node21&#45;&gt;Node16 -->
<g id="edge53" class="edge">
<title>Node21&#45;&gt;Node16</title>
<path fill="none" stroke="#63b8ff" d="M1052.73,-536.39C941.74,-519.54 695.15,-480.86 489,-439.75 481.2,-438.19 472.89,-436.39 464.96,-434.59"/>
<polygon fill="#63b8ff" stroke="#63b8ff" points="1051.94,-539.96 1062.36,-538 1052.99,-533.04 1051.94,-539.96"/>
</g>
<!-- Node21&#45;&gt;Node17 -->
<g id="edge65" class="edge">
<title>Node21&#45;&gt;Node17</title>
<path fill="none" stroke="#63b8ff" d="M1052.39,-540.94C935.99,-532.49 670.32,-512.97 447,-495 431.91,-493.79 415.57,-492.41 400.51,-491.13"/>
<polygon fill="#63b8ff" stroke="#63b8ff" points="1051.95,-544.49 1062.18,-541.73 1052.46,-537.51 1051.95,-544.49"/>
</g>
<!-- Node22 -->
<g id="node22" class="node">
<title>Node22</title>
<g id="a_node22"><a xlink:href="v8-array-buffer_8h.html" target="_top" xlink:title=" ">
<polygon fill="white" stroke="#666666" points="1513.38,-318 1394.62,-318 1394.62,-298.75 1513.38,-298.75 1513.38,-318"/>
<text text-anchor="middle" x="1454" y="-304.5" font-family="Helvetica,sans-Serif" font-size="10.00">include/v8&#45;array&#45;buffer.h</text>
</a>
</g>
</g>
<!-- Node21&#45;&gt;Node22 -->
<g id="edge40" class="edge">
<title>Node21&#45;&gt;Node22</title>
<path fill="none" stroke="#63b8ff" d="M1171.15,-538.24C1221.06,-531.09 1293.79,-517.75 1354,-495 1400.41,-477.46 1425.58,-482.35 1451,-439.75 1474.67,-400.09 1462.52,-340.85 1456.61,-318.42"/>
<polygon fill="#63b8ff" stroke="#63b8ff" points="1170.97,-534.87 1161.54,-539.71 1171.93,-541.8 1170.97,-534.87"/>
</g>
<!-- Node25 -->
<g id="node25" class="node">
<title>Node25</title>
<g id="a_node25"><a xlink:href="v8-container_8h.html" target="_top" xlink:title=" ">
<polygon fill="white" stroke="#666666" points="1286.25,-135.38 1175.75,-135.38 1175.75,-116.12 1286.25,-116.12 1286.25,-135.38"/>
<text text-anchor="middle" x="1231" y="-121.88" font-family="Helvetica,sans-Serif" font-size="10.00">include/v8&#45;container.h</text>
</a>
</g>
</g>
<!-- Node21&#45;&gt;Node25 -->
<g id="edge46" class="edge">
<title>Node21&#45;&gt;Node25</title>
<path fill="none" stroke="#63b8ff" d="M1171.25,-536.15C1198.96,-529.13 1230.52,-516.75 1252,-495 1274.97,-471.75 1276,-458.18 1276,-425.5 1276,-425.5 1276,-425.5 1276,-252.12 1276,-206.1 1248.81,-155.87 1236.7,-135.78"/>
<polygon fill="#63b8ff" stroke="#63b8ff" points="1170.78,-532.9 1161.85,-538.59 1172.38,-539.72 1170.78,-532.9"/>
</g>
<!-- Node26 -->
<g id="node26" class="node">
<title>Node26</title>
<g id="a_node26"><a xlink:href="v8-date_8h.html" target="_top" xlink:title=" ">
<polygon fill="white" stroke="#666666" points="1318.75,-74.5 1229.25,-74.5 1229.25,-55.25 1318.75,-55.25 1318.75,-74.5"/>
<text text-anchor="middle" x="1274" y="-61" font-family="Helvetica,sans-Serif" font-size="10.00">include/v8&#45;date.h</text>
</a>
</g>
</g>
<!-- Node21&#45;&gt;Node26 -->
<g id="edge48" class="edge">
<title>Node21&#45;&gt;Node26</title>
<path fill="none" stroke="#63b8ff" d="M1171.36,-535.91C1230.95,-522.76 1314,-492.42 1314,-425.5 1314,-425.5 1314,-425.5 1314,-191.25 1314,-145.78 1289.83,-95.24 1279.07,-74.99"/>
<polygon fill="#63b8ff" stroke="#63b8ff" points="1170.97,-532.62 1161.9,-538.1 1172.4,-539.47 1170.97,-532.62"/>
</g>
<!-- Node27 -->
<g id="node27" class="node">
<title>Node27</title>
<g id="a_node27"><a xlink:href="v8-exception_8h.html" target="_top" xlink:title=" ">
<polygon fill="white" stroke="#666666" points="892,-318 780,-318 780,-298.75 892,-298.75 892,-318"/>
<text text-anchor="middle" x="836" y="-304.5" font-family="Helvetica,sans-Serif" font-size="10.00">include/v8&#45;exception.h</text>
</a>
</g>
</g>
<!-- Node21&#45;&gt;Node27 -->
<g id="edge50" class="edge">
<title>Node21&#45;&gt;Node27</title>
<path fill="none" stroke="#63b8ff" d="M1052.41,-545.09C1007.17,-541.89 946.1,-530.51 906,-495 850.56,-445.91 838.87,-348.35 836.55,-318.36"/>
<polygon fill="#63b8ff" stroke="#63b8ff" points="1052.07,-548.64 1062.26,-545.73 1052.48,-541.65 1052.07,-548.64"/>
</g>
<!-- Node28 -->
<g id="node28" class="node">
<title>Node28</title>
<g id="a_node28"><a xlink:href="v8-primitive-object_8h.html" target="_top" xlink:title=" ">
<polygon fill="white" stroke="#666666" points="1442,-439.75 1342,-439.75 1342,-409.25 1442,-409.25 1442,-439.75"/>
<text text-anchor="start" x="1350" y="-426.25" font-family="Helvetica,sans-Serif" font-size="10.00">include/v8&#45;primitive</text>
<text text-anchor="middle" x="1392" y="-415" font-family="Helvetica,sans-Serif" font-size="10.00">&#45;object.h</text>
</a>
</g>
</g>
<!-- Node21&#45;&gt;Node28 -->
<g id="edge54" class="edge">
<title>Node21&#45;&gt;Node28</title>
<path fill="none" stroke="#63b8ff" d="M1171.8,-540.9C1217.24,-535.42 1279.9,-523.02 1328,-495 1351.53,-481.29 1371.45,-456.14 1382.55,-440.15"/>
<polygon fill="#63b8ff" stroke="#63b8ff" points="1171.48,-537.53 1161.93,-542.13 1172.26,-544.49 1171.48,-537.53"/>
</g>
<!-- Node29 -->
<g id="node29" class="node">
<title>Node29</title>
<g id="a_node29"><a xlink:href="v8-promise_8h.html" target="_top" xlink:title=" ">
<polygon fill="white" stroke="#666666" points="1055.62,-495 950.38,-495 950.38,-475.75 1055.62,-475.75 1055.62,-495"/>
<text text-anchor="middle" x="1003" y="-481.5" font-family="Helvetica,sans-Serif" font-size="10.00">include/v8&#45;promise.h</text>
</a>
</g>
</g>
<!-- Node21&#45;&gt;Node29 -->
<g id="edge56" class="edge">
<title>Node21&#45;&gt;Node29</title>
<path fill="none" stroke="#63b8ff" d="M1086.04,-531.23C1065.48,-520.12 1037.38,-504.94 1019.71,-495.4"/>
<polygon fill="#63b8ff" stroke="#63b8ff" points="1083.98,-534.64 1094.45,-536.31 1087.31,-528.48 1083.98,-534.64"/>
</g>
<!-- Node31 -->
<g id="node31" class="node">
<title>Node31</title>
<g id="a_node31"><a xlink:href="v8-regexp_8h.html" target="_top" xlink:title=" ">
<polygon fill="white" stroke="#666666" points="1161.62,-262.75 1062.38,-262.75 1062.38,-243.5 1161.62,-243.5 1161.62,-262.75"/>
<text text-anchor="middle" x="1112" y="-249.25" font-family="Helvetica,sans-Serif" font-size="10.00">include/v8&#45;regexp.h</text>
</a>
</g>
</g>
<!-- Node21&#45;&gt;Node31 -->
<g id="edge63" class="edge">
<title>Node21&#45;&gt;Node31</title>
<path fill="none" stroke="#63b8ff" d="M1110.12,-525.6C1107.04,-490.95 1101.49,-416.7 1104,-354 1105.34,-320.45 1109.21,-280.72 1111.03,-263.2"/>
<polygon fill="#63b8ff" stroke="#63b8ff" points="1106.72,-525.85 1111.12,-535.48 1113.69,-525.2 1106.72,-525.85"/>
</g>
<!-- Node32 -->
<g id="node32" class="node">
<title>Node32</title>
<g id="a_node32"><a xlink:href="v8-wasm_8h.html" target="_top" xlink:title=" ">
<polygon fill="white" stroke="#666666" points="1209.5,-373.25 1112.5,-373.25 1112.5,-354 1209.5,-354 1209.5,-373.25"/>
<text text-anchor="middle" x="1161" y="-359.75" font-family="Helvetica,sans-Serif" font-size="10.00">include/v8&#45;wasm.h</text>
</a>
</g>
</g>
<!-- Node21&#45;&gt;Node32 -->
<g id="edge66" class="edge">
<title>Node21&#45;&gt;Node32</title>
<path fill="none" stroke="#63b8ff" d="M1117.23,-525.97C1127.71,-487.32 1150.95,-401.67 1158.54,-373.67"/>
<polygon fill="#63b8ff" stroke="#63b8ff" points="1113.6,-524.97 1114.36,-535.54 1120.36,-526.8 1113.6,-524.97"/>
</g>
<!-- Node22&#45;&gt;Node4 -->
<g id="edge45" class="edge">
<title>Node22&#45;&gt;Node4</title>
<path fill="none" stroke="#63b8ff" d="M1433.66,-291.42C1424.94,-283.62 1415.32,-273.58 1409,-262.75 1392.86,-235.09 1390,-225.27 1390,-193.25 1390,-193.25 1390,-193.25 1390,-124.75 1390,-92.07 1391.63,-75.52 1366,-55.25 1333.88,-29.85 1053.03,-16.05 954.21,-11.95"/>
<polygon fill="#63b8ff" stroke="#63b8ff" points="1431.03,-294.63 1440.93,-298.42 1435.56,-289.28 1431.03,-294.63"/>
</g>
<!-- Node22&#45;&gt;Node5 -->
<g id="edge41" class="edge">
<title>Node22&#45;&gt;Node5</title>
<path fill="none" stroke="#63b8ff" d="M1383.54,-302.43C1231.48,-291.76 875.73,-266.8 744.64,-257.61"/>
<polygon fill="#63b8ff" stroke="#63b8ff" points="1382.91,-305.97 1393.13,-303.17 1383.4,-298.98 1382.91,-305.97"/>
</g>
<!-- Node23 -->
<g id="node23" class="node">
<title>Node23</title>
<g id="a_node23"><a xlink:href="v8-typed-array_8h.html" target="_top" xlink:title=" ">
<polygon fill="white" stroke="#666666" points="1536,-262.75 1418,-262.75 1418,-243.5 1536,-243.5 1536,-262.75"/>
<text text-anchor="middle" x="1477" y="-249.25" font-family="Helvetica,sans-Serif" font-size="10.00">include/v8&#45;typed&#45;array.h</text>
</a>
</g>
</g>
<!-- Node22&#45;&gt;Node23 -->
<g id="edge42" class="edge">
<title>Node22&#45;&gt;Node23</title>
<path fill="none" stroke="#63b8ff" d="M1462.12,-288.58C1465.86,-279.92 1470.12,-270.06 1473.12,-263.11"/>
<polygon fill="#63b8ff" stroke="#63b8ff" points="1458.55,-287.01 1457.8,-297.58 1464.98,-289.79 1458.55,-287.01"/>
</g>
<!-- Node23&#45;&gt;Node4 -->
<g id="edge44" class="edge">
<title>Node23&#45;&gt;Node4</title>
<path fill="none" stroke="#63b8ff" d="M1471.06,-232.59C1456.42,-185.09 1418.77,-66.57 1404,-55.25 1368.42,-27.98 1058.42,-15.24 954.09,-11.69"/>
<polygon fill="#63b8ff" stroke="#63b8ff" points="1467.98,-233.49 1474.25,-242.03 1474.67,-231.44 1467.98,-233.49"/>
</g>
<!-- Node24 -->
<g id="node24" class="node">
<title>Node24</title>
<g id="a_node24"><a xlink:href="v8-fast-api-calls_8h.html" target="_top" xlink:title=" ">
<polygon fill="white" stroke="#666666" points="1568.75,-207.5 1473.25,-207.5 1473.25,-177 1568.75,-177 1568.75,-207.5"/>
<text text-anchor="start" x="1481.25" y="-194" font-family="Helvetica,sans-Serif" font-size="10.00">include/v8&#45;fast&#45;api</text>
<text text-anchor="middle" x="1521" y="-182.75" font-family="Helvetica,sans-Serif" font-size="10.00">&#45;calls.h</text>
</a>
</g>
</g>
<!-- Node23&#45;&gt;Node24 -->
<g id="edge43" class="edge">
<title>Node23&#45;&gt;Node24</title>
<path fill="none" stroke="#63b8ff" d="M1490.22,-234.43C1496.59,-225.92 1504.12,-215.84 1510.14,-207.78"/>
<polygon fill="#63b8ff" stroke="#63b8ff" points="1486.87,-232.08 1483.68,-242.18 1492.47,-236.27 1486.87,-232.08"/>
</g>
<!-- Node25&#45;&gt;Node4 -->
<g id="edge47" class="edge">
<title>Node25&#45;&gt;Node4</title>
<path fill="none" stroke="#63b8ff" d="M1218.65,-107.25C1206.25,-91.07 1185.63,-67.72 1162,-55.25 1094.37,-19.55 1003,-11.96 954.16,-10.62"/>
<polygon fill="#63b8ff" stroke="#63b8ff" points="1216.21,-108.83 1224.96,-114.8 1221.84,-104.68 1216.21,-108.83"/>
</g>
<!-- Node26&#45;&gt;Node4 -->
<g id="edge49" class="edge">
<title>Node26&#45;&gt;Node4</title>
<path fill="none" stroke="#63b8ff" d="M1218.29,-55.49C1144.23,-44.35 1015.58,-25 954.33,-15.79"/>
<polygon fill="#63b8ff" stroke="#63b8ff" points="1217.4,-59.05 1227.81,-57.08 1218.44,-52.13 1217.4,-59.05"/>
</g>
<!-- Node27&#45;&gt;Node4 -->
<g id="edge52" class="edge">
<title>Node27&#45;&gt;Node4</title>
<path fill="none" stroke="#63b8ff" d="M848.48,-289.47C861.63,-269.99 882.31,-237.61 896,-207.5 921.72,-150.95 929.33,-135.87 939,-74.5 940.33,-66.05 940.71,-63.63 939,-55.25 936.34,-42.21 929.73,-28.27 925.05,-19.51"/>
<polygon fill="#63b8ff" stroke="#63b8ff" points="845.13,-287.17 842.36,-297.4 850.9,-291.13 845.13,-287.17"/>
</g>
<!-- Node27&#45;&gt;Node5 -->
<g id="edge51" class="edge">
<title>Node27&#45;&gt;Node5</title>
<path fill="none" stroke="#63b8ff" d="M802.05,-294.55C776.41,-284.87 741.86,-271.82 719.04,-263.2"/>
<polygon fill="#63b8ff" stroke="#63b8ff" points="800.49,-298.08 811.08,-298.34 802.96,-291.53 800.49,-298.08"/>
</g>
<!-- Node28&#45;&gt;Node4 -->
<g id="edge55" class="edge">
<title>Node28&#45;&gt;Node4</title>
<path fill="none" stroke="#63b8ff" d="M1378.28,-399.52C1366.71,-376.99 1352,-341.96 1352,-309.38 1352,-309.38 1352,-309.38 1352,-124.75 1352,-92.07 1353.54,-75.64 1328,-55.25 1299.01,-32.11 1047.19,-17.09 954.26,-12.29"/>
<polygon fill="#63b8ff" stroke="#63b8ff" points="1375.52,-400.77 1383.32,-407.94 1381.69,-397.47 1375.52,-400.77"/>
</g>
<!-- Node29&#45;&gt;Node2 -->
<g id="edge57" class="edge">
<title>Node29&#45;&gt;Node2</title>
<path fill="none" stroke="#63b8ff" d="M939.29,-476.02C851.42,-464.5 694.39,-443.91 610.5,-432.91"/>
<polygon fill="#63b8ff" stroke="#63b8ff" points="938.8,-479.62 949.17,-477.45 939.71,-472.68 938.8,-479.62"/>
</g>
<!-- Node29&#45;&gt;Node4 -->
<g id="edge61" class="edge">
<title>Node29&#45;&gt;Node4</title>
<path fill="none" stroke="#63b8ff" d="M1012.78,-465.76C1027.98,-435.68 1056.58,-374.1 1067,-318 1068.56,-309.59 1068.58,-307.16 1067,-298.75 1063.83,-281.88 1058.38,-279.05 1053,-262.75 1042.96,-232.34 1034,-225.27 1034,-193.25 1034,-193.25 1034,-193.25 1034,-124.75 1034,-72.52 973.5,-35.82 940.64,-19.74"/>
<polygon fill="#63b8ff" stroke="#63b8ff" points="1009.31,-463.85 1007.85,-474.34 1015.54,-467.05 1009.31,-463.85"/>
</g>
<!-- Node30 -->
<g id="node30" class="node">
<title>Node30</title>
<g id="a_node30"><a xlink:href="v8-statistics_8h.html" target="_top" xlink:title=" ">
<polygon fill="white" stroke="#666666" points="1058.25,-318 947.75,-318 947.75,-298.75 1058.25,-298.75 1058.25,-318"/>
<text text-anchor="middle" x="1003" y="-304.5" font-family="Helvetica,sans-Serif" font-size="10.00">include/v8&#45;statistics.h</text>
</a>
</g>
</g>
<!-- Node29&#45;&gt;Node30 -->
<g id="edge58" class="edge">
<title>Node29&#45;&gt;Node30</title>
<path fill="none" stroke="#63b8ff" d="M1003,-464.89C1003,-427.24 1003,-345.77 1003,-318.49"/>
<polygon fill="#63b8ff" stroke="#63b8ff" points="999.5,-464.46 1003,-474.46 1006.5,-464.46 999.5,-464.46"/>
</g>
<!-- Node30&#45;&gt;Node4 -->
<g id="edge60" class="edge">
<title>Node30&#45;&gt;Node4</title>
<path fill="none" stroke="#63b8ff" d="M1001.05,-287.63C998.98,-264.89 996,-226.41 996,-193.25 996,-193.25 996,-193.25 996,-124.75 996,-92.07 990.37,-82.28 972,-55.25 961.97,-40.49 945.84,-27.71 934.2,-19.65"/>
<polygon fill="#63b8ff" stroke="#63b8ff" points="997.66,-287.88 1002.08,-297.51 1004.62,-287.22 997.66,-287.88"/>
</g>
<!-- Node30&#45;&gt;Node5 -->
<g id="edge59" class="edge">
<title>Node30&#45;&gt;Node5</title>
<path fill="none" stroke="#63b8ff" d="M939.61,-296.41C881.99,-286.45 798.12,-271.95 745.08,-262.78"/>
<polygon fill="#63b8ff" stroke="#63b8ff" points="938.95,-300.03 949.4,-298.28 940.15,-293.13 938.95,-300.03"/>
</g>
<!-- Node31&#45;&gt;Node4 -->
<g id="edge64" class="edge">
<title>Node31&#45;&gt;Node4</title>
<path fill="none" stroke="#63b8ff" d="M1111.18,-232.39C1108.49,-193.26 1097.01,-105.3 1048,-55.25 1023.06,-29.77 982.81,-18.82 954.1,-14.13"/>
<polygon fill="#63b8ff" stroke="#63b8ff" points="1107.73,-232.48 1111.78,-242.27 1114.72,-232.09 1107.73,-232.48"/>
</g>
<!-- Node32&#45;&gt;Node4 -->
<g id="edge67" class="edge">
<title>Node32&#45;&gt;Node4</title>
<path fill="none" stroke="#63b8ff" d="M1166.45,-343.36C1172.32,-319.54 1179.73,-277.92 1171,-243.5 1159.31,-197.38 1105.92,-85.26 1069,-55.25 1035.9,-28.34 986.9,-17.65 954.23,-13.4"/>
<polygon fill="#63b8ff" stroke="#63b8ff" points="1162.86,-342.23 1163.69,-352.79 1169.63,-344.02 1162.86,-342.23"/>
</g>
<!-- Node33&#45;&gt;Node4 -->
<g id="edge78" class="edge">
<title>Node33&#45;&gt;Node4</title>
<path fill="none" stroke="#63b8ff" d="M1476.9,-660.75C1554.33,-656.5 1682,-636.03 1682,-547.25 1682,-547.25 1682,-547.25 1682,-124.75 1682,-43.54 1592.03,-73.97 1513,-55.25 1405.63,-29.81 1064.14,-15.74 954.35,-11.79"/>
<polygon fill="#63b8ff" stroke="#63b8ff" points="1477.15,-657.28 1467.32,-661.24 1477.48,-664.27 1477.15,-657.28"/>
</g>
<!-- Node33&#45;&gt;Node13 -->
<g id="edge77" class="edge">
<title>Node33&#45;&gt;Node13</title>
<path fill="none" stroke="#63b8ff" d="M1360.76,-658.11C1189.43,-648.51 688.78,-620.44 523.01,-611.15"/>
<polygon fill="#63b8ff" stroke="#63b8ff" points="1360.38,-661.65 1370.56,-658.72 1360.78,-654.66 1360.38,-661.65"/>
</g>
<!-- Node33&#45;&gt;Node21 -->
<g id="edge76" class="edge">
<title>Node33&#45;&gt;Node21</title>
<path fill="none" stroke="#63b8ff" d="M1384.49,-648.55C1321.79,-625.24 1190.65,-576.49 1136.35,-556.3"/>
<polygon fill="#63b8ff" stroke="#63b8ff" points="1383.06,-652.12 1393.65,-652.32 1385.5,-645.56 1383.06,-652.12"/>
</g>
<!-- Node33&#45;&gt;Node24 -->
<g id="edge75" class="edge">
<title>Node33&#45;&gt;Node24</title>
<path fill="none" stroke="#63b8ff" d="M1445.77,-646.93C1476.29,-628.29 1522,-592.77 1522,-547.25 1522,-547.25 1522,-547.25 1522,-423.5 1522,-342.85 1562.82,-322.16 1545,-243.5 1542.09,-230.68 1535.5,-217.3 1529.96,-207.57"/>
<polygon fill="#63b8ff" stroke="#63b8ff" points="1444.33,-644.3 1437.47,-652.38 1447.87,-650.34 1444.33,-644.3"/>
</g>
<!-- Node34 -->
<g id="node34" class="node">
<title>Node34</title>
<g id="a_node34"><a xlink:href="v8-external_8h.html" target="_top" xlink:title=" ">
<polygon fill="white" stroke="#666666" points="1654.25,-373.25 1549.75,-373.25 1549.75,-354 1654.25,-354 1654.25,-373.25"/>
<text text-anchor="middle" x="1602" y="-359.75" font-family="Helvetica,sans-Serif" font-size="10.00">include/v8&#45;external.h</text>
</a>
</g>
</g>
<!-- Node33&#45;&gt;Node34 -->
<g id="edge73" class="edge">
<title>Node33&#45;&gt;Node34</title>
<path fill="none" stroke="#63b8ff" d="M1468.28,-649.12C1515.94,-633.97 1581,-603.06 1581,-547.25 1581,-547.25 1581,-547.25 1581,-484.38 1581,-442.37 1593.69,-393.31 1599.34,-373.54"/>
<polygon fill="#63b8ff" stroke="#63b8ff" points="1467.36,-646.05 1458.8,-652.29 1469.39,-652.75 1467.36,-646.05"/>
</g>
<!-- Node34&#45;&gt;Node4 -->
<g id="edge74" class="edge">
<title>Node34&#45;&gt;Node4</title>
<path fill="none" stroke="#63b8ff" d="M1602,-342.87C1602,-321.12 1602,-285.13 1602,-254.12 1602,-254.12 1602,-254.12 1602,-124.75 1602,-39.41 1506.11,-74.66 1423,-55.25 1250.12,-14.88 1036.01,-10.45 954.07,-10.37"/>
<polygon fill="#63b8ff" stroke="#63b8ff" points="1598.5,-342.62 1602,-352.62 1605.5,-342.62 1598.5,-342.62"/>
</g>
</g>
</svg>
