<?xml version="1.0" encoding="UTF-8" standalone="no"?>
<!DOCTYPE svg PUBLIC "-//W3C//DTD SVG 1.1//EN"
 "http://www.w3.org/Graphics/SVG/1.1/DTD/svg11.dtd">
<!-- Generated by graphviz version 8.0.5 (20230430.1635)
 -->
<!-- Title: include/v8&#45;inspector.h Pages: 1 -->
<svg width="3037pt" height="801pt"
 viewBox="0.00 0.00 3036.57 800.75" xmlns="http://www.w3.org/2000/svg" xmlns:xlink="http://www.w3.org/1999/xlink">
<g id="graph0" class="graph" transform="scale(1 1) rotate(0) translate(4 796.75)">
<title>include/v8&#45;inspector.h</title>
<!-- Node1 -->
<g id="node1" class="node">
<title>Node1</title>
<g id="a_node1"><a xlink:title=" ">
<polygon fill="#999999" stroke="#666666" points="155.25,-792.75 44.75,-792.75 44.75,-773.5 155.25,-773.5 155.25,-792.75"/>
<text text-anchor="middle" x="100" y="-779.25" font-family="Helvetica,sans-Serif" font-size="10.00">include/v8&#45;inspector.h</text>
</a>
</g>
</g>
<!-- Node2 -->
<g id="node2" class="node">
<title>Node2</title>
<g id="a_node2"><a xlink:title=" ">
<polygon fill="#e0e0e0" stroke="#999999" points="313.75,-74.5 266.25,-74.5 266.25,-55.25 313.75,-55.25 313.75,-74.5"/>
<text text-anchor="middle" x="290" y="-61" font-family="Helvetica,sans-Serif" font-size="10.00">stdint.h</text>
</a>
</g>
</g>
<!-- Node1&#45;&gt;Node2 -->
<g id="edge1" class="edge">
<title>Node1&#45;&gt;Node2</title>
<path fill="none" stroke="#63b8ff" d="M100,-773.12C100,-754.53 100,-710.55 100,-673.62 100,-673.62 100,-673.62 100,-395.38 100,-255.64 140.6,-215.32 233,-110.5 242.87,-99.3 255.85,-88.89 266.93,-80.95"/>
<polygon fill="#63b8ff" stroke="#63b8ff" points="268.45,-83.46 274.68,-74.89 264.46,-77.7 268.45,-83.46"/>
</g>
<!-- Node3 -->
<g id="node3" class="node">
<title>Node3</title>
<g id="a_node3"><a xlink:title=" ">
<polygon fill="#e0e0e0" stroke="#999999" points="72.25,-737.5 27.75,-737.5 27.75,-718.25 72.25,-718.25 72.25,-737.5"/>
<text text-anchor="middle" x="50" y="-724" font-family="Helvetica,sans-Serif" font-size="10.00">cctype</text>
</a>
</g>
</g>
<!-- Node1&#45;&gt;Node3 -->
<g id="edge2" class="edge">
<title>Node1&#45;&gt;Node3</title>
<path fill="none" stroke="#63b8ff" d="M91.74,-773.33C84.69,-765.82 74.35,-754.81 65.73,-745.63"/>
<polygon fill="#63b8ff" stroke="#63b8ff" points="68.83,-743.75 59.44,-738.86 63.73,-748.55 68.83,-743.75"/>
</g>
<!-- Node4 -->
<g id="node4" class="node">
<title>Node4</title>
<g id="a_node4"><a xlink:title=" ">
<polygon fill="#e0e0e0" stroke="#999999" points="1641.25,-19.25 1590.75,-19.25 1590.75,0 1641.25,0 1641.25,-19.25"/>
<text text-anchor="middle" x="1616" y="-5.75" font-family="Helvetica,sans-Serif" font-size="10.00">memory</text>
</a>
</g>
</g>
<!-- Node1&#45;&gt;Node4 -->
<g id="edge3" class="edge">
<title>Node1&#45;&gt;Node4</title>
<path fill="none" stroke="#63b8ff" d="M72.32,-773.11C54.7,-766.04 32.7,-754.5 19,-737.5 0.42,-714.44 0,-703.24 0,-673.62 0,-673.62 0,-673.62 0,-119.12 0,-58.31 62.2,-70.75 121,-55.25 265.85,-17.06 1364.25,-11.46 1579.48,-10.73"/>
<polygon fill="#63b8ff" stroke="#63b8ff" points="1579.46,-14.22 1589.45,-10.69 1579.44,-7.22 1579.46,-14.22"/>
</g>
<!-- Node5 -->
<g id="node5" class="node">
<title>Node5</title>
<g id="a_node5"><a xlink:href="v8-isolate_8h.html" target="_top" xlink:title=" ">
<polygon fill="white" stroke="#666666" points="1853.75,-737.5 1788.25,-737.5 1788.25,-718.25 1853.75,-718.25 1853.75,-737.5"/>
<text text-anchor="middle" x="1821" y="-724" font-family="Helvetica,sans-Serif" font-size="10.00">v8&#45;isolate.h</text>
</a>
</g>
</g>
<!-- Node1&#45;&gt;Node5 -->
<g id="edge4" class="edge">
<title>Node1&#45;&gt;Node5</title>
<path fill="none" stroke="#63b8ff" d="M155.31,-780.41C418.39,-772.27 1540.13,-737.57 1776.98,-730.24"/>
<polygon fill="#63b8ff" stroke="#63b8ff" points="1777.01,-733.71 1786.89,-729.9 1776.79,-726.71 1777.01,-733.71"/>
</g>
<!-- Node11 -->
<g id="node11" class="node">
<title>Node11</title>
<g id="a_node11"><a xlink:href="v8-local-handle_8h.html" target="_top" xlink:title=" ">
<polygon fill="white" stroke="#666666" points="1118.38,-240.25 1029.62,-240.25 1029.62,-221 1118.38,-221 1118.38,-240.25"/>
<text text-anchor="middle" x="1074" y="-226.75" font-family="Helvetica,sans-Serif" font-size="10.00">v8&#45;local&#45;handle.h</text>
</a>
</g>
</g>
<!-- Node1&#45;&gt;Node11 -->
<g id="edge156" class="edge">
<title>Node1&#45;&gt;Node11</title>
<path fill="none" stroke="#63b8ff" d="M141.38,-773.02C258.93,-745.31 599.81,-652.03 808,-461.25 882.66,-392.84 859.51,-336.37 941,-276.25 963.72,-259.49 993.14,-248.75 1018.53,-242.03"/>
<polygon fill="#63b8ff" stroke="#63b8ff" points="1019.28,-245.2 1028.14,-239.39 1017.59,-238.41 1019.28,-245.2"/>
</g>
<!-- Node5&#45;&gt;Node2 -->
<g id="edge6" class="edge">
<title>Node5&#45;&gt;Node2</title>
<path fill="none" stroke="#63b8ff" d="M1787.76,-726.87C1601.9,-726.69 689.77,-723.66 412,-682.25 304.52,-666.23 176,-727.04 176,-618.38 176,-618.38 176,-618.38 176,-284.88 176,-200.71 243.07,-116.81 274.32,-82.29"/>
<polygon fill="#63b8ff" stroke="#63b8ff" points="276.21,-85.32 280.43,-75.61 271.07,-80.57 276.21,-85.32"/>
</g>
<!-- Node5&#45;&gt;Node4 -->
<g id="edge7" class="edge">
<title>Node5&#45;&gt;Node4</title>
<path fill="none" stroke="#63b8ff" d="M1787.79,-726.78C1562.15,-726.01 260.86,-719.94 187,-682.25 155.13,-665.99 138,-654.15 138,-618.38 138,-618.38 138,-618.38 138,-395.38 138,-320.66 100,-306.34 100,-231.62 100,-231.62 100,-231.62 100,-119.12 100,-51.14 172.83,-70.85 239,-55.25 372.66,-23.73 1374.71,-12.85 1579.51,-10.94"/>
<polygon fill="#63b8ff" stroke="#63b8ff" points="1579.29,-14.44 1589.26,-10.85 1579.23,-7.44 1579.29,-14.44"/>
</g>
<!-- Node6 -->
<g id="node6" class="node">
<title>Node6</title>
<g id="a_node6"><a xlink:title=" ">
<polygon fill="#e0e0e0" stroke="#999999" points="720.25,-74.5 669.75,-74.5 669.75,-55.25 720.25,-55.25 720.25,-74.5"/>
<text text-anchor="middle" x="695" y="-61" font-family="Helvetica,sans-Serif" font-size="10.00">stddef.h</text>
</a>
</g>
</g>
<!-- Node5&#45;&gt;Node6 -->
<g id="edge5" class="edge">
<title>Node5&#45;&gt;Node6</title>
<path fill="none" stroke="#63b8ff" d="M1787.87,-726.37C1561.52,-722.73 252,-698.2 252,-618.38 252,-618.38 252,-618.38 252,-284.88 252,-104 552.43,-72.51 658.47,-67.03"/>
<polygon fill="#63b8ff" stroke="#63b8ff" points="658.44,-70.49 668.27,-66.53 658.12,-63.5 658.44,-70.49"/>
</g>
<!-- Node7 -->
<g id="node7" class="node">
<title>Node7</title>
<g id="a_node7"><a xlink:title=" ">
<polygon fill="#e0e0e0" stroke="#999999" points="926.25,-240.25 887.75,-240.25 887.75,-221 926.25,-221 926.25,-240.25"/>
<text text-anchor="middle" x="907" y="-226.75" font-family="Helvetica,sans-Serif" font-size="10.00">utility</text>
</a>
</g>
</g>
<!-- Node5&#45;&gt;Node7 -->
<g id="edge8" class="edge">
<title>Node5&#45;&gt;Node7</title>
<path fill="none" stroke="#63b8ff" d="M1787.87,-726.08C1647.09,-722.58 1098.03,-707.53 927,-682.25 810.57,-665.04 670,-736.07 670,-618.38 670,-618.38 670,-618.38 670,-505.88 670,-439.27 832.04,-295.31 888.15,-247.45"/>
<polygon fill="#63b8ff" stroke="#63b8ff" points="889.84,-249.76 895.2,-240.62 885.31,-244.42 889.84,-249.76"/>
</g>
<!-- Node8 -->
<g id="node8" class="node">
<title>Node8</title>
<g id="a_node8"><a xlink:href="common_8h.html" target="_top" xlink:title=" ">
<polygon fill="white" stroke="#666666" points="2792.12,-516.5 2701.88,-516.5 2701.88,-497.25 2792.12,-497.25 2792.12,-516.5"/>
<text text-anchor="middle" x="2747" y="-503" font-family="Helvetica,sans-Serif" font-size="10.00">cppgc/common.h</text>
</a>
</g>
</g>
<!-- Node5&#45;&gt;Node8 -->
<g id="edge9" class="edge">
<title>Node5&#45;&gt;Node8</title>
<path fill="none" stroke="#63b8ff" d="M1854.06,-726.21C2008.65,-722.95 2654.16,-707.86 2688,-682.25 2737.22,-644.99 2745.75,-564.68 2746.98,-527.5"/>
<polygon fill="#63b8ff" stroke="#63b8ff" points="2750.49,-527.73 2747.16,-517.67 2743.49,-527.61 2750.49,-527.73"/>
</g>
<!-- Node9 -->
<g id="node9" class="node">
<title>Node9</title>
<g id="a_node9"><a xlink:href="v8config_8h.html" target="_top" xlink:title=" ">
<polygon fill="white" stroke="#666666" points="2247.75,-74.5 2188.25,-74.5 2188.25,-55.25 2247.75,-55.25 2247.75,-74.5"/>
<text text-anchor="middle" x="2218" y="-61" font-family="Helvetica,sans-Serif" font-size="10.00">v8config.h</text>
</a>
</g>
</g>
<!-- Node5&#45;&gt;Node9 -->
<g id="edge155" class="edge">
<title>Node5&#45;&gt;Node9</title>
<path fill="none" stroke="#63b8ff" d="M1854.22,-727.17C2037.91,-728.37 2921,-728.42 2921,-618.38 2921,-618.38 2921,-618.38 2921,-395.38 2921,-254.1 2902.76,-180.41 2780,-110.5 2735,-84.87 2380.29,-71.12 2258.72,-67.12"/>
<polygon fill="#63b8ff" stroke="#63b8ff" points="2259.14,-63.6 2249.03,-66.78 2258.91,-70.6 2259.14,-63.6"/>
</g>
<!-- Node10 -->
<g id="node10" class="node">
<title>Node10</title>
<g id="a_node10"><a xlink:href="v8-array-buffer_8h.html" target="_top" xlink:title=" ">
<polygon fill="white" stroke="#666666" points="1731.5,-516.5 1646.5,-516.5 1646.5,-497.25 1731.5,-497.25 1731.5,-516.5"/>
<text text-anchor="middle" x="1689" y="-503" font-family="Helvetica,sans-Serif" font-size="10.00">v8&#45;array&#45;buffer.h</text>
</a>
</g>
</g>
<!-- Node5&#45;&gt;Node10 -->
<g id="edge12" class="edge">
<title>Node5&#45;&gt;Node10</title>
<path fill="none" stroke="#63b8ff" d="M1822.56,-718.13C1826.98,-690.52 1836.8,-604.01 1797,-552.5 1783.64,-535.21 1762.4,-524.57 1742.28,-518.04"/>
<polygon fill="#63b8ff" stroke="#63b8ff" points="1743.48,-514.45 1732.9,-514.99 1741.51,-521.17 1743.48,-514.45"/>
</g>
<!-- Node5&#45;&gt;Node11 -->
<g id="edge134" class="edge">
<title>Node5&#45;&gt;Node11</title>
<path fill="none" stroke="#63b8ff" d="M1788.11,-723.71C1681.65,-712.18 1339.92,-664.98 1107,-516.5 1018.92,-460.35 1028.89,-399.94 1027,-295.5 1026.85,-286.95 1023.62,-284.11 1027,-276.25 1031.98,-264.65 1041.62,-254.65 1050.88,-247.08"/>
<polygon fill="#63b8ff" stroke="#63b8ff" points="1052.6,-249.4 1058.47,-240.58 1048.38,-243.82 1052.6,-249.4"/>
</g>
<!-- Node15 -->
<g id="node15" class="node">
<title>Node15</title>
<g id="a_node15"><a xlink:href="v8-internal_8h.html" target="_top" xlink:title=" ">
<polygon fill="white" stroke="#666666" points="1477.25,-129.75 1408.75,-129.75 1408.75,-110.5 1477.25,-110.5 1477.25,-129.75"/>
<text text-anchor="middle" x="1443" y="-116.25" font-family="Helvetica,sans-Serif" font-size="10.00">v8&#45;internal.h</text>
</a>
</g>
</g>
<!-- Node5&#45;&gt;Node15 -->
<g id="edge133" class="edge">
<title>Node5&#45;&gt;Node15</title>
<path fill="none" stroke="#63b8ff" d="M1854.01,-725.25C1991.93,-718.02 2515,-686.13 2515,-618.38 2515,-618.38 2515,-618.38 2515,-561.12 2515,-458.9 2451.38,-441.43 2365,-386.75 2246.53,-311.76 2197.19,-336.16 2063,-295.5 1873.18,-237.98 1827.62,-216.95 1636,-165.75 1585.74,-152.32 1527.48,-139.18 1488.23,-130.68"/>
<polygon fill="#63b8ff" stroke="#63b8ff" points="1489.2,-127.09 1478.69,-128.4 1487.73,-133.93 1489.2,-127.09"/>
</g>
<!-- Node23 -->
<g id="node23" class="node">
<title>Node23</title>
<g id="a_node23"><a xlink:href="v8-persistent-handle_8h.html" target="_top" xlink:title=" ">
<polygon fill="white" stroke="#666666" points="2183.62,-295.5 2072.38,-295.5 2072.38,-276.25 2183.62,-276.25 2183.62,-295.5"/>
<text text-anchor="middle" x="2128" y="-282" font-family="Helvetica,sans-Serif" font-size="10.00">v8&#45;persistent&#45;handle.h</text>
</a>
</g>
</g>
<!-- Node5&#45;&gt;Node23 -->
<g id="edge136" class="edge">
<title>Node5&#45;&gt;Node23</title>
<path fill="none" stroke="#63b8ff" d="M1854.02,-727.03C1980.47,-727.3 2433.64,-725.2 2570,-682.25 2621.74,-665.95 2674,-672.62 2674,-618.38 2674,-618.38 2674,-618.38 2674,-561.12 2674,-458.68 2763.53,-406.73 2694,-331.5 2677.25,-313.38 2340.42,-296.31 2194.48,-289.73"/>
<polygon fill="#63b8ff" stroke="#63b8ff" points="2195.03,-286.2 2184.89,-289.25 2194.72,-293.2 2195.03,-286.2"/>
</g>
<!-- Node25 -->
<g id="node25" class="node">
<title>Node25</title>
<g id="a_node25"><a xlink:href="v8-primitive_8h.html" target="_top" xlink:title=" ">
<polygon fill="white" stroke="#666666" points="1651.88,-406 1578.12,-406 1578.12,-386.75 1651.88,-386.75 1651.88,-406"/>
<text text-anchor="middle" x="1615" y="-392.5" font-family="Helvetica,sans-Serif" font-size="10.00">v8&#45;primitive.h</text>
</a>
</g>
</g>
<!-- Node5&#45;&gt;Node25 -->
<g id="edge137" class="edge">
<title>Node5&#45;&gt;Node25</title>
<path fill="none" stroke="#63b8ff" d="M1826.32,-718.03C1831.23,-709.29 1838.19,-695.37 1841,-682.25 1853.26,-624.9 1852,-599.55 1817,-552.5 1768.26,-486.97 1684.7,-435.25 1641.94,-411.53"/>
<polygon fill="#63b8ff" stroke="#63b8ff" points="1643.94,-408.08 1633.48,-406.37 1640.58,-414.23 1643.94,-408.08"/>
</g>
<!-- Node26 -->
<g id="node26" class="node">
<title>Node26</title>
<g id="a_node26"><a xlink:href="v8-data_8h.html" target="_top" xlink:title=" ">
<polygon fill="white" stroke="#666666" points="1635.88,-295.5 1580.12,-295.5 1580.12,-276.25 1635.88,-276.25 1635.88,-295.5"/>
<text text-anchor="middle" x="1608" y="-282" font-family="Helvetica,sans-Serif" font-size="10.00">v8&#45;data.h</text>
</a>
</g>
</g>
<!-- Node5&#45;&gt;Node26 -->
<g id="edge90" class="edge">
<title>Node5&#45;&gt;Node26</title>
<path fill="none" stroke="#63b8ff" d="M1853.85,-724.25C1976.54,-713.99 2401,-674.46 2401,-618.38 2401,-618.38 2401,-618.38 2401,-450.62 2401,-355.32 2082.54,-349.77 1989,-331.5 1841.52,-302.7 1798.52,-320.17 1646.84,-295.59"/>
<polygon fill="#63b8ff" stroke="#63b8ff" points="1647.65,-292.02 1637.21,-293.83 1646.5,-298.92 1647.65,-292.02"/>
</g>
<!-- Node32 -->
<g id="node32" class="node">
<title>Node32</title>
<g id="a_node32"><a xlink:href="v8-callbacks_8h.html" target="_top" xlink:title=" ">
<polygon fill="white" stroke="#666666" points="2226.12,-571.75 2147.88,-571.75 2147.88,-552.5 2226.12,-552.5 2226.12,-571.75"/>
<text text-anchor="middle" x="2187" y="-558.25" font-family="Helvetica,sans-Serif" font-size="10.00">v8&#45;callbacks.h</text>
</a>
</g>
</g>
<!-- Node5&#45;&gt;Node32 -->
<g id="edge78" class="edge">
<title>Node5&#45;&gt;Node32</title>
<path fill="none" stroke="#63b8ff" d="M1854.16,-717.98C1882.69,-709.91 1924.7,-697.05 1960,-682.25 2036.44,-650.21 2121.78,-601.75 2162.63,-577.71"/>
<polygon fill="#63b8ff" stroke="#63b8ff" points="2164.2,-580.26 2171.03,-572.15 2160.64,-574.23 2164.2,-580.26"/>
</g>
<!-- Node36 -->
<g id="node36" class="node">
<title>Node36</title>
<g id="a_node36"><a xlink:href="v8-debug_8h.html" target="_top" xlink:title=" ">
<polygon fill="white" stroke="#666666" points="1097.62,-682.25 1034.38,-682.25 1034.38,-663 1097.62,-663 1097.62,-682.25"/>
<text text-anchor="middle" x="1066" y="-668.75" font-family="Helvetica,sans-Serif" font-size="10.00">v8&#45;debug.h</text>
</a>
</g>
</g>
<!-- Node5&#45;&gt;Node36 -->
<g id="edge91" class="edge">
<title>Node5&#45;&gt;Node36</title>
<path fill="none" stroke="#63b8ff" d="M1788,-726.23C1686.67,-723.96 1371.15,-714.58 1112,-682.25 1110.87,-682.11 1109.73,-681.96 1108.58,-681.8"/>
<polygon fill="#63b8ff" stroke="#63b8ff" points="1109.51,-678.25 1099.09,-680.16 1108.43,-685.16 1109.51,-678.25"/>
</g>
<!-- Node43 -->
<g id="node43" class="node">
<title>Node43</title>
<g id="a_node43"><a xlink:href="v8-embedder-heap_8h.html" target="_top" xlink:title=" ">
<polygon fill="white" stroke="#666666" points="2684.88,-350.75 2581.12,-350.75 2581.12,-331.5 2684.88,-331.5 2684.88,-350.75"/>
<text text-anchor="middle" x="2633" y="-337.25" font-family="Helvetica,sans-Serif" font-size="10.00">v8&#45;embedder&#45;heap.h</text>
</a>
</g>
</g>
<!-- Node5&#45;&gt;Node43 -->
<g id="edge118" class="edge">
<title>Node5&#45;&gt;Node43</title>
<path fill="none" stroke="#63b8ff" d="M1854.02,-727.33C1976.33,-728.62 2403.05,-729.58 2529,-682.25 2572.57,-665.88 2612,-664.92 2612,-618.38 2612,-618.38 2612,-618.38 2612,-450.62 2612,-418.9 2620.76,-382.88 2626.97,-361.36"/>
<polygon fill="#63b8ff" stroke="#63b8ff" points="2630.55,-362.6 2630.08,-352.01 2623.85,-360.58 2630.55,-362.6"/>
</g>
<!-- Node44 -->
<g id="node44" class="node">
<title>Node44</title>
<g id="a_node44"><a xlink:href="v8-exception_8h.html" target="_top" xlink:title=" ">
<polygon fill="white" stroke="#666666" points="1194.12,-516.5 1115.88,-516.5 1115.88,-497.25 1194.12,-497.25 1194.12,-516.5"/>
<text text-anchor="middle" x="1155" y="-503" font-family="Helvetica,sans-Serif" font-size="10.00">v8&#45;exception.h</text>
</a>
</g>
</g>
<!-- Node5&#45;&gt;Node44 -->
<g id="edge121" class="edge">
<title>Node5&#45;&gt;Node44</title>
<path fill="none" stroke="#63b8ff" d="M1793.65,-717.88C1688.99,-683.47 1313.7,-560.06 1192.81,-520.31"/>
<polygon fill="#63b8ff" stroke="#63b8ff" points="1194.17,-516.74 1183.58,-516.94 1191.98,-523.39 1194.17,-516.74"/>
</g>
<!-- Node45 -->
<g id="node45" class="node">
<title>Node45</title>
<g id="a_node45"><a xlink:href="v8-function-callback_8h.html" target="_top" xlink:title=" ">
<polygon fill="white" stroke="#666666" points="2071.25,-461.25 1960.75,-461.25 1960.75,-442 2071.25,-442 2071.25,-461.25"/>
<text text-anchor="middle" x="2016" y="-447.75" font-family="Helvetica,sans-Serif" font-size="10.00">v8&#45;function&#45;callback.h</text>
</a>
</g>
</g>
<!-- Node5&#45;&gt;Node45 -->
<g id="edge126" class="edge">
<title>Node5&#45;&gt;Node45</title>
<path fill="none" stroke="#63b8ff" d="M1849.67,-717.79C1868.84,-710.58 1893.64,-698.92 1911,-682.25 1934.35,-659.83 1946,-650.75 1946,-618.38 1946,-618.38 1946,-618.38 1946,-561.12 1946,-523.3 1976.42,-488.19 1997.15,-468.66"/>
<polygon fill="#63b8ff" stroke="#63b8ff" points="1998.99,-471.81 2004.06,-462.51 1994.3,-466.62 1998.99,-471.81"/>
</g>
<!-- Node46 -->
<g id="node46" class="node">
<title>Node46</title>
<g id="a_node46"><a xlink:href="v8-microtask_8h.html" target="_top" xlink:title=" ">
<polygon fill="white" stroke="#666666" points="1015.88,-682.25 936.12,-682.25 936.12,-663 1015.88,-663 1015.88,-682.25"/>
<text text-anchor="middle" x="976" y="-668.75" font-family="Helvetica,sans-Serif" font-size="10.00">v8&#45;microtask.h</text>
</a>
</g>
</g>
<!-- Node5&#45;&gt;Node46 -->
<g id="edge135" class="edge">
<title>Node5&#45;&gt;Node46</title>
<path fill="none" stroke="#63b8ff" d="M1787.9,-726.42C1679.9,-724.64 1327.96,-716.51 1027.01,-682.34"/>
<polygon fill="#63b8ff" stroke="#63b8ff" points="1027.66,-678.78 1017.32,-681.11 1026.86,-685.73 1027.66,-678.78"/>
</g>
<!-- Node47 -->
<g id="node47" class="node">
<title>Node47</title>
<g id="a_node47"><a xlink:href="v8-statistics_8h.html" target="_top" xlink:title=" ">
<polygon fill="white" stroke="#666666" points="613.38,-571.75 536.62,-571.75 536.62,-552.5 613.38,-552.5 613.38,-571.75"/>
<text text-anchor="middle" x="575" y="-558.25" font-family="Helvetica,sans-Serif" font-size="10.00">v8&#45;statistics.h</text>
</a>
</g>
</g>
<!-- Node5&#45;&gt;Node47 -->
<g id="edge138" class="edge">
<title>Node5&#45;&gt;Node47</title>
<path fill="none" stroke="#63b8ff" d="M1787.77,-726.44C1602.81,-723.94 706.79,-710.39 656,-682.25 616.39,-660.3 592.29,-609.81 581.58,-582.13"/>
<polygon fill="#63b8ff" stroke="#63b8ff" points="584.64,-581.31 577.91,-573.13 578.06,-583.72 584.64,-581.31"/>
</g>
<!-- Node48 -->
<g id="node48" class="node">
<title>Node48</title>
<g id="a_node48"><a xlink:href="v8-unwinder_8h.html" target="_top" xlink:title=" ">
<polygon fill="white" stroke="#666666" points="2855,-350.75 2779,-350.75 2779,-331.5 2855,-331.5 2855,-350.75"/>
<text text-anchor="middle" x="2817" y="-337.25" font-family="Helvetica,sans-Serif" font-size="10.00">v8&#45;unwinder.h</text>
</a>
</g>
</g>
<!-- Node5&#45;&gt;Node48 -->
<g id="edge148" class="edge">
<title>Node5&#45;&gt;Node48</title>
<path fill="none" stroke="#63b8ff" d="M1854.08,-726.15C2005.38,-722.7 2627.75,-707.1 2711,-682.25 2764.8,-666.19 2820,-674.52 2820,-618.38 2820,-618.38 2820,-618.38 2820,-450.62 2820,-419.61 2818.76,-383.62 2817.87,-361.88"/>
<polygon fill="#63b8ff" stroke="#63b8ff" points="2821.34,-361.97 2817.42,-352.12 2814.34,-362.26 2821.34,-361.97"/>
</g>
<!-- Node8&#45;&gt;Node9 -->
<g id="edge10" class="edge">
<title>Node8&#45;&gt;Node9</title>
<path fill="none" stroke="#63b8ff" d="M2749.28,-496.96C2760.98,-449 2809.26,-219.91 2695,-110.5 2663.78,-80.6 2368.7,-69.83 2258.89,-66.84"/>
<polygon fill="#63b8ff" stroke="#63b8ff" points="2259.04,-63.32 2248.95,-66.55 2258.86,-70.32 2259.04,-63.32"/>
</g>
<!-- Node9&#45;&gt;Node4 -->
<g id="edge11" class="edge">
<title>Node9&#45;&gt;Node4</title>
<path fill="none" stroke="#63b8ff" d="M2188.15,-61.23C2087.67,-52.35 1761.95,-23.53 1652.36,-13.84"/>
<polygon fill="#63b8ff" stroke="#63b8ff" points="1652.82,-10.28 1642.56,-12.89 1652.21,-17.25 1652.82,-10.28"/>
</g>
<!-- Node10&#45;&gt;Node4 -->
<g id="edge14" class="edge">
<title>Node10&#45;&gt;Node4</title>
<path fill="none" stroke="#63b8ff" d="M1731.9,-499.01C1736.65,-498.36 1741.42,-497.76 1746,-497.25 1968.31,-472.5 2026.05,-489.04 2248,-461.25 2523.99,-426.7 2637.29,-511.91 2864,-350.75 2913.51,-315.56 2931,-292.37 2931,-231.62 2931,-231.62 2931,-231.62 2931,-119.12 2931,-102.18 3288.87,-134.51 2625,-55.25 2246.47,-10.05 1783.14,-9.44 1652.06,-10.28"/>
<polygon fill="#63b8ff" stroke="#63b8ff" points="1652.43,-6.78 1642.46,-10.36 1652.48,-13.78 1652.43,-6.78"/>
</g>
<!-- Node10&#45;&gt;Node6 -->
<g id="edge13" class="edge">
<title>Node10&#45;&gt;Node6</title>
<path fill="none" stroke="#63b8ff" d="M1646.18,-498.39C1643.42,-497.98 1640.67,-497.6 1638,-497.25 1315.92,-455.17 1187.87,-537.34 922,-350.75 814.46,-275.28 731.96,-134.68 704.69,-84.37"/>
<polygon fill="#63b8ff" stroke="#63b8ff" points="707.39,-82.99 699.59,-75.82 701.21,-86.29 707.39,-82.99"/>
</g>
<!-- Node10&#45;&gt;Node9 -->
<g id="edge77" class="edge">
<title>Node10&#45;&gt;Node9</title>
<path fill="none" stroke="#63b8ff" d="M1731.9,-499.03C1736.65,-498.38 1741.43,-497.77 1746,-497.25 1852.07,-485.26 2133.27,-515.83 2225,-461.25 2258.85,-441.11 2244.07,-413.48 2273,-386.75 2297.83,-363.81 2317.5,-375.98 2340,-350.75 2375.19,-311.3 2374.04,-292.17 2384,-240.25 2394.86,-183.62 2419.09,-156.26 2384,-110.5 2382.04,-107.94 2306.99,-88.48 2258.48,-76.12"/>
<polygon fill="#63b8ff" stroke="#63b8ff" points="2259.53,-72.52 2248.97,-73.44 2257.8,-79.3 2259.53,-72.52"/>
</g>
<!-- Node10&#45;&gt;Node11 -->
<g id="edge15" class="edge">
<title>Node10&#45;&gt;Node11</title>
<path fill="none" stroke="#63b8ff" d="M1646.17,-498.47C1643.41,-498.04 1640.67,-497.63 1638,-497.25 1441.16,-469.08 1355.6,-529.81 1200,-406 1170.76,-382.73 1110.24,-289.29 1085.21,-249.6"/>
<polygon fill="#63b8ff" stroke="#63b8ff" points="1087.68,-247.95 1079.4,-241.34 1081.75,-251.67 1087.68,-247.95"/>
</g>
<!-- Node21 -->
<g id="node21" class="node">
<title>Node21</title>
<g id="a_node21"><a xlink:href="v8-object_8h.html" target="_top" xlink:title=" ">
<polygon fill="white" stroke="#666666" points="1635.62,-461.25 1572.38,-461.25 1572.38,-442 1635.62,-442 1635.62,-461.25"/>
<text text-anchor="middle" x="1604" y="-447.75" font-family="Helvetica,sans-Serif" font-size="10.00">v8&#45;object.h</text>
</a>
</g>
</g>
<!-- Node10&#45;&gt;Node21 -->
<g id="edge32" class="edge">
<title>Node10&#45;&gt;Node21</title>
<path fill="none" stroke="#63b8ff" d="M1674.58,-496.84C1661.76,-488.81 1642.77,-476.91 1627.71,-467.48"/>
<polygon fill="#63b8ff" stroke="#63b8ff" points="1629.82,-464.05 1619.49,-461.7 1626.11,-469.98 1629.82,-464.05"/>
</g>
<!-- Node11&#45;&gt;Node6 -->
<g id="edge16" class="edge">
<title>Node11&#45;&gt;Node6</title>
<path fill="none" stroke="#63b8ff" d="M1045.45,-220.53C996.1,-204.46 892.03,-168.98 808,-129.75 775.98,-114.8 740.8,-94.2 718.33,-80.48"/>
<polygon fill="#63b8ff" stroke="#63b8ff" points="720.6,-77.15 710.25,-74.88 716.92,-83.11 720.6,-77.15"/>
</g>
<!-- Node12 -->
<g id="node12" class="node">
<title>Node12</title>
<g id="a_node12"><a xlink:title=" ">
<polygon fill="#e0e0e0" stroke="#999999" points="1176.5,-74.5 1115.5,-74.5 1115.5,-55.25 1176.5,-55.25 1176.5,-74.5"/>
<text text-anchor="middle" x="1146" y="-61" font-family="Helvetica,sans-Serif" font-size="10.00">type_traits</text>
</a>
</g>
</g>
<!-- Node11&#45;&gt;Node12 -->
<g id="edge17" class="edge">
<title>Node11&#45;&gt;Node12</title>
<path fill="none" stroke="#63b8ff" d="M1056.22,-220.62C1036.28,-209.2 1008.07,-188.26 1019,-165.75 1038.93,-124.72 1084.79,-95.52 1115.59,-79.67"/>
<polygon fill="#63b8ff" stroke="#63b8ff" points="1116.99,-82.39 1124.4,-74.81 1113.88,-76.11 1116.99,-82.39"/>
</g>
<!-- Node13 -->
<g id="node13" class="node">
<title>Node13</title>
<g id="a_node13"><a xlink:title=" ">
<polygon fill="#e0e0e0" stroke="#999999" points="489.5,-185 446.5,-185 446.5,-165.75 489.5,-165.75 489.5,-185"/>
<text text-anchor="middle" x="468" y="-171.5" font-family="Helvetica,sans-Serif" font-size="10.00">vector</text>
</a>
</g>
</g>
<!-- Node11&#45;&gt;Node13 -->
<g id="edge18" class="edge">
<title>Node11&#45;&gt;Node13</title>
<path fill="none" stroke="#63b8ff" d="M1029.44,-225.71C913.11,-215.49 602.24,-188.17 500.63,-179.24"/>
<polygon fill="#63b8ff" stroke="#63b8ff" points="501.11,-175.68 490.84,-178.29 500.49,-182.66 501.11,-175.68"/>
</g>
<!-- Node14 -->
<g id="node14" class="node">
<title>Node14</title>
<g id="a_node14"><a xlink:href="v8-handle-base_8h.html" target="_top" xlink:title=" ">
<polygon fill="white" stroke="#666666" points="1117.75,-185 1028.25,-185 1028.25,-165.75 1117.75,-165.75 1117.75,-185"/>
<text text-anchor="middle" x="1073" y="-171.5" font-family="Helvetica,sans-Serif" font-size="10.00">v8&#45;handle&#45;base.h</text>
</a>
</g>
</g>
<!-- Node11&#45;&gt;Node14 -->
<g id="edge19" class="edge">
<title>Node11&#45;&gt;Node14</title>
<path fill="none" stroke="#63b8ff" d="M1073.83,-220.83C1073.71,-214.17 1073.53,-204.74 1073.37,-196.28"/>
<polygon fill="#63b8ff" stroke="#63b8ff" points="1076.86,-196.29 1073.17,-186.36 1069.86,-196.42 1076.86,-196.29"/>
</g>
<!-- Node11&#45;&gt;Node15 -->
<g id="edge31" class="edge">
<title>Node11&#45;&gt;Node15</title>
<path fill="none" stroke="#63b8ff" d="M1089.54,-220.58C1113.96,-206.76 1163.18,-180.42 1208,-165.75 1272.26,-144.72 1349.84,-132.39 1397.8,-126.2"/>
<polygon fill="#63b8ff" stroke="#63b8ff" points="1397.96,-129.58 1407.45,-124.86 1397.09,-122.64 1397.96,-129.58"/>
</g>
<!-- Node14&#45;&gt;Node15 -->
<g id="edge20" class="edge">
<title>Node14&#45;&gt;Node15</title>
<path fill="none" stroke="#63b8ff" d="M1118,-167.9C1189.02,-157.68 1326.34,-137.92 1397.6,-127.66"/>
<polygon fill="#63b8ff" stroke="#63b8ff" points="1398.05,-130.99 1407.45,-126.1 1397.06,-124.06 1398.05,-130.99"/>
</g>
<!-- Node15&#45;&gt;Node2 -->
<g id="edge22" class="edge">
<title>Node15&#45;&gt;Node2</title>
<path fill="none" stroke="#63b8ff" d="M1408.49,-117.53C1238.9,-109.7 495.12,-75.35 324.82,-67.48"/>
<polygon fill="#63b8ff" stroke="#63b8ff" points="325.16,-63.95 315.01,-66.98 324.83,-70.94 325.16,-63.95"/>
</g>
<!-- Node15&#45;&gt;Node4 -->
<g id="edge27" class="edge">
<title>Node15&#45;&gt;Node4</title>
<path fill="none" stroke="#63b8ff" d="M1457.45,-110.06C1487.42,-91.27 1556.55,-47.91 1592.82,-25.16"/>
<polygon fill="#63b8ff" stroke="#63b8ff" points="1594.1,-27.87 1600.71,-19.59 1590.38,-21.94 1594.1,-27.87"/>
</g>
<!-- Node15&#45;&gt;Node6 -->
<g id="edge21" class="edge">
<title>Node15&#45;&gt;Node6</title>
<path fill="none" stroke="#63b8ff" d="M1408.42,-116.66C1283.89,-107.8 858.96,-77.55 731.46,-68.47"/>
<polygon fill="#63b8ff" stroke="#63b8ff" points="731.96,-64.93 721.74,-67.71 731.47,-71.91 731.96,-64.93"/>
</g>
<!-- Node15&#45;&gt;Node9 -->
<g id="edge30" class="edge">
<title>Node15&#45;&gt;Node9</title>
<path fill="none" stroke="#63b8ff" d="M1477.55,-116.75C1603.98,-108.06 2041.09,-78.03 2177.21,-68.68"/>
<polygon fill="#63b8ff" stroke="#63b8ff" points="2177.22,-72.12 2186.96,-67.94 2176.74,-65.13 2177.22,-72.12"/>
</g>
<!-- Node15&#45;&gt;Node12 -->
<g id="edge29" class="edge">
<title>Node15&#45;&gt;Node12</title>
<path fill="none" stroke="#63b8ff" d="M1408.35,-112.91C1353.44,-103.07 1246.61,-83.91 1187.63,-73.34"/>
<polygon fill="#63b8ff" stroke="#63b8ff" points="1188.31,-69.73 1177.85,-71.41 1187.07,-76.62 1188.31,-69.73"/>
</g>
<!-- Node16 -->
<g id="node16" class="node">
<title>Node16</title>
<g id="a_node16"><a xlink:title=" ">
<polygon fill="#e0e0e0" stroke="#999999" points="1480.75,-74.5 1433.25,-74.5 1433.25,-55.25 1480.75,-55.25 1480.75,-74.5"/>
<text text-anchor="middle" x="1457" y="-61" font-family="Helvetica,sans-Serif" font-size="10.00">string.h</text>
</a>
</g>
</g>
<!-- Node15&#45;&gt;Node16 -->
<g id="edge23" class="edge">
<title>Node15&#45;&gt;Node16</title>
<path fill="none" stroke="#63b8ff" d="M1445.31,-110.33C1447.08,-103.59 1449.6,-94.02 1451.84,-85.49"/>
<polygon fill="#63b8ff" stroke="#63b8ff" points="1455.48,-86.42 1454.64,-75.86 1448.71,-84.64 1455.48,-86.42"/>
</g>
<!-- Node17 -->
<g id="node17" class="node">
<title>Node17</title>
<g id="a_node17"><a xlink:title=" ">
<polygon fill="#e0e0e0" stroke="#999999" points="1666.62,-74.5 1621.38,-74.5 1621.38,-55.25 1666.62,-55.25 1666.62,-74.5"/>
<text text-anchor="middle" x="1644" y="-61" font-family="Helvetica,sans-Serif" font-size="10.00">atomic</text>
</a>
</g>
</g>
<!-- Node15&#45;&gt;Node17 -->
<g id="edge24" class="edge">
<title>Node15&#45;&gt;Node17</title>
<path fill="none" stroke="#63b8ff" d="M1477.1,-110.09C1514.41,-100.21 1573.82,-84.47 1610.78,-74.68"/>
<polygon fill="#63b8ff" stroke="#63b8ff" points="1611.26,-77.91 1620.03,-71.96 1609.46,-71.14 1611.26,-77.91"/>
</g>
<!-- Node18 -->
<g id="node18" class="node">
<title>Node18</title>
<g id="a_node18"><a xlink:title=" ">
<polygon fill="#e0e0e0" stroke="#999999" points="1033,-74.5 987,-74.5 987,-55.25 1033,-55.25 1033,-74.5"/>
<text text-anchor="middle" x="1010" y="-61" font-family="Helvetica,sans-Serif" font-size="10.00">iterator</text>
</a>
</g>
</g>
<!-- Node15&#45;&gt;Node18 -->
<g id="edge25" class="edge">
<title>Node15&#45;&gt;Node18</title>
<path fill="none" stroke="#63b8ff" d="M1408.3,-114.86C1326.94,-104.85 1124.68,-79.98 1044.01,-70.06"/>
<polygon fill="#63b8ff" stroke="#63b8ff" points="1044.81,-66.51 1034.46,-68.76 1043.96,-73.45 1044.81,-66.51"/>
</g>
<!-- Node19 -->
<g id="node19" class="node">
<title>Node19</title>
<g id="a_node19"><a xlink:title=" ">
<polygon fill="#e0e0e0" stroke="#999999" points="1833.62,-74.5 1794.38,-74.5 1794.38,-55.25 1833.62,-55.25 1833.62,-74.5"/>
<text text-anchor="middle" x="1814" y="-61" font-family="Helvetica,sans-Serif" font-size="10.00">limits</text>
</a>
</g>
</g>
<!-- Node15&#45;&gt;Node19 -->
<g id="edge26" class="edge">
<title>Node15&#45;&gt;Node19</title>
<path fill="none" stroke="#63b8ff" d="M1477.57,-114.16C1549.65,-103.82 1714.96,-80.09 1783.43,-70.26"/>
<polygon fill="#63b8ff" stroke="#63b8ff" points="1783.53,-73.64 1792.93,-68.75 1782.54,-66.71 1783.53,-73.64"/>
</g>
<!-- Node20 -->
<g id="node20" class="node">
<title>Node20</title>
<g id="a_node20"><a xlink:title=" ">
<polygon fill="#e0e0e0" stroke="#999999" points="1414.88,-74.5 1365.12,-74.5 1365.12,-55.25 1414.88,-55.25 1414.88,-74.5"/>
<text text-anchor="middle" x="1390" y="-61" font-family="Helvetica,sans-Serif" font-size="10.00">optional</text>
</a>
</g>
</g>
<!-- Node15&#45;&gt;Node20 -->
<g id="edge28" class="edge">
<title>Node15&#45;&gt;Node20</title>
<path fill="none" stroke="#63b8ff" d="M1434.25,-110.33C1426.77,-102.82 1415.82,-91.81 1406.67,-82.63"/>
<polygon fill="#63b8ff" stroke="#63b8ff" points="1409.48,-80.48 1399.94,-75.86 1404.52,-85.42 1409.48,-80.48"/>
</g>
<!-- Node21&#45;&gt;Node9 -->
<g id="edge76" class="edge">
<title>Node21&#45;&gt;Node9</title>
<path fill="none" stroke="#63b8ff" d="M1636.12,-448.99C1705.68,-444.99 1867.82,-432.97 1915,-406 2006.42,-353.75 1992.79,-299.47 2063,-221 2110.36,-168.06 2171.02,-109.89 2200.44,-82.23"/>
<polygon fill="#63b8ff" stroke="#63b8ff" points="2202.29,-85.36 2207.19,-75.97 2197.5,-80.25 2202.29,-85.36"/>
</g>
<!-- Node21&#45;&gt;Node11 -->
<g id="edge34" class="edge">
<title>Node21&#45;&gt;Node11</title>
<path fill="none" stroke="#63b8ff" d="M1572.1,-450.68C1518.83,-449.67 1409.4,-442.82 1326,-406 1241.29,-368.6 1241.03,-326.1 1163,-276.25 1144.49,-264.43 1122.43,-253.35 1104.9,-245.18"/>
<polygon fill="#63b8ff" stroke="#63b8ff" points="1106.72,-241.71 1096.17,-240.73 1103.81,-248.07 1106.72,-241.71"/>
</g>
<!-- Node21&#45;&gt;Node15 -->
<g id="edge33" class="edge">
<title>Node21&#45;&gt;Node15</title>
<path fill="none" stroke="#63b8ff" d="M1589.72,-441.65C1532.49,-405.53 1322.1,-271.32 1306,-240.25 1294.7,-218.44 1316.54,-173.55 1324,-165.75 1343.4,-145.48 1372.9,-134.33 1397.67,-128.25"/>
<polygon fill="#63b8ff" stroke="#63b8ff" points="1398.31,-131.47 1407.31,-125.87 1396.78,-124.64 1398.31,-131.47"/>
</g>
<!-- Node22 -->
<g id="node22" class="node">
<title>Node22</title>
<g id="a_node22"><a xlink:href="v8-maybe_8h.html" target="_top" xlink:title=" ">
<polygon fill="white" stroke="#666666" points="1333.75,-295.5 1268.25,-295.5 1268.25,-276.25 1333.75,-276.25 1333.75,-295.5"/>
<text text-anchor="middle" x="1301" y="-282" font-family="Helvetica,sans-Serif" font-size="10.00">v8&#45;maybe.h</text>
</a>
</g>
</g>
<!-- Node21&#45;&gt;Node22 -->
<g id="edge35" class="edge">
<title>Node21&#45;&gt;Node22</title>
<path fill="none" stroke="#63b8ff" d="M1572.03,-441.75C1546,-433.95 1508.68,-421.44 1478,-406 1416.87,-375.23 1351.78,-326.82 1320.29,-302.27"/>
<polygon fill="#63b8ff" stroke="#63b8ff" points="1323.01,-299.16 1312.98,-295.73 1318.68,-304.66 1323.01,-299.16"/>
</g>
<!-- Node21&#45;&gt;Node23 -->
<g id="edge40" class="edge">
<title>Node21&#45;&gt;Node23</title>
<path fill="none" stroke="#63b8ff" d="M1635.81,-448.98C1697.82,-445.24 1838.86,-434.16 1954,-406 2023.01,-389.12 2053.6,-400.82 2104,-350.75 2115.95,-338.88 2122.03,-320.49 2125.07,-306.48"/>
<polygon fill="#63b8ff" stroke="#63b8ff" points="2128.63,-307.46 2126.98,-296.99 2121.75,-306.21 2128.63,-307.46"/>
</g>
<!-- Node21&#45;&gt;Node25 -->
<g id="edge46" class="edge">
<title>Node21&#45;&gt;Node25</title>
<path fill="none" stroke="#63b8ff" d="M1605.82,-441.83C1607.21,-435.09 1609.19,-425.52 1610.95,-416.99"/>
<polygon fill="#63b8ff" stroke="#63b8ff" points="1614.55,-417.86 1613.14,-407.36 1607.69,-416.44 1614.55,-417.86"/>
</g>
<!-- Node27 -->
<g id="node27" class="node">
<title>Node27</title>
<g id="a_node27"><a xlink:href="v8-value_8h.html" target="_top" xlink:title=" ">
<polygon fill="white" stroke="#666666" points="1580.12,-350.75 1519.88,-350.75 1519.88,-331.5 1580.12,-331.5 1580.12,-350.75"/>
<text text-anchor="middle" x="1550" y="-337.25" font-family="Helvetica,sans-Serif" font-size="10.00">v8&#45;value.h</text>
</a>
</g>
</g>
<!-- Node21&#45;&gt;Node27 -->
<g id="edge75" class="edge">
<title>Node21&#45;&gt;Node27</title>
<path fill="none" stroke="#63b8ff" d="M1595.38,-441.76C1587.51,-433.23 1576.05,-419.64 1569,-406 1561.76,-391.99 1556.84,-374.8 1553.83,-361.78"/>
<polygon fill="#63b8ff" stroke="#63b8ff" points="1557.08,-361.26 1551.58,-352.21 1550.24,-362.72 1557.08,-361.26"/>
</g>
<!-- Node28 -->
<g id="node28" class="node">
<title>Node28</title>
<g id="a_node28"><a xlink:href="v8-sandbox_8h.html" target="_top" xlink:title=" ">
<polygon fill="white" stroke="#666666" points="1906.5,-406 1833.5,-406 1833.5,-386.75 1906.5,-386.75 1906.5,-406"/>
<text text-anchor="middle" x="1870" y="-392.5" font-family="Helvetica,sans-Serif" font-size="10.00">v8&#45;sandbox.h</text>
</a>
</g>
</g>
<!-- Node21&#45;&gt;Node28 -->
<g id="edge59" class="edge">
<title>Node21&#45;&gt;Node28</title>
<path fill="none" stroke="#63b8ff" d="M1636.09,-444.2C1682.49,-434.91 1768.67,-417.66 1822.47,-406.89"/>
<polygon fill="#63b8ff" stroke="#63b8ff" points="1822.99,-410.16 1832.11,-404.76 1821.62,-403.29 1822.99,-410.16"/>
</g>
<!-- Node30 -->
<g id="node30" class="node">
<title>Node30</title>
<g id="a_node30"><a xlink:href="v8-traced-handle_8h.html" target="_top" xlink:title=" ">
<polygon fill="white" stroke="#666666" points="1749.75,-295.5 1654.25,-295.5 1654.25,-276.25 1749.75,-276.25 1749.75,-295.5"/>
<text text-anchor="middle" x="1702" y="-282" font-family="Helvetica,sans-Serif" font-size="10.00">v8&#45;traced&#45;handle.h</text>
</a>
</g>
</g>
<!-- Node21&#45;&gt;Node30 -->
<g id="edge63" class="edge">
<title>Node21&#45;&gt;Node30</title>
<path fill="none" stroke="#63b8ff" d="M1620.11,-441.59C1632.84,-433.7 1650.21,-421.15 1661,-406 1683.03,-375.08 1694.04,-331.32 1698.84,-306.35"/>
<polygon fill="#63b8ff" stroke="#63b8ff" points="1702.42,-307.19 1700.72,-296.74 1695.53,-305.97 1702.42,-307.19"/>
</g>
<!-- Node22&#45;&gt;Node7 -->
<g id="edge37" class="edge">
<title>Node22&#45;&gt;Node7</title>
<path fill="none" stroke="#63b8ff" d="M1268.09,-280.43C1192.95,-270.27 1009.7,-245.51 937.22,-235.71"/>
<polygon fill="#63b8ff" stroke="#63b8ff" points="937.96,-232.14 927.58,-234.27 937.02,-239.08 937.96,-232.14"/>
</g>
<!-- Node22&#45;&gt;Node9 -->
<g id="edge39" class="edge">
<title>Node22&#45;&gt;Node9</title>
<path fill="none" stroke="#63b8ff" d="M1300.54,-276.08C1300.34,-262.34 1302.08,-235.83 1317,-221 1390.5,-147.96 1667.86,-127.96 1770,-110.5 1918.7,-85.09 2097.83,-72.63 2176.98,-68.03"/>
<polygon fill="#63b8ff" stroke="#63b8ff" points="2177.14,-71.48 2186.92,-67.41 2176.74,-64.49 2177.14,-71.48"/>
</g>
<!-- Node22&#45;&gt;Node12 -->
<g id="edge36" class="edge">
<title>Node22&#45;&gt;Node12</title>
<path fill="none" stroke="#63b8ff" d="M1268.1,-277.9C1245.97,-271.6 1217.72,-260.15 1200,-240.25 1159.84,-195.15 1149.55,-120.59 1146.91,-85.41"/>
<polygon fill="#63b8ff" stroke="#63b8ff" points="1150.36,-85.48 1146.26,-75.71 1143.37,-85.91 1150.36,-85.48"/>
</g>
<!-- Node22&#45;&gt;Node15 -->
<g id="edge38" class="edge">
<title>Node22&#45;&gt;Node15</title>
<path fill="none" stroke="#63b8ff" d="M1267.87,-278.37C1246.78,-272.33 1221.07,-261.01 1208,-240.25 1188.99,-210.04 1235.28,-173.01 1246,-165.75 1291.44,-134.96 1354.95,-125.14 1397.46,-122.16"/>
<polygon fill="#63b8ff" stroke="#63b8ff" points="1397.54,-125.6 1407.32,-121.51 1397.13,-118.61 1397.54,-125.6"/>
</g>
<!-- Node23&#45;&gt;Node9 -->
<g id="edge45" class="edge">
<title>Node23&#45;&gt;Node9</title>
<path fill="none" stroke="#63b8ff" d="M2152.9,-275.87C2168.83,-268.75 2188.42,-257.16 2199,-240.25 2229.5,-191.51 2225.34,-119.81 2221.06,-85.53"/>
<polygon fill="#63b8ff" stroke="#63b8ff" points="2224.4,-85.12 2219.54,-75.71 2217.47,-86.1 2224.4,-85.12"/>
</g>
<!-- Node23&#45;&gt;Node11 -->
<g id="edge42" class="edge">
<title>Node23&#45;&gt;Node11</title>
<path fill="none" stroke="#63b8ff" d="M2072.08,-282.05C1889.49,-272.83 1312.12,-243.66 1129.77,-234.44"/>
<polygon fill="#63b8ff" stroke="#63b8ff" points="1130,-230.9 1119.84,-233.89 1129.65,-237.89 1130,-230.9"/>
</g>
<!-- Node23&#45;&gt;Node15 -->
<g id="edge41" class="edge">
<title>Node23&#45;&gt;Node15</title>
<path fill="none" stroke="#63b8ff" d="M2107.63,-275.91C2055.95,-253.57 1915.12,-195.09 1792,-165.75 1684.77,-140.2 1555.3,-128.5 1488.23,-123.81"/>
<polygon fill="#63b8ff" stroke="#63b8ff" points="1488.83,-120.28 1478.62,-123.1 1488.36,-127.26 1488.83,-120.28"/>
</g>
<!-- Node24 -->
<g id="node24" class="node">
<title>Node24</title>
<g id="a_node24"><a xlink:href="v8-weak-callback-info_8h.html" target="_top" xlink:title=" ">
<polygon fill="white" stroke="#666666" points="2190,-240.25 2072,-240.25 2072,-221 2190,-221 2190,-240.25"/>
<text text-anchor="middle" x="2131" y="-226.75" font-family="Helvetica,sans-Serif" font-size="10.00">v8&#45;weak&#45;callback&#45;info.h</text>
</a>
</g>
</g>
<!-- Node23&#45;&gt;Node24 -->
<g id="edge43" class="edge">
<title>Node23&#45;&gt;Node24</title>
<path fill="none" stroke="#63b8ff" d="M2128.5,-276.08C2128.87,-269.42 2129.4,-259.99 2129.88,-251.53"/>
<polygon fill="#63b8ff" stroke="#63b8ff" points="2133.43,-251.79 2130.49,-241.61 2126.44,-251.4 2133.43,-251.79"/>
</g>
<!-- Node24&#45;&gt;Node9 -->
<g id="edge44" class="edge">
<title>Node24&#45;&gt;Node9</title>
<path fill="none" stroke="#63b8ff" d="M2135.68,-220.82C2149.37,-195.05 2189.56,-119.4 2208.24,-84.24"/>
<polygon fill="#63b8ff" stroke="#63b8ff" points="2211.7,-86.2 2213.3,-75.72 2205.52,-82.91 2211.7,-86.2"/>
</g>
<!-- Node25&#45;&gt;Node9 -->
<g id="edge58" class="edge">
<title>Node25&#45;&gt;Node9</title>
<path fill="none" stroke="#63b8ff" d="M1634.81,-386.38C1668.17,-370.7 1736.82,-336.14 1787,-295.5 1873.08,-225.79 1856.91,-163.82 1954,-110.5 1991.67,-89.81 2112.64,-75.73 2176.93,-69.5"/>
<polygon fill="#63b8ff" stroke="#63b8ff" points="2177.25,-72.89 2186.87,-68.47 2176.59,-65.93 2177.25,-72.89"/>
</g>
<!-- Node25&#45;&gt;Node11 -->
<g id="edge51" class="edge">
<title>Node25&#45;&gt;Node11</title>
<path fill="none" stroke="#63b8ff" d="M1593.85,-386.39C1572.82,-377.43 1539.63,-363.24 1511,-350.75 1436.13,-318.09 1421.25,-299.68 1343,-276.25 1270.87,-254.66 1184.54,-242.67 1129.49,-236.69"/>
<polygon fill="#63b8ff" stroke="#63b8ff" points="1129.89,-233.1 1119.57,-235.54 1129.15,-240.07 1129.89,-233.1"/>
</g>
<!-- Node25&#45;&gt;Node15 -->
<g id="edge50" class="edge">
<title>Node25&#45;&gt;Node15</title>
<path fill="none" stroke="#63b8ff" d="M1612.06,-386.42C1607.76,-373.8 1599.15,-350.24 1589,-331.5 1547.76,-255.4 1484.8,-173.37 1457.01,-138.45"/>
<polygon fill="#63b8ff" stroke="#63b8ff" points="1459.14,-136.51 1450.15,-130.89 1453.68,-140.88 1459.14,-136.51"/>
</g>
<!-- Node25&#45;&gt;Node26 -->
<g id="edge47" class="edge">
<title>Node25&#45;&gt;Node26</title>
<path fill="none" stroke="#63b8ff" d="M1617.39,-386.67C1620.45,-374.34 1625.01,-351.13 1622,-331.5 1620.69,-322.98 1618.06,-313.85 1615.43,-306.09"/>
<polygon fill="#63b8ff" stroke="#63b8ff" points="1618.44,-305.11 1611.73,-296.91 1611.86,-307.51 1618.44,-305.11"/>
</g>
<!-- Node25&#45;&gt;Node27 -->
<g id="edge52" class="edge">
<title>Node25&#45;&gt;Node27</title>
<path fill="none" stroke="#63b8ff" d="M1603.97,-386.34C1594.49,-378.57 1580.58,-367.17 1569.25,-357.9"/>
<polygon fill="#63b8ff" stroke="#63b8ff" points="1571.82,-354.65 1561.86,-351.02 1567.38,-360.07 1571.82,-354.65"/>
</g>
<!-- Node26&#45;&gt;Node9 -->
<g id="edge49" class="edge">
<title>Node26&#45;&gt;Node9</title>
<path fill="none" stroke="#63b8ff" d="M1614.81,-275.95C1638.07,-246.22 1717.97,-150.24 1809,-110.5 1874.44,-81.93 2087.16,-70.77 2177.18,-67.25"/>
<polygon fill="#63b8ff" stroke="#63b8ff" points="2177.17,-70.71 2187.03,-66.84 2176.91,-63.72 2177.17,-70.71"/>
</g>
<!-- Node26&#45;&gt;Node11 -->
<g id="edge48" class="edge">
<title>Node26&#45;&gt;Node11</title>
<path fill="none" stroke="#63b8ff" d="M1579.67,-282.05C1494.95,-273.6 1242.46,-248.42 1129.59,-237.17"/>
<polygon fill="#63b8ff" stroke="#63b8ff" points="1130.09,-233.6 1119.79,-236.09 1129.39,-240.57 1130.09,-233.6"/>
</g>
<!-- Node27&#45;&gt;Node9 -->
<g id="edge57" class="edge">
<title>Node27&#45;&gt;Node9</title>
<path fill="none" stroke="#63b8ff" d="M1580.6,-339.66C1623.41,-337.72 1702.31,-329.38 1759,-295.5 1851.57,-240.17 1821.72,-162.85 1916,-110.5 1960.09,-86.02 2105.54,-73.27 2177.27,-68.35"/>
<polygon fill="#63b8ff" stroke="#63b8ff" points="2177.38,-71.78 2187.12,-67.62 2176.91,-64.79 2177.38,-71.78"/>
</g>
<!-- Node27&#45;&gt;Node11 -->
<g id="edge55" class="edge">
<title>Node27&#45;&gt;Node11</title>
<path fill="none" stroke="#63b8ff" d="M1532.77,-331.22C1501.85,-315.36 1437.91,-283.25 1414,-276.25 1316.44,-247.69 1197.77,-237.38 1129.55,-233.67"/>
<polygon fill="#63b8ff" stroke="#63b8ff" points="1129.8,-230.13 1119.64,-233.11 1129.45,-237.12 1129.8,-230.13"/>
</g>
<!-- Node27&#45;&gt;Node15 -->
<g id="edge54" class="edge">
<title>Node27&#45;&gt;Node15</title>
<path fill="none" stroke="#63b8ff" d="M1538.36,-331C1520.37,-317.3 1484.29,-291.41 1450,-276.25 1393.99,-251.48 1354.22,-288.88 1317,-240.25 1283.68,-196.71 1361.55,-154.82 1409.26,-134.28"/>
<polygon fill="#63b8ff" stroke="#63b8ff" points="1410.35,-137.2 1418.22,-130.11 1407.65,-130.74 1410.35,-137.2"/>
</g>
<!-- Node27&#45;&gt;Node22 -->
<g id="edge56" class="edge">
<title>Node27&#45;&gt;Node22</title>
<path fill="none" stroke="#63b8ff" d="M1519.47,-333.6C1475.67,-324.23 1394.78,-306.93 1344.67,-296.21"/>
<polygon fill="#63b8ff" stroke="#63b8ff" points="1345.67,-292.64 1335.16,-293.97 1344.21,-299.48 1345.67,-292.64"/>
</g>
<!-- Node27&#45;&gt;Node26 -->
<g id="edge53" class="edge">
<title>Node27&#45;&gt;Node26</title>
<path fill="none" stroke="#63b8ff" d="M1559.84,-331.09C1568.14,-323.47 1580.23,-312.37 1590.22,-303.2"/>
<polygon fill="#63b8ff" stroke="#63b8ff" points="1592.31,-306.12 1597.31,-296.77 1587.57,-300.96 1592.31,-306.12"/>
</g>
<!-- Node28&#45;&gt;Node9 -->
<g id="edge62" class="edge">
<title>Node28&#45;&gt;Node9</title>
<path fill="none" stroke="#63b8ff" d="M1871.48,-386.29C1874,-373.1 1880.15,-348.38 1893,-331.5 1909.81,-309.43 1924.62,-315.35 1944,-295.5 2013.14,-224.67 1988.3,-169.19 2068,-110.5 2100.19,-86.79 2144.94,-75.6 2177.17,-70.36"/>
<polygon fill="#63b8ff" stroke="#63b8ff" points="2177.63,-73.68 2187,-68.75 2176.6,-66.76 2177.63,-73.68"/>
</g>
<!-- Node28&#45;&gt;Node15 -->
<g id="edge61" class="edge">
<title>Node28&#45;&gt;Node15</title>
<path fill="none" stroke="#63b8ff" d="M1863.39,-386.25C1847.45,-364.78 1804.85,-310.28 1759,-276.25 1667.11,-208.04 1540.57,-156.62 1479.24,-133.92"/>
<polygon fill="#63b8ff" stroke="#63b8ff" points="1480.52,-130.29 1469.92,-130.14 1478.11,-136.87 1480.52,-130.29"/>
</g>
<!-- Node29 -->
<g id="node29" class="node">
<title>Node29</title>
<g id="a_node29"><a xlink:title=" ">
<polygon fill="#e0e0e0" stroke="#999999" points="1947.62,-350.75 1902.38,-350.75 1902.38,-331.5 1947.62,-331.5 1947.62,-350.75"/>
<text text-anchor="middle" x="1925" y="-337.25" font-family="Helvetica,sans-Serif" font-size="10.00">cstdint</text>
</a>
</g>
</g>
<!-- Node28&#45;&gt;Node29 -->
<g id="edge60" class="edge">
<title>Node28&#45;&gt;Node29</title>
<path fill="none" stroke="#63b8ff" d="M1879.08,-386.58C1886.92,-379 1898.44,-367.84 1907.99,-358.6"/>
<polygon fill="#63b8ff" stroke="#63b8ff" points="1909.97,-361.58 1914.72,-352.11 1905.1,-356.55 1909.97,-361.58"/>
</g>
<!-- Node30&#45;&gt;Node2 -->
<g id="edge65" class="edge">
<title>Node30&#45;&gt;Node2</title>
<path fill="none" stroke="#63b8ff" d="M1654.04,-277.61C1572.38,-265.23 1414.84,-241.26 1412,-240.25 1395.99,-234.58 1395.2,-226.09 1379,-221 1190.13,-161.64 1131.26,-211.01 935,-185 700.18,-153.88 421.11,-94.68 324.74,-73.58"/>
<polygon fill="#63b8ff" stroke="#63b8ff" points="325.68,-69.99 315.17,-71.26 324.18,-76.82 325.68,-69.99"/>
</g>
<!-- Node30&#45;&gt;Node4 -->
<g id="edge68" class="edge">
<title>Node30&#45;&gt;Node4</title>
<path fill="none" stroke="#63b8ff" d="M1703.4,-275.77C1707.91,-243.23 1719.41,-130.72 1676,-55.25 1668.77,-42.68 1656.42,-32.58 1644.8,-25.19"/>
<polygon fill="#63b8ff" stroke="#63b8ff" points="1646.73,-21.68 1636.34,-19.63 1643.19,-27.71 1646.73,-21.68"/>
</g>
<!-- Node30&#45;&gt;Node6 -->
<g id="edge64" class="edge">
<title>Node30&#45;&gt;Node6</title>
<path fill="none" stroke="#63b8ff" d="M1667.45,-275.79C1613.36,-261.9 1505.23,-235.48 1412,-221 1238.68,-194.08 1191.03,-219.19 1019,-185 937.75,-168.86 917.6,-161.27 841,-129.75 823.86,-122.7 820.82,-118.3 804,-110.5 779.13,-98.97 750.42,-87.28 728.7,-78.75"/>
<polygon fill="#63b8ff" stroke="#63b8ff" points="730.24,-75.21 719.65,-74.84 727.7,-81.73 730.24,-75.21"/>
</g>
<!-- Node30&#45;&gt;Node7 -->
<g id="edge70" class="edge">
<title>Node30&#45;&gt;Node7</title>
<path fill="none" stroke="#63b8ff" d="M1653.84,-277.27C1650.85,-276.89 1647.89,-276.55 1645,-276.25 1368.7,-247.44 1298.18,-258.73 1021,-240.25 992.54,-238.35 960.1,-235.87 937.13,-234.05"/>
<polygon fill="#63b8ff" stroke="#63b8ff" points="937.6,-230.5 927.36,-233.2 937.05,-237.48 937.6,-230.5"/>
</g>
<!-- Node30&#45;&gt;Node9 -->
<g id="edge74" class="edge">
<title>Node30&#45;&gt;Node9</title>
<path fill="none" stroke="#63b8ff" d="M1705.91,-276C1719.45,-246.46 1767.53,-150.98 1840,-110.5 1897.07,-78.62 2091.74,-69.36 2177.2,-66.8"/>
<polygon fill="#63b8ff" stroke="#63b8ff" points="2177.14,-70.28 2187.03,-66.5 2176.94,-63.28 2177.14,-70.28"/>
</g>
<!-- Node30&#45;&gt;Node11 -->
<g id="edge72" class="edge">
<title>Node30&#45;&gt;Node11</title>
<path fill="none" stroke="#63b8ff" d="M1653.83,-277.34C1650.85,-276.95 1647.88,-276.58 1645,-276.25 1456.47,-254.65 1231.7,-240.45 1129.5,-234.63"/>
<polygon fill="#63b8ff" stroke="#63b8ff" points="1129.71,-231.08 1119.53,-234.01 1129.31,-238.07 1129.71,-231.08"/>
</g>
<!-- Node30&#45;&gt;Node12 -->
<g id="edge69" class="edge">
<title>Node30&#45;&gt;Node12</title>
<path fill="none" stroke="#63b8ff" d="M1675.77,-275.76C1650.59,-266.94 1611.56,-253.06 1578,-240.25 1427.06,-182.65 1248.66,-108.78 1177.55,-79.09"/>
<polygon fill="#63b8ff" stroke="#63b8ff" points="1179.04,-75.5 1168.46,-74.88 1176.34,-81.96 1179.04,-75.5"/>
</g>
<!-- Node30&#45;&gt;Node15 -->
<g id="edge71" class="edge">
<title>Node30&#45;&gt;Node15</title>
<path fill="none" stroke="#63b8ff" d="M1681.51,-275.81C1662.96,-267.35 1635.08,-253.99 1612,-240.25 1555.82,-206.79 1494.03,-160.63 1463.05,-136.79"/>
<polygon fill="#63b8ff" stroke="#63b8ff" points="1465.52,-133.5 1455.47,-130.15 1461.23,-139.03 1465.52,-133.5"/>
</g>
<!-- Node30&#45;&gt;Node17 -->
<g id="edge67" class="edge">
<title>Node30&#45;&gt;Node17</title>
<path fill="none" stroke="#63b8ff" d="M1685.36,-275.75C1673.16,-268.05 1657.47,-255.8 1650,-240.25 1625.34,-188.94 1633.65,-119 1639.82,-85.43"/>
<polygon fill="#63b8ff" stroke="#63b8ff" points="1643.41,-86.29 1641.92,-75.8 1636.54,-84.93 1643.41,-86.29"/>
</g>
<!-- Node30&#45;&gt;Node24 -->
<g id="edge73" class="edge">
<title>Node30&#45;&gt;Node24</title>
<path fill="none" stroke="#63b8ff" d="M1749.96,-278.92C1825.66,-269.53 1973.19,-251.21 2060.81,-240.34"/>
<polygon fill="#63b8ff" stroke="#63b8ff" points="2061.23,-243.69 2070.72,-238.98 2060.36,-236.74 2061.23,-243.69"/>
</g>
<!-- Node31 -->
<g id="node31" class="node">
<title>Node31</title>
<g id="a_node31"><a xlink:title=" ">
<polygon fill="#e0e0e0" stroke="#999999" points="1370.25,-240.25 1325.75,-240.25 1325.75,-221 1370.25,-221 1370.25,-240.25"/>
<text text-anchor="middle" x="1348" y="-226.75" font-family="Helvetica,sans-Serif" font-size="10.00">stdio.h</text>
</a>
</g>
</g>
<!-- Node30&#45;&gt;Node31 -->
<g id="edge66" class="edge">
<title>Node30&#45;&gt;Node31</title>
<path fill="none" stroke="#63b8ff" d="M1653.8,-277.54C1650.83,-277.1 1647.87,-276.67 1645,-276.25 1529.11,-259.49 1499.08,-261.92 1384,-240.25 1383.03,-240.07 1382.05,-239.88 1381.06,-239.68"/>
<polygon fill="#63b8ff" stroke="#63b8ff" points="1381.91,-236.06 1371.4,-237.35 1380.42,-242.9 1381.91,-236.06"/>
</g>
<!-- Node32&#45;&gt;Node6 -->
<g id="edge79" class="edge">
<title>Node32&#45;&gt;Node6</title>
<path fill="none" stroke="#63b8ff" d="M2147.44,-560.73C1964.78,-558.75 1207.49,-548.63 1107,-516.5 886.17,-445.88 670,-463.47 670,-231.62 670,-231.62 670,-231.62 670,-174.38 670,-142.57 680.33,-106.83 687.71,-85.35"/>
<polygon fill="#63b8ff" stroke="#63b8ff" points="691.34,-86.59 691.42,-76 684.75,-84.23 691.34,-86.59"/>
</g>
<!-- Node32&#45;&gt;Node8 -->
<g id="edge82" class="edge">
<title>Node32&#45;&gt;Node8</title>
<path fill="none" stroke="#63b8ff" d="M2226.38,-557.38C2323.96,-548.1 2577.24,-524.02 2690.65,-513.23"/>
<polygon fill="#63b8ff" stroke="#63b8ff" points="2690.88,-516.63 2700.5,-512.2 2690.21,-509.66 2690.88,-516.63"/>
</g>
<!-- Node32&#45;&gt;Node9 -->
<g id="edge89" class="edge">
<title>Node32&#45;&gt;Node9</title>
<path fill="none" stroke="#63b8ff" d="M2226.39,-560.66C2268.47,-558.34 2335.38,-549.23 2382,-516.5 2462.02,-460.33 2429.21,-397.86 2501,-331.5 2525.82,-308.55 2550.65,-324.51 2568,-295.5 2579.02,-277.07 2576.45,-123 2565,-110.5 2519.98,-61.34 2339.01,-84.53 2258.75,-75.11"/>
<polygon fill="#63b8ff" stroke="#63b8ff" points="2259.51,-71.54 2249.11,-73.55 2258.5,-78.46 2259.51,-71.54"/>
</g>
<!-- Node32&#45;&gt;Node11 -->
<g id="edge84" class="edge">
<title>Node32&#45;&gt;Node11</title>
<path fill="none" stroke="#63b8ff" d="M2147.65,-559.85C1966.02,-553.62 1214.08,-524.19 1132,-461.25 1066.25,-410.83 1068.07,-297.5 1071.83,-251.54"/>
<polygon fill="#63b8ff" stroke="#63b8ff" points="1075.4,-251.99 1072.86,-241.71 1068.43,-251.33 1075.4,-251.99"/>
</g>
<!-- Node32&#45;&gt;Node26 -->
<g id="edge83" class="edge">
<title>Node32&#45;&gt;Node26</title>
<path fill="none" stroke="#63b8ff" d="M2181.65,-552.3C2159.49,-516.64 2070.69,-382.73 1957,-331.5 1832.85,-275.55 1784.88,-317.24 1646.76,-295.55"/>
<polygon fill="#63b8ff" stroke="#63b8ff" points="1647.65,-291.99 1637.21,-293.8 1646.51,-298.89 1647.65,-291.99"/>
</g>
<!-- Node33 -->
<g id="node33" class="node">
<title>Node33</title>
<g id="a_node33"><a xlink:title=" ">
<polygon fill="#e0e0e0" stroke="#999999" points="2315,-516.5 2257,-516.5 2257,-497.25 2315,-497.25 2315,-516.5"/>
<text text-anchor="middle" x="2286" y="-503" font-family="Helvetica,sans-Serif" font-size="10.00">functional</text>
</a>
</g>
</g>
<!-- Node32&#45;&gt;Node33 -->
<g id="edge80" class="edge">
<title>Node32&#45;&gt;Node33</title>
<path fill="none" stroke="#63b8ff" d="M2203.79,-552.09C2219.15,-543.83 2242.12,-531.48 2259.88,-521.93"/>
<polygon fill="#63b8ff" stroke="#63b8ff" points="2260.97,-524.77 2268.12,-516.95 2257.66,-518.61 2260.97,-524.77"/>
</g>
<!-- Node34 -->
<g id="node34" class="node">
<title>Node34</title>
<g id="a_node34"><a xlink:title=" ">
<polygon fill="#e0e0e0" stroke="#999999" points="2373,-516.5 2333,-516.5 2333,-497.25 2373,-497.25 2373,-516.5"/>
<text text-anchor="middle" x="2353" y="-503" font-family="Helvetica,sans-Serif" font-size="10.00">string</text>
</a>
</g>
</g>
<!-- Node32&#45;&gt;Node34 -->
<g id="edge81" class="edge">
<title>Node32&#45;&gt;Node34</title>
<path fill="none" stroke="#63b8ff" d="M2215.16,-552.09C2244.95,-542.54 2291.79,-527.51 2322.46,-517.67"/>
<polygon fill="#63b8ff" stroke="#63b8ff" points="2323.12,-520.82 2331.57,-514.43 2320.98,-514.15 2323.12,-520.82"/>
</g>
<!-- Node35 -->
<g id="node35" class="node">
<title>Node35</title>
<g id="a_node35"><a xlink:href="v8-promise_8h.html" target="_top" xlink:title=" ">
<polygon fill="white" stroke="#666666" points="1628.75,-516.5 1557.25,-516.5 1557.25,-497.25 1628.75,-497.25 1628.75,-516.5"/>
<text text-anchor="middle" x="1593" y="-503" font-family="Helvetica,sans-Serif" font-size="10.00">v8&#45;promise.h</text>
</a>
</g>
</g>
<!-- Node32&#45;&gt;Node35 -->
<g id="edge85" class="edge">
<title>Node32&#45;&gt;Node35</title>
<path fill="none" stroke="#63b8ff" d="M2147.49,-559.45C2058.51,-555.34 1835.52,-543.23 1639.74,-516.74"/>
<polygon fill="#63b8ff" stroke="#63b8ff" points="1640.35,-513.16 1629.96,-515.27 1639.4,-520.09 1640.35,-513.16"/>
</g>
<!-- Node35&#45;&gt;Node9 -->
<g id="edge88" class="edge">
<title>Node35&#45;&gt;Node9</title>
<path fill="none" stroke="#63b8ff" d="M1628.96,-498.44C1631.67,-497.99 1634.38,-497.59 1637,-497.25 1758.46,-481.44 2076.81,-514.73 2187,-461.25 2227.06,-441.81 2221.3,-416.97 2254,-386.75 2273.32,-368.89 2285.04,-371.67 2301,-350.75 2333.17,-308.6 2335.81,-292.29 2346,-240.25 2355.93,-189.53 2314.83,-118.28 2308,-110.5 2294.82,-95.5 2275.42,-84.98 2258,-77.95"/>
<polygon fill="#63b8ff" stroke="#63b8ff" points="2259.63,-74.45 2249.04,-74.2 2257.17,-81 2259.63,-74.45"/>
</g>
<!-- Node35&#45;&gt;Node11 -->
<g id="edge86" class="edge">
<title>Node35&#45;&gt;Node11</title>
<path fill="none" stroke="#63b8ff" d="M1556.87,-504.47C1456.84,-500.27 1181.51,-486.51 1150,-461.25 1116.25,-434.19 1087.6,-301.98 1077.7,-251.38"/>
<polygon fill="#63b8ff" stroke="#63b8ff" points="1080.96,-250.79 1075.64,-241.63 1074.09,-252.11 1080.96,-250.79"/>
</g>
<!-- Node35&#45;&gt;Node21 -->
<g id="edge87" class="edge">
<title>Node35&#45;&gt;Node21</title>
<path fill="none" stroke="#63b8ff" d="M1594.82,-497.08C1596.21,-490.34 1598.19,-480.77 1599.95,-472.24"/>
<polygon fill="#63b8ff" stroke="#63b8ff" points="1603.55,-473.11 1602.14,-462.61 1596.69,-471.69 1603.55,-473.11"/>
</g>
<!-- Node36&#45;&gt;Node2 -->
<g id="edge92" class="edge">
<title>Node36&#45;&gt;Node2</title>
<path fill="none" stroke="#63b8ff" d="M1034.27,-664.68C1031.14,-664.07 1028.01,-663.5 1025,-663 701.64,-608.93 594.72,-700.02 293,-571.75 251.45,-554.08 214,-553.03 214,-507.88 214,-507.88 214,-507.88 214,-284.88 214,-206.49 257.99,-120.61 279.04,-84.01"/>
<polygon fill="#63b8ff" stroke="#63b8ff" points="282.48,-86.06 284.53,-75.67 276.45,-82.51 282.48,-86.06"/>
</g>
<!-- Node36&#45;&gt;Node9 -->
<g id="edge117" class="edge">
<title>Node36&#45;&gt;Node9</title>
<path fill="none" stroke="#63b8ff" d="M1097.95,-670.4C1267.35,-663.71 2061.65,-629.72 2300,-571.75 2420.76,-542.38 2553,-576.91 2553,-452.62 2553,-452.62 2553,-452.62 2553,-395.38 2553,-365.76 2558.01,-357.61 2572,-331.5 2581.84,-313.14 2591.07,-313.23 2602,-295.5 2616.05,-272.71 2619.38,-266.19 2626,-240.25 2640.49,-183.51 2651.27,-143.67 2603,-110.5 2541.21,-68.03 2346.9,-86.22 2258.81,-75.16"/>
<polygon fill="#63b8ff" stroke="#63b8ff" points="2259.51,-71.58 2249.11,-73.58 2258.49,-78.51 2259.51,-71.58"/>
</g>
<!-- Node37 -->
<g id="node37" class="node">
<title>Node37</title>
<g id="a_node37"><a xlink:href="v8-script_8h.html" target="_top" xlink:title=" ">
<polygon fill="white" stroke="#666666" points="966.5,-627 905.5,-627 905.5,-607.75 966.5,-607.75 966.5,-627"/>
<text text-anchor="middle" x="936" y="-613.5" font-family="Helvetica,sans-Serif" font-size="10.00">v8&#45;script.h</text>
</a>
</g>
</g>
<!-- Node36&#45;&gt;Node37 -->
<g id="edge93" class="edge">
<title>Node36&#45;&gt;Node37</title>
<path fill="none" stroke="#63b8ff" d="M1043.95,-662.59C1023.12,-654.06 991.66,-641.17 968.06,-631.51"/>
<polygon fill="#63b8ff" stroke="#63b8ff" points="969.74,-628 959.16,-627.45 967.09,-634.48 969.74,-628"/>
</g>
<!-- Node37&#45;&gt;Node2 -->
<g id="edge95" class="edge">
<title>Node37&#45;&gt;Node2</title>
<path fill="none" stroke="#63b8ff" d="M905.23,-615.09C783.09,-609.85 337.93,-589.63 314,-571.75 289.7,-553.6 290,-538.2 290,-507.88 290,-507.88 290,-507.88 290,-174.38 290,-143.37 290,-107.38 290,-85.63"/>
<polygon fill="#63b8ff" stroke="#63b8ff" points="293.5,-85.88 290,-75.88 286.5,-85.88 293.5,-85.88"/>
</g>
<!-- Node37&#45;&gt;Node4 -->
<g id="edge96" class="edge">
<title>Node37&#45;&gt;Node4</title>
<path fill="none" stroke="#63b8ff" d="M905,-616.35C816.84,-615.79 566.46,-610.73 496,-571.75 393.38,-514.98 366,-459.4 366,-342.12 366,-342.12 366,-342.12 366,-284.88 366,-118.73 499.12,-92.66 661,-55.25 840.66,-13.74 1427.86,-10.67 1579.83,-10.58"/>
<polygon fill="#63b8ff" stroke="#63b8ff" points="1579.41,-14.08 1589.41,-10.58 1579.41,-7.08 1579.41,-14.08"/>
</g>
<!-- Node37&#45;&gt;Node6 -->
<g id="edge94" class="edge">
<title>Node37&#45;&gt;Node6</title>
<path fill="none" stroke="#63b8ff" d="M905.05,-611.74C820.86,-597.2 594,-544.38 594,-397.38 594,-397.38 594,-397.38 594,-174.38 594,-131.14 637.5,-97.92 667.41,-80.19"/>
<polygon fill="#63b8ff" stroke="#63b8ff" points="668.97,-82.76 675.94,-74.78 665.52,-76.67 668.97,-82.76"/>
</g>
<!-- Node37&#45;&gt;Node9 -->
<g id="edge116" class="edge">
<title>Node37&#45;&gt;Node9</title>
<path fill="none" stroke="#63b8ff" d="M966.96,-616.47C1139.12,-616.82 1980.05,-616.19 2235,-571.75 2314.1,-557.96 2341.46,-562.88 2407,-516.5 2489.45,-458.16 2470.06,-405.32 2539,-331.5 2556.48,-312.78 2572.08,-318.17 2584,-295.5 2622.28,-222.72 2639.63,-168.16 2581,-110.5 2531.02,-61.34 2342.8,-84.97 2258.98,-75.14"/>
<polygon fill="#63b8ff" stroke="#63b8ff" points="2259.51,-71.54 2249.11,-73.56 2258.5,-78.46 2259.51,-71.54"/>
</g>
<!-- Node37&#45;&gt;Node11 -->
<g id="edge101" class="edge">
<title>Node37&#45;&gt;Node11</title>
<path fill="none" stroke="#63b8ff" d="M936,-607.37C936,-588.78 936,-544.8 936,-507.88 936,-507.88 936,-507.88 936,-340.12 936,-309.8 938.7,-297.84 960,-276.25 975.9,-260.13 998.3,-249.7 1019.04,-243.02"/>
<polygon fill="#63b8ff" stroke="#63b8ff" points="1019.79,-246.15 1028.37,-239.94 1017.79,-239.44 1019.79,-246.15"/>
</g>
<!-- Node37&#45;&gt;Node13 -->
<g id="edge98" class="edge">
<title>Node37&#45;&gt;Node13</title>
<path fill="none" stroke="#63b8ff" d="M905.13,-616.14C821.45,-615.03 592.29,-608.61 528,-571.75 453.04,-528.76 442,-483.79 442,-397.38 442,-397.38 442,-397.38 442,-284.88 442,-252.86 452.84,-216.95 460.52,-195.53"/>
<polygon fill="#63b8ff" stroke="#63b8ff" points="464.05,-197.08 464.27,-186.49 457.49,-194.63 464.05,-197.08"/>
</g>
<!-- Node37&#45;&gt;Node22 -->
<g id="edge102" class="edge">
<title>Node37&#45;&gt;Node22</title>
<path fill="none" stroke="#63b8ff" d="M941.44,-607.46C951.95,-589.38 974,-546.79 974,-507.88 974,-507.88 974,-507.88 974,-450.62 974,-325.5 1167.78,-295.98 1257,-289.02"/>
<polygon fill="#63b8ff" stroke="#63b8ff" points="1257.12,-292.45 1266.85,-288.25 1256.62,-285.47 1257.12,-292.45"/>
</g>
<!-- Node37&#45;&gt;Node26 -->
<g id="edge100" class="edge">
<title>Node37&#45;&gt;Node26</title>
<path fill="none" stroke="#63b8ff" d="M966.68,-614.92C1107.53,-607.94 1687.67,-575.73 1740,-516.5 1802.34,-445.94 1680.51,-341.35 1629.24,-302.31"/>
<polygon fill="#63b8ff" stroke="#63b8ff" points="1631.65,-299 1621.55,-295.81 1627.46,-304.6 1631.65,-299"/>
</g>
<!-- Node37&#45;&gt;Node32 -->
<g id="edge99" class="edge">
<title>Node37&#45;&gt;Node32</title>
<path fill="none" stroke="#63b8ff" d="M966.92,-615.06C1133.92,-607.95 1928.22,-574.14 2136.76,-565.26"/>
<polygon fill="#63b8ff" stroke="#63b8ff" points="2136.83,-568.72 2146.67,-564.8 2136.53,-561.73 2136.83,-568.72"/>
</g>
<!-- Node38 -->
<g id="node38" class="node">
<title>Node38</title>
<g id="a_node38"><a xlink:title=" ">
<polygon fill="#e0e0e0" stroke="#999999" points="907.5,-571.75 870.5,-571.75 870.5,-552.5 907.5,-552.5 907.5,-571.75"/>
<text text-anchor="middle" x="889" y="-558.25" font-family="Helvetica,sans-Serif" font-size="10.00">tuple</text>
</a>
</g>
</g>
<!-- Node37&#45;&gt;Node38 -->
<g id="edge97" class="edge">
<title>Node37&#45;&gt;Node38</title>
<path fill="none" stroke="#63b8ff" d="M928.24,-607.58C921.68,-600.15 912.09,-589.29 904.04,-580.16"/>
<polygon fill="#63b8ff" stroke="#63b8ff" points="907.17,-578.29 897.93,-573.11 901.92,-582.92 907.17,-578.29"/>
</g>
<!-- Node39 -->
<g id="node39" class="node">
<title>Node39</title>
<g id="a_node39"><a xlink:href="v8-memory-span_8h.html" target="_top" xlink:title=" ">
<polygon fill="white" stroke="#666666" points="945.75,-129.75 850.25,-129.75 850.25,-110.5 945.75,-110.5 945.75,-129.75"/>
<text text-anchor="middle" x="898" y="-116.25" font-family="Helvetica,sans-Serif" font-size="10.00">v8&#45;memory&#45;span.h</text>
</a>
</g>
</g>
<!-- Node37&#45;&gt;Node39 -->
<g id="edge103" class="edge">
<title>Node37&#45;&gt;Node39</title>
<path fill="none" stroke="#63b8ff" d="M913.61,-607.31C897.31,-599.79 875.62,-587.74 861,-571.75 824.25,-531.55 820.08,-514.36 808,-461.25 779.8,-337.25 856.99,-189.99 886.81,-139.31"/>
<polygon fill="#63b8ff" stroke="#63b8ff" points="890.25,-141.38 892.39,-131 884.24,-137.77 890.25,-141.38"/>
</g>
<!-- Node41 -->
<g id="node41" class="node">
<title>Node41</title>
<g id="a_node41"><a xlink:href="v8-message_8h.html" target="_top" xlink:title=" ">
<polygon fill="white" stroke="#666666" points="1416.38,-461.25 1339.62,-461.25 1339.62,-442 1416.38,-442 1416.38,-461.25"/>
<text text-anchor="middle" x="1378" y="-447.75" font-family="Helvetica,sans-Serif" font-size="10.00">v8&#45;message.h</text>
</a>
</g>
</g>
<!-- Node37&#45;&gt;Node41 -->
<g id="edge109" class="edge">
<title>Node37&#45;&gt;Node41</title>
<path fill="none" stroke="#63b8ff" d="M947.17,-607.6C979.28,-582.55 1071.8,-511.55 1107,-497.25 1180.36,-467.45 1272.58,-457.53 1328.32,-454.24"/>
<polygon fill="#63b8ff" stroke="#63b8ff" points="1328.5,-457.69 1338.3,-453.65 1328.13,-450.7 1328.5,-457.69"/>
</g>
<!-- Node39&#45;&gt;Node6 -->
<g id="edge104" class="edge">
<title>Node39&#45;&gt;Node6</title>
<path fill="none" stroke="#63b8ff" d="M863.56,-110.09C826.71,-100.42 768.49,-85.15 731.03,-75.33"/>
<polygon fill="#63b8ff" stroke="#63b8ff" points="732.15,-71.74 721.58,-72.59 730.37,-78.51 732.15,-71.74"/>
</g>
<!-- Node39&#45;&gt;Node9 -->
<g id="edge108" class="edge">
<title>Node39&#45;&gt;Node9</title>
<path fill="none" stroke="#63b8ff" d="M946.15,-117.18C1155.27,-108.75 1982.88,-75.36 2177.07,-67.53"/>
<polygon fill="#63b8ff" stroke="#63b8ff" points="2177.06,-70.99 2186.91,-67.09 2176.77,-63.99 2177.06,-70.99"/>
</g>
<!-- Node39&#45;&gt;Node12 -->
<g id="edge107" class="edge">
<title>Node39&#45;&gt;Node12</title>
<path fill="none" stroke="#63b8ff" d="M940.35,-110.03C986.23,-100.18 1058.96,-84.56 1104.51,-74.78"/>
<polygon fill="#63b8ff" stroke="#63b8ff" points="1105.15,-78.01 1114.19,-72.49 1103.68,-71.17 1105.15,-78.01"/>
</g>
<!-- Node39&#45;&gt;Node18 -->
<g id="edge106" class="edge">
<title>Node39&#45;&gt;Node18</title>
<path fill="none" stroke="#63b8ff" d="M917,-110.09C934.54,-101.75 960.84,-89.25 981,-79.66"/>
<polygon fill="#63b8ff" stroke="#63b8ff" points="982.38,-82.41 989.91,-74.95 979.37,-76.09 982.38,-82.41"/>
</g>
<!-- Node40 -->
<g id="node40" class="node">
<title>Node40</title>
<g id="a_node40"><a xlink:title=" ">
<polygon fill="#e0e0e0" stroke="#999999" points="916.5,-74.5 879.5,-74.5 879.5,-55.25 916.5,-55.25 916.5,-74.5"/>
<text text-anchor="middle" x="898" y="-61" font-family="Helvetica,sans-Serif" font-size="10.00">array</text>
</a>
</g>
</g>
<!-- Node39&#45;&gt;Node40 -->
<g id="edge105" class="edge">
<title>Node39&#45;&gt;Node40</title>
<path fill="none" stroke="#63b8ff" d="M898,-110.33C898,-103.67 898,-94.24 898,-85.78"/>
<polygon fill="#63b8ff" stroke="#63b8ff" points="901.5,-85.86 898,-75.86 894.5,-85.86 901.5,-85.86"/>
</g>
<!-- Node41&#45;&gt;Node9 -->
<g id="edge115" class="edge">
<title>Node41&#45;&gt;Node9</title>
<path fill="none" stroke="#63b8ff" d="M1416.63,-450.24C1472.6,-448.43 1578.56,-440.28 1661,-406 1737.79,-374.07 1746.03,-346.13 1812,-295.5 1916.07,-215.63 1924.62,-169.08 2042,-110.5 2085.45,-88.82 2140.35,-77.07 2177.18,-71.15"/>
<polygon fill="#63b8ff" stroke="#63b8ff" points="2177.64,-74.47 2186.99,-69.5 2176.58,-67.55 2177.64,-74.47"/>
</g>
<!-- Node41&#45;&gt;Node11 -->
<g id="edge112" class="edge">
<title>Node41&#45;&gt;Node11</title>
<path fill="none" stroke="#63b8ff" d="M1339.15,-447.75C1304.92,-443.46 1255.31,-432.74 1221,-406 1190.85,-382.5 1198.4,-363.83 1178,-331.5 1162.09,-306.3 1161.16,-297.24 1140,-276.25 1128.26,-264.61 1113.1,-254.11 1100.26,-246.22"/>
<polygon fill="#63b8ff" stroke="#63b8ff" points="1102.39,-242.82 1092,-240.73 1098.81,-248.84 1102.39,-242.82"/>
</g>
<!-- Node41&#45;&gt;Node22 -->
<g id="edge113" class="edge">
<title>Node41&#45;&gt;Node22</title>
<path fill="none" stroke="#63b8ff" d="M1373.86,-441.82C1361.74,-416.05 1326.17,-340.4 1309.63,-305.24"/>
<polygon fill="#63b8ff" stroke="#63b8ff" points="1312.58,-304.28 1305.16,-296.72 1306.25,-307.26 1312.58,-304.28"/>
</g>
<!-- Node41&#45;&gt;Node25 -->
<g id="edge114" class="edge">
<title>Node41&#45;&gt;Node25</title>
<path fill="none" stroke="#63b8ff" d="M1416.87,-441.89C1458,-432.65 1522.94,-418.06 1567.18,-408.12"/>
<polygon fill="#63b8ff" stroke="#63b8ff" points="1567.68,-411.37 1576.67,-405.76 1566.15,-404.54 1567.68,-411.37"/>
</g>
<!-- Node41&#45;&gt;Node31 -->
<g id="edge110" class="edge">
<title>Node41&#45;&gt;Node31</title>
<path fill="none" stroke="#63b8ff" d="M1376.79,-441.77C1372.35,-409.37 1356.93,-296.8 1350.67,-251.12"/>
<polygon fill="#63b8ff" stroke="#63b8ff" points="1354.02,-250.78 1349.2,-241.35 1347.09,-251.73 1354.02,-250.78"/>
</g>
<!-- Node42 -->
<g id="node42" class="node">
<title>Node42</title>
<g id="a_node42"><a xlink:title=" ">
<polygon fill="#e0e0e0" stroke="#999999" points="1274.25,-406 1229.75,-406 1229.75,-386.75 1274.25,-386.75 1274.25,-406"/>
<text text-anchor="middle" x="1252" y="-392.5" font-family="Helvetica,sans-Serif" font-size="10.00">iosfwd</text>
</a>
</g>
</g>
<!-- Node41&#45;&gt;Node42 -->
<g id="edge111" class="edge">
<title>Node41&#45;&gt;Node42</title>
<path fill="none" stroke="#63b8ff" d="M1356.63,-441.59C1336.53,-433.1 1306.22,-420.29 1283.38,-410.64"/>
<polygon fill="#63b8ff" stroke="#63b8ff" points="1285.05,-407.12 1274.48,-406.45 1282.33,-413.57 1285.05,-407.12"/>
</g>
<!-- Node43&#45;&gt;Node9 -->
<g id="edge120" class="edge">
<title>Node43&#45;&gt;Node9</title>
<path fill="none" stroke="#63b8ff" d="M2648.13,-331.32C2659.82,-323.56 2675.12,-311.08 2682,-295.5 2691.11,-274.87 2687.62,-119.74 2679,-110.5 2650.59,-80.05 2366.26,-69.66 2258.82,-66.8"/>
<polygon fill="#63b8ff" stroke="#63b8ff" points="2259.18,-63.29 2249.1,-66.53 2259,-70.28 2259.18,-63.29"/>
</g>
<!-- Node43&#45;&gt;Node30 -->
<g id="edge119" class="edge">
<title>Node43&#45;&gt;Node30</title>
<path fill="none" stroke="#63b8ff" d="M2580.95,-337.15C2420,-327.94 1930.98,-299.97 1760.99,-290.25"/>
<polygon fill="#63b8ff" stroke="#63b8ff" points="1761.2,-286.7 1751.02,-289.62 1760.8,-293.69 1761.2,-286.7"/>
</g>
<!-- Node44&#45;&gt;Node6 -->
<g id="edge122" class="edge">
<title>Node44&#45;&gt;Node6</title>
<path fill="none" stroke="#63b8ff" d="M1115.74,-503.87C1062.01,-500.14 963.2,-489.71 884,-461.25 755.83,-415.19 632,-423.07 632,-286.88 632,-286.88 632,-286.88 632,-174.38 632,-137.94 658.89,-102.8 677.53,-82.82"/>
<polygon fill="#63b8ff" stroke="#63b8ff" points="679.69,-85.59 684.16,-75.99 674.67,-80.71 679.69,-85.59"/>
</g>
<!-- Node44&#45;&gt;Node9 -->
<g id="edge125" class="edge">
<title>Node44&#45;&gt;Node9</title>
<path fill="none" stroke="#63b8ff" d="M1194.57,-505.23C1360.48,-502.34 1995.26,-489.52 2080,-461.25 2163.02,-433.55 2192.75,-422.41 2243,-350.75 2283.91,-292.41 2252.89,-115.89 2251,-110.5 2247.48,-100.43 2240.83,-90.73 2234.42,-82.96"/>
<polygon fill="#63b8ff" stroke="#63b8ff" points="2237.46,-80.98 2228.21,-75.81 2232.22,-85.62 2237.46,-80.98"/>
</g>
<!-- Node44&#45;&gt;Node11 -->
<g id="edge123" class="edge">
<title>Node44&#45;&gt;Node11</title>
<path fill="none" stroke="#63b8ff" d="M1127.94,-496.82C1110.36,-489.68 1088.16,-478.08 1074,-461.25 1040.57,-421.5 1044.56,-401.97 1036,-350.75 1030.54,-318.09 1024.56,-307.32 1036,-276.25 1039.92,-265.59 1047.65,-255.74 1055.12,-248.02"/>
<polygon fill="#63b8ff" stroke="#63b8ff" points="1057.12,-250.99 1061.93,-241.55 1052.28,-245.94 1057.12,-250.99"/>
</g>
<!-- Node44&#45;&gt;Node21 -->
<g id="edge124" class="edge">
<title>Node44&#45;&gt;Node21</title>
<path fill="none" stroke="#63b8ff" d="M1194.45,-501.2C1278.5,-491.23 1474.62,-467.97 1561.4,-457.68"/>
<polygon fill="#63b8ff" stroke="#63b8ff" points="1561.64,-461.05 1571.16,-456.4 1560.82,-454.1 1561.64,-461.05"/>
</g>
<!-- Node45&#45;&gt;Node9 -->
<g id="edge132" class="edge">
<title>Node45&#45;&gt;Node9</title>
<path fill="none" stroke="#63b8ff" d="M2029.81,-441.73C2062.27,-420.21 2144.34,-362.17 2193,-295.5 2237.93,-233.94 2234.93,-205.94 2237,-129.75 2237.23,-121.2 2238.71,-118.88 2237,-110.5 2235.19,-101.64 2231.56,-92.36 2227.95,-84.57"/>
<polygon fill="#63b8ff" stroke="#63b8ff" points="2230.65,-83.14 2223.05,-75.76 2224.38,-86.27 2230.65,-83.14"/>
</g>
<!-- Node45&#45;&gt;Node11 -->
<g id="edge130" class="edge">
<title>Node45&#45;&gt;Node11</title>
<path fill="none" stroke="#63b8ff" d="M1960.27,-449.33C1875.03,-446.39 1707.55,-436.85 1569,-406 1475.76,-385.24 1203.21,-281.52 1107.61,-244.65"/>
<polygon fill="#63b8ff" stroke="#63b8ff" points="1108.95,-241.03 1098.36,-240.7 1106.43,-247.56 1108.95,-241.03"/>
</g>
<!-- Node45&#45;&gt;Node15 -->
<g id="edge129" class="edge">
<title>Node45&#45;&gt;Node15</title>
<path fill="none" stroke="#63b8ff" d="M2013.8,-441.6C2008.09,-419.85 1990.78,-363.96 1957,-331.5 1893.21,-270.19 1677.88,-196.71 1595,-165.75 1559.62,-152.54 1518.47,-140.66 1487.91,-132.49"/>
<polygon fill="#63b8ff" stroke="#63b8ff" points="1489.13,-128.92 1478.57,-129.75 1487.34,-135.69 1489.13,-128.92"/>
</g>
<!-- Node45&#45;&gt;Node19 -->
<g id="edge128" class="edge">
<title>Node45&#45;&gt;Node19</title>
<path fill="none" stroke="#63b8ff" d="M2036.26,-441.51C2087.14,-418.53 2216.62,-359.43 2222,-350.75 2241.88,-318.64 2283.17,-321.65 2199,-221 2105.09,-108.71 1917.81,-76.95 1844.46,-68.62"/>
<polygon fill="#63b8ff" stroke="#63b8ff" points="1845.01,-65.06 1834.7,-67.48 1844.27,-72.02 1845.01,-65.06"/>
</g>
<!-- Node45&#45;&gt;Node25 -->
<g id="edge131" class="edge">
<title>Node45&#45;&gt;Node25</title>
<path fill="none" stroke="#63b8ff" d="M1960.66,-443.28C1881.52,-432.77 1737.32,-413.62 1662.65,-403.7"/>
<polygon fill="#63b8ff" stroke="#63b8ff" points="1663.53,-400.16 1653.16,-402.31 1662.61,-407.1 1663.53,-400.16"/>
</g>
<!-- Node45&#45;&gt;Node29 -->
<g id="edge127" class="edge">
<title>Node45&#45;&gt;Node29</title>
<path fill="none" stroke="#63b8ff" d="M2008.55,-441.75C1993.49,-423.78 1959.16,-382.86 1939.52,-359.44"/>
<polygon fill="#63b8ff" stroke="#63b8ff" points="1941.66,-357.54 1932.55,-352.13 1936.29,-362.04 1941.66,-357.54"/>
</g>
<!-- Node47&#45;&gt;Node2 -->
<g id="edge140" class="edge">
<title>Node47&#45;&gt;Node2</title>
<path fill="none" stroke="#63b8ff" d="M552.29,-552.1C505.78,-531.94 404,-478.56 404,-397.38 404,-397.38 404,-397.38 404,-284.88 404,-200.71 336.93,-116.81 305.68,-82.29"/>
<polygon fill="#63b8ff" stroke="#63b8ff" points="308.93,-80.57 299.57,-75.61 303.79,-85.32 308.93,-80.57"/>
</g>
<!-- Node47&#45;&gt;Node4 -->
<g id="edge141" class="edge">
<title>Node47&#45;&gt;Node4</title>
<path fill="none" stroke="#63b8ff" d="M536.37,-552.07C512.03,-545.08 480.81,-533.66 457,-516.5 419.76,-489.67 328,-355.96 328,-342.12 328,-342.12 328,-342.12 328,-284.88 328,-178.05 182.71,-132.01 257,-55.25 304.3,-6.37 1368.25,-9.34 1579.67,-10.41"/>
<polygon fill="#63b8ff" stroke="#63b8ff" points="1579.44,-13.91 1589.46,-10.47 1579.48,-6.91 1579.44,-13.91"/>
</g>
<!-- Node47&#45;&gt;Node6 -->
<g id="edge139" class="edge">
<title>Node47&#45;&gt;Node6</title>
<path fill="none" stroke="#63b8ff" d="M566.34,-552.11C550.4,-534.51 518,-493.69 518,-452.62 518,-452.62 518,-452.62 518,-174.38 518,-109.06 606.68,-81.85 658.5,-71.52"/>
<polygon fill="#63b8ff" stroke="#63b8ff" points="659.07,-74.79 668.26,-69.51 657.79,-67.91 659.07,-74.79"/>
</g>
<!-- Node47&#45;&gt;Node7 -->
<g id="edge142" class="edge">
<title>Node47&#45;&gt;Node7</title>
<path fill="none" stroke="#63b8ff" d="M579.74,-552.14C600.81,-513.05 690.14,-356.31 808,-276.25 829.55,-261.61 856.67,-249.78 877.08,-241.98"/>
<polygon fill="#63b8ff" stroke="#63b8ff" points="878.2,-244.93 886.36,-238.18 875.77,-238.37 878.2,-244.93"/>
</g>
<!-- Node47&#45;&gt;Node9 -->
<g id="edge147" class="edge">
<title>Node47&#45;&gt;Node9</title>
<path fill="none" stroke="#63b8ff" d="M613.87,-560C789.91,-554.87 1513.66,-533.12 1740,-516.5 1966.5,-499.87 2032.14,-531.84 2248,-461.25 2256.75,-458.39 2530.4,-303.47 2535,-295.5 2539.28,-288.09 2537.82,-284.33 2535,-276.25 2503.93,-187.35 2482.44,-161.07 2403,-110.5 2348.1,-75.55 2322.3,-89.11 2258.7,-75.71"/>
<polygon fill="#63b8ff" stroke="#63b8ff" points="2259.69,-72.12 2249.16,-73.32 2258.14,-78.95 2259.69,-72.12"/>
</g>
<!-- Node47&#45;&gt;Node11 -->
<g id="edge144" class="edge">
<title>Node47&#45;&gt;Node11</title>
<path fill="none" stroke="#63b8ff" d="M584.29,-552.31C633.87,-505.31 865.59,-286.02 884,-276.25 926.13,-253.9 979.38,-242.63 1018.78,-237.02"/>
<polygon fill="#63b8ff" stroke="#63b8ff" points="1019.05,-240.38 1028.5,-235.59 1018.12,-233.45 1019.05,-240.38"/>
</g>
<!-- Node47&#45;&gt;Node13 -->
<g id="edge143" class="edge">
<title>Node47&#45;&gt;Node13</title>
<path fill="none" stroke="#63b8ff" d="M553.41,-552.14C537.78,-544.66 517.16,-532.63 504,-516.5 484.82,-493.01 480,-482.95 480,-452.62 480,-452.62 480,-452.62 480,-284.88 480,-253.68 475.04,-217.74 471.5,-196.06"/>
<polygon fill="#63b8ff" stroke="#63b8ff" points="474.8,-195.61 469.67,-186.34 467.9,-196.79 474.8,-195.61"/>
</g>
<!-- Node47&#45;&gt;Node35 -->
<g id="edge146" class="edge">
<title>Node47&#45;&gt;Node35</title>
<path fill="none" stroke="#63b8ff" d="M613.66,-559.1C772.34,-550.8 1373.34,-519.36 1546.22,-510.32"/>
<polygon fill="#63b8ff" stroke="#63b8ff" points="1546.18,-513.78 1555.98,-509.76 1545.81,-506.79 1546.18,-513.78"/>
</g>
<!-- Node47&#45;&gt;Node39 -->
<g id="edge145" class="edge">
<title>Node47&#45;&gt;Node39</title>
<path fill="none" stroke="#63b8ff" d="M572.36,-552.22C567.14,-533.8 556,-490.11 556,-452.62 556,-452.62 556,-452.62 556,-229.62 556,-170.92 741.4,-139.84 839.19,-127.53"/>
<polygon fill="#63b8ff" stroke="#63b8ff" points="839.59,-130.89 849.09,-126.19 838.73,-123.94 839.59,-130.89"/>
</g>
<!-- Node48&#45;&gt;Node4 -->
<g id="edge149" class="edge">
<title>Node48&#45;&gt;Node4</title>
<path fill="none" stroke="#63b8ff" d="M2824.57,-331.21C2843.79,-307.63 2893,-240.94 2893,-176.38 2893,-176.38 2893,-176.38 2893,-119.12 2893,-55.11 1860.88,-18.5 1652.44,-11.76"/>
<polygon fill="#63b8ff" stroke="#63b8ff" points="1652.62,-8.23 1642.51,-11.41 1652.39,-15.23 1652.62,-8.23"/>
</g>
<!-- Node48&#45;&gt;Node9 -->
<g id="edge154" class="edge">
<title>Node48&#45;&gt;Node9</title>
<path fill="none" stroke="#63b8ff" d="M2818.21,-331.48C2822.69,-295.4 2834.3,-156.5 2755,-110.5 2712.42,-85.8 2376.91,-71.55 2258.89,-67.26"/>
<polygon fill="#63b8ff" stroke="#63b8ff" points="2259.28,-63.74 2249.17,-66.88 2259.03,-70.74 2259.28,-63.74"/>
</g>
<!-- Node49 -->
<g id="node49" class="node">
<title>Node49</title>
<g id="a_node49"><a xlink:href="v8-embedder-state-scope_8h.html" target="_top" xlink:title=" ">
<polygon fill="white" stroke="#666666" points="2525.88,-295.5 2392.12,-295.5 2392.12,-276.25 2525.88,-276.25 2525.88,-295.5"/>
<text text-anchor="middle" x="2459" y="-282" font-family="Helvetica,sans-Serif" font-size="10.00">v8&#45;embedder&#45;state&#45;scope.h</text>
</a>
</g>
</g>
<!-- Node48&#45;&gt;Node49 -->
<g id="edge150" class="edge">
<title>Node48&#45;&gt;Node49</title>
<path fill="none" stroke="#63b8ff" d="M2778.69,-334.43C2719.72,-325.65 2605.72,-308.7 2531,-297.58"/>
<polygon fill="#63b8ff" stroke="#63b8ff" points="2531.68,-294 2521.28,-295.99 2530.65,-300.92 2531.68,-294"/>
</g>
<!-- Node49&#45;&gt;Node4 -->
<g id="edge151" class="edge">
<title>Node49&#45;&gt;Node4</title>
<path fill="none" stroke="#63b8ff" d="M2459.93,-275.93C2462.35,-247.74 2465.88,-159.69 2422,-110.5 2370.52,-52.79 2332.85,-70.33 2257,-55.25 2030.46,-10.2 1751.06,-8.83 1652.5,-9.95"/>
<polygon fill="#63b8ff" stroke="#63b8ff" points="1652.61,-6.47 1642.65,-10.1 1652.7,-13.47 1652.61,-6.47"/>
</g>
<!-- Node49&#45;&gt;Node11 -->
<g id="edge153" class="edge">
<title>Node49&#45;&gt;Node11</title>
<path fill="none" stroke="#63b8ff" d="M2391.73,-282.29C2152.92,-273.11 1348.47,-242.18 1129.45,-233.76"/>
<polygon fill="#63b8ff" stroke="#63b8ff" points="1129.7,-230.23 1119.57,-233.34 1129.43,-237.22 1129.7,-230.23"/>
</g>
<!-- Node49&#45;&gt;Node15 -->
<g id="edge152" class="edge">
<title>Node49&#45;&gt;Node15</title>
<path fill="none" stroke="#63b8ff" d="M2425.97,-275.77C2376.79,-262.43 2281.28,-237.4 2199,-221 1932.04,-167.77 1606.21,-135.62 1488.3,-125.02"/>
<polygon fill="#63b8ff" stroke="#63b8ff" points="1488.82,-121.47 1478.55,-124.06 1488.2,-128.44 1488.82,-121.47"/>
</g>
</g>
</svg>
