<?xml version="1.0" encoding="UTF-8" standalone="no"?>
<!DOCTYPE svg PUBLIC "-//W3C//DTD SVG 1.1//EN"
 "http://www.w3.org/Graphics/SVG/1.1/DTD/svg11.dtd">
<!-- Generated by graphviz version 8.0.5 (20230430.1635)
 -->
<!-- Title: include/v8&#45;initialization.h Pages: 1 -->
<svg width="3282pt" height="801pt"
 viewBox="0.00 0.00 3282.23 800.75" xmlns="http://www.w3.org/2000/svg" xmlns:xlink="http://www.w3.org/1999/xlink">
<g id="graph0" class="graph" transform="scale(1 1) rotate(0) translate(4 796.75)">
<title>include/v8&#45;initialization.h</title>
<!-- Node1 -->
<g id="node1" class="node">
<title>Node1</title>
<g id="a_node1"><a xlink:title=" ">
<polygon fill="#999999" stroke="#666666" points="2822.5,-792.75 2701.5,-792.75 2701.5,-773.5 2822.5,-773.5 2822.5,-792.75"/>
<text text-anchor="middle" x="2762" y="-779.25" font-family="Helvetica,sans-Serif" font-size="10.00">include/v8&#45;initialization.h</text>
</a>
</g>
</g>
<!-- Node2 -->
<g id="node2" class="node">
<title>Node2</title>
<g id="a_node2"><a xlink:title=" ">
<polygon fill="#e0e0e0" stroke="#999999" points="2251.25,-74.5 2200.75,-74.5 2200.75,-55.25 2251.25,-55.25 2251.25,-74.5"/>
<text text-anchor="middle" x="2226" y="-61" font-family="Helvetica,sans-Serif" font-size="10.00">stddef.h</text>
</a>
</g>
</g>
<!-- Node1&#45;&gt;Node2 -->
<g id="edge1" class="edge">
<title>Node1&#45;&gt;Node2</title>
<path fill="none" stroke="#63b8ff" d="M2762.47,-773.22C2764.45,-734.86 2772,-579.96 2772,-452.62 2772,-452.62 2772,-452.62 2772,-340.12 2772,-111.25 2384.14,-73.36 2262.22,-67.11"/>
<polygon fill="#63b8ff" stroke="#63b8ff" points="2262.76,-63.58 2252.6,-66.61 2262.43,-70.57 2262.76,-63.58"/>
</g>
<!-- Node3 -->
<g id="node3" class="node">
<title>Node3</title>
<g id="a_node3"><a xlink:title=" ">
<polygon fill="#e0e0e0" stroke="#999999" points="2738.75,-74.5 2691.25,-74.5 2691.25,-55.25 2738.75,-55.25 2738.75,-74.5"/>
<text text-anchor="middle" x="2715" y="-61" font-family="Helvetica,sans-Serif" font-size="10.00">stdint.h</text>
</a>
</g>
</g>
<!-- Node1&#45;&gt;Node3 -->
<g id="edge2" class="edge">
<title>Node1&#45;&gt;Node3</title>
<path fill="none" stroke="#63b8ff" d="M2804.56,-773.1C2852.56,-760.13 2924,-731.17 2924,-673.62 2924,-673.62 2924,-673.62 2924,-561.12 2924,-486.41 2886,-472.09 2886,-397.38 2886,-397.38 2886,-397.38 2886,-284.88 2886,-195.97 2854.3,-169.72 2788,-110.5 2774.5,-98.44 2757.31,-87.75 2743,-79.86"/>
<polygon fill="#63b8ff" stroke="#63b8ff" points="2745.11,-76.48 2734.64,-74.86 2741.81,-82.65 2745.11,-76.48"/>
</g>
<!-- Node4 -->
<g id="node4" class="node">
<title>Node4</title>
<g id="a_node4"><a xlink:href="v8-callbacks_8h.html" target="_top" xlink:title=" ">
<polygon fill="white" stroke="#666666" points="1123.12,-571.75 1044.88,-571.75 1044.88,-552.5 1123.12,-552.5 1123.12,-571.75"/>
<text text-anchor="middle" x="1084" y="-558.25" font-family="Helvetica,sans-Serif" font-size="10.00">v8&#45;callbacks.h</text>
</a>
</g>
</g>
<!-- Node1&#45;&gt;Node4 -->
<g id="edge3" class="edge">
<title>Node1&#45;&gt;Node4</title>
<path fill="none" stroke="#63b8ff" d="M2701.25,-781.97C2464.61,-781.1 1604.2,-775.35 1334,-737.5 1234.59,-723.57 1192.48,-746.07 1115,-682.25 1085.68,-658.1 1082.13,-610.04 1082.7,-582.93"/>
<polygon fill="#63b8ff" stroke="#63b8ff" points="1086.23,-583.25 1083.17,-573.11 1079.24,-582.95 1086.23,-583.25"/>
</g>
<!-- Node8 -->
<g id="node8" class="node">
<title>Node8</title>
<g id="a_node8"><a xlink:href="v8config_8h.html" target="_top" xlink:title=" ">
<polygon fill="white" stroke="#666666" points="643.75,-74.5 584.25,-74.5 584.25,-55.25 643.75,-55.25 643.75,-74.5"/>
<text text-anchor="middle" x="614" y="-61" font-family="Helvetica,sans-Serif" font-size="10.00">v8config.h</text>
</a>
</g>
</g>
<!-- Node1&#45;&gt;Node8 -->
<g id="edge165" class="edge">
<title>Node1&#45;&gt;Node8</title>
<path fill="none" stroke="#63b8ff" d="M2701.09,-781.37C2295.37,-776.17 0,-743.62 0,-673.62 0,-673.62 0,-673.62 0,-174.38 0,-134.19 27.52,-127.35 64,-110.5 154.6,-68.65 462.02,-65.36 573.34,-65.59"/>
<polygon fill="#63b8ff" stroke="#63b8ff" points="573.08,-69.09 583.1,-65.62 573.11,-62.09 573.08,-69.09"/>
</g>
<!-- Node15 -->
<g id="node15" class="node">
<title>Node15</title>
<g id="a_node15"><a xlink:href="v8-internal_8h.html" target="_top" xlink:title=" ">
<polygon fill="white" stroke="#666666" points="1571.25,-129.75 1502.75,-129.75 1502.75,-110.5 1571.25,-110.5 1571.25,-129.75"/>
<text text-anchor="middle" x="1537" y="-116.25" font-family="Helvetica,sans-Serif" font-size="10.00">v8&#45;internal.h</text>
</a>
</g>
</g>
<!-- Node1&#45;&gt;Node15 -->
<g id="edge76" class="edge">
<title>Node1&#45;&gt;Node15</title>
<path fill="none" stroke="#63b8ff" d="M2750.38,-773.07C2716.47,-745.51 2620,-658.74 2620,-563.12 2620,-563.12 2620,-563.12 2620,-395.38 2620,-263.4 2470.42,-325.55 2348,-276.25 2216.2,-223.17 2186.83,-196 2048,-165.75 1845.95,-121.73 1786.16,-159.21 1582.17,-130.57"/>
<polygon fill="#63b8ff" stroke="#63b8ff" points="1582.8,-126.97 1572.4,-129.01 1581.8,-133.9 1582.8,-126.97"/>
</g>
<!-- Node33 -->
<g id="node32" class="node">
<title>Node33</title>
<g id="a_node32"><a xlink:href="v8-isolate_8h.html" target="_top" xlink:title=" ">
<polygon fill="white" stroke="#666666" points="1408.75,-737.5 1343.25,-737.5 1343.25,-718.25 1408.75,-718.25 1408.75,-737.5"/>
<text text-anchor="middle" x="1376" y="-724" font-family="Helvetica,sans-Serif" font-size="10.00">v8&#45;isolate.h</text>
</a>
</g>
</g>
<!-- Node1&#45;&gt;Node33 -->
<g id="edge77" class="edge">
<title>Node1&#45;&gt;Node33</title>
<path fill="none" stroke="#63b8ff" d="M2701.11,-779.79C2466.26,-770.76 1622.42,-738.34 1419.92,-730.56"/>
<polygon fill="#63b8ff" stroke="#63b8ff" points="1420.25,-727.03 1410.13,-730.15 1419.98,-734.03 1420.25,-727.03"/>
</g>
<!-- Node49 -->
<g id="node46" class="node">
<title>Node49</title>
<g id="a_node46"><a xlink:href="v8-platform_8h.html" target="_top" xlink:title=" ">
<polygon fill="white" stroke="#666666" points="3040.12,-185 2967.88,-185 2967.88,-165.75 3040.12,-165.75 3040.12,-185"/>
<text text-anchor="middle" x="3004" y="-171.5" font-family="Helvetica,sans-Serif" font-size="10.00">v8&#45;platform.h</text>
</a>
</g>
</g>
<!-- Node1&#45;&gt;Node49 -->
<g id="edge153" class="edge">
<title>Node1&#45;&gt;Node49</title>
<path fill="none" stroke="#63b8ff" d="M2822.97,-777.86C2888.39,-769.57 2983,-745.22 2983,-673.62 2983,-673.62 2983,-673.62 2983,-284.88 2983,-253.15 2991.76,-217.13 2997.97,-195.61"/>
<polygon fill="#63b8ff" stroke="#63b8ff" points="3001.55,-196.85 3001.08,-186.26 2994.85,-194.83 3001.55,-196.85"/>
</g>
<!-- Node4&#45;&gt;Node2 -->
<g id="edge4" class="edge">
<title>Node4&#45;&gt;Node2</title>
<path fill="none" stroke="#63b8ff" d="M1123.21,-560.3C1245.79,-557.41 1620.52,-546.32 1738,-516.5 1966.81,-458.41 2091.29,-492.74 2221,-295.5 2264.57,-229.25 2243.47,-127.39 2231.88,-85.2"/>
<polygon fill="#63b8ff" stroke="#63b8ff" points="2235,-84.39 2228.86,-75.75 2228.27,-86.33 2235,-84.39"/>
</g>
<!-- Node5 -->
<g id="node5" class="node">
<title>Node5</title>
<g id="a_node5"><a xlink:title=" ">
<polygon fill="#e0e0e0" stroke="#999999" points="550,-516.5 492,-516.5 492,-497.25 550,-497.25 550,-516.5"/>
<text text-anchor="middle" x="521" y="-503" font-family="Helvetica,sans-Serif" font-size="10.00">functional</text>
</a>
</g>
</g>
<!-- Node4&#45;&gt;Node5 -->
<g id="edge5" class="edge">
<title>Node4&#45;&gt;Node5</title>
<path fill="none" stroke="#63b8ff" d="M1044.69,-559.26C957.71,-554.81 742.5,-541.98 564,-516.5 562.87,-516.34 561.72,-516.17 560.57,-515.99"/>
<polygon fill="#63b8ff" stroke="#63b8ff" points="561.52,-512.42 551.07,-514.17 560.32,-519.32 561.52,-512.42"/>
</g>
<!-- Node6 -->
<g id="node6" class="node">
<title>Node6</title>
<g id="a_node6"><a xlink:title=" ">
<polygon fill="#e0e0e0" stroke="#999999" points="3157,-74.5 3117,-74.5 3117,-55.25 3157,-55.25 3157,-74.5"/>
<text text-anchor="middle" x="3137" y="-61" font-family="Helvetica,sans-Serif" font-size="10.00">string</text>
</a>
</g>
</g>
<!-- Node4&#45;&gt;Node6 -->
<g id="edge6" class="edge">
<title>Node4&#45;&gt;Node6</title>
<path fill="none" stroke="#63b8ff" d="M1123.47,-560.76C1231.38,-559.3 1540.21,-552.08 1794,-516.5 2304.99,-444.85 3169.04,-259.13 3268,-129.75 3296.4,-92.62 3215.57,-75.81 3168.38,-69.33"/>
<polygon fill="#63b8ff" stroke="#63b8ff" points="3168.84,-65.74 3158.48,-67.94 3167.95,-72.68 3168.84,-65.74"/>
</g>
<!-- Node7 -->
<g id="node7" class="node">
<title>Node7</title>
<g id="a_node7"><a xlink:href="common_8h.html" target="_top" xlink:title=" ">
<polygon fill="white" stroke="#666666" points="246.12,-516.5 155.88,-516.5 155.88,-497.25 246.12,-497.25 246.12,-516.5"/>
<text text-anchor="middle" x="201" y="-503" font-family="Helvetica,sans-Serif" font-size="10.00">cppgc/common.h</text>
</a>
</g>
</g>
<!-- Node4&#45;&gt;Node7 -->
<g id="edge7" class="edge">
<title>Node4&#45;&gt;Node7</title>
<path fill="none" stroke="#63b8ff" d="M1044.63,-558.75C903.55,-550.24 422.87,-521.25 257.46,-511.28"/>
<polygon fill="#63b8ff" stroke="#63b8ff" points="257.76,-507.73 247.56,-510.62 257.34,-514.72 257.76,-507.73"/>
</g>
<!-- Node4&#45;&gt;Node8 -->
<g id="edge75" class="edge">
<title>Node4&#45;&gt;Node8</title>
<path fill="none" stroke="#63b8ff" d="M1044.77,-561.17C928.28,-560.84 586.06,-556.4 483,-516.5 340.78,-461.43 228,-439.39 228,-286.88 228,-286.88 228,-286.88 228,-174.38 228,-135.12 254.05,-128.36 289,-110.5 337.88,-85.52 497.43,-72.86 573.26,-68.13"/>
<polygon fill="#63b8ff" stroke="#63b8ff" points="573.05,-71.58 582.82,-67.48 572.62,-64.6 573.05,-71.58"/>
</g>
<!-- Node10 -->
<g id="node10" class="node">
<title>Node10</title>
<g id="a_node10"><a xlink:href="v8-data_8h.html" target="_top" xlink:title=" ">
<polygon fill="white" stroke="#666666" points="797.88,-295.5 742.12,-295.5 742.12,-276.25 797.88,-276.25 797.88,-295.5"/>
<text text-anchor="middle" x="770" y="-282" font-family="Helvetica,sans-Serif" font-size="10.00">v8&#45;data.h</text>
</a>
</g>
</g>
<!-- Node4&#45;&gt;Node10 -->
<g id="edge10" class="edge">
<title>Node4&#45;&gt;Node10</title>
<path fill="none" stroke="#63b8ff" d="M1045.86,-552.01C994.56,-538.43 902.14,-509.2 836,-461.25 809.66,-442.16 801.64,-435.53 788,-406 772.92,-373.35 769.98,-330.82 769.67,-306.41"/>
<polygon fill="#63b8ff" stroke="#63b8ff" points="773.17,-306.73 769.69,-296.72 766.17,-306.71 773.17,-306.73"/>
</g>
<!-- Node11 -->
<g id="node11" class="node">
<title>Node11</title>
<g id="a_node11"><a xlink:href="v8-local-handle_8h.html" target="_top" xlink:title=" ">
<polygon fill="white" stroke="#666666" points="1720.38,-240.25 1631.62,-240.25 1631.62,-221 1720.38,-221 1720.38,-240.25"/>
<text text-anchor="middle" x="1676" y="-226.75" font-family="Helvetica,sans-Serif" font-size="10.00">v8&#45;local&#45;handle.h</text>
</a>
</g>
</g>
<!-- Node4&#45;&gt;Node11 -->
<g id="edge29" class="edge">
<title>Node4&#45;&gt;Node11</title>
<path fill="none" stroke="#63b8ff" d="M1123.42,-561.74C1223.35,-562.61 1483.77,-560.49 1556,-516.5 1651.47,-458.37 1671.02,-306.26 1675,-251.57"/>
<polygon fill="#63b8ff" stroke="#63b8ff" points="1678.55,-251.85 1675.67,-241.66 1671.56,-251.42 1678.55,-251.85"/>
</g>
<!-- Node21 -->
<g id="node21" class="node">
<title>Node21</title>
<g id="a_node21"><a xlink:href="v8-promise_8h.html" target="_top" xlink:title=" ">
<polygon fill="white" stroke="#666666" points="1546.75,-516.5 1475.25,-516.5 1475.25,-497.25 1546.75,-497.25 1546.75,-516.5"/>
<text text-anchor="middle" x="1511" y="-503" font-family="Helvetica,sans-Serif" font-size="10.00">v8&#45;promise.h</text>
</a>
</g>
</g>
<!-- Node4&#45;&gt;Node21 -->
<g id="edge30" class="edge">
<title>Node4&#45;&gt;Node21</title>
<path fill="none" stroke="#63b8ff" d="M1123.41,-556.21C1202.34,-546.37 1379.52,-524.27 1464.2,-513.71"/>
<polygon fill="#63b8ff" stroke="#63b8ff" points="1464.54,-517.07 1474.03,-512.36 1463.67,-510.13 1464.54,-517.07"/>
</g>
<!-- Node7&#45;&gt;Node8 -->
<g id="edge8" class="edge">
<title>Node7&#45;&gt;Node8</title>
<path fill="none" stroke="#63b8ff" d="M184.84,-496.86C160.04,-481.88 113.99,-449.17 100,-406 76.04,-332.04 114,-309.37 114,-231.62 114,-231.62 114,-231.62 114,-174.38 114,-144.05 113.9,-128.91 138,-110.5 172.24,-84.34 464.11,-71.26 573.14,-67.25"/>
<polygon fill="#63b8ff" stroke="#63b8ff" points="573.14,-70.72 583.01,-66.86 572.89,-63.72 573.14,-70.72"/>
</g>
<!-- Node9 -->
<g id="node9" class="node">
<title>Node9</title>
<g id="a_node9"><a xlink:title=" ">
<polygon fill="#e0e0e0" stroke="#999999" points="2258.25,-19.25 2207.75,-19.25 2207.75,0 2258.25,0 2258.25,-19.25"/>
<text text-anchor="middle" x="2233" y="-5.75" font-family="Helvetica,sans-Serif" font-size="10.00">memory</text>
</a>
</g>
</g>
<!-- Node8&#45;&gt;Node9 -->
<g id="edge9" class="edge">
<title>Node8&#45;&gt;Node9</title>
<path fill="none" stroke="#63b8ff" d="M644.19,-62.88C844.27,-56.3 1978.02,-19.01 2196.55,-11.82"/>
<polygon fill="#63b8ff" stroke="#63b8ff" points="2196.51,-15.29 2206.39,-11.47 2196.28,-8.3 2196.51,-15.29"/>
</g>
<!-- Node10&#45;&gt;Node8 -->
<g id="edge28" class="edge">
<title>Node10&#45;&gt;Node8</title>
<path fill="none" stroke="#63b8ff" d="M741.94,-278.85C719.79,-272.71 689.61,-261.04 671,-240.25 630.57,-195.09 647.99,-168.06 629,-110.5 626.25,-102.16 623.16,-92.95 620.51,-85.08"/>
<polygon fill="#63b8ff" stroke="#63b8ff" points="623.54,-84.11 617.02,-75.76 616.9,-86.35 623.54,-84.11"/>
</g>
<!-- Node10&#45;&gt;Node11 -->
<g id="edge11" class="edge">
<title>Node10&#45;&gt;Node11</title>
<path fill="none" stroke="#63b8ff" d="M798.18,-283.74C902.54,-279.45 1276.94,-263.27 1585,-240.25 1596.39,-239.4 1608.57,-238.34 1620.2,-237.27"/>
<polygon fill="#63b8ff" stroke="#63b8ff" points="1620.51,-240.66 1630.13,-236.24 1619.85,-233.69 1620.51,-240.66"/>
</g>
<!-- Node11&#45;&gt;Node2 -->
<g id="edge12" class="edge">
<title>Node11&#45;&gt;Node2</title>
<path fill="none" stroke="#63b8ff" d="M1703.84,-220.59C1766.96,-200.19 1925.9,-149.31 2060,-110.5 2104.62,-97.59 2156.35,-83.88 2190.05,-75.12"/>
<polygon fill="#63b8ff" stroke="#63b8ff" points="2190.52,-78.35 2199.32,-72.45 2188.76,-71.57 2190.52,-78.35"/>
</g>
<!-- Node12 -->
<g id="node12" class="node">
<title>Node12</title>
<g id="a_node12"><a xlink:title=" ">
<polygon fill="#e0e0e0" stroke="#999999" points="1464.5,-74.5 1403.5,-74.5 1403.5,-55.25 1464.5,-55.25 1464.5,-74.5"/>
<text text-anchor="middle" x="1434" y="-61" font-family="Helvetica,sans-Serif" font-size="10.00">type_traits</text>
</a>
</g>
</g>
<!-- Node11&#45;&gt;Node12 -->
<g id="edge13" class="edge">
<title>Node11&#45;&gt;Node12</title>
<path fill="none" stroke="#63b8ff" d="M1648.21,-220.5C1625.61,-212.56 1593.29,-199.99 1567,-185 1531.65,-164.84 1524.26,-156.95 1494,-129.75 1477.45,-114.87 1460.23,-96.15 1448.5,-82.83"/>
<polygon fill="#63b8ff" stroke="#63b8ff" points="1450.54,-80.83 1441.34,-75.58 1445.26,-85.42 1450.54,-80.83"/>
</g>
<!-- Node13 -->
<g id="node13" class="node">
<title>Node13</title>
<g id="a_node13"><a xlink:title=" ">
<polygon fill="#e0e0e0" stroke="#999999" points="1969.5,-185 1926.5,-185 1926.5,-165.75 1969.5,-165.75 1969.5,-185"/>
<text text-anchor="middle" x="1948" y="-171.5" font-family="Helvetica,sans-Serif" font-size="10.00">vector</text>
</a>
</g>
</g>
<!-- Node11&#45;&gt;Node13 -->
<g id="edge14" class="edge">
<title>Node11&#45;&gt;Node13</title>
<path fill="none" stroke="#63b8ff" d="M1720.61,-220.89C1775.42,-210.16 1867.09,-192.21 1915.6,-182.72"/>
<polygon fill="#63b8ff" stroke="#63b8ff" points="1915.98,-186.01 1925.12,-180.66 1914.63,-179.15 1915.98,-186.01"/>
</g>
<!-- Node14 -->
<g id="node14" class="node">
<title>Node14</title>
<g id="a_node14"><a xlink:href="v8-handle-base_8h.html" target="_top" xlink:title=" ">
<polygon fill="white" stroke="#666666" points="1665.75,-185 1576.25,-185 1576.25,-165.75 1665.75,-165.75 1665.75,-185"/>
<text text-anchor="middle" x="1621" y="-171.5" font-family="Helvetica,sans-Serif" font-size="10.00">v8&#45;handle&#45;base.h</text>
</a>
</g>
</g>
<!-- Node11&#45;&gt;Node14 -->
<g id="edge15" class="edge">
<title>Node11&#45;&gt;Node14</title>
<path fill="none" stroke="#63b8ff" d="M1666.92,-220.83C1659.08,-213.25 1647.56,-202.09 1638.01,-192.85"/>
<polygon fill="#63b8ff" stroke="#63b8ff" points="1640.9,-190.8 1631.28,-186.36 1636.03,-195.83 1640.9,-190.8"/>
</g>
<!-- Node11&#45;&gt;Node15 -->
<g id="edge27" class="edge">
<title>Node11&#45;&gt;Node15</title>
<path fill="none" stroke="#63b8ff" d="M1678.81,-220.77C1682.44,-207.42 1687,-181.98 1675,-165.75 1663.74,-150.52 1618.06,-137.78 1582.3,-129.86"/>
<polygon fill="#63b8ff" stroke="#63b8ff" points="1583.08,-126.24 1572.57,-127.56 1581.61,-133.08 1583.08,-126.24"/>
</g>
<!-- Node14&#45;&gt;Node15 -->
<g id="edge16" class="edge">
<title>Node14&#45;&gt;Node15</title>
<path fill="none" stroke="#63b8ff" d="M1606.75,-165.34C1594.08,-157.31 1575.31,-145.41 1560.43,-135.98"/>
<polygon fill="#63b8ff" stroke="#63b8ff" points="1562.64,-132.6 1552.32,-130.2 1558.89,-138.51 1562.64,-132.6"/>
</g>
<!-- Node15&#45;&gt;Node2 -->
<g id="edge17" class="edge">
<title>Node15&#45;&gt;Node2</title>
<path fill="none" stroke="#63b8ff" d="M1571.66,-115.18C1585.99,-113.62 1602.79,-111.87 1618,-110.5 1834.55,-91.03 2095.08,-74.07 2189.55,-68.13"/>
<polygon fill="#63b8ff" stroke="#63b8ff" points="2189.73,-71.56 2199.49,-67.45 2189.29,-64.58 2189.73,-71.56"/>
</g>
<!-- Node15&#45;&gt;Node3 -->
<g id="edge18" class="edge">
<title>Node15&#45;&gt;Node3</title>
<path fill="none" stroke="#63b8ff" d="M1571.64,-114.93C1585.97,-113.33 1602.77,-111.62 1618,-110.5 2035.45,-79.82 2543.93,-68.94 2680.09,-66.46"/>
<polygon fill="#63b8ff" stroke="#63b8ff" points="2680.1,-69.95 2690.04,-66.27 2679.97,-62.95 2680.1,-69.95"/>
</g>
<!-- Node15&#45;&gt;Node8 -->
<g id="edge26" class="edge">
<title>Node15&#45;&gt;Node8</title>
<path fill="none" stroke="#63b8ff" d="M1502.5,-117.13C1358.99,-108.85 809.52,-77.15 654.77,-68.23"/>
<polygon fill="#63b8ff" stroke="#63b8ff" points="655.1,-64.68 644.91,-67.6 654.69,-71.67 655.1,-64.68"/>
</g>
<!-- Node15&#45;&gt;Node9 -->
<g id="edge23" class="edge">
<title>Node15&#45;&gt;Node9</title>
<path fill="none" stroke="#63b8ff" d="M1528.22,-110.16C1516.05,-96.66 1497.16,-71.04 1512,-55.25 1535.68,-30.06 2053.6,-15.15 2196.67,-11.51"/>
<polygon fill="#63b8ff" stroke="#63b8ff" points="2196.54,-14.99 2206.45,-11.24 2196.37,-7.99 2196.54,-14.99"/>
</g>
<!-- Node15&#45;&gt;Node12 -->
<g id="edge25" class="edge">
<title>Node15&#45;&gt;Node12</title>
<path fill="none" stroke="#63b8ff" d="M1519.53,-110.09C1503.55,-101.83 1479.65,-89.48 1461.18,-79.93"/>
<polygon fill="#63b8ff" stroke="#63b8ff" points="1463.05,-76.44 1452.56,-74.95 1459.83,-82.65 1463.05,-76.44"/>
</g>
<!-- Node16 -->
<g id="node16" class="node">
<title>Node16</title>
<g id="a_node16"><a xlink:title=" ">
<polygon fill="#e0e0e0" stroke="#999999" points="1568.75,-74.5 1521.25,-74.5 1521.25,-55.25 1568.75,-55.25 1568.75,-74.5"/>
<text text-anchor="middle" x="1545" y="-61" font-family="Helvetica,sans-Serif" font-size="10.00">string.h</text>
</a>
</g>
</g>
<!-- Node15&#45;&gt;Node16 -->
<g id="edge19" class="edge">
<title>Node15&#45;&gt;Node16</title>
<path fill="none" stroke="#63b8ff" d="M1538.32,-110.33C1539.33,-103.59 1540.77,-94.02 1542.05,-85.49"/>
<polygon fill="#63b8ff" stroke="#63b8ff" points="1545.63,-86.27 1543.65,-75.86 1538.7,-85.23 1545.63,-86.27"/>
</g>
<!-- Node17 -->
<g id="node17" class="node">
<title>Node17</title>
<g id="a_node17"><a xlink:title=" ">
<polygon fill="#e0e0e0" stroke="#999999" points="1307.62,-74.5 1262.38,-74.5 1262.38,-55.25 1307.62,-55.25 1307.62,-74.5"/>
<text text-anchor="middle" x="1285" y="-61" font-family="Helvetica,sans-Serif" font-size="10.00">atomic</text>
</a>
</g>
</g>
<!-- Node15&#45;&gt;Node17 -->
<g id="edge20" class="edge">
<title>Node15&#45;&gt;Node17</title>
<path fill="none" stroke="#63b8ff" d="M1502.49,-111.83C1454.07,-101.6 1366.54,-83.11 1318.61,-72.98"/>
<polygon fill="#63b8ff" stroke="#63b8ff" points="1319.4,-69.35 1308.89,-70.71 1317.95,-76.2 1319.4,-69.35"/>
</g>
<!-- Node18 -->
<g id="node18" class="node">
<title>Node18</title>
<g id="a_node18"><a xlink:title=" ">
<polygon fill="#e0e0e0" stroke="#999999" points="1701,-74.5 1655,-74.5 1655,-55.25 1701,-55.25 1701,-74.5"/>
<text text-anchor="middle" x="1678" y="-61" font-family="Helvetica,sans-Serif" font-size="10.00">iterator</text>
</a>
</g>
</g>
<!-- Node15&#45;&gt;Node18 -->
<g id="edge21" class="edge">
<title>Node15&#45;&gt;Node18</title>
<path fill="none" stroke="#63b8ff" d="M1560.92,-110.09C1583.98,-101.38 1619.09,-88.12 1644.84,-78.4"/>
<polygon fill="#63b8ff" stroke="#63b8ff" points="1645.78,-81.41 1653.9,-74.6 1643.31,-74.86 1645.78,-81.41"/>
</g>
<!-- Node19 -->
<g id="node19" class="node">
<title>Node19</title>
<g id="a_node19"><a xlink:title=" ">
<polygon fill="#e0e0e0" stroke="#999999" points="1068.62,-74.5 1029.38,-74.5 1029.38,-55.25 1068.62,-55.25 1068.62,-74.5"/>
<text text-anchor="middle" x="1049" y="-61" font-family="Helvetica,sans-Serif" font-size="10.00">limits</text>
</a>
</g>
</g>
<!-- Node15&#45;&gt;Node19 -->
<g id="edge22" class="edge">
<title>Node15&#45;&gt;Node19</title>
<path fill="none" stroke="#63b8ff" d="M1502.3,-115.34C1411.22,-105.4 1166.42,-78.69 1079.85,-69.24"/>
<polygon fill="#63b8ff" stroke="#63b8ff" points="1080.27,-65.66 1069.95,-68.05 1079.51,-72.62 1080.27,-65.66"/>
</g>
<!-- Node20 -->
<g id="node20" class="node">
<title>Node20</title>
<g id="a_node20"><a xlink:title=" ">
<polygon fill="#e0e0e0" stroke="#999999" points="1636.88,-74.5 1587.12,-74.5 1587.12,-55.25 1636.88,-55.25 1636.88,-74.5"/>
<text text-anchor="middle" x="1612" y="-61" font-family="Helvetica,sans-Serif" font-size="10.00">optional</text>
</a>
</g>
</g>
<!-- Node15&#45;&gt;Node20 -->
<g id="edge24" class="edge">
<title>Node15&#45;&gt;Node20</title>
<path fill="none" stroke="#63b8ff" d="M1549.72,-110.09C1560.82,-102.21 1577.16,-90.61 1590.32,-81.27"/>
<polygon fill="#63b8ff" stroke="#63b8ff" points="1592.09,-83.6 1598.21,-74.95 1588.03,-77.89 1592.09,-83.6"/>
</g>
<!-- Node21&#45;&gt;Node8 -->
<g id="edge74" class="edge">
<title>Node21&#45;&gt;Node8</title>
<path fill="none" stroke="#63b8ff" d="M1475.01,-503.09C1450.95,-501.28 1418.59,-498.95 1390,-497.25 1223.44,-487.32 801.69,-502.47 640,-461.25 585.44,-447.34 568.82,-442.56 526,-406 457.72,-347.7 424,-321.41 424,-231.62 424,-231.62 424,-231.62 424,-174.38 424,-144.05 425.54,-130.88 448,-110.5 482.35,-79.33 536.17,-69.56 573.17,-66.69"/>
<polygon fill="#63b8ff" stroke="#63b8ff" points="573.31,-70.13 583.07,-66.01 572.87,-63.14 573.31,-70.13"/>
</g>
<!-- Node21&#45;&gt;Node11 -->
<g id="edge31" class="edge">
<title>Node21&#45;&gt;Node11</title>
<path fill="none" stroke="#63b8ff" d="M1522.45,-496.87C1542.38,-480.67 1583.63,-444.64 1608,-406 1640.79,-353.99 1632.75,-333.17 1656,-276.25 1659.53,-267.6 1663.72,-258.15 1667.35,-250.18"/>
<polygon fill="#63b8ff" stroke="#63b8ff" points="1670.83,-251.99 1671.84,-241.44 1664.47,-249.06 1670.83,-251.99"/>
</g>
<!-- Node22 -->
<g id="node22" class="node">
<title>Node22</title>
<g id="a_node22"><a xlink:href="v8-object_8h.html" target="_top" xlink:title=" ">
<polygon fill="white" stroke="#666666" points="1374.62,-461.25 1311.38,-461.25 1311.38,-442 1374.62,-442 1374.62,-461.25"/>
<text text-anchor="middle" x="1343" y="-447.75" font-family="Helvetica,sans-Serif" font-size="10.00">v8&#45;object.h</text>
</a>
</g>
</g>
<!-- Node21&#45;&gt;Node22 -->
<g id="edge32" class="edge">
<title>Node21&#45;&gt;Node22</title>
<path fill="none" stroke="#63b8ff" d="M1482.5,-496.84C1454.87,-488.08 1412.73,-474.73 1381.99,-464.98"/>
<polygon fill="#63b8ff" stroke="#63b8ff" points="1383.23,-461.39 1372.64,-461.7 1381.11,-468.06 1383.23,-461.39"/>
</g>
<!-- Node22&#45;&gt;Node8 -->
<g id="edge73" class="edge">
<title>Node22&#45;&gt;Node8</title>
<path fill="none" stroke="#63b8ff" d="M1310.98,-443.85C1253.91,-431.76 1140.12,-407.56 1136,-406 1042.11,-370.47 1014.32,-361.87 939,-295.5 862.23,-227.86 887.4,-166.84 802,-110.5 757.34,-81.03 695.35,-70.96 654.96,-67.56"/>
<polygon fill="#63b8ff" stroke="#63b8ff" points="655.4,-64.01 645.17,-66.76 654.89,-70.99 655.4,-64.01"/>
</g>
<!-- Node22&#45;&gt;Node11 -->
<g id="edge34" class="edge">
<title>Node22&#45;&gt;Node11</title>
<path fill="none" stroke="#63b8ff" d="M1371.76,-441.52C1395.15,-433.6 1428.64,-421.03 1456,-406 1492.6,-385.89 1503.31,-381.1 1532,-350.75 1559.06,-322.13 1550.3,-302.13 1580,-276.25 1596.06,-262.26 1617.25,-251.79 1635.64,-244.52"/>
<polygon fill="#63b8ff" stroke="#63b8ff" points="1636.67,-247.5 1644.8,-240.71 1634.21,-240.94 1636.67,-247.5"/>
</g>
<!-- Node22&#45;&gt;Node15 -->
<g id="edge33" class="edge">
<title>Node22&#45;&gt;Node15</title>
<path fill="none" stroke="#63b8ff" d="M1375.02,-445.21C1453.84,-429.89 1656.17,-378.08 1729,-240.25 1745.5,-209.03 1694.9,-167.86 1692,-165.75 1682.93,-159.13 1624.37,-143.29 1581.9,-132.38"/>
<polygon fill="#63b8ff" stroke="#63b8ff" points="1583.05,-128.8 1572.49,-129.72 1581.32,-135.58 1583.05,-128.8"/>
</g>
<!-- Node23 -->
<g id="node23" class="node">
<title>Node23</title>
<g id="a_node23"><a xlink:href="v8-maybe_8h.html" target="_top" xlink:title=" ">
<polygon fill="white" stroke="#666666" points="1299.75,-295.5 1234.25,-295.5 1234.25,-276.25 1299.75,-276.25 1299.75,-295.5"/>
<text text-anchor="middle" x="1267" y="-282" font-family="Helvetica,sans-Serif" font-size="10.00">v8&#45;maybe.h</text>
</a>
</g>
</g>
<!-- Node22&#45;&gt;Node23 -->
<g id="edge35" class="edge">
<title>Node22&#45;&gt;Node23</title>
<path fill="none" stroke="#63b8ff" d="M1355.61,-441.64C1365.71,-433.61 1379.12,-420.83 1385,-406 1388.15,-398.05 1387.78,-394.84 1385,-386.75 1370.91,-345.7 1327.53,-316.66 1297.49,-300.83"/>
<polygon fill="#63b8ff" stroke="#63b8ff" points="1299.38,-297.36 1288.88,-295.97 1296.22,-303.61 1299.38,-297.36"/>
</g>
<!-- Node25 -->
<g id="node25" class="node">
<title>Node25</title>
<g id="a_node25"><a xlink:href="v8-persistent-handle_8h.html" target="_top" xlink:title=" ">
<polygon fill="white" stroke="#666666" points="723.62,-295.5 612.38,-295.5 612.38,-276.25 723.62,-276.25 723.62,-295.5"/>
<text text-anchor="middle" x="668" y="-282" font-family="Helvetica,sans-Serif" font-size="10.00">v8&#45;persistent&#45;handle.h</text>
</a>
</g>
</g>
<!-- Node22&#45;&gt;Node25 -->
<g id="edge40" class="edge">
<title>Node22&#45;&gt;Node25</title>
<path fill="none" stroke="#63b8ff" d="M1311.27,-443.63C1308.15,-443.04 1305.02,-442.48 1302,-442 1156.74,-418.83 1114.96,-444.52 973,-406 952.79,-400.52 949.35,-394.76 930,-386.75 849.59,-353.46 753.71,-317.95 703.18,-299.57"/>
<polygon fill="#63b8ff" stroke="#63b8ff" points="704.71,-296.03 694.11,-295.91 702.32,-302.61 704.71,-296.03"/>
</g>
<!-- Node27 -->
<g id="node27" class="node">
<title>Node27</title>
<g id="a_node27"><a xlink:href="v8-primitive_8h.html" target="_top" xlink:title=" ">
<polygon fill="white" stroke="#666666" points="1055.88,-406 982.12,-406 982.12,-386.75 1055.88,-386.75 1055.88,-406"/>
<text text-anchor="middle" x="1019" y="-392.5" font-family="Helvetica,sans-Serif" font-size="10.00">v8&#45;primitive.h</text>
</a>
</g>
</g>
<!-- Node22&#45;&gt;Node27 -->
<g id="edge46" class="edge">
<title>Node22&#45;&gt;Node27</title>
<path fill="none" stroke="#63b8ff" d="M1311.25,-443.78C1308.13,-443.16 1305,-442.55 1302,-442 1219.68,-426.86 1123.3,-412.34 1066.91,-404.17"/>
<polygon fill="#63b8ff" stroke="#63b8ff" points="1067.58,-400.59 1057.19,-402.62 1066.58,-407.51 1067.58,-400.59"/>
</g>
<!-- Node28 -->
<g id="node28" class="node">
<title>Node28</title>
<g id="a_node28"><a xlink:href="v8-value_8h.html" target="_top" xlink:title=" ">
<polygon fill="white" stroke="#666666" points="1122.12,-350.75 1061.88,-350.75 1061.88,-331.5 1122.12,-331.5 1122.12,-350.75"/>
<text text-anchor="middle" x="1092" y="-337.25" font-family="Helvetica,sans-Serif" font-size="10.00">v8&#45;value.h</text>
</a>
</g>
</g>
<!-- Node22&#45;&gt;Node28 -->
<g id="edge72" class="edge">
<title>Node22&#45;&gt;Node28</title>
<path fill="none" stroke="#63b8ff" d="M1322.03,-441.56C1277.83,-422.45 1174.9,-377.96 1123.04,-355.54"/>
<polygon fill="#63b8ff" stroke="#63b8ff" points="1124.65,-351.99 1114.09,-351.24 1121.88,-358.42 1124.65,-351.99"/>
</g>
<!-- Node29 -->
<g id="node29" class="node">
<title>Node29</title>
<g id="a_node29"><a xlink:href="v8-sandbox_8h.html" target="_top" xlink:title=" ">
<polygon fill="white" stroke="#666666" points="1375.5,-406 1302.5,-406 1302.5,-386.75 1375.5,-386.75 1375.5,-406"/>
<text text-anchor="middle" x="1339" y="-392.5" font-family="Helvetica,sans-Serif" font-size="10.00">v8&#45;sandbox.h</text>
</a>
</g>
</g>
<!-- Node22&#45;&gt;Node29 -->
<g id="edge57" class="edge">
<title>Node22&#45;&gt;Node29</title>
<path fill="none" stroke="#63b8ff" d="M1342.34,-441.83C1341.84,-435.17 1341.13,-425.74 1340.5,-417.28"/>
<polygon fill="#63b8ff" stroke="#63b8ff" points="1343.91,-417.07 1339.67,-407.36 1336.93,-417.59 1343.91,-417.07"/>
</g>
<!-- Node31 -->
<g id="node31" class="node">
<title>Node31</title>
<g id="a_node31"><a xlink:href="v8-traced-handle_8h.html" target="_top" xlink:title=" ">
<polygon fill="#fff0f0" stroke="red" points="1139.75,-295.5 1044.25,-295.5 1044.25,-276.25 1139.75,-276.25 1139.75,-295.5"/>
<text text-anchor="middle" x="1092" y="-282" font-family="Helvetica,sans-Serif" font-size="10.00">v8&#45;traced&#45;handle.h</text>
</a>
</g>
</g>
<!-- Node22&#45;&gt;Node31 -->
<g id="edge61" class="edge">
<title>Node22&#45;&gt;Node31</title>
<path fill="none" stroke="#63b8ff" d="M1311.41,-441.55C1281.91,-432.93 1236.73,-419.32 1198,-406 1181.7,-400.39 1062.78,-364.95 1053,-350.75 1042.09,-334.92 1056.82,-316.05 1071.2,-302.94"/>
<polygon fill="#63b8ff" stroke="#63b8ff" points="1073.06,-305.1 1078.42,-295.96 1068.53,-299.76 1073.06,-305.1"/>
</g>
<!-- Node23&#45;&gt;Node8 -->
<g id="edge39" class="edge">
<title>Node23&#45;&gt;Node8</title>
<path fill="none" stroke="#63b8ff" d="M1258.01,-275.97C1227.45,-246.32 1123.49,-150.54 1017,-110.5 951.35,-85.82 743.73,-72.52 654.93,-67.84"/>
<polygon fill="#63b8ff" stroke="#63b8ff" points="655.13,-64.3 644.96,-67.28 654.77,-71.29 655.13,-64.3"/>
</g>
<!-- Node23&#45;&gt;Node12 -->
<g id="edge36" class="edge">
<title>Node23&#45;&gt;Node12</title>
<path fill="none" stroke="#63b8ff" d="M1273.75,-276.02C1298.88,-243.07 1387.25,-127.19 1420.87,-83.09"/>
<polygon fill="#63b8ff" stroke="#63b8ff" points="1424.06,-85.68 1427.35,-75.6 1418.5,-81.43 1424.06,-85.68"/>
</g>
<!-- Node23&#45;&gt;Node15 -->
<g id="edge38" class="edge">
<title>Node23&#45;&gt;Node15</title>
<path fill="none" stroke="#63b8ff" d="M1300.1,-279.47C1345.42,-271.61 1423.92,-256.21 1448,-240.25 1486.77,-214.55 1515.05,-166.02 1528.41,-139.52"/>
<polygon fill="#63b8ff" stroke="#63b8ff" points="1531.84,-141.47 1533.06,-130.94 1525.54,-138.41 1531.84,-141.47"/>
</g>
<!-- Node24 -->
<g id="node24" class="node">
<title>Node24</title>
<g id="a_node24"><a xlink:title=" ">
<polygon fill="#e0e0e0" stroke="#999999" points="1576.25,-240.25 1537.75,-240.25 1537.75,-221 1576.25,-221 1576.25,-240.25"/>
<text text-anchor="middle" x="1557" y="-226.75" font-family="Helvetica,sans-Serif" font-size="10.00">utility</text>
</a>
</g>
</g>
<!-- Node23&#45;&gt;Node24 -->
<g id="edge37" class="edge">
<title>Node23&#45;&gt;Node24</title>
<path fill="none" stroke="#63b8ff" d="M1300.12,-278.75C1304.78,-277.9 1309.51,-277.05 1314,-276.25 1407.24,-259.7 1431.44,-260.24 1524,-240.25 1524.96,-240.04 1525.94,-239.82 1526.92,-239.6"/>
<polygon fill="#63b8ff" stroke="#63b8ff" points="1527.64,-242.78 1536.52,-237.01 1525.98,-235.98 1527.64,-242.78"/>
</g>
<!-- Node25&#45;&gt;Node8 -->
<g id="edge45" class="edge">
<title>Node25&#45;&gt;Node8</title>
<path fill="none" stroke="#63b8ff" d="M660.22,-276C653.19,-267.45 643.19,-253.86 638,-240.25 617.72,-187.08 614.25,-119 613.86,-85.83"/>
<polygon fill="#63b8ff" stroke="#63b8ff" points="617.36,-85.93 613.83,-75.93 610.36,-85.94 617.36,-85.93"/>
</g>
<!-- Node25&#45;&gt;Node11 -->
<g id="edge42" class="edge">
<title>Node25&#45;&gt;Node11</title>
<path fill="none" stroke="#63b8ff" d="M723.98,-277.12C727.03,-276.8 730.05,-276.51 733,-276.25 1110.57,-243.29 1206.88,-266.14 1585,-240.25 1596.4,-239.47 1608.58,-238.45 1620.21,-237.38"/>
<polygon fill="#63b8ff" stroke="#63b8ff" points="1620.51,-240.77 1630.14,-236.35 1619.86,-233.8 1620.51,-240.77"/>
</g>
<!-- Node25&#45;&gt;Node15 -->
<g id="edge41" class="edge">
<title>Node25&#45;&gt;Node15</title>
<path fill="none" stroke="#63b8ff" d="M702.72,-275.78C786.39,-254.12 1006,-198.84 1192,-165.75 1298.8,-146.75 1425.56,-132.44 1491.7,-125.6"/>
<polygon fill="#63b8ff" stroke="#63b8ff" points="1491.97,-128.99 1501.56,-124.49 1491.25,-122.02 1491.97,-128.99"/>
</g>
<!-- Node26 -->
<g id="node26" class="node">
<title>Node26</title>
<g id="a_node26"><a xlink:href="v8-weak-callback-info_8h.html" target="_top" xlink:title=" ">
<polygon fill="white" stroke="#666666" points="798,-240.25 680,-240.25 680,-221 798,-221 798,-240.25"/>
<text text-anchor="middle" x="739" y="-226.75" font-family="Helvetica,sans-Serif" font-size="10.00">v8&#45;weak&#45;callback&#45;info.h</text>
</a>
</g>
</g>
<!-- Node25&#45;&gt;Node26 -->
<g id="edge43" class="edge">
<title>Node25&#45;&gt;Node26</title>
<path fill="none" stroke="#63b8ff" d="M680.04,-275.84C690.51,-267.99 705.9,-256.45 718.33,-247.12"/>
<polygon fill="#63b8ff" stroke="#63b8ff" points="720.23,-249.32 726.13,-240.52 716.03,-243.72 720.23,-249.32"/>
</g>
<!-- Node26&#45;&gt;Node8 -->
<g id="edge44" class="edge">
<title>Node26&#45;&gt;Node8</title>
<path fill="none" stroke="#63b8ff" d="M734.72,-220.63C724.59,-199.88 697.62,-147.61 666,-110.5 656.9,-99.82 645.16,-89.52 635.13,-81.5"/>
<polygon fill="#63b8ff" stroke="#63b8ff" points="637.58,-78.2 627.53,-74.84 633.29,-83.73 637.58,-78.2"/>
</g>
<!-- Node27&#45;&gt;Node8 -->
<g id="edge56" class="edge">
<title>Node27&#45;&gt;Node8</title>
<path fill="none" stroke="#63b8ff" d="M981.66,-392.18C888.54,-383.37 650.13,-355.29 603,-295.5 553.43,-232.62 588.3,-127.29 605.72,-84.64"/>
<polygon fill="#63b8ff" stroke="#63b8ff" points="609.3,-86.15 609.99,-75.58 602.86,-83.42 609.3,-86.15"/>
</g>
<!-- Node27&#45;&gt;Node10 -->
<g id="edge47" class="edge">
<title>Node27&#45;&gt;Node10</title>
<path fill="none" stroke="#63b8ff" d="M998.2,-386.31C954.35,-367.2 852.24,-322.71 800.79,-300.29"/>
<polygon fill="#63b8ff" stroke="#63b8ff" points="802.48,-296.78 791.92,-295.99 799.69,-303.19 802.48,-296.78"/>
</g>
<!-- Node27&#45;&gt;Node11 -->
<g id="edge49" class="edge">
<title>Node27&#45;&gt;Node11</title>
<path fill="none" stroke="#63b8ff" d="M1043.09,-386.35C1079.34,-373.02 1150.25,-347.86 1212,-331.5 1290.44,-310.71 1311.89,-313.59 1391,-295.5 1424.55,-287.83 1432.49,-284.11 1466,-276.25 1518.24,-264 1578.14,-251.42 1620.56,-242.75"/>
<polygon fill="#63b8ff" stroke="#63b8ff" points="1621.13,-246 1630.23,-240.57 1619.73,-239.14 1621.13,-246"/>
</g>
<!-- Node27&#45;&gt;Node15 -->
<g id="edge48" class="edge">
<title>Node27&#45;&gt;Node15</title>
<path fill="none" stroke="#63b8ff" d="M1021.43,-386.68C1025.66,-373.07 1035.63,-346.75 1053,-331.5 1087.25,-301.45 1107.84,-315.05 1149,-295.5 1164.34,-288.22 1166.86,-283.94 1182,-276.25 1297.59,-217.53 1440.39,-159.28 1503.88,-134.09"/>
<polygon fill="#63b8ff" stroke="#63b8ff" points="1504.72,-137.13 1512.73,-130.2 1502.14,-130.62 1504.72,-137.13"/>
</g>
<!-- Node27&#45;&gt;Node28 -->
<g id="edge50" class="edge">
<title>Node27&#45;&gt;Node28</title>
<path fill="none" stroke="#63b8ff" d="M1031.38,-386.34C1042.25,-378.41 1058.28,-366.72 1071.13,-357.35"/>
<polygon fill="#63b8ff" stroke="#63b8ff" points="1072.78,-359.75 1078.8,-351.02 1068.66,-354.09 1072.78,-359.75"/>
</g>
<!-- Node28&#45;&gt;Node8 -->
<g id="edge55" class="edge">
<title>Node28&#45;&gt;Node8</title>
<path fill="none" stroke="#63b8ff" d="M1061.49,-335.1C1033.8,-329.32 993,-317.63 964,-295.5 885.31,-235.45 922.24,-165.59 840,-110.5 810.25,-90.57 711.55,-76.69 654.91,-70.14"/>
<polygon fill="#63b8ff" stroke="#63b8ff" points="655.5,-66.58 645.17,-68.93 654.72,-73.53 655.5,-66.58"/>
</g>
<!-- Node28&#45;&gt;Node10 -->
<g id="edge51" class="edge">
<title>Node28&#45;&gt;Node10</title>
<path fill="none" stroke="#63b8ff" d="M1061.42,-335.07C1002.5,-325.32 873.39,-303.97 808.63,-293.26"/>
<polygon fill="#63b8ff" stroke="#63b8ff" points="809.51,-289.7 799.07,-291.52 808.36,-296.6 809.51,-289.7"/>
</g>
<!-- Node28&#45;&gt;Node11 -->
<g id="edge53" class="edge">
<title>Node28&#45;&gt;Node11</title>
<path fill="none" stroke="#63b8ff" d="M1122.29,-334.16C1126.88,-333.26 1131.57,-332.35 1136,-331.5 1265.7,-306.52 1298.11,-300.22 1428,-276.25 1494.13,-264.04 1570.26,-250.41 1620.54,-241.46"/>
<polygon fill="#63b8ff" stroke="#63b8ff" points="1620.94,-244.76 1630.18,-239.57 1619.72,-237.87 1620.94,-244.76"/>
</g>
<!-- Node28&#45;&gt;Node15 -->
<g id="edge52" class="edge">
<title>Node28&#45;&gt;Node15</title>
<path fill="none" stroke="#63b8ff" d="M1110.35,-331.05C1144.04,-314.43 1213.39,-280.41 1225,-276.25 1288.32,-253.57 1310.94,-268.46 1372,-240.25 1431.3,-212.86 1491,-162.9 1519.6,-137.26"/>
<polygon fill="#63b8ff" stroke="#63b8ff" points="1521.39,-140.45 1526.44,-131.13 1516.69,-135.27 1521.39,-140.45"/>
</g>
<!-- Node28&#45;&gt;Node23 -->
<g id="edge54" class="edge">
<title>Node28&#45;&gt;Node23</title>
<path fill="none" stroke="#63b8ff" d="M1121.69,-331.09C1150.6,-322.29 1194.75,-308.86 1226.8,-299.11"/>
<polygon fill="#63b8ff" stroke="#63b8ff" points="1227.62,-302.21 1236.17,-295.95 1225.58,-295.52 1227.62,-302.21"/>
</g>
<!-- Node29&#45;&gt;Node8 -->
<g id="edge60" class="edge">
<title>Node29&#45;&gt;Node8</title>
<path fill="none" stroke="#63b8ff" d="M1337.64,-386.65C1334.94,-372.52 1327.47,-344.85 1309,-331.5 1200.51,-253.1 1126.62,-361.18 1010,-295.5 918.98,-244.23 954.55,-164.3 865,-110.5 830.27,-89.63 716.81,-75.79 655.02,-69.59"/>
<polygon fill="#63b8ff" stroke="#63b8ff" points="655.4,-66.02 645.11,-68.53 654.72,-72.98 655.4,-66.02"/>
</g>
<!-- Node29&#45;&gt;Node15 -->
<g id="edge59" class="edge">
<title>Node29&#45;&gt;Node15</title>
<path fill="none" stroke="#63b8ff" d="M1352.91,-386.27C1383.73,-366.14 1460.15,-316.46 1525,-276.25 1551.43,-259.86 1569.68,-267.31 1585,-240.25 1589.22,-232.8 1586.97,-229.33 1585,-221 1580.89,-203.59 1574.8,-201.1 1567,-185 1559.64,-169.82 1551.52,-152.5 1545.59,-139.72"/>
<polygon fill="#63b8ff" stroke="#63b8ff" points="1548.39,-138.44 1541.01,-130.84 1542.04,-141.38 1548.39,-138.44"/>
</g>
<!-- Node30 -->
<g id="node30" class="node">
<title>Node30</title>
<g id="a_node30"><a xlink:title=" ">
<polygon fill="#e0e0e0" stroke="#999999" points="1299.62,-350.75 1254.38,-350.75 1254.38,-331.5 1299.62,-331.5 1299.62,-350.75"/>
<text text-anchor="middle" x="1277" y="-337.25" font-family="Helvetica,sans-Serif" font-size="10.00">cstdint</text>
</a>
</g>
</g>
<!-- Node29&#45;&gt;Node30 -->
<g id="edge58" class="edge">
<title>Node29&#45;&gt;Node30</title>
<path fill="none" stroke="#63b8ff" d="M1328.48,-386.34C1319.52,-378.65 1306.43,-367.4 1295.69,-358.18"/>
<polygon fill="#63b8ff" stroke="#63b8ff" points="1298.23,-354.89 1288.36,-351.02 1293.67,-360.2 1298.23,-354.89"/>
</g>
<!-- Node31&#45;&gt;Node2 -->
<g id="edge62" class="edge">
<title>Node31&#45;&gt;Node2</title>
<path fill="none" stroke="#63b8ff" d="M1140.17,-277.61C1240.17,-262.31 1477.46,-224.88 1675,-185 1818.14,-156.1 1852.18,-140.91 1995,-110.5 2063.5,-95.91 2143.87,-80.85 2189.48,-72.49"/>
<polygon fill="#63b8ff" stroke="#63b8ff" points="2190.09,-75.75 2199.3,-70.51 2188.83,-68.87 2190.09,-75.75"/>
</g>
<!-- Node31&#45;&gt;Node3 -->
<g id="edge63" class="edge">
<title>Node31&#45;&gt;Node3</title>
<path fill="none" stroke="#63b8ff" d="M1140.19,-280.07C1207.7,-273.04 1334.16,-258.73 1441,-240.25 1480.45,-233.43 1489.4,-226.89 1529,-221 1727.46,-191.49 1779.81,-209.05 1979,-185 2250.54,-152.22 2575.24,-92.4 2680.36,-72.5"/>
<polygon fill="#63b8ff" stroke="#63b8ff" points="2680.79,-75.79 2689.96,-70.49 2679.48,-68.92 2680.79,-75.79"/>
</g>
<!-- Node31&#45;&gt;Node8 -->
<g id="edge71" class="edge">
<title>Node31&#45;&gt;Node8</title>
<path fill="none" stroke="#63b8ff" d="M1089.94,-276.07C1082.59,-246.74 1054.6,-151.86 992,-110.5 937.39,-74.42 740.94,-67.46 654.87,-66.15"/>
<polygon fill="#63b8ff" stroke="#63b8ff" points="655.02,-62.64 644.97,-66.01 654.93,-69.64 655.02,-62.64"/>
</g>
<!-- Node31&#45;&gt;Node9 -->
<g id="edge65" class="edge">
<title>Node31&#45;&gt;Node9</title>
<path fill="none" stroke="#63b8ff" d="M1097.44,-275.96C1107.95,-257.88 1130,-215.29 1130,-176.38 1130,-176.38 1130,-176.38 1130,-119.12 1130,-57.53 1193.51,-71.22 1253,-55.25 1345.46,-30.43 2031.42,-14.79 2197.07,-11.34"/>
<polygon fill="#63b8ff" stroke="#63b8ff" points="2196.73,-14.83 2206.65,-11.13 2196.58,-7.83 2196.73,-14.83"/>
</g>
<!-- Node31&#45;&gt;Node11 -->
<g id="edge69" class="edge">
<title>Node31&#45;&gt;Node11</title>
<path fill="none" stroke="#63b8ff" d="M1139.94,-280.6C1228.08,-272.74 1421.77,-255.37 1585,-240.25 1596.61,-239.17 1609.06,-238 1620.9,-236.88"/>
<polygon fill="#63b8ff" stroke="#63b8ff" points="1620.94,-240.3 1630.57,-235.87 1620.28,-233.33 1620.94,-240.3"/>
</g>
<!-- Node31&#45;&gt;Node12 -->
<g id="edge66" class="edge">
<title>Node31&#45;&gt;Node12</title>
<path fill="none" stroke="#63b8ff" d="M1107.17,-275.76C1121.99,-266.82 1145.14,-252.75 1165,-240.25 1256.92,-182.37 1365.04,-111.39 1411.23,-80.93"/>
<polygon fill="#63b8ff" stroke="#63b8ff" points="1412.95,-83.33 1419.36,-74.9 1409.09,-77.48 1412.95,-83.33"/>
</g>
<!-- Node31&#45;&gt;Node15 -->
<g id="edge68" class="edge">
<title>Node31&#45;&gt;Node15</title>
<path fill="none" stroke="#63b8ff" d="M1123.75,-275.8C1150.1,-267.81 1188.25,-255.13 1220,-240.25 1278.22,-212.97 1284.39,-189.84 1344,-165.75 1392.67,-146.08 1451.92,-134 1491.83,-127.45"/>
<polygon fill="#63b8ff" stroke="#63b8ff" points="1492.22,-130.78 1501.55,-125.75 1491.12,-123.86 1492.22,-130.78"/>
</g>
<!-- Node31&#45;&gt;Node17 -->
<g id="edge64" class="edge">
<title>Node31&#45;&gt;Node17</title>
<path fill="none" stroke="#63b8ff" d="M1104.41,-275.81C1115.52,-267.34 1131.87,-253.98 1144,-240.25 1189.8,-188.4 1183.49,-161.72 1230,-110.5 1239.85,-99.66 1252.44,-89.24 1263.09,-81.21"/>
<polygon fill="#63b8ff" stroke="#63b8ff" points="1264.83,-83.54 1270.83,-74.81 1260.69,-77.89 1264.83,-83.54"/>
</g>
<!-- Node31&#45;&gt;Node24 -->
<g id="edge67" class="edge">
<title>Node31&#45;&gt;Node24</title>
<path fill="none" stroke="#63b8ff" d="M1140.09,-280.84C1236.69,-272.59 1451.29,-253.43 1524,-240.25 1524.97,-240.07 1525.95,-239.89 1526.94,-239.69"/>
<polygon fill="#63b8ff" stroke="#63b8ff" points="1527.61,-242.89 1536.57,-237.23 1526.04,-236.07 1527.61,-242.89"/>
</g>
<!-- Node31&#45;&gt;Node26 -->
<g id="edge70" class="edge">
<title>Node31&#45;&gt;Node26</title>
<path fill="none" stroke="#63b8ff" d="M1044.03,-277.64C983.46,-268.5 878.78,-252.71 809.21,-242.22"/>
<polygon fill="#63b8ff" stroke="#63b8ff" points="809.77,-238.61 799.36,-240.58 808.72,-245.53 809.77,-238.61"/>
</g>
<!-- Node33&#45;&gt;Node2 -->
<g id="edge78" class="edge">
<title>Node33&#45;&gt;Node2</title>
<path fill="none" stroke="#63b8ff" d="M1409.04,-727.09C1530.4,-727.49 1962.89,-725.6 2316,-682.25 2491.67,-660.68 2696,-740.12 2696,-563.12 2696,-563.12 2696,-563.12 2696,-340.12 2696,-193.14 2588.46,-178.21 2458,-110.5 2394.6,-77.6 2310.1,-68.81 2262.55,-66.55"/>
<polygon fill="#63b8ff" stroke="#63b8ff" points="2262.7,-63.02 2252.57,-66.12 2262.42,-70.01 2262.7,-63.02"/>
</g>
<!-- Node33&#45;&gt;Node3 -->
<g id="edge79" class="edge">
<title>Node33&#45;&gt;Node3</title>
<path fill="none" stroke="#63b8ff" d="M1409.22,-726.53C1570.85,-724.71 2276.03,-714.99 2493,-682.25 2678.8,-654.21 2848,-640.53 2848,-452.62 2848,-452.62 2848,-452.62 2848,-284.88 2848,-199.42 2820.7,-176.97 2767,-110.5 2758.19,-99.59 2746.46,-89.26 2736.37,-81.3"/>
<polygon fill="#63b8ff" stroke="#63b8ff" points="2738.78,-77.97 2728.7,-74.7 2734.54,-83.54 2738.78,-77.97"/>
</g>
<!-- Node33&#45;&gt;Node4 -->
<g id="edge89" class="edge">
<title>Node33&#45;&gt;Node4</title>
<path fill="none" stroke="#63b8ff" d="M1342.81,-724.46C1284.88,-719.64 1168.47,-707.1 1137,-682.25 1105.42,-657.31 1092.14,-609.56 1086.98,-582.71"/>
<polygon fill="#63b8ff" stroke="#63b8ff" points="1090.28,-582.26 1085.14,-573 1083.38,-583.45 1090.28,-582.26"/>
</g>
<!-- Node33&#45;&gt;Node7 -->
<g id="edge82" class="edge">
<title>Node33&#45;&gt;Node7</title>
<path fill="none" stroke="#63b8ff" d="M1342.93,-726.41C1166.62,-723.83 343.55,-710.32 298,-682.25 240.78,-646.99 214.58,-565.03 205.24,-527.4"/>
<polygon fill="#63b8ff" stroke="#63b8ff" points="208.47,-526.8 202.79,-517.85 201.65,-528.39 208.47,-526.8"/>
</g>
<!-- Node33&#45;&gt;Node8 -->
<g id="edge152" class="edge">
<title>Node33&#45;&gt;Node8</title>
<path fill="none" stroke="#63b8ff" d="M1342.86,-726.55C1182.44,-724.83 485.39,-715.52 271,-682.25 164.89,-665.78 38,-725.75 38,-618.38 38,-618.38 38,-618.38 38,-174.38 38,-129.22 75.15,-127.45 117,-110.5 199.43,-77.12 469.29,-68.58 572.95,-66.51"/>
<polygon fill="#63b8ff" stroke="#63b8ff" points="572.95,-69.99 582.88,-66.3 572.82,-62.99 572.95,-69.99"/>
</g>
<!-- Node33&#45;&gt;Node9 -->
<g id="edge80" class="edge">
<title>Node33&#45;&gt;Node9</title>
<path fill="none" stroke="#63b8ff" d="M1409.2,-726.65C1577.28,-725.35 2335.5,-717.62 2568,-682.25 2660.86,-668.12 2689.58,-672.05 2772,-627 2879.39,-568.3 2924,-519.76 2924,-397.38 2924,-397.38 2924,-397.38 2924,-119.12 2924,-35.91 2829.26,-73.19 2748,-55.25 2571.64,-16.31 2354.29,-11.02 2269.39,-10.53"/>
<polygon fill="#63b8ff" stroke="#63b8ff" points="2269.55,-7.03 2259.54,-10.49 2269.53,-14.03 2269.55,-7.03"/>
</g>
<!-- Node33&#45;&gt;Node10 -->
<g id="edge90" class="edge">
<title>Node33&#45;&gt;Node10</title>
<path fill="none" stroke="#63b8ff" d="M1343,-726.49C1179.5,-724.15 464,-708.76 464,-618.38 464,-618.38 464,-618.38 464,-450.62 464,-390.65 649.02,-324.94 731.32,-298.67"/>
<polygon fill="#63b8ff" stroke="#63b8ff" points="732.28,-301.73 740.76,-295.38 730.17,-295.05 732.28,-301.73"/>
</g>
<!-- Node33&#45;&gt;Node11 -->
<g id="edge131" class="edge">
<title>Node33&#45;&gt;Node11</title>
<path fill="none" stroke="#63b8ff" d="M1409.17,-724.51C1536.26,-715.03 1985,-677.37 1985,-618.38 1985,-618.38 1985,-618.38 1985,-505.88 1985,-362.09 1795.53,-275.32 1713.32,-244.44"/>
<polygon fill="#63b8ff" stroke="#63b8ff" points="1714.74,-240.87 1704.15,-240.71 1712.33,-247.44 1714.74,-240.87"/>
</g>
<!-- Node33&#45;&gt;Node15 -->
<g id="edge130" class="edge">
<title>Node33&#45;&gt;Node15</title>
<path fill="none" stroke="#63b8ff" d="M1409.2,-725.67C1603.23,-718.45 2582,-678.98 2582,-618.38 2582,-618.38 2582,-618.38 2582,-561.12 2582,-405.69 2155.11,-206.08 2005,-165.75 1823.64,-117.03 1767.26,-156.93 1582.05,-130.56"/>
<polygon fill="#63b8ff" stroke="#63b8ff" points="1582.81,-126.99 1572.4,-129 1581.79,-133.92 1582.81,-126.99"/>
</g>
<!-- Node33&#45;&gt;Node24 -->
<g id="edge81" class="edge">
<title>Node33&#45;&gt;Node24</title>
<path fill="none" stroke="#63b8ff" d="M1384.42,-717.8C1418.75,-680.72 1546.73,-541.45 1556,-516.5 1591.01,-422.24 1571.04,-298.03 1561.34,-250.89"/>
<polygon fill="#63b8ff" stroke="#63b8ff" points="1564.61,-250.44 1559.08,-241.4 1557.77,-251.91 1564.61,-250.44"/>
</g>
<!-- Node33&#45;&gt;Node25 -->
<g id="edge133" class="edge">
<title>Node33&#45;&gt;Node25</title>
<path fill="none" stroke="#63b8ff" d="M1343.12,-726.2C1197.56,-723.09 614.97,-709.02 538,-682.25 497.88,-668.29 482.81,-662.84 460,-627 434.73,-587.29 446.15,-453.65 450,-442 475.95,-363.48 571.23,-319.15 626.87,-299.43"/>
<polygon fill="#63b8ff" stroke="#63b8ff" points="627.78,-302.47 636.1,-295.92 625.51,-295.85 627.78,-302.47"/>
</g>
<!-- Node33&#45;&gt;Node27 -->
<g id="edge134" class="edge">
<title>Node33&#45;&gt;Node27</title>
<path fill="none" stroke="#63b8ff" d="M1342.77,-724.97C1308.69,-721.41 1255.89,-711.24 1221,-682.25 1196.58,-661.96 1189,-650.13 1189,-618.38 1189,-618.38 1189,-618.38 1189,-505.88 1189,-447.65 1117.26,-419.29 1066.99,-406.56"/>
<polygon fill="#63b8ff" stroke="#63b8ff" points="1067.85,-402.92 1057.31,-404 1066.22,-409.73 1067.85,-402.92"/>
</g>
<!-- Node34 -->
<g id="node33" class="node">
<title>Node34</title>
<g id="a_node33"><a xlink:href="v8-array-buffer_8h.html" target="_top" xlink:title=" ">
<polygon fill="white" stroke="#666666" points="1380.5,-516.5 1295.5,-516.5 1295.5,-497.25 1380.5,-497.25 1380.5,-516.5"/>
<text text-anchor="middle" x="1338" y="-503" font-family="Helvetica,sans-Serif" font-size="10.00">v8&#45;array&#45;buffer.h</text>
</a>
</g>
</g>
<!-- Node33&#45;&gt;Node34 -->
<g id="edge83" class="edge">
<title>Node33&#45;&gt;Node34</title>
<path fill="none" stroke="#63b8ff" d="M1372.65,-717.77C1369.48,-708.83 1364.8,-694.77 1362,-682.25 1349.56,-626.72 1342.52,-559.71 1339.6,-527.31"/>
<polygon fill="#63b8ff" stroke="#63b8ff" points="1343.03,-527.34 1338.69,-517.68 1336.06,-527.94 1343.03,-527.34"/>
</g>
<!-- Node35 -->
<g id="node34" class="node">
<title>Node35</title>
<g id="a_node34"><a xlink:href="v8-debug_8h.html" target="_top" xlink:title=" ">
<polygon fill="white" stroke="#666666" points="1670.62,-682.25 1607.38,-682.25 1607.38,-663 1670.62,-663 1670.62,-682.25"/>
<text text-anchor="middle" x="1639" y="-668.75" font-family="Helvetica,sans-Serif" font-size="10.00">v8&#45;debug.h</text>
</a>
</g>
</g>
<!-- Node33&#45;&gt;Node35 -->
<g id="edge91" class="edge">
<title>Node33&#45;&gt;Node35</title>
<path fill="none" stroke="#63b8ff" d="M1409.04,-720.18C1456.57,-710.56 1544.25,-692.81 1596.53,-682.22"/>
<polygon fill="#63b8ff" stroke="#63b8ff" points="1597.01,-685.49 1606.12,-680.08 1595.62,-678.63 1597.01,-685.49"/>
</g>
<!-- Node42 -->
<g id="node39" class="node">
<title>Node42</title>
<g id="a_node39"><a xlink:href="v8-embedder-heap_8h.html" target="_top" xlink:title=" ">
<polygon fill="white" stroke="#666666" points="435.88,-350.75 332.12,-350.75 332.12,-331.5 435.88,-331.5 435.88,-350.75"/>
<text text-anchor="middle" x="384" y="-337.25" font-family="Helvetica,sans-Serif" font-size="10.00">v8&#45;embedder&#45;heap.h</text>
</a>
</g>
</g>
<!-- Node33&#45;&gt;Node42 -->
<g id="edge115" class="edge">
<title>Node33&#45;&gt;Node42</title>
<path fill="none" stroke="#63b8ff" d="M1342.89,-726.47C1170.06,-724.26 377.7,-712.47 336,-682.25 311.44,-664.45 312,-648.7 312,-618.38 312,-618.38 312,-618.38 312,-450.62 312,-412.67 342.96,-377.84 364.28,-358.35"/>
<polygon fill="#63b8ff" stroke="#63b8ff" points="366.22,-360.43 371.43,-351.21 361.6,-355.17 366.22,-360.43"/>
</g>
<!-- Node43 -->
<g id="node40" class="node">
<title>Node43</title>
<g id="a_node40"><a xlink:href="v8-exception_8h.html" target="_top" xlink:title=" ">
<polygon fill="white" stroke="#666666" points="1729.12,-516.5 1650.88,-516.5 1650.88,-497.25 1729.12,-497.25 1729.12,-516.5"/>
<text text-anchor="middle" x="1690" y="-503" font-family="Helvetica,sans-Serif" font-size="10.00">v8&#45;exception.h</text>
</a>
</g>
</g>
<!-- Node33&#45;&gt;Node43 -->
<g id="edge118" class="edge">
<title>Node33&#45;&gt;Node43</title>
<path fill="none" stroke="#63b8ff" d="M1388.7,-718.02C1436.73,-684.52 1607.63,-565.33 1668.38,-522.96"/>
<polygon fill="#63b8ff" stroke="#63b8ff" points="1669.94,-525.43 1676.14,-516.84 1665.94,-519.69 1669.94,-525.43"/>
</g>
<!-- Node44 -->
<g id="node41" class="node">
<title>Node44</title>
<g id="a_node41"><a xlink:href="v8-function-callback_8h.html" target="_top" xlink:title=" ">
<polygon fill="white" stroke="#666666" points="1074.25,-461.25 963.75,-461.25 963.75,-442 1074.25,-442 1074.25,-461.25"/>
<text text-anchor="middle" x="1019" y="-447.75" font-family="Helvetica,sans-Serif" font-size="10.00">v8&#45;function&#45;callback.h</text>
</a>
</g>
</g>
<!-- Node33&#45;&gt;Node44 -->
<g id="edge123" class="edge">
<title>Node33&#45;&gt;Node44</title>
<path fill="none" stroke="#63b8ff" d="M1343.14,-723.39C1292.81,-717.43 1199.83,-703.81 1175,-682.25 1152.1,-662.37 1151,-648.7 1151,-618.38 1151,-618.38 1151,-618.38 1151,-561.12 1151,-512.24 1096.31,-481.34 1057.34,-465.52"/>
<polygon fill="#63b8ff" stroke="#63b8ff" points="1058.91,-461.98 1048.32,-461.64 1056.38,-468.51 1058.91,-461.98"/>
</g>
<!-- Node45 -->
<g id="node42" class="node">
<title>Node45</title>
<g id="a_node42"><a xlink:href="v8-microtask_8h.html" target="_top" xlink:title=" ">
<polygon fill="white" stroke="#666666" points="1309.88,-682.25 1230.12,-682.25 1230.12,-663 1309.88,-663 1309.88,-682.25"/>
<text text-anchor="middle" x="1270" y="-668.75" font-family="Helvetica,sans-Serif" font-size="10.00">v8&#45;microtask.h</text>
</a>
</g>
</g>
<!-- Node33&#45;&gt;Node45 -->
<g id="edge132" class="edge">
<title>Node33&#45;&gt;Node45</title>
<path fill="none" stroke="#63b8ff" d="M1358.02,-717.84C1341.5,-709.54 1316.75,-697.11 1297.71,-687.54"/>
<polygon fill="#63b8ff" stroke="#63b8ff" points="1299.58,-684.06 1289.07,-682.7 1296.43,-690.32 1299.58,-684.06"/>
</g>
<!-- Node46 -->
<g id="node43" class="node">
<title>Node46</title>
<g id="a_node43"><a xlink:href="v8-statistics_8h.html" target="_top" xlink:title=" ">
<polygon fill="white" stroke="#666666" points="2239.38,-571.75 2162.62,-571.75 2162.62,-552.5 2239.38,-552.5 2239.38,-571.75"/>
<text text-anchor="middle" x="2201" y="-558.25" font-family="Helvetica,sans-Serif" font-size="10.00">v8&#45;statistics.h</text>
</a>
</g>
</g>
<!-- Node33&#45;&gt;Node46 -->
<g id="edge135" class="edge">
<title>Node33&#45;&gt;Node46</title>
<path fill="none" stroke="#63b8ff" d="M1409.05,-726.08C1539.38,-722.78 2013.54,-709 2075,-682.25 2125.64,-660.21 2168.41,-608.57 2188.58,-581.09"/>
<polygon fill="#63b8ff" stroke="#63b8ff" points="2192,-583.32 2194.97,-573.15 2186.3,-579.25 2192,-583.32"/>
</g>
<!-- Node47 -->
<g id="node44" class="node">
<title>Node47</title>
<g id="a_node44"><a xlink:href="v8-unwinder_8h.html" target="_top" xlink:title=" ">
<polygon fill="white" stroke="#666666" points="2078,-350.75 2002,-350.75 2002,-331.5 2078,-331.5 2078,-350.75"/>
<text text-anchor="middle" x="2040" y="-337.25" font-family="Helvetica,sans-Serif" font-size="10.00">v8&#45;unwinder.h</text>
</a>
</g>
</g>
<!-- Node33&#45;&gt;Node47 -->
<g id="edge145" class="edge">
<title>Node33&#45;&gt;Node47</title>
<path fill="none" stroke="#63b8ff" d="M1409.01,-726.91C1531.62,-726.74 1956.06,-723.15 1999,-682.25 2090.05,-595.51 2058.67,-420.04 2044.98,-361.57"/>
<polygon fill="#63b8ff" stroke="#63b8ff" points="2048.23,-361.11 2042.45,-352.22 2041.43,-362.77 2048.23,-361.11"/>
</g>
<!-- Node34&#45;&gt;Node2 -->
<g id="edge84" class="edge">
<title>Node34&#45;&gt;Node2</title>
<path fill="none" stroke="#63b8ff" d="M1358.19,-496.91C1377.9,-488.08 1408.68,-474.09 1435,-461.25 1573.31,-393.77 1611.03,-380.98 1739,-295.5 1820.71,-240.92 1829.69,-208.83 1918,-165.75 1969.96,-140.4 1987.91,-147.28 2043,-129.75 2094.95,-113.22 2154.44,-92.03 2191.12,-78.7"/>
<polygon fill="#63b8ff" stroke="#63b8ff" points="2192.09,-81.71 2200.28,-74.99 2189.69,-75.13 2192.09,-81.71"/>
</g>
<!-- Node34&#45;&gt;Node8 -->
<g id="edge88" class="edge">
<title>Node34&#45;&gt;Node8</title>
<path fill="none" stroke="#63b8ff" d="M1295.31,-506.41C1095.94,-507.82 266,-500.81 266,-286.88 266,-286.88 266,-286.88 266,-174.38 266,-133.55 295.48,-128.73 332,-110.5 373.59,-89.74 505.61,-75.45 573.23,-69.29"/>
<polygon fill="#63b8ff" stroke="#63b8ff" points="573.25,-72.71 582.89,-68.33 572.62,-65.74 573.25,-72.71"/>
</g>
<!-- Node34&#45;&gt;Node9 -->
<g id="edge85" class="edge">
<title>Node34&#45;&gt;Node9</title>
<path fill="none" stroke="#63b8ff" d="M1295.01,-505.08C1147.3,-502.11 661.21,-490.32 508,-461.25 431.61,-446.76 414.03,-435.3 342,-406 207.08,-351.12 143.22,-324.1 100,-185 89.92,-152.57 90.94,-132.28 117,-110.5 274.32,20.98 370.52,-70.3 575,-55.25 1223.77,-7.49 2018.69,-9.27 2196.57,-10.35"/>
<polygon fill="#63b8ff" stroke="#63b8ff" points="2196.36,-13.86 2206.38,-10.42 2196.41,-6.86 2196.36,-13.86"/>
</g>
<!-- Node34&#45;&gt;Node11 -->
<g id="edge86" class="edge">
<title>Node34&#45;&gt;Node11</title>
<path fill="none" stroke="#63b8ff" d="M1352.18,-496.95C1378.91,-479.99 1438.32,-441.62 1486,-406 1516.92,-382.9 1524.23,-376.47 1553,-350.75 1592.48,-315.46 1636.57,-271.61 1659.74,-248.19"/>
<polygon fill="#63b8ff" stroke="#63b8ff" points="1661.75,-251.12 1666.28,-241.54 1656.77,-246.21 1661.75,-251.12"/>
</g>
<!-- Node34&#45;&gt;Node22 -->
<g id="edge87" class="edge">
<title>Node34&#45;&gt;Node22</title>
<path fill="none" stroke="#63b8ff" d="M1338.83,-497.08C1339.45,-490.42 1340.34,-480.99 1341.13,-472.53"/>
<polygon fill="#63b8ff" stroke="#63b8ff" points="1344.71,-472.89 1342.16,-462.61 1337.74,-472.24 1344.71,-472.89"/>
</g>
<!-- Node35&#45;&gt;Node3 -->
<g id="edge92" class="edge">
<title>Node35&#45;&gt;Node3</title>
<path fill="none" stroke="#63b8ff" d="M1671.09,-669.86C1816.4,-661.64 2413.29,-625.18 2592,-571.75 2697.78,-540.12 2810,-563.04 2810,-452.62 2810,-452.62 2810,-452.62 2810,-284.88 2810,-204.19 2755.05,-119.56 2728.73,-83.65"/>
<polygon fill="#63b8ff" stroke="#63b8ff" points="2730.94,-81.76 2722.14,-75.86 2725.34,-85.96 2730.94,-81.76"/>
</g>
<!-- Node35&#45;&gt;Node8 -->
<g id="edge114" class="edge">
<title>Node35&#45;&gt;Node8</title>
<path fill="none" stroke="#63b8ff" d="M1607.08,-669.61C1433.38,-658.37 600.87,-600.88 359,-516.5 211.23,-464.95 152,-388.13 152,-231.62 152,-231.62 152,-231.62 152,-174.38 152,-136.03 175.84,-127.93 210,-110.5 272.77,-78.48 483.47,-69.26 573.09,-66.75"/>
<polygon fill="#63b8ff" stroke="#63b8ff" points="573,-70.23 582.91,-66.47 572.82,-63.23 573,-70.23"/>
</g>
<!-- Node36 -->
<g id="node35" class="node">
<title>Node36</title>
<g id="a_node35"><a xlink:href="v8-script_8h.html" target="_top" xlink:title=" ">
<polygon fill="white" stroke="#666666" points="1834.5,-627 1773.5,-627 1773.5,-607.75 1834.5,-607.75 1834.5,-627"/>
<text text-anchor="middle" x="1804" y="-613.5" font-family="Helvetica,sans-Serif" font-size="10.00">v8&#45;script.h</text>
</a>
</g>
</g>
<!-- Node35&#45;&gt;Node36 -->
<g id="edge93" class="edge">
<title>Node35&#45;&gt;Node36</title>
<path fill="none" stroke="#63b8ff" d="M1666.99,-662.59C1694.13,-653.83 1735.52,-640.48 1765.7,-630.73"/>
<polygon fill="#63b8ff" stroke="#63b8ff" points="1766.43,-633.85 1774.87,-627.45 1764.28,-627.19 1766.43,-633.85"/>
</g>
<!-- Node36&#45;&gt;Node2 -->
<g id="edge94" class="edge">
<title>Node36&#45;&gt;Node2</title>
<path fill="none" stroke="#63b8ff" d="M1834.69,-614.65C1965.28,-606.92 2468,-572.92 2468,-507.88 2468,-507.88 2468,-507.88 2468,-174.38 2468,-85.37 2330,-68.91 2262.42,-66.2"/>
<polygon fill="#63b8ff" stroke="#63b8ff" points="2262.55,-62.67 2252.44,-65.85 2262.33,-69.66 2262.55,-62.67"/>
</g>
<!-- Node36&#45;&gt;Node3 -->
<g id="edge95" class="edge">
<title>Node36&#45;&gt;Node3</title>
<path fill="none" stroke="#63b8ff" d="M1834.58,-615.84C1967.48,-613.32 2491.17,-601.59 2558,-571.75 2658.55,-526.86 2734,-507.49 2734,-397.38 2734,-397.38 2734,-397.38 2734,-340.12 2734,-314.89 2721.04,-144.23 2716.53,-85.6"/>
<polygon fill="#63b8ff" stroke="#63b8ff" points="2719.96,-85.59 2715.7,-75.88 2712.98,-86.12 2719.96,-85.59"/>
</g>
<!-- Node36&#45;&gt;Node4 -->
<g id="edge99" class="edge">
<title>Node36&#45;&gt;Node4</title>
<path fill="none" stroke="#63b8ff" d="M1773.06,-614.09C1660.64,-605.77 1273.05,-577.11 1134.08,-566.83"/>
<polygon fill="#63b8ff" stroke="#63b8ff" points="1134.58,-563.28 1124.35,-566.04 1134.06,-570.26 1134.58,-563.28"/>
</g>
<!-- Node36&#45;&gt;Node8 -->
<g id="edge113" class="edge">
<title>Node36&#45;&gt;Node8</title>
<path fill="none" stroke="#63b8ff" d="M1773.15,-615.67C1594.92,-611.35 695.53,-586.4 429,-516.5 286.51,-479.13 190,-434.18 190,-286.88 190,-286.88 190,-286.88 190,-174.38 190,-135.73 214.6,-128.12 249,-110.5 304.82,-81.91 489.94,-70.92 573.02,-67.35"/>
<polygon fill="#63b8ff" stroke="#63b8ff" points="572.96,-70.82 582.81,-66.91 572.67,-63.82 572.96,-70.82"/>
</g>
<!-- Node36&#45;&gt;Node9 -->
<g id="edge96" class="edge">
<title>Node36&#45;&gt;Node9</title>
<path fill="none" stroke="#63b8ff" d="M1834.95,-617.04C1918.4,-618.13 2154.53,-616.69 2344,-571.75 2407.88,-556.6 2441.37,-568.85 2481,-516.5 2542.96,-434.65 2506,-389.53 2506,-286.88 2506,-286.88 2506,-286.88 2506,-119.12 2506,-68.79 2343.73,-31.58 2269.4,-17.17"/>
<polygon fill="#63b8ff" stroke="#63b8ff" points="2270.16,-13.56 2259.68,-15.13 2268.85,-20.44 2270.16,-13.56"/>
</g>
<!-- Node36&#45;&gt;Node10 -->
<g id="edge100" class="edge">
<title>Node36&#45;&gt;Node10</title>
<path fill="none" stroke="#63b8ff" d="M1773.46,-614.06C1631.32,-602.87 1034.68,-551.21 874,-461.25 845.62,-445.36 843.75,-433.26 826,-406 804.46,-372.94 786.5,-330.29 777.09,-306.02"/>
<polygon fill="#63b8ff" stroke="#63b8ff" points="780.11,-305.09 773.29,-296.98 773.56,-307.58 780.11,-305.09"/>
</g>
<!-- Node36&#45;&gt;Node11 -->
<g id="edge101" class="edge">
<title>Node36&#45;&gt;Node11</title>
<path fill="none" stroke="#63b8ff" d="M1811.67,-607.54C1818.52,-599.03 1828.05,-585.46 1832,-571.75 1834.37,-563.53 1833.65,-560.89 1832,-552.5 1806.41,-422.34 1791.43,-387.39 1719,-276.25 1712.29,-265.95 1703,-255.95 1694.77,-248.04"/>
<polygon fill="#63b8ff" stroke="#63b8ff" points="1697.45,-245.83 1687.73,-241.62 1692.71,-250.98 1697.45,-245.83"/>
</g>
<!-- Node36&#45;&gt;Node13 -->
<g id="edge98" class="edge">
<title>Node36&#45;&gt;Node13</title>
<path fill="none" stroke="#63b8ff" d="M1815.3,-607.28C1824.85,-598.99 1838.19,-585.91 1846,-571.75 1918.36,-440.47 1940.78,-256.31 1946.38,-196.19"/>
<polygon fill="#63b8ff" stroke="#63b8ff" points="1949.95,-196.58 1947.34,-186.31 1942.98,-195.97 1949.95,-196.58"/>
</g>
<!-- Node36&#45;&gt;Node23 -->
<g id="edge102" class="edge">
<title>Node36&#45;&gt;Node23</title>
<path fill="none" stroke="#63b8ff" d="M1798.46,-607.58C1792.88,-598.65 1784.11,-584.37 1777,-571.75 1758.65,-539.19 1765.23,-522.84 1738,-497.25 1609.73,-376.71 1400.78,-317.25 1310.65,-296.14"/>
<polygon fill="#63b8ff" stroke="#63b8ff" points="1311.54,-292.52 1301.01,-293.7 1309.97,-299.34 1311.54,-292.52"/>
</g>
<!-- Node37 -->
<g id="node36" class="node">
<title>Node37</title>
<g id="a_node36"><a xlink:title=" ">
<polygon fill="#e0e0e0" stroke="#999999" points="1822.5,-571.75 1785.5,-571.75 1785.5,-552.5 1822.5,-552.5 1822.5,-571.75"/>
<text text-anchor="middle" x="1804" y="-558.25" font-family="Helvetica,sans-Serif" font-size="10.00">tuple</text>
</a>
</g>
</g>
<!-- Node36&#45;&gt;Node37 -->
<g id="edge97" class="edge">
<title>Node36&#45;&gt;Node37</title>
<path fill="none" stroke="#63b8ff" d="M1804,-607.58C1804,-600.92 1804,-591.49 1804,-583.03"/>
<polygon fill="#63b8ff" stroke="#63b8ff" points="1807.5,-583.11 1804,-573.11 1800.5,-583.11 1807.5,-583.11"/>
</g>
<!-- Node38 -->
<g id="node37" class="node">
<title>Node38</title>
<g id="a_node37"><a xlink:href="v8-memory-span_8h.html" target="_top" xlink:title=" ">
<polygon fill="#fff0f0" stroke="red" points="1722.75,-129.75 1627.25,-129.75 1627.25,-110.5 1722.75,-110.5 1722.75,-129.75"/>
<text text-anchor="middle" x="1675" y="-116.25" font-family="Helvetica,sans-Serif" font-size="10.00">v8&#45;memory&#45;span.h</text>
</a>
</g>
</g>
<!-- Node36&#45;&gt;Node38 -->
<g id="edge103" class="edge">
<title>Node36&#45;&gt;Node38</title>
<path fill="none" stroke="#63b8ff" d="M1834.69,-607.94C1947.56,-575.33 2327.64,-450.59 2221,-276.25 2164.73,-184.26 2107.9,-197.99 2005,-165.75 1913.02,-136.93 1800.89,-126.72 1733.86,-123.11"/>
<polygon fill="#63b8ff" stroke="#63b8ff" points="1734.26,-119.57 1724.09,-122.56 1733.9,-126.56 1734.26,-119.57"/>
</g>
<!-- Node40 -->
<g id="node38" class="node">
<title>Node40</title>
<g id="a_node38"><a xlink:href="v8-message_8h.html" target="_top" xlink:title=" ">
<polygon fill="#fff0f0" stroke="red" points="1293.38,-461.25 1216.62,-461.25 1216.62,-442 1293.38,-442 1293.38,-461.25"/>
<text text-anchor="middle" x="1255" y="-447.75" font-family="Helvetica,sans-Serif" font-size="10.00">v8&#45;message.h</text>
</a>
</g>
</g>
<!-- Node36&#45;&gt;Node40 -->
<g id="edge108" class="edge">
<title>Node36&#45;&gt;Node40</title>
<path fill="none" stroke="#63b8ff" d="M1773.22,-607.35C1713.8,-589.92 1579.14,-550.34 1466,-516.5 1406.46,-498.69 1337.57,-477.78 1295.14,-464.86"/>
<polygon fill="#63b8ff" stroke="#63b8ff" points="1296.27,-461.24 1285.68,-461.68 1294.23,-467.94 1296.27,-461.24"/>
</g>
<!-- Node38&#45;&gt;Node2 -->
<g id="edge104" class="edge">
<title>Node38&#45;&gt;Node2</title>
<path fill="none" stroke="#63b8ff" d="M1723.04,-112.21C1727.75,-111.6 1732.47,-111.02 1737,-110.5 1906.05,-91.04 2108.78,-74.8 2189.88,-68.58"/>
<polygon fill="#63b8ff" stroke="#63b8ff" points="2189.8,-72.02 2199.5,-67.77 2189.27,-65.04 2189.8,-72.02"/>
</g>
<!-- Node38&#45;&gt;Node8 -->
<g id="edge107" class="edge">
<title>Node38&#45;&gt;Node8</title>
<path fill="none" stroke="#63b8ff" d="M1626.99,-111.99C1622.27,-111.43 1617.55,-110.92 1613,-110.5 1241.79,-76.46 790.51,-68.13 654.6,-66.33"/>
<polygon fill="#63b8ff" stroke="#63b8ff" points="654.94,-62.82 644.9,-66.19 654.85,-69.82 654.94,-62.82"/>
</g>
<!-- Node38&#45;&gt;Node12 -->
<g id="edge106" class="edge">
<title>Node38&#45;&gt;Node12</title>
<path fill="none" stroke="#63b8ff" d="M1633.84,-110.03C1589.6,-100.26 1519.66,-84.8 1475.35,-75.01"/>
<polygon fill="#63b8ff" stroke="#63b8ff" points="1476.18,-71.39 1465.66,-72.65 1474.67,-78.22 1476.18,-71.39"/>
</g>
<!-- Node38&#45;&gt;Node18 -->
<g id="edge105" class="edge">
<title>Node38&#45;&gt;Node18</title>
<path fill="none" stroke="#63b8ff" d="M1675.5,-110.33C1675.87,-103.67 1676.4,-94.24 1676.88,-85.78"/>
<polygon fill="#63b8ff" stroke="#63b8ff" points="1680.43,-86.04 1677.49,-75.86 1673.44,-85.65 1680.43,-86.04"/>
</g>
<!-- Node40&#45;&gt;Node8 -->
<g id="edge112" class="edge">
<title>Node40&#45;&gt;Node8</title>
<path fill="none" stroke="#63b8ff" d="M1216.23,-446.86C1100.28,-435.19 757.99,-397.55 657,-350.75 621.04,-334.09 608.57,-328.75 587,-295.5 573.22,-274.25 576.14,-265.39 573,-240.25 565.83,-182.74 564.12,-164.17 586,-110.5 589.79,-101.21 595.47,-91.69 600.73,-83.84"/>
<polygon fill="#63b8ff" stroke="#63b8ff" points="604.1,-86.13 606.99,-75.93 598.37,-82.1 604.1,-86.13"/>
</g>
<!-- Node40&#45;&gt;Node11 -->
<g id="edge109" class="edge">
<title>Node40&#45;&gt;Node11</title>
<path fill="none" stroke="#63b8ff" d="M1290.99,-441.53C1317.8,-433.99 1354.82,-421.93 1385,-406 1470.31,-360.97 1474.46,-322.72 1559,-276.25 1583.29,-262.9 1612.4,-251.78 1635.51,-243.98"/>
<polygon fill="#63b8ff" stroke="#63b8ff" points="1636.26,-247.09 1644.66,-240.63 1634.07,-240.44 1636.26,-247.09"/>
</g>
<!-- Node40&#45;&gt;Node23 -->
<g id="edge110" class="edge">
<title>Node40&#45;&gt;Node23</title>
<path fill="none" stroke="#63b8ff" d="M1252.34,-441.52C1246.87,-421.39 1235.62,-371.72 1245,-331.5 1247.1,-322.48 1251.31,-313.18 1255.48,-305.43"/>
<polygon fill="#63b8ff" stroke="#63b8ff" points="1258.97,-307.38 1260.95,-296.98 1252.91,-303.88 1258.97,-307.38"/>
</g>
<!-- Node40&#45;&gt;Node27 -->
<g id="edge111" class="edge">
<title>Node40&#45;&gt;Node27</title>
<path fill="none" stroke="#63b8ff" d="M1216.29,-441.89C1175.34,-432.65 1110.67,-418.06 1066.62,-408.12"/>
<polygon fill="#63b8ff" stroke="#63b8ff" points="1067.69,-404.55 1057.17,-405.76 1066.15,-411.38 1067.69,-404.55"/>
</g>
<!-- Node42&#45;&gt;Node8 -->
<g id="edge117" class="edge">
<title>Node42&#45;&gt;Node8</title>
<path fill="none" stroke="#63b8ff" d="M384.14,-331.12C384.41,-312.53 385,-268.55 385,-231.62 385,-231.62 385,-231.62 385,-174.38 385,-143.89 386.81,-130.29 410,-110.5 434.15,-89.89 520.74,-76.59 573.03,-70.25"/>
<polygon fill="#63b8ff" stroke="#63b8ff" points="573.43,-73.61 582.95,-68.97 572.61,-66.66 573.43,-73.61"/>
</g>
<!-- Node42&#45;&gt;Node31 -->
<g id="edge116" class="edge">
<title>Node42&#45;&gt;Node31</title>
<path fill="none" stroke="#63b8ff" d="M436.35,-336.19C565.32,-326.49 897.72,-301.49 1033.2,-291.3"/>
<polygon fill="#63b8ff" stroke="#63b8ff" points="1033.44,-294.71 1043.15,-290.47 1032.92,-287.73 1033.44,-294.71"/>
</g>
<!-- Node43&#45;&gt;Node2 -->
<g id="edge119" class="edge">
<title>Node43&#45;&gt;Node2</title>
<path fill="none" stroke="#63b8ff" d="M1704.49,-496.77C1731.17,-479.83 1789.61,-441.9 1836,-406 1986.43,-289.6 2154.78,-133.1 2208.53,-82.44"/>
<polygon fill="#63b8ff" stroke="#63b8ff" points="2210.55,-85.4 2215.42,-75.99 2205.74,-80.31 2210.55,-85.4"/>
</g>
<!-- Node43&#45;&gt;Node8 -->
<g id="edge122" class="edge">
<title>Node43&#45;&gt;Node8</title>
<path fill="none" stroke="#63b8ff" d="M1650.43,-503.28C1623.75,-501.54 1587.76,-499.22 1556,-497.25 1352.05,-484.58 810.04,-520.82 641,-406 548.25,-343 553.97,-277.43 564,-165.75 566.23,-140.9 563.04,-132.92 574,-110.5 579.1,-100.07 587.36,-90.25 595.05,-82.49"/>
<polygon fill="#63b8ff" stroke="#63b8ff" points="597.15,-85.37 602,-75.95 592.34,-80.3 597.15,-85.37"/>
</g>
<!-- Node43&#45;&gt;Node11 -->
<g id="edge120" class="edge">
<title>Node43&#45;&gt;Node11</title>
<path fill="none" stroke="#63b8ff" d="M1694.23,-496.75C1705.73,-470.8 1735.77,-394.34 1722,-331.5 1715.38,-301.29 1698.72,-269.32 1687.37,-249.91"/>
<polygon fill="#63b8ff" stroke="#63b8ff" points="1689.87,-248.28 1681.72,-241.52 1683.87,-251.89 1689.87,-248.28"/>
</g>
<!-- Node43&#45;&gt;Node22 -->
<g id="edge121" class="edge">
<title>Node43&#45;&gt;Node22</title>
<path fill="none" stroke="#63b8ff" d="M1650.53,-499.82C1584.74,-489.72 1453.2,-469.54 1385.47,-459.14"/>
<polygon fill="#63b8ff" stroke="#63b8ff" points="1386.19,-455.56 1375.77,-457.5 1385.13,-462.48 1386.19,-455.56"/>
</g>
<!-- Node44&#45;&gt;Node8 -->
<g id="edge129" class="edge">
<title>Node44&#45;&gt;Node8</title>
<path fill="none" stroke="#63b8ff" d="M963.45,-450.29C815.64,-448.24 417.58,-434.86 323,-350.75 300.87,-331.07 304,-316.49 304,-286.88 304,-286.88 304,-286.88 304,-174.38 304,-127.47 345.22,-129.73 388,-110.5 448.82,-83.15 526.3,-72.5 572.93,-68.39"/>
<polygon fill="#63b8ff" stroke="#63b8ff" points="573.12,-71.81 582.8,-67.51 572.55,-64.83 573.12,-71.81"/>
</g>
<!-- Node44&#45;&gt;Node11 -->
<g id="edge127" class="edge">
<title>Node44&#45;&gt;Node11</title>
<path fill="none" stroke="#63b8ff" d="M1033.57,-441.52C1054.26,-428.74 1093.47,-404.97 1128,-386.75 1178.86,-359.91 1190.25,-349.1 1245,-331.5 1329.74,-304.27 1355.21,-315.24 1442,-295.5 1510.43,-279.94 1588.92,-257.57 1635.38,-243.85"/>
<polygon fill="#63b8ff" stroke="#63b8ff" points="1636.33,-246.93 1644.92,-240.73 1634.34,-240.22 1636.33,-246.93"/>
</g>
<!-- Node44&#45;&gt;Node15 -->
<g id="edge126" class="edge">
<title>Node44&#45;&gt;Node15</title>
<path fill="none" stroke="#63b8ff" d="M1004.77,-441.6C993.79,-433.71 979.42,-421.17 973,-406 969.67,-398.12 970.84,-395.03 973,-386.75 987.24,-332.27 992.88,-313.63 1035,-276.25 1169.85,-156.55 1395.76,-129.21 1491.7,-122.97"/>
<polygon fill="#63b8ff" stroke="#63b8ff" points="1491.7,-126.42 1501.47,-122.33 1491.28,-119.43 1491.7,-126.42"/>
</g>
<!-- Node44&#45;&gt;Node19 -->
<g id="edge125" class="edge">
<title>Node44&#45;&gt;Node19</title>
<path fill="none" stroke="#63b8ff" d="M963.63,-449.74C835.55,-445.27 534.76,-419.61 603,-276.25 680.2,-114.05 930.48,-76.41 1018.24,-68.11"/>
<polygon fill="#63b8ff" stroke="#63b8ff" points="1018.4,-71.52 1028.05,-67.16 1017.78,-64.55 1018.4,-71.52"/>
</g>
<!-- Node44&#45;&gt;Node27 -->
<g id="edge128" class="edge">
<title>Node44&#45;&gt;Node27</title>
<path fill="none" stroke="#63b8ff" d="M1019,-441.83C1019,-435.17 1019,-425.74 1019,-417.28"/>
<polygon fill="#63b8ff" stroke="#63b8ff" points="1022.5,-417.36 1019,-407.36 1015.5,-417.36 1022.5,-417.36"/>
</g>
<!-- Node44&#45;&gt;Node30 -->
<g id="edge124" class="edge">
<title>Node44&#45;&gt;Node30</title>
<path fill="none" stroke="#63b8ff" d="M1040.55,-441.56C1086.08,-422.41 1192.23,-377.78 1245.43,-355.4"/>
<polygon fill="#63b8ff" stroke="#63b8ff" points="1246.47,-358.34 1254.33,-351.24 1243.75,-351.89 1246.47,-358.34"/>
</g>
<!-- Node46&#45;&gt;Node2 -->
<g id="edge136" class="edge">
<title>Node46&#45;&gt;Node2</title>
<path fill="none" stroke="#63b8ff" d="M2218.24,-552.06C2232.9,-543.89 2254.04,-530.96 2270,-516.5 2332.12,-460.21 2345.52,-433.32 2360,-350.75 2379.49,-239.62 2344.52,-201.63 2278,-110.5 2269.84,-99.32 2258.35,-89.08 2248.25,-81.24"/>
<polygon fill="#63b8ff" stroke="#63b8ff" points="2250.61,-77.9 2240.49,-74.75 2246.45,-83.52 2250.61,-77.9"/>
</g>
<!-- Node46&#45;&gt;Node3 -->
<g id="edge137" class="edge">
<title>Node46&#45;&gt;Node3</title>
<path fill="none" stroke="#63b8ff" d="M2223.84,-552.08C2243.04,-544.01 2270.81,-531.22 2293,-516.5 2386.1,-454.73 2404.37,-431.1 2482,-350.75 2529.22,-301.88 2658.85,-137.52 2701.33,-83.35"/>
<polygon fill="#63b8ff" stroke="#63b8ff" points="2704.59,-85.87 2708,-75.84 2699.08,-81.55 2704.59,-85.87"/>
</g>
<!-- Node46&#45;&gt;Node8 -->
<g id="edge144" class="edge">
<title>Node46&#45;&gt;Node8</title>
<path fill="none" stroke="#63b8ff" d="M2162.47,-561.32C2052.83,-561.33 1730.01,-557.58 1466,-516.5 1431.57,-511.14 1424.37,-502.98 1390,-497.25 1294.33,-481.29 1037.66,-512 955,-461.25 848.12,-395.63 886.77,-317.78 807,-221 760.89,-165.05 744.87,-154.17 687,-110.5 672.16,-99.3 654.39,-88.39 640.1,-80.16"/>
<polygon fill="#63b8ff" stroke="#63b8ff" points="642.26,-76.8 631.84,-74.92 638.82,-82.89 642.26,-76.8"/>
</g>
<!-- Node46&#45;&gt;Node9 -->
<g id="edge138" class="edge">
<title>Node46&#45;&gt;Node9</title>
<path fill="none" stroke="#63b8ff" d="M2232.93,-552.06C2257.76,-544.35 2292.65,-532.06 2321,-516.5 2436.87,-452.91 2501.43,-426.36 2520,-295.5 2535,-189.78 2589.46,-136.35 2520,-55.25 2488.15,-18.07 2339.48,-11.62 2269.54,-10.67"/>
<polygon fill="#63b8ff" stroke="#63b8ff" points="2269.66,-7.16 2259.63,-10.56 2269.59,-14.16 2269.66,-7.16"/>
</g>
<!-- Node46&#45;&gt;Node11 -->
<g id="edge141" class="edge">
<title>Node46&#45;&gt;Node11</title>
<path fill="none" stroke="#63b8ff" d="M2199.38,-552.44C2192.57,-518.44 2163.02,-393.21 2087,-331.5 2032.53,-287.28 1830.38,-253.43 1731.37,-239.1"/>
<polygon fill="#63b8ff" stroke="#63b8ff" points="1732.08,-235.53 1721.68,-237.58 1731.09,-242.46 1732.08,-235.53"/>
</g>
<!-- Node46&#45;&gt;Node13 -->
<g id="edge140" class="edge">
<title>Node46&#45;&gt;Node13</title>
<path fill="none" stroke="#63b8ff" d="M2201.26,-552.24C2201.51,-543.23 2201.86,-528.9 2202,-516.5 2202.1,-507.94 2203.48,-505.68 2202,-497.25 2197.49,-471.53 2192.19,-466.04 2182,-442 2171.33,-416.84 2169.73,-409.77 2155,-386.75 2137.94,-360.07 2131.98,-354.3 2110,-331.5 2093.17,-314.04 2086.76,-312.01 2069,-295.5 2030.55,-259.74 1987.02,-216.07 1964.1,-192.81"/>
<polygon fill="#63b8ff" stroke="#63b8ff" points="1967.15,-190.9 1957.64,-186.22 1962.15,-195.8 1967.15,-190.9"/>
</g>
<!-- Node46&#45;&gt;Node21 -->
<g id="edge143" class="edge">
<title>Node46&#45;&gt;Node21</title>
<path fill="none" stroke="#63b8ff" d="M2162.42,-558.15C2044.12,-549.02 1686.65,-521.43 1557.87,-511.49"/>
<polygon fill="#63b8ff" stroke="#63b8ff" points="1558.45,-507.95 1548.21,-510.67 1557.91,-514.93 1558.45,-507.95"/>
</g>
<!-- Node46&#45;&gt;Node24 -->
<g id="edge139" class="edge">
<title>Node46&#45;&gt;Node24</title>
<path fill="none" stroke="#63b8ff" d="M2183.44,-552.14C2094.39,-506.58 1692.67,-301.04 1584.11,-245.5"/>
<polygon fill="#63b8ff" stroke="#63b8ff" points="1586.04,-242.04 1575.54,-240.6 1582.85,-248.27 1586.04,-242.04"/>
</g>
<!-- Node46&#45;&gt;Node38 -->
<g id="edge142" class="edge">
<title>Node46&#45;&gt;Node38</title>
<path fill="none" stroke="#63b8ff" d="M2211.49,-552.02C2252.25,-515.53 2394.73,-376.96 2330,-276.25 2266.07,-176.78 2202.02,-197.06 2088,-165.75 1965.12,-132.01 1815.12,-123.59 1733.98,-121.61"/>
<polygon fill="#63b8ff" stroke="#63b8ff" points="1734.07,-118.08 1723.99,-121.37 1733.91,-125.08 1734.07,-118.08"/>
</g>
<!-- Node47&#45;&gt;Node8 -->
<g id="edge151" class="edge">
<title>Node47&#45;&gt;Node8</title>
<path fill="none" stroke="#63b8ff" d="M2001.74,-339.55C1822.81,-336.73 1075.55,-323.32 1035,-295.5 960.98,-244.73 1025.76,-164.41 954,-110.5 907.57,-75.62 734.48,-67.99 654.72,-66.33"/>
<polygon fill="#63b8ff" stroke="#63b8ff" points="655.17,-62.82 645.1,-66.13 655.04,-69.82 655.17,-62.82"/>
</g>
<!-- Node47&#45;&gt;Node9 -->
<g id="edge146" class="edge">
<title>Node47&#45;&gt;Node9</title>
<path fill="none" stroke="#63b8ff" d="M2078.15,-340.85C2118.56,-339.56 2181.83,-331.32 2221,-295.5 2284.5,-237.45 2291.49,-195.47 2278,-110.5 2273.95,-84.99 2270.76,-78.73 2260,-55.25 2255.81,-46.1 2250.17,-36.49 2245.13,-28.54"/>
<polygon fill="#63b8ff" stroke="#63b8ff" points="2247.63,-26.97 2239.22,-20.52 2241.77,-30.8 2247.63,-26.97"/>
</g>
<!-- Node48 -->
<g id="node45" class="node">
<title>Node48</title>
<g id="a_node45"><a xlink:href="v8-embedder-state-scope_8h.html" target="_top" xlink:title=" ">
<polygon fill="white" stroke="#666666" points="2211.88,-295.5 2078.12,-295.5 2078.12,-276.25 2211.88,-276.25 2211.88,-295.5"/>
<text text-anchor="middle" x="2145" y="-282" font-family="Helvetica,sans-Serif" font-size="10.00">v8&#45;embedder&#45;state&#45;scope.h</text>
</a>
</g>
</g>
<!-- Node47&#45;&gt;Node48 -->
<g id="edge147" class="edge">
<title>Node47&#45;&gt;Node48</title>
<path fill="none" stroke="#63b8ff" d="M2057.81,-331.09C2074.1,-322.83 2098.46,-310.48 2117.29,-300.93"/>
<polygon fill="#63b8ff" stroke="#63b8ff" points="2118.77,-303.6 2126.1,-295.95 2115.6,-297.35 2118.77,-303.6"/>
</g>
<!-- Node48&#45;&gt;Node9 -->
<g id="edge148" class="edge">
<title>Node48&#45;&gt;Node9</title>
<path fill="none" stroke="#63b8ff" d="M2144.84,-275.82C2144.65,-243.47 2147.44,-131.48 2192,-55.25 2198.07,-44.87 2206.89,-34.86 2214.8,-26.96"/>
<polygon fill="#63b8ff" stroke="#63b8ff" points="2216.73,-30 2221.55,-20.57 2211.9,-24.94 2216.73,-30"/>
</g>
<!-- Node48&#45;&gt;Node11 -->
<g id="edge150" class="edge">
<title>Node48&#45;&gt;Node11</title>
<path fill="none" stroke="#63b8ff" d="M2077.8,-277.25C1984.75,-266.68 1818.35,-247.79 1731.78,-237.96"/>
<polygon fill="#63b8ff" stroke="#63b8ff" points="1732.2,-234.37 1721.87,-236.72 1731.41,-241.33 1732.2,-234.37"/>
</g>
<!-- Node48&#45;&gt;Node15 -->
<g id="edge149" class="edge">
<title>Node48&#45;&gt;Node15</title>
<path fill="none" stroke="#63b8ff" d="M2132.35,-275.76C2093.75,-247.97 1980.1,-166.16 1979,-165.75 1813.81,-104.37 1756.03,-155.1 1582.21,-130.58"/>
<polygon fill="#63b8ff" stroke="#63b8ff" points="1582.81,-126.99 1572.41,-128.99 1581.79,-133.91 1582.81,-126.99"/>
</g>
<!-- Node49&#45;&gt;Node2 -->
<g id="edge155" class="edge">
<title>Node49&#45;&gt;Node2</title>
<path fill="none" stroke="#63b8ff" d="M2967.49,-168.22C2896.2,-156.29 2733.42,-129.54 2596,-110.5 2473.92,-93.59 2328.67,-77.14 2262.31,-69.82"/>
<polygon fill="#63b8ff" stroke="#63b8ff" points="2262.93,-66.26 2252.61,-68.65 2262.17,-73.22 2262.93,-66.26"/>
</g>
<!-- Node49&#45;&gt;Node3 -->
<g id="edge156" class="edge">
<title>Node49&#45;&gt;Node3</title>
<path fill="none" stroke="#63b8ff" d="M2985.93,-165.35C2959.25,-152.22 2907.56,-127.58 2862,-110.5 2824.19,-96.32 2779.68,-83.31 2749.63,-75.04"/>
<polygon fill="#63b8ff" stroke="#63b8ff" points="2750.82,-71.46 2740.25,-72.21 2748.98,-78.21 2750.82,-71.46"/>
</g>
<!-- Node49&#45;&gt;Node6 -->
<g id="edge159" class="edge">
<title>Node49&#45;&gt;Node6</title>
<path fill="none" stroke="#63b8ff" d="M3040.47,-171.23C3068.79,-166.76 3106.71,-155.93 3128,-129.75 3137.95,-117.52 3139.67,-99.43 3139.22,-85.62"/>
<polygon fill="#63b8ff" stroke="#63b8ff" points="3142.65,-85.54 3138.4,-75.84 3135.67,-86.07 3142.65,-85.54"/>
</g>
<!-- Node49&#45;&gt;Node8 -->
<g id="edge164" class="edge">
<title>Node49&#45;&gt;Node8</title>
<path fill="none" stroke="#63b8ff" d="M2967.48,-173.65C2755.02,-169.35 1685.2,-146.95 1618,-129.75 1599.66,-125.06 1598.31,-115.32 1580,-110.5 1489.74,-86.73 827.36,-70.58 654.94,-66.75"/>
<polygon fill="#63b8ff" stroke="#63b8ff" points="655.15,-63.23 645.07,-66.51 654.99,-70.23 655.15,-63.23"/>
</g>
<!-- Node49&#45;&gt;Node9 -->
<g id="edge158" class="edge">
<title>Node49&#45;&gt;Node9</title>
<path fill="none" stroke="#63b8ff" d="M3040.6,-171.8C3072.31,-167.7 3117.45,-157.1 3146,-129.75 3170.76,-106.03 3189.66,-80.06 3166,-55.25 3134.53,-22.24 2437.87,-12.79 2269.42,-10.98"/>
<polygon fill="#63b8ff" stroke="#63b8ff" points="2269.48,-7.47 2259.44,-10.86 2269.41,-14.47 2269.48,-7.47"/>
</g>
<!-- Node50 -->
<g id="node47" class="node">
<title>Node50</title>
<g id="a_node47"><a xlink:title=" ">
<polygon fill="#e0e0e0" stroke="#999999" points="3118.62,-129.75 3073.38,-129.75 3073.38,-110.5 3118.62,-110.5 3118.62,-129.75"/>
<text text-anchor="middle" x="3096" y="-116.25" font-family="Helvetica,sans-Serif" font-size="10.00">math.h</text>
</a>
</g>
</g>
<!-- Node49&#45;&gt;Node50 -->
<g id="edge154" class="edge">
<title>Node49&#45;&gt;Node50</title>
<path fill="none" stroke="#63b8ff" d="M3019.61,-165.34C3033.62,-157.23 3054.43,-145.18 3070.8,-135.71"/>
<polygon fill="#63b8ff" stroke="#63b8ff" points="3072.42,-138.24 3079.32,-130.2 3068.91,-132.18 3072.42,-138.24"/>
</g>
<!-- Node51 -->
<g id="node48" class="node">
<title>Node51</title>
<g id="a_node48"><a xlink:title=" ">
<polygon fill="#e0e0e0" stroke="#999999" points="3259.38,-129.75 3212.62,-129.75 3212.62,-110.5 3259.38,-110.5 3259.38,-129.75"/>
<text text-anchor="middle" x="3236" y="-116.25" font-family="Helvetica,sans-Serif" font-size="10.00">stdlib.h</text>
</a>
</g>
</g>
<!-- Node49&#45;&gt;Node51 -->
<g id="edge157" class="edge">
<title>Node49&#45;&gt;Node51</title>
<path fill="none" stroke="#63b8ff" d="M3040.31,-166.11C3079.48,-157.19 3143.67,-142.53 3199,-129.75 3199.96,-129.53 3200.93,-129.3 3201.9,-129.08"/>
<polygon fill="#63b8ff" stroke="#63b8ff" points="3202.57,-132.29 3211.52,-126.61 3200.98,-125.47 3202.57,-132.29"/>
</g>
<!-- Node52 -->
<g id="node49" class="node">
<title>Node52</title>
<g id="a_node49"><a xlink:href="v8-source-location_8h.html" target="_top" xlink:title=" ">
<polygon fill="white" stroke="#666666" points="3055.5,-129.75 2952.5,-129.75 2952.5,-110.5 3055.5,-110.5 3055.5,-129.75"/>
<text text-anchor="middle" x="3004" y="-116.25" font-family="Helvetica,sans-Serif" font-size="10.00">v8&#45;source&#45;location.h</text>
</a>
</g>
</g>
<!-- Node49&#45;&gt;Node52 -->
<g id="edge160" class="edge">
<title>Node49&#45;&gt;Node52</title>
<path fill="none" stroke="#63b8ff" d="M3004,-165.58C3004,-158.92 3004,-149.49 3004,-141.03"/>
<polygon fill="#63b8ff" stroke="#63b8ff" points="3007.5,-141.11 3004,-131.11 3000.5,-141.11 3007.5,-141.11"/>
</g>
<!-- Node52&#45;&gt;Node6 -->
<g id="edge162" class="edge">
<title>Node52&#45;&gt;Node6</title>
<path fill="none" stroke="#63b8ff" d="M3026.56,-110.09C3048.51,-101.3 3082.02,-87.89 3106.37,-78.14"/>
<polygon fill="#63b8ff" stroke="#63b8ff" points="3107.53,-81.04 3115.51,-74.08 3104.93,-74.54 3107.53,-81.04"/>
</g>
<!-- Node52&#45;&gt;Node8 -->
<g id="edge163" class="edge">
<title>Node52&#45;&gt;Node8</title>
<path fill="none" stroke="#63b8ff" d="M2952.14,-117.97C2633.04,-110.86 940.27,-73.14 654.87,-66.79"/>
<polygon fill="#63b8ff" stroke="#63b8ff" points="655.27,-63.27 645.19,-66.55 655.11,-70.27 655.27,-63.27"/>
</g>
<!-- Node53 -->
<g id="node50" class="node">
<title>Node53</title>
<g id="a_node50"><a xlink:title=" ">
<polygon fill="#e0e0e0" stroke="#999999" points="3028.12,-74.5 2979.88,-74.5 2979.88,-55.25 3028.12,-55.25 3028.12,-74.5"/>
<text text-anchor="middle" x="3004" y="-61" font-family="Helvetica,sans-Serif" font-size="10.00">cstddef</text>
</a>
</g>
</g>
<!-- Node52&#45;&gt;Node53 -->
<g id="edge161" class="edge">
<title>Node52&#45;&gt;Node53</title>
<path fill="none" stroke="#63b8ff" d="M3004,-110.33C3004,-103.67 3004,-94.24 3004,-85.78"/>
<polygon fill="#63b8ff" stroke="#63b8ff" points="3007.5,-85.86 3004,-75.86 3000.5,-85.86 3007.5,-85.86"/>
</g>
</g>
</svg>
