<?xml version="1.0" encoding="UTF-8" standalone="no"?>
<!DOCTYPE svg PUBLIC "-//W3C//DTD SVG 1.1//EN"
 "http://www.w3.org/Graphics/SVG/1.1/DTD/svg11.dtd">
<!-- Generated by graphviz version 8.0.5 (20230430.1635)
 -->
<!-- Title: include/v8&#45;maybe.h Pages: 1 -->
<svg width="1881pt" height="724pt"
 viewBox="0.00 0.00 1881.25 724.00" xmlns="http://www.w3.org/2000/svg" xmlns:xlink="http://www.w3.org/1999/xlink">
<g id="graph0" class="graph" transform="scale(1 1) rotate(0) translate(4 720)">
<title>include/v8&#45;maybe.h</title>
<!-- Node1 -->
<g id="node1" class="node">
<title>Node1</title>
<g id="a_node1"><a xlink:title=" ">
<polygon fill="#999999" stroke="#666666" points="666.62,-716 567.38,-716 567.38,-696.75 666.62,-696.75 666.62,-716"/>
<text text-anchor="middle" x="617" y="-702.5" font-family="Helvetica,sans-Serif" font-size="10.00">include/v8&#45;maybe.h</text>
</a>
</g>
</g>
<!-- Node2 -->
<g id="node2" class="node">
<title>Node2</title>
<g id="a_node2"><a xlink:href="v8-context_8h.html" target="_top" xlink:title=" ">
<polygon fill="white" stroke="#666666" points="640.12,-135.38 537.88,-135.38 537.88,-116.12 640.12,-116.12 640.12,-135.38"/>
<text text-anchor="middle" x="589" y="-121.88" font-family="Helvetica,sans-Serif" font-size="10.00">include/v8&#45;context.h</text>
</a>
</g>
</g>
<!-- Node1&#45;&gt;Node2 -->
<g id="edge1" class="edge">
<title>Node1&#45;&gt;Node2</title>
<path fill="none" stroke="#63b8ff" d="M556.57,-695.38C503.27,-682.71 434,-655.05 434,-596.88 434,-596.88 434,-596.88 434,-252.12 434,-188.44 514.07,-151.53 559.11,-135.81"/>
<polygon fill="#63b8ff" stroke="#63b8ff" points="555.47,-698.95 565.99,-697.72 557,-692.12 555.47,-698.95"/>
</g>
<!-- Node4 -->
<g id="node4" class="node">
<title>Node4</title>
<g id="a_node4"><a xlink:href="v8_8h.html" target="_top" xlink:title=" ">
<polygon fill="white" stroke="#666666" points="869.88,-19.25 802.12,-19.25 802.12,0 869.88,0 869.88,-19.25"/>
<text text-anchor="middle" x="836" y="-5.75" font-family="Helvetica,sans-Serif" font-size="10.00">include/v8.h</text>
</a>
</g>
</g>
<!-- Node1&#45;&gt;Node4 -->
<g id="edge79" class="edge">
<title>Node1&#45;&gt;Node4</title>
<path fill="none" stroke="#63b8ff" d="M556.45,-705.23C467.08,-703.74 295.21,-696 154,-660.75 82.11,-642.8 0,-670.97 0,-596.88 0,-596.88 0,-596.88 0,-124.75 0,-72.08 46.4,-72.99 96,-55.25 228.55,-7.85 674.89,-8.87 801.98,-10.17"/>
<polygon fill="#63b8ff" stroke="#63b8ff" points="556.14,-708.74 566.19,-705.38 556.24,-701.74 556.14,-708.74"/>
</g>
<!-- Node5 -->
<g id="node5" class="node">
<title>Node5</title>
<g id="a_node5"><a xlink:href="v8-message_8h.html" target="_top" xlink:title=" ">
<polygon fill="white" stroke="#666666" points="1306.25,-483.75 1195.75,-483.75 1195.75,-464.5 1306.25,-464.5 1306.25,-483.75"/>
<text text-anchor="middle" x="1251" y="-470.25" font-family="Helvetica,sans-Serif" font-size="10.00">include/v8&#45;message.h</text>
</a>
</g>
</g>
<!-- Node1&#45;&gt;Node5 -->
<g id="edge5" class="edge">
<title>Node1&#45;&gt;Node5</title>
<path fill="none" stroke="#63b8ff" d="M672.12,-694C708.29,-686 756.41,-674.32 798,-660.75 970.51,-604.48 1170.35,-512.96 1231.95,-484.12"/>
<polygon fill="#63b8ff" stroke="#63b8ff" points="671.8,-690.71 662.77,-696.26 673.29,-697.54 671.8,-690.71"/>
</g>
<!-- Node8 -->
<g id="node8" class="node">
<title>Node8</title>
<g id="a_node8"><a xlink:href="v8-script_8h.html" target="_top" xlink:title=" ">
<polygon fill="white" stroke="#666666" points="1345.38,-373.25 1250.62,-373.25 1250.62,-354 1345.38,-354 1345.38,-373.25"/>
<text text-anchor="middle" x="1298" y="-359.75" font-family="Helvetica,sans-Serif" font-size="10.00">include/v8&#45;script.h</text>
</a>
</g>
</g>
<!-- Node1&#45;&gt;Node8 -->
<g id="edge58" class="edge">
<title>Node1&#45;&gt;Node8</title>
<path fill="none" stroke="#63b8ff" d="M643.47,-691.27C725.26,-647.8 981.48,-512.65 1198,-409.25 1224.93,-396.39 1256.44,-382.52 1276.79,-373.71"/>
<polygon fill="#63b8ff" stroke="#63b8ff" points="642.14,-688.54 634.95,-696.33 645.42,-694.72 642.14,-688.54"/>
</g>
<!-- Node15 -->
<g id="node15" class="node">
<title>Node15</title>
<g id="a_node15"><a xlink:href="v8-object_8h.html" target="_top" xlink:title=" ">
<polygon fill="white" stroke="#666666" points="665.5,-544.62 568.5,-544.62 568.5,-525.38 665.5,-525.38 665.5,-544.62"/>
<text text-anchor="middle" x="617" y="-531.12" font-family="Helvetica,sans-Serif" font-size="10.00">include/v8&#45;object.h</text>
</a>
</g>
</g>
<!-- Node1&#45;&gt;Node15 -->
<g id="edge23" class="edge">
<title>Node1&#45;&gt;Node15</title>
<path fill="none" stroke="#63b8ff" d="M617,-685.44C617,-648.5 617,-570.81 617,-544.74"/>
<polygon fill="#63b8ff" stroke="#63b8ff" points="613.5,-685.27 617,-695.27 620.5,-685.27 613.5,-685.27"/>
</g>
<!-- Node29 -->
<g id="node29" class="node">
<title>Node29</title>
<g id="a_node29"><a xlink:href="v8-value-serializer_8h.html" target="_top" xlink:title=" ">
<polygon fill="white" stroke="#666666" points="163.62,-373.25 28.38,-373.25 28.38,-354 163.62,-354 163.62,-373.25"/>
<text text-anchor="middle" x="96" y="-359.75" font-family="Helvetica,sans-Serif" font-size="10.00">include/v8&#45;value&#45;serializer.h</text>
</a>
</g>
</g>
<!-- Node1&#45;&gt;Node29 -->
<g id="edge59" class="edge">
<title>Node1&#45;&gt;Node29</title>
<path fill="none" stroke="#63b8ff" d="M556.44,-704.62C424.94,-701.35 125,-684.29 125,-596.88 125,-596.88 125,-596.88 125,-473.12 125,-435.1 108.17,-392.05 100.15,-373.69"/>
<polygon fill="#63b8ff" stroke="#63b8ff" points="556.04,-708.14 566.12,-704.87 556.2,-701.14 556.04,-708.14"/>
</g>
<!-- Node30 -->
<g id="node30" class="node">
<title>Node30</title>
<g id="a_node30"><a xlink:href="v8-value_8h.html" target="_top" xlink:title=" ">
<polygon fill="white" stroke="#666666" points="1171,-660.75 1077,-660.75 1077,-641.5 1171,-641.5 1171,-660.75"/>
<text text-anchor="middle" x="1124" y="-647.25" font-family="Helvetica,sans-Serif" font-size="10.00">include/v8&#45;value.h</text>
</a>
</g>
</g>
<!-- Node1&#45;&gt;Node30 -->
<g id="edge61" class="edge">
<title>Node1&#45;&gt;Node30</title>
<path fill="none" stroke="#63b8ff" d="M677.76,-698.99C779.96,-688.26 984.16,-666.81 1076.59,-657.1"/>
<polygon fill="#63b8ff" stroke="#63b8ff" points="677.58,-695.6 668,-700.12 678.31,-702.56 677.58,-695.6"/>
</g>
<!-- Node3 -->
<g id="node3" class="node">
<title>Node3</title>
<g id="a_node3"><a xlink:href="v8-proxy_8h.html" target="_top" xlink:title=" ">
<polygon fill="white" stroke="#666666" points="601.62,-74.5 508.38,-74.5 508.38,-55.25 601.62,-55.25 601.62,-74.5"/>
<text text-anchor="middle" x="555" y="-61" font-family="Helvetica,sans-Serif" font-size="10.00">include/v8&#45;proxy.h</text>
</a>
</g>
</g>
<!-- Node2&#45;&gt;Node3 -->
<g id="edge2" class="edge">
<title>Node2&#45;&gt;Node3</title>
<path fill="none" stroke="#63b8ff" d="M578.35,-106.31C572.31,-95.85 565.02,-83.23 560.21,-74.9"/>
<polygon fill="#63b8ff" stroke="#63b8ff" points="575.8,-107.9 583.84,-114.81 581.87,-104.4 575.8,-107.9"/>
</g>
<!-- Node2&#45;&gt;Node4 -->
<g id="edge4" class="edge">
<title>Node2&#45;&gt;Node4</title>
<path fill="none" stroke="#63b8ff" d="M600.9,-107.09C612.56,-91.14 631.8,-68.24 654,-55.25 700.75,-27.88 763.67,-17.24 801.96,-13.14"/>
<polygon fill="#63b8ff" stroke="#63b8ff" points="597.54,-104.77 594.65,-114.97 603.26,-108.8 597.54,-104.77"/>
</g>
<!-- Node3&#45;&gt;Node4 -->
<g id="edge3" class="edge">
<title>Node3&#45;&gt;Node4</title>
<path fill="none" stroke="#63b8ff" d="M612.66,-52.95C669.56,-42.17 754.65,-26.04 801.67,-17.13"/>
<polygon fill="#63b8ff" stroke="#63b8ff" points="612.21,-49.66 603.03,-54.96 613.51,-56.54 612.21,-49.66"/>
</g>
<!-- Node5&#45;&gt;Node4 -->
<g id="edge22" class="edge">
<title>Node5&#45;&gt;Node4</title>
<path fill="none" stroke="#63b8ff" d="M1284.88,-459.64C1300.36,-452.21 1318.08,-441.78 1331,-428.5 1391.95,-365.83 1422,-341.54 1422,-254.12 1422,-254.12 1422,-254.12 1422,-124.75 1422,-11.52 995.11,-8.44 870.04,-9.96"/>
<polygon fill="#63b8ff" stroke="#63b8ff" points="1283.75,-456.76 1276.1,-464.09 1286.65,-463.14 1283.75,-456.76"/>
</g>
<!-- Node6 -->
<g id="node6" class="node">
<title>Node6</title>
<g id="a_node6"><a xlink:href="v8-function_8h.html" target="_top" xlink:title=" ">
<polygon fill="white" stroke="#666666" points="1506.62,-428.5 1401.38,-428.5 1401.38,-409.25 1506.62,-409.25 1506.62,-428.5"/>
<text text-anchor="middle" x="1454" y="-415" font-family="Helvetica,sans-Serif" font-size="10.00">include/v8&#45;function.h</text>
</a>
</g>
</g>
<!-- Node5&#45;&gt;Node6 -->
<g id="edge6" class="edge">
<title>Node5&#45;&gt;Node6</title>
<path fill="none" stroke="#63b8ff" d="M1296,-461.32C1333.23,-451.55 1385.36,-437.88 1419.39,-428.95"/>
<polygon fill="#63b8ff" stroke="#63b8ff" points="1295.22,-458.17 1286.44,-464.09 1297,-464.94 1295.22,-458.17"/>
</g>
<!-- Node7 -->
<g id="node7" class="node">
<title>Node7</title>
<g id="a_node7"><a xlink:href="v8-profiler_8h.html" target="_top" xlink:title=" ">
<polygon fill="white" stroke="#666666" points="1306.62,-428.5 1207.38,-428.5 1207.38,-409.25 1306.62,-409.25 1306.62,-428.5"/>
<text text-anchor="middle" x="1257" y="-415" font-family="Helvetica,sans-Serif" font-size="10.00">include/v8&#45;profiler.h</text>
</a>
</g>
</g>
<!-- Node5&#45;&gt;Node7 -->
<g id="edge8" class="edge">
<title>Node5&#45;&gt;Node7</title>
<path fill="none" stroke="#63b8ff" d="M1253.22,-453.46C1254.17,-445.02 1255.23,-435.58 1255.99,-428.86"/>
<polygon fill="#63b8ff" stroke="#63b8ff" points="1249.63,-453 1251.99,-463.33 1256.59,-453.79 1249.63,-453"/>
</g>
<!-- Node5&#45;&gt;Node8 -->
<g id="edge9" class="edge">
<title>Node5&#45;&gt;Node8</title>
<path fill="none" stroke="#63b8ff" d="M1283.48,-459.13C1296.01,-451.93 1308.99,-441.82 1316,-428.5 1325.55,-410.35 1313.12,-386.56 1304.66,-373.75"/>
<polygon fill="#63b8ff" stroke="#63b8ff" points="1282.31,-456.32 1275.09,-464.08 1285.57,-462.51 1282.31,-456.32"/>
</g>
<!-- Node6&#45;&gt;Node4 -->
<g id="edge7" class="edge">
<title>Node6&#45;&gt;Node4</title>
<path fill="none" stroke="#63b8ff" d="M1455.75,-398.14C1457.52,-376.41 1460,-340.43 1460,-309.38 1460,-309.38 1460,-309.38 1460,-124.75 1460,-92.07 1461.89,-75.19 1436,-55.25 1391.05,-20.63 990.29,-12.63 869.99,-11"/>
<polygon fill="#63b8ff" stroke="#63b8ff" points="1452.19,-397.62 1454.83,-407.88 1459.17,-398.21 1452.19,-397.62"/>
</g>
<!-- Node8&#45;&gt;Node4 -->
<g id="edge21" class="edge">
<title>Node8&#45;&gt;Node4</title>
<path fill="none" stroke="#63b8ff" d="M1322.8,-347.68C1334.07,-339.93 1346.89,-329.65 1356,-318 1375.1,-293.59 1384,-285.12 1384,-254.12 1384,-254.12 1384,-254.12 1384,-124.75 1384,-19.31 990.25,-10.62 870.28,-10.42"/>
<polygon fill="#63b8ff" stroke="#63b8ff" points="1321.26,-345.16 1314.81,-353.57 1325.1,-351.01 1321.26,-345.16"/>
</g>
<!-- Node9 -->
<g id="node9" class="node">
<title>Node9</title>
<g id="a_node9"><a xlink:href="v8-debug_8h.html" target="_top" xlink:title=" ">
<polygon fill="white" stroke="#666666" points="1346.5,-318 1249.5,-318 1249.5,-298.75 1346.5,-298.75 1346.5,-318"/>
<text text-anchor="middle" x="1298" y="-304.5" font-family="Helvetica,sans-Serif" font-size="10.00">include/v8&#45;debug.h</text>
</a>
</g>
</g>
<!-- Node8&#45;&gt;Node9 -->
<g id="edge10" class="edge">
<title>Node8&#45;&gt;Node9</title>
<path fill="none" stroke="#63b8ff" d="M1298,-342.96C1298,-334.52 1298,-325.08 1298,-318.36"/>
<polygon fill="#63b8ff" stroke="#63b8ff" points="1294.5,-342.83 1298,-352.83 1301.5,-342.83 1294.5,-342.83"/>
</g>
<!-- Node9&#45;&gt;Node4 -->
<g id="edge20" class="edge">
<title>Node9&#45;&gt;Node4</title>
<path fill="none" stroke="#63b8ff" d="M1310.81,-289.46C1325.03,-267.77 1346,-229.62 1346,-193.25 1346,-193.25 1346,-193.25 1346,-124.75 1346,-26.99 984.6,-12.95 870.25,-10.95"/>
<polygon fill="#63b8ff" stroke="#63b8ff" points="1307.42,-287.22 1304.67,-297.45 1313.2,-291.16 1307.42,-287.22"/>
</g>
<!-- Node10 -->
<g id="node10" class="node">
<title>Node10</title>
<g id="a_node10"><a xlink:href="v8-isolate_8h.html" target="_top" xlink:title=" ">
<polygon fill="white" stroke="#666666" points="1105.62,-262.75 1006.38,-262.75 1006.38,-243.5 1105.62,-243.5 1105.62,-262.75"/>
<text text-anchor="middle" x="1056" y="-249.25" font-family="Helvetica,sans-Serif" font-size="10.00">include/v8&#45;isolate.h</text>
</a>
</g>
</g>
<!-- Node9&#45;&gt;Node10 -->
<g id="edge11" class="edge">
<title>Node9&#45;&gt;Node10</title>
<path fill="none" stroke="#63b8ff" d="M1246.07,-295.95C1201.54,-286.15 1138.25,-272.22 1097.16,-263.18"/>
<polygon fill="#63b8ff" stroke="#63b8ff" points="1245.16,-299.55 1255.67,-298.28 1246.66,-292.71 1245.16,-299.55"/>
</g>
<!-- Node10&#45;&gt;Node4 -->
<g id="edge19" class="edge">
<title>Node10&#45;&gt;Node4</title>
<path fill="none" stroke="#63b8ff" d="M1049.12,-233.26C1042.95,-217.52 1033.02,-194.87 1021,-177 979.8,-115.74 965,-102.17 908,-55.25 890.74,-41.04 868.6,-27.97 853.45,-19.7"/>
<polygon fill="#63b8ff" stroke="#63b8ff" points="1046.12,-234.21 1052.93,-242.33 1052.67,-231.74 1046.12,-234.21"/>
</g>
<!-- Node11 -->
<g id="node11" class="node">
<title>Node11</title>
<g id="a_node11"><a xlink:href="v8-initialization_8h.html" target="_top" xlink:title=" ">
<polygon fill="white" stroke="#666666" points="1317.5,-201.88 1196.5,-201.88 1196.5,-182.62 1317.5,-182.62 1317.5,-201.88"/>
<text text-anchor="middle" x="1257" y="-188.38" font-family="Helvetica,sans-Serif" font-size="10.00">include/v8&#45;initialization.h</text>
</a>
</g>
</g>
<!-- Node10&#45;&gt;Node11 -->
<g id="edge12" class="edge">
<title>Node10&#45;&gt;Node11</title>
<path fill="none" stroke="#63b8ff" d="M1097.24,-240.05C1135.46,-228.85 1191.46,-212.45 1226,-202.33"/>
<polygon fill="#63b8ff" stroke="#63b8ff" points="1096.58,-236.88 1087.97,-243.05 1098.55,-243.6 1096.58,-236.88"/>
</g>
<!-- Node12 -->
<g id="node12" class="node">
<title>Node12</title>
<g id="a_node12"><a xlink:href="v8-inspector_8h.html" target="_top" xlink:title=" ">
<polygon fill="white" stroke="#666666" points="1178.25,-201.88 1067.75,-201.88 1067.75,-182.62 1178.25,-182.62 1178.25,-201.88"/>
<text text-anchor="middle" x="1123" y="-188.38" font-family="Helvetica,sans-Serif" font-size="10.00">include/v8&#45;inspector.h</text>
</a>
</g>
</g>
<!-- Node10&#45;&gt;Node12 -->
<g id="edge14" class="edge">
<title>Node10&#45;&gt;Node12</title>
<path fill="none" stroke="#63b8ff" d="M1074.42,-235.94C1086.77,-225.09 1102.56,-211.21 1112.73,-202.28"/>
<polygon fill="#63b8ff" stroke="#63b8ff" points="1072.38,-233.95 1067.18,-243.18 1077,-239.21 1072.38,-233.95"/>
</g>
<!-- Node14 -->
<g id="node14" class="node">
<title>Node14</title>
<g id="a_node14"><a xlink:href="v8-snapshot_8h.html" target="_top" xlink:title=" ">
<polygon fill="white" stroke="#666666" points="1012.25,-201.88 901.75,-201.88 901.75,-182.62 1012.25,-182.62 1012.25,-201.88"/>
<text text-anchor="middle" x="957" y="-188.38" font-family="Helvetica,sans-Serif" font-size="10.00">include/v8&#45;snapshot.h</text>
</a>
</g>
</g>
<!-- Node10&#45;&gt;Node14 -->
<g id="edge16" class="edge">
<title>Node10&#45;&gt;Node14</title>
<path fill="none" stroke="#63b8ff" d="M1031.65,-237.65C1013.05,-226.59 988.01,-211.69 972.18,-202.28"/>
<polygon fill="#63b8ff" stroke="#63b8ff" points="1029.58,-241.08 1039.96,-243.18 1033.16,-235.06 1029.58,-241.08"/>
</g>
<!-- Node11&#45;&gt;Node4 -->
<g id="edge13" class="edge">
<title>Node11&#45;&gt;Node4</title>
<path fill="none" stroke="#63b8ff" d="M1244.58,-173.49C1231.31,-155.59 1208.81,-128.17 1184,-110.5 1084.8,-39.86 936.42,-18.94 870.13,-12.94"/>
<polygon fill="#63b8ff" stroke="#63b8ff" points="1242.27,-175.26 1250.96,-181.33 1247.95,-171.17 1242.27,-175.26"/>
</g>
<!-- Node13 -->
<g id="node13" class="node">
<title>Node13</title>
<g id="a_node13"><a xlink:href="v8-inspector-protocol_8h.html" target="_top" xlink:title=" ">
<polygon fill="white" stroke="#666666" points="1174.5,-141 1071.5,-141 1071.5,-110.5 1174.5,-110.5 1174.5,-141"/>
<text text-anchor="start" x="1079.5" y="-127.5" font-family="Helvetica,sans-Serif" font-size="10.00">include/v8&#45;inspector</text>
<text text-anchor="middle" x="1123" y="-116.25" font-family="Helvetica,sans-Serif" font-size="10.00">&#45;protocol.h</text>
</a>
</g>
</g>
<!-- Node12&#45;&gt;Node13 -->
<g id="edge15" class="edge">
<title>Node12&#45;&gt;Node13</title>
<path fill="none" stroke="#63b8ff" d="M1123,-171.52C1123,-161.7 1123,-150.05 1123,-141.09"/>
<polygon fill="#63b8ff" stroke="#63b8ff" points="1119.5,-171.28 1123,-181.28 1126.5,-171.28 1119.5,-171.28"/>
</g>
<!-- Node14&#45;&gt;Node2 -->
<g id="edge17" class="edge">
<title>Node14&#45;&gt;Node2</title>
<path fill="none" stroke="#63b8ff" d="M894.39,-180.28C822.79,-167.73 706.91,-147.42 640.38,-135.76"/>
<polygon fill="#63b8ff" stroke="#63b8ff" points="893.6,-183.87 904.06,-182.15 894.81,-176.97 893.6,-183.87"/>
</g>
<!-- Node14&#45;&gt;Node4 -->
<g id="edge18" class="edge">
<title>Node14&#45;&gt;Node4</title>
<path fill="none" stroke="#63b8ff" d="M950.04,-172.03C939.43,-144.38 917.33,-92.61 888,-55.25 876.83,-41.03 860.6,-27.96 849.24,-19.69"/>
<polygon fill="#63b8ff" stroke="#63b8ff" points="947.09,-173.15 953.87,-181.29 953.65,-170.7 947.09,-173.15"/>
</g>
<!-- Node15&#45;&gt;Node3 -->
<g id="edge49" class="edge">
<title>Node15&#45;&gt;Node3</title>
<path fill="none" stroke="#63b8ff" d="M589.1,-519.77C557.39,-501.38 510,-466.15 510,-419.88 510,-419.88 510,-419.88 510,-191.25 510,-154.38 515.35,-144.75 529,-110.5 534.25,-97.34 542.92,-83.43 548.79,-74.7"/>
<polygon fill="#63b8ff" stroke="#63b8ff" points="586.92,-523.12 597.36,-524.93 590.33,-517.01 586.92,-523.12"/>
</g>
<!-- Node15&#45;&gt;Node4 -->
<g id="edge57" class="edge">
<title>Node15&#45;&gt;Node4</title>
<path fill="none" stroke="#63b8ff" d="M557.61,-528.89C449.13,-517.89 230,-487.34 230,-419.88 230,-419.88 230,-419.88 230,-307.38 230,-188.24 225.38,-126.31 321,-55.25 359.49,-26.64 692.74,-14.7 801.69,-11.53"/>
<polygon fill="#63b8ff" stroke="#63b8ff" points="557.08,-532.45 567.38,-529.95 557.77,-525.48 557.08,-532.45"/>
</g>
<!-- Node15&#45;&gt;Node6 -->
<g id="edge37" class="edge">
<title>Node15&#45;&gt;Node6</title>
<path fill="none" stroke="#63b8ff" d="M676.45,-532.45C822.34,-528.2 1194.86,-514.59 1315,-483.75 1362.85,-471.47 1414.54,-443.31 1439.24,-428.84"/>
<polygon fill="#63b8ff" stroke="#63b8ff" points="676.42,-528.98 666.52,-532.76 676.62,-535.97 676.42,-528.98"/>
</g>
<!-- Node16 -->
<g id="node16" class="node">
<title>Node16</title>
<g id="a_node16"><a xlink:href="v8-array-buffer_8h.html" target="_top" xlink:title=" ">
<polygon fill="white" stroke="#666666" points="694.38,-318 575.62,-318 575.62,-298.75 694.38,-298.75 694.38,-318"/>
<text text-anchor="middle" x="635" y="-304.5" font-family="Helvetica,sans-Serif" font-size="10.00">include/v8&#45;array&#45;buffer.h</text>
</a>
</g>
</g>
<!-- Node15&#45;&gt;Node16 -->
<g id="edge24" class="edge">
<title>Node15&#45;&gt;Node16</title>
<path fill="none" stroke="#63b8ff" d="M623.9,-515.07C635,-482.33 654.79,-413 647,-354 645.34,-341.43 641.16,-327.38 638.2,-318.46"/>
<polygon fill="#63b8ff" stroke="#63b8ff" points="620.41,-513.45 620.4,-524.04 627.02,-515.77 620.41,-513.45"/>
</g>
<!-- Node19 -->
<g id="node19" class="node">
<title>Node19</title>
<g id="a_node19"><a xlink:href="v8-container_8h.html" target="_top" xlink:title=" ">
<polygon fill="white" stroke="#666666" points="368.25,-262.75 257.75,-262.75 257.75,-243.5 368.25,-243.5 368.25,-262.75"/>
<text text-anchor="middle" x="313" y="-249.25" font-family="Helvetica,sans-Serif" font-size="10.00">include/v8&#45;container.h</text>
</a>
</g>
</g>
<!-- Node15&#45;&gt;Node19 -->
<g id="edge30" class="edge">
<title>Node15&#45;&gt;Node19</title>
<path fill="none" stroke="#63b8ff" d="M557.51,-525.81C462.72,-511.08 288,-476.27 288,-419.88 288,-419.88 288,-419.88 288,-362.62 288,-324.93 302.51,-281.71 309.42,-263.25"/>
<polygon fill="#63b8ff" stroke="#63b8ff" points="556.69,-529.38 567.1,-527.43 557.74,-522.46 556.69,-529.38"/>
</g>
<!-- Node20 -->
<g id="node20" class="node">
<title>Node20</title>
<g id="a_node20"><a xlink:href="v8-date_8h.html" target="_top" xlink:title=" ">
<polygon fill="white" stroke="#666666" points="405.75,-428.5 316.25,-428.5 316.25,-409.25 405.75,-409.25 405.75,-428.5"/>
<text text-anchor="middle" x="361" y="-415" font-family="Helvetica,sans-Serif" font-size="10.00">include/v8&#45;date.h</text>
</a>
</g>
</g>
<!-- Node15&#45;&gt;Node20 -->
<g id="edge32" class="edge">
<title>Node15&#45;&gt;Node20</title>
<path fill="none" stroke="#63b8ff" d="M567.5,-522.15C535.43,-513.56 493.23,-500.52 458,-483.75 424.86,-467.98 389.82,-442.35 372.32,-428.85"/>
<polygon fill="#63b8ff" stroke="#63b8ff" points="566.4,-525.74 576.96,-524.89 568.18,-518.97 566.4,-525.74"/>
</g>
<!-- Node21 -->
<g id="node21" class="node">
<title>Node21</title>
<g id="a_node21"><a xlink:href="v8-exception_8h.html" target="_top" xlink:title=" ">
<polygon fill="white" stroke="#666666" points="862,-318 750,-318 750,-298.75 862,-298.75 862,-318"/>
<text text-anchor="middle" x="806" y="-304.5" font-family="Helvetica,sans-Serif" font-size="10.00">include/v8&#45;exception.h</text>
</a>
</g>
</g>
<!-- Node15&#45;&gt;Node21 -->
<g id="edge34" class="edge">
<title>Node15&#45;&gt;Node21</title>
<path fill="none" stroke="#63b8ff" d="M631.53,-516.73C669.39,-471.74 770.1,-352.04 798.47,-318.33"/>
<polygon fill="#63b8ff" stroke="#63b8ff" points="628.4,-514.01 624.64,-523.92 633.76,-518.52 628.4,-514.01"/>
</g>
<!-- Node22 -->
<g id="node22" class="node">
<title>Node22</title>
<g id="a_node22"><a xlink:href="v8-primitive-object_8h.html" target="_top" xlink:title=" ">
<polygon fill="white" stroke="#666666" points="482,-141 382,-141 382,-110.5 482,-110.5 482,-141"/>
<text text-anchor="start" x="390" y="-127.5" font-family="Helvetica,sans-Serif" font-size="10.00">include/v8&#45;primitive</text>
<text text-anchor="middle" x="432" y="-116.25" font-family="Helvetica,sans-Serif" font-size="10.00">&#45;object.h</text>
</a>
</g>
</g>
<!-- Node15&#45;&gt;Node22 -->
<g id="edge38" class="edge">
<title>Node15&#45;&gt;Node22</title>
<path fill="none" stroke="#63b8ff" d="M562.47,-521.73C539.41,-514.13 513.82,-502.19 496,-483.75 474.93,-461.94 472,-450.2 472,-419.88 472,-419.88 472,-419.88 472,-252.12 472,-210.31 451.56,-164.21 439.9,-141.32"/>
<polygon fill="#63b8ff" stroke="#63b8ff" points="561.26,-525.33 571.85,-524.92 563.32,-518.63 561.26,-525.33"/>
</g>
<!-- Node23 -->
<g id="node23" class="node">
<title>Node23</title>
<g id="a_node23"><a xlink:href="v8-promise_8h.html" target="_top" xlink:title=" ">
<polygon fill="white" stroke="#666666" points="931.62,-483.75 826.38,-483.75 826.38,-464.5 931.62,-464.5 931.62,-483.75"/>
<text text-anchor="middle" x="879" y="-470.25" font-family="Helvetica,sans-Serif" font-size="10.00">include/v8&#45;promise.h</text>
</a>
</g>
</g>
<!-- Node15&#45;&gt;Node23 -->
<g id="edge40" class="edge">
<title>Node15&#45;&gt;Node23</title>
<path fill="none" stroke="#63b8ff" d="M667.91,-522.56C717.75,-511.36 792.7,-494.52 838.59,-484.21"/>
<polygon fill="#63b8ff" stroke="#63b8ff" points="667.35,-519.32 658.36,-524.93 668.89,-526.15 667.35,-519.32"/>
</g>
<!-- Node26 -->
<g id="node26" class="node">
<title>Node26</title>
<g id="a_node26"><a xlink:href="v8-regexp_8h.html" target="_top" xlink:title=" ">
<polygon fill="white" stroke="#666666" points="637.62,-373.25 538.38,-373.25 538.38,-354 637.62,-354 637.62,-373.25"/>
<text text-anchor="middle" x="588" y="-359.75" font-family="Helvetica,sans-Serif" font-size="10.00">include/v8&#45;regexp.h</text>
</a>
</g>
</g>
<!-- Node15&#45;&gt;Node26 -->
<g id="edge50" class="edge">
<title>Node15&#45;&gt;Node26</title>
<path fill="none" stroke="#63b8ff" d="M613.59,-514.06C607.26,-477.12 593.96,-399.44 589.5,-373.37"/>
<polygon fill="#63b8ff" stroke="#63b8ff" points="610.3,-514.63 615.44,-523.89 617.2,-513.45 610.3,-514.63"/>
</g>
<!-- Node27 -->
<g id="node27" class="node">
<title>Node27</title>
<g id="a_node27"><a xlink:href="v8-template_8h.html" target="_top" xlink:title=" ">
<polygon fill="white" stroke="#666666" points="1508.12,-483.75 1399.88,-483.75 1399.88,-464.5 1508.12,-464.5 1508.12,-483.75"/>
<text text-anchor="middle" x="1454" y="-470.25" font-family="Helvetica,sans-Serif" font-size="10.00">include/v8&#45;template.h</text>
</a>
</g>
</g>
<!-- Node15&#45;&gt;Node27 -->
<g id="edge52" class="edge">
<title>Node15&#45;&gt;Node27</title>
<path fill="none" stroke="#63b8ff" d="M676.59,-530.16C801.24,-522.07 1098.65,-502.46 1348,-483.75 1364.75,-482.49 1382.99,-481.04 1399.54,-479.69"/>
<polygon fill="#63b8ff" stroke="#63b8ff" points="676.53,-526.72 666.78,-530.86 676.98,-533.7 676.53,-526.72"/>
</g>
<!-- Node28 -->
<g id="node28" class="node">
<title>Node28</title>
<g id="a_node28"><a xlink:href="v8-wasm_8h.html" target="_top" xlink:title=" ">
<polygon fill="white" stroke="#666666" points="221.5,-74.5 124.5,-74.5 124.5,-55.25 221.5,-55.25 221.5,-74.5"/>
<text text-anchor="middle" x="173" y="-61" font-family="Helvetica,sans-Serif" font-size="10.00">include/v8&#45;wasm.h</text>
</a>
</g>
</g>
<!-- Node15&#45;&gt;Node28 -->
<g id="edge55" class="edge">
<title>Node15&#45;&gt;Node28</title>
<path fill="none" stroke="#63b8ff" d="M557.36,-533.88C458.79,-532.51 267.64,-524.5 216,-483.75 192.19,-464.96 192,-450.2 192,-419.88 192,-419.88 192,-419.88 192,-191.25 192,-147.22 180.4,-95.46 175.33,-74.93"/>
<polygon fill="#63b8ff" stroke="#63b8ff" points="557.29,-537.4 567.33,-534.01 557.37,-530.4 557.29,-537.4"/>
</g>
<!-- Node16&#45;&gt;Node4 -->
<g id="edge29" class="edge">
<title>Node16&#45;&gt;Node4</title>
<path fill="none" stroke="#63b8ff" d="M619.09,-290.37C609.27,-277.76 599.5,-259.96 605,-243.5 616.71,-208.43 631.54,-205.58 655,-177 701.09,-120.87 708.34,-101.91 764,-55.25 781.13,-40.89 803.3,-27.85 818.49,-19.63"/>
<polygon fill="#63b8ff" stroke="#63b8ff" points="616.9,-292.2 626.04,-297.55 622.24,-287.66 616.9,-292.2"/>
</g>
<!-- Node16&#45;&gt;Node10 -->
<g id="edge25" class="edge">
<title>Node16&#45;&gt;Node10</title>
<path fill="none" stroke="#63b8ff" d="M705.72,-298.43C790.75,-287.68 931.29,-269.9 1005.88,-260.46"/>
<polygon fill="#63b8ff" stroke="#63b8ff" points="705.35,-295.07 695.87,-299.8 706.23,-302.02 705.35,-295.07"/>
</g>
<!-- Node17 -->
<g id="node17" class="node">
<title>Node17</title>
<g id="a_node17"><a xlink:href="v8-typed-array_8h.html" target="_top" xlink:title=" ">
<polygon fill="white" stroke="#666666" points="732,-262.75 614,-262.75 614,-243.5 732,-243.5 732,-262.75"/>
<text text-anchor="middle" x="673" y="-249.25" font-family="Helvetica,sans-Serif" font-size="10.00">include/v8&#45;typed&#45;array.h</text>
</a>
</g>
</g>
<!-- Node16&#45;&gt;Node17 -->
<g id="edge26" class="edge">
<title>Node16&#45;&gt;Node17</title>
<path fill="none" stroke="#63b8ff" d="M647.6,-289.72C653.96,-280.81 661.41,-270.37 666.59,-263.11"/>
<polygon fill="#63b8ff" stroke="#63b8ff" points="644.23,-287.41 641.27,-297.58 649.93,-291.47 644.23,-287.41"/>
</g>
<!-- Node17&#45;&gt;Node4 -->
<g id="edge28" class="edge">
<title>Node17&#45;&gt;Node4</title>
<path fill="none" stroke="#63b8ff" d="M665.17,-232.95C659.98,-217.02 655.66,-194.27 665,-177 678.89,-151.3 698.72,-161.01 720,-141 754.65,-108.42 751.54,-90 784,-55.25 796.67,-41.69 813.21,-28.08 824.19,-19.53"/>
<polygon fill="#63b8ff" stroke="#63b8ff" points="662.19,-233.98 668.93,-242.16 668.76,-231.57 662.19,-233.98"/>
</g>
<!-- Node18 -->
<g id="node18" class="node">
<title>Node18</title>
<g id="a_node18"><a xlink:href="v8-fast-api-calls_8h.html" target="_top" xlink:title=" ">
<polygon fill="white" stroke="#666666" points="769.75,-207.5 674.25,-207.5 674.25,-177 769.75,-177 769.75,-207.5"/>
<text text-anchor="start" x="682.25" y="-194" font-family="Helvetica,sans-Serif" font-size="10.00">include/v8&#45;fast&#45;api</text>
<text text-anchor="middle" x="722" y="-182.75" font-family="Helvetica,sans-Serif" font-size="10.00">&#45;calls.h</text>
</a>
</g>
</g>
<!-- Node17&#45;&gt;Node18 -->
<g id="edge27" class="edge">
<title>Node17&#45;&gt;Node18</title>
<path fill="none" stroke="#63b8ff" d="M687.27,-234.98C694.45,-226.35 703.06,-216.01 709.91,-207.78"/>
<polygon fill="#63b8ff" stroke="#63b8ff" points="684.15,-232.26 680.44,-242.18 689.53,-236.74 684.15,-232.26"/>
</g>
<!-- Node19&#45;&gt;Node4 -->
<g id="edge31" class="edge">
<title>Node19&#45;&gt;Node4</title>
<path fill="none" stroke="#63b8ff" d="M308.77,-232.84C301.31,-193.15 290.92,-102.09 340,-55.25 373.34,-23.42 695.31,-13.66 801.91,-11.28"/>
<polygon fill="#63b8ff" stroke="#63b8ff" points="305.49,-233.31 310.92,-242.41 312.35,-231.91 305.49,-233.31"/>
</g>
<!-- Node20&#45;&gt;Node4 -->
<g id="edge33" class="edge">
<title>Node20&#45;&gt;Node4</title>
<path fill="none" stroke="#63b8ff" d="M363.72,-397.97C367.58,-368.5 374.49,-311.49 377,-262.75 378.39,-235.66 374.76,-231.14 373,-141 372.74,-127.45 366.21,-122.23 373,-110.5 397.64,-67.88 422.3,-70.81 469,-55.25 586.68,-16.04 735.82,-10.6 801.87,-10.29"/>
<polygon fill="#63b8ff" stroke="#63b8ff" points="360.12,-397.43 362.26,-407.81 367.06,-398.36 360.12,-397.43"/>
</g>
<!-- Node21&#45;&gt;Node4 -->
<g id="edge36" class="edge">
<title>Node21&#45;&gt;Node4</title>
<path fill="none" stroke="#63b8ff" d="M803.77,-287.64C801.41,-264.91 798,-226.43 798,-193.25 798,-193.25 798,-193.25 798,-124.75 798,-83.82 820.27,-38.67 830.72,-19.75"/>
<polygon fill="#63b8ff" stroke="#63b8ff" points="800.4,-287.95 804.95,-297.51 807.35,-287.19 800.4,-287.95"/>
</g>
<!-- Node21&#45;&gt;Node10 -->
<g id="edge35" class="edge">
<title>Node21&#45;&gt;Node10</title>
<path fill="none" stroke="#63b8ff" d="M859.36,-296.01C905.37,-286.21 970.94,-272.24 1013.48,-263.18"/>
<polygon fill="#63b8ff" stroke="#63b8ff" points="858.74,-292.77 849.69,-298.28 860.2,-299.62 858.74,-292.77"/>
</g>
<!-- Node22&#45;&gt;Node4 -->
<g id="edge39" class="edge">
<title>Node22&#45;&gt;Node4</title>
<path fill="none" stroke="#63b8ff" d="M447.79,-101.54C459.87,-85.75 477.99,-65.86 499,-55.25 551.55,-28.71 726.86,-16.43 801.68,-12.31"/>
<polygon fill="#63b8ff" stroke="#63b8ff" points="444.49,-99.12 441.4,-109.26 450.13,-103.26 444.49,-99.12"/>
</g>
<!-- Node23&#45;&gt;Node4 -->
<g id="edge48" class="edge">
<title>Node23&#45;&gt;Node4</title>
<path fill="none" stroke="#63b8ff" d="M895.47,-456.98C931.79,-420.51 1014.38,-332.29 999,-298.75 973.09,-242.25 926.42,-259.91 893,-207.5 855.2,-148.21 870.08,-122.64 850,-55.25 846.29,-42.8 841.75,-28.48 838.86,-19.49"/>
<polygon fill="#63b8ff" stroke="#63b8ff" points="893.71,-453.79 889.09,-463.33 898.64,-458.76 893.71,-453.79"/>
</g>
<!-- Node24 -->
<g id="node24" class="node">
<title>Node24</title>
<g id="a_node24"><a xlink:href="v8-callbacks_8h.html" target="_top" xlink:title=" ">
<polygon fill="white" stroke="#666666" points="1113,-428.5 1001,-428.5 1001,-409.25 1113,-409.25 1113,-428.5"/>
<text text-anchor="middle" x="1057" y="-415" font-family="Helvetica,sans-Serif" font-size="10.00">include/v8&#45;callbacks.h</text>
</a>
</g>
</g>
<!-- Node23&#45;&gt;Node24 -->
<g id="edge41" class="edge">
<title>Node23&#45;&gt;Node24</title>
<path fill="none" stroke="#63b8ff" d="M919.72,-460.94C952.28,-451.2 997.2,-437.77 1026.66,-428.95"/>
<polygon fill="#63b8ff" stroke="#63b8ff" points="918.77,-457.87 910.2,-464.09 920.78,-464.58 918.77,-457.87"/>
</g>
<!-- Node25 -->
<g id="node25" class="node">
<title>Node25</title>
<g id="a_node25"><a xlink:href="v8-statistics_8h.html" target="_top" xlink:title=" ">
<polygon fill="white" stroke="#666666" points="990.25,-318 879.75,-318 879.75,-298.75 990.25,-298.75 990.25,-318"/>
<text text-anchor="middle" x="935" y="-304.5" font-family="Helvetica,sans-Serif" font-size="10.00">include/v8&#45;statistics.h</text>
</a>
</g>
</g>
<!-- Node23&#45;&gt;Node25 -->
<g id="edge45" class="edge">
<title>Node23&#45;&gt;Node25</title>
<path fill="none" stroke="#63b8ff" d="M885.42,-454.37C897.49,-419.05 923.18,-343.93 931.97,-318.22"/>
<polygon fill="#63b8ff" stroke="#63b8ff" points="881.94,-452.73 882.01,-463.32 888.56,-454.99 881.94,-452.73"/>
</g>
<!-- Node24&#45;&gt;Node8 -->
<g id="edge44" class="edge">
<title>Node24&#45;&gt;Node8</title>
<path fill="none" stroke="#63b8ff" d="M1108.72,-406.45C1153.06,-396.65 1216.09,-382.72 1257.01,-373.68"/>
<polygon fill="#63b8ff" stroke="#63b8ff" points="1108.16,-403.21 1099.16,-408.78 1109.68,-410.04 1108.16,-403.21"/>
</g>
<!-- Node24&#45;&gt;Node10 -->
<g id="edge43" class="edge">
<title>Node24&#45;&gt;Node10</title>
<path fill="none" stroke="#63b8ff" d="M1062.2,-398.51C1067.84,-374.89 1075.36,-333.76 1070,-298.75 1068.06,-286.07 1063.18,-272.04 1059.73,-263.16"/>
<polygon fill="#63b8ff" stroke="#63b8ff" points="1058.64,-397.32 1059.58,-407.87 1065.43,-399.04 1058.64,-397.32"/>
</g>
<!-- Node24&#45;&gt;Node11 -->
<g id="edge42" class="edge">
<title>Node24&#45;&gt;Node11</title>
<path fill="none" stroke="#63b8ff" d="M1072.37,-400.61C1112.44,-355.61 1219.01,-235.92 1249.03,-202.2"/>
<polygon fill="#63b8ff" stroke="#63b8ff" points="1070.12,-398 1066.09,-407.79 1075.35,-402.65 1070.12,-398"/>
</g>
<!-- Node25&#45;&gt;Node4 -->
<g id="edge47" class="edge">
<title>Node25&#45;&gt;Node4</title>
<path fill="none" stroke="#63b8ff" d="M909.35,-292.72C880.02,-273.83 836,-238.02 836,-193.25 836,-193.25 836,-193.25 836,-124.75 836,-85.52 836,-38.7 836,-19.5"/>
<polygon fill="#63b8ff" stroke="#63b8ff" points="907.31,-296.19 917.65,-298.47 910.98,-290.23 907.31,-296.19"/>
</g>
<!-- Node25&#45;&gt;Node10 -->
<g id="edge46" class="edge">
<title>Node25&#45;&gt;Node10</title>
<path fill="none" stroke="#63b8ff" d="M965.32,-294.03C987.19,-284.41 1016.13,-271.67 1035.37,-263.2"/>
<polygon fill="#63b8ff" stroke="#63b8ff" points="964.27,-291.11 956.53,-298.34 967.09,-297.52 964.27,-291.11"/>
</g>
<!-- Node26&#45;&gt;Node4 -->
<g id="edge51" class="edge">
<title>Node26&#45;&gt;Node4</title>
<path fill="none" stroke="#63b8ff" d="M576.49,-344.32C569.93,-331.7 563.62,-314.44 567,-298.75 579.5,-240.7 589.5,-226.69 622,-177 642.45,-145.72 707.22,-76.44 738,-55.25 760.48,-39.77 789.19,-27.43 809.72,-19.69"/>
<polygon fill="#63b8ff" stroke="#63b8ff" points="573.85,-345.76 581.86,-352.69 579.93,-342.28 573.85,-345.76"/>
</g>
<!-- Node27&#45;&gt;Node4 -->
<g id="edge54" class="edge">
<title>Node27&#45;&gt;Node4</title>
<path fill="none" stroke="#63b8ff" d="M1481.85,-458.62C1493.89,-451.09 1507.21,-440.87 1516,-428.5 1533.16,-404.36 1535,-394.24 1535,-364.62 1535,-364.62 1535,-364.62 1535,-124.75 1535,-78.65 1500.41,-73.33 1458,-55.25 1350.81,-9.56 984.14,-9.16 870.12,-10.18"/>
<polygon fill="#63b8ff" stroke="#63b8ff" points="1480.42,-455.99 1473.58,-464.07 1483.97,-462.02 1480.42,-455.99"/>
</g>
<!-- Node27&#45;&gt;Node6 -->
<g id="edge53" class="edge">
<title>Node27&#45;&gt;Node6</title>
<path fill="none" stroke="#63b8ff" d="M1454,-453.46C1454,-445.02 1454,-435.58 1454,-428.86"/>
<polygon fill="#63b8ff" stroke="#63b8ff" points="1450.5,-453.33 1454,-463.33 1457.5,-453.33 1450.5,-453.33"/>
</g>
<!-- Node28&#45;&gt;Node4 -->
<g id="edge56" class="edge">
<title>Node28&#45;&gt;Node4</title>
<path fill="none" stroke="#63b8ff" d="M232.51,-55.63C233.68,-55.5 234.85,-55.37 236,-55.25 450.77,-32.58 709.98,-17.42 801.77,-12.43"/>
<polygon fill="#63b8ff" stroke="#63b8ff" points="232.32,-52.24 222.8,-56.89 233.14,-59.2 232.32,-52.24"/>
</g>
<!-- Node29&#45;&gt;Node4 -->
<g id="edge60" class="edge">
<title>Node29&#45;&gt;Node4</title>
<path fill="none" stroke="#63b8ff" d="M96,-342.87C96,-321.12 96,-285.13 96,-254.12 96,-254.12 96,-254.12 96,-124.75 96,-92.73 90.16,-75.46 115,-55.25 168.69,-11.58 665.9,-10.04 801.81,-10.45"/>
<polygon fill="#63b8ff" stroke="#63b8ff" points="92.5,-342.62 96,-352.62 99.5,-342.62 92.5,-342.62"/>
</g>
<!-- Node30&#45;&gt;Node4 -->
<g id="edge78" class="edge">
<title>Node30&#45;&gt;Node4</title>
<path fill="none" stroke="#63b8ff" d="M1182,-645.48C1335.56,-632.4 1741,-592.52 1741,-536 1741,-536 1741,-536 1741,-124.75 1741,-60.41 1675.86,-72.97 1614,-55.25 1471.26,-14.36 1001.33,-10.78 870.23,-10.59"/>
<polygon fill="#63b8ff" stroke="#63b8ff" points="1182.06,-642.04 1172.39,-646.37 1182.65,-649.02 1182.06,-642.04"/>
</g>
<!-- Node30&#45;&gt;Node15 -->
<g id="edge65" class="edge">
<title>Node30&#45;&gt;Node15</title>
<path fill="none" stroke="#63b8ff" d="M1066.23,-640.57C1017.48,-632.22 945.92,-619.3 884,-605.5 798.44,-586.44 698.77,-559.11 648.88,-545.08"/>
<polygon fill="#63b8ff" stroke="#63b8ff" points="1065.45,-644.15 1075.89,-642.38 1066.62,-637.25 1065.45,-644.15"/>
</g>
<!-- Node30&#45;&gt;Node18 -->
<g id="edge64" class="edge">
<title>Node30&#45;&gt;Node18</title>
<path fill="none" stroke="#63b8ff" d="M1084.13,-637.8C1020.08,-616.17 893.69,-565.74 817,-483.75 761.64,-424.57 758.29,-397.18 741,-318 733.94,-285.65 746.95,-276.07 741,-243.5 738.72,-231.02 733.5,-217.62 729.11,-207.8"/>
<polygon fill="#63b8ff" stroke="#63b8ff" points="1082.64,-641.32 1093.23,-641.14 1084.84,-634.68 1082.64,-641.32"/>
</g>
<!-- Node31 -->
<g id="node31" class="node">
<title>Node31</title>
<g id="a_node31"><a xlink:href="v8-external_8h.html" target="_top" xlink:title=" ">
<polygon fill="white" stroke="#666666" points="1873.25,-74.5 1768.75,-74.5 1768.75,-55.25 1873.25,-55.25 1873.25,-74.5"/>
<text text-anchor="middle" x="1821" y="-61" font-family="Helvetica,sans-Serif" font-size="10.00">include/v8&#45;external.h</text>
</a>
</g>
</g>
<!-- Node30&#45;&gt;Node31 -->
<g id="edge62" class="edge">
<title>Node30&#45;&gt;Node31</title>
<path fill="none" stroke="#63b8ff" d="M1182,-648.96C1328.7,-645.59 1706.38,-634.21 1755,-605.5 1786.69,-586.79 1800,-572.8 1800,-536 1800,-536 1800,-536 1800,-191.25 1800,-147.11 1812.82,-95.42 1818.42,-74.91"/>
<polygon fill="#63b8ff" stroke="#63b8ff" points="1181.93,-645.48 1172.01,-649.2 1182.09,-652.48 1181.93,-645.48"/>
</g>
<!-- Node32 -->
<g id="node32" class="node">
<title>Node32</title>
<g id="a_node32"><a xlink:href="v8-primitive_8h.html" target="_top" xlink:title=" ">
<polygon fill="white" stroke="#666666" points="1304.75,-605.5 1197.25,-605.5 1197.25,-586.25 1304.75,-586.25 1304.75,-605.5"/>
<text text-anchor="middle" x="1251" y="-592" font-family="Helvetica,sans-Serif" font-size="10.00">include/v8&#45;primitive.h</text>
</a>
</g>
</g>
<!-- Node30&#45;&gt;Node32 -->
<g id="edge66" class="edge">
<title>Node30&#45;&gt;Node32</title>
<path fill="none" stroke="#63b8ff" d="M1155.51,-636.91C1178.5,-627.27 1209.06,-614.46 1229.35,-605.95"/>
<polygon fill="#63b8ff" stroke="#63b8ff" points="1154.41,-634 1146.54,-641.09 1157.12,-640.45 1154.41,-634"/>
</g>
<!-- Node31&#45;&gt;Node4 -->
<g id="edge63" class="edge">
<title>Node31&#45;&gt;Node4</title>
<path fill="none" stroke="#63b8ff" d="M1757.89,-55.52C1756.92,-55.42 1755.96,-55.34 1755,-55.25 1410.55,-24.43 991.42,-13.82 870.28,-11.28"/>
<polygon fill="#63b8ff" stroke="#63b8ff" points="1757.14,-59.06 1767.45,-56.62 1757.86,-52.1 1757.14,-59.06"/>
</g>
<!-- Node32&#45;&gt;Node4 -->
<g id="edge77" class="edge">
<title>Node32&#45;&gt;Node4</title>
<path fill="none" stroke="#63b8ff" d="M1315.93,-584.94C1411.83,-568.75 1583.81,-533.44 1619,-483.75 1623.94,-476.77 1620.23,-472.97 1619,-464.5 1608.67,-393.33 1573,-381.29 1573,-309.38 1573,-309.38 1573,-309.38 1573,-124.75 1573,-77.99 1537.17,-73.23 1494,-55.25 1436.2,-31.18 996.73,-15.66 870.07,-11.66"/>
<polygon fill="#63b8ff" stroke="#63b8ff" points="1315.49,-581.63 1306.2,-586.72 1316.64,-588.53 1315.49,-581.63"/>
</g>
<!-- Node32&#45;&gt;Node5 -->
<g id="edge75" class="edge">
<title>Node32&#45;&gt;Node5</title>
<path fill="none" stroke="#63b8ff" d="M1251,-574.99C1251,-548.71 1251,-503.48 1251,-484.23"/>
<polygon fill="#63b8ff" stroke="#63b8ff" points="1247.5,-574.87 1251,-584.87 1254.5,-574.87 1247.5,-574.87"/>
</g>
<!-- Node32&#45;&gt;Node10 -->
<g id="edge74" class="edge">
<title>Node32&#45;&gt;Node10</title>
<path fill="none" stroke="#63b8ff" d="M1209.4,-582.31C1148.79,-561.48 1038.4,-513.45 992,-428.5 975.24,-397.81 1002.02,-391.7 1032,-318 1039.94,-298.47 1048.44,-275.22 1052.89,-262.86"/>
<polygon fill="#63b8ff" stroke="#63b8ff" points="1208.16,-585.91 1218.75,-585.76 1210.38,-579.28 1208.16,-585.91"/>
</g>
<!-- Node32&#45;&gt;Node15 -->
<g id="edge76" class="edge">
<title>Node32&#45;&gt;Node15</title>
<path fill="none" stroke="#63b8ff" d="M1186.21,-588.86C1058.89,-577.04 778.64,-551.01 665.65,-540.52"/>
<polygon fill="#63b8ff" stroke="#63b8ff" points="1185.66,-592.42 1195.95,-589.86 1186.31,-585.45 1185.66,-592.42"/>
</g>
<!-- Node33 -->
<g id="node33" class="node">
<title>Node33</title>
<g id="a_node33"><a xlink:href="v8-extension_8h.html" target="_top" xlink:title=" ">
<polygon fill="white" stroke="#666666" points="1713,-373.25 1601,-373.25 1601,-354 1713,-354 1713,-373.25"/>
<text text-anchor="middle" x="1657" y="-359.75" font-family="Helvetica,sans-Serif" font-size="10.00">include/v8&#45;extension.h</text>
</a>
</g>
</g>
<!-- Node32&#45;&gt;Node33 -->
<g id="edge67" class="edge">
<title>Node32&#45;&gt;Node33</title>
<path fill="none" stroke="#63b8ff" d="M1315.65,-592.25C1423.28,-587.23 1629.68,-574.52 1652,-550.25 1698.91,-499.23 1670.55,-402.98 1660.27,-373.46"/>
<polygon fill="#63b8ff" stroke="#63b8ff" points="1315.75,-588.79 1305.92,-592.75 1316.07,-595.78 1315.75,-588.79"/>
</g>
<!-- Node34 -->
<g id="node34" class="node">
<title>Node34</title>
<g id="a_node34"><a xlink:href="v8-function-callback_8h.html" target="_top" xlink:title=" ">
<polygon fill="white" stroke="#666666" points="1420.88,-550.25 1323.12,-550.25 1323.12,-519.75 1420.88,-519.75 1420.88,-550.25"/>
<text text-anchor="start" x="1331.12" y="-536.75" font-family="Helvetica,sans-Serif" font-size="10.00">include/v8&#45;function</text>
<text text-anchor="middle" x="1372" y="-525.5" font-family="Helvetica,sans-Serif" font-size="10.00">&#45;callback.h</text>
</a>
</g>
</g>
<!-- Node32&#45;&gt;Node34 -->
<g id="edge69" class="edge">
<title>Node32&#45;&gt;Node34</title>
<path fill="none" stroke="#63b8ff" d="M1279.39,-581.06C1298.14,-571.94 1322.69,-559.99 1341.8,-550.69"/>
<polygon fill="#63b8ff" stroke="#63b8ff" points="1278.1,-578.28 1270.64,-585.8 1281.16,-584.58 1278.1,-578.28"/>
</g>
<!-- Node33&#45;&gt;Node4 -->
<g id="edge68" class="edge">
<title>Node33&#45;&gt;Node4</title>
<path fill="none" stroke="#63b8ff" d="M1650.39,-343.43C1643.6,-321.95 1634,-285.97 1634,-254.12 1634,-254.12 1634,-254.12 1634,-124.75 1634,-87.46 1619.4,-73.71 1587,-55.25 1524.22,-19.49 1009,-12.21 870.29,-10.89"/>
<polygon fill="#63b8ff" stroke="#63b8ff" points="1647.34,-344.36 1653.8,-352.76 1653.99,-342.16 1647.34,-344.36"/>
</g>
<!-- Node34&#45;&gt;Node6 -->
<g id="edge70" class="edge">
<title>Node34&#45;&gt;Node6</title>
<path fill="none" stroke="#63b8ff" d="M1374.7,-508.61C1377.18,-494.6 1381.92,-477.47 1391,-464.5 1402.07,-448.69 1420.62,-436.54 1434.73,-428.95"/>
<polygon fill="#63b8ff" stroke="#63b8ff" points="1371.09,-508.08 1373.1,-518.49 1378.02,-509.1 1371.09,-508.08"/>
</g>
<!-- Node34&#45;&gt;Node10 -->
<g id="edge71" class="edge">
<title>Node34&#45;&gt;Node10</title>
<path fill="none" stroke="#63b8ff" d="M1312.22,-529.69C1273.11,-524.2 1222.82,-511.78 1187,-483.75 1112.89,-425.75 1131.91,-379.75 1084,-298.75 1076.55,-286.15 1067.47,-271.87 1061.72,-262.93"/>
<polygon fill="#63b8ff" stroke="#63b8ff" points="1311.57,-533.27 1321.93,-531.07 1312.46,-526.32 1311.57,-533.27"/>
</g>
<!-- Node34&#45;&gt;Node27 -->
<g id="edge72" class="edge">
<title>Node34&#45;&gt;Node27</title>
<path fill="none" stroke="#63b8ff" d="M1400.99,-513.19C1414.81,-503.26 1430.63,-491.91 1441.36,-484.2"/>
<polygon fill="#63b8ff" stroke="#63b8ff" points="1399.35,-510.77 1393.27,-519.45 1403.43,-516.46 1399.35,-510.77"/>
</g>
<!-- Node35 -->
<g id="node35" class="node">
<title>Node35</title>
<g id="a_node35"><a xlink:href="v8-util_8h.html" target="_top" xlink:title=" ">
<polygon fill="white" stroke="#666666" points="1609.75,-483.75 1526.25,-483.75 1526.25,-464.5 1609.75,-464.5 1609.75,-483.75"/>
<text text-anchor="middle" x="1568" y="-470.25" font-family="Helvetica,sans-Serif" font-size="10.00">include/v8&#45;util.h</text>
</a>
</g>
</g>
<!-- Node34&#45;&gt;Node35 -->
<g id="edge73" class="edge">
<title>Node34&#45;&gt;Node35</title>
<path fill="none" stroke="#63b8ff" d="M1431.1,-516.25C1466.23,-505.7 1509.31,-492.75 1537.65,-484.24"/>
<polygon fill="#63b8ff" stroke="#63b8ff" points="1430.52,-513.07 1421.95,-519.3 1432.54,-519.77 1430.52,-513.07"/>
</g>
</g>
</svg>
