<?xml version="1.0" encoding="UTF-8" standalone="no"?>
<!DOCTYPE svg PUBLIC "-//W3C//DTD SVG 1.1//EN"
 "http://www.w3.org/Graphics/SVG/1.1/DTD/svg11.dtd">
<!-- Generated by graphviz version 8.0.5 (20230430.1635)
 -->
<!-- Title: include/v8&#45;unwinder.h Pages: 1 -->
<svg width="705pt" height="359pt"
 viewBox="0.00 0.00 704.75 358.75" xmlns="http://www.w3.org/2000/svg" xmlns:xlink="http://www.w3.org/1999/xlink">
<g id="graph0" class="graph" transform="scale(1 1) rotate(0) translate(4 354.75)">
<title>include/v8&#45;unwinder.h</title>
<!-- Node1 -->
<g id="node1" class="node">
<title>Node1</title>
<g id="a_node1"><a xlink:title=" ">
<polygon fill="#999999" stroke="#666666" points="253.88,-350.75 144.12,-350.75 144.12,-331.5 253.88,-331.5 253.88,-350.75"/>
<text text-anchor="middle" x="199" y="-337.25" font-family="Helvetica,sans-Serif" font-size="10.00">include/v8&#45;unwinder.h</text>
</a>
</g>
</g>
<!-- Node2 -->
<g id="node2" class="node">
<title>Node2</title>
<g id="a_node2"><a xlink:title=" ">
<polygon fill="#e0e0e0" stroke="#999999" points="315.25,-19.25 264.75,-19.25 264.75,0 315.25,0 315.25,-19.25"/>
<text text-anchor="middle" x="290" y="-5.75" font-family="Helvetica,sans-Serif" font-size="10.00">memory</text>
</a>
</g>
</g>
<!-- Node1&#45;&gt;Node2 -->
<g id="edge1" class="edge">
<title>Node1&#45;&gt;Node2</title>
<path fill="none" stroke="#63b8ff" d="M143.83,-333.78C84.94,-323.57 0,-297.44 0,-231.62 0,-231.62 0,-231.62 0,-119.12 0,-85.86 11.53,-74.01 39,-55.25 73.41,-31.75 192.97,-18.68 253.82,-13.41"/>
<polygon fill="#63b8ff" stroke="#63b8ff" points="253.8,-16.84 263.47,-12.51 253.21,-9.86 253.8,-16.84"/>
</g>
<!-- Node3 -->
<g id="node3" class="node">
<title>Node3</title>
<g id="a_node3"><a xlink:href="v8-embedder-state-scope_8h.html" target="_top" xlink:title=" ">
<polygon fill="white" stroke="#666666" points="265.88,-295.5 132.12,-295.5 132.12,-276.25 265.88,-276.25 265.88,-295.5"/>
<text text-anchor="middle" x="199" y="-282" font-family="Helvetica,sans-Serif" font-size="10.00">v8&#45;embedder&#45;state&#45;scope.h</text>
</a>
</g>
</g>
<!-- Node1&#45;&gt;Node3 -->
<g id="edge2" class="edge">
<title>Node1&#45;&gt;Node3</title>
<path fill="none" stroke="#63b8ff" d="M199,-331.33C199,-324.67 199,-315.24 199,-306.78"/>
<polygon fill="#63b8ff" stroke="#63b8ff" points="202.5,-306.86 199,-296.86 195.5,-306.86 202.5,-306.86"/>
</g>
<!-- Node13 -->
<g id="node13" class="node">
<title>Node13</title>
<g id="a_node13"><a xlink:href="v8config_8h.html" target="_top" xlink:title=" ">
<polygon fill="white" stroke="#666666" points="696.75,-74.5 637.25,-74.5 637.25,-55.25 696.75,-55.25 696.75,-74.5"/>
<text text-anchor="middle" x="667" y="-61" font-family="Helvetica,sans-Serif" font-size="10.00">v8config.h</text>
</a>
</g>
</g>
<!-- Node1&#45;&gt;Node13 -->
<g id="edge23" class="edge">
<title>Node1&#45;&gt;Node13</title>
<path fill="none" stroke="#63b8ff" d="M254.2,-338.38C324.51,-332.86 437,-311.55 437,-231.62 437,-231.62 437,-231.62 437,-174.38 437,-132.97 560.46,-94 626.47,-76.12"/>
<polygon fill="#63b8ff" stroke="#63b8ff" points="627.17,-79.29 635.93,-73.33 625.37,-72.52 627.17,-79.29"/>
</g>
<!-- Node3&#45;&gt;Node2 -->
<g id="edge3" class="edge">
<title>Node3&#45;&gt;Node2</title>
<path fill="none" stroke="#63b8ff" d="M156.7,-275.77C109,-262.72 38,-233.68 38,-176.38 38,-176.38 38,-176.38 38,-119.12 38,-89.51 35.04,-75.12 57,-55.25 85.42,-29.54 195.64,-17.63 253.72,-13.04"/>
<polygon fill="#63b8ff" stroke="#63b8ff" points="253.9,-16.46 263.6,-12.22 253.37,-9.48 253.9,-16.46"/>
</g>
<!-- Node4 -->
<g id="node4" class="node">
<title>Node4</title>
<g id="a_node4"><a xlink:href="v8-internal_8h.html" target="_top" xlink:title=" ">
<polygon fill="white" stroke="#666666" points="400.25,-129.75 331.75,-129.75 331.75,-110.5 400.25,-110.5 400.25,-129.75"/>
<text text-anchor="middle" x="366" y="-116.25" font-family="Helvetica,sans-Serif" font-size="10.00">v8&#45;internal.h</text>
</a>
</g>
</g>
<!-- Node3&#45;&gt;Node4 -->
<g id="edge4" class="edge">
<title>Node3&#45;&gt;Node4</title>
<path fill="none" stroke="#63b8ff" d="M227.16,-275.77C263.94,-262.28 327.26,-233.25 358,-185 366.28,-172.01 367.96,-154.5 367.75,-141.09"/>
<polygon fill="#63b8ff" stroke="#63b8ff" points="371.2,-140.98 367.16,-131.19 364.21,-141.36 371.2,-140.98"/>
</g>
<!-- Node14 -->
<g id="node14" class="node">
<title>Node14</title>
<g id="a_node14"><a xlink:href="v8-local-handle_8h.html" target="_top" xlink:title=" ">
<polygon fill="white" stroke="#666666" points="243.38,-240.25 154.62,-240.25 154.62,-221 243.38,-221 243.38,-240.25"/>
<text text-anchor="middle" x="199" y="-226.75" font-family="Helvetica,sans-Serif" font-size="10.00">v8&#45;local&#45;handle.h</text>
</a>
</g>
</g>
<!-- Node3&#45;&gt;Node14 -->
<g id="edge16" class="edge">
<title>Node3&#45;&gt;Node14</title>
<path fill="none" stroke="#63b8ff" d="M199,-276.08C199,-269.42 199,-259.99 199,-251.53"/>
<polygon fill="#63b8ff" stroke="#63b8ff" points="202.5,-251.61 199,-241.61 195.5,-251.61 202.5,-251.61"/>
</g>
<!-- Node4&#45;&gt;Node2 -->
<g id="edge11" class="edge">
<title>Node4&#45;&gt;Node2</title>
<path fill="none" stroke="#63b8ff" d="M400.73,-114.24C442.58,-107.55 509.17,-94.1 524,-74.5 529.16,-67.68 529.45,-61.84 524,-55.25 499.36,-25.46 385.91,-15.38 326.51,-12.11"/>
<polygon fill="#63b8ff" stroke="#63b8ff" points="326.9,-8.58 316.73,-11.56 326.54,-15.57 326.9,-8.58"/>
</g>
<!-- Node5 -->
<g id="node5" class="node">
<title>Node5</title>
<g id="a_node5"><a xlink:title=" ">
<polygon fill="#e0e0e0" stroke="#999999" points="196.25,-74.5 145.75,-74.5 145.75,-55.25 196.25,-55.25 196.25,-74.5"/>
<text text-anchor="middle" x="171" y="-61" font-family="Helvetica,sans-Serif" font-size="10.00">stddef.h</text>
</a>
</g>
</g>
<!-- Node4&#45;&gt;Node5 -->
<g id="edge5" class="edge">
<title>Node4&#45;&gt;Node5</title>
<path fill="none" stroke="#63b8ff" d="M332.92,-110.09C297.96,-100.55 243.01,-85.54 206.98,-75.7"/>
<polygon fill="#63b8ff" stroke="#63b8ff" points="208.03,-72.08 197.46,-72.83 206.18,-78.84 208.03,-72.08"/>
</g>
<!-- Node6 -->
<g id="node6" class="node">
<title>Node6</title>
<g id="a_node6"><a xlink:title=" ">
<polygon fill="#e0e0e0" stroke="#999999" points="618.75,-74.5 571.25,-74.5 571.25,-55.25 618.75,-55.25 618.75,-74.5"/>
<text text-anchor="middle" x="595" y="-61" font-family="Helvetica,sans-Serif" font-size="10.00">stdint.h</text>
</a>
</g>
</g>
<!-- Node4&#45;&gt;Node6 -->
<g id="edge6" class="edge">
<title>Node4&#45;&gt;Node6</title>
<path fill="none" stroke="#63b8ff" d="M400.28,-111.15C443.44,-101.12 517.15,-83.98 560.44,-73.91"/>
<polygon fill="#63b8ff" stroke="#63b8ff" points="561.07,-77.13 570.01,-71.45 559.48,-70.31 561.07,-77.13"/>
</g>
<!-- Node7 -->
<g id="node7" class="node">
<title>Node7</title>
<g id="a_node7"><a xlink:title=" ">
<polygon fill="#e0e0e0" stroke="#999999" points="261.75,-74.5 214.25,-74.5 214.25,-55.25 261.75,-55.25 261.75,-74.5"/>
<text text-anchor="middle" x="238" y="-61" font-family="Helvetica,sans-Serif" font-size="10.00">string.h</text>
</a>
</g>
</g>
<!-- Node4&#45;&gt;Node7 -->
<g id="edge7" class="edge">
<title>Node4&#45;&gt;Node7</title>
<path fill="none" stroke="#63b8ff" d="M344.29,-110.09C323.88,-101.6 293.08,-88.79 269.88,-79.14"/>
<polygon fill="#63b8ff" stroke="#63b8ff" points="271.4,-75.56 260.82,-74.95 268.71,-82.03 271.4,-75.56"/>
</g>
<!-- Node8 -->
<g id="node8" class="node">
<title>Node8</title>
<g id="a_node8"><a xlink:title=" ">
<polygon fill="#e0e0e0" stroke="#999999" points="324.62,-74.5 279.38,-74.5 279.38,-55.25 324.62,-55.25 324.62,-74.5"/>
<text text-anchor="middle" x="302" y="-61" font-family="Helvetica,sans-Serif" font-size="10.00">atomic</text>
</a>
</g>
</g>
<!-- Node4&#45;&gt;Node8 -->
<g id="edge8" class="edge">
<title>Node4&#45;&gt;Node8</title>
<path fill="none" stroke="#63b8ff" d="M355.14,-110.09C345.8,-102.32 332.11,-90.92 320.96,-81.65"/>
<polygon fill="#63b8ff" stroke="#63b8ff" points="323.62,-78.48 313.7,-74.77 319.14,-83.86 323.62,-78.48"/>
</g>
<!-- Node9 -->
<g id="node9" class="node">
<title>Node9</title>
<g id="a_node9"><a xlink:title=" ">
<polygon fill="#e0e0e0" stroke="#999999" points="389,-74.5 343,-74.5 343,-55.25 389,-55.25 389,-74.5"/>
<text text-anchor="middle" x="366" y="-61" font-family="Helvetica,sans-Serif" font-size="10.00">iterator</text>
</a>
</g>
</g>
<!-- Node4&#45;&gt;Node9 -->
<g id="edge9" class="edge">
<title>Node4&#45;&gt;Node9</title>
<path fill="none" stroke="#63b8ff" d="M366,-110.33C366,-103.67 366,-94.24 366,-85.78"/>
<polygon fill="#63b8ff" stroke="#63b8ff" points="369.5,-85.86 366,-75.86 362.5,-85.86 369.5,-85.86"/>
</g>
<!-- Node10 -->
<g id="node10" class="node">
<title>Node10</title>
<g id="a_node10"><a xlink:title=" ">
<polygon fill="#e0e0e0" stroke="#999999" points="446.62,-74.5 407.38,-74.5 407.38,-55.25 446.62,-55.25 446.62,-74.5"/>
<text text-anchor="middle" x="427" y="-61" font-family="Helvetica,sans-Serif" font-size="10.00">limits</text>
</a>
</g>
</g>
<!-- Node4&#45;&gt;Node10 -->
<g id="edge10" class="edge">
<title>Node4&#45;&gt;Node10</title>
<path fill="none" stroke="#63b8ff" d="M376.35,-110.09C385.16,-102.4 398.05,-91.15 408.61,-81.93"/>
<polygon fill="#63b8ff" stroke="#63b8ff" points="410.57,-83.99 415.81,-74.77 405.97,-78.71 410.57,-83.99"/>
</g>
<!-- Node11 -->
<g id="node11" class="node">
<title>Node11</title>
<g id="a_node11"><a xlink:title=" ">
<polygon fill="#e0e0e0" stroke="#999999" points="514.88,-74.5 465.12,-74.5 465.12,-55.25 514.88,-55.25 514.88,-74.5"/>
<text text-anchor="middle" x="490" y="-61" font-family="Helvetica,sans-Serif" font-size="10.00">optional</text>
</a>
</g>
</g>
<!-- Node4&#45;&gt;Node11 -->
<g id="edge12" class="edge">
<title>Node4&#45;&gt;Node11</title>
<path fill="none" stroke="#63b8ff" d="M387.03,-110.09C406.72,-101.64 436.38,-88.9 458.81,-79.27"/>
<polygon fill="#63b8ff" stroke="#63b8ff" points="460.05,-82.11 467.86,-74.95 457.29,-75.68 460.05,-82.11"/>
</g>
<!-- Node12 -->
<g id="node12" class="node">
<title>Node12</title>
<g id="a_node12"><a xlink:title=" ">
<polygon fill="#e0e0e0" stroke="#999999" points="127.5,-74.5 66.5,-74.5 66.5,-55.25 127.5,-55.25 127.5,-74.5"/>
<text text-anchor="middle" x="97" y="-61" font-family="Helvetica,sans-Serif" font-size="10.00">type_traits</text>
</a>
</g>
</g>
<!-- Node4&#45;&gt;Node12 -->
<g id="edge13" class="edge">
<title>Node4&#45;&gt;Node12</title>
<path fill="none" stroke="#63b8ff" d="M331.43,-112.61C288.57,-104.49 213.02,-90 138.5,-74.78"/>
<polygon fill="#63b8ff" stroke="#63b8ff" points="139.5,-71.2 129,-72.62 138.09,-78.06 139.5,-71.2"/>
</g>
<!-- Node4&#45;&gt;Node13 -->
<g id="edge14" class="edge">
<title>Node4&#45;&gt;Node13</title>
<path fill="none" stroke="#63b8ff" d="M400.43,-113.81C448.65,-106.25 539.28,-91.6 626.22,-74.77"/>
<polygon fill="#63b8ff" stroke="#63b8ff" points="626.65,-78.06 635.8,-72.71 625.31,-71.19 626.65,-78.06"/>
</g>
<!-- Node13&#45;&gt;Node2 -->
<g id="edge15" class="edge">
<title>Node13&#45;&gt;Node2</title>
<path fill="none" stroke="#63b8ff" d="M636.82,-56.93C633.85,-56.33 630.87,-55.76 628,-55.25 518.8,-36 388.42,-21.03 326.33,-14.38"/>
<polygon fill="#63b8ff" stroke="#63b8ff" points="326.87,-10.81 316.56,-13.24 326.13,-17.77 326.87,-10.81"/>
</g>
<!-- Node14&#45;&gt;Node4 -->
<g id="edge22" class="edge">
<title>Node14&#45;&gt;Node4</title>
<path fill="none" stroke="#63b8ff" d="M243.73,-224.61C273.28,-219.22 311.17,-208.05 337,-185 350.06,-173.34 357.6,-154.64 361.7,-140.47"/>
<polygon fill="#63b8ff" stroke="#63b8ff" points="365.31,-141.45 364.38,-130.9 358.53,-139.73 365.31,-141.45"/>
</g>
<!-- Node14&#45;&gt;Node5 -->
<g id="edge17" class="edge">
<title>Node14&#45;&gt;Node5</title>
<path fill="none" stroke="#63b8ff" d="M190.23,-220.62C182.68,-212.2 172.34,-198.86 168,-185 157.42,-151.22 162.32,-109.38 166.74,-85.35"/>
<polygon fill="#63b8ff" stroke="#63b8ff" points="170.32,-86.31 168.86,-75.81 163.45,-84.93 170.32,-86.31"/>
</g>
<!-- Node14&#45;&gt;Node12 -->
<g id="edge18" class="edge">
<title>Node14&#45;&gt;Node12</title>
<path fill="none" stroke="#63b8ff" d="M189.96,-220.57C181.59,-211.9 169.09,-198.23 160,-185 137.11,-151.72 116.44,-109.14 105.41,-84.95"/>
<polygon fill="#63b8ff" stroke="#63b8ff" points="108.21,-83.64 100.92,-75.95 101.82,-86.5 108.21,-83.64"/>
</g>
<!-- Node15 -->
<g id="node15" class="node">
<title>Node15</title>
<g id="a_node15"><a xlink:title=" ">
<polygon fill="#e0e0e0" stroke="#999999" points="220.5,-185 177.5,-185 177.5,-165.75 220.5,-165.75 220.5,-185"/>
<text text-anchor="middle" x="199" y="-171.5" font-family="Helvetica,sans-Serif" font-size="10.00">vector</text>
</a>
</g>
</g>
<!-- Node14&#45;&gt;Node15 -->
<g id="edge19" class="edge">
<title>Node14&#45;&gt;Node15</title>
<path fill="none" stroke="#63b8ff" d="M199,-220.83C199,-214.17 199,-204.74 199,-196.28"/>
<polygon fill="#63b8ff" stroke="#63b8ff" points="202.5,-196.36 199,-186.36 195.5,-196.36 202.5,-196.36"/>
</g>
<!-- Node16 -->
<g id="node16" class="node">
<title>Node16</title>
<g id="a_node16"><a xlink:href="v8-handle-base_8h.html" target="_top" xlink:title=" ">
<polygon fill="white" stroke="#666666" points="327.75,-185 238.25,-185 238.25,-165.75 327.75,-165.75 327.75,-185"/>
<text text-anchor="middle" x="283" y="-171.5" font-family="Helvetica,sans-Serif" font-size="10.00">v8&#45;handle&#45;base.h</text>
</a>
</g>
</g>
<!-- Node14&#45;&gt;Node16 -->
<g id="edge20" class="edge">
<title>Node14&#45;&gt;Node16</title>
<path fill="none" stroke="#63b8ff" d="M213.25,-220.59C225.92,-212.56 244.69,-200.66 259.57,-191.23"/>
<polygon fill="#63b8ff" stroke="#63b8ff" points="261.11,-193.76 267.68,-185.45 257.36,-187.85 261.11,-193.76"/>
</g>
<!-- Node16&#45;&gt;Node4 -->
<g id="edge21" class="edge">
<title>Node16&#45;&gt;Node4</title>
<path fill="none" stroke="#63b8ff" d="M297.08,-165.34C309.6,-157.31 328.15,-145.41 342.85,-135.98"/>
<polygon fill="#63b8ff" stroke="#63b8ff" points="344.32,-138.55 350.85,-130.2 340.54,-132.66 344.32,-138.55"/>
</g>
</g>
</svg>
