<?xml version="1.0" encoding="UTF-8" standalone="no"?>
<!DOCTYPE svg PUBLIC "-//W3C//DTD SVG 1.1//EN"
 "http://www.w3.org/Graphics/SVG/1.1/DTD/svg11.dtd">
<!-- Generated by graphviz version 8.0.5 (20230430.1635)
 -->
<!-- Title: include/v8&#45;wasm&#45;trap&#45;handler&#45;posix.h Pages: 1 -->
<svg width="134pt" height="149pt"
 viewBox="0.00 0.00 134.25 149.00" xmlns="http://www.w3.org/2000/svg" xmlns:xlink="http://www.w3.org/1999/xlink">
<g id="graph0" class="graph" transform="scale(1 1) rotate(0) translate(4 145)">
<title>include/v8&#45;wasm&#45;trap&#45;handler&#45;posix.h</title>
<!-- Node1 -->
<g id="node1" class="node">
<title>Node1</title>
<g id="a_node1"><a xlink:title=" ">
<polygon fill="#999999" stroke="#666666" points="115,-141 6,-141 6,-110.5 115,-110.5 115,-141"/>
<text text-anchor="start" x="14" y="-127.5" font-family="Helvetica,sans-Serif" font-size="10.00">include/v8&#45;wasm&#45;trap</text>
<text text-anchor="middle" x="60.5" y="-116.25" font-family="Helvetica,sans-Serif" font-size="10.00">&#45;handler&#45;posix.h</text>
</a>
</g>
</g>
<!-- Node2 -->
<g id="node2" class="node">
<title>Node2</title>
<g id="a_node2"><a xlink:title=" ">
<polygon fill="#e0e0e0" stroke="#999999" points="49,-74.5 0,-74.5 0,-55.25 49,-55.25 49,-74.5"/>
<text text-anchor="middle" x="24.5" y="-61" font-family="Helvetica,sans-Serif" font-size="10.00">signal.h</text>
</a>
</g>
</g>
<!-- Node1&#45;&gt;Node2 -->
<g id="edge1" class="edge">
<title>Node1&#45;&gt;Node2</title>
<path fill="none" stroke="#63b8ff" d="M51.6,-110.2C46.81,-102.35 40.84,-92.6 35.73,-84.24"/>
<polygon fill="#63b8ff" stroke="#63b8ff" points="38.25,-82.66 30.05,-75.95 32.28,-86.31 38.25,-82.66"/>
</g>
<!-- Node3 -->
<g id="node3" class="node">
<title>Node3</title>
<g id="a_node3"><a xlink:href="v8config_8h.html" target="_top" xlink:title=" ">
<polygon fill="white" stroke="#666666" points="126.25,-74.5 66.75,-74.5 66.75,-55.25 126.25,-55.25 126.25,-74.5"/>
<text text-anchor="middle" x="96.5" y="-61" font-family="Helvetica,sans-Serif" font-size="10.00">v8config.h</text>
</a>
</g>
</g>
<!-- Node1&#45;&gt;Node3 -->
<g id="edge2" class="edge">
<title>Node1&#45;&gt;Node3</title>
<path fill="none" stroke="#63b8ff" d="M69.4,-110.2C74.19,-102.35 80.16,-92.6 85.27,-84.24"/>
<polygon fill="#63b8ff" stroke="#63b8ff" points="88.72,-86.31 90.95,-75.95 82.75,-82.66 88.72,-86.31"/>
</g>
<!-- Node4 -->
<g id="node4" class="node">
<title>Node4</title>
<g id="a_node4"><a xlink:title=" ">
<polygon fill="#e0e0e0" stroke="#999999" points="121.75,-19.25 71.25,-19.25 71.25,0 121.75,0 121.75,-19.25"/>
<text text-anchor="middle" x="96.5" y="-5.75" font-family="Helvetica,sans-Serif" font-size="10.00">memory</text>
</a>
</g>
</g>
<!-- Node3&#45;&gt;Node4 -->
<g id="edge3" class="edge">
<title>Node3&#45;&gt;Node4</title>
<path fill="none" stroke="#63b8ff" d="M96.5,-55.08C96.5,-48.42 96.5,-38.99 96.5,-30.53"/>
<polygon fill="#63b8ff" stroke="#63b8ff" points="100,-30.61 96.5,-20.61 93,-30.61 100,-30.61"/>
</g>
</g>
</svg>
