<?xml version="1.0" encoding="UTF-8" standalone="no"?>
<!DOCTYPE svg PUBLIC "-//W3C//DTD SVG 1.1//EN"
 "http://www.w3.org/Graphics/SVG/1.1/DTD/svg11.dtd">
<!-- Generated by graphviz version 8.0.5 (20230430.1635)
 -->
<!-- Title: v8::ArrayBufferView Pages: 1 -->
<svg width="109pt" height="193pt"
 viewBox="0.00 0.00 108.75 193.00" xmlns="http://www.w3.org/2000/svg" xmlns:xlink="http://www.w3.org/1999/xlink">
<g id="graph0" class="graph" transform="scale(1 1) rotate(0) translate(4 189)">
<title>v8::ArrayBufferView</title>
<!-- Node1 -->
<g id="node1" class="node">
<title>Node1</title>
<g id="a_node1"><a xlink:title=" ">
<polygon fill="#999999" stroke="#666666" points="100.75,-19.25 0,-19.25 0,0 100.75,0 100.75,-19.25"/>
<text text-anchor="middle" x="50.38" y="-5.75" font-family="Helvetica,sans-Serif" font-size="10.00">v8::ArrayBufferView</text>
</a>
</g>
</g>
<!-- Node2 -->
<g id="node2" class="node">
<title>Node2</title>
<g id="a_node2"><a xlink:href="classv8_1_1Object.html" target="_top" xlink:title=" ">
<polygon fill="white" stroke="#666666" points="80.12,-74.5 20.62,-74.5 20.62,-55.25 80.12,-55.25 80.12,-74.5"/>
<text text-anchor="middle" x="50.38" y="-61" font-family="Helvetica,sans-Serif" font-size="10.00">v8::Object</text>
</a>
</g>
</g>
<!-- Node2&#45;&gt;Node1 -->
<g id="edge1" class="edge">
<title>Node2&#45;&gt;Node1</title>
<path fill="none" stroke="#63b8ff" d="M50.38,-44.21C50.38,-35.77 50.38,-26.33 50.38,-19.61"/>
<polygon fill="#63b8ff" stroke="#63b8ff" points="46.88,-44.08 50.38,-54.08 53.88,-44.08 46.88,-44.08"/>
</g>
<!-- Node3 -->
<g id="node3" class="node">
<title>Node3</title>
<g id="a_node3"><a xlink:href="classv8_1_1Value.html" target="_top" xlink:title=" ">
<polygon fill="white" stroke="#666666" points="78.25,-129.75 22.5,-129.75 22.5,-110.5 78.25,-110.5 78.25,-129.75"/>
<text text-anchor="middle" x="50.38" y="-116.25" font-family="Helvetica,sans-Serif" font-size="10.00">v8::Value</text>
</a>
</g>
</g>
<!-- Node3&#45;&gt;Node2 -->
<g id="edge2" class="edge">
<title>Node3&#45;&gt;Node2</title>
<path fill="none" stroke="#63b8ff" d="M50.38,-99.46C50.38,-91.02 50.38,-81.58 50.38,-74.86"/>
<polygon fill="#63b8ff" stroke="#63b8ff" points="46.88,-99.33 50.38,-109.33 53.88,-99.33 46.88,-99.33"/>
</g>
<!-- Node4 -->
<g id="node4" class="node">
<title>Node4</title>
<g id="a_node4"><a xlink:href="classv8_1_1Data.html" target="_top" xlink:title=" ">
<polygon fill="white" stroke="#666666" points="76,-185 24.75,-185 24.75,-165.75 76,-165.75 76,-185"/>
<text text-anchor="middle" x="50.38" y="-171.5" font-family="Helvetica,sans-Serif" font-size="10.00">v8::Data</text>
</a>
</g>
</g>
<!-- Node4&#45;&gt;Node3 -->
<g id="edge3" class="edge">
<title>Node4&#45;&gt;Node3</title>
<path fill="none" stroke="#63b8ff" d="M50.38,-154.71C50.38,-146.27 50.38,-136.83 50.38,-130.11"/>
<polygon fill="#63b8ff" stroke="#63b8ff" points="46.88,-154.58 50.38,-164.58 53.88,-154.58 46.88,-154.58"/>
</g>
</g>
</svg>
