<?xml version="1.0" encoding="UTF-8" standalone="no"?>
<!DOCTYPE svg PUBLIC "-//W3C//DTD SVG 1.1//EN"
 "http://www.w3.org/Graphics/SVG/1.1/DTD/svg11.dtd">
<!-- Generated by graphviz version 8.0.5 (20230430.1635)
 -->
<!-- Title: v8::Object Pages: 1 -->
<svg width="671pt" height="804pt"
 viewBox="0.00 0.00 671.00 804.25" xmlns="http://www.w3.org/2000/svg" xmlns:xlink="http://www.w3.org/1999/xlink">
<g id="graph0" class="graph" transform="scale(1 1) rotate(0) translate(4 800.25)">
<title>v8::Object</title>
<!-- Node1 -->
<g id="node1" class="node">
<title>Node1</title>
<g id="a_node1"><a xlink:title=" ">
<polygon fill="#999999" stroke="#666666" points="238.5,-352.25 179,-352.25 179,-333 238.5,-333 238.5,-352.25"/>
<text text-anchor="middle" x="208.75" y="-338.75" font-family="Helvetica,sans-Serif" font-size="10.00">v8::Object</text>
</a>
</g>
</g>
<!-- Node4 -->
<g id="node4" class="node">
<title>Node4</title>
<g id="a_node4"><a xlink:href="classv8_1_1Array.html" target="_top" xlink:title=" ">
<polygon fill="white" stroke="#666666" points="362.12,-685.25 308.62,-685.25 308.62,-666 362.12,-666 362.12,-685.25"/>
<text text-anchor="middle" x="335.38" y="-671.75" font-family="Helvetica,sans-Serif" font-size="10.00">v8::Array</text>
</a>
</g>
</g>
<!-- Node1&#45;&gt;Node4 -->
<g id="edge3" class="edge">
<title>Node1&#45;&gt;Node4</title>
<path fill="none" stroke="#63b8ff" d="M211.3,-363.58C216.39,-426.81 234.59,-613.98 274.5,-657.62 283.07,-667 296.31,-671.56 308.17,-673.76"/>
<polygon fill="#63b8ff" stroke="#63b8ff" points="214.72,-363.37 210.46,-353.67 207.74,-363.91 214.72,-363.37"/>
</g>
<!-- Node5 -->
<g id="node5" class="node">
<title>Node5</title>
<g id="a_node5"><a xlink:href="classv8_1_1ArrayBuffer.html" target="_top" xlink:title=" ">
<polygon fill="white" stroke="#666666" points="374.88,-648.25 295.88,-648.25 295.88,-629 374.88,-629 374.88,-648.25"/>
<text text-anchor="middle" x="335.38" y="-634.75" font-family="Helvetica,sans-Serif" font-size="10.00">v8::ArrayBuffer</text>
</a>
</g>
</g>
<!-- Node1&#45;&gt;Node5 -->
<g id="edge4" class="edge">
<title>Node1&#45;&gt;Node5</title>
<path fill="none" stroke="#63b8ff" d="M211.9,-363.37C218.3,-421.28 239.04,-582.85 274.5,-620.62 280.15,-626.64 287.72,-630.67 295.57,-633.36"/>
<polygon fill="#63b8ff" stroke="#63b8ff" points="215.3,-363.24 210.75,-353.67 208.34,-363.99 215.3,-363.24"/>
</g>
<!-- Node6 -->
<g id="node6" class="node">
<title>Node6</title>
<g id="a_node6"><a xlink:href="classv8_1_1ArrayBufferView.html" target="_top" xlink:title=" ">
<polygon fill="white" stroke="#666666" points="385.75,-611.25 285,-611.25 285,-592 385.75,-592 385.75,-611.25"/>
<text text-anchor="middle" x="335.38" y="-597.75" font-family="Helvetica,sans-Serif" font-size="10.00">v8::ArrayBufferView</text>
</a>
</g>
</g>
<!-- Node1&#45;&gt;Node6 -->
<g id="edge5" class="edge">
<title>Node1&#45;&gt;Node6</title>
<path fill="none" stroke="#63b8ff" d="M209.02,-363.47C208.59,-409.68 214.24,-521.55 274.5,-583.62 277.6,-586.82 281.24,-589.45 285.18,-591.62"/>
<polygon fill="#63b8ff" stroke="#63b8ff" points="212.54,-363.57 209.26,-353.5 205.54,-363.42 212.54,-363.57"/>
</g>
<!-- Node21 -->
<g id="node21" class="node">
<title>Node21</title>
<g id="a_node21"><a xlink:href="classv8_1_1BigIntObject.html" target="_top" xlink:title=" ">
<polygon fill="white" stroke="#666666" points="377.88,-574.25 292.88,-574.25 292.88,-555 377.88,-555 377.88,-574.25"/>
<text text-anchor="middle" x="335.38" y="-560.75" font-family="Helvetica,sans-Serif" font-size="10.00">v8::BigIntObject</text>
</a>
</g>
</g>
<!-- Node1&#45;&gt;Node21 -->
<g id="edge20" class="edge">
<title>Node1&#45;&gt;Node21</title>
<path fill="none" stroke="#63b8ff" d="M210.24,-363.29C212.34,-404.18 222.92,-495.82 274.5,-546.62 279.53,-551.58 285.86,-555.17 292.51,-557.78"/>
<polygon fill="#63b8ff" stroke="#63b8ff" points="213.7,-363.19 209.82,-353.33 206.7,-363.46 213.7,-363.19"/>
</g>
<!-- Node22 -->
<g id="node22" class="node">
<title>Node22</title>
<g id="a_node22"><a xlink:href="classv8_1_1BooleanObject.html" target="_top" xlink:title=" ">
<polygon fill="white" stroke="#666666" points="382.75,-537.25 288,-537.25 288,-518 382.75,-518 382.75,-537.25"/>
<text text-anchor="middle" x="335.38" y="-523.75" font-family="Helvetica,sans-Serif" font-size="10.00">v8::BooleanObject</text>
</a>
</g>
</g>
<!-- Node1&#45;&gt;Node22 -->
<g id="edge21" class="edge">
<title>Node1&#45;&gt;Node22</title>
<path fill="none" stroke="#63b8ff" d="M211.96,-363.39C216.8,-398.58 231.62,-469.96 274.5,-509.62 278.32,-513.16 282.82,-516.01 287.6,-518.29"/>
<polygon fill="#63b8ff" stroke="#63b8ff" points="215.32,-363.07 210.63,-353.57 208.37,-363.92 215.32,-363.07"/>
</g>
<!-- Node23 -->
<g id="node23" class="node">
<title>Node23</title>
<g id="a_node23"><a xlink:href="classv8_1_1Date.html" target="_top" xlink:title=" ">
<polygon fill="white" stroke="#666666" points="361,-500.25 309.75,-500.25 309.75,-481 361,-481 361,-500.25"/>
<text text-anchor="middle" x="335.38" y="-486.75" font-family="Helvetica,sans-Serif" font-size="10.00">v8::Date</text>
</a>
</g>
</g>
<!-- Node1&#45;&gt;Node23 -->
<g id="edge22" class="edge">
<title>Node1&#45;&gt;Node23</title>
<path fill="none" stroke="#63b8ff" d="M214.4,-362.8C222.02,-391.4 239.93,-443.49 274.5,-472.62 284.29,-480.88 297.78,-485.35 309.47,-487.77"/>
<polygon fill="#63b8ff" stroke="#63b8ff" points="217.63,-362.29 211.81,-353.43 210.84,-363.98 217.63,-362.29"/>
</g>
<!-- Node24 -->
<g id="node24" class="node">
<title>Node24</title>
<g id="a_node24"><a xlink:href="classv8_1_1Function.html" target="_top" xlink:title=" ">
<polygon fill="white" stroke="#666666" points="369.62,-463.25 301.12,-463.25 301.12,-444 369.62,-444 369.62,-463.25"/>
<text text-anchor="middle" x="335.38" y="-449.75" font-family="Helvetica,sans-Serif" font-size="10.00">v8::Function</text>
</a>
</g>
</g>
<!-- Node1&#45;&gt;Node24 -->
<g id="edge23" class="edge">
<title>Node1&#45;&gt;Node24</title>
<path fill="none" stroke="#63b8ff" d="M218.64,-362.55C229.07,-383.7 248.32,-416.65 274.5,-435.62 282.23,-441.23 291.73,-445.11 300.85,-447.79"/>
<polygon fill="#63b8ff" stroke="#63b8ff" points="221.43,-361.26 214,-353.7 215.09,-364.24 221.43,-361.26"/>
</g>
<!-- Node25 -->
<g id="node25" class="node">
<title>Node25</title>
<g id="a_node25"><a xlink:href="classv8_1_1Map.html" target="_top" xlink:title=" ">
<polygon fill="white" stroke="#666666" points="360.25,-426.25 310.5,-426.25 310.5,-407 360.25,-407 360.25,-426.25"/>
<text text-anchor="middle" x="335.38" y="-412.75" font-family="Helvetica,sans-Serif" font-size="10.00">v8::Map</text>
</a>
</g>
</g>
<!-- Node1&#45;&gt;Node25 -->
<g id="edge24" class="edge">
<title>Node1&#45;&gt;Node25</title>
<path fill="none" stroke="#63b8ff" d="M225.99,-360.17C238.26,-372.48 256.09,-388.5 274.5,-398.62 285.53,-404.69 298.86,-408.95 310.14,-411.8"/>
<polygon fill="#63b8ff" stroke="#63b8ff" points="228.91,-358.11 219.45,-353.35 223.87,-362.97 228.91,-358.11"/>
</g>
<!-- Node26 -->
<g id="node26" class="node">
<title>Node26</title>
<g id="a_node26"><a xlink:href="classv8_1_1NumberObject.html" target="_top" xlink:title=" ">
<polygon fill="white" stroke="#666666" points="382.38,-389.25 288.38,-389.25 288.38,-370 382.38,-370 382.38,-389.25"/>
<text text-anchor="middle" x="335.38" y="-375.75" font-family="Helvetica,sans-Serif" font-size="10.00">v8::NumberObject</text>
</a>
</g>
</g>
<!-- Node1&#45;&gt;Node26 -->
<g id="edge25" class="edge">
<title>Node1&#45;&gt;Node26</title>
<path fill="none" stroke="#63b8ff" d="M249.37,-354.39C265.81,-359.27 284.7,-364.88 300.49,-369.56"/>
<polygon fill="#63b8ff" stroke="#63b8ff" points="250.55,-350.79 239.97,-351.3 248.56,-357.5 250.55,-350.79"/>
</g>
<!-- Node27 -->
<g id="node27" class="node">
<title>Node27</title>
<g id="a_node27"><a xlink:href="classv8_1_1Promise.html" target="_top" xlink:title=" ">
<polygon fill="white" stroke="#666666" points="368.88,-352.25 301.88,-352.25 301.88,-333 368.88,-333 368.88,-352.25"/>
<text text-anchor="middle" x="335.38" y="-338.75" font-family="Helvetica,sans-Serif" font-size="10.00">v8::Promise</text>
</a>
</g>
</g>
<!-- Node1&#45;&gt;Node27 -->
<g id="edge26" class="edge">
<title>Node1&#45;&gt;Node27</title>
<path fill="none" stroke="#63b8ff" d="M249.53,-342.62C266.25,-342.62 285.47,-342.62 301.38,-342.62"/>
<polygon fill="#63b8ff" stroke="#63b8ff" points="249.97,-339.13 239.97,-342.62 249.97,-346.13 249.97,-339.13"/>
</g>
<!-- Node28 -->
<g id="node28" class="node">
<title>Node28</title>
<g id="a_node28"><a xlink:href="classv8_1_1Promise_1_1Resolver.html" target="_top" xlink:title=" ">
<polygon fill="white" stroke="#666666" points="390.25,-315.25 280.5,-315.25 280.5,-296 390.25,-296 390.25,-315.25"/>
<text text-anchor="middle" x="335.38" y="-301.75" font-family="Helvetica,sans-Serif" font-size="10.00">v8::Promise::Resolver</text>
</a>
</g>
</g>
<!-- Node1&#45;&gt;Node28 -->
<g id="edge27" class="edge">
<title>Node1&#45;&gt;Node28</title>
<path fill="none" stroke="#63b8ff" d="M249.37,-330.86C265.81,-325.98 284.7,-320.37 300.49,-315.69"/>
<polygon fill="#63b8ff" stroke="#63b8ff" points="248.56,-327.75 239.97,-333.95 250.55,-334.46 248.56,-327.75"/>
</g>
<!-- Node29 -->
<g id="node29" class="node">
<title>Node29</title>
<g id="a_node29"><a xlink:href="classv8_1_1Proxy.html" target="_top" xlink:title=" ">
<polygon fill="white" stroke="#666666" points="362.88,-278.25 307.88,-278.25 307.88,-259 362.88,-259 362.88,-278.25"/>
<text text-anchor="middle" x="335.38" y="-264.75" font-family="Helvetica,sans-Serif" font-size="10.00">v8::Proxy</text>
</a>
</g>
</g>
<!-- Node1&#45;&gt;Node29 -->
<g id="edge28" class="edge">
<title>Node1&#45;&gt;Node29</title>
<path fill="none" stroke="#63b8ff" d="M225.99,-325.08C238.26,-312.77 256.09,-296.75 274.5,-286.62 284.68,-281.03 296.81,-276.97 307.48,-274.13"/>
<polygon fill="#63b8ff" stroke="#63b8ff" points="223.87,-322.28 219.45,-331.9 228.91,-327.14 223.87,-322.28"/>
</g>
<!-- Node30 -->
<g id="node30" class="node">
<title>Node30</title>
<g id="a_node30"><a xlink:href="classv8_1_1RegExp.html" target="_top" xlink:title=" ">
<polygon fill="white" stroke="#666666" points="367.38,-241.25 303.38,-241.25 303.38,-222 367.38,-222 367.38,-241.25"/>
<text text-anchor="middle" x="335.38" y="-227.75" font-family="Helvetica,sans-Serif" font-size="10.00">v8::RegExp</text>
</a>
</g>
</g>
<!-- Node1&#45;&gt;Node30 -->
<g id="edge29" class="edge">
<title>Node1&#45;&gt;Node30</title>
<path fill="none" stroke="#63b8ff" d="M218.64,-322.7C229.07,-301.55 248.32,-268.6 274.5,-249.62 282.85,-243.57 293.25,-239.53 303.02,-236.85"/>
<polygon fill="#63b8ff" stroke="#63b8ff" points="215.09,-321.01 214,-331.55 221.43,-323.99 215.09,-321.01"/>
</g>
<!-- Node31 -->
<g id="node31" class="node">
<title>Node31</title>
<g id="a_node31"><a xlink:href="classv8_1_1Set.html" target="_top" xlink:title=" ">
<polygon fill="white" stroke="#666666" points="358.38,-204.25 312.38,-204.25 312.38,-185 358.38,-185 358.38,-204.25"/>
<text text-anchor="middle" x="335.38" y="-190.75" font-family="Helvetica,sans-Serif" font-size="10.00">v8::Set</text>
</a>
</g>
</g>
<!-- Node1&#45;&gt;Node31 -->
<g id="edge30" class="edge">
<title>Node1&#45;&gt;Node31</title>
<path fill="none" stroke="#63b8ff" d="M214.4,-322.45C222.02,-293.85 239.93,-241.76 274.5,-212.62 285.04,-203.74 299.86,-199.24 312.12,-196.96"/>
<polygon fill="#63b8ff" stroke="#63b8ff" points="210.84,-321.27 211.81,-331.82 217.63,-322.96 210.84,-321.27"/>
</g>
<!-- Node32 -->
<g id="node32" class="node">
<title>Node32</title>
<g id="a_node32"><a xlink:href="classv8_1_1SharedArrayBuffer.html" target="_top" xlink:title=" ">
<polygon fill="white" stroke="#666666" points="390.25,-167.25 280.5,-167.25 280.5,-148 390.25,-148 390.25,-167.25"/>
<text text-anchor="middle" x="335.38" y="-153.75" font-family="Helvetica,sans-Serif" font-size="10.00">v8::SharedArrayBuffer</text>
</a>
</g>
</g>
<!-- Node1&#45;&gt;Node32 -->
<g id="edge31" class="edge">
<title>Node1&#45;&gt;Node32</title>
<path fill="none" stroke="#63b8ff" d="M211.96,-321.86C216.8,-286.67 231.62,-215.29 274.5,-175.62 277.93,-172.46 281.89,-169.84 286.12,-167.69"/>
<polygon fill="#63b8ff" stroke="#63b8ff" points="208.37,-321.33 210.63,-331.68 215.32,-322.18 208.37,-321.33"/>
</g>
<!-- Node33 -->
<g id="node33" class="node">
<title>Node33</title>
<g id="a_node33"><a xlink:href="classv8_1_1StringObject.html" target="_top" xlink:title=" ">
<polygon fill="white" stroke="#666666" points="377.88,-130.25 292.88,-130.25 292.88,-111 377.88,-111 377.88,-130.25"/>
<text text-anchor="middle" x="335.38" y="-116.75" font-family="Helvetica,sans-Serif" font-size="10.00">v8::StringObject</text>
</a>
</g>
</g>
<!-- Node1&#45;&gt;Node33 -->
<g id="edge32" class="edge">
<title>Node1&#45;&gt;Node33</title>
<path fill="none" stroke="#63b8ff" d="M210.24,-321.96C212.34,-281.07 222.92,-189.43 274.5,-138.62 279.53,-133.67 285.86,-130.08 292.51,-127.47"/>
<polygon fill="#63b8ff" stroke="#63b8ff" points="206.7,-321.79 209.82,-331.92 213.7,-322.06 206.7,-321.79"/>
</g>
<!-- Node34 -->
<g id="node34" class="node">
<title>Node34</title>
<g id="a_node34"><a xlink:href="classv8_1_1SymbolObject.html" target="_top" xlink:title=" ">
<polygon fill="white" stroke="#666666" points="381.25,-93.25 289.5,-93.25 289.5,-74 381.25,-74 381.25,-93.25"/>
<text text-anchor="middle" x="335.38" y="-79.75" font-family="Helvetica,sans-Serif" font-size="10.00">v8::SymbolObject</text>
</a>
</g>
</g>
<!-- Node1&#45;&gt;Node34 -->
<g id="edge33" class="edge">
<title>Node1&#45;&gt;Node34</title>
<path fill="none" stroke="#63b8ff" d="M209.02,-321.78C208.59,-275.57 214.24,-163.7 274.5,-101.62 278.66,-97.34 283.79,-94.07 289.29,-91.57"/>
<polygon fill="#63b8ff" stroke="#63b8ff" points="205.54,-321.83 209.26,-331.75 212.54,-321.68 205.54,-321.83"/>
</g>
<!-- Node35 -->
<g id="node35" class="node">
<title>Node35</title>
<g id="a_node35"><a xlink:href="classv8_1_1WasmMemoryObject.html" target="_top" xlink:title=" ">
<polygon fill="white" stroke="#666666" points="396.25,-56.25 274.5,-56.25 274.5,-37 396.25,-37 396.25,-56.25"/>
<text text-anchor="middle" x="335.38" y="-42.75" font-family="Helvetica,sans-Serif" font-size="10.00">v8::WasmMemoryObject</text>
</a>
</g>
</g>
<!-- Node1&#45;&gt;Node35 -->
<g id="edge34" class="edge">
<title>Node1&#45;&gt;Node35</title>
<path fill="none" stroke="#63b8ff" d="M211.9,-321.88C218.3,-263.97 239.04,-102.4 274.5,-64.62 277.47,-61.46 280.98,-58.84 284.78,-56.68"/>
<polygon fill="#63b8ff" stroke="#63b8ff" points="208.34,-321.26 210.75,-331.58 215.3,-322.01 208.34,-321.26"/>
</g>
<!-- Node36 -->
<g id="node36" class="node">
<title>Node36</title>
<g id="a_node36"><a xlink:href="classv8_1_1WasmModuleObject.html" target="_top" xlink:title=" ">
<polygon fill="white" stroke="#666666" points="394.75,-19.25 276,-19.25 276,0 394.75,0 394.75,-19.25"/>
<text text-anchor="middle" x="335.38" y="-5.75" font-family="Helvetica,sans-Serif" font-size="10.00">v8::WasmModuleObject</text>
</a>
</g>
</g>
<!-- Node1&#45;&gt;Node36 -->
<g id="edge35" class="edge">
<title>Node1&#45;&gt;Node36</title>
<path fill="none" stroke="#63b8ff" d="M211.3,-321.67C216.39,-258.44 234.59,-71.27 274.5,-27.62 277.43,-24.42 280.91,-21.78 284.69,-19.6"/>
<polygon fill="#63b8ff" stroke="#63b8ff" points="207.74,-321.34 210.46,-331.58 214.72,-321.88 207.74,-321.34"/>
</g>
<!-- Node2 -->
<g id="node2" class="node">
<title>Node2</title>
<g id="a_node2"><a xlink:href="classv8_1_1Value.html" target="_top" xlink:title=" ">
<polygon fill="white" stroke="#666666" points="143,-352.25 87.25,-352.25 87.25,-333 143,-333 143,-352.25"/>
<text text-anchor="middle" x="115.12" y="-338.75" font-family="Helvetica,sans-Serif" font-size="10.00">v8::Value</text>
</a>
</g>
</g>
<!-- Node2&#45;&gt;Node1 -->
<g id="edge1" class="edge">
<title>Node2&#45;&gt;Node1</title>
<path fill="none" stroke="#63b8ff" d="M154.04,-342.62C162.28,-342.62 170.88,-342.62 178.71,-342.62"/>
<polygon fill="#63b8ff" stroke="#63b8ff" points="154.12,-339.13 144.12,-342.62 154.12,-346.13 154.12,-339.13"/>
</g>
<!-- Node3 -->
<g id="node3" class="node">
<title>Node3</title>
<g id="a_node3"><a xlink:href="classv8_1_1Data.html" target="_top" xlink:title=" ">
<polygon fill="white" stroke="#666666" points="51.25,-352.25 0,-352.25 0,-333 51.25,-333 51.25,-352.25"/>
<text text-anchor="middle" x="25.62" y="-338.75" font-family="Helvetica,sans-Serif" font-size="10.00">v8::Data</text>
</a>
</g>
</g>
<!-- Node3&#45;&gt;Node2 -->
<g id="edge2" class="edge">
<title>Node3&#45;&gt;Node2</title>
<path fill="none" stroke="#63b8ff" d="M62.26,-342.62C70.43,-342.62 79,-342.62 86.77,-342.62"/>
<polygon fill="#63b8ff" stroke="#63b8ff" points="62.46,-339.13 52.46,-342.62 62.46,-346.13 62.46,-339.13"/>
</g>
<!-- Node7 -->
<g id="node7" class="node">
<title>Node7</title>
<g id="a_node7"><a xlink:href="classv8_1_1DataView.html" target="_top" xlink:title=" ">
<polygon fill="white" stroke="#666666" points="508.62,-629.25 435.62,-629.25 435.62,-610 508.62,-610 508.62,-629.25"/>
<text text-anchor="middle" x="472.12" y="-615.75" font-family="Helvetica,sans-Serif" font-size="10.00">v8::DataView</text>
</a>
</g>
</g>
<!-- Node6&#45;&gt;Node7 -->
<g id="edge6" class="edge">
<title>Node6&#45;&gt;Node7</title>
<path fill="none" stroke="#63b8ff" d="M397.06,-609.73C410.18,-611.48 423.64,-613.28 435.42,-614.86"/>
<polygon fill="#63b8ff" stroke="#63b8ff" points="397.54,-606.13 387.17,-608.28 396.62,-613.07 397.54,-606.13"/>
</g>
<!-- Node8 -->
<g id="node8" class="node">
<title>Node8</title>
<g id="a_node8"><a xlink:href="classv8_1_1TypedArray.html" target="_top" xlink:title=" ">
<polygon fill="white" stroke="#666666" points="512,-592.25 432.25,-592.25 432.25,-573 512,-573 512,-592.25"/>
<text text-anchor="middle" x="472.12" y="-578.75" font-family="Helvetica,sans-Serif" font-size="10.00">v8::TypedArray</text>
</a>
</g>
</g>
<!-- Node6&#45;&gt;Node8 -->
<g id="edge7" class="edge">
<title>Node6&#45;&gt;Node8</title>
<path fill="none" stroke="#63b8ff" d="M396.98,-593.08C408.89,-591.4 421.09,-589.68 432.06,-588.13"/>
<polygon fill="#63b8ff" stroke="#63b8ff" points="396.58,-589.74 387.17,-594.6 397.56,-596.67 396.58,-589.74"/>
</g>
<!-- Node9 -->
<g id="node9" class="node">
<title>Node9</title>
<g id="a_node9"><a xlink:href="classv8_1_1BigInt64Array.html" target="_top" xlink:title=" ">
<polygon fill="white" stroke="#666666" points="650.25,-796.25 560.75,-796.25 560.75,-777 650.25,-777 650.25,-796.25"/>
<text text-anchor="middle" x="605.5" y="-782.75" font-family="Helvetica,sans-Serif" font-size="10.00">v8::BigInt64Array</text>
</a>
</g>
</g>
<!-- Node8&#45;&gt;Node9 -->
<g id="edge8" class="edge">
<title>Node8&#45;&gt;Node9</title>
<path fill="none" stroke="#63b8ff" d="M511.28,-599.76C511.52,-600.04 511.76,-600.33 512,-600.62 559.67,-660.28 496.69,-712.07 548,-768.62 551.46,-772.44 555.72,-775.45 560.34,-777.82"/>
<polygon fill="#63b8ff" stroke="#63b8ff" points="513.77,-596.44 503.86,-592.7 509.27,-601.81 513.77,-596.44"/>
</g>
<!-- Node10 -->
<g id="node10" class="node">
<title>Node10</title>
<g id="a_node10"><a xlink:href="classv8_1_1BigUint64Array.html" target="_top" xlink:title=" ">
<polygon fill="white" stroke="#666666" points="653.62,-759.25 557.38,-759.25 557.38,-740 653.62,-740 653.62,-759.25"/>
<text text-anchor="middle" x="605.5" y="-745.75" font-family="Helvetica,sans-Serif" font-size="10.00">v8::BigUint64Array</text>
</a>
</g>
</g>
<!-- Node8&#45;&gt;Node10 -->
<g id="edge9" class="edge">
<title>Node8&#45;&gt;Node10</title>
<path fill="none" stroke="#63b8ff" d="M510.69,-599.17C511.14,-599.64 511.58,-600.13 512,-600.62 551.02,-646.7 506.17,-688.08 548,-731.62 551.07,-734.82 554.7,-737.45 558.62,-739.61"/>
<polygon fill="#63b8ff" stroke="#63b8ff" points="513.33,-596.01 503.3,-592.6 509.01,-601.52 513.33,-596.01"/>
</g>
<!-- Node11 -->
<g id="node11" class="node">
<title>Node11</title>
<g id="a_node11"><a xlink:href="classv8_1_1Float16Array.html" target="_top" xlink:title=" ">
<polygon fill="white" stroke="#666666" points="648.38,-722.25 562.62,-722.25 562.62,-703 648.38,-703 648.38,-722.25"/>
<text text-anchor="middle" x="605.5" y="-708.75" font-family="Helvetica,sans-Serif" font-size="10.00">v8::Float16Array</text>
</a>
</g>
</g>
<!-- Node8&#45;&gt;Node11 -->
<g id="edge10" class="edge">
<title>Node8&#45;&gt;Node11</title>
<path fill="none" stroke="#63b8ff" d="M510.28,-598.9C510.87,-599.46 511.45,-600.03 512,-600.62 542.54,-633.31 515.47,-663.91 548,-694.62 552.12,-698.51 557.07,-701.56 562.32,-703.95"/>
<polygon fill="#63b8ff" stroke="#63b8ff" points="512.78,-595.67 502.63,-592.62 508.66,-601.33 512.78,-595.67"/>
</g>
<!-- Node12 -->
<g id="node12" class="node">
<title>Node12</title>
<g id="a_node12"><a xlink:href="classv8_1_1Float32Array.html" target="_top" xlink:title=" ">
<polygon fill="white" stroke="#666666" points="648.38,-685.25 562.62,-685.25 562.62,-666 648.38,-666 648.38,-685.25"/>
<text text-anchor="middle" x="605.5" y="-671.75" font-family="Helvetica,sans-Serif" font-size="10.00">v8::Float32Array</text>
</a>
</g>
</g>
<!-- Node8&#45;&gt;Node12 -->
<g id="edge11" class="edge">
<title>Node8&#45;&gt;Node12</title>
<path fill="none" stroke="#63b8ff" d="M509.3,-598.42C510.23,-599.13 511.13,-599.86 512,-600.62 534.52,-620.39 524.29,-639.3 548,-657.62 552.32,-660.96 557.27,-663.69 562.41,-665.91"/>
<polygon fill="#63b8ff" stroke="#63b8ff" points="511.62,-595.11 501.29,-592.73 507.87,-601.03 511.62,-595.11"/>
</g>
<!-- Node13 -->
<g id="node13" class="node">
<title>Node13</title>
<g id="a_node13"><a xlink:href="classv8_1_1Float64Array.html" target="_top" xlink:title=" ">
<polygon fill="white" stroke="#666666" points="648.38,-648.25 562.62,-648.25 562.62,-629 648.38,-629 648.38,-648.25"/>
<text text-anchor="middle" x="605.5" y="-634.75" font-family="Helvetica,sans-Serif" font-size="10.00">v8::Float64Array</text>
</a>
</g>
</g>
<!-- Node8&#45;&gt;Node13 -->
<g id="edge12" class="edge">
<title>Node8&#45;&gt;Node13</title>
<path fill="none" stroke="#63b8ff" d="M505.35,-597.32C507.61,-598.42 509.85,-599.53 512,-600.62 528.32,-608.92 531.2,-613.37 548,-620.62 554.71,-623.52 562.04,-626.2 569.14,-628.55"/>
<polygon fill="#63b8ff" stroke="#63b8ff" points="507,-593.76 496.46,-592.63 503.99,-600.08 507,-593.76"/>
</g>
<!-- Node14 -->
<g id="node14" class="node">
<title>Node14</title>
<g id="a_node14"><a xlink:href="classv8_1_1Int16Array.html" target="_top" xlink:title=" ">
<polygon fill="white" stroke="#666666" points="643.12,-611.25 567.88,-611.25 567.88,-592 643.12,-592 643.12,-611.25"/>
<text text-anchor="middle" x="605.5" y="-597.75" font-family="Helvetica,sans-Serif" font-size="10.00">v8::Int16Array</text>
</a>
</g>
</g>
<!-- Node8&#45;&gt;Node14 -->
<g id="edge13" class="edge">
<title>Node8&#45;&gt;Node14</title>
<path fill="none" stroke="#63b8ff" d="M522.77,-589.8C537.65,-591.96 553.71,-594.28 567.62,-596.29"/>
<polygon fill="#63b8ff" stroke="#63b8ff" points="523.58,-586.24 513.19,-588.27 522.58,-593.17 523.58,-586.24"/>
</g>
<!-- Node15 -->
<g id="node15" class="node">
<title>Node15</title>
<g id="a_node15"><a xlink:href="classv8_1_1Int32Array.html" target="_top" xlink:title=" ">
<polygon fill="white" stroke="#666666" points="643.12,-574.25 567.88,-574.25 567.88,-555 643.12,-555 643.12,-574.25"/>
<text text-anchor="middle" x="605.5" y="-560.75" font-family="Helvetica,sans-Serif" font-size="10.00">v8::Int32Array</text>
</a>
</g>
</g>
<!-- Node8&#45;&gt;Node15 -->
<g id="edge14" class="edge">
<title>Node8&#45;&gt;Node15</title>
<path fill="none" stroke="#63b8ff" d="M522.77,-575.82C537.65,-573.78 553.71,-571.58 567.62,-569.68"/>
<polygon fill="#63b8ff" stroke="#63b8ff" points="522.62,-572.45 513.19,-577.27 523.57,-579.38 522.62,-572.45"/>
</g>
<!-- Node16 -->
<g id="node16" class="node">
<title>Node16</title>
<g id="a_node16"><a xlink:href="classv8_1_1Int8Array.html" target="_top" xlink:title=" ">
<polygon fill="white" stroke="#666666" points="640.5,-537.25 570.5,-537.25 570.5,-518 640.5,-518 640.5,-537.25"/>
<text text-anchor="middle" x="605.5" y="-523.75" font-family="Helvetica,sans-Serif" font-size="10.00">v8::Int8Array</text>
</a>
</g>
</g>
<!-- Node8&#45;&gt;Node16 -->
<g id="edge15" class="edge">
<title>Node8&#45;&gt;Node16</title>
<path fill="none" stroke="#63b8ff" d="M501.01,-567.6C514.9,-560.43 532.1,-552.05 548,-545.62 555.06,-542.77 562.77,-540.07 570.15,-537.66"/>
<polygon fill="#63b8ff" stroke="#63b8ff" points="499.78,-564.82 492.54,-572.55 503.02,-571.02 499.78,-564.82"/>
</g>
<!-- Node17 -->
<g id="node17" class="node">
<title>Node17</title>
<g id="a_node17"><a xlink:href="classv8_1_1Uint16Array.html" target="_top" xlink:title=" ">
<polygon fill="white" stroke="#666666" points="646.5,-500.25 564.5,-500.25 564.5,-481 646.5,-481 646.5,-500.25"/>
<text text-anchor="middle" x="605.5" y="-486.75" font-family="Helvetica,sans-Serif" font-size="10.00">v8::Uint16Array</text>
</a>
</g>
</g>
<!-- Node8&#45;&gt;Node17 -->
<g id="edge16" class="edge">
<title>Node8&#45;&gt;Node17</title>
<path fill="none" stroke="#63b8ff" d="M487.28,-564.36C501.11,-547.66 523.59,-523.39 548,-508.62 553.11,-505.53 558.8,-502.92 564.56,-500.73"/>
<polygon fill="#63b8ff" stroke="#63b8ff" points="484.07,-561.76 480.53,-571.74 489.53,-566.15 484.07,-561.76"/>
</g>
<!-- Node18 -->
<g id="node18" class="node">
<title>Node18</title>
<g id="a_node18"><a xlink:href="classv8_1_1Uint32Array.html" target="_top" xlink:title=" ">
<polygon fill="white" stroke="#666666" points="646.5,-463.25 564.5,-463.25 564.5,-444 646.5,-444 646.5,-463.25"/>
<text text-anchor="middle" x="605.5" y="-449.75" font-family="Helvetica,sans-Serif" font-size="10.00">v8::Uint32Array</text>
</a>
</g>
</g>
<!-- Node8&#45;&gt;Node18 -->
<g id="edge17" class="edge">
<title>Node8&#45;&gt;Node18</title>
<path fill="none" stroke="#63b8ff" d="M481.41,-562.94C492.84,-538.12 515.75,-495.78 548,-471.62 552.86,-467.98 558.48,-465.06 564.26,-462.73"/>
<polygon fill="#63b8ff" stroke="#63b8ff" points="477.95,-561.13 477.1,-571.69 484.35,-563.96 477.95,-561.13"/>
</g>
<!-- Node19 -->
<g id="node19" class="node">
<title>Node19</title>
<g id="a_node19"><a xlink:href="classv8_1_1Uint8Array.html" target="_top" xlink:title=" ">
<polygon fill="white" stroke="#666666" points="643.88,-426.25 567.12,-426.25 567.12,-407 643.88,-407 643.88,-426.25"/>
<text text-anchor="middle" x="605.5" y="-412.75" font-family="Helvetica,sans-Serif" font-size="10.00">v8::Uint8Array</text>
</a>
</g>
</g>
<!-- Node8&#45;&gt;Node19 -->
<g id="edge18" class="edge">
<title>Node8&#45;&gt;Node19</title>
<path fill="none" stroke="#63b8ff" d="M477.94,-562.43C486.55,-530.65 507.58,-469.04 548,-434.62 553.41,-430.02 560.01,-426.59 566.76,-424.03"/>
<polygon fill="#63b8ff" stroke="#63b8ff" points="474.4,-561.13 475.32,-571.68 481.18,-562.86 474.4,-561.13"/>
</g>
<!-- Node20 -->
<g id="node20" class="node">
<title>Node20</title>
<g id="a_node20"><a xlink:href="classv8_1_1Uint8ClampedArray.html" target="_top" xlink:title=" ">
<polygon fill="white" stroke="#666666" points="663,-389.25 548,-389.25 548,-370 663,-370 663,-389.25"/>
<text text-anchor="middle" x="605.5" y="-375.75" font-family="Helvetica,sans-Serif" font-size="10.00">v8::Uint8ClampedArray</text>
</a>
</g>
</g>
<!-- Node8&#45;&gt;Node20 -->
<g id="edge19" class="edge">
<title>Node8&#45;&gt;Node20</title>
<path fill="none" stroke="#63b8ff" d="M475.74,-561.78C481.61,-523.7 499.38,-442.68 548,-397.62 551.4,-394.48 555.35,-391.88 559.55,-389.73"/>
<polygon fill="#63b8ff" stroke="#63b8ff" points="472.15,-561.14 474.23,-571.53 479.08,-562.12 472.15,-561.14"/>
</g>
</g>
</svg>
