<?xml version="1.0" encoding="UTF-8" standalone="no"?>
<!DOCTYPE svg PUBLIC "-//W3C//DTD SVG 1.1//EN"
 "http://www.w3.org/Graphics/SVG/1.1/DTD/svg11.dtd">
<!-- Generated by graphviz version 8.0.5 (20230430.1635)
 -->
<!-- Title: cppgc::MakeGarbageCollected Pages: 1 -->
<svg width="772pt" height="112pt"
 viewBox="0.00 0.00 771.75 111.50" xmlns="http://www.w3.org/2000/svg" xmlns:xlink="http://www.w3.org/1999/xlink">
<g id="graph0" class="graph" transform="scale(1 1) rotate(0) translate(4 107.5)">
<title>cppgc::MakeGarbageCollected</title>
<!-- Node1 -->
<g id="node1" class="node">
<title>Node1</title>
<g id="a_node1"><a xlink:title=" ">
<polygon fill="#999999" stroke="#666666" points="148,-48.88 0,-48.88 0,-29.62 148,-29.62 148,-48.88"/>
<text text-anchor="middle" x="74" y="-35.38" font-family="Helvetica,sans-Serif" font-size="10.00">cppgc::MakeGarbageCollected</text>
</a>
</g>
</g>
<!-- Node2 -->
<g id="node2" class="node">
<title>Node2</title>
<g id="a_node2"><a xlink:href="classcppgc_1_1MakeGarbageCollectedTrait.html#a0d58a09328d607426d91376aa7b2ab83" target="_top" xlink:title=" ">
<polygon fill="white" stroke="#666666" points="337.62,-79.5 189.62,-79.5 189.62,-49 337.62,-49 337.62,-79.5"/>
<text text-anchor="start" x="197.62" y="-66" font-family="Helvetica,sans-Serif" font-size="10.00">cppgc::MakeGarbageCollected</text>
<text text-anchor="middle" x="263.62" y="-54.75" font-family="Helvetica,sans-Serif" font-size="10.00">Trait::Call</text>
</a>
</g>
</g>
<!-- Node1&#45;&gt;Node2 -->
<g id="edge1" class="edge">
<title>Node1&#45;&gt;Node2</title>
<path fill="none" stroke="#63b8ff" d="M148.35,-49.02C158.23,-50.34 168.44,-51.7 178.5,-53.04"/>
<polygon fill="#63b8ff" stroke="#63b8ff" points="177.95,-56.63 188.33,-54.48 178.88,-49.69 177.95,-56.63"/>
</g>
<!-- Node6 -->
<g id="node6" class="node">
<title>Node6</title>
<g id="a_node6"><a xlink:href="structcppgc_1_1PostConstructionCallbackTrait.html#a62e4169c68d1af2dbdb75f0239f5ae07" target="_top" xlink:title=" ">
<polygon fill="white" stroke="#666666" points="343.25,-30.5 184,-30.5 184,0 343.25,0 343.25,-30.5"/>
<text text-anchor="start" x="192" y="-17" font-family="Helvetica,sans-Serif" font-size="10.00">cppgc::PostConstructionCallback</text>
<text text-anchor="middle" x="263.62" y="-5.75" font-family="Helvetica,sans-Serif" font-size="10.00">Trait::Call</text>
</a>
</g>
</g>
<!-- Node1&#45;&gt;Node6 -->
<g id="edge5" class="edge">
<title>Node1&#45;&gt;Node6</title>
<path fill="none" stroke="#63b8ff" d="M148.35,-29.87C156.42,-28.83 164.71,-27.77 172.96,-26.72"/>
<polygon fill="#63b8ff" stroke="#63b8ff" points="173.27,-30.08 182.75,-25.34 172.39,-23.14 173.27,-30.08"/>
</g>
<!-- Node3 -->
<g id="node3" class="node">
<title>Node3</title>
<g id="a_node3"><a xlink:href="classcppgc_1_1MakeGarbageCollectedTraitBase.html#aba46344fd306675a8b69f099b04056a0" target="_top" xlink:title=" ">
<polygon fill="white" stroke="#666666" points="552,-103.5 404,-103.5 404,-73 552,-73 552,-103.5"/>
<text text-anchor="start" x="412" y="-90" font-family="Helvetica,sans-Serif" font-size="10.00">cppgc::MakeGarbageCollected</text>
<text text-anchor="middle" x="478" y="-78.75" font-family="Helvetica,sans-Serif" font-size="10.00">TraitBase::Allocate</text>
</a>
</g>
</g>
<!-- Node2&#45;&gt;Node3 -->
<g id="edge2" class="edge">
<title>Node2&#45;&gt;Node3</title>
<path fill="none" stroke="#63b8ff" d="M338.01,-72.54C355.67,-74.54 374.67,-76.69 392.77,-78.73"/>
<polygon fill="#63b8ff" stroke="#63b8ff" points="392.28,-82.31 402.61,-79.96 393.07,-75.36 392.28,-82.31"/>
</g>
<!-- Node4 -->
<g id="node4" class="node">
<title>Node4</title>
<g id="a_node4"><a xlink:href="classcppgc_1_1MakeGarbageCollectedTraitBase.html#abf4c708d0ab67598b320f05e5ff0b6e1" target="_top" xlink:title=" ">
<polygon fill="white" stroke="#666666" points="576.75,-54.5 379.25,-54.5 379.25,-24 576.75,-24 576.75,-54.5"/>
<text text-anchor="start" x="387.25" y="-41" font-family="Helvetica,sans-Serif" font-size="10.00">cppgc::MakeGarbageCollected</text>
<text text-anchor="middle" x="478" y="-29.75" font-family="Helvetica,sans-Serif" font-size="10.00">TraitBase::MarkObjectAsFullyConstructed</text>
</a>
</g>
</g>
<!-- Node2&#45;&gt;Node4 -->
<g id="edge3" class="edge">
<title>Node2&#45;&gt;Node4</title>
<path fill="none" stroke="#63b8ff" d="M338.01,-55.61C347.8,-54.46 358,-53.26 368.23,-52.05"/>
<polygon fill="#63b8ff" stroke="#63b8ff" points="368.37,-55.44 377.89,-50.8 367.55,-48.49 368.37,-55.44"/>
</g>
<!-- Node5 -->
<g id="node5" class="node">
<title>Node5</title>
<g id="a_node5"><a xlink:href="classcppgc_1_1internal_1_1MakeGarbageCollectedTraitInternal.html#af0b49ea167f0710a3d4260bdeed1bf46" target="_top" xlink:title=" ">
<polygon fill="white" stroke="#666666" points="763.75,-60.12 612.75,-60.12 612.75,-18.38 763.75,-18.38 763.75,-60.12"/>
<text text-anchor="start" x="620.75" y="-46.62" font-family="Helvetica,sans-Serif" font-size="10.00">cppgc::internal::MakeGarbage</text>
<text text-anchor="start" x="620.75" y="-35.38" font-family="Helvetica,sans-Serif" font-size="10.00">CollectedTraitInternal::</text>
<text text-anchor="middle" x="688.25" y="-24.12" font-family="Helvetica,sans-Serif" font-size="10.00">MarkObjectAsFullyConstructed</text>
</a>
</g>
</g>
<!-- Node4&#45;&gt;Node5 -->
<g id="edge4" class="edge">
<title>Node4&#45;&gt;Node5</title>
<path fill="none" stroke="#63b8ff" d="M577.03,-39.25C585.22,-39.25 593.47,-39.25 601.56,-39.25"/>
<polygon fill="#63b8ff" stroke="#63b8ff" points="601.48,-42.75 611.48,-39.25 601.48,-35.75 601.48,-42.75"/>
</g>
</g>
</svg>
