<?xml version="1.0" encoding="UTF-8" standalone="no"?>
<!DOCTYPE svg PUBLIC "-//W3C//DTD SVG 1.1//EN"
 "http://www.w3.org/Graphics/SVG/1.1/DTD/svg11.dtd">
<!-- Generated by graphviz version 8.0.5 (20230430.1635)
 -->
<!-- Title: include/v8&#45;function.h Pages: 1 -->
<svg width="1647pt" height="635pt"
 viewBox="0.00 0.00 1647.00 635.00" xmlns="http://www.w3.org/2000/svg" xmlns:xlink="http://www.w3.org/1999/xlink">
<g id="graph0" class="graph" transform="scale(1 1) rotate(0) translate(4 631)">
<title>include/v8&#45;function.h</title>
<!-- Node1 -->
<g id="node1" class="node">
<title>Node1</title>
<g id="a_node1"><a xlink:title=" ">
<polygon fill="#999999" stroke="#666666" points="1408.62,-627 1303.38,-627 1303.38,-607.75 1408.62,-607.75 1408.62,-627"/>
<text text-anchor="middle" x="1356" y="-613.5" font-family="Helvetica,sans-Serif" font-size="10.00">include/v8&#45;function.h</text>
</a>
</g>
</g>
<!-- Node2 -->
<g id="node2" class="node">
<title>Node2</title>
<g id="a_node2"><a xlink:title=" ">
<polygon fill="#e0e0e0" stroke="#999999" points="1335.25,-74.5 1284.75,-74.5 1284.75,-55.25 1335.25,-55.25 1335.25,-74.5"/>
<text text-anchor="middle" x="1310" y="-61" font-family="Helvetica,sans-Serif" font-size="10.00">stddef.h</text>
</a>
</g>
</g>
<!-- Node1&#45;&gt;Node2 -->
<g id="edge1" class="edge">
<title>Node1&#45;&gt;Node2</title>
<path fill="none" stroke="#63b8ff" d="M1409.1,-615.34C1457.13,-612.29 1528.33,-602.38 1582,-571.75 1615.05,-552.89 1639,-545.92 1639,-507.88 1639,-507.88 1639,-507.88 1639,-174.38 1639,-113.29 1431.86,-80.83 1346.3,-70.03"/>
<polygon fill="#63b8ff" stroke="#63b8ff" points="1346.9,-66.45 1336.54,-68.71 1346.04,-73.4 1346.9,-66.45"/>
</g>
<!-- Node3 -->
<g id="node3" class="node">
<title>Node3</title>
<g id="a_node3"><a xlink:title=" ">
<polygon fill="#e0e0e0" stroke="#999999" points="1165.75,-74.5 1118.25,-74.5 1118.25,-55.25 1165.75,-55.25 1165.75,-74.5"/>
<text text-anchor="middle" x="1142" y="-61" font-family="Helvetica,sans-Serif" font-size="10.00">stdint.h</text>
</a>
</g>
</g>
<!-- Node1&#45;&gt;Node3 -->
<g id="edge2" class="edge">
<title>Node1&#45;&gt;Node3</title>
<path fill="none" stroke="#63b8ff" d="M1408.95,-612.04C1471.74,-603.66 1568,-579.2 1568,-507.88 1568,-507.88 1568,-507.88 1568,-450.62 1568,-377.81 1563,-359.69 1563,-286.88 1563,-286.88 1563,-286.88 1563,-229.62 1563,-147.03 1278,-89.5 1176.98,-71.7"/>
<polygon fill="#63b8ff" stroke="#63b8ff" points="1177.6,-68.08 1167.15,-69.82 1176.4,-74.98 1177.6,-68.08"/>
</g>
<!-- Node4 -->
<g id="node4" class="node">
<title>Node4</title>
<g id="a_node4"><a xlink:href="v8-function-callback_8h.html" target="_top" xlink:title=" ">
<polygon fill="white" stroke="#666666" points="1406.25,-461.25 1295.75,-461.25 1295.75,-442 1406.25,-442 1406.25,-461.25"/>
<text text-anchor="middle" x="1351" y="-447.75" font-family="Helvetica,sans-Serif" font-size="10.00">v8&#45;function&#45;callback.h</text>
</a>
</g>
</g>
<!-- Node1&#45;&gt;Node4 -->
<g id="edge3" class="edge">
<title>Node1&#45;&gt;Node4</title>
<path fill="none" stroke="#63b8ff" d="M1355.73,-607.57C1354.95,-582.14 1352.69,-508.1 1351.6,-472.37"/>
<polygon fill="#63b8ff" stroke="#63b8ff" points="1355.07,-472.36 1351.27,-462.47 1348.08,-472.57 1355.07,-472.36"/>
</g>
<!-- Node14 -->
<g id="node14" class="node">
<title>Node14</title>
<g id="a_node14"><a xlink:href="v8config_8h.html" target="_top" xlink:title=" ">
<polygon fill="white" stroke="#666666" points="371.75,-74.5 312.25,-74.5 312.25,-55.25 371.75,-55.25 371.75,-74.5"/>
<text text-anchor="middle" x="342" y="-61" font-family="Helvetica,sans-Serif" font-size="10.00">v8config.h</text>
</a>
</g>
</g>
<!-- Node1&#45;&gt;Node14 -->
<g id="edge99" class="edge">
<title>Node1&#45;&gt;Node14</title>
<path fill="none" stroke="#63b8ff" d="M1303.26,-614.97C1053.31,-607.96 0,-574.48 0,-507.88 0,-507.88 0,-507.88 0,-174.38 0,-137.77 20.23,-128.69 52,-110.5 93.66,-86.64 231.21,-73.72 300.84,-68.57"/>
<polygon fill="#63b8ff" stroke="#63b8ff" points="301.09,-71.99 310.81,-67.78 300.59,-65.01 301.09,-71.99"/>
</g>
<!-- Node15 -->
<g id="node15" class="node">
<title>Node15</title>
<g id="a_node15"><a xlink:href="v8-local-handle_8h.html" target="_top" xlink:title=" ">
<polygon fill="white" stroke="#666666" points="1320.38,-240.25 1231.62,-240.25 1231.62,-221 1320.38,-221 1320.38,-240.25"/>
<text text-anchor="middle" x="1276" y="-226.75" font-family="Helvetica,sans-Serif" font-size="10.00">v8&#45;local&#45;handle.h</text>
</a>
</g>
</g>
<!-- Node1&#45;&gt;Node15 -->
<g id="edge43" class="edge">
<title>Node1&#45;&gt;Node15</title>
<path fill="none" stroke="#63b8ff" d="M1386.18,-607.27C1426.25,-593.09 1492,-561.64 1492,-507.88 1492,-507.88 1492,-507.88 1492,-395.38 1492,-310.46 1384.67,-263.89 1321.33,-243.8"/>
<polygon fill="#63b8ff" stroke="#63b8ff" points="1322.77,-240.28 1312.18,-240.69 1320.72,-246.97 1322.77,-240.28"/>
</g>
<!-- Node23 -->
<g id="node23" class="node">
<title>Node23</title>
<g id="a_node23"><a xlink:href="v8-message_8h.html" target="_top" xlink:title=" ">
<polygon fill="white" stroke="#666666" points="366.38,-461.25 289.62,-461.25 289.62,-442 366.38,-442 366.38,-461.25"/>
<text text-anchor="middle" x="328" y="-447.75" font-family="Helvetica,sans-Serif" font-size="10.00">v8&#45;message.h</text>
</a>
</g>
</g>
<!-- Node1&#45;&gt;Node23 -->
<g id="edge44" class="edge">
<title>Node1&#45;&gt;Node23</title>
<path fill="none" stroke="#63b8ff" d="M1302.97,-610.78C1232.16,-603.1 1102.87,-588.33 993,-571.75 762.02,-536.89 487.95,-484.17 377.63,-462.48"/>
<polygon fill="#63b8ff" stroke="#63b8ff" points="378.34,-458.86 367.85,-460.36 376.99,-465.72 378.34,-458.86"/>
</g>
<!-- Node26 -->
<g id="node26" class="node">
<title>Node26</title>
<g id="a_node26"><a xlink:href="v8-object_8h.html" target="_top" xlink:title=" ">
<polygon fill="white" stroke="#666666" points="964.62,-461.25 901.38,-461.25 901.38,-442 964.62,-442 964.62,-461.25"/>
<text text-anchor="middle" x="933" y="-447.75" font-family="Helvetica,sans-Serif" font-size="10.00">v8&#45;object.h</text>
</a>
</g>
</g>
<!-- Node1&#45;&gt;Node26 -->
<g id="edge51" class="edge">
<title>Node1&#45;&gt;Node26</title>
<path fill="none" stroke="#63b8ff" d="M1303.15,-615.25C1240.16,-612.45 1132.55,-603.03 1046,-571.75 1001.86,-555.8 985.62,-552.91 956,-516.5 945.53,-503.63 939.62,-485.6 936.42,-471.98"/>
<polygon fill="#63b8ff" stroke="#63b8ff" points="939.69,-471.48 934.26,-462.38 932.83,-472.88 939.69,-471.48"/>
</g>
<!-- Node31 -->
<g id="node31" class="node">
<title>Node31</title>
<g id="a_node31"><a xlink:href="v8-template_8h.html" target="_top" xlink:title=" ">
<polygon fill="white" stroke="#666666" points="1129.25,-571.75 1054.75,-571.75 1054.75,-552.5 1129.25,-552.5 1129.25,-571.75"/>
<text text-anchor="middle" x="1092" y="-558.25" font-family="Helvetica,sans-Serif" font-size="10.00">v8&#45;template.h</text>
</a>
</g>
</g>
<!-- Node1&#45;&gt;Node31 -->
<g id="edge80" class="edge">
<title>Node1&#45;&gt;Node31</title>
<path fill="none" stroke="#63b8ff" d="M1310.92,-607.28C1263.41,-597.7 1188.86,-582.66 1140.2,-572.85"/>
<polygon fill="#63b8ff" stroke="#63b8ff" points="1141.13,-569.26 1130.63,-570.72 1139.74,-576.12 1141.13,-569.26"/>
</g>
<!-- Node5 -->
<g id="node5" class="node">
<title>Node5</title>
<g id="a_node5"><a xlink:title=" ">
<polygon fill="#e0e0e0" stroke="#999999" points="1311.62,-350.75 1266.38,-350.75 1266.38,-331.5 1311.62,-331.5 1311.62,-350.75"/>
<text text-anchor="middle" x="1289" y="-337.25" font-family="Helvetica,sans-Serif" font-size="10.00">cstdint</text>
</a>
</g>
</g>
<!-- Node4&#45;&gt;Node5 -->
<g id="edge4" class="edge">
<title>Node4&#45;&gt;Node5</title>
<path fill="none" stroke="#63b8ff" d="M1345.93,-441.75C1335.8,-424.02 1312.9,-383.94 1299.43,-360.38"/>
<polygon fill="#63b8ff" stroke="#63b8ff" points="1302.14,-359.07 1294.14,-352.13 1296.07,-362.55 1302.14,-359.07"/>
</g>
<!-- Node6 -->
<g id="node6" class="node">
<title>Node6</title>
<g id="a_node6"><a xlink:title=" ">
<polygon fill="#e0e0e0" stroke="#999999" points="1100.62,-74.5 1061.38,-74.5 1061.38,-55.25 1100.62,-55.25 1100.62,-74.5"/>
<text text-anchor="middle" x="1081" y="-61" font-family="Helvetica,sans-Serif" font-size="10.00">limits</text>
</a>
</g>
</g>
<!-- Node4&#45;&gt;Node6 -->
<g id="edge5" class="edge">
<title>Node4&#45;&gt;Node6</title>
<path fill="none" stroke="#63b8ff" d="M1361.87,-441.72C1371.46,-433.36 1385.24,-420.06 1394,-406 1407.81,-383.83 1405.71,-375.52 1414,-350.75 1440.12,-272.7 1468.56,-219.22 1406,-165.75 1303.69,-78.31 1244.06,-113.2 1111.4,-75.13"/>
<polygon fill="#63b8ff" stroke="#63b8ff" points="1112.47,-71.5 1101.88,-72 1110.47,-78.21 1112.47,-71.5"/>
</g>
<!-- Node7 -->
<g id="node7" class="node">
<title>Node7</title>
<g id="a_node7"><a xlink:href="v8-internal_8h.html" target="_top" xlink:title=" ">
<polygon fill="white" stroke="#666666" points="1048.25,-129.75 979.75,-129.75 979.75,-110.5 1048.25,-110.5 1048.25,-129.75"/>
<text text-anchor="middle" x="1014" y="-116.25" font-family="Helvetica,sans-Serif" font-size="10.00">v8&#45;internal.h</text>
</a>
</g>
</g>
<!-- Node4&#45;&gt;Node7 -->
<g id="edge6" class="edge">
<title>Node4&#45;&gt;Node7</title>
<path fill="none" stroke="#63b8ff" d="M1358.24,-441.7C1364.72,-433.12 1373.84,-419.5 1378,-406 1409.48,-303.92 1455.88,-245.67 1385,-165.75 1363.72,-141.76 1154.02,-128.21 1059.63,-123.28"/>
<polygon fill="#63b8ff" stroke="#63b8ff" points="1059.88,-119.74 1049.71,-122.72 1059.52,-126.73 1059.88,-119.74"/>
</g>
<!-- Node4&#45;&gt;Node14 -->
<g id="edge42" class="edge">
<title>Node4&#45;&gt;Node14</title>
<path fill="none" stroke="#63b8ff" d="M1295.5,-450.42C1191.36,-449.15 959.94,-442.08 769,-406 604.13,-374.84 542.7,-395.55 408,-295.5 340.9,-245.66 338.54,-131.99 340.58,-85.87"/>
<polygon fill="#63b8ff" stroke="#63b8ff" points="344.12,-86.18 341.2,-75.99 337.14,-85.78 344.12,-86.18"/>
</g>
<!-- Node4&#45;&gt;Node15 -->
<g id="edge18" class="edge">
<title>Node4&#45;&gt;Node15</title>
<path fill="none" stroke="#63b8ff" d="M1353.85,-441.77C1362.02,-414.57 1382.89,-330.76 1349,-276.25 1340.48,-262.55 1326.05,-252.44 1312.25,-245.34"/>
<polygon fill="#63b8ff" stroke="#63b8ff" points="1313.95,-241.8 1303.41,-240.69 1310.96,-248.13 1313.95,-241.8"/>
</g>
<!-- Node18 -->
<g id="node18" class="node">
<title>Node18</title>
<g id="a_node18"><a xlink:href="v8-primitive_8h.html" target="_top" xlink:title=" ">
<polygon fill="white" stroke="#666666" points="851.88,-406 778.12,-406 778.12,-386.75 851.88,-386.75 851.88,-406"/>
<text text-anchor="middle" x="815" y="-392.5" font-family="Helvetica,sans-Serif" font-size="10.00">v8&#45;primitive.h</text>
</a>
</g>
</g>
<!-- Node4&#45;&gt;Node18 -->
<g id="edge25" class="edge">
<title>Node4&#45;&gt;Node18</title>
<path fill="none" stroke="#63b8ff" d="M1295.41,-445.1C1189.94,-434.62 962.49,-412.03 863.11,-402.15"/>
<polygon fill="#63b8ff" stroke="#63b8ff" points="863.5,-398.58 853.21,-401.07 862.81,-405.54 863.5,-398.58"/>
</g>
<!-- Node7&#45;&gt;Node2 -->
<g id="edge7" class="edge">
<title>Node7&#45;&gt;Node2</title>
<path fill="none" stroke="#63b8ff" d="M1048.53,-112.91C1104.87,-102.78 1216,-82.78 1273.55,-72.43"/>
<polygon fill="#63b8ff" stroke="#63b8ff" points="1274.09,-75.71 1283.31,-70.5 1272.85,-68.82 1274.09,-75.71"/>
</g>
<!-- Node7&#45;&gt;Node3 -->
<g id="edge8" class="edge">
<title>Node7&#45;&gt;Node3</title>
<path fill="none" stroke="#63b8ff" d="M1035.71,-110.09C1056.12,-101.6 1086.92,-88.79 1110.12,-79.14"/>
<polygon fill="#63b8ff" stroke="#63b8ff" points="1111.29,-82.03 1119.18,-74.95 1108.6,-75.56 1111.29,-82.03"/>
</g>
<!-- Node7&#45;&gt;Node6 -->
<g id="edge12" class="edge">
<title>Node7&#45;&gt;Node6</title>
<path fill="none" stroke="#63b8ff" d="M1025.37,-110.09C1035.24,-102.24 1049.77,-90.7 1061.5,-81.37"/>
<polygon fill="#63b8ff" stroke="#63b8ff" points="1063.15,-83.74 1068.8,-74.77 1058.8,-78.26 1063.15,-83.74"/>
</g>
<!-- Node8 -->
<g id="node8" class="node">
<title>Node8</title>
<g id="a_node8"><a xlink:title=" ">
<polygon fill="#e0e0e0" stroke="#999999" points="1043.75,-74.5 996.25,-74.5 996.25,-55.25 1043.75,-55.25 1043.75,-74.5"/>
<text text-anchor="middle" x="1020" y="-61" font-family="Helvetica,sans-Serif" font-size="10.00">string.h</text>
</a>
</g>
</g>
<!-- Node7&#45;&gt;Node8 -->
<g id="edge9" class="edge">
<title>Node7&#45;&gt;Node8</title>
<path fill="none" stroke="#63b8ff" d="M1014.99,-110.33C1015.74,-103.67 1016.8,-94.24 1017.76,-85.78"/>
<polygon fill="#63b8ff" stroke="#63b8ff" points="1021.35,-86.19 1018.99,-75.86 1014.39,-85.4 1021.35,-86.19"/>
</g>
<!-- Node9 -->
<g id="node9" class="node">
<title>Node9</title>
<g id="a_node9"><a xlink:title=" ">
<polygon fill="#e0e0e0" stroke="#999999" points="871.62,-74.5 826.38,-74.5 826.38,-55.25 871.62,-55.25 871.62,-74.5"/>
<text text-anchor="middle" x="849" y="-61" font-family="Helvetica,sans-Serif" font-size="10.00">atomic</text>
</a>
</g>
</g>
<!-- Node7&#45;&gt;Node9 -->
<g id="edge10" class="edge">
<title>Node7&#45;&gt;Node9</title>
<path fill="none" stroke="#63b8ff" d="M986.01,-110.09C957.31,-100.83 912.67,-86.42 882.2,-76.59"/>
<polygon fill="#63b8ff" stroke="#63b8ff" points="883.65,-73.06 873.06,-73.32 881.5,-79.72 883.65,-73.06"/>
</g>
<!-- Node10 -->
<g id="node10" class="node">
<title>Node10</title>
<g id="a_node10"><a xlink:title=" ">
<polygon fill="#e0e0e0" stroke="#999999" points="770,-74.5 724,-74.5 724,-55.25 770,-55.25 770,-74.5"/>
<text text-anchor="middle" x="747" y="-61" font-family="Helvetica,sans-Serif" font-size="10.00">iterator</text>
</a>
</g>
</g>
<!-- Node7&#45;&gt;Node10 -->
<g id="edge11" class="edge">
<title>Node7&#45;&gt;Node10</title>
<path fill="none" stroke="#63b8ff" d="M979.37,-112.22C927.95,-101.96 832,-82.83 780.96,-72.65"/>
<polygon fill="#63b8ff" stroke="#63b8ff" points="781.69,-69.02 771.19,-70.5 780.32,-75.89 781.69,-69.02"/>
</g>
<!-- Node11 -->
<g id="node11" class="node">
<title>Node11</title>
<g id="a_node11"><a xlink:title=" ">
<polygon fill="#e0e0e0" stroke="#999999" points="823.25,-19.25 772.75,-19.25 772.75,0 823.25,0 823.25,-19.25"/>
<text text-anchor="middle" x="798" y="-5.75" font-family="Helvetica,sans-Serif" font-size="10.00">memory</text>
</a>
</g>
</g>
<!-- Node7&#45;&gt;Node11 -->
<g id="edge13" class="edge">
<title>Node7&#45;&gt;Node11</title>
<path fill="none" stroke="#63b8ff" d="M994.22,-110.16C974.92,-101.33 944.77,-87.34 919,-74.5 885.89,-57.99 848.28,-37.93 823.9,-24.75"/>
<polygon fill="#63b8ff" stroke="#63b8ff" points="825.77,-21.24 815.31,-19.55 822.44,-27.39 825.77,-21.24"/>
</g>
<!-- Node12 -->
<g id="node12" class="node">
<title>Node12</title>
<g id="a_node12"><a xlink:title=" ">
<polygon fill="#e0e0e0" stroke="#999999" points="977.88,-74.5 928.12,-74.5 928.12,-55.25 977.88,-55.25 977.88,-74.5"/>
<text text-anchor="middle" x="953" y="-61" font-family="Helvetica,sans-Serif" font-size="10.00">optional</text>
</a>
</g>
</g>
<!-- Node7&#45;&gt;Node12 -->
<g id="edge14" class="edge">
<title>Node7&#45;&gt;Node12</title>
<path fill="none" stroke="#63b8ff" d="M1003.65,-110.09C994.84,-102.4 981.95,-91.15 971.39,-81.93"/>
<polygon fill="#63b8ff" stroke="#63b8ff" points="974.03,-78.71 964.19,-74.77 969.43,-83.99 974.03,-78.71"/>
</g>
<!-- Node13 -->
<g id="node13" class="node">
<title>Node13</title>
<g id="a_node13"><a xlink:title=" ">
<polygon fill="#e0e0e0" stroke="#999999" points="705.5,-74.5 644.5,-74.5 644.5,-55.25 705.5,-55.25 705.5,-74.5"/>
<text text-anchor="middle" x="675" y="-61" font-family="Helvetica,sans-Serif" font-size="10.00">type_traits</text>
</a>
</g>
</g>
<!-- Node7&#45;&gt;Node13 -->
<g id="edge15" class="edge">
<title>Node7&#45;&gt;Node13</title>
<path fill="none" stroke="#63b8ff" d="M979.35,-114.69C925.43,-107.63 817.94,-92.91 716.69,-74.7"/>
<polygon fill="#63b8ff" stroke="#63b8ff" points="717.43,-71.1 706.97,-72.76 716.18,-77.99 717.43,-71.1"/>
</g>
<!-- Node7&#45;&gt;Node14 -->
<g id="edge16" class="edge">
<title>Node7&#45;&gt;Node14</title>
<path fill="none" stroke="#63b8ff" d="M979.29,-116.37C865.65,-107.37 505.12,-78.8 382.94,-69.12"/>
<polygon fill="#63b8ff" stroke="#63b8ff" points="383.46,-65.57 373.21,-68.27 382.9,-72.55 383.46,-65.57"/>
</g>
<!-- Node14&#45;&gt;Node11 -->
<g id="edge17" class="edge">
<title>Node14&#45;&gt;Node11</title>
<path fill="none" stroke="#63b8ff" d="M371.92,-60.38C452.5,-50.97 673.88,-25.12 761.56,-14.88"/>
<polygon fill="#63b8ff" stroke="#63b8ff" points="761.76,-18.26 771.29,-13.63 760.95,-11.31 761.76,-18.26"/>
</g>
<!-- Node15&#45;&gt;Node2 -->
<g id="edge19" class="edge">
<title>Node15&#45;&gt;Node2</title>
<path fill="none" stroke="#63b8ff" d="M1318.08,-220.57C1337.39,-214.09 1358.51,-203.17 1370,-185 1392.24,-149.83 1353.7,-105.34 1328.74,-81.94"/>
<polygon fill="#63b8ff" stroke="#63b8ff" points="1331.68,-79.97 1321.91,-75.86 1326.98,-85.17 1331.68,-79.97"/>
</g>
<!-- Node15&#45;&gt;Node7 -->
<g id="edge24" class="edge">
<title>Node15&#45;&gt;Node7</title>
<path fill="none" stroke="#63b8ff" d="M1302.88,-220.52C1332.55,-209.07 1373.68,-188.18 1354,-165.75 1334.84,-143.92 1147.31,-129.44 1059.25,-123.79"/>
<polygon fill="#63b8ff" stroke="#63b8ff" points="1059.71,-120.25 1049.51,-123.11 1059.27,-127.23 1059.71,-120.25"/>
</g>
<!-- Node15&#45;&gt;Node13 -->
<g id="edge20" class="edge">
<title>Node15&#45;&gt;Node13</title>
<path fill="none" stroke="#63b8ff" d="M1242.83,-220.59C1140.43,-192.69 829.37,-107.94 716.49,-77.18"/>
<polygon fill="#63b8ff" stroke="#63b8ff" points="717.46,-73.54 706.89,-74.29 715.62,-80.3 717.46,-73.54"/>
</g>
<!-- Node16 -->
<g id="node16" class="node">
<title>Node16</title>
<g id="a_node16"><a xlink:title=" ">
<polygon fill="#e0e0e0" stroke="#999999" points="1237.5,-185 1194.5,-185 1194.5,-165.75 1237.5,-165.75 1237.5,-185"/>
<text text-anchor="middle" x="1216" y="-171.5" font-family="Helvetica,sans-Serif" font-size="10.00">vector</text>
</a>
</g>
</g>
<!-- Node15&#45;&gt;Node16 -->
<g id="edge21" class="edge">
<title>Node15&#45;&gt;Node16</title>
<path fill="none" stroke="#63b8ff" d="M1265.82,-220.59C1257.15,-212.9 1244.48,-201.65 1234.08,-192.43"/>
<polygon fill="#63b8ff" stroke="#63b8ff" points="1236.83,-190.29 1227.03,-186.27 1232.18,-195.53 1236.83,-190.29"/>
</g>
<!-- Node17 -->
<g id="node17" class="node">
<title>Node17</title>
<g id="a_node17"><a xlink:href="v8-handle-base_8h.html" target="_top" xlink:title=" ">
<polygon fill="white" stroke="#666666" points="1344.75,-185 1255.25,-185 1255.25,-165.75 1344.75,-165.75 1344.75,-185"/>
<text text-anchor="middle" x="1300" y="-171.5" font-family="Helvetica,sans-Serif" font-size="10.00">v8&#45;handle&#45;base.h</text>
</a>
</g>
</g>
<!-- Node15&#45;&gt;Node17 -->
<g id="edge22" class="edge">
<title>Node15&#45;&gt;Node17</title>
<path fill="none" stroke="#63b8ff" d="M1279.96,-220.83C1283.11,-213.86 1287.61,-203.87 1291.55,-195.12"/>
<polygon fill="#63b8ff" stroke="#63b8ff" points="1295.03,-196.91 1295.95,-186.36 1288.65,-194.04 1295.03,-196.91"/>
</g>
<!-- Node17&#45;&gt;Node7 -->
<g id="edge23" class="edge">
<title>Node17&#45;&gt;Node7</title>
<path fill="none" stroke="#63b8ff" d="M1255,-166C1201.43,-156.02 1112.51,-139.47 1058.96,-129.5"/>
<polygon fill="#63b8ff" stroke="#63b8ff" points="1059.89,-125.92 1049.42,-127.53 1058.61,-132.8 1059.89,-125.92"/>
</g>
<!-- Node18&#45;&gt;Node7 -->
<g id="edge29" class="edge">
<title>Node18&#45;&gt;Node7</title>
<path fill="none" stroke="#63b8ff" d="M822.43,-386.25C840.3,-364.78 887.83,-310.28 937,-276.25 968.06,-254.75 989.44,-268.96 1014,-240.25 1036.02,-214.52 1035.8,-199.12 1030,-165.75 1028.5,-157.14 1025.5,-148 1022.49,-140.25"/>
<polygon fill="#63b8ff" stroke="#63b8ff" points="1025.34,-138.99 1018.26,-131.1 1018.88,-141.68 1025.34,-138.99"/>
</g>
<!-- Node18&#45;&gt;Node14 -->
<g id="edge41" class="edge">
<title>Node18&#45;&gt;Node14</title>
<path fill="none" stroke="#63b8ff" d="M777.66,-391.94C659.89,-380.17 301.12,-336.69 252,-240.25 225.83,-188.86 221.6,-159.5 252,-110.5 262.96,-92.83 283.24,-81.93 301.78,-75.34"/>
<polygon fill="#63b8ff" stroke="#63b8ff" points="302.67,-78.41 311.12,-72.02 300.53,-71.75 302.67,-78.41"/>
</g>
<!-- Node18&#45;&gt;Node15 -->
<g id="edge30" class="edge">
<title>Node18&#45;&gt;Node15</title>
<path fill="none" stroke="#63b8ff" d="M844.15,-386.27C897.98,-369.33 1016.49,-331.41 1115,-295.5 1160.38,-278.96 1212.19,-258.03 1244.5,-244.73"/>
<polygon fill="#63b8ff" stroke="#63b8ff" points="1245.37,-247.75 1253.27,-240.7 1242.7,-241.28 1245.37,-247.75"/>
</g>
<!-- Node19 -->
<g id="node19" class="node">
<title>Node19</title>
<g id="a_node19"><a xlink:href="v8-data_8h.html" target="_top" xlink:title=" ">
<polygon fill="white" stroke="#666666" points="845.88,-295.5 790.12,-295.5 790.12,-276.25 845.88,-276.25 845.88,-295.5"/>
<text text-anchor="middle" x="818" y="-282" font-family="Helvetica,sans-Serif" font-size="10.00">v8&#45;data.h</text>
</a>
</g>
</g>
<!-- Node18&#45;&gt;Node19 -->
<g id="edge26" class="edge">
<title>Node18&#45;&gt;Node19</title>
<path fill="none" stroke="#63b8ff" d="M815.25,-386.5C815.72,-369.17 816.79,-330.48 817.45,-306.74"/>
<polygon fill="#63b8ff" stroke="#63b8ff" points="820.97,-306.97 817.75,-296.88 813.98,-306.78 820.97,-306.97"/>
</g>
<!-- Node20 -->
<g id="node20" class="node">
<title>Node20</title>
<g id="a_node20"><a xlink:href="v8-value_8h.html" target="_top" xlink:title=" ">
<polygon fill="white" stroke="#666666" points="790.12,-350.75 729.88,-350.75 729.88,-331.5 790.12,-331.5 790.12,-350.75"/>
<text text-anchor="middle" x="760" y="-337.25" font-family="Helvetica,sans-Serif" font-size="10.00">v8&#45;value.h</text>
</a>
</g>
</g>
<!-- Node18&#45;&gt;Node20 -->
<g id="edge31" class="edge">
<title>Node18&#45;&gt;Node20</title>
<path fill="none" stroke="#63b8ff" d="M805.92,-386.58C798.08,-379 786.56,-367.84 777.01,-358.6"/>
<polygon fill="#63b8ff" stroke="#63b8ff" points="779.9,-356.55 770.28,-352.11 775.03,-361.58 779.9,-356.55"/>
</g>
<!-- Node19&#45;&gt;Node14 -->
<g id="edge28" class="edge">
<title>Node19&#45;&gt;Node14</title>
<path fill="none" stroke="#63b8ff" d="M789.84,-275.92C740.63,-259.93 636.22,-224.4 552,-185 481.6,-152.06 403.01,-104.34 365.03,-80.53"/>
<polygon fill="#63b8ff" stroke="#63b8ff" points="367.18,-77.12 356.85,-74.75 363.45,-83.04 367.18,-77.12"/>
</g>
<!-- Node19&#45;&gt;Node15 -->
<g id="edge27" class="edge">
<title>Node19&#45;&gt;Node15</title>
<path fill="none" stroke="#63b8ff" d="M846.3,-281.58C920.58,-272.95 1122.08,-249.52 1220.46,-238.08"/>
<polygon fill="#63b8ff" stroke="#63b8ff" points="1220.83,-241.45 1230.36,-236.81 1220.03,-234.49 1220.83,-241.45"/>
</g>
<!-- Node20&#45;&gt;Node7 -->
<g id="edge33" class="edge">
<title>Node20&#45;&gt;Node7</title>
<path fill="none" stroke="#63b8ff" d="M779.46,-331.19C807.02,-318.6 859.11,-295.08 904,-276.25 944.11,-259.43 967.78,-274.18 995,-240.25 1017.97,-211.62 1018.39,-166.37 1016.38,-140.66"/>
<polygon fill="#63b8ff" stroke="#63b8ff" points="1019.79,-140.67 1015.31,-131.06 1012.83,-141.36 1019.79,-140.67"/>
</g>
<!-- Node20&#45;&gt;Node14 -->
<g id="edge40" class="edge">
<title>Node20&#45;&gt;Node14</title>
<path fill="none" stroke="#63b8ff" d="M729.79,-337.46C666.24,-331.53 520.91,-316.11 476,-295.5 393.58,-257.68 386.2,-215.61 357,-129.75 352.05,-115.2 348.15,-98.25 345.57,-85.47"/>
<polygon fill="#63b8ff" stroke="#63b8ff" points="348.83,-84.87 343.51,-75.7 341.96,-86.18 348.83,-84.87"/>
</g>
<!-- Node20&#45;&gt;Node15 -->
<g id="edge34" class="edge">
<title>Node20&#45;&gt;Node15</title>
<path fill="none" stroke="#63b8ff" d="M790.35,-337.26C845.77,-331.69 966.88,-317.94 1067,-295.5 1129.02,-281.6 1199.38,-258.54 1240.59,-244.26"/>
<polygon fill="#63b8ff" stroke="#63b8ff" points="1241.63,-247.25 1249.92,-240.65 1239.32,-240.64 1241.63,-247.25"/>
</g>
<!-- Node20&#45;&gt;Node19 -->
<g id="edge32" class="edge">
<title>Node20&#45;&gt;Node19</title>
<path fill="none" stroke="#63b8ff" d="M769.84,-331.09C778.14,-323.47 790.23,-312.37 800.22,-303.2"/>
<polygon fill="#63b8ff" stroke="#63b8ff" points="802.31,-306.12 807.31,-296.77 797.57,-300.96 802.31,-306.12"/>
</g>
<!-- Node21 -->
<g id="node21" class="node">
<title>Node21</title>
<g id="a_node21"><a xlink:href="v8-maybe_8h.html" target="_top" xlink:title=" ">
<polygon fill="white" stroke="#666666" points="550.75,-295.5 485.25,-295.5 485.25,-276.25 550.75,-276.25 550.75,-295.5"/>
<text text-anchor="middle" x="518" y="-282" font-family="Helvetica,sans-Serif" font-size="10.00">v8&#45;maybe.h</text>
</a>
</g>
</g>
<!-- Node20&#45;&gt;Node21 -->
<g id="edge35" class="edge">
<title>Node20&#45;&gt;Node21</title>
<path fill="none" stroke="#63b8ff" d="M729.84,-333.49C687.43,-324.16 609.95,-307.11 561.36,-296.42"/>
<polygon fill="#63b8ff" stroke="#63b8ff" points="562.38,-292.84 551.87,-294.11 560.88,-299.67 562.38,-292.84"/>
</g>
<!-- Node21&#45;&gt;Node7 -->
<g id="edge38" class="edge">
<title>Node21&#45;&gt;Node7</title>
<path fill="none" stroke="#63b8ff" d="M517.95,-275.98C518.37,-262.11 521.34,-235.42 537,-221 600.05,-162.96 862.01,-134.23 968.6,-124.77"/>
<polygon fill="#63b8ff" stroke="#63b8ff" points="968.65,-128.2 978.31,-123.84 968.05,-121.22 968.65,-128.2"/>
</g>
<!-- Node21&#45;&gt;Node13 -->
<g id="edge36" class="edge">
<title>Node21&#45;&gt;Node13</title>
<path fill="none" stroke="#63b8ff" d="M488.56,-275.77C459.11,-265.05 420.39,-245.54 437,-221 467.59,-175.81 631,-172.43 665,-129.75 674.85,-117.39 676.89,-99.31 676.73,-85.54"/>
<polygon fill="#63b8ff" stroke="#63b8ff" points="680.19,-85.6 676.17,-75.8 673.2,-85.97 680.19,-85.6"/>
</g>
<!-- Node21&#45;&gt;Node14 -->
<g id="edge39" class="edge">
<title>Node21&#45;&gt;Node14</title>
<path fill="none" stroke="#63b8ff" d="M489.03,-275.78C470.04,-268.61 445.73,-257.01 429,-240.25 405.35,-216.55 366.26,-125.26 349.75,-85.06"/>
<polygon fill="#63b8ff" stroke="#63b8ff" points="352.65,-83.91 345.64,-75.97 346.17,-86.56 352.65,-83.91"/>
</g>
<!-- Node22 -->
<g id="node22" class="node">
<title>Node22</title>
<g id="a_node22"><a xlink:title=" ">
<polygon fill="#e0e0e0" stroke="#999999" points="584.25,-240.25 545.75,-240.25 545.75,-221 584.25,-221 584.25,-240.25"/>
<text text-anchor="middle" x="565" y="-226.75" font-family="Helvetica,sans-Serif" font-size="10.00">utility</text>
</a>
</g>
</g>
<!-- Node21&#45;&gt;Node22 -->
<g id="edge37" class="edge">
<title>Node21&#45;&gt;Node22</title>
<path fill="none" stroke="#63b8ff" d="M525.76,-276.08C532.32,-268.65 541.91,-257.79 549.96,-248.66"/>
<polygon fill="#63b8ff" stroke="#63b8ff" points="552.08,-251.42 556.07,-241.61 546.83,-246.79 552.08,-251.42"/>
</g>
<!-- Node23&#45;&gt;Node14 -->
<g id="edge50" class="edge">
<title>Node23&#45;&gt;Node14</title>
<path fill="none" stroke="#63b8ff" d="M300.55,-441.65C235.24,-418.39 76,-349.58 76,-231.62 76,-231.62 76,-231.62 76,-174.38 76,-144.05 76.74,-129.96 100,-110.5 129.92,-85.46 240.31,-73.44 301.14,-68.6"/>
<polygon fill="#63b8ff" stroke="#63b8ff" points="301.18,-72.03 310.88,-67.78 300.65,-65.05 301.18,-72.03"/>
</g>
<!-- Node23&#45;&gt;Node15 -->
<g id="edge47" class="edge">
<title>Node23&#45;&gt;Node15</title>
<path fill="none" stroke="#63b8ff" d="M366.68,-451.02C455.31,-451.15 679.39,-447.01 861,-406 996.76,-375.34 1027,-352.44 1154,-295.5 1188.17,-280.18 1226.19,-259.7 1250.57,-246.1"/>
<polygon fill="#63b8ff" stroke="#63b8ff" points="1252.12,-248.68 1259.13,-240.73 1248.69,-242.58 1252.12,-248.68"/>
</g>
<!-- Node23&#45;&gt;Node18 -->
<g id="edge49" class="edge">
<title>Node23&#45;&gt;Node18</title>
<path fill="none" stroke="#63b8ff" d="M366.62,-446.4C454.7,-436.77 670.24,-413.2 766.82,-402.64"/>
<polygon fill="#63b8ff" stroke="#63b8ff" points="767.15,-406.02 776.71,-401.45 766.39,-399.06 767.15,-406.02"/>
</g>
<!-- Node23&#45;&gt;Node21 -->
<g id="edge48" class="edge">
<title>Node23&#45;&gt;Node21</title>
<path fill="none" stroke="#63b8ff" d="M338.49,-441.59C369.44,-414.91 460.7,-336.25 499.84,-302.52"/>
<polygon fill="#63b8ff" stroke="#63b8ff" points="501.49,-304.86 506.78,-295.68 496.92,-299.56 501.49,-304.86"/>
</g>
<!-- Node24 -->
<g id="node24" class="node">
<title>Node24</title>
<g id="a_node24"><a xlink:title=" ">
<polygon fill="#e0e0e0" stroke="#999999" points="490.25,-240.25 445.75,-240.25 445.75,-221 490.25,-221 490.25,-240.25"/>
<text text-anchor="middle" x="468" y="-226.75" font-family="Helvetica,sans-Serif" font-size="10.00">stdio.h</text>
</a>
</g>
</g>
<!-- Node23&#45;&gt;Node24 -->
<g id="edge45" class="edge">
<title>Node23&#45;&gt;Node24</title>
<path fill="none" stroke="#63b8ff" d="M333.66,-441.77C354.64,-408.95 428.18,-293.91 456.64,-249.4"/>
<polygon fill="#63b8ff" stroke="#63b8ff" points="459.98,-251.66 462.42,-241.35 454.09,-247.89 459.98,-251.66"/>
</g>
<!-- Node25 -->
<g id="node25" class="node">
<title>Node25</title>
<g id="a_node25"><a xlink:title=" ">
<polygon fill="#e0e0e0" stroke="#999999" points="300.25,-406 255.75,-406 255.75,-386.75 300.25,-386.75 300.25,-406"/>
<text text-anchor="middle" x="278" y="-392.5" font-family="Helvetica,sans-Serif" font-size="10.00">iosfwd</text>
</a>
</g>
</g>
<!-- Node23&#45;&gt;Node25 -->
<g id="edge46" class="edge">
<title>Node23&#45;&gt;Node25</title>
<path fill="none" stroke="#63b8ff" d="M319.74,-441.83C312.69,-434.32 302.35,-423.31 293.73,-414.13"/>
<polygon fill="#63b8ff" stroke="#63b8ff" points="296.83,-412.25 287.44,-407.36 291.73,-417.05 296.83,-412.25"/>
</g>
<!-- Node26&#45;&gt;Node7 -->
<g id="edge52" class="edge">
<title>Node26&#45;&gt;Node7</title>
<path fill="none" stroke="#63b8ff" d="M964.98,-450.35C1011.63,-448.71 1099.87,-440.77 1165,-406 1194.55,-390.23 1359.49,-216.8 1370,-185 1372.68,-176.88 1375.66,-172.16 1370,-165.75 1349.75,-142.8 1150.74,-128.79 1059.4,-123.51"/>
<polygon fill="#63b8ff" stroke="#63b8ff" points="1059.74,-119.97 1049.55,-122.9 1059.34,-126.96 1059.74,-119.97"/>
</g>
<!-- Node26&#45;&gt;Node14 -->
<g id="edge79" class="edge">
<title>Node26&#45;&gt;Node14</title>
<path fill="none" stroke="#63b8ff" d="M900.89,-449.11C749.47,-441.09 114,-397.57 114,-231.62 114,-231.62 114,-231.62 114,-174.38 114,-144.05 115.07,-130.35 138,-110.5 162.06,-89.68 249.02,-76.43 301.32,-70.16"/>
<polygon fill="#63b8ff" stroke="#63b8ff" points="301.39,-73.56 310.92,-68.93 300.58,-66.61 301.39,-73.56"/>
</g>
<!-- Node26&#45;&gt;Node15 -->
<g id="edge53" class="edge">
<title>Node26&#45;&gt;Node15</title>
<path fill="none" stroke="#63b8ff" d="M965.03,-451.58C1009.22,-451.3 1089.48,-444.89 1143,-406 1173.93,-383.53 1163.52,-362.43 1186,-331.5 1208.83,-300.09 1240,-267.32 1259.03,-248.23"/>
<polygon fill="#63b8ff" stroke="#63b8ff" points="1260.98,-251.23 1265.61,-241.7 1256.05,-246.26 1260.98,-251.23"/>
</g>
<!-- Node26&#45;&gt;Node18 -->
<g id="edge61" class="edge">
<title>Node26&#45;&gt;Node18</title>
<path fill="none" stroke="#63b8ff" d="M912.98,-441.59C894.34,-433.18 866.28,-420.52 844.97,-410.9"/>
<polygon fill="#63b8ff" stroke="#63b8ff" points="846.67,-407.38 836.12,-406.45 843.79,-413.76 846.67,-407.38"/>
</g>
<!-- Node26&#45;&gt;Node20 -->
<g id="edge78" class="edge">
<title>Node26&#45;&gt;Node20</title>
<path fill="none" stroke="#63b8ff" d="M901.08,-446.15C858.46,-439.5 786.32,-425.64 769,-406 758.58,-394.17 756.89,-376.04 757.49,-362.11"/>
<polygon fill="#63b8ff" stroke="#63b8ff" points="761.06,-362.48 758.44,-352.22 754.09,-361.88 761.06,-362.48"/>
</g>
<!-- Node26&#45;&gt;Node21 -->
<g id="edge54" class="edge">
<title>Node26&#45;&gt;Node21</title>
<path fill="none" stroke="#63b8ff" d="M901.18,-444.85C865.06,-437.79 804.73,-424.47 755,-406 674.04,-375.92 584.51,-325.98 542.41,-301.42"/>
<polygon fill="#63b8ff" stroke="#63b8ff" points="544.4,-297.94 534,-295.89 540.85,-303.98 544.4,-297.94"/>
</g>
<!-- Node27 -->
<g id="node27" class="node">
<title>Node27</title>
<g id="a_node27"><a xlink:href="v8-persistent-handle_8h.html" target="_top" xlink:title=" ">
<polygon fill="white" stroke="#666666" points="1057.62,-295.5 946.38,-295.5 946.38,-276.25 1057.62,-276.25 1057.62,-295.5"/>
<text text-anchor="middle" x="1002" y="-282" font-family="Helvetica,sans-Serif" font-size="10.00">v8&#45;persistent&#45;handle.h</text>
</a>
</g>
</g>
<!-- Node26&#45;&gt;Node27 -->
<g id="edge55" class="edge">
<title>Node26&#45;&gt;Node27</title>
<path fill="none" stroke="#63b8ff" d="M936.71,-441.82C947.52,-416.17 979.17,-341.05 994.07,-305.69"/>
<polygon fill="#63b8ff" stroke="#63b8ff" points="997.61,-307.3 998.27,-296.72 991.16,-304.58 997.61,-307.3"/>
</g>
<!-- Node29 -->
<g id="node29" class="node">
<title>Node29</title>
<g id="a_node29"><a xlink:href="v8-sandbox_8h.html" target="_top" xlink:title=" ">
<polygon fill="white" stroke="#666666" points="1133.5,-406 1060.5,-406 1060.5,-386.75 1133.5,-386.75 1133.5,-406"/>
<text text-anchor="middle" x="1097" y="-392.5" font-family="Helvetica,sans-Serif" font-size="10.00">v8&#45;sandbox.h</text>
</a>
</g>
</g>
<!-- Node26&#45;&gt;Node29 -->
<g id="edge62" class="edge">
<title>Node26&#45;&gt;Node29</title>
<path fill="none" stroke="#63b8ff" d="M960.82,-441.59C987.8,-432.83 1028.93,-419.48 1058.94,-409.73"/>
<polygon fill="#63b8ff" stroke="#63b8ff" points="1059.61,-412.87 1068.04,-406.45 1057.45,-406.21 1059.61,-412.87"/>
</g>
<!-- Node30 -->
<g id="node30" class="node">
<title>Node30</title>
<g id="a_node30"><a xlink:href="v8-traced-handle_8h.html" target="_top" xlink:title=" ">
<polygon fill="white" stroke="#666666" points="771.75,-295.5 676.25,-295.5 676.25,-276.25 771.75,-276.25 771.75,-295.5"/>
<text text-anchor="middle" x="724" y="-282" font-family="Helvetica,sans-Serif" font-size="10.00">v8&#45;traced&#45;handle.h</text>
</a>
</g>
</g>
<!-- Node26&#45;&gt;Node30 -->
<g id="edge66" class="edge">
<title>Node26&#45;&gt;Node30</title>
<path fill="none" stroke="#63b8ff" d="M924.09,-441.61C903.3,-420.81 849.49,-368.45 799,-331.5 783.7,-320.3 765.44,-309.39 750.77,-301.16"/>
<polygon fill="#63b8ff" stroke="#63b8ff" points="752.71,-297.68 742.26,-295.92 749.33,-303.81 752.71,-297.68"/>
</g>
<!-- Node27&#45;&gt;Node7 -->
<g id="edge56" class="edge">
<title>Node27&#45;&gt;Node7</title>
<path fill="none" stroke="#63b8ff" d="M1050.15,-275.81C1086.11,-267.94 1130.9,-255.44 1142,-240.25 1174.46,-195.84 1096.84,-154.61 1048.71,-134.32"/>
<polygon fill="#63b8ff" stroke="#63b8ff" points="1050.22,-130.75 1039.64,-130.19 1047.57,-137.22 1050.22,-130.75"/>
</g>
<!-- Node27&#45;&gt;Node14 -->
<g id="edge60" class="edge">
<title>Node27&#45;&gt;Node14</title>
<path fill="none" stroke="#63b8ff" d="M1003.93,-276.16C1006.39,-262.54 1008.82,-236.18 995,-221 859.36,-72.04 744.51,-185.77 551,-129.75 527.73,-123.01 523.01,-118.08 500,-110.5 460.47,-97.48 414.64,-84.8 382.55,-76.3"/>
<polygon fill="#63b8ff" stroke="#63b8ff" points="383.79,-72.75 373.23,-73.59 382.01,-79.52 383.79,-72.75"/>
</g>
<!-- Node27&#45;&gt;Node15 -->
<g id="edge57" class="edge">
<title>Node27&#45;&gt;Node15</title>
<path fill="none" stroke="#63b8ff" d="M1048.79,-275.78C1096.35,-266.54 1170.02,-252.22 1220.5,-242.41"/>
<polygon fill="#63b8ff" stroke="#63b8ff" points="1221.07,-245.67 1230.22,-240.33 1219.74,-238.8 1221.07,-245.67"/>
</g>
<!-- Node28 -->
<g id="node28" class="node">
<title>Node28</title>
<g id="a_node28"><a xlink:href="v8-weak-callback-info_8h.html" target="_top" xlink:title=" ">
<polygon fill="white" stroke="#666666" points="986,-240.25 868,-240.25 868,-221 986,-221 986,-240.25"/>
<text text-anchor="middle" x="927" y="-226.75" font-family="Helvetica,sans-Serif" font-size="10.00">v8&#45;weak&#45;callback&#45;info.h</text>
</a>
</g>
</g>
<!-- Node27&#45;&gt;Node28 -->
<g id="edge58" class="edge">
<title>Node27&#45;&gt;Node28</title>
<path fill="none" stroke="#63b8ff" d="M989.28,-275.84C978.18,-267.96 961.84,-256.36 948.68,-247.02"/>
<polygon fill="#63b8ff" stroke="#63b8ff" points="950.97,-243.64 940.79,-240.7 946.91,-249.35 950.97,-243.64"/>
</g>
<!-- Node28&#45;&gt;Node14 -->
<g id="edge59" class="edge">
<title>Node28&#45;&gt;Node14</title>
<path fill="none" stroke="#63b8ff" d="M867.8,-224.5C786.53,-216.97 644.89,-201.97 596,-185 534.54,-163.67 529.01,-137.9 470,-110.5 441.61,-97.32 408.17,-85.79 382.59,-77.75"/>
<polygon fill="#63b8ff" stroke="#63b8ff" points="383.73,-74.13 373.15,-74.53 381.67,-80.82 383.73,-74.13"/>
</g>
<!-- Node29&#45;&gt;Node5 -->
<g id="edge63" class="edge">
<title>Node29&#45;&gt;Node5</title>
<path fill="none" stroke="#63b8ff" d="M1129.57,-386.34C1164.67,-376.61 1220.24,-361.19 1255.64,-351.38"/>
<polygon fill="#63b8ff" stroke="#63b8ff" points="1256.24,-354.57 1264.94,-348.52 1254.37,-347.82 1256.24,-354.57"/>
</g>
<!-- Node29&#45;&gt;Node7 -->
<g id="edge64" class="edge">
<title>Node29&#45;&gt;Node7</title>
<path fill="none" stroke="#63b8ff" d="M1103.88,-386.55C1122.69,-361.37 1172.66,-286.75 1159,-221 1153.55,-194.79 1154.46,-184.14 1135,-165.75 1114.3,-146.19 1084.31,-135.05 1059.36,-128.79"/>
<polygon fill="#63b8ff" stroke="#63b8ff" points="1060.19,-125.16 1049.66,-126.33 1058.62,-131.98 1060.19,-125.16"/>
</g>
<!-- Node29&#45;&gt;Node14 -->
<g id="edge65" class="edge">
<title>Node29&#45;&gt;Node14</title>
<path fill="none" stroke="#63b8ff" d="M1060.05,-391.91C992.52,-385.36 844.72,-370.1 721,-350.75 689.24,-345.78 465,-311.3 437,-295.5 360.77,-252.49 345.7,-133.44 342.73,-85.88"/>
<polygon fill="#63b8ff" stroke="#63b8ff" points="346.18,-85.76 342.19,-75.95 339.18,-86.11 346.18,-85.76"/>
</g>
<!-- Node30&#45;&gt;Node2 -->
<g id="edge67" class="edge">
<title>Node30&#45;&gt;Node2</title>
<path fill="none" stroke="#63b8ff" d="M771.96,-277.41C846.96,-265.68 984.56,-243.88 995,-240.25 1113.46,-199.09 1239.71,-115.35 1288.79,-81.04"/>
<polygon fill="#63b8ff" stroke="#63b8ff" points="1290.39,-83.49 1296.55,-74.87 1286.36,-77.77 1290.39,-83.49"/>
</g>
<!-- Node30&#45;&gt;Node3 -->
<g id="edge68" class="edge">
<title>Node30&#45;&gt;Node3</title>
<path fill="none" stroke="#63b8ff" d="M742.75,-275.93C768.8,-263.52 817.42,-240.42 859,-221 946.79,-180 973.8,-179.41 1057,-129.75 1081.07,-115.38 1106.5,-95.58 1123.2,-81.85"/>
<polygon fill="#63b8ff" stroke="#63b8ff" points="1125.08,-84.01 1130.52,-74.92 1120.59,-78.63 1125.08,-84.01"/>
</g>
<!-- Node30&#45;&gt;Node7 -->
<g id="edge74" class="edge">
<title>Node30&#45;&gt;Node7</title>
<path fill="none" stroke="#63b8ff" d="M734.51,-276.05C760.29,-254.74 829.23,-199.77 894,-165.75 919.08,-152.57 948.94,-141.46 972.6,-133.61"/>
<polygon fill="#63b8ff" stroke="#63b8ff" points="973.56,-136.66 981.99,-130.24 971.4,-130 973.56,-136.66"/>
</g>
<!-- Node30&#45;&gt;Node9 -->
<g id="edge70" class="edge">
<title>Node30&#45;&gt;Node9</title>
<path fill="none" stroke="#63b8ff" d="M729.05,-276.02C747.74,-243.27 813.17,-128.64 838.7,-83.93"/>
<polygon fill="#63b8ff" stroke="#63b8ff" points="842.1,-86.02 844.02,-75.6 836.02,-82.55 842.1,-86.02"/>
</g>
<!-- Node30&#45;&gt;Node11 -->
<g id="edge71" class="edge">
<title>Node30&#45;&gt;Node11</title>
<path fill="none" stroke="#63b8ff" d="M726.46,-275.75C736.95,-236.87 778.06,-84.51 792.75,-30.08"/>
<polygon fill="#63b8ff" stroke="#63b8ff" points="796.38,-31.07 795.6,-20.51 789.62,-29.25 796.38,-31.07"/>
</g>
<!-- Node30&#45;&gt;Node13 -->
<g id="edge72" class="edge">
<title>Node30&#45;&gt;Node13</title>
<path fill="none" stroke="#63b8ff" d="M708.08,-275.83C696.23,-268.09 680.94,-255.75 674,-240.25 660.47,-210.03 664.4,-197.44 674,-165.75 679.57,-147.35 692.43,-148.15 698,-129.75 700.48,-121.56 700.02,-118.81 698,-110.5 695.77,-101.31 691.3,-91.9 686.89,-84.1"/>
<polygon fill="#63b8ff" stroke="#63b8ff" points="689.5,-82.66 681.32,-75.93 683.52,-86.3 689.5,-82.66"/>
</g>
<!-- Node30&#45;&gt;Node14 -->
<g id="edge77" class="edge">
<title>Node30&#45;&gt;Node14</title>
<path fill="none" stroke="#63b8ff" d="M708.36,-275.84C684.28,-262.26 636.35,-236.52 593,-221 528.05,-197.74 500.7,-221.25 442,-185 440.6,-184.14 383.49,-115.68 356.22,-82.95"/>
<polygon fill="#63b8ff" stroke="#63b8ff" points="358.48,-81.19 349.39,-75.75 353.1,-85.67 358.48,-81.19"/>
</g>
<!-- Node30&#45;&gt;Node15 -->
<g id="edge75" class="edge">
<title>Node30&#45;&gt;Node15</title>
<path fill="none" stroke="#63b8ff" d="M772.17,-277.38C775.16,-276.98 778.12,-276.6 781,-276.25 939.92,-257.08 1128.45,-242.26 1220.23,-235.55"/>
<polygon fill="#63b8ff" stroke="#63b8ff" points="1220.48,-238.97 1230.2,-234.75 1219.97,-231.99 1220.48,-238.97"/>
</g>
<!-- Node30&#45;&gt;Node22 -->
<g id="edge73" class="edge">
<title>Node30&#45;&gt;Node22</title>
<path fill="none" stroke="#63b8ff" d="M697.03,-275.84C668.62,-266.33 624.02,-251.39 594.64,-241.55"/>
<polygon fill="#63b8ff" stroke="#63b8ff" points="596.16,-238.03 585.57,-238.18 593.94,-244.67 596.16,-238.03"/>
</g>
<!-- Node30&#45;&gt;Node24 -->
<g id="edge69" class="edge">
<title>Node30&#45;&gt;Node24</title>
<path fill="none" stroke="#63b8ff" d="M680.28,-275.78C629.49,-265.22 546.82,-248.02 501.08,-238.51"/>
<polygon fill="#63b8ff" stroke="#63b8ff" points="502.06,-234.93 491.56,-236.32 500.63,-241.78 502.06,-234.93"/>
</g>
<!-- Node30&#45;&gt;Node28 -->
<g id="edge76" class="edge">
<title>Node30&#45;&gt;Node28</title>
<path fill="none" stroke="#63b8ff" d="M758.44,-275.84C792.41,-266.93 844.53,-253.26 881.82,-243.48"/>
<polygon fill="#63b8ff" stroke="#63b8ff" points="882.61,-246.63 891.39,-240.7 880.83,-239.85 882.61,-246.63"/>
</g>
<!-- Node31&#45;&gt;Node4 -->
<g id="edge89" class="edge">
<title>Node31&#45;&gt;Node4</title>
<path fill="none" stroke="#63b8ff" d="M1129.58,-557.5C1185.41,-551.47 1286.83,-537.91 1316,-516.5 1330.8,-505.64 1340.07,-486.55 1345.32,-472.06"/>
<polygon fill="#63b8ff" stroke="#63b8ff" points="1348.94,-473.27 1348.7,-462.67 1342.28,-471.1 1348.94,-473.27"/>
</g>
<!-- Node31&#45;&gt;Node14 -->
<g id="edge98" class="edge">
<title>Node31&#45;&gt;Node14</title>
<path fill="none" stroke="#63b8ff" d="M1054.27,-560.32C902.25,-556.92 339.16,-542.67 264,-516.5 128.77,-469.41 38,-430.07 38,-286.88 38,-286.88 38,-286.88 38,-174.38 38,-140.4 51.56,-129.09 80,-110.5 115.71,-87.16 236.51,-74.26 300.86,-68.89"/>
<polygon fill="#63b8ff" stroke="#63b8ff" points="301.12,-72.3 310.81,-68 300.56,-65.32 301.12,-72.3"/>
</g>
<!-- Node31&#45;&gt;Node15 -->
<g id="edge90" class="edge">
<title>Node31&#45;&gt;Node15</title>
<path fill="none" stroke="#63b8ff" d="M1113.09,-552.13C1130.42,-544.18 1155.1,-531.53 1174,-516.5 1251.07,-455.21 1286.06,-442.81 1321,-350.75 1334.72,-314.6 1308.69,-272.24 1290.82,-249.03"/>
<polygon fill="#63b8ff" stroke="#63b8ff" points="1293.02,-247.19 1284.02,-241.59 1287.57,-251.58 1293.02,-247.19"/>
</g>
<!-- Node31&#45;&gt;Node19 -->
<g id="edge83" class="edge">
<title>Node31&#45;&gt;Node19</title>
<path fill="none" stroke="#63b8ff" d="M1054.27,-557.69C930.23,-545.88 543,-504.85 543,-452.62 543,-452.62 543,-452.62 543,-395.38 543,-370.27 703.59,-320.18 779.33,-297.94"/>
<polygon fill="#63b8ff" stroke="#63b8ff" points="780.24,-301.03 788.86,-294.87 778.28,-294.31 780.24,-301.03"/>
</g>
<!-- Node31&#45;&gt;Node26 -->
<g id="edge97" class="edge">
<title>Node31&#45;&gt;Node26</title>
<path fill="none" stroke="#63b8ff" d="M1086.7,-552.1C1078.34,-538.54 1060.85,-512.82 1040,-497.25 1020.68,-482.83 996.02,-472.13 975.24,-464.84"/>
<polygon fill="#63b8ff" stroke="#63b8ff" points="976.68,-461.29 966.09,-461.43 974.46,-467.93 976.68,-461.29"/>
</g>
<!-- Node32 -->
<g id="node32" class="node">
<title>Node32</title>
<g id="a_node32"><a xlink:title=" ">
<polygon fill="#e0e0e0" stroke="#999999" points="1307.12,-516.5 1258.88,-516.5 1258.88,-497.25 1307.12,-497.25 1307.12,-516.5"/>
<text text-anchor="middle" x="1283" y="-503" font-family="Helvetica,sans-Serif" font-size="10.00">cstddef</text>
</a>
</g>
</g>
<!-- Node31&#45;&gt;Node32 -->
<g id="edge81" class="edge">
<title>Node31&#45;&gt;Node32</title>
<path fill="none" stroke="#63b8ff" d="M1124.4,-552.09C1158.83,-542.49 1213.08,-527.37 1248.35,-517.54"/>
<polygon fill="#63b8ff" stroke="#63b8ff" points="1248.95,-520.72 1257.64,-514.67 1247.07,-513.98 1248.95,-520.72"/>
</g>
<!-- Node33 -->
<g id="node33" class="node">
<title>Node33</title>
<g id="a_node33"><a xlink:title=" ">
<polygon fill="#e0e0e0" stroke="#999999" points="1030.75,-516.5 965.25,-516.5 965.25,-497.25 1030.75,-497.25 1030.75,-516.5"/>
<text text-anchor="middle" x="998" y="-503" font-family="Helvetica,sans-Serif" font-size="10.00">string_view</text>
</a>
</g>
</g>
<!-- Node31&#45;&gt;Node33 -->
<g id="edge82" class="edge">
<title>Node31&#45;&gt;Node33</title>
<path fill="none" stroke="#63b8ff" d="M1076.05,-552.09C1061.6,-543.91 1040.07,-531.71 1023.27,-522.19"/>
<polygon fill="#63b8ff" stroke="#63b8ff" points="1025.45,-518.84 1015.02,-516.95 1022,-524.93 1025.45,-518.84"/>
</g>
<!-- Node34 -->
<g id="node34" class="node">
<title>Node34</title>
<g id="a_node34"><a xlink:href="v8-exception_8h.html" target="_top" xlink:title=" ">
<polygon fill="white" stroke="#666666" points="1165.12,-516.5 1086.88,-516.5 1086.88,-497.25 1165.12,-497.25 1165.12,-516.5"/>
<text text-anchor="middle" x="1126" y="-503" font-family="Helvetica,sans-Serif" font-size="10.00">v8&#45;exception.h</text>
</a>
</g>
</g>
<!-- Node31&#45;&gt;Node34 -->
<g id="edge84" class="edge">
<title>Node31&#45;&gt;Node34</title>
<path fill="none" stroke="#63b8ff" d="M1097.61,-552.33C1102.16,-545.21 1108.73,-534.93 1114.4,-526.05"/>
<polygon fill="#63b8ff" stroke="#63b8ff" points="1117.83,-528.17 1120.26,-517.86 1111.93,-524.4 1117.83,-528.17"/>
</g>
<!-- Node35 -->
<g id="node35" class="node">
<title>Node35</title>
<g id="a_node35"><a xlink:href="v8-memory-span_8h.html" target="_top" xlink:title=" ">
<polygon fill="white" stroke="#666666" points="655.75,-129.75 560.25,-129.75 560.25,-110.5 655.75,-110.5 655.75,-129.75"/>
<text text-anchor="middle" x="608" y="-116.25" font-family="Helvetica,sans-Serif" font-size="10.00">v8&#45;memory&#45;span.h</text>
</a>
</g>
</g>
<!-- Node31&#45;&gt;Node35 -->
<g id="edge91" class="edge">
<title>Node31&#45;&gt;Node35</title>
<path fill="none" stroke="#63b8ff" d="M1054.39,-560.62C883.68,-557.85 190,-541.15 190,-452.62 190,-452.62 190,-452.62 190,-340.12 190,-179.81 434.24,-136.62 549.33,-125.17"/>
<polygon fill="#63b8ff" stroke="#63b8ff" points="549.42,-128.58 559.05,-124.16 548.77,-121.61 549.42,-128.58"/>
</g>
<!-- Node34&#45;&gt;Node2 -->
<g id="edge85" class="edge">
<title>Node34&#45;&gt;Node2</title>
<path fill="none" stroke="#63b8ff" d="M1165.62,-502.67C1234.17,-496.64 1371.75,-482.31 1415,-461.25 1516.88,-411.64 1601,-400.19 1601,-286.88 1601,-286.88 1601,-286.88 1601,-174.38 1601,-120.61 1424.38,-84.76 1346.34,-71.55"/>
<polygon fill="#63b8ff" stroke="#63b8ff" points="1347.01,-67.95 1336.57,-69.76 1345.86,-74.85 1347.01,-67.95"/>
</g>
<!-- Node34&#45;&gt;Node14 -->
<g id="edge88" class="edge">
<title>Node34&#45;&gt;Node14</title>
<path fill="none" stroke="#63b8ff" d="M1086.65,-501.49C1072.02,-499.97 1055.26,-498.38 1040,-497.25 955.8,-491.04 358.88,-493.86 281,-461.25 209.01,-431.11 152,-420.16 152,-342.12 152,-342.12 152,-342.12 152,-174.38 152,-106.18 245.44,-80.27 301.27,-70.88"/>
<polygon fill="#63b8ff" stroke="#63b8ff" points="301.56,-74.22 310.89,-69.21 300.47,-67.31 301.56,-74.22"/>
</g>
<!-- Node34&#45;&gt;Node15 -->
<g id="edge86" class="edge">
<title>Node34&#45;&gt;Node15</title>
<path fill="none" stroke="#63b8ff" d="M1130.99,-496.75C1152.39,-457.62 1236.64,-303.59 1265.91,-250.07"/>
<polygon fill="#63b8ff" stroke="#63b8ff" points="1269.41,-251.96 1271.14,-241.51 1263.27,-248.6 1269.41,-251.96"/>
</g>
<!-- Node34&#45;&gt;Node26 -->
<g id="edge87" class="edge">
<title>Node34&#45;&gt;Node26</title>
<path fill="none" stroke="#63b8ff" d="M1093.26,-496.84C1060.8,-487.89 1010.93,-474.13 975.45,-464.34"/>
<polygon fill="#63b8ff" stroke="#63b8ff" points="976.51,-460.72 965.94,-461.44 974.64,-467.47 976.51,-460.72"/>
</g>
<!-- Node35&#45;&gt;Node2 -->
<g id="edge92" class="edge">
<title>Node35&#45;&gt;Node2</title>
<path fill="none" stroke="#63b8ff" d="M655.98,-115.49C788.23,-105.45 1156,-77.56 1273.45,-68.65"/>
<polygon fill="#63b8ff" stroke="#63b8ff" points="1273.62,-72.07 1283.33,-67.82 1273.09,-65.09 1273.62,-72.07"/>
</g>
<!-- Node35&#45;&gt;Node10 -->
<g id="edge94" class="edge">
<title>Node35&#45;&gt;Node10</title>
<path fill="none" stroke="#63b8ff" d="M631.58,-110.09C654.08,-101.47 688.2,-88.4 713.52,-78.7"/>
<polygon fill="#63b8ff" stroke="#63b8ff" points="714.68,-81.62 722.77,-74.77 712.18,-75.08 714.68,-81.62"/>
</g>
<!-- Node35&#45;&gt;Node13 -->
<g id="edge95" class="edge">
<title>Node35&#45;&gt;Node13</title>
<path fill="none" stroke="#63b8ff" d="M619.37,-110.09C629.24,-102.24 643.77,-90.7 655.5,-81.37"/>
<polygon fill="#63b8ff" stroke="#63b8ff" points="657.15,-83.74 662.8,-74.77 652.8,-78.26 657.15,-83.74"/>
</g>
<!-- Node35&#45;&gt;Node14 -->
<g id="edge96" class="edge">
<title>Node35&#45;&gt;Node14</title>
<path fill="none" stroke="#63b8ff" d="M562.58,-110.03C512.05,-99.92 431.18,-83.73 382.67,-74.02"/>
<polygon fill="#63b8ff" stroke="#63b8ff" points="383.44,-70.4 372.95,-71.87 382.07,-77.27 383.44,-70.4"/>
</g>
<!-- Node36 -->
<g id="node36" class="node">
<title>Node36</title>
<g id="a_node36"><a xlink:title=" ">
<polygon fill="#e0e0e0" stroke="#999999" points="626.5,-74.5 589.5,-74.5 589.5,-55.25 626.5,-55.25 626.5,-74.5"/>
<text text-anchor="middle" x="608" y="-61" font-family="Helvetica,sans-Serif" font-size="10.00">array</text>
</a>
</g>
</g>
<!-- Node35&#45;&gt;Node36 -->
<g id="edge93" class="edge">
<title>Node35&#45;&gt;Node36</title>
<path fill="none" stroke="#63b8ff" d="M608,-110.33C608,-103.67 608,-94.24 608,-85.78"/>
<polygon fill="#63b8ff" stroke="#63b8ff" points="611.5,-85.86 608,-75.86 604.5,-85.86 611.5,-85.86"/>
</g>
</g>
</svg>
