<?xml version="1.0" encoding="UTF-8" standalone="no"?>
<!DOCTYPE svg PUBLIC "-//W3C//DTD SVG 1.1//EN"
 "http://www.w3.org/Graphics/SVG/1.1/DTD/svg11.dtd">
<!-- Generated by graphviz version 8.0.5 (20230430.1635)
 -->
<!-- Title: include/v8&#45;sandbox.h Pages: 1 -->
<svg width="1367pt" height="614pt"
 viewBox="0.00 0.00 1366.50 613.50" xmlns="http://www.w3.org/2000/svg" xmlns:xlink="http://www.w3.org/1999/xlink">
<g id="graph0" class="graph" transform="scale(1 1) rotate(0) translate(4 609.5)">
<title>include/v8&#45;sandbox.h</title>
<!-- Node1 -->
<g id="node1" class="node">
<title>Node1</title>
<g id="a_node1"><a xlink:title=" ">
<polygon fill="#999999" stroke="#666666" points="495.38,-605.5 388.62,-605.5 388.62,-586.25 495.38,-586.25 495.38,-605.5"/>
<text text-anchor="middle" x="442" y="-592" font-family="Helvetica,sans-Serif" font-size="10.00">include/v8&#45;sandbox.h</text>
</a>
</g>
</g>
<!-- Node2 -->
<g id="node2" class="node">
<title>Node2</title>
<g id="a_node2"><a xlink:href="v8-object_8h.html" target="_top" xlink:title=" ">
<polygon fill="white" stroke="#666666" points="490.5,-550.25 393.5,-550.25 393.5,-531 490.5,-531 490.5,-550.25"/>
<text text-anchor="middle" x="442" y="-536.75" font-family="Helvetica,sans-Serif" font-size="10.00">include/v8&#45;object.h</text>
</a>
</g>
</g>
<!-- Node1&#45;&gt;Node2 -->
<g id="edge1" class="edge">
<title>Node1&#45;&gt;Node2</title>
<path fill="none" stroke="#63b8ff" d="M442,-575.21C442,-566.77 442,-557.33 442,-550.61"/>
<polygon fill="#63b8ff" stroke="#63b8ff" points="438.5,-575.08 442,-585.08 445.5,-575.08 438.5,-575.08"/>
</g>
<!-- Node3 -->
<g id="node3" class="node">
<title>Node3</title>
<g id="a_node3"><a xlink:href="v8-array-buffer_8h.html" target="_top" xlink:title=" ">
<polygon fill="white" stroke="#666666" points="156.38,-318 37.62,-318 37.62,-298.75 156.38,-298.75 156.38,-318"/>
<text text-anchor="middle" x="97" y="-304.5" font-family="Helvetica,sans-Serif" font-size="10.00">include/v8&#45;array&#45;buffer.h</text>
</a>
</g>
</g>
<!-- Node2&#45;&gt;Node3 -->
<g id="edge2" class="edge">
<title>Node2&#45;&gt;Node3</title>
<path fill="none" stroke="#63b8ff" d="M382.62,-536.85C311.86,-532.39 199.14,-521.29 167,-495 109.41,-447.9 99.17,-348.13 97.38,-318.1"/>
<polygon fill="#63b8ff" stroke="#63b8ff" points="381.98,-540.37 392.17,-537.48 382.4,-533.39 381.98,-540.37"/>
</g>
<!-- Node6 -->
<g id="node6" class="node">
<title>Node6</title>
<g id="a_node6"><a xlink:href="v8_8h.html" target="_top" xlink:title=" ">
<polygon fill="white" stroke="#666666" points="661.88,-19.25 594.12,-19.25 594.12,0 661.88,0 661.88,-19.25"/>
<text text-anchor="middle" x="628" y="-5.75" font-family="Helvetica,sans-Serif" font-size="10.00">include/v8.h</text>
</a>
</g>
</g>
<!-- Node2&#45;&gt;Node6 -->
<g id="edge52" class="edge">
<title>Node2&#45;&gt;Node6</title>
<path fill="none" stroke="#63b8ff" d="M382.47,-536.81C318.76,-532.44 223.63,-521.55 200,-495 128.66,-414.86 184,-361.42 184,-254.12 184,-254.12 184,-254.12 184,-124.75 184,-82.46 211.26,-74.33 249,-55.25 309.02,-24.91 512.17,-14.63 593.71,-11.67"/>
<polygon fill="#63b8ff" stroke="#63b8ff" points="381.99,-540.35 392.2,-537.5 382.44,-533.36 381.99,-540.35"/>
</g>
<!-- Node11 -->
<g id="node11" class="node">
<title>Node11</title>
<g id="a_node11"><a xlink:href="v8-proxy_8h.html" target="_top" xlink:title=" ">
<polygon fill="white" stroke="#666666" points="637.62,-74.5 544.38,-74.5 544.38,-55.25 637.62,-55.25 637.62,-74.5"/>
<text text-anchor="middle" x="591" y="-61" font-family="Helvetica,sans-Serif" font-size="10.00">include/v8&#45;proxy.h</text>
</a>
</g>
</g>
<!-- Node2&#45;&gt;Node11 -->
<g id="edge46" class="edge">
<title>Node2&#45;&gt;Node11</title>
<path fill="none" stroke="#63b8ff" d="M481.61,-526.81C519.19,-512.29 573.45,-484.62 598,-439.75 604.51,-427.86 598.63,-422.79 598,-409.25 592.44,-289.64 578.56,-260.61 573,-141 572.37,-127.46 570.42,-123.81 573,-110.5 575.51,-97.54 581.78,-83.58 586.21,-74.79"/>
<polygon fill="#63b8ff" stroke="#63b8ff" points="480.66,-523.8 472.5,-530.56 483.09,-530.36 480.66,-523.8"/>
</g>
<!-- Node14 -->
<g id="node14" class="node">
<title>Node14</title>
<g id="a_node14"><a xlink:href="v8-container_8h.html" target="_top" xlink:title=" ">
<polygon fill="white" stroke="#666666" points="319.25,-495 208.75,-495 208.75,-475.75 319.25,-475.75 319.25,-495"/>
<text text-anchor="middle" x="264" y="-481.5" font-family="Helvetica,sans-Serif" font-size="10.00">include/v8&#45;container.h</text>
</a>
</g>
</g>
<!-- Node2&#45;&gt;Node14 -->
<g id="edge19" class="edge">
<title>Node2&#45;&gt;Node14</title>
<path fill="none" stroke="#63b8ff" d="M401.28,-527.44C368.72,-517.7 323.8,-504.27 294.34,-495.45"/>
<polygon fill="#63b8ff" stroke="#63b8ff" points="400.22,-531.08 410.8,-530.59 402.23,-524.37 400.22,-531.08"/>
</g>
<!-- Node15 -->
<g id="node15" class="node">
<title>Node15</title>
<g id="a_node15"><a xlink:href="v8-date_8h.html" target="_top" xlink:title=" ">
<polygon fill="white" stroke="#666666" points="341.75,-434.12 252.25,-434.12 252.25,-414.88 341.75,-414.88 341.75,-434.12"/>
<text text-anchor="middle" x="297" y="-420.62" font-family="Helvetica,sans-Serif" font-size="10.00">include/v8&#45;date.h</text>
</a>
</g>
</g>
<!-- Node2&#45;&gt;Node15 -->
<g id="edge21" class="edge">
<title>Node2&#45;&gt;Node15</title>
<path fill="none" stroke="#63b8ff" d="M416.21,-525.05C402.37,-516.84 385.28,-506.03 371,-495 345.33,-475.18 318.33,-447.95 305.18,-434.2"/>
<polygon fill="#63b8ff" stroke="#63b8ff" points="414.22,-528.53 424.62,-530.54 417.75,-522.48 414.22,-528.53"/>
</g>
<!-- Node16 -->
<g id="node16" class="node">
<title>Node16</title>
<g id="a_node16"><a xlink:href="v8-exception_8h.html" target="_top" xlink:title=" ">
<polygon fill="white" stroke="#666666" points="474,-318 362,-318 362,-298.75 474,-298.75 474,-318"/>
<text text-anchor="middle" x="418" y="-304.5" font-family="Helvetica,sans-Serif" font-size="10.00">include/v8&#45;exception.h</text>
</a>
</g>
</g>
<!-- Node2&#45;&gt;Node16 -->
<g id="edge23" class="edge">
<title>Node2&#45;&gt;Node16</title>
<path fill="none" stroke="#63b8ff" d="M439.94,-519.87C434.96,-472.04 422.39,-351.52 418.91,-318.09"/>
<polygon fill="#63b8ff" stroke="#63b8ff" points="436.54,-520.02 441.06,-529.6 443.5,-519.29 436.54,-520.02"/>
</g>
<!-- Node17 -->
<g id="node17" class="node">
<title>Node17</title>
<g id="a_node17"><a xlink:href="v8-template_8h.html" target="_top" xlink:title=" ">
<polygon fill="white" stroke="#666666" points="396.12,-262.75 287.88,-262.75 287.88,-243.5 396.12,-243.5 396.12,-262.75"/>
<text text-anchor="middle" x="342" y="-249.25" font-family="Helvetica,sans-Serif" font-size="10.00">include/v8&#45;template.h</text>
</a>
</g>
</g>
<!-- Node2&#45;&gt;Node17 -->
<g id="edge49" class="edge">
<title>Node2&#45;&gt;Node17</title>
<path fill="none" stroke="#63b8ff" d="M432.94,-520.99C415.05,-483.46 375.02,-395.7 353,-318 347.54,-298.73 344.35,-275.38 342.92,-262.93"/>
<polygon fill="#63b8ff" stroke="#63b8ff" points="430.06,-522.08 437.55,-529.58 436.37,-519.05 430.06,-522.08"/>
</g>
<!-- Node18 -->
<g id="node18" class="node">
<title>Node18</title>
<g id="a_node18"><a xlink:href="v8-function_8h.html" target="_top" xlink:title=" ">
<polygon fill="white" stroke="#666666" points="511.62,-201.88 406.38,-201.88 406.38,-182.62 511.62,-182.62 511.62,-201.88"/>
<text text-anchor="middle" x="459" y="-188.38" font-family="Helvetica,sans-Serif" font-size="10.00">include/v8&#45;function.h</text>
</a>
</g>
</g>
<!-- Node2&#45;&gt;Node18 -->
<g id="edge30" class="edge">
<title>Node2&#45;&gt;Node18</title>
<path fill="none" stroke="#63b8ff" d="M448.91,-520.68C462.87,-480.17 492.35,-382.01 483,-298.75 478.91,-262.35 467.13,-220.19 461.74,-202.17"/>
<polygon fill="#63b8ff" stroke="#63b8ff" points="445.32,-519.33 445.28,-529.93 451.92,-521.67 445.32,-519.33"/>
</g>
<!-- Node19 -->
<g id="node19" class="node">
<title>Node19</title>
<g id="a_node19"><a xlink:href="v8-primitive-object_8h.html" target="_top" xlink:title=" ">
<polygon fill="white" stroke="#666666" points="589,-439.75 489,-439.75 489,-409.25 589,-409.25 589,-439.75"/>
<text text-anchor="start" x="497" y="-426.25" font-family="Helvetica,sans-Serif" font-size="10.00">include/v8&#45;primitive</text>
<text text-anchor="middle" x="539" y="-415" font-family="Helvetica,sans-Serif" font-size="10.00">&#45;object.h</text>
</a>
</g>
</g>
<!-- Node2&#45;&gt;Node19 -->
<g id="edge31" class="edge">
<title>Node2&#45;&gt;Node19</title>
<path fill="none" stroke="#63b8ff" d="M456.63,-522.41C475.71,-499.96 508.78,-461.06 526.66,-440.02"/>
<polygon fill="#63b8ff" stroke="#63b8ff" points="453.42,-519.78 449.61,-529.67 458.75,-524.32 453.42,-519.78"/>
</g>
<!-- Node20 -->
<g id="node20" class="node">
<title>Node20</title>
<g id="a_node20"><a xlink:href="v8-promise_8h.html" target="_top" xlink:title=" ">
<polygon fill="white" stroke="#666666" points="998.62,-495 893.38,-495 893.38,-475.75 998.62,-475.75 998.62,-495"/>
<text text-anchor="middle" x="946" y="-481.5" font-family="Helvetica,sans-Serif" font-size="10.00">include/v8&#45;promise.h</text>
</a>
</g>
</g>
<!-- Node2&#45;&gt;Node20 -->
<g id="edge33" class="edge">
<title>Node2&#45;&gt;Node20</title>
<path fill="none" stroke="#63b8ff" d="M501.52,-533.34C600.73,-522.85 798.37,-501.97 893.04,-491.97"/>
<polygon fill="#63b8ff" stroke="#63b8ff" points="501.36,-529.94 491.78,-534.47 502.1,-536.9 501.36,-529.94"/>
</g>
<!-- Node25 -->
<g id="node25" class="node">
<title>Node25</title>
<g id="a_node25"><a xlink:href="v8-regexp_8h.html" target="_top" xlink:title=" ">
<polygon fill="white" stroke="#666666" points="1291.62,-74.5 1192.38,-74.5 1192.38,-55.25 1291.62,-55.25 1291.62,-74.5"/>
<text text-anchor="middle" x="1242" y="-61" font-family="Helvetica,sans-Serif" font-size="10.00">include/v8&#45;regexp.h</text>
</a>
</g>
</g>
<!-- Node2&#45;&gt;Node25 -->
<g id="edge47" class="edge">
<title>Node2&#45;&gt;Node25</title>
<path fill="none" stroke="#63b8ff" d="M501.64,-537.28C685.61,-529.27 1232,-499.26 1232,-425.5 1232,-425.5 1232,-425.5 1232,-191.25 1232,-147.58 1238.1,-95.62 1240.77,-74.98"/>
<polygon fill="#63b8ff" stroke="#63b8ff" points="501.66,-533.82 491.82,-537.75 501.96,-540.81 501.66,-533.82"/>
</g>
<!-- Node26 -->
<g id="node26" class="node">
<title>Node26</title>
<g id="a_node26"><a xlink:href="v8-wasm_8h.html" target="_top" xlink:title=" ">
<polygon fill="white" stroke="#666666" points="1358.5,-373.25 1261.5,-373.25 1261.5,-354 1358.5,-354 1358.5,-373.25"/>
<text text-anchor="middle" x="1310" y="-359.75" font-family="Helvetica,sans-Serif" font-size="10.00">include/v8&#45;wasm.h</text>
</a>
</g>
</g>
<!-- Node2&#45;&gt;Node26 -->
<g id="edge50" class="edge">
<title>Node2&#45;&gt;Node26</title>
<path fill="none" stroke="#63b8ff" d="M501.85,-539.75C677.73,-539.63 1184.49,-535.74 1246,-495 1289.73,-466.04 1304.65,-398.07 1308.71,-373.6"/>
<polygon fill="#63b8ff" stroke="#63b8ff" points="502,-536.25 492,-539.75 502,-543.25 502,-536.25"/>
</g>
<!-- Node4 -->
<g id="node4" class="node">
<title>Node4</title>
<g id="a_node4"><a xlink:href="v8-isolate_8h.html" target="_top" xlink:title=" ">
<polygon fill="white" stroke="#666666" points="876.62,-262.75 777.38,-262.75 777.38,-243.5 876.62,-243.5 876.62,-262.75"/>
<text text-anchor="middle" x="827" y="-249.25" font-family="Helvetica,sans-Serif" font-size="10.00">include/v8&#45;isolate.h</text>
</a>
</g>
</g>
<!-- Node3&#45;&gt;Node4 -->
<g id="edge3" class="edge">
<title>Node3&#45;&gt;Node4</title>
<path fill="none" stroke="#63b8ff" d="M167.41,-302.24C314.33,-291.52 650.42,-267.01 777.29,-257.75"/>
<polygon fill="#63b8ff" stroke="#63b8ff" points="167.46,-298.8 157.74,-303.02 167.97,-305.78 167.46,-298.8"/>
</g>
<!-- Node3&#45;&gt;Node6 -->
<g id="edge18" class="edge">
<title>Node3&#45;&gt;Node6</title>
<path fill="none" stroke="#63b8ff" d="M110.83,-289.69C116.48,-281.8 122.69,-272.16 127,-262.75 140.33,-233.63 146,-225.27 146,-193.25 146,-193.25 146,-193.25 146,-124.75 146,-92.07 144.34,-75.48 170,-55.25 203.13,-29.13 493.46,-15.73 593.95,-11.84"/>
<polygon fill="#63b8ff" stroke="#63b8ff" points="107.56,-287.22 104.38,-297.33 113.17,-291.41 107.56,-287.22"/>
</g>
<!-- Node12 -->
<g id="node12" class="node">
<title>Node12</title>
<g id="a_node12"><a xlink:href="v8-typed-array_8h.html" target="_top" xlink:title=" ">
<polygon fill="white" stroke="#666666" points="118,-262.75 0,-262.75 0,-243.5 118,-243.5 118,-262.75"/>
<text text-anchor="middle" x="59" y="-249.25" font-family="Helvetica,sans-Serif" font-size="10.00">include/v8&#45;typed&#45;array.h</text>
</a>
</g>
</g>
<!-- Node3&#45;&gt;Node12 -->
<g id="edge15" class="edge">
<title>Node3&#45;&gt;Node12</title>
<path fill="none" stroke="#63b8ff" d="M84.4,-289.72C78.04,-280.81 70.59,-270.37 65.41,-263.11"/>
<polygon fill="#63b8ff" stroke="#63b8ff" points="82.07,-291.47 90.73,-297.58 87.77,-287.41 82.07,-291.47"/>
</g>
<!-- Node5 -->
<g id="node5" class="node">
<title>Node5</title>
<g id="a_node5"><a xlink:href="v8-initialization_8h.html" target="_top" xlink:title=" ">
<polygon fill="white" stroke="#666666" points="1059.5,-201.88 938.5,-201.88 938.5,-182.62 1059.5,-182.62 1059.5,-201.88"/>
<text text-anchor="middle" x="999" y="-188.38" font-family="Helvetica,sans-Serif" font-size="10.00">include/v8&#45;initialization.h</text>
</a>
</g>
</g>
<!-- Node4&#45;&gt;Node5 -->
<g id="edge4" class="edge">
<title>Node4&#45;&gt;Node5</title>
<path fill="none" stroke="#63b8ff" d="M863.56,-239.61C896.22,-228.43 943.29,-212.32 972.47,-202.33"/>
<polygon fill="#63b8ff" stroke="#63b8ff" points="862.83,-236.5 854.5,-243.05 865.09,-243.13 862.83,-236.5"/>
</g>
<!-- Node4&#45;&gt;Node6 -->
<g id="edge14" class="edge">
<title>Node4&#45;&gt;Node6</title>
<path fill="none" stroke="#63b8ff" d="M799.98,-237.51C787.56,-229.81 773.34,-219.47 763,-207.5 713.56,-150.27 735.32,-113.43 687,-55.25 674.69,-40.43 656.55,-27.66 643.64,-19.62"/>
<polygon fill="#63b8ff" stroke="#63b8ff" points="798.05,-241.02 808.44,-243.1 801.61,-235 798.05,-241.02"/>
</g>
<!-- Node7 -->
<g id="node7" class="node">
<title>Node7</title>
<g id="a_node7"><a xlink:href="v8-inspector_8h.html" target="_top" xlink:title=" ">
<polygon fill="white" stroke="#666666" points="882.25,-201.88 771.75,-201.88 771.75,-182.62 882.25,-182.62 882.25,-201.88"/>
<text text-anchor="middle" x="827" y="-188.38" font-family="Helvetica,sans-Serif" font-size="10.00">include/v8&#45;inspector.h</text>
</a>
</g>
</g>
<!-- Node4&#45;&gt;Node7 -->
<g id="edge6" class="edge">
<title>Node4&#45;&gt;Node7</title>
<path fill="none" stroke="#63b8ff" d="M827,-232.37C827,-222.18 827,-210.26 827,-202.28"/>
<polygon fill="#63b8ff" stroke="#63b8ff" points="823.5,-232.18 827,-242.18 830.5,-232.18 823.5,-232.18"/>
</g>
<!-- Node9 -->
<g id="node9" class="node">
<title>Node9</title>
<g id="a_node9"><a xlink:href="v8-snapshot_8h.html" target="_top" xlink:title=" ">
<polygon fill="white" stroke="#666666" points="716.25,-201.88 605.75,-201.88 605.75,-182.62 716.25,-182.62 716.25,-201.88"/>
<text text-anchor="middle" x="661" y="-188.38" font-family="Helvetica,sans-Serif" font-size="10.00">include/v8&#45;snapshot.h</text>
</a>
</g>
</g>
<!-- Node4&#45;&gt;Node9 -->
<g id="edge8" class="edge">
<title>Node4&#45;&gt;Node9</title>
<path fill="none" stroke="#63b8ff" d="M791.31,-239.47C759.8,-228.29 714.64,-212.27 686.6,-202.33"/>
<polygon fill="#63b8ff" stroke="#63b8ff" points="789.83,-243.01 800.43,-243.05 792.17,-236.41 789.83,-243.01"/>
</g>
<!-- Node5&#45;&gt;Node6 -->
<g id="edge5" class="edge">
<title>Node5&#45;&gt;Node6</title>
<path fill="none" stroke="#63b8ff" d="M994.27,-172.01C985.76,-141.77 964.83,-83.68 924,-55.25 882.2,-26.15 730.9,-15.45 662.27,-12.03"/>
<polygon fill="#63b8ff" stroke="#63b8ff" points="991.09,-172.66 997.02,-181.44 997.86,-170.88 991.09,-172.66"/>
</g>
<!-- Node8 -->
<g id="node8" class="node">
<title>Node8</title>
<g id="a_node8"><a xlink:href="v8-inspector-protocol_8h.html" target="_top" xlink:title=" ">
<polygon fill="white" stroke="#666666" points="881.5,-141 778.5,-141 778.5,-110.5 881.5,-110.5 881.5,-141"/>
<text text-anchor="start" x="786.5" y="-127.5" font-family="Helvetica,sans-Serif" font-size="10.00">include/v8&#45;inspector</text>
<text text-anchor="middle" x="830" y="-116.25" font-family="Helvetica,sans-Serif" font-size="10.00">&#45;protocol.h</text>
</a>
</g>
</g>
<!-- Node7&#45;&gt;Node8 -->
<g id="edge7" class="edge">
<title>Node7&#45;&gt;Node8</title>
<path fill="none" stroke="#63b8ff" d="M827.92,-171.52C828.37,-161.7 828.92,-150.05 829.33,-141.09"/>
<polygon fill="#63b8ff" stroke="#63b8ff" points="824.39,-171.13 827.42,-181.28 831.38,-171.45 824.39,-171.13"/>
</g>
<!-- Node9&#45;&gt;Node6 -->
<g id="edge13" class="edge">
<title>Node9&#45;&gt;Node6</title>
<path fill="none" stroke="#63b8ff" d="M675.52,-173.92C682.25,-164.75 689.52,-152.94 693,-141 696.79,-127.99 696.43,-123.61 693,-110.5 683.06,-72.47 652.07,-35.88 636.75,-19.53"/>
<polygon fill="#63b8ff" stroke="#63b8ff" points="672.28,-171.37 668.88,-181.41 677.8,-175.69 672.28,-171.37"/>
</g>
<!-- Node10 -->
<g id="node10" class="node">
<title>Node10</title>
<g id="a_node10"><a xlink:href="v8-context_8h.html" target="_top" xlink:title=" ">
<polygon fill="white" stroke="#666666" points="684.12,-135.38 581.88,-135.38 581.88,-116.12 684.12,-116.12 684.12,-135.38"/>
<text text-anchor="middle" x="633" y="-121.88" font-family="Helvetica,sans-Serif" font-size="10.00">include/v8&#45;context.h</text>
</a>
</g>
</g>
<!-- Node9&#45;&gt;Node10 -->
<g id="edge9" class="edge">
<title>Node9&#45;&gt;Node10</title>
<path fill="none" stroke="#63b8ff" d="M652.76,-172.27C647.51,-160.17 640.94,-145.05 636.86,-135.64"/>
<polygon fill="#63b8ff" stroke="#63b8ff" points="649.91,-173.5 657.11,-181.28 656.34,-170.71 649.91,-173.5"/>
</g>
<!-- Node10&#45;&gt;Node6 -->
<g id="edge12" class="edge">
<title>Node10&#45;&gt;Node6</title>
<path fill="none" stroke="#63b8ff" d="M640.93,-105.88C645.8,-91.89 650.49,-72.38 647,-55.25 644.34,-42.21 637.73,-28.27 633.05,-19.51"/>
<polygon fill="#63b8ff" stroke="#63b8ff" points="637.46,-104.16 637.14,-114.75 643.99,-106.67 637.46,-104.16"/>
</g>
<!-- Node10&#45;&gt;Node11 -->
<g id="edge10" class="edge">
<title>Node10&#45;&gt;Node11</title>
<path fill="none" stroke="#63b8ff" d="M620.31,-106.96C612.76,-96.38 603.5,-83.4 597.44,-74.9"/>
<polygon fill="#63b8ff" stroke="#63b8ff" points="617.96,-108.7 626.62,-114.81 623.66,-104.63 617.96,-108.7"/>
</g>
<!-- Node11&#45;&gt;Node6 -->
<g id="edge11" class="edge">
<title>Node11&#45;&gt;Node6</title>
<path fill="none" stroke="#63b8ff" d="M603.26,-46.22C609.46,-37.31 616.71,-26.87 621.76,-19.61"/>
<polygon fill="#63b8ff" stroke="#63b8ff" points="599.94,-43.87 597.11,-54.08 605.69,-47.87 599.94,-43.87"/>
</g>
<!-- Node12&#45;&gt;Node6 -->
<g id="edge17" class="edge">
<title>Node12&#45;&gt;Node6</title>
<path fill="none" stroke="#63b8ff" d="M36.36,-236.58C27.29,-228.98 17.86,-218.99 13,-207.5 7.72,-195.02 7.88,-189.55 13,-177 41.56,-106.93 63.65,-87.7 132,-55.25 214.01,-16.31 495.24,-11.23 593.65,-10.66"/>
<polygon fill="#63b8ff" stroke="#63b8ff" points="33.72,-239.74 43.77,-243.1 38.01,-234.21 33.72,-239.74"/>
</g>
<!-- Node13 -->
<g id="node13" class="node">
<title>Node13</title>
<g id="a_node13"><a xlink:href="v8-fast-api-calls_8h.html" target="_top" xlink:title=" ">
<polygon fill="white" stroke="#666666" points="117.75,-207.5 22.25,-207.5 22.25,-177 117.75,-177 117.75,-207.5"/>
<text text-anchor="start" x="30.25" y="-194" font-family="Helvetica,sans-Serif" font-size="10.00">include/v8&#45;fast&#45;api</text>
<text text-anchor="middle" x="70" y="-182.75" font-family="Helvetica,sans-Serif" font-size="10.00">&#45;calls.h</text>
</a>
</g>
</g>
<!-- Node12&#45;&gt;Node13 -->
<g id="edge16" class="edge">
<title>Node12&#45;&gt;Node13</title>
<path fill="none" stroke="#63b8ff" d="M62.67,-232.48C64.18,-224.41 65.89,-215.23 67.28,-207.78"/>
<polygon fill="#63b8ff" stroke="#63b8ff" points="59.07,-231.71 60.67,-242.18 65.95,-233 59.07,-231.71"/>
</g>
<!-- Node14&#45;&gt;Node6 -->
<g id="edge20" class="edge">
<title>Node14&#45;&gt;Node6</title>
<path fill="none" stroke="#63b8ff" d="M253.17,-465.97C240.72,-443.04 222,-402.28 222,-364.62 222,-364.62 222,-364.62 222,-124.75 222,-80.59 253.31,-74.6 293,-55.25 345.54,-29.64 519.23,-16.86 593.66,-12.46"/>
<polygon fill="#63b8ff" stroke="#63b8ff" points="250.55,-467.45 258.51,-474.44 256.65,-464.01 250.55,-467.45"/>
</g>
<!-- Node15&#45;&gt;Node6 -->
<g id="edge22" class="edge">
<title>Node15&#45;&gt;Node6</title>
<path fill="none" stroke="#63b8ff" d="M286.99,-404.93C276.03,-382.82 260,-344.48 260,-309.38 260,-309.38 260,-309.38 260,-124.75 260,-75.26 301.73,-75.24 347,-55.25 430.37,-18.44 539.53,-11.51 594,-10.51"/>
<polygon fill="#63b8ff" stroke="#63b8ff" points="284.31,-406.37 292.01,-413.65 290.53,-403.16 284.31,-406.37"/>
</g>
<!-- Node16&#45;&gt;Node4 -->
<g id="edge24" class="edge">
<title>Node16&#45;&gt;Node4</title>
<path fill="none" stroke="#63b8ff" d="M485.13,-298.63C567.04,-287.97 703.63,-270.19 776.91,-260.65"/>
<polygon fill="#63b8ff" stroke="#63b8ff" points="484.9,-295.26 475.44,-300.03 485.81,-302.21 484.9,-295.26"/>
</g>
<!-- Node16&#45;&gt;Node6 -->
<g id="edge29" class="edge">
<title>Node16&#45;&gt;Node6</title>
<path fill="none" stroke="#63b8ff" d="M414.07,-287.61C411.54,-274.98 408.14,-258.26 405,-243.5 401.59,-227.47 398.79,-223.79 397,-207.5 395.52,-194.03 392.83,-189.9 397,-177 417.55,-113.48 430.8,-94.24 485,-55.25 517.62,-31.78 562.95,-20.39 593.77,-15.04"/>
<polygon fill="#63b8ff" stroke="#63b8ff" points="410.81,-288.15 416.2,-297.27 417.67,-286.78 410.81,-288.15"/>
</g>
<!-- Node16&#45;&gt;Node17 -->
<g id="edge25" class="edge">
<title>Node16&#45;&gt;Node17</title>
<path fill="none" stroke="#63b8ff" d="M396.1,-292.03C382.78,-282.7 366.22,-271.1 354.96,-263.2"/>
<polygon fill="#63b8ff" stroke="#63b8ff" points="393.91,-295.47 404.11,-298.34 397.93,-289.74 393.91,-295.47"/>
</g>
<!-- Node17&#45;&gt;Node6 -->
<g id="edge28" class="edge">
<title>Node17&#45;&gt;Node6</title>
<path fill="none" stroke="#63b8ff" d="M337.34,-232.42C329.32,-193 317.85,-104.07 364,-55.25 394.9,-22.57 529.91,-13.8 594,-11.46"/>
<polygon fill="#63b8ff" stroke="#63b8ff" points="334.14,-233.15 339.71,-242.16 340.98,-231.64 334.14,-233.15"/>
</g>
<!-- Node17&#45;&gt;Node18 -->
<g id="edge26" class="edge">
<title>Node17&#45;&gt;Node18</title>
<path fill="none" stroke="#63b8ff" d="M369.84,-238.12C391.94,-227 422.18,-211.78 441.15,-202.23"/>
<polygon fill="#63b8ff" stroke="#63b8ff" points="368.38,-235.43 361.02,-243.05 371.53,-241.69 368.38,-235.43"/>
</g>
<!-- Node18&#45;&gt;Node6 -->
<g id="edge27" class="edge">
<title>Node18&#45;&gt;Node6</title>
<path fill="none" stroke="#63b8ff" d="M459.88,-171.43C462.24,-142.2 470.83,-87.5 502,-55.25 526.27,-30.14 565.55,-19.13 593.81,-14.32"/>
<polygon fill="#63b8ff" stroke="#63b8ff" points="456.34,-171.06 459.21,-181.26 463.32,-171.5 456.34,-171.06"/>
</g>
<!-- Node19&#45;&gt;Node6 -->
<g id="edge32" class="edge">
<title>Node19&#45;&gt;Node6</title>
<path fill="none" stroke="#63b8ff" d="M539.35,-398.18C539.64,-375.05 540,-339.92 540,-309.38 540,-309.38 540,-309.38 540,-252.12 540,-164.6 488.38,-129.33 535,-55.25 547.88,-34.79 573.04,-23.5 593.94,-17.4"/>
<polygon fill="#63b8ff" stroke="#63b8ff" points="535.84,-398.04 539.21,-408.09 542.84,-398.13 535.84,-398.04"/>
</g>
<!-- Node20&#45;&gt;Node6 -->
<g id="edge45" class="edge">
<title>Node20&#45;&gt;Node6</title>
<path fill="none" stroke="#63b8ff" d="M1009.5,-480.5C1082.68,-472.2 1193,-446.16 1193,-364.62 1193,-364.62 1193,-364.62 1193,-307.38 1193,-169.43 1139.11,-108.84 1012,-55.25 949.15,-28.75 744.05,-16.2 662.19,-12.15"/>
<polygon fill="#63b8ff" stroke="#63b8ff" points="1009.57,-477.08 999.99,-481.6 1010.3,-484.04 1009.57,-477.08"/>
</g>
<!-- Node21 -->
<g id="node21" class="node">
<title>Node21</title>
<g id="a_node21"><a xlink:href="v8-callbacks_8h.html" target="_top" xlink:title=" ">
<polygon fill="white" stroke="#666666" points="1070,-434.12 958,-434.12 958,-414.88 1070,-414.88 1070,-434.12"/>
<text text-anchor="middle" x="1014" y="-420.62" font-family="Helvetica,sans-Serif" font-size="10.00">include/v8&#45;callbacks.h</text>
</a>
</g>
</g>
<!-- Node20&#45;&gt;Node21 -->
<g id="edge34" class="edge">
<title>Node20&#45;&gt;Node21</title>
<path fill="none" stroke="#63b8ff" d="M964.33,-468.5C976.91,-457.61 993.15,-443.55 1003.58,-434.53"/>
<polygon fill="#63b8ff" stroke="#63b8ff" points="962.6,-466.24 957.33,-475.43 967.18,-471.53 962.6,-466.24"/>
</g>
<!-- Node24 -->
<g id="node24" class="node">
<title>Node24</title>
<g id="a_node24"><a xlink:href="v8-statistics_8h.html" target="_top" xlink:title=" ">
<polygon fill="white" stroke="#666666" points="935.25,-318 824.75,-318 824.75,-298.75 935.25,-298.75 935.25,-318"/>
<text text-anchor="middle" x="880" y="-304.5" font-family="Helvetica,sans-Serif" font-size="10.00">include/v8&#45;statistics.h</text>
</a>
</g>
</g>
<!-- Node20&#45;&gt;Node24 -->
<g id="edge42" class="edge">
<title>Node20&#45;&gt;Node24</title>
<path fill="none" stroke="#63b8ff" d="M938.84,-465.38C924.72,-427.94 893.77,-345.89 883.44,-318.49"/>
<polygon fill="#63b8ff" stroke="#63b8ff" points="935.83,-466.33 942.64,-474.46 942.38,-463.86 935.83,-466.33"/>
</g>
<!-- Node21&#45;&gt;Node4 -->
<g id="edge36" class="edge">
<title>Node21&#45;&gt;Node4</title>
<path fill="none" stroke="#63b8ff" d="M1002.96,-405.45C997.2,-395.93 990.11,-384.03 984,-373.25 965.47,-340.55 972.22,-323.57 944,-298.75 923.67,-280.88 895.45,-269.84 871.81,-263.21"/>
<polygon fill="#63b8ff" stroke="#63b8ff" points="1000.38,-406.95 1008.57,-413.68 1006.36,-403.31 1000.38,-406.95"/>
</g>
<!-- Node21&#45;&gt;Node5 -->
<g id="edge35" class="edge">
<title>Node21&#45;&gt;Node5</title>
<path fill="none" stroke="#63b8ff" d="M1051.19,-410.24C1067.91,-402.24 1086.08,-390.24 1096,-373.25 1112.7,-344.65 1110.19,-329.55 1098,-298.75 1080.62,-254.84 1035.38,-218.53 1012.57,-202.33"/>
<polygon fill="#63b8ff" stroke="#63b8ff" points="1050.31,-407.24 1042.59,-414.5 1053.15,-413.64 1050.31,-407.24"/>
</g>
<!-- Node22 -->
<g id="node22" class="node">
<title>Node22</title>
<g id="a_node22"><a xlink:href="v8-script_8h.html" target="_top" xlink:title=" ">
<polygon fill="white" stroke="#666666" points="1087.38,-373.25 992.62,-373.25 992.62,-354 1087.38,-354 1087.38,-373.25"/>
<text text-anchor="middle" x="1040" y="-359.75" font-family="Helvetica,sans-Serif" font-size="10.00">include/v8&#45;script.h</text>
</a>
</g>
</g>
<!-- Node21&#45;&gt;Node22 -->
<g id="edge37" class="edge">
<title>Node21&#45;&gt;Node22</title>
<path fill="none" stroke="#63b8ff" d="M1022.29,-404.73C1026.88,-394.34 1032.37,-381.89 1036.01,-373.65"/>
<polygon fill="#63b8ff" stroke="#63b8ff" points="1018.79,-403 1017.95,-413.56 1025.19,-405.82 1018.79,-403"/>
</g>
<!-- Node22&#45;&gt;Node6 -->
<g id="edge41" class="edge">
<title>Node22&#45;&gt;Node6</title>
<path fill="none" stroke="#63b8ff" d="M1068.77,-348.06C1080.05,-340.71 1091.77,-330.65 1098,-318 1139.6,-233.5 1114.44,-183.56 1055,-110.5 1028.64,-78.11 1017.82,-70.64 979,-55.25 921.76,-32.55 738.87,-18.03 662.27,-12.81"/>
<polygon fill="#63b8ff" stroke="#63b8ff" points="1067.31,-345.45 1060.52,-353.59 1070.9,-351.46 1067.31,-345.45"/>
</g>
<!-- Node23 -->
<g id="node23" class="node">
<title>Node23</title>
<g id="a_node23"><a xlink:href="v8-debug_8h.html" target="_top" xlink:title=" ">
<polygon fill="white" stroke="#666666" points="1088.5,-318 991.5,-318 991.5,-298.75 1088.5,-298.75 1088.5,-318"/>
<text text-anchor="middle" x="1040" y="-304.5" font-family="Helvetica,sans-Serif" font-size="10.00">include/v8&#45;debug.h</text>
</a>
</g>
</g>
<!-- Node22&#45;&gt;Node23 -->
<g id="edge38" class="edge">
<title>Node22&#45;&gt;Node23</title>
<path fill="none" stroke="#63b8ff" d="M1040,-342.96C1040,-334.52 1040,-325.08 1040,-318.36"/>
<polygon fill="#63b8ff" stroke="#63b8ff" points="1036.5,-342.83 1040,-352.83 1043.5,-342.83 1036.5,-342.83"/>
</g>
<!-- Node23&#45;&gt;Node4 -->
<g id="edge39" class="edge">
<title>Node23&#45;&gt;Node4</title>
<path fill="none" stroke="#63b8ff" d="M993.29,-295.7C954.19,-285.92 899.18,-272.17 863.31,-263.2"/>
<polygon fill="#63b8ff" stroke="#63b8ff" points="992.32,-299.31 1002.87,-298.34 994.01,-292.52 992.32,-299.31"/>
</g>
<!-- Node23&#45;&gt;Node6 -->
<g id="edge40" class="edge">
<title>Node23&#45;&gt;Node6</title>
<path fill="none" stroke="#63b8ff" d="M1050.74,-289.24C1064.52,-263.49 1084.85,-215.21 1069,-177 1039.65,-106.24 1015.58,-89.37 947,-55.25 897.5,-30.62 734.13,-17.41 662.34,-12.68"/>
<polygon fill="#63b8ff" stroke="#63b8ff" points="1047.38,-287.08 1045.53,-297.52 1053.48,-290.51 1047.38,-287.08"/>
</g>
<!-- Node24&#45;&gt;Node4 -->
<g id="edge43" class="edge">
<title>Node24&#45;&gt;Node4</title>
<path fill="none" stroke="#63b8ff" d="M863.56,-290.85C854.45,-281.7 843.47,-270.68 835.94,-263.11"/>
<polygon fill="#63b8ff" stroke="#63b8ff" points="860.71,-292.96 870.25,-297.58 865.67,-288.03 860.71,-292.96"/>
</g>
<!-- Node24&#45;&gt;Node6 -->
<g id="edge44" class="edge">
<title>Node24&#45;&gt;Node6</title>
<path fill="none" stroke="#63b8ff" d="M888.24,-288.29C897.12,-265.95 910,-227.62 910,-193.25 910,-193.25 910,-193.25 910,-124.75 910,-71.87 737.45,-31.89 662.3,-16.98"/>
<polygon fill="#63b8ff" stroke="#63b8ff" points="884.64,-286.84 884.05,-297.41 891.11,-289.51 884.64,-286.84"/>
</g>
<!-- Node25&#45;&gt;Node6 -->
<g id="edge48" class="edge">
<title>Node25&#45;&gt;Node6</title>
<path fill="none" stroke="#63b8ff" d="M1181.46,-55.63C1180.3,-55.5 1179.14,-55.37 1178,-55.25 983.22,-34.24 748.66,-18.32 662.17,-12.77"/>
<polygon fill="#63b8ff" stroke="#63b8ff" points="1180.73,-59.19 1191.07,-56.89 1181.55,-52.24 1180.73,-59.19"/>
</g>
<!-- Node26&#45;&gt;Node6 -->
<g id="edge51" class="edge">
<title>Node26&#45;&gt;Node6</title>
<path fill="none" stroke="#63b8ff" d="M1312.91,-342.92C1315.87,-321.22 1320,-285.26 1320,-254.12 1320,-254.12 1320,-254.12 1320,-124.75 1320,-92.73 1325.8,-75.51 1301,-55.25 1251.24,-14.59 792.04,-10.85 662.11,-10.61"/>
<polygon fill="#63b8ff" stroke="#63b8ff" points="1309.33,-342.26 1311.39,-352.65 1316.26,-343.24 1309.33,-342.26"/>
</g>
</g>
</svg>
