<?xml version="1.0" encoding="UTF-8" standalone="no"?>
<!DOCTYPE svg PUBLIC "-//W3C//DTD SVG 1.1//EN"
 "http://www.w3.org/Graphics/SVG/1.1/DTD/svg11.dtd">
<!-- Generated by graphviz version 8.0.5 (20230430.1635)
 -->
<!-- Title: include/v8&#45;template.h Pages: 1 -->
<svg width="1606pt" height="580pt"
 viewBox="0.00 0.00 1606.22 579.75" xmlns="http://www.w3.org/2000/svg" xmlns:xlink="http://www.w3.org/1999/xlink">
<g id="graph0" class="graph" transform="scale(1 1) rotate(0) translate(4 575.75)">
<title>include/v8&#45;template.h</title>
<!-- Node1 -->
<g id="node1" class="node">
<title>Node1</title>
<g id="a_node1"><a xlink:title=" ">
<polygon fill="#999999" stroke="#666666" points="743.25,-571.75 635,-571.75 635,-552.5 743.25,-552.5 743.25,-571.75"/>
<text text-anchor="middle" x="689.12" y="-558.25" font-family="Helvetica,sans-Serif" font-size="10.00">include/v8&#45;template.h</text>
</a>
</g>
</g>
<!-- Node2 -->
<g id="node2" class="node">
<title>Node2</title>
<g id="a_node2"><a xlink:title=" ">
<polygon fill="#e0e0e0" stroke="#999999" points="48.25,-516.5 0,-516.5 0,-497.25 48.25,-497.25 48.25,-516.5"/>
<text text-anchor="middle" x="24.12" y="-503" font-family="Helvetica,sans-Serif" font-size="10.00">cstddef</text>
</a>
</g>
</g>
<!-- Node1&#45;&gt;Node2 -->
<g id="edge1" class="edge">
<title>Node1&#45;&gt;Node2</title>
<path fill="none" stroke="#63b8ff" d="M634.63,-560.66C526.46,-559.01 276.98,-551.57 59.2,-516.53"/>
<polygon fill="#63b8ff" stroke="#63b8ff" points="59.96,-512.95 49.53,-514.79 58.83,-519.86 59.96,-512.95"/>
</g>
<!-- Node3 -->
<g id="node3" class="node">
<title>Node3</title>
<g id="a_node3"><a xlink:title=" ">
<polygon fill="#e0e0e0" stroke="#999999" points="131.88,-516.5 66.38,-516.5 66.38,-497.25 131.88,-497.25 131.88,-516.5"/>
<text text-anchor="middle" x="99.12" y="-503" font-family="Helvetica,sans-Serif" font-size="10.00">string_view</text>
</a>
</g>
</g>
<!-- Node1&#45;&gt;Node3 -->
<g id="edge2" class="edge">
<title>Node1&#45;&gt;Node3</title>
<path fill="none" stroke="#63b8ff" d="M634.6,-558.44C536.54,-553.22 324.05,-540.08 146.12,-516.5 144.99,-516.35 143.85,-516.19 142.69,-516.03"/>
<polygon fill="#63b8ff" stroke="#63b8ff" points="143.61,-512.47 133.18,-514.37 142.52,-519.38 143.61,-512.47"/>
</g>
<!-- Node4 -->
<g id="node4" class="node">
<title>Node4</title>
<g id="a_node4"><a xlink:href="v8-data_8h.html" target="_top" xlink:title=" ">
<polygon fill="white" stroke="#666666" points="930,-295.5 874.25,-295.5 874.25,-276.25 930,-276.25 930,-295.5"/>
<text text-anchor="middle" x="902.12" y="-282" font-family="Helvetica,sans-Serif" font-size="10.00">v8&#45;data.h</text>
</a>
</g>
</g>
<!-- Node1&#45;&gt;Node4 -->
<g id="edge3" class="edge">
<title>Node1&#45;&gt;Node4</title>
<path fill="none" stroke="#63b8ff" d="M679.52,-552.27C652.67,-526.38 580.78,-448.78 612.12,-386.75 630.8,-349.8 649.32,-348.37 687.12,-331.5 745.09,-305.63 818.61,-294.53 862.92,-289.94"/>
<polygon fill="#63b8ff" stroke="#63b8ff" points="863.19,-293.33 872.8,-288.88 862.51,-286.36 863.19,-293.33"/>
</g>
<!-- Node5 -->
<g id="node5" class="node">
<title>Node5</title>
<g id="a_node5"><a xlink:href="v8-local-handle_8h.html" target="_top" xlink:title=" ">
<polygon fill="white" stroke="#666666" points="1039.5,-240.25 950.75,-240.25 950.75,-221 1039.5,-221 1039.5,-240.25"/>
<text text-anchor="middle" x="995.12" y="-226.75" font-family="Helvetica,sans-Serif" font-size="10.00">v8&#45;local&#45;handle.h</text>
</a>
</g>
</g>
<!-- Node1&#45;&gt;Node5 -->
<g id="edge77" class="edge">
<title>Node1&#45;&gt;Node5</title>
<path fill="none" stroke="#63b8ff" d="M743.64,-559.16C835.05,-552.53 1016.78,-524.33 1094.12,-406 1125.69,-357.71 1129.67,-318.26 1090.12,-276.25 1076.45,-261.72 1057.09,-251.46 1039.41,-244.47"/>
<polygon fill="#63b8ff" stroke="#63b8ff" points="1040.84,-240.9 1030.25,-240.72 1038.42,-247.47 1040.84,-240.9"/>
</g>
<!-- Node18 -->
<g id="node18" class="node">
<title>Node18</title>
<g id="a_node18"><a xlink:href="v8config_8h.html" target="_top" xlink:title=" ">
<polygon fill="white" stroke="#666666" points="493.88,-74.5 434.38,-74.5 434.38,-55.25 493.88,-55.25 493.88,-74.5"/>
<text text-anchor="middle" x="464.12" y="-61" font-family="Helvetica,sans-Serif" font-size="10.00">v8config.h</text>
</a>
</g>
</g>
<!-- Node1&#45;&gt;Node18 -->
<g id="edge85" class="edge">
<title>Node1&#45;&gt;Node18</title>
<path fill="none" stroke="#63b8ff" d="M634.51,-561.36C499.35,-560.49 160.12,-548.72 160.12,-452.62 160.12,-452.62 160.12,-452.62 160.12,-174.38 160.12,-140.4 173.69,-129.09 202.12,-110.5 237.83,-87.16 358.63,-74.26 422.98,-68.89"/>
<polygon fill="#63b8ff" stroke="#63b8ff" points="423.25,-72.3 432.93,-68 422.68,-65.32 423.25,-72.3"/>
</g>
<!-- Node19 -->
<g id="node19" class="node">
<title>Node19</title>
<g id="a_node19"><a xlink:href="v8-exception_8h.html" target="_top" xlink:title=" ">
<polygon fill="white" stroke="#666666" points="795.25,-516.5 717,-516.5 717,-497.25 795.25,-497.25 795.25,-516.5"/>
<text text-anchor="middle" x="756.12" y="-503" font-family="Helvetica,sans-Serif" font-size="10.00">v8&#45;exception.h</text>
</a>
</g>
</g>
<!-- Node1&#45;&gt;Node19 -->
<g id="edge23" class="edge">
<title>Node1&#45;&gt;Node19</title>
<path fill="none" stroke="#63b8ff" d="M700.49,-552.09C710.37,-544.24 724.89,-532.7 736.62,-523.37"/>
<polygon fill="#63b8ff" stroke="#63b8ff" points="738.28,-525.74 743.93,-516.77 733.92,-520.26 738.28,-525.74"/>
</g>
<!-- Node20 -->
<g id="node20" class="node">
<title>Node20</title>
<g id="a_node20"><a xlink:href="v8-object_8h.html" target="_top" xlink:title=" ">
<polygon fill="white" stroke="#666666" points="754.75,-461.25 691.5,-461.25 691.5,-442 754.75,-442 754.75,-461.25"/>
<text text-anchor="middle" x="723.12" y="-447.75" font-family="Helvetica,sans-Serif" font-size="10.00">v8&#45;object.h</text>
</a>
</g>
</g>
<!-- Node1&#45;&gt;Node20 -->
<g id="edge84" class="edge">
<title>Node1&#45;&gt;Node20</title>
<path fill="none" stroke="#63b8ff" d="M691.61,-552.42C695.15,-540.09 701.91,-516.88 708.12,-497.25 710.78,-488.87 713.85,-479.66 716.52,-471.8"/>
<polygon fill="#63b8ff" stroke="#63b8ff" points="720.12,-473.08 720.04,-462.49 713.5,-470.81 720.12,-473.08"/>
</g>
<!-- Node31 -->
<g id="node31" class="node">
<title>Node31</title>
<g id="a_node31"><a xlink:href="v8-function-callback_8h.html" target="_top" xlink:title=" ">
<polygon fill="white" stroke="#666666" points="950.38,-461.25 839.88,-461.25 839.88,-442 950.38,-442 950.38,-461.25"/>
<text text-anchor="middle" x="895.12" y="-447.75" font-family="Helvetica,sans-Serif" font-size="10.00">v8&#45;function&#45;callback.h</text>
</a>
</g>
</g>
<!-- Node1&#45;&gt;Node31 -->
<g id="edge70" class="edge">
<title>Node1&#45;&gt;Node31</title>
<path fill="none" stroke="#63b8ff" d="M717.85,-552.14C741.65,-544.2 775.99,-531.55 804.12,-516.5 830.36,-502.47 857.99,-482.18 875.83,-468.25"/>
<polygon fill="#63b8ff" stroke="#63b8ff" points="877.54,-470.57 883.2,-461.62 873.19,-465.08 877.54,-470.57"/>
</g>
<!-- Node32 -->
<g id="node32" class="node">
<title>Node32</title>
<g id="a_node32"><a xlink:href="v8-memory-span_8h.html" target="_top" xlink:title=" ">
<polygon fill="white" stroke="#666666" points="1480.88,-129.75 1385.38,-129.75 1385.38,-110.5 1480.88,-110.5 1480.88,-129.75"/>
<text text-anchor="middle" x="1433.12" y="-116.25" font-family="Helvetica,sans-Serif" font-size="10.00">v8&#45;memory&#45;span.h</text>
</a>
</g>
</g>
<!-- Node1&#45;&gt;Node32 -->
<g id="edge78" class="edge">
<title>Node1&#45;&gt;Node32</title>
<path fill="none" stroke="#63b8ff" d="M743.45,-559.99C932.05,-555.35 1547.12,-533.98 1547.12,-452.62 1547.12,-452.62 1547.12,-452.62 1547.12,-229.62 1547.12,-183.99 1498.6,-151.72 1464.87,-134.8"/>
<polygon fill="#63b8ff" stroke="#63b8ff" points="1466.91,-131.41 1456.38,-130.24 1463.88,-137.72 1466.91,-131.41"/>
</g>
<!-- Node4&#45;&gt;Node5 -->
<g id="edge4" class="edge">
<title>Node4&#45;&gt;Node5</title>
<path fill="none" stroke="#63b8ff" d="M917.9,-275.84C932.2,-267.66 953.51,-255.46 970.12,-245.94"/>
<polygon fill="#63b8ff" stroke="#63b8ff" points="971.33,-248.71 978.27,-240.7 967.85,-242.63 971.33,-248.71"/>
</g>
<!-- Node4&#45;&gt;Node18 -->
<g id="edge22" class="edge">
<title>Node4&#45;&gt;Node18</title>
<path fill="none" stroke="#63b8ff" d="M897.3,-276.11C880.72,-246.88 822.81,-152.29 746.12,-110.5 705.31,-88.26 572.93,-74.65 505.06,-68.97"/>
<polygon fill="#63b8ff" stroke="#63b8ff" points="505.61,-65.42 495.36,-68.09 505.04,-72.4 505.61,-65.42"/>
</g>
<!-- Node6 -->
<g id="node6" class="node">
<title>Node6</title>
<g id="a_node6"><a xlink:title=" ">
<polygon fill="#e0e0e0" stroke="#999999" points="1568.38,-74.5 1517.88,-74.5 1517.88,-55.25 1568.38,-55.25 1568.38,-74.5"/>
<text text-anchor="middle" x="1543.12" y="-61" font-family="Helvetica,sans-Serif" font-size="10.00">stddef.h</text>
</a>
</g>
</g>
<!-- Node5&#45;&gt;Node6 -->
<g id="edge5" class="edge">
<title>Node5&#45;&gt;Node6</title>
<path fill="none" stroke="#63b8ff" d="M1039.77,-224.47C1146.58,-211.54 1413.65,-175.45 1490.12,-129.75 1508.62,-118.7 1523.59,-98.77 1532.84,-84.1"/>
<polygon fill="#63b8ff" stroke="#63b8ff" points="1536.18,-86.34 1538.31,-75.96 1530.17,-82.75 1536.18,-86.34"/>
</g>
<!-- Node7 -->
<g id="node7" class="node">
<title>Node7</title>
<g id="a_node7"><a xlink:title=" ">
<polygon fill="#e0e0e0" stroke="#999999" points="1022.62,-74.5 961.62,-74.5 961.62,-55.25 1022.62,-55.25 1022.62,-74.5"/>
<text text-anchor="middle" x="992.12" y="-61" font-family="Helvetica,sans-Serif" font-size="10.00">type_traits</text>
</a>
</g>
</g>
<!-- Node5&#45;&gt;Node7 -->
<g id="edge6" class="edge">
<title>Node5&#45;&gt;Node7</title>
<path fill="none" stroke="#63b8ff" d="M954.39,-220.51C935.35,-213.99 914.43,-203.05 903.12,-185 878.32,-145.4 933.07,-102.25 967.29,-80.37"/>
<polygon fill="#63b8ff" stroke="#63b8ff" points="968.65,-83.02 975.31,-74.78 964.97,-77.07 968.65,-83.02"/>
</g>
<!-- Node8 -->
<g id="node8" class="node">
<title>Node8</title>
<g id="a_node8"><a xlink:title=" ">
<polygon fill="#e0e0e0" stroke="#999999" points="955.62,-185 912.62,-185 912.62,-165.75 955.62,-165.75 955.62,-185"/>
<text text-anchor="middle" x="934.12" y="-171.5" font-family="Helvetica,sans-Serif" font-size="10.00">vector</text>
</a>
</g>
</g>
<!-- Node5&#45;&gt;Node8 -->
<g id="edge7" class="edge">
<title>Node5&#45;&gt;Node8</title>
<path fill="none" stroke="#63b8ff" d="M984.78,-220.59C975.96,-212.9 963.08,-201.65 952.51,-192.43"/>
<polygon fill="#63b8ff" stroke="#63b8ff" points="955.16,-189.21 945.32,-185.27 950.55,-194.49 955.16,-189.21"/>
</g>
<!-- Node9 -->
<g id="node9" class="node">
<title>Node9</title>
<g id="a_node9"><a xlink:href="v8-handle-base_8h.html" target="_top" xlink:title=" ">
<polygon fill="white" stroke="#666666" points="1062.88,-185 973.38,-185 973.38,-165.75 1062.88,-165.75 1062.88,-185"/>
<text text-anchor="middle" x="1018.12" y="-171.5" font-family="Helvetica,sans-Serif" font-size="10.00">v8&#45;handle&#45;base.h</text>
</a>
</g>
</g>
<!-- Node5&#45;&gt;Node9 -->
<g id="edge8" class="edge">
<title>Node5&#45;&gt;Node9</title>
<path fill="none" stroke="#63b8ff" d="M998.92,-220.83C1001.9,-213.94 1006.16,-204.09 1009.9,-195.41"/>
<polygon fill="#63b8ff" stroke="#63b8ff" points="1013.49,-196.93 1014.24,-186.36 1007.07,-194.15 1013.49,-196.93"/>
</g>
<!-- Node10 -->
<g id="node10" class="node">
<title>Node10</title>
<g id="a_node10"><a xlink:href="v8-internal_8h.html" target="_top" xlink:title=" ">
<polygon fill="white" stroke="#666666" points="1239.38,-129.75 1170.88,-129.75 1170.88,-110.5 1239.38,-110.5 1239.38,-129.75"/>
<text text-anchor="middle" x="1205.12" y="-116.25" font-family="Helvetica,sans-Serif" font-size="10.00">v8&#45;internal.h</text>
</a>
</g>
</g>
<!-- Node5&#45;&gt;Node10 -->
<g id="edge21" class="edge">
<title>Node5&#45;&gt;Node10</title>
<path fill="none" stroke="#63b8ff" d="M1012.67,-220.56C1049.26,-201.65 1133.97,-157.89 1177.78,-135.25"/>
<polygon fill="#63b8ff" stroke="#63b8ff" points="1179.21,-137.94 1186.48,-130.24 1175.99,-131.72 1179.21,-137.94"/>
</g>
<!-- Node9&#45;&gt;Node10 -->
<g id="edge9" class="edge">
<title>Node9&#45;&gt;Node10</title>
<path fill="none" stroke="#63b8ff" d="M1049.85,-165.34C1081.01,-156.47 1128.75,-142.87 1163.06,-133.1"/>
<polygon fill="#63b8ff" stroke="#63b8ff" points="1163.59,-136.31 1172.25,-130.2 1161.67,-129.58 1163.59,-136.31"/>
</g>
<!-- Node10&#45;&gt;Node6 -->
<g id="edge10" class="edge">
<title>Node10&#45;&gt;Node6</title>
<path fill="none" stroke="#63b8ff" d="M1239.51,-115.24C1294.18,-108.82 1404.45,-94.85 1507.03,-74.75"/>
<polygon fill="#63b8ff" stroke="#63b8ff" points="1507.44,-78.04 1516.57,-72.66 1506.08,-71.17 1507.44,-78.04"/>
</g>
<!-- Node10&#45;&gt;Node7 -->
<g id="edge18" class="edge">
<title>Node10&#45;&gt;Node7</title>
<path fill="none" stroke="#63b8ff" d="M1170.43,-110.45C1132.96,-101.08 1073.29,-86.17 1033.43,-76.2"/>
<polygon fill="#63b8ff" stroke="#63b8ff" points="1034.55,-72.62 1024,-73.59 1032.85,-79.41 1034.55,-72.62"/>
</g>
<!-- Node11 -->
<g id="node11" class="node">
<title>Node11</title>
<g id="a_node11"><a xlink:title=" ">
<polygon fill="#e0e0e0" stroke="#999999" points="1259.88,-74.5 1212.38,-74.5 1212.38,-55.25 1259.88,-55.25 1259.88,-74.5"/>
<text text-anchor="middle" x="1236.12" y="-61" font-family="Helvetica,sans-Serif" font-size="10.00">stdint.h</text>
</a>
</g>
</g>
<!-- Node10&#45;&gt;Node11 -->
<g id="edge11" class="edge">
<title>Node10&#45;&gt;Node11</title>
<path fill="none" stroke="#63b8ff" d="M1210.24,-110.33C1214.35,-103.28 1220.25,-93.15 1225.38,-84.33"/>
<polygon fill="#63b8ff" stroke="#63b8ff" points="1228.89,-86.26 1230.89,-75.86 1222.84,-82.74 1228.89,-86.26"/>
</g>
<!-- Node12 -->
<g id="node12" class="node">
<title>Node12</title>
<g id="a_node12"><a xlink:title=" ">
<polygon fill="#e0e0e0" stroke="#999999" points="1087.88,-74.5 1040.38,-74.5 1040.38,-55.25 1087.88,-55.25 1087.88,-74.5"/>
<text text-anchor="middle" x="1064.12" y="-61" font-family="Helvetica,sans-Serif" font-size="10.00">string.h</text>
</a>
</g>
</g>
<!-- Node10&#45;&gt;Node12 -->
<g id="edge12" class="edge">
<title>Node10&#45;&gt;Node12</title>
<path fill="none" stroke="#63b8ff" d="M1181.21,-110.09C1158.42,-101.49 1123.88,-88.44 1098.21,-78.75"/>
<polygon fill="#63b8ff" stroke="#63b8ff" points="1099.75,-75.21 1089.16,-74.95 1097.28,-81.76 1099.75,-75.21"/>
</g>
<!-- Node13 -->
<g id="node13" class="node">
<title>Node13</title>
<g id="a_node13"><a xlink:title=" ">
<polygon fill="#e0e0e0" stroke="#999999" points="1322.75,-74.5 1277.5,-74.5 1277.5,-55.25 1322.75,-55.25 1322.75,-74.5"/>
<text text-anchor="middle" x="1300.12" y="-61" font-family="Helvetica,sans-Serif" font-size="10.00">atomic</text>
</a>
</g>
</g>
<!-- Node10&#45;&gt;Node13 -->
<g id="edge13" class="edge">
<title>Node10&#45;&gt;Node13</title>
<path fill="none" stroke="#63b8ff" d="M1221.24,-110.09C1235.84,-101.91 1257.61,-89.71 1274.58,-80.19"/>
<polygon fill="#63b8ff" stroke="#63b8ff" points="1275.92,-82.9 1282.93,-74.95 1272.5,-76.79 1275.92,-82.9"/>
</g>
<!-- Node14 -->
<g id="node14" class="node">
<title>Node14</title>
<g id="a_node14"><a xlink:title=" ">
<polygon fill="#e0e0e0" stroke="#999999" points="1444.12,-74.5 1398.12,-74.5 1398.12,-55.25 1444.12,-55.25 1444.12,-74.5"/>
<text text-anchor="middle" x="1421.12" y="-61" font-family="Helvetica,sans-Serif" font-size="10.00">iterator</text>
</a>
</g>
</g>
<!-- Node10&#45;&gt;Node14 -->
<g id="edge14" class="edge">
<title>Node10&#45;&gt;Node14</title>
<path fill="none" stroke="#63b8ff" d="M1239.78,-111C1274.65,-102.76 1330.22,-89.46 1387.09,-74.97"/>
<polygon fill="#63b8ff" stroke="#63b8ff" points="1387.9,-78.12 1396.72,-72.26 1386.17,-71.34 1387.9,-78.12"/>
</g>
<!-- Node15 -->
<g id="node15" class="node">
<title>Node15</title>
<g id="a_node15"><a xlink:title=" ">
<polygon fill="#e0e0e0" stroke="#999999" points="1379.75,-74.5 1340.5,-74.5 1340.5,-55.25 1379.75,-55.25 1379.75,-74.5"/>
<text text-anchor="middle" x="1360.12" y="-61" font-family="Helvetica,sans-Serif" font-size="10.00">limits</text>
</a>
</g>
</g>
<!-- Node10&#45;&gt;Node15 -->
<g id="edge15" class="edge">
<title>Node10&#45;&gt;Node15</title>
<path fill="none" stroke="#63b8ff" d="M1231.42,-110.09C1258.68,-100.73 1301.25,-86.1 1329.89,-76.26"/>
<polygon fill="#63b8ff" stroke="#63b8ff" points="1330.8,-79.31 1339.12,-72.75 1328.53,-72.69 1330.8,-79.31"/>
</g>
<!-- Node16 -->
<g id="node16" class="node">
<title>Node16</title>
<g id="a_node16"><a xlink:title=" ">
<polygon fill="#e0e0e0" stroke="#999999" points="1209.38,-19.25 1158.88,-19.25 1158.88,0 1209.38,0 1209.38,-19.25"/>
<text text-anchor="middle" x="1184.12" y="-5.75" font-family="Helvetica,sans-Serif" font-size="10.00">memory</text>
</a>
</g>
</g>
<!-- Node10&#45;&gt;Node16 -->
<g id="edge16" class="edge">
<title>Node10&#45;&gt;Node16</title>
<path fill="none" stroke="#63b8ff" d="M1203.41,-110.25C1200.04,-92.84 1192.5,-53.87 1187.91,-30.16"/>
<polygon fill="#63b8ff" stroke="#63b8ff" points="1191.2,-29.78 1185.87,-20.63 1184.33,-31.11 1191.2,-29.78"/>
</g>
<!-- Node17 -->
<g id="node17" class="node">
<title>Node17</title>
<g id="a_node17"><a xlink:title=" ">
<polygon fill="#e0e0e0" stroke="#999999" points="1156,-74.5 1106.25,-74.5 1106.25,-55.25 1156,-55.25 1156,-74.5"/>
<text text-anchor="middle" x="1131.12" y="-61" font-family="Helvetica,sans-Serif" font-size="10.00">optional</text>
</a>
</g>
</g>
<!-- Node10&#45;&gt;Node17 -->
<g id="edge17" class="edge">
<title>Node10&#45;&gt;Node17</title>
<path fill="none" stroke="#63b8ff" d="M1192.57,-110.09C1181.56,-102.16 1165.31,-90.47 1152.28,-81.1"/>
<polygon fill="#63b8ff" stroke="#63b8ff" points="1154.65,-77.77 1144.49,-74.77 1150.57,-83.46 1154.65,-77.77"/>
</g>
<!-- Node10&#45;&gt;Node18 -->
<g id="edge19" class="edge">
<title>Node10&#45;&gt;Node18</title>
<path fill="none" stroke="#63b8ff" d="M1170.38,-116.63C1047.91,-107.83 636.62,-78.27 505.01,-68.81"/>
<polygon fill="#63b8ff" stroke="#63b8ff" points="505.45,-65.26 495.22,-68.04 504.95,-72.25 505.45,-65.26"/>
</g>
<!-- Node18&#45;&gt;Node16 -->
<g id="edge20" class="edge">
<title>Node18&#45;&gt;Node16</title>
<path fill="none" stroke="#63b8ff" d="M494.15,-61.65C609.25,-53.14 1022.23,-22.6 1147.71,-13.32"/>
<polygon fill="#63b8ff" stroke="#63b8ff" points="1147.89,-16.74 1157.6,-12.51 1147.37,-9.76 1147.89,-16.74"/>
</g>
<!-- Node19&#45;&gt;Node5 -->
<g id="edge25" class="edge">
<title>Node19&#45;&gt;Node5</title>
<path fill="none" stroke="#63b8ff" d="M795.6,-506.18C863.9,-504.38 1003.51,-489.95 1073.12,-406 1109.95,-361.59 1105.39,-321.12 1069.12,-276.25 1058.4,-262.98 1042.59,-252.69 1028.34,-245.35"/>
<polygon fill="#63b8ff" stroke="#63b8ff" points="1030.33,-241.94 1019.81,-240.75 1027.29,-248.25 1030.33,-241.94"/>
</g>
<!-- Node19&#45;&gt;Node6 -->
<g id="edge24" class="edge">
<title>Node19&#45;&gt;Node6</title>
<path fill="none" stroke="#63b8ff" d="M795.62,-503.66C885.9,-497.5 1113.08,-475.73 1288.12,-406 1419.99,-353.47 1491.51,-363.95 1561.12,-240.25 1589.42,-189.97 1565.94,-118.54 1551.85,-84.85"/>
<polygon fill="#63b8ff" stroke="#63b8ff" points="1554.73,-83.71 1547.52,-75.96 1548.32,-86.52 1554.73,-83.71"/>
</g>
<!-- Node19&#45;&gt;Node18 -->
<g id="edge69" class="edge">
<title>Node19&#45;&gt;Node18</title>
<path fill="none" stroke="#63b8ff" d="M716.61,-506.03C595.26,-505.46 236.12,-495.48 236.12,-397.38 236.12,-397.38 236.12,-397.38 236.12,-174.38 236.12,-92.32 358.01,-72.25 423.54,-67.39"/>
<polygon fill="#63b8ff" stroke="#63b8ff" points="423.57,-70.83 433.32,-66.69 423.11,-63.85 423.57,-70.83"/>
</g>
<!-- Node19&#45;&gt;Node20 -->
<g id="edge26" class="edge">
<title>Node19&#45;&gt;Node20</title>
<path fill="none" stroke="#63b8ff" d="M750.68,-497.08C746.26,-489.96 739.89,-479.68 734.39,-470.8"/>
<polygon fill="#63b8ff" stroke="#63b8ff" points="736.94,-469.27 728.69,-462.61 730.99,-472.95 736.94,-469.27"/>
</g>
<!-- Node20&#45;&gt;Node5 -->
<g id="edge28" class="edge">
<title>Node20&#45;&gt;Node5</title>
<path fill="none" stroke="#63b8ff" d="M755.24,-447.83C808.86,-442.56 913.46,-429.53 941.12,-406 987.54,-366.53 994.7,-287.99 995.38,-251.33"/>
<polygon fill="#63b8ff" stroke="#63b8ff" points="998.88,-251.63 995.41,-241.62 991.88,-251.61 998.88,-251.63"/>
</g>
<!-- Node20&#45;&gt;Node10 -->
<g id="edge27" class="edge">
<title>Node20&#45;&gt;Node10</title>
<path fill="none" stroke="#63b8ff" d="M755.24,-448.14C832.19,-441.97 1025.28,-425.02 1087.12,-406 1189.82,-374.42 1244.5,-386.18 1302.12,-295.5 1333.93,-245.46 1311.86,-208.83 1271.12,-165.75 1259.84,-153.82 1244.83,-143.35 1231.97,-135.56"/>
<polygon fill="#63b8ff" stroke="#63b8ff" points="1234.06,-132.15 1223.66,-130.15 1230.54,-138.2 1234.06,-132.15"/>
</g>
<!-- Node20&#45;&gt;Node18 -->
<g id="edge68" class="edge">
<title>Node20&#45;&gt;Node18</title>
<path fill="none" stroke="#63b8ff" d="M691.07,-450.87C577.09,-450.89 198.12,-443.34 198.12,-342.12 198.12,-342.12 198.12,-342.12 198.12,-174.38 198.12,-144.05 198.87,-129.96 222.12,-110.5 252.04,-85.46 362.44,-73.44 423.26,-68.6"/>
<polygon fill="#63b8ff" stroke="#63b8ff" points="423.3,-72.03 433.01,-67.78 422.77,-65.05 423.3,-72.03"/>
</g>
<!-- Node21 -->
<g id="node21" class="node">
<title>Node21</title>
<g id="a_node21"><a xlink:href="v8-maybe_8h.html" target="_top" xlink:title=" ">
<polygon fill="white" stroke="#666666" points="515.88,-295.5 450.38,-295.5 450.38,-276.25 515.88,-276.25 515.88,-295.5"/>
<text text-anchor="middle" x="483.12" y="-282" font-family="Helvetica,sans-Serif" font-size="10.00">v8&#45;maybe.h</text>
</a>
</g>
</g>
<!-- Node20&#45;&gt;Node21 -->
<g id="edge29" class="edge">
<title>Node20&#45;&gt;Node21</title>
<path fill="none" stroke="#63b8ff" d="M691,-443.36C664.84,-436.46 627.69,-424.39 599.12,-406 555.44,-377.87 515.84,-330.4 496.17,-304.7"/>
<polygon fill="#63b8ff" stroke="#63b8ff" points="498.45,-302.9 489.65,-297 492.85,-307.1 498.45,-302.9"/>
</g>
<!-- Node23 -->
<g id="node23" class="node">
<title>Node23</title>
<g id="a_node23"><a xlink:href="v8-persistent-handle_8h.html" target="_top" xlink:title=" ">
<polygon fill="white" stroke="#666666" points="662.75,-295.5 551.5,-295.5 551.5,-276.25 662.75,-276.25 662.75,-295.5"/>
<text text-anchor="middle" x="607.12" y="-282" font-family="Helvetica,sans-Serif" font-size="10.00">v8&#45;persistent&#45;handle.h</text>
</a>
</g>
</g>
<!-- Node20&#45;&gt;Node23 -->
<g id="edge34" class="edge">
<title>Node20&#45;&gt;Node23</title>
<path fill="none" stroke="#63b8ff" d="M691.04,-447.09C665.12,-442.39 630.11,-431.44 612.12,-406 591.29,-376.52 596.52,-331.93 601.97,-306.49"/>
<polygon fill="#63b8ff" stroke="#63b8ff" points="605.56,-307.52 604.48,-296.98 598.75,-305.9 605.56,-307.52"/>
</g>
<!-- Node25 -->
<g id="node25" class="node">
<title>Node25</title>
<g id="a_node25"><a xlink:href="v8-primitive_8h.html" target="_top" xlink:title=" ">
<polygon fill="white" stroke="#666666" points="932,-406 858.25,-406 858.25,-386.75 932,-386.75 932,-406"/>
<text text-anchor="middle" x="895.12" y="-392.5" font-family="Helvetica,sans-Serif" font-size="10.00">v8&#45;primitive.h</text>
</a>
</g>
</g>
<!-- Node20&#45;&gt;Node25 -->
<g id="edge40" class="edge">
<title>Node20&#45;&gt;Node25</title>
<path fill="none" stroke="#63b8ff" d="M752.3,-441.59C780.72,-432.79 824.12,-419.36 855.62,-409.61"/>
<polygon fill="#63b8ff" stroke="#63b8ff" points="856.29,-412.75 864.8,-406.45 854.22,-406.07 856.29,-412.75"/>
</g>
<!-- Node26 -->
<g id="node26" class="node">
<title>Node26</title>
<g id="a_node26"><a xlink:href="v8-value_8h.html" target="_top" xlink:title=" ">
<polygon fill="white" stroke="#666666" points="896.25,-350.75 836,-350.75 836,-331.5 896.25,-331.5 896.25,-350.75"/>
<text text-anchor="middle" x="866.12" y="-337.25" font-family="Helvetica,sans-Serif" font-size="10.00">v8&#45;value.h</text>
</a>
</g>
</g>
<!-- Node20&#45;&gt;Node26 -->
<g id="edge67" class="edge">
<title>Node20&#45;&gt;Node26</title>
<path fill="none" stroke="#63b8ff" d="M734.83,-441.75C759.13,-423.31 815.32,-380.67 845.72,-357.61"/>
<polygon fill="#63b8ff" stroke="#63b8ff" points="847.41,-359.96 853.26,-351.13 843.18,-354.38 847.41,-359.96"/>
</g>
<!-- Node27 -->
<g id="node27" class="node">
<title>Node27</title>
<g id="a_node27"><a xlink:href="v8-sandbox_8h.html" target="_top" xlink:title=" ">
<polygon fill="white" stroke="#666666" points="694.62,-406 621.62,-406 621.62,-386.75 694.62,-386.75 694.62,-406"/>
<text text-anchor="middle" x="658.12" y="-392.5" font-family="Helvetica,sans-Serif" font-size="10.00">v8&#45;sandbox.h</text>
</a>
</g>
</g>
<!-- Node20&#45;&gt;Node27 -->
<g id="edge51" class="edge">
<title>Node20&#45;&gt;Node27</title>
<path fill="none" stroke="#63b8ff" d="M712.1,-441.59C702.61,-433.82 688.7,-422.42 677.38,-413.15"/>
<polygon fill="#63b8ff" stroke="#63b8ff" points="679.94,-409.9 669.99,-406.27 675.51,-415.32 679.94,-409.9"/>
</g>
<!-- Node29 -->
<g id="node29" class="node">
<title>Node29</title>
<g id="a_node29"><a xlink:href="v8-traced-handle_8h.html" target="_top" xlink:title=" ">
<polygon fill="white" stroke="#666666" points="1273.88,-295.5 1178.38,-295.5 1178.38,-276.25 1273.88,-276.25 1273.88,-295.5"/>
<text text-anchor="middle" x="1226.12" y="-282" font-family="Helvetica,sans-Serif" font-size="10.00">v8&#45;traced&#45;handle.h</text>
</a>
</g>
</g>
<!-- Node20&#45;&gt;Node29 -->
<g id="edge55" class="edge">
<title>Node20&#45;&gt;Node29</title>
<path fill="none" stroke="#63b8ff" d="M755.21,-448.17C826.93,-442.38 998.2,-426.77 1052.12,-406 1115.6,-381.56 1178.58,-329.85 1208.36,-303.33"/>
<polygon fill="#63b8ff" stroke="#63b8ff" points="1210.43,-306.27 1215.5,-296.96 1205.74,-301.08 1210.43,-306.27"/>
</g>
<!-- Node21&#45;&gt;Node7 -->
<g id="edge30" class="edge">
<title>Node21&#45;&gt;Node7</title>
<path fill="none" stroke="#63b8ff" d="M478.73,-275.92C473.17,-263.31 465.11,-239.76 472.12,-221 483.51,-190.53 492.09,-182.25 520.12,-165.75 661.91,-82.29 864.01,-68.11 950.38,-66.02"/>
<polygon fill="#63b8ff" stroke="#63b8ff" points="950.37,-69.51 960.3,-65.81 950.23,-62.51 950.37,-69.51"/>
</g>
<!-- Node21&#45;&gt;Node10 -->
<g id="edge32" class="edge">
<title>Node21&#45;&gt;Node10</title>
<path fill="none" stroke="#63b8ff" d="M479.97,-275.91C475.86,-262.41 470.56,-236.79 483.12,-221 551.29,-135.36 615.05,-183.11 723.12,-165.75 882.34,-140.17 1073.68,-127.87 1159.53,-123.31"/>
<polygon fill="#63b8ff" stroke="#63b8ff" points="1159.64,-126.75 1169.44,-122.74 1159.27,-119.76 1159.64,-126.75"/>
</g>
<!-- Node21&#45;&gt;Node18 -->
<g id="edge33" class="edge">
<title>Node21&#45;&gt;Node18</title>
<path fill="none" stroke="#63b8ff" d="M450.04,-281.12C424.56,-276.29 390.93,-265.29 374.12,-240.25 340.64,-190.36 371.96,-155.2 412.12,-110.5 421.5,-100.07 433.27,-89.78 443.24,-81.71"/>
<polygon fill="#63b8ff" stroke="#63b8ff" points="445.08,-83.93 450.77,-74.99 440.75,-78.43 445.08,-83.93"/>
</g>
<!-- Node22 -->
<g id="node22" class="node">
<title>Node22</title>
<g id="a_node22"><a xlink:title=" ">
<polygon fill="#e0e0e0" stroke="#999999" points="530.38,-240.25 491.88,-240.25 491.88,-221 530.38,-221 530.38,-240.25"/>
<text text-anchor="middle" x="511.12" y="-226.75" font-family="Helvetica,sans-Serif" font-size="10.00">utility</text>
</a>
</g>
</g>
<!-- Node21&#45;&gt;Node22 -->
<g id="edge31" class="edge">
<title>Node21&#45;&gt;Node22</title>
<path fill="none" stroke="#63b8ff" d="M487.75,-276.08C491.46,-269.03 496.78,-258.9 501.42,-250.08"/>
<polygon fill="#63b8ff" stroke="#63b8ff" points="504.84,-252.09 506.4,-241.61 498.65,-248.83 504.84,-252.09"/>
</g>
<!-- Node23&#45;&gt;Node5 -->
<g id="edge36" class="edge">
<title>Node23&#45;&gt;Node5</title>
<path fill="none" stroke="#63b8ff" d="M663.13,-277.19C736.89,-267.07 865.82,-249.37 939.43,-239.27"/>
<polygon fill="#63b8ff" stroke="#63b8ff" points="939.88,-242.6 949.31,-237.78 938.93,-235.67 939.88,-242.6"/>
</g>
<!-- Node23&#45;&gt;Node10 -->
<g id="edge35" class="edge">
<title>Node23&#45;&gt;Node10</title>
<path fill="none" stroke="#63b8ff" d="M622.47,-275.8C636.58,-267.23 657.86,-253.71 675.12,-240.25 713.7,-210.18 711.49,-185.75 756.12,-165.75 827.45,-133.78 1060.42,-124.54 1159.67,-122.01"/>
<polygon fill="#63b8ff" stroke="#63b8ff" points="1159.63,-125.49 1169.54,-121.75 1159.46,-118.49 1159.63,-125.49"/>
</g>
<!-- Node23&#45;&gt;Node18 -->
<g id="edge39" class="edge">
<title>Node23&#45;&gt;Node18</title>
<path fill="none" stroke="#63b8ff" d="M551.16,-278.14C526.54,-272.22 499.54,-261.1 483.12,-240.25 447.23,-194.66 454.24,-120.34 460.18,-85.31"/>
<polygon fill="#63b8ff" stroke="#63b8ff" points="463.77,-86.14 462.16,-75.67 456.89,-84.86 463.77,-86.14"/>
</g>
<!-- Node24 -->
<g id="node24" class="node">
<title>Node24</title>
<g id="a_node24"><a xlink:href="v8-weak-callback-info_8h.html" target="_top" xlink:title=" ">
<polygon fill="white" stroke="#666666" points="666.12,-240.25 548.12,-240.25 548.12,-221 666.12,-221 666.12,-240.25"/>
<text text-anchor="middle" x="607.12" y="-226.75" font-family="Helvetica,sans-Serif" font-size="10.00">v8&#45;weak&#45;callback&#45;info.h</text>
</a>
</g>
</g>
<!-- Node23&#45;&gt;Node24 -->
<g id="edge37" class="edge">
<title>Node23&#45;&gt;Node24</title>
<path fill="none" stroke="#63b8ff" d="M607.12,-276.08C607.12,-269.42 607.12,-259.99 607.12,-251.53"/>
<polygon fill="#63b8ff" stroke="#63b8ff" points="610.63,-251.61 607.12,-241.61 603.63,-251.61 610.63,-251.61"/>
</g>
<!-- Node24&#45;&gt;Node18 -->
<g id="edge38" class="edge">
<title>Node24&#45;&gt;Node18</title>
<path fill="none" stroke="#63b8ff" d="M598.3,-220.52C589.7,-211.6 576.32,-197.54 565.12,-185 533.39,-149.48 497.65,-106.61 478.34,-83.21"/>
<polygon fill="#63b8ff" stroke="#63b8ff" points="480.63,-81.48 471.57,-75.98 475.22,-85.92 480.63,-81.48"/>
</g>
<!-- Node25&#45;&gt;Node4 -->
<g id="edge41" class="edge">
<title>Node25&#45;&gt;Node4</title>
<path fill="none" stroke="#63b8ff" d="M897.7,-386.58C900.17,-377.65 903.73,-363.38 905.12,-350.75 906.77,-335.87 905.85,-318.93 904.61,-306.24"/>
<polygon fill="#63b8ff" stroke="#63b8ff" points="908,-306.12 903.4,-296.58 901.05,-306.91 908,-306.12"/>
</g>
<!-- Node25&#45;&gt;Node5 -->
<g id="edge43" class="edge">
<title>Node25&#45;&gt;Node5</title>
<path fill="none" stroke="#63b8ff" d="M901.93,-386.28C914.68,-369.04 942.73,-330.23 963.12,-295.5 971.86,-280.63 980.55,-263.06 986.66,-250.12"/>
<polygon fill="#63b8ff" stroke="#63b8ff" points="990.09,-252.04 991.14,-241.5 983.75,-249.09 990.09,-252.04"/>
</g>
<!-- Node25&#45;&gt;Node10 -->
<g id="edge42" class="edge">
<title>Node25&#45;&gt;Node10</title>
<path fill="none" stroke="#63b8ff" d="M932.24,-391.52C1020.7,-381.48 1239.82,-351.37 1283.12,-295.5 1322.83,-244.27 1256.45,-169.63 1222.82,-137.18"/>
<polygon fill="#63b8ff" stroke="#63b8ff" points="1225.74,-135.19 1216.06,-130.88 1220.95,-140.28 1225.74,-135.19"/>
</g>
<!-- Node25&#45;&gt;Node18 -->
<g id="edge50" class="edge">
<title>Node25&#45;&gt;Node18</title>
<path fill="none" stroke="#63b8ff" d="M877.13,-386.39C862.46,-378.44 841.83,-365.8 827.12,-350.75 779.6,-302.14 792.55,-270.66 746.12,-221 688.84,-159.72 667.55,-149.18 593.12,-110.5 564.85,-95.81 530.68,-84.24 504.62,-76.56"/>
<polygon fill="#63b8ff" stroke="#63b8ff" points="505.92,-73.01 495.34,-73.61 503.99,-79.74 505.92,-73.01"/>
</g>
<!-- Node25&#45;&gt;Node26 -->
<g id="edge44" class="edge">
<title>Node25&#45;&gt;Node26</title>
<path fill="none" stroke="#63b8ff" d="M890.34,-386.58C886.5,-379.53 880.98,-369.4 876.18,-360.58"/>
<polygon fill="#63b8ff" stroke="#63b8ff" points="878.87,-359.22 871.02,-352.11 872.73,-362.57 878.87,-359.22"/>
</g>
<!-- Node26&#45;&gt;Node4 -->
<g id="edge45" class="edge">
<title>Node26&#45;&gt;Node4</title>
<path fill="none" stroke="#63b8ff" d="M872.07,-331.33C876.94,-324.13 883.99,-313.71 890.03,-304.76"/>
<polygon fill="#63b8ff" stroke="#63b8ff" points="893.35,-307.1 896.05,-296.86 887.55,-303.18 893.35,-307.1"/>
</g>
<!-- Node26&#45;&gt;Node5 -->
<g id="edge47" class="edge">
<title>Node26&#45;&gt;Node5</title>
<path fill="none" stroke="#63b8ff" d="M884.23,-331.05C899.65,-322.88 921.97,-309.95 939.12,-295.5 955.62,-281.61 971.55,-262.74 982.17,-249.12"/>
<polygon fill="#63b8ff" stroke="#63b8ff" points="985.34,-251.73 988.62,-241.65 979.78,-247.49 985.34,-251.73"/>
</g>
<!-- Node26&#45;&gt;Node10 -->
<g id="edge46" class="edge">
<title>Node26&#45;&gt;Node10</title>
<path fill="none" stroke="#63b8ff" d="M864.67,-331C860.55,-301.49 852.18,-208.07 903.12,-165.75 941.27,-134.06 1085.04,-124.86 1159.61,-122.2"/>
<polygon fill="#63b8ff" stroke="#63b8ff" points="1159.65,-125.66 1169.53,-121.84 1159.42,-118.67 1159.65,-125.66"/>
</g>
<!-- Node26&#45;&gt;Node18 -->
<g id="edge49" class="edge">
<title>Node26&#45;&gt;Node18</title>
<path fill="none" stroke="#63b8ff" d="M835.8,-337.57C744.94,-329.81 478.85,-306.44 441.12,-295.5 379.68,-277.68 312.12,-295.6 312.12,-231.62 312.12,-231.62 312.12,-231.62 312.12,-174.38 312.12,-119.45 378.7,-89.7 423.73,-75.86"/>
<polygon fill="#63b8ff" stroke="#63b8ff" points="424.48,-79 433.09,-72.84 422.51,-72.28 424.48,-79"/>
</g>
<!-- Node26&#45;&gt;Node21 -->
<g id="edge48" class="edge">
<title>Node26&#45;&gt;Node21</title>
<path fill="none" stroke="#63b8ff" d="M835.74,-336.03C778.34,-328.26 650.06,-310.82 542.12,-295.5 537.13,-294.79 531.91,-294.04 526.72,-293.29"/>
<polygon fill="#63b8ff" stroke="#63b8ff" points="527.59,-289.73 517.19,-291.76 526.59,-296.66 527.59,-289.73"/>
</g>
<!-- Node27&#45;&gt;Node10 -->
<g id="edge53" class="edge">
<title>Node27&#45;&gt;Node10</title>
<path fill="none" stroke="#63b8ff" d="M660.77,-386.45C664.92,-373.45 673.88,-348.97 687.12,-331.5 756.26,-240.32 779.59,-212.28 884.12,-165.75 932.51,-144.21 1083.3,-130.22 1159.73,-124.32"/>
<polygon fill="#63b8ff" stroke="#63b8ff" points="1159.74,-127.76 1169.45,-123.51 1159.21,-120.78 1159.74,-127.76"/>
</g>
<!-- Node27&#45;&gt;Node18 -->
<g id="edge54" class="edge">
<title>Node27&#45;&gt;Node18</title>
<path fill="none" stroke="#63b8ff" d="M621.31,-396.16C525.19,-396.12 274.12,-381.65 274.12,-231.62 274.12,-231.62 274.12,-231.62 274.12,-174.38 274.12,-106.18 367.57,-80.27 423.39,-70.88"/>
<polygon fill="#63b8ff" stroke="#63b8ff" points="423.68,-74.22 433.02,-69.21 422.6,-67.31 423.68,-74.22"/>
</g>
<!-- Node28 -->
<g id="node28" class="node">
<title>Node28</title>
<g id="a_node28"><a xlink:title=" ">
<polygon fill="#e0e0e0" stroke="#999999" points="741.75,-350.75 696.5,-350.75 696.5,-331.5 741.75,-331.5 741.75,-350.75"/>
<text text-anchor="middle" x="719.12" y="-337.25" font-family="Helvetica,sans-Serif" font-size="10.00">cstdint</text>
</a>
</g>
</g>
<!-- Node27&#45;&gt;Node28 -->
<g id="edge52" class="edge">
<title>Node27&#45;&gt;Node28</title>
<path fill="none" stroke="#63b8ff" d="M668.47,-386.34C677.29,-378.65 690.17,-367.4 700.74,-358.18"/>
<polygon fill="#63b8ff" stroke="#63b8ff" points="702.7,-360.24 707.93,-351.02 698.09,-354.96 702.7,-360.24"/>
</g>
<!-- Node29&#45;&gt;Node5 -->
<g id="edge64" class="edge">
<title>Node29&#45;&gt;Node5</title>
<path fill="none" stroke="#63b8ff" d="M1186.68,-275.78C1147.56,-266.76 1087.49,-252.92 1045.06,-243.14"/>
<polygon fill="#63b8ff" stroke="#63b8ff" points="1045.94,-239.52 1035.41,-240.68 1044.37,-246.34 1045.94,-239.52"/>
</g>
<!-- Node29&#45;&gt;Node6 -->
<g id="edge56" class="edge">
<title>Node29&#45;&gt;Node6</title>
<path fill="none" stroke="#63b8ff" d="M1257.58,-275.82C1316.05,-257.49 1442.22,-210.72 1516.12,-129.75 1527.66,-117.11 1534.72,-98.8 1538.7,-85.03"/>
<polygon fill="#63b8ff" stroke="#63b8ff" points="1542.25,-86.3 1541.36,-75.74 1535.47,-84.55 1542.25,-86.3"/>
</g>
<!-- Node29&#45;&gt;Node7 -->
<g id="edge61" class="edge">
<title>Node29&#45;&gt;Node7</title>
<path fill="none" stroke="#63b8ff" d="M1184.09,-275.77C1163.27,-269.2 1139.39,-258.22 1124.12,-240.25 1102.01,-214.2 1122.94,-194.91 1105.12,-165.75 1082.61,-128.9 1042.21,-98.08 1016.31,-80.81"/>
<polygon fill="#63b8ff" stroke="#63b8ff" points="1018.45,-77.38 1008.16,-74.87 1014.64,-83.25 1018.45,-77.38"/>
</g>
<!-- Node29&#45;&gt;Node10 -->
<g id="edge63" class="edge">
<title>Node29&#45;&gt;Node10</title>
<path fill="none" stroke="#63b8ff" d="M1225,-276.07C1221.73,-250.64 1212.24,-176.6 1207.66,-140.87"/>
<polygon fill="#63b8ff" stroke="#63b8ff" points="1211,-140.45 1206.26,-130.97 1204.06,-141.34 1211,-140.45"/>
</g>
<!-- Node29&#45;&gt;Node11 -->
<g id="edge57" class="edge">
<title>Node29&#45;&gt;Node11</title>
<path fill="none" stroke="#63b8ff" d="M1228.92,-275.79C1236.53,-249.94 1256.48,-173.72 1248.12,-110.5 1247.02,-102.16 1244.81,-93.15 1242.58,-85.44"/>
<polygon fill="#63b8ff" stroke="#63b8ff" points="1245.63,-84.47 1239.32,-75.96 1238.95,-86.55 1245.63,-84.47"/>
</g>
<!-- Node29&#45;&gt;Node13 -->
<g id="edge59" class="edge">
<title>Node29&#45;&gt;Node13</title>
<path fill="none" stroke="#63b8ff" d="M1233.01,-275.76C1239.29,-267.05 1248.45,-253.34 1254.12,-240.25 1277.42,-186.53 1291.23,-118.23 1296.98,-85.33"/>
<polygon fill="#63b8ff" stroke="#63b8ff" points="1300.53,-86.34 1298.74,-75.9 1293.62,-85.18 1300.53,-86.34"/>
</g>
<!-- Node29&#45;&gt;Node16 -->
<g id="edge60" class="edge">
<title>Node29&#45;&gt;Node16</title>
<path fill="none" stroke="#63b8ff" d="M1268.34,-275.79C1381.82,-249.6 1678.25,-168.5 1577.12,-55.25 1553.58,-28.88 1313.65,-16.06 1220.67,-12.05"/>
<polygon fill="#63b8ff" stroke="#63b8ff" points="1220.96,-8.52 1210.83,-11.6 1220.67,-15.51 1220.96,-8.52"/>
</g>
<!-- Node29&#45;&gt;Node18 -->
<g id="edge66" class="edge">
<title>Node29&#45;&gt;Node18</title>
<path fill="none" stroke="#63b8ff" d="M1182.28,-275.79C1158.97,-269.15 1131.08,-258.09 1111.12,-240.25 1083.26,-215.34 1102.19,-187.96 1072.12,-165.75 981.18,-98.57 625.83,-74.24 504.78,-67.8"/>
<polygon fill="#63b8ff" stroke="#63b8ff" points="505.31,-64.27 495.14,-67.24 504.94,-71.26 505.31,-64.27"/>
</g>
<!-- Node29&#45;&gt;Node22 -->
<g id="edge62" class="edge">
<title>Node29&#45;&gt;Node22</title>
<path fill="none" stroke="#63b8ff" d="M1178.07,-283.22C1046.47,-278.45 681.3,-263.64 541.34,-240.18"/>
<polygon fill="#63b8ff" stroke="#63b8ff" points="542.32,-236.63 531.87,-238.33 541.11,-243.52 542.32,-236.63"/>
</g>
<!-- Node29&#45;&gt;Node24 -->
<g id="edge65" class="edge">
<title>Node29&#45;&gt;Node24</title>
<path fill="none" stroke="#63b8ff" d="M1178.07,-280.74C1069.32,-271.39 803.98,-248.56 677.03,-237.64"/>
<polygon fill="#63b8ff" stroke="#63b8ff" points="677.55,-234.08 667.29,-236.71 676.95,-241.06 677.55,-234.08"/>
</g>
<!-- Node30 -->
<g id="node30" class="node">
<title>Node30</title>
<g id="a_node30"><a xlink:title=" ">
<polygon fill="#e0e0e0" stroke="#999999" points="1177.38,-240.25 1132.88,-240.25 1132.88,-221 1177.38,-221 1177.38,-240.25"/>
<text text-anchor="middle" x="1155.12" y="-226.75" font-family="Helvetica,sans-Serif" font-size="10.00">stdio.h</text>
</a>
</g>
</g>
<!-- Node29&#45;&gt;Node30 -->
<g id="edge58" class="edge">
<title>Node29&#45;&gt;Node30</title>
<path fill="none" stroke="#63b8ff" d="M1214.08,-275.84C1203.61,-267.99 1188.22,-256.45 1175.79,-247.12"/>
<polygon fill="#63b8ff" stroke="#63b8ff" points="1178.09,-243.72 1167.99,-240.52 1173.89,-249.32 1178.09,-243.72"/>
</g>
<!-- Node31&#45;&gt;Node5 -->
<g id="edge74" class="edge">
<title>Node31&#45;&gt;Node5</title>
<path fill="none" stroke="#63b8ff" d="M950.68,-442.05C990.68,-434.62 1039.7,-422.45 1052.12,-406 1086.89,-359.98 1075.87,-327.86 1050.12,-276.25 1044.01,-263.99 1032.81,-253.96 1022.1,-246.53"/>
<polygon fill="#63b8ff" stroke="#63b8ff" points="1024.27,-243.12 1013.96,-240.68 1020.49,-249.01 1024.27,-243.12"/>
</g>
<!-- Node31&#45;&gt;Node10 -->
<g id="edge73" class="edge">
<title>Node31&#45;&gt;Node10</title>
<path fill="none" stroke="#63b8ff" d="M950.83,-450.92C1053.83,-448.19 1273.53,-426.36 1383.12,-295.5 1420.89,-250.41 1446,-211.57 1409.12,-165.75 1389.56,-141.44 1304.07,-129.65 1250.16,-124.53"/>
<polygon fill="#63b8ff" stroke="#63b8ff" points="1250.77,-120.98 1240.5,-123.56 1250.14,-127.95 1250.77,-120.98"/>
</g>
<!-- Node31&#45;&gt;Node15 -->
<g id="edge72" class="edge">
<title>Node31&#45;&gt;Node15</title>
<path fill="none" stroke="#63b8ff" d="M950.66,-450.09C1021.75,-447.96 1147.95,-439.28 1250.12,-406 1298.4,-390.27 1309.59,-381.33 1350.12,-350.75 1405.75,-308.79 1443.74,-290.45 1438.12,-221 1436.12,-196.2 1442.5,-186.73 1429.12,-165.75 1413.81,-141.74 1392.43,-153.09 1376.12,-129.75 1367.1,-116.83 1363.16,-99.31 1361.44,-85.89"/>
<polygon fill="#63b8ff" stroke="#63b8ff" points="1364.83,-85.59 1360.4,-75.96 1357.86,-86.25 1364.83,-85.59"/>
</g>
<!-- Node31&#45;&gt;Node18 -->
<g id="edge76" class="edge">
<title>Node31&#45;&gt;Node18</title>
<path fill="none" stroke="#63b8ff" d="M885.49,-441.52C876.09,-432.59 861.46,-418.53 849.12,-406 769.93,-325.57 759.61,-295.85 675.12,-221 611.12,-164.3 527.29,-107.19 487.3,-80.87"/>
<polygon fill="#63b8ff" stroke="#63b8ff" points="489.4,-77.41 479.11,-74.86 485.56,-83.27 489.4,-77.41"/>
</g>
<!-- Node31&#45;&gt;Node25 -->
<g id="edge75" class="edge">
<title>Node31&#45;&gt;Node25</title>
<path fill="none" stroke="#63b8ff" d="M895.12,-441.83C895.12,-435.17 895.12,-425.74 895.12,-417.28"/>
<polygon fill="#63b8ff" stroke="#63b8ff" points="898.63,-417.36 895.12,-407.36 891.63,-417.36 898.63,-417.36"/>
</g>
<!-- Node31&#45;&gt;Node28 -->
<g id="edge71" class="edge">
<title>Node31&#45;&gt;Node28</title>
<path fill="none" stroke="#63b8ff" d="M864.18,-441.62C841.25,-434.12 809.82,-422.08 785.12,-406 765.18,-393.01 746.05,-373.45 733.57,-359.39"/>
<polygon fill="#63b8ff" stroke="#63b8ff" points="735.57,-357.36 726.38,-352.08 730.27,-361.94 735.57,-357.36"/>
</g>
<!-- Node32&#45;&gt;Node6 -->
<g id="edge79" class="edge">
<title>Node32&#45;&gt;Node6</title>
<path fill="none" stroke="#63b8ff" d="M1451.79,-110.09C1469.01,-101.75 1494.84,-89.25 1514.65,-79.66"/>
<polygon fill="#63b8ff" stroke="#63b8ff" points="1515.9,-82.46 1523.37,-74.95 1512.85,-76.16 1515.9,-82.46"/>
</g>
<!-- Node32&#45;&gt;Node7 -->
<g id="edge82" class="edge">
<title>Node32&#45;&gt;Node7</title>
<path fill="none" stroke="#63b8ff" d="M1384.94,-115.45C1311.26,-109.48 1166,-96.24 1033.46,-74.73"/>
<polygon fill="#63b8ff" stroke="#63b8ff" points="1034.16,-71.14 1023.72,-72.97 1033.02,-78.04 1034.16,-71.14"/>
</g>
<!-- Node32&#45;&gt;Node14 -->
<g id="edge81" class="edge">
<title>Node32&#45;&gt;Node14</title>
<path fill="none" stroke="#63b8ff" d="M1431.14,-110.33C1429.62,-103.59 1427.47,-94.02 1425.55,-85.49"/>
<polygon fill="#63b8ff" stroke="#63b8ff" points="1428.76,-84.85 1423.15,-75.86 1421.93,-86.38 1428.76,-84.85"/>
</g>
<!-- Node32&#45;&gt;Node18 -->
<g id="edge83" class="edge">
<title>Node32&#45;&gt;Node18</title>
<path fill="none" stroke="#63b8ff" d="M1385.07,-116.48C1217.61,-107.28 661.41,-76.72 505.23,-68.13"/>
<polygon fill="#63b8ff" stroke="#63b8ff" points="505.45,-64.59 495.27,-67.53 505.06,-71.58 505.45,-64.59"/>
</g>
<!-- Node33 -->
<g id="node33" class="node">
<title>Node33</title>
<g id="a_node33"><a xlink:title=" ">
<polygon fill="#e0e0e0" stroke="#999999" points="1499.62,-74.5 1462.62,-74.5 1462.62,-55.25 1499.62,-55.25 1499.62,-74.5"/>
<text text-anchor="middle" x="1481.12" y="-61" font-family="Helvetica,sans-Serif" font-size="10.00">array</text>
</a>
</g>
</g>
<!-- Node32&#45;&gt;Node33 -->
<g id="edge80" class="edge">
<title>Node32&#45;&gt;Node33</title>
<path fill="none" stroke="#63b8ff" d="M1441.05,-110.33C1447.75,-102.9 1457.54,-92.04 1465.77,-82.91"/>
<polygon fill="#63b8ff" stroke="#63b8ff" points="1467.93,-85.63 1472.03,-75.86 1462.73,-80.94 1467.93,-85.63"/>
</g>
</g>
</svg>
