<?xml version="1.0" encoding="UTF-8" standalone="no"?>
<!DOCTYPE svg PUBLIC "-//W3C//DTD SVG 1.1//EN"
 "http://www.w3.org/Graphics/SVG/1.1/DTD/svg11.dtd">
<!-- Generated by graphviz version 8.0.5 (20230430.1635)
 -->
<!-- Title: v8::IndirectHandleBase::slot Pages: 1 -->
<svg width="656pt" height="678pt"
 viewBox="0.00 0.00 656.25 677.50" xmlns="http://www.w3.org/2000/svg" xmlns:xlink="http://www.w3.org/1999/xlink">
<g id="graph0" class="graph" transform="scale(1 1) rotate(0) translate(4 673.5)">
<title>v8::IndirectHandleBase::slot</title>
<!-- Node1 -->
<g id="node1" class="node">
<title>Node1</title>
<g id="a_node1"><a xlink:title=" ">
<polygon fill="#999999" stroke="#666666" points="648.25,-350.5 531.75,-350.5 531.75,-320 648.25,-320 648.25,-350.5"/>
<text text-anchor="start" x="539.75" y="-337" font-family="Helvetica,sans-Serif" font-size="10.00">v8::IndirectHandleBase</text>
<text text-anchor="middle" x="590" y="-325.75" font-family="Helvetica,sans-Serif" font-size="10.00">::slot</text>
</a>
</g>
</g>
<!-- Node2 -->
<g id="node2" class="node">
<title>Node2</title>
<g id="a_node2"><a xlink:href="classv8_1_1PersistentValueVector.html#ad07f449c2004b4f3d91e58cabde99a53" target="_top" xlink:title=" ">
<polygon fill="white" stroke="#666666" points="489.38,-669.5 360.88,-669.5 360.88,-639 489.38,-639 489.38,-669.5"/>
<text text-anchor="start" x="368.88" y="-656" font-family="Helvetica,sans-Serif" font-size="10.00">v8::PersistentValueVector</text>
<text text-anchor="middle" x="425.12" y="-644.75" font-family="Helvetica,sans-Serif" font-size="10.00">::Clear</text>
</a>
</g>
</g>
<!-- Node1&#45;&gt;Node2 -->
<g id="edge1" class="edge">
<title>Node1&#45;&gt;Node2</title>
<path fill="none" stroke="#63b8ff" d="M588.15,-361.59C584.92,-418.25 569.44,-552.73 495.75,-629.25 492.28,-632.86 488.24,-635.95 483.9,-638.59"/>
<polygon fill="#63b8ff" stroke="#63b8ff" points="591.69,-361.89 588.67,-351.73 584.7,-361.55 591.69,-361.89"/>
</g>
<!-- Node3 -->
<g id="node3" class="node">
<title>Node3</title>
<g id="a_node3"><a xlink:href="classv8_1_1EscapableHandleScope.html#a4985872a5963958a90e7b52dc9d53dcf" target="_top" xlink:title=" ">
<polygon fill="white" stroke="#666666" points="492.38,-620.5 357.88,-620.5 357.88,-590 492.38,-590 492.38,-620.5"/>
<text text-anchor="start" x="365.88" y="-607" font-family="Helvetica,sans-Serif" font-size="10.00">v8::EscapableHandleScope</text>
<text text-anchor="middle" x="425.12" y="-595.75" font-family="Helvetica,sans-Serif" font-size="10.00">::Escape</text>
</a>
</g>
</g>
<!-- Node1&#45;&gt;Node3 -->
<g id="edge2" class="edge">
<title>Node1&#45;&gt;Node3</title>
<path fill="none" stroke="#63b8ff" d="M586.29,-361.8C579.8,-411.71 558.88,-520.01 495.75,-581.25 492.45,-584.45 488.69,-587.23 484.69,-589.64"/>
<polygon fill="#63b8ff" stroke="#63b8ff" points="589.87,-362.32 587.59,-351.98 582.92,-361.49 589.87,-362.32"/>
</g>
<!-- Node4 -->
<g id="node4" class="node">
<title>Node4</title>
<g id="a_node4"><a xlink:href="classv8_1_1LocalBase.html#a729fa783418878bbb4c8468594934a80" target="_top" xlink:title=" ">
<polygon fill="white" stroke="#666666" points="486,-571.88 364.25,-571.88 364.25,-552.62 486,-552.62 486,-571.88"/>
<text text-anchor="middle" x="425.12" y="-558.38" font-family="Helvetica,sans-Serif" font-size="10.00">v8::LocalBase::FromSlot</text>
</a>
</g>
</g>
<!-- Node1&#45;&gt;Node4 -->
<g id="edge3" class="edge">
<title>Node1&#45;&gt;Node4</title>
<path fill="none" stroke="#63b8ff" d="M584.79,-361.64C576.27,-406.17 552.7,-496.08 495.75,-544.25 492.03,-547.39 487.83,-550 483.38,-552.15"/>
<polygon fill="#63b8ff" stroke="#63b8ff" points="588.41,-362.31 586.73,-351.85 581.52,-361.07 588.41,-362.31"/>
</g>
<!-- Node5 -->
<g id="node5" class="node">
<title>Node5</title>
<g id="a_node5"><a xlink:href="classv8_1_1Eternal.html#a2a615f9cdc8ae38d2380065488c2a397" target="_top" xlink:title=" ">
<polygon fill="white" stroke="#666666" points="465.75,-534.88 384.5,-534.88 384.5,-515.62 465.75,-515.62 465.75,-534.88"/>
<text text-anchor="middle" x="425.12" y="-521.38" font-family="Helvetica,sans-Serif" font-size="10.00">v8::Eternal::Get</text>
</a>
</g>
</g>
<!-- Node1&#45;&gt;Node5 -->
<g id="edge4" class="edge">
<title>Node1&#45;&gt;Node5</title>
<path fill="none" stroke="#63b8ff" d="M581.98,-361.12C570.4,-398.78 543.67,-468.36 495.75,-506.25 487.2,-513.01 476.42,-517.37 465.91,-520.18"/>
<polygon fill="#63b8ff" stroke="#63b8ff" points="585.5,-362.54 584.97,-351.95 578.79,-360.56 585.5,-362.54"/>
</g>
<!-- Node6 -->
<g id="node6" class="node">
<title>Node6</title>
<g id="a_node6"><a xlink:href="classv8_1_1TracedReferenceBase.html#a95770f73c3307fc6e2977cd22ac68866" target="_top" xlink:title=" ">
<polygon fill="white" stroke="#666666" points="489,-497.5 361.25,-497.5 361.25,-467 489,-467 489,-497.5"/>
<text text-anchor="start" x="369.25" y="-484" font-family="Helvetica,sans-Serif" font-size="10.00">v8::TracedReferenceBase</text>
<text text-anchor="middle" x="425.12" y="-472.75" font-family="Helvetica,sans-Serif" font-size="10.00">::GetSlotThreadSafe</text>
</a>
</g>
</g>
<!-- Node1&#45;&gt;Node6 -->
<g id="edge5" class="edge">
<title>Node1&#45;&gt;Node6</title>
<path fill="none" stroke="#63b8ff" d="M575.93,-359.93C560.26,-387.3 531.59,-431.04 495.75,-457.25 490.88,-460.81 485.45,-463.91 479.83,-466.59"/>
<polygon fill="#63b8ff" stroke="#63b8ff" points="579.29,-362.09 581.1,-351.65 573.17,-358.68 579.29,-362.09"/>
</g>
<!-- Node9 -->
<g id="node9" class="node">
<title>Node9</title>
<g id="a_node9"><a xlink:href="classv8_1_1PersistentValueMapBase.html#adacf68ca7b9fb19deab68711a70a8313" target="_top" xlink:title=" ">
<polygon fill="white" stroke="#666666" points="495.75,-448.5 354.5,-448.5 354.5,-418 495.75,-418 495.75,-448.5"/>
<text text-anchor="start" x="362.5" y="-435" font-family="Helvetica,sans-Serif" font-size="10.00">v8::PersistentValueMapBase</text>
<text text-anchor="middle" x="425.12" y="-423.75" font-family="Helvetica,sans-Serif" font-size="10.00">::Leak</text>
</a>
</g>
</g>
<!-- Node1&#45;&gt;Node9 -->
<g id="edge8" class="edge">
<title>Node1&#45;&gt;Node9</title>
<path fill="none" stroke="#63b8ff" d="M564.46,-358.04C546.5,-373.79 520.96,-394.33 495.75,-408.25 489.57,-411.66 482.83,-414.77 476.05,-417.53"/>
<polygon fill="#63b8ff" stroke="#63b8ff" points="566.51,-361.01 571.64,-351.74 561.85,-355.79 566.51,-361.01"/>
</g>
<!-- Node12 -->
<g id="node12" class="node">
<title>Node12</title>
<g id="a_node12"><a xlink:href="classv8_1_1TracedReference.html#a37604b0cb2ec940aa603ee6b7e0a5bc1" target="_top" xlink:title=" ">
<polygon fill="white" stroke="#666666" points="477.75,-399.5 372.5,-399.5 372.5,-369 477.75,-369 477.75,-399.5"/>
<text text-anchor="start" x="380.5" y="-386" font-family="Helvetica,sans-Serif" font-size="10.00">v8::TracedReference</text>
<text text-anchor="middle" x="425.12" y="-374.75" font-family="Helvetica,sans-Serif" font-size="10.00">::operator=</text>
</a>
</g>
</g>
<!-- Node1&#45;&gt;Node12 -->
<g id="edge11" class="edge">
<title>Node1&#45;&gt;Node12</title>
<path fill="none" stroke="#63b8ff" d="M526.67,-354C510.66,-358.82 493.6,-363.95 478.17,-368.59"/>
<polygon fill="#63b8ff" stroke="#63b8ff" points="527.45,-357.12 536.02,-350.89 525.43,-350.42 527.45,-357.12"/>
</g>
<!-- Node13 -->
<g id="node13" class="node">
<title>Node13</title>
<g id="a_node13"><a xlink:href="classv8_1_1PersistentValueMapBase.html#aea9af944a2bd71a3b6abd2a2e57788f1" target="_top" xlink:title=" ">
<polygon fill="white" stroke="#666666" points="495.75,-350.5 354.5,-350.5 354.5,-320 495.75,-320 495.75,-350.5"/>
<text text-anchor="start" x="362.5" y="-337" font-family="Helvetica,sans-Serif" font-size="10.00">v8::PersistentValueMapBase</text>
<text text-anchor="middle" x="425.12" y="-325.75" font-family="Helvetica,sans-Serif" font-size="10.00">::Release</text>
</a>
</g>
</g>
<!-- Node1&#45;&gt;Node13 -->
<g id="edge12" class="edge">
<title>Node1&#45;&gt;Node13</title>
<path fill="none" stroke="#63b8ff" d="M520.67,-335.25C512.57,-335.25 504.29,-335.25 496.17,-335.25"/>
<polygon fill="#63b8ff" stroke="#63b8ff" points="520.58,-338.75 530.58,-335.25 520.58,-331.75 520.58,-338.75"/>
</g>
<!-- Node21 -->
<g id="node21" class="node">
<title>Node21</title>
<g id="a_node21"><a xlink:href="classv8_1_1PersistentValueMapBase.html#a5c16ace49c257f760c92a010a93b4884" target="_top" xlink:title=" ">
<polygon fill="white" stroke="#666666" points="495.75,-301.5 354.5,-301.5 354.5,-271 495.75,-271 495.75,-301.5"/>
<text text-anchor="start" x="362.5" y="-288" font-family="Helvetica,sans-Serif" font-size="10.00">v8::PersistentValueMapBase</text>
<text text-anchor="middle" x="425.12" y="-276.75" font-family="Helvetica,sans-Serif" font-size="10.00">::RemoveWeak</text>
</a>
</g>
</g>
<!-- Node1&#45;&gt;Node21 -->
<g id="edge20" class="edge">
<title>Node1&#45;&gt;Node21</title>
<path fill="none" stroke="#63b8ff" d="M526.73,-316.52C510.79,-311.72 493.83,-306.62 478.45,-301.99"/>
<polygon fill="#63b8ff" stroke="#63b8ff" points="525.43,-320.08 536.02,-319.61 527.45,-313.38 525.43,-320.08"/>
</g>
<!-- Node22 -->
<g id="node22" class="node">
<title>Node22</title>
<g id="a_node22"><a xlink:href="classv8_1_1TracedReferenceBase.html#a50c7297683f3c9864710ceca4aba546a" target="_top" xlink:title=" ">
<polygon fill="white" stroke="#666666" points="311.75,-190.5 184,-190.5 184,-160 311.75,-160 311.75,-190.5"/>
<text text-anchor="start" x="192" y="-177" font-family="Helvetica,sans-Serif" font-size="10.00">v8::TracedReferenceBase</text>
<text text-anchor="middle" x="247.88" y="-165.75" font-family="Helvetica,sans-Serif" font-size="10.00">::Reset</text>
</a>
</g>
</g>
<!-- Node1&#45;&gt;Node22 -->
<g id="edge21" class="edge">
<title>Node1&#45;&gt;Node22</title>
<path fill="none" stroke="#63b8ff" d="M565.61,-312.55C547.78,-296.4 521.91,-275.32 495.75,-262.25 437.6,-233.19 415.6,-246.46 354.5,-224.25 328.28,-214.72 299.64,-201.23 278.8,-190.81"/>
<polygon fill="#63b8ff" stroke="#63b8ff" points="562.49,-314.36 572.21,-318.58 567.25,-309.22 562.49,-314.36"/>
</g>
<!-- Node23 -->
<g id="node23" class="node">
<title>Node23</title>
<g id="a_node23"><a xlink:href="classv8_1_1Eternal.html#a2f9dcec02b2c2f7d4b55aee0d8b9881a" target="_top" xlink:title=" ">
<polygon fill="white" stroke="#666666" points="465.38,-214.88 384.88,-214.88 384.88,-195.62 465.38,-195.62 465.38,-214.88"/>
<text text-anchor="middle" x="425.12" y="-201.38" font-family="Helvetica,sans-Serif" font-size="10.00">v8::Eternal::Set</text>
</a>
</g>
</g>
<!-- Node1&#45;&gt;Node23 -->
<g id="edge22" class="edge">
<title>Node1&#45;&gt;Node23</title>
<path fill="none" stroke="#63b8ff" d="M573.17,-310.83C556.53,-286.94 528.28,-251.06 495.75,-229.25 486.72,-223.2 476.02,-218.52 465.74,-214.97"/>
<polygon fill="#63b8ff" stroke="#63b8ff" points="570.65,-312.35 579.17,-318.65 576.44,-308.41 570.65,-312.35"/>
</g>
<!-- Node24 -->
<g id="node24" class="node">
<title>Node24</title>
<g id="a_node24"><a xlink:href="classv8_1_1TracedReferenceBase.html#af1bec2c9c7914446481eefa36e0846b5" target="_top" xlink:title=" ">
<polygon fill="white" stroke="#666666" points="489,-177.5 361.25,-177.5 361.25,-147 489,-147 489,-177.5"/>
<text text-anchor="start" x="369.25" y="-164" font-family="Helvetica,sans-Serif" font-size="10.00">v8::TracedReferenceBase</text>
<text text-anchor="middle" x="425.12" y="-152.75" font-family="Helvetica,sans-Serif" font-size="10.00">::SetSlotThreadSafe</text>
</a>
</g>
</g>
<!-- Node1&#45;&gt;Node24 -->
<g id="edge23" class="edge">
<title>Node1&#45;&gt;Node24</title>
<path fill="none" stroke="#63b8ff" d="M579.47,-309.95C565.8,-276.95 537.56,-219.5 495.75,-186.25 491.75,-183.07 487.3,-180.29 482.63,-177.88"/>
<polygon fill="#63b8ff" stroke="#63b8ff" points="576.43,-310.77 583.39,-318.75 582.92,-308.16 576.43,-310.77"/>
</g>
<!-- Node25 -->
<g id="node25" class="node">
<title>Node25</title>
<g id="a_node25"><a xlink:href="classv8_1_1TracedReferenceBase.html#a7ea40db9556e49ad7ee4a2dfb235b655" target="_top" xlink:title=" ">
<polygon fill="white" stroke="#666666" points="489,-128.5 361.25,-128.5 361.25,-98 489,-98 489,-128.5"/>
<text text-anchor="start" x="369.25" y="-115" font-family="Helvetica,sans-Serif" font-size="10.00">v8::TracedReferenceBase</text>
<text text-anchor="middle" x="425.12" y="-103.75" font-family="Helvetica,sans-Serif" font-size="10.00">::SetWrapperClassId</text>
</a>
</g>
</g>
<!-- Node1&#45;&gt;Node25 -->
<g id="edge25" class="edge">
<title>Node1&#45;&gt;Node25</title>
<path fill="none" stroke="#63b8ff" d="M583.37,-308.8C573.11,-266.9 547.5,-185.19 495.75,-138.25 491.75,-134.63 487.2,-131.52 482.37,-128.85"/>
<polygon fill="#63b8ff" stroke="#63b8ff" points="580.18,-309.56 585.86,-318.51 587,-307.97 580.18,-309.56"/>
</g>
<!-- Node26 -->
<g id="node26" class="node">
<title>Node26</title>
<g id="a_node26"><a xlink:href="classv8_1_1IndirectHandleBase.html#a98b7c04b4f8259cca95cdbaf9928814c" target="_top" xlink:title=" ">
<polygon fill="white" stroke="#666666" points="483.38,-79.5 366.88,-79.5 366.88,-49 483.38,-49 483.38,-79.5"/>
<text text-anchor="start" x="374.88" y="-66" font-family="Helvetica,sans-Serif" font-size="10.00">v8::IndirectHandleBase</text>
<text text-anchor="middle" x="425.12" y="-54.75" font-family="Helvetica,sans-Serif" font-size="10.00">::value</text>
</a>
</g>
</g>
<!-- Node1&#45;&gt;Node26 -->
<g id="edge26" class="edge">
<title>Node1&#45;&gt;Node26</title>
<path fill="none" stroke="#63b8ff" d="M586.22,-308.77C579.6,-258.99 558.49,-150.89 495.75,-89.25 492.09,-85.65 487.87,-82.56 483.36,-79.92"/>
<polygon fill="#63b8ff" stroke="#63b8ff" points="582.85,-309.07 587.54,-318.57 589.8,-308.22 582.85,-309.07"/>
</g>
<!-- Node29 -->
<g id="node29" class="node">
<title>Node29</title>
<g id="a_node29"><a xlink:href="classv8_1_1TracedReferenceBase.html#a0b7354f15b126d889414f603b5a7cb9c" target="_top" xlink:title=" ">
<polygon fill="white" stroke="#666666" points="489,-30.5 361.25,-30.5 361.25,0 489,0 489,-30.5"/>
<text text-anchor="start" x="369.25" y="-17" font-family="Helvetica,sans-Serif" font-size="10.00">v8::TracedReferenceBase</text>
<text text-anchor="middle" x="425.12" y="-5.75" font-family="Helvetica,sans-Serif" font-size="10.00">::WrapperClassId</text>
</a>
</g>
</g>
<!-- Node1&#45;&gt;Node29 -->
<g id="edge29" class="edge">
<title>Node1&#45;&gt;Node29</title>
<path fill="none" stroke="#63b8ff" d="M588.18,-308.82C585.01,-251.98 569.63,-117.04 495.75,-40.25 492.28,-36.64 488.25,-33.55 483.91,-30.91"/>
<polygon fill="#63b8ff" stroke="#63b8ff" points="584.73,-308.89 588.69,-318.72 591.72,-308.56 584.73,-308.89"/>
</g>
<!-- Node7 -->
<g id="node7" class="node">
<title>Node7</title>
<g id="a_node7"><a xlink:href="classv8_1_1TracedReferenceBase.html#af999bfa19acca2508138d165daf85a54" target="_top" xlink:title=" ">
<polygon fill="white" stroke="#666666" points="311.75,-522.5 184,-522.5 184,-492 311.75,-492 311.75,-522.5"/>
<text text-anchor="start" x="192" y="-509" font-family="Helvetica,sans-Serif" font-size="10.00">v8::TracedReferenceBase</text>
<text text-anchor="middle" x="247.88" y="-497.75" font-family="Helvetica,sans-Serif" font-size="10.00">::IsEmptyThreadSafe</text>
</a>
</g>
</g>
<!-- Node6&#45;&gt;Node7 -->
<g id="edge6" class="edge">
<title>Node6&#45;&gt;Node7</title>
<path fill="none" stroke="#63b8ff" d="M350.29,-492.78C337.57,-494.6 324.46,-496.47 312.05,-498.24"/>
<polygon fill="#63b8ff" stroke="#63b8ff" points="350.45,-496.15 359.86,-491.28 349.46,-489.22 350.45,-496.15"/>
</g>
<!-- Node8 -->
<g id="node8" class="node">
<title>Node8</title>
<g id="a_node8"><a xlink:href="classv8_1_1JSVisitor.html#a51abc4a3c285a5ea2df30835e6bebe2b" target="_top" xlink:title=" ">
<polygon fill="white" stroke="#666666" points="120.62,-516.88 20.62,-516.88 20.62,-497.62 120.62,-497.62 120.62,-516.88"/>
<text text-anchor="middle" x="70.62" y="-503.38" font-family="Helvetica,sans-Serif" font-size="10.00">v8::JSVisitor::Trace</text>
</a>
</g>
</g>
<!-- Node7&#45;&gt;Node8 -->
<g id="edge7" class="edge">
<title>Node7&#45;&gt;Node8</title>
<path fill="none" stroke="#63b8ff" d="M172.84,-507.25C155.36,-507.25 137.14,-507.25 121.05,-507.25"/>
<polygon fill="#63b8ff" stroke="#63b8ff" points="172.61,-510.75 182.61,-507.25 172.61,-503.75 172.61,-510.75"/>
</g>
<!-- Node10 -->
<g id="node10" class="node">
<title>Node10</title>
<g id="a_node10"><a xlink:href="classv8_1_1PersistentValueMap.html#a26b6fc1a387cb024b88b46c8d349deb6" target="_top" xlink:title=" ">
<polygon fill="white" stroke="#666666" points="317,-473.88 178.75,-473.88 178.75,-454.62 317,-454.62 317,-473.88"/>
<text text-anchor="middle" x="247.88" y="-460.38" font-family="Helvetica,sans-Serif" font-size="10.00">v8::PersistentValueMap::Set</text>
</a>
</g>
</g>
<!-- Node9&#45;&gt;Node10 -->
<g id="edge9" class="edge">
<title>Node9&#45;&gt;Node10</title>
<path fill="none" stroke="#63b8ff" d="M343.5,-447.51C330.79,-449.76 317.89,-452.04 305.86,-454.17"/>
<polygon fill="#63b8ff" stroke="#63b8ff" points="343.87,-450.82 353.11,-445.64 342.65,-443.93 343.87,-450.82"/>
</g>
<!-- Node11 -->
<g id="node11" class="node">
<title>Node11</title>
<g id="a_node11"><a xlink:href="classv8_1_1GlobalValueMap.html#ada4d5e375c1ca1e2204def26df9f7cc0" target="_top" xlink:title=" ">
<polygon fill="white" stroke="#666666" points="308.75,-436.88 187,-436.88 187,-417.62 308.75,-417.62 308.75,-436.88"/>
<text text-anchor="middle" x="247.88" y="-423.38" font-family="Helvetica,sans-Serif" font-size="10.00">v8::GlobalValueMap::Set</text>
</a>
</g>
</g>
<!-- Node9&#45;&gt;Node11 -->
<g id="edge10" class="edge">
<title>Node9&#45;&gt;Node11</title>
<path fill="none" stroke="#63b8ff" d="M343.2,-430.48C331.75,-430.09 320.15,-429.69 309.18,-429.31"/>
<polygon fill="#63b8ff" stroke="#63b8ff" points="342.99,-434.01 353.11,-430.85 343.23,-427.01 342.99,-434.01"/>
</g>
<!-- Node14 -->
<g id="node14" class="node">
<title>Node14</title>
<g id="a_node14"><a xlink:href="classv8_1_1PersistentValueMapBase.html#a1bf074e7a7c24713c9a3d40ddce89e74" target="_top" xlink:title=" ">
<polygon fill="white" stroke="#666666" points="318.5,-399.5 177.25,-399.5 177.25,-369 318.5,-369 318.5,-399.5"/>
<text text-anchor="start" x="185.25" y="-386" font-family="Helvetica,sans-Serif" font-size="10.00">v8::PersistentValueMapBase</text>
<text text-anchor="middle" x="247.88" y="-374.75" font-family="Helvetica,sans-Serif" font-size="10.00">::Clear</text>
</a>
</g>
</g>
<!-- Node13&#45;&gt;Node14 -->
<g id="edge13" class="edge">
<title>Node13&#45;&gt;Node14</title>
<path fill="none" stroke="#63b8ff" d="M357.61,-353.85C340.33,-358.68 321.88,-363.84 305.18,-368.51"/>
<polygon fill="#63b8ff" stroke="#63b8ff" points="358.5,-356.95 367.19,-350.89 356.62,-350.21 358.5,-356.95"/>
</g>
<!-- Node16 -->
<g id="node16" class="node">
<title>Node16</title>
<g id="a_node16"><a xlink:href="classv8_1_1PersistentValueMapBase.html#aec30275e7c81be16b447b2e842da03dc" target="_top" xlink:title=" ">
<polygon fill="white" stroke="#666666" points="318.5,-350.5 177.25,-350.5 177.25,-320 318.5,-320 318.5,-350.5"/>
<text text-anchor="start" x="185.25" y="-337" font-family="Helvetica,sans-Serif" font-size="10.00">v8::PersistentValueMapBase</text>
<text text-anchor="middle" x="247.88" y="-325.75" font-family="Helvetica,sans-Serif" font-size="10.00">::Remove</text>
</a>
</g>
</g>
<!-- Node13&#45;&gt;Node16 -->
<g id="edge15" class="edge">
<title>Node13&#45;&gt;Node16</title>
<path fill="none" stroke="#63b8ff" d="M343.38,-335.25C335.16,-335.25 326.87,-335.25 318.78,-335.25"/>
<polygon fill="#63b8ff" stroke="#63b8ff" points="343.11,-338.75 353.11,-335.25 343.11,-331.75 343.11,-338.75"/>
</g>
<!-- Node17 -->
<g id="node17" class="node">
<title>Node17</title>
<g id="a_node17"><a xlink:href="classv8_1_1PersistentValueMap.html#a69bb485985460550e40c08c7fe55f89c" target="_top" xlink:title=" ">
<polygon fill="white" stroke="#666666" points="307.25,-301.5 188.5,-301.5 188.5,-271 307.25,-271 307.25,-301.5"/>
<text text-anchor="start" x="196.5" y="-288" font-family="Helvetica,sans-Serif" font-size="10.00">v8::PersistentValueMap</text>
<text text-anchor="middle" x="247.88" y="-276.75" font-family="Helvetica,sans-Serif" font-size="10.00">::SetUnique</text>
</a>
</g>
</g>
<!-- Node13&#45;&gt;Node17 -->
<g id="edge16" class="edge">
<title>Node13&#45;&gt;Node17</title>
<path fill="none" stroke="#63b8ff" d="M357.61,-316.65C340.33,-311.82 321.88,-306.66 305.18,-301.99"/>
<polygon fill="#63b8ff" stroke="#63b8ff" points="356.62,-320.29 367.19,-319.61 358.5,-313.55 356.62,-320.29"/>
</g>
<!-- Node19 -->
<g id="node19" class="node">
<title>Node19</title>
<g id="a_node19"><a xlink:href="classv8_1_1GlobalValueMap.html#a5c9f97a40e657b8b0b334d25559f0a4d" target="_top" xlink:title=" ">
<polygon fill="white" stroke="#666666" points="299,-252.5 196.75,-252.5 196.75,-222 299,-222 299,-252.5"/>
<text text-anchor="start" x="204.75" y="-239" font-family="Helvetica,sans-Serif" font-size="10.00">v8::GlobalValueMap</text>
<text text-anchor="middle" x="247.88" y="-227.75" font-family="Helvetica,sans-Serif" font-size="10.00">::SetUnique</text>
</a>
</g>
</g>
<!-- Node13&#45;&gt;Node19 -->
<g id="edge18" class="edge">
<title>Node13&#45;&gt;Node19</title>
<path fill="none" stroke="#63b8ff" d="M361.17,-314.69C358.86,-313.3 356.62,-311.82 354.5,-310.25 333.05,-294.41 339.95,-278.09 318.5,-262.25 312.71,-257.98 306.13,-254.38 299.37,-251.36"/>
<polygon fill="#63b8ff" stroke="#63b8ff" points="358.92,-317.99 369.39,-319.64 362.23,-311.83 358.92,-317.99"/>
</g>
<!-- Node15 -->
<g id="node15" class="node">
<title>Node15</title>
<g id="a_node15"><a xlink:href="classv8_1_1PersistentValueMapBase.html#a558a88d9caba29448265225a1d780c1d" target="_top" xlink:title=" ">
<polygon fill="white" stroke="#666666" points="141.25,-399.5 0,-399.5 0,-369 141.25,-369 141.25,-399.5"/>
<text text-anchor="start" x="8" y="-386" font-family="Helvetica,sans-Serif" font-size="10.00">v8::PersistentValueMapBase</text>
<text text-anchor="middle" x="70.62" y="-374.75" font-family="Helvetica,sans-Serif" font-size="10.00">::~PersistentValueMapBase</text>
</a>
</g>
</g>
<!-- Node14&#45;&gt;Node15 -->
<g id="edge14" class="edge">
<title>Node14&#45;&gt;Node15</title>
<path fill="none" stroke="#63b8ff" d="M166.13,-384.25C157.91,-384.25 149.62,-384.25 141.53,-384.25"/>
<polygon fill="#63b8ff" stroke="#63b8ff" points="165.86,-387.75 175.86,-384.25 165.86,-380.75 165.86,-387.75"/>
</g>
<!-- Node18 -->
<g id="node18" class="node">
<title>Node18</title>
<g id="a_node18"><a xlink:href="classv8_1_1PersistentValueMap.html#a8fa3188bf48c4f7eb75775fd8096473c" target="_top" xlink:title=" ">
<polygon fill="white" stroke="#666666" points="139.75,-295.88 1.5,-295.88 1.5,-276.62 139.75,-276.62 139.75,-295.88"/>
<text text-anchor="middle" x="70.62" y="-282.38" font-family="Helvetica,sans-Serif" font-size="10.00">v8::PersistentValueMap::Set</text>
</a>
</g>
</g>
<!-- Node17&#45;&gt;Node18 -->
<g id="edge17" class="edge">
<title>Node17&#45;&gt;Node18</title>
<path fill="none" stroke="#63b8ff" d="M177.38,-286.25C165.07,-286.25 152.28,-286.25 140.01,-286.25"/>
<polygon fill="#63b8ff" stroke="#63b8ff" points="177.03,-289.75 187.03,-286.25 177.03,-282.75 177.03,-289.75"/>
</g>
<!-- Node20 -->
<g id="node20" class="node">
<title>Node20</title>
<g id="a_node20"><a xlink:href="classv8_1_1GlobalValueMap.html#a0d7262ce372fa6d930028103b1dfbd0f" target="_top" xlink:title=" ">
<polygon fill="white" stroke="#666666" points="131.5,-246.88 9.75,-246.88 9.75,-227.62 131.5,-227.62 131.5,-246.88"/>
<text text-anchor="middle" x="70.62" y="-233.38" font-family="Helvetica,sans-Serif" font-size="10.00">v8::GlobalValueMap::Set</text>
</a>
</g>
</g>
<!-- Node19&#45;&gt;Node20 -->
<g id="edge19" class="edge">
<title>Node19&#45;&gt;Node20</title>
<path fill="none" stroke="#63b8ff" d="M185.96,-237.25C168.42,-237.25 149.29,-237.25 131.79,-237.25"/>
<polygon fill="#63b8ff" stroke="#63b8ff" points="185.66,-240.75 195.66,-237.25 185.66,-233.75 185.66,-240.75"/>
</g>
<!-- Node24&#45;&gt;Node22 -->
<g id="edge24" class="edge">
<title>Node24&#45;&gt;Node22</title>
<path fill="none" stroke="#63b8ff" d="M349.91,-167.76C337.31,-168.69 324.33,-169.65 312.05,-170.56"/>
<polygon fill="#63b8ff" stroke="#63b8ff" points="350.14,-171.17 359.86,-166.94 349.62,-164.19 350.14,-171.17"/>
</g>
<!-- Node27 -->
<g id="node27" class="node">
<title>Node27</title>
<g id="a_node27"><a xlink:href="classv8_1_1LocalBase.html#afa3765a9d9b97f9f2edc583639823e0b" target="_top" xlink:title=" ">
<polygon fill="white" stroke="#666666" points="299,-73.88 196.75,-73.88 196.75,-54.62 299,-54.62 299,-73.88"/>
<text text-anchor="middle" x="247.88" y="-60.38" font-family="Helvetica,sans-Serif" font-size="10.00">v8::LocalBase::New</text>
</a>
</g>
</g>
<!-- Node26&#45;&gt;Node27 -->
<g id="edge27" class="edge">
<title>Node26&#45;&gt;Node27</title>
<path fill="none" stroke="#63b8ff" d="M355.83,-64.25C337,-64.25 316.92,-64.25 299.31,-64.25"/>
<polygon fill="#63b8ff" stroke="#63b8ff" points="355.74,-67.75 365.74,-64.25 355.74,-60.75 355.74,-67.75"/>
</g>
<!-- Node28 -->
<g id="node28" class="node">
<title>Node28</title>
<g id="a_node28"><a xlink:href="classv8_1_1LocalBase.html#a31a9bd49b7938c5ee451b24a048a06fc" target="_top" xlink:title=" ">
<polygon fill="white" stroke="#666666" points="121.75,-73.88 19.5,-73.88 19.5,-54.62 121.75,-54.62 121.75,-73.88"/>
<text text-anchor="middle" x="70.62" y="-60.38" font-family="Helvetica,sans-Serif" font-size="10.00">v8::LocalBase::New</text>
</a>
</g>
</g>
<!-- Node27&#45;&gt;Node28 -->
<g id="edge28" class="edge">
<title>Node27&#45;&gt;Node28</title>
<path fill="none" stroke="#63b8ff" d="M185.7,-64.25C164.94,-64.25 141.99,-64.25 122.16,-64.25"/>
<polygon fill="#63b8ff" stroke="#63b8ff" points="185.66,-67.75 195.66,-64.25 185.66,-60.75 185.66,-67.75"/>
</g>
</g>
</svg>
