<?xml version="1.0" encoding="UTF-8" standalone="no"?>
<!DOCTYPE svg PUBLIC "-//W3C//DTD SVG 1.1//EN"
 "http://www.w3.org/Graphics/SVG/1.1/DTD/svg11.dtd">
<!-- Generated by graphviz version 8.0.5 (20230430.1635)
 -->
<!-- Title: v8::Platform::CallOnWorkerThread Pages: 1 -->
<svg width="303pt" height="88pt"
 viewBox="0.00 0.00 303.25 87.50" xmlns="http://www.w3.org/2000/svg" xmlns:xlink="http://www.w3.org/1999/xlink">
<g id="graph0" class="graph" transform="scale(1 1) rotate(0) translate(4 83.5)">
<title>v8::Platform::CallOnWorkerThread</title>
<!-- Node1 -->
<g id="node1" class="node">
<title>Node1</title>
<g id="a_node1"><a xlink:title=" ">
<polygon fill="#999999" stroke="#666666" points="132.25,-54.5 0,-54.5 0,-24 132.25,-24 132.25,-54.5"/>
<text text-anchor="start" x="8" y="-41" font-family="Helvetica,sans-Serif" font-size="10.00">v8::Platform::CallOnWorker</text>
<text text-anchor="middle" x="66.12" y="-29.75" font-family="Helvetica,sans-Serif" font-size="10.00">Thread</text>
</a>
</g>
</g>
<!-- Node2 -->
<g id="node2" class="node">
<title>Node2</title>
<g id="a_node2"><a xlink:href="classv8_1_1SourceLocation.html#aae8d4f3be838d1f855c7013b3a053d87" target="_top" xlink:title=" ">
<polygon fill="white" stroke="#666666" points="281.38,-79.5 182.12,-79.5 182.12,-49 281.38,-49 281.38,-79.5"/>
<text text-anchor="start" x="190.12" y="-66" font-family="Helvetica,sans-Serif" font-size="10.00">v8::SourceLocation</text>
<text text-anchor="middle" x="231.75" y="-54.75" font-family="Helvetica,sans-Serif" font-size="10.00">::Current</text>
</a>
</g>
</g>
<!-- Node1&#45;&gt;Node2 -->
<g id="edge1" class="edge">
<title>Node1&#45;&gt;Node2</title>
<path fill="none" stroke="#63b8ff" d="M132.73,-49.27C145.39,-51.21 158.58,-53.22 171.03,-55.13"/>
<polygon fill="#63b8ff" stroke="#63b8ff" points="170.34,-58.71 180.75,-56.76 171.4,-51.79 170.34,-58.71"/>
</g>
<!-- Node3 -->
<g id="node3" class="node">
<title>Node3</title>
<g id="a_node3"><a xlink:href="classv8_1_1Platform.html#ab4aedaa0f6d9258f1abab9b2ef53107e" target="_top" xlink:title=" ">
<polygon fill="white" stroke="#666666" points="295.25,-30.5 168.25,-30.5 168.25,0 295.25,0 295.25,-30.5"/>
<text text-anchor="start" x="176.25" y="-17" font-family="Helvetica,sans-Serif" font-size="10.00">v8::Platform::PostTaskOn</text>
<text text-anchor="middle" x="231.75" y="-5.75" font-family="Helvetica,sans-Serif" font-size="10.00">WorkerThreadImpl</text>
</a>
</g>
</g>
<!-- Node1&#45;&gt;Node3 -->
<g id="edge2" class="edge">
<title>Node1&#45;&gt;Node3</title>
<path fill="none" stroke="#63b8ff" d="M132.73,-29.63C140.77,-28.45 149.03,-27.24 157.17,-26.04"/>
<polygon fill="#63b8ff" stroke="#63b8ff" points="157.4,-29.4 166.78,-24.49 156.38,-22.47 157.4,-29.4"/>
</g>
</g>
</svg>
