<?xml version="1.0" encoding="UTF-8" standalone="no"?>
<!DOCTYPE svg PUBLIC "-//W3C//DTD SVG 1.1//EN"
 "http://www.w3.org/Graphics/SVG/1.1/DTD/svg11.dtd">
<!-- Generated by graphviz version 8.0.5 (20230430.1635)
 -->
<!-- Title: include/cppgc/default&#45;platform.h Pages: 1 -->
<svg width="853pt" height="326pt"
 viewBox="0.00 0.00 853.11 326.00" xmlns="http://www.w3.org/2000/svg" xmlns:xlink="http://www.w3.org/1999/xlink">
<g id="graph0" class="graph" transform="scale(1 1) rotate(0) translate(4 322)">
<title>include/cppgc/default&#45;platform.h</title>
<!-- Node1 -->
<g id="node1" class="node">
<title>Node1</title>
<g id="a_node1"><a xlink:title=" ">
<polygon fill="#999999" stroke="#666666" points="431.12,-318 322.88,-318 322.88,-287.5 431.12,-287.5 431.12,-318"/>
<text text-anchor="start" x="330.88" y="-304.5" font-family="Helvetica,sans-Serif" font-size="10.00">include/cppgc/default</text>
<text text-anchor="middle" x="377" y="-293.25" font-family="Helvetica,sans-Serif" font-size="10.00">&#45;platform.h</text>
</a>
</g>
</g>
<!-- Node2 -->
<g id="node2" class="node">
<title>Node2</title>
<g id="a_node2"><a xlink:title=" ">
<polygon fill="#e0e0e0" stroke="#999999" points="701.25,-74.5 650.75,-74.5 650.75,-55.25 701.25,-55.25 701.25,-74.5"/>
<text text-anchor="middle" x="676" y="-61" font-family="Helvetica,sans-Serif" font-size="10.00">memory</text>
</a>
</g>
</g>
<!-- Node1&#45;&gt;Node2 -->
<g id="edge1" class="edge">
<title>Node1&#45;&gt;Node2</title>
<path fill="none" stroke="#63b8ff" d="M431.62,-291.97C545.04,-270.33 798.92,-214.42 840,-141 868.46,-90.14 768.88,-73.53 712.37,-68.24"/>
<polygon fill="#63b8ff" stroke="#63b8ff" points="712.96,-64.7 702.7,-67.33 712.36,-71.67 712.96,-64.7"/>
</g>
<!-- Node3 -->
<g id="node3" class="node">
<title>Node3</title>
<g id="a_node3"><a xlink:href="platform_8h.html" target="_top" xlink:title=" ">
<polygon fill="white" stroke="#666666" points="331,-196.25 243,-196.25 243,-177 331,-177 331,-196.25"/>
<text text-anchor="middle" x="287" y="-182.75" font-family="Helvetica,sans-Serif" font-size="10.00">cppgc/platform.h</text>
</a>
</g>
</g>
<!-- Node1&#45;&gt;Node3 -->
<g id="edge2" class="edge">
<title>Node1&#45;&gt;Node3</title>
<path fill="none" stroke="#63b8ff" d="M365.6,-287.3C349.13,-266.41 318.7,-227.82 300.92,-205.28"/>
<polygon fill="#63b8ff" stroke="#63b8ff" points="303.1,-203.38 294.16,-197.7 297.6,-207.72 303.1,-203.38"/>
</g>
<!-- Node8 -->
<g id="node8" class="node">
<title>Node8</title>
<g id="a_node8"><a xlink:href="v8config_8h.html" target="_top" xlink:title=" ">
<polygon fill="white" stroke="#666666" points="105.75,-19.25 46.25,-19.25 46.25,0 105.75,0 105.75,-19.25"/>
<text text-anchor="middle" x="76" y="-5.75" font-family="Helvetica,sans-Serif" font-size="10.00">v8config.h</text>
</a>
</g>
</g>
<!-- Node1&#45;&gt;Node8 -->
<g id="edge32" class="edge">
<title>Node1&#45;&gt;Node8</title>
<path fill="none" stroke="#63b8ff" d="M322.58,-296.71C218.18,-285.54 0,-254.21 0,-187.62 0,-187.62 0,-187.62 0,-124.75 0,-84.19 33.67,-47.07 56.18,-26.77"/>
<polygon fill="#63b8ff" stroke="#63b8ff" points="58.19,-28.8 63.46,-19.61 53.61,-23.51 58.19,-28.8"/>
</g>
<!-- Node14 -->
<g id="node14" class="node">
<title>Node14</title>
<g id="a_node14"><a xlink:href="libplatform_8h.html" target="_top" xlink:title=" ">
<polygon fill="white" stroke="#666666" points="501.25,-251.5 384.75,-251.5 384.75,-232.25 501.25,-232.25 501.25,-251.5"/>
<text text-anchor="middle" x="443" y="-238" font-family="Helvetica,sans-Serif" font-size="10.00">libplatform/libplatform.h</text>
</a>
</g>
</g>
<!-- Node1&#45;&gt;Node14 -->
<g id="edge19" class="edge">
<title>Node1&#45;&gt;Node14</title>
<path fill="none" stroke="#63b8ff" d="M393.31,-287.2C402.88,-278.66 414.98,-267.87 424.85,-259.06"/>
<polygon fill="#63b8ff" stroke="#63b8ff" points="426.69,-262.22 431.83,-252.95 422.03,-257 426.69,-262.22"/>
</g>
<!-- Node3&#45;&gt;Node2 -->
<g id="edge3" class="edge">
<title>Node3&#45;&gt;Node2</title>
<path fill="none" stroke="#63b8ff" d="M296.21,-176.72C315.95,-157.73 361.25,-114.62 370,-110.5 417.25,-88.24 569.47,-74.04 639.78,-68.5"/>
<polygon fill="#63b8ff" stroke="#63b8ff" points="639.63,-71.95 649.33,-67.69 639.09,-64.97 639.63,-71.95"/>
</g>
<!-- Node4 -->
<g id="node4" class="node">
<title>Node4</title>
<g id="a_node4"><a xlink:href="source-location_8h.html" target="_top" xlink:title=" ">
<polygon fill="white" stroke="#666666" points="232.38,-135.38 113.62,-135.38 113.62,-116.12 232.38,-116.12 232.38,-135.38"/>
<text text-anchor="middle" x="173" y="-121.88" font-family="Helvetica,sans-Serif" font-size="10.00">cppgc/source&#45;location.h</text>
</a>
</g>
</g>
<!-- Node3&#45;&gt;Node4 -->
<g id="edge4" class="edge">
<title>Node3&#45;&gt;Node4</title>
<path fill="none" stroke="#63b8ff" d="M269.69,-176.68C251.19,-167.13 221.62,-151.86 200.05,-140.72"/>
<polygon fill="#63b8ff" stroke="#63b8ff" points="201.97,-137.25 191.48,-135.78 198.76,-143.47 201.97,-137.25"/>
</g>
<!-- Node3&#45;&gt;Node8 -->
<g id="edge18" class="edge">
<title>Node3&#45;&gt;Node8</title>
<path fill="none" stroke="#63b8ff" d="M242.76,-180.17C195.23,-173.41 123.94,-160.36 105,-141 75.9,-111.26 73.34,-59.16 74.42,-30.65"/>
<polygon fill="#63b8ff" stroke="#63b8ff" points="77.97,-30.88 75.06,-20.7 70.98,-30.47 77.97,-30.88"/>
</g>
<!-- Node9 -->
<g id="node9" class="node">
<title>Node9</title>
<g id="a_node9"><a xlink:href="v8-platform_8h.html" target="_top" xlink:title=" ">
<polygon fill="white" stroke="#666666" points="323.12,-135.38 250.88,-135.38 250.88,-116.12 323.12,-116.12 323.12,-135.38"/>
<text text-anchor="middle" x="287" y="-121.88" font-family="Helvetica,sans-Serif" font-size="10.00">v8&#45;platform.h</text>
</a>
</g>
</g>
<!-- Node3&#45;&gt;Node9 -->
<g id="edge9" class="edge">
<title>Node3&#45;&gt;Node9</title>
<path fill="none" stroke="#63b8ff" d="M287,-176.68C287,-168.73 287,-156.81 287,-146.62"/>
<polygon fill="#63b8ff" stroke="#63b8ff" points="290.5,-146.78 287,-136.78 283.5,-146.78 290.5,-146.78"/>
</g>
<!-- Node5 -->
<g id="node5" class="node">
<title>Node5</title>
<g id="a_node5"><a xlink:href="v8-source-location_8h.html" target="_top" xlink:title=" ">
<polygon fill="white" stroke="#666666" points="245.5,-74.5 142.5,-74.5 142.5,-55.25 245.5,-55.25 245.5,-74.5"/>
<text text-anchor="middle" x="194" y="-61" font-family="Helvetica,sans-Serif" font-size="10.00">v8&#45;source&#45;location.h</text>
</a>
</g>
</g>
<!-- Node4&#45;&gt;Node5 -->
<g id="edge5" class="edge">
<title>Node4&#45;&gt;Node5</title>
<path fill="none" stroke="#63b8ff" d="M176.19,-115.81C179.09,-107.68 183.46,-95.42 187.15,-85.08"/>
<polygon fill="#63b8ff" stroke="#63b8ff" points="190.72,-86.5 190.78,-75.9 184.12,-84.14 190.72,-86.5"/>
</g>
<!-- Node6 -->
<g id="node6" class="node">
<title>Node6</title>
<g id="a_node6"><a xlink:title=" ">
<polygon fill="#e0e0e0" stroke="#999999" points="218.12,-19.25 169.88,-19.25 169.88,0 218.12,0 218.12,-19.25"/>
<text text-anchor="middle" x="194" y="-5.75" font-family="Helvetica,sans-Serif" font-size="10.00">cstddef</text>
</a>
</g>
</g>
<!-- Node5&#45;&gt;Node6 -->
<g id="edge6" class="edge">
<title>Node5&#45;&gt;Node6</title>
<path fill="none" stroke="#63b8ff" d="M194,-55.08C194,-48.42 194,-38.99 194,-30.53"/>
<polygon fill="#63b8ff" stroke="#63b8ff" points="197.5,-30.61 194,-20.61 190.5,-30.61 197.5,-30.61"/>
</g>
<!-- Node7 -->
<g id="node7" class="node">
<title>Node7</title>
<g id="a_node7"><a xlink:title=" ">
<polygon fill="#e0e0e0" stroke="#999999" points="416,-19.25 376,-19.25 376,0 416,0 416,-19.25"/>
<text text-anchor="middle" x="396" y="-5.75" font-family="Helvetica,sans-Serif" font-size="10.00">string</text>
</a>
</g>
</g>
<!-- Node5&#45;&gt;Node7 -->
<g id="edge7" class="edge">
<title>Node5&#45;&gt;Node7</title>
<path fill="none" stroke="#63b8ff" d="M228.27,-54.84C266.62,-44.73 328.22,-28.49 365.13,-18.76"/>
<polygon fill="#63b8ff" stroke="#63b8ff" points="365.96,-21.9 374.74,-15.97 364.18,-15.13 365.96,-21.9"/>
</g>
<!-- Node5&#45;&gt;Node8 -->
<g id="edge8" class="edge">
<title>Node5&#45;&gt;Node8</title>
<path fill="none" stroke="#63b8ff" d="M173.98,-54.84C155.34,-46.43 127.28,-33.77 105.97,-24.15"/>
<polygon fill="#63b8ff" stroke="#63b8ff" points="107.67,-20.63 97.12,-19.7 104.79,-27.01 107.67,-20.63"/>
</g>
<!-- Node9&#45;&gt;Node2 -->
<g id="edge14" class="edge">
<title>Node9&#45;&gt;Node2</title>
<path fill="none" stroke="#63b8ff" d="M316.17,-115.66C322.96,-113.76 330.19,-111.91 337,-110.5 445.9,-87.94 576.96,-74.5 639.42,-68.92"/>
<polygon fill="#63b8ff" stroke="#63b8ff" points="639.61,-72.32 649.27,-67.96 639,-65.35 639.61,-72.32"/>
</g>
<!-- Node9&#45;&gt;Node5 -->
<g id="edge16" class="edge">
<title>Node9&#45;&gt;Node5</title>
<path fill="none" stroke="#63b8ff" d="M272.88,-115.81C258.13,-106.47 234.75,-91.67 217.27,-80.61"/>
<polygon fill="#63b8ff" stroke="#63b8ff" points="219.58,-77.29 209.26,-74.9 215.83,-83.21 219.58,-77.29"/>
</g>
<!-- Node9&#45;&gt;Node7 -->
<g id="edge15" class="edge">
<title>Node9&#45;&gt;Node7</title>
<path fill="none" stroke="#63b8ff" d="M317.3,-115.69C323.78,-113.88 330.6,-112.05 337,-110.5 416.29,-91.3 465.28,-137.59 517,-74.5 544.43,-41.04 471.57,-22.86 427.25,-15.15"/>
<polygon fill="#63b8ff" stroke="#63b8ff" points="427.85,-11.54 417.41,-13.37 426.71,-18.45 427.85,-11.54"/>
</g>
<!-- Node9&#45;&gt;Node8 -->
<g id="edge17" class="edge">
<title>Node9&#45;&gt;Node8</title>
<path fill="none" stroke="#63b8ff" d="M257.89,-115.68C214.77,-102.18 138.39,-78.02 133,-74.5 114.4,-62.35 98.08,-42.6 87.73,-28.28"/>
<polygon fill="#63b8ff" stroke="#63b8ff" points="90.14,-26.61 81.56,-20.39 84.39,-30.6 90.14,-26.61"/>
</g>
<!-- Node10 -->
<g id="node10" class="node">
<title>Node10</title>
<g id="a_node10"><a xlink:title=" ">
<polygon fill="#e0e0e0" stroke="#999999" points="373.62,-74.5 328.38,-74.5 328.38,-55.25 373.62,-55.25 373.62,-74.5"/>
<text text-anchor="middle" x="351" y="-61" font-family="Helvetica,sans-Serif" font-size="10.00">math.h</text>
</a>
</g>
</g>
<!-- Node9&#45;&gt;Node10 -->
<g id="edge10" class="edge">
<title>Node9&#45;&gt;Node10</title>
<path fill="none" stroke="#63b8ff" d="M296.72,-115.81C306.4,-106.9 321.48,-93.03 333.29,-82.17"/>
<polygon fill="#63b8ff" stroke="#63b8ff" points="335.2,-85.25 340.19,-75.9 330.46,-80.1 335.2,-85.25"/>
</g>
<!-- Node11 -->
<g id="node11" class="node">
<title>Node11</title>
<g id="a_node11"><a xlink:title=" ">
<polygon fill="#e0e0e0" stroke="#999999" points="442.25,-74.5 391.75,-74.5 391.75,-55.25 442.25,-55.25 442.25,-74.5"/>
<text text-anchor="middle" x="417" y="-61" font-family="Helvetica,sans-Serif" font-size="10.00">stddef.h</text>
</a>
</g>
</g>
<!-- Node9&#45;&gt;Node11 -->
<g id="edge11" class="edge">
<title>Node9&#45;&gt;Node11</title>
<path fill="none" stroke="#63b8ff" d="M307.03,-115.68C328.47,-105.97 362.71,-90.46 387.29,-79.33"/>
<polygon fill="#63b8ff" stroke="#63b8ff" points="388.5,-82.17 396.16,-74.86 385.61,-75.8 388.5,-82.17"/>
</g>
<!-- Node12 -->
<g id="node12" class="node">
<title>Node12</title>
<g id="a_node12"><a xlink:title=" ">
<polygon fill="#e0e0e0" stroke="#999999" points="507.75,-74.5 460.25,-74.5 460.25,-55.25 507.75,-55.25 507.75,-74.5"/>
<text text-anchor="middle" x="484" y="-61" font-family="Helvetica,sans-Serif" font-size="10.00">stdint.h</text>
</a>
</g>
</g>
<!-- Node9&#45;&gt;Node12 -->
<g id="edge12" class="edge">
<title>Node9&#45;&gt;Node12</title>
<path fill="none" stroke="#63b8ff" d="M317.35,-115.68C353.01,-105.02 412.04,-87.38 449.43,-76.21"/>
<polygon fill="#63b8ff" stroke="#63b8ff" points="450.25,-79.32 458.83,-73.1 448.24,-72.61 450.25,-79.32"/>
</g>
<!-- Node13 -->
<g id="node13" class="node">
<title>Node13</title>
<g id="a_node13"><a xlink:title=" ">
<polygon fill="#e0e0e0" stroke="#999999" points="310.38,-74.5 263.62,-74.5 263.62,-55.25 310.38,-55.25 310.38,-74.5"/>
<text text-anchor="middle" x="287" y="-61" font-family="Helvetica,sans-Serif" font-size="10.00">stdlib.h</text>
</a>
</g>
</g>
<!-- Node9&#45;&gt;Node13 -->
<g id="edge13" class="edge">
<title>Node9&#45;&gt;Node13</title>
<path fill="none" stroke="#63b8ff" d="M287,-115.81C287,-107.85 287,-95.94 287,-85.74"/>
<polygon fill="#63b8ff" stroke="#63b8ff" points="290.5,-85.9 287,-75.9 283.5,-85.9 290.5,-85.9"/>
</g>
<!-- Node14&#45;&gt;Node2 -->
<g id="edge20" class="edge">
<title>Node14&#45;&gt;Node2</title>
<path fill="none" stroke="#63b8ff" d="M501.53,-234.11C597.86,-221.63 783.08,-191.54 822,-141 853.9,-99.57 765.11,-78.94 712.22,-70.57"/>
<polygon fill="#63b8ff" stroke="#63b8ff" points="712.94,-66.99 702.53,-68.97 711.9,-73.91 712.94,-66.99"/>
</g>
<!-- Node14&#45;&gt;Node8 -->
<g id="edge31" class="edge">
<title>Node14&#45;&gt;Node8</title>
<path fill="none" stroke="#63b8ff" d="M384.57,-232.74C292.89,-218.71 121.67,-186.98 83,-141 56.7,-109.73 63.97,-57.86 70.57,-29.9"/>
<polygon fill="#63b8ff" stroke="#63b8ff" points="74.14,-31.07 73.26,-20.51 67.36,-29.32 74.14,-31.07"/>
</g>
<!-- Node14&#45;&gt;Node9 -->
<g id="edge30" class="edge">
<title>Node14&#45;&gt;Node9</title>
<path fill="none" stroke="#63b8ff" d="M430.76,-231.92C404.22,-212.5 341.1,-166.33 308.04,-142.14"/>
<polygon fill="#63b8ff" stroke="#63b8ff" points="310.32,-138.74 300.18,-135.66 306.19,-144.39 310.32,-138.74"/>
</g>
<!-- Node15 -->
<g id="node15" class="node">
<title>Node15</title>
<g id="a_node15"><a xlink:href="libplatform-export_8h.html" target="_top" xlink:title=" ">
<polygon fill="white" stroke="#666666" points="813.5,-141 704.5,-141 704.5,-110.5 813.5,-110.5 813.5,-141"/>
<text text-anchor="start" x="712.5" y="-127.5" font-family="Helvetica,sans-Serif" font-size="10.00">libplatform/libplatform</text>
<text text-anchor="middle" x="759" y="-116.25" font-family="Helvetica,sans-Serif" font-size="10.00">&#45;export.h</text>
</a>
</g>
</g>
<!-- Node14&#45;&gt;Node15 -->
<g id="edge21" class="edge">
<title>Node14&#45;&gt;Node15</title>
<path fill="none" stroke="#63b8ff" d="M470.21,-231.77C496.57,-222.9 537.62,-208.93 573,-196.25 619.87,-179.45 673.05,-159.49 710.51,-145.28"/>
<polygon fill="#63b8ff" stroke="#63b8ff" points="711.53,-148.25 719.64,-141.43 709.05,-141.71 711.53,-148.25"/>
</g>
<!-- Node16 -->
<g id="node16" class="node">
<title>Node16</title>
<g id="a_node16"><a xlink:href="v8-tracing_8h.html" target="_top" xlink:title=" ">
<polygon fill="white" stroke="#666666" points="564.12,-196.25 449.88,-196.25 449.88,-177 564.12,-177 564.12,-196.25"/>
<text text-anchor="middle" x="507" y="-182.75" font-family="Helvetica,sans-Serif" font-size="10.00">libplatform/v8&#45;tracing.h</text>
</a>
</g>
</g>
<!-- Node14&#45;&gt;Node16 -->
<g id="edge22" class="edge">
<title>Node14&#45;&gt;Node16</title>
<path fill="none" stroke="#63b8ff" d="M453.86,-231.84C463.2,-224.07 476.89,-212.67 488.04,-203.4"/>
<polygon fill="#63b8ff" stroke="#63b8ff" points="489.86,-205.61 495.3,-196.52 485.38,-200.23 489.86,-205.61"/>
</g>
<!-- Node16&#45;&gt;Node2 -->
<g id="edge25" class="edge">
<title>Node16&#45;&gt;Node2</title>
<path fill="none" stroke="#63b8ff" d="M564.55,-181.75C595.56,-176.71 632.22,-165.52 656,-141 670.36,-126.19 674.71,-102.27 675.87,-85.41"/>
<polygon fill="#63b8ff" stroke="#63b8ff" points="679.4,-85.73 676.26,-75.61 672.4,-85.48 679.4,-85.73"/>
</g>
<!-- Node16&#45;&gt;Node9 -->
<g id="edge29" class="edge">
<title>Node16&#45;&gt;Node9</title>
<path fill="none" stroke="#63b8ff" d="M473.11,-176.55C435.08,-166.38 373.24,-149.83 331.38,-138.63"/>
<polygon fill="#63b8ff" stroke="#63b8ff" points="332.5,-135.03 321.93,-135.83 330.69,-141.8 332.5,-135.03"/>
</g>
<!-- Node16&#45;&gt;Node15 -->
<g id="edge28" class="edge">
<title>Node16&#45;&gt;Node15</title>
<path fill="none" stroke="#63b8ff" d="M545.82,-176.55C585.14,-167.37 646.69,-152.99 693.56,-142.04"/>
<polygon fill="#63b8ff" stroke="#63b8ff" points="694.28,-145.23 703.23,-139.55 692.69,-138.41 694.28,-145.23"/>
</g>
<!-- Node17 -->
<g id="node17" class="node">
<title>Node17</title>
<g id="a_node17"><a xlink:title=" ">
<polygon fill="#e0e0e0" stroke="#999999" points="424.62,-135.38 379.38,-135.38 379.38,-116.12 424.62,-116.12 424.62,-135.38"/>
<text text-anchor="middle" x="402" y="-121.88" font-family="Helvetica,sans-Serif" font-size="10.00">atomic</text>
</a>
</g>
</g>
<!-- Node16&#45;&gt;Node17 -->
<g id="edge23" class="edge">
<title>Node16&#45;&gt;Node17</title>
<path fill="none" stroke="#63b8ff" d="M491.05,-176.68C474.17,-167.22 447.28,-152.14 427.45,-141.02"/>
<polygon fill="#63b8ff" stroke="#63b8ff" points="429.53,-137.61 419.1,-135.78 426.11,-143.72 429.53,-137.61"/>
</g>
<!-- Node18 -->
<g id="node18" class="node">
<title>Node18</title>
<g id="a_node18"><a xlink:title=" ">
<polygon fill="#e0e0e0" stroke="#999999" points="491.5,-135.38 442.5,-135.38 442.5,-116.12 491.5,-116.12 491.5,-135.38"/>
<text text-anchor="middle" x="467" y="-121.88" font-family="Helvetica,sans-Serif" font-size="10.00">fstream</text>
</a>
</g>
</g>
<!-- Node16&#45;&gt;Node18 -->
<g id="edge24" class="edge">
<title>Node16&#45;&gt;Node18</title>
<path fill="none" stroke="#63b8ff" d="M500.92,-176.68C495.17,-168.21 486.36,-155.24 479.16,-144.64"/>
<polygon fill="#63b8ff" stroke="#63b8ff" points="481.65,-143.08 473.13,-136.78 475.86,-147.01 481.65,-143.08"/>
</g>
<!-- Node19 -->
<g id="node19" class="node">
<title>Node19</title>
<g id="a_node19"><a xlink:title=" ">
<polygon fill="#e0e0e0" stroke="#999999" points="586.75,-135.38 509.25,-135.38 509.25,-116.12 586.75,-116.12 586.75,-135.38"/>
<text text-anchor="middle" x="548" y="-121.88" font-family="Helvetica,sans-Serif" font-size="10.00">unordered_set</text>
</a>
</g>
</g>
<!-- Node16&#45;&gt;Node19 -->
<g id="edge26" class="edge">
<title>Node16&#45;&gt;Node19</title>
<path fill="none" stroke="#63b8ff" d="M513.23,-176.68C519.13,-168.21 528.16,-155.24 535.54,-144.64"/>
<polygon fill="#63b8ff" stroke="#63b8ff" points="538.87,-146.98 541.71,-136.78 533.13,-142.98 538.87,-146.98"/>
</g>
<!-- Node20 -->
<g id="node20" class="node">
<title>Node20</title>
<g id="a_node20"><a xlink:title=" ">
<polygon fill="#e0e0e0" stroke="#999999" points="647.5,-135.38 604.5,-135.38 604.5,-116.12 647.5,-116.12 647.5,-135.38"/>
<text text-anchor="middle" x="626" y="-121.88" font-family="Helvetica,sans-Serif" font-size="10.00">vector</text>
</a>
</g>
</g>
<!-- Node16&#45;&gt;Node20 -->
<g id="edge27" class="edge">
<title>Node16&#45;&gt;Node20</title>
<path fill="none" stroke="#63b8ff" d="M525.33,-176.55C544.78,-166.93 575.74,-151.62 598.2,-140.51"/>
<polygon fill="#63b8ff" stroke="#63b8ff" points="599.43,-143.31 606.84,-135.73 596.33,-137.03 599.43,-143.31"/>
</g>
</g>
</svg>
