<?xml version="1.0" encoding="UTF-8" standalone="no"?>
<!DOCTYPE svg PUBLIC "-//W3C//DTD SVG 1.1//EN"
 "http://www.w3.org/Graphics/SVG/1.1/DTD/svg11.dtd">
<!-- Generated by graphviz version 8.0.5 (20230430.1635)
 -->
<!-- Title: include/v8&#45;internal.h Pages: 1 -->
<svg width="496pt" height="83pt"
 viewBox="0.00 0.00 496.00 82.50" xmlns="http://www.w3.org/2000/svg" xmlns:xlink="http://www.w3.org/1999/xlink">
<g id="graph0" class="graph" transform="scale(1 1) rotate(0) translate(4 78.5)">
<title>include/v8&#45;internal.h</title>
<!-- Node1 -->
<g id="node1" class="node">
<title>Node1</title>
<g id="a_node1"><a xlink:title=" ">
<polygon fill="#999999" stroke="#666666" points="273.38,-74.5 171.12,-74.5 171.12,-55.25 273.38,-55.25 273.38,-74.5"/>
<text text-anchor="middle" x="222.25" y="-61" font-family="Helvetica,sans-Serif" font-size="10.00">include/v8&#45;internal.h</text>
</a>
</g>
</g>
<!-- Node2 -->
<g id="node2" class="node">
<title>Node2</title>
<g id="a_node2"><a xlink:title=" ">
<polygon fill="#e0e0e0" stroke="#999999" points="50.5,-19.25 0,-19.25 0,0 50.5,0 50.5,-19.25"/>
<text text-anchor="middle" x="25.25" y="-5.75" font-family="Helvetica,sans-Serif" font-size="10.00">stddef.h</text>
</a>
</g>
</g>
<!-- Node1&#45;&gt;Node2 -->
<g id="edge1" class="edge">
<title>Node1&#45;&gt;Node2</title>
<path fill="none" stroke="#63b8ff" d="M188.83,-54.84C153.36,-45.25 97.51,-30.16 61.13,-20.32"/>
<polygon fill="#63b8ff" stroke="#63b8ff" points="62.53,-16.81 51.97,-17.58 60.71,-23.56 62.53,-16.81"/>
</g>
<!-- Node3 -->
<g id="node3" class="node">
<title>Node3</title>
<g id="a_node3"><a xlink:title=" ">
<polygon fill="#e0e0e0" stroke="#999999" points="116,-19.25 68.5,-19.25 68.5,0 116,0 116,-19.25"/>
<text text-anchor="middle" x="92.25" y="-5.75" font-family="Helvetica,sans-Serif" font-size="10.00">stdint.h</text>
</a>
</g>
</g>
<!-- Node1&#45;&gt;Node3 -->
<g id="edge2" class="edge">
<title>Node1&#45;&gt;Node3</title>
<path fill="none" stroke="#63b8ff" d="M200.2,-54.84C179.37,-46.31 147.91,-33.42 124.31,-23.76"/>
<polygon fill="#63b8ff" stroke="#63b8ff" points="125.99,-20.25 115.41,-19.7 123.34,-26.73 125.99,-20.25"/>
</g>
<!-- Node4 -->
<g id="node4" class="node">
<title>Node4</title>
<g id="a_node4"><a xlink:title=" ">
<polygon fill="#e0e0e0" stroke="#999999" points="182,-19.25 134.5,-19.25 134.5,0 182,0 182,-19.25"/>
<text text-anchor="middle" x="158.25" y="-5.75" font-family="Helvetica,sans-Serif" font-size="10.00">string.h</text>
</a>
</g>
</g>
<!-- Node1&#45;&gt;Node4 -->
<g id="edge3" class="edge">
<title>Node1&#45;&gt;Node4</title>
<path fill="none" stroke="#63b8ff" d="M211.39,-54.84C202.05,-47.07 188.36,-35.67 177.21,-26.4"/>
<polygon fill="#63b8ff" stroke="#63b8ff" points="179.87,-23.23 169.95,-19.52 175.39,-28.61 179.87,-23.23"/>
</g>
<!-- Node5 -->
<g id="node5" class="node">
<title>Node5</title>
<g id="a_node5"><a xlink:title=" ">
<polygon fill="#e0e0e0" stroke="#999999" points="244.88,-19.25 199.62,-19.25 199.62,0 244.88,0 244.88,-19.25"/>
<text text-anchor="middle" x="222.25" y="-5.75" font-family="Helvetica,sans-Serif" font-size="10.00">atomic</text>
</a>
</g>
</g>
<!-- Node1&#45;&gt;Node5 -->
<g id="edge4" class="edge">
<title>Node1&#45;&gt;Node5</title>
<path fill="none" stroke="#63b8ff" d="M222.25,-55.08C222.25,-48.42 222.25,-38.99 222.25,-30.53"/>
<polygon fill="#63b8ff" stroke="#63b8ff" points="225.75,-30.61 222.25,-20.61 218.75,-30.61 225.75,-30.61"/>
</g>
<!-- Node6 -->
<g id="node6" class="node">
<title>Node6</title>
<g id="a_node6"><a xlink:title=" ">
<polygon fill="#e0e0e0" stroke="#999999" points="323.75,-19.25 262.75,-19.25 262.75,0 323.75,0 323.75,-19.25"/>
<text text-anchor="middle" x="293.25" y="-5.75" font-family="Helvetica,sans-Serif" font-size="10.00">type_traits</text>
</a>
</g>
</g>
<!-- Node1&#45;&gt;Node6 -->
<g id="edge5" class="edge">
<title>Node1&#45;&gt;Node6</title>
<path fill="none" stroke="#63b8ff" d="M234.29,-54.84C244.76,-46.99 260.15,-35.45 272.58,-26.12"/>
<polygon fill="#63b8ff" stroke="#63b8ff" points="274.48,-28.32 280.38,-19.52 270.28,-22.72 274.48,-28.32"/>
</g>
<!-- Node7 -->
<g id="node7" class="node">
<title>Node7</title>
<g id="a_node7"><a xlink:href="v8-version_8h.html" target="_top" xlink:title=" ">
<polygon fill="white" stroke="#666666" points="410.5,-19.25 342,-19.25 342,0 410.5,0 410.5,-19.25"/>
<text text-anchor="middle" x="376.25" y="-5.75" font-family="Helvetica,sans-Serif" font-size="10.00">v8&#45;version.h</text>
</a>
</g>
</g>
<!-- Node1&#45;&gt;Node7 -->
<g id="edge6" class="edge">
<title>Node1&#45;&gt;Node7</title>
<path fill="none" stroke="#63b8ff" d="M248.37,-54.84C273.48,-46.16 311.66,-32.96 339.77,-23.24"/>
<polygon fill="#63b8ff" stroke="#63b8ff" points="340.69,-26.28 349,-19.7 338.4,-19.66 340.69,-26.28"/>
</g>
<!-- Node8 -->
<g id="node8" class="node">
<title>Node8</title>
<g id="a_node8"><a xlink:href="v8config_8h.html" target="_top" xlink:title=" ">
<polygon fill="white" stroke="#666666" points="488,-19.25 428.5,-19.25 428.5,0 488,0 488,-19.25"/>
<text text-anchor="middle" x="458.25" y="-5.75" font-family="Helvetica,sans-Serif" font-size="10.00">v8config.h</text>
</a>
</g>
</g>
<!-- Node1&#45;&gt;Node8 -->
<g id="edge7" class="edge">
<title>Node1&#45;&gt;Node8</title>
<path fill="none" stroke="#63b8ff" d="M262.55,-54.78C305.88,-45.01 374.36,-29.55 417.76,-19.76"/>
<polygon fill="#63b8ff" stroke="#63b8ff" points="418.24,-23.01 427.23,-17.4 416.7,-16.19 418.24,-23.01"/>
</g>
</g>
</svg>
