<?xml version="1.0" encoding="UTF-8" standalone="no"?>
<!DOCTYPE svg PUBLIC "-//W3C//DTD SVG 1.1//EN"
 "http://www.w3.org/Graphics/SVG/1.1/DTD/svg11.dtd">
<!-- Generated by graphviz version 8.0.5 (20230430.1635)
 -->
<!-- Title: include/v8&#45;json.h Pages: 1 -->
<svg width="496pt" height="248pt"
 viewBox="0.00 0.00 496.00 248.25" xmlns="http://www.w3.org/2000/svg" xmlns:xlink="http://www.w3.org/1999/xlink">
<g id="graph0" class="graph" transform="scale(1 1) rotate(0) translate(4 244.25)">
<title>include/v8&#45;json.h</title>
<!-- Node1 -->
<g id="node1" class="node">
<title>Node1</title>
<g id="a_node1"><a xlink:title=" ">
<polygon fill="#999999" stroke="#666666" points="223.62,-240.25 134.88,-240.25 134.88,-221 223.62,-221 223.62,-240.25"/>
<text text-anchor="middle" x="179.25" y="-226.75" font-family="Helvetica,sans-Serif" font-size="10.00">include/v8&#45;json.h</text>
</a>
</g>
</g>
<!-- Node2 -->
<g id="node2" class="node">
<title>Node2</title>
<g id="a_node2"><a xlink:href="v8-local-handle_8h.html" target="_top" xlink:title=" ">
<polygon fill="white" stroke="#666666" points="187.62,-185 98.88,-185 98.88,-165.75 187.62,-165.75 187.62,-185"/>
<text text-anchor="middle" x="143.25" y="-171.5" font-family="Helvetica,sans-Serif" font-size="10.00">v8&#45;local&#45;handle.h</text>
</a>
</g>
</g>
<!-- Node1&#45;&gt;Node2 -->
<g id="edge1" class="edge">
<title>Node1&#45;&gt;Node2</title>
<path fill="none" stroke="#63b8ff" d="M173.31,-220.83C168.44,-213.63 161.39,-203.21 155.34,-194.26"/>
<polygon fill="#63b8ff" stroke="#63b8ff" points="157.82,-192.68 149.32,-186.36 152.03,-196.6 157.82,-192.68"/>
</g>
<!-- Node11 -->
<g id="node11" class="node">
<title>Node11</title>
<g id="a_node11"><a xlink:href="v8config_8h.html" target="_top" xlink:title=" ">
<polygon fill="white" stroke="#666666" points="488,-19.25 428.5,-19.25 428.5,0 488,0 488,-19.25"/>
<text text-anchor="middle" x="458.25" y="-5.75" font-family="Helvetica,sans-Serif" font-size="10.00">v8config.h</text>
</a>
</g>
</g>
<!-- Node1&#45;&gt;Node11 -->
<g id="edge13" class="edge">
<title>Node1&#45;&gt;Node11</title>
<path fill="none" stroke="#63b8ff" d="M190.53,-220.77C233.03,-187.41 383.81,-69.06 438.36,-26.23"/>
<polygon fill="#63b8ff" stroke="#63b8ff" points="440.12,-28.52 445.83,-19.59 435.8,-23.01 440.12,-28.52"/>
</g>
<!-- Node3 -->
<g id="node3" class="node">
<title>Node3</title>
<g id="a_node3"><a xlink:title=" ">
<polygon fill="#e0e0e0" stroke="#999999" points="50.5,-19.25 0,-19.25 0,0 50.5,0 50.5,-19.25"/>
<text text-anchor="middle" x="25.25" y="-5.75" font-family="Helvetica,sans-Serif" font-size="10.00">stddef.h</text>
</a>
</g>
</g>
<!-- Node2&#45;&gt;Node3 -->
<g id="edge2" class="edge">
<title>Node2&#45;&gt;Node3</title>
<path fill="none" stroke="#63b8ff" d="M136.91,-165.57C118.18,-139.58 62.88,-62.84 37.83,-28.09"/>
<polygon fill="#63b8ff" stroke="#63b8ff" points="40.31,-26.54 31.63,-20.47 34.63,-30.63 40.31,-26.54"/>
</g>
<!-- Node4 -->
<g id="node4" class="node">
<title>Node4</title>
<g id="a_node4"><a xlink:title=" ">
<polygon fill="#e0e0e0" stroke="#999999" points="129.75,-19.25 68.75,-19.25 68.75,0 129.75,0 129.75,-19.25"/>
<text text-anchor="middle" x="99.25" y="-5.75" font-family="Helvetica,sans-Serif" font-size="10.00">type_traits</text>
</a>
</g>
</g>
<!-- Node2&#45;&gt;Node4 -->
<g id="edge3" class="edge">
<title>Node2&#45;&gt;Node4</title>
<path fill="none" stroke="#63b8ff" d="M139.07,-165.31C135.08,-156.41 129.14,-142.36 125.25,-129.75 114.68,-95.47 106.71,-54.38 102.53,-30.51"/>
<polygon fill="#63b8ff" stroke="#63b8ff" points="105.82,-30 100.7,-20.73 98.92,-31.17 105.82,-30"/>
</g>
<!-- Node5 -->
<g id="node5" class="node">
<title>Node5</title>
<g id="a_node5"><a xlink:href="v8-handle-base_8h.html" target="_top" xlink:title=" ">
<polygon fill="white" stroke="#666666" points="224,-129.75 134.5,-129.75 134.5,-110.5 224,-110.5 224,-129.75"/>
<text text-anchor="middle" x="179.25" y="-116.25" font-family="Helvetica,sans-Serif" font-size="10.00">v8&#45;handle&#45;base.h</text>
</a>
</g>
</g>
<!-- Node2&#45;&gt;Node5 -->
<g id="edge4" class="edge">
<title>Node2&#45;&gt;Node5</title>
<path fill="none" stroke="#63b8ff" d="M149.19,-165.58C154.06,-158.38 161.11,-147.96 167.16,-139.01"/>
<polygon fill="#63b8ff" stroke="#63b8ff" points="170.47,-141.35 173.18,-131.11 164.68,-137.43 170.47,-141.35"/>
</g>
<!-- Node6 -->
<g id="node6" class="node">
<title>Node6</title>
<g id="a_node6"><a xlink:href="v8-internal_8h.html" target="_top" xlink:title=" ">
<polygon fill="white" stroke="#666666" points="254.5,-74.5 186,-74.5 186,-55.25 254.5,-55.25 254.5,-74.5"/>
<text text-anchor="middle" x="220.25" y="-61" font-family="Helvetica,sans-Serif" font-size="10.00">v8&#45;internal.h</text>
</a>
</g>
</g>
<!-- Node5&#45;&gt;Node6 -->
<g id="edge5" class="edge">
<title>Node5&#45;&gt;Node6</title>
<path fill="none" stroke="#63b8ff" d="M186.02,-110.33C191.62,-103.05 199.76,-92.48 206.7,-83.48"/>
<polygon fill="#63b8ff" stroke="#63b8ff" points="210.01,-85.92 213.33,-75.86 204.46,-81.65 210.01,-85.92"/>
</g>
<!-- Node6&#45;&gt;Node3 -->
<g id="edge6" class="edge">
<title>Node6&#45;&gt;Node3</title>
<path fill="none" stroke="#63b8ff" d="M187.17,-54.84C152.21,-45.3 97.26,-30.29 61.23,-20.45"/>
<polygon fill="#63b8ff" stroke="#63b8ff" points="62.28,-16.83 51.71,-17.58 60.43,-23.59 62.28,-16.83"/>
</g>
<!-- Node6&#45;&gt;Node4 -->
<g id="edge10" class="edge">
<title>Node6&#45;&gt;Node4</title>
<path fill="none" stroke="#63b8ff" d="M199.72,-54.84C180.52,-46.39 151.58,-33.65 129.68,-24.02"/>
<polygon fill="#63b8ff" stroke="#63b8ff" points="131.44,-20.53 120.88,-19.7 128.62,-26.93 131.44,-20.53"/>
</g>
<!-- Node7 -->
<g id="node7" class="node">
<title>Node7</title>
<g id="a_node7"><a xlink:title=" ">
<polygon fill="#e0e0e0" stroke="#999999" points="282,-19.25 234.5,-19.25 234.5,0 282,0 282,-19.25"/>
<text text-anchor="middle" x="258.25" y="-5.75" font-family="Helvetica,sans-Serif" font-size="10.00">stdint.h</text>
</a>
</g>
</g>
<!-- Node6&#45;&gt;Node7 -->
<g id="edge7" class="edge">
<title>Node6&#45;&gt;Node7</title>
<path fill="none" stroke="#63b8ff" d="M226.52,-55.08C231.66,-47.88 239.1,-37.46 245.49,-28.51"/>
<polygon fill="#63b8ff" stroke="#63b8ff" points="248.88,-30.78 251.84,-20.61 243.18,-26.72 248.88,-30.78"/>
</g>
<!-- Node8 -->
<g id="node8" class="node">
<title>Node8</title>
<g id="a_node8"><a xlink:title=" ">
<polygon fill="#e0e0e0" stroke="#999999" points="348,-19.25 300.5,-19.25 300.5,0 348,0 348,-19.25"/>
<text text-anchor="middle" x="324.25" y="-5.75" font-family="Helvetica,sans-Serif" font-size="10.00">string.h</text>
</a>
</g>
</g>
<!-- Node6&#45;&gt;Node8 -->
<g id="edge8" class="edge">
<title>Node6&#45;&gt;Node8</title>
<path fill="none" stroke="#63b8ff" d="M237.89,-54.84C254.03,-46.58 278.15,-34.23 296.81,-24.68"/>
<polygon fill="#63b8ff" stroke="#63b8ff" points="298.22,-27.38 305.52,-19.7 295.03,-21.14 298.22,-27.38"/>
</g>
<!-- Node9 -->
<g id="node9" class="node">
<title>Node9</title>
<g id="a_node9"><a xlink:title=" ">
<polygon fill="#e0e0e0" stroke="#999999" points="410.88,-19.25 365.62,-19.25 365.62,0 410.88,0 410.88,-19.25"/>
<text text-anchor="middle" x="388.25" y="-5.75" font-family="Helvetica,sans-Serif" font-size="10.00">atomic</text>
</a>
</g>
</g>
<!-- Node6&#45;&gt;Node9 -->
<g id="edge9" class="edge">
<title>Node6&#45;&gt;Node9</title>
<path fill="none" stroke="#63b8ff" d="M248.75,-54.84C278.14,-45.53 323.95,-31.01 354.98,-21.17"/>
<polygon fill="#63b8ff" stroke="#63b8ff" points="355.82,-24.26 364.29,-17.9 353.7,-17.59 355.82,-24.26"/>
</g>
<!-- Node10 -->
<g id="node10" class="node">
<title>Node10</title>
<g id="a_node10"><a xlink:href="v8-version_8h.html" target="_top" xlink:title=" ">
<polygon fill="white" stroke="#666666" points="216.5,-19.25 148,-19.25 148,0 216.5,0 216.5,-19.25"/>
<text text-anchor="middle" x="182.25" y="-5.75" font-family="Helvetica,sans-Serif" font-size="10.00">v8&#45;version.h</text>
</a>
</g>
</g>
<!-- Node6&#45;&gt;Node10 -->
<g id="edge11" class="edge">
<title>Node6&#45;&gt;Node10</title>
<path fill="none" stroke="#63b8ff" d="M213.98,-55.08C208.84,-47.88 201.4,-37.46 195.01,-28.51"/>
<polygon fill="#63b8ff" stroke="#63b8ff" points="197.32,-26.72 188.66,-20.61 191.62,-30.78 197.32,-26.72"/>
</g>
<!-- Node6&#45;&gt;Node11 -->
<g id="edge12" class="edge">
<title>Node6&#45;&gt;Node11</title>
<path fill="none" stroke="#63b8ff" d="M254.94,-56.17C292.73,-47.78 355.25,-33.86 417.92,-19.77"/>
<polygon fill="#63b8ff" stroke="#63b8ff" points="418.39,-23.02 427.38,-17.42 416.86,-16.2 418.39,-23.02"/>
</g>
</g>
</svg>
