<?xml version="1.0" encoding="UTF-8" standalone="no"?>
<!DOCTYPE svg PUBLIC "-//W3C//DTD SVG 1.1//EN"
 "http://www.w3.org/Graphics/SVG/1.1/DTD/svg11.dtd">
<!-- Generated by graphviz version 8.0.5 (20230430.1635)
 -->
<!-- Title: include/v8&#45;promise.h Pages: 1 -->
<svg width="472pt" height="370pt"
 viewBox="0.00 0.00 472.05 370.00" xmlns="http://www.w3.org/2000/svg" xmlns:xlink="http://www.w3.org/1999/xlink">
<g id="graph0" class="graph" transform="scale(1 1) rotate(0) translate(4 366)">
<title>include/v8&#45;promise.h</title>
<!-- Node1 -->
<g id="node1" class="node">
<title>Node1</title>
<g id="a_node1"><a xlink:title=" ">
<polygon fill="#999999" stroke="#666666" points="271.62,-362 166.38,-362 166.38,-342.75 271.62,-342.75 271.62,-362"/>
<text text-anchor="middle" x="219" y="-348.5" font-family="Helvetica,sans-Serif" font-size="10.00">include/v8&#45;promise.h</text>
</a>
</g>
</g>
<!-- Node2 -->
<g id="node2" class="node">
<title>Node2</title>
<g id="a_node2"><a xlink:href="v8-callbacks_8h.html" target="_top" xlink:title=" ">
<polygon fill="white" stroke="#666666" points="275,-306.75 163,-306.75 163,-287.5 275,-287.5 275,-306.75"/>
<text text-anchor="middle" x="219" y="-293.25" font-family="Helvetica,sans-Serif" font-size="10.00">include/v8&#45;callbacks.h</text>
</a>
</g>
</g>
<!-- Node1&#45;&gt;Node2 -->
<g id="edge1" class="edge">
<title>Node1&#45;&gt;Node2</title>
<path fill="none" stroke="#63b8ff" d="M219,-331.71C219,-323.27 219,-313.83 219,-307.11"/>
<polygon fill="#63b8ff" stroke="#63b8ff" points="215.5,-331.58 219,-341.58 222.5,-331.58 215.5,-331.58"/>
</g>
<!-- Node4 -->
<g id="node4" class="node">
<title>Node4</title>
<g id="a_node4"><a xlink:href="v8_8h.html" target="_top" xlink:title=" ">
<polygon fill="white" stroke="#666666" points="208.88,-24.88 141.12,-24.88 141.12,-5.63 208.88,-5.63 208.88,-24.88"/>
<text text-anchor="middle" x="175" y="-11.38" font-family="Helvetica,sans-Serif" font-size="10.00">include/v8.h</text>
</a>
</g>
</g>
<!-- Node1&#45;&gt;Node4 -->
<g id="edge17" class="edge">
<title>Node1&#45;&gt;Node4</title>
<path fill="none" stroke="#63b8ff" d="M155.45,-346.5C90.78,-337.67 0,-312.81 0,-242.88 0,-242.88 0,-242.88 0,-130.38 0,-63.82 89.91,-34.04 140.84,-22.51"/>
<polygon fill="#63b8ff" stroke="#63b8ff" points="154.63,-350.05 164.99,-347.84 155.5,-343.11 154.63,-350.05"/>
</g>
<!-- Node10 -->
<g id="node10" class="node">
<title>Node10</title>
<g id="a_node10"><a xlink:href="v8-statistics_8h.html" target="_top" xlink:title=" ">
<polygon fill="white" stroke="#666666" points="395.25,-196.25 284.75,-196.25 284.75,-177 395.25,-177 395.25,-196.25"/>
<text text-anchor="middle" x="340" y="-182.75" font-family="Helvetica,sans-Serif" font-size="10.00">include/v8&#45;statistics.h</text>
</a>
</g>
</g>
<!-- Node1&#45;&gt;Node10 -->
<g id="edge14" class="edge">
<title>Node1&#45;&gt;Node10</title>
<path fill="none" stroke="#63b8ff" d="M246.46,-337.02C259.13,-329.35 273.62,-318.97 284,-306.75 313.89,-271.57 331.48,-217.74 337.57,-196.59"/>
<polygon fill="#63b8ff" stroke="#63b8ff" points="245.15,-334.31 238.23,-342.33 248.64,-340.37 245.15,-334.31"/>
</g>
<!-- Node3 -->
<g id="node3" class="node">
<title>Node3</title>
<g id="a_node3"><a xlink:href="v8-initialization_8h.html" target="_top" xlink:title=" ">
<polygon fill="white" stroke="#666666" points="279.5,-85.75 158.5,-85.75 158.5,-66.5 279.5,-66.5 279.5,-85.75"/>
<text text-anchor="middle" x="219" y="-72.25" font-family="Helvetica,sans-Serif" font-size="10.00">include/v8&#45;initialization.h</text>
</a>
</g>
</g>
<!-- Node2&#45;&gt;Node3 -->
<g id="edge2" class="edge">
<title>Node2&#45;&gt;Node3</title>
<path fill="none" stroke="#63b8ff" d="M219,-276.45C219,-230.59 219,-118.04 219,-85.85"/>
<polygon fill="#63b8ff" stroke="#63b8ff" points="215.5,-276.27 219,-286.27 222.5,-276.27 215.5,-276.27"/>
</g>
<!-- Node5 -->
<g id="node5" class="node">
<title>Node5</title>
<g id="a_node5"><a xlink:href="v8-isolate_8h.html" target="_top" xlink:title=" ">
<polygon fill="white" stroke="#666666" points="352.62,-141 253.38,-141 253.38,-121.75 352.62,-121.75 352.62,-141"/>
<text text-anchor="middle" x="303" y="-127.5" font-family="Helvetica,sans-Serif" font-size="10.00">include/v8&#45;isolate.h</text>
</a>
</g>
</g>
<!-- Node2&#45;&gt;Node5 -->
<g id="edge4" class="edge">
<title>Node2&#45;&gt;Node5</title>
<path fill="none" stroke="#63b8ff" d="M227.37,-277.19C238.02,-253.44 257.28,-211.66 276,-177 282.8,-164.41 291.49,-150.36 297.15,-141.45"/>
<polygon fill="#63b8ff" stroke="#63b8ff" points="223.87,-275.45 222.99,-286.01 230.26,-278.3 223.87,-275.45"/>
</g>
<!-- Node8 -->
<g id="node8" class="node">
<title>Node8</title>
<g id="a_node8"><a xlink:href="v8-script_8h.html" target="_top" xlink:title=" ">
<polygon fill="white" stroke="#666666" points="191.38,-251.5 96.62,-251.5 96.62,-232.25 191.38,-232.25 191.38,-251.5"/>
<text text-anchor="middle" x="144" y="-238" font-family="Helvetica,sans-Serif" font-size="10.00">include/v8&#45;script.h</text>
</a>
</g>
</g>
<!-- Node2&#45;&gt;Node8 -->
<g id="edge9" class="edge">
<title>Node2&#45;&gt;Node8</title>
<path fill="none" stroke="#63b8ff" d="M197.39,-280.78C184.24,-271.45 167.9,-259.85 156.79,-251.95"/>
<polygon fill="#63b8ff" stroke="#63b8ff" points="195.1,-284.16 205.28,-287.09 199.15,-278.45 195.1,-284.16"/>
</g>
<!-- Node3&#45;&gt;Node4 -->
<g id="edge3" class="edge">
<title>Node3&#45;&gt;Node4</title>
<path fill="none" stroke="#63b8ff" d="M205.95,-57.66C198,-47.02 188.16,-33.86 181.75,-25.28"/>
<polygon fill="#63b8ff" stroke="#63b8ff" points="203.53,-59.27 212.32,-65.18 209.13,-55.08 203.53,-59.27"/>
</g>
<!-- Node5&#45;&gt;Node3 -->
<g id="edge5" class="edge">
<title>Node5&#45;&gt;Node3</title>
<path fill="none" stroke="#63b8ff" d="M279.65,-115.57C264.79,-106.15 246.01,-94.25 233.32,-86.2"/>
<polygon fill="#63b8ff" stroke="#63b8ff" points="277.43,-118.94 287.75,-121.34 281.18,-113.03 277.43,-118.94"/>
</g>
<!-- Node5&#45;&gt;Node4 -->
<g id="edge8" class="edge">
<title>Node5&#45;&gt;Node4</title>
<path fill="none" stroke="#63b8ff" d="M302.83,-110.71C301.74,-96.93 298.23,-78.85 288,-66.5 268.15,-42.52 234.53,-29.58 209.11,-22.87"/>
<polygon fill="#63b8ff" stroke="#63b8ff" points="299.37,-110.61 303.28,-120.45 306.36,-110.32 299.37,-110.61"/>
</g>
<!-- Node6 -->
<g id="node6" class="node">
<title>Node6</title>
<g id="a_node6"><a xlink:href="v8-inspector_8h.html" target="_top" xlink:title=" ">
<polygon fill="white" stroke="#666666" points="446.25,-85.75 335.75,-85.75 335.75,-66.5 446.25,-66.5 446.25,-85.75"/>
<text text-anchor="middle" x="391" y="-72.25" font-family="Helvetica,sans-Serif" font-size="10.00">include/v8&#45;inspector.h</text>
</a>
</g>
</g>
<!-- Node5&#45;&gt;Node6 -->
<g id="edge6" class="edge">
<title>Node5&#45;&gt;Node6</title>
<path fill="none" stroke="#63b8ff" d="M327.02,-115.84C342.66,-106.38 362.57,-94.33 376,-86.2"/>
<polygon fill="#63b8ff" stroke="#63b8ff" points="325.67,-113.17 318.93,-121.34 329.3,-119.16 325.67,-113.17"/>
</g>
<!-- Node7 -->
<g id="node7" class="node">
<title>Node7</title>
<g id="a_node7"><a xlink:href="v8-inspector-protocol_8h.html" target="_top" xlink:title=" ">
<polygon fill="white" stroke="#666666" points="442.5,-30.5 339.5,-30.5 339.5,0 442.5,0 442.5,-30.5"/>
<text text-anchor="start" x="347.5" y="-17" font-family="Helvetica,sans-Serif" font-size="10.00">include/v8&#45;inspector</text>
<text text-anchor="middle" x="391" y="-5.75" font-family="Helvetica,sans-Serif" font-size="10.00">&#45;protocol.h</text>
</a>
</g>
</g>
<!-- Node6&#45;&gt;Node7 -->
<g id="edge7" class="edge">
<title>Node6&#45;&gt;Node7</title>
<path fill="none" stroke="#63b8ff" d="M391,-55.2C391,-47.2 391,-38.15 391,-30.78"/>
<polygon fill="#63b8ff" stroke="#63b8ff" points="387.5,-55.18 391,-65.18 394.5,-55.18 387.5,-55.18"/>
</g>
<!-- Node8&#45;&gt;Node4 -->
<g id="edge13" class="edge">
<title>Node8&#45;&gt;Node4</title>
<path fill="none" stroke="#63b8ff" d="M141.76,-221.24C138.66,-188.53 134.88,-121.1 149,-66.5 152.98,-51.09 162.34,-35.06 168.67,-25.37"/>
<polygon fill="#63b8ff" stroke="#63b8ff" points="138.37,-221.39 142.88,-230.97 145.33,-220.66 138.37,-221.39"/>
</g>
<!-- Node9 -->
<g id="node9" class="node">
<title>Node9</title>
<g id="a_node9"><a xlink:href="v8-debug_8h.html" target="_top" xlink:title=" ">
<polygon fill="white" stroke="#666666" points="125.5,-196.25 28.5,-196.25 28.5,-177 125.5,-177 125.5,-196.25"/>
<text text-anchor="middle" x="77" y="-182.75" font-family="Helvetica,sans-Serif" font-size="10.00">include/v8&#45;debug.h</text>
</a>
</g>
</g>
<!-- Node8&#45;&gt;Node9 -->
<g id="edge10" class="edge">
<title>Node8&#45;&gt;Node9</title>
<path fill="none" stroke="#63b8ff" d="M124.3,-225.22C112.54,-215.87 98.02,-204.33 88.2,-196.52"/>
<polygon fill="#63b8ff" stroke="#63b8ff" points="121.63,-228.36 131.63,-231.84 125.98,-222.88 121.63,-228.36"/>
</g>
<!-- Node9&#45;&gt;Node4 -->
<g id="edge12" class="edge">
<title>Node9&#45;&gt;Node4</title>
<path fill="none" stroke="#63b8ff" d="M80.05,-165.92C84.62,-141.04 95.06,-97.72 116,-66.5 127.69,-49.07 147.04,-34.22 160.38,-25.28"/>
<polygon fill="#63b8ff" stroke="#63b8ff" points="76.47,-165.08 78.25,-175.52 83.37,-166.25 76.47,-165.08"/>
</g>
<!-- Node9&#45;&gt;Node5 -->
<g id="edge11" class="edge">
<title>Node9&#45;&gt;Node5</title>
<path fill="none" stroke="#63b8ff" d="M126.29,-174.01C167.83,-164.22 226.43,-150.42 264.57,-141.43"/>
<polygon fill="#63b8ff" stroke="#63b8ff" points="125.52,-170.83 116.59,-176.53 127.13,-177.64 125.52,-170.83"/>
</g>
<!-- Node10&#45;&gt;Node4 -->
<g id="edge16" class="edge">
<title>Node10&#45;&gt;Node4</title>
<path fill="none" stroke="#63b8ff" d="M370.79,-172.01C415.3,-150.49 488.79,-106.9 455,-66.5 439.31,-47.75 280.39,-27.94 209.19,-19.93"/>
<polygon fill="#63b8ff" stroke="#63b8ff" points="369.54,-169.2 361.98,-176.63 372.52,-175.54 369.54,-169.2"/>
</g>
<!-- Node10&#45;&gt;Node5 -->
<g id="edge15" class="edge">
<title>Node10&#45;&gt;Node5</title>
<path fill="none" stroke="#63b8ff" d="M327.74,-167.97C321.54,-159.06 314.29,-148.62 309.24,-141.36"/>
<polygon fill="#63b8ff" stroke="#63b8ff" points="325.31,-169.62 333.89,-175.83 331.06,-165.62 325.31,-169.62"/>
</g>
</g>
</svg>
