<?xml version="1.0" encoding="UTF-8" standalone="no"?>
<!DOCTYPE svg PUBLIC "-//W3C//DTD SVG 1.1//EN"
 "http://www.w3.org/Graphics/SVG/1.1/DTD/svg11.dtd">
<!-- Generated by graphviz version 8.0.5 (20230430.1635)
 -->
<!-- Title: include/v8&#45;value&#45;serializer.h Pages: 1 -->
<svg width="547pt" height="248pt"
 viewBox="0.00 0.00 546.50 248.25" xmlns="http://www.w3.org/2000/svg" xmlns:xlink="http://www.w3.org/1999/xlink">
<g id="graph0" class="graph" transform="scale(1 1) rotate(0) translate(4 244.25)">
<title>include/v8&#45;value&#45;serializer.h</title>
<!-- Node1 -->
<g id="node1" class="node">
<title>Node1</title>
<g id="a_node1"><a xlink:title=" ">
<polygon fill="#999999" stroke="#666666" points="418.88,-240.25 283.62,-240.25 283.62,-221 418.88,-221 418.88,-240.25"/>
<text text-anchor="middle" x="351.25" y="-226.75" font-family="Helvetica,sans-Serif" font-size="10.00">include/v8&#45;value&#45;serializer.h</text>
</a>
</g>
</g>
<!-- Node2 -->
<g id="node2" class="node">
<title>Node2</title>
<g id="a_node2"><a xlink:title=" ">
<polygon fill="#e0e0e0" stroke="#999999" points="50.5,-19.25 0,-19.25 0,0 50.5,0 50.5,-19.25"/>
<text text-anchor="middle" x="25.25" y="-5.75" font-family="Helvetica,sans-Serif" font-size="10.00">stddef.h</text>
</a>
</g>
</g>
<!-- Node1&#45;&gt;Node2 -->
<g id="edge1" class="edge">
<title>Node1&#45;&gt;Node2</title>
<path fill="none" stroke="#63b8ff" d="M283.18,-222.99C247.7,-217.1 204.84,-205.98 171.25,-185 106.03,-144.26 55.54,-64.57 35.12,-28.79"/>
<polygon fill="#63b8ff" stroke="#63b8ff" points="37.89,-27.58 29.96,-20.55 31.78,-30.99 37.89,-27.58"/>
</g>
<!-- Node3 -->
<g id="node3" class="node">
<title>Node3</title>
<g id="a_node3"><a xlink:title=" ">
<polygon fill="#e0e0e0" stroke="#999999" points="116,-19.25 68.5,-19.25 68.5,0 116,0 116,-19.25"/>
<text text-anchor="middle" x="92.25" y="-5.75" font-family="Helvetica,sans-Serif" font-size="10.00">stdint.h</text>
</a>
</g>
</g>
<!-- Node1&#45;&gt;Node3 -->
<g id="edge2" class="edge">
<title>Node1&#45;&gt;Node3</title>
<path fill="none" stroke="#63b8ff" d="M283.18,-221.63C253.78,-215.44 220.44,-204.46 195.25,-185 141.53,-143.48 110.25,-65.38 98.12,-29.51"/>
<polygon fill="#63b8ff" stroke="#63b8ff" points="101.27,-28.88 94.85,-20.45 94.61,-31.04 101.27,-28.88"/>
</g>
<!-- Node4 -->
<g id="node4" class="node">
<title>Node4</title>
<g id="a_node4"><a xlink:title=" ">
<polygon fill="#e0e0e0" stroke="#999999" points="538.5,-185 488,-185 488,-165.75 538.5,-165.75 538.5,-185"/>
<text text-anchor="middle" x="513.25" y="-171.5" font-family="Helvetica,sans-Serif" font-size="10.00">memory</text>
</a>
</g>
</g>
<!-- Node1&#45;&gt;Node4 -->
<g id="edge3" class="edge">
<title>Node1&#45;&gt;Node4</title>
<path fill="none" stroke="#63b8ff" d="M378.73,-220.59C405.83,-211.69 447.38,-198.03 477.13,-188.25"/>
<polygon fill="#63b8ff" stroke="#63b8ff" points="478.1,-191.28 486.51,-184.84 475.92,-184.63 478.1,-191.28"/>
</g>
<!-- Node5 -->
<g id="node5" class="node">
<title>Node5</title>
<g id="a_node5"><a xlink:title=" ">
<polygon fill="#e0e0e0" stroke="#999999" points="432.5,-74.5 394,-74.5 394,-55.25 432.5,-55.25 432.5,-74.5"/>
<text text-anchor="middle" x="413.25" y="-61" font-family="Helvetica,sans-Serif" font-size="10.00">utility</text>
</a>
</g>
</g>
<!-- Node1&#45;&gt;Node5 -->
<g id="edge4" class="edge">
<title>Node1&#45;&gt;Node5</title>
<path fill="none" stroke="#63b8ff" d="M355.36,-220.65C363.24,-203.3 380.78,-163.84 393.25,-129.75 398.69,-114.88 404.01,-97.74 407.79,-84.96"/>
<polygon fill="#63b8ff" stroke="#63b8ff" points="411.36,-86.22 410.79,-75.64 404.64,-84.27 411.36,-86.22"/>
</g>
<!-- Node6 -->
<g id="node6" class="node">
<title>Node6</title>
<g id="a_node6"><a xlink:href="v8-local-handle_8h.html" target="_top" xlink:title=" ">
<polygon fill="white" stroke="#666666" points="292.62,-185 203.88,-185 203.88,-165.75 292.62,-165.75 292.62,-185"/>
<text text-anchor="middle" x="248.25" y="-171.5" font-family="Helvetica,sans-Serif" font-size="10.00">v8&#45;local&#45;handle.h</text>
</a>
</g>
</g>
<!-- Node1&#45;&gt;Node6 -->
<g id="edge5" class="edge">
<title>Node1&#45;&gt;Node6</title>
<path fill="none" stroke="#63b8ff" d="M333.78,-220.59C317.8,-212.33 293.9,-199.98 275.43,-190.43"/>
<polygon fill="#63b8ff" stroke="#63b8ff" points="277.3,-186.94 266.81,-185.45 274.08,-193.15 277.3,-186.94"/>
</g>
<!-- Node13 -->
<g id="node13" class="node">
<title>Node13</title>
<g id="a_node13"><a xlink:href="v8config_8h.html" target="_top" xlink:title=" ">
<polygon fill="white" stroke="#666666" points="487,-19.25 427.5,-19.25 427.5,0 487,0 487,-19.25"/>
<text text-anchor="middle" x="457.25" y="-5.75" font-family="Helvetica,sans-Serif" font-size="10.00">v8config.h</text>
</a>
</g>
</g>
<!-- Node1&#45;&gt;Node13 -->
<g id="edge22" class="edge">
<title>Node1&#45;&gt;Node13</title>
<path fill="none" stroke="#63b8ff" d="M359.9,-220.57C367.89,-211.9 379.78,-198.22 388.25,-185 417.63,-139.14 422.76,-125.73 441.25,-74.5 446.54,-59.85 450.73,-42.69 453.5,-29.85"/>
<polygon fill="#63b8ff" stroke="#63b8ff" points="457.04,-30.97 455.62,-20.47 450.19,-29.56 457.04,-30.97"/>
</g>
<!-- Node14 -->
<g id="node14" class="node">
<title>Node14</title>
<g id="a_node14"><a xlink:href="v8-maybe_8h.html" target="_top" xlink:title=" ">
<polygon fill="white" stroke="#666666" points="384,-129.75 318.5,-129.75 318.5,-110.5 384,-110.5 384,-129.75"/>
<text text-anchor="middle" x="351.25" y="-116.25" font-family="Helvetica,sans-Serif" font-size="10.00">v8&#45;maybe.h</text>
</a>
</g>
</g>
<!-- Node1&#45;&gt;Node14 -->
<g id="edge17" class="edge">
<title>Node1&#45;&gt;Node14</title>
<path fill="none" stroke="#63b8ff" d="M351.25,-220.75C351.25,-203.42 351.25,-164.73 351.25,-140.99"/>
<polygon fill="#63b8ff" stroke="#63b8ff" points="354.75,-141.13 351.25,-131.13 347.75,-141.13 354.75,-141.13"/>
</g>
<!-- Node6&#45;&gt;Node2 -->
<g id="edge6" class="edge">
<title>Node6&#45;&gt;Node2</title>
<path fill="none" stroke="#63b8ff" d="M227.93,-165.32C210.23,-157.07 184.19,-144.01 163.25,-129.75 115.98,-97.56 66.69,-51.46 41.78,-27.13"/>
<polygon fill="#63b8ff" stroke="#63b8ff" points="44.6,-25.02 35.03,-20.49 39.69,-30 44.6,-25.02"/>
</g>
<!-- Node7 -->
<g id="node7" class="node">
<title>Node7</title>
<g id="a_node7"><a xlink:title=" ">
<polygon fill="#e0e0e0" stroke="#999999" points="409.75,-19.25 348.75,-19.25 348.75,0 409.75,0 409.75,-19.25"/>
<text text-anchor="middle" x="379.25" y="-5.75" font-family="Helvetica,sans-Serif" font-size="10.00">type_traits</text>
</a>
</g>
</g>
<!-- Node6&#45;&gt;Node7 -->
<g id="edge7" class="edge">
<title>Node6&#45;&gt;Node7</title>
<path fill="none" stroke="#63b8ff" d="M255.29,-165.57C276.17,-139.47 338,-62.19 365.64,-27.64"/>
<polygon fill="#63b8ff" stroke="#63b8ff" points="368.66,-30.47 372.17,-20.47 363.19,-26.09 368.66,-30.47"/>
</g>
<!-- Node8 -->
<g id="node8" class="node">
<title>Node8</title>
<g id="a_node8"><a xlink:href="v8-handle-base_8h.html" target="_top" xlink:title=" ">
<polygon fill="white" stroke="#666666" points="262,-129.75 172.5,-129.75 172.5,-110.5 262,-110.5 262,-129.75"/>
<text text-anchor="middle" x="217.25" y="-116.25" font-family="Helvetica,sans-Serif" font-size="10.00">v8&#45;handle&#45;base.h</text>
</a>
</g>
</g>
<!-- Node6&#45;&gt;Node8 -->
<g id="edge8" class="edge">
<title>Node6&#45;&gt;Node8</title>
<path fill="none" stroke="#63b8ff" d="M243.13,-165.58C239.03,-158.53 233.13,-148.4 228,-139.58"/>
<polygon fill="#63b8ff" stroke="#63b8ff" points="230.54,-137.99 222.48,-131.11 224.49,-141.51 230.54,-137.99"/>
</g>
<!-- Node9 -->
<g id="node9" class="node">
<title>Node9</title>
<g id="a_node9"><a xlink:href="v8-internal_8h.html" target="_top" xlink:title=" ">
<polygon fill="white" stroke="#666666" points="262.5,-74.5 194,-74.5 194,-55.25 262.5,-55.25 262.5,-74.5"/>
<text text-anchor="middle" x="228.25" y="-61" font-family="Helvetica,sans-Serif" font-size="10.00">v8&#45;internal.h</text>
</a>
</g>
</g>
<!-- Node8&#45;&gt;Node9 -->
<g id="edge9" class="edge">
<title>Node8&#45;&gt;Node9</title>
<path fill="none" stroke="#63b8ff" d="M219.07,-110.33C220.46,-103.59 222.44,-94.02 224.2,-85.49"/>
<polygon fill="#63b8ff" stroke="#63b8ff" points="227.8,-86.36 226.39,-75.86 220.94,-84.94 227.8,-86.36"/>
</g>
<!-- Node9&#45;&gt;Node2 -->
<g id="edge10" class="edge">
<title>Node9&#45;&gt;Node2</title>
<path fill="none" stroke="#63b8ff" d="M193.81,-54.84C156.96,-45.17 98.74,-29.9 61.28,-20.08"/>
<polygon fill="#63b8ff" stroke="#63b8ff" points="62.4,-16.49 51.83,-17.34 60.62,-23.26 62.4,-16.49"/>
</g>
<!-- Node9&#45;&gt;Node3 -->
<g id="edge11" class="edge">
<title>Node9&#45;&gt;Node3</title>
<path fill="none" stroke="#63b8ff" d="M205.18,-54.84C183.3,-46.27 150.18,-33.31 125.46,-23.63"/>
<polygon fill="#63b8ff" stroke="#63b8ff" points="127.02,-20.09 116.43,-19.7 124.47,-26.61 127.02,-20.09"/>
</g>
<!-- Node9&#45;&gt;Node7 -->
<g id="edge14" class="edge">
<title>Node9&#45;&gt;Node7</title>
<path fill="none" stroke="#63b8ff" d="M253.87,-54.84C278.49,-46.16 315.92,-32.96 343.48,-23.24"/>
<polygon fill="#63b8ff" stroke="#63b8ff" points="344.24,-26.33 352.51,-19.7 341.91,-19.73 344.24,-26.33"/>
</g>
<!-- Node10 -->
<g id="node10" class="node">
<title>Node10</title>
<g id="a_node10"><a xlink:title=" ">
<polygon fill="#e0e0e0" stroke="#999999" points="331,-19.25 283.5,-19.25 283.5,0 331,0 331,-19.25"/>
<text text-anchor="middle" x="307.25" y="-5.75" font-family="Helvetica,sans-Serif" font-size="10.00">string.h</text>
</a>
</g>
</g>
<!-- Node9&#45;&gt;Node10 -->
<g id="edge12" class="edge">
<title>Node9&#45;&gt;Node10</title>
<path fill="none" stroke="#63b8ff" d="M241.65,-54.84C253.45,-46.89 270.89,-35.14 284.81,-25.75"/>
<polygon fill="#63b8ff" stroke="#63b8ff" points="286.45,-28.19 292.78,-19.7 282.53,-22.39 286.45,-28.19"/>
</g>
<!-- Node11 -->
<g id="node11" class="node">
<title>Node11</title>
<g id="a_node11"><a xlink:title=" ">
<polygon fill="#e0e0e0" stroke="#999999" points="178.88,-19.25 133.62,-19.25 133.62,0 178.88,0 178.88,-19.25"/>
<text text-anchor="middle" x="156.25" y="-5.75" font-family="Helvetica,sans-Serif" font-size="10.00">atomic</text>
</a>
</g>
</g>
<!-- Node9&#45;&gt;Node11 -->
<g id="edge13" class="edge">
<title>Node9&#45;&gt;Node11</title>
<path fill="none" stroke="#63b8ff" d="M216.04,-54.84C205.32,-46.91 189.51,-35.22 176.84,-25.85"/>
<polygon fill="#63b8ff" stroke="#63b8ff" points="179.4,-22.66 169.28,-19.52 175.24,-28.29 179.4,-22.66"/>
</g>
<!-- Node12 -->
<g id="node12" class="node">
<title>Node12</title>
<g id="a_node12"><a xlink:href="v8-version_8h.html" target="_top" xlink:title=" ">
<polygon fill="white" stroke="#666666" points="265.5,-19.25 197,-19.25 197,0 265.5,0 265.5,-19.25"/>
<text text-anchor="middle" x="231.25" y="-5.75" font-family="Helvetica,sans-Serif" font-size="10.00">v8&#45;version.h</text>
</a>
</g>
</g>
<!-- Node9&#45;&gt;Node12 -->
<g id="edge15" class="edge">
<title>Node9&#45;&gt;Node12</title>
<path fill="none" stroke="#63b8ff" d="M228.75,-55.08C229.12,-48.42 229.65,-38.99 230.13,-30.53"/>
<polygon fill="#63b8ff" stroke="#63b8ff" points="233.68,-30.79 230.74,-20.61 226.69,-30.4 233.68,-30.79"/>
</g>
<!-- Node9&#45;&gt;Node13 -->
<g id="edge16" class="edge">
<title>Node9&#45;&gt;Node13</title>
<path fill="none" stroke="#63b8ff" d="M262.53,-55.9C303.71,-46.33 372.71,-30.28 416.55,-20.09"/>
<polygon fill="#63b8ff" stroke="#63b8ff" points="417.18,-23.3 426.12,-17.63 415.59,-16.49 417.18,-23.3"/>
</g>
<!-- Node14&#45;&gt;Node5 -->
<g id="edge19" class="edge">
<title>Node14&#45;&gt;Node5</title>
<path fill="none" stroke="#63b8ff" d="M361.77,-110.09C370.73,-102.4 383.82,-91.15 394.56,-81.93"/>
<polygon fill="#63b8ff" stroke="#63b8ff" points="396.58,-83.95 401.89,-74.77 392.02,-78.64 396.58,-83.95"/>
</g>
<!-- Node14&#45;&gt;Node7 -->
<g id="edge18" class="edge">
<title>Node14&#45;&gt;Node7</title>
<path fill="none" stroke="#63b8ff" d="M349.95,-110.23C348.44,-97.69 346.8,-74.22 352.25,-55.25 354.99,-45.7 360.34,-36.15 365.56,-28.34"/>
<polygon fill="#63b8ff" stroke="#63b8ff" points="368.91,-30.68 371.9,-20.52 363.22,-26.6 368.91,-30.68"/>
</g>
<!-- Node14&#45;&gt;Node9 -->
<g id="edge20" class="edge">
<title>Node14&#45;&gt;Node9</title>
<path fill="none" stroke="#63b8ff" d="M330.38,-110.09C310.86,-101.64 281.44,-88.9 259.19,-79.27"/>
<polygon fill="#63b8ff" stroke="#63b8ff" points="260.79,-75.71 250.22,-74.95 258,-82.14 260.79,-75.71"/>
</g>
<!-- Node14&#45;&gt;Node13 -->
<g id="edge21" class="edge">
<title>Node14&#45;&gt;Node13</title>
<path fill="none" stroke="#63b8ff" d="M354.21,-110.38C359.03,-97.18 369.62,-71.94 385.25,-55.25 396.98,-42.72 412.97,-32.35 426.91,-24.76"/>
<polygon fill="#63b8ff" stroke="#63b8ff" points="428.33,-27.45 435.6,-19.74 425.11,-21.23 428.33,-27.45"/>
</g>
</g>
</svg>
