<?xml version="1.0" encoding="UTF-8" standalone="no"?>
<!DOCTYPE svg PUBLIC "-//W3C//DTD SVG 1.1//EN"
 "http://www.w3.org/Graphics/SVG/1.1/DTD/svg11.dtd">
<!-- Generated by graphviz version 8.0.5 (20230430.1635)
 -->
<!-- Title: include/v8&#45;wasm.h Pages: 1 -->
<svg width="1205pt" height="469pt"
 viewBox="0.00 0.00 1205.25 469.25" xmlns="http://www.w3.org/2000/svg" xmlns:xlink="http://www.w3.org/1999/xlink">
<g id="graph0" class="graph" transform="scale(1 1) rotate(0) translate(4 465.25)">
<title>include/v8&#45;wasm.h</title>
<!-- Node1 -->
<g id="node1" class="node">
<title>Node1</title>
<g id="a_node1"><a xlink:title=" ">
<polygon fill="#999999" stroke="#666666" points="692.75,-461.25 595.75,-461.25 595.75,-442 692.75,-442 692.75,-461.25"/>
<text text-anchor="middle" x="644.25" y="-447.75" font-family="Helvetica,sans-Serif" font-size="10.00">include/v8&#45;wasm.h</text>
</a>
</g>
</g>
<!-- Node2 -->
<g id="node2" class="node">
<title>Node2</title>
<g id="a_node2"><a xlink:title=" ">
<polygon fill="#e0e0e0" stroke="#999999" points="188.25,-406 130.25,-406 130.25,-386.75 188.25,-386.75 188.25,-406"/>
<text text-anchor="middle" x="159.25" y="-392.5" font-family="Helvetica,sans-Serif" font-size="10.00">functional</text>
</a>
</g>
</g>
<!-- Node1&#45;&gt;Node2 -->
<g id="edge1" class="edge">
<title>Node1&#45;&gt;Node2</title>
<path fill="none" stroke="#63b8ff" d="M595.33,-447.25C513.61,-441.26 344.3,-427.37 202.25,-406 201.12,-405.83 199.98,-405.65 198.82,-405.46"/>
<polygon fill="#63b8ff" stroke="#63b8ff" points="199.78,-401.9 189.33,-403.61 198.56,-408.79 199.78,-401.9"/>
</g>
<!-- Node3 -->
<g id="node3" class="node">
<title>Node3</title>
<g id="a_node3"><a xlink:title=" ">
<polygon fill="#e0e0e0" stroke="#999999" points="50.5,-185 0,-185 0,-165.75 50.5,-165.75 50.5,-185"/>
<text text-anchor="middle" x="25.25" y="-171.5" font-family="Helvetica,sans-Serif" font-size="10.00">memory</text>
</a>
</g>
</g>
<!-- Node1&#45;&gt;Node3 -->
<g id="edge2" class="edge">
<title>Node1&#45;&gt;Node3</title>
<path fill="none" stroke="#63b8ff" d="M595.57,-448.54C483.39,-442.4 216.25,-419.64 216.25,-342.12 216.25,-342.12 216.25,-342.12 216.25,-284.88 216.25,-214.41 116.75,-189.14 61.38,-180.53"/>
<polygon fill="#63b8ff" stroke="#63b8ff" points="62.01,-176.94 51.61,-178.98 61.01,-183.87 62.01,-176.94"/>
</g>
<!-- Node4 -->
<g id="node4" class="node">
<title>Node4</title>
<g id="a_node4"><a xlink:title=" ">
<polygon fill="#e0e0e0" stroke="#999999" points="1197.25,-406 1157.25,-406 1157.25,-386.75 1197.25,-386.75 1197.25,-406"/>
<text text-anchor="middle" x="1177.25" y="-392.5" font-family="Helvetica,sans-Serif" font-size="10.00">string</text>
</a>
</g>
</g>
<!-- Node1&#45;&gt;Node4 -->
<g id="edge3" class="edge">
<title>Node1&#45;&gt;Node4</title>
<path fill="none" stroke="#63b8ff" d="M693.1,-448.84C782.83,-444.99 979.7,-433.88 1143.25,-406 1144.22,-405.83 1145.21,-405.66 1146.2,-405.46"/>
<polygon fill="#63b8ff" stroke="#63b8ff" points="1146.86,-408.68 1155.87,-403.11 1145.35,-401.85 1146.86,-408.68"/>
</g>
<!-- Node5 -->
<g id="node5" class="node">
<title>Node5</title>
<g id="a_node5"><a xlink:href="v8-local-handle_8h.html" target="_top" xlink:title=" ">
<polygon fill="white" stroke="#666666" points="503.62,-185 414.88,-185 414.88,-165.75 503.62,-165.75 503.62,-185"/>
<text text-anchor="middle" x="459.25" y="-171.5" font-family="Helvetica,sans-Serif" font-size="10.00">v8&#45;local&#45;handle.h</text>
</a>
</g>
</g>
<!-- Node1&#45;&gt;Node5 -->
<g id="edge4" class="edge">
<title>Node1&#45;&gt;Node5</title>
<path fill="none" stroke="#63b8ff" d="M597.13,-441.55C520.48,-425.43 377.25,-389.03 377.25,-342.12 377.25,-342.12 377.25,-342.12 377.25,-284.88 377.25,-245.1 412.77,-210.68 437.05,-191.8"/>
<polygon fill="#63b8ff" stroke="#63b8ff" points="438.78,-194.13 444.71,-185.35 434.6,-188.52 438.78,-194.13"/>
</g>
<!-- Node14 -->
<g id="node14" class="node">
<title>Node14</title>
<g id="a_node14"><a xlink:href="v8config_8h.html" target="_top" xlink:title=" ">
<polygon fill="white" stroke="#666666" points="931,-19.25 871.5,-19.25 871.5,0 931,0 931,-19.25"/>
<text text-anchor="middle" x="901.25" y="-5.75" font-family="Helvetica,sans-Serif" font-size="10.00">v8config.h</text>
</a>
</g>
</g>
<!-- Node1&#45;&gt;Node14 -->
<g id="edge59" class="edge">
<title>Node1&#45;&gt;Node14</title>
<path fill="none" stroke="#63b8ff" d="M692.97,-449.98C815.96,-447.06 1129.25,-430.89 1129.25,-342.12 1129.25,-342.12 1129.25,-342.12 1129.25,-119.12 1129.25,-37.07 1007.37,-17 941.83,-12.14"/>
<polygon fill="#63b8ff" stroke="#63b8ff" points="942.26,-8.6 932.06,-11.44 941.81,-15.58 942.26,-8.6"/>
</g>
<!-- Node15 -->
<g id="node15" class="node">
<title>Node15</title>
<g id="a_node15"><a xlink:href="v8-memory-span_8h.html" target="_top" xlink:title=" ">
<polygon fill="white" stroke="#666666" points="813,-74.5 717.5,-74.5 717.5,-55.25 813,-55.25 813,-74.5"/>
<text text-anchor="middle" x="765.25" y="-61" font-family="Helvetica,sans-Serif" font-size="10.00">v8&#45;memory&#45;span.h</text>
</a>
</g>
</g>
<!-- Node1&#45;&gt;Node15 -->
<g id="edge16" class="edge">
<title>Node1&#45;&gt;Node15</title>
<path fill="none" stroke="#63b8ff" d="M693.03,-445.04C785.52,-433.08 977.25,-401.18 977.25,-342.12 977.25,-342.12 977.25,-342.12 977.25,-229.62 977.25,-145.44 871.24,-98.43 809.15,-78.12"/>
<polygon fill="#63b8ff" stroke="#63b8ff" points="810.43,-74.54 799.84,-74.86 808.32,-81.21 810.43,-74.54"/>
</g>
<!-- Node16 -->
<g id="node16" class="node">
<title>Node16</title>
<g id="a_node16"><a xlink:href="v8-object_8h.html" target="_top" xlink:title=" ">
<polygon fill="white" stroke="#666666" points="675.88,-406 612.62,-406 612.62,-386.75 675.88,-386.75 675.88,-406"/>
<text text-anchor="middle" x="644.25" y="-392.5" font-family="Helvetica,sans-Serif" font-size="10.00">v8&#45;object.h</text>
</a>
</g>
</g>
<!-- Node1&#45;&gt;Node16 -->
<g id="edge19" class="edge">
<title>Node1&#45;&gt;Node16</title>
<path fill="none" stroke="#63b8ff" d="M644.25,-441.83C644.25,-435.17 644.25,-425.74 644.25,-417.28"/>
<polygon fill="#63b8ff" stroke="#63b8ff" points="647.75,-417.36 644.25,-407.36 640.75,-417.36 647.75,-417.36"/>
</g>
<!-- Node6 -->
<g id="node6" class="node">
<title>Node6</title>
<g id="a_node6"><a xlink:title=" ">
<polygon fill="#e0e0e0" stroke="#999999" points="448.5,-19.25 398,-19.25 398,0 448.5,0 448.5,-19.25"/>
<text text-anchor="middle" x="423.25" y="-5.75" font-family="Helvetica,sans-Serif" font-size="10.00">stddef.h</text>
</a>
</g>
</g>
<!-- Node5&#45;&gt;Node6 -->
<g id="edge5" class="edge">
<title>Node5&#45;&gt;Node6</title>
<path fill="none" stroke="#63b8ff" d="M456.97,-165.51C454.68,-156.52 451.09,-142.2 448.25,-129.75 440.29,-94.84 431.91,-53.95 427.16,-30.29"/>
<polygon fill="#63b8ff" stroke="#63b8ff" points="430.42,-29.73 425.03,-20.61 423.55,-31.11 430.42,-29.73"/>
</g>
<!-- Node7 -->
<g id="node7" class="node">
<title>Node7</title>
<g id="a_node7"><a xlink:title=" ">
<polygon fill="#e0e0e0" stroke="#999999" points="378.75,-19.25 317.75,-19.25 317.75,0 378.75,0 378.75,-19.25"/>
<text text-anchor="middle" x="348.25" y="-5.75" font-family="Helvetica,sans-Serif" font-size="10.00">type_traits</text>
</a>
</g>
</g>
<!-- Node5&#45;&gt;Node7 -->
<g id="edge6" class="edge">
<title>Node5&#45;&gt;Node7</title>
<path fill="none" stroke="#63b8ff" d="M436.22,-165.35C418.7,-157.71 394.71,-145.48 377.25,-129.75 355.11,-109.8 348.09,-102.96 339.25,-74.5 334.72,-59.93 337.57,-42.77 341.22,-29.9"/>
<polygon fill="#63b8ff" stroke="#63b8ff" points="344.84,-31.09 344.61,-20.5 338.18,-28.92 344.84,-31.09"/>
</g>
<!-- Node8 -->
<g id="node8" class="node">
<title>Node8</title>
<g id="a_node8"><a xlink:href="v8-handle-base_8h.html" target="_top" xlink:title=" ">
<polygon fill="white" stroke="#666666" points="547,-129.75 457.5,-129.75 457.5,-110.5 547,-110.5 547,-129.75"/>
<text text-anchor="middle" x="502.25" y="-116.25" font-family="Helvetica,sans-Serif" font-size="10.00">v8&#45;handle&#45;base.h</text>
</a>
</g>
</g>
<!-- Node5&#45;&gt;Node8 -->
<g id="edge7" class="edge">
<title>Node5&#45;&gt;Node8</title>
<path fill="none" stroke="#63b8ff" d="M466.35,-165.58C472.29,-158.23 480.94,-147.51 488.27,-138.44"/>
<polygon fill="#63b8ff" stroke="#63b8ff" points="491.44,-141.09 495,-131.11 485.99,-136.69 491.44,-141.09"/>
</g>
<!-- Node9 -->
<g id="node9" class="node">
<title>Node9</title>
<g id="a_node9"><a xlink:href="v8-internal_8h.html" target="_top" xlink:title=" ">
<polygon fill="white" stroke="#666666" points="530.5,-74.5 462,-74.5 462,-55.25 530.5,-55.25 530.5,-74.5"/>
<text text-anchor="middle" x="496.25" y="-61" font-family="Helvetica,sans-Serif" font-size="10.00">v8&#45;internal.h</text>
</a>
</g>
</g>
<!-- Node8&#45;&gt;Node9 -->
<g id="edge8" class="edge">
<title>Node8&#45;&gt;Node9</title>
<path fill="none" stroke="#63b8ff" d="M501.26,-110.33C500.51,-103.67 499.45,-94.24 498.49,-85.78"/>
<polygon fill="#63b8ff" stroke="#63b8ff" points="501.86,-85.4 497.26,-75.86 494.9,-86.19 501.86,-85.4"/>
</g>
<!-- Node9&#45;&gt;Node6 -->
<g id="edge9" class="edge">
<title>Node9&#45;&gt;Node6</title>
<path fill="none" stroke="#63b8ff" d="M483.87,-54.84C473,-46.91 456.97,-35.22 444.12,-25.85"/>
<polygon fill="#63b8ff" stroke="#63b8ff" points="446.59,-22.59 436.45,-19.52 442.47,-28.25 446.59,-22.59"/>
</g>
<!-- Node9&#45;&gt;Node7 -->
<g id="edge13" class="edge">
<title>Node9&#45;&gt;Node7</title>
<path fill="none" stroke="#63b8ff" d="M471.14,-54.84C447.12,-46.2 410.65,-33.07 383.67,-23.37"/>
<polygon fill="#63b8ff" stroke="#63b8ff" points="385.07,-19.79 374.48,-19.7 382.7,-26.38 385.07,-19.79"/>
</g>
<!-- Node10 -->
<g id="node10" class="node">
<title>Node10</title>
<g id="a_node10"><a xlink:title=" ">
<polygon fill="#e0e0e0" stroke="#999999" points="267,-19.25 219.5,-19.25 219.5,0 267,0 267,-19.25"/>
<text text-anchor="middle" x="243.25" y="-5.75" font-family="Helvetica,sans-Serif" font-size="10.00">stdint.h</text>
</a>
</g>
</g>
<!-- Node9&#45;&gt;Node10 -->
<g id="edge10" class="edge">
<title>Node9&#45;&gt;Node10</title>
<path fill="none" stroke="#63b8ff" d="M461.6,-56.58C413.26,-46.41 326.1,-28.06 277.81,-17.9"/>
<polygon fill="#63b8ff" stroke="#63b8ff" points="278.78,-14.32 268.27,-15.68 277.34,-21.17 278.78,-14.32"/>
</g>
<!-- Node11 -->
<g id="node11" class="node">
<title>Node11</title>
<g id="a_node11"><a xlink:title=" ">
<polygon fill="#e0e0e0" stroke="#999999" points="601,-19.25 553.5,-19.25 553.5,0 601,0 601,-19.25"/>
<text text-anchor="middle" x="577.25" y="-5.75" font-family="Helvetica,sans-Serif" font-size="10.00">string.h</text>
</a>
</g>
</g>
<!-- Node9&#45;&gt;Node11 -->
<g id="edge11" class="edge">
<title>Node9&#45;&gt;Node11</title>
<path fill="none" stroke="#63b8ff" d="M509.99,-54.84C522.21,-46.81 540.31,-34.91 554.66,-25.48"/>
<polygon fill="#63b8ff" stroke="#63b8ff" points="556.01,-28.12 562.44,-19.7 552.16,-22.27 556.01,-28.12"/>
</g>
<!-- Node12 -->
<g id="node12" class="node">
<title>Node12</title>
<g id="a_node12"><a xlink:title=" ">
<polygon fill="#e0e0e0" stroke="#999999" points="135.88,-19.25 90.62,-19.25 90.62,0 135.88,0 135.88,-19.25"/>
<text text-anchor="middle" x="113.25" y="-5.75" font-family="Helvetica,sans-Serif" font-size="10.00">atomic</text>
</a>
</g>
</g>
<!-- Node9&#45;&gt;Node12 -->
<g id="edge12" class="edge">
<title>Node9&#45;&gt;Node12</title>
<path fill="none" stroke="#63b8ff" d="M461.59,-59.06C388.35,-48.87 218.7,-25.29 146.62,-15.26"/>
<polygon fill="#63b8ff" stroke="#63b8ff" points="147.3,-11.69 136.92,-13.78 146.34,-18.62 147.3,-11.69"/>
</g>
<!-- Node13 -->
<g id="node13" class="node">
<title>Node13</title>
<g id="a_node13"><a xlink:href="v8-version_8h.html" target="_top" xlink:title=" ">
<polygon fill="white" stroke="#666666" points="535.5,-19.25 467,-19.25 467,0 535.5,0 535.5,-19.25"/>
<text text-anchor="middle" x="501.25" y="-5.75" font-family="Helvetica,sans-Serif" font-size="10.00">v8&#45;version.h</text>
</a>
</g>
</g>
<!-- Node9&#45;&gt;Node13 -->
<g id="edge14" class="edge">
<title>Node9&#45;&gt;Node13</title>
<path fill="none" stroke="#63b8ff" d="M497.08,-55.08C497.7,-48.42 498.59,-38.99 499.38,-30.53"/>
<polygon fill="#63b8ff" stroke="#63b8ff" points="502.96,-30.89 500.41,-20.61 495.99,-30.24 502.96,-30.89"/>
</g>
<!-- Node9&#45;&gt;Node14 -->
<g id="edge15" class="edge">
<title>Node9&#45;&gt;Node14</title>
<path fill="none" stroke="#63b8ff" d="M530.82,-57.44C535.33,-56.66 539.9,-55.91 544.25,-55.25 658.37,-37.88 793.77,-22.33 860.26,-15.03"/>
<polygon fill="#63b8ff" stroke="#63b8ff" points="860.52,-18.41 870.09,-13.84 859.76,-11.45 860.52,-18.41"/>
</g>
<!-- Node15&#45;&gt;Node6 -->
<g id="edge17" class="edge">
<title>Node15&#45;&gt;Node6</title>
<path fill="none" stroke="#63b8ff" d="M717.15,-58.35C658.63,-51.31 556.66,-38 459.41,-19.29"/>
<polygon fill="#63b8ff" stroke="#63b8ff" points="460.29,-15.7 449.8,-17.23 458.95,-22.57 460.29,-15.7"/>
</g>
<!-- Node15&#45;&gt;Node14 -->
<g id="edge18" class="edge">
<title>Node15&#45;&gt;Node14</title>
<path fill="none" stroke="#63b8ff" d="M788.32,-54.84C810.2,-46.27 843.32,-33.31 868.04,-23.63"/>
<polygon fill="#63b8ff" stroke="#63b8ff" points="869.03,-26.61 877.07,-19.7 866.48,-20.09 869.03,-26.61"/>
</g>
<!-- Node16&#45;&gt;Node5 -->
<g id="edge20" class="edge">
<title>Node16&#45;&gt;Node5</title>
<path fill="none" stroke="#63b8ff" d="M627.17,-386.31C590.6,-365.85 505.06,-312.23 468.25,-240.25 461.22,-226.51 459.15,-209.05 458.74,-195.86"/>
<polygon fill="#63b8ff" stroke="#63b8ff" points="462.24,-196.17 458.73,-186.18 455.24,-196.18 462.24,-196.17"/>
</g>
<!-- Node16&#45;&gt;Node14 -->
<g id="edge58" class="edge">
<title>Node16&#45;&gt;Node14</title>
<path fill="none" stroke="#63b8ff" d="M676.04,-394.48C778.16,-390.77 1091.25,-372.42 1091.25,-286.88 1091.25,-286.88 1091.25,-286.88 1091.25,-119.12 1091.25,-50.93 997.81,-25.02 941.98,-15.63"/>
<polygon fill="#63b8ff" stroke="#63b8ff" points="942.78,-12.06 932.36,-13.96 941.69,-18.97 942.78,-12.06"/>
</g>
<!-- Node17 -->
<g id="node17" class="node">
<title>Node17</title>
<g id="a_node17"><a xlink:href="v8-maybe_8h.html" target="_top" xlink:title=" ">
<polygon fill="white" stroke="#666666" points="585,-240.25 519.5,-240.25 519.5,-221 585,-221 585,-240.25"/>
<text text-anchor="middle" x="552.25" y="-226.75" font-family="Helvetica,sans-Serif" font-size="10.00">v8&#45;maybe.h</text>
</a>
</g>
</g>
<!-- Node16&#45;&gt;Node17 -->
<g id="edge21" class="edge">
<title>Node16&#45;&gt;Node17</title>
<path fill="none" stroke="#63b8ff" d="M632.66,-386.57C622.43,-378.29 607.71,-365.04 598.25,-350.75 577.12,-318.81 563.56,-275.74 556.98,-251.1"/>
<polygon fill="#63b8ff" stroke="#63b8ff" points="560.17,-250.44 554.3,-241.61 553.38,-252.17 560.17,-250.44"/>
</g>
<!-- Node19 -->
<g id="node19" class="node">
<title>Node19</title>
<g id="a_node19"><a xlink:href="v8-persistent-handle_8h.html" target="_top" xlink:title=" ">
<polygon fill="white" stroke="#666666" points="869.88,-240.25 758.62,-240.25 758.62,-221 869.88,-221 869.88,-240.25"/>
<text text-anchor="middle" x="814.25" y="-226.75" font-family="Helvetica,sans-Serif" font-size="10.00">v8&#45;persistent&#45;handle.h</text>
</a>
</g>
</g>
<!-- Node16&#45;&gt;Node19 -->
<g id="edge26" class="edge">
<title>Node16&#45;&gt;Node19</title>
<path fill="none" stroke="#63b8ff" d="M659.21,-386.36C672.66,-377.94 692.65,-364.6 708.25,-350.75 744.98,-318.13 781.72,-273.5 800.81,-249.18"/>
<polygon fill="#63b8ff" stroke="#63b8ff" points="804.07,-251.69 807.44,-241.64 798.54,-247.39 804.07,-251.69"/>
</g>
<!-- Node21 -->
<g id="node21" class="node">
<title>Node21</title>
<g id="a_node21"><a xlink:href="v8-primitive_8h.html" target="_top" xlink:title=" ">
<polygon fill="white" stroke="#666666" points="681.12,-350.75 607.38,-350.75 607.38,-331.5 681.12,-331.5 681.12,-350.75"/>
<text text-anchor="middle" x="644.25" y="-337.25" font-family="Helvetica,sans-Serif" font-size="10.00">v8&#45;primitive.h</text>
</a>
</g>
</g>
<!-- Node16&#45;&gt;Node21 -->
<g id="edge32" class="edge">
<title>Node16&#45;&gt;Node21</title>
<path fill="none" stroke="#63b8ff" d="M644.25,-386.58C644.25,-379.92 644.25,-370.49 644.25,-362.03"/>
<polygon fill="#63b8ff" stroke="#63b8ff" points="647.75,-362.11 644.25,-352.11 640.75,-362.11 647.75,-362.11"/>
</g>
<!-- Node23 -->
<g id="node23" class="node">
<title>Node23</title>
<g id="a_node23"><a xlink:href="v8-value_8h.html" target="_top" xlink:title=" ">
<polygon fill="white" stroke="#666666" points="739.38,-295.5 679.12,-295.5 679.12,-276.25 739.38,-276.25 739.38,-295.5"/>
<text text-anchor="middle" x="709.25" y="-282" font-family="Helvetica,sans-Serif" font-size="10.00">v8&#45;value.h</text>
</a>
</g>
</g>
<!-- Node16&#45;&gt;Node23 -->
<g id="edge57" class="edge">
<title>Node16&#45;&gt;Node23</title>
<path fill="none" stroke="#63b8ff" d="M656.52,-386.43C666.91,-378.23 681.48,-365.21 690.25,-350.75 698.51,-337.11 703.39,-319.65 706.12,-306.43"/>
<polygon fill="#63b8ff" stroke="#63b8ff" points="709.73,-307.18 708.07,-296.71 702.84,-305.92 709.73,-307.18"/>
</g>
<!-- Node24 -->
<g id="node24" class="node">
<title>Node24</title>
<g id="a_node24"><a xlink:href="v8-traced-handle_8h.html" target="_top" xlink:title=" ">
<polygon fill="white" stroke="#666666" points="340,-240.25 244.5,-240.25 244.5,-221 340,-221 340,-240.25"/>
<text text-anchor="middle" x="292.25" y="-226.75" font-family="Helvetica,sans-Serif" font-size="10.00">v8&#45;traced&#45;handle.h</text>
</a>
</g>
</g>
<!-- Node16&#45;&gt;Node24 -->
<g id="edge45" class="edge">
<title>Node16&#45;&gt;Node24</title>
<path fill="none" stroke="#63b8ff" d="M612.19,-395.82C563.55,-395.17 469.54,-388.57 401.25,-350.75 356.67,-326.07 320.44,-276.37 303.18,-249.63"/>
<polygon fill="#63b8ff" stroke="#63b8ff" points="305.8,-248.22 297.52,-241.61 299.87,-251.94 305.8,-248.22"/>
</g>
<!-- Node17&#45;&gt;Node7 -->
<g id="edge22" class="edge">
<title>Node17&#45;&gt;Node7</title>
<path fill="none" stroke="#63b8ff" d="M548.47,-220.82C542.43,-207.54 529.48,-182.19 512.25,-165.75 488.64,-143.22 473.37,-150.58 448.25,-129.75 411.35,-99.15 377.54,-53.7 360.27,-28.71"/>
<polygon fill="#63b8ff" stroke="#63b8ff" points="362.63,-26.95 354.12,-20.64 356.84,-30.88 362.63,-26.95"/>
</g>
<!-- Node17&#45;&gt;Node9 -->
<g id="edge24" class="edge">
<title>Node17&#45;&gt;Node9</title>
<path fill="none" stroke="#63b8ff" d="M555.31,-220.64C561.81,-199.91 574.93,-147.66 556.25,-110.5 549.83,-97.72 537.82,-87.68 526.23,-80.38"/>
<polygon fill="#63b8ff" stroke="#63b8ff" points="528.13,-76.86 517.72,-74.9 524.64,-82.93 528.13,-76.86"/>
</g>
<!-- Node17&#45;&gt;Node14 -->
<g id="edge25" class="edge">
<title>Node17&#45;&gt;Node14</title>
<path fill="none" stroke="#63b8ff" d="M557.43,-220.66C574.69,-191.62 633.43,-99.5 708.25,-55.25 755.6,-27.25 819.13,-16.81 860.13,-12.93"/>
<polygon fill="#63b8ff" stroke="#63b8ff" points="860.4,-16.33 870.07,-12 859.81,-9.36 860.4,-16.33"/>
</g>
<!-- Node18 -->
<g id="node18" class="node">
<title>Node18</title>
<g id="a_node18"><a xlink:title=" ">
<polygon fill="#e0e0e0" stroke="#999999" points="396.5,-185 358,-185 358,-165.75 396.5,-165.75 396.5,-185"/>
<text text-anchor="middle" x="377.25" y="-171.5" font-family="Helvetica,sans-Serif" font-size="10.00">utility</text>
</a>
</g>
</g>
<!-- Node17&#45;&gt;Node18 -->
<g id="edge23" class="edge">
<title>Node17&#45;&gt;Node18</title>
<path fill="none" stroke="#63b8ff" d="M522.56,-220.59C490.32,-210.78 439.13,-195.2 406.9,-185.4"/>
<polygon fill="#63b8ff" stroke="#63b8ff" points="408.34,-181.87 397.75,-182.31 406.3,-188.57 408.34,-181.87"/>
</g>
<!-- Node19&#45;&gt;Node5 -->
<g id="edge28" class="edge">
<title>Node19&#45;&gt;Node5</title>
<path fill="none" stroke="#63b8ff" d="M758.39,-221.25C691.8,-211.26 581.21,-194.67 514.77,-184.7"/>
<polygon fill="#63b8ff" stroke="#63b8ff" points="515.51,-181.13 505.1,-183.1 514.47,-188.05 515.51,-181.13"/>
</g>
<!-- Node19&#45;&gt;Node9 -->
<g id="edge27" class="edge">
<title>Node19&#45;&gt;Node9</title>
<path fill="none" stroke="#63b8ff" d="M798.91,-220.55C784.8,-211.98 763.51,-198.46 746.25,-185 707.68,-154.93 708.15,-133.99 665.25,-110.5 626.29,-89.17 576.64,-77.65 541.26,-71.68"/>
<polygon fill="#63b8ff" stroke="#63b8ff" points="542.19,-68.13 531.76,-70.01 541.08,-75.04 542.19,-68.13"/>
</g>
<!-- Node19&#45;&gt;Node14 -->
<g id="edge31" class="edge">
<title>Node19&#45;&gt;Node14</title>
<path fill="none" stroke="#63b8ff" d="M861.99,-220.57C881.99,-214.16 903.32,-203.31 915.25,-185 946.82,-136.53 923.67,-63.66 909.74,-29.53"/>
<polygon fill="#63b8ff" stroke="#63b8ff" points="912.61,-28.34 905.46,-20.53 906.18,-31.1 912.61,-28.34"/>
</g>
<!-- Node20 -->
<g id="node20" class="node">
<title>Node20</title>
<g id="a_node20"><a xlink:href="v8-weak-callback-info_8h.html" target="_top" xlink:title=" ">
<polygon fill="white" stroke="#666666" points="873.25,-185 755.25,-185 755.25,-165.75 873.25,-165.75 873.25,-185"/>
<text text-anchor="middle" x="814.25" y="-171.5" font-family="Helvetica,sans-Serif" font-size="10.00">v8&#45;weak&#45;callback&#45;info.h</text>
</a>
</g>
</g>
<!-- Node19&#45;&gt;Node20 -->
<g id="edge29" class="edge">
<title>Node19&#45;&gt;Node20</title>
<path fill="none" stroke="#63b8ff" d="M814.25,-220.83C814.25,-214.17 814.25,-204.74 814.25,-196.28"/>
<polygon fill="#63b8ff" stroke="#63b8ff" points="817.75,-196.36 814.25,-186.36 810.75,-196.36 817.75,-196.36"/>
</g>
<!-- Node20&#45;&gt;Node14 -->
<g id="edge30" class="edge">
<title>Node20&#45;&gt;Node14</title>
<path fill="none" stroke="#63b8ff" d="M818.93,-165.57C832.62,-139.8 872.81,-64.15 891.49,-28.99"/>
<polygon fill="#63b8ff" stroke="#63b8ff" points="894.95,-30.95 896.55,-20.47 888.77,-27.66 894.95,-30.95"/>
</g>
<!-- Node21&#45;&gt;Node5 -->
<g id="edge37" class="edge">
<title>Node21&#45;&gt;Node5</title>
<path fill="none" stroke="#63b8ff" d="M620.56,-331.05C586.06,-316.72 522.01,-285.73 484.25,-240.25 473.54,-227.35 467.05,-209.33 463.38,-195.71"/>
<polygon fill="#63b8ff" stroke="#63b8ff" points="466.57,-195.03 460.84,-186.12 459.77,-196.66 466.57,-195.03"/>
</g>
<!-- Node21&#45;&gt;Node9 -->
<g id="edge36" class="edge">
<title>Node21&#45;&gt;Node9</title>
<path fill="none" stroke="#63b8ff" d="M639.81,-331.09C631.24,-312.78 613.25,-269.83 613.25,-231.62 613.25,-231.62 613.25,-231.62 613.25,-174.38 613.25,-128.23 563.72,-96.2 529.12,-79.46"/>
<polygon fill="#63b8ff" stroke="#63b8ff" points="530.91,-75.97 520.37,-74.94 527.97,-82.32 530.91,-75.97"/>
</g>
<!-- Node21&#45;&gt;Node14 -->
<g id="edge44" class="edge">
<title>Node21&#45;&gt;Node14</title>
<path fill="none" stroke="#63b8ff" d="M681.25,-332.65C735.07,-320.4 836.24,-292.09 907.25,-240.25 958.42,-202.9 974.09,-173.36 966.25,-110.5 963.11,-85.36 965.49,-76.84 952.25,-55.25 945.19,-43.73 934.2,-33.57 924.23,-25.86"/>
<polygon fill="#63b8ff" stroke="#63b8ff" points="926.64,-22.56 916.5,-19.5 922.52,-28.22 926.64,-22.56"/>
</g>
<!-- Node22 -->
<g id="node22" class="node">
<title>Node22</title>
<g id="a_node22"><a xlink:href="v8-data_8h.html" target="_top" xlink:title=" ">
<polygon fill="white" stroke="#666666" points="697.12,-240.25 641.38,-240.25 641.38,-221 697.12,-221 697.12,-240.25"/>
<text text-anchor="middle" x="669.25" y="-226.75" font-family="Helvetica,sans-Serif" font-size="10.00">v8&#45;data.h</text>
</a>
</g>
</g>
<!-- Node21&#45;&gt;Node22 -->
<g id="edge33" class="edge">
<title>Node21&#45;&gt;Node22</title>
<path fill="none" stroke="#63b8ff" d="M646.3,-331.25C650.31,-313.84 659.29,-274.87 664.75,-251.16"/>
<polygon fill="#63b8ff" stroke="#63b8ff" points="668.34,-252.16 667.18,-241.63 661.52,-250.59 668.34,-252.16"/>
</g>
<!-- Node21&#45;&gt;Node23 -->
<g id="edge38" class="edge">
<title>Node21&#45;&gt;Node23</title>
<path fill="none" stroke="#63b8ff" d="M655.28,-331.09C664.76,-323.32 678.67,-311.92 690,-302.65"/>
<polygon fill="#63b8ff" stroke="#63b8ff" points="691.87,-304.82 697.39,-295.77 687.43,-299.4 691.87,-304.82"/>
</g>
<!-- Node22&#45;&gt;Node5 -->
<g id="edge34" class="edge">
<title>Node22&#45;&gt;Node5</title>
<path fill="none" stroke="#63b8ff" d="M640.93,-222.44C606.29,-213.66 547.19,-198.67 505.83,-188.19"/>
<polygon fill="#63b8ff" stroke="#63b8ff" points="506.75,-184.55 496.19,-185.49 505.02,-191.34 506.75,-184.55"/>
</g>
<!-- Node22&#45;&gt;Node14 -->
<g id="edge35" class="edge">
<title>Node22&#45;&gt;Node14</title>
<path fill="none" stroke="#63b8ff" d="M697.24,-225.62C752.17,-217.49 869.85,-198.68 882.25,-185 921.39,-141.82 912.63,-65.76 905.71,-30.1"/>
<polygon fill="#63b8ff" stroke="#63b8ff" points="909,-29.73 903.51,-20.66 902.15,-31.17 909,-29.73"/>
</g>
<!-- Node23&#45;&gt;Node5 -->
<g id="edge41" class="edge">
<title>Node23&#45;&gt;Node5</title>
<path fill="none" stroke="#63b8ff" d="M678.93,-284.22C637.75,-282.04 563.24,-273.38 510.25,-240.25 492.44,-229.11 478.17,-209.49 469.3,-194.92"/>
<polygon fill="#63b8ff" stroke="#63b8ff" points="471.85,-193.33 463.83,-186.41 465.78,-196.82 471.85,-193.33"/>
</g>
<!-- Node23&#45;&gt;Node9 -->
<g id="edge40" class="edge">
<title>Node23&#45;&gt;Node9</title>
<path fill="none" stroke="#63b8ff" d="M710.39,-275.9C711.65,-263.26 712.72,-239.67 706.25,-221 686.47,-163.96 675.7,-146.52 627.25,-110.5 602,-91.73 568.3,-80.49 541.41,-73.98"/>
<polygon fill="#63b8ff" stroke="#63b8ff" points="542.24,-70.35 531.72,-71.55 540.69,-77.18 542.24,-70.35"/>
</g>
<!-- Node23&#45;&gt;Node14 -->
<g id="edge43" class="edge">
<title>Node23&#45;&gt;Node14</title>
<path fill="none" stroke="#63b8ff" d="M739.68,-281.86C775.22,-277.25 834.8,-266.1 879.25,-240.25 908.93,-222.99 917.23,-215.37 933.25,-185 960.15,-133.98 958.04,-108.23 935.25,-55.25 930.99,-45.35 924.06,-35.66 917.56,-27.86"/>
<polygon fill="#63b8ff" stroke="#63b8ff" points="920.56,-25.85 911.32,-20.67 915.32,-30.48 920.56,-25.85"/>
</g>
<!-- Node23&#45;&gt;Node17 -->
<g id="edge42" class="edge">
<title>Node23&#45;&gt;Node17</title>
<path fill="none" stroke="#63b8ff" d="M682.62,-275.84C656.9,-267.12 617.75,-253.84 589.07,-244.11"/>
<polygon fill="#63b8ff" stroke="#63b8ff" points="590.61,-240.6 580.01,-240.7 588.36,-247.23 590.61,-240.6"/>
</g>
<!-- Node23&#45;&gt;Node22 -->
<g id="edge39" class="edge">
<title>Node23&#45;&gt;Node22</title>
<path fill="none" stroke="#63b8ff" d="M702.64,-276.08C697.18,-268.8 689.24,-258.23 682.47,-249.23"/>
<polygon fill="#63b8ff" stroke="#63b8ff" points="684.8,-247.5 676,-241.61 679.21,-251.71 684.8,-247.5"/>
</g>
<!-- Node24&#45;&gt;Node3 -->
<g id="edge50" class="edge">
<title>Node24&#45;&gt;Node3</title>
<path fill="none" stroke="#63b8ff" d="M244.14,-220.56C197.95,-211.78 126.24,-197.92 64.25,-185 63.3,-184.8 62.34,-184.6 61.36,-184.39"/>
<polygon fill="#63b8ff" stroke="#63b8ff" points="62.34,-180.81 51.82,-182.12 60.86,-187.65 62.34,-180.81"/>
</g>
<!-- Node24&#45;&gt;Node5 -->
<g id="edge54" class="edge">
<title>Node24&#45;&gt;Node5</title>
<path fill="none" stroke="#63b8ff" d="M320.58,-220.59C348.05,-211.83 389.94,-198.48 420.49,-188.73"/>
<polygon fill="#63b8ff" stroke="#63b8ff" points="421.32,-191.83 429.78,-185.45 419.19,-185.16 421.32,-191.83"/>
</g>
<!-- Node24&#45;&gt;Node6 -->
<g id="edge46" class="edge">
<title>Node24&#45;&gt;Node6</title>
<path fill="none" stroke="#63b8ff" d="M285.94,-220.67C272.21,-200.01 242.5,-147.91 263.25,-110.5 289.6,-62.99 348.99,-35.11 387.54,-21.38"/>
<polygon fill="#63b8ff" stroke="#63b8ff" points="388.47,-24.41 396.81,-17.87 386.21,-17.79 388.47,-24.41"/>
</g>
<!-- Node24&#45;&gt;Node7 -->
<g id="edge51" class="edge">
<title>Node24&#45;&gt;Node7</title>
<path fill="none" stroke="#63b8ff" d="M244.29,-223.27C205.71,-215.61 159.94,-199.32 173.25,-165.75 200.49,-97.06 277.44,-47.64 319.66,-24.8"/>
<polygon fill="#63b8ff" stroke="#63b8ff" points="321.13,-27.46 328.35,-19.7 317.87,-21.26 321.13,-27.46"/>
</g>
<!-- Node24&#45;&gt;Node9 -->
<g id="edge53" class="edge">
<title>Node24&#45;&gt;Node9</title>
<path fill="none" stroke="#63b8ff" d="M299.02,-220.74C309.12,-207.8 329.13,-183.38 349.25,-165.75 388.66,-131.22 440.46,-98.56 470.88,-80.48"/>
<polygon fill="#63b8ff" stroke="#63b8ff" points="472.48,-83.01 479.33,-74.92 468.93,-76.97 472.48,-83.01"/>
</g>
<!-- Node24&#45;&gt;Node10 -->
<g id="edge47" class="edge">
<title>Node24&#45;&gt;Node10</title>
<path fill="none" stroke="#63b8ff" d="M244.36,-221.95C204.69,-214.49 152.86,-201.84 140.25,-185 105.69,-138.84 108.6,-103.46 140.25,-55.25 155.3,-32.33 184.93,-21.12 208.56,-15.68"/>
<polygon fill="#63b8ff" stroke="#63b8ff" points="209.15,-18.92 218.25,-13.5 207.75,-12.07 209.15,-18.92"/>
</g>
<!-- Node24&#45;&gt;Node12 -->
<g id="edge49" class="edge">
<title>Node24&#45;&gt;Node12</title>
<path fill="none" stroke="#63b8ff" d="M244,-222.35C200.75,-214.86 141.66,-201.91 125.25,-185 84.62,-143.13 98.25,-65.79 107.56,-29.88"/>
<polygon fill="#63b8ff" stroke="#63b8ff" points="111.16,-30.97 110.46,-20.4 104.42,-29.1 111.16,-30.97"/>
</g>
<!-- Node24&#45;&gt;Node14 -->
<g id="edge56" class="edge">
<title>Node24&#45;&gt;Node14</title>
<path fill="none" stroke="#63b8ff" d="M298.82,-220.5C308.68,-207.26 328.37,-182.48 349.25,-165.75 388.57,-134.24 401.32,-128.86 448.25,-110.5 594.02,-53.48 779.56,-25.47 860.46,-15.29"/>
<polygon fill="#63b8ff" stroke="#63b8ff" points="860.67,-18.67 870.17,-13.97 859.81,-11.72 860.67,-18.67"/>
</g>
<!-- Node24&#45;&gt;Node18 -->
<g id="edge52" class="edge">
<title>Node24&#45;&gt;Node18</title>
<path fill="none" stroke="#63b8ff" d="M306.67,-220.59C319.49,-212.56 338.48,-200.66 353.54,-191.23"/>
<polygon fill="#63b8ff" stroke="#63b8ff" points="355.14,-193.73 361.76,-185.45 351.43,-187.8 355.14,-193.73"/>
</g>
<!-- Node24&#45;&gt;Node20 -->
<g id="edge55" class="edge">
<title>Node24&#45;&gt;Node20</title>
<path fill="none" stroke="#63b8ff" d="M340.42,-224.71C433.15,-215.25 636.76,-194.48 744.39,-183.5"/>
<polygon fill="#63b8ff" stroke="#63b8ff" points="744.54,-186.9 754.13,-182.41 743.83,-179.94 744.54,-186.9"/>
</g>
<!-- Node25 -->
<g id="node25" class="node">
<title>Node25</title>
<g id="a_node25"><a xlink:title=" ">
<polygon fill="#e0e0e0" stroke="#999999" points="226.5,-185 182,-185 182,-165.75 226.5,-165.75 226.5,-185"/>
<text text-anchor="middle" x="204.25" y="-171.5" font-family="Helvetica,sans-Serif" font-size="10.00">stdio.h</text>
</a>
</g>
</g>
<!-- Node24&#45;&gt;Node25 -->
<g id="edge48" class="edge">
<title>Node24&#45;&gt;Node25</title>
<path fill="none" stroke="#63b8ff" d="M277.32,-220.59C263.92,-212.48 244.01,-200.43 228.35,-190.96"/>
<polygon fill="#63b8ff" stroke="#63b8ff" points="230.62,-187.64 220.25,-185.45 226.99,-193.62 230.62,-187.64"/>
</g>
</g>
</svg>
