<?xml version="1.0" encoding="UTF-8" standalone="no"?>
<!DOCTYPE svg PUBLIC "-//W3C//DTD SVG 1.1//EN"
 "http://www.w3.org/Graphics/SVG/1.1/DTD/svg11.dtd">
<!-- Generated by graphviz version 8.0.5 (20230430.1635)
 -->
<!-- Title: v8::Local&lt; T &gt; Pages: 1 -->
<svg width="371pt" height="372pt"
 viewBox="0.00 0.00 370.75 371.87" xmlns="http://www.w3.org/2000/svg" xmlns:xlink="http://www.w3.org/1999/xlink">
<g id="graph0" class="graph" transform="scale(1 1) rotate(0) translate(4 367.87)">
<title>v8::Local&lt; T &gt;</title>
<!-- Node1 -->
<g id="node1" class="node">
<title>Node1</title>
<g id="a_node1"><a xlink:title=" ">
<polygon fill="#999999" stroke="#666666" points="77.5,-190.24 0,-190.24 0,-170.99 77.5,-170.99 77.5,-190.24"/>
<text text-anchor="middle" x="38.75" y="-176.74" font-family="Helvetica,sans-Serif" font-size="10.00">v8::Local&lt; T &gt;</text>
</a>
</g>
</g>
<!-- Node2 -->
<g id="node2" class="node">
<title>Node2</title>
<g id="a_node2"><a xlink:href="classv8_1_1Local.html" target="_top" xlink:title=" ">
<polygon fill="white" stroke="#666666" points="347,-357.24 227.5,-357.24 227.5,-337.99 347,-337.99 347,-357.24"/>
<text text-anchor="middle" x="287.25" y="-343.74" font-family="Helvetica,sans-Serif" font-size="10.00">v8::Local&lt; v8::Context &gt;</text>
</a>
</g>
</g>
<!-- Node1&#45;&gt;Node2 -->
<g id="edge1" class="edge">
<title>Node1&#45;&gt;Node2</title>
<path fill="none" stroke="orange" stroke-dasharray="5,2" d="M41.66,-201.64C45.7,-232.93 58.1,-291.21 95.5,-320.62 132.44,-349.66 186.29,-354.95 227.36,-353.82"/>
<polygon fill="orange" stroke="orange" points="45.03,-201.29 40.45,-191.74 38.07,-202.06 45.03,-201.29"/>
<text text-anchor="middle" x="144.62" y="-354.37" font-family="Helvetica,sans-Serif" font-size="10.00"> &lt; v8::Context &gt;</text>
</g>
<!-- Node3 -->
<g id="node3" class="node">
<title>Node3</title>
<g id="a_node3"><a xlink:href="classv8_1_1Local.html" target="_top" xlink:title=" ">
<polygon fill="white" stroke="#666666" points="335.38,-320.24 239.12,-320.24 239.12,-300.99 335.38,-300.99 335.38,-320.24"/>
<text text-anchor="middle" x="287.25" y="-306.74" font-family="Helvetica,sans-Serif" font-size="10.00">v8::Local&lt; Value &gt;</text>
</a>
</g>
</g>
<!-- Node1&#45;&gt;Node3 -->
<g id="edge2" class="edge">
<title>Node1&#45;&gt;Node3</title>
<path fill="none" stroke="orange" stroke-dasharray="5,2" d="M44.69,-201.15C51.67,-225.33 66.87,-264.73 95.5,-284.62 118.01,-300.25 189.96,-306.52 238.77,-309.01"/>
<polygon fill="orange" stroke="orange" points="47.86,-200.42 41.91,-191.65 41.09,-202.21 47.86,-200.42"/>
<text text-anchor="middle" x="144.62" y="-307.37" font-family="Helvetica,sans-Serif" font-size="10.00"> &lt; Value &gt;</text>
</g>
<!-- Node4 -->
<g id="node4" class="node">
<title>Node4</title>
<g id="a_node4"><a xlink:href="classv8_1_1Local.html" target="_top" xlink:title=" ">
<polygon fill="white" stroke="#666666" points="342.88,-283.24 231.62,-283.24 231.62,-263.99 342.88,-263.99 342.88,-283.24"/>
<text text-anchor="middle" x="287.25" y="-269.74" font-family="Helvetica,sans-Serif" font-size="10.00">v8::Local&lt; v8::Value &gt;</text>
</a>
</g>
</g>
<!-- Node1&#45;&gt;Node4 -->
<g id="edge3" class="edge">
<title>Node1&#45;&gt;Node4</title>
<path fill="none" stroke="orange" stroke-dasharray="5,2" d="M51.54,-199.11C61.5,-213.11 77.07,-231.59 95.5,-241.62 137.38,-264.4 191.49,-271.76 231.38,-273.79"/>
<polygon fill="orange" stroke="orange" points="54.08,-197.61 45.58,-191.29 48.28,-201.53 54.08,-197.61"/>
<text text-anchor="middle" x="144.62" y="-271.37" font-family="Helvetica,sans-Serif" font-size="10.00"> &lt; v8::Value &gt;</text>
</g>
<!-- Node5 -->
<g id="node5" class="node">
<title>Node5</title>
<g id="a_node5"><a xlink:href="classv8_1_1Local.html" target="_top" xlink:title=" ">
<polygon fill="white" stroke="#666666" points="362.75,-246.24 211.75,-246.24 211.75,-226.99 362.75,-226.99 362.75,-246.24"/>
<text text-anchor="middle" x="287.25" y="-232.74" font-family="Helvetica,sans-Serif" font-size="10.00">v8::Local&lt; v8::UnboundScript &gt;</text>
</a>
</g>
</g>
<!-- Node1&#45;&gt;Node5 -->
<g id="edge4" class="edge">
<title>Node1&#45;&gt;Node5</title>
<path fill="none" stroke="orange" stroke-dasharray="5,2" d="M67.5,-195.42C76.26,-199.58 86.1,-203.75 95.5,-206.62 132.85,-218.02 175.71,-225.25 211.33,-229.75"/>
<polygon fill="orange" stroke="orange" points="69.33,-191.93 58.82,-190.62 66.22,-198.2 69.33,-191.93"/>
<text text-anchor="middle" x="144.62" y="-228.37" font-family="Helvetica,sans-Serif" font-size="10.00"> &lt; v8::UnboundScript &gt;</text>
</g>
<!-- Node6 -->
<g id="node6" class="node">
<title>Node6</title>
<g id="a_node6"><a xlink:href="classv8_1_1Local.html" target="_top" xlink:title=" ">
<polygon fill="white" stroke="#666666" points="336.12,-209.24 238.38,-209.24 238.38,-189.99 336.12,-189.99 336.12,-209.24"/>
<text text-anchor="middle" x="287.25" y="-195.74" font-family="Helvetica,sans-Serif" font-size="10.00">v8::Local&lt; Name &gt;</text>
</a>
</g>
</g>
<!-- Node1&#45;&gt;Node6 -->
<g id="edge5" class="edge">
<title>Node1&#45;&gt;Node6</title>
<path fill="none" stroke="orange" stroke-dasharray="5,2" d="M88.85,-184.4C132.23,-187.74 195.11,-192.59 238.17,-195.91"/>
<polygon fill="orange" stroke="orange" points="89.23,-180.84 79,-183.56 88.7,-187.82 89.23,-180.84"/>
<text text-anchor="middle" x="144.62" y="-193.37" font-family="Helvetica,sans-Serif" font-size="10.00"> &lt; Name &gt;</text>
</g>
<!-- Node7 -->
<g id="node7" class="node">
<title>Node7</title>
<g id="a_node7"><a xlink:href="classv8_1_1Local.html" target="_top" xlink:title=" ">
<polygon fill="white" stroke="#666666" points="348.5,-172.24 226,-172.24 226,-152.99 348.5,-152.99 348.5,-172.24"/>
<text text-anchor="middle" x="287.25" y="-158.74" font-family="Helvetica,sans-Serif" font-size="10.00">v8::Local&lt; v8::Promise &gt;</text>
</a>
</g>
</g>
<!-- Node1&#45;&gt;Node7 -->
<g id="edge6" class="edge">
<title>Node1&#45;&gt;Node7</title>
<path fill="none" stroke="orange" stroke-dasharray="5,2" d="M84.42,-168.24C88.15,-167.5 91.88,-166.86 95.5,-166.37 138.82,-160.48 188.19,-159.67 225.84,-160.26"/>
<polygon fill="orange" stroke="orange" points="84.01,-164.97 75,-170.54 85.52,-171.8 84.01,-164.97"/>
<text text-anchor="middle" x="144.62" y="-167.37" font-family="Helvetica,sans-Serif" font-size="10.00"> &lt; v8::Promise &gt;</text>
</g>
<!-- Node8 -->
<g id="node8" class="node">
<title>Node8</title>
<g id="a_node8"><a xlink:href="classv8_1_1Local.html" target="_top" xlink:title=" ">
<polygon fill="white" stroke="#666666" points="355.62,-135.24 218.88,-135.24 218.88,-115.99 355.62,-115.99 355.62,-135.24"/>
<text text-anchor="middle" x="287.25" y="-121.74" font-family="Helvetica,sans-Serif" font-size="10.00">v8::Local&lt; v8::StackTrace &gt;</text>
</a>
</g>
</g>
<!-- Node1&#45;&gt;Node8 -->
<g id="edge7" class="edge">
<title>Node1&#45;&gt;Node8</title>
<path fill="none" stroke="orange" stroke-dasharray="5,2" d="M59.7,-164.28C69.82,-156.91 82.65,-148.87 95.5,-144.37 134.91,-130.55 181.52,-125.77 218.8,-124.49"/>
<polygon fill="orange" stroke="orange" points="58.08,-161.88 52.26,-170.74 62.33,-167.45 58.08,-161.88"/>
<text text-anchor="middle" x="144.62" y="-145.37" font-family="Helvetica,sans-Serif" font-size="10.00"> &lt; v8::StackTrace &gt;</text>
</g>
<!-- Node9 -->
<g id="node9" class="node">
<title>Node9</title>
<g id="a_node9"><a xlink:href="classv8_1_1Local.html" target="_top" xlink:title=" ">
<polygon fill="white" stroke="#666666" points="343.25,-98.24 231.25,-98.24 231.25,-78.99 343.25,-78.99 343.25,-98.24"/>
<text text-anchor="middle" x="287.25" y="-84.74" font-family="Helvetica,sans-Serif" font-size="10.00">v8::Local&lt; v8::String &gt;</text>
</a>
</g>
</g>
<!-- Node1&#45;&gt;Node9 -->
<g id="edge8" class="edge">
<title>Node1&#45;&gt;Node9</title>
<path fill="none" stroke="orange" stroke-dasharray="5,2" d="M49.41,-161.33C58.78,-144.82 74.64,-121.94 95.5,-110.37 136.88,-87.39 191.05,-83.22 231.08,-84.05"/>
<polygon fill="orange" stroke="orange" points="46.07,-159.16 44.42,-169.63 52.23,-162.47 46.07,-159.16"/>
<text text-anchor="middle" x="144.62" y="-111.37" font-family="Helvetica,sans-Serif" font-size="10.00"> &lt; v8::String &gt;</text>
</g>
<!-- Node10 -->
<g id="node10" class="node">
<title>Node10</title>
<g id="a_node10"><a xlink:href="classv8_1_1Local.html" target="_top" xlink:title=" ">
<polygon fill="white" stroke="#666666" points="345.5,-61.24 229,-61.24 229,-41.99 345.5,-41.99 345.5,-61.24"/>
<text text-anchor="middle" x="287.25" y="-47.74" font-family="Helvetica,sans-Serif" font-size="10.00">v8::Local&lt; v8::Integer &gt;</text>
</a>
</g>
</g>
<!-- Node1&#45;&gt;Node10 -->
<g id="edge9" class="edge">
<title>Node1&#45;&gt;Node10</title>
<path fill="none" stroke="orange" stroke-dasharray="5,2" d="M43.66,-160.35C49.81,-134.5 64.41,-90.61 95.5,-69.37 134.22,-42.91 188.15,-40.21 228.79,-43.12"/>
<polygon fill="orange" stroke="orange" points="40.09,-159.3 41.4,-169.81 46.93,-160.78 40.09,-159.3"/>
<text text-anchor="middle" x="144.62" y="-70.37" font-family="Helvetica,sans-Serif" font-size="10.00"> &lt; v8::Integer &gt;</text>
</g>
<!-- Node11 -->
<g id="node11" class="node">
<title>Node11</title>
<g id="a_node11"><a xlink:href="classv8_1_1Local.html" target="_top" xlink:title=" ">
<polygon fill="white" stroke="#666666" points="348.12,-24.24 226.38,-24.24 226.38,-4.99 348.12,-4.99 348.12,-24.24"/>
<text text-anchor="middle" x="287.25" y="-10.74" font-family="Helvetica,sans-Serif" font-size="10.00">v8::Local&lt; v8::Boolean &gt;</text>
</a>
</g>
</g>
<!-- Node1&#45;&gt;Node11 -->
<g id="edge10" class="edge">
<title>Node1&#45;&gt;Node11</title>
<path fill="none" stroke="orange" stroke-dasharray="5,2" d="M40.43,-159.97C42.78,-125.85 52.89,-58.28 95.5,-26.37 137.2,4.86 199.49,2.2 241.44,-4.52"/>
<polygon fill="orange" stroke="orange" points="36.9,-159.37 39.88,-169.53 43.89,-159.73 36.9,-159.37"/>
<text text-anchor="middle" x="144.62" y="-27.37" font-family="Helvetica,sans-Serif" font-size="10.00"> &lt; v8::Boolean &gt;</text>
</g>
</g>
</svg>
