<?xml version="1.0" encoding="UTF-8" standalone="no"?>
<!DOCTYPE svg PUBLIC "-//W3C//DTD SVG 1.1//EN"
 "http://www.w3.org/Graphics/SVG/1.1/DTD/svg11.dtd">
<!-- Generated by graphviz version 8.0.5 (20230430.1635)
 -->
<!-- Title: v8::HeapProfiler::HeapSnapshotOptions Pages: 1 -->
<svg width="256pt" height="116pt"
 viewBox="0.00 0.00 255.75 116.25" xmlns="http://www.w3.org/2000/svg" xmlns:xlink="http://www.w3.org/1999/xlink">
<g id="graph0" class="graph" transform="scale(1 1) rotate(0) translate(4 112.25)">
<title>v8::HeapProfiler::HeapSnapshotOptions</title>
<!-- Node1 -->
<g id="node1" class="node">
<title>Node1</title>
<g id="a_node1"><a xlink:title=" ">
<polygon fill="#999999" stroke="#666666" points="186.62,-30.5 33.38,-30.5 33.38,0 186.62,0 186.62,-30.5"/>
<text text-anchor="start" x="41.38" y="-17" font-family="Helvetica,sans-Serif" font-size="10.00">v8::HeapProfiler::HeapSnapshot</text>
<text text-anchor="middle" x="110" y="-5.75" font-family="Helvetica,sans-Serif" font-size="10.00">Options</text>
</a>
</g>
</g>
<!-- Node2 -->
<g id="node2" class="node">
<title>Node2</title>
<g id="a_node2"><a xlink:href="classv8_1_1ActivityControl.html" target="_top" xlink:title=" ">
<polygon fill="white" stroke="#666666" points="94,-102.62 0,-102.62 0,-83.38 94,-83.38 94,-102.62"/>
<text text-anchor="middle" x="47" y="-89.12" font-family="Helvetica,sans-Serif" font-size="10.00">v8::ActivityControl</text>
</a>
</g>
</g>
<!-- Node2&#45;&gt;Node1 -->
<g id="edge1" class="edge">
<title>Node2&#45;&gt;Node1</title>
<path fill="none" stroke="#9a32cd" stroke-dasharray="5,2" d="M61.34,-74.76C72.34,-61.53 87.35,-43.48 97.78,-30.94"/>
<polygon fill="#9a32cd" stroke="#9a32cd" points="58.18,-72.09 54.47,-82.01 63.56,-76.56 58.18,-72.09"/>
<text text-anchor="middle" x="98.75" y="-50.25" font-family="Helvetica,sans-Serif" font-size="10.00"> control</text>
</g>
<!-- Node3 -->
<g id="node3" class="node">
<title>Node3</title>
<g id="a_node3"><a xlink:href="classv8_1_1HeapProfiler_1_1ContextNameResolver.html" target="_top" xlink:title=" ">
<polygon fill="white" stroke="#666666" points="233.88,-108.25 112.12,-108.25 112.12,-77.75 233.88,-77.75 233.88,-108.25"/>
<text text-anchor="start" x="120.12" y="-94.75" font-family="Helvetica,sans-Serif" font-size="10.00">v8::HeapProfiler::Context</text>
<text text-anchor="middle" x="173" y="-83.5" font-family="Helvetica,sans-Serif" font-size="10.00">NameResolver</text>
</a>
</g>
</g>
<!-- Node3&#45;&gt;Node1 -->
<g id="edge2" class="edge">
<title>Node3&#45;&gt;Node1</title>
<path fill="none" stroke="#9a32cd" stroke-dasharray="5,2" d="M154.09,-69.26C143.72,-56.79 131.16,-41.7 122.11,-30.81"/>
<polygon fill="#9a32cd" stroke="#9a32cd" points="151.77,-70.94 160.85,-76.39 157.15,-66.47 151.77,-70.94"/>
<text text-anchor="middle" x="196.38" y="-50.25" font-family="Helvetica,sans-Serif" font-size="10.00"> context_name_resolver</text>
</g>
</g>
</svg>
