<?xml version="1.0" encoding="UTF-8" standalone="no"?>
<!DOCTYPE svg PUBLIC "-//W3C//DTD SVG 1.1//EN"
 "http://www.w3.org/Graphics/SVG/1.1/DTD/svg11.dtd">
<!-- Generated by graphviz version 8.0.5 (20230430.1635)
 -->
<!-- Title: include/cppgc/default&#45;platform.h Pages: 1 -->
<svg width="1012pt" height="381pt"
 viewBox="0.00 0.00 1011.81 381.25" xmlns="http://www.w3.org/2000/svg" xmlns:xlink="http://www.w3.org/1999/xlink">
<g id="graph0" class="graph" transform="scale(1 1) rotate(0) translate(4 377.25)">
<title>include/cppgc/default&#45;platform.h</title>
<!-- Node1 -->
<g id="node1" class="node">
<title>Node1</title>
<g id="a_node1"><a xlink:title=" ">
<polygon fill="#999999" stroke="#666666" points="384.94,-373.25 276.69,-373.25 276.69,-342.75 384.94,-342.75 384.94,-373.25"/>
<text text-anchor="start" x="284.69" y="-359.75" font-family="Helvetica,sans-Serif" font-size="10.00">include/cppgc/default</text>
<text text-anchor="middle" x="330.81" y="-348.5" font-family="Helvetica,sans-Serif" font-size="10.00">&#45;platform.h</text>
</a>
</g>
</g>
<!-- Node2 -->
<g id="node2" class="node">
<title>Node2</title>
<g id="a_node2"><a xlink:title=" ">
<polygon fill="#e0e0e0" stroke="#999999" points="581.06,-19.25 530.56,-19.25 530.56,0 581.06,0 581.06,-19.25"/>
<text text-anchor="middle" x="555.81" y="-5.75" font-family="Helvetica,sans-Serif" font-size="10.00">memory</text>
</a>
</g>
</g>
<!-- Node1&#45;&gt;Node2 -->
<g id="edge1" class="edge">
<title>Node1&#45;&gt;Node2</title>
<path fill="none" stroke="#63b8ff" d="M385.32,-353.49C545.53,-342.47 1003.81,-305.46 1003.81,-242.88 1003.81,-242.88 1003.81,-242.88 1003.81,-119.12 1003.81,-34.67 699.3,-15.72 592.38,-11.67"/>
<polygon fill="#63b8ff" stroke="#63b8ff" points="592.63,-8.15 582.51,-11.29 592.38,-15.14 592.63,-8.15"/>
</g>
<!-- Node3 -->
<g id="node3" class="node">
<title>Node3</title>
<g id="a_node3"><a xlink:href="platform_8h.html" target="_top" xlink:title=" ">
<polygon fill="white" stroke="#666666" points="108.81,-251.5 20.81,-251.5 20.81,-232.25 108.81,-232.25 108.81,-251.5"/>
<text text-anchor="middle" x="64.81" y="-238" font-family="Helvetica,sans-Serif" font-size="10.00">cppgc/platform.h</text>
</a>
</g>
</g>
<!-- Node1&#45;&gt;Node3 -->
<g id="edge2" class="edge">
<title>Node1&#45;&gt;Node3</title>
<path fill="none" stroke="#63b8ff" d="M296.58,-342.31C244.44,-319.94 145.91,-277.67 95.79,-256.16"/>
<polygon fill="#63b8ff" stroke="#63b8ff" points="97.43,-252.63 86.86,-251.91 94.67,-259.06 97.43,-252.63"/>
</g>
<!-- Node8 -->
<g id="node8" class="node">
<title>Node8</title>
<g id="a_node8"><a xlink:href="v8config_8h.html" target="_top" xlink:title=" ">
<polygon fill="white" stroke="#666666" points="153.56,-74.5 94.06,-74.5 94.06,-55.25 153.56,-55.25 153.56,-74.5"/>
<text text-anchor="middle" x="123.81" y="-61" font-family="Helvetica,sans-Serif" font-size="10.00">v8config.h</text>
</a>
</g>
</g>
<!-- Node1&#45;&gt;Node8 -->
<g id="edge33" class="edge">
<title>Node1&#45;&gt;Node8</title>
<path fill="none" stroke="#63b8ff" d="M276.44,-357.16C202.29,-354.05 71.82,-336.06 11.81,-251.5 -31.11,-191.02 58.39,-113.67 101.9,-81.25"/>
<polygon fill="#63b8ff" stroke="#63b8ff" points="103.64,-83.59 109.66,-74.87 99.52,-77.93 103.64,-83.59"/>
</g>
<!-- Node14 -->
<g id="node14" class="node">
<title>Node14</title>
<g id="a_node14"><a xlink:href="libplatform_8h.html" target="_top" xlink:title=" ">
<polygon fill="white" stroke="#666666" points="547.06,-306.75 430.56,-306.75 430.56,-287.5 547.06,-287.5 547.06,-306.75"/>
<text text-anchor="middle" x="488.81" y="-293.25" font-family="Helvetica,sans-Serif" font-size="10.00">libplatform/libplatform.h</text>
</a>
</g>
</g>
<!-- Node1&#45;&gt;Node14 -->
<g id="edge20" class="edge">
<title>Node1&#45;&gt;Node14</title>
<path fill="none" stroke="#63b8ff" d="M370.27,-342.3C396.19,-332.64 429.75,-320.13 454.54,-310.9"/>
<polygon fill="#63b8ff" stroke="#63b8ff" points="455.43,-313.93 463.58,-307.15 452.99,-307.37 455.43,-313.93"/>
</g>
<!-- Node3&#45;&gt;Node2 -->
<g id="edge3" class="edge">
<title>Node3&#45;&gt;Node2</title>
<path fill="none" stroke="#63b8ff" d="M62.35,-232.16C54.46,-202.2 33.26,-102.62 84.81,-55.25 116.62,-26.02 414.19,-14.7 519.28,-11.59"/>
<polygon fill="#63b8ff" stroke="#63b8ff" points="519.37,-15.06 529.26,-11.27 519.16,-8.06 519.37,-15.06"/>
</g>
<!-- Node4 -->
<g id="node4" class="node">
<title>Node4</title>
<g id="a_node4"><a xlink:href="source-location_8h.html" target="_top" xlink:title=" ">
<polygon fill="white" stroke="#666666" points="276.19,-190.62 157.44,-190.62 157.44,-171.38 276.19,-171.38 276.19,-190.62"/>
<text text-anchor="middle" x="216.81" y="-177.12" font-family="Helvetica,sans-Serif" font-size="10.00">cppgc/source&#45;location.h</text>
</a>
</g>
</g>
<!-- Node3&#45;&gt;Node4 -->
<g id="edge4" class="edge">
<title>Node3&#45;&gt;Node4</title>
<path fill="none" stroke="#63b8ff" d="M88.23,-231.8C113.67,-221.95 154.53,-206.13 183.35,-194.96"/>
<polygon fill="#63b8ff" stroke="#63b8ff" points="184.31,-197.96 192.37,-191.08 181.78,-191.43 184.31,-197.96"/>
</g>
<!-- Node3&#45;&gt;Node8 -->
<g id="edge19" class="edge">
<title>Node3&#45;&gt;Node8</title>
<path fill="none" stroke="#63b8ff" d="M65.26,-231.93C66.61,-210.22 71.84,-153.34 90.81,-110.5 95.19,-100.62 102.06,-90.84 108.4,-82.96"/>
<polygon fill="#63b8ff" stroke="#63b8ff" points="111.62,-85.58 115.43,-75.69 106.28,-81.05 111.62,-85.58"/>
</g>
<!-- Node9 -->
<g id="node9" class="node">
<title>Node9</title>
<g id="a_node9"><a xlink:href="v8-platform_8h.html" target="_top" xlink:title=" ">
<polygon fill="white" stroke="#666666" points="455.94,-190.62 383.69,-190.62 383.69,-171.38 455.94,-171.38 455.94,-190.62"/>
<text text-anchor="middle" x="419.81" y="-177.12" font-family="Helvetica,sans-Serif" font-size="10.00">v8&#45;platform.h</text>
</a>
</g>
</g>
<!-- Node3&#45;&gt;Node9 -->
<g id="edge10" class="edge">
<title>Node3&#45;&gt;Node9</title>
<path fill="none" stroke="#63b8ff" d="M109.06,-233.54C176.36,-222.37 303.91,-201.22 372.82,-189.79"/>
<polygon fill="#63b8ff" stroke="#63b8ff" points="373.07,-193.13 382.36,-188.05 371.92,-186.23 373.07,-193.13"/>
</g>
<!-- Node5 -->
<g id="node5" class="node">
<title>Node5</title>
<g id="a_node5"><a xlink:href="v8-source-location_8h.html" target="_top" xlink:title=" ">
<polygon fill="white" stroke="#666666" points="274.31,-129.75 171.31,-129.75 171.31,-110.5 274.31,-110.5 274.31,-129.75"/>
<text text-anchor="middle" x="222.81" y="-116.25" font-family="Helvetica,sans-Serif" font-size="10.00">v8&#45;source&#45;location.h</text>
</a>
</g>
</g>
<!-- Node4&#45;&gt;Node5 -->
<g id="edge5" class="edge">
<title>Node4&#45;&gt;Node5</title>
<path fill="none" stroke="#63b8ff" d="M217.72,-171.06C218.53,-163.1 219.75,-151.19 220.79,-140.99"/>
<polygon fill="#63b8ff" stroke="#63b8ff" points="224.36,-141.45 221.89,-131.15 217.4,-140.74 224.36,-141.45"/>
</g>
<!-- Node6 -->
<g id="node6" class="node">
<title>Node6</title>
<g id="a_node6"><a xlink:title=" ">
<polygon fill="#e0e0e0" stroke="#999999" points="246.94,-74.5 198.69,-74.5 198.69,-55.25 246.94,-55.25 246.94,-74.5"/>
<text text-anchor="middle" x="222.81" y="-61" font-family="Helvetica,sans-Serif" font-size="10.00">cstddef</text>
</a>
</g>
</g>
<!-- Node5&#45;&gt;Node6 -->
<g id="edge6" class="edge">
<title>Node5&#45;&gt;Node6</title>
<path fill="none" stroke="#63b8ff" d="M222.81,-110.33C222.81,-103.67 222.81,-94.24 222.81,-85.78"/>
<polygon fill="#63b8ff" stroke="#63b8ff" points="226.31,-85.86 222.81,-75.86 219.31,-85.86 226.31,-85.86"/>
</g>
<!-- Node7 -->
<g id="node7" class="node">
<title>Node7</title>
<g id="a_node7"><a xlink:title=" ">
<polygon fill="#e0e0e0" stroke="#999999" points="313.81,-74.5 273.81,-74.5 273.81,-55.25 313.81,-55.25 313.81,-74.5"/>
<text text-anchor="middle" x="293.81" y="-61" font-family="Helvetica,sans-Serif" font-size="10.00">string</text>
</a>
</g>
</g>
<!-- Node5&#45;&gt;Node7 -->
<g id="edge7" class="edge">
<title>Node5&#45;&gt;Node7</title>
<path fill="none" stroke="#63b8ff" d="M234.86,-110.09C245.32,-102.24 260.71,-90.7 273.15,-81.37"/>
<polygon fill="#63b8ff" stroke="#63b8ff" points="275.05,-83.57 280.95,-74.77 270.85,-77.97 275.05,-83.57"/>
</g>
<!-- Node5&#45;&gt;Node8 -->
<g id="edge8" class="edge">
<title>Node5&#45;&gt;Node8</title>
<path fill="none" stroke="#63b8ff" d="M206.02,-110.09C190.66,-101.83 167.69,-89.48 149.94,-79.93"/>
<polygon fill="#63b8ff" stroke="#63b8ff" points="152.15,-76.61 141.69,-74.95 148.84,-82.77 152.15,-76.61"/>
</g>
<!-- Node8&#45;&gt;Node2 -->
<g id="edge9" class="edge">
<title>Node8&#45;&gt;Node2</title>
<path fill="none" stroke="#63b8ff" d="M154.03,-59.87C165.27,-58.4 178.12,-56.73 189.81,-55.25 310.48,-40.01 453.65,-22.81 519.44,-14.95"/>
<polygon fill="#63b8ff" stroke="#63b8ff" points="519.55,-18.35 529.07,-13.69 518.72,-11.4 519.55,-18.35"/>
</g>
<!-- Node9&#45;&gt;Node2 -->
<g id="edge15" class="edge">
<title>Node9&#45;&gt;Node2</title>
<path fill="none" stroke="#63b8ff" d="M427.12,-170.89C448.9,-143.77 513.59,-63.21 542.08,-27.73"/>
<polygon fill="#63b8ff" stroke="#63b8ff" points="545.26,-30.36 548.79,-20.37 539.8,-25.97 545.26,-30.36"/>
</g>
<!-- Node9&#45;&gt;Node5 -->
<g id="edge17" class="edge">
<title>Node9&#45;&gt;Node5</title>
<path fill="none" stroke="#63b8ff" d="M389.46,-170.93C355.62,-160.82 300.74,-144.41 263.27,-133.22"/>
<polygon fill="#63b8ff" stroke="#63b8ff" points="264.78,-129.72 254.2,-130.21 262.78,-136.42 264.78,-129.72"/>
</g>
<!-- Node9&#45;&gt;Node7 -->
<g id="edge16" class="edge">
<title>Node9&#45;&gt;Node7</title>
<path fill="none" stroke="#63b8ff" d="M390.34,-170.91C368.93,-163.01 340.55,-149.66 321.81,-129.75 310.01,-117.21 302.68,-98.9 298.5,-85.09"/>
<polygon fill="#63b8ff" stroke="#63b8ff" points="301.7,-84.51 295.69,-75.78 294.94,-86.35 301.7,-84.51"/>
</g>
<!-- Node9&#45;&gt;Node8 -->
<g id="edge18" class="edge">
<title>Node9&#45;&gt;Node8</title>
<path fill="none" stroke="#63b8ff" d="M383.46,-176.52C321.35,-169.98 198.08,-154.29 162.81,-129.75 147.17,-118.87 136.66,-99.5 130.52,-84.93"/>
<polygon fill="#63b8ff" stroke="#63b8ff" points="133.54,-84.02 126.67,-75.95 127.01,-86.54 133.54,-84.02"/>
</g>
<!-- Node10 -->
<g id="node10" class="node">
<title>Node10</title>
<g id="a_node10"><a xlink:title=" ">
<polygon fill="#e0e0e0" stroke="#999999" points="544.44,-129.75 499.19,-129.75 499.19,-110.5 544.44,-110.5 544.44,-129.75"/>
<text text-anchor="middle" x="521.81" y="-116.25" font-family="Helvetica,sans-Serif" font-size="10.00">math.h</text>
</a>
</g>
</g>
<!-- Node9&#45;&gt;Node10 -->
<g id="edge11" class="edge">
<title>Node9&#45;&gt;Node10</title>
<path fill="none" stroke="#63b8ff" d="M435.3,-171.06C451.63,-161.63 477.59,-146.65 496.82,-135.55"/>
<polygon fill="#63b8ff" stroke="#63b8ff" points="498.26,-138.18 505.17,-130.15 494.76,-132.12 498.26,-138.18"/>
</g>
<!-- Node11 -->
<g id="node11" class="node">
<title>Node11</title>
<g id="a_node11"><a xlink:title=" ">
<polygon fill="#e0e0e0" stroke="#999999" points="613.06,-129.75 562.56,-129.75 562.56,-110.5 613.06,-110.5 613.06,-129.75"/>
<text text-anchor="middle" x="587.81" y="-116.25" font-family="Helvetica,sans-Serif" font-size="10.00">stddef.h</text>
</a>
</g>
</g>
<!-- Node9&#45;&gt;Node11 -->
<g id="edge12" class="edge">
<title>Node9&#45;&gt;Node11</title>
<path fill="none" stroke="#63b8ff" d="M445.69,-170.93C474.14,-160.96 520.03,-144.88 551.94,-133.7"/>
<polygon fill="#63b8ff" stroke="#63b8ff" points="552.9,-136.72 561.18,-130.11 550.58,-130.11 552.9,-136.72"/>
</g>
<!-- Node12 -->
<g id="node12" class="node">
<title>Node12</title>
<g id="a_node12"><a xlink:title=" ">
<polygon fill="#e0e0e0" stroke="#999999" points="378.56,-129.75 331.06,-129.75 331.06,-110.5 378.56,-110.5 378.56,-129.75"/>
<text text-anchor="middle" x="354.81" y="-116.25" font-family="Helvetica,sans-Serif" font-size="10.00">stdint.h</text>
</a>
</g>
</g>
<!-- Node9&#45;&gt;Node12 -->
<g id="edge13" class="edge">
<title>Node9&#45;&gt;Node12</title>
<path fill="none" stroke="#63b8ff" d="M409.94,-171.06C400.11,-162.15 384.79,-148.28 372.8,-137.42"/>
<polygon fill="#63b8ff" stroke="#63b8ff" points="375.54,-135.27 365.78,-131.15 370.84,-140.46 375.54,-135.27"/>
</g>
<!-- Node13 -->
<g id="node13" class="node">
<title>Node13</title>
<g id="a_node13"><a xlink:title=" ">
<polygon fill="#e0e0e0" stroke="#999999" points="443.19,-129.75 396.44,-129.75 396.44,-110.5 443.19,-110.5 443.19,-129.75"/>
<text text-anchor="middle" x="419.81" y="-116.25" font-family="Helvetica,sans-Serif" font-size="10.00">stdlib.h</text>
</a>
</g>
</g>
<!-- Node9&#45;&gt;Node13 -->
<g id="edge14" class="edge">
<title>Node9&#45;&gt;Node13</title>
<path fill="none" stroke="#63b8ff" d="M419.81,-171.06C419.81,-163.1 419.81,-151.19 419.81,-140.99"/>
<polygon fill="#63b8ff" stroke="#63b8ff" points="423.31,-141.15 419.81,-131.15 416.31,-141.15 423.31,-141.15"/>
</g>
<!-- Node14&#45;&gt;Node2 -->
<g id="edge21" class="edge">
<title>Node14&#45;&gt;Node2</title>
<path fill="none" stroke="#63b8ff" d="M489.33,-287.25C491.13,-264.16 499.05,-201.56 532.81,-165.75 562.08,-134.7 597.96,-165.13 621.81,-129.75 645.67,-94.37 603.09,-49.67 575.89,-26.38"/>
<polygon fill="#63b8ff" stroke="#63b8ff" points="578.64,-23.28 568.7,-19.6 574.17,-28.67 578.64,-23.28"/>
</g>
<!-- Node14&#45;&gt;Node8 -->
<g id="edge32" class="edge">
<title>Node14&#45;&gt;Node8</title>
<path fill="none" stroke="#63b8ff" d="M430.3,-296.41C353.87,-293.41 221.29,-276.07 148.81,-196.25 121.01,-165.63 119.9,-113.88 121.72,-85.66"/>
<polygon fill="#63b8ff" stroke="#63b8ff" points="125.28,-86.09 122.65,-75.83 118.31,-85.5 125.28,-86.09"/>
</g>
<!-- Node14&#45;&gt;Node9 -->
<g id="edge31" class="edge">
<title>Node14&#45;&gt;Node9</title>
<path fill="none" stroke="#63b8ff" d="M483.4,-287.17C472.11,-268.5 445.88,-225.11 430.87,-200.29"/>
<polygon fill="#63b8ff" stroke="#63b8ff" points="433.37,-198.66 425.2,-191.91 427.38,-202.28 433.37,-198.66"/>
</g>
<!-- Node15 -->
<g id="node15" class="node">
<title>Node15</title>
<g id="a_node15"><a xlink:href="libplatform-export_8h.html" target="_top" xlink:title=" ">
<polygon fill="white" stroke="#666666" points="650.31,-196.25 541.31,-196.25 541.31,-165.75 650.31,-165.75 650.31,-196.25"/>
<text text-anchor="start" x="549.31" y="-182.75" font-family="Helvetica,sans-Serif" font-size="10.00">libplatform/libplatform</text>
<text text-anchor="middle" x="595.81" y="-171.5" font-family="Helvetica,sans-Serif" font-size="10.00">&#45;export.h</text>
</a>
</g>
</g>
<!-- Node14&#45;&gt;Node15 -->
<g id="edge22" class="edge">
<title>Node14&#45;&gt;Node15</title>
<path fill="none" stroke="#63b8ff" d="M497.21,-287.17C513.76,-269.51 551.06,-229.73 574.74,-204.48"/>
<polygon fill="#63b8ff" stroke="#63b8ff" points="576.91,-207.21 581.2,-197.52 571.81,-202.42 576.91,-207.21"/>
</g>
<!-- Node16 -->
<g id="node16" class="node">
<title>Node16</title>
<g id="a_node16"><a xlink:href="v8-tracing_8h.html" target="_top" xlink:title=" ">
<polygon fill="white" stroke="#666666" points="746.94,-251.5 632.69,-251.5 632.69,-232.25 746.94,-232.25 746.94,-251.5"/>
<text text-anchor="middle" x="689.81" y="-238" font-family="Helvetica,sans-Serif" font-size="10.00">libplatform/v8&#45;tracing.h</text>
</a>
</g>
</g>
<!-- Node14&#45;&gt;Node16 -->
<g id="edge23" class="edge">
<title>Node14&#45;&gt;Node16</title>
<path fill="none" stroke="#63b8ff" d="M522.91,-287.09C556.55,-278.18 608.16,-264.51 645.08,-254.73"/>
<polygon fill="#63b8ff" stroke="#63b8ff" points="645.78,-257.9 654.55,-251.95 643.99,-251.13 645.78,-257.9"/>
</g>
<!-- Node16&#45;&gt;Node2 -->
<g id="edge26" class="edge">
<title>Node16&#45;&gt;Node2</title>
<path fill="none" stroke="#63b8ff" d="M690.8,-231.98C693.51,-203.06 698.22,-110.4 654.81,-55.25 639.35,-35.61 613.35,-24.34 591.87,-18.04"/>
<polygon fill="#63b8ff" stroke="#63b8ff" points="593.01,-14.46 582.44,-15.26 591.2,-21.22 593.01,-14.46"/>
</g>
<!-- Node16&#45;&gt;Node9 -->
<g id="edge30" class="edge">
<title>Node16&#45;&gt;Node9</title>
<path fill="none" stroke="#63b8ff" d="M648.22,-231.8C599.19,-221.11 517.93,-203.4 466.71,-192.23"/>
<polygon fill="#63b8ff" stroke="#63b8ff" points="467.77,-188.66 457.26,-189.95 466.28,-195.5 467.77,-188.66"/>
</g>
<!-- Node16&#45;&gt;Node15 -->
<g id="edge29" class="edge">
<title>Node16&#45;&gt;Node15</title>
<path fill="none" stroke="#63b8ff" d="M675.54,-231.93C663,-224.08 644.3,-212.37 628.16,-202.26"/>
<polygon fill="#63b8ff" stroke="#63b8ff" points="630.35,-198.87 620.01,-196.53 626.63,-204.81 630.35,-198.87"/>
</g>
<!-- Node17 -->
<g id="node17" class="node">
<title>Node17</title>
<g id="a_node17"><a xlink:title=" ">
<polygon fill="#e0e0e0" stroke="#999999" points="752.44,-190.62 707.19,-190.62 707.19,-171.38 752.44,-171.38 752.44,-190.62"/>
<text text-anchor="middle" x="729.81" y="-177.12" font-family="Helvetica,sans-Serif" font-size="10.00">atomic</text>
</a>
</g>
</g>
<!-- Node16&#45;&gt;Node17 -->
<g id="edge24" class="edge">
<title>Node16&#45;&gt;Node17</title>
<path fill="none" stroke="#63b8ff" d="M695.89,-231.93C701.64,-223.46 710.45,-210.49 717.65,-199.89"/>
<polygon fill="#63b8ff" stroke="#63b8ff" points="720.96,-202.26 723.68,-192.03 715.17,-198.33 720.96,-202.26"/>
</g>
<!-- Node18 -->
<g id="node18" class="node">
<title>Node18</title>
<g id="a_node18"><a xlink:title=" ">
<polygon fill="#e0e0e0" stroke="#999999" points="819.31,-190.62 770.31,-190.62 770.31,-171.38 819.31,-171.38 819.31,-190.62"/>
<text text-anchor="middle" x="794.81" y="-177.12" font-family="Helvetica,sans-Serif" font-size="10.00">fstream</text>
</a>
</g>
</g>
<!-- Node16&#45;&gt;Node18 -->
<g id="edge25" class="edge">
<title>Node16&#45;&gt;Node18</title>
<path fill="none" stroke="#63b8ff" d="M705.76,-231.93C722.64,-222.47 749.54,-207.39 769.36,-196.27"/>
<polygon fill="#63b8ff" stroke="#63b8ff" points="770.7,-198.97 777.72,-191.03 767.28,-192.86 770.7,-198.97"/>
</g>
<!-- Node19 -->
<g id="node19" class="node">
<title>Node19</title>
<g id="a_node19"><a xlink:title=" ">
<polygon fill="#e0e0e0" stroke="#999999" points="914.56,-190.62 837.06,-190.62 837.06,-171.38 914.56,-171.38 914.56,-190.62"/>
<text text-anchor="middle" x="875.81" y="-177.12" font-family="Helvetica,sans-Serif" font-size="10.00">unordered_set</text>
</a>
</g>
</g>
<!-- Node16&#45;&gt;Node19 -->
<g id="edge27" class="edge">
<title>Node16&#45;&gt;Node19</title>
<path fill="none" stroke="#63b8ff" d="M718.47,-231.8C750.14,-221.78 801.35,-205.57 836.7,-194.38"/>
<polygon fill="#63b8ff" stroke="#63b8ff" points="837.65,-197.44 846.12,-191.08 835.53,-190.76 837.65,-197.44"/>
</g>
<!-- Node20 -->
<g id="node20" class="node">
<title>Node20</title>
<g id="a_node20"><a xlink:title=" ">
<polygon fill="#e0e0e0" stroke="#999999" points="975.31,-190.62 932.31,-190.62 932.31,-171.38 975.31,-171.38 975.31,-190.62"/>
<text text-anchor="middle" x="953.81" y="-177.12" font-family="Helvetica,sans-Serif" font-size="10.00">vector</text>
</a>
</g>
</g>
<!-- Node16&#45;&gt;Node20 -->
<g id="edge28" class="edge">
<title>Node16&#45;&gt;Node20</title>
<path fill="none" stroke="#63b8ff" d="M747.1,-234.11C795.11,-227.45 865.04,-215.46 923.81,-196.25 924.75,-195.94 925.69,-195.62 926.64,-195.27"/>
<polygon fill="#63b8ff" stroke="#63b8ff" points="927.8,-198.16 935.67,-191.06 925.1,-191.7 927.8,-198.16"/>
</g>
</g>
</svg>
