<?xml version="1.0" encoding="UTF-8" standalone="no"?>
<!DOCTYPE svg PUBLIC "-//W3C//DTD SVG 1.1//EN"
 "http://www.w3.org/Graphics/SVG/1.1/DTD/svg11.dtd">
<!-- Generated by graphviz version 8.0.5 (20230430.1635)
 -->
<!-- Title: include/v8&#45;inspector&#45;protocol.h Pages: 1 -->
<svg width="3208pt" height="867pt"
 viewBox="0.00 0.00 3208.26 867.25" xmlns="http://www.w3.org/2000/svg" xmlns:xlink="http://www.w3.org/1999/xlink">
<g id="graph0" class="graph" transform="scale(1 1) rotate(0) translate(4 863.25)">
<title>include/v8&#45;inspector&#45;protocol.h</title>
<!-- Node1 -->
<g id="node1" class="node">
<title>Node1</title>
<g id="a_node1"><a xlink:title=" ">
<polygon fill="#999999" stroke="#666666" points="288.25,-859.25 185.25,-859.25 185.25,-828.75 288.25,-828.75 288.25,-859.25"/>
<text text-anchor="start" x="193.25" y="-845.75" font-family="Helvetica,sans-Serif" font-size="10.00">include/v8&#45;inspector</text>
<text text-anchor="middle" x="236.75" y="-834.5" font-family="Helvetica,sans-Serif" font-size="10.00">&#45;protocol.h</text>
</a>
</g>
</g>
<!-- Node2 -->
<g id="node2" class="node">
<title>Node2</title>
<g id="a_node2"><a xlink:title=" ">
<polygon fill="#e0e0e0" stroke="#999999" points="107.5,-792.75 0,-792.75 0,-773.5 107.5,-773.5 107.5,-792.75"/>
<text text-anchor="middle" x="53.75" y="-779.25" font-family="Helvetica,sans-Serif" font-size="10.00">inspector/Debugger.h</text>
</a>
</g>
</g>
<!-- Node1&#45;&gt;Node2 -->
<g id="edge1" class="edge">
<title>Node1&#45;&gt;Node2</title>
<path fill="none" stroke="#63b8ff" d="M191.04,-828.3C160.59,-818.5 121.02,-805.77 92.18,-796.49"/>
<polygon fill="#63b8ff" stroke="#63b8ff" points="93.68,-792.97 83.08,-793.24 91.53,-799.64 93.68,-792.97"/>
</g>
<!-- Node3 -->
<g id="node3" class="node">
<title>Node3</title>
<g id="a_node3"><a xlink:title=" ">
<polygon fill="#e0e0e0" stroke="#999999" points="227.88,-792.75 125.62,-792.75 125.62,-773.5 227.88,-773.5 227.88,-792.75"/>
<text text-anchor="middle" x="176.75" y="-779.25" font-family="Helvetica,sans-Serif" font-size="10.00">inspector/Runtime.h</text>
</a>
</g>
</g>
<!-- Node1&#45;&gt;Node3 -->
<g id="edge2" class="edge">
<title>Node1&#45;&gt;Node3</title>
<path fill="none" stroke="#63b8ff" d="M221.92,-828.45C213.4,-820.09 202.66,-809.55 193.8,-800.85"/>
<polygon fill="#63b8ff" stroke="#63b8ff" points="196.59,-798.71 187,-794.2 191.69,-803.7 196.59,-798.71"/>
</g>
<!-- Node4 -->
<g id="node4" class="node">
<title>Node4</title>
<g id="a_node4"><a xlink:title=" ">
<polygon fill="#e0e0e0" stroke="#999999" points="347.88,-792.75 245.62,-792.75 245.62,-773.5 347.88,-773.5 347.88,-792.75"/>
<text text-anchor="middle" x="296.75" y="-779.25" font-family="Helvetica,sans-Serif" font-size="10.00">inspector/Schema.h</text>
</a>
</g>
</g>
<!-- Node1&#45;&gt;Node4 -->
<g id="edge3" class="edge">
<title>Node1&#45;&gt;Node4</title>
<path fill="none" stroke="#63b8ff" d="M251.58,-828.45C260.1,-820.09 270.84,-809.55 279.7,-800.85"/>
<polygon fill="#63b8ff" stroke="#63b8ff" points="281.81,-803.7 286.5,-794.2 276.91,-798.71 281.81,-803.7"/>
</g>
<!-- Node5 -->
<g id="node5" class="node">
<title>Node5</title>
<g id="a_node5"><a xlink:href="v8-inspector_8h.html" target="_top" xlink:title=" ">
<polygon fill="white" stroke="#666666" points="443.12,-792.75 366.38,-792.75 366.38,-773.5 443.12,-773.5 443.12,-792.75"/>
<text text-anchor="middle" x="404.75" y="-779.25" font-family="Helvetica,sans-Serif" font-size="10.00">v8&#45;inspector.h</text>
</a>
</g>
</g>
<!-- Node1&#45;&gt;Node5 -->
<g id="edge4" class="edge">
<title>Node1&#45;&gt;Node5</title>
<path fill="none" stroke="#63b8ff" d="M278.71,-828.3C306.39,-818.6 342.27,-806.02 368.66,-796.77"/>
<polygon fill="#63b8ff" stroke="#63b8ff" points="369.71,-799.76 377.99,-793.15 367.39,-793.16 369.71,-799.76"/>
</g>
<!-- Node6 -->
<g id="node6" class="node">
<title>Node6</title>
<g id="a_node6"><a xlink:title=" ">
<polygon fill="#e0e0e0" stroke="#999999" points="580.5,-74.5 533,-74.5 533,-55.25 580.5,-55.25 580.5,-74.5"/>
<text text-anchor="middle" x="556.75" y="-61" font-family="Helvetica,sans-Serif" font-size="10.00">stdint.h</text>
</a>
</g>
</g>
<!-- Node5&#45;&gt;Node6 -->
<g id="edge5" class="edge">
<title>Node5&#45;&gt;Node6</title>
<path fill="none" stroke="#63b8ff" d="M399.31,-773.21C388.8,-755.13 366.75,-712.54 366.75,-673.62 366.75,-673.62 366.75,-673.62 366.75,-395.38 366.75,-258.5 386.82,-207.14 483.75,-110.5 496.31,-97.97 513.04,-87.42 527.32,-79.73"/>
<polygon fill="#63b8ff" stroke="#63b8ff" points="528.45,-82.57 535.73,-74.87 525.24,-76.35 528.45,-82.57"/>
</g>
<!-- Node7 -->
<g id="node7" class="node">
<title>Node7</title>
<g id="a_node7"><a xlink:title=" ">
<polygon fill="#e0e0e0" stroke="#999999" points="1951,-737.5 1906.5,-737.5 1906.5,-718.25 1951,-718.25 1951,-737.5"/>
<text text-anchor="middle" x="1928.75" y="-724" font-family="Helvetica,sans-Serif" font-size="10.00">cctype</text>
</a>
</g>
</g>
<!-- Node5&#45;&gt;Node7 -->
<g id="edge6" class="edge">
<title>Node5&#45;&gt;Node7</title>
<path fill="none" stroke="#63b8ff" d="M443.6,-782.23C646.1,-782.6 1582.99,-781.9 1895.35,-737.43"/>
<polygon fill="#63b8ff" stroke="#63b8ff" points="1895.82,-740.75 1905.2,-735.83 1894.8,-733.82 1895.82,-740.75"/>
</g>
<!-- Node8 -->
<g id="node8" class="node">
<title>Node8</title>
<g id="a_node8"><a xlink:title=" ">
<polygon fill="#e0e0e0" stroke="#999999" points="1718,-19.25 1667.5,-19.25 1667.5,0 1718,0 1718,-19.25"/>
<text text-anchor="middle" x="1692.75" y="-5.75" font-family="Helvetica,sans-Serif" font-size="10.00">memory</text>
</a>
</g>
</g>
<!-- Node5&#45;&gt;Node8 -->
<g id="edge7" class="edge">
<title>Node5&#45;&gt;Node8</title>
<path fill="none" stroke="#63b8ff" d="M392.54,-773.19C371.06,-756.33 328.75,-717.55 328.75,-673.62 328.75,-673.62 328.75,-673.62 328.75,-119.12 328.75,-80.18 353.27,-71.33 388.75,-55.25 448.01,-28.4 1451.46,-13.8 1656.38,-11.09"/>
<polygon fill="#63b8ff" stroke="#63b8ff" points="1656.18,-14.58 1666.14,-10.95 1656.09,-7.58 1656.18,-14.58"/>
</g>
<!-- Node9 -->
<g id="node9" class="node">
<title>Node9</title>
<g id="a_node9"><a xlink:href="v8-isolate_8h.html" target="_top" xlink:title=" ">
<polygon fill="white" stroke="#666666" points="1888.5,-737.5 1823,-737.5 1823,-718.25 1888.5,-718.25 1888.5,-737.5"/>
<text text-anchor="middle" x="1855.75" y="-724" font-family="Helvetica,sans-Serif" font-size="10.00">v8&#45;isolate.h</text>
</a>
</g>
</g>
<!-- Node5&#45;&gt;Node9 -->
<g id="edge8" class="edge">
<title>Node5&#45;&gt;Node9</title>
<path fill="none" stroke="#63b8ff" d="M443.56,-780.7C647.67,-773.21 1595.66,-738.42 1811.8,-730.49"/>
<polygon fill="#63b8ff" stroke="#63b8ff" points="1811.83,-733.95 1821.69,-730.09 1811.57,-726.96 1811.83,-733.95"/>
</g>
<!-- Node15 -->
<g id="node15" class="node">
<title>Node15</title>
<g id="a_node15"><a xlink:href="v8-local-handle_8h.html" target="_top" xlink:title=" ">
<polygon fill="white" stroke="#666666" points="1399.12,-240.25 1310.38,-240.25 1310.38,-221 1399.12,-221 1399.12,-240.25"/>
<text text-anchor="middle" x="1354.75" y="-226.75" font-family="Helvetica,sans-Serif" font-size="10.00">v8&#45;local&#45;handle.h</text>
</a>
</g>
</g>
<!-- Node5&#45;&gt;Node15 -->
<g id="edge153" class="edge">
<title>Node5&#45;&gt;Node15</title>
<path fill="none" stroke="#63b8ff" d="M406.76,-773.21C418.04,-725.31 478.11,-496.42 618.75,-386.75 726.12,-303.03 1146.93,-252.77 1299.29,-237.01"/>
<polygon fill="#63b8ff" stroke="#63b8ff" points="1299.63,-240.39 1309.22,-235.89 1298.91,-233.43 1299.63,-240.39"/>
</g>
<!-- Node9&#45;&gt;Node6 -->
<g id="edge10" class="edge">
<title>Node9&#45;&gt;Node6</title>
<path fill="none" stroke="#63b8ff" d="M1822.6,-726.64C1661.32,-725.32 957.72,-717.6 741.75,-682.25 576.39,-655.19 442.75,-620.18 442.75,-452.62 442.75,-452.62 442.75,-452.62 442.75,-229.62 442.75,-165.35 502.64,-108.22 535.6,-81.65"/>
<polygon fill="#63b8ff" stroke="#63b8ff" points="537.4,-83.9 543.11,-74.98 533.08,-78.39 537.4,-83.9"/>
</g>
<!-- Node9&#45;&gt;Node8 -->
<g id="edge11" class="edge">
<title>Node9&#45;&gt;Node8</title>
<path fill="none" stroke="#63b8ff" d="M1822.56,-726.38C1639.6,-723.54 757.93,-708.59 639.75,-682.25 525.46,-656.78 404.75,-680.22 404.75,-563.12 404.75,-563.12 404.75,-563.12 404.75,-395.38 404.75,-320.66 366.75,-306.34 366.75,-231.62 366.75,-231.62 366.75,-231.62 366.75,-119.12 366.75,-53.55 436.09,-71 499.75,-55.25 614.24,-26.92 1468.21,-13.69 1656.21,-11.1"/>
<polygon fill="#63b8ff" stroke="#63b8ff" points="1656.18,-14.59 1666.13,-10.96 1656.08,-7.59 1656.18,-14.59"/>
</g>
<!-- Node10 -->
<g id="node10" class="node">
<title>Node10</title>
<g id="a_node10"><a xlink:title=" ">
<polygon fill="#e0e0e0" stroke="#999999" points="931,-74.5 880.5,-74.5 880.5,-55.25 931,-55.25 931,-74.5"/>
<text text-anchor="middle" x="905.75" y="-61" font-family="Helvetica,sans-Serif" font-size="10.00">stddef.h</text>
</a>
</g>
</g>
<!-- Node9&#45;&gt;Node10 -->
<g id="edge9" class="edge">
<title>Node9&#45;&gt;Node10</title>
<path fill="none" stroke="#63b8ff" d="M1822.66,-725.89C1620.16,-719.67 556.75,-683.9 556.75,-618.38 556.75,-618.38 556.75,-618.38 556.75,-561.12 556.75,-330.57 631.43,-251.63 813.75,-110.5 830.76,-97.33 852.29,-86.63 870.24,-79.01"/>
<polygon fill="#63b8ff" stroke="#63b8ff" points="871.41,-81.9 879.34,-74.88 868.76,-75.42 871.41,-81.9"/>
</g>
<!-- Node11 -->
<g id="node11" class="node">
<title>Node11</title>
<g id="a_node11"><a xlink:title=" ">
<polygon fill="#e0e0e0" stroke="#999999" points="1721,-240.25 1682.5,-240.25 1682.5,-221 1721,-221 1721,-240.25"/>
<text text-anchor="middle" x="1701.75" y="-226.75" font-family="Helvetica,sans-Serif" font-size="10.00">utility</text>
</a>
</g>
</g>
<!-- Node9&#45;&gt;Node11 -->
<g id="edge12" class="edge">
<title>Node9&#45;&gt;Node11</title>
<path fill="none" stroke="#63b8ff" d="M1888.73,-719.9C1891.77,-719.32 1894.82,-718.76 1897.75,-718.25 2052.78,-691.31 2598.75,-775.73 2598.75,-618.38 2598.75,-618.38 2598.75,-618.38 2598.75,-505.88 2598.75,-186.55 2207.94,-414.84 1911.75,-295.5 1894.19,-288.42 1891.51,-282.81 1873.75,-276.25 1813.59,-254.04 1792.78,-259.08 1731.89,-241.93"/>
<polygon fill="#63b8ff" stroke="#63b8ff" points="1732.92,-238.3 1722.34,-238.86 1730.96,-245.02 1732.92,-238.3"/>
</g>
<!-- Node12 -->
<g id="node12" class="node">
<title>Node12</title>
<g id="a_node12"><a xlink:href="common_8h.html" target="_top" xlink:title=" ">
<polygon fill="white" stroke="#666666" points="2850.88,-516.5 2760.62,-516.5 2760.62,-497.25 2850.88,-497.25 2850.88,-516.5"/>
<text text-anchor="middle" x="2805.75" y="-503" font-family="Helvetica,sans-Serif" font-size="10.00">cppgc/common.h</text>
</a>
</g>
</g>
<!-- Node9&#45;&gt;Node12 -->
<g id="edge13" class="edge">
<title>Node9&#45;&gt;Node12</title>
<path fill="none" stroke="#63b8ff" d="M1888.68,-719.58C1891.74,-719.06 1894.79,-718.61 1897.75,-718.25 1950.3,-711.91 2813.04,-720.38 2849.75,-682.25 2891.91,-638.46 2844.49,-560.42 2819.37,-525.55"/>
<polygon fill="#63b8ff" stroke="#63b8ff" points="2821.73,-523.87 2812.96,-517.93 2816.11,-528.04 2821.73,-523.87"/>
</g>
<!-- Node13 -->
<g id="node13" class="node">
<title>Node13</title>
<g id="a_node13"><a xlink:href="v8config_8h.html" target="_top" xlink:title=" ">
<polygon fill="white" stroke="#666666" points="2508.5,-74.5 2449,-74.5 2449,-55.25 2508.5,-55.25 2508.5,-74.5"/>
<text text-anchor="middle" x="2478.75" y="-61" font-family="Helvetica,sans-Serif" font-size="10.00">v8config.h</text>
</a>
</g>
</g>
<!-- Node9&#45;&gt;Node13 -->
<g id="edge152" class="edge">
<title>Node9&#45;&gt;Node13</title>
<path fill="none" stroke="#63b8ff" d="M1888.68,-719.57C1891.74,-719.06 1894.79,-718.6 1897.75,-718.25 2121.63,-691.48 2696.63,-749.8 2911.75,-682.25 2961.71,-666.56 3010.75,-670.74 3010.75,-618.38 3010.75,-618.38 3010.75,-618.38 3010.75,-174.38 3010.75,-129.57 2974.16,-127.62 2932.75,-110.5 2858.48,-79.79 2616.6,-69.72 2519.57,-66.87"/>
<polygon fill="#63b8ff" stroke="#63b8ff" points="2519.84,-63.35 2509.75,-66.57 2519.64,-70.35 2519.84,-63.35"/>
</g>
<!-- Node14 -->
<g id="node14" class="node">
<title>Node14</title>
<g id="a_node14"><a xlink:href="v8-array-buffer_8h.html" target="_top" xlink:title=" ">
<polygon fill="white" stroke="#666666" points="1098.25,-516.5 1013.25,-516.5 1013.25,-497.25 1098.25,-497.25 1098.25,-516.5"/>
<text text-anchor="middle" x="1055.75" y="-503" font-family="Helvetica,sans-Serif" font-size="10.00">v8&#45;array&#45;buffer.h</text>
</a>
</g>
</g>
<!-- Node9&#45;&gt;Node14 -->
<g id="edge16" class="edge">
<title>Node9&#45;&gt;Node14</title>
<path fill="none" stroke="#63b8ff" d="M1822.92,-727.04C1686.58,-727.45 1169.52,-726.08 1112.75,-682.25 1064.05,-644.65 1056.39,-564.52 1055.56,-527.44"/>
<polygon fill="#63b8ff" stroke="#63b8ff" points="1059.06,-527.62 1055.5,-517.64 1052.06,-527.66 1059.06,-527.62"/>
</g>
<!-- Node9&#45;&gt;Node15 -->
<g id="edge131" class="edge">
<title>Node9&#45;&gt;Node15</title>
<path fill="none" stroke="#63b8ff" d="M1822.53,-725.49C1679.92,-719.1 1126.75,-689.71 1126.75,-618.38 1126.75,-618.38 1126.75,-618.38 1126.75,-395.38 1126.75,-308.29 1237.84,-263 1304.93,-243.58"/>
<polygon fill="#63b8ff" stroke="#63b8ff" points="1305.61,-246.75 1314.3,-240.68 1303.72,-240 1305.61,-246.75"/>
</g>
<!-- Node19 -->
<g id="node19" class="node">
<title>Node19</title>
<g id="a_node19"><a xlink:href="v8-internal_8h.html" target="_top" xlink:title=" ">
<polygon fill="white" stroke="#666666" points="1520,-129.75 1451.5,-129.75 1451.5,-110.5 1520,-110.5 1520,-129.75"/>
<text text-anchor="middle" x="1485.75" y="-116.25" font-family="Helvetica,sans-Serif" font-size="10.00">v8&#45;internal.h</text>
</a>
</g>
</g>
<!-- Node9&#45;&gt;Node19 -->
<g id="edge130" class="edge">
<title>Node9&#45;&gt;Node19</title>
<path fill="none" stroke="#63b8ff" d="M1822.87,-727.25C1688.05,-728.44 1177.57,-729.67 1024.75,-682.25 901.99,-644.16 837.34,-635.09 787.75,-516.5 713.09,-337.96 865.82,-236.99 1045.75,-165.75 1207.18,-101.83 1265.1,-153.07 1440.19,-129.93"/>
<polygon fill="#63b8ff" stroke="#63b8ff" points="1440.65,-133.26 1450.07,-128.41 1439.69,-126.32 1440.65,-133.26"/>
</g>
<!-- Node27 -->
<g id="node27" class="node">
<title>Node27</title>
<g id="a_node27"><a xlink:href="v8-persistent-handle_8h.html" target="_top" xlink:title=" ">
<polygon fill="white" stroke="#666666" points="2298.38,-295.5 2187.12,-295.5 2187.12,-276.25 2298.38,-276.25 2298.38,-295.5"/>
<text text-anchor="middle" x="2242.75" y="-282" font-family="Helvetica,sans-Serif" font-size="10.00">v8&#45;persistent&#45;handle.h</text>
</a>
</g>
</g>
<!-- Node9&#45;&gt;Node27 -->
<g id="edge133" class="edge">
<title>Node9&#45;&gt;Node27</title>
<path fill="none" stroke="#63b8ff" d="M1888.68,-719.61C1891.74,-719.09 1894.8,-718.62 1897.75,-718.25 2064.41,-697.29 2495.59,-741.53 2652.75,-682.25 2695.32,-666.19 2732.75,-663.87 2732.75,-618.38 2732.75,-618.38 2732.75,-618.38 2732.75,-561.12 2732.75,-459.02 2808.64,-406.86 2739.75,-331.5 2725.43,-315.84 2441.73,-298 2309.52,-290.5"/>
<polygon fill="#63b8ff" stroke="#63b8ff" points="2309.91,-286.96 2299.73,-289.89 2309.52,-293.95 2309.91,-286.96"/>
</g>
<!-- Node29 -->
<g id="node29" class="node">
<title>Node29</title>
<g id="a_node29"><a xlink:href="v8-primitive_8h.html" target="_top" xlink:title=" ">
<polygon fill="white" stroke="#666666" points="1776.62,-406 1702.88,-406 1702.88,-386.75 1776.62,-386.75 1776.62,-406"/>
<text text-anchor="middle" x="1739.75" y="-392.5" font-family="Helvetica,sans-Serif" font-size="10.00">v8&#45;primitive.h</text>
</a>
</g>
</g>
<!-- Node9&#45;&gt;Node29 -->
<g id="edge134" class="edge">
<title>Node9&#45;&gt;Node29</title>
<path fill="none" stroke="#63b8ff" d="M1888.77,-719.06C1923.33,-710.34 1974.62,-695.68 1989.75,-682.25 2033.79,-643.14 2041.67,-605.87 2016.75,-552.5 1974.74,-462.55 1854.73,-422.38 1787.27,-406.47"/>
<polygon fill="#63b8ff" stroke="#63b8ff" points="1788.44,-402.92 1777.91,-404.13 1786.89,-409.75 1788.44,-402.92"/>
</g>
<!-- Node30 -->
<g id="node30" class="node">
<title>Node30</title>
<g id="a_node30"><a xlink:href="v8-data_8h.html" target="_top" xlink:title=" ">
<polygon fill="white" stroke="#666666" points="1864.62,-295.5 1808.88,-295.5 1808.88,-276.25 1864.62,-276.25 1864.62,-295.5"/>
<text text-anchor="middle" x="1836.75" y="-282" font-family="Helvetica,sans-Serif" font-size="10.00">v8&#45;data.h</text>
</a>
</g>
</g>
<!-- Node9&#45;&gt;Node30 -->
<g id="edge94" class="edge">
<title>Node9&#45;&gt;Node30</title>
<path fill="none" stroke="#63b8ff" d="M1888.95,-718.9C1932.06,-708.32 2002.99,-690.06 2012.75,-682.25 2097.75,-614.19 2091.76,-546.38 2060.75,-442 2041.72,-377.93 2016.62,-364.93 1958.75,-331.5 1932.55,-316.37 1900.31,-304.84 1875.55,-297.3"/>
<polygon fill="#63b8ff" stroke="#63b8ff" points="1876.68,-293.68 1866.1,-294.21 1874.7,-300.4 1876.68,-293.68"/>
</g>
<!-- Node36 -->
<g id="node36" class="node">
<title>Node36</title>
<g id="a_node36"><a xlink:href="v8-callbacks_8h.html" target="_top" xlink:title=" ">
<polygon fill="white" stroke="#666666" points="1760.88,-571.75 1682.62,-571.75 1682.62,-552.5 1760.88,-552.5 1760.88,-571.75"/>
<text text-anchor="middle" x="1721.75" y="-558.25" font-family="Helvetica,sans-Serif" font-size="10.00">v8&#45;callbacks.h</text>
</a>
</g>
</g>
<!-- Node9&#45;&gt;Node36 -->
<g id="edge82" class="edge">
<title>Node9&#45;&gt;Node36</title>
<path fill="none" stroke="#63b8ff" d="M1847.05,-717.84C1838.6,-708.96 1825.5,-694.93 1814.75,-682.25 1784.93,-647.06 1752.22,-604.03 1734.64,-580.52"/>
<polygon fill="#63b8ff" stroke="#63b8ff" points="1737.06,-578.92 1728.28,-572.98 1731.45,-583.1 1737.06,-578.92"/>
</g>
<!-- Node40 -->
<g id="node40" class="node">
<title>Node40</title>
<g id="a_node40"><a xlink:href="v8-debug_8h.html" target="_top" xlink:title=" ">
<polygon fill="white" stroke="#666666" points="1887.38,-682.25 1824.12,-682.25 1824.12,-663 1887.38,-663 1887.38,-682.25"/>
<text text-anchor="middle" x="1855.75" y="-668.75" font-family="Helvetica,sans-Serif" font-size="10.00">v8&#45;debug.h</text>
</a>
</g>
</g>
<!-- Node9&#45;&gt;Node40 -->
<g id="edge95" class="edge">
<title>Node9&#45;&gt;Node40</title>
<path fill="none" stroke="#63b8ff" d="M1855.75,-718.08C1855.75,-711.42 1855.75,-701.99 1855.75,-693.53"/>
<polygon fill="#63b8ff" stroke="#63b8ff" points="1859.25,-693.61 1855.75,-683.61 1852.25,-693.61 1859.25,-693.61"/>
</g>
<!-- Node47 -->
<g id="node45" class="node">
<title>Node47</title>
<g id="a_node45"><a xlink:href="v8-embedder-heap_8h.html" target="_top" xlink:title=" ">
<polygon fill="white" stroke="#666666" points="2730.62,-350.75 2626.88,-350.75 2626.88,-331.5 2730.62,-331.5 2730.62,-350.75"/>
<text text-anchor="middle" x="2678.75" y="-337.25" font-family="Helvetica,sans-Serif" font-size="10.00">v8&#45;embedder&#45;heap.h</text>
</a>
</g>
</g>
<!-- Node9&#45;&gt;Node47 -->
<g id="edge120" class="edge">
<title>Node9&#45;&gt;Node47</title>
<path fill="none" stroke="#63b8ff" d="M1888.69,-719.62C1891.74,-719.09 1894.8,-718.63 1897.75,-718.25 2055.57,-698.19 2463.64,-737.7 2612.75,-682.25 2656.05,-666.15 2694.75,-664.57 2694.75,-618.38 2694.75,-618.38 2694.75,-618.38 2694.75,-450.62 2694.75,-419.28 2688.13,-383.39 2683.41,-361.75"/>
<polygon fill="#63b8ff" stroke="#63b8ff" points="2686.61,-361.03 2680.97,-352.06 2679.78,-362.59 2686.61,-361.03"/>
</g>
<!-- Node48 -->
<g id="node46" class="node">
<title>Node48</title>
<g id="a_node46"><a xlink:href="v8-function-callback_8h.html" target="_top" xlink:title=" ">
<polygon fill="white" stroke="#666666" points="1777,-461.25 1666.5,-461.25 1666.5,-442 1777,-442 1777,-461.25"/>
<text text-anchor="middle" x="1721.75" y="-447.75" font-family="Helvetica,sans-Serif" font-size="10.00">v8&#45;function&#45;callback.h</text>
</a>
</g>
</g>
<!-- Node9&#45;&gt;Node48 -->
<g id="edge123" class="edge">
<title>Node9&#45;&gt;Node48</title>
<path fill="none" stroke="#63b8ff" d="M1888.74,-718.41C1932.08,-705.07 2002.75,-674.68 2002.75,-618.38 2002.75,-618.38 2002.75,-618.38 2002.75,-561.12 2002.75,-514.66 1867.34,-480.42 1784.52,-463.82"/>
<polygon fill="#63b8ff" stroke="#63b8ff" points="1785.43,-460.24 1774.95,-461.74 1784.08,-467.11 1785.43,-460.24"/>
</g>
<!-- Node49 -->
<g id="node47" class="node">
<title>Node49</title>
<g id="a_node47"><a xlink:href="v8-microtask_8h.html" target="_top" xlink:title=" ">
<polygon fill="white" stroke="#666666" points="2840.62,-682.25 2760.88,-682.25 2760.88,-663 2840.62,-663 2840.62,-682.25"/>
<text text-anchor="middle" x="2800.75" y="-668.75" font-family="Helvetica,sans-Serif" font-size="10.00">v8&#45;microtask.h</text>
</a>
</g>
</g>
<!-- Node9&#45;&gt;Node49 -->
<g id="edge132" class="edge">
<title>Node9&#45;&gt;Node49</title>
<path fill="none" stroke="#63b8ff" d="M1888.68,-719.59C1891.74,-719.07 1894.79,-718.61 1897.75,-718.25 2272.59,-672.12 2370.98,-720.1 2746.75,-682.25 2747.72,-682.15 2748.7,-682.05 2749.69,-681.94"/>
<polygon fill="#63b8ff" stroke="#63b8ff" points="2749.93,-685.31 2759.42,-680.59 2749.06,-678.36 2749.93,-685.31"/>
</g>
<!-- Node50 -->
<g id="node48" class="node">
<title>Node50</title>
<g id="a_node48"><a xlink:href="v8-statistics_8h.html" target="_top" xlink:title=" ">
<polygon fill="white" stroke="#666666" points="980.12,-571.75 903.38,-571.75 903.38,-552.5 980.12,-552.5 980.12,-571.75"/>
<text text-anchor="middle" x="941.75" y="-558.25" font-family="Helvetica,sans-Serif" font-size="10.00">v8&#45;statistics.h</text>
</a>
</g>
</g>
<!-- Node9&#45;&gt;Node50 -->
<g id="edge135" class="edge">
<title>Node9&#45;&gt;Node50</title>
<path fill="none" stroke="#63b8ff" d="M1822.94,-726.43C1681.66,-724.33 1129.13,-714.12 1058.75,-682.25 1010.3,-660.31 971.2,-608.63 952.94,-581.11"/>
<polygon fill="#63b8ff" stroke="#63b8ff" points="955.53,-579.67 947.17,-573.16 949.65,-583.47 955.53,-579.67"/>
</g>
<!-- Node51 -->
<g id="node49" class="node">
<title>Node51</title>
<g id="a_node49"><a xlink:href="v8-unwinder_8h.html" target="_top" xlink:title=" ">
<polygon fill="white" stroke="#666666" points="2982.75,-350.75 2906.75,-350.75 2906.75,-331.5 2982.75,-331.5 2982.75,-350.75"/>
<text text-anchor="middle" x="2944.75" y="-337.25" font-family="Helvetica,sans-Serif" font-size="10.00">v8&#45;unwinder.h</text>
</a>
</g>
</g>
<!-- Node9&#45;&gt;Node51 -->
<g id="edge145" class="edge">
<title>Node9&#45;&gt;Node51</title>
<path fill="none" stroke="#63b8ff" d="M1888.68,-719.58C1891.74,-719.06 1894.79,-718.61 1897.75,-718.25 2005.05,-705.34 2767.89,-718.37 2869.75,-682.25 2914.29,-666.46 2954.75,-665.63 2954.75,-618.38 2954.75,-618.38 2954.75,-618.38 2954.75,-450.62 2954.75,-419.49 2950.62,-383.53 2947.66,-361.83"/>
<polygon fill="#63b8ff" stroke="#63b8ff" points="2951.01,-361.51 2946.14,-352.1 2944.08,-362.49 2951.01,-361.51"/>
</g>
<!-- Node12&#45;&gt;Node13 -->
<g id="edge14" class="edge">
<title>Node12&#45;&gt;Node13</title>
<path fill="none" stroke="#63b8ff" d="M2808.75,-497C2819.96,-463.03 2858.75,-337.83 2858.75,-231.62 2858.75,-231.62 2858.75,-231.62 2858.75,-174.38 2858.75,-140.88 2846.93,-128.6 2818.75,-110.5 2793.97,-94.59 2604.38,-76.61 2519.55,-69.27"/>
<polygon fill="#63b8ff" stroke="#63b8ff" points="2520.05,-65.72 2509.78,-68.35 2519.45,-72.69 2520.05,-65.72"/>
</g>
<!-- Node13&#45;&gt;Node8 -->
<g id="edge15" class="edge">
<title>Node13&#45;&gt;Node8</title>
<path fill="none" stroke="#63b8ff" d="M2448.9,-61.85C2326.42,-53.55 1862.64,-22.13 1728.99,-13.08"/>
<polygon fill="#63b8ff" stroke="#63b8ff" points="1729.38,-9.53 1719.17,-12.35 1728.91,-16.51 1729.38,-9.53"/>
</g>
<!-- Node14&#45;&gt;Node8 -->
<g id="edge18" class="edge">
<title>Node14&#45;&gt;Node8</title>
<path fill="none" stroke="#63b8ff" d="M1039.71,-496.89C1025.27,-488.49 1003.75,-475.16 986.75,-461.25 918.3,-405.23 708.75,-264.83 708.75,-176.38 708.75,-176.38 708.75,-176.38 708.75,-119.12 708.75,-21.85 1478.38,-11.77 1656.34,-10.74"/>
<polygon fill="#63b8ff" stroke="#63b8ff" points="1656.21,-14.24 1666.19,-10.68 1656.17,-7.24 1656.21,-14.24"/>
</g>
<!-- Node14&#45;&gt;Node10 -->
<g id="edge17" class="edge">
<title>Node14&#45;&gt;Node10</title>
<path fill="none" stroke="#63b8ff" d="M1042.37,-496.86C1019.37,-480.17 974.75,-442.04 974.75,-397.38 974.75,-397.38 974.75,-397.38 974.75,-340.12 974.75,-261.93 910.77,-260.85 891.75,-185 883.7,-152.88 886.74,-143.23 891.75,-110.5 893.06,-101.98 895.69,-92.85 898.32,-85.09"/>
<polygon fill="#63b8ff" stroke="#63b8ff" points="901.89,-86.51 902.02,-75.91 895.31,-84.11 901.89,-86.51"/>
</g>
<!-- Node14&#45;&gt;Node13 -->
<g id="edge81" class="edge">
<title>Node14&#45;&gt;Node13</title>
<path fill="none" stroke="#63b8ff" d="M1098.53,-505.03C1276.31,-501.38 1951.72,-485.97 2043.75,-461.25 2061.65,-456.44 2063.6,-449.03 2080.75,-442 2119.36,-426.16 2399.5,-342.54 2439.75,-331.5 2505.45,-313.47 2546.61,-349.03 2588.75,-295.5 2640.72,-229.47 2604.99,-173.82 2549.75,-110.5 2538.66,-97.79 2523.06,-87.44 2509.31,-79.92"/>
<polygon fill="#63b8ff" stroke="#63b8ff" points="2511.2,-76.44 2500.71,-74.95 2507.99,-82.66 2511.2,-76.44"/>
</g>
<!-- Node14&#45;&gt;Node15 -->
<g id="edge19" class="edge">
<title>Node14&#45;&gt;Node15</title>
<path fill="none" stroke="#63b8ff" d="M1056.22,-497.07C1058.17,-469.27 1067.74,-382.26 1112.75,-331.5 1161.23,-276.82 1244.27,-251.43 1299.34,-240.1"/>
<polygon fill="#63b8ff" stroke="#63b8ff" points="1299.82,-243.38 1308.96,-238.02 1298.47,-236.51 1299.82,-243.38"/>
</g>
<!-- Node25 -->
<g id="node25" class="node">
<title>Node25</title>
<g id="a_node25"><a xlink:href="v8-object_8h.html" target="_top" xlink:title=" ">
<polygon fill="white" stroke="#666666" points="1630.38,-461.25 1567.12,-461.25 1567.12,-442 1630.38,-442 1630.38,-461.25"/>
<text text-anchor="middle" x="1598.75" y="-447.75" font-family="Helvetica,sans-Serif" font-size="10.00">v8&#45;object.h</text>
</a>
</g>
</g>
<!-- Node14&#45;&gt;Node25 -->
<g id="edge36" class="edge">
<title>Node14&#45;&gt;Node25</title>
<path fill="none" stroke="#63b8ff" d="M1098.36,-501.7C1199.81,-491.75 1454.77,-466.74 1556.18,-456.8"/>
<polygon fill="#63b8ff" stroke="#63b8ff" points="1556.31,-460.21 1565.92,-455.75 1555.63,-453.24 1556.31,-460.21"/>
</g>
<!-- Node15&#45;&gt;Node10 -->
<g id="edge20" class="edge">
<title>Node15&#45;&gt;Node10</title>
<path fill="none" stroke="#63b8ff" d="M1326.62,-220.52C1299.63,-211.71 1257.77,-197.83 1221.75,-185 1118.02,-148.06 996.41,-101.21 938.99,-78.87"/>
<polygon fill="#63b8ff" stroke="#63b8ff" points="940.62,-75.36 930.03,-74.99 938.08,-81.88 940.62,-75.36"/>
</g>
<!-- Node16 -->
<g id="node16" class="node">
<title>Node16</title>
<g id="a_node16"><a xlink:title=" ">
<polygon fill="#e0e0e0" stroke="#999999" points="1645.25,-74.5 1584.25,-74.5 1584.25,-55.25 1645.25,-55.25 1645.25,-74.5"/>
<text text-anchor="middle" x="1614.75" y="-61" font-family="Helvetica,sans-Serif" font-size="10.00">type_traits</text>
</a>
</g>
</g>
<!-- Node15&#45;&gt;Node16 -->
<g id="edge21" class="edge">
<title>Node15&#45;&gt;Node16</title>
<path fill="none" stroke="#63b8ff" d="M1371.94,-220.63C1403.63,-203.86 1473.1,-166.21 1528.75,-129.75 1552.12,-114.44 1577.66,-95.11 1594.79,-81.75"/>
<polygon fill="#63b8ff" stroke="#63b8ff" points="1596.68,-83.93 1602.38,-75 1592.35,-78.43 1596.68,-83.93"/>
</g>
<!-- Node17 -->
<g id="node17" class="node">
<title>Node17</title>
<g id="a_node17"><a xlink:title=" ">
<polygon fill="#e0e0e0" stroke="#999999" points="1098.25,-185 1055.25,-185 1055.25,-165.75 1098.25,-165.75 1098.25,-185"/>
<text text-anchor="middle" x="1076.75" y="-171.5" font-family="Helvetica,sans-Serif" font-size="10.00">vector</text>
</a>
</g>
</g>
<!-- Node15&#45;&gt;Node17 -->
<g id="edge22" class="edge">
<title>Node15&#45;&gt;Node17</title>
<path fill="none" stroke="#63b8ff" d="M1310.08,-221.07C1253.98,-210.32 1159.06,-192.14 1109.34,-182.62"/>
<polygon fill="#63b8ff" stroke="#63b8ff" points="1110.06,-179 1099.58,-180.56 1108.75,-185.88 1110.06,-179"/>
</g>
<!-- Node18 -->
<g id="node18" class="node">
<title>Node18</title>
<g id="a_node18"><a xlink:href="v8-handle-base_8h.html" target="_top" xlink:title=" ">
<polygon fill="white" stroke="#666666" points="1320.5,-185 1231,-185 1231,-165.75 1320.5,-165.75 1320.5,-185"/>
<text text-anchor="middle" x="1275.75" y="-171.5" font-family="Helvetica,sans-Serif" font-size="10.00">v8&#45;handle&#45;base.h</text>
</a>
</g>
</g>
<!-- Node15&#45;&gt;Node18 -->
<g id="edge23" class="edge">
<title>Node15&#45;&gt;Node18</title>
<path fill="none" stroke="#63b8ff" d="M1341.35,-220.59C1329.55,-212.64 1312.11,-200.89 1298.19,-191.5"/>
<polygon fill="#63b8ff" stroke="#63b8ff" points="1300.47,-188.14 1290.22,-185.45 1296.55,-193.94 1300.47,-188.14"/>
</g>
<!-- Node15&#45;&gt;Node19 -->
<g id="edge35" class="edge">
<title>Node15&#45;&gt;Node19</title>
<path fill="none" stroke="#63b8ff" d="M1354.87,-220.6C1355.53,-207.03 1358.69,-181.31 1372.75,-165.75 1382.69,-154.75 1415.77,-142.38 1443.59,-133.46"/>
<polygon fill="#63b8ff" stroke="#63b8ff" points="1444.44,-136.54 1452.94,-130.22 1442.35,-129.87 1444.44,-136.54"/>
</g>
<!-- Node18&#45;&gt;Node19 -->
<g id="edge24" class="edge">
<title>Node18&#45;&gt;Node19</title>
<path fill="none" stroke="#63b8ff" d="M1311.37,-165.34C1346.99,-156.31 1401.89,-142.39 1440.56,-132.59"/>
<polygon fill="#63b8ff" stroke="#63b8ff" points="1441.17,-135.79 1450,-129.94 1439.45,-129 1441.17,-135.79"/>
</g>
<!-- Node19&#45;&gt;Node6 -->
<g id="edge26" class="edge">
<title>Node19&#45;&gt;Node6</title>
<path fill="none" stroke="#63b8ff" d="M1451.09,-111.72C1448.28,-111.25 1445.47,-110.84 1442.75,-110.5 1273.49,-89.38 733.84,-71.4 591.46,-66.94"/>
<polygon fill="#63b8ff" stroke="#63b8ff" points="591.89,-63.42 581.78,-66.6 591.67,-70.41 591.89,-63.42"/>
</g>
<!-- Node19&#45;&gt;Node8 -->
<g id="edge31" class="edge">
<title>Node19&#45;&gt;Node8</title>
<path fill="none" stroke="#63b8ff" d="M1496.52,-110.1C1512.84,-96.76 1545.16,-71.6 1575.75,-55.25 1601.85,-41.3 1633.29,-29.57 1656.99,-21.64"/>
<polygon fill="#63b8ff" stroke="#63b8ff" points="1657.88,-24.7 1666.3,-18.27 1655.7,-18.05 1657.88,-24.7"/>
</g>
<!-- Node19&#45;&gt;Node10 -->
<g id="edge25" class="edge">
<title>Node19&#45;&gt;Node10</title>
<path fill="none" stroke="#63b8ff" d="M1451.08,-111.81C1448.27,-111.33 1445.46,-110.88 1442.75,-110.5 1255.48,-84.03 1029.08,-71.54 942.15,-67.45"/>
<polygon fill="#63b8ff" stroke="#63b8ff" points="942.45,-63.92 932.3,-66.95 942.13,-70.91 942.45,-63.92"/>
</g>
<!-- Node19&#45;&gt;Node13 -->
<g id="edge34" class="edge">
<title>Node19&#45;&gt;Node13</title>
<path fill="none" stroke="#63b8ff" d="M1520.22,-117.28C1671.4,-109.17 2275.5,-76.77 2438.21,-68.05"/>
<polygon fill="#63b8ff" stroke="#63b8ff" points="2437.92,-71.52 2447.72,-67.49 2437.54,-64.53 2437.92,-71.52"/>
</g>
<!-- Node19&#45;&gt;Node16 -->
<g id="edge33" class="edge">
<title>Node19&#45;&gt;Node16</title>
<path fill="none" stroke="#63b8ff" d="M1507.63,-110.09C1528.2,-101.6 1559.24,-88.79 1582.62,-79.14"/>
<polygon fill="#63b8ff" stroke="#63b8ff" points="1583.85,-82 1591.76,-74.95 1581.18,-75.53 1583.85,-82"/>
</g>
<!-- Node20 -->
<g id="node20" class="node">
<title>Node20</title>
<g id="a_node20"><a xlink:title=" ">
<polygon fill="#e0e0e0" stroke="#999999" points="1527.5,-74.5 1480,-74.5 1480,-55.25 1527.5,-55.25 1527.5,-74.5"/>
<text text-anchor="middle" x="1503.75" y="-61" font-family="Helvetica,sans-Serif" font-size="10.00">string.h</text>
</a>
</g>
</g>
<!-- Node19&#45;&gt;Node20 -->
<g id="edge27" class="edge">
<title>Node19&#45;&gt;Node20</title>
<path fill="none" stroke="#63b8ff" d="M1488.72,-110.33C1491.03,-103.51 1494.31,-93.81 1497.22,-85.2"/>
<polygon fill="#63b8ff" stroke="#63b8ff" points="1500.83,-86.45 1500.71,-75.86 1494.2,-84.21 1500.83,-86.45"/>
</g>
<!-- Node21 -->
<g id="node21" class="node">
<title>Node21</title>
<g id="a_node21"><a xlink:title=" ">
<polygon fill="#e0e0e0" stroke="#999999" points="1717.38,-74.5 1672.12,-74.5 1672.12,-55.25 1717.38,-55.25 1717.38,-74.5"/>
<text text-anchor="middle" x="1694.75" y="-61" font-family="Helvetica,sans-Serif" font-size="10.00">atomic</text>
</a>
</g>
</g>
<!-- Node19&#45;&gt;Node21 -->
<g id="edge28" class="edge">
<title>Node19&#45;&gt;Node21</title>
<path fill="none" stroke="#63b8ff" d="M1520.26,-110.33C1559.47,-100.34 1623.02,-84.15 1661.64,-74.31"/>
<polygon fill="#63b8ff" stroke="#63b8ff" points="1662,-77.58 1670.83,-71.71 1660.27,-70.79 1662,-77.58"/>
</g>
<!-- Node22 -->
<g id="node22" class="node">
<title>Node22</title>
<g id="a_node22"><a xlink:title=" ">
<polygon fill="#e0e0e0" stroke="#999999" points="1393.75,-74.5 1347.75,-74.5 1347.75,-55.25 1393.75,-55.25 1393.75,-74.5"/>
<text text-anchor="middle" x="1370.75" y="-61" font-family="Helvetica,sans-Serif" font-size="10.00">iterator</text>
</a>
</g>
</g>
<!-- Node19&#45;&gt;Node22 -->
<g id="edge29" class="edge">
<title>Node19&#45;&gt;Node22</title>
<path fill="none" stroke="#63b8ff" d="M1466.24,-110.09C1448.15,-101.72 1420.98,-89.13 1400.24,-79.53"/>
<polygon fill="#63b8ff" stroke="#63b8ff" points="1401.9,-75.98 1391.35,-74.95 1398.96,-82.33 1401.9,-75.98"/>
</g>
<!-- Node23 -->
<g id="node23" class="node">
<title>Node23</title>
<g id="a_node23"><a xlink:title=" ">
<polygon fill="#e0e0e0" stroke="#999999" points="1812.38,-74.5 1773.12,-74.5 1773.12,-55.25 1812.38,-55.25 1812.38,-74.5"/>
<text text-anchor="middle" x="1792.75" y="-61" font-family="Helvetica,sans-Serif" font-size="10.00">limits</text>
</a>
</g>
</g>
<!-- Node19&#45;&gt;Node23 -->
<g id="edge30" class="edge">
<title>Node19&#45;&gt;Node23</title>
<path fill="none" stroke="#63b8ff" d="M1520.37,-113.12C1580.79,-102.64 1704.53,-81.18 1762.07,-71.2"/>
<polygon fill="#63b8ff" stroke="#63b8ff" points="1762.4,-74.52 1771.66,-69.36 1761.21,-67.62 1762.4,-74.52"/>
</g>
<!-- Node24 -->
<g id="node24" class="node">
<title>Node24</title>
<g id="a_node24"><a xlink:title=" ">
<polygon fill="#e0e0e0" stroke="#999999" points="1461.62,-74.5 1411.88,-74.5 1411.88,-55.25 1461.62,-55.25 1461.62,-74.5"/>
<text text-anchor="middle" x="1436.75" y="-61" font-family="Helvetica,sans-Serif" font-size="10.00">optional</text>
</a>
</g>
</g>
<!-- Node19&#45;&gt;Node24 -->
<g id="edge32" class="edge">
<title>Node19&#45;&gt;Node24</title>
<path fill="none" stroke="#63b8ff" d="M1477.66,-110.33C1470.82,-102.9 1460.82,-92.04 1452.43,-82.91"/>
<polygon fill="#63b8ff" stroke="#63b8ff" points="1455.36,-80.85 1446.02,-75.86 1450.21,-85.59 1455.36,-80.85"/>
</g>
<!-- Node25&#45;&gt;Node13 -->
<g id="edge80" class="edge">
<title>Node25&#45;&gt;Node13</title>
<path fill="none" stroke="#63b8ff" d="M1630.51,-445.04C1682.63,-435.74 1784.01,-417 1818.75,-406 1935.34,-369.08 1964.94,-356.81 2070.75,-295.5 2190.35,-226.2 2196.66,-171.39 2320.75,-110.5 2358.57,-91.94 2405.38,-79.94 2438.2,-73.11"/>
<polygon fill="#63b8ff" stroke="#63b8ff" points="2438.64,-76.39 2447.76,-70.99 2437.26,-69.52 2438.64,-76.39"/>
</g>
<!-- Node25&#45;&gt;Node15 -->
<g id="edge38" class="edge">
<title>Node25&#45;&gt;Node15</title>
<path fill="none" stroke="#63b8ff" d="M1566.66,-448.95C1510.8,-445.31 1399.31,-434.56 1374.75,-406 1337.11,-362.23 1378.81,-333.1 1368.75,-276.25 1367.25,-267.76 1364.58,-258.64 1361.98,-250.87"/>
<polygon fill="#63b8ff" stroke="#63b8ff" points="1365,-249.93 1358.35,-241.68 1358.41,-252.28 1365,-249.93"/>
</g>
<!-- Node25&#45;&gt;Node19 -->
<g id="edge37" class="edge">
<title>Node25&#45;&gt;Node19</title>
<path fill="none" stroke="#63b8ff" d="M1566.72,-451.61C1518.19,-451.66 1424.72,-445.97 1358.75,-406 1257.86,-344.87 1229.29,-301.65 1211.75,-185 1210.48,-176.54 1206.19,-172.25 1211.75,-165.75 1243.69,-128.44 1375.96,-137.64 1440.54,-129.77"/>
<polygon fill="#63b8ff" stroke="#63b8ff" points="1440.66,-133.14 1450.04,-128.22 1439.64,-126.22 1440.66,-133.14"/>
</g>
<!-- Node26 -->
<g id="node26" class="node">
<title>Node26</title>
<g id="a_node26"><a xlink:href="v8-maybe_8h.html" target="_top" xlink:title=" ">
<polygon fill="white" stroke="#666666" points="1752.5,-295.5 1687,-295.5 1687,-276.25 1752.5,-276.25 1752.5,-295.5"/>
<text text-anchor="middle" x="1719.75" y="-282" font-family="Helvetica,sans-Serif" font-size="10.00">v8&#45;maybe.h</text>
</a>
</g>
</g>
<!-- Node25&#45;&gt;Node26 -->
<g id="edge39" class="edge">
<title>Node25&#45;&gt;Node26</title>
<path fill="none" stroke="#63b8ff" d="M1605.26,-441.82C1624.46,-415.83 1681.16,-339.09 1706.85,-304.34"/>
<polygon fill="#63b8ff" stroke="#63b8ff" points="1710.08,-306.85 1713.21,-296.72 1704.45,-302.68 1710.08,-306.85"/>
</g>
<!-- Node25&#45;&gt;Node27 -->
<g id="edge44" class="edge">
<title>Node25&#45;&gt;Node27</title>
<path fill="none" stroke="#63b8ff" d="M1630.58,-445.88C1639.38,-444.6 1648.93,-443.22 1657.75,-442 1779.85,-425.08 1813.13,-435.75 1932.75,-406 2000.89,-389.06 2015.2,-375.91 2080.75,-350.75 2125.7,-333.5 2177.42,-312.99 2210.09,-299.95"/>
<polygon fill="#63b8ff" stroke="#63b8ff" points="2211.01,-302.96 2219,-296 2208.41,-296.46 2211.01,-302.96"/>
</g>
<!-- Node25&#45;&gt;Node29 -->
<g id="edge50" class="edge">
<title>Node25&#45;&gt;Node29</title>
<path fill="none" stroke="#63b8ff" d="M1622.67,-441.59C1645.46,-432.99 1680,-419.94 1705.66,-410.25"/>
<polygon fill="#63b8ff" stroke="#63b8ff" points="1706.6,-413.26 1714.71,-406.45 1704.12,-406.71 1706.6,-413.26"/>
</g>
<!-- Node31 -->
<g id="node31" class="node">
<title>Node31</title>
<g id="a_node31"><a xlink:href="v8-value_8h.html" target="_top" xlink:title=" ">
<polygon fill="white" stroke="#666666" points="1772.88,-350.75 1712.62,-350.75 1712.62,-331.5 1772.88,-331.5 1772.88,-350.75"/>
<text text-anchor="middle" x="1742.75" y="-337.25" font-family="Helvetica,sans-Serif" font-size="10.00">v8&#45;value.h</text>
</a>
</g>
</g>
<!-- Node25&#45;&gt;Node31 -->
<g id="edge79" class="edge">
<title>Node25&#45;&gt;Node31</title>
<path fill="none" stroke="#63b8ff" d="M1610.53,-441.75C1635.01,-423.31 1691.59,-380.67 1722.2,-357.61"/>
<polygon fill="#63b8ff" stroke="#63b8ff" points="1723.92,-359.94 1729.8,-351.13 1719.71,-354.35 1723.92,-359.94"/>
</g>
<!-- Node32 -->
<g id="node32" class="node">
<title>Node32</title>
<g id="a_node32"><a xlink:href="v8-sandbox_8h.html" target="_top" xlink:title=" ">
<polygon fill="white" stroke="#666666" points="1456.25,-406 1383.25,-406 1383.25,-386.75 1456.25,-386.75 1456.25,-406"/>
<text text-anchor="middle" x="1419.75" y="-392.5" font-family="Helvetica,sans-Serif" font-size="10.00">v8&#45;sandbox.h</text>
</a>
</g>
</g>
<!-- Node25&#45;&gt;Node32 -->
<g id="edge63" class="edge">
<title>Node25&#45;&gt;Node32</title>
<path fill="none" stroke="#63b8ff" d="M1568.39,-441.59C1538.68,-432.76 1493.26,-419.24 1460.44,-409.48"/>
<polygon fill="#63b8ff" stroke="#63b8ff" points="1461.85,-405.95 1451.26,-406.45 1459.85,-412.66 1461.85,-405.95"/>
</g>
<!-- Node34 -->
<g id="node34" class="node">
<title>Node34</title>
<g id="a_node34"><a xlink:href="v8-traced-handle_8h.html" target="_top" xlink:title=" ">
<polygon fill="white" stroke="#666666" points="2016.5,-295.5 1921,-295.5 1921,-276.25 2016.5,-276.25 2016.5,-295.5"/>
<text text-anchor="middle" x="1968.75" y="-282" font-family="Helvetica,sans-Serif" font-size="10.00">v8&#45;traced&#45;handle.h</text>
</a>
</g>
</g>
<!-- Node25&#45;&gt;Node34 -->
<g id="edge67" class="edge">
<title>Node25&#45;&gt;Node34</title>
<path fill="none" stroke="#63b8ff" d="M1630.57,-446.43C1668.64,-440.65 1733.77,-428.33 1785.75,-406 1850.42,-378.22 1917.55,-328.08 1949.55,-302.62"/>
<polygon fill="#63b8ff" stroke="#63b8ff" points="1951.37,-304.84 1956.96,-295.85 1946.98,-299.39 1951.37,-304.84"/>
</g>
<!-- Node26&#45;&gt;Node11 -->
<g id="edge41" class="edge">
<title>Node26&#45;&gt;Node11</title>
<path fill="none" stroke="#63b8ff" d="M1716.78,-276.08C1714.47,-269.26 1711.19,-259.56 1708.28,-250.95"/>
<polygon fill="#63b8ff" stroke="#63b8ff" points="1711.3,-249.96 1704.79,-241.61 1704.67,-252.2 1711.3,-249.96"/>
</g>
<!-- Node26&#45;&gt;Node13 -->
<g id="edge43" class="edge">
<title>Node26&#45;&gt;Node13</title>
<path fill="none" stroke="#63b8ff" d="M1702.4,-275.91C1682.55,-264.37 1654.21,-243.15 1665.75,-221 1724.33,-108.56 1804.16,-133.99 1928.75,-110.5 2116.72,-75.06 2346.06,-67.76 2437.89,-66.26"/>
<polygon fill="#63b8ff" stroke="#63b8ff" points="2437.7,-69.75 2447.65,-66.1 2437.59,-62.75 2437.7,-69.75"/>
</g>
<!-- Node26&#45;&gt;Node16 -->
<g id="edge40" class="edge">
<title>Node26&#45;&gt;Node16</title>
<path fill="none" stroke="#63b8ff" d="M1686.6,-276.72C1655.58,-268.34 1612.59,-254.53 1602.75,-240.25 1569.96,-192.65 1592.61,-119.35 1606.35,-84.95"/>
<polygon fill="#63b8ff" stroke="#63b8ff" points="1609.94,-86.44 1610.57,-75.86 1603.48,-83.73 1609.94,-86.44"/>
</g>
<!-- Node26&#45;&gt;Node19 -->
<g id="edge42" class="edge">
<title>Node26&#45;&gt;Node19</title>
<path fill="none" stroke="#63b8ff" d="M1686.56,-277.31C1643.52,-267.21 1572.94,-249.5 1564.75,-240.25 1542.51,-215.15 1570.89,-193.96 1552.75,-165.75 1544.32,-152.64 1530.51,-142.48 1517.61,-135.19"/>
<polygon fill="#63b8ff" stroke="#63b8ff" points="1519.52,-131.71 1509.03,-130.17 1516.27,-137.91 1519.52,-131.71"/>
</g>
<!-- Node27&#45;&gt;Node13 -->
<g id="edge49" class="edge">
<title>Node27&#45;&gt;Node13</title>
<path fill="none" stroke="#63b8ff" d="M2264.5,-275.78C2281.69,-267.94 2305.72,-255.48 2323.75,-240.25 2379.98,-192.72 2375.69,-163.55 2426.75,-110.5 2436.6,-100.26 2448.58,-89.86 2458.56,-81.68"/>
<polygon fill="#63b8ff" stroke="#63b8ff" points="2460.44,-83.86 2466.04,-74.86 2456.05,-78.4 2460.44,-83.86"/>
</g>
<!-- Node27&#45;&gt;Node15 -->
<g id="edge46" class="edge">
<title>Node27&#45;&gt;Node15</title>
<path fill="none" stroke="#63b8ff" d="M2186.87,-281.52C2027.19,-271.95 1570.2,-244.54 1410.58,-234.97"/>
<polygon fill="#63b8ff" stroke="#63b8ff" points="1410.81,-231.42 1400.61,-234.32 1410.39,-238.41 1410.81,-231.42"/>
</g>
<!-- Node27&#45;&gt;Node19 -->
<g id="edge45" class="edge">
<title>Node27&#45;&gt;Node19</title>
<path fill="none" stroke="#63b8ff" d="M2264.1,-275.76C2289.42,-263.71 2326,-241.61 2307.75,-221 2301.22,-213.63 1703.21,-145.66 1531.42,-126.27"/>
<polygon fill="#63b8ff" stroke="#63b8ff" points="1531.83,-122.68 1521.5,-125.03 1531.04,-129.63 1531.83,-122.68"/>
</g>
<!-- Node28 -->
<g id="node28" class="node">
<title>Node28</title>
<g id="a_node28"><a xlink:href="v8-weak-callback-info_8h.html" target="_top" xlink:title=" ">
<polygon fill="white" stroke="#666666" points="2298.75,-240.25 2180.75,-240.25 2180.75,-221 2298.75,-221 2298.75,-240.25"/>
<text text-anchor="middle" x="2239.75" y="-226.75" font-family="Helvetica,sans-Serif" font-size="10.00">v8&#45;weak&#45;callback&#45;info.h</text>
</a>
</g>
</g>
<!-- Node27&#45;&gt;Node28 -->
<g id="edge47" class="edge">
<title>Node27&#45;&gt;Node28</title>
<path fill="none" stroke="#63b8ff" d="M2242.25,-276.08C2241.88,-269.42 2241.35,-259.99 2240.87,-251.53"/>
<polygon fill="#63b8ff" stroke="#63b8ff" points="2244.31,-251.4 2240.26,-241.61 2237.32,-251.79 2244.31,-251.4"/>
</g>
<!-- Node28&#45;&gt;Node13 -->
<g id="edge48" class="edge">
<title>Node28&#45;&gt;Node13</title>
<path fill="none" stroke="#63b8ff" d="M2245.65,-220.78C2260.64,-198.95 2302.45,-142.01 2350.75,-110.5 2377.51,-93.04 2411.9,-81.55 2438.29,-74.6"/>
<polygon fill="#63b8ff" stroke="#63b8ff" points="2438.86,-77.82 2447.7,-71.99 2437.15,-71.03 2438.86,-77.82"/>
</g>
<!-- Node29&#45;&gt;Node13 -->
<g id="edge62" class="edge">
<title>Node29&#45;&gt;Node13</title>
<path fill="none" stroke="#63b8ff" d="M1777.09,-392.39C1888.69,-382.93 2217.52,-350.9 2307.75,-295.5 2393.66,-242.76 2450.77,-129.46 2470.8,-84.66"/>
<polygon fill="#63b8ff" stroke="#63b8ff" points="2474.3,-86.39 2475.08,-75.83 2467.88,-83.6 2474.3,-86.39"/>
</g>
<!-- Node29&#45;&gt;Node15 -->
<g id="edge55" class="edge">
<title>Node29&#45;&gt;Node15</title>
<path fill="none" stroke="#63b8ff" d="M1717.02,-386.4C1695.23,-377.68 1661.5,-363.87 1632.75,-350.75 1565.03,-319.85 1551.36,-305.11 1482.75,-276.25 1453.71,-264.03 1420.04,-252.39 1394.52,-244.06"/>
<polygon fill="#63b8ff" stroke="#63b8ff" points="1395.71,-240.45 1385.12,-240.7 1393.56,-247.11 1395.71,-240.45"/>
</g>
<!-- Node29&#45;&gt;Node19 -->
<g id="edge54" class="edge">
<title>Node29&#45;&gt;Node19</title>
<path fill="none" stroke="#63b8ff" d="M1721.5,-386.37C1681.68,-365.84 1586.31,-311.79 1532.75,-240.25 1509.62,-209.35 1496.25,-165.58 1490.03,-140.6"/>
<polygon fill="#63b8ff" stroke="#63b8ff" points="1493.24,-139.93 1487.55,-130.99 1486.42,-141.53 1493.24,-139.93"/>
</g>
<!-- Node29&#45;&gt;Node30 -->
<g id="edge51" class="edge">
<title>Node29&#45;&gt;Node30</title>
<path fill="none" stroke="#63b8ff" d="M1748.56,-386.26C1757.14,-377.31 1770.5,-363.24 1781.75,-350.75 1795.91,-335.02 1811.63,-316.68 1822.62,-303.69"/>
<polygon fill="#63b8ff" stroke="#63b8ff" points="1825.62,-306.56 1829.4,-296.66 1820.27,-302.05 1825.62,-306.56"/>
</g>
<!-- Node29&#45;&gt;Node31 -->
<g id="edge56" class="edge">
<title>Node29&#45;&gt;Node31</title>
<path fill="none" stroke="#63b8ff" d="M1740.25,-386.58C1740.62,-379.92 1741.15,-370.49 1741.63,-362.03"/>
<polygon fill="#63b8ff" stroke="#63b8ff" points="1745.18,-362.29 1742.24,-352.11 1738.19,-361.9 1745.18,-362.29"/>
</g>
<!-- Node30&#45;&gt;Node13 -->
<g id="edge53" class="edge">
<title>Node30&#45;&gt;Node13</title>
<path fill="none" stroke="#63b8ff" d="M1808.52,-281.26C1766.33,-275.23 1690.04,-261.59 1673.75,-240.25 1668.56,-233.45 1668.73,-227.93 1673.75,-221 1696.79,-189.16 1971.28,-118.55 2009.75,-110.5 2165.73,-77.86 2355.95,-69.05 2437.94,-66.71"/>
<polygon fill="#63b8ff" stroke="#63b8ff" points="2437.87,-70.19 2447.77,-66.42 2437.68,-63.19 2437.87,-70.19"/>
</g>
<!-- Node30&#45;&gt;Node15 -->
<g id="edge52" class="edge">
<title>Node30&#45;&gt;Node15</title>
<path fill="none" stroke="#63b8ff" d="M1808.62,-281.6C1794.55,-279.98 1777.25,-277.99 1761.75,-276.25 1635.93,-262.12 1488.16,-246.05 1409.9,-237.58"/>
<polygon fill="#63b8ff" stroke="#63b8ff" points="1410.64,-234.03 1400.33,-236.43 1409.89,-240.99 1410.64,-234.03"/>
</g>
<!-- Node31&#45;&gt;Node13 -->
<g id="edge61" class="edge">
<title>Node31&#45;&gt;Node13</title>
<path fill="none" stroke="#63b8ff" d="M1773.02,-339.82C1838.78,-338.46 1991.54,-331.44 2025.75,-295.5 2048.71,-271.38 2023.08,-252.55 2033.75,-221 2052.14,-166.59 2052.45,-141.57 2100.75,-110.5 2155.73,-75.13 2351.54,-67.78 2437.63,-66.26"/>
<polygon fill="#63b8ff" stroke="#63b8ff" points="2437.6,-69.75 2447.54,-66.09 2437.49,-62.75 2437.6,-69.75"/>
</g>
<!-- Node31&#45;&gt;Node15 -->
<g id="edge59" class="edge">
<title>Node31&#45;&gt;Node15</title>
<path fill="none" stroke="#63b8ff" d="M1719.51,-331.06C1684.87,-317.77 1617.5,-292.81 1558.75,-276.25 1508.94,-262.21 1451.25,-249.95 1409.96,-241.86"/>
<polygon fill="#63b8ff" stroke="#63b8ff" points="1410.78,-238.26 1400.3,-239.79 1409.45,-245.13 1410.78,-238.26"/>
</g>
<!-- Node31&#45;&gt;Node19 -->
<g id="edge58" class="edge">
<title>Node31&#45;&gt;Node19</title>
<path fill="none" stroke="#63b8ff" d="M1721.77,-331.14C1677.75,-311.99 1577.67,-266.72 1551.75,-240.25 1525.88,-213.84 1533.08,-197.86 1514.75,-165.75 1509.66,-156.84 1503.53,-147.25 1498.22,-139.26"/>
<polygon fill="#63b8ff" stroke="#63b8ff" points="1500.56,-137.49 1492.06,-131.16 1494.76,-141.41 1500.56,-137.49"/>
</g>
<!-- Node31&#45;&gt;Node26 -->
<g id="edge60" class="edge">
<title>Node31&#45;&gt;Node26</title>
<path fill="none" stroke="#63b8ff" d="M1738.95,-331.33C1735.97,-324.44 1731.72,-314.59 1727.97,-305.91"/>
<polygon fill="#63b8ff" stroke="#63b8ff" points="1730.81,-304.65 1723.63,-296.86 1724.38,-307.43 1730.81,-304.65"/>
</g>
<!-- Node31&#45;&gt;Node30 -->
<g id="edge57" class="edge">
<title>Node31&#45;&gt;Node30</title>
<path fill="none" stroke="#63b8ff" d="M1758.7,-331.09C1773.15,-322.91 1794.68,-310.71 1811.48,-301.19"/>
<polygon fill="#63b8ff" stroke="#63b8ff" points="1812.75,-303.93 1819.73,-295.95 1809.3,-297.84 1812.75,-303.93"/>
</g>
<!-- Node32&#45;&gt;Node13 -->
<g id="edge66" class="edge">
<title>Node32&#45;&gt;Node13</title>
<path fill="none" stroke="#63b8ff" d="M1456.36,-392.83C1574.12,-384.16 1941.4,-352.99 2043.75,-295.5 2073.15,-278.99 2078.48,-269.21 2095.75,-240.25 2126.86,-188.07 2091.92,-149.2 2138.75,-110.5 2183.57,-73.46 2357.91,-66.97 2438.04,-65.97"/>
<polygon fill="#63b8ff" stroke="#63b8ff" points="2437.74,-69.46 2447.7,-65.86 2437.67,-62.46 2437.74,-69.46"/>
</g>
<!-- Node32&#45;&gt;Node19 -->
<g id="edge65" class="edge">
<title>Node32&#45;&gt;Node19</title>
<path fill="none" stroke="#63b8ff" d="M1407.87,-386.41C1359.8,-349.63 1183.99,-210.16 1221.75,-165.75 1252.09,-130.06 1377.78,-137.55 1440.16,-129.83"/>
<polygon fill="#63b8ff" stroke="#63b8ff" points="1440.67,-133.15 1450.04,-128.2 1439.63,-126.22 1440.67,-133.15"/>
</g>
<!-- Node33 -->
<g id="node33" class="node">
<title>Node33</title>
<g id="a_node33"><a xlink:title=" ">
<polygon fill="#e0e0e0" stroke="#999999" points="1466.38,-350.75 1421.12,-350.75 1421.12,-331.5 1466.38,-331.5 1466.38,-350.75"/>
<text text-anchor="middle" x="1443.75" y="-337.25" font-family="Helvetica,sans-Serif" font-size="10.00">cstdint</text>
</a>
</g>
</g>
<!-- Node32&#45;&gt;Node33 -->
<g id="edge64" class="edge">
<title>Node32&#45;&gt;Node33</title>
<path fill="none" stroke="#63b8ff" d="M1423.71,-386.58C1426.86,-379.61 1431.36,-369.62 1435.3,-360.87"/>
<polygon fill="#63b8ff" stroke="#63b8ff" points="1438.78,-362.66 1439.7,-352.11 1432.4,-359.79 1438.78,-362.66"/>
</g>
<!-- Node34&#45;&gt;Node6 -->
<g id="edge69" class="edge">
<title>Node34&#45;&gt;Node6</title>
<path fill="none" stroke="#63b8ff" d="M1920.77,-276.29C1869.27,-266.75 1791.06,-251.25 1762.75,-240.25 1746.92,-234.1 1745.8,-226.54 1729.75,-221 1674.19,-201.8 779.82,-92.87 591.42,-70.06"/>
<polygon fill="#63b8ff" stroke="#63b8ff" points="592.11,-66.5 581.77,-68.77 591.27,-73.45 592.11,-66.5"/>
</g>
<!-- Node34&#45;&gt;Node8 -->
<g id="edge72" class="edge">
<title>Node34&#45;&gt;Node8</title>
<path fill="none" stroke="#63b8ff" d="M1965.53,-275.89C1952.87,-241.84 1903.18,-119.4 1821.75,-55.25 1794.63,-33.89 1756.61,-22.39 1728.87,-16.44"/>
<polygon fill="#63b8ff" stroke="#63b8ff" points="1729.91,-12.88 1719.42,-14.36 1728.54,-19.75 1729.91,-12.88"/>
</g>
<!-- Node34&#45;&gt;Node10 -->
<g id="edge68" class="edge">
<title>Node34&#45;&gt;Node10</title>
<path fill="none" stroke="#63b8ff" d="M1936.21,-275.76C1905.53,-267.05 1858.34,-253.34 1817.75,-240.25 1793.1,-232.3 1787.75,-227.75 1762.75,-221 1601.97,-177.58 1083.33,-94.03 941.75,-71.56"/>
<polygon fill="#63b8ff" stroke="#63b8ff" points="942.52,-67.97 932.09,-69.87 941.42,-74.89 942.52,-67.97"/>
</g>
<!-- Node34&#45;&gt;Node11 -->
<g id="edge74" class="edge">
<title>Node34&#45;&gt;Node11</title>
<path fill="none" stroke="#63b8ff" d="M1920.6,-276.67C1873.16,-268.35 1798.69,-254.69 1734.75,-240.25 1733.79,-240.03 1732.81,-239.81 1731.83,-239.58"/>
<polygon fill="#63b8ff" stroke="#63b8ff" points="1732.79,-235.96 1722.24,-236.95 1731.1,-242.75 1732.79,-235.96"/>
</g>
<!-- Node34&#45;&gt;Node13 -->
<g id="edge78" class="edge">
<title>Node34&#45;&gt;Node13</title>
<path fill="none" stroke="#63b8ff" d="M1968.87,-275.92C1969.81,-246.1 1977.35,-149.85 2034.75,-110.5 2099.6,-66.05 2340.71,-64.03 2437.83,-65.1"/>
<polygon fill="#63b8ff" stroke="#63b8ff" points="2437.62,-68.61 2447.66,-65.24 2437.71,-61.61 2437.62,-68.61"/>
</g>
<!-- Node34&#45;&gt;Node15 -->
<g id="edge76" class="edge">
<title>Node34&#45;&gt;Node15</title>
<path fill="none" stroke="#63b8ff" d="M1920.91,-280.49C1905.82,-279.12 1889.09,-277.61 1873.75,-276.25 1704.99,-261.33 1505.3,-244.35 1410.32,-236.32"/>
<polygon fill="#63b8ff" stroke="#63b8ff" points="1410.79,-232.76 1400.53,-235.4 1410.2,-239.73 1410.79,-232.76"/>
</g>
<!-- Node34&#45;&gt;Node16 -->
<g id="edge73" class="edge">
<title>Node34&#45;&gt;Node16</title>
<path fill="none" stroke="#63b8ff" d="M1955.57,-275.98C1925.67,-255.88 1850.27,-205.56 1785.75,-165.75 1734.84,-134.34 1674.14,-99.49 1640.47,-80.38"/>
<polygon fill="#63b8ff" stroke="#63b8ff" points="1642.36,-76.86 1631.94,-74.98 1638.91,-82.95 1642.36,-76.86"/>
</g>
<!-- Node34&#45;&gt;Node19 -->
<g id="edge75" class="edge">
<title>Node34&#45;&gt;Node19</title>
<path fill="none" stroke="#63b8ff" d="M1935.62,-275.79C1910.77,-268.23 1876.41,-256.13 1848.75,-240.25 1803.42,-214.23 1805.38,-187.27 1757.75,-165.75 1683.29,-132.11 1587.16,-123.49 1531.39,-121.48"/>
<polygon fill="#63b8ff" stroke="#63b8ff" points="1531.56,-117.96 1521.46,-121.16 1531.35,-124.95 1531.56,-117.96"/>
</g>
<!-- Node34&#45;&gt;Node21 -->
<g id="edge71" class="edge">
<title>Node34&#45;&gt;Node21</title>
<path fill="none" stroke="#63b8ff" d="M1960,-276C1925.02,-240.51 1797.05,-110.71 1796.75,-110.5 1775.46,-95.86 1748.58,-84.34 1727.77,-76.67"/>
<polygon fill="#63b8ff" stroke="#63b8ff" points="1729.09,-73.07 1718.5,-73.02 1726.74,-79.67 1729.09,-73.07"/>
</g>
<!-- Node34&#45;&gt;Node28 -->
<g id="edge77" class="edge">
<title>Node34&#45;&gt;Node28</title>
<path fill="none" stroke="#63b8ff" d="M2015.03,-275.78C2061.51,-266.65 2133.19,-252.56 2183.06,-242.76"/>
<polygon fill="#63b8ff" stroke="#63b8ff" points="2183.52,-246.04 2192.66,-240.68 2182.18,-239.17 2183.52,-246.04"/>
</g>
<!-- Node35 -->
<g id="node35" class="node">
<title>Node35</title>
<g id="a_node35"><a xlink:title=" ">
<polygon fill="#e0e0e0" stroke="#999999" points="2087,-240.25 2042.5,-240.25 2042.5,-221 2087,-221 2087,-240.25"/>
<text text-anchor="middle" x="2064.75" y="-226.75" font-family="Helvetica,sans-Serif" font-size="10.00">stdio.h</text>
</a>
</g>
</g>
<!-- Node34&#45;&gt;Node35 -->
<g id="edge70" class="edge">
<title>Node34&#45;&gt;Node35</title>
<path fill="none" stroke="#63b8ff" d="M1985.04,-275.84C1999.79,-267.66 2021.79,-255.46 2038.94,-245.94"/>
<polygon fill="#63b8ff" stroke="#63b8ff" points="2040.34,-248.61 2047.39,-240.7 2036.94,-242.49 2040.34,-248.61"/>
</g>
<!-- Node36&#45;&gt;Node10 -->
<g id="edge83" class="edge">
<title>Node36&#45;&gt;Node10</title>
<path fill="none" stroke="#63b8ff" d="M1682.36,-558.71C1628.42,-554.5 1529.09,-543.53 1448.75,-516.5 1299.55,-466.31 1257.22,-450.86 1135.75,-350.75 1034.3,-267.14 946.65,-132.69 916.72,-84.12"/>
<polygon fill="#63b8ff" stroke="#63b8ff" points="919.27,-82.58 911.08,-75.87 913.3,-86.23 919.27,-82.58"/>
</g>
<!-- Node36&#45;&gt;Node12 -->
<g id="edge86" class="edge">
<title>Node36&#45;&gt;Node12</title>
<path fill="none" stroke="#63b8ff" d="M1761.29,-558.33C1787.28,-556.53 1822.03,-554.23 1852.75,-552.5 2193.23,-533.32 2602.46,-516.13 2749.63,-510.13"/>
<polygon fill="#63b8ff" stroke="#63b8ff" points="2749.74,-513.59 2759.59,-509.69 2749.46,-506.59 2749.74,-513.59"/>
</g>
<!-- Node36&#45;&gt;Node13 -->
<g id="edge93" class="edge">
<title>Node36&#45;&gt;Node13</title>
<path fill="none" stroke="#63b8ff" d="M1761.14,-557.52C1873.75,-546.24 2205.39,-506.21 2460.75,-406 2520.6,-382.51 2525.53,-356.53 2584.75,-331.5 2642.34,-307.16 2674.37,-337.43 2720.75,-295.5 2743.25,-275.16 2744.75,-261.95 2744.75,-231.62 2744.75,-231.62 2744.75,-231.62 2744.75,-174.38 2744.75,-144.05 2744.01,-129.96 2720.75,-110.5 2690.83,-85.46 2580.44,-73.44 2519.61,-68.6"/>
<polygon fill="#63b8ff" stroke="#63b8ff" points="2520.1,-65.05 2509.87,-67.78 2519.57,-72.03 2520.1,-65.05"/>
</g>
<!-- Node36&#45;&gt;Node15 -->
<g id="edge88" class="edge">
<title>Node36&#45;&gt;Node15</title>
<path fill="none" stroke="#63b8ff" d="M1682.15,-557.55C1616.08,-549.88 1481.66,-526.83 1390.75,-461.25 1339.67,-424.4 1332.61,-394.48 1333.75,-331.5 1334.19,-306.93 1330.4,-300.23 1335.75,-276.25 1337.72,-267.42 1341.38,-258.15 1344.96,-250.36"/>
<polygon fill="#63b8ff" stroke="#63b8ff" points="1348.53,-252.05 1349.8,-241.53 1342.25,-248.96 1348.53,-252.05"/>
</g>
<!-- Node36&#45;&gt;Node30 -->
<g id="edge87" class="edge">
<title>Node36&#45;&gt;Node30</title>
<path fill="none" stroke="#63b8ff" d="M1743.01,-552.11C1758.74,-544.55 1779.78,-532.41 1793.75,-516.5 1847.2,-455.61 1843.42,-349.94 1839.18,-306.44"/>
<polygon fill="#63b8ff" stroke="#63b8ff" points="1842.56,-306.25 1837.99,-296.7 1835.61,-307.02 1842.56,-306.25"/>
</g>
<!-- Node37 -->
<g id="node37" class="node">
<title>Node37</title>
<g id="a_node37"><a xlink:title=" ">
<polygon fill="#e0e0e0" stroke="#999999" points="1784.75,-516.5 1726.75,-516.5 1726.75,-497.25 1784.75,-497.25 1784.75,-516.5"/>
<text text-anchor="middle" x="1755.75" y="-503" font-family="Helvetica,sans-Serif" font-size="10.00">functional</text>
</a>
</g>
</g>
<!-- Node36&#45;&gt;Node37 -->
<g id="edge84" class="edge">
<title>Node36&#45;&gt;Node37</title>
<path fill="none" stroke="#63b8ff" d="M1727.36,-552.33C1731.91,-545.21 1738.48,-534.93 1744.15,-526.05"/>
<polygon fill="#63b8ff" stroke="#63b8ff" points="1747.58,-528.17 1750.01,-517.86 1741.68,-524.4 1747.58,-528.17"/>
</g>
<!-- Node38 -->
<g id="node38" class="node">
<title>Node38</title>
<g id="a_node38"><a xlink:title=" ">
<polygon fill="#e0e0e0" stroke="#999999" points="1708.75,-516.5 1668.75,-516.5 1668.75,-497.25 1708.75,-497.25 1708.75,-516.5"/>
<text text-anchor="middle" x="1688.75" y="-503" font-family="Helvetica,sans-Serif" font-size="10.00">string</text>
</a>
</g>
</g>
<!-- Node36&#45;&gt;Node38 -->
<g id="edge85" class="edge">
<title>Node36&#45;&gt;Node38</title>
<path fill="none" stroke="#63b8ff" d="M1716.3,-552.33C1711.88,-545.21 1705.51,-534.93 1700.01,-526.05"/>
<polygon fill="#63b8ff" stroke="#63b8ff" points="1702.56,-524.52 1694.32,-517.86 1696.61,-528.2 1702.56,-524.52"/>
</g>
<!-- Node39 -->
<g id="node39" class="node">
<title>Node39</title>
<g id="a_node39"><a xlink:href="v8-promise_8h.html" target="_top" xlink:title=" ">
<polygon fill="white" stroke="#666666" points="1612.5,-516.5 1541,-516.5 1541,-497.25 1612.5,-497.25 1612.5,-516.5"/>
<text text-anchor="middle" x="1576.75" y="-503" font-family="Helvetica,sans-Serif" font-size="10.00">v8&#45;promise.h</text>
</a>
</g>
</g>
<!-- Node36&#45;&gt;Node39 -->
<g id="edge89" class="edge">
<title>Node36&#45;&gt;Node39</title>
<path fill="none" stroke="#63b8ff" d="M1697.15,-552.09C1673.61,-543.45 1637.88,-530.32 1611.45,-520.62"/>
<polygon fill="#63b8ff" stroke="#63b8ff" points="1613.06,-517.11 1602.47,-516.95 1610.65,-523.69 1613.06,-517.11"/>
</g>
<!-- Node39&#45;&gt;Node13 -->
<g id="edge92" class="edge">
<title>Node39&#45;&gt;Node13</title>
<path fill="none" stroke="#63b8ff" d="M1612.74,-499.26C1617.44,-498.52 1622.21,-497.82 1626.75,-497.25 1827.58,-472.02 1883.68,-507.45 2080.75,-461.25 2103.13,-456 2106.54,-447.92 2128.75,-442 2239.77,-412.4 2280.16,-453.56 2384.75,-406 2430.78,-385.07 2425.41,-353.9 2470.75,-331.5 2541.55,-296.52 2594.89,-356.74 2644.75,-295.5 2662.22,-274.04 2734.8,-253.48 2606.75,-110.5 2600.63,-103.67 2554.51,-88.61 2519.37,-77.88"/>
<polygon fill="#63b8ff" stroke="#63b8ff" points="2520.45,-74.25 2509.87,-74.7 2518.43,-80.95 2520.45,-74.25"/>
</g>
<!-- Node39&#45;&gt;Node15 -->
<g id="edge90" class="edge">
<title>Node39&#45;&gt;Node15</title>
<path fill="none" stroke="#63b8ff" d="M1540.83,-500.92C1490.56,-491.88 1400.69,-467.6 1358.75,-406 1326.43,-358.53 1339.8,-285.7 1348.9,-251.13"/>
<polygon fill="#63b8ff" stroke="#63b8ff" points="1352.53,-252.18 1351.86,-241.61 1345.79,-250.28 1352.53,-252.18"/>
</g>
<!-- Node39&#45;&gt;Node25 -->
<g id="edge91" class="edge">
<title>Node39&#45;&gt;Node25</title>
<path fill="none" stroke="#63b8ff" d="M1580.38,-497.08C1583.23,-490.19 1587.3,-480.34 1590.89,-471.66"/>
<polygon fill="#63b8ff" stroke="#63b8ff" points="1594.45,-473.19 1595.04,-462.61 1587.98,-470.52 1594.45,-473.19"/>
</g>
<!-- Node40&#45;&gt;Node6 -->
<g id="edge96" class="edge">
<title>Node40&#45;&gt;Node6</title>
<path fill="none" stroke="#63b8ff" d="M1823.81,-671.82C1693.38,-671.94 1188.99,-665.97 788.75,-571.75 645.88,-538.12 480.75,-599.4 480.75,-452.62 480.75,-452.62 480.75,-452.62 480.75,-340.12 480.75,-240.59 527.82,-127.87 547.87,-84.36"/>
<polygon fill="#63b8ff" stroke="#63b8ff" points="551.36,-86.16 552.45,-75.62 545.03,-83.19 551.36,-86.16"/>
</g>
<!-- Node40&#45;&gt;Node13 -->
<g id="edge119" class="edge">
<title>Node40&#45;&gt;Node13</title>
<path fill="none" stroke="#63b8ff" d="M1887.77,-668.71C2050.83,-653.62 2784.21,-582.42 2859.75,-516.5 2882.07,-497.03 2878.75,-482.24 2878.75,-452.62 2878.75,-452.62 2878.75,-452.62 2878.75,-395.38 2878.75,-322.16 2896.75,-304.84 2896.75,-231.62 2896.75,-231.62 2896.75,-231.62 2896.75,-174.38 2896.75,-137.77 2876.8,-128.19 2844.75,-110.5 2816.74,-95.04 2609.21,-76.51 2519.68,-69.13"/>
<polygon fill="#63b8ff" stroke="#63b8ff" points="2520.11,-65.57 2509.86,-68.25 2519.54,-72.55 2520.11,-65.57"/>
</g>
<!-- Node41 -->
<g id="node41" class="node">
<title>Node41</title>
<g id="a_node41"><a xlink:href="v8-script_8h.html" target="_top" xlink:title=" ">
<polygon fill="white" stroke="#666666" points="1886.25,-627 1825.25,-627 1825.25,-607.75 1886.25,-607.75 1886.25,-627"/>
<text text-anchor="middle" x="1855.75" y="-613.5" font-family="Helvetica,sans-Serif" font-size="10.00">v8&#45;script.h</text>
</a>
</g>
</g>
<!-- Node40&#45;&gt;Node41 -->
<g id="edge97" class="edge">
<title>Node40&#45;&gt;Node41</title>
<path fill="none" stroke="#63b8ff" d="M1855.75,-662.83C1855.75,-656.17 1855.75,-646.74 1855.75,-638.28"/>
<polygon fill="#63b8ff" stroke="#63b8ff" points="1859.25,-638.36 1855.75,-628.36 1852.25,-638.36 1859.25,-638.36"/>
</g>
<!-- Node41&#45;&gt;Node6 -->
<g id="edge99" class="edge">
<title>Node41&#45;&gt;Node6</title>
<path fill="none" stroke="#63b8ff" d="M1824.95,-616.08C1665.56,-614.43 938.17,-605.1 843.75,-571.75 726.63,-530.39 684.53,-511.36 618.75,-406 552.41,-299.73 553.03,-140.66 555.52,-85.52"/>
<polygon fill="#63b8ff" stroke="#63b8ff" points="559.06,-86.04 556.09,-75.86 552.07,-85.66 559.06,-86.04"/>
</g>
<!-- Node41&#45;&gt;Node8 -->
<g id="edge100" class="edge">
<title>Node41&#45;&gt;Node8</title>
<path fill="none" stroke="#63b8ff" d="M1886.69,-616.42C2036.36,-616.2 2685.16,-609.77 2859.75,-516.5 2976.34,-454.22 3048.75,-419.05 3048.75,-286.88 3048.75,-286.88 3048.75,-286.88 3048.75,-119.12 3048.75,-99.06 3558.5,-147.3 2703.75,-55.25 2323.97,-14.35 1860.07,-10.73 1728.85,-10.57"/>
<polygon fill="#63b8ff" stroke="#63b8ff" points="1729.24,-7.07 1719.23,-10.57 1729.23,-14.07 1729.24,-7.07"/>
</g>
<!-- Node41&#45;&gt;Node10 -->
<g id="edge98" class="edge">
<title>Node41&#45;&gt;Node10</title>
<path fill="none" stroke="#63b8ff" d="M1824.77,-615.86C1662.17,-613.05 913.35,-598.68 872.75,-571.75 737.46,-482.01 728.62,-377.79 770.75,-221 785.48,-166.19 795.35,-151.35 834.75,-110.5 846.71,-98.1 862.77,-87.64 876.6,-79.96"/>
<polygon fill="#63b8ff" stroke="#63b8ff" points="877.98,-82.66 885.18,-74.88 874.7,-76.47 877.98,-82.66"/>
</g>
<!-- Node41&#45;&gt;Node13 -->
<g id="edge118" class="edge">
<title>Node41&#45;&gt;Node13</title>
<path fill="none" stroke="#63b8ff" d="M1886.61,-609.05C1980.52,-586.14 2269.99,-511.13 2492.75,-406 2551.24,-378.4 2558.41,-357.22 2617.75,-331.5 2696.4,-297.41 2782.75,-317.35 2782.75,-231.62 2782.75,-231.62 2782.75,-231.62 2782.75,-174.38 2782.75,-140.88 2770.59,-129.12 2742.75,-110.5 2706.86,-86.5 2584.06,-73.84 2519.37,-68.69"/>
<polygon fill="#63b8ff" stroke="#63b8ff" points="2519.99,-65.15 2509.75,-67.87 2519.45,-72.13 2519.99,-65.15"/>
</g>
<!-- Node41&#45;&gt;Node15 -->
<g id="edge105" class="edge">
<title>Node41&#45;&gt;Node15</title>
<path fill="none" stroke="#63b8ff" d="M1825.13,-614.57C1696.03,-606.57 1202.75,-571.8 1202.75,-507.88 1202.75,-507.88 1202.75,-507.88 1202.75,-395.38 1202.75,-323.58 1282.2,-270.01 1326.22,-245.83"/>
<polygon fill="#63b8ff" stroke="#63b8ff" points="1327.63,-248.52 1334.81,-240.72 1324.34,-242.34 1327.63,-248.52"/>
</g>
<!-- Node41&#45;&gt;Node17 -->
<g id="edge102" class="edge">
<title>Node41&#45;&gt;Node17</title>
<path fill="none" stroke="#63b8ff" d="M1853.98,-607.39C1848.99,-584.72 1832.62,-525.07 1793.75,-497.25 1707.47,-435.5 1661.91,-481.46 1557.75,-461.25 1452.85,-440.9 1418.01,-456.33 1323.75,-406 1218.11,-349.6 1123.61,-236.75 1089.88,-193.65"/>
<polygon fill="#63b8ff" stroke="#63b8ff" points="1092.17,-191.89 1083.29,-186.12 1086.63,-196.17 1092.17,-191.89"/>
</g>
<!-- Node41&#45;&gt;Node26 -->
<g id="edge106" class="edge">
<title>Node41&#45;&gt;Node26</title>
<path fill="none" stroke="#63b8ff" d="M1872.54,-607.32C1884.82,-599.66 1900.55,-587.42 1907.75,-571.75 1913.68,-558.84 1912.41,-522.88 1902.75,-497.25 1870.58,-411.9 1846.46,-395.78 1781.75,-331.5 1770.46,-320.29 1756.15,-309.79 1744.11,-301.79"/>
<polygon fill="#63b8ff" stroke="#63b8ff" points="1746.35,-298.43 1736.05,-295.95 1742.56,-304.31 1746.35,-298.43"/>
</g>
<!-- Node41&#45;&gt;Node30 -->
<g id="edge104" class="edge">
<title>Node41&#45;&gt;Node30</title>
<path fill="none" stroke="#63b8ff" d="M1886.35,-608.27C1908.85,-601.24 1939.29,-589.38 1961.75,-571.75 2015.41,-529.63 2074.27,-503.01 2043.75,-442 2007.34,-369.22 1918.76,-321.75 1870.11,-300.23"/>
<polygon fill="#63b8ff" stroke="#63b8ff" points="1871.65,-296.65 1861.08,-295.91 1868.88,-303.08 1871.65,-296.65"/>
</g>
<!-- Node41&#45;&gt;Node36 -->
<g id="edge103" class="edge">
<title>Node41&#45;&gt;Node36</title>
<path fill="none" stroke="#63b8ff" d="M1833.02,-607.34C1811.55,-598.81 1779.12,-585.92 1754.8,-576.26"/>
<polygon fill="#63b8ff" stroke="#63b8ff" points="1756.18,-572.64 1745.59,-572.2 1753.59,-579.15 1756.18,-572.64"/>
</g>
<!-- Node42 -->
<g id="node42" class="node">
<title>Node42</title>
<g id="a_node42"><a xlink:title=" ">
<polygon fill="#e0e0e0" stroke="#999999" points="1898.25,-571.75 1861.25,-571.75 1861.25,-552.5 1898.25,-552.5 1898.25,-571.75"/>
<text text-anchor="middle" x="1879.75" y="-558.25" font-family="Helvetica,sans-Serif" font-size="10.00">tuple</text>
</a>
</g>
</g>
<!-- Node41&#45;&gt;Node42 -->
<g id="edge101" class="edge">
<title>Node41&#45;&gt;Node42</title>
<path fill="none" stroke="#63b8ff" d="M1859.71,-607.58C1862.86,-600.61 1867.36,-590.62 1871.3,-581.87"/>
<polygon fill="#63b8ff" stroke="#63b8ff" points="1874.78,-583.66 1875.7,-573.11 1868.4,-580.79 1874.78,-583.66"/>
</g>
<!-- Node43 -->
<g id="node43" class="node">
<title>Node43</title>
<g id="a_node43"><a xlink:href="v8-memory-span_8h.html" target="_top" xlink:title=" ">
<polygon fill="#fff0f0" stroke="red" points="1433.5,-129.75 1338,-129.75 1338,-110.5 1433.5,-110.5 1433.5,-129.75"/>
<text text-anchor="middle" x="1385.75" y="-116.25" font-family="Helvetica,sans-Serif" font-size="10.00">v8&#45;memory&#45;span.h</text>
</a>
</g>
</g>
<!-- Node41&#45;&gt;Node43 -->
<g id="edge107" class="edge">
<title>Node41&#45;&gt;Node43</title>
<path fill="none" stroke="#63b8ff" d="M1824.78,-616.03C1663.95,-614.12 930.04,-603.66 894.75,-571.75 818.22,-502.56 860.75,-445.29 860.75,-342.12 860.75,-342.12 860.75,-342.12 860.75,-284.88 860.75,-206.51 916.99,-192.21 990.75,-165.75 1051.13,-144.09 1232.09,-130.36 1326.68,-124.46"/>
<polygon fill="#63b8ff" stroke="#63b8ff" points="1326.73,-127.9 1336.5,-123.8 1326.3,-120.91 1326.73,-127.9"/>
</g>
<!-- Node45 -->
<g id="node44" class="node">
<title>Node45</title>
<g id="a_node44"><a xlink:href="v8-message_8h.html" target="_top" xlink:title=" ">
<polygon fill="#fff0f0" stroke="red" points="2035.12,-461.25 1958.38,-461.25 1958.38,-442 2035.12,-442 2035.12,-461.25"/>
<text text-anchor="middle" x="1996.75" y="-447.75" font-family="Helvetica,sans-Serif" font-size="10.00">v8&#45;message.h</text>
</a>
</g>
</g>
<!-- Node41&#45;&gt;Node45 -->
<g id="edge112" class="edge">
<title>Node41&#45;&gt;Node45</title>
<path fill="none" stroke="#63b8ff" d="M1883.14,-607.26C1901.39,-600.04 1924.85,-588.37 1940.75,-571.75 1968.44,-542.82 1984.46,-497.67 1991.81,-472.07"/>
<polygon fill="#63b8ff" stroke="#63b8ff" points="1995.44,-473.09 1994.67,-462.52 1988.68,-471.26 1995.44,-473.09"/>
</g>
<!-- Node43&#45;&gt;Node10 -->
<g id="edge108" class="edge">
<title>Node43&#45;&gt;Node10</title>
<path fill="none" stroke="#63b8ff" d="M1337.71,-112.29C1332.99,-111.66 1328.28,-111.06 1323.75,-110.5 1182.8,-93.18 1014.61,-76.41 942.04,-69.36"/>
<polygon fill="#63b8ff" stroke="#63b8ff" points="942.52,-65.79 932.23,-68.31 941.84,-72.76 942.52,-65.79"/>
</g>
<!-- Node43&#45;&gt;Node13 -->
<g id="edge111" class="edge">
<title>Node43&#45;&gt;Node13</title>
<path fill="none" stroke="#63b8ff" d="M1433.91,-111.47C1436.9,-111.11 1439.86,-110.78 1442.75,-110.5 1828.75,-73.09 2298.7,-67.04 2438,-66.06"/>
<polygon fill="#63b8ff" stroke="#63b8ff" points="2437.6,-69.56 2447.58,-65.99 2437.56,-62.56 2437.6,-69.56"/>
</g>
<!-- Node43&#45;&gt;Node16 -->
<g id="edge110" class="edge">
<title>Node43&#45;&gt;Node16</title>
<path fill="none" stroke="#63b8ff" d="M1424.86,-110.03C1466.22,-100.41 1531.22,-85.3 1573.41,-75.49"/>
<polygon fill="#63b8ff" stroke="#63b8ff" points="1573.93,-78.73 1582.88,-73.05 1572.35,-71.91 1573.93,-78.73"/>
</g>
<!-- Node43&#45;&gt;Node22 -->
<g id="edge109" class="edge">
<title>Node43&#45;&gt;Node22</title>
<path fill="none" stroke="#63b8ff" d="M1383.27,-110.33C1381.35,-103.51 1378.62,-93.81 1376.19,-85.2"/>
<polygon fill="#63b8ff" stroke="#63b8ff" points="1379.36,-84.54 1373.28,-75.86 1372.62,-86.43 1379.36,-84.54"/>
</g>
<!-- Node45&#45;&gt;Node13 -->
<g id="edge117" class="edge">
<title>Node45&#45;&gt;Node13</title>
<path fill="none" stroke="#63b8ff" d="M2024.01,-441.51C2088.13,-420.29 2253.74,-366.7 2394.75,-331.5 2473.48,-311.84 2522.34,-358.28 2573.75,-295.5 2581.43,-286.13 2584.16,-196.13 2530.75,-110.5 2523.52,-98.91 2512.31,-88.74 2502.15,-81.04"/>
<polygon fill="#63b8ff" stroke="#63b8ff" points="2504.43,-77.66 2494.26,-74.7 2500.37,-83.36 2504.43,-77.66"/>
</g>
<!-- Node45&#45;&gt;Node15 -->
<g id="edge114" class="edge">
<title>Node45&#45;&gt;Node15</title>
<path fill="none" stroke="#63b8ff" d="M1958.05,-448.98C1899.54,-445.6 1785.64,-435.5 1693.75,-406 1660.72,-395.4 1454.45,-285.22 1380.83,-245.67"/>
<polygon fill="#63b8ff" stroke="#63b8ff" points="1382.82,-242.22 1372.35,-240.57 1379.5,-248.39 1382.82,-242.22"/>
</g>
<!-- Node45&#45;&gt;Node26 -->
<g id="edge115" class="edge">
<title>Node45&#45;&gt;Node26</title>
<path fill="none" stroke="#63b8ff" d="M1988.19,-441.54C1967.13,-419.66 1910.32,-363.51 1852.75,-331.5 1824.69,-315.9 1790.26,-304.53 1763.46,-297.17"/>
<polygon fill="#63b8ff" stroke="#63b8ff" points="1764.41,-293.54 1753.85,-294.36 1762.62,-300.31 1764.41,-293.54"/>
</g>
<!-- Node45&#45;&gt;Node29 -->
<g id="edge116" class="edge">
<title>Node45&#45;&gt;Node29</title>
<path fill="none" stroke="#63b8ff" d="M1958,-442.6C1912.37,-433.14 1836.59,-417.44 1787.41,-407.25"/>
<polygon fill="#63b8ff" stroke="#63b8ff" points="1788.23,-403.64 1777.73,-405.04 1786.81,-410.49 1788.23,-403.64"/>
</g>
<!-- Node45&#45;&gt;Node35 -->
<g id="edge113" class="edge">
<title>Node45&#45;&gt;Node35</title>
<path fill="none" stroke="#63b8ff" d="M2001.32,-441.83C2013.13,-418.63 2044.73,-353.58 2058.75,-295.5 2062.28,-280.9 2063.75,-263.95 2064.36,-251.18"/>
<polygon fill="#63b8ff" stroke="#63b8ff" points="2067.88,-251.54 2064.71,-241.43 2060.89,-251.31 2067.88,-251.54"/>
</g>
<!-- Node47&#45;&gt;Node13 -->
<g id="edge122" class="edge">
<title>Node47&#45;&gt;Node13</title>
<path fill="none" stroke="#63b8ff" d="M2729.03,-331.07C2752.22,-324.61 2778.57,-313.72 2796.75,-295.5 2818.17,-274.03 2820.75,-261.95 2820.75,-231.62 2820.75,-231.62 2820.75,-231.62 2820.75,-174.38 2820.75,-144.05 2820.42,-129.46 2796.75,-110.5 2754.76,-76.86 2595.33,-68.58 2519.41,-66.54"/>
<polygon fill="#63b8ff" stroke="#63b8ff" points="2519.92,-63.03 2509.84,-66.28 2519.75,-70.03 2519.92,-63.03"/>
</g>
<!-- Node47&#45;&gt;Node34 -->
<g id="edge121" class="edge">
<title>Node47&#45;&gt;Node34</title>
<path fill="none" stroke="#63b8ff" d="M2626.54,-336.21C2497.3,-326.52 2163.12,-301.45 2027.37,-291.27"/>
<polygon fill="#63b8ff" stroke="#63b8ff" points="2028.02,-287.74 2017.79,-290.48 2027.5,-294.72 2028.02,-287.74"/>
</g>
<!-- Node48&#45;&gt;Node13 -->
<g id="edge129" class="edge">
<title>Node48&#45;&gt;Node13</title>
<path fill="none" stroke="#63b8ff" d="M1777.44,-447.23C1890.26,-438.15 2150.7,-405.9 2334.75,-295.5 2415.51,-247.06 2433.99,-218.04 2466.75,-129.75 2472.05,-115.48 2475.09,-98.51 2476.79,-85.66"/>
<polygon fill="#63b8ff" stroke="#63b8ff" points="2480.37,-86.14 2478.03,-75.81 2473.42,-85.34 2480.37,-86.14"/>
</g>
<!-- Node48&#45;&gt;Node15 -->
<g id="edge127" class="edge">
<title>Node48&#45;&gt;Node15</title>
<path fill="none" stroke="#63b8ff" d="M1666.3,-444.54C1630.29,-438.71 1583.42,-427.46 1546.75,-406 1507.28,-382.89 1509.22,-362.67 1475.75,-331.5 1441.81,-299.9 1399.5,-266.16 1374.96,-247.1"/>
<polygon fill="#63b8ff" stroke="#63b8ff" points="1377.53,-243.89 1367.48,-240.55 1373.25,-249.43 1377.53,-243.89"/>
</g>
<!-- Node48&#45;&gt;Node19 -->
<g id="edge126" class="edge">
<title>Node48&#45;&gt;Node19</title>
<path fill="none" stroke="#63b8ff" d="M1709.57,-441.58C1674.35,-414.82 1571.34,-332.08 1515.75,-240.25 1501.98,-217.5 1499.38,-210.76 1492.75,-185 1489,-170.43 1487.26,-153.48 1486.45,-140.7"/>
<polygon fill="#63b8ff" stroke="#63b8ff" points="1489.91,-140.76 1485.93,-130.95 1482.92,-141.1 1489.91,-140.76"/>
</g>
<!-- Node48&#45;&gt;Node23 -->
<g id="edge125" class="edge">
<title>Node48&#45;&gt;Node23</title>
<path fill="none" stroke="#63b8ff" d="M1777.47,-443.32C1829.47,-435.92 1909,-423.14 1976.75,-406 2142.45,-364.09 2299.74,-409.47 2323.75,-240.25 2324.95,-231.78 2328.88,-227.85 2323.75,-221 2261.63,-138.14 1927.32,-84.79 1823.52,-70.04"/>
<polygon fill="#63b8ff" stroke="#63b8ff" points="1824.23,-66.47 1813.84,-68.55 1823.26,-73.4 1824.23,-66.47"/>
</g>
<!-- Node48&#45;&gt;Node29 -->
<g id="edge128" class="edge">
<title>Node48&#45;&gt;Node29</title>
<path fill="none" stroke="#63b8ff" d="M1724.72,-441.83C1727.03,-435.01 1730.31,-425.31 1733.22,-416.7"/>
<polygon fill="#63b8ff" stroke="#63b8ff" points="1736.83,-417.95 1736.71,-407.36 1730.2,-415.71 1736.83,-417.95"/>
</g>
<!-- Node48&#45;&gt;Node33 -->
<g id="edge124" class="edge">
<title>Node48&#45;&gt;Node33</title>
<path fill="none" stroke="#63b8ff" d="M1666.1,-442.6C1612.42,-434.22 1535.48,-420.31 1508.75,-406 1487.5,-394.62 1468.52,-374.16 1456.63,-359.46"/>
<polygon fill="#63b8ff" stroke="#63b8ff" points="1459.1,-357.92 1450.19,-352.18 1453.57,-362.22 1459.1,-357.92"/>
</g>
<!-- Node50&#45;&gt;Node6 -->
<g id="edge137" class="edge">
<title>Node50&#45;&gt;Node6</title>
<path fill="none" stroke="#63b8ff" d="M933.02,-552.11C924.54,-543.25 911.43,-529.24 900.75,-516.5 764.21,-353.58 613.21,-144.82 569.33,-83.53"/>
<polygon fill="#63b8ff" stroke="#63b8ff" points="571.68,-81.8 563.02,-75.7 565.99,-85.87 571.68,-81.8"/>
</g>
<!-- Node50&#45;&gt;Node8 -->
<g id="edge138" class="edge">
<title>Node50&#45;&gt;Node8</title>
<path fill="none" stroke="#63b8ff" d="M924.53,-552.08C822.83,-497.8 312.48,-212.18 523.75,-55.25 570.26,-20.7 1462.85,-12.29 1656.07,-10.87"/>
<polygon fill="#63b8ff" stroke="#63b8ff" points="1656.04,-14.36 1666.02,-10.79 1655.99,-7.36 1656.04,-14.36"/>
</g>
<!-- Node50&#45;&gt;Node10 -->
<g id="edge136" class="edge">
<title>Node50&#45;&gt;Node10</title>
<path fill="none" stroke="#63b8ff" d="M935.85,-552.13C911.84,-514.61 822.75,-366.34 822.75,-231.62 822.75,-231.62 822.75,-231.62 822.75,-174.38 822.75,-134.42 858.7,-100.06 883.28,-81.24"/>
<polygon fill="#63b8ff" stroke="#63b8ff" points="885.05,-83.54 891.04,-74.81 880.91,-77.9 885.05,-83.54"/>
</g>
<!-- Node50&#45;&gt;Node11 -->
<g id="edge139" class="edge">
<title>Node50&#45;&gt;Node11</title>
<path fill="none" stroke="#63b8ff" d="M980.42,-556.9C1144.98,-538.86 1778.93,-468.93 1785.75,-461.25 1840.82,-399.27 1811.22,-342.79 1761.75,-276.25 1752.85,-264.29 1739.87,-254.08 1728.25,-246.45"/>
<polygon fill="#63b8ff" stroke="#63b8ff" points="1730.27,-242.97 1719.93,-240.68 1726.58,-248.92 1730.27,-242.97"/>
</g>
<!-- Node50&#45;&gt;Node13 -->
<g id="edge144" class="edge">
<title>Node50&#45;&gt;Node13</title>
<path fill="none" stroke="#63b8ff" d="M980.36,-560.62C1105.59,-558.67 1499.51,-549.96 1621.75,-516.5 1640.01,-511.5 1641.52,-502.37 1659.75,-497.25 1856.77,-441.96 1915.9,-488.19 2118.75,-461.25 2250.55,-443.75 2287.92,-451.77 2412.75,-406 2475.64,-382.94 2482.03,-357.51 2543.75,-331.5 2597.03,-309.05 2622.98,-330.82 2668.75,-295.5 2694.9,-275.32 2706.75,-264.66 2706.75,-231.62 2706.75,-231.62 2706.75,-231.62 2706.75,-174.38 2706.75,-92.32 2584.87,-72.25 2519.33,-67.39"/>
<polygon fill="#63b8ff" stroke="#63b8ff" points="2519.76,-63.85 2509.56,-66.69 2519.31,-70.83 2519.76,-63.85"/>
</g>
<!-- Node50&#45;&gt;Node15 -->
<g id="edge141" class="edge">
<title>Node50&#45;&gt;Node15</title>
<path fill="none" stroke="#63b8ff" d="M948.82,-552.13C966.78,-528.34 1012.75,-461.21 1012.75,-397.38 1012.75,-397.38 1012.75,-397.38 1012.75,-340.12 1012.75,-280.75 1202.43,-249.63 1299.27,-237.62"/>
<polygon fill="#63b8ff" stroke="#63b8ff" points="1299.53,-240.99 1309.04,-236.31 1298.69,-234.04 1299.53,-240.99"/>
</g>
<!-- Node50&#45;&gt;Node17 -->
<g id="edge140" class="edge">
<title>Node50&#45;&gt;Node17</title>
<path fill="none" stroke="#63b8ff" d="M941.5,-552.16C941.04,-526 941.47,-447.73 960.75,-386.75 985.11,-309.69 1039.06,-228.75 1063.84,-193.96"/>
<polygon fill="#63b8ff" stroke="#63b8ff" points="1067,-196.57 1070.01,-186.41 1061.32,-192.47 1067,-196.57"/>
</g>
<!-- Node50&#45;&gt;Node39 -->
<g id="edge143" class="edge">
<title>Node50&#45;&gt;Node39</title>
<path fill="none" stroke="#63b8ff" d="M980.52,-557.87C1091.49,-548.57 1410.13,-521.85 1530.21,-511.78"/>
<polygon fill="#63b8ff" stroke="#63b8ff" points="1530.19,-515.21 1539.87,-510.88 1529.61,-508.23 1530.19,-515.21"/>
</g>
<!-- Node50&#45;&gt;Node43 -->
<g id="edge142" class="edge">
<title>Node50&#45;&gt;Node43</title>
<path fill="none" stroke="#63b8ff" d="M938.66,-552.07C928.8,-522.37 898.75,-425.04 898.75,-342.12 898.75,-342.12 898.75,-342.12 898.75,-284.88 898.75,-200.78 968.49,-198.94 1045.75,-165.75 1095.02,-144.58 1243.34,-131.11 1326.89,-124.98"/>
<polygon fill="#63b8ff" stroke="#63b8ff" points="1327.01,-128.41 1336.73,-124.2 1326.51,-121.43 1327.01,-128.41"/>
</g>
<!-- Node51&#45;&gt;Node8 -->
<g id="edge146" class="edge">
<title>Node51&#45;&gt;Node8</title>
<path fill="none" stroke="#63b8ff" d="M2948.76,-331.04C2956.5,-312.66 2972.75,-269.56 2972.75,-231.62 2972.75,-231.62 2972.75,-231.62 2972.75,-119.12 2972.75,-54.97 1938.21,-18.47 1729.27,-11.76"/>
<polygon fill="#63b8ff" stroke="#63b8ff" points="1729.42,-8.23 1719.32,-11.41 1729.2,-15.23 1729.42,-8.23"/>
</g>
<!-- Node51&#45;&gt;Node13 -->
<g id="edge151" class="edge">
<title>Node51&#45;&gt;Node13</title>
<path fill="none" stroke="#63b8ff" d="M2943.36,-331.15C2940.61,-312.61 2934.75,-268.7 2934.75,-231.62 2934.75,-231.62 2934.75,-231.62 2934.75,-174.38 2934.75,-144.05 2934.76,-129.03 2910.75,-110.5 2880.15,-86.89 2621.38,-72.47 2519.62,-67.67"/>
<polygon fill="#63b8ff" stroke="#63b8ff" points="2520.01,-64.14 2509.86,-67.17 2519.68,-71.13 2520.01,-64.14"/>
</g>
<!-- Node52 -->
<g id="node50" class="node">
<title>Node52</title>
<g id="a_node50"><a xlink:href="v8-embedder-state-scope_8h.html" target="_top" xlink:title=" ">
<polygon fill="white" stroke="#666666" points="2564.62,-295.5 2430.88,-295.5 2430.88,-276.25 2564.62,-276.25 2564.62,-295.5"/>
<text text-anchor="middle" x="2497.75" y="-282" font-family="Helvetica,sans-Serif" font-size="10.00">v8&#45;embedder&#45;state&#45;scope.h</text>
</a>
</g>
</g>
<!-- Node51&#45;&gt;Node52 -->
<g id="edge147" class="edge">
<title>Node51&#45;&gt;Node52</title>
<path fill="none" stroke="#63b8ff" d="M2906.25,-335.54C2833.05,-326.82 2672.48,-307.69 2575.89,-296.18"/>
<polygon fill="#63b8ff" stroke="#63b8ff" points="2576.36,-292.6 2566.02,-294.89 2575.53,-299.55 2576.36,-292.6"/>
</g>
<!-- Node52&#45;&gt;Node8 -->
<g id="edge148" class="edge">
<title>Node52&#45;&gt;Node8</title>
<path fill="none" stroke="#63b8ff" d="M2507.28,-275.89C2530,-253.71 2586.92,-193.56 2606.75,-129.75 2622.06,-80.49 2566.96,-70.73 2517.75,-55.25 2367.53,-7.99 1868.06,-8.97 1728.98,-10.21"/>
<polygon fill="#63b8ff" stroke="#63b8ff" points="1729.08,-6.72 1719.12,-10.31 1729.15,-13.72 1729.08,-6.72"/>
</g>
<!-- Node52&#45;&gt;Node15 -->
<g id="edge150" class="edge">
<title>Node52&#45;&gt;Node15</title>
<path fill="none" stroke="#63b8ff" d="M2430.52,-281.74C2223.84,-272.11 1600.36,-243.07 1410.33,-234.21"/>
<polygon fill="#63b8ff" stroke="#63b8ff" points="1410.65,-230.68 1400.5,-233.71 1410.32,-237.67 1410.65,-230.68"/>
</g>
<!-- Node52&#45;&gt;Node19 -->
<g id="edge149" class="edge">
<title>Node52&#45;&gt;Node19</title>
<path fill="none" stroke="#63b8ff" d="M2477.28,-275.85C2445.18,-262.04 2380.77,-235.73 2323.75,-221 2028.04,-144.58 1658.27,-126.39 1531.12,-122.27"/>
<polygon fill="#63b8ff" stroke="#63b8ff" points="1531.39,-118.75 1521.28,-121.94 1531.17,-125.74 1531.39,-118.75"/>
</g>
</g>
</svg>
