<?xml version="1.0" encoding="UTF-8" standalone="no"?>
<!DOCTYPE svg PUBLIC "-//W3C//DTD SVG 1.1//EN"
 "http://www.w3.org/Graphics/SVG/1.1/DTD/svg11.dtd">
<!-- Generated by graphviz version 8.0.5 (20230430.1635)
 -->
<!-- Title: include/v8&#45;maybe.h Pages: 1 -->
<svg width="638pt" height="193pt"
 viewBox="0.00 0.00 638.25 193.00" xmlns="http://www.w3.org/2000/svg" xmlns:xlink="http://www.w3.org/1999/xlink">
<g id="graph0" class="graph" transform="scale(1 1) rotate(0) translate(4 189)">
<title>include/v8&#45;maybe.h</title>
<!-- Node1 -->
<g id="node1" class="node">
<title>Node1</title>
<g id="a_node1"><a xlink:title=" ">
<polygon fill="#999999" stroke="#666666" points="347.12,-185 247.88,-185 247.88,-165.75 347.12,-165.75 347.12,-185"/>
<text text-anchor="middle" x="297.5" y="-171.5" font-family="Helvetica,sans-Serif" font-size="10.00">include/v8&#45;maybe.h</text>
</a>
</g>
</g>
<!-- Node2 -->
<g id="node2" class="node">
<title>Node2</title>
<g id="a_node2"><a xlink:title=" ">
<polygon fill="#e0e0e0" stroke="#999999" points="61,-74.5 0,-74.5 0,-55.25 61,-55.25 61,-74.5"/>
<text text-anchor="middle" x="30.5" y="-61" font-family="Helvetica,sans-Serif" font-size="10.00">type_traits</text>
</a>
</g>
</g>
<!-- Node1&#45;&gt;Node2 -->
<g id="edge1" class="edge">
<title>Node1&#45;&gt;Node2</title>
<path fill="none" stroke="#63b8ff" d="M275.19,-165.31C227.98,-146.12 117.77,-101.34 62.83,-79.01"/>
<polygon fill="#63b8ff" stroke="#63b8ff" points="64.51,-75.51 53.93,-74.99 61.88,-82 64.51,-75.51"/>
</g>
<!-- Node3 -->
<g id="node3" class="node">
<title>Node3</title>
<g id="a_node3"><a xlink:title=" ">
<polygon fill="#e0e0e0" stroke="#999999" points="280.75,-129.75 242.25,-129.75 242.25,-110.5 280.75,-110.5 280.75,-129.75"/>
<text text-anchor="middle" x="261.5" y="-116.25" font-family="Helvetica,sans-Serif" font-size="10.00">utility</text>
</a>
</g>
</g>
<!-- Node1&#45;&gt;Node3 -->
<g id="edge2" class="edge">
<title>Node1&#45;&gt;Node3</title>
<path fill="none" stroke="#63b8ff" d="M291.56,-165.58C286.69,-158.38 279.64,-147.96 273.59,-139.01"/>
<polygon fill="#63b8ff" stroke="#63b8ff" points="276.07,-137.43 267.57,-131.11 270.28,-141.35 276.07,-137.43"/>
</g>
<!-- Node4 -->
<g id="node4" class="node">
<title>Node4</title>
<g id="a_node4"><a xlink:href="v8-internal_8h.html" target="_top" xlink:title=" ">
<polygon fill="white" stroke="#666666" points="367.75,-129.75 299.25,-129.75 299.25,-110.5 367.75,-110.5 367.75,-129.75"/>
<text text-anchor="middle" x="333.5" y="-116.25" font-family="Helvetica,sans-Serif" font-size="10.00">v8&#45;internal.h</text>
</a>
</g>
</g>
<!-- Node1&#45;&gt;Node4 -->
<g id="edge3" class="edge">
<title>Node1&#45;&gt;Node4</title>
<path fill="none" stroke="#63b8ff" d="M303.44,-165.58C308.31,-158.38 315.36,-147.96 321.41,-139.01"/>
<polygon fill="#63b8ff" stroke="#63b8ff" points="324.72,-141.35 327.43,-131.11 318.93,-137.43 324.72,-141.35"/>
</g>
<!-- Node13 -->
<g id="node13" class="node">
<title>Node13</title>
<g id="a_node13"><a xlink:href="v8config_8h.html" target="_top" xlink:title=" ">
<polygon fill="white" stroke="#666666" points="630.25,-74.5 570.75,-74.5 570.75,-55.25 630.25,-55.25 630.25,-74.5"/>
<text text-anchor="middle" x="600.5" y="-61" font-family="Helvetica,sans-Serif" font-size="10.00">v8config.h</text>
</a>
</g>
</g>
<!-- Node1&#45;&gt;Node13 -->
<g id="edge15" class="edge">
<title>Node1&#45;&gt;Node13</title>
<path fill="none" stroke="#63b8ff" d="M322.81,-165.31C376.73,-146 503.02,-100.78 564.97,-78.6"/>
<polygon fill="#63b8ff" stroke="#63b8ff" points="565.81,-81.66 574.05,-74.99 563.45,-75.07 565.81,-81.66"/>
</g>
<!-- Node4&#45;&gt;Node2 -->
<g id="edge12" class="edge">
<title>Node4&#45;&gt;Node2</title>
<path fill="none" stroke="#63b8ff" d="M298.93,-112.25C295.75,-111.64 292.56,-111.05 289.5,-110.5 195.74,-93.61 169.2,-92.93 72.06,-74.71"/>
<polygon fill="#63b8ff" stroke="#63b8ff" points="72.95,-71.13 62.48,-72.71 71.65,-78.01 72.95,-71.13"/>
</g>
<!-- Node5 -->
<g id="node5" class="node">
<title>Node5</title>
<g id="a_node5"><a xlink:title=" ">
<polygon fill="#e0e0e0" stroke="#999999" points="129.75,-74.5 79.25,-74.5 79.25,-55.25 129.75,-55.25 129.75,-74.5"/>
<text text-anchor="middle" x="104.5" y="-61" font-family="Helvetica,sans-Serif" font-size="10.00">stddef.h</text>
</a>
</g>
</g>
<!-- Node4&#45;&gt;Node5 -->
<g id="edge4" class="edge">
<title>Node4&#45;&gt;Node5</title>
<path fill="none" stroke="#63b8ff" d="M298.92,-111.47C262.03,-103.24 201.61,-89.61 140.68,-74.99"/>
<polygon fill="#63b8ff" stroke="#63b8ff" points="141.65,-71.38 131.1,-72.44 140.01,-78.18 141.65,-71.38"/>
</g>
<!-- Node6 -->
<g id="node6" class="node">
<title>Node6</title>
<g id="a_node6"><a xlink:title=" ">
<polygon fill="#e0e0e0" stroke="#999999" points="195.25,-74.5 147.75,-74.5 147.75,-55.25 195.25,-55.25 195.25,-74.5"/>
<text text-anchor="middle" x="171.5" y="-61" font-family="Helvetica,sans-Serif" font-size="10.00">stdint.h</text>
</a>
</g>
</g>
<!-- Node4&#45;&gt;Node6 -->
<g id="edge5" class="edge">
<title>Node4&#45;&gt;Node6</title>
<path fill="none" stroke="#63b8ff" d="M306.02,-110.09C278.44,-101.03 235.89,-87.04 206.04,-77.23"/>
<polygon fill="#63b8ff" stroke="#63b8ff" points="207.27,-73.62 196.67,-73.82 205.08,-80.27 207.27,-73.62"/>
</g>
<!-- Node7 -->
<g id="node7" class="node">
<title>Node7</title>
<g id="a_node7"><a xlink:title=" ">
<polygon fill="#e0e0e0" stroke="#999999" points="261.25,-74.5 213.75,-74.5 213.75,-55.25 261.25,-55.25 261.25,-74.5"/>
<text text-anchor="middle" x="237.5" y="-61" font-family="Helvetica,sans-Serif" font-size="10.00">string.h</text>
</a>
</g>
</g>
<!-- Node4&#45;&gt;Node7 -->
<g id="edge6" class="edge">
<title>Node4&#45;&gt;Node7</title>
<path fill="none" stroke="#63b8ff" d="M317.21,-110.09C302.46,-101.91 280.46,-89.71 263.31,-80.19"/>
<polygon fill="#63b8ff" stroke="#63b8ff" points="265.31,-76.74 254.86,-74.95 261.91,-82.86 265.31,-76.74"/>
</g>
<!-- Node8 -->
<g id="node8" class="node">
<title>Node8</title>
<g id="a_node8"><a xlink:title=" ">
<polygon fill="#e0e0e0" stroke="#999999" points="324.12,-74.5 278.88,-74.5 278.88,-55.25 324.12,-55.25 324.12,-74.5"/>
<text text-anchor="middle" x="301.5" y="-61" font-family="Helvetica,sans-Serif" font-size="10.00">atomic</text>
</a>
</g>
</g>
<!-- Node4&#45;&gt;Node8 -->
<g id="edge7" class="edge">
<title>Node4&#45;&gt;Node8</title>
<path fill="none" stroke="#63b8ff" d="M328.22,-110.33C323.93,-103.21 317.76,-92.93 312.42,-84.05"/>
<polygon fill="#63b8ff" stroke="#63b8ff" points="315.05,-82.63 306.9,-75.86 309.05,-86.23 315.05,-82.63"/>
</g>
<!-- Node9 -->
<g id="node9" class="node">
<title>Node9</title>
<g id="a_node9"><a xlink:title=" ">
<polygon fill="#e0e0e0" stroke="#999999" points="388.5,-74.5 342.5,-74.5 342.5,-55.25 388.5,-55.25 388.5,-74.5"/>
<text text-anchor="middle" x="365.5" y="-61" font-family="Helvetica,sans-Serif" font-size="10.00">iterator</text>
</a>
</g>
</g>
<!-- Node4&#45;&gt;Node9 -->
<g id="edge8" class="edge">
<title>Node4&#45;&gt;Node9</title>
<path fill="none" stroke="#63b8ff" d="M338.78,-110.33C343.07,-103.21 349.24,-92.93 354.58,-84.05"/>
<polygon fill="#63b8ff" stroke="#63b8ff" points="357.95,-86.23 360.1,-75.86 351.95,-82.63 357.95,-86.23"/>
</g>
<!-- Node10 -->
<g id="node10" class="node">
<title>Node10</title>
<g id="a_node10"><a xlink:title=" ">
<polygon fill="#e0e0e0" stroke="#999999" points="446.12,-74.5 406.88,-74.5 406.88,-55.25 446.12,-55.25 446.12,-74.5"/>
<text text-anchor="middle" x="426.5" y="-61" font-family="Helvetica,sans-Serif" font-size="10.00">limits</text>
</a>
</g>
</g>
<!-- Node4&#45;&gt;Node10 -->
<g id="edge9" class="edge">
<title>Node4&#45;&gt;Node10</title>
<path fill="none" stroke="#63b8ff" d="M349.28,-110.09C363.57,-101.91 384.88,-89.71 401.49,-80.19"/>
<polygon fill="#63b8ff" stroke="#63b8ff" points="402.71,-82.96 409.65,-74.95 399.23,-76.88 402.71,-82.96"/>
</g>
<!-- Node11 -->
<g id="node11" class="node">
<title>Node11</title>
<g id="a_node11"><a xlink:title=" ">
<polygon fill="#e0e0e0" stroke="#999999" points="562.75,-19.25 512.25,-19.25 512.25,0 562.75,0 562.75,-19.25"/>
<text text-anchor="middle" x="537.5" y="-5.75" font-family="Helvetica,sans-Serif" font-size="10.00">memory</text>
</a>
</g>
</g>
<!-- Node4&#45;&gt;Node11 -->
<g id="edge10" class="edge">
<title>Node4&#45;&gt;Node11</title>
<path fill="none" stroke="#63b8ff" d="M366.81,-110.02C392.05,-102.4 427.1,-90.25 455.5,-74.5 479.74,-61.06 504.4,-40.76 520.26,-26.67"/>
<polygon fill="#63b8ff" stroke="#63b8ff" points="522.05,-29.87 527.11,-20.56 517.35,-24.68 522.05,-29.87"/>
</g>
<!-- Node12 -->
<g id="node12" class="node">
<title>Node12</title>
<g id="a_node12"><a xlink:title=" ">
<polygon fill="#e0e0e0" stroke="#999999" points="552.38,-74.5 502.62,-74.5 502.62,-55.25 552.38,-55.25 552.38,-74.5"/>
<text text-anchor="middle" x="527.5" y="-61" font-family="Helvetica,sans-Serif" font-size="10.00">optional</text>
</a>
</g>
</g>
<!-- Node4&#45;&gt;Node12 -->
<g id="edge11" class="edge">
<title>Node4&#45;&gt;Node12</title>
<path fill="none" stroke="#63b8ff" d="M366.41,-110.09C401.19,-100.55 455.86,-85.54 491.7,-75.7"/>
<polygon fill="#63b8ff" stroke="#63b8ff" points="492.46,-78.85 501.17,-72.83 490.6,-72.1 492.46,-78.85"/>
</g>
<!-- Node4&#45;&gt;Node13 -->
<g id="edge13" class="edge">
<title>Node4&#45;&gt;Node13</title>
<path fill="none" stroke="#63b8ff" d="M367.93,-112.66C410.61,-104.58 485.84,-90.15 559.85,-74.8"/>
<polygon fill="#63b8ff" stroke="#63b8ff" points="560.2,-78.1 569.28,-72.63 558.78,-71.24 560.2,-78.1"/>
</g>
<!-- Node13&#45;&gt;Node11 -->
<g id="edge14" class="edge">
<title>Node13&#45;&gt;Node11</title>
<path fill="none" stroke="#63b8ff" d="M589.81,-54.84C580.62,-47.07 567.14,-35.67 556.16,-26.4"/>
<polygon fill="#63b8ff" stroke="#63b8ff" points="558.93,-23.31 549.03,-19.52 554.41,-28.65 558.93,-23.31"/>
</g>
</g>
</svg>
