<?xml version="1.0" encoding="UTF-8" standalone="no"?>
<!DOCTYPE svg PUBLIC "-//W3C//DTD SVG 1.1//EN"
 "http://www.w3.org/Graphics/SVG/1.1/DTD/svg11.dtd">
<!-- Generated by graphviz version 8.0.5 (20230430.1635)
 -->
<!-- Title: include/v8&#45;weak&#45;callback&#45;info.h Pages: 1 -->
<svg width="1371pt" height="703pt"
 viewBox="0.00 0.00 1371.00 702.50" xmlns="http://www.w3.org/2000/svg" xmlns:xlink="http://www.w3.org/1999/xlink">
<g id="graph0" class="graph" transform="scale(1 1) rotate(0) translate(4 698.5)">
<title>include/v8&#45;weak&#45;callback&#45;info.h</title>
<!-- Node1 -->
<g id="node1" class="node">
<title>Node1</title>
<g id="a_node1"><a xlink:title=" ">
<polygon fill="#999999" stroke="#666666" points="654.75,-694.5 529.25,-694.5 529.25,-664 654.75,-664 654.75,-694.5"/>
<text text-anchor="start" x="537.25" y="-681" font-family="Helvetica,sans-Serif" font-size="10.00">include/v8&#45;weak&#45;callback</text>
<text text-anchor="middle" x="592" y="-669.75" font-family="Helvetica,sans-Serif" font-size="10.00">&#45;info.h</text>
</a>
</g>
</g>
<!-- Node2 -->
<g id="node2" class="node">
<title>Node2</title>
<g id="a_node2"><a xlink:href="v8-persistent-handle_8h.html" target="_top" xlink:title=" ">
<polygon fill="white" stroke="#666666" points="379,-628 273,-628 273,-597.5 379,-597.5 379,-628"/>
<text text-anchor="start" x="281" y="-614.5" font-family="Helvetica,sans-Serif" font-size="10.00">include/v8&#45;persistent</text>
<text text-anchor="middle" x="326" y="-603.25" font-family="Helvetica,sans-Serif" font-size="10.00">&#45;handle.h</text>
</a>
</g>
</g>
<!-- Node1&#45;&gt;Node2 -->
<g id="edge1" class="edge">
<title>Node1&#45;&gt;Node2</title>
<path fill="none" stroke="#63b8ff" d="M520.84,-661C476.31,-650.2 419.88,-636.52 379.23,-626.66"/>
<polygon fill="#63b8ff" stroke="#63b8ff" points="519.76,-664.58 530.31,-663.53 521.41,-657.78 519.76,-664.58"/>
</g>
<!-- Node30 -->
<g id="node30" class="node">
<title>Node30</title>
<g id="a_node30"><a xlink:href="v8-traced-handle_8h.html" target="_top" xlink:title=" ">
<polygon fill="white" stroke="#666666" points="974.62,-622.38 845.38,-622.38 845.38,-603.12 974.62,-603.12 974.62,-622.38"/>
<text text-anchor="middle" x="910" y="-608.88" font-family="Helvetica,sans-Serif" font-size="10.00">include/v8&#45;traced&#45;handle.h</text>
</a>
</g>
</g>
<!-- Node1&#45;&gt;Node30 -->
<g id="edge56" class="edge">
<title>Node1&#45;&gt;Node30</title>
<path fill="none" stroke="#63b8ff" d="M665.67,-663.31C727.42,-650.78 813.57,-633.31 865.35,-622.81"/>
<polygon fill="#63b8ff" stroke="#63b8ff" points="665.31,-660.01 656.21,-665.43 666.7,-666.87 665.31,-660.01"/>
</g>
<!-- Node3 -->
<g id="node3" class="node">
<title>Node3</title>
<g id="a_node3"><a xlink:href="v8-isolate_8h.html" target="_top" xlink:title=" ">
<polygon fill="white" stroke="#666666" points="441.62,-274 342.38,-274 342.38,-254.75 441.62,-254.75 441.62,-274"/>
<text text-anchor="middle" x="392" y="-260.5" font-family="Helvetica,sans-Serif" font-size="10.00">include/v8&#45;isolate.h</text>
</a>
</g>
</g>
<!-- Node2&#45;&gt;Node3 -->
<g id="edge2" class="edge">
<title>Node2&#45;&gt;Node3</title>
<path fill="none" stroke="#63b8ff" d="M338.14,-587.27C348.25,-564.6 361,-529.65 361,-497.62 361,-497.62 361,-497.62 361,-379.5 361,-339.05 379.36,-293.27 387.82,-274.32"/>
<polygon fill="#63b8ff" stroke="#63b8ff" points="334.63,-585.51 333.59,-596.05 340.98,-588.46 334.63,-585.51"/>
</g>
<!-- Node5 -->
<g id="node5" class="node">
<title>Node5</title>
<g id="a_node5"><a xlink:href="v8_8h.html" target="_top" xlink:title=" ">
<polygon fill="white" stroke="#666666" points="766.88,-19.25 699.12,-19.25 699.12,0 766.88,0 766.88,-19.25"/>
<text text-anchor="middle" x="733" y="-5.75" font-family="Helvetica,sans-Serif" font-size="10.00">include/v8.h</text>
</a>
</g>
</g>
<!-- Node2&#45;&gt;Node5 -->
<g id="edge55" class="edge">
<title>Node2&#45;&gt;Node5</title>
<path fill="none" stroke="#63b8ff" d="M261.89,-602.63C166.93,-587.31 0,-552.55 0,-497.62 0,-497.62 0,-497.62 0,-136 0,-95.34 8.83,-77.3 43,-55.25 98.41,-19.49 567.12,-12.24 698.75,-10.91"/>
<polygon fill="#63b8ff" stroke="#63b8ff" points="261.11,-606.21 271.53,-604.32 262.2,-599.3 261.11,-606.21"/>
</g>
<!-- Node11 -->
<g id="node11" class="node">
<title>Node11</title>
<g id="a_node11"><a xlink:href="v8-object_8h.html" target="_top" xlink:title=" ">
<polygon fill="white" stroke="#666666" points="958.5,-561.5 861.5,-561.5 861.5,-542.25 958.5,-542.25 958.5,-561.5"/>
<text text-anchor="middle" x="910" y="-548" font-family="Helvetica,sans-Serif" font-size="10.00">include/v8&#45;object.h</text>
</a>
</g>
</g>
<!-- Node2&#45;&gt;Node11 -->
<g id="edge14" class="edge">
<title>Node2&#45;&gt;Node11</title>
<path fill="none" stroke="#63b8ff" d="M390,-605.3C507.64,-593.44 755.81,-568.42 861.1,-557.8"/>
<polygon fill="#63b8ff" stroke="#63b8ff" points="389.97,-601.88 380.37,-606.37 390.67,-608.85 389.97,-601.88"/>
</g>
<!-- Node28 -->
<g id="node28" class="node">
<title>Node28</title>
<g id="a_node28"><a xlink:href="v8-profiler_8h.html" target="_top" xlink:title=" ">
<polygon fill="white" stroke="#666666" points="231.62,-561.5 132.38,-561.5 132.38,-542.25 231.62,-542.25 231.62,-561.5"/>
<text text-anchor="middle" x="182" y="-548" font-family="Helvetica,sans-Serif" font-size="10.00">include/v8&#45;profiler.h</text>
</a>
</g>
</g>
<!-- Node2&#45;&gt;Node28 -->
<g id="edge53" class="edge">
<title>Node2&#45;&gt;Node28</title>
<path fill="none" stroke="#63b8ff" d="M279.87,-592.89C254.5,-582.52 224.18,-570.12 204.08,-561.9"/>
<polygon fill="#63b8ff" stroke="#63b8ff" points="278.45,-596.5 289.03,-597.05 281.1,-590.02 278.45,-596.5"/>
</g>
<!-- Node29 -->
<g id="node29" class="node">
<title>Node29</title>
<g id="a_node29"><a xlink:href="v8-util_8h.html" target="_top" xlink:title=" ">
<polygon fill="white" stroke="#666666" points="332.75,-561.5 249.25,-561.5 249.25,-542.25 332.75,-542.25 332.75,-561.5"/>
<text text-anchor="middle" x="291" y="-548" font-family="Helvetica,sans-Serif" font-size="10.00">include/v8&#45;util.h</text>
</a>
</g>
</g>
<!-- Node2&#45;&gt;Node29 -->
<g id="edge54" class="edge">
<title>Node2&#45;&gt;Node29</title>
<path fill="none" stroke="#63b8ff" d="M311.75,-587.78C306.34,-578.67 300.5,-568.85 296.4,-561.95"/>
<polygon fill="#63b8ff" stroke="#63b8ff" points="309.23,-589.39 317.35,-596.2 315.25,-585.81 309.23,-589.39"/>
</g>
<!-- Node4 -->
<g id="node4" class="node">
<title>Node4</title>
<g id="a_node4"><a xlink:href="v8-initialization_8h.html" target="_top" xlink:title=" ">
<polygon fill="white" stroke="#666666" points="596.5,-213.12 475.5,-213.12 475.5,-193.88 596.5,-193.88 596.5,-213.12"/>
<text text-anchor="middle" x="536" y="-199.62" font-family="Helvetica,sans-Serif" font-size="10.00">include/v8&#45;initialization.h</text>
</a>
</g>
</g>
<!-- Node3&#45;&gt;Node4 -->
<g id="edge3" class="edge">
<title>Node3&#45;&gt;Node4</title>
<path fill="none" stroke="#63b8ff" d="M424.07,-250.26C451.43,-239.08 490.05,-223.29 514.03,-213.48"/>
<polygon fill="#63b8ff" stroke="#63b8ff" points="423.12,-247.28 415.18,-254.3 425.77,-253.76 423.12,-247.28"/>
</g>
<!-- Node3&#45;&gt;Node5 -->
<g id="edge13" class="edge">
<title>Node3&#45;&gt;Node5</title>
<path fill="none" stroke="#63b8ff" d="M406.9,-246.24C413.66,-238.14 421.57,-228.19 428,-218.75 475.07,-149.66 453.48,-104.54 521,-55.25 548.95,-34.85 646.24,-20.72 698.76,-14.39"/>
<polygon fill="#63b8ff" stroke="#63b8ff" points="403.71,-243.59 399.9,-253.48 409.04,-248.13 403.71,-243.59"/>
</g>
<!-- Node6 -->
<g id="node6" class="node">
<title>Node6</title>
<g id="a_node6"><a xlink:href="v8-inspector_8h.html" target="_top" xlink:title=" ">
<polygon fill="white" stroke="#666666" points="419.25,-213.12 308.75,-213.12 308.75,-193.88 419.25,-193.88 419.25,-213.12"/>
<text text-anchor="middle" x="364" y="-199.62" font-family="Helvetica,sans-Serif" font-size="10.00">include/v8&#45;inspector.h</text>
</a>
</g>
</g>
<!-- Node3&#45;&gt;Node6 -->
<g id="edge5" class="edge">
<title>Node3&#45;&gt;Node6</title>
<path fill="none" stroke="#63b8ff" d="M383.07,-244.61C378.13,-234.21 372.21,-221.77 368.29,-213.53"/>
<polygon fill="#63b8ff" stroke="#63b8ff" points="380.29,-245.91 387.75,-253.43 386.61,-242.9 380.29,-245.91"/>
</g>
<!-- Node8 -->
<g id="node8" class="node">
<title>Node8</title>
<g id="a_node8"><a xlink:href="v8-snapshot_8h.html" target="_top" xlink:title=" ">
<polygon fill="white" stroke="#666666" points="290.25,-213.12 179.75,-213.12 179.75,-193.88 290.25,-193.88 290.25,-213.12"/>
<text text-anchor="middle" x="235" y="-199.62" font-family="Helvetica,sans-Serif" font-size="10.00">include/v8&#45;snapshot.h</text>
</a>
</g>
</g>
<!-- Node3&#45;&gt;Node8 -->
<g id="edge7" class="edge">
<title>Node3&#45;&gt;Node8</title>
<path fill="none" stroke="#63b8ff" d="M357.85,-250.57C328.07,-239.4 285.62,-223.48 259.21,-213.58"/>
<polygon fill="#63b8ff" stroke="#63b8ff" points="356.22,-254.07 366.81,-254.3 358.68,-247.52 356.22,-254.07"/>
</g>
<!-- Node4&#45;&gt;Node5 -->
<g id="edge4" class="edge">
<title>Node4&#45;&gt;Node5</title>
<path fill="none" stroke="#63b8ff" d="M530.05,-183.4C521.76,-152.64 510.89,-91.86 541,-55.25 560.73,-31.26 648.99,-18.86 698.69,-13.67"/>
<polygon fill="#63b8ff" stroke="#63b8ff" points="526.86,-183.98 533.01,-192.61 533.59,-182.03 526.86,-183.98"/>
</g>
<!-- Node7 -->
<g id="node7" class="node">
<title>Node7</title>
<g id="a_node7"><a xlink:href="v8-inspector-protocol_8h.html" target="_top" xlink:title=" ">
<polygon fill="white" stroke="#666666" points="441.5,-152.25 338.5,-152.25 338.5,-121.75 441.5,-121.75 441.5,-152.25"/>
<text text-anchor="start" x="346.5" y="-138.75" font-family="Helvetica,sans-Serif" font-size="10.00">include/v8&#45;inspector</text>
<text text-anchor="middle" x="390" y="-127.5" font-family="Helvetica,sans-Serif" font-size="10.00">&#45;protocol.h</text>
</a>
</g>
</g>
<!-- Node6&#45;&gt;Node7 -->
<g id="edge6" class="edge">
<title>Node6&#45;&gt;Node7</title>
<path fill="none" stroke="#63b8ff" d="M371.69,-183.41C375.7,-173.46 380.53,-161.5 384.22,-152.34"/>
<polygon fill="#63b8ff" stroke="#63b8ff" points="368.11,-181.95 367.62,-192.53 374.6,-184.57 368.11,-181.95"/>
</g>
<!-- Node8&#45;&gt;Node5 -->
<g id="edge12" class="edge">
<title>Node8&#45;&gt;Node5</title>
<path fill="none" stroke="#63b8ff" d="M221.29,-185.3C209.34,-168.06 195.81,-141.33 209,-121.75 252.94,-56.52 296.88,-75.04 373,-55.25 490.03,-24.83 634.02,-14.94 698.69,-11.89"/>
<polygon fill="#63b8ff" stroke="#63b8ff" points="218.82,-186.85 227.59,-192.79 224.45,-182.68 218.82,-186.85"/>
</g>
<!-- Node9 -->
<g id="node9" class="node">
<title>Node9</title>
<g id="a_node9"><a xlink:href="v8-context_8h.html" target="_top" xlink:title=" ">
<polygon fill="white" stroke="#666666" points="320.12,-146.62 217.88,-146.62 217.88,-127.38 320.12,-127.38 320.12,-146.62"/>
<text text-anchor="middle" x="269" y="-133.12" font-family="Helvetica,sans-Serif" font-size="10.00">include/v8&#45;context.h</text>
</a>
</g>
</g>
<!-- Node8&#45;&gt;Node9 -->
<g id="edge8" class="edge">
<title>Node8&#45;&gt;Node9</title>
<path fill="none" stroke="#63b8ff" d="M244.81,-183.89C251.22,-171.73 259.3,-156.39 264.31,-146.89"/>
<polygon fill="#63b8ff" stroke="#63b8ff" points="241.29,-182.05 239.73,-192.53 247.49,-185.32 241.29,-182.05"/>
</g>
<!-- Node9&#45;&gt;Node5 -->
<g id="edge11" class="edge">
<title>Node9&#45;&gt;Node5</title>
<path fill="none" stroke="#63b8ff" d="M295.63,-121.99C331.21,-103.86 396.67,-72.55 456,-55.25 541.34,-30.37 645.78,-18.28 698.72,-13.4"/>
<polygon fill="#63b8ff" stroke="#63b8ff" points="294.29,-119.26 287,-126.95 297.49,-125.48 294.29,-119.26"/>
</g>
<!-- Node10 -->
<g id="node10" class="node">
<title>Node10</title>
<g id="a_node10"><a xlink:href="v8-proxy_8h.html" target="_top" xlink:title=" ">
<polygon fill="white" stroke="#666666" points="643.62,-80.12 550.38,-80.12 550.38,-60.88 643.62,-60.88 643.62,-80.12"/>
<text text-anchor="middle" x="597" y="-66.62" font-family="Helvetica,sans-Serif" font-size="10.00">include/v8&#45;proxy.h</text>
</a>
</g>
</g>
<!-- Node9&#45;&gt;Node10 -->
<g id="edge9" class="edge">
<title>Node9&#45;&gt;Node10</title>
<path fill="none" stroke="#63b8ff" d="M317.3,-124.51C321.59,-123.56 325.87,-122.62 330,-121.75 406.85,-105.55 496.68,-89.17 550.09,-79.69"/>
<polygon fill="#63b8ff" stroke="#63b8ff" points="316.66,-121.3 307.69,-126.93 318.22,-128.12 316.66,-121.3"/>
</g>
<!-- Node10&#45;&gt;Node5 -->
<g id="edge10" class="edge">
<title>Node10&#45;&gt;Node5</title>
<path fill="none" stroke="#63b8ff" d="M627.97,-56.09C653.77,-44.92 689.8,-29.33 712.25,-19.61"/>
<polygon fill="#63b8ff" stroke="#63b8ff" points="626.74,-53.25 618.95,-60.43 629.52,-59.67 626.74,-53.25"/>
</g>
<!-- Node11&#45;&gt;Node5 -->
<g id="edge52" class="edge">
<title>Node11&#45;&gt;Node5</title>
<path fill="none" stroke="#63b8ff" d="M904.54,-531.6C898.93,-510.04 891,-474 891,-442.38 891,-442.38 891,-442.38 891,-263.38 891,-161.51 859.97,-133.71 795,-55.25 782.48,-40.13 763.72,-27.58 750.11,-19.68"/>
<polygon fill="#63b8ff" stroke="#63b8ff" points="901.36,-532.23 907.36,-540.97 908.11,-530.4 901.36,-532.23"/>
</g>
<!-- Node11&#45;&gt;Node10 -->
<g id="edge44" class="edge">
<title>Node11&#45;&gt;Node10</title>
<path fill="none" stroke="#63b8ff" d="M850.29,-549.7C777.19,-544.72 663,-523.9 663,-442.38 663,-442.38 663,-442.38 663,-202.5 663,-151.82 623.12,-100.77 605.36,-80.55"/>
<polygon fill="#63b8ff" stroke="#63b8ff" points="850.01,-553.25 860.2,-550.35 850.43,-546.26 850.01,-553.25"/>
</g>
<!-- Node12 -->
<g id="node12" class="node">
<title>Node12</title>
<g id="a_node12"><a xlink:href="v8-array-buffer_8h.html" target="_top" xlink:title=" ">
<polygon fill="white" stroke="#666666" points="844.38,-329.25 725.62,-329.25 725.62,-310 844.38,-310 844.38,-329.25"/>
<text text-anchor="middle" x="785" y="-315.75" font-family="Helvetica,sans-Serif" font-size="10.00">include/v8&#45;array&#45;buffer.h</text>
</a>
</g>
</g>
<!-- Node11&#45;&gt;Node12 -->
<g id="edge15" class="edge">
<title>Node11&#45;&gt;Node12</title>
<path fill="none" stroke="#63b8ff" d="M896.02,-533.48C889.84,-525.42 882.7,-515.59 877,-506.25 837.25,-441.18 800.24,-356.58 788.7,-329.42"/>
<polygon fill="#63b8ff" stroke="#63b8ff" points="893.76,-535.27 902.68,-540.97 899.27,-530.95 893.76,-535.27"/>
</g>
<!-- Node15 -->
<g id="node15" class="node">
<title>Node15</title>
<g id="a_node15"><a xlink:href="v8-container_8h.html" target="_top" xlink:title=" ">
<polygon fill="white" stroke="#666666" points="1009.25,-146.62 898.75,-146.62 898.75,-127.38 1009.25,-127.38 1009.25,-146.62"/>
<text text-anchor="middle" x="954" y="-133.12" font-family="Helvetica,sans-Serif" font-size="10.00">include/v8&#45;container.h</text>
</a>
</g>
</g>
<!-- Node11&#45;&gt;Node15 -->
<g id="edge21" class="edge">
<title>Node11&#45;&gt;Node15</title>
<path fill="none" stroke="#63b8ff" d="M915.46,-531.6C921.07,-510.04 929,-474 929,-442.38 929,-442.38 929,-442.38 929,-263.38 929,-218.98 944.26,-167.43 950.93,-147"/>
<polygon fill="#63b8ff" stroke="#63b8ff" points="911.89,-530.4 912.64,-540.97 918.64,-532.23 911.89,-530.4"/>
</g>
<!-- Node16 -->
<g id="node16" class="node">
<title>Node16</title>
<g id="a_node16"><a xlink:href="v8-date_8h.html" target="_top" xlink:title=" ">
<polygon fill="white" stroke="#666666" points="1046.75,-390.12 957.25,-390.12 957.25,-370.88 1046.75,-370.88 1046.75,-390.12"/>
<text text-anchor="middle" x="1002" y="-376.62" font-family="Helvetica,sans-Serif" font-size="10.00">include/v8&#45;date.h</text>
</a>
</g>
</g>
<!-- Node11&#45;&gt;Node16 -->
<g id="edge23" class="edge">
<title>Node11&#45;&gt;Node16</title>
<path fill="none" stroke="#63b8ff" d="M924.06,-533.52C930.25,-525.48 937.38,-515.64 943,-506.25 967.73,-464.93 990,-411.59 998.42,-390.58"/>
<polygon fill="#63b8ff" stroke="#63b8ff" points="920.82,-530.99 917.37,-541.01 926.31,-535.32 920.82,-530.99"/>
</g>
<!-- Node17 -->
<g id="node17" class="node">
<title>Node17</title>
<g id="a_node17"><a xlink:href="v8-exception_8h.html" target="_top" xlink:title=" ">
<polygon fill="white" stroke="#666666" points="1097,-80.12 985,-80.12 985,-60.88 1097,-60.88 1097,-80.12"/>
<text text-anchor="middle" x="1041" y="-66.62" font-family="Helvetica,sans-Serif" font-size="10.00">include/v8&#45;exception.h</text>
</a>
</g>
</g>
<!-- Node11&#45;&gt;Node17 -->
<g id="edge25" class="edge">
<title>Node11&#45;&gt;Node17</title>
<path fill="none" stroke="#63b8ff" d="M930.09,-534.97C940.04,-526.76 952.03,-516.37 962,-506.25 992.23,-475.56 995.91,-464.41 1024,-431.75 1037.96,-415.52 1045.98,-414.67 1056,-395.75 1072.12,-365.32 1075,-355.07 1075,-320.62 1075,-320.62 1075,-320.62 1075,-202.5 1075,-155.27 1054.04,-101.45 1045.03,-80.5"/>
<polygon fill="#63b8ff" stroke="#63b8ff" points="928.21,-532.8 922.64,-541.82 932.62,-538.24 928.21,-532.8"/>
</g>
<!-- Node18 -->
<g id="node18" class="node">
<title>Node18</title>
<g id="a_node18"><a xlink:href="v8-function_8h.html" target="_top" xlink:title=" ">
<polygon fill="white" stroke="#666666" points="1138.62,-451 1033.38,-451 1033.38,-431.75 1138.62,-431.75 1138.62,-451"/>
<text text-anchor="middle" x="1086" y="-437.5" font-family="Helvetica,sans-Serif" font-size="10.00">include/v8&#45;function.h</text>
</a>
</g>
</g>
<!-- Node11&#45;&gt;Node18 -->
<g id="edge27" class="edge">
<title>Node11&#45;&gt;Node18</title>
<path fill="none" stroke="#63b8ff" d="M950.95,-538.21C972.19,-530.65 998.01,-519.85 1019,-506.25 1043.54,-490.34 1067.05,-464.77 1078.59,-451.31"/>
<polygon fill="#63b8ff" stroke="#63b8ff" points="949.94,-535.2 941.62,-541.76 952.22,-541.82 949.94,-535.2"/>
</g>
<!-- Node19 -->
<g id="node19" class="node">
<title>Node19</title>
<g id="a_node19"><a xlink:href="v8-primitive-object_8h.html" target="_top" xlink:title=" ">
<polygon fill="white" stroke="#666666" points="1291,-85.75 1191,-85.75 1191,-55.25 1291,-55.25 1291,-85.75"/>
<text text-anchor="start" x="1199" y="-72.25" font-family="Helvetica,sans-Serif" font-size="10.00">include/v8&#45;primitive</text>
<text text-anchor="middle" x="1241" y="-61" font-family="Helvetica,sans-Serif" font-size="10.00">&#45;object.h</text>
</a>
</g>
</g>
<!-- Node11&#45;&gt;Node19 -->
<g id="edge29" class="edge">
<title>Node11&#45;&gt;Node19</title>
<path fill="none" stroke="#63b8ff" d="M969.49,-541.72C1050.54,-529.2 1185.94,-508.06 1188,-506.25 1210.26,-486.71 1207,-471.99 1207,-442.38 1207,-442.38 1207,-442.38 1207,-202.5 1207,-159.03 1224.76,-109.98 1234.6,-86.11"/>
<polygon fill="#63b8ff" stroke="#63b8ff" points="969.26,-538.37 959.92,-543.36 970.33,-545.29 969.26,-538.37"/>
</g>
<!-- Node20 -->
<g id="node20" class="node">
<title>Node20</title>
<g id="a_node20"><a xlink:href="v8-promise_8h.html" target="_top" xlink:title=" ">
<polygon fill="white" stroke="#666666" points="611.62,-506.25 506.38,-506.25 506.38,-487 611.62,-487 611.62,-506.25"/>
<text text-anchor="middle" x="559" y="-492.75" font-family="Helvetica,sans-Serif" font-size="10.00">include/v8&#45;promise.h</text>
</a>
</g>
</g>
<!-- Node11&#45;&gt;Node20 -->
<g id="edge31" class="edge">
<title>Node11&#45;&gt;Node20</title>
<path fill="none" stroke="#63b8ff" d="M850.42,-541.84C783.54,-531.69 676.03,-515.38 611.98,-505.66"/>
<polygon fill="#63b8ff" stroke="#63b8ff" points="849.78,-545.43 860.19,-543.47 850.83,-538.51 849.78,-545.43"/>
</g>
<!-- Node25 -->
<g id="node25" class="node">
<title>Node25</title>
<g id="a_node25"><a xlink:href="v8-regexp_8h.html" target="_top" xlink:title=" ">
<polygon fill="white" stroke="#666666" points="1334.62,-274 1235.38,-274 1235.38,-254.75 1334.62,-254.75 1334.62,-274"/>
<text text-anchor="middle" x="1285" y="-260.5" font-family="Helvetica,sans-Serif" font-size="10.00">include/v8&#45;regexp.h</text>
</a>
</g>
</g>
<!-- Node11&#45;&gt;Node25 -->
<g id="edge45" class="edge">
<title>Node11&#45;&gt;Node25</title>
<path fill="none" stroke="#63b8ff" d="M969.57,-542.15C1083.11,-528.24 1127.36,-564.24 1221,-506.25 1250.31,-488.1 1265,-476.85 1265,-442.38 1265,-442.38 1265,-442.38 1265,-379.5 1265,-339.87 1276.84,-293.65 1282.3,-274.45"/>
<polygon fill="#63b8ff" stroke="#63b8ff" points="969.18,-538.81 959.73,-543.61 970.11,-545.75 969.18,-538.81"/>
</g>
<!-- Node26 -->
<g id="node26" class="node">
<title>Node26</title>
<g id="a_node26"><a xlink:href="v8-template_8h.html" target="_top" xlink:title=" ">
<polygon fill="white" stroke="#666666" points="1179.12,-506.25 1070.88,-506.25 1070.88,-487 1179.12,-487 1179.12,-506.25"/>
<text text-anchor="middle" x="1125" y="-492.75" font-family="Helvetica,sans-Serif" font-size="10.00">include/v8&#45;template.h</text>
</a>
</g>
</g>
<!-- Node11&#45;&gt;Node26 -->
<g id="edge47" class="edge">
<title>Node11&#45;&gt;Node26</title>
<path fill="none" stroke="#63b8ff" d="M956.9,-539.26C996.38,-529.48 1052.07,-515.69 1088.35,-506.7"/>
<polygon fill="#63b8ff" stroke="#63b8ff" points="956.34,-536.04 947.47,-541.84 958.02,-542.84 956.34,-536.04"/>
</g>
<!-- Node27 -->
<g id="node27" class="node">
<title>Node27</title>
<g id="a_node27"><a xlink:href="v8-wasm_8h.html" target="_top" xlink:title=" ">
<polygon fill="white" stroke="#666666" points="139.5,-451 42.5,-451 42.5,-431.75 139.5,-431.75 139.5,-451"/>
<text text-anchor="middle" x="91" y="-437.5" font-family="Helvetica,sans-Serif" font-size="10.00">include/v8&#45;wasm.h</text>
</a>
</g>
</g>
<!-- Node11&#45;&gt;Node27 -->
<g id="edge50" class="edge">
<title>Node11&#45;&gt;Node27</title>
<path fill="none" stroke="#63b8ff" d="M850.38,-545.35C770,-537.69 622.47,-522.89 497,-506.25 367.73,-489.11 216.13,-463.89 139.95,-450.86"/>
<polygon fill="#63b8ff" stroke="#63b8ff" points="849.98,-548.92 860.27,-546.38 850.65,-541.95 849.98,-548.92"/>
</g>
<!-- Node12&#45;&gt;Node3 -->
<g id="edge16" class="edge">
<title>Node12&#45;&gt;Node3</title>
<path fill="none" stroke="#63b8ff" d="M714.55,-309.08C636.02,-298.44 511.01,-281.5 441.95,-272.14"/>
<polygon fill="#63b8ff" stroke="#63b8ff" points="713.93,-312.66 724.31,-310.54 714.87,-305.73 713.93,-312.66"/>
</g>
<!-- Node12&#45;&gt;Node5 -->
<g id="edge20" class="edge">
<title>Node12&#45;&gt;Node5</title>
<path fill="none" stroke="#63b8ff" d="M808.79,-303.6C818.53,-296.04 828.73,-285.93 834,-274 837.46,-266.17 835.16,-263.23 834,-254.75 821.46,-162.88 820.56,-134.84 773,-55.25 764.78,-41.5 751.98,-28.14 743.08,-19.68"/>
<polygon fill="#63b8ff" stroke="#63b8ff" points="807.21,-301.14 801.13,-309.82 811.3,-306.83 807.21,-301.14"/>
</g>
<!-- Node13 -->
<g id="node13" class="node">
<title>Node13</title>
<g id="a_node13"><a xlink:href="v8-typed-array_8h.html" target="_top" xlink:title=" ">
<polygon fill="white" stroke="#666666" points="825,-274 707,-274 707,-254.75 825,-254.75 825,-274"/>
<text text-anchor="middle" x="766" y="-260.5" font-family="Helvetica,sans-Serif" font-size="10.00">include/v8&#45;typed&#45;array.h</text>
</a>
</g>
</g>
<!-- Node12&#45;&gt;Node13 -->
<g id="edge17" class="edge">
<title>Node12&#45;&gt;Node13</title>
<path fill="none" stroke="#63b8ff" d="M778.19,-299.54C775.13,-290.96 771.66,-281.23 769.21,-274.36"/>
<polygon fill="#63b8ff" stroke="#63b8ff" points="775.21,-300.59 781.86,-308.83 781.8,-298.24 775.21,-300.59"/>
</g>
<!-- Node13&#45;&gt;Node5 -->
<g id="edge19" class="edge">
<title>Node13&#45;&gt;Node5</title>
<path fill="none" stroke="#63b8ff" d="M781.3,-245.86C787.1,-238.1 793.02,-228.53 796,-218.75 799.95,-205.78 798.3,-201.61 796,-188.25 784.4,-120.86 749.75,-45.11 737.42,-19.57"/>
<polygon fill="#63b8ff" stroke="#63b8ff" points="778.04,-243.33 774.5,-253.32 783.49,-247.72 778.04,-243.33"/>
</g>
<!-- Node14 -->
<g id="node14" class="node">
<title>Node14</title>
<g id="a_node14"><a xlink:href="v8-fast-api-calls_8h.html" target="_top" xlink:title=" ">
<polygon fill="white" stroke="#666666" points="786.75,-218.75 691.25,-218.75 691.25,-188.25 786.75,-188.25 786.75,-218.75"/>
<text text-anchor="start" x="699.25" y="-205.25" font-family="Helvetica,sans-Serif" font-size="10.00">include/v8&#45;fast&#45;api</text>
<text text-anchor="middle" x="739" y="-194" font-family="Helvetica,sans-Serif" font-size="10.00">&#45;calls.h</text>
</a>
</g>
</g>
<!-- Node13&#45;&gt;Node14 -->
<g id="edge18" class="edge">
<title>Node13&#45;&gt;Node14</title>
<path fill="none" stroke="#63b8ff" d="M757.38,-244.57C753.59,-236.3 749.2,-226.74 745.66,-219.03"/>
<polygon fill="#63b8ff" stroke="#63b8ff" points="754.55,-245.8 761.9,-253.43 760.91,-242.88 754.55,-245.8"/>
</g>
<!-- Node15&#45;&gt;Node5 -->
<g id="edge22" class="edge">
<title>Node15&#45;&gt;Node5</title>
<path fill="none" stroke="#63b8ff" d="M943.07,-117.9C931.05,-99.51 910.08,-71.49 885,-55.25 848.76,-31.78 799.8,-20.31 767.35,-14.96"/>
<polygon fill="#63b8ff" stroke="#63b8ff" points="940.5,-119.4 948.79,-125.99 946.42,-115.66 940.5,-119.4"/>
</g>
<!-- Node16&#45;&gt;Node5 -->
<g id="edge24" class="edge">
<title>Node16&#45;&gt;Node5</title>
<path fill="none" stroke="#63b8ff" d="M1011.47,-360.87C1021.83,-338.7 1037,-300.3 1037,-265.38 1037,-265.38 1037,-265.38 1037,-202.5 1037,-165.63 1039.25,-151.88 1018,-121.75 1002.3,-99.49 940.02,-66.03 915,-55.25 865.85,-34.07 804.72,-21.68 767.3,-15.54"/>
<polygon fill="#63b8ff" stroke="#63b8ff" points="1007.95,-359.09 1006.72,-369.61 1014.24,-362.16 1007.95,-359.09"/>
</g>
<!-- Node17&#45;&gt;Node5 -->
<g id="edge26" class="edge">
<title>Node17&#45;&gt;Node5</title>
<path fill="none" stroke="#63b8ff" d="M986.36,-58.29C981.17,-57.25 975.99,-56.22 971,-55.25 898.59,-41.09 813.61,-25.37 767.32,-16.89"/>
<polygon fill="#63b8ff" stroke="#63b8ff" points="985.46,-61.88 995.96,-60.43 986.85,-55.02 985.46,-61.88"/>
</g>
<!-- Node18&#45;&gt;Node5 -->
<g id="edge28" class="edge">
<title>Node18&#45;&gt;Node5</title>
<path fill="none" stroke="#63b8ff" d="M1096.06,-421.87C1107.61,-398.85 1125,-358 1125,-320.62 1125,-320.62 1125,-320.62 1125,-136 1125,-99.13 1133.49,-79.82 1106,-55.25 1056.46,-10.97 849.5,-8.91 767.08,-9.91"/>
<polygon fill="#63b8ff" stroke="#63b8ff" points="1092.62,-419.9 1091.1,-430.39 1098.82,-423.14 1092.62,-419.9"/>
</g>
<!-- Node19&#45;&gt;Node5 -->
<g id="edge30" class="edge">
<title>Node19&#45;&gt;Node5</title>
<path fill="none" stroke="#63b8ff" d="M1180.4,-55.81C1179.26,-55.62 1178.12,-55.43 1177,-55.25 1025.17,-30.81 841.85,-17.44 767.16,-12.67"/>
<polygon fill="#63b8ff" stroke="#63b8ff" points="1179.33,-59.36 1189.8,-57.73 1180.6,-52.48 1179.33,-59.36"/>
</g>
<!-- Node20&#45;&gt;Node5 -->
<g id="edge43" class="edge">
<title>Node20&#45;&gt;Node5</title>
<path fill="none" stroke="#63b8ff" d="M578.1,-479.42C586.39,-471.55 595.64,-461.53 602,-451 618.82,-423.15 625,-414.04 625,-381.5 625,-381.5 625,-381.5 625,-202.5 625,-122.61 696.98,-45.28 723.42,-19.57"/>
<polygon fill="#63b8ff" stroke="#63b8ff" points="576.03,-476.47 570.96,-485.77 580.73,-481.66 576.03,-476.47"/>
</g>
<!-- Node21 -->
<g id="node21" class="node">
<title>Node21</title>
<g id="a_node21"><a xlink:href="v8-callbacks_8h.html" target="_top" xlink:title=" ">
<polygon fill="white" stroke="#666666" points="593,-451 481,-451 481,-431.75 593,-431.75 593,-451"/>
<text text-anchor="middle" x="537" y="-437.5" font-family="Helvetica,sans-Serif" font-size="10.00">include/v8&#45;callbacks.h</text>
</a>
</g>
</g>
<!-- Node20&#45;&gt;Node21 -->
<g id="edge32" class="edge">
<title>Node20&#45;&gt;Node21</title>
<path fill="none" stroke="#63b8ff" d="M551.23,-476.83C547.66,-468.17 543.58,-458.31 540.71,-451.36"/>
<polygon fill="#63b8ff" stroke="#63b8ff" points="548.31,-477.93 555.37,-485.83 554.78,-475.25 548.31,-477.93"/>
</g>
<!-- Node24 -->
<g id="node24" class="node">
<title>Node24</title>
<g id="a_node24"><a xlink:href="v8-statistics_8h.html" target="_top" xlink:title=" ">
<polygon fill="white" stroke="#666666" points="176.25,-329.25 65.75,-329.25 65.75,-310 176.25,-310 176.25,-329.25"/>
<text text-anchor="middle" x="121" y="-315.75" font-family="Helvetica,sans-Serif" font-size="10.00">include/v8&#45;statistics.h</text>
</a>
</g>
</g>
<!-- Node20&#45;&gt;Node24 -->
<g id="edge40" class="edge">
<title>Node20&#45;&gt;Node24</title>
<path fill="none" stroke="#63b8ff" d="M501.65,-484.32C433.76,-469.61 318.38,-440.39 227,-395.75 188.7,-377.04 149.17,-345.01 131.11,-329.52"/>
<polygon fill="#63b8ff" stroke="#63b8ff" points="500.62,-487.89 511.13,-486.56 502.08,-481.05 500.62,-487.89"/>
</g>
<!-- Node21&#45;&gt;Node3 -->
<g id="edge34" class="edge">
<title>Node21&#45;&gt;Node3</title>
<path fill="none" stroke="#63b8ff" d="M531.14,-421.19C525.69,-405.26 516.53,-382.5 504,-365.25 475.21,-325.62 428.31,-290.33 405.42,-274.38"/>
<polygon fill="#63b8ff" stroke="#63b8ff" points="528.03,-421.97 534.44,-430.4 534.69,-419.81 528.03,-421.97"/>
</g>
<!-- Node21&#45;&gt;Node4 -->
<g id="edge33" class="edge">
<title>Node21&#45;&gt;Node4</title>
<path fill="none" stroke="#63b8ff" d="M536.92,-420.51C536.71,-371.8 536.18,-247.85 536.04,-213.47"/>
<polygon fill="#63b8ff" stroke="#63b8ff" points="533.42,-420.43 536.96,-430.42 540.42,-420.4 533.42,-420.43"/>
</g>
<!-- Node22 -->
<g id="node22" class="node">
<title>Node22</title>
<g id="a_node22"><a xlink:href="v8-script_8h.html" target="_top" xlink:title=" ">
<polygon fill="white" stroke="#666666" points="330.38,-390.12 235.62,-390.12 235.62,-370.88 330.38,-370.88 330.38,-390.12"/>
<text text-anchor="middle" x="283" y="-376.62" font-family="Helvetica,sans-Serif" font-size="10.00">include/v8&#45;script.h</text>
</a>
</g>
</g>
<!-- Node21&#45;&gt;Node22 -->
<g id="edge35" class="edge">
<title>Node21&#45;&gt;Node22</title>
<path fill="none" stroke="#63b8ff" d="M487.34,-428.86C439.02,-417.66 366.57,-400.87 322.18,-390.58"/>
<polygon fill="#63b8ff" stroke="#63b8ff" points="486.34,-432.46 496.87,-431.3 487.92,-425.64 486.34,-432.46"/>
</g>
<!-- Node22&#45;&gt;Node5 -->
<g id="edge39" class="edge">
<title>Node22&#45;&gt;Node5</title>
<path fill="none" stroke="#63b8ff" d="M262.13,-364C216.93,-329.61 114,-246.69 114,-204.5 114,-204.5 114,-204.5 114,-136 114,-91.55 134.2,-76.94 173,-55.25 218.87,-29.61 584.34,-15.52 698.83,-11.7"/>
<polygon fill="#63b8ff" stroke="#63b8ff" points="259.75,-367.34 269.85,-370.56 263.97,-361.75 259.75,-367.34"/>
</g>
<!-- Node23 -->
<g id="node23" class="node">
<title>Node23</title>
<g id="a_node23"><a xlink:href="v8-debug_8h.html" target="_top" xlink:title=" ">
<polygon fill="white" stroke="#666666" points="331.5,-329.25 234.5,-329.25 234.5,-310 331.5,-310 331.5,-329.25"/>
<text text-anchor="middle" x="283" y="-315.75" font-family="Helvetica,sans-Serif" font-size="10.00">include/v8&#45;debug.h</text>
</a>
</g>
</g>
<!-- Node22&#45;&gt;Node23 -->
<g id="edge36" class="edge">
<title>Node22&#45;&gt;Node23</title>
<path fill="none" stroke="#63b8ff" d="M283,-359.74C283,-349.56 283,-337.63 283,-329.65"/>
<polygon fill="#63b8ff" stroke="#63b8ff" points="279.5,-359.56 283,-369.56 286.5,-359.56 279.5,-359.56"/>
</g>
<!-- Node23&#45;&gt;Node3 -->
<g id="edge37" class="edge">
<title>Node23&#45;&gt;Node3</title>
<path fill="none" stroke="#63b8ff" d="M311.12,-304.89C330.72,-295.31 356.32,-282.81 373.42,-274.45"/>
<polygon fill="#63b8ff" stroke="#63b8ff" points="309.94,-302.06 302.49,-309.59 313.01,-308.35 309.94,-302.06"/>
</g>
<!-- Node23&#45;&gt;Node5 -->
<g id="edge38" class="edge">
<title>Node23&#45;&gt;Node5</title>
<path fill="none" stroke="#63b8ff" d="M247.2,-305.4C208.41,-288.48 152,-255.17 152,-204.5 152,-204.5 152,-204.5 152,-136 152,-82.59 192.09,-76.72 241,-55.25 323.36,-19.1 601.05,-12.23 698.69,-10.93"/>
<polygon fill="#63b8ff" stroke="#63b8ff" points="245.54,-308.92 256.12,-309.54 248.24,-302.46 245.54,-308.92"/>
</g>
<!-- Node24&#45;&gt;Node3 -->
<g id="edge41" class="edge">
<title>Node24&#45;&gt;Node3</title>
<path fill="none" stroke="#63b8ff" d="M177.9,-307.44C227.82,-297.64 299.5,-283.55 345.91,-274.43"/>
<polygon fill="#63b8ff" stroke="#63b8ff" points="177.42,-304.17 168.28,-309.53 178.77,-311.04 177.42,-304.17"/>
</g>
<!-- Node24&#45;&gt;Node5 -->
<g id="edge42" class="edge">
<title>Node24&#45;&gt;Node5</title>
<path fill="none" stroke="#63b8ff" d="M108.99,-300.59C95.66,-278.79 76,-240.54 76,-204.5 76,-204.5 76,-204.5 76,-136 76,-98.56 70.8,-78.68 100,-55.25 146.89,-17.63 573.91,-11.72 698.82,-10.8"/>
<polygon fill="#63b8ff" stroke="#63b8ff" points="106.42,-302.08 114.74,-308.64 112.33,-298.32 106.42,-302.08"/>
</g>
<!-- Node25&#45;&gt;Node5 -->
<g id="edge46" class="edge">
<title>Node25&#45;&gt;Node5</title>
<path fill="none" stroke="#63b8ff" d="M1294.36,-244.49C1312.96,-203.96 1348.78,-108.02 1300,-55.25 1263.76,-16.05 884.16,-11.23 767.14,-10.68"/>
<polygon fill="#63b8ff" stroke="#63b8ff" points="1290.79,-242.84 1289.65,-253.38 1297.11,-245.85 1290.79,-242.84"/>
</g>
<!-- Node26&#45;&gt;Node5 -->
<g id="edge49" class="edge">
<title>Node26&#45;&gt;Node5</title>
<path fill="none" stroke="#63b8ff" d="M1136.89,-477.4C1141.3,-469.6 1145.77,-460.19 1148,-451 1150.02,-442.69 1148.12,-440.3 1148,-431.75 1145.57,-264.22 1249.65,-171.51 1129,-55.25 1103.13,-30.32 858.45,-16.46 767.14,-12.13"/>
<polygon fill="#63b8ff" stroke="#63b8ff" points="1133.52,-475.2 1131.32,-485.57 1139.5,-478.84 1133.52,-475.2"/>
</g>
<!-- Node26&#45;&gt;Node18 -->
<g id="edge48" class="edge">
<title>Node26&#45;&gt;Node18</title>
<path fill="none" stroke="#63b8ff" d="M1112.07,-477.97C1105.54,-469.06 1097.9,-458.62 1092.58,-451.36"/>
<polygon fill="#63b8ff" stroke="#63b8ff" points="1109.83,-479.83 1118.56,-485.83 1115.47,-475.7 1109.83,-479.83"/>
</g>
<!-- Node27&#45;&gt;Node5 -->
<g id="edge51" class="edge">
<title>Node27&#45;&gt;Node5</title>
<path fill="none" stroke="#63b8ff" d="M77.52,-422.63C61.82,-400.16 38,-359.64 38,-320.62 38,-320.62 38,-320.62 38,-136 38,-96.52 42.52,-77.68 75,-55.25 126.58,-19.62 571.45,-12.29 698.97,-10.92"/>
<polygon fill="#63b8ff" stroke="#63b8ff" points="75.15,-424.32 83.85,-430.36 80.81,-420.21 75.15,-424.32"/>
</g>
<!-- Node30&#45;&gt;Node5 -->
<g id="edge61" class="edge">
<title>Node30&#45;&gt;Node5</title>
<path fill="none" stroke="#63b8ff" d="M985.87,-608.2C1114.84,-600.08 1363,-574.46 1363,-497.62 1363,-497.62 1363,-497.62 1363,-136 1363,-95.75 1355.48,-77.59 1322,-55.25 1275.77,-24.41 885.59,-13.8 767.03,-11.28"/>
<polygon fill="#63b8ff" stroke="#63b8ff" points="985.67,-604.77 975.9,-608.87 986.1,-611.75 985.67,-604.77"/>
</g>
<!-- Node30&#45;&gt;Node11 -->
<g id="edge60" class="edge">
<title>Node30&#45;&gt;Node11</title>
<path fill="none" stroke="#63b8ff" d="M910,-591.99C910,-581.81 910,-569.88 910,-561.9"/>
<polygon fill="#63b8ff" stroke="#63b8ff" points="906.5,-591.81 910,-601.81 913.5,-591.81 906.5,-591.81"/>
</g>
<!-- Node31 -->
<g id="node31" class="node">
<title>Node31</title>
<g id="a_node31"><a xlink:href="v8-cppgc_8h.html" target="_top" xlink:title=" ">
<polygon fill="white" stroke="#666666" points="1073.5,-561.5 976.5,-561.5 976.5,-542.25 1073.5,-542.25 1073.5,-561.5"/>
<text text-anchor="middle" x="1025" y="-548" font-family="Helvetica,sans-Serif" font-size="10.00">include/v8&#45;cppgc.h</text>
</a>
</g>
</g>
<!-- Node30&#45;&gt;Node31 -->
<g id="edge57" class="edge">
<title>Node30&#45;&gt;Node31</title>
<path fill="none" stroke="#63b8ff" d="M937.1,-597.88C958.81,-586.76 988.64,-571.49 1007.37,-561.9"/>
<polygon fill="#63b8ff" stroke="#63b8ff" points="935.77,-595.14 928.47,-602.81 938.96,-601.37 935.77,-595.14"/>
</g>
<!-- Node32 -->
<g id="node32" class="node">
<title>Node32</title>
<g id="a_node32"><a xlink:href="v8-embedder-heap_8h.html" target="_top" xlink:title=" ">
<polygon fill="white" stroke="#666666" points="495,-395.75 389,-395.75 389,-365.25 495,-365.25 495,-395.75"/>
<text text-anchor="start" x="397" y="-382.25" font-family="Helvetica,sans-Serif" font-size="10.00">include/v8&#45;embedder</text>
<text text-anchor="middle" x="442" y="-371" font-family="Helvetica,sans-Serif" font-size="10.00">&#45;heap.h</text>
</a>
</g>
</g>
<!-- Node30&#45;&gt;Node32 -->
<g id="edge58" class="edge">
<title>Node30&#45;&gt;Node32</title>
<path fill="none" stroke="#63b8ff" d="M833.98,-611.4C743.73,-607.08 593.34,-587.06 497,-506.25 462.36,-477.2 448.8,-422.05 444.14,-395.92"/>
<polygon fill="#63b8ff" stroke="#63b8ff" points="833.82,-614.94 843.95,-611.86 834.11,-607.94 833.82,-614.94"/>
</g>
<!-- Node32&#45;&gt;Node3 -->
<g id="edge59" class="edge">
<title>Node32&#45;&gt;Node3</title>
<path fill="none" stroke="#63b8ff" d="M431.31,-355.11C420.25,-329.85 403.54,-291.72 395.98,-274.45"/>
<polygon fill="#63b8ff" stroke="#63b8ff" points="428.45,-356.29 435.67,-364.05 434.86,-353.48 428.45,-356.29"/>
</g>
</g>
</svg>
