<?xml version="1.0" encoding="UTF-8" standalone="no"?>
<!DOCTYPE svg PUBLIC "-//W3C//DTD SVG 1.1//EN"
 "http://www.w3.org/Graphics/SVG/1.1/DTD/svg11.dtd">
<!-- Generated by graphviz version 8.0.5 (20230430.1635)
 -->
<!-- Title: include/cppgc/common.h Pages: 1 -->
<svg width="931pt" height="393pt"
 viewBox="0.00 0.00 931.38 392.50" xmlns="http://www.w3.org/2000/svg" xmlns:xlink="http://www.w3.org/1999/xlink">
<g id="graph0" class="graph" transform="scale(1 1) rotate(0) translate(4 388.5)">
<title>include/cppgc/common.h</title>
<!-- Node1 -->
<g id="node1" class="node">
<title>Node1</title>
<g id="a_node1"><a xlink:title=" ">
<polygon fill="#999999" stroke="#666666" points="535.12,-384.5 411.12,-384.5 411.12,-365.25 535.12,-365.25 535.12,-384.5"/>
<text text-anchor="middle" x="473.12" y="-371" font-family="Helvetica,sans-Serif" font-size="10.00">include/cppgc/common.h</text>
</a>
</g>
</g>
<!-- Node2 -->
<g id="node2" class="node">
<title>Node2</title>
<g id="a_node2"><a xlink:href="heap_8h.html" target="_top" xlink:title=" ">
<polygon fill="white" stroke="#666666" points="264.88,-329.25 157.38,-329.25 157.38,-310 264.88,-310 264.88,-329.25"/>
<text text-anchor="middle" x="211.12" y="-315.75" font-family="Helvetica,sans-Serif" font-size="10.00">include/cppgc/heap.h</text>
</a>
</g>
</g>
<!-- Node1&#45;&gt;Node2 -->
<g id="edge1" class="edge">
<title>Node1&#45;&gt;Node2</title>
<path fill="none" stroke="#63b8ff" d="M417.81,-362.63C369.56,-352.83 300.45,-338.78 255.68,-329.68"/>
<polygon fill="#63b8ff" stroke="#63b8ff" points="416.89,-366.22 427.38,-364.78 418.28,-359.36 416.89,-366.22"/>
</g>
<!-- Node8 -->
<g id="node8" class="node">
<title>Node8</title>
<g id="a_node8"><a xlink:href="v8-cppgc_8h.html" target="_top" xlink:title=" ">
<polygon fill="white" stroke="#666666" points="392.62,-85.75 295.62,-85.75 295.62,-66.5 392.62,-66.5 392.62,-85.75"/>
<text text-anchor="middle" x="344.12" y="-72.25" font-family="Helvetica,sans-Serif" font-size="10.00">include/v8&#45;cppgc.h</text>
</a>
</g>
</g>
<!-- Node1&#45;&gt;Node8 -->
<g id="edge25" class="edge">
<title>Node1&#45;&gt;Node8</title>
<path fill="none" stroke="#63b8ff" d="M415.36,-361.44C396.41,-354.75 376.75,-344.59 363.12,-329.25 341.86,-305.31 344.12,-291.77 344.12,-259.75 344.12,-259.75 344.12,-259.75 344.12,-191.25 344.12,-152.02 344.12,-105.2 344.12,-86"/>
<polygon fill="#63b8ff" stroke="#63b8ff" points="414.18,-365.06 424.77,-364.81 416.33,-358.4 414.18,-365.06"/>
</g>
<!-- Node10 -->
<g id="node10" class="node">
<title>Node10</title>
<g id="a_node10"><a xlink:href="testing_8h.html" target="_top" xlink:title=" ">
<polygon fill="white" stroke="#666666" points="488,-329.25 372.25,-329.25 372.25,-310 488,-310 488,-329.25"/>
<text text-anchor="middle" x="430.12" y="-315.75" font-family="Helvetica,sans-Serif" font-size="10.00">include/cppgc/testing.h</text>
</a>
</g>
</g>
<!-- Node1&#45;&gt;Node10 -->
<g id="edge11" class="edge">
<title>Node1&#45;&gt;Node10</title>
<path fill="none" stroke="#63b8ff" d="M459.33,-356.79C452.03,-347.75 443.37,-337.02 437.38,-329.61"/>
<polygon fill="#63b8ff" stroke="#63b8ff" points="457.02,-358.5 466.02,-364.08 462.46,-354.1 457.02,-358.5"/>
</g>
<!-- Node11 -->
<g id="node11" class="node">
<title>Node11</title>
<g id="a_node11"><a xlink:href="v8-callbacks_8h.html" target="_top" xlink:title=" ">
<polygon fill="white" stroke="#666666" points="723.12,-329.25 611.12,-329.25 611.12,-310 723.12,-310 723.12,-329.25"/>
<text text-anchor="middle" x="667.12" y="-315.75" font-family="Helvetica,sans-Serif" font-size="10.00">include/v8&#45;callbacks.h</text>
</a>
</g>
</g>
<!-- Node1&#45;&gt;Node11 -->
<g id="edge12" class="edge">
<title>Node1&#45;&gt;Node11</title>
<path fill="none" stroke="#63b8ff" d="M516.59,-361.95C552.14,-352.19 601.67,-338.59 634.05,-329.7"/>
<polygon fill="#63b8ff" stroke="#63b8ff" points="515.75,-358.82 507.03,-364.84 517.6,-365.57 515.75,-358.82"/>
</g>
<!-- Node13 -->
<g id="node13" class="node">
<title>Node13</title>
<g id="a_node13"><a xlink:href="v8_8h.html" target="_top" xlink:title=" ">
<polygon fill="white" stroke="#666666" points="641,-24.88 573.25,-24.88 573.25,-5.63 641,-5.63 641,-24.88"/>
<text text-anchor="middle" x="607.12" y="-11.38" font-family="Helvetica,sans-Serif" font-size="10.00">include/v8.h</text>
</a>
</g>
</g>
<!-- Node1&#45;&gt;Node13 -->
<g id="edge27" class="edge">
<title>Node1&#45;&gt;Node13</title>
<path fill="none" stroke="#63b8ff" d="M484.78,-355.47C497.51,-333.55 516.12,-295.41 516.12,-259.75 516.12,-259.75 516.12,-259.75 516.12,-130.38 516.12,-81.97 566.78,-42.27 592.5,-25.23"/>
<polygon fill="#63b8ff" stroke="#63b8ff" points="481.29,-353.48 479.1,-363.85 487.27,-357.1 481.29,-353.48"/>
</g>
<!-- Node14 -->
<g id="node14" class="node">
<title>Node14</title>
<g id="a_node14"><a xlink:href="v8-isolate_8h.html" target="_top" xlink:title=" ">
<polygon fill="white" stroke="#666666" points="834.75,-141 735.5,-141 735.5,-121.75 834.75,-121.75 834.75,-141"/>
<text text-anchor="middle" x="785.12" y="-127.5" font-family="Helvetica,sans-Serif" font-size="10.00">include/v8&#45;isolate.h</text>
</a>
</g>
</g>
<!-- Node1&#45;&gt;Node14 -->
<g id="edge26" class="edge">
<title>Node1&#45;&gt;Node14</title>
<path fill="none" stroke="#63b8ff" d="M546.33,-369.63C612.97,-364.32 704.97,-352.86 732.12,-329.25 790.09,-278.85 787.87,-172.44 785.85,-141.18"/>
<polygon fill="#63b8ff" stroke="#63b8ff" points="546.15,-366.21 536.45,-370.46 546.69,-373.19 546.15,-366.21"/>
</g>
<!-- Node3 -->
<g id="node3" class="node">
<title>Node3</title>
<g id="a_node3"><a xlink:href="liveness-broker_8h.html" target="_top" xlink:title=" ">
<polygon fill="white" stroke="#666666" points="242.62,-274 127.62,-274 127.62,-243.5 242.62,-243.5 242.62,-274"/>
<text text-anchor="start" x="135.62" y="-260.5" font-family="Helvetica,sans-Serif" font-size="10.00">include/cppgc/liveness</text>
<text text-anchor="middle" x="185.12" y="-249.25" font-family="Helvetica,sans-Serif" font-size="10.00">&#45;broker.h</text>
</a>
</g>
</g>
<!-- Node2&#45;&gt;Node3 -->
<g id="edge2" class="edge">
<title>Node2&#45;&gt;Node3</title>
<path fill="none" stroke="#63b8ff" d="M202.82,-299.82C199.17,-291.55 194.95,-281.99 191.54,-274.28"/>
<polygon fill="#63b8ff" stroke="#63b8ff" points="199.93,-300.95 207.18,-308.68 206.34,-298.12 199.93,-300.95"/>
</g>
<!-- Node4 -->
<g id="node4" class="node">
<title>Node4</title>
<g id="a_node4"><a xlink:href="ephemeron-pair_8h.html" target="_top" xlink:title=" ">
<polygon fill="white" stroke="#666666" points="315.62,-207.5 188.62,-207.5 188.62,-177 315.62,-177 315.62,-207.5"/>
<text text-anchor="start" x="196.62" y="-194" font-family="Helvetica,sans-Serif" font-size="10.00">include/cppgc/ephemeron</text>
<text text-anchor="middle" x="252.12" y="-182.75" font-family="Helvetica,sans-Serif" font-size="10.00">&#45;pair.h</text>
</a>
</g>
</g>
<!-- Node3&#45;&gt;Node4 -->
<g id="edge3" class="edge">
<title>Node3&#45;&gt;Node4</title>
<path fill="none" stroke="#63b8ff" d="M207.99,-235.74C217.56,-226.53 228.43,-216.06 236.98,-207.83"/>
<polygon fill="#63b8ff" stroke="#63b8ff" points="206.11,-232.66 201.33,-242.11 210.96,-237.7 206.11,-232.66"/>
</g>
<!-- Node5 -->
<g id="node5" class="node">
<title>Node5</title>
<g id="a_node5"><a xlink:href="visitor_8h.html" target="_top" xlink:title=" ">
<polygon fill="white" stroke="#666666" points="269.5,-141 156.75,-141 156.75,-121.75 269.5,-121.75 269.5,-141"/>
<text text-anchor="middle" x="213.12" y="-127.5" font-family="Helvetica,sans-Serif" font-size="10.00">include/cppgc/visitor.h</text>
</a>
</g>
</g>
<!-- Node3&#45;&gt;Node5 -->
<g id="edge10" class="edge">
<title>Node3&#45;&gt;Node5</title>
<path fill="none" stroke="#63b8ff" d="M178.29,-232.69C175.05,-216.41 173.06,-194.96 179.12,-177 183.92,-162.79 195.25,-149.53 203.52,-141.21"/>
<polygon fill="#63b8ff" stroke="#63b8ff" points="175.02,-233.05 180.65,-242.02 181.84,-231.5 175.02,-233.05"/>
</g>
<!-- Node9 -->
<g id="node9" class="node">
<title>Node9</title>
<g id="a_node9"><a xlink:href="prefinalizer_8h.html" target="_top" xlink:title=" ">
<polygon fill="white" stroke="#666666" points="132.25,-201.88 0,-201.88 0,-182.62 132.25,-182.62 132.25,-201.88"/>
<text text-anchor="middle" x="66.12" y="-188.38" font-family="Helvetica,sans-Serif" font-size="10.00">include/cppgc/prefinalizer.h</text>
</a>
</g>
</g>
<!-- Node3&#45;&gt;Node9 -->
<g id="edge9" class="edge">
<title>Node3&#45;&gt;Node9</title>
<path fill="none" stroke="#63b8ff" d="M148.73,-238.03C126.74,-226.1 99.76,-211.48 82.75,-202.26"/>
<polygon fill="#63b8ff" stroke="#63b8ff" points="146.66,-241.43 157.12,-243.11 150,-235.27 146.66,-241.43"/>
</g>
<!-- Node4&#45;&gt;Node5 -->
<g id="edge4" class="edge">
<title>Node4&#45;&gt;Node5</title>
<path fill="none" stroke="#63b8ff" d="M236.44,-167.57C230.35,-158.38 223.76,-148.42 219.14,-141.45"/>
<polygon fill="#63b8ff" stroke="#63b8ff" points="234.04,-169.29 242.48,-175.7 239.88,-165.43 234.04,-169.29"/>
</g>
<!-- Node6 -->
<g id="node6" class="node">
<title>Node6</title>
<g id="a_node6"><a xlink:href="cross-thread-persistent_8h.html" target="_top" xlink:title=" ">
<polygon fill="white" stroke="#666666" points="218.62,-30.5 115.62,-30.5 115.62,0 218.62,0 218.62,-30.5"/>
<text text-anchor="start" x="123.62" y="-17" font-family="Helvetica,sans-Serif" font-size="10.00">include/cppgc/cross</text>
<text text-anchor="middle" x="167.12" y="-5.75" font-family="Helvetica,sans-Serif" font-size="10.00">&#45;thread&#45;persistent.h</text>
</a>
</g>
</g>
<!-- Node5&#45;&gt;Node6 -->
<g id="edge5" class="edge">
<title>Node5&#45;&gt;Node6</title>
<path fill="none" stroke="#63b8ff" d="M175.13,-116.83C161.25,-109.82 147.02,-99.73 139.12,-85.75 128.95,-67.74 142.22,-45.29 153.73,-30.87"/>
<polygon fill="#63b8ff" stroke="#63b8ff" points="173.54,-120.41 184.09,-121.4 176.46,-114.05 173.54,-120.41"/>
</g>
<!-- Node7 -->
<g id="node7" class="node">
<title>Node7</title>
<g id="a_node7"><a xlink:href="persistent_8h.html" target="_top" xlink:title=" ">
<polygon fill="white" stroke="#666666" points="277.75,-85.75 148.5,-85.75 148.5,-66.5 277.75,-66.5 277.75,-85.75"/>
<text text-anchor="middle" x="213.12" y="-72.25" font-family="Helvetica,sans-Serif" font-size="10.00">include/cppgc/persistent.h</text>
</a>
</g>
</g>
<!-- Node5&#45;&gt;Node7 -->
<g id="edge6" class="edge">
<title>Node5&#45;&gt;Node7</title>
<path fill="none" stroke="#63b8ff" d="M213.12,-110.71C213.12,-102.27 213.12,-92.83 213.12,-86.11"/>
<polygon fill="#63b8ff" stroke="#63b8ff" points="209.63,-110.58 213.12,-120.58 216.63,-110.58 209.63,-110.58"/>
</g>
<!-- Node5&#45;&gt;Node8 -->
<g id="edge8" class="edge">
<title>Node5&#45;&gt;Node8</title>
<path fill="none" stroke="#63b8ff" d="M245.31,-117.29C269.06,-107.64 300.77,-94.75 321.79,-86.2"/>
<polygon fill="#63b8ff" stroke="#63b8ff" points="244.29,-114.33 236.35,-121.34 246.93,-120.82 244.29,-114.33"/>
</g>
<!-- Node7&#45;&gt;Node6 -->
<g id="edge7" class="edge">
<title>Node7&#45;&gt;Node6</title>
<path fill="none" stroke="#63b8ff" d="M199.51,-57.7C192.82,-49.13 184.84,-38.92 178.48,-30.78"/>
<polygon fill="#63b8ff" stroke="#63b8ff" points="197.22,-59.46 206.14,-65.18 202.74,-55.15 197.22,-59.46"/>
</g>
<!-- Node12 -->
<g id="node12" class="node">
<title>Node12</title>
<g id="a_node12"><a xlink:href="v8-initialization_8h.html" target="_top" xlink:title=" ">
<polygon fill="white" stroke="#666666" points="756.62,-85.75 635.62,-85.75 635.62,-66.5 756.62,-66.5 756.62,-85.75"/>
<text text-anchor="middle" x="696.12" y="-72.25" font-family="Helvetica,sans-Serif" font-size="10.00">include/v8&#45;initialization.h</text>
</a>
</g>
</g>
<!-- Node11&#45;&gt;Node12 -->
<g id="edge13" class="edge">
<title>Node11&#45;&gt;Node12</title>
<path fill="none" stroke="#63b8ff" d="M677.26,-300.21C681.07,-292.36 684.99,-282.97 687.12,-274 703.99,-203.1 699.02,-113.89 696.88,-85.92"/>
<polygon fill="#63b8ff" stroke="#63b8ff" points="673.8,-298.26 672.31,-308.75 680.02,-301.48 673.8,-298.26"/>
</g>
<!-- Node11&#45;&gt;Node14 -->
<g id="edge15" class="edge">
<title>Node11&#45;&gt;Node14</title>
<path fill="none" stroke="#63b8ff" d="M690.69,-303.35C701.34,-295.55 713.45,-285.32 722.12,-274 739.48,-251.36 771.29,-169.09 781.72,-141.48"/>
<polygon fill="#63b8ff" stroke="#63b8ff" points="689.02,-300.94 682.83,-309.54 693.04,-306.68 689.02,-300.94"/>
</g>
<!-- Node17 -->
<g id="node17" class="node">
<title>Node17</title>
<g id="a_node17"><a xlink:href="v8-script_8h.html" target="_top" xlink:title=" ">
<polygon fill="white" stroke="#666666" points="678.5,-268.38 583.75,-268.38 583.75,-249.12 678.5,-249.12 678.5,-268.38"/>
<text text-anchor="middle" x="631.12" y="-254.88" font-family="Helvetica,sans-Serif" font-size="10.00">include/v8&#45;script.h</text>
</a>
</g>
</g>
<!-- Node11&#45;&gt;Node17 -->
<g id="edge20" class="edge">
<title>Node11&#45;&gt;Node17</title>
<path fill="none" stroke="#63b8ff" d="M656.05,-300.51C649.62,-289.99 641.79,-277.19 636.64,-268.78"/>
<polygon fill="#63b8ff" stroke="#63b8ff" points="653.45,-301.98 661.66,-308.68 659.43,-298.33 653.45,-301.98"/>
</g>
<!-- Node12&#45;&gt;Node13 -->
<g id="edge14" class="edge">
<title>Node12&#45;&gt;Node13</title>
<path fill="none" stroke="#63b8ff" d="M673.54,-60.18C656.9,-49.17 634.8,-34.56 620.77,-25.28"/>
<polygon fill="#63b8ff" stroke="#63b8ff" points="671.34,-63.58 681.61,-66.18 675.2,-57.75 671.34,-63.58"/>
</g>
<!-- Node14&#45;&gt;Node12 -->
<g id="edge16" class="edge">
<title>Node14&#45;&gt;Node12</title>
<path fill="none" stroke="#63b8ff" d="M760.83,-115.84C745.02,-106.38 724.87,-94.33 711.3,-86.2"/>
<polygon fill="#63b8ff" stroke="#63b8ff" points="758.65,-119.21 769.03,-121.34 762.24,-113.2 758.65,-119.21"/>
</g>
<!-- Node14&#45;&gt;Node13 -->
<g id="edge19" class="edge">
<title>Node14&#45;&gt;Node13</title>
<path fill="none" stroke="#63b8ff" d="M784.04,-110.72C782.25,-96.67 777.67,-78.24 766.12,-66.5 732.94,-32.75 677.29,-21.61 641.4,-17.97"/>
<polygon fill="#63b8ff" stroke="#63b8ff" points="780.64,-111.01 785,-120.66 787.61,-110.39 780.64,-111.01"/>
</g>
<!-- Node15 -->
<g id="node15" class="node">
<title>Node15</title>
<g id="a_node15"><a xlink:href="v8-inspector_8h.html" target="_top" xlink:title=" ">
<polygon fill="white" stroke="#666666" points="923.38,-85.75 812.88,-85.75 812.88,-66.5 923.38,-66.5 923.38,-85.75"/>
<text text-anchor="middle" x="868.12" y="-72.25" font-family="Helvetica,sans-Serif" font-size="10.00">include/v8&#45;inspector.h</text>
</a>
</g>
</g>
<!-- Node14&#45;&gt;Node15 -->
<g id="edge17" class="edge">
<title>Node14&#45;&gt;Node15</title>
<path fill="none" stroke="#63b8ff" d="M808.2,-115.57C822.88,-106.15 841.43,-94.25 853.98,-86.2"/>
<polygon fill="#63b8ff" stroke="#63b8ff" points="806.73,-113 800.2,-121.34 810.51,-118.89 806.73,-113"/>
</g>
<!-- Node16 -->
<g id="node16" class="node">
<title>Node16</title>
<g id="a_node16"><a xlink:href="v8-inspector-protocol_8h.html" target="_top" xlink:title=" ">
<polygon fill="white" stroke="#666666" points="919.62,-30.5 816.62,-30.5 816.62,0 919.62,0 919.62,-30.5"/>
<text text-anchor="start" x="824.62" y="-17" font-family="Helvetica,sans-Serif" font-size="10.00">include/v8&#45;inspector</text>
<text text-anchor="middle" x="868.12" y="-5.75" font-family="Helvetica,sans-Serif" font-size="10.00">&#45;protocol.h</text>
</a>
</g>
</g>
<!-- Node15&#45;&gt;Node16 -->
<g id="edge18" class="edge">
<title>Node15&#45;&gt;Node16</title>
<path fill="none" stroke="#63b8ff" d="M868.12,-55.2C868.12,-47.2 868.12,-38.15 868.12,-30.78"/>
<polygon fill="#63b8ff" stroke="#63b8ff" points="864.63,-55.18 868.12,-65.18 871.63,-55.18 864.63,-55.18"/>
</g>
<!-- Node17&#45;&gt;Node13 -->
<g id="edge24" class="edge">
<title>Node17&#45;&gt;Node13</title>
<path fill="none" stroke="#63b8ff" d="M605.37,-242.83C593.17,-234.22 579.83,-222.18 573.12,-207.5 543.28,-142.16 586.64,-53.15 602.04,-25.09"/>
<polygon fill="#63b8ff" stroke="#63b8ff" points="603.07,-246.16 613.35,-248.73 606.92,-240.31 603.07,-246.16"/>
</g>
<!-- Node18 -->
<g id="node18" class="node">
<title>Node18</title>
<g id="a_node18"><a xlink:href="v8-debug_8h.html" target="_top" xlink:title=" ">
<polygon fill="white" stroke="#666666" points="679.62,-201.88 582.62,-201.88 582.62,-182.62 679.62,-182.62 679.62,-201.88"/>
<text text-anchor="middle" x="631.12" y="-188.38" font-family="Helvetica,sans-Serif" font-size="10.00">include/v8&#45;debug.h</text>
</a>
</g>
</g>
<!-- Node17&#45;&gt;Node18 -->
<g id="edge21" class="edge">
<title>Node17&#45;&gt;Node18</title>
<path fill="none" stroke="#63b8ff" d="M631.12,-238.02C631.12,-226.05 631.12,-211.35 631.12,-202.14"/>
<polygon fill="#63b8ff" stroke="#63b8ff" points="627.63,-237.78 631.12,-247.78 634.63,-237.78 627.63,-237.78"/>
</g>
<!-- Node18&#45;&gt;Node13 -->
<g id="edge23" class="edge">
<title>Node18&#45;&gt;Node13</title>
<path fill="none" stroke="#63b8ff" d="M628.45,-171.77C623.29,-134.11 612.12,-52.64 608.37,-25.36"/>
<polygon fill="#63b8ff" stroke="#63b8ff" points="625.08,-171.9 629.9,-181.33 632.01,-170.95 625.08,-171.9"/>
</g>
<!-- Node18&#45;&gt;Node14 -->
<g id="edge22" class="edge">
<title>Node18&#45;&gt;Node14</title>
<path fill="none" stroke="#63b8ff" d="M665,-178.3C694.19,-167.14 735.59,-151.31 761.37,-141.46"/>
<polygon fill="#63b8ff" stroke="#63b8ff" points="663.94,-175.34 655.85,-182.18 666.44,-181.88 663.94,-175.34"/>
</g>
</g>
</svg>
