<?xml version="1.0" encoding="UTF-8" standalone="no"?>
<!DOCTYPE svg PUBLIC "-//W3C//DTD SVG 1.1//EN"
 "http://www.w3.org/Graphics/SVG/1.1/DTD/svg11.dtd">
<!-- Generated by graphviz version 8.0.5 (20230430.1635)
 -->
<!-- Title: cppgc::internal::BasicMember::GetRawStorage Pages: 1 -->
<svg width="330pt" height="224pt"
 viewBox="0.00 0.00 329.50 224.25" xmlns="http://www.w3.org/2000/svg" xmlns:xlink="http://www.w3.org/1999/xlink">
<g id="graph0" class="graph" transform="scale(1 1) rotate(0) translate(4 220.25)">
<title>cppgc::internal::BasicMember::GetRawStorage</title>
<!-- Node1 -->
<g id="node1" class="node">
<title>Node1</title>
<g id="a_node1"><a xlink:title=" ">
<polygon fill="#999999" stroke="#666666" points="321.5,-119.88 178.75,-119.88 178.75,-89.38 321.5,-89.38 321.5,-119.88"/>
<text text-anchor="start" x="186.75" y="-106.38" font-family="Helvetica,sans-Serif" font-size="10.00">cppgc::internal::BasicMember</text>
<text text-anchor="middle" x="250.12" y="-95.12" font-family="Helvetica,sans-Serif" font-size="10.00">::GetRawStorage</text>
</a>
</g>
</g>
<!-- Node2 -->
<g id="node2" class="node">
<title>Node2</title>
<g id="a_node2"><a xlink:href="namespacecppgc_1_1internal.html#a4f9e6af93ec58b281e0c7ff7c40b727e" target="_top" xlink:title=" ">
<polygon fill="white" stroke="#666666" points="133.38,-216.25 9.38,-216.25 9.38,-197 133.38,-197 133.38,-216.25"/>
<text text-anchor="middle" x="71.38" y="-202.75" font-family="Helvetica,sans-Serif" font-size="10.00">cppgc::internal::operator&lt;</text>
</a>
</g>
</g>
<!-- Node1&#45;&gt;Node2 -->
<g id="edge1" class="edge">
<title>Node1&#45;&gt;Node2</title>
<path fill="none" stroke="#63b8ff" d="M225.91,-127.74C205.59,-146.72 174.45,-172.94 142.75,-188.62 136.42,-191.76 129.49,-194.38 122.53,-196.57"/>
<polygon fill="#63b8ff" stroke="#63b8ff" points="227.83,-130.79 232.66,-121.36 223,-125.72 227.83,-130.79"/>
</g>
<!-- Node3 -->
<g id="node3" class="node">
<title>Node3</title>
<g id="a_node3"><a xlink:href="namespacecppgc_1_1internal.html#ae13c83e62011b5332a05fd8cc023887d" target="_top" xlink:title=" ">
<polygon fill="white" stroke="#666666" points="136.38,-179.25 6.38,-179.25 6.38,-160 136.38,-160 136.38,-179.25"/>
<text text-anchor="middle" x="71.38" y="-165.75" font-family="Helvetica,sans-Serif" font-size="10.00">cppgc::internal::operator&lt;=</text>
</a>
</g>
</g>
<!-- Node1&#45;&gt;Node3 -->
<g id="edge2" class="edge">
<title>Node1&#45;&gt;Node3</title>
<path fill="none" stroke="#63b8ff" d="M206.59,-124.69C187.35,-133.33 164.17,-143.15 142.75,-150.62 133.43,-153.88 123.26,-156.91 113.61,-159.56"/>
<polygon fill="#63b8ff" stroke="#63b8ff" points="207.89,-127.49 215.55,-120.17 205,-121.12 207.89,-127.49"/>
</g>
<!-- Node4 -->
<g id="node4" class="node">
<title>Node4</title>
<g id="a_node4"><a xlink:href="classcppgc_1_1internal_1_1BasicMember.html#abe0688e901473e5e94109602a73c79f6" target="_top" xlink:title=" ">
<polygon fill="white" stroke="#666666" points="142.75,-141.88 0,-141.88 0,-111.38 142.75,-111.38 142.75,-141.88"/>
<text text-anchor="start" x="8" y="-128.38" font-family="Helvetica,sans-Serif" font-size="10.00">cppgc::internal::BasicMember</text>
<text text-anchor="middle" x="71.38" y="-117.12" font-family="Helvetica,sans-Serif" font-size="10.00">::operator=</text>
</a>
</g>
</g>
<!-- Node1&#45;&gt;Node4 -->
<g id="edge3" class="edge">
<title>Node1&#45;&gt;Node4</title>
<path fill="none" stroke="#63b8ff" d="M167.54,-114.78C159.33,-115.8 151.05,-116.83 142.98,-117.84"/>
<polygon fill="#63b8ff" stroke="#63b8ff" points="167.76,-118.15 177.25,-113.45 166.9,-111.21 167.76,-118.15"/>
</g>
<!-- Node5 -->
<g id="node5" class="node">
<title>Node5</title>
<g id="a_node5"><a xlink:href="namespacecppgc_1_1internal.html#a8b8dc3640965b230e6bb8bb0ba971a2c" target="_top" xlink:title=" ">
<polygon fill="white" stroke="#666666" points="136.38,-93.25 6.38,-93.25 6.38,-74 136.38,-74 136.38,-93.25"/>
<text text-anchor="middle" x="71.38" y="-79.75" font-family="Helvetica,sans-Serif" font-size="10.00">cppgc::internal::operator==</text>
</a>
</g>
</g>
<!-- Node1&#45;&gt;Node5 -->
<g id="edge4" class="edge">
<title>Node1&#45;&gt;Node5</title>
<path fill="none" stroke="#63b8ff" d="M167.54,-94.93C157.19,-93.7 146.71,-92.46 136.69,-91.27"/>
<polygon fill="#63b8ff" stroke="#63b8ff" points="166.91,-98.5 177.25,-96.2 167.74,-91.55 166.91,-98.5"/>
</g>
<!-- Node6 -->
<g id="node6" class="node">
<title>Node6</title>
<g id="a_node6"><a xlink:href="namespacecppgc_1_1internal.html#a29e0f7f19b1e5d2fce6e8ab069f1a42c" target="_top" xlink:title=" ">
<polygon fill="white" stroke="#666666" points="133.38,-56.25 9.38,-56.25 9.38,-37 133.38,-37 133.38,-56.25"/>
<text text-anchor="middle" x="71.38" y="-42.75" font-family="Helvetica,sans-Serif" font-size="10.00">cppgc::internal::operator&gt;</text>
</a>
</g>
</g>
<!-- Node1&#45;&gt;Node6 -->
<g id="edge5" class="edge">
<title>Node1&#45;&gt;Node6</title>
<path fill="none" stroke="#63b8ff" d="M200.34,-85C182.39,-78.12 161.79,-70.62 142.75,-64.62 133.85,-61.82 124.21,-59.14 115.01,-56.73"/>
<polygon fill="#63b8ff" stroke="#63b8ff" points="198.99,-88.62 209.58,-88.97 201.52,-82.09 198.99,-88.62"/>
</g>
<!-- Node7 -->
<g id="node7" class="node">
<title>Node7</title>
<g id="a_node7"><a xlink:href="namespacecppgc_1_1internal.html#ab196fb360bef4c9e602c2a0ea700aa52" target="_top" xlink:title=" ">
<polygon fill="white" stroke="#666666" points="136.38,-19.25 6.38,-19.25 6.38,0 136.38,0 136.38,-19.25"/>
<text text-anchor="middle" x="71.38" y="-5.75" font-family="Helvetica,sans-Serif" font-size="10.00">cppgc::internal::operator&gt;=</text>
</a>
</g>
</g>
<!-- Node1&#45;&gt;Node7 -->
<g id="edge6" class="edge">
<title>Node1&#45;&gt;Node7</title>
<path fill="none" stroke="#63b8ff" d="M223.83,-82.06C203.3,-64.85 172.91,-41.77 142.75,-27.62 136.13,-24.52 128.89,-21.9 121.66,-19.7"/>
<polygon fill="#63b8ff" stroke="#63b8ff" points="221.12,-85.2 230.99,-89.04 225.66,-79.88 221.12,-85.2"/>
</g>
</g>
</svg>
