<?xml version="1.0" encoding="UTF-8" standalone="no"?>
<!DOCTYPE svg PUBLIC "-//W3C//DTD SVG 1.1//EN"
 "http://www.w3.org/Graphics/SVG/1.1/DTD/svg11.dtd">
<!-- Generated by graphviz version 8.0.5 (20230430.1635)
 -->
<!-- Title: include/v8&#45;embedder&#45;heap.h Pages: 1 -->
<svg width="725pt" height="260pt"
 viewBox="0.00 0.00 725.27 259.50" xmlns="http://www.w3.org/2000/svg" xmlns:xlink="http://www.w3.org/1999/xlink">
<g id="graph0" class="graph" transform="scale(1 1) rotate(0) translate(4 255.5)">
<title>include/v8&#45;embedder&#45;heap.h</title>
<!-- Node1 -->
<g id="node1" class="node">
<title>Node1</title>
<g id="a_node1"><a xlink:title=" ">
<polygon fill="#999999" stroke="#666666" points="482.15,-251.5 376.15,-251.5 376.15,-221 482.15,-221 482.15,-251.5"/>
<text text-anchor="start" x="384.15" y="-238" font-family="Helvetica,sans-Serif" font-size="10.00">include/v8&#45;embedder</text>
<text text-anchor="middle" x="429.15" y="-226.75" font-family="Helvetica,sans-Serif" font-size="10.00">&#45;heap.h</text>
</a>
</g>
</g>
<!-- Node2 -->
<g id="node2" class="node">
<title>Node2</title>
<g id="a_node2"><a xlink:title=" ">
<polygon fill="#e0e0e0" stroke="#999999" points="60.4,-19.25 9.9,-19.25 9.9,0 60.4,0 60.4,-19.25"/>
<text text-anchor="middle" x="35.15" y="-5.75" font-family="Helvetica,sans-Serif" font-size="10.00">stddef.h</text>
</a>
</g>
</g>
<!-- Node1&#45;&gt;Node2 -->
<g id="edge1" class="edge">
<title>Node1&#45;&gt;Node2</title>
<path fill="none" stroke="#63b8ff" d="M375.77,-231.28C290.13,-224.32 126.27,-208.4 73.15,-185 37.83,-169.44 22.61,-164.66 6.15,-129.75 -9.67,-96.21 9.48,-53.15 23.32,-29.06"/>
<polygon fill="#63b8ff" stroke="#63b8ff" points="26.8,-31.07 28.99,-20.7 20.81,-27.44 26.8,-31.07"/>
</g>
<!-- Node3 -->
<g id="node3" class="node">
<title>Node3</title>
<g id="a_node3"><a xlink:title=" ">
<polygon fill="#e0e0e0" stroke="#999999" points="145.9,-19.25 98.4,-19.25 98.4,0 145.9,0 145.9,-19.25"/>
<text text-anchor="middle" x="122.15" y="-5.75" font-family="Helvetica,sans-Serif" font-size="10.00">stdint.h</text>
</a>
</g>
</g>
<!-- Node1&#45;&gt;Node3 -->
<g id="edge2" class="edge">
<title>Node1&#45;&gt;Node3</title>
<path fill="none" stroke="#63b8ff" d="M375.97,-229.73C274.71,-217.98 60.42,-186.82 17.15,-129.75 -13.17,-89.75 52.75,-46.39 93.35,-24.68"/>
<polygon fill="#63b8ff" stroke="#63b8ff" points="94.79,-27.36 102.05,-19.65 91.57,-21.15 94.79,-27.36"/>
</g>
<!-- Node4 -->
<g id="node4" class="node">
<title>Node4</title>
<g id="a_node4"><a xlink:title=" ">
<polygon fill="#e0e0e0" stroke="#999999" points="529.4,-129.75 490.9,-129.75 490.9,-110.5 529.4,-110.5 529.4,-129.75"/>
<text text-anchor="middle" x="510.15" y="-116.25" font-family="Helvetica,sans-Serif" font-size="10.00">utility</text>
</a>
</g>
</g>
<!-- Node1&#45;&gt;Node4 -->
<g id="edge3" class="edge">
<title>Node1&#45;&gt;Node4</title>
<path fill="none" stroke="#63b8ff" d="M439.41,-220.8C454.17,-200 481.37,-161.67 497.4,-139.08"/>
<polygon fill="#63b8ff" stroke="#63b8ff" points="500.78,-141.38 503.71,-131.2 495.07,-137.33 500.78,-141.38"/>
</g>
<!-- Node5 -->
<g id="node5" class="node">
<title>Node5</title>
<g id="a_node5"><a xlink:title=" ">
<polygon fill="#e0e0e0" stroke="#999999" points="708.65,-185 665.65,-185 665.65,-165.75 708.65,-165.75 708.65,-185"/>
<text text-anchor="middle" x="687.15" y="-171.5" font-family="Helvetica,sans-Serif" font-size="10.00">vector</text>
</a>
</g>
</g>
<!-- Node1&#45;&gt;Node5 -->
<g id="edge4" class="edge">
<title>Node1&#45;&gt;Node5</title>
<path fill="none" stroke="#63b8ff" d="M482.57,-223.36C527.57,-213.29 593.61,-198.4 651.15,-185 652.45,-184.7 653.78,-184.39 655.12,-184.07"/>
<polygon fill="#63b8ff" stroke="#63b8ff" points="655.54,-187.33 664.46,-181.62 653.92,-180.52 655.54,-187.33"/>
</g>
<!-- Node6 -->
<g id="node6" class="node">
<title>Node6</title>
<g id="a_node6"><a xlink:href="common_8h.html" target="_top" xlink:title=" ">
<polygon fill="white" stroke="#666666" points="717.27,-74.5 627.02,-74.5 627.02,-55.25 717.27,-55.25 717.27,-74.5"/>
<text text-anchor="middle" x="672.15" y="-61" font-family="Helvetica,sans-Serif" font-size="10.00">cppgc/common.h</text>
</a>
</g>
</g>
<!-- Node1&#45;&gt;Node6 -->
<g id="edge5" class="edge">
<title>Node1&#45;&gt;Node6</title>
<path fill="none" stroke="#63b8ff" d="M482.44,-232.26C522.35,-227.5 576.21,-215.41 613.15,-185 644.67,-159.05 660.8,-112.08 667.76,-85.53"/>
<polygon fill="#63b8ff" stroke="#63b8ff" points="671.38,-86.46 670.33,-75.92 664.58,-84.81 671.38,-86.46"/>
</g>
<!-- Node7 -->
<g id="node7" class="node">
<title>Node7</title>
<g id="a_node7"><a xlink:href="v8config_8h.html" target="_top" xlink:title=" ">
<polygon fill="white" stroke="#666666" points="541.9,-19.25 482.4,-19.25 482.4,0 541.9,0 541.9,-19.25"/>
<text text-anchor="middle" x="512.15" y="-5.75" font-family="Helvetica,sans-Serif" font-size="10.00">v8config.h</text>
</a>
</g>
</g>
<!-- Node1&#45;&gt;Node7 -->
<g id="edge31" class="edge">
<title>Node1&#45;&gt;Node7</title>
<path fill="none" stroke="#63b8ff" d="M452.33,-220.5C488.75,-195.68 557.53,-141.63 580.15,-74.5 582.88,-66.39 584.21,-62.78 580.15,-55.25 572.88,-41.78 559.58,-31.72 546.66,-24.59"/>
<polygon fill="#63b8ff" stroke="#63b8ff" points="548.46,-21.08 537.95,-19.71 545.31,-27.33 548.46,-21.08"/>
</g>
<!-- Node8 -->
<g id="node8" class="node">
<title>Node8</title>
<g id="a_node8"><a xlink:href="v8-local-handle_8h.html" target="_top" xlink:title=" ">
<polygon fill="white" stroke="#666666" points="114.52,-129.75 25.77,-129.75 25.77,-110.5 114.52,-110.5 114.52,-129.75"/>
<text text-anchor="middle" x="70.15" y="-116.25" font-family="Helvetica,sans-Serif" font-size="10.00">v8&#45;local&#45;handle.h</text>
</a>
</g>
</g>
<!-- Node1&#45;&gt;Node8 -->
<g id="edge7" class="edge">
<title>Node1&#45;&gt;Node8</title>
<path fill="none" stroke="#63b8ff" d="M382.95,-220.56C311.55,-197.87 175.7,-154.68 109.03,-133.48"/>
<polygon fill="#63b8ff" stroke="#63b8ff" points="110.15,-129.85 99.56,-130.16 108.03,-136.52 110.15,-129.85"/>
</g>
<!-- Node14 -->
<g id="node14" class="node">
<title>Node14</title>
<g id="a_node14"><a xlink:href="v8-traced-handle_8h.html" target="_top" xlink:title=" ">
<polygon fill="white" stroke="#666666" points="377.9,-185 282.4,-185 282.4,-165.75 377.9,-165.75 377.9,-185"/>
<text text-anchor="middle" x="330.15" y="-171.5" font-family="Helvetica,sans-Serif" font-size="10.00">v8&#45;traced&#45;handle.h</text>
</a>
</g>
</g>
<!-- Node1&#45;&gt;Node14 -->
<g id="edge18" class="edge">
<title>Node1&#45;&gt;Node14</title>
<path fill="none" stroke="#63b8ff" d="M404.42,-220.55C389.2,-211.49 369.77,-199.94 354.6,-190.91"/>
<polygon fill="#63b8ff" stroke="#63b8ff" points="356.72,-187.51 346.33,-185.4 353.14,-193.52 356.72,-187.51"/>
</g>
<!-- Node6&#45;&gt;Node7 -->
<g id="edge6" class="edge">
<title>Node6&#45;&gt;Node7</title>
<path fill="none" stroke="#63b8ff" d="M645.01,-54.84C618.8,-46.12 578.9,-32.84 549.67,-23.11"/>
<polygon fill="#63b8ff" stroke="#63b8ff" points="551.02,-19.54 540.42,-19.7 548.81,-26.18 551.02,-19.54"/>
</g>
<!-- Node8&#45;&gt;Node2 -->
<g id="edge8" class="edge">
<title>Node8&#45;&gt;Node2</title>
<path fill="none" stroke="#63b8ff" d="M67.29,-110.25C61.65,-92.76 48.99,-53.52 41.35,-29.84"/>
<polygon fill="#63b8ff" stroke="#63b8ff" points="44.45,-29.07 38.05,-20.63 37.79,-31.22 44.45,-29.07"/>
</g>
<!-- Node9 -->
<g id="node9" class="node">
<title>Node9</title>
<g id="a_node9"><a xlink:title=" ">
<polygon fill="#e0e0e0" stroke="#999999" points="224.65,-19.25 163.65,-19.25 163.65,0 224.65,0 224.65,-19.25"/>
<text text-anchor="middle" x="194.15" y="-5.75" font-family="Helvetica,sans-Serif" font-size="10.00">type_traits</text>
</a>
</g>
</g>
<!-- Node8&#45;&gt;Node9 -->
<g id="edge9" class="edge">
<title>Node8&#45;&gt;Node9</title>
<path fill="none" stroke="#63b8ff" d="M80.3,-110.25C101.19,-91.97 149.26,-49.9 175.77,-26.71"/>
<polygon fill="#63b8ff" stroke="#63b8ff" points="177.64,-28.85 182.86,-19.63 173.03,-23.58 177.64,-28.85"/>
</g>
<!-- Node10 -->
<g id="node10" class="node">
<title>Node10</title>
<g id="a_node10"><a xlink:href="v8-internal_8h.html" target="_top" xlink:title=" ">
<polygon fill="white" stroke="#666666" points="359.4,-74.5 290.9,-74.5 290.9,-55.25 359.4,-55.25 359.4,-74.5"/>
<text text-anchor="middle" x="325.15" y="-61" font-family="Helvetica,sans-Serif" font-size="10.00">v8&#45;internal.h</text>
</a>
</g>
</g>
<!-- Node8&#45;&gt;Node10 -->
<g id="edge10" class="edge">
<title>Node8&#45;&gt;Node10</title>
<path fill="none" stroke="#63b8ff" d="M113.7,-110.03C160.05,-100.35 233.06,-85.11 280.01,-75.3"/>
<polygon fill="#63b8ff" stroke="#63b8ff" points="280.7,-78.52 289.78,-73.05 279.27,-71.67 280.7,-78.52"/>
</g>
<!-- Node10&#45;&gt;Node2 -->
<g id="edge11" class="edge">
<title>Node10&#45;&gt;Node2</title>
<path fill="none" stroke="#63b8ff" d="M290.46,-57.5C235.06,-47.33 127.19,-27.53 71.05,-17.22"/>
<polygon fill="#63b8ff" stroke="#63b8ff" points="72.01,-13.65 61.54,-15.29 70.74,-20.54 72.01,-13.65"/>
</g>
<!-- Node10&#45;&gt;Node3 -->
<g id="edge12" class="edge">
<title>Node10&#45;&gt;Node3</title>
<path fill="none" stroke="#63b8ff" d="M290.41,-54.9C258.08,-46.52 208.25,-33.56 156.89,-19.96"/>
<polygon fill="#63b8ff" stroke="#63b8ff" points="157.82,-16.32 147.26,-17.14 156.03,-23.09 157.82,-16.32"/>
</g>
<!-- Node10&#45;&gt;Node7 -->
<g id="edge17" class="edge">
<title>Node10&#45;&gt;Node7</title>
<path fill="none" stroke="#63b8ff" d="M356.87,-54.84C388.6,-45.81 437.51,-31.88 471.94,-22.07"/>
<polygon fill="#63b8ff" stroke="#63b8ff" points="472.47,-25.28 481.13,-19.17 470.55,-18.55 472.47,-25.28"/>
</g>
<!-- Node10&#45;&gt;Node9 -->
<g id="edge15" class="edge">
<title>Node10&#45;&gt;Node9</title>
<path fill="none" stroke="#63b8ff" d="M302.93,-54.84C281.94,-46.31 250.23,-33.42 226.46,-23.76"/>
<polygon fill="#63b8ff" stroke="#63b8ff" points="228.06,-20.23 217.48,-19.7 225.43,-26.71 228.06,-20.23"/>
</g>
<!-- Node11 -->
<g id="node11" class="node">
<title>Node11</title>
<g id="a_node11"><a xlink:title=" ">
<polygon fill="#e0e0e0" stroke="#999999" points="289.9,-19.25 242.4,-19.25 242.4,0 289.9,0 289.9,-19.25"/>
<text text-anchor="middle" x="266.15" y="-5.75" font-family="Helvetica,sans-Serif" font-size="10.00">string.h</text>
</a>
</g>
</g>
<!-- Node10&#45;&gt;Node11 -->
<g id="edge13" class="edge">
<title>Node10&#45;&gt;Node11</title>
<path fill="none" stroke="#63b8ff" d="M315.14,-54.84C306.61,-47.15 294.15,-35.9 283.93,-26.68"/>
<polygon fill="#63b8ff" stroke="#63b8ff" points="286.78,-24.63 277.01,-20.52 282.09,-29.82 286.78,-24.63"/>
</g>
<!-- Node12 -->
<g id="node12" class="node">
<title>Node12</title>
<g id="a_node12"><a xlink:title=" ">
<polygon fill="#e0e0e0" stroke="#999999" points="439.77,-19.25 394.52,-19.25 394.52,0 439.77,0 439.77,-19.25"/>
<text text-anchor="middle" x="417.15" y="-5.75" font-family="Helvetica,sans-Serif" font-size="10.00">atomic</text>
</a>
</g>
</g>
<!-- Node10&#45;&gt;Node12 -->
<g id="edge14" class="edge">
<title>Node10&#45;&gt;Node12</title>
<path fill="none" stroke="#63b8ff" d="M340.76,-54.84C354.77,-46.73 375.58,-34.68 391.95,-25.21"/>
<polygon fill="#63b8ff" stroke="#63b8ff" points="393.56,-27.74 400.47,-19.7 390.06,-21.68 393.56,-27.74"/>
</g>
<!-- Node13 -->
<g id="node13" class="node">
<title>Node13</title>
<g id="a_node13"><a xlink:href="v8-version_8h.html" target="_top" xlink:title=" ">
<polygon fill="white" stroke="#666666" points="376.4,-19.25 307.9,-19.25 307.9,0 376.4,0 376.4,-19.25"/>
<text text-anchor="middle" x="342.15" y="-5.75" font-family="Helvetica,sans-Serif" font-size="10.00">v8&#45;version.h</text>
</a>
</g>
</g>
<!-- Node10&#45;&gt;Node13 -->
<g id="edge16" class="edge">
<title>Node10&#45;&gt;Node13</title>
<path fill="none" stroke="#63b8ff" d="M327.96,-55.08C330.13,-48.26 333.23,-38.56 335.98,-29.95"/>
<polygon fill="#63b8ff" stroke="#63b8ff" points="339.57,-31.2 339.28,-20.61 332.91,-29.07 339.57,-31.2"/>
</g>
<!-- Node14&#45;&gt;Node2 -->
<g id="edge19" class="edge">
<title>Node14&#45;&gt;Node2</title>
<path fill="none" stroke="#63b8ff" d="M282.16,-174.85C203.1,-174.49 50.87,-168.62 17.15,-129.75 -7.31,-101.56 11.07,-54.8 24.45,-29.05"/>
<polygon fill="#63b8ff" stroke="#63b8ff" points="27.84,-31.16 29.58,-20.7 21.7,-27.79 27.84,-31.16"/>
</g>
<!-- Node14&#45;&gt;Node3 -->
<g id="edge20" class="edge">
<title>Node14&#45;&gt;Node3</title>
<path fill="none" stroke="#63b8ff" d="M282.06,-166.92C238.49,-159.26 178.53,-146.15 161.15,-129.75 133.27,-103.45 125.29,-56.96 123.03,-30.5"/>
<polygon fill="#63b8ff" stroke="#63b8ff" points="126.46,-30.36 122.33,-20.6 119.48,-30.81 126.46,-30.36"/>
</g>
<!-- Node14&#45;&gt;Node4 -->
<g id="edge25" class="edge">
<title>Node14&#45;&gt;Node4</title>
<path fill="none" stroke="#63b8ff" d="M360.68,-165.34C394.03,-155.48 447.08,-139.78 480.19,-129.99"/>
<polygon fill="#63b8ff" stroke="#63b8ff" points="481,-133.1 489.6,-126.91 479.02,-126.39 481,-133.1"/>
</g>
<!-- Node14&#45;&gt;Node7 -->
<g id="edge30" class="edge">
<title>Node14&#45;&gt;Node7</title>
<path fill="none" stroke="#63b8ff" d="M338.58,-165.46C363.96,-138.61 438.32,-60.1 444.15,-55.25 457.6,-44.06 473.96,-33.24 487.27,-25.07"/>
<polygon fill="#63b8ff" stroke="#63b8ff" points="488.57,-27.77 495.33,-19.61 484.95,-21.77 488.57,-27.77"/>
</g>
<!-- Node14&#45;&gt;Node8 -->
<g id="edge27" class="edge">
<title>Node14&#45;&gt;Node8</title>
<path fill="none" stroke="#63b8ff" d="M285.75,-165.28C241.25,-156.17 172.67,-142.12 124.84,-132.33"/>
<polygon fill="#63b8ff" stroke="#63b8ff" points="125.87,-128.76 115.37,-130.18 124.46,-135.62 125.87,-128.76"/>
</g>
<!-- Node14&#45;&gt;Node9 -->
<g id="edge24" class="edge">
<title>Node14&#45;&gt;Node9</title>
<path fill="none" stroke="#63b8ff" d="M325.62,-165.27C319.06,-152.47 306.16,-128.7 292.15,-110.5 267.38,-78.34 233.18,-45.6 212.43,-26.75"/>
<polygon fill="#63b8ff" stroke="#63b8ff" points="215.2,-24.64 205.42,-20.56 210.52,-29.85 215.2,-24.64"/>
</g>
<!-- Node14&#45;&gt;Node10 -->
<g id="edge26" class="edge">
<title>Node14&#45;&gt;Node10</title>
<path fill="none" stroke="#63b8ff" d="M329.74,-165.5C328.94,-148.17 327.16,-109.48 326.06,-85.74"/>
<polygon fill="#63b8ff" stroke="#63b8ff" points="329.52,-85.7 325.56,-75.88 322.53,-86.03 329.52,-85.7"/>
</g>
<!-- Node14&#45;&gt;Node12 -->
<g id="edge22" class="edge">
<title>Node14&#45;&gt;Node12</title>
<path fill="none" stroke="#63b8ff" d="M334.83,-165.57C348.52,-139.8 388.71,-64.15 407.39,-28.99"/>
<polygon fill="#63b8ff" stroke="#63b8ff" points="410.85,-30.95 412.45,-20.47 404.67,-27.66 410.85,-30.95"/>
</g>
<!-- Node15 -->
<g id="node15" class="node">
<title>Node15</title>
<g id="a_node15"><a xlink:title=" ">
<polygon fill="#e0e0e0" stroke="#999999" points="214.4,-129.75 169.9,-129.75 169.9,-110.5 214.4,-110.5 214.4,-129.75"/>
<text text-anchor="middle" x="192.15" y="-116.25" font-family="Helvetica,sans-Serif" font-size="10.00">stdio.h</text>
</a>
</g>
</g>
<!-- Node14&#45;&gt;Node15 -->
<g id="edge21" class="edge">
<title>Node14&#45;&gt;Node15</title>
<path fill="none" stroke="#63b8ff" d="M306.74,-165.34C284.27,-156.67 250.11,-143.49 224.94,-133.78"/>
<polygon fill="#63b8ff" stroke="#63b8ff" points="226.35,-130.18 215.76,-129.85 223.83,-136.71 226.35,-130.18"/>
</g>
<!-- Node16 -->
<g id="node16" class="node">
<title>Node16</title>
<g id="a_node16"><a xlink:title=" ">
<polygon fill="#e0e0e0" stroke="#999999" points="283.4,-129.75 232.9,-129.75 232.9,-110.5 283.4,-110.5 283.4,-129.75"/>
<text text-anchor="middle" x="258.15" y="-116.25" font-family="Helvetica,sans-Serif" font-size="10.00">memory</text>
</a>
</g>
</g>
<!-- Node14&#45;&gt;Node16 -->
<g id="edge23" class="edge">
<title>Node14&#45;&gt;Node16</title>
<path fill="none" stroke="#63b8ff" d="M317.94,-165.34C307.22,-157.41 291.41,-145.72 278.74,-136.35"/>
<polygon fill="#63b8ff" stroke="#63b8ff" points="281.3,-133.16 271.18,-130.02 277.14,-138.79 281.3,-133.16"/>
</g>
<!-- Node17 -->
<g id="node17" class="node">
<title>Node17</title>
<g id="a_node17"><a xlink:href="v8-weak-callback-info_8h.html" target="_top" xlink:title=" ">
<polygon fill="white" stroke="#666666" points="571.15,-74.5 453.15,-74.5 453.15,-55.25 571.15,-55.25 571.15,-74.5"/>
<text text-anchor="middle" x="512.15" y="-61" font-family="Helvetica,sans-Serif" font-size="10.00">v8&#45;weak&#45;callback&#45;info.h</text>
</a>
</g>
</g>
<!-- Node14&#45;&gt;Node17 -->
<g id="edge28" class="edge">
<title>Node14&#45;&gt;Node17</title>
<path fill="none" stroke="#63b8ff" d="M359.63,-165.28C382.31,-157.59 413.93,-145.34 439.15,-129.75 460.94,-116.28 482.62,-96.26 496.61,-82.23"/>
<polygon fill="#63b8ff" stroke="#63b8ff" points="498.43,-85.36 502.91,-75.76 493.42,-80.47 498.43,-85.36"/>
</g>
<!-- Node17&#45;&gt;Node7 -->
<g id="edge29" class="edge">
<title>Node17&#45;&gt;Node7</title>
<path fill="none" stroke="#63b8ff" d="M512.15,-55.08C512.15,-48.42 512.15,-38.99 512.15,-30.53"/>
<polygon fill="#63b8ff" stroke="#63b8ff" points="515.65,-30.61 512.15,-20.61 508.65,-30.61 515.65,-30.61"/>
</g>
</g>
</svg>
