<?xml version="1.0" encoding="UTF-8" standalone="no"?>
<!DOCTYPE svg PUBLIC "-//W3C//DTD SVG 1.1//EN"
 "http://www.w3.org/Graphics/SVG/1.1/DTD/svg11.dtd">
<!-- Generated by graphviz version 8.0.5 (20230430.1635)
 -->
<!-- Title: include/v8&#45;unwinder.h Pages: 1 -->
<svg width="531pt" height="359pt"
 viewBox="0.00 0.00 530.75 358.75" xmlns="http://www.w3.org/2000/svg" xmlns:xlink="http://www.w3.org/1999/xlink">
<g id="graph0" class="graph" transform="scale(1 1) rotate(0) translate(4 354.75)">
<title>include/v8&#45;unwinder.h</title>
<!-- Node1 -->
<g id="node1" class="node">
<title>Node1</title>
<g id="a_node1"><a xlink:title=" ">
<polygon fill="#999999" stroke="#666666" points="297.62,-350.75 187.88,-350.75 187.88,-331.5 297.62,-331.5 297.62,-350.75"/>
<text text-anchor="middle" x="242.75" y="-337.25" font-family="Helvetica,sans-Serif" font-size="10.00">include/v8&#45;unwinder.h</text>
</a>
</g>
</g>
<!-- Node2 -->
<g id="node2" class="node">
<title>Node2</title>
<g id="a_node2"><a xlink:title=" ">
<polygon fill="#e0e0e0" stroke="#999999" points="134,-240.25 83.5,-240.25 83.5,-221 134,-221 134,-240.25"/>
<text text-anchor="middle" x="108.75" y="-226.75" font-family="Helvetica,sans-Serif" font-size="10.00">memory</text>
</a>
</g>
</g>
<!-- Node1&#45;&gt;Node2 -->
<g id="edge1" class="edge">
<title>Node1&#45;&gt;Node2</title>
<path fill="none" stroke="#63b8ff" d="M223.93,-331.11C207.9,-322.98 184.68,-310.07 166.75,-295.5 149.75,-281.69 133.24,-262.81 122.21,-249.16"/>
<polygon fill="#63b8ff" stroke="#63b8ff" points="124.46,-247.36 115.52,-241.68 118.97,-251.69 124.46,-247.36"/>
</g>
<!-- Node3 -->
<g id="node3" class="node">
<title>Node3</title>
<g id="a_node3"><a xlink:href="v8-embedder-state-scope_8h.html" target="_top" xlink:title=" ">
<polygon fill="white" stroke="#666666" points="309.62,-295.5 175.88,-295.5 175.88,-276.25 309.62,-276.25 309.62,-295.5"/>
<text text-anchor="middle" x="242.75" y="-282" font-family="Helvetica,sans-Serif" font-size="10.00">v8&#45;embedder&#45;state&#45;scope.h</text>
</a>
</g>
</g>
<!-- Node1&#45;&gt;Node3 -->
<g id="edge2" class="edge">
<title>Node1&#45;&gt;Node3</title>
<path fill="none" stroke="#63b8ff" d="M242.75,-331.33C242.75,-324.67 242.75,-315.24 242.75,-306.78"/>
<polygon fill="#63b8ff" stroke="#63b8ff" points="246.25,-306.86 242.75,-296.86 239.25,-306.86 246.25,-306.86"/>
</g>
<!-- Node14 -->
<g id="node14" class="node">
<title>Node14</title>
<g id="a_node14"><a xlink:href="v8config_8h.html" target="_top" xlink:title=" ">
<polygon fill="white" stroke="#666666" points="487.5,-19.25 428,-19.25 428,0 487.5,0 487.5,-19.25"/>
<text text-anchor="middle" x="457.75" y="-5.75" font-family="Helvetica,sans-Serif" font-size="10.00">v8config.h</text>
</a>
</g>
</g>
<!-- Node1&#45;&gt;Node14 -->
<g id="edge27" class="edge">
<title>Node1&#45;&gt;Node14</title>
<path fill="none" stroke="#63b8ff" d="M294.43,-331.04C375.34,-315.32 522.75,-280.04 522.75,-231.62 522.75,-231.62 522.75,-231.62 522.75,-119.12 522.75,-82.23 494.76,-47.04 475.51,-27.2"/>
<polygon fill="#63b8ff" stroke="#63b8ff" points="478.48,-25.22 468.91,-20.67 473.55,-30.19 478.48,-25.22"/>
</g>
<!-- Node3&#45;&gt;Node2 -->
<g id="edge3" class="edge">
<title>Node3&#45;&gt;Node2</title>
<path fill="none" stroke="#63b8ff" d="M220.02,-275.84C198.55,-267.31 166.12,-254.42 141.8,-244.76"/>
<polygon fill="#63b8ff" stroke="#63b8ff" points="143.18,-241.14 132.59,-240.7 140.59,-247.65 143.18,-241.14"/>
</g>
<!-- Node4 -->
<g id="node4" class="node">
<title>Node4</title>
<g id="a_node4"><a xlink:href="v8-context_8h.html" target="_top" xlink:title=" ">
<polygon fill="white" stroke="#666666" points="328,-240.25 259.5,-240.25 259.5,-221 328,-221 328,-240.25"/>
<text text-anchor="middle" x="293.75" y="-226.75" font-family="Helvetica,sans-Serif" font-size="10.00">v8&#45;context.h</text>
</a>
</g>
</g>
<!-- Node3&#45;&gt;Node4 -->
<g id="edge4" class="edge">
<title>Node3&#45;&gt;Node4</title>
<path fill="none" stroke="#63b8ff" d="M251.17,-276.08C258.36,-268.57 268.91,-257.56 277.7,-248.38"/>
<polygon fill="#63b8ff" stroke="#63b8ff" points="279.76,-251.25 284.15,-241.61 274.7,-246.41 279.76,-251.25"/>
</g>
<!-- Node7 -->
<g id="node7" class="node">
<title>Node7</title>
<g id="a_node7"><a xlink:href="v8-local-handle_8h.html" target="_top" xlink:title=" ">
<polygon fill="white" stroke="#666666" points="354.12,-129.75 265.38,-129.75 265.38,-110.5 354.12,-110.5 354.12,-129.75"/>
<text text-anchor="middle" x="309.75" y="-116.25" font-family="Helvetica,sans-Serif" font-size="10.00">v8&#45;local&#45;handle.h</text>
</a>
</g>
</g>
<!-- Node3&#45;&gt;Node7 -->
<g id="edge26" class="edge">
<title>Node3&#45;&gt;Node7</title>
<path fill="none" stroke="#63b8ff" d="M285.47,-275.77C330.31,-263.64 398.3,-237.33 427.75,-185 444.51,-155.22 403.31,-138.59 365.07,-129.83"/>
<polygon fill="#63b8ff" stroke="#63b8ff" points="365.93,-126.22 355.42,-127.56 364.47,-133.06 365.93,-126.22"/>
</g>
<!-- Node10 -->
<g id="node10" class="node">
<title>Node10</title>
<g id="a_node10"><a xlink:href="v8-internal_8h.html" target="_top" xlink:title=" ">
<polygon fill="white" stroke="#666666" points="278,-74.5 209.5,-74.5 209.5,-55.25 278,-55.25 278,-74.5"/>
<text text-anchor="middle" x="243.75" y="-61" font-family="Helvetica,sans-Serif" font-size="10.00">v8&#45;internal.h</text>
</a>
</g>
</g>
<!-- Node3&#45;&gt;Node10 -->
<g id="edge25" class="edge">
<title>Node3&#45;&gt;Node10</title>
<path fill="none" stroke="#63b8ff" d="M242.79,-276.02C242.94,-243.62 243.45,-131.05 243.66,-85.37"/>
<polygon fill="#63b8ff" stroke="#63b8ff" points="247.16,-85.62 243.71,-75.6 240.16,-85.59 247.16,-85.62"/>
</g>
<!-- Node5 -->
<g id="node5" class="node">
<title>Node5</title>
<g id="a_node5"><a xlink:title=" ">
<polygon fill="#e0e0e0" stroke="#999999" points="47.5,-19.25 0,-19.25 0,0 47.5,0 47.5,-19.25"/>
<text text-anchor="middle" x="23.75" y="-5.75" font-family="Helvetica,sans-Serif" font-size="10.00">stdint.h</text>
</a>
</g>
</g>
<!-- Node4&#45;&gt;Node5 -->
<g id="edge5" class="edge">
<title>Node4&#45;&gt;Node5</title>
<path fill="none" stroke="#63b8ff" d="M282.83,-220.77C241.79,-187.48 96.39,-69.55 43.32,-26.5"/>
<polygon fill="#63b8ff" stroke="#63b8ff" points="45.78,-23.17 35.8,-19.59 41.37,-28.61 45.78,-23.17"/>
</g>
<!-- Node6 -->
<g id="node6" class="node">
<title>Node6</title>
<g id="a_node6"><a xlink:href="v8-data_8h.html" target="_top" xlink:title=" ">
<polygon fill="white" stroke="#666666" points="418.62,-185 362.88,-185 362.88,-165.75 418.62,-165.75 418.62,-185"/>
<text text-anchor="middle" x="390.75" y="-171.5" font-family="Helvetica,sans-Serif" font-size="10.00">v8&#45;data.h</text>
</a>
</g>
</g>
<!-- Node4&#45;&gt;Node6 -->
<g id="edge6" class="edge">
<title>Node4&#45;&gt;Node6</title>
<path fill="none" stroke="#63b8ff" d="M310.2,-220.59C325.12,-212.41 347.34,-200.21 364.67,-190.69"/>
<polygon fill="#63b8ff" stroke="#63b8ff" points="366.13,-193.33 373.21,-185.45 362.76,-187.2 366.13,-193.33"/>
</g>
<!-- Node4&#45;&gt;Node7 -->
<g id="edge19" class="edge">
<title>Node4&#45;&gt;Node7</title>
<path fill="none" stroke="#63b8ff" d="M283.22,-220.72C270.17,-208.55 250.71,-185.93 259.75,-165.75 265.07,-153.88 275.27,-143.87 285.09,-136.35"/>
<polygon fill="#63b8ff" stroke="#63b8ff" points="286.69,-138.8 292.83,-130.17 282.65,-133.09 286.69,-138.8"/>
</g>
<!-- Node4&#45;&gt;Node14 -->
<g id="edge24" class="edge">
<title>Node4&#45;&gt;Node14</title>
<path fill="none" stroke="#63b8ff" d="M328.3,-227.73C359.08,-224.1 402.98,-213.83 427.75,-185 465.89,-140.61 463.88,-65.7 460.35,-30.29"/>
<polygon fill="#63b8ff" stroke="#63b8ff" points="463.73,-30.06 459.1,-20.53 456.78,-30.87 463.73,-30.06"/>
</g>
<!-- Node15 -->
<g id="node15" class="node">
<title>Node15</title>
<g id="a_node15"><a xlink:href="v8-snapshot_8h.html" target="_top" xlink:title=" ">
<polygon fill="white" stroke="#666666" points="345.12,-185 268.38,-185 268.38,-165.75 345.12,-165.75 345.12,-185"/>
<text text-anchor="middle" x="306.75" y="-171.5" font-family="Helvetica,sans-Serif" font-size="10.00">v8&#45;snapshot.h</text>
</a>
</g>
</g>
<!-- Node4&#45;&gt;Node15 -->
<g id="edge20" class="edge">
<title>Node4&#45;&gt;Node15</title>
<path fill="none" stroke="#63b8ff" d="M295.9,-220.83C297.54,-214.09 299.88,-204.52 301.96,-195.99"/>
<polygon fill="#63b8ff" stroke="#63b8ff" points="305.59,-196.9 304.56,-186.36 298.78,-195.24 305.59,-196.9"/>
</g>
<!-- Node6&#45;&gt;Node7 -->
<g id="edge7" class="edge">
<title>Node6&#45;&gt;Node7</title>
<path fill="none" stroke="#63b8ff" d="M377.01,-165.34C364.79,-157.31 346.69,-145.41 332.34,-135.98"/>
<polygon fill="#63b8ff" stroke="#63b8ff" points="334.84,-132.77 324.56,-130.2 330.99,-138.62 334.84,-132.77"/>
</g>
<!-- Node6&#45;&gt;Node14 -->
<g id="edge18" class="edge">
<title>Node6&#45;&gt;Node14</title>
<path fill="none" stroke="#63b8ff" d="M394.35,-165.57C404.85,-139.92 435.58,-64.8 450.05,-29.44"/>
<polygon fill="#63b8ff" stroke="#63b8ff" points="453.58,-31.05 454.13,-20.47 447.1,-28.4 453.58,-31.05"/>
</g>
<!-- Node8 -->
<g id="node8" class="node">
<title>Node8</title>
<g id="a_node8"><a xlink:title=" ">
<polygon fill="#e0e0e0" stroke="#999999" points="331,-19.25 280.5,-19.25 280.5,0 331,0 331,-19.25"/>
<text text-anchor="middle" x="305.75" y="-5.75" font-family="Helvetica,sans-Serif" font-size="10.00">stddef.h</text>
</a>
</g>
</g>
<!-- Node7&#45;&gt;Node8 -->
<g id="edge8" class="edge">
<title>Node7&#45;&gt;Node8</title>
<path fill="none" stroke="#63b8ff" d="M309.42,-110.25C308.78,-92.92 307.36,-54.23 306.48,-30.49"/>
<polygon fill="#63b8ff" stroke="#63b8ff" points="309.95,-30.49 306.08,-20.63 302.95,-30.75 309.95,-30.49"/>
</g>
<!-- Node9 -->
<g id="node9" class="node">
<title>Node9</title>
<g id="a_node9"><a xlink:title=" ">
<polygon fill="#e0e0e0" stroke="#999999" points="410.25,-19.25 349.25,-19.25 349.25,0 410.25,0 410.25,-19.25"/>
<text text-anchor="middle" x="379.75" y="-5.75" font-family="Helvetica,sans-Serif" font-size="10.00">type_traits</text>
</a>
</g>
</g>
<!-- Node7&#45;&gt;Node9 -->
<g id="edge9" class="edge">
<title>Node7&#45;&gt;Node9</title>
<path fill="none" stroke="#63b8ff" d="M315.48,-110.25C326.96,-92.44 353,-52.08 368.18,-28.56"/>
<polygon fill="#63b8ff" stroke="#63b8ff" points="371.46,-30.93 373.94,-20.63 365.58,-27.13 371.46,-30.93"/>
</g>
<!-- Node7&#45;&gt;Node10 -->
<g id="edge10" class="edge">
<title>Node7&#45;&gt;Node10</title>
<path fill="none" stroke="#63b8ff" d="M298.55,-110.09C288.92,-102.32 274.8,-90.92 263.3,-81.65"/>
<polygon fill="#63b8ff" stroke="#63b8ff" points="265.76,-78.33 255.78,-74.77 261.37,-83.78 265.76,-78.33"/>
</g>
<!-- Node10&#45;&gt;Node5 -->
<g id="edge12" class="edge">
<title>Node10&#45;&gt;Node5</title>
<path fill="none" stroke="#63b8ff" d="M209.23,-55.87C173.79,-47.6 116.78,-34.16 58.41,-19.63"/>
<polygon fill="#63b8ff" stroke="#63b8ff" points="59.44,-16.02 48.89,-17 57.74,-22.82 59.44,-16.02"/>
</g>
<!-- Node10&#45;&gt;Node8 -->
<g id="edge11" class="edge">
<title>Node10&#45;&gt;Node8</title>
<path fill="none" stroke="#63b8ff" d="M254.27,-54.84C263.23,-47.15 276.32,-35.9 287.06,-26.68"/>
<polygon fill="#63b8ff" stroke="#63b8ff" points="289.08,-28.7 294.39,-19.52 284.52,-23.39 289.08,-28.7"/>
</g>
<!-- Node10&#45;&gt;Node9 -->
<g id="edge15" class="edge">
<title>Node10&#45;&gt;Node9</title>
<path fill="none" stroke="#63b8ff" d="M266.82,-54.84C288.7,-46.27 321.82,-33.31 346.54,-23.63"/>
<polygon fill="#63b8ff" stroke="#63b8ff" points="347.53,-26.61 355.57,-19.7 344.98,-20.09 347.53,-26.61"/>
</g>
<!-- Node11 -->
<g id="node11" class="node">
<title>Node11</title>
<g id="a_node11"><a xlink:title=" ">
<polygon fill="#e0e0e0" stroke="#999999" points="199.5,-19.25 152,-19.25 152,0 199.5,0 199.5,-19.25"/>
<text text-anchor="middle" x="175.75" y="-5.75" font-family="Helvetica,sans-Serif" font-size="10.00">string.h</text>
</a>
</g>
</g>
<!-- Node10&#45;&gt;Node11 -->
<g id="edge13" class="edge">
<title>Node10&#45;&gt;Node11</title>
<path fill="none" stroke="#63b8ff" d="M232.21,-54.84C222.19,-46.99 207.45,-35.45 195.54,-26.12"/>
<polygon fill="#63b8ff" stroke="#63b8ff" points="198.15,-22.93 188.11,-19.52 193.83,-28.45 198.15,-22.93"/>
</g>
<!-- Node12 -->
<g id="node12" class="node">
<title>Node12</title>
<g id="a_node12"><a xlink:title=" ">
<polygon fill="#e0e0e0" stroke="#999999" points="262.38,-19.25 217.12,-19.25 217.12,0 262.38,0 262.38,-19.25"/>
<text text-anchor="middle" x="239.75" y="-5.75" font-family="Helvetica,sans-Serif" font-size="10.00">atomic</text>
</a>
</g>
</g>
<!-- Node10&#45;&gt;Node12 -->
<g id="edge14" class="edge">
<title>Node10&#45;&gt;Node12</title>
<path fill="none" stroke="#63b8ff" d="M243.09,-55.08C242.59,-48.42 241.88,-38.99 241.25,-30.53"/>
<polygon fill="#63b8ff" stroke="#63b8ff" points="244.66,-30.32 240.42,-20.61 237.68,-30.84 244.66,-30.32"/>
</g>
<!-- Node13 -->
<g id="node13" class="node">
<title>Node13</title>
<g id="a_node13"><a xlink:href="v8-version_8h.html" target="_top" xlink:title=" ">
<polygon fill="white" stroke="#666666" points="134,-19.25 65.5,-19.25 65.5,0 134,0 134,-19.25"/>
<text text-anchor="middle" x="99.75" y="-5.75" font-family="Helvetica,sans-Serif" font-size="10.00">v8&#45;version.h</text>
</a>
</g>
</g>
<!-- Node10&#45;&gt;Node13 -->
<g id="edge16" class="edge">
<title>Node10&#45;&gt;Node13</title>
<path fill="none" stroke="#63b8ff" d="M219.32,-54.84C196.05,-46.24 160.77,-33.19 134.56,-23.5"/>
<polygon fill="#63b8ff" stroke="#63b8ff" points="135.89,-19.89 125.3,-19.7 133.46,-26.45 135.89,-19.89"/>
</g>
<!-- Node10&#45;&gt;Node14 -->
<g id="edge17" class="edge">
<title>Node10&#45;&gt;Node14</title>
<path fill="none" stroke="#63b8ff" d="M278.13,-55.32C316.01,-45.89 376.88,-30.75 417.1,-20.74"/>
<polygon fill="#63b8ff" stroke="#63b8ff" points="417.74,-23.94 426.6,-18.13 416.05,-17.14 417.74,-23.94"/>
</g>
<!-- Node15&#45;&gt;Node7 -->
<g id="edge22" class="edge">
<title>Node15&#45;&gt;Node7</title>
<path fill="none" stroke="#63b8ff" d="M307.25,-165.58C307.62,-158.92 308.15,-149.49 308.63,-141.03"/>
<polygon fill="#63b8ff" stroke="#63b8ff" points="312.18,-141.29 309.24,-131.11 305.19,-140.9 312.18,-141.29"/>
</g>
<!-- Node15&#45;&gt;Node10 -->
<g id="edge21" class="edge">
<title>Node15&#45;&gt;Node10</title>
<path fill="none" stroke="#63b8ff" d="M292.6,-165.54C281.12,-157.6 265.44,-144.88 256.75,-129.75 248.98,-116.23 245.81,-98.75 244.54,-85.5"/>
<polygon fill="#63b8ff" stroke="#63b8ff" points="247.98,-85.5 243.82,-75.75 240.99,-85.96 247.98,-85.5"/>
</g>
<!-- Node15&#45;&gt;Node14 -->
<g id="edge23" class="edge">
<title>Node15&#45;&gt;Node14</title>
<path fill="none" stroke="#63b8ff" d="M319.43,-165.54C331.24,-157.03 349.03,-143.46 362.75,-129.75 395.8,-96.71 428.48,-52.54 445.55,-28.34"/>
<polygon fill="#63b8ff" stroke="#63b8ff" points="448.83,-30.76 451.69,-20.55 443.09,-26.75 448.83,-30.76"/>
</g>
</g>
</svg>
