<?xml version="1.0" encoding="UTF-8" standalone="no"?>
<!DOCTYPE svg PUBLIC "-//W3C//DTD SVG 1.1//EN"
 "http://www.w3.org/Graphics/SVG/1.1/DTD/svg11.dtd">
<!-- Generated by graphviz version 8.0.5 (20230430.1635)
 -->
<!-- Title: v8::Data Pages: 1 -->
<svg width="770pt" height="859pt"
 viewBox="0.00 0.00 770.00 859.25" xmlns="http://www.w3.org/2000/svg" xmlns:xlink="http://www.w3.org/1999/xlink">
<g id="graph0" class="graph" transform="scale(1 1) rotate(0) translate(4 855.25)">
<title>v8::Data</title>
<!-- Node1 -->
<g id="node1" class="node">
<title>Node1</title>
<g id="a_node1"><a xlink:title=" ">
<polygon fill="#999999" stroke="#666666" points="51.25,-574.25 0,-574.25 0,-555 51.25,-555 51.25,-574.25"/>
<text text-anchor="middle" x="25.62" y="-560.75" font-family="Helvetica,sans-Serif" font-size="10.00">v8::Data</text>
</a>
</g>
</g>
<!-- Node2 -->
<g id="node2" class="node">
<title>Node2</title>
<g id="a_node2"><a xlink:href="classv8_1_1AccessorSignature.html" target="_top" xlink:title=" ">
<polygon fill="white" stroke="#666666" points="207.5,-685.25 94,-685.25 94,-666 207.5,-666 207.5,-685.25"/>
<text text-anchor="middle" x="150.75" y="-671.75" font-family="Helvetica,sans-Serif" font-size="10.00">v8::AccessorSignature</text>
</a>
</g>
</g>
<!-- Node1&#45;&gt;Node2 -->
<g id="edge1" class="edge">
<title>Node1&#45;&gt;Node2</title>
<path fill="none" stroke="#63b8ff" d="M34.58,-584.61C44.03,-605.81 61.78,-638.79 87.25,-657.62 91.52,-660.78 96.32,-663.38 101.33,-665.53"/>
<polygon fill="#63b8ff" stroke="#63b8ff" points="37.52,-583.58 30.4,-575.73 31.07,-586.3 37.52,-583.58"/>
</g>
<!-- Node3 -->
<g id="node3" class="node">
<title>Node3</title>
<g id="a_node3"><a xlink:href="classv8_1_1Module.html" target="_top" xlink:title=" ">
<polygon fill="white" stroke="#666666" points="182,-648.25 119.5,-648.25 119.5,-629 182,-629 182,-648.25"/>
<text text-anchor="middle" x="150.75" y="-634.75" font-family="Helvetica,sans-Serif" font-size="10.00">v8::Module</text>
</a>
</g>
</g>
<!-- Node1&#45;&gt;Node3 -->
<g id="edge2" class="edge">
<title>Node1&#45;&gt;Node3</title>
<path fill="none" stroke="#63b8ff" d="M41.92,-582.63C53.28,-594.95 69.77,-610.78 87.25,-620.62 96.99,-626.11 108.54,-630.05 119.05,-632.81"/>
<polygon fill="#63b8ff" stroke="#63b8ff" points="44.87,-580.56 35.61,-575.41 39.64,-585.21 44.87,-580.56"/>
</g>
<!-- Node4 -->
<g id="node4" class="node">
<title>Node4</title>
<g id="a_node4"><a xlink:href="classv8_1_1Private.html" target="_top" xlink:title=" ">
<polygon fill="white" stroke="#666666" points="181.62,-611.25 119.88,-611.25 119.88,-592 181.62,-592 181.62,-611.25"/>
<text text-anchor="middle" x="150.75" y="-597.75" font-family="Helvetica,sans-Serif" font-size="10.00">v8::Private</text>
</a>
</g>
</g>
<!-- Node1&#45;&gt;Node4 -->
<g id="edge3" class="edge">
<title>Node1&#45;&gt;Node4</title>
<path fill="none" stroke="#63b8ff" d="M62.11,-575.9C70.35,-578.47 79.1,-581.17 87.25,-583.62 97.74,-586.78 109.25,-590.13 119.51,-593.07"/>
<polygon fill="#63b8ff" stroke="#63b8ff" points="63.25,-572.27 52.66,-572.61 61.15,-578.95 63.25,-572.27"/>
</g>
<!-- Node5 -->
<g id="node5" class="node">
<title>Node5</title>
<g id="a_node5"><a xlink:href="classv8_1_1Signature.html" target="_top" xlink:title=" ">
<polygon fill="white" stroke="#666666" points="186.88,-574.25 114.62,-574.25 114.62,-555 186.88,-555 186.88,-574.25"/>
<text text-anchor="middle" x="150.75" y="-560.75" font-family="Helvetica,sans-Serif" font-size="10.00">v8::Signature</text>
</a>
</g>
</g>
<!-- Node1&#45;&gt;Node5 -->
<g id="edge4" class="edge">
<title>Node1&#45;&gt;Node5</title>
<path fill="none" stroke="#63b8ff" d="M62.28,-564.62C78.58,-564.62 97.84,-564.62 114.14,-564.62"/>
<polygon fill="#63b8ff" stroke="#63b8ff" points="62.54,-561.13 52.54,-564.62 62.54,-568.13 62.54,-561.13"/>
</g>
<!-- Node6 -->
<g id="node6" class="node">
<title>Node6</title>
<g id="a_node6"><a xlink:href="classv8_1_1Template.html" target="_top" xlink:title=" ">
<polygon fill="white" stroke="#666666" points="186.5,-537.25 115,-537.25 115,-518 186.5,-518 186.5,-537.25"/>
<text text-anchor="middle" x="150.75" y="-523.75" font-family="Helvetica,sans-Serif" font-size="10.00">v8::Template</text>
</a>
</g>
</g>
<!-- Node1&#45;&gt;Node6 -->
<g id="edge5" class="edge">
<title>Node1&#45;&gt;Node6</title>
<path fill="none" stroke="#63b8ff" d="M62.11,-553.35C70.35,-550.78 79.1,-548.08 87.25,-545.62 96.12,-542.96 105.72,-540.15 114.67,-537.57"/>
<polygon fill="#63b8ff" stroke="#63b8ff" points="61.15,-550.3 52.66,-556.64 63.25,-556.98 61.15,-550.3"/>
</g>
<!-- Node9 -->
<g id="node9" class="node">
<title>Node9</title>
<g id="a_node9"><a xlink:href="classv8_1_1UnboundModuleScript.html" target="_top" xlink:title=" ">
<polygon fill="white" stroke="#666666" points="214.25,-500.25 87.25,-500.25 87.25,-481 214.25,-481 214.25,-500.25"/>
<text text-anchor="middle" x="150.75" y="-486.75" font-family="Helvetica,sans-Serif" font-size="10.00">v8::UnboundModuleScript</text>
</a>
</g>
</g>
<!-- Node1&#45;&gt;Node9 -->
<g id="edge8" class="edge">
<title>Node1&#45;&gt;Node9</title>
<path fill="none" stroke="#63b8ff" d="M41.92,-546.62C53.28,-534.3 69.77,-518.47 87.25,-508.62 92.76,-505.52 98.85,-502.91 105,-500.73"/>
<polygon fill="#63b8ff" stroke="#63b8ff" points="39.64,-544.04 35.61,-553.84 44.87,-548.69 39.64,-544.04"/>
</g>
<!-- Node10 -->
<g id="node10" class="node">
<title>Node10</title>
<g id="a_node10"><a xlink:href="classv8_1_1Value.html" target="_top" xlink:title=" ">
<polygon fill="white" stroke="#666666" points="178.62,-463.25 122.88,-463.25 122.88,-444 178.62,-444 178.62,-463.25"/>
<text text-anchor="middle" x="150.75" y="-449.75" font-family="Helvetica,sans-Serif" font-size="10.00">v8::Value</text>
</a>
</g>
</g>
<!-- Node1&#45;&gt;Node10 -->
<g id="edge9" class="edge">
<title>Node1&#45;&gt;Node10</title>
<path fill="none" stroke="#63b8ff" d="M34.58,-544.64C44.03,-523.44 61.78,-490.46 87.25,-471.62 97.51,-464.04 110.89,-459.64 122.64,-457.1"/>
<polygon fill="#63b8ff" stroke="#63b8ff" points="31.07,-542.95 30.4,-553.52 37.52,-545.67 31.07,-542.95"/>
</g>
<!-- Node7 -->
<g id="node7" class="node">
<title>Node7</title>
<g id="a_node7"><a xlink:href="classv8_1_1FunctionTemplate.html" target="_top" xlink:title=" ">
<polygon fill="white" stroke="#666666" points="359.25,-574.25 250.25,-574.25 250.25,-555 359.25,-555 359.25,-574.25"/>
<text text-anchor="middle" x="304.75" y="-560.75" font-family="Helvetica,sans-Serif" font-size="10.00">v8::FunctionTemplate</text>
</a>
</g>
</g>
<!-- Node6&#45;&gt;Node7 -->
<g id="edge6" class="edge">
<title>Node6&#45;&gt;Node7</title>
<path fill="none" stroke="#63b8ff" d="M197.07,-538.66C217.76,-543.69 242.09,-549.62 262.29,-554.53"/>
<polygon fill="#63b8ff" stroke="#63b8ff" points="198.17,-535.08 187.62,-536.11 196.51,-541.88 198.17,-535.08"/>
</g>
<!-- Node8 -->
<g id="node8" class="node">
<title>Node8</title>
<g id="a_node8"><a xlink:href="classv8_1_1ObjectTemplate.html" target="_top" xlink:title=" ">
<polygon fill="white" stroke="#666666" points="354.75,-537.25 254.75,-537.25 254.75,-518 354.75,-518 354.75,-537.25"/>
<text text-anchor="middle" x="304.75" y="-523.75" font-family="Helvetica,sans-Serif" font-size="10.00">v8::ObjectTemplate</text>
</a>
</g>
</g>
<!-- Node6&#45;&gt;Node8 -->
<g id="edge7" class="edge">
<title>Node6&#45;&gt;Node8</title>
<path fill="none" stroke="#63b8ff" d="M197.41,-527.62C215.37,-527.62 236.04,-527.62 254.35,-527.62"/>
<polygon fill="#63b8ff" stroke="#63b8ff" points="197.62,-524.13 187.62,-527.62 197.62,-531.13 197.62,-524.13"/>
</g>
<!-- Node11 -->
<g id="node11" class="node">
<title>Node11</title>
<g id="a_node11"><a xlink:href="classv8_1_1External.html" target="_top" xlink:title=" ">
<polygon fill="white" stroke="#666666" points="337.5,-500.25 272,-500.25 272,-481 337.5,-481 337.5,-500.25"/>
<text text-anchor="middle" x="304.75" y="-486.75" font-family="Helvetica,sans-Serif" font-size="10.00">v8::External</text>
</a>
</g>
</g>
<!-- Node10&#45;&gt;Node11 -->
<g id="edge10" class="edge">
<title>Node10&#45;&gt;Node11</title>
<path fill="none" stroke="#63b8ff" d="M189.57,-462.83C214.78,-468.97 247.57,-476.95 271.54,-482.78"/>
<polygon fill="#63b8ff" stroke="#63b8ff" points="190.47,-459.2 179.92,-460.24 188.81,-466.01 190.47,-459.2"/>
</g>
<!-- Node12 -->
<g id="node12" class="node">
<title>Node12</title>
<g id="a_node12"><a xlink:href="classv8_1_1Object.html" target="_top" xlink:title=" ">
<polygon fill="white" stroke="#666666" points="334.5,-463.25 275,-463.25 275,-444 334.5,-444 334.5,-463.25"/>
<text text-anchor="middle" x="304.75" y="-449.75" font-family="Helvetica,sans-Serif" font-size="10.00">v8::Object</text>
</a>
</g>
</g>
<!-- Node10&#45;&gt;Node12 -->
<g id="edge11" class="edge">
<title>Node10&#45;&gt;Node12</title>
<path fill="none" stroke="#63b8ff" d="M189.66,-453.62C216,-453.62 250.58,-453.62 274.74,-453.62"/>
<polygon fill="#63b8ff" stroke="#63b8ff" points="189.92,-450.13 179.92,-453.62 189.92,-457.13 189.92,-450.13"/>
</g>
<!-- Node44 -->
<g id="node42" class="node">
<title>Node44</title>
<g id="a_node42"><a xlink:href="classv8_1_1Primitive.html" target="_top" xlink:title=" ">
<polygon fill="white" stroke="#666666" points="339.38,-93.25 270.12,-93.25 270.12,-74 339.38,-74 339.38,-93.25"/>
<text text-anchor="middle" x="304.75" y="-79.75" font-family="Helvetica,sans-Serif" font-size="10.00">v8::Primitive</text>
</a>
</g>
</g>
<!-- Node10&#45;&gt;Node44 -->
<g id="edge41" class="edge">
<title>Node10&#45;&gt;Node44</title>
<path fill="none" stroke="#63b8ff" d="M159.86,-433.89C187.73,-366.05 279.01,-143.84 299.6,-93.73"/>
<polygon fill="#63b8ff" stroke="#63b8ff" points="156.38,-432.15 155.82,-442.73 162.85,-434.81 156.38,-432.15"/>
</g>
<!-- Node13 -->
<g id="node13" class="node">
<title>Node13</title>
<g id="a_node13"><a xlink:href="classv8_1_1Array.html" target="_top" xlink:title=" ">
<polygon fill="white" stroke="#666666" points="481.38,-796.25 427.88,-796.25 427.88,-777 481.38,-777 481.38,-796.25"/>
<text text-anchor="middle" x="454.62" y="-782.75" font-family="Helvetica,sans-Serif" font-size="10.00">v8::Array</text>
</a>
</g>
</g>
<!-- Node12&#45;&gt;Node13 -->
<g id="edge12" class="edge">
<title>Node12&#45;&gt;Node13</title>
<path fill="none" stroke="#63b8ff" d="M344.95,-460.95C350.42,-463.51 355.46,-466.97 359.25,-471.62 443.21,-574.73 309.98,-666.6 395.25,-768.62 403.14,-778.06 415.86,-782.65 427.42,-784.83"/>
<polygon fill="#63b8ff" stroke="#63b8ff" points="346.4,-457.38 335.8,-457.22 343.98,-463.95 346.4,-457.38"/>
</g>
<!-- Node14 -->
<g id="node14" class="node">
<title>Node14</title>
<g id="a_node14"><a xlink:href="classv8_1_1ArrayBuffer.html" target="_top" xlink:title=" ">
<polygon fill="white" stroke="#666666" points="494.12,-759.25 415.12,-759.25 415.12,-740 494.12,-740 494.12,-759.25"/>
<text text-anchor="middle" x="454.62" y="-745.75" font-family="Helvetica,sans-Serif" font-size="10.00">v8::ArrayBuffer</text>
</a>
</g>
</g>
<!-- Node12&#45;&gt;Node14 -->
<g id="edge13" class="edge">
<title>Node12&#45;&gt;Node14</title>
<path fill="none" stroke="#63b8ff" d="M344.88,-461C350.36,-463.56 355.42,-467 359.25,-471.62 433.68,-561.45 319.68,-642.75 395.25,-731.62 400.33,-737.6 407.36,-741.63 414.77,-744.33"/>
<polygon fill="#63b8ff" stroke="#63b8ff" points="346.32,-457.44 335.73,-457.28 343.91,-464.01 346.32,-457.44"/>
</g>
<!-- Node15 -->
<g id="node15" class="node">
<title>Node15</title>
<g id="a_node15"><a xlink:href="classv8_1_1ArrayBufferView.html" target="_top" xlink:title=" ">
<polygon fill="white" stroke="#666666" points="505,-722.25 404.25,-722.25 404.25,-703 505,-703 505,-722.25"/>
<text text-anchor="middle" x="454.62" y="-708.75" font-family="Helvetica,sans-Serif" font-size="10.00">v8::ArrayBufferView</text>
</a>
</g>
</g>
<!-- Node12&#45;&gt;Node15 -->
<g id="edge14" class="edge">
<title>Node12&#45;&gt;Node15</title>
<path fill="none" stroke="#63b8ff" d="M344.96,-461.16C350.39,-463.7 355.41,-467.09 359.25,-471.62 424.17,-548.21 329.36,-618.88 395.25,-694.62 398.03,-697.83 401.37,-700.47 405.03,-702.64"/>
<polygon fill="#63b8ff" stroke="#63b8ff" points="346.51,-457.63 335.91,-457.44 344.08,-464.19 346.51,-457.63"/>
</g>
<!-- Node29 -->
<g id="node27" class="node">
<title>Node29</title>
<g id="a_node27"><a xlink:href="classv8_1_1BigIntObject.html" target="_top" xlink:title=" ">
<polygon fill="white" stroke="#666666" points="497.12,-685.25 412.12,-685.25 412.12,-666 497.12,-666 497.12,-685.25"/>
<text text-anchor="middle" x="454.62" y="-671.75" font-family="Helvetica,sans-Serif" font-size="10.00">v8::BigIntObject</text>
</a>
</g>
</g>
<!-- Node12&#45;&gt;Node29 -->
<g id="edge26" class="edge">
<title>Node12&#45;&gt;Node29</title>
<path fill="none" stroke="#63b8ff" d="M344.83,-461.26C350.28,-463.79 355.34,-467.15 359.25,-471.62 414.69,-535 339.01,-594.96 395.25,-657.62 399.71,-662.6 405.51,-666.21 411.73,-668.84"/>
<polygon fill="#63b8ff" stroke="#63b8ff" points="346.38,-457.73 335.78,-457.55 343.95,-464.3 346.38,-457.73"/>
</g>
<!-- Node30 -->
<g id="node28" class="node">
<title>Node30</title>
<g id="a_node28"><a xlink:href="classv8_1_1BooleanObject.html" target="_top" xlink:title=" ">
<polygon fill="white" stroke="#666666" points="502,-648.25 407.25,-648.25 407.25,-629 502,-629 502,-648.25"/>
<text text-anchor="middle" x="454.62" y="-634.75" font-family="Helvetica,sans-Serif" font-size="10.00">v8::BooleanObject</text>
</a>
</g>
</g>
<!-- Node12&#45;&gt;Node30 -->
<g id="edge27" class="edge">
<title>Node12&#45;&gt;Node30</title>
<path fill="none" stroke="#63b8ff" d="M344.83,-461.5C350.23,-464 355.28,-467.29 359.25,-471.62 405.27,-521.86 348.59,-570.98 395.25,-620.62 398.59,-624.18 402.62,-627.04 406.97,-629.34"/>
<polygon fill="#63b8ff" stroke="#63b8ff" points="346.47,-458 335.87,-457.8 344.03,-464.56 346.47,-458"/>
</g>
<!-- Node31 -->
<g id="node29" class="node">
<title>Node31</title>
<g id="a_node29"><a xlink:href="classv8_1_1Date.html" target="_top" xlink:title=" ">
<polygon fill="white" stroke="#666666" points="480.25,-611.25 429,-611.25 429,-592 480.25,-592 480.25,-611.25"/>
<text text-anchor="middle" x="454.62" y="-597.75" font-family="Helvetica,sans-Serif" font-size="10.00">v8::Date</text>
</a>
</g>
</g>
<!-- Node12&#45;&gt;Node31 -->
<g id="edge28" class="edge">
<title>Node12&#45;&gt;Node31</title>
<path fill="none" stroke="#63b8ff" d="M345.12,-462.02C350.35,-464.45 355.27,-467.59 359.25,-471.62 395.97,-508.85 358.06,-546.87 395.25,-583.62 404.15,-592.42 417.25,-596.93 428.78,-599.24"/>
<polygon fill="#63b8ff" stroke="#63b8ff" points="346.45,-458.41 335.86,-458.16 343.99,-464.96 346.45,-458.41"/>
</g>
<!-- Node32 -->
<g id="node30" class="node">
<title>Node32</title>
<g id="a_node30"><a xlink:href="classv8_1_1Function.html" target="_top" xlink:title=" ">
<polygon fill="white" stroke="#666666" points="488.88,-574.25 420.38,-574.25 420.38,-555 488.88,-555 488.88,-574.25"/>
<text text-anchor="middle" x="454.62" y="-560.75" font-family="Helvetica,sans-Serif" font-size="10.00">v8::Function</text>
</a>
</g>
</g>
<!-- Node12&#45;&gt;Node32 -->
<g id="edge29" class="edge">
<title>Node12&#45;&gt;Node32</title>
<path fill="none" stroke="#63b8ff" d="M344.98,-462.68C350.15,-465.01 355.09,-467.95 359.25,-471.62 386.95,-496.11 367.24,-522.49 395.25,-546.62 402.24,-552.65 411.22,-556.66 420.03,-559.32"/>
<polygon fill="#63b8ff" stroke="#63b8ff" points="346.49,-459.13 335.89,-458.88 344.02,-465.68 346.49,-459.13"/>
</g>
<!-- Node33 -->
<g id="node31" class="node">
<title>Node33</title>
<g id="a_node31"><a xlink:href="classv8_1_1Map.html" target="_top" xlink:title=" ">
<polygon fill="white" stroke="#666666" points="479.5,-537.25 429.75,-537.25 429.75,-518 479.5,-518 479.5,-537.25"/>
<text text-anchor="middle" x="454.62" y="-523.75" font-family="Helvetica,sans-Serif" font-size="10.00">v8::Map</text>
</a>
</g>
</g>
<!-- Node12&#45;&gt;Node33 -->
<g id="edge30" class="edge">
<title>Node12&#45;&gt;Node33</title>
<path fill="none" stroke="#63b8ff" d="M345.11,-464.37C350.04,-466.43 354.89,-468.84 359.25,-471.62 378.86,-484.15 375.49,-497.35 395.25,-509.62 405.61,-516.06 418.44,-520.35 429.44,-523.11"/>
<polygon fill="#63b8ff" stroke="#63b8ff" points="346.56,-460.81 335.96,-460.62 344.13,-467.37 346.56,-460.81"/>
</g>
<!-- Node34 -->
<g id="node32" class="node">
<title>Node34</title>
<g id="a_node32"><a xlink:href="classv8_1_1NumberObject.html" target="_top" xlink:title=" ">
<polygon fill="white" stroke="#666666" points="501.62,-500.25 407.62,-500.25 407.62,-481 501.62,-481 501.62,-500.25"/>
<text text-anchor="middle" x="454.62" y="-486.75" font-family="Helvetica,sans-Serif" font-size="10.00">v8::NumberObject</text>
</a>
</g>
</g>
<!-- Node12&#45;&gt;Node34 -->
<g id="edge31" class="edge">
<title>Node12&#45;&gt;Node34</title>
<path fill="none" stroke="#63b8ff" d="M345.47,-463.56C366.46,-468.82 392.18,-475.25 413.28,-480.53"/>
<polygon fill="#63b8ff" stroke="#63b8ff" points="346.52,-459.97 335.97,-460.94 344.82,-466.76 346.52,-459.97"/>
</g>
<!-- Node35 -->
<g id="node33" class="node">
<title>Node35</title>
<g id="a_node33"><a xlink:href="classv8_1_1Promise.html" target="_top" xlink:title=" ">
<polygon fill="white" stroke="#666666" points="488.12,-463.25 421.12,-463.25 421.12,-444 488.12,-444 488.12,-463.25"/>
<text text-anchor="middle" x="454.62" y="-449.75" font-family="Helvetica,sans-Serif" font-size="10.00">v8::Promise</text>
</a>
</g>
</g>
<!-- Node12&#45;&gt;Node35 -->
<g id="edge32" class="edge">
<title>Node12&#45;&gt;Node35</title>
<path fill="none" stroke="#63b8ff" d="M345.66,-453.62C369.22,-453.62 398.68,-453.62 420.87,-453.62"/>
<polygon fill="#63b8ff" stroke="#63b8ff" points="345.97,-450.13 335.97,-453.62 345.97,-457.13 345.97,-450.13"/>
</g>
<!-- Node36 -->
<g id="node34" class="node">
<title>Node36</title>
<g id="a_node34"><a xlink:href="classv8_1_1Promise_1_1Resolver.html" target="_top" xlink:title=" ">
<polygon fill="white" stroke="#666666" points="509.5,-426.25 399.75,-426.25 399.75,-407 509.5,-407 509.5,-426.25"/>
<text text-anchor="middle" x="454.62" y="-412.75" font-family="Helvetica,sans-Serif" font-size="10.00">v8::Promise::Resolver</text>
</a>
</g>
</g>
<!-- Node12&#45;&gt;Node36 -->
<g id="edge33" class="edge">
<title>Node12&#45;&gt;Node36</title>
<path fill="none" stroke="#63b8ff" d="M345.47,-443.69C366.46,-438.43 392.18,-432 413.28,-426.72"/>
<polygon fill="#63b8ff" stroke="#63b8ff" points="344.82,-440.49 335.97,-446.31 346.52,-447.28 344.82,-440.49"/>
</g>
<!-- Node37 -->
<g id="node35" class="node">
<title>Node37</title>
<g id="a_node35"><a xlink:href="classv8_1_1Proxy.html" target="_top" xlink:title=" ">
<polygon fill="white" stroke="#666666" points="482.12,-389.25 427.12,-389.25 427.12,-370 482.12,-370 482.12,-389.25"/>
<text text-anchor="middle" x="454.62" y="-375.75" font-family="Helvetica,sans-Serif" font-size="10.00">v8::Proxy</text>
</a>
</g>
</g>
<!-- Node12&#45;&gt;Node37 -->
<g id="edge34" class="edge">
<title>Node12&#45;&gt;Node37</title>
<path fill="none" stroke="#63b8ff" d="M328.27,-437.22C345.83,-425.02 371.2,-408.63 395.25,-397.62 405.18,-393.08 416.57,-389.28 426.64,-386.36"/>
<polygon fill="#63b8ff" stroke="#63b8ff" points="326.52,-434.88 320.37,-443.52 330.56,-440.6 326.52,-434.88"/>
</g>
<!-- Node38 -->
<g id="node36" class="node">
<title>Node38</title>
<g id="a_node36"><a xlink:href="classv8_1_1RegExp.html" target="_top" xlink:title=" ">
<polygon fill="white" stroke="#666666" points="486.62,-352.25 422.62,-352.25 422.62,-333 486.62,-333 486.62,-352.25"/>
<text text-anchor="middle" x="454.62" y="-338.75" font-family="Helvetica,sans-Serif" font-size="10.00">v8::RegExp</text>
</a>
</g>
</g>
<!-- Node12&#45;&gt;Node38 -->
<g id="edge35" class="edge">
<title>Node12&#45;&gt;Node38</title>
<path fill="none" stroke="#63b8ff" d="M319.02,-434.97C334.88,-413.99 363.31,-380.29 395.25,-360.62 403.47,-355.57 413.22,-351.83 422.38,-349.11"/>
<polygon fill="#63b8ff" stroke="#63b8ff" points="315.76,-432.49 312.65,-442.62 321.4,-436.64 315.76,-432.49"/>
</g>
<!-- Node39 -->
<g id="node37" class="node">
<title>Node39</title>
<g id="a_node37"><a xlink:href="classv8_1_1Set.html" target="_top" xlink:title=" ">
<polygon fill="white" stroke="#666666" points="477.62,-315.25 431.62,-315.25 431.62,-296 477.62,-296 477.62,-315.25"/>
<text text-anchor="middle" x="454.62" y="-301.75" font-family="Helvetica,sans-Serif" font-size="10.00">v8::Set</text>
</a>
</g>
</g>
<!-- Node12&#45;&gt;Node39 -->
<g id="edge36" class="edge">
<title>Node12&#45;&gt;Node39</title>
<path fill="none" stroke="#63b8ff" d="M314.2,-433.82C327.37,-405.28 355.48,-352.84 395.25,-323.62 405.76,-315.9 419.65,-311.45 431.24,-308.9"/>
<polygon fill="#63b8ff" stroke="#63b8ff" points="310.62,-432.25 309.75,-442.81 317.02,-435.1 310.62,-432.25"/>
</g>
<!-- Node40 -->
<g id="node38" class="node">
<title>Node40</title>
<g id="a_node38"><a xlink:href="classv8_1_1SharedArrayBuffer.html" target="_top" xlink:title=" ">
<polygon fill="white" stroke="#666666" points="509.5,-278.25 399.75,-278.25 399.75,-259 509.5,-259 509.5,-278.25"/>
<text text-anchor="middle" x="454.62" y="-264.75" font-family="Helvetica,sans-Serif" font-size="10.00">v8::SharedArrayBuffer</text>
</a>
</g>
</g>
<!-- Node12&#45;&gt;Node40 -->
<g id="edge37" class="edge">
<title>Node12&#45;&gt;Node40</title>
<path fill="none" stroke="#63b8ff" d="M311.12,-433.23C321.44,-398.09 347.34,-326.08 395.25,-286.62 399.1,-283.46 403.5,-280.84 408.12,-278.69"/>
<polygon fill="#63b8ff" stroke="#63b8ff" points="307.54,-432.07 308.22,-442.64 314.28,-433.95 307.54,-432.07"/>
</g>
<!-- Node41 -->
<g id="node39" class="node">
<title>Node41</title>
<g id="a_node39"><a xlink:href="classv8_1_1StringObject.html" target="_top" xlink:title=" ">
<polygon fill="white" stroke="#666666" points="497.12,-241.25 412.12,-241.25 412.12,-222 497.12,-222 497.12,-241.25"/>
<text text-anchor="middle" x="454.62" y="-227.75" font-family="Helvetica,sans-Serif" font-size="10.00">v8::StringObject</text>
</a>
</g>
</g>
<!-- Node12&#45;&gt;Node41 -->
<g id="edge38" class="edge">
<title>Node12&#45;&gt;Node41</title>
<path fill="none" stroke="#63b8ff" d="M308.96,-433.11C316.44,-392.16 338.89,-299.89 395.25,-249.62 400,-245.39 405.73,-242.15 411.72,-239.67"/>
<polygon fill="#63b8ff" stroke="#63b8ff" points="305.35,-432.42 307.13,-442.86 312.25,-433.59 305.35,-432.42"/>
</g>
<!-- Node42 -->
<g id="node40" class="node">
<title>Node42</title>
<g id="a_node40"><a xlink:href="classv8_1_1SymbolObject.html" target="_top" xlink:title=" ">
<polygon fill="white" stroke="#666666" points="500.5,-204.25 408.75,-204.25 408.75,-185 500.5,-185 500.5,-204.25"/>
<text text-anchor="middle" x="454.62" y="-190.75" font-family="Helvetica,sans-Serif" font-size="10.00">v8::SymbolObject</text>
</a>
</g>
</g>
<!-- Node12&#45;&gt;Node42 -->
<g id="edge39" class="edge">
<title>Node12&#45;&gt;Node42</title>
<path fill="none" stroke="#63b8ff" d="M307.4,-432.96C312.22,-386.68 330.34,-273.97 395.25,-212.62 399.03,-209.06 403.5,-206.19 408.26,-203.9"/>
<polygon fill="#63b8ff" stroke="#63b8ff" points="303.85,-432.41 306.41,-442.69 310.82,-433.06 303.85,-432.41"/>
</g>
<!-- Node43 -->
<g id="node41" class="node">
<title>Node43</title>
<g id="a_node41"><a xlink:href="classv8_1_1WasmModuleObject.html" target="_top" xlink:title=" ">
<polygon fill="white" stroke="#666666" points="514,-167.25 395.25,-167.25 395.25,-148 514,-148 514,-167.25"/>
<text text-anchor="middle" x="454.62" y="-153.75" font-family="Helvetica,sans-Serif" font-size="10.00">v8::WasmModuleObject</text>
</a>
</g>
</g>
<!-- Node12&#45;&gt;Node43 -->
<g id="edge40" class="edge">
<title>Node12&#45;&gt;Node43</title>
<path fill="none" stroke="#63b8ff" d="M306.23,-432.65C308.56,-381.3 321.77,-248.21 395.25,-175.62 398.49,-172.42 402.3,-169.78 406.38,-167.62"/>
<polygon fill="#63b8ff" stroke="#63b8ff" points="302.7,-432.49 305.85,-442.6 309.69,-432.73 302.7,-432.49"/>
</g>
<!-- Node16 -->
<g id="node16" class="node">
<title>Node16</title>
<g id="a_node16"><a xlink:href="classv8_1_1DataView.html" target="_top" xlink:title=" ">
<polygon fill="white" stroke="#666666" points="626.38,-740.25 553.38,-740.25 553.38,-721 626.38,-721 626.38,-740.25"/>
<text text-anchor="middle" x="589.88" y="-726.75" font-family="Helvetica,sans-Serif" font-size="10.00">v8::DataView</text>
</a>
</g>
</g>
<!-- Node15&#45;&gt;Node16 -->
<g id="edge15" class="edge">
<title>Node15&#45;&gt;Node16</title>
<path fill="none" stroke="#63b8ff" d="M515.79,-720.75C528.48,-722.47 541.49,-724.22 552.95,-725.77"/>
<polygon fill="#63b8ff" stroke="#63b8ff" points="516.62,-717.2 506.24,-719.33 515.68,-724.13 516.62,-717.2"/>
</g>
<!-- Node17 -->
<g id="node17" class="node">
<title>Node17</title>
<g id="a_node17"><a xlink:href="classv8_1_1TypedArray.html" target="_top" xlink:title=" ">
<polygon fill="#fff0f0" stroke="red" points="629.75,-703.25 550,-703.25 550,-684 629.75,-684 629.75,-703.25"/>
<text text-anchor="middle" x="589.88" y="-689.75" font-family="Helvetica,sans-Serif" font-size="10.00">v8::TypedArray</text>
</a>
</g>
</g>
<!-- Node15&#45;&gt;Node17 -->
<g id="edge16" class="edge">
<title>Node15&#45;&gt;Node17</title>
<path fill="none" stroke="#63b8ff" d="M516.05,-704.01C527.45,-702.38 539.09,-700.72 549.62,-699.22"/>
<polygon fill="#63b8ff" stroke="#63b8ff" points="515.65,-700.67 506.24,-705.55 516.64,-707.6 515.65,-700.67"/>
</g>
<!-- Node18 -->
<g id="node18" class="node">
<title>Node18</title>
<g id="a_node18"><a xlink:href="classv8_1_1BigInt64Array.html" target="_top" xlink:title=" ">
<polygon fill="white" stroke="#666666" points="758.62,-851.25 669.12,-851.25 669.12,-832 758.62,-832 758.62,-851.25"/>
<text text-anchor="middle" x="713.88" y="-837.75" font-family="Helvetica,sans-Serif" font-size="10.00">v8::BigInt64Array</text>
</a>
</g>
</g>
<!-- Node17&#45;&gt;Node18 -->
<g id="edge17" class="edge">
<title>Node17&#45;&gt;Node18</title>
<path fill="none" stroke="#63b8ff" d="M628.41,-710.2C628.87,-710.66 629.32,-711.14 629.75,-711.62 664.39,-750.79 629.79,-785.67 665.75,-823.62 668.76,-826.8 672.39,-829.43 676.29,-831.59"/>
<polygon fill="#63b8ff" stroke="#63b8ff" points="631,-707.01 620.93,-703.7 626.74,-712.56 631,-707.01"/>
</g>
<!-- Node19 -->
<g id="node19" class="node">
<title>Node19</title>
<g id="a_node19"><a xlink:href="classv8_1_1BigUint64Array.html" target="_top" xlink:title=" ">
<polygon fill="white" stroke="#666666" points="762,-814.25 665.75,-814.25 665.75,-795 762,-795 762,-814.25"/>
<text text-anchor="middle" x="713.88" y="-800.75" font-family="Helvetica,sans-Serif" font-size="10.00">v8::BigUint64Array</text>
</a>
</g>
</g>
<!-- Node17&#45;&gt;Node19 -->
<g id="edge18" class="edge">
<title>Node17&#45;&gt;Node19</title>
<path fill="none" stroke="#63b8ff" d="M627.58,-709.64C628.33,-710.28 629.05,-710.94 629.75,-711.62 656.08,-737.59 638.55,-761.58 665.75,-786.62 669.23,-789.83 673.34,-792.48 677.65,-794.67"/>
<polygon fill="#63b8ff" stroke="#63b8ff" points="629.99,-706.36 619.76,-703.61 626.04,-712.14 629.99,-706.36"/>
</g>
<!-- Node20 -->
<g id="node20" class="node">
<title>Node20</title>
<g id="a_node20"><a xlink:href="classv8_1_1Float32Array.html" target="_top" xlink:title=" ">
<polygon fill="white" stroke="#666666" points="756.75,-777.25 671,-777.25 671,-758 756.75,-758 756.75,-777.25"/>
<text text-anchor="middle" x="713.88" y="-763.75" font-family="Helvetica,sans-Serif" font-size="10.00">v8::Float32Array</text>
</a>
</g>
</g>
<!-- Node17&#45;&gt;Node20 -->
<g id="edge19" class="edge">
<title>Node17&#45;&gt;Node20</title>
<path fill="none" stroke="#63b8ff" d="M625.75,-708.95C627.13,-709.81 628.47,-710.7 629.75,-711.62 648.64,-725.2 646.4,-736.71 665.75,-749.62 670.41,-752.74 675.69,-755.42 680.98,-757.69"/>
<polygon fill="#63b8ff" stroke="#63b8ff" points="627.77,-705.51 617.33,-703.72 624.38,-711.63 627.77,-705.51"/>
</g>
<!-- Node21 -->
<g id="node21" class="node">
<title>Node21</title>
<g id="a_node21"><a xlink:href="classv8_1_1Float64Array.html" target="_top" xlink:title=" ">
<polygon fill="white" stroke="#666666" points="756.75,-740.25 671,-740.25 671,-721 756.75,-721 756.75,-740.25"/>
<text text-anchor="middle" x="713.88" y="-726.75" font-family="Helvetica,sans-Serif" font-size="10.00">v8::Float64Array</text>
</a>
</g>
</g>
<!-- Node17&#45;&gt;Node21 -->
<g id="edge20" class="edge">
<title>Node17&#45;&gt;Node21</title>
<path fill="none" stroke="#63b8ff" d="M634.67,-706.91C649.46,-711.39 665.73,-716.33 679.58,-720.53"/>
<polygon fill="#63b8ff" stroke="#63b8ff" points="635.8,-703.29 625.21,-703.74 633.77,-709.99 635.8,-703.29"/>
</g>
<!-- Node22 -->
<g id="node22" class="node">
<title>Node22</title>
<g id="a_node22"><a xlink:href="classv8_1_1Int16Array.html" target="_top" xlink:title=" ">
<polygon fill="white" stroke="#666666" points="751.5,-703.25 676.25,-703.25 676.25,-684 751.5,-684 751.5,-703.25"/>
<text text-anchor="middle" x="713.88" y="-689.75" font-family="Helvetica,sans-Serif" font-size="10.00">v8::Int16Array</text>
</a>
</g>
</g>
<!-- Node17&#45;&gt;Node22 -->
<g id="edge21" class="edge">
<title>Node17&#45;&gt;Node22</title>
<path fill="none" stroke="#63b8ff" d="M641.06,-693.62C652.67,-693.62 664.82,-693.62 675.75,-693.62"/>
<polygon fill="#63b8ff" stroke="#63b8ff" points="641.15,-690.13 631.15,-693.62 641.15,-697.13 641.15,-690.13"/>
</g>
<!-- Node23 -->
<g id="node23" class="node">
<title>Node23</title>
<g id="a_node23"><a xlink:href="classv8_1_1Int32Array.html" target="_top" xlink:title=" ">
<polygon fill="white" stroke="#666666" points="751.5,-666.25 676.25,-666.25 676.25,-647 751.5,-647 751.5,-666.25"/>
<text text-anchor="middle" x="713.88" y="-652.75" font-family="Helvetica,sans-Serif" font-size="10.00">v8::Int32Array</text>
</a>
</g>
</g>
<!-- Node17&#45;&gt;Node23 -->
<g id="edge22" class="edge">
<title>Node17&#45;&gt;Node23</title>
<path fill="none" stroke="#63b8ff" d="M634.67,-680.34C649.46,-675.86 665.73,-670.92 679.58,-666.72"/>
<polygon fill="#63b8ff" stroke="#63b8ff" points="633.77,-677.26 625.21,-683.51 635.8,-683.96 633.77,-677.26"/>
</g>
<!-- Node24 -->
<g id="node24" class="node">
<title>Node24</title>
<g id="a_node24"><a xlink:href="classv8_1_1Int8Array.html" target="_top" xlink:title=" ">
<polygon fill="white" stroke="#666666" points="748.88,-629.25 678.88,-629.25 678.88,-610 748.88,-610 748.88,-629.25"/>
<text text-anchor="middle" x="713.88" y="-615.75" font-family="Helvetica,sans-Serif" font-size="10.00">v8::Int8Array</text>
</a>
</g>
</g>
<!-- Node17&#45;&gt;Node24 -->
<g id="edge23" class="edge">
<title>Node17&#45;&gt;Node24</title>
<path fill="none" stroke="#63b8ff" d="M610.05,-676.93C624.6,-664.86 645.5,-648.78 665.75,-637.62 671.12,-634.67 677.08,-631.98 682.9,-629.64"/>
<polygon fill="#63b8ff" stroke="#63b8ff" points="608.25,-674.72 602.87,-683.85 612.77,-680.06 608.25,-674.72"/>
</g>
<!-- Node25 -->
<g id="node25" class="node">
<title>Node25</title>
<g id="a_node25"><a xlink:href="classv8_1_1Uint16Array.html" target="_top" xlink:title=" ">
<polygon fill="white" stroke="#666666" points="754.88,-592.25 672.88,-592.25 672.88,-573 754.88,-573 754.88,-592.25"/>
<text text-anchor="middle" x="713.88" y="-578.75" font-family="Helvetica,sans-Serif" font-size="10.00">v8::Uint16Array</text>
</a>
</g>
</g>
<!-- Node17&#45;&gt;Node25 -->
<g id="edge24" class="edge">
<title>Node17&#45;&gt;Node25</title>
<path fill="none" stroke="#63b8ff" d="M602.02,-674.39C614.95,-653.6 638.07,-620.76 665.75,-600.62 670,-597.53 674.85,-594.9 679.78,-592.69"/>
<polygon fill="#63b8ff" stroke="#63b8ff" points="598.53,-672.4 596.37,-682.78 604.53,-676.02 598.53,-672.4"/>
</g>
<!-- Node26 -->
<g id="node26" class="node">
<title>Node26</title>
<g id="a_node26"><a xlink:href="classv8_1_1Uint32Array.html" target="_top" xlink:title=" ">
<polygon fill="white" stroke="#666666" points="754.88,-555.25 672.88,-555.25 672.88,-536 754.88,-536 754.88,-555.25"/>
<text text-anchor="middle" x="713.88" y="-541.75" font-family="Helvetica,sans-Serif" font-size="10.00">v8::Uint32Array</text>
</a>
</g>
</g>
<!-- Node17&#45;&gt;Node26 -->
<g id="edge25" class="edge">
<title>Node17&#45;&gt;Node26</title>
<path fill="none" stroke="#63b8ff" d="M597.6,-673.36C607.96,-645.06 630.41,-593.79 665.75,-563.62 669.48,-560.44 673.83,-557.79 678.36,-555.59"/>
<polygon fill="#63b8ff" stroke="#63b8ff" points="594,-672.03 594,-682.63 600.61,-674.35 594,-672.03"/>
</g>
<!-- Node45 -->
<g id="node43" class="node">
<title>Node45</title>
<g id="a_node43"><a xlink:href="classv8_1_1BigInt.html" target="_top" xlink:title=" ">
<polygon fill="white" stroke="#666666" points="482.88,-130.25 426.38,-130.25 426.38,-111 482.88,-111 482.88,-130.25"/>
<text text-anchor="middle" x="454.62" y="-116.75" font-family="Helvetica,sans-Serif" font-size="10.00">v8::BigInt</text>
</a>
</g>
</g>
<!-- Node44&#45;&gt;Node45 -->
<g id="edge42" class="edge">
<title>Node44&#45;&gt;Node45</title>
<path fill="none" stroke="#63b8ff" d="M350.27,-94.76C375,-100.95 404.99,-108.46 426.28,-113.78"/>
<polygon fill="#63b8ff" stroke="#63b8ff" points="351.23,-91.15 340.68,-92.11 349.53,-97.94 351.23,-91.15"/>
</g>
<!-- Node46 -->
<g id="node44" class="node">
<title>Node46</title>
<g id="a_node44"><a xlink:href="classv8_1_1Boolean.html" target="_top" xlink:title=" ">
<polygon fill="white" stroke="#666666" points="487.75,-93.25 421.5,-93.25 421.5,-74 487.75,-74 487.75,-93.25"/>
<text text-anchor="middle" x="454.62" y="-79.75" font-family="Helvetica,sans-Serif" font-size="10.00">v8::Boolean</text>
</a>
</g>
</g>
<!-- Node44&#45;&gt;Node46 -->
<g id="edge43" class="edge">
<title>Node44&#45;&gt;Node46</title>
<path fill="none" stroke="#63b8ff" d="M350.45,-83.62C373.21,-83.62 400.38,-83.62 421.13,-83.62"/>
<polygon fill="#63b8ff" stroke="#63b8ff" points="350.68,-80.13 340.68,-83.62 350.68,-87.13 350.68,-80.13"/>
</g>
<!-- Node47 -->
<g id="node45" class="node">
<title>Node47</title>
<g id="a_node45"><a xlink:href="classv8_1_1Name.html" target="_top" xlink:title=" ">
<polygon fill="white" stroke="#666666" points="483.25,-56.25 426,-56.25 426,-37 483.25,-37 483.25,-56.25"/>
<text text-anchor="middle" x="454.62" y="-42.75" font-family="Helvetica,sans-Serif" font-size="10.00">v8::Name</text>
</a>
</g>
</g>
<!-- Node44&#45;&gt;Node47 -->
<g id="edge44" class="edge">
<title>Node44&#45;&gt;Node47</title>
<path fill="none" stroke="#63b8ff" d="M350.2,-72.5C374.76,-66.36 404.52,-58.91 425.8,-53.59"/>
<polygon fill="#63b8ff" stroke="#63b8ff" points="349.53,-69.31 340.68,-75.14 351.23,-76.1 349.53,-69.31"/>
</g>
<!-- Node50 -->
<g id="node48" class="node">
<title>Node50</title>
<g id="a_node48"><a xlink:href="classv8_1_1Number.html" target="_top" xlink:title=" ">
<polygon fill="white" stroke="#666666" points="487.38,-19.25 421.88,-19.25 421.88,0 487.38,0 487.38,-19.25"/>
<text text-anchor="middle" x="454.62" y="-5.75" font-family="Helvetica,sans-Serif" font-size="10.00">v8::Number</text>
</a>
</g>
</g>
<!-- Node44&#45;&gt;Node50 -->
<g id="edge47" class="edge">
<title>Node44&#45;&gt;Node50</title>
<path fill="none" stroke="#63b8ff" d="M328.27,-67.22C345.83,-55.02 371.2,-38.63 395.25,-27.62 403.54,-23.83 412.85,-20.55 421.56,-17.88"/>
<polygon fill="#63b8ff" stroke="#63b8ff" points="326.52,-64.88 320.37,-73.52 330.56,-70.6 326.52,-64.88"/>
</g>
<!-- Node48 -->
<g id="node46" class="node">
<title>Node48</title>
<g id="a_node46"><a xlink:href="classv8_1_1String.html" target="_top" xlink:title=" ">
<polygon fill="white" stroke="#666666" points="618.12,-93.25 561.62,-93.25 561.62,-74 618.12,-74 618.12,-93.25"/>
<text text-anchor="middle" x="589.88" y="-79.75" font-family="Helvetica,sans-Serif" font-size="10.00">v8::String</text>
</a>
</g>
</g>
<!-- Node47&#45;&gt;Node48 -->
<g id="edge45" class="edge">
<title>Node47&#45;&gt;Node48</title>
<path fill="none" stroke="#63b8ff" d="M494.01,-57.28C515.57,-63.27 541.96,-70.6 561.43,-76.01"/>
<polygon fill="#63b8ff" stroke="#63b8ff" points="495.13,-53.68 484.56,-54.38 493.26,-60.43 495.13,-53.68"/>
</g>
<!-- Node49 -->
<g id="node47" class="node">
<title>Node49</title>
<g id="a_node47"><a xlink:href="classv8_1_1Symbol.html" target="_top" xlink:title=" ">
<polygon fill="white" stroke="#666666" points="621.5,-56.25 558.25,-56.25 558.25,-37 621.5,-37 621.5,-56.25"/>
<text text-anchor="middle" x="589.88" y="-42.75" font-family="Helvetica,sans-Serif" font-size="10.00">v8::Symbol</text>
</a>
</g>
</g>
<!-- Node47&#45;&gt;Node49 -->
<g id="edge46" class="edge">
<title>Node47&#45;&gt;Node49</title>
<path fill="none" stroke="#63b8ff" d="M494.35,-46.62C514.66,-46.62 539.2,-46.62 558.19,-46.62"/>
<polygon fill="#63b8ff" stroke="#63b8ff" points="494.56,-43.13 484.56,-46.62 494.56,-50.13 494.56,-43.13"/>
</g>
<!-- Node51 -->
<g id="node49" class="node">
<title>Node51</title>
<g id="a_node49"><a xlink:href="classv8_1_1Integer.html" target="_top" xlink:title=" ">
<polygon fill="#fff0f0" stroke="red" points="620.38,-19.25 559.38,-19.25 559.38,0 620.38,0 620.38,-19.25"/>
<text text-anchor="middle" x="589.88" y="-5.75" font-family="Helvetica,sans-Serif" font-size="10.00">v8::Integer</text>
</a>
</g>
</g>
<!-- Node50&#45;&gt;Node51 -->
<g id="edge48" class="edge">
<title>Node50&#45;&gt;Node51</title>
<path fill="none" stroke="#63b8ff" d="M498.44,-9.62C518.21,-9.62 541.19,-9.62 559.04,-9.62"/>
<polygon fill="#63b8ff" stroke="#63b8ff" points="498.54,-6.13 488.54,-9.62 498.54,-13.13 498.54,-6.13"/>
</g>
</g>
</svg>
