<?xml version="1.0" encoding="UTF-8" standalone="no"?>
<!DOCTYPE svg PUBLIC "-//W3C//DTD SVG 1.1//EN"
 "http://www.w3.org/Graphics/SVG/1.1/DTD/svg11.dtd">
<!-- Generated by graphviz version 8.0.5 (20230430.1635)
 -->
<!-- Title: cppgc::internal::GarbageCollectedBase Pages: 1 -->
<svg width="296pt" height="105pt"
 viewBox="0.00 0.00 296.25 105.00" xmlns="http://www.w3.org/2000/svg" xmlns:xlink="http://www.w3.org/1999/xlink">
<g id="graph0" class="graph" transform="scale(1 1) rotate(0) translate(4 101)">
<title>cppgc::internal::GarbageCollectedBase</title>
<!-- Node1 -->
<g id="node1" class="node">
<title>Node1</title>
<g id="a_node1"><a xlink:title=" ">
<polygon fill="#999999" stroke="#666666" points="197.75,-97 78.25,-97 78.25,-66.5 197.75,-66.5 197.75,-97"/>
<text text-anchor="start" x="86.25" y="-83.5" font-family="Helvetica,sans-Serif" font-size="10.00">cppgc::internal::Garbage</text>
<text text-anchor="middle" x="138" y="-72.25" font-family="Helvetica,sans-Serif" font-size="10.00">CollectedBase</text>
</a>
</g>
</g>
<!-- Node2 -->
<g id="node2" class="node">
<title>Node2</title>
<g id="a_node2"><a xlink:href="classcppgc_1_1GarbageCollected.html" target="_top" xlink:title=" ">
<polygon fill="white" stroke="#666666" points="124,-30.5 0,-30.5 0,0 124,0 124,-30.5"/>
<text text-anchor="start" x="8" y="-17" font-family="Helvetica,sans-Serif" font-size="10.00">cppgc::GarbageCollected</text>
<text text-anchor="middle" x="62" y="-5.75" font-family="Helvetica,sans-Serif" font-size="10.00">&lt; typename &gt;</text>
</a>
</g>
</g>
<!-- Node1&#45;&gt;Node2 -->
<g id="edge1" class="edge">
<title>Node1&#45;&gt;Node2</title>
<path fill="none" stroke="#63b8ff" d="M112.39,-59.02C101.46,-49.73 88.98,-39.15 79.18,-30.83"/>
<polygon fill="#63b8ff" stroke="#63b8ff" points="109.87,-62.31 119.75,-66.11 114.39,-56.97 109.87,-62.31"/>
</g>
<!-- Node3 -->
<g id="node3" class="node">
<title>Node3</title>
<g id="a_node3"><a xlink:href="classcppgc_1_1GarbageCollectedMixin.html" target="_top" xlink:title=" ">
<polygon fill="white" stroke="#666666" points="288.25,-24.88 141.75,-24.88 141.75,-5.63 288.25,-5.63 288.25,-24.88"/>
<text text-anchor="middle" x="215" y="-11.38" font-family="Helvetica,sans-Serif" font-size="10.00">cppgc::GarbageCollectedMixin</text>
</a>
</g>
</g>
<!-- Node1&#45;&gt;Node3 -->
<g id="edge2" class="edge">
<title>Node1&#45;&gt;Node3</title>
<path fill="none" stroke="#63b8ff" d="M163.73,-59.2C177.62,-47.56 194.03,-33.82 204.47,-25.07"/>
<polygon fill="#63b8ff" stroke="#63b8ff" points="161.89,-57.01 156.47,-66.11 166.39,-62.38 161.89,-57.01"/>
</g>
</g>
</svg>
