<?xml version="1.0" encoding="UTF-8" standalone="no"?>
<!DOCTYPE svg PUBLIC "-//W3C//DTD SVG 1.1//EN"
 "http://www.w3.org/Graphics/SVG/1.1/DTD/svg11.dtd">
<!-- Generated by graphviz version 8.0.5 (20230430.1635)
 -->
<!-- Title: v8::PersistentValueMapBase::Remove Pages: 1 -->
<svg width="504pt" height="125pt"
 viewBox="0.00 0.00 503.75 124.88" xmlns="http://www.w3.org/2000/svg" xmlns:xlink="http://www.w3.org/1999/xlink">
<g id="graph0" class="graph" transform="scale(1 1) rotate(0) translate(4 120.88)">
<title>v8::PersistentValueMapBase::Remove</title>
<!-- Node1 -->
<g id="node1" class="node">
<title>Node1</title>
<g id="a_node1"><a xlink:title=" ">
<polygon fill="#999999" stroke="#666666" points="141.25,-67.88 0,-67.88 0,-37.38 141.25,-37.38 141.25,-67.88"/>
<text text-anchor="start" x="8" y="-54.38" font-family="Helvetica,sans-Serif" font-size="10.00">v8::PersistentValueMapBase</text>
<text text-anchor="middle" x="70.62" y="-43.12" font-family="Helvetica,sans-Serif" font-size="10.00">::Remove</text>
</a>
</g>
</g>
<!-- Node2 -->
<g id="node2" class="node">
<title>Node2</title>
<g id="a_node2"><a xlink:href="classv8_1_1PersistentValueMapBase.html#aea9af944a2bd71a3b6abd2a2e57788f1" target="_top" xlink:title=" ">
<polygon fill="white" stroke="#666666" points="318.5,-67.88 177.25,-67.88 177.25,-37.38 318.5,-37.38 318.5,-67.88"/>
<text text-anchor="start" x="185.25" y="-54.38" font-family="Helvetica,sans-Serif" font-size="10.00">v8::PersistentValueMapBase</text>
<text text-anchor="middle" x="247.88" y="-43.12" font-family="Helvetica,sans-Serif" font-size="10.00">::Release</text>
</a>
</g>
</g>
<!-- Node1&#45;&gt;Node2 -->
<g id="edge1" class="edge">
<title>Node1&#45;&gt;Node2</title>
<path fill="none" stroke="#63b8ff" d="M141.64,-52.62C149.73,-52.62 158.03,-52.62 166.24,-52.62"/>
<polygon fill="#63b8ff" stroke="#63b8ff" points="165.97,-56.13 175.97,-52.62 165.97,-49.13 165.97,-56.13"/>
</g>
<!-- Node3 -->
<g id="node3" class="node">
<title>Node3</title>
<g id="a_node3"><a xlink:href="classv8_1_1PersistentValueMapBase.html#abb262f768e4353658726ba4d1295947c" target="_top" xlink:title=" ">
<polygon fill="white" stroke="#666666" points="495.75,-116.88 354.5,-116.88 354.5,-86.38 495.75,-86.38 495.75,-116.88"/>
<text text-anchor="start" x="362.5" y="-103.38" font-family="Helvetica,sans-Serif" font-size="10.00">v8::PersistentValueMapBase</text>
<text text-anchor="middle" x="425.12" y="-92.12" font-family="Helvetica,sans-Serif" font-size="10.00">::FromVal</text>
</a>
</g>
</g>
<!-- Node2&#45;&gt;Node3 -->
<g id="edge2" class="edge">
<title>Node2&#45;&gt;Node3</title>
<path fill="none" stroke="#63b8ff" d="M304.81,-68.26C321.64,-72.97 340.27,-78.18 357.71,-83.06"/>
<polygon fill="#63b8ff" stroke="#63b8ff" points="356.25,-86.56 366.82,-85.88 358.13,-79.82 356.25,-86.56"/>
</g>
<!-- Node4 -->
<g id="node4" class="node">
<title>Node4</title>
<g id="a_node4"><a xlink:href="classv8_1_1PersistentBase.html#a479c7b146da083aa608e133a7dec79f9" target="_top" xlink:title=" ">
<polygon fill="white" stroke="#666666" points="474,-67.88 376.25,-67.88 376.25,-37.38 474,-37.38 474,-67.88"/>
<text text-anchor="start" x="384.25" y="-54.38" font-family="Helvetica,sans-Serif" font-size="10.00">v8::PersistentBase</text>
<text text-anchor="middle" x="425.12" y="-43.12" font-family="Helvetica,sans-Serif" font-size="10.00">::IsWeak</text>
</a>
</g>
</g>
<!-- Node2&#45;&gt;Node4 -->
<g id="edge3" class="edge">
<title>Node2&#45;&gt;Node4</title>
<path fill="none" stroke="#63b8ff" d="M318.89,-52.62C334.24,-52.62 350.33,-52.62 365.19,-52.62"/>
<polygon fill="#63b8ff" stroke="#63b8ff" points="364.76,-56.13 374.76,-52.62 364.76,-49.13 364.76,-56.13"/>
</g>
<!-- Node5 -->
<g id="node5" class="node">
<title>Node5</title>
<g id="a_node5"><a xlink:href="classv8_1_1Global.html#a914903149cc752468d4a3a11b6089c7e" target="_top" xlink:title=" ">
<polygon fill="white" stroke="#666666" points="468,-19.25 382.25,-19.25 382.25,0 468,0 468,-19.25"/>
<text text-anchor="middle" x="425.12" y="-5.75" font-family="Helvetica,sans-Serif" font-size="10.00">v8::Global::Pass</text>
</a>
</g>
</g>
<!-- Node2&#45;&gt;Node5 -->
<g id="edge4" class="edge">
<title>Node2&#45;&gt;Node5</title>
<path fill="none" stroke="#63b8ff" d="M312.64,-36.98C332.37,-32.14 353.84,-26.87 372.63,-22.26"/>
<polygon fill="#63b8ff" stroke="#63b8ff" points="373.17,-25.49 382.05,-19.7 371.5,-18.69 373.17,-25.49"/>
</g>
</g>
</svg>
