<?xml version="1.0" encoding="UTF-8" standalone="no"?>
<!DOCTYPE svg PUBLIC "-//W3C//DTD SVG 1.1//EN"
 "http://www.w3.org/Graphics/SVG/1.1/DTD/svg11.dtd">
<!-- Generated by graphviz version 8.0.5 (20230430.1635)
 -->
<!-- Title: cppgc::internal::PersistentBase::SetNode Pages: 1 -->
<svg width="346pt" height="196pt"
 viewBox="0.00 0.00 346.00 196.12" xmlns="http://www.w3.org/2000/svg" xmlns:xlink="http://www.w3.org/1999/xlink">
<g id="graph0" class="graph" transform="scale(1 1) rotate(0) translate(4 192.12)">
<title>cppgc::internal::PersistentBase::SetNode</title>
<!-- Node1 -->
<g id="node1" class="node">
<title>Node1</title>
<g id="a_node1"><a xlink:title=" ">
<polygon fill="#999999" stroke="#666666" points="338,-103.5 211,-103.5 211,-73 338,-73 338,-103.5"/>
<text text-anchor="start" x="219" y="-90" font-family="Helvetica,sans-Serif" font-size="10.00">cppgc::internal::Persistent</text>
<text text-anchor="middle" x="274.5" y="-78.75" font-family="Helvetica,sans-Serif" font-size="10.00">Base::SetNode</text>
</a>
</g>
</g>
<!-- Node2 -->
<g id="node2" class="node">
<title>Node2</title>
<g id="a_node2"><a xlink:href="classcppgc_1_1internal_1_1BasicCrossThreadPersistent.html#ae6349479cb58549b01386d82d66fa656" target="_top" xlink:title=" ">
<polygon fill="white" stroke="#666666" points="175,-188.12 0,-188.12 0,-146.38 175,-146.38 175,-188.12"/>
<text text-anchor="start" x="8" y="-174.62" font-family="Helvetica,sans-Serif" font-size="10.00">cppgc::internal::BasicCross</text>
<text text-anchor="start" x="8" y="-163.38" font-family="Helvetica,sans-Serif" font-size="10.00">ThreadPersistent::BasicCrossThread</text>
<text text-anchor="middle" x="87.5" y="-152.12" font-family="Helvetica,sans-Serif" font-size="10.00">Persistent</text>
</a>
</g>
</g>
<!-- Node1&#45;&gt;Node2 -->
<g id="edge1" class="edge">
<title>Node1&#45;&gt;Node2</title>
<path fill="none" stroke="#63b8ff" d="M235.08,-108.79C217.09,-118.04 195.21,-128.76 175,-137.25 167.82,-140.27 160.22,-143.23 152.62,-146.04"/>
<polygon fill="#63b8ff" stroke="#63b8ff" points="236.38,-111.54 243.65,-103.82 233.16,-105.32 236.38,-111.54"/>
</g>
<!-- Node3 -->
<g id="node3" class="node">
<title>Node3</title>
<g id="a_node3"><a xlink:href="classcppgc_1_1internal_1_1BasicPersistent.html#a0bd538038aa020da214af7fac0caf31c" target="_top" xlink:title=" ">
<polygon fill="white" stroke="#666666" points="163.38,-128.5 11.62,-128.5 11.62,-98 163.38,-98 163.38,-128.5"/>
<text text-anchor="start" x="19.62" y="-115" font-family="Helvetica,sans-Serif" font-size="10.00">cppgc::internal::BasicPersistent</text>
<text text-anchor="middle" x="87.5" y="-103.75" font-family="Helvetica,sans-Serif" font-size="10.00">::BasicPersistent</text>
</a>
</g>
</g>
<!-- Node1&#45;&gt;Node3 -->
<g id="edge2" class="edge">
<title>Node1&#45;&gt;Node3</title>
<path fill="none" stroke="#63b8ff" d="M199.83,-98.2C187.94,-99.81 175.62,-101.48 163.69,-103.09"/>
<polygon fill="#63b8ff" stroke="#63b8ff" points="200.17,-101.56 209.61,-96.75 199.23,-94.62 200.17,-101.56"/>
</g>
<!-- Node4 -->
<g id="node4" class="node">
<title>Node4</title>
<g id="a_node4"><a xlink:href="classcppgc_1_1internal_1_1BasicCrossThreadPersistent.html#a495e434ac092107ddb112715a863274c" target="_top" xlink:title=" ">
<polygon fill="white" stroke="#666666" points="155.5,-79.5 19.5,-79.5 19.5,-49 155.5,-49 155.5,-79.5"/>
<text text-anchor="start" x="27.5" y="-66" font-family="Helvetica,sans-Serif" font-size="10.00">cppgc::internal::BasicCross</text>
<text text-anchor="middle" x="87.5" y="-54.75" font-family="Helvetica,sans-Serif" font-size="10.00">ThreadPersistent::operator=</text>
</a>
</g>
</g>
<!-- Node1&#45;&gt;Node4 -->
<g id="edge3" class="edge">
<title>Node1&#45;&gt;Node4</title>
<path fill="none" stroke="#63b8ff" d="M199.71,-78.68C185.27,-76.8 170.19,-74.85 155.96,-73"/>
<polygon fill="#63b8ff" stroke="#63b8ff" points="199.24,-82.28 209.61,-80.09 200.14,-75.33 199.24,-82.28"/>
</g>
<!-- Node5 -->
<g id="node5" class="node">
<title>Node5</title>
<g id="a_node5"><a xlink:href="classcppgc_1_1internal_1_1BasicPersistent.html#ae98f0f817a287da8daf1750f28acc387" target="_top" xlink:title=" ">
<polygon fill="white" stroke="#666666" points="163.38,-30.5 11.62,-30.5 11.62,0 163.38,0 163.38,-30.5"/>
<text text-anchor="start" x="19.62" y="-17" font-family="Helvetica,sans-Serif" font-size="10.00">cppgc::internal::BasicPersistent</text>
<text text-anchor="middle" x="87.5" y="-5.75" font-family="Helvetica,sans-Serif" font-size="10.00">::operator=</text>
</a>
</g>
</g>
<!-- Node1&#45;&gt;Node5 -->
<g id="edge4" class="edge">
<title>Node1&#45;&gt;Node5</title>
<path fill="none" stroke="#63b8ff" d="M235.24,-67.7C217.27,-58.55 195.37,-48.09 175,-40.25 166.39,-36.94 157.16,-33.82 148.04,-30.99"/>
<polygon fill="#63b8ff" stroke="#63b8ff" points="233.29,-71.15 243.78,-72.62 236.5,-64.93 233.29,-71.15"/>
</g>
</g>
</svg>
