<?xml version="1.0" encoding="UTF-8" standalone="no"?>
<!DOCTYPE svg PUBLIC "-//W3C//DTD SVG 1.1//EN"
 "http://www.w3.org/Graphics/SVG/1.1/DTD/svg11.dtd">
<!-- Generated by graphviz version 8.0.5 (20230430.1635)
 -->
<!-- Title: v8::Value Pages: 1 -->
<svg width="678pt" height="914pt"
 viewBox="0.00 0.00 677.75 914.25" xmlns="http://www.w3.org/2000/svg" xmlns:xlink="http://www.w3.org/1999/xlink">
<g id="graph0" class="graph" transform="scale(1 1) rotate(0) translate(4 910.25)">
<title>v8::Value</title>
<!-- Node1 -->
<g id="node1" class="node">
<title>Node1</title>
<g id="a_node1"><a xlink:title=" ">
<polygon fill="#999999" stroke="#666666" points="143,-481.25 87.25,-481.25 87.25,-462 143,-462 143,-481.25"/>
<text text-anchor="middle" x="115.12" y="-467.75" font-family="Helvetica,sans-Serif" font-size="10.00">v8::Value</text>
</a>
</g>
</g>
<!-- Node3 -->
<g id="node3" class="node">
<title>Node3</title>
<g id="a_node3"><a xlink:href="classv8_1_1External.html" target="_top" xlink:title=" ">
<polygon fill="white" stroke="#666666" points="246.38,-518.25 180.88,-518.25 180.88,-499 246.38,-499 246.38,-518.25"/>
<text text-anchor="middle" x="213.62" y="-504.75" font-family="Helvetica,sans-Serif" font-size="10.00">v8::External</text>
</a>
</g>
</g>
<!-- Node1&#45;&gt;Node3 -->
<g id="edge2" class="edge">
<title>Node1&#45;&gt;Node3</title>
<path fill="none" stroke="#63b8ff" d="M152.48,-485.56C163.71,-489.87 175.87,-494.53 186.29,-498.53"/>
<polygon fill="#63b8ff" stroke="#63b8ff" points="154.08,-482.05 143.49,-481.74 151.58,-488.58 154.08,-482.05"/>
</g>
<!-- Node4 -->
<g id="node4" class="node">
<title>Node4</title>
<g id="a_node4"><a xlink:href="classv8_1_1Object.html" target="_top" xlink:title=" ">
<polygon fill="white" stroke="#666666" points="243.38,-481.25 183.88,-481.25 183.88,-462 243.38,-462 243.38,-481.25"/>
<text text-anchor="middle" x="213.62" y="-467.75" font-family="Helvetica,sans-Serif" font-size="10.00">v8::Object</text>
</a>
</g>
</g>
<!-- Node1&#45;&gt;Node4 -->
<g id="edge3" class="edge">
<title>Node1&#45;&gt;Node4</title>
<path fill="none" stroke="#63b8ff" d="M154.04,-471.62C163.9,-471.62 174.36,-471.62 183.67,-471.62"/>
<polygon fill="#63b8ff" stroke="#63b8ff" points="154.26,-468.13 144.26,-471.62 154.26,-475.13 154.26,-468.13"/>
</g>
<!-- Node36 -->
<g id="node36" class="node">
<title>Node36</title>
<g id="a_node36"><a xlink:href="classv8_1_1Primitive.html" target="_top" xlink:title=" ">
<polygon fill="white" stroke="#666666" points="248.25,-111.25 179,-111.25 179,-92 248.25,-92 248.25,-111.25"/>
<text text-anchor="middle" x="213.62" y="-97.75" font-family="Helvetica,sans-Serif" font-size="10.00">v8::Primitive</text>
</a>
</g>
</g>
<!-- Node1&#45;&gt;Node36 -->
<g id="edge35" class="edge">
<title>Node1&#45;&gt;Node36</title>
<path fill="none" stroke="#63b8ff" d="M121.38,-451.47C139.2,-383.13 196.95,-161.73 209.99,-111.73"/>
<polygon fill="#63b8ff" stroke="#63b8ff" points="117.84,-450.17 118.71,-460.73 124.62,-451.94 117.84,-450.17"/>
</g>
<!-- Node2 -->
<g id="node2" class="node">
<title>Node2</title>
<g id="a_node2"><a xlink:href="classv8_1_1Data.html" target="_top" xlink:title=" ">
<polygon fill="white" stroke="#666666" points="51.25,-481.25 0,-481.25 0,-462 51.25,-462 51.25,-481.25"/>
<text text-anchor="middle" x="25.62" y="-467.75" font-family="Helvetica,sans-Serif" font-size="10.00">v8::Data</text>
</a>
</g>
</g>
<!-- Node2&#45;&gt;Node1 -->
<g id="edge1" class="edge">
<title>Node2&#45;&gt;Node1</title>
<path fill="none" stroke="#63b8ff" d="M62.26,-471.62C70.43,-471.62 79,-471.62 86.77,-471.62"/>
<polygon fill="#63b8ff" stroke="#63b8ff" points="62.46,-468.13 52.46,-471.62 62.46,-475.13 62.46,-468.13"/>
</g>
<!-- Node5 -->
<g id="node5" class="node">
<title>Node5</title>
<g id="a_node5"><a xlink:href="classv8_1_1Array.html" target="_top" xlink:title=" ">
<polygon fill="white" stroke="#666666" points="370.38,-814.25 316.88,-814.25 316.88,-795 370.38,-795 370.38,-814.25"/>
<text text-anchor="middle" x="343.62" y="-800.75" font-family="Helvetica,sans-Serif" font-size="10.00">v8::Array</text>
</a>
</g>
</g>
<!-- Node4&#45;&gt;Node5 -->
<g id="edge4" class="edge">
<title>Node4&#45;&gt;Node5</title>
<path fill="none" stroke="#63b8ff" d="M247.83,-489.04C247.98,-489.23 248.11,-489.43 248.25,-489.62 323.32,-599.37 198.98,-684.6 284.25,-786.62 292.14,-796.06 304.86,-800.65 316.42,-802.83"/>
<polygon fill="#63b8ff" stroke="#63b8ff" points="250.63,-486.92 240.96,-482.58 245.82,-492 250.63,-486.92"/>
</g>
<!-- Node6 -->
<g id="node6" class="node">
<title>Node6</title>
<g id="a_node6"><a xlink:href="classv8_1_1ArrayBuffer.html" target="_top" xlink:title=" ">
<polygon fill="white" stroke="#666666" points="383.12,-777.25 304.12,-777.25 304.12,-758 383.12,-758 383.12,-777.25"/>
<text text-anchor="middle" x="343.62" y="-763.75" font-family="Helvetica,sans-Serif" font-size="10.00">v8::ArrayBuffer</text>
</a>
</g>
</g>
<!-- Node4&#45;&gt;Node6 -->
<g id="edge5" class="edge">
<title>Node4&#45;&gt;Node6</title>
<path fill="none" stroke="#63b8ff" d="M247.83,-489.04C247.97,-489.23 248.11,-489.43 248.25,-489.62 314.93,-585.35 208.68,-660.75 284.25,-749.62 289.33,-755.6 296.36,-759.63 303.77,-762.33"/>
<polygon fill="#63b8ff" stroke="#63b8ff" points="250.6,-486.9 240.91,-482.62 245.81,-492.01 250.6,-486.9"/>
</g>
<!-- Node7 -->
<g id="node7" class="node">
<title>Node7</title>
<g id="a_node7"><a xlink:href="classv8_1_1ArrayBufferView.html" target="_top" xlink:title=" ">
<polygon fill="white" stroke="#666666" points="394,-740.25 293.25,-740.25 293.25,-721 394,-721 394,-740.25"/>
<text text-anchor="middle" x="343.62" y="-726.75" font-family="Helvetica,sans-Serif" font-size="10.00">v8::ArrayBufferView</text>
</a>
</g>
</g>
<!-- Node4&#45;&gt;Node7 -->
<g id="edge6" class="edge">
<title>Node4&#45;&gt;Node7</title>
<path fill="none" stroke="#63b8ff" d="M247.82,-489.04C247.97,-489.24 248.11,-489.43 248.25,-489.62 306.56,-571.35 218.36,-636.88 284.25,-712.62 287.03,-715.83 290.37,-718.47 294.03,-720.64"/>
<polygon fill="#63b8ff" stroke="#63b8ff" points="250.57,-486.89 240.85,-482.66 245.81,-492.02 250.57,-486.89"/>
</g>
<!-- Node21 -->
<g id="node21" class="node">
<title>Node21</title>
<g id="a_node21"><a xlink:href="classv8_1_1BigIntObject.html" target="_top" xlink:title=" ">
<polygon fill="white" stroke="#666666" points="386.12,-703.25 301.12,-703.25 301.12,-684 386.12,-684 386.12,-703.25"/>
<text text-anchor="middle" x="343.62" y="-689.75" font-family="Helvetica,sans-Serif" font-size="10.00">v8::BigIntObject</text>
</a>
</g>
</g>
<!-- Node4&#45;&gt;Node21 -->
<g id="edge20" class="edge">
<title>Node4&#45;&gt;Node21</title>
<path fill="none" stroke="#63b8ff" d="M247.81,-489.05C247.96,-489.24 248.11,-489.43 248.25,-489.62 298.21,-557.4 228.01,-612.96 284.25,-675.62 288.71,-680.6 294.51,-684.21 300.73,-686.84"/>
<polygon fill="#63b8ff" stroke="#63b8ff" points="250.52,-486.87 240.76,-482.72 245.8,-492.04 250.52,-486.87"/>
</g>
<!-- Node22 -->
<g id="node22" class="node">
<title>Node22</title>
<g id="a_node22"><a xlink:href="classv8_1_1BooleanObject.html" target="_top" xlink:title=" ">
<polygon fill="white" stroke="#666666" points="391,-666.25 296.25,-666.25 296.25,-647 391,-647 391,-666.25"/>
<text text-anchor="middle" x="343.62" y="-652.75" font-family="Helvetica,sans-Serif" font-size="10.00">v8::BooleanObject</text>
</a>
</g>
</g>
<!-- Node4&#45;&gt;Node22 -->
<g id="edge21" class="edge">
<title>Node4&#45;&gt;Node22</title>
<path fill="none" stroke="#63b8ff" d="M247.55,-488.75C247.79,-489.04 248.02,-489.33 248.25,-489.62 289.92,-543.52 237.59,-588.98 284.25,-638.62 287.59,-642.18 291.62,-645.04 295.97,-647.34"/>
<polygon fill="#63b8ff" stroke="#63b8ff" points="250.15,-485.51 240.3,-481.6 245.56,-490.79 250.15,-485.51"/>
</g>
<!-- Node23 -->
<g id="node23" class="node">
<title>Node23</title>
<g id="a_node23"><a xlink:href="classv8_1_1Date.html" target="_top" xlink:title=" ">
<polygon fill="white" stroke="#666666" points="369.25,-629.25 318,-629.25 318,-610 369.25,-610 369.25,-629.25"/>
<text text-anchor="middle" x="343.62" y="-615.75" font-family="Helvetica,sans-Serif" font-size="10.00">v8::Date</text>
</a>
</g>
</g>
<!-- Node4&#45;&gt;Node23 -->
<g id="edge22" class="edge">
<title>Node4&#45;&gt;Node23</title>
<path fill="none" stroke="#63b8ff" d="M247.23,-488.46C247.58,-488.84 247.92,-489.23 248.25,-489.62 281.74,-529.78 247.06,-564.87 284.25,-601.62 293.15,-610.42 306.25,-614.93 317.78,-617.24"/>
<polygon fill="#63b8ff" stroke="#63b8ff" points="249.72,-485.16 239.76,-481.54 245.29,-490.58 249.72,-485.16"/>
</g>
<!-- Node24 -->
<g id="node24" class="node">
<title>Node24</title>
<g id="a_node24"><a xlink:href="classv8_1_1Function.html" target="_top" xlink:title=" ">
<polygon fill="white" stroke="#666666" points="377.88,-592.25 309.38,-592.25 309.38,-573 377.88,-573 377.88,-592.25"/>
<text text-anchor="middle" x="343.62" y="-578.75" font-family="Helvetica,sans-Serif" font-size="10.00">v8::Function</text>
</a>
</g>
</g>
<!-- Node4&#45;&gt;Node24 -->
<g id="edge23" class="edge">
<title>Node4&#45;&gt;Node24</title>
<path fill="none" stroke="#63b8ff" d="M246.83,-488.22C247.32,-488.68 247.79,-489.15 248.25,-489.62 273.81,-516.34 256.24,-540.49 284.25,-564.62 291.24,-570.65 300.22,-574.66 309.03,-577.32"/>
<polygon fill="#63b8ff" stroke="#63b8ff" points="249.15,-484.84 239.05,-481.65 244.96,-490.44 249.15,-484.84"/>
</g>
<!-- Node25 -->
<g id="node25" class="node">
<title>Node25</title>
<g id="a_node25"><a xlink:href="classv8_1_1Map.html" target="_top" xlink:title=" ">
<polygon fill="white" stroke="#666666" points="368.5,-555.25 318.75,-555.25 318.75,-536 368.5,-536 368.5,-555.25"/>
<text text-anchor="middle" x="343.62" y="-541.75" font-family="Helvetica,sans-Serif" font-size="10.00">v8::Map</text>
</a>
</g>
</g>
<!-- Node4&#45;&gt;Node25 -->
<g id="edge24" class="edge">
<title>Node4&#45;&gt;Node25</title>
<path fill="none" stroke="#63b8ff" d="M244.94,-487.24C246.08,-488.01 247.18,-488.81 248.25,-489.62 266.74,-503.74 264.49,-515.35 284.25,-527.62 294.61,-534.06 307.44,-538.35 318.44,-541.11"/>
<polygon fill="#63b8ff" stroke="#63b8ff" points="247.25,-483.93 236.89,-481.67 243.58,-489.89 247.25,-483.93"/>
</g>
<!-- Node26 -->
<g id="node26" class="node">
<title>Node26</title>
<g id="a_node26"><a xlink:href="classv8_1_1NumberObject.html" target="_top" xlink:title=" ">
<polygon fill="white" stroke="#666666" points="390.62,-518.25 296.62,-518.25 296.62,-499 390.62,-499 390.62,-518.25"/>
<text text-anchor="middle" x="343.62" y="-504.75" font-family="Helvetica,sans-Serif" font-size="10.00">v8::NumberObject</text>
</a>
</g>
</g>
<!-- Node4&#45;&gt;Node26 -->
<g id="edge25" class="edge">
<title>Node4&#45;&gt;Node26</title>
<path fill="none" stroke="#63b8ff" d="M253.95,-482.99C271.14,-487.96 291.13,-493.74 307.78,-498.55"/>
<polygon fill="#63b8ff" stroke="#63b8ff" points="255.25,-479.44 244.67,-480.02 253.3,-486.16 255.25,-479.44"/>
</g>
<!-- Node27 -->
<g id="node27" class="node">
<title>Node27</title>
<g id="a_node27"><a xlink:href="classv8_1_1Promise.html" target="_top" xlink:title=" ">
<polygon fill="white" stroke="#666666" points="377.12,-481.25 310.12,-481.25 310.12,-462 377.12,-462 377.12,-481.25"/>
<text text-anchor="middle" x="343.62" y="-467.75" font-family="Helvetica,sans-Serif" font-size="10.00">v8::Promise</text>
</a>
</g>
</g>
<!-- Node4&#45;&gt;Node27 -->
<g id="edge26" class="edge">
<title>Node4&#45;&gt;Node27</title>
<path fill="none" stroke="#63b8ff" d="M254.54,-471.62C272.24,-471.62 292.82,-471.62 309.63,-471.62"/>
<polygon fill="#63b8ff" stroke="#63b8ff" points="254.67,-468.13 244.67,-471.62 254.67,-475.13 254.67,-468.13"/>
</g>
<!-- Node28 -->
<g id="node28" class="node">
<title>Node28</title>
<g id="a_node28"><a xlink:href="classv8_1_1Promise_1_1Resolver.html" target="_top" xlink:title=" ">
<polygon fill="white" stroke="#666666" points="398.5,-444.25 288.75,-444.25 288.75,-425 398.5,-425 398.5,-444.25"/>
<text text-anchor="middle" x="343.62" y="-430.75" font-family="Helvetica,sans-Serif" font-size="10.00">v8::Promise::Resolver</text>
</a>
</g>
</g>
<!-- Node4&#45;&gt;Node28 -->
<g id="edge27" class="edge">
<title>Node4&#45;&gt;Node28</title>
<path fill="none" stroke="#63b8ff" d="M253.95,-460.26C271.14,-455.29 291.13,-449.51 307.78,-444.7"/>
<polygon fill="#63b8ff" stroke="#63b8ff" points="253.3,-457.09 244.67,-463.23 255.25,-463.81 253.3,-457.09"/>
</g>
<!-- Node29 -->
<g id="node29" class="node">
<title>Node29</title>
<g id="a_node29"><a xlink:href="classv8_1_1Proxy.html" target="_top" xlink:title=" ">
<polygon fill="white" stroke="#666666" points="371.12,-407.25 316.12,-407.25 316.12,-388 371.12,-388 371.12,-407.25"/>
<text text-anchor="middle" x="343.62" y="-393.75" font-family="Helvetica,sans-Serif" font-size="10.00">v8::Proxy</text>
</a>
</g>
</g>
<!-- Node4&#45;&gt;Node29 -->
<g id="edge28" class="edge">
<title>Node4&#45;&gt;Node29</title>
<path fill="none" stroke="#63b8ff" d="M232.43,-454.11C245.75,-441.85 264.92,-425.89 284.25,-415.62 293.99,-410.45 305.45,-406.51 315.63,-403.65"/>
<polygon fill="#63b8ff" stroke="#63b8ff" points="230.44,-451.12 225.58,-460.54 235.25,-456.21 230.44,-451.12"/>
</g>
<!-- Node30 -->
<g id="node30" class="node">
<title>Node30</title>
<g id="a_node30"><a xlink:href="classv8_1_1RegExp.html" target="_top" xlink:title=" ">
<polygon fill="white" stroke="#666666" points="375.62,-370.25 311.62,-370.25 311.62,-351 375.62,-351 375.62,-370.25"/>
<text text-anchor="middle" x="343.62" y="-356.75" font-family="Helvetica,sans-Serif" font-size="10.00">v8::RegExp</text>
</a>
</g>
</g>
<!-- Node4&#45;&gt;Node30 -->
<g id="edge29" class="edge">
<title>Node4&#45;&gt;Node30</title>
<path fill="none" stroke="#63b8ff" d="M224.43,-452.03C235.96,-430.93 257.02,-397.8 284.25,-378.62 292.23,-373.01 302.01,-369.1 311.27,-366.4"/>
<polygon fill="#63b8ff" stroke="#63b8ff" points="220.97,-450.09 219.42,-460.57 227.16,-453.35 220.97,-450.09"/>
</g>
<!-- Node31 -->
<g id="node31" class="node">
<title>Node31</title>
<g id="a_node31"><a xlink:href="classv8_1_1Set.html" target="_top" xlink:title=" ">
<polygon fill="white" stroke="#666666" points="366.62,-333.25 320.62,-333.25 320.62,-314 366.62,-314 366.62,-333.25"/>
<text text-anchor="middle" x="343.62" y="-319.75" font-family="Helvetica,sans-Serif" font-size="10.00">v8::Set</text>
</a>
</g>
</g>
<!-- Node4&#45;&gt;Node31 -->
<g id="edge30" class="edge">
<title>Node4&#45;&gt;Node31</title>
<path fill="none" stroke="#63b8ff" d="M220.09,-451.47C228.87,-422.88 248.82,-370.81 284.25,-341.62 294.4,-333.26 308.41,-328.78 320.17,-326.38"/>
<polygon fill="#63b8ff" stroke="#63b8ff" points="216.51,-450.24 217.09,-460.82 223.23,-452.19 216.51,-450.24"/>
</g>
<!-- Node32 -->
<g id="node32" class="node">
<title>Node32</title>
<g id="a_node32"><a xlink:href="classv8_1_1SharedArrayBuffer.html" target="_top" xlink:title=" ">
<polygon fill="white" stroke="#666666" points="398.5,-296.25 288.75,-296.25 288.75,-277 398.5,-277 398.5,-296.25"/>
<text text-anchor="middle" x="343.62" y="-282.75" font-family="Helvetica,sans-Serif" font-size="10.00">v8::SharedArrayBuffer</text>
</a>
</g>
</g>
<!-- Node4&#45;&gt;Node32 -->
<g id="edge31" class="edge">
<title>Node4&#45;&gt;Node32</title>
<path fill="none" stroke="#63b8ff" d="M217.51,-450.86C223.51,-415.67 240.57,-344.3 284.25,-304.62 287.78,-301.42 291.88,-298.78 296.23,-296.61"/>
<polygon fill="#63b8ff" stroke="#63b8ff" points="213.91,-450.26 215.83,-460.68 220.83,-451.34 213.91,-450.26"/>
</g>
<!-- Node33 -->
<g id="node33" class="node">
<title>Node33</title>
<g id="a_node33"><a xlink:href="classv8_1_1StringObject.html" target="_top" xlink:title=" ">
<polygon fill="white" stroke="#666666" points="386.12,-259.25 301.12,-259.25 301.12,-240 386.12,-240 386.12,-259.25"/>
<text text-anchor="middle" x="343.62" y="-245.75" font-family="Helvetica,sans-Serif" font-size="10.00">v8::StringObject</text>
</a>
</g>
</g>
<!-- Node4&#45;&gt;Node33 -->
<g id="edge32" class="edge">
<title>Node4&#45;&gt;Node33</title>
<path fill="none" stroke="#63b8ff" d="M215.69,-450.96C218.92,-410.06 231.93,-318.41 284.25,-267.62 288.89,-263.12 294.64,-259.74 300.69,-257.2"/>
<polygon fill="#63b8ff" stroke="#63b8ff" points="212.13,-450.71 214.97,-460.92 219.12,-451.17 212.13,-450.71"/>
</g>
<!-- Node34 -->
<g id="node34" class="node">
<title>Node34</title>
<g id="a_node34"><a xlink:href="classv8_1_1SymbolObject.html" target="_top" xlink:title=" ">
<polygon fill="white" stroke="#666666" points="389.5,-222.25 297.75,-222.25 297.75,-203 389.5,-203 389.5,-222.25"/>
<text text-anchor="middle" x="343.62" y="-208.75" font-family="Helvetica,sans-Serif" font-size="10.00">v8::SymbolObject</text>
</a>
</g>
</g>
<!-- Node4&#45;&gt;Node34 -->
<g id="edge33" class="edge">
<title>Node4&#45;&gt;Node34</title>
<path fill="none" stroke="#63b8ff" d="M214.4,-450.78C215.08,-404.56 223.31,-292.67 284.25,-230.62 287.97,-226.84 292.46,-223.85 297.28,-221.48"/>
<polygon fill="#63b8ff" stroke="#63b8ff" points="210.9,-450.74 214.37,-460.75 217.9,-450.76 210.9,-450.74"/>
</g>
<!-- Node35 -->
<g id="node35" class="node">
<title>Node35</title>
<g id="a_node35"><a xlink:href="classv8_1_1WasmModuleObject.html" target="_top" xlink:title=" ">
<polygon fill="white" stroke="#666666" points="403,-185.25 284.25,-185.25 284.25,-166 403,-166 403,-185.25"/>
<text text-anchor="middle" x="343.62" y="-171.75" font-family="Helvetica,sans-Serif" font-size="10.00">v8::WasmModuleObject</text>
</a>
</g>
</g>
<!-- Node4&#45;&gt;Node35 -->
<g id="edge34" class="edge">
<title>Node4&#45;&gt;Node35</title>
<path fill="none" stroke="#63b8ff" d="M217.17,-450.87C224.68,-392.97 248.46,-231.39 284.25,-193.62 287.24,-190.47 290.77,-187.86 294.59,-185.71"/>
<polygon fill="#63b8ff" stroke="#63b8ff" points="213.6,-450.22 215.82,-460.58 220.55,-451.09 213.6,-450.22"/>
</g>
<!-- Node8 -->
<g id="node8" class="node">
<title>Node8</title>
<g id="a_node8"><a xlink:href="classv8_1_1DataView.html" target="_top" xlink:title=" ">
<polygon fill="white" stroke="#666666" points="515.38,-758.25 442.38,-758.25 442.38,-739 515.38,-739 515.38,-758.25"/>
<text text-anchor="middle" x="478.88" y="-744.75" font-family="Helvetica,sans-Serif" font-size="10.00">v8::DataView</text>
</a>
</g>
</g>
<!-- Node7&#45;&gt;Node8 -->
<g id="edge7" class="edge">
<title>Node7&#45;&gt;Node8</title>
<path fill="none" stroke="#63b8ff" d="M404.79,-738.75C417.48,-740.47 430.49,-742.22 441.95,-743.77"/>
<polygon fill="#63b8ff" stroke="#63b8ff" points="405.62,-735.2 395.24,-737.33 404.68,-742.13 405.62,-735.2"/>
</g>
<!-- Node9 -->
<g id="node9" class="node">
<title>Node9</title>
<g id="a_node9"><a xlink:href="classv8_1_1TypedArray.html" target="_top" xlink:title=" ">
<polygon fill="white" stroke="#666666" points="518.75,-721.25 439,-721.25 439,-702 518.75,-702 518.75,-721.25"/>
<text text-anchor="middle" x="478.88" y="-707.75" font-family="Helvetica,sans-Serif" font-size="10.00">v8::TypedArray</text>
</a>
</g>
</g>
<!-- Node7&#45;&gt;Node9 -->
<g id="edge8" class="edge">
<title>Node7&#45;&gt;Node9</title>
<path fill="none" stroke="#63b8ff" d="M405.05,-722.01C416.45,-720.38 428.09,-718.72 438.62,-717.22"/>
<polygon fill="#63b8ff" stroke="#63b8ff" points="404.65,-718.67 395.24,-723.55 405.64,-725.6 404.65,-718.67"/>
</g>
<!-- Node10 -->
<g id="node10" class="node">
<title>Node10</title>
<g id="a_node10"><a xlink:href="classv8_1_1BigInt64Array.html" target="_top" xlink:title=" ">
<polygon fill="white" stroke="#666666" points="657,-906.25 567.5,-906.25 567.5,-887 657,-887 657,-906.25"/>
<text text-anchor="middle" x="612.25" y="-892.75" font-family="Helvetica,sans-Serif" font-size="10.00">v8::BigInt64Array</text>
</a>
</g>
</g>
<!-- Node9&#45;&gt;Node10 -->
<g id="edge9" class="edge">
<title>Node9&#45;&gt;Node10</title>
<path fill="none" stroke="#63b8ff" d="M517.46,-728.16C517.91,-728.63 518.34,-729.12 518.75,-729.62 561.96,-782.29 508.33,-828.76 554.75,-878.62 558.26,-882.39 562.55,-885.37 567.19,-887.73"/>
<polygon fill="#63b8ff" stroke="#63b8ff" points="520.15,-725.02 510.15,-721.52 515.78,-730.49 520.15,-725.02"/>
</g>
<!-- Node11 -->
<g id="node11" class="node">
<title>Node11</title>
<g id="a_node11"><a xlink:href="classv8_1_1BigUint64Array.html" target="_top" xlink:title=" ">
<polygon fill="white" stroke="#666666" points="660.38,-869.25 564.12,-869.25 564.12,-850 660.38,-850 660.38,-869.25"/>
<text text-anchor="middle" x="612.25" y="-855.75" font-family="Helvetica,sans-Serif" font-size="10.00">v8::BigUint64Array</text>
</a>
</g>
</g>
<!-- Node9&#45;&gt;Node11 -->
<g id="edge10" class="edge">
<title>Node9&#45;&gt;Node11</title>
<path fill="none" stroke="#63b8ff" d="M517.41,-728.2C517.87,-728.66 518.32,-729.14 518.75,-729.62 553.39,-768.79 517.73,-804.7 554.75,-841.62 557.96,-844.82 561.73,-847.45 565.78,-849.62"/>
<polygon fill="#63b8ff" stroke="#63b8ff" points="520,-725.01 509.93,-721.7 515.74,-730.56 520,-725.01"/>
</g>
<!-- Node12 -->
<g id="node12" class="node">
<title>Node12</title>
<g id="a_node12"><a xlink:href="classv8_1_1Float32Array.html" target="_top" xlink:title=" ">
<polygon fill="white" stroke="#666666" points="655.12,-832.25 569.38,-832.25 569.38,-813 655.12,-813 655.12,-832.25"/>
<text text-anchor="middle" x="612.25" y="-818.75" font-family="Helvetica,sans-Serif" font-size="10.00">v8::Float32Array</text>
</a>
</g>
</g>
<!-- Node9&#45;&gt;Node12 -->
<g id="edge11" class="edge">
<title>Node9&#45;&gt;Node12</title>
<path fill="none" stroke="#63b8ff" d="M516.58,-727.64C517.33,-728.28 518.05,-728.94 518.75,-729.62 545.08,-755.59 526.85,-780.36 554.75,-804.62 558.94,-808.27 563.88,-811.18 569.07,-813.5"/>
<polygon fill="#63b8ff" stroke="#63b8ff" points="518.99,-724.36 508.76,-721.61 515.04,-730.14 518.99,-724.36"/>
</g>
<!-- Node13 -->
<g id="node13" class="node">
<title>Node13</title>
<g id="a_node13"><a xlink:href="classv8_1_1Float64Array.html" target="_top" xlink:title=" ">
<polygon fill="white" stroke="#666666" points="655.12,-795.25 569.38,-795.25 569.38,-776 655.12,-776 655.12,-795.25"/>
<text text-anchor="middle" x="612.25" y="-781.75" font-family="Helvetica,sans-Serif" font-size="10.00">v8::Float64Array</text>
</a>
</g>
</g>
<!-- Node9&#45;&gt;Node13 -->
<g id="edge12" class="edge">
<title>Node9&#45;&gt;Node13</title>
<path fill="none" stroke="#63b8ff" d="M514.75,-726.95C516.13,-727.81 517.47,-728.7 518.75,-729.62 537.64,-743.2 535.04,-755.26 554.75,-767.62 559.72,-770.74 565.28,-773.37 570.92,-775.56"/>
<polygon fill="#63b8ff" stroke="#63b8ff" points="516.77,-723.51 506.33,-721.72 513.38,-729.63 516.77,-723.51"/>
</g>
<!-- Node14 -->
<g id="node14" class="node">
<title>Node14</title>
<g id="a_node14"><a xlink:href="classv8_1_1Int16Array.html" target="_top" xlink:title=" ">
<polygon fill="white" stroke="#666666" points="649.88,-758.25 574.62,-758.25 574.62,-739 649.88,-739 649.88,-758.25"/>
<text text-anchor="middle" x="612.25" y="-744.75" font-family="Helvetica,sans-Serif" font-size="10.00">v8::Int16Array</text>
</a>
</g>
</g>
<!-- Node9&#45;&gt;Node14 -->
<g id="edge13" class="edge">
<title>Node9&#45;&gt;Node14</title>
<path fill="none" stroke="#63b8ff" d="M526.11,-724.65C542.29,-729.2 560.19,-734.25 575.39,-738.53"/>
<polygon fill="#63b8ff" stroke="#63b8ff" points="527.35,-721.08 516.77,-721.74 525.45,-727.82 527.35,-721.08"/>
</g>
<!-- Node15 -->
<g id="node15" class="node">
<title>Node15</title>
<g id="a_node15"><a xlink:href="classv8_1_1Int32Array.html" target="_top" xlink:title=" ">
<polygon fill="white" stroke="#666666" points="649.88,-721.25 574.62,-721.25 574.62,-702 649.88,-702 649.88,-721.25"/>
<text text-anchor="middle" x="612.25" y="-707.75" font-family="Helvetica,sans-Serif" font-size="10.00">v8::Int32Array</text>
</a>
</g>
</g>
<!-- Node9&#45;&gt;Node15 -->
<g id="edge14" class="edge">
<title>Node9&#45;&gt;Node15</title>
<path fill="none" stroke="#63b8ff" d="M529.52,-711.62C544.4,-711.62 560.46,-711.62 574.37,-711.62"/>
<polygon fill="#63b8ff" stroke="#63b8ff" points="529.94,-708.13 519.94,-711.62 529.94,-715.13 529.94,-708.13"/>
</g>
<!-- Node16 -->
<g id="node16" class="node">
<title>Node16</title>
<g id="a_node16"><a xlink:href="classv8_1_1Int8Array.html" target="_top" xlink:title=" ">
<polygon fill="white" stroke="#666666" points="647.25,-684.25 577.25,-684.25 577.25,-665 647.25,-665 647.25,-684.25"/>
<text text-anchor="middle" x="612.25" y="-670.75" font-family="Helvetica,sans-Serif" font-size="10.00">v8::Int8Array</text>
</a>
</g>
</g>
<!-- Node9&#45;&gt;Node16 -->
<g id="edge15" class="edge">
<title>Node9&#45;&gt;Node16</title>
<path fill="none" stroke="#63b8ff" d="M525.9,-698.66C542.61,-693.96 561.2,-688.72 576.75,-684.34"/>
<polygon fill="#63b8ff" stroke="#63b8ff" points="525.45,-695.43 516.77,-701.51 527.35,-702.17 525.45,-695.43"/>
</g>
<!-- Node17 -->
<g id="node17" class="node">
<title>Node17</title>
<g id="a_node17"><a xlink:href="classv8_1_1Uint16Array.html" target="_top" xlink:title=" ">
<polygon fill="white" stroke="#666666" points="653.25,-647.25 571.25,-647.25 571.25,-628 653.25,-628 653.25,-647.25"/>
<text text-anchor="middle" x="612.25" y="-633.75" font-family="Helvetica,sans-Serif" font-size="10.00">v8::Uint16Array</text>
</a>
</g>
</g>
<!-- Node9&#45;&gt;Node17 -->
<g id="edge16" class="edge">
<title>Node9&#45;&gt;Node17</title>
<path fill="none" stroke="#63b8ff" d="M498.87,-694.59C513.33,-682.35 534.19,-666.21 554.75,-655.62 560.61,-652.61 567.07,-649.98 573.46,-647.72"/>
<polygon fill="#63b8ff" stroke="#63b8ff" points="497.02,-692.43 491.75,-701.62 501.6,-697.72 497.02,-692.43"/>
</g>
<!-- Node18 -->
<g id="node18" class="node">
<title>Node18</title>
<g id="a_node18"><a xlink:href="classv8_1_1Uint32Array.html" target="_top" xlink:title=" ">
<polygon fill="white" stroke="#666666" points="653.25,-610.25 571.25,-610.25 571.25,-591 653.25,-591 653.25,-610.25"/>
<text text-anchor="middle" x="612.25" y="-596.75" font-family="Helvetica,sans-Serif" font-size="10.00">v8::Uint32Array</text>
</a>
</g>
</g>
<!-- Node9&#45;&gt;Node18 -->
<g id="edge17" class="edge">
<title>Node9&#45;&gt;Node18</title>
<path fill="none" stroke="#63b8ff" d="M490.64,-692.38C503.35,-671.35 526.39,-638.06 554.75,-618.62 559.68,-615.25 565.27,-612.48 570.98,-610.22"/>
<polygon fill="#63b8ff" stroke="#63b8ff" points="487.27,-690.21 485.25,-700.61 493.32,-693.74 487.27,-690.21"/>
</g>
<!-- Node19 -->
<g id="node19" class="node">
<title>Node19</title>
<g id="a_node19"><a xlink:href="classv8_1_1Uint8Array.html" target="_top" xlink:title=" ">
<polygon fill="white" stroke="#666666" points="650.62,-573.25 573.88,-573.25 573.88,-554 650.62,-554 650.62,-573.25"/>
<text text-anchor="middle" x="612.25" y="-559.75" font-family="Helvetica,sans-Serif" font-size="10.00">v8::Uint8Array</text>
</a>
</g>
</g>
<!-- Node9&#45;&gt;Node19 -->
<g id="edge18" class="edge">
<title>Node9&#45;&gt;Node19</title>
<path fill="none" stroke="#63b8ff" d="M486.22,-691.5C496.23,-662.95 518.39,-610.93 554.75,-581.62 560.2,-577.23 566.74,-573.9 573.41,-571.38"/>
<polygon fill="#63b8ff" stroke="#63b8ff" points="482.61,-690.25 482.77,-700.84 489.25,-692.46 482.61,-690.25"/>
</g>
<!-- Node20 -->
<g id="node20" class="node">
<title>Node20</title>
<g id="a_node20"><a xlink:href="classv8_1_1Uint8ClampedArray.html" target="_top" xlink:title=" ">
<polygon fill="white" stroke="#666666" points="669.75,-536.25 554.75,-536.25 554.75,-517 669.75,-517 669.75,-536.25"/>
<text text-anchor="middle" x="612.25" y="-522.75" font-family="Helvetica,sans-Serif" font-size="10.00">v8::Uint8ClampedArray</text>
</a>
</g>
</g>
<!-- Node9&#45;&gt;Node20 -->
<g id="edge19" class="edge">
<title>Node9&#45;&gt;Node20</title>
<path fill="none" stroke="#63b8ff" d="M483.41,-691.33C490.56,-656.34 510.03,-584.55 554.75,-544.62 558.28,-541.47 562.37,-538.87 566.7,-536.72"/>
<polygon fill="#63b8ff" stroke="#63b8ff" points="479.87,-690.21 481.44,-700.69 486.75,-691.52 479.87,-690.21"/>
</g>
<!-- Node37 -->
<g id="node37" class="node">
<title>Node37</title>
<g id="a_node37"><a xlink:href="classv8_1_1BigInt.html" target="_top" xlink:title=" ">
<polygon fill="white" stroke="#666666" points="371.88,-148.25 315.38,-148.25 315.38,-129 371.88,-129 371.88,-148.25"/>
<text text-anchor="middle" x="343.62" y="-134.75" font-family="Helvetica,sans-Serif" font-size="10.00">v8::BigInt</text>
</a>
</g>
</g>
<!-- Node36&#45;&gt;Node37 -->
<g id="edge36" class="edge">
<title>Node36&#45;&gt;Node37</title>
<path fill="none" stroke="#63b8ff" d="M258.92,-114.43C277.54,-119.81 298.63,-125.91 314.97,-130.63"/>
<polygon fill="#63b8ff" stroke="#63b8ff" points="260.17,-110.86 249.59,-111.44 258.23,-117.58 260.17,-110.86"/>
</g>
<!-- Node38 -->
<g id="node38" class="node">
<title>Node38</title>
<g id="a_node38"><a xlink:href="classv8_1_1Boolean.html" target="_top" xlink:title=" ">
<polygon fill="white" stroke="#666666" points="376.75,-111.25 310.5,-111.25 310.5,-92 376.75,-92 376.75,-111.25"/>
<text text-anchor="middle" x="343.62" y="-97.75" font-family="Helvetica,sans-Serif" font-size="10.00">v8::Boolean</text>
</a>
</g>
</g>
<!-- Node36&#45;&gt;Node38 -->
<g id="edge37" class="edge">
<title>Node36&#45;&gt;Node38</title>
<path fill="none" stroke="#63b8ff" d="M259.28,-101.62C276.07,-101.62 294.81,-101.62 310.27,-101.62"/>
<polygon fill="#63b8ff" stroke="#63b8ff" points="259.59,-98.13 249.59,-101.62 259.59,-105.13 259.59,-98.13"/>
</g>
<!-- Node39 -->
<g id="node39" class="node">
<title>Node39</title>
<g id="a_node39"><a xlink:href="classv8_1_1Name.html" target="_top" xlink:title=" ">
<polygon fill="white" stroke="#666666" points="372.25,-74.25 315,-74.25 315,-55 372.25,-55 372.25,-74.25"/>
<text text-anchor="middle" x="343.62" y="-60.75" font-family="Helvetica,sans-Serif" font-size="10.00">v8::Name</text>
</a>
</g>
</g>
<!-- Node36&#45;&gt;Node39 -->
<g id="edge38" class="edge">
<title>Node36&#45;&gt;Node39</title>
<path fill="none" stroke="#63b8ff" d="M259.11,-88.77C277.52,-83.44 298.32,-77.43 314.56,-72.74"/>
<polygon fill="#63b8ff" stroke="#63b8ff" points="258.23,-85.67 249.59,-91.81 260.17,-92.39 258.23,-85.67"/>
</g>
<!-- Node42 -->
<g id="node42" class="node">
<title>Node42</title>
<g id="a_node42"><a xlink:href="classv8_1_1Number.html" target="_top" xlink:title=" ">
<polygon fill="white" stroke="#666666" points="376.38,-37.25 310.88,-37.25 310.88,-18 376.38,-18 376.38,-37.25"/>
<text text-anchor="middle" x="343.62" y="-23.75" font-family="Helvetica,sans-Serif" font-size="10.00">v8::Number</text>
</a>
</g>
</g>
<!-- Node36&#45;&gt;Node42 -->
<g id="edge41" class="edge">
<title>Node36&#45;&gt;Node42</title>
<path fill="none" stroke="#63b8ff" d="M232.43,-84.11C245.75,-71.85 264.92,-55.89 284.25,-45.62 292.4,-41.3 301.75,-37.83 310.55,-35.14"/>
<polygon fill="#63b8ff" stroke="#63b8ff" points="230.44,-81.12 225.58,-90.54 235.25,-86.21 230.44,-81.12"/>
</g>
<!-- Node40 -->
<g id="node40" class="node">
<title>Node40</title>
<g id="a_node40"><a xlink:href="classv8_1_1String.html" target="_top" xlink:title=" ">
<polygon fill="white" stroke="#666666" points="507.12,-111.25 450.62,-111.25 450.62,-92 507.12,-92 507.12,-111.25"/>
<text text-anchor="middle" x="478.88" y="-97.75" font-family="Helvetica,sans-Serif" font-size="10.00">v8::String</text>
</a>
</g>
</g>
<!-- Node39&#45;&gt;Node40 -->
<g id="edge39" class="edge">
<title>Node39&#45;&gt;Node40</title>
<path fill="none" stroke="#63b8ff" d="M383.01,-75.28C404.57,-81.27 430.96,-88.6 450.43,-94.01"/>
<polygon fill="#63b8ff" stroke="#63b8ff" points="384.13,-71.68 373.56,-72.38 382.26,-78.43 384.13,-71.68"/>
</g>
<!-- Node41 -->
<g id="node41" class="node">
<title>Node41</title>
<g id="a_node41"><a xlink:href="classv8_1_1Symbol.html" target="_top" xlink:title=" ">
<polygon fill="white" stroke="#666666" points="510.5,-74.25 447.25,-74.25 447.25,-55 510.5,-55 510.5,-74.25"/>
<text text-anchor="middle" x="478.88" y="-60.75" font-family="Helvetica,sans-Serif" font-size="10.00">v8::Symbol</text>
</a>
</g>
</g>
<!-- Node39&#45;&gt;Node41 -->
<g id="edge40" class="edge">
<title>Node39&#45;&gt;Node41</title>
<path fill="none" stroke="#63b8ff" d="M383.35,-64.62C403.66,-64.62 428.2,-64.62 447.19,-64.62"/>
<polygon fill="#63b8ff" stroke="#63b8ff" points="383.56,-61.13 373.56,-64.62 383.56,-68.13 383.56,-61.13"/>
</g>
<!-- Node43 -->
<g id="node43" class="node">
<title>Node43</title>
<g id="a_node43"><a xlink:href="classv8_1_1Integer.html" target="_top" xlink:title=" ">
<polygon fill="white" stroke="#666666" points="509.38,-37.25 448.38,-37.25 448.38,-18 509.38,-18 509.38,-37.25"/>
<text text-anchor="middle" x="478.88" y="-23.75" font-family="Helvetica,sans-Serif" font-size="10.00">v8::Integer</text>
</a>
</g>
</g>
<!-- Node42&#45;&gt;Node43 -->
<g id="edge42" class="edge">
<title>Node42&#45;&gt;Node43</title>
<path fill="none" stroke="#63b8ff" d="M387.44,-27.62C407.21,-27.62 430.19,-27.62 448.04,-27.62"/>
<polygon fill="#63b8ff" stroke="#63b8ff" points="387.54,-24.13 377.54,-27.62 387.54,-31.13 387.54,-24.13"/>
</g>
<!-- Node44 -->
<g id="node44" class="node">
<title>Node44</title>
<g id="a_node44"><a xlink:href="classv8_1_1Int32.html" target="_top" xlink:title=" ">
<polygon fill="white" stroke="#666666" points="638.62,-56.25 585.88,-56.25 585.88,-37 638.62,-37 638.62,-56.25"/>
<text text-anchor="middle" x="612.25" y="-42.75" font-family="Helvetica,sans-Serif" font-size="10.00">v8::Int32</text>
</a>
</g>
</g>
<!-- Node43&#45;&gt;Node44 -->
<g id="edge43" class="edge">
<title>Node43&#45;&gt;Node44</title>
<path fill="none" stroke="#63b8ff" d="M520.36,-33.48C541.61,-36.55 567.01,-40.23 585.55,-42.91"/>
<polygon fill="#63b8ff" stroke="#63b8ff" points="521.08,-29.9 510.69,-31.94 520.08,-36.83 521.08,-29.9"/>
</g>
<!-- Node45 -->
<g id="node45" class="node">
<title>Node45</title>
<g id="a_node45"><a xlink:href="classv8_1_1Uint32.html" target="_top" xlink:title=" ">
<polygon fill="white" stroke="#666666" points="642,-19.25 582.5,-19.25 582.5,0 642,0 642,-19.25"/>
<text text-anchor="middle" x="612.25" y="-5.75" font-family="Helvetica,sans-Serif" font-size="10.00">v8::Uint32</text>
</a>
</g>
</g>
<!-- Node43&#45;&gt;Node45 -->
<g id="edge44" class="edge">
<title>Node43&#45;&gt;Node45</title>
<path fill="none" stroke="#63b8ff" d="M520.33,-22.08C540.26,-19.35 563.85,-16.12 582.01,-13.63"/>
<polygon fill="#63b8ff" stroke="#63b8ff" points="520.12,-18.72 510.69,-23.54 521.07,-25.65 520.12,-18.72"/>
</g>
</g>
</svg>
