<?xml version="1.0" encoding="UTF-8" standalone="no"?>
<!DOCTYPE svg PUBLIC "-//W3C//DTD SVG 1.1//EN"
 "http://www.w3.org/Graphics/SVG/1.1/DTD/svg11.dtd">
<!-- Generated by graphviz version 8.0.5 (20230430.1635)
 -->
<!-- Title: include/cppgc/cross&#45;thread&#45;persistent.h Pages: 1 -->
<svg width="1312pt" height="592pt"
 viewBox="0.00 0.00 1312.00 592.00" xmlns="http://www.w3.org/2000/svg" xmlns:xlink="http://www.w3.org/1999/xlink">
<g id="graph0" class="graph" transform="scale(1 1) rotate(0) translate(4 588)">
<title>include/cppgc/cross&#45;thread&#45;persistent.h</title>
<!-- Node1 -->
<g id="node1" class="node">
<title>Node1</title>
<g id="a_node1"><a xlink:title=" ">
<polygon fill="#999999" stroke="#666666" points="714.5,-584 611.5,-584 611.5,-553.5 714.5,-553.5 714.5,-584"/>
<text text-anchor="start" x="619.5" y="-570.5" font-family="Helvetica,sans-Serif" font-size="10.00">include/cppgc/cross</text>
<text text-anchor="middle" x="663" y="-559.25" font-family="Helvetica,sans-Serif" font-size="10.00">&#45;thread&#45;persistent.h</text>
</a>
</g>
</g>
<!-- Node2 -->
<g id="node2" class="node">
<title>Node2</title>
<g id="a_node2"><a xlink:title=" ">
<polygon fill="#e0e0e0" stroke="#999999" points="1008.62,-19.25 963.38,-19.25 963.38,0 1008.62,0 1008.62,-19.25"/>
<text text-anchor="middle" x="986" y="-5.75" font-family="Helvetica,sans-Serif" font-size="10.00">atomic</text>
</a>
</g>
</g>
<!-- Node1&#45;&gt;Node2 -->
<g id="edge1" class="edge">
<title>Node1&#45;&gt;Node2</title>
<path fill="none" stroke="#63b8ff" d="M611.25,-564.3C455.22,-553.21 0,-515.56 0,-453.62 0,-453.62 0,-453.62 0,-136 0,-88.5 27.29,-76.02 70,-55.25 150.49,-16.1 796.36,-11.3 952.24,-10.71"/>
<polygon fill="#63b8ff" stroke="#63b8ff" points="952.01,-14.21 962,-10.67 951.99,-7.21 952.01,-14.21"/>
</g>
<!-- Node3 -->
<g id="node3" class="node">
<title>Node3</title>
<g id="a_node3"><a xlink:href="persistent-node_8h.html" target="_top" xlink:title=" ">
<polygon fill="white" stroke="#666666" points="328.25,-407 205.75,-407 205.75,-376.5 328.25,-376.5 328.25,-407"/>
<text text-anchor="start" x="213.75" y="-393.5" font-family="Helvetica,sans-Serif" font-size="10.00">cppgc/internal/persistent</text>
<text text-anchor="middle" x="267" y="-382.25" font-family="Helvetica,sans-Serif" font-size="10.00">&#45;node.h</text>
</a>
</g>
</g>
<!-- Node1&#45;&gt;Node3 -->
<g id="edge2" class="edge">
<title>Node1&#45;&gt;Node3</title>
<path fill="none" stroke="#63b8ff" d="M629.92,-553.13C558.43,-521.54 389.6,-446.93 309.98,-411.74"/>
<polygon fill="#63b8ff" stroke="#63b8ff" points="311.83,-408.29 301.27,-407.45 309,-414.69 311.83,-408.29"/>
</g>
<!-- Node14 -->
<g id="node14" class="node">
<title>Node14</title>
<g id="a_node14"><a xlink:href="pointer-policies_8h.html" target="_top" xlink:title=" ">
<polygon fill="white" stroke="#666666" points="1216.5,-285.25 1107.5,-285.25 1107.5,-254.75 1216.5,-254.75 1216.5,-285.25"/>
<text text-anchor="start" x="1115.5" y="-271.75" font-family="Helvetica,sans-Serif" font-size="10.00">cppgc/internal/pointer</text>
<text text-anchor="middle" x="1162" y="-260.5" font-family="Helvetica,sans-Serif" font-size="10.00">&#45;policies.h</text>
</a>
</g>
</g>
<!-- Node1&#45;&gt;Node14 -->
<g id="edge17" class="edge">
<title>Node1&#45;&gt;Node14</title>
<path fill="none" stroke="#63b8ff" d="M714.93,-563.39C861.2,-550.43 1266,-509.5 1266,-453.62 1266,-453.62 1266,-453.62 1266,-390.75 1266,-347.7 1227.22,-312.58 1197.02,-291.75"/>
<polygon fill="#63b8ff" stroke="#63b8ff" points="1199.24,-288.36 1188.98,-285.75 1195.37,-294.19 1199.24,-288.36"/>
</g>
<!-- Node22 -->
<g id="node22" class="node">
<title>Node22</title>
<g id="a_node22"><a xlink:href="persistent_8h.html" target="_top" xlink:title=" ">
<polygon fill="white" stroke="#666666" points="907.75,-517.5 812.25,-517.5 812.25,-498.25 907.75,-498.25 907.75,-517.5"/>
<text text-anchor="middle" x="860" y="-504" font-family="Helvetica,sans-Serif" font-size="10.00">cppgc/persistent.h</text>
</a>
</g>
</g>
<!-- Node1&#45;&gt;Node22 -->
<g id="edge32" class="edge">
<title>Node1&#45;&gt;Node22</title>
<path fill="none" stroke="#63b8ff" d="M712.2,-553.05C745.13,-543.2 787.96,-530.4 819.03,-521.12"/>
<polygon fill="#63b8ff" stroke="#63b8ff" points="819.92,-524.21 828.5,-517.99 817.91,-517.5 819.92,-524.21"/>
</g>
<!-- Node23 -->
<g id="node23" class="node">
<title>Node23</title>
<g id="a_node23"><a xlink:href="visitor_8h.html" target="_top" xlink:title=" ">
<polygon fill="white" stroke="#666666" points="702.5,-462.25 623.5,-462.25 623.5,-443 702.5,-443 702.5,-462.25"/>
<text text-anchor="middle" x="663" y="-448.75" font-family="Helvetica,sans-Serif" font-size="10.00">cppgc/visitor.h</text>
</a>
</g>
</g>
<!-- Node1&#45;&gt;Node23 -->
<g id="edge82" class="edge">
<title>Node1&#45;&gt;Node23</title>
<path fill="none" stroke="#63b8ff" d="M663,-553.3C663,-533.06 663,-496.22 663,-473.44"/>
<polygon fill="#63b8ff" stroke="#63b8ff" points="666.5,-473.7 663,-463.7 659.5,-473.7 666.5,-473.7"/>
</g>
<!-- Node4 -->
<g id="node4" class="node">
<title>Node4</title>
<g id="a_node4"><a xlink:title=" ">
<polygon fill="#e0e0e0" stroke="#999999" points="241.5,-340.5 204.5,-340.5 204.5,-321.25 241.5,-321.25 241.5,-340.5"/>
<text text-anchor="middle" x="223" y="-327" font-family="Helvetica,sans-Serif" font-size="10.00">array</text>
</a>
</g>
</g>
<!-- Node3&#45;&gt;Node4 -->
<g id="edge3" class="edge">
<title>Node3&#45;&gt;Node4</title>
<path fill="none" stroke="#63b8ff" d="M256.12,-376.2C250.13,-368.18 242.65,-358.17 236.31,-349.69"/>
<polygon fill="#63b8ff" stroke="#63b8ff" points="238.57,-347.87 229.78,-341.95 232.97,-352.06 238.57,-347.87"/>
</g>
<!-- Node5 -->
<g id="node5" class="node">
<title>Node5</title>
<g id="a_node5"><a xlink:title=" ">
<polygon fill="#e0e0e0" stroke="#999999" points="129.25,-80.12 78.75,-80.12 78.75,-60.88 129.25,-60.88 129.25,-80.12"/>
<text text-anchor="middle" x="104" y="-66.62" font-family="Helvetica,sans-Serif" font-size="10.00">memory</text>
</a>
</g>
</g>
<!-- Node3&#45;&gt;Node5 -->
<g id="edge4" class="edge">
<title>Node3&#45;&gt;Node5</title>
<path fill="none" stroke="#63b8ff" d="M233.8,-376.1C183.7,-351.84 91,-298.01 57,-218.75 37.51,-173.3 70.43,-116.99 90.41,-89"/>
<polygon fill="#63b8ff" stroke="#63b8ff" points="93.68,-91.46 96.83,-81.34 88.06,-87.29 93.68,-91.46"/>
</g>
<!-- Node6 -->
<g id="node6" class="node">
<title>Node6</title>
<g id="a_node6"><a xlink:title=" ">
<polygon fill="#e0e0e0" stroke="#999999" points="241.5,-213.12 198.5,-213.12 198.5,-193.88 241.5,-193.88 241.5,-213.12"/>
<text text-anchor="middle" x="220" y="-199.62" font-family="Helvetica,sans-Serif" font-size="10.00">vector</text>
</a>
</g>
</g>
<!-- Node3&#45;&gt;Node6 -->
<g id="edge5" class="edge">
<title>Node3&#45;&gt;Node6</title>
<path fill="none" stroke="#63b8ff" d="M233.29,-376.17C218.73,-367.97 203.18,-356.18 195,-340.5 174.91,-301.98 195.72,-249.95 209.64,-222.77"/>
<polygon fill="#63b8ff" stroke="#63b8ff" points="213.05,-224.81 214.71,-214.35 206.89,-221.5 213.05,-224.81"/>
</g>
<!-- Node7 -->
<g id="node7" class="node">
<title>Node7</title>
<g id="a_node7"><a xlink:href="logging_8h.html" target="_top" xlink:title=" ">
<polygon fill="white" stroke="#666666" points="968,-340.5 850,-340.5 850,-321.25 968,-321.25 968,-340.5"/>
<text text-anchor="middle" x="909" y="-327" font-family="Helvetica,sans-Serif" font-size="10.00">cppgc/internal/logging.h</text>
</a>
</g>
</g>
<!-- Node3&#45;&gt;Node7 -->
<g id="edge6" class="edge">
<title>Node3&#45;&gt;Node7</title>
<path fill="none" stroke="#63b8ff" d="M328.38,-377.79C331.29,-377.32 334.17,-376.89 337,-376.5 556.02,-346.51 615.67,-362.13 838.93,-340.64"/>
<polygon fill="#63b8ff" stroke="#63b8ff" points="839.07,-344.05 848.68,-339.59 838.39,-337.08 839.07,-344.05"/>
</g>
<!-- Node10 -->
<g id="node10" class="node">
<title>Node10</title>
<g id="a_node10"><a xlink:href="v8config_8h.html" target="_top" xlink:title=" ">
<polygon fill="white" stroke="#666666" points="706.75,-80.12 647.25,-80.12 647.25,-60.88 706.75,-60.88 706.75,-80.12"/>
<text text-anchor="middle" x="677" y="-66.62" font-family="Helvetica,sans-Serif" font-size="10.00">v8config.h</text>
</a>
</g>
</g>
<!-- Node3&#45;&gt;Node10 -->
<g id="edge16" class="edge">
<title>Node3&#45;&gt;Node10</title>
<path fill="none" stroke="#63b8ff" d="M269.87,-376.25C279.99,-329.43 318.8,-181.79 416,-121.75 484.9,-79.18 582.01,-71.36 636.26,-70.66"/>
<polygon fill="#63b8ff" stroke="#63b8ff" points="636.18,-74.15 646.16,-70.6 636.14,-67.15 636.18,-74.15"/>
</g>
<!-- Node11 -->
<g id="node11" class="node">
<title>Node11</title>
<g id="a_node11"><a xlink:href="trace-trait_8h.html" target="_top" xlink:title=" ">
<polygon fill="white" stroke="#666666" points="574,-340.5 480,-340.5 480,-321.25 574,-321.25 574,-340.5"/>
<text text-anchor="middle" x="527" y="-327" font-family="Helvetica,sans-Serif" font-size="10.00">cppgc/trace&#45;trait.h</text>
</a>
</g>
</g>
<!-- Node3&#45;&gt;Node11 -->
<g id="edge11" class="edge">
<title>Node3&#45;&gt;Node11</title>
<path fill="none" stroke="#63b8ff" d="M328.62,-376.8C373.65,-366.6 433.99,-352.94 476.26,-343.37"/>
<polygon fill="#63b8ff" stroke="#63b8ff" points="476.88,-346.59 485.86,-340.96 475.33,-339.76 476.88,-346.59"/>
</g>
<!-- Node8 -->
<g id="node8" class="node">
<title>Node8</title>
<g id="a_node8"><a xlink:href="source-location_8h.html" target="_top" xlink:title=" ">
<polygon fill="white" stroke="#666666" points="1056.38,-213.12 937.62,-213.12 937.62,-193.88 1056.38,-193.88 1056.38,-213.12"/>
<text text-anchor="middle" x="997" y="-199.62" font-family="Helvetica,sans-Serif" font-size="10.00">cppgc/source&#45;location.h</text>
</a>
</g>
</g>
<!-- Node7&#45;&gt;Node8 -->
<g id="edge7" class="edge">
<title>Node7&#45;&gt;Node8</title>
<path fill="none" stroke="#63b8ff" d="M915.42,-321.01C921.91,-312.03 932.21,-297.72 941,-285.25 956.14,-263.77 973.34,-238.91 984.63,-222.51"/>
<polygon fill="#63b8ff" stroke="#63b8ff" points="988.05,-224.72 990.83,-214.49 982.28,-220.75 988.05,-224.72"/>
</g>
<!-- Node7&#45;&gt;Node10 -->
<g id="edge10" class="edge">
<title>Node7&#45;&gt;Node10</title>
<path fill="none" stroke="#63b8ff" d="M905.35,-321.13C899.13,-306.67 885.63,-277.18 870,-254.75 824.32,-189.18 809.03,-174.5 749,-121.75 733.97,-108.54 715.43,-95.67 700.92,-86.26"/>
<polygon fill="#63b8ff" stroke="#63b8ff" points="703.37,-83.03 693.05,-80.61 699.6,-88.93 703.37,-83.03"/>
</g>
<!-- Node9 -->
<g id="node9" class="node">
<title>Node9</title>
<g id="a_node9"><a xlink:title=" ">
<polygon fill="#e0e0e0" stroke="#999999" points="485,-80.12 445,-80.12 445,-60.88 485,-60.88 485,-80.12"/>
<text text-anchor="middle" x="465" y="-66.62" font-family="Helvetica,sans-Serif" font-size="10.00">string</text>
</a>
</g>
</g>
<!-- Node8&#45;&gt;Node9 -->
<g id="edge8" class="edge">
<title>Node8&#45;&gt;Node9</title>
<path fill="none" stroke="#63b8ff" d="M960.01,-193.39C860.48,-168.88 588.28,-101.86 496.04,-79.14"/>
<polygon fill="#63b8ff" stroke="#63b8ff" points="497.01,-75.53 486.46,-76.54 495.34,-82.33 497.01,-75.53"/>
</g>
<!-- Node8&#45;&gt;Node10 -->
<g id="edge9" class="edge">
<title>Node8&#45;&gt;Node10</title>
<path fill="none" stroke="#63b8ff" d="M985.79,-193.47C962.11,-174.54 907.42,-131.64 886,-121.75 830.67,-96.21 760.9,-82.81 717.61,-76.45"/>
<polygon fill="#63b8ff" stroke="#63b8ff" points="718.33,-72.88 707.94,-74.95 717.35,-79.81 718.33,-72.88"/>
</g>
<!-- Node11&#45;&gt;Node10 -->
<g id="edge15" class="edge">
<title>Node11&#45;&gt;Node10</title>
<path fill="none" stroke="#63b8ff" d="M531.85,-321.05C539.6,-306.97 555.31,-278.59 569,-254.75 603.84,-194.06 646.28,-122.81 665.97,-89.89"/>
<polygon fill="#63b8ff" stroke="#63b8ff" points="669.4,-91.99 671.53,-81.61 663.39,-88.39 669.4,-91.99"/>
</g>
<!-- Node12 -->
<g id="node12" class="node">
<title>Node12</title>
<g id="a_node12"><a xlink:title=" ">
<polygon fill="#e0e0e0" stroke="#999999" points="756.5,-213.12 695.5,-213.12 695.5,-193.88 756.5,-193.88 756.5,-213.12"/>
<text text-anchor="middle" x="726" y="-199.62" font-family="Helvetica,sans-Serif" font-size="10.00">type_traits</text>
</a>
</g>
</g>
<!-- Node11&#45;&gt;Node12 -->
<g id="edge12" class="edge">
<title>Node11&#45;&gt;Node12</title>
<path fill="none" stroke="#63b8ff" d="M535.46,-321.05C550.27,-305.97 582.35,-274.9 614,-254.75 638.05,-239.43 667.56,-226.4 690.25,-217.45"/>
<polygon fill="#63b8ff" stroke="#63b8ff" points="691.4,-220.37 699.47,-213.51 688.88,-213.84 691.4,-220.37"/>
</g>
<!-- Node13 -->
<g id="node13" class="node">
<title>Node13</title>
<g id="a_node13"><a xlink:href="type-traits_8h.html" target="_top" xlink:title=" ">
<polygon fill="white" stroke="#666666" points="718.75,-279.62 623.25,-279.62 623.25,-260.38 718.75,-260.38 718.75,-279.62"/>
<text text-anchor="middle" x="671" y="-266.12" font-family="Helvetica,sans-Serif" font-size="10.00">cppgc/type&#45;traits.h</text>
</a>
</g>
</g>
<!-- Node11&#45;&gt;Node13 -->
<g id="edge13" class="edge">
<title>Node11&#45;&gt;Node13</title>
<path fill="none" stroke="#63b8ff" d="M549.18,-320.8C573.25,-310.97 611.88,-295.17 639.17,-284.01"/>
<polygon fill="#63b8ff" stroke="#63b8ff" points="640.1,-287.01 648.03,-279.98 637.45,-280.53 640.1,-287.01"/>
</g>
<!-- Node13&#45;&gt;Node12 -->
<g id="edge14" class="edge">
<title>Node13&#45;&gt;Node12</title>
<path fill="none" stroke="#63b8ff" d="M678.65,-260.03C687.1,-250.12 700.92,-233.91 711.45,-221.56"/>
<polygon fill="#63b8ff" stroke="#63b8ff" points="714.59,-224.27 718.42,-214.39 709.27,-219.73 714.59,-224.27"/>
</g>
<!-- Node14&#45;&gt;Node8 -->
<g id="edge30" class="edge">
<title>Node14&#45;&gt;Node8</title>
<path fill="none" stroke="#63b8ff" d="M1124.56,-254.36C1096.19,-243.27 1057.56,-228.17 1030.27,-217.5"/>
<polygon fill="#63b8ff" stroke="#63b8ff" points="1031.64,-213.89 1021.05,-213.51 1029.09,-220.41 1031.64,-213.89"/>
</g>
<!-- Node14&#45;&gt;Node10 -->
<g id="edge31" class="edge">
<title>Node14&#45;&gt;Node10</title>
<path fill="none" stroke="#63b8ff" d="M1144.77,-254.39C1118.1,-231.81 1069.41,-190.75 1065,-188.25 1022.8,-164.36 1004.7,-175.24 962,-152.25 942.31,-141.65 942.35,-131.01 922,-121.75 854.39,-91 767.74,-78.91 717.69,-74.27"/>
<polygon fill="#63b8ff" stroke="#63b8ff" points="718.25,-70.72 707.98,-73.34 717.64,-77.69 718.25,-70.72"/>
</g>
<!-- Node14&#45;&gt;Node12 -->
<g id="edge19" class="edge">
<title>Node14&#45;&gt;Node12</title>
<path fill="none" stroke="#63b8ff" d="M1107.22,-260.9C1018.75,-247.81 846.37,-222.31 767.36,-210.62"/>
<polygon fill="#63b8ff" stroke="#63b8ff" points="768.26,-207.07 757.85,-209.06 767.23,-213.99 768.26,-207.07"/>
</g>
<!-- Node15 -->
<g id="node15" class="node">
<title>Node15</title>
<g id="a_node15"><a xlink:title=" ">
<polygon fill="#e0e0e0" stroke="#999999" points="1275.62,-213.12 1230.38,-213.12 1230.38,-193.88 1275.62,-193.88 1275.62,-213.12"/>
<text text-anchor="middle" x="1253" y="-199.62" font-family="Helvetica,sans-Serif" font-size="10.00">cstdint</text>
</a>
</g>
</g>
<!-- Node14&#45;&gt;Node15 -->
<g id="edge18" class="edge">
<title>Node14&#45;&gt;Node15</title>
<path fill="none" stroke="#63b8ff" d="M1182.65,-254.36C1197.19,-244.06 1216.61,-230.29 1231.37,-219.83"/>
<polygon fill="#63b8ff" stroke="#63b8ff" points="1233.15,-222.15 1239.29,-213.51 1229.11,-216.44 1233.15,-222.15"/>
</g>
<!-- Node16 -->
<g id="node16" class="node">
<title>Node16</title>
<g id="a_node16"><a xlink:href="write-barrier_8h.html" target="_top" xlink:title=" ">
<polygon fill="white" stroke="#666666" points="1212.38,-218.75 1111.62,-218.75 1111.62,-188.25 1212.38,-188.25 1212.38,-218.75"/>
<text text-anchor="start" x="1119.62" y="-205.25" font-family="Helvetica,sans-Serif" font-size="10.00">cppgc/internal/write</text>
<text text-anchor="middle" x="1162" y="-194" font-family="Helvetica,sans-Serif" font-size="10.00">&#45;barrier.h</text>
</a>
</g>
</g>
<!-- Node14&#45;&gt;Node16 -->
<g id="edge20" class="edge">
<title>Node14&#45;&gt;Node16</title>
<path fill="none" stroke="#63b8ff" d="M1162,-254.36C1162,-247.11 1162,-238.13 1162,-229.81"/>
<polygon fill="#63b8ff" stroke="#63b8ff" points="1165.5,-230.08 1162,-220.08 1158.5,-230.08 1165.5,-230.08"/>
</g>
<!-- Node16&#45;&gt;Node10 -->
<g id="edge29" class="edge">
<title>Node16&#45;&gt;Node10</title>
<path fill="none" stroke="#63b8ff" d="M1126.94,-187.88C1074.11,-165.92 978.51,-126.48 962,-121.75 876.83,-97.34 773.76,-82.71 717.86,-75.98"/>
<polygon fill="#63b8ff" stroke="#63b8ff" points="718.35,-72.39 708,-74.7 717.53,-79.34 718.35,-72.39"/>
</g>
<!-- Node17 -->
<g id="node17" class="node">
<title>Node17</title>
<g id="a_node17"><a xlink:href="api-constants_8h.html" target="_top" xlink:title=" ">
<polygon fill="white" stroke="#666666" points="351.25,-152.25 258.75,-152.25 258.75,-121.75 351.25,-121.75 351.25,-152.25"/>
<text text-anchor="start" x="266.75" y="-138.75" font-family="Helvetica,sans-Serif" font-size="10.00">cppgc/internal/api</text>
<text text-anchor="middle" x="305" y="-127.5" font-family="Helvetica,sans-Serif" font-size="10.00">&#45;constants.h</text>
</a>
</g>
</g>
<!-- Node16&#45;&gt;Node17 -->
<g id="edge21" class="edge">
<title>Node16&#45;&gt;Node17</title>
<path fill="none" stroke="#63b8ff" d="M1111.26,-194.18C1096.39,-191.98 1080.07,-189.79 1065,-188.25 786.43,-159.87 715.05,-175.4 436,-152.25 411.9,-150.25 385.37,-147.47 362.52,-144.9"/>
<polygon fill="#63b8ff" stroke="#63b8ff" points="362.96,-141.31 352.63,-143.66 362.17,-148.27 362.96,-141.31"/>
</g>
<!-- Node20 -->
<g id="node20" class="node">
<title>Node20</title>
<g id="a_node20"><a xlink:href="process-heap_8h.html" target="_top" xlink:title=" ">
<polygon fill="white" stroke="#666666" points="1166.12,-152.25 1051.88,-152.25 1051.88,-121.75 1166.12,-121.75 1166.12,-152.25"/>
<text text-anchor="start" x="1059.88" y="-138.75" font-family="Helvetica,sans-Serif" font-size="10.00">cppgc/internal/process</text>
<text text-anchor="middle" x="1109" y="-127.5" font-family="Helvetica,sans-Serif" font-size="10.00">&#45;heap.h</text>
</a>
</g>
</g>
<!-- Node16&#45;&gt;Node20 -->
<g id="edge25" class="edge">
<title>Node16&#45;&gt;Node20</title>
<path fill="none" stroke="#63b8ff" d="M1149.97,-187.86C1143.47,-179.95 1135.28,-169.99 1127.94,-161.05"/>
<polygon fill="#63b8ff" stroke="#63b8ff" points="1130.03,-159.08 1120.98,-153.58 1124.62,-163.53 1130.03,-159.08"/>
</g>
<!-- Node17&#45;&gt;Node10 -->
<g id="edge24" class="edge">
<title>Node17&#45;&gt;Node10</title>
<path fill="none" stroke="#63b8ff" d="M351.44,-124.61C356.01,-123.6 360.59,-122.63 365,-121.75 461.81,-102.49 576.64,-85.48 636.35,-77.07"/>
<polygon fill="#63b8ff" stroke="#63b8ff" points="636.77,-80.41 646.19,-75.56 635.8,-73.48 636.77,-80.41"/>
</g>
<!-- Node18 -->
<g id="node18" class="node">
<title>Node18</title>
<g id="a_node18"><a xlink:title=" ">
<polygon fill="#e0e0e0" stroke="#999999" points="198.25,-80.12 147.75,-80.12 147.75,-60.88 198.25,-60.88 198.25,-80.12"/>
<text text-anchor="middle" x="173" y="-66.62" font-family="Helvetica,sans-Serif" font-size="10.00">stddef.h</text>
</a>
</g>
</g>
<!-- Node17&#45;&gt;Node18 -->
<g id="edge22" class="edge">
<title>Node17&#45;&gt;Node18</title>
<path fill="none" stroke="#63b8ff" d="M275.05,-121.36C252.85,-110.52 222.81,-95.84 201.08,-85.22"/>
<polygon fill="#63b8ff" stroke="#63b8ff" points="202.96,-81.76 192.44,-80.51 199.89,-88.04 202.96,-81.76"/>
</g>
<!-- Node19 -->
<g id="node19" class="node">
<title>Node19</title>
<g id="a_node19"><a xlink:title=" ">
<polygon fill="#e0e0e0" stroke="#999999" points="328.75,-80.12 281.25,-80.12 281.25,-60.88 328.75,-60.88 328.75,-80.12"/>
<text text-anchor="middle" x="305" y="-66.62" font-family="Helvetica,sans-Serif" font-size="10.00">stdint.h</text>
</a>
</g>
</g>
<!-- Node17&#45;&gt;Node19 -->
<g id="edge23" class="edge">
<title>Node17&#45;&gt;Node19</title>
<path fill="none" stroke="#63b8ff" d="M305,-121.36C305,-112.38 305,-100.76 305,-91.01"/>
<polygon fill="#63b8ff" stroke="#63b8ff" points="308.5,-91.32 305,-81.32 301.5,-91.32 308.5,-91.32"/>
</g>
<!-- Node20&#45;&gt;Node10 -->
<g id="edge28" class="edge">
<title>Node20&#45;&gt;Node10</title>
<path fill="none" stroke="#63b8ff" d="M1051.7,-124.19C1047.07,-123.33 1042.46,-122.51 1038,-121.75 922.41,-102.12 785.04,-84.58 717.96,-76.39"/>
<polygon fill="#63b8ff" stroke="#63b8ff" points="718.39,-72.8 708.05,-75.07 717.55,-79.75 718.39,-72.8"/>
</g>
<!-- Node21 -->
<g id="node21" class="node">
<title>Node21</title>
<g id="a_node21"><a xlink:href="atomic-entry-flag_8h.html" target="_top" xlink:title=" ">
<polygon fill="white" stroke="#666666" points="1143.5,-85.75 1034.5,-85.75 1034.5,-55.25 1143.5,-55.25 1143.5,-85.75"/>
<text text-anchor="start" x="1042.5" y="-72.25" font-family="Helvetica,sans-Serif" font-size="10.00">cppgc/internal/atomic</text>
<text text-anchor="middle" x="1089" y="-61" font-family="Helvetica,sans-Serif" font-size="10.00">&#45;entry&#45;flag.h</text>
</a>
</g>
</g>
<!-- Node20&#45;&gt;Node21 -->
<g id="edge26" class="edge">
<title>Node20&#45;&gt;Node21</title>
<path fill="none" stroke="#63b8ff" d="M1104.46,-121.36C1102.19,-114.02 1099.37,-104.93 1096.76,-96.52"/>
<polygon fill="#63b8ff" stroke="#63b8ff" points="1099.83,-95.59 1093.52,-87.08 1093.14,-97.67 1099.83,-95.59"/>
</g>
<!-- Node21&#45;&gt;Node2 -->
<g id="edge27" class="edge">
<title>Node21&#45;&gt;Node2</title>
<path fill="none" stroke="#63b8ff" d="M1063.27,-54.8C1047.29,-45.66 1026.83,-33.97 1010.99,-24.91"/>
<polygon fill="#63b8ff" stroke="#63b8ff" points="1013.21,-21.58 1002.8,-19.65 1009.74,-27.66 1013.21,-21.58"/>
</g>
<!-- Node22&#45;&gt;Node3 -->
<g id="edge34" class="edge">
<title>Node22&#45;&gt;Node3</title>
<path fill="none" stroke="#63b8ff" d="M812.07,-498.38C762.65,-489.56 683.38,-475.27 615,-462.25 494.64,-439.33 462.25,-432.23 339.07,-407.41"/>
<polygon fill="#63b8ff" stroke="#63b8ff" points="339.95,-403.82 329.46,-405.28 338.57,-410.68 339.95,-403.82"/>
</g>
<!-- Node22&#45;&gt;Node8 -->
<g id="edge36" class="edge">
<title>Node22&#45;&gt;Node8</title>
<path fill="none" stroke="#63b8ff" d="M908.06,-502.87C972.53,-494.57 1079,-469.28 1079,-392.75 1079,-392.75 1079,-392.75 1079,-329.88 1079,-284.47 1040.87,-242.69 1016.61,-220.71"/>
<polygon fill="#63b8ff" stroke="#63b8ff" points="1019.24,-217.48 1009.4,-213.53 1014.63,-222.75 1019.24,-217.48"/>
</g>
<!-- Node22&#45;&gt;Node10 -->
<g id="edge81" class="edge">
<title>Node22&#45;&gt;Node10</title>
<path fill="none" stroke="#63b8ff" d="M908.22,-504.58C960.8,-500.7 1046.58,-490.26 1115,-462.25 1209.44,-423.59 1304,-433.92 1304,-331.88 1304,-331.88 1304,-331.88 1304,-202.5 1304,-82.32 857.02,-71.69 717.86,-71.3"/>
<polygon fill="#63b8ff" stroke="#63b8ff" points="718.25,-67.8 708.24,-71.29 718.24,-74.8 718.25,-67.8"/>
</g>
<!-- Node22&#45;&gt;Node12 -->
<g id="edge33" class="edge">
<title>Node22&#45;&gt;Node12</title>
<path fill="none" stroke="#63b8ff" d="M873.74,-497.82C912.24,-471.29 1015.87,-391.17 977,-321.25 934.79,-245.32 827.06,-218.41 767.37,-209.15"/>
<polygon fill="#63b8ff" stroke="#63b8ff" points="768.21,-205.59 757.81,-207.62 767.21,-212.52 768.21,-205.59"/>
</g>
<!-- Node22&#45;&gt;Node13 -->
<g id="edge37" class="edge">
<title>Node22&#45;&gt;Node13</title>
<path fill="none" stroke="#63b8ff" d="M851.86,-497.98C836.18,-480.75 800.91,-441.51 773,-407 739.59,-365.69 702.74,-315.24 683.8,-288.92"/>
<polygon fill="#63b8ff" stroke="#63b8ff" points="686.13,-287.17 677.46,-281.08 680.44,-291.25 686.13,-287.17"/>
</g>
<!-- Node22&#45;&gt;Node14 -->
<g id="edge35" class="edge">
<title>Node22&#45;&gt;Node14</title>
<path fill="none" stroke="#63b8ff" d="M908.12,-503.03C967.87,-497.36 1065.29,-484.89 1093,-462.25 1143.98,-420.59 1157.3,-338.1 1160.78,-296.41"/>
<polygon fill="#63b8ff" stroke="#63b8ff" points="1164.33,-296.78 1161.53,-286.56 1157.35,-296.29 1164.33,-296.78"/>
</g>
<!-- Node22&#45;&gt;Node23 -->
<g id="edge38" class="edge">
<title>Node22&#45;&gt;Node23</title>
<path fill="none" stroke="#63b8ff" d="M826.58,-497.84C793.61,-488.93 743.03,-475.26 706.85,-465.48"/>
<polygon fill="#63b8ff" stroke="#63b8ff" points="708.15,-461.93 697.58,-462.7 706.32,-468.69 708.15,-461.93"/>
</g>
<!-- Node23&#45;&gt;Node7 -->
<g id="edge63" class="edge">
<title>Node23&#45;&gt;Node7</title>
<path fill="none" stroke="#63b8ff" d="M702.89,-450.43C766.13,-447.6 884.94,-438.17 911,-407 923.78,-391.71 920.6,-367.92 915.95,-351.22"/>
<polygon fill="#63b8ff" stroke="#63b8ff" points="919.06,-350.44 912.68,-341.98 912.39,-352.57 919.06,-350.44"/>
</g>
<!-- Node23&#45;&gt;Node8 -->
<g id="edge78" class="edge">
<title>Node23&#45;&gt;Node8</title>
<path fill="none" stroke="#63b8ff" d="M702.97,-448.64C767.69,-443.2 891.91,-430.04 929,-407 991.79,-367.99 998.03,-266.97 997.71,-224.15"/>
<polygon fill="#63b8ff" stroke="#63b8ff" points="1001.19,-224.2 997.47,-214.28 994.19,-224.36 1001.19,-224.2"/>
</g>
<!-- Node23&#45;&gt;Node11 -->
<g id="edge79" class="edge">
<title>Node23&#45;&gt;Node11</title>
<path fill="none" stroke="#63b8ff" d="M623.14,-450.96C590.35,-448.04 545.73,-438.1 523,-407 511.23,-390.89 514.93,-367.26 519.83,-350.82"/>
<polygon fill="#63b8ff" stroke="#63b8ff" points="523.34,-352.36 523.24,-341.76 516.71,-350.11 523.34,-352.36"/>
</g>
<!-- Node23&#45;&gt;Node13 -->
<g id="edge80" class="edge">
<title>Node23&#45;&gt;Node13</title>
<path fill="none" stroke="#63b8ff" d="M663.39,-442.91C664.6,-415.44 668.38,-330.15 670.11,-291.01"/>
<polygon fill="#63b8ff" stroke="#63b8ff" points="673.65,-291.2 670.6,-281.05 666.66,-290.89 673.65,-291.2"/>
</g>
<!-- Node23&#45;&gt;Node14 -->
<g id="edge64" class="edge">
<title>Node23&#45;&gt;Node14</title>
<path fill="none" stroke="#63b8ff" d="M702.81,-450.93C790.08,-448.81 995.25,-440.32 1055,-407 1100.97,-381.36 1134.13,-327.12 1150.49,-295.43"/>
<polygon fill="#63b8ff" stroke="#63b8ff" points="1154.05,-297.14 1155.38,-286.62 1147.79,-294.01 1154.05,-297.14"/>
</g>
<!-- Node24 -->
<g id="node24" class="node">
<title>Node24</title>
<g id="a_node24"><a xlink:href="custom-space_8h.html" target="_top" xlink:title=" ">
<polygon fill="white" stroke="#666666" points="180.12,-213.12 65.88,-213.12 65.88,-193.88 180.12,-193.88 180.12,-213.12"/>
<text text-anchor="middle" x="123" y="-199.62" font-family="Helvetica,sans-Serif" font-size="10.00">cppgc/custom&#45;space.h</text>
</a>
</g>
</g>
<!-- Node23&#45;&gt;Node24 -->
<g id="edge39" class="edge">
<title>Node23&#45;&gt;Node24</title>
<path fill="none" stroke="#63b8ff" d="M623.14,-450.22C516.48,-446.12 230.4,-432.81 197,-407 138.36,-361.68 126.16,-265.34 123.64,-224"/>
<polygon fill="#63b8ff" stroke="#63b8ff" points="127.11,-224.09 123.14,-214.26 120.11,-224.42 127.11,-224.09"/>
</g>
<!-- Node25 -->
<g id="node25" class="node">
<title>Node25</title>
<g id="a_node25"><a xlink:href="ephemeron-pair_8h.html" target="_top" xlink:title=" ">
<polygon fill="white" stroke="#666666" points="901.75,-401.38 782.25,-401.38 782.25,-382.12 901.75,-382.12 901.75,-401.38"/>
<text text-anchor="middle" x="842" y="-387.88" font-family="Helvetica,sans-Serif" font-size="10.00">cppgc/ephemeron&#45;pair.h</text>
</a>
</g>
</g>
<!-- Node23&#45;&gt;Node25 -->
<g id="edge41" class="edge">
<title>Node23&#45;&gt;Node25</title>
<path fill="none" stroke="#63b8ff" d="M690.58,-442.55C721.06,-432.53 770.34,-416.32 804.36,-405.13"/>
<polygon fill="#63b8ff" stroke="#63b8ff" points="804.99,-408.28 813.39,-401.83 802.8,-401.63 804.99,-408.28"/>
</g>
<!-- Node26 -->
<g id="node26" class="node">
<title>Node26</title>
<g id="a_node26"><a xlink:href="member_8h.html" target="_top" xlink:title=" ">
<polygon fill="white" stroke="#666666" points="832,-340.5 744,-340.5 744,-321.25 832,-321.25 832,-340.5"/>
<text text-anchor="middle" x="788" y="-327" font-family="Helvetica,sans-Serif" font-size="10.00">cppgc/member.h</text>
</a>
</g>
</g>
<!-- Node23&#45;&gt;Node26 -->
<g id="edge77" class="edge">
<title>Node23&#45;&gt;Node26</title>
<path fill="none" stroke="#63b8ff" d="M672.4,-442.62C693.3,-422.6 743.91,-374.11 770.7,-348.45"/>
<polygon fill="#63b8ff" stroke="#63b8ff" points="772.7,-351.43 777.5,-341.98 767.85,-346.37 772.7,-351.43"/>
</g>
<!-- Node28 -->
<g id="node28" class="node">
<title>Node28</title>
<g id="a_node28"><a xlink:href="garbage-collected_8h.html" target="_top" xlink:title=" ">
<polygon fill="white" stroke="#666666" points="475.62,-401.38 346.38,-401.38 346.38,-382.12 475.62,-382.12 475.62,-401.38"/>
<text text-anchor="middle" x="411" y="-387.88" font-family="Helvetica,sans-Serif" font-size="10.00">cppgc/garbage&#45;collected.h</text>
</a>
</g>
</g>
<!-- Node23&#45;&gt;Node28 -->
<g id="edge49" class="edge">
<title>Node23&#45;&gt;Node28</title>
<path fill="none" stroke="#63b8ff" d="M624.18,-442.55C580.15,-432.27 508.27,-415.48 460.32,-404.27"/>
<polygon fill="#63b8ff" stroke="#63b8ff" points="461.4,-400.7 450.87,-401.83 459.81,-407.51 461.4,-400.7"/>
</g>
<!-- Node32 -->
<g id="node32" class="node">
<title>Node32</title>
<g id="a_node32"><a xlink:href="liveness-broker_8h.html" target="_top" xlink:title=" ">
<polygon fill="white" stroke="#666666" points="650.38,-401.38 531.62,-401.38 531.62,-382.12 650.38,-382.12 650.38,-401.38"/>
<text text-anchor="middle" x="591" y="-387.88" font-family="Helvetica,sans-Serif" font-size="10.00">cppgc/liveness&#45;broker.h</text>
</a>
</g>
</g>
<!-- Node23&#45;&gt;Node32 -->
<g id="edge65" class="edge">
<title>Node23&#45;&gt;Node32</title>
<path fill="none" stroke="#63b8ff" d="M652.06,-442.68C641.07,-433.69 623.88,-419.64 610.54,-408.73"/>
<polygon fill="#63b8ff" stroke="#63b8ff" points="613,-405.4 603.04,-401.78 608.56,-410.82 613,-405.4"/>
</g>
<!-- Node24&#45;&gt;Node18 -->
<g id="edge40" class="edge">
<title>Node24&#45;&gt;Node18</title>
<path fill="none" stroke="#63b8ff" d="M126.44,-193.5C134.5,-172.37 154.78,-119.24 165.72,-90.56"/>
<polygon fill="#63b8ff" stroke="#63b8ff" points="169.24,-92.16 169.54,-81.57 162.7,-89.66 169.24,-92.16"/>
</g>
<!-- Node25&#45;&gt;Node26 -->
<g id="edge42" class="edge">
<title>Node25&#45;&gt;Node26</title>
<path fill="none" stroke="#63b8ff" d="M833.8,-381.81C825.79,-373.08 813.4,-359.57 803.53,-348.8"/>
<polygon fill="#63b8ff" stroke="#63b8ff" points="806.62,-346.9 797.28,-341.9 801.46,-351.64 806.62,-346.9"/>
</g>
<!-- Node26&#45;&gt;Node2 -->
<g id="edge43" class="edge">
<title>Node26&#45;&gt;Node2</title>
<path fill="none" stroke="#63b8ff" d="M814.25,-320.89C832,-313.67 854.88,-301.95 870,-285.25 906.58,-244.87 961.44,-85.18 979.78,-29.72"/>
<polygon fill="#63b8ff" stroke="#63b8ff" points="983.33,-31.14 983.12,-20.55 976.68,-28.96 983.33,-31.14"/>
</g>
<!-- Node26&#45;&gt;Node10 -->
<g id="edge48" class="edge">
<title>Node26&#45;&gt;Node10</title>
<path fill="none" stroke="#63b8ff" d="M788.11,-320.84C788.07,-297.77 785.99,-235.18 766,-188.25 748.88,-148.06 714.79,-109.36 694.13,-88.16"/>
<polygon fill="#63b8ff" stroke="#63b8ff" points="696.97,-86.05 687.43,-81.44 692.01,-90.99 696.97,-86.05"/>
</g>
<!-- Node26&#45;&gt;Node12 -->
<g id="edge45" class="edge">
<title>Node26&#45;&gt;Node12</title>
<path fill="none" stroke="#63b8ff" d="M783.54,-320.86C773.44,-300.44 748.65,-250.31 735.14,-222.99"/>
<polygon fill="#63b8ff" stroke="#63b8ff" points="737.99,-221.85 730.42,-214.43 731.71,-224.95 737.99,-221.85"/>
</g>
<!-- Node26&#45;&gt;Node13 -->
<g id="edge47" class="edge">
<title>Node26&#45;&gt;Node13</title>
<path fill="none" stroke="#63b8ff" d="M769.98,-320.8C750.94,-311.23 720.69,-296 698.64,-284.91"/>
<polygon fill="#63b8ff" stroke="#63b8ff" points="700.36,-281.35 689.85,-279.98 697.21,-287.61 700.36,-281.35"/>
</g>
<!-- Node26&#45;&gt;Node14 -->
<g id="edge46" class="edge">
<title>Node26&#45;&gt;Node14</title>
<path fill="none" stroke="#63b8ff" d="M832.24,-322.65C835.21,-322.18 838.15,-321.71 841,-321.25 929.51,-307.12 1031.82,-291.17 1096.7,-281.1"/>
<polygon fill="#63b8ff" stroke="#63b8ff" points="1096.83,-284.47 1106.17,-279.48 1095.76,-277.55 1096.83,-284.47"/>
</g>
<!-- Node27 -->
<g id="node27" class="node">
<title>Node27</title>
<g id="a_node27"><a xlink:title=" ">
<polygon fill="#e0e0e0" stroke="#999999" points="861.12,-279.62 812.88,-279.62 812.88,-260.38 861.12,-260.38 861.12,-279.62"/>
<text text-anchor="middle" x="837" y="-266.12" font-family="Helvetica,sans-Serif" font-size="10.00">cstddef</text>
</a>
</g>
</g>
<!-- Node26&#45;&gt;Node27 -->
<g id="edge44" class="edge">
<title>Node26&#45;&gt;Node27</title>
<path fill="none" stroke="#63b8ff" d="M795.44,-320.93C802.64,-312.29 813.73,-298.96 822.64,-288.25"/>
<polygon fill="#63b8ff" stroke="#63b8ff" points="825.78,-290.95 829.49,-281.03 820.4,-286.47 825.78,-290.95"/>
</g>
<!-- Node28&#45;&gt;Node11 -->
<g id="edge61" class="edge">
<title>Node28&#45;&gt;Node11</title>
<path fill="none" stroke="#63b8ff" d="M428.87,-381.68C447.74,-372.1 477.74,-356.88 499.6,-345.78"/>
<polygon fill="#63b8ff" stroke="#63b8ff" points="500.97,-348.51 508.3,-340.86 497.8,-342.26 500.97,-348.51"/>
</g>
<!-- Node28&#45;&gt;Node12 -->
<g id="edge50" class="edge">
<title>Node28&#45;&gt;Node12</title>
<path fill="none" stroke="#63b8ff" d="M417.37,-381.98C427.68,-368.12 449.09,-340.75 471,-321.25 510.31,-286.25 521.67,-277.79 569,-254.75 606.57,-236.46 652.35,-222.69 684.76,-214.23"/>
<polygon fill="#63b8ff" stroke="#63b8ff" points="685.38,-217.43 694.2,-211.57 683.65,-210.65 685.38,-217.43"/>
</g>
<!-- Node28&#45;&gt;Node13 -->
<g id="edge62" class="edge">
<title>Node28&#45;&gt;Node13</title>
<path fill="none" stroke="#63b8ff" d="M459.97,-381.7C495.46,-373.91 543.88,-360.69 583,-340.5 610.4,-326.36 637.58,-303.11 654.33,-287.44"/>
<polygon fill="#63b8ff" stroke="#63b8ff" points="656.27,-290.47 661.08,-281.02 651.43,-285.41 656.27,-290.47"/>
</g>
<!-- Node28&#45;&gt;Node17 -->
<g id="edge51" class="edge">
<title>Node28&#45;&gt;Node17</title>
<path fill="none" stroke="#63b8ff" d="M401.96,-381.81C385.23,-364.72 349.59,-325.51 332,-285.25 314.36,-244.88 308.24,-193.42 306.12,-163.25"/>
<polygon fill="#63b8ff" stroke="#63b8ff" points="309.57,-163.21 305.47,-153.43 302.58,-163.63 309.57,-163.21"/>
</g>
<!-- Node29 -->
<g id="node29" class="node">
<title>Node29</title>
<g id="a_node29"><a xlink:href="platform_8h.html" target="_top" xlink:title=" ">
<polygon fill="white" stroke="#666666" points="462,-213.12 374,-213.12 374,-193.88 462,-193.88 462,-213.12"/>
<text text-anchor="middle" x="418" y="-199.62" font-family="Helvetica,sans-Serif" font-size="10.00">cppgc/platform.h</text>
</a>
</g>
</g>
<!-- Node28&#45;&gt;Node29 -->
<g id="edge52" class="edge">
<title>Node28&#45;&gt;Node29</title>
<path fill="none" stroke="#63b8ff" d="M412.81,-381.86C417.01,-360.17 426.86,-302.81 424,-254.75 423.4,-244.63 422.12,-233.42 420.9,-224.16"/>
<polygon fill="#63b8ff" stroke="#63b8ff" points="424.24,-223.78 419.38,-214.37 417.31,-224.76 424.24,-223.78"/>
</g>
<!-- Node29&#45;&gt;Node10 -->
<g id="edge60" class="edge">
<title>Node29&#45;&gt;Node10</title>
<path fill="none" stroke="#63b8ff" d="M417.13,-193.51C416.06,-176.85 416.37,-141.12 436,-121.75 463.86,-94.27 575.16,-80.39 636.28,-74.72"/>
<polygon fill="#63b8ff" stroke="#63b8ff" points="636.43,-78.13 646.08,-73.75 635.81,-71.16 636.43,-78.13"/>
</g>
<!-- Node30 -->
<g id="node30" class="node">
<title>Node30</title>
<g id="a_node30"><a xlink:href="v8-platform_8h.html" target="_top" xlink:title=" ">
<polygon fill="white" stroke="#666666" points="241.12,-146.62 168.88,-146.62 168.88,-127.38 241.12,-127.38 241.12,-146.62"/>
<text text-anchor="middle" x="205" y="-133.12" font-family="Helvetica,sans-Serif" font-size="10.00">v8&#45;platform.h</text>
</a>
</g>
</g>
<!-- Node29&#45;&gt;Node30 -->
<g id="edge53" class="edge">
<title>Node29&#45;&gt;Node30</title>
<path fill="none" stroke="#63b8ff" d="M386.99,-193.39C353.24,-183.43 297.72,-166.94 250,-152.25 248,-151.64 245.96,-151 243.89,-150.36"/>
<polygon fill="#63b8ff" stroke="#63b8ff" points="245.13,-146.77 234.54,-147.12 243.04,-153.45 245.13,-146.77"/>
</g>
<!-- Node30&#45;&gt;Node5 -->
<g id="edge57" class="edge">
<title>Node30&#45;&gt;Node5</title>
<path fill="none" stroke="#63b8ff" d="M190.96,-127.03C174.54,-116.55 147.12,-99.04 127.46,-86.48"/>
<polygon fill="#63b8ff" stroke="#63b8ff" points="129.56,-83.03 119.25,-80.6 125.79,-88.93 129.56,-83.03"/>
</g>
<!-- Node30&#45;&gt;Node9 -->
<g id="edge58" class="edge">
<title>Node30&#45;&gt;Node9</title>
<path fill="none" stroke="#63b8ff" d="M232.51,-126.92C238.26,-125.12 244.31,-123.31 250,-121.75 315.01,-103.89 392.17,-86.85 434.1,-77.94"/>
<polygon fill="#63b8ff" stroke="#63b8ff" points="434.65,-81.19 443.71,-75.7 433.21,-74.34 434.65,-81.19"/>
</g>
<!-- Node30&#45;&gt;Node10 -->
<g id="edge59" class="edge">
<title>Node30&#45;&gt;Node10</title>
<path fill="none" stroke="#63b8ff" d="M230.47,-127.01C236.79,-125.04 243.59,-123.13 250,-121.75 323.2,-106 543.93,-84.07 635.99,-75.32"/>
<polygon fill="#63b8ff" stroke="#63b8ff" points="636.19,-78.73 645.82,-74.3 635.53,-71.76 636.19,-78.73"/>
</g>
<!-- Node30&#45;&gt;Node18 -->
<g id="edge54" class="edge">
<title>Node30&#45;&gt;Node18</title>
<path fill="none" stroke="#63b8ff" d="M200.55,-127.03C195.82,-117.5 188.21,-102.16 182.19,-90.02"/>
<polygon fill="#63b8ff" stroke="#63b8ff" points="184.99,-88.79 177.41,-81.39 178.72,-91.91 184.99,-88.79"/>
</g>
<!-- Node30&#45;&gt;Node19 -->
<g id="edge55" class="edge">
<title>Node30&#45;&gt;Node19</title>
<path fill="none" stroke="#63b8ff" d="M218.9,-127.03C235.16,-116.55 262.3,-99.04 281.77,-86.48"/>
<polygon fill="#63b8ff" stroke="#63b8ff" points="283.38,-88.96 289.89,-80.6 279.59,-83.08 283.38,-88.96"/>
</g>
<!-- Node31 -->
<g id="node31" class="node">
<title>Node31</title>
<g id="a_node31"><a xlink:title=" ">
<polygon fill="#e0e0e0" stroke="#999999" points="263.38,-80.12 216.62,-80.12 216.62,-60.88 263.38,-60.88 263.38,-80.12"/>
<text text-anchor="middle" x="240" y="-66.62" font-family="Helvetica,sans-Serif" font-size="10.00">stdlib.h</text>
</a>
</g>
</g>
<!-- Node30&#45;&gt;Node31 -->
<g id="edge56" class="edge">
<title>Node30&#45;&gt;Node31</title>
<path fill="none" stroke="#63b8ff" d="M209.87,-127.03C215.04,-117.5 223.36,-102.16 229.95,-90.02"/>
<polygon fill="#63b8ff" stroke="#63b8ff" points="233.48,-91.85 235.17,-81.39 227.33,-88.51 233.48,-91.85"/>
</g>
<!-- Node32&#45;&gt;Node10 -->
<g id="edge76" class="edge">
<title>Node32&#45;&gt;Node10</title>
<path fill="none" stroke="#63b8ff" d="M591.96,-381.72C594.42,-359.73 601.65,-301.76 614,-254.75 626.31,-207.91 635.35,-198.09 651,-152.25 658.12,-131.39 665.8,-107.32 670.96,-90.92"/>
<polygon fill="#63b8ff" stroke="#63b8ff" points="674.57,-92.08 674.22,-81.5 667.89,-90 674.57,-92.08"/>
</g>
<!-- Node32&#45;&gt;Node11 -->
<g id="edge75" class="edge">
<title>Node32&#45;&gt;Node11</title>
<path fill="none" stroke="#63b8ff" d="M581.28,-381.81C571.6,-372.9 556.52,-359.03 544.71,-348.17"/>
<polygon fill="#63b8ff" stroke="#63b8ff" points="547.54,-346.1 537.81,-341.9 542.8,-351.25 547.54,-346.1"/>
</g>
<!-- Node32&#45;&gt;Node26 -->
<g id="edge74" class="edge">
<title>Node32&#45;&gt;Node26</title>
<path fill="none" stroke="#63b8ff" d="M621.35,-381.68C655.19,-371.57 710.07,-355.16 747.54,-343.97"/>
<polygon fill="#63b8ff" stroke="#63b8ff" points="748.04,-347.17 756.62,-340.96 746.03,-340.47 748.04,-347.17"/>
</g>
<!-- Node33 -->
<g id="node33" class="node">
<title>Node33</title>
<g id="a_node33"><a xlink:href="heap_8h.html" target="_top" xlink:title=" ">
<polygon fill="white" stroke="#666666" points="414.88,-279.62 341.12,-279.62 341.12,-260.38 414.88,-260.38 414.88,-279.62"/>
<text text-anchor="middle" x="378" y="-266.12" font-family="Helvetica,sans-Serif" font-size="10.00">cppgc/heap.h</text>
</a>
</g>
</g>
<!-- Node32&#45;&gt;Node33 -->
<g id="edge66" class="edge">
<title>Node32&#45;&gt;Node33</title>
<path fill="none" stroke="#63b8ff" d="M564.38,-381.74C539.46,-372.82 501.59,-357.98 471,-340.5 443.33,-324.69 414.36,-301.89 396.25,-286.77"/>
<polygon fill="#63b8ff" stroke="#63b8ff" points="399.18,-283.82 389.29,-280.03 394.66,-289.17 399.18,-283.82"/>
</g>
<!-- Node33&#45;&gt;Node5 -->
<g id="edge67" class="edge">
<title>Node33&#45;&gt;Node5</title>
<path fill="none" stroke="#63b8ff" d="M365.38,-259.94C342.92,-244.07 294.24,-210.81 250,-188.25 211.62,-168.68 193.7,-179.09 160,-152.25 138.79,-135.36 122.33,-108.32 112.9,-90.24"/>
<polygon fill="#63b8ff" stroke="#63b8ff" points="115.66,-88.94 108.07,-81.55 109.4,-92.06 115.66,-88.94"/>
</g>
<!-- Node33&#45;&gt;Node6 -->
<g id="edge68" class="edge">
<title>Node33&#45;&gt;Node6</title>
<path fill="none" stroke="#63b8ff" d="M355.7,-259.9C328.57,-248.82 282.58,-230.05 251.76,-217.46"/>
<polygon fill="#63b8ff" stroke="#63b8ff" points="253.52,-213.99 242.93,-213.45 250.87,-220.47 253.52,-213.99"/>
</g>
<!-- Node33&#45;&gt;Node10 -->
<g id="edge73" class="edge">
<title>Node33&#45;&gt;Node10</title>
<path fill="none" stroke="#63b8ff" d="M403.14,-259.92C426.65,-250.95 462.34,-236.09 491,-218.75 558,-178.22 628.07,-116.67 659.7,-87.68"/>
<polygon fill="#63b8ff" stroke="#63b8ff" points="661.6,-90.77 666.57,-81.41 656.85,-85.63 661.6,-90.77"/>
</g>
<!-- Node33&#45;&gt;Node24 -->
<g id="edge71" class="edge">
<title>Node33&#45;&gt;Node24</title>
<path fill="none" stroke="#63b8ff" d="M342.01,-259.9C296.73,-248.44 218.91,-228.76 169.26,-216.2"/>
<polygon fill="#63b8ff" stroke="#63b8ff" points="170.36,-212.62 159.81,-213.56 168.65,-219.4 170.36,-212.62"/>
</g>
<!-- Node33&#45;&gt;Node29 -->
<g id="edge72" class="edge">
<title>Node33&#45;&gt;Node29</title>
<path fill="none" stroke="#63b8ff" d="M383.56,-260.03C389.53,-250.4 399.18,-234.85 406.74,-222.65"/>
<polygon fill="#63b8ff" stroke="#63b8ff" points="410.19,-224.74 412.49,-214.39 404.24,-221.05 410.19,-224.74"/>
</g>
<!-- Node34 -->
<g id="node34" class="node">
<title>Node34</title>
<g id="a_node34"><a xlink:href="common_8h.html" target="_top" xlink:title=" ">
<polygon fill="white" stroke="#666666" points="535.12,-146.62 444.88,-146.62 444.88,-127.38 535.12,-127.38 535.12,-146.62"/>
<text text-anchor="middle" x="490" y="-133.12" font-family="Helvetica,sans-Serif" font-size="10.00">cppgc/common.h</text>
</a>
</g>
</g>
<!-- Node33&#45;&gt;Node34 -->
<g id="edge69" class="edge">
<title>Node33&#45;&gt;Node34</title>
<path fill="none" stroke="#63b8ff" d="M408.36,-259.97C429.03,-252.27 455.38,-239.15 471,-218.75 484.45,-201.18 488.6,-175.62 489.77,-157.98"/>
<polygon fill="#63b8ff" stroke="#63b8ff" points="493.3,-158.13 490.18,-148 486.31,-157.86 493.3,-158.13"/>
</g>
<!-- Node34&#45;&gt;Node10 -->
<g id="edge70" class="edge">
<title>Node34&#45;&gt;Node10</title>
<path fill="none" stroke="#63b8ff" d="M516.4,-126.9C548.83,-115.71 604.05,-96.66 640.52,-84.08"/>
<polygon fill="#63b8ff" stroke="#63b8ff" points="641.43,-87.13 649.74,-80.56 639.14,-80.51 641.43,-87.13"/>
</g>
</g>
</svg>
