<?xml version="1.0" encoding="UTF-8" standalone="no"?>
<!DOCTYPE svg PUBLIC "-//W3C//DTD SVG 1.1//EN"
 "http://www.w3.org/Graphics/SVG/1.1/DTD/svg11.dtd">
<!-- Generated by graphviz version 8.0.5 (20230430.1635)
 -->
<!-- Title: include/v8&#45;metrics.h Pages: 1 -->
<svg width="785pt" height="193pt"
 viewBox="0.00 0.00 784.75 193.00" xmlns="http://www.w3.org/2000/svg" xmlns:xlink="http://www.w3.org/1999/xlink">
<g id="graph0" class="graph" transform="scale(1 1) rotate(0) translate(4 189)">
<title>include/v8&#45;metrics.h</title>
<!-- Node1 -->
<g id="node1" class="node">
<title>Node1</title>
<g id="a_node1"><a xlink:title=" ">
<polygon fill="#999999" stroke="#666666" points="448.75,-185 345.75,-185 345.75,-165.75 448.75,-165.75 448.75,-185"/>
<text text-anchor="middle" x="397.25" y="-171.5" font-family="Helvetica,sans-Serif" font-size="10.00">include/v8&#45;metrics.h</text>
</a>
</g>
</g>
<!-- Node2 -->
<g id="node2" class="node">
<title>Node2</title>
<g id="a_node2"><a xlink:href="v8_8h.html" target="_top" xlink:title=" ">
<polygon fill="white" stroke="#666666" points="414.25,-129.75 380.25,-129.75 380.25,-110.5 414.25,-110.5 414.25,-129.75"/>
<text text-anchor="middle" x="397.25" y="-116.25" font-family="Helvetica,sans-Serif" font-size="10.00">v8.h</text>
</a>
</g>
</g>
<!-- Node1&#45;&gt;Node2 -->
<g id="edge1" class="edge">
<title>Node1&#45;&gt;Node2</title>
<path fill="none" stroke="#63b8ff" d="M397.25,-165.58C397.25,-158.92 397.25,-149.49 397.25,-141.03"/>
<polygon fill="#63b8ff" stroke="#63b8ff" points="400.75,-141.11 397.25,-131.11 393.75,-141.11 400.75,-141.11"/>
</g>
<!-- Node3 -->
<g id="node3" class="node">
<title>Node3</title>
<g id="a_node3"><a xlink:title=" ">
<polygon fill="#e0e0e0" stroke="#999999" points="50.5,-19.25 0,-19.25 0,0 50.5,0 50.5,-19.25"/>
<text text-anchor="middle" x="25.25" y="-5.75" font-family="Helvetica,sans-Serif" font-size="10.00">stddef.h</text>
</a>
</g>
</g>
<!-- Node2&#45;&gt;Node3 -->
<g id="edge2" class="edge">
<title>Node2&#45;&gt;Node3</title>
<path fill="none" stroke="#63b8ff" d="M379.86,-119.18C334.26,-118.73 208.27,-113.77 113.25,-74.5 85.62,-63.08 58.49,-41.34 41.82,-26.42"/>
<polygon fill="#63b8ff" stroke="#63b8ff" points="44.84,-24.52 35.11,-20.33 40.1,-29.68 44.84,-24.52"/>
</g>
<!-- Node4 -->
<g id="node4" class="node">
<title>Node4</title>
<g id="a_node4"><a xlink:title=" ">
<polygon fill="#e0e0e0" stroke="#999999" points="116,-19.25 68.5,-19.25 68.5,0 116,0 116,-19.25"/>
<text text-anchor="middle" x="92.25" y="-5.75" font-family="Helvetica,sans-Serif" font-size="10.00">stdint.h</text>
</a>
</g>
</g>
<!-- Node2&#45;&gt;Node4 -->
<g id="edge3" class="edge">
<title>Node2&#45;&gt;Node4</title>
<path fill="none" stroke="#63b8ff" d="M379.76,-117.87C328.24,-113.89 178.1,-100.31 137.25,-74.5 120.09,-63.65 107.61,-43.66 100.21,-28.92"/>
<polygon fill="#63b8ff" stroke="#63b8ff" points="103.13,-27.89 95.72,-20.32 96.78,-30.86 103.13,-27.89"/>
</g>
<!-- Node5 -->
<g id="node5" class="node">
<title>Node5</title>
<g id="a_node5"><a xlink:title=" ">
<polygon fill="#e0e0e0" stroke="#999999" points="469.5,-74.5 425,-74.5 425,-55.25 469.5,-55.25 469.5,-74.5"/>
<text text-anchor="middle" x="447.25" y="-61" font-family="Helvetica,sans-Serif" font-size="10.00">stdio.h</text>
</a>
</g>
</g>
<!-- Node2&#45;&gt;Node5 -->
<g id="edge4" class="edge">
<title>Node2&#45;&gt;Node5</title>
<path fill="none" stroke="#63b8ff" d="M405.51,-110.33C412.56,-102.82 422.9,-91.81 431.52,-82.63"/>
<polygon fill="#63b8ff" stroke="#63b8ff" points="433.52,-85.55 437.81,-75.86 428.42,-80.75 433.52,-85.55"/>
</g>
<!-- Node6 -->
<g id="node6" class="node">
<title>Node6</title>
<g id="a_node6"><a xlink:title=" ">
<polygon fill="#e0e0e0" stroke="#999999" points="532.88,-74.5 487.62,-74.5 487.62,-55.25 532.88,-55.25 532.88,-74.5"/>
<text text-anchor="middle" x="510.25" y="-61" font-family="Helvetica,sans-Serif" font-size="10.00">atomic</text>
</a>
</g>
</g>
<!-- Node2&#45;&gt;Node6 -->
<g id="edge5" class="edge">
<title>Node2&#45;&gt;Node6</title>
<path fill="none" stroke="#63b8ff" d="M414.41,-111.04C432.13,-102.69 460.11,-89.5 481.27,-79.53"/>
<polygon fill="#63b8ff" stroke="#63b8ff" points="482.48,-82.36 490.03,-74.93 479.49,-76.03 482.48,-82.36"/>
</g>
<!-- Node7 -->
<g id="node7" class="node">
<title>Node7</title>
<g id="a_node7"><a xlink:title=" ">
<polygon fill="#e0e0e0" stroke="#999999" points="601.5,-74.5 551,-74.5 551,-55.25 601.5,-55.25 601.5,-74.5"/>
<text text-anchor="middle" x="576.25" y="-61" font-family="Helvetica,sans-Serif" font-size="10.00">memory</text>
</a>
</g>
</g>
<!-- Node2&#45;&gt;Node7 -->
<g id="edge6" class="edge">
<title>Node2&#45;&gt;Node7</title>
<path fill="none" stroke="#63b8ff" d="M414.74,-113.92C443.77,-105.29 502.46,-87.83 540.53,-76.5"/>
<polygon fill="#63b8ff" stroke="#63b8ff" points="541.09,-79.69 549.68,-73.48 539.1,-72.98 541.09,-79.69"/>
</g>
<!-- Node8 -->
<g id="node8" class="node">
<title>Node8</title>
<g id="a_node8"><a xlink:title=" ">
<polygon fill="#e0e0e0" stroke="#999999" points="659.25,-74.5 619.25,-74.5 619.25,-55.25 659.25,-55.25 659.25,-74.5"/>
<text text-anchor="middle" x="639.25" y="-61" font-family="Helvetica,sans-Serif" font-size="10.00">string</text>
</a>
</g>
</g>
<!-- Node2&#45;&gt;Node8 -->
<g id="edge7" class="edge">
<title>Node2&#45;&gt;Node8</title>
<path fill="none" stroke="#63b8ff" d="M414.48,-116.02C449.29,-109.63 530.69,-94.16 608.56,-74.76"/>
<polygon fill="#63b8ff" stroke="#63b8ff" points="609.19,-77.96 618.03,-72.12 607.48,-71.17 609.19,-77.96"/>
</g>
<!-- Node9 -->
<g id="node9" class="node">
<title>Node9</title>
<g id="a_node9"><a xlink:title=" ">
<polygon fill="#e0e0e0" stroke="#999999" points="194.75,-19.25 133.75,-19.25 133.75,0 194.75,0 194.75,-19.25"/>
<text text-anchor="middle" x="164.25" y="-5.75" font-family="Helvetica,sans-Serif" font-size="10.00">type_traits</text>
</a>
</g>
</g>
<!-- Node2&#45;&gt;Node9 -->
<g id="edge8" class="edge">
<title>Node2&#45;&gt;Node9</title>
<path fill="none" stroke="#63b8ff" d="M379.86,-118.8C328.02,-117.43 176.31,-110.38 146.25,-74.5 135.41,-61.57 142.87,-42.53 151.23,-28.6"/>
<polygon fill="#63b8ff" stroke="#63b8ff" points="154.64,-30.79 157.23,-20.52 148.8,-26.93 154.64,-30.79"/>
</g>
<!-- Node10 -->
<g id="node10" class="node">
<title>Node10</title>
<g id="a_node10"><a xlink:title=" ">
<polygon fill="#e0e0e0" stroke="#999999" points="715.5,-74.5 677,-74.5 677,-55.25 715.5,-55.25 715.5,-74.5"/>
<text text-anchor="middle" x="696.25" y="-61" font-family="Helvetica,sans-Serif" font-size="10.00">utility</text>
</a>
</g>
</g>
<!-- Node2&#45;&gt;Node10 -->
<g id="edge9" class="edge">
<title>Node2&#45;&gt;Node10</title>
<path fill="none" stroke="#63b8ff" d="M414.53,-117.11C456.22,-112.06 565.73,-97.79 666.14,-74.73"/>
<polygon fill="#63b8ff" stroke="#63b8ff" points="666.82,-77.93 675.76,-72.25 665.23,-71.11 666.82,-77.93"/>
</g>
<!-- Node11 -->
<g id="node11" class="node">
<title>Node11</title>
<g id="a_node11"><a xlink:title=" ">
<polygon fill="#e0e0e0" stroke="#999999" points="776.75,-74.5 733.75,-74.5 733.75,-55.25 776.75,-55.25 776.75,-74.5"/>
<text text-anchor="middle" x="755.25" y="-61" font-family="Helvetica,sans-Serif" font-size="10.00">vector</text>
</a>
</g>
</g>
<!-- Node2&#45;&gt;Node11 -->
<g id="edge10" class="edge">
<title>Node2&#45;&gt;Node11</title>
<path fill="none" stroke="#63b8ff" d="M414.41,-117.61C461.85,-113.26 598.9,-99.51 722.55,-74.58"/>
<polygon fill="#63b8ff" stroke="#63b8ff" points="723.23,-77.81 732.32,-72.37 721.83,-70.95 723.23,-77.81"/>
</g>
<!-- Node12 -->
<g id="node12" class="node">
<title>Node12</title>
<g id="a_node12"><a xlink:href="common_8h.html" target="_top" xlink:title=" ">
<polygon fill="white" stroke="#666666" points="331.38,-74.5 241.12,-74.5 241.12,-55.25 331.38,-55.25 331.38,-74.5"/>
<text text-anchor="middle" x="286.25" y="-61" font-family="Helvetica,sans-Serif" font-size="10.00">cppgc/common.h</text>
</a>
</g>
</g>
<!-- Node2&#45;&gt;Node12 -->
<g id="edge11" class="edge">
<title>Node2&#45;&gt;Node12</title>
<path fill="none" stroke="#63b8ff" d="M379.91,-110.8C362.48,-102.45 335.34,-89.42 314.75,-79.55"/>
<polygon fill="#63b8ff" stroke="#63b8ff" points="316.48,-76.02 305.95,-74.85 313.46,-82.33 316.48,-76.02"/>
</g>
<!-- Node13 -->
<g id="node13" class="node">
<title>Node13</title>
<g id="a_node13"><a xlink:href="v8config_8h.html" target="_top" xlink:title=" ">
<polygon fill="white" stroke="#666666" points="338,-19.25 278.5,-19.25 278.5,0 338,0 338,-19.25"/>
<text text-anchor="middle" x="308.25" y="-5.75" font-family="Helvetica,sans-Serif" font-size="10.00">v8config.h</text>
</a>
</g>
</g>
<!-- Node2&#45;&gt;Node13 -->
<g id="edge21" class="edge">
<title>Node2&#45;&gt;Node13</title>
<path fill="none" stroke="#63b8ff" d="M389.97,-110.25C375.23,-92.28 341.66,-51.36 322.45,-27.94"/>
<polygon fill="#63b8ff" stroke="#63b8ff" points="324.68,-26.14 315.63,-20.63 319.27,-30.58 324.68,-26.14"/>
</g>
<!-- Node14 -->
<g id="node14" class="node">
<title>Node14</title>
<g id="a_node14"><a xlink:href="v8-internal_8h.html" target="_top" xlink:title=" ">
<polygon fill="white" stroke="#666666" points="223.5,-74.5 155,-74.5 155,-55.25 223.5,-55.25 223.5,-74.5"/>
<text text-anchor="middle" x="189.25" y="-61" font-family="Helvetica,sans-Serif" font-size="10.00">v8&#45;internal.h</text>
</a>
</g>
</g>
<!-- Node2&#45;&gt;Node14 -->
<g id="edge13" class="edge">
<title>Node2&#45;&gt;Node14</title>
<path fill="none" stroke="#63b8ff" d="M379.87,-114.68C348.15,-106.55 279.91,-89.08 234.28,-77.4"/>
<polygon fill="#63b8ff" stroke="#63b8ff" points="235.33,-73.8 224.78,-74.71 233.6,-80.58 235.33,-73.8"/>
</g>
<!-- Node16 -->
<g id="node16" class="node">
<title>Node16</title>
<g id="a_node16"><a xlink:href="v8-version_8h.html" target="_top" xlink:title=" ">
<polygon fill="white" stroke="#666666" points="429.5,-19.25 361,-19.25 361,0 429.5,0 429.5,-19.25"/>
<text text-anchor="middle" x="395.25" y="-5.75" font-family="Helvetica,sans-Serif" font-size="10.00">v8&#45;version.h</text>
</a>
</g>
</g>
<!-- Node2&#45;&gt;Node16 -->
<g id="edge20" class="edge">
<title>Node2&#45;&gt;Node16</title>
<path fill="none" stroke="#63b8ff" d="M397.09,-110.25C396.77,-92.92 396.05,-54.23 395.62,-30.49"/>
<polygon fill="#63b8ff" stroke="#63b8ff" points="399.1,-30.56 395.42,-20.63 392.1,-30.69 399.1,-30.56"/>
</g>
<!-- Node12&#45;&gt;Node13 -->
<g id="edge12" class="edge">
<title>Node12&#45;&gt;Node13</title>
<path fill="none" stroke="#63b8ff" d="M289.88,-55.08C292.73,-48.19 296.8,-38.34 300.39,-29.66"/>
<polygon fill="#63b8ff" stroke="#63b8ff" points="303.95,-31.19 304.54,-20.61 297.48,-28.52 303.95,-31.19"/>
</g>
<!-- Node14&#45;&gt;Node3 -->
<g id="edge14" class="edge">
<title>Node14&#45;&gt;Node3</title>
<path fill="none" stroke="#63b8ff" d="M161.43,-54.84C133.72,-45.84 91.06,-31.99 60.88,-22.2"/>
<polygon fill="#63b8ff" stroke="#63b8ff" points="62.37,-18.67 51.78,-18.91 60.21,-25.33 62.37,-18.67"/>
</g>
<!-- Node14&#45;&gt;Node4 -->
<g id="edge15" class="edge">
<title>Node14&#45;&gt;Node4</title>
<path fill="none" stroke="#63b8ff" d="M172.8,-54.84C157.88,-46.66 135.66,-34.46 118.33,-24.94"/>
<polygon fill="#63b8ff" stroke="#63b8ff" points="120.24,-21.45 109.79,-19.7 116.87,-27.58 120.24,-21.45"/>
</g>
<!-- Node14&#45;&gt;Node9 -->
<g id="edge17" class="edge">
<title>Node14&#45;&gt;Node9</title>
<path fill="none" stroke="#63b8ff" d="M185.12,-55.08C181.85,-48.11 177.16,-38.12 173.05,-29.37"/>
<polygon fill="#63b8ff" stroke="#63b8ff" points="175.89,-28.17 168.47,-20.61 169.55,-31.15 175.89,-28.17"/>
</g>
<!-- Node14&#45;&gt;Node13 -->
<g id="edge19" class="edge">
<title>Node14&#45;&gt;Node13</title>
<path fill="none" stroke="#63b8ff" d="M209.44,-54.84C228.24,-46.43 256.53,-33.77 278.03,-24.15"/>
<polygon fill="#63b8ff" stroke="#63b8ff" points="279.27,-26.98 286.96,-19.7 276.41,-20.59 279.27,-26.98"/>
</g>
<!-- Node15 -->
<g id="node15" class="node">
<title>Node15</title>
<g id="a_node15"><a xlink:title=" ">
<polygon fill="#e0e0e0" stroke="#999999" points="260,-19.25 212.5,-19.25 212.5,0 260,0 260,-19.25"/>
<text text-anchor="middle" x="236.25" y="-5.75" font-family="Helvetica,sans-Serif" font-size="10.00">string.h</text>
</a>
</g>
</g>
<!-- Node14&#45;&gt;Node15 -->
<g id="edge16" class="edge">
<title>Node14&#45;&gt;Node15</title>
<path fill="none" stroke="#63b8ff" d="M197.01,-55.08C203.57,-47.65 213.16,-36.79 221.21,-27.66"/>
<polygon fill="#63b8ff" stroke="#63b8ff" points="223.33,-30.42 227.32,-20.61 218.08,-25.79 223.33,-30.42"/>
</g>
<!-- Node14&#45;&gt;Node16 -->
<g id="edge18" class="edge">
<title>Node14&#45;&gt;Node16</title>
<path fill="none" stroke="#63b8ff" d="M223.73,-54.96C258.49,-45.98 312.3,-32.07 350.37,-22.23"/>
<polygon fill="#63b8ff" stroke="#63b8ff" points="350.85,-25.46 359.66,-19.57 349.1,-18.68 350.85,-25.46"/>
</g>
</g>
</svg>
