<?xml version="1.0" encoding="UTF-8" standalone="no"?>
<!DOCTYPE svg PUBLIC "-//W3C//DTD SVG 1.1//EN"
 "http://www.w3.org/Graphics/SVG/1.1/DTD/svg11.dtd">
<!-- Generated by graphviz version 8.0.5 (20230430.1635)
 -->
<!-- Title: include/cppgc/liveness&#45;broker.h Pages: 1 -->
<svg width="1810pt" height="470pt"
 viewBox="0.00 0.00 1810.12 470.25" xmlns="http://www.w3.org/2000/svg" xmlns:xlink="http://www.w3.org/1999/xlink">
<g id="graph0" class="graph" transform="scale(1 1) rotate(0) translate(4 466.25)">
<title>include/cppgc/liveness&#45;broker.h</title>
<!-- Node1 -->
<g id="node1" class="node">
<title>Node1</title>
<g id="a_node1"><a xlink:title=" ">
<polygon fill="#999999" stroke="#666666" points="927.62,-462.25 812.62,-462.25 812.62,-431.75 927.62,-431.75 927.62,-462.25"/>
<text text-anchor="start" x="820.62" y="-448.75" font-family="Helvetica,sans-Serif" font-size="10.00">include/cppgc/liveness</text>
<text text-anchor="middle" x="870.12" y="-437.5" font-family="Helvetica,sans-Serif" font-size="10.00">&#45;broker.h</text>
</a>
</g>
</g>
<!-- Node2 -->
<g id="node2" class="node">
<title>Node2</title>
<g id="a_node2"><a xlink:href="heap_8h.html" target="_top" xlink:title=" ">
<polygon fill="white" stroke="#666666" points="423,-201.88 349.25,-201.88 349.25,-182.62 423,-182.62 423,-201.88"/>
<text text-anchor="middle" x="386.12" y="-188.38" font-family="Helvetica,sans-Serif" font-size="10.00">cppgc/heap.h</text>
</a>
</g>
</g>
<!-- Node1&#45;&gt;Node2 -->
<g id="edge1" class="edge">
<title>Node1&#45;&gt;Node2</title>
<path fill="none" stroke="#63b8ff" d="M812.42,-438.81C738.78,-427.49 609.75,-400.32 516.12,-340.5 461.91,-305.86 417,-242.3 397.12,-211.26"/>
<polygon fill="#63b8ff" stroke="#63b8ff" points="399.64,-209.69 391.36,-203.07 393.71,-213.4 399.64,-209.69"/>
</g>
<!-- Node8 -->
<g id="node8" class="node">
<title>Node8</title>
<g id="a_node8"><a xlink:href="v8config_8h.html" target="_top" xlink:title=" ">
<polygon fill="white" stroke="#666666" points="771.88,-19.25 712.38,-19.25 712.38,0 771.88,0 771.88,-19.25"/>
<text text-anchor="middle" x="742.12" y="-5.75" font-family="Helvetica,sans-Serif" font-size="10.00">v8config.h</text>
</a>
</g>
</g>
<!-- Node1&#45;&gt;Node8 -->
<g id="edge76" class="edge">
<title>Node1&#45;&gt;Node8</title>
<path fill="none" stroke="#63b8ff" d="M812.13,-441.57C651.08,-428.51 210.12,-387.17 210.12,-326.25 210.12,-326.25 210.12,-326.25 210.12,-191.25 210.12,-151.38 290.82,-71.71 327.12,-55.25 393.25,-25.27 610.14,-14.88 701.25,-11.78"/>
<polygon fill="#63b8ff" stroke="#63b8ff" points="701.09,-15.26 710.97,-11.43 700.86,-8.26 701.09,-15.26"/>
</g>
<!-- Node17 -->
<g id="node17" class="node">
<title>Node17</title>
<g id="a_node17"><a xlink:href="member_8h.html" target="_top" xlink:title=" ">
<polygon fill="white" stroke="#666666" points="1356.12,-395.75 1268.12,-395.75 1268.12,-376.5 1356.12,-376.5 1356.12,-395.75"/>
<text text-anchor="middle" x="1312.12" y="-382.25" font-family="Helvetica,sans-Serif" font-size="10.00">cppgc/member.h</text>
</a>
</g>
</g>
<!-- Node1&#45;&gt;Node17 -->
<g id="edge25" class="edge">
<title>Node1&#45;&gt;Node17</title>
<path fill="none" stroke="#63b8ff" d="M927.91,-438.3C1013.46,-426.91 1172.73,-405.69 1256.82,-394.49"/>
<polygon fill="#63b8ff" stroke="#63b8ff" points="1257.23,-397.83 1266.68,-393.04 1256.31,-390.9 1257.23,-397.83"/>
</g>
<!-- Node29 -->
<g id="node29" class="node">
<title>Node29</title>
<g id="a_node29"><a xlink:href="trace-trait_8h.html" target="_top" xlink:title=" ">
<polygon fill="white" stroke="#666666" points="1660.12,-201.88 1566.12,-201.88 1566.12,-182.62 1660.12,-182.62 1660.12,-201.88"/>
<text text-anchor="middle" x="1613.12" y="-188.38" font-family="Helvetica,sans-Serif" font-size="10.00">cppgc/trace&#45;trait.h</text>
</a>
</g>
</g>
<!-- Node1&#45;&gt;Node29 -->
<g id="edge75" class="edge">
<title>Node1&#45;&gt;Node29</title>
<path fill="none" stroke="#63b8ff" d="M927.79,-444.29C1040.84,-440.27 1287.32,-428 1365.12,-395.75 1468.98,-352.7 1563.52,-251.28 1598.65,-210.59"/>
<polygon fill="#63b8ff" stroke="#63b8ff" points="1601.94,-213.13 1605.75,-203.24 1596.61,-208.59 1601.94,-213.13"/>
</g>
<!-- Node3 -->
<g id="node3" class="node">
<title>Node3</title>
<g id="a_node3"><a xlink:title=" ">
<polygon fill="#e0e0e0" stroke="#999999" points="1316.25,-19.25 1268,-19.25 1268,0 1316.25,0 1316.25,-19.25"/>
<text text-anchor="middle" x="1292.12" y="-5.75" font-family="Helvetica,sans-Serif" font-size="10.00">cstddef</text>
</a>
</g>
</g>
<!-- Node2&#45;&gt;Node3 -->
<g id="edge2" class="edge">
<title>Node2&#45;&gt;Node3</title>
<path fill="none" stroke="#63b8ff" d="M408.83,-182.17C478.82,-154.32 690.9,-71.04 763.12,-55.25 945.62,-15.36 1170.74,-10.66 1256.59,-10.44"/>
<polygon fill="#63b8ff" stroke="#63b8ff" points="1256.53,-13.93 1266.53,-10.43 1256.53,-6.93 1256.53,-13.93"/>
</g>
<!-- Node4 -->
<g id="node4" class="node">
<title>Node4</title>
<g id="a_node4"><a xlink:title=" ">
<polygon fill="#e0e0e0" stroke="#999999" points="817.75,-74.5 772.5,-74.5 772.5,-55.25 817.75,-55.25 817.75,-74.5"/>
<text text-anchor="middle" x="795.12" y="-61" font-family="Helvetica,sans-Serif" font-size="10.00">cstdint</text>
</a>
</g>
</g>
<!-- Node2&#45;&gt;Node4 -->
<g id="edge3" class="edge">
<title>Node2&#45;&gt;Node4</title>
<path fill="none" stroke="#63b8ff" d="M423.18,-185.58C469.81,-177.92 552.03,-162.7 620.12,-141 673.8,-123.9 733.54,-96.28 767.5,-79.73"/>
<polygon fill="#63b8ff" stroke="#63b8ff" points="768.75,-82.52 776.18,-74.97 765.66,-76.24 768.75,-82.52"/>
</g>
<!-- Node5 -->
<g id="node5" class="node">
<title>Node5</title>
<g id="a_node5"><a xlink:title=" ">
<polygon fill="#e0e0e0" stroke="#999999" points="202.38,-19.25 151.88,-19.25 151.88,0 202.38,0 202.38,-19.25"/>
<text text-anchor="middle" x="177.12" y="-5.75" font-family="Helvetica,sans-Serif" font-size="10.00">memory</text>
</a>
</g>
</g>
<!-- Node2&#45;&gt;Node5 -->
<g id="edge4" class="edge">
<title>Node2&#45;&gt;Node5</title>
<path fill="none" stroke="#63b8ff" d="M359.16,-182.19C334.39,-173.33 297.09,-158.62 267.12,-141 246.45,-128.84 193.47,-95.63 182.12,-74.5 174.88,-60.99 173.98,-43.52 174.7,-30.26"/>
<polygon fill="#63b8ff" stroke="#63b8ff" points="178.26,-30.78 175.68,-20.51 171.29,-30.15 178.26,-30.78"/>
</g>
<!-- Node6 -->
<g id="node6" class="node">
<title>Node6</title>
<g id="a_node6"><a xlink:title=" ">
<polygon fill="#e0e0e0" stroke="#999999" points="319.62,-135.38 276.62,-135.38 276.62,-116.12 319.62,-116.12 319.62,-135.38"/>
<text text-anchor="middle" x="298.12" y="-121.88" font-family="Helvetica,sans-Serif" font-size="10.00">vector</text>
</a>
</g>
</g>
<!-- Node2&#45;&gt;Node6 -->
<g id="edge5" class="edge">
<title>Node2&#45;&gt;Node6</title>
<path fill="none" stroke="#63b8ff" d="M373.89,-182.28C359.78,-171.94 336.35,-154.77 319.27,-142.25"/>
<polygon fill="#63b8ff" stroke="#63b8ff" points="321.68,-138.94 311.54,-135.85 317.54,-144.58 321.68,-138.94"/>
</g>
<!-- Node7 -->
<g id="node7" class="node">
<title>Node7</title>
<g id="a_node7"><a xlink:href="common_8h.html" target="_top" xlink:title=" ">
<polygon fill="white" stroke="#666666" points="426.25,-74.5 336,-74.5 336,-55.25 426.25,-55.25 426.25,-74.5"/>
<text text-anchor="middle" x="381.12" y="-61" font-family="Helvetica,sans-Serif" font-size="10.00">cppgc/common.h</text>
</a>
</g>
</g>
<!-- Node2&#45;&gt;Node7 -->
<g id="edge6" class="edge">
<title>Node2&#45;&gt;Node7</title>
<path fill="none" stroke="#63b8ff" d="M382.78,-182.15C379.32,-172.2 374.14,-155.72 372.12,-141 370.29,-127.57 370.78,-123.99 372.12,-110.5 372.96,-102.14 374.65,-93.04 376.35,-85.24"/>
<polygon fill="#63b8ff" stroke="#63b8ff" points="379.94,-86.22 378.81,-75.69 373.13,-84.63 379.94,-86.22"/>
</g>
<!-- Node2&#45;&gt;Node8 -->
<g id="edge24" class="edge">
<title>Node2&#45;&gt;Node8</title>
<path fill="none" stroke="#63b8ff" d="M386.13,-182.13C386.57,-166.17 389.47,-132.77 405.12,-110.5 431.04,-73.64 448.21,-71.79 490.12,-55.25 561.02,-27.28 650.04,-16.76 701.07,-12.86"/>
<polygon fill="#63b8ff" stroke="#63b8ff" points="701.25,-16.28 710.98,-12.08 700.75,-9.3 701.25,-16.28"/>
</g>
<!-- Node9 -->
<g id="node9" class="node">
<title>Node9</title>
<g id="a_node9"><a xlink:href="custom-space_8h.html" target="_top" xlink:title=" ">
<polygon fill="white" stroke="#666666" points="114.25,-74.5 0,-74.5 0,-55.25 114.25,-55.25 114.25,-74.5"/>
<text text-anchor="middle" x="57.12" y="-61" font-family="Helvetica,sans-Serif" font-size="10.00">cppgc/custom&#45;space.h</text>
</a>
</g>
</g>
<!-- Node2&#45;&gt;Node9 -->
<g id="edge8" class="edge">
<title>Node2&#45;&gt;Node9</title>
<path fill="none" stroke="#63b8ff" d="M356.16,-182.14C325.32,-172.58 276,-156.78 234.12,-141 181.75,-121.27 122.06,-95.16 87.1,-79.49"/>
<polygon fill="#63b8ff" stroke="#63b8ff" points="88.64,-75.89 78.08,-74.98 85.76,-82.28 88.64,-75.89"/>
</g>
<!-- Node11 -->
<g id="node11" class="node">
<title>Node11</title>
<g id="a_node11"><a xlink:href="platform_8h.html" target="_top" xlink:title=" ">
<polygon fill="white" stroke="#666666" points="502.12,-135.38 414.12,-135.38 414.12,-116.12 502.12,-116.12 502.12,-135.38"/>
<text text-anchor="middle" x="458.12" y="-121.88" font-family="Helvetica,sans-Serif" font-size="10.00">cppgc/platform.h</text>
</a>
</g>
</g>
<!-- Node2&#45;&gt;Node11 -->
<g id="edge10" class="edge">
<title>Node2&#45;&gt;Node11</title>
<path fill="none" stroke="#63b8ff" d="M396.14,-182.28C407.53,-172.08 426.35,-155.21 440.27,-142.74"/>
<polygon fill="#63b8ff" stroke="#63b8ff" points="442.09,-145.92 447.2,-136.64 437.41,-140.71 442.09,-145.92"/>
</g>
<!-- Node7&#45;&gt;Node8 -->
<g id="edge7" class="edge">
<title>Node7&#45;&gt;Node8</title>
<path fill="none" stroke="#63b8ff" d="M426.48,-57.18C497.34,-46.73 633.21,-26.69 701.22,-16.66"/>
<polygon fill="#63b8ff" stroke="#63b8ff" points="701.55,-20 710.93,-15.08 700.52,-13.08 701.55,-20"/>
</g>
<!-- Node10 -->
<g id="node10" class="node">
<title>Node10</title>
<g id="a_node10"><a xlink:title=" ">
<polygon fill="#e0e0e0" stroke="#999999" points="108.38,-19.25 57.88,-19.25 57.88,0 108.38,0 108.38,-19.25"/>
<text text-anchor="middle" x="83.12" y="-5.75" font-family="Helvetica,sans-Serif" font-size="10.00">stddef.h</text>
</a>
</g>
</g>
<!-- Node9&#45;&gt;Node10 -->
<g id="edge9" class="edge">
<title>Node9&#45;&gt;Node10</title>
<path fill="none" stroke="#63b8ff" d="M61.42,-55.08C64.82,-48.11 69.7,-38.12 73.97,-29.37"/>
<polygon fill="#63b8ff" stroke="#63b8ff" points="77.5,-31.13 78.74,-20.61 71.21,-28.06 77.5,-31.13"/>
</g>
<!-- Node11&#45;&gt;Node5 -->
<g id="edge11" class="edge">
<title>Node11&#45;&gt;Node5</title>
<path fill="none" stroke="#63b8ff" d="M413.66,-118.59C343.95,-108.56 215.16,-88.43 199.12,-74.5 186.4,-63.44 181.03,-44.66 178.76,-30.32"/>
<polygon fill="#63b8ff" stroke="#63b8ff" points="182.15,-30.1 177.5,-20.58 175.19,-30.92 182.15,-30.1"/>
</g>
<!-- Node11&#45;&gt;Node8 -->
<g id="edge23" class="edge">
<title>Node11&#45;&gt;Node8</title>
<path fill="none" stroke="#63b8ff" d="M462.85,-115.83C471.34,-100.74 490.71,-70.32 516.12,-55.25 574.09,-20.89 653.65,-12.43 701.28,-10.66"/>
<polygon fill="#63b8ff" stroke="#63b8ff" points="701.19,-14.13 711.09,-10.35 700.99,-7.14 701.19,-14.13"/>
</g>
<!-- Node12 -->
<g id="node12" class="node">
<title>Node12</title>
<g id="a_node12"><a xlink:href="source-location_8h.html" target="_top" xlink:title=" ">
<polygon fill="white" stroke="#666666" points="676.5,-74.5 557.75,-74.5 557.75,-55.25 676.5,-55.25 676.5,-74.5"/>
<text text-anchor="middle" x="617.12" y="-61" font-family="Helvetica,sans-Serif" font-size="10.00">cppgc/source&#45;location.h</text>
</a>
</g>
</g>
<!-- Node11&#45;&gt;Node12 -->
<g id="edge12" class="edge">
<title>Node11&#45;&gt;Node12</title>
<path fill="none" stroke="#63b8ff" d="M482.62,-115.68C509.35,-105.78 552.35,-89.86 582.51,-78.69"/>
<polygon fill="#63b8ff" stroke="#63b8ff" points="583.44,-81.71 591.6,-74.96 581.01,-75.15 583.44,-81.71"/>
</g>
<!-- Node14 -->
<g id="node14" class="node">
<title>Node14</title>
<g id="a_node14"><a xlink:href="v8-platform_8h.html" target="_top" xlink:title=" ">
<polygon fill="white" stroke="#666666" points="280.25,-74.5 208,-74.5 208,-55.25 280.25,-55.25 280.25,-74.5"/>
<text text-anchor="middle" x="244.12" y="-61" font-family="Helvetica,sans-Serif" font-size="10.00">v8&#45;platform.h</text>
</a>
</g>
</g>
<!-- Node11&#45;&gt;Node14 -->
<g id="edge16" class="edge">
<title>Node11&#45;&gt;Node14</title>
<path fill="none" stroke="#63b8ff" d="M425.16,-115.68C388.24,-105.52 328.27,-89.02 287.55,-77.82"/>
<polygon fill="#63b8ff" stroke="#63b8ff" points="288.7,-74.23 278.13,-74.96 286.84,-80.98 288.7,-74.23"/>
</g>
<!-- Node12&#45;&gt;Node3 -->
<g id="edge13" class="edge">
<title>Node12&#45;&gt;Node3</title>
<path fill="none" stroke="#63b8ff" d="M676.86,-56.6C681.35,-56.12 685.81,-55.67 690.12,-55.25 905.18,-34.58 1164.26,-18.26 1257,-12.69"/>
<polygon fill="#63b8ff" stroke="#63b8ff" points="1256.95,-16.14 1266.72,-12.05 1256.53,-9.15 1256.95,-16.14"/>
</g>
<!-- Node12&#45;&gt;Node8 -->
<g id="edge15" class="edge">
<title>Node12&#45;&gt;Node8</title>
<path fill="none" stroke="#63b8ff" d="M638.33,-54.84C658.26,-46.35 688.34,-33.54 710.99,-23.89"/>
<polygon fill="#63b8ff" stroke="#63b8ff" points="711.99,-26.84 719.82,-19.7 709.24,-20.4 711.99,-26.84"/>
</g>
<!-- Node13 -->
<g id="node13" class="node">
<title>Node13</title>
<g id="a_node13"><a xlink:title=" ">
<polygon fill="#e0e0e0" stroke="#999999" points="514.12,-19.25 474.12,-19.25 474.12,0 514.12,0 514.12,-19.25"/>
<text text-anchor="middle" x="494.12" y="-5.75" font-family="Helvetica,sans-Serif" font-size="10.00">string</text>
</a>
</g>
</g>
<!-- Node12&#45;&gt;Node13 -->
<g id="edge14" class="edge">
<title>Node12&#45;&gt;Node13</title>
<path fill="none" stroke="#63b8ff" d="M596.26,-54.84C576.5,-46.29 546.6,-33.34 524.25,-23.67"/>
<polygon fill="#63b8ff" stroke="#63b8ff" points="525.84,-20.11 515.27,-19.35 523.06,-26.53 525.84,-20.11"/>
</g>
<!-- Node14&#45;&gt;Node5 -->
<g id="edge20" class="edge">
<title>Node14&#45;&gt;Node5</title>
<path fill="none" stroke="#63b8ff" d="M232.76,-54.84C222.88,-46.99 208.36,-35.45 196.63,-26.12"/>
<polygon fill="#63b8ff" stroke="#63b8ff" points="199.33,-23.01 189.32,-19.52 194.97,-28.49 199.33,-23.01"/>
</g>
<!-- Node14&#45;&gt;Node8 -->
<g id="edge22" class="edge">
<title>Node14&#45;&gt;Node8</title>
<path fill="none" stroke="#63b8ff" d="M280.67,-57.26C285.19,-56.53 289.76,-55.84 294.12,-55.25 443.43,-34.96 621.9,-19.93 700.96,-13.73"/>
<polygon fill="#63b8ff" stroke="#63b8ff" points="701.19,-17.15 710.89,-12.89 700.65,-10.17 701.19,-17.15"/>
</g>
<!-- Node14&#45;&gt;Node10 -->
<g id="edge17" class="edge">
<title>Node14&#45;&gt;Node10</title>
<path fill="none" stroke="#63b8ff" d="M216.81,-54.84C189.89,-45.94 148.59,-32.28 119.02,-22.5"/>
<polygon fill="#63b8ff" stroke="#63b8ff" points="120.3,-18.9 109.71,-19.09 118.1,-25.55 120.3,-18.9"/>
</g>
<!-- Node14&#45;&gt;Node13 -->
<g id="edge21" class="edge">
<title>Node14&#45;&gt;Node13</title>
<path fill="none" stroke="#63b8ff" d="M280.74,-56.07C330.11,-45.56 417.13,-27.03 463.31,-17.19"/>
<polygon fill="#63b8ff" stroke="#63b8ff" points="463.81,-20.45 472.86,-14.94 462.35,-13.6 463.81,-20.45"/>
</g>
<!-- Node15 -->
<g id="node15" class="node">
<title>Node15</title>
<g id="a_node15"><a xlink:title=" ">
<polygon fill="#e0e0e0" stroke="#999999" points="267.88,-19.25 220.38,-19.25 220.38,0 267.88,0 267.88,-19.25"/>
<text text-anchor="middle" x="244.12" y="-5.75" font-family="Helvetica,sans-Serif" font-size="10.00">stdint.h</text>
</a>
</g>
</g>
<!-- Node14&#45;&gt;Node15 -->
<g id="edge18" class="edge">
<title>Node14&#45;&gt;Node15</title>
<path fill="none" stroke="#63b8ff" d="M244.12,-55.08C244.12,-48.42 244.12,-38.99 244.12,-30.53"/>
<polygon fill="#63b8ff" stroke="#63b8ff" points="247.63,-30.61 244.12,-20.61 240.63,-30.61 247.63,-30.61"/>
</g>
<!-- Node16 -->
<g id="node16" class="node">
<title>Node16</title>
<g id="a_node16"><a xlink:title=" ">
<polygon fill="#e0e0e0" stroke="#999999" points="332.5,-19.25 285.75,-19.25 285.75,0 332.5,0 332.5,-19.25"/>
<text text-anchor="middle" x="309.12" y="-5.75" font-family="Helvetica,sans-Serif" font-size="10.00">stdlib.h</text>
</a>
</g>
</g>
<!-- Node14&#45;&gt;Node16 -->
<g id="edge19" class="edge">
<title>Node14&#45;&gt;Node16</title>
<path fill="none" stroke="#63b8ff" d="M255.15,-54.84C264.64,-47.07 278.55,-35.67 289.87,-26.4"/>
<polygon fill="#63b8ff" stroke="#63b8ff" points="291.74,-28.57 297.26,-19.52 287.31,-23.15 291.74,-28.57"/>
</g>
<!-- Node17&#45;&gt;Node3 -->
<g id="edge27" class="edge">
<title>Node17&#45;&gt;Node3</title>
<path fill="none" stroke="#63b8ff" d="M1356.47,-383.23C1477.09,-376.89 1802.12,-351.29 1802.12,-259.75 1802.12,-259.75 1802.12,-259.75 1802.12,-124.75 1802.12,-27.28 1442.92,-13.03 1327.43,-10.97"/>
<polygon fill="#63b8ff" stroke="#63b8ff" points="1327.78,-7.46 1317.72,-10.8 1327.67,-14.46 1327.78,-7.46"/>
</g>
<!-- Node17&#45;&gt;Node8 -->
<g id="edge74" class="edge">
<title>Node17&#45;&gt;Node8</title>
<path fill="none" stroke="#63b8ff" d="M1267.84,-382.74C1102.41,-373.26 530.12,-335.03 530.12,-259.75 530.12,-259.75 530.12,-259.75 530.12,-124.75 530.12,-92.73 526.04,-77.44 549.12,-55.25 570.56,-34.65 651.1,-21.52 701.11,-15.16"/>
<polygon fill="#63b8ff" stroke="#63b8ff" points="701.4,-18.53 710.9,-13.84 700.55,-11.58 701.4,-18.53"/>
</g>
<!-- Node18 -->
<g id="node18" class="node">
<title>Node18</title>
<g id="a_node18"><a xlink:title=" ">
<polygon fill="#e0e0e0" stroke="#999999" points="1479.75,-135.38 1434.5,-135.38 1434.5,-116.12 1479.75,-116.12 1479.75,-135.38"/>
<text text-anchor="middle" x="1457.12" y="-121.88" font-family="Helvetica,sans-Serif" font-size="10.00">atomic</text>
</a>
</g>
</g>
<!-- Node17&#45;&gt;Node18 -->
<g id="edge26" class="edge">
<title>Node17&#45;&gt;Node18</title>
<path fill="none" stroke="#63b8ff" d="M1326.22,-376.1C1360.72,-353.05 1448.9,-288.13 1481.12,-207.5 1489.58,-186.36 1478.87,-161.06 1469.19,-144.49"/>
<polygon fill="#63b8ff" stroke="#63b8ff" points="1471.76,-143.01 1463.47,-136.41 1465.83,-146.74 1471.76,-143.01"/>
</g>
<!-- Node19 -->
<g id="node19" class="node">
<title>Node19</title>
<g id="a_node19"><a xlink:title=" ">
<polygon fill="#e0e0e0" stroke="#999999" points="1628.62,-74.5 1567.62,-74.5 1567.62,-55.25 1628.62,-55.25 1628.62,-74.5"/>
<text text-anchor="middle" x="1598.12" y="-61" font-family="Helvetica,sans-Serif" font-size="10.00">type_traits</text>
</a>
</g>
</g>
<!-- Node17&#45;&gt;Node19 -->
<g id="edge28" class="edge">
<title>Node17&#45;&gt;Node19</title>
<path fill="none" stroke="#63b8ff" d="M1356.22,-381.87C1405.23,-377.12 1486.06,-365.92 1551.12,-340.5 1602.93,-320.26 1616.73,-312.23 1657.12,-274 1715.05,-219.17 1777.7,-175.25 1731.12,-110.5 1710.48,-81.8 1670.48,-71.3 1639.72,-67.59"/>
<polygon fill="#63b8ff" stroke="#63b8ff" points="1640.15,-64.01 1629.85,-66.5 1639.46,-70.98 1640.15,-64.01"/>
</g>
<!-- Node20 -->
<g id="node20" class="node">
<title>Node20</title>
<g id="a_node20"><a xlink:href="api-constants_8h.html" target="_top" xlink:title=" ">
<polygon fill="white" stroke="#666666" points="1340.38,-141 1247.88,-141 1247.88,-110.5 1340.38,-110.5 1340.38,-141"/>
<text text-anchor="start" x="1255.88" y="-127.5" font-family="Helvetica,sans-Serif" font-size="10.00">cppgc/internal/api</text>
<text text-anchor="middle" x="1294.12" y="-116.25" font-family="Helvetica,sans-Serif" font-size="10.00">&#45;constants.h</text>
</a>
</g>
</g>
<!-- Node17&#45;&gt;Node20 -->
<g id="edge29" class="edge">
<title>Node17&#45;&gt;Node20</title>
<path fill="none" stroke="#63b8ff" d="M1313.57,-376.28C1318.02,-347.32 1330.33,-252.82 1315.12,-177 1313.37,-168.23 1310.04,-159.09 1306.55,-151.04"/>
<polygon fill="#63b8ff" stroke="#63b8ff" points="1309.37,-149.8 1301.98,-142.21 1303.02,-152.75 1309.37,-149.8"/>
</g>
<!-- Node21 -->
<g id="node21" class="node">
<title>Node21</title>
<g id="a_node21"><a xlink:href="member-storage_8h.html" target="_top" xlink:title=" ">
<polygon fill="white" stroke="#666666" points="1305.62,-207.5 1190.62,-207.5 1190.62,-177 1305.62,-177 1305.62,-207.5"/>
<text text-anchor="start" x="1198.62" y="-194" font-family="Helvetica,sans-Serif" font-size="10.00">cppgc/internal/member</text>
<text text-anchor="middle" x="1248.12" y="-182.75" font-family="Helvetica,sans-Serif" font-size="10.00">&#45;storage.h</text>
</a>
</g>
</g>
<!-- Node17&#45;&gt;Node21 -->
<g id="edge33" class="edge">
<title>Node17&#45;&gt;Node21</title>
<path fill="none" stroke="#63b8ff" d="M1309.12,-376.13C1299.76,-348.05 1270.83,-261.33 1256.44,-218.17"/>
<polygon fill="#63b8ff" stroke="#63b8ff" points="1259.52,-217.34 1253.03,-208.96 1252.88,-219.55 1259.52,-217.34"/>
</g>
<!-- Node23 -->
<g id="node23" class="node">
<title>Node23</title>
<g id="a_node23"><a xlink:href="sentinel-pointer_8h.html" target="_top" xlink:title=" ">
<polygon fill="white" stroke="#666666" points="866.5,-135.38 747.75,-135.38 747.75,-116.12 866.5,-116.12 866.5,-135.38"/>
<text text-anchor="middle" x="807.12" y="-121.88" font-family="Helvetica,sans-Serif" font-size="10.00">cppgc/sentinel&#45;pointer.h</text>
</a>
</g>
</g>
<!-- Node17&#45;&gt;Node23 -->
<g id="edge72" class="edge">
<title>Node17&#45;&gt;Node23</title>
<path fill="none" stroke="#63b8ff" d="M1267.81,-385.17C1203.22,-383.9 1080.31,-376.42 983.12,-340.5 895.42,-308.08 860.53,-291.82 820.12,-207.5 810.84,-188.13 807.99,-163.45 807.21,-146.51"/>
<polygon fill="#63b8ff" stroke="#63b8ff" points="810.69,-146.63 806.95,-136.72 803.69,-146.8 810.69,-146.63"/>
</g>
<!-- Node24 -->
<g id="node24" class="node">
<title>Node24</title>
<g id="a_node24"><a xlink:href="pointer-policies_8h.html" target="_top" xlink:title=" ">
<polygon fill="white" stroke="#666666" points="1101.62,-340.5 992.62,-340.5 992.62,-310 1101.62,-310 1101.62,-340.5"/>
<text text-anchor="start" x="1000.62" y="-327" font-family="Helvetica,sans-Serif" font-size="10.00">cppgc/internal/pointer</text>
<text text-anchor="middle" x="1047.12" y="-315.75" font-family="Helvetica,sans-Serif" font-size="10.00">&#45;policies.h</text>
</a>
</g>
</g>
<!-- Node17&#45;&gt;Node24 -->
<g id="edge44" class="edge">
<title>Node17&#45;&gt;Node24</title>
<path fill="none" stroke="#63b8ff" d="M1271.3,-376.05C1228.96,-366.65 1162.13,-351.8 1112.45,-340.76"/>
<polygon fill="#63b8ff" stroke="#63b8ff" points="1113.32,-337.15 1102.8,-338.4 1111.8,-343.98 1113.32,-337.15"/>
</g>
<!-- Node30 -->
<g id="node30" class="node">
<title>Node30</title>
<g id="a_node30"><a xlink:href="type-traits_8h.html" target="_top" xlink:title=" ">
<polygon fill="white" stroke="#666666" points="1721.88,-135.38 1626.38,-135.38 1626.38,-116.12 1721.88,-116.12 1721.88,-135.38"/>
<text text-anchor="middle" x="1674.12" y="-121.88" font-family="Helvetica,sans-Serif" font-size="10.00">cppgc/type&#45;traits.h</text>
</a>
</g>
</g>
<!-- Node17&#45;&gt;Node30 -->
<g id="edge73" class="edge">
<title>Node17&#45;&gt;Node30</title>
<path fill="none" stroke="#63b8ff" d="M1356.53,-379.34C1438.75,-365.96 1613.06,-324.53 1687.12,-207.5 1699.01,-188.72 1691.5,-162.72 1683.87,-145.35"/>
<polygon fill="#63b8ff" stroke="#63b8ff" points="1686.77,-144.29 1679.28,-136.79 1680.46,-147.32 1686.77,-144.29"/>
</g>
<!-- Node20&#45;&gt;Node3 -->
<g id="edge30" class="edge">
<title>Node20&#45;&gt;Node3</title>
<path fill="none" stroke="#63b8ff" d="M1293.87,-110.3C1293.52,-90.06 1292.87,-53.22 1292.47,-30.44"/>
<polygon fill="#63b8ff" stroke="#63b8ff" points="1295.96,-30.64 1292.28,-20.7 1288.96,-30.76 1295.96,-30.64"/>
</g>
<!-- Node20&#45;&gt;Node4 -->
<g id="edge31" class="edge">
<title>Node20&#45;&gt;Node4</title>
<path fill="none" stroke="#63b8ff" d="M1247.46,-119.38C1168.64,-110.28 1004.17,-91.21 865.12,-74.5 853.36,-73.09 840.49,-71.51 829.03,-70.09"/>
<polygon fill="#63b8ff" stroke="#63b8ff" points="829.49,-66.5 819.14,-68.75 828.63,-73.45 829.49,-66.5"/>
</g>
<!-- Node20&#45;&gt;Node8 -->
<g id="edge32" class="edge">
<title>Node20&#45;&gt;Node8</title>
<path fill="none" stroke="#63b8ff" d="M1268.18,-110.1C1238.12,-93.85 1186.63,-68.23 1139.12,-55.25 1012.59,-20.68 856.33,-12.83 783.33,-11.09"/>
<polygon fill="#63b8ff" stroke="#63b8ff" points="783.42,-7.57 773.35,-10.86 783.27,-14.57 783.42,-7.57"/>
</g>
<!-- Node21&#45;&gt;Node3 -->
<g id="edge35" class="edge">
<title>Node21&#45;&gt;Node3</title>
<path fill="none" stroke="#63b8ff" d="M1303.44,-176.56C1321.14,-168.96 1338.81,-157.65 1349.12,-141 1372.85,-102.7 1333.84,-52.8 1309.44,-27.27"/>
<polygon fill="#63b8ff" stroke="#63b8ff" points="1312.36,-25.23 1302.84,-20.59 1307.39,-30.16 1312.36,-25.23"/>
</g>
<!-- Node21&#45;&gt;Node8 -->
<g id="edge43" class="edge">
<title>Node21&#45;&gt;Node8</title>
<path fill="none" stroke="#63b8ff" d="M1235.41,-176.72C1219.7,-159.38 1191.54,-130.24 1163.12,-110.5 1043.23,-27.19 862.72,-12.81 782.74,-10.72"/>
<polygon fill="#63b8ff" stroke="#63b8ff" points="783.21,-7.21 773.14,-10.5 783.07,-14.2 783.21,-7.21"/>
</g>
<!-- Node21&#45;&gt;Node18 -->
<g id="edge34" class="edge">
<title>Node21&#45;&gt;Node18</title>
<path fill="none" stroke="#63b8ff" d="M1302.71,-176.56C1336.71,-167.1 1381.22,-154.15 1420.12,-141 1421.59,-140.5 1423.09,-139.99 1424.59,-139.45"/>
<polygon fill="#63b8ff" stroke="#63b8ff" points="1425.36,-142.53 1433.54,-135.79 1422.94,-135.96 1425.36,-142.53"/>
</g>
<!-- Node21&#45;&gt;Node19 -->
<g id="edge36" class="edge">
<title>Node21&#45;&gt;Node19</title>
<path fill="none" stroke="#63b8ff" d="M1296.24,-176.57C1322.36,-167.78 1354.8,-155.5 1382.12,-141 1402.82,-130.02 1403.87,-120.37 1425.12,-110.5 1467.83,-90.67 1520.72,-78.67 1556.7,-72.18"/>
<polygon fill="#63b8ff" stroke="#63b8ff" points="1557.03,-75.5 1566.29,-70.34 1555.84,-68.6 1557.03,-75.5"/>
</g>
<!-- Node21&#45;&gt;Node20 -->
<g id="edge37" class="edge">
<title>Node21&#45;&gt;Node20</title>
<path fill="none" stroke="#63b8ff" d="M1258.56,-176.61C1264.15,-168.78 1271.16,-158.94 1277.48,-150.08"/>
<polygon fill="#63b8ff" stroke="#63b8ff" points="1280.77,-152.5 1283.73,-142.33 1275.07,-148.44 1280.77,-152.5"/>
</g>
<!-- Node22 -->
<g id="node22" class="node">
<title>Node22</title>
<g id="a_node22"><a xlink:href="logging_8h.html" target="_top" xlink:title=" ">
<polygon fill="white" stroke="#666666" points="1154.12,-135.38 1036.12,-135.38 1036.12,-116.12 1154.12,-116.12 1154.12,-135.38"/>
<text text-anchor="middle" x="1095.12" y="-121.88" font-family="Helvetica,sans-Serif" font-size="10.00">cppgc/internal/logging.h</text>
</a>
</g>
</g>
<!-- Node21&#45;&gt;Node22 -->
<g id="edge38" class="edge">
<title>Node21&#45;&gt;Node22</title>
<path fill="none" stroke="#63b8ff" d="M1213.41,-176.61C1187.22,-165.57 1151.6,-150.56 1126.31,-139.9"/>
<polygon fill="#63b8ff" stroke="#63b8ff" points="1128.07,-136.42 1117.5,-135.76 1125.35,-142.87 1128.07,-136.42"/>
</g>
<!-- Node21&#45;&gt;Node23 -->
<g id="edge41" class="edge">
<title>Node21&#45;&gt;Node23</title>
<path fill="none" stroke="#63b8ff" d="M1190.47,-182.82C1110.09,-171.06 964.48,-149.77 877.71,-137.07"/>
<polygon fill="#63b8ff" stroke="#63b8ff" points="878.31,-133.48 867.91,-135.49 877.3,-140.4 878.31,-133.48"/>
</g>
<!-- Node22&#45;&gt;Node8 -->
<g id="edge40" class="edge">
<title>Node22&#45;&gt;Node8</title>
<path fill="none" stroke="#63b8ff" d="M1088.65,-115.73C1077.16,-100.48 1051.61,-69.84 1022.12,-55.25 943.74,-16.47 839.3,-10.02 782.72,-9.71"/>
<polygon fill="#63b8ff" stroke="#63b8ff" points="783.06,-6.21 773.07,-9.72 783.07,-13.21 783.06,-6.21"/>
</g>
<!-- Node22&#45;&gt;Node12 -->
<g id="edge39" class="edge">
<title>Node22&#45;&gt;Node12</title>
<path fill="none" stroke="#63b8ff" d="M1036.03,-117.47C947.85,-106.61 782.12,-86.2 687.7,-74.57"/>
<polygon fill="#63b8ff" stroke="#63b8ff" points="688.19,-70.98 677.83,-73.23 687.33,-77.93 688.19,-70.98"/>
</g>
<!-- Node23&#45;&gt;Node4 -->
<g id="edge42" class="edge">
<title>Node23&#45;&gt;Node4</title>
<path fill="none" stroke="#63b8ff" d="M805.3,-115.81C803.66,-107.77 801.2,-95.68 799.11,-85.41"/>
<polygon fill="#63b8ff" stroke="#63b8ff" points="802.39,-85 796.96,-75.9 795.53,-86.4 802.39,-85"/>
</g>
<!-- Node24&#45;&gt;Node4 -->
<g id="edge45" class="edge">
<title>Node24&#45;&gt;Node4</title>
<path fill="none" stroke="#63b8ff" d="M992.27,-314.47C958.37,-306.84 914.85,-294.08 880.12,-274 805.55,-230.88 773.25,-220.1 739.12,-141 733.76,-128.55 733.24,-122.71 739.12,-110.5 745.09,-98.11 756.36,-88.1 767.23,-80.72"/>
<polygon fill="#63b8ff" stroke="#63b8ff" points="768.9,-83.18 775.53,-74.92 765.2,-77.24 768.9,-83.18"/>
</g>
<!-- Node24&#45;&gt;Node8 -->
<g id="edge71" class="edge">
<title>Node24&#45;&gt;Node8</title>
<path fill="none" stroke="#63b8ff" d="M992.33,-319.93C945.61,-314.42 877.84,-301.96 825.12,-274 786.93,-253.74 777.66,-243.77 754.12,-207.5 730.01,-170.33 728.7,-154.74 731.12,-110.5 732.65,-82.66 736.56,-50.65 739.28,-30.53"/>
<polygon fill="#63b8ff" stroke="#63b8ff" points="742.88,-31.07 740.79,-20.69 735.95,-30.11 742.88,-31.07"/>
</g>
<!-- Node24&#45;&gt;Node12 -->
<g id="edge69" class="edge">
<title>Node24&#45;&gt;Node12</title>
<path fill="none" stroke="#63b8ff" d="M992.36,-321.5C884.88,-315.55 654.59,-299.92 630.12,-274 581.04,-222.01 599.96,-126.36 611.16,-85.36"/>
<polygon fill="#63b8ff" stroke="#63b8ff" points="614.77,-86.5 614.18,-75.92 608.04,-84.55 614.77,-86.5"/>
</g>
<!-- Node24&#45;&gt;Node19 -->
<g id="edge46" class="edge">
<title>Node24&#45;&gt;Node19</title>
<path fill="none" stroke="#63b8ff" d="M1101.8,-320.2C1188.53,-311.57 1360.21,-285.27 1481.12,-207.5 1531.27,-175.25 1570.58,-114.57 1588.13,-84.18"/>
<polygon fill="#63b8ff" stroke="#63b8ff" points="1591.56,-86.23 1593.41,-75.8 1585.46,-82.8 1591.56,-86.23"/>
</g>
<!-- Node24&#45;&gt;Node21 -->
<g id="edge47" class="edge">
<title>Node24&#45;&gt;Node21</title>
<path fill="none" stroke="#63b8ff" d="M1069.4,-309.73C1105.25,-286.37 1175.83,-240.37 1216.75,-213.7"/>
<polygon fill="#63b8ff" stroke="#63b8ff" points="1218.28,-216.23 1224.75,-207.83 1214.46,-210.36 1218.28,-216.23"/>
</g>
<!-- Node24&#45;&gt;Node23 -->
<g id="edge68" class="edge">
<title>Node24&#45;&gt;Node23</title>
<path fill="none" stroke="#63b8ff" d="M1005.65,-309.57C960.41,-291.71 888.42,-257.59 843.12,-207.5 827.16,-189.84 817.32,-163.93 812.05,-146.26"/>
<polygon fill="#63b8ff" stroke="#63b8ff" points="815.19,-145.49 809.17,-136.77 808.44,-147.34 815.19,-145.49"/>
</g>
<!-- Node25 -->
<g id="node25" class="node">
<title>Node25</title>
<g id="a_node25"><a xlink:href="write-barrier_8h.html" target="_top" xlink:title=" ">
<polygon fill="white" stroke="#666666" points="1097.5,-274 996.75,-274 996.75,-243.5 1097.5,-243.5 1097.5,-274"/>
<text text-anchor="start" x="1004.75" y="-260.5" font-family="Helvetica,sans-Serif" font-size="10.00">cppgc/internal/write</text>
<text text-anchor="middle" x="1047.12" y="-249.25" font-family="Helvetica,sans-Serif" font-size="10.00">&#45;barrier.h</text>
</a>
</g>
</g>
<!-- Node24&#45;&gt;Node25 -->
<g id="edge48" class="edge">
<title>Node24&#45;&gt;Node25</title>
<path fill="none" stroke="#63b8ff" d="M1047.12,-309.61C1047.12,-302.36 1047.12,-293.38 1047.12,-285.06"/>
<polygon fill="#63b8ff" stroke="#63b8ff" points="1050.63,-285.33 1047.12,-275.33 1043.63,-285.33 1050.63,-285.33"/>
</g>
<!-- Node24&#45;&gt;Node30 -->
<g id="edge70" class="edge">
<title>Node24&#45;&gt;Node30</title>
<path fill="none" stroke="#63b8ff" d="M1102.05,-321.67C1214.96,-315.88 1469.42,-300.31 1552.12,-274 1609.12,-255.87 1637.46,-258.24 1669.12,-207.5 1680.49,-189.29 1680.07,-164.04 1677.88,-146.65"/>
<polygon fill="#63b8ff" stroke="#63b8ff" points="1681.19,-146.15 1676.16,-136.82 1674.27,-147.24 1681.19,-146.15"/>
</g>
<!-- Node25&#45;&gt;Node3 -->
<g id="edge49" class="edge">
<title>Node25&#45;&gt;Node3</title>
<path fill="none" stroke="#63b8ff" d="M1065.03,-243.01C1076.7,-233.22 1092.12,-219.92 1105.12,-207.5 1171.77,-143.83 1245.7,-62.57 1276.91,-27.73"/>
<polygon fill="#63b8ff" stroke="#63b8ff" points="1279.16,-30.34 1283.22,-20.55 1273.94,-25.68 1279.16,-30.34"/>
</g>
<!-- Node25&#45;&gt;Node4 -->
<g id="edge50" class="edge">
<title>Node25&#45;&gt;Node4</title>
<path fill="none" stroke="#63b8ff" d="M996.48,-247.78C970.37,-240.42 939.59,-228 918.12,-207.5 884.02,-174.93 906.91,-145.34 875.12,-110.5 862.29,-96.43 843.95,-85.76 828.07,-78.38"/>
<polygon fill="#63b8ff" stroke="#63b8ff" points="829.64,-74.81 819.07,-74.01 826.83,-81.22 829.64,-74.81"/>
</g>
<!-- Node25&#45;&gt;Node8 -->
<g id="edge67" class="edge">
<title>Node25&#45;&gt;Node8</title>
<path fill="none" stroke="#63b8ff" d="M1020.94,-243.15C1005.78,-234 986.85,-221.35 972.12,-207.5 932.62,-170.35 936.28,-149.03 898.12,-110.5 869.99,-82.09 860.74,-76.91 827.12,-55.25 809.26,-43.74 788.1,-32.62 771.36,-24.36"/>
<polygon fill="#63b8ff" stroke="#63b8ff" points="773.1,-20.83 762.58,-19.61 770.04,-27.13 773.1,-20.83"/>
</g>
<!-- Node25&#45;&gt;Node11 -->
<g id="edge59" class="edge">
<title>Node25&#45;&gt;Node11</title>
<path fill="none" stroke="#63b8ff" d="M996.4,-246.47C885.27,-221.75 621.37,-163.06 509.58,-138.19"/>
<polygon fill="#63b8ff" stroke="#63b8ff" points="510.45,-134.58 499.93,-135.83 508.93,-141.41 510.45,-134.58"/>
</g>
<!-- Node25&#45;&gt;Node20 -->
<g id="edge55" class="edge">
<title>Node25&#45;&gt;Node20</title>
<path fill="none" stroke="#63b8ff" d="M1075.47,-243.15C1093.67,-233.53 1117.65,-220.36 1138.12,-207.5 1157.97,-195.04 1160.76,-188.6 1181.12,-177 1201.71,-165.27 1225.55,-154.32 1246.01,-145.65"/>
<polygon fill="#63b8ff" stroke="#63b8ff" points="1247.17,-148.54 1255.06,-141.46 1244.48,-142.08 1247.17,-148.54"/>
</g>
<!-- Node25&#45;&gt;Node21 -->
<g id="edge58" class="edge">
<title>Node25&#45;&gt;Node21</title>
<path fill="none" stroke="#63b8ff" d="M1092.99,-243.03C1122.45,-233.58 1160.91,-221.24 1192.16,-211.21"/>
<polygon fill="#63b8ff" stroke="#63b8ff" points="1193.01,-214.29 1201.46,-207.9 1190.87,-207.63 1193.01,-214.29"/>
</g>
<!-- Node25&#45;&gt;Node23 -->
<g id="edge60" class="edge">
<title>Node25&#45;&gt;Node23</title>
<path fill="none" stroke="#63b8ff" d="M996.27,-249.88C961.54,-242.79 915.56,-229.92 880.12,-207.5 854.25,-191.13 831.89,-163.14 818.96,-144.8"/>
<polygon fill="#63b8ff" stroke="#63b8ff" points="821.3,-143.02 812.78,-136.73 815.52,-146.97 821.3,-143.02"/>
</g>
<!-- Node26 -->
<g id="node26" class="node">
<title>Node26</title>
<g id="a_node26"><a xlink:href="heap-handle_8h.html" target="_top" xlink:title=" ">
<polygon fill="white" stroke="#666666" points="979.75,-74.5 874.5,-74.5 874.5,-55.25 979.75,-55.25 979.75,-74.5"/>
<text text-anchor="middle" x="927.12" y="-61" font-family="Helvetica,sans-Serif" font-size="10.00">cppgc/heap&#45;handle.h</text>
</a>
</g>
</g>
<!-- Node25&#45;&gt;Node26 -->
<g id="edge51" class="edge">
<title>Node25&#45;&gt;Node26</title>
<path fill="none" stroke="#63b8ff" d="M1025.99,-243.14C1013.96,-233.99 999.32,-221.34 989.12,-207.5 987.17,-204.84 951.65,-122.75 935.28,-84.79"/>
<polygon fill="#63b8ff" stroke="#63b8ff" points="938.21,-83.75 931.04,-75.95 931.78,-86.52 938.21,-83.75"/>
</g>
<!-- Node27 -->
<g id="node27" class="node">
<title>Node27</title>
<g id="a_node27"><a xlink:href="heap-state_8h.html" target="_top" xlink:title=" ">
<polygon fill="white" stroke="#666666" points="1096.38,-201.88 997.88,-201.88 997.88,-182.62 1096.38,-182.62 1096.38,-201.88"/>
<text text-anchor="middle" x="1047.12" y="-188.38" font-family="Helvetica,sans-Serif" font-size="10.00">cppgc/heap&#45;state.h</text>
</a>
</g>
</g>
<!-- Node25&#45;&gt;Node27 -->
<g id="edge53" class="edge">
<title>Node25&#45;&gt;Node27</title>
<path fill="none" stroke="#63b8ff" d="M1047.12,-243.11C1047.12,-234.13 1047.12,-222.51 1047.12,-212.76"/>
<polygon fill="#63b8ff" stroke="#63b8ff" points="1050.63,-213.07 1047.12,-203.07 1043.63,-213.07 1050.63,-213.07"/>
</g>
<!-- Node28 -->
<g id="node28" class="node">
<title>Node28</title>
<g id="a_node28"><a xlink:href="atomic-entry-flag_8h.html" target="_top" xlink:title=" ">
<polygon fill="white" stroke="#666666" points="1471.62,-207.5 1362.62,-207.5 1362.62,-177 1471.62,-177 1471.62,-207.5"/>
<text text-anchor="start" x="1370.62" y="-194" font-family="Helvetica,sans-Serif" font-size="10.00">cppgc/internal/atomic</text>
<text text-anchor="middle" x="1417.12" y="-182.75" font-family="Helvetica,sans-Serif" font-size="10.00">&#45;entry&#45;flag.h</text>
</a>
</g>
</g>
<!-- Node25&#45;&gt;Node28 -->
<g id="edge56" class="edge">
<title>Node25&#45;&gt;Node28</title>
<path fill="none" stroke="#63b8ff" d="M1097.8,-248.92C1163.68,-237.43 1278.9,-217.35 1351.43,-204.7"/>
<polygon fill="#63b8ff" stroke="#63b8ff" points="1352,-207.98 1361.25,-202.82 1350.8,-201.08 1352,-207.98"/>
</g>
<!-- Node25&#45;&gt;Node29 -->
<g id="edge61" class="edge">
<title>Node25&#45;&gt;Node29</title>
<path fill="none" stroke="#63b8ff" d="M1097.85,-251.97C1203.02,-239.98 1444.25,-212.49 1555.27,-199.84"/>
<polygon fill="#63b8ff" stroke="#63b8ff" points="1555.38,-203.24 1564.92,-198.63 1554.59,-196.28 1555.38,-203.24"/>
</g>
<!-- Node26&#45;&gt;Node8 -->
<g id="edge52" class="edge">
<title>Node26&#45;&gt;Node8</title>
<path fill="none" stroke="#63b8ff" d="M895.74,-54.84C864.58,-45.87 816.67,-32.08 782.65,-22.29"/>
<polygon fill="#63b8ff" stroke="#63b8ff" points="783.7,-18.66 773.13,-19.26 781.77,-25.39 783.7,-18.66"/>
</g>
<!-- Node27&#45;&gt;Node8 -->
<g id="edge54" class="edge">
<title>Node27&#45;&gt;Node8</title>
<path fill="none" stroke="#63b8ff" d="M1043.55,-182.23C1031.76,-152.55 994.52,-59.55 989.12,-55.25 957.93,-30.38 845,-18.25 783.21,-13.37"/>
<polygon fill="#63b8ff" stroke="#63b8ff" points="783.54,-9.81 773.3,-12.54 783.01,-16.79 783.54,-9.81"/>
</g>
<!-- Node28&#45;&gt;Node18 -->
<g id="edge57" class="edge">
<title>Node28&#45;&gt;Node18</title>
<path fill="none" stroke="#63b8ff" d="M1426.2,-176.61C1432.08,-167.14 1439.77,-154.73 1446.02,-144.66"/>
<polygon fill="#63b8ff" stroke="#63b8ff" points="1449.36,-146.92 1451.65,-136.57 1443.41,-143.23 1449.36,-146.92"/>
</g>
<!-- Node29&#45;&gt;Node8 -->
<g id="edge66" class="edge">
<title>Node29&#45;&gt;Node8</title>
<path fill="none" stroke="#63b8ff" d="M1602.67,-182.3C1582.29,-165.38 1535.22,-128.76 1489.12,-110.5 1358.23,-58.66 919.53,-23.4 783.02,-13.48"/>
<polygon fill="#63b8ff" stroke="#63b8ff" points="783.47,-9.93 773.24,-12.7 782.96,-16.91 783.47,-9.93"/>
</g>
<!-- Node29&#45;&gt;Node19 -->
<g id="edge62" class="edge">
<title>Node29&#45;&gt;Node19</title>
<path fill="none" stroke="#63b8ff" d="M1612.05,-182.23C1609.64,-162.08 1603.76,-113.01 1600.47,-85.46"/>
<polygon fill="#63b8ff" stroke="#63b8ff" points="1603.86,-85.32 1599.19,-75.81 1596.91,-86.15 1603.86,-85.32"/>
</g>
<!-- Node29&#45;&gt;Node30 -->
<g id="edge63" class="edge">
<title>Node29&#45;&gt;Node30</title>
<path fill="none" stroke="#63b8ff" d="M1621.61,-182.28C1631.08,-172.27 1646.61,-155.85 1658.33,-143.45"/>
<polygon fill="#63b8ff" stroke="#63b8ff" points="1660.39,-146.31 1664.72,-136.64 1655.3,-141.5 1660.39,-146.31"/>
</g>
<!-- Node30&#45;&gt;Node3 -->
<g id="edge64" class="edge">
<title>Node30&#45;&gt;Node3</title>
<path fill="none" stroke="#63b8ff" d="M1672.28,-115.74C1668.66,-100.51 1659.06,-69.9 1638.12,-55.25 1588.46,-20.5 1404.95,-12.81 1327.25,-11.11"/>
<polygon fill="#63b8ff" stroke="#63b8ff" points="1327.64,-7.6 1317.58,-10.9 1327.51,-14.59 1327.64,-7.6"/>
</g>
<!-- Node30&#45;&gt;Node19 -->
<g id="edge65" class="edge">
<title>Node30&#45;&gt;Node19</title>
<path fill="none" stroke="#63b8ff" d="M1662.58,-115.81C1650.86,-106.73 1632.48,-92.49 1618.34,-81.54"/>
<polygon fill="#63b8ff" stroke="#63b8ff" points="1620.83,-78.26 1610.78,-74.9 1616.54,-83.79 1620.83,-78.26"/>
</g>
</g>
</svg>
