<?xml version="1.0" encoding="UTF-8" standalone="no"?>
<!DOCTYPE svg PUBLIC "-//W3C//DTD SVG 1.1//EN"
 "http://www.w3.org/Graphics/SVG/1.1/DTD/svg11.dtd">
<!-- Generated by graphviz version 8.0.5 (20230430.1635)
 -->
<!-- Title: include/v8&#45;external.h Pages: 1 -->
<svg width="514pt" height="304pt"
 viewBox="0.00 0.00 514.25 303.50" xmlns="http://www.w3.org/2000/svg" xmlns:xlink="http://www.w3.org/1999/xlink">
<g id="graph0" class="graph" transform="scale(1 1) rotate(0) translate(4 299.5)">
<title>include/v8&#45;external.h</title>
<!-- Node1 -->
<g id="node1" class="node">
<title>Node1</title>
<g id="a_node1"><a xlink:title=" ">
<polygon fill="#999999" stroke="#666666" points="482.5,-295.5 378,-295.5 378,-276.25 482.5,-276.25 482.5,-295.5"/>
<text text-anchor="middle" x="430.25" y="-282" font-family="Helvetica,sans-Serif" font-size="10.00">include/v8&#45;external.h</text>
</a>
</g>
</g>
<!-- Node2 -->
<g id="node2" class="node">
<title>Node2</title>
<g id="a_node2"><a xlink:href="v8-value_8h.html" target="_top" xlink:title=" ">
<polygon fill="white" stroke="#666666" points="413.38,-240.25 353.12,-240.25 353.12,-221 413.38,-221 413.38,-240.25"/>
<text text-anchor="middle" x="383.25" y="-226.75" font-family="Helvetica,sans-Serif" font-size="10.00">v8&#45;value.h</text>
</a>
</g>
</g>
<!-- Node1&#45;&gt;Node2 -->
<g id="edge1" class="edge">
<title>Node1&#45;&gt;Node2</title>
<path fill="none" stroke="#63b8ff" d="M422.49,-276.08C415.93,-268.65 406.34,-257.79 398.29,-248.66"/>
<polygon fill="#63b8ff" stroke="#63b8ff" points="401.42,-246.79 392.18,-241.61 396.17,-251.42 401.42,-246.79"/>
</g>
<!-- Node11 -->
<g id="node11" class="node">
<title>Node11</title>
<g id="a_node11"><a xlink:href="v8config_8h.html" target="_top" xlink:title=" ">
<polygon fill="white" stroke="#666666" points="460,-19.25 400.5,-19.25 400.5,0 460,0 460,-19.25"/>
<text text-anchor="middle" x="430.25" y="-5.75" font-family="Helvetica,sans-Serif" font-size="10.00">v8config.h</text>
</a>
</g>
</g>
<!-- Node1&#45;&gt;Node11 -->
<g id="edge22" class="edge">
<title>Node1&#45;&gt;Node11</title>
<path fill="none" stroke="#63b8ff" d="M442.46,-275.94C463.94,-259.08 506.25,-220.3 506.25,-176.38 506.25,-176.38 506.25,-176.38 506.25,-119.12 506.25,-80.35 473.28,-45.58 450.77,-26.36"/>
<polygon fill="#63b8ff" stroke="#63b8ff" points="453.42,-23.19 443.46,-19.56 448.98,-28.6 453.42,-23.19"/>
</g>
<!-- Node3 -->
<g id="node3" class="node">
<title>Node3</title>
<g id="a_node3"><a xlink:href="v8-data_8h.html" target="_top" xlink:title=" ">
<polygon fill="white" stroke="#666666" points="439.12,-185 383.38,-185 383.38,-165.75 439.12,-165.75 439.12,-185"/>
<text text-anchor="middle" x="411.25" y="-171.5" font-family="Helvetica,sans-Serif" font-size="10.00">v8&#45;data.h</text>
</a>
</g>
</g>
<!-- Node2&#45;&gt;Node3 -->
<g id="edge2" class="edge">
<title>Node2&#45;&gt;Node3</title>
<path fill="none" stroke="#63b8ff" d="M387.87,-220.83C391.58,-213.78 396.91,-203.65 401.54,-194.83"/>
<polygon fill="#63b8ff" stroke="#63b8ff" points="404.97,-196.84 406.53,-186.36 398.77,-193.58 404.97,-196.84"/>
</g>
<!-- Node4 -->
<g id="node4" class="node">
<title>Node4</title>
<g id="a_node4"><a xlink:href="v8-local-handle_8h.html" target="_top" xlink:title=" ">
<polygon fill="white" stroke="#666666" points="304.62,-129.75 215.88,-129.75 215.88,-110.5 304.62,-110.5 304.62,-129.75"/>
<text text-anchor="middle" x="260.25" y="-116.25" font-family="Helvetica,sans-Serif" font-size="10.00">v8&#45;local&#45;handle.h</text>
</a>
</g>
</g>
<!-- Node2&#45;&gt;Node4 -->
<g id="edge15" class="edge">
<title>Node2&#45;&gt;Node4</title>
<path fill="none" stroke="#63b8ff" d="M373.18,-220.75C352.46,-202.47 304.78,-160.4 278.48,-137.21"/>
<polygon fill="#63b8ff" stroke="#63b8ff" points="281.27,-135.12 271.45,-131.13 276.64,-140.37 281.27,-135.12"/>
</g>
<!-- Node7 -->
<g id="node7" class="node">
<title>Node7</title>
<g id="a_node7"><a xlink:href="v8-internal_8h.html" target="_top" xlink:title=" ">
<polygon fill="white" stroke="#666666" points="232.5,-74.5 164,-74.5 164,-55.25 232.5,-55.25 232.5,-74.5"/>
<text text-anchor="middle" x="198.25" y="-61" font-family="Helvetica,sans-Serif" font-size="10.00">v8&#45;internal.h</text>
</a>
</g>
</g>
<!-- Node2&#45;&gt;Node7 -->
<g id="edge14" class="edge">
<title>Node2&#45;&gt;Node7</title>
<path fill="none" stroke="#63b8ff" d="M352.96,-221.55C312.57,-209.07 242.13,-181.02 207.25,-129.75 198.47,-116.85 196.58,-99.07 196.69,-85.54"/>
<polygon fill="#63b8ff" stroke="#63b8ff" points="200.23,-85.73 197.2,-75.58 193.24,-85.4 200.23,-85.73"/>
</g>
<!-- Node2&#45;&gt;Node11 -->
<g id="edge21" class="edge">
<title>Node2&#45;&gt;Node11</title>
<path fill="none" stroke="#63b8ff" d="M406.34,-220.58C421.25,-213.38 439.45,-201.71 448.25,-185 475.13,-133.95 452.33,-62.89 438.69,-29.44"/>
<polygon fill="#63b8ff" stroke="#63b8ff" points="441.64,-28.45 434.5,-20.63 435.2,-31.2 441.64,-28.45"/>
</g>
<!-- Node12 -->
<g id="node12" class="node">
<title>Node12</title>
<g id="a_node12"><a xlink:href="v8-maybe_8h.html" target="_top" xlink:title=" ">
<polygon fill="white" stroke="#666666" points="388,-129.75 322.5,-129.75 322.5,-110.5 388,-110.5 388,-129.75"/>
<text text-anchor="middle" x="355.25" y="-116.25" font-family="Helvetica,sans-Serif" font-size="10.00">v8&#45;maybe.h</text>
</a>
</g>
</g>
<!-- Node2&#45;&gt;Node12 -->
<g id="edge16" class="edge">
<title>Node2&#45;&gt;Node12</title>
<path fill="none" stroke="#63b8ff" d="M380.96,-220.75C376.47,-203.34 366.41,-164.37 360.29,-140.66"/>
<polygon fill="#63b8ff" stroke="#63b8ff" points="363.46,-139.93 357.57,-131.13 356.68,-141.68 363.46,-139.93"/>
</g>
<!-- Node3&#45;&gt;Node4 -->
<g id="edge3" class="edge">
<title>Node3&#45;&gt;Node4</title>
<path fill="none" stroke="#63b8ff" d="M385.63,-165.34C361.01,-156.66 323.58,-143.46 296.02,-133.74"/>
<polygon fill="#63b8ff" stroke="#63b8ff" points="297.59,-130.23 286.99,-130.2 295.26,-136.83 297.59,-130.23"/>
</g>
<!-- Node3&#45;&gt;Node11 -->
<g id="edge13" class="edge">
<title>Node3&#45;&gt;Node11</title>
<path fill="none" stroke="#63b8ff" d="M412.27,-165.57C415.22,-140.14 423.81,-66.1 427.96,-30.37"/>
<polygon fill="#63b8ff" stroke="#63b8ff" points="431.55,-30.81 429.22,-20.47 424.59,-30 431.55,-30.81"/>
</g>
<!-- Node5 -->
<g id="node5" class="node">
<title>Node5</title>
<g id="a_node5"><a xlink:title=" ">
<polygon fill="#e0e0e0" stroke="#999999" points="50.5,-19.25 0,-19.25 0,0 50.5,0 50.5,-19.25"/>
<text text-anchor="middle" x="25.25" y="-5.75" font-family="Helvetica,sans-Serif" font-size="10.00">stddef.h</text>
</a>
</g>
</g>
<!-- Node4&#45;&gt;Node5 -->
<g id="edge4" class="edge">
<title>Node4&#45;&gt;Node5</title>
<path fill="none" stroke="#63b8ff" d="M237.97,-110.07C216.61,-101.29 183.53,-87.44 155.25,-74.5 119.32,-58.05 78.52,-37.73 52.36,-24.49"/>
<polygon fill="#63b8ff" stroke="#63b8ff" points="54.27,-21.02 43.77,-19.61 51.1,-27.26 54.27,-21.02"/>
</g>
<!-- Node6 -->
<g id="node6" class="node">
<title>Node6</title>
<g id="a_node6"><a xlink:title=" ">
<polygon fill="#e0e0e0" stroke="#999999" points="347.75,-19.25 286.75,-19.25 286.75,0 347.75,0 347.75,-19.25"/>
<text text-anchor="middle" x="317.25" y="-5.75" font-family="Helvetica,sans-Serif" font-size="10.00">type_traits</text>
</a>
</g>
</g>
<!-- Node4&#45;&gt;Node6 -->
<g id="edge5" class="edge">
<title>Node4&#45;&gt;Node6</title>
<path fill="none" stroke="#63b8ff" d="M264.91,-110.25C274.18,-92.6 295.09,-52.8 307.49,-29.2"/>
<polygon fill="#63b8ff" stroke="#63b8ff" points="310.97,-31.11 312.52,-20.63 304.77,-27.85 310.97,-31.11"/>
</g>
<!-- Node4&#45;&gt;Node7 -->
<g id="edge6" class="edge">
<title>Node4&#45;&gt;Node7</title>
<path fill="none" stroke="#63b8ff" d="M249.73,-110.09C240.77,-102.4 227.68,-91.15 216.94,-81.93"/>
<polygon fill="#63b8ff" stroke="#63b8ff" points="219.48,-78.64 209.61,-74.77 214.92,-83.95 219.48,-78.64"/>
</g>
<!-- Node7&#45;&gt;Node5 -->
<g id="edge7" class="edge">
<title>Node7&#45;&gt;Node5</title>
<path fill="none" stroke="#63b8ff" d="M168.9,-54.84C139.11,-45.67 92.94,-31.46 61.02,-21.64"/>
<polygon fill="#63b8ff" stroke="#63b8ff" points="62.38,-18.08 51.79,-18.49 60.32,-24.77 62.38,-18.08"/>
</g>
<!-- Node7&#45;&gt;Node6 -->
<g id="edge10" class="edge">
<title>Node7&#45;&gt;Node6</title>
<path fill="none" stroke="#63b8ff" d="M218.44,-54.84C237.24,-46.43 265.53,-33.77 287.03,-24.15"/>
<polygon fill="#63b8ff" stroke="#63b8ff" points="288.27,-26.98 295.96,-19.7 285.41,-20.59 288.27,-26.98"/>
</g>
<!-- Node8 -->
<g id="node8" class="node">
<title>Node8</title>
<g id="a_node8"><a xlink:title=" ">
<polygon fill="#e0e0e0" stroke="#999999" points="203,-19.25 155.5,-19.25 155.5,0 203,0 203,-19.25"/>
<text text-anchor="middle" x="179.25" y="-5.75" font-family="Helvetica,sans-Serif" font-size="10.00">stdint.h</text>
</a>
</g>
</g>
<!-- Node7&#45;&gt;Node8 -->
<g id="edge8" class="edge">
<title>Node7&#45;&gt;Node8</title>
<path fill="none" stroke="#63b8ff" d="M195.11,-55.08C192.68,-48.26 189.22,-38.56 186.15,-29.95"/>
<polygon fill="#63b8ff" stroke="#63b8ff" points="189.11,-28.85 182.46,-20.61 182.52,-31.2 189.11,-28.85"/>
</g>
<!-- Node9 -->
<g id="node9" class="node">
<title>Node9</title>
<g id="a_node9"><a xlink:title=" ">
<polygon fill="#e0e0e0" stroke="#999999" points="269,-19.25 221.5,-19.25 221.5,0 269,0 269,-19.25"/>
<text text-anchor="middle" x="245.25" y="-5.75" font-family="Helvetica,sans-Serif" font-size="10.00">string.h</text>
</a>
</g>
</g>
<!-- Node7&#45;&gt;Node9 -->
<g id="edge9" class="edge">
<title>Node7&#45;&gt;Node9</title>
<path fill="none" stroke="#63b8ff" d="M206.01,-55.08C212.57,-47.65 222.16,-36.79 230.21,-27.66"/>
<polygon fill="#63b8ff" stroke="#63b8ff" points="232.33,-30.42 236.32,-20.61 227.08,-25.79 232.33,-30.42"/>
</g>
<!-- Node10 -->
<g id="node10" class="node">
<title>Node10</title>
<g id="a_node10"><a xlink:href="v8-version_8h.html" target="_top" xlink:title=" ">
<polygon fill="white" stroke="#666666" points="137.5,-19.25 69,-19.25 69,0 137.5,0 137.5,-19.25"/>
<text text-anchor="middle" x="103.25" y="-5.75" font-family="Helvetica,sans-Serif" font-size="10.00">v8&#45;version.h</text>
</a>
</g>
</g>
<!-- Node7&#45;&gt;Node10 -->
<g id="edge11" class="edge">
<title>Node7&#45;&gt;Node10</title>
<path fill="none" stroke="#63b8ff" d="M182.13,-54.84C167.53,-46.66 145.76,-34.46 128.79,-24.94"/>
<polygon fill="#63b8ff" stroke="#63b8ff" points="130.88,-21.54 120.44,-19.7 127.46,-27.65 130.88,-21.54"/>
</g>
<!-- Node7&#45;&gt;Node11 -->
<g id="edge12" class="edge">
<title>Node7&#45;&gt;Node11</title>
<path fill="none" stroke="#63b8ff" d="M232.98,-55.9C274.82,-46.3 344.99,-30.19 389.39,-20"/>
<polygon fill="#63b8ff" stroke="#63b8ff" points="390.12,-23.2 399.09,-17.55 388.56,-16.37 390.12,-23.2"/>
</g>
<!-- Node12&#45;&gt;Node6 -->
<g id="edge17" class="edge">
<title>Node12&#45;&gt;Node6</title>
<path fill="none" stroke="#63b8ff" d="M346.18,-110.14C338.33,-101.73 327.44,-88.4 322.25,-74.5 317,-60.44 315.89,-43.47 316.02,-30.55"/>
<polygon fill="#63b8ff" stroke="#63b8ff" points="319.56,-30.76 316.43,-20.64 312.56,-30.5 319.56,-30.76"/>
</g>
<!-- Node12&#45;&gt;Node7 -->
<g id="edge19" class="edge">
<title>Node12&#45;&gt;Node7</title>
<path fill="none" stroke="#63b8ff" d="M328.62,-110.09C302.9,-101.37 263.75,-88.09 235.07,-78.36"/>
<polygon fill="#63b8ff" stroke="#63b8ff" points="236.61,-74.85 226.01,-74.95 234.36,-81.48 236.61,-74.85"/>
</g>
<!-- Node12&#45;&gt;Node11 -->
<g id="edge20" class="edge">
<title>Node12&#45;&gt;Node11</title>
<path fill="none" stroke="#63b8ff" d="M352.64,-110.17C349.39,-97.13 345.38,-72.6 355.25,-55.25 363.28,-41.12 377.75,-31 391.85,-24.01"/>
<polygon fill="#63b8ff" stroke="#63b8ff" points="392.8,-26.97 400.47,-19.65 389.91,-20.59 392.8,-26.97"/>
</g>
<!-- Node13 -->
<g id="node13" class="node">
<title>Node13</title>
<g id="a_node13"><a xlink:title=" ">
<polygon fill="#e0e0e0" stroke="#999999" points="402.5,-74.5 364,-74.5 364,-55.25 402.5,-55.25 402.5,-74.5"/>
<text text-anchor="middle" x="383.25" y="-61" font-family="Helvetica,sans-Serif" font-size="10.00">utility</text>
</a>
</g>
</g>
<!-- Node12&#45;&gt;Node13 -->
<g id="edge18" class="edge">
<title>Node12&#45;&gt;Node13</title>
<path fill="none" stroke="#63b8ff" d="M359.87,-110.33C363.58,-103.28 368.91,-93.15 373.54,-84.33"/>
<polygon fill="#63b8ff" stroke="#63b8ff" points="376.97,-86.34 378.53,-75.86 370.77,-83.08 376.97,-86.34"/>
</g>
</g>
</svg>
