<?xml version="1.0" encoding="UTF-8" standalone="no"?>
<!DOCTYPE svg PUBLIC "-//W3C//DTD SVG 1.1//EN"
 "http://www.w3.org/Graphics/SVG/1.1/DTD/svg11.dtd">
<!-- Generated by graphviz version 8.0.5 (20230430.1635)
 -->
<!-- Title: include/cppgc/heap&#45;consistency.h Pages: 1 -->
<svg width="1163pt" height="282pt"
 viewBox="0.00 0.00 1163.40 282.00" xmlns="http://www.w3.org/2000/svg" xmlns:xlink="http://www.w3.org/1999/xlink">
<g id="graph0" class="graph" transform="scale(1 1) rotate(0) translate(4 278)">
<title>include/cppgc/heap&#45;consistency.h</title>
<!-- Node1 -->
<g id="node1" class="node">
<title>Node1</title>
<g id="a_node1"><a xlink:title=" ">
<polygon fill="#999999" stroke="#666666" points="934.38,-274 834.38,-274 834.38,-243.5 934.38,-243.5 934.38,-274"/>
<text text-anchor="start" x="842.38" y="-260.5" font-family="Helvetica,sans-Serif" font-size="10.00">include/cppgc/heap</text>
<text text-anchor="middle" x="884.38" y="-249.25" font-family="Helvetica,sans-Serif" font-size="10.00">&#45;consistency.h</text>
</a>
</g>
</g>
<!-- Node2 -->
<g id="node2" class="node">
<title>Node2</title>
<g id="a_node2"><a xlink:title=" ">
<polygon fill="#e0e0e0" stroke="#999999" points="983.5,-19.25 935.25,-19.25 935.25,0 983.5,0 983.5,-19.25"/>
<text text-anchor="middle" x="959.38" y="-5.75" font-family="Helvetica,sans-Serif" font-size="10.00">cstddef</text>
</a>
</g>
</g>
<!-- Node1&#45;&gt;Node2 -->
<g id="edge1" class="edge">
<title>Node1&#45;&gt;Node2</title>
<path fill="none" stroke="#63b8ff" d="M896.72,-243.3C914.11,-222.19 945.69,-181.08 963.38,-141 979.02,-105.53 987.48,-93.16 979.38,-55.25 977.45,-46.23 973.55,-36.83 969.71,-29"/>
<polygon fill="#63b8ff" stroke="#63b8ff" points="972.45,-27.69 964.69,-20.47 966.26,-30.95 972.45,-27.69"/>
</g>
<!-- Node3 -->
<g id="node3" class="node">
<title>Node3</title>
<g id="a_node3"><a xlink:href="write-barrier_8h.html" target="_top" xlink:title=" ">
<polygon fill="white" stroke="#666666" points="655.75,-207.5 555,-207.5 555,-177 655.75,-177 655.75,-207.5"/>
<text text-anchor="start" x="563" y="-194" font-family="Helvetica,sans-Serif" font-size="10.00">cppgc/internal/write</text>
<text text-anchor="middle" x="605.38" y="-182.75" font-family="Helvetica,sans-Serif" font-size="10.00">&#45;barrier.h</text>
</a>
</g>
</g>
<!-- Node1&#45;&gt;Node3 -->
<g id="edge2" class="edge">
<title>Node1&#45;&gt;Node3</title>
<path fill="none" stroke="#63b8ff" d="M834.17,-246.14C787.16,-235.27 716.79,-219.01 666.52,-207.39"/>
<polygon fill="#63b8ff" stroke="#63b8ff" points="667.65,-203.82 657.12,-204.98 666.07,-210.64 667.65,-203.82"/>
</g>
<!-- Node6 -->
<g id="node6" class="node">
<title>Node6</title>
<g id="a_node6"><a xlink:href="v8config_8h.html" target="_top" xlink:title=" ">
<polygon fill="white" stroke="#666666" points="491.12,-19.25 431.62,-19.25 431.62,0 491.12,0 491.12,-19.25"/>
<text text-anchor="middle" x="461.38" y="-5.75" font-family="Helvetica,sans-Serif" font-size="10.00">v8config.h</text>
</a>
</g>
</g>
<!-- Node1&#45;&gt;Node6 -->
<g id="edge36" class="edge">
<title>Node1&#45;&gt;Node6</title>
<path fill="none" stroke="#63b8ff" d="M834.16,-255.18C710.61,-247.67 397.66,-220.95 339.38,-141 316.92,-110.2 317.54,-86.49 339.38,-55.25 357.57,-29.22 392.66,-18.33 420.55,-13.79"/>
<polygon fill="#63b8ff" stroke="#63b8ff" points="420.8,-17.15 430.22,-12.3 419.84,-10.22 420.8,-17.15"/>
</g>
<!-- Node18 -->
<g id="node18" class="node">
<title>Node18</title>
<g id="a_node18"><a xlink:href="trace-trait_8h.html" target="_top" xlink:title=" ">
<polygon fill="white" stroke="#666666" points="931.38,-135.38 837.38,-135.38 837.38,-116.12 931.38,-116.12 931.38,-135.38"/>
<text text-anchor="middle" x="884.38" y="-121.88" font-family="Helvetica,sans-Serif" font-size="10.00">cppgc/trace&#45;trait.h</text>
</a>
</g>
</g>
<!-- Node1&#45;&gt;Node18 -->
<g id="edge35" class="edge">
<title>Node1&#45;&gt;Node18</title>
<path fill="none" stroke="#63b8ff" d="M884.38,-243.23C884.38,-219.77 884.38,-173.46 884.38,-146.85"/>
<polygon fill="#63b8ff" stroke="#63b8ff" points="887.88,-146.85 884.38,-136.85 880.88,-146.85 887.88,-146.85"/>
</g>
<!-- Node21 -->
<g id="node21" class="node">
<title>Node21</title>
<g id="a_node21"><a xlink:href="macros_8h.html" target="_top" xlink:title=" ">
<polygon fill="white" stroke="#666666" points="1125.88,-201.88 1040.88,-201.88 1040.88,-182.62 1125.88,-182.62 1125.88,-201.88"/>
<text text-anchor="middle" x="1083.38" y="-188.38" font-family="Helvetica,sans-Serif" font-size="10.00">cppgc/macros.h</text>
</a>
</g>
</g>
<!-- Node1&#45;&gt;Node21 -->
<g id="edge32" class="edge">
<title>Node1&#45;&gt;Node21</title>
<path fill="none" stroke="#63b8ff" d="M929.53,-243.11C964.4,-231.81 1012.12,-216.35 1045.12,-205.65"/>
<polygon fill="#63b8ff" stroke="#63b8ff" points="1045.85,-208.77 1054.29,-202.35 1043.69,-202.11 1045.85,-208.77"/>
</g>
<!-- Node3&#45;&gt;Node2 -->
<g id="edge3" class="edge">
<title>Node3&#45;&gt;Node2</title>
<path fill="none" stroke="#63b8ff" d="M656.14,-190.77C739.85,-188.86 901.47,-180.07 940.38,-141 969.61,-111.64 966.99,-58.56 962.95,-30.03"/>
<polygon fill="#63b8ff" stroke="#63b8ff" points="966.29,-29.74 961.23,-20.44 959.38,-30.87 966.29,-29.74"/>
</g>
<!-- Node4 -->
<g id="node4" class="node">
<title>Node4</title>
<g id="a_node4"><a xlink:title=" ">
<polygon fill="#e0e0e0" stroke="#999999" points="665,-74.5 619.75,-74.5 619.75,-55.25 665,-55.25 665,-74.5"/>
<text text-anchor="middle" x="642.38" y="-61" font-family="Helvetica,sans-Serif" font-size="10.00">cstdint</text>
</a>
</g>
</g>
<!-- Node3&#45;&gt;Node4 -->
<g id="edge4" class="edge">
<title>Node3&#45;&gt;Node4</title>
<path fill="none" stroke="#63b8ff" d="M594.68,-176.65C583.9,-160.01 570.32,-132.28 581.38,-110.5 587.93,-97.57 600.19,-87.49 612.01,-80.21"/>
<polygon fill="#63b8ff" stroke="#63b8ff" points="613.29,-82.94 620.27,-74.97 609.85,-76.85 613.29,-82.94"/>
</g>
<!-- Node5 -->
<g id="node5" class="node">
<title>Node5</title>
<g id="a_node5"><a xlink:href="heap-state_8h.html" target="_top" xlink:title=" ">
<polygon fill="white" stroke="#666666" points="510.62,-74.5 412.12,-74.5 412.12,-55.25 510.62,-55.25 510.62,-74.5"/>
<text text-anchor="middle" x="461.38" y="-61" font-family="Helvetica,sans-Serif" font-size="10.00">cppgc/heap&#45;state.h</text>
</a>
</g>
</g>
<!-- Node3&#45;&gt;Node5 -->
<g id="edge5" class="edge">
<title>Node3&#45;&gt;Node5</title>
<path fill="none" stroke="#63b8ff" d="M567.43,-176.55C548.82,-168.08 526.91,-156.09 510.38,-141 492.64,-124.81 478.49,-100.87 470.04,-84.38"/>
<polygon fill="#63b8ff" stroke="#63b8ff" points="472.88,-83.22 465.33,-75.78 466.59,-86.3 472.88,-83.22"/>
</g>
<!-- Node3&#45;&gt;Node6 -->
<g id="edge31" class="edge">
<title>Node3&#45;&gt;Node6</title>
<path fill="none" stroke="#63b8ff" d="M596.11,-176.75C589.71,-166.72 581.01,-153.06 573.38,-141 549.28,-102.95 549.69,-88.56 519.38,-55.25 509.22,-44.09 496,-33.69 484.76,-25.73"/>
<polygon fill="#63b8ff" stroke="#63b8ff" points="487.11,-22.42 476.88,-19.67 483.16,-28.2 487.11,-22.42"/>
</g>
<!-- Node7 -->
<g id="node7" class="node">
<title>Node7</title>
<g id="a_node7"><a xlink:href="api-constants_8h.html" target="_top" xlink:title=" ">
<polygon fill="white" stroke="#666666" points="819.62,-141 727.12,-141 727.12,-110.5 819.62,-110.5 819.62,-141"/>
<text text-anchor="start" x="735.12" y="-127.5" font-family="Helvetica,sans-Serif" font-size="10.00">cppgc/internal/api</text>
<text text-anchor="middle" x="773.38" y="-116.25" font-family="Helvetica,sans-Serif" font-size="10.00">&#45;constants.h</text>
</a>
</g>
</g>
<!-- Node3&#45;&gt;Node7 -->
<g id="edge7" class="edge">
<title>Node3&#45;&gt;Node7</title>
<path fill="none" stroke="#63b8ff" d="M643.5,-176.61C667.68,-167.33 699.19,-155.23 725.12,-145.28"/>
<polygon fill="#63b8ff" stroke="#63b8ff" points="726.03,-148.29 734.11,-141.44 723.52,-141.76 726.03,-148.29"/>
</g>
<!-- Node8 -->
<g id="node8" class="node">
<title>Node8</title>
<g id="a_node8"><a xlink:href="atomic-entry-flag_8h.html" target="_top" xlink:title=" ">
<polygon fill="white" stroke="#666666" points="457.88,-141 348.88,-141 348.88,-110.5 457.88,-110.5 457.88,-141"/>
<text text-anchor="start" x="356.88" y="-127.5" font-family="Helvetica,sans-Serif" font-size="10.00">cppgc/internal/atomic</text>
<text text-anchor="middle" x="403.38" y="-116.25" font-family="Helvetica,sans-Serif" font-size="10.00">&#45;entry&#45;flag.h</text>
</a>
</g>
</g>
<!-- Node3&#45;&gt;Node8 -->
<g id="edge11" class="edge">
<title>Node3&#45;&gt;Node8</title>
<path fill="none" stroke="#63b8ff" d="M559.29,-176.53C529.68,-167.08 491.03,-154.74 459.62,-144.71"/>
<polygon fill="#63b8ff" stroke="#63b8ff" points="460.86,-141.11 450.27,-141.4 458.73,-147.78 460.86,-141.11"/>
</g>
<!-- Node10 -->
<g id="node10" class="node">
<title>Node10</title>
<g id="a_node10"><a xlink:href="platform_8h.html" target="_top" xlink:title=" ">
<polygon fill="white" stroke="#666666" points="290.38,-135.38 202.38,-135.38 202.38,-116.12 290.38,-116.12 290.38,-135.38"/>
<text text-anchor="middle" x="246.38" y="-121.88" font-family="Helvetica,sans-Serif" font-size="10.00">cppgc/platform.h</text>
</a>
</g>
</g>
<!-- Node3&#45;&gt;Node10 -->
<g id="edge13" class="edge">
<title>Node3&#45;&gt;Node10</title>
<path fill="none" stroke="#63b8ff" d="M554.7,-182.15C487.83,-170.13 370.54,-149.06 301.51,-136.66"/>
<polygon fill="#63b8ff" stroke="#63b8ff" points="302.32,-133.07 291.86,-134.74 301.08,-139.96 302.32,-133.07"/>
</g>
<!-- Node17 -->
<g id="node17" class="node">
<title>Node17</title>
<g id="a_node17"><a xlink:href="sentinel-pointer_8h.html" target="_top" xlink:title=" ">
<polygon fill="white" stroke="#666666" points="708.75,-135.38 590,-135.38 590,-116.12 708.75,-116.12 708.75,-135.38"/>
<text text-anchor="middle" x="649.38" y="-121.88" font-family="Helvetica,sans-Serif" font-size="10.00">cppgc/sentinel&#45;pointer.h</text>
</a>
</g>
</g>
<!-- Node3&#45;&gt;Node17 -->
<g id="edge23" class="edge">
<title>Node3&#45;&gt;Node17</title>
<path fill="none" stroke="#63b8ff" d="M615.36,-176.61C621.89,-167.04 630.46,-154.47 637.37,-144.35"/>
<polygon fill="#63b8ff" stroke="#63b8ff" points="640.61,-146.81 643.36,-136.57 634.83,-142.86 640.61,-146.81"/>
</g>
<!-- Node3&#45;&gt;Node18 -->
<g id="edge25" class="edge">
<title>Node3&#45;&gt;Node18</title>
<path fill="none" stroke="#63b8ff" d="M655.95,-180.27C701.21,-170.34 769.33,-155.16 828.38,-141 831.74,-140.19 835.22,-139.34 838.71,-138.48"/>
<polygon fill="#63b8ff" stroke="#63b8ff" points="839.31,-141.69 848.16,-135.87 837.61,-134.9 839.31,-141.69"/>
</g>
<!-- Node5&#45;&gt;Node6 -->
<g id="edge6" class="edge">
<title>Node5&#45;&gt;Node6</title>
<path fill="none" stroke="#63b8ff" d="M461.38,-55.08C461.38,-48.42 461.38,-38.99 461.38,-30.53"/>
<polygon fill="#63b8ff" stroke="#63b8ff" points="464.88,-30.61 461.38,-20.61 457.88,-30.61 464.88,-30.61"/>
</g>
<!-- Node7&#45;&gt;Node2 -->
<g id="edge8" class="edge">
<title>Node7&#45;&gt;Node2</title>
<path fill="none" stroke="#63b8ff" d="M780.99,-110.17C789.89,-94.49 806.02,-69.83 826.38,-55.25 855.74,-34.22 895.72,-22.58 924.16,-16.51"/>
<polygon fill="#63b8ff" stroke="#63b8ff" points="924.71,-19.77 933.82,-14.37 923.33,-12.9 924.71,-19.77"/>
</g>
<!-- Node7&#45;&gt;Node4 -->
<g id="edge9" class="edge">
<title>Node7&#45;&gt;Node4</title>
<path fill="none" stroke="#63b8ff" d="M740.66,-110.05C719.75,-100.65 692.83,-88.55 672.46,-79.39"/>
<polygon fill="#63b8ff" stroke="#63b8ff" points="674.02,-75.81 663.47,-74.9 671.15,-82.2 674.02,-75.81"/>
</g>
<!-- Node7&#45;&gt;Node6 -->
<g id="edge10" class="edge">
<title>Node7&#45;&gt;Node6</title>
<path fill="none" stroke="#63b8ff" d="M757.13,-110.16C738.49,-94.23 706.36,-69.12 674.38,-55.25 617.62,-30.63 546.32,-19.25 502.31,-14.24"/>
<polygon fill="#63b8ff" stroke="#63b8ff" points="502.78,-10.66 492.46,-13.07 502.03,-17.62 502.78,-10.66"/>
</g>
<!-- Node9 -->
<g id="node9" class="node">
<title>Node9</title>
<g id="a_node9"><a xlink:title=" ">
<polygon fill="#e0e0e0" stroke="#999999" points="394,-74.5 348.75,-74.5 348.75,-55.25 394,-55.25 394,-74.5"/>
<text text-anchor="middle" x="371.38" y="-61" font-family="Helvetica,sans-Serif" font-size="10.00">atomic</text>
</a>
</g>
</g>
<!-- Node8&#45;&gt;Node9 -->
<g id="edge12" class="edge">
<title>Node8&#45;&gt;Node9</title>
<path fill="none" stroke="#63b8ff" d="M395.46,-110.2C391.25,-102.44 386.02,-92.81 381.5,-84.51"/>
<polygon fill="#63b8ff" stroke="#63b8ff" points="384.16,-83.07 376.31,-75.95 378.01,-86.41 384.16,-83.07"/>
</g>
<!-- Node10&#45;&gt;Node6 -->
<g id="edge22" class="edge">
<title>Node10&#45;&gt;Node6</title>
<path fill="none" stroke="#63b8ff" d="M251.48,-116.06C260.61,-101.32 281.14,-71.41 306.38,-55.25 341.34,-32.87 387.78,-21.44 420.69,-15.79"/>
<polygon fill="#63b8ff" stroke="#63b8ff" points="420.97,-19.13 430.29,-14.09 419.86,-12.22 420.97,-19.13"/>
</g>
<!-- Node11 -->
<g id="node11" class="node">
<title>Node11</title>
<g id="a_node11"><a xlink:title=" ">
<polygon fill="#e0e0e0" stroke="#999999" points="306.62,-19.25 256.12,-19.25 256.12,0 306.62,0 306.62,-19.25"/>
<text text-anchor="middle" x="281.38" y="-5.75" font-family="Helvetica,sans-Serif" font-size="10.00">memory</text>
</a>
</g>
</g>
<!-- Node10&#45;&gt;Node11 -->
<g id="edge14" class="edge">
<title>Node10&#45;&gt;Node11</title>
<path fill="none" stroke="#63b8ff" d="M249.12,-115.79C254.77,-97.38 267.8,-54.89 275.46,-29.92"/>
<polygon fill="#63b8ff" stroke="#63b8ff" points="279.06,-31.13 278.64,-20.54 272.36,-29.07 279.06,-31.13"/>
</g>
<!-- Node12 -->
<g id="node12" class="node">
<title>Node12</title>
<g id="a_node12"><a xlink:href="v8-platform_8h.html" target="_top" xlink:title=" ">
<polygon fill="white" stroke="#666666" points="216.5,-74.5 144.25,-74.5 144.25,-55.25 216.5,-55.25 216.5,-74.5"/>
<text text-anchor="middle" x="180.38" y="-61" font-family="Helvetica,sans-Serif" font-size="10.00">v8&#45;platform.h</text>
</a>
</g>
</g>
<!-- Node10&#45;&gt;Node12 -->
<g id="edge15" class="edge">
<title>Node10&#45;&gt;Node12</title>
<path fill="none" stroke="#63b8ff" d="M236.35,-115.81C226.37,-106.9 210.82,-93.03 198.64,-82.17"/>
<polygon fill="#63b8ff" stroke="#63b8ff" points="201.29,-79.95 191.49,-75.9 196.63,-85.17 201.29,-79.95"/>
</g>
<!-- Node12&#45;&gt;Node6 -->
<g id="edge21" class="edge">
<title>Node12&#45;&gt;Node6</title>
<path fill="none" stroke="#63b8ff" d="M216.82,-56.97C269.34,-47.02 365.98,-28.7 420.73,-18.33"/>
<polygon fill="#63b8ff" stroke="#63b8ff" points="421.25,-21.6 430.42,-16.3 419.95,-14.72 421.25,-21.6"/>
</g>
<!-- Node12&#45;&gt;Node11 -->
<g id="edge19" class="edge">
<title>Node12&#45;&gt;Node11</title>
<path fill="none" stroke="#63b8ff" d="M197.51,-54.84C213.11,-46.62 236.39,-34.34 254.47,-24.81"/>
<polygon fill="#63b8ff" stroke="#63b8ff" points="255.94,-27.46 263.16,-19.7 252.68,-21.27 255.94,-27.46"/>
</g>
<!-- Node13 -->
<g id="node13" class="node">
<title>Node13</title>
<g id="a_node13"><a xlink:title=" ">
<polygon fill="#e0e0e0" stroke="#999999" points="172.62,-19.25 122.12,-19.25 122.12,0 172.62,0 172.62,-19.25"/>
<text text-anchor="middle" x="147.38" y="-5.75" font-family="Helvetica,sans-Serif" font-size="10.00">stddef.h</text>
</a>
</g>
</g>
<!-- Node12&#45;&gt;Node13 -->
<g id="edge16" class="edge">
<title>Node12&#45;&gt;Node13</title>
<path fill="none" stroke="#63b8ff" d="M174.93,-55.08C170.51,-47.96 164.14,-37.68 158.64,-28.8"/>
<polygon fill="#63b8ff" stroke="#63b8ff" points="161.19,-27.27 152.94,-20.61 155.24,-30.95 161.19,-27.27"/>
</g>
<!-- Node14 -->
<g id="node14" class="node">
<title>Node14</title>
<g id="a_node14"><a xlink:title=" ">
<polygon fill="#e0e0e0" stroke="#999999" points="238.12,-19.25 190.62,-19.25 190.62,0 238.12,0 238.12,-19.25"/>
<text text-anchor="middle" x="214.38" y="-5.75" font-family="Helvetica,sans-Serif" font-size="10.00">stdint.h</text>
</a>
</g>
</g>
<!-- Node12&#45;&gt;Node14 -->
<g id="edge17" class="edge">
<title>Node12&#45;&gt;Node14</title>
<path fill="none" stroke="#63b8ff" d="M185.99,-55.08C190.54,-47.96 197.1,-37.68 202.77,-28.8"/>
<polygon fill="#63b8ff" stroke="#63b8ff" points="206.21,-30.92 208.64,-20.61 200.31,-27.15 206.21,-30.92"/>
</g>
<!-- Node15 -->
<g id="node15" class="node">
<title>Node15</title>
<g id="a_node15"><a xlink:title=" ">
<polygon fill="#e0e0e0" stroke="#999999" points="46.75,-19.25 0,-19.25 0,0 46.75,0 46.75,-19.25"/>
<text text-anchor="middle" x="23.38" y="-5.75" font-family="Helvetica,sans-Serif" font-size="10.00">stdlib.h</text>
</a>
</g>
</g>
<!-- Node12&#45;&gt;Node15 -->
<g id="edge18" class="edge">
<title>Node12&#45;&gt;Node15</title>
<path fill="none" stroke="#63b8ff" d="M153.74,-54.84C127.09,-45.8 86.01,-31.87 57.1,-22.06"/>
<polygon fill="#63b8ff" stroke="#63b8ff" points="58.65,-18.55 48.05,-18.66 56.4,-25.18 58.65,-18.55"/>
</g>
<!-- Node16 -->
<g id="node16" class="node">
<title>Node16</title>
<g id="a_node16"><a xlink:title=" ">
<polygon fill="#e0e0e0" stroke="#999999" points="104.38,-19.25 64.38,-19.25 64.38,0 104.38,0 104.38,-19.25"/>
<text text-anchor="middle" x="84.38" y="-5.75" font-family="Helvetica,sans-Serif" font-size="10.00">string</text>
</a>
</g>
</g>
<!-- Node12&#45;&gt;Node16 -->
<g id="edge20" class="edge">
<title>Node12&#45;&gt;Node16</title>
<path fill="none" stroke="#63b8ff" d="M164.09,-54.84C149.33,-46.66 127.34,-34.46 110.19,-24.94"/>
<polygon fill="#63b8ff" stroke="#63b8ff" points="112.18,-21.49 101.74,-19.7 108.79,-27.61 112.18,-21.49"/>
</g>
<!-- Node17&#45;&gt;Node4 -->
<g id="edge24" class="edge">
<title>Node17&#45;&gt;Node4</title>
<path fill="none" stroke="#63b8ff" d="M648.31,-115.81C647.37,-107.85 645.95,-95.94 644.74,-85.74"/>
<polygon fill="#63b8ff" stroke="#63b8ff" points="648.1,-85.42 643.45,-75.9 641.15,-86.24 648.1,-85.42"/>
</g>
<!-- Node18&#45;&gt;Node6 -->
<g id="edge30" class="edge">
<title>Node18&#45;&gt;Node6</title>
<path fill="none" stroke="#63b8ff" d="M864.78,-115.66C832.45,-100.98 765.58,-72.03 706.38,-55.25 635.95,-35.29 551.51,-22.21 502.4,-15.64"/>
<polygon fill="#63b8ff" stroke="#63b8ff" points="502.96,-12.06 492.59,-14.23 502.05,-19 502.96,-12.06"/>
</g>
<!-- Node19 -->
<g id="node19" class="node">
<title>Node19</title>
<g id="a_node19"><a xlink:title=" ">
<polygon fill="#e0e0e0" stroke="#999999" points="856.88,-19.25 795.88,-19.25 795.88,0 856.88,0 856.88,-19.25"/>
<text text-anchor="middle" x="826.38" y="-5.75" font-family="Helvetica,sans-Serif" font-size="10.00">type_traits</text>
</a>
</g>
</g>
<!-- Node18&#45;&gt;Node19 -->
<g id="edge26" class="edge">
<title>Node18&#45;&gt;Node19</title>
<path fill="none" stroke="#63b8ff" d="M867.6,-115.73C853.66,-107.18 834.79,-92.92 826.38,-74.5 820.03,-60.6 820.51,-43.15 822.32,-30.01"/>
<polygon fill="#63b8ff" stroke="#63b8ff" points="825.9,-30.83 824.18,-20.37 819.01,-29.61 825.9,-30.83"/>
</g>
<!-- Node20 -->
<g id="node20" class="node">
<title>Node20</title>
<g id="a_node20"><a xlink:href="type-traits_8h.html" target="_top" xlink:title=" ">
<polygon fill="white" stroke="#666666" points="931.12,-74.5 835.62,-74.5 835.62,-55.25 931.12,-55.25 931.12,-74.5"/>
<text text-anchor="middle" x="883.38" y="-61" font-family="Helvetica,sans-Serif" font-size="10.00">cppgc/type&#45;traits.h</text>
</a>
</g>
</g>
<!-- Node18&#45;&gt;Node20 -->
<g id="edge27" class="edge">
<title>Node18&#45;&gt;Node20</title>
<path fill="none" stroke="#63b8ff" d="M884.22,-115.81C884.09,-107.85 883.89,-95.94 883.71,-85.74"/>
<polygon fill="#63b8ff" stroke="#63b8ff" points="887.2,-85.84 883.53,-75.9 880.2,-85.96 887.2,-85.84"/>
</g>
<!-- Node20&#45;&gt;Node2 -->
<g id="edge28" class="edge">
<title>Node20&#45;&gt;Node2</title>
<path fill="none" stroke="#63b8ff" d="M896.27,-54.84C907.62,-46.89 924.39,-35.14 937.79,-25.75"/>
<polygon fill="#63b8ff" stroke="#63b8ff" points="939.24,-28.31 945.42,-19.7 935.22,-22.57 939.24,-28.31"/>
</g>
<!-- Node20&#45;&gt;Node19 -->
<g id="edge29" class="edge">
<title>Node20&#45;&gt;Node19</title>
<path fill="none" stroke="#63b8ff" d="M873.71,-54.84C865.55,-47.22 853.67,-36.12 843.85,-26.95"/>
<polygon fill="#63b8ff" stroke="#63b8ff" points="846.6,-24.79 836.9,-20.52 841.82,-29.91 846.6,-24.79"/>
</g>
<!-- Node21&#45;&gt;Node2 -->
<g id="edge33" class="edge">
<title>Node21&#45;&gt;Node2</title>
<path fill="none" stroke="#63b8ff" d="M1103.95,-182.24C1119.86,-174.03 1140.75,-160.25 1150.38,-141 1156.44,-128.88 1157.4,-122.1 1150.38,-110.5 1116.44,-54.46 1039.6,-28.36 994.4,-17.46"/>
<polygon fill="#63b8ff" stroke="#63b8ff" points="995.44,-13.88 984.91,-15.06 993.88,-20.7 995.44,-13.88"/>
</g>
<!-- Node22 -->
<g id="node22" class="node">
<title>Node22</title>
<g id="a_node22"><a xlink:href="compiler-specific_8h.html" target="_top" xlink:title=" ">
<polygon fill="white" stroke="#666666" points="1141.62,-141 1025.12,-141 1025.12,-110.5 1141.62,-110.5 1141.62,-141"/>
<text text-anchor="start" x="1033.12" y="-127.5" font-family="Helvetica,sans-Serif" font-size="10.00">cppgc/internal/compiler</text>
<text text-anchor="middle" x="1083.38" y="-116.25" font-family="Helvetica,sans-Serif" font-size="10.00">&#45;specific.h</text>
</a>
</g>
</g>
<!-- Node21&#45;&gt;Node22 -->
<g id="edge34" class="edge">
<title>Node21&#45;&gt;Node22</title>
<path fill="none" stroke="#63b8ff" d="M1083.38,-182.28C1083.38,-174.45 1083.38,-162.7 1083.38,-152.02"/>
<polygon fill="#63b8ff" stroke="#63b8ff" points="1086.88,-152.09 1083.38,-142.09 1079.88,-152.09 1086.88,-152.09"/>
</g>
</g>
</svg>
