<?xml version="1.0" encoding="UTF-8" standalone="no"?>
<!DOCTYPE svg PUBLIC "-//W3C//DTD SVG 1.1//EN"
 "http://www.w3.org/Graphics/SVG/1.1/DTD/svg11.dtd">
<!-- Generated by graphviz version 8.0.5 (20230430.1635)
 -->
<!-- Title: include/v8&#45;message.h Pages: 1 -->
<svg width="567pt" height="359pt"
 viewBox="0.00 0.00 567.25 358.75" xmlns="http://www.w3.org/2000/svg" xmlns:xlink="http://www.w3.org/1999/xlink">
<g id="graph0" class="graph" transform="scale(1 1) rotate(0) translate(4 354.75)">
<title>include/v8&#45;message.h</title>
<!-- Node1 -->
<g id="node1" class="node">
<title>Node1</title>
<g id="a_node1"><a xlink:title=" ">
<polygon fill="#999999" stroke="#666666" points="228.5,-350.75 118,-350.75 118,-331.5 228.5,-331.5 228.5,-350.75"/>
<text text-anchor="middle" x="173.25" y="-337.25" font-family="Helvetica,sans-Serif" font-size="10.00">include/v8&#45;message.h</text>
</a>
</g>
</g>
<!-- Node2 -->
<g id="node2" class="node">
<title>Node2</title>
<g id="a_node2"><a xlink:title=" ">
<polygon fill="#e0e0e0" stroke="#999999" points="44.5,-295.5 0,-295.5 0,-276.25 44.5,-276.25 44.5,-295.5"/>
<text text-anchor="middle" x="22.25" y="-282" font-family="Helvetica,sans-Serif" font-size="10.00">stdio.h</text>
</a>
</g>
</g>
<!-- Node1&#45;&gt;Node2 -->
<g id="edge1" class="edge">
<title>Node1&#45;&gt;Node2</title>
<path fill="none" stroke="#63b8ff" d="M147.63,-331.09C121.97,-322.04 82.38,-308.08 54.57,-298.27"/>
<polygon fill="#63b8ff" stroke="#63b8ff" points="56.14,-294.76 45.54,-294.74 53.81,-301.36 56.14,-294.76"/>
</g>
<!-- Node3 -->
<g id="node3" class="node">
<title>Node3</title>
<g id="a_node3"><a xlink:title=" ">
<polygon fill="#e0e0e0" stroke="#999999" points="107.5,-295.5 63,-295.5 63,-276.25 107.5,-276.25 107.5,-295.5"/>
<text text-anchor="middle" x="85.25" y="-282" font-family="Helvetica,sans-Serif" font-size="10.00">iosfwd</text>
</a>
</g>
</g>
<!-- Node1&#45;&gt;Node3 -->
<g id="edge2" class="edge">
<title>Node1&#45;&gt;Node3</title>
<path fill="none" stroke="#63b8ff" d="M158.32,-331.09C144.92,-322.98 125.01,-310.93 109.35,-301.46"/>
<polygon fill="#63b8ff" stroke="#63b8ff" points="111.62,-298.14 101.25,-295.95 107.99,-304.12 111.62,-298.14"/>
</g>
<!-- Node4 -->
<g id="node4" class="node">
<title>Node4</title>
<g id="a_node4"><a xlink:href="v8-local-handle_8h.html" target="_top" xlink:title=" ">
<polygon fill="white" stroke="#666666" points="199.62,-129.75 110.88,-129.75 110.88,-110.5 199.62,-110.5 199.62,-129.75"/>
<text text-anchor="middle" x="155.25" y="-116.25" font-family="Helvetica,sans-Serif" font-size="10.00">v8&#45;local&#45;handle.h</text>
</a>
</g>
</g>
<!-- Node1&#45;&gt;Node4 -->
<g id="edge3" class="edge">
<title>Node1&#45;&gt;Node4</title>
<path fill="none" stroke="#63b8ff" d="M172.52,-331.27C169.86,-298.87 160.61,-186.3 156.85,-140.62"/>
<polygon fill="#63b8ff" stroke="#63b8ff" points="160.27,-140.53 155.97,-130.85 153.3,-141.1 160.27,-140.53"/>
</g>
<!-- Node11 -->
<g id="node11" class="node">
<title>Node11</title>
<g id="a_node11"><a xlink:href="v8config_8h.html" target="_top" xlink:title=" ">
<polygon fill="white" stroke="#666666" points="490,-19.25 430.5,-19.25 430.5,0 490,0 490,-19.25"/>
<text text-anchor="middle" x="460.25" y="-5.75" font-family="Helvetica,sans-Serif" font-size="10.00">v8config.h</text>
</a>
</g>
</g>
<!-- Node1&#45;&gt;Node11 -->
<g id="edge29" class="edge">
<title>Node1&#45;&gt;Node11</title>
<path fill="none" stroke="#63b8ff" d="M228.97,-336.1C335.86,-326.85 559.25,-299.41 559.25,-231.62 559.25,-231.62 559.25,-231.62 559.25,-119.12 559.25,-76.28 516.61,-42.94 487.3,-25.08"/>
<polygon fill="#63b8ff" stroke="#63b8ff" points="489.35,-21.65 478.95,-19.63 485.82,-27.69 489.35,-21.65"/>
</g>
<!-- Node12 -->
<g id="node12" class="node">
<title>Node12</title>
<g id="a_node12"><a xlink:href="v8-maybe_8h.html" target="_top" xlink:title=" ">
<polygon fill="white" stroke="#666666" points="493,-129.75 427.5,-129.75 427.5,-110.5 493,-110.5 493,-129.75"/>
<text text-anchor="middle" x="460.25" y="-116.25" font-family="Helvetica,sans-Serif" font-size="10.00">v8&#45;maybe.h</text>
</a>
</g>
</g>
<!-- Node1&#45;&gt;Node12 -->
<g id="edge13" class="edge">
<title>Node1&#45;&gt;Node12</title>
<path fill="none" stroke="#63b8ff" d="M204.01,-331.05C259.66,-312.97 376.8,-266.96 436.25,-185 445.93,-171.65 452.18,-153.93 455.87,-140.54"/>
<polygon fill="#63b8ff" stroke="#63b8ff" points="459.45,-141.66 458.47,-131.11 452.65,-139.96 459.45,-141.66"/>
</g>
<!-- Node13 -->
<g id="node13" class="node">
<title>Node13</title>
<g id="a_node13"><a xlink:href="v8-primitive_8h.html" target="_top" xlink:title=" ">
<polygon fill="white" stroke="#666666" points="273.12,-295.5 199.38,-295.5 199.38,-276.25 273.12,-276.25 273.12,-295.5"/>
<text text-anchor="middle" x="236.25" y="-282" font-family="Helvetica,sans-Serif" font-size="10.00">v8&#45;primitive.h</text>
</a>
</g>
</g>
<!-- Node1&#45;&gt;Node13 -->
<g id="edge16" class="edge">
<title>Node1&#45;&gt;Node13</title>
<path fill="none" stroke="#63b8ff" d="M183.94,-331.09C193.13,-323.32 206.61,-311.92 217.59,-302.65"/>
<polygon fill="#63b8ff" stroke="#63b8ff" points="219.34,-304.9 224.72,-295.77 214.82,-299.56 219.34,-304.9"/>
</g>
<!-- Node5 -->
<g id="node5" class="node">
<title>Node5</title>
<g id="a_node5"><a xlink:title=" ">
<polygon fill="#e0e0e0" stroke="#999999" points="115.5,-19.25 65,-19.25 65,0 115.5,0 115.5,-19.25"/>
<text text-anchor="middle" x="90.25" y="-5.75" font-family="Helvetica,sans-Serif" font-size="10.00">stddef.h</text>
</a>
</g>
</g>
<!-- Node4&#45;&gt;Node5 -->
<g id="edge4" class="edge">
<title>Node4&#45;&gt;Node5</title>
<path fill="none" stroke="#63b8ff" d="M149.93,-110.25C139.31,-92.52 115.3,-52.44 101.18,-28.88"/>
<polygon fill="#63b8ff" stroke="#63b8ff" points="103.78,-27.41 95.64,-20.63 97.78,-31 103.78,-27.41"/>
</g>
<!-- Node6 -->
<g id="node6" class="node">
<title>Node6</title>
<g id="a_node6"><a xlink:title=" ">
<polygon fill="#e0e0e0" stroke="#999999" points="194.75,-19.25 133.75,-19.25 133.75,0 194.75,0 194.75,-19.25"/>
<text text-anchor="middle" x="164.25" y="-5.75" font-family="Helvetica,sans-Serif" font-size="10.00">type_traits</text>
</a>
</g>
</g>
<!-- Node4&#45;&gt;Node6 -->
<g id="edge5" class="edge">
<title>Node4&#45;&gt;Node6</title>
<path fill="none" stroke="#63b8ff" d="M155.99,-110.25C157.42,-92.92 160.63,-54.23 162.6,-30.49"/>
<polygon fill="#63b8ff" stroke="#63b8ff" points="166.16,-30.88 163.5,-20.63 159.19,-30.3 166.16,-30.88"/>
</g>
<!-- Node7 -->
<g id="node7" class="node">
<title>Node7</title>
<g id="a_node7"><a xlink:href="v8-internal_8h.html" target="_top" xlink:title=" ">
<polygon fill="white" stroke="#666666" points="273.5,-74.5 205,-74.5 205,-55.25 273.5,-55.25 273.5,-74.5"/>
<text text-anchor="middle" x="239.25" y="-61" font-family="Helvetica,sans-Serif" font-size="10.00">v8&#45;internal.h</text>
</a>
</g>
</g>
<!-- Node4&#45;&gt;Node7 -->
<g id="edge6" class="edge">
<title>Node4&#45;&gt;Node7</title>
<path fill="none" stroke="#63b8ff" d="M169.5,-110.09C182.17,-102.06 200.94,-90.16 215.82,-80.73"/>
<polygon fill="#63b8ff" stroke="#63b8ff" points="217.36,-83.26 223.93,-74.95 213.61,-77.35 217.36,-83.26"/>
</g>
<!-- Node7&#45;&gt;Node5 -->
<g id="edge7" class="edge">
<title>Node7&#45;&gt;Node5</title>
<path fill="none" stroke="#63b8ff" d="M213.97,-54.84C189.79,-46.2 153.07,-33.07 125.91,-23.37"/>
<polygon fill="#63b8ff" stroke="#63b8ff" points="127.24,-19.77 116.65,-19.7 124.89,-26.36 127.24,-19.77"/>
</g>
<!-- Node7&#45;&gt;Node6 -->
<g id="edge10" class="edge">
<title>Node7&#45;&gt;Node6</title>
<path fill="none" stroke="#63b8ff" d="M226.53,-54.84C215.43,-46.96 199.09,-35.36 185.93,-26.02"/>
<polygon fill="#63b8ff" stroke="#63b8ff" points="188.22,-22.64 178.04,-19.7 184.16,-28.35 188.22,-22.64"/>
</g>
<!-- Node8 -->
<g id="node8" class="node">
<title>Node8</title>
<g id="a_node8"><a xlink:title=" ">
<polygon fill="#e0e0e0" stroke="#999999" points="260,-19.25 212.5,-19.25 212.5,0 260,0 260,-19.25"/>
<text text-anchor="middle" x="236.25" y="-5.75" font-family="Helvetica,sans-Serif" font-size="10.00">stdint.h</text>
</a>
</g>
</g>
<!-- Node7&#45;&gt;Node8 -->
<g id="edge8" class="edge">
<title>Node7&#45;&gt;Node8</title>
<path fill="none" stroke="#63b8ff" d="M238.75,-55.08C238.38,-48.42 237.85,-38.99 237.37,-30.53"/>
<polygon fill="#63b8ff" stroke="#63b8ff" points="240.81,-30.4 236.76,-20.61 233.82,-30.79 240.81,-30.4"/>
</g>
<!-- Node9 -->
<g id="node9" class="node">
<title>Node9</title>
<g id="a_node9"><a xlink:title=" ">
<polygon fill="#e0e0e0" stroke="#999999" points="326,-19.25 278.5,-19.25 278.5,0 326,0 326,-19.25"/>
<text text-anchor="middle" x="302.25" y="-5.75" font-family="Helvetica,sans-Serif" font-size="10.00">string.h</text>
</a>
</g>
</g>
<!-- Node7&#45;&gt;Node9 -->
<g id="edge9" class="edge">
<title>Node7&#45;&gt;Node9</title>
<path fill="none" stroke="#63b8ff" d="M249.94,-54.84C259.13,-47.07 272.61,-35.67 283.59,-26.4"/>
<polygon fill="#63b8ff" stroke="#63b8ff" points="285.34,-28.65 290.72,-19.52 280.82,-23.31 285.34,-28.65"/>
</g>
<!-- Node10 -->
<g id="node10" class="node">
<title>Node10</title>
<g id="a_node10"><a xlink:href="v8-version_8h.html" target="_top" xlink:title=" ">
<polygon fill="white" stroke="#666666" points="412.5,-19.25 344,-19.25 344,0 412.5,0 412.5,-19.25"/>
<text text-anchor="middle" x="378.25" y="-5.75" font-family="Helvetica,sans-Serif" font-size="10.00">v8&#45;version.h</text>
</a>
</g>
</g>
<!-- Node7&#45;&gt;Node10 -->
<g id="edge11" class="edge">
<title>Node7&#45;&gt;Node10</title>
<path fill="none" stroke="#63b8ff" d="M262.83,-54.84C285.19,-46.27 319.04,-33.31 344.31,-23.63"/>
<polygon fill="#63b8ff" stroke="#63b8ff" points="345.47,-26.55 353.55,-19.7 342.96,-20.01 345.47,-26.55"/>
</g>
<!-- Node7&#45;&gt;Node11 -->
<g id="edge12" class="edge">
<title>Node7&#45;&gt;Node11</title>
<path fill="none" stroke="#63b8ff" d="M273.78,-55.55C313.23,-46.05 377.72,-30.51 419.57,-20.43"/>
<polygon fill="#63b8ff" stroke="#63b8ff" points="420.31,-23.61 429.21,-17.86 418.67,-16.8 420.31,-23.61"/>
</g>
<!-- Node12&#45;&gt;Node7 -->
<g id="edge14" class="edge">
<title>Node12&#45;&gt;Node7</title>
<path fill="none" stroke="#63b8ff" d="M427.16,-111.15C389.17,-102 326.64,-86.93 284.24,-76.72"/>
<polygon fill="#63b8ff" stroke="#63b8ff" points="285.2,-73.1 274.66,-74.16 283.56,-79.91 285.2,-73.1"/>
</g>
<!-- Node12&#45;&gt;Node11 -->
<g id="edge15" class="edge">
<title>Node12&#45;&gt;Node11</title>
<path fill="none" stroke="#63b8ff" d="M460.25,-110.25C460.25,-92.92 460.25,-54.23 460.25,-30.49"/>
<polygon fill="#63b8ff" stroke="#63b8ff" points="463.75,-30.63 460.25,-20.63 456.75,-30.63 463.75,-30.63"/>
</g>
<!-- Node13&#45;&gt;Node4 -->
<g id="edge21" class="edge">
<title>Node13&#45;&gt;Node4</title>
<path fill="none" stroke="#63b8ff" d="M226.42,-275.78C217.73,-267.3 205.24,-253.93 197.25,-240.25 178.15,-207.54 165.7,-164.74 159.63,-140.35"/>
<polygon fill="#63b8ff" stroke="#63b8ff" points="162.88,-139.9 157.15,-130.99 156.07,-141.53 162.88,-139.9"/>
</g>
<!-- Node13&#45;&gt;Node7 -->
<g id="edge20" class="edge">
<title>Node13&#45;&gt;Node7</title>
<path fill="none" stroke="#63b8ff" d="M235.21,-275.91C233.05,-256.06 228.4,-206.92 230.25,-165.75 231.5,-137.95 234.7,-105.93 236.92,-85.8"/>
<polygon fill="#63b8ff" stroke="#63b8ff" points="240.51,-86.28 238.16,-75.95 233.55,-85.49 240.51,-86.28"/>
</g>
<!-- Node13&#45;&gt;Node11 -->
<g id="edge28" class="edge">
<title>Node13&#45;&gt;Node11</title>
<path fill="none" stroke="#63b8ff" d="M273.51,-278.76C350.76,-265.03 521.25,-228.79 521.25,-176.38 521.25,-176.38 521.25,-176.38 521.25,-119.12 521.25,-82.79 494.94,-47.39 476.88,-27.36"/>
<polygon fill="#63b8ff" stroke="#63b8ff" points="479.91,-25.41 470.51,-20.53 474.81,-30.21 479.91,-25.41"/>
</g>
<!-- Node14 -->
<g id="node14" class="node">
<title>Node14</title>
<g id="a_node14"><a xlink:href="v8-data_8h.html" target="_top" xlink:title=" ">
<polygon fill="white" stroke="#666666" points="295.12,-185 239.38,-185 239.38,-165.75 295.12,-165.75 295.12,-185"/>
<text text-anchor="middle" x="267.25" y="-171.5" font-family="Helvetica,sans-Serif" font-size="10.00">v8&#45;data.h</text>
</a>
</g>
</g>
<!-- Node13&#45;&gt;Node14 -->
<g id="edge17" class="edge">
<title>Node13&#45;&gt;Node14</title>
<path fill="none" stroke="#63b8ff" d="M238.79,-276C243.76,-258.59 254.89,-219.62 261.67,-195.91"/>
<polygon fill="#63b8ff" stroke="#63b8ff" points="265.3,-196.95 264.68,-186.38 258.57,-195.03 265.3,-196.95"/>
</g>
<!-- Node15 -->
<g id="node15" class="node">
<title>Node15</title>
<g id="a_node15"><a xlink:href="v8-value_8h.html" target="_top" xlink:title=" ">
<polygon fill="white" stroke="#666666" points="358.38,-240.25 298.12,-240.25 298.12,-221 358.38,-221 358.38,-240.25"/>
<text text-anchor="middle" x="328.25" y="-226.75" font-family="Helvetica,sans-Serif" font-size="10.00">v8&#45;value.h</text>
</a>
</g>
</g>
<!-- Node13&#45;&gt;Node15 -->
<g id="edge22" class="edge">
<title>Node13&#45;&gt;Node15</title>
<path fill="none" stroke="#63b8ff" d="M251.86,-275.84C265.87,-267.73 286.68,-255.68 303.05,-246.21"/>
<polygon fill="#63b8ff" stroke="#63b8ff" points="304.67,-248.74 311.57,-240.7 301.16,-242.68 304.67,-248.74"/>
</g>
<!-- Node14&#45;&gt;Node4 -->
<g id="edge18" class="edge">
<title>Node14&#45;&gt;Node4</title>
<path fill="none" stroke="#63b8ff" d="M248.25,-165.34C230.71,-157 204.41,-144.5 184.25,-134.91"/>
<polygon fill="#63b8ff" stroke="#63b8ff" points="185.88,-131.34 175.34,-130.2 182.87,-137.66 185.88,-131.34"/>
</g>
<!-- Node14&#45;&gt;Node11 -->
<g id="edge19" class="edge">
<title>Node14&#45;&gt;Node11</title>
<path fill="none" stroke="#63b8ff" d="M274.6,-165.54C292.24,-144.7 338.92,-91.46 385.25,-55.25 399.99,-43.73 417.97,-32.94 432.62,-24.85"/>
<polygon fill="#63b8ff" stroke="#63b8ff" points="434.01,-27.54 441.16,-19.71 430.69,-21.38 434.01,-27.54"/>
</g>
<!-- Node15&#45;&gt;Node4 -->
<g id="edge25" class="edge">
<title>Node15&#45;&gt;Node4</title>
<path fill="none" stroke="#63b8ff" d="M327.4,-220.84C325.61,-207.12 320.18,-180.63 304.25,-165.75 278.92,-142.09 241.53,-130.94 210.54,-125.7"/>
<polygon fill="#63b8ff" stroke="#63b8ff" points="211.29,-122.12 200.88,-124.08 210.24,-129.04 211.29,-122.12"/>
</g>
<!-- Node15&#45;&gt;Node7 -->
<g id="edge24" class="edge">
<title>Node15&#45;&gt;Node7</title>
<path fill="none" stroke="#63b8ff" d="M329.62,-220.56C331.15,-207.82 332.56,-184.11 325.25,-165.75 311.39,-130.94 280.07,-99.79 259.3,-81.87"/>
<polygon fill="#63b8ff" stroke="#63b8ff" points="261.78,-78.54 251.86,-74.81 257.29,-83.91 261.78,-78.54"/>
</g>
<!-- Node15&#45;&gt;Node11 -->
<g id="edge27" class="edge">
<title>Node15&#45;&gt;Node11</title>
<path fill="none" stroke="#63b8ff" d="M333.59,-220.77C353.32,-188.02 422.42,-73.39 449.37,-28.68"/>
<polygon fill="#63b8ff" stroke="#63b8ff" points="452.83,-30.72 454.99,-20.35 446.83,-27.11 452.83,-30.72"/>
</g>
<!-- Node15&#45;&gt;Node12 -->
<g id="edge26" class="edge">
<title>Node15&#45;&gt;Node12</title>
<path fill="none" stroke="#63b8ff" d="M352,-220.62C370.09,-212.98 394.92,-200.75 413.25,-185 428.39,-171.99 441.46,-153.22 449.95,-139.39"/>
<polygon fill="#63b8ff" stroke="#63b8ff" points="453.44,-141.35 455.5,-130.96 447.41,-137.8 453.44,-141.35"/>
</g>
<!-- Node15&#45;&gt;Node14 -->
<g id="edge23" class="edge">
<title>Node15&#45;&gt;Node14</title>
<path fill="none" stroke="#63b8ff" d="M317.9,-220.59C309.09,-212.9 296.2,-201.65 285.64,-192.43"/>
<polygon fill="#63b8ff" stroke="#63b8ff" points="288.28,-189.21 278.44,-185.27 283.68,-194.49 288.28,-189.21"/>
</g>
</g>
</svg>
