<?xml version="1.0" encoding="UTF-8" standalone="no"?>
<!DOCTYPE svg PUBLIC "-//W3C//DTD SVG 1.1//EN"
 "http://www.w3.org/Graphics/SVG/1.1/DTD/svg11.dtd">
<!-- Generated by graphviz version 8.0.5 (20230430.1635)
 -->
<!-- Title: v8::SnapshotHelper::ObjectToAddress Pages: 1 -->
<svg width="249pt" height="57pt"
 viewBox="0.00 0.00 248.50 56.50" xmlns="http://www.w3.org/2000/svg" xmlns:xlink="http://www.w3.org/1999/xlink">
<g id="graph0" class="graph" transform="scale(1 1) rotate(0) translate(4 52.5)">
<title>v8::SnapshotHelper::ObjectToAddress</title>
<!-- Node1 -->
<g id="node1" class="node">
<title>Node1</title>
<g id="a_node1"><a xlink:title=" ">
<polygon fill="#999999" stroke="#666666" points="240.5,-30.5 139.75,-30.5 139.75,0 240.5,0 240.5,-30.5"/>
<text text-anchor="start" x="147.75" y="-17" font-family="Helvetica,sans-Serif" font-size="10.00">v8::SnapshotHelper</text>
<text text-anchor="middle" x="190.12" y="-5.75" font-family="Helvetica,sans-Serif" font-size="10.00">::ObjectToAddress</text>
</a>
</g>
</g>
<!-- Node2 -->
<g id="node2" class="node">
<title>Node2</title>
<g id="a_node2"><a xlink:href="classv8_1_1SnapshotCreator.html#a0bc97ea7ead4892f2dfa64fef20454d9" target="_top" xlink:title=" ">
<polygon fill="white" stroke="#666666" points="103.75,-30.5 0,-30.5 0,0 103.75,0 103.75,-30.5"/>
<text text-anchor="start" x="8" y="-17" font-family="Helvetica,sans-Serif" font-size="10.00">v8::SnapshotCreator</text>
<text text-anchor="middle" x="51.88" y="-5.75" font-family="Helvetica,sans-Serif" font-size="10.00">::AddData</text>
</a>
</g>
</g>
<!-- Node1&#45;&gt;Node2 -->
<g id="edge1" class="edge">
<title>Node1&#45;&gt;Node2</title>
<path fill="none" stroke="#63b8ff" d="M128.81,-15.25C120.53,-15.25 112.1,-15.25 104.02,-15.25"/>
<polygon fill="#63b8ff" stroke="#63b8ff" points="128.55,-18.75 138.55,-15.25 128.55,-11.75 128.55,-18.75"/>
</g>
<!-- Node2&#45;&gt;Node2 -->
<g id="edge2" class="edge">
<title>Node2&#45;&gt;Node2</title>
<path fill="none" stroke="#63b8ff" d="M75.37,-41.88C71.71,-45.83 63.87,-48.5 51.88,-48.5 30.54,-48.5 22.38,-40.06 27.38,-30.99"/>
<polygon fill="#63b8ff" stroke="#63b8ff" points="78.95,-42.26 76.37,-31.99 71.97,-41.62 78.95,-42.26"/>
</g>
</g>
</svg>
