<?xml version="1.0" encoding="UTF-8" standalone="no"?>
<!DOCTYPE svg PUBLIC "-//W3C//DTD SVG 1.1//EN"
 "http://www.w3.org/Graphics/SVG/1.1/DTD/svg11.dtd">
<!-- Generated by graphviz version 8.0.5 (20230430.1635)
 -->
<!-- Title: v8::SnapshotCreator::AddData Pages: 1 -->
<svg width="388pt" height="79pt"
 viewBox="0.00 0.00 388.25 78.50" xmlns="http://www.w3.org/2000/svg" xmlns:xlink="http://www.w3.org/1999/xlink">
<g id="graph0" class="graph" transform="scale(1 1) rotate(0) translate(4 74.5)">
<title>v8::SnapshotCreator::AddData</title>
<!-- Node1 -->
<g id="node1" class="node">
<title>Node1</title>
<g id="a_node1"><a xlink:title=" ">
<polygon fill="#999999" stroke="#666666" points="103.75,-30.5 0,-30.5 0,0 103.75,0 103.75,-30.5"/>
<text text-anchor="start" x="8" y="-17" font-family="Helvetica,sans-Serif" font-size="10.00">v8::SnapshotCreator</text>
<text text-anchor="middle" x="51.88" y="-5.75" font-family="Helvetica,sans-Serif" font-size="10.00">::AddData</text>
</a>
</g>
</g>
<!-- Node2 -->
<g id="node2" class="node">
<title>Node2</title>
<g id="a_node2"><a xlink:href="classv8_1_1SnapshotCreator.html#a0bc97ea7ead4892f2dfa64fef20454d9" target="_top" xlink:title=" ">
<polygon fill="white" stroke="#666666" points="243.5,-52.5 139.75,-52.5 139.75,-22 243.5,-22 243.5,-52.5"/>
<text text-anchor="start" x="147.75" y="-39" font-family="Helvetica,sans-Serif" font-size="10.00">v8::SnapshotCreator</text>
<text text-anchor="middle" x="191.62" y="-27.75" font-family="Helvetica,sans-Serif" font-size="10.00">::AddData</text>
</a>
</g>
</g>
<!-- Node1&#45;&gt;Node2 -->
<g id="edge1" class="edge">
<title>Node1&#45;&gt;Node2</title>
<path fill="none" stroke="#63b8ff" d="M104.17,-23.44C112.15,-24.72 120.46,-26.04 128.65,-27.35"/>
<polygon fill="#63b8ff" stroke="#63b8ff" points="127.86,-30.93 138.29,-29.05 128.97,-24.02 127.86,-30.93"/>
</g>
<!-- Node3 -->
<g id="node3" class="node">
<title>Node3</title>
<g id="a_node3"><a xlink:href="classv8_1_1SnapshotHelper.html#af721c317e5f52604dccdc6d6bddfe0a6" target="_top" xlink:title=" ">
<polygon fill="white" stroke="#666666" points="380.25,-30.5 279.5,-30.5 279.5,0 380.25,0 380.25,-30.5"/>
<text text-anchor="start" x="287.5" y="-17" font-family="Helvetica,sans-Serif" font-size="10.00">v8::SnapshotHelper</text>
<text text-anchor="middle" x="329.88" y="-5.75" font-family="Helvetica,sans-Serif" font-size="10.00">::ObjectToAddress</text>
</a>
</g>
</g>
<!-- Node1&#45;&gt;Node3 -->
<g id="edge4" class="edge">
<title>Node1&#45;&gt;Node3</title>
<path fill="none" stroke="#63b8ff" d="M103.86,-13.88C115.65,-13.62 128.13,-13.38 139.75,-13.25 185.86,-12.72 197.39,-12.71 243.5,-13.25 251.54,-13.34 260.01,-13.49 268.36,-13.66"/>
<polygon fill="#63b8ff" stroke="#63b8ff" points="268.15,-17.17 278.22,-13.89 268.3,-10.18 268.15,-17.17"/>
</g>
<!-- Node2&#45;&gt;Node2 -->
<g id="edge2" class="edge">
<title>Node2&#45;&gt;Node2</title>
<path fill="none" stroke="#63b8ff" d="M167.13,-52.99C162.13,-62.06 170.29,-70.5 191.62,-70.5 203.62,-70.5 211.46,-67.83 215.12,-63.88"/>
<polygon fill="#63b8ff" stroke="#63b8ff" points="218.7,-64.26 216.12,-53.99 211.72,-63.62 218.7,-64.26"/>
</g>
<!-- Node2&#45;&gt;Node3 -->
<g id="edge3" class="edge">
<title>Node2&#45;&gt;Node3</title>
<path fill="none" stroke="#63b8ff" d="M243.75,-29C251.83,-27.69 260.26,-26.33 268.53,-24.99"/>
<polygon fill="#63b8ff" stroke="#63b8ff" points="268.96,-28.31 278.27,-23.26 267.84,-21.4 268.96,-28.31"/>
</g>
</g>
</svg>
