<?xml version="1.0" encoding="UTF-8" standalone="no"?>
<!DOCTYPE svg PUBLIC "-//W3C//DTD SVG 1.1//EN"
 "http://www.w3.org/Graphics/SVG/1.1/DTD/svg11.dtd">
<!-- Generated by graphviz version 8.0.5 (20230430.1635)
 -->
<!-- Title: include/v8&#45;container.h Pages: 1 -->
<svg width="1159pt" height="414pt"
 viewBox="0.00 0.00 1159.00 414.00" xmlns="http://www.w3.org/2000/svg" xmlns:xlink="http://www.w3.org/1999/xlink">
<g id="graph0" class="graph" transform="scale(1 1) rotate(0) translate(4 410)">
<title>include/v8&#45;container.h</title>
<!-- Node1 -->
<g id="node1" class="node">
<title>Node1</title>
<g id="a_node1"><a xlink:title=" ">
<polygon fill="#999999" stroke="#666666" points="742.25,-406 631.75,-406 631.75,-386.75 742.25,-386.75 742.25,-406"/>
<text text-anchor="middle" x="687" y="-392.5" font-family="Helvetica,sans-Serif" font-size="10.00">include/v8&#45;container.h</text>
</a>
</g>
</g>
<!-- Node2 -->
<g id="node2" class="node">
<title>Node2</title>
<g id="a_node2"><a xlink:title=" ">
<polygon fill="#e0e0e0" stroke="#999999" points="178.25,-19.25 127.75,-19.25 127.75,0 178.25,0 178.25,-19.25"/>
<text text-anchor="middle" x="153" y="-5.75" font-family="Helvetica,sans-Serif" font-size="10.00">stddef.h</text>
</a>
</g>
</g>
<!-- Node1&#45;&gt;Node2 -->
<g id="edge1" class="edge">
<title>Node1&#45;&gt;Node2</title>
<path fill="none" stroke="#63b8ff" d="M631.36,-392.43C467.81,-383.05 0,-350.65 0,-286.88 0,-286.88 0,-286.88 0,-119.12 0,-62.12 71.55,-32.34 116.79,-19.21"/>
<polygon fill="#63b8ff" stroke="#63b8ff" points="117.68,-22.32 126.39,-16.29 115.82,-15.57 117.68,-22.32"/>
</g>
<!-- Node3 -->
<g id="node3" class="node">
<title>Node3</title>
<g id="a_node3"><a xlink:title=" ">
<polygon fill="#e0e0e0" stroke="#999999" points="473.75,-19.25 426.25,-19.25 426.25,0 473.75,0 473.75,-19.25"/>
<text text-anchor="middle" x="450" y="-5.75" font-family="Helvetica,sans-Serif" font-size="10.00">stdint.h</text>
</a>
</g>
</g>
<!-- Node1&#45;&gt;Node3 -->
<g id="edge2" class="edge">
<title>Node1&#45;&gt;Node3</title>
<path fill="none" stroke="#63b8ff" d="M742.55,-388.23C834.42,-374.85 1008,-342.25 1008,-286.88 1008,-286.88 1008,-286.88 1008,-229.62 1008,-164.84 982.21,-138.93 924,-110.5 747.31,-24.22 680.25,-63.41 484.73,-19.52"/>
<polygon fill="#63b8ff" stroke="#63b8ff" points="485.64,-15.91 475.11,-17.08 484.08,-22.73 485.64,-15.91"/>
</g>
<!-- Node4 -->
<g id="node4" class="node">
<title>Node4</title>
<g id="a_node4"><a xlink:href="v8-local-handle_8h.html" target="_top" xlink:title=" ">
<polygon fill="white" stroke="#666666" points="645.38,-129.75 556.62,-129.75 556.62,-110.5 645.38,-110.5 645.38,-129.75"/>
<text text-anchor="middle" x="601" y="-116.25" font-family="Helvetica,sans-Serif" font-size="10.00">v8&#45;local&#45;handle.h</text>
</a>
</g>
</g>
<!-- Node1&#45;&gt;Node4 -->
<g id="edge3" class="edge">
<title>Node1&#45;&gt;Node4</title>
<path fill="none" stroke="#63b8ff" d="M642.08,-386.35C592.92,-373.54 521,-344.89 521,-286.88 521,-286.88 521,-286.88 521,-229.62 521,-190.2 555.65,-155.67 579.34,-136.67"/>
<polygon fill="#63b8ff" stroke="#63b8ff" points="581,-139.05 586.79,-130.17 576.73,-133.5 581,-139.05"/>
</g>
<!-- Node10 -->
<g id="node10" class="node">
<title>Node10</title>
<g id="a_node10"><a xlink:href="v8config_8h.html" target="_top" xlink:title=" ">
<polygon fill="white" stroke="#666666" points="911.75,-19.25 852.25,-19.25 852.25,0 911.75,0 911.75,-19.25"/>
<text text-anchor="middle" x="882" y="-5.75" font-family="Helvetica,sans-Serif" font-size="10.00">v8config.h</text>
</a>
</g>
</g>
<!-- Node1&#45;&gt;Node10 -->
<g id="edge54" class="edge">
<title>Node1&#45;&gt;Node10</title>
<path fill="none" stroke="#63b8ff" d="M742.51,-394C865.67,-389.44 1151,-369.91 1151,-286.88 1151,-286.88 1151,-286.88 1151,-119.12 1151,-70.47 997.72,-33.44 922.57,-18.22"/>
<polygon fill="#63b8ff" stroke="#63b8ff" points="923.57,-14.65 913.07,-16.13 922.2,-21.51 923.57,-14.65"/>
</g>
<!-- Node11 -->
<g id="node11" class="node">
<title>Node11</title>
<g id="a_node11"><a xlink:href="v8-object_8h.html" target="_top" xlink:title=" ">
<polygon fill="white" stroke="#666666" points="718.62,-350.75 655.38,-350.75 655.38,-331.5 718.62,-331.5 718.62,-350.75"/>
<text text-anchor="middle" x="687" y="-337.25" font-family="Helvetica,sans-Serif" font-size="10.00">v8&#45;object.h</text>
</a>
</g>
</g>
<!-- Node1&#45;&gt;Node11 -->
<g id="edge14" class="edge">
<title>Node1&#45;&gt;Node11</title>
<path fill="none" stroke="#63b8ff" d="M687,-386.58C687,-379.92 687,-370.49 687,-362.03"/>
<polygon fill="#63b8ff" stroke="#63b8ff" points="690.5,-362.11 687,-352.11 683.5,-362.11 690.5,-362.11"/>
</g>
<!-- Node4&#45;&gt;Node2 -->
<g id="edge4" class="edge">
<title>Node4&#45;&gt;Node2</title>
<path fill="none" stroke="#63b8ff" d="M556.54,-113.3C505.51,-106.15 419.52,-92.71 347,-74.5 289.94,-60.17 225.36,-37.59 186.97,-23.47"/>
<polygon fill="#63b8ff" stroke="#63b8ff" points="188.46,-19.92 177.87,-19.72 186.03,-26.48 188.46,-19.92"/>
</g>
<!-- Node5 -->
<g id="node5" class="node">
<title>Node5</title>
<g id="a_node5"><a xlink:title=" ">
<polygon fill="#e0e0e0" stroke="#999999" points="321.5,-19.25 260.5,-19.25 260.5,0 321.5,0 321.5,-19.25"/>
<text text-anchor="middle" x="291" y="-5.75" font-family="Helvetica,sans-Serif" font-size="10.00">type_traits</text>
</a>
</g>
</g>
<!-- Node4&#45;&gt;Node5 -->
<g id="edge5" class="edge">
<title>Node4&#45;&gt;Node5</title>
<path fill="none" stroke="#63b8ff" d="M556.27,-114.94C511.71,-109.6 442.04,-98.08 386,-74.5 357.17,-62.37 327.87,-41.01 309.59,-26.35"/>
<polygon fill="#63b8ff" stroke="#63b8ff" points="312.27,-23.21 302.32,-19.57 307.84,-28.62 312.27,-23.21"/>
</g>
<!-- Node6 -->
<g id="node6" class="node">
<title>Node6</title>
<g id="a_node6"><a xlink:href="v8-internal_8h.html" target="_top" xlink:title=" ">
<polygon fill="white" stroke="#666666" points="463.25,-74.5 394.75,-74.5 394.75,-55.25 463.25,-55.25 463.25,-74.5"/>
<text text-anchor="middle" x="429" y="-61" font-family="Helvetica,sans-Serif" font-size="10.00">v8&#45;internal.h</text>
</a>
</g>
</g>
<!-- Node4&#45;&gt;Node6 -->
<g id="edge6" class="edge">
<title>Node4&#45;&gt;Node6</title>
<path fill="none" stroke="#63b8ff" d="M571.82,-110.09C543.41,-101.29 500.01,-87.86 468.51,-78.11"/>
<polygon fill="#63b8ff" stroke="#63b8ff" points="469.91,-74.57 459.32,-74.95 467.84,-81.25 469.91,-74.57"/>
</g>
<!-- Node6&#45;&gt;Node2 -->
<g id="edge7" class="edge">
<title>Node6&#45;&gt;Node2</title>
<path fill="none" stroke="#63b8ff" d="M394.55,-58.15C349.68,-50.55 268.57,-36.32 189.24,-19.41"/>
<polygon fill="#63b8ff" stroke="#63b8ff" points="190.09,-15.79 179.57,-17.11 188.61,-22.63 190.09,-15.79"/>
</g>
<!-- Node6&#45;&gt;Node3 -->
<g id="edge8" class="edge">
<title>Node6&#45;&gt;Node3</title>
<path fill="none" stroke="#63b8ff" d="M432.47,-55.08C435.19,-48.19 439.07,-38.34 442.49,-29.66"/>
<polygon fill="#63b8ff" stroke="#63b8ff" points="446.04,-31.2 446.46,-20.61 439.53,-28.63 446.04,-31.2"/>
</g>
<!-- Node6&#45;&gt;Node5 -->
<g id="edge11" class="edge">
<title>Node6&#45;&gt;Node5</title>
<path fill="none" stroke="#63b8ff" d="M405.59,-54.84C383.39,-46.27 349.78,-33.31 324.7,-23.63"/>
<polygon fill="#63b8ff" stroke="#63b8ff" points="326.11,-20.04 315.52,-19.7 323.59,-26.57 326.11,-20.04"/>
</g>
<!-- Node7 -->
<g id="node7" class="node">
<title>Node7</title>
<g id="a_node7"><a xlink:title=" ">
<polygon fill="#e0e0e0" stroke="#999999" points="539.75,-19.25 492.25,-19.25 492.25,0 539.75,0 539.75,-19.25"/>
<text text-anchor="middle" x="516" y="-5.75" font-family="Helvetica,sans-Serif" font-size="10.00">string.h</text>
</a>
</g>
</g>
<!-- Node6&#45;&gt;Node7 -->
<g id="edge9" class="edge">
<title>Node6&#45;&gt;Node7</title>
<path fill="none" stroke="#63b8ff" d="M443.76,-54.84C457.01,-46.73 476.69,-34.68 492.17,-25.21"/>
<polygon fill="#63b8ff" stroke="#63b8ff" points="493.47,-27.91 500.17,-19.7 489.81,-21.94 493.47,-27.91"/>
</g>
<!-- Node8 -->
<g id="node8" class="node">
<title>Node8</title>
<g id="a_node8"><a xlink:title=" ">
<polygon fill="#e0e0e0" stroke="#999999" points="242.62,-19.25 197.38,-19.25 197.38,0 242.62,0 242.62,-19.25"/>
<text text-anchor="middle" x="220" y="-5.75" font-family="Helvetica,sans-Serif" font-size="10.00">atomic</text>
</a>
</g>
</g>
<!-- Node6&#45;&gt;Node8 -->
<g id="edge10" class="edge">
<title>Node6&#45;&gt;Node8</title>
<path fill="none" stroke="#63b8ff" d="M394.48,-55.5C360.74,-47.25 307.66,-34.12 253.49,-19.86"/>
<polygon fill="#63b8ff" stroke="#63b8ff" points="254.57,-16.27 244.01,-17.1 252.78,-23.03 254.57,-16.27"/>
</g>
<!-- Node9 -->
<g id="node9" class="node">
<title>Node9</title>
<g id="a_node9"><a xlink:href="v8-version_8h.html" target="_top" xlink:title=" ">
<polygon fill="white" stroke="#666666" points="408.25,-19.25 339.75,-19.25 339.75,0 408.25,0 408.25,-19.25"/>
<text text-anchor="middle" x="374" y="-5.75" font-family="Helvetica,sans-Serif" font-size="10.00">v8&#45;version.h</text>
</a>
</g>
</g>
<!-- Node6&#45;&gt;Node9 -->
<g id="edge12" class="edge">
<title>Node6&#45;&gt;Node9</title>
<path fill="none" stroke="#63b8ff" d="M419.92,-55.08C412.08,-47.5 400.56,-36.34 391.01,-27.1"/>
<polygon fill="#63b8ff" stroke="#63b8ff" points="393.9,-25.05 384.28,-20.61 389.03,-30.08 393.9,-25.05"/>
</g>
<!-- Node6&#45;&gt;Node10 -->
<g id="edge13" class="edge">
<title>Node6&#45;&gt;Node10</title>
<path fill="none" stroke="#63b8ff" d="M463.56,-57.37C468.08,-56.61 472.64,-55.88 477,-55.25 609.85,-36.02 768.27,-20.78 841.37,-14.18"/>
<polygon fill="#63b8ff" stroke="#63b8ff" points="841.29,-17.61 850.93,-13.23 840.66,-10.64 841.29,-17.61"/>
</g>
<!-- Node11&#45;&gt;Node4 -->
<g id="edge15" class="edge">
<title>Node11&#45;&gt;Node4</title>
<path fill="none" stroke="#63b8ff" d="M680.43,-331.3C663.94,-308.55 621.04,-245.44 606,-185 602.38,-170.44 601.18,-153.49 600.86,-140.71"/>
<polygon fill="#63b8ff" stroke="#63b8ff" points="604.36,-140.92 600.78,-130.95 597.36,-140.98 604.36,-140.92"/>
</g>
<!-- Node11&#45;&gt;Node10 -->
<g id="edge53" class="edge">
<title>Node11&#45;&gt;Node10</title>
<path fill="none" stroke="#63b8ff" d="M719,-336.22C787.41,-325.92 946.81,-291.09 1010,-185 1040.63,-133.59 1019.62,-93.98 974,-55.25 958.05,-41.71 937.28,-31.18 919.52,-23.75"/>
<polygon fill="#63b8ff" stroke="#63b8ff" points="921.05,-20.2 910.46,-19.74 918.46,-26.7 921.05,-20.2"/>
</g>
<!-- Node12 -->
<g id="node12" class="node">
<title>Node12</title>
<g id="a_node12"><a xlink:href="v8-maybe_8h.html" target="_top" xlink:title=" ">
<polygon fill="white" stroke="#666666" points="492.75,-185 427.25,-185 427.25,-165.75 492.75,-165.75 492.75,-185"/>
<text text-anchor="middle" x="460" y="-171.5" font-family="Helvetica,sans-Serif" font-size="10.00">v8&#45;maybe.h</text>
</a>
</g>
</g>
<!-- Node11&#45;&gt;Node12 -->
<g id="edge16" class="edge">
<title>Node11&#45;&gt;Node12</title>
<path fill="none" stroke="#63b8ff" d="M655.03,-336.06C624.39,-330.86 578.05,-319.48 545,-295.5 508.3,-268.86 481.45,-221.46 468.56,-195.19"/>
<polygon fill="#63b8ff" stroke="#63b8ff" points="471.35,-193.9 463.9,-186.36 465.02,-196.89 471.35,-193.9"/>
</g>
<!-- Node14 -->
<g id="node14" class="node">
<title>Node14</title>
<g id="a_node14"><a xlink:href="v8-persistent-handle_8h.html" target="_top" xlink:title=" ">
<polygon fill="white" stroke="#666666" points="979.62,-185 868.38,-185 868.38,-165.75 979.62,-165.75 979.62,-185"/>
<text text-anchor="middle" x="924" y="-171.5" font-family="Helvetica,sans-Serif" font-size="10.00">v8&#45;persistent&#45;handle.h</text>
</a>
</g>
</g>
<!-- Node11&#45;&gt;Node14 -->
<g id="edge21" class="edge">
<title>Node11&#45;&gt;Node14</title>
<path fill="none" stroke="#63b8ff" d="M719.02,-332.03C743.78,-324.85 778.24,-312.8 805,-295.5 849.19,-266.94 890.07,-219.65 910.45,-194.09"/>
<polygon fill="#63b8ff" stroke="#63b8ff" points="913.81,-196.47 917.22,-186.44 908.3,-192.15 913.81,-196.47"/>
</g>
<!-- Node16 -->
<g id="node16" class="node">
<title>Node16</title>
<g id="a_node16"><a xlink:href="v8-primitive_8h.html" target="_top" xlink:title=" ">
<polygon fill="white" stroke="#666666" points="795.88,-295.5 722.12,-295.5 722.12,-276.25 795.88,-276.25 795.88,-295.5"/>
<text text-anchor="middle" x="759" y="-282" font-family="Helvetica,sans-Serif" font-size="10.00">v8&#45;primitive.h</text>
</a>
</g>
</g>
<!-- Node11&#45;&gt;Node16 -->
<g id="edge27" class="edge">
<title>Node11&#45;&gt;Node16</title>
<path fill="none" stroke="#63b8ff" d="M699.21,-331.09C709.93,-323.16 725.74,-311.47 738.41,-302.1"/>
<polygon fill="#63b8ff" stroke="#63b8ff" points="740.01,-304.54 745.97,-295.77 735.85,-298.91 740.01,-304.54"/>
</g>
<!-- Node18 -->
<g id="node18" class="node">
<title>Node18</title>
<g id="a_node18"><a xlink:href="v8-value_8h.html" target="_top" xlink:title=" ">
<polygon fill="white" stroke="#666666" points="717.12,-240.25 656.88,-240.25 656.88,-221 717.12,-221 717.12,-240.25"/>
<text text-anchor="middle" x="687" y="-226.75" font-family="Helvetica,sans-Serif" font-size="10.00">v8&#45;value.h</text>
</a>
</g>
</g>
<!-- Node11&#45;&gt;Node18 -->
<g id="edge52" class="edge">
<title>Node11&#45;&gt;Node18</title>
<path fill="none" stroke="#63b8ff" d="M687,-331.25C687,-313.92 687,-275.23 687,-251.49"/>
<polygon fill="#63b8ff" stroke="#63b8ff" points="690.5,-251.63 687,-241.63 683.5,-251.63 690.5,-251.63"/>
</g>
<!-- Node19 -->
<g id="node19" class="node">
<title>Node19</title>
<g id="a_node19"><a xlink:href="v8-traced-handle_8h.html" target="_top" xlink:title=" ">
<polygon fill="white" stroke="#666666" points="349.75,-185 254.25,-185 254.25,-165.75 349.75,-165.75 349.75,-185"/>
<text text-anchor="middle" x="302" y="-171.5" font-family="Helvetica,sans-Serif" font-size="10.00">v8&#45;traced&#45;handle.h</text>
</a>
</g>
</g>
<!-- Node11&#45;&gt;Node19 -->
<g id="edge40" class="edge">
<title>Node11&#45;&gt;Node19</title>
<path fill="none" stroke="#63b8ff" d="M654.88,-333.93C620.7,-326.79 565.42,-313.67 520,-295.5 445.06,-265.52 363.19,-215.71 324.57,-191.09"/>
<polygon fill="#63b8ff" stroke="#63b8ff" points="327.02,-187.86 316.71,-185.4 323.23,-193.75 327.02,-187.86"/>
</g>
<!-- Node12&#45;&gt;Node5 -->
<g id="edge17" class="edge">
<title>Node12&#45;&gt;Node5</title>
<path fill="none" stroke="#63b8ff" d="M458.59,-165.32C456.02,-151.72 449.36,-125.95 434,-110.5 404.5,-80.82 381.02,-98.87 347,-74.5 329.27,-61.8 313.34,-42.46 303.04,-28.39"/>
<polygon fill="#63b8ff" stroke="#63b8ff" points="305.49,-26.78 296.86,-20.63 299.77,-30.82 305.49,-26.78"/>
</g>
<!-- Node12&#45;&gt;Node6 -->
<g id="edge19" class="edge">
<title>Node12&#45;&gt;Node6</title>
<path fill="none" stroke="#63b8ff" d="M463.46,-165.39C467.8,-152.74 473.86,-129.14 467,-110.5 463.08,-99.84 455.35,-89.99 447.88,-82.27"/>
<polygon fill="#63b8ff" stroke="#63b8ff" points="450.72,-80.19 441.07,-75.8 445.88,-85.24 450.72,-80.19"/>
</g>
<!-- Node12&#45;&gt;Node10 -->
<g id="edge20" class="edge">
<title>Node12&#45;&gt;Node10</title>
<path fill="none" stroke="#63b8ff" d="M470.48,-165.29C486.36,-151.88 517.87,-126.63 548,-110.5 646.36,-57.85 776.25,-29.24 841.26,-17.35"/>
<polygon fill="#63b8ff" stroke="#63b8ff" points="841.64,-20.65 850.87,-15.45 840.41,-13.76 841.64,-20.65"/>
</g>
<!-- Node13 -->
<g id="node13" class="node">
<title>Node13</title>
<g id="a_node13"><a xlink:title=" ">
<polygon fill="#e0e0e0" stroke="#999999" points="425.25,-129.75 386.75,-129.75 386.75,-110.5 425.25,-110.5 425.25,-129.75"/>
<text text-anchor="middle" x="406" y="-116.25" font-family="Helvetica,sans-Serif" font-size="10.00">utility</text>
</a>
</g>
</g>
<!-- Node12&#45;&gt;Node13 -->
<g id="edge18" class="edge">
<title>Node12&#45;&gt;Node13</title>
<path fill="none" stroke="#63b8ff" d="M451.08,-165.58C443.39,-158 432.07,-146.84 422.7,-137.6"/>
<polygon fill="#63b8ff" stroke="#63b8ff" points="425.69,-135.64 416.11,-131.11 420.77,-140.62 425.69,-135.64"/>
</g>
<!-- Node14&#45;&gt;Node4 -->
<g id="edge23" class="edge">
<title>Node14&#45;&gt;Node4</title>
<path fill="none" stroke="#63b8ff" d="M868.84,-165.28C809.56,-155.51 715.86,-140.06 656.46,-130.27"/>
<polygon fill="#63b8ff" stroke="#63b8ff" points="657.22,-126.68 646.78,-128.51 656.08,-133.59 657.22,-126.68"/>
</g>
<!-- Node14&#45;&gt;Node6 -->
<g id="edge22" class="edge">
<title>Node14&#45;&gt;Node6</title>
<path fill="none" stroke="#63b8ff" d="M924.09,-165.25C923.68,-151.07 920.62,-123.95 904,-110.5 871.05,-83.83 587.04,-71.28 474.58,-67.32"/>
<polygon fill="#63b8ff" stroke="#63b8ff" points="474.73,-63.79 464.61,-66.94 474.49,-70.78 474.73,-63.79"/>
</g>
<!-- Node14&#45;&gt;Node10 -->
<g id="edge26" class="edge">
<title>Node14&#45;&gt;Node10</title>
<path fill="none" stroke="#63b8ff" d="M928.03,-165.47C936.71,-144.91 954.98,-93 937,-55.25 931.11,-42.89 919.93,-32.83 909.19,-25.42"/>
<polygon fill="#63b8ff" stroke="#63b8ff" points="911.32,-21.99 901,-19.6 907.57,-27.91 911.32,-21.99"/>
</g>
<!-- Node15 -->
<g id="node15" class="node">
<title>Node15</title>
<g id="a_node15"><a xlink:href="v8-weak-callback-info_8h.html" target="_top" xlink:title=" ">
<polygon fill="white" stroke="#666666" points="895,-129.75 777,-129.75 777,-110.5 895,-110.5 895,-129.75"/>
<text text-anchor="middle" x="836" y="-116.25" font-family="Helvetica,sans-Serif" font-size="10.00">v8&#45;weak&#45;callback&#45;info.h</text>
</a>
</g>
</g>
<!-- Node14&#45;&gt;Node15 -->
<g id="edge24" class="edge">
<title>Node14&#45;&gt;Node15</title>
<path fill="none" stroke="#63b8ff" d="M909.07,-165.34C895.67,-157.23 875.76,-145.18 860.1,-135.71"/>
<polygon fill="#63b8ff" stroke="#63b8ff" points="862.37,-132.39 852,-130.2 858.74,-138.37 862.37,-132.39"/>
</g>
<!-- Node15&#45;&gt;Node10 -->
<g id="edge25" class="edge">
<title>Node15&#45;&gt;Node10</title>
<path fill="none" stroke="#63b8ff" d="M839.76,-110.25C847.21,-92.68 863.97,-53.16 873.99,-29.52"/>
<polygon fill="#63b8ff" stroke="#63b8ff" points="877.5,-31.2 878.18,-20.63 871.06,-28.47 877.5,-31.2"/>
</g>
<!-- Node16&#45;&gt;Node4 -->
<g id="edge32" class="edge">
<title>Node16&#45;&gt;Node4</title>
<path fill="none" stroke="#63b8ff" d="M721.82,-277.86C697.99,-271.63 667.91,-260.29 648,-240.25 620.54,-212.61 608.65,-166.99 603.88,-140.96"/>
<polygon fill="#63b8ff" stroke="#63b8ff" points="607.19,-140.51 602.12,-131.21 600.28,-141.65 607.19,-140.51"/>
</g>
<!-- Node16&#45;&gt;Node6 -->
<g id="edge31" class="edge">
<title>Node16&#45;&gt;Node6</title>
<path fill="none" stroke="#63b8ff" d="M767.73,-275.88C786.77,-255.13 828.47,-202.84 804,-165.75 767.54,-110.48 566.01,-81.2 474.38,-70.59"/>
<polygon fill="#63b8ff" stroke="#63b8ff" points="474.83,-67.01 464.5,-69.36 474.05,-73.96 474.83,-67.01"/>
</g>
<!-- Node16&#45;&gt;Node10 -->
<g id="edge39" class="edge">
<title>Node16&#45;&gt;Node10</title>
<path fill="none" stroke="#63b8ff" d="M795.97,-281.08C849.24,-273.41 945.9,-250.7 989,-185 1011.21,-151.15 1036.41,-162.21 953,-55.25 942.84,-42.22 927.74,-31.98 914.07,-24.61"/>
<polygon fill="#63b8ff" stroke="#63b8ff" points="915.97,-21.14 905.47,-19.75 912.81,-27.39 915.97,-21.14"/>
</g>
<!-- Node17 -->
<g id="node17" class="node">
<title>Node17</title>
<g id="a_node17"><a xlink:href="v8-data_8h.html" target="_top" xlink:title=" ">
<polygon fill="white" stroke="#666666" points="794.88,-185 739.12,-185 739.12,-165.75 794.88,-165.75 794.88,-185"/>
<text text-anchor="middle" x="767" y="-171.5" font-family="Helvetica,sans-Serif" font-size="10.00">v8&#45;data.h</text>
</a>
</g>
</g>
<!-- Node16&#45;&gt;Node17 -->
<g id="edge28" class="edge">
<title>Node16&#45;&gt;Node17</title>
<path fill="none" stroke="#63b8ff" d="M759.65,-276C760.93,-258.67 763.79,-219.98 765.54,-196.24"/>
<polygon fill="#63b8ff" stroke="#63b8ff" points="769.09,-196.61 766.34,-186.38 762.11,-196.09 769.09,-196.61"/>
</g>
<!-- Node16&#45;&gt;Node18 -->
<g id="edge33" class="edge">
<title>Node16&#45;&gt;Node18</title>
<path fill="none" stroke="#63b8ff" d="M746.79,-275.84C736.07,-267.91 720.26,-256.22 707.59,-246.85"/>
<polygon fill="#63b8ff" stroke="#63b8ff" points="710.15,-243.66 700.03,-240.52 705.99,-249.29 710.15,-243.66"/>
</g>
<!-- Node17&#45;&gt;Node4 -->
<g id="edge29" class="edge">
<title>Node17&#45;&gt;Node4</title>
<path fill="none" stroke="#63b8ff" d="M738.84,-165.34C711.53,-156.58 669.9,-143.23 639.53,-133.48"/>
<polygon fill="#63b8ff" stroke="#63b8ff" points="640.89,-129.92 630.3,-130.2 638.75,-136.59 640.89,-129.92"/>
</g>
<!-- Node17&#45;&gt;Node10 -->
<g id="edge30" class="edge">
<title>Node17&#45;&gt;Node10</title>
<path fill="none" stroke="#63b8ff" d="M795.11,-174.27C827.41,-172.45 879.16,-163.96 904,-129.75 925.84,-99.67 907.03,-54.34 893.3,-29.16"/>
<polygon fill="#63b8ff" stroke="#63b8ff" points="895.88,-27.62 887.86,-20.7 889.81,-31.11 895.88,-27.62"/>
</g>
<!-- Node18&#45;&gt;Node4 -->
<g id="edge36" class="edge">
<title>Node18&#45;&gt;Node4</title>
<path fill="none" stroke="#63b8ff" d="M679.96,-220.75C665.73,-202.78 633.29,-161.86 614.72,-138.44"/>
<polygon fill="#63b8ff" stroke="#63b8ff" points="617.09,-136.79 608.13,-131.13 611.6,-141.14 617.09,-136.79"/>
</g>
<!-- Node18&#45;&gt;Node6 -->
<g id="edge35" class="edge">
<title>Node18&#45;&gt;Node6</title>
<path fill="none" stroke="#63b8ff" d="M687.44,-220.56C687.99,-198.24 686.09,-140.28 654,-110.5 628.43,-86.77 532.47,-74.62 474.44,-69.31"/>
<polygon fill="#63b8ff" stroke="#63b8ff" points="475,-65.76 464.73,-68.37 474.38,-72.73 475,-65.76"/>
</g>
<!-- Node18&#45;&gt;Node10 -->
<g id="edge38" class="edge">
<title>Node18&#45;&gt;Node10</title>
<path fill="none" stroke="#63b8ff" d="M693.1,-220.51C701.4,-208.1 716.76,-185.2 730,-165.75 746.77,-141.11 748.19,-132.77 768,-110.5 797.33,-77.52 837.17,-44.88 861.15,-26.29"/>
<polygon fill="#63b8ff" stroke="#63b8ff" points="862.99,-28.53 868.8,-19.67 858.73,-22.97 862.99,-28.53"/>
</g>
<!-- Node18&#45;&gt;Node12 -->
<g id="edge37" class="edge">
<title>Node18&#45;&gt;Node12</title>
<path fill="none" stroke="#63b8ff" d="M656.39,-222.44C617.03,-213.21 548.45,-197.12 503.64,-186.61"/>
<polygon fill="#63b8ff" stroke="#63b8ff" points="504.6,-183.01 494.07,-184.13 503,-189.82 504.6,-183.01"/>
</g>
<!-- Node18&#45;&gt;Node17 -->
<g id="edge34" class="edge">
<title>Node18&#45;&gt;Node17</title>
<path fill="none" stroke="#63b8ff" d="M700.57,-220.59C712.52,-212.64 730.18,-200.89 744.28,-191.5"/>
<polygon fill="#63b8ff" stroke="#63b8ff" points="745.98,-193.91 752.36,-185.45 742.1,-188.08 745.98,-193.91"/>
</g>
<!-- Node19&#45;&gt;Node2 -->
<g id="edge41" class="edge">
<title>Node19&#45;&gt;Node2</title>
<path fill="none" stroke="#63b8ff" d="M254.08,-169.83C203.72,-163.94 129.41,-151.73 112,-129.75 87.56,-98.91 117.72,-52.58 137.81,-27.77"/>
<polygon fill="#63b8ff" stroke="#63b8ff" points="140.87,-30.57 144.63,-20.67 135.51,-26.06 140.87,-30.57"/>
</g>
<!-- Node19&#45;&gt;Node3 -->
<g id="edge42" class="edge">
<title>Node19&#45;&gt;Node3</title>
<path fill="none" stroke="#63b8ff" d="M303.76,-165.49C306.62,-152.54 313.19,-128.13 325,-110.5 350.58,-72.31 395.33,-41.76 423.77,-24.93"/>
<polygon fill="#63b8ff" stroke="#63b8ff" points="425.17,-27.58 432.09,-19.56 421.68,-21.52 425.17,-27.58"/>
</g>
<!-- Node19&#45;&gt;Node4 -->
<g id="edge49" class="edge">
<title>Node19&#45;&gt;Node4</title>
<path fill="none" stroke="#63b8ff" d="M350.04,-165.82C403.43,-156.31 489.52,-140.98 545.68,-130.98"/>
<polygon fill="#63b8ff" stroke="#63b8ff" points="546.27,-134.25 555.5,-129.05 545.04,-127.36 546.27,-134.25"/>
</g>
<!-- Node19&#45;&gt;Node5 -->
<g id="edge46" class="edge">
<title>Node19&#45;&gt;Node5</title>
<path fill="none" stroke="#63b8ff" d="M253.94,-168.24C209.35,-161.45 147.72,-148.86 133,-129.75 94.81,-80.17 190.97,-40.83 249.62,-22.27"/>
<polygon fill="#63b8ff" stroke="#63b8ff" points="250.56,-25.33 259.09,-19.04 248.51,-18.64 250.56,-25.33"/>
</g>
<!-- Node19&#45;&gt;Node6 -->
<g id="edge48" class="edge">
<title>Node19&#45;&gt;Node6</title>
<path fill="none" stroke="#63b8ff" d="M306.17,-165.53C312.82,-152.2 326.92,-126.78 345,-110.5 359.63,-97.32 378.86,-86.74 395.22,-79.19"/>
<polygon fill="#63b8ff" stroke="#63b8ff" points="396.24,-82.12 403.98,-74.89 393.42,-75.72 396.24,-82.12"/>
</g>
<!-- Node19&#45;&gt;Node8 -->
<g id="edge44" class="edge">
<title>Node19&#45;&gt;Node8</title>
<path fill="none" stroke="#63b8ff" d="M254.13,-169.21C206.2,-162.93 137.27,-150.51 121,-129.75 106.53,-111.28 124.2,-74.14 140,-55.25 152.42,-40.4 171.12,-29.58 187.32,-22.32"/>
<polygon fill="#63b8ff" stroke="#63b8ff" points="188.13,-25.35 196,-18.25 185.42,-18.9 188.13,-25.35"/>
</g>
<!-- Node19&#45;&gt;Node10 -->
<g id="edge51" class="edge">
<title>Node19&#45;&gt;Node10</title>
<path fill="none" stroke="#63b8ff" d="M309.91,-165.4C322.75,-151.42 349.58,-124.58 378,-110.5 460.33,-69.72 736.5,-29.9 841.24,-15.9"/>
<polygon fill="#63b8ff" stroke="#63b8ff" points="841.54,-19.26 850.99,-14.47 840.62,-12.32 841.54,-19.26"/>
</g>
<!-- Node19&#45;&gt;Node13 -->
<g id="edge47" class="edge">
<title>Node19&#45;&gt;Node13</title>
<path fill="none" stroke="#63b8ff" d="M319.64,-165.34C335.78,-157.08 359.9,-144.73 378.56,-135.18"/>
<polygon fill="#63b8ff" stroke="#63b8ff" points="379.97,-137.88 387.27,-130.2 376.78,-131.64 379.97,-137.88"/>
</g>
<!-- Node19&#45;&gt;Node15 -->
<g id="edge50" class="edge">
<title>Node19&#45;&gt;Node15</title>
<path fill="none" stroke="#63b8ff" d="M349.86,-169.6C444.5,-160.17 655.92,-139.08 766.14,-128.09"/>
<polygon fill="#63b8ff" stroke="#63b8ff" points="766.2,-131.5 775.81,-127.03 765.51,-124.54 766.2,-131.5"/>
</g>
<!-- Node20 -->
<g id="node20" class="node">
<title>Node20</title>
<g id="a_node20"><a xlink:title=" ">
<polygon fill="#e0e0e0" stroke="#999999" points="186.25,-129.75 141.75,-129.75 141.75,-110.5 186.25,-110.5 186.25,-129.75"/>
<text text-anchor="middle" x="164" y="-116.25" font-family="Helvetica,sans-Serif" font-size="10.00">stdio.h</text>
</a>
</g>
</g>
<!-- Node19&#45;&gt;Node20 -->
<g id="edge43" class="edge">
<title>Node19&#45;&gt;Node20</title>
<path fill="none" stroke="#63b8ff" d="M278.59,-165.34C256.12,-156.67 221.96,-143.49 196.79,-133.78"/>
<polygon fill="#63b8ff" stroke="#63b8ff" points="198.2,-130.18 187.61,-129.85 195.68,-136.71 198.2,-130.18"/>
</g>
<!-- Node21 -->
<g id="node21" class="node">
<title>Node21</title>
<g id="a_node21"><a xlink:title=" ">
<polygon fill="#e0e0e0" stroke="#999999" points="255.25,-129.75 204.75,-129.75 204.75,-110.5 255.25,-110.5 255.25,-129.75"/>
<text text-anchor="middle" x="230" y="-116.25" font-family="Helvetica,sans-Serif" font-size="10.00">memory</text>
</a>
</g>
</g>
<!-- Node19&#45;&gt;Node21 -->
<g id="edge45" class="edge">
<title>Node19&#45;&gt;Node21</title>
<path fill="none" stroke="#63b8ff" d="M289.79,-165.34C279.07,-157.41 263.26,-145.72 250.59,-136.35"/>
<polygon fill="#63b8ff" stroke="#63b8ff" points="253.15,-133.16 243.03,-130.02 248.99,-138.79 253.15,-133.16"/>
</g>
</g>
</svg>
