<?xml version="1.0" encoding="UTF-8" standalone="no"?>
<!DOCTYPE svg PUBLIC "-//W3C//DTD SVG 1.1//EN"
 "http://www.w3.org/Graphics/SVG/1.1/DTD/svg11.dtd">
<!-- Generated by graphviz version 8.0.5 (20230430.1635)
 -->
<!-- Title: include/v8&#45;inspector&#45;protocol.h Pages: 1 -->
<svg width="2738pt" height="646pt"
 viewBox="0.00 0.00 2738.25 646.25" xmlns="http://www.w3.org/2000/svg" xmlns:xlink="http://www.w3.org/1999/xlink">
<g id="graph0" class="graph" transform="scale(1 1) rotate(0) translate(4 642.25)">
<title>include/v8&#45;inspector&#45;protocol.h</title>
<!-- Node1 -->
<g id="node1" class="node">
<title>Node1</title>
<g id="a_node1"><a xlink:title=" ">
<polygon fill="#999999" stroke="#666666" points="2503.5,-638.25 2400.5,-638.25 2400.5,-607.75 2503.5,-607.75 2503.5,-638.25"/>
<text text-anchor="start" x="2408.5" y="-624.75" font-family="Helvetica,sans-Serif" font-size="10.00">include/v8&#45;inspector</text>
<text text-anchor="middle" x="2452" y="-613.5" font-family="Helvetica,sans-Serif" font-size="10.00">&#45;protocol.h</text>
</a>
</g>
</g>
<!-- Node2 -->
<g id="node2" class="node">
<title>Node2</title>
<g id="a_node2"><a xlink:title=" ">
<polygon fill="#e0e0e0" stroke="#999999" points="2322.75,-571.75 2215.25,-571.75 2215.25,-552.5 2322.75,-552.5 2322.75,-571.75"/>
<text text-anchor="middle" x="2269" y="-558.25" font-family="Helvetica,sans-Serif" font-size="10.00">inspector/Debugger.h</text>
</a>
</g>
</g>
<!-- Node1&#45;&gt;Node2 -->
<g id="edge1" class="edge">
<title>Node1&#45;&gt;Node2</title>
<path fill="none" stroke="#63b8ff" d="M2406.29,-607.3C2375.84,-597.5 2336.27,-584.77 2307.43,-575.49"/>
<polygon fill="#63b8ff" stroke="#63b8ff" points="2308.93,-571.97 2298.33,-572.24 2306.78,-578.64 2308.93,-571.97"/>
</g>
<!-- Node3 -->
<g id="node3" class="node">
<title>Node3</title>
<g id="a_node3"><a xlink:title=" ">
<polygon fill="#e0e0e0" stroke="#999999" points="2443.12,-571.75 2340.88,-571.75 2340.88,-552.5 2443.12,-552.5 2443.12,-571.75"/>
<text text-anchor="middle" x="2392" y="-558.25" font-family="Helvetica,sans-Serif" font-size="10.00">inspector/Runtime.h</text>
</a>
</g>
</g>
<!-- Node1&#45;&gt;Node3 -->
<g id="edge2" class="edge">
<title>Node1&#45;&gt;Node3</title>
<path fill="none" stroke="#63b8ff" d="M2437.17,-607.45C2428.65,-599.09 2417.91,-588.55 2409.05,-579.85"/>
<polygon fill="#63b8ff" stroke="#63b8ff" points="2411.84,-577.71 2402.25,-573.2 2406.94,-582.7 2411.84,-577.71"/>
</g>
<!-- Node4 -->
<g id="node4" class="node">
<title>Node4</title>
<g id="a_node4"><a xlink:title=" ">
<polygon fill="#e0e0e0" stroke="#999999" points="2563.12,-571.75 2460.88,-571.75 2460.88,-552.5 2563.12,-552.5 2563.12,-571.75"/>
<text text-anchor="middle" x="2512" y="-558.25" font-family="Helvetica,sans-Serif" font-size="10.00">inspector/Schema.h</text>
</a>
</g>
</g>
<!-- Node1&#45;&gt;Node4 -->
<g id="edge3" class="edge">
<title>Node1&#45;&gt;Node4</title>
<path fill="none" stroke="#63b8ff" d="M2466.83,-607.45C2475.35,-599.09 2486.09,-588.55 2494.95,-579.85"/>
<polygon fill="#63b8ff" stroke="#63b8ff" points="2497.06,-582.7 2501.75,-573.2 2492.16,-577.71 2497.06,-582.7"/>
</g>
<!-- Node5 -->
<g id="node5" class="node">
<title>Node5</title>
<g id="a_node5"><a xlink:href="v8-inspector_8h.html" target="_top" xlink:title=" ">
<polygon fill="white" stroke="#666666" points="2658.38,-571.75 2581.62,-571.75 2581.62,-552.5 2658.38,-552.5 2658.38,-571.75"/>
<text text-anchor="middle" x="2620" y="-558.25" font-family="Helvetica,sans-Serif" font-size="10.00">v8&#45;inspector.h</text>
</a>
</g>
</g>
<!-- Node1&#45;&gt;Node5 -->
<g id="edge4" class="edge">
<title>Node1&#45;&gt;Node5</title>
<path fill="none" stroke="#63b8ff" d="M2493.96,-607.3C2521.64,-597.6 2557.52,-585.02 2583.91,-575.77"/>
<polygon fill="#63b8ff" stroke="#63b8ff" points="2584.96,-578.76 2593.24,-572.15 2582.64,-572.16 2584.96,-578.76"/>
</g>
<!-- Node6 -->
<g id="node6" class="node">
<title>Node6</title>
<g id="a_node6"><a xlink:title=" ">
<polygon fill="#e0e0e0" stroke="#999999" points="2491.75,-19.25 2444.25,-19.25 2444.25,0 2491.75,0 2491.75,-19.25"/>
<text text-anchor="middle" x="2468" y="-5.75" font-family="Helvetica,sans-Serif" font-size="10.00">stdint.h</text>
</a>
</g>
</g>
<!-- Node5&#45;&gt;Node6 -->
<g id="edge5" class="edge">
<title>Node5&#45;&gt;Node6</title>
<path fill="none" stroke="#63b8ff" d="M2625.44,-552.21C2635.95,-534.13 2658,-491.54 2658,-452.62 2658,-452.62 2658,-452.62 2658,-119.12 2658,-48.41 2557.51,-23.16 2502.7,-14.65"/>
<polygon fill="#63b8ff" stroke="#63b8ff" points="2503.46,-11.08 2493.06,-13.12 2502.46,-18.01 2503.46,-11.08"/>
</g>
<!-- Node7 -->
<g id="node7" class="node">
<title>Node7</title>
<g id="a_node7"><a xlink:title=" ">
<polygon fill="#e0e0e0" stroke="#999999" points="2730.25,-516.5 2685.75,-516.5 2685.75,-497.25 2730.25,-497.25 2730.25,-516.5"/>
<text text-anchor="middle" x="2708" y="-503" font-family="Helvetica,sans-Serif" font-size="10.00">cctype</text>
</a>
</g>
</g>
<!-- Node5&#45;&gt;Node7 -->
<g id="edge6" class="edge">
<title>Node5&#45;&gt;Node7</title>
<path fill="none" stroke="#63b8ff" d="M2634.93,-552.09C2648.33,-543.98 2668.24,-531.93 2683.9,-522.46"/>
<polygon fill="#63b8ff" stroke="#63b8ff" points="2685.26,-525.12 2692,-516.95 2681.63,-519.14 2685.26,-525.12"/>
</g>
<!-- Node8 -->
<g id="node8" class="node">
<title>Node8</title>
<g id="a_node8"><a xlink:title=" ">
<polygon fill="#e0e0e0" stroke="#999999" points="2015.25,-240.25 1964.75,-240.25 1964.75,-221 2015.25,-221 2015.25,-240.25"/>
<text text-anchor="middle" x="1990" y="-226.75" font-family="Helvetica,sans-Serif" font-size="10.00">memory</text>
</a>
</g>
</g>
<!-- Node5&#45;&gt;Node8 -->
<g id="edge7" class="edge">
<title>Node5&#45;&gt;Node8</title>
<path fill="none" stroke="#63b8ff" d="M2620,-552.12C2620,-533.53 2620,-489.55 2620,-452.62 2620,-452.62 2620,-452.62 2620,-395.38 2620,-271.84 2160.51,-239.88 2026.36,-233.18"/>
<polygon fill="#63b8ff" stroke="#63b8ff" points="2026.63,-229.64 2016.48,-232.65 2026.3,-236.63 2026.63,-229.64"/>
</g>
<!-- Node9 -->
<g id="node9" class="node">
<title>Node9</title>
<g id="a_node9"><a xlink:href="v8-isolate_8h.html" target="_top" xlink:title=" ">
<polygon fill="white" stroke="#666666" points="1768.75,-516.5 1703.25,-516.5 1703.25,-497.25 1768.75,-497.25 1768.75,-516.5"/>
<text text-anchor="middle" x="1736" y="-503" font-family="Helvetica,sans-Serif" font-size="10.00">v8&#45;isolate.h</text>
</a>
</g>
</g>
<!-- Node5&#45;&gt;Node9 -->
<g id="edge8" class="edge">
<title>Node5&#45;&gt;Node9</title>
<path fill="none" stroke="#63b8ff" d="M2581.29,-553.74C2578.15,-553.27 2575.03,-552.85 2572,-552.5 2270.64,-517.52 1904.93,-509.91 1780.15,-508.3"/>
<polygon fill="#63b8ff" stroke="#63b8ff" points="1780.22,-504.79 1770.18,-508.17 1780.14,-511.79 1780.22,-504.79"/>
</g>
<!-- Node15 -->
<g id="node15" class="node">
<title>Node15</title>
<g id="a_node15"><a xlink:href="v8-local-handle_8h.html" target="_top" xlink:title=" ">
<polygon fill="white" stroke="#666666" points="614.38,-129.75 525.62,-129.75 525.62,-110.5 614.38,-110.5 614.38,-129.75"/>
<text text-anchor="middle" x="570" y="-116.25" font-family="Helvetica,sans-Serif" font-size="10.00">v8&#45;local&#45;handle.h</text>
</a>
</g>
</g>
<!-- Node5&#45;&gt;Node15 -->
<g id="edge140" class="edge">
<title>Node5&#45;&gt;Node15</title>
<path fill="none" stroke="#63b8ff" d="M2581.29,-553.69C2578.16,-553.23 2575.03,-552.83 2572,-552.5 2437.24,-537.94 245.93,-537.69 134,-461.25 23.48,-385.77 71.91,-224.83 192,-165.75 247.43,-138.48 423.49,-127.24 514.43,-123.16"/>
<polygon fill="#63b8ff" stroke="#63b8ff" points="514.52,-126.62 524.35,-122.69 514.21,-119.63 514.52,-126.62"/>
</g>
<!-- Node9&#45;&gt;Node6 -->
<g id="edge10" class="edge">
<title>Node9&#45;&gt;Node6</title>
<path fill="none" stroke="#63b8ff" d="M1769.17,-505.85C1894.11,-505.44 2336.02,-501.16 2470,-461.25 2524.92,-444.89 2582,-454.68 2582,-397.38 2582,-397.38 2582,-397.38 2582,-119.12 2582,-73.49 2533.48,-41.22 2499.75,-24.3"/>
<polygon fill="#63b8ff" stroke="#63b8ff" points="2501.78,-20.91 2491.25,-19.74 2498.75,-27.22 2501.78,-20.91"/>
</g>
<!-- Node9&#45;&gt;Node8 -->
<g id="edge11" class="edge">
<title>Node9&#45;&gt;Node8</title>
<path fill="none" stroke="#63b8ff" d="M1756.89,-496.78C1789.36,-481.8 1852.44,-449.23 1893,-406 1938.14,-357.88 1969.81,-284.84 1983.06,-250.59"/>
<polygon fill="#63b8ff" stroke="#63b8ff" points="1986.59,-252.15 1986.84,-241.56 1980.04,-249.68 1986.59,-252.15"/>
</g>
<!-- Node10 -->
<g id="node10" class="node">
<title>Node10</title>
<g id="a_node10"><a xlink:title=" ">
<polygon fill="#e0e0e0" stroke="#999999" points="291.25,-19.25 240.75,-19.25 240.75,0 291.25,0 291.25,-19.25"/>
<text text-anchor="middle" x="266" y="-5.75" font-family="Helvetica,sans-Serif" font-size="10.00">stddef.h</text>
</a>
</g>
</g>
<!-- Node9&#45;&gt;Node10 -->
<g id="edge9" class="edge">
<title>Node9&#45;&gt;Node10</title>
<path fill="none" stroke="#63b8ff" d="M1703.03,-505.86C1480.42,-505.66 203.89,-502.69 134,-461.25 32.36,-400.99 0,-349.79 0,-231.62 0,-231.62 0,-231.62 0,-119.12 0,-83.07 19.36,-74.25 50,-55.25 105.95,-20.55 184.17,-12.33 229.52,-10.67"/>
<polygon fill="#63b8ff" stroke="#63b8ff" points="229.4,-14.15 239.3,-10.38 229.21,-7.15 229.4,-14.15"/>
</g>
<!-- Node11 -->
<g id="node11" class="node">
<title>Node11</title>
<g id="a_node11"><a xlink:title=" ">
<polygon fill="#e0e0e0" stroke="#999999" points="2096.25,-129.75 2057.75,-129.75 2057.75,-110.5 2096.25,-110.5 2096.25,-129.75"/>
<text text-anchor="middle" x="2077" y="-116.25" font-family="Helvetica,sans-Serif" font-size="10.00">utility</text>
</a>
</g>
</g>
<!-- Node9&#45;&gt;Node11 -->
<g id="edge12" class="edge">
<title>Node9&#45;&gt;Node11</title>
<path fill="none" stroke="#63b8ff" d="M1769.09,-506.33C1886.76,-507.08 2278,-501.74 2278,-397.38 2278,-397.38 2278,-397.38 2278,-340.12 2278,-239.31 2160.97,-164.84 2105.51,-135.21"/>
<polygon fill="#63b8ff" stroke="#63b8ff" points="2107.39,-131.72 2096.91,-130.2 2104.16,-137.93 2107.39,-131.72"/>
</g>
<!-- Node12 -->
<g id="node12" class="node">
<title>Node12</title>
<g id="a_node12"><a xlink:href="common_8h.html" target="_top" xlink:title=" ">
<polygon fill="white" stroke="#666666" points="2215.12,-406 2124.88,-406 2124.88,-386.75 2215.12,-386.75 2215.12,-406"/>
<text text-anchor="middle" x="2170" y="-392.5" font-family="Helvetica,sans-Serif" font-size="10.00">cppgc/common.h</text>
</a>
</g>
</g>
<!-- Node9&#45;&gt;Node12 -->
<g id="edge13" class="edge">
<title>Node9&#45;&gt;Node12</title>
<path fill="none" stroke="#63b8ff" d="M1769.05,-504.85C1849.17,-501.91 2051.5,-491.6 2111,-461.25 2131.52,-450.78 2148.54,-430.1 2158.94,-415.1"/>
<polygon fill="#63b8ff" stroke="#63b8ff" points="2162.21,-417.5 2164.79,-407.23 2156.36,-413.65 2162.21,-417.5"/>
</g>
<!-- Node13 -->
<g id="node13" class="node">
<title>Node13</title>
<g id="a_node13"><a xlink:href="v8config_8h.html" target="_top" xlink:title=" ">
<polygon fill="white" stroke="#666666" points="1831.75,-19.25 1772.25,-19.25 1772.25,0 1831.75,0 1831.75,-19.25"/>
<text text-anchor="middle" x="1802" y="-5.75" font-family="Helvetica,sans-Serif" font-size="10.00">v8config.h</text>
</a>
</g>
</g>
<!-- Node9&#45;&gt;Node13 -->
<g id="edge139" class="edge">
<title>Node9&#45;&gt;Node13</title>
<path fill="none" stroke="#63b8ff" d="M1768.93,-505.01C1898.77,-501.43 2371.21,-486.75 2433,-461.25 2472.85,-444.8 2506,-440.49 2506,-397.38 2506,-397.38 2506,-397.38 2506,-174.38 2506,-86.43 2430.91,-84.59 2348,-55.25 2254.91,-22.31 1953.6,-13.45 1843.11,-11.27"/>
<polygon fill="#63b8ff" stroke="#63b8ff" points="1843.18,-7.76 1833.11,-11.07 1843.04,-14.76 1843.18,-7.76"/>
</g>
<!-- Node14 -->
<g id="node14" class="node">
<title>Node14</title>
<g id="a_node14"><a xlink:href="v8-array-buffer_8h.html" target="_top" xlink:title=" ">
<polygon fill="white" stroke="#666666" points="1448.5,-406 1363.5,-406 1363.5,-386.75 1448.5,-386.75 1448.5,-406"/>
<text text-anchor="middle" x="1406" y="-392.5" font-family="Helvetica,sans-Serif" font-size="10.00">v8&#45;array&#45;buffer.h</text>
</a>
</g>
</g>
<!-- Node9&#45;&gt;Node14 -->
<g id="edge15" class="edge">
<title>Node9&#45;&gt;Node14</title>
<path fill="none" stroke="#63b8ff" d="M1708.43,-496.81C1649.47,-477.42 1511.02,-431.91 1443.87,-409.82"/>
<polygon fill="#63b8ff" stroke="#63b8ff" points="1445.31,-406.29 1434.72,-406.49 1443.13,-412.94 1445.31,-406.29"/>
</g>
<!-- Node9&#45;&gt;Node15 -->
<g id="edge109" class="edge">
<title>Node9&#45;&gt;Node15</title>
<path fill="none" stroke="#63b8ff" d="M1702.89,-505.78C1498.58,-505.04 413.41,-499.37 271,-461.25 213.01,-445.73 152,-457.4 152,-397.38 152,-397.38 152,-397.38 152,-229.62 152,-155.62 400.6,-131.23 514.36,-123.94"/>
<polygon fill="#63b8ff" stroke="#63b8ff" points="514.5,-127.38 524.27,-123.27 514.07,-120.39 514.5,-127.38"/>
</g>
<!-- Node17 -->
<g id="node17" class="node">
<title>Node17</title>
<g id="a_node17"><a xlink:href="v8-internal_8h.html" target="_top" xlink:title=" ">
<polygon fill="white" stroke="#666666" points="1116.25,-74.5 1047.75,-74.5 1047.75,-55.25 1116.25,-55.25 1116.25,-74.5"/>
<text text-anchor="middle" x="1082" y="-61" font-family="Helvetica,sans-Serif" font-size="10.00">v8&#45;internal.h</text>
</a>
</g>
</g>
<!-- Node9&#45;&gt;Node17 -->
<g id="edge108" class="edge">
<title>Node9&#45;&gt;Node17</title>
<path fill="none" stroke="#63b8ff" d="M1702.94,-505.63C1483.91,-503.95 248.31,-493.06 176,-461.25 139.79,-445.32 114,-436.94 114,-397.38 114,-397.38 114,-397.38 114,-284.88 114,-221.59 135.94,-195.12 192,-165.75 341.46,-87.44 877.22,-70.13 1036.82,-66.67"/>
<polygon fill="#63b8ff" stroke="#63b8ff" points="1036.73,-70.15 1046.65,-66.44 1036.58,-63.15 1036.73,-70.15"/>
</g>
<!-- Node23 -->
<g id="node23" class="node">
<title>Node23</title>
<g id="a_node23"><a xlink:href="v8-persistent-handle_8h.html" target="_top" xlink:title=" ">
<polygon fill="white" stroke="#666666" points="937.62,-185 826.38,-185 826.38,-165.75 937.62,-165.75 937.62,-185"/>
<text text-anchor="middle" x="882" y="-171.5" font-family="Helvetica,sans-Serif" font-size="10.00">v8&#45;persistent&#45;handle.h</text>
</a>
</g>
</g>
<!-- Node9&#45;&gt;Node23 -->
<g id="edge111" class="edge">
<title>Node9&#45;&gt;Node23</title>
<path fill="none" stroke="#63b8ff" d="M1702.88,-506.06C1502.1,-507.01 452.01,-509.62 318,-461.25 280.39,-447.68 264.56,-441.92 247,-406 193.72,-297.03 641.5,-214.19 815.1,-186.44"/>
<polygon fill="#63b8ff" stroke="#63b8ff" points="815.55,-189.75 824.88,-184.73 814.46,-182.84 815.55,-189.75"/>
</g>
<!-- Node25 -->
<g id="node25" class="node">
<title>Node25</title>
<g id="a_node25"><a xlink:href="v8-primitive_8h.html" target="_top" xlink:title=" ">
<polygon fill="white" stroke="#666666" points="989.88,-295.5 916.12,-295.5 916.12,-276.25 989.88,-276.25 989.88,-295.5"/>
<text text-anchor="middle" x="953" y="-282" font-family="Helvetica,sans-Serif" font-size="10.00">v8&#45;primitive.h</text>
</a>
</g>
</g>
<!-- Node9&#45;&gt;Node25 -->
<g id="edge112" class="edge">
<title>Node9&#45;&gt;Node25</title>
<path fill="none" stroke="#63b8ff" d="M1702.76,-506.47C1570.23,-508.15 1081.67,-507.25 975,-406 948.02,-380.39 947.82,-333.29 950.27,-306.63"/>
<polygon fill="#63b8ff" stroke="#63b8ff" points="953.84,-307.3 951.5,-296.97 946.88,-306.5 953.84,-307.3"/>
</g>
<!-- Node26 -->
<g id="node26" class="node">
<title>Node26</title>
<g id="a_node26"><a xlink:href="v8-data_8h.html" target="_top" xlink:title=" ">
<polygon fill="white" stroke="#666666" points="1011.88,-185 956.12,-185 956.12,-165.75 1011.88,-165.75 1011.88,-185"/>
<text text-anchor="middle" x="984" y="-171.5" font-family="Helvetica,sans-Serif" font-size="10.00">v8&#45;data.h</text>
</a>
</g>
</g>
<!-- Node9&#45;&gt;Node26 -->
<g id="edge81" class="edge">
<title>Node9&#45;&gt;Node26</title>
<path fill="none" stroke="#63b8ff" d="M1702.79,-505.19C1545.69,-501.81 881.07,-486.18 792,-461.25 693.08,-433.57 641.47,-439.06 589,-350.75 584.63,-343.39 584.18,-338.57 589,-331.5 631.07,-269.78 854.28,-208.52 945.31,-185.7"/>
<polygon fill="#63b8ff" stroke="#63b8ff" points="945.87,-188.92 954.73,-183.12 944.18,-182.13 945.87,-188.92"/>
</g>
<!-- Node30 -->
<g id="node30" class="node">
<title>Node30</title>
<g id="a_node30"><a xlink:href="v8-callbacks_8h.html" target="_top" xlink:title=" ">
<polygon fill="white" stroke="#666666" points="405.12,-461.25 326.88,-461.25 326.88,-442 405.12,-442 405.12,-461.25"/>
<text text-anchor="middle" x="366" y="-447.75" font-family="Helvetica,sans-Serif" font-size="10.00">v8&#45;callbacks.h</text>
</a>
</g>
</g>
<!-- Node9&#45;&gt;Node30 -->
<g id="edge70" class="edge">
<title>Node9&#45;&gt;Node30</title>
<path fill="none" stroke="#63b8ff" d="M1702.96,-506.13C1554.21,-506.99 931.85,-507.5 424,-461.25 421.48,-461.02 418.9,-460.75 416.29,-460.46"/>
<polygon fill="#63b8ff" stroke="#63b8ff" points="416.91,-456.88 406.55,-459.12 416.04,-463.83 416.91,-456.88"/>
</g>
<!-- Node33 -->
<g id="node33" class="node">
<title>Node33</title>
<g id="a_node33"><a xlink:href="v8-debug_8h.html" target="_top" xlink:title=" ">
<polygon fill="white" stroke="#666666" points="2423.62,-461.25 2360.38,-461.25 2360.38,-442 2423.62,-442 2423.62,-461.25"/>
<text text-anchor="middle" x="2392" y="-447.75" font-family="Helvetica,sans-Serif" font-size="10.00">v8&#45;debug.h</text>
</a>
</g>
</g>
<!-- Node9&#45;&gt;Node33 -->
<g id="edge82" class="edge">
<title>Node9&#45;&gt;Node33</title>
<path fill="none" stroke="#63b8ff" d="M1769.22,-503.28C1855.48,-496.52 2093.68,-477.76 2292,-461.25 2310.75,-459.69 2331.47,-457.91 2349.17,-456.38"/>
<polygon fill="#63b8ff" stroke="#63b8ff" points="2349.37,-459.78 2359.03,-455.43 2348.76,-452.81 2349.37,-459.78"/>
</g>
<!-- Node38 -->
<g id="node38" class="node">
<title>Node38</title>
<g id="a_node38"><a xlink:href="v8-embedder-heap_8h.html" target="_top" xlink:title=" ">
<polygon fill="white" stroke="#666666" points="2211.88,-350.75 2108.12,-350.75 2108.12,-331.5 2211.88,-331.5 2211.88,-350.75"/>
<text text-anchor="middle" x="2160" y="-337.25" font-family="Helvetica,sans-Serif" font-size="10.00">v8&#45;embedder&#45;heap.h</text>
</a>
</g>
</g>
<!-- Node9&#45;&gt;Node38 -->
<g id="edge101" class="edge">
<title>Node9&#45;&gt;Node38</title>
<path fill="none" stroke="#63b8ff" d="M1768.9,-504.29C1817.57,-500.99 1910.86,-491.02 1984,-461.25 2047.76,-435.3 2112.07,-383.9 2142.26,-357.93"/>
<polygon fill="#63b8ff" stroke="#63b8ff" points="2143.93,-360.24 2149.17,-351.03 2139.33,-354.97 2143.93,-360.24"/>
</g>
<!-- Node39 -->
<g id="node39" class="node">
<title>Node39</title>
<g id="a_node39"><a xlink:href="v8-function-callback_8h.html" target="_top" xlink:title=" ">
<polygon fill="white" stroke="#666666" points="708.25,-350.75 597.75,-350.75 597.75,-331.5 708.25,-331.5 708.25,-350.75"/>
<text text-anchor="middle" x="653" y="-337.25" font-family="Helvetica,sans-Serif" font-size="10.00">v8&#45;function&#45;callback.h</text>
</a>
</g>
</g>
<!-- Node9&#45;&gt;Node39 -->
<g id="edge104" class="edge">
<title>Node9&#45;&gt;Node39</title>
<path fill="none" stroke="#63b8ff" d="M1702.89,-505.24C1550.74,-502.16 922.44,-487.95 839,-461.25 770.52,-439.34 702.58,-385.62 671.12,-358.44"/>
<polygon fill="#63b8ff" stroke="#63b8ff" points="673.73,-355.2 663.9,-351.23 669.11,-360.46 673.73,-355.2"/>
</g>
<!-- Node40 -->
<g id="node40" class="node">
<title>Node40</title>
<g id="a_node40"><a xlink:href="v8-microtask_8h.html" target="_top" xlink:title=" ">
<polygon fill="white" stroke="#666666" points="927.88,-461.25 848.12,-461.25 848.12,-442 927.88,-442 927.88,-461.25"/>
<text text-anchor="middle" x="888" y="-447.75" font-family="Helvetica,sans-Serif" font-size="10.00">v8&#45;microtask.h</text>
</a>
</g>
</g>
<!-- Node9&#45;&gt;Node40 -->
<g id="edge110" class="edge">
<title>Node9&#45;&gt;Node40</title>
<path fill="none" stroke="#63b8ff" d="M1703,-505.23C1594.07,-502.84 1236.1,-492.92 942,-461.25 941.03,-461.15 940.05,-461.04 939.06,-460.92"/>
<polygon fill="#63b8ff" stroke="#63b8ff" points="939.7,-457.34 929.34,-459.53 938.8,-464.29 939.7,-457.34"/>
</g>
<!-- Node41 -->
<g id="node41" class="node">
<title>Node41</title>
<g id="a_node41"><a xlink:href="v8-statistics_8h.html" target="_top" xlink:title=" ">
<polygon fill="white" stroke="#666666" points="1810.38,-461.25 1733.62,-461.25 1733.62,-442 1810.38,-442 1810.38,-461.25"/>
<text text-anchor="middle" x="1772" y="-447.75" font-family="Helvetica,sans-Serif" font-size="10.00">v8&#45;statistics.h</text>
</a>
</g>
</g>
<!-- Node9&#45;&gt;Node41 -->
<g id="edge113" class="edge">
<title>Node9&#45;&gt;Node41</title>
<path fill="none" stroke="#63b8ff" d="M1741.94,-497.08C1746.81,-489.88 1753.86,-479.46 1759.91,-470.51"/>
<polygon fill="#63b8ff" stroke="#63b8ff" points="1763.22,-472.85 1765.93,-462.61 1757.43,-468.93 1763.22,-472.85"/>
</g>
<!-- Node42 -->
<g id="node42" class="node">
<title>Node42</title>
<g id="a_node42"><a xlink:href="v8-unwinder_8h.html" target="_top" xlink:title=" ">
<polygon fill="white" stroke="#666666" points="2052,-350.75 1976,-350.75 1976,-331.5 2052,-331.5 2052,-350.75"/>
<text text-anchor="middle" x="2014" y="-337.25" font-family="Helvetica,sans-Serif" font-size="10.00">v8&#45;unwinder.h</text>
</a>
</g>
</g>
<!-- Node9&#45;&gt;Node42 -->
<g id="edge122" class="edge">
<title>Node9&#45;&gt;Node42</title>
<path fill="none" stroke="#63b8ff" d="M1769.16,-503.09C1824.55,-497.83 1932.7,-484.8 1962,-461.25 1993.27,-436.12 2006.18,-388.44 2011.16,-361.66"/>
<polygon fill="#63b8ff" stroke="#63b8ff" points="2014.75,-362.41 2012.92,-351.97 2007.84,-361.27 2014.75,-362.41"/>
</g>
<!-- Node12&#45;&gt;Node13 -->
<g id="edge14" class="edge">
<title>Node12&#45;&gt;Node13</title>
<path fill="none" stroke="#63b8ff" d="M2191.7,-386.3C2207.45,-378.77 2228.31,-366.72 2242,-350.75 2296.79,-286.83 2316,-260.56 2316,-176.38 2316,-176.38 2316,-176.38 2316,-119.12 2316,-22.61 1964.69,-11.52 1842.95,-10.58"/>
<polygon fill="#63b8ff" stroke="#63b8ff" points="1843.25,-7.07 1833.23,-10.51 1843.21,-14.07 1843.25,-7.07"/>
</g>
<!-- Node14&#45;&gt;Node8 -->
<g id="edge17" class="edge">
<title>Node14&#45;&gt;Node8</title>
<path fill="none" stroke="#63b8ff" d="M1448.76,-393.41C1508.48,-389.7 1619.72,-379.28 1710,-350.75 1780.22,-328.56 1790.06,-304.67 1858,-276.25 1889.78,-262.96 1927.04,-250.65 1953.85,-242.34"/>
<polygon fill="#63b8ff" stroke="#63b8ff" points="1954.76,-245.41 1963.3,-239.14 1952.72,-238.72 1954.76,-245.41"/>
</g>
<!-- Node14&#45;&gt;Node10 -->
<g id="edge16" class="edge">
<title>Node14&#45;&gt;Node10</title>
<path fill="none" stroke="#63b8ff" d="M1363.2,-394.47C1200.01,-390.82 622.19,-376.22 544,-350.75 415.83,-308.99 362.14,-298.87 290,-185 259.12,-136.26 260.74,-64.56 263.71,-30.28"/>
<polygon fill="#63b8ff" stroke="#63b8ff" points="267.28,-30.76 264.81,-20.46 260.32,-30.05 267.28,-30.76"/>
</g>
<!-- Node14&#45;&gt;Node13 -->
<g id="edge69" class="edge">
<title>Node14&#45;&gt;Node13</title>
<path fill="none" stroke="#63b8ff" d="M1448.73,-390.82C1519.15,-381.77 1662.12,-356.85 1766,-295.5 1859.63,-240.2 1867.07,-183.17 1871,-74.5 1871.31,-65.95 1875.09,-62.76 1871,-55.25 1863.61,-41.67 1850.11,-31.59 1837,-24.48"/>
<polygon fill="#63b8ff" stroke="#63b8ff" points="1838.67,-20.91 1828.16,-19.61 1835.57,-27.18 1838.67,-20.91"/>
</g>
<!-- Node14&#45;&gt;Node15 -->
<g id="edge18" class="edge">
<title>Node14&#45;&gt;Node15</title>
<path fill="none" stroke="#63b8ff" d="M1363.12,-393.78C1199.97,-387.64 625.26,-365.05 589,-350.75 497.83,-314.78 415.51,-247.87 469,-165.75 479.45,-149.7 497.13,-139.39 514.79,-132.77"/>
<polygon fill="#63b8ff" stroke="#63b8ff" points="515.78,-135.79 524.14,-129.29 513.55,-129.16 515.78,-135.79"/>
</g>
<!-- Node21 -->
<g id="node21" class="node">
<title>Node21</title>
<g id="a_node21"><a xlink:href="v8-object_8h.html" target="_top" xlink:title=" ">
<polygon fill="white" stroke="#666666" points="1049.62,-350.75 986.38,-350.75 986.38,-331.5 1049.62,-331.5 1049.62,-350.75"/>
<text text-anchor="middle" x="1018" y="-337.25" font-family="Helvetica,sans-Serif" font-size="10.00">v8&#45;object.h</text>
</a>
</g>
</g>
<!-- Node14&#45;&gt;Node21 -->
<g id="edge29" class="edge">
<title>Node14&#45;&gt;Node21</title>
<path fill="none" stroke="#63b8ff" d="M1363.24,-390.57C1298.38,-383.11 1171.33,-367.8 1064,-350.75 1062.84,-350.57 1061.66,-350.37 1060.47,-350.18"/>
<polygon fill="#63b8ff" stroke="#63b8ff" points="1061.08,-346.56 1050.63,-348.3 1059.89,-353.45 1061.08,-346.56"/>
</g>
<!-- Node15&#45;&gt;Node10 -->
<g id="edge19" class="edge">
<title>Node15&#45;&gt;Node10</title>
<path fill="none" stroke="#63b8ff" d="M544.6,-110.06C490.51,-90.75 363.8,-45.53 301.65,-23.35"/>
<polygon fill="#63b8ff" stroke="#63b8ff" points="303.13,-19.8 292.54,-19.74 300.78,-26.4 303.13,-19.8"/>
</g>
<!-- Node16 -->
<g id="node16" class="node">
<title>Node16</title>
<g id="a_node16"><a xlink:title=" ">
<polygon fill="#e0e0e0" stroke="#999999" points="1312.5,-19.25 1251.5,-19.25 1251.5,0 1312.5,0 1312.5,-19.25"/>
<text text-anchor="middle" x="1282" y="-5.75" font-family="Helvetica,sans-Serif" font-size="10.00">type_traits</text>
</a>
</g>
</g>
<!-- Node15&#45;&gt;Node16 -->
<g id="edge20" class="edge">
<title>Node15&#45;&gt;Node16</title>
<path fill="none" stroke="#63b8ff" d="M614.81,-112.3C743.92,-92.62 1115.47,-36 1240.43,-16.96"/>
<polygon fill="#63b8ff" stroke="#63b8ff" points="1240.7,-20.31 1250.05,-15.34 1239.64,-13.39 1240.7,-20.31"/>
</g>
<!-- Node15&#45;&gt;Node17 -->
<g id="edge21" class="edge">
<title>Node15&#45;&gt;Node17</title>
<path fill="none" stroke="#63b8ff" d="M614.54,-114.49C711.18,-104.44 939.2,-80.73 1036.6,-70.6"/>
<polygon fill="#63b8ff" stroke="#63b8ff" points="1036.69,-74 1046.27,-69.49 1035.96,-67.04 1036.69,-74"/>
</g>
<!-- Node17&#45;&gt;Node6 -->
<g id="edge23" class="edge">
<title>Node17&#45;&gt;Node6</title>
<path fill="none" stroke="#63b8ff" d="M1116.61,-62.55C1308.48,-55.17 2239.98,-19.39 2432.96,-11.97"/>
<polygon fill="#63b8ff" stroke="#63b8ff" points="2432.99,-15.43 2442.85,-11.55 2432.72,-8.44 2432.99,-15.43"/>
</g>
<!-- Node17&#45;&gt;Node10 -->
<g id="edge22" class="edge">
<title>Node17&#45;&gt;Node10</title>
<path fill="none" stroke="#63b8ff" d="M1047.47,-57.16C1042.95,-56.43 1038.37,-55.77 1034,-55.25 753.79,-22.05 413,-13.26 302.48,-11.2"/>
<polygon fill="#63b8ff" stroke="#63b8ff" points="302.68,-7.68 292.62,-11 302.56,-14.68 302.68,-7.68"/>
</g>
<!-- Node17&#45;&gt;Node13 -->
<g id="edge28" class="edge">
<title>Node17&#45;&gt;Node13</title>
<path fill="none" stroke="#63b8ff" d="M1116.54,-57.19C1121.05,-56.46 1125.63,-55.79 1130,-55.25 1368.22,-26.03 1656.47,-14.98 1761.36,-11.75"/>
<polygon fill="#63b8ff" stroke="#63b8ff" points="1761.19,-15.22 1771.08,-11.42 1760.98,-8.22 1761.19,-15.22"/>
</g>
<!-- Node17&#45;&gt;Node16 -->
<g id="edge26" class="edge">
<title>Node17&#45;&gt;Node16</title>
<path fill="none" stroke="#63b8ff" d="M1115.93,-54.84C1150.41,-45.66 1203.88,-31.42 1240.78,-21.6"/>
<polygon fill="#63b8ff" stroke="#63b8ff" points="1241.43,-24.78 1250.2,-18.83 1239.63,-18.02 1241.43,-24.78"/>
</g>
<!-- Node18 -->
<g id="node18" class="node">
<title>Node18</title>
<g id="a_node18"><a xlink:title=" ">
<polygon fill="#e0e0e0" stroke="#999999" points="1067.75,-19.25 1020.25,-19.25 1020.25,0 1067.75,0 1067.75,-19.25"/>
<text text-anchor="middle" x="1044" y="-5.75" font-family="Helvetica,sans-Serif" font-size="10.00">string.h</text>
</a>
</g>
</g>
<!-- Node17&#45;&gt;Node18 -->
<g id="edge24" class="edge">
<title>Node17&#45;&gt;Node18</title>
<path fill="none" stroke="#63b8ff" d="M1075.73,-55.08C1070.59,-47.88 1063.15,-37.46 1056.76,-28.51"/>
<polygon fill="#63b8ff" stroke="#63b8ff" points="1059.07,-26.72 1050.41,-20.61 1053.37,-30.78 1059.07,-26.72"/>
</g>
<!-- Node19 -->
<g id="node19" class="node">
<title>Node19</title>
<g id="a_node19"><a xlink:title=" ">
<polygon fill="#e0e0e0" stroke="#999999" points="1493.62,-19.25 1448.38,-19.25 1448.38,0 1493.62,0 1493.62,-19.25"/>
<text text-anchor="middle" x="1471" y="-5.75" font-family="Helvetica,sans-Serif" font-size="10.00">atomic</text>
</a>
</g>
</g>
<!-- Node17&#45;&gt;Node19 -->
<g id="edge25" class="edge">
<title>Node17&#45;&gt;Node19</title>
<path fill="none" stroke="#63b8ff" d="M1116.58,-57.46C1121.09,-56.68 1125.65,-55.93 1130,-55.25 1242.24,-37.83 1375.98,-21.66 1437.28,-14.5"/>
<polygon fill="#63b8ff" stroke="#63b8ff" points="1437.67,-17.86 1447.2,-13.23 1436.86,-10.91 1437.67,-17.86"/>
</g>
<!-- Node20 -->
<g id="node20" class="node">
<title>Node20</title>
<g id="a_node20"><a xlink:href="v8-version_8h.html" target="_top" xlink:title=" ">
<polygon fill="white" stroke="#666666" points="1154.25,-19.25 1085.75,-19.25 1085.75,0 1154.25,0 1154.25,-19.25"/>
<text text-anchor="middle" x="1120" y="-5.75" font-family="Helvetica,sans-Serif" font-size="10.00">v8&#45;version.h</text>
</a>
</g>
</g>
<!-- Node17&#45;&gt;Node20 -->
<g id="edge27" class="edge">
<title>Node17&#45;&gt;Node20</title>
<path fill="none" stroke="#63b8ff" d="M1088.27,-55.08C1093.41,-47.88 1100.85,-37.46 1107.24,-28.51"/>
<polygon fill="#63b8ff" stroke="#63b8ff" points="1110.63,-30.78 1113.59,-20.61 1104.93,-26.72 1110.63,-30.78"/>
</g>
<!-- Node21&#45;&gt;Node13 -->
<g id="edge68" class="edge">
<title>Node21&#45;&gt;Node13</title>
<path fill="none" stroke="#63b8ff" d="M1050.03,-338.94C1125.69,-335.7 1313.27,-324.84 1368,-295.5 1383.56,-287.16 1560.73,-64.12 1576,-55.25 1634.27,-21.41 1713.74,-12.79 1761.26,-10.84"/>
<polygon fill="#63b8ff" stroke="#63b8ff" points="1761.16,-14.31 1771.04,-10.49 1760.94,-7.32 1761.16,-14.31"/>
</g>
<!-- Node21&#45;&gt;Node15 -->
<g id="edge30" class="edge">
<title>Node21&#45;&gt;Node15</title>
<path fill="none" stroke="#63b8ff" d="M986.26,-339.26C925.81,-336.89 790.49,-328.07 682,-295.5 628.07,-279.31 602.82,-284.5 568,-240.25 547.26,-213.89 550.92,-198.9 556,-165.75 557.31,-157.23 559.94,-148.1 562.57,-140.34"/>
<polygon fill="#63b8ff" stroke="#63b8ff" points="566.14,-141.76 566.27,-131.16 559.56,-139.36 566.14,-141.76"/>
</g>
<!-- Node22 -->
<g id="node22" class="node">
<title>Node22</title>
<g id="a_node22"><a xlink:href="v8-maybe_8h.html" target="_top" xlink:title=" ">
<polygon fill="white" stroke="#666666" points="1569.75,-185 1504.25,-185 1504.25,-165.75 1569.75,-165.75 1569.75,-185"/>
<text text-anchor="middle" x="1537" y="-171.5" font-family="Helvetica,sans-Serif" font-size="10.00">v8&#45;maybe.h</text>
</a>
</g>
</g>
<!-- Node21&#45;&gt;Node22 -->
<g id="edge31" class="edge">
<title>Node21&#45;&gt;Node22</title>
<path fill="none" stroke="#63b8ff" d="M1049.83,-339.9C1131.6,-338.81 1346.7,-332.39 1406,-295.5 1439.45,-274.7 1425.07,-247.73 1454,-221 1468.33,-207.76 1487.32,-197.17 1503.52,-189.64"/>
<polygon fill="#63b8ff" stroke="#63b8ff" points="1504.46,-192.61 1512.18,-185.35 1501.62,-186.21 1504.46,-192.61"/>
</g>
<!-- Node21&#45;&gt;Node23 -->
<g id="edge36" class="edge">
<title>Node21&#45;&gt;Node23</title>
<path fill="none" stroke="#63b8ff" d="M985.95,-335.58C960.76,-330.29 926.75,-319.06 907,-295.5 883.32,-267.25 880.3,-222.18 880.78,-196.34"/>
<polygon fill="#63b8ff" stroke="#63b8ff" points="884.32,-196.48 881.23,-186.35 877.33,-196.2 884.32,-196.48"/>
</g>
<!-- Node21&#45;&gt;Node25 -->
<g id="edge42" class="edge">
<title>Node21&#45;&gt;Node25</title>
<path fill="none" stroke="#63b8ff" d="M1006.97,-331.09C997.49,-323.32 983.58,-311.92 972.25,-302.65"/>
<polygon fill="#63b8ff" stroke="#63b8ff" points="974.82,-299.4 964.86,-295.77 970.38,-304.82 974.82,-299.4"/>
</g>
<!-- Node27 -->
<g id="node27" class="node">
<title>Node27</title>
<g id="a_node27"><a xlink:href="v8-value_8h.html" target="_top" xlink:title=" ">
<polygon fill="white" stroke="#666666" points="1012.12,-240.25 951.88,-240.25 951.88,-221 1012.12,-221 1012.12,-240.25"/>
<text text-anchor="middle" x="982" y="-226.75" font-family="Helvetica,sans-Serif" font-size="10.00">v8&#45;value.h</text>
</a>
</g>
</g>
<!-- Node21&#45;&gt;Node27 -->
<g id="edge67" class="edge">
<title>Node21&#45;&gt;Node27</title>
<path fill="none" stroke="#63b8ff" d="M1015.62,-331.38C1012.21,-319.02 1005.61,-295.76 999,-276.25 996.11,-267.71 992.61,-258.37 989.53,-250.46"/>
<polygon fill="#63b8ff" stroke="#63b8ff" points="992.51,-249.46 985.58,-241.44 986,-252.03 992.51,-249.46"/>
</g>
<!-- Node28 -->
<g id="node28" class="node">
<title>Node28</title>
<g id="a_node28"><a xlink:href="v8-traced-handle_8h.html" target="_top" xlink:title=" ">
<polygon fill="white" stroke="#666666" points="1729.75,-295.5 1634.25,-295.5 1634.25,-276.25 1729.75,-276.25 1729.75,-295.5"/>
<text text-anchor="middle" x="1682" y="-282" font-family="Helvetica,sans-Serif" font-size="10.00">v8&#45;traced&#45;handle.h</text>
</a>
</g>
</g>
<!-- Node21&#45;&gt;Node28 -->
<g id="edge55" class="edge">
<title>Node21&#45;&gt;Node28</title>
<path fill="none" stroke="#63b8ff" d="M1050,-338.64C1139.06,-334.32 1397.55,-320.54 1623.12,-295.62"/>
<polygon fill="#63b8ff" stroke="#63b8ff" points="1623.28,-299.02 1632.83,-294.43 1622.51,-292.06 1623.28,-299.02"/>
</g>
<!-- Node22&#45;&gt;Node11 -->
<g id="edge33" class="edge">
<title>Node22&#45;&gt;Node11</title>
<path fill="none" stroke="#63b8ff" d="M1569.97,-171.12C1667.35,-161.52 1952.75,-133.38 2046.66,-124.12"/>
<polygon fill="#63b8ff" stroke="#63b8ff" points="2046.77,-127.52 2056.38,-123.06 2046.09,-120.56 2046.77,-127.52"/>
</g>
<!-- Node22&#45;&gt;Node13 -->
<g id="edge35" class="edge">
<title>Node22&#45;&gt;Node13</title>
<path fill="none" stroke="#63b8ff" d="M1570.25,-171.46C1640.76,-164.94 1800.18,-148.3 1816,-129.75 1840,-101.61 1823.96,-55.17 1811.88,-29.37"/>
<polygon fill="#63b8ff" stroke="#63b8ff" points="1814.66,-28.09 1807.08,-20.69 1808.39,-31.21 1814.66,-28.09"/>
</g>
<!-- Node22&#45;&gt;Node16 -->
<g id="edge32" class="edge">
<title>Node22&#45;&gt;Node16</title>
<path fill="none" stroke="#63b8ff" d="M1522.93,-165.34C1481.04,-138.44 1356.9,-58.72 1305.1,-25.46"/>
<polygon fill="#63b8ff" stroke="#63b8ff" points="1307.34,-22.09 1297.03,-19.63 1303.55,-27.98 1307.34,-22.09"/>
</g>
<!-- Node22&#45;&gt;Node17 -->
<g id="edge34" class="edge">
<title>Node22&#45;&gt;Node17</title>
<path fill="none" stroke="#63b8ff" d="M1503.91,-166.48C1423.64,-147.34 1218.45,-98.41 1127.07,-76.62"/>
<polygon fill="#63b8ff" stroke="#63b8ff" points="1128.05,-73.02 1117.51,-74.1 1126.43,-79.83 1128.05,-73.02"/>
</g>
<!-- Node23&#45;&gt;Node13 -->
<g id="edge41" class="edge">
<title>Node23&#45;&gt;Node13</title>
<path fill="none" stroke="#63b8ff" d="M900.67,-165.34C949.29,-142.29 1084.32,-81.31 1204,-55.25 1310.69,-32.02 1644.04,-16.9 1760.97,-12.19"/>
<polygon fill="#63b8ff" stroke="#63b8ff" points="1761.06,-15.65 1770.91,-11.76 1760.78,-8.66 1761.06,-15.65"/>
</g>
<!-- Node23&#45;&gt;Node15 -->
<g id="edge38" class="edge">
<title>Node23&#45;&gt;Node15</title>
<path fill="none" stroke="#63b8ff" d="M828.72,-165.28C771.98,-155.6 682.61,-140.35 625.17,-130.54"/>
<polygon fill="#63b8ff" stroke="#63b8ff" points="625.92,-126.95 615.47,-128.72 624.74,-133.85 625.92,-126.95"/>
</g>
<!-- Node23&#45;&gt;Node17 -->
<g id="edge37" class="edge">
<title>Node23&#45;&gt;Node17</title>
<path fill="none" stroke="#63b8ff" d="M892.24,-165.34C907.76,-151.99 938.55,-126.82 968,-110.5 991.75,-97.34 1020.19,-86.2 1042.72,-78.34"/>
<polygon fill="#63b8ff" stroke="#63b8ff" points="1043.6,-81.4 1051.94,-74.86 1041.35,-74.77 1043.6,-81.4"/>
</g>
<!-- Node24 -->
<g id="node24" class="node">
<title>Node24</title>
<g id="a_node24"><a xlink:href="v8-weak-callback-info_8h.html" target="_top" xlink:title=" ">
<polygon fill="white" stroke="#666666" points="1736,-129.75 1618,-129.75 1618,-110.5 1736,-110.5 1736,-129.75"/>
<text text-anchor="middle" x="1677" y="-116.25" font-family="Helvetica,sans-Serif" font-size="10.00">v8&#45;weak&#45;callback&#45;info.h</text>
</a>
</g>
</g>
<!-- Node23&#45;&gt;Node24 -->
<g id="edge39" class="edge">
<title>Node23&#45;&gt;Node24</title>
<path fill="none" stroke="#63b8ff" d="M937.99,-166.69C941.04,-166.35 944.05,-166.04 947,-165.75 1188.61,-142.36 1476.48,-129.02 1606.76,-123.76"/>
<polygon fill="#63b8ff" stroke="#63b8ff" points="1606.9,-127.22 1616.75,-123.32 1606.62,-120.22 1606.9,-127.22"/>
</g>
<!-- Node24&#45;&gt;Node13 -->
<g id="edge40" class="edge">
<title>Node24&#45;&gt;Node13</title>
<path fill="none" stroke="#63b8ff" d="M1686.89,-110.42C1700.9,-98.09 1727.35,-74.88 1750,-55.25 1761.01,-45.71 1773.39,-35.08 1783.31,-26.59"/>
<polygon fill="#63b8ff" stroke="#63b8ff" points="1785.29,-28.65 1790.62,-19.49 1780.74,-23.33 1785.29,-28.65"/>
</g>
<!-- Node25&#45;&gt;Node13 -->
<g id="edge54" class="edge">
<title>Node25&#45;&gt;Node13</title>
<path fill="none" stroke="#63b8ff" d="M990.32,-275.97C1075.67,-255.38 1279.73,-204.69 1305,-185 1358.63,-143.22 1327.61,-90.06 1386,-55.25 1448.66,-17.89 1669.11,-11.69 1761.15,-10.74"/>
<polygon fill="#63b8ff" stroke="#63b8ff" points="1761.01,-14.24 1770.98,-10.65 1760.95,-7.24 1761.01,-14.24"/>
</g>
<!-- Node25&#45;&gt;Node15 -->
<g id="edge47" class="edge">
<title>Node25&#45;&gt;Node15</title>
<path fill="none" stroke="#63b8ff" d="M915.71,-281.71C851.21,-275.74 721.87,-261.5 682,-240.25 636.46,-215.98 599.13,-166.11 581.3,-139.24"/>
<polygon fill="#63b8ff" stroke="#63b8ff" points="583.81,-137.67 575.45,-131.17 577.93,-141.47 583.81,-137.67"/>
</g>
<!-- Node25&#45;&gt;Node17 -->
<g id="edge46" class="edge">
<title>Node25&#45;&gt;Node17</title>
<path fill="none" stroke="#63b8ff" d="M925.69,-275.8C877.33,-258.18 784.66,-216.6 817,-165.75 864.04,-91.78 974.1,-72.4 1036.58,-67.45"/>
<polygon fill="#63b8ff" stroke="#63b8ff" points="1036.56,-70.89 1046.29,-66.7 1036.07,-63.91 1036.56,-70.89"/>
</g>
<!-- Node25&#45;&gt;Node26 -->
<g id="edge43" class="edge">
<title>Node25&#45;&gt;Node26</title>
<path fill="none" stroke="#63b8ff" d="M948.76,-275.88C943.41,-263.23 935.75,-239.62 943,-221 947.25,-210.09 955.56,-200.23 963.59,-192.57"/>
<polygon fill="#63b8ff" stroke="#63b8ff" points="965.5,-195.67 970.68,-186.43 960.87,-190.42 965.5,-195.67"/>
</g>
<!-- Node25&#45;&gt;Node27 -->
<g id="edge48" class="edge">
<title>Node25&#45;&gt;Node27</title>
<path fill="none" stroke="#63b8ff" d="M957.79,-276.08C961.63,-269.03 967.15,-258.9 971.95,-250.08"/>
<polygon fill="#63b8ff" stroke="#63b8ff" points="975.4,-252.07 977.11,-241.61 969.25,-248.72 975.4,-252.07"/>
</g>
<!-- Node26&#45;&gt;Node13 -->
<g id="edge45" class="edge">
<title>Node26&#45;&gt;Node13</title>
<path fill="none" stroke="#63b8ff" d="M1000.59,-165.36C1043.79,-142.36 1163.94,-81.48 1272,-55.25 1450.35,-11.96 1671.22,-8.99 1761.09,-9.83"/>
<polygon fill="#63b8ff" stroke="#63b8ff" points="1760.85,-13.34 1770.89,-9.95 1760.93,-6.34 1760.85,-13.34"/>
</g>
<!-- Node26&#45;&gt;Node15 -->
<g id="edge44" class="edge">
<title>Node26&#45;&gt;Node15</title>
<path fill="none" stroke="#63b8ff" d="M955.78,-167.46C952.83,-166.83 949.86,-166.25 947,-165.75 833.53,-145.87 699.28,-132.34 625.5,-125.75"/>
<polygon fill="#63b8ff" stroke="#63b8ff" points="625.9,-122.18 615.63,-124.79 625.28,-129.15 625.9,-122.18"/>
</g>
<!-- Node27&#45;&gt;Node13 -->
<g id="edge53" class="edge">
<title>Node27&#45;&gt;Node13</title>
<path fill="none" stroke="#63b8ff" d="M996.27,-220.55C1043.89,-190.79 1202.55,-95.71 1348,-55.25 1496.12,-14.05 1680.65,-9.67 1761.21,-9.96"/>
<polygon fill="#63b8ff" stroke="#63b8ff" points="1760.85,-13.47 1770.87,-10.03 1760.89,-6.47 1760.85,-13.47"/>
</g>
<!-- Node27&#45;&gt;Node15 -->
<g id="edge51" class="edge">
<title>Node27&#45;&gt;Node15</title>
<path fill="none" stroke="#63b8ff" d="M951.38,-225.78C905.94,-219.63 818.25,-206.1 746,-185 723.94,-178.56 719.52,-173.81 698,-165.75 667.72,-154.41 633.08,-142.39 607.48,-133.68"/>
<polygon fill="#63b8ff" stroke="#63b8ff" points="608.69,-130.06 598.1,-130.17 606.45,-136.69 608.69,-130.06"/>
</g>
<!-- Node27&#45;&gt;Node17 -->
<g id="edge50" class="edge">
<title>Node27&#45;&gt;Node17</title>
<path fill="none" stroke="#63b8ff" d="M991.08,-220.6C999.48,-211.95 1011.99,-198.29 1021,-185 1043.51,-151.79 1063.4,-109.19 1073.97,-84.97"/>
<polygon fill="#63b8ff" stroke="#63b8ff" points="1077.54,-86.53 1078.26,-75.96 1071.11,-83.77 1077.54,-86.53"/>
</g>
<!-- Node27&#45;&gt;Node22 -->
<g id="edge52" class="edge">
<title>Node27&#45;&gt;Node22</title>
<path fill="none" stroke="#63b8ff" d="M1012.23,-226.72C1104.76,-217.85 1384.36,-191.02 1493.09,-180.59"/>
<polygon fill="#63b8ff" stroke="#63b8ff" points="1493.35,-183.98 1502.97,-179.54 1492.68,-177.02 1493.35,-183.98"/>
</g>
<!-- Node27&#45;&gt;Node26 -->
<g id="edge49" class="edge">
<title>Node27&#45;&gt;Node26</title>
<path fill="none" stroke="#63b8ff" d="M982.33,-220.83C982.58,-214.17 982.93,-204.74 983.25,-196.28"/>
<polygon fill="#63b8ff" stroke="#63b8ff" points="986.78,-196.48 983.66,-186.36 979.79,-196.22 986.78,-196.48"/>
</g>
<!-- Node28&#45;&gt;Node6 -->
<g id="edge57" class="edge">
<title>Node28&#45;&gt;Node6</title>
<path fill="none" stroke="#63b8ff" d="M1699.5,-275.96C1762.32,-244.04 1976.65,-135.99 2049,-110.5 2187.58,-61.67 2360.27,-28.96 2433.07,-16.39"/>
<polygon fill="#63b8ff" stroke="#63b8ff" points="2433.6,-19.68 2442.87,-14.55 2432.42,-12.78 2433.6,-19.68"/>
</g>
<!-- Node28&#45;&gt;Node8 -->
<g id="edge60" class="edge">
<title>Node28&#45;&gt;Node8</title>
<path fill="none" stroke="#63b8ff" d="M1730.25,-277.66C1784.19,-269.42 1874.08,-255.13 1951,-240.25 1951.95,-240.07 1952.92,-239.88 1953.89,-239.68"/>
<polygon fill="#63b8ff" stroke="#63b8ff" points="1954.37,-242.95 1963.45,-237.48 1952.94,-236.1 1954.37,-242.95"/>
</g>
<!-- Node28&#45;&gt;Node10 -->
<g id="edge56" class="edge">
<title>Node28&#45;&gt;Node10</title>
<path fill="none" stroke="#63b8ff" d="M1633.83,-277.35C1630.84,-276.95 1627.88,-276.58 1625,-276.25 1428.34,-253.43 1372.41,-290.83 1181,-240.25 1105.16,-220.21 1095.48,-190.37 1021,-165.75 752.57,-77.03 412.97,-29.09 302.5,-15.05"/>
<polygon fill="#63b8ff" stroke="#63b8ff" points="303.01,-11.46 292.65,-13.69 302.14,-18.41 303.01,-11.46"/>
</g>
<!-- Node28&#45;&gt;Node11 -->
<g id="edge62" class="edge">
<title>Node28&#45;&gt;Node11</title>
<path fill="none" stroke="#63b8ff" d="M1720.18,-275.83C1751.92,-267.84 1798.04,-255.17 1837,-240.25 1889.58,-220.11 1900.56,-210.01 1951,-185 1985.18,-168.05 2024.35,-148.12 2049.82,-135.08"/>
<polygon fill="#63b8ff" stroke="#63b8ff" points="2051.22,-137.79 2058.52,-130.11 2048.02,-131.56 2051.22,-137.79"/>
</g>
<!-- Node28&#45;&gt;Node13 -->
<g id="edge66" class="edge">
<title>Node28&#45;&gt;Node13</title>
<path fill="none" stroke="#63b8ff" d="M1695.72,-276.04C1726.91,-255.06 1802.84,-198.83 1834,-129.75 1847.63,-99.52 1849.04,-86.52 1838,-55.25 1834.3,-44.77 1826.98,-34.95 1819.91,-27.2"/>
<polygon fill="#63b8ff" stroke="#63b8ff" points="1823.01,-25.35 1813.5,-20.67 1818.02,-30.26 1823.01,-25.35"/>
</g>
<!-- Node28&#45;&gt;Node15 -->
<g id="edge64" class="edge">
<title>Node28&#45;&gt;Node15</title>
<path fill="none" stroke="#63b8ff" d="M1633.84,-277.25C1630.85,-276.88 1627.89,-276.54 1625,-276.25 1323.03,-245.51 1243.68,-281.78 943,-240.25 887.71,-232.61 749.65,-206.15 698,-185 682.99,-178.85 681.28,-173.43 667,-165.75 645.65,-154.27 620.8,-142.87 601.59,-134.47"/>
<polygon fill="#63b8ff" stroke="#63b8ff" points="603.13,-130.89 592.57,-130.13 600.35,-137.31 603.13,-130.89"/>
</g>
<!-- Node28&#45;&gt;Node16 -->
<g id="edge61" class="edge">
<title>Node28&#45;&gt;Node16</title>
<path fill="none" stroke="#63b8ff" d="M1675.91,-275.86C1661.21,-254.61 1621.86,-200.58 1579,-165.75 1494.85,-97.37 1375.78,-46.33 1317.26,-23.63"/>
<polygon fill="#63b8ff" stroke="#63b8ff" points="1318.65,-20.03 1308.06,-19.72 1316.15,-26.56 1318.65,-20.03"/>
</g>
<!-- Node28&#45;&gt;Node17 -->
<g id="edge63" class="edge">
<title>Node28&#45;&gt;Node17</title>
<path fill="none" stroke="#63b8ff" d="M1633.83,-277.37C1630.84,-276.97 1627.88,-276.59 1625,-276.25 1533.3,-265.34 1291,-286.37 1211,-240.25 1149.98,-205.07 1163.1,-166.21 1120,-110.5 1112.77,-101.16 1104.29,-91.12 1097.18,-82.93"/>
<polygon fill="#63b8ff" stroke="#63b8ff" points="1099.35,-81.1 1090.12,-75.9 1094.09,-85.72 1099.35,-81.1"/>
</g>
<!-- Node28&#45;&gt;Node19 -->
<g id="edge59" class="edge">
<title>Node28&#45;&gt;Node19</title>
<path fill="none" stroke="#63b8ff" d="M1674.98,-275.75C1644.69,-236.38 1524.88,-80.65 1484.42,-28.07"/>
<polygon fill="#63b8ff" stroke="#63b8ff" points="1486.71,-26.3 1477.83,-20.51 1481.16,-30.57 1486.71,-26.3"/>
</g>
<!-- Node28&#45;&gt;Node24 -->
<g id="edge65" class="edge">
<title>Node28&#45;&gt;Node24</title>
<path fill="none" stroke="#63b8ff" d="M1683.5,-275.87C1686.59,-255.95 1692.97,-206.66 1688,-165.75 1686.99,-157.44 1684.96,-148.44 1682.92,-140.72"/>
<polygon fill="#63b8ff" stroke="#63b8ff" points="1686.04,-139.9 1679.93,-131.23 1679.3,-141.81 1686.04,-139.9"/>
</g>
<!-- Node29 -->
<g id="node29" class="node">
<title>Node29</title>
<g id="a_node29"><a xlink:title=" ">
<polygon fill="#e0e0e0" stroke="#999999" points="1578.25,-240.25 1533.75,-240.25 1533.75,-221 1578.25,-221 1578.25,-240.25"/>
<text text-anchor="middle" x="1556" y="-226.75" font-family="Helvetica,sans-Serif" font-size="10.00">stdio.h</text>
</a>
</g>
</g>
<!-- Node28&#45;&gt;Node29 -->
<g id="edge58" class="edge">
<title>Node28&#45;&gt;Node29</title>
<path fill="none" stroke="#63b8ff" d="M1660.63,-275.84C1640.53,-267.35 1610.22,-254.54 1587.38,-244.89"/>
<polygon fill="#63b8ff" stroke="#63b8ff" points="1589.05,-241.37 1578.48,-240.7 1586.33,-247.82 1589.05,-241.37"/>
</g>
<!-- Node30&#45;&gt;Node10 -->
<g id="edge71" class="edge">
<title>Node30&#45;&gt;Node10</title>
<path fill="none" stroke="#63b8ff" d="M326.44,-443.57C239.2,-425.49 38,-368.91 38,-231.62 38,-231.62 38,-231.62 38,-119.12 38,-35.38 164.96,-16.2 229.4,-11.86"/>
<polygon fill="#63b8ff" stroke="#63b8ff" points="229.51,-15.3 239.29,-11.23 229.1,-8.32 229.51,-15.3"/>
</g>
<!-- Node30&#45;&gt;Node12 -->
<g id="edge73" class="edge">
<title>Node30&#45;&gt;Node12</title>
<path fill="none" stroke="#63b8ff" d="M405.36,-449.46C638.5,-442.58 1837.76,-407.18 2113.45,-399.04"/>
<polygon fill="#63b8ff" stroke="#63b8ff" points="2113.49,-402.52 2123.38,-398.72 2113.28,-395.52 2113.49,-402.52"/>
</g>
<!-- Node30&#45;&gt;Node13 -->
<g id="edge80" class="edge">
<title>Node30&#45;&gt;Node13</title>
<path fill="none" stroke="#63b8ff" d="M405.47,-441.69C502.33,-420.02 759.77,-364.08 977,-331.5 1127.71,-308.9 1180.76,-361.75 1318,-295.5 1452.79,-230.43 1421.67,-125.19 1554,-55.25 1620.52,-20.09 1709.6,-12.03 1760.9,-10.53"/>
<polygon fill="#63b8ff" stroke="#63b8ff" points="1760.94,-14.01 1770.86,-10.29 1760.79,-7.01 1760.94,-14.01"/>
</g>
<!-- Node30&#45;&gt;Node15 -->
<g id="edge75" class="edge">
<title>Node30&#45;&gt;Node15</title>
<path fill="none" stroke="#63b8ff" d="M355.81,-441.7C338.31,-425.61 303.16,-389.77 290,-350.75 263.18,-271.21 261.52,-216.99 328,-165.75 356.49,-143.79 452.2,-131.41 514.38,-125.51"/>
<polygon fill="#63b8ff" stroke="#63b8ff" points="514.56,-128.92 524.2,-124.52 513.92,-121.95 514.56,-128.92"/>
</g>
<!-- Node30&#45;&gt;Node26 -->
<g id="edge74" class="edge">
<title>Node30&#45;&gt;Node26</title>
<path fill="none" stroke="#63b8ff" d="M366.11,-441.67C366.9,-419.61 372.06,-362.18 404,-331.5 534.54,-206.1 620.79,-266.47 796,-221 810.33,-217.28 894.31,-197.47 945.05,-185.53"/>
<polygon fill="#63b8ff" stroke="#63b8ff" points="945.71,-188.73 954.65,-183.04 944.11,-181.92 945.71,-188.73"/>
</g>
<!-- Node31 -->
<g id="node31" class="node">
<title>Node31</title>
<g id="a_node31"><a xlink:title=" ">
<polygon fill="#e0e0e0" stroke="#999999" points="296,-406 256,-406 256,-386.75 296,-386.75 296,-406"/>
<text text-anchor="middle" x="276" y="-392.5" font-family="Helvetica,sans-Serif" font-size="10.00">string</text>
</a>
</g>
</g>
<!-- Node30&#45;&gt;Node31 -->
<g id="edge72" class="edge">
<title>Node30&#45;&gt;Node31</title>
<path fill="none" stroke="#63b8ff" d="M350.73,-441.59C337.03,-433.48 316.66,-421.43 300.65,-411.96"/>
<polygon fill="#63b8ff" stroke="#63b8ff" points="302.73,-408.53 292.34,-406.45 299.17,-414.56 302.73,-408.53"/>
</g>
<!-- Node32 -->
<g id="node32" class="node">
<title>Node32</title>
<g id="a_node32"><a xlink:href="v8-promise_8h.html" target="_top" xlink:title=" ">
<polygon fill="white" stroke="#666666" points="1055.75,-406 984.25,-406 984.25,-386.75 1055.75,-386.75 1055.75,-406"/>
<text text-anchor="middle" x="1020" y="-392.5" font-family="Helvetica,sans-Serif" font-size="10.00">v8&#45;promise.h</text>
</a>
</g>
</g>
<!-- Node30&#45;&gt;Node32 -->
<g id="edge76" class="edge">
<title>Node30&#45;&gt;Node32</title>
<path fill="none" stroke="#63b8ff" d="M405.44,-447.41C519.52,-438.12 849.59,-411.25 972.84,-401.21"/>
<polygon fill="#63b8ff" stroke="#63b8ff" points="973.08,-404.63 982.77,-400.33 972.51,-397.65 973.08,-404.63"/>
</g>
<!-- Node32&#45;&gt;Node13 -->
<g id="edge79" class="edge">
<title>Node32&#45;&gt;Node13</title>
<path fill="none" stroke="#63b8ff" d="M1056.17,-391.69C1129.65,-383.11 1300.31,-357.62 1429,-295.5 1477.64,-272.02 1481.17,-252.55 1525,-221 1548.41,-204.15 1560.8,-207.38 1579,-185 1601.52,-157.31 1584.98,-136.91 1609,-110.5 1650.65,-64.7 1718.21,-36.58 1761.34,-22.29"/>
<polygon fill="#63b8ff" stroke="#63b8ff" points="1762.3,-25.34 1770.75,-18.95 1760.16,-18.67 1762.3,-25.34"/>
</g>
<!-- Node32&#45;&gt;Node15 -->
<g id="edge77" class="edge">
<title>Node32&#45;&gt;Node15</title>
<path fill="none" stroke="#63b8ff" d="M983.97,-395.02C883.51,-393.58 602.2,-386.39 518,-350.75 429.06,-313.1 345.24,-242.4 404,-165.75 417.56,-148.07 471.79,-135.83 514.63,-128.7"/>
<polygon fill="#63b8ff" stroke="#63b8ff" points="514.92,-132.04 524.24,-127 513.81,-125.13 514.92,-132.04"/>
</g>
<!-- Node32&#45;&gt;Node21 -->
<g id="edge78" class="edge">
<title>Node32&#45;&gt;Node21</title>
<path fill="none" stroke="#63b8ff" d="M1019.67,-386.58C1019.42,-379.92 1019.07,-370.49 1018.75,-362.03"/>
<polygon fill="#63b8ff" stroke="#63b8ff" points="1022.21,-361.97 1018.34,-352.11 1015.22,-362.23 1022.21,-361.97"/>
</g>
<!-- Node33&#45;&gt;Node6 -->
<g id="edge83" class="edge">
<title>Node33&#45;&gt;Node6</title>
<path fill="none" stroke="#63b8ff" d="M2423.86,-443.15C2468.44,-430.58 2544,-400.65 2544,-342.12 2544,-342.12 2544,-342.12 2544,-119.12 2544,-88.8 2537.39,-80.1 2520,-55.25 2512.17,-44.06 2500.9,-33.92 2490.85,-26.16"/>
<polygon fill="#63b8ff" stroke="#63b8ff" points="2493.23,-22.83 2483.1,-19.72 2489.08,-28.47 2493.23,-22.83"/>
</g>
<!-- Node33&#45;&gt;Node13 -->
<g id="edge100" class="edge">
<title>Node33&#45;&gt;Node13</title>
<path fill="none" stroke="#63b8ff" d="M2394.73,-441.54C2403.45,-411.76 2430,-314.21 2430,-231.62 2430,-231.62 2430,-231.62 2430,-174.38 2430,-100.48 2380.8,-86.85 2314,-55.25 2230.83,-15.9 1949.38,-10.99 1843.09,-10.57"/>
<polygon fill="#63b8ff" stroke="#63b8ff" points="1843.2,-7.07 1833.19,-10.54 1843.18,-14.07 1843.2,-7.07"/>
</g>
<!-- Node34 -->
<g id="node34" class="node">
<title>Node34</title>
<g id="a_node34"><a xlink:href="v8-script_8h.html" target="_top" xlink:title=" ">
<polygon fill="white" stroke="#666666" points="1863.5,-406 1802.5,-406 1802.5,-386.75 1863.5,-386.75 1863.5,-406"/>
<text text-anchor="middle" x="1833" y="-392.5" font-family="Helvetica,sans-Serif" font-size="10.00">v8&#45;script.h</text>
</a>
</g>
</g>
<!-- Node33&#45;&gt;Node34 -->
<g id="edge84" class="edge">
<title>Node33&#45;&gt;Node34</title>
<path fill="none" stroke="#63b8ff" d="M2359.94,-447.57C2264.37,-438.47 1981.5,-411.52 1874.57,-401.34"/>
<polygon fill="#63b8ff" stroke="#63b8ff" points="1875.18,-397.78 1864.9,-400.32 1874.52,-404.75 1875.18,-397.78"/>
</g>
<!-- Node34&#45;&gt;Node6 -->
<g id="edge86" class="edge">
<title>Node34&#45;&gt;Node6</title>
<path fill="none" stroke="#63b8ff" d="M1863.75,-395.33C1947.64,-394.7 2178.46,-389.4 2242,-350.75 2370.9,-272.34 2441.67,-89.25 2461.88,-29.7"/>
<polygon fill="#63b8ff" stroke="#63b8ff" points="2465.43,-31.1 2465.25,-20.51 2458.79,-28.91 2465.43,-31.1"/>
</g>
<!-- Node34&#45;&gt;Node8 -->
<g id="edge87" class="edge">
<title>Node34&#45;&gt;Node8</title>
<path fill="none" stroke="#63b8ff" d="M1830.64,-386.44C1827.73,-373.43 1824.28,-348.94 1834,-331.5 1837.74,-324.79 1922.84,-272.44 1965.74,-246.33"/>
<polygon fill="#63b8ff" stroke="#63b8ff" points="1967.2,-248.92 1973.93,-240.74 1963.57,-242.94 1967.2,-248.92"/>
</g>
<!-- Node34&#45;&gt;Node10 -->
<g id="edge85" class="edge">
<title>Node34&#45;&gt;Node10</title>
<path fill="none" stroke="#63b8ff" d="M1802.11,-394.54C1612.95,-389.42 618.21,-361.96 589,-350.75 425.48,-288 308.72,-90.6 275.58,-29.1"/>
<polygon fill="#63b8ff" stroke="#63b8ff" points="278.3,-27.75 270.53,-20.55 272.11,-31.03 278.3,-27.75"/>
</g>
<!-- Node34&#45;&gt;Node13 -->
<g id="edge99" class="edge">
<title>Node34&#45;&gt;Node13</title>
<path fill="none" stroke="#63b8ff" d="M1863.98,-394.01C1951.53,-389.87 2196.08,-376.11 2221,-350.75 2275.58,-295.21 2238,-254.24 2238,-176.38 2238,-176.38 2238,-176.38 2238,-119.12 2238,-38.14 1951.14,-17.15 1842.78,-12.11"/>
<polygon fill="#63b8ff" stroke="#63b8ff" points="1843.11,-8.57 1832.97,-11.63 1842.8,-15.57 1843.11,-8.57"/>
</g>
<!-- Node34&#45;&gt;Node15 -->
<g id="edge90" class="edge">
<title>Node34&#45;&gt;Node15</title>
<path fill="none" stroke="#63b8ff" d="M1802.21,-394.85C1690.85,-392.73 1298.66,-383.27 977,-350.75 894.94,-342.45 683.92,-332.09 610,-295.5 578.38,-279.85 567.63,-272.35 553,-240.25 539.26,-210.1 543.07,-198.16 550,-165.75 551.93,-156.73 555.82,-147.33 559.66,-139.5"/>
<polygon fill="#63b8ff" stroke="#63b8ff" points="563.12,-141.45 564.68,-130.97 556.93,-138.19 563.12,-141.45"/>
</g>
<!-- Node34&#45;&gt;Node22 -->
<g id="edge91" class="edge">
<title>Node34&#45;&gt;Node22</title>
<path fill="none" stroke="#63b8ff" d="M1836.06,-386.58C1841.03,-373.32 1851.96,-348 1868,-331.5 1927.23,-270.59 2081.27,-283.76 2024,-221 1994.4,-188.57 1694.65,-179.41 1580.67,-177.09"/>
<polygon fill="#63b8ff" stroke="#63b8ff" points="1580.98,-173.58 1570.92,-176.88 1580.85,-180.58 1580.98,-173.58"/>
</g>
<!-- Node34&#45;&gt;Node26 -->
<g id="edge89" class="edge">
<title>Node34&#45;&gt;Node26</title>
<path fill="none" stroke="#63b8ff" d="M1802.08,-392.95C1684.69,-383.42 1267.06,-346.58 1145,-295.5 1085.67,-270.67 1028.02,-219.53 1000.6,-193.06"/>
<polygon fill="#63b8ff" stroke="#63b8ff" points="1003.38,-190.91 993.79,-186.4 998.48,-195.9 1003.38,-190.91"/>
</g>
<!-- Node35 -->
<g id="node35" class="node">
<title>Node35</title>
<g id="a_node35"><a xlink:title=" ">
<polygon fill="#e0e0e0" stroke="#999999" points="1919.5,-350.75 1876.5,-350.75 1876.5,-331.5 1919.5,-331.5 1919.5,-350.75"/>
<text text-anchor="middle" x="1898" y="-337.25" font-family="Helvetica,sans-Serif" font-size="10.00">vector</text>
</a>
</g>
</g>
<!-- Node34&#45;&gt;Node35 -->
<g id="edge88" class="edge">
<title>Node34&#45;&gt;Node35</title>
<path fill="none" stroke="#63b8ff" d="M1844.03,-386.34C1853.51,-378.57 1867.42,-367.17 1878.75,-357.9"/>
<polygon fill="#63b8ff" stroke="#63b8ff" points="1880.62,-360.07 1886.14,-351.02 1876.18,-354.65 1880.62,-360.07"/>
</g>
<!-- Node36 -->
<g id="node36" class="node">
<title>Node36</title>
<g id="a_node36"><a xlink:href="v8-message_8h.html" target="_top" xlink:title=" ">
<polygon fill="white" stroke="#666666" points="1582.38,-350.75 1505.62,-350.75 1505.62,-331.5 1582.38,-331.5 1582.38,-350.75"/>
<text text-anchor="middle" x="1544" y="-337.25" font-family="Helvetica,sans-Serif" font-size="10.00">v8&#45;message.h</text>
</a>
</g>
</g>
<!-- Node34&#45;&gt;Node36 -->
<g id="edge92" class="edge">
<title>Node34&#45;&gt;Node36</title>
<path fill="none" stroke="#63b8ff" d="M1802.07,-389.68C1752.04,-380.46 1652.93,-362.2 1593.14,-351.18"/>
<polygon fill="#63b8ff" stroke="#63b8ff" points="1593.93,-347.58 1583.46,-349.21 1592.66,-354.47 1593.93,-347.58"/>
</g>
<!-- Node36&#45;&gt;Node13 -->
<g id="edge98" class="edge">
<title>Node36&#45;&gt;Node13</title>
<path fill="none" stroke="#63b8ff" d="M1582.63,-339.13C1624.36,-336.36 1691.26,-326.89 1739,-295.5 1813.29,-246.66 1826.19,-215.13 1851,-129.75 1860.25,-97.93 1867.84,-85.36 1854,-55.25 1848.49,-43.25 1837.97,-33.27 1827.84,-25.81"/>
<polygon fill="#63b8ff" stroke="#63b8ff" points="1830.03,-22.39 1819.79,-19.68 1826.11,-28.18 1830.03,-22.39"/>
</g>
<!-- Node36&#45;&gt;Node15 -->
<g id="edge95" class="edge">
<title>Node36&#45;&gt;Node15</title>
<path fill="none" stroke="#63b8ff" d="M1505.2,-339.68C1353.58,-337.35 802.09,-323.24 652,-240.25 621.95,-223.63 617.2,-213.46 598,-185 588.57,-171.03 581.12,-153.36 576.28,-140.15"/>
<polygon fill="#63b8ff" stroke="#63b8ff" points="579.3,-139.19 572.72,-130.89 572.69,-141.49 579.3,-139.19"/>
</g>
<!-- Node36&#45;&gt;Node22 -->
<g id="edge96" class="edge">
<title>Node36&#45;&gt;Node22</title>
<path fill="none" stroke="#63b8ff" d="M1540.78,-331.18C1534.05,-311.38 1519.54,-262.32 1525,-221 1526.1,-212.66 1528.32,-203.65 1530.55,-195.94"/>
<polygon fill="#63b8ff" stroke="#63b8ff" points="1534.18,-197.05 1533.8,-186.46 1527.49,-194.97 1534.18,-197.05"/>
</g>
<!-- Node36&#45;&gt;Node25 -->
<g id="edge97" class="edge">
<title>Node36&#45;&gt;Node25</title>
<path fill="none" stroke="#63b8ff" d="M1505.22,-336.63C1400.97,-327.24 1114.84,-301.46 1000.82,-291.18"/>
<polygon fill="#63b8ff" stroke="#63b8ff" points="1001.29,-287.62 991.01,-290.21 1000.66,-294.59 1001.29,-287.62"/>
</g>
<!-- Node36&#45;&gt;Node29 -->
<g id="edge93" class="edge">
<title>Node36&#45;&gt;Node29</title>
<path fill="none" stroke="#63b8ff" d="M1544.98,-331.25C1546.9,-313.92 1551.18,-275.23 1553.8,-251.49"/>
<polygon fill="#63b8ff" stroke="#63b8ff" points="1557.38,-251.95 1555,-241.63 1550.43,-251.18 1557.38,-251.95"/>
</g>
<!-- Node37 -->
<g id="node37" class="node">
<title>Node37</title>
<g id="a_node37"><a xlink:title=" ">
<polygon fill="#e0e0e0" stroke="#999999" points="1616.25,-295.5 1571.75,-295.5 1571.75,-276.25 1616.25,-276.25 1616.25,-295.5"/>
<text text-anchor="middle" x="1594" y="-282" font-family="Helvetica,sans-Serif" font-size="10.00">iosfwd</text>
</a>
</g>
</g>
<!-- Node36&#45;&gt;Node37 -->
<g id="edge94" class="edge">
<title>Node36&#45;&gt;Node37</title>
<path fill="none" stroke="#63b8ff" d="M1552.26,-331.33C1559.31,-323.82 1569.65,-312.81 1578.27,-303.63"/>
<polygon fill="#63b8ff" stroke="#63b8ff" points="1580.27,-306.55 1584.56,-296.86 1575.17,-301.75 1580.27,-306.55"/>
</g>
<!-- Node38&#45;&gt;Node13 -->
<g id="edge103" class="edge">
<title>Node38&#45;&gt;Node13</title>
<path fill="none" stroke="#63b8ff" d="M2160.28,-331.12C2160.83,-312.53 2162,-268.55 2162,-231.62 2162,-231.62 2162,-231.62 2162,-119.12 2162,-53.1 1937.24,-23.68 1842.91,-14.23"/>
<polygon fill="#63b8ff" stroke="#63b8ff" points="1843.37,-10.66 1833.07,-13.18 1842.69,-17.63 1843.37,-10.66"/>
</g>
<!-- Node38&#45;&gt;Node28 -->
<g id="edge102" class="edge">
<title>Node38&#45;&gt;Node28</title>
<path fill="none" stroke="#63b8ff" d="M2107.94,-334.32C2018.21,-324.33 1835.03,-303.92 1740.83,-293.43"/>
<polygon fill="#63b8ff" stroke="#63b8ff" points="1741.4,-289.86 1731.07,-292.23 1740.62,-296.82 1741.4,-289.86"/>
</g>
<!-- Node39&#45;&gt;Node13 -->
<g id="edge107" class="edge">
<title>Node39&#45;&gt;Node13</title>
<path fill="none" stroke="#63b8ff" d="M708.65,-337.01C862.81,-328.29 1284.88,-303.72 1297,-295.5 1315.88,-282.7 1374.56,-130.23 1386,-110.5 1400.95,-84.72 1398.48,-70.65 1424,-55.25 1479.98,-21.47 1675.24,-13.25 1761.03,-11.26"/>
<polygon fill="#63b8ff" stroke="#63b8ff" points="1760.98,-14.74 1770.91,-11.03 1760.83,-7.74 1760.98,-14.74"/>
</g>
<!-- Node39&#45;&gt;Node15 -->
<g id="edge105" class="edge">
<title>Node39&#45;&gt;Node15</title>
<path fill="none" stroke="#63b8ff" d="M624.61,-331.05C587.5,-317.6 523.54,-288.6 492,-240.25 473.68,-212.16 462.32,-194.25 480,-165.75 489.29,-150.78 505.26,-140.67 521.2,-133.92"/>
<polygon fill="#63b8ff" stroke="#63b8ff" points="521.97,-136.99 530.06,-130.14 519.47,-130.46 521.97,-136.99"/>
</g>
<!-- Node39&#45;&gt;Node25 -->
<g id="edge106" class="edge">
<title>Node39&#45;&gt;Node25</title>
<path fill="none" stroke="#63b8ff" d="M704.23,-331.03C760.55,-321.03 850.32,-305.1 905.23,-295.35"/>
<polygon fill="#63b8ff" stroke="#63b8ff" points="905.49,-298.68 914.73,-293.49 904.27,-291.79 905.49,-298.68"/>
</g>
<!-- Node41&#45;&gt;Node6 -->
<g id="edge115" class="edge">
<title>Node41&#45;&gt;Node6</title>
<path fill="none" stroke="#63b8ff" d="M1810.72,-449.91C1910.29,-447.63 2173.01,-438.6 2253,-406 2366.94,-359.57 2468,-354.66 2468,-231.62 2468,-231.62 2468,-231.62 2468,-174.38 2468,-122.4 2468,-61.15 2468,-30.38"/>
<polygon fill="#63b8ff" stroke="#63b8ff" points="2471.5,-30.5 2468,-20.5 2464.5,-30.5 2471.5,-30.5"/>
</g>
<!-- Node41&#45;&gt;Node8 -->
<g id="edge116" class="edge">
<title>Node41&#45;&gt;Node8</title>
<path fill="none" stroke="#63b8ff" d="M1774.19,-441.73C1779.68,-420.74 1795.69,-367.22 1824,-331.5 1846.93,-302.57 1854.86,-296.06 1886,-276.25 1907.32,-262.69 1933.46,-251.49 1954.2,-243.71"/>
<polygon fill="#63b8ff" stroke="#63b8ff" points="1955.3,-246.66 1963.5,-239.95 1952.9,-240.09 1955.3,-246.66"/>
</g>
<!-- Node41&#45;&gt;Node10 -->
<g id="edge114" class="edge">
<title>Node41&#45;&gt;Node10</title>
<path fill="none" stroke="#63b8ff" d="M1733.21,-450.5C1557.54,-449.7 835.54,-444.14 613,-406 462.47,-380.2 406.75,-360.02 312,-240.25 264.01,-179.6 261.1,-151.81 259,-74.5 258.77,-65.95 258.34,-63.78 259,-55.25 259.65,-46.94 260.96,-37.84 262.28,-30.04"/>
<polygon fill="#63b8ff" stroke="#63b8ff" points="265.86,-30.93 264.2,-20.47 258.97,-29.68 265.86,-30.93"/>
</g>
<!-- Node41&#45;&gt;Node11 -->
<g id="edge117" class="edge">
<title>Node41&#45;&gt;Node11</title>
<path fill="none" stroke="#63b8ff" d="M1810.76,-449.93C1874.58,-446.47 2000.7,-429.44 2061,-350.75 2109.43,-287.54 2092.16,-183.61 2082.13,-140.65"/>
<polygon fill="#63b8ff" stroke="#63b8ff" points="2085.35,-140.1 2079.55,-131.23 2078.55,-141.78 2085.35,-140.1"/>
</g>
<!-- Node41&#45;&gt;Node13 -->
<g id="edge121" class="edge">
<title>Node41&#45;&gt;Node13</title>
<path fill="none" stroke="#63b8ff" d="M1810.66,-450.78C1906.78,-450.56 2153.88,-445.99 2224,-406 2325.87,-347.9 2354,-293.65 2354,-176.38 2354,-176.38 2354,-176.38 2354,-119.12 2354,-14.96 1970.74,-9.05 1842.93,-9.98"/>
<polygon fill="#63b8ff" stroke="#63b8ff" points="1843.04,-6.49 1833.07,-10.08 1843.1,-13.49 1843.04,-6.49"/>
</g>
<!-- Node41&#45;&gt;Node15 -->
<g id="edge119" class="edge">
<title>Node41&#45;&gt;Node15</title>
<path fill="none" stroke="#63b8ff" d="M1733.14,-450.78C1543.26,-451.09 712.52,-446.81 476,-350.75 391.82,-316.56 327.97,-233.07 389,-165.75 405.74,-147.29 467.84,-134.89 514.67,-127.94"/>
<polygon fill="#63b8ff" stroke="#63b8ff" points="514.9,-131.3 524.31,-126.41 513.91,-124.37 514.9,-131.3"/>
</g>
<!-- Node41&#45;&gt;Node32 -->
<g id="edge120" class="edge">
<title>Node41&#45;&gt;Node32</title>
<path fill="none" stroke="#63b8ff" d="M1733.15,-447.87C1606.21,-438.89 1203.93,-410.4 1066.53,-400.67"/>
<polygon fill="#63b8ff" stroke="#63b8ff" points="1067.18,-397.14 1056.96,-399.92 1066.69,-404.12 1067.18,-397.14"/>
</g>
<!-- Node41&#45;&gt;Node35 -->
<g id="edge118" class="edge">
<title>Node41&#45;&gt;Node35</title>
<path fill="none" stroke="#63b8ff" d="M1809.77,-441.6C1830.78,-434.88 1856.03,-423.72 1873,-406 1884.71,-393.77 1891.13,-375.42 1894.52,-361.52"/>
<polygon fill="#63b8ff" stroke="#63b8ff" points="1898.07,-362.63 1896.7,-352.13 1891.22,-361.19 1898.07,-362.63"/>
</g>
<!-- Node42&#45;&gt;Node8 -->
<g id="edge123" class="edge">
<title>Node42&#45;&gt;Node8</title>
<path fill="none" stroke="#63b8ff" d="M2012.02,-331.03C2009.32,-318.63 2004.32,-295.76 2000,-276.25 1998.17,-268.01 1996.14,-258.93 1994.39,-251.12"/>
<polygon fill="#63b8ff" stroke="#63b8ff" points="1997.61,-250.5 1992,-241.51 1990.78,-252.04 1997.61,-250.5"/>
</g>
<!-- Node42&#45;&gt;Node13 -->
<g id="edge138" class="edge">
<title>Node42&#45;&gt;Node13</title>
<path fill="none" stroke="#63b8ff" d="M2023.32,-331.13C2055.48,-298.99 2157.06,-187.63 2105,-110.5 2046.88,-24.39 1911.28,-10.85 1842.93,-9.76"/>
<polygon fill="#63b8ff" stroke="#63b8ff" points="1843.19,-6.26 1833.16,-9.68 1843.14,-13.25 1843.19,-6.26"/>
</g>
<!-- Node43 -->
<g id="node43" class="node">
<title>Node43</title>
<g id="a_node43"><a xlink:href="v8-embedder-state-scope_8h.html" target="_top" xlink:title=" ">
<polygon fill="white" stroke="#666666" points="1287.88,-295.5 1154.12,-295.5 1154.12,-276.25 1287.88,-276.25 1287.88,-295.5"/>
<text text-anchor="middle" x="1221" y="-282" font-family="Helvetica,sans-Serif" font-size="10.00">v8&#45;embedder&#45;state&#45;scope.h</text>
</a>
</g>
</g>
<!-- Node42&#45;&gt;Node43 -->
<g id="edge124" class="edge">
<title>Node42&#45;&gt;Node43</title>
<path fill="none" stroke="#63b8ff" d="M1975.52,-335.91C1960.96,-334.39 1944.23,-332.75 1929,-331.5 1700.07,-312.68 1428.92,-297.6 1298.58,-290.79"/>
<polygon fill="#63b8ff" stroke="#63b8ff" points="1299.1,-287.26 1288.93,-290.24 1298.73,-294.25 1299.1,-287.26"/>
</g>
<!-- Node43&#45;&gt;Node8 -->
<g id="edge125" class="edge">
<title>Node43&#45;&gt;Node8</title>
<path fill="none" stroke="#63b8ff" d="M1288.23,-280.22C1445.47,-269.33 1832.97,-242.5 1953.57,-234.15"/>
<polygon fill="#63b8ff" stroke="#63b8ff" points="1953.66,-237.58 1963.39,-233.4 1953.17,-230.6 1953.66,-237.58"/>
</g>
<!-- Node43&#45;&gt;Node15 -->
<g id="edge137" class="edge">
<title>Node43&#45;&gt;Node15</title>
<path fill="none" stroke="#63b8ff" d="M1154,-282.86C1047.2,-277.47 833.72,-257.66 670,-185 640.55,-171.93 609.76,-150.99 590.26,-136.67"/>
<polygon fill="#63b8ff" stroke="#63b8ff" points="592.75,-133.42 582.65,-130.24 588.56,-139.03 592.75,-133.42"/>
</g>
<!-- Node43&#45;&gt;Node17 -->
<g id="edge136" class="edge">
<title>Node43&#45;&gt;Node17</title>
<path fill="none" stroke="#63b8ff" d="M1211,-275.95C1201.75,-267.38 1187.96,-253.76 1178,-240.25 1139.14,-187.51 1105.19,-117.26 1090.19,-84.35"/>
<polygon fill="#63b8ff" stroke="#63b8ff" points="1093.14,-83.39 1085.85,-75.7 1086.76,-86.26 1093.14,-83.39"/>
</g>
<!-- Node44 -->
<g id="node44" class="node">
<title>Node44</title>
<g id="a_node44"><a xlink:href="v8-context_8h.html" target="_top" xlink:title=" ">
<polygon fill="white" stroke="#666666" points="1288.25,-240.25 1219.75,-240.25 1219.75,-221 1288.25,-221 1288.25,-240.25"/>
<text text-anchor="middle" x="1254" y="-226.75" font-family="Helvetica,sans-Serif" font-size="10.00">v8&#45;context.h</text>
</a>
</g>
</g>
<!-- Node43&#45;&gt;Node44 -->
<g id="edge126" class="edge">
<title>Node43&#45;&gt;Node44</title>
<path fill="none" stroke="#63b8ff" d="M1226.45,-276.08C1230.87,-268.96 1237.24,-258.68 1242.74,-249.8"/>
<polygon fill="#63b8ff" stroke="#63b8ff" points="1246.14,-251.95 1248.43,-241.61 1240.19,-248.27 1246.14,-251.95"/>
</g>
<!-- Node44&#45;&gt;Node6 -->
<g id="edge127" class="edge">
<title>Node44&#45;&gt;Node6</title>
<path fill="none" stroke="#63b8ff" d="M1288.29,-225.8C1347.71,-218.97 1473.56,-203.63 1579,-185 1693.19,-164.82 1722.24,-160.67 1834,-129.75 1933.49,-102.22 1953.19,-77.47 2054,-55.25 2192.38,-24.75 2361.56,-14.79 2433.25,-11.8"/>
<polygon fill="#63b8ff" stroke="#63b8ff" points="2433.05,-15.27 2442.9,-11.38 2432.77,-8.28 2433.05,-15.27"/>
</g>
<!-- Node44&#45;&gt;Node13 -->
<g id="edge135" class="edge">
<title>Node44&#45;&gt;Node13</title>
<path fill="none" stroke="#63b8ff" d="M1283.4,-220.54C1328.52,-206.89 1417.72,-181.06 1495,-165.75 1554.59,-153.94 1718.08,-167.09 1766,-129.75 1796.3,-106.14 1801.88,-57.88 1802.46,-30.58"/>
<polygon fill="#63b8ff" stroke="#63b8ff" points="1805.96,-30.68 1802.44,-20.68 1798.96,-30.69 1805.96,-30.68"/>
</g>
<!-- Node44&#45;&gt;Node15 -->
<g id="edge129" class="edge">
<title>Node44&#45;&gt;Node15</title>
<path fill="none" stroke="#63b8ff" d="M1219.48,-227.88C1145.31,-223.74 965.44,-211.62 817,-185 797.07,-181.43 679.64,-150.38 614.12,-132.92"/>
<polygon fill="#63b8ff" stroke="#63b8ff" points="615.26,-129.34 604.69,-130.14 613.45,-136.1 615.26,-129.34"/>
</g>
<!-- Node44&#45;&gt;Node22 -->
<g id="edge130" class="edge">
<title>Node44&#45;&gt;Node22</title>
<path fill="none" stroke="#63b8ff" d="M1288.7,-223.1C1340.18,-213.41 1436.73,-195.24 1493.07,-184.64"/>
<polygon fill="#63b8ff" stroke="#63b8ff" points="1493.59,-187.92 1502.77,-182.63 1492.3,-181.04 1493.59,-187.92"/>
</g>
<!-- Node44&#45;&gt;Node26 -->
<g id="edge128" class="edge">
<title>Node44&#45;&gt;Node26</title>
<path fill="none" stroke="#63b8ff" d="M1219.25,-222.77C1168.73,-212.81 1075.27,-194.38 1022.64,-184"/>
<polygon fill="#63b8ff" stroke="#63b8ff" points="1023.54,-180.41 1013.06,-181.91 1022.19,-187.28 1023.54,-180.41"/>
</g>
<!-- Node45 -->
<g id="node45" class="node">
<title>Node45</title>
<g id="a_node45"><a xlink:href="v8-snapshot_8h.html" target="_top" xlink:title=" ">
<polygon fill="white" stroke="#666666" points="1296.38,-185 1219.62,-185 1219.62,-165.75 1296.38,-165.75 1296.38,-185"/>
<text text-anchor="middle" x="1258" y="-171.5" font-family="Helvetica,sans-Serif" font-size="10.00">v8&#45;snapshot.h</text>
</a>
</g>
</g>
<!-- Node44&#45;&gt;Node45 -->
<g id="edge131" class="edge">
<title>Node44&#45;&gt;Node45</title>
<path fill="none" stroke="#63b8ff" d="M1254.66,-220.83C1255.16,-214.17 1255.87,-204.74 1256.5,-196.28"/>
<polygon fill="#63b8ff" stroke="#63b8ff" points="1260.07,-196.59 1257.33,-186.36 1253.09,-196.07 1260.07,-196.59"/>
</g>
<!-- Node45&#45;&gt;Node13 -->
<g id="edge134" class="edge">
<title>Node45&#45;&gt;Node13</title>
<path fill="none" stroke="#63b8ff" d="M1296.75,-173.01C1405.59,-168.86 1708.5,-155.15 1745,-129.75 1762.52,-117.56 1784.71,-60.07 1795.51,-29.64"/>
<polygon fill="#63b8ff" stroke="#63b8ff" points="1799.07,-31.04 1799.05,-20.45 1792.46,-28.74 1799.07,-31.04"/>
</g>
<!-- Node45&#45;&gt;Node15 -->
<g id="edge133" class="edge">
<title>Node45&#45;&gt;Node15</title>
<path fill="none" stroke="#63b8ff" d="M1219.54,-171.4C1104.21,-162.47 760.94,-135.9 625.67,-125.43"/>
<polygon fill="#63b8ff" stroke="#63b8ff" points="626.01,-121.87 615.77,-124.59 625.47,-128.85 626.01,-121.87"/>
</g>
<!-- Node45&#45;&gt;Node17 -->
<g id="edge132" class="edge">
<title>Node45&#45;&gt;Node17</title>
<path fill="none" stroke="#63b8ff" d="M1243.3,-165.31C1212.81,-146.52 1142.48,-103.16 1105.58,-80.41"/>
<polygon fill="#63b8ff" stroke="#63b8ff" points="1107.89,-77.11 1097.54,-74.84 1104.21,-83.06 1107.89,-77.11"/>
</g>
</g>
</svg>
