<?xml version="1.0" encoding="UTF-8" standalone="no"?>
<!DOCTYPE svg PUBLIC "-//W3C//DTD SVG 1.1//EN"
 "http://www.w3.org/Graphics/SVG/1.1/DTD/svg11.dtd">
<!-- Generated by graphviz version 8.0.5 (20230430.1635)
 -->
<!-- Title: include/v8&#45;proxy.h Pages: 1 -->
<svg width="1206pt" height="414pt"
 viewBox="0.00 0.00 1205.87 414.00" xmlns="http://www.w3.org/2000/svg" xmlns:xlink="http://www.w3.org/1999/xlink">
<g id="graph0" class="graph" transform="scale(1 1) rotate(0) translate(4 410)">
<title>include/v8&#45;proxy.h</title>
<!-- Node1 -->
<g id="node1" class="node">
<title>Node1</title>
<g id="a_node1"><a xlink:title=" ">
<polygon fill="#999999" stroke="#666666" points="659.62,-406 566.38,-406 566.38,-386.75 659.62,-386.75 659.62,-406"/>
<text text-anchor="middle" x="613" y="-392.5" font-family="Helvetica,sans-Serif" font-size="10.00">include/v8&#45;proxy.h</text>
</a>
</g>
</g>
<!-- Node2 -->
<g id="node2" class="node">
<title>Node2</title>
<g id="a_node2"><a xlink:href="v8-context_8h.html" target="_top" xlink:title=" ">
<polygon fill="white" stroke="#666666" points="514.25,-240.25 445.75,-240.25 445.75,-221 514.25,-221 514.25,-240.25"/>
<text text-anchor="middle" x="480" y="-226.75" font-family="Helvetica,sans-Serif" font-size="10.00">v8&#45;context.h</text>
</a>
</g>
</g>
<!-- Node1&#45;&gt;Node2 -->
<g id="edge1" class="edge">
<title>Node1&#45;&gt;Node2</title>
<path fill="none" stroke="#63b8ff" d="M605.85,-386.57C584.65,-360.47 521.88,-283.19 493.82,-248.64"/>
<polygon fill="#63b8ff" stroke="#63b8ff" points="496.21,-247.03 487.19,-241.47 490.77,-251.44 496.21,-247.03"/>
</g>
<!-- Node5 -->
<g id="node5" class="node">
<title>Node5</title>
<g id="a_node5"><a xlink:href="v8-local-handle_8h.html" target="_top" xlink:title=" ">
<polygon fill="white" stroke="#666666" points="822.38,-129.75 733.62,-129.75 733.62,-110.5 822.38,-110.5 822.38,-129.75"/>
<text text-anchor="middle" x="778" y="-116.25" font-family="Helvetica,sans-Serif" font-size="10.00">v8&#45;local&#45;handle.h</text>
</a>
</g>
</g>
<!-- Node1&#45;&gt;Node5 -->
<g id="edge27" class="edge">
<title>Node1&#45;&gt;Node5</title>
<path fill="none" stroke="#63b8ff" d="M626.69,-386.55C658.85,-365.19 739.92,-307.46 786,-240.25 805.67,-211.56 820.65,-198.87 810,-165.75 806.77,-155.7 800.35,-146 794.1,-138.23"/>
<polygon fill="#63b8ff" stroke="#63b8ff" points="796.24,-136.35 787.05,-131.08 790.95,-140.93 796.24,-136.35"/>
</g>
<!-- Node12 -->
<g id="node12" class="node">
<title>Node12</title>
<g id="a_node12"><a xlink:href="v8config_8h.html" target="_top" xlink:title=" ">
<polygon fill="white" stroke="#666666" points="238.75,-19.25 179.25,-19.25 179.25,0 238.75,0 238.75,-19.25"/>
<text text-anchor="middle" x="209" y="-5.75" font-family="Helvetica,sans-Serif" font-size="10.00">v8config.h</text>
</a>
</g>
</g>
<!-- Node1&#45;&gt;Node12 -->
<g id="edge62" class="edge">
<title>Node1&#45;&gt;Node12</title>
<path fill="none" stroke="#63b8ff" d="M565.92,-392.01C422.38,-381.15 0,-344.29 0,-286.88 0,-286.88 0,-286.88 0,-119.12 0,-44.07 107.47,-20.87 168.28,-13.74"/>
<polygon fill="#63b8ff" stroke="#63b8ff" points="168.48,-17.13 178.06,-12.59 167.74,-10.17 168.48,-17.13"/>
</g>
<!-- Node16 -->
<g id="node16" class="node">
<title>Node16</title>
<g id="a_node16"><a xlink:href="v8-object_8h.html" target="_top" xlink:title=" ">
<polygon fill="white" stroke="#666666" points="660.62,-350.75 597.38,-350.75 597.38,-331.5 660.62,-331.5 660.62,-350.75"/>
<text text-anchor="middle" x="629" y="-337.25" font-family="Helvetica,sans-Serif" font-size="10.00">v8&#45;object.h</text>
</a>
</g>
</g>
<!-- Node1&#45;&gt;Node16 -->
<g id="edge28" class="edge">
<title>Node1&#45;&gt;Node16</title>
<path fill="none" stroke="#63b8ff" d="M615.64,-386.58C617.69,-379.76 620.61,-370.06 623.19,-361.45"/>
<polygon fill="#63b8ff" stroke="#63b8ff" points="626.77,-362.69 626.3,-352.11 620.07,-360.68 626.77,-362.69"/>
</g>
<!-- Node3 -->
<g id="node3" class="node">
<title>Node3</title>
<g id="a_node3"><a xlink:title=" ">
<polygon fill="#e0e0e0" stroke="#999999" points="642.75,-19.25 595.25,-19.25 595.25,0 642.75,0 642.75,-19.25"/>
<text text-anchor="middle" x="619" y="-5.75" font-family="Helvetica,sans-Serif" font-size="10.00">stdint.h</text>
</a>
</g>
</g>
<!-- Node2&#45;&gt;Node3 -->
<g id="edge2" class="edge">
<title>Node2&#45;&gt;Node3</title>
<path fill="none" stroke="#63b8ff" d="M445.29,-222.04C410.46,-212.66 364.33,-194.34 382,-165.75 400.81,-135.32 423.4,-148.28 454,-129.75 509.05,-96.41 569.3,-50.21 599.48,-26.32"/>
<polygon fill="#63b8ff" stroke="#63b8ff" points="601.19,-28.63 606.84,-19.66 596.83,-23.15 601.19,-28.63"/>
</g>
<!-- Node4 -->
<g id="node4" class="node">
<title>Node4</title>
<g id="a_node4"><a xlink:href="v8-data_8h.html" target="_top" xlink:title=" ">
<polygon fill="white" stroke="#666666" points="540.88,-185 485.12,-185 485.12,-165.75 540.88,-165.75 540.88,-185"/>
<text text-anchor="middle" x="513" y="-171.5" font-family="Helvetica,sans-Serif" font-size="10.00">v8&#45;data.h</text>
</a>
</g>
</g>
<!-- Node2&#45;&gt;Node4 -->
<g id="edge3" class="edge">
<title>Node2&#45;&gt;Node4</title>
<path fill="none" stroke="#63b8ff" d="M485.45,-220.83C489.87,-213.71 496.24,-203.43 501.74,-194.55"/>
<polygon fill="#63b8ff" stroke="#63b8ff" points="505.14,-196.7 507.43,-186.36 499.19,-193.02 505.14,-196.7"/>
</g>
<!-- Node2&#45;&gt;Node5 -->
<g id="edge16" class="edge">
<title>Node2&#45;&gt;Node5</title>
<path fill="none" stroke="#63b8ff" d="M514.63,-224.93C553.86,-218.85 619.2,-206.42 672,-185 676.36,-183.23 724.32,-154.01 754.22,-135.71"/>
<polygon fill="#63b8ff" stroke="#63b8ff" points="755.51,-138.41 762.21,-130.21 751.85,-132.44 755.51,-138.41"/>
</g>
<!-- Node2&#45;&gt;Node12 -->
<g id="edge26" class="edge">
<title>Node2&#45;&gt;Node12</title>
<path fill="none" stroke="#63b8ff" d="M445.43,-228.14C356.07,-223.95 122.79,-210.62 100,-185 61.68,-141.91 67.86,-103.13 100,-55.25 115.17,-32.65 144.03,-21.49 168.25,-15.98"/>
<polygon fill="#63b8ff" stroke="#63b8ff" points="168.87,-19.22 177.98,-13.82 167.49,-12.36 168.87,-19.22"/>
</g>
<!-- Node13 -->
<g id="node13" class="node">
<title>Node13</title>
<g id="a_node13"><a xlink:href="v8-maybe_8h.html" target="_top" xlink:title=" ">
<polygon fill="white" stroke="#666666" points="662.75,-185 597.25,-185 597.25,-165.75 662.75,-165.75 662.75,-185"/>
<text text-anchor="middle" x="630" y="-171.5" font-family="Helvetica,sans-Serif" font-size="10.00">v8&#45;maybe.h</text>
</a>
</g>
</g>
<!-- Node2&#45;&gt;Node13 -->
<g id="edge17" class="edge">
<title>Node2&#45;&gt;Node13</title>
<path fill="none" stroke="#63b8ff" d="M505.45,-220.59C529.8,-211.95 566.76,-198.82 594.1,-189.12"/>
<polygon fill="#63b8ff" stroke="#63b8ff" points="595.18,-192.1 603.43,-185.45 592.83,-185.5 595.18,-192.1"/>
</g>
<!-- Node15 -->
<g id="node15" class="node">
<title>Node15</title>
<g id="a_node15"><a xlink:href="v8-snapshot_8h.html" target="_top" xlink:title=" ">
<polygon fill="white" stroke="#666666" points="467.38,-185 390.62,-185 390.62,-165.75 467.38,-165.75 467.38,-185"/>
<text text-anchor="middle" x="429" y="-171.5" font-family="Helvetica,sans-Serif" font-size="10.00">v8&#45;snapshot.h</text>
</a>
</g>
</g>
<!-- Node2&#45;&gt;Node15 -->
<g id="edge22" class="edge">
<title>Node2&#45;&gt;Node15</title>
<path fill="none" stroke="#63b8ff" d="M471.58,-220.83C464.39,-213.32 453.84,-202.31 445.05,-193.13"/>
<polygon fill="#63b8ff" stroke="#63b8ff" points="448.05,-191.16 438.6,-186.36 442.99,-196 448.05,-191.16"/>
</g>
<!-- Node4&#45;&gt;Node5 -->
<g id="edge4" class="edge">
<title>Node4&#45;&gt;Node5</title>
<path fill="none" stroke="#63b8ff" d="M541.36,-168.68C584.55,-160 667.6,-143.31 722.92,-132.19"/>
<polygon fill="#63b8ff" stroke="#63b8ff" points="723.48,-135.45 732.6,-130.05 722.1,-128.59 723.48,-135.45"/>
</g>
<!-- Node4&#45;&gt;Node12 -->
<g id="edge15" class="edge">
<title>Node4&#45;&gt;Node12</title>
<path fill="none" stroke="#63b8ff" d="M484.76,-167.57C481.81,-166.92 478.85,-166.31 476,-165.75 425.44,-155.9 286.1,-163.29 247,-129.75 231.8,-116.71 218.77,-60.59 212.68,-30.26"/>
<polygon fill="#63b8ff" stroke="#63b8ff" points="215.97,-29.85 210.63,-20.7 209.1,-31.19 215.97,-29.85"/>
</g>
<!-- Node6 -->
<g id="node6" class="node">
<title>Node6</title>
<g id="a_node6"><a xlink:title=" ">
<polygon fill="#e0e0e0" stroke="#999999" points="1008.25,-19.25 957.75,-19.25 957.75,0 1008.25,0 1008.25,-19.25"/>
<text text-anchor="middle" x="983" y="-5.75" font-family="Helvetica,sans-Serif" font-size="10.00">stddef.h</text>
</a>
</g>
</g>
<!-- Node5&#45;&gt;Node6 -->
<g id="edge5" class="edge">
<title>Node5&#45;&gt;Node6</title>
<path fill="none" stroke="#63b8ff" d="M795.13,-110.06C830.85,-91.15 913.54,-47.39 956.31,-24.75"/>
<polygon fill="#63b8ff" stroke="#63b8ff" points="957.58,-27.51 964.78,-19.74 954.3,-21.32 957.58,-27.51"/>
</g>
<!-- Node7 -->
<g id="node7" class="node">
<title>Node7</title>
<g id="a_node7"><a xlink:title=" ">
<polygon fill="#e0e0e0" stroke="#999999" points="808.5,-19.25 747.5,-19.25 747.5,0 808.5,0 808.5,-19.25"/>
<text text-anchor="middle" x="778" y="-5.75" font-family="Helvetica,sans-Serif" font-size="10.00">type_traits</text>
</a>
</g>
</g>
<!-- Node5&#45;&gt;Node7 -->
<g id="edge6" class="edge">
<title>Node5&#45;&gt;Node7</title>
<path fill="none" stroke="#63b8ff" d="M778,-110.25C778,-92.92 778,-54.23 778,-30.49"/>
<polygon fill="#63b8ff" stroke="#63b8ff" points="781.5,-30.63 778,-20.63 774.5,-30.63 781.5,-30.63"/>
</g>
<!-- Node8 -->
<g id="node8" class="node">
<title>Node8</title>
<g id="a_node8"><a xlink:href="v8-internal_8h.html" target="_top" xlink:title=" ">
<polygon fill="white" stroke="#666666" points="690.25,-74.5 621.75,-74.5 621.75,-55.25 690.25,-55.25 690.25,-74.5"/>
<text text-anchor="middle" x="656" y="-61" font-family="Helvetica,sans-Serif" font-size="10.00">v8&#45;internal.h</text>
</a>
</g>
</g>
<!-- Node5&#45;&gt;Node8 -->
<g id="edge7" class="edge">
<title>Node5&#45;&gt;Node8</title>
<path fill="none" stroke="#63b8ff" d="M757.3,-110.09C737.94,-101.64 708.76,-88.9 686.68,-79.27"/>
<polygon fill="#63b8ff" stroke="#63b8ff" points="688.36,-75.75 677.8,-74.95 685.56,-82.16 688.36,-75.75"/>
</g>
<!-- Node8&#45;&gt;Node3 -->
<g id="edge9" class="edge">
<title>Node8&#45;&gt;Node3</title>
<path fill="none" stroke="#63b8ff" d="M649.89,-55.08C644.89,-47.88 637.64,-37.46 631.43,-28.51"/>
<polygon fill="#63b8ff" stroke="#63b8ff" points="633.82,-26.82 625.24,-20.61 628.07,-30.82 633.82,-26.82"/>
</g>
<!-- Node8&#45;&gt;Node6 -->
<g id="edge8" class="edge">
<title>Node8&#45;&gt;Node6</title>
<path fill="none" stroke="#63b8ff" d="M690.69,-58.23C753.02,-48.08 883.38,-26.85 946.8,-16.52"/>
<polygon fill="#63b8ff" stroke="#63b8ff" points="947.16,-19.84 956.47,-14.78 946.04,-12.94 947.16,-19.84"/>
</g>
<!-- Node8&#45;&gt;Node7 -->
<g id="edge12" class="edge">
<title>Node8&#45;&gt;Node7</title>
<path fill="none" stroke="#63b8ff" d="M676.7,-54.84C696.06,-46.39 725.24,-33.65 747.32,-24.02"/>
<polygon fill="#63b8ff" stroke="#63b8ff" points="748.44,-26.91 756.2,-19.7 745.64,-20.5 748.44,-26.91"/>
</g>
<!-- Node9 -->
<g id="node9" class="node">
<title>Node9</title>
<g id="a_node9"><a xlink:title=" ">
<polygon fill="#e0e0e0" stroke="#999999" points="576.75,-19.25 529.25,-19.25 529.25,0 576.75,0 576.75,-19.25"/>
<text text-anchor="middle" x="553" y="-5.75" font-family="Helvetica,sans-Serif" font-size="10.00">string.h</text>
</a>
</g>
</g>
<!-- Node8&#45;&gt;Node9 -->
<g id="edge10" class="edge">
<title>Node8&#45;&gt;Node9</title>
<path fill="none" stroke="#63b8ff" d="M638.53,-54.84C622.55,-46.58 598.65,-34.23 580.18,-24.68"/>
<polygon fill="#63b8ff" stroke="#63b8ff" points="582.05,-21.19 571.56,-19.7 578.83,-27.4 582.05,-21.19"/>
</g>
<!-- Node10 -->
<g id="node10" class="node">
<title>Node10</title>
<g id="a_node10"><a xlink:title=" ">
<polygon fill="#e0e0e0" stroke="#999999" points="1160.62,-19.25 1115.38,-19.25 1115.38,0 1160.62,0 1160.62,-19.25"/>
<text text-anchor="middle" x="1138" y="-5.75" font-family="Helvetica,sans-Serif" font-size="10.00">atomic</text>
</a>
</g>
</g>
<!-- Node8&#45;&gt;Node10 -->
<g id="edge11" class="edge">
<title>Node8&#45;&gt;Node10</title>
<path fill="none" stroke="#63b8ff" d="M690.66,-60.05C779.79,-50.2 1016.09,-24.09 1104.23,-14.36"/>
<polygon fill="#63b8ff" stroke="#63b8ff" points="1104.38,-17.75 1113.94,-13.17 1103.62,-10.79 1104.38,-17.75"/>
</g>
<!-- Node11 -->
<g id="node11" class="node">
<title>Node11</title>
<g id="a_node11"><a xlink:href="v8-version_8h.html" target="_top" xlink:title=" ">
<polygon fill="white" stroke="#666666" points="729.25,-19.25 660.75,-19.25 660.75,0 729.25,0 729.25,-19.25"/>
<text text-anchor="middle" x="695" y="-5.75" font-family="Helvetica,sans-Serif" font-size="10.00">v8&#45;version.h</text>
</a>
</g>
</g>
<!-- Node8&#45;&gt;Node11 -->
<g id="edge13" class="edge">
<title>Node8&#45;&gt;Node11</title>
<path fill="none" stroke="#63b8ff" d="M662.44,-55.08C667.77,-47.8 675.51,-37.23 682.11,-28.23"/>
<polygon fill="#63b8ff" stroke="#63b8ff" points="685.33,-30.74 688.42,-20.61 679.69,-26.61 685.33,-30.74"/>
</g>
<!-- Node8&#45;&gt;Node12 -->
<g id="edge14" class="edge">
<title>Node8&#45;&gt;Node12</title>
<path fill="none" stroke="#63b8ff" d="M621.3,-59.74C539.94,-50.05 337.22,-25.9 249.99,-15.51"/>
<polygon fill="#63b8ff" stroke="#63b8ff" points="250.54,-11.93 240.2,-14.22 249.71,-18.88 250.54,-11.93"/>
</g>
<!-- Node13&#45;&gt;Node7 -->
<g id="edge18" class="edge">
<title>Node13&#45;&gt;Node7</title>
<path fill="none" stroke="#63b8ff" d="M637.96,-165.57C661.65,-139.36 731.99,-61.53 763.02,-27.2"/>
<polygon fill="#63b8ff" stroke="#63b8ff" points="764.89,-30.24 769,-20.47 759.7,-25.54 764.89,-30.24"/>
</g>
<!-- Node13&#45;&gt;Node8 -->
<g id="edge20" class="edge">
<title>Node13&#45;&gt;Node8</title>
<path fill="none" stroke="#63b8ff" d="M632.13,-165.5C636.3,-148.09 645.64,-109.12 651.32,-85.41"/>
<polygon fill="#63b8ff" stroke="#63b8ff" points="654.92,-86.42 653.84,-75.88 648.11,-84.79 654.92,-86.42"/>
</g>
<!-- Node13&#45;&gt;Node12 -->
<g id="edge21" class="edge">
<title>Node13&#45;&gt;Node12</title>
<path fill="none" stroke="#63b8ff" d="M620.17,-165.48C594.76,-143.03 524.03,-83.84 454,-55.25 385.71,-27.37 299.64,-16.83 249.81,-12.9"/>
<polygon fill="#63b8ff" stroke="#63b8ff" points="250.38,-9.36 240.15,-12.12 249.86,-16.34 250.38,-9.36"/>
</g>
<!-- Node14 -->
<g id="node14" class="node">
<title>Node14</title>
<g id="a_node14"><a xlink:title=" ">
<polygon fill="#e0e0e0" stroke="#999999" points="879.25,-129.75 840.75,-129.75 840.75,-110.5 879.25,-110.5 879.25,-129.75"/>
<text text-anchor="middle" x="860" y="-116.25" font-family="Helvetica,sans-Serif" font-size="10.00">utility</text>
</a>
</g>
</g>
<!-- Node13&#45;&gt;Node14 -->
<g id="edge19" class="edge">
<title>Node13&#45;&gt;Node14</title>
<path fill="none" stroke="#63b8ff" d="M663.25,-167.74C701.22,-160.01 765.41,-146.43 830.03,-129.85"/>
<polygon fill="#63b8ff" stroke="#63b8ff" points="830.59,-133.06 839.4,-127.16 828.84,-126.28 830.59,-133.06"/>
</g>
<!-- Node15&#45;&gt;Node5 -->
<g id="edge24" class="edge">
<title>Node15&#45;&gt;Node5</title>
<path fill="none" stroke="#63b8ff" d="M467.71,-167.16C470.51,-166.67 473.3,-166.2 476,-165.75 561.77,-151.55 661.62,-137.22 722.29,-128.76"/>
<polygon fill="#63b8ff" stroke="#63b8ff" points="722.73,-132.1 732.15,-127.26 721.77,-125.17 722.73,-132.1"/>
</g>
<!-- Node15&#45;&gt;Node8 -->
<g id="edge23" class="edge">
<title>Node15&#45;&gt;Node8</title>
<path fill="none" stroke="#63b8ff" d="M442.99,-165.38C463.67,-152.3 503.87,-127.72 540,-110.5 565.68,-98.26 595.66,-86.8 618.72,-78.55"/>
<polygon fill="#63b8ff" stroke="#63b8ff" points="619.52,-81.63 627.78,-75 617.19,-75.03 619.52,-81.63"/>
</g>
<!-- Node15&#45;&gt;Node12 -->
<g id="edge25" class="edge">
<title>Node15&#45;&gt;Node12</title>
<path fill="none" stroke="#63b8ff" d="M390.2,-171.9C334.56,-167.47 236.33,-156.05 214,-129.75 190.41,-101.97 196.9,-56.07 203.26,-30.1"/>
<polygon fill="#63b8ff" stroke="#63b8ff" points="206.83,-31.28 206.06,-20.71 200.07,-29.45 206.83,-31.28"/>
</g>
<!-- Node16&#45;&gt;Node5 -->
<g id="edge29" class="edge">
<title>Node16&#45;&gt;Node5</title>
<path fill="none" stroke="#63b8ff" d="M648.95,-331.11C665.31,-323.15 688.53,-310.49 706,-295.5 753.86,-254.44 774.03,-244.47 795,-185 800.31,-169.95 794.83,-152.4 788.72,-139.51"/>
<polygon fill="#63b8ff" stroke="#63b8ff" points="791.43,-138.14 783.66,-130.94 785.24,-141.41 791.43,-138.14"/>
</g>
<!-- Node16&#45;&gt;Node12 -->
<g id="edge61" class="edge">
<title>Node16&#45;&gt;Node12</title>
<path fill="none" stroke="#63b8ff" d="M597.23,-337.7C474.47,-327.89 38,-289 38,-231.62 38,-231.62 38,-231.62 38,-119.12 38,-57.71 117.62,-29.59 168.2,-17.92"/>
<polygon fill="#63b8ff" stroke="#63b8ff" points="168.79,-21.16 177.82,-15.61 167.31,-14.32 168.79,-21.16"/>
</g>
<!-- Node16&#45;&gt;Node13 -->
<g id="edge30" class="edge">
<title>Node16&#45;&gt;Node13</title>
<path fill="none" stroke="#63b8ff" d="M650.44,-331.12C664.79,-323.82 682.53,-312.02 691,-295.5 694.9,-287.89 693.32,-284.49 691,-276.25 682.06,-244.46 659.88,-212.78 644.88,-193.88"/>
<polygon fill="#63b8ff" stroke="#63b8ff" points="647.03,-191.98 637.99,-186.46 641.61,-196.41 647.03,-191.98"/>
</g>
<!-- Node17 -->
<g id="node17" class="node">
<title>Node17</title>
<g id="a_node17"><a xlink:href="v8-persistent-handle_8h.html" target="_top" xlink:title=" ">
<polygon fill="white" stroke="#666666" points="296.62,-185 185.38,-185 185.38,-165.75 296.62,-165.75 296.62,-185"/>
<text text-anchor="middle" x="241" y="-171.5" font-family="Helvetica,sans-Serif" font-size="10.00">v8&#45;persistent&#45;handle.h</text>
</a>
</g>
</g>
<!-- Node16&#45;&gt;Node17 -->
<g id="edge31" class="edge">
<title>Node16&#45;&gt;Node17</title>
<path fill="none" stroke="#63b8ff" d="M596.91,-334.82C537.35,-323.98 407.06,-295.5 311,-240.25 289.27,-227.75 268.61,-207.5 255.44,-193.16"/>
<polygon fill="#63b8ff" stroke="#63b8ff" points="258.54,-191.25 249.27,-186.11 253.31,-195.9 258.54,-191.25"/>
</g>
<!-- Node19 -->
<g id="node19" class="node">
<title>Node19</title>
<g id="a_node19"><a xlink:href="v8-primitive_8h.html" target="_top" xlink:title=" ">
<polygon fill="white" stroke="#666666" points="681.88,-295.5 608.12,-295.5 608.12,-276.25 681.88,-276.25 681.88,-295.5"/>
<text text-anchor="middle" x="645" y="-282" font-family="Helvetica,sans-Serif" font-size="10.00">v8&#45;primitive.h</text>
</a>
</g>
</g>
<!-- Node16&#45;&gt;Node19 -->
<g id="edge37" class="edge">
<title>Node16&#45;&gt;Node19</title>
<path fill="none" stroke="#63b8ff" d="M631.64,-331.33C633.69,-324.51 636.61,-314.81 639.19,-306.2"/>
<polygon fill="#63b8ff" stroke="#63b8ff" points="642.77,-307.44 642.3,-296.86 636.07,-305.43 642.77,-307.44"/>
</g>
<!-- Node20 -->
<g id="node20" class="node">
<title>Node20</title>
<g id="a_node20"><a xlink:href="v8-value_8h.html" target="_top" xlink:title=" ">
<polygon fill="white" stroke="#666666" points="630.12,-240.25 569.88,-240.25 569.88,-221 630.12,-221 630.12,-240.25"/>
<text text-anchor="middle" x="600" y="-226.75" font-family="Helvetica,sans-Serif" font-size="10.00">v8&#45;value.h</text>
</a>
</g>
</g>
<!-- Node16&#45;&gt;Node20 -->
<g id="edge60" class="edge">
<title>Node16&#45;&gt;Node20</title>
<path fill="none" stroke="#63b8ff" d="M620.5,-331.07C613.2,-322.61 603.19,-309.25 599,-295.5 594.64,-281.19 595.15,-264.23 596.61,-251.38"/>
<polygon fill="#63b8ff" stroke="#63b8ff" points="600.21,-251.94 598.17,-241.54 593.28,-250.94 600.21,-251.94"/>
</g>
<!-- Node21 -->
<g id="node21" class="node">
<title>Node21</title>
<g id="a_node21"><a xlink:href="v8-traced-handle_8h.html" target="_top" xlink:title=" ">
<polygon fill="white" stroke="#666666" points="1027.75,-185 932.25,-185 932.25,-165.75 1027.75,-165.75 1027.75,-185"/>
<text text-anchor="middle" x="980" y="-171.5" font-family="Helvetica,sans-Serif" font-size="10.00">v8&#45;traced&#45;handle.h</text>
</a>
</g>
</g>
<!-- Node16&#45;&gt;Node21 -->
<g id="edge48" class="edge">
<title>Node16&#45;&gt;Node21</title>
<path fill="none" stroke="#63b8ff" d="M660.77,-340.47C708.99,-339.68 802.19,-332.91 870,-295.5 914.8,-270.78 951.44,-221.1 968.92,-194.38"/>
<polygon fill="#63b8ff" stroke="#63b8ff" points="972.24,-196.67 974.66,-186.36 966.34,-192.91 972.24,-196.67"/>
</g>
<!-- Node17&#45;&gt;Node5 -->
<g id="edge33" class="edge">
<title>Node17&#45;&gt;Node5</title>
<path fill="none" stroke="#63b8ff" d="M296.95,-168.83C400.23,-158.58 619.68,-136.82 722.57,-126.62"/>
<polygon fill="#63b8ff" stroke="#63b8ff" points="722.74,-130.02 732.34,-125.55 722.05,-123.06 722.74,-130.02"/>
</g>
<!-- Node17&#45;&gt;Node8 -->
<g id="edge32" class="edge">
<title>Node17&#45;&gt;Node8</title>
<path fill="none" stroke="#63b8ff" d="M275.67,-165.31C350.6,-145.72 527.6,-99.45 611.02,-77.64"/>
<polygon fill="#63b8ff" stroke="#63b8ff" points="611.64,-80.83 620.43,-74.91 609.87,-74.06 611.64,-80.83"/>
</g>
<!-- Node17&#45;&gt;Node12 -->
<g id="edge36" class="edge">
<title>Node17&#45;&gt;Node12</title>
<path fill="none" stroke="#63b8ff" d="M217.91,-165.33C203,-158.13 184.8,-146.46 176,-129.75 160.58,-100.45 165.64,-86.7 176,-55.25 179.34,-45.12 185.96,-35.41 192.4,-27.65"/>
<polygon fill="#63b8ff" stroke="#63b8ff" points="194.61,-30.31 198.67,-20.52 189.39,-25.64 194.61,-30.31"/>
</g>
<!-- Node18 -->
<g id="node18" class="node">
<title>Node18</title>
<g id="a_node18"><a xlink:href="v8-weak-callback-info_8h.html" target="_top" xlink:title=" ">
<polygon fill="white" stroke="#666666" points="374,-129.75 256,-129.75 256,-110.5 374,-110.5 374,-129.75"/>
<text text-anchor="middle" x="315" y="-116.25" font-family="Helvetica,sans-Serif" font-size="10.00">v8&#45;weak&#45;callback&#45;info.h</text>
</a>
</g>
</g>
<!-- Node17&#45;&gt;Node18 -->
<g id="edge34" class="edge">
<title>Node17&#45;&gt;Node18</title>
<path fill="none" stroke="#63b8ff" d="M253.55,-165.34C264.57,-157.41 280.82,-145.72 293.84,-136.35"/>
<polygon fill="#63b8ff" stroke="#63b8ff" points="295.56,-138.71 301.63,-130.02 291.47,-133.02 295.56,-138.71"/>
</g>
<!-- Node18&#45;&gt;Node12 -->
<g id="edge35" class="edge">
<title>Node18&#45;&gt;Node12</title>
<path fill="none" stroke="#63b8ff" d="M306.33,-110.25C288.62,-92.13 248.09,-50.63 225.31,-27.32"/>
<polygon fill="#63b8ff" stroke="#63b8ff" points="228.29,-25.33 218.79,-20.63 223.28,-30.23 228.29,-25.33"/>
</g>
<!-- Node19&#45;&gt;Node4 -->
<g id="edge38" class="edge">
<title>Node19&#45;&gt;Node4</title>
<path fill="none" stroke="#63b8ff" d="M621.58,-275.76C603.73,-268.06 579.2,-255.81 561,-240.25 545.56,-227.05 532.08,-208.05 523.36,-194.2"/>
<polygon fill="#63b8ff" stroke="#63b8ff" points="526.08,-192.93 517.9,-186.19 520.09,-196.56 526.08,-192.93"/>
</g>
<!-- Node19&#45;&gt;Node5 -->
<g id="edge40" class="edge">
<title>Node19&#45;&gt;Node5</title>
<path fill="none" stroke="#63b8ff" d="M682.12,-277.46C705.77,-271.08 735.68,-259.72 756,-240.25 781.22,-216.09 782.17,-200.66 781,-165.75 780.73,-157.6 780.17,-148.63 779.61,-140.88"/>
<polygon fill="#63b8ff" stroke="#63b8ff" points="783.03,-140.71 778.77,-131.01 776.05,-141.25 783.03,-140.71"/>
</g>
<!-- Node19&#45;&gt;Node8 -->
<g id="edge39" class="edge">
<title>Node19&#45;&gt;Node8</title>
<path fill="none" stroke="#63b8ff" d="M648.27,-275.95C654.41,-258.68 667.44,-219.36 672,-185 676.68,-149.79 668.06,-108.73 661.76,-85.17"/>
<polygon fill="#63b8ff" stroke="#63b8ff" points="664.93,-84.51 658.84,-75.84 658.19,-86.41 664.93,-84.51"/>
</g>
<!-- Node19&#45;&gt;Node12 -->
<g id="edge47" class="edge">
<title>Node19&#45;&gt;Node12</title>
<path fill="none" stroke="#63b8ff" d="M607.82,-282.56C564.69,-278.62 492.44,-268.11 437,-240.25 403.72,-223.53 389.37,-218.92 374,-185 360.24,-154.62 399.71,-139.36 383,-110.5 354.42,-61.14 291.21,-34.06 249.37,-20.96"/>
<polygon fill="#63b8ff" stroke="#63b8ff" points="250.55,-17.36 239.96,-17.85 248.54,-24.07 250.55,-17.36"/>
</g>
<!-- Node19&#45;&gt;Node20 -->
<g id="edge41" class="edge">
<title>Node19&#45;&gt;Node20</title>
<path fill="none" stroke="#63b8ff" d="M637.57,-276.08C631.35,-268.73 622.3,-258.01 614.63,-248.94"/>
<polygon fill="#63b8ff" stroke="#63b8ff" points="616.72,-246.99 607.59,-241.61 611.37,-251.51 616.72,-246.99"/>
</g>
<!-- Node20&#45;&gt;Node4 -->
<g id="edge42" class="edge">
<title>Node20&#45;&gt;Node4</title>
<path fill="none" stroke="#63b8ff" d="M585.24,-220.59C571.99,-212.48 552.31,-200.43 536.83,-190.96"/>
<polygon fill="#63b8ff" stroke="#63b8ff" points="539.19,-187.69 528.83,-185.45 535.53,-193.66 539.19,-187.69"/>
</g>
<!-- Node20&#45;&gt;Node5 -->
<g id="edge44" class="edge">
<title>Node20&#45;&gt;Node5</title>
<path fill="none" stroke="#63b8ff" d="M627.93,-220.5C649.8,-212.72 680.5,-200.37 705,-185 726.5,-171.51 747.99,-151.76 762.02,-137.8"/>
<polygon fill="#63b8ff" stroke="#63b8ff" points="764.22,-140.55 768.74,-130.97 759.23,-135.64 764.22,-140.55"/>
</g>
<!-- Node20&#45;&gt;Node8 -->
<g id="edge43" class="edge">
<title>Node20&#45;&gt;Node8</title>
<path fill="none" stroke="#63b8ff" d="M595.69,-220.79C590.2,-208.33 582.09,-184.94 588,-165.75 598.09,-133.02 622.97,-101.41 639.67,-82.81"/>
<polygon fill="#63b8ff" stroke="#63b8ff" points="641.88,-85.49 646.11,-75.77 636.75,-80.73 641.88,-85.49"/>
</g>
<!-- Node20&#45;&gt;Node12 -->
<g id="edge46" class="edge">
<title>Node20&#45;&gt;Node12</title>
<path fill="none" stroke="#63b8ff" d="M569.65,-226.17C555.48,-224.57 538.38,-222.66 523,-221 445.92,-212.69 233.31,-237.21 176,-185 133.24,-146.05 143.88,-108.69 166,-55.25 170.63,-44.07 179.49,-34.09 187.98,-26.43"/>
<polygon fill="#63b8ff" stroke="#63b8ff" points="189.74,-28.68 195.16,-19.57 185.25,-23.31 189.74,-28.68"/>
</g>
<!-- Node20&#45;&gt;Node13 -->
<g id="edge45" class="edge">
<title>Node20&#45;&gt;Node13</title>
<path fill="none" stroke="#63b8ff" d="M604.95,-220.83C608.93,-213.78 614.64,-203.65 619.6,-194.83"/>
<polygon fill="#63b8ff" stroke="#63b8ff" points="623.08,-196.79 624.94,-186.36 616.98,-193.35 623.08,-196.79"/>
</g>
<!-- Node21&#45;&gt;Node3 -->
<g id="edge50" class="edge">
<title>Node21&#45;&gt;Node3</title>
<path fill="none" stroke="#63b8ff" d="M977.82,-165.55C973.97,-151.77 964.64,-125.2 947,-110.5 935.39,-100.82 735.63,-43.6 653.67,-20.4"/>
<polygon fill="#63b8ff" stroke="#63b8ff" points="654.72,-16.77 644.14,-17.42 652.81,-23.51 654.72,-16.77"/>
</g>
<!-- Node21&#45;&gt;Node5 -->
<g id="edge57" class="edge">
<title>Node21&#45;&gt;Node5</title>
<path fill="none" stroke="#63b8ff" d="M945.73,-165.34C911.93,-156.43 860.06,-142.76 822.96,-132.98"/>
<polygon fill="#63b8ff" stroke="#63b8ff" points="824,-129.37 813.43,-130.2 822.21,-136.14 824,-129.37"/>
</g>
<!-- Node21&#45;&gt;Node6 -->
<g id="edge49" class="edge">
<title>Node21&#45;&gt;Node6</title>
<path fill="none" stroke="#63b8ff" d="M1028.17,-169.86C1078.79,-164.01 1153.49,-151.83 1171,-129.75 1217.52,-71.11 1085.99,-33.01 1019.23,-17.93"/>
<polygon fill="#63b8ff" stroke="#63b8ff" points="1020.24,-14.35 1009.73,-15.63 1018.75,-21.19 1020.24,-14.35"/>
</g>
<!-- Node21&#45;&gt;Node7 -->
<g id="edge54" class="edge">
<title>Node21&#45;&gt;Node7</title>
<path fill="none" stroke="#63b8ff" d="M985.46,-165.63C992.47,-153.27 1003.06,-130.01 997,-110.5 988.16,-82.04 983.51,-72.2 959,-55.25 917.24,-26.37 858.69,-16.13 819.61,-12.53"/>
<polygon fill="#63b8ff" stroke="#63b8ff" points="820.13,-8.98 809.89,-11.66 819.57,-15.95 820.13,-8.98"/>
</g>
<!-- Node21&#45;&gt;Node8 -->
<g id="edge56" class="edge">
<title>Node21&#45;&gt;Node8</title>
<path fill="none" stroke="#63b8ff" d="M974.72,-165.66C965.65,-151.53 945.7,-123.86 921,-110.5 883.86,-90.4 766.73,-76.42 701.32,-69.94"/>
<polygon fill="#63b8ff" stroke="#63b8ff" points="701.8,-66.38 691.51,-68.9 701.12,-73.35 701.8,-66.38"/>
</g>
<!-- Node21&#45;&gt;Node10 -->
<g id="edge52" class="edge">
<title>Node21&#45;&gt;Node10</title>
<path fill="none" stroke="#63b8ff" d="M1028.2,-170.95C1083.51,-165.9 1169.16,-154.27 1189,-129.75 1214.57,-98.15 1178.63,-51.81 1155.28,-27.28"/>
<polygon fill="#63b8ff" stroke="#63b8ff" points="1158.18,-25.23 1148.67,-20.57 1153.2,-30.15 1158.18,-25.23"/>
</g>
<!-- Node21&#45;&gt;Node12 -->
<g id="edge59" class="edge">
<title>Node21&#45;&gt;Node12</title>
<path fill="none" stroke="#63b8ff" d="M968.57,-165.41C948.01,-149.45 905.32,-117.19 888,-110.5 773.01,-66.09 735,-92.13 613,-74.5 543.07,-64.4 337.76,-31.41 249.78,-17.21"/>
<polygon fill="#63b8ff" stroke="#63b8ff" points="250.59,-13.64 240.16,-15.5 249.47,-20.55 250.59,-13.64"/>
</g>
<!-- Node21&#45;&gt;Node14 -->
<g id="edge55" class="edge">
<title>Node21&#45;&gt;Node14</title>
<path fill="none" stroke="#63b8ff" d="M959.64,-165.34C940.45,-156.82 911.46,-143.96 889.69,-134.3"/>
<polygon fill="#63b8ff" stroke="#63b8ff" points="891.22,-130.71 880.66,-129.85 888.38,-137.1 891.22,-130.71"/>
</g>
<!-- Node21&#45;&gt;Node18 -->
<g id="edge58" class="edge">
<title>Node21&#45;&gt;Node18</title>
<path fill="none" stroke="#63b8ff" d="M931.91,-170.52C816.01,-161.24 520.83,-137.61 385.15,-126.74"/>
<polygon fill="#63b8ff" stroke="#63b8ff" points="385.74,-123.2 375.49,-125.89 385.18,-130.18 385.74,-123.2"/>
</g>
<!-- Node22 -->
<g id="node22" class="node">
<title>Node22</title>
<g id="a_node22"><a xlink:title=" ">
<polygon fill="#e0e0e0" stroke="#999999" points="1093.25,-129.75 1048.75,-129.75 1048.75,-110.5 1093.25,-110.5 1093.25,-129.75"/>
<text text-anchor="middle" x="1071" y="-116.25" font-family="Helvetica,sans-Serif" font-size="10.00">stdio.h</text>
</a>
</g>
</g>
<!-- Node21&#45;&gt;Node22 -->
<g id="edge51" class="edge">
<title>Node21&#45;&gt;Node22</title>
<path fill="none" stroke="#63b8ff" d="M995.44,-165.34C1009.29,-157.23 1029.89,-145.18 1046.08,-135.71"/>
<polygon fill="#63b8ff" stroke="#63b8ff" points="1047.62,-138.27 1054.49,-130.2 1044.09,-132.23 1047.62,-138.27"/>
</g>
<!-- Node23 -->
<g id="node23" class="node">
<title>Node23</title>
<g id="a_node23"><a xlink:title=" ">
<polygon fill="#e0e0e0" stroke="#999999" points="1162.25,-129.75 1111.75,-129.75 1111.75,-110.5 1162.25,-110.5 1162.25,-129.75"/>
<text text-anchor="middle" x="1137" y="-116.25" font-family="Helvetica,sans-Serif" font-size="10.00">memory</text>
</a>
</g>
</g>
<!-- Node21&#45;&gt;Node23 -->
<g id="edge53" class="edge">
<title>Node21&#45;&gt;Node23</title>
<path fill="none" stroke="#63b8ff" d="M1006.63,-165.34C1032.66,-156.52 1072.45,-143.02 1101.22,-133.26"/>
<polygon fill="#63b8ff" stroke="#63b8ff" points="1101.93,-136.37 1110.28,-129.85 1099.69,-129.75 1101.93,-136.37"/>
</g>
</g>
</svg>
