<?xml version="1.0" encoding="UTF-8" standalone="no"?>
<!DOCTYPE svg PUBLIC "-//W3C//DTD SVG 1.1//EN"
 "http://www.w3.org/Graphics/SVG/1.1/DTD/svg11.dtd">
<!-- Generated by graphviz version 8.0.5 (20230430.1635)
 -->
<!-- Title: v8::MaybeLocal&lt; T &gt; Pages: 1 -->
<svg width="230pt" height="105pt"
 viewBox="0.00 0.00 230.25 105.00" xmlns="http://www.w3.org/2000/svg" xmlns:xlink="http://www.w3.org/1999/xlink">
<g id="graph0" class="graph" transform="scale(1 1) rotate(0) translate(4 101)">
<title>v8::MaybeLocal&lt; T &gt;</title>
<!-- Node1 -->
<g id="node1" class="node">
<title>Node1</title>
<g id="a_node1"><a xlink:title=" ">
<polygon fill="#999999" stroke="#666666" points="164.12,-97 58.12,-97 58.12,-77.75 164.12,-77.75 164.12,-97"/>
<text text-anchor="middle" x="111.12" y="-83.5" font-family="Helvetica,sans-Serif" font-size="10.00">v8::MaybeLocal&lt; T &gt;</text>
</a>
</g>
</g>
<!-- Node2 -->
<g id="node2" class="node">
<title>Node2</title>
<g id="a_node2"><a xlink:href="classv8_1_1MaybeLocal.html" target="_top" xlink:title=" ">
<polygon fill="white" stroke="#666666" points="102.25,-30.5 0,-30.5 0,0 102.25,0 102.25,-30.5"/>
<text text-anchor="start" x="8" y="-17" font-family="Helvetica,sans-Serif" font-size="10.00">v8::MaybeLocal&lt; v8</text>
<text text-anchor="middle" x="51.12" y="-5.75" font-family="Helvetica,sans-Serif" font-size="10.00">::String &gt;</text>
</a>
</g>
</g>
<!-- Node1&#45;&gt;Node2 -->
<g id="edge1" class="edge">
<title>Node1&#45;&gt;Node2</title>
<path fill="none" stroke="orange" stroke-dasharray="5,2" d="M96.57,-69.36C86.51,-57.61 73.27,-42.13 63.67,-30.92"/>
<polygon fill="orange" stroke="orange" points="94.37,-71.17 103.53,-76.49 99.68,-66.62 94.37,-71.17"/>
<text text-anchor="middle" x="118.75" y="-50.25" font-family="Helvetica,sans-Serif" font-size="10.00"> &lt; v8::String &gt;</text>
</g>
<!-- Node3 -->
<g id="node3" class="node">
<title>Node3</title>
<g id="a_node3"><a xlink:href="classv8_1_1MaybeLocal.html" target="_top" xlink:title=" ">
<polygon fill="white" stroke="#666666" points="222.25,-30.5 120,-30.5 120,0 222.25,0 222.25,-30.5"/>
<text text-anchor="start" x="128" y="-17" font-family="Helvetica,sans-Serif" font-size="10.00">v8::MaybeLocal&lt; v8</text>
<text text-anchor="middle" x="171.12" y="-5.75" font-family="Helvetica,sans-Serif" font-size="10.00">::Value &gt;</text>
</a>
</g>
</g>
<!-- Node1&#45;&gt;Node3 -->
<g id="edge2" class="edge">
<title>Node1&#45;&gt;Node3</title>
<path fill="none" stroke="orange" stroke-dasharray="5,2" d="M136.41,-71.3C140.99,-67.87 145.46,-63.98 149.12,-59.75 156.55,-51.18 162.23,-39.66 165.96,-30.63"/>
<polygon fill="orange" stroke="orange" points="134.95,-68.75 128.68,-77.29 138.91,-74.52 134.95,-68.75"/>
<text text-anchor="middle" x="185.38" y="-50.25" font-family="Helvetica,sans-Serif" font-size="10.00"> &lt; v8::Value &gt;</text>
</g>
</g>
</svg>
