<?xml version="1.0" encoding="UTF-8" standalone="no"?>
<!DOCTYPE svg PUBLIC "-//W3C//DTD SVG 1.1//EN"
 "http://www.w3.org/Graphics/SVG/1.1/DTD/svg11.dtd">
<!-- Generated by graphviz version 8.0.5 (20230430.1635)
 -->
<!-- Title: v8::PersistentValueMap::Set Pages: 1 -->
<svg width="816pt" height="321pt"
 viewBox="0.00 0.00 815.50 320.88" xmlns="http://www.w3.org/2000/svg" xmlns:xlink="http://www.w3.org/1999/xlink">
<g id="graph0" class="graph" transform="scale(1 1) rotate(0) translate(4 316.88)">
<title>v8::PersistentValueMap::Set</title>
<!-- Node1 -->
<g id="node1" class="node">
<title>Node1</title>
<g id="a_node1"><a xlink:title=" ">
<polygon fill="#999999" stroke="#666666" points="138.25,-230.25 0,-230.25 0,-211 138.25,-211 138.25,-230.25"/>
<text text-anchor="middle" x="69.12" y="-216.75" font-family="Helvetica,sans-Serif" font-size="10.00">v8::PersistentValueMap::Set</text>
</a>
</g>
</g>
<!-- Node2 -->
<g id="node2" class="node">
<title>Node2</title>
<g id="a_node2"><a xlink:href="classv8_1_1PersistentValueMapBase.html#ac15c999275fb50c0084246cb9a848811" target="_top" xlink:title=" ">
<polygon fill="white" stroke="#666666" points="470.25,-312.88 329,-312.88 329,-282.38 470.25,-282.38 470.25,-312.88"/>
<text text-anchor="start" x="337" y="-299.38" font-family="Helvetica,sans-Serif" font-size="10.00">v8::PersistentValueMapBase</text>
<text text-anchor="middle" x="399.62" y="-288.12" font-family="Helvetica,sans-Serif" font-size="10.00">::isolate</text>
</a>
</g>
</g>
<!-- Node1&#45;&gt;Node2 -->
<g id="edge1" class="edge">
<title>Node1&#45;&gt;Node2</title>
<path fill="none" stroke="#63b8ff" d="M113.07,-230.69C165.71,-243.03 255.89,-264.17 320.84,-279.39"/>
<polygon fill="#63b8ff" stroke="#63b8ff" points="319.91,-283 330.45,-281.88 321.51,-276.19 319.91,-283"/>
</g>
<!-- Node3 -->
<g id="node3" class="node">
<title>Node3</title>
<g id="a_node3"><a xlink:href="classv8_1_1PersistentValueMap.html#a69bb485985460550e40c08c7fe55f89c" target="_top" xlink:title=" ">
<polygon fill="white" stroke="#666666" points="293,-214.88 174.25,-214.88 174.25,-184.38 293,-184.38 293,-214.88"/>
<text text-anchor="start" x="182.25" y="-201.38" font-family="Helvetica,sans-Serif" font-size="10.00">v8::PersistentValueMap</text>
<text text-anchor="middle" x="233.62" y="-190.12" font-family="Helvetica,sans-Serif" font-size="10.00">::SetUnique</text>
</a>
</g>
</g>
<!-- Node1&#45;&gt;Node3 -->
<g id="edge2" class="edge">
<title>Node1&#45;&gt;Node3</title>
<path fill="none" stroke="#63b8ff" d="M138.57,-211.78C146.62,-210.74 154.84,-209.68 162.91,-208.63"/>
<polygon fill="#63b8ff" stroke="#63b8ff" points="163.31,-211.98 172.78,-207.23 162.42,-205.04 163.31,-211.98"/>
</g>
<!-- Node3&#45;&gt;Node2 -->
<g id="edge10" class="edge">
<title>Node3&#45;&gt;Node2</title>
<path fill="none" stroke="#63b8ff" d="M251.22,-215.1C269.23,-231.24 299.39,-256.39 329,-272.62 332.25,-274.41 335.66,-276.11 339.14,-277.72"/>
<polygon fill="#63b8ff" stroke="#63b8ff" points="337.52,-281.26 348.08,-282.02 340.3,-274.84 337.52,-281.26"/>
</g>
<!-- Node4 -->
<g id="node4" class="node">
<title>Node4</title>
<g id="a_node4"><a xlink:href="classv8_1_1PersistentValueMapBase.html#a243dfaf4ef5f9aa7bc178a660b14235a" target="_top" xlink:title=" ">
<polygon fill="white" stroke="#666666" points="470.25,-263.88 329,-263.88 329,-233.38 470.25,-233.38 470.25,-263.88"/>
<text text-anchor="start" x="337" y="-250.38" font-family="Helvetica,sans-Serif" font-size="10.00">v8::PersistentValueMapBase</text>
<text text-anchor="middle" x="399.62" y="-239.12" font-family="Helvetica,sans-Serif" font-size="10.00">::AnnotateStrongRetainer</text>
</a>
</g>
</g>
<!-- Node3&#45;&gt;Node4 -->
<g id="edge3" class="edge">
<title>Node3&#45;&gt;Node4</title>
<path fill="none" stroke="#63b8ff" d="M286.97,-215.26C302.42,-219.88 319.5,-224.99 335.56,-229.78"/>
<polygon fill="#63b8ff" stroke="#63b8ff" points="334.35,-233.37 344.94,-232.88 336.36,-226.67 334.35,-233.37"/>
</g>
<!-- Node7 -->
<g id="node7" class="node">
<title>Node7</title>
<g id="a_node7"><a xlink:href="classv8_1_1PersistentValueMapBase.html#a7b083c75829bbc4177729ffe9827c4ac" target="_top" xlink:title=" ">
<polygon fill="white" stroke="#666666" points="470.25,-214.88 329,-214.88 329,-184.38 470.25,-184.38 470.25,-214.88"/>
<text text-anchor="start" x="337" y="-201.38" font-family="Helvetica,sans-Serif" font-size="10.00">v8::PersistentValueMapBase</text>
<text text-anchor="middle" x="399.62" y="-190.12" font-family="Helvetica,sans-Serif" font-size="10.00">::ClearAndLeak</text>
</a>
</g>
</g>
<!-- Node3&#45;&gt;Node7 -->
<g id="edge6" class="edge">
<title>Node3&#45;&gt;Node7</title>
<path fill="none" stroke="#63b8ff" d="M293.37,-199.62C301.29,-199.62 309.53,-199.62 317.76,-199.62"/>
<polygon fill="#63b8ff" stroke="#63b8ff" points="317.54,-203.13 327.54,-199.62 317.54,-196.13 317.54,-203.13"/>
</g>
<!-- Node10 -->
<g id="node10" class="node">
<title>Node10</title>
<g id="a_node10"><a xlink:href="classv8_1_1PersistentValueMapBase.html#a149e5b7f40fa52dc9b379342ac802d94" target="_top" xlink:title=" ">
<polygon fill="white" stroke="#666666" points="470.25,-165.88 329,-165.88 329,-135.38 470.25,-135.38 470.25,-165.88"/>
<text text-anchor="start" x="337" y="-152.38" font-family="Helvetica,sans-Serif" font-size="10.00">v8::PersistentValueMapBase</text>
<text text-anchor="middle" x="399.62" y="-141.12" font-family="Helvetica,sans-Serif" font-size="10.00">::impl</text>
</a>
</g>
</g>
<!-- Node3&#45;&gt;Node10 -->
<g id="edge9" class="edge">
<title>Node3&#45;&gt;Node10</title>
<path fill="none" stroke="#63b8ff" d="M286.97,-183.99C302.42,-179.37 319.5,-174.26 335.56,-169.47"/>
<polygon fill="#63b8ff" stroke="#63b8ff" points="336.36,-172.58 344.94,-166.37 334.35,-165.88 336.36,-172.58"/>
</g>
<!-- Node11 -->
<g id="node11" class="node">
<title>Node11</title>
<g id="a_node11"><a xlink:href="classv8_1_1Local.html#abccf96e442bc7c20dc6bb18ab095cf7f" target="_top" xlink:title=" ">
<polygon fill="white" stroke="#666666" points="439.5,-117.25 359.75,-117.25 359.75,-98 439.5,-98 439.5,-117.25"/>
<text text-anchor="middle" x="399.62" y="-103.75" font-family="Helvetica,sans-Serif" font-size="10.00">v8::Local::New</text>
</a>
</g>
</g>
<!-- Node3&#45;&gt;Node11 -->
<g id="edge11" class="edge">
<title>Node3&#45;&gt;Node11</title>
<path fill="none" stroke="#63b8ff" d="M250.65,-183.99C268.42,-167.48 298.6,-141.78 329,-126.62 335.33,-123.47 342.25,-120.78 349.2,-118.51"/>
<polygon fill="#63b8ff" stroke="#63b8ff" points="349.75,-121.7 358.33,-115.47 347.74,-114.99 349.75,-121.7"/>
</g>
<!-- Node12 -->
<g id="node12" class="node">
<title>Node12</title>
<g id="a_node12"><a xlink:href="classv8_1_1PersistentValueMapBase.html#aea9af944a2bd71a3b6abd2a2e57788f1" target="_top" xlink:title=" ">
<polygon fill="white" stroke="#666666" points="470.25,-79.88 329,-79.88 329,-49.38 470.25,-49.38 470.25,-79.88"/>
<text text-anchor="start" x="337" y="-66.38" font-family="Helvetica,sans-Serif" font-size="10.00">v8::PersistentValueMapBase</text>
<text text-anchor="middle" x="399.62" y="-55.12" font-family="Helvetica,sans-Serif" font-size="10.00">::Release</text>
</a>
</g>
</g>
<!-- Node3&#45;&gt;Node12 -->
<g id="edge12" class="edge">
<title>Node3&#45;&gt;Node12</title>
<path fill="none" stroke="#63b8ff" d="M243.94,-184.06C258.97,-160.23 290.77,-114.73 329,-88.62 330.74,-87.44 332.55,-86.3 334.41,-85.22"/>
<polygon fill="#63b8ff" stroke="#63b8ff" points="335.76,-87.93 343.02,-80.22 332.53,-81.72 335.76,-87.93"/>
</g>
<!-- Node5 -->
<g id="node5" class="node">
<title>Node5</title>
<g id="a_node5"><a xlink:href="classv8_1_1PersistentBase.html#a27ddb6118b13225207e9641c1e6c8c91" target="_top" xlink:title=" ">
<polygon fill="white" stroke="#666666" points="638.88,-263.88 514.88,-263.88 514.88,-233.38 638.88,-233.38 638.88,-263.88"/>
<text text-anchor="start" x="522.88" y="-250.38" font-family="Helvetica,sans-Serif" font-size="10.00">v8::PersistentBase</text>
<text text-anchor="middle" x="576.88" y="-239.12" font-family="Helvetica,sans-Serif" font-size="10.00">::AnnotateStrongRetainer</text>
</a>
</g>
</g>
<!-- Node4&#45;&gt;Node5 -->
<g id="edge4" class="edge">
<title>Node4&#45;&gt;Node5</title>
<path fill="none" stroke="#63b8ff" d="M470.64,-248.62C481.51,-248.62 492.76,-248.62 503.67,-248.62"/>
<polygon fill="#63b8ff" stroke="#63b8ff" points="503.45,-252.13 513.45,-248.62 503.45,-245.13 503.45,-252.13"/>
</g>
<!-- Node6 -->
<g id="node6" class="node">
<title>Node6</title>
<g id="a_node6"><a xlink:href="namespacev8_1_1api__internal.html#ab5087fcb15b792961e9ed786d7fe8837" target="_top" xlink:title=" ">
<polygon fill="white" stroke="#666666" points="807.5,-263.88 683.5,-263.88 683.5,-233.38 807.5,-233.38 807.5,-263.88"/>
<text text-anchor="start" x="691.5" y="-250.38" font-family="Helvetica,sans-Serif" font-size="10.00">v8::api_internal::Annotate</text>
<text text-anchor="middle" x="745.5" y="-239.12" font-family="Helvetica,sans-Serif" font-size="10.00">StrongRetainer</text>
</a>
</g>
</g>
<!-- Node5&#45;&gt;Node6 -->
<g id="edge5" class="edge">
<title>Node5&#45;&gt;Node6</title>
<path fill="none" stroke="#63b8ff" d="M638.97,-248.62C649.77,-248.62 661.11,-248.62 672.18,-248.62"/>
<polygon fill="#63b8ff" stroke="#63b8ff" points="672.13,-252.13 682.13,-248.62 672.13,-245.13 672.13,-252.13"/>
</g>
<!-- Node8 -->
<g id="node8" class="node">
<title>Node8</title>
<g id="a_node8"><a xlink:href="classv8_1_1api__internal_1_1IndirectHandleBase.html#ada0f8b5483ded7c42bfbd255c88af268" target="_top" xlink:title=" ">
<polygon fill="white" stroke="#666666" points="635.5,-214.88 518.25,-214.88 518.25,-184.38 635.5,-184.38 635.5,-214.88"/>
<text text-anchor="start" x="526.25" y="-201.38" font-family="Helvetica,sans-Serif" font-size="10.00">v8::api_internal::Indirect</text>
<text text-anchor="middle" x="576.88" y="-190.12" font-family="Helvetica,sans-Serif" font-size="10.00">HandleBase::Clear</text>
</a>
</g>
</g>
<!-- Node7&#45;&gt;Node8 -->
<g id="edge7" class="edge">
<title>Node7&#45;&gt;Node8</title>
<path fill="none" stroke="#63b8ff" d="M470.64,-199.62C482.62,-199.62 495.04,-199.62 506.98,-199.62"/>
<polygon fill="#63b8ff" stroke="#63b8ff" points="506.79,-203.13 516.79,-199.62 506.79,-196.13 506.79,-203.13"/>
</g>
<!-- Node9 -->
<g id="node9" class="node">
<title>Node9</title>
<g id="a_node9"><a xlink:href="classv8_1_1api__internal_1_1IndirectHandleBase.html#a6d57129edaf800a385036b628efbdbde" target="_top" xlink:title=" ">
<polygon fill="white" stroke="#666666" points="635.5,-165.88 518.25,-165.88 518.25,-135.38 635.5,-135.38 635.5,-165.88"/>
<text text-anchor="start" x="526.25" y="-152.38" font-family="Helvetica,sans-Serif" font-size="10.00">v8::api_internal::Indirect</text>
<text text-anchor="middle" x="576.88" y="-141.12" font-family="Helvetica,sans-Serif" font-size="10.00">HandleBase::slot</text>
</a>
</g>
</g>
<!-- Node7&#45;&gt;Node9 -->
<g id="edge8" class="edge">
<title>Node7&#45;&gt;Node9</title>
<path fill="none" stroke="#63b8ff" d="M456.56,-183.99C473.39,-179.28 492.02,-174.07 509.46,-169.19"/>
<polygon fill="#63b8ff" stroke="#63b8ff" points="509.88,-172.43 518.57,-166.37 508,-165.69 509.88,-172.43"/>
</g>
<!-- Node12&#45;&gt;Node9 -->
<g id="edge16" class="edge">
<title>Node12&#45;&gt;Node9</title>
<path fill="none" stroke="#63b8ff" d="M454.29,-80.22C459.86,-82.68 465.28,-85.47 470.25,-88.62 489.62,-100.92 486.96,-113.21 506.25,-125.62 508.83,-127.29 511.54,-128.86 514.32,-130.34"/>
<polygon fill="#63b8ff" stroke="#63b8ff" points="512.51,-133.83 523.03,-135.03 515.55,-127.53 512.51,-133.83"/>
</g>
<!-- Node13 -->
<g id="node13" class="node">
<title>Node13</title>
<g id="a_node13"><a xlink:href="classv8_1_1PersistentValueMapBase.html#abb262f768e4353658726ba4d1295947c" target="_top" xlink:title=" ">
<polygon fill="white" stroke="#666666" points="647.5,-116.88 506.25,-116.88 506.25,-86.38 647.5,-86.38 647.5,-116.88"/>
<text text-anchor="start" x="514.25" y="-103.38" font-family="Helvetica,sans-Serif" font-size="10.00">v8::PersistentValueMapBase</text>
<text text-anchor="middle" x="576.88" y="-92.12" font-family="Helvetica,sans-Serif" font-size="10.00">::FromVal</text>
</a>
</g>
</g>
<!-- Node12&#45;&gt;Node13 -->
<g id="edge13" class="edge">
<title>Node12&#45;&gt;Node13</title>
<path fill="none" stroke="#63b8ff" d="M470.64,-79.41C478.73,-81.12 487.03,-82.87 495.24,-84.6"/>
<polygon fill="#63b8ff" stroke="#63b8ff" points="494.46,-88.22 504.97,-86.87 495.91,-81.38 494.46,-88.22"/>
</g>
<!-- Node14 -->
<g id="node14" class="node">
<title>Node14</title>
<g id="a_node14"><a xlink:href="classv8_1_1PersistentBase.html#a479c7b146da083aa608e133a7dec79f9" target="_top" xlink:title=" ">
<polygon fill="white" stroke="#666666" points="625.75,-67.88 528,-67.88 528,-37.38 625.75,-37.38 625.75,-67.88"/>
<text text-anchor="start" x="536" y="-54.38" font-family="Helvetica,sans-Serif" font-size="10.00">v8::PersistentBase</text>
<text text-anchor="middle" x="576.88" y="-43.12" font-family="Helvetica,sans-Serif" font-size="10.00">::IsWeak</text>
</a>
</g>
</g>
<!-- Node12&#45;&gt;Node14 -->
<g id="edge14" class="edge">
<title>Node12&#45;&gt;Node14</title>
<path fill="none" stroke="#63b8ff" d="M470.64,-59.83C485.99,-58.78 502.08,-57.68 516.94,-56.66"/>
<polygon fill="#63b8ff" stroke="#63b8ff" points="516.77,-60.11 526.51,-55.94 516.3,-53.13 516.77,-60.11"/>
</g>
<!-- Node15 -->
<g id="node15" class="node">
<title>Node15</title>
<g id="a_node15"><a xlink:href="classv8_1_1Global.html#a914903149cc752468d4a3a11b6089c7e" target="_top" xlink:title=" ">
<polygon fill="white" stroke="#666666" points="619.75,-19.25 534,-19.25 534,0 619.75,0 619.75,-19.25"/>
<text text-anchor="middle" x="576.88" y="-5.75" font-family="Helvetica,sans-Serif" font-size="10.00">v8::Global::Pass</text>
</a>
</g>
</g>
<!-- Node12&#45;&gt;Node15 -->
<g id="edge15" class="edge">
<title>Node12&#45;&gt;Node15</title>
<path fill="none" stroke="#63b8ff" d="M444.62,-48.95C463.51,-42.4 485.87,-34.87 506.25,-28.62 513.01,-26.55 520.17,-24.47 527.24,-22.48"/>
<polygon fill="#63b8ff" stroke="#63b8ff" points="527.75,-25.7 536.45,-19.65 525.88,-18.95 527.75,-25.7"/>
</g>
</g>
</svg>
