<?xml version="1.0" encoding="UTF-8" standalone="no"?>
<!DOCTYPE svg PUBLIC "-//W3C//DTD SVG 1.1//EN"
 "http://www.w3.org/Graphics/SVG/1.1/DTD/svg11.dtd">
<!-- Generated by graphviz version 8.0.5 (20230430.1635)
 -->
<!-- Title: v8::PersistentValueMap::Set Pages: 1 -->
<svg width="838pt" height="370pt"
 viewBox="0.00 0.00 838.00 369.88" xmlns="http://www.w3.org/2000/svg" xmlns:xlink="http://www.w3.org/1999/xlink">
<g id="graph0" class="graph" transform="scale(1 1) rotate(0) translate(4 365.88)">
<title>v8::PersistentValueMap::Set</title>
<!-- Node1 -->
<g id="node1" class="node">
<title>Node1</title>
<g id="a_node1"><a xlink:title=" ">
<polygon fill="#999999" stroke="#666666" points="138.25,-189.88 0,-189.88 0,-170.62 138.25,-170.62 138.25,-189.88"/>
<text text-anchor="middle" x="69.12" y="-176.38" font-family="Helvetica,sans-Serif" font-size="10.00">v8::PersistentValueMap::Set</text>
</a>
</g>
</g>
<!-- Node2 -->
<g id="node2" class="node">
<title>Node2</title>
<g id="a_node2"><a xlink:href="classv8_1_1PersistentValueMapBase.html#adacf68ca7b9fb19deab68711a70a8313" target="_top" xlink:title=" ">
<polygon fill="white" stroke="#666666" points="315.5,-238.5 174.25,-238.5 174.25,-208 315.5,-208 315.5,-238.5"/>
<text text-anchor="start" x="182.25" y="-225" font-family="Helvetica,sans-Serif" font-size="10.00">v8::PersistentValueMapBase</text>
<text text-anchor="middle" x="244.88" y="-213.75" font-family="Helvetica,sans-Serif" font-size="10.00">::Leak</text>
</a>
</g>
</g>
<!-- Node1&#45;&gt;Node2 -->
<g id="edge1" class="edge">
<title>Node1&#45;&gt;Node2</title>
<path fill="none" stroke="#63b8ff" d="M110.86,-190.33C128.46,-194.69 149.61,-199.92 169.82,-204.92"/>
<polygon fill="#63b8ff" stroke="#63b8ff" points="168.73,-208.5 179.27,-207.51 170.41,-201.71 168.73,-208.5"/>
</g>
<!-- Node4 -->
<g id="node4" class="node">
<title>Node4</title>
<g id="a_node4"><a xlink:href="classv8_1_1PersistentValueMap.html#a69bb485985460550e40c08c7fe55f89c" target="_top" xlink:title=" ">
<polygon fill="white" stroke="#666666" points="304.25,-171.5 185.5,-171.5 185.5,-141 304.25,-141 304.25,-171.5"/>
<text text-anchor="start" x="193.5" y="-158" font-family="Helvetica,sans-Serif" font-size="10.00">v8::PersistentValueMap</text>
<text text-anchor="middle" x="244.88" y="-146.75" font-family="Helvetica,sans-Serif" font-size="10.00">::SetUnique</text>
</a>
</g>
</g>
<!-- Node1&#45;&gt;Node4 -->
<g id="edge3" class="edge">
<title>Node1&#45;&gt;Node4</title>
<path fill="none" stroke="#63b8ff" d="M138.3,-170.83C150.16,-169.19 162.51,-167.49 174.41,-165.84"/>
<polygon fill="#63b8ff" stroke="#63b8ff" points="174.76,-169.19 184.19,-164.36 173.8,-162.26 174.76,-169.19"/>
</g>
<!-- Node3 -->
<g id="node3" class="node">
<title>Node3</title>
<g id="a_node3"><a xlink:href="classv8_1_1api__internal_1_1IndirectHandleBase.html#a6d57129edaf800a385036b628efbdbde" target="_top" xlink:title=" ">
<polygon fill="white" stroke="#666666" points="658,-226.5 540.75,-226.5 540.75,-196 658,-196 658,-226.5"/>
<text text-anchor="start" x="548.75" y="-213" font-family="Helvetica,sans-Serif" font-size="10.00">v8::api_internal::Indirect</text>
<text text-anchor="middle" x="599.38" y="-201.75" font-family="Helvetica,sans-Serif" font-size="10.00">HandleBase::slot</text>
</a>
</g>
</g>
<!-- Node2&#45;&gt;Node3 -->
<g id="edge2" class="edge">
<title>Node2&#45;&gt;Node3</title>
<path fill="none" stroke="#63b8ff" d="M315.9,-225.36C365.36,-226.33 433.16,-226.62 492.75,-223.25 504.72,-222.57 517.42,-221.47 529.7,-220.19"/>
<polygon fill="#63b8ff" stroke="#63b8ff" points="529.8,-223.59 539.36,-219.04 529.05,-216.63 529.8,-223.59"/>
</g>
<!-- Node5 -->
<g id="node5" class="node">
<title>Node5</title>
<g id="a_node5"><a xlink:href="classv8_1_1PersistentValueMapBase.html#a243dfaf4ef5f9aa7bc178a660b14235a" target="_top" xlink:title=" ">
<polygon fill="white" stroke="#666666" points="492.75,-79.5 351.5,-79.5 351.5,-49 492.75,-49 492.75,-79.5"/>
<text text-anchor="start" x="359.5" y="-66" font-family="Helvetica,sans-Serif" font-size="10.00">v8::PersistentValueMapBase</text>
<text text-anchor="middle" x="422.12" y="-54.75" font-family="Helvetica,sans-Serif" font-size="10.00">::AnnotateStrongRetainer</text>
</a>
</g>
</g>
<!-- Node4&#45;&gt;Node5 -->
<g id="edge4" class="edge">
<title>Node4&#45;&gt;Node5</title>
<path fill="none" stroke="#63b8ff" d="M267.31,-140.66C288.09,-126.04 320.87,-104.23 351.5,-89.25 355.22,-87.43 359.11,-85.67 363.07,-83.99"/>
<polygon fill="#63b8ff" stroke="#63b8ff" points="364.03,-86.97 371.98,-79.96 361.4,-80.48 364.03,-86.97"/>
</g>
<!-- Node8 -->
<g id="node8" class="node">
<title>Node8</title>
<g id="a_node8"><a xlink:href="classv8_1_1PersistentValueMapBase.html#a7b083c75829bbc4177729ffe9827c4ac" target="_top" xlink:title=" ">
<polygon fill="white" stroke="#666666" points="492.75,-128.5 351.5,-128.5 351.5,-98 492.75,-98 492.75,-128.5"/>
<text text-anchor="start" x="359.5" y="-115" font-family="Helvetica,sans-Serif" font-size="10.00">v8::PersistentValueMapBase</text>
<text text-anchor="middle" x="422.12" y="-103.75" font-family="Helvetica,sans-Serif" font-size="10.00">::ClearAndLeak</text>
</a>
</g>
</g>
<!-- Node4&#45;&gt;Node8 -->
<g id="edge7" class="edge">
<title>Node4&#45;&gt;Node8</title>
<path fill="none" stroke="#63b8ff" d="M304.72,-141.81C318.11,-138.53 332.51,-134.99 346.46,-131.57"/>
<polygon fill="#63b8ff" stroke="#63b8ff" points="347.14,-134.76 356.02,-128.98 345.47,-127.96 347.14,-134.76"/>
</g>
<!-- Node10 -->
<g id="node10" class="node">
<title>Node10</title>
<g id="a_node10"><a xlink:href="classv8_1_1PersistentValueMapBase.html#a149e5b7f40fa52dc9b379342ac802d94" target="_top" xlink:title=" ">
<polygon fill="white" stroke="#666666" points="492.75,-30.5 351.5,-30.5 351.5,0 492.75,0 492.75,-30.5"/>
<text text-anchor="start" x="359.5" y="-17" font-family="Helvetica,sans-Serif" font-size="10.00">v8::PersistentValueMapBase</text>
<text text-anchor="middle" x="422.12" y="-5.75" font-family="Helvetica,sans-Serif" font-size="10.00">::impl</text>
</a>
</g>
</g>
<!-- Node4&#45;&gt;Node10 -->
<g id="edge10" class="edge">
<title>Node4&#45;&gt;Node10</title>
<path fill="none" stroke="#63b8ff" d="M256.07,-140.89C273.09,-116.34 309.59,-68.22 351.5,-40.25 353.92,-38.63 356.46,-37.11 359.07,-35.67"/>
<polygon fill="#63b8ff" stroke="#63b8ff" points="360.41,-38.42 367.81,-30.84 357.29,-32.15 360.41,-38.42"/>
</g>
<!-- Node11 -->
<g id="node11" class="node">
<title>Node11</title>
<g id="a_node11"><a xlink:href="classv8_1_1PersistentValueMapBase.html#ac15c999275fb50c0084246cb9a848811" target="_top" xlink:title=" ">
<polygon fill="white" stroke="#666666" points="492.75,-214.5 351.5,-214.5 351.5,-184 492.75,-184 492.75,-214.5"/>
<text text-anchor="start" x="359.5" y="-201" font-family="Helvetica,sans-Serif" font-size="10.00">v8::PersistentValueMapBase</text>
<text text-anchor="middle" x="422.12" y="-189.75" font-family="Helvetica,sans-Serif" font-size="10.00">::isolate</text>
</a>
</g>
</g>
<!-- Node4&#45;&gt;Node11 -->
<g id="edge11" class="edge">
<title>Node4&#45;&gt;Node11</title>
<path fill="none" stroke="#63b8ff" d="M304.72,-170.69C318.11,-173.97 332.51,-177.51 346.46,-180.93"/>
<polygon fill="#63b8ff" stroke="#63b8ff" points="345.47,-184.54 356.02,-183.52 347.14,-177.74 345.47,-184.54"/>
</g>
<!-- Node12 -->
<g id="node12" class="node">
<title>Node12</title>
<g id="a_node12"><a xlink:href="classv8_1_1Local.html#abccf96e442bc7c20dc6bb18ab095cf7f" target="_top" xlink:title=" ">
<polygon fill="white" stroke="#666666" points="462,-165.88 382.25,-165.88 382.25,-146.62 462,-146.62 462,-165.88"/>
<text text-anchor="middle" x="422.12" y="-152.38" font-family="Helvetica,sans-Serif" font-size="10.00">v8::Local::New</text>
</a>
</g>
</g>
<!-- Node4&#45;&gt;Node12 -->
<g id="edge12" class="edge">
<title>Node4&#45;&gt;Node12</title>
<path fill="none" stroke="#63b8ff" d="M304.72,-156.25C326.3,-156.25 350.49,-156.25 371.21,-156.25"/>
<polygon fill="#63b8ff" stroke="#63b8ff" points="371.01,-159.75 381.01,-156.25 371.01,-152.75 371.01,-159.75"/>
</g>
<!-- Node13 -->
<g id="node13" class="node">
<title>Node13</title>
<g id="a_node13"><a xlink:href="classv8_1_1PersistentValueMapBase.html#aea9af944a2bd71a3b6abd2a2e57788f1" target="_top" xlink:title=" ">
<polygon fill="white" stroke="#666666" points="492.75,-300.5 351.5,-300.5 351.5,-270 492.75,-270 492.75,-300.5"/>
<text text-anchor="start" x="359.5" y="-287" font-family="Helvetica,sans-Serif" font-size="10.00">v8::PersistentValueMapBase</text>
<text text-anchor="middle" x="422.12" y="-275.75" font-family="Helvetica,sans-Serif" font-size="10.00">::Release</text>
</a>
</g>
</g>
<!-- Node4&#45;&gt;Node13 -->
<g id="edge13" class="edge">
<title>Node4&#45;&gt;Node13</title>
<path fill="none" stroke="#63b8ff" d="M273.18,-171.99C286.25,-179.81 301.96,-189.61 315.5,-199.25 343.78,-219.37 374.36,-244.69 395.3,-262.63"/>
<polygon fill="#63b8ff" stroke="#63b8ff" points="392.51,-265.71 402.37,-269.59 397.08,-260.41 392.51,-265.71"/>
</g>
<!-- Node6 -->
<g id="node6" class="node">
<title>Node6</title>
<g id="a_node6"><a xlink:href="classv8_1_1PersistentBase.html#a27ddb6118b13225207e9641c1e6c8c91" target="_top" xlink:title=" ">
<polygon fill="white" stroke="#666666" points="661.38,-79.5 537.38,-79.5 537.38,-49 661.38,-49 661.38,-79.5"/>
<text text-anchor="start" x="545.38" y="-66" font-family="Helvetica,sans-Serif" font-size="10.00">v8::PersistentBase</text>
<text text-anchor="middle" x="599.38" y="-54.75" font-family="Helvetica,sans-Serif" font-size="10.00">::AnnotateStrongRetainer</text>
</a>
</g>
</g>
<!-- Node5&#45;&gt;Node6 -->
<g id="edge5" class="edge">
<title>Node5&#45;&gt;Node6</title>
<path fill="none" stroke="#63b8ff" d="M493.14,-64.25C504.01,-64.25 515.26,-64.25 526.17,-64.25"/>
<polygon fill="#63b8ff" stroke="#63b8ff" points="525.95,-67.75 535.95,-64.25 525.95,-60.75 525.95,-67.75"/>
</g>
<!-- Node7 -->
<g id="node7" class="node">
<title>Node7</title>
<g id="a_node7"><a xlink:href="namespacev8_1_1api__internal.html#ab5087fcb15b792961e9ed786d7fe8837" target="_top" xlink:title=" ">
<polygon fill="white" stroke="#666666" points="830,-79.5 706,-79.5 706,-49 830,-49 830,-79.5"/>
<text text-anchor="start" x="714" y="-66" font-family="Helvetica,sans-Serif" font-size="10.00">v8::api_internal::Annotate</text>
<text text-anchor="middle" x="768" y="-54.75" font-family="Helvetica,sans-Serif" font-size="10.00">StrongRetainer</text>
</a>
</g>
</g>
<!-- Node6&#45;&gt;Node7 -->
<g id="edge6" class="edge">
<title>Node6&#45;&gt;Node7</title>
<path fill="none" stroke="#63b8ff" d="M661.47,-64.25C672.27,-64.25 683.61,-64.25 694.68,-64.25"/>
<polygon fill="#63b8ff" stroke="#63b8ff" points="694.63,-67.75 704.63,-64.25 694.63,-60.75 694.63,-67.75"/>
</g>
<!-- Node8&#45;&gt;Node3 -->
<g id="edge9" class="edge">
<title>Node8&#45;&gt;Node3</title>
<path fill="none" stroke="#63b8ff" d="M474.02,-128.93C480.44,-131.45 486.83,-134.23 492.75,-137.25 521.07,-151.69 550.47,-172.88 571.04,-188.88"/>
<polygon fill="#63b8ff" stroke="#63b8ff" points="568.54,-192.16 578.56,-195.61 572.88,-186.67 568.54,-192.16"/>
</g>
<!-- Node9 -->
<g id="node9" class="node">
<title>Node9</title>
<g id="a_node9"><a xlink:href="classv8_1_1api__internal_1_1IndirectHandleBase.html#ada0f8b5483ded7c42bfbd255c88af268" target="_top" xlink:title=" ">
<polygon fill="white" stroke="#666666" points="658,-128.5 540.75,-128.5 540.75,-98 658,-98 658,-128.5"/>
<text text-anchor="start" x="548.75" y="-115" font-family="Helvetica,sans-Serif" font-size="10.00">v8::api_internal::Indirect</text>
<text text-anchor="middle" x="599.38" y="-103.75" font-family="Helvetica,sans-Serif" font-size="10.00">HandleBase::Clear</text>
</a>
</g>
</g>
<!-- Node8&#45;&gt;Node9 -->
<g id="edge8" class="edge">
<title>Node8&#45;&gt;Node9</title>
<path fill="none" stroke="#63b8ff" d="M493.14,-113.25C505.12,-113.25 517.54,-113.25 529.48,-113.25"/>
<polygon fill="#63b8ff" stroke="#63b8ff" points="529.29,-116.75 539.29,-113.25 529.29,-109.75 529.29,-116.75"/>
</g>
<!-- Node13&#45;&gt;Node3 -->
<g id="edge17" class="edge">
<title>Node13&#45;&gt;Node3</title>
<path fill="none" stroke="#63b8ff" d="M462.87,-269.6C472.73,-265.47 483.2,-260.87 492.75,-256.25 509.22,-248.27 512.08,-243.81 528.75,-236.25 532.83,-234.4 537.09,-232.59 541.4,-230.84"/>
<polygon fill="#63b8ff" stroke="#63b8ff" points="542.47,-233.79 550.52,-226.89 539.93,-227.27 542.47,-233.79"/>
</g>
<!-- Node14 -->
<g id="node14" class="node">
<title>Node14</title>
<g id="a_node14"><a xlink:href="classv8_1_1PersistentValueMapBase.html#abb262f768e4353658726ba4d1295947c" target="_top" xlink:title=" ">
<polygon fill="white" stroke="#666666" points="670,-324.5 528.75,-324.5 528.75,-294 670,-294 670,-324.5"/>
<text text-anchor="start" x="536.75" y="-311" font-family="Helvetica,sans-Serif" font-size="10.00">v8::PersistentValueMapBase</text>
<text text-anchor="middle" x="599.38" y="-299.75" font-family="Helvetica,sans-Serif" font-size="10.00">::FromVal</text>
</a>
</g>
</g>
<!-- Node13&#45;&gt;Node14 -->
<g id="edge14" class="edge">
<title>Node13&#45;&gt;Node14</title>
<path fill="none" stroke="#63b8ff" d="M493.14,-294.84C501.23,-295.95 509.53,-297.08 517.74,-298.21"/>
<polygon fill="#63b8ff" stroke="#63b8ff" points="517.08,-301.79 527.47,-299.68 518.03,-294.85 517.08,-301.79"/>
</g>
<!-- Node15 -->
<g id="node15" class="node">
<title>Node15</title>
<g id="a_node15"><a xlink:href="classv8_1_1PersistentBase.html#a479c7b146da083aa608e133a7dec79f9" target="_top" xlink:title=" ">
<polygon fill="white" stroke="#666666" points="648.25,-275.5 550.5,-275.5 550.5,-245 648.25,-245 648.25,-275.5"/>
<text text-anchor="start" x="558.5" y="-262" font-family="Helvetica,sans-Serif" font-size="10.00">v8::PersistentBase</text>
<text text-anchor="middle" x="599.38" y="-250.75" font-family="Helvetica,sans-Serif" font-size="10.00">::IsWeak</text>
</a>
</g>
</g>
<!-- Node13&#45;&gt;Node15 -->
<g id="edge15" class="edge">
<title>Node13&#45;&gt;Node15</title>
<path fill="none" stroke="#63b8ff" d="M493.14,-275.26C508.49,-273.07 524.58,-270.78 539.44,-268.66"/>
<polygon fill="#63b8ff" stroke="#63b8ff" points="539.61,-272.03 549.01,-267.15 538.62,-265.1 539.61,-272.03"/>
</g>
<!-- Node16 -->
<g id="node16" class="node">
<title>Node16</title>
<g id="a_node16"><a xlink:href="classv8_1_1Global.html#a914903149cc752468d4a3a11b6089c7e" target="_top" xlink:title=" ">
<polygon fill="white" stroke="#666666" points="642.25,-361.88 556.5,-361.88 556.5,-342.62 642.25,-342.62 642.25,-361.88"/>
<text text-anchor="middle" x="599.38" y="-348.38" font-family="Helvetica,sans-Serif" font-size="10.00">v8::Global::Pass</text>
</a>
</g>
</g>
<!-- Node13&#45;&gt;Node16 -->
<g id="edge16" class="edge">
<title>Node13&#45;&gt;Node16</title>
<path fill="none" stroke="#63b8ff" d="M454.01,-300.87C474.78,-310.98 502.98,-323.95 528.75,-333.25 534.56,-335.35 540.72,-337.34 546.88,-339.2"/>
<polygon fill="#63b8ff" stroke="#63b8ff" points="545.59,-342.76 556.17,-342.18 547.54,-336.03 545.59,-342.76"/>
</g>
</g>
</svg>
