<?xml version="1.0" encoding="UTF-8" standalone="no"?>
<!DOCTYPE svg PUBLIC "-//W3C//DTD SVG 1.1//EN"
 "http://www.w3.org/Graphics/SVG/1.1/DTD/svg11.dtd">
<!-- Generated by graphviz version 8.0.5 (20230430.1635)
 -->
<!-- Title: v8::api_internal::IndirectHandleBase::IsEmpty Pages: 1 -->
<svg width="438pt" height="567pt"
 viewBox="0.00 0.00 437.75 566.88" xmlns="http://www.w3.org/2000/svg" xmlns:xlink="http://www.w3.org/1999/xlink">
<g id="graph0" class="graph" transform="scale(1 1) rotate(0) translate(4 562.88)">
<title>v8::api_internal::IndirectHandleBase::IsEmpty</title>
<!-- Node1 -->
<g id="node1" class="node">
<title>Node1</title>
<g id="a_node1"><a xlink:title=" ">
<polygon fill="#999999" stroke="#666666" points="429.75,-300.5 312.5,-300.5 312.5,-270 429.75,-270 429.75,-300.5"/>
<text text-anchor="start" x="320.5" y="-287" font-family="Helvetica,sans-Serif" font-size="10.00">v8::api_internal::Indirect</text>
<text text-anchor="middle" x="371.12" y="-275.75" font-family="Helvetica,sans-Serif" font-size="10.00">HandleBase::IsEmpty</text>
</a>
</g>
</g>
<!-- Node2 -->
<g id="node2" class="node">
<title>Node2</title>
<g id="a_node2"><a xlink:href="classv8_1_1Persistent.html#ad22a64f41b6fbd1f9e227d344e5362d7" target="_top" xlink:title=" ">
<polygon fill="white" stroke="#666666" points="252.12,-558.88 152.12,-558.88 152.12,-539.62 252.12,-539.62 252.12,-558.88"/>
<text text-anchor="middle" x="202.12" y="-545.38" font-family="Helvetica,sans-Serif" font-size="10.00">v8::Persistent::Cast</text>
</a>
</g>
</g>
<!-- Node1&#45;&gt;Node2 -->
<g id="edge1" class="edge">
<title>Node1&#45;&gt;Node2</title>
<path fill="none" stroke="#63b8ff" d="M367.95,-311.66C362.33,-362.19 342.73,-472.71 276.5,-531.25 269.72,-537.24 261.26,-541.31 252.53,-544.06"/>
<polygon fill="#63b8ff" stroke="#63b8ff" points="371.5,-312.3 369.02,-302 364.54,-311.6 371.5,-312.3"/>
</g>
<!-- Node4 -->
<g id="node4" class="node">
<title>Node4</title>
<g id="a_node4"><a xlink:href="classv8_1_1Local.html#a6ed02351ca8e4dd0257dff7c2c9f67a8" target="_top" xlink:title=" ">
<polygon fill="white" stroke="#666666" points="242,-521.88 162.25,-521.88 162.25,-502.62 242,-502.62 242,-521.88"/>
<text text-anchor="middle" x="202.12" y="-508.38" font-family="Helvetica,sans-Serif" font-size="10.00">v8::Local::Cast</text>
</a>
</g>
</g>
<!-- Node1&#45;&gt;Node4 -->
<g id="edge3" class="edge">
<title>Node1&#45;&gt;Node4</title>
<path fill="none" stroke="#63b8ff" d="M365.83,-311.52C357.16,-355.84 333.33,-445.32 276.5,-493.25 266.94,-501.31 254.38,-506 242.35,-508.72"/>
<polygon fill="#63b8ff" stroke="#63b8ff" points="369.43,-312.25 367.8,-301.78 362.55,-310.98 369.43,-312.25"/>
</g>
<!-- Node5 -->
<g id="node5" class="node">
<title>Node5</title>
<g id="a_node5"><a xlink:href="classv8_1_1EscapableHandleScope.html#a4985872a5963958a90e7b52dc9d53dcf" target="_top" xlink:title=" ">
<polygon fill="white" stroke="#666666" points="269.38,-484.5 134.88,-484.5 134.88,-454 269.38,-454 269.38,-484.5"/>
<text text-anchor="start" x="142.88" y="-471" font-family="Helvetica,sans-Serif" font-size="10.00">v8::EscapableHandleScope</text>
<text text-anchor="middle" x="202.12" y="-459.75" font-family="Helvetica,sans-Serif" font-size="10.00">::Escape</text>
</a>
</g>
</g>
<!-- Node1&#45;&gt;Node5 -->
<g id="edge4" class="edge">
<title>Node1&#45;&gt;Node5</title>
<path fill="none" stroke="#63b8ff" d="M361.68,-310.97C348.82,-346.25 321,-409.36 276.5,-445.25 272.54,-448.45 268.13,-451.22 263.51,-453.64"/>
<polygon fill="#63b8ff" stroke="#63b8ff" points="365.18,-312.57 365.2,-301.97 358.58,-310.24 365.18,-312.57"/>
</g>
<!-- Node6 -->
<g id="node6" class="node">
<title>Node6</title>
<g id="a_node6"><a xlink:href="classv8_1_1TracedReferenceBase.html#ad6a3851cc37fc400046a36123e734971" target="_top" xlink:title=" ">
<polygon fill="white" stroke="#666666" points="276.12,-435.88 128.12,-435.88 128.12,-416.62 276.12,-416.62 276.12,-435.88"/>
<text text-anchor="middle" x="202.12" y="-422.38" font-family="Helvetica,sans-Serif" font-size="10.00">v8::TracedReferenceBase::Get</text>
</a>
</g>
</g>
<!-- Node1&#45;&gt;Node6 -->
<g id="edge5" class="edge">
<title>Node1&#45;&gt;Node6</title>
<path fill="none" stroke="#63b8ff" d="M357.65,-310.09C342.34,-337.99 313.77,-382.57 276.5,-407.25 271.01,-410.88 264.87,-413.82 258.54,-416.2"/>
<polygon fill="#63b8ff" stroke="#63b8ff" points="361.07,-312.11 362.68,-301.64 354.89,-308.82 361.07,-312.11"/>
</g>
<!-- Node7 -->
<g id="node7" class="node">
<title>Node7</title>
<g id="a_node7"><a xlink:href="classv8_1_1TracedReference.html#a37604b0cb2ec940aa603ee6b7e0a5bc1" target="_top" xlink:title=" ">
<polygon fill="white" stroke="#666666" points="254.75,-398.5 149.5,-398.5 149.5,-368 254.75,-368 254.75,-398.5"/>
<text text-anchor="start" x="157.5" y="-385" font-family="Helvetica,sans-Serif" font-size="10.00">v8::TracedReference</text>
<text text-anchor="middle" x="202.12" y="-373.75" font-family="Helvetica,sans-Serif" font-size="10.00">::operator=</text>
</a>
</g>
</g>
<!-- Node1&#45;&gt;Node7 -->
<g id="edge6" class="edge">
<title>Node1&#45;&gt;Node7</title>
<path fill="none" stroke="#63b8ff" d="M345.54,-308.16C327.54,-323.97 301.9,-344.53 276.5,-358.25 269.75,-361.9 262.37,-365.16 254.97,-368.03"/>
<polygon fill="#63b8ff" stroke="#63b8ff" points="347.62,-311.11 352.74,-301.83 342.95,-305.89 347.62,-311.11"/>
</g>
<!-- Node8 -->
<g id="node8" class="node">
<title>Node8</title>
<g id="a_node8"><a xlink:href="classv8_1_1TracedReferenceBase.html#a50c7297683f3c9864710ceca4aba546a" target="_top" xlink:title=" ">
<polygon fill="white" stroke="#666666" points="266,-349.5 138.25,-349.5 138.25,-319 266,-319 266,-349.5"/>
<text text-anchor="start" x="146.25" y="-336" font-family="Helvetica,sans-Serif" font-size="10.00">v8::TracedReferenceBase</text>
<text text-anchor="middle" x="202.12" y="-324.75" font-family="Helvetica,sans-Serif" font-size="10.00">::Reset</text>
</a>
</g>
</g>
<!-- Node1&#45;&gt;Node8 -->
<g id="edge7" class="edge">
<title>Node1&#45;&gt;Node8</title>
<path fill="none" stroke="#63b8ff" d="M306.27,-303.98C289.94,-308.78 272.54,-313.88 256.78,-318.51"/>
<polygon fill="#63b8ff" stroke="#63b8ff" points="307.22,-307.06 315.83,-300.89 305.25,-300.35 307.22,-307.06"/>
</g>
<!-- Node9 -->
<g id="node9" class="node">
<title>Node9</title>
<g id="a_node9"><a xlink:href="classv8_1_1PersistentBase.html#ab4b4d3fba3498486f1f10dc7d5be90fc" target="_top" xlink:title=" ">
<polygon fill="white" stroke="#666666" points="251,-300.5 153.25,-300.5 153.25,-270 251,-270 251,-300.5"/>
<text text-anchor="start" x="161.25" y="-287" font-family="Helvetica,sans-Serif" font-size="10.00">v8::PersistentBase</text>
<text text-anchor="middle" x="202.12" y="-275.75" font-family="Helvetica,sans-Serif" font-size="10.00">::Reset</text>
</a>
</g>
</g>
<!-- Node1&#45;&gt;Node9 -->
<g id="edge8" class="edge">
<title>Node1&#45;&gt;Node9</title>
<path fill="none" stroke="#63b8ff" d="M301.29,-285.25C284.49,-285.25 266.87,-285.25 251.28,-285.25"/>
<polygon fill="#63b8ff" stroke="#63b8ff" points="301.19,-288.75 311.19,-285.25 301.19,-281.75 301.19,-288.75"/>
</g>
<!-- Node10 -->
<g id="node10" class="node">
<title>Node10</title>
<g id="a_node10"><a xlink:href="classv8_1_1TracedReference.html#a5ff68298bf042019350081c107edf3da" target="_top" xlink:title=" ">
<polygon fill="white" stroke="#666666" points="254.75,-251.5 149.5,-251.5 149.5,-221 254.75,-221 254.75,-251.5"/>
<text text-anchor="start" x="157.5" y="-238" font-family="Helvetica,sans-Serif" font-size="10.00">v8::TracedReference</text>
<text text-anchor="middle" x="202.12" y="-226.75" font-family="Helvetica,sans-Serif" font-size="10.00">::Reset</text>
</a>
</g>
</g>
<!-- Node1&#45;&gt;Node10 -->
<g id="edge9" class="edge">
<title>Node1&#45;&gt;Node10</title>
<path fill="none" stroke="#63b8ff" d="M306.43,-266.56C289.46,-261.58 271.32,-256.26 255.06,-251.49"/>
<polygon fill="#63b8ff" stroke="#63b8ff" points="305.25,-270.15 315.83,-269.61 307.22,-263.44 305.25,-270.15"/>
</g>
<!-- Node11 -->
<g id="node11" class="node">
<title>Node11</title>
<g id="a_node11"><a xlink:href="classv8_1_1ReturnValue.html#a57c4b962cf2ca387d3fb9a2f8e47a963" target="_top" xlink:title=" ">
<polygon fill="white" stroke="#666666" points="254,-202.88 150.25,-202.88 150.25,-183.62 254,-183.62 254,-202.88"/>
<text text-anchor="middle" x="202.12" y="-189.38" font-family="Helvetica,sans-Serif" font-size="10.00">v8::ReturnValue::Set</text>
</a>
</g>
</g>
<!-- Node1&#45;&gt;Node11 -->
<g id="edge10" class="edge">
<title>Node1&#45;&gt;Node11</title>
<path fill="none" stroke="#63b8ff" d="M346.66,-262.48C328.77,-246.3 302.79,-225.21 276.5,-212.25 269.3,-208.7 261.36,-205.77 253.45,-203.35"/>
<polygon fill="#63b8ff" stroke="#63b8ff" points="343.57,-264.32 353.29,-268.53 348.32,-259.17 343.57,-264.32"/>
</g>
<!-- Node12 -->
<g id="node12" class="node">
<title>Node12</title>
<g id="a_node12"><a xlink:href="classv8_1_1ReturnValue.html#a8f5b2381dd7e0b85be658dcb799056b3" target="_top" xlink:title=" ">
<polygon fill="white" stroke="#666666" points="276.5,-165.88 127.75,-165.88 127.75,-146.62 276.5,-146.62 276.5,-165.88"/>
<text text-anchor="middle" x="202.12" y="-152.38" font-family="Helvetica,sans-Serif" font-size="10.00">v8::ReturnValue::SetNonEmpty</text>
</a>
</g>
</g>
<!-- Node1&#45;&gt;Node12 -->
<g id="edge11" class="edge">
<title>Node1&#45;&gt;Node12</title>
<path fill="none" stroke="#63b8ff" d="M355.91,-260.6C339.88,-235.07 311.45,-195.94 276.5,-174.25 271.37,-171.07 265.72,-168.45 259.89,-166.29"/>
<polygon fill="#63b8ff" stroke="#63b8ff" points="353.23,-261.94 361.43,-268.65 359.21,-258.29 353.23,-261.94"/>
</g>
<!-- Node13 -->
<g id="node13" class="node">
<title>Node13</title>
<g id="a_node13"><a xlink:href="classv8_1_1TracedReferenceBase.html#a7ea40db9556e49ad7ee4a2dfb235b655" target="_top" xlink:title=" ">
<polygon fill="white" stroke="#666666" points="266,-128.5 138.25,-128.5 138.25,-98 266,-98 266,-128.5"/>
<text text-anchor="start" x="146.25" y="-115" font-family="Helvetica,sans-Serif" font-size="10.00">v8::TracedReferenceBase</text>
<text text-anchor="middle" x="202.12" y="-103.75" font-family="Helvetica,sans-Serif" font-size="10.00">::SetWrapperClassId</text>
</a>
</g>
</g>
<!-- Node1&#45;&gt;Node13 -->
<g id="edge12" class="edge">
<title>Node1&#45;&gt;Node13</title>
<path fill="none" stroke="#63b8ff" d="M360.38,-259.59C346.59,-226.63 318.32,-169.8 276.5,-137.25 272.38,-134.04 267.8,-131.25 263.02,-128.83"/>
<polygon fill="#63b8ff" stroke="#63b8ff" points="357.51,-260.83 364.5,-268.79 364,-258.2 357.51,-260.83"/>
</g>
<!-- Node14 -->
<g id="node14" class="node">
<title>Node14</title>
<g id="a_node14"><a xlink:href="classv8_1_1TracedReference.html#a41655d72985a88f180b0f515282dc747" target="_top" xlink:title=" ">
<polygon fill="white" stroke="#666666" points="254.75,-79.5 149.5,-79.5 149.5,-49 254.75,-49 254.75,-79.5"/>
<text text-anchor="start" x="157.5" y="-66" font-family="Helvetica,sans-Serif" font-size="10.00">v8::TracedReference</text>
<text text-anchor="middle" x="202.12" y="-54.75" font-family="Helvetica,sans-Serif" font-size="10.00">::TracedReference</text>
</a>
</g>
</g>
<!-- Node1&#45;&gt;Node14 -->
<g id="edge13" class="edge">
<title>Node1&#45;&gt;Node14</title>
<path fill="none" stroke="#63b8ff" d="M364.49,-258.84C354.21,-217 328.54,-135.52 276.5,-89.25 270.26,-83.71 262.75,-79.38 254.93,-76.01"/>
<polygon fill="#63b8ff" stroke="#63b8ff" points="361.3,-259.58 366.98,-268.52 368.12,-257.99 361.3,-259.58"/>
</g>
<!-- Node15 -->
<g id="node15" class="node">
<title>Node15</title>
<g id="a_node15"><a xlink:href="classv8_1_1TracedReferenceBase.html#a0b7354f15b126d889414f603b5a7cb9c" target="_top" xlink:title=" ">
<polygon fill="white" stroke="#666666" points="266,-30.5 138.25,-30.5 138.25,0 266,0 266,-30.5"/>
<text text-anchor="start" x="146.25" y="-17" font-family="Helvetica,sans-Serif" font-size="10.00">v8::TracedReferenceBase</text>
<text text-anchor="middle" x="202.12" y="-5.75" font-family="Helvetica,sans-Serif" font-size="10.00">::WrapperClassId</text>
</a>
</g>
</g>
<!-- Node1&#45;&gt;Node15 -->
<g id="edge14" class="edge">
<title>Node1&#45;&gt;Node15</title>
<path fill="none" stroke="#63b8ff" d="M367.36,-258.78C360.76,-209.03 339.63,-101.1 276.5,-40.25 272.72,-36.61 268.39,-33.49 263.76,-30.83"/>
<polygon fill="#63b8ff" stroke="#63b8ff" points="363.99,-259.07 368.68,-268.57 370.94,-258.22 363.99,-259.07"/>
</g>
<!-- Node3 -->
<g id="node3" class="node">
<title>Node3</title>
<g id="a_node3"><a xlink:href="classv8_1_1Persistent.html#a8e2ed22b54c0e2cfb72509c4facbd956" target="_top" xlink:title=" ">
<polygon fill="white" stroke="#666666" points="91.75,-558.88 0,-558.88 0,-539.62 91.75,-539.62 91.75,-558.88"/>
<text text-anchor="middle" x="45.88" y="-545.38" font-family="Helvetica,sans-Serif" font-size="10.00">v8::Persistent::As</text>
</a>
</g>
</g>
<!-- Node2&#45;&gt;Node3 -->
<g id="edge2" class="edge">
<title>Node2&#45;&gt;Node3</title>
<path fill="none" stroke="#63b8ff" d="M141.36,-549.25C125.03,-549.25 107.61,-549.25 92.24,-549.25"/>
<polygon fill="#63b8ff" stroke="#63b8ff" points="140.9,-552.75 150.9,-549.25 140.9,-545.75 140.9,-552.75"/>
</g>
</g>
</svg>
