<?xml version="1.0" encoding="UTF-8" standalone="no"?>
<!DOCTYPE svg PUBLIC "-//W3C//DTD SVG 1.1//EN"
 "http://www.w3.org/Graphics/SVG/1.1/DTD/svg11.dtd">
<!-- Generated by graphviz version 8.0.5 (20230430.1635)
 -->
<!-- Title: v8::Primitive Pages: 1 -->
<svg width="268pt" height="304pt"
 viewBox="0.00 0.00 267.88 303.50" xmlns="http://www.w3.org/2000/svg" xmlns:xlink="http://www.w3.org/1999/xlink">
<g id="graph0" class="graph" transform="scale(1 1) rotate(0) translate(4 299.5)">
<title>v8::Primitive</title>
<!-- Node1 -->
<g id="node1" class="node">
<title>Node1</title>
<g id="a_node1"><a xlink:title=" ">
<polygon fill="#999999" stroke="#666666" points="147.75,-185 78.5,-185 78.5,-165.75 147.75,-165.75 147.75,-185"/>
<text text-anchor="middle" x="113.12" y="-171.5" font-family="Helvetica,sans-Serif" font-size="10.00">v8::Primitive</text>
</a>
</g>
</g>
<!-- Node4 -->
<g id="node4" class="node">
<title>Node4</title>
<g id="a_node4"><a xlink:href="classv8_1_1Boolean.html" target="_top" xlink:title=" ">
<polygon fill="white" stroke="#666666" points="66.25,-129.75 0,-129.75 0,-110.5 66.25,-110.5 66.25,-129.75"/>
<text text-anchor="middle" x="33.12" y="-116.25" font-family="Helvetica,sans-Serif" font-size="10.00">v8::Boolean</text>
</a>
</g>
</g>
<!-- Node1&#45;&gt;Node4 -->
<g id="edge3" class="edge">
<title>Node1&#45;&gt;Node4</title>
<path fill="none" stroke="#63b8ff" d="M90.48,-159.3C76.39,-149.92 58.74,-138.17 46.76,-130.2"/>
<polygon fill="#63b8ff" stroke="#63b8ff" points="88.29,-162.71 98.55,-165.34 92.17,-156.89 88.29,-162.71"/>
</g>
<!-- Node5 -->
<g id="node5" class="node">
<title>Node5</title>
<g id="a_node5"><a xlink:href="classv8_1_1Name.html" target="_top" xlink:title=" ">
<polygon fill="white" stroke="#666666" points="141.75,-129.75 84.5,-129.75 84.5,-110.5 141.75,-110.5 141.75,-129.75"/>
<text text-anchor="middle" x="113.12" y="-116.25" font-family="Helvetica,sans-Serif" font-size="10.00">v8::Name</text>
</a>
</g>
</g>
<!-- Node1&#45;&gt;Node5 -->
<g id="edge4" class="edge">
<title>Node1&#45;&gt;Node5</title>
<path fill="none" stroke="#63b8ff" d="M113.12,-154.71C113.12,-146.27 113.12,-136.83 113.12,-130.11"/>
<polygon fill="#63b8ff" stroke="#63b8ff" points="109.63,-154.58 113.12,-164.58 116.63,-154.58 109.63,-154.58"/>
</g>
<!-- Node8 -->
<g id="node8" class="node">
<title>Node8</title>
<g id="a_node8"><a xlink:href="classv8_1_1Number.html" target="_top" xlink:title=" ">
<polygon fill="white" stroke="#666666" points="224.88,-129.75 159.38,-129.75 159.38,-110.5 224.88,-110.5 224.88,-129.75"/>
<text text-anchor="middle" x="192.12" y="-116.25" font-family="Helvetica,sans-Serif" font-size="10.00">v8::Number</text>
</a>
</g>
</g>
<!-- Node1&#45;&gt;Node8 -->
<g id="edge7" class="edge">
<title>Node1&#45;&gt;Node8</title>
<path fill="none" stroke="#63b8ff" d="M135.48,-159.3C149.4,-149.92 166.83,-138.17 178.66,-130.2"/>
<polygon fill="#63b8ff" stroke="#63b8ff" points="133.86,-156.85 127.53,-165.34 137.77,-162.65 133.86,-156.85"/>
</g>
<!-- Node2 -->
<g id="node2" class="node">
<title>Node2</title>
<g id="a_node2"><a xlink:href="classv8_1_1Value.html" target="_top" xlink:title=" ">
<polygon fill="white" stroke="#666666" points="141,-240.25 85.25,-240.25 85.25,-221 141,-221 141,-240.25"/>
<text text-anchor="middle" x="113.12" y="-226.75" font-family="Helvetica,sans-Serif" font-size="10.00">v8::Value</text>
</a>
</g>
</g>
<!-- Node2&#45;&gt;Node1 -->
<g id="edge1" class="edge">
<title>Node2&#45;&gt;Node1</title>
<path fill="none" stroke="#63b8ff" d="M113.12,-209.96C113.12,-201.52 113.12,-192.08 113.12,-185.36"/>
<polygon fill="#63b8ff" stroke="#63b8ff" points="109.63,-209.83 113.12,-219.83 116.63,-209.83 109.63,-209.83"/>
</g>
<!-- Node3 -->
<g id="node3" class="node">
<title>Node3</title>
<g id="a_node3"><a xlink:href="classv8_1_1Data.html" target="_top" xlink:title=" ">
<polygon fill="white" stroke="#666666" points="138.75,-295.5 87.5,-295.5 87.5,-276.25 138.75,-276.25 138.75,-295.5"/>
<text text-anchor="middle" x="113.12" y="-282" font-family="Helvetica,sans-Serif" font-size="10.00">v8::Data</text>
</a>
</g>
</g>
<!-- Node3&#45;&gt;Node2 -->
<g id="edge2" class="edge">
<title>Node3&#45;&gt;Node2</title>
<path fill="none" stroke="#63b8ff" d="M113.12,-265.21C113.12,-256.77 113.12,-247.33 113.12,-240.61"/>
<polygon fill="#63b8ff" stroke="#63b8ff" points="109.63,-265.08 113.12,-275.08 116.63,-265.08 109.63,-265.08"/>
</g>
<!-- Node6 -->
<g id="node6" class="node">
<title>Node6</title>
<g id="a_node6"><a xlink:href="classv8_1_1String.html" target="_top" xlink:title=" ">
<polygon fill="white" stroke="#666666" points="63.38,-74.5 6.88,-74.5 6.88,-55.25 63.38,-55.25 63.38,-74.5"/>
<text text-anchor="middle" x="35.12" y="-61" font-family="Helvetica,sans-Serif" font-size="10.00">v8::String</text>
</a>
</g>
</g>
<!-- Node5&#45;&gt;Node6 -->
<g id="edge5" class="edge">
<title>Node5&#45;&gt;Node6</title>
<path fill="none" stroke="#63b8ff" d="M91.05,-104.05C77.31,-94.67 60.1,-82.92 48.42,-74.95"/>
<polygon fill="#63b8ff" stroke="#63b8ff" points="88.66,-107.34 98.89,-110.09 92.61,-101.56 88.66,-107.34"/>
</g>
<!-- Node7 -->
<g id="node7" class="node">
<title>Node7</title>
<g id="a_node7"><a xlink:href="classv8_1_1Symbol.html" target="_top" xlink:title=" ">
<polygon fill="white" stroke="#666666" points="144.75,-74.5 81.5,-74.5 81.5,-55.25 144.75,-55.25 144.75,-74.5"/>
<text text-anchor="middle" x="113.12" y="-61" font-family="Helvetica,sans-Serif" font-size="10.00">v8::Symbol</text>
</a>
</g>
</g>
<!-- Node5&#45;&gt;Node7 -->
<g id="edge6" class="edge">
<title>Node5&#45;&gt;Node7</title>
<path fill="none" stroke="#63b8ff" d="M113.12,-99.46C113.12,-91.02 113.12,-81.58 113.12,-74.86"/>
<polygon fill="#63b8ff" stroke="#63b8ff" points="109.63,-99.33 113.12,-109.33 116.63,-99.33 109.63,-99.33"/>
</g>
<!-- Node9 -->
<g id="node9" class="node">
<title>Node9</title>
<g id="a_node9"><a xlink:href="classv8_1_1Integer.html" target="_top" xlink:title=" ">
<polygon fill="white" stroke="#666666" points="223.62,-74.5 162.62,-74.5 162.62,-55.25 223.62,-55.25 223.62,-74.5"/>
<text text-anchor="middle" x="193.12" y="-61" font-family="Helvetica,sans-Serif" font-size="10.00">v8::Integer</text>
</a>
</g>
</g>
<!-- Node8&#45;&gt;Node9 -->
<g id="edge8" class="edge">
<title>Node8&#45;&gt;Node9</title>
<path fill="none" stroke="#63b8ff" d="M192.49,-99.46C192.65,-91.02 192.83,-81.58 192.96,-74.86"/>
<polygon fill="#63b8ff" stroke="#63b8ff" points="188.98,-99.27 192.29,-109.33 195.98,-99.4 188.98,-99.27"/>
</g>
<!-- Node10 -->
<g id="node10" class="node">
<title>Node10</title>
<g id="a_node10"><a xlink:href="classv8_1_1Int32.html" target="_top" xlink:title=" ">
<polygon fill="white" stroke="#666666" points="182.5,-19.25 129.75,-19.25 129.75,0 182.5,0 182.5,-19.25"/>
<text text-anchor="middle" x="156.12" y="-5.75" font-family="Helvetica,sans-Serif" font-size="10.00">v8::Int32</text>
</a>
</g>
</g>
<!-- Node9&#45;&gt;Node10 -->
<g id="edge9" class="edge">
<title>Node9&#45;&gt;Node10</title>
<path fill="none" stroke="#63b8ff" d="M180.86,-46.22C174.66,-37.31 167.41,-26.87 162.37,-19.61"/>
<polygon fill="#63b8ff" stroke="#63b8ff" points="178.43,-47.87 187.02,-54.08 184.18,-43.87 178.43,-47.87"/>
</g>
<!-- Node11 -->
<g id="node11" class="node">
<title>Node11</title>
<g id="a_node11"><a xlink:href="classv8_1_1Uint32.html" target="_top" xlink:title=" ">
<polygon fill="white" stroke="#666666" points="259.88,-19.25 200.38,-19.25 200.38,0 259.88,0 259.88,-19.25"/>
<text text-anchor="middle" x="230.12" y="-5.75" font-family="Helvetica,sans-Serif" font-size="10.00">v8::Uint32</text>
</a>
</g>
</g>
<!-- Node9&#45;&gt;Node11 -->
<g id="edge10" class="edge">
<title>Node9&#45;&gt;Node11</title>
<path fill="none" stroke="#63b8ff" d="M205.39,-46.22C211.59,-37.31 218.84,-26.87 223.88,-19.61"/>
<polygon fill="#63b8ff" stroke="#63b8ff" points="202.07,-43.87 199.23,-54.08 207.82,-47.87 202.07,-43.87"/>
</g>
</g>
</svg>
